<?xml version="1.0" encoding="UTF-8" standalone="no"?>
<!DOCTYPE svg PUBLIC "-//W3C//DTD SVG 1.1//EN"
 "http://www.w3.org/Graphics/SVG/1.1/DTD/svg11.dtd">
<!-- Generated by graphviz version 2.43.0 (0)
 -->
<!-- Title: AlicatBasis2Handler.h Pages: 1 -->
<svg width="898pt" height="115pt"
 viewBox="0.00 0.00 898.00 115.00" xmlns="http://www.w3.org/2000/svg" xmlns:xlink="http://www.w3.org/1999/xlink">
<g id="graph0" class="graph" transform="scale(1 1) rotate(0) translate(4 111)">
<title>AlicatBasis2Handler.h</title>
<!-- Node1 -->
<g id="Node000001" class="node">
<title>Node1</title>
<g id="a_Node000001"><a xlink:title="HAL&#45;level handler for the Alicat BASIS&#45;2 mass&#45;flow instrument.">
<polygon fill="#999999" stroke="#666666" points="382.5,-107 259.5,-107 259.5,-88 382.5,-88 382.5,-107"/>
<text text-anchor="middle" x="321" y="-95" font-family="Helvetica,sans-Serif" font-size="10.00">AlicatBasis2Handler.h</text>
</a>
</g>
</g>
<!-- Node2 -->
<g id="Node000002" class="node">
<title>Node2</title>
<g id="a_Node000002"><a xlink:title=" ">
<polygon fill="#e0e0e0" stroke="#999999" points="50,-35.5 0,-35.5 0,-16.5 50,-16.5 50,-35.5"/>
<text text-anchor="middle" x="25" y="-23.5" font-family="Helvetica,sans-Serif" font-size="10.00">atomic</text>
</a>
</g>
</g>
<!-- Node1&#45;&gt;Node2 -->
<g id="edge1_Node000001_Node000002" class="edge">
<title>Node1&#45;&gt;Node2</title>
<g id="a_edge1_Node000001_Node000002"><a xlink:title=" ">
<path fill="none" stroke="#63b8ff" d="M259.45,-94.07C204.88,-90.07 123.99,-79.56 59,-52 53.04,-49.47 47.14,-45.71 41.97,-41.86"/>
<polygon fill="#63b8ff" stroke="#63b8ff" points="44.07,-39.06 34.08,-35.52 39.68,-44.51 44.07,-39.06"/>
</a>
</g>
</g>
<!-- Node3 -->
<g id="Node000003" class="node">
<title>Node3</title>
<g id="a_Node000003"><a xlink:title=" ">
<polygon fill="#e0e0e0" stroke="#999999" points="121.5,-35.5 68.5,-35.5 68.5,-16.5 121.5,-16.5 121.5,-35.5"/>
<text text-anchor="middle" x="95" y="-23.5" font-family="Helvetica,sans-Serif" font-size="10.00">cstddef</text>
</a>
</g>
</g>
<!-- Node1&#45;&gt;Node3 -->
<g id="edge2_Node000001_Node000003" class="edge">
<title>Node1&#45;&gt;Node3</title>
<g id="a_edge2_Node000001_Node000003"><a xlink:title=" ">
<path fill="none" stroke="#63b8ff" d="M259.21,-88.09C221.1,-81.44 171.86,-70.17 131,-52 124.94,-49.31 118.84,-45.55 113.42,-41.77"/>
<polygon fill="#63b8ff" stroke="#63b8ff" points="115.19,-38.72 105.08,-35.56 111.01,-44.34 115.19,-38.72"/>
</a>
</g>
</g>
<!-- Node4 -->
<g id="Node000004" class="node">
<title>Node4</title>
<g id="a_Node000004"><a xlink:title=" ">
<polygon fill="#e0e0e0" stroke="#999999" points="190,-35.5 140,-35.5 140,-16.5 190,-16.5 190,-35.5"/>
<text text-anchor="middle" x="165" y="-23.5" font-family="Helvetica,sans-Serif" font-size="10.00">cstdint</text>
</a>
</g>
</g>
<!-- Node1&#45;&gt;Node4 -->
<g id="edge3_Node000001_Node000004" class="edge">
<title>Node1&#45;&gt;Node4</title>
<g id="a_edge3_Node000001_Node000004"><a xlink:title=" ">
<path fill="none" stroke="#63b8ff" d="M290.4,-87.99C265.08,-80.34 228.61,-67.87 199,-52 193.67,-49.15 188.25,-45.53 183.34,-41.95"/>
<polygon fill="#63b8ff" stroke="#63b8ff" points="185.27,-39.02 175.2,-35.7 181,-44.57 185.27,-39.02"/>
</a>
</g>
</g>
<!-- Node5 -->
<g id="Node000005" class="node">
<title>Node5</title>
<g id="a_Node000005"><a xlink:title=" ">
<polygon fill="#e0e0e0" stroke="#999999" points="273.5,-35.5 208.5,-35.5 208.5,-16.5 273.5,-16.5 273.5,-35.5"/>
<text text-anchor="middle" x="241" y="-23.5" font-family="Helvetica,sans-Serif" font-size="10.00">functional</text>
</a>
</g>
</g>
<!-- Node1&#45;&gt;Node5 -->
<g id="edge4_Node000001_Node000005" class="edge">
<title>Node1&#45;&gt;Node5</title>
<g id="a_edge4_Node000001_Node000005"><a xlink:title=" ">
<path fill="none" stroke="#63b8ff" d="M311.19,-87.98C298.12,-76.62 274.75,-56.32 258.59,-42.28"/>
<polygon fill="#63b8ff" stroke="#63b8ff" points="260.73,-39.51 250.89,-35.59 256.14,-44.79 260.73,-39.51"/>
</a>
</g>
</g>
<!-- Node6 -->
<g id="Node000006" class="node">
<title>Node6</title>
<g id="a_Node000006"><a xlink:title=" ">
<polygon fill="#e0e0e0" stroke="#999999" points="350,-35.5 292,-35.5 292,-16.5 350,-16.5 350,-35.5"/>
<text text-anchor="middle" x="321" y="-23.5" font-family="Helvetica,sans-Serif" font-size="10.00">memory</text>
</a>
</g>
</g>
<!-- Node1&#45;&gt;Node6 -->
<g id="edge5_Node000001_Node000006" class="edge">
<title>Node1&#45;&gt;Node6</title>
<g id="a_edge5_Node000001_Node000006"><a xlink:title=" ">
<path fill="none" stroke="#63b8ff" d="M321,-87.98C321,-77.56 321,-59.61 321,-45.88"/>
<polygon fill="#63b8ff" stroke="#63b8ff" points="324.5,-45.59 321,-35.59 317.5,-45.59 324.5,-45.59"/>
</a>
</g>
</g>
<!-- Node7 -->
<g id="Node000007" class="node">
<title>Node7</title>
<g id="a_Node000007"><a xlink:title=" ">
<polygon fill="#e0e0e0" stroke="#999999" points="446,-35.5 368,-35.5 368,-16.5 446,-16.5 446,-35.5"/>
<text text-anchor="middle" x="407" y="-23.5" font-family="Helvetica,sans-Serif" font-size="10.00">RtosMutex.h</text>
</a>
</g>
</g>
<!-- Node1&#45;&gt;Node7 -->
<g id="edge6_Node000001_Node000007" class="edge">
<title>Node1&#45;&gt;Node7</title>
<g id="a_edge6_Node000001_Node000007"><a xlink:title=" ">
<path fill="none" stroke="#63b8ff" d="M331.55,-87.98C345.73,-76.51 371.18,-55.95 388.57,-41.9"/>
<polygon fill="#63b8ff" stroke="#63b8ff" points="390.79,-44.6 396.37,-35.59 386.39,-39.16 390.79,-44.6"/>
</a>
</g>
</g>
<!-- Node8 -->
<g id="Node000008" class="node">
<title>Node8</title>
<g id="a_Node000008"><a xlink:title=" ">
<polygon fill="#e0e0e0" stroke="#999999" points="561.5,-35.5 464.5,-35.5 464.5,-16.5 561.5,-16.5 561.5,-35.5"/>
<text text-anchor="middle" x="513" y="-23.5" font-family="Helvetica,sans-Serif" font-size="10.00">base/BaseUart.h</text>
</a>
</g>
</g>
<!-- Node1&#45;&gt;Node8 -->
<g id="edge7_Node000001_Node000008" class="edge">
<title>Node1&#45;&gt;Node8</title>
<g id="a_edge7_Node000001_Node000008"><a xlink:title=" ">
<path fill="none" stroke="#63b8ff" d="M348.96,-87.99C376.24,-79.5 418.8,-65.78 455,-52 464.89,-48.24 475.56,-43.76 485.02,-39.64"/>
<polygon fill="#63b8ff" stroke="#63b8ff" points="486.62,-42.76 494.36,-35.52 483.8,-36.35 486.62,-42.76"/>
</a>
</g>
</g>
<!-- Node9 -->
<g id="Node000009" class="node">
<title>Node9</title>
<g id="a_Node000009"><a xlink:title=" ">
<polygon fill="#e0e0e0" stroke="#999999" points="734,-46.5 580,-46.5 580,-5.5 734,-5.5 734,-46.5"/>
<text text-anchor="start" x="588" y="-34.5" font-family="Helvetica,sans-Serif" font-size="10.00">core/hf&#45;core&#45;drivers</text>
<text text-anchor="start" x="588" y="-23.5" font-family="Helvetica,sans-Serif" font-size="10.00">/external/hf&#45;alicat&#45;basis2</text>
<text text-anchor="middle" x="657" y="-12.5" font-family="Helvetica,sans-Serif" font-size="10.00">&#45;driver/inc/alicat_basis2.hpp</text>
</a>
</g>
</g>
<!-- Node1&#45;&gt;Node9 -->
<g id="edge8_Node000001_Node000009" class="edge">
<title>Node1&#45;&gt;Node9</title>
<g id="a_edge8_Node000001_Node000009"><a xlink:title=" ">
<path fill="none" stroke="#63b8ff" d="M378.95,-87.98C429.85,-80.08 505.75,-67.25 571,-52 574.81,-51.11 578.7,-50.15 582.62,-49.15"/>
<polygon fill="#63b8ff" stroke="#63b8ff" points="583.61,-52.51 592.39,-46.58 581.83,-45.74 583.61,-52.51"/>
</a>
</g>
</g>
<!-- Node10 -->
<g id="Node000010" class="node">
<title>Node10</title>
<g id="a_Node000010"><a xlink:title=" ">
<polygon fill="#e0e0e0" stroke="#999999" points="890,-52 752,-52 752,0 890,0 890,-52"/>
<text text-anchor="start" x="760" y="-40" font-family="Helvetica,sans-Serif" font-size="10.00">core/hf&#45;core&#45;drivers</text>
<text text-anchor="start" x="760" y="-29" font-family="Helvetica,sans-Serif" font-size="10.00">/external/hf&#45;alicat&#45;basis2</text>
<text text-anchor="start" x="760" y="-18" font-family="Helvetica,sans-Serif" font-size="10.00">&#45;driver/inc/alicat_basis2</text>
<text text-anchor="middle" x="821" y="-7" font-family="Helvetica,sans-Serif" font-size="10.00">_uart_interface.hpp</text>
</a>
</g>
</g>
<!-- Node1&#45;&gt;Node10 -->
<g id="edge9_Node000001_Node000010" class="edge">
<title>Node1&#45;&gt;Node10</title>
<g id="a_edge9_Node000001_Node000010"><a xlink:title=" ">
<path fill="none" stroke="#63b8ff" d="M382.76,-93.95C463.52,-89.75 609.33,-79.15 741.95,-52.03"/>
<polygon fill="#63b8ff" stroke="#63b8ff" points="742.8,-55.43 751.88,-49.97 741.37,-48.58 742.8,-55.43"/>
</a>
</g>
</g>
</g>
</svg>
