<?xml version="1.0" encoding="UTF-8" standalone="no"?>
<!DOCTYPE svg PUBLIC "-//W3C//DTD SVG 1.1//EN"
 "http://www.w3.org/Graphics/SVG/1.1/DTD/svg11.dtd">
<!-- Generated by graphviz version 2.43.0 (0)
 -->
<!-- Title: As5047uHandler.cpp Pages: 1 -->
<svg width="871pt" height="159pt"
 viewBox="0.00 0.00 871.00 159.00" xmlns="http://www.w3.org/2000/svg" xmlns:xlink="http://www.w3.org/1999/xlink">
<g id="graph0" class="graph" transform="scale(1 1) rotate(0) translate(4 155)">
<title>As5047uHandler.cpp</title>
<!-- Node1 -->
<g id="Node000001" class="node">
<title>Node1</title>
<g id="a_Node000001"><a xlink:title="Implementation of unified AS5047U magnetic rotary position sensor handler.">
<polygon fill="#999999" stroke="#666666" points="445,-151 329,-151 329,-132 445,-132 445,-151"/>
<text text-anchor="middle" x="387" y="-139" font-family="Helvetica,sans-Serif" font-size="10.00">As5047uHandler.cpp</text>
</a>
</g>
</g>
<!-- Node2 -->
<g id="Node000002" class="node">
<title>Node2</title>
<g id="a_Node000002"><a xlink:href="As5047uHandler_8h.html" target="_top" xlink:title="Unified handler for AS5047U magnetic rotary position sensor with SPI integration.">
<polygon fill="white" stroke="#666666" points="439.5,-96 334.5,-96 334.5,-77 439.5,-77 439.5,-96"/>
<text text-anchor="middle" x="387" y="-84" font-family="Helvetica,sans-Serif" font-size="10.00">As5047uHandler.h</text>
</a>
</g>
</g>
<!-- Node1&#45;&gt;Node2 -->
<g id="edge1_Node000001_Node000002" class="edge">
<title>Node1&#45;&gt;Node2</title>
<g id="a_edge1_Node000001_Node000002"><a xlink:title=" ">
<path fill="none" stroke="#63b8ff" d="M387,-131.75C387,-124.8 387,-114.85 387,-106.13"/>
<polygon fill="#63b8ff" stroke="#63b8ff" points="390.5,-106.09 387,-96.09 383.5,-106.09 390.5,-106.09"/>
</a>
</g>
</g>
<!-- Node10 -->
<g id="Node000010" class="node">
<title>Node10</title>
<g id="a_Node000010"><a xlink:title=" ">
<polygon fill="#e0e0e0" stroke="#999999" points="50,-30 0,-30 0,-11 50,-11 50,-30"/>
<text text-anchor="middle" x="25" y="-18" font-family="Helvetica,sans-Serif" font-size="10.00">cstring</text>
</a>
</g>
</g>
<!-- Node1&#45;&gt;Node10 -->
<g id="edge9_Node000001_Node000010" class="edge">
<title>Node1&#45;&gt;Node10</title>
<g id="a_edge9_Node000001_Node000010"><a xlink:title=" ">
<path fill="none" stroke="#63b8ff" d="M328.93,-136.81C253.68,-131.19 127.34,-118.67 87,-96 63.46,-82.77 45.06,-56.84 34.62,-39.34"/>
<polygon fill="#63b8ff" stroke="#63b8ff" points="37.39,-37.14 29.41,-30.17 31.3,-40.6 37.39,-37.14"/>
</a>
</g>
</g>
<!-- Node11 -->
<g id="Node000011" class="node">
<title>Node11</title>
<g id="a_Node000011"><a xlink:title=" ">
<polygon fill="#e0e0e0" stroke="#999999" points="522,-96 458,-96 458,-77 522,-77 522,-96"/>
<text text-anchor="middle" x="490" y="-84" font-family="Helvetica,sans-Serif" font-size="10.00">algorithm</text>
</a>
</g>
</g>
<!-- Node1&#45;&gt;Node11 -->
<g id="edge10_Node000001_Node000011" class="edge">
<title>Node1&#45;&gt;Node11</title>
<g id="a_edge10_Node000001_Node000011"><a xlink:title=" ">
<path fill="none" stroke="#63b8ff" d="M403.55,-131.98C419.89,-123.57 445.13,-110.59 464.13,-100.81"/>
<polygon fill="#63b8ff" stroke="#63b8ff" points="465.86,-103.86 473.15,-96.17 462.66,-97.63 465.86,-103.86"/>
</a>
</g>
</g>
<!-- Node12 -->
<g id="Node000012" class="node">
<title>Node12</title>
<g id="a_Node000012"><a xlink:title=" ">
<polygon fill="#e0e0e0" stroke="#999999" points="587.5,-96 540.5,-96 540.5,-77 587.5,-77 587.5,-96"/>
<text text-anchor="middle" x="564" y="-84" font-family="Helvetica,sans-Serif" font-size="10.00">cmath</text>
</a>
</g>
</g>
<!-- Node1&#45;&gt;Node12 -->
<g id="edge11_Node000001_Node000012" class="edge">
<title>Node1&#45;&gt;Node12</title>
<g id="a_edge11_Node000001_Node000012"><a xlink:title=" ">
<path fill="none" stroke="#63b8ff" d="M415.44,-131.98C446.88,-122.57 497.46,-107.42 530.72,-97.46"/>
<polygon fill="#63b8ff" stroke="#63b8ff" points="531.87,-100.77 540.45,-94.55 529.86,-94.07 531.87,-100.77"/>
</a>
</g>
</g>
<!-- Node13 -->
<g id="Node000013" class="node">
<title>Node13</title>
<g id="a_Node000013"><a xlink:href="Logger_8h.html" target="_top" xlink:title="Advanced logging system with formatting capabilities.">
<polygon fill="white" stroke="#666666" points="233.5,-96 96.5,-96 96.5,-77 233.5,-77 233.5,-96"/>
<text text-anchor="middle" x="165" y="-84" font-family="Helvetica,sans-Serif" font-size="10.00">handlers/logger/Logger.h</text>
</a>
</g>
</g>
<!-- Node1&#45;&gt;Node13 -->
<g id="edge12_Node000001_Node000013" class="edge">
<title>Node1&#45;&gt;Node13</title>
<g id="a_edge12_Node000001_Node000013"><a xlink:title=" ">
<path fill="none" stroke="#63b8ff" d="M351.33,-131.98C313.17,-122.87 252.53,-108.4 210.85,-98.45"/>
<polygon fill="#63b8ff" stroke="#63b8ff" points="211.49,-95 200.95,-96.08 209.86,-101.81 211.49,-95"/>
</a>
</g>
</g>
<!-- Node3 -->
<g id="Node000003" class="node">
<title>Node3</title>
<g id="a_Node000003"><a xlink:title=" ">
<polygon fill="#e0e0e0" stroke="#999999" points="334,-30 284,-30 284,-11 334,-11 334,-30"/>
<text text-anchor="middle" x="309" y="-18" font-family="Helvetica,sans-Serif" font-size="10.00">cstdint</text>
</a>
</g>
</g>
<!-- Node2&#45;&gt;Node3 -->
<g id="edge2_Node000002_Node000003" class="edge">
<title>Node2&#45;&gt;Node3</title>
<g id="a_edge2_Node000002_Node000003"><a xlink:title=" ">
<path fill="none" stroke="#63b8ff" d="M376.48,-76.87C363.92,-66.56 342.69,-49.15 327.4,-36.59"/>
<polygon fill="#63b8ff" stroke="#63b8ff" points="329.55,-33.84 319.6,-30.2 325.11,-39.25 329.55,-33.84"/>
</a>
</g>
</g>
<!-- Node4 -->
<g id="Node000004" class="node">
<title>Node4</title>
<g id="a_Node000004"><a xlink:title=" ">
<polygon fill="#e0e0e0" stroke="#999999" points="266,-30 208,-30 208,-11 266,-11 266,-30"/>
<text text-anchor="middle" x="237" y="-18" font-family="Helvetica,sans-Serif" font-size="10.00">memory</text>
</a>
</g>
</g>
<!-- Node2&#45;&gt;Node4 -->
<g id="edge3_Node000002_Node000004" class="edge">
<title>Node2&#45;&gt;Node4</title>
<g id="a_edge3_Node000002_Node000004"><a xlink:title=" ">
<path fill="none" stroke="#63b8ff" d="M363.56,-76.94C340.71,-68.41 305.1,-54.67 275,-41 270.71,-39.05 266.2,-36.87 261.85,-34.68"/>
<polygon fill="#63b8ff" stroke="#63b8ff" points="263.23,-31.46 252.73,-30 260.03,-37.68 263.23,-31.46"/>
</a>
</g>
</g>
<!-- Node5 -->
<g id="Node000005" class="node">
<title>Node5</title>
<g id="a_Node000005"><a xlink:title=" ">
<polygon fill="#e0e0e0" stroke="#999999" points="421.5,-30 352.5,-30 352.5,-11 421.5,-11 421.5,-30"/>
<text text-anchor="middle" x="387" y="-18" font-family="Helvetica,sans-Serif" font-size="10.00">type_traits</text>
</a>
</g>
</g>
<!-- Node2&#45;&gt;Node5 -->
<g id="edge4_Node000002_Node000005" class="edge">
<title>Node2&#45;&gt;Node5</title>
<g id="a_edge4_Node000002_Node000005"><a xlink:title=" ">
<path fill="none" stroke="#63b8ff" d="M387,-76.87C387,-67.66 387,-52.79 387,-40.77"/>
<polygon fill="#63b8ff" stroke="#63b8ff" points="390.5,-40.41 387,-30.41 383.5,-40.41 390.5,-40.41"/>
</a>
</g>
</g>
<!-- Node6 -->
<g id="Node000006" class="node">
<title>Node6</title>
<g id="a_Node000006"><a xlink:title=" ">
<polygon fill="#e0e0e0" stroke="#999999" points="484.5,-30 439.5,-30 439.5,-11 484.5,-11 484.5,-30"/>
<text text-anchor="middle" x="462" y="-18" font-family="Helvetica,sans-Serif" font-size="10.00">utility</text>
</a>
</g>
</g>
<!-- Node2&#45;&gt;Node6 -->
<g id="edge5_Node000002_Node000006" class="edge">
<title>Node2&#45;&gt;Node6</title>
<g id="a_edge5_Node000002_Node000006"><a xlink:title=" ">
<path fill="none" stroke="#63b8ff" d="M397.11,-76.87C409.01,-66.71 429,-49.66 443.65,-37.15"/>
<polygon fill="#63b8ff" stroke="#63b8ff" points="446.23,-39.56 451.56,-30.41 441.69,-34.23 446.23,-39.56"/>
</a>
</g>
</g>
<!-- Node7 -->
<g id="Node000007" class="node">
<title>Node7</title>
<g id="a_Node000007"><a xlink:title=" ">
<polygon fill="#e0e0e0" stroke="#999999" points="633.5,-41 502.5,-41 502.5,0 633.5,0 633.5,-41"/>
<text text-anchor="start" x="510.5" y="-29" font-family="Helvetica,sans-Serif" font-size="10.00">core/hf&#45;core&#45;drivers</text>
<text text-anchor="start" x="510.5" y="-18" font-family="Helvetica,sans-Serif" font-size="10.00">/external/hf&#45;as5047u</text>
<text text-anchor="middle" x="568" y="-7" font-family="Helvetica,sans-Serif" font-size="10.00">&#45;driver/inc/as5047u.hpp</text>
</a>
</g>
</g>
<!-- Node2&#45;&gt;Node7 -->
<g id="edge6_Node000002_Node000007" class="edge">
<title>Node2&#45;&gt;Node7</title>
<g id="a_edge6_Node000002_Node000007"><a xlink:title=" ">
<path fill="none" stroke="#63b8ff" d="M411.41,-76.87C434.85,-68.58 471.28,-55.7 503.11,-44.44"/>
<polygon fill="#63b8ff" stroke="#63b8ff" points="504.56,-47.64 512.83,-41.01 502.23,-41.04 504.56,-47.64"/>
</a>
</g>
</g>
<!-- Node8 -->
<g id="Node000008" class="node">
<title>Node8</title>
<g id="a_Node000008"><a xlink:title=" ">
<polygon fill="#e0e0e0" stroke="#999999" points="742.5,-30 651.5,-30 651.5,-11 742.5,-11 742.5,-30"/>
<text text-anchor="middle" x="697" y="-18" font-family="Helvetica,sans-Serif" font-size="10.00">base/BaseSpi.h</text>
</a>
</g>
</g>
<!-- Node2&#45;&gt;Node8 -->
<g id="edge7_Node000002_Node000008" class="edge">
<title>Node2&#45;&gt;Node8</title>
<g id="a_edge7_Node000002_Node000008"><a xlink:title=" ">
<path fill="none" stroke="#63b8ff" d="M439.76,-77.44C503.13,-67.57 605.56,-50.93 643,-41 650.7,-38.96 658.86,-36.29 666.44,-33.58"/>
<polygon fill="#63b8ff" stroke="#63b8ff" points="667.82,-36.81 675.98,-30.06 665.39,-30.24 667.82,-36.81"/>
</a>
</g>
</g>
<!-- Node9 -->
<g id="Node000009" class="node">
<title>Node9</title>
<g id="a_Node000009"><a xlink:title=" ">
<polygon fill="#e0e0e0" stroke="#999999" points="863,-30 761,-30 761,-11 863,-11 863,-30"/>
<text text-anchor="middle" x="812" y="-18" font-family="Helvetica,sans-Serif" font-size="10.00">utils/RtosMutex.h</text>
</a>
</g>
</g>
<!-- Node2&#45;&gt;Node9 -->
<g id="edge8_Node000002_Node000009" class="edge">
<title>Node2&#45;&gt;Node9</title>
<g id="a_edge8_Node000002_Node000009"><a xlink:title=" ">
<path fill="none" stroke="#63b8ff" d="M439.76,-78.2C442.88,-77.79 445.98,-77.39 449,-77 583.52,-59.79 619.54,-70.1 752,-41 761.09,-39 770.76,-36.18 779.63,-33.3"/>
<polygon fill="#63b8ff" stroke="#63b8ff" points="780.85,-36.58 789.21,-30.07 778.62,-29.95 780.85,-36.58"/>
</a>
</g>
</g>
<!-- Node13&#45;&gt;Node4 -->
<g id="edge15_Node000013_Node000004" class="edge">
<title>Node13&#45;&gt;Node4</title>
<g id="a_edge15_Node000013_Node000004"><a xlink:title=" ">
<path fill="none" stroke="#63b8ff" d="M174.71,-76.87C186.13,-66.71 205.32,-49.66 219.39,-37.15"/>
<polygon fill="#63b8ff" stroke="#63b8ff" points="221.83,-39.66 226.98,-30.41 217.18,-34.43 221.83,-39.66"/>
</a>
</g>
</g>
<!-- Node13&#45;&gt;Node10 -->
<g id="edge14_Node000013_Node000010" class="edge">
<title>Node13&#45;&gt;Node10</title>
<g id="a_edge14_Node000013_Node000010"><a xlink:title=" ">
<path fill="none" stroke="#63b8ff" d="M142.31,-76.91C120.59,-68.48 87.09,-54.89 59,-41 55.33,-39.19 51.51,-37.15 47.81,-35.09"/>
<polygon fill="#63b8ff" stroke="#63b8ff" points="49.43,-31.99 39.01,-30.06 45.95,-38.06 49.43,-31.99"/>
</a>
</g>
</g>
<!-- Node14 -->
<g id="Node000014" class="node">
<title>Node14</title>
<g id="a_Node000014"><a xlink:title=" ">
<polygon fill="#e0e0e0" stroke="#999999" points="121.5,-30 68.5,-30 68.5,-11 121.5,-11 121.5,-30"/>
<text text-anchor="middle" x="95" y="-18" font-family="Helvetica,sans-Serif" font-size="10.00">cstdarg</text>
</a>
</g>
</g>
<!-- Node13&#45;&gt;Node14 -->
<g id="edge13_Node000013_Node000014" class="edge">
<title>Node13&#45;&gt;Node14</title>
<g id="a_edge13_Node000013_Node000014"><a xlink:title=" ">
<path fill="none" stroke="#63b8ff" d="M155.56,-76.87C144.45,-66.71 125.8,-49.66 112.12,-37.15"/>
<polygon fill="#63b8ff" stroke="#63b8ff" points="114.48,-34.57 104.74,-30.41 109.76,-39.74 114.48,-34.57"/>
</a>
</g>
</g>
<!-- Node15 -->
<g id="Node000015" class="node">
<title>Node15</title>
<g id="a_Node000015"><a xlink:title=" ">
<polygon fill="#e0e0e0" stroke="#999999" points="190,-30 140,-30 140,-11 190,-11 190,-30"/>
<text text-anchor="middle" x="165" y="-18" font-family="Helvetica,sans-Serif" font-size="10.00">atomic</text>
</a>
</g>
</g>
<!-- Node13&#45;&gt;Node15 -->
<g id="edge16_Node000013_Node000015" class="edge">
<title>Node13&#45;&gt;Node15</title>
<g id="a_edge16_Node000013_Node000015"><a xlink:title=" ">
<path fill="none" stroke="#63b8ff" d="M165,-76.87C165,-67.66 165,-52.79 165,-40.77"/>
<polygon fill="#63b8ff" stroke="#63b8ff" points="168.5,-40.41 165,-30.41 161.5,-40.41 168.5,-40.41"/>
</a>
</g>
</g>
</g>
</svg>
