<?xml version="1.0" encoding="UTF-8" standalone="no"?>
<!DOCTYPE svg PUBLIC "-//W3C//DTD SVG 1.1//EN"
 "http://www.w3.org/Graphics/SVG/1.1/DTD/svg11.dtd">
<!-- Generated by graphviz version 2.43.0 (0)
 -->
<!-- Title: Bno08xHandler.h Pages: 1 -->
<svg width="1092pt" height="104pt"
 viewBox="0.00 0.00 1092.00 104.00" xmlns="http://www.w3.org/2000/svg" xmlns:xlink="http://www.w3.org/1999/xlink">
<g id="graph0" class="graph" transform="scale(1 1) rotate(0) translate(4 100)">
<title>Bno08xHandler.h</title>
<!-- Node1 -->
<g id="Node000001" class="node">
<title>Node1</title>
<g id="a_Node000001"><a xlink:title="Unified handler for BNO08x IMU sensor family with multi&#45;interface support.">
<polygon fill="#999999" stroke="#666666" points="500,-96 400,-96 400,-77 500,-77 500,-96"/>
<text text-anchor="middle" x="450" y="-84" font-family="Helvetica,sans-Serif" font-size="10.00">Bno08xHandler.h</text>
</a>
</g>
</g>
<!-- Node2 -->
<g id="Node000002" class="node">
<title>Node2</title>
<g id="a_Node000002"><a xlink:title=" ">
<polygon fill="#e0e0e0" stroke="#999999" points="50,-30 0,-30 0,-11 50,-11 50,-30"/>
<text text-anchor="middle" x="25" y="-18" font-family="Helvetica,sans-Serif" font-size="10.00">cstdint</text>
</a>
</g>
</g>
<!-- Node1&#45;&gt;Node2 -->
<g id="edge1_Node000001_Node000002" class="edge">
<title>Node1&#45;&gt;Node2</title>
<g id="a_edge1_Node000001_Node000002"><a xlink:title=" ">
<path fill="none" stroke="#63b8ff" d="M399.87,-86.21C324.12,-85.87 176.82,-79.66 59,-41 54.51,-39.53 49.96,-37.42 45.71,-35.13"/>
<polygon fill="#63b8ff" stroke="#63b8ff" points="47.41,-32.07 37.02,-30.01 43.86,-38.1 47.41,-32.07"/>
</a>
</g>
</g>
<!-- Node3 -->
<g id="Node000003" class="node">
<title>Node3</title>
<g id="a_Node000003"><a xlink:title=" ">
<polygon fill="#e0e0e0" stroke="#999999" points="126,-30 68,-30 68,-11 126,-11 126,-30"/>
<text text-anchor="middle" x="97" y="-18" font-family="Helvetica,sans-Serif" font-size="10.00">memory</text>
</a>
</g>
</g>
<!-- Node1&#45;&gt;Node3 -->
<g id="edge2_Node000001_Node000003" class="edge">
<title>Node1&#45;&gt;Node3</title>
<g id="a_edge2_Node000001_Node000003"><a xlink:title=" ">
<path fill="none" stroke="#63b8ff" d="M399.76,-83.55C336.62,-79.94 225.55,-69.73 135,-41 129.92,-39.39 124.69,-37.14 119.81,-34.75"/>
<polygon fill="#63b8ff" stroke="#63b8ff" points="121.43,-31.65 110.95,-30.08 118.17,-37.84 121.43,-31.65"/>
</a>
</g>
</g>
<!-- Node4 -->
<g id="Node000004" class="node">
<title>Node4</title>
<g id="a_Node000004"><a xlink:title=" ">
<polygon fill="#e0e0e0" stroke="#999999" points="186,-30 144,-30 144,-11 186,-11 186,-30"/>
<text text-anchor="middle" x="165" y="-18" font-family="Helvetica,sans-Serif" font-size="10.00">array</text>
</a>
</g>
</g>
<!-- Node1&#45;&gt;Node4 -->
<g id="edge3_Node000001_Node000004" class="edge">
<title>Node1&#45;&gt;Node4</title>
<g id="a_edge3_Node000001_Node000004"><a xlink:title=" ">
<path fill="none" stroke="#63b8ff" d="M400,-82.72C347.39,-78.45 262.96,-67.72 195,-41 191.38,-39.58 187.73,-37.68 184.28,-35.63"/>
<polygon fill="#63b8ff" stroke="#63b8ff" points="186.09,-32.62 175.81,-30.05 182.24,-38.47 186.09,-32.62"/>
</a>
</g>
</g>
<!-- Node5 -->
<g id="Node000005" class="node">
<title>Node5</title>
<g id="a_Node000005"><a xlink:title=" ">
<polygon fill="#e0e0e0" stroke="#999999" points="269.5,-30 204.5,-30 204.5,-11 269.5,-11 269.5,-30"/>
<text text-anchor="middle" x="237" y="-18" font-family="Helvetica,sans-Serif" font-size="10.00">functional</text>
</a>
</g>
</g>
<!-- Node1&#45;&gt;Node5 -->
<g id="edge4_Node000001_Node000005" class="edge">
<title>Node1&#45;&gt;Node5</title>
<g id="a_edge4_Node000001_Node000005"><a xlink:title=" ">
<path fill="none" stroke="#63b8ff" d="M408.6,-76.93C373.57,-69.15 322.31,-56.55 279,-41 273.84,-39.15 268.44,-36.9 263.3,-34.59"/>
<polygon fill="#63b8ff" stroke="#63b8ff" points="264.41,-31.25 253.87,-30.18 261.45,-37.59 264.41,-31.25"/>
</a>
</g>
</g>
<!-- Node6 -->
<g id="Node000006" class="node">
<title>Node6</title>
<g id="a_Node000006"><a xlink:title=" ">
<polygon fill="#e0e0e0" stroke="#999999" points="432,-41 288,-41 288,0 432,0 432,-41"/>
<text text-anchor="start" x="296" y="-29" font-family="Helvetica,sans-Serif" font-size="10.00">core/hf&#45;core&#45;drivers</text>
<text text-anchor="start" x="296" y="-18" font-family="Helvetica,sans-Serif" font-size="10.00">/external/hf&#45;bno08x&#45;driver</text>
<text text-anchor="middle" x="360" y="-7" font-family="Helvetica,sans-Serif" font-size="10.00">/inc/bno08x.hpp</text>
</a>
</g>
</g>
<!-- Node1&#45;&gt;Node6 -->
<g id="edge5_Node000001_Node000006" class="edge">
<title>Node1&#45;&gt;Node6</title>
<g id="a_edge5_Node000001_Node000006"><a xlink:title=" ">
<path fill="none" stroke="#63b8ff" d="M437.86,-76.87C427.11,-69.22 410.86,-57.67 395.98,-47.09"/>
<polygon fill="#63b8ff" stroke="#63b8ff" points="397.61,-43.95 387.43,-41.01 393.56,-49.66 397.61,-43.95"/>
</a>
</g>
</g>
<!-- Node7 -->
<g id="Node000007" class="node">
<title>Node7</title>
<g id="a_Node000007"><a xlink:title=" ">
<polygon fill="#e0e0e0" stroke="#999999" points="629.5,-41 450.5,-41 450.5,0 629.5,0 629.5,-41"/>
<text text-anchor="start" x="458.5" y="-29" font-family="Helvetica,sans-Serif" font-size="10.00">core/hf&#45;core&#45;drivers</text>
<text text-anchor="start" x="458.5" y="-18" font-family="Helvetica,sans-Serif" font-size="10.00">/external/hf&#45;bno08x&#45;driver</text>
<text text-anchor="middle" x="540" y="-7" font-family="Helvetica,sans-Serif" font-size="10.00">/inc/bno08x_comm_interface.hpp</text>
</a>
</g>
</g>
<!-- Node1&#45;&gt;Node7 -->
<g id="edge6_Node000001_Node000007" class="edge">
<title>Node1&#45;&gt;Node7</title>
<g id="a_edge6_Node000001_Node000007"><a xlink:title=" ">
<path fill="none" stroke="#63b8ff" d="M462.14,-76.87C472.89,-69.22 489.14,-57.67 504.02,-47.09"/>
<polygon fill="#63b8ff" stroke="#63b8ff" points="506.44,-49.66 512.57,-41.01 502.39,-43.95 506.44,-49.66"/>
</a>
</g>
</g>
<!-- Node8 -->
<g id="Node000008" class="node">
<title>Node8</title>
<g id="a_Node000008"><a xlink:title=" ">
<polygon fill="#e0e0e0" stroke="#999999" points="738,-30 648,-30 648,-11 738,-11 738,-30"/>
<text text-anchor="middle" x="693" y="-18" font-family="Helvetica,sans-Serif" font-size="10.00">base/BaseI2c.h</text>
</a>
</g>
</g>
<!-- Node1&#45;&gt;Node8 -->
<g id="edge7_Node000001_Node000008" class="edge">
<title>Node1&#45;&gt;Node8</title>
<g id="a_edge7_Node000001_Node000008"><a xlink:title=" ">
<path fill="none" stroke="#63b8ff" d="M492.4,-76.98C530.95,-68.89 589.24,-55.79 639,-41 646.36,-38.81 654.17,-36.18 661.51,-33.56"/>
<polygon fill="#63b8ff" stroke="#63b8ff" points="662.93,-36.77 671.12,-30.05 660.53,-30.19 662.93,-36.77"/>
</a>
</g>
</g>
<!-- Node9 -->
<g id="Node000009" class="node">
<title>Node9</title>
<g id="a_Node000009"><a xlink:title=" ">
<polygon fill="#e0e0e0" stroke="#999999" points="847.5,-30 756.5,-30 756.5,-11 847.5,-11 847.5,-30"/>
<text text-anchor="middle" x="802" y="-18" font-family="Helvetica,sans-Serif" font-size="10.00">base/BaseSpi.h</text>
</a>
</g>
</g>
<!-- Node1&#45;&gt;Node9 -->
<g id="edge8_Node000001_Node000009" class="edge">
<title>Node1&#45;&gt;Node9</title>
<g id="a_edge8_Node000001_Node000009"><a xlink:title=" ">
<path fill="none" stroke="#63b8ff" d="M500.23,-80.94C559.76,-74.87 661.64,-62.32 747,-41 755.02,-39 763.51,-36.29 771.36,-33.53"/>
<polygon fill="#63b8ff" stroke="#63b8ff" points="772.68,-36.78 780.87,-30.06 770.28,-30.2 772.68,-36.78"/>
</a>
</g>
</g>
<!-- Node10 -->
<g id="Node000010" class="node">
<title>Node10</title>
<g id="a_Node000010"><a xlink:title=" ">
<polygon fill="#e0e0e0" stroke="#999999" points="964,-30 866,-30 866,-11 964,-11 964,-30"/>
<text text-anchor="middle" x="915" y="-18" font-family="Helvetica,sans-Serif" font-size="10.00">base/BaseGpio.h</text>
</a>
</g>
</g>
<!-- Node1&#45;&gt;Node10 -->
<g id="edge9_Node000001_Node000010" class="edge">
<title>Node1&#45;&gt;Node10</title>
<g id="a_edge9_Node000001_Node000010"><a xlink:title=" ">
<path fill="none" stroke="#63b8ff" d="M500.05,-83.5C577.41,-79.63 730.31,-68.88 857,-41 865.8,-39.06 875.13,-36.27 883.68,-33.4"/>
<polygon fill="#63b8ff" stroke="#63b8ff" points="885,-36.65 893.28,-30.04 882.69,-30.04 885,-36.65"/>
</a>
</g>
</g>
<!-- Node11 -->
<g id="Node000011" class="node">
<title>Node11</title>
<g id="a_Node000011"><a xlink:title=" ">
<polygon fill="#e0e0e0" stroke="#999999" points="1084,-30 982,-30 982,-11 1084,-11 1084,-30"/>
<text text-anchor="middle" x="1033" y="-18" font-family="Helvetica,sans-Serif" font-size="10.00">utils/RtosMutex.h</text>
</a>
</g>
</g>
<!-- Node1&#45;&gt;Node11 -->
<g id="edge10_Node000001_Node000011" class="edge">
<title>Node1&#45;&gt;Node11</title>
<g id="a_edge10_Node000001_Node000011"><a xlink:title=" ">
<path fill="none" stroke="#63b8ff" d="M500.3,-85.04C594.15,-83.33 801.96,-75.59 973,-41 982.28,-39.12 992.14,-36.29 1001.12,-33.36"/>
<polygon fill="#63b8ff" stroke="#63b8ff" points="1002.48,-36.59 1010.82,-30.06 1000.22,-29.97 1002.48,-36.59"/>
</a>
</g>
</g>
</g>
</svg>
