<?xml version="1.0" encoding="UTF-8" standalone="no"?>
<!DOCTYPE svg PUBLIC "-//W3C//DTD SVG 1.1//EN"
 "http://www.w3.org/Graphics/SVG/1.1/DTD/svg11.dtd">
<!-- Generated by graphviz version 2.43.0 (0)
 -->
<!-- Title: Bno08xHandler.cpp Pages: 1 -->
<svg width="1480pt" height="181pt"
 viewBox="0.00 0.00 1480.00 181.00" xmlns="http://www.w3.org/2000/svg" xmlns:xlink="http://www.w3.org/1999/xlink">
<g id="graph0" class="graph" transform="scale(1 1) rotate(0) translate(4 177)">
<title>Bno08xHandler.cpp</title>
<!-- Node1 -->
<g id="Node000001" class="node">
<title>Node1</title>
<g id="a_Node000001"><a xlink:title="Implementation of unified BNO08x IMU sensor handler.">
<polygon fill="#999999" stroke="#666666" points="1099.5,-173 988.5,-173 988.5,-154 1099.5,-154 1099.5,-173"/>
<text text-anchor="middle" x="1044" y="-161" font-family="Helvetica,sans-Serif" font-size="10.00">Bno08xHandler.cpp</text>
</a>
</g>
</g>
<!-- Node2 -->
<g id="Node000002" class="node">
<title>Node2</title>
<g id="a_Node000002"><a xlink:href="Bno08xHandler_8h.html" target="_top" xlink:title="Unified handler for BNO08x IMU sensor family with multi&#45;interface support.">
<polygon fill="white" stroke="#666666" points="667,-107 567,-107 567,-88 667,-88 667,-107"/>
<text text-anchor="middle" x="617" y="-95" font-family="Helvetica,sans-Serif" font-size="10.00">Bno08xHandler.h</text>
</a>
</g>
</g>
<!-- Node1&#45;&gt;Node2 -->
<g id="edge1_Node000001_Node000002" class="edge">
<title>Node1&#45;&gt;Node2</title>
<g id="a_edge1_Node000001_Node000002"><a xlink:title=" ">
<path fill="none" stroke="#63b8ff" d="M988.18,-154.13C907.77,-142.08 759.96,-119.93 677.2,-107.52"/>
<polygon fill="#63b8ff" stroke="#63b8ff" points="677.6,-104.04 667.19,-106.02 676.56,-110.97 677.6,-104.04"/>
</a>
</g>
</g>
<!-- Node13 -->
<g id="Node000013" class="node">
<title>Node13</title>
<g id="a_Node000013"><a xlink:title=" ">
<polygon fill="#e0e0e0" stroke="#999999" points="936.5,-107 889.5,-107 889.5,-88 936.5,-88 936.5,-107"/>
<text text-anchor="middle" x="913" y="-95" font-family="Helvetica,sans-Serif" font-size="10.00">cmath</text>
</a>
</g>
</g>
<!-- Node1&#45;&gt;Node13 -->
<g id="edge12_Node000001_Node000013" class="edge">
<title>Node1&#45;&gt;Node13</title>
<g id="a_edge12_Node000001_Node000013"><a xlink:title=" ">
<path fill="none" stroke="#63b8ff" d="M1023.42,-153.92C1003.38,-145.39 972.19,-131.63 946,-118 942.61,-116.24 939.09,-114.28 935.65,-112.32"/>
<polygon fill="#63b8ff" stroke="#63b8ff" points="937.34,-109.25 926.94,-107.19 933.79,-115.28 937.34,-109.25"/>
</a>
</g>
</g>
<!-- Node14 -->
<g id="Node000014" class="node">
<title>Node14</title>
<g id="a_Node000014"><a xlink:title=" ">
<polygon fill="#e0e0e0" stroke="#999999" points="1001,-107 955,-107 955,-88 1001,-88 1001,-107"/>
<text text-anchor="middle" x="978" y="-95" font-family="Helvetica,sans-Serif" font-size="10.00">cstdio</text>
</a>
</g>
</g>
<!-- Node1&#45;&gt;Node14 -->
<g id="edge13_Node000001_Node000014" class="edge">
<title>Node1&#45;&gt;Node14</title>
<g id="a_edge13_Node000001_Node000014"><a xlink:title=" ">
<path fill="none" stroke="#63b8ff" d="M1035.1,-153.87C1024.73,-143.81 1007.37,-126.98 994.51,-114.51"/>
<polygon fill="#63b8ff" stroke="#63b8ff" points="996.8,-111.85 987.18,-107.41 991.93,-116.88 996.8,-111.85"/>
</a>
</g>
</g>
<!-- Node15 -->
<g id="Node000015" class="node">
<title>Node15</title>
<g id="a_Node000015"><a xlink:title=" ">
<polygon fill="#e0e0e0" stroke="#999999" points="1069,-107 1019,-107 1019,-88 1069,-88 1069,-107"/>
<text text-anchor="middle" x="1044" y="-95" font-family="Helvetica,sans-Serif" font-size="10.00">cstring</text>
</a>
</g>
</g>
<!-- Node1&#45;&gt;Node15 -->
<g id="edge14_Node000001_Node000015" class="edge">
<title>Node1&#45;&gt;Node15</title>
<g id="a_edge14_Node000001_Node000015"><a xlink:title=" ">
<path fill="none" stroke="#63b8ff" d="M1044,-153.87C1044,-144.66 1044,-129.79 1044,-117.77"/>
<polygon fill="#63b8ff" stroke="#63b8ff" points="1047.5,-117.41 1044,-107.41 1040.5,-117.41 1047.5,-117.41"/>
</a>
</g>
</g>
<!-- Node16 -->
<g id="Node000016" class="node">
<title>Node16</title>
<g id="a_Node000016"><a xlink:href="Logger_8h.html" target="_top" xlink:title="Advanced logging system with formatting capabilities.">
<polygon fill="white" stroke="#666666" points="1224.5,-107 1087.5,-107 1087.5,-88 1224.5,-88 1224.5,-107"/>
<text text-anchor="middle" x="1156" y="-95" font-family="Helvetica,sans-Serif" font-size="10.00">handlers/logger/Logger.h</text>
</a>
</g>
</g>
<!-- Node1&#45;&gt;Node16 -->
<g id="edge15_Node000001_Node000016" class="edge">
<title>Node1&#45;&gt;Node16</title>
<g id="a_edge15_Node000001_Node000016"><a xlink:title=" ">
<path fill="none" stroke="#63b8ff" d="M1059.1,-153.87C1077.81,-143.18 1109.9,-124.85 1131.99,-112.22"/>
<polygon fill="#63b8ff" stroke="#63b8ff" points="1133.83,-115.2 1140.78,-107.2 1130.36,-109.12 1133.83,-115.2"/>
</a>
</g>
</g>
<!-- Node21 -->
<g id="Node000021" class="node">
<title>Node21</title>
<g id="a_Node000021"><a xlink:title=" ">
<polygon fill="#e0e0e0" stroke="#999999" points="1309.5,-107 1242.5,-107 1242.5,-88 1309.5,-88 1309.5,-107"/>
<text text-anchor="middle" x="1276" y="-95" font-family="Helvetica,sans-Serif" font-size="10.00">OsUtility.h</text>
</a>
</g>
</g>
<!-- Node1&#45;&gt;Node21 -->
<g id="edge21_Node000001_Node000021" class="edge">
<title>Node1&#45;&gt;Node21</title>
<g id="a_edge21_Node000001_Node000021"><a xlink:title=" ">
<path fill="none" stroke="#63b8ff" d="M1092.8,-153.93C1131.64,-146.43 1187.08,-134.19 1234,-118 1239.41,-116.13 1245.07,-113.79 1250.41,-111.39"/>
<polygon fill="#63b8ff" stroke="#63b8ff" points="1252.01,-114.51 1259.56,-107.08 1249.03,-108.17 1252.01,-114.51"/>
</a>
</g>
</g>
<!-- Node22 -->
<g id="Node000022" class="node">
<title>Node22</title>
<g id="a_Node000022"><a xlink:title=" ">
<polygon fill="#e0e0e0" stroke="#999999" points="1472,-118 1328,-118 1328,-77 1472,-77 1472,-118"/>
<text text-anchor="start" x="1336" y="-106" font-family="Helvetica,sans-Serif" font-size="10.00">core/hf&#45;core&#45;drivers</text>
<text text-anchor="start" x="1336" y="-95" font-family="Helvetica,sans-Serif" font-size="10.00">/external/hf&#45;bno08x&#45;driver</text>
<text text-anchor="middle" x="1400" y="-84" font-family="Helvetica,sans-Serif" font-size="10.00">/src/sh2/sh2_err.h</text>
</a>
</g>
</g>
<!-- Node1&#45;&gt;Node22 -->
<g id="edge22_Node000001_Node000022" class="edge">
<title>Node1&#45;&gt;Node22</title>
<g id="a_edge22_Node000001_Node000022"><a xlink:title=" ">
<path fill="none" stroke="#63b8ff" d="M1099.53,-154.78C1153.06,-147.05 1236.54,-134.25 1317.75,-118.18"/>
<polygon fill="#63b8ff" stroke="#63b8ff" points="1318.52,-121.6 1327.64,-116.21 1317.14,-114.73 1318.52,-121.6"/>
</a>
</g>
</g>
<!-- Node3 -->
<g id="Node000003" class="node">
<title>Node3</title>
<g id="a_Node000003"><a xlink:title=" ">
<polygon fill="#e0e0e0" stroke="#999999" points="50,-30 0,-30 0,-11 50,-11 50,-30"/>
<text text-anchor="middle" x="25" y="-18" font-family="Helvetica,sans-Serif" font-size="10.00">cstdint</text>
</a>
</g>
</g>
<!-- Node2&#45;&gt;Node3 -->
<g id="edge2_Node000002_Node000003" class="edge">
<title>Node2&#45;&gt;Node3</title>
<g id="a_edge2_Node000002_Node000003"><a xlink:title=" ">
<path fill="none" stroke="#63b8ff" d="M566.81,-94.2C448.11,-88.33 152.99,-71.1 59,-41 54.5,-39.56 49.95,-37.47 45.69,-35.18"/>
<polygon fill="#63b8ff" stroke="#63b8ff" points="47.4,-32.13 37.01,-30.05 43.84,-38.15 47.4,-32.13"/>
</a>
</g>
</g>
<!-- Node4 -->
<g id="Node000004" class="node">
<title>Node4</title>
<g id="a_Node000004"><a xlink:title=" ">
<polygon fill="#e0e0e0" stroke="#999999" points="1084,-30 1026,-30 1026,-11 1084,-11 1084,-30"/>
<text text-anchor="middle" x="1055" y="-18" font-family="Helvetica,sans-Serif" font-size="10.00">memory</text>
</a>
</g>
</g>
<!-- Node2&#45;&gt;Node4 -->
<g id="edge3_Node000002_Node000004" class="edge">
<title>Node2&#45;&gt;Node4</title>
<g id="a_edge3_Node000002_Node000004"><a xlink:title=" ">
<path fill="none" stroke="#63b8ff" d="M667.13,-94.92C744.07,-91.31 895.16,-79.49 1017,-41 1022.08,-39.39 1027.31,-37.15 1032.2,-34.76"/>
<polygon fill="#63b8ff" stroke="#63b8ff" points="1033.84,-37.85 1041.05,-30.09 1030.57,-31.66 1033.84,-37.85"/>
</a>
</g>
</g>
<!-- Node5 -->
<g id="Node000005" class="node">
<title>Node5</title>
<g id="a_Node000005"><a xlink:title=" ">
<polygon fill="#e0e0e0" stroke="#999999" points="110,-30 68,-30 68,-11 110,-11 110,-30"/>
<text text-anchor="middle" x="89" y="-18" font-family="Helvetica,sans-Serif" font-size="10.00">array</text>
</a>
</g>
</g>
<!-- Node2&#45;&gt;Node5 -->
<g id="edge4_Node000002_Node000005" class="edge">
<title>Node2&#45;&gt;Node5</title>
<g id="a_edge4_Node000002_Node000005"><a xlink:title=" ">
<path fill="none" stroke="#63b8ff" d="M566.87,-93.86C457.5,-87.61 200.7,-70.24 119,-41 115.27,-39.67 111.54,-37.79 108.04,-35.72"/>
<polygon fill="#63b8ff" stroke="#63b8ff" points="109.73,-32.64 99.46,-30.04 105.87,-38.48 109.73,-32.64"/>
</a>
</g>
</g>
<!-- Node6 -->
<g id="Node000006" class="node">
<title>Node6</title>
<g id="a_Node000006"><a xlink:title=" ">
<polygon fill="#e0e0e0" stroke="#999999" points="193.5,-30 128.5,-30 128.5,-11 193.5,-11 193.5,-30"/>
<text text-anchor="middle" x="161" y="-18" font-family="Helvetica,sans-Serif" font-size="10.00">functional</text>
</a>
</g>
</g>
<!-- Node2&#45;&gt;Node6 -->
<g id="edge5_Node000002_Node000006" class="edge">
<title>Node2&#45;&gt;Node6</title>
<g id="a_edge5_Node000002_Node000006"><a xlink:title=" ">
<path fill="none" stroke="#63b8ff" d="M566.93,-94.64C488.07,-90.63 330.74,-78.28 203,-41 197.31,-39.34 191.41,-37.02 185.9,-34.55"/>
<polygon fill="#63b8ff" stroke="#63b8ff" points="187.05,-31.22 176.52,-30.07 184.03,-37.54 187.05,-31.22"/>
</a>
</g>
</g>
<!-- Node7 -->
<g id="Node000007" class="node">
<title>Node7</title>
<g id="a_Node000007"><a xlink:title=" ">
<polygon fill="#e0e0e0" stroke="#999999" points="356,-41 212,-41 212,0 356,0 356,-41"/>
<text text-anchor="start" x="220" y="-29" font-family="Helvetica,sans-Serif" font-size="10.00">core/hf&#45;core&#45;drivers</text>
<text text-anchor="start" x="220" y="-18" font-family="Helvetica,sans-Serif" font-size="10.00">/external/hf&#45;bno08x&#45;driver</text>
<text text-anchor="middle" x="284" y="-7" font-family="Helvetica,sans-Serif" font-size="10.00">/inc/bno08x.hpp</text>
</a>
</g>
</g>
<!-- Node2&#45;&gt;Node7 -->
<g id="edge6_Node000002_Node000007" class="edge">
<title>Node2&#45;&gt;Node7</title>
<g id="a_edge6_Node000002_Node000007"><a xlink:title=" ">
<path fill="none" stroke="#63b8ff" d="M577.23,-87.99C529.46,-77.72 446.66,-59.73 366.2,-41.26"/>
<polygon fill="#63b8ff" stroke="#63b8ff" points="366.94,-37.84 356.41,-39.01 365.37,-44.66 366.94,-37.84"/>
</a>
</g>
</g>
<!-- Node8 -->
<g id="Node000008" class="node">
<title>Node8</title>
<g id="a_Node000008"><a xlink:title=" ">
<polygon fill="#e0e0e0" stroke="#999999" points="553.5,-41 374.5,-41 374.5,0 553.5,0 553.5,-41"/>
<text text-anchor="start" x="382.5" y="-29" font-family="Helvetica,sans-Serif" font-size="10.00">core/hf&#45;core&#45;drivers</text>
<text text-anchor="start" x="382.5" y="-18" font-family="Helvetica,sans-Serif" font-size="10.00">/external/hf&#45;bno08x&#45;driver</text>
<text text-anchor="middle" x="464" y="-7" font-family="Helvetica,sans-Serif" font-size="10.00">/inc/bno08x_comm_interface.hpp</text>
</a>
</g>
</g>
<!-- Node2&#45;&gt;Node8 -->
<g id="edge7_Node000002_Node000008" class="edge">
<title>Node2&#45;&gt;Node8</title>
<g id="a_edge7_Node000002_Node000008"><a xlink:title=" ">
<path fill="none" stroke="#63b8ff" d="M599.45,-87.9C578.55,-77.65 542.77,-60.12 513.23,-45.63"/>
<polygon fill="#63b8ff" stroke="#63b8ff" points="514.41,-42.31 503.89,-41.05 511.33,-48.6 514.41,-42.31"/>
</a>
</g>
</g>
<!-- Node9 -->
<g id="Node000009" class="node">
<title>Node9</title>
<g id="a_Node000009"><a xlink:title=" ">
<polygon fill="#e0e0e0" stroke="#999999" points="662,-30 572,-30 572,-11 662,-11 662,-30"/>
<text text-anchor="middle" x="617" y="-18" font-family="Helvetica,sans-Serif" font-size="10.00">base/BaseI2c.h</text>
</a>
</g>
</g>
<!-- Node2&#45;&gt;Node9 -->
<g id="edge8_Node000002_Node000009" class="edge">
<title>Node2&#45;&gt;Node9</title>
<g id="a_edge8_Node000002_Node000009"><a xlink:title=" ">
<path fill="none" stroke="#63b8ff" d="M617,-87.9C617,-76.37 617,-55.59 617,-40.34"/>
<polygon fill="#63b8ff" stroke="#63b8ff" points="620.5,-40 617,-30 613.5,-40 620.5,-40"/>
</a>
</g>
</g>
<!-- Node10 -->
<g id="Node000010" class="node">
<title>Node10</title>
<g id="a_Node000010"><a xlink:title=" ">
<polygon fill="#e0e0e0" stroke="#999999" points="771.5,-30 680.5,-30 680.5,-11 771.5,-11 771.5,-30"/>
<text text-anchor="middle" x="726" y="-18" font-family="Helvetica,sans-Serif" font-size="10.00">base/BaseSpi.h</text>
</a>
</g>
</g>
<!-- Node2&#45;&gt;Node10 -->
<g id="edge9_Node000002_Node000010" class="edge">
<title>Node2&#45;&gt;Node10</title>
<g id="a_edge9_Node000002_Node000010"><a xlink:title=" ">
<path fill="none" stroke="#63b8ff" d="M629.5,-87.9C647.98,-75.18 682.81,-51.22 705.18,-35.83"/>
<polygon fill="#63b8ff" stroke="#63b8ff" points="707.39,-38.56 713.64,-30 703.42,-32.79 707.39,-38.56"/>
</a>
</g>
</g>
<!-- Node11 -->
<g id="Node000011" class="node">
<title>Node11</title>
<g id="a_Node000011"><a xlink:title=" ">
<polygon fill="#e0e0e0" stroke="#999999" points="888,-30 790,-30 790,-11 888,-11 888,-30"/>
<text text-anchor="middle" x="839" y="-18" font-family="Helvetica,sans-Serif" font-size="10.00">base/BaseGpio.h</text>
</a>
</g>
</g>
<!-- Node2&#45;&gt;Node11 -->
<g id="edge10_Node000002_Node000011" class="edge">
<title>Node2&#45;&gt;Node11</title>
<g id="a_edge10_Node000002_Node000011"><a xlink:title=" ">
<path fill="none" stroke="#63b8ff" d="M642.47,-87.9C682.28,-74.45 759.34,-48.41 804.23,-33.25"/>
<polygon fill="#63b8ff" stroke="#63b8ff" points="805.48,-36.52 813.83,-30 803.24,-29.89 805.48,-36.52"/>
</a>
</g>
</g>
<!-- Node12 -->
<g id="Node000012" class="node">
<title>Node12</title>
<g id="a_Node000012"><a xlink:title=" ">
<polygon fill="#e0e0e0" stroke="#999999" points="1008,-30 906,-30 906,-11 1008,-11 1008,-30"/>
<text text-anchor="middle" x="957" y="-18" font-family="Helvetica,sans-Serif" font-size="10.00">utils/RtosMutex.h</text>
</a>
</g>
</g>
<!-- Node2&#45;&gt;Node12 -->
<g id="edge11_Node000002_Node000012" class="edge">
<title>Node2&#45;&gt;Node12</title>
<g id="a_edge11_Node000002_Node000012"><a xlink:title=" ">
<path fill="none" stroke="#63b8ff" d="M667.23,-88.39C723.58,-78.87 817.51,-61.72 897,-41 905.61,-38.76 914.79,-35.97 923.32,-33.22"/>
<polygon fill="#63b8ff" stroke="#63b8ff" points="924.57,-36.5 932.96,-30.03 922.37,-29.85 924.57,-36.5"/>
</a>
</g>
</g>
<!-- Node16&#45;&gt;Node4 -->
<g id="edge18_Node000016_Node000004" class="edge">
<title>Node16&#45;&gt;Node4</title>
<g id="a_edge18_Node000016_Node000004"><a xlink:title=" ">
<path fill="none" stroke="#63b8ff" d="M1144.41,-87.9C1127.37,-75.24 1095.31,-51.43 1074.57,-36.03"/>
<polygon fill="#63b8ff" stroke="#63b8ff" points="1076.57,-33.15 1066.45,-30 1072.39,-38.77 1076.57,-33.15"/>
</a>
</g>
</g>
<!-- Node17 -->
<g id="Node000017" class="node">
<title>Node17</title>
<g id="a_Node000017"><a xlink:title=" ">
<polygon fill="#e0e0e0" stroke="#999999" points="1146,-30 1102,-30 1102,-11 1146,-11 1146,-30"/>
<text text-anchor="middle" x="1124" y="-18" font-family="Helvetica,sans-Serif" font-size="10.00">string</text>
</a>
</g>
</g>
<!-- Node16&#45;&gt;Node17 -->
<g id="edge16_Node000016_Node000017" class="edge">
<title>Node16&#45;&gt;Node17</title>
<g id="a_edge16_Node000016_Node000017"><a xlink:title=" ">
<path fill="none" stroke="#63b8ff" d="M1152.33,-87.9C1147.31,-76.14 1138.2,-54.78 1131.66,-39.45"/>
<polygon fill="#63b8ff" stroke="#63b8ff" points="1134.77,-37.83 1127.63,-30 1128.33,-40.57 1134.77,-37.83"/>
</a>
</g>
</g>
<!-- Node18 -->
<g id="Node000018" class="node">
<title>Node18</title>
<g id="a_Node000018"><a xlink:title=" ">
<polygon fill="#e0e0e0" stroke="#999999" points="1211.5,-30 1164.5,-30 1164.5,-11 1211.5,-11 1211.5,-30"/>
<text text-anchor="middle" x="1188" y="-18" font-family="Helvetica,sans-Serif" font-size="10.00">vector</text>
</a>
</g>
</g>
<!-- Node16&#45;&gt;Node18 -->
<g id="edge17_Node000016_Node000018" class="edge">
<title>Node16&#45;&gt;Node18</title>
<g id="a_edge17_Node000016_Node000018"><a xlink:title=" ">
<path fill="none" stroke="#63b8ff" d="M1159.67,-87.9C1164.69,-76.14 1173.8,-54.78 1180.34,-39.45"/>
<polygon fill="#63b8ff" stroke="#63b8ff" points="1183.67,-40.57 1184.37,-30 1177.23,-37.83 1183.67,-40.57"/>
</a>
</g>
</g>
<!-- Node19 -->
<g id="Node000019" class="node">
<title>Node19</title>
<g id="a_Node000019"><a xlink:title=" ">
<polygon fill="#e0e0e0" stroke="#999999" points="1280,-30 1230,-30 1230,-11 1280,-11 1280,-30"/>
<text text-anchor="middle" x="1255" y="-18" font-family="Helvetica,sans-Serif" font-size="10.00">atomic</text>
</a>
</g>
</g>
<!-- Node16&#45;&gt;Node19 -->
<g id="edge19_Node000016_Node000019" class="edge">
<title>Node16&#45;&gt;Node19</title>
<g id="a_edge19_Node000016_Node000019"><a xlink:title=" ">
<path fill="none" stroke="#63b8ff" d="M1167.36,-87.9C1183.99,-75.29 1215.21,-51.64 1235.55,-36.24"/>
<polygon fill="#63b8ff" stroke="#63b8ff" points="1237.92,-38.83 1243.78,-30 1233.69,-33.25 1237.92,-38.83"/>
</a>
</g>
</g>
<!-- Node20 -->
<g id="Node000020" class="node">
<title>Node20</title>
<g id="a_Node000020"><a xlink:title=" ">
<polygon fill="#e0e0e0" stroke="#999999" points="1336,-30 1298,-30 1298,-11 1336,-11 1336,-30"/>
<text text-anchor="middle" x="1317" y="-18" font-family="Helvetica,sans-Serif" font-size="10.00">map</text>
</a>
</g>
</g>
<!-- Node16&#45;&gt;Node20 -->
<g id="edge20_Node000016_Node000020" class="edge">
<title>Node16&#45;&gt;Node20</title>
<g id="a_edge20_Node000016_Node000020"><a xlink:title=" ">
<path fill="none" stroke="#63b8ff" d="M1180.75,-87.97C1208.02,-78.17 1252.81,-60.86 1289,-41 1291.82,-39.45 1294.7,-37.69 1297.49,-35.86"/>
<polygon fill="#63b8ff" stroke="#63b8ff" points="1299.68,-38.61 1305.91,-30.04 1295.69,-32.85 1299.68,-38.61"/>
</a>
</g>
</g>
</g>
</svg>
