<?xml version="1.0" encoding="UTF-8" standalone="no"?>
<!DOCTYPE svg PUBLIC "-//W3C//DTD SVG 1.1//EN"
 "http://www.w3.org/Graphics/SVG/1.1/DTD/svg11.dtd">
<!-- Generated by graphviz version 2.43.0 (0)
 -->
<!-- Title: HalUartTmc9660Comm::uartTransferBootloader Pages: 1 -->
<svg width="486pt" height="135pt"
 viewBox="0.00 0.00 486.00 134.50" xmlns="http://www.w3.org/2000/svg" xmlns:xlink="http://www.w3.org/1999/xlink">
<g id="graph0" class="graph" transform="scale(1 1) rotate(0) translate(4 130.5)">
<title>HalUartTmc9660Comm::uartTransferBootloader</title>
<!-- Node1 -->
<g id="Node000001" class="node">
<title>Node1</title>
<g id="a_Node000001"><a xlink:title="Perform an 8&#45;byte UART bootloader transfer (send + receive).">
<polygon fill="#999999" stroke="#666666" points="134,-91 0,-91 0,-61 134,-61 134,-91"/>
<text text-anchor="start" x="8" y="-79" font-family="Helvetica,sans-Serif" font-size="10.00">HalUartTmc9660Comm</text>
<text text-anchor="middle" x="67" y="-68" font-family="Helvetica,sans-Serif" font-size="10.00">::uartTransferBootloader</text>
</a>
</g>
</g>
<!-- Node2 -->
<g id="Node000002" class="node">
<title>Node2</title>
<g id="a_Node000002"><a xlink:href="namespaceanonymous__namespace_02Tmc9660Handler_8cpp_03.html#ae63557e186ffd913155acb3129de7ac9" target="_top" xlink:title=" ">
<polygon fill="white" stroke="#666666" points="305,-126.5 170,-126.5 170,-85.5 305,-85.5 305,-126.5"/>
<text text-anchor="start" x="178" y="-114.5" font-family="Helvetica,sans-Serif" font-size="10.00">anonymous_namespace</text>
<text text-anchor="start" x="178" y="-103.5" font-family="Helvetica,sans-Serif" font-size="10.00">{Tmc9660Handler::cpp}</text>
<text text-anchor="middle" x="237.5" y="-92.5" font-family="Helvetica,sans-Serif" font-size="10.00">::LogHexDump</text>
</a>
</g>
</g>
<!-- Node1&#45;&gt;Node2 -->
<g id="edge1_Node000001_Node000002" class="edge">
<title>Node1&#45;&gt;Node2</title>
<g id="a_edge1_Node000001_Node000002"><a xlink:title=" ">
<path fill="none" stroke="#63b8ff" d="M134.11,-87.77C142.53,-89.27 151.2,-90.81 159.76,-92.34"/>
<polygon fill="#63b8ff" stroke="#63b8ff" points="159.29,-95.81 169.75,-94.12 160.52,-88.92 159.29,-95.81"/>
</a>
</g>
</g>
<!-- Node4 -->
<g id="Node000004" class="node">
<title>Node4</title>
<g id="a_Node000004"><a xlink:href="namespaceanonymous__namespace_02Tmc9660Handler_8cpp_03.html#a75bfafbdf838187780b833848b1e87eb" target="_top" xlink:title=" ">
<polygon fill="white" stroke="#666666" points="305,-67.5 170,-67.5 170,-26.5 305,-26.5 305,-67.5"/>
<text text-anchor="start" x="178" y="-55.5" font-family="Helvetica,sans-Serif" font-size="10.00">anonymous_namespace</text>
<text text-anchor="start" x="178" y="-44.5" font-family="Helvetica,sans-Serif" font-size="10.00">{Tmc9660Handler::cpp}</text>
<text text-anchor="middle" x="237.5" y="-33.5" font-family="Helvetica,sans-Serif" font-size="10.00">::ReadExactBytesUart</text>
</a>
</g>
</g>
<!-- Node1&#45;&gt;Node4 -->
<g id="edge3_Node000001_Node000004" class="edge">
<title>Node1&#45;&gt;Node4</title>
<g id="a_edge3_Node000001_Node000004"><a xlink:title=" ">
<path fill="none" stroke="#63b8ff" d="M134.11,-64.62C142.53,-63.17 151.2,-61.68 159.76,-60.21"/>
<polygon fill="#63b8ff" stroke="#63b8ff" points="160.49,-63.63 169.75,-58.49 159.3,-56.74 160.49,-63.63"/>
</a>
</g>
</g>
<!-- Node3 -->
<g id="Node000003" class="node">
<title>Node3</title>
<g id="a_Node000003"><a xlink:href="classLogger.html#a5789d11f8f1356e2192c0023a089cbc4" target="_top" xlink:title="Get singleton instance.">
<polygon fill="white" stroke="#666666" points="466.5,-115.5 352.5,-115.5 352.5,-96.5 466.5,-96.5 466.5,-115.5"/>
<text text-anchor="middle" x="409.5" y="-103.5" font-family="Helvetica,sans-Serif" font-size="10.00">Logger::GetInstance</text>
</a>
</g>
</g>
<!-- Node2&#45;&gt;Node3 -->
<g id="edge2_Node000002_Node000003" class="edge">
<title>Node2&#45;&gt;Node3</title>
<g id="a_edge2_Node000002_Node000003"><a xlink:title=" ">
<path fill="none" stroke="#63b8ff" d="M305.2,-106C317.41,-106 330.15,-106 342.34,-106"/>
<polygon fill="#63b8ff" stroke="#63b8ff" points="342.43,-109.5 352.43,-106 342.43,-102.5 342.43,-109.5"/>
</a>
</g>
</g>
<!-- Node5 -->
<g id="Node000005" class="node">
<title>Node5</title>
<g id="a_Node000005"><a xlink:href="namespacehandler__utils.html#afc7fd91265677d0865cbc2a413754ed8" target="_top" xlink:title="RTOS&#45;aware millisecond delay.">
<polygon fill="white" stroke="#666666" points="473.5,-67.5 345.5,-67.5 345.5,-48.5 473.5,-48.5 473.5,-67.5"/>
<text text-anchor="middle" x="409.5" y="-55.5" font-family="Helvetica,sans-Serif" font-size="10.00">handler_utils::DelayMs</text>
</a>
</g>
</g>
<!-- Node4&#45;&gt;Node5 -->
<g id="edge4_Node000004_Node000005" class="edge">
<title>Node4&#45;&gt;Node5</title>
<g id="a_edge4_Node000004_Node000005"><a xlink:title=" ">
<path fill="none" stroke="#63b8ff" d="M305.2,-51.32C315,-51.95 325.15,-52.61 335.08,-53.25"/>
<polygon fill="#63b8ff" stroke="#63b8ff" points="335.12,-56.76 345.32,-53.91 335.57,-49.77 335.12,-56.76"/>
</a>
</g>
</g>
<!-- Node6 -->
<g id="Node000006" class="node">
<title>Node6</title>
<g id="a_Node000006"><a xlink:href="namespacehandler__utils.html#a75d4e97d12033f5c07ab4deab842ebe9" target="_top" xlink:title="Monotonic time in microseconds for bounded I/O waits.">
<polygon fill="white" stroke="#666666" points="478,-30 341,-30 341,0 478,0 478,-30"/>
<text text-anchor="start" x="349" y="-18" font-family="Helvetica,sans-Serif" font-size="10.00">handler_utils::Monotonic</text>
<text text-anchor="middle" x="409.5" y="-7" font-family="Helvetica,sans-Serif" font-size="10.00">TimeUs</text>
</a>
</g>
</g>
<!-- Node4&#45;&gt;Node6 -->
<g id="edge5_Node000004_Node000006" class="edge">
<title>Node4&#45;&gt;Node6</title>
<g id="a_edge5_Node000004_Node000006"><a xlink:title=" ">
<path fill="none" stroke="#63b8ff" d="M305.2,-34.44C313.62,-32.86 322.3,-31.23 330.88,-29.61"/>
<polygon fill="#63b8ff" stroke="#63b8ff" points="331.69,-33.02 340.87,-27.73 330.4,-26.14 331.69,-33.02"/>
</a>
</g>
</g>
</g>
</svg>
