<?xml version="1.0" encoding="UTF-8" standalone="no"?>
<!DOCTYPE svg PUBLIC "-//W3C//DTD SVG 1.1//EN"
 "http://www.w3.org/Graphics/SVG/1.1/DTD/svg11.dtd">
<!-- Generated by graphviz version 2.43.0 (0)
 -->
<!-- Title: Tmc5160Handler::~Tmc5160Handler Pages: 1 -->
<svg width="722pt" height="113pt"
 viewBox="0.00 0.00 722.00 112.50" xmlns="http://www.w3.org/2000/svg" xmlns:xlink="http://www.w3.org/1999/xlink">
<g id="graph0" class="graph" transform="scale(1 1) rotate(0) translate(4 108.5)">
<title>Tmc5160Handler::~Tmc5160Handler</title>
<!-- Node1 -->
<g id="Node000001" class="node">
<title>Node1</title>
<g id="a_Node000001"><a xlink:title="Destructor.">
<polygon fill="#999999" stroke="#666666" points="159,-73 0,-73 0,-43 159,-43 159,-73"/>
<text text-anchor="start" x="8" y="-61" font-family="Helvetica,sans-Serif" font-size="10.00">Tmc5160Handler::~Tmc5160</text>
<text text-anchor="middle" x="79.5" y="-50" font-family="Helvetica,sans-Serif" font-size="10.00">Handler</text>
</a>
</g>
</g>
<!-- Node2 -->
<g id="Node000002" class="node">
<title>Node2</title>
<g id="a_Node000002"><a xlink:href="classTmc5160Handler.html#a262b31fb5ccbfe229766a9a4b3ce546b" target="_top" xlink:title="Deinitialize — disable motor and release resources.">
<polygon fill="white" stroke="#666666" points="356,-67.5 195,-67.5 195,-48.5 356,-48.5 356,-67.5"/>
<text text-anchor="middle" x="275.5" y="-55.5" font-family="Helvetica,sans-Serif" font-size="10.00">Tmc5160Handler::Deinitialize</text>
</a>
</g>
</g>
<!-- Node1&#45;&gt;Node2 -->
<g id="edge1_Node000001_Node000002" class="edge">
<title>Node1&#45;&gt;Node2</title>
<g id="a_edge1_Node000001_Node000002"><a xlink:title=" ">
<path fill="none" stroke="#63b8ff" d="M159.13,-58C167.58,-58 176.23,-58 184.8,-58"/>
<polygon fill="#63b8ff" stroke="#63b8ff" points="184.81,-61.5 194.81,-58 184.81,-54.5 184.81,-61.5"/>
</a>
</g>
</g>
<!-- Node3 -->
<g id="Node000003" class="node">
<title>Node3</title>
<g id="a_Node000003"><a xlink:href="classLogger.html#a5789d11f8f1356e2192c0023a089cbc4" target="_top" xlink:title="Get singleton instance.">
<polygon fill="white" stroke="#666666" points="527.5,-104.5 413.5,-104.5 413.5,-85.5 527.5,-85.5 527.5,-104.5"/>
<text text-anchor="middle" x="470.5" y="-92.5" font-family="Helvetica,sans-Serif" font-size="10.00">Logger::GetInstance</text>
</a>
</g>
</g>
<!-- Node2&#45;&gt;Node3 -->
<g id="edge2_Node000002_Node000003" class="edge">
<title>Node2&#45;&gt;Node3</title>
<g id="a_edge2_Node000002_Node000003"><a xlink:title=" ">
<path fill="none" stroke="#63b8ff" d="M326.2,-67.53C351.65,-72.41 382.84,-78.39 409.61,-83.52"/>
<polygon fill="#63b8ff" stroke="#63b8ff" points="409.15,-86.99 419.63,-85.44 410.47,-80.12 409.15,-86.99"/>
</a>
</g>
</g>
<!-- Node4 -->
<g id="Node000004" class="node">
<title>Node4</title>
<g id="a_Node000004"><a xlink:href="classLogger.html#a1c0c947d87884bca0395fd38d19d1102" target="_top" xlink:title="Log info message.">
<polygon fill="white" stroke="#666666" points="507.5,-67.5 433.5,-67.5 433.5,-48.5 507.5,-48.5 507.5,-67.5"/>
<text text-anchor="middle" x="470.5" y="-55.5" font-family="Helvetica,sans-Serif" font-size="10.00">Logger::Info</text>
</a>
</g>
</g>
<!-- Node2&#45;&gt;Node4 -->
<g id="edge3_Node000002_Node000004" class="edge">
<title>Node2&#45;&gt;Node4</title>
<g id="a_edge3_Node000002_Node000004"><a xlink:title=" ">
<path fill="none" stroke="#63b8ff" d="M356.11,-58C378.93,-58 403.04,-58 423.14,-58"/>
<polygon fill="#63b8ff" stroke="#63b8ff" points="423.25,-61.5 433.25,-58 423.25,-54.5 423.25,-61.5"/>
</a>
</g>
</g>
<!-- Node7 -->
<g id="Node000007" class="node">
<title>Node7</title>
<g id="a_Node000007"><a xlink:href="classTmc5160Handler.html#a439a68f9d3f6785e0a493f9ed3821325" target="_top" xlink:title="Helper: execute a visitor on the active driver (no lock, internal use)">
<polygon fill="white" stroke="#666666" points="549,-30 392,-30 392,0 549,0 549,-30"/>
<text text-anchor="start" x="400" y="-18" font-family="Helvetica,sans-Serif" font-size="10.00">Tmc5160Handler::visitDriver</text>
<text text-anchor="middle" x="470.5" y="-7" font-family="Helvetica,sans-Serif" font-size="10.00">Internal</text>
</a>
</g>
</g>
<!-- Node2&#45;&gt;Node7 -->
<g id="edge6_Node000002_Node000007" class="edge">
<title>Node2&#45;&gt;Node7</title>
<g id="a_edge6_Node000002_Node000007"><a xlink:title=" ">
<path fill="none" stroke="#63b8ff" d="M319.33,-48.46C340.8,-43.67 367.47,-37.73 392.35,-32.19"/>
<polygon fill="#63b8ff" stroke="#63b8ff" points="393.15,-35.6 402.15,-30.01 391.62,-28.76 393.15,-35.6"/>
</a>
</g>
</g>
<!-- Node5 -->
<g id="Node000005" class="node">
<title>Node5</title>
<g id="a_Node000005"><a xlink:href="classLogger.html#a737b981213c02321a5235848334d7191" target="_top" xlink:title="Check if log level is enabled for tag.">
<polygon fill="white" stroke="#666666" points="714,-85.5 585,-85.5 585,-66.5 714,-66.5 714,-85.5"/>
<text text-anchor="middle" x="649.5" y="-73.5" font-family="Helvetica,sans-Serif" font-size="10.00">Logger::IsLevelEnabled</text>
</a>
</g>
</g>
<!-- Node4&#45;&gt;Node5 -->
<g id="edge4_Node000004_Node000005" class="edge">
<title>Node4&#45;&gt;Node5</title>
<g id="a_edge4_Node000004_Node000005"><a xlink:title=" ">
<path fill="none" stroke="#63b8ff" d="M507.75,-61.69C527.04,-63.65 551.5,-66.14 574.59,-68.48"/>
<polygon fill="#63b8ff" stroke="#63b8ff" points="574.43,-71.99 584.73,-69.52 575.14,-65.02 574.43,-71.99"/>
</a>
</g>
</g>
<!-- Node6 -->
<g id="Node000006" class="node">
<title>Node6</title>
<g id="a_Node000006"><a xlink:href="classLogger.html#aeede6ac18db92a47caede076ef188a13" target="_top" xlink:title="Internal logging method.">
<polygon fill="white" stroke="#666666" points="704.5,-48.5 594.5,-48.5 594.5,-29.5 704.5,-29.5 704.5,-48.5"/>
<text text-anchor="middle" x="649.5" y="-36.5" font-family="Helvetica,sans-Serif" font-size="10.00">Logger::LogInternal</text>
</a>
</g>
</g>
<!-- Node4&#45;&gt;Node6 -->
<g id="edge5_Node000004_Node000006" class="edge">
<title>Node4&#45;&gt;Node6</title>
<g id="a_edge5_Node000004_Node000006"><a xlink:title=" ">
<path fill="none" stroke="#63b8ff" d="M507.75,-54.11C529.8,-51.74 558.6,-48.65 584.4,-45.88"/>
<polygon fill="#63b8ff" stroke="#63b8ff" points="584.92,-49.35 594.49,-44.8 584.17,-42.39 584.92,-49.35"/>
</a>
</g>
</g>
</g>
</svg>
