<?xml version="1.0" encoding="UTF-8" standalone="no"?>
<!DOCTYPE svg PUBLIC "-//W3C//DTD SVG 1.1//EN"
 "http://www.w3.org/Graphics/SVG/1.1/DTD/svg11.dtd">
<!-- Generated by graphviz version 2.43.0 (0)
 -->
<!-- Title: Bno08xHandler::Initialize Pages: 1 -->
<svg width="946pt" height="38pt"
 viewBox="0.00 0.00 946.00 38.00" xmlns="http://www.w3.org/2000/svg" xmlns:xlink="http://www.w3.org/1999/xlink">
<g id="graph0" class="graph" transform="scale(1 1) rotate(0) translate(4 34)">
<title>Bno08xHandler::Initialize</title>
<!-- Node1 -->
<g id="Node000001" class="node">
<title>Node1</title>
<g id="a_Node000001"><a xlink:title="Initialize the BNO08x sensor.">
<polygon fill="#999999" stroke="#666666" points="938,-24.5 798,-24.5 798,-5.5 938,-5.5 938,-24.5"/>
<text text-anchor="middle" x="868" y="-12.5" font-family="Helvetica,sans-Serif" font-size="10.00">Bno08xHandler::Initialize</text>
</a>
</g>
</g>
<!-- Node2 -->
<g id="Node000002" class="node">
<title>Node2</title>
<g id="a_Node000002"><a xlink:href="classBno08xHandler.html#a0479abc034d5417ba7dc524468a5ce82" target="_top" xlink:title="Internal: ensure initialized (assumes mutex is held).">
<polygon fill="white" stroke="#666666" points="762,-30 583,-30 583,0 762,0 762,-30"/>
<text text-anchor="start" x="591" y="-18" font-family="Helvetica,sans-Serif" font-size="10.00">Bno08xHandler::ensureInitialized</text>
<text text-anchor="middle" x="672.5" y="-7" font-family="Helvetica,sans-Serif" font-size="10.00">Locked</text>
</a>
</g>
</g>
<!-- Node1&#45;&gt;Node2 -->
<g id="edge1_Node000001_Node000002" class="edge">
<title>Node1&#45;&gt;Node2</title>
<g id="a_edge1_Node000001_Node000002"><a xlink:title=" ">
<path fill="none" stroke="#63b8ff" d="M787.76,-15C779.31,-15 770.68,-15 762.13,-15"/>
<polygon fill="#63b8ff" stroke="#63b8ff" points="787.96,-18.5 797.96,-15 787.96,-11.5 787.96,-18.5"/>
</a>
</g>
</g>
<!-- Node3 -->
<g id="Node000003" class="node">
<title>Node3</title>
<g id="a_Node000003"><a xlink:href="classBno08xHandler.html#afab341345c8ed8fed1a218e0df18c4aa" target="_top" xlink:title="Ensure the BNO08x is initialized (lazy init entrypoint).">
<polygon fill="white" stroke="#666666" points="547,-24.5 368,-24.5 368,-5.5 547,-5.5 547,-24.5"/>
<text text-anchor="middle" x="457.5" y="-12.5" font-family="Helvetica,sans-Serif" font-size="10.00">Bno08xHandler::EnsureInitialized</text>
</a>
</g>
</g>
<!-- Node2&#45;&gt;Node3 -->
<g id="edge2_Node000002_Node000003" class="edge">
<title>Node2&#45;&gt;Node3</title>
<g id="a_edge2_Node000002_Node000003"><a xlink:title=" ">
<path fill="none" stroke="#63b8ff" d="M572.46,-15C564.01,-15 555.5,-15 547.14,-15"/>
<polygon fill="#63b8ff" stroke="#63b8ff" points="572.71,-18.5 582.71,-15 572.71,-11.5 572.71,-18.5"/>
</a>
</g>
</g>
<!-- Node4 -->
<g id="Node000004" class="node">
<title>Node4</title>
<g id="a_Node000004"><a xlink:href="classBno08xHandler.html#a57e2952c0438e800c091cd0e3ebcdaf5" target="_top" xlink:title="Get direct access to the underlying sensor driver (type&#45;erased).">
<polygon fill="white" stroke="#666666" points="332,-24.5 184,-24.5 184,-5.5 332,-5.5 332,-24.5"/>
<text text-anchor="middle" x="258" y="-12.5" font-family="Helvetica,sans-Serif" font-size="10.00">Bno08xHandler::GetSensor</text>
</a>
</g>
</g>
<!-- Node3&#45;&gt;Node4 -->
<g id="edge3_Node000003_Node000004" class="edge">
<title>Node3&#45;&gt;Node4</title>
<g id="a_edge3_Node000003_Node000004"><a xlink:title=" ">
<path fill="none" stroke="#63b8ff" d="M357.79,-15C349.2,-15 340.61,-15 332.28,-15"/>
<polygon fill="#63b8ff" stroke="#63b8ff" points="357.86,-18.5 367.86,-15 357.86,-11.5 357.86,-18.5"/>
</a>
</g>
</g>
<!-- Node5 -->
<g id="Node000005" class="node">
<title>Node5</title>
<g id="a_Node000005"><a xlink:href="classBno08xHandler.html#abf3a81e646ebd6dd0a10890e5be21d6d" target="_top" xlink:title="Const overload of GetSensor().">
<polygon fill="white" stroke="#666666" points="148,-24.5 0,-24.5 0,-5.5 148,-5.5 148,-24.5"/>
<text text-anchor="middle" x="74" y="-12.5" font-family="Helvetica,sans-Serif" font-size="10.00">Bno08xHandler::GetSensor</text>
</a>
</g>
</g>
<!-- Node4&#45;&gt;Node5 -->
<g id="edge4_Node000004_Node000005" class="edge">
<title>Node4&#45;&gt;Node5</title>
<g id="a_edge4_Node000004_Node000005"><a xlink:title=" ">
<path fill="none" stroke="#63b8ff" d="M173.48,-15C165.01,-15 156.44,-15 148.09,-15"/>
<polygon fill="#63b8ff" stroke="#63b8ff" points="173.76,-18.5 183.76,-15 173.76,-11.5 173.76,-18.5"/>
</a>
</g>
</g>
</g>
</svg>
