<?xml version="1.0" encoding="UTF-8" standalone="no"?>
<!DOCTYPE svg PUBLIC "-//W3C//DTD SVG 1.1//EN"
 "http://www.w3.org/Graphics/SVG/1.1/DTD/svg11.dtd">
<!-- Generated by graphviz version 2.43.0 (0)
 -->
<!-- Title: Tmc9660Handler::driverViaUart Pages: 1 -->
<svg width="1519pt" height="113pt"
 viewBox="0.00 0.00 1519.00 112.50" xmlns="http://www.w3.org/2000/svg" xmlns:xlink="http://www.w3.org/1999/xlink">
<g id="graph0" class="graph" transform="scale(1 1) rotate(0) translate(4 108.5)">
<title>Tmc9660Handler::driverViaUart</title>
<!-- Node1 -->
<g id="Node000001" class="node">
<title>Node1</title>
<g id="a_Node000001"><a xlink:title="Const version of driverViaUart().">
<polygon fill="#999999" stroke="#666666" points="171,-45.5 0,-45.5 0,-26.5 171,-26.5 171,-45.5"/>
<text text-anchor="middle" x="85.5" y="-33.5" font-family="Helvetica,sans-Serif" font-size="10.00">Tmc9660Handler::driverViaUart</text>
</a>
</g>
</g>
<!-- Node2 -->
<g id="Node000002" class="node">
<title>Node2</title>
<g id="a_Node000002"><a xlink:href="classTmc9660Handler.html#ac4f303f9e7be9cb737a667dd5d85dd3a" target="_top" xlink:title="Get the TMC9660 driver instance connected via UART (nullptr if using SPI).">
<polygon fill="white" stroke="#666666" points="378,-45.5 207,-45.5 207,-26.5 378,-26.5 378,-45.5"/>
<text text-anchor="middle" x="292.5" y="-33.5" font-family="Helvetica,sans-Serif" font-size="10.00">Tmc9660Handler::driverViaUart</text>
</a>
</g>
</g>
<!-- Node1&#45;&gt;Node2 -->
<g id="edge1_Node000001_Node000002" class="edge">
<title>Node1&#45;&gt;Node2</title>
<g id="a_edge1_Node000001_Node000002"><a xlink:title=" ">
<path fill="none" stroke="#63b8ff" d="M171.06,-36C179.55,-36 188.2,-36 196.78,-36"/>
<polygon fill="#63b8ff" stroke="#63b8ff" points="196.8,-39.5 206.8,-36 196.8,-32.5 196.8,-39.5"/>
</a>
</g>
</g>
<!-- Node3 -->
<g id="Node000003" class="node">
<title>Node3</title>
<g id="a_Node000003"><a xlink:href="classTmc9660Handler.html#a5a279ae9d4b5a8e0d71cb24577ad88ea" target="_top" xlink:title="Ensure driver is initialized (lazy init entrypoint).">
<polygon fill="white" stroke="#666666" points="601,-45.5 414,-45.5 414,-26.5 601,-26.5 601,-45.5"/>
<text text-anchor="middle" x="507.5" y="-33.5" font-family="Helvetica,sans-Serif" font-size="10.00">Tmc9660Handler::EnsureInitialized</text>
</a>
</g>
</g>
<!-- Node2&#45;&gt;Node3 -->
<g id="edge2_Node000002_Node000003" class="edge">
<title>Node2&#45;&gt;Node3</title>
<g id="a_edge2_Node000002_Node000003"><a xlink:title=" ">
<path fill="none" stroke="#63b8ff" d="M378.3,-36C386.72,-36 395.33,-36 403.91,-36"/>
<polygon fill="#63b8ff" stroke="#63b8ff" points="403.95,-39.5 413.95,-36 403.95,-32.5 403.95,-39.5"/>
</a>
</g>
</g>
<!-- Node4 -->
<g id="Node000004" class="node">
<title>Node4</title>
<g id="a_Node000004"><a xlink:href="classTmc9660Handler.html#a7c1d8073576d678b09dac24c9eb12845" target="_top" xlink:title="Ensure initialized while handler_mutex_ is already held.">
<polygon fill="white" stroke="#666666" points="824,-51 637,-51 637,-21 824,-21 824,-51"/>
<text text-anchor="start" x="645" y="-39" font-family="Helvetica,sans-Serif" font-size="10.00">Tmc9660Handler::EnsureInitialized</text>
<text text-anchor="middle" x="730.5" y="-28" font-family="Helvetica,sans-Serif" font-size="10.00">Locked</text>
</a>
</g>
</g>
<!-- Node3&#45;&gt;Node4 -->
<g id="edge3_Node000003_Node000004" class="edge">
<title>Node3&#45;&gt;Node4</title>
<g id="a_edge3_Node000003_Node000004"><a xlink:title=" ">
<path fill="none" stroke="#63b8ff" d="M601.26,-36C609.75,-36 618.39,-36 626.96,-36"/>
<polygon fill="#63b8ff" stroke="#63b8ff" points="626.97,-39.5 636.97,-36 626.97,-32.5 626.97,-39.5"/>
</a>
</g>
</g>
<!-- Node5 -->
<g id="Node000005" class="node">
<title>Node5</title>
<g id="a_Node000005"><a xlink:href="classTmc9660Handler.html#adc564847f8ae26c47412aaee0758991c" target="_top" xlink:title="Initialize the TMC9660 device.">
<polygon fill="white" stroke="#666666" points="1008,-67.5 860,-67.5 860,-48.5 1008,-48.5 1008,-67.5"/>
<text text-anchor="middle" x="934" y="-55.5" font-family="Helvetica,sans-Serif" font-size="10.00">Tmc9660Handler::Initialize</text>
</a>
</g>
</g>
<!-- Node4&#45;&gt;Node5 -->
<g id="edge4_Node000004_Node000005" class="edge">
<title>Node4&#45;&gt;Node5</title>
<g id="a_edge4_Node000004_Node000005"><a xlink:title=" ">
<path fill="none" stroke="#63b8ff" d="M824.29,-46.13C832.73,-47.05 841.25,-47.98 849.61,-48.9"/>
<polygon fill="#63b8ff" stroke="#63b8ff" points="849.38,-52.39 859.7,-50 850.14,-45.43 849.38,-52.39"/>
</a>
</g>
</g>
<!-- Node12 -->
<g id="Node000012" class="node">
<title>Node12</title>
<g id="a_Node000012"><a xlink:href="classTmc9660Handler.html#a13db97d201a287d8aa60384e04070b9f" target="_top" xlink:title="Check if the TMC9660 driver has been initialized and is ready.">
<polygon fill="white" stroke="#666666" points="1006,-30 862,-30 862,0 1006,0 1006,-30"/>
<text text-anchor="start" x="870" y="-18" font-family="Helvetica,sans-Serif" font-size="10.00">Tmc9660Handler::IsDriver</text>
<text text-anchor="middle" x="934" y="-7" font-family="Helvetica,sans-Serif" font-size="10.00">Ready</text>
</a>
</g>
</g>
<!-- Node4&#45;&gt;Node12 -->
<g id="edge13_Node000004_Node000012" class="edge">
<title>Node4&#45;&gt;Node12</title>
<g id="a_edge13_Node000004_Node000012"><a xlink:title=" ">
<path fill="none" stroke="#63b8ff" d="M824.29,-26.33C833.44,-25.38 842.69,-24.41 851.71,-23.47"/>
<polygon fill="#63b8ff" stroke="#63b8ff" points="852.21,-26.94 861.8,-22.42 851.49,-19.98 852.21,-26.94"/>
</a>
</g>
</g>
<!-- Node6 -->
<g id="Node000006" class="node">
<title>Node6</title>
<g id="a_Node000006"><a xlink:href="classLogger.html#adce17848a5844e053bfd314863dc1404" target="_top" xlink:title="Log error message.">
<polygon fill="white" stroke="#666666" points="1140.5,-67.5 1061.5,-67.5 1061.5,-48.5 1140.5,-48.5 1140.5,-67.5"/>
<text text-anchor="middle" x="1101" y="-55.5" font-family="Helvetica,sans-Serif" font-size="10.00">Logger::Error</text>
</a>
</g>
</g>
<!-- Node5&#45;&gt;Node6 -->
<g id="edge5_Node000005_Node000006" class="edge">
<title>Node5&#45;&gt;Node6</title>
<g id="a_edge5_Node000005_Node000006"><a xlink:title=" ">
<path fill="none" stroke="#63b8ff" d="M1008.33,-58C1022.73,-58 1037.5,-58 1050.87,-58"/>
<polygon fill="#63b8ff" stroke="#63b8ff" points="1051.26,-61.5 1061.26,-58 1051.26,-54.5 1051.26,-61.5"/>
</a>
</g>
</g>
<!-- Node10 -->
<g id="Node000010" class="node">
<title>Node10</title>
<g id="a_Node000010"><a xlink:href="classLogger.html#a5789d11f8f1356e2192c0023a089cbc4" target="_top" xlink:title="Get singleton instance.">
<polygon fill="white" stroke="#666666" points="1158,-30.5 1044,-30.5 1044,-11.5 1158,-11.5 1158,-30.5"/>
<text text-anchor="middle" x="1101" y="-18.5" font-family="Helvetica,sans-Serif" font-size="10.00">Logger::GetInstance</text>
</a>
</g>
</g>
<!-- Node5&#45;&gt;Node10 -->
<g id="edge9_Node000005_Node000010" class="edge">
<title>Node5&#45;&gt;Node10</title>
<g id="a_edge9_Node000005_Node000010"><a xlink:title=" ">
<path fill="none" stroke="#63b8ff" d="M977.49,-48.47C998.87,-43.68 1024.97,-37.82 1047.58,-32.75"/>
<polygon fill="#63b8ff" stroke="#63b8ff" points="1048.37,-36.16 1057.37,-30.56 1046.84,-29.33 1048.37,-36.16"/>
</a>
</g>
</g>
<!-- Node11 -->
<g id="Node000011" class="node">
<title>Node11</title>
<g id="a_Node000011"><a xlink:href="classLogger.html#a4681229c521795685fc14f6b55c82300" target="_top" xlink:title="Log info message.">
<polygon fill="white" stroke="#666666" points="1138,-104.5 1064,-104.5 1064,-85.5 1138,-85.5 1138,-104.5"/>
<text text-anchor="middle" x="1101" y="-92.5" font-family="Helvetica,sans-Serif" font-size="10.00">Logger::Info</text>
</a>
</g>
</g>
<!-- Node5&#45;&gt;Node11 -->
<g id="edge10_Node000005_Node000011" class="edge">
<title>Node5&#45;&gt;Node11</title>
<g id="a_edge10_Node000005_Node000011"><a xlink:title=" ">
<path fill="none" stroke="#63b8ff" d="M977.49,-67.53C1000.89,-72.77 1029.94,-79.29 1053.89,-84.66"/>
<polygon fill="#63b8ff" stroke="#63b8ff" points="1053.28,-88.11 1063.8,-86.88 1054.81,-81.28 1053.28,-88.11"/>
</a>
</g>
</g>
<!-- Node7 -->
<g id="Node000007" class="node">
<title>Node7</title>
<g id="a_Node000007"><a xlink:href="classLogger.html#af9e84e0ff6bd538e4f9ed8dcebc3e2f0" target="_top" xlink:title="Check if log level is enabled for tag.">
<polygon fill="white" stroke="#666666" points="1323,-104.5 1194,-104.5 1194,-85.5 1323,-85.5 1323,-104.5"/>
<text text-anchor="middle" x="1258.5" y="-92.5" font-family="Helvetica,sans-Serif" font-size="10.00">Logger::IsLevelEnabled</text>
</a>
</g>
</g>
<!-- Node6&#45;&gt;Node7 -->
<g id="edge6_Node000006_Node000007" class="edge">
<title>Node6&#45;&gt;Node7</title>
<g id="a_edge6_Node000006_Node000007"><a xlink:title=" ">
<path fill="none" stroke="#63b8ff" d="M1140.84,-67.24C1161.03,-72.05 1185.94,-77.97 1207.55,-83.11"/>
<polygon fill="#63b8ff" stroke="#63b8ff" points="1207,-86.58 1217.53,-85.49 1208.62,-79.77 1207,-86.58"/>
</a>
</g>
</g>
<!-- Node8 -->
<g id="Node000008" class="node">
<title>Node8</title>
<g id="a_Node000008"><a xlink:href="classLogger.html#a6adb205db597526fb91ad20067400394" target="_top" xlink:title="Internal logging method.">
<polygon fill="white" stroke="#666666" points="1313.5,-67.5 1203.5,-67.5 1203.5,-48.5 1313.5,-48.5 1313.5,-67.5"/>
<text text-anchor="middle" x="1258.5" y="-55.5" font-family="Helvetica,sans-Serif" font-size="10.00">Logger::LogInternal</text>
</a>
</g>
</g>
<!-- Node6&#45;&gt;Node8 -->
<g id="edge7_Node000006_Node000008" class="edge">
<title>Node6&#45;&gt;Node8</title>
<g id="a_edge7_Node000006_Node000008"><a xlink:title=" ">
<path fill="none" stroke="#63b8ff" d="M1140.84,-58C1156.63,-58 1175.31,-58 1193.03,-58"/>
<polygon fill="#63b8ff" stroke="#63b8ff" points="1193.33,-61.5 1203.33,-58 1193.33,-54.5 1193.33,-61.5"/>
</a>
</g>
</g>
<!-- Node9 -->
<g id="Node000009" class="node">
<title>Node9</title>
<g id="a_Node000009"><a xlink:href="namespaceanonymous__namespace_02Logger_8cpp_03.html#a9d2b496fa1b4f4e28667d14e4b8cb190" target="_top" xlink:title=" ">
<polygon fill="white" stroke="#666666" points="1511,-73 1359,-73 1359,-43 1511,-43 1511,-73"/>
<text text-anchor="start" x="1367" y="-61" font-family="Helvetica,sans-Serif" font-size="10.00">anonymous_namespace</text>
<text text-anchor="middle" x="1435" y="-50" font-family="Helvetica,sans-Serif" font-size="10.00">{Logger::cpp}::ToBaseLevel</text>
</a>
</g>
</g>
<!-- Node8&#45;&gt;Node9 -->
<g id="edge8_Node000008_Node000009" class="edge">
<title>Node8&#45;&gt;Node9</title>
<g id="a_edge8_Node000008_Node000009"><a xlink:title=" ">
<path fill="none" stroke="#63b8ff" d="M1313.76,-58C1324.93,-58 1336.96,-58 1348.93,-58"/>
<polygon fill="#63b8ff" stroke="#63b8ff" points="1348.95,-61.5 1358.95,-58 1348.95,-54.5 1348.95,-61.5"/>
</a>
</g>
</g>
<!-- Node11&#45;&gt;Node7 -->
<g id="edge11_Node000011_Node000007" class="edge">
<title>Node11&#45;&gt;Node7</title>
<g id="a_edge11_Node000011_Node000007"><a xlink:title=" ">
<path fill="none" stroke="#63b8ff" d="M1138.07,-95C1151.68,-95 1167.72,-95 1183.55,-95"/>
<polygon fill="#63b8ff" stroke="#63b8ff" points="1183.89,-98.5 1193.89,-95 1183.89,-91.5 1183.89,-98.5"/>
</a>
</g>
</g>
<!-- Node11&#45;&gt;Node8 -->
<g id="edge12_Node000011_Node000008" class="edge">
<title>Node11&#45;&gt;Node8</title>
<g id="a_edge12_Node000011_Node000008"><a xlink:title=" ">
<path fill="none" stroke="#63b8ff" d="M1138.07,-86.42C1158.78,-81.49 1185.09,-75.23 1207.74,-69.84"/>
<polygon fill="#63b8ff" stroke="#63b8ff" points="1208.61,-73.23 1217.53,-67.51 1206.99,-66.42 1208.61,-73.23"/>
</a>
</g>
</g>
</g>
</svg>
