<?xml version="1.0" encoding="UTF-8" standalone="no"?>
<!DOCTYPE svg PUBLIC "-//W3C//DTD SVG 1.1//EN"
 "http://www.w3.org/Graphics/SVG/1.1/DTD/svg11.dtd">
<!-- Generated by graphviz version 2.43.0 (0)
 -->
<!-- Title: Ws2812Handler::GetStrip Pages: 1 -->
<svg width="858pt" height="138pt"
 viewBox="0.00 0.00 858.00 138.00" xmlns="http://www.w3.org/2000/svg" xmlns:xlink="http://www.w3.org/1999/xlink">
<g id="graph0" class="graph" transform="scale(1 1) rotate(0) translate(4 134)">
<title>Ws2812Handler::GetStrip</title>
<!-- Node1 -->
<g id="Node000001" class="node">
<title>Node1</title>
<g id="a_Node000001"><a xlink:title="Get the underlying LED strip object.">
<polygon fill="#999999" stroke="#666666" points="140,-74 0,-74 0,-55 140,-55 140,-74"/>
<text text-anchor="middle" x="70" y="-62" font-family="Helvetica,sans-Serif" font-size="10.00">Ws2812Handler::GetStrip</text>
</a>
</g>
</g>
<!-- Node2 -->
<g id="Node000002" class="node">
<title>Node2</title>
<g id="a_Node000002"><a xlink:href="classWs2812Handler.html#afe5f397b22e9b92cf2fb2cebae6e123d" target="_top" xlink:title=" ">
<polygon fill="white" stroke="#666666" points="357,-79.5 176,-79.5 176,-49.5 357,-49.5 357,-79.5"/>
<text text-anchor="start" x="184" y="-67.5" font-family="Helvetica,sans-Serif" font-size="10.00">Ws2812Handler::EnsureInitialized</text>
<text text-anchor="middle" x="266.5" y="-56.5" font-family="Helvetica,sans-Serif" font-size="10.00">Locked</text>
</a>
</g>
</g>
<!-- Node1&#45;&gt;Node2 -->
<g id="edge1_Node000001_Node000002" class="edge">
<title>Node1&#45;&gt;Node2</title>
<g id="a_edge1_Node000001_Node000002"><a xlink:title=" ">
<path fill="none" stroke="#63b8ff" d="M140.12,-64.5C148.44,-64.5 157.06,-64.5 165.71,-64.5"/>
<polygon fill="#63b8ff" stroke="#63b8ff" points="165.85,-68 175.85,-64.5 165.85,-61 165.85,-68"/>
</a>
</g>
</g>
<!-- Node3 -->
<g id="Node000003" class="node">
<title>Node3</title>
<g id="a_Node000003"><a xlink:href="classWs2812Handler.html#a172ae173d1e2bd93c9808452aad6e4cd" target="_top" xlink:title="Initialize the RMT channel and LED strip.">
<polygon fill="white" stroke="#666666" points="535,-74 393,-74 393,-55 535,-55 535,-74"/>
<text text-anchor="middle" x="464" y="-62" font-family="Helvetica,sans-Serif" font-size="10.00">Ws2812Handler::Initialize</text>
</a>
</g>
</g>
<!-- Node2&#45;&gt;Node3 -->
<g id="edge2_Node000002_Node000003" class="edge">
<title>Node2&#45;&gt;Node3</title>
<g id="a_edge2_Node000002_Node000003"><a xlink:title=" ">
<path fill="none" stroke="#63b8ff" d="M357.24,-64.5C365.73,-64.5 374.3,-64.5 382.7,-64.5"/>
<polygon fill="#63b8ff" stroke="#63b8ff" points="382.84,-68 392.84,-64.5 382.84,-61 382.84,-68"/>
</a>
</g>
</g>
<!-- Node4 -->
<g id="Node000004" class="node">
<title>Node4</title>
<g id="a_Node000004"><a xlink:href="classLogger.html#a5e4bcdaea60b9ac227b564d780388769" target="_top" xlink:title="Log error message.">
<polygon fill="white" stroke="#666666" points="667.5,-130 588.5,-130 588.5,-111 667.5,-111 667.5,-130"/>
<text text-anchor="middle" x="628" y="-118" font-family="Helvetica,sans-Serif" font-size="10.00">Logger::Error</text>
</a>
</g>
</g>
<!-- Node3&#45;&gt;Node4 -->
<g id="edge3_Node000003_Node000004" class="edge">
<title>Node3&#45;&gt;Node4</title>
<g id="a_edge3_Node000003_Node000004"><a xlink:title=" ">
<path fill="none" stroke="#63b8ff" d="M491.05,-74.11C512.46,-81.94 543.61,-93.19 571,-102.5 576.2,-104.27 581.68,-106.08 587.1,-107.85"/>
<polygon fill="#63b8ff" stroke="#63b8ff" points="586.12,-111.22 596.71,-110.97 588.28,-104.56 586.12,-111.22"/>
</a>
</g>
</g>
<!-- Node7 -->
<g id="Node000007" class="node">
<title>Node7</title>
<g id="a_Node000007"><a xlink:href="classLogger.html#a5789d11f8f1356e2192c0023a089cbc4" target="_top" xlink:title="Get singleton instance.">
<polygon fill="white" stroke="#666666" points="685,-19 571,-19 571,0 685,0 685,-19"/>
<text text-anchor="middle" x="628" y="-7" font-family="Helvetica,sans-Serif" font-size="10.00">Logger::GetInstance</text>
</a>
</g>
</g>
<!-- Node3&#45;&gt;Node7 -->
<g id="edge6_Node000003_Node000007" class="edge">
<title>Node3&#45;&gt;Node7</title>
<g id="a_edge6_Node000003_Node000007"><a xlink:title=" ">
<path fill="none" stroke="#63b8ff" d="M491.95,-54.89C513.33,-47.31 544.02,-36.54 571,-27.5 576.2,-25.76 581.69,-23.95 587.11,-22.19"/>
<polygon fill="#63b8ff" stroke="#63b8ff" points="588.29,-25.48 596.73,-19.08 586.14,-18.82 588.29,-25.48"/>
</a>
</g>
</g>
<!-- Node8 -->
<g id="Node000008" class="node">
<title>Node8</title>
<g id="a_Node000008"><a xlink:href="classLogger.html#a1c0c947d87884bca0395fd38d19d1102" target="_top" xlink:title="Log info message.">
<polygon fill="white" stroke="#666666" points="665,-93 591,-93 591,-74 665,-74 665,-93"/>
<text text-anchor="middle" x="628" y="-81" font-family="Helvetica,sans-Serif" font-size="10.00">Logger::Info</text>
</a>
</g>
</g>
<!-- Node3&#45;&gt;Node8 -->
<g id="edge7_Node000003_Node000008" class="edge">
<title>Node3&#45;&gt;Node8</title>
<g id="a_edge7_Node000003_Node000008"><a xlink:title=" ">
<path fill="none" stroke="#63b8ff" d="M535.11,-72.72C550.53,-74.53 566.48,-76.4 580.67,-78.07"/>
<polygon fill="#63b8ff" stroke="#63b8ff" points="580.33,-81.55 590.67,-79.24 581.15,-74.6 580.33,-81.55"/>
</a>
</g>
</g>
<!-- Node9 -->
<g id="Node000009" class="node">
<title>Node9</title>
<g id="a_Node000009"><a xlink:href="classLogger.html#a8c19c14724b0be1d2be63da4258c001a" target="_top" xlink:title="Log warning message.">
<polygon fill="white" stroke="#666666" points="668,-56 588,-56 588,-37 668,-37 668,-56"/>
<text text-anchor="middle" x="628" y="-44" font-family="Helvetica,sans-Serif" font-size="10.00">Logger::Warn</text>
</a>
</g>
</g>
<!-- Node3&#45;&gt;Node9 -->
<g id="edge10_Node000003_Node000009" class="edge">
<title>Node3&#45;&gt;Node9</title>
<g id="a_edge10_Node000003_Node000009"><a xlink:title=" ">
<path fill="none" stroke="#63b8ff" d="M535.11,-56.71C549.42,-55.12 564.2,-53.48 577.6,-51.99"/>
<polygon fill="#63b8ff" stroke="#63b8ff" points="578,-55.47 587.55,-50.88 577.22,-48.51 578,-55.47"/>
</a>
</g>
</g>
<!-- Node5 -->
<g id="Node000005" class="node">
<title>Node5</title>
<g id="a_Node000005"><a xlink:href="classLogger.html#a737b981213c02321a5235848334d7191" target="_top" xlink:title="Check if log level is enabled for tag.">
<polygon fill="white" stroke="#666666" points="850,-111 721,-111 721,-92 850,-92 850,-111"/>
<text text-anchor="middle" x="785.5" y="-99" font-family="Helvetica,sans-Serif" font-size="10.00">Logger::IsLevelEnabled</text>
</a>
</g>
</g>
<!-- Node4&#45;&gt;Node5 -->
<g id="edge4_Node000004_Node000005" class="edge">
<title>Node4&#45;&gt;Node5</title>
<g id="a_edge4_Node000004_Node000005"><a xlink:title=" ">
<path fill="none" stroke="#63b8ff" d="M667.84,-115.75C680.85,-114.16 695.82,-112.34 710.6,-110.53"/>
<polygon fill="#63b8ff" stroke="#63b8ff" points="711.28,-113.97 720.78,-109.29 710.43,-107.02 711.28,-113.97"/>
</a>
</g>
</g>
<!-- Node6 -->
<g id="Node000006" class="node">
<title>Node6</title>
<g id="a_Node000006"><a xlink:href="classLogger.html#aeede6ac18db92a47caede076ef188a13" target="_top" xlink:title="Internal logging method.">
<polygon fill="white" stroke="#666666" points="840.5,-74 730.5,-74 730.5,-55 840.5,-55 840.5,-74"/>
<text text-anchor="middle" x="785.5" y="-62" font-family="Helvetica,sans-Serif" font-size="10.00">Logger::LogInternal</text>
</a>
</g>
</g>
<!-- Node4&#45;&gt;Node6 -->
<g id="edge5_Node000004_Node000006" class="edge">
<title>Node4&#45;&gt;Node6</title>
<g id="a_edge5_Node000004_Node000006"><a xlink:title=" ">
<path fill="none" stroke="#63b8ff" d="M661.92,-110.98C669.59,-108.47 677.66,-105.59 685,-102.5 701.68,-95.48 704.25,-90.35 721,-83.5 726.53,-81.24 732.42,-79.12 738.31,-77.16"/>
<polygon fill="#63b8ff" stroke="#63b8ff" points="739.67,-80.41 748.14,-74.05 737.55,-73.73 739.67,-80.41"/>
</a>
</g>
</g>
<!-- Node8&#45;&gt;Node5 -->
<g id="edge8_Node000008_Node000005" class="edge">
<title>Node8&#45;&gt;Node5</title>
<g id="a_edge8_Node000008_Node000005"><a xlink:title=" ">
<path fill="none" stroke="#63b8ff" d="M665.07,-87.67C678.68,-89.25 694.72,-91.11 710.55,-92.94"/>
<polygon fill="#63b8ff" stroke="#63b8ff" points="710.55,-96.46 720.89,-94.14 711.36,-89.51 710.55,-96.46"/>
</a>
</g>
</g>
<!-- Node8&#45;&gt;Node6 -->
<g id="edge9_Node000008_Node000006" class="edge">
<title>Node8&#45;&gt;Node6</title>
<g id="a_edge9_Node000008_Node000006"><a xlink:title=" ">
<path fill="none" stroke="#63b8ff" d="M665.07,-79.09C681.49,-77.09 701.44,-74.65 720.3,-72.34"/>
<polygon fill="#63b8ff" stroke="#63b8ff" points="720.83,-75.81 730.33,-71.12 719.98,-68.86 720.83,-75.81"/>
</a>
</g>
</g>
<!-- Node9&#45;&gt;Node5 -->
<g id="edge11_Node000009_Node000005" class="edge">
<title>Node9&#45;&gt;Node5</title>
<g id="a_edge11_Node000009_Node000005"><a xlink:title=" ">
<path fill="none" stroke="#63b8ff" d="M659.51,-56.01C667.86,-58.84 676.85,-62.1 685,-65.5 701.51,-72.39 704.32,-77.03 721,-83.5 726.07,-85.47 731.45,-87.33 736.85,-89.05"/>
<polygon fill="#63b8ff" stroke="#63b8ff" points="735.92,-92.42 746.51,-91.99 737.96,-85.73 735.92,-92.42"/>
</a>
</g>
</g>
<!-- Node9&#45;&gt;Node6 -->
<g id="edge12_Node000009_Node000006" class="edge">
<title>Node9&#45;&gt;Node6</title>
<g id="a_edge12_Node000009_Node000006"><a xlink:title=" ">
<path fill="none" stroke="#63b8ff" d="M668.24,-51.04C683.96,-52.86 702.49,-55.01 720.08,-57.04"/>
<polygon fill="#63b8ff" stroke="#63b8ff" points="719.96,-60.55 730.3,-58.23 720.77,-53.6 719.96,-60.55"/>
</a>
</g>
</g>
</g>
</svg>
