<?xml version="1.0" encoding="UTF-8" standalone="no"?>
<!DOCTYPE svg PUBLIC "-//W3C//DTD SVG 1.1//EN"
 "http://www.w3.org/Graphics/SVG/1.1/DTD/svg11.dtd">
<!-- Generated by graphviz version 2.43.0 (0)
 -->
<!-- Title: Bno08xHandler::ensureInitializedLocked Pages: 1 -->
<svg width="761pt" height="236pt"
 viewBox="0.00 0.00 761.00 235.50" xmlns="http://www.w3.org/2000/svg" xmlns:xlink="http://www.w3.org/1999/xlink">
<g id="graph0" class="graph" transform="scale(1 1) rotate(0) translate(4 231.5)">
<title>Bno08xHandler::ensureInitializedLocked</title>
<!-- Node1 -->
<g id="Node000001" class="node">
<title>Node1</title>
<g id="a_Node000001"><a xlink:title="Internal: ensure initialized (assumes mutex is held).">
<polygon fill="#999999" stroke="#666666" points="179,-119.5 0,-119.5 0,-89.5 179,-89.5 179,-119.5"/>
<text text-anchor="start" x="8" y="-107.5" font-family="Helvetica,sans-Serif" font-size="10.00">Bno08xHandler::ensureInitialized</text>
<text text-anchor="middle" x="89.5" y="-96.5" font-family="Helvetica,sans-Serif" font-size="10.00">Locked</text>
</a>
</g>
</g>
<!-- Node2 -->
<g id="Node000002" class="node">
<title>Node2</title>
<g id="a_Node000002"><a xlink:href="classBno08xHandler.html#ac1a1ff0d56324dcc09d9b48ca2e132e6" target="_top" xlink:title="Initialize the BNO08x sensor.">
<polygon fill="white" stroke="#666666" points="355,-114 215,-114 215,-95 355,-95 355,-114"/>
<text text-anchor="middle" x="285" y="-102" font-family="Helvetica,sans-Serif" font-size="10.00">Bno08xHandler::Initialize</text>
</a>
</g>
</g>
<!-- Node1&#45;&gt;Node2 -->
<g id="edge1_Node000001_Node000002" class="edge">
<title>Node1&#45;&gt;Node2</title>
<g id="a_edge1_Node000001_Node000002"><a xlink:title=" ">
<path fill="none" stroke="#63b8ff" d="M179.04,-104.5C187.6,-104.5 196.25,-104.5 204.71,-104.5"/>
<polygon fill="#63b8ff" stroke="#63b8ff" points="204.92,-108 214.92,-104.5 204.92,-101 204.92,-108"/>
</a>
</g>
</g>
<!-- Node3 -->
<g id="Node000003" class="node">
<title>Node3</title>
<g id="a_Node000003"><a xlink:href="classBno08xHandler.html#a5669d8d3146a450430e5644b8d297de5" target="_top" xlink:title="Internal: apply configured sensor enables (assumes mutex is held).">
<polygon fill="white" stroke="#666666" points="559.5,-227.5 404.5,-227.5 404.5,-197.5 559.5,-197.5 559.5,-227.5"/>
<text text-anchor="start" x="412.5" y="-215.5" font-family="Helvetica,sans-Serif" font-size="10.00">Bno08xHandler::applyConfig</text>
<text text-anchor="middle" x="482" y="-204.5" font-family="Helvetica,sans-Serif" font-size="10.00">Locked</text>
</a>
</g>
</g>
<!-- Node2&#45;&gt;Node3 -->
<g id="edge2_Node000002_Node000003" class="edge">
<title>Node2&#45;&gt;Node3</title>
<g id="a_edge2_Node000002_Node000003"><a xlink:title=" ">
<path fill="none" stroke="#63b8ff" d="M295.17,-114.11C312.34,-131.53 351.2,-168.4 391,-188.5 394.82,-190.43 398.8,-192.21 402.89,-193.86"/>
<polygon fill="#63b8ff" stroke="#63b8ff" points="401.96,-197.25 412.55,-197.48 404.41,-190.7 401.96,-197.25"/>
</a>
</g>
</g>
<!-- Node5 -->
<g id="Node000005" class="node">
<title>Node5</title>
<g id="a_Node000005"><a xlink:href="classIBno08xDriverOps.html#a0ca90c1a5664ab3eb83f691aff34faa0" target="_top" xlink:title=" ">
<polygon fill="white" stroke="#666666" points="551.5,-179 412.5,-179 412.5,-160 551.5,-160 551.5,-179"/>
<text text-anchor="middle" x="482" y="-167" font-family="Helvetica,sans-Serif" font-size="10.00">IBno08xDriverOps::Begin</text>
</a>
</g>
</g>
<!-- Node2&#45;&gt;Node5 -->
<g id="edge4_Node000002_Node000005" class="edge">
<title>Node2&#45;&gt;Node5</title>
<g id="a_edge4_Node000002_Node000005"><a xlink:title=" ">
<path fill="none" stroke="#63b8ff" d="M304.52,-114C325.15,-124.26 359.73,-140.47 391,-150.5 399.29,-153.16 408.12,-155.55 416.9,-157.66"/>
<polygon fill="#63b8ff" stroke="#63b8ff" points="416.22,-161.09 426.75,-159.92 417.79,-154.27 416.22,-161.09"/>
</a>
</g>
</g>
<!-- Node6 -->
<g id="Node000006" class="node">
<title>Node6</title>
<g id="a_Node000006"><a xlink:href="classIBno08xDriverOps.html#a66418ccb85cd8eb8eea327fa979a2b6a" target="_top" xlink:title=" ">
<polygon fill="white" stroke="#666666" points="561,-141.5 403,-141.5 403,-111.5 561,-111.5 561,-141.5"/>
<text text-anchor="start" x="411" y="-129.5" font-family="Helvetica,sans-Serif" font-size="10.00">IBno08xDriverOps::Hardware</text>
<text text-anchor="middle" x="482" y="-118.5" font-family="Helvetica,sans-Serif" font-size="10.00">Reset</text>
</a>
</g>
</g>
<!-- Node2&#45;&gt;Node6 -->
<g id="edge5_Node000002_Node000006" class="edge">
<title>Node2&#45;&gt;Node6</title>
<g id="a_edge5_Node000002_Node000006"><a xlink:title=" ">
<path fill="none" stroke="#63b8ff" d="M355.02,-112.29C367.21,-113.66 380.05,-115.11 392.69,-116.54"/>
<polygon fill="#63b8ff" stroke="#63b8ff" points="392.43,-120.03 402.76,-117.67 393.21,-113.07 392.43,-120.03"/>
</a>
</g>
</g>
<!-- Node7 -->
<g id="Node000007" class="node">
<title>Node7</title>
<g id="a_Node000007"><a xlink:href="classIBno08xDriverOps.html#a1cfdc8fea4d31f36d9d8219b90beeae4" target="_top" xlink:title="Open the transport (bus + control GPIO setup) before reset or SH&#45;2.">
<polygon fill="white" stroke="#666666" points="573,-93 391,-93 391,-74 573,-74 573,-93"/>
<text text-anchor="middle" x="482" y="-81" font-family="Helvetica,sans-Serif" font-size="10.00">IBno08xDriverOps::OpenTransport</text>
</a>
</g>
</g>
<!-- Node2&#45;&gt;Node7 -->
<g id="edge6_Node000002_Node000007" class="edge">
<title>Node2&#45;&gt;Node7</title>
<g id="a_edge6_Node000002_Node000007"><a xlink:title=" ">
<path fill="none" stroke="#63b8ff" d="M355.02,-97.07C363.96,-96.1 373.24,-95.11 382.53,-94.1"/>
<polygon fill="#63b8ff" stroke="#63b8ff" points="383.03,-97.57 392.6,-93.02 382.28,-90.61 383.03,-97.57"/>
</a>
</g>
</g>
<!-- Node8 -->
<g id="Node000008" class="node">
<title>Node8</title>
<g id="a_Node000008"><a xlink:href="classIBno08xDriverOps.html#a35854a70ef94b79c9193d40459341864" target="_top" xlink:title=" ">
<polygon fill="white" stroke="#666666" points="564,-56 400,-56 400,-37 564,-37 564,-56"/>
<text text-anchor="middle" x="482" y="-44" font-family="Helvetica,sans-Serif" font-size="10.00">IBno08xDriverOps::SetBootPin</text>
</a>
</g>
</g>
<!-- Node2&#45;&gt;Node8 -->
<g id="edge7_Node000002_Node000008" class="edge">
<title>Node2&#45;&gt;Node8</title>
<g id="a_edge7_Node000002_Node000008"><a xlink:title=" ">
<path fill="none" stroke="#63b8ff" d="M308.62,-94.99C329.66,-86.41 362.05,-73.88 391,-65.5 400.11,-62.86 409.83,-60.43 419.4,-58.24"/>
<polygon fill="#63b8ff" stroke="#63b8ff" points="420.27,-61.63 429.27,-56.05 418.75,-54.8 420.27,-61.63"/>
</a>
</g>
</g>
<!-- Node9 -->
<g id="Node000009" class="node">
<title>Node9</title>
<g id="a_Node000009"><a xlink:href="classIBno08xDriverOps.html#a04816a487d80027e6d6fe435f651b265" target="_top" xlink:title=" ">
<polygon fill="white" stroke="#666666" points="566.5,-19 397.5,-19 397.5,0 566.5,0 566.5,-19"/>
<text text-anchor="middle" x="482" y="-7" font-family="Helvetica,sans-Serif" font-size="10.00">IBno08xDriverOps::SetCallback</text>
</a>
</g>
</g>
<!-- Node2&#45;&gt;Node9 -->
<g id="edge8_Node000002_Node000009" class="edge">
<title>Node2&#45;&gt;Node9</title>
<g id="a_edge8_Node000002_Node000009"><a xlink:title=" ">
<path fill="none" stroke="#63b8ff" d="M296.1,-94.89C313.83,-78.6 352.32,-45.65 391,-28.5 396.75,-25.95 402.86,-23.74 409.08,-21.82"/>
<polygon fill="#63b8ff" stroke="#63b8ff" points="410.25,-25.12 418.92,-19.03 408.34,-18.39 410.25,-25.12"/>
</a>
</g>
</g>
<!-- Node4 -->
<g id="Node000004" class="node">
<title>Node4</title>
<g id="a_Node000004"><a xlink:href="classIBno08xDriverOps.html#a1da5bdfd4c8d7fbd42475ae7ee37fb98" target="_top" xlink:title=" ">
<polygon fill="white" stroke="#666666" points="753,-227.5 609,-227.5 609,-197.5 753,-197.5 753,-227.5"/>
<text text-anchor="start" x="617" y="-215.5" font-family="Helvetica,sans-Serif" font-size="10.00">IBno08xDriverOps::Enable</text>
<text text-anchor="middle" x="681" y="-204.5" font-family="Helvetica,sans-Serif" font-size="10.00">Sensor</text>
</a>
</g>
</g>
<!-- Node3&#45;&gt;Node4 -->
<g id="edge3_Node000003_Node000004" class="edge">
<title>Node3&#45;&gt;Node4</title>
<g id="a_edge3_Node000003_Node000004"><a xlink:title=" ">
<path fill="none" stroke="#63b8ff" d="M559.73,-212.5C572.52,-212.5 585.82,-212.5 598.71,-212.5"/>
<polygon fill="#63b8ff" stroke="#63b8ff" points="598.95,-216 608.95,-212.5 598.95,-209 598.95,-216"/>
</a>
</g>
</g>
</g>
</svg>
