<?xml version="1.0" encoding="UTF-8" standalone="no"?>
<!DOCTYPE svg PUBLIC "-//W3C//DTD SVG 1.1//EN"
 "http://www.w3.org/Graphics/SVG/1.1/DTD/svg11.dtd">
<!-- Generated by graphviz version 2.43.0 (0)
 -->
<!-- Title: Max22200Handler::DumpDiagnostics Pages: 1 -->
<svg width="1163pt" height="206pt"
 viewBox="0.00 0.00 1163.00 206.00" xmlns="http://www.w3.org/2000/svg" xmlns:xlink="http://www.w3.org/1999/xlink">
<g id="graph0" class="graph" transform="scale(1 1) rotate(0) translate(4 202)">
<title>Max22200Handler::DumpDiagnostics</title>
<!-- Node1 -->
<g id="Node000001" class="node">
<title>Node1</title>
<g id="a_Node000001"><a xlink:title="Dump diagnostics to logger.">
<polygon fill="#999999" stroke="#666666" points="198,-195 0,-195 0,-176 198,-176 198,-195"/>
<text text-anchor="middle" x="99" y="-183" font-family="Helvetica,sans-Serif" font-size="10.00">Max22200Handler::DumpDiagnostics</text>
</a>
</g>
</g>
<!-- Node2 -->
<g id="Node000002" class="node">
<title>Node2</title>
<g id="a_Node000002"><a xlink:href="classMax22200Handler.html#aa00edacb247660349767fa4521121104" target="_top" xlink:title=" ">
<polygon fill="white" stroke="#666666" points="427,-179.5 234,-179.5 234,-149.5 427,-149.5 427,-179.5"/>
<text text-anchor="start" x="242" y="-167.5" font-family="Helvetica,sans-Serif" font-size="10.00">Max22200Handler::EnsureInitialized</text>
<text text-anchor="middle" x="330.5" y="-156.5" font-family="Helvetica,sans-Serif" font-size="10.00">Locked</text>
</a>
</g>
</g>
<!-- Node1&#45;&gt;Node2 -->
<g id="edge1_Node000001_Node000002" class="edge">
<title>Node1&#45;&gt;Node2</title>
<g id="a_edge1_Node000001_Node000002"><a xlink:title=" ">
<path fill="none" stroke="#63b8ff" d="M198.33,-176.5C206.81,-175.73 215.41,-174.94 223.95,-174.16"/>
<polygon fill="#63b8ff" stroke="#63b8ff" points="224.29,-177.64 233.93,-173.25 223.65,-170.67 224.29,-177.64"/>
</a>
</g>
</g>
<!-- Node7 -->
<g id="Node000007" class="node">
<title>Node7</title>
<g id="a_Node000007"><a xlink:href="classLogger.html#a5789d11f8f1356e2192c0023a089cbc4" target="_top" xlink:title="Get singleton instance.">
<polygon fill="white" stroke="#666666" points="959.5,-198 845.5,-198 845.5,-179 959.5,-179 959.5,-198"/>
<text text-anchor="middle" x="902.5" y="-186" font-family="Helvetica,sans-Serif" font-size="10.00">Logger::GetInstance</text>
</a>
</g>
</g>
<!-- Node1&#45;&gt;Node7 -->
<g id="edge18_Node000001_Node000007" class="edge">
<title>Node1&#45;&gt;Node7</title>
<g id="a_edge18_Node000001_Node000007"><a xlink:title=" ">
<path fill="none" stroke="#63b8ff" d="M198.06,-187.79C210.17,-188.04 222.37,-188.29 234,-188.5 486.42,-193.13 549.66,-202.1 802,-194.5 812.79,-194.17 824.24,-193.65 835.37,-193.05"/>
<polygon fill="#63b8ff" stroke="#63b8ff" points="835.7,-196.53 845.48,-192.47 835.3,-189.54 835.7,-196.53"/>
</a>
</g>
</g>
<!-- Node3 -->
<g id="Node000003" class="node">
<title>Node3</title>
<g id="a_Node000003"><a xlink:href="classLogger.html#adce17848a5844e053bfd314863dc1404" target="_top" xlink:title="Log error message.">
<polygon fill="white" stroke="#666666" points="767,-19 688,-19 688,0 767,0 767,-19"/>
<text text-anchor="middle" x="727.5" y="-7" font-family="Helvetica,sans-Serif" font-size="10.00">Logger::Error</text>
</a>
</g>
</g>
<!-- Node2&#45;&gt;Node3 -->
<g id="edge2_Node000002_Node000003" class="edge">
<title>Node2&#45;&gt;Node3</title>
<g id="a_edge2_Node000002_Node000003"><a xlink:title=" ">
<path fill="none" stroke="#63b8ff" d="M353.95,-149.25C379.49,-132.41 422.86,-105.32 463,-87.5 543.94,-51.57 567.73,-51.38 653,-27.5 661.09,-25.23 669.73,-22.98 678.14,-20.86"/>
<polygon fill="#63b8ff" stroke="#63b8ff" points="678.98,-24.26 687.85,-18.46 677.3,-17.47 678.98,-24.26"/>
</a>
</g>
</g>
<!-- Node2&#45;&gt;Node7 -->
<g id="edge6_Node000002_Node000007" class="edge">
<title>Node2&#45;&gt;Node7</title>
<g id="a_edge6_Node000002_Node000007"><a xlink:title=" ">
<path fill="none" stroke="#63b8ff" d="M427.23,-168.53C542.96,-173.4 734.68,-181.48 835.26,-185.71"/>
<polygon fill="#63b8ff" stroke="#63b8ff" points="835.15,-189.21 845.29,-186.13 835.45,-182.22 835.15,-189.21"/>
</a>
</g>
</g>
<!-- Node8 -->
<g id="Node000008" class="node">
<title>Node8</title>
<g id="a_Node000008"><a xlink:href="classMax22200Handler.html#a0dce05cd6639a10e52c0f669b72baf52" target="_top" xlink:title="Initialize driver (ENABLE HIGH, read/clear STATUS, set ACTIVE).">
<polygon fill="white" stroke="#666666" points="617,-116 463,-116 463,-97 617,-97 617,-116"/>
<text text-anchor="middle" x="540" y="-104" font-family="Helvetica,sans-Serif" font-size="10.00">Max22200Handler::Initialize</text>
</a>
</g>
</g>
<!-- Node2&#45;&gt;Node8 -->
<g id="edge7_Node000002_Node000008" class="edge">
<title>Node2&#45;&gt;Node8</title>
<g id="a_edge7_Node000002_Node000008"><a xlink:title=" ">
<path fill="none" stroke="#63b8ff" d="M385.21,-149.49C419.23,-139.98 462.69,-127.83 494.73,-118.87"/>
<polygon fill="#63b8ff" stroke="#63b8ff" points="496.02,-122.15 504.71,-116.09 494.13,-115.41 496.02,-122.15"/>
</a>
</g>
</g>
<!-- Node4 -->
<g id="Node000004" class="node">
<title>Node4</title>
<g id="a_Node000004"><a xlink:href="classLogger.html#af9e84e0ff6bd538e4f9ed8dcebc3e2f0" target="_top" xlink:title="Check if log level is enabled for tag.">
<polygon fill="white" stroke="#666666" points="967,-38 838,-38 838,-19 967,-19 967,-38"/>
<text text-anchor="middle" x="902.5" y="-26" font-family="Helvetica,sans-Serif" font-size="10.00">Logger::IsLevelEnabled</text>
</a>
</g>
</g>
<!-- Node3&#45;&gt;Node4 -->
<g id="edge3_Node000003_Node000004" class="edge">
<title>Node3&#45;&gt;Node4</title>
<g id="a_edge3_Node000003_Node000004"><a xlink:title=" ">
<path fill="none" stroke="#63b8ff" d="M767.32,-13.76C785.13,-15.72 806.86,-18.11 827.6,-20.38"/>
<polygon fill="#63b8ff" stroke="#63b8ff" points="827.36,-23.88 837.68,-21.49 828.12,-16.92 827.36,-23.88"/>
</a>
</g>
</g>
<!-- Node5 -->
<g id="Node000005" class="node">
<title>Node5</title>
<g id="a_Node000005"><a xlink:href="classLogger.html#a6adb205db597526fb91ad20067400394" target="_top" xlink:title="Internal logging method.">
<polygon fill="white" stroke="#666666" points="957.5,-75 847.5,-75 847.5,-56 957.5,-56 957.5,-75"/>
<text text-anchor="middle" x="902.5" y="-63" font-family="Helvetica,sans-Serif" font-size="10.00">Logger::LogInternal</text>
</a>
</g>
</g>
<!-- Node3&#45;&gt;Node5 -->
<g id="edge4_Node000003_Node000005" class="edge">
<title>Node3&#45;&gt;Node5</title>
<g id="a_edge4_Node000003_Node000005"><a xlink:title=" ">
<path fill="none" stroke="#63b8ff" d="M767.19,-17.1C778.58,-19.83 790.95,-23.3 802,-27.5 818.91,-33.92 821.25,-39.65 838,-46.5 843.53,-48.76 849.42,-50.88 855.31,-52.84"/>
<polygon fill="#63b8ff" stroke="#63b8ff" points="854.55,-56.27 865.14,-55.95 856.67,-49.59 854.55,-56.27"/>
</a>
</g>
</g>
<!-- Node6 -->
<g id="Node000006" class="node">
<title>Node6</title>
<g id="a_Node000006"><a xlink:href="namespaceanonymous__namespace_02Logger_8cpp_03.html#a9d2b496fa1b4f4e28667d14e4b8cb190" target="_top" xlink:title=" ">
<polygon fill="white" stroke="#666666" points="1155,-80.5 1003,-80.5 1003,-50.5 1155,-50.5 1155,-80.5"/>
<text text-anchor="start" x="1011" y="-68.5" font-family="Helvetica,sans-Serif" font-size="10.00">anonymous_namespace</text>
<text text-anchor="middle" x="1079" y="-57.5" font-family="Helvetica,sans-Serif" font-size="10.00">{Logger::cpp}::ToBaseLevel</text>
</a>
</g>
</g>
<!-- Node5&#45;&gt;Node6 -->
<g id="edge5_Node000005_Node000006" class="edge">
<title>Node5&#45;&gt;Node6</title>
<g id="a_edge5_Node000005_Node000006"><a xlink:title=" ">
<path fill="none" stroke="#63b8ff" d="M957.76,-65.5C968.93,-65.5 980.96,-65.5 992.93,-65.5"/>
<polygon fill="#63b8ff" stroke="#63b8ff" points="992.95,-69 1002.95,-65.5 992.95,-62 992.95,-69"/>
</a>
</g>
</g>
<!-- Node8&#45;&gt;Node3 -->
<g id="edge8_Node000008_Node000003" class="edge">
<title>Node8&#45;&gt;Node3</title>
<g id="a_edge8_Node000008_Node000003"><a xlink:title=" ">
<path fill="none" stroke="#63b8ff" d="M551.59,-96.93C570.53,-80.31 612.07,-46.13 653,-27.5 660.82,-23.94 669.44,-21.02 677.95,-18.65"/>
<polygon fill="#63b8ff" stroke="#63b8ff" points="679,-22 687.82,-16.12 677.26,-15.22 679,-22"/>
</a>
</g>
</g>
<!-- Node8&#45;&gt;Node7 -->
<g id="edge9_Node000008_Node000007" class="edge">
<title>Node8&#45;&gt;Node7</title>
<g id="a_edge9_Node000008_Node000007"><a xlink:title=" ">
<path fill="none" stroke="#63b8ff" d="M561.18,-116.01C583.26,-126.04 619.92,-141.59 653,-150.5 713.72,-166.85 784.8,-176.83 835.35,-182.44"/>
<polygon fill="#63b8ff" stroke="#63b8ff" points="835.18,-185.94 845.5,-183.53 835.93,-178.98 835.18,-185.94"/>
</a>
</g>
</g>
<!-- Node9 -->
<g id="Node000009" class="node">
<title>Node9</title>
<g id="a_Node000009"><a xlink:href="classLogger.html#a4681229c521795685fc14f6b55c82300" target="_top" xlink:title="Log info message.">
<polygon fill="white" stroke="#666666" points="764.5,-56 690.5,-56 690.5,-37 764.5,-37 764.5,-56"/>
<text text-anchor="middle" x="727.5" y="-44" font-family="Helvetica,sans-Serif" font-size="10.00">Logger::Info</text>
</a>
</g>
</g>
<!-- Node8&#45;&gt;Node9 -->
<g id="edge10_Node000008_Node000009" class="edge">
<title>Node8&#45;&gt;Node9</title>
<g id="a_edge10_Node000008_Node000009"><a xlink:title=" ">
<path fill="none" stroke="#63b8ff" d="M564.32,-96.83C586.78,-87.74 621.85,-74.12 653,-64.5 661.85,-61.77 671.4,-59.18 680.59,-56.85"/>
<polygon fill="#63b8ff" stroke="#63b8ff" points="681.5,-60.23 690.38,-54.44 679.83,-53.44 681.5,-60.23"/>
</a>
</g>
</g>
<!-- Node10 -->
<g id="Node000010" class="node">
<title>Node10</title>
<g id="a_Node000010"><a xlink:href="classMax22200Handler.html#a46a1ed5c96b117192f0cae05c4f9627b" target="_top" xlink:title="Bring the chip from POR through to a verified ACTIVE=1, UVM=0 state, then drain POR&#45;latched fault bit...">
<polygon fill="white" stroke="#666666" points="802,-141.5 653,-141.5 653,-111.5 802,-111.5 802,-141.5"/>
<text text-anchor="start" x="661" y="-129.5" font-family="Helvetica,sans-Serif" font-size="10.00">Max22200Handler::WaitFor</text>
<text text-anchor="middle" x="727.5" y="-118.5" font-family="Helvetica,sans-Serif" font-size="10.00">ActiveAndDrainFaults</text>
</a>
</g>
</g>
<!-- Node8&#45;&gt;Node10 -->
<g id="edge13_Node000008_Node000010" class="edge">
<title>Node8&#45;&gt;Node10</title>
<g id="a_edge13_Node000008_Node000010"><a xlink:title=" ">
<path fill="none" stroke="#63b8ff" d="M617.25,-114.72C625.73,-115.64 634.39,-116.57 642.95,-117.49"/>
<polygon fill="#63b8ff" stroke="#63b8ff" points="642.62,-120.98 652.93,-118.57 643.37,-114.02 642.62,-120.98"/>
</a>
</g>
</g>
<!-- Node11 -->
<g id="Node000011" class="node">
<title>Node11</title>
<g id="a_Node000011"><a xlink:href="classLogger.html#aaa95ffa14d07a965d4a85bdec82cba26" target="_top" xlink:title="Log warning message.">
<polygon fill="white" stroke="#666666" points="767.5,-93 687.5,-93 687.5,-74 767.5,-74 767.5,-93"/>
<text text-anchor="middle" x="727.5" y="-81" font-family="Helvetica,sans-Serif" font-size="10.00">Logger::Warn</text>
</a>
</g>
</g>
<!-- Node8&#45;&gt;Node11 -->
<g id="edge15_Node000008_Node000011" class="edge">
<title>Node8&#45;&gt;Node11</title>
<g id="a_edge15_Node000008_Node000011"><a xlink:title=" ">
<path fill="none" stroke="#63b8ff" d="M617.25,-97.05C637.48,-94.54 658.79,-91.9 677.16,-89.62"/>
<polygon fill="#63b8ff" stroke="#63b8ff" points="677.83,-93.06 687.32,-88.36 676.97,-86.11 677.83,-93.06"/>
</a>
</g>
</g>
<!-- Node9&#45;&gt;Node4 -->
<g id="edge11_Node000009_Node000004" class="edge">
<title>Node9&#45;&gt;Node4</title>
<g id="a_edge11_Node000009_Node000004"><a xlink:title=" ">
<path fill="none" stroke="#63b8ff" d="M764.77,-42.73C782.99,-40.83 805.75,-38.46 827.45,-36.2"/>
<polygon fill="#63b8ff" stroke="#63b8ff" points="828.08,-39.66 837.66,-35.14 827.35,-32.7 828.08,-39.66"/>
</a>
</g>
</g>
<!-- Node9&#45;&gt;Node5 -->
<g id="edge12_Node000009_Node000005" class="edge">
<title>Node9&#45;&gt;Node5</title>
<g id="a_edge12_Node000009_Node000005"><a xlink:title=" ">
<path fill="none" stroke="#63b8ff" d="M764.77,-50.48C785.75,-52.79 812.78,-55.76 837.25,-58.44"/>
<polygon fill="#63b8ff" stroke="#63b8ff" points="836.88,-61.92 847.2,-59.54 837.64,-54.97 836.88,-61.92"/>
</a>
</g>
</g>
<!-- Node10&#45;&gt;Node7 -->
<g id="edge14_Node000010_Node000007" class="edge">
<title>Node10&#45;&gt;Node7</title>
<g id="a_edge14_Node000010_Node000007"><a xlink:title=" ">
<path fill="none" stroke="#63b8ff" d="M770.38,-141.51C799.32,-151.88 837.45,-165.55 865.12,-175.46"/>
<polygon fill="#63b8ff" stroke="#63b8ff" points="864.21,-178.86 874.81,-178.93 866.58,-172.27 864.21,-178.86"/>
</a>
</g>
</g>
<!-- Node11&#45;&gt;Node4 -->
<g id="edge16_Node000011_Node000004" class="edge">
<title>Node11&#45;&gt;Node4</title>
<g id="a_edge16_Node000011_Node000004"><a xlink:title=" ">
<path fill="none" stroke="#63b8ff" d="M767.5,-75.04C778.78,-72.16 791.01,-68.61 802,-64.5 818.75,-58.23 821.32,-52.97 838,-46.5 843.07,-44.53 848.45,-42.67 853.85,-40.95"/>
<polygon fill="#63b8ff" stroke="#63b8ff" points="854.96,-44.27 863.51,-38.01 852.92,-37.58 854.96,-44.27"/>
</a>
</g>
</g>
<!-- Node11&#45;&gt;Node5 -->
<g id="edge17_Node000011_Node000005" class="edge">
<title>Node11&#45;&gt;Node5</title>
<g id="a_edge17_Node000011_Node000005"><a xlink:title=" ">
<path fill="none" stroke="#63b8ff" d="M767.76,-79.42C788.25,-77.28 813.85,-74.62 837.15,-72.2"/>
<polygon fill="#63b8ff" stroke="#63b8ff" points="837.73,-75.65 847.32,-71.14 837.01,-68.69 837.73,-75.65"/>
</a>
</g>
</g>
</g>
</svg>
