<?xml version="1.0" encoding="UTF-8" standalone="no"?>
<!DOCTYPE svg PUBLIC "-//W3C//DTD SVG 1.1//EN"
 "http://www.w3.org/Graphics/SVG/1.1/DTD/svg11.dtd">
<!-- Generated by graphviz version 2.43.0 (0)
 -->
<!-- Title: Bno08xHandler Pages: 1 -->
<svg width="250pt" height="170pt"
 viewBox="0.00 0.00 250.00 170.00" xmlns="http://www.w3.org/2000/svg" xmlns:xlink="http://www.w3.org/1999/xlink">
<g id="graph0" class="graph" transform="scale(1 1) rotate(0) translate(4 166)">
<title>Bno08xHandler</title>
<!-- Node1 -->
<g id="Node000001" class="node">
<title>Node1</title>
<g id="a_Node000001"><a xlink:title="Unified handler for BNO08x IMU sensor family.">
<polygon fill="#999999" stroke="#666666" points="204,-19 112,-19 112,0 204,0 204,-19"/>
<text text-anchor="middle" x="158" y="-7" font-family="Helvetica,sans-Serif" font-size="10.00">Bno08xHandler</text>
</a>
</g>
</g>
<!-- Node2 -->
<g id="Node000002" class="node">
<title>Node2</title>
<g id="a_Node000002"><a xlink:title=" ">
<polygon fill="white" stroke="#666666" points="140,-96 0,-96 0,-66 140,-66 140,-96"/>
<text text-anchor="start" x="8" y="-84" font-family="Helvetica,sans-Serif" font-size="10.00">std::unique_ptr&lt; IBno08x</text>
<text text-anchor="middle" x="70" y="-73" font-family="Helvetica,sans-Serif" font-size="10.00">DriverOps &gt;</text>
</a>
</g>
</g>
<!-- Node2&#45;&gt;Node1 -->
<g id="edge1_Node000001_Node000002" class="edge">
<title>Node2&#45;&gt;Node1</title>
<g id="a_edge1_Node000001_Node000002"><a xlink:title=" ">
<path fill="none" stroke="#9a32cd" stroke-dasharray="5,2" d="M88.38,-58.26C95.08,-51.03 102.99,-43.23 111,-37 119.87,-30.1 130.75,-23.84 139.81,-19.15"/>
<polygon fill="#9a32cd" stroke="#9a32cd" points="85.69,-56.01 81.63,-65.79 90.91,-60.68 85.69,-56.01"/>
</a>
</g>
<text text-anchor="middle" x="141" y="-40" font-family="Helvetica,sans-Serif" font-size="10.00" fill="grey"> driver_ops_</text>
</g>
<!-- Node3 -->
<g id="Node000003" class="node">
<title>Node3</title>
<g id="a_Node000003"><a xlink:href="classIBno08xDriverOps.html" target="_top" xlink:title="Internal abstract interface for type&#45;erasing the BNO085&lt;CommType&gt; template.">
<polygon fill="white" stroke="#666666" points="122.5,-162 17.5,-162 17.5,-143 122.5,-143 122.5,-162"/>
<text text-anchor="middle" x="70" y="-150" font-family="Helvetica,sans-Serif" font-size="10.00">IBno08xDriverOps</text>
</a>
</g>
</g>
<!-- Node3&#45;&gt;Node2 -->
<g id="edge2_Node000002_Node000003" class="edge">
<title>Node3&#45;&gt;Node2</title>
<g id="a_edge2_Node000002_Node000003"><a xlink:title=" ">
<path fill="none" stroke="#9a32cd" stroke-dasharray="5,2" d="M70,-132.71C70,-121.19 70,-106.68 70,-96.14"/>
<polygon fill="#9a32cd" stroke="#9a32cd" points="66.5,-132.98 70,-142.98 73.5,-132.98 66.5,-132.98"/>
</a>
</g>
<text text-anchor="middle" x="78.5" y="-117" font-family="Helvetica,sans-Serif" font-size="10.00" fill="grey"> ptr</text>
</g>
<!-- Node4 -->
<g id="Node000004" class="node">
<title>Node4</title>
<g id="a_Node000004"><a xlink:href="structBno08xConfig.html" target="_top" xlink:title="BNO08x configuration structure.">
<polygon fill="white" stroke="#666666" points="242,-90.5 158,-90.5 158,-71.5 242,-71.5 242,-90.5"/>
<text text-anchor="middle" x="200" y="-78.5" font-family="Helvetica,sans-Serif" font-size="10.00">Bno08xConfig</text>
</a>
</g>
</g>
<!-- Node4&#45;&gt;Node1 -->
<g id="edge3_Node000001_Node000004" class="edge">
<title>Node4&#45;&gt;Node1</title>
<g id="a_edge3_Node000001_Node000004"><a xlink:title=" ">
<path fill="none" stroke="#9a32cd" stroke-dasharray="5,2" d="M189.63,-62.84C181.23,-48.95 169.76,-29.96 163.19,-19.09"/>
<polygon fill="#9a32cd" stroke="#9a32cd" points="186.68,-64.73 194.85,-71.48 192.67,-61.11 186.68,-64.73"/>
</a>
</g>
<text text-anchor="middle" x="199" y="-40" font-family="Helvetica,sans-Serif" font-size="10.00" fill="grey"> config_</text>
</g>
</g>
</svg>
