<?xml version="1.0" encoding="UTF-8" standalone="no"?>
<!DOCTYPE svg PUBLIC "-//W3C//DTD SVG 1.1//EN"
 "http://www.w3.org/Graphics/SVG/1.1/DTD/svg11.dtd">
<!-- Generated by graphviz version 2.43.0 (0)
 -->
<!-- Title: Tmc9660Handler::visitDriver Pages: 1 -->
<svg width="1075pt" height="113pt"
 viewBox="0.00 0.00 1075.00 112.50" xmlns="http://www.w3.org/2000/svg" xmlns:xlink="http://www.w3.org/1999/xlink">
<g id="graph0" class="graph" transform="scale(1 1) rotate(0) translate(4 108.5)">
<title>Tmc9660Handler::visitDriver</title>
<!-- Node1 -->
<g id="Node000001" class="node">
<title>Node1</title>
<g id="a_Node000001"><a xlink:title="Execute a function on the underlying typed TMC9660 driver.">
<polygon fill="#999999" stroke="#666666" points="157,-45.5 0,-45.5 0,-26.5 157,-26.5 157,-45.5"/>
<text text-anchor="middle" x="78.5" y="-33.5" font-family="Helvetica,sans-Serif" font-size="10.00">Tmc9660Handler::visitDriver</text>
</a>
</g>
</g>
<!-- Node2 -->
<g id="Node000002" class="node">
<title>Node2</title>
<g id="a_Node000002"><a xlink:href="classTmc9660Handler.html#a7c1d8073576d678b09dac24c9eb12845" target="_top" xlink:title="Ensure initialized while handler_mutex_ is already held.">
<polygon fill="white" stroke="#666666" points="380,-51 193,-51 193,-21 380,-21 380,-51"/>
<text text-anchor="start" x="201" y="-39" font-family="Helvetica,sans-Serif" font-size="10.00">Tmc9660Handler::EnsureInitialized</text>
<text text-anchor="middle" x="286.5" y="-28" font-family="Helvetica,sans-Serif" font-size="10.00">Locked</text>
</a>
</g>
</g>
<!-- Node1&#45;&gt;Node2 -->
<g id="edge1_Node000001_Node000002" class="edge">
<title>Node1&#45;&gt;Node2</title>
<g id="a_edge1_Node000001_Node000002"><a xlink:title=" ">
<path fill="none" stroke="#63b8ff" d="M157.09,-36C165.45,-36 174.05,-36 182.65,-36"/>
<polygon fill="#63b8ff" stroke="#63b8ff" points="182.72,-39.5 192.72,-36 182.72,-32.5 182.72,-39.5"/>
</a>
</g>
</g>
<!-- Node3 -->
<g id="Node000003" class="node">
<title>Node3</title>
<g id="a_Node000003"><a xlink:href="classTmc9660Handler.html#adc564847f8ae26c47412aaee0758991c" target="_top" xlink:title="Initialize the TMC9660 device.">
<polygon fill="white" stroke="#666666" points="564,-67.5 416,-67.5 416,-48.5 564,-48.5 564,-67.5"/>
<text text-anchor="middle" x="490" y="-55.5" font-family="Helvetica,sans-Serif" font-size="10.00">Tmc9660Handler::Initialize</text>
</a>
</g>
</g>
<!-- Node2&#45;&gt;Node3 -->
<g id="edge2_Node000002_Node000003" class="edge">
<title>Node2&#45;&gt;Node3</title>
<g id="a_edge2_Node000002_Node000003"><a xlink:title=" ">
<path fill="none" stroke="#63b8ff" d="M380.29,-46.13C388.73,-47.05 397.25,-47.98 405.61,-48.9"/>
<polygon fill="#63b8ff" stroke="#63b8ff" points="405.38,-52.39 415.7,-50 406.14,-45.43 405.38,-52.39"/>
</a>
</g>
</g>
<!-- Node10 -->
<g id="Node000010" class="node">
<title>Node10</title>
<g id="a_Node000010"><a xlink:href="classTmc9660Handler.html#a13db97d201a287d8aa60384e04070b9f" target="_top" xlink:title="Check if the TMC9660 driver has been initialized and is ready.">
<polygon fill="white" stroke="#666666" points="562,-30 418,-30 418,0 562,0 562,-30"/>
<text text-anchor="start" x="426" y="-18" font-family="Helvetica,sans-Serif" font-size="10.00">Tmc9660Handler::IsDriver</text>
<text text-anchor="middle" x="490" y="-7" font-family="Helvetica,sans-Serif" font-size="10.00">Ready</text>
</a>
</g>
</g>
<!-- Node2&#45;&gt;Node10 -->
<g id="edge11_Node000002_Node000010" class="edge">
<title>Node2&#45;&gt;Node10</title>
<g id="a_edge11_Node000002_Node000010"><a xlink:title=" ">
<path fill="none" stroke="#63b8ff" d="M380.29,-26.33C389.44,-25.38 398.69,-24.41 407.71,-23.47"/>
<polygon fill="#63b8ff" stroke="#63b8ff" points="408.21,-26.94 417.8,-22.42 407.49,-19.98 408.21,-26.94"/>
</a>
</g>
</g>
<!-- Node4 -->
<g id="Node000004" class="node">
<title>Node4</title>
<g id="a_Node000004"><a xlink:href="classLogger.html#adce17848a5844e053bfd314863dc1404" target="_top" xlink:title="Log error message.">
<polygon fill="white" stroke="#666666" points="696.5,-67.5 617.5,-67.5 617.5,-48.5 696.5,-48.5 696.5,-67.5"/>
<text text-anchor="middle" x="657" y="-55.5" font-family="Helvetica,sans-Serif" font-size="10.00">Logger::Error</text>
</a>
</g>
</g>
<!-- Node3&#45;&gt;Node4 -->
<g id="edge3_Node000003_Node000004" class="edge">
<title>Node3&#45;&gt;Node4</title>
<g id="a_edge3_Node000003_Node000004"><a xlink:title=" ">
<path fill="none" stroke="#63b8ff" d="M564.33,-58C578.73,-58 593.5,-58 606.87,-58"/>
<polygon fill="#63b8ff" stroke="#63b8ff" points="607.26,-61.5 617.26,-58 607.26,-54.5 607.26,-61.5"/>
</a>
</g>
</g>
<!-- Node8 -->
<g id="Node000008" class="node">
<title>Node8</title>
<g id="a_Node000008"><a xlink:href="classLogger.html#a5789d11f8f1356e2192c0023a089cbc4" target="_top" xlink:title="Get singleton instance.">
<polygon fill="white" stroke="#666666" points="714,-30.5 600,-30.5 600,-11.5 714,-11.5 714,-30.5"/>
<text text-anchor="middle" x="657" y="-18.5" font-family="Helvetica,sans-Serif" font-size="10.00">Logger::GetInstance</text>
</a>
</g>
</g>
<!-- Node3&#45;&gt;Node8 -->
<g id="edge7_Node000003_Node000008" class="edge">
<title>Node3&#45;&gt;Node8</title>
<g id="a_edge7_Node000003_Node000008"><a xlink:title=" ">
<path fill="none" stroke="#63b8ff" d="M533.49,-48.47C554.87,-43.68 580.97,-37.82 603.58,-32.75"/>
<polygon fill="#63b8ff" stroke="#63b8ff" points="604.37,-36.16 613.37,-30.56 602.84,-29.33 604.37,-36.16"/>
</a>
</g>
</g>
<!-- Node9 -->
<g id="Node000009" class="node">
<title>Node9</title>
<g id="a_Node000009"><a xlink:href="classLogger.html#a4681229c521795685fc14f6b55c82300" target="_top" xlink:title="Log info message.">
<polygon fill="white" stroke="#666666" points="694,-104.5 620,-104.5 620,-85.5 694,-85.5 694,-104.5"/>
<text text-anchor="middle" x="657" y="-92.5" font-family="Helvetica,sans-Serif" font-size="10.00">Logger::Info</text>
</a>
</g>
</g>
<!-- Node3&#45;&gt;Node9 -->
<g id="edge8_Node000003_Node000009" class="edge">
<title>Node3&#45;&gt;Node9</title>
<g id="a_edge8_Node000003_Node000009"><a xlink:title=" ">
<path fill="none" stroke="#63b8ff" d="M533.49,-67.53C556.89,-72.77 585.94,-79.29 609.89,-84.66"/>
<polygon fill="#63b8ff" stroke="#63b8ff" points="609.28,-88.11 619.8,-86.88 610.81,-81.28 609.28,-88.11"/>
</a>
</g>
</g>
<!-- Node5 -->
<g id="Node000005" class="node">
<title>Node5</title>
<g id="a_Node000005"><a xlink:href="classLogger.html#af9e84e0ff6bd538e4f9ed8dcebc3e2f0" target="_top" xlink:title="Check if log level is enabled for tag.">
<polygon fill="white" stroke="#666666" points="879,-104.5 750,-104.5 750,-85.5 879,-85.5 879,-104.5"/>
<text text-anchor="middle" x="814.5" y="-92.5" font-family="Helvetica,sans-Serif" font-size="10.00">Logger::IsLevelEnabled</text>
</a>
</g>
</g>
<!-- Node4&#45;&gt;Node5 -->
<g id="edge4_Node000004_Node000005" class="edge">
<title>Node4&#45;&gt;Node5</title>
<g id="a_edge4_Node000004_Node000005"><a xlink:title=" ">
<path fill="none" stroke="#63b8ff" d="M696.84,-67.24C717.03,-72.05 741.94,-77.97 763.55,-83.11"/>
<polygon fill="#63b8ff" stroke="#63b8ff" points="763,-86.58 773.53,-85.49 764.62,-79.77 763,-86.58"/>
</a>
</g>
</g>
<!-- Node6 -->
<g id="Node000006" class="node">
<title>Node6</title>
<g id="a_Node000006"><a xlink:href="classLogger.html#a6adb205db597526fb91ad20067400394" target="_top" xlink:title="Internal logging method.">
<polygon fill="white" stroke="#666666" points="869.5,-67.5 759.5,-67.5 759.5,-48.5 869.5,-48.5 869.5,-67.5"/>
<text text-anchor="middle" x="814.5" y="-55.5" font-family="Helvetica,sans-Serif" font-size="10.00">Logger::LogInternal</text>
</a>
</g>
</g>
<!-- Node4&#45;&gt;Node6 -->
<g id="edge5_Node000004_Node000006" class="edge">
<title>Node4&#45;&gt;Node6</title>
<g id="a_edge5_Node000004_Node000006"><a xlink:title=" ">
<path fill="none" stroke="#63b8ff" d="M696.84,-58C712.63,-58 731.31,-58 749.03,-58"/>
<polygon fill="#63b8ff" stroke="#63b8ff" points="749.33,-61.5 759.33,-58 749.33,-54.5 749.33,-61.5"/>
</a>
</g>
</g>
<!-- Node7 -->
<g id="Node000007" class="node">
<title>Node7</title>
<g id="a_Node000007"><a xlink:href="namespaceanonymous__namespace_02Logger_8cpp_03.html#a9d2b496fa1b4f4e28667d14e4b8cb190" target="_top" xlink:title=" ">
<polygon fill="white" stroke="#666666" points="1067,-73 915,-73 915,-43 1067,-43 1067,-73"/>
<text text-anchor="start" x="923" y="-61" font-family="Helvetica,sans-Serif" font-size="10.00">anonymous_namespace</text>
<text text-anchor="middle" x="991" y="-50" font-family="Helvetica,sans-Serif" font-size="10.00">{Logger::cpp}::ToBaseLevel</text>
</a>
</g>
</g>
<!-- Node6&#45;&gt;Node7 -->
<g id="edge6_Node000006_Node000007" class="edge">
<title>Node6&#45;&gt;Node7</title>
<g id="a_edge6_Node000006_Node000007"><a xlink:title=" ">
<path fill="none" stroke="#63b8ff" d="M869.76,-58C880.93,-58 892.96,-58 904.93,-58"/>
<polygon fill="#63b8ff" stroke="#63b8ff" points="904.95,-61.5 914.95,-58 904.95,-54.5 904.95,-61.5"/>
</a>
</g>
</g>
<!-- Node9&#45;&gt;Node5 -->
<g id="edge9_Node000009_Node000005" class="edge">
<title>Node9&#45;&gt;Node5</title>
<g id="a_edge9_Node000009_Node000005"><a xlink:title=" ">
<path fill="none" stroke="#63b8ff" d="M694.07,-95C707.68,-95 723.72,-95 739.55,-95"/>
<polygon fill="#63b8ff" stroke="#63b8ff" points="739.89,-98.5 749.89,-95 739.89,-91.5 739.89,-98.5"/>
</a>
</g>
</g>
<!-- Node9&#45;&gt;Node6 -->
<g id="edge10_Node000009_Node000006" class="edge">
<title>Node9&#45;&gt;Node6</title>
<g id="a_edge10_Node000009_Node000006"><a xlink:title=" ">
<path fill="none" stroke="#63b8ff" d="M694.07,-86.42C714.78,-81.49 741.09,-75.23 763.74,-69.84"/>
<polygon fill="#63b8ff" stroke="#63b8ff" points="764.61,-73.23 773.53,-67.51 762.99,-66.42 764.61,-73.23"/>
</a>
</g>
</g>
</g>
</svg>
