<?xml version="1.0" encoding="UTF-8" standalone="no"?>
<!DOCTYPE svg PUBLIC "-//W3C//DTD SVG 1.1//EN"
 "http://www.w3.org/Graphics/SVG/1.1/DTD/svg11.dtd">
<!-- Generated by graphviz version 2.43.0 (0)
 -->
<!-- Title: Tmc9660Handler::adc Pages: 1 -->
<svg width="1076pt" height="146pt"
 viewBox="0.00 0.00 1076.00 146.00" xmlns="http://www.w3.org/2000/svg" xmlns:xlink="http://www.w3.org/1999/xlink">
<g id="graph0" class="graph" transform="scale(1 1) rotate(0) translate(4 142)">
<title>Tmc9660Handler::adc</title>
<!-- Node1 -->
<g id="Node000001" class="node">
<title>Node1</title>
<g id="a_Node000001"><a xlink:title="Get a reference to the ADC wrapper.">
<polygon fill="#999999" stroke="#666666" points="123,-19 0,-19 0,0 123,0 123,-19"/>
<text text-anchor="middle" x="61.5" y="-7" font-family="Helvetica,sans-Serif" font-size="10.00">Tmc9660Handler::adc</text>
</a>
</g>
</g>
<!-- Node2 -->
<g id="Node000002" class="node">
<title>Node2</title>
<g id="a_Node000002"><a xlink:href="classTmc9660Handler.html#a5a279ae9d4b5a8e0d71cb24577ad88ea" target="_top" xlink:title="Ensure driver is initialized (lazy init entrypoint).">
<polygon fill="white" stroke="#666666" points="346,-38 159,-38 159,-19 346,-19 346,-38"/>
<text text-anchor="middle" x="252.5" y="-26" font-family="Helvetica,sans-Serif" font-size="10.00">Tmc9660Handler::EnsureInitialized</text>
</a>
</g>
</g>
<!-- Node1&#45;&gt;Node2 -->
<g id="edge1_Node000001_Node000002" class="edge">
<title>Node1&#45;&gt;Node2</title>
<g id="a_edge1_Node000001_Node000002"><a xlink:title=" ">
<path fill="none" stroke="#63b8ff" d="M123.08,-15.59C131.4,-16.43 140.12,-17.3 148.93,-18.19"/>
<polygon fill="#63b8ff" stroke="#63b8ff" points="148.6,-21.67 158.9,-19.19 149.3,-14.71 148.6,-21.67"/>
</a>
</g>
</g>
<!-- Node11 -->
<g id="Node000011" class="node">
<title>Node11</title>
<g id="a_Node000011"><a xlink:href="classTmc9660Handler.html#a393382194d0602e7aa02da6a8fd7a20a" target="_top" xlink:title="Get a reference to the Temperature wrapper.">
<polygon fill="white" stroke="#666666" points="559,-19 392,-19 392,0 559,0 559,-19"/>
<text text-anchor="middle" x="475.5" y="-7" font-family="Helvetica,sans-Serif" font-size="10.00">Tmc9660Handler::temperature</text>
</a>
</g>
</g>
<!-- Node1&#45;&gt;Node11 -->
<g id="edge15_Node000001_Node000011" class="edge">
<title>Node1&#45;&gt;Node11</title>
<g id="a_edge15_Node000001_Node000011"><a xlink:title=" ">
<path fill="none" stroke="#63b8ff" d="M123.29,-9.5C191.31,-9.5 302.29,-9.5 381.29,-9.5"/>
<polygon fill="#63b8ff" stroke="#63b8ff" points="381.73,-13 391.73,-9.5 381.73,-6 381.73,-13"/>
</a>
</g>
</g>
<!-- Node3 -->
<g id="Node000003" class="node">
<title>Node3</title>
<g id="a_Node000003"><a xlink:href="classTmc9660Handler.html#a7c1d8073576d678b09dac24c9eb12845" target="_top" xlink:title="Ensure initialized while handler_mutex_ is already held.">
<polygon fill="white" stroke="#666666" points="569,-85.5 382,-85.5 382,-55.5 569,-55.5 569,-85.5"/>
<text text-anchor="start" x="390" y="-73.5" font-family="Helvetica,sans-Serif" font-size="10.00">Tmc9660Handler::EnsureInitialized</text>
<text text-anchor="middle" x="475.5" y="-62.5" font-family="Helvetica,sans-Serif" font-size="10.00">Locked</text>
</a>
</g>
</g>
<!-- Node2&#45;&gt;Node3 -->
<g id="edge2_Node000002_Node000003" class="edge">
<title>Node2&#45;&gt;Node3</title>
<g id="a_edge2_Node000002_Node000003"><a xlink:title=" ">
<path fill="none" stroke="#63b8ff" d="M303.65,-38.03C327.81,-42.62 357.52,-48.27 385.35,-53.56"/>
<polygon fill="#63b8ff" stroke="#63b8ff" points="385.03,-57.06 395.51,-55.49 386.34,-50.18 385.03,-57.06"/>
</a>
</g>
</g>
<!-- Node2&#45;&gt;Node11 -->
<g id="edge12_Node000002_Node000011" class="edge">
<title>Node2&#45;&gt;Node11</title>
<g id="a_edge12_Node000002_Node000011"><a xlink:title=" ">
<path fill="none" stroke="#63b8ff" d="M299.29,-18.97C323.15,-15.95 353.23,-13 381.7,-10.81"/>
<polygon fill="#63b8ff" stroke="#63b8ff" points="381.98,-14.29 391.69,-10.06 381.46,-7.31 381.98,-14.29"/>
</a>
</g>
</g>
<!-- Node4 -->
<g id="Node000004" class="node">
<title>Node4</title>
<g id="a_Node000004"><a xlink:href="classTmc9660Handler.html#adc564847f8ae26c47412aaee0758991c" target="_top" xlink:title="Initialize the TMC9660 device.">
<polygon fill="white" stroke="#666666" points="753,-101 605,-101 605,-82 753,-82 753,-101"/>
<text text-anchor="middle" x="679" y="-89" font-family="Helvetica,sans-Serif" font-size="10.00">Tmc9660Handler::Initialize</text>
</a>
</g>
</g>
<!-- Node3&#45;&gt;Node4 -->
<g id="edge3_Node000003_Node000004" class="edge">
<title>Node3&#45;&gt;Node4</title>
<g id="a_edge3_Node000003_Node000004"><a xlink:title=" ">
<path fill="none" stroke="#63b8ff" d="M569.29,-80.17C577.73,-81.05 586.25,-81.94 594.61,-82.81"/>
<polygon fill="#63b8ff" stroke="#63b8ff" points="594.39,-86.31 604.7,-83.86 595.12,-79.34 594.39,-86.31"/>
</a>
</g>
</g>
<!-- Node10 -->
<g id="Node000010" class="node">
<title>Node10</title>
<g id="a_Node000010"><a xlink:href="classTmc9660Handler.html#a13db97d201a287d8aa60384e04070b9f" target="_top" xlink:title="Check if the TMC9660 driver has been initialized and is ready.">
<polygon fill="white" stroke="#666666" points="751,-63.5 607,-63.5 607,-33.5 751,-33.5 751,-63.5"/>
<text text-anchor="start" x="615" y="-51.5" font-family="Helvetica,sans-Serif" font-size="10.00">Tmc9660Handler::IsDriver</text>
<text text-anchor="middle" x="679" y="-40.5" font-family="Helvetica,sans-Serif" font-size="10.00">Ready</text>
</a>
</g>
</g>
<!-- Node3&#45;&gt;Node10 -->
<g id="edge11_Node000003_Node000010" class="edge">
<title>Node3&#45;&gt;Node10</title>
<g id="a_edge11_Node000003_Node000010"><a xlink:title=" ">
<path fill="none" stroke="#63b8ff" d="M569.29,-60.37C578.44,-59.37 587.69,-58.36 596.71,-57.37"/>
<polygon fill="#63b8ff" stroke="#63b8ff" points="597.24,-60.84 606.8,-56.27 596.48,-53.88 597.24,-60.84"/>
</a>
</g>
</g>
<!-- Node5 -->
<g id="Node000005" class="node">
<title>Node5</title>
<g id="a_Node000005"><a xlink:href="classLogger.html#adce17848a5844e053bfd314863dc1404" target="_top" xlink:title="Log error message.">
<polygon fill="white" stroke="#666666" points="885.5,-101 806.5,-101 806.5,-82 885.5,-82 885.5,-101"/>
<text text-anchor="middle" x="846" y="-89" font-family="Helvetica,sans-Serif" font-size="10.00">Logger::Error</text>
</a>
</g>
</g>
<!-- Node4&#45;&gt;Node5 -->
<g id="edge4_Node000004_Node000005" class="edge">
<title>Node4&#45;&gt;Node5</title>
<g id="a_edge4_Node000004_Node000005"><a xlink:title=" ">
<path fill="none" stroke="#63b8ff" d="M753.33,-91.5C767.73,-91.5 782.5,-91.5 795.87,-91.5"/>
<polygon fill="#63b8ff" stroke="#63b8ff" points="796.26,-95 806.26,-91.5 796.26,-88 796.26,-95"/>
</a>
</g>
</g>
<!-- Node8 -->
<g id="Node000008" class="node">
<title>Node8</title>
<g id="a_Node000008"><a xlink:href="classLogger.html#a5789d11f8f1356e2192c0023a089cbc4" target="_top" xlink:title="Get singleton instance.">
<polygon fill="white" stroke="#666666" points="903,-64 789,-64 789,-45 903,-45 903,-64"/>
<text text-anchor="middle" x="846" y="-52" font-family="Helvetica,sans-Serif" font-size="10.00">Logger::GetInstance</text>
</a>
</g>
</g>
<!-- Node4&#45;&gt;Node8 -->
<g id="edge7_Node000004_Node000008" class="edge">
<title>Node4&#45;&gt;Node8</title>
<g id="a_edge7_Node000004_Node000008"><a xlink:title=" ">
<path fill="none" stroke="#63b8ff" d="M722.49,-81.97C743.87,-77.18 769.97,-71.32 792.58,-66.25"/>
<polygon fill="#63b8ff" stroke="#63b8ff" points="793.37,-69.66 802.37,-64.06 791.84,-62.83 793.37,-69.66"/>
</a>
</g>
</g>
<!-- Node9 -->
<g id="Node000009" class="node">
<title>Node9</title>
<g id="a_Node000009"><a xlink:href="classLogger.html#a4681229c521795685fc14f6b55c82300" target="_top" xlink:title="Log info message.">
<polygon fill="white" stroke="#666666" points="883,-138 809,-138 809,-119 883,-119 883,-138"/>
<text text-anchor="middle" x="846" y="-126" font-family="Helvetica,sans-Serif" font-size="10.00">Logger::Info</text>
</a>
</g>
</g>
<!-- Node4&#45;&gt;Node9 -->
<g id="edge8_Node000004_Node000009" class="edge">
<title>Node4&#45;&gt;Node9</title>
<g id="a_edge8_Node000004_Node000009"><a xlink:title=" ">
<path fill="none" stroke="#63b8ff" d="M722.49,-101.03C745.89,-106.27 774.94,-112.79 798.89,-118.16"/>
<polygon fill="#63b8ff" stroke="#63b8ff" points="798.28,-121.61 808.8,-120.38 799.81,-114.78 798.28,-121.61"/>
</a>
</g>
</g>
<!-- Node6 -->
<g id="Node000006" class="node">
<title>Node6</title>
<g id="a_Node000006"><a xlink:href="classLogger.html#af9e84e0ff6bd538e4f9ed8dcebc3e2f0" target="_top" xlink:title="Check if log level is enabled for tag.">
<polygon fill="white" stroke="#666666" points="1068,-138 939,-138 939,-119 1068,-119 1068,-138"/>
<text text-anchor="middle" x="1003.5" y="-126" font-family="Helvetica,sans-Serif" font-size="10.00">Logger::IsLevelEnabled</text>
</a>
</g>
</g>
<!-- Node5&#45;&gt;Node6 -->
<g id="edge5_Node000005_Node000006" class="edge">
<title>Node5&#45;&gt;Node6</title>
<g id="a_edge5_Node000005_Node000006"><a xlink:title=" ">
<path fill="none" stroke="#63b8ff" d="M885.84,-100.74C906.03,-105.55 930.94,-111.47 952.55,-116.61"/>
<polygon fill="#63b8ff" stroke="#63b8ff" points="952,-120.08 962.53,-118.99 953.62,-113.27 952,-120.08"/>
</a>
</g>
</g>
<!-- Node7 -->
<g id="Node000007" class="node">
<title>Node7</title>
<g id="a_Node000007"><a xlink:href="classLogger.html#a6adb205db597526fb91ad20067400394" target="_top" xlink:title="Internal logging method.">
<polygon fill="white" stroke="#666666" points="1058.5,-101 948.5,-101 948.5,-82 1058.5,-82 1058.5,-101"/>
<text text-anchor="middle" x="1003.5" y="-89" font-family="Helvetica,sans-Serif" font-size="10.00">Logger::LogInternal</text>
</a>
</g>
</g>
<!-- Node5&#45;&gt;Node7 -->
<g id="edge6_Node000005_Node000007" class="edge">
<title>Node5&#45;&gt;Node7</title>
<g id="a_edge6_Node000005_Node000007"><a xlink:title=" ">
<path fill="none" stroke="#63b8ff" d="M885.84,-91.5C901.63,-91.5 920.31,-91.5 938.03,-91.5"/>
<polygon fill="#63b8ff" stroke="#63b8ff" points="938.33,-95 948.33,-91.5 938.33,-88 938.33,-95"/>
</a>
</g>
</g>
<!-- Node9&#45;&gt;Node6 -->
<g id="edge9_Node000009_Node000006" class="edge">
<title>Node9&#45;&gt;Node6</title>
<g id="a_edge9_Node000009_Node000006"><a xlink:title=" ">
<path fill="none" stroke="#63b8ff" d="M883.07,-128.5C896.68,-128.5 912.72,-128.5 928.55,-128.5"/>
<polygon fill="#63b8ff" stroke="#63b8ff" points="928.89,-132 938.89,-128.5 928.89,-125 928.89,-132"/>
</a>
</g>
</g>
<!-- Node9&#45;&gt;Node7 -->
<g id="edge10_Node000009_Node000007" class="edge">
<title>Node9&#45;&gt;Node7</title>
<g id="a_edge10_Node000009_Node000007"><a xlink:title=" ">
<path fill="none" stroke="#63b8ff" d="M883.07,-119.92C903.78,-114.99 930.09,-108.73 952.74,-103.34"/>
<polygon fill="#63b8ff" stroke="#63b8ff" points="953.61,-106.73 962.53,-101.01 951.99,-99.92 953.61,-106.73"/>
</a>
</g>
</g>
<!-- Node11&#45;&gt;Node2 -->
<g id="edge13_Node000011_Node000002" class="edge">
<title>Node11&#45;&gt;Node2</title>
<g id="a_edge13_Node000011_Node000002"><a xlink:title=" ">
<path fill="none" stroke="#63b8ff" d="M428.68,-19.03C407.61,-21.7 381.7,-24.31 356.33,-26.4"/>
<polygon fill="#63b8ff" stroke="#63b8ff" points="355.95,-22.91 346.26,-27.2 356.51,-29.89 355.95,-22.91"/>
</a>
</g>
</g>
<!-- Node11&#45;&gt;Node11 -->
<g id="edge14_Node000011_Node000011" class="edge">
<title>Node11&#45;&gt;Node11</title>
<g id="a_edge14_Node000011_Node000011"><a xlink:title=" ">
<path fill="none" stroke="#63b8ff" d="M444.37,-19.08C429.22,-27.73 439.6,-37 475.5,-37 500.74,-37 513.37,-32.42 513.37,-26.69"/>
<polygon fill="#63b8ff" stroke="#63b8ff" points="515.89,-24.25 506.63,-19.08 510.65,-28.89 515.89,-24.25"/>
</a>
</g>
</g>
</g>
</svg>
