<?xml version="1.0" encoding="UTF-8" standalone="no"?>
<!DOCTYPE svg PUBLIC "-//W3C//DTD SVG 1.1//EN"
 "http://www.w3.org/Graphics/SVG/1.1/DTD/svg11.dtd">
<!-- Generated by graphviz version 2.43.0 (0)
 -->
<!-- Title: Tmc9660Handler Pages: 1 -->
<svg width="1577pt" height="363pt"
 viewBox="0.00 0.00 1577.00 362.50" xmlns="http://www.w3.org/2000/svg" xmlns:xlink="http://www.w3.org/1999/xlink">
<g id="graph0" class="graph" transform="scale(1 1) rotate(0) translate(4 358.5)">
<title>Tmc9660Handler</title>
<!-- Node1 -->
<g id="Node000001" class="node">
<title>Node1</title>
<g id="a_Node000001"><a xlink:title="Unified, non&#45;templated handler for a single TMC9660 motor controller device.">
<polygon fill="#999999" stroke="#666666" points="820.5,-177.5 720.5,-177.5 720.5,-158.5 820.5,-158.5 820.5,-177.5"/>
<text text-anchor="middle" x="770.5" y="-165.5" font-family="Helvetica,sans-Serif" font-size="10.00">Tmc9660Handler</text>
</a>
</g>
</g>
<!-- Node13 -->
<g id="Node000013" class="node">
<title>Node13</title>
<g id="a_Node000013"><a xlink:href="classTmc9660Handler_1_1Gpio.html" target="_top" xlink:title="BaseGpio adapter for a single TMC9660 internal GPIO channel.">
<polygon fill="white" stroke="#666666" points="1070.5,-291.5 942.5,-291.5 942.5,-272.5 1070.5,-272.5 1070.5,-291.5"/>
<text text-anchor="middle" x="1006.5" y="-279.5" font-family="Helvetica,sans-Serif" font-size="10.00">Tmc9660Handler::Gpio</text>
</a>
</g>
</g>
<!-- Node1&#45;&gt;Node13 -->
<g id="edge15_Node000013_Node000001" class="edge">
<title>Node1&#45;&gt;Node13</title>
<g id="a_edge15_Node000013_Node000001"><a xlink:title=" ">
<path fill="none" stroke="#9a32cd" stroke-dasharray="5,2" d="M792.46,-184.14C805.02,-194.56 820.69,-208.93 832,-224 842.74,-238.31 835.48,-249.55 850,-260 876.33,-278.95 911.79,-285.04 942.19,-286.13"/>
<polygon fill="#9a32cd" stroke="#9a32cd" points="794.33,-181.16 784.35,-177.61 789.94,-186.61 794.33,-181.16"/>
</a>
</g>
<text text-anchor="middle" x="877.5" y="-284" font-family="Helvetica,sans-Serif" font-size="10.00" fill="grey"> parent_</text>
</g>
<!-- Node16 -->
<g id="Node000016" class="node">
<title>Node16</title>
<g id="a_Node000016"><a xlink:href="classTmc9660Handler_1_1Adc.html" target="_top" xlink:title="BaseAdc adapter for all TMC9660 ADC channels.">
<polygon fill="white" stroke="#666666" points="1068.5,-252.5 944.5,-252.5 944.5,-233.5 1068.5,-233.5 1068.5,-252.5"/>
<text text-anchor="middle" x="1006.5" y="-240.5" font-family="Helvetica,sans-Serif" font-size="10.00">Tmc9660Handler::Adc</text>
</a>
</g>
</g>
<!-- Node1&#45;&gt;Node16 -->
<g id="edge19_Node000016_Node000001" class="edge">
<title>Node1&#45;&gt;Node16</title>
<g id="a_edge19_Node000016_Node000001"><a xlink:title=" ">
<path fill="none" stroke="#9a32cd" stroke-dasharray="5,2" d="M810.65,-180.75C841.22,-190.69 884.79,-204.8 923,-217 940.17,-222.48 959.37,-228.54 974.92,-233.42"/>
<polygon fill="#9a32cd" stroke="#9a32cd" points="811.4,-177.31 800.81,-177.55 809.23,-183.97 811.4,-177.31"/>
</a>
</g>
<text text-anchor="middle" x="877.5" y="-213" font-family="Helvetica,sans-Serif" font-size="10.00" fill="grey"> parent_</text>
</g>
<!-- Node20 -->
<g id="Node000020" class="node">
<title>Node20</title>
<g id="a_Node000020"><a xlink:href="classTmc9660Handler_1_1Temperature.html" target="_top" xlink:title="BaseTemperature adapter for TMC9660 internal chip temperature sensor.">
<polygon fill="white" stroke="#666666" points="1090,-74.5 923,-74.5 923,-55.5 1090,-55.5 1090,-74.5"/>
<text text-anchor="middle" x="1006.5" y="-62.5" font-family="Helvetica,sans-Serif" font-size="10.00">Tmc9660Handler::Temperature</text>
</a>
</g>
</g>
<!-- Node1&#45;&gt;Node20 -->
<g id="edge24_Node000020_Node000001" class="edge">
<title>Node1&#45;&gt;Node20</title>
<g id="a_edge24_Node000020_Node000001"><a xlink:title=" ">
<path fill="none" stroke="#9a32cd" stroke-dasharray="5,2" d="M784.68,-150.07C798.76,-132.32 822.79,-105.84 850,-92 872.22,-80.69 898.3,-74.02 922.67,-70.1"/>
<polygon fill="#9a32cd" stroke="#9a32cd" points="781.56,-148.38 778.25,-158.45 787.11,-152.64 781.56,-148.38"/>
</a>
</g>
<text text-anchor="middle" x="877.5" y="-95" font-family="Helvetica,sans-Serif" font-size="10.00" fill="grey"> parent_</text>
</g>
<!-- Node2 -->
<g id="Node000002" class="node">
<title>Node2</title>
<g id="a_Node000002"><a xlink:title=" ">
<polygon fill="white" stroke="#666666" points="609,-255 432,-255 432,-225 609,-225 609,-255"/>
<text text-anchor="start" x="440" y="-243" font-family="Helvetica,sans-Serif" font-size="10.00">std::unique_ptr&lt; HalSpiTmc9660</text>
<text text-anchor="middle" x="520.5" y="-232" font-family="Helvetica,sans-Serif" font-size="10.00">Comm &gt;</text>
</a>
</g>
</g>
<!-- Node2&#45;&gt;Node1 -->
<g id="edge1_Node000001_Node000002" class="edge">
<title>Node2&#45;&gt;Node1</title>
<g id="a_edge1_Node000001_Node000002"><a xlink:title=" ">
<path fill="none" stroke="#9a32cd" stroke-dasharray="5,2" d="M595.02,-222.43C624.96,-214.88 659.8,-205.59 691,-196 709.12,-190.43 729.25,-183.23 744.59,-177.52"/>
<polygon fill="#9a32cd" stroke="#9a32cd" points="593.91,-219.1 585.06,-224.92 595.61,-225.89 593.91,-219.1"/>
</a>
</g>
<text text-anchor="middle" x="659" y="-216" font-family="Helvetica,sans-Serif" font-size="10.00" fill="grey"> spi_comm_</text>
</g>
<!-- Node3 -->
<g id="Node000003" class="node">
<title>Node3</title>
<g id="a_Node000003"><a xlink:href="classHalSpiTmc9660Comm.html" target="_top" xlink:title="CRTP SPI communication adapter bridging BaseSpi/BaseGpio to tmc9660::SpiCommInterface.">
<polygon fill="white" stroke="#666666" points="376,-249.5 251,-249.5 251,-230.5 376,-230.5 376,-249.5"/>
<text text-anchor="middle" x="313.5" y="-237.5" font-family="Helvetica,sans-Serif" font-size="10.00">HalSpiTmc9660Comm</text>
</a>
</g>
</g>
<!-- Node3&#45;&gt;Node2 -->
<g id="edge2_Node000002_Node000003" class="edge">
<title>Node3&#45;&gt;Node2</title>
<g id="a_edge2_Node000002_Node000003"><a xlink:title=" ">
<path fill="none" stroke="#9a32cd" stroke-dasharray="5,2" d="M386.08,-240C400.87,-240 416.6,-240 431.89,-240"/>
<polygon fill="#9a32cd" stroke="#9a32cd" points="386.01,-236.5 376.01,-240 386.01,-243.5 386.01,-236.5"/>
</a>
</g>
<text text-anchor="middle" x="405.5" y="-243" font-family="Helvetica,sans-Serif" font-size="10.00" fill="grey"> ptr</text>
</g>
<!-- Node4 -->
<g id="Node000004" class="node">
<title>Node4</title>
<g id="a_Node000004"><a xlink:title=" ">
<polygon fill="white" stroke="#666666" points="159,-274 3,-274 3,-244 159,-244 159,-274"/>
<text text-anchor="start" x="11" y="-262" font-family="Helvetica,sans-Serif" font-size="10.00">tmc9660::SpiCommInterface</text>
<text text-anchor="middle" x="81" y="-251" font-family="Helvetica,sans-Serif" font-size="10.00">&lt; HalSpiTmc9660Comm &gt;</text>
</a>
</g>
</g>
<!-- Node4&#45;&gt;Node3 -->
<g id="edge3_Node000003_Node000004" class="edge">
<title>Node4&#45;&gt;Node3</title>
<g id="a_edge3_Node000003_Node000004"><a xlink:title=" ">
<path fill="none" stroke="#63b8ff" d="M169.35,-251.8C196.48,-249.56 225.8,-247.15 250.79,-245.09"/>
<polygon fill="#63b8ff" stroke="#63b8ff" points="168.75,-248.34 159.07,-252.65 169.33,-255.31 168.75,-248.34"/>
</a>
</g>
</g>
<!-- Node5 -->
<g id="Node000005" class="node">
<title>Node5</title>
<g id="a_Node000005"><a xlink:href="structTmc9660CtrlPins.html" target="_top" xlink:title="Shared helper holding the four TMC9660 host&#45;side control pin references.">
<polygon fill="white" stroke="#666666" points="130.5,-222.5 31.5,-222.5 31.5,-203.5 130.5,-203.5 130.5,-222.5"/>
<text text-anchor="middle" x="81" y="-210.5" font-family="Helvetica,sans-Serif" font-size="10.00">Tmc9660CtrlPins</text>
</a>
</g>
</g>
<!-- Node5&#45;&gt;Node3 -->
<g id="edge4_Node000003_Node000005" class="edge">
<title>Node5&#45;&gt;Node3</title>
<g id="a_edge4_Node000003_Node000005"><a xlink:title=" ">
<path fill="none" stroke="#9a32cd" stroke-dasharray="5,2" d="M140.76,-219.88C174.42,-223.83 216.63,-228.77 250.78,-232.77"/>
<polygon fill="#9a32cd" stroke="#9a32cd" points="140.94,-216.38 130.6,-218.69 140.13,-223.33 140.94,-216.38"/>
</a>
</g>
<text text-anchor="middle" x="205" y="-232" font-family="Helvetica,sans-Serif" font-size="10.00" fill="grey"> ctrl_pins_</text>
</g>
<!-- Node7 -->
<g id="Node000007" class="node">
<title>Node7</title>
<g id="a_Node000007"><a xlink:href="classHalUartTmc9660Comm.html" target="_top" xlink:title="CRTP UART communication adapter bridging BaseUart/BaseGpio to tmc9660::UartCommInterface.">
<polygon fill="white" stroke="#666666" points="379,-201.5 248,-201.5 248,-182.5 379,-182.5 379,-201.5"/>
<text text-anchor="middle" x="313.5" y="-189.5" font-family="Helvetica,sans-Serif" font-size="10.00">HalUartTmc9660Comm</text>
</a>
</g>
</g>
<!-- Node5&#45;&gt;Node7 -->
<g id="edge8_Node000007_Node000005" class="edge">
<title>Node5&#45;&gt;Node7</title>
<g id="a_edge8_Node000007_Node000005"><a xlink:title=" ">
<path fill="none" stroke="#9a32cd" stroke-dasharray="5,2" d="M140.7,-204.52C153.63,-202.84 167.26,-201.23 180,-200 202.02,-197.88 226.16,-196.22 247.73,-194.98"/>
<polygon fill="#9a32cd" stroke="#9a32cd" points="139.98,-201.08 130.52,-205.86 140.89,-208.02 139.98,-201.08"/>
</a>
</g>
<text text-anchor="middle" x="205" y="-203" font-family="Helvetica,sans-Serif" font-size="10.00" fill="grey"> ctrl_pins_</text>
</g>
<!-- Node6 -->
<g id="Node000006" class="node">
<title>Node6</title>
<g id="a_Node000006"><a xlink:title=" ">
<polygon fill="white" stroke="#666666" points="589.5,-207 451.5,-207 451.5,-177 589.5,-177 589.5,-207"/>
<text text-anchor="start" x="459.5" y="-195" font-family="Helvetica,sans-Serif" font-size="10.00">std::unique_ptr&lt; HalUart</text>
<text text-anchor="middle" x="520.5" y="-184" font-family="Helvetica,sans-Serif" font-size="10.00">Tmc9660Comm &gt;</text>
</a>
</g>
</g>
<!-- Node6&#45;&gt;Node1 -->
<g id="edge5_Node000001_Node000006" class="edge">
<title>Node6&#45;&gt;Node1</title>
<g id="a_edge5_Node000001_Node000006"><a xlink:title=" ">
<path fill="none" stroke="#9a32cd" stroke-dasharray="5,2" d="M599.74,-184.43C639.27,-180.6 686.01,-176.08 720.43,-172.75"/>
<polygon fill="#9a32cd" stroke="#9a32cd" points="599.21,-180.96 589.6,-185.41 599.89,-187.93 599.21,-180.96"/>
</a>
</g>
<text text-anchor="middle" x="659" y="-184" font-family="Helvetica,sans-Serif" font-size="10.00" fill="grey"> uart_comm_</text>
</g>
<!-- Node7&#45;&gt;Node6 -->
<g id="edge6_Node000006_Node000007" class="edge">
<title>Node7&#45;&gt;Node6</title>
<g id="a_edge6_Node000006_Node000007"><a xlink:title=" ">
<path fill="none" stroke="#9a32cd" stroke-dasharray="5,2" d="M389.22,-192C409.54,-192 431.42,-192 451.35,-192"/>
<polygon fill="#9a32cd" stroke="#9a32cd" points="389.08,-188.5 379.08,-192 389.08,-195.5 389.08,-188.5"/>
</a>
</g>
<text text-anchor="middle" x="405.5" y="-195" font-family="Helvetica,sans-Serif" font-size="10.00" fill="grey"> ptr</text>
</g>
<!-- Node8 -->
<g id="Node000008" class="node">
<title>Node8</title>
<g id="a_Node000008"><a xlink:title=" ">
<polygon fill="white" stroke="#666666" points="162,-181 0,-181 0,-151 162,-151 162,-181"/>
<text text-anchor="start" x="8" y="-169" font-family="Helvetica,sans-Serif" font-size="10.00">tmc9660::UartCommInterface</text>
<text text-anchor="middle" x="81" y="-158" font-family="Helvetica,sans-Serif" font-size="10.00">&lt; HalUartTmc9660Comm &gt;</text>
</a>
</g>
</g>
<!-- Node8&#45;&gt;Node7 -->
<g id="edge7_Node000007_Node000008" class="edge">
<title>Node8&#45;&gt;Node7</title>
<g id="a_edge7_Node000007_Node000008"><a xlink:title=" ">
<path fill="none" stroke="#63b8ff" d="M172.56,-176.22C197.66,-179.05 224.4,-182.06 247.71,-184.69"/>
<polygon fill="#63b8ff" stroke="#63b8ff" points="172.62,-172.7 162.29,-175.06 171.84,-179.66 172.62,-172.7"/>
</a>
</g>
</g>
<!-- Node9 -->
<g id="Node000009" class="node">
<title>Node9</title>
<g id="a_Node000009"><a xlink:title=" ">
<polygon fill="white" stroke="#666666" points="599,-158.5 442,-158.5 442,-139.5 599,-139.5 599,-158.5"/>
<text text-anchor="middle" x="520.5" y="-146.5" font-family="Helvetica,sans-Serif" font-size="10.00">std::unique_ptr&lt; SpiDriver &gt;</text>
</a>
</g>
</g>
<!-- Node9&#45;&gt;Node1 -->
<g id="edge9_Node000001_Node000009" class="edge">
<title>Node9&#45;&gt;Node1</title>
<g id="a_edge9_Node000001_Node000009"><a xlink:title=" ">
<path fill="none" stroke="#9a32cd" stroke-dasharray="5,2" d="M609.6,-149.14C635.84,-149.85 664.63,-151.27 691,-154 701.19,-155.05 712.05,-156.67 722.34,-158.43"/>
<polygon fill="#9a32cd" stroke="#9a32cd" points="609.37,-145.64 599.29,-148.9 609.2,-152.64 609.37,-145.64"/>
</a>
</g>
<text text-anchor="middle" x="659" y="-157" font-family="Helvetica,sans-Serif" font-size="10.00" fill="grey"> spi_driver_</text>
</g>
<!-- Node10 -->
<g id="Node000010" class="node">
<title>Node10</title>
<g id="a_Node000010"><a xlink:title=" ">
<polygon fill="white" stroke="#666666" points="602,-121.5 439,-121.5 439,-102.5 602,-102.5 602,-121.5"/>
<text text-anchor="middle" x="520.5" y="-109.5" font-family="Helvetica,sans-Serif" font-size="10.00">std::unique_ptr&lt; UartDriver &gt;</text>
</a>
</g>
</g>
<!-- Node10&#45;&gt;Node1 -->
<g id="edge10_Node000001_Node000010" class="edge">
<title>Node10&#45;&gt;Node1</title>
<g id="a_edge10_Node000001_Node000010"><a xlink:title=" ">
<path fill="none" stroke="#9a32cd" stroke-dasharray="5,2" d="M612.3,-119.04C638.03,-122.31 665.87,-127.08 691,-134 712.48,-139.92 735.74,-150.57 751.32,-158.38"/>
<polygon fill="#9a32cd" stroke="#9a32cd" points="612.52,-115.54 602.17,-117.82 611.68,-122.49 612.52,-115.54"/>
</a>
</g>
<text text-anchor="middle" x="659" y="-137" font-family="Helvetica,sans-Serif" font-size="10.00" fill="grey"> uart_driver_</text>
</g>
<!-- Node11 -->
<g id="Node000011" class="node">
<title>Node11</title>
<g id="a_Node000011"><a xlink:title=" ">
<polygon fill="white" stroke="#666666" points="1569,-192.5 1433,-192.5 1433,-151.5 1569,-151.5 1569,-192.5"/>
<text text-anchor="start" x="1441" y="-180.5" font-family="Helvetica,sans-Serif" font-size="10.00">std::array&lt; std::unique</text>
<text text-anchor="start" x="1441" y="-169.5" font-family="Helvetica,sans-Serif" font-size="10.00">_ptr&lt; Tmc9660Handler::</text>
<text text-anchor="middle" x="1501" y="-158.5" font-family="Helvetica,sans-Serif" font-size="10.00">Gpio &gt;, 2 &gt;</text>
</a>
</g>
</g>
<!-- Node11&#45;&gt;Node1 -->
<g id="edge11_Node000001_Node000011" class="edge">
<title>Node11&#45;&gt;Node1</title>
<g id="a_edge11_Node000001_Node000011"><a xlink:title=" ">
<path fill="none" stroke="#9a32cd" stroke-dasharray="5,2" d="M1422.82,-171.58C1272.67,-170.75 945.07,-168.95 820.71,-168.27"/>
<polygon fill="#9a32cd" stroke="#9a32cd" points="1422.87,-175.08 1432.89,-171.63 1422.91,-168.08 1422.87,-175.08"/>
</a>
</g>
<text text-anchor="middle" x="1146" y="-173" font-family="Helvetica,sans-Serif" font-size="10.00" fill="grey"> gpioWrappers_</text>
</g>
<!-- Node12 -->
<g id="Node000012" class="node">
<title>Node12</title>
<g id="a_Node000012"><a xlink:title=" ">
<polygon fill="white" stroke="#666666" points="1348,-279 1202,-279 1202,-249 1348,-249 1348,-279"/>
<text text-anchor="start" x="1210" y="-267" font-family="Helvetica,sans-Serif" font-size="10.00">std::unique_ptr&lt; Tmc9660</text>
<text text-anchor="middle" x="1275" y="-256" font-family="Helvetica,sans-Serif" font-size="10.00">Handler::Gpio &gt;</text>
</a>
</g>
</g>
<!-- Node12&#45;&gt;Node11 -->
<g id="edge12_Node000011_Node000012" class="edge">
<title>Node12&#45;&gt;Node11</title>
<g id="a_edge12_Node000011_Node000012"><a xlink:title=" ">
<path fill="none" stroke="#9a32cd" stroke-dasharray="5,2" d="M1322.59,-244.86C1359.81,-229.58 1411.86,-208.2 1449.95,-192.56"/>
<polygon fill="#9a32cd" stroke="#9a32cd" points="1320.91,-241.77 1312.99,-248.81 1323.57,-248.25 1320.91,-241.77"/>
</a>
</g>
<text text-anchor="middle" x="1390.5" y="-229" font-family="Helvetica,sans-Serif" font-size="10.00" fill="grey"> elements</text>
</g>
<!-- Node13&#45;&gt;Node12 -->
<g id="edge13_Node000012_Node000013" class="edge">
<title>Node13&#45;&gt;Node12</title>
<g id="a_edge13_Node000012_Node000013"><a xlink:title=" ">
<path fill="none" stroke="#9a32cd" stroke-dasharray="5,2" d="M1081.06,-277.03C1118.73,-274.49 1164.42,-271.4 1201.88,-268.87"/>
<polygon fill="#9a32cd" stroke="#9a32cd" points="1080.4,-273.57 1070.66,-277.73 1080.87,-280.55 1080.4,-273.57"/>
</a>
</g>
<text text-anchor="middle" x="1146" y="-278" font-family="Helvetica,sans-Serif" font-size="10.00" fill="grey"> ptr</text>
</g>
<!-- Node14 -->
<g id="Node000014" class="node">
<title>Node14</title>
<g id="a_Node000014"><a xlink:title=" ">
<polygon fill="white" stroke="#666666" points="802,-354.5 739,-354.5 739,-335.5 802,-335.5 802,-354.5"/>
<text text-anchor="middle" x="770.5" y="-342.5" font-family="Helvetica,sans-Serif" font-size="10.00">BaseGpio</text>
</a>
</g>
</g>
<!-- Node14&#45;&gt;Node13 -->
<g id="edge14_Node000013_Node000014" class="edge">
<title>Node14&#45;&gt;Node13</title>
<g id="a_edge14_Node000013_Node000014"><a xlink:title=" ">
<path fill="none" stroke="#63b8ff" d="M812.26,-340.22C838.95,-336.54 874.42,-330.62 905,-322 933.56,-313.95 965.15,-300.6 985.15,-291.56"/>
<polygon fill="#63b8ff" stroke="#63b8ff" points="811.58,-336.78 802.12,-341.57 812.5,-343.72 811.58,-336.78"/>
</a>
</g>
</g>
<!-- Node15 -->
<g id="Node000015" class="node">
<title>Node15</title>
<g id="a_Node000015"><a xlink:title=" ">
<polygon fill="white" stroke="#666666" points="1348,-222 1202,-222 1202,-192 1348,-192 1348,-222"/>
<text text-anchor="start" x="1210" y="-210" font-family="Helvetica,sans-Serif" font-size="10.00">std::unique_ptr&lt; Tmc9660</text>
<text text-anchor="middle" x="1275" y="-199" font-family="Helvetica,sans-Serif" font-size="10.00">Handler::Adc &gt;</text>
</a>
</g>
</g>
<!-- Node15&#45;&gt;Node1 -->
<g id="edge16_Node000001_Node000015" class="edge">
<title>Node15&#45;&gt;Node1</title>
<g id="a_edge16_Node000001_Node000015"><a xlink:title=" ">
<path fill="none" stroke="#9a32cd" stroke-dasharray="5,2" d="M1191.5,-200.6C1086.02,-192.41 906.76,-178.5 820.6,-171.81"/>
<polygon fill="#9a32cd" stroke="#9a32cd" points="1191.54,-204.11 1201.78,-201.4 1192.08,-197.13 1191.54,-204.11"/>
</a>
</g>
<text text-anchor="middle" x="1006.5" y="-195" font-family="Helvetica,sans-Serif" font-size="10.00" fill="grey"> adcWrapper_</text>
</g>
<!-- Node16&#45;&gt;Node15 -->
<g id="edge17_Node000015_Node000016" class="edge">
<title>Node16&#45;&gt;Node15</title>
<g id="a_edge17_Node000015_Node000016"><a xlink:title=" ">
<path fill="none" stroke="#9a32cd" stroke-dasharray="5,2" d="M1078.63,-233.39C1116.72,-228.25 1163.54,-221.92 1201.8,-216.75"/>
<polygon fill="#9a32cd" stroke="#9a32cd" points="1078.08,-229.93 1068.64,-234.74 1079.02,-236.87 1078.08,-229.93"/>
</a>
</g>
<text text-anchor="middle" x="1146" y="-232" font-family="Helvetica,sans-Serif" font-size="10.00" fill="grey"> ptr</text>
</g>
<!-- Node17 -->
<g id="Node000017" class="node">
<title>Node17</title>
<g id="a_Node000017"><a xlink:title=" ">
<polygon fill="white" stroke="#666666" points="800,-317.5 741,-317.5 741,-298.5 800,-298.5 800,-317.5"/>
<text text-anchor="middle" x="770.5" y="-305.5" font-family="Helvetica,sans-Serif" font-size="10.00">BaseAdc</text>
</a>
</g>
</g>
<!-- Node17&#45;&gt;Node16 -->
<g id="edge18_Node000016_Node000017" class="edge">
<title>Node17&#45;&gt;Node16</title>
<g id="a_edge18_Node000016_Node000017"><a xlink:title=" ">
<path fill="none" stroke="#63b8ff" d="M810.55,-312.72C838.9,-314.16 877.03,-311.83 905,-294 918.11,-285.64 910.53,-273.28 923,-264 929.52,-259.15 937.05,-255.41 944.85,-252.53"/>
<polygon fill="#63b8ff" stroke="#63b8ff" points="810.42,-309.2 800.21,-312 809.94,-316.18 810.42,-309.2"/>
</a>
</g>
</g>
<!-- Node18 -->
<g id="Node000018" class="node">
<title>Node18</title>
<g id="a_Node000018"><a xlink:title=" ">
<polygon fill="white" stroke="#666666" points="828,-263 713,-263 713,-233 828,-233 828,-263"/>
<text text-anchor="start" x="721" y="-251" font-family="Helvetica,sans-Serif" font-size="10.00">std::atomic&lt; hf_adc</text>
<text text-anchor="middle" x="770.5" y="-240" font-family="Helvetica,sans-Serif" font-size="10.00">_err_t &gt;</text>
</a>
</g>
</g>
<!-- Node18&#45;&gt;Node16 -->
<g id="edge20_Node000016_Node000018" class="edge">
<title>Node18&#45;&gt;Node16</title>
<g id="a_edge20_Node000016_Node000018"><a xlink:title=" ">
<path fill="none" stroke="#9a32cd" stroke-dasharray="5,2" d="M838.28,-246.57C871.7,-245.86 911.87,-245 944.46,-244.3"/>
<polygon fill="#9a32cd" stroke="#9a32cd" points="838.07,-243.08 828.14,-246.79 838.22,-250.08 838.07,-243.08"/>
</a>
</g>
<text text-anchor="middle" x="877.5" y="-249" font-family="Helvetica,sans-Serif" font-size="10.00" fill="grey"> last_error_</text>
</g>
<!-- Node19 -->
<g id="Node000019" class="node">
<title>Node19</title>
<g id="a_Node000019"><a xlink:title=" ">
<polygon fill="white" stroke="#666666" points="1348,-117 1202,-117 1202,-87 1348,-87 1348,-117"/>
<text text-anchor="start" x="1210" y="-105" font-family="Helvetica,sans-Serif" font-size="10.00">std::unique_ptr&lt; Tmc9660</text>
<text text-anchor="middle" x="1275" y="-94" font-family="Helvetica,sans-Serif" font-size="10.00">Handler::Temperature &gt;</text>
</a>
</g>
</g>
<!-- Node19&#45;&gt;Node1 -->
<g id="edge21_Node000001_Node000019" class="edge">
<title>Node19&#45;&gt;Node1</title>
<g id="a_edge21_Node000001_Node000019"><a xlink:title=" ">
<path fill="none" stroke="#9a32cd" stroke-dasharray="5,2" d="M1191.47,-102.96C1105.2,-105.53 966.44,-114.16 850,-142 831.85,-146.34 811.89,-152.98 796.64,-158.46"/>
<polygon fill="#9a32cd" stroke="#9a32cd" points="1191.83,-106.45 1201.73,-102.67 1191.63,-99.45 1191.83,-106.45"/>
</a>
</g>
<text text-anchor="middle" x="1006.5" y="-130" font-family="Helvetica,sans-Serif" font-size="10.00" fill="grey"> temperatureWrapper_</text>
</g>
<!-- Node20&#45;&gt;Node19 -->
<g id="edge22_Node000019_Node000020" class="edge">
<title>Node20&#45;&gt;Node19</title>
<g id="a_edge22_Node000019_Node000020"><a xlink:title=" ">
<path fill="none" stroke="#9a32cd" stroke-dasharray="5,2" d="M1086.27,-75.94C1122.88,-81.02 1166.13,-87.02 1201.88,-91.99"/>
<polygon fill="#9a32cd" stroke="#9a32cd" points="1086.52,-72.44 1076.13,-74.53 1085.55,-79.37 1086.52,-72.44"/>
</a>
</g>
<text text-anchor="middle" x="1146" y="-92" font-family="Helvetica,sans-Serif" font-size="10.00" fill="grey"> ptr</text>
</g>
<!-- Node21 -->
<g id="Node000021" class="node">
<title>Node21</title>
<g id="a_Node000021"><a xlink:title=" ">
<polygon fill="white" stroke="#666666" points="821.5,-67.5 719.5,-67.5 719.5,-48.5 821.5,-48.5 821.5,-67.5"/>
<text text-anchor="middle" x="770.5" y="-55.5" font-family="Helvetica,sans-Serif" font-size="10.00">BaseTemperature</text>
</a>
</g>
</g>
<!-- Node21&#45;&gt;Node20 -->
<g id="edge23_Node000020_Node000021" class="edge">
<title>Node21&#45;&gt;Node20</title>
<g id="a_edge23_Node000020_Node000021"><a xlink:title=" ">
<path fill="none" stroke="#63b8ff" d="M832,-59.81C859.64,-60.64 892.81,-61.63 922.71,-62.52"/>
<polygon fill="#63b8ff" stroke="#63b8ff" points="831.8,-56.3 821.7,-59.5 831.59,-63.3 831.8,-56.3"/>
</a>
</g>
</g>
<!-- Node22 -->
<g id="Node000022" class="node">
<title>Node22</title>
<g id="a_Node000022"><a xlink:title=" ">
<polygon fill="white" stroke="#666666" points="832,-30 709,-30 709,0 832,0 832,-30"/>
<text text-anchor="start" x="717" y="-18" font-family="Helvetica,sans-Serif" font-size="10.00">std::atomic&lt; hf_temp</text>
<text text-anchor="middle" x="770.5" y="-7" font-family="Helvetica,sans-Serif" font-size="10.00">_err_t &gt;</text>
</a>
</g>
</g>
<!-- Node22&#45;&gt;Node20 -->
<g id="edge25_Node000020_Node000022" class="edge">
<title>Node22&#45;&gt;Node20</title>
<g id="a_edge25_Node000020_Node000022"><a xlink:title=" ">
<path fill="none" stroke="#9a32cd" stroke-dasharray="5,2" d="M842.18,-30.1C880.7,-38.33 927.2,-48.27 960.71,-55.43"/>
<polygon fill="#9a32cd" stroke="#9a32cd" points="842.58,-26.61 832.07,-27.94 841.11,-33.45 842.58,-26.61"/>
</a>
</g>
<text text-anchor="middle" x="877.5" y="-46" font-family="Helvetica,sans-Serif" font-size="10.00" fill="grey"> last_error_</text>
</g>
</g>
</svg>
