<?xml version="1.0" encoding="UTF-8" standalone="no"?>
<!DOCTYPE svg PUBLIC "-//W3C//DTD SVG 1.1//EN"
 "http://www.w3.org/Graphics/SVG/1.1/DTD/svg11.dtd">
<!-- Generated by graphviz version 2.43.0 (0)
 -->
<!-- Title: Tmc9660Handler::DumpDiagnostics Pages: 1 -->
<svg width="1410pt" height="363pt"
 viewBox="0.00 0.00 1410.00 363.20" xmlns="http://www.w3.org/2000/svg" xmlns:xlink="http://www.w3.org/1999/xlink">
<g id="graph0" class="graph" transform="scale(1 1) rotate(0) translate(4 359.2)">
<title>Tmc9660Handler::DumpDiagnostics</title>
<!-- Node1 -->
<g id="Node000001" class="node">
<title>Node1</title>
<g id="a_Node000001"><a xlink:title="Dump comprehensive diagnostics to the system log.">
<polygon fill="#999999" stroke="#666666" points="192,-178.2 0,-178.2 0,-159.2 192,-159.2 192,-178.2"/>
<text text-anchor="middle" x="96" y="-166.2" font-family="Helvetica,sans-Serif" font-size="10.00">Tmc9660Handler::DumpDiagnostics</text>
</a>
</g>
</g>
<!-- Node2 -->
<g id="Node000002" class="node">
<title>Node2</title>
<g id="a_Node000002"><a xlink:href="classTmc9660Handler.html#a5a279ae9d4b5a8e0d71cb24577ad88ea" target="_top" xlink:title="Ensure driver is initialized (lazy init entrypoint).">
<polygon fill="white" stroke="#666666" points="850,-223.2 663,-223.2 663,-204.2 850,-204.2 850,-223.2"/>
<text text-anchor="middle" x="756.5" y="-211.2" font-family="Helvetica,sans-Serif" font-size="10.00">Tmc9660Handler::EnsureInitialized</text>
</a>
</g>
</g>
<!-- Node1&#45;&gt;Node2 -->
<g id="edge1_Node000001_Node000002" class="edge">
<title>Node1&#45;&gt;Node2</title>
<g id="a_edge1_Node000001_Node000002"><a xlink:title=" ">
<path fill="none" stroke="#63b8ff" d="M117.75,-178.4C143.11,-189.68 187.63,-207.65 228,-214.7 375.48,-240.47 549.71,-232.92 656.39,-224.1"/>
<polygon fill="#63b8ff" stroke="#63b8ff" points="656.83,-227.57 666.5,-223.24 656.24,-220.6 656.83,-227.57"/>
</a>
</g>
</g>
<!-- Node7 -->
<g id="Node000007" class="node">
<title>Node7</title>
<g id="a_Node000007"><a xlink:href="classLogger.html#a5789d11f8f1356e2192c0023a089cbc4" target="_top" xlink:title="Get singleton instance.">
<polygon fill="white" stroke="#666666" points="1210.5,-355.2 1096.5,-355.2 1096.5,-336.2 1210.5,-336.2 1210.5,-355.2"/>
<text text-anchor="middle" x="1153.5" y="-343.2" font-family="Helvetica,sans-Serif" font-size="10.00">Logger::GetInstance</text>
</a>
</g>
</g>
<!-- Node1&#45;&gt;Node7 -->
<g id="edge22_Node000001_Node000007" class="edge">
<title>Node1&#45;&gt;Node7</title>
<g id="a_edge22_Node000001_Node000007"><a xlink:title=" ">
<path fill="none" stroke="#63b8ff" d="M105.01,-178.53C123.87,-200.94 173.62,-255.97 228,-282.7 357.97,-346.59 402.68,-346.7 547.5,-346.7 547.5,-346.7 547.5,-346.7 757.5,-346.7 873.01,-346.7 1007.52,-346.27 1086.02,-345.97"/>
<polygon fill="#63b8ff" stroke="#63b8ff" points="1086.26,-349.47 1096.25,-345.94 1086.23,-342.47 1086.26,-349.47"/>
</a>
</g>
</g>
<!-- Node8 -->
<g id="Node000008" class="node">
<title>Node8</title>
<g id="a_Node000008"><a xlink:href="classLogger.html#a1c0c947d87884bca0395fd38d19d1102" target="_top" xlink:title="Log info message.">
<polygon fill="white" stroke="#666666" points="1190.5,-318.2 1116.5,-318.2 1116.5,-299.2 1190.5,-299.2 1190.5,-318.2"/>
<text text-anchor="middle" x="1153.5" y="-306.2" font-family="Helvetica,sans-Serif" font-size="10.00">Logger::Info</text>
</a>
</g>
</g>
<!-- Node1&#45;&gt;Node8 -->
<g id="edge28_Node000001_Node000008" class="edge">
<title>Node1&#45;&gt;Node8</title>
<g id="a_edge28_Node000001_Node000008"><a xlink:title=" ">
<path fill="none" stroke="#63b8ff" d="M112.11,-178.38C135.87,-193.2 183.84,-221.5 228,-237.7 364.56,-287.82 402.04,-308.7 547.5,-308.7 547.5,-308.7 547.5,-308.7 757.5,-308.7 883.49,-308.7 1032.07,-308.7 1105.94,-308.7"/>
<polygon fill="#63b8ff" stroke="#63b8ff" points="1106.28,-312.2 1116.28,-308.7 1106.28,-305.2 1106.28,-312.2"/>
</a>
</g>
</g>
<!-- Node10 -->
<g id="Node000010" class="node">
<title>Node10</title>
<g id="a_Node000010"><a xlink:href="classTmc9660Handler.html#a393382194d0602e7aa02da6a8fd7a20a" target="_top" xlink:title="Get a reference to the Temperature wrapper.">
<polygon fill="white" stroke="#666666" points="1237,-147.2 1070,-147.2 1070,-128.2 1237,-128.2 1237,-147.2"/>
<text text-anchor="middle" x="1153.5" y="-135.2" font-family="Helvetica,sans-Serif" font-size="10.00">Tmc9660Handler::temperature</text>
</a>
</g>
</g>
<!-- Node1&#45;&gt;Node10 -->
<g id="edge29_Node000001_Node000010" class="edge">
<title>Node1&#45;&gt;Node10</title>
<g id="a_edge29_Node000001_Node000010"><a xlink:title=" ">
<path fill="none" stroke="#63b8ff" d="M102.56,-159.16C118.3,-133.19 166.07,-61.24 228,-32.7 357.2,26.82 405.25,-13.7 547.5,-13.7 547.5,-13.7 547.5,-13.7 757.5,-13.7 883.64,-13.7 915.43,-34.68 1034,-77.7 1067.72,-89.94 1104.22,-109.46 1127.67,-122.89"/>
<polygon fill="#63b8ff" stroke="#63b8ff" points="1126.17,-126.07 1136.57,-128.07 1129.68,-120.02 1126.17,-126.07"/>
</a>
</g>
</g>
<!-- Node11 -->
<g id="Node000011" class="node">
<title>Node11</title>
<g id="a_Node000011"><a xlink:href="classTmc9660Handler.html#ac7549efc59aeedcc3c29e39f13a529fa" target="_top" xlink:title="Read the TMC9660 internal chip temperature.">
<polygon fill="white" stroke="#666666" points="434,-157.2 228,-157.2 228,-138.2 434,-138.2 434,-157.2"/>
<text text-anchor="middle" x="331" y="-145.2" font-family="Helvetica,sans-Serif" font-size="10.00">Tmc9660Handler::GetChipTemperature</text>
</a>
</g>
</g>
<!-- Node1&#45;&gt;Node11 -->
<g id="edge15_Node000001_Node000011" class="edge">
<title>Node1&#45;&gt;Node11</title>
<g id="a_edge15_Node000001_Node000011"><a xlink:title=" ">
<path fill="none" stroke="#63b8ff" d="M192.11,-160.13C200.61,-159.37 209.27,-158.58 217.89,-157.81"/>
<polygon fill="#63b8ff" stroke="#63b8ff" points="218.35,-161.28 227.99,-156.9 217.72,-154.31 218.35,-161.28"/>
</a>
</g>
</g>
<!-- Node13 -->
<g id="Node000013" class="node">
<title>Node13</title>
<g id="a_Node000013"><a xlink:href="classTmc9660Handler.html#abf940d362343d814f6233e5d7c5deec6" target="_top" xlink:title="Read the TMC9660 general error flags register.">
<polygon fill="white" stroke="#666666" points="404,-119.7 258,-119.7 258,-89.7 404,-89.7 404,-119.7"/>
<text text-anchor="start" x="266" y="-107.7" font-family="Helvetica,sans-Serif" font-size="10.00">Tmc9660Handler::GetError</text>
<text text-anchor="middle" x="331" y="-96.7" font-family="Helvetica,sans-Serif" font-size="10.00">Flags</text>
</a>
</g>
</g>
<!-- Node1&#45;&gt;Node13 -->
<g id="edge21_Node000001_Node000013" class="edge">
<title>Node1&#45;&gt;Node13</title>
<g id="a_edge21_Node000001_Node000013"><a xlink:title=" ">
<path fill="none" stroke="#63b8ff" d="M126.24,-159.18C152.68,-150.7 192.76,-138.22 228,-128.7 236.14,-126.5 244.68,-124.32 253.2,-122.2"/>
<polygon fill="#63b8ff" stroke="#63b8ff" points="254.3,-125.54 263.18,-119.77 252.63,-118.74 254.3,-125.54"/>
</a>
</g>
</g>
<!-- Node14 -->
<g id="Node000014" class="node">
<title>Node14</title>
<g id="a_Node000014"><a xlink:href="classTmc9660Handler.html#ac567ae5400150e93dc770baac13355e2" target="_top" xlink:title="Read the TMC9660 general status flags register.">
<polygon fill="white" stroke="#666666" points="408,-71.7 254,-71.7 254,-41.7 408,-41.7 408,-71.7"/>
<text text-anchor="start" x="262" y="-59.7" font-family="Helvetica,sans-Serif" font-size="10.00">Tmc9660Handler::GetStatus</text>
<text text-anchor="middle" x="331" y="-48.7" font-family="Helvetica,sans-Serif" font-size="10.00">Flags</text>
</a>
</g>
</g>
<!-- Node1&#45;&gt;Node14 -->
<g id="edge23_Node000001_Node000014" class="edge">
<title>Node1&#45;&gt;Node14</title>
<g id="a_edge23_Node000001_Node000014"><a xlink:title=" ">
<path fill="none" stroke="#63b8ff" d="M108.09,-159.18C129.69,-141.13 179.53,-101.84 228,-80.7 233.11,-78.48 238.45,-76.44 243.9,-74.58"/>
<polygon fill="#63b8ff" stroke="#63b8ff" points="245.35,-77.79 253.81,-71.41 243.22,-71.12 245.35,-77.79"/>
</a>
</g>
</g>
<!-- Node15 -->
<g id="Node000015" class="node">
<title>Node15</title>
<g id="a_Node000015"><a xlink:href="classTmc9660Handler.html#a3d6437320844ff3ffe77eada12ad7ea7" target="_top" xlink:title="Read the motor supply voltage.">
<polygon fill="white" stroke="#666666" points="409,-205.7 253,-205.7 253,-175.7 409,-175.7 409,-205.7"/>
<text text-anchor="start" x="261" y="-193.7" font-family="Helvetica,sans-Serif" font-size="10.00">Tmc9660Handler::GetSupply</text>
<text text-anchor="middle" x="331" y="-182.7" font-family="Helvetica,sans-Serif" font-size="10.00">Voltage</text>
</a>
</g>
</g>
<!-- Node1&#45;&gt;Node15 -->
<g id="edge24_Node000001_Node000015" class="edge">
<title>Node1&#45;&gt;Node15</title>
<g id="a_edge24_Node000001_Node000015"><a xlink:title=" ">
<path fill="none" stroke="#63b8ff" d="M192.11,-177.68C208.78,-179.26 226.06,-180.89 242.51,-182.44"/>
<polygon fill="#63b8ff" stroke="#63b8ff" points="242.35,-185.94 252.64,-183.4 243.01,-178.97 242.35,-185.94"/>
</a>
</g>
</g>
<!-- Node3 -->
<g id="Node000003" class="node">
<title>Node3</title>
<g id="a_Node000003"><a xlink:href="classTmc9660Handler.html#adc564847f8ae26c47412aaee0758991c" target="_top" xlink:title="Initialize the TMC9660 device.">
<polygon fill="white" stroke="#666666" points="1034,-280.2 886,-280.2 886,-261.2 1034,-261.2 1034,-280.2"/>
<text text-anchor="middle" x="960" y="-268.2" font-family="Helvetica,sans-Serif" font-size="10.00">Tmc9660Handler::Initialize</text>
</a>
</g>
</g>
<!-- Node2&#45;&gt;Node3 -->
<g id="edge2_Node000002_Node000003" class="edge">
<title>Node2&#45;&gt;Node3</title>
<g id="a_edge2_Node000002_Node000003"><a xlink:title=" ">
<path fill="none" stroke="#63b8ff" d="M791.23,-223.24C825.23,-232.86 877.86,-247.75 915.1,-258.28"/>
<polygon fill="#63b8ff" stroke="#63b8ff" points="914.59,-261.78 925.16,-261.13 916.49,-255.04 914.59,-261.78"/>
</a>
</g>
</g>
<!-- Node9 -->
<g id="Node000009" class="node">
<title>Node9</title>
<g id="a_Node000009"><a xlink:href="classTmc9660Handler.html#a13db97d201a287d8aa60384e04070b9f" target="_top" xlink:title="Check if the TMC9660 driver has been initialized and is ready.">
<polygon fill="white" stroke="#666666" points="1225.5,-243.7 1081.5,-243.7 1081.5,-213.7 1225.5,-213.7 1225.5,-243.7"/>
<text text-anchor="start" x="1089.5" y="-231.7" font-family="Helvetica,sans-Serif" font-size="10.00">Tmc9660Handler::IsDriver</text>
<text text-anchor="middle" x="1153.5" y="-220.7" font-family="Helvetica,sans-Serif" font-size="10.00">Ready</text>
</a>
</g>
</g>
<!-- Node2&#45;&gt;Node9 -->
<g id="edge14_Node000002_Node000009" class="edge">
<title>Node2&#45;&gt;Node9</title>
<g id="a_edge14_Node000002_Node000009"><a xlink:title=" ">
<path fill="none" stroke="#63b8ff" d="M850.11,-217.22C917.21,-219.77 1007.06,-223.18 1071.35,-225.62"/>
<polygon fill="#63b8ff" stroke="#63b8ff" points="1071.32,-229.12 1081.44,-226 1071.58,-222.13 1071.32,-229.12"/>
</a>
</g>
</g>
<!-- Node4 -->
<g id="Node000004" class="node">
<title>Node4</title>
<g id="a_Node000004"><a xlink:href="classLogger.html#a5e4bcdaea60b9ac227b564d780388769" target="_top" xlink:title="Log error message.">
<polygon fill="white" stroke="#666666" points="1193,-281.2 1114,-281.2 1114,-262.2 1193,-262.2 1193,-281.2"/>
<text text-anchor="middle" x="1153.5" y="-269.2" font-family="Helvetica,sans-Serif" font-size="10.00">Logger::Error</text>
</a>
</g>
</g>
<!-- Node3&#45;&gt;Node4 -->
<g id="edge3_Node000003_Node000004" class="edge">
<title>Node3&#45;&gt;Node4</title>
<g id="a_edge3_Node000003_Node000004"><a xlink:title=" ">
<path fill="none" stroke="#63b8ff" d="M1034.22,-271.09C1057.54,-271.21 1082.75,-271.34 1103.88,-271.45"/>
<polygon fill="#63b8ff" stroke="#63b8ff" points="1103.88,-274.95 1113.9,-271.5 1103.92,-267.95 1103.88,-274.95"/>
</a>
</g>
</g>
<!-- Node3&#45;&gt;Node7 -->
<g id="edge6_Node000003_Node000007" class="edge">
<title>Node3&#45;&gt;Node7</title>
<g id="a_edge6_Node000003_Node000007"><a xlink:title=" ">
<path fill="none" stroke="#63b8ff" d="M976.28,-280.38C996.84,-293 1034.87,-314.95 1070,-327.7 1075.97,-329.87 1082.28,-331.82 1088.64,-333.56"/>
<polygon fill="#63b8ff" stroke="#63b8ff" points="1088.1,-337.04 1098.65,-336.13 1089.84,-330.26 1088.1,-337.04"/>
</a>
</g>
</g>
<!-- Node3&#45;&gt;Node8 -->
<g id="edge7_Node000003_Node000008" class="edge">
<title>Node3&#45;&gt;Node8</title>
<g id="a_edge7_Node000003_Node000008"><a xlink:title=" ">
<path fill="none" stroke="#63b8ff" d="M1009.32,-280.29C1039.06,-286.19 1076.96,-293.71 1106.29,-299.53"/>
<polygon fill="#63b8ff" stroke="#63b8ff" points="1105.79,-303 1116.28,-301.52 1107.16,-296.14 1105.79,-303"/>
</a>
</g>
</g>
<!-- Node3&#45;&gt;Node9 -->
<g id="edge10_Node000003_Node000009" class="edge">
<title>Node3&#45;&gt;Node9</title>
<g id="a_edge10_Node000003_Node000009"><a xlink:title=" ">
<path fill="none" stroke="#63b8ff" d="M1004.45,-261.17C1025.02,-256.66 1050.23,-251.13 1073.98,-245.92"/>
<polygon fill="#63b8ff" stroke="#63b8ff" points="1075.03,-249.28 1084.05,-243.72 1073.53,-242.44 1075.03,-249.28"/>
</a>
</g>
</g>
<!-- Node3&#45;&gt;Node10 -->
<g id="edge11_Node000003_Node000010" class="edge">
<title>Node3&#45;&gt;Node10</title>
<g id="a_edge11_Node000003_Node000010"><a xlink:title=" ">
<path fill="none" stroke="#63b8ff" d="M974.77,-261.14C1007.54,-238.38 1090.39,-180.84 1130.31,-153.11"/>
<polygon fill="#63b8ff" stroke="#63b8ff" points="1132.38,-155.94 1138.6,-147.36 1128.39,-150.19 1132.38,-155.94"/>
</a>
</g>
</g>
<!-- Node5 -->
<g id="Node000005" class="node">
<title>Node5</title>
<g id="a_Node000005"><a xlink:href="classLogger.html#a737b981213c02321a5235848334d7191" target="_top" xlink:title="Check if log level is enabled for tag.">
<polygon fill="white" stroke="#666666" points="1402,-318.2 1273,-318.2 1273,-299.2 1402,-299.2 1402,-318.2"/>
<text text-anchor="middle" x="1337.5" y="-306.2" font-family="Helvetica,sans-Serif" font-size="10.00">Logger::IsLevelEnabled</text>
</a>
</g>
</g>
<!-- Node4&#45;&gt;Node5 -->
<g id="edge4_Node000004_Node000005" class="edge">
<title>Node4&#45;&gt;Node5</title>
<g id="a_edge4_Node000004_Node000005"><a xlink:title=" ">
<path fill="none" stroke="#63b8ff" d="M1193.1,-279.55C1218.19,-284.65 1251.34,-291.39 1279.45,-297.11"/>
<polygon fill="#63b8ff" stroke="#63b8ff" points="1279.06,-300.6 1289.56,-299.16 1280.45,-293.74 1279.06,-300.6"/>
</a>
</g>
</g>
<!-- Node6 -->
<g id="Node000006" class="node">
<title>Node6</title>
<g id="a_Node000006"><a xlink:href="classLogger.html#aeede6ac18db92a47caede076ef188a13" target="_top" xlink:title="Internal logging method.">
<polygon fill="white" stroke="#666666" points="1392.5,-281.2 1282.5,-281.2 1282.5,-262.2 1392.5,-262.2 1392.5,-281.2"/>
<text text-anchor="middle" x="1337.5" y="-269.2" font-family="Helvetica,sans-Serif" font-size="10.00">Logger::LogInternal</text>
</a>
</g>
</g>
<!-- Node4&#45;&gt;Node6 -->
<g id="edge5_Node000004_Node000006" class="edge">
<title>Node4&#45;&gt;Node6</title>
<g id="a_edge5_Node000004_Node000006"><a xlink:title=" ">
<path fill="none" stroke="#63b8ff" d="M1193.1,-271.7C1216.03,-271.7 1245.71,-271.7 1272.11,-271.7"/>
<polygon fill="#63b8ff" stroke="#63b8ff" points="1272.43,-275.2 1282.43,-271.7 1272.43,-268.2 1272.43,-275.2"/>
</a>
</g>
</g>
<!-- Node8&#45;&gt;Node5 -->
<g id="edge8_Node000008_Node000005" class="edge">
<title>Node8&#45;&gt;Node5</title>
<g id="a_edge8_Node000008_Node000005"><a xlink:title=" ">
<path fill="none" stroke="#63b8ff" d="M1190.89,-308.7C1211.5,-308.7 1238.03,-308.7 1262.79,-308.7"/>
<polygon fill="#63b8ff" stroke="#63b8ff" points="1262.9,-312.2 1272.9,-308.7 1262.9,-305.2 1262.9,-312.2"/>
</a>
</g>
</g>
<!-- Node8&#45;&gt;Node6 -->
<g id="edge9_Node000008_Node000006" class="edge">
<title>Node8&#45;&gt;Node6</title>
<g id="a_edge9_Node000008_Node000006"><a xlink:title=" ">
<path fill="none" stroke="#63b8ff" d="M1190.89,-301.3C1216.23,-296.15 1250.52,-289.18 1279.46,-283.3"/>
<polygon fill="#63b8ff" stroke="#63b8ff" points="1280.35,-286.69 1289.45,-281.27 1278.95,-279.83 1280.35,-286.69"/>
</a>
</g>
</g>
<!-- Node10&#45;&gt;Node2 -->
<g id="edge12_Node000010_Node000002" class="edge">
<title>Node10&#45;&gt;Node2</title>
<g id="a_edge12_Node000010_Node000002"><a xlink:title=" ">
<path fill="none" stroke="#63b8ff" d="M1122.05,-147.24C1098.26,-154.44 1064.27,-164.16 1034,-170.7 971.08,-184.31 899.22,-195.35 844.53,-202.83"/>
<polygon fill="#63b8ff" stroke="#63b8ff" points="843.96,-199.38 834.53,-204.19 844.91,-206.32 843.96,-199.38"/>
</a>
</g>
</g>
<!-- Node10&#45;&gt;Node10 -->
<g id="edge13_Node000010_Node000010" class="edge">
<title>Node10&#45;&gt;Node10</title>
<g id="a_edge13_Node000010_Node000010"><a xlink:title=" ">
<path fill="none" stroke="#63b8ff" d="M1125.14,-147.29C1111.34,-155.94 1120.8,-165.2 1153.5,-165.2 1175.98,-165.2 1187.48,-160.82 1187.98,-155.28"/>
<polygon fill="#63b8ff" stroke="#63b8ff" points="1190.72,-153.09 1181.86,-147.29 1185.16,-157.35 1190.72,-153.09"/>
</a>
</g>
</g>
<!-- Node11&#45;&gt;Node2 -->
<g id="edge16_Node000011_Node000002" class="edge">
<title>Node11&#45;&gt;Node2</title>
<g id="a_edge16_Node000011_Node000002"><a xlink:title=" ">
<path fill="none" stroke="#63b8ff" d="M388.03,-138.17C403.02,-135.37 419.17,-132.14 434,-128.7 450.18,-124.96 453.55,-120.95 470,-118.7 539.14,-109.28 560.73,-96.87 627,-118.7 673.67,-134.08 717.27,-173.65 739.71,-196.58"/>
<polygon fill="#63b8ff" stroke="#63b8ff" points="737.3,-199.12 746.74,-203.93 742.36,-194.28 737.3,-199.12"/>
</a>
</g>
</g>
<!-- Node11&#45;&gt;Node10 -->
<g id="edge17_Node000011_Node000010" class="edge">
<title>Node11&#45;&gt;Node10</title>
<g id="a_edge17_Node000011_Node000010"><a xlink:title=" ">
<path fill="none" stroke="#63b8ff" d="M405.06,-138.17C414.99,-135.71 424.89,-132.61 434,-128.7 452.14,-120.93 451.22,-108.78 470,-102.7 702.12,-27.65 1001.66,-95.74 1110.57,-125.45"/>
<polygon fill="#63b8ff" stroke="#63b8ff" points="1109.94,-128.9 1120.51,-128.2 1111.8,-122.16 1109.94,-128.9"/>
</a>
</g>
</g>
<!-- Node12 -->
<g id="Node000012" class="node">
<title>Node12</title>
<g id="a_Node000012"><a xlink:href="classTmc9660Handler.html#a4360829b58deda85e9da4b9cebee96f0" target="_top" xlink:title="Execute a function on the underlying typed TMC9660 driver.">
<polygon fill="white" stroke="#666666" points="627,-147.2 470,-147.2 470,-128.2 627,-128.2 627,-147.2"/>
<text text-anchor="middle" x="548.5" y="-135.2" font-family="Helvetica,sans-Serif" font-size="10.00">Tmc9660Handler::visitDriver</text>
</a>
</g>
</g>
<!-- Node11&#45;&gt;Node12 -->
<g id="edge18_Node000011_Node000012" class="edge">
<title>Node11&#45;&gt;Node12</title>
<g id="a_edge18_Node000011_Node000012"><a xlink:title=" ">
<path fill="none" stroke="#63b8ff" d="M434.07,-142.97C442.66,-142.57 451.29,-142.17 459.75,-141.78"/>
<polygon fill="#63b8ff" stroke="#63b8ff" points="460.15,-145.26 469.97,-141.3 459.82,-138.27 460.15,-145.26"/>
</a>
</g>
</g>
<!-- Node12&#45;&gt;Node2 -->
<g id="edge19_Node000012_Node000002" class="edge">
<title>Node12&#45;&gt;Node2</title>
<g id="a_edge19_Node000012_Node000002"><a xlink:title=" ">
<path fill="none" stroke="#63b8ff" d="M575.59,-147.33C612.2,-160.83 678.92,-185.45 720.01,-200.61"/>
<polygon fill="#63b8ff" stroke="#63b8ff" points="719.03,-203.98 729.62,-204.16 721.45,-197.41 719.03,-203.98"/>
</a>
</g>
</g>
<!-- Node12&#45;&gt;Node10 -->
<g id="edge20_Node000012_Node000010" class="edge">
<title>Node12&#45;&gt;Node10</title>
<g id="a_edge20_Node000012_Node000010"><a xlink:title=" ">
<path fill="none" stroke="#63b8ff" d="M627.1,-137.7C737.9,-137.7 941.14,-137.7 1059.74,-137.7"/>
<polygon fill="#63b8ff" stroke="#63b8ff" points="1059.89,-141.2 1069.89,-137.7 1059.89,-134.2 1059.89,-141.2"/>
</a>
</g>
</g>
<!-- Node15&#45;&gt;Node2 -->
<g id="edge25_Node000015_Node000002" class="edge">
<title>Node15&#45;&gt;Node2</title>
<g id="a_edge25_Node000015_Node000002"><a xlink:title=" ">
<path fill="none" stroke="#63b8ff" d="M409.18,-194.9C477.43,-198.6 577.51,-204.04 652.56,-208.11"/>
<polygon fill="#63b8ff" stroke="#63b8ff" points="652.8,-211.63 662.98,-208.68 653.18,-204.64 652.8,-211.63"/>
</a>
</g>
</g>
<!-- Node15&#45;&gt;Node10 -->
<g id="edge26_Node000015_Node000010" class="edge">
<title>Node15&#45;&gt;Node10</title>
<g id="a_edge26_Node000015_Node000010"><a xlink:title=" ">
<path fill="none" stroke="#63b8ff" d="M409.19,-185.72C560.7,-175.93 896.45,-154.24 1059.73,-143.7"/>
<polygon fill="#63b8ff" stroke="#63b8ff" points="1060,-147.19 1069.75,-143.05 1059.55,-140.2 1060,-147.19"/>
</a>
</g>
</g>
<!-- Node15&#45;&gt;Node12 -->
<g id="edge27_Node000015_Node000012" class="edge">
<title>Node15&#45;&gt;Node12</title>
<g id="a_edge27_Node000015_Node000012"><a xlink:title=" ">
<path fill="none" stroke="#63b8ff" d="M393.49,-175.65C406.85,-172.37 420.9,-168.93 434,-165.7 455.33,-160.46 478.91,-154.64 499.02,-149.68"/>
<polygon fill="#63b8ff" stroke="#63b8ff" points="500.02,-153.04 508.89,-147.24 498.34,-146.24 500.02,-153.04"/>
</a>
</g>
</g>
</g>
</svg>
