<?xml version="1.0" encoding="UTF-8" standalone="no"?>
<!DOCTYPE svg PUBLIC "-//W3C//DTD SVG 1.1//EN"
 "http://www.w3.org/Graphics/SVG/1.1/DTD/svg11.dtd">
<!-- Generated by graphviz version 2.43.0 (0)
 -->
<!-- Title: Pca9685Handler::initializeInternal Pages: 1 -->
<svg width="875pt" height="326pt"
 viewBox="0.00 0.00 875.00 326.00" xmlns="http://www.w3.org/2000/svg" xmlns:xlink="http://www.w3.org/1999/xlink">
<g id="graph0" class="graph" transform="scale(1 1) rotate(0) translate(4 322)">
<title>Pca9685Handler::initializeInternal</title>
<!-- Node1 -->
<g id="Node000001" class="node">
<title>Node1</title>
<g id="a_Node000001"><a xlink:title="Internal initialization (called under mutex).">
<polygon fill="#999999" stroke="#666666" points="867,-174 723,-174 723,-144 867,-144 867,-174"/>
<text text-anchor="start" x="731" y="-162" font-family="Helvetica,sans-Serif" font-size="10.00">Pca9685Handler::initialize</text>
<text text-anchor="middle" x="795" y="-151" font-family="Helvetica,sans-Serif" font-size="10.00">Internal</text>
</a>
</g>
</g>
<!-- Node2 -->
<g id="Node000002" class="node">
<title>Node2</title>
<g id="a_Node000002"><a xlink:href="classPca9685Handler.html#a088d4c2eecbd5c39480a5dddf73d91d3" target="_top" xlink:title="Ensure the handler is initialized (lazy initialization).">
<polygon fill="white" stroke="#666666" points="687,-228.5 504,-228.5 504,-209.5 687,-209.5 687,-228.5"/>
<text text-anchor="middle" x="595.5" y="-216.5" font-family="Helvetica,sans-Serif" font-size="10.00">Pca9685Handler::EnsureInitialized</text>
</a>
</g>
</g>
<!-- Node1&#45;&gt;Node2 -->
<g id="edge1_Node000001_Node000002" class="edge">
<title>Node1&#45;&gt;Node2</title>
<g id="a_edge1_Node000001_Node000002"><a xlink:title=" ">
<path fill="none" stroke="#63b8ff" d="M734.74,-177C699.62,-187.67 656.52,-200.77 627.88,-209.47"/>
<polygon fill="#63b8ff" stroke="#63b8ff" points="735.87,-180.32 744.42,-174.06 733.83,-173.62 735.87,-180.32"/>
</a>
</g>
</g>
<!-- Node10 -->
<g id="Node000010" class="node">
<title>Node10</title>
<g id="a_Node000010"><a xlink:href="classPca9685Handler.html#abc72cbb1c0ffd4410143d52c605e0e49" target="_top" xlink:title="Check init under already&#45;held handler_mutex_.">
<polygon fill="white" stroke="#666666" points="687,-115 504,-115 504,-85 687,-85 687,-115"/>
<text text-anchor="start" x="512" y="-103" font-family="Helvetica,sans-Serif" font-size="10.00">Pca9685Handler::ensureInitialized</text>
<text text-anchor="middle" x="595.5" y="-92" font-family="Helvetica,sans-Serif" font-size="10.00">Locked</text>
</a>
</g>
</g>
<!-- Node1&#45;&gt;Node10 -->
<g id="edge10_Node000001_Node000010" class="edge">
<title>Node1&#45;&gt;Node10</title>
<g id="a_edge10_Node000001_Node000010"><a xlink:title=" ">
<path fill="none" stroke="#63b8ff" d="M734.01,-141.08C706.12,-132.75 673.32,-122.95 646.76,-115.01"/>
<polygon fill="#63b8ff" stroke="#63b8ff" points="733.07,-144.45 743.65,-143.96 735.07,-137.74 733.07,-144.45"/>
</a>
</g>
</g>
<!-- Node3 -->
<g id="Node000003" class="node">
<title>Node3</title>
<g id="a_Node000003"><a xlink:href="full__system__integration__test_8cpp.html#a0ffcd10e1f0034357e4d75e4e19504be" target="_top" xlink:title=" ">
<polygon fill="white" stroke="#666666" points="443,-311.5 344,-311.5 344,-292.5 443,-292.5 443,-311.5"/>
<text text-anchor="middle" x="393.5" y="-299.5" font-family="Helvetica,sans-Serif" font-size="10.00">i2c_handler_task</text>
</a>
</g>
</g>
<!-- Node2&#45;&gt;Node3 -->
<g id="edge2_Node000002_Node000003" class="edge">
<title>Node2&#45;&gt;Node3</title>
<g id="a_edge2_Node000002_Node000003"><a xlink:title=" ">
<path fill="none" stroke="#63b8ff" d="M565.47,-232.91C540.02,-244.91 501.9,-262.4 468,-276 453.43,-281.85 436.97,-287.73 423.33,-292.42"/>
<polygon fill="#63b8ff" stroke="#63b8ff" points="567.03,-236.05 574.57,-228.6 564.03,-229.72 567.03,-236.05"/>
</a>
</g>
</g>
<!-- Node6 -->
<g id="Node000006" class="node">
<title>Node6</title>
<g id="a_Node000006"><a xlink:href="classPca9685PwmAdapter.html#a4444ef91c028f448f8fd2d06a4d90992" target="_top" xlink:title="Initialize the PWM adapter (ensures parent handler is initialized).">
<polygon fill="white" stroke="#666666" points="456.5,-234 330.5,-234 330.5,-204 456.5,-204 456.5,-234"/>
<text text-anchor="start" x="338.5" y="-222" font-family="Helvetica,sans-Serif" font-size="10.00">Pca9685PwmAdapter::</text>
<text text-anchor="middle" x="393.5" y="-211" font-family="Helvetica,sans-Serif" font-size="10.00">Initialize</text>
</a>
</g>
</g>
<!-- Node2&#45;&gt;Node6 -->
<g id="edge5_Node000002_Node000006" class="edge">
<title>Node2&#45;&gt;Node6</title>
<g id="a_edge5_Node000002_Node000006"><a xlink:title=" ">
<path fill="none" stroke="#63b8ff" d="M493.76,-219C481.16,-219 468.56,-219 456.79,-219"/>
<polygon fill="#63b8ff" stroke="#63b8ff" points="493.86,-222.5 503.86,-219 493.86,-215.5 493.86,-222.5"/>
</a>
</g>
</g>
<!-- Node8 -->
<g id="Node000008" class="node">
<title>Node8</title>
<g id="a_Node000008"><a xlink:href="classPca9685GpioPin.html#aad888b977f799ca7c4f1f35eb9644311" target="_top" xlink:title="Initialize the GPIO pin (sets channel to full&#45;off by default).">
<polygon fill="white" stroke="#666666" points="465,-185.5 322,-185.5 322,-166.5 465,-166.5 465,-185.5"/>
<text text-anchor="middle" x="393.5" y="-173.5" font-family="Helvetica,sans-Serif" font-size="10.00">Pca9685GpioPin::Initialize</text>
</a>
</g>
</g>
<!-- Node2&#45;&gt;Node8 -->
<g id="edge7_Node000002_Node000008" class="edge">
<title>Node2&#45;&gt;Node8</title>
<g id="a_edge7_Node000002_Node000008"><a xlink:title=" ">
<path fill="none" stroke="#63b8ff" d="M540.08,-207.3C508.28,-200.46 468.64,-191.94 438.76,-185.52"/>
<polygon fill="#63b8ff" stroke="#63b8ff" points="539.6,-210.78 550.11,-209.46 541.07,-203.93 539.6,-210.78"/>
</a>
</g>
</g>
<!-- Node9 -->
<g id="Node000009" class="node">
<title>Node9</title>
<g id="a_Node000009"><a xlink:href="full__system__integration__test_8cpp.html#a5a65d07819438b3ffa159258ea42a9ea" target="_top" xlink:title=" ">
<polygon fill="white" stroke="#666666" points="264,-269.5 120,-269.5 120,-250.5 264,-250.5 264,-269.5"/>
<text text-anchor="middle" x="192" y="-257.5" font-family="Helvetica,sans-Serif" font-size="10.00">test_i2c_multi_device_init</text>
</a>
</g>
</g>
<!-- Node2&#45;&gt;Node9 -->
<g id="edge8_Node000002_Node000009" class="edge">
<title>Node2&#45;&gt;Node9</title>
<g id="a_edge8_Node000002_Node000009"><a xlink:title=" ">
<path fill="none" stroke="#63b8ff" d="M541.62,-230.57C519.04,-235.11 492.33,-239.95 468,-243 399.06,-251.64 319.82,-255.94 264.16,-258.06"/>
<polygon fill="#63b8ff" stroke="#63b8ff" points="542.58,-233.95 551.68,-228.51 541.18,-227.09 542.58,-233.95"/>
</a>
</g>
</g>
<!-- Node4 -->
<g id="Node000004" class="node">
<title>Node4</title>
<g id="a_Node000004"><a xlink:href="full__system__integration__test_8cpp.html#ab02326456d9f2a9466cae859c06f9f1a" target="_top" xlink:title=" ">
<polygon fill="white" stroke="#666666" points="248,-318 136,-318 136,-288 248,-288 248,-318"/>
<text text-anchor="start" x="144" y="-306" font-family="Helvetica,sans-Serif" font-size="10.00">test_concurrent_i2c</text>
<text text-anchor="middle" x="192" y="-295" font-family="Helvetica,sans-Serif" font-size="10.00">_access</text>
</a>
</g>
</g>
<!-- Node3&#45;&gt;Node4 -->
<g id="edge3_Node000003_Node000004" class="edge">
<title>Node3&#45;&gt;Node4</title>
<g id="a_edge3_Node000003_Node000004"><a xlink:title=" ">
<path fill="none" stroke="#63b8ff" d="M333.83,-302.29C306.74,-302.43 274.76,-302.59 248.12,-302.72"/>
<polygon fill="#63b8ff" stroke="#63b8ff" points="333.97,-305.79 343.95,-302.24 333.93,-298.79 333.97,-305.79"/>
</a>
</g>
</g>
<!-- Node5 -->
<g id="Node000005" class="node">
<title>Node5</title>
<g id="a_Node000005"><a xlink:href="full__system__integration__test_8cpp.html#a630544a7f0a2cc40d8a7fefab7e2fe70" target="_top" xlink:title=" ">
<polygon fill="white" stroke="#666666" points="65,-290.5 0,-290.5 0,-271.5 65,-271.5 65,-290.5"/>
<text text-anchor="middle" x="32.5" y="-278.5" font-family="Helvetica,sans-Serif" font-size="10.00">app_main</text>
</a>
</g>
</g>
<!-- Node4&#45;&gt;Node5 -->
<g id="edge4_Node000004_Node000005" class="edge">
<title>Node4&#45;&gt;Node5</title>
<g id="a_edge4_Node000004_Node000005"><a xlink:title=" ">
<path fill="none" stroke="#63b8ff" d="M125.8,-293.89C104.93,-290.98 82.75,-287.88 65.37,-285.45"/>
<polygon fill="#63b8ff" stroke="#63b8ff" points="125.53,-297.39 135.91,-295.31 126.49,-290.46 125.53,-297.39"/>
</a>
</g>
</g>
<!-- Node7 -->
<g id="Node000007" class="node">
<title>Node7</title>
<g id="a_Node000007"><a xlink:href="classPca9685Handler.html#a3f5b93ead4b85c137c94a0d0e8d9bb12" target="_top" xlink:title="Get or create the BasePwm adapter for all 16 channels.">
<polygon fill="white" stroke="#666666" points="283,-190.5 101,-190.5 101,-171.5 283,-171.5 283,-190.5"/>
<text text-anchor="middle" x="192" y="-178.5" font-family="Helvetica,sans-Serif" font-size="10.00">Pca9685Handler::GetPwmAdapter</text>
</a>
</g>
</g>
<!-- Node6&#45;&gt;Node7 -->
<g id="edge6_Node000006_Node000007" class="edge">
<title>Node6&#45;&gt;Node7</title>
<g id="a_edge6_Node000006_Node000007"><a xlink:title=" ">
<path fill="none" stroke="#63b8ff" d="M320.4,-205.27C294.72,-200.38 266.39,-194.98 242.98,-190.52"/>
<polygon fill="#63b8ff" stroke="#63b8ff" points="319.99,-208.75 330.47,-207.18 321.3,-201.88 319.99,-208.75"/>
</a>
</g>
</g>
<!-- Node9&#45;&gt;Node5 -->
<g id="edge9_Node000009_Node000005" class="edge">
<title>Node9&#45;&gt;Node5</title>
<g id="a_edge9_Node000009_Node000005"><a xlink:title=" ">
<path fill="none" stroke="#63b8ff" d="M109.33,-270.89C93.65,-272.98 78.13,-275.05 65.25,-276.77"/>
<polygon fill="#63b8ff" stroke="#63b8ff" points="110.17,-274.31 119.62,-269.52 109.25,-267.37 110.17,-274.31"/>
</a>
</g>
</g>
<!-- Node10&#45;&gt;Node7 -->
<g id="edge13_Node000010_Node000007" class="edge">
<title>Node10&#45;&gt;Node7</title>
<g id="a_edge13_Node000010_Node000007"><a xlink:title=" ">
<path fill="none" stroke="#63b8ff" d="M510.12,-117.02C428.07,-133.58 306.42,-158.12 240.17,-171.48"/>
<polygon fill="#63b8ff" stroke="#63b8ff" points="510.81,-120.45 519.92,-115.05 509.43,-113.59 510.81,-120.45"/>
</a>
</g>
</g>
<!-- Node11 -->
<g id="Node000011" class="node">
<title>Node11</title>
<g id="a_Node000011"><a xlink:href="classPca9685Handler.html#a91f6e14b606d4007797234ec9599a134" target="_top" xlink:title="Get the underlying PCA9685 driver for advanced register&#45;level operations.">
<polygon fill="white" stroke="#666666" points="468,-109.5 319,-109.5 319,-90.5 468,-90.5 468,-109.5"/>
<text text-anchor="middle" x="393.5" y="-97.5" font-family="Helvetica,sans-Serif" font-size="10.00">Pca9685Handler::GetDriver</text>
</a>
</g>
</g>
<!-- Node10&#45;&gt;Node11 -->
<g id="edge11_Node000010_Node000011" class="edge">
<title>Node10&#45;&gt;Node11</title>
<g id="a_edge11_Node000010_Node000011"><a xlink:title=" ">
<path fill="none" stroke="#63b8ff" d="M493.72,-100C485.07,-100 476.43,-100 468.05,-100"/>
<polygon fill="#63b8ff" stroke="#63b8ff" points="493.86,-103.5 503.86,-100 493.86,-96.5 493.86,-103.5"/>
</a>
</g>
</g>
<!-- Node13 -->
<g id="Node000013" class="node">
<title>Node13</title>
<g id="a_Node000013"><a xlink:href="classPca9685Handler.html#a989c4b1a8260c7af0bf210103d13cc7b" target="_top" xlink:title=" ">
<polygon fill="white" stroke="#666666" points="458,-72.5 329,-72.5 329,-53.5 458,-53.5 458,-72.5"/>
<text text-anchor="middle" x="393.5" y="-60.5" font-family="Helvetica,sans-Serif" font-size="10.00">Pca9685Handler::Sleep</text>
</a>
</g>
</g>
<!-- Node10&#45;&gt;Node13 -->
<g id="edge14_Node000010_Node000013" class="edge">
<title>Node10&#45;&gt;Node13</title>
<g id="a_edge14_Node000010_Node000013"><a xlink:title=" ">
<path fill="none" stroke="#63b8ff" d="M503.24,-83.12C483.57,-79.48 463.44,-75.75 445.94,-72.52"/>
<polygon fill="#63b8ff" stroke="#63b8ff" points="502.68,-86.57 513.15,-84.95 503.96,-79.69 502.68,-86.57"/>
</a>
</g>
</g>
<!-- Node15 -->
<g id="Node000015" class="node">
<title>Node15</title>
<g id="a_Node000015"><a xlink:href="classPca9685Handler.html#abfea96039e525e253d0eab9234cdfa5f" target="_top" xlink:title=" ">
<polygon fill="white" stroke="#666666" points="457.5,-30.5 329.5,-30.5 329.5,-11.5 457.5,-11.5 457.5,-30.5"/>
<text text-anchor="middle" x="393.5" y="-18.5" font-family="Helvetica,sans-Serif" font-size="10.00">Pca9685Handler::Wake</text>
</a>
</g>
</g>
<!-- Node10&#45;&gt;Node15 -->
<g id="edge16_Node000010_Node000015" class="edge">
<title>Node10&#45;&gt;Node15</title>
<g id="a_edge16_Node000010_Node000015"><a xlink:title=" ">
<path fill="none" stroke="#63b8ff" d="M553.84,-80.59C529.27,-69.22 497.17,-54.98 468,-44 454.99,-39.1 440.42,-34.39 427.7,-30.52"/>
<polygon fill="#63b8ff" stroke="#63b8ff" points="552.66,-83.9 563.2,-84.95 555.62,-77.56 552.66,-83.9"/>
</a>
</g>
</g>
<!-- Node12 -->
<g id="Node000012" class="node">
<title>Node12</title>
<g id="a_Node000012"><a xlink:href="classPca9685Handler.html#a7d3b7d292f41670fcb1b1ecfc803b404" target="_top" xlink:title=" ">
<polygon fill="white" stroke="#666666" points="266.5,-115.5 117.5,-115.5 117.5,-96.5 266.5,-96.5 266.5,-115.5"/>
<text text-anchor="middle" x="192" y="-103.5" font-family="Helvetica,sans-Serif" font-size="10.00">Pca9685Handler::GetDriver</text>
</a>
</g>
</g>
<!-- Node11&#45;&gt;Node12 -->
<g id="edge12_Node000011_Node000012" class="edge">
<title>Node11&#45;&gt;Node12</title>
<g id="a_edge12_Node000011_Node000012"><a xlink:title=" ">
<path fill="none" stroke="#63b8ff" d="M308.72,-102.52C294.78,-102.94 280.42,-103.37 266.75,-103.78"/>
<polygon fill="#63b8ff" stroke="#63b8ff" points="308.89,-106.02 318.78,-102.22 308.68,-99.02 308.89,-106.02"/>
</a>
</g>
</g>
<!-- Node14 -->
<g id="Node000014" class="node">
<title>Node14</title>
<g id="a_Node000014"><a xlink:href="classPca9685PwmAdapter.html#a825a19eb0b16cbf9ebb93a7b6da115d8" target="_top" xlink:title="Put the PCA9685 into sleep mode (stop all outputs).">
<polygon fill="white" stroke="#666666" points="255,-78 129,-78 129,-48 255,-48 255,-78"/>
<text text-anchor="start" x="137" y="-66" font-family="Helvetica,sans-Serif" font-size="10.00">Pca9685PwmAdapter::</text>
<text text-anchor="middle" x="192" y="-55" font-family="Helvetica,sans-Serif" font-size="10.00">StopAll</text>
</a>
</g>
</g>
<!-- Node13&#45;&gt;Node14 -->
<g id="edge15_Node000013_Node000014" class="edge">
<title>Node13&#45;&gt;Node14</title>
<g id="a_edge15_Node000013_Node000014"><a xlink:title=" ">
<path fill="none" stroke="#63b8ff" d="M318.7,-63C297.77,-63 275.2,-63 255.05,-63"/>
<polygon fill="#63b8ff" stroke="#63b8ff" points="318.83,-66.5 328.83,-63 318.83,-59.5 318.83,-66.5"/>
</a>
</g>
</g>
<!-- Node16 -->
<g id="Node000016" class="node">
<title>Node16</title>
<g id="a_Node000016"><a xlink:href="classPca9685PwmAdapter.html#aabd9412420647133c10651ec3caed0d4" target="_top" xlink:title="Wake the PCA9685 from sleep (start all channels).">
<polygon fill="white" stroke="#666666" points="255,-30 129,-30 129,0 255,0 255,-30"/>
<text text-anchor="start" x="137" y="-18" font-family="Helvetica,sans-Serif" font-size="10.00">Pca9685PwmAdapter::</text>
<text text-anchor="middle" x="192" y="-7" font-family="Helvetica,sans-Serif" font-size="10.00">StartAll</text>
</a>
</g>
</g>
<!-- Node15&#45;&gt;Node16 -->
<g id="edge17_Node000015_Node000016" class="edge">
<title>Node15&#45;&gt;Node16</title>
<g id="a_edge17_Node000015_Node000016"><a xlink:title=" ">
<path fill="none" stroke="#63b8ff" d="M319.19,-18.8C298.12,-18.16 275.35,-17.48 255.03,-16.87"/>
<polygon fill="#63b8ff" stroke="#63b8ff" points="319.28,-22.3 329.38,-19.1 319.49,-15.3 319.28,-22.3"/>
</a>
</g>
</g>
</g>
</svg>
