<?xml version="1.0" encoding="UTF-8" standalone="no"?>
<!DOCTYPE svg PUBLIC "-//W3C//DTD SVG 1.1//EN"
 "http://www.w3.org/Graphics/SVG/1.1/DTD/svg11.dtd">
<!-- Generated by graphviz version 2.43.0 (0)
 -->
<!-- Title: Pcal95555GpioPin::Initialize Pages: 1 -->
<svg width="368pt" height="101pt"
 viewBox="0.00 0.00 368.00 101.00" xmlns="http://www.w3.org/2000/svg" xmlns:xlink="http://www.w3.org/1999/xlink">
<g id="graph0" class="graph" transform="scale(1 1) rotate(0) translate(4 97)">
<title>Pcal95555GpioPin::Initialize</title>
<!-- Node1 -->
<g id="Node000001" class="node">
<title>Node1</title>
<g id="a_Node000001"><a xlink:title="Initialize the pin (configures direction and pull mode on the expander).">
<polygon fill="#999999" stroke="#666666" points="152,-56 0,-56 0,-37 152,-37 152,-56"/>
<text text-anchor="middle" x="76" y="-44" font-family="Helvetica,sans-Serif" font-size="10.00">Pcal95555GpioPin::Initialize</text>
</a>
</g>
</g>
<!-- Node2 -->
<g id="Node000002" class="node">
<title>Node2</title>
<g id="a_Node000002"><a xlink:href="classPcal95555Handler.html#a997583346dffe6c95e5f8fcfc127c37b" target="_top" xlink:title="Check if the detected chip supports Agile I/O features.">
<polygon fill="white" stroke="#666666" points="356.5,-93 191.5,-93 191.5,-74 356.5,-74 356.5,-93"/>
<text text-anchor="middle" x="274" y="-81" font-family="Helvetica,sans-Serif" font-size="10.00">Pcal95555Handler::HasAgileIO</text>
</a>
</g>
</g>
<!-- Node1&#45;&gt;Node2 -->
<g id="edge1_Node000001_Node000002" class="edge">
<title>Node1&#45;&gt;Node2</title>
<g id="a_edge1_Node000001_Node000002"><a xlink:title=" ">
<path fill="none" stroke="#63b8ff" d="M127.47,-56.03C153.32,-60.91 184.99,-66.89 212.18,-72.02"/>
<polygon fill="#63b8ff" stroke="#63b8ff" points="211.88,-75.52 222.36,-73.94 213.18,-68.65 211.88,-75.52"/>
</a>
</g>
</g>
<!-- Node3 -->
<g id="Node000003" class="node">
<title>Node3</title>
<g id="a_Node000003"><a xlink:href="classPcal95555Handler.html#a5ff0ad1ac3c4dcaf45dc4c0d27827da7" target="_top" xlink:title="Set the direction of a single pin.">
<polygon fill="white" stroke="#666666" points="359.5,-56 188.5,-56 188.5,-37 359.5,-37 359.5,-56"/>
<text text-anchor="middle" x="274" y="-44" font-family="Helvetica,sans-Serif" font-size="10.00">Pcal95555Handler::SetDirection</text>
</a>
</g>
</g>
<!-- Node1&#45;&gt;Node3 -->
<g id="edge2_Node000001_Node000003" class="edge">
<title>Node1&#45;&gt;Node3</title>
<g id="a_edge2_Node000001_Node000003"><a xlink:title=" ">
<path fill="none" stroke="#63b8ff" d="M152.22,-46.5C160.68,-46.5 169.37,-46.5 178.04,-46.5"/>
<polygon fill="#63b8ff" stroke="#63b8ff" points="178.18,-50 188.18,-46.5 178.18,-43 178.18,-50"/>
</a>
</g>
</g>
<!-- Node4 -->
<g id="Node000004" class="node">
<title>Node4</title>
<g id="a_Node000004"><a xlink:href="classPcal95555Handler.html#ab1ea2933e065e8a224874ba21cb5bf43" target="_top" xlink:title="Set the pull resistor mode for a single pin.">
<polygon fill="white" stroke="#666666" points="360,-19 188,-19 188,0 360,0 360,-19"/>
<text text-anchor="middle" x="274" y="-7" font-family="Helvetica,sans-Serif" font-size="10.00">Pcal95555Handler::SetPullMode</text>
</a>
</g>
</g>
<!-- Node1&#45;&gt;Node4 -->
<g id="edge3_Node000001_Node000004" class="edge">
<title>Node1&#45;&gt;Node4</title>
<g id="a_edge3_Node000001_Node000004"><a xlink:title=" ">
<path fill="none" stroke="#63b8ff" d="M127.47,-36.97C153.32,-32.09 184.99,-26.11 212.18,-20.98"/>
<polygon fill="#63b8ff" stroke="#63b8ff" points="213.18,-24.35 222.36,-19.06 211.88,-17.48 213.18,-24.35"/>
</a>
</g>
</g>
</g>
</svg>
