<?xml version="1.0" encoding="UTF-8" standalone="no"?>
<!DOCTYPE svg PUBLIC "-//W3C//DTD SVG 1.1//EN"
 "http://www.w3.org/Graphics/SVG/1.1/DTD/svg11.dtd">
<!-- Generated by graphviz version 2.43.0 (0)
 -->
<!-- Title: Tle92466edHandler::EnableFeedbackUpdates Pages: 1 -->
<svg width="1123pt" height="138pt"
 viewBox="0.00 0.00 1123.00 138.00" xmlns="http://www.w3.org/2000/svg" xmlns:xlink="http://www.w3.org/1999/xlink">
<g id="graph0" class="graph" transform="scale(1 1) rotate(0) translate(4 134)">
<title>Tle92466edHandler::EnableFeedbackUpdates</title>
<!-- Node1 -->
<g id="Node000001" class="node">
<title>Node1</title>
<g id="a_Node000001"><a xlink:title="Clear the FB_FRZ register so the chip updates FB_DC / FB_I_AVG / FB_VBAT on every channel.">
<polygon fill="#999999" stroke="#666666" points="137,-85.5 0,-85.5 0,-55.5 137,-55.5 137,-85.5"/>
<text text-anchor="start" x="8" y="-73.5" font-family="Helvetica,sans-Serif" font-size="10.00">Tle92466edHandler::</text>
<text text-anchor="middle" x="68.5" y="-62.5" font-family="Helvetica,sans-Serif" font-size="10.00">EnableFeedbackUpdates</text>
</a>
</g>
</g>
<!-- Node2 -->
<g id="Node000002" class="node">
<title>Node2</title>
<g id="a_Node000002"><a xlink:href="classTle92466edHandler.html#aef42f3c7c1b1ef51b27eb8d178aca6bc" target="_top" xlink:title="Execute a lambda with a locked, initialized driver.">
<polygon fill="white" stroke="#666666" points="291,-85.5 173,-85.5 173,-55.5 291,-55.5 291,-85.5"/>
<text text-anchor="start" x="181" y="-73.5" font-family="Helvetica,sans-Serif" font-size="10.00">Tle92466edHandler::</text>
<text text-anchor="middle" x="232" y="-62.5" font-family="Helvetica,sans-Serif" font-size="10.00">withDriver</text>
</a>
</g>
</g>
<!-- Node1&#45;&gt;Node2 -->
<g id="edge1_Node000001_Node000002" class="edge">
<title>Node1&#45;&gt;Node2</title>
<g id="a_edge1_Node000001_Node000002"><a xlink:title=" ">
<path fill="none" stroke="#63b8ff" d="M137.05,-70.5C145.53,-70.5 154.21,-70.5 162.71,-70.5"/>
<polygon fill="#63b8ff" stroke="#63b8ff" points="162.94,-74 172.94,-70.5 162.94,-67 162.94,-74"/>
</a>
</g>
</g>
<!-- Node3 -->
<g id="Node000003" class="node">
<title>Node3</title>
<g id="a_Node000003"><a xlink:href="classTle92466edHandler.html#a59ce7fd71a61c78bba4dc4a43c99e280" target="_top" xlink:title=" ">
<polygon fill="white" stroke="#666666" points="458,-85.5 327,-85.5 327,-55.5 458,-55.5 458,-85.5"/>
<text text-anchor="start" x="335" y="-73.5" font-family="Helvetica,sans-Serif" font-size="10.00">Tle92466edHandler::</text>
<text text-anchor="middle" x="392.5" y="-62.5" font-family="Helvetica,sans-Serif" font-size="10.00">EnsureInitializedLocked</text>
</a>
</g>
</g>
<!-- Node2&#45;&gt;Node3 -->
<g id="edge2_Node000002_Node000003" class="edge">
<title>Node2&#45;&gt;Node3</title>
<g id="a_edge2_Node000002_Node000003"><a xlink:title=" ">
<path fill="none" stroke="#63b8ff" d="M291.12,-70.5C299.5,-70.5 308.22,-70.5 316.87,-70.5"/>
<polygon fill="#63b8ff" stroke="#63b8ff" points="316.97,-74 326.97,-70.5 316.97,-67 316.97,-74"/>
</a>
</g>
</g>
<!-- Node4 -->
<g id="Node000004" class="node">
<title>Node4</title>
<g id="a_Node000004"><a xlink:href="classLogger.html#adce17848a5844e053bfd314863dc1404" target="_top" xlink:title="Log error message.">
<polygon fill="white" stroke="#666666" points="744.5,-130 665.5,-130 665.5,-111 744.5,-111 744.5,-130"/>
<text text-anchor="middle" x="705" y="-118" font-family="Helvetica,sans-Serif" font-size="10.00">Logger::Error</text>
</a>
</g>
</g>
<!-- Node3&#45;&gt;Node4 -->
<g id="edge3_Node000003_Node000004" class="edge">
<title>Node3&#45;&gt;Node4</title>
<g id="a_edge3_Node000003_Node000004"><a xlink:title=" ">
<path fill="none" stroke="#63b8ff" d="M451.46,-85.5C465.33,-88.77 480.14,-92 494,-94.5 548.94,-104.43 612.65,-111.73 655.37,-116.03"/>
<polygon fill="#63b8ff" stroke="#63b8ff" points="655.19,-119.53 665.49,-117.03 655.88,-112.56 655.19,-119.53"/>
</a>
</g>
</g>
<!-- Node8 -->
<g id="Node000008" class="node">
<title>Node8</title>
<g id="a_Node000008"><a xlink:href="classLogger.html#a5789d11f8f1356e2192c0023a089cbc4" target="_top" xlink:title="Get singleton instance.">
<polygon fill="white" stroke="#666666" points="762,-19 648,-19 648,0 762,0 762,-19"/>
<text text-anchor="middle" x="705" y="-7" font-family="Helvetica,sans-Serif" font-size="10.00">Logger::GetInstance</text>
</a>
</g>
</g>
<!-- Node3&#45;&gt;Node8 -->
<g id="edge7_Node000003_Node000008" class="edge">
<title>Node3&#45;&gt;Node8</title>
<g id="a_edge7_Node000003_Node000008"><a xlink:title=" ">
<path fill="none" stroke="#63b8ff" d="M453.95,-55.44C467.12,-52.34 481,-49.19 494,-46.5 541.89,-36.57 596.27,-27.04 637.7,-20.13"/>
<polygon fill="#63b8ff" stroke="#63b8ff" points="638.38,-23.57 647.67,-18.48 637.23,-16.66 638.38,-23.57"/>
</a>
</g>
</g>
<!-- Node9 -->
<g id="Node000009" class="node">
<title>Node9</title>
<g id="a_Node000009"><a xlink:href="classTle92466edHandler.html#ac607f9cf2453e8d1849b40d2dd8e8474" target="_top" xlink:title="Initialize driver (hardware reset + SPI init + enter config mode).">
<polygon fill="white" stroke="#666666" points="612,-85.5 494,-85.5 494,-55.5 612,-55.5 612,-85.5"/>
<text text-anchor="start" x="502" y="-73.5" font-family="Helvetica,sans-Serif" font-size="10.00">Tle92466edHandler::</text>
<text text-anchor="middle" x="553" y="-62.5" font-family="Helvetica,sans-Serif" font-size="10.00">Initialize</text>
</a>
</g>
</g>
<!-- Node3&#45;&gt;Node9 -->
<g id="edge8_Node000003_Node000009" class="edge">
<title>Node3&#45;&gt;Node9</title>
<g id="a_edge8_Node000003_Node000009"><a xlink:title=" ">
<path fill="none" stroke="#63b8ff" d="M458.43,-70.5C466.75,-70.5 475.3,-70.5 483.68,-70.5"/>
<polygon fill="#63b8ff" stroke="#63b8ff" points="483.79,-74 493.79,-70.5 483.79,-67 483.79,-74"/>
</a>
</g>
</g>
<!-- Node5 -->
<g id="Node000005" class="node">
<title>Node5</title>
<g id="a_Node000005"><a xlink:href="classLogger.html#af9e84e0ff6bd538e4f9ed8dcebc3e2f0" target="_top" xlink:title="Check if log level is enabled for tag.">
<polygon fill="white" stroke="#666666" points="927,-111 798,-111 798,-92 927,-92 927,-111"/>
<text text-anchor="middle" x="862.5" y="-99" font-family="Helvetica,sans-Serif" font-size="10.00">Logger::IsLevelEnabled</text>
</a>
</g>
</g>
<!-- Node4&#45;&gt;Node5 -->
<g id="edge4_Node000004_Node000005" class="edge">
<title>Node4&#45;&gt;Node5</title>
<g id="a_edge4_Node000004_Node000005"><a xlink:title=" ">
<path fill="none" stroke="#63b8ff" d="M744.84,-115.75C757.85,-114.16 772.82,-112.34 787.6,-110.53"/>
<polygon fill="#63b8ff" stroke="#63b8ff" points="788.28,-113.97 797.78,-109.29 787.43,-107.02 788.28,-113.97"/>
</a>
</g>
</g>
<!-- Node6 -->
<g id="Node000006" class="node">
<title>Node6</title>
<g id="a_Node000006"><a xlink:href="classLogger.html#a6adb205db597526fb91ad20067400394" target="_top" xlink:title="Internal logging method.">
<polygon fill="white" stroke="#666666" points="917.5,-74 807.5,-74 807.5,-55 917.5,-55 917.5,-74"/>
<text text-anchor="middle" x="862.5" y="-62" font-family="Helvetica,sans-Serif" font-size="10.00">Logger::LogInternal</text>
</a>
</g>
</g>
<!-- Node4&#45;&gt;Node6 -->
<g id="edge5_Node000004_Node000006" class="edge">
<title>Node4&#45;&gt;Node6</title>
<g id="a_edge5_Node000004_Node000006"><a xlink:title=" ">
<path fill="none" stroke="#63b8ff" d="M738.92,-110.98C746.59,-108.47 754.66,-105.59 762,-102.5 778.68,-95.48 781.25,-90.35 798,-83.5 803.53,-81.24 809.42,-79.12 815.31,-77.16"/>
<polygon fill="#63b8ff" stroke="#63b8ff" points="816.67,-80.41 825.14,-74.05 814.55,-73.73 816.67,-80.41"/>
</a>
</g>
</g>
<!-- Node7 -->
<g id="Node000007" class="node">
<title>Node7</title>
<g id="a_Node000007"><a xlink:href="namespaceanonymous__namespace_02Logger_8cpp_03.html#a9d2b496fa1b4f4e28667d14e4b8cb190" target="_top" xlink:title=" ">
<polygon fill="white" stroke="#666666" points="1115,-79.5 963,-79.5 963,-49.5 1115,-49.5 1115,-79.5"/>
<text text-anchor="start" x="971" y="-67.5" font-family="Helvetica,sans-Serif" font-size="10.00">anonymous_namespace</text>
<text text-anchor="middle" x="1039" y="-56.5" font-family="Helvetica,sans-Serif" font-size="10.00">{Logger::cpp}::ToBaseLevel</text>
</a>
</g>
</g>
<!-- Node6&#45;&gt;Node7 -->
<g id="edge6_Node000006_Node000007" class="edge">
<title>Node6&#45;&gt;Node7</title>
<g id="a_edge6_Node000006_Node000007"><a xlink:title=" ">
<path fill="none" stroke="#63b8ff" d="M917.76,-64.5C928.93,-64.5 940.96,-64.5 952.93,-64.5"/>
<polygon fill="#63b8ff" stroke="#63b8ff" points="952.95,-68 962.95,-64.5 952.95,-61 952.95,-68"/>
</a>
</g>
</g>
<!-- Node9&#45;&gt;Node4 -->
<g id="edge9_Node000009_Node000004" class="edge">
<title>Node9&#45;&gt;Node4</title>
<g id="a_edge9_Node000009_Node000004"><a xlink:title=" ">
<path fill="none" stroke="#63b8ff" d="M597.94,-85.63C613.71,-91.02 631.63,-97.08 648,-102.5 653.27,-104.24 658.83,-106.06 664.32,-107.84"/>
<polygon fill="#63b8ff" stroke="#63b8ff" points="663.44,-111.23 674.03,-110.97 665.59,-104.57 663.44,-111.23"/>
</a>
</g>
</g>
<!-- Node9&#45;&gt;Node8 -->
<g id="edge10_Node000009_Node000008" class="edge">
<title>Node9&#45;&gt;Node8</title>
<g id="a_edge10_Node000009_Node000008"><a xlink:title=" ">
<path fill="none" stroke="#63b8ff" d="M585.88,-55.37C603.93,-47.02 627.03,-36.72 648,-28.5 653.26,-26.44 658.84,-24.39 664.37,-22.43"/>
<polygon fill="#63b8ff" stroke="#63b8ff" points="665.86,-25.62 674.17,-19.05 663.57,-19 665.86,-25.62"/>
</a>
</g>
</g>
<!-- Node10 -->
<g id="Node000010" class="node">
<title>Node10</title>
<g id="a_Node000010"><a xlink:href="classLogger.html#a4681229c521795685fc14f6b55c82300" target="_top" xlink:title="Log info message.">
<polygon fill="white" stroke="#666666" points="742,-56 668,-56 668,-37 742,-37 742,-56"/>
<text text-anchor="middle" x="705" y="-44" font-family="Helvetica,sans-Serif" font-size="10.00">Logger::Info</text>
</a>
</g>
</g>
<!-- Node9&#45;&gt;Node10 -->
<g id="edge11_Node000009_Node000010" class="edge">
<title>Node9&#45;&gt;Node10</title>
<g id="a_edge11_Node000009_Node000010"><a xlink:title=" ">
<path fill="none" stroke="#63b8ff" d="M612.42,-61.15C627.38,-58.76 643.27,-56.22 657.54,-53.93"/>
<polygon fill="#63b8ff" stroke="#63b8ff" points="658.28,-57.36 667.6,-52.32 657.18,-50.45 658.28,-57.36"/>
</a>
</g>
</g>
<!-- Node11 -->
<g id="Node000011" class="node">
<title>Node11</title>
<g id="a_Node000011"><a xlink:href="classLogger.html#aaa95ffa14d07a965d4a85bdec82cba26" target="_top" xlink:title="Log warning message.">
<polygon fill="white" stroke="#666666" points="745,-93 665,-93 665,-74 745,-74 745,-93"/>
<text text-anchor="middle" x="705" y="-81" font-family="Helvetica,sans-Serif" font-size="10.00">Logger::Warn</text>
</a>
</g>
</g>
<!-- Node9&#45;&gt;Node11 -->
<g id="edge14_Node000009_Node000011" class="edge">
<title>Node9&#45;&gt;Node11</title>
<g id="a_edge14_Node000009_Node000011"><a xlink:title=" ">
<path fill="none" stroke="#63b8ff" d="M612.42,-75.56C626.45,-76.78 641.29,-78.07 654.85,-79.24"/>
<polygon fill="#63b8ff" stroke="#63b8ff" points="654.67,-82.74 664.94,-80.11 655.27,-75.76 654.67,-82.74"/>
</a>
</g>
</g>
<!-- Node10&#45;&gt;Node5 -->
<g id="edge12_Node000010_Node000005" class="edge">
<title>Node10&#45;&gt;Node5</title>
<g id="a_edge12_Node000010_Node000005"><a xlink:title=" ">
<path fill="none" stroke="#63b8ff" d="M736.51,-56.01C744.86,-58.84 753.85,-62.1 762,-65.5 778.51,-72.39 781.32,-77.03 798,-83.5 803.07,-85.47 808.45,-87.33 813.85,-89.05"/>
<polygon fill="#63b8ff" stroke="#63b8ff" points="812.92,-92.42 823.51,-91.99 814.96,-85.73 812.92,-92.42"/>
</a>
</g>
</g>
<!-- Node10&#45;&gt;Node6 -->
<g id="edge13_Node000010_Node000006" class="edge">
<title>Node10&#45;&gt;Node6</title>
<g id="a_edge13_Node000010_Node000006"><a xlink:title=" ">
<path fill="none" stroke="#63b8ff" d="M742.07,-50.67C758.49,-52.58 778.44,-54.89 797.3,-57.07"/>
<polygon fill="#63b8ff" stroke="#63b8ff" points="797,-60.56 807.33,-58.23 797.8,-53.6 797,-60.56"/>
</a>
</g>
</g>
<!-- Node11&#45;&gt;Node5 -->
<g id="edge15_Node000011_Node000005" class="edge">
<title>Node11&#45;&gt;Node5</title>
<g id="a_edge15_Node000011_Node000005"><a xlink:title=" ">
<path fill="none" stroke="#63b8ff" d="M745.24,-88.04C758.18,-89.54 773.02,-91.26 787.68,-92.95"/>
<polygon fill="#63b8ff" stroke="#63b8ff" points="787.43,-96.45 797.77,-94.12 788.24,-89.5 787.43,-96.45"/>
</a>
</g>
</g>
<!-- Node11&#45;&gt;Node6 -->
<g id="edge16_Node000011_Node000006" class="edge">
<title>Node11&#45;&gt;Node6</title>
<g id="a_edge16_Node000011_Node000006"><a xlink:title=" ">
<path fill="none" stroke="#63b8ff" d="M745.24,-78.71C760.96,-76.78 779.49,-74.52 797.08,-72.37"/>
<polygon fill="#63b8ff" stroke="#63b8ff" points="797.8,-75.81 807.3,-71.12 796.95,-68.86 797.8,-75.81"/>
</a>
</g>
</g>
</g>
</svg>
