<?xml version="1.0" encoding="UTF-8" standalone="no"?>
<!DOCTYPE svg PUBLIC "-//W3C//DTD SVG 1.1//EN"
 "http://www.w3.org/Graphics/SVG/1.1/DTD/svg11.dtd">
<!-- Generated by graphviz version 2.43.0 (0)
 -->
<!-- Title: Ws2812Handler::~Ws2812Handler Pages: 1 -->
<svg width="699pt" height="82pt"
 viewBox="0.00 0.00 699.00 82.00" xmlns="http://www.w3.org/2000/svg" xmlns:xlink="http://www.w3.org/1999/xlink">
<g id="graph0" class="graph" transform="scale(1 1) rotate(0) translate(4 78)">
<title>Ws2812Handler::~Ws2812Handler</title>
<!-- Node1 -->
<g id="Node000001" class="node">
<title>Node1</title>
<g id="a_Node000001"><a xlink:title=" ">
<polygon fill="#999999" stroke="#666666" points="185,-55 0,-55 0,-36 185,-36 185,-55"/>
<text text-anchor="middle" x="92.5" y="-43" font-family="Helvetica,sans-Serif" font-size="10.00">Ws2812Handler::~Ws2812Handler</text>
</a>
</g>
</g>
<!-- Node2 -->
<g id="Node000002" class="node">
<title>Node2</title>
<g id="a_Node000002"><a xlink:href="classWs2812Handler.html#a608af1984272e2924da68109e7985c4e" target="_top" xlink:title="Deinitialize and release RMT resources.">
<polygon fill="white" stroke="#666666" points="376,-55 221,-55 221,-36 376,-36 376,-55"/>
<text text-anchor="middle" x="298.5" y="-43" font-family="Helvetica,sans-Serif" font-size="10.00">Ws2812Handler::Deinitialize</text>
</a>
</g>
</g>
<!-- Node1&#45;&gt;Node2 -->
<g id="edge1_Node000001_Node000002" class="edge">
<title>Node1&#45;&gt;Node2</title>
<g id="a_edge1_Node000001_Node000002"><a xlink:title=" ">
<path fill="none" stroke="#63b8ff" d="M185.06,-45.5C193.57,-45.5 202.17,-45.5 210.64,-45.5"/>
<polygon fill="#63b8ff" stroke="#63b8ff" points="210.88,-49 220.88,-45.5 210.88,-42 210.88,-49"/>
</a>
</g>
</g>
<!-- Node3 -->
<g id="Node000003" class="node">
<title>Node3</title>
<g id="a_Node000003"><a xlink:href="classLogger.html#a5789d11f8f1356e2192c0023a089cbc4" target="_top" xlink:title="Get singleton instance.">
<polygon fill="white" stroke="#666666" points="526,-74 412,-74 412,-55 526,-55 526,-74"/>
<text text-anchor="middle" x="469" y="-62" font-family="Helvetica,sans-Serif" font-size="10.00">Logger::GetInstance</text>
</a>
</g>
</g>
<!-- Node2&#45;&gt;Node3 -->
<g id="edge2_Node000002_Node000003" class="edge">
<title>Node2&#45;&gt;Node3</title>
<g id="a_edge2_Node000002_Node000003"><a xlink:title=" ">
<path fill="none" stroke="#63b8ff" d="M376.35,-54.17C384.87,-55.13 393.49,-56.1 401.85,-57.04"/>
<polygon fill="#63b8ff" stroke="#63b8ff" points="401.58,-60.53 411.91,-58.18 402.37,-53.58 401.58,-60.53"/>
</a>
</g>
</g>
<!-- Node4 -->
<g id="Node000004" class="node">
<title>Node4</title>
<g id="a_Node000004"><a xlink:href="classLogger.html#a4681229c521795685fc14f6b55c82300" target="_top" xlink:title="Log info message.">
<polygon fill="white" stroke="#666666" points="506,-37 432,-37 432,-18 506,-18 506,-37"/>
<text text-anchor="middle" x="469" y="-25" font-family="Helvetica,sans-Serif" font-size="10.00">Logger::Info</text>
</a>
</g>
</g>
<!-- Node2&#45;&gt;Node4 -->
<g id="edge3_Node000002_Node000004" class="edge">
<title>Node2&#45;&gt;Node4</title>
<g id="a_edge3_Node000002_Node000004"><a xlink:title=" ">
<path fill="none" stroke="#63b8ff" d="M376.35,-37.29C391.71,-35.65 407.39,-33.97 421.35,-32.48"/>
<polygon fill="#63b8ff" stroke="#63b8ff" points="422.08,-35.93 431.65,-31.38 421.33,-28.97 422.08,-35.93"/>
</a>
</g>
</g>
<!-- Node5 -->
<g id="Node000005" class="node">
<title>Node5</title>
<g id="a_Node000005"><a xlink:href="classLogger.html#af9e84e0ff6bd538e4f9ed8dcebc3e2f0" target="_top" xlink:title="Check if log level is enabled for tag.">
<polygon fill="white" stroke="#666666" points="691,-56 562,-56 562,-37 691,-37 691,-56"/>
<text text-anchor="middle" x="626.5" y="-44" font-family="Helvetica,sans-Serif" font-size="10.00">Logger::IsLevelEnabled</text>
</a>
</g>
</g>
<!-- Node4&#45;&gt;Node5 -->
<g id="edge4_Node000004_Node000005" class="edge">
<title>Node4&#45;&gt;Node5</title>
<g id="a_edge4_Node000004_Node000005"><a xlink:title=" ">
<path fill="none" stroke="#63b8ff" d="M506.07,-31.91C519.68,-33.57 535.72,-35.53 551.55,-37.46"/>
<polygon fill="#63b8ff" stroke="#63b8ff" points="551.54,-40.99 561.89,-38.73 552.39,-34.04 551.54,-40.99"/>
</a>
</g>
</g>
<!-- Node6 -->
<g id="Node000006" class="node">
<title>Node6</title>
<g id="a_Node000006"><a xlink:href="classLogger.html#a6adb205db597526fb91ad20067400394" target="_top" xlink:title="Internal logging method.">
<polygon fill="white" stroke="#666666" points="681.5,-19 571.5,-19 571.5,0 681.5,0 681.5,-19"/>
<text text-anchor="middle" x="626.5" y="-7" font-family="Helvetica,sans-Serif" font-size="10.00">Logger::LogInternal</text>
</a>
</g>
</g>
<!-- Node4&#45;&gt;Node6 -->
<g id="edge5_Node000004_Node000006" class="edge">
<title>Node4&#45;&gt;Node6</title>
<g id="a_edge5_Node000004_Node000006"><a xlink:title=" ">
<path fill="none" stroke="#63b8ff" d="M506.07,-23.33C522.49,-21.42 542.44,-19.11 561.3,-16.93"/>
<polygon fill="#63b8ff" stroke="#63b8ff" points="561.8,-20.4 571.33,-15.77 561,-13.44 561.8,-20.4"/>
</a>
</g>
</g>
</g>
</svg>
