<?xml version="1.0" encoding="UTF-8" standalone="no"?>
<!DOCTYPE svg PUBLIC "-//W3C//DTD SVG 1.1//EN"
 "http://www.w3.org/Graphics/SVG/1.1/DTD/svg11.dtd">
<!-- Generated by graphviz version 2.43.0 (0)
 -->
<!-- Title: Tmc9660Handler::GetSupplyVoltage Pages: 1 -->
<svg width="1132pt" height="209pt"
 viewBox="0.00 0.00 1132.00 208.73" xmlns="http://www.w3.org/2000/svg" xmlns:xlink="http://www.w3.org/1999/xlink">
<g id="graph0" class="graph" transform="scale(1 1) rotate(0) translate(4 204.73)">
<title>Tmc9660Handler::GetSupplyVoltage</title>
<!-- Node1 -->
<g id="Node000001" class="node">
<title>Node1</title>
<g id="a_Node000001"><a xlink:title="Read the motor supply voltage.">
<polygon fill="#999999" stroke="#666666" points="156,-44.73 0,-44.73 0,-14.73 156,-14.73 156,-44.73"/>
<text text-anchor="start" x="8" y="-32.73" font-family="Helvetica,sans-Serif" font-size="10.00">Tmc9660Handler::GetSupply</text>
<text text-anchor="middle" x="78" y="-21.73" font-family="Helvetica,sans-Serif" font-size="10.00">Voltage</text>
</a>
</g>
</g>
<!-- Node2 -->
<g id="Node000002" class="node">
<title>Node2</title>
<g id="a_Node000002"><a xlink:href="classTmc9660Handler.html#a5a279ae9d4b5a8e0d71cb24577ad88ea" target="_top" xlink:title="Ensure driver is initialized (lazy init entrypoint).">
<polygon fill="white" stroke="#666666" points="572,-77.23 385,-77.23 385,-58.23 572,-58.23 572,-77.23"/>
<text text-anchor="middle" x="478.5" y="-65.23" font-family="Helvetica,sans-Serif" font-size="10.00">Tmc9660Handler::EnsureInitialized</text>
</a>
</g>
</g>
<!-- Node1&#45;&gt;Node2 -->
<g id="edge1_Node000001_Node000002" class="edge">
<title>Node1&#45;&gt;Node2</title>
<g id="a_edge1_Node000001_Node000002"><a xlink:title=" ">
<path fill="none" stroke="#63b8ff" d="M156.05,-43.74C168.06,-45.62 180.34,-47.36 192,-48.73 252.38,-55.79 320.28,-60.45 374.71,-63.38"/>
<polygon fill="#63b8ff" stroke="#63b8ff" points="374.54,-66.87 384.71,-63.9 374.91,-59.88 374.54,-66.87"/>
</a>
</g>
</g>
<!-- Node10 -->
<g id="Node000010" class="node">
<title>Node10</title>
<g id="a_Node000010"><a xlink:href="classTmc9660Handler.html#a393382194d0602e7aa02da6a8fd7a20a" target="_top" xlink:title="Get a reference to the Temperature wrapper.">
<polygon fill="white" stroke="#666666" points="959,-23.23 792,-23.23 792,-4.23 959,-4.23 959,-23.23"/>
<text text-anchor="middle" x="875.5" y="-11.23" font-family="Helvetica,sans-Serif" font-size="10.00">Tmc9660Handler::temperature</text>
</a>
</g>
</g>
<!-- Node1&#45;&gt;Node10 -->
<g id="edge15_Node000001_Node000010" class="edge">
<title>Node1&#45;&gt;Node10</title>
<g id="a_edge15_Node000001_Node000010"><a xlink:title=" ">
<path fill="none" stroke="#63b8ff" d="M156.29,-14.98C168.2,-13.21 180.4,-11.69 192,-10.73 402.31,6.83 650.35,-1.49 781.81,-8.19"/>
<polygon fill="#63b8ff" stroke="#63b8ff" points="781.68,-11.68 791.85,-8.7 782.04,-4.69 781.68,-11.68"/>
</a>
</g>
</g>
<!-- Node11 -->
<g id="Node000011" class="node">
<title>Node11</title>
<g id="a_Node000011"><a xlink:href="classTmc9660Handler.html#a4360829b58deda85e9da4b9cebee96f0" target="_top" xlink:title="Execute a function on the underlying typed TMC9660 driver.">
<polygon fill="white" stroke="#666666" points="349,-39.23 192,-39.23 192,-20.23 349,-20.23 349,-39.23"/>
<text text-anchor="middle" x="270.5" y="-27.23" font-family="Helvetica,sans-Serif" font-size="10.00">Tmc9660Handler::visitDriver</text>
</a>
</g>
</g>
<!-- Node1&#45;&gt;Node11 -->
<g id="edge16_Node000001_Node000011" class="edge">
<title>Node1&#45;&gt;Node11</title>
<g id="a_edge16_Node000001_Node000011"><a xlink:title=" ">
<path fill="none" stroke="#63b8ff" d="M156.21,-29.73C164.57,-29.73 173.12,-29.73 181.59,-29.73"/>
<polygon fill="#63b8ff" stroke="#63b8ff" points="181.87,-33.23 191.87,-29.73 181.87,-26.23 181.87,-33.23"/>
</a>
</g>
</g>
<!-- Node3 -->
<g id="Node000003" class="node">
<title>Node3</title>
<g id="a_Node000003"><a xlink:href="classTmc9660Handler.html#adc564847f8ae26c47412aaee0758991c" target="_top" xlink:title="Initialize the TMC9660 device.">
<polygon fill="white" stroke="#666666" points="756,-115.23 608,-115.23 608,-96.23 756,-96.23 756,-115.23"/>
<text text-anchor="middle" x="682" y="-103.23" font-family="Helvetica,sans-Serif" font-size="10.00">Tmc9660Handler::Initialize</text>
</a>
</g>
</g>
<!-- Node2&#45;&gt;Node3 -->
<g id="edge2_Node000002_Node000003" class="edge">
<title>Node2&#45;&gt;Node3</title>
<g id="a_edge2_Node000002_Node000003"><a xlink:title=" ">
<path fill="none" stroke="#63b8ff" d="M530.09,-77.27C557.51,-82.44 591.6,-88.87 620.43,-94.3"/>
<polygon fill="#63b8ff" stroke="#63b8ff" points="619.92,-97.77 630.39,-96.18 621.21,-90.89 619.92,-97.77"/>
</a>
</g>
</g>
<!-- Node9 -->
<g id="Node000009" class="node">
<title>Node9</title>
<g id="a_Node000009"><a xlink:href="classTmc9660Handler.html#a13db97d201a287d8aa60384e04070b9f" target="_top" xlink:title="Check if the TMC9660 driver has been initialized and is ready.">
<polygon fill="white" stroke="#666666" points="947.5,-200.73 803.5,-200.73 803.5,-170.73 947.5,-170.73 947.5,-200.73"/>
<text text-anchor="start" x="811.5" y="-188.73" font-family="Helvetica,sans-Serif" font-size="10.00">Tmc9660Handler::IsDriver</text>
<text text-anchor="middle" x="875.5" y="-177.73" font-family="Helvetica,sans-Serif" font-size="10.00">Ready</text>
</a>
</g>
</g>
<!-- Node2&#45;&gt;Node9 -->
<g id="edge14_Node000002_Node000009" class="edge">
<title>Node2&#45;&gt;Node9</title>
<g id="a_edge14_Node000002_Node000009"><a xlink:title=" ">
<path fill="none" stroke="#63b8ff" d="M498.2,-77.4C522.82,-89.8 567.71,-111.32 608,-124.73 668.92,-145 739.88,-160.88 793.25,-171.35"/>
<polygon fill="#63b8ff" stroke="#63b8ff" points="792.86,-174.84 803.34,-173.31 794.19,-167.97 792.86,-174.84"/>
</a>
</g>
</g>
<!-- Node4 -->
<g id="Node000004" class="node">
<title>Node4</title>
<g id="a_Node000004"><a xlink:href="classLogger.html#a5e4bcdaea60b9ac227b564d780388769" target="_top" xlink:title="Log error message.">
<polygon fill="white" stroke="#666666" points="915,-78.23 836,-78.23 836,-59.23 915,-59.23 915,-78.23"/>
<text text-anchor="middle" x="875.5" y="-66.23" font-family="Helvetica,sans-Serif" font-size="10.00">Logger::Error</text>
</a>
</g>
</g>
<!-- Node3&#45;&gt;Node4 -->
<g id="edge3_Node000003_Node000004" class="edge">
<title>Node3&#45;&gt;Node4</title>
<g id="a_edge3_Node000003_Node000004"><a xlink:title=" ">
<path fill="none" stroke="#63b8ff" d="M732.32,-96.2C761.04,-90.65 797.11,-83.68 825.74,-78.15"/>
<polygon fill="#63b8ff" stroke="#63b8ff" points="826.77,-81.51 835.92,-76.18 825.44,-74.64 826.77,-81.51"/>
</a>
</g>
</g>
<!-- Node7 -->
<g id="Node000007" class="node">
<title>Node7</title>
<g id="a_Node000007"><a xlink:href="classLogger.html#a5789d11f8f1356e2192c0023a089cbc4" target="_top" xlink:title="Get singleton instance.">
<polygon fill="white" stroke="#666666" points="932.5,-152.23 818.5,-152.23 818.5,-133.23 932.5,-133.23 932.5,-152.23"/>
<text text-anchor="middle" x="875.5" y="-140.23" font-family="Helvetica,sans-Serif" font-size="10.00">Logger::GetInstance</text>
</a>
</g>
</g>
<!-- Node3&#45;&gt;Node7 -->
<g id="edge6_Node000003_Node000007" class="edge">
<title>Node3&#45;&gt;Node7</title>
<g id="a_edge6_Node000003_Node000007"><a xlink:title=" ">
<path fill="none" stroke="#63b8ff" d="M732.32,-115.25C757.57,-120.13 788.51,-126.11 815.07,-131.24"/>
<polygon fill="#63b8ff" stroke="#63b8ff" points="814.54,-134.7 825.02,-133.16 815.86,-127.83 814.54,-134.7"/>
</a>
</g>
</g>
<!-- Node8 -->
<g id="Node000008" class="node">
<title>Node8</title>
<g id="a_Node000008"><a xlink:href="classLogger.html#a1c0c947d87884bca0395fd38d19d1102" target="_top" xlink:title="Log info message.">
<polygon fill="white" stroke="#666666" points="912.5,-115.23 838.5,-115.23 838.5,-96.23 912.5,-96.23 912.5,-115.23"/>
<text text-anchor="middle" x="875.5" y="-103.23" font-family="Helvetica,sans-Serif" font-size="10.00">Logger::Info</text>
</a>
</g>
</g>
<!-- Node3&#45;&gt;Node8 -->
<g id="edge7_Node000003_Node000008" class="edge">
<title>Node3&#45;&gt;Node8</title>
<g id="a_edge7_Node000003_Node000008"><a xlink:title=" ">
<path fill="none" stroke="#63b8ff" d="M756.22,-105.73C780.35,-105.73 806.52,-105.73 828.08,-105.73"/>
<polygon fill="#63b8ff" stroke="#63b8ff" points="828.27,-109.23 838.27,-105.73 828.27,-102.23 828.27,-109.23"/>
</a>
</g>
</g>
<!-- Node3&#45;&gt;Node9 -->
<g id="edge10_Node000003_Node000009" class="edge">
<title>Node3&#45;&gt;Node9</title>
<g id="a_edge10_Node000003_Node000009"><a xlink:title=" ">
<path fill="none" stroke="#63b8ff" d="M699.16,-115.28C720.05,-127.32 757.8,-148.11 792,-161.73 797.02,-163.73 802.28,-165.64 807.6,-167.45"/>
<polygon fill="#63b8ff" stroke="#63b8ff" points="806.62,-170.82 817.21,-170.61 808.8,-164.16 806.62,-170.82"/>
</a>
</g>
</g>
<!-- Node3&#45;&gt;Node10 -->
<g id="edge11_Node000003_Node000010" class="edge">
<title>Node3&#45;&gt;Node10</title>
<g id="a_edge11_Node000003_Node000010"><a xlink:title=" ">
<path fill="none" stroke="#63b8ff" d="M721.71,-96.11C733.15,-92.46 745.43,-87.7 756,-81.73 774.38,-71.34 774.18,-62.05 792,-50.73 806.56,-41.47 823.83,-33.34 838.79,-27.08"/>
<polygon fill="#63b8ff" stroke="#63b8ff" points="840.3,-30.24 848.24,-23.24 837.66,-23.76 840.3,-30.24"/>
</a>
</g>
</g>
<!-- Node5 -->
<g id="Node000005" class="node">
<title>Node5</title>
<g id="a_Node000005"><a xlink:href="classLogger.html#a737b981213c02321a5235848334d7191" target="_top" xlink:title="Check if log level is enabled for tag.">
<polygon fill="white" stroke="#666666" points="1124,-115.23 995,-115.23 995,-96.23 1124,-96.23 1124,-115.23"/>
<text text-anchor="middle" x="1059.5" y="-103.23" font-family="Helvetica,sans-Serif" font-size="10.00">Logger::IsLevelEnabled</text>
</a>
</g>
</g>
<!-- Node4&#45;&gt;Node5 -->
<g id="edge4_Node000004_Node000005" class="edge">
<title>Node4&#45;&gt;Node5</title>
<g id="a_edge4_Node000004_Node000005"><a xlink:title=" ">
<path fill="none" stroke="#63b8ff" d="M915.1,-76.57C940.19,-81.67 973.34,-88.41 1001.45,-94.13"/>
<polygon fill="#63b8ff" stroke="#63b8ff" points="1001.06,-97.62 1011.56,-96.18 1002.45,-90.76 1001.06,-97.62"/>
</a>
</g>
</g>
<!-- Node6 -->
<g id="Node000006" class="node">
<title>Node6</title>
<g id="a_Node000006"><a xlink:href="classLogger.html#aeede6ac18db92a47caede076ef188a13" target="_top" xlink:title="Internal logging method.">
<polygon fill="white" stroke="#666666" points="1114.5,-78.23 1004.5,-78.23 1004.5,-59.23 1114.5,-59.23 1114.5,-78.23"/>
<text text-anchor="middle" x="1059.5" y="-66.23" font-family="Helvetica,sans-Serif" font-size="10.00">Logger::LogInternal</text>
</a>
</g>
</g>
<!-- Node4&#45;&gt;Node6 -->
<g id="edge5_Node000004_Node000006" class="edge">
<title>Node4&#45;&gt;Node6</title>
<g id="a_edge5_Node000004_Node000006"><a xlink:title=" ">
<path fill="none" stroke="#63b8ff" d="M915.1,-68.73C938.03,-68.73 967.71,-68.73 994.11,-68.73"/>
<polygon fill="#63b8ff" stroke="#63b8ff" points="994.43,-72.23 1004.43,-68.73 994.43,-65.23 994.43,-72.23"/>
</a>
</g>
</g>
<!-- Node8&#45;&gt;Node5 -->
<g id="edge8_Node000008_Node000005" class="edge">
<title>Node8&#45;&gt;Node5</title>
<g id="a_edge8_Node000008_Node000005"><a xlink:title=" ">
<path fill="none" stroke="#63b8ff" d="M912.89,-105.73C933.5,-105.73 960.03,-105.73 984.79,-105.73"/>
<polygon fill="#63b8ff" stroke="#63b8ff" points="984.9,-109.23 994.9,-105.73 984.9,-102.23 984.9,-109.23"/>
</a>
</g>
</g>
<!-- Node8&#45;&gt;Node6 -->
<g id="edge9_Node000008_Node000006" class="edge">
<title>Node8&#45;&gt;Node6</title>
<g id="a_edge9_Node000008_Node000006"><a xlink:title=" ">
<path fill="none" stroke="#63b8ff" d="M912.89,-98.33C938.23,-93.18 972.52,-86.21 1001.46,-80.32"/>
<polygon fill="#63b8ff" stroke="#63b8ff" points="1002.35,-83.71 1011.45,-78.29 1000.95,-76.85 1002.35,-83.71"/>
</a>
</g>
</g>
<!-- Node10&#45;&gt;Node2 -->
<g id="edge12_Node000010_Node000002" class="edge">
<title>Node10&#45;&gt;Node2</title>
<g id="a_edge12_Node000010_Node000002"><a xlink:title=" ">
<path fill="none" stroke="#63b8ff" d="M842.61,-23.29C818.92,-30.03 785.71,-38.71 756,-43.73 698.99,-53.35 634.67,-59.23 582.42,-62.75"/>
<polygon fill="#63b8ff" stroke="#63b8ff" points="581.89,-59.28 572.14,-63.43 582.35,-66.26 581.89,-59.28"/>
</a>
</g>
</g>
<!-- Node10&#45;&gt;Node10 -->
<g id="edge13_Node000010_Node000010" class="edge">
<title>Node10&#45;&gt;Node10</title>
<g id="a_edge13_Node000010_Node000010"><a xlink:title=" ">
<path fill="none" stroke="#63b8ff" d="M847.14,-23.31C833.34,-31.96 842.8,-41.23 875.5,-41.23 897.98,-41.23 909.48,-36.85 909.98,-31.3"/>
<polygon fill="#63b8ff" stroke="#63b8ff" points="912.72,-29.12 903.86,-23.31 907.16,-33.37 912.72,-29.12"/>
</a>
</g>
</g>
<!-- Node11&#45;&gt;Node2 -->
<g id="edge17_Node000011_Node000002" class="edge">
<title>Node11&#45;&gt;Node2</title>
<g id="a_edge17_Node000011_Node000002"><a xlink:title=" ">
<path fill="none" stroke="#63b8ff" d="M323.22,-39.27C351.26,-44.44 386.1,-50.87 415.58,-56.3"/>
<polygon fill="#63b8ff" stroke="#63b8ff" points="415.29,-59.81 425.76,-58.18 416.56,-52.93 415.29,-59.81"/>
</a>
</g>
</g>
<!-- Node11&#45;&gt;Node10 -->
<g id="edge18_Node000011_Node000010" class="edge">
<title>Node11&#45;&gt;Node10</title>
<g id="a_edge18_Node000011_Node000010"><a xlink:title=" ">
<path fill="none" stroke="#63b8ff" d="M349.1,-27.67C459.9,-24.73 663.14,-19.33 781.74,-16.19"/>
<polygon fill="#63b8ff" stroke="#63b8ff" points="781.99,-19.68 791.89,-15.92 781.8,-12.68 781.99,-19.68"/>
</a>
</g>
</g>
</g>
</svg>
