<?xml version="1.0" encoding="UTF-8" standalone="no"?>
<!DOCTYPE svg PUBLIC "-//W3C//DTD SVG 1.1//EN"
 "http://www.w3.org/Graphics/SVG/1.1/DTD/svg11.dtd">
<!-- Generated by graphviz version 2.43.0 (0)
 -->
<!-- Title: Bno08xHandler::GetSensor Pages: 1 -->
<svg width="1151pt" height="113pt"
 viewBox="0.00 0.00 1151.00 113.00" xmlns="http://www.w3.org/2000/svg" xmlns:xlink="http://www.w3.org/1999/xlink">
<g id="graph0" class="graph" transform="scale(1 1) rotate(0) translate(4 109)">
<title>Bno08xHandler::GetSensor</title>
<!-- Node1 -->
<g id="Node000001" class="node">
<title>Node1</title>
<g id="a_Node000001"><a xlink:title="Const overload of GetSensor().">
<polygon fill="#999999" stroke="#666666" points="148,-62 0,-62 0,-43 148,-43 148,-62"/>
<text text-anchor="middle" x="74" y="-50" font-family="Helvetica,sans-Serif" font-size="10.00">Bno08xHandler::GetSensor</text>
</a>
</g>
</g>
<!-- Node2 -->
<g id="Node000002" class="node">
<title>Node2</title>
<g id="a_Node000002"><a xlink:href="classBno08xHandler.html#a57e2952c0438e800c091cd0e3ebcdaf5" target="_top" xlink:title="Get direct access to the underlying sensor driver (type&#45;erased).">
<polygon fill="white" stroke="#666666" points="332,-62 184,-62 184,-43 332,-43 332,-62"/>
<text text-anchor="middle" x="258" y="-50" font-family="Helvetica,sans-Serif" font-size="10.00">Bno08xHandler::GetSensor</text>
</a>
</g>
</g>
<!-- Node1&#45;&gt;Node2 -->
<g id="edge1_Node000001_Node000002" class="edge">
<title>Node1&#45;&gt;Node2</title>
<g id="a_edge1_Node000001_Node000002"><a xlink:title=" ">
<path fill="none" stroke="#63b8ff" d="M148.24,-52.5C156.6,-52.5 165.16,-52.5 173.64,-52.5"/>
<polygon fill="#63b8ff" stroke="#63b8ff" points="173.91,-56 183.91,-52.5 173.91,-49 173.91,-56"/>
</a>
</g>
</g>
<!-- Node3 -->
<g id="Node000003" class="node">
<title>Node3</title>
<g id="a_Node000003"><a xlink:href="classBno08xHandler.html#afab341345c8ed8fed1a218e0df18c4aa" target="_top" xlink:title="Ensure the BNO08x is initialized (lazy init entrypoint).">
<polygon fill="white" stroke="#666666" points="547,-62 368,-62 368,-43 547,-43 547,-62"/>
<text text-anchor="middle" x="457.5" y="-50" font-family="Helvetica,sans-Serif" font-size="10.00">Bno08xHandler::EnsureInitialized</text>
</a>
</g>
</g>
<!-- Node2&#45;&gt;Node3 -->
<g id="edge2_Node000002_Node000003" class="edge">
<title>Node2&#45;&gt;Node3</title>
<g id="a_edge2_Node000002_Node000003"><a xlink:title=" ">
<path fill="none" stroke="#63b8ff" d="M332.26,-52.5C340.62,-52.5 349.25,-52.5 357.87,-52.5"/>
<polygon fill="#63b8ff" stroke="#63b8ff" points="357.98,-56 367.98,-52.5 357.98,-49 357.98,-56"/>
</a>
</g>
</g>
<!-- Node4 -->
<g id="Node000004" class="node">
<title>Node4</title>
<g id="a_Node000004"><a xlink:href="classBno08xHandler.html#a0479abc034d5417ba7dc524468a5ce82" target="_top" xlink:title="Internal: ensure initialized (assumes mutex is held).">
<polygon fill="white" stroke="#666666" points="762,-67.5 583,-67.5 583,-37.5 762,-37.5 762,-67.5"/>
<text text-anchor="start" x="591" y="-55.5" font-family="Helvetica,sans-Serif" font-size="10.00">Bno08xHandler::ensureInitialized</text>
<text text-anchor="middle" x="672.5" y="-44.5" font-family="Helvetica,sans-Serif" font-size="10.00">Locked</text>
</a>
</g>
</g>
<!-- Node3&#45;&gt;Node4 -->
<g id="edge3_Node000003_Node000004" class="edge">
<title>Node3&#45;&gt;Node4</title>
<g id="a_edge3_Node000003_Node000004"><a xlink:title=" ">
<path fill="none" stroke="#63b8ff" d="M547.29,-52.5C555.65,-52.5 564.16,-52.5 572.6,-52.5"/>
<polygon fill="#63b8ff" stroke="#63b8ff" points="572.86,-56 582.86,-52.5 572.85,-49 572.86,-56"/>
</a>
</g>
</g>
<!-- Node5 -->
<g id="Node000005" class="node">
<title>Node5</title>
<g id="a_Node000005"><a xlink:href="classBno08xHandler.html#ac1a1ff0d56324dcc09d9b48ca2e132e6" target="_top" xlink:title="Initialize the BNO08x sensor.">
<polygon fill="white" stroke="#666666" points="938,-62 798,-62 798,-43 938,-43 938,-62"/>
<text text-anchor="middle" x="868" y="-50" font-family="Helvetica,sans-Serif" font-size="10.00">Bno08xHandler::Initialize</text>
</a>
</g>
</g>
<!-- Node4&#45;&gt;Node5 -->
<g id="edge4_Node000004_Node000005" class="edge">
<title>Node4&#45;&gt;Node5</title>
<g id="a_edge4_Node000004_Node000005"><a xlink:title=" ">
<path fill="none" stroke="#63b8ff" d="M762.04,-52.5C770.6,-52.5 779.25,-52.5 787.71,-52.5"/>
<polygon fill="#63b8ff" stroke="#63b8ff" points="787.92,-56 797.92,-52.5 787.92,-49 787.92,-56"/>
</a>
</g>
</g>
<!-- Node6 -->
<g id="Node000006" class="node">
<title>Node6</title>
<g id="a_Node000006"><a xlink:href="classIBno08xDriverOps.html#a0ca90c1a5664ab3eb83f691aff34faa0" target="_top" xlink:title=" ">
<polygon fill="white" stroke="#666666" points="1128,-105 989,-105 989,-86 1128,-86 1128,-105"/>
<text text-anchor="middle" x="1058.5" y="-93" font-family="Helvetica,sans-Serif" font-size="10.00">IBno08xDriverOps::Begin</text>
</a>
</g>
</g>
<!-- Node5&#45;&gt;Node6 -->
<g id="edge5_Node000005_Node000006" class="edge">
<title>Node5&#45;&gt;Node6</title>
<g id="a_edge5_Node000005_Node000006"><a xlink:title=" ">
<path fill="none" stroke="#63b8ff" d="M910.64,-62.03C929.92,-66.44 953.13,-71.74 974,-76.5 984.22,-78.83 995.13,-81.32 1005.6,-83.7"/>
<polygon fill="#63b8ff" stroke="#63b8ff" points="1004.92,-87.13 1015.45,-85.94 1006.47,-80.31 1004.92,-87.13"/>
</a>
</g>
</g>
<!-- Node7 -->
<g id="Node000007" class="node">
<title>Node7</title>
<g id="a_Node000007"><a xlink:href="classIBno08xDriverOps.html#a66418ccb85cd8eb8eea327fa979a2b6a" target="_top" xlink:title=" ">
<polygon fill="white" stroke="#666666" points="1137.5,-67.5 979.5,-67.5 979.5,-37.5 1137.5,-37.5 1137.5,-67.5"/>
<text text-anchor="start" x="987.5" y="-55.5" font-family="Helvetica,sans-Serif" font-size="10.00">IBno08xDriverOps::Hardware</text>
<text text-anchor="middle" x="1058.5" y="-44.5" font-family="Helvetica,sans-Serif" font-size="10.00">Reset</text>
</a>
</g>
</g>
<!-- Node5&#45;&gt;Node7 -->
<g id="edge6_Node000005_Node000007" class="edge">
<title>Node5&#45;&gt;Node7</title>
<g id="a_edge6_Node000005_Node000007"><a xlink:title=" ">
<path fill="none" stroke="#63b8ff" d="M938.12,-52.5C948.31,-52.5 958.93,-52.5 969.44,-52.5"/>
<polygon fill="#63b8ff" stroke="#63b8ff" points="969.47,-56 979.47,-52.5 969.47,-49 969.47,-56"/>
</a>
</g>
</g>
<!-- Node8 -->
<g id="Node000008" class="node">
<title>Node8</title>
<g id="a_Node000008"><a xlink:href="classIBno08xDriverOps.html#a04816a487d80027e6d6fe435f651b265" target="_top" xlink:title=" ">
<polygon fill="white" stroke="#666666" points="1143,-19 974,-19 974,0 1143,0 1143,-19"/>
<text text-anchor="middle" x="1058.5" y="-7" font-family="Helvetica,sans-Serif" font-size="10.00">IBno08xDriverOps::SetCallback</text>
</a>
</g>
</g>
<!-- Node5&#45;&gt;Node8 -->
<g id="edge7_Node000005_Node000008" class="edge">
<title>Node5&#45;&gt;Node8</title>
<g id="a_edge7_Node000005_Node000008"><a xlink:title=" ">
<path fill="none" stroke="#63b8ff" d="M910.64,-42.97C929.92,-38.56 953.13,-33.26 974,-28.5 984.22,-26.17 995.13,-23.68 1005.6,-21.3"/>
<polygon fill="#63b8ff" stroke="#63b8ff" points="1006.47,-24.69 1015.45,-19.06 1004.92,-17.87 1006.47,-24.69"/>
</a>
</g>
</g>
</g>
</svg>
