<?xml version="1.0" encoding="UTF-8" standalone="no"?>
<!DOCTYPE svg PUBLIC "-//W3C//DTD SVG 1.1//EN"
 "http://www.w3.org/Graphics/SVG/1.1/DTD/svg11.dtd">
<!-- Generated by graphviz version 2.43.0 (0)
 -->
<!-- Title: Bno08xHandler::GetSensor Pages: 1 -->
<svg width="1344pt" height="236pt"
 viewBox="0.00 0.00 1344.00 235.50" xmlns="http://www.w3.org/2000/svg" xmlns:xlink="http://www.w3.org/1999/xlink">
<g id="graph0" class="graph" transform="scale(1 1) rotate(0) translate(4 231.5)">
<title>Bno08xHandler::GetSensor</title>
<!-- Node1 -->
<g id="Node000001" class="node">
<title>Node1</title>
<g id="a_Node000001"><a xlink:title="Const overload of GetSensor().">
<polygon fill="#999999" stroke="#666666" points="148,-114 0,-114 0,-95 148,-95 148,-114"/>
<text text-anchor="middle" x="74" y="-102" font-family="Helvetica,sans-Serif" font-size="10.00">Bno08xHandler::GetSensor</text>
</a>
</g>
</g>
<!-- Node2 -->
<g id="Node000002" class="node">
<title>Node2</title>
<g id="a_Node000002"><a xlink:href="classBno08xHandler.html#a57e2952c0438e800c091cd0e3ebcdaf5" target="_top" xlink:title="Get direct access to the underlying sensor driver (type&#45;erased).">
<polygon fill="white" stroke="#666666" points="332,-114 184,-114 184,-95 332,-95 332,-114"/>
<text text-anchor="middle" x="258" y="-102" font-family="Helvetica,sans-Serif" font-size="10.00">Bno08xHandler::GetSensor</text>
</a>
</g>
</g>
<!-- Node1&#45;&gt;Node2 -->
<g id="edge1_Node000001_Node000002" class="edge">
<title>Node1&#45;&gt;Node2</title>
<g id="a_edge1_Node000001_Node000002"><a xlink:title=" ">
<path fill="none" stroke="#63b8ff" d="M148.24,-104.5C156.6,-104.5 165.16,-104.5 173.64,-104.5"/>
<polygon fill="#63b8ff" stroke="#63b8ff" points="173.91,-108 183.91,-104.5 173.91,-101 173.91,-108"/>
</a>
</g>
</g>
<!-- Node3 -->
<g id="Node000003" class="node">
<title>Node3</title>
<g id="a_Node000003"><a xlink:href="classBno08xHandler.html#afab341345c8ed8fed1a218e0df18c4aa" target="_top" xlink:title="Ensure the BNO08x is initialized (lazy init entrypoint).">
<polygon fill="white" stroke="#666666" points="547,-114 368,-114 368,-95 547,-95 547,-114"/>
<text text-anchor="middle" x="457.5" y="-102" font-family="Helvetica,sans-Serif" font-size="10.00">Bno08xHandler::EnsureInitialized</text>
</a>
</g>
</g>
<!-- Node2&#45;&gt;Node3 -->
<g id="edge2_Node000002_Node000003" class="edge">
<title>Node2&#45;&gt;Node3</title>
<g id="a_edge2_Node000002_Node000003"><a xlink:title=" ">
<path fill="none" stroke="#63b8ff" d="M332.26,-104.5C340.62,-104.5 349.25,-104.5 357.87,-104.5"/>
<polygon fill="#63b8ff" stroke="#63b8ff" points="357.98,-108 367.98,-104.5 357.98,-101 357.98,-108"/>
</a>
</g>
</g>
<!-- Node4 -->
<g id="Node000004" class="node">
<title>Node4</title>
<g id="a_Node000004"><a xlink:href="classBno08xHandler.html#a0479abc034d5417ba7dc524468a5ce82" target="_top" xlink:title="Internal: ensure initialized (assumes mutex is held).">
<polygon fill="white" stroke="#666666" points="762,-119.5 583,-119.5 583,-89.5 762,-89.5 762,-119.5"/>
<text text-anchor="start" x="591" y="-107.5" font-family="Helvetica,sans-Serif" font-size="10.00">Bno08xHandler::ensureInitialized</text>
<text text-anchor="middle" x="672.5" y="-96.5" font-family="Helvetica,sans-Serif" font-size="10.00">Locked</text>
</a>
</g>
</g>
<!-- Node3&#45;&gt;Node4 -->
<g id="edge3_Node000003_Node000004" class="edge">
<title>Node3&#45;&gt;Node4</title>
<g id="a_edge3_Node000003_Node000004"><a xlink:title=" ">
<path fill="none" stroke="#63b8ff" d="M547.29,-104.5C555.65,-104.5 564.16,-104.5 572.6,-104.5"/>
<polygon fill="#63b8ff" stroke="#63b8ff" points="572.86,-108 582.86,-104.5 572.85,-101 572.86,-108"/>
</a>
</g>
</g>
<!-- Node5 -->
<g id="Node000005" class="node">
<title>Node5</title>
<g id="a_Node000005"><a xlink:href="classBno08xHandler.html#ac1a1ff0d56324dcc09d9b48ca2e132e6" target="_top" xlink:title="Initialize the BNO08x sensor.">
<polygon fill="white" stroke="#666666" points="938,-114 798,-114 798,-95 938,-95 938,-114"/>
<text text-anchor="middle" x="868" y="-102" font-family="Helvetica,sans-Serif" font-size="10.00">Bno08xHandler::Initialize</text>
</a>
</g>
</g>
<!-- Node4&#45;&gt;Node5 -->
<g id="edge4_Node000004_Node000005" class="edge">
<title>Node4&#45;&gt;Node5</title>
<g id="a_edge4_Node000004_Node000005"><a xlink:title=" ">
<path fill="none" stroke="#63b8ff" d="M762.04,-104.5C770.6,-104.5 779.25,-104.5 787.71,-104.5"/>
<polygon fill="#63b8ff" stroke="#63b8ff" points="787.92,-108 797.92,-104.5 787.92,-101 787.92,-108"/>
</a>
</g>
</g>
<!-- Node6 -->
<g id="Node000006" class="node">
<title>Node6</title>
<g id="a_Node000006"><a xlink:href="classBno08xHandler.html#a5669d8d3146a450430e5644b8d297de5" target="_top" xlink:title="Internal: apply configured sensor enables (assumes mutex is held).">
<polygon fill="white" stroke="#666666" points="1142.5,-227.5 987.5,-227.5 987.5,-197.5 1142.5,-197.5 1142.5,-227.5"/>
<text text-anchor="start" x="995.5" y="-215.5" font-family="Helvetica,sans-Serif" font-size="10.00">Bno08xHandler::applyConfig</text>
<text text-anchor="middle" x="1065" y="-204.5" font-family="Helvetica,sans-Serif" font-size="10.00">Locked</text>
</a>
</g>
</g>
<!-- Node5&#45;&gt;Node6 -->
<g id="edge5_Node000005_Node000006" class="edge">
<title>Node5&#45;&gt;Node6</title>
<g id="a_edge5_Node000005_Node000006"><a xlink:title=" ">
<path fill="none" stroke="#63b8ff" d="M878.17,-114.11C895.34,-131.53 934.2,-168.4 974,-188.5 977.82,-190.43 981.8,-192.21 985.89,-193.86"/>
<polygon fill="#63b8ff" stroke="#63b8ff" points="984.96,-197.25 995.55,-197.48 987.41,-190.7 984.96,-197.25"/>
</a>
</g>
</g>
<!-- Node8 -->
<g id="Node000008" class="node">
<title>Node8</title>
<g id="a_Node000008"><a xlink:href="classIBno08xDriverOps.html#a0ca90c1a5664ab3eb83f691aff34faa0" target="_top" xlink:title=" ">
<polygon fill="white" stroke="#666666" points="1134.5,-179 995.5,-179 995.5,-160 1134.5,-160 1134.5,-179"/>
<text text-anchor="middle" x="1065" y="-167" font-family="Helvetica,sans-Serif" font-size="10.00">IBno08xDriverOps::Begin</text>
</a>
</g>
</g>
<!-- Node5&#45;&gt;Node8 -->
<g id="edge7_Node000005_Node000008" class="edge">
<title>Node5&#45;&gt;Node8</title>
<g id="a_edge7_Node000005_Node000008"><a xlink:title=" ">
<path fill="none" stroke="#63b8ff" d="M887.52,-114C908.15,-124.26 942.73,-140.47 974,-150.5 982.29,-153.16 991.12,-155.55 999.9,-157.66"/>
<polygon fill="#63b8ff" stroke="#63b8ff" points="999.22,-161.09 1009.75,-159.92 1000.79,-154.27 999.22,-161.09"/>
</a>
</g>
</g>
<!-- Node9 -->
<g id="Node000009" class="node">
<title>Node9</title>
<g id="a_Node000009"><a xlink:href="classIBno08xDriverOps.html#a66418ccb85cd8eb8eea327fa979a2b6a" target="_top" xlink:title=" ">
<polygon fill="white" stroke="#666666" points="1144,-141.5 986,-141.5 986,-111.5 1144,-111.5 1144,-141.5"/>
<text text-anchor="start" x="994" y="-129.5" font-family="Helvetica,sans-Serif" font-size="10.00">IBno08xDriverOps::Hardware</text>
<text text-anchor="middle" x="1065" y="-118.5" font-family="Helvetica,sans-Serif" font-size="10.00">Reset</text>
</a>
</g>
</g>
<!-- Node5&#45;&gt;Node9 -->
<g id="edge8_Node000005_Node000009" class="edge">
<title>Node5&#45;&gt;Node9</title>
<g id="a_edge8_Node000005_Node000009"><a xlink:title=" ">
<path fill="none" stroke="#63b8ff" d="M938.02,-112.29C950.21,-113.66 963.05,-115.11 975.69,-116.54"/>
<polygon fill="#63b8ff" stroke="#63b8ff" points="975.43,-120.03 985.76,-117.67 976.21,-113.07 975.43,-120.03"/>
</a>
</g>
</g>
<!-- Node10 -->
<g id="Node000010" class="node">
<title>Node10</title>
<g id="a_Node000010"><a xlink:href="classIBno08xDriverOps.html#a1cfdc8fea4d31f36d9d8219b90beeae4" target="_top" xlink:title="Open the transport (bus + control GPIO setup) before reset or SH&#45;2.">
<polygon fill="white" stroke="#666666" points="1156,-93 974,-93 974,-74 1156,-74 1156,-93"/>
<text text-anchor="middle" x="1065" y="-81" font-family="Helvetica,sans-Serif" font-size="10.00">IBno08xDriverOps::OpenTransport</text>
</a>
</g>
</g>
<!-- Node5&#45;&gt;Node10 -->
<g id="edge9_Node000005_Node000010" class="edge">
<title>Node5&#45;&gt;Node10</title>
<g id="a_edge9_Node000005_Node000010"><a xlink:title=" ">
<path fill="none" stroke="#63b8ff" d="M938.02,-97.07C946.96,-96.1 956.24,-95.11 965.53,-94.1"/>
<polygon fill="#63b8ff" stroke="#63b8ff" points="966.03,-97.57 975.6,-93.02 965.28,-90.61 966.03,-97.57"/>
</a>
</g>
</g>
<!-- Node11 -->
<g id="Node000011" class="node">
<title>Node11</title>
<g id="a_Node000011"><a xlink:href="classIBno08xDriverOps.html#a35854a70ef94b79c9193d40459341864" target="_top" xlink:title=" ">
<polygon fill="white" stroke="#666666" points="1147,-56 983,-56 983,-37 1147,-37 1147,-56"/>
<text text-anchor="middle" x="1065" y="-44" font-family="Helvetica,sans-Serif" font-size="10.00">IBno08xDriverOps::SetBootPin</text>
</a>
</g>
</g>
<!-- Node5&#45;&gt;Node11 -->
<g id="edge10_Node000005_Node000011" class="edge">
<title>Node5&#45;&gt;Node11</title>
<g id="a_edge10_Node000005_Node000011"><a xlink:title=" ">
<path fill="none" stroke="#63b8ff" d="M891.62,-94.99C912.66,-86.41 945.05,-73.88 974,-65.5 983.11,-62.86 992.83,-60.43 1002.4,-58.24"/>
<polygon fill="#63b8ff" stroke="#63b8ff" points="1003.27,-61.63 1012.27,-56.05 1001.75,-54.8 1003.27,-61.63"/>
</a>
</g>
</g>
<!-- Node12 -->
<g id="Node000012" class="node">
<title>Node12</title>
<g id="a_Node000012"><a xlink:href="classIBno08xDriverOps.html#a04816a487d80027e6d6fe435f651b265" target="_top" xlink:title=" ">
<polygon fill="white" stroke="#666666" points="1149.5,-19 980.5,-19 980.5,0 1149.5,0 1149.5,-19"/>
<text text-anchor="middle" x="1065" y="-7" font-family="Helvetica,sans-Serif" font-size="10.00">IBno08xDriverOps::SetCallback</text>
</a>
</g>
</g>
<!-- Node5&#45;&gt;Node12 -->
<g id="edge11_Node000005_Node000012" class="edge">
<title>Node5&#45;&gt;Node12</title>
<g id="a_edge11_Node000005_Node000012"><a xlink:title=" ">
<path fill="none" stroke="#63b8ff" d="M879.1,-94.89C896.83,-78.6 935.32,-45.65 974,-28.5 979.75,-25.95 985.86,-23.74 992.08,-21.82"/>
<polygon fill="#63b8ff" stroke="#63b8ff" points="993.25,-25.12 1001.92,-19.03 991.34,-18.39 993.25,-25.12"/>
</a>
</g>
</g>
<!-- Node7 -->
<g id="Node000007" class="node">
<title>Node7</title>
<g id="a_Node000007"><a xlink:href="classIBno08xDriverOps.html#a1da5bdfd4c8d7fbd42475ae7ee37fb98" target="_top" xlink:title=" ">
<polygon fill="white" stroke="#666666" points="1336,-227.5 1192,-227.5 1192,-197.5 1336,-197.5 1336,-227.5"/>
<text text-anchor="start" x="1200" y="-215.5" font-family="Helvetica,sans-Serif" font-size="10.00">IBno08xDriverOps::Enable</text>
<text text-anchor="middle" x="1264" y="-204.5" font-family="Helvetica,sans-Serif" font-size="10.00">Sensor</text>
</a>
</g>
</g>
<!-- Node6&#45;&gt;Node7 -->
<g id="edge6_Node000006_Node000007" class="edge">
<title>Node6&#45;&gt;Node7</title>
<g id="a_edge6_Node000006_Node000007"><a xlink:title=" ">
<path fill="none" stroke="#63b8ff" d="M1142.73,-212.5C1155.52,-212.5 1168.82,-212.5 1181.71,-212.5"/>
<polygon fill="#63b8ff" stroke="#63b8ff" points="1181.95,-216 1191.95,-212.5 1181.95,-209 1181.95,-216"/>
</a>
</g>
</g>
</g>
</svg>
