<?xml version="1.0" encoding="UTF-8" standalone="no"?>
<!DOCTYPE svg PUBLIC "-//W3C//DTD SVG 1.1//EN"
 "http://www.w3.org/Graphics/SVG/1.1/DTD/svg11.dtd">
<!-- Generated by graphviz version 2.43.0 (0)
 -->
<!-- Title: Pca9685Handler::ensureInitializedLocked Pages: 1 -->
<svg width="594pt" height="152pt"
 viewBox="0.00 0.00 594.00 151.50" xmlns="http://www.w3.org/2000/svg" xmlns:xlink="http://www.w3.org/1999/xlink">
<g id="graph0" class="graph" transform="scale(1 1) rotate(0) translate(4 147.5)">
<title>Pca9685Handler::ensureInitializedLocked</title>
<!-- Node1 -->
<g id="Node000001" class="node">
<title>Node1</title>
<g id="a_Node000001"><a xlink:title="Check init under already&#45;held handler_mutex_.">
<polygon fill="#999999" stroke="#666666" points="586,-93 403,-93 403,-63 586,-63 586,-93"/>
<text text-anchor="start" x="411" y="-81" font-family="Helvetica,sans-Serif" font-size="10.00">Pca9685Handler::ensureInitialized</text>
<text text-anchor="middle" x="494.5" y="-70" font-family="Helvetica,sans-Serif" font-size="10.00">Locked</text>
</a>
</g>
</g>
<!-- Node2 -->
<g id="Node000002" class="node">
<title>Node2</title>
<g id="a_Node000002"><a xlink:href="classPca9685Handler.html#a91f6e14b606d4007797234ec9599a134" target="_top" xlink:title="Get the underlying PCA9685 driver for advanced register&#45;level operations.">
<polygon fill="white" stroke="#666666" points="350.5,-143.5 201.5,-143.5 201.5,-124.5 350.5,-124.5 350.5,-143.5"/>
<text text-anchor="middle" x="276" y="-131.5" font-family="Helvetica,sans-Serif" font-size="10.00">Pca9685Handler::GetDriver</text>
</a>
</g>
</g>
<!-- Node1&#45;&gt;Node2 -->
<g id="edge1_Node000001_Node000002" class="edge">
<title>Node1&#45;&gt;Node2</title>
<g id="a_edge1_Node000001_Node000002"><a xlink:title=" ">
<path fill="none" stroke="#63b8ff" d="M437.45,-96.08C415.6,-102.8 390.25,-110.2 367,-116 354.79,-119.05 341.54,-121.93 329.06,-124.46"/>
<polygon fill="#63b8ff" stroke="#63b8ff" points="438.72,-99.35 447.23,-93.04 436.64,-92.66 438.72,-99.35"/>
</a>
</g>
</g>
<!-- Node4 -->
<g id="Node000004" class="node">
<title>Node4</title>
<g id="a_Node000004"><a xlink:href="classPca9685Handler.html#a3f5b93ead4b85c137c94a0d0e8d9bb12" target="_top" xlink:title="Get or create the BasePwm adapter for all 16 channels.">
<polygon fill="white" stroke="#666666" points="367,-106.5 185,-106.5 185,-87.5 367,-87.5 367,-106.5"/>
<text text-anchor="middle" x="276" y="-94.5" font-family="Helvetica,sans-Serif" font-size="10.00">Pca9685Handler::GetPwmAdapter</text>
</a>
</g>
</g>
<!-- Node1&#45;&gt;Node4 -->
<g id="edge3_Node000001_Node000004" class="edge">
<title>Node1&#45;&gt;Node4</title>
<g id="a_edge3_Node000001_Node000004"><a xlink:title=" ">
<path fill="none" stroke="#63b8ff" d="M392.91,-86.83C384.33,-87.58 375.69,-88.34 367.2,-89.08"/>
<polygon fill="#63b8ff" stroke="#63b8ff" points="393.28,-90.31 402.94,-85.95 392.67,-83.34 393.28,-90.31"/>
</a>
</g>
</g>
<!-- Node5 -->
<g id="Node000005" class="node">
<title>Node5</title>
<g id="a_Node000005"><a xlink:href="classPca9685Handler.html#a989c4b1a8260c7af0bf210103d13cc7b" target="_top" xlink:title="Put PCA9685 into low&#45;power sleep mode.">
<polygon fill="white" stroke="#666666" points="340.5,-69.5 211.5,-69.5 211.5,-50.5 340.5,-50.5 340.5,-69.5"/>
<text text-anchor="middle" x="276" y="-57.5" font-family="Helvetica,sans-Serif" font-size="10.00">Pca9685Handler::Sleep</text>
</a>
</g>
</g>
<!-- Node1&#45;&gt;Node5 -->
<g id="edge4_Node000001_Node000005" class="edge">
<title>Node1&#45;&gt;Node5</title>
<g id="a_edge4_Node000001_Node000005"><a xlink:title=" ">
<path fill="none" stroke="#63b8ff" d="M392.56,-69.61C374.85,-68.14 356.88,-66.64 340.55,-65.28"/>
<polygon fill="#63b8ff" stroke="#63b8ff" points="392.68,-73.13 402.94,-70.47 393.26,-66.15 392.68,-73.13"/>
</a>
</g>
</g>
<!-- Node7 -->
<g id="Node000007" class="node">
<title>Node7</title>
<g id="a_Node000007"><a xlink:href="classPca9685Handler.html#abfea96039e525e253d0eab9234cdfa5f" target="_top" xlink:title="Wake PCA9685 from sleep mode.">
<polygon fill="white" stroke="#666666" points="340,-29.5 212,-29.5 212,-10.5 340,-10.5 340,-29.5"/>
<text text-anchor="middle" x="276" y="-17.5" font-family="Helvetica,sans-Serif" font-size="10.00">Pca9685Handler::Wake</text>
</a>
</g>
</g>
<!-- Node1&#45;&gt;Node7 -->
<g id="edge6_Node000001_Node000007" class="edge">
<title>Node1&#45;&gt;Node7</title>
<g id="a_edge6_Node000001_Node000007"><a xlink:title=" ">
<path fill="none" stroke="#63b8ff" d="M434.57,-60.03C413.34,-53.75 389.16,-46.82 367,-41 351.79,-37 335.04,-32.99 320.15,-29.56"/>
<polygon fill="#63b8ff" stroke="#63b8ff" points="433.83,-63.46 444.41,-62.96 435.83,-56.75 433.83,-63.46"/>
</a>
</g>
</g>
<!-- Node3 -->
<g id="Node000003" class="node">
<title>Node3</title>
<g id="a_Node000003"><a xlink:href="classPca9685Handler.html#a7d3b7d292f41670fcb1b1ecfc803b404" target="_top" xlink:title=" ">
<polygon fill="white" stroke="#666666" points="149,-143.5 0,-143.5 0,-124.5 149,-124.5 149,-143.5"/>
<text text-anchor="middle" x="74.5" y="-131.5" font-family="Helvetica,sans-Serif" font-size="10.00">Pca9685Handler::GetDriver</text>
</a>
</g>
</g>
<!-- Node2&#45;&gt;Node3 -->
<g id="edge2_Node000002_Node000003" class="edge">
<title>Node2&#45;&gt;Node3</title>
<g id="a_edge2_Node000002_Node000003"><a xlink:title=" ">
<path fill="none" stroke="#63b8ff" d="M191.22,-134C177.28,-134 162.92,-134 149.25,-134"/>
<polygon fill="#63b8ff" stroke="#63b8ff" points="191.28,-137.5 201.28,-134 191.28,-130.5 191.28,-137.5"/>
</a>
</g>
</g>
<!-- Node6 -->
<g id="Node000006" class="node">
<title>Node6</title>
<g id="a_Node000006"><a xlink:href="classPca9685PwmAdapter.html#a825a19eb0b16cbf9ebb93a7b6da115d8" target="_top" xlink:title="Put the PCA9685 into sleep mode (stop all outputs).">
<polygon fill="white" stroke="#666666" points="137.5,-78 11.5,-78 11.5,-48 137.5,-48 137.5,-78"/>
<text text-anchor="start" x="19.5" y="-66" font-family="Helvetica,sans-Serif" font-size="10.00">Pca9685PwmAdapter::</text>
<text text-anchor="middle" x="74.5" y="-55" font-family="Helvetica,sans-Serif" font-size="10.00">StopAll</text>
</a>
</g>
</g>
<!-- Node5&#45;&gt;Node6 -->
<g id="edge5_Node000005_Node000006" class="edge">
<title>Node5&#45;&gt;Node6</title>
<g id="a_edge5_Node000005_Node000006"><a xlink:title=" ">
<path fill="none" stroke="#63b8ff" d="M201.2,-61.11C180.27,-61.42 157.7,-61.76 137.55,-62.07"/>
<polygon fill="#63b8ff" stroke="#63b8ff" points="201.38,-64.61 211.33,-60.96 201.28,-57.61 201.38,-64.61"/>
</a>
</g>
</g>
<!-- Node8 -->
<g id="Node000008" class="node">
<title>Node8</title>
<g id="a_Node000008"><a xlink:href="classPca9685PwmAdapter.html#aabd9412420647133c10651ec3caed0d4" target="_top" xlink:title="Wake the PCA9685 from sleep (start all channels).">
<polygon fill="white" stroke="#666666" points="137.5,-30 11.5,-30 11.5,0 137.5,0 137.5,-30"/>
<text text-anchor="start" x="19.5" y="-18" font-family="Helvetica,sans-Serif" font-size="10.00">Pca9685PwmAdapter::</text>
<text text-anchor="middle" x="74.5" y="-7" font-family="Helvetica,sans-Serif" font-size="10.00">StartAll</text>
</a>
</g>
</g>
<!-- Node7&#45;&gt;Node8 -->
<g id="edge7_Node000007_Node000008" class="edge">
<title>Node7&#45;&gt;Node8</title>
<g id="a_edge7_Node000007_Node000008"><a xlink:title=" ">
<path fill="none" stroke="#63b8ff" d="M201.69,-18.16C180.62,-17.63 157.85,-17.06 137.53,-16.55"/>
<polygon fill="#63b8ff" stroke="#63b8ff" points="201.79,-21.67 211.88,-18.42 201.97,-14.67 201.79,-21.67"/>
</a>
</g>
</g>
</g>
</svg>
