<?xml version="1.0" encoding="UTF-8" standalone="no"?>
<!DOCTYPE svg PUBLIC "-//W3C//DTD SVG 1.1//EN"
 "http://www.w3.org/Graphics/SVG/1.1/DTD/svg11.dtd">
<!-- Generated by graphviz version 2.43.0 (0)
 -->
<!-- Title: Tle92466edHandler::EnsureInitializedLocked Pages: 1 -->
<svg width="608pt" height="138pt"
 viewBox="0.00 0.00 608.00 138.00" xmlns="http://www.w3.org/2000/svg" xmlns:xlink="http://www.w3.org/1999/xlink">
<g id="graph0" class="graph" transform="scale(1 1) rotate(0) translate(4 134)">
<title>Tle92466edHandler::EnsureInitializedLocked</title>
<!-- Node1 -->
<g id="Node000001" class="node">
<title>Node1</title>
<g id="a_Node000001"><a xlink:title=" ">
<polygon fill="#999999" stroke="#666666" points="131,-85.5 0,-85.5 0,-55.5 131,-55.5 131,-85.5"/>
<text text-anchor="start" x="8" y="-73.5" font-family="Helvetica,sans-Serif" font-size="10.00">Tle92466edHandler::</text>
<text text-anchor="middle" x="65.5" y="-62.5" font-family="Helvetica,sans-Serif" font-size="10.00">EnsureInitializedLocked</text>
</a>
</g>
</g>
<!-- Node2 -->
<g id="Node000002" class="node">
<title>Node2</title>
<g id="a_Node000002"><a xlink:href="classLogger.html#adce17848a5844e053bfd314863dc1404" target="_top" xlink:title="Log error message.">
<polygon fill="white" stroke="#666666" points="417.5,-130 338.5,-130 338.5,-111 417.5,-111 417.5,-130"/>
<text text-anchor="middle" x="378" y="-118" font-family="Helvetica,sans-Serif" font-size="10.00">Logger::Error</text>
</a>
</g>
</g>
<!-- Node1&#45;&gt;Node2 -->
<g id="edge1_Node000001_Node000002" class="edge">
<title>Node1&#45;&gt;Node2</title>
<g id="a_edge1_Node000001_Node000002"><a xlink:title=" ">
<path fill="none" stroke="#63b8ff" d="M124.46,-85.5C138.33,-88.77 153.14,-92 167,-94.5 221.94,-104.43 285.65,-111.73 328.37,-116.03"/>
<polygon fill="#63b8ff" stroke="#63b8ff" points="328.19,-119.53 338.49,-117.03 328.88,-112.56 328.19,-119.53"/>
</a>
</g>
</g>
<!-- Node5 -->
<g id="Node000005" class="node">
<title>Node5</title>
<g id="a_Node000005"><a xlink:href="classLogger.html#a5789d11f8f1356e2192c0023a089cbc4" target="_top" xlink:title="Get singleton instance.">
<polygon fill="white" stroke="#666666" points="435,-19 321,-19 321,0 435,0 435,-19"/>
<text text-anchor="middle" x="378" y="-7" font-family="Helvetica,sans-Serif" font-size="10.00">Logger::GetInstance</text>
</a>
</g>
</g>
<!-- Node1&#45;&gt;Node5 -->
<g id="edge4_Node000001_Node000005" class="edge">
<title>Node1&#45;&gt;Node5</title>
<g id="a_edge4_Node000001_Node000005"><a xlink:title=" ">
<path fill="none" stroke="#63b8ff" d="M126.95,-55.44C140.12,-52.34 154,-49.19 167,-46.5 214.89,-36.57 269.27,-27.04 310.7,-20.13"/>
<polygon fill="#63b8ff" stroke="#63b8ff" points="311.38,-23.57 320.67,-18.48 310.23,-16.66 311.38,-23.57"/>
</a>
</g>
</g>
<!-- Node6 -->
<g id="Node000006" class="node">
<title>Node6</title>
<g id="a_Node000006"><a xlink:href="classTle92466edHandler.html#ac607f9cf2453e8d1849b40d2dd8e8474" target="_top" xlink:title="Initialize driver (hardware reset + SPI init + enter config mode).">
<polygon fill="white" stroke="#666666" points="285,-85.5 167,-85.5 167,-55.5 285,-55.5 285,-85.5"/>
<text text-anchor="start" x="175" y="-73.5" font-family="Helvetica,sans-Serif" font-size="10.00">Tle92466edHandler::</text>
<text text-anchor="middle" x="226" y="-62.5" font-family="Helvetica,sans-Serif" font-size="10.00">Initialize</text>
</a>
</g>
</g>
<!-- Node1&#45;&gt;Node6 -->
<g id="edge5_Node000001_Node000006" class="edge">
<title>Node1&#45;&gt;Node6</title>
<g id="a_edge5_Node000001_Node000006"><a xlink:title=" ">
<path fill="none" stroke="#63b8ff" d="M131.43,-70.5C139.75,-70.5 148.3,-70.5 156.68,-70.5"/>
<polygon fill="#63b8ff" stroke="#63b8ff" points="156.79,-74 166.79,-70.5 156.79,-67 156.79,-74"/>
</a>
</g>
</g>
<!-- Node3 -->
<g id="Node000003" class="node">
<title>Node3</title>
<g id="a_Node000003"><a xlink:href="classLogger.html#af9e84e0ff6bd538e4f9ed8dcebc3e2f0" target="_top" xlink:title="Check if log level is enabled for tag.">
<polygon fill="white" stroke="#666666" points="600,-111 471,-111 471,-92 600,-92 600,-111"/>
<text text-anchor="middle" x="535.5" y="-99" font-family="Helvetica,sans-Serif" font-size="10.00">Logger::IsLevelEnabled</text>
</a>
</g>
</g>
<!-- Node2&#45;&gt;Node3 -->
<g id="edge2_Node000002_Node000003" class="edge">
<title>Node2&#45;&gt;Node3</title>
<g id="a_edge2_Node000002_Node000003"><a xlink:title=" ">
<path fill="none" stroke="#63b8ff" d="M417.84,-115.75C430.85,-114.16 445.82,-112.34 460.6,-110.53"/>
<polygon fill="#63b8ff" stroke="#63b8ff" points="461.28,-113.97 470.78,-109.29 460.43,-107.02 461.28,-113.97"/>
</a>
</g>
</g>
<!-- Node4 -->
<g id="Node000004" class="node">
<title>Node4</title>
<g id="a_Node000004"><a xlink:href="classLogger.html#a6adb205db597526fb91ad20067400394" target="_top" xlink:title="Internal logging method.">
<polygon fill="white" stroke="#666666" points="590.5,-74 480.5,-74 480.5,-55 590.5,-55 590.5,-74"/>
<text text-anchor="middle" x="535.5" y="-62" font-family="Helvetica,sans-Serif" font-size="10.00">Logger::LogInternal</text>
</a>
</g>
</g>
<!-- Node2&#45;&gt;Node4 -->
<g id="edge3_Node000002_Node000004" class="edge">
<title>Node2&#45;&gt;Node4</title>
<g id="a_edge3_Node000002_Node000004"><a xlink:title=" ">
<path fill="none" stroke="#63b8ff" d="M411.92,-110.98C419.59,-108.47 427.66,-105.59 435,-102.5 451.68,-95.48 454.25,-90.35 471,-83.5 476.53,-81.24 482.42,-79.12 488.31,-77.16"/>
<polygon fill="#63b8ff" stroke="#63b8ff" points="489.67,-80.41 498.14,-74.05 487.55,-73.73 489.67,-80.41"/>
</a>
</g>
</g>
<!-- Node6&#45;&gt;Node2 -->
<g id="edge6_Node000006_Node000002" class="edge">
<title>Node6&#45;&gt;Node2</title>
<g id="a_edge6_Node000006_Node000002"><a xlink:title=" ">
<path fill="none" stroke="#63b8ff" d="M270.94,-85.63C286.71,-91.02 304.63,-97.08 321,-102.5 326.27,-104.24 331.83,-106.06 337.32,-107.84"/>
<polygon fill="#63b8ff" stroke="#63b8ff" points="336.44,-111.23 347.03,-110.97 338.59,-104.57 336.44,-111.23"/>
</a>
</g>
</g>
<!-- Node6&#45;&gt;Node5 -->
<g id="edge7_Node000006_Node000005" class="edge">
<title>Node6&#45;&gt;Node5</title>
<g id="a_edge7_Node000006_Node000005"><a xlink:title=" ">
<path fill="none" stroke="#63b8ff" d="M258.88,-55.37C276.93,-47.02 300.03,-36.72 321,-28.5 326.26,-26.44 331.84,-24.39 337.37,-22.43"/>
<polygon fill="#63b8ff" stroke="#63b8ff" points="338.86,-25.62 347.17,-19.05 336.57,-19 338.86,-25.62"/>
</a>
</g>
</g>
<!-- Node7 -->
<g id="Node000007" class="node">
<title>Node7</title>
<g id="a_Node000007"><a xlink:href="classLogger.html#a4681229c521795685fc14f6b55c82300" target="_top" xlink:title="Log info message.">
<polygon fill="white" stroke="#666666" points="415,-56 341,-56 341,-37 415,-37 415,-56"/>
<text text-anchor="middle" x="378" y="-44" font-family="Helvetica,sans-Serif" font-size="10.00">Logger::Info</text>
</a>
</g>
</g>
<!-- Node6&#45;&gt;Node7 -->
<g id="edge8_Node000006_Node000007" class="edge">
<title>Node6&#45;&gt;Node7</title>
<g id="a_edge8_Node000006_Node000007"><a xlink:title=" ">
<path fill="none" stroke="#63b8ff" d="M285.42,-61.15C300.38,-58.76 316.27,-56.22 330.54,-53.93"/>
<polygon fill="#63b8ff" stroke="#63b8ff" points="331.28,-57.36 340.6,-52.32 330.18,-50.45 331.28,-57.36"/>
</a>
</g>
</g>
<!-- Node8 -->
<g id="Node000008" class="node">
<title>Node8</title>
<g id="a_Node000008"><a xlink:href="classLogger.html#aaa95ffa14d07a965d4a85bdec82cba26" target="_top" xlink:title="Log warning message.">
<polygon fill="white" stroke="#666666" points="418,-93 338,-93 338,-74 418,-74 418,-93"/>
<text text-anchor="middle" x="378" y="-81" font-family="Helvetica,sans-Serif" font-size="10.00">Logger::Warn</text>
</a>
</g>
</g>
<!-- Node6&#45;&gt;Node8 -->
<g id="edge11_Node000006_Node000008" class="edge">
<title>Node6&#45;&gt;Node8</title>
<g id="a_edge11_Node000006_Node000008"><a xlink:title=" ">
<path fill="none" stroke="#63b8ff" d="M285.42,-75.56C299.45,-76.78 314.29,-78.07 327.85,-79.24"/>
<polygon fill="#63b8ff" stroke="#63b8ff" points="327.67,-82.74 337.94,-80.11 328.27,-75.76 327.67,-82.74"/>
</a>
</g>
</g>
<!-- Node7&#45;&gt;Node3 -->
<g id="edge9_Node000007_Node000003" class="edge">
<title>Node7&#45;&gt;Node3</title>
<g id="a_edge9_Node000007_Node000003"><a xlink:title=" ">
<path fill="none" stroke="#63b8ff" d="M409.51,-56.01C417.86,-58.84 426.85,-62.1 435,-65.5 451.51,-72.39 454.32,-77.03 471,-83.5 476.07,-85.47 481.45,-87.33 486.85,-89.05"/>
<polygon fill="#63b8ff" stroke="#63b8ff" points="485.92,-92.42 496.51,-91.99 487.96,-85.73 485.92,-92.42"/>
</a>
</g>
</g>
<!-- Node7&#45;&gt;Node4 -->
<g id="edge10_Node000007_Node000004" class="edge">
<title>Node7&#45;&gt;Node4</title>
<g id="a_edge10_Node000007_Node000004"><a xlink:title=" ">
<path fill="none" stroke="#63b8ff" d="M415.07,-50.67C431.49,-52.58 451.44,-54.89 470.3,-57.07"/>
<polygon fill="#63b8ff" stroke="#63b8ff" points="470,-60.56 480.33,-58.23 470.8,-53.6 470,-60.56"/>
</a>
</g>
</g>
<!-- Node8&#45;&gt;Node3 -->
<g id="edge12_Node000008_Node000003" class="edge">
<title>Node8&#45;&gt;Node3</title>
<g id="a_edge12_Node000008_Node000003"><a xlink:title=" ">
<path fill="none" stroke="#63b8ff" d="M418.24,-88.04C431.18,-89.54 446.02,-91.26 460.68,-92.95"/>
<polygon fill="#63b8ff" stroke="#63b8ff" points="460.43,-96.45 470.77,-94.12 461.24,-89.5 460.43,-96.45"/>
</a>
</g>
</g>
<!-- Node8&#45;&gt;Node4 -->
<g id="edge13_Node000008_Node000004" class="edge">
<title>Node8&#45;&gt;Node4</title>
<g id="a_edge13_Node000008_Node000004"><a xlink:title=" ">
<path fill="none" stroke="#63b8ff" d="M418.24,-78.71C433.96,-76.78 452.49,-74.52 470.08,-72.37"/>
<polygon fill="#63b8ff" stroke="#63b8ff" points="470.8,-75.81 480.3,-71.12 469.95,-68.86 470.8,-75.81"/>
</a>
</g>
</g>
</g>
</svg>
