<?xml version="1.0" encoding="UTF-8" standalone="no"?>
<!DOCTYPE svg PUBLIC "-//W3C//DTD SVG 1.1//EN"
 "http://www.w3.org/Graphics/SVG/1.1/DTD/svg11.dtd">
<!-- Generated by graphviz version 2.43.0 (0)
 -->
<!-- Title: HalI2cSe050Comm::HardwareReset Pages: 1 -->
<svg width="404pt" height="76pt"
 viewBox="0.00 0.00 404.00 75.50" xmlns="http://www.w3.org/2000/svg" xmlns:xlink="http://www.w3.org/1999/xlink">
<g id="graph0" class="graph" transform="scale(1 1) rotate(0) translate(4 71.5)">
<title>HalI2cSe050Comm::HardwareReset</title>
<!-- Node1 -->
<g id="Node000001" class="node">
<title>Node1</title>
<g id="a_Node000001"><a xlink:title=" ">
<polygon fill="#999999" stroke="#666666" points="163,-45.5 0,-45.5 0,-15.5 163,-15.5 163,-45.5"/>
<text text-anchor="start" x="8" y="-33.5" font-family="Helvetica,sans-Serif" font-size="10.00">HalI2cSe050Comm::Hardware</text>
<text text-anchor="middle" x="81.5" y="-22.5" font-family="Helvetica,sans-Serif" font-size="10.00">Reset</text>
</a>
</g>
</g>
<!-- Node2 -->
<g id="Node000002" class="node">
<title>Node2</title>
<g id="a_Node000002"><a xlink:href="classHalI2cSe050Comm.html#ac5a6e9ff0bfe08f99111fe4f43ee51d3" target="_top" xlink:title=" ">
<polygon fill="white" stroke="#666666" points="369,-67.5 226,-67.5 226,-37.5 369,-37.5 369,-67.5"/>
<text text-anchor="start" x="234" y="-55.5" font-family="Helvetica,sans-Serif" font-size="10.00">HalI2cSe050Comm::delay</text>
<text text-anchor="middle" x="297.5" y="-44.5" font-family="Helvetica,sans-Serif" font-size="10.00">_ms_impl</text>
</a>
</g>
</g>
<!-- Node1&#45;&gt;Node2 -->
<g id="edge1_Node000001_Node000002" class="edge">
<title>Node1&#45;&gt;Node2</title>
<g id="a_edge1_Node000001_Node000002"><a xlink:title=" ">
<path fill="none" stroke="#63b8ff" d="M163.1,-38.79C180.33,-40.56 198.54,-42.43 215.78,-44.2"/>
<polygon fill="#63b8ff" stroke="#63b8ff" points="215.5,-47.69 225.8,-45.23 216.21,-40.73 215.5,-47.69"/>
</a>
</g>
</g>
<!-- Node3 -->
<g id="Node000003" class="node">
<title>Node3</title>
<g id="a_Node000003"><a xlink:href="classHalI2cSe050Comm.html#aafe10210e9cfb60c100ebfcf4803983d" target="_top" xlink:title=" ">
<polygon fill="white" stroke="#666666" points="396,-19 199,-19 199,0 396,0 396,-19"/>
<text text-anchor="middle" x="297.5" y="-7" font-family="Helvetica,sans-Serif" font-size="10.00">HalI2cSe050Comm::EnsureInitialized</text>
</a>
</g>
</g>
<!-- Node1&#45;&gt;Node3 -->
<g id="edge2_Node000001_Node000003" class="edge">
<title>Node1&#45;&gt;Node3</title>
<g id="a_edge2_Node000001_Node000003"><a xlink:title=" ">
<path fill="none" stroke="#63b8ff" d="M163.1,-22.59C171.71,-21.75 180.56,-20.88 189.41,-20.01"/>
<polygon fill="#63b8ff" stroke="#63b8ff" points="189.78,-23.49 199.39,-19.03 189.1,-16.52 189.78,-23.49"/>
</a>
</g>
</g>
</g>
</svg>
