<?xml version="1.0" encoding="UTF-8" standalone="no"?>
<!DOCTYPE svg PUBLIC "-//W3C//DTD SVG 1.1//EN"
 "http://www.w3.org/Graphics/SVG/1.1/DTD/svg11.dtd">
<!-- Generated by graphviz version 2.43.0 (0)
 -->
<!-- Title: NtcTemperatureHandler::~NtcTemperatureHandler Pages: 1 -->
<svg width="658pt" height="82pt"
 viewBox="0.00 0.00 658.00 82.00" xmlns="http://www.w3.org/2000/svg" xmlns:xlink="http://www.w3.org/1999/xlink">
<g id="graph0" class="graph" transform="scale(1 1) rotate(0) translate(4 78)">
<title>NtcTemperatureHandler::~NtcTemperatureHandler</title>
<!-- Node1 -->
<g id="Node000001" class="node">
<title>Node1</title>
<g id="a_Node000001"><a xlink:title="Virtual destructor &#45; cleans up timer and thermistor resources.">
<polygon fill="#999999" stroke="#666666" points="147,-60.5 0,-60.5 0,-30.5 147,-30.5 147,-60.5"/>
<text text-anchor="start" x="8" y="-48.5" font-family="Helvetica,sans-Serif" font-size="10.00">NtcTemperatureHandler</text>
<text text-anchor="middle" x="73.5" y="-37.5" font-family="Helvetica,sans-Serif" font-size="10.00">::~NtcTemperatureHandler</text>
</a>
</g>
</g>
<!-- Node2 -->
<g id="Node000002" class="node">
<title>Node2</title>
<g id="a_Node000002"><a xlink:href="classNtcTemperatureHandler.html#a7cd3aa59989bec0514d6717d345d8466" target="_top" xlink:title=" ">
<polygon fill="white" stroke="#666666" points="335,-60.5 183,-60.5 183,-30.5 335,-30.5 335,-60.5"/>
<text text-anchor="start" x="191" y="-48.5" font-family="Helvetica,sans-Serif" font-size="10.00">NtcTemperatureHandler</text>
<text text-anchor="middle" x="259" y="-37.5" font-family="Helvetica,sans-Serif" font-size="10.00">::StopContinuousMonitoring</text>
</a>
</g>
</g>
<!-- Node1&#45;&gt;Node2 -->
<g id="edge1_Node000001_Node000002" class="edge">
<title>Node1&#45;&gt;Node2</title>
<g id="a_edge1_Node000001_Node000002"><a xlink:title=" ">
<path fill="none" stroke="#63b8ff" d="M147.02,-45.5C155.52,-45.5 164.25,-45.5 172.89,-45.5"/>
<polygon fill="#63b8ff" stroke="#63b8ff" points="172.99,-49 182.99,-45.5 172.99,-42 172.99,-49"/>
</a>
</g>
</g>
<!-- Node3 -->
<g id="Node000003" class="node">
<title>Node3</title>
<g id="a_Node000003"><a xlink:href="classLogger.html#a5789d11f8f1356e2192c0023a089cbc4" target="_top" xlink:title="Get singleton instance.">
<polygon fill="white" stroke="#666666" points="485,-74 371,-74 371,-55 485,-55 485,-74"/>
<text text-anchor="middle" x="428" y="-62" font-family="Helvetica,sans-Serif" font-size="10.00">Logger::GetInstance</text>
</a>
</g>
</g>
<!-- Node2&#45;&gt;Node3 -->
<g id="edge2_Node000002_Node000003" class="edge">
<title>Node2&#45;&gt;Node3</title>
<g id="a_edge2_Node000002_Node000003"><a xlink:title=" ">
<path fill="none" stroke="#63b8ff" d="M335.19,-54.06C343.69,-55.02 352.3,-56 360.67,-56.95"/>
<polygon fill="#63b8ff" stroke="#63b8ff" points="360.4,-60.45 370.73,-58.1 361.19,-53.49 360.4,-60.45"/>
</a>
</g>
</g>
<!-- Node4 -->
<g id="Node000004" class="node">
<title>Node4</title>
<g id="a_Node000004"><a xlink:href="classLogger.html#a1c0c947d87884bca0395fd38d19d1102" target="_top" xlink:title="Log info message.">
<polygon fill="white" stroke="#666666" points="465,-37 391,-37 391,-18 465,-18 465,-37"/>
<text text-anchor="middle" x="428" y="-25" font-family="Helvetica,sans-Serif" font-size="10.00">Logger::Info</text>
</a>
</g>
</g>
<!-- Node2&#45;&gt;Node4 -->
<g id="edge3_Node000002_Node000004" class="edge">
<title>Node2&#45;&gt;Node4</title>
<g id="a_edge3_Node000002_Node000004"><a xlink:title=" ">
<path fill="none" stroke="#63b8ff" d="M335.19,-37.4C350.8,-35.71 366.8,-33.99 380.97,-32.46"/>
<polygon fill="#63b8ff" stroke="#63b8ff" points="381.38,-35.94 390.94,-31.39 380.63,-28.98 381.38,-35.94"/>
</a>
</g>
</g>
<!-- Node5 -->
<g id="Node000005" class="node">
<title>Node5</title>
<g id="a_Node000005"><a xlink:href="classLogger.html#a737b981213c02321a5235848334d7191" target="_top" xlink:title="Check if log level is enabled for tag.">
<polygon fill="white" stroke="#666666" points="650,-56 521,-56 521,-37 650,-37 650,-56"/>
<text text-anchor="middle" x="585.5" y="-44" font-family="Helvetica,sans-Serif" font-size="10.00">Logger::IsLevelEnabled</text>
</a>
</g>
</g>
<!-- Node4&#45;&gt;Node5 -->
<g id="edge4_Node000004_Node000005" class="edge">
<title>Node4&#45;&gt;Node5</title>
<g id="a_edge4_Node000004_Node000005"><a xlink:title=" ">
<path fill="none" stroke="#63b8ff" d="M465.07,-31.91C478.68,-33.57 494.72,-35.53 510.55,-37.46"/>
<polygon fill="#63b8ff" stroke="#63b8ff" points="510.54,-40.99 520.89,-38.73 511.39,-34.04 510.54,-40.99"/>
</a>
</g>
</g>
<!-- Node6 -->
<g id="Node000006" class="node">
<title>Node6</title>
<g id="a_Node000006"><a xlink:href="classLogger.html#aeede6ac18db92a47caede076ef188a13" target="_top" xlink:title="Internal logging method.">
<polygon fill="white" stroke="#666666" points="640.5,-19 530.5,-19 530.5,0 640.5,0 640.5,-19"/>
<text text-anchor="middle" x="585.5" y="-7" font-family="Helvetica,sans-Serif" font-size="10.00">Logger::LogInternal</text>
</a>
</g>
</g>
<!-- Node4&#45;&gt;Node6 -->
<g id="edge5_Node000004_Node000006" class="edge">
<title>Node4&#45;&gt;Node6</title>
<g id="a_edge5_Node000004_Node000006"><a xlink:title=" ">
<path fill="none" stroke="#63b8ff" d="M465.07,-23.33C481.49,-21.42 501.44,-19.11 520.3,-16.93"/>
<polygon fill="#63b8ff" stroke="#63b8ff" points="520.8,-20.4 530.33,-15.77 520,-13.44 520.8,-20.4"/>
</a>
</g>
</g>
</g>
</svg>
