<?xml version="1.0" encoding="UTF-8" standalone="no"?>
<!DOCTYPE svg PUBLIC "-//W3C//DTD SVG 1.1//EN"
 "http://www.w3.org/Graphics/SVG/1.1/DTD/svg11.dtd">
<!-- Generated by graphviz version 2.43.0 (0)
 -->
<!-- Title: Pca9685PwmAdapter::Initialize Pages: 1 -->
<svg width="533pt" height="70pt"
 viewBox="0.00 0.00 533.00 69.50" xmlns="http://www.w3.org/2000/svg" xmlns:xlink="http://www.w3.org/1999/xlink">
<g id="graph0" class="graph" transform="scale(1 1) rotate(0) translate(4 65.5)">
<title>Pca9685PwmAdapter::Initialize</title>
<!-- Node1 -->
<g id="Node000001" class="node">
<title>Node1</title>
<g id="a_Node000001"><a xlink:title="Initialize the PWM adapter (ensures parent handler is initialized).">
<polygon fill="#999999" stroke="#666666" points="126,-42.5 0,-42.5 0,-12.5 126,-12.5 126,-42.5"/>
<text text-anchor="start" x="8" y="-30.5" font-family="Helvetica,sans-Serif" font-size="10.00">Pca9685PwmAdapter::</text>
<text text-anchor="middle" x="63" y="-19.5" font-family="Helvetica,sans-Serif" font-size="10.00">Initialize</text>
</a>
</g>
</g>
<!-- Node2 -->
<g id="Node000002" class="node">
<title>Node2</title>
<g id="a_Node000002"><a xlink:href="classPca9685Handler.html#a088d4c2eecbd5c39480a5dddf73d91d3" target="_top" xlink:title="Ensure the handler is initialized (lazy initialization).">
<polygon fill="white" stroke="#666666" points="345,-56 162,-56 162,-37 345,-37 345,-56"/>
<text text-anchor="middle" x="253.5" y="-44" font-family="Helvetica,sans-Serif" font-size="10.00">Pca9685Handler::EnsureInitialized</text>
</a>
</g>
</g>
<!-- Node1&#45;&gt;Node2 -->
<g id="edge1_Node000001_Node000002" class="edge">
<title>Node1&#45;&gt;Node2</title>
<g id="a_edge1_Node000001_Node000002"><a xlink:title=" ">
<path fill="none" stroke="#63b8ff" d="M126.24,-33.77C134.41,-34.6 142.95,-35.46 151.56,-36.33"/>
<polygon fill="#63b8ff" stroke="#63b8ff" points="151.38,-39.83 161.68,-37.35 152.08,-32.86 151.38,-39.83"/>
</a>
</g>
</g>
<!-- Node4 -->
<g id="Node000004" class="node">
<title>Node4</title>
<g id="a_Node000004"><a xlink:href="classPca9685Handler.html#ae9ec3bcf1629765a26d627e48afc10b1" target="_top" xlink:title="Check if the handler has been initialized.">
<polygon fill="white" stroke="#666666" points="332.5,-19 174.5,-19 174.5,0 332.5,0 332.5,-19"/>
<text text-anchor="middle" x="253.5" y="-7" font-family="Helvetica,sans-Serif" font-size="10.00">Pca9685Handler::IsInitialized</text>
</a>
</g>
</g>
<!-- Node1&#45;&gt;Node4 -->
<g id="edge3_Node000001_Node000004" class="edge">
<title>Node1&#45;&gt;Node4</title>
<g id="a_edge3_Node000001_Node000004"><a xlink:title=" ">
<path fill="none" stroke="#63b8ff" d="M126.24,-21.56C138.34,-20.4 151.24,-19.17 164,-17.95"/>
<polygon fill="#63b8ff" stroke="#63b8ff" points="164.56,-21.41 174.18,-16.98 163.9,-14.44 164.56,-21.41"/>
</a>
</g>
</g>
<!-- Node3 -->
<g id="Node000003" class="node">
<title>Node3</title>
<g id="a_Node000003"><a xlink:href="classPca9685Handler.html#ab7b5cd2320a6bb69ff6a2869051e9d5e" target="_top" xlink:title="Internal initialization (called under mutex).">
<polygon fill="white" stroke="#666666" points="525,-61.5 381,-61.5 381,-31.5 525,-31.5 525,-61.5"/>
<text text-anchor="start" x="389" y="-49.5" font-family="Helvetica,sans-Serif" font-size="10.00">Pca9685Handler::initialize</text>
<text text-anchor="middle" x="453" y="-38.5" font-family="Helvetica,sans-Serif" font-size="10.00">Internal</text>
</a>
</g>
</g>
<!-- Node2&#45;&gt;Node3 -->
<g id="edge2_Node000002_Node000003" class="edge">
<title>Node2&#45;&gt;Node3</title>
<g id="a_edge2_Node000002_Node000003"><a xlink:title=" ">
<path fill="none" stroke="#63b8ff" d="M345.16,-46.5C353.66,-46.5 362.25,-46.5 370.67,-46.5"/>
<polygon fill="#63b8ff" stroke="#63b8ff" points="370.82,-50 380.82,-46.5 370.82,-43 370.82,-50"/>
</a>
</g>
</g>
</g>
</svg>
