<?xml version="1.0" encoding="UTF-8" standalone="no"?>
<!DOCTYPE svg PUBLIC "-//W3C//DTD SVG 1.1//EN"
 "http://www.w3.org/Graphics/SVG/1.1/DTD/svg11.dtd">
<!-- Generated by graphviz version 2.43.0 (0)
 -->
<!-- Title: Ws2812Handler::GetAnimator Pages: 1 -->
<svg width="1078pt" height="138pt"
 viewBox="0.00 0.00 1078.00 138.00" xmlns="http://www.w3.org/2000/svg" xmlns:xlink="http://www.w3.org/1999/xlink">
<g id="graph0" class="graph" transform="scale(1 1) rotate(0) translate(4 134)">
<title>Ws2812Handler::GetAnimator</title>
<!-- Node1 -->
<g id="Node000001" class="node">
<title>Node1</title>
<g id="a_Node000001"><a xlink:title=" ">
<polygon fill="#999999" stroke="#666666" points="162,-74 0,-74 0,-55 162,-55 162,-74"/>
<text text-anchor="middle" x="81" y="-62" font-family="Helvetica,sans-Serif" font-size="10.00">Ws2812Handler::GetAnimator</text>
</a>
</g>
</g>
<!-- Node2 -->
<g id="Node000002" class="node">
<title>Node2</title>
<g id="a_Node000002"><a xlink:href="classWs2812Handler.html#a3e09ba2c15d5b0e7d6d254e22f634ae8" target="_top" xlink:title="Get the animator object.">
<polygon fill="white" stroke="#666666" points="360,-74 198,-74 198,-55 360,-55 360,-74"/>
<text text-anchor="middle" x="279" y="-62" font-family="Helvetica,sans-Serif" font-size="10.00">Ws2812Handler::GetAnimator</text>
</a>
</g>
</g>
<!-- Node1&#45;&gt;Node2 -->
<g id="edge1_Node000001_Node000002" class="edge">
<title>Node1&#45;&gt;Node2</title>
<g id="a_edge1_Node000001_Node000002"><a xlink:title=" ">
<path fill="none" stroke="#63b8ff" d="M162,-64.5C170.52,-64.5 179.23,-64.5 187.86,-64.5"/>
<polygon fill="#63b8ff" stroke="#63b8ff" points="187.93,-68 197.93,-64.5 187.93,-61 187.93,-68"/>
</a>
</g>
</g>
<!-- Node3 -->
<g id="Node000003" class="node">
<title>Node3</title>
<g id="a_Node000003"><a xlink:href="classWs2812Handler.html#afe5f397b22e9b92cf2fb2cebae6e123d" target="_top" xlink:title=" ">
<polygon fill="white" stroke="#666666" points="577,-79.5 396,-79.5 396,-49.5 577,-49.5 577,-79.5"/>
<text text-anchor="start" x="404" y="-67.5" font-family="Helvetica,sans-Serif" font-size="10.00">Ws2812Handler::EnsureInitialized</text>
<text text-anchor="middle" x="486.5" y="-56.5" font-family="Helvetica,sans-Serif" font-size="10.00">Locked</text>
</a>
</g>
</g>
<!-- Node2&#45;&gt;Node3 -->
<g id="edge2_Node000002_Node000003" class="edge">
<title>Node2&#45;&gt;Node3</title>
<g id="a_edge2_Node000002_Node000003"><a xlink:title=" ">
<path fill="none" stroke="#63b8ff" d="M360.04,-64.5C368.46,-64.5 377.1,-64.5 385.71,-64.5"/>
<polygon fill="#63b8ff" stroke="#63b8ff" points="385.79,-68 395.79,-64.5 385.79,-61 385.79,-68"/>
</a>
</g>
</g>
<!-- Node4 -->
<g id="Node000004" class="node">
<title>Node4</title>
<g id="a_Node000004"><a xlink:href="classWs2812Handler.html#a172ae173d1e2bd93c9808452aad6e4cd" target="_top" xlink:title="Initialize the RMT channel and LED strip.">
<polygon fill="white" stroke="#666666" points="755,-74 613,-74 613,-55 755,-55 755,-74"/>
<text text-anchor="middle" x="684" y="-62" font-family="Helvetica,sans-Serif" font-size="10.00">Ws2812Handler::Initialize</text>
</a>
</g>
</g>
<!-- Node3&#45;&gt;Node4 -->
<g id="edge3_Node000003_Node000004" class="edge">
<title>Node3&#45;&gt;Node4</title>
<g id="a_edge3_Node000003_Node000004"><a xlink:title=" ">
<path fill="none" stroke="#63b8ff" d="M577.24,-64.5C585.73,-64.5 594.3,-64.5 602.7,-64.5"/>
<polygon fill="#63b8ff" stroke="#63b8ff" points="602.84,-68 612.84,-64.5 602.84,-61 602.84,-68"/>
</a>
</g>
</g>
<!-- Node5 -->
<g id="Node000005" class="node">
<title>Node5</title>
<g id="a_Node000005"><a xlink:href="classLogger.html#a5e4bcdaea60b9ac227b564d780388769" target="_top" xlink:title="Log error message.">
<polygon fill="white" stroke="#666666" points="887.5,-130 808.5,-130 808.5,-111 887.5,-111 887.5,-130"/>
<text text-anchor="middle" x="848" y="-118" font-family="Helvetica,sans-Serif" font-size="10.00">Logger::Error</text>
</a>
</g>
</g>
<!-- Node4&#45;&gt;Node5 -->
<g id="edge4_Node000004_Node000005" class="edge">
<title>Node4&#45;&gt;Node5</title>
<g id="a_edge4_Node000004_Node000005"><a xlink:title=" ">
<path fill="none" stroke="#63b8ff" d="M711.05,-74.11C732.46,-81.94 763.61,-93.19 791,-102.5 796.2,-104.27 801.68,-106.08 807.1,-107.85"/>
<polygon fill="#63b8ff" stroke="#63b8ff" points="806.12,-111.22 816.71,-110.97 808.28,-104.56 806.12,-111.22"/>
</a>
</g>
</g>
<!-- Node8 -->
<g id="Node000008" class="node">
<title>Node8</title>
<g id="a_Node000008"><a xlink:href="classLogger.html#a5789d11f8f1356e2192c0023a089cbc4" target="_top" xlink:title="Get singleton instance.">
<polygon fill="white" stroke="#666666" points="905,-19 791,-19 791,0 905,0 905,-19"/>
<text text-anchor="middle" x="848" y="-7" font-family="Helvetica,sans-Serif" font-size="10.00">Logger::GetInstance</text>
</a>
</g>
</g>
<!-- Node4&#45;&gt;Node8 -->
<g id="edge7_Node000004_Node000008" class="edge">
<title>Node4&#45;&gt;Node8</title>
<g id="a_edge7_Node000004_Node000008"><a xlink:title=" ">
<path fill="none" stroke="#63b8ff" d="M711.95,-54.89C733.33,-47.31 764.02,-36.54 791,-27.5 796.2,-25.76 801.69,-23.95 807.11,-22.19"/>
<polygon fill="#63b8ff" stroke="#63b8ff" points="808.29,-25.48 816.73,-19.08 806.14,-18.82 808.29,-25.48"/>
</a>
</g>
</g>
<!-- Node9 -->
<g id="Node000009" class="node">
<title>Node9</title>
<g id="a_Node000009"><a xlink:href="classLogger.html#a1c0c947d87884bca0395fd38d19d1102" target="_top" xlink:title="Log info message.">
<polygon fill="white" stroke="#666666" points="885,-93 811,-93 811,-74 885,-74 885,-93"/>
<text text-anchor="middle" x="848" y="-81" font-family="Helvetica,sans-Serif" font-size="10.00">Logger::Info</text>
</a>
</g>
</g>
<!-- Node4&#45;&gt;Node9 -->
<g id="edge8_Node000004_Node000009" class="edge">
<title>Node4&#45;&gt;Node9</title>
<g id="a_edge8_Node000004_Node000009"><a xlink:title=" ">
<path fill="none" stroke="#63b8ff" d="M755.11,-72.72C770.53,-74.53 786.48,-76.4 800.67,-78.07"/>
<polygon fill="#63b8ff" stroke="#63b8ff" points="800.33,-81.55 810.67,-79.24 801.15,-74.6 800.33,-81.55"/>
</a>
</g>
</g>
<!-- Node10 -->
<g id="Node000010" class="node">
<title>Node10</title>
<g id="a_Node000010"><a xlink:href="classLogger.html#a8c19c14724b0be1d2be63da4258c001a" target="_top" xlink:title="Log warning message.">
<polygon fill="white" stroke="#666666" points="888,-56 808,-56 808,-37 888,-37 888,-56"/>
<text text-anchor="middle" x="848" y="-44" font-family="Helvetica,sans-Serif" font-size="10.00">Logger::Warn</text>
</a>
</g>
</g>
<!-- Node4&#45;&gt;Node10 -->
<g id="edge11_Node000004_Node000010" class="edge">
<title>Node4&#45;&gt;Node10</title>
<g id="a_edge11_Node000004_Node000010"><a xlink:title=" ">
<path fill="none" stroke="#63b8ff" d="M755.11,-56.71C769.42,-55.12 784.2,-53.48 797.6,-51.99"/>
<polygon fill="#63b8ff" stroke="#63b8ff" points="798,-55.47 807.55,-50.88 797.22,-48.51 798,-55.47"/>
</a>
</g>
</g>
<!-- Node6 -->
<g id="Node000006" class="node">
<title>Node6</title>
<g id="a_Node000006"><a xlink:href="classLogger.html#a737b981213c02321a5235848334d7191" target="_top" xlink:title="Check if log level is enabled for tag.">
<polygon fill="white" stroke="#666666" points="1070,-111 941,-111 941,-92 1070,-92 1070,-111"/>
<text text-anchor="middle" x="1005.5" y="-99" font-family="Helvetica,sans-Serif" font-size="10.00">Logger::IsLevelEnabled</text>
</a>
</g>
</g>
<!-- Node5&#45;&gt;Node6 -->
<g id="edge5_Node000005_Node000006" class="edge">
<title>Node5&#45;&gt;Node6</title>
<g id="a_edge5_Node000005_Node000006"><a xlink:title=" ">
<path fill="none" stroke="#63b8ff" d="M887.84,-115.75C900.85,-114.16 915.82,-112.34 930.6,-110.53"/>
<polygon fill="#63b8ff" stroke="#63b8ff" points="931.28,-113.97 940.78,-109.29 930.43,-107.02 931.28,-113.97"/>
</a>
</g>
</g>
<!-- Node7 -->
<g id="Node000007" class="node">
<title>Node7</title>
<g id="a_Node000007"><a xlink:href="classLogger.html#aeede6ac18db92a47caede076ef188a13" target="_top" xlink:title="Internal logging method.">
<polygon fill="white" stroke="#666666" points="1060.5,-74 950.5,-74 950.5,-55 1060.5,-55 1060.5,-74"/>
<text text-anchor="middle" x="1005.5" y="-62" font-family="Helvetica,sans-Serif" font-size="10.00">Logger::LogInternal</text>
</a>
</g>
</g>
<!-- Node5&#45;&gt;Node7 -->
<g id="edge6_Node000005_Node000007" class="edge">
<title>Node5&#45;&gt;Node7</title>
<g id="a_edge6_Node000005_Node000007"><a xlink:title=" ">
<path fill="none" stroke="#63b8ff" d="M881.92,-110.98C889.59,-108.47 897.66,-105.59 905,-102.5 921.68,-95.48 924.25,-90.35 941,-83.5 946.53,-81.24 952.42,-79.12 958.31,-77.16"/>
<polygon fill="#63b8ff" stroke="#63b8ff" points="959.67,-80.41 968.14,-74.05 957.55,-73.73 959.67,-80.41"/>
</a>
</g>
</g>
<!-- Node9&#45;&gt;Node6 -->
<g id="edge9_Node000009_Node000006" class="edge">
<title>Node9&#45;&gt;Node6</title>
<g id="a_edge9_Node000009_Node000006"><a xlink:title=" ">
<path fill="none" stroke="#63b8ff" d="M885.07,-87.67C898.68,-89.25 914.72,-91.11 930.55,-92.94"/>
<polygon fill="#63b8ff" stroke="#63b8ff" points="930.55,-96.46 940.89,-94.14 931.36,-89.51 930.55,-96.46"/>
</a>
</g>
</g>
<!-- Node9&#45;&gt;Node7 -->
<g id="edge10_Node000009_Node000007" class="edge">
<title>Node9&#45;&gt;Node7</title>
<g id="a_edge10_Node000009_Node000007"><a xlink:title=" ">
<path fill="none" stroke="#63b8ff" d="M885.07,-79.09C901.49,-77.09 921.44,-74.65 940.3,-72.34"/>
<polygon fill="#63b8ff" stroke="#63b8ff" points="940.83,-75.81 950.33,-71.12 939.98,-68.86 940.83,-75.81"/>
</a>
</g>
</g>
<!-- Node10&#45;&gt;Node6 -->
<g id="edge12_Node000010_Node000006" class="edge">
<title>Node10&#45;&gt;Node6</title>
<g id="a_edge12_Node000010_Node000006"><a xlink:title=" ">
<path fill="none" stroke="#63b8ff" d="M879.51,-56.01C887.86,-58.84 896.85,-62.1 905,-65.5 921.51,-72.39 924.32,-77.03 941,-83.5 946.07,-85.47 951.45,-87.33 956.85,-89.05"/>
<polygon fill="#63b8ff" stroke="#63b8ff" points="955.92,-92.42 966.51,-91.99 957.96,-85.73 955.92,-92.42"/>
</a>
</g>
</g>
<!-- Node10&#45;&gt;Node7 -->
<g id="edge13_Node000010_Node000007" class="edge">
<title>Node10&#45;&gt;Node7</title>
<g id="a_edge13_Node000010_Node000007"><a xlink:title=" ">
<path fill="none" stroke="#63b8ff" d="M888.24,-51.04C903.96,-52.86 922.49,-55.01 940.08,-57.04"/>
<polygon fill="#63b8ff" stroke="#63b8ff" points="939.96,-60.55 950.3,-58.23 940.77,-53.6 939.96,-60.55"/>
</a>
</g>
</g>
</g>
</svg>
