<?xml version="1.0" encoding="UTF-8" standalone="no"?>
<!DOCTYPE svg PUBLIC "-//W3C//DTD SVG 1.1//EN"
 "http://www.w3.org/Graphics/SVG/1.1/DTD/svg11.dtd">
<!-- Generated by graphviz version 2.43.0 (0)
 -->
<!-- Title: IBno08xDriverOps::GetLastError Pages: 1 -->
<svg width="377pt" height="113pt"
 viewBox="0.00 0.00 377.00 113.00" xmlns="http://www.w3.org/2000/svg" xmlns:xlink="http://www.w3.org/1999/xlink">
<g id="graph0" class="graph" transform="scale(1 1) rotate(0) translate(4 109)">
<title>IBno08xDriverOps::GetLastError</title>
<!-- Node1 -->
<g id="Node000001" class="node">
<title>Node1</title>
<g id="a_Node000001"><a xlink:title=" ">
<polygon fill="#999999" stroke="#666666" points="369,-67.5 220,-67.5 220,-37.5 369,-37.5 369,-67.5"/>
<text text-anchor="start" x="228" y="-55.5" font-family="Helvetica,sans-Serif" font-size="10.00">IBno08xDriverOps::GetLast</text>
<text text-anchor="middle" x="294.5" y="-44.5" font-family="Helvetica,sans-Serif" font-size="10.00">Error</text>
</a>
</g>
</g>
<!-- Node2 -->
<g id="Node000002" class="node">
<title>Node2</title>
<g id="a_Node000002"><a xlink:href="classBno08xHandler.html#a58384d1dfa272ba616140abb9fa55c2b" target="_top" xlink:title="Dump comprehensive diagnostics to the logger.">
<polygon fill="white" stroke="#666666" points="184,-105 0,-105 0,-86 184,-86 184,-105"/>
<text text-anchor="middle" x="92" y="-93" font-family="Helvetica,sans-Serif" font-size="10.00">Bno08xHandler::DumpDiagnostics</text>
</a>
</g>
</g>
<!-- Node1&#45;&gt;Node2 -->
<g id="edge1_Node000001_Node000002" class="edge">
<title>Node1&#45;&gt;Node2</title>
<g id="a_edge1_Node000001_Node000002"><a xlink:title=" ">
<path fill="none" stroke="#63b8ff" d="M215.42,-69.71C204.86,-72.01 194.17,-74.32 184,-76.5 169.48,-79.61 153.64,-82.93 139.31,-85.92"/>
<polygon fill="#63b8ff" stroke="#63b8ff" points="216.45,-73.07 225.47,-67.52 214.96,-66.23 216.45,-73.07"/>
</a>
</g>
</g>
<!-- Node3 -->
<g id="Node000003" class="node">
<title>Node3</title>
<g id="a_Node000003"><a xlink:href="classBno08xHandler.html#a0f3b0686f5cbab0f7af7690d188c89b8" target="_top" xlink:title="Get the last driver&#45;level SH&#45;2 error code.">
<polygon fill="white" stroke="#666666" points="174.5,-67.5 9.5,-67.5 9.5,-37.5 174.5,-37.5 174.5,-67.5"/>
<text text-anchor="start" x="17.5" y="-55.5" font-family="Helvetica,sans-Serif" font-size="10.00">Bno08xHandler::GetLastDriver</text>
<text text-anchor="middle" x="92" y="-44.5" font-family="Helvetica,sans-Serif" font-size="10.00">Error</text>
</a>
</g>
</g>
<!-- Node1&#45;&gt;Node3 -->
<g id="edge2_Node000001_Node000003" class="edge">
<title>Node1&#45;&gt;Node3</title>
<g id="a_edge2_Node000001_Node000003"><a xlink:title=" ">
<path fill="none" stroke="#63b8ff" d="M209.84,-52.5C198.19,-52.5 186.24,-52.5 174.63,-52.5"/>
<polygon fill="#63b8ff" stroke="#63b8ff" points="209.98,-56 219.98,-52.5 209.98,-49 209.98,-56"/>
</a>
</g>
</g>
<!-- Node4 -->
<g id="Node000004" class="node">
<title>Node4</title>
<g id="a_Node000004"><a xlink:href="classBno08xHandler.html#a74cdf0328224c1a3fad944bbf1312e7e" target="_top" xlink:title="Update sensor &#45; must be called regularly to pump the SH&#45;2 service loop.">
<polygon fill="white" stroke="#666666" points="158.5,-19 25.5,-19 25.5,0 158.5,0 158.5,-19"/>
<text text-anchor="middle" x="92" y="-7" font-family="Helvetica,sans-Serif" font-size="10.00">Bno08xHandler::Update</text>
</a>
</g>
</g>
<!-- Node1&#45;&gt;Node4 -->
<g id="edge3_Node000001_Node000004" class="edge">
<title>Node1&#45;&gt;Node4</title>
<g id="a_edge3_Node000001_Node000004"><a xlink:title=" ">
<path fill="none" stroke="#63b8ff" d="M215.42,-35.29C204.86,-32.99 194.17,-30.68 184,-28.5 169.48,-25.39 153.64,-22.07 139.31,-19.08"/>
<polygon fill="#63b8ff" stroke="#63b8ff" points="214.96,-38.77 225.47,-37.48 216.45,-31.93 214.96,-38.77"/>
</a>
</g>
</g>
</g>
</svg>
