<?xml version="1.0" encoding="UTF-8" standalone="no"?>
<!DOCTYPE svg PUBLIC "-//W3C//DTD SVG 1.1//EN"
 "http://www.w3.org/Graphics/SVG/1.1/DTD/svg11.dtd">
<!-- Generated by graphviz version 2.43.0 (0)
 -->
<!-- Title: Bno08xHandler::GetSensor Pages: 1 -->
<svg width="1151pt" height="162pt"
 viewBox="0.00 0.00 1151.00 161.50" xmlns="http://www.w3.org/2000/svg" xmlns:xlink="http://www.w3.org/1999/xlink">
<g id="graph0" class="graph" transform="scale(1 1) rotate(0) translate(4 157.5)">
<title>Bno08xHandler::GetSensor</title>
<!-- Node1 -->
<g id="Node000001" class="node">
<title>Node1</title>
<g id="a_Node000001"><a xlink:title="Const overload of GetSensor().">
<polygon fill="#999999" stroke="#666666" points="148,-83 0,-83 0,-64 148,-64 148,-83"/>
<text text-anchor="middle" x="74" y="-71" font-family="Helvetica,sans-Serif" font-size="10.00">Bno08xHandler::GetSensor</text>
</a>
</g>
</g>
<!-- Node2 -->
<g id="Node000002" class="node">
<title>Node2</title>
<g id="a_Node000002"><a xlink:href="classBno08xHandler.html#a57e2952c0438e800c091cd0e3ebcdaf5" target="_top" xlink:title="Get direct access to the underlying sensor driver (type&#45;erased).">
<polygon fill="white" stroke="#666666" points="332,-83 184,-83 184,-64 332,-64 332,-83"/>
<text text-anchor="middle" x="258" y="-71" font-family="Helvetica,sans-Serif" font-size="10.00">Bno08xHandler::GetSensor</text>
</a>
</g>
</g>
<!-- Node1&#45;&gt;Node2 -->
<g id="edge1_Node000001_Node000002" class="edge">
<title>Node1&#45;&gt;Node2</title>
<g id="a_edge1_Node000001_Node000002"><a xlink:title=" ">
<path fill="none" stroke="#63b8ff" d="M148.24,-73.5C156.6,-73.5 165.16,-73.5 173.64,-73.5"/>
<polygon fill="#63b8ff" stroke="#63b8ff" points="173.91,-77 183.91,-73.5 173.91,-70 173.91,-77"/>
</a>
</g>
</g>
<!-- Node3 -->
<g id="Node000003" class="node">
<title>Node3</title>
<g id="a_Node000003"><a xlink:href="classBno08xHandler.html#afab341345c8ed8fed1a218e0df18c4aa" target="_top" xlink:title="Ensure the BNO08x is initialized (lazy init entrypoint).">
<polygon fill="white" stroke="#666666" points="547,-83 368,-83 368,-64 547,-64 547,-83"/>
<text text-anchor="middle" x="457.5" y="-71" font-family="Helvetica,sans-Serif" font-size="10.00">Bno08xHandler::EnsureInitialized</text>
</a>
</g>
</g>
<!-- Node2&#45;&gt;Node3 -->
<g id="edge2_Node000002_Node000003" class="edge">
<title>Node2&#45;&gt;Node3</title>
<g id="a_edge2_Node000002_Node000003"><a xlink:title=" ">
<path fill="none" stroke="#63b8ff" d="M332.26,-73.5C340.62,-73.5 349.25,-73.5 357.87,-73.5"/>
<polygon fill="#63b8ff" stroke="#63b8ff" points="357.98,-77 367.98,-73.5 357.98,-70 357.98,-77"/>
</a>
</g>
</g>
<!-- Node4 -->
<g id="Node000004" class="node">
<title>Node4</title>
<g id="a_Node000004"><a xlink:href="classBno08xHandler.html#a0479abc034d5417ba7dc524468a5ce82" target="_top" xlink:title="Internal: ensure initialized (assumes mutex is held).">
<polygon fill="white" stroke="#666666" points="762,-88.5 583,-88.5 583,-58.5 762,-58.5 762,-88.5"/>
<text text-anchor="start" x="591" y="-76.5" font-family="Helvetica,sans-Serif" font-size="10.00">Bno08xHandler::ensureInitialized</text>
<text text-anchor="middle" x="672.5" y="-65.5" font-family="Helvetica,sans-Serif" font-size="10.00">Locked</text>
</a>
</g>
</g>
<!-- Node3&#45;&gt;Node4 -->
<g id="edge3_Node000003_Node000004" class="edge">
<title>Node3&#45;&gt;Node4</title>
<g id="a_edge3_Node000003_Node000004"><a xlink:title=" ">
<path fill="none" stroke="#63b8ff" d="M547.29,-73.5C555.65,-73.5 564.16,-73.5 572.6,-73.5"/>
<polygon fill="#63b8ff" stroke="#63b8ff" points="572.86,-77 582.86,-73.5 572.85,-70 572.86,-77"/>
</a>
</g>
</g>
<!-- Node5 -->
<g id="Node000005" class="node">
<title>Node5</title>
<g id="a_Node000005"><a xlink:href="classBno08xHandler.html#ac1a1ff0d56324dcc09d9b48ca2e132e6" target="_top" xlink:title="Initialize the BNO08x sensor.">
<polygon fill="white" stroke="#666666" points="938,-83 798,-83 798,-64 938,-64 938,-83"/>
<text text-anchor="middle" x="868" y="-71" font-family="Helvetica,sans-Serif" font-size="10.00">Bno08xHandler::Initialize</text>
</a>
</g>
</g>
<!-- Node4&#45;&gt;Node5 -->
<g id="edge4_Node000004_Node000005" class="edge">
<title>Node4&#45;&gt;Node5</title>
<g id="a_edge4_Node000004_Node000005"><a xlink:title=" ">
<path fill="none" stroke="#63b8ff" d="M762.04,-73.5C770.6,-73.5 779.25,-73.5 787.71,-73.5"/>
<polygon fill="#63b8ff" stroke="#63b8ff" points="787.92,-77 797.92,-73.5 787.92,-70 787.92,-77"/>
</a>
</g>
</g>
<!-- Node6 -->
<g id="Node000006" class="node">
<title>Node6</title>
<g id="a_Node000006"><a xlink:href="classBno08xHandler.html#ada3191d2a5676e02773024e52589a1ed" target="_top" xlink:title="Internal: apply configuration (assumes mutex is held).">
<polygon fill="white" stroke="#666666" points="1136,-153.5 981,-153.5 981,-123.5 1136,-123.5 1136,-153.5"/>
<text text-anchor="start" x="989" y="-141.5" font-family="Helvetica,sans-Serif" font-size="10.00">Bno08xHandler::applyConfig</text>
<text text-anchor="middle" x="1058.5" y="-130.5" font-family="Helvetica,sans-Serif" font-size="10.00">Locked</text>
</a>
</g>
</g>
<!-- Node5&#45;&gt;Node6 -->
<g id="edge5_Node000005_Node000006" class="edge">
<title>Node5&#45;&gt;Node6</title>
<g id="a_edge5_Node000005_Node000006"><a xlink:title=" ">
<path fill="none" stroke="#63b8ff" d="M891.72,-83.07C912.83,-91.8 945.27,-104.78 974,-114.5 980,-116.53 986.28,-118.54 992.59,-120.48"/>
<polygon fill="#63b8ff" stroke="#63b8ff" points="991.89,-123.93 1002.48,-123.47 993.92,-117.23 991.89,-123.93"/>
</a>
</g>
</g>
<!-- Node7 -->
<g id="Node000007" class="node">
<title>Node7</title>
<g id="a_Node000007"><a xlink:href="classIBno08xDriverOps.html#a0ca90c1a5664ab3eb83f691aff34faa0" target="_top" xlink:title=" ">
<polygon fill="white" stroke="#666666" points="1128,-105 989,-105 989,-86 1128,-86 1128,-105"/>
<text text-anchor="middle" x="1058.5" y="-93" font-family="Helvetica,sans-Serif" font-size="10.00">IBno08xDriverOps::Begin</text>
</a>
</g>
</g>
<!-- Node5&#45;&gt;Node7 -->
<g id="edge6_Node000005_Node000007" class="edge">
<title>Node5&#45;&gt;Node7</title>
<g id="a_edge6_Node000005_Node000007"><a xlink:title=" ">
<path fill="none" stroke="#63b8ff" d="M938.12,-81.57C951.27,-83.1 965.12,-84.72 978.54,-86.28"/>
<polygon fill="#63b8ff" stroke="#63b8ff" points="978.36,-89.79 988.7,-87.47 979.18,-82.83 978.36,-89.79"/>
</a>
</g>
</g>
<!-- Node8 -->
<g id="Node000008" class="node">
<title>Node8</title>
<g id="a_Node000008"><a xlink:href="classIBno08xDriverOps.html#a66418ccb85cd8eb8eea327fa979a2b6a" target="_top" xlink:title=" ">
<polygon fill="white" stroke="#666666" points="1137.5,-67.5 979.5,-67.5 979.5,-37.5 1137.5,-37.5 1137.5,-67.5"/>
<text text-anchor="start" x="987.5" y="-55.5" font-family="Helvetica,sans-Serif" font-size="10.00">IBno08xDriverOps::Hardware</text>
<text text-anchor="middle" x="1058.5" y="-44.5" font-family="Helvetica,sans-Serif" font-size="10.00">Reset</text>
</a>
</g>
</g>
<!-- Node5&#45;&gt;Node8 -->
<g id="edge7_Node000005_Node000008" class="edge">
<title>Node5&#45;&gt;Node8</title>
<g id="a_edge7_Node000005_Node000008"><a xlink:title=" ">
<path fill="none" stroke="#63b8ff" d="M938.12,-65.8C948.31,-64.66 958.93,-63.48 969.44,-62.31"/>
<polygon fill="#63b8ff" stroke="#63b8ff" points="969.92,-65.78 979.47,-61.19 969.14,-58.82 969.92,-65.78"/>
</a>
</g>
</g>
<!-- Node9 -->
<g id="Node000009" class="node">
<title>Node9</title>
<g id="a_Node000009"><a xlink:href="classIBno08xDriverOps.html#a04816a487d80027e6d6fe435f651b265" target="_top" xlink:title=" ">
<polygon fill="white" stroke="#666666" points="1143,-19 974,-19 974,0 1143,0 1143,-19"/>
<text text-anchor="middle" x="1058.5" y="-7" font-family="Helvetica,sans-Serif" font-size="10.00">IBno08xDriverOps::SetCallback</text>
</a>
</g>
</g>
<!-- Node5&#45;&gt;Node9 -->
<g id="edge8_Node000005_Node000009" class="edge">
<title>Node5&#45;&gt;Node9</title>
<g id="a_edge8_Node000005_Node000009"><a xlink:title=" ">
<path fill="none" stroke="#63b8ff" d="M888.33,-63.96C909.09,-54.01 943.26,-38.49 974,-28.5 981.93,-25.92 990.39,-23.56 998.76,-21.45"/>
<polygon fill="#63b8ff" stroke="#63b8ff" points="999.63,-24.84 1008.53,-19.08 997.98,-18.04 999.63,-24.84"/>
</a>
</g>
</g>
</g>
</svg>
