<?xml version="1.0" encoding="UTF-8" standalone="no"?>
<!DOCTYPE svg PUBLIC "-//W3C//DTD SVG 1.1//EN"
 "http://www.w3.org/Graphics/SVG/1.1/DTD/svg11.dtd">
<!-- Generated by graphviz version 2.43.0 (0)
 -->
<!-- Title: Bno08xHandler::GetSensor Pages: 1 -->
<svg width="956pt" height="76pt"
 viewBox="0.00 0.00 956.00 75.50" xmlns="http://www.w3.org/2000/svg" xmlns:xlink="http://www.w3.org/1999/xlink">
<g id="graph0" class="graph" transform="scale(1 1) rotate(0) translate(4 71.5)">
<title>Bno08xHandler::GetSensor</title>
<!-- Node1 -->
<g id="Node000001" class="node">
<title>Node1</title>
<g id="a_Node000001"><a xlink:title="Get direct access to the underlying sensor driver (type&#45;erased).">
<polygon fill="#999999" stroke="#666666" points="148,-45.5 0,-45.5 0,-26.5 148,-26.5 148,-45.5"/>
<text text-anchor="middle" x="74" y="-33.5" font-family="Helvetica,sans-Serif" font-size="10.00">Bno08xHandler::GetSensor</text>
</a>
</g>
</g>
<!-- Node2 -->
<g id="Node000002" class="node">
<title>Node2</title>
<g id="a_Node000002"><a xlink:href="classBno08xHandler.html#afab341345c8ed8fed1a218e0df18c4aa" target="_top" xlink:title="Ensure the BNO08x is initialized (lazy init entrypoint).">
<polygon fill="white" stroke="#666666" points="363,-45.5 184,-45.5 184,-26.5 363,-26.5 363,-45.5"/>
<text text-anchor="middle" x="273.5" y="-33.5" font-family="Helvetica,sans-Serif" font-size="10.00">Bno08xHandler::EnsureInitialized</text>
</a>
</g>
</g>
<!-- Node1&#45;&gt;Node2 -->
<g id="edge1_Node000001_Node000002" class="edge">
<title>Node1&#45;&gt;Node2</title>
<g id="a_edge1_Node000001_Node000002"><a xlink:title=" ">
<path fill="none" stroke="#63b8ff" d="M148.26,-36C156.62,-36 165.25,-36 173.87,-36"/>
<polygon fill="#63b8ff" stroke="#63b8ff" points="173.98,-39.5 183.98,-36 173.98,-32.5 173.98,-39.5"/>
</a>
</g>
</g>
<!-- Node3 -->
<g id="Node000003" class="node">
<title>Node3</title>
<g id="a_Node000003"><a xlink:href="classBno08xHandler.html#a0479abc034d5417ba7dc524468a5ce82" target="_top" xlink:title="Internal: ensure initialized (assumes mutex is held).">
<polygon fill="white" stroke="#666666" points="578,-51 399,-51 399,-21 578,-21 578,-51"/>
<text text-anchor="start" x="407" y="-39" font-family="Helvetica,sans-Serif" font-size="10.00">Bno08xHandler::ensureInitialized</text>
<text text-anchor="middle" x="488.5" y="-28" font-family="Helvetica,sans-Serif" font-size="10.00">Locked</text>
</a>
</g>
</g>
<!-- Node2&#45;&gt;Node3 -->
<g id="edge2_Node000002_Node000003" class="edge">
<title>Node2&#45;&gt;Node3</title>
<g id="a_edge2_Node000002_Node000003"><a xlink:title=" ">
<path fill="none" stroke="#63b8ff" d="M363.29,-36C371.65,-36 380.16,-36 388.6,-36"/>
<polygon fill="#63b8ff" stroke="#63b8ff" points="388.86,-39.5 398.86,-36 388.85,-32.5 388.86,-39.5"/>
</a>
</g>
</g>
<!-- Node4 -->
<g id="Node000004" class="node">
<title>Node4</title>
<g id="a_Node000004"><a xlink:href="classBno08xHandler.html#ac1a1ff0d56324dcc09d9b48ca2e132e6" target="_top" xlink:title="Initialize the BNO08x sensor.">
<polygon fill="white" stroke="#666666" points="754,-45.5 614,-45.5 614,-26.5 754,-26.5 754,-45.5"/>
<text text-anchor="middle" x="684" y="-33.5" font-family="Helvetica,sans-Serif" font-size="10.00">Bno08xHandler::Initialize</text>
</a>
</g>
</g>
<!-- Node3&#45;&gt;Node4 -->
<g id="edge3_Node000003_Node000004" class="edge">
<title>Node3&#45;&gt;Node4</title>
<g id="a_edge3_Node000003_Node000004"><a xlink:title=" ">
<path fill="none" stroke="#63b8ff" d="M578.04,-36C586.6,-36 595.25,-36 603.71,-36"/>
<polygon fill="#63b8ff" stroke="#63b8ff" points="603.92,-39.5 613.92,-36 603.92,-32.5 603.92,-39.5"/>
</a>
</g>
</g>
<!-- Node5 -->
<g id="Node000005" class="node">
<title>Node5</title>
<g id="a_Node000005"><a xlink:href="classIBno08xDriverOps.html#a0ca90c1a5664ab3eb83f691aff34faa0" target="_top" xlink:title=" ">
<polygon fill="white" stroke="#666666" points="938.5,-67.5 799.5,-67.5 799.5,-48.5 938.5,-48.5 938.5,-67.5"/>
<text text-anchor="middle" x="869" y="-55.5" font-family="Helvetica,sans-Serif" font-size="10.00">IBno08xDriverOps::Begin</text>
</a>
</g>
</g>
<!-- Node4&#45;&gt;Node5 -->
<g id="edge4_Node000004_Node000005" class="edge">
<title>Node4&#45;&gt;Node5</title>
<g id="a_edge4_Node000004_Node000005"><a xlink:title=" ">
<path fill="none" stroke="#63b8ff" d="M754.18,-44.32C765.61,-45.69 777.54,-47.12 789.18,-48.52"/>
<polygon fill="#63b8ff" stroke="#63b8ff" points="788.98,-52.03 799.32,-49.74 789.81,-45.08 788.98,-52.03"/>
</a>
</g>
</g>
<!-- Node6 -->
<g id="Node000006" class="node">
<title>Node6</title>
<g id="a_Node000006"><a xlink:href="classIBno08xDriverOps.html#a66418ccb85cd8eb8eea327fa979a2b6a" target="_top" xlink:title=" ">
<polygon fill="white" stroke="#666666" points="948,-30 790,-30 790,0 948,0 948,-30"/>
<text text-anchor="start" x="798" y="-18" font-family="Helvetica,sans-Serif" font-size="10.00">IBno08xDriverOps::Hardware</text>
<text text-anchor="middle" x="869" y="-7" font-family="Helvetica,sans-Serif" font-size="10.00">Reset</text>
</a>
</g>
</g>
<!-- Node4&#45;&gt;Node6 -->
<g id="edge5_Node000004_Node000006" class="edge">
<title>Node4&#45;&gt;Node6</title>
<g id="a_edge5_Node000004_Node000006"><a xlink:title=" ">
<path fill="none" stroke="#63b8ff" d="M754.18,-28.06C762.55,-27.1 771.18,-26.11 779.77,-25.12"/>
<polygon fill="#63b8ff" stroke="#63b8ff" points="780.29,-28.59 789.83,-23.97 779.49,-21.63 780.29,-28.59"/>
</a>
</g>
</g>
</g>
</svg>
