<?xml version="1.0" encoding="UTF-8" standalone="no"?>
<!DOCTYPE svg PUBLIC "-//W3C//DTD SVG 1.1//EN"
 "http://www.w3.org/Graphics/SVG/1.1/DTD/svg11.dtd">
<!-- Generated by graphviz version 2.43.0 (0)
 -->
<!-- Title: As5047uHandler::GetDriver Pages: 1 -->
<svg width="1186pt" height="70pt"
 viewBox="0.00 0.00 1186.00 69.50" xmlns="http://www.w3.org/2000/svg" xmlns:xlink="http://www.w3.org/1999/xlink">
<g id="graph0" class="graph" transform="scale(1 1) rotate(0) translate(4 65.5)">
<title>As5047uHandler::GetDriver</title>
<!-- Node1 -->
<g id="Node000001" class="node">
<title>Node1</title>
<g id="a_Node000001"><a xlink:title="Naming&#45;consistent alias of GetSensor().">
<polygon fill="#999999" stroke="#666666" points="150,-42.5 0,-42.5 0,-23.5 150,-23.5 150,-42.5"/>
<text text-anchor="middle" x="75" y="-30.5" font-family="Helvetica,sans-Serif" font-size="10.00">As5047uHandler::GetDriver</text>
</a>
</g>
</g>
<!-- Node2 -->
<g id="Node000002" class="node">
<title>Node2</title>
<g id="a_Node000002"><a xlink:href="classAs5047uHandler.html#a7935a51fb2973e3a1793d378fc50118a" target="_top" xlink:title="Get pointer to AS5047U driver for advanced operations.">
<polygon fill="white" stroke="#666666" points="339,-42.5 186,-42.5 186,-23.5 339,-23.5 339,-42.5"/>
<text text-anchor="middle" x="262.5" y="-30.5" font-family="Helvetica,sans-Serif" font-size="10.00">As5047uHandler::GetSensor</text>
</a>
</g>
</g>
<!-- Node1&#45;&gt;Node2 -->
<g id="edge1_Node000001_Node000002" class="edge">
<title>Node1&#45;&gt;Node2</title>
<g id="a_edge1_Node000001_Node000002"><a xlink:title=" ">
<path fill="none" stroke="#63b8ff" d="M150.11,-33C158.6,-33 167.3,-33 175.92,-33"/>
<polygon fill="#63b8ff" stroke="#63b8ff" points="175.99,-36.5 185.99,-33 175.99,-29.5 175.99,-36.5"/>
</a>
</g>
</g>
<!-- Node3 -->
<g id="Node000003" class="node">
<title>Node3</title>
<g id="a_Node000003"><a xlink:href="classAs5047uHandler.html#a040ba453eb7892ab3189631d73a2f683" target="_top" xlink:title="Ensure initialized while mutex is already held.">
<polygon fill="white" stroke="#666666" points="559,-48 375,-48 375,-18 559,-18 559,-48"/>
<text text-anchor="start" x="383" y="-36" font-family="Helvetica,sans-Serif" font-size="10.00">As5047uHandler::EnsureInitialized</text>
<text text-anchor="middle" x="467" y="-25" font-family="Helvetica,sans-Serif" font-size="10.00">Locked</text>
</a>
</g>
</g>
<!-- Node2&#45;&gt;Node3 -->
<g id="edge2_Node000002_Node000003" class="edge">
<title>Node2&#45;&gt;Node3</title>
<g id="a_edge2_Node000002_Node000003"><a xlink:title=" ">
<path fill="none" stroke="#63b8ff" d="M339.19,-33C347.51,-33 356.07,-33 364.63,-33"/>
<polygon fill="#63b8ff" stroke="#63b8ff" points="364.67,-36.5 374.67,-33 364.67,-29.5 364.67,-36.5"/>
</a>
</g>
</g>
<!-- Node4 -->
<g id="Node000004" class="node">
<title>Node4</title>
<g id="a_Node000004"><a xlink:href="classAs5047uHandler.html#a157826010a85f4279b7a13791fcf2003" target="_top" xlink:title="Initialize the AS5047U sensor (lazy initialization)">
<polygon fill="white" stroke="#666666" points="740,-42.5 595,-42.5 595,-23.5 740,-23.5 740,-42.5"/>
<text text-anchor="middle" x="667.5" y="-30.5" font-family="Helvetica,sans-Serif" font-size="10.00">As5047uHandler::Initialize</text>
</a>
</g>
</g>
<!-- Node3&#45;&gt;Node4 -->
<g id="edge3_Node000003_Node000004" class="edge">
<title>Node3&#45;&gt;Node4</title>
<g id="a_edge3_Node000003_Node000004"><a xlink:title=" ">
<path fill="none" stroke="#63b8ff" d="M559.12,-33C567.67,-33 576.3,-33 584.75,-33"/>
<polygon fill="#63b8ff" stroke="#63b8ff" points="584.96,-36.5 594.96,-33 584.96,-29.5 584.96,-36.5"/>
</a>
</g>
</g>
<!-- Node5 -->
<g id="Node000005" class="node">
<title>Node5</title>
<g id="a_Node000005"><a xlink:href="classAs5047uHandler.html#a0e7c20d4fd883c55ff9091041ec04c39" target="_top" xlink:title="Apply configuration to sensor.">
<polygon fill="white" stroke="#666666" points="972,-61.5 776,-61.5 776,-42.5 972,-42.5 972,-61.5"/>
<text text-anchor="middle" x="874" y="-49.5" font-family="Helvetica,sans-Serif" font-size="10.00">As5047uHandler::ApplyConfiguration</text>
</a>
</g>
</g>
<!-- Node4&#45;&gt;Node5 -->
<g id="edge4_Node000004_Node000005" class="edge">
<title>Node4&#45;&gt;Node5</title>
<g id="a_edge4_Node000004_Node000005"><a xlink:title=" ">
<path fill="none" stroke="#63b8ff" d="M740.02,-39.65C748.39,-40.42 757.05,-41.23 765.76,-42.04"/>
<polygon fill="#63b8ff" stroke="#63b8ff" points="765.71,-45.55 775.99,-42.99 766.36,-38.58 765.71,-45.55"/>
</a>
</g>
</g>
<!-- Node6 -->
<g id="Node000006" class="node">
<title>Node6</title>
<g id="a_Node000006"><a xlink:href="classAs5047uHandler.html#a6854be00365afbb2eeddfb3177939456" target="_top" xlink:title="Update cached diagnostics.">
<polygon fill="white" stroke="#666666" points="971.5,-24.5 776.5,-24.5 776.5,-5.5 971.5,-5.5 971.5,-24.5"/>
<text text-anchor="middle" x="874" y="-12.5" font-family="Helvetica,sans-Serif" font-size="10.00">As5047uHandler::UpdateDiagnostics</text>
</a>
</g>
</g>
<!-- Node4&#45;&gt;Node6 -->
<g id="edge5_Node000004_Node000006" class="edge">
<title>Node4&#45;&gt;Node6</title>
<g id="a_edge5_Node000004_Node000006"><a xlink:title=" ">
<path fill="none" stroke="#63b8ff" d="M740.02,-26.7C748.56,-25.95 757.41,-25.17 766.31,-24.39"/>
<polygon fill="#63b8ff" stroke="#63b8ff" points="766.7,-27.87 776.35,-23.51 766.09,-20.9 766.7,-27.87"/>
</a>
</g>
</g>
<!-- Node7 -->
<g id="Node000007" class="node">
<title>Node7</title>
<g id="a_Node000007"><a xlink:href="classAs5047uHandler.html#a6b29b6418f7b2d19cbdcc65aa6eb9756" target="_top" xlink:title="Handle sensor errors and update diagnostics.">
<polygon fill="white" stroke="#666666" points="1178,-30 1008,-30 1008,0 1178,0 1178,-30"/>
<text text-anchor="start" x="1016" y="-18" font-family="Helvetica,sans-Serif" font-size="10.00">As5047uHandler::HandleSensor</text>
<text text-anchor="middle" x="1093" y="-7" font-family="Helvetica,sans-Serif" font-size="10.00">Errors</text>
</a>
</g>
</g>
<!-- Node6&#45;&gt;Node7 -->
<g id="edge6_Node000006_Node000007" class="edge">
<title>Node6&#45;&gt;Node7</title>
<g id="a_edge6_Node000006_Node000007"><a xlink:title=" ">
<path fill="none" stroke="#63b8ff" d="M971.76,-15C980.37,-15 989.08,-15 997.67,-15"/>
<polygon fill="#63b8ff" stroke="#63b8ff" points="997.69,-18.5 1007.69,-15 997.69,-11.5 997.69,-18.5"/>
</a>
</g>
</g>
</g>
</svg>
