<?xml version="1.0" encoding="UTF-8" standalone="no"?>
<!DOCTYPE svg PUBLIC "-//W3C//DTD SVG 1.1//EN"
 "http://www.w3.org/Graphics/SVG/1.1/DTD/svg11.dtd">
<!-- Generated by graphviz version 2.43.0 (0)
 -->
<!-- Title: Tmc5160Handler::driverViaUart Pages: 1 -->
<svg width="386pt" height="101pt"
 viewBox="0.00 0.00 386.00 101.00" xmlns="http://www.w3.org/2000/svg" xmlns:xlink="http://www.w3.org/1999/xlink">
<g id="graph0" class="graph" transform="scale(1 1) rotate(0) translate(4 97)">
<title>Tmc5160Handler::driverViaUart</title>
<!-- Node1 -->
<g id="Node000001" class="node">
<title>Node1</title>
<g id="a_Node000001"><a xlink:title="Get typed UART driver pointer (null if SPI mode or not initialized).">
<polygon fill="#999999" stroke="#666666" points="378,-56 207,-56 207,-37 378,-37 378,-56"/>
<text text-anchor="middle" x="292.5" y="-44" font-family="Helvetica,sans-Serif" font-size="10.00">Tmc5160Handler::driverViaUart</text>
</a>
</g>
</g>
<!-- Node2 -->
<g id="Node000002" class="node">
<title>Node2</title>
<g id="a_Node000002"><a xlink:href="classTmc5160Handler.html#a845e1879a4606367f419f3892061ff31" target="_top" xlink:title=" ">
<polygon fill="white" stroke="#666666" points="171,-93 0,-93 0,-74 171,-74 171,-93"/>
<text text-anchor="middle" x="85.5" y="-81" font-family="Helvetica,sans-Serif" font-size="10.00">Tmc5160Handler::driverViaUart</text>
</a>
</g>
</g>
<!-- Node1&#45;&gt;Node2 -->
<g id="edge1_Node000001_Node000002" class="edge">
<title>Node1&#45;&gt;Node2</title>
<g id="a_edge1_Node000001_Node000002"><a xlink:title=" ">
<path fill="none" stroke="#63b8ff" d="M228.82,-57.81C200.24,-62.97 166.77,-69.01 139.47,-73.94"/>
<polygon fill="#63b8ff" stroke="#63b8ff" points="229.49,-61.25 238.71,-56.03 228.24,-54.36 229.49,-61.25"/>
</a>
</g>
</g>
<!-- Node3 -->
<g id="Node000003" class="node">
<title>Node3</title>
<g id="a_Node000003"><a xlink:href="classTmc5160Handler.html#a755fbb0bd0c5faa03c807522e4ea469a" target="_top" xlink:title="Const overload of GetDriver().">
<polygon fill="white" stroke="#666666" points="162,-56 9,-56 9,-37 162,-37 162,-56"/>
<text text-anchor="middle" x="85.5" y="-44" font-family="Helvetica,sans-Serif" font-size="10.00">Tmc5160Handler::GetDriver</text>
</a>
</g>
</g>
<!-- Node1&#45;&gt;Node3 -->
<g id="edge2_Node000001_Node000003" class="edge">
<title>Node1&#45;&gt;Node3</title>
<g id="a_edge2_Node000001_Node000003"><a xlink:title=" ">
<path fill="none" stroke="#63b8ff" d="M196.75,-46.5C185.1,-46.5 173.32,-46.5 162.01,-46.5"/>
<polygon fill="#63b8ff" stroke="#63b8ff" points="196.94,-50 206.94,-46.5 196.94,-43 196.94,-50"/>
</a>
</g>
</g>
<!-- Node4 -->
<g id="Node000004" class="node">
<title>Node4</title>
<g id="a_Node000004"><a xlink:href="classTmc5160Handler.html#a8753f4b21ffb25d294d4ce41951f11f7" target="_top" xlink:title="Get the active driver pointer without requiring visitor usage.">
<polygon fill="white" stroke="#666666" points="162,-19 9,-19 9,0 162,0 162,-19"/>
<text text-anchor="middle" x="85.5" y="-7" font-family="Helvetica,sans-Serif" font-size="10.00">Tmc5160Handler::GetDriver</text>
</a>
</g>
</g>
<!-- Node1&#45;&gt;Node4 -->
<g id="edge3_Node000001_Node000004" class="edge">
<title>Node1&#45;&gt;Node4</title>
<g id="a_edge3_Node000001_Node000004"><a xlink:title=" ">
<path fill="none" stroke="#63b8ff" d="M228.82,-35.19C200.24,-30.03 166.77,-23.99 139.47,-19.06"/>
<polygon fill="#63b8ff" stroke="#63b8ff" points="228.24,-38.64 238.71,-36.97 229.49,-31.75 228.24,-38.64"/>
</a>
</g>
</g>
</g>
</svg>
