<?xml version="1.0" encoding="UTF-8" standalone="no"?>
<!DOCTYPE svg PUBLIC "-//W3C//DTD SVG 1.1//EN"
 "http://www.w3.org/Graphics/SVG/1.1/DTD/svg11.dtd">
<!-- Generated by graphviz version 2.43.0 (0)
 -->
<!-- Title: Tmc5160Handler::uartDriver Pages: 1 -->
<svg width="885pt" height="138pt"
 viewBox="0.00 0.00 885.00 138.00" xmlns="http://www.w3.org/2000/svg" xmlns:xlink="http://www.w3.org/1999/xlink">
<g id="graph0" class="graph" transform="scale(1 1) rotate(0) translate(4 134)">
<title>Tmc5160Handler::uartDriver</title>
<!-- Node1 -->
<g id="Node000001" class="node">
<title>Node1</title>
<g id="a_Node000001"><a xlink:title="Get typed UART driver pointer (null if SPI mode or not initialized).">
<polygon fill="#999999" stroke="#666666" points="155,-74 0,-74 0,-55 155,-55 155,-74"/>
<text text-anchor="middle" x="77.5" y="-62" font-family="Helvetica,sans-Serif" font-size="10.00">Tmc5160Handler::uartDriver</text>
</a>
</g>
</g>
<!-- Node2 -->
<g id="Node000002" class="node">
<title>Node2</title>
<g id="a_Node000002"><a xlink:href="classTmc5160Handler.html#a6d4fce2433e03bb11b05a4278ef66fd0" target="_top" xlink:title=" ">
<polygon fill="white" stroke="#666666" points="378,-79.5 191,-79.5 191,-49.5 378,-49.5 378,-79.5"/>
<text text-anchor="start" x="199" y="-67.5" font-family="Helvetica,sans-Serif" font-size="10.00">Tmc5160Handler::EnsureInitialized</text>
<text text-anchor="middle" x="284.5" y="-56.5" font-family="Helvetica,sans-Serif" font-size="10.00">Locked</text>
</a>
</g>
</g>
<!-- Node1&#45;&gt;Node2 -->
<g id="edge1_Node000001_Node000002" class="edge">
<title>Node1&#45;&gt;Node2</title>
<g id="a_edge1_Node000001_Node000002"><a xlink:title=" ">
<path fill="none" stroke="#63b8ff" d="M155.13,-64.5C163.46,-64.5 172.05,-64.5 180.63,-64.5"/>
<polygon fill="#63b8ff" stroke="#63b8ff" points="180.7,-68 190.7,-64.5 180.7,-61 180.7,-68"/>
</a>
</g>
</g>
<!-- Node3 -->
<g id="Node000003" class="node">
<title>Node3</title>
<g id="a_Node000003"><a xlink:href="classTmc5160Handler.html#a64755f326176b0a38485acf5ca69fd0c" target="_top" xlink:title="Initialize the TMC5160 driver with full configuration.">
<polygon fill="white" stroke="#666666" points="562,-74 414,-74 414,-55 562,-55 562,-74"/>
<text text-anchor="middle" x="488" y="-62" font-family="Helvetica,sans-Serif" font-size="10.00">Tmc5160Handler::Initialize</text>
</a>
</g>
</g>
<!-- Node2&#45;&gt;Node3 -->
<g id="edge2_Node000002_Node000003" class="edge">
<title>Node2&#45;&gt;Node3</title>
<g id="a_edge2_Node000002_Node000003"><a xlink:title=" ">
<path fill="none" stroke="#63b8ff" d="M378.29,-64.5C386.73,-64.5 395.25,-64.5 403.61,-64.5"/>
<polygon fill="#63b8ff" stroke="#63b8ff" points="403.7,-68 413.7,-64.5 403.7,-61 403.7,-68"/>
</a>
</g>
</g>
<!-- Node4 -->
<g id="Node000004" class="node">
<title>Node4</title>
<g id="a_Node000004"><a xlink:href="classLogger.html#adce17848a5844e053bfd314863dc1404" target="_top" xlink:title="Log error message.">
<polygon fill="white" stroke="#666666" points="694.5,-130 615.5,-130 615.5,-111 694.5,-111 694.5,-130"/>
<text text-anchor="middle" x="655" y="-118" font-family="Helvetica,sans-Serif" font-size="10.00">Logger::Error</text>
</a>
</g>
</g>
<!-- Node3&#45;&gt;Node4 -->
<g id="edge3_Node000003_Node000004" class="edge">
<title>Node3&#45;&gt;Node4</title>
<g id="a_edge3_Node000003_Node000004"><a xlink:title=" ">
<path fill="none" stroke="#63b8ff" d="M515.81,-74.05C537.84,-81.85 569.88,-93.08 598,-102.5 603.2,-104.24 608.69,-106.05 614.12,-107.81"/>
<polygon fill="#63b8ff" stroke="#63b8ff" points="613.14,-111.17 623.73,-110.92 615.29,-104.51 613.14,-111.17"/>
</a>
</g>
</g>
<!-- Node7 -->
<g id="Node000007" class="node">
<title>Node7</title>
<g id="a_Node000007"><a xlink:href="classLogger.html#a5789d11f8f1356e2192c0023a089cbc4" target="_top" xlink:title="Get singleton instance.">
<polygon fill="white" stroke="#666666" points="712,-19 598,-19 598,0 712,0 712,-19"/>
<text text-anchor="middle" x="655" y="-7" font-family="Helvetica,sans-Serif" font-size="10.00">Logger::GetInstance</text>
</a>
</g>
</g>
<!-- Node3&#45;&gt;Node7 -->
<g id="edge6_Node000003_Node000007" class="edge">
<title>Node3&#45;&gt;Node7</title>
<g id="a_edge6_Node000003_Node000007"><a xlink:title=" ">
<path fill="none" stroke="#63b8ff" d="M516.73,-54.95C538.74,-47.4 570.3,-36.65 598,-27.5 603.27,-25.76 608.83,-23.94 614.32,-22.17"/>
<polygon fill="#63b8ff" stroke="#63b8ff" points="615.59,-25.43 624.04,-19.03 613.44,-18.77 615.59,-25.43"/>
</a>
</g>
</g>
<!-- Node8 -->
<g id="Node000008" class="node">
<title>Node8</title>
<g id="a_Node000008"><a xlink:href="classLogger.html#a4681229c521795685fc14f6b55c82300" target="_top" xlink:title="Log info message.">
<polygon fill="white" stroke="#666666" points="692,-93 618,-93 618,-74 692,-74 692,-93"/>
<text text-anchor="middle" x="655" y="-81" font-family="Helvetica,sans-Serif" font-size="10.00">Logger::Info</text>
</a>
</g>
</g>
<!-- Node3&#45;&gt;Node8 -->
<g id="edge7_Node000003_Node000008" class="edge">
<title>Node3&#45;&gt;Node8</title>
<g id="a_edge7_Node000003_Node000008"><a xlink:title=" ">
<path fill="none" stroke="#63b8ff" d="M562.33,-72.94C577.85,-74.73 593.8,-76.57 607.96,-78.2"/>
<polygon fill="#63b8ff" stroke="#63b8ff" points="607.58,-81.68 617.92,-79.35 608.38,-74.72 607.58,-81.68"/>
</a>
</g>
</g>
<!-- Node9 -->
<g id="Node000009" class="node">
<title>Node9</title>
<g id="a_Node000009"><a xlink:href="classLogger.html#aaa95ffa14d07a965d4a85bdec82cba26" target="_top" xlink:title="Log warning message.">
<polygon fill="white" stroke="#666666" points="695,-56 615,-56 615,-37 695,-37 695,-56"/>
<text text-anchor="middle" x="655" y="-44" font-family="Helvetica,sans-Serif" font-size="10.00">Logger::Warn</text>
</a>
</g>
</g>
<!-- Node3&#45;&gt;Node9 -->
<g id="edge10_Node000003_Node000009" class="edge">
<title>Node3&#45;&gt;Node9</title>
<g id="a_edge10_Node000003_Node000009"><a xlink:title=" ">
<path fill="none" stroke="#63b8ff" d="M562.33,-56.5C576.59,-54.94 591.23,-53.35 604.49,-51.9"/>
<polygon fill="#63b8ff" stroke="#63b8ff" points="605.25,-55.34 614.81,-50.78 604.49,-48.38 605.25,-55.34"/>
</a>
</g>
</g>
<!-- Node5 -->
<g id="Node000005" class="node">
<title>Node5</title>
<g id="a_Node000005"><a xlink:href="classLogger.html#af9e84e0ff6bd538e4f9ed8dcebc3e2f0" target="_top" xlink:title="Check if log level is enabled for tag.">
<polygon fill="white" stroke="#666666" points="877,-111 748,-111 748,-92 877,-92 877,-111"/>
<text text-anchor="middle" x="812.5" y="-99" font-family="Helvetica,sans-Serif" font-size="10.00">Logger::IsLevelEnabled</text>
</a>
</g>
</g>
<!-- Node4&#45;&gt;Node5 -->
<g id="edge4_Node000004_Node000005" class="edge">
<title>Node4&#45;&gt;Node5</title>
<g id="a_edge4_Node000004_Node000005"><a xlink:title=" ">
<path fill="none" stroke="#63b8ff" d="M694.84,-115.75C707.85,-114.16 722.82,-112.34 737.6,-110.53"/>
<polygon fill="#63b8ff" stroke="#63b8ff" points="738.28,-113.97 747.78,-109.29 737.43,-107.02 738.28,-113.97"/>
</a>
</g>
</g>
<!-- Node6 -->
<g id="Node000006" class="node">
<title>Node6</title>
<g id="a_Node000006"><a xlink:href="classLogger.html#a6adb205db597526fb91ad20067400394" target="_top" xlink:title="Internal logging method.">
<polygon fill="white" stroke="#666666" points="867.5,-74 757.5,-74 757.5,-55 867.5,-55 867.5,-74"/>
<text text-anchor="middle" x="812.5" y="-62" font-family="Helvetica,sans-Serif" font-size="10.00">Logger::LogInternal</text>
</a>
</g>
</g>
<!-- Node4&#45;&gt;Node6 -->
<g id="edge5_Node000004_Node000006" class="edge">
<title>Node4&#45;&gt;Node6</title>
<g id="a_edge5_Node000004_Node000006"><a xlink:title=" ">
<path fill="none" stroke="#63b8ff" d="M688.92,-110.98C696.59,-108.47 704.66,-105.59 712,-102.5 728.68,-95.48 731.25,-90.35 748,-83.5 753.53,-81.24 759.42,-79.12 765.31,-77.16"/>
<polygon fill="#63b8ff" stroke="#63b8ff" points="766.67,-80.41 775.14,-74.05 764.55,-73.73 766.67,-80.41"/>
</a>
</g>
</g>
<!-- Node8&#45;&gt;Node5 -->
<g id="edge8_Node000008_Node000005" class="edge">
<title>Node8&#45;&gt;Node5</title>
<g id="a_edge8_Node000008_Node000005"><a xlink:title=" ">
<path fill="none" stroke="#63b8ff" d="M692.07,-87.67C705.68,-89.25 721.72,-91.11 737.55,-92.94"/>
<polygon fill="#63b8ff" stroke="#63b8ff" points="737.55,-96.46 747.89,-94.14 738.36,-89.51 737.55,-96.46"/>
</a>
</g>
</g>
<!-- Node8&#45;&gt;Node6 -->
<g id="edge9_Node000008_Node000006" class="edge">
<title>Node8&#45;&gt;Node6</title>
<g id="a_edge9_Node000008_Node000006"><a xlink:title=" ">
<path fill="none" stroke="#63b8ff" d="M692.07,-79.09C708.49,-77.09 728.44,-74.65 747.3,-72.34"/>
<polygon fill="#63b8ff" stroke="#63b8ff" points="747.83,-75.81 757.33,-71.12 746.98,-68.86 747.83,-75.81"/>
</a>
</g>
</g>
<!-- Node9&#45;&gt;Node5 -->
<g id="edge11_Node000009_Node000005" class="edge">
<title>Node9&#45;&gt;Node5</title>
<g id="a_edge11_Node000009_Node000005"><a xlink:title=" ">
<path fill="none" stroke="#63b8ff" d="M686.51,-56.01C694.86,-58.84 703.85,-62.1 712,-65.5 728.51,-72.39 731.32,-77.03 748,-83.5 753.07,-85.47 758.45,-87.33 763.85,-89.05"/>
<polygon fill="#63b8ff" stroke="#63b8ff" points="762.92,-92.42 773.51,-91.99 764.96,-85.73 762.92,-92.42"/>
</a>
</g>
</g>
<!-- Node9&#45;&gt;Node6 -->
<g id="edge12_Node000009_Node000006" class="edge">
<title>Node9&#45;&gt;Node6</title>
<g id="a_edge12_Node000009_Node000006"><a xlink:title=" ">
<path fill="none" stroke="#63b8ff" d="M695.24,-51.04C710.96,-52.86 729.49,-55.01 747.08,-57.04"/>
<polygon fill="#63b8ff" stroke="#63b8ff" points="746.96,-60.55 757.3,-58.23 747.77,-53.6 746.96,-60.55"/>
</a>
</g>
</g>
</g>
</svg>
