<?xml version="1.0" encoding="UTF-8" standalone="no"?>
<!DOCTYPE svg PUBLIC "-//W3C//DTD SVG 1.1//EN"
 "http://www.w3.org/Graphics/SVG/1.1/DTD/svg11.dtd">
<!-- Generated by graphviz version 2.43.0 (0)
 -->
<!-- Title: Tmc5160Handler::driverViaUart Pages: 1 -->
<svg width="1108pt" height="138pt"
 viewBox="0.00 0.00 1108.00 138.00" xmlns="http://www.w3.org/2000/svg" xmlns:xlink="http://www.w3.org/1999/xlink">
<g id="graph0" class="graph" transform="scale(1 1) rotate(0) translate(4 134)">
<title>Tmc5160Handler::driverViaUart</title>
<!-- Node1 -->
<g id="Node000001" class="node">
<title>Node1</title>
<g id="a_Node000001"><a xlink:title=" ">
<polygon fill="#999999" stroke="#666666" points="171,-74 0,-74 0,-55 171,-55 171,-74"/>
<text text-anchor="middle" x="85.5" y="-62" font-family="Helvetica,sans-Serif" font-size="10.00">Tmc5160Handler::driverViaUart</text>
</a>
</g>
</g>
<!-- Node2 -->
<g id="Node000002" class="node">
<title>Node2</title>
<g id="a_Node000002"><a xlink:href="classTmc5160Handler.html#af8cb1c7b5011bd24102d296f22c211c5" target="_top" xlink:title="Get typed UART driver pointer (null if SPI mode or not initialized).">
<polygon fill="white" stroke="#666666" points="378,-74 207,-74 207,-55 378,-55 378,-74"/>
<text text-anchor="middle" x="292.5" y="-62" font-family="Helvetica,sans-Serif" font-size="10.00">Tmc5160Handler::driverViaUart</text>
</a>
</g>
</g>
<!-- Node1&#45;&gt;Node2 -->
<g id="edge1_Node000001_Node000002" class="edge">
<title>Node1&#45;&gt;Node2</title>
<g id="a_edge1_Node000001_Node000002"><a xlink:title=" ">
<path fill="none" stroke="#63b8ff" d="M171.06,-64.5C179.55,-64.5 188.2,-64.5 196.78,-64.5"/>
<polygon fill="#63b8ff" stroke="#63b8ff" points="196.8,-68 206.8,-64.5 196.8,-61 196.8,-68"/>
</a>
</g>
</g>
<!-- Node3 -->
<g id="Node000003" class="node">
<title>Node3</title>
<g id="a_Node000003"><a xlink:href="classTmc5160Handler.html#a6d4fce2433e03bb11b05a4278ef66fd0" target="_top" xlink:title=" ">
<polygon fill="white" stroke="#666666" points="601,-79.5 414,-79.5 414,-49.5 601,-49.5 601,-79.5"/>
<text text-anchor="start" x="422" y="-67.5" font-family="Helvetica,sans-Serif" font-size="10.00">Tmc5160Handler::EnsureInitialized</text>
<text text-anchor="middle" x="507.5" y="-56.5" font-family="Helvetica,sans-Serif" font-size="10.00">Locked</text>
</a>
</g>
</g>
<!-- Node2&#45;&gt;Node3 -->
<g id="edge2_Node000002_Node000003" class="edge">
<title>Node2&#45;&gt;Node3</title>
<g id="a_edge2_Node000002_Node000003"><a xlink:title=" ">
<path fill="none" stroke="#63b8ff" d="M378.3,-64.5C386.72,-64.5 395.33,-64.5 403.91,-64.5"/>
<polygon fill="#63b8ff" stroke="#63b8ff" points="403.95,-68 413.95,-64.5 403.95,-61 403.95,-68"/>
</a>
</g>
</g>
<!-- Node4 -->
<g id="Node000004" class="node">
<title>Node4</title>
<g id="a_Node000004"><a xlink:href="classTmc5160Handler.html#a64755f326176b0a38485acf5ca69fd0c" target="_top" xlink:title="Initialize the TMC5160 driver with full configuration.">
<polygon fill="white" stroke="#666666" points="785,-74 637,-74 637,-55 785,-55 785,-74"/>
<text text-anchor="middle" x="711" y="-62" font-family="Helvetica,sans-Serif" font-size="10.00">Tmc5160Handler::Initialize</text>
</a>
</g>
</g>
<!-- Node3&#45;&gt;Node4 -->
<g id="edge3_Node000003_Node000004" class="edge">
<title>Node3&#45;&gt;Node4</title>
<g id="a_edge3_Node000003_Node000004"><a xlink:title=" ">
<path fill="none" stroke="#63b8ff" d="M601.29,-64.5C609.73,-64.5 618.25,-64.5 626.61,-64.5"/>
<polygon fill="#63b8ff" stroke="#63b8ff" points="626.7,-68 636.7,-64.5 626.7,-61 626.7,-68"/>
</a>
</g>
</g>
<!-- Node5 -->
<g id="Node000005" class="node">
<title>Node5</title>
<g id="a_Node000005"><a xlink:href="classLogger.html#adce17848a5844e053bfd314863dc1404" target="_top" xlink:title="Log error message.">
<polygon fill="white" stroke="#666666" points="917.5,-130 838.5,-130 838.5,-111 917.5,-111 917.5,-130"/>
<text text-anchor="middle" x="878" y="-118" font-family="Helvetica,sans-Serif" font-size="10.00">Logger::Error</text>
</a>
</g>
</g>
<!-- Node4&#45;&gt;Node5 -->
<g id="edge4_Node000004_Node000005" class="edge">
<title>Node4&#45;&gt;Node5</title>
<g id="a_edge4_Node000004_Node000005"><a xlink:title=" ">
<path fill="none" stroke="#63b8ff" d="M738.81,-74.05C760.84,-81.85 792.88,-93.08 821,-102.5 826.2,-104.24 831.69,-106.05 837.12,-107.81"/>
<polygon fill="#63b8ff" stroke="#63b8ff" points="836.14,-111.17 846.73,-110.92 838.29,-104.51 836.14,-111.17"/>
</a>
</g>
</g>
<!-- Node8 -->
<g id="Node000008" class="node">
<title>Node8</title>
<g id="a_Node000008"><a xlink:href="classLogger.html#a5789d11f8f1356e2192c0023a089cbc4" target="_top" xlink:title="Get singleton instance.">
<polygon fill="white" stroke="#666666" points="935,-19 821,-19 821,0 935,0 935,-19"/>
<text text-anchor="middle" x="878" y="-7" font-family="Helvetica,sans-Serif" font-size="10.00">Logger::GetInstance</text>
</a>
</g>
</g>
<!-- Node4&#45;&gt;Node8 -->
<g id="edge7_Node000004_Node000008" class="edge">
<title>Node4&#45;&gt;Node8</title>
<g id="a_edge7_Node000004_Node000008"><a xlink:title=" ">
<path fill="none" stroke="#63b8ff" d="M739.73,-54.95C761.74,-47.4 793.3,-36.65 821,-27.5 826.27,-25.76 831.83,-23.94 837.32,-22.17"/>
<polygon fill="#63b8ff" stroke="#63b8ff" points="838.59,-25.43 847.04,-19.03 836.44,-18.77 838.59,-25.43"/>
</a>
</g>
</g>
<!-- Node9 -->
<g id="Node000009" class="node">
<title>Node9</title>
<g id="a_Node000009"><a xlink:href="classLogger.html#a4681229c521795685fc14f6b55c82300" target="_top" xlink:title="Log info message.">
<polygon fill="white" stroke="#666666" points="915,-93 841,-93 841,-74 915,-74 915,-93"/>
<text text-anchor="middle" x="878" y="-81" font-family="Helvetica,sans-Serif" font-size="10.00">Logger::Info</text>
</a>
</g>
</g>
<!-- Node4&#45;&gt;Node9 -->
<g id="edge8_Node000004_Node000009" class="edge">
<title>Node4&#45;&gt;Node9</title>
<g id="a_edge8_Node000004_Node000009"><a xlink:title=" ">
<path fill="none" stroke="#63b8ff" d="M785.33,-72.94C800.85,-74.73 816.8,-76.57 830.96,-78.2"/>
<polygon fill="#63b8ff" stroke="#63b8ff" points="830.58,-81.68 840.92,-79.35 831.38,-74.72 830.58,-81.68"/>
</a>
</g>
</g>
<!-- Node10 -->
<g id="Node000010" class="node">
<title>Node10</title>
<g id="a_Node000010"><a xlink:href="classLogger.html#aaa95ffa14d07a965d4a85bdec82cba26" target="_top" xlink:title="Log warning message.">
<polygon fill="white" stroke="#666666" points="918,-56 838,-56 838,-37 918,-37 918,-56"/>
<text text-anchor="middle" x="878" y="-44" font-family="Helvetica,sans-Serif" font-size="10.00">Logger::Warn</text>
</a>
</g>
</g>
<!-- Node4&#45;&gt;Node10 -->
<g id="edge11_Node000004_Node000010" class="edge">
<title>Node4&#45;&gt;Node10</title>
<g id="a_edge11_Node000004_Node000010"><a xlink:title=" ">
<path fill="none" stroke="#63b8ff" d="M785.33,-56.5C799.59,-54.94 814.23,-53.35 827.49,-51.9"/>
<polygon fill="#63b8ff" stroke="#63b8ff" points="828.25,-55.34 837.81,-50.78 827.49,-48.38 828.25,-55.34"/>
</a>
</g>
</g>
<!-- Node6 -->
<g id="Node000006" class="node">
<title>Node6</title>
<g id="a_Node000006"><a xlink:href="classLogger.html#af9e84e0ff6bd538e4f9ed8dcebc3e2f0" target="_top" xlink:title="Check if log level is enabled for tag.">
<polygon fill="white" stroke="#666666" points="1100,-111 971,-111 971,-92 1100,-92 1100,-111"/>
<text text-anchor="middle" x="1035.5" y="-99" font-family="Helvetica,sans-Serif" font-size="10.00">Logger::IsLevelEnabled</text>
</a>
</g>
</g>
<!-- Node5&#45;&gt;Node6 -->
<g id="edge5_Node000005_Node000006" class="edge">
<title>Node5&#45;&gt;Node6</title>
<g id="a_edge5_Node000005_Node000006"><a xlink:title=" ">
<path fill="none" stroke="#63b8ff" d="M917.84,-115.75C930.85,-114.16 945.82,-112.34 960.6,-110.53"/>
<polygon fill="#63b8ff" stroke="#63b8ff" points="961.28,-113.97 970.78,-109.29 960.43,-107.02 961.28,-113.97"/>
</a>
</g>
</g>
<!-- Node7 -->
<g id="Node000007" class="node">
<title>Node7</title>
<g id="a_Node000007"><a xlink:href="classLogger.html#a6adb205db597526fb91ad20067400394" target="_top" xlink:title="Internal logging method.">
<polygon fill="white" stroke="#666666" points="1090.5,-74 980.5,-74 980.5,-55 1090.5,-55 1090.5,-74"/>
<text text-anchor="middle" x="1035.5" y="-62" font-family="Helvetica,sans-Serif" font-size="10.00">Logger::LogInternal</text>
</a>
</g>
</g>
<!-- Node5&#45;&gt;Node7 -->
<g id="edge6_Node000005_Node000007" class="edge">
<title>Node5&#45;&gt;Node7</title>
<g id="a_edge6_Node000005_Node000007"><a xlink:title=" ">
<path fill="none" stroke="#63b8ff" d="M911.92,-110.98C919.59,-108.47 927.66,-105.59 935,-102.5 951.68,-95.48 954.25,-90.35 971,-83.5 976.53,-81.24 982.42,-79.12 988.31,-77.16"/>
<polygon fill="#63b8ff" stroke="#63b8ff" points="989.67,-80.41 998.14,-74.05 987.55,-73.73 989.67,-80.41"/>
</a>
</g>
</g>
<!-- Node9&#45;&gt;Node6 -->
<g id="edge9_Node000009_Node000006" class="edge">
<title>Node9&#45;&gt;Node6</title>
<g id="a_edge9_Node000009_Node000006"><a xlink:title=" ">
<path fill="none" stroke="#63b8ff" d="M915.07,-87.67C928.68,-89.25 944.72,-91.11 960.55,-92.94"/>
<polygon fill="#63b8ff" stroke="#63b8ff" points="960.55,-96.46 970.89,-94.14 961.36,-89.51 960.55,-96.46"/>
</a>
</g>
</g>
<!-- Node9&#45;&gt;Node7 -->
<g id="edge10_Node000009_Node000007" class="edge">
<title>Node9&#45;&gt;Node7</title>
<g id="a_edge10_Node000009_Node000007"><a xlink:title=" ">
<path fill="none" stroke="#63b8ff" d="M915.07,-79.09C931.49,-77.09 951.44,-74.65 970.3,-72.34"/>
<polygon fill="#63b8ff" stroke="#63b8ff" points="970.83,-75.81 980.33,-71.12 969.98,-68.86 970.83,-75.81"/>
</a>
</g>
</g>
<!-- Node10&#45;&gt;Node6 -->
<g id="edge12_Node000010_Node000006" class="edge">
<title>Node10&#45;&gt;Node6</title>
<g id="a_edge12_Node000010_Node000006"><a xlink:title=" ">
<path fill="none" stroke="#63b8ff" d="M909.51,-56.01C917.86,-58.84 926.85,-62.1 935,-65.5 951.51,-72.39 954.32,-77.03 971,-83.5 976.07,-85.47 981.45,-87.33 986.85,-89.05"/>
<polygon fill="#63b8ff" stroke="#63b8ff" points="985.92,-92.42 996.51,-91.99 987.96,-85.73 985.92,-92.42"/>
</a>
</g>
</g>
<!-- Node10&#45;&gt;Node7 -->
<g id="edge13_Node000010_Node000007" class="edge">
<title>Node10&#45;&gt;Node7</title>
<g id="a_edge13_Node000010_Node000007"><a xlink:title=" ">
<path fill="none" stroke="#63b8ff" d="M918.24,-51.04C933.96,-52.86 952.49,-55.01 970.08,-57.04"/>
<polygon fill="#63b8ff" stroke="#63b8ff" points="969.96,-60.55 980.3,-58.23 970.77,-53.6 969.96,-60.55"/>
</a>
</g>
</g>
</g>
</svg>
