<?xml version="1.0" encoding="UTF-8" standalone="no"?>
<!DOCTYPE svg PUBLIC "-//W3C//DTD SVG 1.1//EN"
 "http://www.w3.org/Graphics/SVG/1.1/DTD/svg11.dtd">
<!-- Generated by graphviz version 2.43.0 (0)
 -->
<!-- Title: Pcal95555Handler::ConfigureHardwareInterrupt Pages: 1 -->
<svg width="821pt" height="86pt"
 viewBox="0.00 0.00 821.00 86.00" xmlns="http://www.w3.org/2000/svg" xmlns:xlink="http://www.w3.org/1999/xlink">
<g id="graph0" class="graph" transform="scale(1 1) rotate(0) translate(4 82)">
<title>Pcal95555Handler::ConfigureHardwareInterrupt</title>
<!-- Node1 -->
<g id="Node000001" class="node">
<title>Node1</title>
<g id="a_Node000001"><a xlink:title="Configure the hardware interrupt pin (falling edge, active&#45;low).">
<polygon fill="#999999" stroke="#666666" points="813,-54 655,-54 655,-24 813,-24 813,-54"/>
<text text-anchor="start" x="663" y="-42" font-family="Helvetica,sans-Serif" font-size="10.00">Pcal95555Handler::Configure</text>
<text text-anchor="middle" x="734" y="-31" font-family="Helvetica,sans-Serif" font-size="10.00">HardwareInterrupt</text>
</a>
</g>
</g>
<!-- Node2 -->
<g id="Node000002" class="node">
<title>Node2</title>
<g id="a_Node000002"><a xlink:href="classPcal95555Handler.html#a5c2e68d6c9e39e373d40e94f5e951558" target="_top" xlink:title="Internal initialization (called by EnsureInitialized under mutex).">
<polygon fill="white" stroke="#666666" points="619,-48.5 466,-48.5 466,-29.5 619,-29.5 619,-48.5"/>
<text text-anchor="middle" x="542.5" y="-36.5" font-family="Helvetica,sans-Serif" font-size="10.00">Pcal95555Handler::Initialize</text>
</a>
</g>
</g>
<!-- Node1&#45;&gt;Node2 -->
<g id="edge1_Node000001_Node000002" class="edge">
<title>Node1&#45;&gt;Node2</title>
<g id="a_edge1_Node000001_Node000002"><a xlink:title=" ">
<path fill="none" stroke="#63b8ff" d="M644.78,-39C636.18,-39 627.51,-39 619.05,-39"/>
<polygon fill="#63b8ff" stroke="#63b8ff" points="644.83,-42.5 654.83,-39 644.83,-35.5 644.83,-42.5"/>
</a>
</g>
</g>
<!-- Node3 -->
<g id="Node000003" class="node">
<title>Node3</title>
<g id="a_Node000003"><a xlink:href="classPcal95555Handler.html#a255f8ed3461301b509ff4ae9f6e78c51" target="_top" xlink:title="Ensure the handler is initialized (lazy initialization).">
<polygon fill="white" stroke="#666666" points="430,-78 286,-78 286,-48 430,-48 430,-78"/>
<text text-anchor="start" x="294" y="-66" font-family="Helvetica,sans-Serif" font-size="10.00">Pcal95555Handler::Ensure</text>
<text text-anchor="middle" x="358" y="-55" font-family="Helvetica,sans-Serif" font-size="10.00">Initialized</text>
</a>
</g>
</g>
<!-- Node2&#45;&gt;Node3 -->
<g id="edge2_Node000002_Node000003" class="edge">
<title>Node2&#45;&gt;Node3</title>
<g id="a_edge2_Node000002_Node000003"><a xlink:title=" ">
<path fill="none" stroke="#63b8ff" d="M459.09,-49.84C449.42,-51.11 439.61,-52.4 430.11,-53.65"/>
<polygon fill="#63b8ff" stroke="#63b8ff" points="459.65,-53.29 469.11,-48.52 458.74,-46.35 459.65,-53.29"/>
</a>
</g>
</g>
<!-- Node6 -->
<g id="Node000006" class="node">
<title>Node6</title>
<g id="a_Node000006"><a xlink:href="classPcal95555Handler.html#a7d8ed72bf4fc9dfcb0be4877deec99b3" target="_top" xlink:title="Check init state under already&#45;held handler_mutex_.">
<polygon fill="white" stroke="#666666" points="430,-30 286,-30 286,0 430,0 430,-30"/>
<text text-anchor="start" x="294" y="-18" font-family="Helvetica,sans-Serif" font-size="10.00">Pcal95555Handler::Ensure</text>
<text text-anchor="middle" x="358" y="-7" font-family="Helvetica,sans-Serif" font-size="10.00">InitializedLocked</text>
</a>
</g>
</g>
<!-- Node2&#45;&gt;Node6 -->
<g id="edge5_Node000002_Node000006" class="edge">
<title>Node2&#45;&gt;Node6</title>
<g id="a_edge5_Node000002_Node000006"><a xlink:title=" ">
<path fill="none" stroke="#63b8ff" d="M459.09,-28.16C449.42,-26.89 439.61,-25.6 430.11,-24.35"/>
<polygon fill="#63b8ff" stroke="#63b8ff" points="458.74,-31.65 469.11,-29.48 459.65,-24.71 458.74,-31.65"/>
</a>
</g>
</g>
<!-- Node4 -->
<g id="Node000004" class="node">
<title>Node4</title>
<g id="a_Node000004"><a xlink:href="full__system__integration__test_8cpp.html#a5a65d07819438b3ffa159258ea42a9ea" target="_top" xlink:title=" ">
<polygon fill="white" stroke="#666666" points="247.5,-72.5 103.5,-72.5 103.5,-53.5 247.5,-53.5 247.5,-72.5"/>
<text text-anchor="middle" x="175.5" y="-60.5" font-family="Helvetica,sans-Serif" font-size="10.00">test_i2c_multi_device_init</text>
</a>
</g>
</g>
<!-- Node3&#45;&gt;Node4 -->
<g id="edge3_Node000003_Node000004" class="edge">
<title>Node3&#45;&gt;Node4</title>
<g id="a_edge3_Node000003_Node000004"><a xlink:title=" ">
<path fill="none" stroke="#63b8ff" d="M275.77,-63C266.34,-63 256.79,-63 247.51,-63"/>
<polygon fill="#63b8ff" stroke="#63b8ff" points="275.92,-66.5 285.92,-63 275.92,-59.5 275.92,-66.5"/>
</a>
</g>
</g>
<!-- Node5 -->
<g id="Node000005" class="node">
<title>Node5</title>
<g id="a_Node000005"><a xlink:href="full__system__integration__test_8cpp.html#a630544a7f0a2cc40d8a7fefab7e2fe70" target="_top" xlink:title=" ">
<polygon fill="white" stroke="#666666" points="65,-72.5 0,-72.5 0,-53.5 65,-53.5 65,-72.5"/>
<text text-anchor="middle" x="32.5" y="-60.5" font-family="Helvetica,sans-Serif" font-size="10.00">app_main</text>
</a>
</g>
</g>
<!-- Node4&#45;&gt;Node5 -->
<g id="edge4_Node000004_Node000005" class="edge">
<title>Node4&#45;&gt;Node5</title>
<g id="a_edge4_Node000004_Node000005"><a xlink:title=" ">
<path fill="none" stroke="#63b8ff" d="M93.17,-63C83.24,-63 73.59,-63 65.06,-63"/>
<polygon fill="#63b8ff" stroke="#63b8ff" points="93.17,-66.5 103.17,-63 93.17,-59.5 93.17,-66.5"/>
</a>
</g>
</g>
<!-- Node7 -->
<g id="Node000007" class="node">
<title>Node7</title>
<g id="a_Node000007"><a xlink:href="classPcal95555Handler.html#aeb2c5589355cb9ae970fdf2d10b545e8" target="_top" xlink:title="Reset all registers to power&#45;on default state.">
<polygon fill="white" stroke="#666666" points="250,-30 101,-30 101,0 250,0 250,-30"/>
<text text-anchor="start" x="109" y="-18" font-family="Helvetica,sans-Serif" font-size="10.00">Pcal95555Handler::ResetTo</text>
<text text-anchor="middle" x="175.5" y="-7" font-family="Helvetica,sans-Serif" font-size="10.00">Default</text>
</a>
</g>
</g>
<!-- Node6&#45;&gt;Node7 -->
<g id="edge6_Node000006_Node000007" class="edge">
<title>Node6&#45;&gt;Node7</title>
<g id="a_edge6_Node000006_Node000007"><a xlink:title=" ">
<path fill="none" stroke="#63b8ff" d="M275.65,-15C267.16,-15 258.58,-15 250.19,-15"/>
<polygon fill="#63b8ff" stroke="#63b8ff" points="275.92,-18.5 285.92,-15 275.92,-11.5 275.92,-18.5"/>
</a>
</g>
</g>
</g>
</svg>
