<?xml version="1.0" encoding="UTF-8" standalone="no"?>
<!DOCTYPE svg PUBLIC "-//W3C//DTD SVG 1.1//EN"
 "http://www.w3.org/Graphics/SVG/1.1/DTD/svg11.dtd">
<!-- Generated by graphviz version 2.43.0 (0)
 -->
<!-- Title: Tmc9660Handler::GetMotorCurrent Pages: 1 -->
<svg width="1128pt" height="209pt"
 viewBox="0.00 0.00 1128.00 208.93" xmlns="http://www.w3.org/2000/svg" xmlns:xlink="http://www.w3.org/1999/xlink">
<g id="graph0" class="graph" transform="scale(1 1) rotate(0) translate(4 204.93)">
<title>Tmc9660Handler::GetMotorCurrent</title>
<!-- Node1 -->
<g id="Node000001" class="node">
<title>Node1</title>
<g id="a_Node000001"><a xlink:title="Read the instantaneous motor phase current.">
<polygon fill="#999999" stroke="#666666" points="152,-44.93 0,-44.93 0,-14.93 152,-14.93 152,-44.93"/>
<text text-anchor="start" x="8" y="-32.93" font-family="Helvetica,sans-Serif" font-size="10.00">Tmc9660Handler::GetMotor</text>
<text text-anchor="middle" x="76" y="-21.93" font-family="Helvetica,sans-Serif" font-size="10.00">Current</text>
</a>
</g>
</g>
<!-- Node2 -->
<g id="Node000002" class="node">
<title>Node2</title>
<g id="a_Node000002"><a xlink:href="classTmc9660Handler.html#a5a279ae9d4b5a8e0d71cb24577ad88ea" target="_top" xlink:title="Ensure driver is initialized (lazy init entrypoint).">
<polygon fill="white" stroke="#666666" points="568,-77.43 381,-77.43 381,-58.43 568,-58.43 568,-77.43"/>
<text text-anchor="middle" x="474.5" y="-65.43" font-family="Helvetica,sans-Serif" font-size="10.00">Tmc9660Handler::EnsureInitialized</text>
</a>
</g>
</g>
<!-- Node1&#45;&gt;Node2 -->
<g id="edge1_Node000001_Node000002" class="edge">
<title>Node1&#45;&gt;Node2</title>
<g id="a_edge1_Node000001_Node000002"><a xlink:title=" ">
<path fill="none" stroke="#63b8ff" d="M152.08,-43.85C164.06,-45.77 176.35,-47.54 188,-48.93 248.37,-56.08 316.27,-60.74 370.7,-63.65"/>
<polygon fill="#63b8ff" stroke="#63b8ff" points="370.53,-67.14 380.7,-64.17 370.9,-60.15 370.53,-67.14"/>
</a>
</g>
</g>
<!-- Node10 -->
<g id="Node000010" class="node">
<title>Node10</title>
<g id="a_Node000010"><a xlink:href="classTmc9660Handler.html#a393382194d0602e7aa02da6a8fd7a20a" target="_top" xlink:title="Get a reference to the Temperature wrapper.">
<polygon fill="white" stroke="#666666" points="955,-23.43 788,-23.43 788,-4.43 955,-4.43 955,-23.43"/>
<text text-anchor="middle" x="871.5" y="-11.43" font-family="Helvetica,sans-Serif" font-size="10.00">Tmc9660Handler::temperature</text>
</a>
</g>
</g>
<!-- Node1&#45;&gt;Node10 -->
<g id="edge15_Node000001_Node000010" class="edge">
<title>Node1&#45;&gt;Node10</title>
<g id="a_edge15_Node000001_Node000010"><a xlink:title=" ">
<path fill="none" stroke="#63b8ff" d="M152.01,-15.31C164,-13.49 176.31,-11.92 188,-10.93 398.29,6.94 646.33,-1.5 777.8,-8.3"/>
<polygon fill="#63b8ff" stroke="#63b8ff" points="777.67,-11.8 787.84,-8.83 778.04,-4.81 777.67,-11.8"/>
</a>
</g>
</g>
<!-- Node11 -->
<g id="Node000011" class="node">
<title>Node11</title>
<g id="a_Node000011"><a xlink:href="classTmc9660Handler.html#a4360829b58deda85e9da4b9cebee96f0" target="_top" xlink:title="Execute a function on the underlying typed TMC9660 driver.">
<polygon fill="white" stroke="#666666" points="345,-39.43 188,-39.43 188,-20.43 345,-20.43 345,-39.43"/>
<text text-anchor="middle" x="266.5" y="-27.43" font-family="Helvetica,sans-Serif" font-size="10.00">Tmc9660Handler::visitDriver</text>
</a>
</g>
</g>
<!-- Node1&#45;&gt;Node11 -->
<g id="edge16_Node000001_Node000011" class="edge">
<title>Node1&#45;&gt;Node11</title>
<g id="a_edge16_Node000001_Node000011"><a xlink:title=" ">
<path fill="none" stroke="#63b8ff" d="M152.04,-29.93C160.53,-29.93 169.23,-29.93 177.86,-29.93"/>
<polygon fill="#63b8ff" stroke="#63b8ff" points="177.94,-33.43 187.94,-29.93 177.94,-26.43 177.94,-33.43"/>
</a>
</g>
</g>
<!-- Node3 -->
<g id="Node000003" class="node">
<title>Node3</title>
<g id="a_Node000003"><a xlink:href="classTmc9660Handler.html#adc564847f8ae26c47412aaee0758991c" target="_top" xlink:title="Initialize the TMC9660 device.">
<polygon fill="white" stroke="#666666" points="752,-115.43 604,-115.43 604,-96.43 752,-96.43 752,-115.43"/>
<text text-anchor="middle" x="678" y="-103.43" font-family="Helvetica,sans-Serif" font-size="10.00">Tmc9660Handler::Initialize</text>
</a>
</g>
</g>
<!-- Node2&#45;&gt;Node3 -->
<g id="edge2_Node000002_Node000003" class="edge">
<title>Node2&#45;&gt;Node3</title>
<g id="a_edge2_Node000002_Node000003"><a xlink:title=" ">
<path fill="none" stroke="#63b8ff" d="M526.09,-77.47C553.51,-82.64 587.6,-89.07 616.43,-94.5"/>
<polygon fill="#63b8ff" stroke="#63b8ff" points="615.92,-97.97 626.39,-96.38 617.21,-91.09 615.92,-97.97"/>
</a>
</g>
</g>
<!-- Node9 -->
<g id="Node000009" class="node">
<title>Node9</title>
<g id="a_Node000009"><a xlink:href="classTmc9660Handler.html#a13db97d201a287d8aa60384e04070b9f" target="_top" xlink:title="Check if the TMC9660 driver has been initialized and is ready.">
<polygon fill="white" stroke="#666666" points="943.5,-200.93 799.5,-200.93 799.5,-170.93 943.5,-170.93 943.5,-200.93"/>
<text text-anchor="start" x="807.5" y="-188.93" font-family="Helvetica,sans-Serif" font-size="10.00">Tmc9660Handler::IsDriver</text>
<text text-anchor="middle" x="871.5" y="-177.93" font-family="Helvetica,sans-Serif" font-size="10.00">Ready</text>
</a>
</g>
</g>
<!-- Node2&#45;&gt;Node9 -->
<g id="edge14_Node000002_Node000009" class="edge">
<title>Node2&#45;&gt;Node9</title>
<g id="a_edge14_Node000002_Node000009"><a xlink:title=" ">
<path fill="none" stroke="#63b8ff" d="M494.2,-77.6C518.82,-90 563.71,-111.52 604,-124.93 664.92,-145.2 735.88,-161.08 789.25,-171.55"/>
<polygon fill="#63b8ff" stroke="#63b8ff" points="788.86,-175.04 799.34,-173.51 790.19,-168.17 788.86,-175.04"/>
</a>
</g>
</g>
<!-- Node4 -->
<g id="Node000004" class="node">
<title>Node4</title>
<g id="a_Node000004"><a xlink:href="classLogger.html#a5e4bcdaea60b9ac227b564d780388769" target="_top" xlink:title="Log error message.">
<polygon fill="white" stroke="#666666" points="911,-78.43 832,-78.43 832,-59.43 911,-59.43 911,-78.43"/>
<text text-anchor="middle" x="871.5" y="-66.43" font-family="Helvetica,sans-Serif" font-size="10.00">Logger::Error</text>
</a>
</g>
</g>
<!-- Node3&#45;&gt;Node4 -->
<g id="edge3_Node000003_Node000004" class="edge">
<title>Node3&#45;&gt;Node4</title>
<g id="a_edge3_Node000003_Node000004"><a xlink:title=" ">
<path fill="none" stroke="#63b8ff" d="M728.32,-96.4C757.04,-90.85 793.11,-83.88 821.74,-78.35"/>
<polygon fill="#63b8ff" stroke="#63b8ff" points="822.77,-81.71 831.92,-76.38 821.44,-74.84 822.77,-81.71"/>
</a>
</g>
</g>
<!-- Node7 -->
<g id="Node000007" class="node">
<title>Node7</title>
<g id="a_Node000007"><a xlink:href="classLogger.html#a5789d11f8f1356e2192c0023a089cbc4" target="_top" xlink:title="Get singleton instance.">
<polygon fill="white" stroke="#666666" points="928.5,-152.43 814.5,-152.43 814.5,-133.43 928.5,-133.43 928.5,-152.43"/>
<text text-anchor="middle" x="871.5" y="-140.43" font-family="Helvetica,sans-Serif" font-size="10.00">Logger::GetInstance</text>
</a>
</g>
</g>
<!-- Node3&#45;&gt;Node7 -->
<g id="edge6_Node000003_Node000007" class="edge">
<title>Node3&#45;&gt;Node7</title>
<g id="a_edge6_Node000003_Node000007"><a xlink:title=" ">
<path fill="none" stroke="#63b8ff" d="M728.32,-115.45C753.57,-120.33 784.51,-126.31 811.07,-131.44"/>
<polygon fill="#63b8ff" stroke="#63b8ff" points="810.54,-134.9 821.02,-133.36 811.86,-128.03 810.54,-134.9"/>
</a>
</g>
</g>
<!-- Node8 -->
<g id="Node000008" class="node">
<title>Node8</title>
<g id="a_Node000008"><a xlink:href="classLogger.html#a1c0c947d87884bca0395fd38d19d1102" target="_top" xlink:title="Log info message.">
<polygon fill="white" stroke="#666666" points="908.5,-115.43 834.5,-115.43 834.5,-96.43 908.5,-96.43 908.5,-115.43"/>
<text text-anchor="middle" x="871.5" y="-103.43" font-family="Helvetica,sans-Serif" font-size="10.00">Logger::Info</text>
</a>
</g>
</g>
<!-- Node3&#45;&gt;Node8 -->
<g id="edge7_Node000003_Node000008" class="edge">
<title>Node3&#45;&gt;Node8</title>
<g id="a_edge7_Node000003_Node000008"><a xlink:title=" ">
<path fill="none" stroke="#63b8ff" d="M752.22,-105.93C776.35,-105.93 802.52,-105.93 824.08,-105.93"/>
<polygon fill="#63b8ff" stroke="#63b8ff" points="824.27,-109.43 834.27,-105.93 824.27,-102.43 824.27,-109.43"/>
</a>
</g>
</g>
<!-- Node3&#45;&gt;Node9 -->
<g id="edge10_Node000003_Node000009" class="edge">
<title>Node3&#45;&gt;Node9</title>
<g id="a_edge10_Node000003_Node000009"><a xlink:title=" ">
<path fill="none" stroke="#63b8ff" d="M695.16,-115.48C716.05,-127.52 753.8,-148.31 788,-161.93 793.02,-163.92 798.28,-165.84 803.6,-167.65"/>
<polygon fill="#63b8ff" stroke="#63b8ff" points="802.62,-171.01 813.21,-170.81 804.8,-164.36 802.62,-171.01"/>
</a>
</g>
</g>
<!-- Node3&#45;&gt;Node10 -->
<g id="edge11_Node000003_Node000010" class="edge">
<title>Node3&#45;&gt;Node10</title>
<g id="a_edge11_Node000003_Node000010"><a xlink:title=" ">
<path fill="none" stroke="#63b8ff" d="M717.71,-96.31C729.15,-92.66 741.43,-87.9 752,-81.93 770.38,-71.54 770.18,-62.25 788,-50.93 802.56,-41.67 819.83,-33.54 834.79,-27.28"/>
<polygon fill="#63b8ff" stroke="#63b8ff" points="836.3,-30.44 844.24,-23.44 833.66,-23.96 836.3,-30.44"/>
</a>
</g>
</g>
<!-- Node5 -->
<g id="Node000005" class="node">
<title>Node5</title>
<g id="a_Node000005"><a xlink:href="classLogger.html#a737b981213c02321a5235848334d7191" target="_top" xlink:title="Check if log level is enabled for tag.">
<polygon fill="white" stroke="#666666" points="1120,-115.43 991,-115.43 991,-96.43 1120,-96.43 1120,-115.43"/>
<text text-anchor="middle" x="1055.5" y="-103.43" font-family="Helvetica,sans-Serif" font-size="10.00">Logger::IsLevelEnabled</text>
</a>
</g>
</g>
<!-- Node4&#45;&gt;Node5 -->
<g id="edge4_Node000004_Node000005" class="edge">
<title>Node4&#45;&gt;Node5</title>
<g id="a_edge4_Node000004_Node000005"><a xlink:title=" ">
<path fill="none" stroke="#63b8ff" d="M911.1,-76.77C936.19,-81.87 969.34,-88.61 997.45,-94.33"/>
<polygon fill="#63b8ff" stroke="#63b8ff" points="997.06,-97.82 1007.56,-96.38 998.45,-90.96 997.06,-97.82"/>
</a>
</g>
</g>
<!-- Node6 -->
<g id="Node000006" class="node">
<title>Node6</title>
<g id="a_Node000006"><a xlink:href="classLogger.html#aeede6ac18db92a47caede076ef188a13" target="_top" xlink:title="Internal logging method.">
<polygon fill="white" stroke="#666666" points="1110.5,-78.43 1000.5,-78.43 1000.5,-59.43 1110.5,-59.43 1110.5,-78.43"/>
<text text-anchor="middle" x="1055.5" y="-66.43" font-family="Helvetica,sans-Serif" font-size="10.00">Logger::LogInternal</text>
</a>
</g>
</g>
<!-- Node4&#45;&gt;Node6 -->
<g id="edge5_Node000004_Node000006" class="edge">
<title>Node4&#45;&gt;Node6</title>
<g id="a_edge5_Node000004_Node000006"><a xlink:title=" ">
<path fill="none" stroke="#63b8ff" d="M911.1,-68.93C934.03,-68.93 963.71,-68.93 990.11,-68.93"/>
<polygon fill="#63b8ff" stroke="#63b8ff" points="990.43,-72.43 1000.43,-68.93 990.43,-65.43 990.43,-72.43"/>
</a>
</g>
</g>
<!-- Node8&#45;&gt;Node5 -->
<g id="edge8_Node000008_Node000005" class="edge">
<title>Node8&#45;&gt;Node5</title>
<g id="a_edge8_Node000008_Node000005"><a xlink:title=" ">
<path fill="none" stroke="#63b8ff" d="M908.89,-105.93C929.5,-105.93 956.03,-105.93 980.79,-105.93"/>
<polygon fill="#63b8ff" stroke="#63b8ff" points="980.9,-109.43 990.9,-105.93 980.9,-102.43 980.9,-109.43"/>
</a>
</g>
</g>
<!-- Node8&#45;&gt;Node6 -->
<g id="edge9_Node000008_Node000006" class="edge">
<title>Node8&#45;&gt;Node6</title>
<g id="a_edge9_Node000008_Node000006"><a xlink:title=" ">
<path fill="none" stroke="#63b8ff" d="M908.89,-98.53C934.23,-93.38 968.52,-86.4 997.46,-80.52"/>
<polygon fill="#63b8ff" stroke="#63b8ff" points="998.35,-83.91 1007.45,-78.49 996.95,-77.05 998.35,-83.91"/>
</a>
</g>
</g>
<!-- Node10&#45;&gt;Node2 -->
<g id="edge12_Node000010_Node000002" class="edge">
<title>Node10&#45;&gt;Node2</title>
<g id="a_edge12_Node000010_Node000002"><a xlink:title=" ">
<path fill="none" stroke="#63b8ff" d="M838.61,-23.49C814.92,-30.23 781.71,-38.91 752,-43.93 694.99,-53.55 630.67,-59.43 578.42,-62.95"/>
<polygon fill="#63b8ff" stroke="#63b8ff" points="577.89,-59.48 568.14,-63.63 578.35,-66.46 577.89,-59.48"/>
</a>
</g>
</g>
<!-- Node10&#45;&gt;Node10 -->
<g id="edge13_Node000010_Node000010" class="edge">
<title>Node10&#45;&gt;Node10</title>
<g id="a_edge13_Node000010_Node000010"><a xlink:title=" ">
<path fill="none" stroke="#63b8ff" d="M843.14,-23.51C829.34,-32.16 838.8,-41.43 871.5,-41.43 893.98,-41.43 905.48,-37.05 905.98,-31.5"/>
<polygon fill="#63b8ff" stroke="#63b8ff" points="908.72,-29.32 899.86,-23.51 903.16,-33.57 908.72,-29.32"/>
</a>
</g>
</g>
<!-- Node11&#45;&gt;Node2 -->
<g id="edge17_Node000011_Node000002" class="edge">
<title>Node11&#45;&gt;Node2</title>
<g id="a_edge17_Node000011_Node000002"><a xlink:title=" ">
<path fill="none" stroke="#63b8ff" d="M319.22,-39.47C347.26,-44.64 382.1,-51.07 411.58,-56.5"/>
<polygon fill="#63b8ff" stroke="#63b8ff" points="411.29,-60.01 421.76,-58.38 412.56,-53.13 411.29,-60.01"/>
</a>
</g>
</g>
<!-- Node11&#45;&gt;Node10 -->
<g id="edge18_Node000011_Node000010" class="edge">
<title>Node11&#45;&gt;Node10</title>
<g id="a_edge18_Node000011_Node000010"><a xlink:title=" ">
<path fill="none" stroke="#63b8ff" d="M345.1,-27.87C455.9,-24.93 659.14,-19.53 777.74,-16.39"/>
<polygon fill="#63b8ff" stroke="#63b8ff" points="777.99,-19.88 787.89,-16.12 777.8,-12.88 777.99,-19.88"/>
</a>
</g>
</g>
</g>
</svg>
