<?xml version="1.0" encoding="UTF-8" standalone="no"?>
<!DOCTYPE svg PUBLIC "-//W3C//DTD SVG 1.1//EN"
 "http://www.w3.org/Graphics/SVG/1.1/DTD/svg11.dtd">
<!-- Generated by graphviz version 2.43.0 (0)
 -->
<!-- Title: Tmc9660Handler::DisableDriverOutput Pages: 1 -->
<svg width="1149pt" height="208pt"
 viewBox="0.00 0.00 1149.00 207.95" xmlns="http://www.w3.org/2000/svg" xmlns:xlink="http://www.w3.org/1999/xlink">
<g id="graph0" class="graph" transform="scale(1 1) rotate(0) translate(4 203.95)">
<title>Tmc9660Handler::DisableDriverOutput</title>
<!-- Node1 -->
<g id="Node000001" class="node">
<title>Node1</title>
<g id="a_Node000001"><a xlink:title="De&#45;assert the DRV_EN control pin (disable the TMC9660 power stage hardware).">
<polygon fill="#999999" stroke="#666666" points="173,-43.95 0,-43.95 0,-13.95 173,-13.95 173,-43.95"/>
<text text-anchor="start" x="8" y="-31.95" font-family="Helvetica,sans-Serif" font-size="10.00">Tmc9660Handler::DisableDriver</text>
<text text-anchor="middle" x="86.5" y="-20.95" font-family="Helvetica,sans-Serif" font-size="10.00">Output</text>
</a>
</g>
</g>
<!-- Node2 -->
<g id="Node000002" class="node">
<title>Node2</title>
<g id="a_Node000002"><a xlink:href="classTmc9660Handler.html#a5a279ae9d4b5a8e0d71cb24577ad88ea" target="_top" xlink:title="Ensure driver is initialized (lazy init entrypoint).">
<polygon fill="white" stroke="#666666" points="589,-76.45 402,-76.45 402,-57.45 589,-57.45 589,-76.45"/>
<text text-anchor="middle" x="495.5" y="-64.45" font-family="Helvetica,sans-Serif" font-size="10.00">Tmc9660Handler::EnsureInitialized</text>
</a>
</g>
</g>
<!-- Node1&#45;&gt;Node2 -->
<g id="edge1_Node000001_Node000002" class="edge">
<title>Node1&#45;&gt;Node2</title>
<g id="a_edge1_Node000001_Node000002"><a xlink:title=" ">
<path fill="none" stroke="#63b8ff" d="M173,-43.29C185.07,-45.03 197.33,-46.65 209,-47.95 269.42,-54.67 337.32,-59.31 391.74,-62.32"/>
<polygon fill="#63b8ff" stroke="#63b8ff" points="391.56,-65.81 401.74,-62.86 391.94,-58.82 391.56,-65.81"/>
</a>
</g>
</g>
<!-- Node10 -->
<g id="Node000010" class="node">
<title>Node10</title>
<g id="a_Node000010"><a xlink:href="classTmc9660Handler.html#a393382194d0602e7aa02da6a8fd7a20a" target="_top" xlink:title="Get a reference to the Temperature wrapper.">
<polygon fill="white" stroke="#666666" points="976,-22.45 809,-22.45 809,-3.45 976,-3.45 976,-22.45"/>
<text text-anchor="middle" x="892.5" y="-10.45" font-family="Helvetica,sans-Serif" font-size="10.00">Tmc9660Handler::temperature</text>
</a>
</g>
</g>
<!-- Node1&#45;&gt;Node10 -->
<g id="edge15_Node000001_Node000010" class="edge">
<title>Node1&#45;&gt;Node10</title>
<g id="a_edge15_Node000001_Node000010"><a xlink:title=" ">
<path fill="none" stroke="#63b8ff" d="M172.6,-13.93C184.78,-12.28 197.19,-10.87 209,-9.95 419.41,6.4 667.41,-1.45 798.84,-7.74"/>
<polygon fill="#63b8ff" stroke="#63b8ff" points="798.71,-11.24 808.87,-8.23 799.05,-4.25 798.71,-11.24"/>
</a>
</g>
</g>
<!-- Node11 -->
<g id="Node000011" class="node">
<title>Node11</title>
<g id="a_Node000011"><a xlink:href="classTmc9660Handler.html#a4360829b58deda85e9da4b9cebee96f0" target="_top" xlink:title="Execute a function on the underlying typed TMC9660 driver.">
<polygon fill="white" stroke="#666666" points="366,-38.45 209,-38.45 209,-19.45 366,-19.45 366,-38.45"/>
<text text-anchor="middle" x="287.5" y="-26.45" font-family="Helvetica,sans-Serif" font-size="10.00">Tmc9660Handler::visitDriver</text>
</a>
</g>
</g>
<!-- Node1&#45;&gt;Node11 -->
<g id="edge16_Node000001_Node000011" class="edge">
<title>Node1&#45;&gt;Node11</title>
<g id="a_edge16_Node000001_Node000011"><a xlink:title=" ">
<path fill="none" stroke="#63b8ff" d="M173.05,-28.95C181.51,-28.95 190.11,-28.95 198.6,-28.95"/>
<polygon fill="#63b8ff" stroke="#63b8ff" points="198.88,-32.45 208.88,-28.95 198.88,-25.45 198.88,-32.45"/>
</a>
</g>
</g>
<!-- Node3 -->
<g id="Node000003" class="node">
<title>Node3</title>
<g id="a_Node000003"><a xlink:href="classTmc9660Handler.html#adc564847f8ae26c47412aaee0758991c" target="_top" xlink:title="Initialize the TMC9660 device.">
<polygon fill="white" stroke="#666666" points="773,-114.45 625,-114.45 625,-95.45 773,-95.45 773,-114.45"/>
<text text-anchor="middle" x="699" y="-102.45" font-family="Helvetica,sans-Serif" font-size="10.00">Tmc9660Handler::Initialize</text>
</a>
</g>
</g>
<!-- Node2&#45;&gt;Node3 -->
<g id="edge2_Node000002_Node000003" class="edge">
<title>Node2&#45;&gt;Node3</title>
<g id="a_edge2_Node000002_Node000003"><a xlink:title=" ">
<path fill="none" stroke="#63b8ff" d="M547.09,-76.49C574.51,-81.66 608.6,-88.09 637.43,-93.53"/>
<polygon fill="#63b8ff" stroke="#63b8ff" points="636.92,-96.99 647.39,-95.4 638.21,-90.11 636.92,-96.99"/>
</a>
</g>
</g>
<!-- Node9 -->
<g id="Node000009" class="node">
<title>Node9</title>
<g id="a_Node000009"><a xlink:href="classTmc9660Handler.html#a13db97d201a287d8aa60384e04070b9f" target="_top" xlink:title="Check if the TMC9660 driver has been initialized and is ready.">
<polygon fill="white" stroke="#666666" points="964.5,-199.95 820.5,-199.95 820.5,-169.95 964.5,-169.95 964.5,-199.95"/>
<text text-anchor="start" x="828.5" y="-187.95" font-family="Helvetica,sans-Serif" font-size="10.00">Tmc9660Handler::IsDriver</text>
<text text-anchor="middle" x="892.5" y="-176.95" font-family="Helvetica,sans-Serif" font-size="10.00">Ready</text>
</a>
</g>
</g>
<!-- Node2&#45;&gt;Node9 -->
<g id="edge14_Node000002_Node000009" class="edge">
<title>Node2&#45;&gt;Node9</title>
<g id="a_edge14_Node000002_Node000009"><a xlink:title=" ">
<path fill="none" stroke="#63b8ff" d="M515.2,-76.62C539.82,-89.03 584.71,-110.54 625,-123.95 685.92,-144.22 756.88,-160.1 810.25,-170.57"/>
<polygon fill="#63b8ff" stroke="#63b8ff" points="809.86,-174.06 820.34,-172.53 811.19,-167.19 809.86,-174.06"/>
</a>
</g>
</g>
<!-- Node4 -->
<g id="Node000004" class="node">
<title>Node4</title>
<g id="a_Node000004"><a xlink:href="classLogger.html#a5e4bcdaea60b9ac227b564d780388769" target="_top" xlink:title="Log error message.">
<polygon fill="white" stroke="#666666" points="932,-77.45 853,-77.45 853,-58.45 932,-58.45 932,-77.45"/>
<text text-anchor="middle" x="892.5" y="-65.45" font-family="Helvetica,sans-Serif" font-size="10.00">Logger::Error</text>
</a>
</g>
</g>
<!-- Node3&#45;&gt;Node4 -->
<g id="edge3_Node000003_Node000004" class="edge">
<title>Node3&#45;&gt;Node4</title>
<g id="a_edge3_Node000003_Node000004"><a xlink:title=" ">
<path fill="none" stroke="#63b8ff" d="M749.32,-95.42C778.04,-89.87 814.11,-82.9 842.74,-77.37"/>
<polygon fill="#63b8ff" stroke="#63b8ff" points="843.77,-80.74 852.92,-75.4 842.44,-73.86 843.77,-80.74"/>
</a>
</g>
</g>
<!-- Node7 -->
<g id="Node000007" class="node">
<title>Node7</title>
<g id="a_Node000007"><a xlink:href="classLogger.html#a5789d11f8f1356e2192c0023a089cbc4" target="_top" xlink:title="Get singleton instance.">
<polygon fill="white" stroke="#666666" points="949.5,-151.45 835.5,-151.45 835.5,-132.45 949.5,-132.45 949.5,-151.45"/>
<text text-anchor="middle" x="892.5" y="-139.45" font-family="Helvetica,sans-Serif" font-size="10.00">Logger::GetInstance</text>
</a>
</g>
</g>
<!-- Node3&#45;&gt;Node7 -->
<g id="edge6_Node000003_Node000007" class="edge">
<title>Node3&#45;&gt;Node7</title>
<g id="a_edge6_Node000003_Node000007"><a xlink:title=" ">
<path fill="none" stroke="#63b8ff" d="M749.32,-114.48C774.57,-119.36 805.51,-125.33 832.07,-130.47"/>
<polygon fill="#63b8ff" stroke="#63b8ff" points="831.54,-133.93 842.02,-132.39 832.86,-127.05 831.54,-133.93"/>
</a>
</g>
</g>
<!-- Node8 -->
<g id="Node000008" class="node">
<title>Node8</title>
<g id="a_Node000008"><a xlink:href="classLogger.html#a1c0c947d87884bca0395fd38d19d1102" target="_top" xlink:title="Log info message.">
<polygon fill="white" stroke="#666666" points="929.5,-114.45 855.5,-114.45 855.5,-95.45 929.5,-95.45 929.5,-114.45"/>
<text text-anchor="middle" x="892.5" y="-102.45" font-family="Helvetica,sans-Serif" font-size="10.00">Logger::Info</text>
</a>
</g>
</g>
<!-- Node3&#45;&gt;Node8 -->
<g id="edge7_Node000003_Node000008" class="edge">
<title>Node3&#45;&gt;Node8</title>
<g id="a_edge7_Node000003_Node000008"><a xlink:title=" ">
<path fill="none" stroke="#63b8ff" d="M773.22,-104.95C797.35,-104.95 823.52,-104.95 845.08,-104.95"/>
<polygon fill="#63b8ff" stroke="#63b8ff" points="845.27,-108.45 855.27,-104.95 845.27,-101.45 845.27,-108.45"/>
</a>
</g>
</g>
<!-- Node3&#45;&gt;Node9 -->
<g id="edge10_Node000003_Node000009" class="edge">
<title>Node3&#45;&gt;Node9</title>
<g id="a_edge10_Node000003_Node000009"><a xlink:title=" ">
<path fill="none" stroke="#63b8ff" d="M716.16,-114.5C737.05,-126.55 774.8,-147.34 809,-160.95 814.02,-162.95 819.28,-164.86 824.6,-166.68"/>
<polygon fill="#63b8ff" stroke="#63b8ff" points="823.62,-170.04 834.21,-169.83 825.8,-163.39 823.62,-170.04"/>
</a>
</g>
</g>
<!-- Node3&#45;&gt;Node10 -->
<g id="edge11_Node000003_Node000010" class="edge">
<title>Node3&#45;&gt;Node10</title>
<g id="a_edge11_Node000003_Node000010"><a xlink:title=" ">
<path fill="none" stroke="#63b8ff" d="M738.71,-95.33C750.15,-91.68 762.43,-86.92 773,-80.95 791.38,-70.56 791.18,-61.28 809,-49.95 823.56,-40.69 840.83,-32.56 855.79,-26.3"/>
<polygon fill="#63b8ff" stroke="#63b8ff" points="857.3,-29.47 865.24,-22.46 854.66,-22.98 857.3,-29.47"/>
</a>
</g>
</g>
<!-- Node5 -->
<g id="Node000005" class="node">
<title>Node5</title>
<g id="a_Node000005"><a xlink:href="classLogger.html#a737b981213c02321a5235848334d7191" target="_top" xlink:title="Check if log level is enabled for tag.">
<polygon fill="white" stroke="#666666" points="1141,-114.45 1012,-114.45 1012,-95.45 1141,-95.45 1141,-114.45"/>
<text text-anchor="middle" x="1076.5" y="-102.45" font-family="Helvetica,sans-Serif" font-size="10.00">Logger::IsLevelEnabled</text>
</a>
</g>
</g>
<!-- Node4&#45;&gt;Node5 -->
<g id="edge4_Node000004_Node000005" class="edge">
<title>Node4&#45;&gt;Node5</title>
<g id="a_edge4_Node000004_Node000005"><a xlink:title=" ">
<path fill="none" stroke="#63b8ff" d="M932.1,-75.79C957.19,-80.9 990.34,-87.64 1018.45,-93.35"/>
<polygon fill="#63b8ff" stroke="#63b8ff" points="1018.06,-96.84 1028.56,-95.4 1019.45,-89.98 1018.06,-96.84"/>
</a>
</g>
</g>
<!-- Node6 -->
<g id="Node000006" class="node">
<title>Node6</title>
<g id="a_Node000006"><a xlink:href="classLogger.html#aeede6ac18db92a47caede076ef188a13" target="_top" xlink:title="Internal logging method.">
<polygon fill="white" stroke="#666666" points="1131.5,-77.45 1021.5,-77.45 1021.5,-58.45 1131.5,-58.45 1131.5,-77.45"/>
<text text-anchor="middle" x="1076.5" y="-65.45" font-family="Helvetica,sans-Serif" font-size="10.00">Logger::LogInternal</text>
</a>
</g>
</g>
<!-- Node4&#45;&gt;Node6 -->
<g id="edge5_Node000004_Node000006" class="edge">
<title>Node4&#45;&gt;Node6</title>
<g id="a_edge5_Node000004_Node000006"><a xlink:title=" ">
<path fill="none" stroke="#63b8ff" d="M932.1,-67.95C955.03,-67.95 984.71,-67.95 1011.11,-67.95"/>
<polygon fill="#63b8ff" stroke="#63b8ff" points="1011.43,-71.45 1021.43,-67.95 1011.43,-64.45 1011.43,-71.45"/>
</a>
</g>
</g>
<!-- Node8&#45;&gt;Node5 -->
<g id="edge8_Node000008_Node000005" class="edge">
<title>Node8&#45;&gt;Node5</title>
<g id="a_edge8_Node000008_Node000005"><a xlink:title=" ">
<path fill="none" stroke="#63b8ff" d="M929.89,-104.95C950.5,-104.95 977.03,-104.95 1001.79,-104.95"/>
<polygon fill="#63b8ff" stroke="#63b8ff" points="1001.9,-108.45 1011.9,-104.95 1001.9,-101.45 1001.9,-108.45"/>
</a>
</g>
</g>
<!-- Node8&#45;&gt;Node6 -->
<g id="edge9_Node000008_Node000006" class="edge">
<title>Node8&#45;&gt;Node6</title>
<g id="a_edge9_Node000008_Node000006"><a xlink:title=" ">
<path fill="none" stroke="#63b8ff" d="M929.89,-97.55C955.23,-92.4 989.52,-85.43 1018.46,-79.54"/>
<polygon fill="#63b8ff" stroke="#63b8ff" points="1019.35,-82.94 1028.45,-77.51 1017.95,-76.08 1019.35,-82.94"/>
</a>
</g>
</g>
<!-- Node10&#45;&gt;Node2 -->
<g id="edge12_Node000010_Node000002" class="edge">
<title>Node10&#45;&gt;Node2</title>
<g id="a_edge12_Node000010_Node000002"><a xlink:title=" ">
<path fill="none" stroke="#63b8ff" d="M859.61,-22.51C835.92,-29.25 802.71,-37.93 773,-42.95 715.99,-52.57 651.67,-58.45 599.42,-61.97"/>
<polygon fill="#63b8ff" stroke="#63b8ff" points="598.89,-58.5 589.14,-62.65 599.35,-65.49 598.89,-58.5"/>
</a>
</g>
</g>
<!-- Node10&#45;&gt;Node10 -->
<g id="edge13_Node000010_Node000010" class="edge">
<title>Node10&#45;&gt;Node10</title>
<g id="a_edge13_Node000010_Node000010"><a xlink:title=" ">
<path fill="none" stroke="#63b8ff" d="M864.14,-22.53C850.34,-31.18 859.8,-40.45 892.5,-40.45 914.98,-40.45 926.48,-36.07 926.98,-30.52"/>
<polygon fill="#63b8ff" stroke="#63b8ff" points="929.72,-28.34 920.86,-22.53 924.16,-32.6 929.72,-28.34"/>
</a>
</g>
</g>
<!-- Node11&#45;&gt;Node2 -->
<g id="edge17_Node000011_Node000002" class="edge">
<title>Node11&#45;&gt;Node2</title>
<g id="a_edge17_Node000011_Node000002"><a xlink:title=" ">
<path fill="none" stroke="#63b8ff" d="M340.22,-38.49C368.26,-43.66 403.1,-50.09 432.58,-55.53"/>
<polygon fill="#63b8ff" stroke="#63b8ff" points="432.29,-59.03 442.76,-57.4 433.56,-52.15 432.29,-59.03"/>
</a>
</g>
</g>
<!-- Node11&#45;&gt;Node10 -->
<g id="edge18_Node000011_Node000010" class="edge">
<title>Node11&#45;&gt;Node10</title>
<g id="a_edge18_Node000011_Node000010"><a xlink:title=" ">
<path fill="none" stroke="#63b8ff" d="M366.1,-26.89C476.9,-23.95 680.14,-18.56 798.74,-15.41"/>
<polygon fill="#63b8ff" stroke="#63b8ff" points="798.99,-18.9 808.89,-15.14 798.8,-11.91 798.99,-18.9"/>
</a>
</g>
</g>
</g>
</svg>
