<?xml version="1.0" encoding="UTF-8" standalone="no"?>
<!DOCTYPE svg PUBLIC "-//W3C//DTD SVG 1.1//EN"
 "http://www.w3.org/Graphics/SVG/1.1/DTD/svg11.dtd">
<!-- Generated by graphviz version 2.43.0 (0)
 -->
<!-- Title: Tle92466edHandler::DisableAllChannels Pages: 1 -->
<svg width="916pt" height="138pt"
 viewBox="0.00 0.00 916.00 138.00" xmlns="http://www.w3.org/2000/svg" xmlns:xlink="http://www.w3.org/1999/xlink">
<g id="graph0" class="graph" transform="scale(1 1) rotate(0) translate(4 134)">
<title>Tle92466edHandler::DisableAllChannels</title>
<!-- Node1 -->
<g id="Node000001" class="node">
<title>Node1</title>
<g id="a_Node000001"><a xlink:title="Disable all channels.">
<polygon fill="#999999" stroke="#666666" points="118,-85.5 0,-85.5 0,-55.5 118,-55.5 118,-85.5"/>
<text text-anchor="start" x="8" y="-73.5" font-family="Helvetica,sans-Serif" font-size="10.00">Tle92466edHandler::</text>
<text text-anchor="middle" x="59" y="-62.5" font-family="Helvetica,sans-Serif" font-size="10.00">DisableAllChannels</text>
</a>
</g>
</g>
<!-- Node2 -->
<g id="Node000002" class="node">
<title>Node2</title>
<g id="a_Node000002"><a xlink:href="classTle92466edHandler.html#aef42f3c7c1b1ef51b27eb8d178aca6bc" target="_top" xlink:title="Execute a lambda with a locked, initialized driver.">
<polygon fill="white" stroke="#666666" points="272,-85.5 154,-85.5 154,-55.5 272,-55.5 272,-85.5"/>
<text text-anchor="start" x="162" y="-73.5" font-family="Helvetica,sans-Serif" font-size="10.00">Tle92466edHandler::</text>
<text text-anchor="middle" x="213" y="-62.5" font-family="Helvetica,sans-Serif" font-size="10.00">withDriver</text>
</a>
</g>
</g>
<!-- Node1&#45;&gt;Node2 -->
<g id="edge1_Node000001_Node000002" class="edge">
<title>Node1&#45;&gt;Node2</title>
<g id="a_edge1_Node000001_Node000002"><a xlink:title=" ">
<path fill="none" stroke="#63b8ff" d="M118.33,-70.5C126.61,-70.5 135.17,-70.5 143.62,-70.5"/>
<polygon fill="#63b8ff" stroke="#63b8ff" points="143.82,-74 153.82,-70.5 143.82,-67 143.82,-74"/>
</a>
</g>
</g>
<!-- Node3 -->
<g id="Node000003" class="node">
<title>Node3</title>
<g id="a_Node000003"><a xlink:href="classTle92466edHandler.html#a59ce7fd71a61c78bba4dc4a43c99e280" target="_top" xlink:title=" ">
<polygon fill="white" stroke="#666666" points="439,-85.5 308,-85.5 308,-55.5 439,-55.5 439,-85.5"/>
<text text-anchor="start" x="316" y="-73.5" font-family="Helvetica,sans-Serif" font-size="10.00">Tle92466edHandler::</text>
<text text-anchor="middle" x="373.5" y="-62.5" font-family="Helvetica,sans-Serif" font-size="10.00">EnsureInitializedLocked</text>
</a>
</g>
</g>
<!-- Node2&#45;&gt;Node3 -->
<g id="edge2_Node000002_Node000003" class="edge">
<title>Node2&#45;&gt;Node3</title>
<g id="a_edge2_Node000002_Node000003"><a xlink:title=" ">
<path fill="none" stroke="#63b8ff" d="M272.12,-70.5C280.5,-70.5 289.22,-70.5 297.87,-70.5"/>
<polygon fill="#63b8ff" stroke="#63b8ff" points="297.97,-74 307.97,-70.5 297.97,-67 297.97,-74"/>
</a>
</g>
</g>
<!-- Node4 -->
<g id="Node000004" class="node">
<title>Node4</title>
<g id="a_Node000004"><a xlink:href="classLogger.html#adce17848a5844e053bfd314863dc1404" target="_top" xlink:title="Log error message.">
<polygon fill="white" stroke="#666666" points="725.5,-130 646.5,-130 646.5,-111 725.5,-111 725.5,-130"/>
<text text-anchor="middle" x="686" y="-118" font-family="Helvetica,sans-Serif" font-size="10.00">Logger::Error</text>
</a>
</g>
</g>
<!-- Node3&#45;&gt;Node4 -->
<g id="edge3_Node000003_Node000004" class="edge">
<title>Node3&#45;&gt;Node4</title>
<g id="a_edge3_Node000003_Node000004"><a xlink:title=" ">
<path fill="none" stroke="#63b8ff" d="M432.46,-85.5C446.33,-88.77 461.14,-92 475,-94.5 529.94,-104.43 593.65,-111.73 636.37,-116.03"/>
<polygon fill="#63b8ff" stroke="#63b8ff" points="636.19,-119.53 646.49,-117.03 636.88,-112.56 636.19,-119.53"/>
</a>
</g>
</g>
<!-- Node7 -->
<g id="Node000007" class="node">
<title>Node7</title>
<g id="a_Node000007"><a xlink:href="classLogger.html#a5789d11f8f1356e2192c0023a089cbc4" target="_top" xlink:title="Get singleton instance.">
<polygon fill="white" stroke="#666666" points="743,-19 629,-19 629,0 743,0 743,-19"/>
<text text-anchor="middle" x="686" y="-7" font-family="Helvetica,sans-Serif" font-size="10.00">Logger::GetInstance</text>
</a>
</g>
</g>
<!-- Node3&#45;&gt;Node7 -->
<g id="edge6_Node000003_Node000007" class="edge">
<title>Node3&#45;&gt;Node7</title>
<g id="a_edge6_Node000003_Node000007"><a xlink:title=" ">
<path fill="none" stroke="#63b8ff" d="M434.95,-55.44C448.12,-52.34 462,-49.19 475,-46.5 522.89,-36.57 577.27,-27.04 618.7,-20.13"/>
<polygon fill="#63b8ff" stroke="#63b8ff" points="619.38,-23.57 628.67,-18.48 618.23,-16.66 619.38,-23.57"/>
</a>
</g>
</g>
<!-- Node8 -->
<g id="Node000008" class="node">
<title>Node8</title>
<g id="a_Node000008"><a xlink:href="classTle92466edHandler.html#ac607f9cf2453e8d1849b40d2dd8e8474" target="_top" xlink:title="Initialize driver (hardware reset + SPI init + enter config mode).">
<polygon fill="white" stroke="#666666" points="593,-85.5 475,-85.5 475,-55.5 593,-55.5 593,-85.5"/>
<text text-anchor="start" x="483" y="-73.5" font-family="Helvetica,sans-Serif" font-size="10.00">Tle92466edHandler::</text>
<text text-anchor="middle" x="534" y="-62.5" font-family="Helvetica,sans-Serif" font-size="10.00">Initialize</text>
</a>
</g>
</g>
<!-- Node3&#45;&gt;Node8 -->
<g id="edge7_Node000003_Node000008" class="edge">
<title>Node3&#45;&gt;Node8</title>
<g id="a_edge7_Node000003_Node000008"><a xlink:title=" ">
<path fill="none" stroke="#63b8ff" d="M439.43,-70.5C447.75,-70.5 456.3,-70.5 464.68,-70.5"/>
<polygon fill="#63b8ff" stroke="#63b8ff" points="464.79,-74 474.79,-70.5 464.79,-67 464.79,-74"/>
</a>
</g>
</g>
<!-- Node5 -->
<g id="Node000005" class="node">
<title>Node5</title>
<g id="a_Node000005"><a xlink:href="classLogger.html#af9e84e0ff6bd538e4f9ed8dcebc3e2f0" target="_top" xlink:title="Check if log level is enabled for tag.">
<polygon fill="white" stroke="#666666" points="908,-111 779,-111 779,-92 908,-92 908,-111"/>
<text text-anchor="middle" x="843.5" y="-99" font-family="Helvetica,sans-Serif" font-size="10.00">Logger::IsLevelEnabled</text>
</a>
</g>
</g>
<!-- Node4&#45;&gt;Node5 -->
<g id="edge4_Node000004_Node000005" class="edge">
<title>Node4&#45;&gt;Node5</title>
<g id="a_edge4_Node000004_Node000005"><a xlink:title=" ">
<path fill="none" stroke="#63b8ff" d="M725.84,-115.75C738.85,-114.16 753.82,-112.34 768.6,-110.53"/>
<polygon fill="#63b8ff" stroke="#63b8ff" points="769.28,-113.97 778.78,-109.29 768.43,-107.02 769.28,-113.97"/>
</a>
</g>
</g>
<!-- Node6 -->
<g id="Node000006" class="node">
<title>Node6</title>
<g id="a_Node000006"><a xlink:href="classLogger.html#a6adb205db597526fb91ad20067400394" target="_top" xlink:title="Internal logging method.">
<polygon fill="white" stroke="#666666" points="898.5,-74 788.5,-74 788.5,-55 898.5,-55 898.5,-74"/>
<text text-anchor="middle" x="843.5" y="-62" font-family="Helvetica,sans-Serif" font-size="10.00">Logger::LogInternal</text>
</a>
</g>
</g>
<!-- Node4&#45;&gt;Node6 -->
<g id="edge5_Node000004_Node000006" class="edge">
<title>Node4&#45;&gt;Node6</title>
<g id="a_edge5_Node000004_Node000006"><a xlink:title=" ">
<path fill="none" stroke="#63b8ff" d="M719.92,-110.98C727.59,-108.47 735.66,-105.59 743,-102.5 759.68,-95.48 762.25,-90.35 779,-83.5 784.53,-81.24 790.42,-79.12 796.31,-77.16"/>
<polygon fill="#63b8ff" stroke="#63b8ff" points="797.67,-80.41 806.14,-74.05 795.55,-73.73 797.67,-80.41"/>
</a>
</g>
</g>
<!-- Node8&#45;&gt;Node4 -->
<g id="edge8_Node000008_Node000004" class="edge">
<title>Node8&#45;&gt;Node4</title>
<g id="a_edge8_Node000008_Node000004"><a xlink:title=" ">
<path fill="none" stroke="#63b8ff" d="M578.94,-85.63C594.71,-91.02 612.63,-97.08 629,-102.5 634.27,-104.24 639.83,-106.06 645.32,-107.84"/>
<polygon fill="#63b8ff" stroke="#63b8ff" points="644.44,-111.23 655.03,-110.97 646.59,-104.57 644.44,-111.23"/>
</a>
</g>
</g>
<!-- Node8&#45;&gt;Node7 -->
<g id="edge9_Node000008_Node000007" class="edge">
<title>Node8&#45;&gt;Node7</title>
<g id="a_edge9_Node000008_Node000007"><a xlink:title=" ">
<path fill="none" stroke="#63b8ff" d="M566.88,-55.37C584.93,-47.02 608.03,-36.72 629,-28.5 634.26,-26.44 639.84,-24.39 645.37,-22.43"/>
<polygon fill="#63b8ff" stroke="#63b8ff" points="646.86,-25.62 655.17,-19.05 644.57,-19 646.86,-25.62"/>
</a>
</g>
</g>
<!-- Node9 -->
<g id="Node000009" class="node">
<title>Node9</title>
<g id="a_Node000009"><a xlink:href="classLogger.html#a4681229c521795685fc14f6b55c82300" target="_top" xlink:title="Log info message.">
<polygon fill="white" stroke="#666666" points="723,-56 649,-56 649,-37 723,-37 723,-56"/>
<text text-anchor="middle" x="686" y="-44" font-family="Helvetica,sans-Serif" font-size="10.00">Logger::Info</text>
</a>
</g>
</g>
<!-- Node8&#45;&gt;Node9 -->
<g id="edge10_Node000008_Node000009" class="edge">
<title>Node8&#45;&gt;Node9</title>
<g id="a_edge10_Node000008_Node000009"><a xlink:title=" ">
<path fill="none" stroke="#63b8ff" d="M593.42,-61.15C608.38,-58.76 624.27,-56.22 638.54,-53.93"/>
<polygon fill="#63b8ff" stroke="#63b8ff" points="639.28,-57.36 648.6,-52.32 638.18,-50.45 639.28,-57.36"/>
</a>
</g>
</g>
<!-- Node10 -->
<g id="Node000010" class="node">
<title>Node10</title>
<g id="a_Node000010"><a xlink:href="classLogger.html#aaa95ffa14d07a965d4a85bdec82cba26" target="_top" xlink:title="Log warning message.">
<polygon fill="white" stroke="#666666" points="726,-93 646,-93 646,-74 726,-74 726,-93"/>
<text text-anchor="middle" x="686" y="-81" font-family="Helvetica,sans-Serif" font-size="10.00">Logger::Warn</text>
</a>
</g>
</g>
<!-- Node8&#45;&gt;Node10 -->
<g id="edge13_Node000008_Node000010" class="edge">
<title>Node8&#45;&gt;Node10</title>
<g id="a_edge13_Node000008_Node000010"><a xlink:title=" ">
<path fill="none" stroke="#63b8ff" d="M593.42,-75.56C607.45,-76.78 622.29,-78.07 635.85,-79.24"/>
<polygon fill="#63b8ff" stroke="#63b8ff" points="635.67,-82.74 645.94,-80.11 636.27,-75.76 635.67,-82.74"/>
</a>
</g>
</g>
<!-- Node9&#45;&gt;Node5 -->
<g id="edge11_Node000009_Node000005" class="edge">
<title>Node9&#45;&gt;Node5</title>
<g id="a_edge11_Node000009_Node000005"><a xlink:title=" ">
<path fill="none" stroke="#63b8ff" d="M717.51,-56.01C725.86,-58.84 734.85,-62.1 743,-65.5 759.51,-72.39 762.32,-77.03 779,-83.5 784.07,-85.47 789.45,-87.33 794.85,-89.05"/>
<polygon fill="#63b8ff" stroke="#63b8ff" points="793.92,-92.42 804.51,-91.99 795.96,-85.73 793.92,-92.42"/>
</a>
</g>
</g>
<!-- Node9&#45;&gt;Node6 -->
<g id="edge12_Node000009_Node000006" class="edge">
<title>Node9&#45;&gt;Node6</title>
<g id="a_edge12_Node000009_Node000006"><a xlink:title=" ">
<path fill="none" stroke="#63b8ff" d="M723.07,-50.67C739.49,-52.58 759.44,-54.89 778.3,-57.07"/>
<polygon fill="#63b8ff" stroke="#63b8ff" points="778,-60.56 788.33,-58.23 778.8,-53.6 778,-60.56"/>
</a>
</g>
</g>
<!-- Node10&#45;&gt;Node5 -->
<g id="edge14_Node000010_Node000005" class="edge">
<title>Node10&#45;&gt;Node5</title>
<g id="a_edge14_Node000010_Node000005"><a xlink:title=" ">
<path fill="none" stroke="#63b8ff" d="M726.24,-88.04C739.18,-89.54 754.02,-91.26 768.68,-92.95"/>
<polygon fill="#63b8ff" stroke="#63b8ff" points="768.43,-96.45 778.77,-94.12 769.24,-89.5 768.43,-96.45"/>
</a>
</g>
</g>
<!-- Node10&#45;&gt;Node6 -->
<g id="edge15_Node000010_Node000006" class="edge">
<title>Node10&#45;&gt;Node6</title>
<g id="a_edge15_Node000010_Node000006"><a xlink:title=" ">
<path fill="none" stroke="#63b8ff" d="M726.24,-78.71C741.96,-76.78 760.49,-74.52 778.08,-72.37"/>
<polygon fill="#63b8ff" stroke="#63b8ff" points="778.8,-75.81 788.3,-71.12 777.95,-68.86 778.8,-75.81"/>
</a>
</g>
</g>
</g>
</svg>
