<?xml version="1.0" encoding="UTF-8" standalone="no"?>
<!DOCTYPE svg PUBLIC "-//W3C//DTD SVG 1.1//EN"
 "http://www.w3.org/Graphics/SVG/1.1/DTD/svg11.dtd">
<!-- Generated by graphviz version 2.43.0 (0)
 -->
<!-- Title: Tmc9660Handler::Adc::GetChannelTypeString Pages: 1 -->
<svg width="1287pt" height="113pt"
 viewBox="0.00 0.00 1287.00 112.50" xmlns="http://www.w3.org/2000/svg" xmlns:xlink="http://www.w3.org/1999/xlink">
<g id="graph0" class="graph" transform="scale(1 1) rotate(0) translate(4 108.5)">
<title>Tmc9660Handler::Adc::GetChannelTypeString</title>
<!-- Node1 -->
<g id="Node000001" class="node">
<title>Node1</title>
<g id="a_Node000001"><a xlink:title="Get a human&#45;readable string for a channel type (for logging).">
<polygon fill="#999999" stroke="#666666" points="131,-51 0,-51 0,-21 131,-21 131,-51"/>
<text text-anchor="start" x="8" y="-39" font-family="Helvetica,sans-Serif" font-size="10.00">Tmc9660Handler::Adc</text>
<text text-anchor="middle" x="65.5" y="-28" font-family="Helvetica,sans-Serif" font-size="10.00">::GetChannelTypeString</text>
</a>
</g>
</g>
<!-- Node2 -->
<g id="Node000002" class="node">
<title>Node2</title>
<g id="a_Node000002"><a xlink:href="classTmc9660Handler.html#a393382194d0602e7aa02da6a8fd7a20a" target="_top" xlink:title="Get a reference to the Temperature wrapper.">
<polygon fill="white" stroke="#666666" points="334,-45.5 167,-45.5 167,-26.5 334,-26.5 334,-45.5"/>
<text text-anchor="middle" x="250.5" y="-33.5" font-family="Helvetica,sans-Serif" font-size="10.00">Tmc9660Handler::temperature</text>
</a>
</g>
</g>
<!-- Node1&#45;&gt;Node2 -->
<g id="edge1_Node000001_Node000002" class="edge">
<title>Node1&#45;&gt;Node2</title>
<g id="a_edge1_Node000001_Node000002"><a xlink:title=" ">
<path fill="none" stroke="#63b8ff" d="M131.02,-36C139.38,-36 148.06,-36 156.77,-36"/>
<polygon fill="#63b8ff" stroke="#63b8ff" points="156.97,-39.5 166.97,-36 156.97,-32.5 156.97,-39.5"/>
</a>
</g>
</g>
<!-- Node2&#45;&gt;Node2 -->
<g id="edge14_Node000002_Node000002" class="edge">
<title>Node2&#45;&gt;Node2</title>
<g id="a_edge14_Node000002_Node000002"><a xlink:title=" ">
<path fill="none" stroke="#63b8ff" d="M222.14,-45.58C208.34,-54.23 217.8,-63.5 250.5,-63.5 272.98,-63.5 284.48,-59.12 284.98,-53.57"/>
<polygon fill="#63b8ff" stroke="#63b8ff" points="287.72,-51.39 278.86,-45.58 282.16,-55.65 287.72,-51.39"/>
</a>
</g>
</g>
<!-- Node3 -->
<g id="Node000003" class="node">
<title>Node3</title>
<g id="a_Node000003"><a xlink:href="classTmc9660Handler.html#a5a279ae9d4b5a8e0d71cb24577ad88ea" target="_top" xlink:title="Ensure driver is initialized (lazy init entrypoint).">
<polygon fill="white" stroke="#666666" points="557,-45.5 370,-45.5 370,-26.5 557,-26.5 557,-45.5"/>
<text text-anchor="middle" x="463.5" y="-33.5" font-family="Helvetica,sans-Serif" font-size="10.00">Tmc9660Handler::EnsureInitialized</text>
</a>
</g>
</g>
<!-- Node2&#45;&gt;Node3 -->
<g id="edge2_Node000002_Node000003" class="edge">
<title>Node2&#45;&gt;Node3</title>
<g id="a_edge2_Node000002_Node000003"><a xlink:title=" ">
<path fill="none" stroke="#63b8ff" d="M334.29,-29.39C342.67,-29.29 351.25,-29.24 359.81,-29.25"/>
<polygon fill="#63b8ff" stroke="#63b8ff" points="359.81,-32.75 369.83,-29.29 359.84,-25.75 359.81,-32.75"/>
</a>
</g>
</g>
<!-- Node3&#45;&gt;Node2 -->
<g id="edge13_Node000003_Node000002" class="edge">
<title>Node3&#45;&gt;Node2</title>
<g id="a_edge13_Node000003_Node000002"><a xlink:title=" ">
<path fill="none" stroke="#63b8ff" d="M369.83,-42.71C361.42,-42.76 352.9,-42.76 344.48,-42.71"/>
<polygon fill="#63b8ff" stroke="#63b8ff" points="344.32,-39.21 334.29,-42.61 344.25,-46.21 344.32,-39.21"/>
</a>
</g>
</g>
<!-- Node4 -->
<g id="Node000004" class="node">
<title>Node4</title>
<g id="a_Node000004"><a xlink:href="classTmc9660Handler.html#a7c1d8073576d678b09dac24c9eb12845" target="_top" xlink:title="Ensure initialized while handler_mutex_ is already held.">
<polygon fill="white" stroke="#666666" points="780,-51 593,-51 593,-21 780,-21 780,-51"/>
<text text-anchor="start" x="601" y="-39" font-family="Helvetica,sans-Serif" font-size="10.00">Tmc9660Handler::EnsureInitialized</text>
<text text-anchor="middle" x="686.5" y="-28" font-family="Helvetica,sans-Serif" font-size="10.00">Locked</text>
</a>
</g>
</g>
<!-- Node3&#45;&gt;Node4 -->
<g id="edge3_Node000003_Node000004" class="edge">
<title>Node3&#45;&gt;Node4</title>
<g id="a_edge3_Node000003_Node000004"><a xlink:title=" ">
<path fill="none" stroke="#63b8ff" d="M557.26,-36C565.75,-36 574.39,-36 582.96,-36"/>
<polygon fill="#63b8ff" stroke="#63b8ff" points="582.97,-39.5 592.97,-36 582.97,-32.5 582.97,-39.5"/>
</a>
</g>
</g>
<!-- Node5 -->
<g id="Node000005" class="node">
<title>Node5</title>
<g id="a_Node000005"><a xlink:href="classTmc9660Handler.html#adc564847f8ae26c47412aaee0758991c" target="_top" xlink:title="Initialize the TMC9660 device.">
<polygon fill="white" stroke="#666666" points="964,-67.5 816,-67.5 816,-48.5 964,-48.5 964,-67.5"/>
<text text-anchor="middle" x="890" y="-55.5" font-family="Helvetica,sans-Serif" font-size="10.00">Tmc9660Handler::Initialize</text>
</a>
</g>
</g>
<!-- Node4&#45;&gt;Node5 -->
<g id="edge4_Node000004_Node000005" class="edge">
<title>Node4&#45;&gt;Node5</title>
<g id="a_edge4_Node000004_Node000005"><a xlink:title=" ">
<path fill="none" stroke="#63b8ff" d="M780.29,-46.13C788.73,-47.05 797.25,-47.98 805.61,-48.9"/>
<polygon fill="#63b8ff" stroke="#63b8ff" points="805.38,-52.39 815.7,-50 806.14,-45.43 805.38,-52.39"/>
</a>
</g>
</g>
<!-- Node11 -->
<g id="Node000011" class="node">
<title>Node11</title>
<g id="a_Node000011"><a xlink:href="classTmc9660Handler.html#a13db97d201a287d8aa60384e04070b9f" target="_top" xlink:title="Check if the TMC9660 driver has been initialized and is ready.">
<polygon fill="white" stroke="#666666" points="962,-30 818,-30 818,0 962,0 962,-30"/>
<text text-anchor="start" x="826" y="-18" font-family="Helvetica,sans-Serif" font-size="10.00">Tmc9660Handler::IsDriver</text>
<text text-anchor="middle" x="890" y="-7" font-family="Helvetica,sans-Serif" font-size="10.00">Ready</text>
</a>
</g>
</g>
<!-- Node4&#45;&gt;Node11 -->
<g id="edge12_Node000004_Node000011" class="edge">
<title>Node4&#45;&gt;Node11</title>
<g id="a_edge12_Node000004_Node000011"><a xlink:title=" ">
<path fill="none" stroke="#63b8ff" d="M780.29,-26.33C789.44,-25.38 798.69,-24.41 807.71,-23.47"/>
<polygon fill="#63b8ff" stroke="#63b8ff" points="808.21,-26.94 817.8,-22.42 807.49,-19.98 808.21,-26.94"/>
</a>
</g>
</g>
<!-- Node6 -->
<g id="Node000006" class="node">
<title>Node6</title>
<g id="a_Node000006"><a xlink:href="classLogger.html#adce17848a5844e053bfd314863dc1404" target="_top" xlink:title="Log error message.">
<polygon fill="white" stroke="#666666" points="1096.5,-67.5 1017.5,-67.5 1017.5,-48.5 1096.5,-48.5 1096.5,-67.5"/>
<text text-anchor="middle" x="1057" y="-55.5" font-family="Helvetica,sans-Serif" font-size="10.00">Logger::Error</text>
</a>
</g>
</g>
<!-- Node5&#45;&gt;Node6 -->
<g id="edge5_Node000005_Node000006" class="edge">
<title>Node5&#45;&gt;Node6</title>
<g id="a_edge5_Node000005_Node000006"><a xlink:title=" ">
<path fill="none" stroke="#63b8ff" d="M964.33,-58C978.73,-58 993.5,-58 1006.87,-58"/>
<polygon fill="#63b8ff" stroke="#63b8ff" points="1007.26,-61.5 1017.26,-58 1007.26,-54.5 1007.26,-61.5"/>
</a>
</g>
</g>
<!-- Node9 -->
<g id="Node000009" class="node">
<title>Node9</title>
<g id="a_Node000009"><a xlink:href="classLogger.html#a5789d11f8f1356e2192c0023a089cbc4" target="_top" xlink:title="Get singleton instance.">
<polygon fill="white" stroke="#666666" points="1114,-30.5 1000,-30.5 1000,-11.5 1114,-11.5 1114,-30.5"/>
<text text-anchor="middle" x="1057" y="-18.5" font-family="Helvetica,sans-Serif" font-size="10.00">Logger::GetInstance</text>
</a>
</g>
</g>
<!-- Node5&#45;&gt;Node9 -->
<g id="edge8_Node000005_Node000009" class="edge">
<title>Node5&#45;&gt;Node9</title>
<g id="a_edge8_Node000005_Node000009"><a xlink:title=" ">
<path fill="none" stroke="#63b8ff" d="M933.49,-48.47C954.87,-43.68 980.97,-37.82 1003.58,-32.75"/>
<polygon fill="#63b8ff" stroke="#63b8ff" points="1004.37,-36.16 1013.37,-30.56 1002.84,-29.33 1004.37,-36.16"/>
</a>
</g>
</g>
<!-- Node10 -->
<g id="Node000010" class="node">
<title>Node10</title>
<g id="a_Node000010"><a xlink:href="classLogger.html#a4681229c521795685fc14f6b55c82300" target="_top" xlink:title="Log info message.">
<polygon fill="white" stroke="#666666" points="1094,-104.5 1020,-104.5 1020,-85.5 1094,-85.5 1094,-104.5"/>
<text text-anchor="middle" x="1057" y="-92.5" font-family="Helvetica,sans-Serif" font-size="10.00">Logger::Info</text>
</a>
</g>
</g>
<!-- Node5&#45;&gt;Node10 -->
<g id="edge9_Node000005_Node000010" class="edge">
<title>Node5&#45;&gt;Node10</title>
<g id="a_edge9_Node000005_Node000010"><a xlink:title=" ">
<path fill="none" stroke="#63b8ff" d="M933.49,-67.53C956.89,-72.77 985.94,-79.29 1009.89,-84.66"/>
<polygon fill="#63b8ff" stroke="#63b8ff" points="1009.28,-88.11 1019.8,-86.88 1010.81,-81.28 1009.28,-88.11"/>
</a>
</g>
</g>
<!-- Node7 -->
<g id="Node000007" class="node">
<title>Node7</title>
<g id="a_Node000007"><a xlink:href="classLogger.html#af9e84e0ff6bd538e4f9ed8dcebc3e2f0" target="_top" xlink:title="Check if log level is enabled for tag.">
<polygon fill="white" stroke="#666666" points="1279,-104.5 1150,-104.5 1150,-85.5 1279,-85.5 1279,-104.5"/>
<text text-anchor="middle" x="1214.5" y="-92.5" font-family="Helvetica,sans-Serif" font-size="10.00">Logger::IsLevelEnabled</text>
</a>
</g>
</g>
<!-- Node6&#45;&gt;Node7 -->
<g id="edge6_Node000006_Node000007" class="edge">
<title>Node6&#45;&gt;Node7</title>
<g id="a_edge6_Node000006_Node000007"><a xlink:title=" ">
<path fill="none" stroke="#63b8ff" d="M1096.84,-67.24C1117.03,-72.05 1141.94,-77.97 1163.55,-83.11"/>
<polygon fill="#63b8ff" stroke="#63b8ff" points="1163,-86.58 1173.53,-85.49 1164.62,-79.77 1163,-86.58"/>
</a>
</g>
</g>
<!-- Node8 -->
<g id="Node000008" class="node">
<title>Node8</title>
<g id="a_Node000008"><a xlink:href="classLogger.html#a6adb205db597526fb91ad20067400394" target="_top" xlink:title="Internal logging method.">
<polygon fill="white" stroke="#666666" points="1269.5,-67.5 1159.5,-67.5 1159.5,-48.5 1269.5,-48.5 1269.5,-67.5"/>
<text text-anchor="middle" x="1214.5" y="-55.5" font-family="Helvetica,sans-Serif" font-size="10.00">Logger::LogInternal</text>
</a>
</g>
</g>
<!-- Node6&#45;&gt;Node8 -->
<g id="edge7_Node000006_Node000008" class="edge">
<title>Node6&#45;&gt;Node8</title>
<g id="a_edge7_Node000006_Node000008"><a xlink:title=" ">
<path fill="none" stroke="#63b8ff" d="M1096.84,-58C1112.63,-58 1131.31,-58 1149.03,-58"/>
<polygon fill="#63b8ff" stroke="#63b8ff" points="1149.33,-61.5 1159.33,-58 1149.33,-54.5 1149.33,-61.5"/>
</a>
</g>
</g>
<!-- Node10&#45;&gt;Node7 -->
<g id="edge10_Node000010_Node000007" class="edge">
<title>Node10&#45;&gt;Node7</title>
<g id="a_edge10_Node000010_Node000007"><a xlink:title=" ">
<path fill="none" stroke="#63b8ff" d="M1094.07,-95C1107.68,-95 1123.72,-95 1139.55,-95"/>
<polygon fill="#63b8ff" stroke="#63b8ff" points="1139.89,-98.5 1149.89,-95 1139.89,-91.5 1139.89,-98.5"/>
</a>
</g>
</g>
<!-- Node10&#45;&gt;Node8 -->
<g id="edge11_Node000010_Node000008" class="edge">
<title>Node10&#45;&gt;Node8</title>
<g id="a_edge11_Node000010_Node000008"><a xlink:title=" ">
<path fill="none" stroke="#63b8ff" d="M1094.07,-86.42C1114.78,-81.49 1141.09,-75.23 1163.74,-69.84"/>
<polygon fill="#63b8ff" stroke="#63b8ff" points="1164.61,-73.23 1173.53,-67.51 1162.99,-66.42 1164.61,-73.23"/>
</a>
</g>
</g>
</g>
</svg>
