<?xml version="1.0" encoding="UTF-8" standalone="no"?>
<!DOCTYPE svg PUBLIC "-//W3C//DTD SVG 1.1//EN"
 "http://www.w3.org/Graphics/SVG/1.1/DTD/svg11.dtd">
<!-- Generated by graphviz version 2.43.0 (0)
 -->
<!-- Title: Tmc9660Handler::Adc::ReadTemperatureChannel Pages: 1 -->
<svg width="1112pt" height="150pt"
 viewBox="0.00 0.00 1112.00 149.50" xmlns="http://www.w3.org/2000/svg" xmlns:xlink="http://www.w3.org/1999/xlink">
<g id="graph0" class="graph" transform="scale(1 1) rotate(0) translate(4 145.5)">
<title>Tmc9660Handler::Adc::ReadTemperatureChannel</title>
<!-- Node1 -->
<g id="Node000001" class="node">
<title>Node1</title>
<g id="a_Node000001"><a xlink:title="Read a temperature channel.">
<polygon fill="#999999" stroke="#666666" points="149,-54 0,-54 0,-24 149,-24 149,-54"/>
<text text-anchor="start" x="8" y="-42" font-family="Helvetica,sans-Serif" font-size="10.00">Tmc9660Handler::Adc</text>
<text text-anchor="middle" x="74.5" y="-31" font-family="Helvetica,sans-Serif" font-size="10.00">::ReadTemperatureChannel</text>
</a>
</g>
</g>
<!-- Node2 -->
<g id="Node000002" class="node">
<title>Node2</title>
<g id="a_Node000002"><a xlink:href="classTmc9660Handler.html#a393382194d0602e7aa02da6a8fd7a20a" target="_top" xlink:title="Get a reference to the Temperature wrapper.">
<polygon fill="white" stroke="#666666" points="352,-48.5 185,-48.5 185,-29.5 352,-29.5 352,-48.5"/>
<text text-anchor="middle" x="268.5" y="-36.5" font-family="Helvetica,sans-Serif" font-size="10.00">Tmc9660Handler::temperature</text>
</a>
</g>
</g>
<!-- Node1&#45;&gt;Node2 -->
<g id="edge1_Node000001_Node000002" class="edge">
<title>Node1&#45;&gt;Node2</title>
<g id="a_edge1_Node000001_Node000002"><a xlink:title=" ">
<path fill="none" stroke="#63b8ff" d="M149.18,-39C157.54,-39 166.14,-39 174.71,-39"/>
<polygon fill="#63b8ff" stroke="#63b8ff" points="174.73,-42.5 184.73,-39 174.73,-35.5 174.73,-42.5"/>
</a>
</g>
</g>
<!-- Node2&#45;&gt;Node2 -->
<g id="edge14_Node000002_Node000002" class="edge">
<title>Node2&#45;&gt;Node2</title>
<g id="a_edge14_Node000002_Node000002"><a xlink:title=" ">
<path fill="none" stroke="#63b8ff" d="M238.6,-48.58C224.05,-57.23 234.02,-66.5 268.5,-66.5 292.21,-66.5 304.32,-62.12 304.86,-56.57"/>
<polygon fill="#63b8ff" stroke="#63b8ff" points="307.41,-54.16 298.4,-48.58 301.96,-58.56 307.41,-54.16"/>
</a>
</g>
</g>
<!-- Node3 -->
<g id="Node000003" class="node">
<title>Node3</title>
<g id="a_Node000003"><a xlink:href="classTmc9660Handler.html#a5a279ae9d4b5a8e0d71cb24577ad88ea" target="_top" xlink:title="Ensure driver is initialized (lazy init entrypoint).">
<polygon fill="white" stroke="#666666" points="575,-29.5 388,-29.5 388,-10.5 575,-10.5 575,-29.5"/>
<text text-anchor="middle" x="481.5" y="-17.5" font-family="Helvetica,sans-Serif" font-size="10.00">Tmc9660Handler::EnsureInitialized</text>
</a>
</g>
</g>
<!-- Node2&#45;&gt;Node3 -->
<g id="edge2_Node000002_Node000003" class="edge">
<title>Node2&#45;&gt;Node3</title>
<g id="a_edge2_Node000002_Node000003"><a xlink:title=" ">
<path fill="none" stroke="#63b8ff" d="M352.29,-31.55C360.67,-30.79 369.25,-30.02 377.81,-29.25"/>
<polygon fill="#63b8ff" stroke="#63b8ff" points="378.18,-32.73 387.83,-28.34 377.56,-25.76 378.18,-32.73"/>
</a>
</g>
</g>
<!-- Node4 -->
<g id="Node000004" class="node">
<title>Node4</title>
<g id="a_Node000004"><a xlink:href="classTmc9660Handler.html#adc564847f8ae26c47412aaee0758991c" target="_top" xlink:title="Initialize the TMC9660 device.">
<polygon fill="white" stroke="#666666" points="759,-67.5 611,-67.5 611,-48.5 759,-48.5 759,-67.5"/>
<text text-anchor="middle" x="685" y="-55.5" font-family="Helvetica,sans-Serif" font-size="10.00">Tmc9660Handler::Initialize</text>
</a>
</g>
</g>
<!-- Node3&#45;&gt;Node4 -->
<g id="edge3_Node000003_Node000004" class="edge">
<title>Node3&#45;&gt;Node4</title>
<g id="a_edge3_Node000003_Node000004"><a xlink:title=" ">
<path fill="none" stroke="#63b8ff" d="M533.09,-29.54C560.51,-34.71 594.6,-41.14 623.43,-46.58"/>
<polygon fill="#63b8ff" stroke="#63b8ff" points="622.92,-50.04 633.39,-48.46 624.21,-43.16 622.92,-50.04"/>
</a>
</g>
</g>
<!-- Node10 -->
<g id="Node000010" class="node">
<title>Node10</title>
<g id="a_Node000010"><a xlink:href="classTmc9660Handler.html#a13db97d201a287d8aa60384e04070b9f" target="_top" xlink:title="Check if the TMC9660 driver has been initialized and is ready.">
<polygon fill="white" stroke="#666666" points="939,-30 795,-30 795,0 939,0 939,-30"/>
<text text-anchor="start" x="803" y="-18" font-family="Helvetica,sans-Serif" font-size="10.00">Tmc9660Handler::IsDriver</text>
<text text-anchor="middle" x="867" y="-7" font-family="Helvetica,sans-Serif" font-size="10.00">Ready</text>
</a>
</g>
</g>
<!-- Node3&#45;&gt;Node10 -->
<g id="edge13_Node000003_Node000010" class="edge">
<title>Node3&#45;&gt;Node10</title>
<g id="a_edge13_Node000003_Node000010"><a xlink:title=" ">
<path fill="none" stroke="#63b8ff" d="M575.33,-18.79C639.28,-17.96 723.42,-16.86 784.72,-16.06"/>
<polygon fill="#63b8ff" stroke="#63b8ff" points="784.78,-19.56 794.73,-15.93 784.69,-12.56 784.78,-19.56"/>
</a>
</g>
</g>
<!-- Node4&#45;&gt;Node2 -->
<g id="edge12_Node000004_Node000002" class="edge">
<title>Node4&#45;&gt;Node2</title>
<g id="a_edge12_Node000004_Node000002"><a xlink:title=" ">
<path fill="none" stroke="#63b8ff" d="M610.97,-54.65C541.87,-51.49 437.85,-46.72 362.78,-43.28"/>
<polygon fill="#63b8ff" stroke="#63b8ff" points="362.53,-39.76 352.38,-42.8 362.21,-46.75 362.53,-39.76"/>
</a>
</g>
</g>
<!-- Node5 -->
<g id="Node000005" class="node">
<title>Node5</title>
<g id="a_Node000005"><a xlink:href="classLogger.html#adce17848a5844e053bfd314863dc1404" target="_top" xlink:title="Log error message.">
<polygon fill="white" stroke="#666666" points="906.5,-141.5 827.5,-141.5 827.5,-122.5 906.5,-122.5 906.5,-141.5"/>
<text text-anchor="middle" x="867" y="-129.5" font-family="Helvetica,sans-Serif" font-size="10.00">Logger::Error</text>
</a>
</g>
</g>
<!-- Node4&#45;&gt;Node5 -->
<g id="edge4_Node000004_Node000005" class="edge">
<title>Node4&#45;&gt;Node5</title>
<g id="a_edge4_Node000004_Node000005"><a xlink:title=" ">
<path fill="none" stroke="#63b8ff" d="M701.73,-67.53C722.46,-79.74 760.37,-100.91 795,-114 802.11,-116.69 809.78,-119.1 817.35,-121.23"/>
<polygon fill="#63b8ff" stroke="#63b8ff" points="816.62,-124.66 827.19,-123.85 818.42,-117.89 816.62,-124.66"/>
</a>
</g>
</g>
<!-- Node8 -->
<g id="Node000008" class="node">
<title>Node8</title>
<g id="a_Node000008"><a xlink:href="classLogger.html#a5789d11f8f1356e2192c0023a089cbc4" target="_top" xlink:title="Get singleton instance.">
<polygon fill="white" stroke="#666666" points="924,-67.5 810,-67.5 810,-48.5 924,-48.5 924,-67.5"/>
<text text-anchor="middle" x="867" y="-55.5" font-family="Helvetica,sans-Serif" font-size="10.00">Logger::GetInstance</text>
</a>
</g>
</g>
<!-- Node4&#45;&gt;Node8 -->
<g id="edge7_Node000004_Node000008" class="edge">
<title>Node4&#45;&gt;Node8</title>
<g id="a_edge7_Node000004_Node000008"><a xlink:title=" ">
<path fill="none" stroke="#63b8ff" d="M759.21,-58C772.58,-58 786.45,-58 799.6,-58"/>
<polygon fill="#63b8ff" stroke="#63b8ff" points="799.97,-61.5 809.97,-58 799.97,-54.5 799.97,-61.5"/>
</a>
</g>
</g>
<!-- Node9 -->
<g id="Node000009" class="node">
<title>Node9</title>
<g id="a_Node000009"><a xlink:href="classLogger.html#a4681229c521795685fc14f6b55c82300" target="_top" xlink:title="Log info message.">
<polygon fill="white" stroke="#666666" points="904,-104.5 830,-104.5 830,-85.5 904,-85.5 904,-104.5"/>
<text text-anchor="middle" x="867" y="-92.5" font-family="Helvetica,sans-Serif" font-size="10.00">Logger::Info</text>
</a>
</g>
</g>
<!-- Node4&#45;&gt;Node9 -->
<g id="edge8_Node000004_Node000009" class="edge">
<title>Node4&#45;&gt;Node9</title>
<g id="a_edge8_Node000004_Node000009"><a xlink:title=" ">
<path fill="none" stroke="#63b8ff" d="M732.35,-67.53C759.23,-73.05 792.96,-79.99 819.81,-85.51"/>
<polygon fill="#63b8ff" stroke="#63b8ff" points="819.24,-88.96 829.74,-87.55 820.65,-82.1 819.24,-88.96"/>
</a>
</g>
</g>
<!-- Node4&#45;&gt;Node10 -->
<g id="edge11_Node000004_Node000010" class="edge">
<title>Node4&#45;&gt;Node10</title>
<g id="a_edge11_Node000004_Node000010"><a xlink:title=" ">
<path fill="none" stroke="#63b8ff" d="M725.95,-48.46C745.8,-43.72 770.4,-37.84 793.43,-32.34"/>
<polygon fill="#63b8ff" stroke="#63b8ff" points="794.27,-35.73 803.18,-30.01 792.64,-28.93 794.27,-35.73"/>
</a>
</g>
</g>
<!-- Node6 -->
<g id="Node000006" class="node">
<title>Node6</title>
<g id="a_Node000006"><a xlink:href="classLogger.html#af9e84e0ff6bd538e4f9ed8dcebc3e2f0" target="_top" xlink:title="Check if log level is enabled for tag.">
<polygon fill="white" stroke="#666666" points="1104,-141.5 975,-141.5 975,-122.5 1104,-122.5 1104,-141.5"/>
<text text-anchor="middle" x="1039.5" y="-129.5" font-family="Helvetica,sans-Serif" font-size="10.00">Logger::IsLevelEnabled</text>
</a>
</g>
</g>
<!-- Node5&#45;&gt;Node6 -->
<g id="edge5_Node000005_Node000006" class="edge">
<title>Node5&#45;&gt;Node6</title>
<g id="a_edge5_Node000005_Node000006"><a xlink:title=" ">
<path fill="none" stroke="#63b8ff" d="M906.69,-132C923.92,-132 944.81,-132 964.83,-132"/>
<polygon fill="#63b8ff" stroke="#63b8ff" points="964.89,-135.5 974.89,-132 964.89,-128.5 964.89,-135.5"/>
</a>
</g>
</g>
<!-- Node7 -->
<g id="Node000007" class="node">
<title>Node7</title>
<g id="a_Node000007"><a xlink:href="classLogger.html#a6adb205db597526fb91ad20067400394" target="_top" xlink:title="Internal logging method.">
<polygon fill="white" stroke="#666666" points="1094.5,-104.5 984.5,-104.5 984.5,-85.5 1094.5,-85.5 1094.5,-104.5"/>
<text text-anchor="middle" x="1039.5" y="-92.5" font-family="Helvetica,sans-Serif" font-size="10.00">Logger::LogInternal</text>
</a>
</g>
</g>
<!-- Node5&#45;&gt;Node7 -->
<g id="edge6_Node000005_Node000007" class="edge">
<title>Node5&#45;&gt;Node7</title>
<g id="a_edge6_Node000005_Node000007"><a xlink:title=" ">
<path fill="none" stroke="#63b8ff" d="M906.69,-123.6C929.76,-118.6 959.4,-112.17 984.72,-106.67"/>
<polygon fill="#63b8ff" stroke="#63b8ff" points="985.52,-110.08 994.55,-104.54 984.04,-103.24 985.52,-110.08"/>
</a>
</g>
</g>
<!-- Node9&#45;&gt;Node6 -->
<g id="edge9_Node000009_Node000006" class="edge">
<title>Node9&#45;&gt;Node6</title>
<g id="a_edge9_Node000009_Node000006"><a xlink:title=" ">
<path fill="none" stroke="#63b8ff" d="M904.16,-102.85C927.56,-107.93 958.45,-114.63 984.71,-120.33"/>
<polygon fill="#63b8ff" stroke="#63b8ff" points="984.01,-123.76 994.52,-122.46 985.49,-116.92 984.01,-123.76"/>
</a>
</g>
</g>
<!-- Node9&#45;&gt;Node7 -->
<g id="edge10_Node000009_Node000007" class="edge">
<title>Node9&#45;&gt;Node7</title>
<g id="a_edge10_Node000009_Node000007"><a xlink:title=" ">
<path fill="none" stroke="#63b8ff" d="M904.16,-95C924.42,-95 950.31,-95 973.93,-95"/>
<polygon fill="#63b8ff" stroke="#63b8ff" points="974.25,-98.5 984.25,-95 974.25,-91.5 974.25,-98.5"/>
</a>
</g>
</g>
</g>
</svg>
