<?xml version="1.0" encoding="UTF-8" standalone="no"?>
<!DOCTYPE svg PUBLIC "-//W3C//DTD SVG 1.1//EN"
 "http://www.w3.org/Graphics/SVG/1.1/DTD/svg11.dtd">
<!-- Generated by graphviz version 2.43.0 (0)
 -->
<!-- Title: Fdo2Handler Pages: 1 -->
<svg width="562pt" height="160pt"
 viewBox="0.00 0.00 561.50 160.00" xmlns="http://www.w3.org/2000/svg" xmlns:xlink="http://www.w3.org/1999/xlink">
<g id="graph0" class="graph" transform="scale(1 1) rotate(0) translate(4 156)">
<title>Fdo2Handler</title>
<!-- Node1 -->
<g id="Node000001" class="node">
<title>Node1</title>
<g id="a_Node000001"><a xlink:title="HAL handler wrapping one FDO2&#45;G2 oxygen probe on a BaseUart.">
<polygon fill="#999999" stroke="#666666" points="338.5,-19 259.5,-19 259.5,0 338.5,0 338.5,-19"/>
<text text-anchor="middle" x="299" y="-7" font-family="Helvetica,sans-Serif" font-size="10.00">Fdo2Handler</text>
</a>
</g>
</g>
<!-- Node2 -->
<g id="Node000002" class="node">
<title>Node2</title>
<g id="a_Node000002"><a xlink:href="structFdo2HandlerConfig.html" target="_top" xlink:title="Construction&#45;time configuration for one FDO2&#45;G2 instance.">
<polygon fill="white" stroke="#666666" points="110,-85 0,-85 0,-66 110,-66 110,-85"/>
<text text-anchor="middle" x="55" y="-73" font-family="Helvetica,sans-Serif" font-size="10.00">Fdo2HandlerConfig</text>
</a>
</g>
</g>
<!-- Node2&#45;&gt;Node1 -->
<g id="edge1_Node000001_Node000002" class="edge">
<title>Node2&#45;&gt;Node1</title>
<g id="a_edge1_Node000001_Node000002"><a xlink:title=" ">
<path fill="none" stroke="#9a32cd" stroke-dasharray="5,2" d="M95.31,-63.32C122.8,-55.74 160.05,-45.59 193,-37 216.68,-30.82 243.41,-24.14 264.1,-19.03"/>
<polygon fill="#9a32cd" stroke="#9a32cd" points="94.36,-59.95 85.65,-65.98 96.22,-66.69 94.36,-59.95"/>
</a>
</g>
<text text-anchor="middle" x="212" y="-40" font-family="Helvetica,sans-Serif" font-size="10.00" fill="grey"> config_</text>
</g>
<!-- Node3 -->
<g id="Node000003" class="node">
<title>Node3</title>
<g id="a_Node000003"><a xlink:href="classHalUartFdo2Comm.html" target="_top" xlink:title="CRTP adapter that turns a BaseUart&amp; into a transport the templated fdo2::Driver&lt;UartT&gt; can drive.">
<polygon fill="white" stroke="#666666" points="238,-85 128,-85 128,-66 238,-66 238,-85"/>
<text text-anchor="middle" x="183" y="-73" font-family="Helvetica,sans-Serif" font-size="10.00">HalUartFdo2Comm</text>
</a>
</g>
</g>
<!-- Node3&#45;&gt;Node1 -->
<g id="edge2_Node000001_Node000003" class="edge">
<title>Node3&#45;&gt;Node1</title>
<g id="a_edge2_Node000001_Node000003"><a xlink:title=" ">
<path fill="none" stroke="#9a32cd" stroke-dasharray="5,2" d="M207.42,-61.03C230.27,-48.42 263.72,-29.97 283.23,-19.2"/>
<polygon fill="#9a32cd" stroke="#9a32cd" points="205.71,-57.97 198.64,-65.87 209.09,-64.1 205.71,-57.97"/>
</a>
</g>
<text text-anchor="middle" x="268" y="-40" font-family="Helvetica,sans-Serif" font-size="10.00" fill="grey"> comm_</text>
</g>
<!-- Node4 -->
<g id="Node000004" class="node">
<title>Node4</title>
<g id="a_Node000004"><a xlink:title=" ">
<polygon fill="white" stroke="#666666" points="249.5,-152 116.5,-152 116.5,-122 249.5,-122 249.5,-152"/>
<text text-anchor="start" x="124.5" y="-140" font-family="Helvetica,sans-Serif" font-size="10.00">fdo2::UartInterface</text>
<text text-anchor="middle" x="183" y="-129" font-family="Helvetica,sans-Serif" font-size="10.00">&lt; HalUartFdo2Comm &gt;</text>
</a>
</g>
</g>
<!-- Node4&#45;&gt;Node3 -->
<g id="edge3_Node000003_Node000004" class="edge">
<title>Node4&#45;&gt;Node3</title>
<g id="a_edge3_Node000003_Node000004"><a xlink:title=" ">
<path fill="none" stroke="#63b8ff" d="M183,-111.79C183,-102.36 183,-92.15 183,-85.16"/>
<polygon fill="#63b8ff" stroke="#63b8ff" points="179.5,-111.9 183,-121.9 186.5,-111.9 179.5,-111.9"/>
</a>
</g>
</g>
<!-- Node5 -->
<g id="Node000005" class="node">
<title>Node5</title>
<g id="a_Node000005"><a xlink:title=" ">
<polygon fill="white" stroke="#666666" points="420,-85 256,-85 256,-66 420,-66 420,-85"/>
<text text-anchor="middle" x="338" y="-73" font-family="Helvetica,sans-Serif" font-size="10.00">std::unique_ptr&lt; DriverType &gt;</text>
</a>
</g>
</g>
<!-- Node5&#45;&gt;Node1 -->
<g id="edge4_Node000001_Node000005" class="edge">
<title>Node5&#45;&gt;Node1</title>
<g id="a_edge4_Node000001_Node000005"><a xlink:title=" ">
<path fill="none" stroke="#9a32cd" stroke-dasharray="5,2" d="M327.37,-57.05C319.94,-44.86 310.34,-29.11 304.43,-19.41"/>
<polygon fill="#9a32cd" stroke="#9a32cd" points="324.55,-59.15 332.74,-65.87 330.53,-55.51 324.55,-59.15"/>
</a>
</g>
<text text-anchor="middle" x="339.5" y="-40" font-family="Helvetica,sans-Serif" font-size="10.00" fill="grey"> driver_</text>
</g>
<!-- Node6 -->
<g id="Node000006" class="node">
<title>Node6</title>
<g id="a_Node000006"><a xlink:title=" ">
<polygon fill="white" stroke="#666666" points="553.5,-85 438.5,-85 438.5,-66 553.5,-66 553.5,-85"/>
<text text-anchor="middle" x="496" y="-73" font-family="Helvetica,sans-Serif" font-size="10.00">std::atomic&lt; bool &gt;</text>
</a>
</g>
</g>
<!-- Node6&#45;&gt;Node1 -->
<g id="edge5_Node000001_Node000006" class="edge">
<title>Node6&#45;&gt;Node1</title>
<g id="a_edge5_Node000001_Node000006"><a xlink:title=" ">
<path fill="none" stroke="#9a32cd" stroke-dasharray="5,2" d="M459.56,-62.66C420.68,-50.03 360.02,-30.32 325.46,-19.1"/>
<polygon fill="#9a32cd" stroke="#9a32cd" points="458.84,-66.11 469.43,-65.87 461,-59.45 458.84,-66.11"/>
</a>
</g>
<text text-anchor="middle" x="437.5" y="-40" font-family="Helvetica,sans-Serif" font-size="10.00" fill="grey"> initialized_</text>
</g>
</g>
</svg>
