<?xml version="1.0" encoding="UTF-8" standalone="no"?>
<!DOCTYPE svg PUBLIC "-//W3C//DTD SVG 1.1//EN"
 "http://www.w3.org/Graphics/SVG/1.1/DTD/svg11.dtd">
<!-- Generated by graphviz version 2.43.0 (0)
 -->
<!-- Title: Tmc9660Handler::DumpDiagnostics Pages: 1 -->
<svg width="1125pt" height="141pt"
 viewBox="0.00 0.00 1125.00 141.14" xmlns="http://www.w3.org/2000/svg" xmlns:xlink="http://www.w3.org/1999/xlink">
<g id="graph0" class="graph" transform="scale(1 1) rotate(0) translate(4 137.14)">
<title>Tmc9660Handler::DumpDiagnostics</title>
<!-- Node1 -->
<g id="Node000001" class="node">
<title>Node1</title>
<g id="a_Node000001"><a xlink:title="Dump comprehensive diagnostics to the system log.">
<polygon fill="#999999" stroke="#666666" points="192,-71 0,-71 0,-52 192,-52 192,-71"/>
<text text-anchor="middle" x="96" y="-59" font-family="Helvetica,sans-Serif" font-size="10.00">Tmc9660Handler::DumpDiagnostics</text>
</a>
</g>
</g>
<!-- Node2 -->
<g id="Node000002" class="node">
<title>Node2</title>
<g id="a_Node000002"><a xlink:href="classTmc9660Handler.html#a5a279ae9d4b5a8e0d71cb24577ad88ea" target="_top" xlink:title="Ensure driver is initialized (lazy init entrypoint).">
<polygon fill="white" stroke="#666666" points="618,-73 431,-73 431,-54 618,-54 618,-73"/>
<text text-anchor="middle" x="524.5" y="-61" font-family="Helvetica,sans-Serif" font-size="10.00">Tmc9660Handler::EnsureInitialized</text>
</a>
</g>
</g>
<!-- Node1&#45;&gt;Node2 -->
<g id="edge1_Node000001_Node000002" class="edge">
<title>Node1&#45;&gt;Node2</title>
<g id="a_edge1_Node000001_Node000002"><a xlink:title=" ">
<path fill="none" stroke="#63b8ff" d="M192.29,-61.71C250.78,-61.87 327.23,-62.12 395,-62.5 403.34,-62.55 411.98,-62.6 420.66,-62.66"/>
<polygon fill="#63b8ff" stroke="#63b8ff" points="420.83,-66.16 430.85,-62.73 420.88,-59.16 420.83,-66.16"/>
</a>
</g>
</g>
<!-- Node7 -->
<g id="Node000007" class="node">
<title>Node7</title>
<g id="a_Node000007"><a xlink:href="classLogger.html#a5789d11f8f1356e2192c0023a089cbc4" target="_top" xlink:title="Get singleton instance.">
<polygon fill="white" stroke="#666666" points="952,-19 838,-19 838,0 952,0 952,-19"/>
<text text-anchor="middle" x="895" y="-7" font-family="Helvetica,sans-Serif" font-size="10.00">Logger::GetInstance</text>
</a>
</g>
</g>
<!-- Node1&#45;&gt;Node7 -->
<g id="edge11_Node000001_Node000007" class="edge">
<title>Node1&#45;&gt;Node7</title>
<g id="a_edge11_Node000001_Node000007"><a xlink:title=" ">
<path fill="none" stroke="#63b8ff" d="M192.35,-55.28C356,-44.6 686.37,-23.05 827.56,-13.83"/>
<polygon fill="#63b8ff" stroke="#63b8ff" points="828.05,-17.31 837.8,-13.17 827.59,-10.33 828.05,-17.31"/>
</a>
</g>
</g>
<!-- Node8 -->
<g id="Node000008" class="node">
<title>Node8</title>
<g id="a_Node000008"><a xlink:href="classLogger.html#a4681229c521795685fc14f6b55c82300" target="_top" xlink:title="Log info message.">
<polygon fill="white" stroke="#666666" points="932,-93 858,-93 858,-74 932,-74 932,-93"/>
<text text-anchor="middle" x="895" y="-81" font-family="Helvetica,sans-Serif" font-size="10.00">Logger::Info</text>
</a>
</g>
</g>
<!-- Node1&#45;&gt;Node8 -->
<g id="edge12_Node000001_Node000008" class="edge">
<title>Node1&#45;&gt;Node8</title>
<g id="a_edge12_Node000001_Node000008"><a xlink:title=" ">
<path fill="none" stroke="#63b8ff" d="M113.25,-71.01C137.34,-84.51 184.38,-108.57 228,-117.5 301.65,-132.58 614.8,-144.19 802,-113.5 822.37,-110.16 844.38,-103.11 861.77,-96.69"/>
<polygon fill="#63b8ff" stroke="#63b8ff" points="863.32,-99.84 871.42,-93.01 860.83,-93.3 863.32,-99.84"/>
</a>
</g>
</g>
<!-- Node10 -->
<g id="Node000010" class="node">
<title>Node10</title>
<g id="a_Node000010"><a xlink:href="classTmc9660Handler.html#a393382194d0602e7aa02da6a8fd7a20a" target="_top" xlink:title="Get a reference to the Temperature wrapper.">
<polygon fill="white" stroke="#666666" points="395,-90 228,-90 228,-71 395,-71 395,-90"/>
<text text-anchor="middle" x="311.5" y="-78" font-family="Helvetica,sans-Serif" font-size="10.00">Tmc9660Handler::temperature</text>
</a>
</g>
</g>
<!-- Node1&#45;&gt;Node10 -->
<g id="edge13_Node000001_Node000010" class="edge">
<title>Node1&#45;&gt;Node10</title>
<g id="a_edge13_Node000001_Node000010"><a xlink:title=" ">
<path fill="none" stroke="#63b8ff" d="M192.2,-69.97C200.66,-70.72 209.21,-71.49 217.65,-72.24"/>
<polygon fill="#63b8ff" stroke="#63b8ff" points="217.6,-75.75 227.87,-73.15 218.22,-68.77 217.6,-75.75"/>
</a>
</g>
</g>
<!-- Node3 -->
<g id="Node000003" class="node">
<title>Node3</title>
<g id="a_Node000003"><a xlink:href="classTmc9660Handler.html#adc564847f8ae26c47412aaee0758991c" target="_top" xlink:title="Initialize the TMC9660 device.">
<polygon fill="white" stroke="#666666" points="802,-56 654,-56 654,-37 802,-37 802,-56"/>
<text text-anchor="middle" x="728" y="-44" font-family="Helvetica,sans-Serif" font-size="10.00">Tmc9660Handler::Initialize</text>
</a>
</g>
</g>
<!-- Node2&#45;&gt;Node3 -->
<g id="edge2_Node000002_Node000003" class="edge">
<title>Node2&#45;&gt;Node3</title>
<g id="a_edge2_Node000002_Node000003"><a xlink:title=" ">
<path fill="none" stroke="#63b8ff" d="M618.29,-55.67C626.73,-54.96 635.25,-54.24 643.61,-53.54"/>
<polygon fill="#63b8ff" stroke="#63b8ff" points="644.03,-57.01 653.7,-52.68 643.44,-50.04 644.03,-57.01"/>
</a>
</g>
</g>
<!-- Node9 -->
<g id="Node000009" class="node">
<title>Node9</title>
<g id="a_Node000009"><a xlink:href="classTmc9660Handler.html#a13db97d201a287d8aa60384e04070b9f" target="_top" xlink:title="Check if the TMC9660 driver has been initialized and is ready.">
<polygon fill="white" stroke="#666666" points="800,-104.5 656,-104.5 656,-74.5 800,-74.5 800,-104.5"/>
<text text-anchor="start" x="664" y="-92.5" font-family="Helvetica,sans-Serif" font-size="10.00">Tmc9660Handler::IsDriver</text>
<text text-anchor="middle" x="728" y="-81.5" font-family="Helvetica,sans-Serif" font-size="10.00">Ready</text>
</a>
</g>
</g>
<!-- Node2&#45;&gt;Node9 -->
<g id="edge10_Node000002_Node000009" class="edge">
<title>Node2&#45;&gt;Node9</title>
<g id="a_edge10_Node000002_Node000009"><a xlink:title=" ">
<path fill="none" stroke="#63b8ff" d="M599.39,-73.03C614.5,-74.98 630.48,-77.05 645.83,-79.03"/>
<polygon fill="#63b8ff" stroke="#63b8ff" points="645.44,-82.51 655.81,-80.31 646.34,-75.56 645.44,-82.51"/>
</a>
</g>
</g>
<!-- Node4 -->
<g id="Node000004" class="node">
<title>Node4</title>
<g id="a_Node000004"><a xlink:href="classLogger.html#adce17848a5844e053bfd314863dc1404" target="_top" xlink:title="Log error message.">
<polygon fill="white" stroke="#666666" points="934.5,-56 855.5,-56 855.5,-37 934.5,-37 934.5,-56"/>
<text text-anchor="middle" x="895" y="-44" font-family="Helvetica,sans-Serif" font-size="10.00">Logger::Error</text>
</a>
</g>
</g>
<!-- Node3&#45;&gt;Node4 -->
<g id="edge3_Node000003_Node000004" class="edge">
<title>Node3&#45;&gt;Node4</title>
<g id="a_edge3_Node000003_Node000004"><a xlink:title=" ">
<path fill="none" stroke="#63b8ff" d="M802.33,-46.5C816.73,-46.5 831.5,-46.5 844.87,-46.5"/>
<polygon fill="#63b8ff" stroke="#63b8ff" points="845.26,-50 855.26,-46.5 845.26,-43 845.26,-50"/>
</a>
</g>
</g>
<!-- Node3&#45;&gt;Node7 -->
<g id="edge6_Node000003_Node000007" class="edge">
<title>Node3&#45;&gt;Node7</title>
<g id="a_edge6_Node000003_Node000007"><a xlink:title=" ">
<path fill="none" stroke="#63b8ff" d="M771.49,-36.97C792.87,-32.18 818.97,-26.32 841.58,-21.25"/>
<polygon fill="#63b8ff" stroke="#63b8ff" points="842.37,-24.66 851.37,-19.06 840.84,-17.83 842.37,-24.66"/>
</a>
</g>
</g>
<!-- Node3&#45;&gt;Node8 -->
<g id="edge7_Node000003_Node000008" class="edge">
<title>Node3&#45;&gt;Node8</title>
<g id="a_edge7_Node000003_Node000008"><a xlink:title=" ">
<path fill="none" stroke="#63b8ff" d="M771.49,-56.03C794.89,-61.27 823.94,-67.79 847.89,-73.16"/>
<polygon fill="#63b8ff" stroke="#63b8ff" points="847.28,-76.61 857.8,-75.38 848.81,-69.78 847.28,-76.61"/>
</a>
</g>
</g>
<!-- Node5 -->
<g id="Node000005" class="node">
<title>Node5</title>
<g id="a_Node000005"><a xlink:href="classLogger.html#af9e84e0ff6bd538e4f9ed8dcebc3e2f0" target="_top" xlink:title="Check if log level is enabled for tag.">
<polygon fill="white" stroke="#666666" points="1117,-93 988,-93 988,-74 1117,-74 1117,-93"/>
<text text-anchor="middle" x="1052.5" y="-81" font-family="Helvetica,sans-Serif" font-size="10.00">Logger::IsLevelEnabled</text>
</a>
</g>
</g>
<!-- Node4&#45;&gt;Node5 -->
<g id="edge4_Node000004_Node000005" class="edge">
<title>Node4&#45;&gt;Node5</title>
<g id="a_edge4_Node000004_Node000005"><a xlink:title=" ">
<path fill="none" stroke="#63b8ff" d="M934.84,-55.74C955.03,-60.55 979.94,-66.47 1001.55,-71.61"/>
<polygon fill="#63b8ff" stroke="#63b8ff" points="1001,-75.08 1011.53,-73.99 1002.62,-68.27 1001,-75.08"/>
</a>
</g>
</g>
<!-- Node6 -->
<g id="Node000006" class="node">
<title>Node6</title>
<g id="a_Node000006"><a xlink:href="classLogger.html#a6adb205db597526fb91ad20067400394" target="_top" xlink:title="Internal logging method.">
<polygon fill="white" stroke="#666666" points="1107.5,-56 997.5,-56 997.5,-37 1107.5,-37 1107.5,-56"/>
<text text-anchor="middle" x="1052.5" y="-44" font-family="Helvetica,sans-Serif" font-size="10.00">Logger::LogInternal</text>
</a>
</g>
</g>
<!-- Node4&#45;&gt;Node6 -->
<g id="edge5_Node000004_Node000006" class="edge">
<title>Node4&#45;&gt;Node6</title>
<g id="a_edge5_Node000004_Node000006"><a xlink:title=" ">
<path fill="none" stroke="#63b8ff" d="M934.84,-46.5C950.63,-46.5 969.31,-46.5 987.03,-46.5"/>
<polygon fill="#63b8ff" stroke="#63b8ff" points="987.33,-50 997.33,-46.5 987.33,-43 987.33,-50"/>
</a>
</g>
</g>
<!-- Node8&#45;&gt;Node5 -->
<g id="edge8_Node000008_Node000005" class="edge">
<title>Node8&#45;&gt;Node5</title>
<g id="a_edge8_Node000008_Node000005"><a xlink:title=" ">
<path fill="none" stroke="#63b8ff" d="M932.07,-83.5C945.68,-83.5 961.72,-83.5 977.55,-83.5"/>
<polygon fill="#63b8ff" stroke="#63b8ff" points="977.89,-87 987.89,-83.5 977.89,-80 977.89,-87"/>
</a>
</g>
</g>
<!-- Node8&#45;&gt;Node6 -->
<g id="edge9_Node000008_Node000006" class="edge">
<title>Node8&#45;&gt;Node6</title>
<g id="a_edge9_Node000008_Node000006"><a xlink:title=" ">
<path fill="none" stroke="#63b8ff" d="M932.07,-74.92C952.78,-69.99 979.09,-63.73 1001.74,-58.34"/>
<polygon fill="#63b8ff" stroke="#63b8ff" points="1002.61,-61.73 1011.53,-56.01 1000.99,-54.92 1002.61,-61.73"/>
</a>
</g>
</g>
<!-- Node10&#45;&gt;Node2 -->
<g id="edge14_Node000010_Node000002" class="edge">
<title>Node10&#45;&gt;Node2</title>
<g id="a_edge14_Node000010_Node000002"><a xlink:title=" ">
<path fill="none" stroke="#63b8ff" d="M395.29,-73.83C403.67,-73.15 412.25,-72.46 420.81,-71.77"/>
<polygon fill="#63b8ff" stroke="#63b8ff" points="421.14,-75.26 430.83,-70.97 420.58,-68.28 421.14,-75.26"/>
</a>
</g>
</g>
<!-- Node10&#45;&gt;Node10 -->
<g id="edge15_Node000010_Node000010" class="edge">
<title>Node10&#45;&gt;Node10</title>
<g id="a_edge15_Node000010_Node000010"><a xlink:title=" ">
<path fill="none" stroke="#63b8ff" d="M278.82,-90.08C262.93,-98.73 273.82,-108 311.5,-108 338.58,-108 351.83,-103.21 351.23,-97.31"/>
<polygon fill="#63b8ff" stroke="#63b8ff" points="353.67,-94.79 344.18,-90.08 348.66,-99.68 353.67,-94.79"/>
</a>
</g>
</g>
</g>
</svg>
