<?xml version="1.0" encoding="UTF-8" standalone="no"?>
<!DOCTYPE svg PUBLIC "-//W3C//DTD SVG 1.1//EN"
 "http://www.w3.org/Graphics/SVG/1.1/DTD/svg11.dtd">
<!-- Generated by graphviz version 2.43.0 (0)
 -->
<!-- Title: Tmc9660Handler::Temperature Pages: 1 -->
<svg width="1618pt" height="265pt"
 viewBox="0.00 0.00 1618.00 264.50" xmlns="http://www.w3.org/2000/svg" xmlns:xlink="http://www.w3.org/1999/xlink">
<g id="graph0" class="graph" transform="scale(1 1) rotate(0) translate(4 260.5)">
<title>Tmc9660Handler::Temperature</title>
<!-- Node1 -->
<g id="Node000001" class="node">
<title>Node1</title>
<g id="a_Node000001"><a xlink:title="BaseTemperature adapter for the TMC9660 internal chip temperature sensor.">
<polygon fill="#999999" stroke="#666666" points="420,-219.5 253,-219.5 253,-200.5 420,-200.5 420,-219.5"/>
<text text-anchor="middle" x="336.5" y="-207.5" font-family="Helvetica,sans-Serif" font-size="10.00">Tmc9660Handler::Temperature</text>
</a>
</g>
</g>
<!-- Node21 -->
<g id="Node000021" class="node">
<title>Node21</title>
<g id="a_Node000021"><a xlink:title=" ">
<polygon fill="white" stroke="#666666" points="634.5,-201 488.5,-201 488.5,-171 634.5,-171 634.5,-201"/>
<text text-anchor="start" x="496.5" y="-189" font-family="Helvetica,sans-Serif" font-size="10.00">std::unique_ptr&lt; Tmc9660</text>
<text text-anchor="middle" x="561.5" y="-178" font-family="Helvetica,sans-Serif" font-size="10.00">Handler::Temperature &gt;</text>
</a>
</g>
</g>
<!-- Node1&#45;&gt;Node21 -->
<g id="edge24_Node000021_Node000001" class="edge">
<title>Node1&#45;&gt;Node21</title>
<g id="a_edge24_Node000021_Node000001"><a xlink:title=" ">
<path fill="none" stroke="#9a32cd" stroke-dasharray="5,2" d="M430.25,-200.02C449.6,-197.94 469.71,-195.77 488.19,-193.78"/>
<polygon fill="#9a32cd" stroke="#9a32cd" points="429.79,-196.55 420.22,-201.1 430.54,-203.51 429.79,-196.55"/>
</a>
</g>
<text text-anchor="middle" x="446.5" y="-201" font-family="Helvetica,sans-Serif" font-size="10.00" fill="grey"> ptr</text>
</g>
<!-- Node2 -->
<g id="Node000002" class="node">
<title>Node2</title>
<g id="a_Node000002"><a xlink:title=" ">
<polygon fill="white" stroke="#666666" points="132,-231.5 30,-231.5 30,-212.5 132,-212.5 132,-231.5"/>
<text text-anchor="middle" x="81" y="-219.5" font-family="Helvetica,sans-Serif" font-size="10.00">BaseTemperature</text>
</a>
</g>
</g>
<!-- Node2&#45;&gt;Node1 -->
<g id="edge1_Node000001_Node000002" class="edge">
<title>Node2&#45;&gt;Node1</title>
<g id="a_edge1_Node000001_Node000002"><a xlink:title=" ">
<path fill="none" stroke="#63b8ff" d="M142.49,-219.14C175.51,-217.57 216.88,-215.62 252.84,-213.91"/>
<polygon fill="#63b8ff" stroke="#63b8ff" points="141.91,-215.66 132.08,-219.63 142.24,-222.65 141.91,-215.66"/>
</a>
</g>
</g>
<!-- Node3 -->
<g id="Node000003" class="node">
<title>Node3</title>
<g id="a_Node000003"><a xlink:href="classTmc9660Handler.html" target="_top" xlink:title="Unified, non&#45;templated handler for a single TMC9660 motor controller device.">
<polygon fill="white" stroke="#666666" points="904.5,-123.5 804.5,-123.5 804.5,-104.5 904.5,-104.5 904.5,-123.5"/>
<text text-anchor="middle" x="854.5" y="-111.5" font-family="Helvetica,sans-Serif" font-size="10.00">Tmc9660Handler</text>
</a>
</g>
</g>
<!-- Node3&#45;&gt;Node1 -->
<g id="edge2_Node000001_Node000003" class="edge">
<title>Node3&#45;&gt;Node1</title>
<g id="a_edge2_Node000001_Node000003"><a xlink:title=" ">
<path fill="none" stroke="#9a32cd" stroke-dasharray="5,2" d="M839.19,-131.51C825.41,-147.17 803.16,-169.52 779,-182 651.91,-247.65 476.05,-232.59 389.66,-219.52"/>
<polygon fill="#9a32cd" stroke="#9a32cd" points="842.11,-133.48 845.93,-123.6 836.78,-128.94 842.11,-133.48"/>
</a>
</g>
<text text-anchor="middle" x="561.5" y="-233" font-family="Helvetica,sans-Serif" font-size="10.00" fill="grey"> parent_</text>
</g>
<!-- Node15 -->
<g id="Node000015" class="node">
<title>Node15</title>
<g id="a_Node000015"><a xlink:href="classTmc9660Handler_1_1Gpio.html" target="_top" xlink:title="BaseGpio adapter for a single TMC9660 internal GPIO channel.">
<polygon fill="white" stroke="#666666" points="1131,-57.5 1003,-57.5 1003,-38.5 1131,-38.5 1131,-57.5"/>
<text text-anchor="middle" x="1067" y="-45.5" font-family="Helvetica,sans-Serif" font-size="10.00">Tmc9660Handler::Gpio</text>
</a>
</g>
</g>
<!-- Node3&#45;&gt;Node15 -->
<g id="edge17_Node000015_Node000003" class="edge">
<title>Node3&#45;&gt;Node15</title>
<g id="a_edge17_Node000015_Node000003"><a xlink:title=" ">
<path fill="none" stroke="#9a32cd" stroke-dasharray="5,2" d="M874.83,-98.12C889.17,-87.24 909.67,-73.47 930,-66 952.92,-57.58 979.28,-53.02 1002.67,-50.58"/>
<polygon fill="#9a32cd" stroke="#9a32cd" points="872.48,-95.52 866.76,-104.44 876.79,-101.03 872.48,-95.52"/>
</a>
</g>
<text text-anchor="middle" x="957.5" y="-69" font-family="Helvetica,sans-Serif" font-size="10.00" fill="grey"> parent_</text>
</g>
<!-- Node18 -->
<g id="Node000018" class="node">
<title>Node18</title>
<g id="a_Node000018"><a xlink:href="classTmc9660Handler_1_1Adc.html" target="_top" xlink:title="BaseAdc adapter for all TMC9660 ADC channels.">
<polygon fill="white" stroke="#666666" points="1129,-199.5 1005,-199.5 1005,-180.5 1129,-180.5 1129,-199.5"/>
<text text-anchor="middle" x="1067" y="-187.5" font-family="Helvetica,sans-Serif" font-size="10.00">Tmc9660Handler::Adc</text>
</a>
</g>
</g>
<!-- Node3&#45;&gt;Node18 -->
<g id="edge21_Node000018_Node000003" class="edge">
<title>Node3&#45;&gt;Node18</title>
<g id="a_edge21_Node000018_Node000003"><a xlink:title=" ">
<path fill="none" stroke="#9a32cd" stroke-dasharray="5,2" d="M884.19,-128.14C897.88,-134.62 914.6,-142.14 930,-148 963.6,-160.8 1002.94,-172.61 1030.64,-180.43"/>
<polygon fill="#9a32cd" stroke="#9a32cd" points="885.35,-124.81 874.82,-123.65 882.32,-131.12 885.35,-124.81"/>
</a>
</g>
<text text-anchor="middle" x="957.5" y="-168" font-family="Helvetica,sans-Serif" font-size="10.00" fill="grey"> parent_</text>
</g>
<!-- Node4 -->
<g id="Node000004" class="node">
<title>Node4</title>
<g id="a_Node000004"><a xlink:title=" ">
<polygon fill="white" stroke="#666666" points="650,-153 473,-153 473,-123 650,-123 650,-153"/>
<text text-anchor="start" x="481" y="-141" font-family="Helvetica,sans-Serif" font-size="10.00">std::unique_ptr&lt; HalSpiTmc9660</text>
<text text-anchor="middle" x="561.5" y="-130" font-family="Helvetica,sans-Serif" font-size="10.00">Comm &gt;</text>
</a>
</g>
</g>
<!-- Node4&#45;&gt;Node3 -->
<g id="edge3_Node000003_Node000004" class="edge">
<title>Node4&#45;&gt;Node3</title>
<g id="a_edge3_Node000003_Node000004"><a xlink:title=" ">
<path fill="none" stroke="#9a32cd" stroke-dasharray="5,2" d="M660.41,-129.92C708.85,-125.93 765.19,-121.28 804.46,-118.04"/>
<polygon fill="#9a32cd" stroke="#9a32cd" points="659.88,-126.46 650.2,-130.77 660.46,-133.43 659.88,-126.46"/>
</a>
</g>
<text text-anchor="middle" x="723.5" y="-131" font-family="Helvetica,sans-Serif" font-size="10.00" fill="grey"> spi_comm_</text>
</g>
<!-- Node5 -->
<g id="Node000005" class="node">
<title>Node5</title>
<g id="a_Node000005"><a xlink:href="classHalSpiTmc9660Comm.html" target="_top" xlink:title="Concrete SPI communication adapter for TMC9660 using BaseSpi and BaseGpio.">
<polygon fill="white" stroke="#666666" points="399,-128.5 274,-128.5 274,-109.5 399,-109.5 399,-128.5"/>
<text text-anchor="middle" x="336.5" y="-116.5" font-family="Helvetica,sans-Serif" font-size="10.00">HalSpiTmc9660Comm</text>
</a>
</g>
</g>
<!-- Node5&#45;&gt;Node4 -->
<g id="edge4_Node000004_Node000005" class="edge">
<title>Node5&#45;&gt;Node4</title>
<g id="a_edge4_Node000004_Node000005"><a xlink:title=" ">
<path fill="none" stroke="#9a32cd" stroke-dasharray="5,2" d="M409.13,-125.1C429.42,-126.83 451.75,-128.73 472.88,-130.53"/>
<polygon fill="#9a32cd" stroke="#9a32cd" points="409.29,-121.6 399.03,-124.24 408.69,-128.58 409.29,-121.6"/>
</a>
</g>
<text text-anchor="middle" x="446.5" y="-131" font-family="Helvetica,sans-Serif" font-size="10.00" fill="grey"> ptr</text>
</g>
<!-- Node6 -->
<g id="Node000006" class="node">
<title>Node6</title>
<g id="a_Node000006"><a xlink:title=" ">
<polygon fill="white" stroke="#666666" points="159,-134 3,-134 3,-104 159,-104 159,-134"/>
<text text-anchor="start" x="11" y="-122" font-family="Helvetica,sans-Serif" font-size="10.00">tmc9660::SpiCommInterface</text>
<text text-anchor="middle" x="81" y="-111" font-family="Helvetica,sans-Serif" font-size="10.00">&lt; HalSpiTmc9660Comm &gt;</text>
</a>
</g>
</g>
<!-- Node6&#45;&gt;Node5 -->
<g id="edge5_Node000005_Node000006" class="edge">
<title>Node6&#45;&gt;Node5</title>
<g id="a_edge5_Node000005_Node000006"><a xlink:title=" ">
<path fill="none" stroke="#63b8ff" d="M169.13,-119C203.51,-119 242.21,-119 273.63,-119"/>
<polygon fill="#63b8ff" stroke="#63b8ff" points="169.09,-115.5 159.09,-119 169.09,-122.5 169.09,-115.5"/>
</a>
</g>
</g>
<!-- Node7 -->
<g id="Node000007" class="node">
<title>Node7</title>
<g id="a_Node000007"><a xlink:href="structTmc9660CtrlPins.html" target="_top" xlink:title="Shared helper holding the four TMC9660 host&#45;side control pin references.">
<polygon fill="white" stroke="#666666" points="130.5,-82.5 31.5,-82.5 31.5,-63.5 130.5,-63.5 130.5,-82.5"/>
<text text-anchor="middle" x="81" y="-70.5" font-family="Helvetica,sans-Serif" font-size="10.00">Tmc9660CtrlPins</text>
</a>
</g>
</g>
<!-- Node7&#45;&gt;Node5 -->
<g id="edge6_Node000005_Node000007" class="edge">
<title>Node7&#45;&gt;Node5</title>
<g id="a_edge6_Node000005_Node000007"><a xlink:title=" ">
<path fill="none" stroke="#9a32cd" stroke-dasharray="5,2" d="M140.59,-83.63C183.5,-91.42 241.23,-101.89 282.71,-109.42"/>
<polygon fill="#9a32cd" stroke="#9a32cd" points="141.04,-80.16 130.58,-81.81 139.79,-87.04 141.04,-80.16"/>
</a>
</g>
<text text-anchor="middle" x="207.5" y="-104" font-family="Helvetica,sans-Serif" font-size="10.00" fill="grey"> ctrl_pins_</text>
</g>
<!-- Node9 -->
<g id="Node000009" class="node">
<title>Node9</title>
<g id="a_Node000009"><a xlink:href="classHalUartTmc9660Comm.html" target="_top" xlink:title="Concrete UART communication adapter for TMC9660 using BaseUart and BaseGpio.">
<polygon fill="white" stroke="#666666" points="402,-32.5 271,-32.5 271,-13.5 402,-13.5 402,-32.5"/>
<text text-anchor="middle" x="336.5" y="-20.5" font-family="Helvetica,sans-Serif" font-size="10.00">HalUartTmc9660Comm</text>
</a>
</g>
</g>
<!-- Node7&#45;&gt;Node9 -->
<g id="edge10_Node000009_Node000007" class="edge">
<title>Node7&#45;&gt;Node9</title>
<g id="a_edge10_Node000009_Node000007"><a xlink:title=" ">
<path fill="none" stroke="#9a32cd" stroke-dasharray="5,2" d="M140.35,-61.49C184.77,-52.73 245.18,-40.81 286.97,-32.57"/>
<polygon fill="#9a32cd" stroke="#9a32cd" points="139.41,-58.11 130.28,-63.48 140.77,-64.98 139.41,-58.11"/>
</a>
</g>
<text text-anchor="middle" x="207.5" y="-56" font-family="Helvetica,sans-Serif" font-size="10.00" fill="grey"> ctrl_pins_</text>
</g>
<!-- Node8 -->
<g id="Node000008" class="node">
<title>Node8</title>
<g id="a_Node000008"><a xlink:title=" ">
<polygon fill="white" stroke="#666666" points="630.5,-30 492.5,-30 492.5,0 630.5,0 630.5,-30"/>
<text text-anchor="start" x="500.5" y="-18" font-family="Helvetica,sans-Serif" font-size="10.00">std::unique_ptr&lt; HalUart</text>
<text text-anchor="middle" x="561.5" y="-7" font-family="Helvetica,sans-Serif" font-size="10.00">Tmc9660Comm &gt;</text>
</a>
</g>
</g>
<!-- Node8&#45;&gt;Node3 -->
<g id="edge7_Node000003_Node000008" class="edge">
<title>Node8&#45;&gt;Node3</title>
<g id="a_edge7_Node000003_Node000008"><a xlink:title=" ">
<path fill="none" stroke="#9a32cd" stroke-dasharray="5,2" d="M640.81,-15.69C683.41,-18.69 736.03,-26.79 779,-47 807.96,-60.62 833.78,-89.27 846.01,-104.31"/>
<polygon fill="#9a32cd" stroke="#9a32cd" points="640.97,-12.19 630.77,-15.06 640.53,-19.18 640.97,-12.19"/>
</a>
</g>
<text text-anchor="middle" x="723.5" y="-50" font-family="Helvetica,sans-Serif" font-size="10.00" fill="grey"> uart_comm_</text>
</g>
<!-- Node9&#45;&gt;Node8 -->
<g id="edge8_Node000008_Node000009" class="edge">
<title>Node9&#45;&gt;Node8</title>
<g id="a_edge8_Node000008_Node000009"><a xlink:title=" ">
<path fill="none" stroke="#9a32cd" stroke-dasharray="5,2" d="M412.14,-20.32C438.03,-19.39 466.91,-18.36 492.26,-17.45"/>
<polygon fill="#9a32cd" stroke="#9a32cd" points="411.87,-16.83 402,-20.69 412.12,-23.83 411.87,-16.83"/>
</a>
</g>
<text text-anchor="middle" x="446.5" y="-23" font-family="Helvetica,sans-Serif" font-size="10.00" fill="grey"> ptr</text>
</g>
<!-- Node10 -->
<g id="Node000010" class="node">
<title>Node10</title>
<g id="a_Node000010"><a xlink:title=" ">
<polygon fill="white" stroke="#666666" points="162,-38 0,-38 0,-8 162,-8 162,-38"/>
<text text-anchor="start" x="8" y="-26" font-family="Helvetica,sans-Serif" font-size="10.00">tmc9660::UartCommInterface</text>
<text text-anchor="middle" x="81" y="-15" font-family="Helvetica,sans-Serif" font-size="10.00">&lt; HalUartTmc9660Comm &gt;</text>
</a>
</g>
</g>
<!-- Node10&#45;&gt;Node9 -->
<g id="edge9_Node000009_Node000010" class="edge">
<title>Node10&#45;&gt;Node9</title>
<g id="a_edge9_Node000009_Node000010"><a xlink:title=" ">
<path fill="none" stroke="#63b8ff" d="M172.6,-23C205,-23 240.83,-23 270.63,-23"/>
<polygon fill="#63b8ff" stroke="#63b8ff" points="172.21,-19.5 162.21,-23 172.21,-26.5 172.21,-19.5"/>
</a>
</g>
</g>
<!-- Node11 -->
<g id="Node000011" class="node">
<title>Node11</title>
<g id="a_Node000011"><a xlink:title=" ">
<polygon fill="white" stroke="#666666" points="640,-104.5 483,-104.5 483,-85.5 640,-85.5 640,-104.5"/>
<text text-anchor="middle" x="561.5" y="-92.5" font-family="Helvetica,sans-Serif" font-size="10.00">std::unique_ptr&lt; SpiDriver &gt;</text>
</a>
</g>
</g>
<!-- Node11&#45;&gt;Node3 -->
<g id="edge11_Node000003_Node000011" class="edge">
<title>Node11&#45;&gt;Node3</title>
<g id="a_edge11_Node000003_Node000011"><a xlink:title=" ">
<path fill="none" stroke="#9a32cd" stroke-dasharray="5,2" d="M650.2,-94.55C689.65,-95.08 736.75,-96.75 779,-101 787.36,-101.84 796.2,-103.07 804.75,-104.45"/>
<polygon fill="#9a32cd" stroke="#9a32cd" points="650.12,-91.05 640.08,-94.43 650.04,-98.04 650.12,-91.05"/>
</a>
</g>
<text text-anchor="middle" x="723.5" y="-104" font-family="Helvetica,sans-Serif" font-size="10.00" fill="grey"> spi_driver_</text>
</g>
<!-- Node12 -->
<g id="Node000012" class="node">
<title>Node12</title>
<g id="a_Node000012"><a xlink:title=" ">
<polygon fill="white" stroke="#666666" points="643,-67.5 480,-67.5 480,-48.5 643,-48.5 643,-67.5"/>
<text text-anchor="middle" x="561.5" y="-55.5" font-family="Helvetica,sans-Serif" font-size="10.00">std::unique_ptr&lt; UartDriver &gt;</text>
</a>
</g>
</g>
<!-- Node12&#45;&gt;Node3 -->
<g id="edge12_Node000003_Node000012" class="edge">
<title>Node12&#45;&gt;Node3</title>
<g id="a_edge12_Node000003_Node000012"><a xlink:title=" ">
<path fill="none" stroke="#9a32cd" stroke-dasharray="5,2" d="M653.15,-60.61C692.38,-63.43 738.5,-69.02 779,-80 799.72,-85.62 821.92,-96.44 836.64,-104.37"/>
<polygon fill="#9a32cd" stroke="#9a32cd" points="653.28,-57.11 643.07,-59.94 652.81,-64.1 653.28,-57.11"/>
</a>
</g>
<text text-anchor="middle" x="723.5" y="-83" font-family="Helvetica,sans-Serif" font-size="10.00" fill="grey"> uart_driver_</text>
</g>
<!-- Node13 -->
<g id="Node000013" class="node">
<title>Node13</title>
<g id="a_Node000013"><a xlink:title=" ">
<polygon fill="white" stroke="#666666" points="1610,-90.5 1474,-90.5 1474,-49.5 1610,-49.5 1610,-90.5"/>
<text text-anchor="start" x="1482" y="-78.5" font-family="Helvetica,sans-Serif" font-size="10.00">std::array&lt; std::unique</text>
<text text-anchor="start" x="1482" y="-67.5" font-family="Helvetica,sans-Serif" font-size="10.00">_ptr&lt; Tmc9660Handler::</text>
<text text-anchor="middle" x="1542" y="-56.5" font-family="Helvetica,sans-Serif" font-size="10.00">Gpio &gt;, 2 &gt;</text>
</a>
</g>
</g>
<!-- Node13&#45;&gt;Node3 -->
<g id="edge13_Node000003_Node000013" class="edge">
<title>Node13&#45;&gt;Node3</title>
<g id="a_edge13_Node000003_Node000013"><a xlink:title=" ">
<path fill="none" stroke="#9a32cd" stroke-dasharray="5,2" d="M1463.67,-76.44C1461.08,-76.63 1458.52,-76.82 1456,-77 1251.28,-91.73 1007.04,-105.65 904.56,-111.32"/>
<polygon fill="#9a32cd" stroke="#9a32cd" points="1464.03,-79.92 1473.73,-75.67 1463.5,-72.94 1464.03,-79.92"/>
</a>
</g>
<text text-anchor="middle" x="1187" y="-100" font-family="Helvetica,sans-Serif" font-size="10.00" fill="grey"> gpioWrappers_</text>
</g>
<!-- Node14 -->
<g id="Node000014" class="node">
<title>Node14</title>
<g id="a_Node000014"><a xlink:title=" ">
<polygon fill="white" stroke="#666666" points="1389,-63 1243,-63 1243,-33 1389,-33 1389,-63"/>
<text text-anchor="start" x="1251" y="-51" font-family="Helvetica,sans-Serif" font-size="10.00">std::unique_ptr&lt; Tmc9660</text>
<text text-anchor="middle" x="1316" y="-40" font-family="Helvetica,sans-Serif" font-size="10.00">Handler::Gpio &gt;</text>
</a>
</g>
</g>
<!-- Node14&#45;&gt;Node13 -->
<g id="edge14_Node000013_Node000014" class="edge">
<title>Node14&#45;&gt;Node13</title>
<g id="a_edge14_Node000013_Node000014"><a xlink:title=" ">
<path fill="none" stroke="#9a32cd" stroke-dasharray="5,2" d="M1399.15,-56.07C1423.76,-58.49 1450.45,-61.11 1473.97,-63.42"/>
<polygon fill="#9a32cd" stroke="#9a32cd" points="1399.4,-52.58 1389.11,-55.08 1398.72,-59.54 1399.4,-52.58"/>
</a>
</g>
<text text-anchor="middle" x="1431.5" y="-65" font-family="Helvetica,sans-Serif" font-size="10.00" fill="grey"> elements</text>
</g>
<!-- Node15&#45;&gt;Node14 -->
<g id="edge15_Node000014_Node000015" class="edge">
<title>Node15&#45;&gt;Node14</title>
<g id="a_edge15_Node000014_Node000015"><a xlink:title=" ">
<path fill="none" stroke="#9a32cd" stroke-dasharray="5,2" d="M1141.47,-48C1173.46,-48 1210.84,-48 1242.7,-48"/>
<polygon fill="#9a32cd" stroke="#9a32cd" points="1141.29,-44.5 1131.29,-48 1141.29,-51.5 1141.29,-44.5"/>
</a>
</g>
<text text-anchor="middle" x="1187" y="-51" font-family="Helvetica,sans-Serif" font-size="10.00" fill="grey"> ptr</text>
</g>
<!-- Node16 -->
<g id="Node000016" class="node">
<title>Node16</title>
<g id="a_Node000016"><a xlink:title=" ">
<polygon fill="white" stroke="#666666" points="886,-41.5 823,-41.5 823,-22.5 886,-22.5 886,-41.5"/>
<text text-anchor="middle" x="854.5" y="-29.5" font-family="Helvetica,sans-Serif" font-size="10.00">BaseGpio</text>
</a>
</g>
</g>
<!-- Node16&#45;&gt;Node15 -->
<g id="edge16_Node000015_Node000016" class="edge">
<title>Node16&#45;&gt;Node15</title>
<g id="a_edge16_Node000015_Node000016"><a xlink:title=" ">
<path fill="none" stroke="#63b8ff" d="M896.28,-35.1C926.5,-37.4 968.24,-40.57 1002.76,-43.19"/>
<polygon fill="#63b8ff" stroke="#63b8ff" points="896.35,-31.59 886.11,-34.33 895.81,-38.57 896.35,-31.59"/>
</a>
</g>
</g>
<!-- Node17 -->
<g id="Node000017" class="node">
<title>Node17</title>
<g id="a_Node000017"><a xlink:title=" ">
<polygon fill="white" stroke="#666666" points="1389,-170 1243,-170 1243,-140 1389,-140 1389,-170"/>
<text text-anchor="start" x="1251" y="-158" font-family="Helvetica,sans-Serif" font-size="10.00">std::unique_ptr&lt; Tmc9660</text>
<text text-anchor="middle" x="1316" y="-147" font-family="Helvetica,sans-Serif" font-size="10.00">Handler::Adc &gt;</text>
</a>
</g>
</g>
<!-- Node17&#45;&gt;Node3 -->
<g id="edge18_Node000003_Node000017" class="edge">
<title>Node17&#45;&gt;Node3</title>
<g id="a_edge18_Node000003_Node000017"><a xlink:title=" ">
<path fill="none" stroke="#9a32cd" stroke-dasharray="5,2" d="M1232.71,-147.66C1137.29,-139.14 983.08,-125.38 904.67,-118.39"/>
<polygon fill="#9a32cd" stroke="#9a32cd" points="1232.63,-151.16 1242.9,-148.57 1233.25,-144.19 1232.63,-151.16"/>
</a>
</g>
<text text-anchor="middle" x="1067" y="-141" font-family="Helvetica,sans-Serif" font-size="10.00" fill="grey"> adcWrapper_</text>
</g>
<!-- Node18&#45;&gt;Node17 -->
<g id="edge19_Node000017_Node000018" class="edge">
<title>Node18&#45;&gt;Node17</title>
<g id="a_edge19_Node000017_Node000018"><a xlink:title=" ">
<path fill="none" stroke="#9a32cd" stroke-dasharray="5,2" d="M1138.96,-179.95C1171.53,-175.33 1210.09,-169.87 1242.8,-165.23"/>
<polygon fill="#9a32cd" stroke="#9a32cd" points="1138.47,-176.48 1129.06,-181.35 1139.45,-183.41 1138.47,-176.48"/>
</a>
</g>
<text text-anchor="middle" x="1187" y="-180" font-family="Helvetica,sans-Serif" font-size="10.00" fill="grey"> ptr</text>
</g>
<!-- Node19 -->
<g id="Node000019" class="node">
<title>Node19</title>
<g id="a_Node000019"><a xlink:title=" ">
<polygon fill="white" stroke="#666666" points="884,-256.5 825,-256.5 825,-237.5 884,-237.5 884,-256.5"/>
<text text-anchor="middle" x="854.5" y="-244.5" font-family="Helvetica,sans-Serif" font-size="10.00">BaseAdc</text>
</a>
</g>
</g>
<!-- Node19&#45;&gt;Node18 -->
<g id="edge20_Node000018_Node000019" class="edge">
<title>Node19&#45;&gt;Node18</title>
<g id="a_edge20_Node000018_Node000019"><a xlink:title=" ">
<path fill="none" stroke="#63b8ff" d="M893.86,-237.14C919.66,-230.46 954.42,-221.36 985,-213 1000.79,-208.68 1018.27,-203.74 1032.94,-199.55"/>
<polygon fill="#63b8ff" stroke="#63b8ff" points="892.9,-233.78 884.09,-239.67 894.65,-240.55 892.9,-233.78"/>
</a>
</g>
</g>
<!-- Node20 -->
<g id="Node000020" class="node">
<title>Node20</title>
<g id="a_Node000020"><a xlink:title=" ">
<polygon fill="white" stroke="#666666" points="912,-219 797,-219 797,-189 912,-189 912,-219"/>
<text text-anchor="start" x="805" y="-207" font-family="Helvetica,sans-Serif" font-size="10.00">std::atomic&lt; hf_adc</text>
<text text-anchor="middle" x="854.5" y="-196" font-family="Helvetica,sans-Serif" font-size="10.00">_err_t &gt;</text>
</a>
</g>
</g>
<!-- Node20&#45;&gt;Node18 -->
<g id="edge22_Node000018_Node000020" class="edge">
<title>Node20&#45;&gt;Node18</title>
<g id="a_edge22_Node000018_Node000020"><a xlink:title=" ">
<path fill="none" stroke="#9a32cd" stroke-dasharray="5,2" d="M922.48,-199.55C948.87,-197.79 978.98,-195.79 1004.78,-194.07"/>
<polygon fill="#9a32cd" stroke="#9a32cd" points="921.93,-196.07 912.19,-200.23 922.4,-203.06 921.93,-196.07"/>
</a>
</g>
<text text-anchor="middle" x="957.5" y="-201" font-family="Helvetica,sans-Serif" font-size="10.00" fill="grey"> last_error_</text>
</g>
<!-- Node21&#45;&gt;Node3 -->
<g id="edge23_Node000003_Node000021" class="edge">
<title>Node21&#45;&gt;Node3</title>
<g id="a_edge23_Node000003_Node000021"><a xlink:title=" ">
<path fill="none" stroke="#9a32cd" stroke-dasharray="5,2" d="M644.83,-173.15C685.6,-165.9 735.33,-155.73 779,-143 797.26,-137.68 817.31,-129.75 832.01,-123.52"/>
<polygon fill="#9a32cd" stroke="#9a32cd" points="644.18,-169.71 634.94,-174.88 645.39,-176.6 644.18,-169.71"/>
</a>
</g>
<text text-anchor="middle" x="723.5" y="-170" font-family="Helvetica,sans-Serif" font-size="10.00" fill="grey"> temperatureWrapper_</text>
</g>
<!-- Node22 -->
<g id="Node000022" class="node">
<title>Node22</title>
<g id="a_Node000022"><a xlink:title=" ">
<polygon fill="white" stroke="#666666" points="142.5,-194 19.5,-194 19.5,-164 142.5,-164 142.5,-194"/>
<text text-anchor="start" x="27.5" y="-182" font-family="Helvetica,sans-Serif" font-size="10.00">std::atomic&lt; hf_temp</text>
<text text-anchor="middle" x="81" y="-171" font-family="Helvetica,sans-Serif" font-size="10.00">_err_t &gt;</text>
</a>
</g>
</g>
<!-- Node22&#45;&gt;Node1 -->
<g id="edge25_Node000001_Node000022" class="edge">
<title>Node22&#45;&gt;Node1</title>
<g id="a_edge25_Node000001_Node000022"><a xlink:title=" ">
<path fill="none" stroke="#9a32cd" stroke-dasharray="5,2" d="M153.05,-187.69C185.56,-191.66 224.18,-196.39 257.5,-200.46"/>
<polygon fill="#9a32cd" stroke="#9a32cd" points="153.07,-184.17 142.72,-186.43 152.22,-191.11 153.07,-184.17"/>
</a>
</g>
<text text-anchor="middle" x="207.5" y="-200" font-family="Helvetica,sans-Serif" font-size="10.00" fill="grey"> last_error_</text>
</g>
</g>
</svg>
