<?xml version="1.0" encoding="UTF-8" standalone="no"?>
<!DOCTYPE svg PUBLIC "-//W3C//DTD SVG 1.1//EN"
 "http://www.w3.org/Graphics/SVG/1.1/DTD/svg11.dtd">
<!-- Generated by graphviz version 2.43.0 (0)
 -->
<!-- Title: Tmc5160Handler::visitDriverInternal Pages: 1 -->
<svg width="594pt" height="560pt"
 viewBox="0.00 0.00 594.00 559.50" xmlns="http://www.w3.org/2000/svg" xmlns:xlink="http://www.w3.org/1999/xlink">
<g id="graph0" class="graph" transform="scale(1 1) rotate(0) translate(4 555.5)">
<title>Tmc5160Handler::visitDriverInternal</title>
<!-- Node1 -->
<g id="Node000001" class="node">
<title>Node1</title>
<g id="a_Node000001"><a xlink:title="Helper: execute a visitor on the active driver (no lock, internal use)">
<polygon fill="#999999" stroke="#666666" points="586,-288.5 429,-288.5 429,-258.5 586,-258.5 586,-288.5"/>
<text text-anchor="start" x="437" y="-276.5" font-family="Helvetica,sans-Serif" font-size="10.00">Tmc5160Handler::visitDriver</text>
<text text-anchor="middle" x="507.5" y="-265.5" font-family="Helvetica,sans-Serif" font-size="10.00">Internal</text>
</a>
</g>
</g>
<!-- Node2 -->
<g id="Node000002" class="node">
<title>Node2</title>
<g id="a_Node000002"><a xlink:href="classTmc5160Handler.html#a262b31fb5ccbfe229766a9a4b3ce546b" target="_top" xlink:title="Deinitialize — disable motor and release resources.">
<polygon fill="white" stroke="#666666" points="374.5,-546 213.5,-546 213.5,-527 374.5,-527 374.5,-546"/>
<text text-anchor="middle" x="294" y="-534" font-family="Helvetica,sans-Serif" font-size="10.00">Tmc5160Handler::Deinitialize</text>
</a>
</g>
</g>
<!-- Node1&#45;&gt;Node2 -->
<g id="edge1_Node000001_Node000002" class="edge">
<title>Node1&#45;&gt;Node2</title>
<g id="a_edge1_Node000001_Node000002"><a xlink:title=" ">
<path fill="none" stroke="#63b8ff" d="M502.64,-298.56C493.47,-348.92 465.49,-462.32 393,-518.5 387.53,-522.74 381.38,-526.09 374.89,-528.73"/>
<polygon fill="#63b8ff" stroke="#63b8ff" points="506.11,-299 504.36,-288.55 499.21,-297.81 506.11,-299"/>
</a>
</g>
</g>
<!-- Node4 -->
<g id="Node000004" class="node">
<title>Node4</title>
<g id="a_Node000004"><a xlink:href="classTmc5160Handler.html#a30cf2ab584290fadfcb7d7cc6603444b" target="_top" xlink:title="Disable the motor driver power stage.">
<polygon fill="white" stroke="#666666" points="379.5,-509 208.5,-509 208.5,-490 379.5,-490 379.5,-509"/>
<text text-anchor="middle" x="294" y="-497" font-family="Helvetica,sans-Serif" font-size="10.00">Tmc5160Handler::DisableMotor</text>
</a>
</g>
</g>
<!-- Node1&#45;&gt;Node4 -->
<g id="edge3_Node000001_Node000004" class="edge">
<title>Node1&#45;&gt;Node4</title>
<g id="a_edge3_Node000001_Node000004"><a xlink:title=" ">
<path fill="none" stroke="#63b8ff" d="M500.52,-298.21C488.41,-342.6 456.56,-435.5 393,-481.5 388.38,-484.85 383.31,-487.63 378.01,-489.94"/>
<polygon fill="#63b8ff" stroke="#63b8ff" points="503.91,-299.08 503.06,-288.52 497.14,-297.31 503.91,-299.08"/>
</a>
</g>
</g>
<!-- Node5 -->
<g id="Node000005" class="node">
<title>Node5</title>
<g id="a_Node000005"><a xlink:href="classTmc5160Handler.html#ab4bf5aabef968f6f8ee66d08cf05913a" target="_top" xlink:title="Dump diagnostic information to logger.">
<polygon fill="white" stroke="#666666" points="390,-472 198,-472 198,-453 390,-453 390,-472"/>
<text text-anchor="middle" x="294" y="-460" font-family="Helvetica,sans-Serif" font-size="10.00">Tmc5160Handler::DumpDiagnostics</text>
</a>
</g>
</g>
<!-- Node1&#45;&gt;Node5 -->
<g id="edge4_Node000001_Node000005" class="edge">
<title>Node1&#45;&gt;Node5</title>
<g id="a_edge4_Node000001_Node000005"><a xlink:title=" ">
<path fill="none" stroke="#63b8ff" d="M497.42,-298.36C482.14,-336.43 447.51,-408.54 393,-444.5 387.95,-447.83 382.44,-450.59 376.71,-452.87"/>
<polygon fill="#63b8ff" stroke="#63b8ff" points="500.86,-299.17 501.22,-288.58 494.33,-296.63 500.86,-299.17"/>
</a>
</g>
</g>
<!-- Node6 -->
<g id="Node000006" class="node">
<title>Node6</title>
<g id="a_Node000006"><a xlink:href="classTmc5160Handler.html#af04426991f32e1a5022df0ec7e9d821d" target="_top" xlink:title="Enable the motor driver power stage.">
<polygon fill="white" stroke="#666666" points="377.5,-435 210.5,-435 210.5,-416 377.5,-416 377.5,-435"/>
<text text-anchor="middle" x="294" y="-423" font-family="Helvetica,sans-Serif" font-size="10.00">Tmc5160Handler::EnableMotor</text>
</a>
</g>
</g>
<!-- Node1&#45;&gt;Node6 -->
<g id="edge5_Node000001_Node000006" class="edge">
<title>Node1&#45;&gt;Node6</title>
<g id="a_edge5_Node000001_Node000006"><a xlink:title=" ">
<path fill="none" stroke="#63b8ff" d="M493.16,-297.76C474.84,-328.57 438.91,-380.92 393,-407.5 387.09,-410.92 380.67,-413.72 374.03,-416"/>
<polygon fill="#63b8ff" stroke="#63b8ff" points="496.28,-299.35 498.26,-288.94 490.22,-295.84 496.28,-299.35"/>
</a>
</g>
</g>
<!-- Node7 -->
<g id="Node000007" class="node">
<title>Node7</title>
<g id="a_Node000007"><a xlink:href="classTmc5160Handler.html#a0a90626550f36ea01dcd16a20877ca9e" target="_top" xlink:title="Get the chip version info.">
<polygon fill="white" stroke="#666666" points="384.5,-398 203.5,-398 203.5,-379 384.5,-379 384.5,-398"/>
<text text-anchor="middle" x="294" y="-386" font-family="Helvetica,sans-Serif" font-size="10.00">Tmc5160Handler::GetChipVersion</text>
</a>
</g>
</g>
<!-- Node1&#45;&gt;Node7 -->
<g id="edge6_Node000001_Node000007" class="edge">
<title>Node1&#45;&gt;Node7</title>
<g id="a_edge6_Node000001_Node000007"><a xlink:title=" ">
<path fill="none" stroke="#63b8ff" d="M486.7,-295.93C465.71,-318.2 430.48,-351.55 393,-369.5 384.87,-373.39 376,-376.49 367.03,-378.95"/>
<polygon fill="#63b8ff" stroke="#63b8ff" points="489.29,-298.27 493.51,-288.55 484.15,-293.52 489.29,-298.27"/>
</a>
</g>
</g>
<!-- Node8 -->
<g id="Node000008" class="node">
<title>Node8</title>
<g id="a_Node000008"><a xlink:href="classTmc5160Handler.html#acdb558e7d2b6c2548aca4fab849d5362" target="_top" xlink:title="Get current position in microsteps.">
<polygon fill="white" stroke="#666666" points="373.5,-360.5 214.5,-360.5 214.5,-330.5 373.5,-330.5 373.5,-360.5"/>
<text text-anchor="start" x="222.5" y="-348.5" font-family="Helvetica,sans-Serif" font-size="10.00">Tmc5160Handler::GetCurrent</text>
<text text-anchor="middle" x="294" y="-337.5" font-family="Helvetica,sans-Serif" font-size="10.00">Position</text>
</a>
</g>
</g>
<!-- Node1&#45;&gt;Node8 -->
<g id="edge7_Node000001_Node000008" class="edge">
<title>Node1&#45;&gt;Node8</title>
<g id="a_edge7_Node000001_Node000008"><a xlink:title=" ">
<path fill="none" stroke="#63b8ff" d="M465.36,-292.78C444.07,-302.27 417.48,-313.38 393,-321.5 383.27,-324.72 372.87,-327.73 362.62,-330.45"/>
<polygon fill="#63b8ff" stroke="#63b8ff" points="467.06,-295.85 474.74,-288.55 464.18,-289.47 467.06,-295.85"/>
</a>
</g>
</g>
<!-- Node9 -->
<g id="Node000009" class="node">
<title>Node9</title>
<g id="a_Node000009"><a xlink:href="classTmc5160Handler.html#a477ffe28808df5706f1f3f15018665b7" target="_top" xlink:title="Get current velocity.">
<polygon fill="white" stroke="#666666" points="373.5,-312.5 214.5,-312.5 214.5,-282.5 373.5,-282.5 373.5,-312.5"/>
<text text-anchor="start" x="222.5" y="-300.5" font-family="Helvetica,sans-Serif" font-size="10.00">Tmc5160Handler::GetCurrent</text>
<text text-anchor="middle" x="294" y="-289.5" font-family="Helvetica,sans-Serif" font-size="10.00">Velocity</text>
</a>
</g>
</g>
<!-- Node1&#45;&gt;Node9 -->
<g id="edge8_Node000001_Node000009" class="edge">
<title>Node1&#45;&gt;Node9</title>
<g id="a_edge8_Node000001_Node000009"><a xlink:title=" ">
<path fill="none" stroke="#63b8ff" d="M418.69,-283.46C403.74,-285.16 388.3,-286.91 373.61,-288.58"/>
<polygon fill="#63b8ff" stroke="#63b8ff" points="419.4,-286.91 428.95,-282.3 418.62,-279.95 419.4,-286.91"/>
</a>
</g>
</g>
<!-- Node10 -->
<g id="Node000010" class="node">
<title>Node10</title>
<g id="a_Node000010"><a xlink:href="classTmc5160Handler.html#af583b8d7baca711d2d0e3269bff68ba7" target="_top" xlink:title="Get StallGuard result value.">
<polygon fill="white" stroke="#666666" points="366.5,-264.5 221.5,-264.5 221.5,-234.5 366.5,-234.5 366.5,-264.5"/>
<text text-anchor="start" x="229.5" y="-252.5" font-family="Helvetica,sans-Serif" font-size="10.00">Tmc5160Handler::GetStall</text>
<text text-anchor="middle" x="294" y="-241.5" font-family="Helvetica,sans-Serif" font-size="10.00">GuardResult</text>
</a>
</g>
</g>
<!-- Node1&#45;&gt;Node10 -->
<g id="edge9_Node000001_Node000010" class="edge">
<title>Node1&#45;&gt;Node10</title>
<g id="a_edge9_Node000001_Node000010"><a xlink:title=" ">
<path fill="none" stroke="#63b8ff" d="M418.8,-263.55C401.41,-261.58 383.35,-259.53 366.58,-257.62"/>
<polygon fill="#63b8ff" stroke="#63b8ff" points="418.62,-267.05 428.95,-264.7 419.4,-260.09 418.62,-267.05"/>
</a>
</g>
</g>
<!-- Node11 -->
<g id="Node000011" class="node">
<title>Node11</title>
<g id="a_Node000011"><a xlink:href="classTmc5160Handler.html#a886e33b5d5de426d64b2e006c90422a2" target="_top" xlink:title="Check if motor is enabled.">
<polygon fill="white" stroke="#666666" points="385,-216 203,-216 203,-197 385,-197 385,-216"/>
<text text-anchor="middle" x="294" y="-204" font-family="Helvetica,sans-Serif" font-size="10.00">Tmc5160Handler::IsMotorEnabled</text>
</a>
</g>
</g>
<!-- Node1&#45;&gt;Node11 -->
<g id="edge10_Node000001_Node000011" class="edge">
<title>Node1&#45;&gt;Node11</title>
<g id="a_edge10_Node000001_Node000011"><a xlink:title=" ">
<path fill="none" stroke="#63b8ff" d="M466.72,-254.26C445.28,-244.52 418.14,-233.16 393,-225.5 380.82,-221.79 367.55,-218.64 354.83,-216.04"/>
<polygon fill="#63b8ff" stroke="#63b8ff" points="465.29,-257.46 475.84,-258.47 468.22,-251.1 465.29,-257.46"/>
</a>
</g>
</g>
<!-- Node12 -->
<g id="Node000012" class="node">
<title>Node12</title>
<g id="a_Node000012"><a xlink:href="classTmc5160Handler.html#a92ab9f87e4c97d8be86e6ed29fa62814" target="_top" xlink:title="Check for overtemperature condition.">
<polygon fill="white" stroke="#666666" points="393,-179 195,-179 195,-160 393,-160 393,-179"/>
<text text-anchor="middle" x="294" y="-167" font-family="Helvetica,sans-Serif" font-size="10.00">Tmc5160Handler::IsOvertemperature</text>
</a>
</g>
</g>
<!-- Node1&#45;&gt;Node12 -->
<g id="edge11_Node000001_Node000012" class="edge">
<title>Node1&#45;&gt;Node12</title>
<g id="a_edge11_Node000001_Node000012"><a xlink:title=" ">
<path fill="none" stroke="#63b8ff" d="M483.72,-251.46C462.12,-231.85 427.88,-203.96 393,-188.5 384.21,-184.6 374.62,-181.5 365,-179.04"/>
<polygon fill="#63b8ff" stroke="#63b8ff" points="481.36,-254.04 491.08,-258.27 486.12,-248.91 481.36,-254.04"/>
</a>
</g>
</g>
<!-- Node13 -->
<g id="Node000013" class="node">
<title>Node13</title>
<g id="a_Node000013"><a xlink:href="classTmc5160Handler.html#a0a25f971f0c8a23a489d35ce53fea164" target="_top" xlink:title="Check for stall detection.">
<polygon fill="white" stroke="#666666" points="384,-142 204,-142 204,-123 384,-123 384,-142"/>
<text text-anchor="middle" x="294" y="-130" font-family="Helvetica,sans-Serif" font-size="10.00">Tmc5160Handler::IsStallDetected</text>
</a>
</g>
</g>
<!-- Node1&#45;&gt;Node13 -->
<g id="edge12_Node000001_Node000013" class="edge">
<title>Node1&#45;&gt;Node13</title>
<g id="a_edge12_Node000001_Node000013"><a xlink:title=" ">
<path fill="none" stroke="#63b8ff" d="M491.42,-249.79C472.17,-221.62 436.14,-175.43 393,-151.5 386.03,-147.63 378.4,-144.54 370.57,-142.07"/>
<polygon fill="#63b8ff" stroke="#63b8ff" points="488.61,-251.88 497.07,-258.25 494.43,-247.99 488.61,-251.88"/>
</a>
</g>
</g>
<!-- Node14 -->
<g id="Node000014" class="node">
<title>Node14</title>
<g id="a_Node000014"><a xlink:href="classTmc5160Handler.html#ad72f4e8d1cb8848bd5967b87637d5f62" target="_top" xlink:title="Check if the motor is at standstill.">
<polygon fill="white" stroke="#666666" points="374,-105 214,-105 214,-86 374,-86 374,-105"/>
<text text-anchor="middle" x="294" y="-93" font-family="Helvetica,sans-Serif" font-size="10.00">Tmc5160Handler::IsStandstill</text>
</a>
</g>
</g>
<!-- Node1&#45;&gt;Node14 -->
<g id="edge13_Node000001_Node000014" class="edge">
<title>Node1&#45;&gt;Node14</title>
<g id="a_edge13_Node000001_Node000014"><a xlink:title=" ">
<path fill="none" stroke="#63b8ff" d="M496.28,-249.09C479.99,-213.42 444.64,-147.68 393,-114.5 387.02,-110.66 380.45,-107.56 373.62,-105.07"/>
<polygon fill="#63b8ff" stroke="#63b8ff" points="493.11,-250.58 500.36,-258.3 499.51,-247.74 493.11,-250.58"/>
</a>
</g>
</g>
<!-- Node15 -->
<g id="Node000015" class="node">
<title>Node15</title>
<g id="a_Node000015"><a xlink:href="classTmc5160Handler.html#ad1831c33ceedfac6dfb31c99c5009048" target="_top" xlink:title="Check if target position has been reached.">
<polygon fill="white" stroke="#666666" points="366,-67.5 222,-67.5 222,-37.5 366,-37.5 366,-67.5"/>
<text text-anchor="start" x="230" y="-55.5" font-family="Helvetica,sans-Serif" font-size="10.00">Tmc5160Handler::IsTarget</text>
<text text-anchor="middle" x="294" y="-44.5" font-family="Helvetica,sans-Serif" font-size="10.00">Reached</text>
</a>
</g>
</g>
<!-- Node1&#45;&gt;Node15 -->
<g id="edge14_Node000001_Node000015" class="edge">
<title>Node1&#45;&gt;Node15</title>
<g id="a_edge14_Node000001_Node000015"><a xlink:title=" ">
<path fill="none" stroke="#63b8ff" d="M499.12,-248.54C485.38,-206.54 451.82,-122.02 393,-77.5 385.02,-71.46 375.73,-66.87 366.12,-63.38"/>
<polygon fill="#63b8ff" stroke="#63b8ff" points="495.84,-249.76 502.19,-258.24 502.51,-247.65 495.84,-249.76"/>
</a>
</g>
</g>
<!-- Node16 -->
<g id="Node000016" class="node">
<title>Node16</title>
<g id="a_Node000016"><a xlink:href="classTmc5160Handler.html#abc25e920be9b4093eb44b3a5da8bd0ed" target="_top" xlink:title="Stop motor immediately.">
<polygon fill="white" stroke="#666666" points="358,-19 230,-19 230,0 358,0 358,-19"/>
<text text-anchor="middle" x="294" y="-7" font-family="Helvetica,sans-Serif" font-size="10.00">Tmc5160Handler::Stop</text>
</a>
</g>
</g>
<!-- Node1&#45;&gt;Node16 -->
<g id="edge15_Node000001_Node000016" class="edge">
<title>Node1&#45;&gt;Node16</title>
<g id="a_edge15_Node000001_Node000016"><a xlink:title=" ">
<path fill="none" stroke="#63b8ff" d="M502.59,-248.49C493.34,-198.25 465.21,-85.04 393,-28.5 382.97,-20.65 370.62,-15.74 358.11,-12.73"/>
<polygon fill="#63b8ff" stroke="#63b8ff" points="499.17,-249.24 504.33,-258.49 506.06,-248.04 499.17,-249.24"/>
</a>
</g>
</g>
<!-- Node3 -->
<g id="Node000003" class="node">
<title>Node3</title>
<g id="a_Node000003"><a xlink:href="classTmc5160Handler.html#aed4f4e077bf616f3a0b7af6f3fafcf74" target="_top" xlink:title="Destructor.">
<polygon fill="white" stroke="#666666" points="159,-551.5 0,-551.5 0,-521.5 159,-521.5 159,-551.5"/>
<text text-anchor="start" x="8" y="-539.5" font-family="Helvetica,sans-Serif" font-size="10.00">Tmc5160Handler::~Tmc5160</text>
<text text-anchor="middle" x="79.5" y="-528.5" font-family="Helvetica,sans-Serif" font-size="10.00">Handler</text>
</a>
</g>
</g>
<!-- Node2&#45;&gt;Node3 -->
<g id="edge2_Node000002_Node000003" class="edge">
<title>Node2&#45;&gt;Node3</title>
<g id="a_edge2_Node000002_Node000003"><a xlink:title=" ">
<path fill="none" stroke="#63b8ff" d="M203.24,-536.5C188.62,-536.5 173.59,-536.5 159.27,-536.5"/>
<polygon fill="#63b8ff" stroke="#63b8ff" points="203.27,-540 213.27,-536.5 203.27,-533 203.27,-540"/>
</a>
</g>
</g>
</g>
</svg>
