<?xml version="1.0" encoding="UTF-8" standalone="no"?>
<!DOCTYPE svg PUBLIC "-//W3C//DTD SVG 1.1//EN"
 "http://www.w3.org/Graphics/SVG/1.1/DTD/svg11.dtd">
<!-- Generated by graphviz version 2.43.0 (0)
 -->
<!-- Title: Pcal95555Handler::DumpDiagnostics Pages: 1 -->
<svg width="520pt" height="82pt"
 viewBox="0.00 0.00 520.00 82.00" xmlns="http://www.w3.org/2000/svg" xmlns:xlink="http://www.w3.org/1999/xlink">
<g id="graph0" class="graph" transform="scale(1 1) rotate(0) translate(4 78)">
<title>Pcal95555Handler::DumpDiagnostics</title>
<!-- Node1 -->
<g id="Node000001" class="node">
<title>Node1</title>
<g id="a_Node000001"><a xlink:title="Dump comprehensive diagnostics to the system log.">
<polygon fill="#999999" stroke="#666666" points="197,-55 0,-55 0,-36 197,-36 197,-55"/>
<text text-anchor="middle" x="98.5" y="-43" font-family="Helvetica,sans-Serif" font-size="10.00">Pcal95555Handler::DumpDiagnostics</text>
</a>
</g>
</g>
<!-- Node2 -->
<g id="Node000002" class="node">
<title>Node2</title>
<g id="a_Node000002"><a xlink:href="classLogger.html#a5789d11f8f1356e2192c0023a089cbc4" target="_top" xlink:title="Get singleton instance.">
<polygon fill="white" stroke="#666666" points="347,-74 233,-74 233,-55 347,-55 347,-74"/>
<text text-anchor="middle" x="290" y="-62" font-family="Helvetica,sans-Serif" font-size="10.00">Logger::GetInstance</text>
</a>
</g>
</g>
<!-- Node1&#45;&gt;Node2 -->
<g id="edge1_Node000001_Node000002" class="edge">
<title>Node1&#45;&gt;Node2</title>
<g id="a_edge1_Node000001_Node000002"><a xlink:title=" ">
<path fill="none" stroke="#63b8ff" d="M194.53,-55.03C204.06,-55.98 213.58,-56.94 222.71,-57.85"/>
<polygon fill="#63b8ff" stroke="#63b8ff" points="222.54,-61.35 232.84,-58.87 223.24,-54.39 222.54,-61.35"/>
</a>
</g>
</g>
<!-- Node3 -->
<g id="Node000003" class="node">
<title>Node3</title>
<g id="a_Node000003"><a xlink:href="classLogger.html#a4681229c521795685fc14f6b55c82300" target="_top" xlink:title="Log info message.">
<polygon fill="white" stroke="#666666" points="327,-37 253,-37 253,-18 327,-18 327,-37"/>
<text text-anchor="middle" x="290" y="-25" font-family="Helvetica,sans-Serif" font-size="10.00">Logger::Info</text>
</a>
</g>
</g>
<!-- Node1&#45;&gt;Node3 -->
<g id="edge2_Node000001_Node000003" class="edge">
<title>Node1&#45;&gt;Node3</title>
<g id="a_edge2_Node000001_Node000003"><a xlink:title=" ">
<path fill="none" stroke="#63b8ff" d="M197.03,-36.24C212.92,-34.73 228.72,-33.23 242.62,-31.91"/>
<polygon fill="#63b8ff" stroke="#63b8ff" points="243.22,-35.36 252.84,-30.93 242.56,-28.4 243.22,-35.36"/>
</a>
</g>
</g>
<!-- Node4 -->
<g id="Node000004" class="node">
<title>Node4</title>
<g id="a_Node000004"><a xlink:href="classLogger.html#af9e84e0ff6bd538e4f9ed8dcebc3e2f0" target="_top" xlink:title="Check if log level is enabled for tag.">
<polygon fill="white" stroke="#666666" points="512,-56 383,-56 383,-37 512,-37 512,-56"/>
<text text-anchor="middle" x="447.5" y="-44" font-family="Helvetica,sans-Serif" font-size="10.00">Logger::IsLevelEnabled</text>
</a>
</g>
</g>
<!-- Node3&#45;&gt;Node4 -->
<g id="edge3_Node000003_Node000004" class="edge">
<title>Node3&#45;&gt;Node4</title>
<g id="a_edge3_Node000003_Node000004"><a xlink:title=" ">
<path fill="none" stroke="#63b8ff" d="M327.07,-31.91C340.68,-33.57 356.72,-35.53 372.55,-37.46"/>
<polygon fill="#63b8ff" stroke="#63b8ff" points="372.54,-40.99 382.89,-38.73 373.39,-34.04 372.54,-40.99"/>
</a>
</g>
</g>
<!-- Node5 -->
<g id="Node000005" class="node">
<title>Node5</title>
<g id="a_Node000005"><a xlink:href="classLogger.html#a6adb205db597526fb91ad20067400394" target="_top" xlink:title="Internal logging method.">
<polygon fill="white" stroke="#666666" points="502.5,-19 392.5,-19 392.5,0 502.5,0 502.5,-19"/>
<text text-anchor="middle" x="447.5" y="-7" font-family="Helvetica,sans-Serif" font-size="10.00">Logger::LogInternal</text>
</a>
</g>
</g>
<!-- Node3&#45;&gt;Node5 -->
<g id="edge4_Node000003_Node000005" class="edge">
<title>Node3&#45;&gt;Node5</title>
<g id="a_edge4_Node000003_Node000005"><a xlink:title=" ">
<path fill="none" stroke="#63b8ff" d="M327.07,-23.33C343.49,-21.42 363.44,-19.11 382.3,-16.93"/>
<polygon fill="#63b8ff" stroke="#63b8ff" points="382.8,-20.4 392.33,-15.77 382,-13.44 382.8,-20.4"/>
</a>
</g>
</g>
</g>
</svg>
