<?xml version="1.0" encoding="UTF-8" standalone="no"?>
<!DOCTYPE svg PUBLIC "-//W3C//DTD SVG 1.1//EN"
 "http://www.w3.org/Graphics/SVG/1.1/DTD/svg11.dtd">
<!-- Generated by graphviz version 2.43.0 (0)
 -->
<!-- Title: Pcal95555Handler::HasAgileIO Pages: 1 -->
<svg width="362pt" height="76pt"
 viewBox="0.00 0.00 362.00 75.50" xmlns="http://www.w3.org/2000/svg" xmlns:xlink="http://www.w3.org/1999/xlink">
<g id="graph0" class="graph" transform="scale(1 1) rotate(0) translate(4 71.5)">
<title>Pcal95555Handler::HasAgileIO</title>
<!-- Node1 -->
<g id="Node000001" class="node">
<title>Node1</title>
<g id="a_Node000001"><a xlink:title="Check if the detected chip supports Agile I/O features.">
<polygon fill="#999999" stroke="#666666" points="354,-45.5 189,-45.5 189,-26.5 354,-26.5 354,-45.5"/>
<text text-anchor="middle" x="271.5" y="-33.5" font-family="Helvetica,sans-Serif" font-size="10.00">Pcal95555Handler::HasAgileIO</text>
</a>
</g>
</g>
<!-- Node2 -->
<g id="Node000002" class="node">
<title>Node2</title>
<g id="a_Node000002"><a xlink:href="classPcal95555GpioPin.html#a49b393914fbb14d0a5f32e4a597babb2" target="_top" xlink:title="Initialize the pin (configures direction and pull mode on the expander).">
<polygon fill="white" stroke="#666666" points="152.5,-67.5 0.5,-67.5 0.5,-48.5 152.5,-48.5 152.5,-67.5"/>
<text text-anchor="middle" x="76.5" y="-55.5" font-family="Helvetica,sans-Serif" font-size="10.00">Pcal95555GpioPin::Initialize</text>
</a>
</g>
</g>
<!-- Node1&#45;&gt;Node2 -->
<g id="edge1_Node000001_Node000002" class="edge">
<title>Node1&#45;&gt;Node2</title>
<g id="a_edge1_Node000001_Node000002"><a xlink:title=" ">
<path fill="none" stroke="#63b8ff" d="M178.72,-46.46C169.98,-47.46 161.19,-48.46 152.64,-49.43"/>
<polygon fill="#63b8ff" stroke="#63b8ff" points="179.39,-49.91 188.93,-45.3 178.6,-42.95 179.39,-49.91"/>
</a>
</g>
</g>
<!-- Node3 -->
<g id="Node000003" class="node">
<title>Node3</title>
<g id="a_Node000003"><a xlink:href="classPcal95555GpioPin.html#a4b3f3c93b648f3d6cd3142078cba0575" target="_top" xlink:title="Check if this pin supports interrupt configuration.">
<polygon fill="white" stroke="#666666" points="153,-30 0,-30 0,0 153,0 153,-30"/>
<text text-anchor="start" x="8" y="-18" font-family="Helvetica,sans-Serif" font-size="10.00">Pcal95555GpioPin::Supports</text>
<text text-anchor="middle" x="76.5" y="-7" font-family="Helvetica,sans-Serif" font-size="10.00">Interrupts</text>
</a>
</g>
</g>
<!-- Node1&#45;&gt;Node3 -->
<g id="edge2_Node000001_Node000003" class="edge">
<title>Node1&#45;&gt;Node3</title>
<g id="a_edge2_Node000001_Node000003"><a xlink:title=" ">
<path fill="none" stroke="#63b8ff" d="M178.89,-26.03C170.31,-25.1 161.67,-24.16 153.25,-23.24"/>
<polygon fill="#63b8ff" stroke="#63b8ff" points="178.61,-29.52 188.93,-27.12 179.37,-22.56 178.61,-29.52"/>
</a>
</g>
</g>
</g>
</svg>
