<?xml version="1.0" encoding="UTF-8" standalone="no"?>
<!DOCTYPE svg PUBLIC "-//W3C//DTD SVG 1.1//EN"
 "http://www.w3.org/Graphics/SVG/1.1/DTD/svg11.dtd">
<!-- Generated by graphviz version 2.43.0 (0)
 -->
<!-- Title: Tmc5160Handler::driverViaSpi Pages: 1 -->
<svg width="895pt" height="138pt"
 viewBox="0.00 0.00 895.00 138.00" xmlns="http://www.w3.org/2000/svg" xmlns:xlink="http://www.w3.org/1999/xlink">
<g id="graph0" class="graph" transform="scale(1 1) rotate(0) translate(4 134)">
<title>Tmc5160Handler::driverViaSpi</title>
<!-- Node1 -->
<g id="Node000001" class="node">
<title>Node1</title>
<g id="a_Node000001"><a xlink:title="Get typed SPI driver pointer (null if UART mode or not initialized).">
<polygon fill="#999999" stroke="#666666" points="165,-74 0,-74 0,-55 165,-55 165,-74"/>
<text text-anchor="middle" x="82.5" y="-62" font-family="Helvetica,sans-Serif" font-size="10.00">Tmc5160Handler::driverViaSpi</text>
</a>
</g>
</g>
<!-- Node2 -->
<g id="Node000002" class="node">
<title>Node2</title>
<g id="a_Node000002"><a xlink:href="classTmc5160Handler.html#a6d4fce2433e03bb11b05a4278ef66fd0" target="_top" xlink:title=" ">
<polygon fill="white" stroke="#666666" points="388,-79.5 201,-79.5 201,-49.5 388,-49.5 388,-79.5"/>
<text text-anchor="start" x="209" y="-67.5" font-family="Helvetica,sans-Serif" font-size="10.00">Tmc5160Handler::EnsureInitialized</text>
<text text-anchor="middle" x="294.5" y="-56.5" font-family="Helvetica,sans-Serif" font-size="10.00">Locked</text>
</a>
</g>
</g>
<!-- Node1&#45;&gt;Node2 -->
<g id="edge1_Node000001_Node000002" class="edge">
<title>Node1&#45;&gt;Node2</title>
<g id="a_edge1_Node000001_Node000002"><a xlink:title=" ">
<path fill="none" stroke="#63b8ff" d="M165.29,-64.5C173.65,-64.5 182.22,-64.5 190.77,-64.5"/>
<polygon fill="#63b8ff" stroke="#63b8ff" points="190.78,-68 200.78,-64.5 190.78,-61 190.78,-68"/>
</a>
</g>
</g>
<!-- Node3 -->
<g id="Node000003" class="node">
<title>Node3</title>
<g id="a_Node000003"><a xlink:href="classTmc5160Handler.html#a64755f326176b0a38485acf5ca69fd0c" target="_top" xlink:title="Initialize the TMC5160 driver with full configuration.">
<polygon fill="white" stroke="#666666" points="572,-74 424,-74 424,-55 572,-55 572,-74"/>
<text text-anchor="middle" x="498" y="-62" font-family="Helvetica,sans-Serif" font-size="10.00">Tmc5160Handler::Initialize</text>
</a>
</g>
</g>
<!-- Node2&#45;&gt;Node3 -->
<g id="edge2_Node000002_Node000003" class="edge">
<title>Node2&#45;&gt;Node3</title>
<g id="a_edge2_Node000002_Node000003"><a xlink:title=" ">
<path fill="none" stroke="#63b8ff" d="M388.29,-64.5C396.73,-64.5 405.25,-64.5 413.61,-64.5"/>
<polygon fill="#63b8ff" stroke="#63b8ff" points="413.7,-68 423.7,-64.5 413.7,-61 413.7,-68"/>
</a>
</g>
</g>
<!-- Node4 -->
<g id="Node000004" class="node">
<title>Node4</title>
<g id="a_Node000004"><a xlink:href="classLogger.html#adce17848a5844e053bfd314863dc1404" target="_top" xlink:title="Log error message.">
<polygon fill="white" stroke="#666666" points="704.5,-130 625.5,-130 625.5,-111 704.5,-111 704.5,-130"/>
<text text-anchor="middle" x="665" y="-118" font-family="Helvetica,sans-Serif" font-size="10.00">Logger::Error</text>
</a>
</g>
</g>
<!-- Node3&#45;&gt;Node4 -->
<g id="edge3_Node000003_Node000004" class="edge">
<title>Node3&#45;&gt;Node4</title>
<g id="a_edge3_Node000003_Node000004"><a xlink:title=" ">
<path fill="none" stroke="#63b8ff" d="M525.81,-74.05C547.84,-81.85 579.88,-93.08 608,-102.5 613.2,-104.24 618.69,-106.05 624.12,-107.81"/>
<polygon fill="#63b8ff" stroke="#63b8ff" points="623.14,-111.17 633.73,-110.92 625.29,-104.51 623.14,-111.17"/>
</a>
</g>
</g>
<!-- Node7 -->
<g id="Node000007" class="node">
<title>Node7</title>
<g id="a_Node000007"><a xlink:href="classLogger.html#a5789d11f8f1356e2192c0023a089cbc4" target="_top" xlink:title="Get singleton instance.">
<polygon fill="white" stroke="#666666" points="722,-19 608,-19 608,0 722,0 722,-19"/>
<text text-anchor="middle" x="665" y="-7" font-family="Helvetica,sans-Serif" font-size="10.00">Logger::GetInstance</text>
</a>
</g>
</g>
<!-- Node3&#45;&gt;Node7 -->
<g id="edge6_Node000003_Node000007" class="edge">
<title>Node3&#45;&gt;Node7</title>
<g id="a_edge6_Node000003_Node000007"><a xlink:title=" ">
<path fill="none" stroke="#63b8ff" d="M526.73,-54.95C548.74,-47.4 580.3,-36.65 608,-27.5 613.27,-25.76 618.83,-23.94 624.32,-22.17"/>
<polygon fill="#63b8ff" stroke="#63b8ff" points="625.59,-25.43 634.04,-19.03 623.44,-18.77 625.59,-25.43"/>
</a>
</g>
</g>
<!-- Node8 -->
<g id="Node000008" class="node">
<title>Node8</title>
<g id="a_Node000008"><a xlink:href="classLogger.html#a4681229c521795685fc14f6b55c82300" target="_top" xlink:title="Log info message.">
<polygon fill="white" stroke="#666666" points="702,-93 628,-93 628,-74 702,-74 702,-93"/>
<text text-anchor="middle" x="665" y="-81" font-family="Helvetica,sans-Serif" font-size="10.00">Logger::Info</text>
</a>
</g>
</g>
<!-- Node3&#45;&gt;Node8 -->
<g id="edge7_Node000003_Node000008" class="edge">
<title>Node3&#45;&gt;Node8</title>
<g id="a_edge7_Node000003_Node000008"><a xlink:title=" ">
<path fill="none" stroke="#63b8ff" d="M572.33,-72.94C587.85,-74.73 603.8,-76.57 617.96,-78.2"/>
<polygon fill="#63b8ff" stroke="#63b8ff" points="617.58,-81.68 627.92,-79.35 618.38,-74.72 617.58,-81.68"/>
</a>
</g>
</g>
<!-- Node9 -->
<g id="Node000009" class="node">
<title>Node9</title>
<g id="a_Node000009"><a xlink:href="classLogger.html#aaa95ffa14d07a965d4a85bdec82cba26" target="_top" xlink:title="Log warning message.">
<polygon fill="white" stroke="#666666" points="705,-56 625,-56 625,-37 705,-37 705,-56"/>
<text text-anchor="middle" x="665" y="-44" font-family="Helvetica,sans-Serif" font-size="10.00">Logger::Warn</text>
</a>
</g>
</g>
<!-- Node3&#45;&gt;Node9 -->
<g id="edge10_Node000003_Node000009" class="edge">
<title>Node3&#45;&gt;Node9</title>
<g id="a_edge10_Node000003_Node000009"><a xlink:title=" ">
<path fill="none" stroke="#63b8ff" d="M572.33,-56.5C586.59,-54.94 601.23,-53.35 614.49,-51.9"/>
<polygon fill="#63b8ff" stroke="#63b8ff" points="615.25,-55.34 624.81,-50.78 614.49,-48.38 615.25,-55.34"/>
</a>
</g>
</g>
<!-- Node5 -->
<g id="Node000005" class="node">
<title>Node5</title>
<g id="a_Node000005"><a xlink:href="classLogger.html#af9e84e0ff6bd538e4f9ed8dcebc3e2f0" target="_top" xlink:title="Check if log level is enabled for tag.">
<polygon fill="white" stroke="#666666" points="887,-111 758,-111 758,-92 887,-92 887,-111"/>
<text text-anchor="middle" x="822.5" y="-99" font-family="Helvetica,sans-Serif" font-size="10.00">Logger::IsLevelEnabled</text>
</a>
</g>
</g>
<!-- Node4&#45;&gt;Node5 -->
<g id="edge4_Node000004_Node000005" class="edge">
<title>Node4&#45;&gt;Node5</title>
<g id="a_edge4_Node000004_Node000005"><a xlink:title=" ">
<path fill="none" stroke="#63b8ff" d="M704.84,-115.75C717.85,-114.16 732.82,-112.34 747.6,-110.53"/>
<polygon fill="#63b8ff" stroke="#63b8ff" points="748.28,-113.97 757.78,-109.29 747.43,-107.02 748.28,-113.97"/>
</a>
</g>
</g>
<!-- Node6 -->
<g id="Node000006" class="node">
<title>Node6</title>
<g id="a_Node000006"><a xlink:href="classLogger.html#a6adb205db597526fb91ad20067400394" target="_top" xlink:title="Internal logging method.">
<polygon fill="white" stroke="#666666" points="877.5,-74 767.5,-74 767.5,-55 877.5,-55 877.5,-74"/>
<text text-anchor="middle" x="822.5" y="-62" font-family="Helvetica,sans-Serif" font-size="10.00">Logger::LogInternal</text>
</a>
</g>
</g>
<!-- Node4&#45;&gt;Node6 -->
<g id="edge5_Node000004_Node000006" class="edge">
<title>Node4&#45;&gt;Node6</title>
<g id="a_edge5_Node000004_Node000006"><a xlink:title=" ">
<path fill="none" stroke="#63b8ff" d="M698.92,-110.98C706.59,-108.47 714.66,-105.59 722,-102.5 738.68,-95.48 741.25,-90.35 758,-83.5 763.53,-81.24 769.42,-79.12 775.31,-77.16"/>
<polygon fill="#63b8ff" stroke="#63b8ff" points="776.67,-80.41 785.14,-74.05 774.55,-73.73 776.67,-80.41"/>
</a>
</g>
</g>
<!-- Node8&#45;&gt;Node5 -->
<g id="edge8_Node000008_Node000005" class="edge">
<title>Node8&#45;&gt;Node5</title>
<g id="a_edge8_Node000008_Node000005"><a xlink:title=" ">
<path fill="none" stroke="#63b8ff" d="M702.07,-87.67C715.68,-89.25 731.72,-91.11 747.55,-92.94"/>
<polygon fill="#63b8ff" stroke="#63b8ff" points="747.55,-96.46 757.89,-94.14 748.36,-89.51 747.55,-96.46"/>
</a>
</g>
</g>
<!-- Node8&#45;&gt;Node6 -->
<g id="edge9_Node000008_Node000006" class="edge">
<title>Node8&#45;&gt;Node6</title>
<g id="a_edge9_Node000008_Node000006"><a xlink:title=" ">
<path fill="none" stroke="#63b8ff" d="M702.07,-79.09C718.49,-77.09 738.44,-74.65 757.3,-72.34"/>
<polygon fill="#63b8ff" stroke="#63b8ff" points="757.83,-75.81 767.33,-71.12 756.98,-68.86 757.83,-75.81"/>
</a>
</g>
</g>
<!-- Node9&#45;&gt;Node5 -->
<g id="edge11_Node000009_Node000005" class="edge">
<title>Node9&#45;&gt;Node5</title>
<g id="a_edge11_Node000009_Node000005"><a xlink:title=" ">
<path fill="none" stroke="#63b8ff" d="M696.51,-56.01C704.86,-58.84 713.85,-62.1 722,-65.5 738.51,-72.39 741.32,-77.03 758,-83.5 763.07,-85.47 768.45,-87.33 773.85,-89.05"/>
<polygon fill="#63b8ff" stroke="#63b8ff" points="772.92,-92.42 783.51,-91.99 774.96,-85.73 772.92,-92.42"/>
</a>
</g>
</g>
<!-- Node9&#45;&gt;Node6 -->
<g id="edge12_Node000009_Node000006" class="edge">
<title>Node9&#45;&gt;Node6</title>
<g id="a_edge12_Node000009_Node000006"><a xlink:title=" ">
<path fill="none" stroke="#63b8ff" d="M705.24,-51.04C720.96,-52.86 739.49,-55.01 757.08,-57.04"/>
<polygon fill="#63b8ff" stroke="#63b8ff" points="756.96,-60.55 767.3,-58.23 757.77,-53.6 756.96,-60.55"/>
</a>
</g>
</g>
</g>
</svg>
