<?xml version="1.0" encoding="UTF-8" standalone="no"?>
<!DOCTYPE svg PUBLIC "-//W3C//DTD SVG 1.1//EN"
 "http://www.w3.org/Graphics/SVG/1.1/DTD/svg11.dtd">
<!-- Generated by graphviz version 2.43.0 (0)
 -->
<!-- Title: Bno08xHandler::ensureInitializedLocked Pages: 1 -->
<svg width="748pt" height="162pt"
 viewBox="0.00 0.00 748.00 161.50" xmlns="http://www.w3.org/2000/svg" xmlns:xlink="http://www.w3.org/1999/xlink">
<g id="graph0" class="graph" transform="scale(1 1) rotate(0) translate(4 157.5)">
<title>Bno08xHandler::ensureInitializedLocked</title>
<!-- Node1 -->
<g id="Node000001" class="node">
<title>Node1</title>
<g id="a_Node000001"><a xlink:title="Internal: ensure initialized (assumes mutex is held).">
<polygon fill="#999999" stroke="#666666" points="179,-88.5 0,-88.5 0,-58.5 179,-58.5 179,-88.5"/>
<text text-anchor="start" x="8" y="-76.5" font-family="Helvetica,sans-Serif" font-size="10.00">Bno08xHandler::ensureInitialized</text>
<text text-anchor="middle" x="89.5" y="-65.5" font-family="Helvetica,sans-Serif" font-size="10.00">Locked</text>
</a>
</g>
</g>
<!-- Node2 -->
<g id="Node000002" class="node">
<title>Node2</title>
<g id="a_Node000002"><a xlink:href="classBno08xHandler.html#ac1a1ff0d56324dcc09d9b48ca2e132e6" target="_top" xlink:title="Initialize the BNO08x sensor.">
<polygon fill="white" stroke="#666666" points="355,-83 215,-83 215,-64 355,-64 355,-83"/>
<text text-anchor="middle" x="285" y="-71" font-family="Helvetica,sans-Serif" font-size="10.00">Bno08xHandler::Initialize</text>
</a>
</g>
</g>
<!-- Node1&#45;&gt;Node2 -->
<g id="edge1_Node000001_Node000002" class="edge">
<title>Node1&#45;&gt;Node2</title>
<g id="a_edge1_Node000001_Node000002"><a xlink:title=" ">
<path fill="none" stroke="#63b8ff" d="M179.04,-73.5C187.6,-73.5 196.25,-73.5 204.71,-73.5"/>
<polygon fill="#63b8ff" stroke="#63b8ff" points="204.92,-77 214.92,-73.5 204.92,-70 204.92,-77"/>
</a>
</g>
</g>
<!-- Node3 -->
<g id="Node000003" class="node">
<title>Node3</title>
<g id="a_Node000003"><a xlink:href="classBno08xHandler.html#a5669d8d3146a450430e5644b8d297de5" target="_top" xlink:title="Internal: apply configured sensor enables (assumes mutex is held).">
<polygon fill="white" stroke="#666666" points="553,-153.5 398,-153.5 398,-123.5 553,-123.5 553,-153.5"/>
<text text-anchor="start" x="406" y="-141.5" font-family="Helvetica,sans-Serif" font-size="10.00">Bno08xHandler::applyConfig</text>
<text text-anchor="middle" x="475.5" y="-130.5" font-family="Helvetica,sans-Serif" font-size="10.00">Locked</text>
</a>
</g>
</g>
<!-- Node2&#45;&gt;Node3 -->
<g id="edge2_Node000002_Node000003" class="edge">
<title>Node2&#45;&gt;Node3</title>
<g id="a_edge2_Node000002_Node000003"><a xlink:title=" ">
<path fill="none" stroke="#63b8ff" d="M308.72,-83.07C329.83,-91.8 362.27,-104.78 391,-114.5 397,-116.53 403.28,-118.54 409.59,-120.48"/>
<polygon fill="#63b8ff" stroke="#63b8ff" points="408.89,-123.93 419.48,-123.47 410.92,-117.23 408.89,-123.93"/>
</a>
</g>
</g>
<!-- Node5 -->
<g id="Node000005" class="node">
<title>Node5</title>
<g id="a_Node000005"><a xlink:href="classIBno08xDriverOps.html#a0ca90c1a5664ab3eb83f691aff34faa0" target="_top" xlink:title=" ">
<polygon fill="white" stroke="#666666" points="545,-105 406,-105 406,-86 545,-86 545,-105"/>
<text text-anchor="middle" x="475.5" y="-93" font-family="Helvetica,sans-Serif" font-size="10.00">IBno08xDriverOps::Begin</text>
</a>
</g>
</g>
<!-- Node2&#45;&gt;Node5 -->
<g id="edge4_Node000002_Node000005" class="edge">
<title>Node2&#45;&gt;Node5</title>
<g id="a_edge4_Node000002_Node000005"><a xlink:title=" ">
<path fill="none" stroke="#63b8ff" d="M355.12,-81.57C368.27,-83.1 382.12,-84.72 395.54,-86.28"/>
<polygon fill="#63b8ff" stroke="#63b8ff" points="395.36,-89.79 405.7,-87.47 396.18,-82.83 395.36,-89.79"/>
</a>
</g>
</g>
<!-- Node6 -->
<g id="Node000006" class="node">
<title>Node6</title>
<g id="a_Node000006"><a xlink:href="classIBno08xDriverOps.html#a66418ccb85cd8eb8eea327fa979a2b6a" target="_top" xlink:title=" ">
<polygon fill="white" stroke="#666666" points="554.5,-67.5 396.5,-67.5 396.5,-37.5 554.5,-37.5 554.5,-67.5"/>
<text text-anchor="start" x="404.5" y="-55.5" font-family="Helvetica,sans-Serif" font-size="10.00">IBno08xDriverOps::Hardware</text>
<text text-anchor="middle" x="475.5" y="-44.5" font-family="Helvetica,sans-Serif" font-size="10.00">Reset</text>
</a>
</g>
</g>
<!-- Node2&#45;&gt;Node6 -->
<g id="edge5_Node000002_Node000006" class="edge">
<title>Node2&#45;&gt;Node6</title>
<g id="a_edge5_Node000002_Node000006"><a xlink:title=" ">
<path fill="none" stroke="#63b8ff" d="M355.12,-65.8C365.31,-64.66 375.93,-63.48 386.44,-62.31"/>
<polygon fill="#63b8ff" stroke="#63b8ff" points="386.92,-65.78 396.47,-61.19 386.14,-58.82 386.92,-65.78"/>
</a>
</g>
</g>
<!-- Node7 -->
<g id="Node000007" class="node">
<title>Node7</title>
<g id="a_Node000007"><a xlink:href="classIBno08xDriverOps.html#a04816a487d80027e6d6fe435f651b265" target="_top" xlink:title=" ">
<polygon fill="white" stroke="#666666" points="560,-19 391,-19 391,0 560,0 560,-19"/>
<text text-anchor="middle" x="475.5" y="-7" font-family="Helvetica,sans-Serif" font-size="10.00">IBno08xDriverOps::SetCallback</text>
</a>
</g>
</g>
<!-- Node2&#45;&gt;Node7 -->
<g id="edge6_Node000002_Node000007" class="edge">
<title>Node2&#45;&gt;Node7</title>
<g id="a_edge6_Node000002_Node000007"><a xlink:title=" ">
<path fill="none" stroke="#63b8ff" d="M305.33,-63.96C326.09,-54.01 360.26,-38.49 391,-28.5 398.93,-25.92 407.39,-23.56 415.76,-21.45"/>
<polygon fill="#63b8ff" stroke="#63b8ff" points="416.63,-24.84 425.53,-19.08 414.98,-18.04 416.63,-24.84"/>
</a>
</g>
</g>
<!-- Node4 -->
<g id="Node000004" class="node">
<title>Node4</title>
<g id="a_Node000004"><a xlink:href="classIBno08xDriverOps.html#a1da5bdfd4c8d7fbd42475ae7ee37fb98" target="_top" xlink:title=" ">
<polygon fill="white" stroke="#666666" points="740,-153.5 596,-153.5 596,-123.5 740,-123.5 740,-153.5"/>
<text text-anchor="start" x="604" y="-141.5" font-family="Helvetica,sans-Serif" font-size="10.00">IBno08xDriverOps::Enable</text>
<text text-anchor="middle" x="668" y="-130.5" font-family="Helvetica,sans-Serif" font-size="10.00">Sensor</text>
</a>
</g>
</g>
<!-- Node3&#45;&gt;Node4 -->
<g id="edge3_Node000003_Node000004" class="edge">
<title>Node3&#45;&gt;Node4</title>
<g id="a_edge3_Node000003_Node000004"><a xlink:title=" ">
<path fill="none" stroke="#63b8ff" d="M553.16,-138.5C563.82,-138.5 574.79,-138.5 585.53,-138.5"/>
<polygon fill="#63b8ff" stroke="#63b8ff" points="585.74,-142 595.74,-138.5 585.74,-135 585.74,-142"/>
</a>
</g>
</g>
</g>
</svg>
