<?xml version="1.0" encoding="UTF-8" standalone="no"?>
<!DOCTYPE svg PUBLIC "-//W3C//DTD SVG 1.1//EN"
 "http://www.w3.org/Graphics/SVG/1.1/DTD/svg11.dtd">
<!-- Generated by graphviz version 2.43.0 (0)
 -->
<!-- Title: HalUartTmc9660Comm::uartSendTMCL Pages: 1 -->
<svg width="460pt" height="49pt"
 viewBox="0.00 0.00 460.00 49.00" xmlns="http://www.w3.org/2000/svg" xmlns:xlink="http://www.w3.org/1999/xlink">
<g id="graph0" class="graph" transform="scale(1 1) rotate(0) translate(4 45)">
<title>HalUartTmc9660Comm::uartSendTMCL</title>
<!-- Node1 -->
<g id="Node000001" class="node">
<title>Node1</title>
<g id="a_Node000001"><a xlink:title="Send a 9&#45;byte TMCL datagram over UART.">
<polygon fill="#999999" stroke="#666666" points="131,-35.5 0,-35.5 0,-5.5 131,-5.5 131,-35.5"/>
<text text-anchor="start" x="8" y="-23.5" font-family="Helvetica,sans-Serif" font-size="10.00">HalUartTmc9660Comm</text>
<text text-anchor="middle" x="65.5" y="-12.5" font-family="Helvetica,sans-Serif" font-size="10.00">::uartSendTMCL</text>
</a>
</g>
</g>
<!-- Node2 -->
<g id="Node000002" class="node">
<title>Node2</title>
<g id="a_Node000002"><a xlink:href="namespaceanonymous__namespace_02Tmc9660Handler_8cpp_03.html#ae63557e186ffd913155acb3129de7ac9" target="_top" xlink:title=" ">
<polygon fill="white" stroke="#666666" points="302,-41 167,-41 167,0 302,0 302,-41"/>
<text text-anchor="start" x="175" y="-29" font-family="Helvetica,sans-Serif" font-size="10.00">anonymous_namespace</text>
<text text-anchor="start" x="175" y="-18" font-family="Helvetica,sans-Serif" font-size="10.00">{Tmc9660Handler::cpp}</text>
<text text-anchor="middle" x="234.5" y="-7" font-family="Helvetica,sans-Serif" font-size="10.00">::LogHexDump</text>
</a>
</g>
</g>
<!-- Node1&#45;&gt;Node2 -->
<g id="edge1_Node000001_Node000002" class="edge">
<title>Node1&#45;&gt;Node2</title>
<g id="a_edge1_Node000001_Node000002"><a xlink:title=" ">
<path fill="none" stroke="#63b8ff" d="M131.07,-20.5C139.51,-20.5 148.23,-20.5 156.85,-20.5"/>
<polygon fill="#63b8ff" stroke="#63b8ff" points="156.9,-24 166.9,-20.5 156.9,-17 156.9,-24"/>
</a>
</g>
</g>
<!-- Node3 -->
<g id="Node000003" class="node">
<title>Node3</title>
<g id="a_Node000003"><a xlink:href="classLogger.html#a5789d11f8f1356e2192c0023a089cbc4" target="_top" xlink:title="Get singleton instance.">
<polygon fill="white" stroke="#666666" points="452,-30 338,-30 338,-11 452,-11 452,-30"/>
<text text-anchor="middle" x="395" y="-18" font-family="Helvetica,sans-Serif" font-size="10.00">Logger::GetInstance</text>
</a>
</g>
</g>
<!-- Node2&#45;&gt;Node3 -->
<g id="edge2_Node000002_Node000003" class="edge">
<title>Node2&#45;&gt;Node3</title>
<g id="a_edge2_Node000002_Node000003"><a xlink:title=" ">
<path fill="none" stroke="#63b8ff" d="M302.26,-20.5C310.68,-20.5 319.29,-20.5 327.71,-20.5"/>
<polygon fill="#63b8ff" stroke="#63b8ff" points="327.84,-24 337.84,-20.5 327.84,-17 327.84,-24"/>
</a>
</g>
</g>
</g>
</svg>
