<?xml version="1.0" encoding="UTF-8" standalone="no"?>
<!DOCTYPE svg PUBLIC "-//W3C//DTD SVG 1.1//EN"
 "http://www.w3.org/Graphics/SVG/1.1/DTD/svg11.dtd">
<!-- Generated by graphviz version 2.43.0 (0)
 -->
<!-- Title: HalI2cSe050Comm::I2cRead Pages: 1 -->
<svg width="334pt" height="108pt"
 viewBox="0.00 0.00 334.00 108.00" xmlns="http://www.w3.org/2000/svg" xmlns:xlink="http://www.w3.org/1999/xlink">
<g id="graph0" class="graph" transform="scale(1 1) rotate(0) translate(4 104)">
<title>HalI2cSe050Comm::I2cRead</title>
<!-- Node1 -->
<g id="Node000001" class="node">
<title>Node1</title>
<g id="a_Node000001"><a xlink:title=" ">
<polygon fill="#999999" stroke="#666666" points="155,-59 0,-59 0,-40 155,-40 155,-59"/>
<text text-anchor="middle" x="77.5" y="-47" font-family="Helvetica,sans-Serif" font-size="10.00">HalI2cSe050Comm::I2cRead</text>
</a>
</g>
</g>
<!-- Node2 -->
<g id="Node000002" class="node">
<title>Node2</title>
<g id="a_Node000002"><a xlink:href="namespaceanonymous__namespace_02Se050Handler_8cpp_03.html#ac712ade1fe8a1302fb5ee3187909b09e" target="_top" xlink:title=" ">
<polygon fill="white" stroke="#666666" points="326,-100 191,-100 191,-59 326,-59 326,-100"/>
<text text-anchor="start" x="199" y="-88" font-family="Helvetica,sans-Serif" font-size="10.00">anonymous_namespace</text>
<text text-anchor="start" x="199" y="-77" font-family="Helvetica,sans-Serif" font-size="10.00">{Se050Handler::cpp}</text>
<text text-anchor="middle" x="258.5" y="-66" font-family="Helvetica,sans-Serif" font-size="10.00">::ClampU16</text>
</a>
</g>
</g>
<!-- Node1&#45;&gt;Node2 -->
<g id="edge1_Node000001_Node000002" class="edge">
<title>Node1&#45;&gt;Node2</title>
<g id="a_edge1_Node000001_Node000002"><a xlink:title=" ">
<path fill="none" stroke="#63b8ff" d="M135.63,-59.07C150.06,-61.49 165.8,-64.13 181.02,-66.68"/>
<polygon fill="#63b8ff" stroke="#63b8ff" points="180.49,-70.14 190.93,-68.34 181.65,-63.24 180.49,-70.14"/>
</a>
</g>
</g>
<!-- Node3 -->
<g id="Node000003" class="node">
<title>Node3</title>
<g id="a_Node000003"><a xlink:href="namespaceanonymous__namespace_02Se050Handler_8cpp_03.html#a2a6831a1ec2b7c917f283d1788590978" target="_top" xlink:title=" ">
<polygon fill="white" stroke="#666666" points="326,-41 191,-41 191,0 326,0 326,-41"/>
<text text-anchor="start" x="199" y="-29" font-family="Helvetica,sans-Serif" font-size="10.00">anonymous_namespace</text>
<text text-anchor="start" x="199" y="-18" font-family="Helvetica,sans-Serif" font-size="10.00">{Se050Handler::cpp}</text>
<text text-anchor="middle" x="258.5" y="-7" font-family="Helvetica,sans-Serif" font-size="10.00">::MapI2c</text>
</a>
</g>
</g>
<!-- Node1&#45;&gt;Node3 -->
<g id="edge2_Node000001_Node000003" class="edge">
<title>Node1&#45;&gt;Node3</title>
<g id="a_edge2_Node000001_Node000003"><a xlink:title=" ">
<path fill="none" stroke="#63b8ff" d="M137.61,-39.92C151.42,-37.69 166.34,-35.27 180.8,-32.93"/>
<polygon fill="#63b8ff" stroke="#63b8ff" points="181.41,-36.37 190.72,-31.32 180.29,-29.46 181.41,-36.37"/>
</a>
</g>
</g>
</g>
</svg>
