<?xml version="1.0" encoding="UTF-8" standalone="no"?>
<!DOCTYPE svg PUBLIC "-//W3C//DTD SVG 1.1//EN"
 "http://www.w3.org/Graphics/SVG/1.1/DTD/svg11.dtd">
<!-- Generated by graphviz version 2.43.0 (0)
 -->
<!-- Title: Tmc9660Handler::driverViaUart Pages: 1 -->
<svg width="901pt" height="113pt"
 viewBox="0.00 0.00 901.00 112.50" xmlns="http://www.w3.org/2000/svg" xmlns:xlink="http://www.w3.org/1999/xlink">
<g id="graph0" class="graph" transform="scale(1 1) rotate(0) translate(4 108.5)">
<title>Tmc9660Handler::driverViaUart</title>
<!-- Node1 -->
<g id="Node000001" class="node">
<title>Node1</title>
<g id="a_Node000001"><a xlink:title="Get the TMC9660 driver instance connected via UART (nullptr if using SPI).">
<polygon fill="#999999" stroke="#666666" points="171,-45.5 0,-45.5 0,-26.5 171,-26.5 171,-45.5"/>
<text text-anchor="middle" x="85.5" y="-33.5" font-family="Helvetica,sans-Serif" font-size="10.00">Tmc9660Handler::driverViaUart</text>
</a>
</g>
</g>
<!-- Node2 -->
<g id="Node000002" class="node">
<title>Node2</title>
<g id="a_Node000002"><a xlink:href="classTmc9660Handler.html#a5a279ae9d4b5a8e0d71cb24577ad88ea" target="_top" xlink:title="Ensure driver is initialized (lazy init entrypoint).">
<polygon fill="white" stroke="#666666" points="394,-45.5 207,-45.5 207,-26.5 394,-26.5 394,-45.5"/>
<text text-anchor="middle" x="300.5" y="-33.5" font-family="Helvetica,sans-Serif" font-size="10.00">Tmc9660Handler::EnsureInitialized</text>
</a>
</g>
</g>
<!-- Node1&#45;&gt;Node2 -->
<g id="edge1_Node000001_Node000002" class="edge">
<title>Node1&#45;&gt;Node2</title>
<g id="a_edge1_Node000001_Node000002"><a xlink:title=" ">
<path fill="none" stroke="#63b8ff" d="M171.3,-36C179.72,-36 188.33,-36 196.91,-36"/>
<polygon fill="#63b8ff" stroke="#63b8ff" points="196.95,-39.5 206.95,-36 196.95,-32.5 196.95,-39.5"/>
</a>
</g>
</g>
<!-- Node3 -->
<g id="Node000003" class="node">
<title>Node3</title>
<g id="a_Node000003"><a xlink:href="classTmc9660Handler.html#adc564847f8ae26c47412aaee0758991c" target="_top" xlink:title="Initialize the TMC9660 device.">
<polygon fill="white" stroke="#666666" points="578,-67.5 430,-67.5 430,-48.5 578,-48.5 578,-67.5"/>
<text text-anchor="middle" x="504" y="-55.5" font-family="Helvetica,sans-Serif" font-size="10.00">Tmc9660Handler::Initialize</text>
</a>
</g>
</g>
<!-- Node2&#45;&gt;Node3 -->
<g id="edge2_Node000002_Node000003" class="edge">
<title>Node2&#45;&gt;Node3</title>
<g id="a_edge2_Node000002_Node000003"><a xlink:title=" ">
<path fill="none" stroke="#63b8ff" d="M388.71,-45.52C399,-46.65 409.48,-47.79 419.72,-48.91"/>
<polygon fill="#63b8ff" stroke="#63b8ff" points="419.53,-52.41 429.85,-50.01 420.29,-45.45 419.53,-52.41"/>
</a>
</g>
</g>
<!-- Node9 -->
<g id="Node000009" class="node">
<title>Node9</title>
<g id="a_Node000009"><a xlink:href="classTmc9660Handler.html#a13db97d201a287d8aa60384e04070b9f" target="_top" xlink:title="Check if the TMC9660 driver has been initialized and is ready.">
<polygon fill="white" stroke="#666666" points="576,-30 432,-30 432,0 576,0 576,-30"/>
<text text-anchor="start" x="440" y="-18" font-family="Helvetica,sans-Serif" font-size="10.00">Tmc9660Handler::IsDriver</text>
<text text-anchor="middle" x="504" y="-7" font-family="Helvetica,sans-Serif" font-size="10.00">Ready</text>
</a>
</g>
</g>
<!-- Node2&#45;&gt;Node9 -->
<g id="edge10_Node000002_Node000009" class="edge">
<title>Node2&#45;&gt;Node9</title>
<g id="a_edge10_Node000002_Node000009"><a xlink:title=" ">
<path fill="none" stroke="#63b8ff" d="M392.82,-26.48C402.45,-25.48 412.2,-24.46 421.71,-23.47"/>
<polygon fill="#63b8ff" stroke="#63b8ff" points="422.34,-26.93 431.92,-22.41 421.61,-19.96 422.34,-26.93"/>
</a>
</g>
</g>
<!-- Node4 -->
<g id="Node000004" class="node">
<title>Node4</title>
<g id="a_Node000004"><a xlink:href="classLogger.html#adce17848a5844e053bfd314863dc1404" target="_top" xlink:title="Log error message.">
<polygon fill="white" stroke="#666666" points="710.5,-67.5 631.5,-67.5 631.5,-48.5 710.5,-48.5 710.5,-67.5"/>
<text text-anchor="middle" x="671" y="-55.5" font-family="Helvetica,sans-Serif" font-size="10.00">Logger::Error</text>
</a>
</g>
</g>
<!-- Node3&#45;&gt;Node4 -->
<g id="edge3_Node000003_Node000004" class="edge">
<title>Node3&#45;&gt;Node4</title>
<g id="a_edge3_Node000003_Node000004"><a xlink:title=" ">
<path fill="none" stroke="#63b8ff" d="M578.33,-58C592.73,-58 607.5,-58 620.87,-58"/>
<polygon fill="#63b8ff" stroke="#63b8ff" points="621.26,-61.5 631.26,-58 621.26,-54.5 621.26,-61.5"/>
</a>
</g>
</g>
<!-- Node7 -->
<g id="Node000007" class="node">
<title>Node7</title>
<g id="a_Node000007"><a xlink:href="classLogger.html#a5789d11f8f1356e2192c0023a089cbc4" target="_top" xlink:title="Get singleton instance.">
<polygon fill="white" stroke="#666666" points="728,-30.5 614,-30.5 614,-11.5 728,-11.5 728,-30.5"/>
<text text-anchor="middle" x="671" y="-18.5" font-family="Helvetica,sans-Serif" font-size="10.00">Logger::GetInstance</text>
</a>
</g>
</g>
<!-- Node3&#45;&gt;Node7 -->
<g id="edge6_Node000003_Node000007" class="edge">
<title>Node3&#45;&gt;Node7</title>
<g id="a_edge6_Node000003_Node000007"><a xlink:title=" ">
<path fill="none" stroke="#63b8ff" d="M547.49,-48.47C568.87,-43.68 594.97,-37.82 617.58,-32.75"/>
<polygon fill="#63b8ff" stroke="#63b8ff" points="618.37,-36.16 627.37,-30.56 616.84,-29.33 618.37,-36.16"/>
</a>
</g>
</g>
<!-- Node8 -->
<g id="Node000008" class="node">
<title>Node8</title>
<g id="a_Node000008"><a xlink:href="classLogger.html#a4681229c521795685fc14f6b55c82300" target="_top" xlink:title="Log info message.">
<polygon fill="white" stroke="#666666" points="708,-104.5 634,-104.5 634,-85.5 708,-85.5 708,-104.5"/>
<text text-anchor="middle" x="671" y="-92.5" font-family="Helvetica,sans-Serif" font-size="10.00">Logger::Info</text>
</a>
</g>
</g>
<!-- Node3&#45;&gt;Node8 -->
<g id="edge7_Node000003_Node000008" class="edge">
<title>Node3&#45;&gt;Node8</title>
<g id="a_edge7_Node000003_Node000008"><a xlink:title=" ">
<path fill="none" stroke="#63b8ff" d="M547.49,-67.53C570.89,-72.77 599.94,-79.29 623.89,-84.66"/>
<polygon fill="#63b8ff" stroke="#63b8ff" points="623.28,-88.11 633.8,-86.88 624.81,-81.28 623.28,-88.11"/>
</a>
</g>
</g>
<!-- Node5 -->
<g id="Node000005" class="node">
<title>Node5</title>
<g id="a_Node000005"><a xlink:href="classLogger.html#af9e84e0ff6bd538e4f9ed8dcebc3e2f0" target="_top" xlink:title="Check if log level is enabled for tag.">
<polygon fill="white" stroke="#666666" points="893,-104.5 764,-104.5 764,-85.5 893,-85.5 893,-104.5"/>
<text text-anchor="middle" x="828.5" y="-92.5" font-family="Helvetica,sans-Serif" font-size="10.00">Logger::IsLevelEnabled</text>
</a>
</g>
</g>
<!-- Node4&#45;&gt;Node5 -->
<g id="edge4_Node000004_Node000005" class="edge">
<title>Node4&#45;&gt;Node5</title>
<g id="a_edge4_Node000004_Node000005"><a xlink:title=" ">
<path fill="none" stroke="#63b8ff" d="M710.84,-67.24C731.03,-72.05 755.94,-77.97 777.55,-83.11"/>
<polygon fill="#63b8ff" stroke="#63b8ff" points="777,-86.58 787.53,-85.49 778.62,-79.77 777,-86.58"/>
</a>
</g>
</g>
<!-- Node6 -->
<g id="Node000006" class="node">
<title>Node6</title>
<g id="a_Node000006"><a xlink:href="classLogger.html#a6adb205db597526fb91ad20067400394" target="_top" xlink:title="Internal logging method.">
<polygon fill="white" stroke="#666666" points="883.5,-67.5 773.5,-67.5 773.5,-48.5 883.5,-48.5 883.5,-67.5"/>
<text text-anchor="middle" x="828.5" y="-55.5" font-family="Helvetica,sans-Serif" font-size="10.00">Logger::LogInternal</text>
</a>
</g>
</g>
<!-- Node4&#45;&gt;Node6 -->
<g id="edge5_Node000004_Node000006" class="edge">
<title>Node4&#45;&gt;Node6</title>
<g id="a_edge5_Node000004_Node000006"><a xlink:title=" ">
<path fill="none" stroke="#63b8ff" d="M710.84,-58C726.63,-58 745.31,-58 763.03,-58"/>
<polygon fill="#63b8ff" stroke="#63b8ff" points="763.33,-61.5 773.33,-58 763.33,-54.5 763.33,-61.5"/>
</a>
</g>
</g>
<!-- Node8&#45;&gt;Node5 -->
<g id="edge8_Node000008_Node000005" class="edge">
<title>Node8&#45;&gt;Node5</title>
<g id="a_edge8_Node000008_Node000005"><a xlink:title=" ">
<path fill="none" stroke="#63b8ff" d="M708.07,-95C721.68,-95 737.72,-95 753.55,-95"/>
<polygon fill="#63b8ff" stroke="#63b8ff" points="753.89,-98.5 763.89,-95 753.89,-91.5 753.89,-98.5"/>
</a>
</g>
</g>
<!-- Node8&#45;&gt;Node6 -->
<g id="edge9_Node000008_Node000006" class="edge">
<title>Node8&#45;&gt;Node6</title>
<g id="a_edge9_Node000008_Node000006"><a xlink:title=" ">
<path fill="none" stroke="#63b8ff" d="M708.07,-86.42C728.78,-81.49 755.09,-75.23 777.74,-69.84"/>
<polygon fill="#63b8ff" stroke="#63b8ff" points="778.61,-73.23 787.53,-67.51 776.99,-66.42 778.61,-73.23"/>
</a>
</g>
</g>
</g>
</svg>
