<?xml version="1.0" encoding="UTF-8" standalone="no"?>
<!DOCTYPE svg PUBLIC "-//W3C//DTD SVG 1.1//EN"
 "http://www.w3.org/Graphics/SVG/1.1/DTD/svg11.dtd">
<!-- Generated by graphviz version 2.43.0 (0)
 -->
<!-- Title: Ws2812Handler Pages: 1 -->
<svg width="388pt" height="101pt"
 viewBox="0.00 0.00 388.00 101.00" xmlns="http://www.w3.org/2000/svg" xmlns:xlink="http://www.w3.org/1999/xlink">
<g id="graph0" class="graph" transform="scale(1 1) rotate(0) translate(4 97)">
<title>Ws2812Handler</title>
<!-- Node1 -->
<g id="Node000001" class="node">
<title>Node1</title>
<g id="a_Node000001"><a xlink:title="Unified handler for WS2812 addressable LED strips.">
<polygon fill="#999999" stroke="#666666" points="380,-56 286,-56 286,-37 380,-37 380,-56"/>
<text text-anchor="middle" x="333" y="-44" font-family="Helvetica,sans-Serif" font-size="10.00">Ws2812Handler</text>
</a>
</g>
</g>
<!-- Node2 -->
<g id="Node000002" class="node">
<title>Node2</title>
<g id="a_Node000002"><a xlink:href="structWs2812Handler_1_1Config.html" target="_top" xlink:title="Configuration structure for the WS2812 handler.">
<polygon fill="white" stroke="#666666" points="164,-93 33,-93 33,-74 164,-74 164,-93"/>
<text text-anchor="middle" x="98.5" y="-81" font-family="Helvetica,sans-Serif" font-size="10.00">Ws2812Handler::Config</text>
</a>
</g>
</g>
<!-- Node2&#45;&gt;Node1 -->
<g id="edge1_Node000001_Node000002" class="edge">
<title>Node2&#45;&gt;Node1</title>
<g id="a_edge1_Node000001_Node000002"><a xlink:title=" ">
<path fill="none" stroke="#9a32cd" stroke-dasharray="5,2" d="M174.31,-75.37C203.63,-71.75 237.49,-67.05 268,-61.5 276.53,-59.95 285.64,-57.99 294.23,-56.02"/>
<polygon fill="#9a32cd" stroke="#9a32cd" points="173.65,-71.92 164.15,-76.6 174.5,-78.87 173.65,-71.92"/>
</a>
</g>
<text text-anchor="middle" x="241.5" y="-72.5" font-family="Helvetica,sans-Serif" font-size="10.00" fill="grey"> config_</text>
</g>
<!-- Node3 -->
<g id="Node000003" class="node">
<title>Node3</title>
<g id="a_Node000003"><a xlink:title=" ">
<polygon fill="white" stroke="#666666" points="185.5,-56 11.5,-56 11.5,-37 185.5,-37 185.5,-56"/>
<text text-anchor="middle" x="98.5" y="-44" font-family="Helvetica,sans-Serif" font-size="10.00">std::unique_ptr&lt; WS2812Strip &gt;</text>
</a>
</g>
</g>
<!-- Node3&#45;&gt;Node1 -->
<g id="edge2_Node000001_Node000003" class="edge">
<title>Node3&#45;&gt;Node1</title>
<g id="a_edge2_Node000001_Node000003"><a xlink:title=" ">
<path fill="none" stroke="#9a32cd" stroke-dasharray="5,2" d="M195.79,-46.5C227,-46.5 260.19,-46.5 285.99,-46.5"/>
<polygon fill="#9a32cd" stroke="#9a32cd" points="195.74,-43 185.74,-46.5 195.74,-50 195.74,-43"/>
</a>
</g>
<text text-anchor="middle" x="241.5" y="-49.5" font-family="Helvetica,sans-Serif" font-size="10.00" fill="grey"> strip_</text>
</g>
<!-- Node4 -->
<g id="Node000004" class="node">
<title>Node4</title>
<g id="a_Node000004"><a xlink:title=" ">
<polygon fill="white" stroke="#666666" points="197,-19 0,-19 0,0 197,0 197,-19"/>
<text text-anchor="middle" x="98.5" y="-7" font-family="Helvetica,sans-Serif" font-size="10.00">std::unique_ptr&lt; WS2812Animator &gt;</text>
</a>
</g>
</g>
<!-- Node4&#45;&gt;Node1 -->
<g id="edge3_Node000001_Node000004" class="edge">
<title>Node4&#45;&gt;Node1</title>
<g id="a_edge3_Node000001_Node000004"><a xlink:title=" ">
<path fill="none" stroke="#9a32cd" stroke-dasharray="5,2" d="M195.55,-20.35C219.3,-23.49 244.63,-27.25 268,-31.5 276.53,-33.05 285.64,-35.01 294.23,-36.98"/>
<polygon fill="#9a32cd" stroke="#9a32cd" points="195.85,-16.86 185.48,-19.03 194.94,-23.8 195.85,-16.86"/>
</a>
</g>
<text text-anchor="middle" x="241.5" y="-34.5" font-family="Helvetica,sans-Serif" font-size="10.00" fill="grey"> animator_</text>
</g>
</g>
</svg>
