<?xml version="1.0" encoding="UTF-8" standalone="no"?>
<!DOCTYPE svg PUBLIC "-//W3C//DTD SVG 1.1//EN"
 "http://www.w3.org/Graphics/SVG/1.1/DTD/svg11.dtd">
<!-- Generated by graphviz version 2.43.0 (0)
 -->
<!-- Title: Tmc9660Handler::driverViaSpi Pages: 1 -->
<svg width="1507pt" height="113pt"
 viewBox="0.00 0.00 1507.00 112.50" xmlns="http://www.w3.org/2000/svg" xmlns:xlink="http://www.w3.org/1999/xlink">
<g id="graph0" class="graph" transform="scale(1 1) rotate(0) translate(4 108.5)">
<title>Tmc9660Handler::driverViaSpi</title>
<!-- Node1 -->
<g id="Node000001" class="node">
<title>Node1</title>
<g id="a_Node000001"><a xlink:title="Const version of driverViaSpi().">
<polygon fill="#999999" stroke="#666666" points="165,-45.5 0,-45.5 0,-26.5 165,-26.5 165,-45.5"/>
<text text-anchor="middle" x="82.5" y="-33.5" font-family="Helvetica,sans-Serif" font-size="10.00">Tmc9660Handler::driverViaSpi</text>
</a>
</g>
</g>
<!-- Node2 -->
<g id="Node000002" class="node">
<title>Node2</title>
<g id="a_Node000002"><a xlink:href="classTmc9660Handler.html#a85be9cd2e065b83c7abb36cb70fa6c67" target="_top" xlink:title="Get the TMC9660 driver instance connected via SPI (nullptr if using UART).">
<polygon fill="white" stroke="#666666" points="366,-45.5 201,-45.5 201,-26.5 366,-26.5 366,-45.5"/>
<text text-anchor="middle" x="283.5" y="-33.5" font-family="Helvetica,sans-Serif" font-size="10.00">Tmc9660Handler::driverViaSpi</text>
</a>
</g>
</g>
<!-- Node1&#45;&gt;Node2 -->
<g id="edge1_Node000001_Node000002" class="edge">
<title>Node1&#45;&gt;Node2</title>
<g id="a_edge1_Node000001_Node000002"><a xlink:title=" ">
<path fill="none" stroke="#63b8ff" d="M165.02,-36C173.5,-36 182.17,-36 190.76,-36"/>
<polygon fill="#63b8ff" stroke="#63b8ff" points="190.79,-39.5 200.79,-36 190.79,-32.5 190.79,-39.5"/>
</a>
</g>
</g>
<!-- Node3 -->
<g id="Node000003" class="node">
<title>Node3</title>
<g id="a_Node000003"><a xlink:href="classTmc9660Handler.html#a5a279ae9d4b5a8e0d71cb24577ad88ea" target="_top" xlink:title="Ensure driver is initialized (lazy init entrypoint).">
<polygon fill="white" stroke="#666666" points="589,-45.5 402,-45.5 402,-26.5 589,-26.5 589,-45.5"/>
<text text-anchor="middle" x="495.5" y="-33.5" font-family="Helvetica,sans-Serif" font-size="10.00">Tmc9660Handler::EnsureInitialized</text>
</a>
</g>
</g>
<!-- Node2&#45;&gt;Node3 -->
<g id="edge2_Node000002_Node000003" class="edge">
<title>Node2&#45;&gt;Node3</title>
<g id="a_edge2_Node000002_Node000003"><a xlink:title=" ">
<path fill="none" stroke="#63b8ff" d="M366.29,-36C374.65,-36 383.22,-36 391.77,-36"/>
<polygon fill="#63b8ff" stroke="#63b8ff" points="391.78,-39.5 401.78,-36 391.78,-32.5 391.78,-39.5"/>
</a>
</g>
</g>
<!-- Node4 -->
<g id="Node000004" class="node">
<title>Node4</title>
<g id="a_Node000004"><a xlink:href="classTmc9660Handler.html#a7c1d8073576d678b09dac24c9eb12845" target="_top" xlink:title="Ensure initialized while handler_mutex_ is already held.">
<polygon fill="white" stroke="#666666" points="812,-51 625,-51 625,-21 812,-21 812,-51"/>
<text text-anchor="start" x="633" y="-39" font-family="Helvetica,sans-Serif" font-size="10.00">Tmc9660Handler::EnsureInitialized</text>
<text text-anchor="middle" x="718.5" y="-28" font-family="Helvetica,sans-Serif" font-size="10.00">Locked</text>
</a>
</g>
</g>
<!-- Node3&#45;&gt;Node4 -->
<g id="edge3_Node000003_Node000004" class="edge">
<title>Node3&#45;&gt;Node4</title>
<g id="a_edge3_Node000003_Node000004"><a xlink:title=" ">
<path fill="none" stroke="#63b8ff" d="M589.26,-36C597.75,-36 606.39,-36 614.96,-36"/>
<polygon fill="#63b8ff" stroke="#63b8ff" points="614.97,-39.5 624.97,-36 614.97,-32.5 614.97,-39.5"/>
</a>
</g>
</g>
<!-- Node5 -->
<g id="Node000005" class="node">
<title>Node5</title>
<g id="a_Node000005"><a xlink:href="classTmc9660Handler.html#adc564847f8ae26c47412aaee0758991c" target="_top" xlink:title="Initialize the TMC9660 device.">
<polygon fill="white" stroke="#666666" points="996,-67.5 848,-67.5 848,-48.5 996,-48.5 996,-67.5"/>
<text text-anchor="middle" x="922" y="-55.5" font-family="Helvetica,sans-Serif" font-size="10.00">Tmc9660Handler::Initialize</text>
</a>
</g>
</g>
<!-- Node4&#45;&gt;Node5 -->
<g id="edge4_Node000004_Node000005" class="edge">
<title>Node4&#45;&gt;Node5</title>
<g id="a_edge4_Node000004_Node000005"><a xlink:title=" ">
<path fill="none" stroke="#63b8ff" d="M812.29,-46.13C820.73,-47.05 829.25,-47.98 837.61,-48.9"/>
<polygon fill="#63b8ff" stroke="#63b8ff" points="837.38,-52.39 847.7,-50 838.14,-45.43 837.38,-52.39"/>
</a>
</g>
</g>
<!-- Node12 -->
<g id="Node000012" class="node">
<title>Node12</title>
<g id="a_Node000012"><a xlink:href="classTmc9660Handler.html#a13db97d201a287d8aa60384e04070b9f" target="_top" xlink:title="Check if the TMC9660 driver has been initialized and is ready.">
<polygon fill="white" stroke="#666666" points="994,-30 850,-30 850,0 994,0 994,-30"/>
<text text-anchor="start" x="858" y="-18" font-family="Helvetica,sans-Serif" font-size="10.00">Tmc9660Handler::IsDriver</text>
<text text-anchor="middle" x="922" y="-7" font-family="Helvetica,sans-Serif" font-size="10.00">Ready</text>
</a>
</g>
</g>
<!-- Node4&#45;&gt;Node12 -->
<g id="edge13_Node000004_Node000012" class="edge">
<title>Node4&#45;&gt;Node12</title>
<g id="a_edge13_Node000004_Node000012"><a xlink:title=" ">
<path fill="none" stroke="#63b8ff" d="M812.29,-26.33C821.44,-25.38 830.69,-24.41 839.71,-23.47"/>
<polygon fill="#63b8ff" stroke="#63b8ff" points="840.21,-26.94 849.8,-22.42 839.49,-19.98 840.21,-26.94"/>
</a>
</g>
</g>
<!-- Node6 -->
<g id="Node000006" class="node">
<title>Node6</title>
<g id="a_Node000006"><a xlink:href="classLogger.html#adce17848a5844e053bfd314863dc1404" target="_top" xlink:title="Log error message.">
<polygon fill="white" stroke="#666666" points="1128.5,-67.5 1049.5,-67.5 1049.5,-48.5 1128.5,-48.5 1128.5,-67.5"/>
<text text-anchor="middle" x="1089" y="-55.5" font-family="Helvetica,sans-Serif" font-size="10.00">Logger::Error</text>
</a>
</g>
</g>
<!-- Node5&#45;&gt;Node6 -->
<g id="edge5_Node000005_Node000006" class="edge">
<title>Node5&#45;&gt;Node6</title>
<g id="a_edge5_Node000005_Node000006"><a xlink:title=" ">
<path fill="none" stroke="#63b8ff" d="M996.33,-58C1010.73,-58 1025.5,-58 1038.87,-58"/>
<polygon fill="#63b8ff" stroke="#63b8ff" points="1039.26,-61.5 1049.26,-58 1039.26,-54.5 1039.26,-61.5"/>
</a>
</g>
</g>
<!-- Node10 -->
<g id="Node000010" class="node">
<title>Node10</title>
<g id="a_Node000010"><a xlink:href="classLogger.html#a5789d11f8f1356e2192c0023a089cbc4" target="_top" xlink:title="Get singleton instance.">
<polygon fill="white" stroke="#666666" points="1146,-30.5 1032,-30.5 1032,-11.5 1146,-11.5 1146,-30.5"/>
<text text-anchor="middle" x="1089" y="-18.5" font-family="Helvetica,sans-Serif" font-size="10.00">Logger::GetInstance</text>
</a>
</g>
</g>
<!-- Node5&#45;&gt;Node10 -->
<g id="edge9_Node000005_Node000010" class="edge">
<title>Node5&#45;&gt;Node10</title>
<g id="a_edge9_Node000005_Node000010"><a xlink:title=" ">
<path fill="none" stroke="#63b8ff" d="M965.49,-48.47C986.87,-43.68 1012.97,-37.82 1035.58,-32.75"/>
<polygon fill="#63b8ff" stroke="#63b8ff" points="1036.37,-36.16 1045.37,-30.56 1034.84,-29.33 1036.37,-36.16"/>
</a>
</g>
</g>
<!-- Node11 -->
<g id="Node000011" class="node">
<title>Node11</title>
<g id="a_Node000011"><a xlink:href="classLogger.html#a4681229c521795685fc14f6b55c82300" target="_top" xlink:title="Log info message.">
<polygon fill="white" stroke="#666666" points="1126,-104.5 1052,-104.5 1052,-85.5 1126,-85.5 1126,-104.5"/>
<text text-anchor="middle" x="1089" y="-92.5" font-family="Helvetica,sans-Serif" font-size="10.00">Logger::Info</text>
</a>
</g>
</g>
<!-- Node5&#45;&gt;Node11 -->
<g id="edge10_Node000005_Node000011" class="edge">
<title>Node5&#45;&gt;Node11</title>
<g id="a_edge10_Node000005_Node000011"><a xlink:title=" ">
<path fill="none" stroke="#63b8ff" d="M965.49,-67.53C988.89,-72.77 1017.94,-79.29 1041.89,-84.66"/>
<polygon fill="#63b8ff" stroke="#63b8ff" points="1041.28,-88.11 1051.8,-86.88 1042.81,-81.28 1041.28,-88.11"/>
</a>
</g>
</g>
<!-- Node7 -->
<g id="Node000007" class="node">
<title>Node7</title>
<g id="a_Node000007"><a xlink:href="classLogger.html#af9e84e0ff6bd538e4f9ed8dcebc3e2f0" target="_top" xlink:title="Check if log level is enabled for tag.">
<polygon fill="white" stroke="#666666" points="1311,-104.5 1182,-104.5 1182,-85.5 1311,-85.5 1311,-104.5"/>
<text text-anchor="middle" x="1246.5" y="-92.5" font-family="Helvetica,sans-Serif" font-size="10.00">Logger::IsLevelEnabled</text>
</a>
</g>
</g>
<!-- Node6&#45;&gt;Node7 -->
<g id="edge6_Node000006_Node000007" class="edge">
<title>Node6&#45;&gt;Node7</title>
<g id="a_edge6_Node000006_Node000007"><a xlink:title=" ">
<path fill="none" stroke="#63b8ff" d="M1128.84,-67.24C1149.03,-72.05 1173.94,-77.97 1195.55,-83.11"/>
<polygon fill="#63b8ff" stroke="#63b8ff" points="1195,-86.58 1205.53,-85.49 1196.62,-79.77 1195,-86.58"/>
</a>
</g>
</g>
<!-- Node8 -->
<g id="Node000008" class="node">
<title>Node8</title>
<g id="a_Node000008"><a xlink:href="classLogger.html#a6adb205db597526fb91ad20067400394" target="_top" xlink:title="Internal logging method.">
<polygon fill="white" stroke="#666666" points="1301.5,-67.5 1191.5,-67.5 1191.5,-48.5 1301.5,-48.5 1301.5,-67.5"/>
<text text-anchor="middle" x="1246.5" y="-55.5" font-family="Helvetica,sans-Serif" font-size="10.00">Logger::LogInternal</text>
</a>
</g>
</g>
<!-- Node6&#45;&gt;Node8 -->
<g id="edge7_Node000006_Node000008" class="edge">
<title>Node6&#45;&gt;Node8</title>
<g id="a_edge7_Node000006_Node000008"><a xlink:title=" ">
<path fill="none" stroke="#63b8ff" d="M1128.84,-58C1144.63,-58 1163.31,-58 1181.03,-58"/>
<polygon fill="#63b8ff" stroke="#63b8ff" points="1181.33,-61.5 1191.33,-58 1181.33,-54.5 1181.33,-61.5"/>
</a>
</g>
</g>
<!-- Node9 -->
<g id="Node000009" class="node">
<title>Node9</title>
<g id="a_Node000009"><a xlink:href="namespaceanonymous__namespace_02Logger_8cpp_03.html#a9d2b496fa1b4f4e28667d14e4b8cb190" target="_top" xlink:title=" ">
<polygon fill="white" stroke="#666666" points="1499,-73 1347,-73 1347,-43 1499,-43 1499,-73"/>
<text text-anchor="start" x="1355" y="-61" font-family="Helvetica,sans-Serif" font-size="10.00">anonymous_namespace</text>
<text text-anchor="middle" x="1423" y="-50" font-family="Helvetica,sans-Serif" font-size="10.00">{Logger::cpp}::ToBaseLevel</text>
</a>
</g>
</g>
<!-- Node8&#45;&gt;Node9 -->
<g id="edge8_Node000008_Node000009" class="edge">
<title>Node8&#45;&gt;Node9</title>
<g id="a_edge8_Node000008_Node000009"><a xlink:title=" ">
<path fill="none" stroke="#63b8ff" d="M1301.76,-58C1312.93,-58 1324.96,-58 1336.93,-58"/>
<polygon fill="#63b8ff" stroke="#63b8ff" points="1336.95,-61.5 1346.95,-58 1336.95,-54.5 1336.95,-61.5"/>
</a>
</g>
</g>
<!-- Node11&#45;&gt;Node7 -->
<g id="edge11_Node000011_Node000007" class="edge">
<title>Node11&#45;&gt;Node7</title>
<g id="a_edge11_Node000011_Node000007"><a xlink:title=" ">
<path fill="none" stroke="#63b8ff" d="M1126.07,-95C1139.68,-95 1155.72,-95 1171.55,-95"/>
<polygon fill="#63b8ff" stroke="#63b8ff" points="1171.89,-98.5 1181.89,-95 1171.89,-91.5 1171.89,-98.5"/>
</a>
</g>
</g>
<!-- Node11&#45;&gt;Node8 -->
<g id="edge12_Node000011_Node000008" class="edge">
<title>Node11&#45;&gt;Node8</title>
<g id="a_edge12_Node000011_Node000008"><a xlink:title=" ">
<path fill="none" stroke="#63b8ff" d="M1126.07,-86.42C1146.78,-81.49 1173.09,-75.23 1195.74,-69.84"/>
<polygon fill="#63b8ff" stroke="#63b8ff" points="1196.61,-73.23 1205.53,-67.51 1194.99,-66.42 1196.61,-73.23"/>
</a>
</g>
</g>
</g>
</svg>
