<?xml version="1.0" encoding="UTF-8" standalone="no"?>
<!DOCTYPE svg PUBLIC "-//W3C//DTD SVG 1.1//EN"
 "http://www.w3.org/Graphics/SVG/1.1/DTD/svg11.dtd">
<!-- Generated by graphviz version 2.43.0 (0)
 -->
<!-- Title: Tmc9660AdcWrapper::ResetStatistics Pages: 1 -->
<svg width="1069pt" height="235pt"
 viewBox="0.00 0.00 1069.00 235.00" xmlns="http://www.w3.org/2000/svg" xmlns:xlink="http://www.w3.org/1999/xlink">
<g id="graph0" class="graph" transform="scale(1 1) rotate(0) translate(4 231)">
<title>Tmc9660AdcWrapper::ResetStatistics</title>
<!-- Node1 -->
<g id="Node000001" class="node">
<title>Node1</title>
<g id="a_Node000001"><a xlink:title=" ">
<polygon fill="#999999" stroke="#666666" points="127,-203 0,-203 0,-173 127,-173 127,-203"/>
<text text-anchor="start" x="8" y="-191" font-family="Helvetica,sans-Serif" font-size="10.00">Tmc9660AdcWrapper::</text>
<text text-anchor="middle" x="63.5" y="-180" font-family="Helvetica,sans-Serif" font-size="10.00">ResetStatistics</text>
</a>
</g>
</g>
<!-- Node2 -->
<g id="Node000002" class="node">
<title>Node2</title>
<g id="a_Node000002"><a xlink:href="classTmc9660Handler.html#a7fe382c4dbf6bf84ed31586e52ec2e6e" target="_top" xlink:title="Get a reference to the ADC wrapper.">
<polygon fill="white" stroke="#666666" points="286,-178.5 163,-178.5 163,-159.5 286,-159.5 286,-178.5"/>
<text text-anchor="middle" x="224.5" y="-166.5" font-family="Helvetica,sans-Serif" font-size="10.00">Tmc9660Handler::adc</text>
</a>
</g>
</g>
<!-- Node1&#45;&gt;Node2 -->
<g id="edge1_Node000001_Node000002" class="edge">
<title>Node1&#45;&gt;Node2</title>
<g id="a_edge1_Node000001_Node000002"><a xlink:title=" ">
<path fill="none" stroke="#63b8ff" d="M127.34,-180.49C135.76,-179.48 144.45,-178.45 152.99,-177.43"/>
<polygon fill="#63b8ff" stroke="#63b8ff" points="153.42,-180.9 162.93,-176.24 152.59,-173.95 153.42,-180.9"/>
</a>
</g>
</g>
<!-- Node12 -->
<g id="Node000012" class="node">
<title>Node12</title>
<g id="a_Node000012"><a xlink:href="classTmc9660Handler_1_1Adc.html#aeb392d8c266f3183dbce1f31f7bff568" target="_top" xlink:title="Reset all accumulated statistics to zero.">
<polygon fill="white" stroke="#666666" points="477.5,-227 353.5,-227 353.5,-197 477.5,-197 477.5,-227"/>
<text text-anchor="start" x="361.5" y="-215" font-family="Helvetica,sans-Serif" font-size="10.00">Tmc9660Handler::Adc</text>
<text text-anchor="middle" x="415.5" y="-204" font-family="Helvetica,sans-Serif" font-size="10.00">::ResetStatistics</text>
</a>
</g>
</g>
<!-- Node1&#45;&gt;Node12 -->
<g id="edge17_Node000001_Node000012" class="edge">
<title>Node1&#45;&gt;Node12</title>
<g id="a_edge17_Node000001_Node000012"><a xlink:title=" ">
<path fill="none" stroke="#63b8ff" d="M127.07,-192.29C187.7,-196.45 279.55,-202.75 343.02,-207.1"/>
<polygon fill="#63b8ff" stroke="#63b8ff" points="343.13,-210.61 353.35,-207.81 343.61,-203.63 343.13,-210.61"/>
</a>
</g>
</g>
<!-- Node3 -->
<g id="Node000003" class="node">
<title>Node3</title>
<g id="a_Node000003"><a xlink:href="classTmc9660Handler.html#a5a279ae9d4b5a8e0d71cb24577ad88ea" target="_top" xlink:title="Ensure driver is initialized (lazy init entrypoint).">
<polygon fill="white" stroke="#666666" points="509,-121.5 322,-121.5 322,-102.5 509,-102.5 509,-121.5"/>
<text text-anchor="middle" x="415.5" y="-109.5" font-family="Helvetica,sans-Serif" font-size="10.00">Tmc9660Handler::EnsureInitialized</text>
</a>
</g>
</g>
<!-- Node2&#45;&gt;Node3 -->
<g id="edge2_Node000002_Node000003" class="edge">
<title>Node2&#45;&gt;Node3</title>
<g id="a_edge2_Node000002_Node000003"><a xlink:title=" ">
<path fill="none" stroke="#63b8ff" d="M257.13,-159.46C288.89,-149.88 337.97,-135.08 372.87,-124.55"/>
<polygon fill="#63b8ff" stroke="#63b8ff" points="374.2,-127.81 382.76,-121.57 372.18,-121.11 374.2,-127.81"/>
</a>
</g>
</g>
<!-- Node11 -->
<g id="Node000011" class="node">
<title>Node11</title>
<g id="a_Node000011"><a xlink:href="classTmc9660Handler.html#a393382194d0602e7aa02da6a8fd7a20a" target="_top" xlink:title="Get a reference to the Temperature wrapper.">
<polygon fill="white" stroke="#666666" points="896,-178.5 729,-178.5 729,-159.5 896,-159.5 896,-178.5"/>
<text text-anchor="middle" x="812.5" y="-166.5" font-family="Helvetica,sans-Serif" font-size="10.00">Tmc9660Handler::temperature</text>
</a>
</g>
</g>
<!-- Node2&#45;&gt;Node11 -->
<g id="edge16_Node000002_Node000011" class="edge">
<title>Node2&#45;&gt;Node11</title>
<g id="a_edge16_Node000002_Node000011"><a xlink:title=" ">
<path fill="none" stroke="#63b8ff" d="M286.01,-169C388.68,-169 597.68,-169 718.88,-169"/>
<polygon fill="#63b8ff" stroke="#63b8ff" points="718.89,-172.5 728.89,-169 718.88,-165.5 718.89,-172.5"/>
</a>
</g>
</g>
<!-- Node4 -->
<g id="Node000004" class="node">
<title>Node4</title>
<g id="a_Node000004"><a xlink:href="classTmc9660Handler.html#adc564847f8ae26c47412aaee0758991c" target="_top" xlink:title="Initialize the TMC9660 device.">
<polygon fill="white" stroke="#666666" points="693,-102.5 545,-102.5 545,-83.5 693,-83.5 693,-102.5"/>
<text text-anchor="middle" x="619" y="-90.5" font-family="Helvetica,sans-Serif" font-size="10.00">Tmc9660Handler::Initialize</text>
</a>
</g>
</g>
<!-- Node3&#45;&gt;Node4 -->
<g id="edge3_Node000003_Node000004" class="edge">
<title>Node3&#45;&gt;Node4</title>
<g id="a_edge3_Node000003_Node000004"><a xlink:title=" ">
<path fill="none" stroke="#63b8ff" d="M509.29,-103.25C517.73,-102.45 526.25,-101.65 534.61,-100.86"/>
<polygon fill="#63b8ff" stroke="#63b8ff" points="535.08,-104.33 544.7,-99.91 534.42,-97.37 535.08,-104.33"/>
</a>
</g>
</g>
<!-- Node10 -->
<g id="Node000010" class="node">
<title>Node10</title>
<g id="a_Node000010"><a xlink:href="classTmc9660Handler.html#a13db97d201a287d8aa60384e04070b9f" target="_top" xlink:title="Check if the TMC9660 driver has been initialized and is ready.">
<polygon fill="white" stroke="#666666" points="884.5,-30 740.5,-30 740.5,0 884.5,0 884.5,-30"/>
<text text-anchor="start" x="748.5" y="-18" font-family="Helvetica,sans-Serif" font-size="10.00">Tmc9660Handler::IsDriver</text>
<text text-anchor="middle" x="812.5" y="-7" font-family="Helvetica,sans-Serif" font-size="10.00">Ready</text>
</a>
</g>
</g>
<!-- Node3&#45;&gt;Node10 -->
<g id="edge15_Node000003_Node000010" class="edge">
<title>Node3&#45;&gt;Node10</title>
<g id="a_edge15_Node000003_Node000010"><a xlink:title=" ">
<path fill="none" stroke="#63b8ff" d="M446.45,-102.5C472.39,-94.43 510.99,-82.78 545,-74 606.86,-58.03 677.47,-42.52 730.46,-31.41"/>
<polygon fill="#63b8ff" stroke="#63b8ff" points="731.41,-34.79 740.48,-29.32 729.98,-27.94 731.41,-34.79"/>
</a>
</g>
</g>
<!-- Node5 -->
<g id="Node000005" class="node">
<title>Node5</title>
<g id="a_Node000005"><a xlink:href="classLogger.html#a5e4bcdaea60b9ac227b564d780388769" target="_top" xlink:title="Log error message.">
<polygon fill="white" stroke="#666666" points="852,-67.5 773,-67.5 773,-48.5 852,-48.5 852,-67.5"/>
<text text-anchor="middle" x="812.5" y="-55.5" font-family="Helvetica,sans-Serif" font-size="10.00">Logger::Error</text>
</a>
</g>
</g>
<!-- Node4&#45;&gt;Node5 -->
<g id="edge4_Node000004_Node000005" class="edge">
<title>Node4&#45;&gt;Node5</title>
<g id="a_edge4_Node000004_Node000005"><a xlink:title=" ">
<path fill="none" stroke="#63b8ff" d="M672.08,-83.48C700.39,-78.31 735.18,-71.95 762.93,-66.88"/>
<polygon fill="#63b8ff" stroke="#63b8ff" points="763.6,-70.31 772.8,-65.07 762.34,-63.43 763.6,-70.31"/>
</a>
</g>
</g>
<!-- Node8 -->
<g id="Node000008" class="node">
<title>Node8</title>
<g id="a_Node000008"><a xlink:href="classLogger.html#a5789d11f8f1356e2192c0023a089cbc4" target="_top" xlink:title="Get singleton instance.">
<polygon fill="white" stroke="#666666" points="869.5,-141.5 755.5,-141.5 755.5,-122.5 869.5,-122.5 869.5,-141.5"/>
<text text-anchor="middle" x="812.5" y="-129.5" font-family="Helvetica,sans-Serif" font-size="10.00">Logger::GetInstance</text>
</a>
</g>
</g>
<!-- Node4&#45;&gt;Node8 -->
<g id="edge7_Node000004_Node000008" class="edge">
<title>Node4&#45;&gt;Node8</title>
<g id="a_edge7_Node000004_Node000008"><a xlink:title=" ">
<path fill="none" stroke="#63b8ff" d="M666.85,-102.54C693.37,-107.94 726.75,-114.74 754.75,-120.44"/>
<polygon fill="#63b8ff" stroke="#63b8ff" points="754.31,-123.92 764.81,-122.49 755.71,-117.07 754.31,-123.92"/>
</a>
</g>
</g>
<!-- Node9 -->
<g id="Node000009" class="node">
<title>Node9</title>
<g id="a_Node000009"><a xlink:href="classLogger.html#a1c0c947d87884bca0395fd38d19d1102" target="_top" xlink:title="Log info message.">
<polygon fill="white" stroke="#666666" points="849.5,-104.5 775.5,-104.5 775.5,-85.5 849.5,-85.5 849.5,-104.5"/>
<text text-anchor="middle" x="812.5" y="-92.5" font-family="Helvetica,sans-Serif" font-size="10.00">Logger::Info</text>
</a>
</g>
</g>
<!-- Node4&#45;&gt;Node9 -->
<g id="edge8_Node000004_Node000009" class="edge">
<title>Node4&#45;&gt;Node9</title>
<g id="a_edge8_Node000004_Node000009"><a xlink:title=" ">
<path fill="none" stroke="#63b8ff" d="M693.22,-93.76C717.35,-94.02 743.52,-94.29 765.08,-94.52"/>
<polygon fill="#63b8ff" stroke="#63b8ff" points="765.24,-98.02 775.27,-94.62 765.31,-91.02 765.24,-98.02"/>
</a>
</g>
</g>
<!-- Node4&#45;&gt;Node10 -->
<g id="edge11_Node000004_Node000010" class="edge">
<title>Node4&#45;&gt;Node10</title>
<g id="a_edge11_Node000004_Node000010"><a xlink:title=" ">
<path fill="none" stroke="#63b8ff" d="M636.94,-83.43C658.02,-71.8 695.35,-52.11 729,-39 734.13,-37 739.49,-35.08 744.91,-33.26"/>
<polygon fill="#63b8ff" stroke="#63b8ff" points="746.26,-36.5 754.69,-30.09 744.1,-29.84 746.26,-36.5"/>
</a>
</g>
</g>
<!-- Node4&#45;&gt;Node11 -->
<g id="edge12_Node000004_Node000011" class="edge">
<title>Node4&#45;&gt;Node11</title>
<g id="a_edge12_Node000004_Node000011"><a xlink:title=" ">
<path fill="none" stroke="#63b8ff" d="M659.21,-102.53C670.54,-106.16 682.64,-110.93 693,-117 711.73,-127.97 709.79,-139.9 729,-150 733.52,-152.38 738.33,-154.46 743.27,-156.28"/>
<polygon fill="#63b8ff" stroke="#63b8ff" points="742.3,-159.64 752.89,-159.48 744.5,-153 742.3,-159.64"/>
</a>
</g>
</g>
<!-- Node6 -->
<g id="Node000006" class="node">
<title>Node6</title>
<g id="a_Node000006"><a xlink:href="classLogger.html#a737b981213c02321a5235848334d7191" target="_top" xlink:title="Check if log level is enabled for tag.">
<polygon fill="white" stroke="#666666" points="1061,-104.5 932,-104.5 932,-85.5 1061,-85.5 1061,-104.5"/>
<text text-anchor="middle" x="996.5" y="-92.5" font-family="Helvetica,sans-Serif" font-size="10.00">Logger::IsLevelEnabled</text>
</a>
</g>
</g>
<!-- Node5&#45;&gt;Node6 -->
<g id="edge5_Node000005_Node000006" class="edge">
<title>Node5&#45;&gt;Node6</title>
<g id="a_edge5_Node000005_Node000006"><a xlink:title=" ">
<path fill="none" stroke="#63b8ff" d="M852.1,-65.85C877.19,-70.95 910.34,-77.69 938.45,-83.4"/>
<polygon fill="#63b8ff" stroke="#63b8ff" points="938.06,-86.89 948.56,-85.46 939.45,-80.03 938.06,-86.89"/>
</a>
</g>
</g>
<!-- Node7 -->
<g id="Node000007" class="node">
<title>Node7</title>
<g id="a_Node000007"><a xlink:href="classLogger.html#aeede6ac18db92a47caede076ef188a13" target="_top" xlink:title="Internal logging method.">
<polygon fill="white" stroke="#666666" points="1051.5,-67.5 941.5,-67.5 941.5,-48.5 1051.5,-48.5 1051.5,-67.5"/>
<text text-anchor="middle" x="996.5" y="-55.5" font-family="Helvetica,sans-Serif" font-size="10.00">Logger::LogInternal</text>
</a>
</g>
</g>
<!-- Node5&#45;&gt;Node7 -->
<g id="edge6_Node000005_Node000007" class="edge">
<title>Node5&#45;&gt;Node7</title>
<g id="a_edge6_Node000005_Node000007"><a xlink:title=" ">
<path fill="none" stroke="#63b8ff" d="M852.1,-58C875.03,-58 904.71,-58 931.11,-58"/>
<polygon fill="#63b8ff" stroke="#63b8ff" points="931.43,-61.5 941.43,-58 931.43,-54.5 931.43,-61.5"/>
</a>
</g>
</g>
<!-- Node9&#45;&gt;Node6 -->
<g id="edge9_Node000009_Node000006" class="edge">
<title>Node9&#45;&gt;Node6</title>
<g id="a_edge9_Node000009_Node000006"><a xlink:title=" ">
<path fill="none" stroke="#63b8ff" d="M849.89,-95C870.5,-95 897.03,-95 921.79,-95"/>
<polygon fill="#63b8ff" stroke="#63b8ff" points="921.9,-98.5 931.9,-95 921.9,-91.5 921.9,-98.5"/>
</a>
</g>
</g>
<!-- Node9&#45;&gt;Node7 -->
<g id="edge10_Node000009_Node000007" class="edge">
<title>Node9&#45;&gt;Node7</title>
<g id="a_edge10_Node000009_Node000007"><a xlink:title=" ">
<path fill="none" stroke="#63b8ff" d="M849.89,-87.6C875.23,-82.45 909.52,-75.48 938.46,-69.6"/>
<polygon fill="#63b8ff" stroke="#63b8ff" points="939.35,-72.99 948.45,-67.57 937.95,-66.13 939.35,-72.99"/>
</a>
</g>
</g>
<!-- Node11&#45;&gt;Node3 -->
<g id="edge13_Node000011_Node000003" class="edge">
<title>Node11&#45;&gt;Node3</title>
<g id="a_edge13_Node000011_Node000003"><a xlink:title=" ">
<path fill="none" stroke="#63b8ff" d="M745.5,-159.48C675.8,-149.42 566.05,-133.58 492.71,-123"/>
<polygon fill="#63b8ff" stroke="#63b8ff" points="493.01,-119.5 482.61,-121.54 492.01,-126.43 493.01,-119.5"/>
</a>
</g>
</g>
<!-- Node11&#45;&gt;Node11 -->
<g id="edge14_Node000011_Node000011" class="edge">
<title>Node11&#45;&gt;Node11</title>
<g id="a_edge14_Node000011_Node000011"><a xlink:title=" ">
<path fill="none" stroke="#63b8ff" d="M784.14,-178.58C770.34,-187.23 779.8,-196.5 812.5,-196.5 834.98,-196.5 846.48,-192.12 846.98,-186.57"/>
<polygon fill="#63b8ff" stroke="#63b8ff" points="849.72,-184.39 840.86,-178.58 844.16,-188.65 849.72,-184.39"/>
</a>
</g>
</g>
<!-- Node12&#45;&gt;Node11 -->
<g id="edge18_Node000012_Node000011" class="edge">
<title>Node12&#45;&gt;Node11</title>
<g id="a_edge18_Node000012_Node000011"><a xlink:title=" ">
<path fill="none" stroke="#63b8ff" d="M477.75,-205.81C533.8,-200.09 619.01,-191.25 693,-183 702.4,-181.95 712.21,-180.83 721.99,-179.7"/>
<polygon fill="#63b8ff" stroke="#63b8ff" points="722.63,-183.15 732.16,-178.52 721.82,-176.2 722.63,-183.15"/>
</a>
</g>
</g>
</g>
</svg>
