<?xml version="1.0" encoding="UTF-8" standalone="no"?>
<!DOCTYPE svg PUBLIC "-//W3C//DTD SVG 1.1//EN"
 "http://www.w3.org/Graphics/SVG/1.1/DTD/svg11.dtd">
<!-- Generated by graphviz version 2.43.0 (0)
 -->
<!-- Title: Ws2812Handler::Deinitialize Pages: 1 -->
<svg width="666pt" height="88pt"
 viewBox="0.00 0.00 666.00 87.50" xmlns="http://www.w3.org/2000/svg" xmlns:xlink="http://www.w3.org/1999/xlink">
<g id="graph0" class="graph" transform="scale(1 1) rotate(0) translate(4 83.5)">
<title>Ws2812Handler::Deinitialize</title>
<!-- Node1 -->
<g id="Node000001" class="node">
<title>Node1</title>
<g id="a_Node000001"><a xlink:title="Deinitialize and release RMT resources.">
<polygon fill="#999999" stroke="#666666" points="155,-60.5 0,-60.5 0,-41.5 155,-41.5 155,-60.5"/>
<text text-anchor="middle" x="77.5" y="-48.5" font-family="Helvetica,sans-Serif" font-size="10.00">Ws2812Handler::Deinitialize</text>
</a>
</g>
</g>
<!-- Node2 -->
<g id="Node000002" class="node">
<title>Node2</title>
<g id="a_Node000002"><a xlink:href="classLogger.html#a5789d11f8f1356e2192c0023a089cbc4" target="_top" xlink:title="Get singleton instance.">
<polygon fill="white" stroke="#666666" points="305,-79.5 191,-79.5 191,-60.5 305,-60.5 305,-79.5"/>
<text text-anchor="middle" x="248" y="-67.5" font-family="Helvetica,sans-Serif" font-size="10.00">Logger::GetInstance</text>
</a>
</g>
</g>
<!-- Node1&#45;&gt;Node2 -->
<g id="edge1_Node000001_Node000002" class="edge">
<title>Node1&#45;&gt;Node2</title>
<g id="a_edge1_Node000001_Node000002"><a xlink:title=" ">
<path fill="none" stroke="#63b8ff" d="M155.35,-59.67C163.87,-60.63 172.49,-61.6 180.85,-62.54"/>
<polygon fill="#63b8ff" stroke="#63b8ff" points="180.58,-66.03 190.91,-63.68 181.37,-59.08 180.58,-66.03"/>
</a>
</g>
</g>
<!-- Node3 -->
<g id="Node000003" class="node">
<title>Node3</title>
<g id="a_Node000003"><a xlink:href="classLogger.html#a4681229c521795685fc14f6b55c82300" target="_top" xlink:title="Log info message.">
<polygon fill="white" stroke="#666666" points="285,-42.5 211,-42.5 211,-23.5 285,-23.5 285,-42.5"/>
<text text-anchor="middle" x="248" y="-30.5" font-family="Helvetica,sans-Serif" font-size="10.00">Logger::Info</text>
</a>
</g>
</g>
<!-- Node1&#45;&gt;Node3 -->
<g id="edge2_Node000001_Node000003" class="edge">
<title>Node1&#45;&gt;Node3</title>
<g id="a_edge2_Node000001_Node000003"><a xlink:title=" ">
<path fill="none" stroke="#63b8ff" d="M155.35,-42.79C170.71,-41.15 186.39,-39.47 200.35,-37.98"/>
<polygon fill="#63b8ff" stroke="#63b8ff" points="201.08,-41.43 210.65,-36.88 200.33,-34.47 201.08,-41.43"/>
</a>
</g>
</g>
<!-- Node4 -->
<g id="Node000004" class="node">
<title>Node4</title>
<g id="a_Node000004"><a xlink:href="classLogger.html#af9e84e0ff6bd538e4f9ed8dcebc3e2f0" target="_top" xlink:title="Check if log level is enabled for tag.">
<polygon fill="white" stroke="#666666" points="470,-61.5 341,-61.5 341,-42.5 470,-42.5 470,-61.5"/>
<text text-anchor="middle" x="405.5" y="-49.5" font-family="Helvetica,sans-Serif" font-size="10.00">Logger::IsLevelEnabled</text>
</a>
</g>
</g>
<!-- Node3&#45;&gt;Node4 -->
<g id="edge3_Node000003_Node000004" class="edge">
<title>Node3&#45;&gt;Node4</title>
<g id="a_edge3_Node000003_Node000004"><a xlink:title=" ">
<path fill="none" stroke="#63b8ff" d="M285.07,-37.41C298.68,-39.07 314.72,-41.03 330.55,-42.96"/>
<polygon fill="#63b8ff" stroke="#63b8ff" points="330.54,-46.49 340.89,-44.23 331.39,-39.54 330.54,-46.49"/>
</a>
</g>
</g>
<!-- Node5 -->
<g id="Node000005" class="node">
<title>Node5</title>
<g id="a_Node000005"><a xlink:href="classLogger.html#a6adb205db597526fb91ad20067400394" target="_top" xlink:title="Internal logging method.">
<polygon fill="white" stroke="#666666" points="460.5,-24.5 350.5,-24.5 350.5,-5.5 460.5,-5.5 460.5,-24.5"/>
<text text-anchor="middle" x="405.5" y="-12.5" font-family="Helvetica,sans-Serif" font-size="10.00">Logger::LogInternal</text>
</a>
</g>
</g>
<!-- Node3&#45;&gt;Node5 -->
<g id="edge4_Node000003_Node000005" class="edge">
<title>Node3&#45;&gt;Node5</title>
<g id="a_edge4_Node000003_Node000005"><a xlink:title=" ">
<path fill="none" stroke="#63b8ff" d="M285.07,-28.83C301.49,-26.92 321.44,-24.61 340.3,-22.43"/>
<polygon fill="#63b8ff" stroke="#63b8ff" points="340.8,-25.9 350.33,-21.27 340,-18.94 340.8,-25.9"/>
</a>
</g>
</g>
<!-- Node6 -->
<g id="Node000006" class="node">
<title>Node6</title>
<g id="a_Node000006"><a xlink:href="namespaceanonymous__namespace_02Logger_8cpp_03.html#a9d2b496fa1b4f4e28667d14e4b8cb190" target="_top" xlink:title=" ">
<polygon fill="white" stroke="#666666" points="658,-30 506,-30 506,0 658,0 658,-30"/>
<text text-anchor="start" x="514" y="-18" font-family="Helvetica,sans-Serif" font-size="10.00">anonymous_namespace</text>
<text text-anchor="middle" x="582" y="-7" font-family="Helvetica,sans-Serif" font-size="10.00">{Logger::cpp}::ToBaseLevel</text>
</a>
</g>
</g>
<!-- Node5&#45;&gt;Node6 -->
<g id="edge5_Node000005_Node000006" class="edge">
<title>Node5&#45;&gt;Node6</title>
<g id="a_edge5_Node000005_Node000006"><a xlink:title=" ">
<path fill="none" stroke="#63b8ff" d="M460.76,-15C471.93,-15 483.96,-15 495.93,-15"/>
<polygon fill="#63b8ff" stroke="#63b8ff" points="495.95,-18.5 505.95,-15 495.95,-11.5 495.95,-18.5"/>
</a>
</g>
</g>
</g>
</svg>
