<?xml version="1.0" encoding="UTF-8" standalone="no"?>
<!DOCTYPE svg PUBLIC "-//W3C//DTD SVG 1.1//EN"
 "http://www.w3.org/Graphics/SVG/1.1/DTD/svg11.dtd">
<!-- Generated by graphviz version 2.43.0 (0)
 -->
<!-- Title: Max22200Handler::EnableAllChannels Pages: 1 -->
<svg width="900pt" height="138pt"
 viewBox="0.00 0.00 900.00 138.00" xmlns="http://www.w3.org/2000/svg" xmlns:xlink="http://www.w3.org/1999/xlink">
<g id="graph0" class="graph" transform="scale(1 1) rotate(0) translate(4 134)">
<title>Max22200Handler::EnableAllChannels</title>
<!-- Node1 -->
<g id="Node000001" class="node">
<title>Node1</title>
<g id="a_Node000001"><a xlink:title="Enable all channels.">
<polygon fill="#999999" stroke="#666666" points="158,-88.5 0,-88.5 0,-58.5 158,-58.5 158,-88.5"/>
<text text-anchor="start" x="8" y="-76.5" font-family="Helvetica,sans-Serif" font-size="10.00">Max22200Handler::EnableAll</text>
<text text-anchor="middle" x="79" y="-65.5" font-family="Helvetica,sans-Serif" font-size="10.00">Channels</text>
</a>
</g>
</g>
<!-- Node2 -->
<g id="Node000002" class="node">
<title>Node2</title>
<g id="a_Node000002"><a xlink:href="classMax22200Handler.html#aa00edacb247660349767fa4521121104" target="_top" xlink:title=" ">
<polygon fill="white" stroke="#666666" points="387,-88.5 194,-88.5 194,-58.5 387,-58.5 387,-88.5"/>
<text text-anchor="start" x="202" y="-76.5" font-family="Helvetica,sans-Serif" font-size="10.00">Max22200Handler::EnsureInitialized</text>
<text text-anchor="middle" x="290.5" y="-65.5" font-family="Helvetica,sans-Serif" font-size="10.00">Locked</text>
</a>
</g>
</g>
<!-- Node1&#45;&gt;Node2 -->
<g id="edge1_Node000001_Node000002" class="edge">
<title>Node1&#45;&gt;Node2</title>
<g id="a_edge1_Node000001_Node000002"><a xlink:title=" ">
<path fill="none" stroke="#63b8ff" d="M158.01,-73.5C166.37,-73.5 174.98,-73.5 183.59,-73.5"/>
<polygon fill="#63b8ff" stroke="#63b8ff" points="183.7,-77 193.7,-73.5 183.7,-70 183.7,-77"/>
</a>
</g>
</g>
<!-- Node3 -->
<g id="Node000003" class="node">
<title>Node3</title>
<g id="a_Node000003"><a xlink:href="classLogger.html#a5e4bcdaea60b9ac227b564d780388769" target="_top" xlink:title="Log error message.">
<polygon fill="white" stroke="#666666" points="709.5,-130 630.5,-130 630.5,-111 709.5,-111 709.5,-130"/>
<text text-anchor="middle" x="670" y="-118" font-family="Helvetica,sans-Serif" font-size="10.00">Logger::Error</text>
</a>
</g>
</g>
<!-- Node2&#45;&gt;Node3 -->
<g id="edge2_Node000002_Node000003" class="edge">
<title>Node2&#45;&gt;Node3</title>
<g id="a_edge2_Node000002_Node000003"><a xlink:title=" ">
<path fill="none" stroke="#63b8ff" d="M387.33,-87.69C399.34,-89.37 411.45,-91.01 423,-92.5 491.26,-101.31 570.36,-110.06 620.04,-115.37"/>
<polygon fill="#63b8ff" stroke="#63b8ff" points="619.87,-118.87 630.18,-116.45 620.61,-111.91 619.87,-118.87"/>
</a>
</g>
</g>
<!-- Node6 -->
<g id="Node000006" class="node">
<title>Node6</title>
<g id="a_Node000006"><a xlink:href="classLogger.html#a5789d11f8f1356e2192c0023a089cbc4" target="_top" xlink:title="Get singleton instance.">
<polygon fill="white" stroke="#666666" points="727,-19 613,-19 613,0 727,0 727,-19"/>
<text text-anchor="middle" x="670" y="-7" font-family="Helvetica,sans-Serif" font-size="10.00">Logger::GetInstance</text>
</a>
</g>
</g>
<!-- Node2&#45;&gt;Node6 -->
<g id="edge5_Node000002_Node000006" class="edge">
<title>Node2&#45;&gt;Node6</title>
<g id="a_edge5_Node000002_Node000006"><a xlink:title=" ">
<path fill="none" stroke="#63b8ff" d="M380.01,-58.49C448.23,-46.93 541.08,-31.19 602.92,-20.7"/>
<polygon fill="#63b8ff" stroke="#63b8ff" points="603.68,-24.12 612.95,-19 602.51,-17.22 603.68,-24.12"/>
</a>
</g>
</g>
<!-- Node7 -->
<g id="Node000007" class="node">
<title>Node7</title>
<g id="a_Node000007"><a xlink:href="classMax22200Handler.html#ad6c72b45a96c36cd1b450f5e330fad25" target="_top" xlink:title="Initialize driver (ENABLE HIGH, read/clear STATUS, set ACTIVE).">
<polygon fill="white" stroke="#666666" points="577,-83 423,-83 423,-64 577,-64 577,-83"/>
<text text-anchor="middle" x="500" y="-71" font-family="Helvetica,sans-Serif" font-size="10.00">Max22200Handler::Initialize</text>
</a>
</g>
</g>
<!-- Node2&#45;&gt;Node7 -->
<g id="edge6_Node000002_Node000007" class="edge">
<title>Node2&#45;&gt;Node7</title>
<g id="a_edge6_Node000002_Node000007"><a xlink:title=" ">
<path fill="none" stroke="#63b8ff" d="M387.05,-73.5C395.6,-73.5 404.22,-73.5 412.68,-73.5"/>
<polygon fill="#63b8ff" stroke="#63b8ff" points="412.9,-77 422.9,-73.5 412.9,-70 412.9,-77"/>
</a>
</g>
</g>
<!-- Node4 -->
<g id="Node000004" class="node">
<title>Node4</title>
<g id="a_Node000004"><a xlink:href="classLogger.html#a737b981213c02321a5235848334d7191" target="_top" xlink:title="Check if log level is enabled for tag.">
<polygon fill="white" stroke="#666666" points="892,-111 763,-111 763,-92 892,-92 892,-111"/>
<text text-anchor="middle" x="827.5" y="-99" font-family="Helvetica,sans-Serif" font-size="10.00">Logger::IsLevelEnabled</text>
</a>
</g>
</g>
<!-- Node3&#45;&gt;Node4 -->
<g id="edge3_Node000003_Node000004" class="edge">
<title>Node3&#45;&gt;Node4</title>
<g id="a_edge3_Node000003_Node000004"><a xlink:title=" ">
<path fill="none" stroke="#63b8ff" d="M709.84,-115.75C722.85,-114.16 737.82,-112.34 752.6,-110.53"/>
<polygon fill="#63b8ff" stroke="#63b8ff" points="753.28,-113.97 762.78,-109.29 752.43,-107.02 753.28,-113.97"/>
</a>
</g>
</g>
<!-- Node5 -->
<g id="Node000005" class="node">
<title>Node5</title>
<g id="a_Node000005"><a xlink:href="classLogger.html#aeede6ac18db92a47caede076ef188a13" target="_top" xlink:title="Internal logging method.">
<polygon fill="white" stroke="#666666" points="882.5,-74 772.5,-74 772.5,-55 882.5,-55 882.5,-74"/>
<text text-anchor="middle" x="827.5" y="-62" font-family="Helvetica,sans-Serif" font-size="10.00">Logger::LogInternal</text>
</a>
</g>
</g>
<!-- Node3&#45;&gt;Node5 -->
<g id="edge4_Node000003_Node000005" class="edge">
<title>Node3&#45;&gt;Node5</title>
<g id="a_edge4_Node000003_Node000005"><a xlink:title=" ">
<path fill="none" stroke="#63b8ff" d="M703.92,-110.98C711.59,-108.47 719.66,-105.59 727,-102.5 743.68,-95.48 746.25,-90.35 763,-83.5 768.53,-81.24 774.42,-79.12 780.31,-77.16"/>
<polygon fill="#63b8ff" stroke="#63b8ff" points="781.67,-80.41 790.14,-74.05 779.55,-73.73 781.67,-80.41"/>
</a>
</g>
</g>
<!-- Node7&#45;&gt;Node3 -->
<g id="edge7_Node000007_Node000003" class="edge">
<title>Node7&#45;&gt;Node3</title>
<g id="a_edge7_Node000007_Node000003"><a xlink:title=" ">
<path fill="none" stroke="#63b8ff" d="M535,-83.01C560.87,-90.25 596.7,-100.27 624.8,-108.13"/>
<polygon fill="#63b8ff" stroke="#63b8ff" points="624.19,-111.6 634.77,-110.92 626.08,-104.86 624.19,-111.6"/>
</a>
</g>
</g>
<!-- Node7&#45;&gt;Node6 -->
<g id="edge8_Node000007_Node000006" class="edge">
<title>Node7&#45;&gt;Node6</title>
<g id="a_edge8_Node000007_Node000006"><a xlink:title=" ">
<path fill="none" stroke="#63b8ff" d="M522.69,-64C545.11,-54.32 581.21,-39.12 613,-27.5 617.85,-25.73 622.97,-23.95 628.07,-22.25"/>
<polygon fill="#63b8ff" stroke="#63b8ff" points="629.34,-25.51 637.75,-19.06 627.16,-18.86 629.34,-25.51"/>
</a>
</g>
</g>
<!-- Node8 -->
<g id="Node000008" class="node">
<title>Node8</title>
<g id="a_Node000008"><a xlink:href="classLogger.html#a1c0c947d87884bca0395fd38d19d1102" target="_top" xlink:title="Log info message.">
<polygon fill="white" stroke="#666666" points="707,-56 633,-56 633,-37 707,-37 707,-56"/>
<text text-anchor="middle" x="670" y="-44" font-family="Helvetica,sans-Serif" font-size="10.00">Logger::Info</text>
</a>
</g>
</g>
<!-- Node7&#45;&gt;Node8 -->
<g id="edge9_Node000007_Node000008" class="edge">
<title>Node7&#45;&gt;Node8</title>
<g id="a_edge9_Node000007_Node000008"><a xlink:title=" ">
<path fill="none" stroke="#63b8ff" d="M560.23,-63.98C580.73,-60.69 603.39,-57.04 622.7,-53.94"/>
<polygon fill="#63b8ff" stroke="#63b8ff" points="623.44,-57.37 632.75,-52.33 622.32,-50.46 623.44,-57.37"/>
</a>
</g>
</g>
<!-- Node9 -->
<g id="Node000009" class="node">
<title>Node9</title>
<g id="a_Node000009"><a xlink:href="classLogger.html#a8c19c14724b0be1d2be63da4258c001a" target="_top" xlink:title="Log warning message.">
<polygon fill="white" stroke="#666666" points="710,-93 630,-93 630,-74 710,-74 710,-93"/>
<text text-anchor="middle" x="670" y="-81" font-family="Helvetica,sans-Serif" font-size="10.00">Logger::Warn</text>
</a>
</g>
</g>
<!-- Node7&#45;&gt;Node9 -->
<g id="edge12_Node000007_Node000009" class="edge">
<title>Node7&#45;&gt;Node9</title>
<g id="a_edge12_Node000007_Node000009"><a xlink:title=" ">
<path fill="none" stroke="#63b8ff" d="M577.14,-78.03C591.52,-78.89 606.22,-79.76 619.52,-80.55"/>
<polygon fill="#63b8ff" stroke="#63b8ff" points="619.66,-84.07 629.85,-81.17 620.08,-77.08 619.66,-84.07"/>
</a>
</g>
</g>
<!-- Node8&#45;&gt;Node4 -->
<g id="edge10_Node000008_Node000004" class="edge">
<title>Node8&#45;&gt;Node4</title>
<g id="a_edge10_Node000008_Node000004"><a xlink:title=" ">
<path fill="none" stroke="#63b8ff" d="M701.51,-56.01C709.86,-58.84 718.85,-62.1 727,-65.5 743.51,-72.39 746.32,-77.03 763,-83.5 768.07,-85.47 773.45,-87.33 778.85,-89.05"/>
<polygon fill="#63b8ff" stroke="#63b8ff" points="777.92,-92.42 788.51,-91.99 779.96,-85.73 777.92,-92.42"/>
</a>
</g>
</g>
<!-- Node8&#45;&gt;Node5 -->
<g id="edge11_Node000008_Node000005" class="edge">
<title>Node8&#45;&gt;Node5</title>
<g id="a_edge11_Node000008_Node000005"><a xlink:title=" ">
<path fill="none" stroke="#63b8ff" d="M707.07,-50.67C723.49,-52.58 743.44,-54.89 762.3,-57.07"/>
<polygon fill="#63b8ff" stroke="#63b8ff" points="762,-60.56 772.33,-58.23 762.8,-53.6 762,-60.56"/>
</a>
</g>
</g>
<!-- Node9&#45;&gt;Node4 -->
<g id="edge13_Node000009_Node000004" class="edge">
<title>Node9&#45;&gt;Node4</title>
<g id="a_edge13_Node000009_Node000004"><a xlink:title=" ">
<path fill="none" stroke="#63b8ff" d="M710.24,-88.04C723.18,-89.54 738.02,-91.26 752.68,-92.95"/>
<polygon fill="#63b8ff" stroke="#63b8ff" points="752.43,-96.45 762.77,-94.12 753.24,-89.5 752.43,-96.45"/>
</a>
</g>
</g>
<!-- Node9&#45;&gt;Node5 -->
<g id="edge14_Node000009_Node000005" class="edge">
<title>Node9&#45;&gt;Node5</title>
<g id="a_edge14_Node000009_Node000005"><a xlink:title=" ">
<path fill="none" stroke="#63b8ff" d="M710.24,-78.71C725.96,-76.78 744.49,-74.52 762.08,-72.37"/>
<polygon fill="#63b8ff" stroke="#63b8ff" points="762.8,-75.81 772.3,-71.12 761.95,-68.86 762.8,-75.81"/>
</a>
</g>
</g>
</g>
</svg>
