<?xml version="1.0" encoding="UTF-8" standalone="no"?>
<!DOCTYPE svg PUBLIC "-//W3C//DTD SVG 1.1//EN"
 "http://www.w3.org/Graphics/SVG/1.1/DTD/svg11.dtd">
<!-- Generated by graphviz version 2.43.0 (0)
 -->
<!-- Title: Tmc9660Handler::Adc::ReadTemperatureChannel Pages: 1 -->
<svg width="1082pt" height="113pt"
 viewBox="0.00 0.00 1082.00 112.50" xmlns="http://www.w3.org/2000/svg" xmlns:xlink="http://www.w3.org/1999/xlink">
<g id="graph0" class="graph" transform="scale(1 1) rotate(0) translate(4 108.5)">
<title>Tmc9660Handler::Adc::ReadTemperatureChannel</title>
<!-- Node1 -->
<g id="Node000001" class="node">
<title>Node1</title>
<g id="a_Node000001"><a xlink:title="Read a temperature channel.">
<polygon fill="#999999" stroke="#666666" points="149,-51 0,-51 0,-21 149,-21 149,-51"/>
<text text-anchor="start" x="8" y="-39" font-family="Helvetica,sans-Serif" font-size="10.00">Tmc9660Handler::Adc</text>
<text text-anchor="middle" x="74.5" y="-28" font-family="Helvetica,sans-Serif" font-size="10.00">::ReadTemperatureChannel</text>
</a>
</g>
</g>
<!-- Node2 -->
<g id="Node000002" class="node">
<title>Node2</title>
<g id="a_Node000002"><a xlink:href="classTmc9660Handler.html#a393382194d0602e7aa02da6a8fd7a20a" target="_top" xlink:title="Get a reference to the Temperature wrapper.">
<polygon fill="white" stroke="#666666" points="352,-45.5 185,-45.5 185,-26.5 352,-26.5 352,-45.5"/>
<text text-anchor="middle" x="268.5" y="-33.5" font-family="Helvetica,sans-Serif" font-size="10.00">Tmc9660Handler::temperature</text>
</a>
</g>
</g>
<!-- Node1&#45;&gt;Node2 -->
<g id="edge1_Node000001_Node000002" class="edge">
<title>Node1&#45;&gt;Node2</title>
<g id="a_edge1_Node000001_Node000002"><a xlink:title=" ">
<path fill="none" stroke="#63b8ff" d="M149.18,-36C157.54,-36 166.14,-36 174.71,-36"/>
<polygon fill="#63b8ff" stroke="#63b8ff" points="174.73,-39.5 184.73,-36 174.73,-32.5 174.73,-39.5"/>
</a>
</g>
</g>
<!-- Node2&#45;&gt;Node2 -->
<g id="edge12_Node000002_Node000002" class="edge">
<title>Node2&#45;&gt;Node2</title>
<g id="a_edge12_Node000002_Node000002"><a xlink:title=" ">
<path fill="none" stroke="#63b8ff" d="M238.6,-45.58C224.05,-54.23 234.02,-63.5 268.5,-63.5 292.21,-63.5 304.32,-59.12 304.86,-53.57"/>
<polygon fill="#63b8ff" stroke="#63b8ff" points="307.41,-51.16 298.4,-45.58 301.96,-55.56 307.41,-51.16"/>
</a>
</g>
</g>
<!-- Node3 -->
<g id="Node000003" class="node">
<title>Node3</title>
<g id="a_Node000003"><a xlink:href="classTmc9660Handler.html#a5a279ae9d4b5a8e0d71cb24577ad88ea" target="_top" xlink:title="Ensure driver is initialized (lazy init entrypoint).">
<polygon fill="white" stroke="#666666" points="575,-45.5 388,-45.5 388,-26.5 575,-26.5 575,-45.5"/>
<text text-anchor="middle" x="481.5" y="-33.5" font-family="Helvetica,sans-Serif" font-size="10.00">Tmc9660Handler::EnsureInitialized</text>
</a>
</g>
</g>
<!-- Node2&#45;&gt;Node3 -->
<g id="edge2_Node000002_Node000003" class="edge">
<title>Node2&#45;&gt;Node3</title>
<g id="a_edge2_Node000002_Node000003"><a xlink:title=" ">
<path fill="none" stroke="#63b8ff" d="M352.29,-36C360.67,-36 369.25,-36 377.81,-36"/>
<polygon fill="#63b8ff" stroke="#63b8ff" points="377.83,-39.5 387.83,-36 377.83,-32.5 377.83,-39.5"/>
</a>
</g>
</g>
<!-- Node4 -->
<g id="Node000004" class="node">
<title>Node4</title>
<g id="a_Node000004"><a xlink:href="classTmc9660Handler.html#adc564847f8ae26c47412aaee0758991c" target="_top" xlink:title="Initialize the TMC9660 device.">
<polygon fill="white" stroke="#666666" points="759,-67.5 611,-67.5 611,-48.5 759,-48.5 759,-67.5"/>
<text text-anchor="middle" x="685" y="-55.5" font-family="Helvetica,sans-Serif" font-size="10.00">Tmc9660Handler::Initialize</text>
</a>
</g>
</g>
<!-- Node3&#45;&gt;Node4 -->
<g id="edge3_Node000003_Node000004" class="edge">
<title>Node3&#45;&gt;Node4</title>
<g id="a_edge3_Node000003_Node000004"><a xlink:title=" ">
<path fill="none" stroke="#63b8ff" d="M569.71,-45.52C580,-46.65 590.48,-47.79 600.72,-48.91"/>
<polygon fill="#63b8ff" stroke="#63b8ff" points="600.53,-52.41 610.85,-50.01 601.29,-45.45 600.53,-52.41"/>
</a>
</g>
</g>
<!-- Node10 -->
<g id="Node000010" class="node">
<title>Node10</title>
<g id="a_Node000010"><a xlink:href="classTmc9660Handler.html#a13db97d201a287d8aa60384e04070b9f" target="_top" xlink:title="Check if the TMC9660 driver has been initialized and is ready.">
<polygon fill="white" stroke="#666666" points="757,-30 613,-30 613,0 757,0 757,-30"/>
<text text-anchor="start" x="621" y="-18" font-family="Helvetica,sans-Serif" font-size="10.00">Tmc9660Handler::IsDriver</text>
<text text-anchor="middle" x="685" y="-7" font-family="Helvetica,sans-Serif" font-size="10.00">Ready</text>
</a>
</g>
</g>
<!-- Node3&#45;&gt;Node10 -->
<g id="edge11_Node000003_Node000010" class="edge">
<title>Node3&#45;&gt;Node10</title>
<g id="a_edge11_Node000003_Node000010"><a xlink:title=" ">
<path fill="none" stroke="#63b8ff" d="M573.82,-26.48C583.45,-25.48 593.2,-24.46 602.71,-23.47"/>
<polygon fill="#63b8ff" stroke="#63b8ff" points="603.34,-26.93 612.92,-22.41 602.61,-19.96 603.34,-26.93"/>
</a>
</g>
</g>
<!-- Node5 -->
<g id="Node000005" class="node">
<title>Node5</title>
<g id="a_Node000005"><a xlink:href="classLogger.html#adce17848a5844e053bfd314863dc1404" target="_top" xlink:title="Log error message.">
<polygon fill="white" stroke="#666666" points="891.5,-67.5 812.5,-67.5 812.5,-48.5 891.5,-48.5 891.5,-67.5"/>
<text text-anchor="middle" x="852" y="-55.5" font-family="Helvetica,sans-Serif" font-size="10.00">Logger::Error</text>
</a>
</g>
</g>
<!-- Node4&#45;&gt;Node5 -->
<g id="edge4_Node000004_Node000005" class="edge">
<title>Node4&#45;&gt;Node5</title>
<g id="a_edge4_Node000004_Node000005"><a xlink:title=" ">
<path fill="none" stroke="#63b8ff" d="M759.33,-58C773.73,-58 788.5,-58 801.87,-58"/>
<polygon fill="#63b8ff" stroke="#63b8ff" points="802.26,-61.5 812.26,-58 802.26,-54.5 802.26,-61.5"/>
</a>
</g>
</g>
<!-- Node8 -->
<g id="Node000008" class="node">
<title>Node8</title>
<g id="a_Node000008"><a xlink:href="classLogger.html#a5789d11f8f1356e2192c0023a089cbc4" target="_top" xlink:title="Get singleton instance.">
<polygon fill="white" stroke="#666666" points="909,-30.5 795,-30.5 795,-11.5 909,-11.5 909,-30.5"/>
<text text-anchor="middle" x="852" y="-18.5" font-family="Helvetica,sans-Serif" font-size="10.00">Logger::GetInstance</text>
</a>
</g>
</g>
<!-- Node4&#45;&gt;Node8 -->
<g id="edge7_Node000004_Node000008" class="edge">
<title>Node4&#45;&gt;Node8</title>
<g id="a_edge7_Node000004_Node000008"><a xlink:title=" ">
<path fill="none" stroke="#63b8ff" d="M728.49,-48.47C749.87,-43.68 775.97,-37.82 798.58,-32.75"/>
<polygon fill="#63b8ff" stroke="#63b8ff" points="799.37,-36.16 808.37,-30.56 797.84,-29.33 799.37,-36.16"/>
</a>
</g>
</g>
<!-- Node9 -->
<g id="Node000009" class="node">
<title>Node9</title>
<g id="a_Node000009"><a xlink:href="classLogger.html#a4681229c521795685fc14f6b55c82300" target="_top" xlink:title="Log info message.">
<polygon fill="white" stroke="#666666" points="889,-104.5 815,-104.5 815,-85.5 889,-85.5 889,-104.5"/>
<text text-anchor="middle" x="852" y="-92.5" font-family="Helvetica,sans-Serif" font-size="10.00">Logger::Info</text>
</a>
</g>
</g>
<!-- Node4&#45;&gt;Node9 -->
<g id="edge8_Node000004_Node000009" class="edge">
<title>Node4&#45;&gt;Node9</title>
<g id="a_edge8_Node000004_Node000009"><a xlink:title=" ">
<path fill="none" stroke="#63b8ff" d="M728.49,-67.53C751.89,-72.77 780.94,-79.29 804.89,-84.66"/>
<polygon fill="#63b8ff" stroke="#63b8ff" points="804.28,-88.11 814.8,-86.88 805.81,-81.28 804.28,-88.11"/>
</a>
</g>
</g>
<!-- Node6 -->
<g id="Node000006" class="node">
<title>Node6</title>
<g id="a_Node000006"><a xlink:href="classLogger.html#af9e84e0ff6bd538e4f9ed8dcebc3e2f0" target="_top" xlink:title="Check if log level is enabled for tag.">
<polygon fill="white" stroke="#666666" points="1074,-104.5 945,-104.5 945,-85.5 1074,-85.5 1074,-104.5"/>
<text text-anchor="middle" x="1009.5" y="-92.5" font-family="Helvetica,sans-Serif" font-size="10.00">Logger::IsLevelEnabled</text>
</a>
</g>
</g>
<!-- Node5&#45;&gt;Node6 -->
<g id="edge5_Node000005_Node000006" class="edge">
<title>Node5&#45;&gt;Node6</title>
<g id="a_edge5_Node000005_Node000006"><a xlink:title=" ">
<path fill="none" stroke="#63b8ff" d="M891.84,-67.24C912.03,-72.05 936.94,-77.97 958.55,-83.11"/>
<polygon fill="#63b8ff" stroke="#63b8ff" points="958,-86.58 968.53,-85.49 959.62,-79.77 958,-86.58"/>
</a>
</g>
</g>
<!-- Node7 -->
<g id="Node000007" class="node">
<title>Node7</title>
<g id="a_Node000007"><a xlink:href="classLogger.html#a6adb205db597526fb91ad20067400394" target="_top" xlink:title="Internal logging method.">
<polygon fill="white" stroke="#666666" points="1064.5,-67.5 954.5,-67.5 954.5,-48.5 1064.5,-48.5 1064.5,-67.5"/>
<text text-anchor="middle" x="1009.5" y="-55.5" font-family="Helvetica,sans-Serif" font-size="10.00">Logger::LogInternal</text>
</a>
</g>
</g>
<!-- Node5&#45;&gt;Node7 -->
<g id="edge6_Node000005_Node000007" class="edge">
<title>Node5&#45;&gt;Node7</title>
<g id="a_edge6_Node000005_Node000007"><a xlink:title=" ">
<path fill="none" stroke="#63b8ff" d="M891.84,-58C907.63,-58 926.31,-58 944.03,-58"/>
<polygon fill="#63b8ff" stroke="#63b8ff" points="944.33,-61.5 954.33,-58 944.33,-54.5 944.33,-61.5"/>
</a>
</g>
</g>
<!-- Node9&#45;&gt;Node6 -->
<g id="edge9_Node000009_Node000006" class="edge">
<title>Node9&#45;&gt;Node6</title>
<g id="a_edge9_Node000009_Node000006"><a xlink:title=" ">
<path fill="none" stroke="#63b8ff" d="M889.07,-95C902.68,-95 918.72,-95 934.55,-95"/>
<polygon fill="#63b8ff" stroke="#63b8ff" points="934.89,-98.5 944.89,-95 934.89,-91.5 934.89,-98.5"/>
</a>
</g>
</g>
<!-- Node9&#45;&gt;Node7 -->
<g id="edge10_Node000009_Node000007" class="edge">
<title>Node9&#45;&gt;Node7</title>
<g id="a_edge10_Node000009_Node000007"><a xlink:title=" ">
<path fill="none" stroke="#63b8ff" d="M889.07,-86.42C909.78,-81.49 936.09,-75.23 958.74,-69.84"/>
<polygon fill="#63b8ff" stroke="#63b8ff" points="959.61,-73.23 968.53,-67.51 957.99,-66.42 959.61,-73.23"/>
</a>
</g>
</g>
</g>
</svg>
