<?xml version="1.0" encoding="UTF-8" standalone="no"?>
<!DOCTYPE svg PUBLIC "-//W3C//DTD SVG 1.1//EN"
 "http://www.w3.org/Graphics/SVG/1.1/DTD/svg11.dtd">
<!-- Generated by graphviz version 2.43.0 (0)
 -->
<!-- Title: Tmc9660Handler::driverViaSpi Pages: 1 -->
<svg width="895pt" height="113pt"
 viewBox="0.00 0.00 895.00 112.50" xmlns="http://www.w3.org/2000/svg" xmlns:xlink="http://www.w3.org/1999/xlink">
<g id="graph0" class="graph" transform="scale(1 1) rotate(0) translate(4 108.5)">
<title>Tmc9660Handler::driverViaSpi</title>
<!-- Node1 -->
<g id="Node000001" class="node">
<title>Node1</title>
<g id="a_Node000001"><a xlink:title="Get the TMC9660 driver instance connected via SPI (nullptr if using UART).">
<polygon fill="#999999" stroke="#666666" points="165,-45.5 0,-45.5 0,-26.5 165,-26.5 165,-45.5"/>
<text text-anchor="middle" x="82.5" y="-33.5" font-family="Helvetica,sans-Serif" font-size="10.00">Tmc9660Handler::driverViaSpi</text>
</a>
</g>
</g>
<!-- Node2 -->
<g id="Node000002" class="node">
<title>Node2</title>
<g id="a_Node000002"><a xlink:href="classTmc9660Handler.html#a5a279ae9d4b5a8e0d71cb24577ad88ea" target="_top" xlink:title="Ensure driver is initialized (lazy init entrypoint).">
<polygon fill="white" stroke="#666666" points="388,-45.5 201,-45.5 201,-26.5 388,-26.5 388,-45.5"/>
<text text-anchor="middle" x="294.5" y="-33.5" font-family="Helvetica,sans-Serif" font-size="10.00">Tmc9660Handler::EnsureInitialized</text>
</a>
</g>
</g>
<!-- Node1&#45;&gt;Node2 -->
<g id="edge1_Node000001_Node000002" class="edge">
<title>Node1&#45;&gt;Node2</title>
<g id="a_edge1_Node000001_Node000002"><a xlink:title=" ">
<path fill="none" stroke="#63b8ff" d="M165.29,-36C173.65,-36 182.22,-36 190.77,-36"/>
<polygon fill="#63b8ff" stroke="#63b8ff" points="190.78,-39.5 200.78,-36 190.78,-32.5 190.78,-39.5"/>
</a>
</g>
</g>
<!-- Node3 -->
<g id="Node000003" class="node">
<title>Node3</title>
<g id="a_Node000003"><a xlink:href="classTmc9660Handler.html#adc564847f8ae26c47412aaee0758991c" target="_top" xlink:title="Initialize the TMC9660 device.">
<polygon fill="white" stroke="#666666" points="572,-67.5 424,-67.5 424,-48.5 572,-48.5 572,-67.5"/>
<text text-anchor="middle" x="498" y="-55.5" font-family="Helvetica,sans-Serif" font-size="10.00">Tmc9660Handler::Initialize</text>
</a>
</g>
</g>
<!-- Node2&#45;&gt;Node3 -->
<g id="edge2_Node000002_Node000003" class="edge">
<title>Node2&#45;&gt;Node3</title>
<g id="a_edge2_Node000002_Node000003"><a xlink:title=" ">
<path fill="none" stroke="#63b8ff" d="M382.71,-45.52C393,-46.65 403.48,-47.79 413.72,-48.91"/>
<polygon fill="#63b8ff" stroke="#63b8ff" points="413.53,-52.41 423.85,-50.01 414.29,-45.45 413.53,-52.41"/>
</a>
</g>
</g>
<!-- Node9 -->
<g id="Node000009" class="node">
<title>Node9</title>
<g id="a_Node000009"><a xlink:href="classTmc9660Handler.html#a13db97d201a287d8aa60384e04070b9f" target="_top" xlink:title="Check if the TMC9660 driver has been initialized and is ready.">
<polygon fill="white" stroke="#666666" points="570,-30 426,-30 426,0 570,0 570,-30"/>
<text text-anchor="start" x="434" y="-18" font-family="Helvetica,sans-Serif" font-size="10.00">Tmc9660Handler::IsDriver</text>
<text text-anchor="middle" x="498" y="-7" font-family="Helvetica,sans-Serif" font-size="10.00">Ready</text>
</a>
</g>
</g>
<!-- Node2&#45;&gt;Node9 -->
<g id="edge10_Node000002_Node000009" class="edge">
<title>Node2&#45;&gt;Node9</title>
<g id="a_edge10_Node000002_Node000009"><a xlink:title=" ">
<path fill="none" stroke="#63b8ff" d="M386.82,-26.48C396.45,-25.48 406.2,-24.46 415.71,-23.47"/>
<polygon fill="#63b8ff" stroke="#63b8ff" points="416.34,-26.93 425.92,-22.41 415.61,-19.96 416.34,-26.93"/>
</a>
</g>
</g>
<!-- Node4 -->
<g id="Node000004" class="node">
<title>Node4</title>
<g id="a_Node000004"><a xlink:href="classLogger.html#adce17848a5844e053bfd314863dc1404" target="_top" xlink:title="Log error message.">
<polygon fill="white" stroke="#666666" points="704.5,-67.5 625.5,-67.5 625.5,-48.5 704.5,-48.5 704.5,-67.5"/>
<text text-anchor="middle" x="665" y="-55.5" font-family="Helvetica,sans-Serif" font-size="10.00">Logger::Error</text>
</a>
</g>
</g>
<!-- Node3&#45;&gt;Node4 -->
<g id="edge3_Node000003_Node000004" class="edge">
<title>Node3&#45;&gt;Node4</title>
<g id="a_edge3_Node000003_Node000004"><a xlink:title=" ">
<path fill="none" stroke="#63b8ff" d="M572.33,-58C586.73,-58 601.5,-58 614.87,-58"/>
<polygon fill="#63b8ff" stroke="#63b8ff" points="615.26,-61.5 625.26,-58 615.26,-54.5 615.26,-61.5"/>
</a>
</g>
</g>
<!-- Node7 -->
<g id="Node000007" class="node">
<title>Node7</title>
<g id="a_Node000007"><a xlink:href="classLogger.html#a5789d11f8f1356e2192c0023a089cbc4" target="_top" xlink:title="Get singleton instance.">
<polygon fill="white" stroke="#666666" points="722,-30.5 608,-30.5 608,-11.5 722,-11.5 722,-30.5"/>
<text text-anchor="middle" x="665" y="-18.5" font-family="Helvetica,sans-Serif" font-size="10.00">Logger::GetInstance</text>
</a>
</g>
</g>
<!-- Node3&#45;&gt;Node7 -->
<g id="edge6_Node000003_Node000007" class="edge">
<title>Node3&#45;&gt;Node7</title>
<g id="a_edge6_Node000003_Node000007"><a xlink:title=" ">
<path fill="none" stroke="#63b8ff" d="M541.49,-48.47C562.87,-43.68 588.97,-37.82 611.58,-32.75"/>
<polygon fill="#63b8ff" stroke="#63b8ff" points="612.37,-36.16 621.37,-30.56 610.84,-29.33 612.37,-36.16"/>
</a>
</g>
</g>
<!-- Node8 -->
<g id="Node000008" class="node">
<title>Node8</title>
<g id="a_Node000008"><a xlink:href="classLogger.html#a4681229c521795685fc14f6b55c82300" target="_top" xlink:title="Log info message.">
<polygon fill="white" stroke="#666666" points="702,-104.5 628,-104.5 628,-85.5 702,-85.5 702,-104.5"/>
<text text-anchor="middle" x="665" y="-92.5" font-family="Helvetica,sans-Serif" font-size="10.00">Logger::Info</text>
</a>
</g>
</g>
<!-- Node3&#45;&gt;Node8 -->
<g id="edge7_Node000003_Node000008" class="edge">
<title>Node3&#45;&gt;Node8</title>
<g id="a_edge7_Node000003_Node000008"><a xlink:title=" ">
<path fill="none" stroke="#63b8ff" d="M541.49,-67.53C564.89,-72.77 593.94,-79.29 617.89,-84.66"/>
<polygon fill="#63b8ff" stroke="#63b8ff" points="617.28,-88.11 627.8,-86.88 618.81,-81.28 617.28,-88.11"/>
</a>
</g>
</g>
<!-- Node5 -->
<g id="Node000005" class="node">
<title>Node5</title>
<g id="a_Node000005"><a xlink:href="classLogger.html#af9e84e0ff6bd538e4f9ed8dcebc3e2f0" target="_top" xlink:title="Check if log level is enabled for tag.">
<polygon fill="white" stroke="#666666" points="887,-104.5 758,-104.5 758,-85.5 887,-85.5 887,-104.5"/>
<text text-anchor="middle" x="822.5" y="-92.5" font-family="Helvetica,sans-Serif" font-size="10.00">Logger::IsLevelEnabled</text>
</a>
</g>
</g>
<!-- Node4&#45;&gt;Node5 -->
<g id="edge4_Node000004_Node000005" class="edge">
<title>Node4&#45;&gt;Node5</title>
<g id="a_edge4_Node000004_Node000005"><a xlink:title=" ">
<path fill="none" stroke="#63b8ff" d="M704.84,-67.24C725.03,-72.05 749.94,-77.97 771.55,-83.11"/>
<polygon fill="#63b8ff" stroke="#63b8ff" points="771,-86.58 781.53,-85.49 772.62,-79.77 771,-86.58"/>
</a>
</g>
</g>
<!-- Node6 -->
<g id="Node000006" class="node">
<title>Node6</title>
<g id="a_Node000006"><a xlink:href="classLogger.html#a6adb205db597526fb91ad20067400394" target="_top" xlink:title="Internal logging method.">
<polygon fill="white" stroke="#666666" points="877.5,-67.5 767.5,-67.5 767.5,-48.5 877.5,-48.5 877.5,-67.5"/>
<text text-anchor="middle" x="822.5" y="-55.5" font-family="Helvetica,sans-Serif" font-size="10.00">Logger::LogInternal</text>
</a>
</g>
</g>
<!-- Node4&#45;&gt;Node6 -->
<g id="edge5_Node000004_Node000006" class="edge">
<title>Node4&#45;&gt;Node6</title>
<g id="a_edge5_Node000004_Node000006"><a xlink:title=" ">
<path fill="none" stroke="#63b8ff" d="M704.84,-58C720.63,-58 739.31,-58 757.03,-58"/>
<polygon fill="#63b8ff" stroke="#63b8ff" points="757.33,-61.5 767.33,-58 757.33,-54.5 757.33,-61.5"/>
</a>
</g>
</g>
<!-- Node8&#45;&gt;Node5 -->
<g id="edge8_Node000008_Node000005" class="edge">
<title>Node8&#45;&gt;Node5</title>
<g id="a_edge8_Node000008_Node000005"><a xlink:title=" ">
<path fill="none" stroke="#63b8ff" d="M702.07,-95C715.68,-95 731.72,-95 747.55,-95"/>
<polygon fill="#63b8ff" stroke="#63b8ff" points="747.89,-98.5 757.89,-95 747.89,-91.5 747.89,-98.5"/>
</a>
</g>
</g>
<!-- Node8&#45;&gt;Node6 -->
<g id="edge9_Node000008_Node000006" class="edge">
<title>Node8&#45;&gt;Node6</title>
<g id="a_edge9_Node000008_Node000006"><a xlink:title=" ">
<path fill="none" stroke="#63b8ff" d="M702.07,-86.42C722.78,-81.49 749.09,-75.23 771.74,-69.84"/>
<polygon fill="#63b8ff" stroke="#63b8ff" points="772.61,-73.23 781.53,-67.51 770.99,-66.42 772.61,-73.23"/>
</a>
</g>
</g>
</g>
</svg>
