<?xml version="1.0" encoding="UTF-8" standalone="no"?>
<!DOCTYPE svg PUBLIC "-//W3C//DTD SVG 1.1//EN"
 "http://www.w3.org/Graphics/SVG/1.1/DTD/svg11.dtd">
<!-- Generated by graphviz version 2.43.0 (0)
 -->
<!-- Title: Tmc5160Handler::IsTargetReached Pages: 1 -->
<svg width="874pt" height="138pt"
 viewBox="0.00 0.00 874.00 138.00" xmlns="http://www.w3.org/2000/svg" xmlns:xlink="http://www.w3.org/1999/xlink">
<g id="graph0" class="graph" transform="scale(1 1) rotate(0) translate(4 134)">
<title>Tmc5160Handler::IsTargetReached</title>
<!-- Node1 -->
<g id="Node000001" class="node">
<title>Node1</title>
<g id="a_Node000001"><a xlink:title="Check if target position has been reached.">
<polygon fill="#999999" stroke="#666666" points="144,-55.5 0,-55.5 0,-25.5 144,-25.5 144,-55.5"/>
<text text-anchor="start" x="8" y="-43.5" font-family="Helvetica,sans-Serif" font-size="10.00">Tmc5160Handler::IsTarget</text>
<text text-anchor="middle" x="72" y="-32.5" font-family="Helvetica,sans-Serif" font-size="10.00">Reached</text>
</a>
</g>
</g>
<!-- Node2 -->
<g id="Node000002" class="node">
<title>Node2</title>
<g id="a_Node000002"><a xlink:href="classTmc5160Handler.html#a6d4fce2433e03bb11b05a4278ef66fd0" target="_top" xlink:title=" ">
<polygon fill="white" stroke="#666666" points="367,-79.5 180,-79.5 180,-49.5 367,-49.5 367,-79.5"/>
<text text-anchor="start" x="188" y="-67.5" font-family="Helvetica,sans-Serif" font-size="10.00">Tmc5160Handler::EnsureInitialized</text>
<text text-anchor="middle" x="273.5" y="-56.5" font-family="Helvetica,sans-Serif" font-size="10.00">Locked</text>
</a>
</g>
</g>
<!-- Node1&#45;&gt;Node2 -->
<g id="edge1_Node000001_Node000002" class="edge">
<title>Node1&#45;&gt;Node2</title>
<g id="a_edge1_Node000001_Node000002"><a xlink:title=" ">
<path fill="none" stroke="#63b8ff" d="M144.18,-49.06C152.46,-50.06 161.03,-51.09 169.64,-52.13"/>
<polygon fill="#63b8ff" stroke="#63b8ff" points="169.39,-55.62 179.73,-53.34 170.22,-48.67 169.39,-55.62"/>
</a>
</g>
</g>
<!-- Node10 -->
<g id="Node000010" class="node">
<title>Node10</title>
<g id="a_Node000010"><a xlink:href="classTmc5160Handler.html#a439a68f9d3f6785e0a493f9ed3821325" target="_top" xlink:title="Helper: execute a visitor on the active driver (no lock, internal use)">
<polygon fill="white" stroke="#666666" points="352,-31.5 195,-31.5 195,-1.5 352,-1.5 352,-31.5"/>
<text text-anchor="start" x="203" y="-19.5" font-family="Helvetica,sans-Serif" font-size="10.00">Tmc5160Handler::visitDriver</text>
<text text-anchor="middle" x="273.5" y="-8.5" font-family="Helvetica,sans-Serif" font-size="10.00">Internal</text>
</a>
</g>
</g>
<!-- Node1&#45;&gt;Node10 -->
<g id="edge13_Node000001_Node000010" class="edge">
<title>Node1&#45;&gt;Node10</title>
<g id="a_edge13_Node000001_Node000010"><a xlink:title=" ">
<path fill="none" stroke="#63b8ff" d="M144.18,-31.94C157.29,-30.36 171.11,-28.7 184.65,-27.07"/>
<polygon fill="#63b8ff" stroke="#63b8ff" points="185.41,-30.5 194.92,-25.83 184.57,-23.55 185.41,-30.5"/>
</a>
</g>
</g>
<!-- Node3 -->
<g id="Node000003" class="node">
<title>Node3</title>
<g id="a_Node000003"><a xlink:href="classTmc5160Handler.html#a64755f326176b0a38485acf5ca69fd0c" target="_top" xlink:title="Initialize the TMC5160 driver with full configuration.">
<polygon fill="white" stroke="#666666" points="551,-74 403,-74 403,-55 551,-55 551,-74"/>
<text text-anchor="middle" x="477" y="-62" font-family="Helvetica,sans-Serif" font-size="10.00">Tmc5160Handler::Initialize</text>
</a>
</g>
</g>
<!-- Node2&#45;&gt;Node3 -->
<g id="edge2_Node000002_Node000003" class="edge">
<title>Node2&#45;&gt;Node3</title>
<g id="a_edge2_Node000002_Node000003"><a xlink:title=" ">
<path fill="none" stroke="#63b8ff" d="M367.29,-64.5C375.73,-64.5 384.25,-64.5 392.61,-64.5"/>
<polygon fill="#63b8ff" stroke="#63b8ff" points="392.7,-68 402.7,-64.5 392.7,-61 392.7,-68"/>
</a>
</g>
</g>
<!-- Node4 -->
<g id="Node000004" class="node">
<title>Node4</title>
<g id="a_Node000004"><a xlink:href="classLogger.html#adce17848a5844e053bfd314863dc1404" target="_top" xlink:title="Log error message.">
<polygon fill="white" stroke="#666666" points="683.5,-130 604.5,-130 604.5,-111 683.5,-111 683.5,-130"/>
<text text-anchor="middle" x="644" y="-118" font-family="Helvetica,sans-Serif" font-size="10.00">Logger::Error</text>
</a>
</g>
</g>
<!-- Node3&#45;&gt;Node4 -->
<g id="edge3_Node000003_Node000004" class="edge">
<title>Node3&#45;&gt;Node4</title>
<g id="a_edge3_Node000003_Node000004"><a xlink:title=" ">
<path fill="none" stroke="#63b8ff" d="M504.81,-74.05C526.84,-81.85 558.88,-93.08 587,-102.5 592.2,-104.24 597.69,-106.05 603.12,-107.81"/>
<polygon fill="#63b8ff" stroke="#63b8ff" points="602.14,-111.17 612.73,-110.92 604.29,-104.51 602.14,-111.17"/>
</a>
</g>
</g>
<!-- Node7 -->
<g id="Node000007" class="node">
<title>Node7</title>
<g id="a_Node000007"><a xlink:href="classLogger.html#a5789d11f8f1356e2192c0023a089cbc4" target="_top" xlink:title="Get singleton instance.">
<polygon fill="white" stroke="#666666" points="701,-19 587,-19 587,0 701,0 701,-19"/>
<text text-anchor="middle" x="644" y="-7" font-family="Helvetica,sans-Serif" font-size="10.00">Logger::GetInstance</text>
</a>
</g>
</g>
<!-- Node3&#45;&gt;Node7 -->
<g id="edge6_Node000003_Node000007" class="edge">
<title>Node3&#45;&gt;Node7</title>
<g id="a_edge6_Node000003_Node000007"><a xlink:title=" ">
<path fill="none" stroke="#63b8ff" d="M506.74,-54.92C533.87,-45.88 574.73,-32.26 604.63,-22.29"/>
<polygon fill="#63b8ff" stroke="#63b8ff" points="605.93,-25.55 614.31,-19.06 603.72,-18.9 605.93,-25.55"/>
</a>
</g>
</g>
<!-- Node8 -->
<g id="Node000008" class="node">
<title>Node8</title>
<g id="a_Node000008"><a xlink:href="classLogger.html#a4681229c521795685fc14f6b55c82300" target="_top" xlink:title="Log info message.">
<polygon fill="white" stroke="#666666" points="681,-93 607,-93 607,-74 681,-74 681,-93"/>
<text text-anchor="middle" x="644" y="-81" font-family="Helvetica,sans-Serif" font-size="10.00">Logger::Info</text>
</a>
</g>
</g>
<!-- Node3&#45;&gt;Node8 -->
<g id="edge7_Node000003_Node000008" class="edge">
<title>Node3&#45;&gt;Node8</title>
<g id="a_edge7_Node000003_Node000008"><a xlink:title=" ">
<path fill="none" stroke="#63b8ff" d="M551.33,-72.94C566.85,-74.73 582.8,-76.57 596.96,-78.2"/>
<polygon fill="#63b8ff" stroke="#63b8ff" points="596.58,-81.68 606.92,-79.35 597.38,-74.72 596.58,-81.68"/>
</a>
</g>
</g>
<!-- Node9 -->
<g id="Node000009" class="node">
<title>Node9</title>
<g id="a_Node000009"><a xlink:href="classLogger.html#aaa95ffa14d07a965d4a85bdec82cba26" target="_top" xlink:title="Log warning message.">
<polygon fill="white" stroke="#666666" points="684,-56 604,-56 604,-37 684,-37 684,-56"/>
<text text-anchor="middle" x="644" y="-44" font-family="Helvetica,sans-Serif" font-size="10.00">Logger::Warn</text>
</a>
</g>
</g>
<!-- Node3&#45;&gt;Node9 -->
<g id="edge10_Node000003_Node000009" class="edge">
<title>Node3&#45;&gt;Node9</title>
<g id="a_edge10_Node000003_Node000009"><a xlink:title=" ">
<path fill="none" stroke="#63b8ff" d="M551.33,-56.5C565.59,-54.94 580.23,-53.35 593.49,-51.9"/>
<polygon fill="#63b8ff" stroke="#63b8ff" points="594.25,-55.34 603.81,-50.78 593.49,-48.38 594.25,-55.34"/>
</a>
</g>
</g>
<!-- Node5 -->
<g id="Node000005" class="node">
<title>Node5</title>
<g id="a_Node000005"><a xlink:href="classLogger.html#af9e84e0ff6bd538e4f9ed8dcebc3e2f0" target="_top" xlink:title="Check if log level is enabled for tag.">
<polygon fill="white" stroke="#666666" points="866,-111 737,-111 737,-92 866,-92 866,-111"/>
<text text-anchor="middle" x="801.5" y="-99" font-family="Helvetica,sans-Serif" font-size="10.00">Logger::IsLevelEnabled</text>
</a>
</g>
</g>
<!-- Node4&#45;&gt;Node5 -->
<g id="edge4_Node000004_Node000005" class="edge">
<title>Node4&#45;&gt;Node5</title>
<g id="a_edge4_Node000004_Node000005"><a xlink:title=" ">
<path fill="none" stroke="#63b8ff" d="M683.84,-115.75C696.85,-114.16 711.82,-112.34 726.6,-110.53"/>
<polygon fill="#63b8ff" stroke="#63b8ff" points="727.28,-113.97 736.78,-109.29 726.43,-107.02 727.28,-113.97"/>
</a>
</g>
</g>
<!-- Node6 -->
<g id="Node000006" class="node">
<title>Node6</title>
<g id="a_Node000006"><a xlink:href="classLogger.html#a6adb205db597526fb91ad20067400394" target="_top" xlink:title="Internal logging method.">
<polygon fill="white" stroke="#666666" points="856.5,-74 746.5,-74 746.5,-55 856.5,-55 856.5,-74"/>
<text text-anchor="middle" x="801.5" y="-62" font-family="Helvetica,sans-Serif" font-size="10.00">Logger::LogInternal</text>
</a>
</g>
</g>
<!-- Node4&#45;&gt;Node6 -->
<g id="edge5_Node000004_Node000006" class="edge">
<title>Node4&#45;&gt;Node6</title>
<g id="a_edge5_Node000004_Node000006"><a xlink:title=" ">
<path fill="none" stroke="#63b8ff" d="M677.92,-110.98C685.59,-108.47 693.66,-105.59 701,-102.5 717.68,-95.48 720.25,-90.35 737,-83.5 742.53,-81.24 748.42,-79.12 754.31,-77.16"/>
<polygon fill="#63b8ff" stroke="#63b8ff" points="755.67,-80.41 764.14,-74.05 753.55,-73.73 755.67,-80.41"/>
</a>
</g>
</g>
<!-- Node8&#45;&gt;Node5 -->
<g id="edge8_Node000008_Node000005" class="edge">
<title>Node8&#45;&gt;Node5</title>
<g id="a_edge8_Node000008_Node000005"><a xlink:title=" ">
<path fill="none" stroke="#63b8ff" d="M681.07,-87.67C694.68,-89.25 710.72,-91.11 726.55,-92.94"/>
<polygon fill="#63b8ff" stroke="#63b8ff" points="726.55,-96.46 736.89,-94.14 727.36,-89.51 726.55,-96.46"/>
</a>
</g>
</g>
<!-- Node8&#45;&gt;Node6 -->
<g id="edge9_Node000008_Node000006" class="edge">
<title>Node8&#45;&gt;Node6</title>
<g id="a_edge9_Node000008_Node000006"><a xlink:title=" ">
<path fill="none" stroke="#63b8ff" d="M681.07,-79.09C697.49,-77.09 717.44,-74.65 736.3,-72.34"/>
<polygon fill="#63b8ff" stroke="#63b8ff" points="736.83,-75.81 746.33,-71.12 735.98,-68.86 736.83,-75.81"/>
</a>
</g>
</g>
<!-- Node9&#45;&gt;Node5 -->
<g id="edge11_Node000009_Node000005" class="edge">
<title>Node9&#45;&gt;Node5</title>
<g id="a_edge11_Node000009_Node000005"><a xlink:title=" ">
<path fill="none" stroke="#63b8ff" d="M675.51,-56.01C683.86,-58.84 692.85,-62.1 701,-65.5 717.51,-72.39 720.32,-77.03 737,-83.5 742.07,-85.47 747.45,-87.33 752.85,-89.05"/>
<polygon fill="#63b8ff" stroke="#63b8ff" points="751.92,-92.42 762.51,-91.99 753.96,-85.73 751.92,-92.42"/>
</a>
</g>
</g>
<!-- Node9&#45;&gt;Node6 -->
<g id="edge12_Node000009_Node000006" class="edge">
<title>Node9&#45;&gt;Node6</title>
<g id="a_edge12_Node000009_Node000006"><a xlink:title=" ">
<path fill="none" stroke="#63b8ff" d="M684.24,-51.04C699.96,-52.86 718.49,-55.01 736.08,-57.04"/>
<polygon fill="#63b8ff" stroke="#63b8ff" points="735.96,-60.55 746.3,-58.23 736.77,-53.6 735.96,-60.55"/>
</a>
</g>
</g>
</g>
</svg>
