<?xml version="1.0" encoding="UTF-8" standalone="no"?>
<!DOCTYPE svg PUBLIC "-//W3C//DTD SVG 1.1//EN"
 "http://www.w3.org/Graphics/SVG/1.1/DTD/svg11.dtd">
<!-- Generated by graphviz version 2.43.0 (0)
 -->
<!-- Title: Tmc9660Handler::adc Pages: 1 -->
<svg width="294pt" height="230pt"
 viewBox="0.00 0.00 294.00 230.00" xmlns="http://www.w3.org/2000/svg" xmlns:xlink="http://www.w3.org/1999/xlink">
<g id="graph0" class="graph" transform="scale(1 1) rotate(0) translate(4 226)">
<title>Tmc9660Handler::adc</title>
<!-- Node1 -->
<g id="Node000001" class="node">
<title>Node1</title>
<g id="a_Node000001"><a xlink:title="Get a reference to the ADC wrapper.">
<polygon fill="#999999" stroke="#666666" points="286,-120.5 163,-120.5 163,-101.5 286,-101.5 286,-120.5"/>
<text text-anchor="middle" x="224.5" y="-108.5" font-family="Helvetica,sans-Serif" font-size="10.00">Tmc9660Handler::adc</text>
</a>
</g>
</g>
<!-- Node2 -->
<g id="Node000002" class="node">
<title>Node2</title>
<g id="a_Node000002"><a xlink:href="classTmc9660AdcWrapper.html#a9d61893186aaa1d768cf61038ab285cb" target="_top" xlink:title=" ">
<polygon fill="white" stroke="#666666" points="127,-222 0,-222 0,-192 127,-192 127,-222"/>
<text text-anchor="start" x="8" y="-210" font-family="Helvetica,sans-Serif" font-size="10.00">Tmc9660AdcWrapper::</text>
<text text-anchor="middle" x="63.5" y="-199" font-family="Helvetica,sans-Serif" font-size="10.00">Deinitialize</text>
</a>
</g>
</g>
<!-- Node1&#45;&gt;Node2 -->
<g id="edge1_Node000001_Node000002" class="edge">
<title>Node1&#45;&gt;Node2</title>
<g id="a_edge1_Node000001_Node000002"><a xlink:title=" ">
<path fill="none" stroke="#63b8ff" d="M204.86,-127.36C186.17,-143.16 156.05,-166.99 127,-183 121.1,-186.25 114.66,-189.27 108.23,-191.98"/>
<polygon fill="#63b8ff" stroke="#63b8ff" points="207.29,-129.89 212.61,-120.72 202.74,-124.57 207.29,-129.89"/>
</a>
</g>
</g>
<!-- Node3 -->
<g id="Node000003" class="node">
<title>Node3</title>
<g id="a_Node000003"><a xlink:href="classTmc9660AdcWrapper.html#a7f754c5432b29313fb09f3cc353a4e6f" target="_top" xlink:title=" ">
<polygon fill="white" stroke="#666666" points="127,-174 0,-174 0,-144 127,-144 127,-174"/>
<text text-anchor="start" x="8" y="-162" font-family="Helvetica,sans-Serif" font-size="10.00">Tmc9660AdcWrapper::</text>
<text text-anchor="middle" x="63.5" y="-151" font-family="Helvetica,sans-Serif" font-size="10.00">GetMaxChannels</text>
</a>
</g>
</g>
<!-- Node1&#45;&gt;Node3 -->
<g id="edge2_Node000001_Node000003" class="edge">
<title>Node1&#45;&gt;Node3</title>
<g id="a_edge2_Node000001_Node000003"><a xlink:title=" ">
<path fill="none" stroke="#63b8ff" d="M181.95,-123.54C161.27,-129.79 136.11,-137.38 114.4,-143.94"/>
<polygon fill="#63b8ff" stroke="#63b8ff" points="183.14,-126.84 191.71,-120.6 181.12,-120.14 183.14,-126.84"/>
</a>
</g>
</g>
<!-- Node4 -->
<g id="Node000004" class="node">
<title>Node4</title>
<g id="a_Node000004"><a xlink:href="classTmc9660AdcWrapper.html#aebe0e2cd94c5db2d70ef05c5cffd1913" target="_top" xlink:title=" ">
<polygon fill="white" stroke="#666666" points="127,-126 0,-126 0,-96 127,-96 127,-126"/>
<text text-anchor="start" x="8" y="-114" font-family="Helvetica,sans-Serif" font-size="10.00">Tmc9660AdcWrapper::</text>
<text text-anchor="middle" x="63.5" y="-103" font-family="Helvetica,sans-Serif" font-size="10.00">Initialize</text>
</a>
</g>
</g>
<!-- Node1&#45;&gt;Node4 -->
<g id="edge3_Node000001_Node000004" class="edge">
<title>Node1&#45;&gt;Node4</title>
<g id="a_edge3_Node000001_Node000004"><a xlink:title=" ">
<path fill="none" stroke="#63b8ff" d="M152.9,-111C144.27,-111 135.5,-111 127.01,-111"/>
<polygon fill="#63b8ff" stroke="#63b8ff" points="152.94,-114.5 162.94,-111 152.94,-107.5 152.94,-114.5"/>
</a>
</g>
</g>
<!-- Node5 -->
<g id="Node000005" class="node">
<title>Node5</title>
<g id="a_Node000005"><a xlink:href="classTmc9660AdcWrapper.html#a3a7e9bf27e3cf27497ecbed63209fbdf" target="_top" xlink:title=" ">
<polygon fill="white" stroke="#666666" points="127,-78 0,-78 0,-48 127,-48 127,-78"/>
<text text-anchor="start" x="8" y="-66" font-family="Helvetica,sans-Serif" font-size="10.00">Tmc9660AdcWrapper::</text>
<text text-anchor="middle" x="63.5" y="-55" font-family="Helvetica,sans-Serif" font-size="10.00">ResetDiagnostics</text>
</a>
</g>
</g>
<!-- Node1&#45;&gt;Node5 -->
<g id="edge4_Node000001_Node000005" class="edge">
<title>Node1&#45;&gt;Node5</title>
<g id="a_edge4_Node000001_Node000005"><a xlink:title=" ">
<path fill="none" stroke="#63b8ff" d="M181.95,-98.46C161.27,-92.21 136.11,-84.62 114.4,-78.06"/>
<polygon fill="#63b8ff" stroke="#63b8ff" points="181.12,-101.86 191.71,-101.4 183.14,-95.16 181.12,-101.86"/>
</a>
</g>
</g>
<!-- Node6 -->
<g id="Node000006" class="node">
<title>Node6</title>
<g id="a_Node000006"><a xlink:href="classTmc9660AdcWrapper.html#abccc374da45807cc0d2cf7ddedfd88bc" target="_top" xlink:title=" ">
<polygon fill="white" stroke="#666666" points="127,-30 0,-30 0,0 127,0 127,-30"/>
<text text-anchor="start" x="8" y="-18" font-family="Helvetica,sans-Serif" font-size="10.00">Tmc9660AdcWrapper::</text>
<text text-anchor="middle" x="63.5" y="-7" font-family="Helvetica,sans-Serif" font-size="10.00">ResetStatistics</text>
</a>
</g>
</g>
<!-- Node1&#45;&gt;Node6 -->
<g id="edge5_Node000001_Node000006" class="edge">
<title>Node1&#45;&gt;Node6</title>
<g id="a_edge5_Node000001_Node000006"><a xlink:title=" ">
<path fill="none" stroke="#63b8ff" d="M204.86,-94.64C186.17,-78.84 156.05,-55.01 127,-39 121.1,-35.75 114.66,-32.73 108.23,-30.02"/>
<polygon fill="#63b8ff" stroke="#63b8ff" points="202.74,-97.43 212.61,-101.28 207.29,-92.11 202.74,-97.43"/>
</a>
</g>
</g>
</g>
</svg>
