<?xml version="1.0" encoding="UTF-8" standalone="no"?>
<!DOCTYPE svg PUBLIC "-//W3C//DTD SVG 1.1//EN"
 "http://www.w3.org/Graphics/SVG/1.1/DTD/svg11.dtd">
<!-- Generated by graphviz version 2.43.0 (0)
 -->
<!-- Title: Logger::Error Pages: 1 -->
<svg width="955pt" height="939pt"
 viewBox="0.00 0.00 955.00 939.00" xmlns="http://www.w3.org/2000/svg" xmlns:xlink="http://www.w3.org/1999/xlink">
<g id="graph0" class="graph" transform="scale(1 1) rotate(0) translate(4 935)">
<title>Logger::Error</title>
<!-- Node1 -->
<g id="Node000001" class="node">
<title>Node1</title>
<g id="a_Node000001"><a xlink:title="Log error message.">
<polygon fill="#999999" stroke="#666666" points="947,-305.5 868,-305.5 868,-286.5 947,-286.5 947,-305.5"/>
<text text-anchor="middle" x="907.5" y="-293.5" font-family="Helvetica,sans-Serif" font-size="10.00">Logger::Error</text>
</a>
</g>
</g>
<!-- Node2 -->
<g id="Node000002" class="node">
<title>Node2</title>
<g id="a_Node000002"><a xlink:href="classMax22200Handler.html#aa00edacb247660349767fa4521121104" target="_top" xlink:title=" ">
<polygon fill="white" stroke="#666666" points="629,-669 436,-669 436,-639 629,-639 629,-669"/>
<text text-anchor="start" x="444" y="-657" font-family="Helvetica,sans-Serif" font-size="10.00">Max22200Handler::EnsureInitialized</text>
<text text-anchor="middle" x="532.5" y="-646" font-family="Helvetica,sans-Serif" font-size="10.00">Locked</text>
</a>
</g>
</g>
<!-- Node1&#45;&gt;Node2 -->
<g id="edge1_Node000001_Node000002" class="edge">
<title>Node1&#45;&gt;Node2</title>
<g id="a_edge1_Node000001_Node000002"><a xlink:title=" ">
<path fill="none" stroke="#63b8ff" d="M904.12,-315.99C896.65,-375.47 871.73,-549.53 832,-588 778.72,-639.6 694.65,-654.53 629.29,-657.45"/>
<polygon fill="#63b8ff" stroke="#63b8ff" points="907.64,-316.05 905.38,-305.7 900.69,-315.2 907.64,-316.05"/>
</a>
</g>
</g>
<!-- Node12 -->
<g id="Node000012" class="node">
<title>Node12</title>
<g id="a_Node000012"><a xlink:href="classTle92466edHandler.html#a59ce7fd71a61c78bba4dc4a43c99e280" target="_top" xlink:title=" ">
<polygon fill="white" stroke="#666666" points="598,-459 467,-459 467,-429 598,-429 598,-459"/>
<text text-anchor="start" x="475" y="-447" font-family="Helvetica,sans-Serif" font-size="10.00">Tle92466edHandler::</text>
<text text-anchor="middle" x="532.5" y="-436" font-family="Helvetica,sans-Serif" font-size="10.00">EnsureInitializedLocked</text>
</a>
</g>
</g>
<!-- Node1&#45;&gt;Node12 -->
<g id="edge11_Node000001_Node000012" class="edge">
<title>Node1&#45;&gt;Node12</title>
<g id="a_edge11_Node000001_Node000012"><a xlink:title=" ">
<path fill="none" stroke="#63b8ff" d="M895.8,-314.31C883.17,-334.22 860.25,-365.41 832,-382 821.9,-387.93 683.07,-415.3 598.35,-431.63"/>
<polygon fill="#63b8ff" stroke="#63b8ff" points="898.93,-315.91 901.16,-305.55 892.95,-312.26 898.93,-315.91"/>
</a>
</g>
</g>
<!-- Node27 -->
<g id="Node000027" class="node">
<title>Node27</title>
<g id="a_Node000027"><a xlink:href="classHalSpiMax22200Comm.html#afa72d731643fff15ec9f448e62401b43" target="_top" xlink:title=" ">
<polygon fill="white" stroke="#666666" points="814,-507 683,-507 683,-477 814,-477 814,-507"/>
<text text-anchor="start" x="691" y="-495" font-family="Helvetica,sans-Serif" font-size="10.00">HalSpiMax22200Comm</text>
<text text-anchor="middle" x="748.5" y="-484" font-family="Helvetica,sans-Serif" font-size="10.00">::GpioSet</text>
</a>
</g>
</g>
<!-- Node1&#45;&gt;Node27 -->
<g id="edge26_Node000001_Node000027" class="edge">
<title>Node1&#45;&gt;Node27</title>
<g id="a_edge26_Node000001_Node000027"><a xlink:title=" ">
<path fill="none" stroke="#63b8ff" d="M903.49,-316.03C897.03,-351.86 878.48,-427.03 832,-468 826.74,-472.64 820.63,-476.38 814.16,-479.4"/>
<polygon fill="#63b8ff" stroke="#63b8ff" points="906.99,-316.31 905.18,-305.87 900.08,-315.16 906.99,-316.31"/>
</a>
</g>
</g>
<!-- Node28 -->
<g id="Node000028" class="node">
<title>Node28</title>
<g id="a_Node000028"><a xlink:href="classMax22200Handler.html#a0dce05cd6639a10e52c0f669b72baf52" target="_top" xlink:title="Initialize driver (ENABLE HIGH, read/clear STATUS, set ACTIVE).">
<polygon fill="white" stroke="#666666" points="825.5,-578.5 671.5,-578.5 671.5,-559.5 825.5,-559.5 825.5,-578.5"/>
<text text-anchor="middle" x="748.5" y="-566.5" font-family="Helvetica,sans-Serif" font-size="10.00">Max22200Handler::Initialize</text>
</a>
</g>
</g>
<!-- Node1&#45;&gt;Node28 -->
<g id="edge27_Node000001_Node000028" class="edge">
<title>Node1&#45;&gt;Node28</title>
<g id="a_edge27_Node000001_Node000028"><a xlink:title=" ">
<path fill="none" stroke="#63b8ff" d="M904.2,-315.99C898.57,-357.33 880.78,-453.55 832,-516 816.39,-535.99 791,-550.66 772.51,-559.44"/>
<polygon fill="#63b8ff" stroke="#63b8ff" points="907.7,-316.22 905.49,-305.86 900.76,-315.35 907.7,-316.22"/>
</a>
</g>
</g>
<!-- Node29 -->
<g id="Node000029" class="node">
<title>Node29</title>
<g id="a_Node000029"><a xlink:href="classTle92466edHandler.html#ac607f9cf2453e8d1849b40d2dd8e8474" target="_top" xlink:title="Initialize driver (hardware reset + SPI init + enter config mode).">
<polygon fill="white" stroke="#666666" points="807.5,-459 689.5,-459 689.5,-429 807.5,-429 807.5,-459"/>
<text text-anchor="start" x="697.5" y="-447" font-family="Helvetica,sans-Serif" font-size="10.00">Tle92466edHandler::</text>
<text text-anchor="middle" x="748.5" y="-436" font-family="Helvetica,sans-Serif" font-size="10.00">Initialize</text>
</a>
</g>
</g>
<!-- Node1&#45;&gt;Node29 -->
<g id="edge29_Node000001_Node000029" class="edge">
<title>Node1&#45;&gt;Node29</title>
<g id="a_edge29_Node000001_Node000029"><a xlink:title=" ">
<path fill="none" stroke="#63b8ff" d="M899.32,-315.06C888.54,-341.2 865.79,-387.97 832,-415 824.77,-420.79 816.3,-425.46 807.59,-429.23"/>
<polygon fill="#63b8ff" stroke="#63b8ff" points="902.66,-316.13 903.09,-305.55 896.15,-313.56 902.66,-316.13"/>
</a>
</g>
</g>
<!-- Node30 -->
<g id="Node000030" class="node">
<title>Node30</title>
<g id="a_Node000030"><a xlink:href="classWs2812Handler.html#acce4955435f295ba4853b6239090982f" target="_top" xlink:title="Initialize the RMT channel and LED strip.">
<polygon fill="white" stroke="#666666" points="819.5,-372.5 677.5,-372.5 677.5,-353.5 819.5,-353.5 819.5,-372.5"/>
<text text-anchor="middle" x="748.5" y="-360.5" font-family="Helvetica,sans-Serif" font-size="10.00">Ws2812Handler::Initialize</text>
</a>
</g>
</g>
<!-- Node1&#45;&gt;Node30 -->
<g id="edge31_Node000001_Node000030" class="edge">
<title>Node1&#45;&gt;Node30</title>
<g id="a_edge31_Node000001_Node000030"><a xlink:title=" ">
<path fill="none" stroke="#63b8ff" d="M886.43,-311.67C872.01,-322.22 851.72,-335.68 832,-344 822.93,-347.83 812.95,-350.96 803.17,-353.48"/>
<polygon fill="#63b8ff" stroke="#63b8ff" points="888.69,-314.35 894.58,-305.55 884.49,-308.76 888.69,-314.35"/>
</a>
</g>
</g>
<!-- Node42 -->
<g id="Node000042" class="node">
<title>Node42</title>
<g id="a_Node000042"><a xlink:href="classNtcTemperatureHandler.html#a97fa93b2ed6337e24e056b46fbe331c7" target="_top" xlink:title=" ">
<polygon fill="white" stroke="#666666" points="815,-335 682,-335 682,-305 815,-305 815,-335"/>
<text text-anchor="start" x="690" y="-323" font-family="Helvetica,sans-Serif" font-size="10.00">NtcTemperatureHandler</text>
<text text-anchor="middle" x="748.5" y="-312" font-family="Helvetica,sans-Serif" font-size="10.00">::Initialize</text>
</a>
</g>
</g>
<!-- Node1&#45;&gt;Node42 -->
<g id="edge39_Node000001_Node000042" class="edge">
<title>Node1&#45;&gt;Node42</title>
<g id="a_edge39_Node000001_Node000042"><a xlink:title=" ">
<path fill="none" stroke="#63b8ff" d="M857.68,-303.46C844.19,-305.53 829.33,-307.8 815.05,-309.98"/>
<polygon fill="#63b8ff" stroke="#63b8ff" points="858.33,-306.9 867.69,-301.93 857.28,-299.98 858.33,-306.9"/>
</a>
</g>
</g>
<!-- Node43 -->
<g id="Node000043" class="node">
<title>Node43</title>
<g id="a_Node000043"><a xlink:href="classTmc9660Handler_1_1Temperature.html#a8019acd874c13ba0e175224a367bf370" target="_top" xlink:title="Initialize (verifies parent driver is ready).">
<polygon fill="white" stroke="#666666" points="832,-287 665,-287 665,-257 832,-257 832,-287"/>
<text text-anchor="start" x="673" y="-275" font-family="Helvetica,sans-Serif" font-size="10.00">Tmc9660Handler::Temperature</text>
<text text-anchor="middle" x="748.5" y="-264" font-family="Helvetica,sans-Serif" font-size="10.00">::Initialize</text>
</a>
</g>
</g>
<!-- Node1&#45;&gt;Node43 -->
<g id="edge40_Node000001_Node000043" class="edge">
<title>Node1&#45;&gt;Node43</title>
<g id="a_edge40_Node000001_Node000043"><a xlink:title=" ">
<path fill="none" stroke="#63b8ff" d="M857.65,-288.53C849.49,-287.29 840.83,-285.96 832.09,-284.63"/>
<polygon fill="#63b8ff" stroke="#63b8ff" points="857.28,-292.02 867.69,-290.07 858.33,-285.1 857.28,-292.02"/>
</a>
</g>
</g>
<!-- Node44 -->
<g id="Node000044" class="node">
<title>Node44</title>
<g id="a_Node000044"><a xlink:href="classTmc9660Handler.html#adc564847f8ae26c47412aaee0758991c" target="_top" xlink:title="Initialize the TMC9660 device.">
<polygon fill="white" stroke="#666666" points="822.5,-238.5 674.5,-238.5 674.5,-219.5 822.5,-219.5 822.5,-238.5"/>
<text text-anchor="middle" x="748.5" y="-226.5" font-family="Helvetica,sans-Serif" font-size="10.00">Tmc9660Handler::Initialize</text>
</a>
</g>
</g>
<!-- Node1&#45;&gt;Node44 -->
<g id="edge41_Node000001_Node000044" class="edge">
<title>Node1&#45;&gt;Node44</title>
<g id="a_edge41_Node000001_Node000044"><a xlink:title=" ">
<path fill="none" stroke="#63b8ff" d="M886.43,-280.33C872.01,-269.78 851.72,-256.32 832,-248 822.93,-244.17 812.95,-241.04 803.17,-238.52"/>
<polygon fill="#63b8ff" stroke="#63b8ff" points="884.49,-283.24 894.58,-286.45 888.69,-277.65 884.49,-283.24"/>
</a>
</g>
</g>
<!-- Node96 -->
<g id="Node000096" class="node">
<title>Node96</title>
<g id="a_Node000096"><a xlink:href="classMax22200Handler.html#aca940fd8213ecb633bafb7c3e143a361" target="_top" xlink:title="Initialize with board configuration.">
<polygon fill="white" stroke="#666666" points="825.5,-201.5 671.5,-201.5 671.5,-182.5 825.5,-182.5 825.5,-201.5"/>
<text text-anchor="middle" x="748.5" y="-189.5" font-family="Helvetica,sans-Serif" font-size="10.00">Max22200Handler::Initialize</text>
</a>
</g>
</g>
<!-- Node1&#45;&gt;Node96 -->
<g id="edge46_Node000001_Node000096" class="edge">
<title>Node1&#45;&gt;Node96</title>
<g id="a_edge46_Node000001_Node000096"><a xlink:title=" ">
<path fill="none" stroke="#63b8ff" d="M895.49,-277.71C882.71,-258.12 859.79,-227.61 832,-211 825.57,-207.15 818.42,-204.09 811.1,-201.64"/>
<polygon fill="#63b8ff" stroke="#63b8ff" points="892.63,-279.75 900.92,-286.34 898.56,-276.02 892.63,-279.75"/>
</a>
</g>
</g>
<!-- Node97 -->
<g id="Node000097" class="node">
<title>Node97</title>
<g id="a_Node000097"><a xlink:href="classTle92466edHandler.html#a2f01dd08b168f009db41d658db3484eb" target="_top" xlink:title="Initialize with global configuration.">
<polygon fill="white" stroke="#666666" points="807.5,-164 689.5,-164 689.5,-134 807.5,-134 807.5,-164"/>
<text text-anchor="start" x="697.5" y="-152" font-family="Helvetica,sans-Serif" font-size="10.00">Tle92466edHandler::</text>
<text text-anchor="middle" x="748.5" y="-141" font-family="Helvetica,sans-Serif" font-size="10.00">Initialize</text>
</a>
</g>
</g>
<!-- Node1&#45;&gt;Node97 -->
<g id="edge47_Node000001_Node000097" class="edge">
<title>Node1&#45;&gt;Node97</title>
<g id="a_edge47_Node000001_Node000097"><a xlink:title=" ">
<path fill="none" stroke="#63b8ff" d="M899.91,-277C889.61,-250.11 867.18,-201.21 832,-174 824.78,-168.41 816.32,-164.07 807.61,-160.7"/>
<polygon fill="#63b8ff" stroke="#63b8ff" points="896.64,-278.26 903.37,-286.44 903.21,-275.85 896.64,-278.26"/>
</a>
</g>
</g>
<!-- Node98 -->
<g id="Node000098" class="node">
<title>Node98</title>
<g id="a_Node000098"><a xlink:href="classTmc5160Handler.html#a44ab36857e4e43062f81f7d6f10eab09" target="_top" xlink:title="Initialize the TMC5160 driver with full configuration.">
<polygon fill="white" stroke="#666666" points="822.5,-115.5 674.5,-115.5 674.5,-96.5 822.5,-96.5 822.5,-115.5"/>
<text text-anchor="middle" x="748.5" y="-103.5" font-family="Helvetica,sans-Serif" font-size="10.00">Tmc5160Handler::Initialize</text>
</a>
</g>
</g>
<!-- Node1&#45;&gt;Node98 -->
<g id="edge48_Node000001_Node000098" class="edge">
<title>Node1&#45;&gt;Node98</title>
<g id="a_edge48_Node000001_Node000098"><a xlink:title=" ">
<path fill="none" stroke="#63b8ff" d="M903.76,-276.34C897.69,-240.49 879.65,-164.58 832,-125 827.36,-121.15 822.1,-118.05 816.52,-115.55"/>
<polygon fill="#63b8ff" stroke="#63b8ff" points="900.34,-277.12 905.33,-286.47 907.26,-276.05 900.34,-277.12"/>
</a>
</g>
</g>
<!-- Node79 -->
<g id="Node000079" class="node">
<title>Node79</title>
<g id="a_Node000079"><a xlink:href="classTmc9660Handler_1_1Temperature.html#a5ebc77b2122ba4473b74a4a0fc78ff09" target="_top" xlink:title="Read the chip temperature in degrees Celsius.">
<polygon fill="white" stroke="#666666" points="832,-78 665,-78 665,-48 832,-48 832,-78"/>
<text text-anchor="start" x="673" y="-66" font-family="Helvetica,sans-Serif" font-size="10.00">Tmc9660Handler::Temperature</text>
<text text-anchor="middle" x="748.5" y="-55" font-family="Helvetica,sans-Serif" font-size="10.00">::ReadTemperatureCelsiusImpl</text>
</a>
</g>
</g>
<!-- Node1&#45;&gt;Node79 -->
<g id="edge50_Node000001_Node000079" class="edge">
<title>Node1&#45;&gt;Node79</title>
<g id="a_edge50_Node000001_Node000079"><a xlink:title=" ">
<path fill="none" stroke="#63b8ff" d="M905.28,-276.38C901.64,-235.18 887.35,-139.16 832,-87 828.42,-83.62 824.39,-80.72 820.09,-78.22"/>
<polygon fill="#63b8ff" stroke="#63b8ff" points="901.8,-276.76 906.05,-286.47 908.78,-276.23 901.8,-276.76"/>
</a>
</g>
</g>
<!-- Node109 -->
<g id="Node000109" class="node">
<title>Node109</title>
<g id="a_Node000109"><a xlink:href="classNtcTemperatureHandler.html#aeabac754a1b923c79969657d69b97a72" target="_top" xlink:title=" ">
<polygon fill="white" stroke="#666666" points="825,-30 672,-30 672,0 825,0 825,-30"/>
<text text-anchor="start" x="680" y="-18" font-family="Helvetica,sans-Serif" font-size="10.00">NtcTemperatureHandler</text>
<text text-anchor="middle" x="748.5" y="-7" font-family="Helvetica,sans-Serif" font-size="10.00">::StartContinuousMonitoring</text>
</a>
</g>
</g>
<!-- Node1&#45;&gt;Node109 -->
<g id="edge51_Node000001_Node000109" class="edge">
<title>Node1&#45;&gt;Node109</title>
<g id="a_edge51_Node000001_Node000109"><a xlink:title=" ">
<path fill="none" stroke="#63b8ff" d="M906.81,-276.26C906.46,-228.52 898.73,-105.79 832,-39 828.63,-35.62 824.81,-32.72 820.71,-30.21"/>
<polygon fill="#63b8ff" stroke="#63b8ff" points="903.31,-276.46 906.78,-286.47 910.31,-276.48 903.31,-276.46"/>
</a>
</g>
</g>
<!-- Node3 -->
<g id="Node000003" class="node">
<title>Node3</title>
<g id="a_Node000003"><a xlink:href="classMax22200Handler.html#afd07a624dc736a1452c0f6190499adc0" target="_top" xlink:title="Dump diagnostics to logger.">
<polygon fill="white" stroke="#666666" points="400,-719.5 202,-719.5 202,-700.5 400,-700.5 400,-719.5"/>
<text text-anchor="middle" x="301" y="-707.5" font-family="Helvetica,sans-Serif" font-size="10.00">Max22200Handler::DumpDiagnostics</text>
</a>
</g>
</g>
<!-- Node2&#45;&gt;Node3 -->
<g id="edge2_Node000002_Node000003" class="edge">
<title>Node2&#45;&gt;Node3</title>
<g id="a_edge2_Node000002_Node000003"><a xlink:title=" ">
<path fill="none" stroke="#63b8ff" d="M473.83,-672.01C450.98,-678.8 424.38,-686.25 400,-692 386.87,-695.1 372.64,-697.98 359.2,-700.48"/>
<polygon fill="#63b8ff" stroke="#63b8ff" points="475.14,-675.28 483.71,-669.05 473.13,-668.57 475.14,-675.28"/>
</a>
</g>
</g>
<!-- Node4 -->
<g id="Node000004" class="node">
<title>Node4</title>
<g id="a_Node000004"><a xlink:href="classMax22200Handler.html#a803b60663755d7850857626b58efc084" target="_top" xlink:title="Ensure driver is initialized (lazy init entrypoint).">
<polygon fill="white" stroke="#666666" points="397.5,-682.5 204.5,-682.5 204.5,-663.5 397.5,-663.5 397.5,-682.5"/>
<text text-anchor="middle" x="301" y="-670.5" font-family="Helvetica,sans-Serif" font-size="10.00">Max22200Handler::EnsureInitialized</text>
</a>
</g>
</g>
<!-- Node2&#45;&gt;Node4 -->
<g id="edge3_Node000002_Node000004" class="edge">
<title>Node2&#45;&gt;Node4</title>
<g id="a_edge3_Node000002_Node000004"><a xlink:title=" ">
<path fill="none" stroke="#63b8ff" d="M425.68,-662.76C416.29,-663.54 406.81,-664.32 397.51,-665.09"/>
<polygon fill="#63b8ff" stroke="#63b8ff" points="426.16,-666.23 435.83,-661.92 425.58,-659.26 426.16,-666.23"/>
</a>
</g>
</g>
<!-- Node5 -->
<g id="Node000005" class="node">
<title>Node5</title>
<g id="a_Node000005"><a xlink:href="classMax22200Handler.html#a001e00b9d9a02611b51951f16bcb78d1" target="_top" xlink:title="Get the underlying driver for advanced operations.">
<polygon fill="white" stroke="#666666" points="380.5,-645.5 221.5,-645.5 221.5,-626.5 380.5,-626.5 380.5,-645.5"/>
<text text-anchor="middle" x="301" y="-633.5" font-family="Helvetica,sans-Serif" font-size="10.00">Max22200Handler::GetDriver</text>
</a>
</g>
</g>
<!-- Node2&#45;&gt;Node5 -->
<g id="edge4_Node000002_Node000005" class="edge">
<title>Node2&#45;&gt;Node5</title>
<g id="a_edge4_Node000002_Node000005"><a xlink:title=" ">
<path fill="none" stroke="#63b8ff" d="M425.47,-645.68C410.43,-644.5 395.19,-643.31 380.79,-642.18"/>
<polygon fill="#63b8ff" stroke="#63b8ff" points="425.59,-649.2 435.83,-646.5 426.14,-642.23 425.59,-649.2"/>
</a>
</g>
</g>
<!-- Node7 -->
<g id="Node000007" class="node">
<title>Node7</title>
<g id="a_Node000007"><a xlink:href="classMax22200Handler.html#abcdd9746a0df9c28bb36508d52d80ef5" target="_top" xlink:title="Execute a lambda with a locked, initialized driver.">
<polygon fill="white" stroke="#666666" points="382.5,-834.5 219.5,-834.5 219.5,-815.5 382.5,-815.5 382.5,-834.5"/>
<text text-anchor="middle" x="301" y="-822.5" font-family="Helvetica,sans-Serif" font-size="10.00">Max22200Handler::withDriver</text>
</a>
</g>
</g>
<!-- Node2&#45;&gt;Node7 -->
<g id="edge6_Node000002_Node000007" class="edge">
<title>Node2&#45;&gt;Node7</title>
<g id="a_edge6_Node000002_Node000007"><a xlink:title=" ">
<path fill="none" stroke="#63b8ff" d="M502.97,-675.26C452.81,-712.64 350.71,-788.71 314.82,-815.45"/>
<polygon fill="#63b8ff" stroke="#63b8ff" points="505.21,-677.96 511.13,-669.18 501.02,-672.34 505.21,-677.96"/>
</a>
</g>
</g>
<!-- Node6 -->
<g id="Node000006" class="node">
<title>Node6</title>
<g id="a_Node000006"><a xlink:href="classMax22200Handler.html#aee42537a3d2f0955a1479709b2d4b4b8" target="_top" xlink:title=" ">
<polygon fill="white" stroke="#666666" points="162.5,-760.5 3.5,-760.5 3.5,-741.5 162.5,-741.5 162.5,-760.5"/>
<text text-anchor="middle" x="83" y="-748.5" font-family="Helvetica,sans-Serif" font-size="10.00">Max22200Handler::GetDriver</text>
</a>
</g>
</g>
<!-- Node5&#45;&gt;Node6 -->
<g id="edge5_Node000005_Node000006" class="edge">
<title>Node5&#45;&gt;Node6</title>
<g id="a_edge5_Node000005_Node000006"><a xlink:title=" ">
<path fill="none" stroke="#63b8ff" d="M211.73,-648.65C208.31,-650.51 205.05,-652.62 202,-655 172.21,-678.24 195.36,-708.23 166,-732 161.23,-735.86 155.82,-738.97 150.1,-741.46"/>
<polygon fill="#63b8ff" stroke="#63b8ff" points="213.52,-651.67 221.08,-644.25 210.54,-645.34 213.52,-651.67"/>
</a>
</g>
</g>
<!-- Node8 -->
<g id="Node000008" class="node">
<title>Node8</title>
<g id="a_Node000008"><a xlink:href="classMax22200Handler.html#a963d65edae16cca4fd153b3af0c1e68e" target="_top" xlink:title="Clear all fault flags.">
<polygon fill="white" stroke="#666666" points="166,-797.5 0,-797.5 0,-778.5 166,-778.5 166,-797.5"/>
<text text-anchor="middle" x="83" y="-785.5" font-family="Helvetica,sans-Serif" font-size="10.00">Max22200Handler::ClearFaults</text>
</a>
</g>
</g>
<!-- Node7&#45;&gt;Node8 -->
<g id="edge7_Node000007_Node000008" class="edge">
<title>Node7&#45;&gt;Node8</title>
<g id="a_edge7_Node000007_Node000008"><a xlink:title=" ">
<path fill="none" stroke="#63b8ff" d="M234.35,-813.75C204.15,-808.58 168.7,-802.51 139.81,-797.56"/>
<polygon fill="#63b8ff" stroke="#63b8ff" points="233.93,-817.23 244.37,-815.47 235.11,-810.33 233.93,-817.23"/>
</a>
</g>
</g>
<!-- Node9 -->
<g id="Node000009" class="node">
<title>Node9</title>
<g id="a_Node000009"><a xlink:href="classMax22200Handler.html#a9e9684818c7efddd45697f28051cbca2" target="_top" xlink:title="Disable all channels.">
<polygon fill="white" stroke="#666666" points="157.5,-931 8.5,-931 8.5,-901 157.5,-901 157.5,-931"/>
<text text-anchor="start" x="16.5" y="-919" font-family="Helvetica,sans-Serif" font-size="10.00">Max22200Handler::Disable</text>
<text text-anchor="middle" x="83" y="-908" font-family="Helvetica,sans-Serif" font-size="10.00">AllChannels</text>
</a>
</g>
</g>
<!-- Node7&#45;&gt;Node9 -->
<g id="edge8_Node000007_Node000009" class="edge">
<title>Node7&#45;&gt;Node9</title>
<g id="a_edge8_Node000007_Node000009"><a xlink:title=" ">
<path fill="none" stroke="#63b8ff" d="M274.1,-839.7C247.56,-854.33 204.81,-876.76 166,-892 157.85,-895.2 149.11,-898.2 140.47,-900.92"/>
<polygon fill="#63b8ff" stroke="#63b8ff" points="276.07,-842.61 283.1,-834.68 272.66,-836.49 276.07,-842.61"/>
</a>
</g>
</g>
<!-- Node10 -->
<g id="Node000010" class="node">
<title>Node10</title>
<g id="a_Node000010"><a xlink:href="classMax22200Handler.html#af7aba4f68825068e774badca04c49a07" target="_top" xlink:title="Enable all channels.">
<polygon fill="white" stroke="#666666" points="162,-883 4,-883 4,-853 162,-853 162,-883"/>
<text text-anchor="start" x="12" y="-871" font-family="Helvetica,sans-Serif" font-size="10.00">Max22200Handler::EnableAll</text>
<text text-anchor="middle" x="83" y="-860" font-family="Helvetica,sans-Serif" font-size="10.00">Channels</text>
</a>
</g>
</g>
<!-- Node7&#45;&gt;Node10 -->
<g id="edge9_Node000007_Node000010" class="edge">
<title>Node7&#45;&gt;Node10</title>
<g id="a_edge9_Node000007_Node000010"><a xlink:title=" ">
<path fill="none" stroke="#63b8ff" d="M242.2,-836.51C216.77,-841.57 186.55,-847.58 159.38,-852.99"/>
<polygon fill="#63b8ff" stroke="#63b8ff" points="242.94,-839.93 252.06,-834.54 241.57,-833.06 242.94,-839.93"/>
</a>
</g>
</g>
<!-- Node11 -->
<g id="Node000011" class="node">
<title>Node11</title>
<g id="a_Node000011"><a xlink:href="classMax22200Handler.html#ac5b60b117fec404c55597929134fa1a1" target="_top" xlink:title="Check if any fault is present.">
<polygon fill="white" stroke="#666666" points="160,-834.5 6,-834.5 6,-815.5 160,-815.5 160,-834.5"/>
<text text-anchor="middle" x="83" y="-822.5" font-family="Helvetica,sans-Serif" font-size="10.00">Max22200Handler::HasFault</text>
</a>
</g>
</g>
<!-- Node7&#45;&gt;Node11 -->
<g id="edge10_Node000007_Node000011" class="edge">
<title>Node7&#45;&gt;Node11</title>
<g id="a_edge10_Node000007_Node000011"><a xlink:title=" ">
<path fill="none" stroke="#63b8ff" d="M209.22,-825C192.95,-825 176.16,-825 160.35,-825"/>
<polygon fill="#63b8ff" stroke="#63b8ff" points="209.26,-828.5 219.26,-825 209.26,-821.5 209.26,-828.5"/>
</a>
</g>
</g>
<!-- Node13 -->
<g id="Node000013" class="node">
<title>Node13</title>
<g id="a_Node000013"><a xlink:href="classTle92466edHandler.html#afcec01ba90f6596dcde99387ef41b6e4" target="_top" xlink:title="Dump diagnostics to logger.">
<polygon fill="white" stroke="#666666" points="360,-507 242,-507 242,-477 360,-477 360,-507"/>
<text text-anchor="start" x="250" y="-495" font-family="Helvetica,sans-Serif" font-size="10.00">Tle92466edHandler::</text>
<text text-anchor="middle" x="301" y="-484" font-family="Helvetica,sans-Serif" font-size="10.00">DumpDiagnostics</text>
</a>
</g>
</g>
<!-- Node12&#45;&gt;Node13 -->
<g id="edge12_Node000012_Node000013" class="edge">
<title>Node12&#45;&gt;Node13</title>
<g id="a_edge12_Node000012_Node000013"><a xlink:title=" ">
<path fill="none" stroke="#63b8ff" d="M456.94,-459.59C425.55,-466.16 389.57,-473.69 360.18,-479.83"/>
<polygon fill="#63b8ff" stroke="#63b8ff" points="457.89,-462.97 466.96,-457.5 456.46,-456.12 457.89,-462.97"/>
</a>
</g>
</g>
<!-- Node14 -->
<g id="Node000014" class="node">
<title>Node14</title>
<g id="a_Node000014"><a xlink:href="classTle92466edHandler.html#a1a976346516812f7125cdeb2f3aeb327" target="_top" xlink:title="Ensure driver is initialized (lazy init entrypoint).">
<polygon fill="white" stroke="#666666" points="360,-459 242,-459 242,-429 360,-429 360,-459"/>
<text text-anchor="start" x="250" y="-447" font-family="Helvetica,sans-Serif" font-size="10.00">Tle92466edHandler::</text>
<text text-anchor="middle" x="301" y="-436" font-family="Helvetica,sans-Serif" font-size="10.00">EnsureInitialized</text>
</a>
</g>
</g>
<!-- Node12&#45;&gt;Node14 -->
<g id="edge13_Node000012_Node000014" class="edge">
<title>Node12&#45;&gt;Node14</title>
<g id="a_edge13_Node000012_Node000014"><a xlink:title=" ">
<path fill="none" stroke="#63b8ff" d="M456.94,-444C425.55,-444 389.57,-444 360.18,-444"/>
<polygon fill="#63b8ff" stroke="#63b8ff" points="456.96,-447.5 466.96,-444 456.96,-440.5 456.96,-447.5"/>
</a>
</g>
</g>
<!-- Node15 -->
<g id="Node000015" class="node">
<title>Node15</title>
<g id="a_Node000015"><a xlink:href="classTle92466edHandler.html#ae83bbf85e50d68c8adcc2160bdaed271" target="_top" xlink:title="Get the underlying driver for advanced operations.">
<polygon fill="white" stroke="#666666" points="360,-411 242,-411 242,-381 360,-381 360,-411"/>
<text text-anchor="start" x="250" y="-399" font-family="Helvetica,sans-Serif" font-size="10.00">Tle92466edHandler::</text>
<text text-anchor="middle" x="301" y="-388" font-family="Helvetica,sans-Serif" font-size="10.00">GetDriver</text>
</a>
</g>
</g>
<!-- Node12&#45;&gt;Node15 -->
<g id="edge14_Node000012_Node000015" class="edge">
<title>Node12&#45;&gt;Node15</title>
<g id="a_edge14_Node000012_Node000015"><a xlink:title=" ">
<path fill="none" stroke="#63b8ff" d="M456.94,-428.41C425.55,-421.84 389.57,-414.31 360.18,-408.17"/>
<polygon fill="#63b8ff" stroke="#63b8ff" points="456.46,-431.88 466.96,-430.5 457.89,-425.03 456.46,-431.88"/>
</a>
</g>
</g>
<!-- Node17 -->
<g id="Node000017" class="node">
<title>Node17</title>
<g id="a_Node000017"><a xlink:href="classTle92466edHandler.html#aef42f3c7c1b1ef51b27eb8d178aca6bc" target="_top" xlink:title="Execute a lambda with a locked, initialized driver.">
<polygon fill="white" stroke="#666666" points="360,-555 242,-555 242,-525 360,-525 360,-555"/>
<text text-anchor="start" x="250" y="-543" font-family="Helvetica,sans-Serif" font-size="10.00">Tle92466edHandler::</text>
<text text-anchor="middle" x="301" y="-532" font-family="Helvetica,sans-Serif" font-size="10.00">withDriver</text>
</a>
</g>
</g>
<!-- Node12&#45;&gt;Node17 -->
<g id="edge16_Node000012_Node000017" class="edge">
<title>Node12&#45;&gt;Node17</title>
<g id="a_edge16_Node000012_Node000017"><a xlink:title=" ">
<path fill="none" stroke="#63b8ff" d="M499.52,-464.6C473.58,-480.55 435.59,-502.17 400,-516 387.35,-520.92 373.37,-525.06 360.04,-528.44"/>
<polygon fill="#63b8ff" stroke="#63b8ff" points="501.53,-467.48 508.17,-459.22 497.83,-461.53 501.53,-467.48"/>
</a>
</g>
</g>
<!-- Node16 -->
<g id="Node000016" class="node">
<title>Node16</title>
<g id="a_Node000016"><a xlink:href="classTle92466edHandler.html#a56ebe6e509ccd1b6b865728ba14d2533" target="_top" xlink:title=" ">
<polygon fill="white" stroke="#666666" points="142,-291 24,-291 24,-261 142,-261 142,-291"/>
<text text-anchor="start" x="32" y="-279" font-family="Helvetica,sans-Serif" font-size="10.00">Tle92466edHandler::</text>
<text text-anchor="middle" x="83" y="-268" font-family="Helvetica,sans-Serif" font-size="10.00">GetDriver</text>
</a>
</g>
</g>
<!-- Node15&#45;&gt;Node16 -->
<g id="edge15_Node000015_Node000016" class="edge">
<title>Node15&#45;&gt;Node16</title>
<g id="a_edge15_Node000015_Node000016"><a xlink:title=" ">
<path fill="none" stroke="#63b8ff" d="M231.87,-387.48C221.12,-383.92 210.7,-378.94 202,-372 174.04,-349.68 193.46,-322.94 166,-300 159.06,-294.2 150.77,-289.8 142.16,-286.46"/>
<polygon fill="#63b8ff" stroke="#63b8ff" points="231.21,-390.93 241.79,-390.36 233.17,-384.21 231.21,-390.93"/>
</a>
</g>
</g>
<!-- Node18 -->
<g id="Node000018" class="node">
<title>Node18</title>
<g id="a_Node000018"><a xlink:href="classTle92466edHandler.html#ab3123678e6df690f5669fd89079e0a4e" target="_top" xlink:title="Clear all fault flags.">
<polygon fill="white" stroke="#666666" points="142,-435 24,-435 24,-405 142,-405 142,-435"/>
<text text-anchor="start" x="32" y="-423" font-family="Helvetica,sans-Serif" font-size="10.00">Tle92466edHandler::</text>
<text text-anchor="middle" x="83" y="-412" font-family="Helvetica,sans-Serif" font-size="10.00">ClearFaults</text>
</a>
</g>
</g>
<!-- Node17&#45;&gt;Node18 -->
<g id="edge17_Node000017_Node000018" class="edge">
<title>Node17&#45;&gt;Node18</title>
<g id="a_edge17_Node000017_Node000018"><a xlink:title=" ">
<path fill="none" stroke="#63b8ff" d="M231.87,-531.48C221.12,-527.92 210.7,-522.94 202,-516 174.04,-493.68 193.46,-466.94 166,-444 159.06,-438.2 150.77,-433.8 142.16,-430.46"/>
<polygon fill="#63b8ff" stroke="#63b8ff" points="231.21,-534.93 241.79,-534.36 233.17,-528.21 231.21,-534.93"/>
</a>
</g>
</g>
<!-- Node19 -->
<g id="Node000019" class="node">
<title>Node19</title>
<g id="a_Node000019"><a xlink:href="classTle92466edHandler.html#ac37cbbcce53c7a55657ee61cd5015190" target="_top" xlink:title="Disable all channels.">
<polygon fill="white" stroke="#666666" points="142,-387 24,-387 24,-357 142,-357 142,-387"/>
<text text-anchor="start" x="32" y="-375" font-family="Helvetica,sans-Serif" font-size="10.00">Tle92466edHandler::</text>
<text text-anchor="middle" x="83" y="-364" font-family="Helvetica,sans-Serif" font-size="10.00">DisableAllChannels</text>
</a>
</g>
</g>
<!-- Node17&#45;&gt;Node19 -->
<g id="edge18_Node000017_Node000019" class="edge">
<title>Node17&#45;&gt;Node19</title>
<g id="a_edge18_Node000017_Node000019"><a xlink:title=" ">
<path fill="none" stroke="#63b8ff" d="M232.1,-533.14C221,-529.44 210.4,-523.98 202,-516 161.63,-477.65 205.51,-435.24 166,-396 159.37,-389.41 151.04,-384.62 142.24,-381.13"/>
<polygon fill="#63b8ff" stroke="#63b8ff" points="231.36,-536.57 241.94,-535.97 233.3,-529.85 231.36,-536.57"/>
</a>
</g>
</g>
<!-- Node20 -->
<g id="Node000020" class="node">
<title>Node20</title>
<g id="a_Node000020"><a xlink:href="classTle92466edHandler.html#a1ee30771436827a1499a379aa7e5ab49" target="_top" xlink:title="Enable all channels.">
<polygon fill="white" stroke="#666666" points="142,-339 24,-339 24,-309 142,-309 142,-339"/>
<text text-anchor="start" x="32" y="-327" font-family="Helvetica,sans-Serif" font-size="10.00">Tle92466edHandler::</text>
<text text-anchor="middle" x="83" y="-316" font-family="Helvetica,sans-Serif" font-size="10.00">EnableAllChannels</text>
</a>
</g>
</g>
<!-- Node17&#45;&gt;Node20 -->
<g id="edge19_Node000017_Node000020" class="edge">
<title>Node17&#45;&gt;Node20</title>
<g id="a_edge19_Node000017_Node000020"><a xlink:title=" ">
<path fill="none" stroke="#63b8ff" d="M231.95,-533.82C220.76,-530.06 210.17,-524.41 202,-516 148.79,-461.22 217.97,-403.95 166,-348 159.54,-341.04 151.18,-336.07 142.28,-332.51"/>
<polygon fill="#63b8ff" stroke="#63b8ff" points="231.31,-537.28 241.89,-536.66 233.24,-530.55 231.31,-537.28"/>
</a>
</g>
</g>
<!-- Node21 -->
<g id="Node000021" class="node">
<title>Node21</title>
<g id="a_Node000021"><a xlink:href="classTle92466edHandler.html#a19b966bb109b988eb98d319b76908667" target="_top" xlink:title="Enter config mode (for register writes).">
<polygon fill="white" stroke="#666666" points="142,-723 24,-723 24,-693 142,-693 142,-723"/>
<text text-anchor="start" x="32" y="-711" font-family="Helvetica,sans-Serif" font-size="10.00">Tle92466edHandler::</text>
<text text-anchor="middle" x="83" y="-700" font-family="Helvetica,sans-Serif" font-size="10.00">EnterConfigMode</text>
</a>
</g>
</g>
<!-- Node17&#45;&gt;Node21 -->
<g id="edge20_Node000017_Node000021" class="edge">
<title>Node17&#45;&gt;Node21</title>
<g id="a_edge20_Node000017_Node000021"><a xlink:title=" ">
<path fill="none" stroke="#63b8ff" d="M267.56,-560.82C247.01,-575.14 220.85,-595.57 202,-618 180.5,-643.58 192.02,-663.04 166,-684 159.07,-689.58 150.88,-693.87 142.41,-697.16"/>
<polygon fill="#63b8ff" stroke="#63b8ff" points="269.7,-563.6 275.99,-555.07 265.75,-557.82 269.7,-563.6"/>
</a>
</g>
</g>
<!-- Node22 -->
<g id="Node000022" class="node">
<title>Node22</title>
<g id="a_Node000022"><a xlink:href="classTle92466edHandler.html#aee10ff4c219a042d260a6b1f58a9219a" target="_top" xlink:title="Enter mission mode (enable outputs after configuration).">
<polygon fill="white" stroke="#666666" points="142,-675 24,-675 24,-645 142,-645 142,-675"/>
<text text-anchor="start" x="32" y="-663" font-family="Helvetica,sans-Serif" font-size="10.00">Tle92466edHandler::</text>
<text text-anchor="middle" x="83" y="-652" font-family="Helvetica,sans-Serif" font-size="10.00">EnterMissionMode</text>
</a>
</g>
</g>
<!-- Node17&#45;&gt;Node22 -->
<g id="edge21_Node000017_Node000022" class="edge">
<title>Node17&#45;&gt;Node22</title>
<g id="a_edge21_Node000017_Node000022"><a xlink:title=" ">
<path fill="none" stroke="#63b8ff" d="M275.27,-561.67C249.54,-583.21 207.33,-615.87 166,-636 158.53,-639.64 150.41,-642.83 142.27,-645.6"/>
<polygon fill="#63b8ff" stroke="#63b8ff" points="277.65,-564.23 283.02,-555.09 273.13,-558.89 277.65,-564.23"/>
</a>
</g>
</g>
<!-- Node23 -->
<g id="Node000023" class="node">
<title>Node23</title>
<g id="a_Node000023"><a xlink:href="classTle92466edHandler.html#a4c646ee5db271f07517cc15e8a623f0e" target="_top" xlink:title="Get chip ID (returns 0 on error).">
<polygon fill="white" stroke="#666666" points="142,-627 24,-627 24,-597 142,-597 142,-627"/>
<text text-anchor="start" x="32" y="-615" font-family="Helvetica,sans-Serif" font-size="10.00">Tle92466edHandler::</text>
<text text-anchor="middle" x="83" y="-604" font-family="Helvetica,sans-Serif" font-size="10.00">GetChipId</text>
</a>
</g>
</g>
<!-- Node17&#45;&gt;Node23 -->
<g id="edge22_Node000017_Node000023" class="edge">
<title>Node17&#45;&gt;Node23</title>
<g id="a_edge22_Node000017_Node000023"><a xlink:title=" ">
<path fill="none" stroke="#63b8ff" d="M250.36,-558.57C225.21,-567.78 194.11,-578.86 166,-588 156.69,-591.03 146.73,-594.09 137.07,-596.97"/>
<polygon fill="#63b8ff" stroke="#63b8ff" points="251.87,-561.75 260.05,-555.01 249.45,-555.18 251.87,-561.75"/>
</a>
</g>
</g>
<!-- Node24 -->
<g id="Node000024" class="node">
<title>Node24</title>
<g id="a_Node000024"><a xlink:href="classTle92466edHandler.html#a0c29d4ada1c9247dc90fb64d914dec1f" target="_top" xlink:title="Get IC version (returns 0 on error).">
<polygon fill="white" stroke="#666666" points="142,-579 24,-579 24,-549 142,-549 142,-579"/>
<text text-anchor="start" x="32" y="-567" font-family="Helvetica,sans-Serif" font-size="10.00">Tle92466edHandler::</text>
<text text-anchor="middle" x="83" y="-556" font-family="Helvetica,sans-Serif" font-size="10.00">GetIcVersion</text>
</a>
</g>
</g>
<!-- Node17&#45;&gt;Node24 -->
<g id="edge23_Node000017_Node000024" class="edge">
<title>Node17&#45;&gt;Node24</title>
<g id="a_edge23_Node000017_Node000024"><a xlink:title=" ">
<path fill="none" stroke="#63b8ff" d="M231.85,-547.57C203.07,-550.77 169.89,-554.46 142.27,-557.53"/>
<polygon fill="#63b8ff" stroke="#63b8ff" points="232.28,-551.05 241.83,-546.46 231.51,-544.09 232.28,-551.05"/>
</a>
</g>
</g>
<!-- Node25 -->
<g id="Node000025" class="node">
<title>Node25</title>
<g id="a_Node000025"><a xlink:href="classTle92466edHandler.html#ab86e6d3eb2dca25154a8fa7c42ddb945" target="_top" xlink:title="Check if any fault is present.">
<polygon fill="white" stroke="#666666" points="142,-531 24,-531 24,-501 142,-501 142,-531"/>
<text text-anchor="start" x="32" y="-519" font-family="Helvetica,sans-Serif" font-size="10.00">Tle92466edHandler::</text>
<text text-anchor="middle" x="83" y="-508" font-family="Helvetica,sans-Serif" font-size="10.00">HasFault</text>
</a>
</g>
</g>
<!-- Node17&#45;&gt;Node25 -->
<g id="edge24_Node000017_Node000025" class="edge">
<title>Node17&#45;&gt;Node25</title>
<g id="a_edge24_Node000017_Node000025"><a xlink:title=" ">
<path fill="none" stroke="#63b8ff" d="M231.85,-532.43C203.07,-529.23 169.89,-525.54 142.27,-522.47"/>
<polygon fill="#63b8ff" stroke="#63b8ff" points="231.51,-535.91 241.83,-533.54 232.28,-528.95 231.51,-535.91"/>
</a>
</g>
</g>
<!-- Node26 -->
<g id="Node000026" class="node">
<title>Node26</title>
<g id="a_Node000026"><a xlink:href="classTle92466edHandler.html#a6bcbd117208f3e44f2216d45541eb4fa" target="_top" xlink:title="Check if in mission mode.">
<polygon fill="white" stroke="#666666" points="142,-483 24,-483 24,-453 142,-453 142,-483"/>
<text text-anchor="start" x="32" y="-471" font-family="Helvetica,sans-Serif" font-size="10.00">Tle92466edHandler::</text>
<text text-anchor="middle" x="83" y="-460" font-family="Helvetica,sans-Serif" font-size="10.00">IsMissionMode</text>
</a>
</g>
</g>
<!-- Node17&#45;&gt;Node26 -->
<g id="edge25_Node000017_Node000026" class="edge">
<title>Node17&#45;&gt;Node26</title>
<g id="a_edge25_Node000017_Node000026"><a xlink:title=" ">
<path fill="none" stroke="#63b8ff" d="M232.08,-526.64C221.81,-523.69 211.48,-520.17 202,-516 184.4,-508.26 183.43,-500.13 166,-492 158.47,-488.49 150.31,-485.37 142.16,-482.63"/>
<polygon fill="#63b8ff" stroke="#63b8ff" points="231.32,-530.06 241.89,-529.3 233.16,-523.3 231.32,-530.06"/>
</a>
</g>
</g>
<!-- Node28&#45;&gt;Node2 -->
<g id="edge28_Node000028_Node000002" class="edge">
<title>Node28&#45;&gt;Node2</title>
<g id="a_edge28_Node000028_Node000002"><a xlink:title=" ">
<path fill="none" stroke="#63b8ff" d="M713.62,-582.46C674.97,-597.81 611.91,-622.86 571.58,-638.87"/>
<polygon fill="#63b8ff" stroke="#63b8ff" points="715.37,-585.53 723.37,-578.59 712.78,-579.02 715.37,-585.53"/>
</a>
</g>
</g>
<!-- Node29&#45;&gt;Node12 -->
<g id="edge30_Node000029_Node000012" class="edge">
<title>Node29&#45;&gt;Node12</title>
<g id="a_edge30_Node000029_Node000012"><a xlink:title=" ">
<path fill="none" stroke="#63b8ff" d="M679.17,-444C653.19,-444 623.7,-444 598.09,-444"/>
<polygon fill="#63b8ff" stroke="#63b8ff" points="679.31,-447.5 689.31,-444 679.31,-440.5 679.31,-447.5"/>
</a>
</g>
</g>
<!-- Node31 -->
<g id="Node000031" class="node">
<title>Node31</title>
<g id="a_Node000031"><a xlink:href="classWs2812Handler.html#afe5f397b22e9b92cf2fb2cebae6e123d" target="_top" xlink:title=" ">
<polygon fill="white" stroke="#666666" points="623,-294 442,-294 442,-264 623,-264 623,-294"/>
<text text-anchor="start" x="450" y="-282" font-family="Helvetica,sans-Serif" font-size="10.00">Ws2812Handler::EnsureInitialized</text>
<text text-anchor="middle" x="532.5" y="-271" font-family="Helvetica,sans-Serif" font-size="10.00">Locked</text>
</a>
</g>
</g>
<!-- Node30&#45;&gt;Node31 -->
<g id="edge32_Node000030_Node000031" class="edge">
<title>Node30&#45;&gt;Node31</title>
<g id="a_edge32_Node000030_Node000031"><a xlink:title=" ">
<path fill="none" stroke="#63b8ff" d="M687.87,-351.01C680.09,-348.94 672.3,-346.6 665,-344 626.86,-330.39 585.37,-308.61 559.41,-294.06"/>
<polygon fill="#63b8ff" stroke="#63b8ff" points="687.11,-354.43 697.66,-353.49 688.83,-347.65 687.11,-354.43"/>
</a>
</g>
</g>
<!-- Node32 -->
<g id="Node000032" class="node">
<title>Node32</title>
<g id="a_Node000032"><a xlink:href="classWs2812Handler.html#a586683dcf63f17194b77c026972c7b2b" target="_top" xlink:title="Dump diagnostics to logger.">
<polygon fill="white" stroke="#666666" points="394,-177.5 208,-177.5 208,-158.5 394,-158.5 394,-177.5"/>
<text text-anchor="middle" x="301" y="-165.5" font-family="Helvetica,sans-Serif" font-size="10.00">Ws2812Handler::DumpDiagnostics</text>
</a>
</g>
</g>
<!-- Node31&#45;&gt;Node32 -->
<g id="edge33_Node000031_Node000032" class="edge">
<title>Node31&#45;&gt;Node32</title>
<g id="a_edge33_Node000031_Node000032"><a xlink:title=" ">
<path fill="none" stroke="#63b8ff" d="M507.17,-257.2C482.11,-235.96 441.02,-204.39 400,-187 390.83,-183.11 380.83,-180.01 370.84,-177.54"/>
<polygon fill="#63b8ff" stroke="#63b8ff" points="505.17,-260.1 515.03,-263.97 509.74,-254.79 505.17,-260.1"/>
</a>
</g>
</g>
<!-- Node33 -->
<g id="Node000033" class="node">
<title>Node33</title>
<g id="a_Node000033"><a xlink:href="classWs2812Handler.html#a764cc93c64a81844a284ac7515ea8366" target="_top" xlink:title="Ensure strip resources are initialized (lazy init entrypoint).">
<polygon fill="white" stroke="#666666" points="391.5,-362.5 210.5,-362.5 210.5,-343.5 391.5,-343.5 391.5,-362.5"/>
<text text-anchor="middle" x="301" y="-350.5" font-family="Helvetica,sans-Serif" font-size="10.00">Ws2812Handler::EnsureInitialized</text>
</a>
</g>
</g>
<!-- Node31&#45;&gt;Node33 -->
<g id="edge34_Node000031_Node000033" class="edge">
<title>Node31&#45;&gt;Node33</title>
<g id="a_edge34_Node000031_Node000033"><a xlink:title=" ">
<path fill="none" stroke="#63b8ff" d="M492.34,-298.38C466.63,-310.42 431.96,-325.39 400,-335 388.98,-338.31 377.08,-341.12 365.49,-343.46"/>
<polygon fill="#63b8ff" stroke="#63b8ff" points="493.85,-301.54 501.39,-294.09 490.85,-295.21 493.85,-301.54"/>
</a>
</g>
</g>
<!-- Node34 -->
<g id="Node000034" class="node">
<title>Node34</title>
<g id="a_Node000034"><a xlink:href="classWs2812Handler.html#a3e09ba2c15d5b0e7d6d254e22f634ae8" target="_top" xlink:title="Get the animator object.">
<polygon fill="#fff0f0" stroke="red" points="382,-325.5 220,-325.5 220,-306.5 382,-306.5 382,-325.5"/>
<text text-anchor="middle" x="301" y="-313.5" font-family="Helvetica,sans-Serif" font-size="10.00">Ws2812Handler::GetAnimator</text>
</a>
</g>
</g>
<!-- Node31&#45;&gt;Node34 -->
<g id="edge35_Node000031_Node000034" class="edge">
<title>Node31&#45;&gt;Node34</title>
<g id="a_edge35_Node000031_Node000034"><a xlink:title=" ">
<path fill="none" stroke="#63b8ff" d="M431.89,-295.06C407.8,-298.94 382.81,-302.97 361.25,-306.45"/>
<polygon fill="#63b8ff" stroke="#63b8ff" points="432.47,-298.51 441.78,-293.46 431.35,-291.6 432.47,-298.51"/>
</a>
</g>
</g>
<!-- Node36 -->
<g id="Node000036" class="node">
<title>Node36</title>
<g id="a_Node000036"><a xlink:href="classWs2812Handler.html#a7471840392adad3cab496e2dc57dc792" target="_top" xlink:title="Get the underlying LED strip object.">
<polygon fill="#fff0f0" stroke="red" points="371,-288.5 231,-288.5 231,-269.5 371,-269.5 371,-288.5"/>
<text text-anchor="middle" x="301" y="-276.5" font-family="Helvetica,sans-Serif" font-size="10.00">Ws2812Handler::GetStrip</text>
</a>
</g>
</g>
<!-- Node31&#45;&gt;Node36 -->
<g id="edge36_Node000031_Node000036" class="edge">
<title>Node31&#45;&gt;Node36</title>
<g id="a_edge36_Node000031_Node000036"><a xlink:title=" ">
<path fill="none" stroke="#63b8ff" d="M431.51,-279C411.11,-279 390.08,-279 371.05,-279"/>
<polygon fill="#63b8ff" stroke="#63b8ff" points="431.78,-282.5 441.78,-279 431.78,-275.5 431.78,-282.5"/>
</a>
</g>
</g>
<!-- Node40 -->
<g id="Node000040" class="node">
<title>Node40</title>
<g id="a_Node000040"><a xlink:href="classWs2812Handler.html#ae6bb3e858c86d80d69edc1fced893293" target="_top" xlink:title="Visit animator object with a callable.">
<polygon fill="white" stroke="#666666" points="384,-251.5 218,-251.5 218,-232.5 384,-232.5 384,-251.5"/>
<text text-anchor="middle" x="301" y="-239.5" font-family="Helvetica,sans-Serif" font-size="10.00">Ws2812Handler::visitAnimator</text>
</a>
</g>
</g>
<!-- Node31&#45;&gt;Node40 -->
<g id="edge37_Node000031_Node000040" class="edge">
<title>Node31&#45;&gt;Node40</title>
<g id="a_edge37_Node000031_Node000040"><a xlink:title=" ">
<path fill="none" stroke="#63b8ff" d="M431.89,-262.94C407.8,-259.06 382.81,-255.03 361.25,-251.55"/>
<polygon fill="#63b8ff" stroke="#63b8ff" points="431.35,-266.4 441.78,-264.54 432.47,-259.49 431.35,-266.4"/>
</a>
</g>
</g>
<!-- Node41 -->
<g id="Node000041" class="node">
<title>Node41</title>
<g id="a_Node000041"><a xlink:href="classWs2812Handler.html#a338df7ac09cd31e3b70d7dd488c1baa6" target="_top" xlink:title="Visit strip driver with a callable.">
<polygon fill="white" stroke="#666666" points="376.5,-214.5 225.5,-214.5 225.5,-195.5 376.5,-195.5 376.5,-214.5"/>
<text text-anchor="middle" x="301" y="-202.5" font-family="Helvetica,sans-Serif" font-size="10.00">Ws2812Handler::visitDriver</text>
</a>
</g>
</g>
<!-- Node31&#45;&gt;Node41 -->
<g id="edge38_Node000031_Node000041" class="edge">
<title>Node31&#45;&gt;Node41</title>
<g id="a_edge38_Node000031_Node000041"><a xlink:title=" ">
<path fill="none" stroke="#63b8ff" d="M491.17,-259.6C465.54,-247.91 431.4,-233.5 400,-224 387.72,-220.29 374.36,-217.13 361.56,-214.52"/>
<polygon fill="#63b8ff" stroke="#63b8ff" points="490,-262.91 500.55,-263.93 492.93,-256.56 490,-262.91"/>
</a>
</g>
</g>
<!-- Node45 -->
<g id="Node000045" class="node">
<title>Node45</title>
<g id="a_Node000045"><a xlink:href="classTmc9660Handler.html#a5a279ae9d4b5a8e0d71cb24577ad88ea" target="_top" xlink:title="Ensure driver is initialized (lazy init entrypoint).">
<polygon fill="#fff0f0" stroke="red" points="626,-140.5 439,-140.5 439,-121.5 626,-121.5 626,-140.5"/>
<text text-anchor="middle" x="532.5" y="-128.5" font-family="Helvetica,sans-Serif" font-size="10.00">Tmc9660Handler::EnsureInitialized</text>
</a>
</g>
</g>
<!-- Node44&#45;&gt;Node45 -->
<g id="edge42_Node000044_Node000045" class="edge">
<title>Node44&#45;&gt;Node45</title>
<g id="a_edge42_Node000044_Node000045"><a xlink:title=" ">
<path fill="none" stroke="#63b8ff" d="M681.92,-216.8C676.12,-215.09 670.41,-213.16 665,-211 618.11,-192.23 568.78,-157.57 546.17,-140.71"/>
<polygon fill="#63b8ff" stroke="#63b8ff" points="681.14,-220.21 691.71,-219.47 682.99,-213.46 681.14,-220.21"/>
</a>
</g>
</g>
<!-- Node46 -->
<g id="Node000046" class="node">
<title>Node46</title>
<g id="a_Node000046"><a xlink:href="classTmc9660Handler.html#a7fe382c4dbf6bf84ed31586e52ec2e6e" target="_top" xlink:title="Get a reference to the ADC wrapper.">
<polygon fill="#fff0f0" stroke="red" points="362.5,-66.5 239.5,-66.5 239.5,-47.5 362.5,-47.5 362.5,-66.5"/>
<text text-anchor="middle" x="301" y="-54.5" font-family="Helvetica,sans-Serif" font-size="10.00">Tmc9660Handler::adc</text>
</a>
</g>
</g>
<!-- Node45&#45;&gt;Node46 -->
<g id="edge43_Node000045_Node000046" class="edge">
<title>Node45&#45;&gt;Node46</title>
<g id="a_edge43_Node000045_Node000046"><a xlink:title=" ">
<path fill="none" stroke="#63b8ff" d="M449.32,-118.1C444.71,-116.32 440.23,-114.3 436,-112 415.84,-101.05 420.24,-85.81 400,-75 388.55,-68.89 375.4,-64.81 362.53,-62.11"/>
<polygon fill="#63b8ff" stroke="#63b8ff" points="448.34,-121.47 458.93,-121.43 450.62,-114.85 448.34,-121.47"/>
</a>
</g>
</g>
<!-- Node52 -->
<g id="Node000052" class="node">
<title>Node52</title>
<g id="a_Node000052"><a xlink:href="classTmc9660Handler.html#a85be9cd2e065b83c7abb36cb70fa6c67" target="_top" xlink:title="Get the TMC9660 driver instance connected via SPI (nullptr if using UART).">
<polygon fill="white" stroke="#666666" points="383.5,-140.5 218.5,-140.5 218.5,-121.5 383.5,-121.5 383.5,-140.5"/>
<text text-anchor="middle" x="301" y="-128.5" font-family="Helvetica,sans-Serif" font-size="10.00">Tmc9660Handler::driverViaSpi</text>
</a>
</g>
</g>
<!-- Node45&#45;&gt;Node52 -->
<g id="edge44_Node000045_Node000052" class="edge">
<title>Node45&#45;&gt;Node52</title>
<g id="a_edge44_Node000045_Node000052"><a xlink:title=" ">
<path fill="none" stroke="#63b8ff" d="M428.46,-131C413.42,-131 398.11,-131 383.58,-131"/>
<polygon fill="#63b8ff" stroke="#63b8ff" points="428.82,-134.5 438.82,-131 428.82,-127.5 428.82,-134.5"/>
</a>
</g>
</g>
<!-- Node53 -->
<g id="Node000053" class="node">
<title>Node53</title>
<g id="a_Node000053"><a xlink:href="classTmc9660Handler.html#ac4f303f9e7be9cb737a667dd5d85dd3a" target="_top" xlink:title="Get the TMC9660 driver instance connected via UART (nullptr if using SPI).">
<polygon fill="white" stroke="#666666" points="386.5,-103.5 215.5,-103.5 215.5,-84.5 386.5,-84.5 386.5,-103.5"/>
<text text-anchor="middle" x="301" y="-91.5" font-family="Helvetica,sans-Serif" font-size="10.00">Tmc9660Handler::driverViaUart</text>
</a>
</g>
</g>
<!-- Node45&#45;&gt;Node53 -->
<g id="edge45_Node000045_Node000053" class="edge">
<title>Node45&#45;&gt;Node53</title>
<g id="a_edge45_Node000045_Node000053"><a xlink:title=" ">
<path fill="none" stroke="#63b8ff" d="M462.17,-119.82C429.99,-114.63 392.13,-108.53 361.3,-103.56"/>
<polygon fill="#63b8ff" stroke="#63b8ff" points="461.97,-123.34 472.4,-121.47 463.08,-116.42 461.97,-123.34"/>
</a>
</g>
</g>
<!-- Node99 -->
<g id="Node000099" class="node">
<title>Node99</title>
<g id="a_Node000099"><a xlink:href="classTmc5160Handler.html#a6d4fce2433e03bb11b05a4278ef66fd0" target="_top" xlink:title=" ">
<polygon fill="#fff0f0" stroke="red" points="626,-103 439,-103 439,-73 626,-73 626,-103"/>
<text text-anchor="start" x="447" y="-91" font-family="Helvetica,sans-Serif" font-size="10.00">Tmc5160Handler::EnsureInitialized</text>
<text text-anchor="middle" x="532.5" y="-80" font-family="Helvetica,sans-Serif" font-size="10.00">Locked</text>
</a>
</g>
</g>
<!-- Node98&#45;&gt;Node99 -->
<g id="edge49_Node000098_Node000099" class="edge">
<title>Node98&#45;&gt;Node99</title>
<g id="a_edge49_Node000098_Node000099"><a xlink:title=" ">
<path fill="none" stroke="#63b8ff" d="M664.14,-98.99C651.73,-97.94 638.87,-96.86 626.27,-95.8"/>
<polygon fill="#63b8ff" stroke="#63b8ff" points="664.19,-102.51 674.45,-99.86 664.78,-95.53 664.19,-102.51"/>
</a>
</g>
</g>
</g>
</svg>
