<?xml version="1.0" encoding="UTF-8" standalone="no"?>
<!DOCTYPE svg PUBLIC "-//W3C//DTD SVG 1.1//EN"
 "http://www.w3.org/Graphics/SVG/1.1/DTD/svg11.dtd">
<!-- Generated by graphviz version 2.43.0 (0)
 -->
<!-- Title: As5047uHandler::ApplyConfiguration Pages: 1 -->
<svg width="1298pt" height="150pt"
 viewBox="0.00 0.00 1298.00 150.00" xmlns="http://www.w3.org/2000/svg" xmlns:xlink="http://www.w3.org/1999/xlink">
<g id="graph0" class="graph" transform="scale(1 1) rotate(0) translate(4 146)">
<title>As5047uHandler::ApplyConfiguration</title>
<!-- Node1 -->
<g id="Node000001" class="node">
<title>Node1</title>
<g id="a_Node000001"><a xlink:title="Apply configuration to sensor.">
<polygon fill="#999999" stroke="#666666" points="1290,-83 1094,-83 1094,-64 1290,-64 1290,-83"/>
<text text-anchor="middle" x="1192" y="-71" font-family="Helvetica,sans-Serif" font-size="10.00">As5047uHandler::ApplyConfiguration</text>
</a>
</g>
</g>
<!-- Node2 -->
<g id="Node000002" class="node">
<title>Node2</title>
<g id="a_Node000002"><a xlink:href="classAs5047uHandler.html#a157826010a85f4279b7a13791fcf2003" target="_top" xlink:title="Initialize the AS5047U sensor (lazy initialization)">
<polygon fill="white" stroke="#666666" points="1058,-83 913,-83 913,-64 1058,-64 1058,-83"/>
<text text-anchor="middle" x="985.5" y="-71" font-family="Helvetica,sans-Serif" font-size="10.00">As5047uHandler::Initialize</text>
</a>
</g>
</g>
<!-- Node1&#45;&gt;Node2 -->
<g id="edge1_Node000001_Node000002" class="edge">
<title>Node1&#45;&gt;Node2</title>
<g id="a_edge1_Node000001_Node000002"><a xlink:title=" ">
<path fill="none" stroke="#63b8ff" d="M1083.66,-73.5C1074.99,-73.5 1066.38,-73.5 1058.06,-73.5"/>
<polygon fill="#63b8ff" stroke="#63b8ff" points="1083.84,-77 1093.84,-73.5 1083.84,-70 1083.84,-77"/>
</a>
</g>
</g>
<!-- Node3 -->
<g id="Node000003" class="node">
<title>Node3</title>
<g id="a_Node000003"><a xlink:href="classAs5047uHandler.html#a040ba453eb7892ab3189631d73a2f683" target="_top" xlink:title="Ensure initialized while mutex is already held.">
<polygon fill="white" stroke="#666666" points="877,-88.5 693,-88.5 693,-58.5 877,-58.5 877,-88.5"/>
<text text-anchor="start" x="701" y="-76.5" font-family="Helvetica,sans-Serif" font-size="10.00">As5047uHandler::EnsureInitialized</text>
<text text-anchor="middle" x="785" y="-65.5" font-family="Helvetica,sans-Serif" font-size="10.00">Locked</text>
</a>
</g>
</g>
<!-- Node2&#45;&gt;Node3 -->
<g id="edge2_Node000002_Node000003" class="edge">
<title>Node2&#45;&gt;Node3</title>
<g id="a_edge2_Node000002_Node000003"><a xlink:title=" ">
<path fill="none" stroke="#63b8ff" d="M902.7,-73.5C894.31,-73.5 885.75,-73.5 877.26,-73.5"/>
<polygon fill="#63b8ff" stroke="#63b8ff" points="902.84,-77 912.84,-73.5 902.84,-70 902.84,-77"/>
</a>
</g>
</g>
<!-- Node4 -->
<g id="Node000004" class="node">
<title>Node4</title>
<g id="a_Node000004"><a xlink:href="classAs5047uHandler.html#a7f16efc74198279ee63c46d2b55825fa" target="_top" xlink:title="Ensure the handler is initialized (lazy init entrypoint).">
<polygon fill="white" stroke="#666666" points="657,-142 473,-142 473,-123 657,-123 657,-142"/>
<text text-anchor="middle" x="565" y="-130" font-family="Helvetica,sans-Serif" font-size="10.00">As5047uHandler::EnsureInitialized</text>
</a>
</g>
</g>
<!-- Node3&#45;&gt;Node4 -->
<g id="edge3_Node000003_Node000004" class="edge">
<title>Node3&#45;&gt;Node4</title>
<g id="a_edge3_Node000003_Node000004"><a xlink:title=" ">
<path fill="none" stroke="#63b8ff" d="M732.23,-91.73C709.35,-99.39 682.02,-108.01 657,-114.5 645,-117.61 631.98,-120.48 619.65,-122.97"/>
<polygon fill="#63b8ff" stroke="#63b8ff" points="733.39,-95.03 741.74,-88.51 731.15,-88.4 733.39,-95.03"/>
</a>
</g>
</g>
<!-- Node5 -->
<g id="Node000005" class="node">
<title>Node5</title>
<g id="a_Node000005"><a xlink:href="classAs5047uHandler.html#a7935a51fb2973e3a1793d378fc50118a" target="_top" xlink:title="Get pointer to AS5047U driver for advanced operations.">
<polygon fill="white" stroke="#666666" points="641.5,-105 488.5,-105 488.5,-86 641.5,-86 641.5,-105"/>
<text text-anchor="middle" x="565" y="-93" font-family="Helvetica,sans-Serif" font-size="10.00">As5047uHandler::GetSensor</text>
</a>
</g>
</g>
<!-- Node3&#45;&gt;Node5 -->
<g id="edge4_Node000003_Node000005" class="edge">
<title>Node3&#45;&gt;Node5</title>
<g id="a_edge4_Node000003_Node000005"><a xlink:title=" ">
<path fill="none" stroke="#63b8ff" d="M682.77,-83.72C668.93,-85.11 654.92,-86.53 641.64,-87.87"/>
<polygon fill="#63b8ff" stroke="#63b8ff" points="683.21,-87.19 692.81,-82.7 682.51,-80.22 683.21,-87.19"/>
</a>
</g>
</g>
<!-- Node12 -->
<g id="Node000012" class="node">
<title>Node12</title>
<g id="a_Node000012"><a xlink:href="classAs5047uHandler.html#a10eeb015c791ff484935168e3683c053" target="_top" xlink:title="Validate sensor parameters.">
<polygon fill="white" stroke="#666666" points="636.5,-67.5 493.5,-67.5 493.5,-37.5 636.5,-37.5 636.5,-67.5"/>
<text text-anchor="start" x="501.5" y="-55.5" font-family="Helvetica,sans-Serif" font-size="10.00">As5047uHandler::Validate</text>
<text text-anchor="middle" x="565" y="-44.5" font-family="Helvetica,sans-Serif" font-size="10.00">Sensor</text>
</a>
</g>
</g>
<!-- Node3&#45;&gt;Node12 -->
<g id="edge12_Node000003_Node000012" class="edge">
<title>Node3&#45;&gt;Node12</title>
<g id="a_edge12_Node000003_Node000012"><a xlink:title=" ">
<path fill="none" stroke="#63b8ff" d="M682.63,-63.73C667.07,-62.24 651.3,-60.72 636.59,-59.3"/>
<polygon fill="#63b8ff" stroke="#63b8ff" points="682.52,-67.24 692.81,-64.72 683.19,-60.27 682.52,-67.24"/>
</a>
</g>
</g>
<!-- Node13 -->
<g id="Node000013" class="node">
<title>Node13</title>
<g id="a_Node000013"><a xlink:href="classAs5047uHandler.html#a60c746a9c38be3c77de2c6148fbfbe54" target="_top" xlink:title="Visit the underlying AS5047U driver under handler mutex protection.">
<polygon fill="white" stroke="#666666" points="642,-19 488,-19 488,0 642,0 642,-19"/>
<text text-anchor="middle" x="565" y="-7" font-family="Helvetica,sans-Serif" font-size="10.00">As5047uHandler::visitDriver</text>
</a>
</g>
</g>
<!-- Node3&#45;&gt;Node13 -->
<g id="edge13_Node000003_Node000013" class="edge">
<title>Node3&#45;&gt;Node13</title>
<g id="a_edge13_Node000003_Node000013"><a xlink:title=" ">
<path fill="none" stroke="#63b8ff" d="M736.37,-54.91C712.74,-46.13 683.63,-35.96 657,-28.5 644.41,-24.97 630.68,-21.78 617.79,-19.05"/>
<polygon fill="#63b8ff" stroke="#63b8ff" points="735.21,-58.21 745.81,-58.45 737.67,-51.66 735.21,-58.21"/>
</a>
</g>
</g>
<!-- Node6 -->
<g id="Node000006" class="node">
<title>Node6</title>
<g id="a_Node000006"><a xlink:href="as5047u__handler__comprehensive__test_8cpp.html#aaa3a69b37bf8fcd8431b8495e9b311ca" target="_top" xlink:title=" ">
<polygon fill="white" stroke="#666666" points="427.5,-142 296.5,-142 296.5,-123 427.5,-123 427.5,-142"/>
<text text-anchor="middle" x="362" y="-130" font-family="Helvetica,sans-Serif" font-size="10.00">concurrent_reader_task</text>
</a>
</g>
</g>
<!-- Node5&#45;&gt;Node6 -->
<g id="edge5_Node000005_Node000006" class="edge">
<title>Node5&#45;&gt;Node6</title>
<g id="a_edge5_Node000005_Node000006"><a xlink:title=" ">
<path fill="none" stroke="#63b8ff" d="M502.18,-106.88C474.23,-112.02 441.59,-118.03 414.94,-122.94"/>
<polygon fill="#63b8ff" stroke="#63b8ff" points="503.04,-110.28 512.24,-105.03 501.77,-103.4 503.04,-110.28"/>
</a>
</g>
</g>
<!-- Node9 -->
<g id="Node000009" class="node">
<title>Node9</title>
<g id="a_Node000009"><a xlink:href="classAs5047uHandler.html#a10e4de42743f7ceb1f2fef7cadbfc000" target="_top" xlink:title="Naming&#45;consistent alias of GetSensor().">
<polygon fill="white" stroke="#666666" points="437,-105 287,-105 287,-86 437,-86 437,-105"/>
<text text-anchor="middle" x="362" y="-93" font-family="Helvetica,sans-Serif" font-size="10.00">As5047uHandler::GetDriver</text>
</a>
</g>
</g>
<!-- Node5&#45;&gt;Node9 -->
<g id="edge8_Node000005_Node000009" class="edge">
<title>Node5&#45;&gt;Node9</title>
<g id="a_edge8_Node000005_Node000009"><a xlink:title=" ">
<path fill="none" stroke="#63b8ff" d="M478.02,-95.5C464.47,-95.5 450.56,-95.5 437.3,-95.5"/>
<polygon fill="#63b8ff" stroke="#63b8ff" points="478.3,-99 488.3,-95.5 478.3,-92 478.3,-99"/>
</a>
</g>
</g>
<!-- Node11 -->
<g id="Node000011" class="node">
<title>Node11</title>
<g id="a_Node000011"><a xlink:href="as5047u__handler__comprehensive__test_8cpp.html#ac83f97b7754666b5e7733941b37c5630" target="_top" xlink:title=" ">
<polygon fill="white" stroke="#666666" points="251,-68 101,-68 101,-49 251,-49 251,-68"/>
<text text-anchor="middle" x="176" y="-56" font-family="Helvetica,sans-Serif" font-size="10.00">test_operations_before_init</text>
</a>
</g>
</g>
<!-- Node5&#45;&gt;Node11 -->
<g id="edge10_Node000005_Node000011" class="edge">
<title>Node5&#45;&gt;Node11</title>
<g id="a_edge10_Node000005_Node000011"><a xlink:title=" ">
<path fill="none" stroke="#63b8ff" d="M492.8,-84.54C474.64,-81.98 455.12,-79.44 437,-77.5 374.45,-70.79 303.17,-65.76 251.09,-62.57"/>
<polygon fill="#63b8ff" stroke="#63b8ff" points="492.34,-88.01 502.74,-85.96 493.33,-81.08 492.34,-88.01"/>
</a>
</g>
</g>
<!-- Node7 -->
<g id="Node000007" class="node">
<title>Node7</title>
<g id="a_Node000007"><a xlink:href="as5047u__handler__comprehensive__test_8cpp.html#ae9b39916d49066b59641c5ae10376c84" target="_top" xlink:title=" ">
<polygon fill="white" stroke="#666666" points="241.5,-142 110.5,-142 110.5,-123 241.5,-123 241.5,-142"/>
<text text-anchor="middle" x="176" y="-130" font-family="Helvetica,sans-Serif" font-size="10.00">test_concurrent_access</text>
</a>
</g>
</g>
<!-- Node6&#45;&gt;Node7 -->
<g id="edge6_Node000006_Node000007" class="edge">
<title>Node6&#45;&gt;Node7</title>
<g id="a_edge6_Node000006_Node000007"><a xlink:title=" ">
<path fill="none" stroke="#63b8ff" d="M286.29,-132.5C271.53,-132.5 256.16,-132.5 241.77,-132.5"/>
<polygon fill="#63b8ff" stroke="#63b8ff" points="286.39,-136 296.39,-132.5 286.39,-129 286.39,-136"/>
</a>
</g>
</g>
<!-- Node8 -->
<g id="Node000008" class="node">
<title>Node8</title>
<g id="a_Node000008"><a xlink:href="as5047u__handler__comprehensive__test_8cpp.html#a630544a7f0a2cc40d8a7fefab7e2fe70" target="_top" xlink:title=" ">
<polygon fill="white" stroke="#666666" points="65,-105 0,-105 0,-86 65,-86 65,-105"/>
<text text-anchor="middle" x="32.5" y="-93" font-family="Helvetica,sans-Serif" font-size="10.00">app_main</text>
</a>
</g>
</g>
<!-- Node7&#45;&gt;Node8 -->
<g id="edge7_Node000007_Node000008" class="edge">
<title>Node7&#45;&gt;Node8</title>
<g id="a_edge7_Node000007_Node000008"><a xlink:title=" ">
<path fill="none" stroke="#63b8ff" d="M124.69,-120.52C116.75,-118.55 108.64,-116.5 101,-114.5 89.22,-111.41 76.35,-107.84 65.03,-104.63"/>
<polygon fill="#63b8ff" stroke="#63b8ff" points="124.06,-123.97 134.61,-122.95 125.73,-117.17 124.06,-123.97"/>
</a>
</g>
</g>
<!-- Node10 -->
<g id="Node000010" class="node">
<title>Node10</title>
<g id="a_Node000010"><a xlink:href="classAs5047uHandler.html#aff42824ec0c4048211b432a35946ce19" target="_top" xlink:title=" ">
<polygon fill="white" stroke="#666666" points="251,-105 101,-105 101,-86 251,-86 251,-105"/>
<text text-anchor="middle" x="176" y="-93" font-family="Helvetica,sans-Serif" font-size="10.00">As5047uHandler::GetDriver</text>
</a>
</g>
</g>
<!-- Node9&#45;&gt;Node10 -->
<g id="edge9_Node000009_Node000010" class="edge">
<title>Node9&#45;&gt;Node10</title>
<g id="a_edge9_Node000009_Node000010"><a xlink:title=" ">
<path fill="none" stroke="#63b8ff" d="M276.93,-95.5C268.35,-95.5 259.66,-95.5 251.19,-95.5"/>
<polygon fill="#63b8ff" stroke="#63b8ff" points="276.96,-99 286.96,-95.5 276.96,-92 276.96,-99"/>
</a>
</g>
</g>
<!-- Node11&#45;&gt;Node8 -->
<g id="edge11_Node000011_Node000008" class="edge">
<title>Node11&#45;&gt;Node8</title>
<g id="a_edge11_Node000011_Node000008"><a xlink:title=" ">
<path fill="none" stroke="#63b8ff" d="M127.84,-70.54C118.92,-72.84 109.67,-75.23 101,-77.5 89.27,-80.57 76.4,-83.99 65.08,-87.01"/>
<polygon fill="#63b8ff" stroke="#63b8ff" points="128.9,-73.88 137.72,-68 127.16,-67.1 128.9,-73.88"/>
</a>
</g>
</g>
</g>
</svg>
