<?xml version="1.0" encoding="UTF-8" standalone="no"?>
<!DOCTYPE svg PUBLIC "-//W3C//DTD SVG 1.1//EN"
 "http://www.w3.org/Graphics/SVG/1.1/DTD/svg11.dtd">
<!-- Generated by graphviz version 2.43.0 (0)
 -->
<!-- Title: Tmc5160Handler::driverViaUart Pages: 1 -->
<svg width="901pt" height="138pt"
 viewBox="0.00 0.00 901.00 138.00" xmlns="http://www.w3.org/2000/svg" xmlns:xlink="http://www.w3.org/1999/xlink">
<g id="graph0" class="graph" transform="scale(1 1) rotate(0) translate(4 134)">
<title>Tmc5160Handler::driverViaUart</title>
<!-- Node1 -->
<g id="Node000001" class="node">
<title>Node1</title>
<g id="a_Node000001"><a xlink:title="Get typed UART driver pointer (null if SPI mode or not initialized).">
<polygon fill="#999999" stroke="#666666" points="171,-74 0,-74 0,-55 171,-55 171,-74"/>
<text text-anchor="middle" x="85.5" y="-62" font-family="Helvetica,sans-Serif" font-size="10.00">Tmc5160Handler::driverViaUart</text>
</a>
</g>
</g>
<!-- Node2 -->
<g id="Node000002" class="node">
<title>Node2</title>
<g id="a_Node000002"><a xlink:href="classTmc5160Handler.html#a6d4fce2433e03bb11b05a4278ef66fd0" target="_top" xlink:title=" ">
<polygon fill="white" stroke="#666666" points="394,-79.5 207,-79.5 207,-49.5 394,-49.5 394,-79.5"/>
<text text-anchor="start" x="215" y="-67.5" font-family="Helvetica,sans-Serif" font-size="10.00">Tmc5160Handler::EnsureInitialized</text>
<text text-anchor="middle" x="300.5" y="-56.5" font-family="Helvetica,sans-Serif" font-size="10.00">Locked</text>
</a>
</g>
</g>
<!-- Node1&#45;&gt;Node2 -->
<g id="edge1_Node000001_Node000002" class="edge">
<title>Node1&#45;&gt;Node2</title>
<g id="a_edge1_Node000001_Node000002"><a xlink:title=" ">
<path fill="none" stroke="#63b8ff" d="M171.3,-64.5C179.72,-64.5 188.33,-64.5 196.91,-64.5"/>
<polygon fill="#63b8ff" stroke="#63b8ff" points="196.95,-68 206.95,-64.5 196.95,-61 196.95,-68"/>
</a>
</g>
</g>
<!-- Node3 -->
<g id="Node000003" class="node">
<title>Node3</title>
<g id="a_Node000003"><a xlink:href="classTmc5160Handler.html#a44ab36857e4e43062f81f7d6f10eab09" target="_top" xlink:title="Initialize the TMC5160 driver with full configuration.">
<polygon fill="white" stroke="#666666" points="578,-74 430,-74 430,-55 578,-55 578,-74"/>
<text text-anchor="middle" x="504" y="-62" font-family="Helvetica,sans-Serif" font-size="10.00">Tmc5160Handler::Initialize</text>
</a>
</g>
</g>
<!-- Node2&#45;&gt;Node3 -->
<g id="edge2_Node000002_Node000003" class="edge">
<title>Node2&#45;&gt;Node3</title>
<g id="a_edge2_Node000002_Node000003"><a xlink:title=" ">
<path fill="none" stroke="#63b8ff" d="M394.29,-64.5C402.73,-64.5 411.25,-64.5 419.61,-64.5"/>
<polygon fill="#63b8ff" stroke="#63b8ff" points="419.7,-68 429.7,-64.5 419.7,-61 419.7,-68"/>
</a>
</g>
</g>
<!-- Node4 -->
<g id="Node000004" class="node">
<title>Node4</title>
<g id="a_Node000004"><a xlink:href="classLogger.html#adce17848a5844e053bfd314863dc1404" target="_top" xlink:title="Log error message.">
<polygon fill="white" stroke="#666666" points="710.5,-130 631.5,-130 631.5,-111 710.5,-111 710.5,-130"/>
<text text-anchor="middle" x="671" y="-118" font-family="Helvetica,sans-Serif" font-size="10.00">Logger::Error</text>
</a>
</g>
</g>
<!-- Node3&#45;&gt;Node4 -->
<g id="edge3_Node000003_Node000004" class="edge">
<title>Node3&#45;&gt;Node4</title>
<g id="a_edge3_Node000003_Node000004"><a xlink:title=" ">
<path fill="none" stroke="#63b8ff" d="M531.81,-74.05C553.84,-81.85 585.88,-93.08 614,-102.5 619.2,-104.24 624.69,-106.05 630.12,-107.81"/>
<polygon fill="#63b8ff" stroke="#63b8ff" points="629.14,-111.17 639.73,-110.92 631.29,-104.51 629.14,-111.17"/>
</a>
</g>
</g>
<!-- Node7 -->
<g id="Node000007" class="node">
<title>Node7</title>
<g id="a_Node000007"><a xlink:href="classLogger.html#a5789d11f8f1356e2192c0023a089cbc4" target="_top" xlink:title="Get singleton instance.">
<polygon fill="white" stroke="#666666" points="728,-19 614,-19 614,0 728,0 728,-19"/>
<text text-anchor="middle" x="671" y="-7" font-family="Helvetica,sans-Serif" font-size="10.00">Logger::GetInstance</text>
</a>
</g>
</g>
<!-- Node3&#45;&gt;Node7 -->
<g id="edge6_Node000003_Node000007" class="edge">
<title>Node3&#45;&gt;Node7</title>
<g id="a_edge6_Node000003_Node000007"><a xlink:title=" ">
<path fill="none" stroke="#63b8ff" d="M532.73,-54.95C554.74,-47.4 586.3,-36.65 614,-27.5 619.27,-25.76 624.83,-23.94 630.32,-22.17"/>
<polygon fill="#63b8ff" stroke="#63b8ff" points="631.59,-25.43 640.04,-19.03 629.44,-18.77 631.59,-25.43"/>
</a>
</g>
</g>
<!-- Node8 -->
<g id="Node000008" class="node">
<title>Node8</title>
<g id="a_Node000008"><a xlink:href="classLogger.html#a4681229c521795685fc14f6b55c82300" target="_top" xlink:title="Log info message.">
<polygon fill="white" stroke="#666666" points="708,-93 634,-93 634,-74 708,-74 708,-93"/>
<text text-anchor="middle" x="671" y="-81" font-family="Helvetica,sans-Serif" font-size="10.00">Logger::Info</text>
</a>
</g>
</g>
<!-- Node3&#45;&gt;Node8 -->
<g id="edge7_Node000003_Node000008" class="edge">
<title>Node3&#45;&gt;Node8</title>
<g id="a_edge7_Node000003_Node000008"><a xlink:title=" ">
<path fill="none" stroke="#63b8ff" d="M578.33,-72.94C593.85,-74.73 609.8,-76.57 623.96,-78.2"/>
<polygon fill="#63b8ff" stroke="#63b8ff" points="623.58,-81.68 633.92,-79.35 624.38,-74.72 623.58,-81.68"/>
</a>
</g>
</g>
<!-- Node9 -->
<g id="Node000009" class="node">
<title>Node9</title>
<g id="a_Node000009"><a xlink:href="classLogger.html#aaa95ffa14d07a965d4a85bdec82cba26" target="_top" xlink:title="Log warning message.">
<polygon fill="white" stroke="#666666" points="711,-56 631,-56 631,-37 711,-37 711,-56"/>
<text text-anchor="middle" x="671" y="-44" font-family="Helvetica,sans-Serif" font-size="10.00">Logger::Warn</text>
</a>
</g>
</g>
<!-- Node3&#45;&gt;Node9 -->
<g id="edge10_Node000003_Node000009" class="edge">
<title>Node3&#45;&gt;Node9</title>
<g id="a_edge10_Node000003_Node000009"><a xlink:title=" ">
<path fill="none" stroke="#63b8ff" d="M578.33,-56.5C592.59,-54.94 607.23,-53.35 620.49,-51.9"/>
<polygon fill="#63b8ff" stroke="#63b8ff" points="621.25,-55.34 630.81,-50.78 620.49,-48.38 621.25,-55.34"/>
</a>
</g>
</g>
<!-- Node5 -->
<g id="Node000005" class="node">
<title>Node5</title>
<g id="a_Node000005"><a xlink:href="classLogger.html#af9e84e0ff6bd538e4f9ed8dcebc3e2f0" target="_top" xlink:title="Check if log level is enabled for tag.">
<polygon fill="white" stroke="#666666" points="893,-111 764,-111 764,-92 893,-92 893,-111"/>
<text text-anchor="middle" x="828.5" y="-99" font-family="Helvetica,sans-Serif" font-size="10.00">Logger::IsLevelEnabled</text>
</a>
</g>
</g>
<!-- Node4&#45;&gt;Node5 -->
<g id="edge4_Node000004_Node000005" class="edge">
<title>Node4&#45;&gt;Node5</title>
<g id="a_edge4_Node000004_Node000005"><a xlink:title=" ">
<path fill="none" stroke="#63b8ff" d="M710.84,-115.75C723.85,-114.16 738.82,-112.34 753.6,-110.53"/>
<polygon fill="#63b8ff" stroke="#63b8ff" points="754.28,-113.97 763.78,-109.29 753.43,-107.02 754.28,-113.97"/>
</a>
</g>
</g>
<!-- Node6 -->
<g id="Node000006" class="node">
<title>Node6</title>
<g id="a_Node000006"><a xlink:href="classLogger.html#a6adb205db597526fb91ad20067400394" target="_top" xlink:title="Internal logging method.">
<polygon fill="white" stroke="#666666" points="883.5,-74 773.5,-74 773.5,-55 883.5,-55 883.5,-74"/>
<text text-anchor="middle" x="828.5" y="-62" font-family="Helvetica,sans-Serif" font-size="10.00">Logger::LogInternal</text>
</a>
</g>
</g>
<!-- Node4&#45;&gt;Node6 -->
<g id="edge5_Node000004_Node000006" class="edge">
<title>Node4&#45;&gt;Node6</title>
<g id="a_edge5_Node000004_Node000006"><a xlink:title=" ">
<path fill="none" stroke="#63b8ff" d="M704.92,-110.98C712.59,-108.47 720.66,-105.59 728,-102.5 744.68,-95.48 747.25,-90.35 764,-83.5 769.53,-81.24 775.42,-79.12 781.31,-77.16"/>
<polygon fill="#63b8ff" stroke="#63b8ff" points="782.67,-80.41 791.14,-74.05 780.55,-73.73 782.67,-80.41"/>
</a>
</g>
</g>
<!-- Node8&#45;&gt;Node5 -->
<g id="edge8_Node000008_Node000005" class="edge">
<title>Node8&#45;&gt;Node5</title>
<g id="a_edge8_Node000008_Node000005"><a xlink:title=" ">
<path fill="none" stroke="#63b8ff" d="M708.07,-87.67C721.68,-89.25 737.72,-91.11 753.55,-92.94"/>
<polygon fill="#63b8ff" stroke="#63b8ff" points="753.55,-96.46 763.89,-94.14 754.36,-89.51 753.55,-96.46"/>
</a>
</g>
</g>
<!-- Node8&#45;&gt;Node6 -->
<g id="edge9_Node000008_Node000006" class="edge">
<title>Node8&#45;&gt;Node6</title>
<g id="a_edge9_Node000008_Node000006"><a xlink:title=" ">
<path fill="none" stroke="#63b8ff" d="M708.07,-79.09C724.49,-77.09 744.44,-74.65 763.3,-72.34"/>
<polygon fill="#63b8ff" stroke="#63b8ff" points="763.83,-75.81 773.33,-71.12 762.98,-68.86 763.83,-75.81"/>
</a>
</g>
</g>
<!-- Node9&#45;&gt;Node5 -->
<g id="edge11_Node000009_Node000005" class="edge">
<title>Node9&#45;&gt;Node5</title>
<g id="a_edge11_Node000009_Node000005"><a xlink:title=" ">
<path fill="none" stroke="#63b8ff" d="M702.51,-56.01C710.86,-58.84 719.85,-62.1 728,-65.5 744.51,-72.39 747.32,-77.03 764,-83.5 769.07,-85.47 774.45,-87.33 779.85,-89.05"/>
<polygon fill="#63b8ff" stroke="#63b8ff" points="778.92,-92.42 789.51,-91.99 780.96,-85.73 778.92,-92.42"/>
</a>
</g>
</g>
<!-- Node9&#45;&gt;Node6 -->
<g id="edge12_Node000009_Node000006" class="edge">
<title>Node9&#45;&gt;Node6</title>
<g id="a_edge12_Node000009_Node000006"><a xlink:title=" ">
<path fill="none" stroke="#63b8ff" d="M711.24,-51.04C726.96,-52.86 745.49,-55.01 763.08,-57.04"/>
<polygon fill="#63b8ff" stroke="#63b8ff" points="762.96,-60.55 773.3,-58.23 763.77,-53.6 762.96,-60.55"/>
</a>
</g>
</g>
</g>
</svg>
