<?xml version="1.0" encoding="UTF-8" standalone="no"?>
<!DOCTYPE svg PUBLIC "-//W3C//DTD SVG 1.1//EN"
 "http://www.w3.org/Graphics/SVG/1.1/DTD/svg11.dtd">
<!-- Generated by graphviz version 2.43.0 (0)
 -->
<!-- Title: Max22200Handler::HasFault Pages: 1 -->
<svg width="1095pt" height="138pt"
 viewBox="0.00 0.00 1095.00 138.00" xmlns="http://www.w3.org/2000/svg" xmlns:xlink="http://www.w3.org/1999/xlink">
<g id="graph0" class="graph" transform="scale(1 1) rotate(0) translate(4 134)">
<title>Max22200Handler::HasFault</title>
<!-- Node1 -->
<g id="Node000001" class="node">
<title>Node1</title>
<g id="a_Node000001"><a xlink:title="Check if any fault is present.">
<polygon fill="#999999" stroke="#666666" points="154,-83 0,-83 0,-64 154,-64 154,-83"/>
<text text-anchor="middle" x="77" y="-71" font-family="Helvetica,sans-Serif" font-size="10.00">Max22200Handler::HasFault</text>
</a>
</g>
</g>
<!-- Node2 -->
<g id="Node000002" class="node">
<title>Node2</title>
<g id="a_Node000002"><a xlink:href="classMax22200Handler.html#abcdd9746a0df9c28bb36508d52d80ef5" target="_top" xlink:title="Execute a lambda with a locked, initialized driver.">
<polygon fill="white" stroke="#666666" points="353,-83 190,-83 190,-64 353,-64 353,-83"/>
<text text-anchor="middle" x="271.5" y="-71" font-family="Helvetica,sans-Serif" font-size="10.00">Max22200Handler::withDriver</text>
</a>
</g>
</g>
<!-- Node1&#45;&gt;Node2 -->
<g id="edge1_Node000001_Node000002" class="edge">
<title>Node1&#45;&gt;Node2</title>
<g id="a_edge1_Node000001_Node000002"><a xlink:title=" ">
<path fill="none" stroke="#63b8ff" d="M154.08,-73.5C162.54,-73.5 171.22,-73.5 179.84,-73.5"/>
<polygon fill="#63b8ff" stroke="#63b8ff" points="179.91,-77 189.91,-73.5 179.91,-70 179.91,-77"/>
</a>
</g>
</g>
<!-- Node3 -->
<g id="Node000003" class="node">
<title>Node3</title>
<g id="a_Node000003"><a xlink:href="classMax22200Handler.html#aa00edacb247660349767fa4521121104" target="_top" xlink:title=" ">
<polygon fill="white" stroke="#666666" points="582,-88.5 389,-88.5 389,-58.5 582,-58.5 582,-88.5"/>
<text text-anchor="start" x="397" y="-76.5" font-family="Helvetica,sans-Serif" font-size="10.00">Max22200Handler::EnsureInitialized</text>
<text text-anchor="middle" x="485.5" y="-65.5" font-family="Helvetica,sans-Serif" font-size="10.00">Locked</text>
</a>
</g>
</g>
<!-- Node2&#45;&gt;Node3 -->
<g id="edge2_Node000002_Node000003" class="edge">
<title>Node2&#45;&gt;Node3</title>
<g id="a_edge2_Node000002_Node000003"><a xlink:title=" ">
<path fill="none" stroke="#63b8ff" d="M353.25,-73.5C361.58,-73.5 370.13,-73.5 378.67,-73.5"/>
<polygon fill="#63b8ff" stroke="#63b8ff" points="378.69,-77 388.69,-73.5 378.69,-70 378.69,-77"/>
</a>
</g>
</g>
<!-- Node4 -->
<g id="Node000004" class="node">
<title>Node4</title>
<g id="a_Node000004"><a xlink:href="classLogger.html#adce17848a5844e053bfd314863dc1404" target="_top" xlink:title="Log error message.">
<polygon fill="white" stroke="#666666" points="904.5,-130 825.5,-130 825.5,-111 904.5,-111 904.5,-130"/>
<text text-anchor="middle" x="865" y="-118" font-family="Helvetica,sans-Serif" font-size="10.00">Logger::Error</text>
</a>
</g>
</g>
<!-- Node3&#45;&gt;Node4 -->
<g id="edge3_Node000003_Node000004" class="edge">
<title>Node3&#45;&gt;Node4</title>
<g id="a_edge3_Node000003_Node000004"><a xlink:title=" ">
<path fill="none" stroke="#63b8ff" d="M582.33,-87.69C594.34,-89.37 606.45,-91.01 618,-92.5 686.26,-101.31 765.36,-110.06 815.04,-115.37"/>
<polygon fill="#63b8ff" stroke="#63b8ff" points="814.87,-118.87 825.18,-116.45 815.61,-111.91 814.87,-118.87"/>
</a>
</g>
</g>
<!-- Node7 -->
<g id="Node000007" class="node">
<title>Node7</title>
<g id="a_Node000007"><a xlink:href="classLogger.html#a5789d11f8f1356e2192c0023a089cbc4" target="_top" xlink:title="Get singleton instance.">
<polygon fill="white" stroke="#666666" points="922,-19 808,-19 808,0 922,0 922,-19"/>
<text text-anchor="middle" x="865" y="-7" font-family="Helvetica,sans-Serif" font-size="10.00">Logger::GetInstance</text>
</a>
</g>
</g>
<!-- Node3&#45;&gt;Node7 -->
<g id="edge6_Node000003_Node000007" class="edge">
<title>Node3&#45;&gt;Node7</title>
<g id="a_edge6_Node000003_Node000007"><a xlink:title=" ">
<path fill="none" stroke="#63b8ff" d="M575.01,-58.49C643.23,-46.93 736.08,-31.19 797.92,-20.7"/>
<polygon fill="#63b8ff" stroke="#63b8ff" points="798.68,-24.12 807.95,-19 797.51,-17.22 798.68,-24.12"/>
</a>
</g>
</g>
<!-- Node8 -->
<g id="Node000008" class="node">
<title>Node8</title>
<g id="a_Node000008"><a xlink:href="classMax22200Handler.html#a0dce05cd6639a10e52c0f669b72baf52" target="_top" xlink:title="Initialize driver (ENABLE HIGH, read/clear STATUS, set ACTIVE).">
<polygon fill="white" stroke="#666666" points="772,-83 618,-83 618,-64 772,-64 772,-83"/>
<text text-anchor="middle" x="695" y="-71" font-family="Helvetica,sans-Serif" font-size="10.00">Max22200Handler::Initialize</text>
</a>
</g>
</g>
<!-- Node3&#45;&gt;Node8 -->
<g id="edge7_Node000003_Node000008" class="edge">
<title>Node3&#45;&gt;Node8</title>
<g id="a_edge7_Node000003_Node000008"><a xlink:title=" ">
<path fill="none" stroke="#63b8ff" d="M582.05,-73.5C590.6,-73.5 599.22,-73.5 607.68,-73.5"/>
<polygon fill="#63b8ff" stroke="#63b8ff" points="607.9,-77 617.9,-73.5 607.9,-70 607.9,-77"/>
</a>
</g>
</g>
<!-- Node5 -->
<g id="Node000005" class="node">
<title>Node5</title>
<g id="a_Node000005"><a xlink:href="classLogger.html#af9e84e0ff6bd538e4f9ed8dcebc3e2f0" target="_top" xlink:title="Check if log level is enabled for tag.">
<polygon fill="white" stroke="#666666" points="1087,-111 958,-111 958,-92 1087,-92 1087,-111"/>
<text text-anchor="middle" x="1022.5" y="-99" font-family="Helvetica,sans-Serif" font-size="10.00">Logger::IsLevelEnabled</text>
</a>
</g>
</g>
<!-- Node4&#45;&gt;Node5 -->
<g id="edge4_Node000004_Node000005" class="edge">
<title>Node4&#45;&gt;Node5</title>
<g id="a_edge4_Node000004_Node000005"><a xlink:title=" ">
<path fill="none" stroke="#63b8ff" d="M904.84,-115.75C917.85,-114.16 932.82,-112.34 947.6,-110.53"/>
<polygon fill="#63b8ff" stroke="#63b8ff" points="948.28,-113.97 957.78,-109.29 947.43,-107.02 948.28,-113.97"/>
</a>
</g>
</g>
<!-- Node6 -->
<g id="Node000006" class="node">
<title>Node6</title>
<g id="a_Node000006"><a xlink:href="classLogger.html#a6adb205db597526fb91ad20067400394" target="_top" xlink:title="Internal logging method.">
<polygon fill="white" stroke="#666666" points="1077.5,-74 967.5,-74 967.5,-55 1077.5,-55 1077.5,-74"/>
<text text-anchor="middle" x="1022.5" y="-62" font-family="Helvetica,sans-Serif" font-size="10.00">Logger::LogInternal</text>
</a>
</g>
</g>
<!-- Node4&#45;&gt;Node6 -->
<g id="edge5_Node000004_Node000006" class="edge">
<title>Node4&#45;&gt;Node6</title>
<g id="a_edge5_Node000004_Node000006"><a xlink:title=" ">
<path fill="none" stroke="#63b8ff" d="M898.92,-110.98C906.59,-108.47 914.66,-105.59 922,-102.5 938.68,-95.48 941.25,-90.35 958,-83.5 963.53,-81.24 969.42,-79.12 975.31,-77.16"/>
<polygon fill="#63b8ff" stroke="#63b8ff" points="976.67,-80.41 985.14,-74.05 974.55,-73.73 976.67,-80.41"/>
</a>
</g>
</g>
<!-- Node8&#45;&gt;Node4 -->
<g id="edge8_Node000008_Node000004" class="edge">
<title>Node8&#45;&gt;Node4</title>
<g id="a_edge8_Node000008_Node000004"><a xlink:title=" ">
<path fill="none" stroke="#63b8ff" d="M730,-83.01C755.87,-90.25 791.7,-100.27 819.8,-108.13"/>
<polygon fill="#63b8ff" stroke="#63b8ff" points="819.19,-111.6 829.77,-110.92 821.08,-104.86 819.19,-111.6"/>
</a>
</g>
</g>
<!-- Node8&#45;&gt;Node7 -->
<g id="edge9_Node000008_Node000007" class="edge">
<title>Node8&#45;&gt;Node7</title>
<g id="a_edge9_Node000008_Node000007"><a xlink:title=" ">
<path fill="none" stroke="#63b8ff" d="M717.69,-64C740.11,-54.32 776.21,-39.12 808,-27.5 812.85,-25.73 817.97,-23.95 823.07,-22.25"/>
<polygon fill="#63b8ff" stroke="#63b8ff" points="824.34,-25.51 832.75,-19.06 822.16,-18.86 824.34,-25.51"/>
</a>
</g>
</g>
<!-- Node9 -->
<g id="Node000009" class="node">
<title>Node9</title>
<g id="a_Node000009"><a xlink:href="classLogger.html#a4681229c521795685fc14f6b55c82300" target="_top" xlink:title="Log info message.">
<polygon fill="white" stroke="#666666" points="902,-56 828,-56 828,-37 902,-37 902,-56"/>
<text text-anchor="middle" x="865" y="-44" font-family="Helvetica,sans-Serif" font-size="10.00">Logger::Info</text>
</a>
</g>
</g>
<!-- Node8&#45;&gt;Node9 -->
<g id="edge10_Node000008_Node000009" class="edge">
<title>Node8&#45;&gt;Node9</title>
<g id="a_edge10_Node000008_Node000009"><a xlink:title=" ">
<path fill="none" stroke="#63b8ff" d="M755.23,-63.98C775.73,-60.69 798.39,-57.04 817.7,-53.94"/>
<polygon fill="#63b8ff" stroke="#63b8ff" points="818.44,-57.37 827.75,-52.33 817.32,-50.46 818.44,-57.37"/>
</a>
</g>
</g>
<!-- Node10 -->
<g id="Node000010" class="node">
<title>Node10</title>
<g id="a_Node000010"><a xlink:href="classLogger.html#aaa95ffa14d07a965d4a85bdec82cba26" target="_top" xlink:title="Log warning message.">
<polygon fill="white" stroke="#666666" points="905,-93 825,-93 825,-74 905,-74 905,-93"/>
<text text-anchor="middle" x="865" y="-81" font-family="Helvetica,sans-Serif" font-size="10.00">Logger::Warn</text>
</a>
</g>
</g>
<!-- Node8&#45;&gt;Node10 -->
<g id="edge13_Node000008_Node000010" class="edge">
<title>Node8&#45;&gt;Node10</title>
<g id="a_edge13_Node000008_Node000010"><a xlink:title=" ">
<path fill="none" stroke="#63b8ff" d="M772.14,-78.03C786.52,-78.89 801.22,-79.76 814.52,-80.55"/>
<polygon fill="#63b8ff" stroke="#63b8ff" points="814.66,-84.07 824.85,-81.17 815.08,-77.08 814.66,-84.07"/>
</a>
</g>
</g>
<!-- Node9&#45;&gt;Node5 -->
<g id="edge11_Node000009_Node000005" class="edge">
<title>Node9&#45;&gt;Node5</title>
<g id="a_edge11_Node000009_Node000005"><a xlink:title=" ">
<path fill="none" stroke="#63b8ff" d="M896.51,-56.01C904.86,-58.84 913.85,-62.1 922,-65.5 938.51,-72.39 941.32,-77.03 958,-83.5 963.07,-85.47 968.45,-87.33 973.85,-89.05"/>
<polygon fill="#63b8ff" stroke="#63b8ff" points="972.92,-92.42 983.51,-91.99 974.96,-85.73 972.92,-92.42"/>
</a>
</g>
</g>
<!-- Node9&#45;&gt;Node6 -->
<g id="edge12_Node000009_Node000006" class="edge">
<title>Node9&#45;&gt;Node6</title>
<g id="a_edge12_Node000009_Node000006"><a xlink:title=" ">
<path fill="none" stroke="#63b8ff" d="M902.07,-50.67C918.49,-52.58 938.44,-54.89 957.3,-57.07"/>
<polygon fill="#63b8ff" stroke="#63b8ff" points="957,-60.56 967.33,-58.23 957.8,-53.6 957,-60.56"/>
</a>
</g>
</g>
<!-- Node10&#45;&gt;Node5 -->
<g id="edge14_Node000010_Node000005" class="edge">
<title>Node10&#45;&gt;Node5</title>
<g id="a_edge14_Node000010_Node000005"><a xlink:title=" ">
<path fill="none" stroke="#63b8ff" d="M905.24,-88.04C918.18,-89.54 933.02,-91.26 947.68,-92.95"/>
<polygon fill="#63b8ff" stroke="#63b8ff" points="947.43,-96.45 957.77,-94.12 948.24,-89.5 947.43,-96.45"/>
</a>
</g>
</g>
<!-- Node10&#45;&gt;Node6 -->
<g id="edge15_Node000010_Node000006" class="edge">
<title>Node10&#45;&gt;Node6</title>
<g id="a_edge15_Node000010_Node000006"><a xlink:title=" ">
<path fill="none" stroke="#63b8ff" d="M905.24,-78.71C920.96,-76.78 939.49,-74.52 957.08,-72.37"/>
<polygon fill="#63b8ff" stroke="#63b8ff" points="957.8,-75.81 967.3,-71.12 956.95,-68.86 957.8,-75.81"/>
</a>
</g>
</g>
</g>
</svg>
