<?xml version="1.0" encoding="UTF-8" standalone="no"?>
<!DOCTYPE svg PUBLIC "-//W3C//DTD SVG 1.1//EN"
 "http://www.w3.org/Graphics/SVG/1.1/DTD/svg11.dtd">
<!-- Generated by graphviz version 2.43.0 (0)
 -->
<!-- Title: Tmc9660Handler::GetMotorCurrent Pages: 1 -->
<svg width="556pt" height="114pt"
 viewBox="0.00 0.00 556.00 113.50" xmlns="http://www.w3.org/2000/svg" xmlns:xlink="http://www.w3.org/1999/xlink">
<g id="graph0" class="graph" transform="scale(1 1) rotate(0) translate(4 109.5)">
<title>Tmc9660Handler::GetMotorCurrent</title>
<!-- Node1 -->
<g id="Node000001" class="node">
<title>Node1</title>
<g id="a_Node000001"><a xlink:title="Read the instantaneous motor phase current.">
<polygon fill="#999999" stroke="#666666" points="152,-62.5 0,-62.5 0,-32.5 152,-32.5 152,-62.5"/>
<text text-anchor="start" x="8" y="-50.5" font-family="Helvetica,sans-Serif" font-size="10.00">Tmc9660Handler::GetMotor</text>
<text text-anchor="middle" x="76" y="-39.5" font-family="Helvetica,sans-Serif" font-size="10.00">Current</text>
</a>
</g>
</g>
<!-- Node2 -->
<g id="Node000002" class="node">
<title>Node2</title>
<g id="a_Node000002"><a xlink:href="classTmc9660Handler.html#a13db97d201a287d8aa60384e04070b9f" target="_top" xlink:title="Check if the TMC9660 driver has been initialized and is ready.">
<polygon fill="white" stroke="#666666" points="338.5,-105.5 194.5,-105.5 194.5,-75.5 338.5,-75.5 338.5,-105.5"/>
<text text-anchor="start" x="202.5" y="-93.5" font-family="Helvetica,sans-Serif" font-size="10.00">Tmc9660Handler::IsDriver</text>
<text text-anchor="middle" x="266.5" y="-82.5" font-family="Helvetica,sans-Serif" font-size="10.00">Ready</text>
</a>
</g>
</g>
<!-- Node1&#45;&gt;Node2 -->
<g id="edge1_Node000001_Node000002" class="edge">
<title>Node1&#45;&gt;Node2</title>
<g id="a_edge1_Node000001_Node000002"><a xlink:title=" ">
<path fill="none" stroke="#63b8ff" d="M142.93,-62.54C157.99,-65.98 174.13,-69.66 189.57,-73.18"/>
<polygon fill="#63b8ff" stroke="#63b8ff" points="189.08,-76.66 199.61,-75.47 190.64,-69.83 189.08,-76.66"/>
</a>
</g>
</g>
<!-- Node3 -->
<g id="Node000003" class="node">
<title>Node3</title>
<g id="a_Node000003"><a xlink:href="classTmc9660Handler.html#a393382194d0602e7aa02da6a8fd7a20a" target="_top" xlink:title="Get a reference to the Temperature wrapper.">
<polygon fill="white" stroke="#666666" points="548,-38 381,-38 381,-19 548,-19 548,-38"/>
<text text-anchor="middle" x="464.5" y="-26" font-family="Helvetica,sans-Serif" font-size="10.00">Tmc9660Handler::temperature</text>
</a>
</g>
</g>
<!-- Node1&#45;&gt;Node3 -->
<g id="edge2_Node000001_Node000003" class="edge">
<title>Node1&#45;&gt;Node3</title>
<g id="a_edge2_Node000001_Node000003"><a xlink:title=" ">
<path fill="none" stroke="#63b8ff" d="M152.44,-43.79C214.92,-40.72 303.96,-36.34 370.78,-33.06"/>
<polygon fill="#63b8ff" stroke="#63b8ff" points="371.08,-36.55 380.89,-32.56 370.73,-29.56 371.08,-36.55"/>
</a>
</g>
</g>
<!-- Node4 -->
<g id="Node000004" class="node">
<title>Node4</title>
<g id="a_Node000004"><a xlink:href="classTmc9660Handler.html#a4360829b58deda85e9da4b9cebee96f0" target="_top" xlink:title="Execute a function on the underlying typed TMC9660 driver.">
<polygon fill="white" stroke="#666666" points="345,-19 188,-19 188,0 345,0 345,-19"/>
<text text-anchor="middle" x="266.5" y="-7" font-family="Helvetica,sans-Serif" font-size="10.00">Tmc9660Handler::visitDriver</text>
</a>
</g>
</g>
<!-- Node1&#45;&gt;Node4 -->
<g id="edge3_Node000001_Node000004" class="edge">
<title>Node1&#45;&gt;Node4</title>
<g id="a_edge3_Node000001_Node000004"><a xlink:title=" ">
<path fill="none" stroke="#63b8ff" d="M151.5,-32.48C170.43,-28.67 190.47,-24.63 208.38,-21.02"/>
<polygon fill="#63b8ff" stroke="#63b8ff" points="209.26,-24.41 218.37,-19 207.88,-17.55 209.26,-24.41"/>
</a>
</g>
</g>
<!-- Node4&#45;&gt;Node3 -->
<g id="edge4_Node000004_Node000003" class="edge">
<title>Node4&#45;&gt;Node3</title>
<g id="a_edge4_Node000004_Node000003"><a xlink:title=" ">
<path fill="none" stroke="#63b8ff" d="M345.25,-17.04C353.62,-17.85 362.2,-18.68 370.73,-19.51"/>
<polygon fill="#63b8ff" stroke="#63b8ff" points="370.4,-22.99 380.7,-20.47 371.08,-16.02 370.4,-22.99"/>
</a>
</g>
</g>
</g>
</svg>
