<?xml version="1.0" encoding="UTF-8" standalone="no"?>
<!DOCTYPE svg PUBLIC "-//W3C//DTD SVG 1.1//EN"
 "http://www.w3.org/Graphics/SVG/1.1/DTD/svg11.dtd">
<!-- Generated by graphviz version 2.43.0 (0)
 -->
<!-- Title: Tmc9660Handler::DisableDriverOutput Pages: 1 -->
<svg width="1299pt" height="115pt"
 viewBox="0.00 0.00 1299.00 115.00" xmlns="http://www.w3.org/2000/svg" xmlns:xlink="http://www.w3.org/1999/xlink">
<g id="graph0" class="graph" transform="scale(1 1) rotate(0) translate(4 111)">
<title>Tmc9660Handler::DisableDriverOutput</title>
<!-- Node1 -->
<g id="Node000001" class="node">
<title>Node1</title>
<g id="a_Node000001"><a xlink:title="De&#45;assert the DRV_EN control pin (disable the TMC9660 power stage hardware).">
<polygon fill="#999999" stroke="#666666" points="173,-62.5 0,-62.5 0,-32.5 173,-32.5 173,-62.5"/>
<text text-anchor="start" x="8" y="-50.5" font-family="Helvetica,sans-Serif" font-size="10.00">Tmc9660Handler::DisableDriver</text>
<text text-anchor="middle" x="86.5" y="-39.5" font-family="Helvetica,sans-Serif" font-size="10.00">Output</text>
</a>
</g>
</g>
<!-- Node2 -->
<g id="Node000002" class="node">
<title>Node2</title>
<g id="a_Node000002"><a xlink:href="classTmc9660Handler.html#a5a279ae9d4b5a8e0d71cb24577ad88ea" target="_top" xlink:title="Ensure driver is initialized (lazy init entrypoint).">
<polygon fill="white" stroke="#666666" points="792,-48 605,-48 605,-29 792,-29 792,-48"/>
<text text-anchor="middle" x="698.5" y="-36" font-family="Helvetica,sans-Serif" font-size="10.00">Tmc9660Handler::EnsureInitialized</text>
</a>
</g>
</g>
<!-- Node1&#45;&gt;Node2 -->
<g id="edge1_Node000001_Node000002" class="edge">
<title>Node1&#45;&gt;Node2</title>
<g id="a_edge1_Node000001_Node000002"><a xlink:title=" ">
<path fill="none" stroke="#63b8ff" d="M172.29,-62.52C268.79,-77.28 430.95,-94.98 569,-75.5 601.47,-70.92 637.23,-60.13 662.76,-51.38"/>
<polygon fill="#63b8ff" stroke="#63b8ff" points="664.08,-54.62 672.36,-48.02 661.76,-48.02 664.08,-54.62"/>
</a>
</g>
</g>
<!-- Node10 -->
<g id="Node000010" class="node">
<title>Node10</title>
<g id="a_Node000010"><a xlink:href="classTmc9660Handler.html#a393382194d0602e7aa02da6a8fd7a20a" target="_top" xlink:title="Get a reference to the Temperature wrapper.">
<polygon fill="white" stroke="#666666" points="569,-48 402,-48 402,-29 569,-29 569,-48"/>
<text text-anchor="middle" x="485.5" y="-36" font-family="Helvetica,sans-Serif" font-size="10.00">Tmc9660Handler::temperature</text>
</a>
</g>
</g>
<!-- Node1&#45;&gt;Node10 -->
<g id="edge11_Node000001_Node000010" class="edge">
<title>Node1&#45;&gt;Node10</title>
<g id="a_edge11_Node000001_Node000010"><a xlink:title=" ">
<path fill="none" stroke="#63b8ff" d="M173.15,-45.56C237.42,-44.1 325.3,-42.11 391.32,-40.61"/>
<polygon fill="#63b8ff" stroke="#63b8ff" points="391.8,-44.1 401.72,-40.38 391.64,-37.1 391.8,-44.1"/>
</a>
</g>
</g>
<!-- Node11 -->
<g id="Node000011" class="node">
<title>Node11</title>
<g id="a_Node000011"><a xlink:href="classTmc9660Handler.html#a4360829b58deda85e9da4b9cebee96f0" target="_top" xlink:title="Execute a function on the underlying typed TMC9660 driver.">
<polygon fill="white" stroke="#666666" points="366,-19 209,-19 209,0 366,0 366,-19"/>
<text text-anchor="middle" x="287.5" y="-7" font-family="Helvetica,sans-Serif" font-size="10.00">Tmc9660Handler::visitDriver</text>
</a>
</g>
</g>
<!-- Node1&#45;&gt;Node11 -->
<g id="edge14_Node000001_Node000011" class="edge">
<title>Node1&#45;&gt;Node11</title>
<g id="a_edge14_Node000001_Node000011"><a xlink:title=" ">
<path fill="none" stroke="#63b8ff" d="M166.15,-32.48C186.32,-28.63 207.68,-24.55 226.72,-20.91"/>
<polygon fill="#63b8ff" stroke="#63b8ff" points="227.58,-24.31 236.75,-19 226.27,-17.44 227.58,-24.31"/>
</a>
</g>
</g>
<!-- Node3 -->
<g id="Node000003" class="node">
<title>Node3</title>
<g id="a_Node000003"><a xlink:href="classTmc9660Handler.html#adc564847f8ae26c47412aaee0758991c" target="_top" xlink:title="Initialize the TMC9660 device.">
<polygon fill="white" stroke="#666666" points="976,-70 828,-70 828,-51 976,-51 976,-70"/>
<text text-anchor="middle" x="902" y="-58" font-family="Helvetica,sans-Serif" font-size="10.00">Tmc9660Handler::Initialize</text>
</a>
</g>
</g>
<!-- Node2&#45;&gt;Node3 -->
<g id="edge2_Node000002_Node000003" class="edge">
<title>Node2&#45;&gt;Node3</title>
<g id="a_edge2_Node000002_Node000003"><a xlink:title=" ">
<path fill="none" stroke="#63b8ff" d="M786.71,-48.02C797,-49.15 807.48,-50.29 817.72,-51.41"/>
<polygon fill="#63b8ff" stroke="#63b8ff" points="817.53,-54.91 827.85,-52.51 818.29,-47.95 817.53,-54.91"/>
</a>
</g>
</g>
<!-- Node9 -->
<g id="Node000009" class="node">
<title>Node9</title>
<g id="a_Node000009"><a xlink:href="classTmc9660Handler.html#a13db97d201a287d8aa60384e04070b9f" target="_top" xlink:title="Check if the TMC9660 driver has been initialized and is ready.">
<polygon fill="white" stroke="#666666" points="974,-32.5 830,-32.5 830,-2.5 974,-2.5 974,-32.5"/>
<text text-anchor="start" x="838" y="-20.5" font-family="Helvetica,sans-Serif" font-size="10.00">Tmc9660Handler::IsDriver</text>
<text text-anchor="middle" x="902" y="-9.5" font-family="Helvetica,sans-Serif" font-size="10.00">Ready</text>
</a>
</g>
</g>
<!-- Node2&#45;&gt;Node9 -->
<g id="edge10_Node000002_Node000009" class="edge">
<title>Node2&#45;&gt;Node9</title>
<g id="a_edge10_Node000002_Node000009"><a xlink:title=" ">
<path fill="none" stroke="#63b8ff" d="M790.82,-28.98C800.45,-27.98 810.2,-26.96 819.71,-25.97"/>
<polygon fill="#63b8ff" stroke="#63b8ff" points="820.34,-29.43 829.92,-24.91 819.61,-22.46 820.34,-29.43"/>
</a>
</g>
</g>
<!-- Node4 -->
<g id="Node000004" class="node">
<title>Node4</title>
<g id="a_Node000004"><a xlink:href="classLogger.html#adce17848a5844e053bfd314863dc1404" target="_top" xlink:title="Log error message.">
<polygon fill="white" stroke="#666666" points="1108.5,-70 1029.5,-70 1029.5,-51 1108.5,-51 1108.5,-70"/>
<text text-anchor="middle" x="1069" y="-58" font-family="Helvetica,sans-Serif" font-size="10.00">Logger::Error</text>
</a>
</g>
</g>
<!-- Node3&#45;&gt;Node4 -->
<g id="edge3_Node000003_Node000004" class="edge">
<title>Node3&#45;&gt;Node4</title>
<g id="a_edge3_Node000003_Node000004"><a xlink:title=" ">
<path fill="none" stroke="#63b8ff" d="M976.33,-60.5C990.73,-60.5 1005.5,-60.5 1018.87,-60.5"/>
<polygon fill="#63b8ff" stroke="#63b8ff" points="1019.26,-64 1029.26,-60.5 1019.26,-57 1019.26,-64"/>
</a>
</g>
</g>
<!-- Node7 -->
<g id="Node000007" class="node">
<title>Node7</title>
<g id="a_Node000007"><a xlink:href="classLogger.html#a5789d11f8f1356e2192c0023a089cbc4" target="_top" xlink:title="Get singleton instance.">
<polygon fill="white" stroke="#666666" points="1126,-33 1012,-33 1012,-14 1126,-14 1126,-33"/>
<text text-anchor="middle" x="1069" y="-21" font-family="Helvetica,sans-Serif" font-size="10.00">Logger::GetInstance</text>
</a>
</g>
</g>
<!-- Node3&#45;&gt;Node7 -->
<g id="edge6_Node000003_Node000007" class="edge">
<title>Node3&#45;&gt;Node7</title>
<g id="a_edge6_Node000003_Node000007"><a xlink:title=" ">
<path fill="none" stroke="#63b8ff" d="M945.49,-50.97C966.87,-46.18 992.97,-40.32 1015.58,-35.25"/>
<polygon fill="#63b8ff" stroke="#63b8ff" points="1016.37,-38.66 1025.37,-33.06 1014.84,-31.83 1016.37,-38.66"/>
</a>
</g>
</g>
<!-- Node8 -->
<g id="Node000008" class="node">
<title>Node8</title>
<g id="a_Node000008"><a xlink:href="classLogger.html#a4681229c521795685fc14f6b55c82300" target="_top" xlink:title="Log info message.">
<polygon fill="white" stroke="#666666" points="1106,-107 1032,-107 1032,-88 1106,-88 1106,-107"/>
<text text-anchor="middle" x="1069" y="-95" font-family="Helvetica,sans-Serif" font-size="10.00">Logger::Info</text>
</a>
</g>
</g>
<!-- Node3&#45;&gt;Node8 -->
<g id="edge7_Node000003_Node000008" class="edge">
<title>Node3&#45;&gt;Node8</title>
<g id="a_edge7_Node000003_Node000008"><a xlink:title=" ">
<path fill="none" stroke="#63b8ff" d="M945.49,-70.03C968.89,-75.27 997.94,-81.79 1021.89,-87.16"/>
<polygon fill="#63b8ff" stroke="#63b8ff" points="1021.28,-90.61 1031.8,-89.38 1022.81,-83.78 1021.28,-90.61"/>
</a>
</g>
</g>
<!-- Node5 -->
<g id="Node000005" class="node">
<title>Node5</title>
<g id="a_Node000005"><a xlink:href="classLogger.html#af9e84e0ff6bd538e4f9ed8dcebc3e2f0" target="_top" xlink:title="Check if log level is enabled for tag.">
<polygon fill="white" stroke="#666666" points="1291,-107 1162,-107 1162,-88 1291,-88 1291,-107"/>
<text text-anchor="middle" x="1226.5" y="-95" font-family="Helvetica,sans-Serif" font-size="10.00">Logger::IsLevelEnabled</text>
</a>
</g>
</g>
<!-- Node4&#45;&gt;Node5 -->
<g id="edge4_Node000004_Node000005" class="edge">
<title>Node4&#45;&gt;Node5</title>
<g id="a_edge4_Node000004_Node000005"><a xlink:title=" ">
<path fill="none" stroke="#63b8ff" d="M1108.84,-69.74C1129.03,-74.55 1153.94,-80.47 1175.55,-85.61"/>
<polygon fill="#63b8ff" stroke="#63b8ff" points="1175,-89.08 1185.53,-87.99 1176.62,-82.27 1175,-89.08"/>
</a>
</g>
</g>
<!-- Node6 -->
<g id="Node000006" class="node">
<title>Node6</title>
<g id="a_Node000006"><a xlink:href="classLogger.html#a6adb205db597526fb91ad20067400394" target="_top" xlink:title="Internal logging method.">
<polygon fill="white" stroke="#666666" points="1281.5,-70 1171.5,-70 1171.5,-51 1281.5,-51 1281.5,-70"/>
<text text-anchor="middle" x="1226.5" y="-58" font-family="Helvetica,sans-Serif" font-size="10.00">Logger::LogInternal</text>
</a>
</g>
</g>
<!-- Node4&#45;&gt;Node6 -->
<g id="edge5_Node000004_Node000006" class="edge">
<title>Node4&#45;&gt;Node6</title>
<g id="a_edge5_Node000004_Node000006"><a xlink:title=" ">
<path fill="none" stroke="#63b8ff" d="M1108.84,-60.5C1124.63,-60.5 1143.31,-60.5 1161.03,-60.5"/>
<polygon fill="#63b8ff" stroke="#63b8ff" points="1161.33,-64 1171.33,-60.5 1161.33,-57 1161.33,-64"/>
</a>
</g>
</g>
<!-- Node8&#45;&gt;Node5 -->
<g id="edge8_Node000008_Node000005" class="edge">
<title>Node8&#45;&gt;Node5</title>
<g id="a_edge8_Node000008_Node000005"><a xlink:title=" ">
<path fill="none" stroke="#63b8ff" d="M1106.07,-97.5C1119.68,-97.5 1135.72,-97.5 1151.55,-97.5"/>
<polygon fill="#63b8ff" stroke="#63b8ff" points="1151.89,-101 1161.89,-97.5 1151.89,-94 1151.89,-101"/>
</a>
</g>
</g>
<!-- Node8&#45;&gt;Node6 -->
<g id="edge9_Node000008_Node000006" class="edge">
<title>Node8&#45;&gt;Node6</title>
<g id="a_edge9_Node000008_Node000006"><a xlink:title=" ">
<path fill="none" stroke="#63b8ff" d="M1106.07,-88.92C1126.78,-83.99 1153.09,-77.73 1175.74,-72.34"/>
<polygon fill="#63b8ff" stroke="#63b8ff" points="1176.61,-75.73 1185.53,-70.01 1174.99,-68.92 1176.61,-75.73"/>
</a>
</g>
</g>
<!-- Node10&#45;&gt;Node2 -->
<g id="edge12_Node000010_Node000002" class="edge">
<title>Node10&#45;&gt;Node2</title>
<g id="a_edge12_Node000010_Node000002"><a xlink:title=" ">
<path fill="none" stroke="#63b8ff" d="M569.29,-38.5C577.67,-38.5 586.25,-38.5 594.81,-38.5"/>
<polygon fill="#63b8ff" stroke="#63b8ff" points="594.83,-42 604.83,-38.5 594.83,-35 594.83,-42"/>
</a>
</g>
</g>
<!-- Node10&#45;&gt;Node10 -->
<g id="edge13_Node000010_Node000010" class="edge">
<title>Node10&#45;&gt;Node10</title>
<g id="a_edge13_Node000010_Node000010"><a xlink:title=" ">
<path fill="none" stroke="#63b8ff" d="M454.98,-48.08C440.14,-56.73 450.31,-66 485.5,-66 510.24,-66 522.62,-61.42 522.62,-55.69"/>
<polygon fill="#63b8ff" stroke="#63b8ff" points="525.22,-53.34 516.02,-48.08 519.93,-57.93 525.22,-53.34"/>
</a>
</g>
</g>
<!-- Node11&#45;&gt;Node2 -->
<g id="edge15_Node000011_Node000002" class="edge">
<title>Node11&#45;&gt;Node2</title>
<g id="a_edge15_Node000011_Node000002"><a xlink:title=" ">
<path fill="none" stroke="#63b8ff" d="M366.04,-9.95C422.43,-10.84 500.58,-13.24 569,-19.5 589.65,-21.39 612.05,-24.37 632.27,-27.42"/>
<polygon fill="#63b8ff" stroke="#63b8ff" points="631.9,-30.91 642.32,-28.97 632.97,-23.99 631.9,-30.91"/>
</a>
</g>
</g>
<!-- Node11&#45;&gt;Node10 -->
<g id="edge16_Node000011_Node000010" class="edge">
<title>Node11&#45;&gt;Node10</title>
<g id="a_edge16_Node000011_Node000010"><a xlink:title=" ">
<path fill="none" stroke="#63b8ff" d="M352.95,-19.04C371.2,-21.74 391.22,-24.7 410.02,-27.48"/>
<polygon fill="#63b8ff" stroke="#63b8ff" points="409.61,-30.96 420.01,-28.96 410.63,-24.03 409.61,-30.96"/>
</a>
</g>
</g>
</g>
</svg>
