<?xml version="1.0" encoding="UTF-8" standalone="no"?>
<!DOCTYPE svg PUBLIC "-//W3C//DTD SVG 1.1//EN"
 "http://www.w3.org/Graphics/SVG/1.1/DTD/svg11.dtd">
<!-- Generated by graphviz version 2.43.0 (0)
 -->
<!-- Title: Tmc9660Handler::Adc Pages: 1 -->
<svg width="1585pt" height="265pt"
 viewBox="0.00 0.00 1585.00 264.50" xmlns="http://www.w3.org/2000/svg" xmlns:xlink="http://www.w3.org/1999/xlink">
<g id="graph0" class="graph" transform="scale(1 1) rotate(0) translate(4 260.5)">
<title>Tmc9660Handler::Adc</title>
<!-- Node1 -->
<g id="Node000001" class="node">
<title>Node1</title>
<g id="a_Node000001"><a xlink:title="BaseAdc adapter for all TMC9660 ADC channels.">
<polygon fill="#999999" stroke="#666666" points="380.5,-219.5 256.5,-219.5 256.5,-200.5 380.5,-200.5 380.5,-219.5"/>
<text text-anchor="middle" x="318.5" y="-207.5" font-family="Helvetica,sans-Serif" font-size="10.00">Tmc9660Handler::Adc</text>
</a>
</g>
</g>
<!-- Node17 -->
<g id="Node000017" class="node">
<title>Node17</title>
<g id="a_Node000017"><a xlink:title=" ">
<polygon fill="white" stroke="#666666" points="598.5,-201 452.5,-201 452.5,-171 598.5,-171 598.5,-201"/>
<text text-anchor="start" x="460.5" y="-189" font-family="Helvetica,sans-Serif" font-size="10.00">std::unique_ptr&lt; Tmc9660</text>
<text text-anchor="middle" x="525.5" y="-178" font-family="Helvetica,sans-Serif" font-size="10.00">Handler::Adc &gt;</text>
</a>
</g>
</g>
<!-- Node1&#45;&gt;Node17 -->
<g id="edge19_Node000017_Node000001" class="edge">
<title>Node1&#45;&gt;Node17</title>
<g id="a_edge19_Node000017_Node000001"><a xlink:title=" ">
<path fill="none" stroke="#9a32cd" stroke-dasharray="5,2" d="M390.68,-201.67C410.65,-199.33 432.38,-196.79 452.4,-194.44"/>
<polygon fill="#9a32cd" stroke="#9a32cd" points="390.25,-198.19 380.73,-202.83 391.07,-205.15 390.25,-198.19"/>
</a>
</g>
<text text-anchor="middle" x="410.5" y="-203" font-family="Helvetica,sans-Serif" font-size="10.00" fill="grey"> ptr</text>
</g>
<!-- Node2 -->
<g id="Node000002" class="node">
<title>Node2</title>
<g id="a_Node000002"><a xlink:title=" ">
<polygon fill="white" stroke="#666666" points="110.5,-231.5 51.5,-231.5 51.5,-212.5 110.5,-212.5 110.5,-231.5"/>
<text text-anchor="middle" x="81" y="-219.5" font-family="Helvetica,sans-Serif" font-size="10.00">BaseAdc</text>
</a>
</g>
</g>
<!-- Node2&#45;&gt;Node1 -->
<g id="edge1_Node000001_Node000002" class="edge">
<title>Node2&#45;&gt;Node1</title>
<g id="a_edge1_Node000001_Node000002"><a xlink:title=" ">
<path fill="none" stroke="#63b8ff" d="M121.19,-220C157.96,-218.13 213.54,-215.3 256.18,-213.12"/>
<polygon fill="#63b8ff" stroke="#63b8ff" points="120.69,-216.52 110.88,-220.53 121.04,-223.52 120.69,-216.52"/>
</a>
</g>
</g>
<!-- Node3 -->
<g id="Node000003" class="node">
<title>Node3</title>
<g id="a_Node000003"><a xlink:href="classTmc9660Handler.html" target="_top" xlink:title="Unified, non&#45;templated handler for a single TMC9660 motor controller device.">
<polygon fill="white" stroke="#666666" points="828.5,-123.5 728.5,-123.5 728.5,-104.5 828.5,-104.5 828.5,-123.5"/>
<text text-anchor="middle" x="778.5" y="-111.5" font-family="Helvetica,sans-Serif" font-size="10.00">Tmc9660Handler</text>
</a>
</g>
</g>
<!-- Node3&#45;&gt;Node1 -->
<g id="edge2_Node000001_Node000003" class="edge">
<title>Node3&#45;&gt;Node1</title>
<g id="a_edge2_Node000001_Node000003"><a xlink:title=" ">
<path fill="none" stroke="#9a32cd" stroke-dasharray="5,2" d="M759.33,-130.43C744.03,-143.67 721.17,-162.14 699,-175 663.66,-195.5 653.97,-201.56 614,-210 534.71,-226.74 440.71,-222.75 380.61,-217.29"/>
<polygon fill="#9a32cd" stroke="#9a32cd" points="761.8,-132.92 766.99,-123.68 757.17,-127.67 761.8,-132.92"/>
</a>
</g>
<text text-anchor="middle" x="525.5" y="-225" font-family="Helvetica,sans-Serif" font-size="10.00" fill="grey"> parent_</text>
</g>
<!-- Node15 -->
<g id="Node000015" class="node">
<title>Node15</title>
<g id="a_Node000015"><a xlink:href="classTmc9660Handler_1_1Gpio.html" target="_top" xlink:title="BaseGpio adapter for a single TMC9660 internal GPIO channel.">
<polygon fill="white" stroke="#666666" points="1078.5,-57.5 950.5,-57.5 950.5,-38.5 1078.5,-38.5 1078.5,-57.5"/>
<text text-anchor="middle" x="1014.5" y="-45.5" font-family="Helvetica,sans-Serif" font-size="10.00">Tmc9660Handler::Gpio</text>
</a>
</g>
</g>
<!-- Node3&#45;&gt;Node15 -->
<g id="edge17_Node000015_Node000003" class="edge">
<title>Node3&#45;&gt;Node15</title>
<g id="a_edge17_Node000015_Node000003"><a xlink:title=" ">
<path fill="none" stroke="#9a32cd" stroke-dasharray="5,2" d="M799.54,-98.35C814.71,-87.38 836.54,-73.4 858,-66 887.42,-55.86 921.63,-51.19 950.46,-49.12"/>
<polygon fill="#9a32cd" stroke="#9a32cd" points="797.36,-95.61 791.43,-104.39 801.54,-101.22 797.36,-95.61"/>
</a>
</g>
<text text-anchor="middle" x="885.5" y="-69" font-family="Helvetica,sans-Serif" font-size="10.00" fill="grey"> parent_</text>
</g>
<!-- Node19 -->
<g id="Node000019" class="node">
<title>Node19</title>
<g id="a_Node000019"><a xlink:href="classTmc9660Handler_1_1Temperature.html" target="_top" xlink:title="BaseTemperature adapter for TMC9660 internal chip temperature sensor.">
<polygon fill="white" stroke="#666666" points="1098,-199.5 931,-199.5 931,-180.5 1098,-180.5 1098,-199.5"/>
<text text-anchor="middle" x="1014.5" y="-187.5" font-family="Helvetica,sans-Serif" font-size="10.00">Tmc9660Handler::Temperature</text>
</a>
</g>
</g>
<!-- Node3&#45;&gt;Node19 -->
<g id="edge23_Node000019_Node000003" class="edge">
<title>Node3&#45;&gt;Node19</title>
<g id="a_edge23_Node000019_Node000003"><a xlink:title=" ">
<path fill="none" stroke="#9a32cd" stroke-dasharray="5,2" d="M808.99,-127.98C823.54,-134.57 841.48,-142.23 858,-148 895.88,-161.24 940.15,-172.83 971.75,-180.47"/>
<polygon fill="#9a32cd" stroke="#9a32cd" points="810.06,-124.62 799.51,-123.63 807.14,-130.98 810.06,-124.62"/>
</a>
</g>
<text text-anchor="middle" x="885.5" y="-168" font-family="Helvetica,sans-Serif" font-size="10.00" fill="grey"> parent_</text>
</g>
<!-- Node4 -->
<g id="Node000004" class="node">
<title>Node4</title>
<g id="a_Node000004"><a xlink:title=" ">
<polygon fill="white" stroke="#666666" points="614,-153 437,-153 437,-123 614,-123 614,-153"/>
<text text-anchor="start" x="445" y="-141" font-family="Helvetica,sans-Serif" font-size="10.00">std::unique_ptr&lt; HalSpiTmc9660</text>
<text text-anchor="middle" x="525.5" y="-130" font-family="Helvetica,sans-Serif" font-size="10.00">Comm &gt;</text>
</a>
</g>
</g>
<!-- Node4&#45;&gt;Node3 -->
<g id="edge3_Node000003_Node000004" class="edge">
<title>Node4&#45;&gt;Node3</title>
<g id="a_edge3_Node000003_Node000004"><a xlink:title=" ">
<path fill="none" stroke="#9a32cd" stroke-dasharray="5,2" d="M624.69,-128.61C660.15,-125.22 698.67,-121.54 728.16,-118.72"/>
<polygon fill="#9a32cd" stroke="#9a32cd" points="623.91,-125.17 614.29,-129.61 624.58,-132.14 623.91,-125.17"/>
</a>
</g>
<text text-anchor="middle" x="665.5" y="-130" font-family="Helvetica,sans-Serif" font-size="10.00" fill="grey"> spi_comm_</text>
</g>
<!-- Node5 -->
<g id="Node000005" class="node">
<title>Node5</title>
<g id="a_Node000005"><a xlink:href="classHalSpiTmc9660Comm.html" target="_top" xlink:title="CRTP SPI communication adapter bridging BaseSpi/BaseGpio to tmc9660::SpiCommInterface.">
<polygon fill="white" stroke="#666666" points="381,-128.5 256,-128.5 256,-109.5 381,-109.5 381,-128.5"/>
<text text-anchor="middle" x="318.5" y="-116.5" font-family="Helvetica,sans-Serif" font-size="10.00">HalSpiTmc9660Comm</text>
</a>
</g>
</g>
<!-- Node5&#45;&gt;Node4 -->
<g id="edge4_Node000004_Node000005" class="edge">
<title>Node5&#45;&gt;Node4</title>
<g id="a_edge4_Node000004_Node000005"><a xlink:title=" ">
<path fill="none" stroke="#9a32cd" stroke-dasharray="5,2" d="M391.08,-125.63C405.87,-127 421.6,-128.46 436.89,-129.88"/>
<polygon fill="#9a32cd" stroke="#9a32cd" points="391.29,-122.14 381.01,-124.7 390.64,-129.11 391.29,-122.14"/>
</a>
</g>
<text text-anchor="middle" x="410.5" y="-130" font-family="Helvetica,sans-Serif" font-size="10.00" fill="grey"> ptr</text>
</g>
<!-- Node6 -->
<g id="Node000006" class="node">
<title>Node6</title>
<g id="a_Node000006"><a xlink:title=" ">
<polygon fill="white" stroke="#666666" points="159,-134 3,-134 3,-104 159,-104 159,-134"/>
<text text-anchor="start" x="11" y="-122" font-family="Helvetica,sans-Serif" font-size="10.00">tmc9660::SpiCommInterface</text>
<text text-anchor="middle" x="81" y="-111" font-family="Helvetica,sans-Serif" font-size="10.00">&lt; HalSpiTmc9660Comm &gt;</text>
</a>
</g>
</g>
<!-- Node6&#45;&gt;Node5 -->
<g id="edge5_Node000005_Node000006" class="edge">
<title>Node6&#45;&gt;Node5</title>
<g id="a_edge5_Node000005_Node000006"><a xlink:title=" ">
<path fill="none" stroke="#63b8ff" d="M169.18,-119C197.98,-119 229.4,-119 255.88,-119"/>
<polygon fill="#63b8ff" stroke="#63b8ff" points="169.11,-115.5 159.11,-119 169.11,-122.5 169.11,-115.5"/>
</a>
</g>
</g>
<!-- Node7 -->
<g id="Node000007" class="node">
<title>Node7</title>
<g id="a_Node000007"><a xlink:href="structTmc9660CtrlPins.html" target="_top" xlink:title="Shared helper holding the four TMC9660 host&#45;side control pin references.">
<polygon fill="white" stroke="#666666" points="130.5,-82.5 31.5,-82.5 31.5,-63.5 130.5,-63.5 130.5,-82.5"/>
<text text-anchor="middle" x="81" y="-70.5" font-family="Helvetica,sans-Serif" font-size="10.00">Tmc9660CtrlPins</text>
</a>
</g>
</g>
<!-- Node7&#45;&gt;Node5 -->
<g id="edge6_Node000005_Node000007" class="edge">
<title>Node7&#45;&gt;Node5</title>
<g id="a_edge6_Node000005_Node000007"><a xlink:title=" ">
<path fill="none" stroke="#9a32cd" stroke-dasharray="5,2" d="M140.52,-84.43C179.97,-92.14 231.4,-102.18 268.65,-109.46"/>
<polygon fill="#9a32cd" stroke="#9a32cd" points="141,-80.96 130.51,-82.48 139.65,-87.83 141,-80.96"/>
</a>
</g>
<text text-anchor="middle" x="207.5" y="-106" font-family="Helvetica,sans-Serif" font-size="10.00" fill="grey"> ctrl_pins_</text>
</g>
<!-- Node9 -->
<g id="Node000009" class="node">
<title>Node9</title>
<g id="a_Node000009"><a xlink:href="classHalUartTmc9660Comm.html" target="_top" xlink:title="CRTP UART communication adapter bridging BaseUart/BaseGpio to tmc9660::UartCommInterface.">
<polygon fill="white" stroke="#666666" points="384,-32.5 253,-32.5 253,-13.5 384,-13.5 384,-32.5"/>
<text text-anchor="middle" x="318.5" y="-20.5" font-family="Helvetica,sans-Serif" font-size="10.00">HalUartTmc9660Comm</text>
</a>
</g>
</g>
<!-- Node7&#45;&gt;Node9 -->
<g id="edge10_Node000009_Node000007" class="edge">
<title>Node7&#45;&gt;Node9</title>
<g id="a_edge10_Node000009_Node000007"><a xlink:title=" ">
<path fill="none" stroke="#9a32cd" stroke-dasharray="5,2" d="M136.73,-61.38C177.94,-52.63 233.76,-40.78 272.42,-32.57"/>
<polygon fill="#9a32cd" stroke="#9a32cd" points="135.91,-57.98 126.85,-63.48 137.36,-64.82 135.91,-57.98"/>
</a>
</g>
<text text-anchor="middle" x="207.5" y="-54" font-family="Helvetica,sans-Serif" font-size="10.00" fill="grey"> ctrl_pins_</text>
</g>
<!-- Node8 -->
<g id="Node000008" class="node">
<title>Node8</title>
<g id="a_Node000008"><a xlink:title=" ">
<polygon fill="white" stroke="#666666" points="594.5,-30 456.5,-30 456.5,0 594.5,0 594.5,-30"/>
<text text-anchor="start" x="464.5" y="-18" font-family="Helvetica,sans-Serif" font-size="10.00">std::unique_ptr&lt; HalUart</text>
<text text-anchor="middle" x="525.5" y="-7" font-family="Helvetica,sans-Serif" font-size="10.00">Tmc9660Comm &gt;</text>
</a>
</g>
</g>
<!-- Node8&#45;&gt;Node3 -->
<g id="edge7_Node000003_Node000008" class="edge">
<title>Node8&#45;&gt;Node3</title>
<g id="a_edge7_Node000003_Node000008"><a xlink:title=" ">
<path fill="none" stroke="#9a32cd" stroke-dasharray="5,2" d="M604.78,-25.35C635.16,-31.23 669.64,-40.27 699,-54 726.66,-66.94 753.81,-90.89 767.78,-104.29"/>
<polygon fill="#9a32cd" stroke="#9a32cd" points="605.11,-21.85 594.64,-23.47 603.84,-28.73 605.11,-21.85"/>
</a>
</g>
<text text-anchor="middle" x="665.5" y="-57" font-family="Helvetica,sans-Serif" font-size="10.00" fill="grey"> uart_comm_</text>
</g>
<!-- Node9&#45;&gt;Node8 -->
<g id="edge8_Node000008_Node000009" class="edge">
<title>Node9&#45;&gt;Node8</title>
<g id="a_edge8_Node000008_Node000009"><a xlink:title=" ">
<path fill="none" stroke="#9a32cd" stroke-dasharray="5,2" d="M394.22,-20.08C414.54,-19.29 436.42,-18.44 456.35,-17.66"/>
<polygon fill="#9a32cd" stroke="#9a32cd" points="393.94,-16.59 384.08,-20.48 394.21,-23.59 393.94,-16.59"/>
</a>
</g>
<text text-anchor="middle" x="410.5" y="-23" font-family="Helvetica,sans-Serif" font-size="10.00" fill="grey"> ptr</text>
</g>
<!-- Node10 -->
<g id="Node000010" class="node">
<title>Node10</title>
<g id="a_Node000010"><a xlink:title=" ">
<polygon fill="white" stroke="#666666" points="162,-38 0,-38 0,-8 162,-8 162,-38"/>
<text text-anchor="start" x="8" y="-26" font-family="Helvetica,sans-Serif" font-size="10.00">tmc9660::UartCommInterface</text>
<text text-anchor="middle" x="81" y="-15" font-family="Helvetica,sans-Serif" font-size="10.00">&lt; HalUartTmc9660Comm &gt;</text>
</a>
</g>
</g>
<!-- Node10&#45;&gt;Node9 -->
<g id="edge9_Node000009_Node000010" class="edge">
<title>Node10&#45;&gt;Node9</title>
<g id="a_edge9_Node000009_Node000010"><a xlink:title=" ">
<path fill="none" stroke="#63b8ff" d="M172.24,-23C199.11,-23 227.99,-23 252.88,-23"/>
<polygon fill="#63b8ff" stroke="#63b8ff" points="172.06,-19.5 162.06,-23 172.06,-26.5 172.06,-19.5"/>
</a>
</g>
</g>
<!-- Node11 -->
<g id="Node000011" class="node">
<title>Node11</title>
<g id="a_Node000011"><a xlink:title=" ">
<polygon fill="white" stroke="#666666" points="604,-104.5 447,-104.5 447,-85.5 604,-85.5 604,-104.5"/>
<text text-anchor="middle" x="525.5" y="-92.5" font-family="Helvetica,sans-Serif" font-size="10.00">std::unique_ptr&lt; SpiDriver &gt;</text>
</a>
</g>
</g>
<!-- Node11&#45;&gt;Node3 -->
<g id="edge11_Node000003_Node000011" class="edge">
<title>Node11&#45;&gt;Node3</title>
<g id="a_edge11_Node000003_Node000011"><a xlink:title=" ">
<path fill="none" stroke="#9a32cd" stroke-dasharray="5,2" d="M614.6,-95.87C641.72,-96.73 671.63,-98.27 699,-101 708.48,-101.95 718.56,-103.33 728.22,-104.84"/>
<polygon fill="#9a32cd" stroke="#9a32cd" points="614.45,-92.36 604.36,-95.57 614.25,-99.36 614.45,-92.36"/>
</a>
</g>
<text text-anchor="middle" x="665.5" y="-104" font-family="Helvetica,sans-Serif" font-size="10.00" fill="grey"> spi_driver_</text>
</g>
<!-- Node12 -->
<g id="Node000012" class="node">
<title>Node12</title>
<g id="a_Node000012"><a xlink:title=" ">
<polygon fill="white" stroke="#666666" points="607,-67.5 444,-67.5 444,-48.5 607,-48.5 607,-67.5"/>
<text text-anchor="middle" x="525.5" y="-55.5" font-family="Helvetica,sans-Serif" font-size="10.00">std::unique_ptr&lt; UartDriver &gt;</text>
</a>
</g>
</g>
<!-- Node12&#45;&gt;Node3 -->
<g id="edge12_Node000003_Node000012" class="edge">
<title>Node12&#45;&gt;Node3</title>
<g id="a_edge12_Node000003_Node000012"><a xlink:title=" ">
<path fill="none" stroke="#9a32cd" stroke-dasharray="5,2" d="M617.27,-66.33C643.88,-69.92 672.85,-74.97 699,-82 719.75,-87.58 742.36,-97.2 757.97,-104.44"/>
<polygon fill="#9a32cd" stroke="#9a32cd" points="617.57,-62.84 607.2,-65.02 616.67,-69.78 617.57,-62.84"/>
</a>
</g>
<text text-anchor="middle" x="665.5" y="-85" font-family="Helvetica,sans-Serif" font-size="10.00" fill="grey"> uart_driver_</text>
</g>
<!-- Node13 -->
<g id="Node000013" class="node">
<title>Node13</title>
<g id="a_Node000013"><a xlink:title=" ">
<polygon fill="white" stroke="#666666" points="1577,-90.5 1441,-90.5 1441,-49.5 1577,-49.5 1577,-90.5"/>
<text text-anchor="start" x="1449" y="-78.5" font-family="Helvetica,sans-Serif" font-size="10.00">std::array&lt; std::unique</text>
<text text-anchor="start" x="1449" y="-67.5" font-family="Helvetica,sans-Serif" font-size="10.00">_ptr&lt; Tmc9660Handler::</text>
<text text-anchor="middle" x="1509" y="-56.5" font-family="Helvetica,sans-Serif" font-size="10.00">Gpio &gt;, 2 &gt;</text>
</a>
</g>
</g>
<!-- Node13&#45;&gt;Node3 -->
<g id="edge13_Node000003_Node000013" class="edge">
<title>Node13&#45;&gt;Node3</title>
<g id="a_edge13_Node000003_Node000013"><a xlink:title=" ">
<path fill="none" stroke="#9a32cd" stroke-dasharray="5,2" d="M1430.67,-76.45C1428.08,-76.64 1425.52,-76.82 1423,-77 1201.41,-92.49 936.57,-106.2 828.77,-111.58"/>
<polygon fill="#9a32cd" stroke="#9a32cd" points="1431.02,-79.93 1440.73,-75.69 1430.5,-72.95 1431.02,-79.93"/>
</a>
</g>
<text text-anchor="middle" x="1154" y="-100" font-family="Helvetica,sans-Serif" font-size="10.00" fill="grey"> gpioWrappers_</text>
</g>
<!-- Node14 -->
<g id="Node000014" class="node">
<title>Node14</title>
<g id="a_Node000014"><a xlink:title=" ">
<polygon fill="white" stroke="#666666" points="1356,-63 1210,-63 1210,-33 1356,-33 1356,-63"/>
<text text-anchor="start" x="1218" y="-51" font-family="Helvetica,sans-Serif" font-size="10.00">std::unique_ptr&lt; Tmc9660</text>
<text text-anchor="middle" x="1283" y="-40" font-family="Helvetica,sans-Serif" font-size="10.00">Handler::Gpio &gt;</text>
</a>
</g>
</g>
<!-- Node14&#45;&gt;Node13 -->
<g id="edge14_Node000013_Node000014" class="edge">
<title>Node14&#45;&gt;Node13</title>
<g id="a_edge14_Node000013_Node000014"><a xlink:title=" ">
<path fill="none" stroke="#9a32cd" stroke-dasharray="5,2" d="M1366.15,-56.07C1390.76,-58.49 1417.45,-61.11 1440.97,-63.42"/>
<polygon fill="#9a32cd" stroke="#9a32cd" points="1366.4,-52.58 1356.11,-55.08 1365.72,-59.54 1366.4,-52.58"/>
</a>
</g>
<text text-anchor="middle" x="1398.5" y="-65" font-family="Helvetica,sans-Serif" font-size="10.00" fill="grey"> elements</text>
</g>
<!-- Node15&#45;&gt;Node14 -->
<g id="edge15_Node000014_Node000015" class="edge">
<title>Node15&#45;&gt;Node14</title>
<g id="a_edge15_Node000014_Node000015"><a xlink:title=" ">
<path fill="none" stroke="#9a32cd" stroke-dasharray="5,2" d="M1089.06,-48C1126.73,-48 1172.42,-48 1209.88,-48"/>
<polygon fill="#9a32cd" stroke="#9a32cd" points="1088.66,-44.5 1078.66,-48 1088.66,-51.5 1088.66,-44.5"/>
</a>
</g>
<text text-anchor="middle" x="1154" y="-51" font-family="Helvetica,sans-Serif" font-size="10.00" fill="grey"> ptr</text>
</g>
<!-- Node16 -->
<g id="Node000016" class="node">
<title>Node16</title>
<g id="a_Node000016"><a xlink:title=" ">
<polygon fill="white" stroke="#666666" points="810,-41.5 747,-41.5 747,-22.5 810,-22.5 810,-41.5"/>
<text text-anchor="middle" x="778.5" y="-29.5" font-family="Helvetica,sans-Serif" font-size="10.00">BaseGpio</text>
</a>
</g>
</g>
<!-- Node16&#45;&gt;Node15 -->
<g id="edge16_Node000015_Node000016" class="edge">
<title>Node16&#45;&gt;Node15</title>
<g id="a_edge16_Node000015_Node000016"><a xlink:title=" ">
<path fill="none" stroke="#63b8ff" d="M820.19,-34.78C856.07,-37.24 908.92,-40.85 950.3,-43.68"/>
<polygon fill="#63b8ff" stroke="#63b8ff" points="820.31,-31.28 810.09,-34.09 819.83,-38.27 820.31,-31.28"/>
</a>
</g>
</g>
<!-- Node17&#45;&gt;Node3 -->
<g id="edge18_Node000003_Node000017" class="edge">
<title>Node17&#45;&gt;Node3</title>
<g id="a_edge18_Node000003_Node000017"><a xlink:title=" ">
<path fill="none" stroke="#9a32cd" stroke-dasharray="5,2" d="M601.71,-168.43C632.1,-160.91 667.4,-151.64 699,-142 717.13,-136.47 737.26,-129.27 752.6,-123.55"/>
<polygon fill="#9a32cd" stroke="#9a32cd" points="600.49,-165.12 591.61,-170.91 602.15,-171.92 600.49,-165.12"/>
</a>
</g>
<text text-anchor="middle" x="665.5" y="-163" font-family="Helvetica,sans-Serif" font-size="10.00" fill="grey"> adcWrapper_</text>
</g>
<!-- Node18 -->
<g id="Node000018" class="node">
<title>Node18</title>
<g id="a_Node000018"><a xlink:title=" ">
<polygon fill="white" stroke="#666666" points="1356,-170 1210,-170 1210,-140 1356,-140 1356,-170"/>
<text text-anchor="start" x="1218" y="-158" font-family="Helvetica,sans-Serif" font-size="10.00">std::unique_ptr&lt; Tmc9660</text>
<text text-anchor="middle" x="1283" y="-147" font-family="Helvetica,sans-Serif" font-size="10.00">Handler::Temperature &gt;</text>
</a>
</g>
</g>
<!-- Node18&#45;&gt;Node3 -->
<g id="edge20_Node000003_Node000018" class="edge">
<title>Node18&#45;&gt;Node3</title>
<g id="a_edge20_Node000003_Node000018"><a xlink:title=" ">
<path fill="none" stroke="#9a32cd" stroke-dasharray="5,2" d="M1199.5,-148.27C1094.02,-139.66 914.76,-125.04 828.6,-118.01"/>
<polygon fill="#9a32cd" stroke="#9a32cd" points="1199.53,-151.78 1209.78,-149.11 1200.1,-144.81 1199.53,-151.78"/>
</a>
</g>
<text text-anchor="middle" x="1014.5" y="-142" font-family="Helvetica,sans-Serif" font-size="10.00" fill="grey"> temperatureWrapper_</text>
</g>
<!-- Node19&#45;&gt;Node18 -->
<g id="edge21_Node000018_Node000019" class="edge">
<title>Node19&#45;&gt;Node18</title>
<g id="a_edge21_Node000018_Node000019"><a xlink:title=" ">
<path fill="none" stroke="#9a32cd" stroke-dasharray="5,2" d="M1098.34,-179.12C1133.94,-174.44 1175.18,-169.03 1209.54,-164.52"/>
<polygon fill="#9a32cd" stroke="#9a32cd" points="1097.43,-175.71 1087.97,-180.48 1098.34,-182.65 1097.43,-175.71"/>
</a>
</g>
<text text-anchor="middle" x="1154" y="-179" font-family="Helvetica,sans-Serif" font-size="10.00" fill="grey"> ptr</text>
</g>
<!-- Node20 -->
<g id="Node000020" class="node">
<title>Node20</title>
<g id="a_Node000020"><a xlink:title=" ">
<polygon fill="white" stroke="#666666" points="829.5,-256.5 727.5,-256.5 727.5,-237.5 829.5,-237.5 829.5,-256.5"/>
<text text-anchor="middle" x="778.5" y="-244.5" font-family="Helvetica,sans-Serif" font-size="10.00">BaseTemperature</text>
</a>
</g>
</g>
<!-- Node20&#45;&gt;Node19 -->
<g id="edge22_Node000019_Node000020" class="edge">
<title>Node20&#45;&gt;Node19</title>
<g id="a_edge22_Node000019_Node000020"><a xlink:title=" ">
<path fill="none" stroke="#63b8ff" d="M828.42,-235.08C871.71,-224.54 934.09,-209.34 974.21,-199.57"/>
<polygon fill="#63b8ff" stroke="#63b8ff" points="827.55,-231.69 818.67,-237.46 829.21,-238.49 827.55,-231.69"/>
</a>
</g>
</g>
<!-- Node21 -->
<g id="Node000021" class="node">
<title>Node21</title>
<g id="a_Node000021"><a xlink:title=" ">
<polygon fill="white" stroke="#666666" points="840,-219 717,-219 717,-189 840,-189 840,-219"/>
<text text-anchor="start" x="725" y="-207" font-family="Helvetica,sans-Serif" font-size="10.00">std::atomic&lt; hf_temp</text>
<text text-anchor="middle" x="778.5" y="-196" font-family="Helvetica,sans-Serif" font-size="10.00">_err_t &gt;</text>
</a>
</g>
</g>
<!-- Node21&#45;&gt;Node19 -->
<g id="edge24_Node000019_Node000021" class="edge">
<title>Node21&#45;&gt;Node19</title>
<g id="a_edge24_Node000019_Node000021"><a xlink:title=" ">
<path fill="none" stroke="#9a32cd" stroke-dasharray="5,2" d="M850.33,-199.76C875.67,-198.25 904.45,-196.52 930.71,-194.95"/>
<polygon fill="#9a32cd" stroke="#9a32cd" points="849.84,-196.29 840.07,-200.38 850.26,-203.27 849.84,-196.29"/>
</a>
</g>
<text text-anchor="middle" x="885.5" y="-202" font-family="Helvetica,sans-Serif" font-size="10.00" fill="grey"> last_error_</text>
</g>
<!-- Node22 -->
<g id="Node000022" class="node">
<title>Node22</title>
<g id="a_Node000022"><a xlink:title=" ">
<polygon fill="white" stroke="#666666" points="138.5,-194 23.5,-194 23.5,-164 138.5,-164 138.5,-194"/>
<text text-anchor="start" x="31.5" y="-182" font-family="Helvetica,sans-Serif" font-size="10.00">std::atomic&lt; hf_adc</text>
<text text-anchor="middle" x="81" y="-171" font-family="Helvetica,sans-Serif" font-size="10.00">_err_t &gt;</text>
</a>
</g>
</g>
<!-- Node22&#45;&gt;Node1 -->
<g id="edge25_Node000001_Node000022" class="edge">
<title>Node22&#45;&gt;Node1</title>
<g id="a_edge25_Node000001_Node000022"><a xlink:title=" ">
<path fill="none" stroke="#9a32cd" stroke-dasharray="5,2" d="M148.73,-187.68C175.54,-191.18 206.74,-195.27 235,-199 241.88,-199.91 249.07,-200.86 256.23,-201.81"/>
<polygon fill="#9a32cd" stroke="#9a32cd" points="149.05,-184.2 138.68,-186.37 148.14,-191.14 149.05,-184.2"/>
</a>
</g>
<text text-anchor="middle" x="207.5" y="-202" font-family="Helvetica,sans-Serif" font-size="10.00" fill="grey"> last_error_</text>
</g>
</g>
</svg>
