<?xml version="1.0" encoding="UTF-8" standalone="no"?>
<!DOCTYPE svg PUBLIC "-//W3C//DTD SVG 1.1//EN"
 "http://www.w3.org/Graphics/SVG/1.1/DTD/svg11.dtd">
<!-- Generated by graphviz version 2.43.0 (0)
 -->
<!-- Title: NtcTemperatureHandler::StartContinuousMonitoring Pages: 1 -->
<svg width="476pt" height="101pt"
 viewBox="0.00 0.00 476.00 101.00" xmlns="http://www.w3.org/2000/svg" xmlns:xlink="http://www.w3.org/1999/xlink">
<g id="graph0" class="graph" transform="scale(1 1) rotate(0) translate(4 97)">
<title>NtcTemperatureHandler::StartContinuousMonitoring</title>
<!-- Node1 -->
<g id="Node000001" class="node">
<title>Node1</title>
<g id="a_Node000001"><a xlink:title=" ">
<polygon fill="#999999" stroke="#666666" points="153,-61.5 0,-61.5 0,-31.5 153,-31.5 153,-61.5"/>
<text text-anchor="start" x="8" y="-49.5" font-family="Helvetica,sans-Serif" font-size="10.00">NtcTemperatureHandler</text>
<text text-anchor="middle" x="76.5" y="-38.5" font-family="Helvetica,sans-Serif" font-size="10.00">::StartContinuousMonitoring</text>
</a>
</g>
</g>
<!-- Node2 -->
<g id="Node000002" class="node">
<title>Node2</title>
<g id="a_Node000002"><a xlink:href="classLogger.html#a5e4bcdaea60b9ac227b564d780388769" target="_top" xlink:title="Log error message.">
<polygon fill="white" stroke="#666666" points="285.5,-56 206.5,-56 206.5,-37 285.5,-37 285.5,-56"/>
<text text-anchor="middle" x="246" y="-44" font-family="Helvetica,sans-Serif" font-size="10.00">Logger::Error</text>
</a>
</g>
</g>
<!-- Node1&#45;&gt;Node2 -->
<g id="edge1_Node000001_Node000002" class="edge">
<title>Node1&#45;&gt;Node2</title>
<g id="a_edge1_Node000001_Node000002"><a xlink:title=" ">
<path fill="none" stroke="#63b8ff" d="M153.41,-46.5C167.89,-46.5 182.68,-46.5 196.04,-46.5"/>
<polygon fill="#63b8ff" stroke="#63b8ff" points="196.41,-50 206.41,-46.5 196.41,-43 196.41,-50"/>
</a>
</g>
</g>
<!-- Node5 -->
<g id="Node000005" class="node">
<title>Node5</title>
<g id="a_Node000005"><a xlink:href="classLogger.html#a5789d11f8f1356e2192c0023a089cbc4" target="_top" xlink:title="Get singleton instance.">
<polygon fill="white" stroke="#666666" points="303,-19 189,-19 189,0 303,0 303,-19"/>
<text text-anchor="middle" x="246" y="-7" font-family="Helvetica,sans-Serif" font-size="10.00">Logger::GetInstance</text>
</a>
</g>
</g>
<!-- Node1&#45;&gt;Node5 -->
<g id="edge4_Node000001_Node000005" class="edge">
<title>Node1&#45;&gt;Node5</title>
<g id="a_edge4_Node000001_Node000005"><a xlink:title=" ">
<path fill="none" stroke="#63b8ff" d="M145.63,-31.45C161.08,-28.04 177.27,-24.46 191.99,-21.21"/>
<polygon fill="#63b8ff" stroke="#63b8ff" points="192.91,-24.59 201.92,-19.02 191.4,-17.76 192.91,-24.59"/>
</a>
</g>
</g>
<!-- Node6 -->
<g id="Node000006" class="node">
<title>Node6</title>
<g id="a_Node000006"><a xlink:href="classLogger.html#a1c0c947d87884bca0395fd38d19d1102" target="_top" xlink:title="Log info message.">
<polygon fill="white" stroke="#666666" points="283,-93 209,-93 209,-74 283,-74 283,-93"/>
<text text-anchor="middle" x="246" y="-81" font-family="Helvetica,sans-Serif" font-size="10.00">Logger::Info</text>
</a>
</g>
</g>
<!-- Node1&#45;&gt;Node6 -->
<g id="edge5_Node000001_Node000006" class="edge">
<title>Node1&#45;&gt;Node6</title>
<g id="a_edge5_Node000001_Node000006"><a xlink:title=" ">
<path fill="none" stroke="#63b8ff" d="M145.63,-61.55C163.48,-65.49 182.31,-69.65 198.73,-73.28"/>
<polygon fill="#63b8ff" stroke="#63b8ff" points="198.08,-76.72 208.6,-75.46 199.59,-69.89 198.08,-76.72"/>
</a>
</g>
</g>
<!-- Node3 -->
<g id="Node000003" class="node">
<title>Node3</title>
<g id="a_Node000003"><a xlink:href="classLogger.html#a737b981213c02321a5235848334d7191" target="_top" xlink:title="Check if log level is enabled for tag.">
<polygon fill="white" stroke="#666666" points="468,-93 339,-93 339,-74 468,-74 468,-93"/>
<text text-anchor="middle" x="403.5" y="-81" font-family="Helvetica,sans-Serif" font-size="10.00">Logger::IsLevelEnabled</text>
</a>
</g>
</g>
<!-- Node2&#45;&gt;Node3 -->
<g id="edge2_Node000002_Node000003" class="edge">
<title>Node2&#45;&gt;Node3</title>
<g id="a_edge2_Node000002_Node000003"><a xlink:title=" ">
<path fill="none" stroke="#63b8ff" d="M285.84,-55.74C306.03,-60.55 330.94,-66.47 352.55,-71.61"/>
<polygon fill="#63b8ff" stroke="#63b8ff" points="352,-75.08 362.53,-73.99 353.62,-68.27 352,-75.08"/>
</a>
</g>
</g>
<!-- Node4 -->
<g id="Node000004" class="node">
<title>Node4</title>
<g id="a_Node000004"><a xlink:href="classLogger.html#aeede6ac18db92a47caede076ef188a13" target="_top" xlink:title="Internal logging method.">
<polygon fill="white" stroke="#666666" points="458.5,-56 348.5,-56 348.5,-37 458.5,-37 458.5,-56"/>
<text text-anchor="middle" x="403.5" y="-44" font-family="Helvetica,sans-Serif" font-size="10.00">Logger::LogInternal</text>
</a>
</g>
</g>
<!-- Node2&#45;&gt;Node4 -->
<g id="edge3_Node000002_Node000004" class="edge">
<title>Node2&#45;&gt;Node4</title>
<g id="a_edge3_Node000002_Node000004"><a xlink:title=" ">
<path fill="none" stroke="#63b8ff" d="M285.84,-46.5C301.63,-46.5 320.31,-46.5 338.03,-46.5"/>
<polygon fill="#63b8ff" stroke="#63b8ff" points="338.33,-50 348.33,-46.5 338.33,-43 338.33,-50"/>
</a>
</g>
</g>
<!-- Node6&#45;&gt;Node3 -->
<g id="edge6_Node000006_Node000003" class="edge">
<title>Node6&#45;&gt;Node3</title>
<g id="a_edge6_Node000006_Node000003"><a xlink:title=" ">
<path fill="none" stroke="#63b8ff" d="M283.07,-83.5C296.68,-83.5 312.72,-83.5 328.55,-83.5"/>
<polygon fill="#63b8ff" stroke="#63b8ff" points="328.89,-87 338.89,-83.5 328.89,-80 328.89,-87"/>
</a>
</g>
</g>
<!-- Node6&#45;&gt;Node4 -->
<g id="edge7_Node000006_Node000004" class="edge">
<title>Node6&#45;&gt;Node4</title>
<g id="a_edge7_Node000006_Node000004"><a xlink:title=" ">
<path fill="none" stroke="#63b8ff" d="M283.07,-74.92C303.78,-69.99 330.09,-63.73 352.74,-58.34"/>
<polygon fill="#63b8ff" stroke="#63b8ff" points="353.61,-61.73 362.53,-56.01 351.99,-54.92 353.61,-61.73"/>
</a>
</g>
</g>
</g>
</svg>
