<?xml version="1.0" encoding="UTF-8" standalone="no"?>
<!DOCTYPE svg PUBLIC "-//W3C//DTD SVG 1.1//EN"
 "http://www.w3.org/Graphics/SVG/1.1/DTD/svg11.dtd">
<!-- Generated by graphviz version 2.43.0 (0)
 -->
<!-- Title: Max22200Handler::ClearFaults Pages: 1 -->
<svg width="1330pt" height="203pt"
 viewBox="0.00 0.00 1330.00 203.50" xmlns="http://www.w3.org/2000/svg" xmlns:xlink="http://www.w3.org/1999/xlink">
<g id="graph0" class="graph" transform="scale(1 1) rotate(0) translate(4 199.5)">
<title>Max22200Handler::ClearFaults</title>
<!-- Node1 -->
<g id="Node000001" class="node">
<title>Node1</title>
<g id="a_Node000001"><a xlink:title="Clear all fault flags.">
<polygon fill="#999999" stroke="#666666" points="166,-93 0,-93 0,-74 166,-74 166,-93"/>
<text text-anchor="middle" x="83" y="-81" font-family="Helvetica,sans-Serif" font-size="10.00">Max22200Handler::ClearFaults</text>
</a>
</g>
</g>
<!-- Node2 -->
<g id="Node000002" class="node">
<title>Node2</title>
<g id="a_Node000002"><a xlink:href="classMax22200Handler.html#abcdd9746a0df9c28bb36508d52d80ef5" target="_top" xlink:title="Execute a lambda with a locked, initialized driver.">
<polygon fill="white" stroke="#666666" points="365,-93 202,-93 202,-74 365,-74 365,-93"/>
<text text-anchor="middle" x="283.5" y="-81" font-family="Helvetica,sans-Serif" font-size="10.00">Max22200Handler::withDriver</text>
</a>
</g>
</g>
<!-- Node1&#45;&gt;Node2 -->
<g id="edge1_Node000001_Node000002" class="edge">
<title>Node1&#45;&gt;Node2</title>
<g id="a_edge1_Node000001_Node000002"><a xlink:title=" ">
<path fill="none" stroke="#63b8ff" d="M166.17,-83.5C174.68,-83.5 183.36,-83.5 191.96,-83.5"/>
<polygon fill="#63b8ff" stroke="#63b8ff" points="191.99,-87 201.99,-83.5 191.99,-80 191.99,-87"/>
</a>
</g>
</g>
<!-- Node3 -->
<g id="Node000003" class="node">
<title>Node3</title>
<g id="a_Node000003"><a xlink:href="classMax22200Handler.html#aa00edacb247660349767fa4521121104" target="_top" xlink:title=" ">
<polygon fill="white" stroke="#666666" points="594,-98.5 401,-98.5 401,-68.5 594,-68.5 594,-98.5"/>
<text text-anchor="start" x="409" y="-86.5" font-family="Helvetica,sans-Serif" font-size="10.00">Max22200Handler::EnsureInitialized</text>
<text text-anchor="middle" x="497.5" y="-75.5" font-family="Helvetica,sans-Serif" font-size="10.00">Locked</text>
</a>
</g>
</g>
<!-- Node2&#45;&gt;Node3 -->
<g id="edge2_Node000002_Node000003" class="edge">
<title>Node2&#45;&gt;Node3</title>
<g id="a_edge2_Node000002_Node000003"><a xlink:title=" ">
<path fill="none" stroke="#63b8ff" d="M365.25,-83.5C373.58,-83.5 382.13,-83.5 390.67,-83.5"/>
<polygon fill="#63b8ff" stroke="#63b8ff" points="390.69,-87 400.69,-83.5 390.69,-80 390.69,-87"/>
</a>
</g>
</g>
<!-- Node4 -->
<g id="Node000004" class="node">
<title>Node4</title>
<g id="a_Node000004"><a xlink:href="classLogger.html#adce17848a5844e053bfd314863dc1404" target="_top" xlink:title="Log error message.">
<polygon fill="white" stroke="#666666" points="934,-19 855,-19 855,0 934,0 934,-19"/>
<text text-anchor="middle" x="894.5" y="-7" font-family="Helvetica,sans-Serif" font-size="10.00">Logger::Error</text>
</a>
</g>
</g>
<!-- Node3&#45;&gt;Node4 -->
<g id="edge3_Node000003_Node000004" class="edge">
<title>Node3&#45;&gt;Node4</title>
<g id="a_edge3_Node000003_Node000004"><a xlink:title=" ">
<path fill="none" stroke="#63b8ff" d="M578.91,-68.44C658.67,-53.49 778.3,-31.08 844.69,-18.64"/>
<polygon fill="#63b8ff" stroke="#63b8ff" points="845.69,-22.02 854.88,-16.74 844.4,-15.14 845.69,-22.02"/>
</a>
</g>
</g>
<!-- Node8 -->
<g id="Node000008" class="node">
<title>Node8</title>
<g id="a_Node000008"><a xlink:href="classLogger.html#a5789d11f8f1356e2192c0023a089cbc4" target="_top" xlink:title="Get singleton instance.">
<polygon fill="white" stroke="#666666" points="1126.5,-174 1012.5,-174 1012.5,-155 1126.5,-155 1126.5,-174"/>
<text text-anchor="middle" x="1069.5" y="-162" font-family="Helvetica,sans-Serif" font-size="10.00">Logger::GetInstance</text>
</a>
</g>
</g>
<!-- Node3&#45;&gt;Node8 -->
<g id="edge7_Node000003_Node000008" class="edge">
<title>Node3&#45;&gt;Node8</title>
<g id="a_edge7_Node000003_Node000008"><a xlink:title=" ">
<path fill="none" stroke="#63b8ff" d="M532.34,-98.51C590,-123.17 711.56,-171.24 820,-188.5 885.4,-198.91 903.24,-196.32 969,-188.5 988.32,-186.2 1009.32,-181.48 1027.03,-176.83"/>
<polygon fill="#63b8ff" stroke="#63b8ff" points="1028.3,-180.11 1037.03,-174.11 1026.46,-173.35 1028.3,-180.11"/>
</a>
</g>
</g>
<!-- Node9 -->
<g id="Node000009" class="node">
<title>Node9</title>
<g id="a_Node000009"><a xlink:href="classMax22200Handler.html#a0dce05cd6639a10e52c0f669b72baf52" target="_top" xlink:title="Initialize driver (ENABLE HIGH, read/clear STATUS, set ACTIVE).">
<polygon fill="white" stroke="#666666" points="784,-93 630,-93 630,-74 784,-74 784,-93"/>
<text text-anchor="middle" x="707" y="-81" font-family="Helvetica,sans-Serif" font-size="10.00">Max22200Handler::Initialize</text>
</a>
</g>
</g>
<!-- Node3&#45;&gt;Node9 -->
<g id="edge8_Node000003_Node000009" class="edge">
<title>Node3&#45;&gt;Node9</title>
<g id="a_edge8_Node000003_Node000009"><a xlink:title=" ">
<path fill="none" stroke="#63b8ff" d="M594.05,-83.5C602.6,-83.5 611.22,-83.5 619.68,-83.5"/>
<polygon fill="#63b8ff" stroke="#63b8ff" points="619.9,-87 629.9,-83.5 619.9,-80 619.9,-87"/>
</a>
</g>
</g>
<!-- Node5 -->
<g id="Node000005" class="node">
<title>Node5</title>
<g id="a_Node000005"><a xlink:href="classLogger.html#af9e84e0ff6bd538e4f9ed8dcebc3e2f0" target="_top" xlink:title="Check if log level is enabled for tag.">
<polygon fill="white" stroke="#666666" points="1134,-38 1005,-38 1005,-19 1134,-19 1134,-38"/>
<text text-anchor="middle" x="1069.5" y="-26" font-family="Helvetica,sans-Serif" font-size="10.00">Logger::IsLevelEnabled</text>
</a>
</g>
</g>
<!-- Node4&#45;&gt;Node5 -->
<g id="edge4_Node000004_Node000005" class="edge">
<title>Node4&#45;&gt;Node5</title>
<g id="a_edge4_Node000004_Node000005"><a xlink:title=" ">
<path fill="none" stroke="#63b8ff" d="M934.32,-13.76C952.13,-15.72 973.86,-18.11 994.6,-20.38"/>
<polygon fill="#63b8ff" stroke="#63b8ff" points="994.36,-23.88 1004.68,-21.49 995.12,-16.92 994.36,-23.88"/>
</a>
</g>
</g>
<!-- Node6 -->
<g id="Node000006" class="node">
<title>Node6</title>
<g id="a_Node000006"><a xlink:href="classLogger.html#a6adb205db597526fb91ad20067400394" target="_top" xlink:title="Internal logging method.">
<polygon fill="white" stroke="#666666" points="1124.5,-75 1014.5,-75 1014.5,-56 1124.5,-56 1124.5,-75"/>
<text text-anchor="middle" x="1069.5" y="-63" font-family="Helvetica,sans-Serif" font-size="10.00">Logger::LogInternal</text>
</a>
</g>
</g>
<!-- Node4&#45;&gt;Node6 -->
<g id="edge5_Node000004_Node000006" class="edge">
<title>Node4&#45;&gt;Node6</title>
<g id="a_edge5_Node000004_Node000006"><a xlink:title=" ">
<path fill="none" stroke="#63b8ff" d="M934.19,-17.1C945.58,-19.83 957.95,-23.3 969,-27.5 985.91,-33.92 988.25,-39.65 1005,-46.5 1010.53,-48.76 1016.42,-50.88 1022.31,-52.84"/>
<polygon fill="#63b8ff" stroke="#63b8ff" points="1021.55,-56.27 1032.14,-55.95 1023.67,-49.59 1021.55,-56.27"/>
</a>
</g>
</g>
<!-- Node7 -->
<g id="Node000007" class="node">
<title>Node7</title>
<g id="a_Node000007"><a xlink:href="namespaceanonymous__namespace_02Logger_8cpp_03.html#a9d2b496fa1b4f4e28667d14e4b8cb190" target="_top" xlink:title=" ">
<polygon fill="white" stroke="#666666" points="1322,-80.5 1170,-80.5 1170,-50.5 1322,-50.5 1322,-80.5"/>
<text text-anchor="start" x="1178" y="-68.5" font-family="Helvetica,sans-Serif" font-size="10.00">anonymous_namespace</text>
<text text-anchor="middle" x="1246" y="-57.5" font-family="Helvetica,sans-Serif" font-size="10.00">{Logger::cpp}::ToBaseLevel</text>
</a>
</g>
</g>
<!-- Node6&#45;&gt;Node7 -->
<g id="edge6_Node000006_Node000007" class="edge">
<title>Node6&#45;&gt;Node7</title>
<g id="a_edge6_Node000006_Node000007"><a xlink:title=" ">
<path fill="none" stroke="#63b8ff" d="M1124.76,-65.5C1135.93,-65.5 1147.96,-65.5 1159.93,-65.5"/>
<polygon fill="#63b8ff" stroke="#63b8ff" points="1159.95,-69 1169.95,-65.5 1159.95,-62 1159.95,-69"/>
</a>
</g>
</g>
<!-- Node9&#45;&gt;Node4 -->
<g id="edge9_Node000009_Node000004" class="edge">
<title>Node9&#45;&gt;Node4</title>
<g id="a_edge9_Node000009_Node000004"><a xlink:title=" ">
<path fill="none" stroke="#63b8ff" d="M724.18,-73.96C745.51,-61.72 784.49,-40.54 820,-27.5 827.98,-24.57 836.62,-21.97 845.07,-19.73"/>
<polygon fill="#63b8ff" stroke="#63b8ff" points="846.03,-23.09 854.87,-17.25 844.31,-16.31 846.03,-23.09"/>
</a>
</g>
</g>
<!-- Node9&#45;&gt;Node8 -->
<g id="edge10_Node000009_Node000008" class="edge">
<title>Node9&#45;&gt;Node8</title>
<g id="a_edge10_Node000009_Node000008"><a xlink:title=" ">
<path fill="none" stroke="#63b8ff" d="M753.33,-93.09C805.44,-104.18 893.51,-123.16 969,-140.5 985.64,-144.32 1003.8,-148.66 1020,-152.58"/>
<polygon fill="#63b8ff" stroke="#63b8ff" points="1019.26,-156 1029.8,-154.96 1020.91,-149.2 1019.26,-156"/>
</a>
</g>
</g>
<!-- Node10 -->
<g id="Node000010" class="node">
<title>Node10</title>
<g id="a_Node000010"><a xlink:href="classLogger.html#a4681229c521795685fc14f6b55c82300" target="_top" xlink:title="Log info message.">
<polygon fill="white" stroke="#666666" points="931.5,-93 857.5,-93 857.5,-74 931.5,-74 931.5,-93"/>
<text text-anchor="middle" x="894.5" y="-81" font-family="Helvetica,sans-Serif" font-size="10.00">Logger::Info</text>
</a>
</g>
</g>
<!-- Node9&#45;&gt;Node10 -->
<g id="edge11_Node000009_Node000010" class="edge">
<title>Node9&#45;&gt;Node10</title>
<g id="a_edge11_Node000009_Node000010"><a xlink:title=" ">
<path fill="none" stroke="#63b8ff" d="M784.25,-83.5C805.5,-83.5 827.94,-83.5 846.92,-83.5"/>
<polygon fill="#63b8ff" stroke="#63b8ff" points="847.08,-87 857.08,-83.5 847.08,-80 847.08,-87"/>
</a>
</g>
</g>
<!-- Node11 -->
<g id="Node000011" class="node">
<title>Node11</title>
<g id="a_Node000011"><a xlink:href="classMax22200Handler.html#a46a1ed5c96b117192f0cae05c4f9627b" target="_top" xlink:title="Bring the chip from POR through to a verified ACTIVE=1, UVM=0 state, then drain POR&#45;latched fault bit...">
<polygon fill="white" stroke="#666666" points="969,-179.5 820,-179.5 820,-149.5 969,-149.5 969,-179.5"/>
<text text-anchor="start" x="828" y="-167.5" font-family="Helvetica,sans-Serif" font-size="10.00">Max22200Handler::WaitFor</text>
<text text-anchor="middle" x="894.5" y="-156.5" font-family="Helvetica,sans-Serif" font-size="10.00">ActiveAndDrainFaults</text>
</a>
</g>
</g>
<!-- Node9&#45;&gt;Node11 -->
<g id="edge14_Node000009_Node000011" class="edge">
<title>Node9&#45;&gt;Node11</title>
<g id="a_edge14_Node000009_Node000011"><a xlink:title=" ">
<path fill="none" stroke="#63b8ff" d="M727.67,-93.06C749.91,-103.77 787.3,-121.47 820,-135.5 827.88,-138.88 836.3,-142.34 844.52,-145.64"/>
<polygon fill="#63b8ff" stroke="#63b8ff" points="843.45,-148.98 854.04,-149.42 846.04,-142.48 843.45,-148.98"/>
</a>
</g>
</g>
<!-- Node12 -->
<g id="Node000012" class="node">
<title>Node12</title>
<g id="a_Node000012"><a xlink:href="classLogger.html#aaa95ffa14d07a965d4a85bdec82cba26" target="_top" xlink:title="Log warning message.">
<polygon fill="white" stroke="#666666" points="934.5,-56 854.5,-56 854.5,-37 934.5,-37 934.5,-56"/>
<text text-anchor="middle" x="894.5" y="-44" font-family="Helvetica,sans-Serif" font-size="10.00">Logger::Warn</text>
</a>
</g>
</g>
<!-- Node9&#45;&gt;Node12 -->
<g id="edge16_Node000009_Node000012" class="edge">
<title>Node9&#45;&gt;Node12</title>
<g id="a_edge16_Node000009_Node000012"><a xlink:title=" ">
<path fill="none" stroke="#63b8ff" d="M755.77,-73.97C782.9,-68.56 816.8,-61.8 844.18,-56.34"/>
<polygon fill="#63b8ff" stroke="#63b8ff" points="845.21,-59.7 854.33,-54.31 843.84,-52.84 845.21,-59.7"/>
</a>
</g>
</g>
<!-- Node10&#45;&gt;Node5 -->
<g id="edge12_Node000010_Node000005" class="edge">
<title>Node10&#45;&gt;Node5</title>
<g id="a_edge12_Node000010_Node000005"><a xlink:title=" ">
<path fill="none" stroke="#63b8ff" d="M931.86,-75.71C943.85,-72.72 957.15,-68.94 969,-64.5 985.75,-58.23 988.32,-52.97 1005,-46.5 1010.07,-44.53 1015.45,-42.67 1020.85,-40.95"/>
<polygon fill="#63b8ff" stroke="#63b8ff" points="1021.96,-44.27 1030.51,-38.01 1019.92,-37.58 1021.96,-44.27"/>
</a>
</g>
</g>
<!-- Node10&#45;&gt;Node6 -->
<g id="edge13_Node000010_Node000006" class="edge">
<title>Node10&#45;&gt;Node6</title>
<g id="a_edge13_Node000010_Node000006"><a xlink:title=" ">
<path fill="none" stroke="#63b8ff" d="M931.77,-79.73C952.75,-77.54 979.78,-74.73 1004.25,-72.18"/>
<polygon fill="#63b8ff" stroke="#63b8ff" points="1004.62,-75.67 1014.2,-71.15 1003.89,-68.7 1004.62,-75.67"/>
</a>
</g>
</g>
<!-- Node11&#45;&gt;Node8 -->
<g id="edge15_Node000011_Node000008" class="edge">
<title>Node11&#45;&gt;Node8</title>
<g id="a_edge15_Node000011_Node000008"><a xlink:title=" ">
<path fill="none" stroke="#63b8ff" d="M969.12,-164.5C980.06,-164.5 991.28,-164.5 1002.07,-164.5"/>
<polygon fill="#63b8ff" stroke="#63b8ff" points="1002.25,-168 1012.25,-164.5 1002.25,-161 1002.25,-168"/>
</a>
</g>
</g>
<!-- Node12&#45;&gt;Node5 -->
<g id="edge17_Node000012_Node000005" class="edge">
<title>Node12&#45;&gt;Node5</title>
<g id="a_edge17_Node000012_Node000005"><a xlink:title=" ">
<path fill="none" stroke="#63b8ff" d="M934.76,-42.42C952.58,-40.56 974.26,-38.31 994.93,-36.16"/>
<polygon fill="#63b8ff" stroke="#63b8ff" points="995.39,-39.63 1004.97,-35.11 994.66,-32.66 995.39,-39.63"/>
</a>
</g>
</g>
<!-- Node12&#45;&gt;Node6 -->
<g id="edge18_Node000012_Node000006" class="edge">
<title>Node12&#45;&gt;Node6</title>
<g id="a_edge18_Node000012_Node000006"><a xlink:title=" ">
<path fill="none" stroke="#63b8ff" d="M934.76,-50.81C955.25,-53.06 980.85,-55.87 1004.15,-58.43"/>
<polygon fill="#63b8ff" stroke="#63b8ff" points="1004,-61.94 1014.32,-59.55 1004.76,-54.98 1004,-61.94"/>
</a>
</g>
</g>
</g>
</svg>
