<?xml version="1.0" encoding="UTF-8" standalone="no"?>
<!DOCTYPE svg PUBLIC "-//W3C//DTD SVG 1.1//EN"
 "http://www.w3.org/Graphics/SVG/1.1/DTD/svg11.dtd">
<!-- Generated by graphviz version 2.43.0 (0)
 -->
<!-- Title: Max22200Handler::EnableAllChannels Pages: 1 -->
<svg width="1322pt" height="203pt"
 viewBox="0.00 0.00 1322.00 203.50" xmlns="http://www.w3.org/2000/svg" xmlns:xlink="http://www.w3.org/1999/xlink">
<g id="graph0" class="graph" transform="scale(1 1) rotate(0) translate(4 199.5)">
<title>Max22200Handler::EnableAllChannels</title>
<!-- Node1 -->
<g id="Node000001" class="node">
<title>Node1</title>
<g id="a_Node000001"><a xlink:title="Enable all channels.">
<polygon fill="#999999" stroke="#666666" points="158,-98.5 0,-98.5 0,-68.5 158,-68.5 158,-98.5"/>
<text text-anchor="start" x="8" y="-86.5" font-family="Helvetica,sans-Serif" font-size="10.00">Max22200Handler::EnableAll</text>
<text text-anchor="middle" x="79" y="-75.5" font-family="Helvetica,sans-Serif" font-size="10.00">Channels</text>
</a>
</g>
</g>
<!-- Node2 -->
<g id="Node000002" class="node">
<title>Node2</title>
<g id="a_Node000002"><a xlink:href="classMax22200Handler.html#abcdd9746a0df9c28bb36508d52d80ef5" target="_top" xlink:title="Execute a lambda with a locked, initialized driver.">
<polygon fill="white" stroke="#666666" points="357,-93 194,-93 194,-74 357,-74 357,-93"/>
<text text-anchor="middle" x="275.5" y="-81" font-family="Helvetica,sans-Serif" font-size="10.00">Max22200Handler::withDriver</text>
</a>
</g>
</g>
<!-- Node1&#45;&gt;Node2 -->
<g id="edge1_Node000001_Node000002" class="edge">
<title>Node1&#45;&gt;Node2</title>
<g id="a_edge1_Node000001_Node000002"><a xlink:title=" ">
<path fill="none" stroke="#63b8ff" d="M158.27,-83.5C166.6,-83.5 175.12,-83.5 183.58,-83.5"/>
<polygon fill="#63b8ff" stroke="#63b8ff" points="183.85,-87 193.85,-83.5 183.85,-80 183.85,-87"/>
</a>
</g>
</g>
<!-- Node3 -->
<g id="Node000003" class="node">
<title>Node3</title>
<g id="a_Node000003"><a xlink:href="classMax22200Handler.html#aa00edacb247660349767fa4521121104" target="_top" xlink:title=" ">
<polygon fill="white" stroke="#666666" points="586,-98.5 393,-98.5 393,-68.5 586,-68.5 586,-98.5"/>
<text text-anchor="start" x="401" y="-86.5" font-family="Helvetica,sans-Serif" font-size="10.00">Max22200Handler::EnsureInitialized</text>
<text text-anchor="middle" x="489.5" y="-75.5" font-family="Helvetica,sans-Serif" font-size="10.00">Locked</text>
</a>
</g>
</g>
<!-- Node2&#45;&gt;Node3 -->
<g id="edge2_Node000002_Node000003" class="edge">
<title>Node2&#45;&gt;Node3</title>
<g id="a_edge2_Node000002_Node000003"><a xlink:title=" ">
<path fill="none" stroke="#63b8ff" d="M357.25,-83.5C365.58,-83.5 374.13,-83.5 382.67,-83.5"/>
<polygon fill="#63b8ff" stroke="#63b8ff" points="382.69,-87 392.69,-83.5 382.69,-80 382.69,-87"/>
</a>
</g>
</g>
<!-- Node4 -->
<g id="Node000004" class="node">
<title>Node4</title>
<g id="a_Node000004"><a xlink:href="classLogger.html#adce17848a5844e053bfd314863dc1404" target="_top" xlink:title="Log error message.">
<polygon fill="white" stroke="#666666" points="926,-19 847,-19 847,0 926,0 926,-19"/>
<text text-anchor="middle" x="886.5" y="-7" font-family="Helvetica,sans-Serif" font-size="10.00">Logger::Error</text>
</a>
</g>
</g>
<!-- Node3&#45;&gt;Node4 -->
<g id="edge3_Node000003_Node000004" class="edge">
<title>Node3&#45;&gt;Node4</title>
<g id="a_edge3_Node000003_Node000004"><a xlink:title=" ">
<path fill="none" stroke="#63b8ff" d="M570.91,-68.44C650.67,-53.49 770.3,-31.08 836.69,-18.64"/>
<polygon fill="#63b8ff" stroke="#63b8ff" points="837.69,-22.02 846.88,-16.74 836.4,-15.14 837.69,-22.02"/>
</a>
</g>
</g>
<!-- Node8 -->
<g id="Node000008" class="node">
<title>Node8</title>
<g id="a_Node000008"><a xlink:href="classLogger.html#a5789d11f8f1356e2192c0023a089cbc4" target="_top" xlink:title="Get singleton instance.">
<polygon fill="white" stroke="#666666" points="1118.5,-174 1004.5,-174 1004.5,-155 1118.5,-155 1118.5,-174"/>
<text text-anchor="middle" x="1061.5" y="-162" font-family="Helvetica,sans-Serif" font-size="10.00">Logger::GetInstance</text>
</a>
</g>
</g>
<!-- Node3&#45;&gt;Node8 -->
<g id="edge7_Node000003_Node000008" class="edge">
<title>Node3&#45;&gt;Node8</title>
<g id="a_edge7_Node000003_Node000008"><a xlink:title=" ">
<path fill="none" stroke="#63b8ff" d="M524.34,-98.51C582,-123.17 703.56,-171.24 812,-188.5 877.4,-198.91 895.24,-196.32 961,-188.5 980.32,-186.2 1001.32,-181.48 1019.03,-176.83"/>
<polygon fill="#63b8ff" stroke="#63b8ff" points="1020.3,-180.11 1029.03,-174.11 1018.46,-173.35 1020.3,-180.11"/>
</a>
</g>
</g>
<!-- Node9 -->
<g id="Node000009" class="node">
<title>Node9</title>
<g id="a_Node000009"><a xlink:href="classMax22200Handler.html#a0dce05cd6639a10e52c0f669b72baf52" target="_top" xlink:title="Initialize driver (ENABLE HIGH, read/clear STATUS, set ACTIVE).">
<polygon fill="white" stroke="#666666" points="776,-93 622,-93 622,-74 776,-74 776,-93"/>
<text text-anchor="middle" x="699" y="-81" font-family="Helvetica,sans-Serif" font-size="10.00">Max22200Handler::Initialize</text>
</a>
</g>
</g>
<!-- Node3&#45;&gt;Node9 -->
<g id="edge8_Node000003_Node000009" class="edge">
<title>Node3&#45;&gt;Node9</title>
<g id="a_edge8_Node000003_Node000009"><a xlink:title=" ">
<path fill="none" stroke="#63b8ff" d="M586.05,-83.5C594.6,-83.5 603.22,-83.5 611.68,-83.5"/>
<polygon fill="#63b8ff" stroke="#63b8ff" points="611.9,-87 621.9,-83.5 611.9,-80 611.9,-87"/>
</a>
</g>
</g>
<!-- Node5 -->
<g id="Node000005" class="node">
<title>Node5</title>
<g id="a_Node000005"><a xlink:href="classLogger.html#af9e84e0ff6bd538e4f9ed8dcebc3e2f0" target="_top" xlink:title="Check if log level is enabled for tag.">
<polygon fill="white" stroke="#666666" points="1126,-38 997,-38 997,-19 1126,-19 1126,-38"/>
<text text-anchor="middle" x="1061.5" y="-26" font-family="Helvetica,sans-Serif" font-size="10.00">Logger::IsLevelEnabled</text>
</a>
</g>
</g>
<!-- Node4&#45;&gt;Node5 -->
<g id="edge4_Node000004_Node000005" class="edge">
<title>Node4&#45;&gt;Node5</title>
<g id="a_edge4_Node000004_Node000005"><a xlink:title=" ">
<path fill="none" stroke="#63b8ff" d="M926.32,-13.76C944.13,-15.72 965.86,-18.11 986.6,-20.38"/>
<polygon fill="#63b8ff" stroke="#63b8ff" points="986.36,-23.88 996.68,-21.49 987.12,-16.92 986.36,-23.88"/>
</a>
</g>
</g>
<!-- Node6 -->
<g id="Node000006" class="node">
<title>Node6</title>
<g id="a_Node000006"><a xlink:href="classLogger.html#a6adb205db597526fb91ad20067400394" target="_top" xlink:title="Internal logging method.">
<polygon fill="white" stroke="#666666" points="1116.5,-75 1006.5,-75 1006.5,-56 1116.5,-56 1116.5,-75"/>
<text text-anchor="middle" x="1061.5" y="-63" font-family="Helvetica,sans-Serif" font-size="10.00">Logger::LogInternal</text>
</a>
</g>
</g>
<!-- Node4&#45;&gt;Node6 -->
<g id="edge5_Node000004_Node000006" class="edge">
<title>Node4&#45;&gt;Node6</title>
<g id="a_edge5_Node000004_Node000006"><a xlink:title=" ">
<path fill="none" stroke="#63b8ff" d="M926.19,-17.1C937.58,-19.83 949.95,-23.3 961,-27.5 977.91,-33.92 980.25,-39.65 997,-46.5 1002.53,-48.76 1008.42,-50.88 1014.31,-52.84"/>
<polygon fill="#63b8ff" stroke="#63b8ff" points="1013.55,-56.27 1024.14,-55.95 1015.67,-49.59 1013.55,-56.27"/>
</a>
</g>
</g>
<!-- Node7 -->
<g id="Node000007" class="node">
<title>Node7</title>
<g id="a_Node000007"><a xlink:href="namespaceanonymous__namespace_02Logger_8cpp_03.html#a9d2b496fa1b4f4e28667d14e4b8cb190" target="_top" xlink:title=" ">
<polygon fill="white" stroke="#666666" points="1314,-80.5 1162,-80.5 1162,-50.5 1314,-50.5 1314,-80.5"/>
<text text-anchor="start" x="1170" y="-68.5" font-family="Helvetica,sans-Serif" font-size="10.00">anonymous_namespace</text>
<text text-anchor="middle" x="1238" y="-57.5" font-family="Helvetica,sans-Serif" font-size="10.00">{Logger::cpp}::ToBaseLevel</text>
</a>
</g>
</g>
<!-- Node6&#45;&gt;Node7 -->
<g id="edge6_Node000006_Node000007" class="edge">
<title>Node6&#45;&gt;Node7</title>
<g id="a_edge6_Node000006_Node000007"><a xlink:title=" ">
<path fill="none" stroke="#63b8ff" d="M1116.76,-65.5C1127.93,-65.5 1139.96,-65.5 1151.93,-65.5"/>
<polygon fill="#63b8ff" stroke="#63b8ff" points="1151.95,-69 1161.95,-65.5 1151.95,-62 1151.95,-69"/>
</a>
</g>
</g>
<!-- Node9&#45;&gt;Node4 -->
<g id="edge9_Node000009_Node000004" class="edge">
<title>Node9&#45;&gt;Node4</title>
<g id="a_edge9_Node000009_Node000004"><a xlink:title=" ">
<path fill="none" stroke="#63b8ff" d="M716.18,-73.96C737.51,-61.72 776.49,-40.54 812,-27.5 819.98,-24.57 828.62,-21.97 837.07,-19.73"/>
<polygon fill="#63b8ff" stroke="#63b8ff" points="838.03,-23.09 846.87,-17.25 836.31,-16.31 838.03,-23.09"/>
</a>
</g>
</g>
<!-- Node9&#45;&gt;Node8 -->
<g id="edge10_Node000009_Node000008" class="edge">
<title>Node9&#45;&gt;Node8</title>
<g id="a_edge10_Node000009_Node000008"><a xlink:title=" ">
<path fill="none" stroke="#63b8ff" d="M745.33,-93.09C797.44,-104.18 885.51,-123.16 961,-140.5 977.64,-144.32 995.8,-148.66 1012,-152.58"/>
<polygon fill="#63b8ff" stroke="#63b8ff" points="1011.26,-156 1021.8,-154.96 1012.91,-149.2 1011.26,-156"/>
</a>
</g>
</g>
<!-- Node10 -->
<g id="Node000010" class="node">
<title>Node10</title>
<g id="a_Node000010"><a xlink:href="classLogger.html#a4681229c521795685fc14f6b55c82300" target="_top" xlink:title="Log info message.">
<polygon fill="white" stroke="#666666" points="923.5,-93 849.5,-93 849.5,-74 923.5,-74 923.5,-93"/>
<text text-anchor="middle" x="886.5" y="-81" font-family="Helvetica,sans-Serif" font-size="10.00">Logger::Info</text>
</a>
</g>
</g>
<!-- Node9&#45;&gt;Node10 -->
<g id="edge11_Node000009_Node000010" class="edge">
<title>Node9&#45;&gt;Node10</title>
<g id="a_edge11_Node000009_Node000010"><a xlink:title=" ">
<path fill="none" stroke="#63b8ff" d="M776.25,-83.5C797.5,-83.5 819.94,-83.5 838.92,-83.5"/>
<polygon fill="#63b8ff" stroke="#63b8ff" points="839.08,-87 849.08,-83.5 839.08,-80 839.08,-87"/>
</a>
</g>
</g>
<!-- Node11 -->
<g id="Node000011" class="node">
<title>Node11</title>
<g id="a_Node000011"><a xlink:href="classMax22200Handler.html#a46a1ed5c96b117192f0cae05c4f9627b" target="_top" xlink:title="Bring the chip from POR through to a verified ACTIVE=1, UVM=0 state, then drain POR&#45;latched fault bit...">
<polygon fill="white" stroke="#666666" points="961,-179.5 812,-179.5 812,-149.5 961,-149.5 961,-179.5"/>
<text text-anchor="start" x="820" y="-167.5" font-family="Helvetica,sans-Serif" font-size="10.00">Max22200Handler::WaitFor</text>
<text text-anchor="middle" x="886.5" y="-156.5" font-family="Helvetica,sans-Serif" font-size="10.00">ActiveAndDrainFaults</text>
</a>
</g>
</g>
<!-- Node9&#45;&gt;Node11 -->
<g id="edge14_Node000009_Node000011" class="edge">
<title>Node9&#45;&gt;Node11</title>
<g id="a_edge14_Node000009_Node000011"><a xlink:title=" ">
<path fill="none" stroke="#63b8ff" d="M719.67,-93.06C741.91,-103.77 779.3,-121.47 812,-135.5 819.88,-138.88 828.3,-142.34 836.52,-145.64"/>
<polygon fill="#63b8ff" stroke="#63b8ff" points="835.45,-148.98 846.04,-149.42 838.04,-142.48 835.45,-148.98"/>
</a>
</g>
</g>
<!-- Node12 -->
<g id="Node000012" class="node">
<title>Node12</title>
<g id="a_Node000012"><a xlink:href="classLogger.html#aaa95ffa14d07a965d4a85bdec82cba26" target="_top" xlink:title="Log warning message.">
<polygon fill="white" stroke="#666666" points="926.5,-56 846.5,-56 846.5,-37 926.5,-37 926.5,-56"/>
<text text-anchor="middle" x="886.5" y="-44" font-family="Helvetica,sans-Serif" font-size="10.00">Logger::Warn</text>
</a>
</g>
</g>
<!-- Node9&#45;&gt;Node12 -->
<g id="edge16_Node000009_Node000012" class="edge">
<title>Node9&#45;&gt;Node12</title>
<g id="a_edge16_Node000009_Node000012"><a xlink:title=" ">
<path fill="none" stroke="#63b8ff" d="M747.77,-73.97C774.9,-68.56 808.8,-61.8 836.18,-56.34"/>
<polygon fill="#63b8ff" stroke="#63b8ff" points="837.21,-59.7 846.33,-54.31 835.84,-52.84 837.21,-59.7"/>
</a>
</g>
</g>
<!-- Node10&#45;&gt;Node5 -->
<g id="edge12_Node000010_Node000005" class="edge">
<title>Node10&#45;&gt;Node5</title>
<g id="a_edge12_Node000010_Node000005"><a xlink:title=" ">
<path fill="none" stroke="#63b8ff" d="M923.86,-75.71C935.85,-72.72 949.15,-68.94 961,-64.5 977.75,-58.23 980.32,-52.97 997,-46.5 1002.07,-44.53 1007.45,-42.67 1012.85,-40.95"/>
<polygon fill="#63b8ff" stroke="#63b8ff" points="1013.96,-44.27 1022.51,-38.01 1011.92,-37.58 1013.96,-44.27"/>
</a>
</g>
</g>
<!-- Node10&#45;&gt;Node6 -->
<g id="edge13_Node000010_Node000006" class="edge">
<title>Node10&#45;&gt;Node6</title>
<g id="a_edge13_Node000010_Node000006"><a xlink:title=" ">
<path fill="none" stroke="#63b8ff" d="M923.77,-79.73C944.75,-77.54 971.78,-74.73 996.25,-72.18"/>
<polygon fill="#63b8ff" stroke="#63b8ff" points="996.62,-75.67 1006.2,-71.15 995.89,-68.7 996.62,-75.67"/>
</a>
</g>
</g>
<!-- Node11&#45;&gt;Node8 -->
<g id="edge15_Node000011_Node000008" class="edge">
<title>Node11&#45;&gt;Node8</title>
<g id="a_edge15_Node000011_Node000008"><a xlink:title=" ">
<path fill="none" stroke="#63b8ff" d="M961.12,-164.5C972.06,-164.5 983.28,-164.5 994.07,-164.5"/>
<polygon fill="#63b8ff" stroke="#63b8ff" points="994.25,-168 1004.25,-164.5 994.25,-161 994.25,-168"/>
</a>
</g>
</g>
<!-- Node12&#45;&gt;Node5 -->
<g id="edge17_Node000012_Node000005" class="edge">
<title>Node12&#45;&gt;Node5</title>
<g id="a_edge17_Node000012_Node000005"><a xlink:title=" ">
<path fill="none" stroke="#63b8ff" d="M926.76,-42.42C944.58,-40.56 966.26,-38.31 986.93,-36.16"/>
<polygon fill="#63b8ff" stroke="#63b8ff" points="987.39,-39.63 996.97,-35.11 986.66,-32.66 987.39,-39.63"/>
</a>
</g>
</g>
<!-- Node12&#45;&gt;Node6 -->
<g id="edge18_Node000012_Node000006" class="edge">
<title>Node12&#45;&gt;Node6</title>
<g id="a_edge18_Node000012_Node000006"><a xlink:title=" ">
<path fill="none" stroke="#63b8ff" d="M926.76,-50.81C947.25,-53.06 972.85,-55.87 996.15,-58.43"/>
<polygon fill="#63b8ff" stroke="#63b8ff" points="996,-61.94 1006.32,-59.55 996.76,-54.98 996,-61.94"/>
</a>
</g>
</g>
</g>
</svg>
