<?xml version="1.0" encoding="UTF-8" standalone="no"?>
<!DOCTYPE svg PUBLIC "-//W3C//DTD SVG 1.1//EN"
 "http://www.w3.org/Graphics/SVG/1.1/DTD/svg11.dtd">
<!-- Generated by graphviz version 2.43.0 (0)
 -->
<!-- Title: Tmc9660Handler::EnsureInitialized Pages: 1 -->
<svg width="747pt" height="205pt"
 viewBox="0.00 0.00 747.00 205.00" xmlns="http://www.w3.org/2000/svg" xmlns:xlink="http://www.w3.org/1999/xlink">
<g id="graph0" class="graph" transform="scale(1 1) rotate(0) translate(4 201)">
<title>Tmc9660Handler::EnsureInitialized</title>
<!-- Node1 -->
<g id="Node000001" class="node">
<title>Node1</title>
<g id="a_Node000001"><a xlink:title="Ensure driver is initialized (lazy init entrypoint).">
<polygon fill="#999999" stroke="#666666" points="187,-80 0,-80 0,-61 187,-61 187,-80"/>
<text text-anchor="middle" x="93.5" y="-68" font-family="Helvetica,sans-Serif" font-size="10.00">Tmc9660Handler::EnsureInitialized</text>
</a>
</g>
</g>
<!-- Node2 -->
<g id="Node000002" class="node">
<title>Node2</title>
<g id="a_Node000002"><a xlink:href="classTmc9660Handler.html#adc564847f8ae26c47412aaee0758991c" target="_top" xlink:title="Initialize the TMC9660 device.">
<polygon fill="white" stroke="#666666" points="371,-120 223,-120 223,-101 371,-101 371,-120"/>
<text text-anchor="middle" x="297" y="-108" font-family="Helvetica,sans-Serif" font-size="10.00">Tmc9660Handler::Initialize</text>
</a>
</g>
</g>
<!-- Node1&#45;&gt;Node2 -->
<g id="edge1_Node000001_Node000002" class="edge">
<title>Node1&#45;&gt;Node2</title>
<g id="a_edge1_Node000001_Node000002"><a xlink:title=" ">
<path fill="none" stroke="#63b8ff" d="M142.51,-80.03C171.16,-85.72 207.75,-92.98 238.01,-98.99"/>
<polygon fill="#63b8ff" stroke="#63b8ff" points="237.52,-102.46 248.01,-100.97 238.88,-95.59 237.52,-102.46"/>
</a>
</g>
</g>
<!-- Node8 -->
<g id="Node000008" class="node">
<title>Node8</title>
<g id="a_Node000008"><a xlink:href="classTmc9660Handler.html#a13db97d201a287d8aa60384e04070b9f" target="_top" xlink:title="Check if the TMC9660 driver has been initialized and is ready.">
<polygon fill="white" stroke="#666666" points="562.5,-85.5 418.5,-85.5 418.5,-55.5 562.5,-55.5 562.5,-85.5"/>
<text text-anchor="start" x="426.5" y="-73.5" font-family="Helvetica,sans-Serif" font-size="10.00">Tmc9660Handler::IsDriver</text>
<text text-anchor="middle" x="490.5" y="-62.5" font-family="Helvetica,sans-Serif" font-size="10.00">Ready</text>
</a>
</g>
</g>
<!-- Node1&#45;&gt;Node8 -->
<g id="edge13_Node000001_Node000008" class="edge">
<title>Node1&#45;&gt;Node8</title>
<g id="a_edge13_Node000001_Node000008"><a xlink:title=" ">
<path fill="none" stroke="#63b8ff" d="M187.11,-70.5C254.21,-70.5 344.06,-70.5 408.35,-70.5"/>
<polygon fill="#63b8ff" stroke="#63b8ff" points="408.44,-74 418.44,-70.5 408.44,-67 408.44,-74"/>
</a>
</g>
</g>
<!-- Node3 -->
<g id="Node000003" class="node">
<title>Node3</title>
<g id="a_Node000003"><a xlink:href="classLogger.html#adce17848a5844e053bfd314863dc1404" target="_top" xlink:title="Log error message.">
<polygon fill="white" stroke="#666666" points="530,-160 451,-160 451,-141 530,-141 530,-160"/>
<text text-anchor="middle" x="490.5" y="-148" font-family="Helvetica,sans-Serif" font-size="10.00">Logger::Error</text>
</a>
</g>
</g>
<!-- Node2&#45;&gt;Node3 -->
<g id="edge2_Node000002_Node000003" class="edge">
<title>Node2&#45;&gt;Node3</title>
<g id="a_edge2_Node000002_Node000003"><a xlink:title=" ">
<path fill="none" stroke="#63b8ff" d="M343.87,-120.08C373.07,-126.18 410.85,-134.07 440.62,-140.29"/>
<polygon fill="#63b8ff" stroke="#63b8ff" points="440.28,-143.79 450.79,-142.41 441.71,-136.94 440.28,-143.79"/>
</a>
</g>
</g>
<!-- Node6 -->
<g id="Node000006" class="node">
<title>Node6</title>
<g id="a_Node000006"><a xlink:href="classLogger.html#a5789d11f8f1356e2192c0023a089cbc4" target="_top" xlink:title="Get singleton instance.">
<polygon fill="white" stroke="#666666" points="547.5,-123 433.5,-123 433.5,-104 547.5,-104 547.5,-123"/>
<text text-anchor="middle" x="490.5" y="-111" font-family="Helvetica,sans-Serif" font-size="10.00">Logger::GetInstance</text>
</a>
</g>
</g>
<!-- Node2&#45;&gt;Node6 -->
<g id="edge5_Node000002_Node000006" class="edge">
<title>Node2&#45;&gt;Node6</title>
<g id="a_edge5_Node000002_Node000006"><a xlink:title=" ">
<path fill="none" stroke="#63b8ff" d="M371.22,-111.65C388.27,-111.91 406.33,-112.2 423.07,-112.46"/>
<polygon fill="#63b8ff" stroke="#63b8ff" points="423.25,-115.96 433.3,-112.62 423.35,-108.96 423.25,-115.96"/>
</a>
</g>
</g>
<!-- Node7 -->
<g id="Node000007" class="node">
<title>Node7</title>
<g id="a_Node000007"><a xlink:href="classLogger.html#a4681229c521795685fc14f6b55c82300" target="_top" xlink:title="Log info message.">
<polygon fill="white" stroke="#666666" points="527.5,-197 453.5,-197 453.5,-178 527.5,-178 527.5,-197"/>
<text text-anchor="middle" x="490.5" y="-185" font-family="Helvetica,sans-Serif" font-size="10.00">Logger::Info</text>
</a>
</g>
</g>
<!-- Node2&#45;&gt;Node7 -->
<g id="edge6_Node000002_Node000007" class="edge">
<title>Node2&#45;&gt;Node7</title>
<g id="a_edge6_Node000002_Node000007"><a xlink:title=" ">
<path fill="none" stroke="#63b8ff" d="M312.53,-120.1C332.86,-133.11 371.29,-156.24 407,-169.5 418.49,-173.77 431.27,-177.16 443.28,-179.81"/>
<polygon fill="#63b8ff" stroke="#63b8ff" points="442.63,-183.25 453.13,-181.85 444.05,-176.39 442.63,-183.25"/>
</a>
</g>
</g>
<!-- Node2&#45;&gt;Node8 -->
<g id="edge9_Node000002_Node000008" class="edge">
<title>Node2&#45;&gt;Node8</title>
<g id="a_edge9_Node000002_Node000008"><a xlink:title=" ">
<path fill="none" stroke="#63b8ff" d="M343.87,-100.92C363.16,-96.89 386.19,-92.08 408.18,-87.49"/>
<polygon fill="#63b8ff" stroke="#63b8ff" points="409.12,-90.86 418.2,-85.39 407.69,-84.01 409.12,-90.86"/>
</a>
</g>
</g>
<!-- Node9 -->
<g id="Node000009" class="node">
<title>Node9</title>
<g id="a_Node000009"><a xlink:href="classTmc9660Handler.html#a393382194d0602e7aa02da6a8fd7a20a" target="_top" xlink:title="Get a reference to the Temperature wrapper.">
<polygon fill="white" stroke="#666666" points="574,-19 407,-19 407,0 574,0 574,-19"/>
<text text-anchor="middle" x="490.5" y="-7" font-family="Helvetica,sans-Serif" font-size="10.00">Tmc9660Handler::temperature</text>
</a>
</g>
</g>
<!-- Node2&#45;&gt;Node9 -->
<g id="edge10_Node000002_Node000009" class="edge">
<title>Node2&#45;&gt;Node9</title>
<g id="a_edge10_Node000002_Node000009"><a xlink:title=" ">
<path fill="none" stroke="#63b8ff" d="M313.22,-100.84C334.03,-87.82 372.68,-64.21 407,-46.5 423.14,-38.18 441.53,-29.82 456.85,-23.16"/>
<polygon fill="#63b8ff" stroke="#63b8ff" points="458.62,-26.21 466.42,-19.05 455.85,-19.78 458.62,-26.21"/>
</a>
</g>
</g>
<!-- Node4 -->
<g id="Node000004" class="node">
<title>Node4</title>
<g id="a_Node000004"><a xlink:href="classLogger.html#af9e84e0ff6bd538e4f9ed8dcebc3e2f0" target="_top" xlink:title="Check if log level is enabled for tag.">
<polygon fill="white" stroke="#666666" points="739,-197 610,-197 610,-178 739,-178 739,-197"/>
<text text-anchor="middle" x="674.5" y="-185" font-family="Helvetica,sans-Serif" font-size="10.00">Logger::IsLevelEnabled</text>
</a>
</g>
</g>
<!-- Node3&#45;&gt;Node4 -->
<g id="edge3_Node000003_Node000004" class="edge">
<title>Node3&#45;&gt;Node4</title>
<g id="a_edge3_Node000003_Node000004"><a xlink:title=" ">
<path fill="none" stroke="#63b8ff" d="M530.1,-158.35C555.19,-163.45 588.34,-170.19 616.45,-175.9"/>
<polygon fill="#63b8ff" stroke="#63b8ff" points="616.06,-179.39 626.56,-177.96 617.45,-172.53 616.06,-179.39"/>
</a>
</g>
</g>
<!-- Node5 -->
<g id="Node000005" class="node">
<title>Node5</title>
<g id="a_Node000005"><a xlink:href="classLogger.html#a6adb205db597526fb91ad20067400394" target="_top" xlink:title="Internal logging method.">
<polygon fill="white" stroke="#666666" points="729.5,-160 619.5,-160 619.5,-141 729.5,-141 729.5,-160"/>
<text text-anchor="middle" x="674.5" y="-148" font-family="Helvetica,sans-Serif" font-size="10.00">Logger::LogInternal</text>
</a>
</g>
</g>
<!-- Node3&#45;&gt;Node5 -->
<g id="edge4_Node000003_Node000005" class="edge">
<title>Node3&#45;&gt;Node5</title>
<g id="a_edge4_Node000003_Node000005"><a xlink:title=" ">
<path fill="none" stroke="#63b8ff" d="M530.1,-150.5C553.03,-150.5 582.71,-150.5 609.11,-150.5"/>
<polygon fill="#63b8ff" stroke="#63b8ff" points="609.43,-154 619.43,-150.5 609.43,-147 609.43,-154"/>
</a>
</g>
</g>
<!-- Node7&#45;&gt;Node4 -->
<g id="edge7_Node000007_Node000004" class="edge">
<title>Node7&#45;&gt;Node4</title>
<g id="a_edge7_Node000007_Node000004"><a xlink:title=" ">
<path fill="none" stroke="#63b8ff" d="M527.89,-187.5C548.5,-187.5 575.03,-187.5 599.79,-187.5"/>
<polygon fill="#63b8ff" stroke="#63b8ff" points="599.9,-191 609.9,-187.5 599.9,-184 599.9,-191"/>
</a>
</g>
</g>
<!-- Node7&#45;&gt;Node5 -->
<g id="edge8_Node000007_Node000005" class="edge">
<title>Node7&#45;&gt;Node5</title>
<g id="a_edge8_Node000007_Node000005"><a xlink:title=" ">
<path fill="none" stroke="#63b8ff" d="M527.89,-180.1C553.23,-174.95 587.52,-167.98 616.46,-162.1"/>
<polygon fill="#63b8ff" stroke="#63b8ff" points="617.35,-165.49 626.45,-160.07 615.95,-158.63 617.35,-165.49"/>
</a>
</g>
</g>
<!-- Node9&#45;&gt;Node1 -->
<g id="edge11_Node000009_Node000001" class="edge">
<title>Node9&#45;&gt;Node1</title>
<g id="a_edge11_Node000009_Node000001"><a xlink:title=" ">
<path fill="none" stroke="#63b8ff" d="M427.89,-19.01C357.17,-29.94 241.32,-47.83 166.49,-59.38"/>
<polygon fill="#63b8ff" stroke="#63b8ff" points="165.57,-55.98 156.22,-60.97 166.64,-62.9 165.57,-55.98"/>
</a>
</g>
</g>
<!-- Node9&#45;&gt;Node9 -->
<g id="edge12_Node000009_Node000009" class="edge">
<title>Node9&#45;&gt;Node9</title>
<g id="a_edge12_Node000009_Node000009"><a xlink:title=" ">
<path fill="none" stroke="#63b8ff" d="M462.14,-19.08C448.34,-27.73 457.8,-37 490.5,-37 512.98,-37 524.48,-32.62 524.98,-27.07"/>
<polygon fill="#63b8ff" stroke="#63b8ff" points="527.72,-24.89 518.86,-19.08 522.16,-29.15 527.72,-24.89"/>
</a>
</g>
</g>
</g>
</svg>
