<?xml version="1.0" encoding="UTF-8" standalone="no"?>
<!DOCTYPE svg PUBLIC "-//W3C//DTD SVG 1.1//EN"
 "http://www.w3.org/Graphics/SVG/1.1/DTD/svg11.dtd">
<!-- Generated by graphviz version 2.43.0 (0)
 -->
<!-- Title: Tmc9660Handler::Adc::ReadAinChannel Pages: 1 -->
<svg width="1087pt" height="150pt"
 viewBox="0.00 0.00 1087.00 149.50" xmlns="http://www.w3.org/2000/svg" xmlns:xlink="http://www.w3.org/1999/xlink">
<g id="graph0" class="graph" transform="scale(1 1) rotate(0) translate(4 145.5)">
<title>Tmc9660Handler::Adc::ReadAinChannel</title>
<!-- Node1 -->
<g id="Node000001" class="node">
<title>Node1</title>
<g id="a_Node000001"><a xlink:title="Read an external analog input (AIN) channel.">
<polygon fill="#999999" stroke="#666666" points="124,-54 0,-54 0,-24 124,-24 124,-54"/>
<text text-anchor="start" x="8" y="-42" font-family="Helvetica,sans-Serif" font-size="10.00">Tmc9660Handler::Adc</text>
<text text-anchor="middle" x="62" y="-31" font-family="Helvetica,sans-Serif" font-size="10.00">::ReadAinChannel</text>
</a>
</g>
</g>
<!-- Node2 -->
<g id="Node000002" class="node">
<title>Node2</title>
<g id="a_Node000002"><a xlink:href="classTmc9660Handler.html#a393382194d0602e7aa02da6a8fd7a20a" target="_top" xlink:title="Get a reference to the Temperature wrapper.">
<polygon fill="white" stroke="#666666" points="327,-48.5 160,-48.5 160,-29.5 327,-29.5 327,-48.5"/>
<text text-anchor="middle" x="243.5" y="-36.5" font-family="Helvetica,sans-Serif" font-size="10.00">Tmc9660Handler::temperature</text>
</a>
</g>
</g>
<!-- Node1&#45;&gt;Node2 -->
<g id="edge1_Node000001_Node000002" class="edge">
<title>Node1&#45;&gt;Node2</title>
<g id="a_edge1_Node000001_Node000002"><a xlink:title=" ">
<path fill="none" stroke="#63b8ff" d="M124.02,-39C132.28,-39 140.89,-39 149.55,-39"/>
<polygon fill="#63b8ff" stroke="#63b8ff" points="149.71,-42.5 159.71,-39 149.71,-35.5 149.71,-42.5"/>
</a>
</g>
</g>
<!-- Node2&#45;&gt;Node2 -->
<g id="edge14_Node000002_Node000002" class="edge">
<title>Node2&#45;&gt;Node2</title>
<g id="a_edge14_Node000002_Node000002"><a xlink:title=" ">
<path fill="none" stroke="#63b8ff" d="M215.76,-48.58C202.26,-57.23 211.51,-66.5 243.5,-66.5 264.99,-66.5 276.22,-62.32 277.18,-56.95"/>
<polygon fill="#63b8ff" stroke="#63b8ff" points="279.89,-54.71 271.24,-48.58 274.18,-58.76 279.89,-54.71"/>
</a>
</g>
</g>
<!-- Node3 -->
<g id="Node000003" class="node">
<title>Node3</title>
<g id="a_Node000003"><a xlink:href="classTmc9660Handler.html#a5a279ae9d4b5a8e0d71cb24577ad88ea" target="_top" xlink:title="Ensure driver is initialized (lazy init entrypoint).">
<polygon fill="white" stroke="#666666" points="550,-29.5 363,-29.5 363,-10.5 550,-10.5 550,-29.5"/>
<text text-anchor="middle" x="456.5" y="-17.5" font-family="Helvetica,sans-Serif" font-size="10.00">Tmc9660Handler::EnsureInitialized</text>
</a>
</g>
</g>
<!-- Node2&#45;&gt;Node3 -->
<g id="edge2_Node000002_Node000003" class="edge">
<title>Node2&#45;&gt;Node3</title>
<g id="a_edge2_Node000002_Node000003"><a xlink:title=" ">
<path fill="none" stroke="#63b8ff" d="M327.29,-31.55C335.67,-30.79 344.25,-30.02 352.81,-29.25"/>
<polygon fill="#63b8ff" stroke="#63b8ff" points="353.18,-32.73 362.83,-28.34 352.56,-25.76 353.18,-32.73"/>
</a>
</g>
</g>
<!-- Node4 -->
<g id="Node000004" class="node">
<title>Node4</title>
<g id="a_Node000004"><a xlink:href="classTmc9660Handler.html#adc564847f8ae26c47412aaee0758991c" target="_top" xlink:title="Initialize the TMC9660 device.">
<polygon fill="white" stroke="#666666" points="734,-67.5 586,-67.5 586,-48.5 734,-48.5 734,-67.5"/>
<text text-anchor="middle" x="660" y="-55.5" font-family="Helvetica,sans-Serif" font-size="10.00">Tmc9660Handler::Initialize</text>
</a>
</g>
</g>
<!-- Node3&#45;&gt;Node4 -->
<g id="edge3_Node000003_Node000004" class="edge">
<title>Node3&#45;&gt;Node4</title>
<g id="a_edge3_Node000003_Node000004"><a xlink:title=" ">
<path fill="none" stroke="#63b8ff" d="M508.09,-29.54C535.51,-34.71 569.6,-41.14 598.43,-46.58"/>
<polygon fill="#63b8ff" stroke="#63b8ff" points="597.92,-50.04 608.39,-48.46 599.21,-43.16 597.92,-50.04"/>
</a>
</g>
</g>
<!-- Node10 -->
<g id="Node000010" class="node">
<title>Node10</title>
<g id="a_Node000010"><a xlink:href="classTmc9660Handler.html#a13db97d201a287d8aa60384e04070b9f" target="_top" xlink:title="Check if the TMC9660 driver has been initialized and is ready.">
<polygon fill="white" stroke="#666666" points="914,-30 770,-30 770,0 914,0 914,-30"/>
<text text-anchor="start" x="778" y="-18" font-family="Helvetica,sans-Serif" font-size="10.00">Tmc9660Handler::IsDriver</text>
<text text-anchor="middle" x="842" y="-7" font-family="Helvetica,sans-Serif" font-size="10.00">Ready</text>
</a>
</g>
</g>
<!-- Node3&#45;&gt;Node10 -->
<g id="edge13_Node000003_Node000010" class="edge">
<title>Node3&#45;&gt;Node10</title>
<g id="a_edge13_Node000003_Node000010"><a xlink:title=" ">
<path fill="none" stroke="#63b8ff" d="M550.33,-18.79C614.28,-17.96 698.42,-16.86 759.72,-16.06"/>
<polygon fill="#63b8ff" stroke="#63b8ff" points="759.78,-19.56 769.73,-15.93 759.69,-12.56 759.78,-19.56"/>
</a>
</g>
</g>
<!-- Node4&#45;&gt;Node2 -->
<g id="edge12_Node000004_Node000002" class="edge">
<title>Node4&#45;&gt;Node2</title>
<g id="a_edge12_Node000004_Node000002"><a xlink:title=" ">
<path fill="none" stroke="#63b8ff" d="M585.97,-54.65C516.87,-51.49 412.85,-46.72 337.78,-43.28"/>
<polygon fill="#63b8ff" stroke="#63b8ff" points="337.53,-39.76 327.38,-42.8 337.21,-46.75 337.53,-39.76"/>
</a>
</g>
</g>
<!-- Node5 -->
<g id="Node000005" class="node">
<title>Node5</title>
<g id="a_Node000005"><a xlink:href="classLogger.html#a5e4bcdaea60b9ac227b564d780388769" target="_top" xlink:title="Log error message.">
<polygon fill="white" stroke="#666666" points="881.5,-141.5 802.5,-141.5 802.5,-122.5 881.5,-122.5 881.5,-141.5"/>
<text text-anchor="middle" x="842" y="-129.5" font-family="Helvetica,sans-Serif" font-size="10.00">Logger::Error</text>
</a>
</g>
</g>
<!-- Node4&#45;&gt;Node5 -->
<g id="edge4_Node000004_Node000005" class="edge">
<title>Node4&#45;&gt;Node5</title>
<g id="a_edge4_Node000004_Node000005"><a xlink:title=" ">
<path fill="none" stroke="#63b8ff" d="M676.73,-67.53C697.46,-79.74 735.37,-100.91 770,-114 777.11,-116.69 784.78,-119.1 792.35,-121.23"/>
<polygon fill="#63b8ff" stroke="#63b8ff" points="791.62,-124.66 802.19,-123.85 793.42,-117.89 791.62,-124.66"/>
</a>
</g>
</g>
<!-- Node8 -->
<g id="Node000008" class="node">
<title>Node8</title>
<g id="a_Node000008"><a xlink:href="classLogger.html#a5789d11f8f1356e2192c0023a089cbc4" target="_top" xlink:title="Get singleton instance.">
<polygon fill="white" stroke="#666666" points="899,-67.5 785,-67.5 785,-48.5 899,-48.5 899,-67.5"/>
<text text-anchor="middle" x="842" y="-55.5" font-family="Helvetica,sans-Serif" font-size="10.00">Logger::GetInstance</text>
</a>
</g>
</g>
<!-- Node4&#45;&gt;Node8 -->
<g id="edge7_Node000004_Node000008" class="edge">
<title>Node4&#45;&gt;Node8</title>
<g id="a_edge7_Node000004_Node000008"><a xlink:title=" ">
<path fill="none" stroke="#63b8ff" d="M734.21,-58C747.58,-58 761.45,-58 774.6,-58"/>
<polygon fill="#63b8ff" stroke="#63b8ff" points="774.97,-61.5 784.97,-58 774.97,-54.5 774.97,-61.5"/>
</a>
</g>
</g>
<!-- Node9 -->
<g id="Node000009" class="node">
<title>Node9</title>
<g id="a_Node000009"><a xlink:href="classLogger.html#a1c0c947d87884bca0395fd38d19d1102" target="_top" xlink:title="Log info message.">
<polygon fill="white" stroke="#666666" points="879,-104.5 805,-104.5 805,-85.5 879,-85.5 879,-104.5"/>
<text text-anchor="middle" x="842" y="-92.5" font-family="Helvetica,sans-Serif" font-size="10.00">Logger::Info</text>
</a>
</g>
</g>
<!-- Node4&#45;&gt;Node9 -->
<g id="edge8_Node000004_Node000009" class="edge">
<title>Node4&#45;&gt;Node9</title>
<g id="a_edge8_Node000004_Node000009"><a xlink:title=" ">
<path fill="none" stroke="#63b8ff" d="M707.35,-67.53C734.23,-73.05 767.96,-79.99 794.81,-85.51"/>
<polygon fill="#63b8ff" stroke="#63b8ff" points="794.24,-88.96 804.74,-87.55 795.65,-82.1 794.24,-88.96"/>
</a>
</g>
</g>
<!-- Node4&#45;&gt;Node10 -->
<g id="edge11_Node000004_Node000010" class="edge">
<title>Node4&#45;&gt;Node10</title>
<g id="a_edge11_Node000004_Node000010"><a xlink:title=" ">
<path fill="none" stroke="#63b8ff" d="M700.95,-48.46C720.8,-43.72 745.4,-37.84 768.43,-32.34"/>
<polygon fill="#63b8ff" stroke="#63b8ff" points="769.27,-35.73 778.18,-30.01 767.64,-28.93 769.27,-35.73"/>
</a>
</g>
</g>
<!-- Node6 -->
<g id="Node000006" class="node">
<title>Node6</title>
<g id="a_Node000006"><a xlink:href="classLogger.html#a737b981213c02321a5235848334d7191" target="_top" xlink:title="Check if log level is enabled for tag.">
<polygon fill="white" stroke="#666666" points="1079,-141.5 950,-141.5 950,-122.5 1079,-122.5 1079,-141.5"/>
<text text-anchor="middle" x="1014.5" y="-129.5" font-family="Helvetica,sans-Serif" font-size="10.00">Logger::IsLevelEnabled</text>
</a>
</g>
</g>
<!-- Node5&#45;&gt;Node6 -->
<g id="edge5_Node000005_Node000006" class="edge">
<title>Node5&#45;&gt;Node6</title>
<g id="a_edge5_Node000005_Node000006"><a xlink:title=" ">
<path fill="none" stroke="#63b8ff" d="M881.69,-132C898.92,-132 919.81,-132 939.83,-132"/>
<polygon fill="#63b8ff" stroke="#63b8ff" points="939.89,-135.5 949.89,-132 939.89,-128.5 939.89,-135.5"/>
</a>
</g>
</g>
<!-- Node7 -->
<g id="Node000007" class="node">
<title>Node7</title>
<g id="a_Node000007"><a xlink:href="classLogger.html#aeede6ac18db92a47caede076ef188a13" target="_top" xlink:title="Internal logging method.">
<polygon fill="white" stroke="#666666" points="1069.5,-104.5 959.5,-104.5 959.5,-85.5 1069.5,-85.5 1069.5,-104.5"/>
<text text-anchor="middle" x="1014.5" y="-92.5" font-family="Helvetica,sans-Serif" font-size="10.00">Logger::LogInternal</text>
</a>
</g>
</g>
<!-- Node5&#45;&gt;Node7 -->
<g id="edge6_Node000005_Node000007" class="edge">
<title>Node5&#45;&gt;Node7</title>
<g id="a_edge6_Node000005_Node000007"><a xlink:title=" ">
<path fill="none" stroke="#63b8ff" d="M881.69,-123.6C904.76,-118.6 934.4,-112.17 959.72,-106.67"/>
<polygon fill="#63b8ff" stroke="#63b8ff" points="960.52,-110.08 969.55,-104.54 959.04,-103.24 960.52,-110.08"/>
</a>
</g>
</g>
<!-- Node9&#45;&gt;Node6 -->
<g id="edge9_Node000009_Node000006" class="edge">
<title>Node9&#45;&gt;Node6</title>
<g id="a_edge9_Node000009_Node000006"><a xlink:title=" ">
<path fill="none" stroke="#63b8ff" d="M879.16,-102.85C902.56,-107.93 933.45,-114.63 959.71,-120.33"/>
<polygon fill="#63b8ff" stroke="#63b8ff" points="959.01,-123.76 969.52,-122.46 960.49,-116.92 959.01,-123.76"/>
</a>
</g>
</g>
<!-- Node9&#45;&gt;Node7 -->
<g id="edge10_Node000009_Node000007" class="edge">
<title>Node9&#45;&gt;Node7</title>
<g id="a_edge10_Node000009_Node000007"><a xlink:title=" ">
<path fill="none" stroke="#63b8ff" d="M879.16,-95C899.42,-95 925.31,-95 948.93,-95"/>
<polygon fill="#63b8ff" stroke="#63b8ff" points="949.25,-98.5 959.25,-95 949.25,-91.5 949.25,-98.5"/>
</a>
</g>
</g>
</g>
</svg>
