<?xml version="1.0" encoding="UTF-8" standalone="no"?>
<!DOCTYPE svg PUBLIC "-//W3C//DTD SVG 1.1//EN"
 "http://www.w3.org/Graphics/SVG/1.1/DTD/svg11.dtd">
<!-- Generated by graphviz version 2.43.0 (0)
 -->
<!-- Title: Logger Pages: 1 -->
<svg width="510pt" height="93pt"
 viewBox="0.00 0.00 510.00 93.00" xmlns="http://www.w3.org/2000/svg" xmlns:xlink="http://www.w3.org/1999/xlink">
<g id="graph0" class="graph" transform="scale(1 1) rotate(0) translate(4 89)">
<title>Logger</title>
<!-- Node1 -->
<g id="Node000001" class="node">
<title>Node1</title>
<g id="a_Node000001"><a xlink:title="Advanced logging system with formatting capabilities.">
<polygon fill="#999999" stroke="#666666" points="240.5,-19 190.5,-19 190.5,0 240.5,0 240.5,-19"/>
<text text-anchor="middle" x="215.5" y="-7" font-family="Helvetica,sans-Serif" font-size="10.00">Logger</text>
</a>
</g>
</g>
<!-- Node2 -->
<g id="Node000002" class="node">
<title>Node2</title>
<g id="a_Node000002"><a xlink:title=" ">
<polygon fill="white" stroke="#666666" points="115,-85 0,-85 0,-66 115,-66 115,-85"/>
<text text-anchor="middle" x="57.5" y="-73" font-family="Helvetica,sans-Serif" font-size="10.00">std::atomic&lt; bool &gt;</text>
</a>
</g>
</g>
<!-- Node2&#45;&gt;Node1 -->
<g id="edge1_Node000001_Node000002" class="edge">
<title>Node2&#45;&gt;Node1</title>
<g id="a_edge1_Node000001_Node000002"><a xlink:title=" ">
<path fill="none" stroke="#9a32cd" stroke-dasharray="5,2" d="M80.54,-60.65C93.93,-52.99 111.3,-43.7 127.5,-37 148.14,-28.46 172.53,-21.34 190.38,-16.63"/>
<polygon fill="#9a32cd" stroke="#9a32cd" points="78.45,-57.82 71.57,-65.88 81.97,-63.87 78.45,-57.82"/>
</a>
</g>
<text text-anchor="middle" x="156" y="-40" font-family="Helvetica,sans-Serif" font-size="10.00" fill="grey"> initialized_</text>
</g>
<!-- Node3 -->
<g id="Node000003" class="node">
<title>Node3</title>
<g id="a_Node000003"><a xlink:href="structLogConfig.html" target="_top" xlink:title="Logging configuration.">
<polygon fill="white" stroke="#666666" points="198,-85 133,-85 133,-66 198,-66 198,-85"/>
<text text-anchor="middle" x="165.5" y="-73" font-family="Helvetica,sans-Serif" font-size="10.00">LogConfig</text>
</a>
</g>
</g>
<!-- Node3&#45;&gt;Node1 -->
<g id="edge2_Node000001_Node000003" class="edge">
<title>Node3&#45;&gt;Node1</title>
<g id="a_edge2_Node000001_Node000003"><a xlink:title=" ">
<path fill="none" stroke="#9a32cd" stroke-dasharray="5,2" d="M178.57,-57.77C188.16,-45.49 200.81,-29.3 208.54,-19.41"/>
<polygon fill="#9a32cd" stroke="#9a32cd" points="175.64,-55.83 172.24,-65.87 181.16,-60.14 175.64,-55.83"/>
</a>
</g>
<text text-anchor="middle" x="212.5" y="-40" font-family="Helvetica,sans-Serif" font-size="10.00" fill="grey"> config_</text>
</g>
<!-- Node4 -->
<g id="Node000004" class="node">
<title>Node4</title>
<g id="a_Node000004"><a xlink:href="structLogger_1_1TagLevel.html" target="_top" xlink:title=" ">
<polygon fill="white" stroke="#666666" points="314.5,-85 216.5,-85 216.5,-66 314.5,-66 314.5,-85"/>
<text text-anchor="middle" x="265.5" y="-73" font-family="Helvetica,sans-Serif" font-size="10.00">Logger::TagLevel</text>
</a>
</g>
</g>
<!-- Node4&#45;&gt;Node1 -->
<g id="edge3_Node000001_Node000004" class="edge">
<title>Node4&#45;&gt;Node1</title>
<g id="a_edge3_Node000001_Node000004"><a xlink:title=" ">
<path fill="none" stroke="#9a32cd" stroke-dasharray="5,2" d="M252.43,-57.77C242.84,-45.49 230.19,-29.3 222.46,-19.41"/>
<polygon fill="#9a32cd" stroke="#9a32cd" points="249.84,-60.14 258.76,-65.87 255.36,-55.83 249.84,-60.14"/>
</a>
</g>
<text text-anchor="middle" x="272" y="-40" font-family="Helvetica,sans-Serif" font-size="10.00" fill="grey"> tag_levels_</text>
</g>
<!-- Node5 -->
<g id="Node000005" class="node">
<title>Node5</title>
<g id="a_Node000005"><a xlink:title=" ">
<polygon fill="white" stroke="#666666" points="502,-85 333,-85 333,-66 502,-66 502,-85"/>
<text text-anchor="middle" x="417.5" y="-73" font-family="Helvetica,sans-Serif" font-size="10.00">std::unique_ptr&lt; BaseLogger &gt;</text>
</a>
</g>
</g>
<!-- Node5&#45;&gt;Node1 -->
<g id="edge4_Node000001_Node000005" class="edge">
<title>Node5&#45;&gt;Node1</title>
<g id="a_edge4_Node000001_Node000005"><a xlink:title=" ">
<path fill="none" stroke="#9a32cd" stroke-dasharray="5,2" d="M383.07,-62.61C360.97,-55.07 331.62,-45.22 305.5,-37 283.75,-30.16 258.87,-22.87 240.79,-17.68"/>
<polygon fill="#9a32cd" stroke="#9a32cd" points="382.08,-65.97 392.67,-65.9 384.35,-59.35 382.08,-65.97"/>
</a>
</g>
<text text-anchor="middle" x="372.5" y="-40" font-family="Helvetica,sans-Serif" font-size="10.00" fill="grey"> base_logger_</text>
</g>
</g>
</svg>
