<?xml version="1.0" encoding="UTF-8" standalone="no"?>
<!DOCTYPE svg PUBLIC "-//W3C//DTD SVG 1.1//EN"
 "http://www.w3.org/Graphics/SVG/1.1/DTD/svg11.dtd">
<!-- Generated by graphviz version 2.43.0 (0)
 -->
<!-- Title: Ws2812Handler::Initialize Pages: 1 -->
<svg width="787pt" height="249pt"
 viewBox="0.00 0.00 787.00 249.00" xmlns="http://www.w3.org/2000/svg" xmlns:xlink="http://www.w3.org/1999/xlink">
<g id="graph0" class="graph" transform="scale(1 1) rotate(0) translate(4 245)">
<title>Ws2812Handler::Initialize</title>
<!-- Node1 -->
<g id="Node000001" class="node">
<title>Node1</title>
<g id="a_Node000001"><a xlink:title="Initialize the RMT channel and LED strip.">
<polygon fill="#999999" stroke="#666666" points="779,-130 637,-130 637,-111 779,-111 779,-130"/>
<text text-anchor="middle" x="708" y="-118" font-family="Helvetica,sans-Serif" font-size="10.00">Ws2812Handler::Initialize</text>
</a>
</g>
</g>
<!-- Node2 -->
<g id="Node000002" class="node">
<title>Node2</title>
<g id="a_Node000002"><a xlink:href="classWs2812Handler.html#afe5f397b22e9b92cf2fb2cebae6e123d" target="_top" xlink:title=" ">
<polygon fill="white" stroke="#666666" points="601,-135.5 420,-135.5 420,-105.5 601,-105.5 601,-135.5"/>
<text text-anchor="start" x="428" y="-123.5" font-family="Helvetica,sans-Serif" font-size="10.00">Ws2812Handler::EnsureInitialized</text>
<text text-anchor="middle" x="510.5" y="-112.5" font-family="Helvetica,sans-Serif" font-size="10.00">Locked</text>
</a>
</g>
</g>
<!-- Node1&#45;&gt;Node2 -->
<g id="edge1_Node000001_Node000002" class="edge">
<title>Node1&#45;&gt;Node2</title>
<g id="a_edge1_Node000001_Node000002"><a xlink:title=" ">
<path fill="none" stroke="#63b8ff" d="M626.78,-120.5C618.33,-120.5 609.7,-120.5 601.16,-120.5"/>
<polygon fill="#63b8ff" stroke="#63b8ff" points="626.97,-124 636.97,-120.5 626.97,-117 626.97,-124"/>
</a>
</g>
</g>
<!-- Node3 -->
<g id="Node000003" class="node">
<title>Node3</title>
<g id="a_Node000003"><a xlink:href="classWs2812Handler.html#a586683dcf63f17194b77c026972c7b2b" target="_top" xlink:title="Dump diagnostics to logger.">
<polygon fill="white" stroke="#666666" points="384,-241 198,-241 198,-222 384,-222 384,-241"/>
<text text-anchor="middle" x="291" y="-229" font-family="Helvetica,sans-Serif" font-size="10.00">Ws2812Handler::DumpDiagnostics</text>
</a>
</g>
</g>
<!-- Node2&#45;&gt;Node3 -->
<g id="edge2_Node000002_Node000003" class="edge">
<title>Node2&#45;&gt;Node3</title>
<g id="a_edge2_Node000002_Node000003"><a xlink:title=" ">
<path fill="none" stroke="#63b8ff" d="M486.5,-142.57C462.76,-164.07 423.68,-196 384,-213.5 376.26,-216.92 367.86,-219.69 359.4,-221.93"/>
<polygon fill="#63b8ff" stroke="#63b8ff" points="488.96,-145.06 493.95,-135.71 484.22,-139.91 488.96,-145.06"/>
</a>
</g>
</g>
<!-- Node4 -->
<g id="Node000004" class="node">
<title>Node4</title>
<g id="a_Node000004"><a xlink:href="classWs2812Handler.html#a764cc93c64a81844a284ac7515ea8366" target="_top" xlink:title="Ensure strip resources are initialized (lazy init entrypoint).">
<polygon fill="white" stroke="#666666" points="381.5,-204 200.5,-204 200.5,-185 381.5,-185 381.5,-204"/>
<text text-anchor="middle" x="291" y="-192" font-family="Helvetica,sans-Serif" font-size="10.00">Ws2812Handler::EnsureInitialized</text>
</a>
</g>
</g>
<!-- Node2&#45;&gt;Node4 -->
<g id="edge3_Node000002_Node000004" class="edge">
<title>Node2&#45;&gt;Node4</title>
<g id="a_edge3_Node000002_Node000004"><a xlink:title=" ">
<path fill="none" stroke="#63b8ff" d="M471.55,-140.15C447.1,-152.12 414.32,-166.9 384,-176.5 373.6,-179.79 362.35,-182.59 351.39,-184.93"/>
<polygon fill="#63b8ff" stroke="#63b8ff" points="473.41,-143.13 480.82,-135.55 470.3,-136.86 473.41,-143.13"/>
</a>
</g>
</g>
<!-- Node5 -->
<g id="Node000005" class="node">
<title>Node5</title>
<g id="a_Node000005"><a xlink:href="classWs2812Handler.html#a3e09ba2c15d5b0e7d6d254e22f634ae8" target="_top" xlink:title="Get the animator object.">
<polygon fill="white" stroke="#666666" points="372,-167 210,-167 210,-148 372,-148 372,-167"/>
<text text-anchor="middle" x="291" y="-155" font-family="Helvetica,sans-Serif" font-size="10.00">Ws2812Handler::GetAnimator</text>
</a>
</g>
</g>
<!-- Node2&#45;&gt;Node5 -->
<g id="edge4_Node000002_Node000005" class="edge">
<title>Node2&#45;&gt;Node5</title>
<g id="a_edge4_Node000002_Node000005"><a xlink:title=" ">
<path fill="none" stroke="#63b8ff" d="M411.13,-137.23C389.46,-140.92 367.24,-144.7 347.94,-147.98"/>
<polygon fill="#63b8ff" stroke="#63b8ff" points="411.76,-140.68 421.03,-135.55 410.59,-133.78 411.76,-140.68"/>
</a>
</g>
</g>
<!-- Node7 -->
<g id="Node000007" class="node">
<title>Node7</title>
<g id="a_Node000007"><a xlink:href="classWs2812Handler.html#a7471840392adad3cab496e2dc57dc792" target="_top" xlink:title="Get the underlying LED strip object.">
<polygon fill="white" stroke="#666666" points="361,-130 221,-130 221,-111 361,-111 361,-130"/>
<text text-anchor="middle" x="291" y="-118" font-family="Helvetica,sans-Serif" font-size="10.00">Ws2812Handler::GetStrip</text>
</a>
</g>
</g>
<!-- Node2&#45;&gt;Node7 -->
<g id="edge6_Node000002_Node000007" class="edge">
<title>Node2&#45;&gt;Node7</title>
<g id="a_edge6_Node000002_Node000007"><a xlink:title=" ">
<path fill="none" stroke="#63b8ff" d="M409.64,-120.5C393.28,-120.5 376.65,-120.5 361.25,-120.5"/>
<polygon fill="#63b8ff" stroke="#63b8ff" points="409.78,-124 419.78,-120.5 409.78,-117 409.78,-124"/>
</a>
</g>
</g>
<!-- Node9 -->
<g id="Node000009" class="node">
<title>Node9</title>
<g id="a_Node000009"><a xlink:href="classWs2812Handler.html#ad67002bf517195998950ed6d8385ee89" target="_top" xlink:title="Transmit pixel data to the LED strip.">
<polygon fill="white" stroke="#666666" points="354,-93 228,-93 228,-74 354,-74 354,-93"/>
<text text-anchor="middle" x="291" y="-81" font-family="Helvetica,sans-Serif" font-size="10.00">Ws2812Handler::Show</text>
</a>
</g>
</g>
<!-- Node2&#45;&gt;Node9 -->
<g id="edge8_Node000002_Node000009" class="edge">
<title>Node2&#45;&gt;Node9</title>
<g id="a_edge8_Node000002_Node000009"><a xlink:title=" ">
<path fill="none" stroke="#63b8ff" d="M411.13,-103.77C389.46,-100.08 367.24,-96.3 347.94,-93.02"/>
<polygon fill="#63b8ff" stroke="#63b8ff" points="410.59,-107.22 421.03,-105.45 411.76,-100.32 410.59,-107.22"/>
</a>
</g>
</g>
<!-- Node10 -->
<g id="Node000010" class="node">
<title>Node10</title>
<g id="a_Node000010"><a xlink:href="classWs2812Handler.html#a60ee1479e87c2ddb672a03a053be0c59" target="_top" xlink:title="Advance animation by one step.">
<polygon fill="white" stroke="#666666" points="352,-56 230,-56 230,-37 352,-37 352,-56"/>
<text text-anchor="middle" x="291" y="-44" font-family="Helvetica,sans-Serif" font-size="10.00">Ws2812Handler::Step</text>
</a>
</g>
</g>
<!-- Node2&#45;&gt;Node10 -->
<g id="edge9_Node000002_Node000010" class="edge">
<title>Node2&#45;&gt;Node10</title>
<g id="a_edge9_Node000002_Node000010"><a xlink:title=" ">
<path fill="none" stroke="#63b8ff" d="M470.74,-100.99C446.34,-89.35 413.92,-75.03 384,-65.5 372.5,-61.84 359.96,-58.7 347.95,-56.1"/>
<polygon fill="#63b8ff" stroke="#63b8ff" points="469.48,-104.27 480.01,-105.47 472.52,-97.97 469.48,-104.27"/>
</a>
</g>
</g>
<!-- Node11 -->
<g id="Node000011" class="node">
<title>Node11</title>
<g id="a_Node000011"><a xlink:href="classWs2812Handler.html#af74a184df9277227e6d2b593d13c4501" target="_top" xlink:title="Advance animation by time delta (call periodically).">
<polygon fill="white" stroke="#666666" points="351,-19 231,-19 231,0 351,0 351,-19"/>
<text text-anchor="middle" x="291" y="-7" font-family="Helvetica,sans-Serif" font-size="10.00">Ws2812Handler::Tick</text>
</a>
</g>
</g>
<!-- Node2&#45;&gt;Node11 -->
<g id="edge10_Node000002_Node000011" class="edge">
<title>Node2&#45;&gt;Node11</title>
<g id="a_edge10_Node000002_Node000011"><a xlink:title=" ">
<path fill="none" stroke="#63b8ff" d="M486.02,-98.41C462.17,-77.22 423.26,-45.94 384,-28.5 373.72,-23.93 362.29,-20.44 351.09,-17.79"/>
<polygon fill="#63b8ff" stroke="#63b8ff" points="483.74,-101.06 493.51,-105.17 488.43,-95.87 483.74,-101.06"/>
</a>
</g>
</g>
<!-- Node6 -->
<g id="Node000006" class="node">
<title>Node6</title>
<g id="a_Node000006"><a xlink:href="classWs2812Handler.html#ad564e91a669c0a06f5abde5a3ae8a6a6" target="_top" xlink:title=" ">
<polygon fill="white" stroke="#666666" points="162,-167 0,-167 0,-148 162,-148 162,-167"/>
<text text-anchor="middle" x="81" y="-155" font-family="Helvetica,sans-Serif" font-size="10.00">Ws2812Handler::GetAnimator</text>
</a>
</g>
</g>
<!-- Node5&#45;&gt;Node6 -->
<g id="edge5_Node000005_Node000006" class="edge">
<title>Node5&#45;&gt;Node6</title>
<g id="a_edge5_Node000005_Node000006"><a xlink:title=" ">
<path fill="none" stroke="#63b8ff" d="M199.87,-157.5C187.3,-157.5 174.45,-157.5 162.08,-157.5"/>
<polygon fill="#63b8ff" stroke="#63b8ff" points="199.88,-161 209.88,-157.5 199.88,-154 199.88,-161"/>
</a>
</g>
</g>
<!-- Node8 -->
<g id="Node000008" class="node">
<title>Node8</title>
<g id="a_Node000008"><a xlink:href="classWs2812Handler.html#af97f5cc26ad1fb0f4722e72346ca7caa" target="_top" xlink:title=" ">
<polygon fill="white" stroke="#666666" points="151,-130 11,-130 11,-111 151,-111 151,-130"/>
<text text-anchor="middle" x="81" y="-118" font-family="Helvetica,sans-Serif" font-size="10.00">Ws2812Handler::GetStrip</text>
</a>
</g>
</g>
<!-- Node7&#45;&gt;Node8 -->
<g id="edge7_Node000007_Node000008" class="edge">
<title>Node7&#45;&gt;Node8</title>
<g id="a_edge7_Node000007_Node000008"><a xlink:title=" ">
<path fill="none" stroke="#63b8ff" d="M210.65,-120.5C191.11,-120.5 170.34,-120.5 151.31,-120.5"/>
<polygon fill="#63b8ff" stroke="#63b8ff" points="210.74,-124 220.74,-120.5 210.74,-117 210.74,-124"/>
</a>
</g>
</g>
</g>
</svg>
