<?xml version="1.0" encoding="UTF-8" standalone="no"?>
<!DOCTYPE svg PUBLIC "-//W3C//DTD SVG 1.1//EN"
 "http://www.w3.org/Graphics/SVG/1.1/DTD/svg11.dtd">
<!-- Generated by graphviz version 2.43.0 (0)
 -->
<!-- Title: Ads7952Handler::GetDriver Pages: 1 -->
<svg width="1144pt" height="175pt"
 viewBox="0.00 0.00 1144.00 175.00" xmlns="http://www.w3.org/2000/svg" xmlns:xlink="http://www.w3.org/1999/xlink">
<g id="graph0" class="graph" transform="scale(1 1) rotate(0) translate(4 171)">
<title>Ads7952Handler::GetDriver</title>
<!-- Node1 -->
<g id="Node000001" class="node">
<title>Node1</title>
<g id="a_Node000001"><a xlink:title="Get raw pointer to the ADS7952 driver for advanced operations.">
<polygon fill="#999999" stroke="#666666" points="150,-93 0,-93 0,-74 150,-74 150,-93"/>
<text text-anchor="middle" x="75" y="-81" font-family="Helvetica,sans-Serif" font-size="10.00">Ads7952Handler::GetDriver</text>
</a>
</g>
</g>
<!-- Node2 -->
<g id="Node000002" class="node">
<title>Node2</title>
<g id="a_Node000002"><a xlink:href="classAds7952Handler.html#a4541d57be2e20b35d9270a62642fb862" target="_top" xlink:title="Ensure initialized while mutex is already held.">
<polygon fill="white" stroke="#666666" points="370,-98.5 186,-98.5 186,-68.5 370,-68.5 370,-98.5"/>
<text text-anchor="start" x="194" y="-86.5" font-family="Helvetica,sans-Serif" font-size="10.00">Ads7952Handler::EnsureInitialized</text>
<text text-anchor="middle" x="278" y="-75.5" font-family="Helvetica,sans-Serif" font-size="10.00">Locked</text>
</a>
</g>
</g>
<!-- Node1&#45;&gt;Node2 -->
<g id="edge1_Node000001_Node000002" class="edge">
<title>Node1&#45;&gt;Node2</title>
<g id="a_edge1_Node000001_Node000002"><a xlink:title=" ">
<path fill="none" stroke="#63b8ff" d="M150.27,-83.5C158.63,-83.5 167.25,-83.5 175.88,-83.5"/>
<polygon fill="#63b8ff" stroke="#63b8ff" points="175.99,-87 185.99,-83.5 175.99,-80 175.99,-87"/>
</a>
</g>
</g>
<!-- Node3 -->
<g id="Node000003" class="node">
<title>Node3</title>
<g id="a_Node000003"><a xlink:href="classAds7952Handler.html#a0644e9b1c82bc200591155b36a9ca4dd" target="_top" xlink:title="Initialize the ADS7952 ADC (lazy initialization).">
<polygon fill="white" stroke="#666666" points="551,-93 406,-93 406,-74 551,-74 551,-93"/>
<text text-anchor="middle" x="478.5" y="-81" font-family="Helvetica,sans-Serif" font-size="10.00">Ads7952Handler::Initialize</text>
</a>
</g>
</g>
<!-- Node2&#45;&gt;Node3 -->
<g id="edge2_Node000002_Node000003" class="edge">
<title>Node2&#45;&gt;Node3</title>
<g id="a_edge2_Node000002_Node000003"><a xlink:title=" ">
<path fill="none" stroke="#63b8ff" d="M370.12,-83.5C378.67,-83.5 387.3,-83.5 395.75,-83.5"/>
<polygon fill="#63b8ff" stroke="#63b8ff" points="395.96,-87 405.96,-83.5 395.96,-80 395.96,-87"/>
</a>
</g>
</g>
<!-- Node4 -->
<g id="Node000004" class="node">
<title>Node4</title>
<g id="a_Node000004"><a xlink:href="classAds7952Handler.html#a3cc3a33955e1e0b218f801f1b98192f2" target="_top" xlink:title="Apply configuration to the driver after init.">
<polygon fill="white" stroke="#666666" points="783,-167 587,-167 587,-148 783,-148 783,-167"/>
<text text-anchor="middle" x="685" y="-155" font-family="Helvetica,sans-Serif" font-size="10.00">Ads7952Handler::ApplyConfiguration</text>
</a>
</g>
</g>
<!-- Node3&#45;&gt;Node4 -->
<g id="edge3_Node000003_Node000004" class="edge">
<title>Node3&#45;&gt;Node4</title>
<g id="a_edge3_Node000003_Node000004"><a xlink:title=" ">
<path fill="none" stroke="#63b8ff" d="M494.52,-93.17C514.73,-105.74 552.18,-127.5 587,-139.5 593.74,-141.82 600.84,-143.86 608.02,-145.66"/>
<polygon fill="#63b8ff" stroke="#63b8ff" points="607.3,-149.08 617.83,-147.95 608.89,-142.26 607.3,-149.08"/>
</a>
</g>
</g>
<!-- Node5 -->
<g id="Node000005" class="node">
<title>Node5</title>
<g id="a_Node000005"><a xlink:href="classLogger.html#adce17848a5844e053bfd314863dc1404" target="_top" xlink:title="Log error message.">
<polygon fill="white" stroke="#666666" points="724.5,-130 645.5,-130 645.5,-111 724.5,-111 724.5,-130"/>
<text text-anchor="middle" x="685" y="-118" font-family="Helvetica,sans-Serif" font-size="10.00">Logger::Error</text>
</a>
</g>
</g>
<!-- Node3&#45;&gt;Node5 -->
<g id="edge4_Node000003_Node000005" class="edge">
<title>Node3&#45;&gt;Node5</title>
<g id="a_edge4_Node000003_Node000005"><a xlink:title=" ">
<path fill="none" stroke="#63b8ff" d="M532.16,-93.03C563.95,-98.78 604.18,-106.06 635.24,-111.68"/>
<polygon fill="#63b8ff" stroke="#63b8ff" points="634.94,-115.18 645.4,-113.52 636.18,-108.29 634.94,-115.18"/>
</a>
</g>
</g>
<!-- Node9 -->
<g id="Node000009" class="node">
<title>Node9</title>
<g id="a_Node000009"><a xlink:href="classLogger.html#a5789d11f8f1356e2192c0023a089cbc4" target="_top" xlink:title="Get singleton instance.">
<polygon fill="white" stroke="#666666" points="742,-19 628,-19 628,0 742,0 742,-19"/>
<text text-anchor="middle" x="685" y="-7" font-family="Helvetica,sans-Serif" font-size="10.00">Logger::GetInstance</text>
</a>
</g>
</g>
<!-- Node3&#45;&gt;Node9 -->
<g id="edge8_Node000003_Node000009" class="edge">
<title>Node3&#45;&gt;Node9</title>
<g id="a_edge8_Node000003_Node000009"><a xlink:title=" ">
<path fill="none" stroke="#63b8ff" d="M494.52,-73.83C514.73,-61.26 552.18,-39.5 587,-27.5 596.82,-24.12 607.42,-21.33 617.9,-19.04"/>
<polygon fill="#63b8ff" stroke="#63b8ff" points="618.77,-22.43 627.87,-16.99 617.37,-15.57 618.77,-22.43"/>
</a>
</g>
</g>
<!-- Node10 -->
<g id="Node000010" class="node">
<title>Node10</title>
<g id="a_Node000010"><a xlink:href="classLogger.html#a4681229c521795685fc14f6b55c82300" target="_top" xlink:title="Log info message.">
<polygon fill="white" stroke="#666666" points="722,-93 648,-93 648,-74 722,-74 722,-93"/>
<text text-anchor="middle" x="685" y="-81" font-family="Helvetica,sans-Serif" font-size="10.00">Logger::Info</text>
</a>
</g>
</g>
<!-- Node3&#45;&gt;Node10 -->
<g id="edge9_Node000003_Node000010" class="edge">
<title>Node3&#45;&gt;Node10</title>
<g id="a_edge9_Node000003_Node000010"><a xlink:title=" ">
<path fill="none" stroke="#63b8ff" d="M551.02,-83.5C579.77,-83.5 612.1,-83.5 637.68,-83.5"/>
<polygon fill="#63b8ff" stroke="#63b8ff" points="637.84,-87 647.84,-83.5 637.84,-80 637.84,-87"/>
</a>
</g>
</g>
<!-- Node11 -->
<g id="Node000011" class="node">
<title>Node11</title>
<g id="a_Node000011"><a xlink:href="classLogger.html#aaa95ffa14d07a965d4a85bdec82cba26" target="_top" xlink:title="Log warning message.">
<polygon fill="white" stroke="#666666" points="725,-56 645,-56 645,-37 725,-37 725,-56"/>
<text text-anchor="middle" x="685" y="-44" font-family="Helvetica,sans-Serif" font-size="10.00">Logger::Warn</text>
</a>
</g>
</g>
<!-- Node3&#45;&gt;Node11 -->
<g id="edge12_Node000003_Node000011" class="edge">
<title>Node3&#45;&gt;Node11</title>
<g id="a_edge12_Node000003_Node000011"><a xlink:title=" ">
<path fill="none" stroke="#63b8ff" d="M532.16,-73.97C563.74,-68.26 603.65,-61.04 634.62,-55.43"/>
<polygon fill="#63b8ff" stroke="#63b8ff" points="635.54,-58.82 644.76,-53.6 634.29,-51.94 635.54,-58.82"/>
</a>
</g>
</g>
<!-- Node6 -->
<g id="Node000006" class="node">
<title>Node6</title>
<g id="a_Node000006"><a xlink:href="classLogger.html#af9e84e0ff6bd538e4f9ed8dcebc3e2f0" target="_top" xlink:title="Check if log level is enabled for tag.">
<polygon fill="white" stroke="#666666" points="948,-111 819,-111 819,-92 948,-92 948,-111"/>
<text text-anchor="middle" x="883.5" y="-99" font-family="Helvetica,sans-Serif" font-size="10.00">Logger::IsLevelEnabled</text>
</a>
</g>
</g>
<!-- Node5&#45;&gt;Node6 -->
<g id="edge5_Node000005_Node000006" class="edge">
<title>Node5&#45;&gt;Node6</title>
<g id="a_edge5_Node000005_Node000006"><a xlink:title=" ">
<path fill="none" stroke="#63b8ff" d="M724.82,-116.75C748.63,-114.44 779.9,-111.42 808.3,-108.67"/>
<polygon fill="#63b8ff" stroke="#63b8ff" points="809,-112.12 818.62,-107.68 808.33,-105.16 809,-112.12"/>
</a>
</g>
</g>
<!-- Node7 -->
<g id="Node000007" class="node">
<title>Node7</title>
<g id="a_Node000007"><a xlink:href="classLogger.html#a6adb205db597526fb91ad20067400394" target="_top" xlink:title="Internal logging method.">
<polygon fill="white" stroke="#666666" points="938.5,-74 828.5,-74 828.5,-55 938.5,-55 938.5,-74"/>
<text text-anchor="middle" x="883.5" y="-62" font-family="Helvetica,sans-Serif" font-size="10.00">Logger::LogInternal</text>
</a>
</g>
</g>
<!-- Node5&#45;&gt;Node7 -->
<g id="edge6_Node000005_Node000007" class="edge">
<title>Node5&#45;&gt;Node7</title>
<g id="a_edge6_Node000005_Node000007"><a xlink:title=" ">
<path fill="none" stroke="#63b8ff" d="M724.93,-116.02C742.93,-113.26 764.4,-108.97 783,-102.5 800.09,-96.56 802.25,-90.35 819,-83.5 824.53,-81.24 830.42,-79.12 836.31,-77.16"/>
<polygon fill="#63b8ff" stroke="#63b8ff" points="837.67,-80.41 846.14,-74.05 835.55,-73.73 837.67,-80.41"/>
</a>
</g>
</g>
<!-- Node8 -->
<g id="Node000008" class="node">
<title>Node8</title>
<g id="a_Node000008"><a xlink:href="namespaceanonymous__namespace_02Logger_8cpp_03.html#a9d2b496fa1b4f4e28667d14e4b8cb190" target="_top" xlink:title=" ">
<polygon fill="white" stroke="#666666" points="1136,-79.5 984,-79.5 984,-49.5 1136,-49.5 1136,-79.5"/>
<text text-anchor="start" x="992" y="-67.5" font-family="Helvetica,sans-Serif" font-size="10.00">anonymous_namespace</text>
<text text-anchor="middle" x="1060" y="-56.5" font-family="Helvetica,sans-Serif" font-size="10.00">{Logger::cpp}::ToBaseLevel</text>
</a>
</g>
</g>
<!-- Node7&#45;&gt;Node8 -->
<g id="edge7_Node000007_Node000008" class="edge">
<title>Node7&#45;&gt;Node8</title>
<g id="a_edge7_Node000007_Node000008"><a xlink:title=" ">
<path fill="none" stroke="#63b8ff" d="M938.76,-64.5C949.93,-64.5 961.96,-64.5 973.93,-64.5"/>
<polygon fill="#63b8ff" stroke="#63b8ff" points="973.95,-68 983.95,-64.5 973.95,-61 973.95,-68"/>
</a>
</g>
</g>
<!-- Node10&#45;&gt;Node6 -->
<g id="edge10_Node000010_Node000006" class="edge">
<title>Node10&#45;&gt;Node6</title>
<g id="a_edge10_Node000010_Node000006"><a xlink:title=" ">
<path fill="none" stroke="#63b8ff" d="M722.04,-86.8C746.22,-89.02 778.95,-92.01 808.54,-94.72"/>
<polygon fill="#63b8ff" stroke="#63b8ff" points="808.58,-98.24 818.85,-95.67 809.22,-91.27 808.58,-98.24"/>
</a>
</g>
</g>
<!-- Node10&#45;&gt;Node7 -->
<g id="edge11_Node000010_Node000007" class="edge">
<title>Node10&#45;&gt;Node7</title>
<g id="a_edge11_Node000010_Node000007"><a xlink:title=" ">
<path fill="none" stroke="#63b8ff" d="M722.04,-80.02C748.83,-77.42 786.11,-73.82 818,-70.74"/>
<polygon fill="#63b8ff" stroke="#63b8ff" points="818.52,-74.2 828.14,-69.76 817.85,-67.24 818.52,-74.2"/>
</a>
</g>
</g>
<!-- Node11&#45;&gt;Node6 -->
<g id="edge13_Node000011_Node000006" class="edge">
<title>Node11&#45;&gt;Node6</title>
<g id="a_edge13_Node000011_Node000006"><a xlink:title=" ">
<path fill="none" stroke="#63b8ff" d="M725.33,-51.73C743.22,-54.73 764.48,-59.19 783,-65.5 799.93,-71.27 802.32,-77.03 819,-83.5 824.07,-85.47 829.45,-87.33 834.85,-89.05"/>
<polygon fill="#63b8ff" stroke="#63b8ff" points="833.92,-92.42 844.51,-91.99 835.96,-85.73 833.92,-92.42"/>
</a>
</g>
</g>
<!-- Node11&#45;&gt;Node7 -->
<g id="edge14_Node000011_Node000007" class="edge">
<title>Node11&#45;&gt;Node7</title>
<g id="a_edge14_Node000011_Node000007"><a xlink:title=" ">
<path fill="none" stroke="#63b8ff" d="M725.29,-50.1C751.86,-52.53 787.55,-55.8 818.21,-58.61"/>
<polygon fill="#63b8ff" stroke="#63b8ff" points="818.11,-62.12 828.39,-59.54 818.75,-55.15 818.11,-62.12"/>
</a>
</g>
</g>
</g>
</svg>
