<?xml version="1.0" encoding="UTF-8" standalone="no"?>
<!DOCTYPE svg PUBLIC "-//W3C//DTD SVG 1.1//EN"
 "http://www.w3.org/Graphics/SVG/1.1/DTD/svg11.dtd">
<!-- Generated by graphviz version 2.43.0 (0)
 -->
<!-- Title: Ws2812Handler::Initialize Pages: 1 -->
<svg width="465pt" height="138pt"
 viewBox="0.00 0.00 465.00 138.00" xmlns="http://www.w3.org/2000/svg" xmlns:xlink="http://www.w3.org/1999/xlink">
<g id="graph0" class="graph" transform="scale(1 1) rotate(0) translate(4 134)">
<title>Ws2812Handler::Initialize</title>
<!-- Node1 -->
<g id="Node000001" class="node">
<title>Node1</title>
<g id="a_Node000001"><a xlink:title="Initialize the RMT channel and LED strip.">
<polygon fill="#999999" stroke="#666666" points="142,-74 0,-74 0,-55 142,-55 142,-74"/>
<text text-anchor="middle" x="71" y="-62" font-family="Helvetica,sans-Serif" font-size="10.00">Ws2812Handler::Initialize</text>
</a>
</g>
</g>
<!-- Node2 -->
<g id="Node000002" class="node">
<title>Node2</title>
<g id="a_Node000002"><a xlink:href="classLogger.html#a5e4bcdaea60b9ac227b564d780388769" target="_top" xlink:title="Log error message.">
<polygon fill="white" stroke="#666666" points="274.5,-130 195.5,-130 195.5,-111 274.5,-111 274.5,-130"/>
<text text-anchor="middle" x="235" y="-118" font-family="Helvetica,sans-Serif" font-size="10.00">Logger::Error</text>
</a>
</g>
</g>
<!-- Node1&#45;&gt;Node2 -->
<g id="edge1_Node000001_Node000002" class="edge">
<title>Node1&#45;&gt;Node2</title>
<g id="a_edge1_Node000001_Node000002"><a xlink:title=" ">
<path fill="none" stroke="#63b8ff" d="M98.05,-74.11C119.46,-81.94 150.61,-93.19 178,-102.5 183.2,-104.27 188.68,-106.08 194.1,-107.85"/>
<polygon fill="#63b8ff" stroke="#63b8ff" points="193.12,-111.22 203.71,-110.97 195.28,-104.56 193.12,-111.22"/>
</a>
</g>
</g>
<!-- Node5 -->
<g id="Node000005" class="node">
<title>Node5</title>
<g id="a_Node000005"><a xlink:href="classLogger.html#a5789d11f8f1356e2192c0023a089cbc4" target="_top" xlink:title="Get singleton instance.">
<polygon fill="white" stroke="#666666" points="292,-19 178,-19 178,0 292,0 292,-19"/>
<text text-anchor="middle" x="235" y="-7" font-family="Helvetica,sans-Serif" font-size="10.00">Logger::GetInstance</text>
</a>
</g>
</g>
<!-- Node1&#45;&gt;Node5 -->
<g id="edge4_Node000001_Node000005" class="edge">
<title>Node1&#45;&gt;Node5</title>
<g id="a_edge4_Node000001_Node000005"><a xlink:title=" ">
<path fill="none" stroke="#63b8ff" d="M98.95,-54.89C120.33,-47.31 151.02,-36.54 178,-27.5 183.2,-25.76 188.69,-23.95 194.11,-22.19"/>
<polygon fill="#63b8ff" stroke="#63b8ff" points="195.29,-25.48 203.73,-19.08 193.14,-18.82 195.29,-25.48"/>
</a>
</g>
</g>
<!-- Node6 -->
<g id="Node000006" class="node">
<title>Node6</title>
<g id="a_Node000006"><a xlink:href="classLogger.html#a1c0c947d87884bca0395fd38d19d1102" target="_top" xlink:title="Log info message.">
<polygon fill="white" stroke="#666666" points="272,-93 198,-93 198,-74 272,-74 272,-93"/>
<text text-anchor="middle" x="235" y="-81" font-family="Helvetica,sans-Serif" font-size="10.00">Logger::Info</text>
</a>
</g>
</g>
<!-- Node1&#45;&gt;Node6 -->
<g id="edge5_Node000001_Node000006" class="edge">
<title>Node1&#45;&gt;Node6</title>
<g id="a_edge5_Node000001_Node000006"><a xlink:title=" ">
<path fill="none" stroke="#63b8ff" d="M142.11,-72.72C157.53,-74.53 173.48,-76.4 187.67,-78.07"/>
<polygon fill="#63b8ff" stroke="#63b8ff" points="187.33,-81.55 197.67,-79.24 188.15,-74.6 187.33,-81.55"/>
</a>
</g>
</g>
<!-- Node7 -->
<g id="Node000007" class="node">
<title>Node7</title>
<g id="a_Node000007"><a xlink:href="classLogger.html#a8c19c14724b0be1d2be63da4258c001a" target="_top" xlink:title="Log warning message.">
<polygon fill="white" stroke="#666666" points="275,-56 195,-56 195,-37 275,-37 275,-56"/>
<text text-anchor="middle" x="235" y="-44" font-family="Helvetica,sans-Serif" font-size="10.00">Logger::Warn</text>
</a>
</g>
</g>
<!-- Node1&#45;&gt;Node7 -->
<g id="edge8_Node000001_Node000007" class="edge">
<title>Node1&#45;&gt;Node7</title>
<g id="a_edge8_Node000001_Node000007"><a xlink:title=" ">
<path fill="none" stroke="#63b8ff" d="M142.11,-56.71C156.42,-55.12 171.2,-53.48 184.6,-51.99"/>
<polygon fill="#63b8ff" stroke="#63b8ff" points="185,-55.47 194.55,-50.88 184.22,-48.51 185,-55.47"/>
</a>
</g>
</g>
<!-- Node3 -->
<g id="Node000003" class="node">
<title>Node3</title>
<g id="a_Node000003"><a xlink:href="classLogger.html#a737b981213c02321a5235848334d7191" target="_top" xlink:title="Check if log level is enabled for tag.">
<polygon fill="white" stroke="#666666" points="457,-111 328,-111 328,-92 457,-92 457,-111"/>
<text text-anchor="middle" x="392.5" y="-99" font-family="Helvetica,sans-Serif" font-size="10.00">Logger::IsLevelEnabled</text>
</a>
</g>
</g>
<!-- Node2&#45;&gt;Node3 -->
<g id="edge2_Node000002_Node000003" class="edge">
<title>Node2&#45;&gt;Node3</title>
<g id="a_edge2_Node000002_Node000003"><a xlink:title=" ">
<path fill="none" stroke="#63b8ff" d="M274.84,-115.75C287.85,-114.16 302.82,-112.34 317.6,-110.53"/>
<polygon fill="#63b8ff" stroke="#63b8ff" points="318.28,-113.97 327.78,-109.29 317.43,-107.02 318.28,-113.97"/>
</a>
</g>
</g>
<!-- Node4 -->
<g id="Node000004" class="node">
<title>Node4</title>
<g id="a_Node000004"><a xlink:href="classLogger.html#aeede6ac18db92a47caede076ef188a13" target="_top" xlink:title="Internal logging method.">
<polygon fill="white" stroke="#666666" points="447.5,-74 337.5,-74 337.5,-55 447.5,-55 447.5,-74"/>
<text text-anchor="middle" x="392.5" y="-62" font-family="Helvetica,sans-Serif" font-size="10.00">Logger::LogInternal</text>
</a>
</g>
</g>
<!-- Node2&#45;&gt;Node4 -->
<g id="edge3_Node000002_Node000004" class="edge">
<title>Node2&#45;&gt;Node4</title>
<g id="a_edge3_Node000002_Node000004"><a xlink:title=" ">
<path fill="none" stroke="#63b8ff" d="M268.92,-110.98C276.59,-108.47 284.66,-105.59 292,-102.5 308.68,-95.48 311.25,-90.35 328,-83.5 333.53,-81.24 339.42,-79.12 345.31,-77.16"/>
<polygon fill="#63b8ff" stroke="#63b8ff" points="346.67,-80.41 355.14,-74.05 344.55,-73.73 346.67,-80.41"/>
</a>
</g>
</g>
<!-- Node6&#45;&gt;Node3 -->
<g id="edge6_Node000006_Node000003" class="edge">
<title>Node6&#45;&gt;Node3</title>
<g id="a_edge6_Node000006_Node000003"><a xlink:title=" ">
<path fill="none" stroke="#63b8ff" d="M272.07,-87.67C285.68,-89.25 301.72,-91.11 317.55,-92.94"/>
<polygon fill="#63b8ff" stroke="#63b8ff" points="317.55,-96.46 327.89,-94.14 318.36,-89.51 317.55,-96.46"/>
</a>
</g>
</g>
<!-- Node6&#45;&gt;Node4 -->
<g id="edge7_Node000006_Node000004" class="edge">
<title>Node6&#45;&gt;Node4</title>
<g id="a_edge7_Node000006_Node000004"><a xlink:title=" ">
<path fill="none" stroke="#63b8ff" d="M272.07,-79.09C288.49,-77.09 308.44,-74.65 327.3,-72.34"/>
<polygon fill="#63b8ff" stroke="#63b8ff" points="327.83,-75.81 337.33,-71.12 326.98,-68.86 327.83,-75.81"/>
</a>
</g>
</g>
<!-- Node7&#45;&gt;Node3 -->
<g id="edge9_Node000007_Node000003" class="edge">
<title>Node7&#45;&gt;Node3</title>
<g id="a_edge9_Node000007_Node000003"><a xlink:title=" ">
<path fill="none" stroke="#63b8ff" d="M266.51,-56.01C274.86,-58.84 283.85,-62.1 292,-65.5 308.51,-72.39 311.32,-77.03 328,-83.5 333.07,-85.47 338.45,-87.33 343.85,-89.05"/>
<polygon fill="#63b8ff" stroke="#63b8ff" points="342.92,-92.42 353.51,-91.99 344.96,-85.73 342.92,-92.42"/>
</a>
</g>
</g>
<!-- Node7&#45;&gt;Node4 -->
<g id="edge10_Node000007_Node000004" class="edge">
<title>Node7&#45;&gt;Node4</title>
<g id="a_edge10_Node000007_Node000004"><a xlink:title=" ">
<path fill="none" stroke="#63b8ff" d="M275.24,-51.04C290.96,-52.86 309.49,-55.01 327.08,-57.04"/>
<polygon fill="#63b8ff" stroke="#63b8ff" points="326.96,-60.55 337.3,-58.23 327.77,-53.6 326.96,-60.55"/>
</a>
</g>
</g>
</g>
</svg>
