<?xml version="1.0" encoding="UTF-8" standalone="no"?>
<!DOCTYPE svg PUBLIC "-//W3C//DTD SVG 1.1//EN"
 "http://www.w3.org/Graphics/SVG/1.1/DTD/svg11.dtd">
<!-- Generated by graphviz version 2.43.0 (0)
 -->
<!-- Title: Tmc9660AdcWrapper::Initialize Pages: 1 -->
<svg width="1240pt" height="195pt"
 viewBox="0.00 0.00 1240.00 194.50" xmlns="http://www.w3.org/2000/svg" xmlns:xlink="http://www.w3.org/1999/xlink">
<g id="graph0" class="graph" transform="scale(1 1) rotate(0) translate(4 190.5)">
<title>Tmc9660AdcWrapper::Initialize</title>
<!-- Node1 -->
<g id="Node000001" class="node">
<title>Node1</title>
<g id="a_Node000001"><a xlink:title=" ">
<polygon fill="#999999" stroke="#666666" points="127,-51 0,-51 0,-21 127,-21 127,-51"/>
<text text-anchor="start" x="8" y="-39" font-family="Helvetica,sans-Serif" font-size="10.00">Tmc9660AdcWrapper::</text>
<text text-anchor="middle" x="63.5" y="-28" font-family="Helvetica,sans-Serif" font-size="10.00">Initialize</text>
</a>
</g>
</g>
<!-- Node2 -->
<g id="Node000002" class="node">
<title>Node2</title>
<g id="a_Node000002"><a xlink:href="classTmc9660Handler.html#a7fe382c4dbf6bf84ed31586e52ec2e6e" target="_top" xlink:title="Get a reference to the ADC wrapper.">
<polygon fill="white" stroke="#666666" points="286.5,-67.5 163.5,-67.5 163.5,-48.5 286.5,-48.5 286.5,-67.5"/>
<text text-anchor="middle" x="225" y="-55.5" font-family="Helvetica,sans-Serif" font-size="10.00">Tmc9660Handler::adc</text>
</a>
</g>
</g>
<!-- Node1&#45;&gt;Node2 -->
<g id="edge1_Node000001_Node000002" class="edge">
<title>Node1&#45;&gt;Node2</title>
<g id="a_edge1_Node000001_Node000002"><a xlink:title=" ">
<path fill="none" stroke="#63b8ff" d="M127.08,-44.63C135.67,-45.82 144.55,-47.04 153.27,-48.24"/>
<polygon fill="#63b8ff" stroke="#63b8ff" points="153.04,-51.75 163.43,-49.65 154,-44.81 153.04,-51.75"/>
</a>
</g>
</g>
<!-- Node13 -->
<g id="Node000013" class="node">
<title>Node13</title>
<g id="a_Node000013"><a xlink:href="classTmc9660Handler_1_1Adc.html#a3b750314ba12d924c747518c3949bc1f" target="_top" xlink:title="Initialize ADC wrapper (no&#45;op; TMC9660 ADC is always available).">
<polygon fill="white" stroke="#666666" points="287,-30 163,-30 163,0 287,0 287,-30"/>
<text text-anchor="start" x="171" y="-18" font-family="Helvetica,sans-Serif" font-size="10.00">Tmc9660Handler::Adc</text>
<text text-anchor="middle" x="225" y="-7" font-family="Helvetica,sans-Serif" font-size="10.00">::Initialize</text>
</a>
</g>
</g>
<!-- Node1&#45;&gt;Node13 -->
<g id="edge17_Node000001_Node000013" class="edge">
<title>Node1&#45;&gt;Node13</title>
<g id="a_edge17_Node000001_Node000013"><a xlink:title=" ">
<path fill="none" stroke="#63b8ff" d="M127.08,-27.76C135.55,-26.65 144.29,-25.49 152.89,-24.36"/>
<polygon fill="#63b8ff" stroke="#63b8ff" points="153.45,-27.82 162.91,-23.04 152.53,-20.88 153.45,-27.82"/>
</a>
</g>
</g>
<!-- Node3 -->
<g id="Node000003" class="node">
<title>Node3</title>
<g id="a_Node000003"><a xlink:href="classTmc9660Handler.html#a5a279ae9d4b5a8e0d71cb24577ad88ea" target="_top" xlink:title="Ensure driver is initialized (lazy init entrypoint).">
<polygon fill="white" stroke="#666666" points="510,-86.5 323,-86.5 323,-67.5 510,-67.5 510,-86.5"/>
<text text-anchor="middle" x="416.5" y="-74.5" font-family="Helvetica,sans-Serif" font-size="10.00">Tmc9660Handler::EnsureInitialized</text>
</a>
</g>
</g>
<!-- Node2&#45;&gt;Node3 -->
<g id="edge2_Node000002_Node000003" class="edge">
<title>Node2&#45;&gt;Node3</title>
<g id="a_edge2_Node000002_Node000003"><a xlink:title=" ">
<path fill="none" stroke="#63b8ff" d="M286.74,-64.09C295.08,-64.93 303.82,-65.8 312.66,-66.69"/>
<polygon fill="#63b8ff" stroke="#63b8ff" points="312.36,-70.18 322.66,-67.69 313.06,-63.21 312.36,-70.18"/>
</a>
</g>
</g>
<!-- Node12 -->
<g id="Node000012" class="node">
<title>Node12</title>
<g id="a_Node000012"><a xlink:href="classTmc9660Handler.html#a393382194d0602e7aa02da6a8fd7a20a" target="_top" xlink:title="Get a reference to the Temperature wrapper.">
<polygon fill="white" stroke="#666666" points="723,-67.5 556,-67.5 556,-48.5 723,-48.5 723,-67.5"/>
<text text-anchor="middle" x="639.5" y="-55.5" font-family="Helvetica,sans-Serif" font-size="10.00">Tmc9660Handler::temperature</text>
</a>
</g>
</g>
<!-- Node2&#45;&gt;Node12 -->
<g id="edge16_Node000002_Node000012" class="edge">
<title>Node2&#45;&gt;Node12</title>
<g id="a_edge16_Node000002_Node000012"><a xlink:title=" ">
<path fill="none" stroke="#63b8ff" d="M286.87,-58C354.96,-58 466.08,-58 545.17,-58"/>
<polygon fill="#63b8ff" stroke="#63b8ff" points="545.63,-61.5 555.63,-58 545.63,-54.5 545.63,-61.5"/>
</a>
</g>
</g>
<!-- Node4 -->
<g id="Node000004" class="node">
<title>Node4</title>
<g id="a_Node000004"><a xlink:href="classTmc9660Handler.html#a7c1d8073576d678b09dac24c9eb12845" target="_top" xlink:title="Ensure initialized while handler_mutex_ is already held.">
<polygon fill="white" stroke="#666666" points="733,-134 546,-134 546,-104 733,-104 733,-134"/>
<text text-anchor="start" x="554" y="-122" font-family="Helvetica,sans-Serif" font-size="10.00">Tmc9660Handler::EnsureInitialized</text>
<text text-anchor="middle" x="639.5" y="-111" font-family="Helvetica,sans-Serif" font-size="10.00">Locked</text>
</a>
</g>
</g>
<!-- Node3&#45;&gt;Node4 -->
<g id="edge3_Node000003_Node000004" class="edge">
<title>Node3&#45;&gt;Node4</title>
<g id="a_edge3_Node000003_Node000004"><a xlink:title=" ">
<path fill="none" stroke="#63b8ff" d="M467.65,-86.53C491.81,-91.12 521.52,-96.77 549.35,-102.06"/>
<polygon fill="#63b8ff" stroke="#63b8ff" points="549.03,-105.56 559.51,-103.99 550.34,-98.68 549.03,-105.56"/>
</a>
</g>
</g>
<!-- Node3&#45;&gt;Node12 -->
<g id="edge13_Node000003_Node000012" class="edge">
<title>Node3&#45;&gt;Node12</title>
<g id="a_edge13_Node000003_Node000012"><a xlink:title=" ">
<path fill="none" stroke="#63b8ff" d="M463.29,-67.47C487.15,-64.45 517.23,-61.5 545.7,-59.31"/>
<polygon fill="#63b8ff" stroke="#63b8ff" points="545.98,-62.79 555.69,-58.56 545.46,-55.81 545.98,-62.79"/>
</a>
</g>
</g>
<!-- Node5 -->
<g id="Node000005" class="node">
<title>Node5</title>
<g id="a_Node000005"><a xlink:href="classTmc9660Handler.html#adc564847f8ae26c47412aaee0758991c" target="_top" xlink:title="Initialize the TMC9660 device.">
<polygon fill="white" stroke="#666666" points="917,-149.5 769,-149.5 769,-130.5 917,-130.5 917,-149.5"/>
<text text-anchor="middle" x="843" y="-137.5" font-family="Helvetica,sans-Serif" font-size="10.00">Tmc9660Handler::Initialize</text>
</a>
</g>
</g>
<!-- Node4&#45;&gt;Node5 -->
<g id="edge4_Node000004_Node000005" class="edge">
<title>Node4&#45;&gt;Node5</title>
<g id="a_edge4_Node000004_Node000005"><a xlink:title=" ">
<path fill="none" stroke="#63b8ff" d="M733.29,-128.67C741.73,-129.55 750.25,-130.44 758.61,-131.31"/>
<polygon fill="#63b8ff" stroke="#63b8ff" points="758.39,-134.81 768.7,-132.36 759.12,-127.84 758.39,-134.81"/>
</a>
</g>
</g>
<!-- Node11 -->
<g id="Node000011" class="node">
<title>Node11</title>
<g id="a_Node000011"><a xlink:href="classTmc9660Handler.html#a13db97d201a287d8aa60384e04070b9f" target="_top" xlink:title="Check if the TMC9660 driver has been initialized and is ready.">
<polygon fill="white" stroke="#666666" points="915,-112 771,-112 771,-82 915,-82 915,-112"/>
<text text-anchor="start" x="779" y="-100" font-family="Helvetica,sans-Serif" font-size="10.00">Tmc9660Handler::IsDriver</text>
<text text-anchor="middle" x="843" y="-89" font-family="Helvetica,sans-Serif" font-size="10.00">Ready</text>
</a>
</g>
</g>
<!-- Node4&#45;&gt;Node11 -->
<g id="edge12_Node000004_Node000011" class="edge">
<title>Node4&#45;&gt;Node11</title>
<g id="a_edge12_Node000004_Node000011"><a xlink:title=" ">
<path fill="none" stroke="#63b8ff" d="M733.29,-108.87C742.44,-107.87 751.69,-106.86 760.71,-105.87"/>
<polygon fill="#63b8ff" stroke="#63b8ff" points="761.24,-109.34 770.8,-104.77 760.48,-102.38 761.24,-109.34"/>
</a>
</g>
</g>
<!-- Node6 -->
<g id="Node000006" class="node">
<title>Node6</title>
<g id="a_Node000006"><a xlink:href="classLogger.html#adce17848a5844e053bfd314863dc1404" target="_top" xlink:title="Log error message.">
<polygon fill="white" stroke="#666666" points="1049.5,-149.5 970.5,-149.5 970.5,-130.5 1049.5,-130.5 1049.5,-149.5"/>
<text text-anchor="middle" x="1010" y="-137.5" font-family="Helvetica,sans-Serif" font-size="10.00">Logger::Error</text>
</a>
</g>
</g>
<!-- Node5&#45;&gt;Node6 -->
<g id="edge5_Node000005_Node000006" class="edge">
<title>Node5&#45;&gt;Node6</title>
<g id="a_edge5_Node000005_Node000006"><a xlink:title=" ">
<path fill="none" stroke="#63b8ff" d="M917.33,-140C931.73,-140 946.5,-140 959.87,-140"/>
<polygon fill="#63b8ff" stroke="#63b8ff" points="960.26,-143.5 970.26,-140 960.26,-136.5 960.26,-143.5"/>
</a>
</g>
</g>
<!-- Node9 -->
<g id="Node000009" class="node">
<title>Node9</title>
<g id="a_Node000009"><a xlink:href="classLogger.html#a5789d11f8f1356e2192c0023a089cbc4" target="_top" xlink:title="Get singleton instance.">
<polygon fill="white" stroke="#666666" points="1067,-112.5 953,-112.5 953,-93.5 1067,-93.5 1067,-112.5"/>
<text text-anchor="middle" x="1010" y="-100.5" font-family="Helvetica,sans-Serif" font-size="10.00">Logger::GetInstance</text>
</a>
</g>
</g>
<!-- Node5&#45;&gt;Node9 -->
<g id="edge8_Node000005_Node000009" class="edge">
<title>Node5&#45;&gt;Node9</title>
<g id="a_edge8_Node000005_Node000009"><a xlink:title=" ">
<path fill="none" stroke="#63b8ff" d="M886.49,-130.47C907.87,-125.68 933.97,-119.82 956.58,-114.75"/>
<polygon fill="#63b8ff" stroke="#63b8ff" points="957.37,-118.16 966.37,-112.56 955.84,-111.33 957.37,-118.16"/>
</a>
</g>
</g>
<!-- Node10 -->
<g id="Node000010" class="node">
<title>Node10</title>
<g id="a_Node000010"><a xlink:href="classLogger.html#a4681229c521795685fc14f6b55c82300" target="_top" xlink:title="Log info message.">
<polygon fill="white" stroke="#666666" points="1047,-186.5 973,-186.5 973,-167.5 1047,-167.5 1047,-186.5"/>
<text text-anchor="middle" x="1010" y="-174.5" font-family="Helvetica,sans-Serif" font-size="10.00">Logger::Info</text>
</a>
</g>
</g>
<!-- Node5&#45;&gt;Node10 -->
<g id="edge9_Node000005_Node000010" class="edge">
<title>Node5&#45;&gt;Node10</title>
<g id="a_edge9_Node000005_Node000010"><a xlink:title=" ">
<path fill="none" stroke="#63b8ff" d="M886.49,-149.53C909.89,-154.77 938.94,-161.29 962.89,-166.66"/>
<polygon fill="#63b8ff" stroke="#63b8ff" points="962.28,-170.11 972.8,-168.88 963.81,-163.28 962.28,-170.11"/>
</a>
</g>
</g>
<!-- Node7 -->
<g id="Node000007" class="node">
<title>Node7</title>
<g id="a_Node000007"><a xlink:href="classLogger.html#af9e84e0ff6bd538e4f9ed8dcebc3e2f0" target="_top" xlink:title="Check if log level is enabled for tag.">
<polygon fill="white" stroke="#666666" points="1232,-186.5 1103,-186.5 1103,-167.5 1232,-167.5 1232,-186.5"/>
<text text-anchor="middle" x="1167.5" y="-174.5" font-family="Helvetica,sans-Serif" font-size="10.00">Logger::IsLevelEnabled</text>
</a>
</g>
</g>
<!-- Node6&#45;&gt;Node7 -->
<g id="edge6_Node000006_Node000007" class="edge">
<title>Node6&#45;&gt;Node7</title>
<g id="a_edge6_Node000006_Node000007"><a xlink:title=" ">
<path fill="none" stroke="#63b8ff" d="M1049.84,-149.24C1070.03,-154.05 1094.94,-159.97 1116.55,-165.11"/>
<polygon fill="#63b8ff" stroke="#63b8ff" points="1116,-168.58 1126.53,-167.49 1117.62,-161.77 1116,-168.58"/>
</a>
</g>
</g>
<!-- Node8 -->
<g id="Node000008" class="node">
<title>Node8</title>
<g id="a_Node000008"><a xlink:href="classLogger.html#a6adb205db597526fb91ad20067400394" target="_top" xlink:title="Internal logging method.">
<polygon fill="white" stroke="#666666" points="1222.5,-149.5 1112.5,-149.5 1112.5,-130.5 1222.5,-130.5 1222.5,-149.5"/>
<text text-anchor="middle" x="1167.5" y="-137.5" font-family="Helvetica,sans-Serif" font-size="10.00">Logger::LogInternal</text>
</a>
</g>
</g>
<!-- Node6&#45;&gt;Node8 -->
<g id="edge7_Node000006_Node000008" class="edge">
<title>Node6&#45;&gt;Node8</title>
<g id="a_edge7_Node000006_Node000008"><a xlink:title=" ">
<path fill="none" stroke="#63b8ff" d="M1049.84,-140C1065.63,-140 1084.31,-140 1102.03,-140"/>
<polygon fill="#63b8ff" stroke="#63b8ff" points="1102.33,-143.5 1112.33,-140 1102.33,-136.5 1102.33,-143.5"/>
</a>
</g>
</g>
<!-- Node10&#45;&gt;Node7 -->
<g id="edge10_Node000010_Node000007" class="edge">
<title>Node10&#45;&gt;Node7</title>
<g id="a_edge10_Node000010_Node000007"><a xlink:title=" ">
<path fill="none" stroke="#63b8ff" d="M1047.07,-177C1060.68,-177 1076.72,-177 1092.55,-177"/>
<polygon fill="#63b8ff" stroke="#63b8ff" points="1092.89,-180.5 1102.89,-177 1092.89,-173.5 1092.89,-180.5"/>
</a>
</g>
</g>
<!-- Node10&#45;&gt;Node8 -->
<g id="edge11_Node000010_Node000008" class="edge">
<title>Node10&#45;&gt;Node8</title>
<g id="a_edge11_Node000010_Node000008"><a xlink:title=" ">
<path fill="none" stroke="#63b8ff" d="M1047.07,-168.42C1067.78,-163.49 1094.09,-157.23 1116.74,-151.84"/>
<polygon fill="#63b8ff" stroke="#63b8ff" points="1117.61,-155.23 1126.53,-149.51 1115.99,-148.42 1117.61,-155.23"/>
</a>
</g>
</g>
<!-- Node12&#45;&gt;Node3 -->
<g id="edge14_Node000012_Node000003" class="edge">
<title>Node12&#45;&gt;Node3</title>
<g id="a_edge14_Node000012_Node000003"><a xlink:title=" ">
<path fill="none" stroke="#63b8ff" d="M592.68,-67.53C571.61,-70.2 545.7,-72.81 520.33,-74.9"/>
<polygon fill="#63b8ff" stroke="#63b8ff" points="519.95,-71.41 510.26,-75.7 520.51,-78.39 519.95,-71.41"/>
</a>
</g>
</g>
<!-- Node12&#45;&gt;Node12 -->
<g id="edge15_Node000012_Node000012" class="edge">
<title>Node12&#45;&gt;Node12</title>
<g id="a_edge15_Node000012_Node000012"><a xlink:title=" ">
<path fill="none" stroke="#63b8ff" d="M608.37,-67.58C593.22,-76.23 603.6,-85.5 639.5,-85.5 664.74,-85.5 677.37,-80.92 677.37,-75.19"/>
<polygon fill="#63b8ff" stroke="#63b8ff" points="679.89,-72.75 670.63,-67.58 674.65,-77.39 679.89,-72.75"/>
</a>
</g>
</g>
</g>
</svg>
