<?xml version="1.0" encoding="UTF-8" standalone="no"?>
<!DOCTYPE svg PUBLIC "-//W3C//DTD SVG 1.1//EN"
 "http://www.w3.org/Graphics/SVG/1.1/DTD/svg11.dtd">
<!-- Generated by graphviz version 2.43.0 (0)
 -->
<!-- Title: Tmc9660Handler::spiDriver Pages: 1 -->
<svg width="1113pt" height="150pt"
 viewBox="0.00 0.00 1113.00 149.50" xmlns="http://www.w3.org/2000/svg" xmlns:xlink="http://www.w3.org/1999/xlink">
<g id="graph0" class="graph" transform="scale(1 1) rotate(0) translate(4 145.5)">
<title>Tmc9660Handler::spiDriver</title>
<!-- Node1 -->
<g id="Node000001" class="node">
<title>Node1</title>
<g id="a_Node000001"><a xlink:title="Const version of spiDriver().">
<polygon fill="#999999" stroke="#666666" points="150,-48.5 0,-48.5 0,-29.5 150,-29.5 150,-48.5"/>
<text text-anchor="middle" x="75" y="-36.5" font-family="Helvetica,sans-Serif" font-size="10.00">Tmc9660Handler::spiDriver</text>
</a>
</g>
</g>
<!-- Node2 -->
<g id="Node000002" class="node">
<title>Node2</title>
<g id="a_Node000002"><a xlink:href="classTmc9660Handler.html#a393382194d0602e7aa02da6a8fd7a20a" target="_top" xlink:title="Get a reference to the Temperature wrapper.">
<polygon fill="white" stroke="#666666" points="353,-48.5 186,-48.5 186,-29.5 353,-29.5 353,-48.5"/>
<text text-anchor="middle" x="269.5" y="-36.5" font-family="Helvetica,sans-Serif" font-size="10.00">Tmc9660Handler::temperature</text>
</a>
</g>
</g>
<!-- Node1&#45;&gt;Node2 -->
<g id="edge1_Node000001_Node000002" class="edge">
<title>Node1&#45;&gt;Node2</title>
<g id="a_edge1_Node000001_Node000002"><a xlink:title=" ">
<path fill="none" stroke="#63b8ff" d="M150.15,-39C158.52,-39 167.13,-39 175.71,-39"/>
<polygon fill="#63b8ff" stroke="#63b8ff" points="175.74,-42.5 185.74,-39 175.74,-35.5 175.74,-42.5"/>
</a>
</g>
</g>
<!-- Node2&#45;&gt;Node2 -->
<g id="edge14_Node000002_Node000002" class="edge">
<title>Node2&#45;&gt;Node2</title>
<g id="a_edge14_Node000002_Node000002"><a xlink:title=" ">
<path fill="none" stroke="#63b8ff" d="M239.6,-48.58C225.05,-57.23 235.02,-66.5 269.5,-66.5 293.21,-66.5 305.32,-62.12 305.86,-56.57"/>
<polygon fill="#63b8ff" stroke="#63b8ff" points="308.41,-54.16 299.4,-48.58 302.96,-58.56 308.41,-54.16"/>
</a>
</g>
</g>
<!-- Node3 -->
<g id="Node000003" class="node">
<title>Node3</title>
<g id="a_Node000003"><a xlink:href="classTmc9660Handler.html#a5a279ae9d4b5a8e0d71cb24577ad88ea" target="_top" xlink:title="Ensure driver is initialized (lazy init entrypoint).">
<polygon fill="white" stroke="#666666" points="576,-29.5 389,-29.5 389,-10.5 576,-10.5 576,-29.5"/>
<text text-anchor="middle" x="482.5" y="-17.5" font-family="Helvetica,sans-Serif" font-size="10.00">Tmc9660Handler::EnsureInitialized</text>
</a>
</g>
</g>
<!-- Node2&#45;&gt;Node3 -->
<g id="edge2_Node000002_Node000003" class="edge">
<title>Node2&#45;&gt;Node3</title>
<g id="a_edge2_Node000002_Node000003"><a xlink:title=" ">
<path fill="none" stroke="#63b8ff" d="M353.29,-31.55C361.67,-30.79 370.25,-30.02 378.81,-29.25"/>
<polygon fill="#63b8ff" stroke="#63b8ff" points="379.18,-32.73 388.83,-28.34 378.56,-25.76 379.18,-32.73"/>
</a>
</g>
</g>
<!-- Node4 -->
<g id="Node000004" class="node">
<title>Node4</title>
<g id="a_Node000004"><a xlink:href="classTmc9660Handler.html#adc564847f8ae26c47412aaee0758991c" target="_top" xlink:title="Initialize the TMC9660 device.">
<polygon fill="white" stroke="#666666" points="760,-67.5 612,-67.5 612,-48.5 760,-48.5 760,-67.5"/>
<text text-anchor="middle" x="686" y="-55.5" font-family="Helvetica,sans-Serif" font-size="10.00">Tmc9660Handler::Initialize</text>
</a>
</g>
</g>
<!-- Node3&#45;&gt;Node4 -->
<g id="edge3_Node000003_Node000004" class="edge">
<title>Node3&#45;&gt;Node4</title>
<g id="a_edge3_Node000003_Node000004"><a xlink:title=" ">
<path fill="none" stroke="#63b8ff" d="M534.09,-29.54C561.51,-34.71 595.6,-41.14 624.43,-46.58"/>
<polygon fill="#63b8ff" stroke="#63b8ff" points="623.92,-50.04 634.39,-48.46 625.21,-43.16 623.92,-50.04"/>
</a>
</g>
</g>
<!-- Node10 -->
<g id="Node000010" class="node">
<title>Node10</title>
<g id="a_Node000010"><a xlink:href="classTmc9660Handler.html#a13db97d201a287d8aa60384e04070b9f" target="_top" xlink:title="Check if the TMC9660 driver has been initialized and is ready.">
<polygon fill="white" stroke="#666666" points="940,-30 796,-30 796,0 940,0 940,-30"/>
<text text-anchor="start" x="804" y="-18" font-family="Helvetica,sans-Serif" font-size="10.00">Tmc9660Handler::IsDriver</text>
<text text-anchor="middle" x="868" y="-7" font-family="Helvetica,sans-Serif" font-size="10.00">Ready</text>
</a>
</g>
</g>
<!-- Node3&#45;&gt;Node10 -->
<g id="edge13_Node000003_Node000010" class="edge">
<title>Node3&#45;&gt;Node10</title>
<g id="a_edge13_Node000003_Node000010"><a xlink:title=" ">
<path fill="none" stroke="#63b8ff" d="M576.33,-18.79C640.28,-17.96 724.42,-16.86 785.72,-16.06"/>
<polygon fill="#63b8ff" stroke="#63b8ff" points="785.78,-19.56 795.73,-15.93 785.69,-12.56 785.78,-19.56"/>
</a>
</g>
</g>
<!-- Node4&#45;&gt;Node2 -->
<g id="edge12_Node000004_Node000002" class="edge">
<title>Node4&#45;&gt;Node2</title>
<g id="a_edge12_Node000004_Node000002"><a xlink:title=" ">
<path fill="none" stroke="#63b8ff" d="M611.97,-54.65C542.87,-51.49 438.85,-46.72 363.78,-43.28"/>
<polygon fill="#63b8ff" stroke="#63b8ff" points="363.53,-39.76 353.38,-42.8 363.21,-46.75 363.53,-39.76"/>
</a>
</g>
</g>
<!-- Node5 -->
<g id="Node000005" class="node">
<title>Node5</title>
<g id="a_Node000005"><a xlink:href="classLogger.html#adce17848a5844e053bfd314863dc1404" target="_top" xlink:title="Log error message.">
<polygon fill="white" stroke="#666666" points="907.5,-141.5 828.5,-141.5 828.5,-122.5 907.5,-122.5 907.5,-141.5"/>
<text text-anchor="middle" x="868" y="-129.5" font-family="Helvetica,sans-Serif" font-size="10.00">Logger::Error</text>
</a>
</g>
</g>
<!-- Node4&#45;&gt;Node5 -->
<g id="edge4_Node000004_Node000005" class="edge">
<title>Node4&#45;&gt;Node5</title>
<g id="a_edge4_Node000004_Node000005"><a xlink:title=" ">
<path fill="none" stroke="#63b8ff" d="M702.73,-67.53C723.46,-79.74 761.37,-100.91 796,-114 803.11,-116.69 810.78,-119.1 818.35,-121.23"/>
<polygon fill="#63b8ff" stroke="#63b8ff" points="817.62,-124.66 828.19,-123.85 819.42,-117.89 817.62,-124.66"/>
</a>
</g>
</g>
<!-- Node8 -->
<g id="Node000008" class="node">
<title>Node8</title>
<g id="a_Node000008"><a xlink:href="classLogger.html#a5789d11f8f1356e2192c0023a089cbc4" target="_top" xlink:title="Get singleton instance.">
<polygon fill="white" stroke="#666666" points="925,-67.5 811,-67.5 811,-48.5 925,-48.5 925,-67.5"/>
<text text-anchor="middle" x="868" y="-55.5" font-family="Helvetica,sans-Serif" font-size="10.00">Logger::GetInstance</text>
</a>
</g>
</g>
<!-- Node4&#45;&gt;Node8 -->
<g id="edge7_Node000004_Node000008" class="edge">
<title>Node4&#45;&gt;Node8</title>
<g id="a_edge7_Node000004_Node000008"><a xlink:title=" ">
<path fill="none" stroke="#63b8ff" d="M760.21,-58C773.58,-58 787.45,-58 800.6,-58"/>
<polygon fill="#63b8ff" stroke="#63b8ff" points="800.97,-61.5 810.97,-58 800.97,-54.5 800.97,-61.5"/>
</a>
</g>
</g>
<!-- Node9 -->
<g id="Node000009" class="node">
<title>Node9</title>
<g id="a_Node000009"><a xlink:href="classLogger.html#a4681229c521795685fc14f6b55c82300" target="_top" xlink:title="Log info message.">
<polygon fill="white" stroke="#666666" points="905,-104.5 831,-104.5 831,-85.5 905,-85.5 905,-104.5"/>
<text text-anchor="middle" x="868" y="-92.5" font-family="Helvetica,sans-Serif" font-size="10.00">Logger::Info</text>
</a>
</g>
</g>
<!-- Node4&#45;&gt;Node9 -->
<g id="edge8_Node000004_Node000009" class="edge">
<title>Node4&#45;&gt;Node9</title>
<g id="a_edge8_Node000004_Node000009"><a xlink:title=" ">
<path fill="none" stroke="#63b8ff" d="M733.35,-67.53C760.23,-73.05 793.96,-79.99 820.81,-85.51"/>
<polygon fill="#63b8ff" stroke="#63b8ff" points="820.24,-88.96 830.74,-87.55 821.65,-82.1 820.24,-88.96"/>
</a>
</g>
</g>
<!-- Node4&#45;&gt;Node10 -->
<g id="edge11_Node000004_Node000010" class="edge">
<title>Node4&#45;&gt;Node10</title>
<g id="a_edge11_Node000004_Node000010"><a xlink:title=" ">
<path fill="none" stroke="#63b8ff" d="M726.95,-48.46C746.8,-43.72 771.4,-37.84 794.43,-32.34"/>
<polygon fill="#63b8ff" stroke="#63b8ff" points="795.27,-35.73 804.18,-30.01 793.64,-28.93 795.27,-35.73"/>
</a>
</g>
</g>
<!-- Node6 -->
<g id="Node000006" class="node">
<title>Node6</title>
<g id="a_Node000006"><a xlink:href="classLogger.html#af9e84e0ff6bd538e4f9ed8dcebc3e2f0" target="_top" xlink:title="Check if log level is enabled for tag.">
<polygon fill="white" stroke="#666666" points="1105,-141.5 976,-141.5 976,-122.5 1105,-122.5 1105,-141.5"/>
<text text-anchor="middle" x="1040.5" y="-129.5" font-family="Helvetica,sans-Serif" font-size="10.00">Logger::IsLevelEnabled</text>
</a>
</g>
</g>
<!-- Node5&#45;&gt;Node6 -->
<g id="edge5_Node000005_Node000006" class="edge">
<title>Node5&#45;&gt;Node6</title>
<g id="a_edge5_Node000005_Node000006"><a xlink:title=" ">
<path fill="none" stroke="#63b8ff" d="M907.69,-132C924.92,-132 945.81,-132 965.83,-132"/>
<polygon fill="#63b8ff" stroke="#63b8ff" points="965.89,-135.5 975.89,-132 965.89,-128.5 965.89,-135.5"/>
</a>
</g>
</g>
<!-- Node7 -->
<g id="Node000007" class="node">
<title>Node7</title>
<g id="a_Node000007"><a xlink:href="classLogger.html#a6adb205db597526fb91ad20067400394" target="_top" xlink:title="Internal logging method.">
<polygon fill="white" stroke="#666666" points="1095.5,-104.5 985.5,-104.5 985.5,-85.5 1095.5,-85.5 1095.5,-104.5"/>
<text text-anchor="middle" x="1040.5" y="-92.5" font-family="Helvetica,sans-Serif" font-size="10.00">Logger::LogInternal</text>
</a>
</g>
</g>
<!-- Node5&#45;&gt;Node7 -->
<g id="edge6_Node000005_Node000007" class="edge">
<title>Node5&#45;&gt;Node7</title>
<g id="a_edge6_Node000005_Node000007"><a xlink:title=" ">
<path fill="none" stroke="#63b8ff" d="M907.69,-123.6C930.76,-118.6 960.4,-112.17 985.72,-106.67"/>
<polygon fill="#63b8ff" stroke="#63b8ff" points="986.52,-110.08 995.55,-104.54 985.04,-103.24 986.52,-110.08"/>
</a>
</g>
</g>
<!-- Node9&#45;&gt;Node6 -->
<g id="edge9_Node000009_Node000006" class="edge">
<title>Node9&#45;&gt;Node6</title>
<g id="a_edge9_Node000009_Node000006"><a xlink:title=" ">
<path fill="none" stroke="#63b8ff" d="M905.16,-102.85C928.56,-107.93 959.45,-114.63 985.71,-120.33"/>
<polygon fill="#63b8ff" stroke="#63b8ff" points="985.01,-123.76 995.52,-122.46 986.49,-116.92 985.01,-123.76"/>
</a>
</g>
</g>
<!-- Node9&#45;&gt;Node7 -->
<g id="edge10_Node000009_Node000007" class="edge">
<title>Node9&#45;&gt;Node7</title>
<g id="a_edge10_Node000009_Node000007"><a xlink:title=" ">
<path fill="none" stroke="#63b8ff" d="M905.16,-95C925.42,-95 951.31,-95 974.93,-95"/>
<polygon fill="#63b8ff" stroke="#63b8ff" points="975.25,-98.5 985.25,-95 975.25,-91.5 975.25,-98.5"/>
</a>
</g>
</g>
</g>
</svg>
