<?xml version="1.0" encoding="UTF-8" standalone="no"?>
<!DOCTYPE svg PUBLIC "-//W3C//DTD SVG 1.1//EN"
 "http://www.w3.org/Graphics/SVG/1.1/DTD/svg11.dtd">
<!-- Generated by graphviz version 2.43.0 (0)
 -->
<!-- Title: Max22200Handler::withDriver Pages: 1 -->
<svg width="1128pt" height="203pt"
 viewBox="0.00 0.00 1128.00 203.50" xmlns="http://www.w3.org/2000/svg" xmlns:xlink="http://www.w3.org/1999/xlink">
<g id="graph0" class="graph" transform="scale(1 1) rotate(0) translate(4 199.5)">
<title>Max22200Handler::withDriver</title>
<!-- Node1 -->
<g id="Node000001" class="node">
<title>Node1</title>
<g id="a_Node000001"><a xlink:title="Execute a lambda with a locked, initialized driver.">
<polygon fill="#999999" stroke="#666666" points="163,-93 0,-93 0,-74 163,-74 163,-93"/>
<text text-anchor="middle" x="81.5" y="-81" font-family="Helvetica,sans-Serif" font-size="10.00">Max22200Handler::withDriver</text>
</a>
</g>
</g>
<!-- Node2 -->
<g id="Node000002" class="node">
<title>Node2</title>
<g id="a_Node000002"><a xlink:href="classMax22200Handler.html#aa00edacb247660349767fa4521121104" target="_top" xlink:title=" ">
<polygon fill="white" stroke="#666666" points="392,-98.5 199,-98.5 199,-68.5 392,-68.5 392,-98.5"/>
<text text-anchor="start" x="207" y="-86.5" font-family="Helvetica,sans-Serif" font-size="10.00">Max22200Handler::EnsureInitialized</text>
<text text-anchor="middle" x="295.5" y="-75.5" font-family="Helvetica,sans-Serif" font-size="10.00">Locked</text>
</a>
</g>
</g>
<!-- Node1&#45;&gt;Node2 -->
<g id="edge1_Node000001_Node000002" class="edge">
<title>Node1&#45;&gt;Node2</title>
<g id="a_edge1_Node000001_Node000002"><a xlink:title=" ">
<path fill="none" stroke="#63b8ff" d="M163.25,-83.5C171.58,-83.5 180.13,-83.5 188.67,-83.5"/>
<polygon fill="#63b8ff" stroke="#63b8ff" points="188.69,-87 198.69,-83.5 188.69,-80 188.69,-87"/>
</a>
</g>
</g>
<!-- Node3 -->
<g id="Node000003" class="node">
<title>Node3</title>
<g id="a_Node000003"><a xlink:href="classLogger.html#adce17848a5844e053bfd314863dc1404" target="_top" xlink:title="Log error message.">
<polygon fill="white" stroke="#666666" points="732,-19 653,-19 653,0 732,0 732,-19"/>
<text text-anchor="middle" x="692.5" y="-7" font-family="Helvetica,sans-Serif" font-size="10.00">Logger::Error</text>
</a>
</g>
</g>
<!-- Node2&#45;&gt;Node3 -->
<g id="edge2_Node000002_Node000003" class="edge">
<title>Node2&#45;&gt;Node3</title>
<g id="a_edge2_Node000002_Node000003"><a xlink:title=" ">
<path fill="none" stroke="#63b8ff" d="M376.91,-68.44C456.67,-53.49 576.3,-31.08 642.69,-18.64"/>
<polygon fill="#63b8ff" stroke="#63b8ff" points="643.69,-22.02 652.88,-16.74 642.4,-15.14 643.69,-22.02"/>
</a>
</g>
</g>
<!-- Node7 -->
<g id="Node000007" class="node">
<title>Node7</title>
<g id="a_Node000007"><a xlink:href="classLogger.html#a5789d11f8f1356e2192c0023a089cbc4" target="_top" xlink:title="Get singleton instance.">
<polygon fill="white" stroke="#666666" points="924.5,-174 810.5,-174 810.5,-155 924.5,-155 924.5,-174"/>
<text text-anchor="middle" x="867.5" y="-162" font-family="Helvetica,sans-Serif" font-size="10.00">Logger::GetInstance</text>
</a>
</g>
</g>
<!-- Node2&#45;&gt;Node7 -->
<g id="edge6_Node000002_Node000007" class="edge">
<title>Node2&#45;&gt;Node7</title>
<g id="a_edge6_Node000002_Node000007"><a xlink:title=" ">
<path fill="none" stroke="#63b8ff" d="M330.34,-98.51C388,-123.17 509.56,-171.24 618,-188.5 683.4,-198.91 701.24,-196.32 767,-188.5 786.32,-186.2 807.32,-181.48 825.03,-176.83"/>
<polygon fill="#63b8ff" stroke="#63b8ff" points="826.3,-180.11 835.03,-174.11 824.46,-173.35 826.3,-180.11"/>
</a>
</g>
</g>
<!-- Node8 -->
<g id="Node000008" class="node">
<title>Node8</title>
<g id="a_Node000008"><a xlink:href="classMax22200Handler.html#a0dce05cd6639a10e52c0f669b72baf52" target="_top" xlink:title="Initialize driver (ENABLE HIGH, read/clear STATUS, set ACTIVE).">
<polygon fill="white" stroke="#666666" points="582,-93 428,-93 428,-74 582,-74 582,-93"/>
<text text-anchor="middle" x="505" y="-81" font-family="Helvetica,sans-Serif" font-size="10.00">Max22200Handler::Initialize</text>
</a>
</g>
</g>
<!-- Node2&#45;&gt;Node8 -->
<g id="edge7_Node000002_Node000008" class="edge">
<title>Node2&#45;&gt;Node8</title>
<g id="a_edge7_Node000002_Node000008"><a xlink:title=" ">
<path fill="none" stroke="#63b8ff" d="M392.05,-83.5C400.6,-83.5 409.22,-83.5 417.68,-83.5"/>
<polygon fill="#63b8ff" stroke="#63b8ff" points="417.9,-87 427.9,-83.5 417.9,-80 417.9,-87"/>
</a>
</g>
</g>
<!-- Node4 -->
<g id="Node000004" class="node">
<title>Node4</title>
<g id="a_Node000004"><a xlink:href="classLogger.html#af9e84e0ff6bd538e4f9ed8dcebc3e2f0" target="_top" xlink:title="Check if log level is enabled for tag.">
<polygon fill="white" stroke="#666666" points="932,-38 803,-38 803,-19 932,-19 932,-38"/>
<text text-anchor="middle" x="867.5" y="-26" font-family="Helvetica,sans-Serif" font-size="10.00">Logger::IsLevelEnabled</text>
</a>
</g>
</g>
<!-- Node3&#45;&gt;Node4 -->
<g id="edge3_Node000003_Node000004" class="edge">
<title>Node3&#45;&gt;Node4</title>
<g id="a_edge3_Node000003_Node000004"><a xlink:title=" ">
<path fill="none" stroke="#63b8ff" d="M732.32,-13.76C750.13,-15.72 771.86,-18.11 792.6,-20.38"/>
<polygon fill="#63b8ff" stroke="#63b8ff" points="792.36,-23.88 802.68,-21.49 793.12,-16.92 792.36,-23.88"/>
</a>
</g>
</g>
<!-- Node5 -->
<g id="Node000005" class="node">
<title>Node5</title>
<g id="a_Node000005"><a xlink:href="classLogger.html#a6adb205db597526fb91ad20067400394" target="_top" xlink:title="Internal logging method.">
<polygon fill="white" stroke="#666666" points="922.5,-75 812.5,-75 812.5,-56 922.5,-56 922.5,-75"/>
<text text-anchor="middle" x="867.5" y="-63" font-family="Helvetica,sans-Serif" font-size="10.00">Logger::LogInternal</text>
</a>
</g>
</g>
<!-- Node3&#45;&gt;Node5 -->
<g id="edge4_Node000003_Node000005" class="edge">
<title>Node3&#45;&gt;Node5</title>
<g id="a_edge4_Node000003_Node000005"><a xlink:title=" ">
<path fill="none" stroke="#63b8ff" d="M732.19,-17.1C743.58,-19.83 755.95,-23.3 767,-27.5 783.91,-33.92 786.25,-39.65 803,-46.5 808.53,-48.76 814.42,-50.88 820.31,-52.84"/>
<polygon fill="#63b8ff" stroke="#63b8ff" points="819.55,-56.27 830.14,-55.95 821.67,-49.59 819.55,-56.27"/>
</a>
</g>
</g>
<!-- Node6 -->
<g id="Node000006" class="node">
<title>Node6</title>
<g id="a_Node000006"><a xlink:href="namespaceanonymous__namespace_02Logger_8cpp_03.html#a9d2b496fa1b4f4e28667d14e4b8cb190" target="_top" xlink:title=" ">
<polygon fill="white" stroke="#666666" points="1120,-80.5 968,-80.5 968,-50.5 1120,-50.5 1120,-80.5"/>
<text text-anchor="start" x="976" y="-68.5" font-family="Helvetica,sans-Serif" font-size="10.00">anonymous_namespace</text>
<text text-anchor="middle" x="1044" y="-57.5" font-family="Helvetica,sans-Serif" font-size="10.00">{Logger::cpp}::ToBaseLevel</text>
</a>
</g>
</g>
<!-- Node5&#45;&gt;Node6 -->
<g id="edge5_Node000005_Node000006" class="edge">
<title>Node5&#45;&gt;Node6</title>
<g id="a_edge5_Node000005_Node000006"><a xlink:title=" ">
<path fill="none" stroke="#63b8ff" d="M922.76,-65.5C933.93,-65.5 945.96,-65.5 957.93,-65.5"/>
<polygon fill="#63b8ff" stroke="#63b8ff" points="957.95,-69 967.95,-65.5 957.95,-62 957.95,-69"/>
</a>
</g>
</g>
<!-- Node8&#45;&gt;Node3 -->
<g id="edge8_Node000008_Node000003" class="edge">
<title>Node8&#45;&gt;Node3</title>
<g id="a_edge8_Node000008_Node000003"><a xlink:title=" ">
<path fill="none" stroke="#63b8ff" d="M522.18,-73.96C543.51,-61.72 582.49,-40.54 618,-27.5 625.98,-24.57 634.62,-21.97 643.07,-19.73"/>
<polygon fill="#63b8ff" stroke="#63b8ff" points="644.03,-23.09 652.87,-17.25 642.31,-16.31 644.03,-23.09"/>
</a>
</g>
</g>
<!-- Node8&#45;&gt;Node7 -->
<g id="edge9_Node000008_Node000007" class="edge">
<title>Node8&#45;&gt;Node7</title>
<g id="a_edge9_Node000008_Node000007"><a xlink:title=" ">
<path fill="none" stroke="#63b8ff" d="M551.33,-93.09C603.44,-104.18 691.51,-123.16 767,-140.5 783.64,-144.32 801.8,-148.66 818,-152.58"/>
<polygon fill="#63b8ff" stroke="#63b8ff" points="817.26,-156 827.8,-154.96 818.91,-149.2 817.26,-156"/>
</a>
</g>
</g>
<!-- Node9 -->
<g id="Node000009" class="node">
<title>Node9</title>
<g id="a_Node000009"><a xlink:href="classLogger.html#a4681229c521795685fc14f6b55c82300" target="_top" xlink:title="Log info message.">
<polygon fill="white" stroke="#666666" points="729.5,-93 655.5,-93 655.5,-74 729.5,-74 729.5,-93"/>
<text text-anchor="middle" x="692.5" y="-81" font-family="Helvetica,sans-Serif" font-size="10.00">Logger::Info</text>
</a>
</g>
</g>
<!-- Node8&#45;&gt;Node9 -->
<g id="edge10_Node000008_Node000009" class="edge">
<title>Node8&#45;&gt;Node9</title>
<g id="a_edge10_Node000008_Node000009"><a xlink:title=" ">
<path fill="none" stroke="#63b8ff" d="M582.25,-83.5C603.5,-83.5 625.94,-83.5 644.92,-83.5"/>
<polygon fill="#63b8ff" stroke="#63b8ff" points="645.08,-87 655.08,-83.5 645.08,-80 645.08,-87"/>
</a>
</g>
</g>
<!-- Node10 -->
<g id="Node000010" class="node">
<title>Node10</title>
<g id="a_Node000010"><a xlink:href="classMax22200Handler.html#a46a1ed5c96b117192f0cae05c4f9627b" target="_top" xlink:title="Bring the chip from POR through to a verified ACTIVE=1, UVM=0 state, then drain POR&#45;latched fault bit...">
<polygon fill="white" stroke="#666666" points="767,-179.5 618,-179.5 618,-149.5 767,-149.5 767,-179.5"/>
<text text-anchor="start" x="626" y="-167.5" font-family="Helvetica,sans-Serif" font-size="10.00">Max22200Handler::WaitFor</text>
<text text-anchor="middle" x="692.5" y="-156.5" font-family="Helvetica,sans-Serif" font-size="10.00">ActiveAndDrainFaults</text>
</a>
</g>
</g>
<!-- Node8&#45;&gt;Node10 -->
<g id="edge13_Node000008_Node000010" class="edge">
<title>Node8&#45;&gt;Node10</title>
<g id="a_edge13_Node000008_Node000010"><a xlink:title=" ">
<path fill="none" stroke="#63b8ff" d="M525.67,-93.06C547.91,-103.77 585.3,-121.47 618,-135.5 625.88,-138.88 634.3,-142.34 642.52,-145.64"/>
<polygon fill="#63b8ff" stroke="#63b8ff" points="641.45,-148.98 652.04,-149.42 644.04,-142.48 641.45,-148.98"/>
</a>
</g>
</g>
<!-- Node11 -->
<g id="Node000011" class="node">
<title>Node11</title>
<g id="a_Node000011"><a xlink:href="classLogger.html#aaa95ffa14d07a965d4a85bdec82cba26" target="_top" xlink:title="Log warning message.">
<polygon fill="white" stroke="#666666" points="732.5,-56 652.5,-56 652.5,-37 732.5,-37 732.5,-56"/>
<text text-anchor="middle" x="692.5" y="-44" font-family="Helvetica,sans-Serif" font-size="10.00">Logger::Warn</text>
</a>
</g>
</g>
<!-- Node8&#45;&gt;Node11 -->
<g id="edge15_Node000008_Node000011" class="edge">
<title>Node8&#45;&gt;Node11</title>
<g id="a_edge15_Node000008_Node000011"><a xlink:title=" ">
<path fill="none" stroke="#63b8ff" d="M553.77,-73.97C580.9,-68.56 614.8,-61.8 642.18,-56.34"/>
<polygon fill="#63b8ff" stroke="#63b8ff" points="643.21,-59.7 652.33,-54.31 641.84,-52.84 643.21,-59.7"/>
</a>
</g>
</g>
<!-- Node9&#45;&gt;Node4 -->
<g id="edge11_Node000009_Node000004" class="edge">
<title>Node9&#45;&gt;Node4</title>
<g id="a_edge11_Node000009_Node000004"><a xlink:title=" ">
<path fill="none" stroke="#63b8ff" d="M729.86,-75.71C741.85,-72.72 755.15,-68.94 767,-64.5 783.75,-58.23 786.32,-52.97 803,-46.5 808.07,-44.53 813.45,-42.67 818.85,-40.95"/>
<polygon fill="#63b8ff" stroke="#63b8ff" points="819.96,-44.27 828.51,-38.01 817.92,-37.58 819.96,-44.27"/>
</a>
</g>
</g>
<!-- Node9&#45;&gt;Node5 -->
<g id="edge12_Node000009_Node000005" class="edge">
<title>Node9&#45;&gt;Node5</title>
<g id="a_edge12_Node000009_Node000005"><a xlink:title=" ">
<path fill="none" stroke="#63b8ff" d="M729.77,-79.73C750.75,-77.54 777.78,-74.73 802.25,-72.18"/>
<polygon fill="#63b8ff" stroke="#63b8ff" points="802.62,-75.67 812.2,-71.15 801.89,-68.7 802.62,-75.67"/>
</a>
</g>
</g>
<!-- Node10&#45;&gt;Node7 -->
<g id="edge14_Node000010_Node000007" class="edge">
<title>Node10&#45;&gt;Node7</title>
<g id="a_edge14_Node000010_Node000007"><a xlink:title=" ">
<path fill="none" stroke="#63b8ff" d="M767.12,-164.5C778.06,-164.5 789.28,-164.5 800.07,-164.5"/>
<polygon fill="#63b8ff" stroke="#63b8ff" points="800.25,-168 810.25,-164.5 800.25,-161 800.25,-168"/>
</a>
</g>
</g>
<!-- Node11&#45;&gt;Node4 -->
<g id="edge16_Node000011_Node000004" class="edge">
<title>Node11&#45;&gt;Node4</title>
<g id="a_edge16_Node000011_Node000004"><a xlink:title=" ">
<path fill="none" stroke="#63b8ff" d="M732.76,-42.42C750.58,-40.56 772.26,-38.31 792.93,-36.16"/>
<polygon fill="#63b8ff" stroke="#63b8ff" points="793.39,-39.63 802.97,-35.11 792.66,-32.66 793.39,-39.63"/>
</a>
</g>
</g>
<!-- Node11&#45;&gt;Node5 -->
<g id="edge17_Node000011_Node000005" class="edge">
<title>Node11&#45;&gt;Node5</title>
<g id="a_edge17_Node000011_Node000005"><a xlink:title=" ">
<path fill="none" stroke="#63b8ff" d="M732.76,-50.81C753.25,-53.06 778.85,-55.87 802.15,-58.43"/>
<polygon fill="#63b8ff" stroke="#63b8ff" points="802,-61.94 812.32,-59.55 802.76,-54.98 802,-61.94"/>
</a>
</g>
</g>
</g>
</svg>
