<?xml version="1.0" encoding="UTF-8" standalone="no"?>
<!DOCTYPE svg PUBLIC "-//W3C//DTD SVG 1.1//EN"
 "http://www.w3.org/Graphics/SVG/1.1/DTD/svg11.dtd">
<!-- Generated by graphviz version 2.43.0 (0)
 -->
<!-- Title: Ws2812Handler::GetStrip Pages: 1 -->
<svg width="1034pt" height="138pt"
 viewBox="0.00 0.00 1034.00 138.00" xmlns="http://www.w3.org/2000/svg" xmlns:xlink="http://www.w3.org/1999/xlink">
<g id="graph0" class="graph" transform="scale(1 1) rotate(0) translate(4 134)">
<title>Ws2812Handler::GetStrip</title>
<!-- Node1 -->
<g id="Node000001" class="node">
<title>Node1</title>
<g id="a_Node000001"><a xlink:title=" ">
<polygon fill="#999999" stroke="#666666" points="140,-74 0,-74 0,-55 140,-55 140,-74"/>
<text text-anchor="middle" x="70" y="-62" font-family="Helvetica,sans-Serif" font-size="10.00">Ws2812Handler::GetStrip</text>
</a>
</g>
</g>
<!-- Node2 -->
<g id="Node000002" class="node">
<title>Node2</title>
<g id="a_Node000002"><a xlink:href="classWs2812Handler.html#a7471840392adad3cab496e2dc57dc792" target="_top" xlink:title="Get the underlying LED strip object.">
<polygon fill="white" stroke="#666666" points="316,-74 176,-74 176,-55 316,-55 316,-74"/>
<text text-anchor="middle" x="246" y="-62" font-family="Helvetica,sans-Serif" font-size="10.00">Ws2812Handler::GetStrip</text>
</a>
</g>
</g>
<!-- Node1&#45;&gt;Node2 -->
<g id="edge1_Node000001_Node000002" class="edge">
<title>Node1&#45;&gt;Node2</title>
<g id="a_edge1_Node000001_Node000002"><a xlink:title=" ">
<path fill="none" stroke="#63b8ff" d="M140.02,-64.5C148.48,-64.5 157.17,-64.5 165.76,-64.5"/>
<polygon fill="#63b8ff" stroke="#63b8ff" points="165.78,-68 175.78,-64.5 165.78,-61 165.78,-68"/>
</a>
</g>
</g>
<!-- Node3 -->
<g id="Node000003" class="node">
<title>Node3</title>
<g id="a_Node000003"><a xlink:href="classWs2812Handler.html#afe5f397b22e9b92cf2fb2cebae6e123d" target="_top" xlink:title=" ">
<polygon fill="white" stroke="#666666" points="533,-79.5 352,-79.5 352,-49.5 533,-49.5 533,-79.5"/>
<text text-anchor="start" x="360" y="-67.5" font-family="Helvetica,sans-Serif" font-size="10.00">Ws2812Handler::EnsureInitialized</text>
<text text-anchor="middle" x="442.5" y="-56.5" font-family="Helvetica,sans-Serif" font-size="10.00">Locked</text>
</a>
</g>
</g>
<!-- Node2&#45;&gt;Node3 -->
<g id="edge2_Node000002_Node000003" class="edge">
<title>Node2&#45;&gt;Node3</title>
<g id="a_edge2_Node000002_Node000003"><a xlink:title=" ">
<path fill="none" stroke="#63b8ff" d="M316.12,-64.5C324.44,-64.5 333.06,-64.5 341.71,-64.5"/>
<polygon fill="#63b8ff" stroke="#63b8ff" points="341.85,-68 351.85,-64.5 341.85,-61 341.85,-68"/>
</a>
</g>
</g>
<!-- Node4 -->
<g id="Node000004" class="node">
<title>Node4</title>
<g id="a_Node000004"><a xlink:href="classWs2812Handler.html#acce4955435f295ba4853b6239090982f" target="_top" xlink:title="Initialize the RMT channel and LED strip.">
<polygon fill="white" stroke="#666666" points="711,-74 569,-74 569,-55 711,-55 711,-74"/>
<text text-anchor="middle" x="640" y="-62" font-family="Helvetica,sans-Serif" font-size="10.00">Ws2812Handler::Initialize</text>
</a>
</g>
</g>
<!-- Node3&#45;&gt;Node4 -->
<g id="edge3_Node000003_Node000004" class="edge">
<title>Node3&#45;&gt;Node4</title>
<g id="a_edge3_Node000003_Node000004"><a xlink:title=" ">
<path fill="none" stroke="#63b8ff" d="M533.24,-64.5C541.73,-64.5 550.3,-64.5 558.7,-64.5"/>
<polygon fill="#63b8ff" stroke="#63b8ff" points="558.84,-68 568.84,-64.5 558.84,-61 558.84,-68"/>
</a>
</g>
</g>
<!-- Node5 -->
<g id="Node000005" class="node">
<title>Node5</title>
<g id="a_Node000005"><a xlink:href="classLogger.html#adce17848a5844e053bfd314863dc1404" target="_top" xlink:title="Log error message.">
<polygon fill="white" stroke="#666666" points="843.5,-130 764.5,-130 764.5,-111 843.5,-111 843.5,-130"/>
<text text-anchor="middle" x="804" y="-118" font-family="Helvetica,sans-Serif" font-size="10.00">Logger::Error</text>
</a>
</g>
</g>
<!-- Node4&#45;&gt;Node5 -->
<g id="edge4_Node000004_Node000005" class="edge">
<title>Node4&#45;&gt;Node5</title>
<g id="a_edge4_Node000004_Node000005"><a xlink:title=" ">
<path fill="none" stroke="#63b8ff" d="M667.05,-74.11C688.46,-81.94 719.61,-93.19 747,-102.5 752.2,-104.27 757.68,-106.08 763.1,-107.85"/>
<polygon fill="#63b8ff" stroke="#63b8ff" points="762.12,-111.22 772.71,-110.97 764.28,-104.56 762.12,-111.22"/>
</a>
</g>
</g>
<!-- Node8 -->
<g id="Node000008" class="node">
<title>Node8</title>
<g id="a_Node000008"><a xlink:href="classLogger.html#a5789d11f8f1356e2192c0023a089cbc4" target="_top" xlink:title="Get singleton instance.">
<polygon fill="white" stroke="#666666" points="861,-19 747,-19 747,0 861,0 861,-19"/>
<text text-anchor="middle" x="804" y="-7" font-family="Helvetica,sans-Serif" font-size="10.00">Logger::GetInstance</text>
</a>
</g>
</g>
<!-- Node4&#45;&gt;Node8 -->
<g id="edge7_Node000004_Node000008" class="edge">
<title>Node4&#45;&gt;Node8</title>
<g id="a_edge7_Node000004_Node000008"><a xlink:title=" ">
<path fill="none" stroke="#63b8ff" d="M667.95,-54.89C689.33,-47.31 720.02,-36.54 747,-27.5 752.2,-25.76 757.69,-23.95 763.11,-22.19"/>
<polygon fill="#63b8ff" stroke="#63b8ff" points="764.29,-25.48 772.73,-19.08 762.14,-18.82 764.29,-25.48"/>
</a>
</g>
</g>
<!-- Node9 -->
<g id="Node000009" class="node">
<title>Node9</title>
<g id="a_Node000009"><a xlink:href="classLogger.html#a4681229c521795685fc14f6b55c82300" target="_top" xlink:title="Log info message.">
<polygon fill="white" stroke="#666666" points="841,-93 767,-93 767,-74 841,-74 841,-93"/>
<text text-anchor="middle" x="804" y="-81" font-family="Helvetica,sans-Serif" font-size="10.00">Logger::Info</text>
</a>
</g>
</g>
<!-- Node4&#45;&gt;Node9 -->
<g id="edge8_Node000004_Node000009" class="edge">
<title>Node4&#45;&gt;Node9</title>
<g id="a_edge8_Node000004_Node000009"><a xlink:title=" ">
<path fill="none" stroke="#63b8ff" d="M711.11,-72.72C726.53,-74.53 742.48,-76.4 756.67,-78.07"/>
<polygon fill="#63b8ff" stroke="#63b8ff" points="756.33,-81.55 766.67,-79.24 757.15,-74.6 756.33,-81.55"/>
</a>
</g>
</g>
<!-- Node10 -->
<g id="Node000010" class="node">
<title>Node10</title>
<g id="a_Node000010"><a xlink:href="classLogger.html#aaa95ffa14d07a965d4a85bdec82cba26" target="_top" xlink:title="Log warning message.">
<polygon fill="white" stroke="#666666" points="844,-56 764,-56 764,-37 844,-37 844,-56"/>
<text text-anchor="middle" x="804" y="-44" font-family="Helvetica,sans-Serif" font-size="10.00">Logger::Warn</text>
</a>
</g>
</g>
<!-- Node4&#45;&gt;Node10 -->
<g id="edge11_Node000004_Node000010" class="edge">
<title>Node4&#45;&gt;Node10</title>
<g id="a_edge11_Node000004_Node000010"><a xlink:title=" ">
<path fill="none" stroke="#63b8ff" d="M711.11,-56.71C725.42,-55.12 740.2,-53.48 753.6,-51.99"/>
<polygon fill="#63b8ff" stroke="#63b8ff" points="754,-55.47 763.55,-50.88 753.22,-48.51 754,-55.47"/>
</a>
</g>
</g>
<!-- Node6 -->
<g id="Node000006" class="node">
<title>Node6</title>
<g id="a_Node000006"><a xlink:href="classLogger.html#af9e84e0ff6bd538e4f9ed8dcebc3e2f0" target="_top" xlink:title="Check if log level is enabled for tag.">
<polygon fill="white" stroke="#666666" points="1026,-111 897,-111 897,-92 1026,-92 1026,-111"/>
<text text-anchor="middle" x="961.5" y="-99" font-family="Helvetica,sans-Serif" font-size="10.00">Logger::IsLevelEnabled</text>
</a>
</g>
</g>
<!-- Node5&#45;&gt;Node6 -->
<g id="edge5_Node000005_Node000006" class="edge">
<title>Node5&#45;&gt;Node6</title>
<g id="a_edge5_Node000005_Node000006"><a xlink:title=" ">
<path fill="none" stroke="#63b8ff" d="M843.84,-115.75C856.85,-114.16 871.82,-112.34 886.6,-110.53"/>
<polygon fill="#63b8ff" stroke="#63b8ff" points="887.28,-113.97 896.78,-109.29 886.43,-107.02 887.28,-113.97"/>
</a>
</g>
</g>
<!-- Node7 -->
<g id="Node000007" class="node">
<title>Node7</title>
<g id="a_Node000007"><a xlink:href="classLogger.html#a6adb205db597526fb91ad20067400394" target="_top" xlink:title="Internal logging method.">
<polygon fill="white" stroke="#666666" points="1016.5,-74 906.5,-74 906.5,-55 1016.5,-55 1016.5,-74"/>
<text text-anchor="middle" x="961.5" y="-62" font-family="Helvetica,sans-Serif" font-size="10.00">Logger::LogInternal</text>
</a>
</g>
</g>
<!-- Node5&#45;&gt;Node7 -->
<g id="edge6_Node000005_Node000007" class="edge">
<title>Node5&#45;&gt;Node7</title>
<g id="a_edge6_Node000005_Node000007"><a xlink:title=" ">
<path fill="none" stroke="#63b8ff" d="M837.92,-110.98C845.59,-108.47 853.66,-105.59 861,-102.5 877.68,-95.48 880.25,-90.35 897,-83.5 902.53,-81.24 908.42,-79.12 914.31,-77.16"/>
<polygon fill="#63b8ff" stroke="#63b8ff" points="915.67,-80.41 924.14,-74.05 913.55,-73.73 915.67,-80.41"/>
</a>
</g>
</g>
<!-- Node9&#45;&gt;Node6 -->
<g id="edge9_Node000009_Node000006" class="edge">
<title>Node9&#45;&gt;Node6</title>
<g id="a_edge9_Node000009_Node000006"><a xlink:title=" ">
<path fill="none" stroke="#63b8ff" d="M841.07,-87.67C854.68,-89.25 870.72,-91.11 886.55,-92.94"/>
<polygon fill="#63b8ff" stroke="#63b8ff" points="886.55,-96.46 896.89,-94.14 887.36,-89.51 886.55,-96.46"/>
</a>
</g>
</g>
<!-- Node9&#45;&gt;Node7 -->
<g id="edge10_Node000009_Node000007" class="edge">
<title>Node9&#45;&gt;Node7</title>
<g id="a_edge10_Node000009_Node000007"><a xlink:title=" ">
<path fill="none" stroke="#63b8ff" d="M841.07,-79.09C857.49,-77.09 877.44,-74.65 896.3,-72.34"/>
<polygon fill="#63b8ff" stroke="#63b8ff" points="896.83,-75.81 906.33,-71.12 895.98,-68.86 896.83,-75.81"/>
</a>
</g>
</g>
<!-- Node10&#45;&gt;Node6 -->
<g id="edge12_Node000010_Node000006" class="edge">
<title>Node10&#45;&gt;Node6</title>
<g id="a_edge12_Node000010_Node000006"><a xlink:title=" ">
<path fill="none" stroke="#63b8ff" d="M835.51,-56.01C843.86,-58.84 852.85,-62.1 861,-65.5 877.51,-72.39 880.32,-77.03 897,-83.5 902.07,-85.47 907.45,-87.33 912.85,-89.05"/>
<polygon fill="#63b8ff" stroke="#63b8ff" points="911.92,-92.42 922.51,-91.99 913.96,-85.73 911.92,-92.42"/>
</a>
</g>
</g>
<!-- Node10&#45;&gt;Node7 -->
<g id="edge13_Node000010_Node000007" class="edge">
<title>Node10&#45;&gt;Node7</title>
<g id="a_edge13_Node000010_Node000007"><a xlink:title=" ">
<path fill="none" stroke="#63b8ff" d="M844.24,-51.04C859.96,-52.86 878.49,-55.01 896.08,-57.04"/>
<polygon fill="#63b8ff" stroke="#63b8ff" points="895.96,-60.55 906.3,-58.23 896.77,-53.6 895.96,-60.55"/>
</a>
</g>
</g>
</g>
</svg>
