<?xml version="1.0" encoding="UTF-8" standalone="no"?>
<!DOCTYPE svg PUBLIC "-//W3C//DTD SVG 1.1//EN"
 "http://www.w3.org/Graphics/SVG/1.1/DTD/svg11.dtd">
<!-- Generated by graphviz version 2.43.0 (0)
 -->
<!-- Title: Pcal95555Handler::Initialize Pages: 1 -->
<svg width="549pt" height="38pt"
 viewBox="0.00 0.00 549.00 38.00" xmlns="http://www.w3.org/2000/svg" xmlns:xlink="http://www.w3.org/1999/xlink">
<g id="graph0" class="graph" transform="scale(1 1) rotate(0) translate(4 34)">
<title>Pcal95555Handler::Initialize</title>
<!-- Node1 -->
<g id="Node000001" class="node">
<title>Node1</title>
<g id="a_Node000001"><a xlink:title="Internal initialization (called by EnsureInitialized under mutex).">
<polygon fill="#999999" stroke="#666666" points="153,-24.5 0,-24.5 0,-5.5 153,-5.5 153,-24.5"/>
<text text-anchor="middle" x="76.5" y="-12.5" font-family="Helvetica,sans-Serif" font-size="10.00">Pcal95555Handler::Initialize</text>
</a>
</g>
</g>
<!-- Node2 -->
<g id="Node000002" class="node">
<title>Node2</title>
<g id="a_Node000002"><a xlink:href="classPcal95555Handler.html#add6bf45bbac47b7d8d579fbd9bc50d2e" target="_top" xlink:title="Configure the hardware interrupt pin (falling edge, active&#45;low).">
<polygon fill="white" stroke="#666666" points="347,-30 189,-30 189,0 347,0 347,-30"/>
<text text-anchor="start" x="197" y="-18" font-family="Helvetica,sans-Serif" font-size="10.00">Pcal95555Handler::Configure</text>
<text text-anchor="middle" x="268" y="-7" font-family="Helvetica,sans-Serif" font-size="10.00">HardwareInterrupt</text>
</a>
</g>
</g>
<!-- Node1&#45;&gt;Node2 -->
<g id="edge1_Node000001_Node000002" class="edge">
<title>Node1&#45;&gt;Node2</title>
<g id="a_edge1_Node000001_Node000002"><a xlink:title=" ">
<path fill="none" stroke="#63b8ff" d="M153.21,-15C161.66,-15 170.32,-15 178.9,-15"/>
<polygon fill="#63b8ff" stroke="#63b8ff" points="178.93,-18.5 188.93,-15 178.93,-11.5 178.93,-18.5"/>
</a>
</g>
</g>
<!-- Node3 -->
<g id="Node000003" class="node">
<title>Node3</title>
<g id="a_Node000003"><a xlink:href="classPcal95555Handler.html#a87e8b50faf5d3d815227068ff26b1a6b" target="_top" xlink:title="Static ISR callback for the hardware interrupt pin.">
<polygon fill="white" stroke="#666666" points="541,-30 383,-30 383,0 541,0 541,-30"/>
<text text-anchor="start" x="391" y="-18" font-family="Helvetica,sans-Serif" font-size="10.00">Pcal95555Handler::Hardware</text>
<text text-anchor="middle" x="462" y="-7" font-family="Helvetica,sans-Serif" font-size="10.00">InterruptCallback</text>
</a>
</g>
</g>
<!-- Node2&#45;&gt;Node3 -->
<g id="edge2_Node000002_Node000003" class="edge">
<title>Node2&#45;&gt;Node3</title>
<g id="a_edge2_Node000002_Node000003"><a xlink:title=" ">
<path fill="none" stroke="#63b8ff" d="M347.09,-15C355.6,-15 364.3,-15 372.92,-15"/>
<polygon fill="#63b8ff" stroke="#63b8ff" points="372.98,-18.5 382.98,-15 372.98,-11.5 372.98,-18.5"/>
</a>
</g>
</g>
</g>
</svg>
