<?xml version="1.0" encoding="UTF-8" standalone="no"?>
<!DOCTYPE svg PUBLIC "-//W3C//DTD SVG 1.1//EN"
 "http://www.w3.org/Graphics/SVG/1.1/DTD/svg11.dtd">
<!-- Generated by graphviz version 2.43.0 (0)
 -->
<!-- Title: Pca9685Handler::GetDriver Pages: 1 -->
<svg width="556pt" height="38pt"
 viewBox="0.00 0.00 556.00 38.00" xmlns="http://www.w3.org/2000/svg" xmlns:xlink="http://www.w3.org/1999/xlink">
<g id="graph0" class="graph" transform="scale(1 1) rotate(0) translate(4 34)">
<title>Pca9685Handler::GetDriver</title>
<!-- Node1 -->
<g id="Node000001" class="node">
<title>Node1</title>
<g id="a_Node000001"><a xlink:title="Get the underlying PCA9685 driver for advanced register&#45;level operations.">
<polygon fill="#999999" stroke="#666666" points="149,-24.5 0,-24.5 0,-5.5 149,-5.5 149,-24.5"/>
<text text-anchor="middle" x="74.5" y="-12.5" font-family="Helvetica,sans-Serif" font-size="10.00">Pca9685Handler::GetDriver</text>
</a>
</g>
</g>
<!-- Node2 -->
<g id="Node000002" class="node">
<title>Node2</title>
<g id="a_Node000002"><a xlink:href="classPca9685Handler.html#abc72cbb1c0ffd4410143d52c605e0e49" target="_top" xlink:title="Check init under already&#45;held handler_mutex_.">
<polygon fill="white" stroke="#666666" points="368,-30 185,-30 185,0 368,0 368,-30"/>
<text text-anchor="start" x="193" y="-18" font-family="Helvetica,sans-Serif" font-size="10.00">Pca9685Handler::ensureInitialized</text>
<text text-anchor="middle" x="276.5" y="-7" font-family="Helvetica,sans-Serif" font-size="10.00">Locked</text>
</a>
</g>
</g>
<!-- Node1&#45;&gt;Node2 -->
<g id="edge1_Node000001_Node000002" class="edge">
<title>Node1&#45;&gt;Node2</title>
<g id="a_edge1_Node000001_Node000002"><a xlink:title=" ">
<path fill="none" stroke="#63b8ff" d="M149.12,-15C157.45,-15 166.03,-15 174.63,-15"/>
<polygon fill="#63b8ff" stroke="#63b8ff" points="174.71,-18.5 184.71,-15 174.71,-11.5 174.71,-18.5"/>
</a>
</g>
</g>
<!-- Node3 -->
<g id="Node000003" class="node">
<title>Node3</title>
<g id="a_Node000003"><a xlink:href="classPca9685Handler.html#ab7b5cd2320a6bb69ff6a2869051e9d5e" target="_top" xlink:title="Internal initialization (called under mutex).">
<polygon fill="white" stroke="#666666" points="548,-30 404,-30 404,0 548,0 548,-30"/>
<text text-anchor="start" x="412" y="-18" font-family="Helvetica,sans-Serif" font-size="10.00">Pca9685Handler::initialize</text>
<text text-anchor="middle" x="476" y="-7" font-family="Helvetica,sans-Serif" font-size="10.00">Internal</text>
</a>
</g>
</g>
<!-- Node2&#45;&gt;Node3 -->
<g id="edge2_Node000002_Node000003" class="edge">
<title>Node2&#45;&gt;Node3</title>
<g id="a_edge2_Node000002_Node000003"><a xlink:title=" ">
<path fill="none" stroke="#63b8ff" d="M368.16,-15C376.66,-15 385.25,-15 393.67,-15"/>
<polygon fill="#63b8ff" stroke="#63b8ff" points="393.82,-18.5 403.82,-15 393.82,-11.5 393.82,-18.5"/>
</a>
</g>
</g>
</g>
</svg>
