<?xml version="1.0" encoding="UTF-8" standalone="no"?>
<!DOCTYPE svg PUBLIC "-//W3C//DTD SVG 1.1//EN"
 "http://www.w3.org/Graphics/SVG/1.1/DTD/svg11.dtd">
<!-- Generated by graphviz version 2.43.0 (0)
 -->
<!-- Title: Tmc9660Handler::GetExternalTemperature Pages: 1 -->
<svg width="1140pt" height="208pt"
 viewBox="0.00 0.00 1140.00 208.35" xmlns="http://www.w3.org/2000/svg" xmlns:xlink="http://www.w3.org/1999/xlink">
<g id="graph0" class="graph" transform="scale(1 1) rotate(0) translate(4 204.35)">
<title>Tmc9660Handler::GetExternalTemperature</title>
<!-- Node1 -->
<g id="Node000001" class="node">
<title>Node1</title>
<g id="a_Node000001"><a xlink:title="Read the external temperature sensor raw value.">
<polygon fill="#999999" stroke="#666666" points="164,-44.35 0,-44.35 0,-14.35 164,-14.35 164,-44.35"/>
<text text-anchor="start" x="8" y="-32.35" font-family="Helvetica,sans-Serif" font-size="10.00">Tmc9660Handler::GetExternal</text>
<text text-anchor="middle" x="82" y="-21.35" font-family="Helvetica,sans-Serif" font-size="10.00">Temperature</text>
</a>
</g>
</g>
<!-- Node2 -->
<g id="Node000002" class="node">
<title>Node2</title>
<g id="a_Node000002"><a xlink:href="classTmc9660Handler.html#a5a279ae9d4b5a8e0d71cb24577ad88ea" target="_top" xlink:title="Ensure driver is initialized (lazy init entrypoint).">
<polygon fill="white" stroke="#666666" points="580,-76.85 393,-76.85 393,-57.85 580,-57.85 580,-76.85"/>
<text text-anchor="middle" x="486.5" y="-64.85" font-family="Helvetica,sans-Serif" font-size="10.00">Tmc9660Handler::EnsureInitialized</text>
</a>
</g>
</g>
<!-- Node1&#45;&gt;Node2 -->
<g id="edge1_Node000001_Node000002" class="edge">
<title>Node1&#45;&gt;Node2</title>
<g id="a_edge1_Node000001_Node000002"><a xlink:title=" ">
<path fill="none" stroke="#63b8ff" d="M164.06,-43.53C176.08,-45.33 188.35,-47.01 200,-48.35 260.4,-55.24 328.3,-59.89 382.72,-62.86"/>
<polygon fill="#63b8ff" stroke="#63b8ff" points="382.55,-66.35 392.72,-63.39 382.93,-59.36 382.55,-66.35"/>
</a>
</g>
</g>
<!-- Node10 -->
<g id="Node000010" class="node">
<title>Node10</title>
<g id="a_Node000010"><a xlink:href="classTmc9660Handler.html#a393382194d0602e7aa02da6a8fd7a20a" target="_top" xlink:title="Get a reference to the Temperature wrapper.">
<polygon fill="white" stroke="#666666" points="967,-22.85 800,-22.85 800,-3.85 967,-3.85 967,-22.85"/>
<text text-anchor="middle" x="883.5" y="-10.85" font-family="Helvetica,sans-Serif" font-size="10.00">Tmc9660Handler::temperature</text>
</a>
</g>
</g>
<!-- Node1&#45;&gt;Node10 -->
<g id="edge15_Node000001_Node000010" class="edge">
<title>Node1&#45;&gt;Node10</title>
<g id="a_edge15_Node000001_Node000010"><a xlink:title=" ">
<path fill="none" stroke="#63b8ff" d="M164.3,-14.42C176.24,-12.73 188.41,-11.28 200,-10.35 410.36,6.62 658.38,-1.47 789.82,-7.97"/>
<polygon fill="#63b8ff" stroke="#63b8ff" points="789.69,-11.47 799.86,-8.47 790.05,-4.48 789.69,-11.47"/>
</a>
</g>
</g>
<!-- Node11 -->
<g id="Node000011" class="node">
<title>Node11</title>
<g id="a_Node000011"><a xlink:href="classTmc9660Handler.html#a4360829b58deda85e9da4b9cebee96f0" target="_top" xlink:title="Execute a function on the underlying typed TMC9660 driver.">
<polygon fill="white" stroke="#666666" points="357,-38.85 200,-38.85 200,-19.85 357,-19.85 357,-38.85"/>
<text text-anchor="middle" x="278.5" y="-26.85" font-family="Helvetica,sans-Serif" font-size="10.00">Tmc9660Handler::visitDriver</text>
</a>
</g>
</g>
<!-- Node1&#45;&gt;Node11 -->
<g id="edge16_Node000001_Node000011" class="edge">
<title>Node1&#45;&gt;Node11</title>
<g id="a_edge16_Node000001_Node000011"><a xlink:title=" ">
<path fill="none" stroke="#63b8ff" d="M164.08,-29.35C172.62,-29.35 181.33,-29.35 189.94,-29.35"/>
<polygon fill="#63b8ff" stroke="#63b8ff" points="189.98,-32.85 199.98,-29.35 189.98,-25.85 189.98,-32.85"/>
</a>
</g>
</g>
<!-- Node3 -->
<g id="Node000003" class="node">
<title>Node3</title>
<g id="a_Node000003"><a xlink:href="classTmc9660Handler.html#adc564847f8ae26c47412aaee0758991c" target="_top" xlink:title="Initialize the TMC9660 device.">
<polygon fill="white" stroke="#666666" points="764,-114.85 616,-114.85 616,-95.85 764,-95.85 764,-114.85"/>
<text text-anchor="middle" x="690" y="-102.85" font-family="Helvetica,sans-Serif" font-size="10.00">Tmc9660Handler::Initialize</text>
</a>
</g>
</g>
<!-- Node2&#45;&gt;Node3 -->
<g id="edge2_Node000002_Node000003" class="edge">
<title>Node2&#45;&gt;Node3</title>
<g id="a_edge2_Node000002_Node000003"><a xlink:title=" ">
<path fill="none" stroke="#63b8ff" d="M538.09,-76.89C565.51,-82.06 599.6,-88.49 628.43,-93.92"/>
<polygon fill="#63b8ff" stroke="#63b8ff" points="627.92,-97.39 638.39,-95.8 629.21,-90.51 627.92,-97.39"/>
</a>
</g>
</g>
<!-- Node9 -->
<g id="Node000009" class="node">
<title>Node9</title>
<g id="a_Node000009"><a xlink:href="classTmc9660Handler.html#a13db97d201a287d8aa60384e04070b9f" target="_top" xlink:title="Check if the TMC9660 driver has been initialized and is ready.">
<polygon fill="white" stroke="#666666" points="955.5,-200.35 811.5,-200.35 811.5,-170.35 955.5,-170.35 955.5,-200.35"/>
<text text-anchor="start" x="819.5" y="-188.35" font-family="Helvetica,sans-Serif" font-size="10.00">Tmc9660Handler::IsDriver</text>
<text text-anchor="middle" x="883.5" y="-177.35" font-family="Helvetica,sans-Serif" font-size="10.00">Ready</text>
</a>
</g>
</g>
<!-- Node2&#45;&gt;Node9 -->
<g id="edge14_Node000002_Node000009" class="edge">
<title>Node2&#45;&gt;Node9</title>
<g id="a_edge14_Node000002_Node000009"><a xlink:title=" ">
<path fill="none" stroke="#63b8ff" d="M506.2,-77.02C530.82,-89.42 575.71,-110.94 616,-124.35 676.92,-144.62 747.88,-160.5 801.25,-170.97"/>
<polygon fill="#63b8ff" stroke="#63b8ff" points="800.86,-174.46 811.34,-172.93 802.19,-167.59 800.86,-174.46"/>
</a>
</g>
</g>
<!-- Node4 -->
<g id="Node000004" class="node">
<title>Node4</title>
<g id="a_Node000004"><a xlink:href="classLogger.html#a5e4bcdaea60b9ac227b564d780388769" target="_top" xlink:title="Log error message.">
<polygon fill="white" stroke="#666666" points="923,-77.85 844,-77.85 844,-58.85 923,-58.85 923,-77.85"/>
<text text-anchor="middle" x="883.5" y="-65.85" font-family="Helvetica,sans-Serif" font-size="10.00">Logger::Error</text>
</a>
</g>
</g>
<!-- Node3&#45;&gt;Node4 -->
<g id="edge3_Node000003_Node000004" class="edge">
<title>Node3&#45;&gt;Node4</title>
<g id="a_edge3_Node000003_Node000004"><a xlink:title=" ">
<path fill="none" stroke="#63b8ff" d="M740.32,-95.82C769.04,-90.27 805.11,-83.3 833.74,-77.77"/>
<polygon fill="#63b8ff" stroke="#63b8ff" points="834.77,-81.13 843.92,-75.8 833.44,-74.26 834.77,-81.13"/>
</a>
</g>
</g>
<!-- Node7 -->
<g id="Node000007" class="node">
<title>Node7</title>
<g id="a_Node000007"><a xlink:href="classLogger.html#a5789d11f8f1356e2192c0023a089cbc4" target="_top" xlink:title="Get singleton instance.">
<polygon fill="white" stroke="#666666" points="940.5,-151.85 826.5,-151.85 826.5,-132.85 940.5,-132.85 940.5,-151.85"/>
<text text-anchor="middle" x="883.5" y="-139.85" font-family="Helvetica,sans-Serif" font-size="10.00">Logger::GetInstance</text>
</a>
</g>
</g>
<!-- Node3&#45;&gt;Node7 -->
<g id="edge6_Node000003_Node000007" class="edge">
<title>Node3&#45;&gt;Node7</title>
<g id="a_edge6_Node000003_Node000007"><a xlink:title=" ">
<path fill="none" stroke="#63b8ff" d="M740.32,-114.87C765.57,-119.75 796.51,-125.73 823.07,-130.86"/>
<polygon fill="#63b8ff" stroke="#63b8ff" points="822.54,-134.32 833.02,-132.79 823.86,-127.45 822.54,-134.32"/>
</a>
</g>
</g>
<!-- Node8 -->
<g id="Node000008" class="node">
<title>Node8</title>
<g id="a_Node000008"><a xlink:href="classLogger.html#a1c0c947d87884bca0395fd38d19d1102" target="_top" xlink:title="Log info message.">
<polygon fill="white" stroke="#666666" points="920.5,-114.85 846.5,-114.85 846.5,-95.85 920.5,-95.85 920.5,-114.85"/>
<text text-anchor="middle" x="883.5" y="-102.85" font-family="Helvetica,sans-Serif" font-size="10.00">Logger::Info</text>
</a>
</g>
</g>
<!-- Node3&#45;&gt;Node8 -->
<g id="edge7_Node000003_Node000008" class="edge">
<title>Node3&#45;&gt;Node8</title>
<g id="a_edge7_Node000003_Node000008"><a xlink:title=" ">
<path fill="none" stroke="#63b8ff" d="M764.22,-105.35C788.35,-105.35 814.52,-105.35 836.08,-105.35"/>
<polygon fill="#63b8ff" stroke="#63b8ff" points="836.27,-108.85 846.27,-105.35 836.27,-101.85 836.27,-108.85"/>
</a>
</g>
</g>
<!-- Node3&#45;&gt;Node9 -->
<g id="edge10_Node000003_Node000009" class="edge">
<title>Node3&#45;&gt;Node9</title>
<g id="a_edge10_Node000003_Node000009"><a xlink:title=" ">
<path fill="none" stroke="#63b8ff" d="M707.16,-114.9C728.05,-126.94 765.8,-147.73 800,-161.35 805.02,-163.35 810.28,-165.26 815.6,-167.07"/>
<polygon fill="#63b8ff" stroke="#63b8ff" points="814.62,-170.44 825.21,-170.23 816.8,-163.78 814.62,-170.44"/>
</a>
</g>
</g>
<!-- Node3&#45;&gt;Node10 -->
<g id="edge11_Node000003_Node000010" class="edge">
<title>Node3&#45;&gt;Node10</title>
<g id="a_edge11_Node000003_Node000010"><a xlink:title=" ">
<path fill="none" stroke="#63b8ff" d="M729.71,-95.73C741.15,-92.08 753.43,-87.32 764,-81.35 782.38,-70.96 782.18,-61.67 800,-50.35 814.56,-41.09 831.83,-32.96 846.79,-26.7"/>
<polygon fill="#63b8ff" stroke="#63b8ff" points="848.3,-29.86 856.24,-22.86 845.66,-23.38 848.3,-29.86"/>
</a>
</g>
</g>
<!-- Node5 -->
<g id="Node000005" class="node">
<title>Node5</title>
<g id="a_Node000005"><a xlink:href="classLogger.html#a737b981213c02321a5235848334d7191" target="_top" xlink:title="Check if log level is enabled for tag.">
<polygon fill="white" stroke="#666666" points="1132,-114.85 1003,-114.85 1003,-95.85 1132,-95.85 1132,-114.85"/>
<text text-anchor="middle" x="1067.5" y="-102.85" font-family="Helvetica,sans-Serif" font-size="10.00">Logger::IsLevelEnabled</text>
</a>
</g>
</g>
<!-- Node4&#45;&gt;Node5 -->
<g id="edge4_Node000004_Node000005" class="edge">
<title>Node4&#45;&gt;Node5</title>
<g id="a_edge4_Node000004_Node000005"><a xlink:title=" ">
<path fill="none" stroke="#63b8ff" d="M923.1,-76.19C948.19,-81.29 981.34,-88.03 1009.45,-93.75"/>
<polygon fill="#63b8ff" stroke="#63b8ff" points="1009.06,-97.24 1019.56,-95.8 1010.45,-90.38 1009.06,-97.24"/>
</a>
</g>
</g>
<!-- Node6 -->
<g id="Node000006" class="node">
<title>Node6</title>
<g id="a_Node000006"><a xlink:href="classLogger.html#aeede6ac18db92a47caede076ef188a13" target="_top" xlink:title="Internal logging method.">
<polygon fill="white" stroke="#666666" points="1122.5,-77.85 1012.5,-77.85 1012.5,-58.85 1122.5,-58.85 1122.5,-77.85"/>
<text text-anchor="middle" x="1067.5" y="-65.85" font-family="Helvetica,sans-Serif" font-size="10.00">Logger::LogInternal</text>
</a>
</g>
</g>
<!-- Node4&#45;&gt;Node6 -->
<g id="edge5_Node000004_Node000006" class="edge">
<title>Node4&#45;&gt;Node6</title>
<g id="a_edge5_Node000004_Node000006"><a xlink:title=" ">
<path fill="none" stroke="#63b8ff" d="M923.1,-68.35C946.03,-68.35 975.71,-68.35 1002.11,-68.35"/>
<polygon fill="#63b8ff" stroke="#63b8ff" points="1002.43,-71.85 1012.43,-68.35 1002.43,-64.85 1002.43,-71.85"/>
</a>
</g>
</g>
<!-- Node8&#45;&gt;Node5 -->
<g id="edge8_Node000008_Node000005" class="edge">
<title>Node8&#45;&gt;Node5</title>
<g id="a_edge8_Node000008_Node000005"><a xlink:title=" ">
<path fill="none" stroke="#63b8ff" d="M920.89,-105.35C941.5,-105.35 968.03,-105.35 992.79,-105.35"/>
<polygon fill="#63b8ff" stroke="#63b8ff" points="992.9,-108.85 1002.9,-105.35 992.9,-101.85 992.9,-108.85"/>
</a>
</g>
</g>
<!-- Node8&#45;&gt;Node6 -->
<g id="edge9_Node000008_Node000006" class="edge">
<title>Node8&#45;&gt;Node6</title>
<g id="a_edge9_Node000008_Node000006"><a xlink:title=" ">
<path fill="none" stroke="#63b8ff" d="M920.89,-97.95C946.23,-92.8 980.52,-85.83 1009.46,-79.94"/>
<polygon fill="#63b8ff" stroke="#63b8ff" points="1010.35,-83.33 1019.45,-77.91 1008.95,-76.47 1010.35,-83.33"/>
</a>
</g>
</g>
<!-- Node10&#45;&gt;Node2 -->
<g id="edge12_Node000010_Node000002" class="edge">
<title>Node10&#45;&gt;Node2</title>
<g id="a_edge12_Node000010_Node000002"><a xlink:title=" ">
<path fill="none" stroke="#63b8ff" d="M850.61,-22.91C826.92,-29.65 793.71,-38.33 764,-43.35 706.99,-52.97 642.67,-58.85 590.42,-62.37"/>
<polygon fill="#63b8ff" stroke="#63b8ff" points="589.89,-58.9 580.14,-63.05 590.35,-65.89 589.89,-58.9"/>
</a>
</g>
</g>
<!-- Node10&#45;&gt;Node10 -->
<g id="edge13_Node000010_Node000010" class="edge">
<title>Node10&#45;&gt;Node10</title>
<g id="a_edge13_Node000010_Node000010"><a xlink:title=" ">
<path fill="none" stroke="#63b8ff" d="M855.14,-22.93C841.34,-31.58 850.8,-40.85 883.5,-40.85 905.98,-40.85 917.48,-36.47 917.98,-30.92"/>
<polygon fill="#63b8ff" stroke="#63b8ff" points="920.72,-28.74 911.86,-22.93 915.16,-32.99 920.72,-28.74"/>
</a>
</g>
</g>
<!-- Node11&#45;&gt;Node2 -->
<g id="edge17_Node000011_Node000002" class="edge">
<title>Node11&#45;&gt;Node2</title>
<g id="a_edge17_Node000011_Node000002"><a xlink:title=" ">
<path fill="none" stroke="#63b8ff" d="M331.22,-38.89C359.26,-44.06 394.1,-50.49 423.58,-55.92"/>
<polygon fill="#63b8ff" stroke="#63b8ff" points="423.29,-59.43 433.76,-57.8 424.56,-52.55 423.29,-59.43"/>
</a>
</g>
</g>
<!-- Node11&#45;&gt;Node10 -->
<g id="edge18_Node000011_Node000010" class="edge">
<title>Node11&#45;&gt;Node10</title>
<g id="a_edge18_Node000011_Node000010"><a xlink:title=" ">
<path fill="none" stroke="#63b8ff" d="M357.1,-27.29C467.9,-24.35 671.14,-18.95 789.74,-15.81"/>
<polygon fill="#63b8ff" stroke="#63b8ff" points="789.99,-19.3 799.89,-15.54 789.8,-12.3 789.99,-19.3"/>
</a>
</g>
</g>
</g>
</svg>
