<?xml version="1.0" encoding="UTF-8" standalone="no"?>
<!DOCTYPE svg PUBLIC "-//W3C//DTD SVG 1.1//EN"
 "http://www.w3.org/Graphics/SVG/1.1/DTD/svg11.dtd">
<!-- Generated by graphviz version 2.43.0 (0)
 -->
<!-- Title: Tmc9660Handler::GetDriver Pages: 1 -->
<svg width="1313pt" height="146pt"
 viewBox="0.00 0.00 1313.00 146.00" xmlns="http://www.w3.org/2000/svg" xmlns:xlink="http://www.w3.org/1999/xlink">
<g id="graph0" class="graph" transform="scale(1 1) rotate(0) translate(4 142)">
<title>Tmc9660Handler::GetDriver</title>
<!-- Node1 -->
<g id="Node000001" class="node">
<title>Node1</title>
<g id="a_Node000001"><a xlink:title="Get the active driver pointer without requiring visitor usage.">
<polygon fill="#999999" stroke="#666666" points="153,-38 0,-38 0,-19 153,-19 153,-38"/>
<text text-anchor="middle" x="76.5" y="-26" font-family="Helvetica,sans-Serif" font-size="10.00">Tmc9660Handler::GetDriver</text>
</a>
</g>
</g>
<!-- Node2 -->
<g id="Node000002" class="node">
<title>Node2</title>
<g id="a_Node000002"><a xlink:href="classTmc9660Handler.html#a85be9cd2e065b83c7abb36cb70fa6c67" target="_top" xlink:title="Get the TMC9660 driver instance connected via SPI (nullptr if using UART).">
<polygon fill="white" stroke="#666666" points="357,-38 192,-38 192,-19 357,-19 357,-38"/>
<text text-anchor="middle" x="274.5" y="-26" font-family="Helvetica,sans-Serif" font-size="10.00">Tmc9660Handler::driverViaSpi</text>
</a>
</g>
</g>
<!-- Node1&#45;&gt;Node2 -->
<g id="edge1_Node000001_Node000002" class="edge">
<title>Node1&#45;&gt;Node2</title>
<g id="a_edge1_Node000001_Node000002"><a xlink:title=" ">
<path fill="none" stroke="#63b8ff" d="M153.28,-28.5C162.53,-28.5 172.07,-28.5 181.53,-28.5"/>
<polygon fill="#63b8ff" stroke="#63b8ff" points="181.75,-32 191.75,-28.5 181.75,-25 181.75,-32"/>
</a>
</g>
</g>
<!-- Node12 -->
<g id="Node000012" class="node">
<title>Node12</title>
<g id="a_Node000012"><a xlink:href="classTmc9660Handler.html#a393382194d0602e7aa02da6a8fd7a20a" target="_top" xlink:title="Get a reference to the Temperature wrapper.">
<polygon fill="white" stroke="#666666" points="796,-19 629,-19 629,0 796,0 796,-19"/>
<text text-anchor="middle" x="712.5" y="-7" font-family="Helvetica,sans-Serif" font-size="10.00">Tmc9660Handler::temperature</text>
</a>
</g>
</g>
<!-- Node1&#45;&gt;Node12 -->
<g id="edge18_Node000001_Node000012" class="edge">
<title>Node1&#45;&gt;Node12</title>
<g id="a_edge18_Node000001_Node000012"><a xlink:title=" ">
<path fill="none" stroke="#63b8ff" d="M125.87,-18.98C145.39,-15.59 168.19,-12.19 189,-10.5 339.06,1.68 514.17,-1.51 618.77,-5.27"/>
<polygon fill="#63b8ff" stroke="#63b8ff" points="618.86,-8.77 628.98,-5.64 619.12,-1.78 618.86,-8.77"/>
</a>
</g>
</g>
<!-- Node13 -->
<g id="Node000013" class="node">
<title>Node13</title>
<g id="a_Node000013"><a xlink:href="classTmc9660Handler.html#ac4f303f9e7be9cb737a667dd5d85dd3a" target="_top" xlink:title="Get the TMC9660 driver instance connected via UART (nullptr if using SPI).">
<polygon fill="white" stroke="#666666" points="360,-75 189,-75 189,-56 360,-56 360,-75"/>
<text text-anchor="middle" x="274.5" y="-63" font-family="Helvetica,sans-Serif" font-size="10.00">Tmc9660Handler::driverViaUart</text>
</a>
</g>
</g>
<!-- Node1&#45;&gt;Node13 -->
<g id="edge16_Node000001_Node000013" class="edge">
<title>Node1&#45;&gt;Node13</title>
<g id="a_edge16_Node000001_Node000013"><a xlink:title=" ">
<path fill="none" stroke="#63b8ff" d="M127.97,-38.03C153.82,-42.91 185.49,-48.89 212.68,-54.02"/>
<polygon fill="#63b8ff" stroke="#63b8ff" points="212.38,-57.52 222.86,-55.94 213.68,-50.65 212.38,-57.52"/>
</a>
</g>
</g>
<!-- Node3 -->
<g id="Node000003" class="node">
<title>Node3</title>
<g id="a_Node000003"><a xlink:href="classTmc9660Handler.html#a5a279ae9d4b5a8e0d71cb24577ad88ea" target="_top" xlink:title="Ensure driver is initialized (lazy init entrypoint).">
<polygon fill="white" stroke="#666666" points="583,-38 396,-38 396,-19 583,-19 583,-38"/>
<text text-anchor="middle" x="489.5" y="-26" font-family="Helvetica,sans-Serif" font-size="10.00">Tmc9660Handler::EnsureInitialized</text>
</a>
</g>
</g>
<!-- Node2&#45;&gt;Node3 -->
<g id="edge2_Node000002_Node000003" class="edge">
<title>Node2&#45;&gt;Node3</title>
<g id="a_edge2_Node000002_Node000003"><a xlink:title=" ">
<path fill="none" stroke="#63b8ff" d="M357.24,-28.5C366.65,-28.5 376.32,-28.5 385.96,-28.5"/>
<polygon fill="#63b8ff" stroke="#63b8ff" points="385.97,-32 395.97,-28.5 385.97,-25 385.97,-32"/>
</a>
</g>
</g>
<!-- Node4 -->
<g id="Node000004" class="node">
<title>Node4</title>
<g id="a_Node000004"><a xlink:href="classTmc9660Handler.html#a7c1d8073576d678b09dac24c9eb12845" target="_top" xlink:title="Ensure initialized while handler_mutex_ is already held.">
<polygon fill="white" stroke="#666666" points="806,-85.5 619,-85.5 619,-55.5 806,-55.5 806,-85.5"/>
<text text-anchor="start" x="627" y="-73.5" font-family="Helvetica,sans-Serif" font-size="10.00">Tmc9660Handler::EnsureInitialized</text>
<text text-anchor="middle" x="712.5" y="-62.5" font-family="Helvetica,sans-Serif" font-size="10.00">Locked</text>
</a>
</g>
</g>
<!-- Node3&#45;&gt;Node4 -->
<g id="edge3_Node000003_Node000004" class="edge">
<title>Node3&#45;&gt;Node4</title>
<g id="a_edge3_Node000003_Node000004"><a xlink:title=" ">
<path fill="none" stroke="#63b8ff" d="M540.65,-38.03C564.81,-42.62 594.52,-48.27 622.35,-53.56"/>
<polygon fill="#63b8ff" stroke="#63b8ff" points="622.03,-57.06 632.51,-55.49 623.34,-50.18 622.03,-57.06"/>
</a>
</g>
</g>
<!-- Node3&#45;&gt;Node12 -->
<g id="edge13_Node000003_Node000012" class="edge">
<title>Node3&#45;&gt;Node12</title>
<g id="a_edge13_Node000003_Node000012"><a xlink:title=" ">
<path fill="none" stroke="#63b8ff" d="M536.29,-18.97C560.15,-15.95 590.23,-13 618.7,-10.81"/>
<polygon fill="#63b8ff" stroke="#63b8ff" points="618.98,-14.29 628.69,-10.06 618.46,-7.31 618.98,-14.29"/>
</a>
</g>
</g>
<!-- Node5 -->
<g id="Node000005" class="node">
<title>Node5</title>
<g id="a_Node000005"><a xlink:href="classTmc9660Handler.html#adc564847f8ae26c47412aaee0758991c" target="_top" xlink:title="Initialize the TMC9660 device.">
<polygon fill="white" stroke="#666666" points="990,-101 842,-101 842,-82 990,-82 990,-101"/>
<text text-anchor="middle" x="916" y="-89" font-family="Helvetica,sans-Serif" font-size="10.00">Tmc9660Handler::Initialize</text>
</a>
</g>
</g>
<!-- Node4&#45;&gt;Node5 -->
<g id="edge4_Node000004_Node000005" class="edge">
<title>Node4&#45;&gt;Node5</title>
<g id="a_edge4_Node000004_Node000005"><a xlink:title=" ">
<path fill="none" stroke="#63b8ff" d="M806.29,-80.17C814.73,-81.05 823.25,-81.94 831.61,-82.81"/>
<polygon fill="#63b8ff" stroke="#63b8ff" points="831.39,-86.31 841.7,-83.86 832.12,-79.34 831.39,-86.31"/>
</a>
</g>
</g>
<!-- Node11 -->
<g id="Node000011" class="node">
<title>Node11</title>
<g id="a_Node000011"><a xlink:href="classTmc9660Handler.html#a13db97d201a287d8aa60384e04070b9f" target="_top" xlink:title="Check if the TMC9660 driver has been initialized and is ready.">
<polygon fill="white" stroke="#666666" points="988,-63.5 844,-63.5 844,-33.5 988,-33.5 988,-63.5"/>
<text text-anchor="start" x="852" y="-51.5" font-family="Helvetica,sans-Serif" font-size="10.00">Tmc9660Handler::IsDriver</text>
<text text-anchor="middle" x="916" y="-40.5" font-family="Helvetica,sans-Serif" font-size="10.00">Ready</text>
</a>
</g>
</g>
<!-- Node4&#45;&gt;Node11 -->
<g id="edge12_Node000004_Node000011" class="edge">
<title>Node4&#45;&gt;Node11</title>
<g id="a_edge12_Node000004_Node000011"><a xlink:title=" ">
<path fill="none" stroke="#63b8ff" d="M806.29,-60.37C815.44,-59.37 824.69,-58.36 833.71,-57.37"/>
<polygon fill="#63b8ff" stroke="#63b8ff" points="834.24,-60.84 843.8,-56.27 833.48,-53.88 834.24,-60.84"/>
</a>
</g>
</g>
<!-- Node6 -->
<g id="Node000006" class="node">
<title>Node6</title>
<g id="a_Node000006"><a xlink:href="classLogger.html#adce17848a5844e053bfd314863dc1404" target="_top" xlink:title="Log error message.">
<polygon fill="white" stroke="#666666" points="1122.5,-101 1043.5,-101 1043.5,-82 1122.5,-82 1122.5,-101"/>
<text text-anchor="middle" x="1083" y="-89" font-family="Helvetica,sans-Serif" font-size="10.00">Logger::Error</text>
</a>
</g>
</g>
<!-- Node5&#45;&gt;Node6 -->
<g id="edge5_Node000005_Node000006" class="edge">
<title>Node5&#45;&gt;Node6</title>
<g id="a_edge5_Node000005_Node000006"><a xlink:title=" ">
<path fill="none" stroke="#63b8ff" d="M990.33,-91.5C1004.73,-91.5 1019.5,-91.5 1032.87,-91.5"/>
<polygon fill="#63b8ff" stroke="#63b8ff" points="1033.26,-95 1043.26,-91.5 1033.26,-88 1033.26,-95"/>
</a>
</g>
</g>
<!-- Node9 -->
<g id="Node000009" class="node">
<title>Node9</title>
<g id="a_Node000009"><a xlink:href="classLogger.html#a5789d11f8f1356e2192c0023a089cbc4" target="_top" xlink:title="Get singleton instance.">
<polygon fill="white" stroke="#666666" points="1140,-64 1026,-64 1026,-45 1140,-45 1140,-64"/>
<text text-anchor="middle" x="1083" y="-52" font-family="Helvetica,sans-Serif" font-size="10.00">Logger::GetInstance</text>
</a>
</g>
</g>
<!-- Node5&#45;&gt;Node9 -->
<g id="edge8_Node000005_Node000009" class="edge">
<title>Node5&#45;&gt;Node9</title>
<g id="a_edge8_Node000005_Node000009"><a xlink:title=" ">
<path fill="none" stroke="#63b8ff" d="M959.49,-81.97C980.87,-77.18 1006.97,-71.32 1029.58,-66.25"/>
<polygon fill="#63b8ff" stroke="#63b8ff" points="1030.37,-69.66 1039.37,-64.06 1028.84,-62.83 1030.37,-69.66"/>
</a>
</g>
</g>
<!-- Node10 -->
<g id="Node000010" class="node">
<title>Node10</title>
<g id="a_Node000010"><a xlink:href="classLogger.html#a4681229c521795685fc14f6b55c82300" target="_top" xlink:title="Log info message.">
<polygon fill="white" stroke="#666666" points="1120,-138 1046,-138 1046,-119 1120,-119 1120,-138"/>
<text text-anchor="middle" x="1083" y="-126" font-family="Helvetica,sans-Serif" font-size="10.00">Logger::Info</text>
</a>
</g>
</g>
<!-- Node5&#45;&gt;Node10 -->
<g id="edge9_Node000005_Node000010" class="edge">
<title>Node5&#45;&gt;Node10</title>
<g id="a_edge9_Node000005_Node000010"><a xlink:title=" ">
<path fill="none" stroke="#63b8ff" d="M959.49,-101.03C982.89,-106.27 1011.94,-112.79 1035.89,-118.16"/>
<polygon fill="#63b8ff" stroke="#63b8ff" points="1035.28,-121.61 1045.8,-120.38 1036.81,-114.78 1035.28,-121.61"/>
</a>
</g>
</g>
<!-- Node7 -->
<g id="Node000007" class="node">
<title>Node7</title>
<g id="a_Node000007"><a xlink:href="classLogger.html#af9e84e0ff6bd538e4f9ed8dcebc3e2f0" target="_top" xlink:title="Check if log level is enabled for tag.">
<polygon fill="white" stroke="#666666" points="1305,-138 1176,-138 1176,-119 1305,-119 1305,-138"/>
<text text-anchor="middle" x="1240.5" y="-126" font-family="Helvetica,sans-Serif" font-size="10.00">Logger::IsLevelEnabled</text>
</a>
</g>
</g>
<!-- Node6&#45;&gt;Node7 -->
<g id="edge6_Node000006_Node000007" class="edge">
<title>Node6&#45;&gt;Node7</title>
<g id="a_edge6_Node000006_Node000007"><a xlink:title=" ">
<path fill="none" stroke="#63b8ff" d="M1122.84,-100.74C1143.03,-105.55 1167.94,-111.47 1189.55,-116.61"/>
<polygon fill="#63b8ff" stroke="#63b8ff" points="1189,-120.08 1199.53,-118.99 1190.62,-113.27 1189,-120.08"/>
</a>
</g>
</g>
<!-- Node8 -->
<g id="Node000008" class="node">
<title>Node8</title>
<g id="a_Node000008"><a xlink:href="classLogger.html#a6adb205db597526fb91ad20067400394" target="_top" xlink:title="Internal logging method.">
<polygon fill="white" stroke="#666666" points="1295.5,-101 1185.5,-101 1185.5,-82 1295.5,-82 1295.5,-101"/>
<text text-anchor="middle" x="1240.5" y="-89" font-family="Helvetica,sans-Serif" font-size="10.00">Logger::LogInternal</text>
</a>
</g>
</g>
<!-- Node6&#45;&gt;Node8 -->
<g id="edge7_Node000006_Node000008" class="edge">
<title>Node6&#45;&gt;Node8</title>
<g id="a_edge7_Node000006_Node000008"><a xlink:title=" ">
<path fill="none" stroke="#63b8ff" d="M1122.84,-91.5C1138.63,-91.5 1157.31,-91.5 1175.03,-91.5"/>
<polygon fill="#63b8ff" stroke="#63b8ff" points="1175.33,-95 1185.33,-91.5 1175.33,-88 1175.33,-95"/>
</a>
</g>
</g>
<!-- Node10&#45;&gt;Node7 -->
<g id="edge10_Node000010_Node000007" class="edge">
<title>Node10&#45;&gt;Node7</title>
<g id="a_edge10_Node000010_Node000007"><a xlink:title=" ">
<path fill="none" stroke="#63b8ff" d="M1120.07,-128.5C1133.68,-128.5 1149.72,-128.5 1165.55,-128.5"/>
<polygon fill="#63b8ff" stroke="#63b8ff" points="1165.89,-132 1175.89,-128.5 1165.89,-125 1165.89,-132"/>
</a>
</g>
</g>
<!-- Node10&#45;&gt;Node8 -->
<g id="edge11_Node000010_Node000008" class="edge">
<title>Node10&#45;&gt;Node8</title>
<g id="a_edge11_Node000010_Node000008"><a xlink:title=" ">
<path fill="none" stroke="#63b8ff" d="M1120.07,-119.92C1140.78,-114.99 1167.09,-108.73 1189.74,-103.34"/>
<polygon fill="#63b8ff" stroke="#63b8ff" points="1190.61,-106.73 1199.53,-101.01 1188.99,-99.92 1190.61,-106.73"/>
</a>
</g>
</g>
<!-- Node12&#45;&gt;Node3 -->
<g id="edge14_Node000012_Node000003" class="edge">
<title>Node12&#45;&gt;Node3</title>
<g id="a_edge14_Node000012_Node000003"><a xlink:title=" ">
<path fill="none" stroke="#63b8ff" d="M665.68,-19.03C644.61,-21.7 618.7,-24.31 593.33,-26.4"/>
<polygon fill="#63b8ff" stroke="#63b8ff" points="592.95,-22.91 583.26,-27.2 593.51,-29.89 592.95,-22.91"/>
</a>
</g>
</g>
<!-- Node12&#45;&gt;Node12 -->
<g id="edge15_Node000012_Node000012" class="edge">
<title>Node12&#45;&gt;Node12</title>
<g id="a_edge15_Node000012_Node000012"><a xlink:title=" ">
<path fill="none" stroke="#63b8ff" d="M681.37,-19.08C666.22,-27.73 676.6,-37 712.5,-37 737.74,-37 750.37,-32.42 750.37,-26.69"/>
<polygon fill="#63b8ff" stroke="#63b8ff" points="752.89,-24.25 743.63,-19.08 747.65,-28.89 752.89,-24.25"/>
</a>
</g>
</g>
<!-- Node13&#45;&gt;Node3 -->
<g id="edge17_Node000013_Node000003" class="edge">
<title>Node13&#45;&gt;Node3</title>
<g id="a_edge17_Node000013_Node000003"><a xlink:title=" ">
<path fill="none" stroke="#63b8ff" d="M330.35,-55.97C358.81,-51.03 393.77,-44.96 423.57,-39.78"/>
<polygon fill="#63b8ff" stroke="#63b8ff" points="424.21,-43.22 433.46,-38.06 423.01,-36.32 424.21,-43.22"/>
</a>
</g>
</g>
</g>
</svg>
