<?xml version="1.0" encoding="UTF-8" standalone="no"?>
<!DOCTYPE svg PUBLIC "-//W3C//DTD SVG 1.1//EN"
 "http://www.w3.org/Graphics/SVG/1.1/DTD/svg11.dtd">
<!-- Generated by graphviz version 2.43.0 (0)
 -->
<!-- Title: Tmc9660Handler::Temperature::ReadTemperatureCelsiusImpl Pages: 1 -->
<svg width="1100pt" height="139pt"
 viewBox="0.00 0.00 1100.00 139.43" xmlns="http://www.w3.org/2000/svg" xmlns:xlink="http://www.w3.org/1999/xlink">
<g id="graph0" class="graph" transform="scale(1 1) rotate(0) translate(4 135.43)">
<title>Tmc9660Handler::Temperature::ReadTemperatureCelsiusImpl</title>
<!-- Node1 -->
<g id="Node000001" class="node">
<title>Node1</title>
<g id="a_Node000001"><a xlink:title="Read the chip temperature in degrees Celsius.">
<polygon fill="#999999" stroke="#666666" points="167,-102.24 0,-102.24 0,-72.24 167,-72.24 167,-102.24"/>
<text text-anchor="start" x="8" y="-90.24" font-family="Helvetica,sans-Serif" font-size="10.00">Tmc9660Handler::Temperature</text>
<text text-anchor="middle" x="83.5" y="-79.24" font-family="Helvetica,sans-Serif" font-size="10.00">::ReadTemperatureCelsiusImpl</text>
</a>
</g>
</g>
<!-- Node2 -->
<g id="Node000002" class="node">
<title>Node2</title>
<g id="a_Node000002"><a xlink:href="classLogger.html#adce17848a5844e053bfd314863dc1404" target="_top" xlink:title="Log error message.">
<polygon fill="white" stroke="#666666" points="909.5,-19.74 830.5,-19.74 830.5,-0.74 909.5,-0.74 909.5,-19.74"/>
<text text-anchor="middle" x="870" y="-7.74" font-family="Helvetica,sans-Serif" font-size="10.00">Logger::Error</text>
</a>
</g>
</g>
<!-- Node1&#45;&gt;Node2 -->
<g id="edge1_Node000001_Node000002" class="edge">
<title>Node1&#45;&gt;Node2</title>
<g id="a_edge1_Node000001_Node000002"><a xlink:title=" ">
<path fill="none" stroke="#63b8ff" d="M114.86,-72.19C138.32,-61.3 171.93,-47.32 203,-40.24 429.03,11.24 709.05,0.53 820.22,-6.57"/>
<polygon fill="#63b8ff" stroke="#63b8ff" points="820.23,-10.08 830.44,-7.24 820.69,-3.09 820.23,-10.08"/>
</a>
</g>
</g>
<!-- Node5 -->
<g id="Node000005" class="node">
<title>Node5</title>
<g id="a_Node000005"><a xlink:href="classLogger.html#a5789d11f8f1356e2192c0023a089cbc4" target="_top" xlink:title="Get singleton instance.">
<polygon fill="white" stroke="#666666" points="927,-93.74 813,-93.74 813,-74.74 927,-74.74 927,-93.74"/>
<text text-anchor="middle" x="870" y="-81.74" font-family="Helvetica,sans-Serif" font-size="10.00">Logger::GetInstance</text>
</a>
</g>
</g>
<!-- Node1&#45;&gt;Node5 -->
<g id="edge4_Node000001_Node000005" class="edge">
<title>Node1&#45;&gt;Node5</title>
<g id="a_edge4_Node000001_Node000005"><a xlink:title=" ">
<path fill="none" stroke="#63b8ff" d="M167.01,-94.31C179.07,-95.11 191.35,-95.8 203,-96.24 457.93,-105.91 522.43,-112.77 777,-96.24 785.32,-95.7 794.03,-94.89 802.64,-93.93"/>
<polygon fill="#63b8ff" stroke="#63b8ff" points="803.15,-97.4 812.67,-92.76 802.34,-90.45 803.15,-97.4"/>
</a>
</g>
</g>
<!-- Node6 -->
<g id="Node000006" class="node">
<title>Node6</title>
<g id="a_Node000006"><a xlink:href="classTmc9660Handler.html#a393382194d0602e7aa02da6a8fd7a20a" target="_top" xlink:title="Get a reference to the Temperature wrapper.">
<polygon fill="white" stroke="#666666" points="370,-68.74 203,-68.74 203,-49.74 370,-49.74 370,-68.74"/>
<text text-anchor="middle" x="286.5" y="-56.74" font-family="Helvetica,sans-Serif" font-size="10.00">Tmc9660Handler::temperature</text>
</a>
</g>
</g>
<!-- Node1&#45;&gt;Node6 -->
<g id="edge5_Node000001_Node000006" class="edge">
<title>Node1&#45;&gt;Node6</title>
<g id="a_edge5_Node000001_Node000006"><a xlink:title=" ">
<path fill="none" stroke="#63b8ff" d="M167.12,-75.73C180.41,-73.88 194.13,-71.97 207.31,-70.13"/>
<polygon fill="#63b8ff" stroke="#63b8ff" points="207.85,-73.59 217.27,-68.74 206.88,-66.66 207.85,-73.59"/>
</a>
</g>
</g>
<!-- Node11 -->
<g id="Node000011" class="node">
<title>Node11</title>
<g id="a_Node000011"><a xlink:href="classLogger.html#aaa95ffa14d07a965d4a85bdec82cba26" target="_top" xlink:title="Log warning message.">
<polygon fill="white" stroke="#666666" points="910,-130.74 830,-130.74 830,-111.74 910,-111.74 910,-130.74"/>
<text text-anchor="middle" x="870" y="-118.74" font-family="Helvetica,sans-Serif" font-size="10.00">Logger::Warn</text>
</a>
</g>
</g>
<!-- Node1&#45;&gt;Node11 -->
<g id="edge15_Node000001_Node000011" class="edge">
<title>Node1&#45;&gt;Node11</title>
<g id="a_edge15_Node000001_Node000011"><a xlink:title=" ">
<path fill="none" stroke="#63b8ff" d="M142.58,-102.31C161.7,-106.64 183.14,-110.84 203,-113.24 432.09,-140.93 708.73,-130.31 819.57,-124.28"/>
<polygon fill="#63b8ff" stroke="#63b8ff" points="819.98,-127.76 829.77,-123.71 819.59,-120.78 819.98,-127.76"/>
</a>
</g>
</g>
<!-- Node3 -->
<g id="Node000003" class="node">
<title>Node3</title>
<g id="a_Node000003"><a xlink:href="classLogger.html#af9e84e0ff6bd538e4f9ed8dcebc3e2f0" target="_top" xlink:title="Check if log level is enabled for tag.">
<polygon fill="white" stroke="#666666" points="1092,-74.74 963,-74.74 963,-55.74 1092,-55.74 1092,-74.74"/>
<text text-anchor="middle" x="1027.5" y="-62.74" font-family="Helvetica,sans-Serif" font-size="10.00">Logger::IsLevelEnabled</text>
</a>
</g>
</g>
<!-- Node2&#45;&gt;Node3 -->
<g id="edge2_Node000002_Node000003" class="edge">
<title>Node2&#45;&gt;Node3</title>
<g id="a_edge2_Node000002_Node000003"><a xlink:title=" ">
<path fill="none" stroke="#63b8ff" d="M903.58,-19.78C911.34,-22.31 919.53,-25.19 927,-28.24 943.56,-35 946.37,-39.65 963,-46.24 968.62,-48.47 974.61,-50.58 980.57,-52.53"/>
<polygon fill="#63b8ff" stroke="#63b8ff" points="979.94,-56 990.53,-55.65 982.04,-49.32 979.94,-56"/>
</a>
</g>
</g>
<!-- Node4 -->
<g id="Node000004" class="node">
<title>Node4</title>
<g id="a_Node000004"><a xlink:href="classLogger.html#a6adb205db597526fb91ad20067400394" target="_top" xlink:title="Internal logging method.">
<polygon fill="white" stroke="#666666" points="1082.5,-37.74 972.5,-37.74 972.5,-18.74 1082.5,-18.74 1082.5,-37.74"/>
<text text-anchor="middle" x="1027.5" y="-25.74" font-family="Helvetica,sans-Serif" font-size="10.00">Logger::LogInternal</text>
</a>
</g>
</g>
<!-- Node2&#45;&gt;Node4 -->
<g id="edge3_Node000002_Node000004" class="edge">
<title>Node2&#45;&gt;Node4</title>
<g id="a_edge3_Node000002_Node000004"><a xlink:title=" ">
<path fill="none" stroke="#63b8ff" d="M909.84,-14.73C925.63,-16.56 944.31,-18.72 962.03,-20.78"/>
<polygon fill="#63b8ff" stroke="#63b8ff" points="962,-24.3 972.33,-21.97 962.8,-17.34 962,-24.3"/>
</a>
</g>
</g>
<!-- Node6&#45;&gt;Node6 -->
<g id="edge14_Node000006_Node000006" class="edge">
<title>Node6&#45;&gt;Node6</title>
<g id="a_edge14_Node000006_Node000006"><a xlink:title=" ">
<path fill="none" stroke="#63b8ff" d="M255.37,-68.82C240.22,-77.47 250.6,-86.74 286.5,-86.74 311.74,-86.74 324.37,-82.16 324.37,-76.43"/>
<polygon fill="#63b8ff" stroke="#63b8ff" points="326.89,-73.99 317.63,-68.82 321.65,-78.63 326.89,-73.99"/>
</a>
</g>
</g>
<!-- Node7 -->
<g id="Node000007" class="node">
<title>Node7</title>
<g id="a_Node000007"><a xlink:href="classTmc9660Handler.html#a5a279ae9d4b5a8e0d71cb24577ad88ea" target="_top" xlink:title="Ensure driver is initialized (lazy init entrypoint).">
<polygon fill="white" stroke="#666666" points="593,-68.74 406,-68.74 406,-49.74 593,-49.74 593,-68.74"/>
<text text-anchor="middle" x="499.5" y="-56.74" font-family="Helvetica,sans-Serif" font-size="10.00">Tmc9660Handler::EnsureInitialized</text>
</a>
</g>
</g>
<!-- Node6&#45;&gt;Node7 -->
<g id="edge6_Node000006_Node000007" class="edge">
<title>Node6&#45;&gt;Node7</title>
<g id="a_edge6_Node000006_Node000007"><a xlink:title=" ">
<path fill="none" stroke="#63b8ff" d="M370.29,-59.24C378.67,-59.24 387.25,-59.24 395.81,-59.24"/>
<polygon fill="#63b8ff" stroke="#63b8ff" points="395.83,-62.74 405.83,-59.24 395.83,-55.74 395.83,-62.74"/>
</a>
</g>
</g>
<!-- Node8 -->
<g id="Node000008" class="node">
<title>Node8</title>
<g id="a_Node000008"><a xlink:href="classTmc9660Handler.html#adc564847f8ae26c47412aaee0758991c" target="_top" xlink:title="Initialize the TMC9660 device.">
<polygon fill="white" stroke="#666666" points="777,-38.74 629,-38.74 629,-19.74 777,-19.74 777,-38.74"/>
<text text-anchor="middle" x="703" y="-26.74" font-family="Helvetica,sans-Serif" font-size="10.00">Tmc9660Handler::Initialize</text>
</a>
</g>
</g>
<!-- Node7&#45;&gt;Node8 -->
<g id="edge7_Node000007_Node000008" class="edge">
<title>Node7&#45;&gt;Node8</title>
<g id="a_edge7_Node000007_Node000008"><a xlink:title=" ">
<path fill="none" stroke="#63b8ff" d="M564.53,-49.71C584.74,-46.7 607.22,-43.35 628.06,-40.25"/>
<polygon fill="#63b8ff" stroke="#63b8ff" points="628.76,-43.68 638.13,-38.75 627.73,-36.76 628.76,-43.68"/>
</a>
</g>
</g>
<!-- Node10 -->
<g id="Node000010" class="node">
<title>Node10</title>
<g id="a_Node000010"><a xlink:href="classTmc9660Handler.html#a13db97d201a287d8aa60384e04070b9f" target="_top" xlink:title="Check if the TMC9660 driver has been initialized and is ready.">
<polygon fill="white" stroke="#666666" points="775,-87.24 631,-87.24 631,-57.24 775,-57.24 775,-87.24"/>
<text text-anchor="start" x="639" y="-75.24" font-family="Helvetica,sans-Serif" font-size="10.00">Tmc9660Handler::IsDriver</text>
<text text-anchor="middle" x="703" y="-64.24" font-family="Helvetica,sans-Serif" font-size="10.00">Ready</text>
</a>
</g>
</g>
<!-- Node7&#45;&gt;Node10 -->
<g id="edge13_Node000007_Node000010" class="edge">
<title>Node7&#45;&gt;Node10</title>
<g id="a_edge13_Node000007_Node000010"><a xlink:title=" ">
<path fill="none" stroke="#63b8ff" d="M593.29,-65.23C602.44,-65.82 611.69,-66.41 620.71,-66.99"/>
<polygon fill="#63b8ff" stroke="#63b8ff" points="620.59,-70.49 630.8,-67.65 621.04,-63.51 620.59,-70.49"/>
</a>
</g>
</g>
<!-- Node8&#45;&gt;Node2 -->
<g id="edge8_Node000008_Node000002" class="edge">
<title>Node8&#45;&gt;Node2</title>
<g id="a_edge8_Node000008_Node000002"><a xlink:title=" ">
<path fill="none" stroke="#63b8ff" d="M777.33,-20.79C791.87,-19.12 806.8,-17.4 820.27,-15.85"/>
<polygon fill="#63b8ff" stroke="#63b8ff" points="820.73,-19.32 830.26,-14.7 819.92,-12.37 820.73,-19.32"/>
</a>
</g>
</g>
<!-- Node8&#45;&gt;Node5 -->
<g id="edge9_Node000008_Node000005" class="edge">
<title>Node8&#45;&gt;Node5</title>
<g id="a_edge9_Node000008_Node000005"><a xlink:title=" ">
<path fill="none" stroke="#63b8ff" d="M746.93,-38.82C756.92,-41.48 767.44,-44.65 777,-48.24 793.75,-54.53 796.44,-59.48 813,-66.24 817.44,-68.05 822.13,-69.8 826.83,-71.45"/>
<polygon fill="#63b8ff" stroke="#63b8ff" points="825.83,-74.81 836.42,-74.69 828.07,-68.18 825.83,-74.81"/>
</a>
</g>
</g>
<!-- Node9 -->
<g id="Node000009" class="node">
<title>Node9</title>
<g id="a_Node000009"><a xlink:href="classLogger.html#a4681229c521795685fc14f6b55c82300" target="_top" xlink:title="Log info message.">
<polygon fill="white" stroke="#666666" points="907,-56.74 833,-56.74 833,-37.74 907,-37.74 907,-56.74"/>
<text text-anchor="middle" x="870" y="-44.74" font-family="Helvetica,sans-Serif" font-size="10.00">Logger::Info</text>
</a>
</g>
</g>
<!-- Node8&#45;&gt;Node9 -->
<g id="edge10_Node000008_Node000009" class="edge">
<title>Node8&#45;&gt;Node9</title>
<g id="a_edge10_Node000008_Node000009"><a xlink:title=" ">
<path fill="none" stroke="#63b8ff" d="M777.33,-37.24C792.85,-38.93 808.8,-40.67 822.96,-42.22"/>
<polygon fill="#63b8ff" stroke="#63b8ff" points="822.6,-45.7 832.92,-43.3 823.36,-38.74 822.6,-45.7"/>
</a>
</g>
</g>
<!-- Node9&#45;&gt;Node3 -->
<g id="edge11_Node000009_Node000003" class="edge">
<title>Node9&#45;&gt;Node3</title>
<g id="a_edge11_Node000009_Node000003"><a xlink:title=" ">
<path fill="none" stroke="#63b8ff" d="M907.07,-51.41C920.68,-52.99 936.72,-54.85 952.55,-56.68"/>
<polygon fill="#63b8ff" stroke="#63b8ff" points="952.55,-60.2 962.89,-57.88 953.36,-53.25 952.55,-60.2"/>
</a>
</g>
</g>
<!-- Node9&#45;&gt;Node4 -->
<g id="edge12_Node000009_Node000004" class="edge">
<title>Node9&#45;&gt;Node4</title>
<g id="a_edge12_Node000009_Node000004"><a xlink:title=" ">
<path fill="none" stroke="#63b8ff" d="M907.07,-42.83C923.49,-40.83 943.44,-38.39 962.3,-36.08"/>
<polygon fill="#63b8ff" stroke="#63b8ff" points="962.83,-39.54 972.33,-34.86 961.98,-32.6 962.83,-39.54"/>
</a>
</g>
</g>
<!-- Node11&#45;&gt;Node3 -->
<g id="edge16_Node000011_Node000003" class="edge">
<title>Node11&#45;&gt;Node3</title>
<g id="a_edge16_Node000011_Node000003"><a xlink:title=" ">
<path fill="none" stroke="#63b8ff" d="M901.62,-111.73C909.89,-109.07 918.81,-106.12 927,-103.24 949.14,-95.46 973.77,-86.06 992.99,-78.55"/>
<polygon fill="#63b8ff" stroke="#63b8ff" points="994.48,-81.73 1002.51,-74.82 991.92,-75.21 994.48,-81.73"/>
</a>
</g>
</g>
<!-- Node11&#45;&gt;Node4 -->
<g id="edge17_Node000011_Node000004" class="edge">
<title>Node11&#45;&gt;Node4</title>
<g id="a_edge17_Node000011_Node000004"><a xlink:title=" ">
<path fill="none" stroke="#63b8ff" d="M910.11,-112.58C916.13,-110.17 922,-107.12 927,-103.24 950.68,-84.89 939,-64.18 963,-46.24 964.86,-44.85 966.83,-43.56 968.88,-42.37"/>
<polygon fill="#63b8ff" stroke="#63b8ff" points="970.8,-45.33 978.24,-37.78 967.72,-39.04 970.8,-45.33"/>
</a>
</g>
</g>
</g>
</svg>
