<?xml version="1.0" encoding="UTF-8" standalone="no"?>
<!DOCTYPE svg PUBLIC "-//W3C//DTD SVG 1.1//EN"
 "http://www.w3.org/Graphics/SVG/1.1/DTD/svg11.dtd">
<!-- Generated by graphviz version 2.43.0 (0)
 -->
<!-- Title: As5047uHandler::ResetToDefaults Pages: 1 -->
<svg width="422pt" height="124pt"
 viewBox="0.00 0.00 422.00 123.50" xmlns="http://www.w3.org/2000/svg" xmlns:xlink="http://www.w3.org/1999/xlink">
<g id="graph0" class="graph" transform="scale(1 1) rotate(0) translate(4 119.5)">
<title>As5047uHandler::ResetToDefaults</title>
<!-- Node1 -->
<g id="Node000001" class="node">
<title>Node1</title>
<g id="a_Node000001"><a xlink:title="Reset sensor to default configuration.">
<polygon fill="#999999" stroke="#666666" points="182,-72.5 0,-72.5 0,-53.5 182,-53.5 182,-72.5"/>
<text text-anchor="middle" x="91" y="-60.5" font-family="Helvetica,sans-Serif" font-size="10.00">As5047uHandler::ResetToDefaults</text>
</a>
</g>
</g>
<!-- Node2 -->
<g id="Node000002" class="node">
<title>Node2</title>
<g id="a_Node000002"><a xlink:href="classAs5047uHandler.html#a0e7c20d4fd883c55ff9091041ec04c39" target="_top" xlink:title="Apply configuration to sensor.">
<polygon fill="white" stroke="#666666" points="414,-115.5 218,-115.5 218,-96.5 414,-96.5 414,-115.5"/>
<text text-anchor="middle" x="316" y="-103.5" font-family="Helvetica,sans-Serif" font-size="10.00">As5047uHandler::ApplyConfiguration</text>
</a>
</g>
</g>
<!-- Node1&#45;&gt;Node2 -->
<g id="edge1_Node000001_Node000002" class="edge">
<title>Node1&#45;&gt;Node2</title>
<g id="a_edge1_Node000001_Node000002"><a xlink:title=" ">
<path fill="none" stroke="#63b8ff" d="M141.49,-72.54C175.13,-79.03 219.8,-87.64 255.39,-94.51"/>
<polygon fill="#63b8ff" stroke="#63b8ff" points="255.17,-98.03 265.65,-96.48 256.49,-91.15 255.17,-98.03"/>
</a>
</g>
</g>
<!-- Node3 -->
<g id="Node000003" class="node">
<title>Node3</title>
<g id="a_Node000003"><a xlink:href="classAs5047uHandler.html#a5cfe5bb285cb087d078e5f248ccd0d82" target="_top" xlink:title="Get default sensor configuration.">
<polygon fill="white" stroke="#666666" points="394,-78 238,-78 238,-48 394,-48 394,-78"/>
<text text-anchor="start" x="246" y="-66" font-family="Helvetica,sans-Serif" font-size="10.00">As5047uHandler::GetDefault</text>
<text text-anchor="middle" x="316" y="-55" font-family="Helvetica,sans-Serif" font-size="10.00">Config</text>
</a>
</g>
</g>
<!-- Node1&#45;&gt;Node3 -->
<g id="edge2_Node000001_Node000003" class="edge">
<title>Node1&#45;&gt;Node3</title>
<g id="a_edge2_Node000001_Node000003"><a xlink:title=" ">
<path fill="none" stroke="#63b8ff" d="M182.06,-63C197.09,-63 212.65,-63 227.61,-63"/>
<polygon fill="#63b8ff" stroke="#63b8ff" points="227.86,-66.5 237.86,-63 227.86,-59.5 227.86,-66.5"/>
</a>
</g>
</g>
<!-- Node4 -->
<g id="Node000004" class="node">
<title>Node4</title>
<g id="a_Node000004"><a xlink:href="classAs5047uHandler.html#addb535ba454de53261b075c057339879" target="_top" xlink:title="Validate sensor parameters.">
<polygon fill="white" stroke="#666666" points="387.5,-30 244.5,-30 244.5,0 387.5,0 387.5,-30"/>
<text text-anchor="start" x="252.5" y="-18" font-family="Helvetica,sans-Serif" font-size="10.00">As5047uHandler::Validate</text>
<text text-anchor="middle" x="316" y="-7" font-family="Helvetica,sans-Serif" font-size="10.00">Sensor</text>
</a>
</g>
</g>
<!-- Node1&#45;&gt;Node4 -->
<g id="edge3_Node000001_Node000004" class="edge">
<title>Node1&#45;&gt;Node4</title>
<g id="a_edge3_Node000001_Node000004"><a xlink:title=" ">
<path fill="none" stroke="#63b8ff" d="M136.32,-53.46C164.53,-47.39 201.87,-39.35 235.12,-32.19"/>
<polygon fill="#63b8ff" stroke="#63b8ff" points="236.26,-35.53 245.3,-30 234.78,-28.69 236.26,-35.53"/>
</a>
</g>
</g>
</g>
</svg>
