<?xml version="1.0" encoding="UTF-8" standalone="no"?>
<!DOCTYPE svg PUBLIC "-//W3C//DTD SVG 1.1//EN"
 "http://www.w3.org/Graphics/SVG/1.1/DTD/svg11.dtd">
<!-- Generated by graphviz version 2.43.0 (0)
 -->
<!-- Title: Tmc5160Handler::EnsureInitializedLocked Pages: 1 -->
<svg width="694pt" height="138pt"
 viewBox="0.00 0.00 694.00 138.00" xmlns="http://www.w3.org/2000/svg" xmlns:xlink="http://www.w3.org/1999/xlink">
<g id="graph0" class="graph" transform="scale(1 1) rotate(0) translate(4 134)">
<title>Tmc5160Handler::EnsureInitializedLocked</title>
<!-- Node1 -->
<g id="Node000001" class="node">
<title>Node1</title>
<g id="a_Node000001"><a xlink:title=" ">
<polygon fill="#999999" stroke="#666666" points="187,-79.5 0,-79.5 0,-49.5 187,-49.5 187,-79.5"/>
<text text-anchor="start" x="8" y="-67.5" font-family="Helvetica,sans-Serif" font-size="10.00">Tmc5160Handler::EnsureInitialized</text>
<text text-anchor="middle" x="93.5" y="-56.5" font-family="Helvetica,sans-Serif" font-size="10.00">Locked</text>
</a>
</g>
</g>
<!-- Node2 -->
<g id="Node000002" class="node">
<title>Node2</title>
<g id="a_Node000002"><a xlink:href="classTmc5160Handler.html#a64755f326176b0a38485acf5ca69fd0c" target="_top" xlink:title="Initialize the TMC5160 driver with full configuration.">
<polygon fill="white" stroke="#666666" points="371,-74 223,-74 223,-55 371,-55 371,-74"/>
<text text-anchor="middle" x="297" y="-62" font-family="Helvetica,sans-Serif" font-size="10.00">Tmc5160Handler::Initialize</text>
</a>
</g>
</g>
<!-- Node1&#45;&gt;Node2 -->
<g id="edge1_Node000001_Node000002" class="edge">
<title>Node1&#45;&gt;Node2</title>
<g id="a_edge1_Node000001_Node000002"><a xlink:title=" ">
<path fill="none" stroke="#63b8ff" d="M187.29,-64.5C195.73,-64.5 204.25,-64.5 212.61,-64.5"/>
<polygon fill="#63b8ff" stroke="#63b8ff" points="212.7,-68 222.7,-64.5 212.7,-61 212.7,-68"/>
</a>
</g>
</g>
<!-- Node3 -->
<g id="Node000003" class="node">
<title>Node3</title>
<g id="a_Node000003"><a xlink:href="classLogger.html#a5e4bcdaea60b9ac227b564d780388769" target="_top" xlink:title="Log error message.">
<polygon fill="white" stroke="#666666" points="503.5,-130 424.5,-130 424.5,-111 503.5,-111 503.5,-130"/>
<text text-anchor="middle" x="464" y="-118" font-family="Helvetica,sans-Serif" font-size="10.00">Logger::Error</text>
</a>
</g>
</g>
<!-- Node2&#45;&gt;Node3 -->
<g id="edge2_Node000002_Node000003" class="edge">
<title>Node2&#45;&gt;Node3</title>
<g id="a_edge2_Node000002_Node000003"><a xlink:title=" ">
<path fill="none" stroke="#63b8ff" d="M324.81,-74.05C346.84,-81.85 378.88,-93.08 407,-102.5 412.2,-104.24 417.69,-106.05 423.12,-107.81"/>
<polygon fill="#63b8ff" stroke="#63b8ff" points="422.14,-111.17 432.73,-110.92 424.29,-104.51 422.14,-111.17"/>
</a>
</g>
</g>
<!-- Node6 -->
<g id="Node000006" class="node">
<title>Node6</title>
<g id="a_Node000006"><a xlink:href="classLogger.html#a5789d11f8f1356e2192c0023a089cbc4" target="_top" xlink:title="Get singleton instance.">
<polygon fill="white" stroke="#666666" points="521,-19 407,-19 407,0 521,0 521,-19"/>
<text text-anchor="middle" x="464" y="-7" font-family="Helvetica,sans-Serif" font-size="10.00">Logger::GetInstance</text>
</a>
</g>
</g>
<!-- Node2&#45;&gt;Node6 -->
<g id="edge5_Node000002_Node000006" class="edge">
<title>Node2&#45;&gt;Node6</title>
<g id="a_edge5_Node000002_Node000006"><a xlink:title=" ">
<path fill="none" stroke="#63b8ff" d="M325.73,-54.95C347.74,-47.4 379.3,-36.65 407,-27.5 412.27,-25.76 417.83,-23.94 423.32,-22.17"/>
<polygon fill="#63b8ff" stroke="#63b8ff" points="424.59,-25.43 433.04,-19.03 422.44,-18.77 424.59,-25.43"/>
</a>
</g>
</g>
<!-- Node7 -->
<g id="Node000007" class="node">
<title>Node7</title>
<g id="a_Node000007"><a xlink:href="classLogger.html#a1c0c947d87884bca0395fd38d19d1102" target="_top" xlink:title="Log info message.">
<polygon fill="white" stroke="#666666" points="501,-93 427,-93 427,-74 501,-74 501,-93"/>
<text text-anchor="middle" x="464" y="-81" font-family="Helvetica,sans-Serif" font-size="10.00">Logger::Info</text>
</a>
</g>
</g>
<!-- Node2&#45;&gt;Node7 -->
<g id="edge6_Node000002_Node000007" class="edge">
<title>Node2&#45;&gt;Node7</title>
<g id="a_edge6_Node000002_Node000007"><a xlink:title=" ">
<path fill="none" stroke="#63b8ff" d="M371.33,-72.94C386.85,-74.73 402.8,-76.57 416.96,-78.2"/>
<polygon fill="#63b8ff" stroke="#63b8ff" points="416.58,-81.68 426.92,-79.35 417.38,-74.72 416.58,-81.68"/>
</a>
</g>
</g>
<!-- Node8 -->
<g id="Node000008" class="node">
<title>Node8</title>
<g id="a_Node000008"><a xlink:href="classLogger.html#a8c19c14724b0be1d2be63da4258c001a" target="_top" xlink:title="Log warning message.">
<polygon fill="white" stroke="#666666" points="504,-56 424,-56 424,-37 504,-37 504,-56"/>
<text text-anchor="middle" x="464" y="-44" font-family="Helvetica,sans-Serif" font-size="10.00">Logger::Warn</text>
</a>
</g>
</g>
<!-- Node2&#45;&gt;Node8 -->
<g id="edge9_Node000002_Node000008" class="edge">
<title>Node2&#45;&gt;Node8</title>
<g id="a_edge9_Node000002_Node000008"><a xlink:title=" ">
<path fill="none" stroke="#63b8ff" d="M371.33,-56.5C385.59,-54.94 400.23,-53.35 413.49,-51.9"/>
<polygon fill="#63b8ff" stroke="#63b8ff" points="414.25,-55.34 423.81,-50.78 413.49,-48.38 414.25,-55.34"/>
</a>
</g>
</g>
<!-- Node4 -->
<g id="Node000004" class="node">
<title>Node4</title>
<g id="a_Node000004"><a xlink:href="classLogger.html#a737b981213c02321a5235848334d7191" target="_top" xlink:title="Check if log level is enabled for tag.">
<polygon fill="white" stroke="#666666" points="686,-111 557,-111 557,-92 686,-92 686,-111"/>
<text text-anchor="middle" x="621.5" y="-99" font-family="Helvetica,sans-Serif" font-size="10.00">Logger::IsLevelEnabled</text>
</a>
</g>
</g>
<!-- Node3&#45;&gt;Node4 -->
<g id="edge3_Node000003_Node000004" class="edge">
<title>Node3&#45;&gt;Node4</title>
<g id="a_edge3_Node000003_Node000004"><a xlink:title=" ">
<path fill="none" stroke="#63b8ff" d="M503.84,-115.75C516.85,-114.16 531.82,-112.34 546.6,-110.53"/>
<polygon fill="#63b8ff" stroke="#63b8ff" points="547.28,-113.97 556.78,-109.29 546.43,-107.02 547.28,-113.97"/>
</a>
</g>
</g>
<!-- Node5 -->
<g id="Node000005" class="node">
<title>Node5</title>
<g id="a_Node000005"><a xlink:href="classLogger.html#aeede6ac18db92a47caede076ef188a13" target="_top" xlink:title="Internal logging method.">
<polygon fill="white" stroke="#666666" points="676.5,-74 566.5,-74 566.5,-55 676.5,-55 676.5,-74"/>
<text text-anchor="middle" x="621.5" y="-62" font-family="Helvetica,sans-Serif" font-size="10.00">Logger::LogInternal</text>
</a>
</g>
</g>
<!-- Node3&#45;&gt;Node5 -->
<g id="edge4_Node000003_Node000005" class="edge">
<title>Node3&#45;&gt;Node5</title>
<g id="a_edge4_Node000003_Node000005"><a xlink:title=" ">
<path fill="none" stroke="#63b8ff" d="M497.92,-110.98C505.59,-108.47 513.66,-105.59 521,-102.5 537.68,-95.48 540.25,-90.35 557,-83.5 562.53,-81.24 568.42,-79.12 574.31,-77.16"/>
<polygon fill="#63b8ff" stroke="#63b8ff" points="575.67,-80.41 584.14,-74.05 573.55,-73.73 575.67,-80.41"/>
</a>
</g>
</g>
<!-- Node7&#45;&gt;Node4 -->
<g id="edge7_Node000007_Node000004" class="edge">
<title>Node7&#45;&gt;Node4</title>
<g id="a_edge7_Node000007_Node000004"><a xlink:title=" ">
<path fill="none" stroke="#63b8ff" d="M501.07,-87.67C514.68,-89.25 530.72,-91.11 546.55,-92.94"/>
<polygon fill="#63b8ff" stroke="#63b8ff" points="546.55,-96.46 556.89,-94.14 547.36,-89.51 546.55,-96.46"/>
</a>
</g>
</g>
<!-- Node7&#45;&gt;Node5 -->
<g id="edge8_Node000007_Node000005" class="edge">
<title>Node7&#45;&gt;Node5</title>
<g id="a_edge8_Node000007_Node000005"><a xlink:title=" ">
<path fill="none" stroke="#63b8ff" d="M501.07,-79.09C517.49,-77.09 537.44,-74.65 556.3,-72.34"/>
<polygon fill="#63b8ff" stroke="#63b8ff" points="556.83,-75.81 566.33,-71.12 555.98,-68.86 556.83,-75.81"/>
</a>
</g>
</g>
<!-- Node8&#45;&gt;Node4 -->
<g id="edge10_Node000008_Node000004" class="edge">
<title>Node8&#45;&gt;Node4</title>
<g id="a_edge10_Node000008_Node000004"><a xlink:title=" ">
<path fill="none" stroke="#63b8ff" d="M495.51,-56.01C503.86,-58.84 512.85,-62.1 521,-65.5 537.51,-72.39 540.32,-77.03 557,-83.5 562.07,-85.47 567.45,-87.33 572.85,-89.05"/>
<polygon fill="#63b8ff" stroke="#63b8ff" points="571.92,-92.42 582.51,-91.99 573.96,-85.73 571.92,-92.42"/>
</a>
</g>
</g>
<!-- Node8&#45;&gt;Node5 -->
<g id="edge11_Node000008_Node000005" class="edge">
<title>Node8&#45;&gt;Node5</title>
<g id="a_edge11_Node000008_Node000005"><a xlink:title=" ">
<path fill="none" stroke="#63b8ff" d="M504.24,-51.04C519.96,-52.86 538.49,-55.01 556.08,-57.04"/>
<polygon fill="#63b8ff" stroke="#63b8ff" points="555.96,-60.55 566.3,-58.23 556.77,-53.6 555.96,-60.55"/>
</a>
</g>
</g>
</g>
</svg>
