<?xml version="1.0" encoding="UTF-8" standalone="no"?>
<!DOCTYPE svg PUBLIC "-//W3C//DTD SVG 1.1//EN"
 "http://www.w3.org/Graphics/SVG/1.1/DTD/svg11.dtd">
<!-- Generated by graphviz version 2.43.0 (0)
 -->
<!-- Title: As5047uHandler::LSBToDegrees Pages: 1 -->
<svg width="475pt" height="101pt"
 viewBox="0.00 0.00 475.00 101.00" xmlns="http://www.w3.org/2000/svg" xmlns:xlink="http://www.w3.org/1999/xlink">
<g id="graph0" class="graph" transform="scale(1 1) rotate(0) translate(4 97)">
<title>As5047uHandler::LSBToDegrees</title>
<!-- Node1 -->
<g id="Node000001" class="node">
<title>Node1</title>
<g id="a_Node000001"><a xlink:title="Convert angle LSB to degrees.">
<polygon fill="#999999" stroke="#666666" points="467,-56 295,-56 295,-37 467,-37 467,-56"/>
<text text-anchor="middle" x="381" y="-44" font-family="Helvetica,sans-Serif" font-size="10.00">As5047uHandler::LSBToDegrees</text>
</a>
</g>
</g>
<!-- Node2 -->
<g id="Node000002" class="node">
<title>Node2</title>
<g id="a_Node000002"><a xlink:href="as5047u__handler__comprehensive__test_8cpp.html#ad3a7324df7618ad71a625be571cfc342" target="_top" xlink:title=" ">
<polygon fill="white" stroke="#666666" points="259,-93 101,-93 101,-74 259,-74 259,-93"/>
<text text-anchor="middle" x="180" y="-81" font-family="Helvetica,sans-Serif" font-size="10.00">test_read_angle_consistency</text>
</a>
</g>
</g>
<!-- Node1&#45;&gt;Node2 -->
<g id="edge1_Node000001_Node000002" class="edge">
<title>Node1&#45;&gt;Node2</title>
<g id="a_edge1_Node000001_Node000002"><a xlink:title=" ">
<path fill="none" stroke="#63b8ff" d="M318.79,-57.88C291.13,-63.02 258.8,-69.03 232.42,-73.94"/>
<polygon fill="#63b8ff" stroke="#63b8ff" points="319.56,-61.3 328.75,-56.03 318.28,-54.42 319.56,-61.3"/>
</a>
</g>
</g>
<!-- Node4 -->
<g id="Node000004" class="node">
<title>Node4</title>
<g id="a_Node000004"><a xlink:href="as5047u__handler__comprehensive__test_8cpp.html#ae748208ee2c6327a34a5041ad68af5a0" target="_top" xlink:title=" ">
<polygon fill="white" stroke="#666666" points="249.5,-56 110.5,-56 110.5,-37 249.5,-37 249.5,-56"/>
<text text-anchor="middle" x="180" y="-44" font-family="Helvetica,sans-Serif" font-size="10.00">test_read_angle_degrees</text>
</a>
</g>
</g>
<!-- Node1&#45;&gt;Node4 -->
<g id="edge3_Node000001_Node000004" class="edge">
<title>Node1&#45;&gt;Node4</title>
<g id="a_edge3_Node000001_Node000004"><a xlink:title=" ">
<path fill="none" stroke="#63b8ff" d="M284.43,-46.5C272.67,-46.5 260.83,-46.5 249.57,-46.5"/>
<polygon fill="#63b8ff" stroke="#63b8ff" points="284.74,-50 294.74,-46.5 284.74,-43 284.74,-50"/>
</a>
</g>
</g>
<!-- Node5 -->
<g id="Node000005" class="node">
<title>Node5</title>
<g id="a_Node000005"><a xlink:href="as5047u__handler__comprehensive__test_8cpp.html#a153219dbdbf2b72e8928235f1197942d" target="_top" xlink:title=" ">
<polygon fill="white" stroke="#666666" points="243,-19 117,-19 117,0 243,0 243,-19"/>
<text text-anchor="middle" x="180" y="-7" font-family="Helvetica,sans-Serif" font-size="10.00">test_set_zero_position</text>
</a>
</g>
</g>
<!-- Node1&#45;&gt;Node5 -->
<g id="edge5_Node000001_Node000005" class="edge">
<title>Node1&#45;&gt;Node5</title>
<g id="a_edge5_Node000001_Node000005"><a xlink:title=" ">
<path fill="none" stroke="#63b8ff" d="M318.79,-35.12C291.13,-29.98 258.8,-23.97 232.42,-19.06"/>
<polygon fill="#63b8ff" stroke="#63b8ff" points="318.28,-38.58 328.75,-36.97 319.56,-31.7 318.28,-38.58"/>
</a>
</g>
</g>
<!-- Node3 -->
<g id="Node000003" class="node">
<title>Node3</title>
<g id="a_Node000003"><a xlink:href="as5047u__handler__comprehensive__test_8cpp.html#a630544a7f0a2cc40d8a7fefab7e2fe70" target="_top" xlink:title=" ">
<polygon fill="white" stroke="#666666" points="65,-56 0,-56 0,-37 65,-37 65,-56"/>
<text text-anchor="middle" x="32.5" y="-44" font-family="Helvetica,sans-Serif" font-size="10.00">app_main</text>
</a>
</g>
</g>
<!-- Node2&#45;&gt;Node3 -->
<g id="edge2_Node000002_Node000003" class="edge">
<title>Node2&#45;&gt;Node3</title>
<g id="a_edge2_Node000002_Node000003"><a xlink:title=" ">
<path fill="none" stroke="#63b8ff" d="M126.21,-71.68C117.76,-69.68 109.13,-67.58 101,-65.5 89.21,-62.48 76.33,-58.92 65.01,-55.7"/>
<polygon fill="#63b8ff" stroke="#63b8ff" points="125.46,-75.1 136,-73.96 127.06,-68.28 125.46,-75.1"/>
</a>
</g>
</g>
<!-- Node4&#45;&gt;Node3 -->
<g id="edge4_Node000004_Node000003" class="edge">
<title>Node4&#45;&gt;Node3</title>
<g id="a_edge4_Node000004_Node000003"><a xlink:title=" ">
<path fill="none" stroke="#63b8ff" d="M99.77,-46.5C87.51,-46.5 75.51,-46.5 65.16,-46.5"/>
<polygon fill="#63b8ff" stroke="#63b8ff" points="100.08,-50 110.08,-46.5 100.08,-43 100.08,-50"/>
</a>
</g>
</g>
<!-- Node5&#45;&gt;Node3 -->
<g id="edge6_Node000005_Node000003" class="edge">
<title>Node5&#45;&gt;Node3</title>
<g id="a_edge6_Node000005_Node000003"><a xlink:title=" ">
<path fill="none" stroke="#63b8ff" d="M128.96,-21.52C119.65,-23.8 110.03,-26.2 101,-28.5 89.25,-31.5 76.38,-34.9 65.06,-37.93"/>
<polygon fill="#63b8ff" stroke="#63b8ff" points="129.99,-24.87 138.88,-19.1 128.33,-18.07 129.99,-24.87"/>
</a>
</g>
</g>
</g>
</svg>
