<?xml version="1.0" encoding="UTF-8" standalone="no"?>
<!DOCTYPE svg PUBLIC "-//W3C//DTD SVG 1.1//EN"
 "http://www.w3.org/Graphics/SVG/1.1/DTD/svg11.dtd">
<!-- Generated by graphviz version 2.43.0 (0)
 -->
<!-- Title: main Pages: 1 -->
<svg width="401pt" height="125pt"
 viewBox="0.00 0.00 401.00 125.00" xmlns="http://www.w3.org/2000/svg" xmlns:xlink="http://www.w3.org/1999/xlink">
<g id="graph0" class="graph" transform="scale(1 1) rotate(0) translate(4 121)">
<title>main</title>
<g id="clust1" class="cluster">
<title>clusterdir_74be4f6a8c360206df72b1bb4057fb39</title>
<g id="a_clust1"><a xlink:href="dir_74be4f6a8c360206df72b1bb4057fb39.html" target="_top" xlink:title="esp32">
<polygon fill="#edf0f7" stroke="#7f7f7f" stroke-dasharray="5,2" points="8,-39 8,-109 385,-109 385,-39 8,-39"/>
<text text-anchor="middle" x="196.5" y="-97" font-family="Helvetica,sans-Serif" font-size="10.00">esp32</text>
</a>
</g>
</g>
<g id="clust2" class="cluster">
<title>clusterdir_7751913d9073a449937b5bcfd50bf3a6</title>
<g id="a_clust2"><a xlink:href="dir_7751913d9073a449937b5bcfd50bf3a6.html" target="_top">
<polygon fill="#edf0f7" stroke="#404040" stroke-width="2" points="16,-47 16,-82 377,-82 377,-47 16,-47"/>
</a>
</g>
</g>
<!-- dir_7751913d9073a449937b5bcfd50bf3a6 -->
<g id="node1" class="node">
<title>dir_7751913d9073a449937b5bcfd50bf3a6</title>
<text text-anchor="middle" x="348" y="-62" font-family="Helvetica,sans-Serif" font-size="10.00">main</text>
</g>
<!-- dir_13e4b33a5d8b02a78a3cf9f2d8ee83af -->
<g id="node2" class="node">
<title>dir_13e4b33a5d8b02a78a3cf9f2d8ee83af</title>
<g id="a_node2"><a xlink:href="dir_13e4b33a5d8b02a78a3cf9f2d8ee83af.html" target="_top" xlink:title="handler_tests">
<polygon fill="#a2b4d6" stroke="#404040" points="309.5,-74 226.5,-74 226.5,-55 309.5,-55 309.5,-74"/>
<text text-anchor="middle" x="268" y="-62" font-family="Helvetica,sans-Serif" font-size="10.00">handler_tests</text>
</a>
</g>
</g>
<!-- dir_97bbe734eff8d6674660850430e62f3c -->
<g id="node5" class="node">
<title>dir_97bbe734eff8d6674660850430e62f3c</title>
<g id="a_node5"><a xlink:href="dir_97bbe734eff8d6674660850430e62f3c.html" target="_top" xlink:title="handlers">
<polygon fill="#edf0f7" stroke="red" points="188.5,-19 129.5,-19 129.5,0 188.5,0 188.5,-19"/>
<text text-anchor="middle" x="159" y="-7" font-family="Helvetica,sans-Serif" font-size="10.00">handlers</text>
</a>
</g>
</g>
<!-- dir_13e4b33a5d8b02a78a3cf9f2d8ee83af&#45;&gt;dir_97bbe734eff8d6674660850430e62f3c -->
<g id="edge1" class="edge">
<title>dir_13e4b33a5d8b02a78a3cf9f2d8ee83af&#45;&gt;dir_97bbe734eff8d6674660850430e62f3c</title>
<g id="a_edge1"><a xlink:href="dir_000004_000005.html" target="_top">
<path fill="none" stroke="#63b8ff" d="M250.43,-54.86C240.85,-50.16 228.78,-44.24 218,-39 207.54,-33.91 196.01,-28.34 185.95,-23.48"/>
<polygon fill="#63b8ff" stroke="#63b8ff" points="187.35,-20.27 176.83,-19.08 184.31,-26.58 187.35,-20.27"/>
</a>
</g>
<g id="a_edge1&#45;headlabel"><a xlink:href="dir_000004_000005.html" target="_top" xlink:title="11">
<text text-anchor="middle" x="191.83" y="-16.77" font-family="Helvetica,sans-Serif" font-size="10.00" fill="#63b8ff">11</text>
</a>
</g>
</g>
<!-- dir_0082b8d4476ceb669565437ef6804975 -->
<g id="node3" class="node">
<title>dir_0082b8d4476ceb669565437ef6804975</title>
<g id="a_node3"><a xlink:href="dir_0082b8d4476ceb669565437ef6804975.html" target="_top" xlink:title="integration_tests">
<polygon fill="#a2b4d6" stroke="#404040" points="208.5,-74 109.5,-74 109.5,-55 208.5,-55 208.5,-74"/>
<text text-anchor="middle" x="159" y="-62" font-family="Helvetica,sans-Serif" font-size="10.00">integration_tests</text>
</a>
</g>
</g>
<!-- dir_0082b8d4476ceb669565437ef6804975&#45;&gt;dir_97bbe734eff8d6674660850430e62f3c -->
<g id="edge2" class="edge">
<title>dir_0082b8d4476ceb669565437ef6804975&#45;&gt;dir_97bbe734eff8d6674660850430e62f3c</title>
<g id="a_edge2"><a xlink:href="dir_000006_000005.html" target="_top">
<path fill="none" stroke="#63b8ff" d="M159,-54.75C159,-47.8 159,-37.85 159,-29.13"/>
<polygon fill="#63b8ff" stroke="#63b8ff" points="162.5,-29.09 159,-19.09 155.5,-29.09 162.5,-29.09"/>
</a>
</g>
<g id="a_edge2&#45;headlabel"><a xlink:href="dir_000006_000005.html" target="_top" xlink:title="7">
<text text-anchor="middle" x="165.34" y="-30.18" font-family="Helvetica,sans-Serif" font-size="10.00" fill="#63b8ff">7</text>
</a>
</g>
</g>
<!-- dir_0e49578282677b412a65b8f6a2f55dac -->
<g id="node4" class="node">
<title>dir_0e49578282677b412a65b8f6a2f55dac</title>
<g id="a_node4"><a xlink:href="dir_0e49578282677b412a65b8f6a2f55dac.html" target="_top" xlink:title="utils_tests">
<polygon fill="#a2b4d6" stroke="#404040" points="91.5,-74 24.5,-74 24.5,-55 91.5,-55 91.5,-74"/>
<text text-anchor="middle" x="58" y="-62" font-family="Helvetica,sans-Serif" font-size="10.00">utils_tests</text>
</a>
</g>
</g>
<!-- dir_0e49578282677b412a65b8f6a2f55dac&#45;&gt;dir_97bbe734eff8d6674660850430e62f3c -->
<g id="edge3" class="edge">
<title>dir_0e49578282677b412a65b8f6a2f55dac&#45;&gt;dir_97bbe734eff8d6674660850430e62f3c</title>
<g id="a_edge3"><a xlink:href="dir_000016_000005.html" target="_top">
<path fill="none" stroke="#63b8ff" d="M72.6,-54.88C80.87,-50.08 91.43,-44.07 101,-39 110.89,-33.76 121.88,-28.28 131.61,-23.53"/>
<polygon fill="#63b8ff" stroke="#63b8ff" points="133.35,-26.58 140.83,-19.08 130.3,-20.28 133.35,-26.58"/>
</a>
</g>
<g id="a_edge3&#45;headlabel"><a xlink:href="dir_000016_000005.html" target="_top" xlink:title="1">
<text text-anchor="middle" x="131.35" y="-28.2" font-family="Helvetica,sans-Serif" font-size="10.00" fill="#63b8ff">1</text>
</a>
</g>
</g>
</g>
</svg>
