<?xml version="1.0" encoding="UTF-8" standalone="no"?>
<!DOCTYPE svg PUBLIC "-//W3C//DTD SVG 1.1//EN"
 "http://www.w3.org/Graphics/SVG/1.1/DTD/svg11.dtd">
<!-- Generated by graphviz version 2.43.0 (0)
 -->
<!-- Title: handlers Pages: 1 -->
<svg width="861pt" height="114pt"
 viewBox="0.00 0.00 861.00 114.00" xmlns="http://www.w3.org/2000/svg" xmlns:xlink="http://www.w3.org/1999/xlink">
<g id="graph0" class="graph" transform="scale(1 1) rotate(0) translate(4 110)">
<title>handlers</title>
<g id="clust1" class="cluster">
<title>clusterdir_97bbe734eff8d6674660850430e62f3c</title>
<g id="a_clust1"><a xlink:href="dir_97bbe734eff8d6674660850430e62f3c.html" target="_top">
<polygon fill="#edf0f7" stroke="#404040" stroke-width="2" points="8,-8 8,-98 845,-98 845,-8 8,-8"/>
</a>
</g>
</g>
<!-- dir_97bbe734eff8d6674660850430e62f3c -->
<g id="node1" class="node">
<title>dir_97bbe734eff8d6674660850430e62f3c</title>
<text text-anchor="middle" x="807" y="-78" font-family="Helvetica,sans-Serif" font-size="10.00">handlers</text>
</g>
<!-- dir_397eef0de592f1461c8076a52d8e83a1 -->
<g id="node2" class="node">
<title>dir_397eef0de592f1461c8076a52d8e83a1</title>
<g id="a_node2"><a xlink:href="dir_397eef0de592f1461c8076a52d8e83a1.html" target="_top" xlink:title="as5047u">
<polygon fill="#a2b4d6" stroke="#404040" points="759,-90 701,-90 701,-71 759,-71 759,-90"/>
<text text-anchor="middle" x="730" y="-78" font-family="Helvetica,sans-Serif" font-size="10.00">as5047u</text>
</a>
</g>
</g>
<!-- dir_7848ed0c40c68eb13e368aca028ebfa2 -->
<g id="node4" class="node">
<title>dir_7848ed0c40c68eb13e368aca028ebfa2</title>
<g id="a_node4"><a xlink:href="dir_7848ed0c40c68eb13e368aca028ebfa2.html" target="_top" xlink:title="logger">
<polygon fill="#a2b4d6" stroke="#404040" points="428.5,-35 381.5,-35 381.5,-16 428.5,-16 428.5,-35"/>
<text text-anchor="middle" x="405" y="-23" font-family="Helvetica,sans-Serif" font-size="10.00">logger</text>
</a>
</g>
</g>
<!-- dir_397eef0de592f1461c8076a52d8e83a1&#45;&gt;dir_7848ed0c40c68eb13e368aca028ebfa2 -->
<g id="edge1" class="edge">
<title>dir_397eef0de592f1461c8076a52d8e83a1&#45;&gt;dir_7848ed0c40c68eb13e368aca028ebfa2</title>
<g id="a_edge1"><a xlink:href="dir_000000_000007.html" target="_top">
<path fill="none" stroke="#63b8ff" d="M700.99,-72.8C697.96,-72.17 694.92,-71.55 692,-71 600.73,-53.74 492.2,-38.28 438.51,-30.96"/>
<polygon fill="#63b8ff" stroke="#63b8ff" points="438.91,-27.48 428.53,-29.61 437.97,-34.42 438.91,-27.48"/>
</a>
</g>
<g id="a_edge1&#45;headlabel"><a xlink:href="dir_000000_000007.html" target="_top" xlink:title="1">
<text text-anchor="middle" x="442.85" y="-22.65" font-family="Helvetica,sans-Serif" font-size="10.00" fill="#63b8ff">1</text>
</a>
</g>
</g>
<!-- dir_a88fe424bb0735aa27657000de5e7f0c -->
<g id="node3" class="node">
<title>dir_a88fe424bb0735aa27657000de5e7f0c</title>
<g id="a_node3"><a xlink:href="dir_a88fe424bb0735aa27657000de5e7f0c.html" target="_top" xlink:title="bno08x">
<polygon fill="#a2b4d6" stroke="#404040" points="682.5,-90 629.5,-90 629.5,-71 682.5,-71 682.5,-90"/>
<text text-anchor="middle" x="656" y="-78" font-family="Helvetica,sans-Serif" font-size="10.00">bno08x</text>
</a>
</g>
</g>
<!-- dir_a88fe424bb0735aa27657000de5e7f0c&#45;&gt;dir_7848ed0c40c68eb13e368aca028ebfa2 -->
<g id="edge2" class="edge">
<title>dir_a88fe424bb0735aa27657000de5e7f0c&#45;&gt;dir_7848ed0c40c68eb13e368aca028ebfa2</title>
<g id="a_edge2"><a xlink:href="dir_000001_000007.html" target="_top">
<path fill="none" stroke="#63b8ff" d="M629.28,-73.1C626.16,-72.38 623.01,-71.67 620,-71 556.02,-56.83 481,-41.62 438.63,-33.16"/>
<polygon fill="#63b8ff" stroke="#63b8ff" points="439.08,-29.68 428.59,-31.16 437.71,-36.55 439.08,-29.68"/>
</a>
</g>
<g id="a_edge2&#45;headlabel"><a xlink:href="dir_000001_000007.html" target="_top" xlink:title="1">
<text text-anchor="middle" x="443.16" y="-25.1" font-family="Helvetica,sans-Serif" font-size="10.00" fill="#63b8ff">1</text>
</a>
</g>
</g>
<!-- dir_0a473e29603899b4f71d8768160d1d9b -->
<g id="node5" class="node">
<title>dir_0a473e29603899b4f71d8768160d1d9b</title>
<g id="a_node5"><a xlink:href="dir_0a473e29603899b4f71d8768160d1d9b.html" target="_top" xlink:title="max22200">
<polygon fill="#a2b4d6" stroke="#404040" points="611,-90 543,-90 543,-71 611,-71 611,-90"/>
<text text-anchor="middle" x="577" y="-78" font-family="Helvetica,sans-Serif" font-size="10.00">max22200</text>
</a>
</g>
</g>
<!-- dir_0a473e29603899b4f71d8768160d1d9b&#45;&gt;dir_7848ed0c40c68eb13e368aca028ebfa2 -->
<g id="edge3" class="edge">
<title>dir_0a473e29603899b4f71d8768160d1d9b&#45;&gt;dir_7848ed0c40c68eb13e368aca028ebfa2</title>
<g id="a_edge3"><a xlink:href="dir_000009_000007.html" target="_top">
<path fill="none" stroke="#63b8ff" d="M549.37,-70.98C519.2,-61.69 470.91,-46.81 438.58,-36.85"/>
<polygon fill="#63b8ff" stroke="#63b8ff" points="439.28,-33.4 428.69,-33.8 437.22,-40.09 439.28,-33.4"/>
</a>
</g>
<g id="a_edge3&#45;headlabel"><a xlink:href="dir_000009_000007.html" target="_top" xlink:title="1">
<text text-anchor="middle" x="443.55" y="-29.25" font-family="Helvetica,sans-Serif" font-size="10.00" fill="#63b8ff">1</text>
</a>
</g>
</g>
<!-- dir_578b1697af9bfc63cf33b892db3f6e33 -->
<g id="node6" class="node">
<title>dir_578b1697af9bfc63cf33b892db3f6e33</title>
<g id="a_node6"><a xlink:href="dir_578b1697af9bfc63cf33b892db3f6e33.html" target="_top" xlink:title="ntc">
<polygon fill="#a2b4d6" stroke="#404040" points="525,-90 493,-90 493,-71 525,-71 525,-90"/>
<text text-anchor="middle" x="509" y="-78" font-family="Helvetica,sans-Serif" font-size="10.00">ntc</text>
</a>
</g>
</g>
<!-- dir_578b1697af9bfc63cf33b892db3f6e33&#45;&gt;dir_7848ed0c40c68eb13e368aca028ebfa2 -->
<g id="edge4" class="edge">
<title>dir_578b1697af9bfc63cf33b892db3f6e33&#45;&gt;dir_7848ed0c40c68eb13e368aca028ebfa2</title>
<g id="a_edge4"><a xlink:href="dir_000010_000007.html" target="_top">
<path fill="none" stroke="#63b8ff" d="M492.75,-71.22C476.16,-62.76 450.15,-49.51 430.75,-39.62"/>
<polygon fill="#63b8ff" stroke="#63b8ff" points="432.32,-36.5 421.82,-35.07 429.15,-42.73 432.32,-36.5"/>
</a>
</g>
<g id="a_edge4&#45;headlabel"><a xlink:href="dir_000010_000007.html" target="_top" xlink:title="1">
<text text-anchor="middle" x="436.82" y="-33.1" font-family="Helvetica,sans-Serif" font-size="10.00" fill="#63b8ff">1</text>
</a>
</g>
</g>
<!-- dir_c17f5d286b0e9d3d728751e1cce38b21 -->
<g id="node7" class="node">
<title>dir_c17f5d286b0e9d3d728751e1cce38b21</title>
<g id="a_node7"><a xlink:href="dir_c17f5d286b0e9d3d728751e1cce38b21.html" target="_top" xlink:title="pca9685">
<polygon fill="#a2b4d6" stroke="#404040" points="475,-90 417,-90 417,-71 475,-71 475,-90"/>
<text text-anchor="middle" x="446" y="-78" font-family="Helvetica,sans-Serif" font-size="10.00">pca9685</text>
</a>
</g>
</g>
<!-- dir_c17f5d286b0e9d3d728751e1cce38b21&#45;&gt;dir_7848ed0c40c68eb13e368aca028ebfa2 -->
<g id="edge5" class="edge">
<title>dir_c17f5d286b0e9d3d728751e1cce38b21&#45;&gt;dir_7848ed0c40c68eb13e368aca028ebfa2</title>
<g id="a_edge5"><a xlink:href="dir_000011_000007.html" target="_top">
<path fill="none" stroke="#63b8ff" d="M439.23,-70.75C433.44,-63.26 424.94,-52.28 417.86,-43.13"/>
<polygon fill="#63b8ff" stroke="#63b8ff" points="420.53,-40.86 411.64,-35.09 414.99,-45.14 420.53,-40.86"/>
</a>
</g>
<g id="a_edge5&#45;headlabel"><a xlink:href="dir_000011_000007.html" target="_top" xlink:title="1">
<text text-anchor="middle" x="424.98" y="-39.46" font-family="Helvetica,sans-Serif" font-size="10.00" fill="#63b8ff">1</text>
</a>
</g>
</g>
<!-- dir_8fcaa0ad75fc40edc1b6b745802439f3 -->
<g id="node8" class="node">
<title>dir_8fcaa0ad75fc40edc1b6b745802439f3</title>
<g id="a_node8"><a xlink:href="dir_8fcaa0ad75fc40edc1b6b745802439f3.html" target="_top" xlink:title="pcal95555">
<polygon fill="#a2b4d6" stroke="#404040" points="398.5,-90 331.5,-90 331.5,-71 398.5,-71 398.5,-90"/>
<text text-anchor="middle" x="365" y="-78" font-family="Helvetica,sans-Serif" font-size="10.00">pcal95555</text>
</a>
</g>
</g>
<!-- dir_8fcaa0ad75fc40edc1b6b745802439f3&#45;&gt;dir_7848ed0c40c68eb13e368aca028ebfa2 -->
<g id="edge6" class="edge">
<title>dir_8fcaa0ad75fc40edc1b6b745802439f3&#45;&gt;dir_7848ed0c40c68eb13e368aca028ebfa2</title>
<g id="a_edge6"><a xlink:href="dir_000012_000007.html" target="_top">
<path fill="none" stroke="#63b8ff" d="M371.61,-70.75C377.26,-63.26 385.54,-52.28 392.45,-43.13"/>
<polygon fill="#63b8ff" stroke="#63b8ff" points="395.29,-45.18 398.52,-35.09 389.7,-40.96 395.29,-45.18"/>
</a>
</g>
<g id="a_edge6&#45;headlabel"><a xlink:href="dir_000012_000007.html" target="_top" xlink:title="1">
<text text-anchor="middle" x="395.39" y="-47.26" font-family="Helvetica,sans-Serif" font-size="10.00" fill="#63b8ff">1</text>
</a>
</g>
</g>
<!-- dir_e60338d1c39b73a12b907c00fb4619bf -->
<g id="node9" class="node">
<title>dir_e60338d1c39b73a12b907c00fb4619bf</title>
<g id="a_node9"><a xlink:href="dir_e60338d1c39b73a12b907c00fb4619bf.html" target="_top" xlink:title="tle92466ed">
<polygon fill="#a2b4d6" stroke="#404040" points="313.5,-90 242.5,-90 242.5,-71 313.5,-71 313.5,-90"/>
<text text-anchor="middle" x="278" y="-78" font-family="Helvetica,sans-Serif" font-size="10.00">tle92466ed</text>
</a>
</g>
</g>
<!-- dir_e60338d1c39b73a12b907c00fb4619bf&#45;&gt;dir_7848ed0c40c68eb13e368aca028ebfa2 -->
<g id="edge7" class="edge">
<title>dir_e60338d1c39b73a12b907c00fb4619bf&#45;&gt;dir_7848ed0c40c68eb13e368aca028ebfa2</title>
<g id="a_edge7"><a xlink:href="dir_000013_000007.html" target="_top">
<path fill="none" stroke="#63b8ff" d="M298.4,-70.98C319.02,-62.38 351.11,-48.99 374.69,-39.15"/>
<polygon fill="#63b8ff" stroke="#63b8ff" points="376.34,-42.25 384.22,-35.17 373.65,-35.79 376.34,-42.25"/>
</a>
</g>
<g id="a_edge7&#45;headlabel"><a xlink:href="dir_000013_000007.html" target="_top" xlink:title="1">
<text text-anchor="middle" x="374.12" y="-43.76" font-family="Helvetica,sans-Serif" font-size="10.00" fill="#63b8ff">1</text>
</a>
</g>
</g>
<!-- dir_771da01106de958134343da02e29ab81 -->
<g id="node10" class="node">
<title>dir_771da01106de958134343da02e29ab81</title>
<g id="a_node10"><a xlink:href="dir_771da01106de958134343da02e29ab81.html" target="_top" xlink:title="tmc5160">
<polygon fill="#a2b4d6" stroke="#404040" points="224.5,-90 165.5,-90 165.5,-71 224.5,-71 224.5,-90"/>
<text text-anchor="middle" x="195" y="-78" font-family="Helvetica,sans-Serif" font-size="10.00">tmc5160</text>
</a>
</g>
</g>
<!-- dir_771da01106de958134343da02e29ab81&#45;&gt;dir_7848ed0c40c68eb13e368aca028ebfa2 -->
<g id="edge8" class="edge">
<title>dir_771da01106de958134343da02e29ab81&#45;&gt;dir_7848ed0c40c68eb13e368aca028ebfa2</title>
<g id="a_edge8"><a xlink:href="dir_000014_000007.html" target="_top">
<path fill="none" stroke="#63b8ff" d="M224.64,-72.02C263.33,-62.25 330.88,-45.21 371.42,-34.98"/>
<polygon fill="#63b8ff" stroke="#63b8ff" points="372.51,-38.31 381.35,-32.47 370.8,-31.52 372.51,-38.31"/>
</a>
</g>
<g id="a_edge8&#45;headlabel"><a xlink:href="dir_000014_000007.html" target="_top" xlink:title="1">
<text text-anchor="middle" x="369.72" y="-39.44" font-family="Helvetica,sans-Serif" font-size="10.00" fill="#63b8ff">1</text>
</a>
</g>
</g>
<!-- dir_57a9b4ae0972c7aba1e3c2e0355f42ff -->
<g id="node11" class="node">
<title>dir_57a9b4ae0972c7aba1e3c2e0355f42ff</title>
<g id="a_node11"><a xlink:href="dir_57a9b4ae0972c7aba1e3c2e0355f42ff.html" target="_top" xlink:title="tmc9660">
<polygon fill="#a2b4d6" stroke="#404040" points="147.5,-90 88.5,-90 88.5,-71 147.5,-71 147.5,-90"/>
<text text-anchor="middle" x="118" y="-78" font-family="Helvetica,sans-Serif" font-size="10.00">tmc9660</text>
</a>
</g>
</g>
<!-- dir_57a9b4ae0972c7aba1e3c2e0355f42ff&#45;&gt;dir_7848ed0c40c68eb13e368aca028ebfa2 -->
<g id="edge9" class="edge">
<title>dir_57a9b4ae0972c7aba1e3c2e0355f42ff&#45;&gt;dir_7848ed0c40c68eb13e368aca028ebfa2</title>
<g id="a_edge9"><a xlink:href="dir_000015_000007.html" target="_top">
<path fill="none" stroke="#63b8ff" d="M147.79,-72.89C150.89,-72.23 154.01,-71.59 157,-71 233.39,-55.83 323.47,-40.24 371.26,-32.15"/>
<polygon fill="#63b8ff" stroke="#63b8ff" points="372.07,-35.56 381.35,-30.44 370.91,-28.66 372.07,-35.56"/>
</a>
</g>
<g id="a_edge9&#45;headlabel"><a xlink:href="dir_000015_000007.html" target="_top" xlink:title="1">
<text text-anchor="middle" x="369" y="-36.46" font-family="Helvetica,sans-Serif" font-size="10.00" fill="#63b8ff">1</text>
</a>
</g>
</g>
<!-- dir_d7be47e4bfeb2e6d7b7afbb9011a1517 -->
<g id="node12" class="node">
<title>dir_d7be47e4bfeb2e6d7b7afbb9011a1517</title>
<g id="a_node12"><a xlink:href="dir_d7be47e4bfeb2e6d7b7afbb9011a1517.html" target="_top" xlink:title="ws2812">
<polygon fill="#a2b4d6" stroke="#404040" points="70,-90 16,-90 16,-71 70,-71 70,-90"/>
<text text-anchor="middle" x="43" y="-78" font-family="Helvetica,sans-Serif" font-size="10.00">ws2812</text>
</a>
</g>
</g>
<!-- dir_d7be47e4bfeb2e6d7b7afbb9011a1517&#45;&gt;dir_7848ed0c40c68eb13e368aca028ebfa2 -->
<g id="edge10" class="edge">
<title>dir_d7be47e4bfeb2e6d7b7afbb9011a1517&#45;&gt;dir_7848ed0c40c68eb13e368aca028ebfa2</title>
<g id="a_edge10"><a xlink:href="dir_000017_000007.html" target="_top">
<path fill="none" stroke="#63b8ff" d="M70.02,-73C73.37,-72.28 76.76,-71.59 80,-71 185.48,-51.7 311.6,-36.72 370.95,-30.14"/>
<polygon fill="#63b8ff" stroke="#63b8ff" points="371.67,-33.58 381.23,-29.01 370.91,-26.63 371.67,-33.58"/>
</a>
</g>
<g id="a_edge10&#45;headlabel"><a xlink:href="dir_000017_000007.html" target="_top" xlink:title="1">
<text text-anchor="middle" x="368.41" y="-34.3" font-family="Helvetica,sans-Serif" font-size="10.00" fill="#63b8ff">1</text>
</a>
</g>
</g>
</g>
</svg>
