<?xml version="1.0" encoding="UTF-8" standalone="no"?>
<!DOCTYPE svg PUBLIC "-//W3C//DTD SVG 1.1//EN"
 "http://www.w3.org/Graphics/SVG/1.1/DTD/svg11.dtd">
<!-- Generated by graphviz version 2.43.0 (0)
 -->
<!-- Title: esp32_bus_setup.hpp Pages: 1 -->
<svg width="2073pt" height="93pt"
 viewBox="0.00 0.00 2073.00 93.00" xmlns="http://www.w3.org/2000/svg" xmlns:xlink="http://www.w3.org/1999/xlink">
<g id="graph0" class="graph" transform="scale(1 1) rotate(0) translate(4 89)">
<title>esp32_bus_setup.hpp</title>
<!-- Node1 -->
<g id="Node000001" class="node">
<title>Node1</title>
<g id="a_Node000001"><a xlink:title="Shared ESP32 bus initialization for hf&#45;core handler tests.">
<polygon fill="#999999" stroke="#666666" points="1075,-85 953,-85 953,-66 1075,-66 1075,-85"/>
<text text-anchor="middle" x="1014" y="-73" font-family="Helvetica,sans-Serif" font-size="10.00">esp32_bus_setup.hpp</text>
</a>
</g>
</g>
<!-- Node2 -->
<g id="Node000002" class="node">
<title>Node2</title>
<g id="a_Node000002"><a xlink:href="as5047u__handler__comprehensive__test_8cpp.html" target="_top" xlink:title="Comprehensive test suite for As5047uHandler.">
<polygon fill="white" stroke="#666666" points="180,-30 0,-30 0,0 180,0 180,-30"/>
<text text-anchor="start" x="8" y="-18" font-family="Helvetica,sans-Serif" font-size="10.00">as5047u_handler_comprehensive</text>
<text text-anchor="middle" x="90" y="-7" font-family="Helvetica,sans-Serif" font-size="10.00">_test.cpp</text>
</a>
</g>
</g>
<!-- Node1&#45;&gt;Node2 -->
<g id="edge1_Node000001_Node000002" class="edge">
<title>Node1&#45;&gt;Node2</title>
<g id="a_edge1_Node000001_Node000002"><a xlink:title=" ">
<path fill="none" stroke="#63b8ff" d="M942.4,-72.72C799.08,-68.71 466.85,-57.09 189,-30 186.06,-29.71 183.08,-29.4 180.07,-29.07"/>
<polygon fill="#63b8ff" stroke="#63b8ff" points="942.71,-76.23 952.8,-73.01 942.9,-69.24 942.71,-76.23"/>
</a>
</g>
</g>
<!-- Node3 -->
<g id="Node000003" class="node">
<title>Node3</title>
<g id="a_Node000003"><a xlink:href="bno08x__handler__comprehensive__test_8cpp.html" target="_top" xlink:title="Comprehensive test suite for Bno08xHandler.">
<polygon fill="white" stroke="#666666" points="373.5,-30 198.5,-30 198.5,0 373.5,0 373.5,-30"/>
<text text-anchor="start" x="206.5" y="-18" font-family="Helvetica,sans-Serif" font-size="10.00">bno08x_handler_comprehensive</text>
<text text-anchor="middle" x="286" y="-7" font-family="Helvetica,sans-Serif" font-size="10.00">_test.cpp</text>
</a>
</g>
</g>
<!-- Node1&#45;&gt;Node3 -->
<g id="edge2_Node000001_Node000003" class="edge">
<title>Node1&#45;&gt;Node3</title>
<g id="a_edge2_Node000001_Node000003"><a xlink:title=" ">
<path fill="none" stroke="#63b8ff" d="M942.7,-71.17C825.63,-65.32 585.45,-51.72 383,-30 379.95,-29.67 376.86,-29.32 373.73,-28.95"/>
<polygon fill="#63b8ff" stroke="#63b8ff" points="942.79,-74.68 952.96,-71.68 943.14,-67.69 942.79,-74.68"/>
</a>
</g>
</g>
<!-- Node4 -->
<g id="Node000004" class="node">
<title>Node4</title>
<g id="a_Node000004"><a xlink:href="full__system__integration__test_8cpp.html" target="_top" xlink:title="Full system integration test for hf&#45;core.">
<polygon fill="white" stroke="#666666" points="524,-30 392,-30 392,0 524,0 524,-30"/>
<text text-anchor="start" x="400" y="-18" font-family="Helvetica,sans-Serif" font-size="10.00">full_system_integration</text>
<text text-anchor="middle" x="458" y="-7" font-family="Helvetica,sans-Serif" font-size="10.00">_test.cpp</text>
</a>
</g>
</g>
<!-- Node1&#45;&gt;Node4 -->
<g id="edge3_Node000001_Node000004" class="edge">
<title>Node1&#45;&gt;Node4</title>
<g id="a_edge3_Node000001_Node000004"><a xlink:title=" ">
<path fill="none" stroke="#63b8ff" d="M942.69,-69.97C848.57,-63.51 677.86,-50.18 533,-30 530.11,-29.6 527.17,-29.16 524.2,-28.7"/>
<polygon fill="#63b8ff" stroke="#63b8ff" points="942.45,-73.46 952.67,-70.65 942.93,-66.48 942.45,-73.46"/>
</a>
</g>
</g>
<!-- Node5 -->
<g id="Node000005" class="node">
<title>Node5</title>
<g id="a_Node000005"><a xlink:href="max22200__handler__comprehensive__test_8cpp.html" target="_top" xlink:title="Comprehensive test suite for Max22200Handler.">
<polygon fill="white" stroke="#666666" points="733.5,-30 542.5,-30 542.5,0 733.5,0 733.5,-30"/>
<text text-anchor="start" x="550.5" y="-18" font-family="Helvetica,sans-Serif" font-size="10.00">max22200_handler_comprehensive</text>
<text text-anchor="middle" x="638" y="-7" font-family="Helvetica,sans-Serif" font-size="10.00">_test.cpp</text>
</a>
</g>
</g>
<!-- Node1&#45;&gt;Node5 -->
<g id="edge4_Node000001_Node000005" class="edge">
<title>Node1&#45;&gt;Node5</title>
<g id="a_edge4_Node000001_Node000005"><a xlink:title=" ">
<path fill="none" stroke="#63b8ff" d="M949.43,-64.45C888.4,-54.96 796.27,-40.62 728.03,-30.01"/>
<polygon fill="#63b8ff" stroke="#63b8ff" points="948.91,-67.91 959.33,-65.99 949.98,-61 948.91,-67.91"/>
</a>
</g>
</g>
<!-- Node6 -->
<g id="Node000006" class="node">
<title>Node6</title>
<g id="a_Node000006"><a xlink:href="ntc__handler__comprehensive__test_8cpp.html" target="_top" xlink:title="Comprehensive test suite for NtcTemperatureHandler.">
<polygon fill="white" stroke="#666666" points="906,-30 752,-30 752,0 906,0 906,-30"/>
<text text-anchor="start" x="760" y="-18" font-family="Helvetica,sans-Serif" font-size="10.00">ntc_handler_comprehensive</text>
<text text-anchor="middle" x="829" y="-7" font-family="Helvetica,sans-Serif" font-size="10.00">_test.cpp</text>
</a>
</g>
</g>
<!-- Node1&#45;&gt;Node6 -->
<g id="edge5_Node000001_Node000006" class="edge">
<title>Node1&#45;&gt;Node6</title>
<g id="a_edge5_Node000001_Node000006"><a xlink:title=" ">
<path fill="none" stroke="#63b8ff" d="M977.49,-62.95C947.63,-53.51 905.31,-40.13 873.48,-30.06"/>
<polygon fill="#63b8ff" stroke="#63b8ff" points="976.51,-66.32 987.1,-65.99 978.62,-59.64 976.51,-66.32"/>
</a>
</g>
</g>
<!-- Node7 -->
<g id="Node000007" class="node">
<title>Node7</title>
<g id="a_Node000007"><a xlink:href="pca9685__handler__comprehensive__test_8cpp.html" target="_top" xlink:title="Comprehensive test suite for Pca9685Handler.">
<polygon fill="white" stroke="#666666" points="1104,-30 924,-30 924,0 1104,0 1104,-30"/>
<text text-anchor="start" x="932" y="-18" font-family="Helvetica,sans-Serif" font-size="10.00">pca9685_handler_comprehensive</text>
<text text-anchor="middle" x="1014" y="-7" font-family="Helvetica,sans-Serif" font-size="10.00">_test.cpp</text>
</a>
</g>
</g>
<!-- Node1&#45;&gt;Node7 -->
<g id="edge6_Node000001_Node000007" class="edge">
<title>Node1&#45;&gt;Node7</title>
<g id="a_edge6_Node000001_Node000007"><a xlink:title=" ">
<path fill="none" stroke="#63b8ff" d="M1014,-55.65C1014,-47.36 1014,-37.78 1014,-30.11"/>
<polygon fill="#63b8ff" stroke="#63b8ff" points="1010.5,-55.87 1014,-65.87 1017.5,-55.87 1010.5,-55.87"/>
</a>
</g>
</g>
<!-- Node8 -->
<g id="Node000008" class="node">
<title>Node8</title>
<g id="a_Node000008"><a xlink:href="pcal95555__handler__comprehensive__test_8cpp.html" target="_top" xlink:title="Comprehensive test suite for Pcal95555Handler.">
<polygon fill="white" stroke="#666666" points="1311.5,-30 1122.5,-30 1122.5,0 1311.5,0 1311.5,-30"/>
<text text-anchor="start" x="1130.5" y="-18" font-family="Helvetica,sans-Serif" font-size="10.00">pcal95555_handler_comprehensive</text>
<text text-anchor="middle" x="1217" y="-7" font-family="Helvetica,sans-Serif" font-size="10.00">_test.cpp</text>
</a>
</g>
</g>
<!-- Node1&#45;&gt;Node8 -->
<g id="edge7_Node000001_Node000008" class="edge">
<title>Node1&#45;&gt;Node8</title>
<g id="a_edge7_Node000001_Node000008"><a xlink:title=" ">
<path fill="none" stroke="#63b8ff" d="M1053.21,-63.2C1086.02,-53.75 1132.97,-40.22 1168.2,-30.06"/>
<polygon fill="#63b8ff" stroke="#63b8ff" points="1052.16,-59.86 1043.52,-65.99 1054.1,-66.59 1052.16,-59.86"/>
</a>
</g>
</g>
<!-- Node9 -->
<g id="Node000009" class="node">
<title>Node9</title>
<g id="a_Node000009"><a xlink:href="tle92466ed__handler__comprehensive__test_8cpp.html" target="_top" xlink:title="Comprehensive test suite for Tle92466edHandler.">
<polygon fill="white" stroke="#666666" points="1470.5,-30 1329.5,-30 1329.5,0 1470.5,0 1470.5,-30"/>
<text text-anchor="start" x="1337.5" y="-18" font-family="Helvetica,sans-Serif" font-size="10.00">tle92466ed_handler</text>
<text text-anchor="middle" x="1400" y="-7" font-family="Helvetica,sans-Serif" font-size="10.00">_comprehensive_test.cpp</text>
</a>
</g>
</g>
<!-- Node1&#45;&gt;Node9 -->
<g id="edge8_Node000001_Node000009" class="edge">
<title>Node1&#45;&gt;Node9</title>
<g id="a_edge8_Node000001_Node000009"><a xlink:title=" ">
<path fill="none" stroke="#63b8ff" d="M1085.36,-64.8C1147.64,-56.19 1240.41,-42.98 1321,-30 1323.75,-29.56 1326.55,-29.1 1329.38,-28.63"/>
<polygon fill="#63b8ff" stroke="#63b8ff" points="1084.67,-61.37 1075.25,-66.2 1085.63,-68.3 1084.67,-61.37"/>
</a>
</g>
</g>
<!-- Node10 -->
<g id="Node000010" class="node">
<title>Node10</title>
<g id="a_Node000010"><a xlink:href="tmc5160__handler__comprehensive__test_8cpp.html" target="_top" xlink:title="Comprehensive test suite for Tmc5160Handler.">
<polygon fill="white" stroke="#666666" points="1671,-30 1489,-30 1489,0 1671,0 1671,-30"/>
<text text-anchor="start" x="1497" y="-18" font-family="Helvetica,sans-Serif" font-size="10.00">tmc5160_handler_comprehensive</text>
<text text-anchor="middle" x="1580" y="-7" font-family="Helvetica,sans-Serif" font-size="10.00">_test.cpp</text>
</a>
</g>
</g>
<!-- Node1&#45;&gt;Node10 -->
<g id="edge9_Node000001_Node000010" class="edge">
<title>Node1&#45;&gt;Node10</title>
<g id="a_edge9_Node000001_Node000010"><a xlink:title=" ">
<path fill="none" stroke="#63b8ff" d="M1085.13,-68.68C1176.62,-60.98 1340.35,-46.43 1480,-30 1482.87,-29.66 1485.79,-29.31 1488.74,-28.95"/>
<polygon fill="#63b8ff" stroke="#63b8ff" points="1084.83,-65.2 1075.16,-69.52 1085.41,-72.17 1084.83,-65.2"/>
</a>
</g>
</g>
<!-- Node11 -->
<g id="Node000011" class="node">
<title>Node11</title>
<g id="a_Node000011"><a xlink:href="tmc9660__handler__comprehensive__test_8cpp.html" target="_top" xlink:title="Comprehensive test suite for Tmc9660Handler.">
<polygon fill="white" stroke="#666666" points="1871,-30 1689,-30 1689,0 1871,0 1871,-30"/>
<text text-anchor="start" x="1697" y="-18" font-family="Helvetica,sans-Serif" font-size="10.00">tmc9660_handler_comprehensive</text>
<text text-anchor="middle" x="1780" y="-7" font-family="Helvetica,sans-Serif" font-size="10.00">_test.cpp</text>
</a>
</g>
</g>
<!-- Node1&#45;&gt;Node11 -->
<g id="edge10_Node000001_Node000011" class="edge">
<title>Node1&#45;&gt;Node11</title>
<g id="a_edge10_Node000001_Node000011"><a xlink:title=" ">
<path fill="none" stroke="#63b8ff" d="M1085.52,-71.42C1207.64,-65.79 1464.11,-52.3 1680,-30 1682.88,-29.7 1685.8,-29.39 1688.75,-29.05"/>
<polygon fill="#63b8ff" stroke="#63b8ff" points="1085.02,-67.94 1075.19,-71.89 1085.34,-74.93 1085.02,-67.94"/>
</a>
</g>
</g>
<!-- Node12 -->
<g id="Node000012" class="node">
<title>Node12</title>
<g id="a_Node000012"><a xlink:href="ws2812__handler__comprehensive__test_8cpp.html" target="_top" xlink:title="Comprehensive test suite for Ws2812Handler.">
<polygon fill="white" stroke="#666666" points="2065,-30 1889,-30 1889,0 2065,0 2065,-30"/>
<text text-anchor="start" x="1897" y="-18" font-family="Helvetica,sans-Serif" font-size="10.00">ws2812_handler_comprehensive</text>
<text text-anchor="middle" x="1977" y="-7" font-family="Helvetica,sans-Serif" font-size="10.00">_test.cpp</text>
</a>
</g>
</g>
<!-- Node1&#45;&gt;Node12 -->
<g id="edge11_Node000001_Node000012" class="edge">
<title>Node1&#45;&gt;Node12</title>
<g id="a_edge11_Node000001_Node000012"><a xlink:title=" ">
<path fill="none" stroke="#63b8ff" d="M1085.36,-73.05C1233.67,-69.56 1585.89,-58.72 1880,-30 1882.88,-29.72 1885.8,-29.41 1888.75,-29.09"/>
<polygon fill="#63b8ff" stroke="#63b8ff" points="1084.96,-69.56 1075.04,-73.29 1085.12,-76.56 1084.96,-69.56"/>
</a>
</g>
</g>
</g>
</svg>
