<?xml version="1.0" encoding="UTF-8" standalone="no"?>
<!DOCTYPE svg PUBLIC "-//W3C//DTD SVG 1.1//EN"
 "http://www.w3.org/Graphics/SVG/1.1/DTD/svg11.dtd">
<!-- Generated by graphviz version 2.43.0 (0)
 -->
<!-- Title: get_shared_i2c_bus Pages: 1 -->
<svg width="729pt" height="282pt"
 viewBox="0.00 0.00 729.00 282.23" xmlns="http://www.w3.org/2000/svg" xmlns:xlink="http://www.w3.org/1999/xlink">
<g id="graph0" class="graph" transform="scale(1 1) rotate(0) translate(4 278.23)">
<title>get_shared_i2c_bus</title>
<!-- Node1 -->
<g id="Node000001" class="node">
<title>Node1</title>
<g id="a_Node000001"><a xlink:title="Create and initialize the shared I2C bus.">
<polygon fill="#999999" stroke="#666666" points="721,-85.23 608,-85.23 608,-66.23 721,-66.23 721,-85.23"/>
<text text-anchor="middle" x="664.5" y="-73.23" font-family="Helvetica,sans-Serif" font-size="10.00">get_shared_i2c_bus</text>
</a>
</g>
</g>
<!-- Node2 -->
<g id="Node000002" class="node">
<title>Node2</title>
<g id="a_Node000002"><a xlink:href="esp32__bus__setup_8hpp.html#a7024544c8de144283c563c05320b05bf" target="_top" xlink:title="Get an I2C device handle for a specific address on the shared bus.">
<polygon fill="white" stroke="#666666" points="564,-144.23 475,-144.23 475,-125.23 564,-125.23 564,-144.23"/>
<text text-anchor="middle" x="519.5" y="-132.23" font-family="Helvetica,sans-Serif" font-size="10.00">get_i2c_device</text>
</a>
</g>
</g>
<!-- Node1&#45;&gt;Node2 -->
<g id="edge1_Node000001_Node000002" class="edge">
<title>Node1&#45;&gt;Node2</title>
<g id="a_edge1_Node000001_Node000002"><a xlink:title=" ">
<path fill="none" stroke="#63b8ff" d="M630.93,-89.17C604.35,-100.13 567.46,-115.35 543.78,-125.12"/>
<polygon fill="#63b8ff" stroke="#63b8ff" points="632.3,-92.39 640.21,-85.34 629.63,-85.92 632.3,-92.39"/>
</a>
</g>
</g>
<!-- Node16 -->
<g id="Node000016" class="node">
<title>Node16</title>
<g id="a_Node000016"><a xlink:href="full__system__integration__test_8cpp.html#a6a25aa0fccf0625f8e3cae773904ab38" target="_top" xlink:title=" ">
<polygon fill="white" stroke="#666666" points="572,-67.23 467,-67.23 467,-48.23 572,-48.23 572,-67.23"/>
<text text-anchor="middle" x="519.5" y="-55.23" font-family="Helvetica,sans-Serif" font-size="10.00">test_i2c_bus_scan</text>
</a>
</g>
</g>
<!-- Node1&#45;&gt;Node16 -->
<g id="edge17_Node000001_Node000016" class="edge">
<title>Node1&#45;&gt;Node16</title>
<g id="a_edge17_Node000001_Node000016"><a xlink:title=" ">
<path fill="none" stroke="#63b8ff" d="M597.77,-67.46C589.15,-66.37 580.41,-65.27 572.07,-64.22"/>
<polygon fill="#63b8ff" stroke="#63b8ff" points="597.44,-70.94 607.8,-68.72 598.32,-64 597.44,-70.94"/>
</a>
</g>
</g>
<!-- Node3 -->
<g id="Node000003" class="node">
<title>Node3</title>
<g id="a_Node000003"><a xlink:href="bno08x__handler__comprehensive__test_8cpp.html#ad7178bfd7bed244bfbb8045f77e478bb" target="_top" xlink:title=" ">
<polygon fill="white" stroke="#666666" points="400.5,-274.23 311.5,-274.23 311.5,-255.23 400.5,-255.23 400.5,-274.23"/>
<text text-anchor="middle" x="356" y="-262.23" font-family="Helvetica,sans-Serif" font-size="10.00">create_handler</text>
</a>
</g>
</g>
<!-- Node2&#45;&gt;Node3 -->
<g id="edge2_Node000002_Node000003" class="edge">
<title>Node2&#45;&gt;Node3</title>
<g id="a_edge2_Node000002_Node000003"><a xlink:title=" ">
<path fill="none" stroke="#63b8ff" d="M509.23,-153.19C495.62,-178.35 467.79,-222.99 431,-246.73 422,-252.54 411.29,-256.47 400.85,-259.14"/>
<polygon fill="#63b8ff" stroke="#63b8ff" points="512.35,-154.78 513.89,-144.29 506.15,-151.53 512.35,-154.78"/>
</a>
</g>
</g>
<!-- Node5 -->
<g id="Node000005" class="node">
<title>Node5</title>
<g id="a_Node000005"><a xlink:href="pca9685__handler__comprehensive__test_8cpp.html#ad7178bfd7bed244bfbb8045f77e478bb" target="_top" xlink:title=" ">
<polygon fill="white" stroke="#666666" points="400.5,-200.23 311.5,-200.23 311.5,-181.23 400.5,-181.23 400.5,-200.23"/>
<text text-anchor="middle" x="356" y="-188.23" font-family="Helvetica,sans-Serif" font-size="10.00">create_handler</text>
</a>
</g>
</g>
<!-- Node2&#45;&gt;Node5 -->
<g id="edge4_Node000002_Node000005" class="edge">
<title>Node2&#45;&gt;Node5</title>
<g id="a_edge4_Node000002_Node000005"><a xlink:title=" ">
<path fill="none" stroke="#63b8ff" d="M489.78,-148.69C472.94,-156.49 451.08,-165.98 431,-172.73 421.35,-175.97 410.81,-178.89 400.79,-181.39"/>
<polygon fill="#63b8ff" stroke="#63b8ff" points="491.51,-151.74 499.07,-144.32 488.53,-145.41 491.51,-151.74"/>
</a>
</g>
</g>
<!-- Node7 -->
<g id="Node000007" class="node">
<title>Node7</title>
<g id="a_Node000007"><a xlink:href="pcal95555__handler__comprehensive__test_8cpp.html#ad7178bfd7bed244bfbb8045f77e478bb" target="_top" xlink:title=" ">
<polygon fill="white" stroke="#666666" points="400.5,-163.23 311.5,-163.23 311.5,-144.23 400.5,-144.23 400.5,-163.23"/>
<text text-anchor="middle" x="356" y="-151.23" font-family="Helvetica,sans-Serif" font-size="10.00">create_handler</text>
</a>
</g>
</g>
<!-- Node2&#45;&gt;Node7 -->
<g id="edge6_Node000002_Node000007" class="edge">
<title>Node2&#45;&gt;Node7</title>
<g id="a_edge6_Node000002_Node000007"><a xlink:title=" ">
<path fill="none" stroke="#63b8ff" d="M464.83,-141.05C444.02,-143.49 420.49,-146.26 400.74,-148.58"/>
<polygon fill="#63b8ff" stroke="#63b8ff" points="465.27,-144.52 474.8,-139.87 464.46,-137.56 465.27,-144.52"/>
</a>
</g>
</g>
<!-- Node9 -->
<g id="Node000009" class="node">
<title>Node9</title>
<g id="a_Node000009"><a xlink:href="se050__handler__comprehensive__test_8cpp.html#ad7178bfd7bed244bfbb8045f77e478bb" target="_top" xlink:title=" ">
<polygon fill="white" stroke="#666666" points="400.5,-126.23 311.5,-126.23 311.5,-107.23 400.5,-107.23 400.5,-126.23"/>
<text text-anchor="middle" x="356" y="-114.23" font-family="Helvetica,sans-Serif" font-size="10.00">create_handler</text>
</a>
</g>
</g>
<!-- Node2&#45;&gt;Node9 -->
<g id="edge8_Node000002_Node000009" class="edge">
<title>Node2&#45;&gt;Node9</title>
<g id="a_edge8_Node000002_Node000009"><a xlink:title=" ">
<path fill="none" stroke="#63b8ff" d="M464.83,-128.75C444.02,-126.43 420.49,-123.81 400.74,-121.61"/>
<polygon fill="#63b8ff" stroke="#63b8ff" points="464.47,-132.23 474.8,-129.86 465.25,-125.27 464.47,-132.23"/>
</a>
</g>
</g>
<!-- Node11 -->
<g id="Node000011" class="node">
<title>Node11</title>
<g id="a_Node000011"><a xlink:href="full__system__integration__test_8cpp.html#a0ffcd10e1f0034357e4d75e4e19504be" target="_top" xlink:title=" ">
<polygon fill="white" stroke="#666666" points="405.5,-86.23 306.5,-86.23 306.5,-67.23 405.5,-67.23 405.5,-86.23"/>
<text text-anchor="middle" x="356" y="-74.23" font-family="Helvetica,sans-Serif" font-size="10.00">i2c_handler_task</text>
</a>
</g>
</g>
<!-- Node2&#45;&gt;Node11 -->
<g id="edge10_Node000002_Node000011" class="edge">
<title>Node2&#45;&gt;Node11</title>
<g id="a_edge10_Node000002_Node000011"><a xlink:title=" ">
<path fill="none" stroke="#63b8ff" d="M487.57,-121.11C470.95,-114.02 450.03,-105.46 431,-98.73 418.36,-94.27 404.31,-89.93 391.87,-86.31"/>
<polygon fill="#63b8ff" stroke="#63b8ff" points="486.23,-124.34 496.8,-125.08 489,-117.91 486.23,-124.34"/>
</a>
</g>
</g>
<!-- Node14 -->
<g id="Node000014" class="node">
<title>Node14</title>
<g id="a_Node000014"><a xlink:href="full__system__integration__test_8cpp.html#a5a65d07819438b3ffa159258ea42a9ea" target="_top" xlink:title=" ">
<polygon fill="white" stroke="#666666" points="245,-42.23 101,-42.23 101,-23.23 245,-23.23 245,-42.23"/>
<text text-anchor="middle" x="173" y="-30.23" font-family="Helvetica,sans-Serif" font-size="10.00">test_i2c_multi_device_init</text>
</a>
</g>
</g>
<!-- Node2&#45;&gt;Node14 -->
<g id="edge13_Node000002_Node000014" class="edge">
<title>Node2&#45;&gt;Node14</title>
<g id="a_edge13_Node000002_Node000014"><a xlink:title=" ">
<path fill="none" stroke="#63b8ff" d="M504.25,-117.17C488.44,-99.09 461.16,-71.77 431,-58.73 371.93,-33.2 298.33,-28.12 245.05,-28.59"/>
<polygon fill="#63b8ff" stroke="#63b8ff" points="501.92,-119.84 511.05,-125.21 507.26,-115.31 501.92,-119.84"/>
</a>
</g>
</g>
<!-- Node15 -->
<g id="Node000015" class="node">
<title>Node15</title>
<g id="a_Node000015"><a xlink:href="bno08x__handler__comprehensive__test_8cpp.html#ac83f97b7754666b5e7733941b37c5630" target="_top" xlink:title=" ">
<polygon fill="white" stroke="#666666" points="431,-237.23 281,-237.23 281,-218.23 431,-218.23 431,-237.23"/>
<text text-anchor="middle" x="356" y="-225.23" font-family="Helvetica,sans-Serif" font-size="10.00">test_operations_before_init</text>
</a>
</g>
</g>
<!-- Node2&#45;&gt;Node15 -->
<g id="edge15_Node000002_Node000015" class="edge">
<title>Node2&#45;&gt;Node15</title>
<g id="a_edge15_Node000002_Node000015"><a xlink:title=" ">
<path fill="none" stroke="#63b8ff" d="M503.05,-152.08C486.78,-169.26 459.61,-195.07 431,-209.73 424.41,-213.11 417.16,-215.87 409.86,-218.12"/>
<polygon fill="#63b8ff" stroke="#63b8ff" points="505.9,-154.14 510.11,-144.42 500.76,-149.39 505.9,-154.14"/>
</a>
</g>
</g>
<!-- Node4 -->
<g id="Node000004" class="node">
<title>Node4</title>
<g id="a_Node000004"><a xlink:href="bno08x__handler__comprehensive__test_8cpp.html#a630544a7f0a2cc40d8a7fefab7e2fe70" target="_top" xlink:title=" ">
<polygon fill="white" stroke="#666666" points="205.5,-254.23 140.5,-254.23 140.5,-235.23 205.5,-235.23 205.5,-254.23"/>
<text text-anchor="middle" x="173" y="-242.23" font-family="Helvetica,sans-Serif" font-size="10.00">app_main</text>
</a>
</g>
</g>
<!-- Node3&#45;&gt;Node4 -->
<g id="edge3_Node000003_Node000004" class="edge">
<title>Node3&#45;&gt;Node4</title>
<g id="a_edge3_Node000003_Node000004"><a xlink:title=" ">
<path fill="none" stroke="#63b8ff" d="M300.92,-258.75C269.8,-255.32 231.77,-251.11 205.5,-248.21"/>
<polygon fill="#63b8ff" stroke="#63b8ff" points="300.86,-262.27 311.18,-259.89 301.63,-255.31 300.86,-262.27"/>
</a>
</g>
</g>
<!-- Node6 -->
<g id="Node000006" class="node">
<title>Node6</title>
<g id="a_Node000006"><a xlink:href="pca9685__handler__comprehensive__test_8cpp.html#a630544a7f0a2cc40d8a7fefab7e2fe70" target="_top" xlink:title=" ">
<polygon fill="white" stroke="#666666" points="205.5,-202.23 140.5,-202.23 140.5,-183.23 205.5,-183.23 205.5,-202.23"/>
<text text-anchor="middle" x="173" y="-190.23" font-family="Helvetica,sans-Serif" font-size="10.00">app_main</text>
</a>
</g>
</g>
<!-- Node5&#45;&gt;Node6 -->
<g id="edge5_Node000005_Node000006" class="edge">
<title>Node5&#45;&gt;Node6</title>
<g id="a_edge5_Node000005_Node000006"><a xlink:title=" ">
<path fill="none" stroke="#63b8ff" d="M300.92,-191.33C269.8,-191.67 231.77,-192.09 205.5,-192.38"/>
<polygon fill="#63b8ff" stroke="#63b8ff" points="301.22,-194.83 311.18,-191.21 301.15,-187.83 301.22,-194.83"/>
</a>
</g>
</g>
<!-- Node8 -->
<g id="Node000008" class="node">
<title>Node8</title>
<g id="a_Node000008"><a xlink:href="pcal95555__handler__comprehensive__test_8cpp.html#a630544a7f0a2cc40d8a7fefab7e2fe70" target="_top" xlink:title=" ">
<polygon fill="white" stroke="#666666" points="205.5,-165.23 140.5,-165.23 140.5,-146.23 205.5,-146.23 205.5,-165.23"/>
<text text-anchor="middle" x="173" y="-153.23" font-family="Helvetica,sans-Serif" font-size="10.00">app_main</text>
</a>
</g>
</g>
<!-- Node7&#45;&gt;Node8 -->
<g id="edge7_Node000007_Node000008" class="edge">
<title>Node7&#45;&gt;Node8</title>
<g id="a_edge7_Node000007_Node000008"><a xlink:title=" ">
<path fill="none" stroke="#63b8ff" d="M300.92,-154.33C269.8,-154.67 231.77,-155.09 205.5,-155.38"/>
<polygon fill="#63b8ff" stroke="#63b8ff" points="301.22,-157.83 311.18,-154.21 301.15,-150.83 301.22,-157.83"/>
</a>
</g>
</g>
<!-- Node10 -->
<g id="Node000010" class="node">
<title>Node10</title>
<g id="a_Node000010"><a xlink:href="se050__handler__comprehensive__test_8cpp.html#a630544a7f0a2cc40d8a7fefab7e2fe70" target="_top" xlink:title=" ">
<polygon fill="white" stroke="#666666" points="205.5,-128.23 140.5,-128.23 140.5,-109.23 205.5,-109.23 205.5,-128.23"/>
<text text-anchor="middle" x="173" y="-116.23" font-family="Helvetica,sans-Serif" font-size="10.00">app_main</text>
</a>
</g>
</g>
<!-- Node9&#45;&gt;Node10 -->
<g id="edge9_Node000009_Node000010" class="edge">
<title>Node9&#45;&gt;Node10</title>
<g id="a_edge9_Node000009_Node000010"><a xlink:title=" ">
<path fill="none" stroke="#63b8ff" d="M300.92,-117.33C269.8,-117.67 231.77,-118.09 205.5,-118.38"/>
<polygon fill="#63b8ff" stroke="#63b8ff" points="301.22,-120.83 311.18,-117.21 301.15,-113.83 301.22,-120.83"/>
</a>
</g>
</g>
<!-- Node12 -->
<g id="Node000012" class="node">
<title>Node12</title>
<g id="a_Node000012"><a xlink:href="full__system__integration__test_8cpp.html#ab02326456d9f2a9466cae859c06f9f1a" target="_top" xlink:title=" ">
<polygon fill="white" stroke="#666666" points="229,-90.73 117,-90.73 117,-60.73 229,-60.73 229,-90.73"/>
<text text-anchor="start" x="125" y="-78.73" font-family="Helvetica,sans-Serif" font-size="10.00">test_concurrent_i2c</text>
<text text-anchor="middle" x="173" y="-67.73" font-family="Helvetica,sans-Serif" font-size="10.00">_access</text>
</a>
</g>
</g>
<!-- Node11&#45;&gt;Node12 -->
<g id="edge11_Node000011_Node000012" class="edge">
<title>Node11&#45;&gt;Node12</title>
<g id="a_edge11_Node000011_Node000012"><a xlink:title=" ">
<path fill="none" stroke="#63b8ff" d="M296.45,-76.41C274.8,-76.29 250.36,-76.15 229.04,-76.03"/>
<polygon fill="#63b8ff" stroke="#63b8ff" points="296.48,-79.91 306.5,-76.46 296.51,-72.91 296.48,-79.91"/>
</a>
</g>
</g>
<!-- Node13 -->
<g id="Node000013" class="node">
<title>Node13</title>
<g id="a_Node000013"><a xlink:href="full__system__integration__test_8cpp.html#a630544a7f0a2cc40d8a7fefab7e2fe70" target="_top" xlink:title=" ">
<polygon fill="white" stroke="#666666" points="65,-42.23 0,-42.23 0,-23.23 65,-23.23 65,-42.23"/>
<text text-anchor="middle" x="32.5" y="-30.23" font-family="Helvetica,sans-Serif" font-size="10.00">app_main</text>
</a>
</g>
</g>
<!-- Node12&#45;&gt;Node13 -->
<g id="edge12_Node000012_Node000013" class="edge">
<title>Node12&#45;&gt;Node13</title>
<g id="a_edge12_Node000012_Node000013"><a xlink:title=" ">
<path fill="none" stroke="#63b8ff" d="M113.72,-57.64C96.77,-52.37 78.92,-46.83 64.38,-42.32"/>
<polygon fill="#63b8ff" stroke="#63b8ff" points="112.97,-61.07 123.56,-60.69 115.05,-54.38 112.97,-61.07"/>
</a>
</g>
</g>
<!-- Node14&#45;&gt;Node13 -->
<g id="edge14_Node000014_Node000013" class="edge">
<title>Node14&#45;&gt;Node13</title>
<g id="a_edge14_Node000014_Node000013"><a xlink:title=" ">
<path fill="none" stroke="#63b8ff" d="M90.55,-32.73C81.62,-32.73 72.97,-32.73 65.22,-32.73"/>
<polygon fill="#63b8ff" stroke="#63b8ff" points="90.72,-36.23 100.72,-32.73 90.72,-29.23 90.72,-36.23"/>
</a>
</g>
</g>
<!-- Node15&#45;&gt;Node4 -->
<g id="edge16_Node000015_Node000004" class="edge">
<title>Node15&#45;&gt;Node4</title>
<g id="a_edge16_Node000015_Node000004"><a xlink:title=" ">
<path fill="none" stroke="#63b8ff" d="M270.67,-235.65C247.58,-237.82 223.96,-240.04 205.85,-241.74"/>
<polygon fill="#63b8ff" stroke="#63b8ff" points="271.23,-239.11 280.86,-234.69 270.57,-232.14 271.23,-239.11"/>
</a>
</g>
</g>
<!-- Node16&#45;&gt;Node13 -->
<g id="edge18_Node000016_Node000013" class="edge">
<title>Node16&#45;&gt;Node13</title>
<g id="a_edge18_Node000016_Node000013"><a xlink:title=" ">
<path fill="none" stroke="#63b8ff" d="M487.78,-44.04C471.28,-37.32 450.4,-29.81 431,-25.73 287.39,4.51 246.38,6.34 101,-13.73 87.49,-15.6 72.88,-19.47 60.72,-23.23"/>
<polygon fill="#63b8ff" stroke="#63b8ff" points="486.85,-47.45 497.43,-48.08 489.56,-40.99 486.85,-47.45"/>
</a>
</g>
</g>
</g>
</svg>
