<?xml version="1.0" encoding="UTF-8" standalone="no"?>
<!DOCTYPE svg PUBLIC "-//W3C//DTD SVG 1.1//EN"
 "http://www.w3.org/Graphics/SVG/1.1/DTD/svg11.dtd">
<!-- Generated by graphviz version 2.43.0 (0)
 -->
<!-- Title: HfUtilsCanOpenTransport.hpp Pages: 1 -->
<svg width="347pt" height="137pt"
 viewBox="0.00 0.00 346.50 137.00" xmlns="http://www.w3.org/2000/svg" xmlns:xlink="http://www.w3.org/1999/xlink">
<g id="graph0" class="graph" transform="scale(1 1) rotate(0) translate(4 133)">
<title>HfUtilsCanOpenTransport.hpp</title>
<!-- Node1 -->
<g id="Node000001" class="node">
<title>Node1</title>
<g id="a_Node000001"><a xlink:title="Send/receive CanOpen::CanFrame on a BaseCan instance.">
<polygon fill="#999999" stroke="#666666" points="201,-129 40,-129 40,-110 201,-110 201,-129"/>
<text text-anchor="middle" x="120.5" y="-117" font-family="Helvetica,sans-Serif" font-size="10.00">HfUtilsCanOpenTransport.hpp</text>
</a>
</g>
</g>
<!-- Node2 -->
<g id="Node000002" class="node">
<title>Node2</title>
<g id="a_Node000002"><a xlink:href="HfUtilsCanOpenBridge_8hpp.html" target="_top" xlink:title="Convert CanOpen::CanFrame ↔ hf_can_message_t for BaseCan I/O.">
<polygon fill="white" stroke="#666666" points="296,-74 149,-74 149,-55 296,-55 296,-74"/>
<text text-anchor="middle" x="222.5" y="-62" font-family="Helvetica,sans-Serif" font-size="10.00">HfUtilsCanOpenBridge.hpp</text>
</a>
</g>
</g>
<!-- Node1&#45;&gt;Node2 -->
<g id="edge1_Node000001_Node000002" class="edge">
<title>Node1&#45;&gt;Node2</title>
<g id="a_edge1_Node000001_Node000002"><a xlink:title=" ">
<path fill="none" stroke="#63b8ff" d="M136.89,-109.98C153.07,-101.57 178.07,-88.59 196.88,-78.81"/>
<polygon fill="#63b8ff" stroke="#63b8ff" points="198.55,-81.89 205.81,-74.17 195.33,-75.68 198.55,-81.89"/>
</a>
</g>
</g>
<!-- Node3 -->
<g id="Node000003" class="node">
<title>Node3</title>
<g id="a_Node000003"><a xlink:title=" ">
<polygon fill="#e0e0e0" stroke="#999999" points="75,-19 0,-19 0,0 75,0 75,-19"/>
<text text-anchor="middle" x="37.5" y="-7" font-family="Helvetica,sans-Serif" font-size="10.00">CanFrame.h</text>
</a>
</g>
</g>
<!-- Node1&#45;&gt;Node3 -->
<g id="edge7_Node000001_Node000003" class="edge">
<title>Node1&#45;&gt;Node3</title>
<g id="a_edge7_Node000001_Node000003"><a xlink:title=" ">
<path fill="none" stroke="#63b8ff" d="M113.71,-109.66C99.9,-91.69 68.35,-50.64 50.48,-27.38"/>
<polygon fill="#63b8ff" stroke="#63b8ff" points="53.02,-24.95 44.15,-19.16 47.47,-29.22 53.02,-24.95"/>
</a>
</g>
</g>
<!-- Node4 -->
<g id="Node000004" class="node">
<title>Node4</title>
<g id="a_Node000004"><a xlink:title=" ">
<polygon fill="#e0e0e0" stroke="#999999" points="188,-19 93,-19 93,0 188,0 188,-19"/>
<text text-anchor="middle" x="140.5" y="-7" font-family="Helvetica,sans-Serif" font-size="10.00">base/BaseCan.h</text>
</a>
</g>
</g>
<!-- Node1&#45;&gt;Node4 -->
<g id="edge6_Node000001_Node000004" class="edge">
<title>Node1&#45;&gt;Node4</title>
<g id="a_edge6_Node000001_Node000004"><a xlink:title=" ">
<path fill="none" stroke="#63b8ff" d="M122.14,-109.66C125.38,-92.17 132.67,-52.8 137.02,-29.27"/>
<polygon fill="#63b8ff" stroke="#63b8ff" points="140.52,-29.63 138.9,-19.16 133.63,-28.35 140.52,-29.63"/>
</a>
</g>
</g>
<!-- Node2&#45;&gt;Node3 -->
<g id="edge2_Node000002_Node000003" class="edge">
<title>Node2&#45;&gt;Node3</title>
<g id="a_edge2_Node000002_Node000003"><a xlink:title=" ">
<path fill="none" stroke="#63b8ff" d="M192.78,-54.98C161.45,-46.01 111.93,-31.82 77.26,-21.89"/>
<polygon fill="#63b8ff" stroke="#63b8ff" points="78.03,-18.47 67.46,-19.08 76.11,-25.2 78.03,-18.47"/>
</a>
</g>
</g>
<!-- Node2&#45;&gt;Node4 -->
<g id="edge3_Node000002_Node000004" class="edge">
<title>Node2&#45;&gt;Node4</title>
<g id="a_edge3_Node000002_Node000004"><a xlink:title=" ">
<path fill="none" stroke="#63b8ff" d="M209.33,-54.98C196.73,-46.84 177.5,-34.41 162.56,-24.76"/>
<polygon fill="#63b8ff" stroke="#63b8ff" points="164.21,-21.66 153.91,-19.17 160.41,-27.54 164.21,-21.66"/>
</a>
</g>
</g>
<!-- Node5 -->
<g id="Node000005" class="node">
<title>Node5</title>
<g id="a_Node000005"><a xlink:title=" ">
<polygon fill="#e0e0e0" stroke="#999999" points="270.5,-19 206.5,-19 206.5,0 270.5,0 270.5,-19"/>
<text text-anchor="middle" x="238.5" y="-7" font-family="Helvetica,sans-Serif" font-size="10.00">algorithm</text>
</a>
</g>
</g>
<!-- Node2&#45;&gt;Node5 -->
<g id="edge4_Node000002_Node000005" class="edge">
<title>Node2&#45;&gt;Node5</title>
<g id="a_edge4_Node000002_Node000005"><a xlink:title=" ">
<path fill="none" stroke="#63b8ff" d="M225.14,-54.75C227.26,-47.72 230.31,-37.62 232.96,-28.84"/>
<polygon fill="#63b8ff" stroke="#63b8ff" points="236.37,-29.67 235.91,-19.09 229.67,-27.65 236.37,-29.67"/>
</a>
</g>
</g>
<!-- Node6 -->
<g id="Node000006" class="node">
<title>Node6</title>
<g id="a_Node000006"><a xlink:title=" ">
<polygon fill="#e0e0e0" stroke="#999999" points="338.5,-19 288.5,-19 288.5,0 338.5,0 338.5,-19"/>
<text text-anchor="middle" x="313.5" y="-7" font-family="Helvetica,sans-Serif" font-size="10.00">cstring</text>
</a>
</g>
</g>
<!-- Node2&#45;&gt;Node6 -->
<g id="edge5_Node000002_Node000006" class="edge">
<title>Node2&#45;&gt;Node6</title>
<g id="a_edge5_Node000002_Node000006"><a xlink:title=" ">
<path fill="none" stroke="#63b8ff" d="M237.12,-54.98C251.36,-46.69 273.25,-33.94 289.95,-24.22"/>
<polygon fill="#63b8ff" stroke="#63b8ff" points="291.73,-27.23 298.61,-19.17 288.21,-21.18 291.73,-27.23"/>
</a>
</g>
</g>
</g>
</svg>
