<?xml version="1.0" encoding="UTF-8" standalone="no"?>
<!DOCTYPE svg PUBLIC "-//W3C//DTD SVG 1.1//EN"
 "http://www.w3.org/Graphics/SVG/1.1/DTD/svg11.dtd">
<!-- Generated by graphviz version 2.43.0 (0)
 -->
<!-- Title: Graphical Class Hierarchy Pages: 1 -->
<svg width="313pt" height="64pt"
 viewBox="0.00 0.00 313.00 64.00" xmlns="http://www.w3.org/2000/svg" xmlns:xlink="http://www.w3.org/1999/xlink">
<g id="graph0" class="graph" transform="scale(1 1) rotate(0) translate(4 60)">
<title>Graphical Class Hierarchy</title>
<!-- Node0 -->
<g id="Node000000" class="node">
<title>Node0</title>
<g id="a_Node000000"><a xlink:title=" ">
<polygon fill="#e0e0e0" stroke="#999999" points="102,-37 0,-37 0,-18 102,-18 102,-37"/>
<text text-anchor="middle" x="51" y="-25" font-family="Helvetica,sans-Serif" font-size="10.00">BaseTemperature</text>
</a>
</g>
</g>
<!-- Node1 -->
<g id="Node000001" class="node">
<title>Node1</title>
<g id="a_Node000001"><a xlink:href="classNtcTemperatureHandler.html" target="_top" xlink:title="NTC temperature sensor handler implementing BaseTemperature interface.">
<polygon fill="white" stroke="#666666" points="288,-56 155,-56 155,-37 288,-37 288,-56"/>
<text text-anchor="middle" x="221.5" y="-44" font-family="Helvetica,sans-Serif" font-size="10.00">NtcTemperatureHandler</text>
</a>
</g>
</g>
<!-- Node0&#45;&gt;Node1 -->
<g id="edge8_Node000000_Node000001" class="edge">
<title>Node0&#45;&gt;Node1</title>
<g id="a_edge8_Node000000_Node000001"><a xlink:title=" ">
<path fill="none" stroke="#63b8ff" d="M112.04,-34.27C125.95,-35.84 140.83,-37.52 154.97,-39.11"/>
<polygon fill="#63b8ff" stroke="#63b8ff" points="112.43,-30.79 102.1,-33.15 111.64,-37.75 112.43,-30.79"/>
</a>
</g>
</g>
<!-- Node2 -->
<g id="Node000002" class="node">
<title>Node2</title>
<g id="a_Node000002"><a xlink:href="classTmc9660Handler_1_1Temperature.html" target="_top" xlink:title="BaseTemperature adapter for TMC9660 internal chip temperature sensor.">
<polygon fill="white" stroke="#666666" points="305,-19 138,-19 138,0 305,0 305,-19"/>
<text text-anchor="middle" x="221.5" y="-7" font-family="Helvetica,sans-Serif" font-size="10.00">Tmc9660Handler::Temperature</text>
</a>
</g>
</g>
<!-- Node0&#45;&gt;Node2 -->
<g id="edge9_Node000000_Node000002" class="edge">
<title>Node0&#45;&gt;Node2</title>
<g id="a_edge9_Node000000_Node000002"><a xlink:title=" ">
<path fill="none" stroke="#63b8ff" d="M112.08,-21.08C120.42,-20.19 129.11,-19.26 137.77,-18.34"/>
<polygon fill="#63b8ff" stroke="#63b8ff" points="111.67,-17.61 102.1,-22.15 112.41,-24.57 111.67,-17.61"/>
</a>
</g>
</g>
</g>
</svg>
