<?xml version="1.0" encoding="UTF-8" standalone="no"?>
<!DOCTYPE svg PUBLIC "-//W3C//DTD SVG 1.1//EN"
 "http://www.w3.org/Graphics/SVG/1.1/DTD/svg11.dtd">
<!-- Generated by graphviz version 2.43.0 (0)
 -->
<!-- Title: Logger.h Pages: 1 -->
<svg width="1730pt" height="148pt"
 viewBox="0.00 0.00 1730.00 148.00" xmlns="http://www.w3.org/2000/svg" xmlns:xlink="http://www.w3.org/1999/xlink">
<g id="graph0" class="graph" transform="scale(1 1) rotate(0) translate(4 144)">
<title>Logger.h</title>
<!-- Node1 -->
<g id="Node000001" class="node">
<title>Node1</title>
<g id="a_Node000001"><a xlink:title="Advanced logging system with formatting capabilities.">
<polygon fill="#999999" stroke="#666666" points="778,-140 720,-140 720,-121 778,-121 778,-140"/>
<text text-anchor="middle" x="749" y="-128" font-family="Helvetica,sans-Serif" font-size="10.00">Logger.h</text>
</a>
</g>
</g>
<!-- Node2 -->
<g id="Node000002" class="node">
<title>Node2</title>
<g id="a_Node000002"><a xlink:href="Ads7952Handler_8cpp.html" target="_top" xlink:title="Implementation of the ADS7952 12&#45;channel SAR ADC handler.">
<polygon fill="white" stroke="#666666" points="116,-79.5 0,-79.5 0,-60.5 116,-60.5 116,-79.5"/>
<text text-anchor="middle" x="58" y="-67.5" font-family="Helvetica,sans-Serif" font-size="10.00">Ads7952Handler.cpp</text>
</a>
</g>
</g>
<!-- Node1&#45;&gt;Node2 -->
<g id="edge1_Node000001_Node000002" class="edge">
<title>Node1&#45;&gt;Node2</title>
<g id="a_edge1_Node000001_Node000002"><a xlink:title=" ">
<path fill="none" stroke="#63b8ff" d="M709.83,-128.54C611.19,-125.72 344.77,-115.65 125,-85 115,-83.6 104.25,-81.59 94.36,-79.53"/>
<polygon fill="#63b8ff" stroke="#63b8ff" points="709.84,-132.04 719.93,-128.82 710.03,-125.04 709.84,-132.04"/>
</a>
</g>
</g>
<!-- Node3 -->
<g id="Node000003" class="node">
<title>Node3</title>
<g id="a_Node000003"><a xlink:href="As5047uHandler_8cpp.html" target="_top" xlink:title="Implementation of unified AS5047U magnetic rotary position sensor handler.">
<polygon fill="white" stroke="#666666" points="250,-79.5 134,-79.5 134,-60.5 250,-60.5 250,-79.5"/>
<text text-anchor="middle" x="192" y="-67.5" font-family="Helvetica,sans-Serif" font-size="10.00">As5047uHandler.cpp</text>
</a>
</g>
</g>
<!-- Node1&#45;&gt;Node3 -->
<g id="edge2_Node000001_Node000003" class="edge">
<title>Node1&#45;&gt;Node3</title>
<g id="a_edge2_Node000001_Node000003"><a xlink:title=" ">
<path fill="none" stroke="#63b8ff" d="M709.83,-127.48C626.51,-122.85 425.69,-109.9 259,-85 249.25,-83.54 238.77,-81.56 229.07,-79.54"/>
<polygon fill="#63b8ff" stroke="#63b8ff" points="709.69,-130.98 719.87,-128.03 710.07,-123.99 709.69,-130.98"/>
</a>
</g>
</g>
<!-- Node4 -->
<g id="Node000004" class="node">
<title>Node4</title>
<g id="a_Node000004"><a xlink:href="Bno08xHandler_8cpp.html" target="_top" xlink:title="Implementation of unified BNO08x IMU sensor handler.">
<polygon fill="white" stroke="#666666" points="379.5,-79.5 268.5,-79.5 268.5,-60.5 379.5,-60.5 379.5,-79.5"/>
<text text-anchor="middle" x="324" y="-67.5" font-family="Helvetica,sans-Serif" font-size="10.00">Bno08xHandler.cpp</text>
</a>
</g>
</g>
<!-- Node1&#45;&gt;Node4 -->
<g id="edge3_Node000001_Node000004" class="edge">
<title>Node1&#45;&gt;Node4</title>
<g id="a_edge3_Node000001_Node000004"><a xlink:title=" ">
<path fill="none" stroke="#63b8ff" d="M709.83,-125.87C643.37,-119.45 504.4,-104.86 388,-85 378.92,-83.45 369.18,-81.48 360.1,-79.51"/>
<polygon fill="#63b8ff" stroke="#63b8ff" points="709.57,-129.36 719.85,-126.83 710.23,-122.4 709.57,-129.36"/>
</a>
</g>
</g>
<!-- Node5 -->
<g id="Node000005" class="node">
<title>Node5</title>
<g id="a_Node000005"><a xlink:href="EspLoggerFactory_8cpp.html" target="_top" xlink:title="ESP32&#45;family implementation of Logger::CreateDefaultBaseLogger().">
<polygon fill="white" stroke="#666666" points="518.5,-79.5 397.5,-79.5 397.5,-60.5 518.5,-60.5 518.5,-79.5"/>
<text text-anchor="middle" x="458" y="-67.5" font-family="Helvetica,sans-Serif" font-size="10.00">EspLoggerFactory.cpp</text>
</a>
</g>
</g>
<!-- Node1&#45;&gt;Node5 -->
<g id="edge4_Node000001_Node000005" class="edge">
<title>Node1&#45;&gt;Node5</title>
<g id="a_edge4_Node000001_Node000005"><a xlink:title=" ">
<path fill="none" stroke="#63b8ff" d="M709.77,-121.61C655.14,-110.63 556.52,-90.81 500.29,-79.5"/>
<polygon fill="#63b8ff" stroke="#63b8ff" points="709.27,-125.08 719.77,-123.62 710.65,-118.22 709.27,-125.08"/>
</a>
</g>
</g>
<!-- Node6 -->
<g id="Node000006" class="node">
<title>Node6</title>
<g id="a_Node000006"><a xlink:href="HandlerCommon_8h.html" target="_top" xlink:title="Shared utility functions for handler CRTP communication adapters.">
<polygon fill="white" stroke="#666666" points="721,-79.5 613,-79.5 613,-60.5 721,-60.5 721,-79.5"/>
<text text-anchor="middle" x="667" y="-67.5" font-family="Helvetica,sans-Serif" font-size="10.00">HandlerCommon.h</text>
</a>
</g>
</g>
<!-- Node1&#45;&gt;Node6 -->
<g id="edge5_Node000001_Node000006" class="edge">
<title>Node1&#45;&gt;Node6</title>
<g id="a_edge5_Node000001_Node000006"><a xlink:title=" ">
<path fill="none" stroke="#63b8ff" d="M728.46,-114.85C712.93,-103.77 692.13,-88.93 679.15,-79.67"/>
<polygon fill="#63b8ff" stroke="#63b8ff" points="726.73,-117.91 736.9,-120.87 730.79,-112.21 726.73,-117.91"/>
</a>
</g>
</g>
<!-- Node7 -->
<g id="Node000007" class="node">
<title>Node7</title>
<g id="a_Node000007"><a xlink:href="Max22200Handler_8cpp.html" target="_top" xlink:title="Implementation of MAX22200 handler with SPI communication adapter.">
<polygon fill="white" stroke="#666666" points="501.5,-19 376.5,-19 376.5,0 501.5,0 501.5,-19"/>
<text text-anchor="middle" x="439" y="-7" font-family="Helvetica,sans-Serif" font-size="10.00">Max22200Handler.cpp</text>
</a>
</g>
</g>
<!-- Node1&#45;&gt;Node7 -->
<g id="edge11_Node000001_Node000007" class="edge">
<title>Node1&#45;&gt;Node7</title>
<g id="a_edge11_Node000001_Node000007"><a xlink:title=" ">
<path fill="none" stroke="#63b8ff" d="M709.78,-121.49C675.84,-113.96 625.8,-101.4 584,-85 557.35,-74.54 552.44,-68.13 527,-55 502.5,-42.36 474.01,-28.02 456.24,-19.11"/>
<polygon fill="#63b8ff" stroke="#63b8ff" points="709.25,-124.96 719.76,-123.67 710.74,-118.12 709.25,-124.96"/>
</a>
</g>
</g>
<!-- Node8 -->
<g id="Node000008" class="node">
<title>Node8</title>
<g id="a_Node000008"><a xlink:href="Tle92466edHandler_8cpp.html" target="_top" xlink:title="Implementation of TLE92466ED handler with SPI communication adapter.">
<polygon fill="white" stroke="#666666" points="650.5,-19 519.5,-19 519.5,0 650.5,0 650.5,-19"/>
<text text-anchor="middle" x="585" y="-7" font-family="Helvetica,sans-Serif" font-size="10.00">Tle92466edHandler.cpp</text>
</a>
</g>
</g>
<!-- Node1&#45;&gt;Node8 -->
<g id="edge15_Node000001_Node000008" class="edge">
<title>Node1&#45;&gt;Node8</title>
<g id="a_edge15_Node000001_Node000008"><a xlink:title=" ">
<path fill="none" stroke="#63b8ff" d="M709.77,-127.72C677.04,-124.11 631.46,-113.81 604,-85 586.5,-66.64 584.51,-34.5 584.65,-19.14"/>
<polygon fill="#63b8ff" stroke="#63b8ff" points="709.62,-131.22 719.9,-128.67 710.27,-124.25 709.62,-131.22"/>
</a>
</g>
</g>
<!-- Node9 -->
<g id="Node000009" class="node">
<title>Node9</title>
<g id="a_Node000009"><a xlink:href="Tmc5160Handler_8cpp.html" target="_top" xlink:title="Implementation of TMC5160 handler with SPI/UART communication adapters.">
<polygon fill="white" stroke="#666666" points="924.5,-19 805.5,-19 805.5,0 924.5,0 924.5,-19"/>
<text text-anchor="middle" x="865" y="-7" font-family="Helvetica,sans-Serif" font-size="10.00">Tmc5160Handler.cpp</text>
</a>
</g>
</g>
<!-- Node1&#45;&gt;Node9 -->
<g id="edge16_Node000001_Node000009" class="edge">
<title>Node1&#45;&gt;Node9</title>
<g id="a_edge16_Node000001_Node000009"><a xlink:title=" ">
<path fill="none" stroke="#63b8ff" d="M749.71,-110.56C751.26,-94.15 755.83,-70.65 769,-55 784.26,-36.87 808.51,-25.71 828.83,-19.1"/>
<polygon fill="#63b8ff" stroke="#63b8ff" points="746.21,-110.39 749.05,-120.6 753.2,-110.85 746.21,-110.39"/>
</a>
</g>
</g>
<!-- Node11 -->
<g id="Node000011" class="node">
<title>Node11</title>
<g id="a_Node000011"><a xlink:href="Logger_8cpp.html" target="_top" xlink:title="Implementation of the advanced logging system.">
<polygon fill="white" stroke="#666666" points="846.5,-79.5 777.5,-79.5 777.5,-60.5 846.5,-60.5 846.5,-79.5"/>
<text text-anchor="middle" x="812" y="-67.5" font-family="Helvetica,sans-Serif" font-size="10.00">Logger.cpp</text>
</a>
</g>
</g>
<!-- Node1&#45;&gt;Node11 -->
<g id="edge10_Node000001_Node000011" class="edge">
<title>Node1&#45;&gt;Node11</title>
<g id="a_edge10_Node000001_Node000011"><a xlink:title=" ">
<path fill="none" stroke="#63b8ff" d="M765.79,-113.91C777.6,-102.94 792.97,-88.67 802.67,-79.67"/>
<polygon fill="#63b8ff" stroke="#63b8ff" points="763.24,-111.5 758.3,-120.87 768.01,-116.63 763.24,-111.5"/>
</a>
</g>
</g>
<!-- Node12 -->
<g id="Node000012" class="node">
<title>Node12</title>
<g id="a_Node000012"><a xlink:href="NtcTemperatureHandler_8cpp.html" target="_top" xlink:title="Implementation of NTC temperature sensor handler for HardFOC system.">
<polygon fill="white" stroke="#666666" points="1017,-79.5 865,-79.5 865,-60.5 1017,-60.5 1017,-79.5"/>
<text text-anchor="middle" x="941" y="-67.5" font-family="Helvetica,sans-Serif" font-size="10.00">NtcTemperatureHandler.cpp</text>
</a>
</g>
</g>
<!-- Node1&#45;&gt;Node12 -->
<g id="edge12_Node000001_Node000012" class="edge">
<title>Node1&#45;&gt;Node12</title>
<g id="a_edge12_Node000001_Node000012"><a xlink:title=" ">
<path fill="none" stroke="#63b8ff" d="M786.87,-117.96C824,-106.65 879.76,-89.66 913.05,-79.52"/>
<polygon fill="#63b8ff" stroke="#63b8ff" points="785.46,-114.73 776.92,-120.99 787.5,-121.43 785.46,-114.73"/>
</a>
</g>
</g>
<!-- Node13 -->
<g id="Node000013" class="node">
<title>Node13</title>
<g id="a_Node000013"><a xlink:href="Pca9685Handler_8cpp.html" target="_top" xlink:title="Implementation of the PCA9685 PWM controller handler.">
<polygon fill="white" stroke="#666666" points="1151,-79.5 1035,-79.5 1035,-60.5 1151,-60.5 1151,-79.5"/>
<text text-anchor="middle" x="1093" y="-67.5" font-family="Helvetica,sans-Serif" font-size="10.00">Pca9685Handler.cpp</text>
</a>
</g>
</g>
<!-- Node1&#45;&gt;Node13 -->
<g id="edge13_Node000001_Node000013" class="edge">
<title>Node1&#45;&gt;Node13</title>
<g id="a_edge13_Node000001_Node000013"><a xlink:title=" ">
<path fill="none" stroke="#63b8ff" d="M788.32,-123.77C842.11,-115.81 941.58,-100.59 1026,-85 1035,-83.34 1044.64,-81.41 1053.74,-79.52"/>
<polygon fill="#63b8ff" stroke="#63b8ff" points="787.57,-120.35 778.19,-125.27 788.59,-127.27 787.57,-120.35"/>
</a>
</g>
</g>
<!-- Node14 -->
<g id="Node000014" class="node">
<title>Node14</title>
<g id="a_Node000014"><a xlink:href="Pcal95555Handler_8cpp.html" target="_top" xlink:title="Implementation of the PCAL95555 GPIO expander handler.">
<polygon fill="white" stroke="#666666" points="1294.5,-79.5 1169.5,-79.5 1169.5,-60.5 1294.5,-60.5 1294.5,-79.5"/>
<text text-anchor="middle" x="1232" y="-67.5" font-family="Helvetica,sans-Serif" font-size="10.00">Pcal95555Handler.cpp</text>
</a>
</g>
</g>
<!-- Node1&#45;&gt;Node14 -->
<g id="edge14_Node000001_Node000014" class="edge">
<title>Node1&#45;&gt;Node14</title>
<g id="a_edge14_Node000001_Node000014"><a xlink:title=" ">
<path fill="none" stroke="#63b8ff" d="M788.15,-126.37C861.4,-120.26 1024.05,-105.54 1160,-85 1170.2,-83.46 1181.15,-81.49 1191.36,-79.52"/>
<polygon fill="#63b8ff" stroke="#63b8ff" points="787.69,-122.89 778.01,-127.2 788.26,-129.87 787.69,-122.89"/>
</a>
</g>
</g>
<!-- Node15 -->
<g id="Node000015" class="node">
<title>Node15</title>
<g id="a_Node000015"><a xlink:href="Ws2812Handler_8cpp.html" target="_top" xlink:title="Implementation of WS2812 LED strip handler.">
<polygon fill="white" stroke="#666666" points="1425.5,-79.5 1312.5,-79.5 1312.5,-60.5 1425.5,-60.5 1425.5,-79.5"/>
<text text-anchor="middle" x="1369" y="-67.5" font-family="Helvetica,sans-Serif" font-size="10.00">Ws2812Handler.cpp</text>
</a>
</g>
</g>
<!-- Node1&#45;&gt;Node15 -->
<g id="edge17_Node000001_Node000015" class="edge">
<title>Node1&#45;&gt;Node15</title>
<g id="a_edge17_Node000001_Node000015"><a xlink:title=" ">
<path fill="none" stroke="#63b8ff" d="M788.17,-128.14C879.17,-124.59 1111.74,-113.29 1304,-85 1313.59,-83.59 1323.89,-81.6 1333.39,-79.56"/>
<polygon fill="#63b8ff" stroke="#63b8ff" points="787.9,-124.65 778.04,-128.52 788.17,-131.64 787.9,-124.65"/>
</a>
</g>
</g>
<!-- Node16 -->
<g id="Node000016" class="node">
<title>Node16</title>
<g id="a_Node000016"><a xlink:href="full__system__integration__test_8cpp.html" target="_top" xlink:title="Full system integration test for hf&#45;core.">
<polygon fill="white" stroke="#666666" points="1576,-85 1444,-85 1444,-55 1576,-55 1576,-85"/>
<text text-anchor="start" x="1452" y="-73" font-family="Helvetica,sans-Serif" font-size="10.00">full_system_integration</text>
<text text-anchor="middle" x="1510" y="-62" font-family="Helvetica,sans-Serif" font-size="10.00">_test.cpp</text>
</a>
</g>
</g>
<!-- Node1&#45;&gt;Node16 -->
<g id="edge18_Node000001_Node000016" class="edge">
<title>Node1&#45;&gt;Node16</title>
<g id="a_edge18_Node000001_Node000016"><a xlink:title=" ">
<path fill="none" stroke="#63b8ff" d="M788.36,-128.6C893.63,-125.82 1190.28,-115.67 1435,-85 1437.89,-84.64 1440.84,-84.23 1443.81,-83.8"/>
<polygon fill="#63b8ff" stroke="#63b8ff" points="788.11,-125.1 778.2,-128.86 788.29,-132.1 788.11,-125.1"/>
</a>
</g>
</g>
<!-- Node17 -->
<g id="Node000017" class="node">
<title>Node17</title>
<g id="a_Node000017"><a xlink:href="logger__comprehensive__test_8cpp.html" target="_top" xlink:title="Comprehensive test suite for Logger singleton.">
<polygon fill="white" stroke="#666666" points="1722,-85 1594,-85 1594,-55 1722,-55 1722,-85"/>
<text text-anchor="start" x="1602" y="-73" font-family="Helvetica,sans-Serif" font-size="10.00">logger_comprehensive</text>
<text text-anchor="middle" x="1658" y="-62" font-family="Helvetica,sans-Serif" font-size="10.00">_test.cpp</text>
</a>
</g>
</g>
<!-- Node1&#45;&gt;Node17 -->
<g id="edge19_Node000001_Node000017" class="edge">
<title>Node1&#45;&gt;Node17</title>
<g id="a_edge19_Node000001_Node000017"><a xlink:title=" ">
<path fill="none" stroke="#63b8ff" d="M788.15,-129.31C907.9,-128.32 1279.69,-122.23 1585,-85 1587.95,-84.64 1590.95,-84.23 1593.98,-83.79"/>
<polygon fill="#63b8ff" stroke="#63b8ff" points="787.98,-125.81 778,-129.38 788.03,-132.81 787.98,-125.81"/>
</a>
</g>
</g>
<!-- Node6&#45;&gt;Node7 -->
<g id="edge6_Node000006_Node000007" class="edge">
<title>Node6&#45;&gt;Node7</title>
<g id="a_edge6_Node000006_Node000007"><a xlink:title=" ">
<path fill="none" stroke="#63b8ff" d="M624,-57.97C579.92,-46.66 512.31,-29.31 472.19,-19.02"/>
<polygon fill="#63b8ff" stroke="#63b8ff" points="623.29,-61.4 633.85,-60.49 625.03,-54.62 623.29,-61.4"/>
</a>
</g>
</g>
<!-- Node6&#45;&gt;Node8 -->
<g id="edge7_Node000006_Node000008" class="edge">
<title>Node6&#45;&gt;Node8</title>
<g id="a_edge7_Node000006_Node000008"><a xlink:title=" ">
<path fill="none" stroke="#63b8ff" d="M646.46,-54.35C630.93,-43.27 610.13,-28.43 597.15,-19.17"/>
<polygon fill="#63b8ff" stroke="#63b8ff" points="644.73,-57.41 654.9,-60.37 648.79,-51.71 644.73,-57.41"/>
</a>
</g>
</g>
<!-- Node6&#45;&gt;Node9 -->
<g id="edge8_Node000006_Node000009" class="edge">
<title>Node6&#45;&gt;Node9</title>
<g id="a_edge8_Node000006_Node000009"><a xlink:title=" ">
<path fill="none" stroke="#63b8ff" d="M705.56,-57.61C743.85,-46.29 801.7,-29.2 836.17,-19.02"/>
<polygon fill="#63b8ff" stroke="#63b8ff" points="704.39,-54.3 695.79,-60.49 706.37,-61.02 704.39,-54.3"/>
</a>
</g>
</g>
<!-- Node10 -->
<g id="Node000010" class="node">
<title>Node10</title>
<g id="a_Node000010"><a xlink:href="Tmc9660Handler_8cpp.html" target="_top" xlink:title=" ">
<polygon fill="white" stroke="#666666" points="787.5,-19 668.5,-19 668.5,0 787.5,0 787.5,-19"/>
<text text-anchor="middle" x="728" y="-7" font-family="Helvetica,sans-Serif" font-size="10.00">Tmc9660Handler.cpp</text>
</a>
</g>
</g>
<!-- Node6&#45;&gt;Node10 -->
<g id="edge9_Node000006_Node000010" class="edge">
<title>Node6&#45;&gt;Node10</title>
<g id="a_edge9_Node000006_Node000010"><a xlink:title=" ">
<path fill="none" stroke="#63b8ff" d="M683.26,-53.41C694.7,-42.44 709.58,-28.17 718.96,-19.17"/>
<polygon fill="#63b8ff" stroke="#63b8ff" points="680.8,-50.92 676,-60.37 685.64,-55.97 680.8,-50.92"/>
</a>
</g>
</g>
</g>
</svg>
