<?xml version="1.0" encoding="UTF-8" standalone="no"?>
<!DOCTYPE svg PUBLIC "-//W3C//DTD SVG 1.1//EN"
 "http://www.w3.org/Graphics/SVG/1.1/DTD/svg11.dtd">
<!-- Generated by graphviz version 2.43.0 (0)
 -->
<!-- Title: Max22200Handler.cpp Pages: 1 -->
<svg width="1186pt" height="225pt"
 viewBox="0.00 0.00 1185.50 225.00" xmlns="http://www.w3.org/2000/svg" xmlns:xlink="http://www.w3.org/1999/xlink">
<g id="graph0" class="graph" transform="scale(1 1) rotate(0) translate(4 221)">
<title>Max22200Handler.cpp</title>
<!-- Node1 -->
<g id="Node000001" class="node">
<title>Node1</title>
<g id="a_Node000001"><a xlink:title="Implementation of MAX22200 handler with SPI communication adapter.">
<polygon fill="#999999" stroke="#666666" points="232,-217 107,-217 107,-198 232,-198 232,-217"/>
<text text-anchor="middle" x="169.5" y="-205" font-family="Helvetica,sans-Serif" font-size="10.00">Max22200Handler.cpp</text>
</a>
</g>
</g>
<!-- Node2 -->
<g id="Node000002" class="node">
<title>Node2</title>
<g id="a_Node000002"><a xlink:href="Max22200Handler_8h.html" target="_top" xlink:title="Unified handler for MAX22200 octal solenoid and motor driver.">
<polygon fill="white" stroke="#666666" points="698.5,-162 584.5,-162 584.5,-143 698.5,-143 698.5,-162"/>
<text text-anchor="middle" x="641.5" y="-150" font-family="Helvetica,sans-Serif" font-size="10.00">Max22200Handler.h</text>
</a>
</g>
</g>
<!-- Node1&#45;&gt;Node2 -->
<g id="edge1_Node000001_Node000002" class="edge">
<title>Node1&#45;&gt;Node2</title>
<g id="a_edge1_Node000001_Node000002"><a xlink:title=" ">
<path fill="none" stroke="#63b8ff" d="M232.18,-199.46C321.13,-189.47 483.28,-171.27 574.52,-161.02"/>
<polygon fill="#63b8ff" stroke="#63b8ff" points="574.93,-164.5 584.48,-159.9 574.15,-157.54 574.93,-164.5"/>
</a>
</g>
</g>
<!-- Node12 -->
<g id="Node000012" class="node">
<title>Node12</title>
<g id="a_Node000012"><a xlink:href="Logger_8h.html" target="_top" xlink:title="Advanced logging system with formatting capabilities.">
<polygon fill="white" stroke="#666666" points="151.5,-90.5 93.5,-90.5 93.5,-71.5 151.5,-71.5 151.5,-90.5"/>
<text text-anchor="middle" x="122.5" y="-78.5" font-family="Helvetica,sans-Serif" font-size="10.00">Logger.h</text>
</a>
</g>
</g>
<!-- Node1&#45;&gt;Node12 -->
<g id="edge11_Node000001_Node000012" class="edge">
<title>Node1&#45;&gt;Node12</title>
<g id="a_edge11_Node000001_Node000012"><a xlink:title=" ">
<path fill="none" stroke="#63b8ff" d="M167.3,-197.75C164.09,-185.38 157.73,-162.17 150.5,-143 144.9,-128.16 137.34,-111.85 131.49,-99.84"/>
<polygon fill="#63b8ff" stroke="#63b8ff" points="134.45,-97.93 126.87,-90.53 128.18,-101.04 134.45,-97.93"/>
</a>
</g>
</g>
<!-- Node16 -->
<g id="Node000016" class="node">
<title>Node16</title>
<g id="a_Node000016"><a xlink:href="HandlerCommon_8h.html" target="_top" xlink:title="Shared utility functions for handler CRTP communication adapters.">
<polygon fill="white" stroke="#666666" points="141.5,-162 33.5,-162 33.5,-143 141.5,-143 141.5,-162"/>
<text text-anchor="middle" x="87.5" y="-150" font-family="Helvetica,sans-Serif" font-size="10.00">HandlerCommon.h</text>
</a>
</g>
</g>
<!-- Node1&#45;&gt;Node16 -->
<g id="edge16_Node000001_Node000016" class="edge">
<title>Node1&#45;&gt;Node16</title>
<g id="a_edge16_Node000001_Node000016"><a xlink:title=" ">
<path fill="none" stroke="#63b8ff" d="M156.33,-197.98C143.73,-189.84 124.5,-177.41 109.56,-167.76"/>
<polygon fill="#63b8ff" stroke="#63b8ff" points="111.21,-164.66 100.91,-162.17 107.41,-170.54 111.21,-164.66"/>
</a>
</g>
</g>
<!-- Node3 -->
<g id="Node000003" class="node">
<title>Node3</title>
<g id="a_Node000003"><a xlink:title=" ">
<polygon fill="#e0e0e0" stroke="#999999" points="219.5,-90.5 169.5,-90.5 169.5,-71.5 219.5,-71.5 219.5,-90.5"/>
<text text-anchor="middle" x="194.5" y="-78.5" font-family="Helvetica,sans-Serif" font-size="10.00">cstdint</text>
</a>
</g>
</g>
<!-- Node2&#45;&gt;Node3 -->
<g id="edge2_Node000002_Node000003" class="edge">
<title>Node2&#45;&gt;Node3</title>
<g id="a_edge2_Node000002_Node000003"><a xlink:title=" ">
<path fill="none" stroke="#63b8ff" d="M584.49,-149.02C486.86,-144.18 292.02,-131.69 228.5,-107 222.46,-104.65 216.54,-100.95 211.37,-97.1"/>
<polygon fill="#63b8ff" stroke="#63b8ff" points="213.47,-94.29 203.5,-90.7 209.06,-99.73 213.47,-94.29"/>
</a>
</g>
</g>
<!-- Node4 -->
<g id="Node000004" class="node">
<title>Node4</title>
<g id="a_Node000004"><a xlink:title=" ">
<polygon fill="#e0e0e0" stroke="#999999" points="534.5,-19 476.5,-19 476.5,0 534.5,0 534.5,-19"/>
<text text-anchor="middle" x="505.5" y="-7" font-family="Helvetica,sans-Serif" font-size="10.00">memory</text>
</a>
</g>
</g>
<!-- Node2&#45;&gt;Node4 -->
<g id="edge3_Node000002_Node000004" class="edge">
<title>Node2&#45;&gt;Node4</title>
<g id="a_edge3_Node000002_Node000004"><a xlink:title=" ">
<path fill="none" stroke="#63b8ff" d="M687.66,-143C708.1,-136.69 730.25,-125.78 742.5,-107 755.12,-87.64 757.26,-72.79 742.5,-55 717.85,-25.29 605.71,-15.29 544.94,-12.02"/>
<polygon fill="#63b8ff" stroke="#63b8ff" points="544.74,-8.51 534.58,-11.5 544.39,-15.5 544.74,-8.51"/>
</a>
</g>
</g>
<!-- Node5 -->
<g id="Node000005" class="node">
<title>Node5</title>
<g id="a_Node000005"><a xlink:title=" ">
<polygon fill="#e0e0e0" stroke="#999999" points="859,-90.5 790,-90.5 790,-71.5 859,-71.5 859,-90.5"/>
<text text-anchor="middle" x="824.5" y="-78.5" font-family="Helvetica,sans-Serif" font-size="10.00">type_traits</text>
</a>
</g>
</g>
<!-- Node2&#45;&gt;Node5 -->
<g id="edge4_Node000002_Node000005" class="edge">
<title>Node2&#45;&gt;Node5</title>
<g id="a_edge4_Node000002_Node000005"><a xlink:title=" ">
<path fill="none" stroke="#63b8ff" d="M671.51,-142.95C698.99,-134.8 740.56,-121.62 775.5,-107 783.64,-103.59 792.29,-99.39 800.02,-95.41"/>
<polygon fill="#63b8ff" stroke="#63b8ff" points="801.68,-98.49 808.9,-90.73 798.42,-92.29 801.68,-98.49"/>
</a>
</g>
</g>
<!-- Node6 -->
<g id="Node000006" class="node">
<title>Node6</title>
<g id="a_Node000006"><a xlink:title=" ">
<polygon fill="#e0e0e0" stroke="#999999" points="1019.5,-101.5 877.5,-101.5 877.5,-60.5 1019.5,-60.5 1019.5,-101.5"/>
<text text-anchor="start" x="885.5" y="-89.5" font-family="Helvetica,sans-Serif" font-size="10.00">core/hf&#45;core&#45;drivers</text>
<text text-anchor="start" x="885.5" y="-78.5" font-family="Helvetica,sans-Serif" font-size="10.00">/external/hf&#45;max22200</text>
<text text-anchor="middle" x="948.5" y="-67.5" font-family="Helvetica,sans-Serif" font-size="10.00">&#45;driver/inc/max22200.hpp</text>
</a>
</g>
</g>
<!-- Node2&#45;&gt;Node6 -->
<g id="edge5_Node000002_Node000006" class="edge">
<title>Node2&#45;&gt;Node6</title>
<g id="a_edge5_Node000002_Node000006"><a xlink:title=" ">
<path fill="none" stroke="#63b8ff" d="M693.7,-142.94C739.94,-134.96 809.13,-122.05 868.5,-107 871.85,-106.15 875.26,-105.25 878.7,-104.3"/>
<polygon fill="#63b8ff" stroke="#63b8ff" points="879.75,-107.64 888.42,-101.55 877.84,-100.91 879.75,-107.64"/>
</a>
</g>
</g>
<!-- Node7 -->
<g id="Node000007" class="node">
<title>Node7</title>
<g id="a_Node000007"><a xlink:title=" ">
<polygon fill="#e0e0e0" stroke="#999999" points="1177.5,-107 1037.5,-107 1037.5,-55 1177.5,-55 1177.5,-107"/>
<text text-anchor="start" x="1045.5" y="-95" font-family="Helvetica,sans-Serif" font-size="10.00">core/hf&#45;core&#45;drivers</text>
<text text-anchor="start" x="1045.5" y="-84" font-family="Helvetica,sans-Serif" font-size="10.00">/external/hf&#45;max22200</text>
<text text-anchor="start" x="1045.5" y="-73" font-family="Helvetica,sans-Serif" font-size="10.00">&#45;driver/inc/max22200_spi</text>
<text text-anchor="middle" x="1107.5" y="-62" font-family="Helvetica,sans-Serif" font-size="10.00">_interface.hpp</text>
</a>
</g>
</g>
<!-- Node2&#45;&gt;Node7 -->
<g id="edge6_Node000002_Node000007" class="edge">
<title>Node2&#45;&gt;Node7</title>
<g id="a_edge6_Node000002_Node000007"><a xlink:title=" ">
<path fill="none" stroke="#63b8ff" d="M698.78,-148.36C772.8,-143.54 905.68,-132.31 1027.6,-107.01"/>
<polygon fill="#63b8ff" stroke="#63b8ff" points="1028.41,-110.42 1037.48,-104.93 1026.97,-103.57 1028.41,-110.42"/>
</a>
</g>
</g>
<!-- Node8 -->
<g id="Node000008" class="node">
<title>Node8</title>
<g id="a_Node000008"><a xlink:title=" ">
<polygon fill="#e0e0e0" stroke="#999999" points="411.5,-101.5 237.5,-101.5 237.5,-60.5 411.5,-60.5 411.5,-101.5"/>
<text text-anchor="start" x="245.5" y="-89.5" font-family="Helvetica,sans-Serif" font-size="10.00">core/hf&#45;core&#45;drivers</text>
<text text-anchor="start" x="245.5" y="-78.5" font-family="Helvetica,sans-Serif" font-size="10.00">/external/hf&#45;max22200</text>
<text text-anchor="middle" x="324.5" y="-67.5" font-family="Helvetica,sans-Serif" font-size="10.00">&#45;driver/inc/max22200_types.hpp</text>
</a>
</g>
</g>
<!-- Node2&#45;&gt;Node8 -->
<g id="edge7_Node000002_Node000008" class="edge">
<title>Node2&#45;&gt;Node8</title>
<g id="a_edge7_Node000002_Node000008"><a xlink:title=" ">
<path fill="none" stroke="#63b8ff" d="M595.84,-142.99C551.24,-134.51 481.5,-120.79 421.5,-107 417.19,-106.01 412.78,-104.97 408.33,-103.9"/>
<polygon fill="#63b8ff" stroke="#63b8ff" points="409.09,-100.48 398.55,-101.51 407.43,-107.28 409.09,-100.48"/>
</a>
</g>
</g>
<!-- Node9 -->
<g id="Node000009" class="node">
<title>Node9</title>
<g id="a_Node000009"><a xlink:title=" ">
<polygon fill="#e0e0e0" stroke="#999999" points="521,-90.5 430,-90.5 430,-71.5 521,-71.5 521,-90.5"/>
<text text-anchor="middle" x="475.5" y="-78.5" font-family="Helvetica,sans-Serif" font-size="10.00">base/BaseSpi.h</text>
</a>
</g>
</g>
<!-- Node2&#45;&gt;Node9 -->
<g id="edge8_Node000002_Node000009" class="edge">
<title>Node2&#45;&gt;Node9</title>
<g id="a_edge8_Node000002_Node000009"><a xlink:title=" ">
<path fill="none" stroke="#63b8ff" d="M619.27,-142.93C596.77,-134.18 561.05,-120.06 530.5,-107 521.53,-103.17 511.82,-98.82 503.09,-94.84"/>
<polygon fill="#63b8ff" stroke="#63b8ff" points="504.29,-91.54 493.74,-90.54 501.37,-97.9 504.29,-91.54"/>
</a>
</g>
</g>
<!-- Node10 -->
<g id="Node000010" class="node">
<title>Node10</title>
<g id="a_Node000010"><a xlink:title=" ">
<polygon fill="#e0e0e0" stroke="#999999" points="637.5,-90.5 539.5,-90.5 539.5,-71.5 637.5,-71.5 637.5,-90.5"/>
<text text-anchor="middle" x="588.5" y="-78.5" font-family="Helvetica,sans-Serif" font-size="10.00">base/BaseGpio.h</text>
</a>
</g>
</g>
<!-- Node2&#45;&gt;Node10 -->
<g id="edge9_Node000002_Node000010" class="edge">
<title>Node2&#45;&gt;Node10</title>
<g id="a_edge9_Node000002_Node000010"><a xlink:title=" ">
<path fill="none" stroke="#63b8ff" d="M635,-142.98C626.66,-132.04 611.99,-112.8 601.35,-98.85"/>
<polygon fill="#63b8ff" stroke="#63b8ff" points="603.9,-96.42 595.05,-90.59 598.33,-100.67 603.9,-96.42"/>
</a>
</g>
</g>
<!-- Node11 -->
<g id="Node000011" class="node">
<title>Node11</title>
<g id="a_Node000011"><a xlink:title=" ">
<polygon fill="#e0e0e0" stroke="#999999" points="733.5,-90.5 655.5,-90.5 655.5,-71.5 733.5,-71.5 733.5,-90.5"/>
<text text-anchor="middle" x="694.5" y="-78.5" font-family="Helvetica,sans-Serif" font-size="10.00">RtosMutex.h</text>
</a>
</g>
</g>
<!-- Node2&#45;&gt;Node11 -->
<g id="edge10_Node000002_Node000011" class="edge">
<title>Node2&#45;&gt;Node11</title>
<g id="a_edge10_Node000002_Node000011"><a xlink:title=" ">
<path fill="none" stroke="#63b8ff" d="M648,-142.98C656.34,-132.04 671.01,-112.8 681.65,-98.85"/>
<polygon fill="#63b8ff" stroke="#63b8ff" points="684.67,-100.67 687.95,-90.59 679.1,-96.42 684.67,-100.67"/>
</a>
</g>
</g>
<!-- Node12&#45;&gt;Node4 -->
<g id="edge14_Node000012_Node000004" class="edge">
<title>Node12&#45;&gt;Node4</title>
<g id="a_edge14_Node000012_Node000004"><a xlink:title=" ">
<path fill="none" stroke="#63b8ff" d="M132.77,-71.38C140.04,-65.76 150.28,-58.79 160.5,-55 265.9,-15.92 400.42,-10.14 465.99,-9.9"/>
<polygon fill="#63b8ff" stroke="#63b8ff" points="466.28,-13.4 476.28,-9.91 466.29,-6.4 466.28,-13.4"/>
</a>
</g>
</g>
<!-- Node13 -->
<g id="Node000013" class="node">
<title>Node13</title>
<g id="a_Node000013"><a xlink:title=" ">
<polygon fill="#e0e0e0" stroke="#999999" points="53,-19 0,-19 0,0 53,0 53,-19"/>
<text text-anchor="middle" x="26.5" y="-7" font-family="Helvetica,sans-Serif" font-size="10.00">cstdarg</text>
</a>
</g>
</g>
<!-- Node12&#45;&gt;Node13 -->
<g id="edge12_Node000012_Node000013" class="edge">
<title>Node12&#45;&gt;Node13</title>
<g id="a_edge12_Node000012_Node000013"><a xlink:title=" ">
<path fill="none" stroke="#63b8ff" d="M110.73,-71.48C94.75,-59.91 65.97,-39.07 46.55,-25.02"/>
<polygon fill="#63b8ff" stroke="#63b8ff" points="48.52,-22.12 38.37,-19.09 44.42,-27.79 48.52,-22.12"/>
</a>
</g>
</g>
<!-- Node14 -->
<g id="Node000014" class="node">
<title>Node14</title>
<g id="a_Node000014"><a xlink:title=" ">
<polygon fill="#e0e0e0" stroke="#999999" points="202.5,-19 152.5,-19 152.5,0 202.5,0 202.5,-19"/>
<text text-anchor="middle" x="177.5" y="-7" font-family="Helvetica,sans-Serif" font-size="10.00">cstring</text>
</a>
</g>
</g>
<!-- Node12&#45;&gt;Node14 -->
<g id="edge13_Node000012_Node000014" class="edge">
<title>Node12&#45;&gt;Node14</title>
<g id="a_edge13_Node000012_Node000014"><a xlink:title=" ">
<path fill="none" stroke="#63b8ff" d="M129.24,-71.48C137.99,-60.43 153.42,-40.93 164.48,-26.96"/>
<polygon fill="#63b8ff" stroke="#63b8ff" points="167.24,-29.11 170.7,-19.09 161.75,-24.76 167.24,-29.11"/>
</a>
</g>
</g>
<!-- Node15 -->
<g id="Node000015" class="node">
<title>Node15</title>
<g id="a_Node000015"><a xlink:title=" ">
<polygon fill="#e0e0e0" stroke="#999999" points="134.5,-19 84.5,-19 84.5,0 134.5,0 134.5,-19"/>
<text text-anchor="middle" x="109.5" y="-7" font-family="Helvetica,sans-Serif" font-size="10.00">atomic</text>
</a>
</g>
</g>
<!-- Node12&#45;&gt;Node15 -->
<g id="edge15_Node000012_Node000015" class="edge">
<title>Node12&#45;&gt;Node15</title>
<g id="a_edge15_Node000012_Node000015"><a xlink:title=" ">
<path fill="none" stroke="#63b8ff" d="M120.91,-71.48C118.94,-60.95 115.53,-42.75 112.95,-28.97"/>
<polygon fill="#63b8ff" stroke="#63b8ff" points="116.39,-28.28 111.11,-19.09 109.51,-29.56 116.39,-28.28"/>
</a>
</g>
</g>
<!-- Node16&#45;&gt;Node3 -->
<g id="edge18_Node000016_Node000003" class="edge">
<title>Node16&#45;&gt;Node3</title>
<g id="a_edge18_Node000016_Node000003"><a xlink:title=" ">
<path fill="none" stroke="#63b8ff" d="M102.56,-142.84C117.49,-134.13 140.9,-120.14 160.5,-107 165.37,-103.74 170.51,-100.07 175.29,-96.57"/>
<polygon fill="#63b8ff" stroke="#63b8ff" points="177.41,-99.36 183.34,-90.58 173.23,-93.74 177.41,-99.36"/>
</a>
</g>
</g>
<!-- Node16&#45;&gt;Node12 -->
<g id="edge20_Node000016_Node000012" class="edge">
<title>Node16&#45;&gt;Node12</title>
<g id="a_edge20_Node000016_Node000012"><a xlink:title=" ">
<path fill="none" stroke="#63b8ff" d="M91.79,-142.98C97.2,-132.24 106.62,-113.53 113.61,-99.66"/>
<polygon fill="#63b8ff" stroke="#63b8ff" points="116.8,-101.1 118.17,-90.59 110.55,-97.95 116.8,-101.1"/>
</a>
</g>
</g>
<!-- Node16&#45;&gt;Node13 -->
<g id="edge17_Node000016_Node000013" class="edge">
<title>Node16&#45;&gt;Node13</title>
<g id="a_edge17_Node000016_Node000013"><a xlink:title=" ">
<path fill="none" stroke="#63b8ff" d="M64.39,-142.98C48.91,-135.92 29.74,-124.23 20.5,-107 7.32,-82.42 13.77,-49.1 19.93,-28.74"/>
<polygon fill="#63b8ff" stroke="#63b8ff" points="23.29,-29.73 23.1,-19.14 16.64,-27.54 23.29,-29.73"/>
</a>
</g>
</g>
<!-- Node17 -->
<g id="Node000017" class="node">
<title>Node17</title>
<g id="a_Node000017"><a xlink:title=" ">
<polygon fill="#e0e0e0" stroke="#999999" points="75.5,-90.5 29.5,-90.5 29.5,-71.5 75.5,-71.5 75.5,-90.5"/>
<text text-anchor="middle" x="52.5" y="-78.5" font-family="Helvetica,sans-Serif" font-size="10.00">cstdio</text>
</a>
</g>
</g>
<!-- Node16&#45;&gt;Node17 -->
<g id="edge19_Node000016_Node000017" class="edge">
<title>Node16&#45;&gt;Node17</title>
<g id="a_edge19_Node000016_Node000017"><a xlink:title=" ">
<path fill="none" stroke="#63b8ff" d="M83.21,-142.98C77.8,-132.24 68.38,-113.53 61.39,-99.66"/>
<polygon fill="#63b8ff" stroke="#63b8ff" points="64.45,-97.95 56.83,-90.59 58.2,-101.1 64.45,-97.95"/>
</a>
</g>
</g>
</g>
</svg>
