<?xml version="1.0" encoding="UTF-8" standalone="no"?>
<!DOCTYPE svg PUBLIC "-//W3C//DTD SVG 1.1//EN"
 "http://www.w3.org/Graphics/SVG/1.1/DTD/svg11.dtd">
<!-- Generated by graphviz version 2.43.0 (0)
 -->
<!-- Title: anonymous_namespace{Tmc9660Handler::cpp}::halDebugLog Pages: 1 -->
<svg width="458pt" height="175pt"
 viewBox="0.00 0.00 458.00 175.00" xmlns="http://www.w3.org/2000/svg" xmlns:xlink="http://www.w3.org/1999/xlink">
<g id="graph0" class="graph" transform="scale(1 1) rotate(0) translate(4 171)">
<title>anonymous_namespace{Tmc9660Handler::cpp}::halDebugLog</title>
<!-- Node1 -->
<g id="Node000001" class="node">
<title>Node1</title>
<g id="a_Node000001"><a xlink:title=" ">
<polygon fill="#999999" stroke="#666666" points="135,-104 0,-104 0,-63 135,-63 135,-104"/>
<text text-anchor="start" x="8" y="-92" font-family="Helvetica,sans-Serif" font-size="10.00">anonymous_namespace</text>
<text text-anchor="start" x="8" y="-81" font-family="Helvetica,sans-Serif" font-size="10.00">{Tmc9660Handler::cpp}</text>
<text text-anchor="middle" x="67.5" y="-70" font-family="Helvetica,sans-Serif" font-size="10.00">::halDebugLog</text>
</a>
</g>
</g>
<!-- Node2 -->
<g id="Node000002" class="node">
<title>Node2</title>
<g id="a_Node000002"><a xlink:href="classLogger.html#a9811dd7acd0992cdc9ed6c5125a3fe1d" target="_top" xlink:title="Log debug message.">
<polygon fill="white" stroke="#666666" points="271.5,-130 184.5,-130 184.5,-111 271.5,-111 271.5,-130"/>
<text text-anchor="middle" x="228" y="-118" font-family="Helvetica,sans-Serif" font-size="10.00">Logger::Debug</text>
</a>
</g>
</g>
<!-- Node1&#45;&gt;Node2 -->
<g id="edge1_Node000001_Node000002" class="edge">
<title>Node1&#45;&gt;Node2</title>
<g id="a_edge1_Node000001_Node000002"><a xlink:title=" ">
<path fill="none" stroke="#63b8ff" d="M135.26,-99.08C148.88,-102.26 163,-105.56 175.97,-108.59"/>
<polygon fill="#63b8ff" stroke="#63b8ff" points="175.55,-112.08 186.08,-110.95 177.14,-105.27 175.55,-112.08"/>
</a>
</g>
</g>
<!-- Node5 -->
<g id="Node000005" class="node">
<title>Node5</title>
<g id="a_Node000005"><a xlink:href="classLogger.html#a5e4bcdaea60b9ac227b564d780388769" target="_top" xlink:title="Log error message.">
<polygon fill="white" stroke="#666666" points="267.5,-93 188.5,-93 188.5,-74 267.5,-74 267.5,-93"/>
<text text-anchor="middle" x="228" y="-81" font-family="Helvetica,sans-Serif" font-size="10.00">Logger::Error</text>
</a>
</g>
</g>
<!-- Node1&#45;&gt;Node5 -->
<g id="edge4_Node000001_Node000005" class="edge">
<title>Node1&#45;&gt;Node5</title>
<g id="a_edge4_Node000001_Node000005"><a xlink:title=" ">
<path fill="none" stroke="#63b8ff" d="M135.26,-83.5C149.69,-83.5 164.68,-83.5 178.26,-83.5"/>
<polygon fill="#63b8ff" stroke="#63b8ff" points="178.34,-87 188.34,-83.5 178.34,-80 178.34,-87"/>
</a>
</g>
</g>
<!-- Node6 -->
<g id="Node000006" class="node">
<title>Node6</title>
<g id="a_Node000006"><a xlink:href="classLogger.html#a5789d11f8f1356e2192c0023a089cbc4" target="_top" xlink:title="Get singleton instance.">
<polygon fill="white" stroke="#666666" points="285,-19 171,-19 171,0 285,0 285,-19"/>
<text text-anchor="middle" x="228" y="-7" font-family="Helvetica,sans-Serif" font-size="10.00">Logger::GetInstance</text>
</a>
</g>
</g>
<!-- Node1&#45;&gt;Node6 -->
<g id="edge7_Node000001_Node000006" class="edge">
<title>Node1&#45;&gt;Node6</title>
<g id="a_edge7_Node000001_Node000006"><a xlink:title=" ">
<path fill="none" stroke="#63b8ff" d="M102.32,-62.91C121.92,-51.52 147.34,-37.66 171,-27.5 175.18,-25.71 179.6,-23.99 184.04,-22.38"/>
<polygon fill="#63b8ff" stroke="#63b8ff" points="185.43,-25.61 193.75,-19.04 183.15,-18.99 185.43,-25.61"/>
</a>
</g>
</g>
<!-- Node7 -->
<g id="Node000007" class="node">
<title>Node7</title>
<g id="a_Node000007"><a xlink:href="classLogger.html#a1c0c947d87884bca0395fd38d19d1102" target="_top" xlink:title="Log info message.">
<polygon fill="white" stroke="#666666" points="265,-56 191,-56 191,-37 265,-37 265,-56"/>
<text text-anchor="middle" x="228" y="-44" font-family="Helvetica,sans-Serif" font-size="10.00">Logger::Info</text>
</a>
</g>
</g>
<!-- Node1&#45;&gt;Node7 -->
<g id="edge8_Node000001_Node000007" class="edge">
<title>Node1&#45;&gt;Node7</title>
<g id="a_edge8_Node000001_Node000007"><a xlink:title=" ">
<path fill="none" stroke="#63b8ff" d="M135.26,-67.92C150.51,-64.36 166.39,-60.65 180.57,-57.34"/>
<polygon fill="#63b8ff" stroke="#63b8ff" points="181.62,-60.69 190.56,-55.01 180.03,-53.87 181.62,-60.69"/>
</a>
</g>
</g>
<!-- Node8 -->
<g id="Node000008" class="node">
<title>Node8</title>
<g id="a_Node000008"><a xlink:href="classLogger.html#a8c19c14724b0be1d2be63da4258c001a" target="_top" xlink:title="Log warning message.">
<polygon fill="white" stroke="#666666" points="268,-167 188,-167 188,-148 268,-148 268,-167"/>
<text text-anchor="middle" x="228" y="-155" font-family="Helvetica,sans-Serif" font-size="10.00">Logger::Warn</text>
</a>
</g>
</g>
<!-- Node1&#45;&gt;Node8 -->
<g id="edge11_Node000001_Node000008" class="edge">
<title>Node1&#45;&gt;Node8</title>
<g id="a_edge11_Node000001_Node000008"><a xlink:title=" ">
<path fill="none" stroke="#63b8ff" d="M102.32,-104.09C121.92,-115.48 147.34,-129.34 171,-139.5 175.18,-141.29 179.6,-143.01 184.04,-144.62"/>
<polygon fill="#63b8ff" stroke="#63b8ff" points="183.15,-148.01 193.75,-147.96 185.43,-141.39 183.15,-148.01"/>
</a>
</g>
</g>
<!-- Node3 -->
<g id="Node000003" class="node">
<title>Node3</title>
<g id="a_Node000003"><a xlink:href="classLogger.html#a737b981213c02321a5235848334d7191" target="_top" xlink:title="Check if log level is enabled for tag.">
<polygon fill="white" stroke="#666666" points="450,-130 321,-130 321,-111 450,-111 450,-130"/>
<text text-anchor="middle" x="385.5" y="-118" font-family="Helvetica,sans-Serif" font-size="10.00">Logger::IsLevelEnabled</text>
</a>
</g>
</g>
<!-- Node2&#45;&gt;Node3 -->
<g id="edge2_Node000002_Node000003" class="edge">
<title>Node2&#45;&gt;Node3</title>
<g id="a_edge2_Node000002_Node000003"><a xlink:title=" ">
<path fill="none" stroke="#63b8ff" d="M271.9,-120.5C283.94,-120.5 297.38,-120.5 310.66,-120.5"/>
<polygon fill="#63b8ff" stroke="#63b8ff" points="310.77,-124 320.77,-120.5 310.77,-117 310.77,-124"/>
</a>
</g>
</g>
<!-- Node4 -->
<g id="Node000004" class="node">
<title>Node4</title>
<g id="a_Node000004"><a xlink:href="classLogger.html#aeede6ac18db92a47caede076ef188a13" target="_top" xlink:title="Internal logging method.">
<polygon fill="white" stroke="#666666" points="440.5,-93 330.5,-93 330.5,-74 440.5,-74 440.5,-93"/>
<text text-anchor="middle" x="385.5" y="-81" font-family="Helvetica,sans-Serif" font-size="10.00">Logger::LogInternal</text>
</a>
</g>
</g>
<!-- Node2&#45;&gt;Node4 -->
<g id="edge3_Node000002_Node000004" class="edge">
<title>Node2&#45;&gt;Node4</title>
<g id="a_edge3_Node000002_Node000004"><a xlink:title=" ">
<path fill="none" stroke="#63b8ff" d="M269.05,-110.97C289.01,-106.22 313.35,-100.43 334.53,-95.39"/>
<polygon fill="#63b8ff" stroke="#63b8ff" points="335.4,-98.78 344.32,-93.06 333.78,-91.97 335.4,-98.78"/>
</a>
</g>
</g>
<!-- Node5&#45;&gt;Node3 -->
<g id="edge5_Node000005_Node000003" class="edge">
<title>Node5&#45;&gt;Node3</title>
<g id="a_edge5_Node000005_Node000003"><a xlink:title=" ">
<path fill="none" stroke="#63b8ff" d="M267.84,-92.74C288.03,-97.55 312.94,-103.47 334.55,-108.61"/>
<polygon fill="#63b8ff" stroke="#63b8ff" points="334,-112.08 344.53,-110.99 335.62,-105.27 334,-112.08"/>
</a>
</g>
</g>
<!-- Node5&#45;&gt;Node4 -->
<g id="edge6_Node000005_Node000004" class="edge">
<title>Node5&#45;&gt;Node4</title>
<g id="a_edge6_Node000005_Node000004"><a xlink:title=" ">
<path fill="none" stroke="#63b8ff" d="M267.84,-83.5C283.63,-83.5 302.31,-83.5 320.03,-83.5"/>
<polygon fill="#63b8ff" stroke="#63b8ff" points="320.33,-87 330.33,-83.5 320.33,-80 320.33,-87"/>
</a>
</g>
</g>
<!-- Node7&#45;&gt;Node3 -->
<g id="edge9_Node000007_Node000003" class="edge">
<title>Node7&#45;&gt;Node3</title>
<g id="a_edge9_Node000007_Node000003"><a xlink:title=" ">
<path fill="none" stroke="#63b8ff" d="M265.15,-55.17C272.02,-57.62 278.95,-60.69 285,-64.5 304.69,-76.89 301.1,-90.45 321,-102.5 323.79,-104.19 326.75,-105.73 329.8,-107.13"/>
<polygon fill="#63b8ff" stroke="#63b8ff" points="328.59,-110.41 339.17,-110.91 331.21,-103.92 328.59,-110.41"/>
</a>
</g>
</g>
<!-- Node7&#45;&gt;Node4 -->
<g id="edge10_Node000007_Node000004" class="edge">
<title>Node7&#45;&gt;Node4</title>
<g id="a_edge10_Node000007_Node000004"><a xlink:title=" ">
<path fill="none" stroke="#63b8ff" d="M265.07,-55.08C285.78,-60.01 312.09,-66.27 334.74,-71.66"/>
<polygon fill="#63b8ff" stroke="#63b8ff" points="333.99,-75.08 344.53,-73.99 335.61,-68.27 333.99,-75.08"/>
</a>
</g>
</g>
<!-- Node8&#45;&gt;Node3 -->
<g id="edge12_Node000008_Node000003" class="edge">
<title>Node8&#45;&gt;Node3</title>
<g id="a_edge12_Node000008_Node000003"><a xlink:title=" ">
<path fill="none" stroke="#63b8ff" d="M268.24,-148.16C288.36,-143.38 313.07,-137.5 334.54,-132.39"/>
<polygon fill="#63b8ff" stroke="#63b8ff" points="335.54,-135.75 344.46,-130.03 333.92,-128.94 335.54,-135.75"/>
</a>
</g>
</g>
<!-- Node8&#45;&gt;Node4 -->
<g id="edge13_Node000008_Node000004" class="edge">
<title>Node8&#45;&gt;Node4</title>
<g id="a_edge13_Node000008_Node000004"><a xlink:title=" ">
<path fill="none" stroke="#63b8ff" d="M267.47,-147.9C273.56,-145.61 279.62,-142.84 285,-139.5 304.5,-127.41 301.38,-114.39 321,-102.5 324.44,-100.41 328.13,-98.54 331.94,-96.86"/>
<polygon fill="#63b8ff" stroke="#63b8ff" points="333.52,-100 341.55,-93.09 330.96,-93.49 333.52,-100"/>
</a>
</g>
</g>
</g>
</svg>
