<?xml version="1.0" encoding="UTF-8" standalone="no"?>
<!DOCTYPE svg PUBLIC "-//W3C//DTD SVG 1.1//EN"
 "http://www.w3.org/Graphics/SVG/1.1/DTD/svg11.dtd">
<!-- Generated by graphviz version 2.43.0 (0)
 -->
<!-- Title: anonymous_namespace{Tmc9660Handler::cpp}::LogHexDump Pages: 1 -->
<svg width="313pt" height="134pt"
 viewBox="0.00 0.00 313.00 134.00" xmlns="http://www.w3.org/2000/svg" xmlns:xlink="http://www.w3.org/1999/xlink">
<g id="graph0" class="graph" transform="scale(1 1) rotate(0) translate(4 130)">
<title>anonymous_namespace{Tmc9660Handler::cpp}::LogHexDump</title>
<!-- Node1 -->
<g id="Node000001" class="node">
<title>Node1</title>
<g id="a_Node000001"><a xlink:title=" ">
<polygon fill="#999999" stroke="#666666" points="305,-83.5 170,-83.5 170,-42.5 305,-42.5 305,-83.5"/>
<text text-anchor="start" x="178" y="-71.5" font-family="Helvetica,sans-Serif" font-size="10.00">anonymous_namespace</text>
<text text-anchor="start" x="178" y="-60.5" font-family="Helvetica,sans-Serif" font-size="10.00">{Tmc9660Handler::cpp}</text>
<text text-anchor="middle" x="237.5" y="-49.5" font-family="Helvetica,sans-Serif" font-size="10.00">::LogHexDump</text>
</a>
</g>
</g>
<!-- Node2 -->
<g id="Node000002" class="node">
<title>Node2</title>
<g id="a_Node000002"><a xlink:href="classHalUartTmc9660Comm.html#a0df8ee2b226b44eb2e21728e4b7c44d7" target="_top" xlink:title="Receive a 9&#45;byte TMCL reply datagram over UART.">
<polygon fill="white" stroke="#666666" points="132.5,-126 1.5,-126 1.5,-96 132.5,-96 132.5,-126"/>
<text text-anchor="start" x="9.5" y="-114" font-family="Helvetica,sans-Serif" font-size="10.00">HalUartTmc9660Comm</text>
<text text-anchor="middle" x="67" y="-103" font-family="Helvetica,sans-Serif" font-size="10.00">::uartReceiveTMCL</text>
</a>
</g>
</g>
<!-- Node1&#45;&gt;Node2 -->
<g id="edge1_Node000001_Node000002" class="edge">
<title>Node1&#45;&gt;Node2</title>
<g id="a_edge1_Node000001_Node000002"><a xlink:title=" ">
<path fill="none" stroke="#63b8ff" d="M160.28,-84.71C146.97,-88.51 133.38,-92.37 120.88,-95.94"/>
<polygon fill="#63b8ff" stroke="#63b8ff" points="161.25,-88.08 169.9,-81.97 159.33,-81.34 161.25,-88.08"/>
</a>
</g>
</g>
<!-- Node3 -->
<g id="Node000003" class="node">
<title>Node3</title>
<g id="a_Node000003"><a xlink:href="classHalUartTmc9660Comm.html#a213dfdf5041d1d98372413b9cd3a9b53" target="_top" xlink:title="Send a 9&#45;byte TMCL datagram over UART.">
<polygon fill="white" stroke="#666666" points="132.5,-78 1.5,-78 1.5,-48 132.5,-48 132.5,-78"/>
<text text-anchor="start" x="9.5" y="-66" font-family="Helvetica,sans-Serif" font-size="10.00">HalUartTmc9660Comm</text>
<text text-anchor="middle" x="67" y="-55" font-family="Helvetica,sans-Serif" font-size="10.00">::uartSendTMCL</text>
</a>
</g>
</g>
<!-- Node1&#45;&gt;Node3 -->
<g id="edge2_Node000001_Node000003" class="edge">
<title>Node1&#45;&gt;Node3</title>
<g id="a_edge2_Node000001_Node000003"><a xlink:title=" ">
<path fill="none" stroke="#63b8ff" d="M159.77,-63C150.74,-63 141.58,-63 132.74,-63"/>
<polygon fill="#63b8ff" stroke="#63b8ff" points="159.9,-66.5 169.9,-63 159.9,-59.5 159.9,-66.5"/>
</a>
</g>
</g>
<!-- Node4 -->
<g id="Node000004" class="node">
<title>Node4</title>
<g id="a_Node000004"><a xlink:href="classHalUartTmc9660Comm.html#a044f4af1242b3fb2a9412523e575447a" target="_top" xlink:title="Perform an 8&#45;byte UART bootloader transfer (send + receive).">
<polygon fill="white" stroke="#666666" points="134,-30 0,-30 0,0 134,0 134,-30"/>
<text text-anchor="start" x="8" y="-18" font-family="Helvetica,sans-Serif" font-size="10.00">HalUartTmc9660Comm</text>
<text text-anchor="middle" x="67" y="-7" font-family="Helvetica,sans-Serif" font-size="10.00">::uartTransferBootloader</text>
</a>
</g>
</g>
<!-- Node1&#45;&gt;Node4 -->
<g id="edge3_Node000001_Node000004" class="edge">
<title>Node1&#45;&gt;Node4</title>
<g id="a_edge3_Node000001_Node000004"><a xlink:title=" ">
<path fill="none" stroke="#63b8ff" d="M160.28,-41.29C146.97,-37.49 133.38,-33.63 120.88,-30.06"/>
<polygon fill="#63b8ff" stroke="#63b8ff" points="159.33,-44.66 169.9,-44.03 161.25,-37.92 159.33,-44.66"/>
</a>
</g>
</g>
</g>
</svg>
