<?xml version="1.0" encoding="UTF-8" standalone="no"?>
<!DOCTYPE svg PUBLIC "-//W3C//DTD SVG 1.1//EN"
 "http://www.w3.org/Graphics/SVG/1.1/DTD/svg11.dtd">
<!-- Generated by graphviz version 2.43.0 (0)
 -->
<!-- Title: anonymous_namespace{AlicatBasis2Handler::cpp}::SetBitmap Pages: 1 -->
<svg width="307pt" height="86pt"
 viewBox="0.00 0.00 307.00 86.00" xmlns="http://www.w3.org/2000/svg" xmlns:xlink="http://www.w3.org/1999/xlink">
<g id="graph0" class="graph" transform="scale(1 1) rotate(0) translate(4 82)">
<title>anonymous_namespace{AlicatBasis2Handler::cpp}::SetBitmap</title>
<!-- Node1 -->
<g id="Node000001" class="node">
<title>Node1</title>
<g id="a_Node000001"><a xlink:title=" ">
<polygon fill="#999999" stroke="#666666" points="299,-59.5 164,-59.5 164,-18.5 299,-18.5 299,-59.5"/>
<text text-anchor="start" x="172" y="-47.5" font-family="Helvetica,sans-Serif" font-size="10.00">anonymous_namespace</text>
<text text-anchor="start" x="172" y="-36.5" font-family="Helvetica,sans-Serif" font-size="10.00">{AlicatBasis2Handler</text>
<text text-anchor="middle" x="231.5" y="-25.5" font-family="Helvetica,sans-Serif" font-size="10.00">::cpp}::SetBitmap</text>
</a>
</g>
</g>
<!-- Node1&#45;&gt;Node1 -->
<g id="edge3_Node000001_Node000001" class="edge">
<title>Node1&#45;&gt;Node1</title>
<g id="a_edge3_Node000001_Node000001"><a xlink:title=" ">
<path fill="none" stroke="#63b8ff" d="M260.06,-69.46C255.81,-74.24 246.29,-77.5 231.5,-77.5 207.83,-77.5 197.66,-69.15 200.99,-59.6"/>
<polygon fill="#63b8ff" stroke="#63b8ff" points="263.5,-70.09 262.01,-59.6 256.64,-68.73 263.5,-70.09"/>
</a>
</g>
</g>
<!-- Node2 -->
<g id="Node000002" class="node">
<title>Node2</title>
<g id="a_Node000002"><a xlink:href="classAlicatBasis2Handler.html#a4400773ddc1c5ede15d453b1d926120c" target="_top" xlink:title="Sweep multiple baud rates, returning every BASIS&#45;2 found on the bus along with the baud rate it answe...">
<polygon fill="white" stroke="#666666" points="128,-78 0,-78 0,-48 128,-48 128,-78"/>
<text text-anchor="start" x="8" y="-66" font-family="Helvetica,sans-Serif" font-size="10.00">AlicatBasis2Handler</text>
<text text-anchor="middle" x="64" y="-55" font-family="Helvetica,sans-Serif" font-size="10.00">::DiscoverAcrossBauds</text>
</a>
</g>
</g>
<!-- Node1&#45;&gt;Node2 -->
<g id="edge1_Node000001_Node000002" class="edge">
<title>Node1&#45;&gt;Node2</title>
<g id="a_edge1_Node000001_Node000002"><a xlink:title=" ">
<path fill="none" stroke="#63b8ff" d="M153.66,-50.14C145.09,-51.39 136.44,-52.64 128.07,-53.85"/>
<polygon fill="#63b8ff" stroke="#63b8ff" points="154.27,-53.59 163.66,-48.69 153.26,-46.66 154.27,-53.59"/>
</a>
</g>
</g>
<!-- Node3 -->
<g id="Node000003" class="node">
<title>Node3</title>
<g id="a_Node000003"><a xlink:href="classAlicatBasis2Handler.html#acd0909cb398b2b50a90f161bd3b805d0" target="_top" xlink:title="Normalise every device on the bus to the same baud rate.">
<polygon fill="white" stroke="#666666" points="122,-30 6,-30 6,0 122,0 122,-30"/>
<text text-anchor="start" x="14" y="-18" font-family="Helvetica,sans-Serif" font-size="10.00">AlicatBasis2Handler</text>
<text text-anchor="middle" x="64" y="-7" font-family="Helvetica,sans-Serif" font-size="10.00">::NormalizeBusBaud</text>
</a>
</g>
</g>
<!-- Node1&#45;&gt;Node3 -->
<g id="edge2_Node000001_Node000003" class="edge">
<title>Node1&#45;&gt;Node3</title>
<g id="a_edge2_Node000001_Node000003"><a xlink:title=" ">
<path fill="none" stroke="#63b8ff" d="M153.6,-27.85C143.05,-26.32 132.37,-24.77 122.25,-23.3"/>
<polygon fill="#63b8ff" stroke="#63b8ff" points="153.26,-31.34 163.66,-29.31 154.27,-24.41 153.26,-31.34"/>
</a>
</g>
</g>
</g>
</svg>
