<?xml version="1.0" encoding="UTF-8" standalone="no"?>
<!DOCTYPE svg PUBLIC "-//W3C//DTD SVG 1.1//EN"
 "http://www.w3.org/Graphics/SVG/1.1/DTD/svg11.dtd">
<!-- Generated by graphviz version 2.43.0 (0)
 -->
<!-- Title: Pca9685Handler.h Pages: 1 -->
<svg width="872pt" height="104pt"
 viewBox="0.00 0.00 872.00 104.00" xmlns="http://www.w3.org/2000/svg" xmlns:xlink="http://www.w3.org/1999/xlink">
<g id="graph0" class="graph" transform="scale(1 1) rotate(0) translate(4 100)">
<title>Pca9685Handler.h</title>
<!-- Node1 -->
<g id="Node000001" class="node">
<title>Node1</title>
<g id="a_Node000001"><a xlink:title="Unified handler for the PCA9685 16&#45;channel 12&#45;bit PWM controller.">
<polygon fill="#999999" stroke="#666666" points="371,-96 267,-96 267,-77 371,-77 371,-96"/>
<text text-anchor="middle" x="319" y="-84" font-family="Helvetica,sans-Serif" font-size="10.00">Pca9685Handler.h</text>
</a>
</g>
</g>
<!-- Node2 -->
<g id="Node000002" class="node">
<title>Node2</title>
<g id="a_Node000002"><a xlink:title=" ">
<polygon fill="#e0e0e0" stroke="#999999" points="50,-30 0,-30 0,-11 50,-11 50,-30"/>
<text text-anchor="middle" x="25" y="-18" font-family="Helvetica,sans-Serif" font-size="10.00">cstdint</text>
</a>
</g>
</g>
<!-- Node1&#45;&gt;Node2 -->
<g id="edge1_Node000001_Node000002" class="edge">
<title>Node1&#45;&gt;Node2</title>
<g id="a_edge1_Node000001_Node000002"><a xlink:title=" ">
<path fill="none" stroke="#63b8ff" d="M266.82,-81.97C213.33,-77.11 128.38,-65.94 59,-41 54.75,-39.47 50.42,-37.43 46.33,-35.23"/>
<polygon fill="#63b8ff" stroke="#63b8ff" points="47.8,-32.04 37.4,-30.02 44.28,-38.08 47.8,-32.04"/>
</a>
</g>
</g>
<!-- Node3 -->
<g id="Node000003" class="node">
<title>Node3</title>
<g id="a_Node000003"><a xlink:title=" ">
<polygon fill="#e0e0e0" stroke="#999999" points="126,-30 68,-30 68,-11 126,-11 126,-30"/>
<text text-anchor="middle" x="97" y="-18" font-family="Helvetica,sans-Serif" font-size="10.00">memory</text>
</a>
</g>
</g>
<!-- Node1&#45;&gt;Node3 -->
<g id="edge2_Node000001_Node000003" class="edge">
<title>Node1&#45;&gt;Node3</title>
<g id="a_edge2_Node000001_Node000003"><a xlink:title=" ">
<path fill="none" stroke="#63b8ff" d="M270.03,-76.94C232.4,-69.58 179.52,-57.54 135,-41 130.3,-39.25 125.42,-37.07 120.8,-34.79"/>
<polygon fill="#63b8ff" stroke="#63b8ff" points="122.28,-31.62 111.79,-30.13 119.06,-37.83 122.28,-31.62"/>
</a>
</g>
</g>
<!-- Node4 -->
<g id="Node000004" class="node">
<title>Node4</title>
<g id="a_Node000004"><a xlink:title=" ">
<polygon fill="#e0e0e0" stroke="#999999" points="186,-30 144,-30 144,-11 186,-11 186,-30"/>
<text text-anchor="middle" x="165" y="-18" font-family="Helvetica,sans-Serif" font-size="10.00">array</text>
</a>
</g>
</g>
<!-- Node1&#45;&gt;Node4 -->
<g id="edge3_Node000001_Node000004" class="edge">
<title>Node1&#45;&gt;Node4</title>
<g id="a_edge3_Node000001_Node000004"><a xlink:title=" ">
<path fill="none" stroke="#63b8ff" d="M289.15,-76.93C263.52,-69.07 225.94,-56.35 195,-41 191.79,-39.41 188.5,-37.54 185.33,-35.6"/>
<polygon fill="#63b8ff" stroke="#63b8ff" points="187.18,-32.63 176.88,-30.13 183.37,-38.51 187.18,-32.63"/>
</a>
</g>
</g>
<!-- Node5 -->
<g id="Node000005" class="node">
<title>Node5</title>
<g id="a_Node000005"><a xlink:title=" ">
<polygon fill="#e0e0e0" stroke="#999999" points="251.5,-30 204.5,-30 204.5,-11 251.5,-11 251.5,-30"/>
<text text-anchor="middle" x="228" y="-18" font-family="Helvetica,sans-Serif" font-size="10.00">cmath</text>
</a>
</g>
</g>
<!-- Node1&#45;&gt;Node5 -->
<g id="edge4_Node000001_Node000005" class="edge">
<title>Node1&#45;&gt;Node5</title>
<g id="a_edge4_Node000001_Node000005"><a xlink:title=" ">
<path fill="none" stroke="#63b8ff" d="M306.73,-76.87C291.94,-66.47 266.85,-48.82 248.97,-36.25"/>
<polygon fill="#63b8ff" stroke="#63b8ff" points="250.56,-33.09 240.37,-30.2 246.54,-38.81 250.56,-33.09"/>
</a>
</g>
</g>
<!-- Node6 -->
<g id="Node000006" class="node">
<title>Node6</title>
<g id="a_Node000006"><a xlink:title=" ">
<polygon fill="#e0e0e0" stroke="#999999" points="368,-30 270,-30 270,-11 368,-11 368,-30"/>
<text text-anchor="middle" x="319" y="-18" font-family="Helvetica,sans-Serif" font-size="10.00">base/BaseGpio.h</text>
</a>
</g>
</g>
<!-- Node1&#45;&gt;Node6 -->
<g id="edge5_Node000001_Node000006" class="edge">
<title>Node1&#45;&gt;Node6</title>
<g id="a_edge5_Node000001_Node000006"><a xlink:title=" ">
<path fill="none" stroke="#63b8ff" d="M319,-76.87C319,-67.66 319,-52.79 319,-40.77"/>
<polygon fill="#63b8ff" stroke="#63b8ff" points="322.5,-40.41 319,-30.41 315.5,-40.41 322.5,-40.41"/>
</a>
</g>
</g>
<!-- Node7 -->
<g id="Node000007" class="node">
<title>Node7</title>
<g id="a_Node000007"><a xlink:title=" ">
<polygon fill="#e0e0e0" stroke="#999999" points="486,-30 386,-30 386,-11 486,-11 486,-30"/>
<text text-anchor="middle" x="436" y="-18" font-family="Helvetica,sans-Serif" font-size="10.00">base/BasePwm.h</text>
</a>
</g>
</g>
<!-- Node1&#45;&gt;Node7 -->
<g id="edge6_Node000001_Node000007" class="edge">
<title>Node1&#45;&gt;Node7</title>
<g id="a_edge6_Node000001_Node000007"><a xlink:title=" ">
<path fill="none" stroke="#63b8ff" d="M334.78,-76.87C354.41,-66.13 388.14,-47.68 411.23,-35.05"/>
<polygon fill="#63b8ff" stroke="#63b8ff" points="413,-38.07 420.1,-30.2 409.64,-31.93 413,-38.07"/>
</a>
</g>
</g>
<!-- Node8 -->
<g id="Node000008" class="node">
<title>Node8</title>
<g id="a_Node000008"><a xlink:title=" ">
<polygon fill="#e0e0e0" stroke="#999999" points="594,-30 504,-30 504,-11 594,-11 594,-30"/>
<text text-anchor="middle" x="549" y="-18" font-family="Helvetica,sans-Serif" font-size="10.00">base/BaseI2c.h</text>
</a>
</g>
</g>
<!-- Node1&#45;&gt;Node8 -->
<g id="edge7_Node000001_Node000008" class="edge">
<title>Node1&#45;&gt;Node8</title>
<g id="a_edge7_Node000001_Node000008"><a xlink:title=" ">
<path fill="none" stroke="#63b8ff" d="M357.41,-76.94C393.27,-68.68 448.14,-55.35 495,-41 502.27,-38.77 510.01,-36.14 517.28,-33.54"/>
<polygon fill="#63b8ff" stroke="#63b8ff" points="518.64,-36.78 526.83,-30.06 516.24,-30.2 518.64,-36.78"/>
</a>
</g>
</g>
<!-- Node9 -->
<g id="Node000009" class="node">
<title>Node9</title>
<g id="a_Node000009"><a xlink:title=" ">
<polygon fill="#e0e0e0" stroke="#999999" points="743.5,-41 612.5,-41 612.5,0 743.5,0 743.5,-41"/>
<text text-anchor="start" x="620.5" y="-29" font-family="Helvetica,sans-Serif" font-size="10.00">core/hf&#45;core&#45;drivers</text>
<text text-anchor="start" x="620.5" y="-18" font-family="Helvetica,sans-Serif" font-size="10.00">/external/hf&#45;pca9685</text>
<text text-anchor="middle" x="678" y="-7" font-family="Helvetica,sans-Serif" font-size="10.00">&#45;driver/inc/pca9685.hpp</text>
</a>
</g>
</g>
<!-- Node1&#45;&gt;Node9 -->
<g id="edge8_Node000001_Node000009" class="edge">
<title>Node1&#45;&gt;Node9</title>
<g id="a_edge8_Node000001_Node000009"><a xlink:title=" ">
<path fill="none" stroke="#63b8ff" d="M371.1,-78.91C426.15,-71.6 515.67,-58.71 602.24,-41.05"/>
<polygon fill="#63b8ff" stroke="#63b8ff" points="603.15,-44.44 612.24,-38.99 601.74,-37.58 603.15,-44.44"/>
</a>
</g>
</g>
<!-- Node10 -->
<g id="Node000010" class="node">
<title>Node10</title>
<g id="a_Node000010"><a xlink:title=" ">
<polygon fill="#e0e0e0" stroke="#999999" points="864,-30 762,-30 762,-11 864,-11 864,-30"/>
<text text-anchor="middle" x="813" y="-18" font-family="Helvetica,sans-Serif" font-size="10.00">utils/RtosMutex.h</text>
</a>
</g>
</g>
<!-- Node1&#45;&gt;Node10 -->
<g id="edge9_Node000001_Node000010" class="edge">
<title>Node1&#45;&gt;Node10</title>
<g id="a_edge9_Node000001_Node000010"><a xlink:title=" ">
<path fill="none" stroke="#63b8ff" d="M371.33,-83.71C453.44,-80.11 617.2,-69.69 753,-41 762.19,-39.06 771.95,-36.23 780.87,-33.33"/>
<polygon fill="#63b8ff" stroke="#63b8ff" points="782.17,-36.59 790.52,-30.06 779.92,-29.96 782.17,-36.59"/>
</a>
</g>
</g>
</g>
</svg>
