<?xml version="1.0" encoding="UTF-8" standalone="no"?>
<!DOCTYPE svg PUBLIC "-//W3C//DTD SVG 1.1//EN"
 "http://www.w3.org/Graphics/SVG/1.1/DTD/svg11.dtd">
<!-- Generated by graphviz version 2.43.0 (0)
 -->
<!-- Title: Pcal95555Handler.h Pages: 1 -->
<svg width="824pt" height="104pt"
 viewBox="0.00 0.00 824.00 104.00" xmlns="http://www.w3.org/2000/svg" xmlns:xlink="http://www.w3.org/1999/xlink">
<g id="graph0" class="graph" transform="scale(1 1) rotate(0) translate(4 100)">
<title>Pcal95555Handler.h</title>
<!-- Node1 -->
<g id="Node000001" class="node">
<title>Node1</title>
<g id="a_Node000001"><a xlink:title="Unified handler for the PCA9555 / PCAL9555A 16&#45;bit I2C GPIO expander.">
<polygon fill="#999999" stroke="#666666" points="361.5,-96 248.5,-96 248.5,-77 361.5,-77 361.5,-96"/>
<text text-anchor="middle" x="305" y="-84" font-family="Helvetica,sans-Serif" font-size="10.00">Pcal95555Handler.h</text>
</a>
</g>
</g>
<!-- Node2 -->
<g id="Node000002" class="node">
<title>Node2</title>
<g id="a_Node000002"><a xlink:title=" ">
<polygon fill="#e0e0e0" stroke="#999999" points="50,-30 0,-30 0,-11 50,-11 50,-30"/>
<text text-anchor="middle" x="25" y="-18" font-family="Helvetica,sans-Serif" font-size="10.00">atomic</text>
</a>
</g>
</g>
<!-- Node1&#45;&gt;Node2 -->
<g id="edge1_Node000001_Node000002" class="edge">
<title>Node1&#45;&gt;Node2</title>
<g id="a_edge1_Node000001_Node000002"><a xlink:title=" ">
<path fill="none" stroke="#63b8ff" d="M248.37,-80.79C197.56,-75.28 121.59,-63.83 59,-41 54.83,-39.48 50.58,-37.47 46.55,-35.31"/>
<polygon fill="#63b8ff" stroke="#63b8ff" points="48.14,-32.18 37.73,-30.19 44.62,-38.24 48.14,-32.18"/>
</a>
</g>
</g>
<!-- Node3 -->
<g id="Node000003" class="node">
<title>Node3</title>
<g id="a_Node000003"><a xlink:title=" ">
<polygon fill="#e0e0e0" stroke="#999999" points="118,-30 68,-30 68,-11 118,-11 118,-30"/>
<text text-anchor="middle" x="93" y="-18" font-family="Helvetica,sans-Serif" font-size="10.00">cstdint</text>
</a>
</g>
</g>
<!-- Node1&#45;&gt;Node3 -->
<g id="edge2_Node000001_Node000003" class="edge">
<title>Node1&#45;&gt;Node3</title>
<g id="a_edge2_Node000001_Node000003"><a xlink:title=" ">
<path fill="none" stroke="#63b8ff" d="M255.5,-76.94C219.14,-69.74 168.96,-57.9 127,-41 122.95,-39.37 118.8,-37.33 114.85,-35.2"/>
<polygon fill="#63b8ff" stroke="#63b8ff" points="116.55,-32.13 106.14,-30.17 113.05,-38.2 116.55,-32.13"/>
</a>
</g>
</g>
<!-- Node4 -->
<g id="Node000004" class="node">
<title>Node4</title>
<g id="a_Node000004"><a xlink:title=" ">
<polygon fill="#e0e0e0" stroke="#999999" points="194,-30 136,-30 136,-11 194,-11 194,-30"/>
<text text-anchor="middle" x="165" y="-18" font-family="Helvetica,sans-Serif" font-size="10.00">memory</text>
</a>
</g>
</g>
<!-- Node1&#45;&gt;Node4 -->
<g id="edge3_Node000001_Node000004" class="edge">
<title>Node1&#45;&gt;Node4</title>
<g id="a_edge3_Node000001_Node000004"><a xlink:title=" ">
<path fill="none" stroke="#63b8ff" d="M284.12,-76.84C263.38,-68.14 230.76,-54.16 203,-41 198.82,-39.02 194.41,-36.84 190.15,-34.68"/>
<polygon fill="#63b8ff" stroke="#63b8ff" points="191.66,-31.53 181.16,-30.08 188.46,-37.75 191.66,-31.53"/>
</a>
</g>
</g>
<!-- Node5 -->
<g id="Node000005" class="node">
<title>Node5</title>
<g id="a_Node000005"><a xlink:title=" ">
<polygon fill="#e0e0e0" stroke="#999999" points="254,-30 212,-30 212,-11 254,-11 254,-30"/>
<text text-anchor="middle" x="233" y="-18" font-family="Helvetica,sans-Serif" font-size="10.00">array</text>
</a>
</g>
</g>
<!-- Node1&#45;&gt;Node5 -->
<g id="edge4_Node000001_Node000005" class="edge">
<title>Node1&#45;&gt;Node5</title>
<g id="a_edge4_Node000001_Node000005"><a xlink:title=" ">
<path fill="none" stroke="#63b8ff" d="M295.29,-76.87C283.87,-66.71 264.68,-49.66 250.61,-37.15"/>
<polygon fill="#63b8ff" stroke="#63b8ff" points="252.82,-34.43 243.02,-30.41 248.17,-39.66 252.82,-34.43"/>
</a>
</g>
</g>
<!-- Node6 -->
<g id="Node000006" class="node">
<title>Node6</title>
<g id="a_Node000006"><a xlink:title=" ">
<polygon fill="#e0e0e0" stroke="#999999" points="337.5,-30 272.5,-30 272.5,-11 337.5,-11 337.5,-30"/>
<text text-anchor="middle" x="305" y="-18" font-family="Helvetica,sans-Serif" font-size="10.00">functional</text>
</a>
</g>
</g>
<!-- Node1&#45;&gt;Node6 -->
<g id="edge5_Node000001_Node000006" class="edge">
<title>Node1&#45;&gt;Node6</title>
<g id="a_edge5_Node000001_Node000006"><a xlink:title=" ">
<path fill="none" stroke="#63b8ff" d="M305,-76.87C305,-67.66 305,-52.79 305,-40.77"/>
<polygon fill="#63b8ff" stroke="#63b8ff" points="308.5,-40.41 305,-30.41 301.5,-40.41 308.5,-40.41"/>
</a>
</g>
</g>
<!-- Node7 -->
<g id="Node000007" class="node">
<title>Node7</title>
<g id="a_Node000007"><a xlink:title=" ">
<polygon fill="#e0e0e0" stroke="#999999" points="454,-30 356,-30 356,-11 454,-11 454,-30"/>
<text text-anchor="middle" x="405" y="-18" font-family="Helvetica,sans-Serif" font-size="10.00">base/BaseGpio.h</text>
</a>
</g>
</g>
<!-- Node1&#45;&gt;Node7 -->
<g id="edge6_Node000001_Node000007" class="edge">
<title>Node1&#45;&gt;Node7</title>
<g id="a_edge6_Node000001_Node000007"><a xlink:title=" ">
<path fill="none" stroke="#63b8ff" d="M318.49,-76.87C334.96,-66.32 363.07,-48.34 382.76,-35.73"/>
<polygon fill="#63b8ff" stroke="#63b8ff" points="384.87,-38.54 391.41,-30.2 381.1,-32.64 384.87,-38.54"/>
</a>
</g>
</g>
<!-- Node8 -->
<g id="Node000008" class="node">
<title>Node8</title>
<g id="a_Node000008"><a xlink:title=" ">
<polygon fill="#e0e0e0" stroke="#999999" points="562,-30 472,-30 472,-11 562,-11 562,-30"/>
<text text-anchor="middle" x="517" y="-18" font-family="Helvetica,sans-Serif" font-size="10.00">base/BaseI2c.h</text>
</a>
</g>
</g>
<!-- Node1&#45;&gt;Node8 -->
<g id="edge7_Node000001_Node000008" class="edge">
<title>Node1&#45;&gt;Node8</title>
<g id="a_edge7_Node000001_Node000008"><a xlink:title=" ">
<path fill="none" stroke="#63b8ff" d="M337.89,-76.98C369.99,-68.48 420.13,-54.76 463,-41 470.18,-38.7 477.83,-36.05 485.04,-33.47"/>
<polygon fill="#63b8ff" stroke="#63b8ff" points="486.32,-36.73 494.53,-30.02 483.94,-30.15 486.32,-36.73"/>
</a>
</g>
</g>
<!-- Node9 -->
<g id="Node000009" class="node">
<title>Node9</title>
<g id="a_Node000009"><a xlink:title=" ">
<polygon fill="#e0e0e0" stroke="#999999" points="720,-41 580,-41 580,0 720,0 720,-41"/>
<text text-anchor="start" x="588" y="-29" font-family="Helvetica,sans-Serif" font-size="10.00">core/hf&#45;core&#45;drivers</text>
<text text-anchor="start" x="588" y="-18" font-family="Helvetica,sans-Serif" font-size="10.00">/external/hf&#45;pcal95555</text>
<text text-anchor="middle" x="650" y="-7" font-family="Helvetica,sans-Serif" font-size="10.00">&#45;driver/inc/pcal95555.hpp</text>
</a>
</g>
</g>
<!-- Node1&#45;&gt;Node9 -->
<g id="edge8_Node000001_Node000009" class="edge">
<title>Node1&#45;&gt;Node9</title>
<g id="a_edge8_Node000001_Node000009"><a xlink:title=" ">
<path fill="none" stroke="#63b8ff" d="M361.53,-77.32C413.33,-69.54 492.32,-56.95 569.91,-41.15"/>
<polygon fill="#63b8ff" stroke="#63b8ff" points="570.76,-44.55 579.85,-39.11 569.35,-37.69 570.76,-44.55"/>
</a>
</g>
</g>
<!-- Node10 -->
<g id="Node000010" class="node">
<title>Node10</title>
<g id="a_Node000010"><a xlink:title=" ">
<polygon fill="#e0e0e0" stroke="#999999" points="816,-30 738,-30 738,-11 816,-11 816,-30"/>
<text text-anchor="middle" x="777" y="-18" font-family="Helvetica,sans-Serif" font-size="10.00">RtosMutex.h</text>
</a>
</g>
</g>
<!-- Node1&#45;&gt;Node10 -->
<g id="edge9_Node000001_Node000010" class="edge">
<title>Node1&#45;&gt;Node10</title>
<g id="a_edge9_Node000001_Node000010"><a xlink:title=" ">
<path fill="none" stroke="#63b8ff" d="M361.77,-84.58C443.95,-82.13 600.3,-73.21 729,-41 735.92,-39.27 743.15,-36.74 749.85,-34.07"/>
<polygon fill="#63b8ff" stroke="#63b8ff" points="751.31,-37.25 759.17,-30.14 748.59,-30.8 751.31,-37.25"/>
</a>
</g>
</g>
</g>
</svg>
