<?xml version="1.0" encoding="UTF-8" standalone="no"?>
<!DOCTYPE svg PUBLIC "-//W3C//DTD SVG 1.1//EN"
 "http://www.w3.org/Graphics/SVG/1.1/DTD/svg11.dtd">
<!-- Generated by graphviz version 2.43.0 (0)
 -->
<!-- Title: Pcal95555Handler.cpp Pages: 1 -->
<svg width="1050pt" height="159pt"
 viewBox="0.00 0.00 1050.00 159.00" xmlns="http://www.w3.org/2000/svg" xmlns:xlink="http://www.w3.org/1999/xlink">
<g id="graph0" class="graph" transform="scale(1 1) rotate(0) translate(4 155)">
<title>Pcal95555Handler.cpp</title>
<!-- Node1 -->
<g id="Node000001" class="node">
<title>Node1</title>
<g id="a_Node000001"><a xlink:title="Implementation of the PCAL95555 GPIO expander handler.">
<polygon fill="#999999" stroke="#666666" points="224.5,-151 99.5,-151 99.5,-132 224.5,-132 224.5,-151"/>
<text text-anchor="middle" x="162" y="-139" font-family="Helvetica,sans-Serif" font-size="10.00">Pcal95555Handler.cpp</text>
</a>
</g>
</g>
<!-- Node2 -->
<g id="Node000002" class="node">
<title>Node2</title>
<g id="a_Node000002"><a xlink:href="Pcal95555Handler_8h.html" target="_top" xlink:title="Unified handler for the PCA9555 / PCAL9555A 16&#45;bit I2C GPIO expander.">
<polygon fill="white" stroke="#666666" points="545.5,-96 432.5,-96 432.5,-77 545.5,-77 545.5,-96"/>
<text text-anchor="middle" x="489" y="-84" font-family="Helvetica,sans-Serif" font-size="10.00">Pcal95555Handler.h</text>
</a>
</g>
</g>
<!-- Node1&#45;&gt;Node2 -->
<g id="edge1_Node000001_Node000002" class="edge">
<title>Node1&#45;&gt;Node2</title>
<g id="a_edge1_Node000001_Node000002"><a xlink:title=" ">
<path fill="none" stroke="#63b8ff" d="M214.54,-131.98C272.26,-122.63 364.91,-107.61 426.36,-97.65"/>
<polygon fill="#63b8ff" stroke="#63b8ff" points="427.01,-101.09 436.32,-96.04 425.89,-94.18 427.01,-101.09"/>
</a>
</g>
</g>
<!-- Node12 -->
<g id="Node000012" class="node">
<title>Node12</title>
<g id="a_Node000012"><a xlink:href="Logger_8h.html" target="_top" xlink:title="Advanced logging system with formatting capabilities.">
<polygon fill="white" stroke="#666666" points="230.5,-96 93.5,-96 93.5,-77 230.5,-77 230.5,-96"/>
<text text-anchor="middle" x="162" y="-84" font-family="Helvetica,sans-Serif" font-size="10.00">handlers/logger/Logger.h</text>
</a>
</g>
</g>
<!-- Node1&#45;&gt;Node12 -->
<g id="edge11_Node000001_Node000012" class="edge">
<title>Node1&#45;&gt;Node12</title>
<g id="a_edge11_Node000001_Node000012"><a xlink:title=" ">
<path fill="none" stroke="#63b8ff" d="M162,-131.75C162,-124.8 162,-114.85 162,-106.13"/>
<polygon fill="#63b8ff" stroke="#63b8ff" points="165.5,-106.09 162,-96.09 158.5,-106.09 165.5,-106.09"/>
</a>
</g>
</g>
<!-- Node14 -->
<g id="Node000014" class="node">
<title>Node14</title>
<g id="a_Node000014"><a xlink:title=" ">
<polygon fill="#e0e0e0" stroke="#999999" points="50,-30 0,-30 0,-11 50,-11 50,-30"/>
<text text-anchor="middle" x="25" y="-18" font-family="Helvetica,sans-Serif" font-size="10.00">cstring</text>
</a>
</g>
</g>
<!-- Node1&#45;&gt;Node14 -->
<g id="edge17_Node000001_Node000014" class="edge">
<title>Node1&#45;&gt;Node14</title>
<g id="a_edge17_Node000001_Node000014"><a xlink:title=" ">
<path fill="none" stroke="#63b8ff" d="M142.41,-131.92C125.79,-124.07 101.86,-111.34 84,-96 64.33,-79.1 46.58,-54.88 35.8,-38.69"/>
<polygon fill="#63b8ff" stroke="#63b8ff" points="38.67,-36.69 30.3,-30.2 32.8,-40.49 38.67,-36.69"/>
</a>
</g>
</g>
<!-- Node3 -->
<g id="Node000003" class="node">
<title>Node3</title>
<g id="a_Node000003"><a xlink:title=" ">
<polygon fill="#e0e0e0" stroke="#999999" points="252,-30 202,-30 202,-11 252,-11 252,-30"/>
<text text-anchor="middle" x="227" y="-18" font-family="Helvetica,sans-Serif" font-size="10.00">atomic</text>
</a>
</g>
</g>
<!-- Node2&#45;&gt;Node3 -->
<g id="edge2_Node000002_Node000003" class="edge">
<title>Node2&#45;&gt;Node3</title>
<g id="a_edge2_Node000002_Node000003"><a xlink:title=" ">
<path fill="none" stroke="#63b8ff" d="M432.31,-79.67C385.31,-73.62 317.31,-61.99 261,-41 256.84,-39.45 252.59,-37.42 248.57,-35.26"/>
<polygon fill="#63b8ff" stroke="#63b8ff" points="250.15,-32.14 239.75,-30.14 246.64,-38.19 250.15,-32.14"/>
</a>
</g>
</g>
<!-- Node4 -->
<g id="Node000004" class="node">
<title>Node4</title>
<g id="a_Node000004"><a xlink:title=" ">
<polygon fill="#e0e0e0" stroke="#999999" points="1042,-30 992,-30 992,-11 1042,-11 1042,-30"/>
<text text-anchor="middle" x="1017" y="-18" font-family="Helvetica,sans-Serif" font-size="10.00">cstdint</text>
</a>
</g>
</g>
<!-- Node2&#45;&gt;Node4 -->
<g id="edge3_Node000002_Node000004" class="edge">
<title>Node2&#45;&gt;Node4</title>
<g id="a_edge3_Node000002_Node000004"><a xlink:title=" ">
<path fill="none" stroke="#63b8ff" d="M545.71,-83.44C657.58,-78.88 902.82,-66.27 983,-41 987.5,-39.58 992.06,-37.5 996.32,-35.22"/>
<polygon fill="#63b8ff" stroke="#63b8ff" points="998.17,-38.19 1005,-30.08 994.61,-32.16 998.17,-38.19"/>
</a>
</g>
</g>
<!-- Node5 -->
<g id="Node000005" class="node">
<title>Node5</title>
<g id="a_Node000005"><a xlink:title=" ">
<polygon fill="#e0e0e0" stroke="#999999" points="328,-30 270,-30 270,-11 328,-11 328,-30"/>
<text text-anchor="middle" x="299" y="-18" font-family="Helvetica,sans-Serif" font-size="10.00">memory</text>
</a>
</g>
</g>
<!-- Node2&#45;&gt;Node5 -->
<g id="edge4_Node000002_Node000005" class="edge">
<title>Node2&#45;&gt;Node5</title>
<g id="a_edge4_Node000002_Node000005"><a xlink:title=" ">
<path fill="none" stroke="#63b8ff" d="M452.73,-76.94C421.52,-69.1 375.57,-56.38 337,-41 332.42,-39.17 327.65,-36.98 323.11,-34.73"/>
<polygon fill="#63b8ff" stroke="#63b8ff" points="324.71,-31.62 314.22,-30.15 321.5,-37.84 324.71,-31.62"/>
</a>
</g>
</g>
<!-- Node6 -->
<g id="Node000006" class="node">
<title>Node6</title>
<g id="a_Node000006"><a xlink:title=" ">
<polygon fill="#e0e0e0" stroke="#999999" points="388,-30 346,-30 346,-11 388,-11 388,-30"/>
<text text-anchor="middle" x="367" y="-18" font-family="Helvetica,sans-Serif" font-size="10.00">array</text>
</a>
</g>
</g>
<!-- Node2&#45;&gt;Node6 -->
<g id="edge5_Node000002_Node000006" class="edge">
<title>Node2&#45;&gt;Node6</title>
<g id="a_edge5_Node000002_Node000006"><a xlink:title=" ">
<path fill="none" stroke="#63b8ff" d="M469.88,-76.87C451.25,-68.3 422.28,-54.52 398,-41 395,-39.33 391.89,-37.5 388.84,-35.64"/>
<polygon fill="#63b8ff" stroke="#63b8ff" points="390.42,-32.5 380.09,-30.17 386.71,-38.44 390.42,-32.5"/>
</a>
</g>
</g>
<!-- Node7 -->
<g id="Node000007" class="node">
<title>Node7</title>
<g id="a_Node000007"><a xlink:title=" ">
<polygon fill="#e0e0e0" stroke="#999999" points="471.5,-30 406.5,-30 406.5,-11 471.5,-11 471.5,-30"/>
<text text-anchor="middle" x="439" y="-18" font-family="Helvetica,sans-Serif" font-size="10.00">functional</text>
</a>
</g>
</g>
<!-- Node2&#45;&gt;Node7 -->
<g id="edge6_Node000002_Node000007" class="edge">
<title>Node2&#45;&gt;Node7</title>
<g id="a_edge6_Node000002_Node000007"><a xlink:title=" ">
<path fill="none" stroke="#63b8ff" d="M482.26,-76.87C474.62,-67.09 461.99,-50.92 452.34,-38.58"/>
<polygon fill="#63b8ff" stroke="#63b8ff" points="454.87,-36.13 445.96,-30.41 449.36,-40.44 454.87,-36.13"/>
</a>
</g>
</g>
<!-- Node8 -->
<g id="Node000008" class="node">
<title>Node8</title>
<g id="a_Node000008"><a xlink:title=" ">
<polygon fill="#e0e0e0" stroke="#999999" points="588,-30 490,-30 490,-11 588,-11 588,-30"/>
<text text-anchor="middle" x="539" y="-18" font-family="Helvetica,sans-Serif" font-size="10.00">base/BaseGpio.h</text>
</a>
</g>
</g>
<!-- Node2&#45;&gt;Node8 -->
<g id="edge7_Node000002_Node000008" class="edge">
<title>Node2&#45;&gt;Node8</title>
<g id="a_edge7_Node000002_Node000008"><a xlink:title=" ">
<path fill="none" stroke="#63b8ff" d="M495.74,-76.87C503.38,-67.09 516.01,-50.92 525.66,-38.58"/>
<polygon fill="#63b8ff" stroke="#63b8ff" points="528.64,-40.44 532.04,-30.41 523.13,-36.13 528.64,-40.44"/>
</a>
</g>
</g>
<!-- Node9 -->
<g id="Node000009" class="node">
<title>Node9</title>
<g id="a_Node000009"><a xlink:title=" ">
<polygon fill="#e0e0e0" stroke="#999999" points="696,-30 606,-30 606,-11 696,-11 696,-30"/>
<text text-anchor="middle" x="651" y="-18" font-family="Helvetica,sans-Serif" font-size="10.00">base/BaseI2c.h</text>
</a>
</g>
</g>
<!-- Node2&#45;&gt;Node9 -->
<g id="edge8_Node000002_Node000009" class="edge">
<title>Node2&#45;&gt;Node9</title>
<g id="a_edge8_Node000002_Node000009"><a xlink:title=" ">
<path fill="none" stroke="#63b8ff" d="M510.85,-76.87C538.95,-65.77 587.93,-46.42 619.9,-33.78"/>
<polygon fill="#63b8ff" stroke="#63b8ff" points="621.23,-37.03 629.24,-30.1 618.65,-30.52 621.23,-37.03"/>
</a>
</g>
</g>
<!-- Node10 -->
<g id="Node000010" class="node">
<title>Node10</title>
<g id="a_Node000010"><a xlink:title=" ">
<polygon fill="#e0e0e0" stroke="#999999" points="854,-41 714,-41 714,0 854,0 854,-41"/>
<text text-anchor="start" x="722" y="-29" font-family="Helvetica,sans-Serif" font-size="10.00">core/hf&#45;core&#45;drivers</text>
<text text-anchor="start" x="722" y="-18" font-family="Helvetica,sans-Serif" font-size="10.00">/external/hf&#45;pcal95555</text>
<text text-anchor="middle" x="784" y="-7" font-family="Helvetica,sans-Serif" font-size="10.00">&#45;driver/inc/pcal95555.hpp</text>
</a>
</g>
</g>
<!-- Node2&#45;&gt;Node10 -->
<g id="edge9_Node000002_Node000010" class="edge">
<title>Node2&#45;&gt;Node10</title>
<g id="a_edge9_Node000002_Node000010"><a xlink:title=" ">
<path fill="none" stroke="#63b8ff" d="M532.96,-76.96C574.55,-68.77 638.95,-55.78 703.83,-41.23"/>
<polygon fill="#63b8ff" stroke="#63b8ff" points="704.84,-44.59 713.82,-38.97 703.3,-37.76 704.84,-44.59"/>
</a>
</g>
</g>
<!-- Node11 -->
<g id="Node000011" class="node">
<title>Node11</title>
<g id="a_Node000011"><a xlink:title=" ">
<polygon fill="#e0e0e0" stroke="#999999" points="974,-30 872,-30 872,-11 974,-11 974,-30"/>
<text text-anchor="middle" x="923" y="-18" font-family="Helvetica,sans-Serif" font-size="10.00">utils/RtosMutex.h</text>
</a>
</g>
</g>
<!-- Node2&#45;&gt;Node11 -->
<g id="edge10_Node000002_Node000011" class="edge">
<title>Node2&#45;&gt;Node11</title>
<g id="a_edge10_Node000002_Node000011"><a xlink:title=" ">
<path fill="none" stroke="#63b8ff" d="M545.65,-82.22C619.41,-77.17 752.04,-65.39 863,-41 872.09,-39 881.76,-36.18 890.63,-33.3"/>
<polygon fill="#63b8ff" stroke="#63b8ff" points="891.85,-36.58 900.21,-30.07 889.62,-29.95 891.85,-36.58"/>
</a>
</g>
</g>
<!-- Node12&#45;&gt;Node3 -->
<g id="edge16_Node000012_Node000003" class="edge">
<title>Node12&#45;&gt;Node3</title>
<g id="a_edge16_Node000012_Node000003"><a xlink:title=" ">
<path fill="none" stroke="#63b8ff" d="M170.77,-76.87C180.98,-66.81 198.08,-49.98 210.74,-37.51"/>
<polygon fill="#63b8ff" stroke="#63b8ff" points="213.29,-39.92 217.96,-30.41 208.37,-34.93 213.29,-39.92"/>
</a>
</g>
</g>
<!-- Node12&#45;&gt;Node5 -->
<g id="edge15_Node000012_Node000005" class="edge">
<title>Node12&#45;&gt;Node5</title>
<g id="a_edge15_Node000012_Node000005"><a xlink:title=" ">
<path fill="none" stroke="#63b8ff" d="M181.86,-76.93C201.95,-68.18 233.83,-54.07 261,-41 265.17,-38.99 269.57,-36.81 273.83,-34.64"/>
<polygon fill="#63b8ff" stroke="#63b8ff" points="275.52,-37.71 282.82,-30.04 272.32,-31.49 275.52,-37.71"/>
</a>
</g>
</g>
<!-- Node13 -->
<g id="Node000013" class="node">
<title>Node13</title>
<g id="a_Node000013"><a xlink:title=" ">
<polygon fill="#e0e0e0" stroke="#999999" points="121.5,-30 68.5,-30 68.5,-11 121.5,-11 121.5,-30"/>
<text text-anchor="middle" x="95" y="-18" font-family="Helvetica,sans-Serif" font-size="10.00">cstdarg</text>
</a>
</g>
</g>
<!-- Node12&#45;&gt;Node13 -->
<g id="edge12_Node000012_Node000013" class="edge">
<title>Node12&#45;&gt;Node13</title>
<g id="a_edge12_Node000012_Node000013"><a xlink:title=" ">
<path fill="none" stroke="#63b8ff" d="M152.96,-76.87C142.43,-66.81 124.81,-49.98 111.76,-37.51"/>
<polygon fill="#63b8ff" stroke="#63b8ff" points="113.97,-34.78 104.32,-30.41 109.14,-39.84 113.97,-34.78"/>
</a>
</g>
</g>
<!-- Node12&#45;&gt;Node14 -->
<g id="edge13_Node000012_Node000014" class="edge">
<title>Node12&#45;&gt;Node14</title>
<g id="a_edge13_Node000012_Node000014"><a xlink:title=" ">
<path fill="none" stroke="#63b8ff" d="M140.37,-76.99C119.3,-68.5 86.52,-54.78 59,-41 55.34,-39.17 51.52,-37.12 47.82,-35.06"/>
<polygon fill="#63b8ff" stroke="#63b8ff" points="49.45,-31.95 39.03,-30.02 45.97,-38.03 49.45,-31.95"/>
</a>
</g>
</g>
<!-- Node15 -->
<g id="Node000015" class="node">
<title>Node15</title>
<g id="a_Node000015"><a xlink:title=" ">
<polygon fill="#e0e0e0" stroke="#999999" points="184,-30 140,-30 140,-11 184,-11 184,-30"/>
<text text-anchor="middle" x="162" y="-18" font-family="Helvetica,sans-Serif" font-size="10.00">string</text>
</a>
</g>
</g>
<!-- Node12&#45;&gt;Node15 -->
<g id="edge14_Node000012_Node000015" class="edge">
<title>Node12&#45;&gt;Node15</title>
<g id="a_edge14_Node000012_Node000015"><a xlink:title=" ">
<path fill="none" stroke="#63b8ff" d="M162,-76.87C162,-67.66 162,-52.79 162,-40.77"/>
<polygon fill="#63b8ff" stroke="#63b8ff" points="165.5,-40.41 162,-30.41 158.5,-40.41 165.5,-40.41"/>
</a>
</g>
</g>
</g>
</svg>
