<?xml version="1.0" encoding="UTF-8" standalone="no"?>
<!DOCTYPE svg PUBLIC "-//W3C//DTD SVG 1.1//EN"
 "http://www.w3.org/Graphics/SVG/1.1/DTD/svg11.dtd">
<!-- Generated by graphviz version 2.43.0 (0)
 -->
<!-- Title: Pcal95555Handler.cpp Pages: 1 -->
<svg width="964pt" height="159pt"
 viewBox="0.00 0.00 964.00 159.00" xmlns="http://www.w3.org/2000/svg" xmlns:xlink="http://www.w3.org/1999/xlink">
<g id="graph0" class="graph" transform="scale(1 1) rotate(0) translate(4 155)">
<title>Pcal95555Handler.cpp</title>
<!-- Node1 -->
<g id="Node000001" class="node">
<title>Node1</title>
<g id="a_Node000001"><a xlink:title="Implementation of the PCAL95555 GPIO expander handler.">
<polygon fill="#999999" stroke="#666666" points="208.5,-151 83.5,-151 83.5,-132 208.5,-132 208.5,-151"/>
<text text-anchor="middle" x="146" y="-139" font-family="Helvetica,sans-Serif" font-size="10.00">Pcal95555Handler.cpp</text>
</a>
</g>
</g>
<!-- Node2 -->
<g id="Node000002" class="node">
<title>Node2</title>
<g id="a_Node000002"><a xlink:href="Pcal95555Handler_8h.html" target="_top" xlink:title="Unified handler for the PCA9555 / PCAL9555A 16&#45;bit I2C GPIO expander.">
<polygon fill="white" stroke="#666666" points="578.5,-96 465.5,-96 465.5,-77 578.5,-77 578.5,-96"/>
<text text-anchor="middle" x="522" y="-84" font-family="Helvetica,sans-Serif" font-size="10.00">Pcal95555Handler.h</text>
</a>
</g>
</g>
<!-- Node1&#45;&gt;Node2 -->
<g id="edge1_Node000001_Node000002" class="edge">
<title>Node1&#45;&gt;Node2</title>
<g id="a_edge1_Node000001_Node000002"><a xlink:title=" ">
<path fill="none" stroke="#63b8ff" d="M206.41,-131.98C274.47,-122.39 384.78,-106.84 455.32,-96.9"/>
<polygon fill="#63b8ff" stroke="#63b8ff" points="456.02,-100.34 465.43,-95.47 455.04,-93.4 456.02,-100.34"/>
</a>
</g>
</g>
<!-- Node12 -->
<g id="Node000012" class="node">
<title>Node12</title>
<g id="a_Node000012"><a xlink:href="Logger_8h.html" target="_top" xlink:title="Advanced logging system with formatting capabilities.">
<polygon fill="white" stroke="#666666" points="214.5,-96 77.5,-96 77.5,-77 214.5,-77 214.5,-96"/>
<text text-anchor="middle" x="146" y="-84" font-family="Helvetica,sans-Serif" font-size="10.00">handlers/logger/Logger.h</text>
</a>
</g>
</g>
<!-- Node1&#45;&gt;Node12 -->
<g id="edge11_Node000001_Node000012" class="edge">
<title>Node1&#45;&gt;Node12</title>
<g id="a_edge11_Node000001_Node000012"><a xlink:title=" ">
<path fill="none" stroke="#63b8ff" d="M146,-131.75C146,-124.8 146,-114.85 146,-106.13"/>
<polygon fill="#63b8ff" stroke="#63b8ff" points="149.5,-106.09 146,-96.09 142.5,-106.09 149.5,-106.09"/>
</a>
</g>
</g>
<!-- Node14 -->
<g id="Node000014" class="node">
<title>Node14</title>
<g id="a_Node000014"><a xlink:title=" ">
<polygon fill="#e0e0e0" stroke="#999999" points="50,-30 0,-30 0,-11 50,-11 50,-30"/>
<text text-anchor="middle" x="25" y="-18" font-family="Helvetica,sans-Serif" font-size="10.00">cstring</text>
</a>
</g>
</g>
<!-- Node1&#45;&gt;Node14 -->
<g id="edge16_Node000001_Node000014" class="edge">
<title>Node1&#45;&gt;Node14</title>
<g id="a_edge16_Node000001_Node000014"><a xlink:title=" ">
<path fill="none" stroke="#63b8ff" d="M124.46,-131.96C107.55,-124.44 84.25,-112.16 68,-96 51.67,-79.76 39.41,-56.05 32.24,-39.76"/>
<polygon fill="#63b8ff" stroke="#63b8ff" points="35.37,-38.16 28.28,-30.29 28.91,-40.86 35.37,-38.16"/>
</a>
</g>
</g>
<!-- Node3 -->
<g id="Node000003" class="node">
<title>Node3</title>
<g id="a_Node000003"><a xlink:title=" ">
<polygon fill="#e0e0e0" stroke="#999999" points="266,-30 216,-30 216,-11 266,-11 266,-30"/>
<text text-anchor="middle" x="241" y="-18" font-family="Helvetica,sans-Serif" font-size="10.00">atomic</text>
</a>
</g>
</g>
<!-- Node2&#45;&gt;Node3 -->
<g id="edge2_Node000002_Node000003" class="edge">
<title>Node2&#45;&gt;Node3</title>
<g id="a_edge2_Node000002_Node000003"><a xlink:title=" ">
<path fill="none" stroke="#63b8ff" d="M465.14,-80.83C414.13,-75.34 337.84,-63.9 275,-41 270.83,-39.48 266.57,-37.47 262.55,-35.31"/>
<polygon fill="#63b8ff" stroke="#63b8ff" points="264.14,-32.19 253.73,-30.19 260.62,-38.24 264.14,-32.19"/>
</a>
</g>
</g>
<!-- Node4 -->
<g id="Node000004" class="node">
<title>Node4</title>
<g id="a_Node000004"><a xlink:title=" ">
<polygon fill="#e0e0e0" stroke="#999999" points="588,-30 538,-30 538,-11 588,-11 588,-30"/>
<text text-anchor="middle" x="563" y="-18" font-family="Helvetica,sans-Serif" font-size="10.00">cstdint</text>
</a>
</g>
</g>
<!-- Node2&#45;&gt;Node4 -->
<g id="edge3_Node000002_Node000004" class="edge">
<title>Node2&#45;&gt;Node4</title>
<g id="a_edge3_Node000002_Node000004"><a xlink:title=" ">
<path fill="none" stroke="#63b8ff" d="M527.53,-76.87C533.73,-67.19 543.95,-51.24 551.83,-38.94"/>
<polygon fill="#63b8ff" stroke="#63b8ff" points="554.85,-40.71 557.3,-30.41 548.95,-36.94 554.85,-40.71"/>
</a>
</g>
</g>
<!-- Node5 -->
<g id="Node000005" class="node">
<title>Node5</title>
<g id="a_Node000005"><a xlink:title=" ">
<polygon fill="#e0e0e0" stroke="#999999" points="198,-30 140,-30 140,-11 198,-11 198,-30"/>
<text text-anchor="middle" x="169" y="-18" font-family="Helvetica,sans-Serif" font-size="10.00">memory</text>
</a>
</g>
</g>
<!-- Node2&#45;&gt;Node5 -->
<g id="edge4_Node000002_Node000005" class="edge">
<title>Node2&#45;&gt;Node5</title>
<g id="a_edge4_Node000002_Node000005"><a xlink:title=" ">
<path fill="none" stroke="#63b8ff" d="M465.27,-83.17C401.22,-79.24 294.52,-68.77 207,-41 201.92,-39.39 196.69,-37.14 191.81,-34.75"/>
<polygon fill="#63b8ff" stroke="#63b8ff" points="193.43,-31.65 182.95,-30.08 190.17,-37.84 193.43,-31.65"/>
</a>
</g>
</g>
<!-- Node6 -->
<g id="Node000006" class="node">
<title>Node6</title>
<g id="a_Node000006"><a xlink:title=" ">
<polygon fill="#e0e0e0" stroke="#999999" points="648,-30 606,-30 606,-11 648,-11 648,-30"/>
<text text-anchor="middle" x="627" y="-18" font-family="Helvetica,sans-Serif" font-size="10.00">array</text>
</a>
</g>
</g>
<!-- Node2&#45;&gt;Node6 -->
<g id="edge5_Node000002_Node000006" class="edge">
<title>Node2&#45;&gt;Node6</title>
<g id="a_edge5_Node000002_Node000006"><a xlink:title=" ">
<path fill="none" stroke="#63b8ff" d="M536.77,-76.98C551.97,-68.15 576.3,-53.86 597,-41 599.71,-39.32 602.54,-37.52 605.33,-35.73"/>
<polygon fill="#63b8ff" stroke="#63b8ff" points="607.44,-38.54 613.93,-30.16 603.64,-32.66 607.44,-38.54"/>
</a>
</g>
</g>
<!-- Node7 -->
<g id="Node000007" class="node">
<title>Node7</title>
<g id="a_Node000007"><a xlink:title=" ">
<polygon fill="#e0e0e0" stroke="#999999" points="731.5,-30 666.5,-30 666.5,-11 731.5,-11 731.5,-30"/>
<text text-anchor="middle" x="699" y="-18" font-family="Helvetica,sans-Serif" font-size="10.00">functional</text>
</a>
</g>
</g>
<!-- Node2&#45;&gt;Node7 -->
<g id="edge6_Node000002_Node000007" class="edge">
<title>Node2&#45;&gt;Node7</title>
<g id="a_edge6_Node000002_Node000007"><a xlink:title=" ">
<path fill="none" stroke="#63b8ff" d="M551.05,-76.99C578.63,-68.67 621.08,-55.2 657,-41 662.01,-39.02 667.28,-36.74 672.32,-34.45"/>
<polygon fill="#63b8ff" stroke="#63b8ff" points="674.04,-37.51 681.62,-30.12 671.08,-31.17 674.04,-37.51"/>
</a>
</g>
</g>
<!-- Node8 -->
<g id="Node000008" class="node">
<title>Node8</title>
<g id="a_Node000008"><a xlink:title=" ">
<polygon fill="#e0e0e0" stroke="#999999" points="848,-30 750,-30 750,-11 848,-11 848,-30"/>
<text text-anchor="middle" x="799" y="-18" font-family="Helvetica,sans-Serif" font-size="10.00">base/BaseGpio.h</text>
</a>
</g>
</g>
<!-- Node2&#45;&gt;Node8 -->
<g id="edge7_Node000002_Node000008" class="edge">
<title>Node2&#45;&gt;Node8</title>
<g id="a_edge7_Node000002_Node000008"><a xlink:title=" ">
<path fill="none" stroke="#63b8ff" d="M573.31,-76.93C617.96,-69.03 684.23,-56.25 741,-41 749.24,-38.79 758.02,-36.04 766.19,-33.32"/>
<polygon fill="#63b8ff" stroke="#63b8ff" points="767.45,-36.59 775.78,-30.04 765.18,-29.96 767.45,-36.59"/>
</a>
</g>
</g>
<!-- Node9 -->
<g id="Node000009" class="node">
<title>Node9</title>
<g id="a_Node000009"><a xlink:title=" ">
<polygon fill="#e0e0e0" stroke="#999999" points="956,-30 866,-30 866,-11 956,-11 956,-30"/>
<text text-anchor="middle" x="911" y="-18" font-family="Helvetica,sans-Serif" font-size="10.00">base/BaseI2c.h</text>
</a>
</g>
</g>
<!-- Node2&#45;&gt;Node9 -->
<g id="edge8_Node000002_Node000009" class="edge">
<title>Node2&#45;&gt;Node9</title>
<g id="a_edge8_Node000002_Node000009"><a xlink:title=" ">
<path fill="none" stroke="#63b8ff" d="M578.7,-81.69C645.87,-76.33 760.81,-64.47 857,-41 864.97,-39.06 873.39,-36.35 881.15,-33.57"/>
<polygon fill="#63b8ff" stroke="#63b8ff" points="882.4,-36.84 890.55,-30.06 879.96,-30.28 882.4,-36.84"/>
</a>
</g>
</g>
<!-- Node10 -->
<g id="Node000010" class="node">
<title>Node10</title>
<g id="a_Node000010"><a xlink:title=" ">
<polygon fill="#e0e0e0" stroke="#999999" points="424,-41 284,-41 284,0 424,0 424,-41"/>
<text text-anchor="start" x="292" y="-29" font-family="Helvetica,sans-Serif" font-size="10.00">core/hf&#45;core&#45;drivers</text>
<text text-anchor="start" x="292" y="-18" font-family="Helvetica,sans-Serif" font-size="10.00">/external/hf&#45;pcal95555</text>
<text text-anchor="middle" x="354" y="-7" font-family="Helvetica,sans-Serif" font-size="10.00">&#45;driver/inc/pcal95555.hpp</text>
</a>
</g>
</g>
<!-- Node2&#45;&gt;Node10 -->
<g id="edge9_Node000002_Node000010" class="edge">
<title>Node2&#45;&gt;Node10</title>
<g id="a_edge9_Node000002_Node000010"><a xlink:title=" ">
<path fill="none" stroke="#63b8ff" d="M499.34,-76.87C477.68,-68.62 444.06,-55.81 414.61,-44.59"/>
<polygon fill="#63b8ff" stroke="#63b8ff" points="415.8,-41.3 405.21,-41.01 413.31,-47.84 415.8,-41.3"/>
</a>
</g>
</g>
<!-- Node11 -->
<g id="Node000011" class="node">
<title>Node11</title>
<g id="a_Node000011"><a xlink:title=" ">
<polygon fill="#e0e0e0" stroke="#999999" points="520,-30 442,-30 442,-11 520,-11 520,-30"/>
<text text-anchor="middle" x="481" y="-18" font-family="Helvetica,sans-Serif" font-size="10.00">RtosMutex.h</text>
</a>
</g>
</g>
<!-- Node2&#45;&gt;Node11 -->
<g id="edge10_Node000002_Node000011" class="edge">
<title>Node2&#45;&gt;Node11</title>
<g id="a_edge10_Node000002_Node000011"><a xlink:title=" ">
<path fill="none" stroke="#63b8ff" d="M516.47,-76.87C510.27,-67.19 500.05,-51.24 492.17,-38.94"/>
<polygon fill="#63b8ff" stroke="#63b8ff" points="495.05,-36.94 486.7,-30.41 489.15,-40.71 495.05,-36.94"/>
</a>
</g>
</g>
<!-- Node12&#45;&gt;Node3 -->
<g id="edge15_Node000012_Node000003" class="edge">
<title>Node12&#45;&gt;Node3</title>
<g id="a_edge15_Node000012_Node000003"><a xlink:title=" ">
<path fill="none" stroke="#63b8ff" d="M158.81,-76.87C174.39,-66.37 200.93,-48.5 219.62,-35.9"/>
<polygon fill="#63b8ff" stroke="#63b8ff" points="221.75,-38.69 228.09,-30.2 217.84,-32.88 221.75,-38.69"/>
</a>
</g>
</g>
<!-- Node12&#45;&gt;Node5 -->
<g id="edge14_Node000012_Node000005" class="edge">
<title>Node12&#45;&gt;Node5</title>
<g id="a_edge14_Node000012_Node000005"><a xlink:title=" ">
<path fill="none" stroke="#63b8ff" d="M149.1,-76.87C152.48,-67.47 157.98,-52.17 162.34,-40.03"/>
<polygon fill="#63b8ff" stroke="#63b8ff" points="165.71,-41 165.8,-30.41 159.12,-38.63 165.71,-41"/>
</a>
</g>
</g>
<!-- Node13 -->
<g id="Node000013" class="node">
<title>Node13</title>
<g id="a_Node000013"><a xlink:title=" ">
<polygon fill="#e0e0e0" stroke="#999999" points="121.5,-30 68.5,-30 68.5,-11 121.5,-11 121.5,-30"/>
<text text-anchor="middle" x="95" y="-18" font-family="Helvetica,sans-Serif" font-size="10.00">cstdarg</text>
</a>
</g>
</g>
<!-- Node12&#45;&gt;Node13 -->
<g id="edge12_Node000012_Node000013" class="edge">
<title>Node12&#45;&gt;Node13</title>
<g id="a_edge12_Node000012_Node000013"><a xlink:title=" ">
<path fill="none" stroke="#63b8ff" d="M139.12,-76.87C131.33,-67.09 118.45,-50.92 108.61,-38.58"/>
<polygon fill="#63b8ff" stroke="#63b8ff" points="111.07,-36.04 102.1,-30.41 105.59,-40.41 111.07,-36.04"/>
</a>
</g>
</g>
<!-- Node12&#45;&gt;Node14 -->
<g id="edge13_Node000012_Node000014" class="edge">
<title>Node12&#45;&gt;Node14</title>
<g id="a_edge13_Node000012_Node000014"><a xlink:title=" ">
<path fill="none" stroke="#63b8ff" d="M128.54,-76.88C110.88,-68.09 82.86,-53.94 59,-41 55.57,-39.14 51.97,-37.13 48.44,-35.14"/>
<polygon fill="#63b8ff" stroke="#63b8ff" points="49.89,-31.94 39.47,-30 46.41,-38.01 49.89,-31.94"/>
</a>
</g>
</g>
</g>
</svg>
