<?xml version="1.0" encoding="UTF-8" standalone="no"?>
<!DOCTYPE svg PUBLIC "-//W3C//DTD SVG 1.1//EN"
 "http://www.w3.org/Graphics/SVG/1.1/DTD/svg11.dtd">
<!-- Generated by graphviz version 2.43.0 (0)
 -->
<!-- Title: Pcal95555Handler.h Pages: 1 -->
<svg width="491pt" height="93pt"
 viewBox="0.00 0.00 491.00 93.00" xmlns="http://www.w3.org/2000/svg" xmlns:xlink="http://www.w3.org/1999/xlink">
<g id="graph0" class="graph" transform="scale(1 1) rotate(0) translate(4 89)">
<title>Pcal95555Handler.h</title>
<!-- Node1 -->
<g id="Node000001" class="node">
<title>Node1</title>
<g id="a_Node000001"><a xlink:title="Unified handler for the PCA9555 / PCAL9555A 16&#45;bit I2C GPIO expander.">
<polygon fill="#999999" stroke="#666666" points="266,-85 153,-85 153,-66 266,-66 266,-85"/>
<text text-anchor="middle" x="209.5" y="-73" font-family="Helvetica,sans-Serif" font-size="10.00">Pcal95555Handler.h</text>
</a>
</g>
</g>
<!-- Node2 -->
<g id="Node000002" class="node">
<title>Node2</title>
<g id="a_Node000002"><a xlink:href="Pcal95555Handler_8cpp.html" target="_top" xlink:title="Implementation of the PCAL95555 GPIO expander handler.">
<polygon fill="white" stroke="#666666" points="125,-24.5 0,-24.5 0,-5.5 125,-5.5 125,-24.5"/>
<text text-anchor="middle" x="62.5" y="-12.5" font-family="Helvetica,sans-Serif" font-size="10.00">Pcal95555Handler.cpp</text>
</a>
</g>
</g>
<!-- Node1&#45;&gt;Node2 -->
<g id="edge1_Node000001_Node000002" class="edge">
<title>Node1&#45;&gt;Node2</title>
<g id="a_edge1_Node000001_Node000002"><a xlink:title=" ">
<path fill="none" stroke="#63b8ff" d="M178.67,-62.23C150.26,-50.92 108.84,-34.44 83.9,-24.52"/>
<polygon fill="#63b8ff" stroke="#63b8ff" points="177.54,-65.55 188.12,-65.99 180.13,-59.04 177.54,-65.55"/>
</a>
</g>
</g>
<!-- Node3 -->
<g id="Node000003" class="node">
<title>Node3</title>
<g id="a_Node000003"><a xlink:href="full__system__integration__test_8cpp.html" target="_top" xlink:title="Full system integration test for hf&#45;core.">
<polygon fill="white" stroke="#666666" points="275.5,-30 143.5,-30 143.5,0 275.5,0 275.5,-30"/>
<text text-anchor="start" x="151.5" y="-18" font-family="Helvetica,sans-Serif" font-size="10.00">full_system_integration</text>
<text text-anchor="middle" x="209.5" y="-7" font-family="Helvetica,sans-Serif" font-size="10.00">_test.cpp</text>
</a>
</g>
</g>
<!-- Node1&#45;&gt;Node3 -->
<g id="edge2_Node000001_Node000003" class="edge">
<title>Node1&#45;&gt;Node3</title>
<g id="a_edge2_Node000001_Node000003"><a xlink:title=" ">
<path fill="none" stroke="#63b8ff" d="M209.5,-55.65C209.5,-47.36 209.5,-37.78 209.5,-30.11"/>
<polygon fill="#63b8ff" stroke="#63b8ff" points="206,-55.87 209.5,-65.87 213,-55.87 206,-55.87"/>
</a>
</g>
</g>
<!-- Node4 -->
<g id="Node000004" class="node">
<title>Node4</title>
<g id="a_Node000004"><a xlink:href="pcal95555__handler__comprehensive__test_8cpp.html" target="_top" xlink:title="Comprehensive test suite for Pcal95555Handler.">
<polygon fill="white" stroke="#666666" points="483,-30 294,-30 294,0 483,0 483,-30"/>
<text text-anchor="start" x="302" y="-18" font-family="Helvetica,sans-Serif" font-size="10.00">pcal95555_handler_comprehensive</text>
<text text-anchor="middle" x="388.5" y="-7" font-family="Helvetica,sans-Serif" font-size="10.00">_test.cpp</text>
</a>
</g>
</g>
<!-- Node1&#45;&gt;Node4 -->
<g id="edge3_Node000001_Node000004" class="edge">
<title>Node1&#45;&gt;Node4</title>
<g id="a_edge3_Node000001_Node000004"><a xlink:title=" ">
<path fill="none" stroke="#63b8ff" d="M245.21,-62.83C274.07,-53.4 314.8,-40.09 345.47,-30.06"/>
<polygon fill="#63b8ff" stroke="#63b8ff" points="243.95,-59.56 235.53,-65.99 246.12,-66.21 243.95,-59.56"/>
</a>
</g>
</g>
</g>
</svg>
