<?xml version="1.0" encoding="UTF-8" standalone="no"?>
<!DOCTYPE svg PUBLIC "-//W3C//DTD SVG 1.1//EN"
 "http://www.w3.org/Graphics/SVG/1.1/DTD/svg11.dtd">
<!-- Generated by graphviz version 2.43.0 (0)
 -->
<!-- Title: Bno08xImuData Pages: 1 -->
<svg width="353pt" height="137pt"
 viewBox="0.00 0.00 352.50 137.00" xmlns="http://www.w3.org/2000/svg" xmlns:xlink="http://www.w3.org/1999/xlink">
<g id="graph0" class="graph" transform="scale(1 1) rotate(0) translate(4 133)">
<title>Bno08xImuData</title>
<!-- Node1 -->
<g id="Node000001" class="node">
<title>Node1</title>
<g id="a_Node000001"><a xlink:title="Complete IMU sensor data structure.">
<polygon fill="#999999" stroke="#666666" points="209.5,-19 114.5,-19 114.5,0 209.5,0 209.5,-19"/>
<text text-anchor="middle" x="162" y="-7" font-family="Helvetica,sans-Serif" font-size="10.00">Bno08xImuData</text>
</a>
</g>
</g>
<!-- Node2 -->
<g id="Node000002" class="node">
<title>Node2</title>
<g id="a_Node000002"><a xlink:href="structBno08xVector3.html" target="_top" xlink:title="Enhanced vector with timestamp and accuracy.">
<polygon fill="white" stroke="#666666" points="90,-129 0,-129 0,-110 90,-110 90,-129"/>
<text text-anchor="middle" x="45" y="-117" font-family="Helvetica,sans-Serif" font-size="10.00">Bno08xVector3</text>
</a>
</g>
</g>
<!-- Node2&#45;&gt;Node1 -->
<g id="edge1_Node000001_Node000002" class="edge">
<title>Node2&#45;&gt;Node1</title>
<g id="a_edge1_Node000001_Node000002"><a xlink:title=" ">
<path fill="none" stroke="#9a32cd" stroke-dasharray="5,2" d="M44.2,-99.71C44.48,-81.32 47.87,-53.7 64,-37 77.1,-23.43 96.37,-16.58 114.36,-13.19"/>
<polygon fill="#9a32cd" stroke="#9a32cd" points="40.7,-99.84 44.35,-109.79 47.7,-99.74 40.7,-99.84"/>
</a>
</g>
<text text-anchor="middle" x="111" y="-84" font-family="Helvetica,sans-Serif" font-size="10.00" fill="grey"> acceleration</text>
<text text-anchor="middle" x="111" y="-73" font-family="Helvetica,sans-Serif" font-size="10.00" fill="grey">gravity</text>
<text text-anchor="middle" x="111" y="-62" font-family="Helvetica,sans-Serif" font-size="10.00" fill="grey">gyroscope</text>
<text text-anchor="middle" x="111" y="-51" font-family="Helvetica,sans-Serif" font-size="10.00" fill="grey">linear_acceleration</text>
<text text-anchor="middle" x="111" y="-40" font-family="Helvetica,sans-Serif" font-size="10.00" fill="grey">magnetometer</text>
</g>
<!-- Node3 -->
<g id="Node000003" class="node">
<title>Node3</title>
<g id="a_Node000003"><a xlink:href="structBno08xQuaternion.html" target="_top" xlink:title="Enhanced quaternion with timestamp and accuracy.">
<polygon fill="white" stroke="#666666" points="215.5,-129 108.5,-129 108.5,-110 215.5,-110 215.5,-129"/>
<text text-anchor="middle" x="162" y="-117" font-family="Helvetica,sans-Serif" font-size="10.00">Bno08xQuaternion</text>
</a>
</g>
</g>
<!-- Node3&#45;&gt;Node1 -->
<g id="edge2_Node000001_Node000003" class="edge">
<title>Node3&#45;&gt;Node1</title>
<g id="a_edge2_Node000001_Node000003"><a xlink:title=" ">
<path fill="none" stroke="#9a32cd" stroke-dasharray="5,2" d="M162,-99.48C162,-75.84 162,-36.5 162,-19.16"/>
<polygon fill="#9a32cd" stroke="#9a32cd" points="158.5,-99.66 162,-109.66 165.5,-99.66 158.5,-99.66"/>
</a>
</g>
<text text-anchor="middle" x="183" y="-62" font-family="Helvetica,sans-Serif" font-size="10.00" fill="grey"> rotation</text>
</g>
<!-- Node4 -->
<g id="Node000004" class="node">
<title>Node4</title>
<g id="a_Node000004"><a xlink:href="structBno08xEulerAngles.html" target="_top" xlink:title="Euler angles derived from quaternion.">
<polygon fill="white" stroke="#666666" points="344.5,-129 233.5,-129 233.5,-110 344.5,-110 344.5,-129"/>
<text text-anchor="middle" x="289" y="-117" font-family="Helvetica,sans-Serif" font-size="10.00">Bno08xEulerAngles</text>
</a>
</g>
</g>
<!-- Node4&#45;&gt;Node1 -->
<g id="edge3_Node000001_Node000004" class="edge">
<title>Node4&#45;&gt;Node1</title>
<g id="a_edge3_Node000001_Node000004"><a xlink:title=" ">
<path fill="none" stroke="#9a32cd" stroke-dasharray="5,2" d="M275.22,-102.26C259.93,-84.83 233.96,-56.96 208,-37 199.09,-30.15 188.22,-23.81 179.29,-19.05"/>
<polygon fill="#9a32cd" stroke="#9a32cd" points="272.64,-104.62 281.83,-109.9 277.93,-100.04 272.64,-104.62"/>
</a>
</g>
<text text-anchor="middle" x="279" y="-62" font-family="Helvetica,sans-Serif" font-size="10.00" fill="grey"> euler</text>
</g>
</g>
</svg>
