<?xml version="1.0" encoding="UTF-8" standalone="no"?>
<!DOCTYPE svg PUBLIC "-//W3C//DTD SVG 1.1//EN"
 "http://www.w3.org/Graphics/SVG/1.1/DTD/svg11.dtd">
<!-- Generated by graphviz version 2.43.0 (0)
 -->
<!-- Title: ensure_gpio14_initialized Pages: 1 -->
<svg width="401pt" height="76pt"
 viewBox="0.00 0.00 401.00 75.50" xmlns="http://www.w3.org/2000/svg" xmlns:xlink="http://www.w3.org/1999/xlink">
<g id="graph0" class="graph" transform="scale(1 1) rotate(0) translate(4 71.5)">
<title>ensure_gpio14_initialized</title>
<!-- Node1 -->
<g id="Node000001" class="node">
<title>Node1</title>
<g id="a_Node000001"><a xlink:title="Automatically initialize GPIO14 test indicator if not already done.">
<polygon fill="#999999" stroke="#666666" points="393,-40 252,-40 252,-21 393,-21 393,-40"/>
<text text-anchor="middle" x="322.5" y="-28" font-family="Helvetica,sans-Serif" font-size="10.00">ensure_gpio14_initialized</text>
</a>
</g>
</g>
<!-- Node2 -->
<g id="Node000002" class="node">
<title>Node2</title>
<g id="a_Node000002"><a xlink:href="TestFramework_8h.html#a200bb35a3a48c625b9cb8d2511d6bd87" target="_top" xlink:title="Print standardized test summary.">
<polygon fill="white" stroke="#666666" points="210.5,-67.5 106.5,-67.5 106.5,-37.5 210.5,-37.5 210.5,-67.5"/>
<text text-anchor="start" x="114.5" y="-55.5" font-family="Helvetica,sans-Serif" font-size="10.00">print_test_section</text>
<text text-anchor="middle" x="158.5" y="-44.5" font-family="Helvetica,sans-Serif" font-size="10.00">_status</text>
</a>
</g>
</g>
<!-- Node1&#45;&gt;Node2 -->
<g id="edge1_Node000001_Node000002" class="edge">
<title>Node1&#45;&gt;Node2</title>
<g id="a_edge1_Node000001_Node000002"><a xlink:title=" ">
<path fill="none" stroke="#63b8ff" d="M241.83,-41.32C231.34,-42.74 220.83,-44.17 210.98,-45.51"/>
<polygon fill="#63b8ff" stroke="#63b8ff" points="242.42,-44.77 251.86,-39.96 241.48,-37.84 242.42,-44.77"/>
</a>
</g>
</g>
<!-- Node4 -->
<g id="Node000004" class="node">
<title>Node4</title>
<g id="a_Node000004"><a xlink:href="TestFramework_8h.html#ab7e4c076755ecdf2ad6212cb8f6578ab" target="_top" xlink:title="Print standardized test summary.">
<polygon fill="white" stroke="#666666" points="216,-19 101,-19 101,0 216,0 216,-19"/>
<text text-anchor="middle" x="158.5" y="-7" font-family="Helvetica,sans-Serif" font-size="10.00">print_test_summary</text>
</a>
</g>
</g>
<!-- Node1&#45;&gt;Node4 -->
<g id="edge3_Node000001_Node000004" class="edge">
<title>Node1&#45;&gt;Node4</title>
<g id="a_edge3_Node000001_Node000004"><a xlink:title=" ">
<path fill="none" stroke="#63b8ff" d="M241.82,-20.17C233.24,-19.06 224.64,-17.94 216.4,-16.88"/>
<polygon fill="#63b8ff" stroke="#63b8ff" points="241.49,-23.66 251.86,-21.47 242.39,-16.72 241.49,-23.66"/>
</a>
</g>
</g>
<!-- Node3 -->
<g id="Node000003" class="node">
<title>Node3</title>
<g id="a_Node000003"><a xlink:href="as5047u__handler__comprehensive__test_8cpp.html#a630544a7f0a2cc40d8a7fefab7e2fe70" target="_top" xlink:title=" ">
<polygon fill="white" stroke="#666666" points="65,-40 0,-40 0,-21 65,-21 65,-40"/>
<text text-anchor="middle" x="32.5" y="-28" font-family="Helvetica,sans-Serif" font-size="10.00">app_main</text>
</a>
</g>
</g>
<!-- Node2&#45;&gt;Node3 -->
<g id="edge2_Node000002_Node000003" class="edge">
<title>Node2&#45;&gt;Node3</title>
<g id="a_edge2_Node000002_Node000003"><a xlink:title=" ">
<path fill="none" stroke="#63b8ff" d="M96.41,-41.66C85.54,-39.73 74.62,-37.8 65.01,-36.09"/>
<polygon fill="#63b8ff" stroke="#63b8ff" points="95.89,-45.12 106.35,-43.42 97.11,-38.23 95.89,-45.12"/>
</a>
</g>
</g>
<!-- Node4&#45;&gt;Node3 -->
<g id="edge4_Node000004_Node000003" class="edge">
<title>Node4&#45;&gt;Node3</title>
<g id="a_edge4_Node000004_Node000003"><a xlink:title=" ">
<path fill="none" stroke="#63b8ff" d="M91.37,-20.7C82.22,-22.25 73.2,-23.78 65.09,-25.15"/>
<polygon fill="#63b8ff" stroke="#63b8ff" points="92.03,-24.14 101.3,-19.02 90.86,-17.24 92.03,-24.14"/>
</a>
</g>
</g>
</g>
</svg>
