<?xml version="1.0" encoding="UTF-8" standalone="no"?>
<!DOCTYPE svg PUBLIC "-//W3C//DTD SVG 1.1//EN"
 "http://www.w3.org/Graphics/SVG/1.1/DTD/svg11.dtd">
<!-- Generated by graphviz version 2.43.0 (0)
 -->
<!-- Title: Tle92466edHandler.h Pages: 1 -->
<svg width="985pt" height="115pt"
 viewBox="0.00 0.00 985.00 115.00" xmlns="http://www.w3.org/2000/svg" xmlns:xlink="http://www.w3.org/1999/xlink">
<g id="graph0" class="graph" transform="scale(1 1) rotate(0) translate(4 111)">
<title>Tle92466edHandler.h</title>
<!-- Node1 -->
<g id="Node000001" class="node">
<title>Node1</title>
<g id="a_Node000001"><a xlink:title="Unified handler for TLE92466ED six&#45;channel low&#45;side solenoid driver IC.">
<polygon fill="#999999" stroke="#666666" points="431,-107 311,-107 311,-88 431,-88 431,-107"/>
<text text-anchor="middle" x="371" y="-95" font-family="Helvetica,sans-Serif" font-size="10.00">Tle92466edHandler.h</text>
</a>
</g>
</g>
<!-- Node2 -->
<g id="Node000002" class="node">
<title>Node2</title>
<g id="a_Node000002"><a xlink:title=" ">
<polygon fill="#e0e0e0" stroke="#999999" points="50,-35.5 0,-35.5 0,-16.5 50,-16.5 50,-35.5"/>
<text text-anchor="middle" x="25" y="-23.5" font-family="Helvetica,sans-Serif" font-size="10.00">cstdint</text>
</a>
</g>
</g>
<!-- Node1&#45;&gt;Node2 -->
<g id="edge1_Node000001_Node000002" class="edge">
<title>Node1&#45;&gt;Node2</title>
<g id="a_edge1_Node000001_Node000002"><a xlink:title=" ">
<path fill="none" stroke="#63b8ff" d="M310.97,-96.53C246.43,-94.63 141.94,-85.88 59,-52 53,-49.55 47.09,-45.81 41.93,-41.97"/>
<polygon fill="#63b8ff" stroke="#63b8ff" points="44.02,-39.16 34.05,-35.6 39.63,-44.61 44.02,-39.16"/>
</a>
</g>
</g>
<!-- Node3 -->
<g id="Node000003" class="node">
<title>Node3</title>
<g id="a_Node000003"><a xlink:title=" ">
<polygon fill="#e0e0e0" stroke="#999999" points="126,-35.5 68,-35.5 68,-16.5 126,-16.5 126,-35.5"/>
<text text-anchor="middle" x="97" y="-23.5" font-family="Helvetica,sans-Serif" font-size="10.00">memory</text>
</a>
</g>
</g>
<!-- Node1&#45;&gt;Node3 -->
<g id="edge2_Node000001_Node000003" class="edge">
<title>Node1&#45;&gt;Node3</title>
<g id="a_edge2_Node000001_Node000003"><a xlink:title=" ">
<path fill="none" stroke="#63b8ff" d="M310.98,-91.77C262.15,-86.39 192.21,-75.13 135,-52 128.47,-49.36 121.87,-45.52 116.05,-41.64"/>
<polygon fill="#63b8ff" stroke="#63b8ff" points="117.84,-38.62 107.66,-35.68 113.78,-44.32 117.84,-38.62"/>
</a>
</g>
</g>
<!-- Node4 -->
<g id="Node000004" class="node">
<title>Node4</title>
<g id="a_Node000004"><a xlink:title=" ">
<polygon fill="#e0e0e0" stroke="#999999" points="197.5,-35.5 144.5,-35.5 144.5,-16.5 197.5,-16.5 197.5,-35.5"/>
<text text-anchor="middle" x="171" y="-23.5" font-family="Helvetica,sans-Serif" font-size="10.00">cstdarg</text>
</a>
</g>
</g>
<!-- Node1&#45;&gt;Node4 -->
<g id="edge3_Node000001_Node000004" class="edge">
<title>Node1&#45;&gt;Node4</title>
<g id="a_edge3_Node000001_Node000004"><a xlink:title=" ">
<path fill="none" stroke="#63b8ff" d="M322.84,-87.96C289.33,-80.95 244.17,-69.32 207,-52 201.08,-49.24 195.08,-45.52 189.72,-41.8"/>
<polygon fill="#63b8ff" stroke="#63b8ff" points="191.56,-38.8 181.44,-35.69 187.41,-44.44 191.56,-38.8"/>
</a>
</g>
</g>
<!-- Node5 -->
<g id="Node000005" class="node">
<title>Node5</title>
<g id="a_Node000005"><a xlink:title=" ">
<polygon fill="#e0e0e0" stroke="#999999" points="256,-35.5 216,-35.5 216,-16.5 256,-16.5 256,-35.5"/>
<text text-anchor="middle" x="236" y="-23.5" font-family="Helvetica,sans-Serif" font-size="10.00">span</text>
</a>
</g>
</g>
<!-- Node1&#45;&gt;Node5 -->
<g id="edge4_Node000001_Node000005" class="edge">
<title>Node1&#45;&gt;Node5</title>
<g id="a_edge4_Node000001_Node000005"><a xlink:title=" ">
<path fill="none" stroke="#63b8ff" d="M344.18,-87.88C322.04,-80.16 290.28,-67.66 265,-52 260.57,-49.26 256.14,-45.85 252.11,-42.44"/>
<polygon fill="#63b8ff" stroke="#63b8ff" points="254.35,-39.75 244.57,-35.66 249.67,-44.95 254.35,-39.75"/>
</a>
</g>
</g>
<!-- Node6 -->
<g id="Node000006" class="node">
<title>Node6</title>
<g id="a_Node000006"><a xlink:title=" ">
<polygon fill="#e0e0e0" stroke="#999999" points="343.5,-35.5 274.5,-35.5 274.5,-16.5 343.5,-16.5 343.5,-35.5"/>
<text text-anchor="middle" x="309" y="-23.5" font-family="Helvetica,sans-Serif" font-size="10.00">type_traits</text>
</a>
</g>
</g>
<!-- Node1&#45;&gt;Node6 -->
<g id="edge5_Node000001_Node000006" class="edge">
<title>Node1&#45;&gt;Node6</title>
<g id="a_edge5_Node000001_Node000006"><a xlink:title=" ">
<path fill="none" stroke="#63b8ff" d="M363.4,-87.98C353.45,-76.83 335.82,-57.06 323.33,-43.06"/>
<polygon fill="#63b8ff" stroke="#63b8ff" points="325.93,-40.72 316.66,-35.59 320.71,-45.38 325.93,-40.72"/>
</a>
</g>
</g>
<!-- Node7 -->
<g id="Node000007" class="node">
<title>Node7</title>
<g id="a_Node000007"><a xlink:title=" ">
<polygon fill="#e0e0e0" stroke="#999999" points="506.5,-46.5 361.5,-46.5 361.5,-5.5 506.5,-5.5 506.5,-46.5"/>
<text text-anchor="start" x="369.5" y="-34.5" font-family="Helvetica,sans-Serif" font-size="10.00">core/hf&#45;core&#45;drivers</text>
<text text-anchor="start" x="369.5" y="-23.5" font-family="Helvetica,sans-Serif" font-size="10.00">/external/hf&#45;tle92466ed</text>
<text text-anchor="middle" x="434" y="-12.5" font-family="Helvetica,sans-Serif" font-size="10.00">&#45;driver/inc/tle92466ed.hpp</text>
</a>
</g>
</g>
<!-- Node1&#45;&gt;Node7 -->
<g id="edge6_Node000001_Node000007" class="edge">
<title>Node1&#45;&gt;Node7</title>
<g id="a_edge6_Node000001_Node000007"><a xlink:title=" ">
<path fill="none" stroke="#63b8ff" d="M378.73,-87.98C386.33,-79.59 398.34,-66.34 409.23,-54.32"/>
<polygon fill="#63b8ff" stroke="#63b8ff" points="412.04,-56.43 416.17,-46.67 406.86,-51.73 412.04,-56.43"/>
</a>
</g>
</g>
<!-- Node8 -->
<g id="Node000008" class="node">
<title>Node8</title>
<g id="a_Node000008"><a xlink:title=" ">
<polygon fill="#e0e0e0" stroke="#999999" points="655.5,-52 524.5,-52 524.5,0 655.5,0 655.5,-52"/>
<text text-anchor="start" x="532.5" y="-40" font-family="Helvetica,sans-Serif" font-size="10.00">core/hf&#45;core&#45;drivers</text>
<text text-anchor="start" x="532.5" y="-29" font-family="Helvetica,sans-Serif" font-size="10.00">/external/hf&#45;tle92466ed</text>
<text text-anchor="start" x="532.5" y="-18" font-family="Helvetica,sans-Serif" font-size="10.00">&#45;driver/inc/tle92466ed</text>
<text text-anchor="middle" x="590" y="-7" font-family="Helvetica,sans-Serif" font-size="10.00">_spi_interface.hpp</text>
</a>
</g>
</g>
<!-- Node1&#45;&gt;Node8 -->
<g id="edge7_Node000001_Node000008" class="edge">
<title>Node1&#45;&gt;Node8</title>
<g id="a_edge7_Node000001_Node000008"><a xlink:title=" ">
<path fill="none" stroke="#63b8ff" d="M399.69,-87.95C427.05,-79.75 469.64,-66.83 514.63,-52.41"/>
<polygon fill="#63b8ff" stroke="#63b8ff" points="515.82,-55.71 524.26,-49.31 513.67,-49.04 515.82,-55.71"/>
</a>
</g>
</g>
<!-- Node9 -->
<g id="Node000009" class="node">
<title>Node9</title>
<g id="a_Node000009"><a xlink:title=" ">
<polygon fill="#e0e0e0" stroke="#999999" points="764.5,-35.5 673.5,-35.5 673.5,-16.5 764.5,-16.5 764.5,-35.5"/>
<text text-anchor="middle" x="719" y="-23.5" font-family="Helvetica,sans-Serif" font-size="10.00">base/BaseSpi.h</text>
</a>
</g>
</g>
<!-- Node1&#45;&gt;Node9 -->
<g id="edge8_Node000001_Node000009" class="edge">
<title>Node1&#45;&gt;Node9</title>
<g id="a_edge8_Node000001_Node000009"><a xlink:title=" ">
<path fill="none" stroke="#63b8ff" d="M431.22,-92.4C491.42,-87.14 586.14,-75.69 665,-52 674.88,-49.03 685.27,-44.57 694.27,-40.24"/>
<polygon fill="#63b8ff" stroke="#63b8ff" points="696.03,-43.28 703.4,-35.66 692.89,-37.02 696.03,-43.28"/>
</a>
</g>
</g>
<!-- Node10 -->
<g id="Node000010" class="node">
<title>Node10</title>
<g id="a_Node000010"><a xlink:title=" ">
<polygon fill="#e0e0e0" stroke="#999999" points="881,-35.5 783,-35.5 783,-16.5 881,-16.5 881,-35.5"/>
<text text-anchor="middle" x="832" y="-23.5" font-family="Helvetica,sans-Serif" font-size="10.00">base/BaseGpio.h</text>
</a>
</g>
</g>
<!-- Node1&#45;&gt;Node10 -->
<g id="edge9_Node000001_Node000010" class="edge">
<title>Node1&#45;&gt;Node10</title>
<g id="a_edge9_Node000001_Node000010"><a xlink:title=" ">
<path fill="none" stroke="#63b8ff" d="M431.08,-95.4C510.73,-92.69 655.08,-83.44 774,-52 784.97,-49.1 796.55,-44.46 806.46,-39.96"/>
<polygon fill="#63b8ff" stroke="#63b8ff" points="808.18,-43.02 815.72,-35.57 805.18,-36.69 808.18,-43.02"/>
</a>
</g>
</g>
<!-- Node11 -->
<g id="Node000011" class="node">
<title>Node11</title>
<g id="a_Node000011"><a xlink:title=" ">
<polygon fill="#e0e0e0" stroke="#999999" points="977,-35.5 899,-35.5 899,-16.5 977,-16.5 977,-35.5"/>
<text text-anchor="middle" x="938" y="-23.5" font-family="Helvetica,sans-Serif" font-size="10.00">RtosMutex.h</text>
</a>
</g>
</g>
<!-- Node1&#45;&gt;Node11 -->
<g id="edge10_Node000001_Node000011" class="edge">
<title>Node1&#45;&gt;Node11</title>
<g id="a_edge10_Node000001_Node000011"><a xlink:title=" ">
<path fill="none" stroke="#63b8ff" d="M431.39,-94.3C549.18,-89.51 805.44,-76.58 890,-52 898.85,-49.43 907.97,-45.15 915.85,-40.86"/>
<polygon fill="#63b8ff" stroke="#63b8ff" points="917.83,-43.76 924.74,-35.73 914.33,-37.7 917.83,-43.76"/>
</a>
</g>
</g>
</g>
</svg>
