<?xml version="1.0" encoding="UTF-8" standalone="no"?>
<!DOCTYPE svg PUBLIC "-//W3C//DTD SVG 1.1//EN"
 "http://www.w3.org/Graphics/SVG/1.1/DTD/svg11.dtd">
<!-- Generated by graphviz version 2.43.0 (0)
 -->
<!-- Title: Tmc5160Handler.h Pages: 1 -->
<svg width="1484pt" height="115pt"
 viewBox="0.00 0.00 1484.00 115.00" xmlns="http://www.w3.org/2000/svg" xmlns:xlink="http://www.w3.org/1999/xlink">
<g id="graph0" class="graph" transform="scale(1 1) rotate(0) translate(4 111)">
<title>Tmc5160Handler.h</title>
<!-- Node1 -->
<g id="Node000001" class="node">
<title>Node1</title>
<g id="a_Node000001"><a xlink:title="Unified handler for TMC5160/TMC5130 stepper motor driver with SPI/UART integration.">
<polygon fill="#999999" stroke="#666666" points="651,-107 543,-107 543,-88 651,-88 651,-107"/>
<text text-anchor="middle" x="597" y="-95" font-family="Helvetica,sans-Serif" font-size="10.00">Tmc5160Handler.h</text>
</a>
</g>
</g>
<!-- Node2 -->
<g id="Node000002" class="node">
<title>Node2</title>
<g id="a_Node000002"><a xlink:title=" ">
<polygon fill="#e0e0e0" stroke="#999999" points="50,-35.5 0,-35.5 0,-16.5 50,-16.5 50,-35.5"/>
<text text-anchor="middle" x="25" y="-23.5" font-family="Helvetica,sans-Serif" font-size="10.00">cstdint</text>
</a>
</g>
</g>
<!-- Node1&#45;&gt;Node2 -->
<g id="edge1_Node000001_Node000002" class="edge">
<title>Node1&#45;&gt;Node2</title>
<g id="a_edge1_Node000001_Node000002"><a xlink:title=" ">
<path fill="none" stroke="#63b8ff" d="M542.74,-95.74C424.38,-93.5 146.55,-84.78 59,-52 52.85,-49.7 46.83,-45.94 41.61,-42.03"/>
<polygon fill="#63b8ff" stroke="#63b8ff" points="43.65,-39.17 33.7,-35.53 39.21,-44.58 43.65,-39.17"/>
</a>
</g>
</g>
<!-- Node3 -->
<g id="Node000003" class="node">
<title>Node3</title>
<g id="a_Node000003"><a xlink:title=" ">
<polygon fill="#e0e0e0" stroke="#999999" points="126,-35.5 68,-35.5 68,-16.5 126,-16.5 126,-35.5"/>
<text text-anchor="middle" x="97" y="-23.5" font-family="Helvetica,sans-Serif" font-size="10.00">memory</text>
</a>
</g>
</g>
<!-- Node1&#45;&gt;Node3 -->
<g id="edge2_Node000001_Node000003" class="edge">
<title>Node1&#45;&gt;Node3</title>
<g id="a_edge2_Node000001_Node000003"><a xlink:title=" ">
<path fill="none" stroke="#63b8ff" d="M542.62,-94.54C437.2,-90.21 208.9,-78.06 135,-52 128.26,-49.62 121.53,-45.8 115.65,-41.85"/>
<polygon fill="#63b8ff" stroke="#63b8ff" points="117.37,-38.78 107.23,-35.73 113.26,-44.44 117.37,-38.78"/>
</a>
</g>
</g>
<!-- Node4 -->
<g id="Node000004" class="node">
<title>Node4</title>
<g id="a_Node000004"><a xlink:title=" ">
<polygon fill="#e0e0e0" stroke="#999999" points="213.5,-35.5 144.5,-35.5 144.5,-16.5 213.5,-16.5 213.5,-35.5"/>
<text text-anchor="middle" x="179" y="-23.5" font-family="Helvetica,sans-Serif" font-size="10.00">type_traits</text>
</a>
</g>
</g>
<!-- Node1&#45;&gt;Node4 -->
<g id="edge3_Node000001_Node000004" class="edge">
<title>Node1&#45;&gt;Node4</title>
<g id="a_edge3_Node000001_Node000004"><a xlink:title=" ">
<path fill="none" stroke="#63b8ff" d="M542.72,-96.9C468.42,-95.92 331.75,-88.66 222,-52 214.23,-49.4 206.31,-45.3 199.42,-41.16"/>
<polygon fill="#63b8ff" stroke="#63b8ff" points="201.09,-38.07 190.78,-35.63 197.32,-43.97 201.09,-38.07"/>
</a>
</g>
</g>
<!-- Node5 -->
<g id="Node000005" class="node">
<title>Node5</title>
<g id="a_Node000005"><a xlink:title=" ">
<polygon fill="#e0e0e0" stroke="#999999" points="284.5,-35.5 231.5,-35.5 231.5,-16.5 284.5,-16.5 284.5,-35.5"/>
<text text-anchor="middle" x="258" y="-23.5" font-family="Helvetica,sans-Serif" font-size="10.00">cstdarg</text>
</a>
</g>
</g>
<!-- Node1&#45;&gt;Node5 -->
<g id="edge4_Node000001_Node000005" class="edge">
<title>Node1&#45;&gt;Node5</title>
<g id="a_edge4_Node000001_Node000005"><a xlink:title=" ">
<path fill="none" stroke="#63b8ff" d="M542.84,-96.19C480.45,-94.12 375.88,-85.37 293,-52 286.88,-49.53 280.81,-45.79 275.49,-41.94"/>
<polygon fill="#63b8ff" stroke="#63b8ff" points="277.39,-38.99 267.36,-35.58 273.08,-44.5 277.39,-38.99"/>
</a>
</g>
</g>
<!-- Node6 -->
<g id="Node000006" class="node">
<title>Node6</title>
<g id="a_Node000006"><a xlink:title=" ">
<polygon fill="#e0e0e0" stroke="#999999" points="353.5,-35.5 302.5,-35.5 302.5,-16.5 353.5,-16.5 353.5,-35.5"/>
<text text-anchor="middle" x="328" y="-23.5" font-family="Helvetica,sans-Serif" font-size="10.00">variant</text>
</a>
</g>
</g>
<!-- Node1&#45;&gt;Node6 -->
<g id="edge5_Node000001_Node000006" class="edge">
<title>Node1&#45;&gt;Node6</title>
<g id="a_edge5_Node000001_Node000006"><a xlink:title=" ">
<path fill="none" stroke="#63b8ff" d="M542.73,-93.09C493.76,-88.44 420.63,-77.52 362,-52 356.15,-49.45 350.34,-45.74 345.23,-41.96"/>
<polygon fill="#63b8ff" stroke="#63b8ff" points="347.39,-39.2 337.39,-35.71 343.02,-44.68 347.39,-39.2"/>
</a>
</g>
</g>
<!-- Node7 -->
<g id="Node000007" class="node">
<title>Node7</title>
<g id="a_Node000007"><a xlink:title=" ">
<polygon fill="#e0e0e0" stroke="#999999" points="504.5,-46.5 371.5,-46.5 371.5,-5.5 504.5,-5.5 504.5,-46.5"/>
<text text-anchor="start" x="379.5" y="-34.5" font-family="Helvetica,sans-Serif" font-size="10.00">core/hf&#45;core&#45;drivers</text>
<text text-anchor="start" x="379.5" y="-23.5" font-family="Helvetica,sans-Serif" font-size="10.00">/external/hf&#45;tmc5160</text>
<text text-anchor="middle" x="438" y="-12.5" font-family="Helvetica,sans-Serif" font-size="10.00">&#45;driver/inc/tmc51x0.hpp</text>
</a>
</g>
</g>
<!-- Node1&#45;&gt;Node7 -->
<g id="edge6_Node000001_Node000007" class="edge">
<title>Node1&#45;&gt;Node7</title>
<g id="a_edge6_Node000001_Node000007"><a xlink:title=" ">
<path fill="none" stroke="#63b8ff" d="M577.5,-87.98C556.33,-78.72 521.57,-63.53 492.05,-50.63"/>
<polygon fill="#63b8ff" stroke="#63b8ff" points="493.24,-47.33 482.67,-46.53 490.43,-53.74 493.24,-47.33"/>
</a>
</g>
</g>
<!-- Node8 -->
<g id="Node000008" class="node">
<title>Node8</title>
<g id="a_Node000008"><a xlink:title=" ">
<polygon fill="#e0e0e0" stroke="#999999" points="671,-52 523,-52 523,0 671,0 671,-52"/>
<text text-anchor="start" x="531" y="-40" font-family="Helvetica,sans-Serif" font-size="10.00">core/hf&#45;core&#45;drivers</text>
<text text-anchor="start" x="531" y="-29" font-family="Helvetica,sans-Serif" font-size="10.00">/external/hf&#45;tmc5160</text>
<text text-anchor="start" x="531" y="-18" font-family="Helvetica,sans-Serif" font-size="10.00">&#45;driver/inc/tmc51x0_comm</text>
<text text-anchor="middle" x="597" y="-7" font-family="Helvetica,sans-Serif" font-size="10.00">_interface.hpp</text>
</a>
</g>
</g>
<!-- Node1&#45;&gt;Node8 -->
<g id="edge7_Node000001_Node000008" class="edge">
<title>Node1&#45;&gt;Node8</title>
<g id="a_edge7_Node000001_Node000008"><a xlink:title=" ">
<path fill="none" stroke="#63b8ff" d="M597,-87.98C597,-81.43 597,-71.91 597,-62.33"/>
<polygon fill="#63b8ff" stroke="#63b8ff" points="600.5,-62.05 597,-52.05 593.5,-62.05 600.5,-62.05"/>
</a>
</g>
</g>
<!-- Node9 -->
<g id="Node000009" class="node">
<title>Node9</title>
<g id="a_Node000009"><a xlink:title=" ">
<polygon fill="#e0e0e0" stroke="#999999" points="854.5,-46.5 689.5,-46.5 689.5,-5.5 854.5,-5.5 854.5,-46.5"/>
<text text-anchor="start" x="697.5" y="-34.5" font-family="Helvetica,sans-Serif" font-size="10.00">core/hf&#45;core&#45;drivers</text>
<text text-anchor="start" x="697.5" y="-23.5" font-family="Helvetica,sans-Serif" font-size="10.00">/external/hf&#45;tmc5160</text>
<text text-anchor="middle" x="772" y="-12.5" font-family="Helvetica,sans-Serif" font-size="10.00">&#45;driver/inc/tmc51x0_types.hpp</text>
</a>
</g>
</g>
<!-- Node1&#45;&gt;Node9 -->
<g id="edge8_Node000001_Node000009" class="edge">
<title>Node1&#45;&gt;Node9</title>
<g id="a_edge8_Node000001_Node000009"><a xlink:title=" ">
<path fill="none" stroke="#63b8ff" d="M618.46,-87.98C641.97,-78.64 680.68,-63.27 713.35,-50.29"/>
<polygon fill="#63b8ff" stroke="#63b8ff" points="714.83,-53.47 722.83,-46.53 712.24,-46.97 714.83,-53.47"/>
</a>
</g>
</g>
<!-- Node10 -->
<g id="Node000010" class="node">
<title>Node10</title>
<g id="a_Node000010"><a xlink:title=" ">
<polygon fill="#e0e0e0" stroke="#999999" points="1039,-46.5 873,-46.5 873,-5.5 1039,-5.5 1039,-46.5"/>
<text text-anchor="start" x="881" y="-34.5" font-family="Helvetica,sans-Serif" font-size="10.00">core/hf&#45;core&#45;drivers</text>
<text text-anchor="start" x="881" y="-23.5" font-family="Helvetica,sans-Serif" font-size="10.00">/external/hf&#45;tmc5160</text>
<text text-anchor="middle" x="956" y="-12.5" font-family="Helvetica,sans-Serif" font-size="10.00">&#45;driver/inc/tmc51x0_result.hpp</text>
</a>
</g>
</g>
<!-- Node1&#45;&gt;Node10 -->
<g id="edge9_Node000001_Node000010" class="edge">
<title>Node1&#45;&gt;Node10</title>
<g id="a_edge9_Node000001_Node000010"><a xlink:title=" ">
<path fill="none" stroke="#63b8ff" d="M651,-89.12C705.15,-81.34 790.77,-68.01 864,-52 868.35,-51.05 872.8,-50.02 877.28,-48.95"/>
<polygon fill="#63b8ff" stroke="#63b8ff" points="878.24,-52.31 887.11,-46.52 876.56,-45.52 878.24,-52.31"/>
</a>
</g>
</g>
<!-- Node11 -->
<g id="Node000011" class="node">
<title>Node11</title>
<g id="a_Node000011"><a xlink:title=" ">
<polygon fill="#e0e0e0" stroke="#999999" points="1148.5,-35.5 1057.5,-35.5 1057.5,-16.5 1148.5,-16.5 1148.5,-35.5"/>
<text text-anchor="middle" x="1103" y="-23.5" font-family="Helvetica,sans-Serif" font-size="10.00">base/BaseSpi.h</text>
</a>
</g>
</g>
<!-- Node1&#45;&gt;Node11 -->
<g id="edge10_Node000001_Node000011" class="edge">
<title>Node1&#45;&gt;Node11</title>
<g id="a_edge10_Node000001_Node000011"><a xlink:title=" ">
<path fill="none" stroke="#63b8ff" d="M651.13,-96.83C736.84,-96.1 908.38,-89.51 1048,-52 1058.37,-49.21 1069.25,-44.65 1078.57,-40.19"/>
<polygon fill="#63b8ff" stroke="#63b8ff" points="1080.26,-43.26 1087.63,-35.64 1077.12,-37 1080.26,-43.26"/>
</a>
</g>
</g>
<!-- Node12 -->
<g id="Node000012" class="node">
<title>Node12</title>
<g id="a_Node000012"><a xlink:title=" ">
<polygon fill="#e0e0e0" stroke="#999999" points="1263.5,-35.5 1166.5,-35.5 1166.5,-16.5 1263.5,-16.5 1263.5,-35.5"/>
<text text-anchor="middle" x="1215" y="-23.5" font-family="Helvetica,sans-Serif" font-size="10.00">base/BaseUart.h</text>
</a>
</g>
</g>
<!-- Node1&#45;&gt;Node12 -->
<g id="edge11_Node000001_Node000012" class="edge">
<title>Node1&#45;&gt;Node12</title>
<g id="a_edge11_Node000001_Node000012"><a xlink:title=" ">
<path fill="none" stroke="#63b8ff" d="M651.28,-94.5C772.69,-89.65 1063.01,-75.88 1158,-52 1168.85,-49.27 1180.24,-44.67 1189.96,-40.14"/>
<polygon fill="#63b8ff" stroke="#63b8ff" points="1191.59,-43.24 1199.05,-35.72 1188.53,-36.95 1191.59,-43.24"/>
</a>
</g>
</g>
<!-- Node13 -->
<g id="Node000013" class="node">
<title>Node13</title>
<g id="a_Node000013"><a xlink:title=" ">
<polygon fill="#e0e0e0" stroke="#999999" points="1380,-35.5 1282,-35.5 1282,-16.5 1380,-16.5 1380,-35.5"/>
<text text-anchor="middle" x="1331" y="-23.5" font-family="Helvetica,sans-Serif" font-size="10.00">base/BaseGpio.h</text>
</a>
</g>
</g>
<!-- Node1&#45;&gt;Node13 -->
<g id="edge12_Node000001_Node000013" class="edge">
<title>Node1&#45;&gt;Node13</title>
<g id="a_edge12_Node000001_Node000013"><a xlink:title=" ">
<path fill="none" stroke="#63b8ff" d="M651.06,-95.31C789.71,-91.88 1155.3,-80.35 1273,-52 1284.19,-49.3 1295.96,-44.61 1305.95,-40.02"/>
<polygon fill="#63b8ff" stroke="#63b8ff" points="1307.77,-43.03 1315.26,-35.53 1304.73,-36.72 1307.77,-43.03"/>
</a>
</g>
</g>
<!-- Node14 -->
<g id="Node000014" class="node">
<title>Node14</title>
<g id="a_Node000014"><a xlink:title=" ">
<polygon fill="#e0e0e0" stroke="#999999" points="1476,-35.5 1398,-35.5 1398,-16.5 1476,-16.5 1476,-35.5"/>
<text text-anchor="middle" x="1437" y="-23.5" font-family="Helvetica,sans-Serif" font-size="10.00">RtosMutex.h</text>
</a>
</g>
</g>
<!-- Node1&#45;&gt;Node14 -->
<g id="edge13_Node000001_Node000014" class="edge">
<title>Node1&#45;&gt;Node14</title>
<g id="a_edge13_Node000001_Node000014"><a xlink:title=" ">
<path fill="none" stroke="#63b8ff" d="M651.02,-96.42C805.94,-95.71 1249.57,-90.31 1389,-52 1398.12,-49.5 1407.48,-45.1 1415.49,-40.68"/>
<polygon fill="#63b8ff" stroke="#63b8ff" points="1417.31,-43.67 1424.18,-35.6 1413.78,-37.63 1417.31,-43.67"/>
</a>
</g>
</g>
</g>
</svg>
