<?xml version="1.0" encoding="UTF-8" standalone="no"?>
<!DOCTYPE svg PUBLIC "-//W3C//DTD SVG 1.1//EN"
 "http://www.w3.org/Graphics/SVG/1.1/DTD/svg11.dtd">
<!-- Generated by graphviz version 2.43.0 (0)
 -->
<!-- Title: os_delay_msec Pages: 1 -->
<svg width="455pt" height="348pt"
 viewBox="0.00 0.00 455.00 348.00" xmlns="http://www.w3.org/2000/svg" xmlns:xlink="http://www.w3.org/1999/xlink">
<g id="graph0" class="graph" transform="scale(1 1) rotate(0) translate(4 344)">
<title>os_delay_msec</title>
<!-- Node1 -->
<g id="Node000001" class="node">
<title>Node1</title>
<g id="a_Node000001"><a xlink:title=" ">
<polygon fill="#999999" stroke="#666666" points="447,-212 355,-212 355,-193 447,-193 447,-212"/>
<text text-anchor="middle" x="401" y="-200" font-family="Helvetica,sans-Serif" font-size="10.00">os_delay_msec</text>
</a>
</g>
</g>
<!-- Node2 -->
<g id="Node000002" class="node">
<title>Node2</title>
<g id="a_Node000002"><a xlink:href="classHalI2cBno08xComm.html#a9e31c7ef335dbf10270c642f38ecdc72" target="_top" xlink:title=" ">
<polygon fill="white" stroke="#666666" points="318.5,-340 167.5,-340 167.5,-321 318.5,-321 318.5,-340"/>
<text text-anchor="middle" x="243" y="-328" font-family="Helvetica,sans-Serif" font-size="10.00">HalI2cBno08xComm::Delay</text>
</a>
</g>
</g>
<!-- Node1&#45;&gt;Node2 -->
<g id="edge1_Node000001_Node000002" class="edge">
<title>Node1&#45;&gt;Node2</title>
<g id="a_edge1_Node000001_Node000002"><a xlink:title=" ">
<path fill="none" stroke="#63b8ff" d="M391.36,-221.34C378.96,-246.19 353.74,-289.45 319,-312.5 313.87,-315.91 308.16,-318.67 302.24,-320.91"/>
<polygon fill="#63b8ff" stroke="#63b8ff" points="394.56,-222.75 395.74,-212.22 388.25,-219.72 394.56,-222.75"/>
</a>
</g>
</g>
<!-- Node3 -->
<g id="Node000003" class="node">
<title>Node3</title>
<g id="a_Node000003"><a xlink:href="classHalSpiBno08xComm.html#a66125153a6719f71942be7b1fd925f3a" target="_top" xlink:title=" ">
<polygon fill="white" stroke="#666666" points="319,-303 167,-303 167,-284 319,-284 319,-303"/>
<text text-anchor="middle" x="243" y="-291" font-family="Helvetica,sans-Serif" font-size="10.00">HalSpiBno08xComm::Delay</text>
</a>
</g>
</g>
<!-- Node1&#45;&gt;Node3 -->
<g id="edge2_Node000001_Node000003" class="edge">
<title>Node1&#45;&gt;Node3</title>
<g id="a_edge2_Node000001_Node000003"><a xlink:title=" ">
<path fill="none" stroke="#63b8ff" d="M385.14,-219.83C370.09,-236.3 345.33,-260.54 319,-274.5 311.76,-278.34 303.71,-281.42 295.65,-283.9"/>
<polygon fill="#63b8ff" stroke="#63b8ff" points="388.05,-221.83 392.08,-212.03 382.82,-217.17 388.05,-221.83"/>
</a>
</g>
</g>
<!-- Node4 -->
<g id="Node000004" class="node">
<title>Node4</title>
<g id="a_Node000004"><a xlink:href="classHalSpiTmc5160Comm.html#a68134d1ddb4ce782d8aa4d367475f054" target="_top" xlink:title="Delay in milliseconds.">
<polygon fill="white" stroke="#666666" points="308.5,-265.5 177.5,-265.5 177.5,-235.5 308.5,-235.5 308.5,-265.5"/>
<text text-anchor="start" x="185.5" y="-253.5" font-family="Helvetica,sans-Serif" font-size="10.00">HalSpiTmc5160Comm::</text>
<text text-anchor="middle" x="243" y="-242.5" font-family="Helvetica,sans-Serif" font-size="10.00">DelayMs</text>
</a>
</g>
</g>
<!-- Node1&#45;&gt;Node4 -->
<g id="edge3_Node000001_Node000004" class="edge">
<title>Node1&#45;&gt;Node4</title>
<g id="a_edge3_Node000001_Node000004"><a xlink:title=" ">
<path fill="none" stroke="#63b8ff" d="M359.23,-215.04C338.94,-221.29 314.26,-228.88 292.95,-235.44"/>
<polygon fill="#63b8ff" stroke="#63b8ff" points="360.28,-218.38 368.81,-212.1 358.22,-211.69 360.28,-218.38"/>
</a>
</g>
</g>
<!-- Node5 -->
<g id="Node000005" class="node">
<title>Node5</title>
<g id="a_Node000005"><a xlink:href="classHalUartTmc5160Comm.html#a2ad82076cd779eee19a69de5274f9b70" target="_top" xlink:title="Delay in milliseconds.">
<polygon fill="white" stroke="#666666" points="308.5,-217.5 177.5,-217.5 177.5,-187.5 308.5,-187.5 308.5,-217.5"/>
<text text-anchor="start" x="185.5" y="-205.5" font-family="Helvetica,sans-Serif" font-size="10.00">HalUartTmc5160Comm</text>
<text text-anchor="middle" x="243" y="-194.5" font-family="Helvetica,sans-Serif" font-size="10.00">::DelayMs</text>
</a>
</g>
</g>
<!-- Node1&#45;&gt;Node5 -->
<g id="edge4_Node000001_Node000005" class="edge">
<title>Node1&#45;&gt;Node5</title>
<g id="a_edge4_Node000001_Node000005"><a xlink:title=" ">
<path fill="none" stroke="#63b8ff" d="M344.84,-202.5C333.16,-202.5 320.74,-202.5 308.75,-202.5"/>
<polygon fill="#63b8ff" stroke="#63b8ff" points="344.88,-206 354.88,-202.5 344.88,-199 344.88,-206"/>
</a>
</g>
</g>
<!-- Node6 -->
<g id="Node000006" class="node">
<title>Node6</title>
<g id="a_Node000006"><a xlink:href="namespaceanonymous__namespace_02Tmc9660Handler_8cpp_03.html#a549681b2f83c95e29a65f01db3948ed8" target="_top" xlink:title=" ">
<polygon fill="white" stroke="#666666" points="310.5,-169 175.5,-169 175.5,-128 310.5,-128 310.5,-169"/>
<text text-anchor="start" x="183.5" y="-157" font-family="Helvetica,sans-Serif" font-size="10.00">anonymous_namespace</text>
<text text-anchor="start" x="183.5" y="-146" font-family="Helvetica,sans-Serif" font-size="10.00">{Tmc9660Handler::cpp}</text>
<text text-anchor="middle" x="243" y="-135" font-family="Helvetica,sans-Serif" font-size="10.00">::halDelayMs</text>
</a>
</g>
</g>
<!-- Node1&#45;&gt;Node6 -->
<g id="edge5_Node000001_Node000006" class="edge">
<title>Node1&#45;&gt;Node6</title>
<g id="a_edge5_Node000001_Node000006"><a xlink:title=" ">
<path fill="none" stroke="#63b8ff" d="M363.01,-189.69C345.16,-183.52 323.32,-175.96 303.24,-169.01"/>
<polygon fill="#63b8ff" stroke="#63b8ff" points="361.87,-193.01 372.47,-192.97 364.16,-186.39 361.87,-193.01"/>
</a>
</g>
</g>
<!-- Node9 -->
<g id="Node000009" class="node">
<title>Node9</title>
<g id="a_Node000009"><a xlink:href="namespaceanonymous__namespace_02Tmc9660Handler_8cpp_03.html#a642d059aa537be2dbf8fc1ff98b3b591" target="_top" xlink:title=" ">
<polygon fill="white" stroke="#666666" points="310.5,-110 175.5,-110 175.5,-69 310.5,-69 310.5,-110"/>
<text text-anchor="start" x="183.5" y="-98" font-family="Helvetica,sans-Serif" font-size="10.00">anonymous_namespace</text>
<text text-anchor="start" x="183.5" y="-87" font-family="Helvetica,sans-Serif" font-size="10.00">{Tmc9660Handler::cpp}</text>
<text text-anchor="middle" x="243" y="-76" font-family="Helvetica,sans-Serif" font-size="10.00">::halDelayUs</text>
</a>
</g>
</g>
<!-- Node1&#45;&gt;Node9 -->
<g id="edge8_Node000001_Node000009" class="edge">
<title>Node1&#45;&gt;Node9</title>
<g id="a_edge8_Node000001_Node000009"><a xlink:title=" ">
<path fill="none" stroke="#63b8ff" d="M386.54,-184.87C371.71,-166.45 346.31,-137.75 319,-119.5 313.87,-116.07 308.29,-112.94 302.56,-110.09"/>
<polygon fill="#63b8ff" stroke="#63b8ff" points="383.82,-187.07 392.76,-192.76 389.32,-182.74 383.82,-187.07"/>
</a>
</g>
</g>
<!-- Node12 -->
<g id="Node000012" class="node">
<title>Node12</title>
<g id="a_Node000012"><a xlink:href="rtos__wrap__comprehensive__test_8cpp.html#a758da32a1dd5dbb8d4d379d0bf8fb615" target="_top" xlink:title=" ">
<polygon fill="white" stroke="#666666" points="285,-35 201,-35 201,-16 285,-16 285,-35"/>
<text text-anchor="middle" x="243" y="-23" font-family="Helvetica,sans-Serif" font-size="10.00">test_os_delay</text>
</a>
</g>
</g>
<!-- Node1&#45;&gt;Node12 -->
<g id="edge11_Node000001_Node000012" class="edge">
<title>Node1&#45;&gt;Node12</title>
<g id="a_edge11_Node000001_Node000012"><a xlink:title=" ">
<path fill="none" stroke="#63b8ff" d="M393.4,-183.26C382.3,-153.43 357.29,-95.78 319,-60.5 306.53,-49.01 289.62,-40.68 275.02,-35.03"/>
<polygon fill="#63b8ff" stroke="#63b8ff" points="390.19,-184.67 396.86,-192.9 396.78,-182.3 390.19,-184.67"/>
</a>
</g>
</g>
<!-- Node7 -->
<g id="Node000007" class="node">
<title>Node7</title>
<g id="a_Node000007"><a xlink:href="classHalSpiTmc9660Comm.html#a1f4360b2fe821d797fc4a8d771150656" target="_top" xlink:title="Delay execution for the specified number of milliseconds.">
<polygon fill="white" stroke="#666666" points="131,-211.5 0,-211.5 0,-181.5 131,-181.5 131,-211.5"/>
<text text-anchor="start" x="8" y="-199.5" font-family="Helvetica,sans-Serif" font-size="10.00">HalSpiTmc9660Comm::</text>
<text text-anchor="middle" x="65.5" y="-188.5" font-family="Helvetica,sans-Serif" font-size="10.00">delayMs</text>
</a>
</g>
</g>
<!-- Node6&#45;&gt;Node7 -->
<g id="edge6_Node000006_Node000007" class="edge">
<title>Node6&#45;&gt;Node7</title>
<g id="a_edge6_Node000006_Node000007"><a xlink:title=" ">
<path fill="none" stroke="#63b8ff" d="M165.68,-169.37C150.76,-173.45 135.4,-177.66 121.35,-181.5"/>
<polygon fill="#63b8ff" stroke="#63b8ff" points="166.68,-172.73 175.4,-166.72 164.83,-165.98 166.68,-172.73"/>
</a>
</g>
</g>
<!-- Node8 -->
<g id="Node000008" class="node">
<title>Node8</title>
<g id="a_Node000008"><a xlink:href="classHalUartTmc9660Comm.html#ac4e3272567e3486a74e62d53ccd814d9" target="_top" xlink:title="Delay execution for the specified number of milliseconds.">
<polygon fill="white" stroke="#666666" points="131,-163.5 0,-163.5 0,-133.5 131,-133.5 131,-163.5"/>
<text text-anchor="start" x="8" y="-151.5" font-family="Helvetica,sans-Serif" font-size="10.00">HalUartTmc9660Comm</text>
<text text-anchor="middle" x="65.5" y="-140.5" font-family="Helvetica,sans-Serif" font-size="10.00">::delayMs</text>
</a>
</g>
</g>
<!-- Node6&#45;&gt;Node8 -->
<g id="edge7_Node000006_Node000008" class="edge">
<title>Node6&#45;&gt;Node8</title>
<g id="a_edge7_Node000006_Node000008"><a xlink:title=" ">
<path fill="none" stroke="#63b8ff" d="M165.06,-148.5C153.7,-148.5 142.1,-148.5 131.02,-148.5"/>
<polygon fill="#63b8ff" stroke="#63b8ff" points="165.4,-152 175.4,-148.5 165.4,-145 165.4,-152"/>
</a>
</g>
</g>
<!-- Node10 -->
<g id="Node000010" class="node">
<title>Node10</title>
<g id="a_Node000010"><a xlink:href="classHalSpiTmc9660Comm.html#aeed51d5504933aa294d940f0799c279a" target="_top" xlink:title="Delay execution for the specified number of microseconds.">
<polygon fill="white" stroke="#666666" points="131,-115.5 0,-115.5 0,-85.5 131,-85.5 131,-115.5"/>
<text text-anchor="start" x="8" y="-103.5" font-family="Helvetica,sans-Serif" font-size="10.00">HalSpiTmc9660Comm::</text>
<text text-anchor="middle" x="65.5" y="-92.5" font-family="Helvetica,sans-Serif" font-size="10.00">delayUs</text>
</a>
</g>
</g>
<!-- Node9&#45;&gt;Node10 -->
<g id="edge9_Node000009_Node000010" class="edge">
<title>Node9&#45;&gt;Node10</title>
<g id="a_edge9_Node000009_Node000010"><a xlink:title=" ">
<path fill="none" stroke="#63b8ff" d="M165.41,-94.3C153.94,-95.02 142.21,-95.75 131.02,-96.46"/>
<polygon fill="#63b8ff" stroke="#63b8ff" points="165.64,-97.79 175.4,-93.67 165.2,-90.81 165.64,-97.79"/>
</a>
</g>
</g>
<!-- Node11 -->
<g id="Node000011" class="node">
<title>Node11</title>
<g id="a_Node000011"><a xlink:href="classHalUartTmc9660Comm.html#a03e458d1dca85da1149a9040d8458c06" target="_top" xlink:title="Delay execution for the specified number of microseconds.">
<polygon fill="white" stroke="#666666" points="131,-67.5 0,-67.5 0,-37.5 131,-37.5 131,-67.5"/>
<text text-anchor="start" x="8" y="-55.5" font-family="Helvetica,sans-Serif" font-size="10.00">HalUartTmc9660Comm</text>
<text text-anchor="middle" x="65.5" y="-44.5" font-family="Helvetica,sans-Serif" font-size="10.00">::delayUs</text>
</a>
</g>
</g>
<!-- Node9&#45;&gt;Node11 -->
<g id="edge10_Node000009_Node000011" class="edge">
<title>Node9&#45;&gt;Node11</title>
<g id="a_edge10_Node000009_Node000011"><a xlink:title=" ">
<path fill="none" stroke="#63b8ff" d="M165.41,-73.35C153.94,-70.93 142.21,-68.46 131.02,-66.1"/>
<polygon fill="#63b8ff" stroke="#63b8ff" points="164.89,-76.82 175.4,-75.46 166.34,-69.97 164.89,-76.82"/>
</a>
</g>
</g>
<!-- Node13 -->
<g id="Node000013" class="node">
<title>Node13</title>
<g id="a_Node000013"><a xlink:href="rtos__wrap__comprehensive__test_8cpp.html#a630544a7f0a2cc40d8a7fefab7e2fe70" target="_top" xlink:title=" ">
<polygon fill="white" stroke="#666666" points="98,-19 33,-19 33,0 98,0 98,-19"/>
<text text-anchor="middle" x="65.5" y="-7" font-family="Helvetica,sans-Serif" font-size="10.00">app_main</text>
</a>
</g>
</g>
<!-- Node12&#45;&gt;Node13 -->
<g id="edge12_Node000012_Node000013" class="edge">
<title>Node12&#45;&gt;Node13</title>
<g id="a_edge12_Node000012_Node000013"><a xlink:title=" ">
<path fill="none" stroke="#63b8ff" d="M190.57,-20.81C160.61,-18.08 123.79,-14.72 98.07,-12.38"/>
<polygon fill="#63b8ff" stroke="#63b8ff" points="190.58,-24.33 200.85,-21.75 191.21,-17.36 190.58,-24.33"/>
</a>
</g>
</g>
</g>
</svg>
