<?xml version="1.0" encoding="UTF-8" standalone="no"?>
<!DOCTYPE svg PUBLIC "-//W3C//DTD SVG 1.1//EN"
 "http://www.w3.org/Graphics/SVG/1.1/DTD/svg11.dtd">
<!-- Generated by graphviz version 2.43.0 (0)
 -->
<!-- Title: Tmc5160Handler.h Pages: 1 -->
<svg width="328pt" height="93pt"
 viewBox="0.00 0.00 327.50 93.00" xmlns="http://www.w3.org/2000/svg" xmlns:xlink="http://www.w3.org/1999/xlink">
<g id="graph0" class="graph" transform="scale(1 1) rotate(0) translate(4 89)">
<title>Tmc5160Handler.h</title>
<!-- Node1 -->
<g id="Node000001" class="node">
<title>Node1</title>
<g id="a_Node000001"><a xlink:title="Unified handler for TMC5160/TMC5130 stepper motor driver with SPI/UART integration.">
<polygon fill="#999999" stroke="#666666" points="197.5,-85 89.5,-85 89.5,-66 197.5,-66 197.5,-85"/>
<text text-anchor="middle" x="143.5" y="-73" font-family="Helvetica,sans-Serif" font-size="10.00">Tmc5160Handler.h</text>
</a>
</g>
</g>
<!-- Node2 -->
<g id="Node000002" class="node">
<title>Node2</title>
<g id="a_Node000002"><a xlink:href="Tmc5160Handler_8cpp.html" target="_top" xlink:title="Implementation of TMC5160 handler with SPI/UART communication adapters.">
<polygon fill="white" stroke="#666666" points="119,-24.5 0,-24.5 0,-5.5 119,-5.5 119,-24.5"/>
<text text-anchor="middle" x="59.5" y="-12.5" font-family="Helvetica,sans-Serif" font-size="10.00">Tmc5160Handler.cpp</text>
</a>
</g>
</g>
<!-- Node1&#45;&gt;Node2 -->
<g id="edge1_Node000001_Node000002" class="edge">
<title>Node1&#45;&gt;Node2</title>
<g id="a_edge1_Node000001_Node000002"><a xlink:title=" ">
<path fill="none" stroke="#63b8ff" d="M122.46,-59.85C106.55,-48.77 85.24,-33.93 71.95,-24.67"/>
<polygon fill="#63b8ff" stroke="#63b8ff" points="120.9,-63.03 131.11,-65.87 124.9,-57.28 120.9,-63.03"/>
</a>
</g>
</g>
<!-- Node3 -->
<g id="Node000003" class="node">
<title>Node3</title>
<g id="a_Node000003"><a xlink:href="tmc5160__handler__comprehensive__test_8cpp.html" target="_top" xlink:title="Comprehensive test suite for Tmc5160Handler.">
<polygon fill="white" stroke="#666666" points="319.5,-30 137.5,-30 137.5,0 319.5,0 319.5,-30"/>
<text text-anchor="start" x="145.5" y="-18" font-family="Helvetica,sans-Serif" font-size="10.00">tmc5160_handler_comprehensive</text>
<text text-anchor="middle" x="228.5" y="-7" font-family="Helvetica,sans-Serif" font-size="10.00">_test.cpp</text>
</a>
</g>
</g>
<!-- Node1&#45;&gt;Node3 -->
<g id="edge2_Node000001_Node000003" class="edge">
<title>Node1&#45;&gt;Node3</title>
<g id="a_edge2_Node000001_Node000003"><a xlink:title=" ">
<path fill="none" stroke="#63b8ff" d="M164.52,-60.03C177.79,-50.9 194.83,-39.17 207.99,-30.11"/>
<polygon fill="#63b8ff" stroke="#63b8ff" points="162.3,-57.32 156.04,-65.87 166.26,-63.08 162.3,-57.32"/>
</a>
</g>
</g>
</g>
</svg>
