<?xml version="1.0" encoding="UTF-8" standalone="no"?>
<!DOCTYPE svg PUBLIC "-//W3C//DTD SVG 1.1//EN"
 "http://www.w3.org/Graphics/SVG/1.1/DTD/svg11.dtd">
<!-- Generated by graphviz version 2.43.0 (0)
 -->
<!-- Title: Tmc5160Handler.cpp Pages: 1 -->
<svg width="1723pt" height="170pt"
 viewBox="0.00 0.00 1723.00 170.00" xmlns="http://www.w3.org/2000/svg" xmlns:xlink="http://www.w3.org/1999/xlink">
<g id="graph0" class="graph" transform="scale(1 1) rotate(0) translate(4 166)">
<title>Tmc5160Handler.cpp</title>
<!-- Node1 -->
<g id="Node000001" class="node">
<title>Node1</title>
<g id="a_Node000001"><a xlink:title="Implementation of TMC5160 handler with SPI/UART communication adapters.">
<polygon fill="#999999" stroke="#666666" points="1216.5,-162 1097.5,-162 1097.5,-143 1216.5,-143 1216.5,-162"/>
<text text-anchor="middle" x="1157" y="-150" font-family="Helvetica,sans-Serif" font-size="10.00">Tmc5160Handler.cpp</text>
</a>
</g>
</g>
<!-- Node2 -->
<g id="Node000002" class="node">
<title>Node2</title>
<g id="a_Node000002"><a xlink:href="Tmc5160Handler_8h.html" target="_top" xlink:title="Unified handler for TMC5160/TMC5130 stepper motor driver with SPI/UART integration.">
<polygon fill="white" stroke="#666666" points="865,-107 757,-107 757,-88 865,-88 865,-107"/>
<text text-anchor="middle" x="811" y="-95" font-family="Helvetica,sans-Serif" font-size="10.00">Tmc5160Handler.h</text>
</a>
</g>
</g>
<!-- Node1&#45;&gt;Node2 -->
<g id="edge1_Node000001_Node000002" class="edge">
<title>Node1&#45;&gt;Node2</title>
<g id="a_edge1_Node000001_Node000002"><a xlink:title=" ">
<path fill="none" stroke="#63b8ff" d="M1101.41,-142.98C1039.67,-133.53 940.15,-118.28 875.15,-108.33"/>
<polygon fill="#63b8ff" stroke="#63b8ff" points="875.44,-104.83 865.03,-106.78 874.38,-111.75 875.44,-104.83"/>
</a>
</g>
</g>
<!-- Node15 -->
<g id="Node000015" class="node">
<title>Node15</title>
<g id="a_Node000015"><a xlink:href="Logger_8h.html" target="_top" xlink:title="Advanced logging system with formatting capabilities.">
<polygon fill="white" stroke="#666666" points="1564,-107 1506,-107 1506,-88 1564,-88 1564,-107"/>
<text text-anchor="middle" x="1535" y="-95" font-family="Helvetica,sans-Serif" font-size="10.00">Logger.h</text>
</a>
</g>
</g>
<!-- Node1&#45;&gt;Node15 -->
<g id="edge14_Node000001_Node000015" class="edge">
<title>Node1&#45;&gt;Node15</title>
<g id="a_edge14_Node000001_Node000015"><a xlink:title=" ">
<path fill="none" stroke="#63b8ff" d="M1216.9,-143.1C1294.95,-132.16 1429.28,-113.32 1495.6,-104.02"/>
<polygon fill="#63b8ff" stroke="#63b8ff" points="1496.22,-107.47 1505.64,-102.62 1495.25,-100.54 1496.22,-107.47"/>
</a>
</g>
</g>
<!-- Node3 -->
<g id="Node000003" class="node">
<title>Node3</title>
<g id="a_Node000003"><a xlink:title=" ">
<polygon fill="#e0e0e0" stroke="#999999" points="50,-35.5 0,-35.5 0,-16.5 50,-16.5 50,-35.5"/>
<text text-anchor="middle" x="25" y="-23.5" font-family="Helvetica,sans-Serif" font-size="10.00">cstdint</text>
</a>
</g>
</g>
<!-- Node2&#45;&gt;Node3 -->
<g id="edge2_Node000002_Node000003" class="edge">
<title>Node2&#45;&gt;Node3</title>
<g id="a_edge2_Node000002_Node000003"><a xlink:title=" ">
<path fill="none" stroke="#63b8ff" d="M756.91,-95.07C595.45,-90.56 124.08,-75.5 59,-52 52.82,-49.77 46.8,-46.03 41.58,-42.12"/>
<polygon fill="#63b8ff" stroke="#63b8ff" points="43.62,-39.26 33.67,-35.6 39.16,-44.66 43.62,-39.26"/>
</a>
</g>
</g>
<!-- Node4 -->
<g id="Node000004" class="node">
<title>Node4</title>
<g id="a_Node000004"><a xlink:title=" ">
<polygon fill="#e0e0e0" stroke="#999999" points="1463,-35.5 1405,-35.5 1405,-16.5 1463,-16.5 1463,-35.5"/>
<text text-anchor="middle" x="1434" y="-23.5" font-family="Helvetica,sans-Serif" font-size="10.00">memory</text>
</a>
</g>
</g>
<!-- Node2&#45;&gt;Node4 -->
<g id="edge3_Node000002_Node000004" class="edge">
<title>Node2&#45;&gt;Node4</title>
<g id="a_edge3_Node000002_Node000004"><a xlink:title=" ">
<path fill="none" stroke="#63b8ff" d="M865.46,-95.74C991.07,-93.44 1297.73,-84.56 1395,-52 1402.17,-49.6 1409.34,-45.59 1415.54,-41.47"/>
<polygon fill="#63b8ff" stroke="#63b8ff" points="1417.72,-44.21 1423.81,-35.55 1413.64,-38.52 1417.72,-44.21"/>
</a>
</g>
</g>
<!-- Node5 -->
<g id="Node000005" class="node">
<title>Node5</title>
<g id="a_Node000005"><a xlink:title=" ">
<polygon fill="#e0e0e0" stroke="#999999" points="137.5,-35.5 68.5,-35.5 68.5,-16.5 137.5,-16.5 137.5,-35.5"/>
<text text-anchor="middle" x="103" y="-23.5" font-family="Helvetica,sans-Serif" font-size="10.00">type_traits</text>
</a>
</g>
</g>
<!-- Node2&#45;&gt;Node5 -->
<g id="edge4_Node000002_Node000005" class="edge">
<title>Node2&#45;&gt;Node5</title>
<g id="a_edge4_Node000002_Node000005"><a xlink:title=" ">
<path fill="none" stroke="#63b8ff" d="M756.85,-96.05C619.37,-94.39 259.7,-86.76 146,-52 138.05,-49.57 130,-45.43 123.05,-41.22"/>
<polygon fill="#63b8ff" stroke="#63b8ff" points="124.66,-38.09 114.36,-35.57 120.84,-43.95 124.66,-38.09"/>
</a>
</g>
</g>
<!-- Node6 -->
<g id="Node000006" class="node">
<title>Node6</title>
<g id="a_Node000006"><a xlink:title=" ">
<polygon fill="#e0e0e0" stroke="#999999" points="208.5,-35.5 155.5,-35.5 155.5,-16.5 208.5,-16.5 208.5,-35.5"/>
<text text-anchor="middle" x="182" y="-23.5" font-family="Helvetica,sans-Serif" font-size="10.00">cstdarg</text>
</a>
</g>
</g>
<!-- Node2&#45;&gt;Node6 -->
<g id="edge5_Node000002_Node000006" class="edge">
<title>Node2&#45;&gt;Node6</title>
<g id="a_edge5_Node000002_Node000006"><a xlink:title=" ">
<path fill="none" stroke="#63b8ff" d="M756.91,-96.15C629.82,-94.75 315.45,-87.66 217,-52 210.7,-49.72 204.52,-45.97 199.15,-42.06"/>
<polygon fill="#63b8ff" stroke="#63b8ff" points="200.99,-39.05 190.99,-35.55 196.63,-44.52 200.99,-39.05"/>
</a>
</g>
</g>
<!-- Node7 -->
<g id="Node000007" class="node">
<title>Node7</title>
<g id="a_Node000007"><a xlink:title=" ">
<polygon fill="#e0e0e0" stroke="#999999" points="359.5,-46.5 226.5,-46.5 226.5,-5.5 359.5,-5.5 359.5,-46.5"/>
<text text-anchor="start" x="234.5" y="-34.5" font-family="Helvetica,sans-Serif" font-size="10.00">core/hf&#45;core&#45;drivers</text>
<text text-anchor="start" x="234.5" y="-23.5" font-family="Helvetica,sans-Serif" font-size="10.00">/external/hf&#45;tmc5160</text>
<text text-anchor="middle" x="293" y="-12.5" font-family="Helvetica,sans-Serif" font-size="10.00">&#45;driver/inc/tmc51x0.hpp</text>
</a>
</g>
</g>
<!-- Node2&#45;&gt;Node7 -->
<g id="edge6_Node000002_Node000007" class="edge">
<title>Node2&#45;&gt;Node7</title>
<g id="a_edge6_Node000002_Node000007"><a xlink:title=" ">
<path fill="none" stroke="#63b8ff" d="M756.67,-94.83C672.69,-91.39 506.69,-81.21 369,-52 365.21,-51.2 361.34,-50.27 357.46,-49.26"/>
<polygon fill="#63b8ff" stroke="#63b8ff" points="358.39,-45.89 347.82,-46.59 356.53,-52.63 358.39,-45.89"/>
</a>
</g>
</g>
<!-- Node8 -->
<g id="Node000008" class="node">
<title>Node8</title>
<g id="a_Node000008"><a xlink:title=" ">
<polygon fill="#e0e0e0" stroke="#999999" points="526,-52 378,-52 378,0 526,0 526,-52"/>
<text text-anchor="start" x="386" y="-40" font-family="Helvetica,sans-Serif" font-size="10.00">core/hf&#45;core&#45;drivers</text>
<text text-anchor="start" x="386" y="-29" font-family="Helvetica,sans-Serif" font-size="10.00">/external/hf&#45;tmc5160</text>
<text text-anchor="start" x="386" y="-18" font-family="Helvetica,sans-Serif" font-size="10.00">&#45;driver/inc/tmc51x0_comm</text>
<text text-anchor="middle" x="452" y="-7" font-family="Helvetica,sans-Serif" font-size="10.00">_interface.hpp</text>
</a>
</g>
</g>
<!-- Node2&#45;&gt;Node8 -->
<g id="edge7_Node000002_Node000008" class="edge">
<title>Node2&#45;&gt;Node8</title>
<g id="a_edge7_Node000002_Node000008"><a xlink:title=" ">
<path fill="none" stroke="#63b8ff" d="M756.91,-89.94C703.09,-82.93 618.05,-70.54 535.83,-52.07"/>
<polygon fill="#63b8ff" stroke="#63b8ff" points="536.61,-48.66 526.08,-49.84 535.05,-55.48 536.61,-48.66"/>
</a>
</g>
</g>
<!-- Node9 -->
<g id="Node000009" class="node">
<title>Node9</title>
<g id="a_Node000009"><a xlink:title=" ">
<polygon fill="#e0e0e0" stroke="#999999" points="709.5,-46.5 544.5,-46.5 544.5,-5.5 709.5,-5.5 709.5,-46.5"/>
<text text-anchor="start" x="552.5" y="-34.5" font-family="Helvetica,sans-Serif" font-size="10.00">core/hf&#45;core&#45;drivers</text>
<text text-anchor="start" x="552.5" y="-23.5" font-family="Helvetica,sans-Serif" font-size="10.00">/external/hf&#45;tmc5160</text>
<text text-anchor="middle" x="627" y="-12.5" font-family="Helvetica,sans-Serif" font-size="10.00">&#45;driver/inc/tmc51x0_types.hpp</text>
</a>
</g>
</g>
<!-- Node2&#45;&gt;Node9 -->
<g id="edge8_Node000002_Node000009" class="edge">
<title>Node2&#45;&gt;Node9</title>
<g id="a_edge8_Node000002_Node000009"><a xlink:title=" ">
<path fill="none" stroke="#63b8ff" d="M788.44,-87.98C763.61,-78.6 722.67,-63.13 688.22,-50.12"/>
<polygon fill="#63b8ff" stroke="#63b8ff" points="689.29,-46.79 678.7,-46.53 686.82,-53.34 689.29,-46.79"/>
</a>
</g>
</g>
<!-- Node10 -->
<g id="Node000010" class="node">
<title>Node10</title>
<g id="a_Node000010"><a xlink:title=" ">
<polygon fill="#e0e0e0" stroke="#999999" points="894,-46.5 728,-46.5 728,-5.5 894,-5.5 894,-46.5"/>
<text text-anchor="start" x="736" y="-34.5" font-family="Helvetica,sans-Serif" font-size="10.00">core/hf&#45;core&#45;drivers</text>
<text text-anchor="start" x="736" y="-23.5" font-family="Helvetica,sans-Serif" font-size="10.00">/external/hf&#45;tmc5160</text>
<text text-anchor="middle" x="811" y="-12.5" font-family="Helvetica,sans-Serif" font-size="10.00">&#45;driver/inc/tmc51x0_result.hpp</text>
</a>
</g>
</g>
<!-- Node2&#45;&gt;Node10 -->
<g id="edge9_Node000002_Node000010" class="edge">
<title>Node2&#45;&gt;Node10</title>
<g id="a_edge9_Node000002_Node000010"><a xlink:title=" ">
<path fill="none" stroke="#63b8ff" d="M811,-87.98C811,-80.15 811,-68.08 811,-56.74"/>
<polygon fill="#63b8ff" stroke="#63b8ff" points="814.5,-56.67 811,-46.67 807.5,-56.67 814.5,-56.67"/>
</a>
</g>
</g>
<!-- Node11 -->
<g id="Node000011" class="node">
<title>Node11</title>
<g id="a_Node000011"><a xlink:title=" ">
<polygon fill="#e0e0e0" stroke="#999999" points="1003.5,-35.5 912.5,-35.5 912.5,-16.5 1003.5,-16.5 1003.5,-35.5"/>
<text text-anchor="middle" x="958" y="-23.5" font-family="Helvetica,sans-Serif" font-size="10.00">base/BaseSpi.h</text>
</a>
</g>
</g>
<!-- Node2&#45;&gt;Node11 -->
<g id="edge10_Node000002_Node000011" class="edge">
<title>Node2&#45;&gt;Node11</title>
<g id="a_edge10_Node000002_Node000011"><a xlink:title=" ">
<path fill="none" stroke="#63b8ff" d="M829.03,-87.98C854.37,-75.99 900.77,-54.06 930.45,-40.02"/>
<polygon fill="#63b8ff" stroke="#63b8ff" points="932.28,-43.03 939.83,-35.59 929.29,-36.7 932.28,-43.03"/>
</a>
</g>
</g>
<!-- Node12 -->
<g id="Node000012" class="node">
<title>Node12</title>
<g id="a_Node000012"><a xlink:title=" ">
<polygon fill="#e0e0e0" stroke="#999999" points="1118.5,-35.5 1021.5,-35.5 1021.5,-16.5 1118.5,-16.5 1118.5,-35.5"/>
<text text-anchor="middle" x="1070" y="-23.5" font-family="Helvetica,sans-Serif" font-size="10.00">base/BaseUart.h</text>
</a>
</g>
</g>
<!-- Node2&#45;&gt;Node12 -->
<g id="edge11_Node000002_Node000012" class="edge">
<title>Node2&#45;&gt;Node12</title>
<g id="a_edge11_Node000002_Node000012"><a xlink:title=" ">
<path fill="none" stroke="#63b8ff" d="M862.1,-87.95C903.15,-80.42 962,-68.15 1012,-52 1022.49,-48.61 1033.68,-44.03 1043.41,-39.72"/>
<polygon fill="#63b8ff" stroke="#63b8ff" points="1044.91,-42.88 1052.56,-35.54 1042.01,-36.51 1044.91,-42.88"/>
</a>
</g>
</g>
<!-- Node13 -->
<g id="Node000013" class="node">
<title>Node13</title>
<g id="a_Node000013"><a xlink:title=" ">
<polygon fill="#e0e0e0" stroke="#999999" points="1235,-35.5 1137,-35.5 1137,-16.5 1235,-16.5 1235,-35.5"/>
<text text-anchor="middle" x="1186" y="-23.5" font-family="Helvetica,sans-Serif" font-size="10.00">base/BaseGpio.h</text>
</a>
</g>
</g>
<!-- Node2&#45;&gt;Node13 -->
<g id="edge12_Node000002_Node000013" class="edge">
<title>Node2&#45;&gt;Node13</title>
<g id="a_edge12_Node000002_Node000013"><a xlink:title=" ">
<path fill="none" stroke="#63b8ff" d="M865.27,-93.17C928.92,-88.29 1037.17,-76.89 1127,-52 1138.13,-48.92 1149.94,-44.22 1160.04,-39.73"/>
<polygon fill="#63b8ff" stroke="#63b8ff" points="1161.51,-42.91 1169.13,-35.55 1158.58,-36.55 1161.51,-42.91"/>
</a>
</g>
</g>
<!-- Node14 -->
<g id="Node000014" class="node">
<title>Node14</title>
<g id="a_Node000014"><a xlink:title=" ">
<polygon fill="#e0e0e0" stroke="#999999" points="1386.5,-52 1253.5,-52 1253.5,0 1386.5,0 1386.5,-52"/>
<text text-anchor="start" x="1261.5" y="-40" font-family="Helvetica,sans-Serif" font-size="10.00">core/hf&#45;core&#45;drivers</text>
<text text-anchor="start" x="1261.5" y="-29" font-family="Helvetica,sans-Serif" font-size="10.00">/internal/hf&#45;internal</text>
<text text-anchor="start" x="1261.5" y="-18" font-family="Helvetica,sans-Serif" font-size="10.00">&#45;interface&#45;wrap/inc/utils</text>
<text text-anchor="middle" x="1320" y="-7" font-family="Helvetica,sans-Serif" font-size="10.00">/RtosMutex.h</text>
</a>
</g>
</g>
<!-- Node2&#45;&gt;Node14 -->
<g id="edge13_Node000002_Node000014" class="edge">
<title>Node2&#45;&gt;Node14</title>
<g id="a_edge13_Node000002_Node000014"><a xlink:title=" ">
<path fill="none" stroke="#63b8ff" d="M865.25,-94.67C945.89,-91.13 1102.13,-81.13 1243.35,-51.91"/>
<polygon fill="#63b8ff" stroke="#63b8ff" points="1244.43,-55.26 1253.49,-49.78 1242.99,-48.41 1244.43,-55.26"/>
</a>
</g>
</g>
<!-- Node15&#45;&gt;Node4 -->
<g id="edge17_Node000015_Node000004" class="edge">
<title>Node15&#45;&gt;Node4</title>
<g id="a_edge17_Node000015_Node000004"><a xlink:title=" ">
<path fill="none" stroke="#63b8ff" d="M1522.62,-87.98C1505.73,-76.36 1475.25,-55.39 1454.82,-41.33"/>
<polygon fill="#63b8ff" stroke="#63b8ff" points="1456.71,-38.38 1446.49,-35.59 1452.74,-44.14 1456.71,-38.38"/>
</a>
</g>
</g>
<!-- Node16 -->
<g id="Node000016" class="node">
<title>Node16</title>
<g id="a_Node000016"><a xlink:title=" ">
<polygon fill="#e0e0e0" stroke="#999999" points="1525,-35.5 1481,-35.5 1481,-16.5 1525,-16.5 1525,-35.5"/>
<text text-anchor="middle" x="1503" y="-23.5" font-family="Helvetica,sans-Serif" font-size="10.00">string</text>
</a>
</g>
</g>
<!-- Node15&#45;&gt;Node16 -->
<g id="edge15_Node000015_Node000016" class="edge">
<title>Node15&#45;&gt;Node16</title>
<g id="a_edge15_Node000015_Node000016"><a xlink:title=" ">
<path fill="none" stroke="#63b8ff" d="M1531.08,-87.98C1526.18,-77.35 1517.68,-58.89 1511.32,-45.06"/>
<polygon fill="#63b8ff" stroke="#63b8ff" points="1514.32,-43.21 1506.96,-35.59 1507.96,-46.14 1514.32,-43.21"/>
</a>
</g>
</g>
<!-- Node17 -->
<g id="Node000017" class="node">
<title>Node17</title>
<g id="a_Node000017"><a xlink:title=" ">
<polygon fill="#e0e0e0" stroke="#999999" points="1590.5,-35.5 1543.5,-35.5 1543.5,-16.5 1590.5,-16.5 1590.5,-35.5"/>
<text text-anchor="middle" x="1567" y="-23.5" font-family="Helvetica,sans-Serif" font-size="10.00">vector</text>
</a>
</g>
</g>
<!-- Node15&#45;&gt;Node17 -->
<g id="edge16_Node000015_Node000017" class="edge">
<title>Node15&#45;&gt;Node17</title>
<g id="a_edge16_Node000015_Node000017"><a xlink:title=" ">
<path fill="none" stroke="#63b8ff" d="M1538.92,-87.98C1543.82,-77.35 1552.32,-58.89 1558.68,-45.06"/>
<polygon fill="#63b8ff" stroke="#63b8ff" points="1562.04,-46.14 1563.04,-35.59 1555.68,-43.21 1562.04,-46.14"/>
</a>
</g>
</g>
<!-- Node18 -->
<g id="Node000018" class="node">
<title>Node18</title>
<g id="a_Node000018"><a xlink:title=" ">
<polygon fill="#e0e0e0" stroke="#999999" points="1659,-35.5 1609,-35.5 1609,-16.5 1659,-16.5 1659,-35.5"/>
<text text-anchor="middle" x="1634" y="-23.5" font-family="Helvetica,sans-Serif" font-size="10.00">atomic</text>
</a>
</g>
</g>
<!-- Node15&#45;&gt;Node18 -->
<g id="edge18_Node000015_Node000018" class="edge">
<title>Node15&#45;&gt;Node18</title>
<g id="a_edge18_Node000015_Node000018"><a xlink:title=" ">
<path fill="none" stroke="#63b8ff" d="M1548.04,-87.76C1561.23,-78.88 1582.16,-64.66 1600,-52 1604.59,-48.74 1609.48,-45.19 1614.09,-41.82"/>
<polygon fill="#63b8ff" stroke="#63b8ff" points="1616.46,-44.41 1622.43,-35.66 1612.3,-38.78 1616.46,-44.41"/>
</a>
</g>
</g>
<!-- Node19 -->
<g id="Node000019" class="node">
<title>Node19</title>
<g id="a_Node000019"><a xlink:title=" ">
<polygon fill="#e0e0e0" stroke="#999999" points="1715,-35.5 1677,-35.5 1677,-16.5 1715,-16.5 1715,-35.5"/>
<text text-anchor="middle" x="1696" y="-23.5" font-family="Helvetica,sans-Serif" font-size="10.00">map</text>
</a>
</g>
</g>
<!-- Node15&#45;&gt;Node19 -->
<g id="edge19_Node000015_Node000019" class="edge">
<title>Node15&#45;&gt;Node19</title>
<g id="a_edge19_Node000015_Node000019"><a xlink:title=" ">
<path fill="none" stroke="#63b8ff" d="M1564.19,-90.36C1592.13,-83.66 1634.83,-71.25 1668,-52 1672.3,-49.5 1676.53,-46.27 1680.34,-42.97"/>
<polygon fill="#63b8ff" stroke="#63b8ff" points="1683,-45.27 1687.89,-35.88 1678.21,-40.17 1683,-45.27"/>
</a>
</g>
</g>
</g>
</svg>
