<?xml version="1.0" encoding="UTF-8" standalone="no"?>
<!DOCTYPE svg PUBLIC "-//W3C//DTD SVG 1.1//EN"
 "http://www.w3.org/Graphics/SVG/1.1/DTD/svg11.dtd">
<!-- Generated by graphviz version 2.43.0 (0)
 -->
<!-- Title: Tmc9660Handler.cpp Pages: 1 -->
<svg width="1674pt" height="192pt"
 viewBox="0.00 0.00 1673.50 192.00" xmlns="http://www.w3.org/2000/svg" xmlns:xlink="http://www.w3.org/1999/xlink">
<g id="graph0" class="graph" transform="scale(1 1) rotate(0) translate(4 188)">
<title>Tmc9660Handler.cpp</title>
<!-- Node1 -->
<g id="Node000001" class="node">
<title>Node1</title>
<g id="a_Node000001"><a xlink:title=" ">
<polygon fill="#999999" stroke="#666666" points="1197.5,-184 1078.5,-184 1078.5,-165 1197.5,-165 1197.5,-184"/>
<text text-anchor="middle" x="1138" y="-172" font-family="Helvetica,sans-Serif" font-size="10.00">Tmc9660Handler.cpp</text>
</a>
</g>
</g>
<!-- Node2 -->
<g id="Node000002" class="node">
<title>Node2</title>
<g id="a_Node000002"><a xlink:href="Tmc9660Handler_8h.html" target="_top" xlink:title="Unified handler for TMC9660 motor controller with GPIO, ADC, and temperature integration.">
<polygon fill="white" stroke="#666666" points="997,-118 889,-118 889,-99 997,-99 997,-118"/>
<text text-anchor="middle" x="943" y="-106" font-family="Helvetica,sans-Serif" font-size="10.00">Tmc9660Handler.h</text>
</a>
</g>
</g>
<!-- Node1&#45;&gt;Node2 -->
<g id="edge1_Node000001_Node000002" class="edge">
<title>Node1&#45;&gt;Node2</title>
<g id="a_edge1_Node000001_Node000002"><a xlink:title=" ">
<path fill="none" stroke="#63b8ff" d="M1111.7,-164.87C1077.44,-153.62 1017.39,-133.92 978.95,-121.3"/>
<polygon fill="#63b8ff" stroke="#63b8ff" points="979.79,-117.89 969.19,-118.1 977.6,-124.54 979.79,-117.89"/>
</a>
</g>
</g>
<!-- Node17 -->
<g id="Node000017" class="node">
<title>Node17</title>
<g id="a_Node000017"><a xlink:title=" ">
<polygon fill="#e0e0e0" stroke="#999999" points="1065,-118 1015,-118 1015,-99 1065,-99 1065,-118"/>
<text text-anchor="middle" x="1040" y="-106" font-family="Helvetica,sans-Serif" font-size="10.00">cstring</text>
</a>
</g>
</g>
<!-- Node1&#45;&gt;Node17 -->
<g id="edge16_Node000001_Node000017" class="edge">
<title>Node1&#45;&gt;Node17</title>
<g id="a_edge16_Node000001_Node000017"><a xlink:title=" ">
<path fill="none" stroke="#63b8ff" d="M1124.78,-164.87C1108.64,-154.32 1081.09,-136.34 1061.79,-123.73"/>
<polygon fill="#63b8ff" stroke="#63b8ff" points="1063.61,-120.74 1053.32,-118.2 1059.78,-126.6 1063.61,-120.74"/>
</a>
</g>
</g>
<!-- Node18 -->
<g id="Node000018" class="node">
<title>Node18</title>
<g id="a_Node000018"><a xlink:title=" ">
<polygon fill="#e0e0e0" stroke="#999999" points="1129,-118 1083,-118 1083,-99 1129,-99 1129,-118"/>
<text text-anchor="middle" x="1106" y="-106" font-family="Helvetica,sans-Serif" font-size="10.00">cstdio</text>
</a>
</g>
</g>
<!-- Node1&#45;&gt;Node18 -->
<g id="edge17_Node000001_Node000018" class="edge">
<title>Node1&#45;&gt;Node18</title>
<g id="a_edge17_Node000001_Node000018"><a xlink:title=" ">
<path fill="none" stroke="#63b8ff" d="M1133.68,-164.87C1128.94,-155.38 1121.18,-139.86 1115.08,-127.66"/>
<polygon fill="#63b8ff" stroke="#63b8ff" points="1118.06,-125.78 1110.45,-118.41 1111.79,-128.91 1118.06,-125.78"/>
</a>
</g>
</g>
<!-- Node19 -->
<g id="Node000019" class="node">
<title>Node19</title>
<g id="a_Node000019"><a xlink:title=" ">
<polygon fill="#e0e0e0" stroke="#999999" points="1194.5,-118 1147.5,-118 1147.5,-99 1194.5,-99 1194.5,-118"/>
<text text-anchor="middle" x="1171" y="-106" font-family="Helvetica,sans-Serif" font-size="10.00">cmath</text>
</a>
</g>
</g>
<!-- Node1&#45;&gt;Node19 -->
<g id="edge18_Node000001_Node000019" class="edge">
<title>Node1&#45;&gt;Node19</title>
<g id="a_edge18_Node000001_Node000019"><a xlink:title=" ">
<path fill="none" stroke="#63b8ff" d="M1142.45,-164.87C1147.39,-155.28 1155.51,-139.55 1161.82,-127.3"/>
<polygon fill="#63b8ff" stroke="#63b8ff" points="1164.94,-128.9 1166.41,-118.41 1158.71,-125.69 1164.94,-128.9"/>
</a>
</g>
</g>
<!-- Node20 -->
<g id="Node000020" class="node">
<title>Node20</title>
<g id="a_Node000020"><a xlink:title=" ">
<polygon fill="#e0e0e0" stroke="#999999" points="1277,-118 1213,-118 1213,-99 1277,-99 1277,-118"/>
<text text-anchor="middle" x="1245" y="-106" font-family="Helvetica,sans-Serif" font-size="10.00">algorithm</text>
</a>
</g>
</g>
<!-- Node1&#45;&gt;Node20 -->
<g id="edge19_Node000001_Node000020" class="edge">
<title>Node1&#45;&gt;Node20</title>
<g id="a_edge19_Node000001_Node000020"><a xlink:title=" ">
<path fill="none" stroke="#63b8ff" d="M1152.43,-164.87C1170.22,-154.23 1200.68,-136.01 1221.78,-123.39"/>
<polygon fill="#63b8ff" stroke="#63b8ff" points="1223.67,-126.34 1230.46,-118.2 1220.08,-120.33 1223.67,-126.34"/>
</a>
</g>
</g>
<!-- Node21 -->
<g id="Node000021" class="node">
<title>Node21</title>
<g id="a_Node000021"><a xlink:title=" ">
<polygon fill="#e0e0e0" stroke="#999999" points="1430.5,-129 1295.5,-129 1295.5,-88 1430.5,-88 1430.5,-129"/>
<text text-anchor="start" x="1303.5" y="-117" font-family="Helvetica,sans-Serif" font-size="10.00">core/hf&#45;core&#45;utils</text>
<text text-anchor="start" x="1303.5" y="-106" font-family="Helvetica,sans-Serif" font-size="10.00">/hf&#45;utils&#45;rtos&#45;wrap</text>
<text text-anchor="middle" x="1363" y="-95" font-family="Helvetica,sans-Serif" font-size="10.00">/include/OsAbstraction.h</text>
</a>
</g>
</g>
<!-- Node1&#45;&gt;Node21 -->
<g id="edge20_Node000001_Node000021" class="edge">
<title>Node1&#45;&gt;Node21</title>
<g id="a_edge20_Node000001_Node000021"><a xlink:title=" ">
<path fill="none" stroke="#63b8ff" d="M1168.34,-164.87C1198.26,-156.36 1245.23,-143 1285.53,-131.53"/>
<polygon fill="#63b8ff" stroke="#63b8ff" points="1286.69,-134.84 1295.35,-128.74 1284.78,-128.11 1286.69,-134.84"/>
</a>
</g>
</g>
<!-- Node22 -->
<g id="Node000022" class="node">
<title>Node22</title>
<g id="a_Node000022"><a xlink:title=" ">
<polygon fill="#e0e0e0" stroke="#999999" points="1557,-129 1449,-129 1449,-88 1557,-88 1557,-129"/>
<text text-anchor="start" x="1457" y="-117" font-family="Helvetica,sans-Serif" font-size="10.00">core/hf&#45;core&#45;utils</text>
<text text-anchor="start" x="1457" y="-106" font-family="Helvetica,sans-Serif" font-size="10.00">/hf&#45;utils&#45;rtos&#45;wrap</text>
<text text-anchor="middle" x="1503" y="-95" font-family="Helvetica,sans-Serif" font-size="10.00">/include/OsUtility.h</text>
</a>
</g>
</g>
<!-- Node1&#45;&gt;Node22 -->
<g id="edge21_Node000001_Node000022" class="edge">
<title>Node1&#45;&gt;Node22</title>
<g id="a_edge21_Node000001_Node000022"><a xlink:title=" ">
<path fill="none" stroke="#63b8ff" d="M1197.52,-167.47C1256.58,-160.87 1349.76,-148.8 1438.85,-129.09"/>
<polygon fill="#63b8ff" stroke="#63b8ff" points="1439.86,-132.45 1448.85,-126.84 1438.32,-125.62 1439.86,-132.45"/>
</a>
</g>
</g>
<!-- Node23 -->
<g id="Node000023" class="node">
<title>Node23</title>
<g id="a_Node000023"><a xlink:href="Logger_8h.html" target="_top" xlink:title="Advanced logging system with formatting capabilities.">
<polygon fill="white" stroke="#666666" points="246.5,-118 109.5,-118 109.5,-99 246.5,-99 246.5,-118"/>
<text text-anchor="middle" x="178" y="-106" font-family="Helvetica,sans-Serif" font-size="10.00">handlers/logger/Logger.h</text>
</a>
</g>
</g>
<!-- Node1&#45;&gt;Node23 -->
<g id="edge22_Node000001_Node000023" class="edge">
<title>Node1&#45;&gt;Node23</title>
<g id="a_edge22_Node000001_Node000023"><a xlink:title=" ">
<path fill="none" stroke="#63b8ff" d="M1078.31,-169.52C912.09,-158.44 443.83,-127.22 256.7,-114.75"/>
<polygon fill="#63b8ff" stroke="#63b8ff" points="256.87,-111.25 246.66,-114.08 256.41,-118.24 256.87,-111.25"/>
</a>
</g>
</g>
<!-- Node3 -->
<g id="Node000003" class="node">
<title>Node3</title>
<g id="a_Node000003"><a xlink:title=" ">
<polygon fill="#e0e0e0" stroke="#999999" points="1518,-35.5 1468,-35.5 1468,-16.5 1518,-16.5 1518,-35.5"/>
<text text-anchor="middle" x="1493" y="-23.5" font-family="Helvetica,sans-Serif" font-size="10.00">cstdint</text>
</a>
</g>
</g>
<!-- Node2&#45;&gt;Node3 -->
<g id="edge2_Node000002_Node000003" class="edge">
<title>Node2&#45;&gt;Node3</title>
<g id="a_edge2_Node000002_Node000003"><a xlink:title=" ">
<path fill="none" stroke="#63b8ff" d="M966.32,-98.93C978.07,-94.96 992.62,-90.57 1006,-88 1204.34,-49.91 1269.74,-122.52 1459,-52 1465.16,-49.71 1471.17,-45.95 1476.39,-42.04"/>
<polygon fill="#63b8ff" stroke="#63b8ff" points="1478.8,-44.59 1484.3,-35.54 1474.36,-39.18 1478.8,-44.59"/>
</a>
</g>
</g>
<!-- Node4 -->
<g id="Node000004" class="node">
<title>Node4</title>
<g id="a_Node000004"><a xlink:title=" ">
<polygon fill="#e0e0e0" stroke="#999999" points="310,-35.5 252,-35.5 252,-16.5 310,-16.5 310,-35.5"/>
<text text-anchor="middle" x="281" y="-23.5" font-family="Helvetica,sans-Serif" font-size="10.00">memory</text>
</a>
</g>
</g>
<!-- Node2&#45;&gt;Node4 -->
<g id="edge3_Node000002_Node000004" class="edge">
<title>Node2&#45;&gt;Node4</title>
<g id="a_edge3_Node000002_Node000004"><a xlink:title=" ">
<path fill="none" stroke="#63b8ff" d="M888.82,-105.98C757.37,-101.77 424.67,-87.79 320,-52 312.84,-49.55 305.68,-45.53 299.48,-41.42"/>
<polygon fill="#63b8ff" stroke="#63b8ff" points="301.37,-38.47 291.2,-35.5 297.31,-44.16 301.37,-38.47"/>
</a>
</g>
</g>
<!-- Node5 -->
<g id="Node000005" class="node">
<title>Node5</title>
<g id="a_Node000005"><a xlink:title=" ">
<polygon fill="#e0e0e0" stroke="#999999" points="1578,-35.5 1536,-35.5 1536,-16.5 1578,-16.5 1578,-35.5"/>
<text text-anchor="middle" x="1557" y="-23.5" font-family="Helvetica,sans-Serif" font-size="10.00">array</text>
</a>
</g>
</g>
<!-- Node2&#45;&gt;Node5 -->
<g id="edge4_Node000002_Node000005" class="edge">
<title>Node2&#45;&gt;Node5</title>
<g id="a_edge4_Node000002_Node000005"><a xlink:title=" ">
<path fill="none" stroke="#63b8ff" d="M966.01,-98.97C977.81,-94.96 992.49,-90.52 1006,-88 1120.08,-66.7 1419.31,-95.25 1527,-52 1532.37,-49.84 1537.49,-46.35 1541.93,-42.65"/>
<polygon fill="#63b8ff" stroke="#63b8ff" points="1544.6,-44.95 1549.53,-35.57 1539.83,-39.83 1544.6,-44.95"/>
</a>
</g>
</g>
<!-- Node6 -->
<g id="Node000006" class="node">
<title>Node6</title>
<g id="a_Node000006"><a xlink:title=" ">
<polygon fill="#e0e0e0" stroke="#999999" points="234,-35.5 184,-35.5 184,-16.5 234,-16.5 234,-35.5"/>
<text text-anchor="middle" x="209" y="-23.5" font-family="Helvetica,sans-Serif" font-size="10.00">atomic</text>
</a>
</g>
</g>
<!-- Node2&#45;&gt;Node6 -->
<g id="edge5_Node000002_Node000006" class="edge">
<title>Node2&#45;&gt;Node6</title>
<g id="a_edge5_Node000002_Node000006"><a xlink:title=" ">
<path fill="none" stroke="#63b8ff" d="M888.88,-107.02C745.94,-105.15 361.24,-96.04 243,-52 236.84,-49.71 230.83,-45.95 225.61,-42.04"/>
<polygon fill="#63b8ff" stroke="#63b8ff" points="227.64,-39.18 217.7,-35.54 223.2,-44.59 227.64,-39.18"/>
</a>
</g>
</g>
<!-- Node7 -->
<g id="Node000007" class="node">
<title>Node7</title>
<g id="a_Node000007"><a xlink:title=" ">
<polygon fill="#e0e0e0" stroke="#999999" points="1665.5,-35.5 1596.5,-35.5 1596.5,-16.5 1665.5,-16.5 1665.5,-35.5"/>
<text text-anchor="middle" x="1631" y="-23.5" font-family="Helvetica,sans-Serif" font-size="10.00">type_traits</text>
</a>
</g>
</g>
<!-- Node2&#45;&gt;Node7 -->
<g id="edge6_Node000002_Node000007" class="edge">
<title>Node2&#45;&gt;Node7</title>
<g id="a_edge6_Node000002_Node000007"><a xlink:title=" ">
<path fill="none" stroke="#63b8ff" d="M966.01,-98.93C977.8,-94.91 992.49,-90.47 1006,-88 1260.49,-41.42 1339.03,-125.8 1587,-52 1595.1,-49.59 1603.34,-45.46 1610.45,-41.24"/>
<polygon fill="#63b8ff" stroke="#63b8ff" points="1612.78,-43.9 1619.35,-35.59 1609.03,-37.99 1612.78,-43.9"/>
</a>
</g>
</g>
<!-- Node8 -->
<g id="Node000008" class="node">
<title>Node8</title>
<g id="a_Node000008"><a xlink:title=" ">
<polygon fill="#e0e0e0" stroke="#999999" points="461.5,-46.5 328.5,-46.5 328.5,-5.5 461.5,-5.5 461.5,-46.5"/>
<text text-anchor="start" x="336.5" y="-34.5" font-family="Helvetica,sans-Serif" font-size="10.00">core/hf&#45;core&#45;drivers</text>
<text text-anchor="start" x="336.5" y="-23.5" font-family="Helvetica,sans-Serif" font-size="10.00">/external/hf&#45;tmc9660</text>
<text text-anchor="middle" x="395" y="-12.5" font-family="Helvetica,sans-Serif" font-size="10.00">&#45;driver/inc/tmc9660.hpp</text>
</a>
</g>
</g>
<!-- Node2&#45;&gt;Node8 -->
<g id="edge7_Node000002_Node000008" class="edge">
<title>Node2&#45;&gt;Node8</title>
<g id="a_edge7_Node000002_Node000008"><a xlink:title=" ">
<path fill="none" stroke="#63b8ff" d="M888.97,-104.68C800.66,-99.29 620.25,-84.97 471,-52 467.4,-51.2 463.72,-50.3 460.03,-49.33"/>
<polygon fill="#63b8ff" stroke="#63b8ff" points="460.83,-45.92 450.26,-46.6 458.95,-52.66 460.83,-45.92"/>
</a>
</g>
</g>
<!-- Node9 -->
<g id="Node000009" class="node">
<title>Node9</title>
<g id="a_Node000009"><a xlink:title=" ">
<polygon fill="#e0e0e0" stroke="#999999" points="628,-52 480,-52 480,0 628,0 628,-52"/>
<text text-anchor="start" x="488" y="-40" font-family="Helvetica,sans-Serif" font-size="10.00">core/hf&#45;core&#45;drivers</text>
<text text-anchor="start" x="488" y="-29" font-family="Helvetica,sans-Serif" font-size="10.00">/external/hf&#45;tmc9660</text>
<text text-anchor="start" x="488" y="-18" font-family="Helvetica,sans-Serif" font-size="10.00">&#45;driver/inc/tmc9660_comm</text>
<text text-anchor="middle" x="554" y="-7" font-family="Helvetica,sans-Serif" font-size="10.00">_interface.hpp</text>
</a>
</g>
</g>
<!-- Node2&#45;&gt;Node9 -->
<g id="edge8_Node000002_Node000009" class="edge">
<title>Node2&#45;&gt;Node9</title>
<g id="a_edge8_Node000002_Node000009"><a xlink:title=" ">
<path fill="none" stroke="#63b8ff" d="M889,-99.6C829.66,-90.5 731.41,-74.18 638,-52.13"/>
<polygon fill="#63b8ff" stroke="#63b8ff" points="638.64,-48.69 628.1,-49.77 637.01,-55.5 638.64,-48.69"/>
</a>
</g>
</g>
<!-- Node10 -->
<g id="Node000010" class="node">
<title>Node10</title>
<g id="a_Node000010"><a xlink:title=" ">
<polygon fill="#e0e0e0" stroke="#999999" points="744,-35.5 646,-35.5 646,-16.5 744,-16.5 744,-35.5"/>
<text text-anchor="middle" x="695" y="-23.5" font-family="Helvetica,sans-Serif" font-size="10.00">base/BaseGpio.h</text>
</a>
</g>
</g>
<!-- Node2&#45;&gt;Node10 -->
<g id="edge9_Node000002_Node000010" class="edge">
<title>Node2&#45;&gt;Node10</title>
<g id="a_edge9_Node000002_Node000010"><a xlink:title=" ">
<path fill="none" stroke="#63b8ff" d="M909.31,-99C871.01,-89.03 806.83,-71.38 753,-52 742.97,-48.39 732.19,-43.91 722.68,-39.75"/>
<polygon fill="#63b8ff" stroke="#63b8ff" points="723.87,-36.45 713.31,-35.58 721.02,-42.85 723.87,-36.45"/>
</a>
</g>
</g>
<!-- Node11 -->
<g id="Node000011" class="node">
<title>Node11</title>
<g id="a_Node000011"><a xlink:title=" ">
<polygon fill="#e0e0e0" stroke="#999999" points="856,-35.5 762,-35.5 762,-16.5 856,-16.5 856,-35.5"/>
<text text-anchor="middle" x="809" y="-23.5" font-family="Helvetica,sans-Serif" font-size="10.00">base/BaseAdc.h</text>
</a>
</g>
</g>
<!-- Node2&#45;&gt;Node11 -->
<g id="edge10_Node000002_Node000011" class="edge">
<title>Node2&#45;&gt;Node11</title>
<g id="a_edge10_Node000002_Node000011"><a xlink:title=" ">
<path fill="none" stroke="#63b8ff" d="M928.66,-98.89C905.49,-84.96 859.61,-57.41 831.89,-40.75"/>
<polygon fill="#63b8ff" stroke="#63b8ff" points="833.61,-37.7 823.24,-35.55 830.01,-43.7 833.61,-37.7"/>
</a>
</g>
</g>
<!-- Node12 -->
<g id="Node000012" class="node">
<title>Node12</title>
<g id="a_Node000012"><a xlink:title=" ">
<polygon fill="#e0e0e0" stroke="#999999" points="1011.5,-35.5 874.5,-35.5 874.5,-16.5 1011.5,-16.5 1011.5,-35.5"/>
<text text-anchor="middle" x="943" y="-23.5" font-family="Helvetica,sans-Serif" font-size="10.00">base/BaseTemperature.h</text>
</a>
</g>
</g>
<!-- Node2&#45;&gt;Node12 -->
<g id="edge11_Node000002_Node000012" class="edge">
<title>Node2&#45;&gt;Node12</title>
<g id="a_edge11_Node000002_Node000012"><a xlink:title=" ">
<path fill="none" stroke="#63b8ff" d="M943,-98.89C943,-86.36 943,-62.8 943,-46.07"/>
<polygon fill="#63b8ff" stroke="#63b8ff" points="946.5,-45.8 943,-35.8 939.5,-45.8 946.5,-45.8"/>
</a>
</g>
</g>
<!-- Node13 -->
<g id="Node000013" class="node">
<title>Node13</title>
<g id="a_Node000013"><a xlink:title=" ">
<polygon fill="#e0e0e0" stroke="#999999" points="1120.5,-35.5 1029.5,-35.5 1029.5,-16.5 1120.5,-16.5 1120.5,-35.5"/>
<text text-anchor="middle" x="1075" y="-23.5" font-family="Helvetica,sans-Serif" font-size="10.00">base/BaseSpi.h</text>
</a>
</g>
</g>
<!-- Node2&#45;&gt;Node13 -->
<g id="edge12_Node000002_Node000013" class="edge">
<title>Node2&#45;&gt;Node13</title>
<g id="a_edge12_Node000002_Node000013"><a xlink:title=" ">
<path fill="none" stroke="#63b8ff" d="M957.13,-98.89C979.85,-85.03 1024.75,-57.65 1052.1,-40.97"/>
<polygon fill="#63b8ff" stroke="#63b8ff" points="1054.26,-43.75 1060.98,-35.55 1050.62,-37.77 1054.26,-43.75"/>
</a>
</g>
</g>
<!-- Node14 -->
<g id="Node000014" class="node">
<title>Node14</title>
<g id="a_Node000014"><a xlink:title=" ">
<polygon fill="#e0e0e0" stroke="#999999" points="1235.5,-35.5 1138.5,-35.5 1138.5,-16.5 1235.5,-16.5 1235.5,-35.5"/>
<text text-anchor="middle" x="1187" y="-23.5" font-family="Helvetica,sans-Serif" font-size="10.00">base/BaseUart.h</text>
</a>
</g>
</g>
<!-- Node2&#45;&gt;Node14 -->
<g id="edge13_Node000002_Node000014" class="edge">
<title>Node2&#45;&gt;Node14</title>
<g id="a_edge13_Node000002_Node000014"><a xlink:title=" ">
<path fill="none" stroke="#63b8ff" d="M970.26,-98.95C981.33,-95.5 994.27,-91.52 1006,-88 1060.97,-71.52 1076.05,-71.57 1130,-52 1139.88,-48.42 1150.47,-43.95 1159.82,-39.79"/>
<polygon fill="#63b8ff" stroke="#63b8ff" points="1161.36,-42.93 1169.02,-35.61 1158.47,-36.56 1161.36,-42.93"/>
</a>
</g>
</g>
<!-- Node15 -->
<g id="Node000015" class="node">
<title>Node15</title>
<g id="a_Node000015"><a xlink:title=" ">
<polygon fill="#e0e0e0" stroke="#999999" points="1386.5,-52 1253.5,-52 1253.5,0 1386.5,0 1386.5,-52"/>
<text text-anchor="start" x="1261.5" y="-40" font-family="Helvetica,sans-Serif" font-size="10.00">core/hf&#45;core&#45;drivers</text>
<text text-anchor="start" x="1261.5" y="-29" font-family="Helvetica,sans-Serif" font-size="10.00">/internal/hf&#45;internal</text>
<text text-anchor="start" x="1261.5" y="-18" font-family="Helvetica,sans-Serif" font-size="10.00">&#45;interface&#45;wrap/inc/utils</text>
<text text-anchor="middle" x="1320" y="-7" font-family="Helvetica,sans-Serif" font-size="10.00">/RtosMutex.h</text>
</a>
</g>
</g>
<!-- Node2&#45;&gt;Node15 -->
<g id="edge14_Node000002_Node000015" class="edge">
<title>Node2&#45;&gt;Node15</title>
<g id="a_edge14_Node000002_Node000015"><a xlink:title=" ">
<path fill="none" stroke="#63b8ff" d="M967.6,-98.94C979.15,-95.17 993.16,-90.94 1006,-88 1107.55,-64.78 1138.67,-76.32 1243.11,-52.29"/>
<polygon fill="#63b8ff" stroke="#63b8ff" points="1244.18,-55.63 1253.11,-49.93 1242.57,-48.82 1244.18,-55.63"/>
</a>
</g>
</g>
<!-- Node16 -->
<g id="Node000016" class="node">
<title>Node16</title>
<g id="a_Node000016"><a xlink:title=" ">
<polygon fill="#e0e0e0" stroke="#999999" points="1449.5,-35.5 1404.5,-35.5 1404.5,-16.5 1449.5,-16.5 1449.5,-35.5"/>
<text text-anchor="middle" x="1427" y="-23.5" font-family="Helvetica,sans-Serif" font-size="10.00">utility</text>
</a>
</g>
</g>
<!-- Node2&#45;&gt;Node16 -->
<g id="edge15_Node000002_Node000016" class="edge">
<title>Node2&#45;&gt;Node16</title>
<g id="a_edge15_Node000002_Node000016"><a xlink:title=" ">
<path fill="none" stroke="#63b8ff" d="M966.63,-98.9C978.33,-94.98 992.75,-90.63 1006,-88 1176.73,-54.08 1234.7,-117.43 1396,-52 1401.61,-49.73 1407,-46.09 1411.68,-42.28"/>
<polygon fill="#63b8ff" stroke="#63b8ff" points="1414.11,-44.8 1419.2,-35.51 1409.42,-39.6 1414.11,-44.8"/>
</a>
</g>
</g>
<!-- Node23&#45;&gt;Node4 -->
<g id="edge25_Node000023_Node000004" class="edge">
<title>Node23&#45;&gt;Node4</title>
<g id="a_edge25_Node000023_Node000004"><a xlink:title=" ">
<path fill="none" stroke="#63b8ff" d="M189.02,-98.89C206.45,-85.27 240.57,-58.6 262,-41.85"/>
<polygon fill="#63b8ff" stroke="#63b8ff" points="264.33,-44.47 270.06,-35.55 260.02,-38.95 264.33,-44.47"/>
</a>
</g>
</g>
<!-- Node23&#45;&gt;Node6 -->
<g id="edge26_Node000023_Node000006" class="edge">
<title>Node23&#45;&gt;Node6</title>
<g id="a_edge26_Node000023_Node000006"><a xlink:title=" ">
<path fill="none" stroke="#63b8ff" d="M181.32,-98.89C186.19,-86.24 195.39,-62.35 201.84,-45.59"/>
<polygon fill="#63b8ff" stroke="#63b8ff" points="205.28,-46.39 205.61,-35.8 198.75,-43.87 205.28,-46.39"/>
</a>
</g>
</g>
<!-- Node24 -->
<g id="Node000024" class="node">
<title>Node24</title>
<g id="a_Node000024"><a xlink:title=" ">
<polygon fill="#e0e0e0" stroke="#999999" points="44,-35.5 0,-35.5 0,-16.5 44,-16.5 44,-35.5"/>
<text text-anchor="middle" x="22" y="-23.5" font-family="Helvetica,sans-Serif" font-size="10.00">string</text>
</a>
</g>
</g>
<!-- Node23&#45;&gt;Node24 -->
<g id="edge23_Node000023_Node000024" class="edge">
<title>Node23&#45;&gt;Node24</title>
<g id="a_edge23_Node000023_Node000024"><a xlink:title=" ">
<path fill="none" stroke="#63b8ff" d="M153.57,-98.83C127.68,-89.16 86.03,-72.17 53,-52 48.25,-49.1 43.43,-45.56 39.04,-42.06"/>
<polygon fill="#63b8ff" stroke="#63b8ff" points="41.21,-39.3 31.29,-35.57 36.71,-44.67 41.21,-39.3"/>
</a>
</g>
</g>
<!-- Node25 -->
<g id="Node000025" class="node">
<title>Node25</title>
<g id="a_Node000025"><a xlink:title=" ">
<polygon fill="#e0e0e0" stroke="#999999" points="109.5,-35.5 62.5,-35.5 62.5,-16.5 109.5,-16.5 109.5,-35.5"/>
<text text-anchor="middle" x="86" y="-23.5" font-family="Helvetica,sans-Serif" font-size="10.00">vector</text>
</a>
</g>
</g>
<!-- Node23&#45;&gt;Node25 -->
<g id="edge24_Node000023_Node000025" class="edge">
<title>Node23&#45;&gt;Node25</title>
<g id="a_edge24_Node000023_Node000025"><a xlink:title=" ">
<path fill="none" stroke="#63b8ff" d="M168.15,-98.89C152.73,-85.39 122.65,-59.07 103.48,-42.3"/>
<polygon fill="#63b8ff" stroke="#63b8ff" points="105.61,-39.5 95.77,-35.55 101,-44.77 105.61,-39.5"/>
</a>
</g>
</g>
<!-- Node26 -->
<g id="Node000026" class="node">
<title>Node26</title>
<g id="a_Node000026"><a xlink:title=" ">
<polygon fill="#e0e0e0" stroke="#999999" points="166,-35.5 128,-35.5 128,-16.5 166,-16.5 166,-35.5"/>
<text text-anchor="middle" x="147" y="-23.5" font-family="Helvetica,sans-Serif" font-size="10.00">map</text>
</a>
</g>
</g>
<!-- Node23&#45;&gt;Node26 -->
<g id="edge27_Node000023_Node000026" class="edge">
<title>Node23&#45;&gt;Node26</title>
<g id="a_edge27_Node000023_Node000026"><a xlink:title=" ">
<path fill="none" stroke="#63b8ff" d="M174.68,-98.89C169.81,-86.24 160.61,-62.35 154.16,-45.59"/>
<polygon fill="#63b8ff" stroke="#63b8ff" points="157.25,-43.87 150.39,-35.8 150.72,-46.39 157.25,-43.87"/>
</a>
</g>
</g>
</g>
</svg>
