<?xml version="1.0" encoding="UTF-8" standalone="no"?>
<!DOCTYPE svg PUBLIC "-//W3C//DTD SVG 1.1//EN"
 "http://www.w3.org/Graphics/SVG/1.1/DTD/svg11.dtd">
<!-- Generated by graphviz version 2.43.0 (0)
 -->
<!-- Title: Tmc9660AdcWrapper.h Pages: 1 -->
<svg width="348pt" height="93pt"
 viewBox="0.00 0.00 348.00 93.00" xmlns="http://www.w3.org/2000/svg" xmlns:xlink="http://www.w3.org/1999/xlink">
<g id="graph0" class="graph" transform="scale(1 1) rotate(0) translate(4 89)">
<title>Tmc9660AdcWrapper.h</title>
<!-- Node1 -->
<g id="Node000001" class="node">
<title>Node1</title>
<g id="a_Node000001"><a xlink:title="Thin BaseAdc delegation wrapper for manager&#45;layer ownership of TMC9660 ADC.">
<polygon fill="#999999" stroke="#666666" points="223.5,-85 94.5,-85 94.5,-66 223.5,-66 223.5,-85"/>
<text text-anchor="middle" x="159" y="-73" font-family="Helvetica,sans-Serif" font-size="10.00">Tmc9660AdcWrapper.h</text>
</a>
</g>
</g>
<!-- Node2 -->
<g id="Node000002" class="node">
<title>Node2</title>
<g id="a_Node000002"><a xlink:href="Tmc9660AdcWrapper_8cpp.html" target="_top" xlink:title="Implementation of the TMC9660 ADC delegation wrapper.">
<polygon fill="white" stroke="#666666" points="140,-24.5 0,-24.5 0,-5.5 140,-5.5 140,-24.5"/>
<text text-anchor="middle" x="70" y="-12.5" font-family="Helvetica,sans-Serif" font-size="10.00">Tmc9660AdcWrapper.cpp</text>
</a>
</g>
</g>
<!-- Node1&#45;&gt;Node2 -->
<g id="edge1_Node000001_Node000002" class="edge">
<title>Node1&#45;&gt;Node2</title>
<g id="a_edge1_Node000001_Node000002"><a xlink:title=" ">
<path fill="none" stroke="#63b8ff" d="M137.18,-60.16C120.27,-49.05 97.41,-34.01 83.19,-24.67"/>
<polygon fill="#63b8ff" stroke="#63b8ff" points="135.59,-63.3 145.87,-65.87 139.43,-57.45 135.59,-63.3"/>
</a>
</g>
</g>
<!-- Node3 -->
<g id="Node000003" class="node">
<title>Node3</title>
<g id="a_Node000003"><a xlink:href="tmc9660__handler__comprehensive__test_8cpp.html" target="_top" xlink:title="Comprehensive test suite for Tmc9660Handler.">
<polygon fill="white" stroke="#666666" points="340,-30 158,-30 158,0 340,0 340,-30"/>
<text text-anchor="start" x="166" y="-18" font-family="Helvetica,sans-Serif" font-size="10.00">tmc9660_handler_comprehensive</text>
<text text-anchor="middle" x="249" y="-7" font-family="Helvetica,sans-Serif" font-size="10.00">_test.cpp</text>
</a>
</g>
</g>
<!-- Node1&#45;&gt;Node3 -->
<g id="edge2_Node000001_Node000003" class="edge">
<title>Node1&#45;&gt;Node3</title>
<g id="a_edge2_Node000001_Node000003"><a xlink:title=" ">
<path fill="none" stroke="#63b8ff" d="M180.86,-60.29C194.95,-51.13 213.22,-39.26 227.29,-30.11"/>
<polygon fill="#63b8ff" stroke="#63b8ff" points="178.76,-57.48 172.28,-65.87 182.57,-63.35 178.76,-57.48"/>
</a>
</g>
</g>
</g>
</svg>
