<?xml version="1.0" encoding="UTF-8" standalone="no"?>
<!DOCTYPE svg PUBLIC "-//W3C//DTD SVG 1.1//EN"
 "http://www.w3.org/Graphics/SVG/1.1/DTD/svg11.dtd">
<!-- Generated by graphviz version 2.43.0 (0)
 -->
<!-- Title: Tmc9660Handler.h Pages: 1 -->
<svg width="1489pt" height="115pt"
 viewBox="0.00 0.00 1488.50 115.00" xmlns="http://www.w3.org/2000/svg" xmlns:xlink="http://www.w3.org/1999/xlink">
<g id="graph0" class="graph" transform="scale(1 1) rotate(0) translate(4 111)">
<title>Tmc9660Handler.h</title>
<!-- Node1 -->
<g id="Node000001" class="node">
<title>Node1</title>
<g id="a_Node000001"><a xlink:title="Unified handler for TMC9660 motor controller with GPIO, ADC, and temperature integration.">
<polygon fill="#999999" stroke="#666666" points="709,-107 601,-107 601,-88 709,-88 709,-107"/>
<text text-anchor="middle" x="655" y="-95" font-family="Helvetica,sans-Serif" font-size="10.00">Tmc9660Handler.h</text>
</a>
</g>
</g>
<!-- Node2 -->
<g id="Node000002" class="node">
<title>Node2</title>
<g id="a_Node000002"><a xlink:title=" ">
<polygon fill="#e0e0e0" stroke="#999999" points="50,-35.5 0,-35.5 0,-16.5 50,-16.5 50,-35.5"/>
<text text-anchor="middle" x="25" y="-23.5" font-family="Helvetica,sans-Serif" font-size="10.00">cstdint</text>
</a>
</g>
</g>
<!-- Node1&#45;&gt;Node2 -->
<g id="edge1_Node000001_Node000002" class="edge">
<title>Node1&#45;&gt;Node2</title>
<g id="a_edge1_Node000001_Node000002"><a xlink:title=" ">
<path fill="none" stroke="#63b8ff" d="M600.7,-96.26C473.1,-95.08 157.53,-88.45 59,-52 52.84,-49.72 46.82,-45.97 41.6,-42.06"/>
<polygon fill="#63b8ff" stroke="#63b8ff" points="43.64,-39.2 33.69,-35.56 39.19,-44.61 43.64,-39.2"/>
</a>
</g>
</g>
<!-- Node3 -->
<g id="Node000003" class="node">
<title>Node3</title>
<g id="a_Node000003"><a xlink:title=" ">
<polygon fill="#e0e0e0" stroke="#999999" points="126,-35.5 68,-35.5 68,-16.5 126,-16.5 126,-35.5"/>
<text text-anchor="middle" x="97" y="-23.5" font-family="Helvetica,sans-Serif" font-size="10.00">memory</text>
</a>
</g>
</g>
<!-- Node1&#45;&gt;Node3 -->
<g id="edge2_Node000001_Node000003" class="edge">
<title>Node1&#45;&gt;Node3</title>
<g id="a_edge2_Node000001_Node000003"><a xlink:title=" ">
<path fill="none" stroke="#63b8ff" d="M600.94,-95.23C485.81,-91.98 219.97,-81.45 135,-52 128.14,-49.62 121.32,-45.73 115.38,-41.72"/>
<polygon fill="#63b8ff" stroke="#63b8ff" points="117.04,-38.6 106.9,-35.52 112.9,-44.25 117.04,-38.6"/>
</a>
</g>
</g>
<!-- Node4 -->
<g id="Node000004" class="node">
<title>Node4</title>
<g id="a_Node000004"><a xlink:title=" ">
<polygon fill="#e0e0e0" stroke="#999999" points="186,-35.5 144,-35.5 144,-16.5 186,-16.5 186,-35.5"/>
<text text-anchor="middle" x="165" y="-23.5" font-family="Helvetica,sans-Serif" font-size="10.00">array</text>
</a>
</g>
</g>
<!-- Node1&#45;&gt;Node4 -->
<g id="edge3_Node000001_Node000004" class="edge">
<title>Node1&#45;&gt;Node4</title>
<g id="a_edge3_Node000001_Node000004"><a xlink:title=" ">
<path fill="none" stroke="#63b8ff" d="M600.98,-95.25C495.71,-92.16 267.09,-82.11 195,-52 189.82,-49.83 184.84,-46.45 180.49,-42.87"/>
<polygon fill="#63b8ff" stroke="#63b8ff" points="182.72,-40.17 172.99,-35.99 177.99,-45.33 182.72,-40.17"/>
</a>
</g>
</g>
<!-- Node5 -->
<g id="Node000005" class="node">
<title>Node5</title>
<g id="a_Node000005"><a xlink:title=" ">
<polygon fill="#e0e0e0" stroke="#999999" points="254,-35.5 204,-35.5 204,-16.5 254,-16.5 254,-35.5"/>
<text text-anchor="middle" x="229" y="-23.5" font-family="Helvetica,sans-Serif" font-size="10.00">atomic</text>
</a>
</g>
</g>
<!-- Node1&#45;&gt;Node5 -->
<g id="edge4_Node000001_Node000005" class="edge">
<title>Node1&#45;&gt;Node5</title>
<g id="a_edge4_Node000001_Node000005"><a xlink:title=" ">
<path fill="none" stroke="#63b8ff" d="M600.89,-93.8C508.21,-88.62 323.26,-75.62 263,-52 256.97,-49.64 251.05,-45.92 245.88,-42.08"/>
<polygon fill="#63b8ff" stroke="#63b8ff" points="247.98,-39.27 238.01,-35.69 243.57,-44.71 247.98,-39.27"/>
</a>
</g>
</g>
<!-- Node6 -->
<g id="Node000006" class="node">
<title>Node6</title>
<g id="a_Node000006"><a xlink:title=" ">
<polygon fill="#e0e0e0" stroke="#999999" points="341.5,-35.5 272.5,-35.5 272.5,-16.5 341.5,-16.5 341.5,-35.5"/>
<text text-anchor="middle" x="307" y="-23.5" font-family="Helvetica,sans-Serif" font-size="10.00">type_traits</text>
</a>
</g>
</g>
<!-- Node1&#45;&gt;Node6 -->
<g id="edge5_Node000001_Node000006" class="edge">
<title>Node1&#45;&gt;Node6</title>
<g id="a_edge5_Node000001_Node000006"><a xlink:title=" ">
<path fill="none" stroke="#63b8ff" d="M600.91,-94.8C538.77,-91.44 434.5,-81.49 350,-52 342.26,-49.3 334.36,-45.17 327.47,-41.04"/>
<polygon fill="#63b8ff" stroke="#63b8ff" points="329.13,-37.95 318.81,-35.54 325.38,-43.85 329.13,-37.95"/>
</a>
</g>
</g>
<!-- Node7 -->
<g id="Node000007" class="node">
<title>Node7</title>
<g id="a_Node000007"><a xlink:title=" ">
<polygon fill="#e0e0e0" stroke="#999999" points="492.5,-46.5 359.5,-46.5 359.5,-5.5 492.5,-5.5 492.5,-46.5"/>
<text text-anchor="start" x="367.5" y="-34.5" font-family="Helvetica,sans-Serif" font-size="10.00">core/hf&#45;core&#45;drivers</text>
<text text-anchor="start" x="367.5" y="-23.5" font-family="Helvetica,sans-Serif" font-size="10.00">/external/hf&#45;tmc9660</text>
<text text-anchor="middle" x="426" y="-12.5" font-family="Helvetica,sans-Serif" font-size="10.00">&#45;driver/inc/tmc9660.hpp</text>
</a>
</g>
</g>
<!-- Node1&#45;&gt;Node7 -->
<g id="edge6_Node000001_Node000007" class="edge">
<title>Node1&#45;&gt;Node7</title>
<g id="a_edge6_Node000001_Node000007"><a xlink:title=" ">
<path fill="none" stroke="#63b8ff" d="M624.43,-87.95C593.47,-79.21 544.28,-65.1 502,-52 499.56,-51.24 497.08,-50.47 494.58,-49.68"/>
<polygon fill="#63b8ff" stroke="#63b8ff" points="495.44,-46.28 484.85,-46.58 493.32,-52.95 495.44,-46.28"/>
</a>
</g>
</g>
<!-- Node8 -->
<g id="Node000008" class="node">
<title>Node8</title>
<g id="a_Node000008"><a xlink:title=" ">
<polygon fill="#e0e0e0" stroke="#999999" points="659,-52 511,-52 511,0 659,0 659,-52"/>
<text text-anchor="start" x="519" y="-40" font-family="Helvetica,sans-Serif" font-size="10.00">core/hf&#45;core&#45;drivers</text>
<text text-anchor="start" x="519" y="-29" font-family="Helvetica,sans-Serif" font-size="10.00">/external/hf&#45;tmc9660</text>
<text text-anchor="start" x="519" y="-18" font-family="Helvetica,sans-Serif" font-size="10.00">&#45;driver/inc/tmc9660_comm</text>
<text text-anchor="middle" x="585" y="-7" font-family="Helvetica,sans-Serif" font-size="10.00">_interface.hpp</text>
</a>
</g>
</g>
<!-- Node1&#45;&gt;Node8 -->
<g id="edge7_Node000001_Node000008" class="edge">
<title>Node1&#45;&gt;Node8</title>
<g id="a_edge7_Node000001_Node000008"><a xlink:title=" ">
<path fill="none" stroke="#63b8ff" d="M646.42,-87.98C639.12,-80.73 628.16,-69.85 617.51,-59.28"/>
<polygon fill="#63b8ff" stroke="#63b8ff" points="619.8,-56.62 610.23,-52.05 614.86,-61.58 619.8,-56.62"/>
</a>
</g>
</g>
<!-- Node9 -->
<g id="Node000009" class="node">
<title>Node9</title>
<g id="a_Node000009"><a xlink:title=" ">
<polygon fill="#e0e0e0" stroke="#999999" points="775,-35.5 677,-35.5 677,-16.5 775,-16.5 775,-35.5"/>
<text text-anchor="middle" x="726" y="-23.5" font-family="Helvetica,sans-Serif" font-size="10.00">base/BaseGpio.h</text>
</a>
</g>
</g>
<!-- Node1&#45;&gt;Node9 -->
<g id="edge8_Node000001_Node000009" class="edge">
<title>Node1&#45;&gt;Node9</title>
<g id="a_edge8_Node000001_Node000009"><a xlink:title=" ">
<path fill="none" stroke="#63b8ff" d="M663.71,-87.98C675.2,-76.72 695.67,-56.69 709.99,-42.67"/>
<polygon fill="#63b8ff" stroke="#63b8ff" points="712.52,-45.09 717.22,-35.59 707.63,-40.09 712.52,-45.09"/>
</a>
</g>
</g>
<!-- Node10 -->
<g id="Node000010" class="node">
<title>Node10</title>
<g id="a_Node000010"><a xlink:title=" ">
<polygon fill="#e0e0e0" stroke="#999999" points="887,-35.5 793,-35.5 793,-16.5 887,-16.5 887,-35.5"/>
<text text-anchor="middle" x="840" y="-23.5" font-family="Helvetica,sans-Serif" font-size="10.00">base/BaseAdc.h</text>
</a>
</g>
</g>
<!-- Node1&#45;&gt;Node10 -->
<g id="edge9_Node000001_Node000010" class="edge">
<title>Node1&#45;&gt;Node10</title>
<g id="a_edge9_Node000001_Node000010"><a xlink:title=" ">
<path fill="none" stroke="#63b8ff" d="M681.93,-87.97C708.21,-79.48 749.18,-65.75 784,-52 793.45,-48.27 803.65,-43.84 812.71,-39.76"/>
<polygon fill="#63b8ff" stroke="#63b8ff" points="814.37,-42.85 822.01,-35.51 811.46,-36.48 814.37,-42.85"/>
</a>
</g>
</g>
<!-- Node11 -->
<g id="Node000011" class="node">
<title>Node11</title>
<g id="a_Node000011"><a xlink:title=" ">
<polygon fill="#e0e0e0" stroke="#999999" points="1042.5,-35.5 905.5,-35.5 905.5,-16.5 1042.5,-16.5 1042.5,-35.5"/>
<text text-anchor="middle" x="974" y="-23.5" font-family="Helvetica,sans-Serif" font-size="10.00">base/BaseTemperature.h</text>
</a>
</g>
</g>
<!-- Node1&#45;&gt;Node11 -->
<g id="edge10_Node000001_Node000011" class="edge">
<title>Node1&#45;&gt;Node11</title>
<g id="a_edge10_Node000001_Node000011"><a xlink:title=" ">
<path fill="none" stroke="#63b8ff" d="M709.03,-88.55C758.15,-80.84 832.46,-67.98 896,-52 910.76,-48.29 926.81,-43.31 940.49,-38.77"/>
<polygon fill="#63b8ff" stroke="#63b8ff" points="941.63,-42.09 949.99,-35.57 939.39,-35.45 941.63,-42.09"/>
</a>
</g>
</g>
<!-- Node12 -->
<g id="Node000012" class="node">
<title>Node12</title>
<g id="a_Node000012"><a xlink:title=" ">
<polygon fill="#e0e0e0" stroke="#999999" points="1151.5,-35.5 1060.5,-35.5 1060.5,-16.5 1151.5,-16.5 1151.5,-35.5"/>
<text text-anchor="middle" x="1106" y="-23.5" font-family="Helvetica,sans-Serif" font-size="10.00">base/BaseSpi.h</text>
</a>
</g>
</g>
<!-- Node1&#45;&gt;Node12 -->
<g id="edge11_Node000001_Node000012" class="edge">
<title>Node1&#45;&gt;Node12</title>
<g id="a_edge11_Node000001_Node000012"><a xlink:title=" ">
<path fill="none" stroke="#63b8ff" d="M709.02,-95.91C786.39,-93.84 932.61,-85.38 1052,-52 1062.08,-49.18 1072.65,-44.68 1081.73,-40.26"/>
<polygon fill="#63b8ff" stroke="#63b8ff" points="1083.58,-43.25 1090.91,-35.59 1080.41,-37.01 1083.58,-43.25"/>
</a>
</g>
</g>
<!-- Node13 -->
<g id="Node000013" class="node">
<title>Node13</title>
<g id="a_Node000013"><a xlink:title=" ">
<polygon fill="#e0e0e0" stroke="#999999" points="1266.5,-35.5 1169.5,-35.5 1169.5,-16.5 1266.5,-16.5 1266.5,-35.5"/>
<text text-anchor="middle" x="1218" y="-23.5" font-family="Helvetica,sans-Serif" font-size="10.00">base/BaseUart.h</text>
</a>
</g>
</g>
<!-- Node1&#45;&gt;Node13 -->
<g id="edge12_Node000001_Node000013" class="edge">
<title>Node1&#45;&gt;Node13</title>
<g id="a_edge12_Node000001_Node000013"><a xlink:title=" ">
<path fill="none" stroke="#63b8ff" d="M709.14,-97.45C802.78,-97.83 1000.39,-93.1 1161,-52 1171.83,-49.23 1183.23,-44.61 1192.95,-40.09"/>
<polygon fill="#63b8ff" stroke="#63b8ff" points="1194.57,-43.2 1202.04,-35.68 1191.52,-36.9 1194.57,-43.2"/>
</a>
</g>
</g>
<!-- Node14 -->
<g id="Node000014" class="node">
<title>Node14</title>
<g id="a_Node000014"><a xlink:title=" ">
<polygon fill="#e0e0e0" stroke="#999999" points="1417.5,-52 1284.5,-52 1284.5,0 1417.5,0 1417.5,-52"/>
<text text-anchor="start" x="1292.5" y="-40" font-family="Helvetica,sans-Serif" font-size="10.00">core/hf&#45;core&#45;drivers</text>
<text text-anchor="start" x="1292.5" y="-29" font-family="Helvetica,sans-Serif" font-size="10.00">/internal/hf&#45;internal</text>
<text text-anchor="start" x="1292.5" y="-18" font-family="Helvetica,sans-Serif" font-size="10.00">&#45;interface&#45;wrap/inc/utils</text>
<text text-anchor="middle" x="1351" y="-7" font-family="Helvetica,sans-Serif" font-size="10.00">/RtosMutex.h</text>
</a>
</g>
</g>
<!-- Node1&#45;&gt;Node14 -->
<g id="edge13_Node000001_Node000014" class="edge">
<title>Node1&#45;&gt;Node14</title>
<g id="a_edge13_Node000001_Node000014"><a xlink:title=" ">
<path fill="none" stroke="#63b8ff" d="M709.18,-97.14C816.12,-97.43 1061.72,-93.26 1274.08,-52.18"/>
<polygon fill="#63b8ff" stroke="#63b8ff" points="1275.03,-55.56 1284.17,-50.2 1273.68,-48.69 1275.03,-55.56"/>
</a>
</g>
</g>
<!-- Node15 -->
<g id="Node000015" class="node">
<title>Node15</title>
<g id="a_Node000015"><a xlink:title=" ">
<polygon fill="#e0e0e0" stroke="#999999" points="1480.5,-35.5 1435.5,-35.5 1435.5,-16.5 1480.5,-16.5 1480.5,-35.5"/>
<text text-anchor="middle" x="1458" y="-23.5" font-family="Helvetica,sans-Serif" font-size="10.00">utility</text>
</a>
</g>
</g>
<!-- Node1&#45;&gt;Node15 -->
<g id="edge14_Node000001_Node000015" class="edge">
<title>Node1&#45;&gt;Node15</title>
<g id="a_edge14_Node000001_Node000015"><a xlink:title=" ">
<path fill="none" stroke="#63b8ff" d="M709.11,-95.29C873.6,-91.35 1360.54,-77.64 1427,-52 1432.64,-49.82 1438.05,-46.21 1442.73,-42.41"/>
<polygon fill="#63b8ff" stroke="#63b8ff" points="1445.17,-44.91 1450.24,-35.6 1440.47,-39.72 1445.17,-44.91"/>
</a>
</g>
</g>
</g>
</svg>
