<?xml version="1.0" encoding="UTF-8" standalone="no"?>
<!DOCTYPE svg PUBLIC "-//W3C//DTD SVG 1.1//EN"
 "http://www.w3.org/Graphics/SVG/1.1/DTD/svg11.dtd">
<!-- Generated by graphviz version 2.43.0 (0)
 -->
<!-- Title: Ws2812Handler.cpp Pages: 1 -->
<svg width="940pt" height="159pt"
 viewBox="0.00 0.00 940.00 159.00" xmlns="http://www.w3.org/2000/svg" xmlns:xlink="http://www.w3.org/1999/xlink">
<g id="graph0" class="graph" transform="scale(1 1) rotate(0) translate(4 155)">
<title>Ws2812Handler.cpp</title>
<!-- Node1 -->
<g id="Node000001" class="node">
<title>Node1</title>
<g id="a_Node000001"><a xlink:title="Implementation of WS2812 LED strip handler.">
<polygon fill="#999999" stroke="#666666" points="587.5,-151 474.5,-151 474.5,-132 587.5,-132 587.5,-151"/>
<text text-anchor="middle" x="531" y="-139" font-family="Helvetica,sans-Serif" font-size="10.00">Ws2812Handler.cpp</text>
</a>
</g>
</g>
<!-- Node2 -->
<g id="Node000002" class="node">
<title>Node2</title>
<g id="a_Node000002"><a xlink:href="Ws2812Handler_8h.html" target="_top" xlink:title="Unified handler for WS2812 addressable LED strips using RMT peripheral.">
<polygon fill="white" stroke="#666666" points="432,-96 330,-96 330,-77 432,-77 432,-96"/>
<text text-anchor="middle" x="381" y="-84" font-family="Helvetica,sans-Serif" font-size="10.00">Ws2812Handler.h</text>
</a>
</g>
</g>
<!-- Node1&#45;&gt;Node2 -->
<g id="edge1_Node000001_Node000002" class="edge">
<title>Node1&#45;&gt;Node2</title>
<g id="a_edge1_Node000001_Node000002"><a xlink:title=" ">
<path fill="none" stroke="#63b8ff" d="M506.9,-131.98C482.12,-123.23 443.3,-109.51 415.31,-99.62"/>
<polygon fill="#63b8ff" stroke="#63b8ff" points="416.13,-96.2 405.54,-96.17 413.8,-102.8 416.13,-96.2"/>
</a>
</g>
</g>
<!-- Node10 -->
<g id="Node000010" class="node">
<title>Node10</title>
<g id="a_Node000010"><a xlink:href="Logger_8h.html" target="_top" xlink:title="Advanced logging system with formatting capabilities.">
<polygon fill="white" stroke="#666666" points="798,-96 740,-96 740,-77 798,-77 798,-96"/>
<text text-anchor="middle" x="769" y="-84" font-family="Helvetica,sans-Serif" font-size="10.00">Logger.h</text>
</a>
</g>
</g>
<!-- Node1&#45;&gt;Node10 -->
<g id="edge9_Node000001_Node000010" class="edge">
<title>Node1&#45;&gt;Node10</title>
<g id="a_edge9_Node000001_Node000010"><a xlink:title=" ">
<path fill="none" stroke="#63b8ff" d="M569.24,-131.98C613.37,-122.16 685.55,-106.08 730,-96.18"/>
<polygon fill="#63b8ff" stroke="#63b8ff" points="730.86,-99.58 739.86,-93.99 729.34,-92.75 730.86,-99.58"/>
</a>
</g>
</g>
<!-- Node3 -->
<g id="Node000003" class="node">
<title>Node3</title>
<g id="a_Node000003"><a xlink:title=" ">
<polygon fill="#e0e0e0" stroke="#999999" points="50,-30 0,-30 0,-11 50,-11 50,-30"/>
<text text-anchor="middle" x="25" y="-18" font-family="Helvetica,sans-Serif" font-size="10.00">cstdint</text>
</a>
</g>
</g>
<!-- Node2&#45;&gt;Node3 -->
<g id="edge2_Node000002_Node000003" class="edge">
<title>Node2&#45;&gt;Node3</title>
<g id="a_edge2_Node000002_Node000003"><a xlink:title=" ">
<path fill="none" stroke="#63b8ff" d="M329.98,-84.43C265.3,-81.72 151.13,-72.46 59,-41 54.73,-39.54 50.38,-37.53 46.29,-35.34"/>
<polygon fill="#63b8ff" stroke="#63b8ff" points="47.76,-32.15 37.36,-30.13 44.23,-38.19 47.76,-32.15"/>
</a>
</g>
</g>
<!-- Node4 -->
<g id="Node000004" class="node">
<title>Node4</title>
<g id="a_Node000004"><a xlink:title=" ">
<polygon fill="#e0e0e0" stroke="#999999" points="724,-30 666,-30 666,-11 724,-11 724,-30"/>
<text text-anchor="middle" x="695" y="-18" font-family="Helvetica,sans-Serif" font-size="10.00">memory</text>
</a>
</g>
</g>
<!-- Node2&#45;&gt;Node4 -->
<g id="edge3_Node000002_Node000004" class="edge">
<title>Node2&#45;&gt;Node4</title>
<g id="a_edge3_Node000002_Node000004"><a xlink:title=" ">
<path fill="none" stroke="#63b8ff" d="M432.24,-82.07C488.53,-77.2 581.02,-65.92 657,-41 662.07,-39.34 667.28,-37.07 672.17,-34.67"/>
<polygon fill="#63b8ff" stroke="#63b8ff" points="673.8,-37.77 681.03,-30.01 670.55,-31.57 673.8,-37.77"/>
</a>
</g>
</g>
<!-- Node5 -->
<g id="Node000005" class="node">
<title>Node5</title>
<g id="a_Node000005"><a xlink:title=" ">
<polygon fill="#e0e0e0" stroke="#999999" points="137.5,-30 68.5,-30 68.5,-11 137.5,-11 137.5,-30"/>
<text text-anchor="middle" x="103" y="-18" font-family="Helvetica,sans-Serif" font-size="10.00">type_traits</text>
</a>
</g>
</g>
<!-- Node2&#45;&gt;Node5 -->
<g id="edge4_Node000002_Node000005" class="edge">
<title>Node2&#45;&gt;Node5</title>
<g id="a_edge4_Node000002_Node000005"><a xlink:title=" ">
<path fill="none" stroke="#63b8ff" d="M329.71,-79.38C281.51,-72.79 207.76,-60.54 146,-41 140.19,-39.16 134.13,-36.75 128.46,-34.25"/>
<polygon fill="#63b8ff" stroke="#63b8ff" points="129.93,-31.07 119.38,-30.04 126.98,-37.42 129.93,-31.07"/>
</a>
</g>
</g>
<!-- Node6 -->
<g id="Node000006" class="node">
<title>Node6</title>
<g id="a_Node000006"><a xlink:title=" ">
<polygon fill="#e0e0e0" stroke="#999999" points="200.5,-30 155.5,-30 155.5,-11 200.5,-11 200.5,-30"/>
<text text-anchor="middle" x="178" y="-18" font-family="Helvetica,sans-Serif" font-size="10.00">utility</text>
</a>
</g>
</g>
<!-- Node2&#45;&gt;Node6 -->
<g id="edge5_Node000002_Node000006" class="edge">
<title>Node2&#45;&gt;Node6</title>
<g id="a_edge5_Node000002_Node000006"><a xlink:title=" ">
<path fill="none" stroke="#63b8ff" d="M331.86,-76.98C296.71,-69.9 248.79,-58.17 209,-41 205.46,-39.47 201.87,-37.58 198.43,-35.58"/>
<polygon fill="#63b8ff" stroke="#63b8ff" points="200.22,-32.56 189.89,-30.19 196.49,-38.48 200.22,-32.56"/>
</a>
</g>
</g>
<!-- Node7 -->
<g id="Node000007" class="node">
<title>Node7</title>
<g id="a_Node000007"><a xlink:title=" ">
<polygon fill="#e0e0e0" stroke="#999999" points="368,-41 218,-41 218,0 368,0 368,-41"/>
<text text-anchor="start" x="226" y="-29" font-family="Helvetica,sans-Serif" font-size="10.00">core/hf&#45;core&#45;drivers</text>
<text text-anchor="start" x="226" y="-18" font-family="Helvetica,sans-Serif" font-size="10.00">/external/hf&#45;ws2812&#45;rmt</text>
<text text-anchor="middle" x="293" y="-7" font-family="Helvetica,sans-Serif" font-size="10.00">&#45;driver/inc/ws2812_cpp.hpp</text>
</a>
</g>
</g>
<!-- Node2&#45;&gt;Node7 -->
<g id="edge6_Node000002_Node000007" class="edge">
<title>Node2&#45;&gt;Node7</title>
<g id="a_edge6_Node000002_Node000007"><a xlink:title=" ">
<path fill="none" stroke="#63b8ff" d="M369.13,-76.87C358.62,-69.22 342.73,-57.67 328.18,-47.09"/>
<polygon fill="#63b8ff" stroke="#63b8ff" points="329.97,-44.06 319.82,-41.01 325.85,-49.72 329.97,-44.06"/>
</a>
</g>
</g>
<!-- Node8 -->
<g id="Node000008" class="node">
<title>Node8</title>
<g id="a_Node000008"><a xlink:title=" ">
<polygon fill="#e0e0e0" stroke="#999999" points="552,-41 386,-41 386,0 552,0 552,-41"/>
<text text-anchor="start" x="394" y="-29" font-family="Helvetica,sans-Serif" font-size="10.00">core/hf&#45;core&#45;drivers</text>
<text text-anchor="start" x="394" y="-18" font-family="Helvetica,sans-Serif" font-size="10.00">/external/hf&#45;ws2812&#45;rmt</text>
<text text-anchor="middle" x="469" y="-7" font-family="Helvetica,sans-Serif" font-size="10.00">&#45;driver/inc/ws2812_effects.hpp</text>
</a>
</g>
</g>
<!-- Node2&#45;&gt;Node8 -->
<g id="edge7_Node000002_Node000008" class="edge">
<title>Node2&#45;&gt;Node8</title>
<g id="a_edge7_Node000002_Node000008"><a xlink:title=" ">
<path fill="none" stroke="#63b8ff" d="M392.87,-76.87C403.38,-69.22 419.27,-57.67 433.82,-47.09"/>
<polygon fill="#63b8ff" stroke="#63b8ff" points="436.15,-49.72 442.18,-41.01 432.03,-44.06 436.15,-49.72"/>
</a>
</g>
</g>
<!-- Node9 -->
<g id="Node000009" class="node">
<title>Node9</title>
<g id="a_Node000009"><a xlink:title=" ">
<polygon fill="#e0e0e0" stroke="#999999" points="648,-30 570,-30 570,-11 648,-11 648,-30"/>
<text text-anchor="middle" x="609" y="-18" font-family="Helvetica,sans-Serif" font-size="10.00">RtosMutex.h</text>
</a>
</g>
</g>
<!-- Node2&#45;&gt;Node9 -->
<g id="edge8_Node000002_Node000009" class="edge">
<title>Node2&#45;&gt;Node9</title>
<g id="a_edge8_Node000002_Node000009"><a xlink:title=" ">
<path fill="none" stroke="#63b8ff" d="M422.58,-77C459.37,-69.06 514.31,-56.17 561,-41 567.29,-38.96 573.92,-36.48 580.18,-33.99"/>
<polygon fill="#63b8ff" stroke="#63b8ff" points="581.7,-37.15 589.62,-30.11 579.04,-30.67 581.7,-37.15"/>
</a>
</g>
</g>
<!-- Node10&#45;&gt;Node4 -->
<g id="edge12_Node000010_Node000004" class="edge">
<title>Node10&#45;&gt;Node4</title>
<g id="a_edge12_Node000010_Node000004"><a xlink:title=" ">
<path fill="none" stroke="#63b8ff" d="M759.02,-76.87C747.28,-66.71 727.56,-49.66 713.1,-37.15"/>
<polygon fill="#63b8ff" stroke="#63b8ff" points="715.15,-34.3 705.3,-30.41 710.57,-39.59 715.15,-34.3"/>
</a>
</g>
</g>
<!-- Node11 -->
<g id="Node000011" class="node">
<title>Node11</title>
<g id="a_Node000011"><a xlink:title=" ">
<polygon fill="#e0e0e0" stroke="#999999" points="795.5,-30 742.5,-30 742.5,-11 795.5,-11 795.5,-30"/>
<text text-anchor="middle" x="769" y="-18" font-family="Helvetica,sans-Serif" font-size="10.00">cstdarg</text>
</a>
</g>
</g>
<!-- Node10&#45;&gt;Node11 -->
<g id="edge10_Node000010_Node000011" class="edge">
<title>Node10&#45;&gt;Node11</title>
<g id="a_edge10_Node000010_Node000011"><a xlink:title=" ">
<path fill="none" stroke="#63b8ff" d="M769,-76.87C769,-67.66 769,-52.79 769,-40.77"/>
<polygon fill="#63b8ff" stroke="#63b8ff" points="772.5,-40.41 769,-30.41 765.5,-40.41 772.5,-40.41"/>
</a>
</g>
</g>
<!-- Node12 -->
<g id="Node000012" class="node">
<title>Node12</title>
<g id="a_Node000012"><a xlink:title=" ">
<polygon fill="#e0e0e0" stroke="#999999" points="864,-30 814,-30 814,-11 864,-11 864,-30"/>
<text text-anchor="middle" x="839" y="-18" font-family="Helvetica,sans-Serif" font-size="10.00">cstring</text>
</a>
</g>
</g>
<!-- Node10&#45;&gt;Node12 -->
<g id="edge11_Node000010_Node000012" class="edge">
<title>Node10&#45;&gt;Node12</title>
<g id="a_edge11_Node000010_Node000012"><a xlink:title=" ">
<path fill="none" stroke="#63b8ff" d="M778.44,-76.87C789.55,-66.71 808.2,-49.66 821.88,-37.15"/>
<polygon fill="#63b8ff" stroke="#63b8ff" points="824.24,-39.74 829.26,-30.41 819.52,-34.57 824.24,-39.74"/>
</a>
</g>
</g>
<!-- Node13 -->
<g id="Node000013" class="node">
<title>Node13</title>
<g id="a_Node000013"><a xlink:title=" ">
<polygon fill="#e0e0e0" stroke="#999999" points="932,-30 882,-30 882,-11 932,-11 932,-30"/>
<text text-anchor="middle" x="907" y="-18" font-family="Helvetica,sans-Serif" font-size="10.00">atomic</text>
</a>
</g>
</g>
<!-- Node10&#45;&gt;Node13 -->
<g id="edge13_Node000010_Node000013" class="edge">
<title>Node10&#45;&gt;Node13</title>
<g id="a_edge13_Node000010_Node000013"><a xlink:title=" ">
<path fill="none" stroke="#63b8ff" d="M791.25,-76.85C812.54,-68.38 845.41,-54.76 873,-41 876.66,-39.17 880.48,-37.13 884.18,-35.07"/>
<polygon fill="#63b8ff" stroke="#63b8ff" points="886.04,-38.04 892.97,-30.03 882.56,-31.97 886.04,-38.04"/>
</a>
</g>
</g>
</g>
</svg>
