<?xml version="1.0" encoding="UTF-8" standalone="no"?>
<!DOCTYPE svg PUBLIC "-//W3C//DTD SVG 1.1//EN"
 "http://www.w3.org/Graphics/SVG/1.1/DTD/svg11.dtd">
<!-- Generated by graphviz version 2.43.0 (0)
 -->
<!-- Title: AlicatBasis2Handler.cpp Pages: 1 -->
<svg width="898pt" height="170pt"
 viewBox="0.00 0.00 898.00 170.00" xmlns="http://www.w3.org/2000/svg" xmlns:xlink="http://www.w3.org/1999/xlink">
<g id="graph0" class="graph" transform="scale(1 1) rotate(0) translate(4 166)">
<title>AlicatBasis2Handler.cpp</title>
<!-- Node1 -->
<g id="Node000001" class="node">
<title>Node1</title>
<g id="a_Node000001"><a xlink:title="Implementation of AlicatBasis2Handler.">
<polygon fill="#999999" stroke="#666666" points="543,-162 409,-162 409,-143 543,-143 543,-162"/>
<text text-anchor="middle" x="476" y="-150" font-family="Helvetica,sans-Serif" font-size="10.00">AlicatBasis2Handler.cpp</text>
</a>
</g>
</g>
<!-- Node2 -->
<g id="Node000002" class="node">
<title>Node2</title>
<g id="a_Node000002"><a xlink:href="AlicatBasis2Handler_8h.html" target="_top" xlink:title="HAL&#45;level handler for the Alicat BASIS&#45;2 mass&#45;flow instrument.">
<polygon fill="white" stroke="#666666" points="382.5,-107 259.5,-107 259.5,-88 382.5,-88 382.5,-107"/>
<text text-anchor="middle" x="321" y="-95" font-family="Helvetica,sans-Serif" font-size="10.00">AlicatBasis2Handler.h</text>
</a>
</g>
</g>
<!-- Node1&#45;&gt;Node2 -->
<g id="edge1_Node000001_Node000002" class="edge">
<title>Node1&#45;&gt;Node2</title>
<g id="a_edge1_Node000001_Node000002"><a xlink:title=" ">
<path fill="none" stroke="#63b8ff" d="M451.1,-142.98C425.3,-134.16 384.78,-120.31 355.82,-110.41"/>
<polygon fill="#63b8ff" stroke="#63b8ff" points="356.69,-107.01 346.1,-107.08 354.43,-113.63 356.69,-107.01"/>
</a>
</g>
</g>
<!-- Node12 -->
<g id="Node000012" class="node">
<title>Node12</title>
<g id="a_Node000012"><a xlink:title=" ">
<polygon fill="#e0e0e0" stroke="#999999" points="451,-107 401,-107 401,-88 451,-88 451,-107"/>
<text text-anchor="middle" x="426" y="-95" font-family="Helvetica,sans-Serif" font-size="10.00">cstring</text>
</a>
</g>
</g>
<!-- Node1&#45;&gt;Node12 -->
<g id="edge11_Node000001_Node000012" class="edge">
<title>Node1&#45;&gt;Node12</title>
<g id="a_edge11_Node000001_Node000012"><a xlink:title=" ">
<path fill="none" stroke="#63b8ff" d="M467.74,-142.75C460.54,-135.11 449.89,-123.82 441.15,-114.56"/>
<polygon fill="#63b8ff" stroke="#63b8ff" points="443.51,-111.96 434.1,-107.09 438.42,-116.76 443.51,-111.96"/>
</a>
</g>
</g>
<!-- Node13 -->
<g id="Node000013" class="node">
<title>Node13</title>
<g id="a_Node000013"><a xlink:title=" ">
<polygon fill="#e0e0e0" stroke="#999999" points="582.5,-107 469.5,-107 469.5,-88 582.5,-88 582.5,-107"/>
<text text-anchor="middle" x="526" y="-95" font-family="Helvetica,sans-Serif" font-size="10.00">freertos/FreeRTOS.h</text>
</a>
</g>
</g>
<!-- Node1&#45;&gt;Node13 -->
<g id="edge12_Node000001_Node000013" class="edge">
<title>Node1&#45;&gt;Node13</title>
<g id="a_edge12_Node000001_Node000013"><a xlink:title=" ">
<path fill="none" stroke="#63b8ff" d="M484.26,-142.75C491.46,-135.11 502.11,-123.82 510.85,-114.56"/>
<polygon fill="#63b8ff" stroke="#63b8ff" points="513.58,-116.76 517.9,-107.09 508.49,-111.96 513.58,-116.76"/>
</a>
</g>
</g>
<!-- Node14 -->
<g id="Node000014" class="node">
<title>Node14</title>
<g id="a_Node000014"><a xlink:title=" ">
<polygon fill="#e0e0e0" stroke="#999999" points="689,-107 601,-107 601,-88 689,-88 689,-107"/>
<text text-anchor="middle" x="645" y="-95" font-family="Helvetica,sans-Serif" font-size="10.00">freertos/task.h</text>
</a>
</g>
</g>
<!-- Node1&#45;&gt;Node14 -->
<g id="edge13_Node000001_Node000014" class="edge">
<title>Node1&#45;&gt;Node14</title>
<g id="a_edge13_Node000001_Node000014"><a xlink:title=" ">
<path fill="none" stroke="#63b8ff" d="M503.15,-142.98C531.53,-134.09 576.23,-120.07 607.86,-110.15"/>
<polygon fill="#63b8ff" stroke="#63b8ff" points="609.14,-113.41 617.63,-107.08 607.05,-106.73 609.14,-113.41"/>
</a>
</g>
</g>
<!-- Node3 -->
<g id="Node000003" class="node">
<title>Node3</title>
<g id="a_Node000003"><a xlink:title=" ">
<polygon fill="#e0e0e0" stroke="#999999" points="50,-35.5 0,-35.5 0,-16.5 50,-16.5 50,-35.5"/>
<text text-anchor="middle" x="25" y="-23.5" font-family="Helvetica,sans-Serif" font-size="10.00">atomic</text>
</a>
</g>
</g>
<!-- Node2&#45;&gt;Node3 -->
<g id="edge2_Node000002_Node000003" class="edge">
<title>Node2&#45;&gt;Node3</title>
<g id="a_edge2_Node000002_Node000003"><a xlink:title=" ">
<path fill="none" stroke="#63b8ff" d="M259.45,-94.07C204.88,-90.07 123.99,-79.56 59,-52 53.04,-49.47 47.14,-45.71 41.97,-41.86"/>
<polygon fill="#63b8ff" stroke="#63b8ff" points="44.07,-39.06 34.08,-35.52 39.68,-44.51 44.07,-39.06"/>
</a>
</g>
</g>
<!-- Node4 -->
<g id="Node000004" class="node">
<title>Node4</title>
<g id="a_Node000004"><a xlink:title=" ">
<polygon fill="#e0e0e0" stroke="#999999" points="121.5,-35.5 68.5,-35.5 68.5,-16.5 121.5,-16.5 121.5,-35.5"/>
<text text-anchor="middle" x="95" y="-23.5" font-family="Helvetica,sans-Serif" font-size="10.00">cstddef</text>
</a>
</g>
</g>
<!-- Node2&#45;&gt;Node4 -->
<g id="edge3_Node000002_Node000004" class="edge">
<title>Node2&#45;&gt;Node4</title>
<g id="a_edge3_Node000002_Node000004"><a xlink:title=" ">
<path fill="none" stroke="#63b8ff" d="M259.21,-88.09C221.1,-81.44 171.86,-70.17 131,-52 124.94,-49.31 118.84,-45.55 113.42,-41.77"/>
<polygon fill="#63b8ff" stroke="#63b8ff" points="115.19,-38.72 105.08,-35.56 111.01,-44.34 115.19,-38.72"/>
</a>
</g>
</g>
<!-- Node5 -->
<g id="Node000005" class="node">
<title>Node5</title>
<g id="a_Node000005"><a xlink:title=" ">
<polygon fill="#e0e0e0" stroke="#999999" points="190,-35.5 140,-35.5 140,-16.5 190,-16.5 190,-35.5"/>
<text text-anchor="middle" x="165" y="-23.5" font-family="Helvetica,sans-Serif" font-size="10.00">cstdint</text>
</a>
</g>
</g>
<!-- Node2&#45;&gt;Node5 -->
<g id="edge4_Node000002_Node000005" class="edge">
<title>Node2&#45;&gt;Node5</title>
<g id="a_edge4_Node000002_Node000005"><a xlink:title=" ">
<path fill="none" stroke="#63b8ff" d="M290.4,-87.99C265.08,-80.34 228.61,-67.87 199,-52 193.67,-49.15 188.25,-45.53 183.34,-41.95"/>
<polygon fill="#63b8ff" stroke="#63b8ff" points="185.27,-39.02 175.2,-35.7 181,-44.57 185.27,-39.02"/>
</a>
</g>
</g>
<!-- Node6 -->
<g id="Node000006" class="node">
<title>Node6</title>
<g id="a_Node000006"><a xlink:title=" ">
<polygon fill="#e0e0e0" stroke="#999999" points="273.5,-35.5 208.5,-35.5 208.5,-16.5 273.5,-16.5 273.5,-35.5"/>
<text text-anchor="middle" x="241" y="-23.5" font-family="Helvetica,sans-Serif" font-size="10.00">functional</text>
</a>
</g>
</g>
<!-- Node2&#45;&gt;Node6 -->
<g id="edge5_Node000002_Node000006" class="edge">
<title>Node2&#45;&gt;Node6</title>
<g id="a_edge5_Node000002_Node000006"><a xlink:title=" ">
<path fill="none" stroke="#63b8ff" d="M311.19,-87.98C298.12,-76.62 274.75,-56.32 258.59,-42.28"/>
<polygon fill="#63b8ff" stroke="#63b8ff" points="260.73,-39.51 250.89,-35.59 256.14,-44.79 260.73,-39.51"/>
</a>
</g>
</g>
<!-- Node7 -->
<g id="Node000007" class="node">
<title>Node7</title>
<g id="a_Node000007"><a xlink:title=" ">
<polygon fill="#e0e0e0" stroke="#999999" points="350,-35.5 292,-35.5 292,-16.5 350,-16.5 350,-35.5"/>
<text text-anchor="middle" x="321" y="-23.5" font-family="Helvetica,sans-Serif" font-size="10.00">memory</text>
</a>
</g>
</g>
<!-- Node2&#45;&gt;Node7 -->
<g id="edge6_Node000002_Node000007" class="edge">
<title>Node2&#45;&gt;Node7</title>
<g id="a_edge6_Node000002_Node000007"><a xlink:title=" ">
<path fill="none" stroke="#63b8ff" d="M321,-87.98C321,-77.56 321,-59.61 321,-45.88"/>
<polygon fill="#63b8ff" stroke="#63b8ff" points="324.5,-45.59 321,-35.59 317.5,-45.59 324.5,-45.59"/>
</a>
</g>
</g>
<!-- Node8 -->
<g id="Node000008" class="node">
<title>Node8</title>
<g id="a_Node000008"><a xlink:title=" ">
<polygon fill="#e0e0e0" stroke="#999999" points="446,-35.5 368,-35.5 368,-16.5 446,-16.5 446,-35.5"/>
<text text-anchor="middle" x="407" y="-23.5" font-family="Helvetica,sans-Serif" font-size="10.00">RtosMutex.h</text>
</a>
</g>
</g>
<!-- Node2&#45;&gt;Node8 -->
<g id="edge7_Node000002_Node000008" class="edge">
<title>Node2&#45;&gt;Node8</title>
<g id="a_edge7_Node000002_Node000008"><a xlink:title=" ">
<path fill="none" stroke="#63b8ff" d="M331.55,-87.98C345.73,-76.51 371.18,-55.95 388.57,-41.9"/>
<polygon fill="#63b8ff" stroke="#63b8ff" points="390.79,-44.6 396.37,-35.59 386.39,-39.16 390.79,-44.6"/>
</a>
</g>
</g>
<!-- Node9 -->
<g id="Node000009" class="node">
<title>Node9</title>
<g id="a_Node000009"><a xlink:title=" ">
<polygon fill="#e0e0e0" stroke="#999999" points="561.5,-35.5 464.5,-35.5 464.5,-16.5 561.5,-16.5 561.5,-35.5"/>
<text text-anchor="middle" x="513" y="-23.5" font-family="Helvetica,sans-Serif" font-size="10.00">base/BaseUart.h</text>
</a>
</g>
</g>
<!-- Node2&#45;&gt;Node9 -->
<g id="edge8_Node000002_Node000009" class="edge">
<title>Node2&#45;&gt;Node9</title>
<g id="a_edge8_Node000002_Node000009"><a xlink:title=" ">
<path fill="none" stroke="#63b8ff" d="M348.96,-87.99C376.24,-79.5 418.8,-65.78 455,-52 464.89,-48.24 475.56,-43.76 485.02,-39.64"/>
<polygon fill="#63b8ff" stroke="#63b8ff" points="486.62,-42.76 494.36,-35.52 483.8,-36.35 486.62,-42.76"/>
</a>
</g>
</g>
<!-- Node10 -->
<g id="Node000010" class="node">
<title>Node10</title>
<g id="a_Node000010"><a xlink:title=" ">
<polygon fill="#e0e0e0" stroke="#999999" points="734,-46.5 580,-46.5 580,-5.5 734,-5.5 734,-46.5"/>
<text text-anchor="start" x="588" y="-34.5" font-family="Helvetica,sans-Serif" font-size="10.00">core/hf&#45;core&#45;drivers</text>
<text text-anchor="start" x="588" y="-23.5" font-family="Helvetica,sans-Serif" font-size="10.00">/external/hf&#45;alicat&#45;basis2</text>
<text text-anchor="middle" x="657" y="-12.5" font-family="Helvetica,sans-Serif" font-size="10.00">&#45;driver/inc/alicat_basis2.hpp</text>
</a>
</g>
</g>
<!-- Node2&#45;&gt;Node10 -->
<g id="edge9_Node000002_Node000010" class="edge">
<title>Node2&#45;&gt;Node10</title>
<g id="a_edge9_Node000002_Node000010"><a xlink:title=" ">
<path fill="none" stroke="#63b8ff" d="M378.95,-87.98C429.85,-80.08 505.75,-67.25 571,-52 574.81,-51.11 578.7,-50.15 582.62,-49.15"/>
<polygon fill="#63b8ff" stroke="#63b8ff" points="583.61,-52.51 592.39,-46.58 581.83,-45.74 583.61,-52.51"/>
</a>
</g>
</g>
<!-- Node11 -->
<g id="Node000011" class="node">
<title>Node11</title>
<g id="a_Node000011"><a xlink:title=" ">
<polygon fill="#e0e0e0" stroke="#999999" points="890,-52 752,-52 752,0 890,0 890,-52"/>
<text text-anchor="start" x="760" y="-40" font-family="Helvetica,sans-Serif" font-size="10.00">core/hf&#45;core&#45;drivers</text>
<text text-anchor="start" x="760" y="-29" font-family="Helvetica,sans-Serif" font-size="10.00">/external/hf&#45;alicat&#45;basis2</text>
<text text-anchor="start" x="760" y="-18" font-family="Helvetica,sans-Serif" font-size="10.00">&#45;driver/inc/alicat_basis2</text>
<text text-anchor="middle" x="821" y="-7" font-family="Helvetica,sans-Serif" font-size="10.00">_uart_interface.hpp</text>
</a>
</g>
</g>
<!-- Node2&#45;&gt;Node11 -->
<g id="edge10_Node000002_Node000011" class="edge">
<title>Node2&#45;&gt;Node11</title>
<g id="a_edge10_Node000002_Node000011"><a xlink:title=" ">
<path fill="none" stroke="#63b8ff" d="M382.57,-89.06C385.76,-88.7 388.92,-88.34 392,-88 544.66,-71.03 587.75,-83.57 742.04,-52.02"/>
<polygon fill="#63b8ff" stroke="#63b8ff" points="742.8,-55.43 751.88,-49.98 741.38,-48.58 742.8,-55.43"/>
</a>
</g>
</g>
</g>
</svg>
