<?xml version="1.0" encoding="UTF-8" standalone="no"?>
<!DOCTYPE svg PUBLIC "-//W3C//DTD SVG 1.1//EN"
 "http://www.w3.org/Graphics/SVG/1.1/DTD/svg11.dtd">
<!-- Generated by graphviz version 2.43.0 (0)
 -->
<!-- Title: AlicatBasis2Handler.h Pages: 1 -->
<svg width="742pt" height="115pt"
 viewBox="0.00 0.00 742.00 115.00" xmlns="http://www.w3.org/2000/svg" xmlns:xlink="http://www.w3.org/1999/xlink">
<g id="graph0" class="graph" transform="scale(1 1) rotate(0) translate(4 111)">
<title>AlicatBasis2Handler.h</title>
<!-- Node1 -->
<g id="Node000001" class="node">
<title>Node1</title>
<g id="a_Node000001"><a xlink:title="HAL&#45;level handler for the Alicat BASIS&#45;2 mass&#45;flow instrument.">
<polygon fill="#999999" stroke="#666666" points="312.5,-107 189.5,-107 189.5,-88 312.5,-88 312.5,-107"/>
<text text-anchor="middle" x="251" y="-95" font-family="Helvetica,sans-Serif" font-size="10.00">AlicatBasis2Handler.h</text>
</a>
</g>
</g>
<!-- Node2 -->
<g id="Node000002" class="node">
<title>Node2</title>
<g id="a_Node000002"><a xlink:title=" ">
<polygon fill="#e0e0e0" stroke="#999999" points="50,-35.5 0,-35.5 0,-16.5 50,-16.5 50,-35.5"/>
<text text-anchor="middle" x="25" y="-23.5" font-family="Helvetica,sans-Serif" font-size="10.00">atomic</text>
</a>
</g>
</g>
<!-- Node1&#45;&gt;Node2 -->
<g id="edge1_Node000001_Node000002" class="edge">
<title>Node1&#45;&gt;Node2</title>
<g id="a_edge1_Node000001_Node000002"><a xlink:title=" ">
<path fill="none" stroke="#63b8ff" d="M189.26,-88.72C150.56,-82.28 100.35,-71.01 59,-52 53.2,-49.33 47.41,-45.59 42.29,-41.8"/>
<polygon fill="#63b8ff" stroke="#63b8ff" points="44.45,-39.05 34.44,-35.59 40.11,-44.54 44.45,-39.05"/>
</a>
</g>
</g>
<!-- Node3 -->
<g id="Node000003" class="node">
<title>Node3</title>
<g id="a_Node000003"><a xlink:title=" ">
<polygon fill="#e0e0e0" stroke="#999999" points="118,-35.5 68,-35.5 68,-16.5 118,-16.5 118,-35.5"/>
<text text-anchor="middle" x="93" y="-23.5" font-family="Helvetica,sans-Serif" font-size="10.00">cstdint</text>
</a>
</g>
</g>
<!-- Node1&#45;&gt;Node3 -->
<g id="edge2_Node000001_Node000003" class="edge">
<title>Node1&#45;&gt;Node3</title>
<g id="a_edge2_Node000001_Node000003"><a xlink:title=" ">
<path fill="none" stroke="#63b8ff" d="M219.63,-87.99C193.9,-80.38 156.98,-67.96 127,-52 121.66,-49.16 116.24,-45.55 111.33,-41.97"/>
<polygon fill="#63b8ff" stroke="#63b8ff" points="113.26,-39.04 103.19,-35.71 108.99,-44.58 113.26,-39.04"/>
</a>
</g>
</g>
<!-- Node4 -->
<g id="Node000004" class="node">
<title>Node4</title>
<g id="a_Node000004"><a xlink:title=" ">
<polygon fill="#e0e0e0" stroke="#999999" points="194,-35.5 136,-35.5 136,-16.5 194,-16.5 194,-35.5"/>
<text text-anchor="middle" x="165" y="-23.5" font-family="Helvetica,sans-Serif" font-size="10.00">memory</text>
</a>
</g>
</g>
<!-- Node1&#45;&gt;Node4 -->
<g id="edge3_Node000001_Node000004" class="edge">
<title>Node1&#45;&gt;Node4</title>
<g id="a_edge3_Node000001_Node000004"><a xlink:title=" ">
<path fill="none" stroke="#63b8ff" d="M240.45,-87.98C226.27,-76.51 200.82,-55.95 183.43,-41.9"/>
<polygon fill="#63b8ff" stroke="#63b8ff" points="185.61,-39.16 175.63,-35.59 181.21,-44.6 185.61,-39.16"/>
</a>
</g>
</g>
<!-- Node5 -->
<g id="Node000005" class="node">
<title>Node5</title>
<g id="a_Node000005"><a xlink:title=" ">
<polygon fill="#e0e0e0" stroke="#999999" points="290,-35.5 212,-35.5 212,-16.5 290,-16.5 290,-35.5"/>
<text text-anchor="middle" x="251" y="-23.5" font-family="Helvetica,sans-Serif" font-size="10.00">RtosMutex.h</text>
</a>
</g>
</g>
<!-- Node1&#45;&gt;Node5 -->
<g id="edge4_Node000001_Node000005" class="edge">
<title>Node1&#45;&gt;Node5</title>
<g id="a_edge4_Node000001_Node000005"><a xlink:title=" ">
<path fill="none" stroke="#63b8ff" d="M251,-87.98C251,-77.56 251,-59.61 251,-45.88"/>
<polygon fill="#63b8ff" stroke="#63b8ff" points="254.5,-45.59 251,-35.59 247.5,-45.59 254.5,-45.59"/>
</a>
</g>
</g>
<!-- Node6 -->
<g id="Node000006" class="node">
<title>Node6</title>
<g id="a_Node000006"><a xlink:title=" ">
<polygon fill="#e0e0e0" stroke="#999999" points="405.5,-35.5 308.5,-35.5 308.5,-16.5 405.5,-16.5 405.5,-35.5"/>
<text text-anchor="middle" x="357" y="-23.5" font-family="Helvetica,sans-Serif" font-size="10.00">base/BaseUart.h</text>
</a>
</g>
</g>
<!-- Node1&#45;&gt;Node6 -->
<g id="edge5_Node000001_Node000006" class="edge">
<title>Node1&#45;&gt;Node6</title>
<g id="a_edge5_Node000001_Node000006"><a xlink:title=" ">
<path fill="none" stroke="#63b8ff" d="M264,-87.98C281.8,-76.31 313.99,-55.2 335.44,-41.14"/>
<polygon fill="#63b8ff" stroke="#63b8ff" points="337.45,-44 343.9,-35.59 333.61,-38.15 337.45,-44"/>
</a>
</g>
</g>
<!-- Node7 -->
<g id="Node000007" class="node">
<title>Node7</title>
<g id="a_Node000007"><a xlink:title=" ">
<polygon fill="#e0e0e0" stroke="#999999" points="578,-46.5 424,-46.5 424,-5.5 578,-5.5 578,-46.5"/>
<text text-anchor="start" x="432" y="-34.5" font-family="Helvetica,sans-Serif" font-size="10.00">core/hf&#45;core&#45;drivers</text>
<text text-anchor="start" x="432" y="-23.5" font-family="Helvetica,sans-Serif" font-size="10.00">/external/hf&#45;alicat&#45;basis2</text>
<text text-anchor="middle" x="501" y="-12.5" font-family="Helvetica,sans-Serif" font-size="10.00">&#45;driver/inc/alicat_basis2.hpp</text>
</a>
</g>
</g>
<!-- Node1&#45;&gt;Node7 -->
<g id="edge6_Node000001_Node000007" class="edge">
<title>Node1&#45;&gt;Node7</title>
<g id="a_edge6_Node000001_Node000007"><a xlink:title=" ">
<path fill="none" stroke="#63b8ff" d="M283.1,-87.97C316.2,-79.14 369.27,-64.85 415,-52 417.97,-51.16 421,-50.31 424.06,-49.44"/>
<polygon fill="#63b8ff" stroke="#63b8ff" points="425.24,-52.74 433.9,-46.63 423.32,-46.01 425.24,-52.74"/>
</a>
</g>
</g>
<!-- Node8 -->
<g id="Node000008" class="node">
<title>Node8</title>
<g id="a_Node000008"><a xlink:title=" ">
<polygon fill="#e0e0e0" stroke="#999999" points="734,-52 596,-52 596,0 734,0 734,-52"/>
<text text-anchor="start" x="604" y="-40" font-family="Helvetica,sans-Serif" font-size="10.00">core/hf&#45;core&#45;drivers</text>
<text text-anchor="start" x="604" y="-29" font-family="Helvetica,sans-Serif" font-size="10.00">/external/hf&#45;alicat&#45;basis2</text>
<text text-anchor="start" x="604" y="-18" font-family="Helvetica,sans-Serif" font-size="10.00">&#45;driver/inc/alicat_basis2</text>
<text text-anchor="middle" x="665" y="-7" font-family="Helvetica,sans-Serif" font-size="10.00">_uart_interface.hpp</text>
</a>
</g>
</g>
<!-- Node1&#45;&gt;Node8 -->
<g id="edge7_Node000001_Node000008" class="edge">
<title>Node1&#45;&gt;Node8</title>
<g id="a_edge7_Node000001_Node000008"><a xlink:title=" ">
<path fill="none" stroke="#63b8ff" d="M312.58,-91.67C378.23,-85.77 485.24,-74.03 585.83,-52.09"/>
<polygon fill="#63b8ff" stroke="#63b8ff" points="586.85,-55.45 595.85,-49.87 585.33,-48.62 586.85,-55.45"/>
</a>
</g>
</g>
</g>
</svg>
