<?xml version="1.0" encoding="UTF-8" standalone="no"?>
<!DOCTYPE svg PUBLIC "-//W3C//DTD SVG 1.1//EN"
 "http://www.w3.org/Graphics/SVG/1.1/DTD/svg11.dtd">
<!-- Generated by graphviz version 2.43.0 (0)
 -->
<!-- Title: Bno08xHandler.cpp Pages: 1 -->
<svg width="1450pt" height="181pt"
 viewBox="0.00 0.00 1450.00 181.00" xmlns="http://www.w3.org/2000/svg" xmlns:xlink="http://www.w3.org/1999/xlink">
<g id="graph0" class="graph" transform="scale(1 1) rotate(0) translate(4 177)">
<title>Bno08xHandler.cpp</title>
<!-- Node1 -->
<g id="Node000001" class="node">
<title>Node1</title>
<g id="a_Node000001"><a xlink:title="Implementation of unified BNO08x IMU sensor handler.">
<polygon fill="#999999" stroke="#666666" points="714.5,-173 603.5,-173 603.5,-154 714.5,-154 714.5,-173"/>
<text text-anchor="middle" x="659" y="-161" font-family="Helvetica,sans-Serif" font-size="10.00">Bno08xHandler.cpp</text>
</a>
</g>
</g>
<!-- Node2 -->
<g id="Node000002" class="node">
<title>Node2</title>
<g id="a_Node000002"><a xlink:href="Bno08xHandler_8h.html" target="_top" xlink:title="Unified handler for BNO08x IMU sensor family with multi&#45;interface support.">
<polygon fill="white" stroke="#666666" points="617,-107 517,-107 517,-88 617,-88 617,-107"/>
<text text-anchor="middle" x="567" y="-95" font-family="Helvetica,sans-Serif" font-size="10.00">Bno08xHandler.h</text>
</a>
</g>
</g>
<!-- Node1&#45;&gt;Node2 -->
<g id="edge1_Node000001_Node000002" class="edge">
<title>Node1&#45;&gt;Node2</title>
<g id="a_edge1_Node000001_Node000002"><a xlink:title=" ">
<path fill="none" stroke="#63b8ff" d="M646.59,-153.87C631.64,-143.47 606.28,-125.82 588.2,-113.25"/>
<polygon fill="#63b8ff" stroke="#63b8ff" points="589.71,-110.04 579.5,-107.2 585.72,-115.78 589.71,-110.04"/>
</a>
</g>
</g>
<!-- Node15 -->
<g id="Node000015" class="node">
<title>Node15</title>
<g id="a_Node000015"><a xlink:title=" ">
<polygon fill="#e0e0e0" stroke="#999999" points="682.5,-107 635.5,-107 635.5,-88 682.5,-88 682.5,-107"/>
<text text-anchor="middle" x="659" y="-95" font-family="Helvetica,sans-Serif" font-size="10.00">cmath</text>
</a>
</g>
</g>
<!-- Node1&#45;&gt;Node15 -->
<g id="edge14_Node000001_Node000015" class="edge">
<title>Node1&#45;&gt;Node15</title>
<g id="a_edge14_Node000001_Node000015"><a xlink:title=" ">
<path fill="none" stroke="#63b8ff" d="M659,-153.87C659,-144.66 659,-129.79 659,-117.77"/>
<polygon fill="#63b8ff" stroke="#63b8ff" points="662.5,-117.41 659,-107.41 655.5,-117.41 662.5,-117.41"/>
</a>
</g>
</g>
<!-- Node16 -->
<g id="Node000016" class="node">
<title>Node16</title>
<g id="a_Node000016"><a xlink:title=" ">
<polygon fill="#e0e0e0" stroke="#999999" points="747,-107 701,-107 701,-88 747,-88 747,-107"/>
<text text-anchor="middle" x="724" y="-95" font-family="Helvetica,sans-Serif" font-size="10.00">cstdio</text>
</a>
</g>
</g>
<!-- Node1&#45;&gt;Node16 -->
<g id="edge15_Node000001_Node000016" class="edge">
<title>Node1&#45;&gt;Node16</title>
<g id="a_edge15_Node000001_Node000016"><a xlink:title=" ">
<path fill="none" stroke="#63b8ff" d="M667.77,-153.87C677.98,-143.81 695.08,-126.98 707.74,-114.51"/>
<polygon fill="#63b8ff" stroke="#63b8ff" points="710.29,-116.92 714.96,-107.41 705.37,-111.93 710.29,-116.92"/>
</a>
</g>
</g>
<!-- Node17 -->
<g id="Node000017" class="node">
<title>Node17</title>
<g id="a_Node000017"><a xlink:title=" ">
<polygon fill="#e0e0e0" stroke="#999999" points="50,-30 0,-30 0,-11 50,-11 50,-30"/>
<text text-anchor="middle" x="25" y="-18" font-family="Helvetica,sans-Serif" font-size="10.00">cstring</text>
</a>
</g>
</g>
<!-- Node1&#45;&gt;Node17 -->
<g id="edge16_Node000001_Node000017" class="edge">
<title>Node1&#45;&gt;Node17</title>
<g id="a_edge16_Node000001_Node000017"><a xlink:title=" ">
<path fill="none" stroke="#63b8ff" d="M603.18,-160.96C467.94,-156.84 130.61,-144.06 87,-118 57.34,-100.27 39.4,-62.24 30.92,-39.58"/>
<polygon fill="#63b8ff" stroke="#63b8ff" points="34.21,-38.38 27.6,-30.11 27.61,-40.7 34.21,-38.38"/>
</a>
</g>
</g>
<!-- Node18 -->
<g id="Node000018" class="node">
<title>Node18</title>
<g id="a_Node000018"><a xlink:href="Logger_8h.html" target="_top" xlink:title="Advanced logging system with formatting capabilities.">
<polygon fill="white" stroke="#666666" points="233.5,-107 96.5,-107 96.5,-88 233.5,-88 233.5,-107"/>
<text text-anchor="middle" x="165" y="-95" font-family="Helvetica,sans-Serif" font-size="10.00">handlers/logger/Logger.h</text>
</a>
</g>
</g>
<!-- Node1&#45;&gt;Node18 -->
<g id="edge17_Node000001_Node000018" class="edge">
<title>Node1&#45;&gt;Node18</title>
<g id="a_edge17_Node000001_Node000018"><a xlink:title=" ">
<path fill="none" stroke="#63b8ff" d="M603.29,-155.28C514.49,-143.78 340.7,-121.26 240.71,-108.31"/>
<polygon fill="#63b8ff" stroke="#63b8ff" points="241.04,-104.82 230.67,-107.01 240.14,-111.76 241.04,-104.82"/>
</a>
</g>
</g>
<!-- Node21 -->
<g id="Node000021" class="node">
<title>Node21</title>
<g id="a_Node000021"><a xlink:title=" ">
<polygon fill="#e0e0e0" stroke="#999999" points="832.5,-107 765.5,-107 765.5,-88 832.5,-88 832.5,-107"/>
<text text-anchor="middle" x="799" y="-95" font-family="Helvetica,sans-Serif" font-size="10.00">OsUtility.h</text>
</a>
</g>
</g>
<!-- Node1&#45;&gt;Node21 -->
<g id="edge22_Node000001_Node000021" class="edge">
<title>Node1&#45;&gt;Node21</title>
<g id="a_edge22_Node000001_Node000021"><a xlink:title=" ">
<path fill="none" stroke="#63b8ff" d="M677.88,-153.87C701.78,-142.94 743.17,-124.02 770.82,-111.38"/>
<polygon fill="#63b8ff" stroke="#63b8ff" points="772.33,-114.54 779.97,-107.2 769.42,-108.17 772.33,-114.54"/>
</a>
</g>
</g>
<!-- Node22 -->
<g id="Node000022" class="node">
<title>Node22</title>
<g id="a_Node000022"><a xlink:title=" ">
<polygon fill="#e0e0e0" stroke="#999999" points="995,-118 851,-118 851,-77 995,-77 995,-118"/>
<text text-anchor="start" x="859" y="-106" font-family="Helvetica,sans-Serif" font-size="10.00">core/hf&#45;core&#45;drivers</text>
<text text-anchor="start" x="859" y="-95" font-family="Helvetica,sans-Serif" font-size="10.00">/external/hf&#45;bno08x&#45;driver</text>
<text text-anchor="middle" x="923" y="-84" font-family="Helvetica,sans-Serif" font-size="10.00">/src/sh2/sh2_err.h</text>
</a>
</g>
</g>
<!-- Node1&#45;&gt;Node22 -->
<g id="edge23_Node000001_Node000022" class="edge">
<title>Node1&#45;&gt;Node22</title>
<g id="a_edge23_Node000001_Node000022"><a xlink:title=" ">
<path fill="none" stroke="#63b8ff" d="M694.33,-153.94C731.6,-144.9 791.62,-130.35 840.81,-118.42"/>
<polygon fill="#63b8ff" stroke="#63b8ff" points="841.92,-121.76 850.82,-116 840.28,-114.95 841.92,-121.76"/>
</a>
</g>
</g>
<!-- Node3 -->
<g id="Node000003" class="node">
<title>Node3</title>
<g id="a_Node000003"><a xlink:title=" ">
<polygon fill="#e0e0e0" stroke="#999999" points="334,-30 284,-30 284,-11 334,-11 334,-30"/>
<text text-anchor="middle" x="309" y="-18" font-family="Helvetica,sans-Serif" font-size="10.00">cstdint</text>
</a>
</g>
</g>
<!-- Node2&#45;&gt;Node3 -->
<g id="edge2_Node000002_Node000003" class="edge">
<title>Node2&#45;&gt;Node3</title>
<g id="a_edge2_Node000002_Node000003"><a xlink:title=" ">
<path fill="none" stroke="#63b8ff" d="M516.82,-88.2C470.59,-79.6 400.63,-64.14 343,-41 338.95,-39.37 334.8,-37.34 330.84,-35.2"/>
<polygon fill="#63b8ff" stroke="#63b8ff" points="332.54,-32.14 322.13,-30.18 329.05,-38.21 332.54,-32.14"/>
</a>
</g>
</g>
<!-- Node4 -->
<g id="Node000004" class="node">
<title>Node4</title>
<g id="a_Node000004"><a xlink:title=" ">
<polygon fill="#e0e0e0" stroke="#999999" points="266,-30 208,-30 208,-11 266,-11 266,-30"/>
<text text-anchor="middle" x="237" y="-18" font-family="Helvetica,sans-Serif" font-size="10.00">memory</text>
</a>
</g>
</g>
<!-- Node2&#45;&gt;Node4 -->
<g id="edge3_Node000002_Node000004" class="edge">
<title>Node2&#45;&gt;Node4</title>
<g id="a_edge3_Node000002_Node000004"><a xlink:title=" ">
<path fill="none" stroke="#63b8ff" d="M516.8,-91.38C457.72,-84.36 357.23,-69.26 275,-41 270.17,-39.34 265.19,-37.16 260.49,-34.86"/>
<polygon fill="#63b8ff" stroke="#63b8ff" points="261.85,-31.63 251.37,-30.11 258.61,-37.84 261.85,-31.63"/>
</a>
</g>
</g>
<!-- Node5 -->
<g id="Node000005" class="node">
<title>Node5</title>
<g id="a_Node000005"><a xlink:title=" ">
<polygon fill="#e0e0e0" stroke="#999999" points="394,-30 352,-30 352,-11 394,-11 394,-30"/>
<text text-anchor="middle" x="373" y="-18" font-family="Helvetica,sans-Serif" font-size="10.00">array</text>
</a>
</g>
</g>
<!-- Node2&#45;&gt;Node5 -->
<g id="edge4_Node000002_Node000005" class="edge">
<title>Node2&#45;&gt;Node5</title>
<g id="a_edge4_Node000002_Node000005"><a xlink:title=" ">
<path fill="none" stroke="#63b8ff" d="M534.89,-87.98C501.38,-78.53 447.72,-61.84 404,-41 400.69,-39.42 397.29,-37.56 394.02,-35.63"/>
<polygon fill="#63b8ff" stroke="#63b8ff" points="395.62,-32.5 385.29,-30.16 391.9,-38.44 395.62,-32.5"/>
</a>
</g>
</g>
<!-- Node6 -->
<g id="Node000006" class="node">
<title>Node6</title>
<g id="a_Node000006"><a xlink:title=" ">
<polygon fill="#e0e0e0" stroke="#999999" points="477.5,-30 412.5,-30 412.5,-11 477.5,-11 477.5,-30"/>
<text text-anchor="middle" x="445" y="-18" font-family="Helvetica,sans-Serif" font-size="10.00">functional</text>
</a>
</g>
</g>
<!-- Node2&#45;&gt;Node6 -->
<g id="edge5_Node000002_Node000006" class="edge">
<title>Node2&#45;&gt;Node6</title>
<g id="a_edge5_Node000002_Node000006"><a xlink:title=" ">
<path fill="none" stroke="#63b8ff" d="M553.01,-87.9C532.14,-75.07 492.65,-50.79 467.64,-35.42"/>
<polygon fill="#63b8ff" stroke="#63b8ff" points="469.18,-32.26 458.83,-30 465.52,-38.22 469.18,-32.26"/>
</a>
</g>
</g>
<!-- Node7 -->
<g id="Node000007" class="node">
<title>Node7</title>
<g id="a_Node000007"><a xlink:title=" ">
<polygon fill="#e0e0e0" stroke="#999999" points="564.5,-30 495.5,-30 495.5,-11 564.5,-11 564.5,-30"/>
<text text-anchor="middle" x="530" y="-18" font-family="Helvetica,sans-Serif" font-size="10.00">type_traits</text>
</a>
</g>
</g>
<!-- Node2&#45;&gt;Node7 -->
<g id="edge6_Node000002_Node000007" class="edge">
<title>Node2&#45;&gt;Node7</title>
<g id="a_edge6_Node000002_Node000007"><a xlink:title=" ">
<path fill="none" stroke="#63b8ff" d="M562.76,-87.9C556.9,-76.03 546.21,-54.36 538.64,-39.01"/>
<polygon fill="#63b8ff" stroke="#63b8ff" points="541.76,-37.42 534.19,-30 535.48,-40.52 541.76,-37.42"/>
</a>
</g>
</g>
<!-- Node8 -->
<g id="Node000008" class="node">
<title>Node8</title>
<g id="a_Node000008"><a xlink:title=" ">
<polygon fill="#e0e0e0" stroke="#999999" points="627.5,-30 582.5,-30 582.5,-11 627.5,-11 627.5,-30"/>
<text text-anchor="middle" x="605" y="-18" font-family="Helvetica,sans-Serif" font-size="10.00">utility</text>
</a>
</g>
</g>
<!-- Node2&#45;&gt;Node8 -->
<g id="edge7_Node000002_Node000008" class="edge">
<title>Node2&#45;&gt;Node8</title>
<g id="a_edge7_Node000002_Node000008"><a xlink:title=" ">
<path fill="none" stroke="#63b8ff" d="M571.36,-87.9C577.37,-76.03 588.35,-54.36 596.13,-39.01"/>
<polygon fill="#63b8ff" stroke="#63b8ff" points="599.29,-40.51 600.69,-30 593.05,-37.34 599.29,-40.51"/>
</a>
</g>
</g>
<!-- Node9 -->
<g id="Node000009" class="node">
<title>Node9</title>
<g id="a_Node000009"><a xlink:title=" ">
<polygon fill="#e0e0e0" stroke="#999999" points="790,-41 646,-41 646,0 790,0 790,-41"/>
<text text-anchor="start" x="654" y="-29" font-family="Helvetica,sans-Serif" font-size="10.00">core/hf&#45;core&#45;drivers</text>
<text text-anchor="start" x="654" y="-18" font-family="Helvetica,sans-Serif" font-size="10.00">/external/hf&#45;bno08x&#45;driver</text>
<text text-anchor="middle" x="718" y="-7" font-family="Helvetica,sans-Serif" font-size="10.00">/inc/bno08x.hpp</text>
</a>
</g>
</g>
<!-- Node2&#45;&gt;Node9 -->
<g id="edge8_Node000002_Node000009" class="edge">
<title>Node2&#45;&gt;Node9</title>
<g id="a_edge8_Node000002_Node000009"><a xlink:title=" ">
<path fill="none" stroke="#63b8ff" d="M584.32,-87.9C604.94,-77.65 640.26,-60.12 669.41,-45.63"/>
<polygon fill="#63b8ff" stroke="#63b8ff" points="671.23,-48.64 678.63,-41.05 668.12,-42.37 671.23,-48.64"/>
</a>
</g>
</g>
<!-- Node10 -->
<g id="Node000010" class="node">
<title>Node10</title>
<g id="a_Node000010"><a xlink:title=" ">
<polygon fill="#e0e0e0" stroke="#999999" points="987.5,-41 808.5,-41 808.5,0 987.5,0 987.5,-41"/>
<text text-anchor="start" x="816.5" y="-29" font-family="Helvetica,sans-Serif" font-size="10.00">core/hf&#45;core&#45;drivers</text>
<text text-anchor="start" x="816.5" y="-18" font-family="Helvetica,sans-Serif" font-size="10.00">/external/hf&#45;bno08x&#45;driver</text>
<text text-anchor="middle" x="898" y="-7" font-family="Helvetica,sans-Serif" font-size="10.00">/inc/bno08x_comm_interface.hpp</text>
</a>
</g>
</g>
<!-- Node2&#45;&gt;Node10 -->
<g id="edge9_Node000002_Node000010" class="edge">
<title>Node2&#45;&gt;Node10</title>
<g id="a_edge9_Node000002_Node000010"><a xlink:title=" ">
<path fill="none" stroke="#63b8ff" d="M591.34,-87.9C602.17,-84.26 615.14,-80.13 627,-77 643.76,-72.57 727.84,-55.48 797.95,-41.42"/>
<polygon fill="#63b8ff" stroke="#63b8ff" points="799.07,-44.77 808.19,-39.37 797.69,-37.91 799.07,-44.77"/>
</a>
</g>
</g>
<!-- Node11 -->
<g id="Node000011" class="node">
<title>Node11</title>
<g id="a_Node000011"><a xlink:title=" ">
<polygon fill="#e0e0e0" stroke="#999999" points="1096,-30 1006,-30 1006,-11 1096,-11 1096,-30"/>
<text text-anchor="middle" x="1051" y="-18" font-family="Helvetica,sans-Serif" font-size="10.00">base/BaseI2c.h</text>
</a>
</g>
</g>
<!-- Node2&#45;&gt;Node11 -->
<g id="edge10_Node000002_Node000011" class="edge">
<title>Node2&#45;&gt;Node11</title>
<g id="a_edge10_Node000002_Node000011"><a xlink:title=" ">
<path fill="none" stroke="#63b8ff" d="M589.48,-87.91C600.61,-83.99 614.35,-79.64 627,-77 788.74,-43.27 835.83,-77.34 997,-41 1005.14,-39.17 1013.72,-36.45 1021.59,-33.62"/>
<polygon fill="#63b8ff" stroke="#63b8ff" points="1022.98,-36.84 1031.1,-30.04 1020.51,-30.29 1022.98,-36.84"/>
</a>
</g>
</g>
<!-- Node12 -->
<g id="Node000012" class="node">
<title>Node12</title>
<g id="a_Node000012"><a xlink:title=" ">
<polygon fill="#e0e0e0" stroke="#999999" points="1205.5,-30 1114.5,-30 1114.5,-11 1205.5,-11 1205.5,-30"/>
<text text-anchor="middle" x="1160" y="-18" font-family="Helvetica,sans-Serif" font-size="10.00">base/BaseSpi.h</text>
</a>
</g>
</g>
<!-- Node2&#45;&gt;Node12 -->
<g id="edge11_Node000002_Node000012" class="edge">
<title>Node2&#45;&gt;Node12</title>
<g id="a_edge11_Node000002_Node000012"><a xlink:title=" ">
<path fill="none" stroke="#63b8ff" d="M588.89,-87.99C600.12,-83.99 614.1,-79.54 627,-77 836.02,-35.78 896.54,-84.98 1105,-41 1113.46,-39.22 1122.39,-36.45 1130.53,-33.57"/>
<polygon fill="#63b8ff" stroke="#63b8ff" points="1131.85,-36.81 1140,-30.04 1129.4,-30.25 1131.85,-36.81"/>
</a>
</g>
</g>
<!-- Node13 -->
<g id="Node000013" class="node">
<title>Node13</title>
<g id="a_Node000013"><a xlink:title=" ">
<polygon fill="#e0e0e0" stroke="#999999" points="1322,-30 1224,-30 1224,-11 1322,-11 1322,-30"/>
<text text-anchor="middle" x="1273" y="-18" font-family="Helvetica,sans-Serif" font-size="10.00">base/BaseGpio.h</text>
</a>
</g>
</g>
<!-- Node2&#45;&gt;Node13 -->
<g id="edge12_Node000002_Node000013" class="edge">
<title>Node2&#45;&gt;Node13</title>
<g id="a_edge12_Node000002_Node000013"><a xlink:title=" ">
<path fill="none" stroke="#63b8ff" d="M588.88,-87.91C600.1,-83.89 614.09,-79.45 627,-77 884.22,-28.15 958.03,-91.15 1215,-41 1223.99,-39.24 1233.51,-36.46 1242.18,-33.54"/>
<polygon fill="#63b8ff" stroke="#63b8ff" points="1243.62,-36.74 1251.88,-30.1 1241.28,-30.14 1243.62,-36.74"/>
</a>
</g>
</g>
<!-- Node14 -->
<g id="Node000014" class="node">
<title>Node14</title>
<g id="a_Node000014"><a xlink:title=" ">
<polygon fill="#e0e0e0" stroke="#999999" points="1442,-30 1340,-30 1340,-11 1442,-11 1442,-30"/>
<text text-anchor="middle" x="1391" y="-18" font-family="Helvetica,sans-Serif" font-size="10.00">utils/RtosMutex.h</text>
</a>
</g>
</g>
<!-- Node2&#45;&gt;Node14 -->
<g id="edge13_Node000002_Node000014" class="edge">
<title>Node2&#45;&gt;Node14</title>
<g id="a_edge13_Node000002_Node000014"><a xlink:title=" ">
<path fill="none" stroke="#63b8ff" d="M588.59,-87.96C599.85,-83.9 613.97,-79.41 627,-77 935.09,-20.09 1022.91,-97.91 1331,-41 1340.57,-39.23 1350.73,-36.34 1359.91,-33.32"/>
<polygon fill="#63b8ff" stroke="#63b8ff" points="1361.1,-36.61 1369.41,-30.04 1358.82,-29.99 1361.1,-36.61"/>
</a>
</g>
</g>
<!-- Node18&#45;&gt;Node4 -->
<g id="edge20_Node000018_Node000004" class="edge">
<title>Node18&#45;&gt;Node4</title>
<g id="a_edge20_Node000018_Node000004"><a xlink:title=" ">
<path fill="none" stroke="#63b8ff" d="M173.26,-87.9C185.09,-75.58 207.05,-52.7 221.84,-37.29"/>
<polygon fill="#63b8ff" stroke="#63b8ff" points="224.44,-39.64 228.84,-30 219.39,-34.79 224.44,-39.64"/>
</a>
</g>
</g>
<!-- Node18&#45;&gt;Node17 -->
<g id="edge19_Node000018_Node000017" class="edge">
<title>Node18&#45;&gt;Node17</title>
<g id="a_edge19_Node000018_Node000017"><a xlink:title=" ">
<path fill="none" stroke="#63b8ff" d="M148,-87.86C126.98,-77.1 90.15,-58.08 59,-41 55.64,-39.16 52.11,-37.18 48.66,-35.22"/>
<polygon fill="#63b8ff" stroke="#63b8ff" points="50.24,-32.1 39.83,-30.17 46.77,-38.17 50.24,-32.1"/>
</a>
</g>
</g>
<!-- Node19 -->
<g id="Node000019" class="node">
<title>Node19</title>
<g id="a_Node000019"><a xlink:title=" ">
<polygon fill="#e0e0e0" stroke="#999999" points="121.5,-30 68.5,-30 68.5,-11 121.5,-11 121.5,-30"/>
<text text-anchor="middle" x="95" y="-18" font-family="Helvetica,sans-Serif" font-size="10.00">cstdarg</text>
</a>
</g>
</g>
<!-- Node18&#45;&gt;Node19 -->
<g id="edge18_Node000018_Node000019" class="edge">
<title>Node18&#45;&gt;Node19</title>
<g id="a_edge18_Node000018_Node000019"><a xlink:title=" ">
<path fill="none" stroke="#63b8ff" d="M156.97,-87.9C145.58,-75.69 124.51,-53.12 110.13,-37.71"/>
<polygon fill="#63b8ff" stroke="#63b8ff" points="112.32,-34.93 102.94,-30 107.2,-39.7 112.32,-34.93"/>
</a>
</g>
</g>
<!-- Node20 -->
<g id="Node000020" class="node">
<title>Node20</title>
<g id="a_Node000020"><a xlink:title=" ">
<polygon fill="#e0e0e0" stroke="#999999" points="190,-30 140,-30 140,-11 190,-11 190,-30"/>
<text text-anchor="middle" x="165" y="-18" font-family="Helvetica,sans-Serif" font-size="10.00">atomic</text>
</a>
</g>
</g>
<!-- Node18&#45;&gt;Node20 -->
<g id="edge21_Node000018_Node000020" class="edge">
<title>Node18&#45;&gt;Node20</title>
<g id="a_edge21_Node000018_Node000020"><a xlink:title=" ">
<path fill="none" stroke="#63b8ff" d="M165,-87.9C165,-76.37 165,-55.59 165,-40.34"/>
<polygon fill="#63b8ff" stroke="#63b8ff" points="168.5,-40 165,-30 161.5,-40 168.5,-40"/>
</a>
</g>
</g>
</g>
</svg>
