<?xml version="1.0" encoding="UTF-8" standalone="no"?>
<!DOCTYPE svg PUBLIC "-//W3C//DTD SVG 1.1//EN"
 "http://www.w3.org/Graphics/SVG/1.1/DTD/svg11.dtd">
<!-- Generated by graphviz version 2.43.0 (0)
 -->
<!-- Title: Ads7952Handler Pages: 1 -->
<svg width="739pt" height="161pt"
 viewBox="0.00 0.00 739.00 161.00" xmlns="http://www.w3.org/2000/svg" xmlns:xlink="http://www.w3.org/1999/xlink">
<g id="graph0" class="graph" transform="scale(1 1) rotate(0) translate(4 157)">
<title>Ads7952Handler</title>
<!-- Node1 -->
<g id="Node000001" class="node">
<title>Node1</title>
<g id="a_Node000001"><a xlink:title="Unified handler for ADS7952 12&#45;channel SAR ADC with BaseAdc integration.">
<polygon fill="#999999" stroke="#666666" points="731,-86 634,-86 634,-67 731,-67 731,-86"/>
<text text-anchor="middle" x="682.5" y="-74" font-family="Helvetica,sans-Serif" font-size="10.00">Ads7952Handler</text>
</a>
</g>
</g>
<!-- Node2 -->
<g id="Node000002" class="node">
<title>Node2</title>
<g id="a_Node000002"><a xlink:title=" ">
<polygon fill="white" stroke="#666666" points="463.5,-153 404.5,-153 404.5,-134 463.5,-134 463.5,-153"/>
<text text-anchor="middle" x="434" y="-141" font-family="Helvetica,sans-Serif" font-size="10.00">BaseAdc</text>
</a>
</g>
</g>
<!-- Node2&#45;&gt;Node1 -->
<g id="edge1_Node000001_Node000002" class="edge">
<title>Node2&#45;&gt;Node1</title>
<g id="a_edge1_Node000001_Node000002"><a xlink:title=" ">
<path fill="none" stroke="#63b8ff" d="M473.58,-137.3C510.64,-130.79 567.94,-119.32 616,-103.5 631.19,-98.5 647.84,-91.62 660.56,-86.05"/>
<polygon fill="#63b8ff" stroke="#63b8ff" points="472.95,-133.85 463.69,-139 474.14,-140.75 472.95,-133.85"/>
</a>
</g>
</g>
<!-- Node3 -->
<g id="Node000003" class="node">
<title>Node3</title>
<g id="a_Node000003"><a xlink:title=" ">
<polygon fill="white" stroke="#666666" points="505.5,-115.5 362.5,-115.5 362.5,-85.5 505.5,-85.5 505.5,-115.5"/>
<text text-anchor="start" x="370.5" y="-103.5" font-family="Helvetica,sans-Serif" font-size="10.00">std::unique_ptr&lt; Ads7952</text>
<text text-anchor="middle" x="434" y="-92.5" font-family="Helvetica,sans-Serif" font-size="10.00">SpiAdapter &gt;</text>
</a>
</g>
</g>
<!-- Node3&#45;&gt;Node1 -->
<g id="edge2_Node000001_Node000003" class="edge">
<title>Node3&#45;&gt;Node1</title>
<g id="a_edge2_Node000001_Node000003"><a xlink:title=" ">
<path fill="none" stroke="#9a32cd" stroke-dasharray="5,2" d="M515.94,-92.62C554.98,-88.82 600.47,-84.39 633.88,-81.14"/>
<polygon fill="#9a32cd" stroke="#9a32cd" points="515.25,-89.17 505.64,-93.62 515.93,-96.14 515.25,-89.17"/>
</a>
</g>
<text text-anchor="middle" x="583" y="-91.5" font-family="Helvetica,sans-Serif" font-size="10.00" fill="grey"> spi_adapter_</text>
</g>
<!-- Node4 -->
<g id="Node000004" class="node">
<title>Node4</title>
<g id="a_Node000004"><a xlink:href="classAds7952SpiAdapter.html" target="_top" xlink:title="CRTP adapter connecting BaseSpi interface to ADS7952 SpiInterface.">
<polygon fill="white" stroke="#666666" points="283,-110 171,-110 171,-91 283,-91 283,-110"/>
<text text-anchor="middle" x="227" y="-98" font-family="Helvetica,sans-Serif" font-size="10.00">Ads7952SpiAdapter</text>
</a>
</g>
</g>
<!-- Node4&#45;&gt;Node3 -->
<g id="edge3_Node000003_Node000004" class="edge">
<title>Node4&#45;&gt;Node3</title>
<g id="a_edge3_Node000003_Node000004"><a xlink:title=" ">
<path fill="none" stroke="#9a32cd" stroke-dasharray="5,2" d="M293.41,-100.5C315.35,-100.5 339.91,-100.5 362.24,-100.5"/>
<polygon fill="#9a32cd" stroke="#9a32cd" points="293.21,-97 283.21,-100.5 293.21,-104 293.21,-97"/>
</a>
</g>
<text text-anchor="middle" x="309.5" y="-103.5" font-family="Helvetica,sans-Serif" font-size="10.00" fill="grey"> ptr</text>
</g>
<!-- Node5 -->
<g id="Node000005" class="node">
<title>Node5</title>
<g id="a_Node000005"><a xlink:title=" ">
<polygon fill="white" stroke="#666666" points="134,-115.5 0,-115.5 0,-85.5 134,-85.5 134,-115.5"/>
<text text-anchor="start" x="8" y="-103.5" font-family="Helvetica,sans-Serif" font-size="10.00">ads7952::SpiInterface</text>
<text text-anchor="middle" x="67" y="-92.5" font-family="Helvetica,sans-Serif" font-size="10.00">&lt; Ads7952SpiAdapter &gt;</text>
</a>
</g>
</g>
<!-- Node5&#45;&gt;Node4 -->
<g id="edge4_Node000004_Node000005" class="edge">
<title>Node5&#45;&gt;Node4</title>
<g id="a_edge4_Node000004_Node000005"><a xlink:title=" ">
<path fill="none" stroke="#63b8ff" d="M144.15,-100.5C153.1,-100.5 162.1,-100.5 170.68,-100.5"/>
<polygon fill="#63b8ff" stroke="#63b8ff" points="144.09,-97 134.09,-100.5 144.09,-104 144.09,-97"/>
</a>
</g>
</g>
<!-- Node6 -->
<g id="Node000006" class="node">
<title>Node6</title>
<g id="a_Node000006"><a xlink:title=" ">
<polygon fill="white" stroke="#666666" points="532,-67.5 336,-67.5 336,-37.5 532,-37.5 532,-67.5"/>
<text text-anchor="start" x="344" y="-55.5" font-family="Helvetica,sans-Serif" font-size="10.00">std::unique_ptr&lt; ads7952</text>
<text text-anchor="middle" x="434" y="-44.5" font-family="Helvetica,sans-Serif" font-size="10.00">::ADS7952&lt; Ads7952SpiAdapter &gt; &gt;</text>
</a>
</g>
</g>
<!-- Node6&#45;&gt;Node1 -->
<g id="edge5_Node000001_Node000006" class="edge">
<title>Node6&#45;&gt;Node1</title>
<g id="a_edge5_Node000001_Node000006"><a xlink:title=" ">
<path fill="none" stroke="#9a32cd" stroke-dasharray="5,2" d="M542.59,-60.46C566.76,-62.51 592.28,-64.89 616,-67.5 621.82,-68.14 627.92,-68.88 633.96,-69.66"/>
<polygon fill="#9a32cd" stroke="#9a32cd" points="542.57,-56.94 532.32,-59.6 541.99,-63.92 542.57,-56.94"/>
</a>
</g>
<text text-anchor="middle" x="583" y="-70.5" font-family="Helvetica,sans-Serif" font-size="10.00" fill="grey"> adc_driver_</text>
</g>
<!-- Node7 -->
<g id="Node000007" class="node">
<title>Node7</title>
<g id="a_Node000007"><a xlink:href="structAds7952HandlerConfig.html" target="_top" xlink:title="Configuration for ADS7952 handler initialization.">
<polygon fill="white" stroke="#666666" points="498,-19 370,-19 370,0 498,0 498,-19"/>
<text text-anchor="middle" x="434" y="-7" font-family="Helvetica,sans-Serif" font-size="10.00">Ads7952HandlerConfig</text>
</a>
</g>
</g>
<!-- Node7&#45;&gt;Node1 -->
<g id="edge6_Node000001_Node000007" class="edge">
<title>Node7&#45;&gt;Node1</title>
<g id="a_edge6_Node000001_Node000007"><a xlink:title=" ">
<path fill="none" stroke="#9a32cd" stroke-dasharray="5,2" d="M508.53,-19.85C541.84,-25.62 581.42,-34.01 616,-45.5 632.95,-51.13 651.25,-60.06 664.19,-66.88"/>
<polygon fill="#9a32cd" stroke="#9a32cd" points="508.85,-16.35 498.4,-18.14 507.68,-23.26 508.85,-16.35"/>
</a>
</g>
<text text-anchor="middle" x="583" y="-48.5" font-family="Helvetica,sans-Serif" font-size="10.00" fill="grey"> config_</text>
</g>
</g>
</svg>
