<?xml version="1.0" encoding="UTF-8" standalone="no"?>
<!DOCTYPE svg PUBLIC "-//W3C//DTD SVG 1.1//EN"
 "http://www.w3.org/Graphics/SVG/1.1/DTD/svg11.dtd">
<!-- Generated by graphviz version 2.43.0 (0)
 -->
<!-- Title: AlicatBasis2Handler Pages: 1 -->
<svg width="586pt" height="138pt"
 viewBox="0.00 0.00 586.00 138.00" xmlns="http://www.w3.org/2000/svg" xmlns:xlink="http://www.w3.org/1999/xlink">
<g id="graph0" class="graph" transform="scale(1 1) rotate(0) translate(4 134)">
<title>AlicatBasis2Handler</title>
<!-- Node1 -->
<g id="Node000001" class="node">
<title>Node1</title>
<g id="a_Node000001"><a xlink:title="Thread&#45;safe access layer to one BASIS&#45;2 instrument on a shared bus.">
<polygon fill="#999999" stroke="#666666" points="578,-74 463,-74 463,-55 578,-55 578,-74"/>
<text text-anchor="middle" x="520.5" y="-62" font-family="Helvetica,sans-Serif" font-size="10.00">AlicatBasis2Handler</text>
</a>
</g>
</g>
<!-- Node2 -->
<g id="Node000002" class="node">
<title>Node2</title>
<g id="a_Node000002"><a xlink:href="structAlicatBasis2HandlerConfig.html" target="_top" xlink:title="Construction&#45;time configuration for a single BASIS&#45;2 slave.">
<polygon fill="white" stroke="#666666" points="361,-130 215,-130 215,-111 361,-111 361,-130"/>
<text text-anchor="middle" x="288" y="-118" font-family="Helvetica,sans-Serif" font-size="10.00">AlicatBasis2HandlerConfig</text>
</a>
</g>
</g>
<!-- Node2&#45;&gt;Node1 -->
<g id="edge1_Node000001_Node000002" class="edge">
<title>Node2&#45;&gt;Node1</title>
<g id="a_edge1_Node000001_Node000002"><a xlink:title=" ">
<path fill="none" stroke="#9a32cd" stroke-dasharray="5,2" d="M359.58,-109.18C386.51,-104.27 417.37,-97.94 445,-90.5 461.93,-85.94 480.56,-79.44 494.95,-74.08"/>
<polygon fill="#9a32cd" stroke="#9a32cd" points="358.7,-105.78 349.47,-110.99 359.93,-112.67 358.7,-105.78"/>
</a>
</g>
<text text-anchor="middle" x="416.5" y="-105.5" font-family="Helvetica,sans-Serif" font-size="10.00" fill="grey"> config_</text>
</g>
<!-- Node3 -->
<g id="Node000003" class="node">
<title>Node3</title>
<g id="a_Node000003"><a xlink:href="classHalUartAlicatBasis2Comm.html" target="_top" xlink:title="CRTP adapter that turns a BaseUart&amp; into a transport the alicat_basis2::Driver can drive.">
<polygon fill="white" stroke="#666666" points="361,-93 215,-93 215,-74 361,-74 361,-93"/>
<text text-anchor="middle" x="288" y="-81" font-family="Helvetica,sans-Serif" font-size="10.00">HalUartAlicatBasis2Comm</text>
</a>
</g>
</g>
<!-- Node3&#45;&gt;Node1 -->
<g id="edge2_Node000001_Node000003" class="edge">
<title>Node3&#45;&gt;Node1</title>
<g id="a_edge2_Node000001_Node000003"><a xlink:title=" ">
<path fill="none" stroke="#9a32cd" stroke-dasharray="5,2" d="M371.43,-76.71C401.71,-74.21 435.29,-71.44 462.81,-69.17"/>
<polygon fill="#9a32cd" stroke="#9a32cd" points="370.98,-73.23 361.3,-77.54 371.55,-80.21 370.98,-73.23"/>
</a>
</g>
<text text-anchor="middle" x="416.5" y="-78.5" font-family="Helvetica,sans-Serif" font-size="10.00" fill="grey"> comm_</text>
</g>
<!-- Node4 -->
<g id="Node000004" class="node">
<title>Node4</title>
<g id="a_Node000004"><a xlink:title=" ">
<polygon fill="white" stroke="#666666" points="169,-98.5 0,-98.5 0,-68.5 169,-68.5 169,-98.5"/>
<text text-anchor="start" x="8" y="-86.5" font-family="Helvetica,sans-Serif" font-size="10.00">alicat_basis2::UartInterface</text>
<text text-anchor="middle" x="84.5" y="-75.5" font-family="Helvetica,sans-Serif" font-size="10.00">&lt; HalUartAlicatBasis2Comm &gt;</text>
</a>
</g>
</g>
<!-- Node4&#45;&gt;Node3 -->
<g id="edge3_Node000003_Node000004" class="edge">
<title>Node4&#45;&gt;Node3</title>
<g id="a_edge3_Node000003_Node000004"><a xlink:title=" ">
<path fill="none" stroke="#63b8ff" d="M179.56,-83.5C191.39,-83.5 203.36,-83.5 214.78,-83.5"/>
<polygon fill="#63b8ff" stroke="#63b8ff" points="179.2,-80 169.2,-83.5 179.2,-87 179.2,-80"/>
</a>
</g>
</g>
<!-- Node5 -->
<g id="Node000005" class="node">
<title>Node5</title>
<g id="a_Node000005"><a xlink:title=" ">
<polygon fill="white" stroke="#666666" points="370,-56 206,-56 206,-37 370,-37 370,-56"/>
<text text-anchor="middle" x="288" y="-44" font-family="Helvetica,sans-Serif" font-size="10.00">std::unique_ptr&lt; DriverType &gt;</text>
</a>
</g>
</g>
<!-- Node5&#45;&gt;Node1 -->
<g id="edge4_Node000001_Node000005" class="edge">
<title>Node5&#45;&gt;Node1</title>
<g id="a_edge4_Node000001_Node000005"><a xlink:title=" ">
<path fill="none" stroke="#9a32cd" stroke-dasharray="5,2" d="M380.17,-45.51C401.49,-46.04 424.08,-47.21 445,-49.5 456.15,-50.72 468.11,-52.78 479.11,-55"/>
<polygon fill="#9a32cd" stroke="#9a32cd" points="380.21,-42.01 370.14,-45.3 380.07,-49.01 380.21,-42.01"/>
</a>
</g>
<text text-anchor="middle" x="416.5" y="-52.5" font-family="Helvetica,sans-Serif" font-size="10.00" fill="grey"> driver_</text>
</g>
<!-- Node6 -->
<g id="Node000006" class="node">
<title>Node6</title>
<g id="a_Node000006"><a xlink:title=" ">
<polygon fill="white" stroke="#666666" points="345.5,-19 230.5,-19 230.5,0 345.5,0 345.5,-19"/>
<text text-anchor="middle" x="288" y="-7" font-family="Helvetica,sans-Serif" font-size="10.00">std::atomic&lt; bool &gt;</text>
</a>
</g>
</g>
<!-- Node6&#45;&gt;Node1 -->
<g id="edge5_Node000001_Node000006" class="edge">
<title>Node6&#45;&gt;Node1</title>
<g id="a_edge5_Node000001_Node000006"><a xlink:title=" ">
<path fill="none" stroke="#9a32cd" stroke-dasharray="5,2" d="M355.81,-14.81C383.74,-18.09 416.31,-23.3 445,-31.5 465.13,-37.26 486.88,-47.39 501.66,-54.91"/>
<polygon fill="#9a32cd" stroke="#9a32cd" points="356.07,-11.32 345.74,-13.69 355.29,-18.28 356.07,-11.32"/>
</a>
</g>
<text text-anchor="middle" x="416.5" y="-34.5" font-family="Helvetica,sans-Serif" font-size="10.00" fill="grey"> initialized_</text>
</g>
</g>
</svg>
