<?xml version="1.0" encoding="UTF-8" standalone="no"?>
<!DOCTYPE svg PUBLIC "-//W3C//DTD SVG 1.1//EN"
 "http://www.w3.org/Graphics/SVG/1.1/DTD/svg11.dtd">
<!-- Generated by graphviz version 2.43.0 (0)
 -->
<!-- Title: Max22200Handler::~Max22200Handler Pages: 1 -->
<svg width="885pt" height="88pt"
 viewBox="0.00 0.00 885.00 87.50" xmlns="http://www.w3.org/2000/svg" xmlns:xlink="http://www.w3.org/1999/xlink">
<g id="graph0" class="graph" transform="scale(1 1) rotate(0) translate(4 83.5)">
<title>Max22200Handler::~Max22200Handler</title>
<!-- Node1 -->
<g id="Node000001" class="node">
<title>Node1</title>
<g id="a_Node000001"><a xlink:title=" ">
<polygon fill="#999999" stroke="#666666" points="171,-66 0,-66 0,-36 171,-36 171,-66"/>
<text text-anchor="start" x="8" y="-54" font-family="Helvetica,sans-Serif" font-size="10.00">Max22200Handler::~Max22200</text>
<text text-anchor="middle" x="85.5" y="-43" font-family="Helvetica,sans-Serif" font-size="10.00">Handler</text>
</a>
</g>
</g>
<!-- Node2 -->
<g id="Node000002" class="node">
<title>Node2</title>
<g id="a_Node000002"><a xlink:href="classMax22200Handler.html#a96276218d9af520726b43745bcd0f0f5" target="_top" xlink:title="Deinitialize — disable all channels, ACTIVE=0, ENABLE LOW.">
<polygon fill="white" stroke="#666666" points="374,-60.5 207,-60.5 207,-41.5 374,-41.5 374,-60.5"/>
<text text-anchor="middle" x="290.5" y="-48.5" font-family="Helvetica,sans-Serif" font-size="10.00">Max22200Handler::Deinitialize</text>
</a>
</g>
</g>
<!-- Node1&#45;&gt;Node2 -->
<g id="edge1_Node000001_Node000002" class="edge">
<title>Node1&#45;&gt;Node2</title>
<g id="a_edge1_Node000001_Node000002"><a xlink:title=" ">
<path fill="none" stroke="#63b8ff" d="M171.12,-51C179.64,-51 188.33,-51 196.93,-51"/>
<polygon fill="#63b8ff" stroke="#63b8ff" points="196.97,-54.5 206.97,-51 196.97,-47.5 196.97,-54.5"/>
</a>
</g>
</g>
<!-- Node3 -->
<g id="Node000003" class="node">
<title>Node3</title>
<g id="a_Node000003"><a xlink:href="classLogger.html#a5789d11f8f1356e2192c0023a089cbc4" target="_top" xlink:title="Get singleton instance.">
<polygon fill="white" stroke="#666666" points="524,-79.5 410,-79.5 410,-60.5 524,-60.5 524,-79.5"/>
<text text-anchor="middle" x="467" y="-67.5" font-family="Helvetica,sans-Serif" font-size="10.00">Logger::GetInstance</text>
</a>
</g>
</g>
<!-- Node2&#45;&gt;Node3 -->
<g id="edge2_Node000002_Node000003" class="edge">
<title>Node2&#45;&gt;Node3</title>
<g id="a_edge2_Node000002_Node000003"><a xlink:title=" ">
<path fill="none" stroke="#63b8ff" d="M374.15,-60C382.67,-60.93 391.24,-61.86 399.55,-62.77"/>
<polygon fill="#63b8ff" stroke="#63b8ff" points="399.21,-66.25 409.53,-63.85 399.97,-59.29 399.21,-66.25"/>
</a>
</g>
</g>
<!-- Node4 -->
<g id="Node000004" class="node">
<title>Node4</title>
<g id="a_Node000004"><a xlink:href="classLogger.html#a4681229c521795685fc14f6b55c82300" target="_top" xlink:title="Log info message.">
<polygon fill="white" stroke="#666666" points="504,-42.5 430,-42.5 430,-23.5 504,-23.5 504,-42.5"/>
<text text-anchor="middle" x="467" y="-30.5" font-family="Helvetica,sans-Serif" font-size="10.00">Logger::Info</text>
</a>
</g>
</g>
<!-- Node2&#45;&gt;Node4 -->
<g id="edge3_Node000002_Node000004" class="edge">
<title>Node2&#45;&gt;Node4</title>
<g id="a_edge3_Node000002_Node000004"><a xlink:title=" ">
<path fill="none" stroke="#63b8ff" d="M374.15,-42.47C389.73,-40.87 405.51,-39.24 419.5,-37.8"/>
<polygon fill="#63b8ff" stroke="#63b8ff" points="420.21,-41.24 429.8,-36.73 419.5,-34.28 420.21,-41.24"/>
</a>
</g>
</g>
<!-- Node5 -->
<g id="Node000005" class="node">
<title>Node5</title>
<g id="a_Node000005"><a xlink:href="classLogger.html#af9e84e0ff6bd538e4f9ed8dcebc3e2f0" target="_top" xlink:title="Check if log level is enabled for tag.">
<polygon fill="white" stroke="#666666" points="689,-61.5 560,-61.5 560,-42.5 689,-42.5 689,-61.5"/>
<text text-anchor="middle" x="624.5" y="-49.5" font-family="Helvetica,sans-Serif" font-size="10.00">Logger::IsLevelEnabled</text>
</a>
</g>
</g>
<!-- Node4&#45;&gt;Node5 -->
<g id="edge4_Node000004_Node000005" class="edge">
<title>Node4&#45;&gt;Node5</title>
<g id="a_edge4_Node000004_Node000005"><a xlink:title=" ">
<path fill="none" stroke="#63b8ff" d="M504.07,-37.41C517.68,-39.07 533.72,-41.03 549.55,-42.96"/>
<polygon fill="#63b8ff" stroke="#63b8ff" points="549.54,-46.49 559.89,-44.23 550.39,-39.54 549.54,-46.49"/>
</a>
</g>
</g>
<!-- Node6 -->
<g id="Node000006" class="node">
<title>Node6</title>
<g id="a_Node000006"><a xlink:href="classLogger.html#a6adb205db597526fb91ad20067400394" target="_top" xlink:title="Internal logging method.">
<polygon fill="white" stroke="#666666" points="679.5,-24.5 569.5,-24.5 569.5,-5.5 679.5,-5.5 679.5,-24.5"/>
<text text-anchor="middle" x="624.5" y="-12.5" font-family="Helvetica,sans-Serif" font-size="10.00">Logger::LogInternal</text>
</a>
</g>
</g>
<!-- Node4&#45;&gt;Node6 -->
<g id="edge5_Node000004_Node000006" class="edge">
<title>Node4&#45;&gt;Node6</title>
<g id="a_edge5_Node000004_Node000006"><a xlink:title=" ">
<path fill="none" stroke="#63b8ff" d="M504.07,-28.83C520.49,-26.92 540.44,-24.61 559.3,-22.43"/>
<polygon fill="#63b8ff" stroke="#63b8ff" points="559.8,-25.9 569.33,-21.27 559,-18.94 559.8,-25.9"/>
</a>
</g>
</g>
<!-- Node7 -->
<g id="Node000007" class="node">
<title>Node7</title>
<g id="a_Node000007"><a xlink:href="namespaceanonymous__namespace_02Logger_8cpp_03.html#a9d2b496fa1b4f4e28667d14e4b8cb190" target="_top" xlink:title=" ">
<polygon fill="white" stroke="#666666" points="877,-30 725,-30 725,0 877,0 877,-30"/>
<text text-anchor="start" x="733" y="-18" font-family="Helvetica,sans-Serif" font-size="10.00">anonymous_namespace</text>
<text text-anchor="middle" x="801" y="-7" font-family="Helvetica,sans-Serif" font-size="10.00">{Logger::cpp}::ToBaseLevel</text>
</a>
</g>
</g>
<!-- Node6&#45;&gt;Node7 -->
<g id="edge6_Node000006_Node000007" class="edge">
<title>Node6&#45;&gt;Node7</title>
<g id="a_edge6_Node000006_Node000007"><a xlink:title=" ">
<path fill="none" stroke="#63b8ff" d="M679.76,-15C690.93,-15 702.96,-15 714.93,-15"/>
<polygon fill="#63b8ff" stroke="#63b8ff" points="714.95,-18.5 724.95,-15 714.95,-11.5 714.95,-18.5"/>
</a>
</g>
</g>
</g>
</svg>
