<?xml version="1.0" encoding="UTF-8" standalone="no"?>
<!DOCTYPE svg PUBLIC "-//W3C//DTD SVG 1.1//EN"
 "http://www.w3.org/Graphics/SVG/1.1/DTD/svg11.dtd">
<!-- Generated by graphviz version 2.43.0 (0)
 -->
<!-- Title: As5047uHandler::HandleSensorErrors Pages: 1 -->
<svg width="1261pt" height="144pt"
 viewBox="0.00 0.00 1261.00 144.00" xmlns="http://www.w3.org/2000/svg" xmlns:xlink="http://www.w3.org/1999/xlink">
<g id="graph0" class="graph" transform="scale(1 1) rotate(0) translate(4 140)">
<title>As5047uHandler::HandleSensorErrors</title>
<!-- Node1 -->
<g id="Node000001" class="node">
<title>Node1</title>
<g id="a_Node000001"><a xlink:title="Handle sensor errors and update diagnostics.">
<polygon fill="#999999" stroke="#666666" points="1253,-104.5 1083,-104.5 1083,-74.5 1253,-74.5 1253,-104.5"/>
<text text-anchor="start" x="1091" y="-92.5" font-family="Helvetica,sans-Serif" font-size="10.00">As5047uHandler::HandleSensor</text>
<text text-anchor="middle" x="1168" y="-81.5" font-family="Helvetica,sans-Serif" font-size="10.00">Errors</text>
</a>
</g>
</g>
<!-- Node2 -->
<g id="Node000002" class="node">
<title>Node2</title>
<g id="a_Node000002"><a xlink:href="classAs5047uHandler.html#a6854be00365afbb2eeddfb3177939456" target="_top" xlink:title="Update cached diagnostics.">
<polygon fill="white" stroke="#666666" points="1047,-99 852,-99 852,-80 1047,-80 1047,-99"/>
<text text-anchor="middle" x="949.5" y="-87" font-family="Helvetica,sans-Serif" font-size="10.00">As5047uHandler::UpdateDiagnostics</text>
</a>
</g>
</g>
<!-- Node1&#45;&gt;Node2 -->
<g id="edge1_Node000001_Node000002" class="edge">
<title>Node1&#45;&gt;Node2</title>
<g id="a_edge1_Node000001_Node000002"><a xlink:title=" ">
<path fill="none" stroke="#63b8ff" d="M1072.97,-89.5C1064.39,-89.5 1055.68,-89.5 1047.07,-89.5"/>
<polygon fill="#63b8ff" stroke="#63b8ff" points="1072.99,-93 1082.99,-89.5 1072.99,-86 1072.99,-93"/>
</a>
</g>
</g>
<!-- Node3 -->
<g id="Node000003" class="node">
<title>Node3</title>
<g id="a_Node000003"><a xlink:href="classAs5047uHandler.html#a4dcfcea95fe8114ca7e0e5554d21ebc0" target="_top" xlink:title="Initialize the AS5047U sensor (lazy initialization)">
<polygon fill="white" stroke="#666666" points="816,-99 671,-99 671,-80 816,-80 816,-99"/>
<text text-anchor="middle" x="743.5" y="-87" font-family="Helvetica,sans-Serif" font-size="10.00">As5047uHandler::Initialize</text>
</a>
</g>
</g>
<!-- Node2&#45;&gt;Node3 -->
<g id="edge2_Node000002_Node000003" class="edge">
<title>Node2&#45;&gt;Node3</title>
<g id="a_edge2_Node000002_Node000003"><a xlink:title=" ">
<path fill="none" stroke="#63b8ff" d="M841.7,-89.5C833.04,-89.5 824.42,-89.5 816.1,-89.5"/>
<polygon fill="#63b8ff" stroke="#63b8ff" points="841.88,-93 851.88,-89.5 841.88,-86 841.88,-93"/>
</a>
</g>
</g>
<!-- Node4 -->
<g id="Node000004" class="node">
<title>Node4</title>
<g id="a_Node000004"><a xlink:href="classAs5047uHandler.html#a040ba453eb7892ab3189631d73a2f683" target="_top" xlink:title="Ensure initialized while mutex is already held.">
<polygon fill="white" stroke="#666666" points="635,-104.5 451,-104.5 451,-74.5 635,-74.5 635,-104.5"/>
<text text-anchor="start" x="459" y="-92.5" font-family="Helvetica,sans-Serif" font-size="10.00">As5047uHandler::EnsureInitialized</text>
<text text-anchor="middle" x="543" y="-81.5" font-family="Helvetica,sans-Serif" font-size="10.00">Locked</text>
</a>
</g>
</g>
<!-- Node3&#45;&gt;Node4 -->
<g id="edge3_Node000003_Node000004" class="edge">
<title>Node3&#45;&gt;Node4</title>
<g id="a_edge3_Node000003_Node000004"><a xlink:title=" ">
<path fill="none" stroke="#63b8ff" d="M660.7,-89.5C652.31,-89.5 643.75,-89.5 635.26,-89.5"/>
<polygon fill="#63b8ff" stroke="#63b8ff" points="660.84,-93 670.84,-89.5 660.84,-86 660.84,-93"/>
</a>
</g>
</g>
<!-- Node5 -->
<g id="Node000005" class="node">
<title>Node5</title>
<g id="a_Node000005"><a xlink:href="classAs5047uHandler.html#a7f16efc74198279ee63c46d2b55825fa" target="_top" xlink:title="Ensure the handler is initialized (lazy init entrypoint).">
<polygon fill="white" stroke="#666666" points="415,-136 231,-136 231,-117 415,-117 415,-136"/>
<text text-anchor="middle" x="323" y="-124" font-family="Helvetica,sans-Serif" font-size="10.00">As5047uHandler::EnsureInitialized</text>
</a>
</g>
</g>
<!-- Node4&#45;&gt;Node5 -->
<g id="edge4_Node000004_Node000005" class="edge">
<title>Node4&#45;&gt;Node5</title>
<g id="a_edge4_Node000004_Node000005"><a xlink:title=" ">
<path fill="none" stroke="#63b8ff" d="M443.4,-106.23C421.68,-109.92 399.41,-113.7 380.07,-116.98"/>
<polygon fill="#63b8ff" stroke="#63b8ff" points="444.06,-109.67 453.33,-104.55 442.89,-102.77 444.06,-109.67"/>
</a>
</g>
</g>
<!-- Node6 -->
<g id="Node000006" class="node">
<title>Node6</title>
<g id="a_Node000006"><a xlink:href="classAs5047uHandler.html#a7935a51fb2973e3a1793d378fc50118a" target="_top" xlink:title="Get pointer to AS5047U driver for advanced operations.">
<polygon fill="white" stroke="#666666" points="399.5,-99 246.5,-99 246.5,-80 399.5,-80 399.5,-99"/>
<text text-anchor="middle" x="323" y="-87" font-family="Helvetica,sans-Serif" font-size="10.00">As5047uHandler::GetSensor</text>
</a>
</g>
</g>
<!-- Node4&#45;&gt;Node6 -->
<g id="edge5_Node000004_Node000006" class="edge">
<title>Node4&#45;&gt;Node6</title>
<g id="a_edge5_Node000004_Node000006"><a xlink:title=" ">
<path fill="none" stroke="#63b8ff" d="M440.77,-89.5C426.93,-89.5 412.92,-89.5 399.64,-89.5"/>
<polygon fill="#63b8ff" stroke="#63b8ff" points="440.81,-93 450.81,-89.5 440.81,-86 440.81,-93"/>
</a>
</g>
</g>
<!-- Node7 -->
<g id="Node000007" class="node">
<title>Node7</title>
<g id="a_Node000007"><a xlink:href="classAs5047uHandler.html#a10eeb015c791ff484935168e3683c053" target="_top" xlink:title="Validate sensor parameters.">
<polygon fill="white" stroke="#666666" points="394.5,-61.5 251.5,-61.5 251.5,-31.5 394.5,-31.5 394.5,-61.5"/>
<text text-anchor="start" x="259.5" y="-49.5" font-family="Helvetica,sans-Serif" font-size="10.00">As5047uHandler::Validate</text>
<text text-anchor="middle" x="323" y="-38.5" font-family="Helvetica,sans-Serif" font-size="10.00">Sensor</text>
</a>
</g>
</g>
<!-- Node4&#45;&gt;Node7 -->
<g id="edge6_Node000004_Node000007" class="edge">
<title>Node4&#45;&gt;Node7</title>
<g id="a_edge6_Node000004_Node000007"><a xlink:title=" ">
<path fill="none" stroke="#63b8ff" d="M455.9,-72.52C435.62,-68.52 414.23,-64.3 394.72,-60.45"/>
<polygon fill="#63b8ff" stroke="#63b8ff" points="455.27,-75.96 465.75,-74.46 456.62,-69.09 455.27,-75.96"/>
</a>
</g>
</g>
<!-- Node8 -->
<g id="Node000008" class="node">
<title>Node8</title>
<g id="a_Node000008"><a xlink:href="classAs5047uHandler.html#a80e3768bb4a51e121f786b1b348e550e" target="_top" xlink:title="Perform sensor calibration.">
<polygon fill="white" stroke="#666666" points="195,-93 0,-93 0,-74 195,-74 195,-93"/>
<text text-anchor="middle" x="97.5" y="-81" font-family="Helvetica,sans-Serif" font-size="10.00">As5047uHandler::PerformCalibration</text>
</a>
</g>
</g>
<!-- Node7&#45;&gt;Node8 -->
<g id="edge7_Node000007_Node000008" class="edge">
<title>Node7&#45;&gt;Node8</title>
<g id="a_edge7_Node000007_Node000008"><a xlink:title=" ">
<path fill="none" stroke="#63b8ff" d="M241.05,-59.9C212.9,-64.56 181.92,-69.69 156.06,-73.97"/>
<polygon fill="#63b8ff" stroke="#63b8ff" points="241.99,-63.29 251.28,-58.21 240.85,-56.39 241.99,-63.29"/>
</a>
</g>
</g>
<!-- Node9 -->
<g id="Node000009" class="node">
<title>Node9</title>
<g id="a_Node000009"><a xlink:href="classAs5047uHandler.html#a02a98f0125d0d80e41b0708658e112a3" target="_top" xlink:title="Program current settings to OTP memory (One&#45;Time Programmable)">
<polygon fill="white" stroke="#666666" points="179.5,-56 15.5,-56 15.5,-37 179.5,-37 179.5,-56"/>
<text text-anchor="middle" x="97.5" y="-44" font-family="Helvetica,sans-Serif" font-size="10.00">As5047uHandler::ProgramOTP</text>
</a>
</g>
</g>
<!-- Node7&#45;&gt;Node9 -->
<g id="edge8_Node000007_Node000009" class="edge">
<title>Node7&#45;&gt;Node9</title>
<g id="a_edge8_Node000007_Node000009"><a xlink:title=" ">
<path fill="none" stroke="#63b8ff" d="M241.26,-46.5C221.22,-46.5 199.73,-46.5 179.66,-46.5"/>
<polygon fill="#63b8ff" stroke="#63b8ff" points="241.28,-50 251.28,-46.5 241.28,-43 241.28,-50"/>
</a>
</g>
</g>
<!-- Node10 -->
<g id="Node000010" class="node">
<title>Node10</title>
<g id="a_Node000010"><a xlink:href="classAs5047uHandler.html#a7cbd322b961c33b684227abd9581bd4b" target="_top" xlink:title="Reset sensor to default configuration.">
<polygon fill="white" stroke="#666666" points="188.5,-19 6.5,-19 6.5,0 188.5,0 188.5,-19"/>
<text text-anchor="middle" x="97.5" y="-7" font-family="Helvetica,sans-Serif" font-size="10.00">As5047uHandler::ResetToDefaults</text>
</a>
</g>
</g>
<!-- Node7&#45;&gt;Node10 -->
<g id="edge9_Node000007_Node000010" class="edge">
<title>Node7&#45;&gt;Node10</title>
<g id="a_edge9_Node000007_Node000010"><a xlink:title=" ">
<path fill="none" stroke="#63b8ff" d="M241.05,-33.1C212.9,-28.44 181.92,-23.31 156.06,-19.03"/>
<polygon fill="#63b8ff" stroke="#63b8ff" points="240.85,-36.61 251.28,-34.79 241.99,-29.71 240.85,-36.61"/>
</a>
</g>
</g>
</g>
</svg>
