<?xml version="1.0" encoding="UTF-8" standalone="no"?>
<!DOCTYPE svg PUBLIC "-//W3C//DTD SVG 1.1//EN"
 "http://www.w3.org/Graphics/SVG/1.1/DTD/svg11.dtd">
<!-- Generated by graphviz version 2.43.0 (0)
 -->
<!-- Title: HalUartTmc5160Comm Pages: 1 -->
<svg width="288pt" height="104pt"
 viewBox="0.00 0.00 287.50 104.00" xmlns="http://www.w3.org/2000/svg" xmlns:xlink="http://www.w3.org/1999/xlink">
<g id="graph0" class="graph" transform="scale(1 1) rotate(0) translate(4 100)">
<title>HalUartTmc5160Comm</title>
<!-- Node1 -->
<g id="Node000001" class="node">
<title>Node1</title>
<g id="a_Node000001"><a xlink:title="Concrete UART communication adapter for TMC5160 using BaseUart and BaseGpio.">
<polygon fill="#999999" stroke="#666666" points="220.5,-19 89.5,-19 89.5,0 220.5,0 220.5,-19"/>
<text text-anchor="middle" x="155" y="-7" font-family="Helvetica,sans-Serif" font-size="10.00">HalUartTmc5160Comm</text>
</a>
</g>
</g>
<!-- Node2 -->
<g id="Node000002" class="node">
<title>Node2</title>
<g id="a_Node000002"><a xlink:title=" ">
<polygon fill="white" stroke="#666666" points="162,-96 0,-96 0,-66 162,-66 162,-96"/>
<text text-anchor="start" x="8" y="-84" font-family="Helvetica,sans-Serif" font-size="10.00">tmc51x0::UartCommInterface</text>
<text text-anchor="middle" x="81" y="-73" font-family="Helvetica,sans-Serif" font-size="10.00">&lt; HalUartTmc5160Comm &gt;</text>
</a>
</g>
</g>
<!-- Node2&#45;&gt;Node1 -->
<g id="edge1_Node000001_Node000002" class="edge">
<title>Node2&#45;&gt;Node1</title>
<g id="a_edge1_Node000001_Node000002"><a xlink:title=" ">
<path fill="none" stroke="#63b8ff" d="M103.42,-58.94C117.58,-45.65 135.12,-29.17 145.67,-19.27"/>
<polygon fill="#63b8ff" stroke="#63b8ff" points="100.87,-56.54 95.98,-65.94 105.66,-61.64 100.87,-56.54"/>
</a>
</g>
</g>
<!-- Node3 -->
<g id="Node000003" class="node">
<title>Node3</title>
<g id="a_Node000003"><a xlink:href="structTmc5160CtrlPins.html" target="_top" xlink:title="Shared helper holding TMC5160 host&#45;side control pin references.">
<polygon fill="white" stroke="#666666" points="279.5,-90.5 180.5,-90.5 180.5,-71.5 279.5,-71.5 279.5,-90.5"/>
<text text-anchor="middle" x="230" y="-78.5" font-family="Helvetica,sans-Serif" font-size="10.00">Tmc5160CtrlPins</text>
</a>
</g>
</g>
<!-- Node3&#45;&gt;Node1 -->
<g id="edge2_Node000001_Node000003" class="edge">
<title>Node3&#45;&gt;Node1</title>
<g id="a_edge2_Node000001_Node000003"><a xlink:title=" ">
<path fill="none" stroke="#9a32cd" stroke-dasharray="5,2" d="M213.18,-64.42C198.08,-50.42 176.46,-30.38 164.27,-19.09"/>
<polygon fill="#9a32cd" stroke="#9a32cd" points="211.09,-67.25 220.8,-71.48 215.85,-62.11 211.09,-67.25"/>
</a>
</g>
<text text-anchor="middle" x="220" y="-40" font-family="Helvetica,sans-Serif" font-size="10.00" fill="grey"> ctrl_pins_</text>
</g>
</g>
</svg>
