<?xml version="1.0" encoding="UTF-8" standalone="no"?>
<!DOCTYPE svg PUBLIC "-//W3C//DTD SVG 1.1//EN"
 "http://www.w3.org/Graphics/SVG/1.1/DTD/svg11.dtd">
<!-- Generated by graphviz version 2.43.0 (0)
 -->
<!-- Title: As5047uHandler Pages: 1 -->
<svg width="761pt" height="161pt"
 viewBox="0.00 0.00 761.00 160.50" xmlns="http://www.w3.org/2000/svg" xmlns:xlink="http://www.w3.org/1999/xlink">
<g id="graph0" class="graph" transform="scale(1 1) rotate(0) translate(4 156.5)">
<title>As5047uHandler</title>
<!-- Node1 -->
<g id="Node000001" class="node">
<title>Node1</title>
<g id="a_Node000001"><a xlink:title="Unified handler for AS5047U magnetic rotary position sensor.">
<polygon fill="#999999" stroke="#666666" points="753,-77 656,-77 656,-58 753,-58 753,-77"/>
<text text-anchor="middle" x="704.5" y="-65" font-family="Helvetica,sans-Serif" font-size="10.00">As5047uHandler</text>
</a>
</g>
</g>
<!-- Node2 -->
<g id="Node000002" class="node">
<title>Node2</title>
<g id="a_Node000002"><a xlink:title=" ">
<polygon fill="white" stroke="#666666" points="505.5,-152.5 362.5,-152.5 362.5,-122.5 505.5,-122.5 505.5,-152.5"/>
<text text-anchor="start" x="370.5" y="-140.5" font-family="Helvetica,sans-Serif" font-size="10.00">std::unique_ptr&lt; As5047u</text>
<text text-anchor="middle" x="434" y="-129.5" font-family="Helvetica,sans-Serif" font-size="10.00">SpiAdapter &gt;</text>
</a>
</g>
</g>
<!-- Node2&#45;&gt;Node1 -->
<g id="edge1_Node000001_Node000002" class="edge">
<title>Node2&#45;&gt;Node1</title>
<g id="a_edge1_Node000001_Node000002"><a xlink:title=" ">
<path fill="none" stroke="#9a32cd" stroke-dasharray="5,2" d="M515.69,-123.91C553.27,-116.69 598.35,-106.76 638,-94.5 653.39,-89.74 670.18,-82.78 682.91,-77.12"/>
<polygon fill="#9a32cd" stroke="#9a32cd" points="514.98,-120.48 505.8,-125.78 516.28,-127.36 514.98,-120.48"/>
</a>
</g>
<text text-anchor="middle" x="594" y="-118.5" font-family="Helvetica,sans-Serif" font-size="10.00" fill="grey"> spi_adapter_</text>
</g>
<!-- Node3 -->
<g id="Node000003" class="node">
<title>Node3</title>
<g id="a_Node000003"><a xlink:href="classAs5047uSpiAdapter.html" target="_top" xlink:title="CRTP adapter connecting BaseSpi interface to AS5047U SpiInterface.">
<polygon fill="white" stroke="#666666" points="283,-147 171,-147 171,-128 283,-128 283,-147"/>
<text text-anchor="middle" x="227" y="-135" font-family="Helvetica,sans-Serif" font-size="10.00">As5047uSpiAdapter</text>
</a>
</g>
</g>
<!-- Node3&#45;&gt;Node2 -->
<g id="edge2_Node000002_Node000003" class="edge">
<title>Node3&#45;&gt;Node2</title>
<g id="a_edge2_Node000002_Node000003"><a xlink:title=" ">
<path fill="none" stroke="#9a32cd" stroke-dasharray="5,2" d="M293.41,-137.5C315.35,-137.5 339.91,-137.5 362.24,-137.5"/>
<polygon fill="#9a32cd" stroke="#9a32cd" points="293.21,-134 283.21,-137.5 293.21,-141 293.21,-134"/>
</a>
</g>
<text text-anchor="middle" x="309.5" y="-140.5" font-family="Helvetica,sans-Serif" font-size="10.00" fill="grey"> ptr</text>
</g>
<!-- Node4 -->
<g id="Node000004" class="node">
<title>Node4</title>
<g id="a_Node000004"><a xlink:title=" ">
<polygon fill="white" stroke="#666666" points="134,-152.5 0,-152.5 0,-122.5 134,-122.5 134,-152.5"/>
<text text-anchor="start" x="8" y="-140.5" font-family="Helvetica,sans-Serif" font-size="10.00">as5047u::SpiInterface</text>
<text text-anchor="middle" x="67" y="-129.5" font-family="Helvetica,sans-Serif" font-size="10.00">&lt; As5047uSpiAdapter &gt;</text>
</a>
</g>
</g>
<!-- Node4&#45;&gt;Node3 -->
<g id="edge3_Node000003_Node000004" class="edge">
<title>Node4&#45;&gt;Node3</title>
<g id="a_edge3_Node000003_Node000004"><a xlink:title=" ">
<path fill="none" stroke="#63b8ff" d="M144.15,-137.5C153.1,-137.5 162.1,-137.5 170.68,-137.5"/>
<polygon fill="#63b8ff" stroke="#63b8ff" points="144.09,-134 134.09,-137.5 144.09,-141 144.09,-134"/>
</a>
</g>
</g>
<!-- Node5 -->
<g id="Node000005" class="node">
<title>Node5</title>
<g id="a_Node000005"><a xlink:title=" ">
<polygon fill="white" stroke="#666666" points="532,-104.5 336,-104.5 336,-74.5 532,-74.5 532,-104.5"/>
<text text-anchor="start" x="344" y="-92.5" font-family="Helvetica,sans-Serif" font-size="10.00">std::shared_ptr&lt; as5047u</text>
<text text-anchor="middle" x="434" y="-81.5" font-family="Helvetica,sans-Serif" font-size="10.00">::AS5047U&lt; As5047uSpiAdapter &gt; &gt;</text>
</a>
</g>
</g>
<!-- Node5&#45;&gt;Node1 -->
<g id="edge4_Node000001_Node000005" class="edge">
<title>Node5&#45;&gt;Node1</title>
<g id="a_edge4_Node000001_Node000005"><a xlink:title=" ">
<path fill="none" stroke="#9a32cd" stroke-dasharray="5,2" d="M542.5,-80.69C581.82,-77.47 624.33,-73.99 655.79,-71.41"/>
<polygon fill="#9a32cd" stroke="#9a32cd" points="542,-77.22 532.31,-81.53 542.57,-84.2 542,-77.22"/>
</a>
</g>
<text text-anchor="middle" x="594" y="-82.5" font-family="Helvetica,sans-Serif" font-size="10.00" fill="grey"> as5047u_sensor_</text>
</g>
<!-- Node6 -->
<g id="Node000006" class="node">
<title>Node6</title>
<g id="a_Node000006"><a xlink:href="structAs5047uConfig.html" target="_top" xlink:title="AS5047U configuration structure.">
<polygon fill="white" stroke="#666666" points="478.5,-56 389.5,-56 389.5,-37 478.5,-37 478.5,-56"/>
<text text-anchor="middle" x="434" y="-44" font-family="Helvetica,sans-Serif" font-size="10.00">As5047uConfig</text>
</a>
</g>
</g>
<!-- Node6&#45;&gt;Node1 -->
<g id="edge5_Node000001_Node000006" class="edge">
<title>Node6&#45;&gt;Node1</title>
<g id="a_edge5_Node000001_Node000006"><a xlink:title=" ">
<path fill="none" stroke="#9a32cd" stroke-dasharray="5,2" d="M488.72,-47.43C529.72,-48.56 587.55,-51.04 638,-56.5 643.73,-57.12 649.72,-57.92 655.65,-58.8"/>
<polygon fill="#9a32cd" stroke="#9a32cd" points="488.76,-43.93 478.67,-47.17 488.58,-50.93 488.76,-43.93"/>
</a>
</g>
<text text-anchor="middle" x="594" y="-59.5" font-family="Helvetica,sans-Serif" font-size="10.00" fill="grey"> config_</text>
</g>
<!-- Node7 -->
<g id="Node000007" class="node">
<title>Node7</title>
<g id="a_Node000007"><a xlink:href="structAs5047uDiagnostics.html" target="_top" xlink:title="Sensor diagnostic information.">
<polygon fill="white" stroke="#666666" points="492,-19 376,-19 376,0 492,0 492,-19"/>
<text text-anchor="middle" x="434" y="-7" font-family="Helvetica,sans-Serif" font-size="10.00">As5047uDiagnostics</text>
</a>
</g>
</g>
<!-- Node7&#45;&gt;Node1 -->
<g id="edge6_Node000001_Node000007" class="edge">
<title>Node7&#45;&gt;Node1</title>
<g id="a_edge6_Node000001_Node000007"><a xlink:title=" ">
<path fill="none" stroke="#9a32cd" stroke-dasharray="5,2" d="M502.29,-11.99C542.4,-14.89 593.93,-21.13 638,-34.5 656.16,-40.01 675.37,-50.28 688.25,-57.91"/>
<polygon fill="#9a32cd" stroke="#9a32cd" points="502.3,-8.48 492.09,-11.3 501.83,-15.46 502.3,-8.48"/>
</a>
</g>
<text text-anchor="middle" x="594" y="-37.5" font-family="Helvetica,sans-Serif" font-size="10.00" fill="grey"> diagnostics_</text>
</g>
</g>
</svg>
