<?xml version="1.0" encoding="UTF-8" standalone="no"?>
<!DOCTYPE svg PUBLIC "-//W3C//DTD SVG 1.1//EN"
 "http://www.w3.org/Graphics/SVG/1.1/DTD/svg11.dtd">
<!-- Generated by graphviz version 2.43.0 (0)
 -->
<!-- Title: Tmc9660Handler::visitDriver Pages: 1 -->
<svg width="1120pt" height="150pt"
 viewBox="0.00 0.00 1120.00 149.50" xmlns="http://www.w3.org/2000/svg" xmlns:xlink="http://www.w3.org/1999/xlink">
<g id="graph0" class="graph" transform="scale(1 1) rotate(0) translate(4 145.5)">
<title>Tmc9660Handler::visitDriver</title>
<!-- Node1 -->
<g id="Node000001" class="node">
<title>Node1</title>
<g id="a_Node000001"><a xlink:title="Const overload of visitDriver().">
<polygon fill="#999999" stroke="#666666" points="157,-48.5 0,-48.5 0,-29.5 157,-29.5 157,-48.5"/>
<text text-anchor="middle" x="78.5" y="-36.5" font-family="Helvetica,sans-Serif" font-size="10.00">Tmc9660Handler::visitDriver</text>
</a>
</g>
</g>
<!-- Node2 -->
<g id="Node000002" class="node">
<title>Node2</title>
<g id="a_Node000002"><a xlink:href="classTmc9660Handler.html#a393382194d0602e7aa02da6a8fd7a20a" target="_top" xlink:title="Get a reference to the Temperature wrapper.">
<polygon fill="white" stroke="#666666" points="360,-48.5 193,-48.5 193,-29.5 360,-29.5 360,-48.5"/>
<text text-anchor="middle" x="276.5" y="-36.5" font-family="Helvetica,sans-Serif" font-size="10.00">Tmc9660Handler::temperature</text>
</a>
</g>
</g>
<!-- Node1&#45;&gt;Node2 -->
<g id="edge1_Node000001_Node000002" class="edge">
<title>Node1&#45;&gt;Node2</title>
<g id="a_edge1_Node000001_Node000002"><a xlink:title=" ">
<path fill="none" stroke="#63b8ff" d="M157.25,-39C165.53,-39 174.01,-39 182.45,-39"/>
<polygon fill="#63b8ff" stroke="#63b8ff" points="182.7,-42.5 192.7,-39 182.7,-35.5 182.7,-42.5"/>
</a>
</g>
</g>
<!-- Node2&#45;&gt;Node2 -->
<g id="edge14_Node000002_Node000002" class="edge">
<title>Node2&#45;&gt;Node2</title>
<g id="a_edge14_Node000002_Node000002"><a xlink:title=" ">
<path fill="none" stroke="#63b8ff" d="M245.98,-48.58C231.14,-57.23 241.31,-66.5 276.5,-66.5 301.24,-66.5 313.62,-61.92 313.62,-56.19"/>
<polygon fill="#63b8ff" stroke="#63b8ff" points="316.22,-53.84 307.02,-48.58 310.93,-58.43 316.22,-53.84"/>
</a>
</g>
</g>
<!-- Node3 -->
<g id="Node000003" class="node">
<title>Node3</title>
<g id="a_Node000003"><a xlink:href="classTmc9660Handler.html#a5a279ae9d4b5a8e0d71cb24577ad88ea" target="_top" xlink:title="Ensure driver is initialized (lazy init entrypoint).">
<polygon fill="white" stroke="#666666" points="583,-29.5 396,-29.5 396,-10.5 583,-10.5 583,-29.5"/>
<text text-anchor="middle" x="489.5" y="-17.5" font-family="Helvetica,sans-Serif" font-size="10.00">Tmc9660Handler::EnsureInitialized</text>
</a>
</g>
</g>
<!-- Node2&#45;&gt;Node3 -->
<g id="edge2_Node000002_Node000003" class="edge">
<title>Node2&#45;&gt;Node3</title>
<g id="a_edge2_Node000002_Node000003"><a xlink:title=" ">
<path fill="none" stroke="#63b8ff" d="M360.29,-31.55C368.67,-30.79 377.25,-30.02 385.81,-29.25"/>
<polygon fill="#63b8ff" stroke="#63b8ff" points="386.18,-32.73 395.83,-28.34 385.56,-25.76 386.18,-32.73"/>
</a>
</g>
</g>
<!-- Node4 -->
<g id="Node000004" class="node">
<title>Node4</title>
<g id="a_Node000004"><a xlink:href="classTmc9660Handler.html#adc564847f8ae26c47412aaee0758991c" target="_top" xlink:title="Initialize the TMC9660 device.">
<polygon fill="white" stroke="#666666" points="767,-67.5 619,-67.5 619,-48.5 767,-48.5 767,-67.5"/>
<text text-anchor="middle" x="693" y="-55.5" font-family="Helvetica,sans-Serif" font-size="10.00">Tmc9660Handler::Initialize</text>
</a>
</g>
</g>
<!-- Node3&#45;&gt;Node4 -->
<g id="edge3_Node000003_Node000004" class="edge">
<title>Node3&#45;&gt;Node4</title>
<g id="a_edge3_Node000003_Node000004"><a xlink:title=" ">
<path fill="none" stroke="#63b8ff" d="M541.09,-29.54C568.51,-34.71 602.6,-41.14 631.43,-46.58"/>
<polygon fill="#63b8ff" stroke="#63b8ff" points="630.92,-50.04 641.39,-48.46 632.21,-43.16 630.92,-50.04"/>
</a>
</g>
</g>
<!-- Node10 -->
<g id="Node000010" class="node">
<title>Node10</title>
<g id="a_Node000010"><a xlink:href="classTmc9660Handler.html#a13db97d201a287d8aa60384e04070b9f" target="_top" xlink:title="Check if the TMC9660 driver has been initialized and is ready.">
<polygon fill="white" stroke="#666666" points="947,-30 803,-30 803,0 947,0 947,-30"/>
<text text-anchor="start" x="811" y="-18" font-family="Helvetica,sans-Serif" font-size="10.00">Tmc9660Handler::IsDriver</text>
<text text-anchor="middle" x="875" y="-7" font-family="Helvetica,sans-Serif" font-size="10.00">Ready</text>
</a>
</g>
</g>
<!-- Node3&#45;&gt;Node10 -->
<g id="edge13_Node000003_Node000010" class="edge">
<title>Node3&#45;&gt;Node10</title>
<g id="a_edge13_Node000003_Node000010"><a xlink:title=" ">
<path fill="none" stroke="#63b8ff" d="M583.33,-18.79C647.28,-17.96 731.42,-16.86 792.72,-16.06"/>
<polygon fill="#63b8ff" stroke="#63b8ff" points="792.78,-19.56 802.73,-15.93 792.69,-12.56 792.78,-19.56"/>
</a>
</g>
</g>
<!-- Node4&#45;&gt;Node2 -->
<g id="edge12_Node000004_Node000002" class="edge">
<title>Node4&#45;&gt;Node2</title>
<g id="a_edge12_Node000004_Node000002"><a xlink:title=" ">
<path fill="none" stroke="#63b8ff" d="M618.97,-54.65C549.87,-51.49 445.85,-46.72 370.78,-43.28"/>
<polygon fill="#63b8ff" stroke="#63b8ff" points="370.53,-39.76 360.38,-42.8 370.21,-46.75 370.53,-39.76"/>
</a>
</g>
</g>
<!-- Node5 -->
<g id="Node000005" class="node">
<title>Node5</title>
<g id="a_Node000005"><a xlink:href="classLogger.html#a5e4bcdaea60b9ac227b564d780388769" target="_top" xlink:title="Log error message.">
<polygon fill="white" stroke="#666666" points="914.5,-141.5 835.5,-141.5 835.5,-122.5 914.5,-122.5 914.5,-141.5"/>
<text text-anchor="middle" x="875" y="-129.5" font-family="Helvetica,sans-Serif" font-size="10.00">Logger::Error</text>
</a>
</g>
</g>
<!-- Node4&#45;&gt;Node5 -->
<g id="edge4_Node000004_Node000005" class="edge">
<title>Node4&#45;&gt;Node5</title>
<g id="a_edge4_Node000004_Node000005"><a xlink:title=" ">
<path fill="none" stroke="#63b8ff" d="M709.73,-67.53C730.46,-79.74 768.37,-100.91 803,-114 810.11,-116.69 817.78,-119.1 825.35,-121.23"/>
<polygon fill="#63b8ff" stroke="#63b8ff" points="824.62,-124.66 835.19,-123.85 826.42,-117.89 824.62,-124.66"/>
</a>
</g>
</g>
<!-- Node8 -->
<g id="Node000008" class="node">
<title>Node8</title>
<g id="a_Node000008"><a xlink:href="classLogger.html#a5789d11f8f1356e2192c0023a089cbc4" target="_top" xlink:title="Get singleton instance.">
<polygon fill="white" stroke="#666666" points="932,-67.5 818,-67.5 818,-48.5 932,-48.5 932,-67.5"/>
<text text-anchor="middle" x="875" y="-55.5" font-family="Helvetica,sans-Serif" font-size="10.00">Logger::GetInstance</text>
</a>
</g>
</g>
<!-- Node4&#45;&gt;Node8 -->
<g id="edge7_Node000004_Node000008" class="edge">
<title>Node4&#45;&gt;Node8</title>
<g id="a_edge7_Node000004_Node000008"><a xlink:title=" ">
<path fill="none" stroke="#63b8ff" d="M767.21,-58C780.58,-58 794.45,-58 807.6,-58"/>
<polygon fill="#63b8ff" stroke="#63b8ff" points="807.97,-61.5 817.97,-58 807.97,-54.5 807.97,-61.5"/>
</a>
</g>
</g>
<!-- Node9 -->
<g id="Node000009" class="node">
<title>Node9</title>
<g id="a_Node000009"><a xlink:href="classLogger.html#a1c0c947d87884bca0395fd38d19d1102" target="_top" xlink:title="Log info message.">
<polygon fill="white" stroke="#666666" points="912,-104.5 838,-104.5 838,-85.5 912,-85.5 912,-104.5"/>
<text text-anchor="middle" x="875" y="-92.5" font-family="Helvetica,sans-Serif" font-size="10.00">Logger::Info</text>
</a>
</g>
</g>
<!-- Node4&#45;&gt;Node9 -->
<g id="edge8_Node000004_Node000009" class="edge">
<title>Node4&#45;&gt;Node9</title>
<g id="a_edge8_Node000004_Node000009"><a xlink:title=" ">
<path fill="none" stroke="#63b8ff" d="M740.35,-67.53C767.23,-73.05 800.96,-79.99 827.81,-85.51"/>
<polygon fill="#63b8ff" stroke="#63b8ff" points="827.24,-88.96 837.74,-87.55 828.65,-82.1 827.24,-88.96"/>
</a>
</g>
</g>
<!-- Node4&#45;&gt;Node10 -->
<g id="edge11_Node000004_Node000010" class="edge">
<title>Node4&#45;&gt;Node10</title>
<g id="a_edge11_Node000004_Node000010"><a xlink:title=" ">
<path fill="none" stroke="#63b8ff" d="M733.95,-48.46C753.8,-43.72 778.4,-37.84 801.43,-32.34"/>
<polygon fill="#63b8ff" stroke="#63b8ff" points="802.27,-35.73 811.18,-30.01 800.64,-28.93 802.27,-35.73"/>
</a>
</g>
</g>
<!-- Node6 -->
<g id="Node000006" class="node">
<title>Node6</title>
<g id="a_Node000006"><a xlink:href="classLogger.html#a737b981213c02321a5235848334d7191" target="_top" xlink:title="Check if log level is enabled for tag.">
<polygon fill="white" stroke="#666666" points="1112,-141.5 983,-141.5 983,-122.5 1112,-122.5 1112,-141.5"/>
<text text-anchor="middle" x="1047.5" y="-129.5" font-family="Helvetica,sans-Serif" font-size="10.00">Logger::IsLevelEnabled</text>
</a>
</g>
</g>
<!-- Node5&#45;&gt;Node6 -->
<g id="edge5_Node000005_Node000006" class="edge">
<title>Node5&#45;&gt;Node6</title>
<g id="a_edge5_Node000005_Node000006"><a xlink:title=" ">
<path fill="none" stroke="#63b8ff" d="M914.69,-132C931.92,-132 952.81,-132 972.83,-132"/>
<polygon fill="#63b8ff" stroke="#63b8ff" points="972.89,-135.5 982.89,-132 972.89,-128.5 972.89,-135.5"/>
</a>
</g>
</g>
<!-- Node7 -->
<g id="Node000007" class="node">
<title>Node7</title>
<g id="a_Node000007"><a xlink:href="classLogger.html#aeede6ac18db92a47caede076ef188a13" target="_top" xlink:title="Internal logging method.">
<polygon fill="white" stroke="#666666" points="1102.5,-104.5 992.5,-104.5 992.5,-85.5 1102.5,-85.5 1102.5,-104.5"/>
<text text-anchor="middle" x="1047.5" y="-92.5" font-family="Helvetica,sans-Serif" font-size="10.00">Logger::LogInternal</text>
</a>
</g>
</g>
<!-- Node5&#45;&gt;Node7 -->
<g id="edge6_Node000005_Node000007" class="edge">
<title>Node5&#45;&gt;Node7</title>
<g id="a_edge6_Node000005_Node000007"><a xlink:title=" ">
<path fill="none" stroke="#63b8ff" d="M914.69,-123.6C937.76,-118.6 967.4,-112.17 992.72,-106.67"/>
<polygon fill="#63b8ff" stroke="#63b8ff" points="993.52,-110.08 1002.55,-104.54 992.04,-103.24 993.52,-110.08"/>
</a>
</g>
</g>
<!-- Node9&#45;&gt;Node6 -->
<g id="edge9_Node000009_Node000006" class="edge">
<title>Node9&#45;&gt;Node6</title>
<g id="a_edge9_Node000009_Node000006"><a xlink:title=" ">
<path fill="none" stroke="#63b8ff" d="M912.16,-102.85C935.56,-107.93 966.45,-114.63 992.71,-120.33"/>
<polygon fill="#63b8ff" stroke="#63b8ff" points="992.01,-123.76 1002.52,-122.46 993.49,-116.92 992.01,-123.76"/>
</a>
</g>
</g>
<!-- Node9&#45;&gt;Node7 -->
<g id="edge10_Node000009_Node000007" class="edge">
<title>Node9&#45;&gt;Node7</title>
<g id="a_edge10_Node000009_Node000007"><a xlink:title=" ">
<path fill="none" stroke="#63b8ff" d="M912.16,-95C932.42,-95 958.31,-95 981.93,-95"/>
<polygon fill="#63b8ff" stroke="#63b8ff" points="982.25,-98.5 992.25,-95 982.25,-91.5 982.25,-98.5"/>
</a>
</g>
</g>
</g>
</svg>
