<?xml version="1.0" encoding="UTF-8" standalone="no"?>
<!DOCTYPE svg PUBLIC "-//W3C//DTD SVG 1.1//EN"
 "http://www.w3.org/Graphics/SVG/1.1/DTD/svg11.dtd">
<!-- Generated by graphviz version 2.43.0 (0)
 -->
<!-- Title: As5047uHandler::HandleSensorErrors Pages: 1 -->
<svg width="590pt" height="38pt"
 viewBox="0.00 0.00 590.00 38.00" xmlns="http://www.w3.org/2000/svg" xmlns:xlink="http://www.w3.org/1999/xlink">
<g id="graph0" class="graph" transform="scale(1 1) rotate(0) translate(4 34)">
<title>As5047uHandler::HandleSensorErrors</title>
<!-- Node1 -->
<g id="Node000001" class="node">
<title>Node1</title>
<g id="a_Node000001"><a xlink:title="Handle sensor errors and update diagnostics.">
<polygon fill="#999999" stroke="#666666" points="582,-30 412,-30 412,0 582,0 582,-30"/>
<text text-anchor="start" x="420" y="-18" font-family="Helvetica,sans-Serif" font-size="10.00">As5047uHandler::HandleSensor</text>
<text text-anchor="middle" x="497" y="-7" font-family="Helvetica,sans-Serif" font-size="10.00">Errors</text>
</a>
</g>
</g>
<!-- Node2 -->
<g id="Node000002" class="node">
<title>Node2</title>
<g id="a_Node000002"><a xlink:href="classAs5047uHandler.html#a6854be00365afbb2eeddfb3177939456" target="_top" xlink:title="Update cached diagnostics.">
<polygon fill="white" stroke="#666666" points="376,-24.5 181,-24.5 181,-5.5 376,-5.5 376,-24.5"/>
<text text-anchor="middle" x="278.5" y="-12.5" font-family="Helvetica,sans-Serif" font-size="10.00">As5047uHandler::UpdateDiagnostics</text>
</a>
</g>
</g>
<!-- Node1&#45;&gt;Node2 -->
<g id="edge1_Node000001_Node000002" class="edge">
<title>Node1&#45;&gt;Node2</title>
<g id="a_edge1_Node000001_Node000002"><a xlink:title=" ">
<path fill="none" stroke="#63b8ff" d="M401.97,-15C393.39,-15 384.68,-15 376.07,-15"/>
<polygon fill="#63b8ff" stroke="#63b8ff" points="401.99,-18.5 411.99,-15 401.99,-11.5 401.99,-18.5"/>
</a>
</g>
</g>
<!-- Node3 -->
<g id="Node000003" class="node">
<title>Node3</title>
<g id="a_Node000003"><a xlink:href="classAs5047uHandler.html#a4dcfcea95fe8114ca7e0e5554d21ebc0" target="_top" xlink:title="Initialize the AS5047U sensor (lazy initialization)">
<polygon fill="white" stroke="#666666" points="145,-24.5 0,-24.5 0,-5.5 145,-5.5 145,-24.5"/>
<text text-anchor="middle" x="72.5" y="-12.5" font-family="Helvetica,sans-Serif" font-size="10.00">As5047uHandler::Initialize</text>
</a>
</g>
</g>
<!-- Node2&#45;&gt;Node3 -->
<g id="edge2_Node000002_Node000003" class="edge">
<title>Node2&#45;&gt;Node3</title>
<g id="a_edge2_Node000002_Node000003"><a xlink:title=" ">
<path fill="none" stroke="#63b8ff" d="M170.7,-15C162.04,-15 153.42,-15 145.1,-15"/>
<polygon fill="#63b8ff" stroke="#63b8ff" points="170.88,-18.5 180.88,-15 170.88,-11.5 170.88,-18.5"/>
</a>
</g>
</g>
</g>
</svg>
