<?xml version="1.0" encoding="UTF-8" standalone="no"?>
<!DOCTYPE svg PUBLIC "-//W3C//DTD SVG 1.1//EN"
 "http://www.w3.org/Graphics/SVG/1.1/DTD/svg11.dtd">
<!-- Generated by graphviz version 2.43.0 (0)
 -->
<!-- Title: NtcTemperatureHandler Pages: 1 -->
<svg width="737pt" height="150pt"
 viewBox="0.00 0.00 737.00 150.00" xmlns="http://www.w3.org/2000/svg" xmlns:xlink="http://www.w3.org/1999/xlink">
<g id="graph0" class="graph" transform="scale(1 1) rotate(0) translate(4 146)">
<title>NtcTemperatureHandler</title>
<!-- Node1 -->
<g id="Node000001" class="node">
<title>Node1</title>
<g id="a_Node000001"><a xlink:title="NTC temperature sensor handler implementing BaseTemperature interface.">
<polygon fill="#999999" stroke="#666666" points="729,-83 596,-83 596,-64 729,-64 729,-83"/>
<text text-anchor="middle" x="662.5" y="-71" font-family="Helvetica,sans-Serif" font-size="10.00">NtcTemperatureHandler</text>
</a>
</g>
</g>
<!-- Node2 -->
<g id="Node000002" class="node">
<title>Node2</title>
<g id="a_Node000002"><a xlink:title=" ">
<polygon fill="white" stroke="#666666" points="429.5,-142 327.5,-142 327.5,-123 429.5,-123 429.5,-142"/>
<text text-anchor="middle" x="378.5" y="-130" font-family="Helvetica,sans-Serif" font-size="10.00">BaseTemperature</text>
</a>
</g>
</g>
<!-- Node2&#45;&gt;Node1 -->
<g id="edge1_Node000001_Node000002" class="edge">
<title>Node2&#45;&gt;Node1</title>
<g id="a_edge1_Node000001_Node000002"><a xlink:title=" ">
<path fill="none" stroke="#63b8ff" d="M439.71,-125.23C479.31,-119.86 532.11,-111.55 578,-100.5 597.55,-95.79 619.14,-88.76 635.47,-83.05"/>
<polygon fill="#63b8ff" stroke="#63b8ff" points="439.13,-121.78 429.68,-126.57 440.06,-128.72 439.13,-121.78"/>
</a>
</g>
</g>
<!-- Node3 -->
<g id="Node000003" class="node">
<title>Node3</title>
<g id="a_Node000003"><a xlink:title=" ">
<polygon fill="white" stroke="#666666" points="471,-105 286,-105 286,-86 471,-86 471,-105"/>
<text text-anchor="middle" x="378.5" y="-93" font-family="Helvetica,sans-Serif" font-size="10.00">std::unique_ptr&lt; NtcAdcAdapter &gt;</text>
</a>
</g>
</g>
<!-- Node3&#45;&gt;Node1 -->
<g id="edge2_Node000001_Node000003" class="edge">
<title>Node3&#45;&gt;Node1</title>
<g id="a_edge2_Node000001_Node000003"><a xlink:title=" ">
<path fill="none" stroke="#9a32cd" stroke-dasharray="5,2" d="M481.19,-87.57C519.39,-84.59 561.77,-81.28 595.84,-78.62"/>
<polygon fill="#9a32cd" stroke="#9a32cd" points="480.75,-84.09 471.06,-88.36 481.3,-91.07 480.75,-84.09"/>
</a>
</g>
<text text-anchor="middle" x="533.5" y="-88.5" font-family="Helvetica,sans-Serif" font-size="10.00" fill="grey"> ntc_adc_adapter_</text>
</g>
<!-- Node4 -->
<g id="Node000004" class="node">
<title>Node4</title>
<g id="a_Node000004"><a xlink:href="classNtcAdcAdapter.html" target="_top" xlink:title="Adapter that bridges BaseAdc to the ntc::AdcInterface CRTP interface required by the NtcThermistor te...">
<polygon fill="white" stroke="#666666" points="233,-105 144,-105 144,-86 233,-86 233,-105"/>
<text text-anchor="middle" x="188.5" y="-93" font-family="Helvetica,sans-Serif" font-size="10.00">NtcAdcAdapter</text>
</a>
</g>
</g>
<!-- Node4&#45;&gt;Node3 -->
<g id="edge3_Node000003_Node000004" class="edge">
<title>Node4&#45;&gt;Node3</title>
<g id="a_edge3_Node000003_Node000004"><a xlink:title=" ">
<path fill="none" stroke="#9a32cd" stroke-dasharray="5,2" d="M243.46,-95.5C256.76,-95.5 271.37,-95.5 285.91,-95.5"/>
<polygon fill="#9a32cd" stroke="#9a32cd" points="243.1,-92 233.1,-95.5 243.1,-99 243.1,-92"/>
</a>
</g>
<text text-anchor="middle" x="259.5" y="-98.5" font-family="Helvetica,sans-Serif" font-size="10.00" fill="grey"> ptr</text>
</g>
<!-- Node5 -->
<g id="Node000005" class="node">
<title>Node5</title>
<g id="a_Node000005"><a xlink:title=" ">
<polygon fill="white" stroke="#666666" points="107,-110.5 0,-110.5 0,-80.5 107,-80.5 107,-110.5"/>
<text text-anchor="start" x="8" y="-98.5" font-family="Helvetica,sans-Serif" font-size="10.00">ntc::AdcInterface&lt;</text>
<text text-anchor="middle" x="53.5" y="-87.5" font-family="Helvetica,sans-Serif" font-size="10.00"> NtcAdcAdapter &gt;</text>
</a>
</g>
</g>
<!-- Node5&#45;&gt;Node4 -->
<g id="edge4_Node000004_Node000005" class="edge">
<title>Node5&#45;&gt;Node4</title>
<g id="a_edge4_Node000004_Node000005"><a xlink:title=" ">
<path fill="none" stroke="#63b8ff" d="M117.18,-95.5C126.21,-95.5 135.33,-95.5 143.88,-95.5"/>
<polygon fill="#63b8ff" stroke="#63b8ff" points="117.07,-92 107.07,-95.5 117.07,-99 117.07,-92"/>
</a>
</g>
</g>
<!-- Node6 -->
<g id="Node000006" class="node">
<title>Node6</title>
<g id="a_Node000006"><a xlink:title=" ">
<polygon fill="white" stroke="#666666" points="463.5,-67.5 293.5,-67.5 293.5,-37.5 463.5,-37.5 463.5,-67.5"/>
<text text-anchor="start" x="301.5" y="-55.5" font-family="Helvetica,sans-Serif" font-size="10.00">std::unique_ptr&lt; NtcThermistor</text>
<text text-anchor="middle" x="378.5" y="-44.5" font-family="Helvetica,sans-Serif" font-size="10.00">Concrete &gt;</text>
</a>
</g>
</g>
<!-- Node6&#45;&gt;Node1 -->
<g id="edge5_Node000001_Node000006" class="edge">
<title>Node6&#45;&gt;Node1</title>
<g id="a_edge5_Node000001_Node000006"><a xlink:title=" ">
<path fill="none" stroke="#9a32cd" stroke-dasharray="5,2" d="M473.82,-52.51C506.84,-53.26 544.13,-54.97 578,-58.5 590.16,-59.77 603.21,-61.79 615.3,-63.95"/>
<polygon fill="#9a32cd" stroke="#9a32cd" points="473.78,-49.01 463.71,-52.3 473.64,-56.01 473.78,-49.01"/>
</a>
</g>
<text text-anchor="middle" x="533.5" y="-61.5" font-family="Helvetica,sans-Serif" font-size="10.00" fill="grey"> ntc_thermistor_</text>
</g>
<!-- Node7 -->
<g id="Node000007" class="node">
<title>Node7</title>
<g id="a_Node000007"><a xlink:href="structntc__temp__handler__config__t.html" target="_top" xlink:title="NTC temperature handler configuration structure.">
<polygon fill="white" stroke="#666666" points="452.5,-19 304.5,-19 304.5,0 452.5,0 452.5,-19"/>
<text text-anchor="middle" x="378.5" y="-7" font-family="Helvetica,sans-Serif" font-size="10.00">ntc_temp_handler_config_t</text>
</a>
</g>
</g>
<!-- Node7&#45;&gt;Node1 -->
<g id="edge6_Node000001_Node000007" class="edge">
<title>Node7&#45;&gt;Node1</title>
<g id="a_edge6_Node000001_Node000007"><a xlink:title=" ">
<path fill="none" stroke="#9a32cd" stroke-dasharray="5,2" d="M462.55,-16.22C498.5,-20.4 540.79,-27.06 578,-37.5 601.25,-44.03 626.54,-55.61 643.12,-63.88"/>
<polygon fill="#9a32cd" stroke="#9a32cd" points="462.92,-12.74 452.59,-15.1 462.14,-19.7 462.92,-12.74"/>
</a>
</g>
<text text-anchor="middle" x="533.5" y="-40.5" font-family="Helvetica,sans-Serif" font-size="10.00" fill="grey"> config_</text>
</g>
</g>
</svg>
