<?xml version="1.0" encoding="UTF-8" standalone="no"?>
<!DOCTYPE svg PUBLIC "-//W3C//DTD SVG 1.1//EN"
 "http://www.w3.org/Graphics/SVG/1.1/DTD/svg11.dtd">
<!-- Generated by graphviz version 2.43.0 (0)
 -->
<!-- Title: Pca9685PwmAdapter Pages: 1 -->
<svg width="1569pt" height="237pt"
 viewBox="0.00 0.00 1569.00 236.50" xmlns="http://www.w3.org/2000/svg" xmlns:xlink="http://www.w3.org/1999/xlink">
<g id="graph0" class="graph" transform="scale(1 1) rotate(0) translate(4 232.5)">
<title>Pca9685PwmAdapter</title>
<!-- Node1 -->
<g id="Node000001" class="node">
<title>Node1</title>
<g id="a_Node000001"><a xlink:title="BasePwm adapter for all 16 PCA9685 PWM channels.">
<polygon fill="#999999" stroke="#666666" points="432.5,-86 312.5,-86 312.5,-67 432.5,-67 432.5,-86"/>
<text text-anchor="middle" x="372.5" y="-74" font-family="Helvetica,sans-Serif" font-size="10.00">Pca9685PwmAdapter</text>
</a>
</g>
</g>
<!-- Node8 -->
<g id="Node000008" class="node">
<title>Node8</title>
<g id="a_Node000008"><a xlink:title=" ">
<polygon fill="white" stroke="#666666" points="643.5,-132.5 501.5,-132.5 501.5,-102.5 643.5,-102.5 643.5,-132.5"/>
<text text-anchor="start" x="509.5" y="-120.5" font-family="Helvetica,sans-Serif" font-size="10.00">std::shared_ptr&lt; Pca9685</text>
<text text-anchor="middle" x="572.5" y="-109.5" font-family="Helvetica,sans-Serif" font-size="10.00">PwmAdapter &gt;</text>
</a>
</g>
</g>
<!-- Node1&#45;&gt;Node8 -->
<g id="edge8_Node000008_Node000001" class="edge">
<title>Node1&#45;&gt;Node8</title>
<g id="a_edge8_Node000008_Node000001"><a xlink:title=" ">
<path fill="none" stroke="#9a32cd" stroke-dasharray="5,2" d="M429.42,-88.08C451.78,-92.71 477.78,-98.09 501.38,-102.98"/>
<polygon fill="#9a32cd" stroke="#9a32cd" points="429.92,-84.61 419.42,-86.01 428.51,-91.46 429.92,-84.61"/>
</a>
</g>
<text text-anchor="middle" x="459.5" y="-98.5" font-family="Helvetica,sans-Serif" font-size="10.00" fill="grey"> ptr</text>
</g>
<!-- Node2 -->
<g id="Node000002" class="node">
<title>Node2</title>
<g id="a_Node000002"><a xlink:title=" ">
<polygon fill="white" stroke="#666666" points="125,-153 60,-153 60,-134 125,-134 125,-153"/>
<text text-anchor="middle" x="92.5" y="-141" font-family="Helvetica,sans-Serif" font-size="10.00">BasePwm</text>
</a>
</g>
</g>
<!-- Node2&#45;&gt;Node1 -->
<g id="edge1_Node000001_Node000002" class="edge">
<title>Node2&#45;&gt;Node1</title>
<g id="a_edge1_Node000001_Node000002"><a xlink:title=" ">
<path fill="none" stroke="#63b8ff" d="M135.28,-137.71C176.17,-131.55 240.01,-120.6 294,-105.5 312.95,-100.2 333.82,-92.27 349.12,-86.04"/>
<polygon fill="#63b8ff" stroke="#63b8ff" points="134.52,-134.29 125.14,-139.21 135.54,-141.21 134.52,-134.29"/>
</a>
</g>
</g>
<!-- Node3 -->
<g id="Node000003" class="node">
<title>Node3</title>
<g id="a_Node000003"><a xlink:href="classPca9685Handler.html" target="_top" xlink:title="Unified, non&#45;templated handler for a single PCA9685 PWM controller.">
<polygon fill="white" stroke="#666666" points="875,-158 779,-158 779,-139 875,-139 875,-158"/>
<text text-anchor="middle" x="827" y="-146" font-family="Helvetica,sans-Serif" font-size="10.00">Pca9685Handler</text>
</a>
</g>
</g>
<!-- Node3&#45;&gt;Node1 -->
<g id="edge2_Node000001_Node000003" class="edge">
<title>Node3&#45;&gt;Node1</title>
<g id="a_edge2_Node000001_Node000003"><a xlink:title=" ">
<path fill="none" stroke="#9a32cd" stroke-dasharray="5,2" d="M798.89,-134.29C766.59,-118.2 710.52,-92.87 659,-82.5 581.97,-66.99 490.88,-68.39 432.67,-71.7"/>
<polygon fill="#9a32cd" stroke="#9a32cd" points="797.62,-137.57 808.12,-138.96 800.78,-131.32 797.62,-137.57"/>
</a>
</g>
<text text-anchor="middle" x="572.5" y="-85.5" font-family="Helvetica,sans-Serif" font-size="10.00" fill="grey"> parent_handler_</text>
</g>
<!-- Node11 -->
<g id="Node000011" class="node">
<title>Node11</title>
<g id="a_Node000011"><a xlink:href="classPca9685GpioPin.html" target="_top" xlink:title="BaseGpio adapter for a single PCA9685 channel used as a digital output.">
<polygon fill="white" stroke="#666666" points="1088,-190 993,-190 993,-171 1088,-171 1088,-190"/>
<text text-anchor="middle" x="1040.5" y="-178" font-family="Helvetica,sans-Serif" font-size="10.00">Pca9685GpioPin</text>
</a>
</g>
</g>
<!-- Node3&#45;&gt;Node11 -->
<g id="edge13_Node000011_Node000003" class="edge">
<title>Node3&#45;&gt;Node11</title>
<g id="a_edge13_Node000011_Node000003"><a xlink:title=" ">
<path fill="none" stroke="#9a32cd" stroke-dasharray="5,2" d="M885.14,-156.98C912.36,-161.04 945.37,-165.99 975,-170.5 980.83,-171.39 986.95,-172.33 993,-173.26"/>
<polygon fill="#9a32cd" stroke="#9a32cd" points="885.42,-153.48 875.01,-155.47 884.39,-160.41 885.42,-153.48"/>
</a>
</g>
<text text-anchor="middle" x="934" y="-173.5" font-family="Helvetica,sans-Serif" font-size="10.00" fill="grey"> parent_handler_</text>
</g>
<!-- Node4 -->
<g id="Node000004" class="node">
<title>Node4</title>
<g id="a_Node000004"><a xlink:title=" ">
<polygon fill="white" stroke="#666666" points="659,-228.5 486,-228.5 486,-198.5 659,-198.5 659,-228.5"/>
<text text-anchor="start" x="494" y="-216.5" font-family="Helvetica,sans-Serif" font-size="10.00">std::unique_ptr&lt; HalI2cPca9685</text>
<text text-anchor="middle" x="572.5" y="-205.5" font-family="Helvetica,sans-Serif" font-size="10.00">Comm &gt;</text>
</a>
</g>
</g>
<!-- Node4&#45;&gt;Node3 -->
<g id="edge3_Node000003_Node000004" class="edge">
<title>Node4&#45;&gt;Node3</title>
<g id="a_edge3_Node000003_Node000004"><a xlink:title=" ">
<path fill="none" stroke="#9a32cd" stroke-dasharray="5,2" d="M667.8,-196.4C697.84,-190.15 731.04,-182.4 761,-173.5 775.49,-169.2 791.32,-163.14 803.74,-158.06"/>
<polygon fill="#9a32cd" stroke="#9a32cd" points="666.84,-193.02 657.75,-198.46 668.24,-199.88 666.84,-193.02"/>
</a>
</g>
<text text-anchor="middle" x="719" y="-196.5" font-family="Helvetica,sans-Serif" font-size="10.00" fill="grey"> i2c_adapter_</text>
</g>
<!-- Node5 -->
<g id="Node000005" class="node">
<title>Node5</title>
<g id="a_Node000005"><a xlink:href="classHalI2cPca9685Comm.html" target="_top" xlink:title="Concrete I2C communication adapter for PCA9685 using BaseI2c.">
<polygon fill="white" stroke="#666666" points="433,-223 312,-223 312,-204 433,-204 433,-223"/>
<text text-anchor="middle" x="372.5" y="-211" font-family="Helvetica,sans-Serif" font-size="10.00">HalI2cPca9685Comm</text>
</a>
</g>
</g>
<!-- Node5&#45;&gt;Node4 -->
<g id="edge4_Node000004_Node000005" class="edge">
<title>Node5&#45;&gt;Node4</title>
<g id="a_edge4_Node000004_Node000005"><a xlink:title=" ">
<path fill="none" stroke="#9a32cd" stroke-dasharray="5,2" d="M443.5,-213.5C457.25,-213.5 471.81,-213.5 485.99,-213.5"/>
<polygon fill="#9a32cd" stroke="#9a32cd" points="443.18,-210 433.18,-213.5 443.18,-217 443.18,-210"/>
</a>
</g>
<text text-anchor="middle" x="459.5" y="-216.5" font-family="Helvetica,sans-Serif" font-size="10.00" fill="grey"> ptr</text>
</g>
<!-- Node6 -->
<g id="Node000006" class="node">
<title>Node6</title>
<g id="a_Node000006"><a xlink:title=" ">
<polygon fill="white" stroke="#666666" points="164,-228.5 21,-228.5 21,-198.5 164,-198.5 164,-228.5"/>
<text text-anchor="start" x="29" y="-216.5" font-family="Helvetica,sans-Serif" font-size="10.00">pca9685::I2cInterface</text>
<text text-anchor="middle" x="92.5" y="-205.5" font-family="Helvetica,sans-Serif" font-size="10.00">&lt; HalI2cPca9685Comm &gt;</text>
</a>
</g>
</g>
<!-- Node6&#45;&gt;Node5 -->
<g id="edge5_Node000005_Node000006" class="edge">
<title>Node6&#45;&gt;Node5</title>
<g id="a_edge5_Node000005_Node000006"><a xlink:title=" ">
<path fill="none" stroke="#63b8ff" d="M174.11,-213.5C218.12,-213.5 271.67,-213.5 311.89,-213.5"/>
<polygon fill="#63b8ff" stroke="#63b8ff" points="174.01,-210 164.01,-213.5 174.01,-217 174.01,-210"/>
</a>
</g>
</g>
<!-- Node7 -->
<g id="Node000007" class="node">
<title>Node7</title>
<g id="a_Node000007"><a xlink:title=" ">
<polygon fill="white" stroke="#666666" points="643.5,-180.5 501.5,-180.5 501.5,-150.5 643.5,-150.5 643.5,-180.5"/>
<text text-anchor="start" x="509.5" y="-168.5" font-family="Helvetica,sans-Serif" font-size="10.00">std::unique_ptr&lt; Pca9685</text>
<text text-anchor="middle" x="572.5" y="-157.5" font-family="Helvetica,sans-Serif" font-size="10.00">Driver &gt;</text>
</a>
</g>
</g>
<!-- Node7&#45;&gt;Node3 -->
<g id="edge6_Node000003_Node000007" class="edge">
<title>Node7&#45;&gt;Node3</title>
<g id="a_edge6_Node000003_Node000007"><a xlink:title=" ">
<path fill="none" stroke="#9a32cd" stroke-dasharray="5,2" d="M653.52,-160.11C694.69,-157.34 743.48,-154.06 778.64,-151.69"/>
<polygon fill="#9a32cd" stroke="#9a32cd" points="653.24,-156.62 643.5,-160.79 653.71,-163.61 653.24,-156.62"/>
</a>
</g>
<text text-anchor="middle" x="719" y="-161.5" font-family="Helvetica,sans-Serif" font-size="10.00" fill="grey"> pca9685_driver_</text>
</g>
<!-- Node8&#45;&gt;Node3 -->
<g id="edge7_Node000003_Node000008" class="edge">
<title>Node8&#45;&gt;Node3</title>
<g id="a_edge7_Node000003_Node000008"><a xlink:title=" ">
<path fill="none" stroke="#9a32cd" stroke-dasharray="5,2" d="M653.65,-124.96C686.92,-128.34 725.88,-132.66 761,-137.5 766.78,-138.3 772.84,-139.21 778.84,-140.17"/>
<polygon fill="#9a32cd" stroke="#9a32cd" points="653.82,-121.46 643.52,-123.94 653.12,-128.42 653.82,-121.46"/>
</a>
</g>
<text text-anchor="middle" x="719" y="-140.5" font-family="Helvetica,sans-Serif" font-size="10.00" fill="grey"> pwm_adapter_</text>
</g>
<!-- Node9 -->
<g id="Node000009" class="node">
<title>Node9</title>
<g id="a_Node000009"><a xlink:title=" ">
<polygon fill="white" stroke="#666666" points="1561,-174 1424,-174 1424,-133 1561,-133 1561,-174"/>
<text text-anchor="start" x="1432" y="-162" font-family="Helvetica,sans-Serif" font-size="10.00">std::array&lt; std::shared</text>
<text text-anchor="start" x="1432" y="-151" font-family="Helvetica,sans-Serif" font-size="10.00">_ptr&lt; Pca9685GpioPin &gt;</text>
<text text-anchor="middle" x="1492.5" y="-140" font-family="Helvetica,sans-Serif" font-size="10.00">, 16 &gt;</text>
</a>
</g>
</g>
<!-- Node9&#45;&gt;Node3 -->
<g id="edge9_Node000003_Node000009" class="edge">
<title>Node9&#45;&gt;Node3</title>
<g id="a_edge9_Node000003_Node000009"><a xlink:title=" ">
<path fill="none" stroke="#9a32cd" stroke-dasharray="5,2" d="M1413.76,-152.91C1274.87,-151.87 988.12,-149.71 875.19,-148.86"/>
<polygon fill="#9a32cd" stroke="#9a32cd" points="1413.87,-156.42 1423.9,-152.99 1413.93,-149.42 1413.87,-156.42"/>
</a>
</g>
<text text-anchor="middle" x="1142.5" y="-153.5" font-family="Helvetica,sans-Serif" font-size="10.00" fill="grey"> gpio_registry_</text>
</g>
<!-- Node10 -->
<g id="Node000010" class="node">
<title>Node10</title>
<g id="a_Node000010"><a xlink:title=" ">
<polygon fill="white" stroke="#666666" points="1339,-195.5 1197,-195.5 1197,-165.5 1339,-165.5 1339,-195.5"/>
<text text-anchor="start" x="1205" y="-183.5" font-family="Helvetica,sans-Serif" font-size="10.00">std::shared_ptr&lt; Pca9685</text>
<text text-anchor="middle" x="1268" y="-172.5" font-family="Helvetica,sans-Serif" font-size="10.00">GpioPin &gt;</text>
</a>
</g>
</g>
<!-- Node10&#45;&gt;Node9 -->
<g id="edge10_Node000009_Node000010" class="edge">
<title>Node10&#45;&gt;Node9</title>
<g id="a_edge10_Node000009_Node000010"><a xlink:title=" ">
<path fill="none" stroke="#9a32cd" stroke-dasharray="5,2" d="M1349.06,-170.79C1373.49,-167.82 1400.11,-164.59 1423.66,-161.73"/>
<polygon fill="#9a32cd" stroke="#9a32cd" points="1348.6,-167.31 1339.09,-171.99 1349.44,-174.26 1348.6,-167.31"/>
</a>
</g>
<text text-anchor="middle" x="1381.5" y="-171.5" font-family="Helvetica,sans-Serif" font-size="10.00" fill="grey"> elements</text>
</g>
<!-- Node11&#45;&gt;Node10 -->
<g id="edge11_Node000010_Node000011" class="edge">
<title>Node11&#45;&gt;Node10</title>
<g id="a_edge11_Node000010_Node000011"><a xlink:title=" ">
<path fill="none" stroke="#9a32cd" stroke-dasharray="5,2" d="M1098.47,-180.5C1128.33,-180.5 1165.16,-180.5 1196.77,-180.5"/>
<polygon fill="#9a32cd" stroke="#9a32cd" points="1098.22,-177 1088.22,-180.5 1098.22,-184 1098.22,-177"/>
</a>
</g>
<text text-anchor="middle" x="1142.5" y="-183.5" font-family="Helvetica,sans-Serif" font-size="10.00" fill="grey"> ptr</text>
</g>
<!-- Node12 -->
<g id="Node000012" class="node">
<title>Node12</title>
<g id="a_Node000012"><a xlink:title=" ">
<polygon fill="white" stroke="#666666" points="858.5,-206 795.5,-206 795.5,-187 858.5,-187 858.5,-206"/>
<text text-anchor="middle" x="827" y="-194" font-family="Helvetica,sans-Serif" font-size="10.00">BaseGpio</text>
</a>
</g>
</g>
<!-- Node12&#45;&gt;Node11 -->
<g id="edge12_Node000011_Node000012" class="edge">
<title>Node12&#45;&gt;Node11</title>
<g id="a_edge12_Node000011_Node000012"><a xlink:title=" ">
<path fill="none" stroke="#63b8ff" d="M868.76,-193.42C904.21,-190.74 955.57,-186.85 992.69,-184.04"/>
<polygon fill="#63b8ff" stroke="#63b8ff" points="868.46,-189.93 858.75,-194.17 868.99,-196.91 868.46,-189.93"/>
</a>
</g>
</g>
<!-- Node13 -->
<g id="Node000013" class="node">
<title>Node13</title>
<g id="a_Node000013"><a xlink:title=" ">
<polygon fill="white" stroke="#666666" points="144,-115.5 41,-115.5 41,-85.5 144,-85.5 144,-115.5"/>
<text text-anchor="start" x="49" y="-103.5" font-family="Helvetica,sans-Serif" font-size="10.00">std::array&lt; float,</text>
<text text-anchor="middle" x="92.5" y="-92.5" font-family="Helvetica,sans-Serif" font-size="10.00"> kMaxChannels &gt;</text>
</a>
</g>
</g>
<!-- Node13&#45;&gt;Node1 -->
<g id="edge14_Node000001_Node000013" class="edge">
<title>Node13&#45;&gt;Node1</title>
<g id="a_edge14_Node000001_Node000013"><a xlink:title=" ">
<path fill="none" stroke="#9a32cd" stroke-dasharray="5,2" d="M154.18,-95.26C201.02,-91.22 265.47,-85.65 312.01,-81.64"/>
<polygon fill="#9a32cd" stroke="#9a32cd" points="153.83,-91.78 144.17,-96.13 154.43,-98.75 153.83,-91.78"/>
</a>
</g>
<text text-anchor="middle" x="248.5" y="-93.5" font-family="Helvetica,sans-Serif" font-size="10.00" fill="grey"> duty_cache_</text>
</g>
<!-- Node14 -->
<g id="Node000014" class="node">
<title>Node14</title>
<g id="a_Node000014"><a xlink:title=" ">
<polygon fill="white" stroke="#666666" points="150,-67.5 35,-67.5 35,-37.5 150,-37.5 150,-67.5"/>
<text text-anchor="start" x="43" y="-55.5" font-family="Helvetica,sans-Serif" font-size="10.00">std::array&lt; uint16</text>
<text text-anchor="middle" x="92.5" y="-44.5" font-family="Helvetica,sans-Serif" font-size="10.00">_t, kMaxChannels &gt;</text>
</a>
</g>
</g>
<!-- Node14&#45;&gt;Node1 -->
<g id="edge15_Node000001_Node000014" class="edge">
<title>Node14&#45;&gt;Node1</title>
<g id="a_edge15_Node000001_Node000014"><a xlink:title=" ">
<path fill="none" stroke="#9a32cd" stroke-dasharray="5,2" d="M160.31,-57.44C199.32,-60.42 249.47,-64.43 294,-68.5 299.93,-69.04 306.11,-69.63 312.28,-70.24"/>
<polygon fill="#9a32cd" stroke="#9a32cd" points="160.37,-53.94 150.14,-56.67 159.84,-60.92 160.37,-53.94"/>
</a>
</g>
<text text-anchor="middle" x="248.5" y="-71.5" font-family="Helvetica,sans-Serif" font-size="10.00" fill="grey"> on_time_cache_</text>
</g>
<!-- Node15 -->
<g id="Node000015" class="node">
<title>Node15</title>
<g id="a_Node000015"><a xlink:title=" ">
<polygon fill="white" stroke="#666666" points="185,-19 0,-19 0,0 185,0 185,-19"/>
<text text-anchor="middle" x="92.5" y="-7" font-family="Helvetica,sans-Serif" font-size="10.00">std::array&lt; bool, kMaxChannels &gt;</text>
</a>
</g>
</g>
<!-- Node15&#45;&gt;Node1 -->
<g id="edge16_Node000001_Node000015" class="edge">
<title>Node15&#45;&gt;Node1</title>
<g id="a_edge16_Node000001_Node000015"><a xlink:title=" ">
<path fill="none" stroke="#9a32cd" stroke-dasharray="5,2" d="M177.23,-20.65C213.51,-26.47 256.24,-34.68 294,-45.5 313.78,-51.17 335.46,-60.09 350.85,-66.91"/>
<polygon fill="#9a32cd" stroke="#9a32cd" points="177.6,-17.16 167.17,-19.07 176.51,-24.08 177.6,-17.16"/>
</a>
</g>
<text text-anchor="middle" x="248.5" y="-48.5" font-family="Helvetica,sans-Serif" font-size="10.00" fill="grey"> channel_enabled_</text>
</g>
</g>
</svg>
