<?xml version="1.0" encoding="UTF-8" standalone="no"?>
<!DOCTYPE svg PUBLIC "-//W3C//DTD SVG 1.1//EN"
 "http://www.w3.org/Graphics/SVG/1.1/DTD/svg11.dtd">
<!-- Generated by graphviz version 2.43.0 (0)
 -->
<!-- Title: Pcal95555Handler::ConfigureHardwareInterrupt Pages: 1 -->
<svg width="923pt" height="123pt"
 viewBox="0.00 0.00 923.00 123.00" xmlns="http://www.w3.org/2000/svg" xmlns:xlink="http://www.w3.org/1999/xlink">
<g id="graph0" class="graph" transform="scale(1 1) rotate(0) translate(4 119)">
<title>Pcal95555Handler::ConfigureHardwareInterrupt</title>
<!-- Node1 -->
<g id="Node000001" class="node">
<title>Node1</title>
<g id="a_Node000001"><a xlink:title="Configure the hardware interrupt pin (falling edge, active&#45;low).">
<polygon fill="#999999" stroke="#666666" points="915,-91 757,-91 757,-61 915,-61 915,-91"/>
<text text-anchor="start" x="765" y="-79" font-family="Helvetica,sans-Serif" font-size="10.00">Pcal95555Handler::Configure</text>
<text text-anchor="middle" x="836" y="-68" font-family="Helvetica,sans-Serif" font-size="10.00">HardwareInterrupt</text>
</a>
</g>
</g>
<!-- Node2 -->
<g id="Node000002" class="node">
<title>Node2</title>
<g id="a_Node000002"><a xlink:href="classPcal95555Handler.html#a5c2e68d6c9e39e373d40e94f5e951558" target="_top" xlink:title="Internal initialization (called by EnsureInitialized under mutex).">
<polygon fill="white" stroke="#666666" points="721,-85.5 568,-85.5 568,-66.5 721,-66.5 721,-85.5"/>
<text text-anchor="middle" x="644.5" y="-73.5" font-family="Helvetica,sans-Serif" font-size="10.00">Pcal95555Handler::Initialize</text>
</a>
</g>
</g>
<!-- Node1&#45;&gt;Node2 -->
<g id="edge1_Node000001_Node000002" class="edge">
<title>Node1&#45;&gt;Node2</title>
<g id="a_edge1_Node000001_Node000002"><a xlink:title=" ">
<path fill="none" stroke="#63b8ff" d="M746.78,-76C738.18,-76 729.51,-76 721.05,-76"/>
<polygon fill="#63b8ff" stroke="#63b8ff" points="746.83,-79.5 756.83,-76 746.83,-72.5 746.83,-79.5"/>
</a>
</g>
</g>
<!-- Node3 -->
<g id="Node000003" class="node">
<title>Node3</title>
<g id="a_Node000003"><a xlink:href="classPcal95555Handler.html#a255f8ed3461301b509ff4ae9f6e78c51" target="_top" xlink:title="Ensure the handler is initialized (lazy initialization).">
<polygon fill="white" stroke="#666666" points="532,-115 388,-115 388,-85 532,-85 532,-115"/>
<text text-anchor="start" x="396" y="-103" font-family="Helvetica,sans-Serif" font-size="10.00">Pcal95555Handler::Ensure</text>
<text text-anchor="middle" x="460" y="-92" font-family="Helvetica,sans-Serif" font-size="10.00">Initialized</text>
</a>
</g>
</g>
<!-- Node2&#45;&gt;Node3 -->
<g id="edge2_Node000002_Node000003" class="edge">
<title>Node2&#45;&gt;Node3</title>
<g id="a_edge2_Node000002_Node000003"><a xlink:title=" ">
<path fill="none" stroke="#63b8ff" d="M561.09,-86.84C551.42,-88.11 541.61,-89.4 532.11,-90.65"/>
<polygon fill="#63b8ff" stroke="#63b8ff" points="561.65,-90.29 571.11,-85.52 560.74,-83.35 561.65,-90.29"/>
</a>
</g>
</g>
<!-- Node6 -->
<g id="Node000006" class="node">
<title>Node6</title>
<g id="a_Node000006"><a xlink:href="classPcal95555Handler.html#a7d8ed72bf4fc9dfcb0be4877deec99b3" target="_top" xlink:title="Check init state under already&#45;held handler_mutex_.">
<polygon fill="white" stroke="#666666" points="532,-67 388,-67 388,-37 532,-37 532,-67"/>
<text text-anchor="start" x="396" y="-55" font-family="Helvetica,sans-Serif" font-size="10.00">Pcal95555Handler::Ensure</text>
<text text-anchor="middle" x="460" y="-44" font-family="Helvetica,sans-Serif" font-size="10.00">InitializedLocked</text>
</a>
</g>
</g>
<!-- Node2&#45;&gt;Node6 -->
<g id="edge5_Node000002_Node000006" class="edge">
<title>Node2&#45;&gt;Node6</title>
<g id="a_edge5_Node000002_Node000006"><a xlink:title=" ">
<path fill="none" stroke="#63b8ff" d="M561.09,-65.16C551.42,-63.89 541.61,-62.6 532.11,-61.35"/>
<polygon fill="#63b8ff" stroke="#63b8ff" points="560.74,-68.65 571.11,-66.48 561.65,-61.71 560.74,-68.65"/>
</a>
</g>
</g>
<!-- Node4 -->
<g id="Node000004" class="node">
<title>Node4</title>
<g id="a_Node000004"><a xlink:href="full__system__integration__test_8cpp.html#a5a65d07819438b3ffa159258ea42a9ea" target="_top" xlink:title=" ">
<polygon fill="white" stroke="#666666" points="345,-109.5 201,-109.5 201,-90.5 345,-90.5 345,-109.5"/>
<text text-anchor="middle" x="273" y="-97.5" font-family="Helvetica,sans-Serif" font-size="10.00">test_i2c_multi_device_init</text>
</a>
</g>
</g>
<!-- Node3&#45;&gt;Node4 -->
<g id="edge3_Node000003_Node000004" class="edge">
<title>Node3&#45;&gt;Node4</title>
<g id="a_edge3_Node000003_Node000004"><a xlink:title=" ">
<path fill="none" stroke="#63b8ff" d="M377.51,-100C366.75,-100 355.79,-100 345.22,-100"/>
<polygon fill="#63b8ff" stroke="#63b8ff" points="377.74,-103.5 387.74,-100 377.74,-96.5 377.74,-103.5"/>
</a>
</g>
</g>
<!-- Node5 -->
<g id="Node000005" class="node">
<title>Node5</title>
<g id="a_Node000005"><a xlink:href="full__system__integration__test_8cpp.html#a630544a7f0a2cc40d8a7fefab7e2fe70" target="_top" xlink:title=" ">
<polygon fill="white" stroke="#666666" points="111.5,-109.5 46.5,-109.5 46.5,-90.5 111.5,-90.5 111.5,-109.5"/>
<text text-anchor="middle" x="79" y="-97.5" font-family="Helvetica,sans-Serif" font-size="10.00">app_main</text>
</a>
</g>
</g>
<!-- Node4&#45;&gt;Node5 -->
<g id="edge4_Node000004_Node000005" class="edge">
<title>Node4&#45;&gt;Node5</title>
<g id="a_edge4_Node000004_Node000005"><a xlink:title=" ">
<path fill="none" stroke="#63b8ff" d="M190.62,-100C162.78,-100 133.26,-100 111.73,-100"/>
<polygon fill="#63b8ff" stroke="#63b8ff" points="190.78,-103.5 200.78,-100 190.78,-96.5 190.78,-103.5"/>
</a>
</g>
</g>
<!-- Node7 -->
<g id="Node000007" class="node">
<title>Node7</title>
<g id="a_Node000007"><a xlink:href="classPcal95555Handler.html#a6715e51d5d09a2466b3b86820b9f5ea6" target="_top" xlink:title="Get the underlying PCAL95555 driver for advanced register&#45;level operations.">
<polygon fill="white" stroke="#666666" points="352,-67.5 194,-67.5 194,-48.5 352,-48.5 352,-67.5"/>
<text text-anchor="middle" x="273" y="-55.5" font-family="Helvetica,sans-Serif" font-size="10.00">Pcal95555Handler::GetDriver</text>
</a>
</g>
</g>
<!-- Node6&#45;&gt;Node7 -->
<g id="edge6_Node000006_Node000007" class="edge">
<title>Node6&#45;&gt;Node7</title>
<g id="a_edge6_Node000006_Node000007"><a xlink:title=" ">
<path fill="none" stroke="#63b8ff" d="M377.58,-54.64C369.18,-54.91 360.66,-55.19 352.3,-55.46"/>
<polygon fill="#63b8ff" stroke="#63b8ff" points="377.86,-58.13 387.74,-54.31 377.63,-51.14 377.86,-58.13"/>
</a>
</g>
</g>
<!-- Node9 -->
<g id="Node000009" class="node">
<title>Node9</title>
<g id="a_Node000009"><a xlink:href="classPcal95555Handler.html#ab614d32aa8d2c6bb775ebbbd148875b3" target="_top" xlink:title="Reset all registers to power&#45;on default state.">
<polygon fill="white" stroke="#666666" points="347.5,-30 198.5,-30 198.5,0 347.5,0 347.5,-30"/>
<text text-anchor="start" x="206.5" y="-18" font-family="Helvetica,sans-Serif" font-size="10.00">Pcal95555Handler::ResetTo</text>
<text text-anchor="middle" x="273" y="-7" font-family="Helvetica,sans-Serif" font-size="10.00">Default</text>
</a>
</g>
</g>
<!-- Node6&#45;&gt;Node9 -->
<g id="edge8_Node000006_Node000009" class="edge">
<title>Node6&#45;&gt;Node9</title>
<g id="a_edge8_Node000006_Node000009"><a xlink:title=" ">
<path fill="none" stroke="#63b8ff" d="M377.8,-35.76C367.77,-33.75 357.57,-31.71 347.67,-29.73"/>
<polygon fill="#63b8ff" stroke="#63b8ff" points="377.25,-39.22 387.74,-37.75 378.62,-32.35 377.25,-39.22"/>
</a>
</g>
</g>
<!-- Node8 -->
<g id="Node000008" class="node">
<title>Node8</title>
<g id="a_Node000008"><a xlink:href="classPcal95555Handler.html#a8121efea49cc4be54c4526eb346e5f8d" target="_top" xlink:title=" ">
<polygon fill="white" stroke="#666666" points="158,-67.5 0,-67.5 0,-48.5 158,-48.5 158,-67.5"/>
<text text-anchor="middle" x="79" y="-55.5" font-family="Helvetica,sans-Serif" font-size="10.00">Pcal95555Handler::GetDriver</text>
</a>
</g>
</g>
<!-- Node7&#45;&gt;Node8 -->
<g id="edge7_Node000007_Node000008" class="edge">
<title>Node7&#45;&gt;Node8</title>
<g id="a_edge7_Node000007_Node000008"><a xlink:title=" ">
<path fill="none" stroke="#63b8ff" d="M183.85,-58C175.23,-58 166.53,-58 158.02,-58"/>
<polygon fill="#63b8ff" stroke="#63b8ff" points="183.91,-61.5 193.91,-58 183.91,-54.5 183.91,-61.5"/>
</a>
</g>
</g>
</g>
</svg>
