<?xml version="1.0" encoding="UTF-8" standalone="no"?>
<!DOCTYPE svg PUBLIC "-//W3C//DTD SVG 1.1//EN"
 "http://www.w3.org/Graphics/SVG/1.1/DTD/svg11.dtd">
<!-- Generated by graphviz version 2.43.0 (0)
 -->
<!-- Title: Pcal95555Handler::ResetToDefault Pages: 1 -->
<svg width="914pt" height="38pt"
 viewBox="0.00 0.00 914.00 38.00" xmlns="http://www.w3.org/2000/svg" xmlns:xlink="http://www.w3.org/1999/xlink">
<g id="graph0" class="graph" transform="scale(1 1) rotate(0) translate(4 34)">
<title>Pcal95555Handler::ResetToDefault</title>
<!-- Node1 -->
<g id="Node000001" class="node">
<title>Node1</title>
<g id="a_Node000001"><a xlink:title="Reset all registers to power&#45;on default state.">
<polygon fill="#999999" stroke="#666666" points="149,-30 0,-30 0,0 149,0 149,-30"/>
<text text-anchor="start" x="8" y="-18" font-family="Helvetica,sans-Serif" font-size="10.00">Pcal95555Handler::ResetTo</text>
<text text-anchor="middle" x="74.5" y="-7" font-family="Helvetica,sans-Serif" font-size="10.00">Default</text>
</a>
</g>
</g>
<!-- Node2 -->
<g id="Node000002" class="node">
<title>Node2</title>
<g id="a_Node000002"><a xlink:href="classPcal95555Handler.html#a7d8ed72bf4fc9dfcb0be4877deec99b3" target="_top" xlink:title="Check init state under already&#45;held handler_mutex_.">
<polygon fill="white" stroke="#666666" points="329,-30 185,-30 185,0 329,0 329,-30"/>
<text text-anchor="start" x="193" y="-18" font-family="Helvetica,sans-Serif" font-size="10.00">Pcal95555Handler::Ensure</text>
<text text-anchor="middle" x="257" y="-7" font-family="Helvetica,sans-Serif" font-size="10.00">InitializedLocked</text>
</a>
</g>
</g>
<!-- Node1&#45;&gt;Node2 -->
<g id="edge1_Node000001_Node000002" class="edge">
<title>Node1&#45;&gt;Node2</title>
<g id="a_edge1_Node000001_Node000002"><a xlink:title=" ">
<path fill="none" stroke="#63b8ff" d="M149.18,-15C157.56,-15 166.15,-15 174.62,-15"/>
<polygon fill="#63b8ff" stroke="#63b8ff" points="174.89,-18.5 184.89,-15 174.89,-11.5 174.89,-18.5"/>
</a>
</g>
</g>
<!-- Node3 -->
<g id="Node000003" class="node">
<title>Node3</title>
<g id="a_Node000003"><a xlink:href="classPcal95555Handler.html#a5c2e68d6c9e39e373d40e94f5e951558" target="_top" xlink:title="Internal initialization (called by EnsureInitialized under mutex).">
<polygon fill="white" stroke="#666666" points="518,-24.5 365,-24.5 365,-5.5 518,-5.5 518,-24.5"/>
<text text-anchor="middle" x="441.5" y="-12.5" font-family="Helvetica,sans-Serif" font-size="10.00">Pcal95555Handler::Initialize</text>
</a>
</g>
</g>
<!-- Node2&#45;&gt;Node3 -->
<g id="edge2_Node000002_Node000003" class="edge">
<title>Node2&#45;&gt;Node3</title>
<g id="a_edge2_Node000002_Node000003"><a xlink:title=" ">
<path fill="none" stroke="#63b8ff" d="M329.08,-15C337.5,-15 346.16,-15 354.75,-15"/>
<polygon fill="#63b8ff" stroke="#63b8ff" points="354.79,-18.5 364.79,-15 354.79,-11.5 354.79,-18.5"/>
</a>
</g>
</g>
<!-- Node4 -->
<g id="Node000004" class="node">
<title>Node4</title>
<g id="a_Node000004"><a xlink:href="classPcal95555Handler.html#add6bf45bbac47b7d8d579fbd9bc50d2e" target="_top" xlink:title="Configure the hardware interrupt pin (falling edge, active&#45;low).">
<polygon fill="white" stroke="#666666" points="712,-30 554,-30 554,0 712,0 712,-30"/>
<text text-anchor="start" x="562" y="-18" font-family="Helvetica,sans-Serif" font-size="10.00">Pcal95555Handler::Configure</text>
<text text-anchor="middle" x="633" y="-7" font-family="Helvetica,sans-Serif" font-size="10.00">HardwareInterrupt</text>
</a>
</g>
</g>
<!-- Node3&#45;&gt;Node4 -->
<g id="edge3_Node000003_Node000004" class="edge">
<title>Node3&#45;&gt;Node4</title>
<g id="a_edge3_Node000003_Node000004"><a xlink:title=" ">
<path fill="none" stroke="#63b8ff" d="M518.21,-15C526.66,-15 535.32,-15 543.9,-15"/>
<polygon fill="#63b8ff" stroke="#63b8ff" points="543.93,-18.5 553.93,-15 543.93,-11.5 543.93,-18.5"/>
</a>
</g>
</g>
<!-- Node5 -->
<g id="Node000005" class="node">
<title>Node5</title>
<g id="a_Node000005"><a xlink:href="classPcal95555Handler.html#a87e8b50faf5d3d815227068ff26b1a6b" target="_top" xlink:title="Static ISR callback for the hardware interrupt pin.">
<polygon fill="white" stroke="#666666" points="906,-30 748,-30 748,0 906,0 906,-30"/>
<text text-anchor="start" x="756" y="-18" font-family="Helvetica,sans-Serif" font-size="10.00">Pcal95555Handler::Hardware</text>
<text text-anchor="middle" x="827" y="-7" font-family="Helvetica,sans-Serif" font-size="10.00">InterruptCallback</text>
</a>
</g>
</g>
<!-- Node4&#45;&gt;Node5 -->
<g id="edge4_Node000004_Node000005" class="edge">
<title>Node4&#45;&gt;Node5</title>
<g id="a_edge4_Node000004_Node000005"><a xlink:title=" ">
<path fill="none" stroke="#63b8ff" d="M712.09,-15C720.6,-15 729.3,-15 737.92,-15"/>
<polygon fill="#63b8ff" stroke="#63b8ff" points="737.98,-18.5 747.98,-15 737.98,-11.5 737.98,-18.5"/>
</a>
</g>
</g>
</g>
</svg>
