<?xml version="1.0" encoding="UTF-8" standalone="no"?>
<!DOCTYPE svg PUBLIC "-//W3C//DTD SVG 1.1//EN"
 "http://www.w3.org/Graphics/SVG/1.1/DTD/svg11.dtd">
<!-- Generated by graphviz version 2.43.0 (0)
 -->
<!-- Title: Max22200Handler::Max22200Handler Pages: 1 -->
<svg width="674pt" height="88pt"
 viewBox="0.00 0.00 674.00 87.50" xmlns="http://www.w3.org/2000/svg" xmlns:xlink="http://www.w3.org/1999/xlink">
<g id="graph0" class="graph" transform="scale(1 1) rotate(0) translate(4 83.5)">
<title>Max22200Handler::Max22200Handler</title>
<!-- Node1 -->
<g id="Node000001" class="node">
<title>Node1</title>
<g id="a_Node000001"><a xlink:title="Construct MAX22200 handler.">
<polygon fill="#999999" stroke="#666666" points="163,-66 0,-66 0,-36 163,-36 163,-66"/>
<text text-anchor="start" x="8" y="-54" font-family="Helvetica,sans-Serif" font-size="10.00">Max22200Handler::Max22200</text>
<text text-anchor="middle" x="81.5" y="-43" font-family="Helvetica,sans-Serif" font-size="10.00">Handler</text>
</a>
</g>
</g>
<!-- Node2 -->
<g id="Node000002" class="node">
<title>Node2</title>
<g id="a_Node000002"><a xlink:href="classLogger.html#a5789d11f8f1356e2192c0023a089cbc4" target="_top" xlink:title="Get singleton instance.">
<polygon fill="white" stroke="#666666" points="313,-79.5 199,-79.5 199,-60.5 313,-60.5 313,-79.5"/>
<text text-anchor="middle" x="256" y="-67.5" font-family="Helvetica,sans-Serif" font-size="10.00">Logger::GetInstance</text>
</a>
</g>
</g>
<!-- Node1&#45;&gt;Node2 -->
<g id="edge1_Node000001_Node000002" class="edge">
<title>Node1&#45;&gt;Node2</title>
<g id="a_edge1_Node000001_Node000002"><a xlink:title=" ">
<path fill="none" stroke="#63b8ff" d="M163.19,-59.89C171.8,-60.84 180.47,-61.79 188.88,-62.72"/>
<polygon fill="#63b8ff" stroke="#63b8ff" points="188.65,-66.21 198.98,-63.83 189.42,-59.26 188.65,-66.21"/>
</a>
</g>
</g>
<!-- Node3 -->
<g id="Node000003" class="node">
<title>Node3</title>
<g id="a_Node000003"><a xlink:href="classLogger.html#a4681229c521795685fc14f6b55c82300" target="_top" xlink:title="Log info message.">
<polygon fill="white" stroke="#666666" points="293,-42.5 219,-42.5 219,-23.5 293,-23.5 293,-42.5"/>
<text text-anchor="middle" x="256" y="-30.5" font-family="Helvetica,sans-Serif" font-size="10.00">Logger::Info</text>
</a>
</g>
</g>
<!-- Node1&#45;&gt;Node3 -->
<g id="edge2_Node000001_Node000003" class="edge">
<title>Node1&#45;&gt;Node3</title>
<g id="a_edge2_Node000001_Node000003"><a xlink:title=" ">
<path fill="none" stroke="#63b8ff" d="M163.19,-42.58C178.71,-40.96 194.46,-39.32 208.43,-37.86"/>
<polygon fill="#63b8ff" stroke="#63b8ff" points="209.16,-41.3 218.74,-36.78 208.43,-34.34 209.16,-41.3"/>
</a>
</g>
</g>
<!-- Node4 -->
<g id="Node000004" class="node">
<title>Node4</title>
<g id="a_Node000004"><a xlink:href="classLogger.html#af9e84e0ff6bd538e4f9ed8dcebc3e2f0" target="_top" xlink:title="Check if log level is enabled for tag.">
<polygon fill="white" stroke="#666666" points="478,-61.5 349,-61.5 349,-42.5 478,-42.5 478,-61.5"/>
<text text-anchor="middle" x="413.5" y="-49.5" font-family="Helvetica,sans-Serif" font-size="10.00">Logger::IsLevelEnabled</text>
</a>
</g>
</g>
<!-- Node3&#45;&gt;Node4 -->
<g id="edge3_Node000003_Node000004" class="edge">
<title>Node3&#45;&gt;Node4</title>
<g id="a_edge3_Node000003_Node000004"><a xlink:title=" ">
<path fill="none" stroke="#63b8ff" d="M293.07,-37.41C306.68,-39.07 322.72,-41.03 338.55,-42.96"/>
<polygon fill="#63b8ff" stroke="#63b8ff" points="338.54,-46.49 348.89,-44.23 339.39,-39.54 338.54,-46.49"/>
</a>
</g>
</g>
<!-- Node5 -->
<g id="Node000005" class="node">
<title>Node5</title>
<g id="a_Node000005"><a xlink:href="classLogger.html#a6adb205db597526fb91ad20067400394" target="_top" xlink:title="Internal logging method.">
<polygon fill="white" stroke="#666666" points="468.5,-24.5 358.5,-24.5 358.5,-5.5 468.5,-5.5 468.5,-24.5"/>
<text text-anchor="middle" x="413.5" y="-12.5" font-family="Helvetica,sans-Serif" font-size="10.00">Logger::LogInternal</text>
</a>
</g>
</g>
<!-- Node3&#45;&gt;Node5 -->
<g id="edge4_Node000003_Node000005" class="edge">
<title>Node3&#45;&gt;Node5</title>
<g id="a_edge4_Node000003_Node000005"><a xlink:title=" ">
<path fill="none" stroke="#63b8ff" d="M293.07,-28.83C309.49,-26.92 329.44,-24.61 348.3,-22.43"/>
<polygon fill="#63b8ff" stroke="#63b8ff" points="348.8,-25.9 358.33,-21.27 348,-18.94 348.8,-25.9"/>
</a>
</g>
</g>
<!-- Node6 -->
<g id="Node000006" class="node">
<title>Node6</title>
<g id="a_Node000006"><a xlink:href="namespaceanonymous__namespace_02Logger_8cpp_03.html#a9d2b496fa1b4f4e28667d14e4b8cb190" target="_top" xlink:title=" ">
<polygon fill="white" stroke="#666666" points="666,-30 514,-30 514,0 666,0 666,-30"/>
<text text-anchor="start" x="522" y="-18" font-family="Helvetica,sans-Serif" font-size="10.00">anonymous_namespace</text>
<text text-anchor="middle" x="590" y="-7" font-family="Helvetica,sans-Serif" font-size="10.00">{Logger::cpp}::ToBaseLevel</text>
</a>
</g>
</g>
<!-- Node5&#45;&gt;Node6 -->
<g id="edge5_Node000005_Node000006" class="edge">
<title>Node5&#45;&gt;Node6</title>
<g id="a_edge5_Node000005_Node000006"><a xlink:title=" ">
<path fill="none" stroke="#63b8ff" d="M468.76,-15C479.93,-15 491.96,-15 503.93,-15"/>
<polygon fill="#63b8ff" stroke="#63b8ff" points="503.95,-18.5 513.95,-15 503.95,-11.5 503.95,-18.5"/>
</a>
</g>
</g>
</g>
</svg>
