<?xml version="1.0" encoding="UTF-8" standalone="no"?>
<!DOCTYPE svg PUBLIC "-//W3C//DTD SVG 1.1//EN"
 "http://www.w3.org/Graphics/SVG/1.1/DTD/svg11.dtd">
<!-- Generated by graphviz version 2.43.0 (0)
 -->
<!-- Title: Tmc9660Handler::spiDriver Pages: 1 -->
<svg width="933pt" height="205pt"
 viewBox="0.00 0.00 933.00 205.00" xmlns="http://www.w3.org/2000/svg" xmlns:xlink="http://www.w3.org/1999/xlink">
<g id="graph0" class="graph" transform="scale(1 1) rotate(0) translate(4 201)">
<title>Tmc9660Handler::spiDriver</title>
<!-- Node1 -->
<g id="Node000001" class="node">
<title>Node1</title>
<g id="a_Node000001"><a xlink:title="Get the SPI&#45;mode driver instance (nullptr if constructed with UART).">
<polygon fill="#999999" stroke="#666666" points="150,-80 0,-80 0,-61 150,-61 150,-80"/>
<text text-anchor="middle" x="75" y="-68" font-family="Helvetica,sans-Serif" font-size="10.00">Tmc9660Handler::spiDriver</text>
</a>
</g>
</g>
<!-- Node2 -->
<g id="Node000002" class="node">
<title>Node2</title>
<g id="a_Node000002"><a xlink:href="classTmc9660Handler.html#a5a279ae9d4b5a8e0d71cb24577ad88ea" target="_top" xlink:title="Ensure driver is initialized (lazy init entrypoint).">
<polygon fill="white" stroke="#666666" points="373,-80 186,-80 186,-61 373,-61 373,-80"/>
<text text-anchor="middle" x="279.5" y="-68" font-family="Helvetica,sans-Serif" font-size="10.00">Tmc9660Handler::EnsureInitialized</text>
</a>
</g>
</g>
<!-- Node1&#45;&gt;Node2 -->
<g id="edge1_Node000001_Node000002" class="edge">
<title>Node1&#45;&gt;Node2</title>
<g id="a_edge1_Node000001_Node000002"><a xlink:title=" ">
<path fill="none" stroke="#63b8ff" d="M150.25,-70.5C158.61,-70.5 167.23,-70.5 175.87,-70.5"/>
<polygon fill="#63b8ff" stroke="#63b8ff" points="175.99,-74 185.99,-70.5 175.99,-67 175.99,-74"/>
</a>
</g>
</g>
<!-- Node3 -->
<g id="Node000003" class="node">
<title>Node3</title>
<g id="a_Node000003"><a xlink:href="classTmc9660Handler.html#adc564847f8ae26c47412aaee0758991c" target="_top" xlink:title="Initialize the TMC9660 device.">
<polygon fill="white" stroke="#666666" points="557,-120 409,-120 409,-101 557,-101 557,-120"/>
<text text-anchor="middle" x="483" y="-108" font-family="Helvetica,sans-Serif" font-size="10.00">Tmc9660Handler::Initialize</text>
</a>
</g>
</g>
<!-- Node2&#45;&gt;Node3 -->
<g id="edge2_Node000002_Node000003" class="edge">
<title>Node2&#45;&gt;Node3</title>
<g id="a_edge2_Node000002_Node000003"><a xlink:title=" ">
<path fill="none" stroke="#63b8ff" d="M328.51,-80.03C357.16,-85.72 393.75,-92.98 424.01,-98.99"/>
<polygon fill="#63b8ff" stroke="#63b8ff" points="423.52,-102.46 434.01,-100.97 424.88,-95.59 423.52,-102.46"/>
</a>
</g>
</g>
<!-- Node9 -->
<g id="Node000009" class="node">
<title>Node9</title>
<g id="a_Node000009"><a xlink:href="classTmc9660Handler.html#a13db97d201a287d8aa60384e04070b9f" target="_top" xlink:title="Check if the TMC9660 driver has been initialized and is ready.">
<polygon fill="white" stroke="#666666" points="748.5,-85.5 604.5,-85.5 604.5,-55.5 748.5,-55.5 748.5,-85.5"/>
<text text-anchor="start" x="612.5" y="-73.5" font-family="Helvetica,sans-Serif" font-size="10.00">Tmc9660Handler::IsDriver</text>
<text text-anchor="middle" x="676.5" y="-62.5" font-family="Helvetica,sans-Serif" font-size="10.00">Ready</text>
</a>
</g>
</g>
<!-- Node2&#45;&gt;Node9 -->
<g id="edge14_Node000002_Node000009" class="edge">
<title>Node2&#45;&gt;Node9</title>
<g id="a_edge14_Node000002_Node000009"><a xlink:title=" ">
<path fill="none" stroke="#63b8ff" d="M373.11,-70.5C440.21,-70.5 530.06,-70.5 594.35,-70.5"/>
<polygon fill="#63b8ff" stroke="#63b8ff" points="594.44,-74 604.44,-70.5 594.44,-67 594.44,-74"/>
</a>
</g>
</g>
<!-- Node4 -->
<g id="Node000004" class="node">
<title>Node4</title>
<g id="a_Node000004"><a xlink:href="classLogger.html#a5e4bcdaea60b9ac227b564d780388769" target="_top" xlink:title="Log error message.">
<polygon fill="white" stroke="#666666" points="716,-160 637,-160 637,-141 716,-141 716,-160"/>
<text text-anchor="middle" x="676.5" y="-148" font-family="Helvetica,sans-Serif" font-size="10.00">Logger::Error</text>
</a>
</g>
</g>
<!-- Node3&#45;&gt;Node4 -->
<g id="edge3_Node000003_Node000004" class="edge">
<title>Node3&#45;&gt;Node4</title>
<g id="a_edge3_Node000003_Node000004"><a xlink:title=" ">
<path fill="none" stroke="#63b8ff" d="M529.87,-120.08C559.07,-126.18 596.85,-134.07 626.62,-140.29"/>
<polygon fill="#63b8ff" stroke="#63b8ff" points="626.28,-143.79 636.79,-142.41 627.71,-136.94 626.28,-143.79"/>
</a>
</g>
</g>
<!-- Node7 -->
<g id="Node000007" class="node">
<title>Node7</title>
<g id="a_Node000007"><a xlink:href="classLogger.html#a5789d11f8f1356e2192c0023a089cbc4" target="_top" xlink:title="Get singleton instance.">
<polygon fill="white" stroke="#666666" points="733.5,-123 619.5,-123 619.5,-104 733.5,-104 733.5,-123"/>
<text text-anchor="middle" x="676.5" y="-111" font-family="Helvetica,sans-Serif" font-size="10.00">Logger::GetInstance</text>
</a>
</g>
</g>
<!-- Node3&#45;&gt;Node7 -->
<g id="edge6_Node000003_Node000007" class="edge">
<title>Node3&#45;&gt;Node7</title>
<g id="a_edge6_Node000003_Node000007"><a xlink:title=" ">
<path fill="none" stroke="#63b8ff" d="M557.22,-111.65C574.27,-111.91 592.33,-112.2 609.07,-112.46"/>
<polygon fill="#63b8ff" stroke="#63b8ff" points="609.25,-115.96 619.3,-112.62 609.35,-108.96 609.25,-115.96"/>
</a>
</g>
</g>
<!-- Node8 -->
<g id="Node000008" class="node">
<title>Node8</title>
<g id="a_Node000008"><a xlink:href="classLogger.html#a1c0c947d87884bca0395fd38d19d1102" target="_top" xlink:title="Log info message.">
<polygon fill="white" stroke="#666666" points="713.5,-197 639.5,-197 639.5,-178 713.5,-178 713.5,-197"/>
<text text-anchor="middle" x="676.5" y="-185" font-family="Helvetica,sans-Serif" font-size="10.00">Logger::Info</text>
</a>
</g>
</g>
<!-- Node3&#45;&gt;Node8 -->
<g id="edge7_Node000003_Node000008" class="edge">
<title>Node3&#45;&gt;Node8</title>
<g id="a_edge7_Node000003_Node000008"><a xlink:title=" ">
<path fill="none" stroke="#63b8ff" d="M498.53,-120.1C518.86,-133.11 557.29,-156.24 593,-169.5 604.49,-173.77 617.27,-177.16 629.28,-179.81"/>
<polygon fill="#63b8ff" stroke="#63b8ff" points="628.63,-183.25 639.13,-181.85 630.05,-176.39 628.63,-183.25"/>
</a>
</g>
</g>
<!-- Node3&#45;&gt;Node9 -->
<g id="edge10_Node000003_Node000009" class="edge">
<title>Node3&#45;&gt;Node9</title>
<g id="a_edge10_Node000003_Node000009"><a xlink:title=" ">
<path fill="none" stroke="#63b8ff" d="M529.87,-100.92C549.16,-96.89 572.19,-92.08 594.18,-87.49"/>
<polygon fill="#63b8ff" stroke="#63b8ff" points="595.12,-90.86 604.2,-85.39 593.69,-84.01 595.12,-90.86"/>
</a>
</g>
</g>
<!-- Node10 -->
<g id="Node000010" class="node">
<title>Node10</title>
<g id="a_Node000010"><a xlink:href="classTmc9660Handler.html#a393382194d0602e7aa02da6a8fd7a20a" target="_top" xlink:title="Get a reference to the Temperature wrapper.">
<polygon fill="white" stroke="#666666" points="760,-19 593,-19 593,0 760,0 760,-19"/>
<text text-anchor="middle" x="676.5" y="-7" font-family="Helvetica,sans-Serif" font-size="10.00">Tmc9660Handler::temperature</text>
</a>
</g>
</g>
<!-- Node3&#45;&gt;Node10 -->
<g id="edge11_Node000003_Node000010" class="edge">
<title>Node3&#45;&gt;Node10</title>
<g id="a_edge11_Node000003_Node000010"><a xlink:title=" ">
<path fill="none" stroke="#63b8ff" d="M499.22,-100.84C520.03,-87.82 558.68,-64.21 593,-46.5 609.14,-38.18 627.53,-29.82 642.85,-23.16"/>
<polygon fill="#63b8ff" stroke="#63b8ff" points="644.62,-26.21 652.42,-19.05 641.85,-19.78 644.62,-26.21"/>
</a>
</g>
</g>
<!-- Node5 -->
<g id="Node000005" class="node">
<title>Node5</title>
<g id="a_Node000005"><a xlink:href="classLogger.html#a737b981213c02321a5235848334d7191" target="_top" xlink:title="Check if log level is enabled for tag.">
<polygon fill="white" stroke="#666666" points="925,-197 796,-197 796,-178 925,-178 925,-197"/>
<text text-anchor="middle" x="860.5" y="-185" font-family="Helvetica,sans-Serif" font-size="10.00">Logger::IsLevelEnabled</text>
</a>
</g>
</g>
<!-- Node4&#45;&gt;Node5 -->
<g id="edge4_Node000004_Node000005" class="edge">
<title>Node4&#45;&gt;Node5</title>
<g id="a_edge4_Node000004_Node000005"><a xlink:title=" ">
<path fill="none" stroke="#63b8ff" d="M716.1,-158.35C741.19,-163.45 774.34,-170.19 802.45,-175.9"/>
<polygon fill="#63b8ff" stroke="#63b8ff" points="802.06,-179.39 812.56,-177.96 803.45,-172.53 802.06,-179.39"/>
</a>
</g>
</g>
<!-- Node6 -->
<g id="Node000006" class="node">
<title>Node6</title>
<g id="a_Node000006"><a xlink:href="classLogger.html#aeede6ac18db92a47caede076ef188a13" target="_top" xlink:title="Internal logging method.">
<polygon fill="white" stroke="#666666" points="915.5,-160 805.5,-160 805.5,-141 915.5,-141 915.5,-160"/>
<text text-anchor="middle" x="860.5" y="-148" font-family="Helvetica,sans-Serif" font-size="10.00">Logger::LogInternal</text>
</a>
</g>
</g>
<!-- Node4&#45;&gt;Node6 -->
<g id="edge5_Node000004_Node000006" class="edge">
<title>Node4&#45;&gt;Node6</title>
<g id="a_edge5_Node000004_Node000006"><a xlink:title=" ">
<path fill="none" stroke="#63b8ff" d="M716.1,-150.5C739.03,-150.5 768.71,-150.5 795.11,-150.5"/>
<polygon fill="#63b8ff" stroke="#63b8ff" points="795.43,-154 805.43,-150.5 795.43,-147 795.43,-154"/>
</a>
</g>
</g>
<!-- Node8&#45;&gt;Node5 -->
<g id="edge8_Node000008_Node000005" class="edge">
<title>Node8&#45;&gt;Node5</title>
<g id="a_edge8_Node000008_Node000005"><a xlink:title=" ">
<path fill="none" stroke="#63b8ff" d="M713.89,-187.5C734.5,-187.5 761.03,-187.5 785.79,-187.5"/>
<polygon fill="#63b8ff" stroke="#63b8ff" points="785.9,-191 795.9,-187.5 785.9,-184 785.9,-191"/>
</a>
</g>
</g>
<!-- Node8&#45;&gt;Node6 -->
<g id="edge9_Node000008_Node000006" class="edge">
<title>Node8&#45;&gt;Node6</title>
<g id="a_edge9_Node000008_Node000006"><a xlink:title=" ">
<path fill="none" stroke="#63b8ff" d="M713.89,-180.1C739.23,-174.95 773.52,-167.98 802.46,-162.1"/>
<polygon fill="#63b8ff" stroke="#63b8ff" points="803.35,-165.49 812.45,-160.07 801.95,-158.63 803.35,-165.49"/>
</a>
</g>
</g>
<!-- Node10&#45;&gt;Node2 -->
<g id="edge12_Node000010_Node000002" class="edge">
<title>Node10&#45;&gt;Node2</title>
<g id="a_edge12_Node000010_Node000002"><a xlink:title=" ">
<path fill="none" stroke="#63b8ff" d="M613.89,-19.01C543.17,-29.94 427.32,-47.83 352.49,-59.38"/>
<polygon fill="#63b8ff" stroke="#63b8ff" points="351.57,-55.98 342.22,-60.97 352.64,-62.9 351.57,-55.98"/>
</a>
</g>
</g>
<!-- Node10&#45;&gt;Node10 -->
<g id="edge13_Node000010_Node000010" class="edge">
<title>Node10&#45;&gt;Node10</title>
<g id="a_edge13_Node000010_Node000010"><a xlink:title=" ">
<path fill="none" stroke="#63b8ff" d="M648.14,-19.08C634.34,-27.73 643.8,-37 676.5,-37 698.98,-37 710.48,-32.62 710.98,-27.07"/>
<polygon fill="#63b8ff" stroke="#63b8ff" points="713.72,-24.89 704.86,-19.08 708.16,-29.15 713.72,-24.89"/>
</a>
</g>
</g>
</g>
</svg>
