<?xml version="1.0" encoding="UTF-8" standalone="no"?>
<!DOCTYPE svg PUBLIC "-//W3C//DTD SVG 1.1//EN"
 "http://www.w3.org/Graphics/SVG/1.1/DTD/svg11.dtd">
<!-- Generated by graphviz version 2.43.0 (0)
 -->
<!-- Title: Bno08xHandler::Initialize Pages: 1 -->
<svg width="353pt" height="162pt"
 viewBox="0.00 0.00 353.00 161.50" xmlns="http://www.w3.org/2000/svg" xmlns:xlink="http://www.w3.org/1999/xlink">
<g id="graph0" class="graph" transform="scale(1 1) rotate(0) translate(4 157.5)">
<title>Bno08xHandler::Initialize</title>
<!-- Node1 -->
<g id="Node000001" class="node">
<title>Node1</title>
<g id="a_Node000001"><a xlink:title="Initialize the BNO08x sensor.">
<polygon fill="#999999" stroke="#666666" points="140,-83 0,-83 0,-64 140,-64 140,-83"/>
<text text-anchor="middle" x="70" y="-71" font-family="Helvetica,sans-Serif" font-size="10.00">Bno08xHandler::Initialize</text>
</a>
</g>
</g>
<!-- Node2 -->
<g id="Node000002" class="node">
<title>Node2</title>
<g id="a_Node000002"><a xlink:href="classBno08xHandler.html#ada3191d2a5676e02773024e52589a1ed" target="_top" xlink:title="Internal: apply configuration (assumes mutex is held).">
<polygon fill="white" stroke="#666666" points="338,-153.5 183,-153.5 183,-123.5 338,-123.5 338,-153.5"/>
<text text-anchor="start" x="191" y="-141.5" font-family="Helvetica,sans-Serif" font-size="10.00">Bno08xHandler::applyConfig</text>
<text text-anchor="middle" x="260.5" y="-130.5" font-family="Helvetica,sans-Serif" font-size="10.00">Locked</text>
</a>
</g>
</g>
<!-- Node1&#45;&gt;Node2 -->
<g id="edge1_Node000001_Node000002" class="edge">
<title>Node1&#45;&gt;Node2</title>
<g id="a_edge1_Node000001_Node000002"><a xlink:title=" ">
<path fill="none" stroke="#63b8ff" d="M93.72,-83.07C114.83,-91.8 147.27,-104.78 176,-114.5 182,-116.53 188.28,-118.54 194.59,-120.48"/>
<polygon fill="#63b8ff" stroke="#63b8ff" points="193.89,-123.93 204.48,-123.47 195.92,-117.23 193.89,-123.93"/>
</a>
</g>
</g>
<!-- Node3 -->
<g id="Node000003" class="node">
<title>Node3</title>
<g id="a_Node000003"><a xlink:href="classIBno08xDriverOps.html#a0ca90c1a5664ab3eb83f691aff34faa0" target="_top" xlink:title=" ">
<polygon fill="white" stroke="#666666" points="330,-105 191,-105 191,-86 330,-86 330,-105"/>
<text text-anchor="middle" x="260.5" y="-93" font-family="Helvetica,sans-Serif" font-size="10.00">IBno08xDriverOps::Begin</text>
</a>
</g>
</g>
<!-- Node1&#45;&gt;Node3 -->
<g id="edge2_Node000001_Node000003" class="edge">
<title>Node1&#45;&gt;Node3</title>
<g id="a_edge2_Node000001_Node000003"><a xlink:title=" ">
<path fill="none" stroke="#63b8ff" d="M140.12,-81.57C153.27,-83.1 167.12,-84.72 180.54,-86.28"/>
<polygon fill="#63b8ff" stroke="#63b8ff" points="180.36,-89.79 190.7,-87.47 181.18,-82.83 180.36,-89.79"/>
</a>
</g>
</g>
<!-- Node4 -->
<g id="Node000004" class="node">
<title>Node4</title>
<g id="a_Node000004"><a xlink:href="classIBno08xDriverOps.html#a66418ccb85cd8eb8eea327fa979a2b6a" target="_top" xlink:title=" ">
<polygon fill="white" stroke="#666666" points="339.5,-67.5 181.5,-67.5 181.5,-37.5 339.5,-37.5 339.5,-67.5"/>
<text text-anchor="start" x="189.5" y="-55.5" font-family="Helvetica,sans-Serif" font-size="10.00">IBno08xDriverOps::Hardware</text>
<text text-anchor="middle" x="260.5" y="-44.5" font-family="Helvetica,sans-Serif" font-size="10.00">Reset</text>
</a>
</g>
</g>
<!-- Node1&#45;&gt;Node4 -->
<g id="edge3_Node000001_Node000004" class="edge">
<title>Node1&#45;&gt;Node4</title>
<g id="a_edge3_Node000001_Node000004"><a xlink:title=" ">
<path fill="none" stroke="#63b8ff" d="M140.12,-65.8C150.31,-64.66 160.93,-63.48 171.44,-62.31"/>
<polygon fill="#63b8ff" stroke="#63b8ff" points="171.92,-65.78 181.47,-61.19 171.14,-58.82 171.92,-65.78"/>
</a>
</g>
</g>
<!-- Node5 -->
<g id="Node000005" class="node">
<title>Node5</title>
<g id="a_Node000005"><a xlink:href="classIBno08xDriverOps.html#a04816a487d80027e6d6fe435f651b265" target="_top" xlink:title=" ">
<polygon fill="white" stroke="#666666" points="345,-19 176,-19 176,0 345,0 345,-19"/>
<text text-anchor="middle" x="260.5" y="-7" font-family="Helvetica,sans-Serif" font-size="10.00">IBno08xDriverOps::SetCallback</text>
</a>
</g>
</g>
<!-- Node1&#45;&gt;Node5 -->
<g id="edge4_Node000001_Node000005" class="edge">
<title>Node1&#45;&gt;Node5</title>
<g id="a_edge4_Node000001_Node000005"><a xlink:title=" ">
<path fill="none" stroke="#63b8ff" d="M90.33,-63.96C111.09,-54.01 145.26,-38.49 176,-28.5 183.93,-25.92 192.39,-23.56 200.76,-21.45"/>
<polygon fill="#63b8ff" stroke="#63b8ff" points="201.63,-24.84 210.53,-19.08 199.98,-18.04 201.63,-24.84"/>
</a>
</g>
</g>
</g>
</svg>
