<?xml version="1.0" encoding="UTF-8" standalone="no"?>
<!DOCTYPE svg PUBLIC "-//W3C//DTD SVG 1.1//EN"
 "http://www.w3.org/Graphics/SVG/1.1/DTD/svg11.dtd">
<!-- Generated by graphviz version 2.43.0 (0)
 -->
<!-- Title: Tmc9660Handler::visitDriver Pages: 1 -->
<svg width="940pt" height="205pt"
 viewBox="0.00 0.00 940.00 204.50" xmlns="http://www.w3.org/2000/svg" xmlns:xlink="http://www.w3.org/1999/xlink">
<g id="graph0" class="graph" transform="scale(1 1) rotate(0) translate(4 200.5)">
<title>Tmc9660Handler::visitDriver</title>
<!-- Node1 -->
<g id="Node000001" class="node">
<title>Node1</title>
<g id="a_Node000001"><a xlink:title="Execute a function on the underlying typed TMC9660 driver.">
<polygon fill="#999999" stroke="#666666" points="157,-141.5 0,-141.5 0,-122.5 157,-122.5 157,-141.5"/>
<text text-anchor="middle" x="78.5" y="-129.5" font-family="Helvetica,sans-Serif" font-size="10.00">Tmc9660Handler::visitDriver</text>
</a>
</g>
</g>
<!-- Node2 -->
<g id="Node000002" class="node">
<title>Node2</title>
<g id="a_Node000002"><a xlink:href="classTmc9660Handler.html#a5a279ae9d4b5a8e0d71cb24577ad88ea" target="_top" xlink:title="Ensure driver is initialized (lazy init entrypoint).">
<polygon fill="white" stroke="#666666" points="380,-122.5 193,-122.5 193,-103.5 380,-103.5 380,-122.5"/>
<text text-anchor="middle" x="286.5" y="-110.5" font-family="Helvetica,sans-Serif" font-size="10.00">Tmc9660Handler::EnsureInitialized</text>
</a>
</g>
</g>
<!-- Node1&#45;&gt;Node2 -->
<g id="edge1_Node000001_Node000002" class="edge">
<title>Node1&#45;&gt;Node2</title>
<g id="a_edge1_Node000001_Node000002"><a xlink:title=" ">
<path fill="none" stroke="#63b8ff" d="M157.09,-124.84C165.45,-124.07 174.05,-123.28 182.65,-122.49"/>
<polygon fill="#63b8ff" stroke="#63b8ff" points="183.09,-125.96 192.72,-121.56 182.45,-118.99 183.09,-125.96"/>
</a>
</g>
</g>
<!-- Node10 -->
<g id="Node000010" class="node">
<title>Node10</title>
<g id="a_Node000010"><a xlink:href="classTmc9660Handler.html#a393382194d0602e7aa02da6a8fd7a20a" target="_top" xlink:title="Get a reference to the Temperature wrapper.">
<polygon fill="white" stroke="#666666" points="767,-178.5 600,-178.5 600,-159.5 767,-159.5 767,-178.5"/>
<text text-anchor="middle" x="683.5" y="-166.5" font-family="Helvetica,sans-Serif" font-size="10.00">Tmc9660Handler::temperature</text>
</a>
</g>
</g>
<!-- Node1&#45;&gt;Node10 -->
<g id="edge15_Node000001_Node000010" class="edge">
<title>Node1&#45;&gt;Node10</title>
<g id="a_edge15_Node000001_Node000010"><a xlink:title=" ">
<path fill="none" stroke="#63b8ff" d="M157.33,-137.67C225.52,-142.55 327.3,-149.64 416,-155 473.77,-158.49 538.62,-161.91 589.88,-164.49"/>
<polygon fill="#63b8ff" stroke="#63b8ff" points="589.78,-167.99 599.95,-165 590.14,-161 589.78,-167.99"/>
</a>
</g>
</g>
<!-- Node3 -->
<g id="Node000003" class="node">
<title>Node3</title>
<g id="a_Node000003"><a xlink:href="classTmc9660Handler.html#adc564847f8ae26c47412aaee0758991c" target="_top" xlink:title="Initialize the TMC9660 device.">
<polygon fill="white" stroke="#666666" points="564,-103.5 416,-103.5 416,-84.5 564,-84.5 564,-103.5"/>
<text text-anchor="middle" x="490" y="-91.5" font-family="Helvetica,sans-Serif" font-size="10.00">Tmc9660Handler::Initialize</text>
</a>
</g>
</g>
<!-- Node2&#45;&gt;Node3 -->
<g id="edge2_Node000002_Node000003" class="edge">
<title>Node2&#45;&gt;Node3</title>
<g id="a_edge2_Node000002_Node000003"><a xlink:title=" ">
<path fill="none" stroke="#63b8ff" d="M380.29,-104.25C388.73,-103.45 397.25,-102.65 405.61,-101.86"/>
<polygon fill="#63b8ff" stroke="#63b8ff" points="406.08,-105.33 415.7,-100.91 405.42,-98.37 406.08,-105.33"/>
</a>
</g>
</g>
<!-- Node9 -->
<g id="Node000009" class="node">
<title>Node9</title>
<g id="a_Node000009"><a xlink:href="classTmc9660Handler.html#a13db97d201a287d8aa60384e04070b9f" target="_top" xlink:title="Check if the TMC9660 driver has been initialized and is ready.">
<polygon fill="white" stroke="#666666" points="755.5,-30 611.5,-30 611.5,0 755.5,0 755.5,-30"/>
<text text-anchor="start" x="619.5" y="-18" font-family="Helvetica,sans-Serif" font-size="10.00">Tmc9660Handler::IsDriver</text>
<text text-anchor="middle" x="683.5" y="-7" font-family="Helvetica,sans-Serif" font-size="10.00">Ready</text>
</a>
</g>
</g>
<!-- Node2&#45;&gt;Node9 -->
<g id="edge14_Node000002_Node000009" class="edge">
<title>Node2&#45;&gt;Node9</title>
<g id="a_edge14_Node000002_Node000009"><a xlink:title=" ">
<path fill="none" stroke="#63b8ff" d="M317.72,-103.45C343.66,-95.4 382.12,-83.81 416,-75 477.88,-58.9 548.49,-43.12 601.48,-31.79"/>
<polygon fill="#63b8ff" stroke="#63b8ff" points="602.44,-35.16 611.49,-29.65 600.98,-28.31 602.44,-35.16"/>
</a>
</g>
</g>
<!-- Node4 -->
<g id="Node000004" class="node">
<title>Node4</title>
<g id="a_Node000004"><a xlink:href="classLogger.html#a5e4bcdaea60b9ac227b564d780388769" target="_top" xlink:title="Log error message.">
<polygon fill="white" stroke="#666666" points="723,-141.5 644,-141.5 644,-122.5 723,-122.5 723,-141.5"/>
<text text-anchor="middle" x="683.5" y="-129.5" font-family="Helvetica,sans-Serif" font-size="10.00">Logger::Error</text>
</a>
</g>
</g>
<!-- Node3&#45;&gt;Node4 -->
<g id="edge3_Node000003_Node000004" class="edge">
<title>Node3&#45;&gt;Node4</title>
<g id="a_edge3_Node000003_Node000004"><a xlink:title=" ">
<path fill="none" stroke="#63b8ff" d="M539.32,-103.59C568.27,-109.33 604.94,-116.61 633.93,-122.36"/>
<polygon fill="#63b8ff" stroke="#63b8ff" points="633.34,-125.81 643.83,-124.33 634.71,-118.95 633.34,-125.81"/>
</a>
</g>
</g>
<!-- Node7 -->
<g id="Node000007" class="node">
<title>Node7</title>
<g id="a_Node000007"><a xlink:href="classLogger.html#a5789d11f8f1356e2192c0023a089cbc4" target="_top" xlink:title="Get singleton instance.">
<polygon fill="white" stroke="#666666" points="740.5,-104.5 626.5,-104.5 626.5,-85.5 740.5,-85.5 740.5,-104.5"/>
<text text-anchor="middle" x="683.5" y="-92.5" font-family="Helvetica,sans-Serif" font-size="10.00">Logger::GetInstance</text>
</a>
</g>
</g>
<!-- Node3&#45;&gt;Node7 -->
<g id="edge6_Node000003_Node000007" class="edge">
<title>Node3&#45;&gt;Node7</title>
<g id="a_edge6_Node000003_Node000007"><a xlink:title=" ">
<path fill="none" stroke="#63b8ff" d="M564.22,-94.38C581.27,-94.47 599.33,-94.57 616.07,-94.65"/>
<polygon fill="#63b8ff" stroke="#63b8ff" points="616.28,-98.15 626.3,-94.71 616.32,-91.15 616.28,-98.15"/>
</a>
</g>
</g>
<!-- Node8 -->
<g id="Node000008" class="node">
<title>Node8</title>
<g id="a_Node000008"><a xlink:href="classLogger.html#a1c0c947d87884bca0395fd38d19d1102" target="_top" xlink:title="Log info message.">
<polygon fill="white" stroke="#666666" points="720.5,-67.5 646.5,-67.5 646.5,-48.5 720.5,-48.5 720.5,-67.5"/>
<text text-anchor="middle" x="683.5" y="-55.5" font-family="Helvetica,sans-Serif" font-size="10.00">Logger::Info</text>
</a>
</g>
</g>
<!-- Node3&#45;&gt;Node8 -->
<g id="edge7_Node000003_Node000008" class="edge">
<title>Node3&#45;&gt;Node8</title>
<g id="a_edge7_Node000003_Node000008"><a xlink:title=" ">
<path fill="none" stroke="#63b8ff" d="M541.56,-84.49C570.88,-78.98 607.52,-72.1 636.09,-66.72"/>
<polygon fill="#63b8ff" stroke="#63b8ff" points="637.05,-70.11 646.23,-64.82 635.75,-63.23 637.05,-70.11"/>
</a>
</g>
</g>
<!-- Node3&#45;&gt;Node9 -->
<g id="edge10_Node000003_Node000009" class="edge">
<title>Node3&#45;&gt;Node9</title>
<g id="a_edge10_Node000003_Node000009"><a xlink:title=" ">
<path fill="none" stroke="#63b8ff" d="M507.55,-84.44C528.53,-72.6 566.08,-52.36 600,-39 605.12,-36.98 610.47,-35.05 615.89,-33.22"/>
<polygon fill="#63b8ff" stroke="#63b8ff" points="617.25,-36.46 625.67,-30.03 615.08,-29.8 617.25,-36.46"/>
</a>
</g>
</g>
<!-- Node3&#45;&gt;Node10 -->
<g id="edge11_Node000003_Node000010" class="edge">
<title>Node3&#45;&gt;Node10</title>
<g id="a_edge11_Node000003_Node000010"><a xlink:title=" ">
<path fill="none" stroke="#63b8ff" d="M530.21,-103.53C541.54,-107.16 553.64,-111.93 564,-118 582.73,-128.97 580.73,-141.01 600,-151 603.73,-152.94 607.67,-154.66 611.71,-156.21"/>
<polygon fill="#63b8ff" stroke="#63b8ff" points="610.69,-159.56 621.29,-159.48 612.96,-152.93 610.69,-159.56"/>
</a>
</g>
</g>
<!-- Node5 -->
<g id="Node000005" class="node">
<title>Node5</title>
<g id="a_Node000005"><a xlink:href="classLogger.html#a737b981213c02321a5235848334d7191" target="_top" xlink:title="Check if log level is enabled for tag.">
<polygon fill="white" stroke="#666666" points="932,-131.5 803,-131.5 803,-112.5 932,-112.5 932,-131.5"/>
<text text-anchor="middle" x="867.5" y="-119.5" font-family="Helvetica,sans-Serif" font-size="10.00">Logger::IsLevelEnabled</text>
</a>
</g>
</g>
<!-- Node4&#45;&gt;Node5 -->
<g id="edge4_Node000004_Node000005" class="edge">
<title>Node4&#45;&gt;Node5</title>
<g id="a_edge4_Node000004_Node000005"><a xlink:title=" ">
<path fill="none" stroke="#63b8ff" d="M723.1,-129.88C743.37,-128.77 768.9,-127.36 792.78,-126.05"/>
<polygon fill="#63b8ff" stroke="#63b8ff" points="793.1,-129.54 802.89,-125.49 792.72,-122.55 793.1,-129.54"/>
</a>
</g>
</g>
<!-- Node6 -->
<g id="Node000006" class="node">
<title>Node6</title>
<g id="a_Node000006"><a xlink:href="classLogger.html#aeede6ac18db92a47caede076ef188a13" target="_top" xlink:title="Internal logging method.">
<polygon fill="white" stroke="#666666" points="922.5,-85.5 812.5,-85.5 812.5,-66.5 922.5,-66.5 922.5,-85.5"/>
<text text-anchor="middle" x="867.5" y="-73.5" font-family="Helvetica,sans-Serif" font-size="10.00">Logger::LogInternal</text>
</a>
</g>
</g>
<!-- Node4&#45;&gt;Node6 -->
<g id="edge5_Node000004_Node000006" class="edge">
<title>Node4&#45;&gt;Node6</title>
<g id="a_edge5_Node000004_Node000006"><a xlink:title=" ">
<path fill="none" stroke="#63b8ff" d="M723,-124.85C736.98,-121.93 752.81,-118.23 767,-114 790.19,-107.08 815.68,-97.31 835.05,-89.4"/>
<polygon fill="#63b8ff" stroke="#63b8ff" points="836.4,-92.63 844.31,-85.58 833.73,-86.16 836.4,-92.63"/>
</a>
</g>
</g>
<!-- Node8&#45;&gt;Node5 -->
<g id="edge8_Node000008_Node000005" class="edge">
<title>Node8&#45;&gt;Node5</title>
<g id="a_edge8_Node000008_Node000005"><a xlink:title=" ">
<path fill="none" stroke="#63b8ff" d="M720.84,-63.73C735.44,-66.59 752.27,-70.62 767,-76 783.99,-82.21 786.66,-87.23 803,-95 812.74,-99.63 823.48,-104.34 833.31,-108.5"/>
<polygon fill="#63b8ff" stroke="#63b8ff" points="832.19,-111.83 842.77,-112.46 834.89,-105.37 832.19,-111.83"/>
</a>
</g>
</g>
<!-- Node8&#45;&gt;Node6 -->
<g id="edge9_Node000008_Node000006" class="edge">
<title>Node8&#45;&gt;Node6</title>
<g id="a_edge9_Node000008_Node000006"><a xlink:title=" ">
<path fill="none" stroke="#63b8ff" d="M720.89,-61.6C744.07,-63.89 774.75,-66.93 801.97,-69.62"/>
<polygon fill="#63b8ff" stroke="#63b8ff" points="801.92,-73.13 812.21,-70.63 802.61,-66.16 801.92,-73.13"/>
</a>
</g>
</g>
<!-- Node10&#45;&gt;Node2 -->
<g id="edge12_Node000010_Node000002" class="edge">
<title>Node10&#45;&gt;Node2</title>
<g id="a_edge12_Node000010_Node000002"><a xlink:title=" ">
<path fill="none" stroke="#63b8ff" d="M615.32,-159.48C545.98,-149.65 437.92,-134.33 365,-123.99"/>
<polygon fill="#63b8ff" stroke="#63b8ff" points="365.35,-120.5 354.95,-122.56 364.36,-127.43 365.35,-120.5"/>
</a>
</g>
</g>
<!-- Node10&#45;&gt;Node10 -->
<g id="edge13_Node000010_Node000010" class="edge">
<title>Node10&#45;&gt;Node10</title>
<g id="a_edge13_Node000010_Node000010"><a xlink:title=" ">
<path fill="none" stroke="#63b8ff" d="M655.14,-178.58C641.34,-187.23 650.8,-196.5 683.5,-196.5 705.98,-196.5 717.48,-192.12 717.98,-186.57"/>
<polygon fill="#63b8ff" stroke="#63b8ff" points="720.72,-184.39 711.86,-178.58 715.16,-188.65 720.72,-184.39"/>
</a>
</g>
</g>
</g>
</svg>
