<?xml version="1.0" encoding="UTF-8" standalone="no"?>
<!DOCTYPE svg PUBLIC "-//W3C//DTD SVG 1.1//EN"
 "http://www.w3.org/Graphics/SVG/1.1/DTD/svg11.dtd">
<!-- Generated by graphviz version 2.43.0 (0)
 -->
<!-- Title: Tmc9660AdcWrapper::Deinitialize Pages: 1 -->
<svg width="1070pt" height="205pt"
 viewBox="0.00 0.00 1070.00 204.50" xmlns="http://www.w3.org/2000/svg" xmlns:xlink="http://www.w3.org/1999/xlink">
<g id="graph0" class="graph" transform="scale(1 1) rotate(0) translate(4 200.5)">
<title>Tmc9660AdcWrapper::Deinitialize</title>
<!-- Node1 -->
<g id="Node000001" class="node">
<title>Node1</title>
<g id="a_Node000001"><a xlink:title=" ">
<polygon fill="#999999" stroke="#666666" points="127,-134 0,-134 0,-104 127,-104 127,-134"/>
<text text-anchor="start" x="8" y="-122" font-family="Helvetica,sans-Serif" font-size="10.00">Tmc9660AdcWrapper::</text>
<text text-anchor="middle" x="63.5" y="-111" font-family="Helvetica,sans-Serif" font-size="10.00">Deinitialize</text>
</a>
</g>
</g>
<!-- Node2 -->
<g id="Node000002" class="node">
<title>Node2</title>
<g id="a_Node000002"><a xlink:href="classTmc9660Handler.html#a7fe382c4dbf6bf84ed31586e52ec2e6e" target="_top" xlink:title="Get a reference to the ADC wrapper.">
<polygon fill="white" stroke="#666666" points="286.5,-150.5 163.5,-150.5 163.5,-131.5 286.5,-131.5 286.5,-150.5"/>
<text text-anchor="middle" x="225" y="-138.5" font-family="Helvetica,sans-Serif" font-size="10.00">Tmc9660Handler::adc</text>
</a>
</g>
</g>
<!-- Node1&#45;&gt;Node2 -->
<g id="edge1_Node000001_Node000002" class="edge">
<title>Node1&#45;&gt;Node2</title>
<g id="a_edge1_Node000001_Node000002"><a xlink:title=" ">
<path fill="none" stroke="#63b8ff" d="M127.08,-127.63C135.67,-128.82 144.55,-130.04 153.27,-131.24"/>
<polygon fill="#63b8ff" stroke="#63b8ff" points="153.04,-134.75 163.43,-132.65 154,-127.81 153.04,-134.75"/>
</a>
</g>
</g>
<!-- Node12 -->
<g id="Node000012" class="node">
<title>Node12</title>
<g id="a_Node000012"><a xlink:href="classTmc9660Handler_1_1Adc.html#afde209e0b01c869413c927cca08bf4a2" target="_top" xlink:title="Deinitialize ADC wrapper (no&#45;op).">
<polygon fill="white" stroke="#666666" points="287,-113 163,-113 163,-83 287,-83 287,-113"/>
<text text-anchor="start" x="171" y="-101" font-family="Helvetica,sans-Serif" font-size="10.00">Tmc9660Handler::Adc</text>
<text text-anchor="middle" x="225" y="-90" font-family="Helvetica,sans-Serif" font-size="10.00">::Deinitialize</text>
</a>
</g>
</g>
<!-- Node1&#45;&gt;Node12 -->
<g id="edge17_Node000001_Node000012" class="edge">
<title>Node1&#45;&gt;Node12</title>
<g id="a_edge17_Node000001_Node000012"><a xlink:title=" ">
<path fill="none" stroke="#63b8ff" d="M127.08,-110.76C135.55,-109.65 144.29,-108.49 152.89,-107.36"/>
<polygon fill="#63b8ff" stroke="#63b8ff" points="153.45,-110.82 162.91,-106.04 152.53,-103.88 153.45,-110.82"/>
</a>
</g>
</g>
<!-- Node3 -->
<g id="Node000003" class="node">
<title>Node3</title>
<g id="a_Node000003"><a xlink:href="classTmc9660Handler.html#a5a279ae9d4b5a8e0d71cb24577ad88ea" target="_top" xlink:title="Ensure driver is initialized (lazy init entrypoint).">
<polygon fill="white" stroke="#666666" points="510,-122.5 323,-122.5 323,-103.5 510,-103.5 510,-122.5"/>
<text text-anchor="middle" x="416.5" y="-110.5" font-family="Helvetica,sans-Serif" font-size="10.00">Tmc9660Handler::EnsureInitialized</text>
</a>
</g>
</g>
<!-- Node2&#45;&gt;Node3 -->
<g id="edge2_Node000002_Node000003" class="edge">
<title>Node2&#45;&gt;Node3</title>
<g id="a_edge2_Node000002_Node000003"><a xlink:title=" ">
<path fill="none" stroke="#63b8ff" d="M286.74,-132.03C304.1,-129.46 323.21,-126.64 341.27,-123.97"/>
<polygon fill="#63b8ff" stroke="#63b8ff" points="341.8,-127.43 351.18,-122.5 340.78,-120.5 341.8,-127.43"/>
</a>
</g>
</g>
<!-- Node11 -->
<g id="Node000011" class="node">
<title>Node11</title>
<g id="a_Node000011"><a xlink:href="classTmc9660Handler.html#a393382194d0602e7aa02da6a8fd7a20a" target="_top" xlink:title="Get a reference to the Temperature wrapper.">
<polygon fill="white" stroke="#666666" points="897,-178.5 730,-178.5 730,-159.5 897,-159.5 897,-178.5"/>
<text text-anchor="middle" x="813.5" y="-166.5" font-family="Helvetica,sans-Serif" font-size="10.00">Tmc9660Handler::temperature</text>
</a>
</g>
</g>
<!-- Node2&#45;&gt;Node11 -->
<g id="edge16_Node000002_Node000011" class="edge">
<title>Node2&#45;&gt;Node11</title>
<g id="a_edge16_Node000002_Node000011"><a xlink:title=" ">
<path fill="none" stroke="#63b8ff" d="M286.56,-143.89C389.32,-148.8 598.5,-158.78 719.8,-164.57"/>
<polygon fill="#63b8ff" stroke="#63b8ff" points="719.66,-168.07 729.81,-165.05 719.99,-161.08 719.66,-168.07"/>
</a>
</g>
</g>
<!-- Node4 -->
<g id="Node000004" class="node">
<title>Node4</title>
<g id="a_Node000004"><a xlink:href="classTmc9660Handler.html#adc564847f8ae26c47412aaee0758991c" target="_top" xlink:title="Initialize the TMC9660 device.">
<polygon fill="white" stroke="#666666" points="694,-103.5 546,-103.5 546,-84.5 694,-84.5 694,-103.5"/>
<text text-anchor="middle" x="620" y="-91.5" font-family="Helvetica,sans-Serif" font-size="10.00">Tmc9660Handler::Initialize</text>
</a>
</g>
</g>
<!-- Node3&#45;&gt;Node4 -->
<g id="edge3_Node000003_Node000004" class="edge">
<title>Node3&#45;&gt;Node4</title>
<g id="a_edge3_Node000003_Node000004"><a xlink:title=" ">
<path fill="none" stroke="#63b8ff" d="M510.29,-104.25C518.73,-103.45 527.25,-102.65 535.61,-101.86"/>
<polygon fill="#63b8ff" stroke="#63b8ff" points="536.08,-105.33 545.7,-100.91 535.42,-98.37 536.08,-105.33"/>
</a>
</g>
</g>
<!-- Node10 -->
<g id="Node000010" class="node">
<title>Node10</title>
<g id="a_Node000010"><a xlink:href="classTmc9660Handler.html#a13db97d201a287d8aa60384e04070b9f" target="_top" xlink:title="Check if the TMC9660 driver has been initialized and is ready.">
<polygon fill="white" stroke="#666666" points="885.5,-30 741.5,-30 741.5,0 885.5,0 885.5,-30"/>
<text text-anchor="start" x="749.5" y="-18" font-family="Helvetica,sans-Serif" font-size="10.00">Tmc9660Handler::IsDriver</text>
<text text-anchor="middle" x="813.5" y="-7" font-family="Helvetica,sans-Serif" font-size="10.00">Ready</text>
</a>
</g>
</g>
<!-- Node3&#45;&gt;Node10 -->
<g id="edge15_Node000003_Node000010" class="edge">
<title>Node3&#45;&gt;Node10</title>
<g id="a_edge15_Node000003_Node000010"><a xlink:title=" ">
<path fill="none" stroke="#63b8ff" d="M447.72,-103.45C473.66,-95.4 512.12,-83.81 546,-75 607.88,-58.9 678.49,-43.12 731.48,-31.79"/>
<polygon fill="#63b8ff" stroke="#63b8ff" points="732.44,-35.16 741.49,-29.65 730.98,-28.31 732.44,-35.16"/>
</a>
</g>
</g>
<!-- Node5 -->
<g id="Node000005" class="node">
<title>Node5</title>
<g id="a_Node000005"><a xlink:href="classLogger.html#a5e4bcdaea60b9ac227b564d780388769" target="_top" xlink:title="Log error message.">
<polygon fill="white" stroke="#666666" points="853,-141.5 774,-141.5 774,-122.5 853,-122.5 853,-141.5"/>
<text text-anchor="middle" x="813.5" y="-129.5" font-family="Helvetica,sans-Serif" font-size="10.00">Logger::Error</text>
</a>
</g>
</g>
<!-- Node4&#45;&gt;Node5 -->
<g id="edge4_Node000004_Node000005" class="edge">
<title>Node4&#45;&gt;Node5</title>
<g id="a_edge4_Node000004_Node000005"><a xlink:title=" ">
<path fill="none" stroke="#63b8ff" d="M669.32,-103.59C698.27,-109.33 734.94,-116.61 763.93,-122.36"/>
<polygon fill="#63b8ff" stroke="#63b8ff" points="763.34,-125.81 773.83,-124.33 764.71,-118.95 763.34,-125.81"/>
</a>
</g>
</g>
<!-- Node8 -->
<g id="Node000008" class="node">
<title>Node8</title>
<g id="a_Node000008"><a xlink:href="classLogger.html#a5789d11f8f1356e2192c0023a089cbc4" target="_top" xlink:title="Get singleton instance.">
<polygon fill="white" stroke="#666666" points="870.5,-104.5 756.5,-104.5 756.5,-85.5 870.5,-85.5 870.5,-104.5"/>
<text text-anchor="middle" x="813.5" y="-92.5" font-family="Helvetica,sans-Serif" font-size="10.00">Logger::GetInstance</text>
</a>
</g>
</g>
<!-- Node4&#45;&gt;Node8 -->
<g id="edge7_Node000004_Node000008" class="edge">
<title>Node4&#45;&gt;Node8</title>
<g id="a_edge7_Node000004_Node000008"><a xlink:title=" ">
<path fill="none" stroke="#63b8ff" d="M694.22,-94.38C711.27,-94.47 729.33,-94.57 746.07,-94.65"/>
<polygon fill="#63b8ff" stroke="#63b8ff" points="746.28,-98.15 756.3,-94.71 746.32,-91.15 746.28,-98.15"/>
</a>
</g>
</g>
<!-- Node9 -->
<g id="Node000009" class="node">
<title>Node9</title>
<g id="a_Node000009"><a xlink:href="classLogger.html#a1c0c947d87884bca0395fd38d19d1102" target="_top" xlink:title="Log info message.">
<polygon fill="white" stroke="#666666" points="850.5,-67.5 776.5,-67.5 776.5,-48.5 850.5,-48.5 850.5,-67.5"/>
<text text-anchor="middle" x="813.5" y="-55.5" font-family="Helvetica,sans-Serif" font-size="10.00">Logger::Info</text>
</a>
</g>
</g>
<!-- Node4&#45;&gt;Node9 -->
<g id="edge8_Node000004_Node000009" class="edge">
<title>Node4&#45;&gt;Node9</title>
<g id="a_edge8_Node000004_Node000009"><a xlink:title=" ">
<path fill="none" stroke="#63b8ff" d="M671.56,-84.49C700.88,-78.98 737.52,-72.1 766.09,-66.72"/>
<polygon fill="#63b8ff" stroke="#63b8ff" points="767.05,-70.11 776.23,-64.82 765.75,-63.23 767.05,-70.11"/>
</a>
</g>
</g>
<!-- Node4&#45;&gt;Node10 -->
<g id="edge11_Node000004_Node000010" class="edge">
<title>Node4&#45;&gt;Node10</title>
<g id="a_edge11_Node000004_Node000010"><a xlink:title=" ">
<path fill="none" stroke="#63b8ff" d="M637.55,-84.44C658.53,-72.6 696.08,-52.36 730,-39 735.12,-36.98 740.47,-35.05 745.89,-33.22"/>
<polygon fill="#63b8ff" stroke="#63b8ff" points="747.25,-36.46 755.67,-30.03 745.08,-29.8 747.25,-36.46"/>
</a>
</g>
</g>
<!-- Node4&#45;&gt;Node11 -->
<g id="edge12_Node000004_Node000011" class="edge">
<title>Node4&#45;&gt;Node11</title>
<g id="a_edge12_Node000004_Node000011"><a xlink:title=" ">
<path fill="none" stroke="#63b8ff" d="M660.21,-103.53C671.54,-107.16 683.64,-111.93 694,-118 712.73,-128.97 710.73,-141.01 730,-151 733.73,-152.94 737.67,-154.66 741.71,-156.21"/>
<polygon fill="#63b8ff" stroke="#63b8ff" points="740.69,-159.56 751.29,-159.48 742.96,-152.93 740.69,-159.56"/>
</a>
</g>
</g>
<!-- Node6 -->
<g id="Node000006" class="node">
<title>Node6</title>
<g id="a_Node000006"><a xlink:href="classLogger.html#a737b981213c02321a5235848334d7191" target="_top" xlink:title="Check if log level is enabled for tag.">
<polygon fill="white" stroke="#666666" points="1062,-131.5 933,-131.5 933,-112.5 1062,-112.5 1062,-131.5"/>
<text text-anchor="middle" x="997.5" y="-119.5" font-family="Helvetica,sans-Serif" font-size="10.00">Logger::IsLevelEnabled</text>
</a>
</g>
</g>
<!-- Node5&#45;&gt;Node6 -->
<g id="edge5_Node000005_Node000006" class="edge">
<title>Node5&#45;&gt;Node6</title>
<g id="a_edge5_Node000005_Node000006"><a xlink:title=" ">
<path fill="none" stroke="#63b8ff" d="M853.1,-129.88C873.37,-128.77 898.9,-127.36 922.78,-126.05"/>
<polygon fill="#63b8ff" stroke="#63b8ff" points="923.1,-129.54 932.89,-125.49 922.72,-122.55 923.1,-129.54"/>
</a>
</g>
</g>
<!-- Node7 -->
<g id="Node000007" class="node">
<title>Node7</title>
<g id="a_Node000007"><a xlink:href="classLogger.html#aeede6ac18db92a47caede076ef188a13" target="_top" xlink:title="Internal logging method.">
<polygon fill="white" stroke="#666666" points="1052.5,-85.5 942.5,-85.5 942.5,-66.5 1052.5,-66.5 1052.5,-85.5"/>
<text text-anchor="middle" x="997.5" y="-73.5" font-family="Helvetica,sans-Serif" font-size="10.00">Logger::LogInternal</text>
</a>
</g>
</g>
<!-- Node5&#45;&gt;Node7 -->
<g id="edge6_Node000005_Node000007" class="edge">
<title>Node5&#45;&gt;Node7</title>
<g id="a_edge6_Node000005_Node000007"><a xlink:title=" ">
<path fill="none" stroke="#63b8ff" d="M853,-124.85C866.98,-121.93 882.81,-118.23 897,-114 920.19,-107.08 945.68,-97.31 965.05,-89.4"/>
<polygon fill="#63b8ff" stroke="#63b8ff" points="966.4,-92.63 974.31,-85.58 963.73,-86.16 966.4,-92.63"/>
</a>
</g>
</g>
<!-- Node9&#45;&gt;Node6 -->
<g id="edge9_Node000009_Node000006" class="edge">
<title>Node9&#45;&gt;Node6</title>
<g id="a_edge9_Node000009_Node000006"><a xlink:title=" ">
<path fill="none" stroke="#63b8ff" d="M850.84,-63.73C865.44,-66.59 882.27,-70.62 897,-76 913.99,-82.21 916.66,-87.23 933,-95 942.74,-99.63 953.48,-104.34 963.31,-108.5"/>
<polygon fill="#63b8ff" stroke="#63b8ff" points="962.19,-111.83 972.77,-112.46 964.89,-105.37 962.19,-111.83"/>
</a>
</g>
</g>
<!-- Node9&#45;&gt;Node7 -->
<g id="edge10_Node000009_Node000007" class="edge">
<title>Node9&#45;&gt;Node7</title>
<g id="a_edge10_Node000009_Node000007"><a xlink:title=" ">
<path fill="none" stroke="#63b8ff" d="M850.89,-61.6C874.07,-63.89 904.75,-66.93 931.97,-69.62"/>
<polygon fill="#63b8ff" stroke="#63b8ff" points="931.92,-73.13 942.21,-70.63 932.61,-66.16 931.92,-73.13"/>
</a>
</g>
</g>
<!-- Node11&#45;&gt;Node3 -->
<g id="edge13_Node000011_Node000003" class="edge">
<title>Node11&#45;&gt;Node3</title>
<g id="a_edge13_Node000011_Node000003"><a xlink:title=" ">
<path fill="none" stroke="#63b8ff" d="M745.32,-159.48C675.98,-149.65 567.92,-134.33 495,-123.99"/>
<polygon fill="#63b8ff" stroke="#63b8ff" points="495.35,-120.5 484.95,-122.56 494.36,-127.43 495.35,-120.5"/>
</a>
</g>
</g>
<!-- Node11&#45;&gt;Node11 -->
<g id="edge14_Node000011_Node000011" class="edge">
<title>Node11&#45;&gt;Node11</title>
<g id="a_edge14_Node000011_Node000011"><a xlink:title=" ">
<path fill="none" stroke="#63b8ff" d="M785.14,-178.58C771.34,-187.23 780.8,-196.5 813.5,-196.5 835.98,-196.5 847.48,-192.12 847.98,-186.57"/>
<polygon fill="#63b8ff" stroke="#63b8ff" points="850.72,-184.39 841.86,-178.58 845.16,-188.65 850.72,-184.39"/>
</a>
</g>
</g>
</g>
</svg>
