<?xml version="1.0" encoding="UTF-8" standalone="no"?>
<!DOCTYPE svg PUBLIC "-//W3C//DTD SVG 1.1//EN"
 "http://www.w3.org/Graphics/SVG/1.1/DTD/svg11.dtd">
<!-- Generated by graphviz version 2.43.0 (0)
 -->
<!-- Title: Pcal95555Handler Pages: 1 -->
<svg width="1493pt" height="172pt"
 viewBox="0.00 0.00 1493.00 172.00" xmlns="http://www.w3.org/2000/svg" xmlns:xlink="http://www.w3.org/1999/xlink">
<g id="graph0" class="graph" transform="scale(1 1) rotate(0) translate(4 168)">
<title>Pcal95555Handler</title>
<!-- Node1 -->
<g id="Node000001" class="node">
<title>Node1</title>
<g id="a_Node000001"><a xlink:title="Unified, non&#45;templated handler for a single PCA9555 / PCAL9555A device.">
<polygon fill="#999999" stroke="#666666" points="790,-88.5 685,-88.5 685,-69.5 790,-69.5 790,-88.5"/>
<text text-anchor="middle" x="737.5" y="-76.5" font-family="Helvetica,sans-Serif" font-size="10.00">Pcal95555Handler</text>
</a>
</g>
</g>
<!-- Node8 -->
<g id="Node000008" class="node">
<title>Node8</title>
<g id="a_Node000008"><a xlink:href="classPcal95555GpioPin.html" target="_top" xlink:title="BaseGpio adapter for a single PCAL95555 GPIO expander pin.">
<polygon fill="white" stroke="#666666" points="1012,-120.5 908,-120.5 908,-101.5 1012,-101.5 1012,-120.5"/>
<text text-anchor="middle" x="960" y="-108.5" font-family="Helvetica,sans-Serif" font-size="10.00">Pcal95555GpioPin</text>
</a>
</g>
</g>
<!-- Node1&#45;&gt;Node8 -->
<g id="edge9_Node000008_Node000001" class="edge">
<title>Node1&#45;&gt;Node8</title>
<g id="a_edge9_Node000008_Node000001"><a xlink:title=" ">
<path fill="none" stroke="#9a32cd" stroke-dasharray="5,2" d="M800.43,-87.99C834.25,-92.89 875.62,-98.9 907.63,-103.54"/>
<polygon fill="#9a32cd" stroke="#9a32cd" points="800.6,-84.48 790.2,-86.5 799.59,-91.4 800.6,-84.48"/>
</a>
</g>
<text text-anchor="middle" x="849" y="-104" font-family="Helvetica,sans-Serif" font-size="10.00" fill="grey"> parent_handler_</text>
</g>
<!-- Node2 -->
<g id="Node000002" class="node">
<title>Node2</title>
<g id="a_Node000002"><a xlink:title=" ">
<polygon fill="white" stroke="#666666" points="554,-164 372,-164 372,-134 554,-134 554,-164"/>
<text text-anchor="start" x="380" y="-152" font-family="Helvetica,sans-Serif" font-size="10.00">std::unique_ptr&lt; HalI2cPcal95555</text>
<text text-anchor="middle" x="463" y="-141" font-family="Helvetica,sans-Serif" font-size="10.00">Comm &gt;</text>
</a>
</g>
</g>
<!-- Node2&#45;&gt;Node1 -->
<g id="edge1_Node000001_Node000002" class="edge">
<title>Node2&#45;&gt;Node1</title>
<g id="a_edge1_Node000001_Node000002"><a xlink:title=" ">
<path fill="none" stroke="#9a32cd" stroke-dasharray="5,2" d="M564.18,-131.97C597.24,-125.37 633.98,-116.98 667,-107 683.69,-101.96 701.95,-94.52 715.56,-88.58"/>
<polygon fill="#9a32cd" stroke="#9a32cd" points="563.19,-128.6 554.05,-133.96 564.54,-135.47 563.19,-128.6"/>
</a>
</g>
<text text-anchor="middle" x="619.5" y="-133" font-family="Helvetica,sans-Serif" font-size="10.00" fill="grey"> i2c_adapter_</text>
</g>
<!-- Node3 -->
<g id="Node000003" class="node">
<title>Node3</title>
<g id="a_Node000003"><a xlink:href="classHalI2cPcal95555Comm.html" target="_top" xlink:title="Concrete I2C communication adapter for PCAL95555 using BaseI2c.">
<polygon fill="white" stroke="#666666" points="319,-158.5 189,-158.5 189,-139.5 319,-139.5 319,-158.5"/>
<text text-anchor="middle" x="254" y="-146.5" font-family="Helvetica,sans-Serif" font-size="10.00">HalI2cPcal95555Comm</text>
</a>
</g>
</g>
<!-- Node3&#45;&gt;Node2 -->
<g id="edge2_Node000002_Node000003" class="edge">
<title>Node3&#45;&gt;Node2</title>
<g id="a_edge2_Node000002_Node000003"><a xlink:title=" ">
<path fill="none" stroke="#9a32cd" stroke-dasharray="5,2" d="M329.46,-149C343.26,-149 357.8,-149 372,-149"/>
<polygon fill="#9a32cd" stroke="#9a32cd" points="329.08,-145.5 319.08,-149 329.08,-152.5 329.08,-145.5"/>
</a>
</g>
<text text-anchor="middle" x="345.5" y="-152" font-family="Helvetica,sans-Serif" font-size="10.00" fill="grey"> ptr</text>
</g>
<!-- Node4 -->
<g id="Node000004" class="node">
<title>Node4</title>
<g id="a_Node000004"><a xlink:title=" ">
<polygon fill="white" stroke="#666666" points="152,-164 0,-164 0,-134 152,-134 152,-164"/>
<text text-anchor="start" x="8" y="-152" font-family="Helvetica,sans-Serif" font-size="10.00">pcal95555::I2cInterface</text>
<text text-anchor="middle" x="76" y="-141" font-family="Helvetica,sans-Serif" font-size="10.00">&lt; HalI2cPcal95555Comm &gt;</text>
</a>
</g>
</g>
<!-- Node4&#45;&gt;Node3 -->
<g id="edge3_Node000003_Node000004" class="edge">
<title>Node4&#45;&gt;Node3</title>
<g id="a_edge3_Node000003_Node000004"><a xlink:title=" ">
<path fill="none" stroke="#63b8ff" d="M162.25,-149C171.22,-149 180.23,-149 188.91,-149"/>
<polygon fill="#63b8ff" stroke="#63b8ff" points="162.15,-145.5 152.15,-149 162.15,-152.5 162.15,-145.5"/>
</a>
</g>
</g>
<!-- Node5 -->
<g id="Node000005" class="node">
<title>Node5</title>
<g id="a_Node000005"><a xlink:title=" ">
<polygon fill="white" stroke="#666666" points="538.5,-116 387.5,-116 387.5,-86 538.5,-86 538.5,-116"/>
<text text-anchor="start" x="395.5" y="-104" font-family="Helvetica,sans-Serif" font-size="10.00">std::unique_ptr&lt; Pcal95555</text>
<text text-anchor="middle" x="463" y="-93" font-family="Helvetica,sans-Serif" font-size="10.00">Driver &gt;</text>
</a>
</g>
</g>
<!-- Node5&#45;&gt;Node1 -->
<g id="edge4_Node000001_Node000005" class="edge">
<title>Node5&#45;&gt;Node1</title>
<g id="a_edge4_Node000001_Node000005"><a xlink:title=" ">
<path fill="none" stroke="#9a32cd" stroke-dasharray="5,2" d="M549.04,-94.13C593.48,-90.55 646.43,-86.27 684.7,-83.18"/>
<polygon fill="#9a32cd" stroke="#9a32cd" points="548.51,-90.67 538.82,-94.96 549.07,-97.64 548.51,-90.67"/>
</a>
</g>
<text text-anchor="middle" x="619.5" y="-95" font-family="Helvetica,sans-Serif" font-size="10.00" fill="grey"> pcal95555_driver_</text>
</g>
<!-- Node6 -->
<g id="Node000006" class="node">
<title>Node6</title>
<g id="a_Node000006"><a xlink:title=" ">
<polygon fill="white" stroke="#666666" points="1485,-104.5 1351,-104.5 1351,-63.5 1485,-63.5 1485,-104.5"/>
<text text-anchor="start" x="1359" y="-92.5" font-family="Helvetica,sans-Serif" font-size="10.00">std::array&lt; std::shared</text>
<text text-anchor="start" x="1359" y="-81.5" font-family="Helvetica,sans-Serif" font-size="10.00">_ptr&lt; Pcal95555GpioPin</text>
<text text-anchor="middle" x="1418" y="-70.5" font-family="Helvetica,sans-Serif" font-size="10.00"> &gt;, 16 &gt;</text>
</a>
</g>
</g>
<!-- Node6&#45;&gt;Node1 -->
<g id="edge5_Node000001_Node000006" class="edge">
<title>Node6&#45;&gt;Node1</title>
<g id="a_edge5_Node000001_Node000006"><a xlink:title=" ">
<path fill="none" stroke="#9a32cd" stroke-dasharray="5,2" d="M1340.66,-83.44C1201.18,-82.41 908.62,-80.25 790.05,-79.38"/>
<polygon fill="#9a32cd" stroke="#9a32cd" points="1340.81,-86.94 1350.84,-83.51 1340.86,-79.94 1340.81,-86.94"/>
</a>
</g>
<text text-anchor="middle" x="1063.5" y="-85" font-family="Helvetica,sans-Serif" font-size="10.00" fill="grey"> pin_registry_</text>
</g>
<!-- Node7 -->
<g id="Node000007" class="node">
<title>Node7</title>
<g id="a_Node000007"><a xlink:title=" ">
<polygon fill="white" stroke="#666666" points="1266,-126 1115,-126 1115,-96 1266,-96 1266,-126"/>
<text text-anchor="start" x="1123" y="-114" font-family="Helvetica,sans-Serif" font-size="10.00">std::shared_ptr&lt; Pcal95555</text>
<text text-anchor="middle" x="1190.5" y="-103" font-family="Helvetica,sans-Serif" font-size="10.00">GpioPin &gt;</text>
</a>
</g>
</g>
<!-- Node7&#45;&gt;Node6 -->
<g id="edge6_Node000006_Node000007" class="edge">
<title>Node7&#45;&gt;Node6</title>
<g id="a_edge6_Node000006_Node000007"><a xlink:title=" ">
<path fill="none" stroke="#9a32cd" stroke-dasharray="5,2" d="M1276.33,-100.84C1300.95,-97.9 1327.47,-94.72 1350.77,-91.93"/>
<polygon fill="#9a32cd" stroke="#9a32cd" points="1275.79,-97.38 1266.28,-102.05 1276.62,-104.33 1275.79,-97.38"/>
</a>
</g>
<text text-anchor="middle" x="1308.5" y="-103" font-family="Helvetica,sans-Serif" font-size="10.00" fill="grey"> elements</text>
</g>
<!-- Node8&#45;&gt;Node7 -->
<g id="edge7_Node000007_Node000008" class="edge">
<title>Node8&#45;&gt;Node7</title>
<g id="a_edge7_Node000007_Node000008"><a xlink:title=" ">
<path fill="none" stroke="#9a32cd" stroke-dasharray="5,2" d="M1022.5,-111C1050.98,-111 1085.05,-111 1114.98,-111"/>
<polygon fill="#9a32cd" stroke="#9a32cd" points="1022.28,-107.5 1012.28,-111 1022.28,-114.5 1022.28,-107.5"/>
</a>
</g>
<text text-anchor="middle" x="1063.5" y="-114" font-family="Helvetica,sans-Serif" font-size="10.00" fill="grey"> ptr</text>
</g>
<!-- Node9 -->
<g id="Node000009" class="node">
<title>Node9</title>
<g id="a_Node000009"><a xlink:title=" ">
<polygon fill="white" stroke="#666666" points="769,-136.5 706,-136.5 706,-117.5 769,-117.5 769,-136.5"/>
<text text-anchor="middle" x="737.5" y="-124.5" font-family="Helvetica,sans-Serif" font-size="10.00">BaseGpio</text>
</a>
</g>
</g>
<!-- Node9&#45;&gt;Node8 -->
<g id="edge8_Node000008_Node000009" class="edge">
<title>Node9&#45;&gt;Node8</title>
<g id="a_edge8_Node000008_Node000009"><a xlink:title=" ">
<path fill="none" stroke="#63b8ff" d="M779.38,-124.03C815.64,-121.4 868.78,-117.55 907.85,-114.71"/>
<polygon fill="#63b8ff" stroke="#63b8ff" points="778.88,-120.56 769.16,-124.78 779.39,-127.54 778.88,-120.56"/>
</a>
</g>
</g>
<!-- Node10 -->
<g id="Node000010" class="node">
<title>Node10</title>
<g id="a_Node000010"><a xlink:title=" ">
<polygon fill="white" stroke="#666666" points="520.5,-67.5 405.5,-67.5 405.5,-48.5 520.5,-48.5 520.5,-67.5"/>
<text text-anchor="middle" x="463" y="-55.5" font-family="Helvetica,sans-Serif" font-size="10.00">std::atomic&lt; bool &gt;</text>
</a>
</g>
</g>
<!-- Node10&#45;&gt;Node1 -->
<g id="edge10_Node000001_Node000010" class="edge">
<title>Node10&#45;&gt;Node1</title>
<g id="a_edge10_Node000001_Node000010"><a xlink:title=" ">
<path fill="none" stroke="#9a32cd" stroke-dasharray="5,2" d="M530.65,-59.48C570.33,-60.8 621.64,-63.31 667,-68 672.83,-68.6 678.92,-69.37 684.97,-70.21"/>
<polygon fill="#9a32cd" stroke="#9a32cd" points="530.67,-55.97 520.57,-59.15 530.45,-62.97 530.67,-55.97"/>
</a>
</g>
<text text-anchor="middle" x="619.5" y="-71" font-family="Helvetica,sans-Serif" font-size="10.00" fill="grey"> interrupt_pending_</text>
</g>
<!-- Node11 -->
<g id="Node000011" class="node">
<title>Node11</title>
<g id="a_Node000011"><a xlink:title=" ">
<polygon fill="white" stroke="#666666" points="518.5,-30 407.5,-30 407.5,0 518.5,0 518.5,-30"/>
<text text-anchor="start" x="415.5" y="-18" font-family="Helvetica,sans-Serif" font-size="10.00">std::array&lt; hf_gpio</text>
<text text-anchor="middle" x="463" y="-7" font-family="Helvetica,sans-Serif" font-size="10.00">_pull_mode_t, 16 &gt;</text>
</a>
</g>
</g>
<!-- Node11&#45;&gt;Node1 -->
<g id="edge11_Node000001_Node000011" class="edge">
<title>Node11&#45;&gt;Node1</title>
<g id="a_edge11_Node000001_Node000011"><a xlink:title=" ">
<path fill="none" stroke="#9a32cd" stroke-dasharray="5,2" d="M528.75,-20.62C569.13,-25.24 621.83,-33.33 667,-47 685.56,-52.62 705.56,-62.24 719.31,-69.46"/>
<polygon fill="#9a32cd" stroke="#9a32cd" points="529.09,-17.13 518.76,-19.51 528.32,-24.09 529.09,-17.13"/>
</a>
</g>
<text text-anchor="middle" x="619.5" y="-50" font-family="Helvetica,sans-Serif" font-size="10.00" fill="grey"> pull_mode_cache_</text>
</g>
</g>
</svg>
