<?xml version="1.0" encoding="UTF-8" standalone="no"?>
<!DOCTYPE svg PUBLIC "-//W3C//DTD SVG 1.1//EN"
 "http://www.w3.org/Graphics/SVG/1.1/DTD/svg11.dtd">
<!-- Generated by graphviz version 2.43.0 (0)
 -->
<!-- Title: HalUartTmc9660Comm::debugLog Pages: 1 -->
<svg width="625pt" height="175pt"
 viewBox="0.00 0.00 625.00 175.00" xmlns="http://www.w3.org/2000/svg" xmlns:xlink="http://www.w3.org/1999/xlink">
<g id="graph0" class="graph" transform="scale(1 1) rotate(0) translate(4 171)">
<title>HalUartTmc9660Comm::debugLog</title>
<!-- Node1 -->
<g id="Node000001" class="node">
<title>Node1</title>
<g id="a_Node000001"><a xlink:title="Route TMC9660 driver debug output to the HardFOC Logger.">
<polygon fill="#999999" stroke="#666666" points="131,-98.5 0,-98.5 0,-68.5 131,-68.5 131,-98.5"/>
<text text-anchor="start" x="8" y="-86.5" font-family="Helvetica,sans-Serif" font-size="10.00">HalUartTmc9660Comm</text>
<text text-anchor="middle" x="65.5" y="-75.5" font-family="Helvetica,sans-Serif" font-size="10.00">::debugLog</text>
</a>
</g>
</g>
<!-- Node2 -->
<g id="Node000002" class="node">
<title>Node2</title>
<g id="a_Node000002"><a xlink:href="namespaceanonymous__namespace_02Tmc9660Handler_8cpp_03.html#a9645e5797d8ff9813283015d244ec066" target="_top" xlink:title=" ">
<polygon fill="white" stroke="#666666" points="302,-104 167,-104 167,-63 302,-63 302,-104"/>
<text text-anchor="start" x="175" y="-92" font-family="Helvetica,sans-Serif" font-size="10.00">anonymous_namespace</text>
<text text-anchor="start" x="175" y="-81" font-family="Helvetica,sans-Serif" font-size="10.00">{Tmc9660Handler::cpp}</text>
<text text-anchor="middle" x="234.5" y="-70" font-family="Helvetica,sans-Serif" font-size="10.00">::halDebugLog</text>
</a>
</g>
</g>
<!-- Node1&#45;&gt;Node2 -->
<g id="edge1_Node000001_Node000002" class="edge">
<title>Node1&#45;&gt;Node2</title>
<g id="a_edge1_Node000001_Node000002"><a xlink:title=" ">
<path fill="none" stroke="#63b8ff" d="M131.07,-83.5C139.51,-83.5 148.23,-83.5 156.85,-83.5"/>
<polygon fill="#63b8ff" stroke="#63b8ff" points="156.9,-87 166.9,-83.5 156.9,-80 156.9,-87"/>
</a>
</g>
</g>
<!-- Node3 -->
<g id="Node000003" class="node">
<title>Node3</title>
<g id="a_Node000003"><a xlink:href="classLogger.html#a9811dd7acd0992cdc9ed6c5125a3fe1d" target="_top" xlink:title="Log debug message.">
<polygon fill="white" stroke="#666666" points="438.5,-130 351.5,-130 351.5,-111 438.5,-111 438.5,-130"/>
<text text-anchor="middle" x="395" y="-118" font-family="Helvetica,sans-Serif" font-size="10.00">Logger::Debug</text>
</a>
</g>
</g>
<!-- Node2&#45;&gt;Node3 -->
<g id="edge2_Node000002_Node000003" class="edge">
<title>Node2&#45;&gt;Node3</title>
<g id="a_edge2_Node000002_Node000003"><a xlink:title=" ">
<path fill="none" stroke="#63b8ff" d="M302.26,-99.08C315.88,-102.26 330,-105.56 342.97,-108.59"/>
<polygon fill="#63b8ff" stroke="#63b8ff" points="342.55,-112.08 353.08,-110.95 344.14,-105.27 342.55,-112.08"/>
</a>
</g>
</g>
<!-- Node6 -->
<g id="Node000006" class="node">
<title>Node6</title>
<g id="a_Node000006"><a xlink:href="classLogger.html#a5e4bcdaea60b9ac227b564d780388769" target="_top" xlink:title="Log error message.">
<polygon fill="white" stroke="#666666" points="434.5,-93 355.5,-93 355.5,-74 434.5,-74 434.5,-93"/>
<text text-anchor="middle" x="395" y="-81" font-family="Helvetica,sans-Serif" font-size="10.00">Logger::Error</text>
</a>
</g>
</g>
<!-- Node2&#45;&gt;Node6 -->
<g id="edge5_Node000002_Node000006" class="edge">
<title>Node2&#45;&gt;Node6</title>
<g id="a_edge5_Node000002_Node000006"><a xlink:title=" ">
<path fill="none" stroke="#63b8ff" d="M302.26,-83.5C316.69,-83.5 331.68,-83.5 345.26,-83.5"/>
<polygon fill="#63b8ff" stroke="#63b8ff" points="345.34,-87 355.34,-83.5 345.34,-80 345.34,-87"/>
</a>
</g>
</g>
<!-- Node7 -->
<g id="Node000007" class="node">
<title>Node7</title>
<g id="a_Node000007"><a xlink:href="classLogger.html#a5789d11f8f1356e2192c0023a089cbc4" target="_top" xlink:title="Get singleton instance.">
<polygon fill="white" stroke="#666666" points="452,-19 338,-19 338,0 452,0 452,-19"/>
<text text-anchor="middle" x="395" y="-7" font-family="Helvetica,sans-Serif" font-size="10.00">Logger::GetInstance</text>
</a>
</g>
</g>
<!-- Node2&#45;&gt;Node7 -->
<g id="edge8_Node000002_Node000007" class="edge">
<title>Node2&#45;&gt;Node7</title>
<g id="a_edge8_Node000002_Node000007"><a xlink:title=" ">
<path fill="none" stroke="#63b8ff" d="M269.32,-62.91C288.92,-51.52 314.34,-37.66 338,-27.5 342.18,-25.71 346.6,-23.99 351.04,-22.38"/>
<polygon fill="#63b8ff" stroke="#63b8ff" points="352.43,-25.61 360.75,-19.04 350.15,-18.99 352.43,-25.61"/>
</a>
</g>
</g>
<!-- Node8 -->
<g id="Node000008" class="node">
<title>Node8</title>
<g id="a_Node000008"><a xlink:href="classLogger.html#a1c0c947d87884bca0395fd38d19d1102" target="_top" xlink:title="Log info message.">
<polygon fill="white" stroke="#666666" points="432,-56 358,-56 358,-37 432,-37 432,-56"/>
<text text-anchor="middle" x="395" y="-44" font-family="Helvetica,sans-Serif" font-size="10.00">Logger::Info</text>
</a>
</g>
</g>
<!-- Node2&#45;&gt;Node8 -->
<g id="edge9_Node000002_Node000008" class="edge">
<title>Node2&#45;&gt;Node8</title>
<g id="a_edge9_Node000002_Node000008"><a xlink:title=" ">
<path fill="none" stroke="#63b8ff" d="M302.26,-67.92C317.51,-64.36 333.39,-60.65 347.57,-57.34"/>
<polygon fill="#63b8ff" stroke="#63b8ff" points="348.62,-60.69 357.56,-55.01 347.03,-53.87 348.62,-60.69"/>
</a>
</g>
</g>
<!-- Node9 -->
<g id="Node000009" class="node">
<title>Node9</title>
<g id="a_Node000009"><a xlink:href="classLogger.html#a8c19c14724b0be1d2be63da4258c001a" target="_top" xlink:title="Log warning message.">
<polygon fill="white" stroke="#666666" points="435,-167 355,-167 355,-148 435,-148 435,-167"/>
<text text-anchor="middle" x="395" y="-155" font-family="Helvetica,sans-Serif" font-size="10.00">Logger::Warn</text>
</a>
</g>
</g>
<!-- Node2&#45;&gt;Node9 -->
<g id="edge12_Node000002_Node000009" class="edge">
<title>Node2&#45;&gt;Node9</title>
<g id="a_edge12_Node000002_Node000009"><a xlink:title=" ">
<path fill="none" stroke="#63b8ff" d="M269.32,-104.09C288.92,-115.48 314.34,-129.34 338,-139.5 342.18,-141.29 346.6,-143.01 351.04,-144.62"/>
<polygon fill="#63b8ff" stroke="#63b8ff" points="350.15,-148.01 360.75,-147.96 352.43,-141.39 350.15,-148.01"/>
</a>
</g>
</g>
<!-- Node4 -->
<g id="Node000004" class="node">
<title>Node4</title>
<g id="a_Node000004"><a xlink:href="classLogger.html#a737b981213c02321a5235848334d7191" target="_top" xlink:title="Check if log level is enabled for tag.">
<polygon fill="white" stroke="#666666" points="617,-130 488,-130 488,-111 617,-111 617,-130"/>
<text text-anchor="middle" x="552.5" y="-118" font-family="Helvetica,sans-Serif" font-size="10.00">Logger::IsLevelEnabled</text>
</a>
</g>
</g>
<!-- Node3&#45;&gt;Node4 -->
<g id="edge3_Node000003_Node000004" class="edge">
<title>Node3&#45;&gt;Node4</title>
<g id="a_edge3_Node000003_Node000004"><a xlink:title=" ">
<path fill="none" stroke="#63b8ff" d="M438.9,-120.5C450.94,-120.5 464.38,-120.5 477.66,-120.5"/>
<polygon fill="#63b8ff" stroke="#63b8ff" points="477.77,-124 487.77,-120.5 477.77,-117 477.77,-124"/>
</a>
</g>
</g>
<!-- Node5 -->
<g id="Node000005" class="node">
<title>Node5</title>
<g id="a_Node000005"><a xlink:href="classLogger.html#aeede6ac18db92a47caede076ef188a13" target="_top" xlink:title="Internal logging method.">
<polygon fill="white" stroke="#666666" points="607.5,-93 497.5,-93 497.5,-74 607.5,-74 607.5,-93"/>
<text text-anchor="middle" x="552.5" y="-81" font-family="Helvetica,sans-Serif" font-size="10.00">Logger::LogInternal</text>
</a>
</g>
</g>
<!-- Node3&#45;&gt;Node5 -->
<g id="edge4_Node000003_Node000005" class="edge">
<title>Node3&#45;&gt;Node5</title>
<g id="a_edge4_Node000003_Node000005"><a xlink:title=" ">
<path fill="none" stroke="#63b8ff" d="M436.05,-110.97C456.01,-106.22 480.35,-100.43 501.53,-95.39"/>
<polygon fill="#63b8ff" stroke="#63b8ff" points="502.4,-98.78 511.32,-93.06 500.78,-91.97 502.4,-98.78"/>
</a>
</g>
</g>
<!-- Node6&#45;&gt;Node4 -->
<g id="edge6_Node000006_Node000004" class="edge">
<title>Node6&#45;&gt;Node4</title>
<g id="a_edge6_Node000006_Node000004"><a xlink:title=" ">
<path fill="none" stroke="#63b8ff" d="M434.84,-92.74C455.03,-97.55 479.94,-103.47 501.55,-108.61"/>
<polygon fill="#63b8ff" stroke="#63b8ff" points="501,-112.08 511.53,-110.99 502.62,-105.27 501,-112.08"/>
</a>
</g>
</g>
<!-- Node6&#45;&gt;Node5 -->
<g id="edge7_Node000006_Node000005" class="edge">
<title>Node6&#45;&gt;Node5</title>
<g id="a_edge7_Node000006_Node000005"><a xlink:title=" ">
<path fill="none" stroke="#63b8ff" d="M434.84,-83.5C450.63,-83.5 469.31,-83.5 487.03,-83.5"/>
<polygon fill="#63b8ff" stroke="#63b8ff" points="487.33,-87 497.33,-83.5 487.33,-80 487.33,-87"/>
</a>
</g>
</g>
<!-- Node8&#45;&gt;Node4 -->
<g id="edge10_Node000008_Node000004" class="edge">
<title>Node8&#45;&gt;Node4</title>
<g id="a_edge10_Node000008_Node000004"><a xlink:title=" ">
<path fill="none" stroke="#63b8ff" d="M432.15,-55.17C439.02,-57.62 445.95,-60.69 452,-64.5 471.69,-76.89 468.1,-90.45 488,-102.5 490.79,-104.19 493.75,-105.73 496.8,-107.13"/>
<polygon fill="#63b8ff" stroke="#63b8ff" points="495.59,-110.41 506.17,-110.91 498.21,-103.92 495.59,-110.41"/>
</a>
</g>
</g>
<!-- Node8&#45;&gt;Node5 -->
<g id="edge11_Node000008_Node000005" class="edge">
<title>Node8&#45;&gt;Node5</title>
<g id="a_edge11_Node000008_Node000005"><a xlink:title=" ">
<path fill="none" stroke="#63b8ff" d="M432.07,-55.08C452.78,-60.01 479.09,-66.27 501.74,-71.66"/>
<polygon fill="#63b8ff" stroke="#63b8ff" points="500.99,-75.08 511.53,-73.99 502.61,-68.27 500.99,-75.08"/>
</a>
</g>
</g>
<!-- Node9&#45;&gt;Node4 -->
<g id="edge13_Node000009_Node000004" class="edge">
<title>Node9&#45;&gt;Node4</title>
<g id="a_edge13_Node000009_Node000004"><a xlink:title=" ">
<path fill="none" stroke="#63b8ff" d="M435.24,-148.16C455.36,-143.38 480.07,-137.5 501.54,-132.39"/>
<polygon fill="#63b8ff" stroke="#63b8ff" points="502.54,-135.75 511.46,-130.03 500.92,-128.94 502.54,-135.75"/>
</a>
</g>
</g>
<!-- Node9&#45;&gt;Node5 -->
<g id="edge14_Node000009_Node000005" class="edge">
<title>Node9&#45;&gt;Node5</title>
<g id="a_edge14_Node000009_Node000005"><a xlink:title=" ">
<path fill="none" stroke="#63b8ff" d="M434.47,-147.9C440.56,-145.61 446.62,-142.84 452,-139.5 471.5,-127.41 468.38,-114.39 488,-102.5 491.44,-100.41 495.13,-98.54 498.94,-96.86"/>
<polygon fill="#63b8ff" stroke="#63b8ff" points="500.52,-100 508.55,-93.09 497.96,-93.49 500.52,-100"/>
</a>
</g>
</g>
</g>
</svg>
