<?xml version="1.0" encoding="UTF-8" standalone="no"?>
<!DOCTYPE svg PUBLIC "-//W3C//DTD SVG 1.1//EN"
 "http://www.w3.org/Graphics/SVG/1.1/DTD/svg11.dtd">
<!-- Generated by graphviz version 2.43.0 (0)
 -->
<!-- Title: Tmc9660Handler::temperature Pages: 1 -->
<svg width="1120pt" height="113pt"
 viewBox="0.00 0.00 1120.00 112.50" xmlns="http://www.w3.org/2000/svg" xmlns:xlink="http://www.w3.org/1999/xlink">
<g id="graph0" class="graph" transform="scale(1 1) rotate(0) translate(4 108.5)">
<title>Tmc9660Handler::temperature</title>
<!-- Node1 -->
<g id="Node000001" class="node">
<title>Node1</title>
<g id="a_Node000001"><a xlink:title="Get a reference to the Temperature wrapper.">
<polygon fill="#999999" stroke="#666666" points="167,-45.5 0,-45.5 0,-26.5 167,-26.5 167,-45.5"/>
<text text-anchor="middle" x="83.5" y="-33.5" font-family="Helvetica,sans-Serif" font-size="10.00">Tmc9660Handler::temperature</text>
</a>
</g>
</g>
<!-- Node1&#45;&gt;Node1 -->
<g id="edge13_Node000001_Node000001" class="edge">
<title>Node1&#45;&gt;Node1</title>
<g id="a_edge13_Node000001_Node000001"><a xlink:title=" ">
<path fill="none" stroke="#63b8ff" d="M50.82,-45.58C34.93,-54.23 45.82,-63.5 83.5,-63.5 110.58,-63.5 123.83,-58.71 123.23,-52.81"/>
<polygon fill="#63b8ff" stroke="#63b8ff" points="125.67,-50.29 116.18,-45.58 120.66,-55.18 125.67,-50.29"/>
</a>
</g>
</g>
<!-- Node2 -->
<g id="Node000002" class="node">
<title>Node2</title>
<g id="a_Node000002"><a xlink:href="classTmc9660Handler.html#a5a279ae9d4b5a8e0d71cb24577ad88ea" target="_top" xlink:title="Ensure driver is initialized (lazy init entrypoint).">
<polygon fill="white" stroke="#666666" points="390,-45.5 203,-45.5 203,-26.5 390,-26.5 390,-45.5"/>
<text text-anchor="middle" x="296.5" y="-33.5" font-family="Helvetica,sans-Serif" font-size="10.00">Tmc9660Handler::EnsureInitialized</text>
</a>
</g>
</g>
<!-- Node1&#45;&gt;Node2 -->
<g id="edge1_Node000001_Node000002" class="edge">
<title>Node1&#45;&gt;Node2</title>
<g id="a_edge1_Node000001_Node000002"><a xlink:title=" ">
<path fill="none" stroke="#63b8ff" d="M167.29,-29.39C175.67,-29.29 184.25,-29.24 192.81,-29.25"/>
<polygon fill="#63b8ff" stroke="#63b8ff" points="192.81,-32.75 202.83,-29.29 192.84,-25.75 192.81,-32.75"/>
</a>
</g>
</g>
<!-- Node2&#45;&gt;Node1 -->
<g id="edge12_Node000002_Node000001" class="edge">
<title>Node2&#45;&gt;Node1</title>
<g id="a_edge12_Node000002_Node000001"><a xlink:title=" ">
<path fill="none" stroke="#63b8ff" d="M202.83,-42.71C194.42,-42.76 185.9,-42.76 177.48,-42.71"/>
<polygon fill="#63b8ff" stroke="#63b8ff" points="177.32,-39.21 167.29,-42.61 177.25,-46.21 177.32,-39.21"/>
</a>
</g>
</g>
<!-- Node3 -->
<g id="Node000003" class="node">
<title>Node3</title>
<g id="a_Node000003"><a xlink:href="classTmc9660Handler.html#a7c1d8073576d678b09dac24c9eb12845" target="_top" xlink:title="Ensure initialized while handler_mutex_ is already held.">
<polygon fill="white" stroke="#666666" points="613,-51 426,-51 426,-21 613,-21 613,-51"/>
<text text-anchor="start" x="434" y="-39" font-family="Helvetica,sans-Serif" font-size="10.00">Tmc9660Handler::EnsureInitialized</text>
<text text-anchor="middle" x="519.5" y="-28" font-family="Helvetica,sans-Serif" font-size="10.00">Locked</text>
</a>
</g>
</g>
<!-- Node2&#45;&gt;Node3 -->
<g id="edge2_Node000002_Node000003" class="edge">
<title>Node2&#45;&gt;Node3</title>
<g id="a_edge2_Node000002_Node000003"><a xlink:title=" ">
<path fill="none" stroke="#63b8ff" d="M390.26,-36C398.75,-36 407.39,-36 415.96,-36"/>
<polygon fill="#63b8ff" stroke="#63b8ff" points="415.97,-39.5 425.97,-36 415.97,-32.5 415.97,-39.5"/>
</a>
</g>
</g>
<!-- Node4 -->
<g id="Node000004" class="node">
<title>Node4</title>
<g id="a_Node000004"><a xlink:href="classTmc9660Handler.html#adc564847f8ae26c47412aaee0758991c" target="_top" xlink:title="Initialize the TMC9660 device.">
<polygon fill="white" stroke="#666666" points="797,-67.5 649,-67.5 649,-48.5 797,-48.5 797,-67.5"/>
<text text-anchor="middle" x="723" y="-55.5" font-family="Helvetica,sans-Serif" font-size="10.00">Tmc9660Handler::Initialize</text>
</a>
</g>
</g>
<!-- Node3&#45;&gt;Node4 -->
<g id="edge3_Node000003_Node000004" class="edge">
<title>Node3&#45;&gt;Node4</title>
<g id="a_edge3_Node000003_Node000004"><a xlink:title=" ">
<path fill="none" stroke="#63b8ff" d="M613.29,-46.13C621.73,-47.05 630.25,-47.98 638.61,-48.9"/>
<polygon fill="#63b8ff" stroke="#63b8ff" points="638.38,-52.39 648.7,-50 639.14,-45.43 638.38,-52.39"/>
</a>
</g>
</g>
<!-- Node10 -->
<g id="Node000010" class="node">
<title>Node10</title>
<g id="a_Node000010"><a xlink:href="classTmc9660Handler.html#a13db97d201a287d8aa60384e04070b9f" target="_top" xlink:title="Check if the TMC9660 driver has been initialized and is ready.">
<polygon fill="white" stroke="#666666" points="795,-30 651,-30 651,0 795,0 795,-30"/>
<text text-anchor="start" x="659" y="-18" font-family="Helvetica,sans-Serif" font-size="10.00">Tmc9660Handler::IsDriver</text>
<text text-anchor="middle" x="723" y="-7" font-family="Helvetica,sans-Serif" font-size="10.00">Ready</text>
</a>
</g>
</g>
<!-- Node3&#45;&gt;Node10 -->
<g id="edge11_Node000003_Node000010" class="edge">
<title>Node3&#45;&gt;Node10</title>
<g id="a_edge11_Node000003_Node000010"><a xlink:title=" ">
<path fill="none" stroke="#63b8ff" d="M613.29,-26.33C622.44,-25.38 631.69,-24.41 640.71,-23.47"/>
<polygon fill="#63b8ff" stroke="#63b8ff" points="641.21,-26.94 650.8,-22.42 640.49,-19.98 641.21,-26.94"/>
</a>
</g>
</g>
<!-- Node5 -->
<g id="Node000005" class="node">
<title>Node5</title>
<g id="a_Node000005"><a xlink:href="classLogger.html#adce17848a5844e053bfd314863dc1404" target="_top" xlink:title="Log error message.">
<polygon fill="white" stroke="#666666" points="929.5,-67.5 850.5,-67.5 850.5,-48.5 929.5,-48.5 929.5,-67.5"/>
<text text-anchor="middle" x="890" y="-55.5" font-family="Helvetica,sans-Serif" font-size="10.00">Logger::Error</text>
</a>
</g>
</g>
<!-- Node4&#45;&gt;Node5 -->
<g id="edge4_Node000004_Node000005" class="edge">
<title>Node4&#45;&gt;Node5</title>
<g id="a_edge4_Node000004_Node000005"><a xlink:title=" ">
<path fill="none" stroke="#63b8ff" d="M797.33,-58C811.73,-58 826.5,-58 839.87,-58"/>
<polygon fill="#63b8ff" stroke="#63b8ff" points="840.26,-61.5 850.26,-58 840.26,-54.5 840.26,-61.5"/>
</a>
</g>
</g>
<!-- Node8 -->
<g id="Node000008" class="node">
<title>Node8</title>
<g id="a_Node000008"><a xlink:href="classLogger.html#a5789d11f8f1356e2192c0023a089cbc4" target="_top" xlink:title="Get singleton instance.">
<polygon fill="white" stroke="#666666" points="947,-30.5 833,-30.5 833,-11.5 947,-11.5 947,-30.5"/>
<text text-anchor="middle" x="890" y="-18.5" font-family="Helvetica,sans-Serif" font-size="10.00">Logger::GetInstance</text>
</a>
</g>
</g>
<!-- Node4&#45;&gt;Node8 -->
<g id="edge7_Node000004_Node000008" class="edge">
<title>Node4&#45;&gt;Node8</title>
<g id="a_edge7_Node000004_Node000008"><a xlink:title=" ">
<path fill="none" stroke="#63b8ff" d="M766.49,-48.47C787.87,-43.68 813.97,-37.82 836.58,-32.75"/>
<polygon fill="#63b8ff" stroke="#63b8ff" points="837.37,-36.16 846.37,-30.56 835.84,-29.33 837.37,-36.16"/>
</a>
</g>
</g>
<!-- Node9 -->
<g id="Node000009" class="node">
<title>Node9</title>
<g id="a_Node000009"><a xlink:href="classLogger.html#a4681229c521795685fc14f6b55c82300" target="_top" xlink:title="Log info message.">
<polygon fill="white" stroke="#666666" points="927,-104.5 853,-104.5 853,-85.5 927,-85.5 927,-104.5"/>
<text text-anchor="middle" x="890" y="-92.5" font-family="Helvetica,sans-Serif" font-size="10.00">Logger::Info</text>
</a>
</g>
</g>
<!-- Node4&#45;&gt;Node9 -->
<g id="edge8_Node000004_Node000009" class="edge">
<title>Node4&#45;&gt;Node9</title>
<g id="a_edge8_Node000004_Node000009"><a xlink:title=" ">
<path fill="none" stroke="#63b8ff" d="M766.49,-67.53C789.89,-72.77 818.94,-79.29 842.89,-84.66"/>
<polygon fill="#63b8ff" stroke="#63b8ff" points="842.28,-88.11 852.8,-86.88 843.81,-81.28 842.28,-88.11"/>
</a>
</g>
</g>
<!-- Node6 -->
<g id="Node000006" class="node">
<title>Node6</title>
<g id="a_Node000006"><a xlink:href="classLogger.html#af9e84e0ff6bd538e4f9ed8dcebc3e2f0" target="_top" xlink:title="Check if log level is enabled for tag.">
<polygon fill="white" stroke="#666666" points="1112,-104.5 983,-104.5 983,-85.5 1112,-85.5 1112,-104.5"/>
<text text-anchor="middle" x="1047.5" y="-92.5" font-family="Helvetica,sans-Serif" font-size="10.00">Logger::IsLevelEnabled</text>
</a>
</g>
</g>
<!-- Node5&#45;&gt;Node6 -->
<g id="edge5_Node000005_Node000006" class="edge">
<title>Node5&#45;&gt;Node6</title>
<g id="a_edge5_Node000005_Node000006"><a xlink:title=" ">
<path fill="none" stroke="#63b8ff" d="M929.84,-67.24C950.03,-72.05 974.94,-77.97 996.55,-83.11"/>
<polygon fill="#63b8ff" stroke="#63b8ff" points="996,-86.58 1006.53,-85.49 997.62,-79.77 996,-86.58"/>
</a>
</g>
</g>
<!-- Node7 -->
<g id="Node000007" class="node">
<title>Node7</title>
<g id="a_Node000007"><a xlink:href="classLogger.html#a6adb205db597526fb91ad20067400394" target="_top" xlink:title="Internal logging method.">
<polygon fill="white" stroke="#666666" points="1102.5,-67.5 992.5,-67.5 992.5,-48.5 1102.5,-48.5 1102.5,-67.5"/>
<text text-anchor="middle" x="1047.5" y="-55.5" font-family="Helvetica,sans-Serif" font-size="10.00">Logger::LogInternal</text>
</a>
</g>
</g>
<!-- Node5&#45;&gt;Node7 -->
<g id="edge6_Node000005_Node000007" class="edge">
<title>Node5&#45;&gt;Node7</title>
<g id="a_edge6_Node000005_Node000007"><a xlink:title=" ">
<path fill="none" stroke="#63b8ff" d="M929.84,-58C945.63,-58 964.31,-58 982.03,-58"/>
<polygon fill="#63b8ff" stroke="#63b8ff" points="982.33,-61.5 992.33,-58 982.33,-54.5 982.33,-61.5"/>
</a>
</g>
</g>
<!-- Node9&#45;&gt;Node6 -->
<g id="edge9_Node000009_Node000006" class="edge">
<title>Node9&#45;&gt;Node6</title>
<g id="a_edge9_Node000009_Node000006"><a xlink:title=" ">
<path fill="none" stroke="#63b8ff" d="M927.07,-95C940.68,-95 956.72,-95 972.55,-95"/>
<polygon fill="#63b8ff" stroke="#63b8ff" points="972.89,-98.5 982.89,-95 972.89,-91.5 972.89,-98.5"/>
</a>
</g>
</g>
<!-- Node9&#45;&gt;Node7 -->
<g id="edge10_Node000009_Node000007" class="edge">
<title>Node9&#45;&gt;Node7</title>
<g id="a_edge10_Node000009_Node000007"><a xlink:title=" ">
<path fill="none" stroke="#63b8ff" d="M927.07,-86.42C947.78,-81.49 974.09,-75.23 996.74,-69.84"/>
<polygon fill="#63b8ff" stroke="#63b8ff" points="997.61,-73.23 1006.53,-67.51 995.99,-66.42 997.61,-73.23"/>
</a>
</g>
</g>
</g>
</svg>
