<?xml version="1.0" encoding="UTF-8" standalone="no"?>
<!DOCTYPE svg PUBLIC "-//W3C//DTD SVG 1.1//EN"
 "http://www.w3.org/Graphics/SVG/1.1/DTD/svg11.dtd">
<!-- Generated by graphviz version 2.43.0 (0)
 -->
<!-- Title: Bno08xHandler::GetSensor Pages: 1 -->
<svg width="1147pt" height="162pt"
 viewBox="0.00 0.00 1147.00 161.50" xmlns="http://www.w3.org/2000/svg" xmlns:xlink="http://www.w3.org/1999/xlink">
<g id="graph0" class="graph" transform="scale(1 1) rotate(0) translate(4 157.5)">
<title>Bno08xHandler::GetSensor</title>
<!-- Node1 -->
<g id="Node000001" class="node">
<title>Node1</title>
<g id="a_Node000001"><a xlink:title="Get direct access to the underlying sensor driver (type&#45;erased).">
<polygon fill="#999999" stroke="#666666" points="148,-83 0,-83 0,-64 148,-64 148,-83"/>
<text text-anchor="middle" x="74" y="-71" font-family="Helvetica,sans-Serif" font-size="10.00">Bno08xHandler::GetSensor</text>
</a>
</g>
</g>
<!-- Node2 -->
<g id="Node000002" class="node">
<title>Node2</title>
<g id="a_Node000002"><a xlink:href="classBno08xHandler.html#afab341345c8ed8fed1a218e0df18c4aa" target="_top" xlink:title="Ensure the BNO08x is initialized (lazy init entrypoint).">
<polygon fill="white" stroke="#666666" points="363,-83 184,-83 184,-64 363,-64 363,-83"/>
<text text-anchor="middle" x="273.5" y="-71" font-family="Helvetica,sans-Serif" font-size="10.00">Bno08xHandler::EnsureInitialized</text>
</a>
</g>
</g>
<!-- Node1&#45;&gt;Node2 -->
<g id="edge1_Node000001_Node000002" class="edge">
<title>Node1&#45;&gt;Node2</title>
<g id="a_edge1_Node000001_Node000002"><a xlink:title=" ">
<path fill="none" stroke="#63b8ff" d="M148.26,-73.5C156.62,-73.5 165.25,-73.5 173.87,-73.5"/>
<polygon fill="#63b8ff" stroke="#63b8ff" points="173.98,-77 183.98,-73.5 173.98,-70 173.98,-77"/>
</a>
</g>
</g>
<!-- Node3 -->
<g id="Node000003" class="node">
<title>Node3</title>
<g id="a_Node000003"><a xlink:href="classBno08xHandler.html#a0479abc034d5417ba7dc524468a5ce82" target="_top" xlink:title="Internal: ensure initialized (assumes mutex is held).">
<polygon fill="white" stroke="#666666" points="578,-88.5 399,-88.5 399,-58.5 578,-58.5 578,-88.5"/>
<text text-anchor="start" x="407" y="-76.5" font-family="Helvetica,sans-Serif" font-size="10.00">Bno08xHandler::ensureInitialized</text>
<text text-anchor="middle" x="488.5" y="-65.5" font-family="Helvetica,sans-Serif" font-size="10.00">Locked</text>
</a>
</g>
</g>
<!-- Node2&#45;&gt;Node3 -->
<g id="edge2_Node000002_Node000003" class="edge">
<title>Node2&#45;&gt;Node3</title>
<g id="a_edge2_Node000002_Node000003"><a xlink:title=" ">
<path fill="none" stroke="#63b8ff" d="M363.29,-73.5C371.65,-73.5 380.16,-73.5 388.6,-73.5"/>
<polygon fill="#63b8ff" stroke="#63b8ff" points="388.86,-77 398.86,-73.5 388.85,-70 388.86,-77"/>
</a>
</g>
</g>
<!-- Node4 -->
<g id="Node000004" class="node">
<title>Node4</title>
<g id="a_Node000004"><a xlink:href="classBno08xHandler.html#ac1a1ff0d56324dcc09d9b48ca2e132e6" target="_top" xlink:title="Initialize the BNO08x sensor.">
<polygon fill="white" stroke="#666666" points="754,-83 614,-83 614,-64 754,-64 754,-83"/>
<text text-anchor="middle" x="684" y="-71" font-family="Helvetica,sans-Serif" font-size="10.00">Bno08xHandler::Initialize</text>
</a>
</g>
</g>
<!-- Node3&#45;&gt;Node4 -->
<g id="edge3_Node000003_Node000004" class="edge">
<title>Node3&#45;&gt;Node4</title>
<g id="a_edge3_Node000003_Node000004"><a xlink:title=" ">
<path fill="none" stroke="#63b8ff" d="M578.04,-73.5C586.6,-73.5 595.25,-73.5 603.71,-73.5"/>
<polygon fill="#63b8ff" stroke="#63b8ff" points="603.92,-77 613.92,-73.5 603.92,-70 603.92,-77"/>
</a>
</g>
</g>
<!-- Node5 -->
<g id="Node000005" class="node">
<title>Node5</title>
<g id="a_Node000005"><a xlink:href="classBno08xHandler.html#a5669d8d3146a450430e5644b8d297de5" target="_top" xlink:title="Internal: apply configured sensor enables (assumes mutex is held).">
<polygon fill="white" stroke="#666666" points="952,-153.5 797,-153.5 797,-123.5 952,-123.5 952,-153.5"/>
<text text-anchor="start" x="805" y="-141.5" font-family="Helvetica,sans-Serif" font-size="10.00">Bno08xHandler::applyConfig</text>
<text text-anchor="middle" x="874.5" y="-130.5" font-family="Helvetica,sans-Serif" font-size="10.00">Locked</text>
</a>
</g>
</g>
<!-- Node4&#45;&gt;Node5 -->
<g id="edge4_Node000004_Node000005" class="edge">
<title>Node4&#45;&gt;Node5</title>
<g id="a_edge4_Node000004_Node000005"><a xlink:title=" ">
<path fill="none" stroke="#63b8ff" d="M707.72,-83.07C728.83,-91.8 761.27,-104.78 790,-114.5 796,-116.53 802.28,-118.54 808.59,-120.48"/>
<polygon fill="#63b8ff" stroke="#63b8ff" points="807.89,-123.93 818.48,-123.47 809.92,-117.23 807.89,-123.93"/>
</a>
</g>
</g>
<!-- Node7 -->
<g id="Node000007" class="node">
<title>Node7</title>
<g id="a_Node000007"><a xlink:href="classIBno08xDriverOps.html#a0ca90c1a5664ab3eb83f691aff34faa0" target="_top" xlink:title=" ">
<polygon fill="white" stroke="#666666" points="944,-105 805,-105 805,-86 944,-86 944,-105"/>
<text text-anchor="middle" x="874.5" y="-93" font-family="Helvetica,sans-Serif" font-size="10.00">IBno08xDriverOps::Begin</text>
</a>
</g>
</g>
<!-- Node4&#45;&gt;Node7 -->
<g id="edge6_Node000004_Node000007" class="edge">
<title>Node4&#45;&gt;Node7</title>
<g id="a_edge6_Node000004_Node000007"><a xlink:title=" ">
<path fill="none" stroke="#63b8ff" d="M754.12,-81.57C767.27,-83.1 781.12,-84.72 794.54,-86.28"/>
<polygon fill="#63b8ff" stroke="#63b8ff" points="794.36,-89.79 804.7,-87.47 795.18,-82.83 794.36,-89.79"/>
</a>
</g>
</g>
<!-- Node8 -->
<g id="Node000008" class="node">
<title>Node8</title>
<g id="a_Node000008"><a xlink:href="classIBno08xDriverOps.html#a66418ccb85cd8eb8eea327fa979a2b6a" target="_top" xlink:title=" ">
<polygon fill="white" stroke="#666666" points="953.5,-67.5 795.5,-67.5 795.5,-37.5 953.5,-37.5 953.5,-67.5"/>
<text text-anchor="start" x="803.5" y="-55.5" font-family="Helvetica,sans-Serif" font-size="10.00">IBno08xDriverOps::Hardware</text>
<text text-anchor="middle" x="874.5" y="-44.5" font-family="Helvetica,sans-Serif" font-size="10.00">Reset</text>
</a>
</g>
</g>
<!-- Node4&#45;&gt;Node8 -->
<g id="edge7_Node000004_Node000008" class="edge">
<title>Node4&#45;&gt;Node8</title>
<g id="a_edge7_Node000004_Node000008"><a xlink:title=" ">
<path fill="none" stroke="#63b8ff" d="M754.12,-65.8C764.31,-64.66 774.93,-63.48 785.44,-62.31"/>
<polygon fill="#63b8ff" stroke="#63b8ff" points="785.92,-65.78 795.47,-61.19 785.14,-58.82 785.92,-65.78"/>
</a>
</g>
</g>
<!-- Node9 -->
<g id="Node000009" class="node">
<title>Node9</title>
<g id="a_Node000009"><a xlink:href="classIBno08xDriverOps.html#a04816a487d80027e6d6fe435f651b265" target="_top" xlink:title=" ">
<polygon fill="white" stroke="#666666" points="959,-19 790,-19 790,0 959,0 959,-19"/>
<text text-anchor="middle" x="874.5" y="-7" font-family="Helvetica,sans-Serif" font-size="10.00">IBno08xDriverOps::SetCallback</text>
</a>
</g>
</g>
<!-- Node4&#45;&gt;Node9 -->
<g id="edge8_Node000004_Node000009" class="edge">
<title>Node4&#45;&gt;Node9</title>
<g id="a_edge8_Node000004_Node000009"><a xlink:title=" ">
<path fill="none" stroke="#63b8ff" d="M704.33,-63.96C725.09,-54.01 759.26,-38.49 790,-28.5 797.93,-25.92 806.39,-23.56 814.76,-21.45"/>
<polygon fill="#63b8ff" stroke="#63b8ff" points="815.63,-24.84 824.53,-19.08 813.98,-18.04 815.63,-24.84"/>
</a>
</g>
</g>
<!-- Node6 -->
<g id="Node000006" class="node">
<title>Node6</title>
<g id="a_Node000006"><a xlink:href="classIBno08xDriverOps.html#a1da5bdfd4c8d7fbd42475ae7ee37fb98" target="_top" xlink:title=" ">
<polygon fill="white" stroke="#666666" points="1139,-153.5 995,-153.5 995,-123.5 1139,-123.5 1139,-153.5"/>
<text text-anchor="start" x="1003" y="-141.5" font-family="Helvetica,sans-Serif" font-size="10.00">IBno08xDriverOps::Enable</text>
<text text-anchor="middle" x="1067" y="-130.5" font-family="Helvetica,sans-Serif" font-size="10.00">Sensor</text>
</a>
</g>
</g>
<!-- Node5&#45;&gt;Node6 -->
<g id="edge5_Node000005_Node000006" class="edge">
<title>Node5&#45;&gt;Node6</title>
<g id="a_edge5_Node000005_Node000006"><a xlink:title=" ">
<path fill="none" stroke="#63b8ff" d="M952.16,-138.5C962.82,-138.5 973.79,-138.5 984.53,-138.5"/>
<polygon fill="#63b8ff" stroke="#63b8ff" points="984.74,-142 994.74,-138.5 984.74,-135 984.74,-142"/>
</a>
</g>
</g>
</g>
</svg>
