<?xml version="1.0" encoding="UTF-8" standalone="no"?>
<!DOCTYPE svg PUBLIC "-//W3C//DTD SVG 1.1//EN"
 "http://www.w3.org/Graphics/SVG/1.1/DTD/svg11.dtd">
<!-- Generated by graphviz version 2.43.0 (0)
 -->
<!-- Title: Tmc9660AdcWrapper::Deinitialize Pages: 1 -->
<svg width="1428pt" height="135pt"
 viewBox="0.00 0.00 1428.00 134.50" xmlns="http://www.w3.org/2000/svg" xmlns:xlink="http://www.w3.org/1999/xlink">
<g id="graph0" class="graph" transform="scale(1 1) rotate(0) translate(4 130.5)">
<title>Tmc9660AdcWrapper::Deinitialize</title>
<!-- Node1 -->
<g id="Node000001" class="node">
<title>Node1</title>
<g id="a_Node000001"><a xlink:title=" ">
<polygon fill="#999999" stroke="#666666" points="127,-51 0,-51 0,-21 127,-21 127,-51"/>
<text text-anchor="start" x="8" y="-39" font-family="Helvetica,sans-Serif" font-size="10.00">Tmc9660AdcWrapper::</text>
<text text-anchor="middle" x="63.5" y="-28" font-family="Helvetica,sans-Serif" font-size="10.00">Deinitialize</text>
</a>
</g>
</g>
<!-- Node2 -->
<g id="Node000002" class="node">
<title>Node2</title>
<g id="a_Node000002"><a xlink:href="classTmc9660Handler.html#a7fe382c4dbf6bf84ed31586e52ec2e6e" target="_top" xlink:title="Get a reference to the ADC wrapper.">
<polygon fill="white" stroke="#666666" points="286.5,-67.5 163.5,-67.5 163.5,-48.5 286.5,-48.5 286.5,-67.5"/>
<text text-anchor="middle" x="225" y="-55.5" font-family="Helvetica,sans-Serif" font-size="10.00">Tmc9660Handler::adc</text>
</a>
</g>
</g>
<!-- Node1&#45;&gt;Node2 -->
<g id="edge1_Node000001_Node000002" class="edge">
<title>Node1&#45;&gt;Node2</title>
<g id="a_edge1_Node000001_Node000002"><a xlink:title=" ">
<path fill="none" stroke="#63b8ff" d="M127.08,-44.63C135.67,-45.82 144.55,-47.04 153.27,-48.24"/>
<polygon fill="#63b8ff" stroke="#63b8ff" points="153.04,-51.75 163.43,-49.65 154,-44.81 153.04,-51.75"/>
</a>
</g>
</g>
<!-- Node13 -->
<g id="Node000013" class="node">
<title>Node13</title>
<g id="a_Node000013"><a xlink:href="classTmc9660Handler_1_1Adc.html#afde209e0b01c869413c927cca08bf4a2" target="_top" xlink:title="Deinitialize ADC wrapper (no&#45;op).">
<polygon fill="white" stroke="#666666" points="287,-30 163,-30 163,0 287,0 287,-30"/>
<text text-anchor="start" x="171" y="-18" font-family="Helvetica,sans-Serif" font-size="10.00">Tmc9660Handler::Adc</text>
<text text-anchor="middle" x="225" y="-7" font-family="Helvetica,sans-Serif" font-size="10.00">::Deinitialize</text>
</a>
</g>
</g>
<!-- Node1&#45;&gt;Node13 -->
<g id="edge14_Node000001_Node000013" class="edge">
<title>Node1&#45;&gt;Node13</title>
<g id="a_edge14_Node000001_Node000013"><a xlink:title=" ">
<path fill="none" stroke="#63b8ff" d="M127.08,-27.76C135.55,-26.65 144.29,-25.49 152.89,-24.36"/>
<polygon fill="#63b8ff" stroke="#63b8ff" points="153.45,-27.82 162.91,-23.04 152.53,-20.88 153.45,-27.82"/>
</a>
</g>
</g>
<!-- Node3 -->
<g id="Node000003" class="node">
<title>Node3</title>
<g id="a_Node000003"><a xlink:href="classTmc9660Handler.html#a5a279ae9d4b5a8e0d71cb24577ad88ea" target="_top" xlink:title="Ensure driver is initialized (lazy init entrypoint).">
<polygon fill="white" stroke="#666666" points="510,-67.5 323,-67.5 323,-48.5 510,-48.5 510,-67.5"/>
<text text-anchor="middle" x="416.5" y="-55.5" font-family="Helvetica,sans-Serif" font-size="10.00">Tmc9660Handler::EnsureInitialized</text>
</a>
</g>
</g>
<!-- Node2&#45;&gt;Node3 -->
<g id="edge2_Node000002_Node000003" class="edge">
<title>Node2&#45;&gt;Node3</title>
<g id="a_edge2_Node000002_Node000003"><a xlink:title=" ">
<path fill="none" stroke="#63b8ff" d="M286.74,-58C295.08,-58 303.82,-58 312.66,-58"/>
<polygon fill="#63b8ff" stroke="#63b8ff" points="312.66,-61.5 322.66,-58 312.66,-54.5 312.66,-61.5"/>
</a>
</g>
</g>
<!-- Node4 -->
<g id="Node000004" class="node">
<title>Node4</title>
<g id="a_Node000004"><a xlink:href="classTmc9660Handler.html#a7c1d8073576d678b09dac24c9eb12845" target="_top" xlink:title="Ensure initialized while handler_mutex_ is already held.">
<polygon fill="white" stroke="#666666" points="733,-73 546,-73 546,-43 733,-43 733,-73"/>
<text text-anchor="start" x="554" y="-61" font-family="Helvetica,sans-Serif" font-size="10.00">Tmc9660Handler::EnsureInitialized</text>
<text text-anchor="middle" x="639.5" y="-50" font-family="Helvetica,sans-Serif" font-size="10.00">Locked</text>
</a>
</g>
</g>
<!-- Node3&#45;&gt;Node4 -->
<g id="edge3_Node000003_Node000004" class="edge">
<title>Node3&#45;&gt;Node4</title>
<g id="a_edge3_Node000003_Node000004"><a xlink:title=" ">
<path fill="none" stroke="#63b8ff" d="M510.26,-58C518.75,-58 527.39,-58 535.96,-58"/>
<polygon fill="#63b8ff" stroke="#63b8ff" points="535.97,-61.5 545.97,-58 535.97,-54.5 535.97,-61.5"/>
</a>
</g>
</g>
<!-- Node5 -->
<g id="Node000005" class="node">
<title>Node5</title>
<g id="a_Node000005"><a xlink:href="classTmc9660Handler.html#adc564847f8ae26c47412aaee0758991c" target="_top" xlink:title="Initialize the TMC9660 device.">
<polygon fill="white" stroke="#666666" points="917,-89.5 769,-89.5 769,-70.5 917,-70.5 917,-89.5"/>
<text text-anchor="middle" x="843" y="-77.5" font-family="Helvetica,sans-Serif" font-size="10.00">Tmc9660Handler::Initialize</text>
</a>
</g>
</g>
<!-- Node4&#45;&gt;Node5 -->
<g id="edge4_Node000004_Node000005" class="edge">
<title>Node4&#45;&gt;Node5</title>
<g id="a_edge4_Node000004_Node000005"><a xlink:title=" ">
<path fill="none" stroke="#63b8ff" d="M733.29,-68.13C741.73,-69.05 750.25,-69.98 758.61,-70.9"/>
<polygon fill="#63b8ff" stroke="#63b8ff" points="758.38,-74.39 768.7,-72 759.14,-67.43 758.38,-74.39"/>
</a>
</g>
</g>
<!-- Node12 -->
<g id="Node000012" class="node">
<title>Node12</title>
<g id="a_Node000012"><a xlink:href="classTmc9660Handler.html#a13db97d201a287d8aa60384e04070b9f" target="_top" xlink:title="Check if the TMC9660 driver has been initialized and is ready.">
<polygon fill="white" stroke="#666666" points="915,-52 771,-52 771,-22 915,-22 915,-52"/>
<text text-anchor="start" x="779" y="-40" font-family="Helvetica,sans-Serif" font-size="10.00">Tmc9660Handler::IsDriver</text>
<text text-anchor="middle" x="843" y="-29" font-family="Helvetica,sans-Serif" font-size="10.00">Ready</text>
</a>
</g>
</g>
<!-- Node4&#45;&gt;Node12 -->
<g id="edge13_Node000004_Node000012" class="edge">
<title>Node4&#45;&gt;Node12</title>
<g id="a_edge13_Node000004_Node000012"><a xlink:title=" ">
<path fill="none" stroke="#63b8ff" d="M733.29,-48.33C742.44,-47.38 751.69,-46.41 760.71,-45.47"/>
<polygon fill="#63b8ff" stroke="#63b8ff" points="761.21,-48.94 770.8,-44.42 760.49,-41.98 761.21,-48.94"/>
</a>
</g>
</g>
<!-- Node6 -->
<g id="Node000006" class="node">
<title>Node6</title>
<g id="a_Node000006"><a xlink:href="classLogger.html#adce17848a5844e053bfd314863dc1404" target="_top" xlink:title="Log error message.">
<polygon fill="white" stroke="#666666" points="1049.5,-89.5 970.5,-89.5 970.5,-70.5 1049.5,-70.5 1049.5,-89.5"/>
<text text-anchor="middle" x="1010" y="-77.5" font-family="Helvetica,sans-Serif" font-size="10.00">Logger::Error</text>
</a>
</g>
</g>
<!-- Node5&#45;&gt;Node6 -->
<g id="edge5_Node000005_Node000006" class="edge">
<title>Node5&#45;&gt;Node6</title>
<g id="a_edge5_Node000005_Node000006"><a xlink:title=" ">
<path fill="none" stroke="#63b8ff" d="M917.33,-80C931.73,-80 946.5,-80 959.87,-80"/>
<polygon fill="#63b8ff" stroke="#63b8ff" points="960.26,-83.5 970.26,-80 960.26,-76.5 960.26,-83.5"/>
</a>
</g>
</g>
<!-- Node10 -->
<g id="Node000010" class="node">
<title>Node10</title>
<g id="a_Node000010"><a xlink:href="classLogger.html#a5789d11f8f1356e2192c0023a089cbc4" target="_top" xlink:title="Get singleton instance.">
<polygon fill="white" stroke="#666666" points="1067,-52.5 953,-52.5 953,-33.5 1067,-33.5 1067,-52.5"/>
<text text-anchor="middle" x="1010" y="-40.5" font-family="Helvetica,sans-Serif" font-size="10.00">Logger::GetInstance</text>
</a>
</g>
</g>
<!-- Node5&#45;&gt;Node10 -->
<g id="edge9_Node000005_Node000010" class="edge">
<title>Node5&#45;&gt;Node10</title>
<g id="a_edge9_Node000005_Node000010"><a xlink:title=" ">
<path fill="none" stroke="#63b8ff" d="M886.49,-70.47C907.87,-65.68 933.97,-59.82 956.58,-54.75"/>
<polygon fill="#63b8ff" stroke="#63b8ff" points="957.37,-58.16 966.37,-52.56 955.84,-51.33 957.37,-58.16"/>
</a>
</g>
</g>
<!-- Node11 -->
<g id="Node000011" class="node">
<title>Node11</title>
<g id="a_Node000011"><a xlink:href="classLogger.html#a4681229c521795685fc14f6b55c82300" target="_top" xlink:title="Log info message.">
<polygon fill="white" stroke="#666666" points="1047,-126.5 973,-126.5 973,-107.5 1047,-107.5 1047,-126.5"/>
<text text-anchor="middle" x="1010" y="-114.5" font-family="Helvetica,sans-Serif" font-size="10.00">Logger::Info</text>
</a>
</g>
</g>
<!-- Node5&#45;&gt;Node11 -->
<g id="edge10_Node000005_Node000011" class="edge">
<title>Node5&#45;&gt;Node11</title>
<g id="a_edge10_Node000005_Node000011"><a xlink:title=" ">
<path fill="none" stroke="#63b8ff" d="M886.49,-89.53C909.89,-94.77 938.94,-101.29 962.89,-106.66"/>
<polygon fill="#63b8ff" stroke="#63b8ff" points="962.28,-110.11 972.8,-108.88 963.81,-103.28 962.28,-110.11"/>
</a>
</g>
</g>
<!-- Node7 -->
<g id="Node000007" class="node">
<title>Node7</title>
<g id="a_Node000007"><a xlink:href="classLogger.html#af9e84e0ff6bd538e4f9ed8dcebc3e2f0" target="_top" xlink:title="Check if log level is enabled for tag.">
<polygon fill="white" stroke="#666666" points="1232,-126.5 1103,-126.5 1103,-107.5 1232,-107.5 1232,-126.5"/>
<text text-anchor="middle" x="1167.5" y="-114.5" font-family="Helvetica,sans-Serif" font-size="10.00">Logger::IsLevelEnabled</text>
</a>
</g>
</g>
<!-- Node6&#45;&gt;Node7 -->
<g id="edge6_Node000006_Node000007" class="edge">
<title>Node6&#45;&gt;Node7</title>
<g id="a_edge6_Node000006_Node000007"><a xlink:title=" ">
<path fill="none" stroke="#63b8ff" d="M1049.84,-89.24C1070.03,-94.05 1094.94,-99.97 1116.55,-105.11"/>
<polygon fill="#63b8ff" stroke="#63b8ff" points="1116,-108.58 1126.53,-107.49 1117.62,-101.77 1116,-108.58"/>
</a>
</g>
</g>
<!-- Node8 -->
<g id="Node000008" class="node">
<title>Node8</title>
<g id="a_Node000008"><a xlink:href="classLogger.html#a6adb205db597526fb91ad20067400394" target="_top" xlink:title="Internal logging method.">
<polygon fill="white" stroke="#666666" points="1222.5,-89.5 1112.5,-89.5 1112.5,-70.5 1222.5,-70.5 1222.5,-89.5"/>
<text text-anchor="middle" x="1167.5" y="-77.5" font-family="Helvetica,sans-Serif" font-size="10.00">Logger::LogInternal</text>
</a>
</g>
</g>
<!-- Node6&#45;&gt;Node8 -->
<g id="edge7_Node000006_Node000008" class="edge">
<title>Node6&#45;&gt;Node8</title>
<g id="a_edge7_Node000006_Node000008"><a xlink:title=" ">
<path fill="none" stroke="#63b8ff" d="M1049.84,-80C1065.63,-80 1084.31,-80 1102.03,-80"/>
<polygon fill="#63b8ff" stroke="#63b8ff" points="1102.33,-83.5 1112.33,-80 1102.33,-76.5 1102.33,-83.5"/>
</a>
</g>
</g>
<!-- Node9 -->
<g id="Node000009" class="node">
<title>Node9</title>
<g id="a_Node000009"><a xlink:href="namespaceanonymous__namespace_02Logger_8cpp_03.html#a9d2b496fa1b4f4e28667d14e4b8cb190" target="_top" xlink:title=" ">
<polygon fill="white" stroke="#666666" points="1420,-95 1268,-95 1268,-65 1420,-65 1420,-95"/>
<text text-anchor="start" x="1276" y="-83" font-family="Helvetica,sans-Serif" font-size="10.00">anonymous_namespace</text>
<text text-anchor="middle" x="1344" y="-72" font-family="Helvetica,sans-Serif" font-size="10.00">{Logger::cpp}::ToBaseLevel</text>
</a>
</g>
</g>
<!-- Node8&#45;&gt;Node9 -->
<g id="edge8_Node000008_Node000009" class="edge">
<title>Node8&#45;&gt;Node9</title>
<g id="a_edge8_Node000008_Node000009"><a xlink:title=" ">
<path fill="none" stroke="#63b8ff" d="M1222.76,-80C1233.93,-80 1245.96,-80 1257.93,-80"/>
<polygon fill="#63b8ff" stroke="#63b8ff" points="1257.95,-83.5 1267.95,-80 1257.95,-76.5 1257.95,-83.5"/>
</a>
</g>
</g>
<!-- Node11&#45;&gt;Node7 -->
<g id="edge11_Node000011_Node000007" class="edge">
<title>Node11&#45;&gt;Node7</title>
<g id="a_edge11_Node000011_Node000007"><a xlink:title=" ">
<path fill="none" stroke="#63b8ff" d="M1047.07,-117C1060.68,-117 1076.72,-117 1092.55,-117"/>
<polygon fill="#63b8ff" stroke="#63b8ff" points="1092.89,-120.5 1102.89,-117 1092.89,-113.5 1092.89,-120.5"/>
</a>
</g>
</g>
<!-- Node11&#45;&gt;Node8 -->
<g id="edge12_Node000011_Node000008" class="edge">
<title>Node11&#45;&gt;Node8</title>
<g id="a_edge12_Node000011_Node000008"><a xlink:title=" ">
<path fill="none" stroke="#63b8ff" d="M1047.07,-108.42C1067.78,-103.49 1094.09,-97.23 1116.74,-91.84"/>
<polygon fill="#63b8ff" stroke="#63b8ff" points="1117.61,-95.23 1126.53,-89.51 1115.99,-88.42 1117.61,-95.23"/>
</a>
</g>
</g>
</g>
</svg>
