<?xml version="1.0" encoding="UTF-8" standalone="no"?>
<!DOCTYPE svg PUBLIC "-//W3C//DTD SVG 1.1//EN"
 "http://www.w3.org/Graphics/SVG/1.1/DTD/svg11.dtd">
<!-- Generated by graphviz version 2.43.0 (0)
 -->
<!-- Title: Logger::Error Pages: 1 -->
<svg width="955pt" height="931pt"
 viewBox="0.00 0.00 955.00 931.00" xmlns="http://www.w3.org/2000/svg" xmlns:xlink="http://www.w3.org/1999/xlink">
<g id="graph0" class="graph" transform="scale(1 1) rotate(0) translate(4 927)">
<title>Logger::Error</title>
<!-- Node1 -->
<g id="Node000001" class="node">
<title>Node1</title>
<g id="a_Node000001"><a xlink:title="Log error message.">
<polygon fill="#999999" stroke="#666666" points="947,-305.5 868,-305.5 868,-286.5 947,-286.5 947,-305.5"/>
<text text-anchor="middle" x="907.5" y="-293.5" font-family="Helvetica,sans-Serif" font-size="10.00">Logger::Error</text>
</a>
</g>
</g>
<!-- Node2 -->
<g id="Node000002" class="node">
<title>Node2</title>
<g id="a_Node000002"><a xlink:href="classMax22200Handler.html#aa00edacb247660349767fa4521121104" target="_top" xlink:title=" ">
<polygon fill="white" stroke="#666666" points="629,-598 436,-598 436,-568 629,-568 629,-598"/>
<text text-anchor="start" x="444" y="-586" font-family="Helvetica,sans-Serif" font-size="10.00">Max22200Handler::EnsureInitialized</text>
<text text-anchor="middle" x="532.5" y="-575" font-family="Helvetica,sans-Serif" font-size="10.00">Locked</text>
</a>
</g>
</g>
<!-- Node1&#45;&gt;Node2 -->
<g id="edge1_Node000001_Node000002" class="edge">
<title>Node1&#45;&gt;Node2</title>
<g id="a_edge1_Node000001_Node000002"><a xlink:title=" ">
<path fill="none" stroke="#63b8ff" d="M903.85,-315.79C895.93,-371.62 870.6,-528.38 832,-560 767.77,-612.62 667.46,-608.52 601.12,-598"/>
<polygon fill="#63b8ff" stroke="#63b8ff" points="907.33,-316.14 905.23,-305.76 900.4,-315.19 907.33,-316.14"/>
</a>
</g>
</g>
<!-- Node12 -->
<g id="Node000012" class="node">
<title>Node12</title>
<g id="a_Node000012"><a xlink:href="classTle92466edHandler.html#a59ce7fd71a61c78bba4dc4a43c99e280" target="_top" xlink:title=" ">
<polygon fill="white" stroke="#666666" points="598,-455 467,-455 467,-425 598,-425 598,-455"/>
<text text-anchor="start" x="475" y="-443" font-family="Helvetica,sans-Serif" font-size="10.00">Tle92466edHandler::</text>
<text text-anchor="middle" x="532.5" y="-432" font-family="Helvetica,sans-Serif" font-size="10.00">EnsureInitializedLocked</text>
</a>
</g>
</g>
<!-- Node1&#45;&gt;Node12 -->
<g id="edge11_Node000001_Node000012" class="edge">
<title>Node1&#45;&gt;Node12</title>
<g id="a_edge11_Node000001_Node000012"><a xlink:title=" ">
<path fill="none" stroke="#63b8ff" d="M895.84,-314.38C883.24,-334.35 860.36,-365.59 832,-382 812.01,-393.56 679.86,-416.42 598.24,-429.73"/>
<polygon fill="#63b8ff" stroke="#63b8ff" points="898.98,-315.96 901.18,-305.59 893,-312.32 898.98,-315.96"/>
</a>
</g>
</g>
<!-- Node27 -->
<g id="Node000027" class="node">
<title>Node27</title>
<g id="a_Node000027"><a xlink:href="classHalSpiMax22200Comm.html#afa72d731643fff15ec9f448e62401b43" target="_top" xlink:title=" ">
<polygon fill="white" stroke="#666666" points="814,-507 683,-507 683,-477 814,-477 814,-507"/>
<text text-anchor="start" x="691" y="-495" font-family="Helvetica,sans-Serif" font-size="10.00">HalSpiMax22200Comm</text>
<text text-anchor="middle" x="748.5" y="-484" font-family="Helvetica,sans-Serif" font-size="10.00">::GpioSet</text>
</a>
</g>
</g>
<!-- Node1&#45;&gt;Node27 -->
<g id="edge26_Node000001_Node000027" class="edge">
<title>Node1&#45;&gt;Node27</title>
<g id="a_edge26_Node000001_Node000027"><a xlink:title=" ">
<path fill="none" stroke="#63b8ff" d="M903.49,-316.03C897.03,-351.86 878.48,-427.03 832,-468 826.74,-472.64 820.63,-476.38 814.16,-479.4"/>
<polygon fill="#63b8ff" stroke="#63b8ff" points="906.99,-316.31 905.18,-305.87 900.08,-315.16 906.99,-316.31"/>
</a>
</g>
</g>
<!-- Node28 -->
<g id="Node000028" class="node">
<title>Node28</title>
<g id="a_Node000028"><a xlink:href="classMax22200Handler.html#a0dce05cd6639a10e52c0f669b72baf52" target="_top" xlink:title="Initialize driver (ENABLE HIGH, read/clear STATUS, set ACTIVE).">
<polygon fill="white" stroke="#666666" points="825.5,-550.5 671.5,-550.5 671.5,-531.5 825.5,-531.5 825.5,-550.5"/>
<text text-anchor="middle" x="748.5" y="-538.5" font-family="Helvetica,sans-Serif" font-size="10.00">Max22200Handler::Initialize</text>
</a>
</g>
</g>
<!-- Node1&#45;&gt;Node28 -->
<g id="edge27_Node000001_Node000028" class="edge">
<title>Node1&#45;&gt;Node28</title>
<g id="a_edge27_Node000001_Node000028"><a xlink:title=" ">
<path fill="none" stroke="#63b8ff" d="M905.63,-315.71C902.66,-358.43 889.59,-460.24 832,-516 824.9,-522.87 815.98,-527.86 806.65,-531.48"/>
<polygon fill="#63b8ff" stroke="#63b8ff" points="909.13,-315.71 906.22,-305.52 902.15,-315.31 909.13,-315.71"/>
</a>
</g>
</g>
<!-- Node29 -->
<g id="Node000029" class="node">
<title>Node29</title>
<g id="a_Node000029"><a xlink:href="classTle92466edHandler.html#ac607f9cf2453e8d1849b40d2dd8e8474" target="_top" xlink:title="Initialize driver (hardware reset + SPI init + enter config mode).">
<polygon fill="white" stroke="#666666" points="807.5,-459 689.5,-459 689.5,-429 807.5,-429 807.5,-459"/>
<text text-anchor="start" x="697.5" y="-447" font-family="Helvetica,sans-Serif" font-size="10.00">Tle92466edHandler::</text>
<text text-anchor="middle" x="748.5" y="-436" font-family="Helvetica,sans-Serif" font-size="10.00">Initialize</text>
</a>
</g>
</g>
<!-- Node1&#45;&gt;Node29 -->
<g id="edge29_Node000001_Node000029" class="edge">
<title>Node1&#45;&gt;Node29</title>
<g id="a_edge29_Node000001_Node000029"><a xlink:title=" ">
<path fill="none" stroke="#63b8ff" d="M899.32,-315.06C888.54,-341.2 865.79,-387.97 832,-415 824.77,-420.79 816.3,-425.46 807.59,-429.23"/>
<polygon fill="#63b8ff" stroke="#63b8ff" points="902.66,-316.13 903.09,-305.55 896.15,-313.56 902.66,-316.13"/>
</a>
</g>
</g>
<!-- Node30 -->
<g id="Node000030" class="node">
<title>Node30</title>
<g id="a_Node000030"><a xlink:href="classWs2812Handler.html#acce4955435f295ba4853b6239090982f" target="_top" xlink:title="Initialize the RMT channel and LED strip.">
<polygon fill="white" stroke="#666666" points="819.5,-372.5 677.5,-372.5 677.5,-353.5 819.5,-353.5 819.5,-372.5"/>
<text text-anchor="middle" x="748.5" y="-360.5" font-family="Helvetica,sans-Serif" font-size="10.00">Ws2812Handler::Initialize</text>
</a>
</g>
</g>
<!-- Node1&#45;&gt;Node30 -->
<g id="edge31_Node000001_Node000030" class="edge">
<title>Node1&#45;&gt;Node30</title>
<g id="a_edge31_Node000001_Node000030"><a xlink:title=" ">
<path fill="none" stroke="#63b8ff" d="M886.43,-311.67C872.01,-322.22 851.72,-335.68 832,-344 822.93,-347.83 812.95,-350.96 803.17,-353.48"/>
<polygon fill="#63b8ff" stroke="#63b8ff" points="888.69,-314.35 894.58,-305.55 884.49,-308.76 888.69,-314.35"/>
</a>
</g>
</g>
<!-- Node38 -->
<g id="Node000038" class="node">
<title>Node38</title>
<g id="a_Node000038"><a xlink:href="classNtcTemperatureHandler.html#a97fa93b2ed6337e24e056b46fbe331c7" target="_top" xlink:title=" ">
<polygon fill="white" stroke="#666666" points="815,-335 682,-335 682,-305 815,-305 815,-335"/>
<text text-anchor="start" x="690" y="-323" font-family="Helvetica,sans-Serif" font-size="10.00">NtcTemperatureHandler</text>
<text text-anchor="middle" x="748.5" y="-312" font-family="Helvetica,sans-Serif" font-size="10.00">::Initialize</text>
</a>
</g>
</g>
<!-- Node1&#45;&gt;Node38 -->
<g id="edge37_Node000001_Node000038" class="edge">
<title>Node1&#45;&gt;Node38</title>
<g id="a_edge37_Node000001_Node000038"><a xlink:title=" ">
<path fill="none" stroke="#63b8ff" d="M857.68,-303.46C844.19,-305.53 829.33,-307.8 815.05,-309.98"/>
<polygon fill="#63b8ff" stroke="#63b8ff" points="858.33,-306.9 867.69,-301.93 857.28,-299.98 858.33,-306.9"/>
</a>
</g>
</g>
<!-- Node39 -->
<g id="Node000039" class="node">
<title>Node39</title>
<g id="a_Node000039"><a xlink:href="classTmc9660Handler_1_1Temperature.html#a8019acd874c13ba0e175224a367bf370" target="_top" xlink:title="Initialize (verifies parent driver is ready).">
<polygon fill="white" stroke="#666666" points="832,-287 665,-287 665,-257 832,-257 832,-287"/>
<text text-anchor="start" x="673" y="-275" font-family="Helvetica,sans-Serif" font-size="10.00">Tmc9660Handler::Temperature</text>
<text text-anchor="middle" x="748.5" y="-264" font-family="Helvetica,sans-Serif" font-size="10.00">::Initialize</text>
</a>
</g>
</g>
<!-- Node1&#45;&gt;Node39 -->
<g id="edge38_Node000001_Node000039" class="edge">
<title>Node1&#45;&gt;Node39</title>
<g id="a_edge38_Node000001_Node000039"><a xlink:title=" ">
<path fill="none" stroke="#63b8ff" d="M857.65,-288.53C849.49,-287.29 840.83,-285.96 832.09,-284.63"/>
<polygon fill="#63b8ff" stroke="#63b8ff" points="857.28,-292.02 867.69,-290.07 858.33,-285.1 857.28,-292.02"/>
</a>
</g>
</g>
<!-- Node40 -->
<g id="Node000040" class="node">
<title>Node40</title>
<g id="a_Node000040"><a xlink:href="classTmc9660Handler.html#adc564847f8ae26c47412aaee0758991c" target="_top" xlink:title="Initialize the TMC9660 device.">
<polygon fill="white" stroke="#666666" points="822.5,-238.5 674.5,-238.5 674.5,-219.5 822.5,-219.5 822.5,-238.5"/>
<text text-anchor="middle" x="748.5" y="-226.5" font-family="Helvetica,sans-Serif" font-size="10.00">Tmc9660Handler::Initialize</text>
</a>
</g>
</g>
<!-- Node1&#45;&gt;Node40 -->
<g id="edge39_Node000001_Node000040" class="edge">
<title>Node1&#45;&gt;Node40</title>
<g id="a_edge39_Node000001_Node000040"><a xlink:title=" ">
<path fill="none" stroke="#63b8ff" d="M886.43,-280.33C872.01,-269.78 851.72,-256.32 832,-248 822.93,-244.17 812.95,-241.04 803.17,-238.52"/>
<polygon fill="#63b8ff" stroke="#63b8ff" points="884.49,-283.24 894.58,-286.45 888.69,-277.65 884.49,-283.24"/>
</a>
</g>
</g>
<!-- Node94 -->
<g id="Node000094" class="node">
<title>Node94</title>
<g id="a_Node000094"><a xlink:href="classMax22200Handler.html#aca940fd8213ecb633bafb7c3e143a361" target="_top" xlink:title="Initialize with board configuration.">
<polygon fill="white" stroke="#666666" points="825.5,-201.5 671.5,-201.5 671.5,-182.5 825.5,-182.5 825.5,-201.5"/>
<text text-anchor="middle" x="748.5" y="-189.5" font-family="Helvetica,sans-Serif" font-size="10.00">Max22200Handler::Initialize</text>
</a>
</g>
</g>
<!-- Node1&#45;&gt;Node94 -->
<g id="edge46_Node000001_Node000094" class="edge">
<title>Node1&#45;&gt;Node94</title>
<g id="a_edge46_Node000001_Node000094"><a xlink:title=" ">
<path fill="none" stroke="#63b8ff" d="M895.49,-277.71C882.71,-258.12 859.79,-227.61 832,-211 825.57,-207.15 818.42,-204.09 811.1,-201.64"/>
<polygon fill="#63b8ff" stroke="#63b8ff" points="892.63,-279.75 900.92,-286.34 898.56,-276.02 892.63,-279.75"/>
</a>
</g>
</g>
<!-- Node95 -->
<g id="Node000095" class="node">
<title>Node95</title>
<g id="a_Node000095"><a xlink:href="classTle92466edHandler.html#a2f01dd08b168f009db41d658db3484eb" target="_top" xlink:title="Initialize with global configuration.">
<polygon fill="white" stroke="#666666" points="807.5,-164 689.5,-164 689.5,-134 807.5,-134 807.5,-164"/>
<text text-anchor="start" x="697.5" y="-152" font-family="Helvetica,sans-Serif" font-size="10.00">Tle92466edHandler::</text>
<text text-anchor="middle" x="748.5" y="-141" font-family="Helvetica,sans-Serif" font-size="10.00">Initialize</text>
</a>
</g>
</g>
<!-- Node1&#45;&gt;Node95 -->
<g id="edge47_Node000001_Node000095" class="edge">
<title>Node1&#45;&gt;Node95</title>
<g id="a_edge47_Node000001_Node000095"><a xlink:title=" ">
<path fill="none" stroke="#63b8ff" d="M899.91,-277C889.61,-250.11 867.18,-201.21 832,-174 824.78,-168.41 816.32,-164.07 807.61,-160.7"/>
<polygon fill="#63b8ff" stroke="#63b8ff" points="896.64,-278.26 903.37,-286.44 903.21,-275.85 896.64,-278.26"/>
</a>
</g>
</g>
<!-- Node96 -->
<g id="Node000096" class="node">
<title>Node96</title>
<g id="a_Node000096"><a xlink:href="classTmc5160Handler.html#a44ab36857e4e43062f81f7d6f10eab09" target="_top" xlink:title="Initialize the TMC5160 driver with full configuration.">
<polygon fill="white" stroke="#666666" points="822.5,-115.5 674.5,-115.5 674.5,-96.5 822.5,-96.5 822.5,-115.5"/>
<text text-anchor="middle" x="748.5" y="-103.5" font-family="Helvetica,sans-Serif" font-size="10.00">Tmc5160Handler::Initialize</text>
</a>
</g>
</g>
<!-- Node1&#45;&gt;Node96 -->
<g id="edge48_Node000001_Node000096" class="edge">
<title>Node1&#45;&gt;Node96</title>
<g id="a_edge48_Node000001_Node000096"><a xlink:title=" ">
<path fill="none" stroke="#63b8ff" d="M903.76,-276.34C897.69,-240.49 879.65,-164.58 832,-125 827.36,-121.15 822.1,-118.05 816.52,-115.55"/>
<polygon fill="#63b8ff" stroke="#63b8ff" points="900.34,-277.12 905.33,-286.47 907.26,-276.05 900.34,-277.12"/>
</a>
</g>
</g>
<!-- Node75 -->
<g id="Node000075" class="node">
<title>Node75</title>
<g id="a_Node000075"><a xlink:href="classTmc9660Handler_1_1Temperature.html#a5ebc77b2122ba4473b74a4a0fc78ff09" target="_top" xlink:title="Read the chip temperature in degrees Celsius.">
<polygon fill="white" stroke="#666666" points="832,-78 665,-78 665,-48 832,-48 832,-78"/>
<text text-anchor="start" x="673" y="-66" font-family="Helvetica,sans-Serif" font-size="10.00">Tmc9660Handler::Temperature</text>
<text text-anchor="middle" x="748.5" y="-55" font-family="Helvetica,sans-Serif" font-size="10.00">::ReadTemperatureCelsiusImpl</text>
</a>
</g>
</g>
<!-- Node1&#45;&gt;Node75 -->
<g id="edge50_Node000001_Node000075" class="edge">
<title>Node1&#45;&gt;Node75</title>
<g id="a_edge50_Node000001_Node000075"><a xlink:title=" ">
<path fill="none" stroke="#63b8ff" d="M905.28,-276.38C901.64,-235.18 887.35,-139.16 832,-87 828.42,-83.62 824.39,-80.72 820.09,-78.22"/>
<polygon fill="#63b8ff" stroke="#63b8ff" points="901.8,-276.76 906.05,-286.47 908.78,-276.23 901.8,-276.76"/>
</a>
</g>
</g>
<!-- Node105 -->
<g id="Node000105" class="node">
<title>Node105</title>
<g id="a_Node000105"><a xlink:href="classNtcTemperatureHandler.html#aeabac754a1b923c79969657d69b97a72" target="_top" xlink:title=" ">
<polygon fill="white" stroke="#666666" points="825,-30 672,-30 672,0 825,0 825,-30"/>
<text text-anchor="start" x="680" y="-18" font-family="Helvetica,sans-Serif" font-size="10.00">NtcTemperatureHandler</text>
<text text-anchor="middle" x="748.5" y="-7" font-family="Helvetica,sans-Serif" font-size="10.00">::StartContinuousMonitoring</text>
</a>
</g>
</g>
<!-- Node1&#45;&gt;Node105 -->
<g id="edge51_Node000001_Node000105" class="edge">
<title>Node1&#45;&gt;Node105</title>
<g id="a_edge51_Node000001_Node000105"><a xlink:title=" ">
<path fill="none" stroke="#63b8ff" d="M906.81,-276.26C906.46,-228.52 898.73,-105.79 832,-39 828.63,-35.62 824.81,-32.72 820.71,-30.21"/>
<polygon fill="#63b8ff" stroke="#63b8ff" points="903.31,-276.46 906.78,-286.47 910.31,-276.48 903.31,-276.46"/>
</a>
</g>
</g>
<!-- Node3 -->
<g id="Node000003" class="node">
<title>Node3</title>
<g id="a_Node000003"><a xlink:href="classMax22200Handler.html#afd07a624dc736a1452c0f6190499adc0" target="_top" xlink:title="Dump diagnostics to logger.">
<polygon fill="white" stroke="#666666" points="400,-660.5 202,-660.5 202,-641.5 400,-641.5 400,-660.5"/>
<text text-anchor="middle" x="301" y="-648.5" font-family="Helvetica,sans-Serif" font-size="10.00">Max22200Handler::DumpDiagnostics</text>
</a>
</g>
</g>
<!-- Node2&#45;&gt;Node3 -->
<g id="edge2_Node000002_Node000003" class="edge">
<title>Node2&#45;&gt;Node3</title>
<g id="a_edge2_Node000002_Node000003"><a xlink:title=" ">
<path fill="none" stroke="#63b8ff" d="M487.88,-601.87C462.6,-612.23 429.93,-624.64 400,-633 388.34,-636.26 375.73,-639.08 363.56,-641.46"/>
<polygon fill="#63b8ff" stroke="#63b8ff" points="489.29,-605.08 497.19,-598.02 486.61,-598.61 489.29,-605.08"/>
</a>
</g>
</g>
<!-- Node4 -->
<g id="Node000004" class="node">
<title>Node4</title>
<g id="a_Node000004"><a xlink:href="classMax22200Handler.html#a803b60663755d7850857626b58efc084" target="_top" xlink:title="Ensure driver is initialized (lazy init entrypoint).">
<polygon fill="white" stroke="#666666" points="397.5,-623.5 204.5,-623.5 204.5,-604.5 397.5,-604.5 397.5,-623.5"/>
<text text-anchor="middle" x="301" y="-611.5" font-family="Helvetica,sans-Serif" font-size="10.00">Max22200Handler::EnsureInitialized</text>
</a>
</g>
</g>
<!-- Node2&#45;&gt;Node4 -->
<g id="edge3_Node000002_Node000004" class="edge">
<title>Node2&#45;&gt;Node4</title>
<g id="a_edge3_Node000002_Node000004"><a xlink:title=" ">
<path fill="none" stroke="#63b8ff" d="M425.8,-597.28C407.68,-599.73 389.25,-602.22 372.34,-604.5"/>
<polygon fill="#63b8ff" stroke="#63b8ff" points="426.39,-600.73 435.83,-595.92 425.45,-593.79 426.39,-600.73"/>
</a>
</g>
</g>
<!-- Node5 -->
<g id="Node000005" class="node">
<title>Node5</title>
<g id="a_Node000005"><a xlink:href="classMax22200Handler.html#a001e00b9d9a02611b51951f16bcb78d1" target="_top" xlink:title="Get the underlying driver for advanced operations.">
<polygon fill="white" stroke="#666666" points="380.5,-586.5 221.5,-586.5 221.5,-567.5 380.5,-567.5 380.5,-586.5"/>
<text text-anchor="middle" x="301" y="-574.5" font-family="Helvetica,sans-Serif" font-size="10.00">Max22200Handler::GetDriver</text>
</a>
</g>
</g>
<!-- Node2&#45;&gt;Node5 -->
<g id="edge4_Node000002_Node000005" class="edge">
<title>Node2&#45;&gt;Node5</title>
<g id="a_edge4_Node000002_Node000005"><a xlink:title=" ">
<path fill="none" stroke="#63b8ff" d="M425.47,-580.23C410.43,-579.83 395.19,-579.44 380.79,-579.06"/>
<polygon fill="#63b8ff" stroke="#63b8ff" points="425.75,-583.74 435.83,-580.5 425.93,-576.74 425.75,-583.74"/>
</a>
</g>
</g>
<!-- Node7 -->
<g id="Node000007" class="node">
<title>Node7</title>
<g id="a_Node000007"><a xlink:href="classMax22200Handler.html#abcdd9746a0df9c28bb36508d52d80ef5" target="_top" xlink:title="Execute a lambda with a locked, initialized driver.">
<polygon fill="white" stroke="#666666" points="382.5,-826.5 219.5,-826.5 219.5,-807.5 382.5,-807.5 382.5,-826.5"/>
<text text-anchor="middle" x="301" y="-814.5" font-family="Helvetica,sans-Serif" font-size="10.00">Max22200Handler::withDriver</text>
</a>
</g>
</g>
<!-- Node2&#45;&gt;Node7 -->
<g id="edge6_Node000002_Node000007" class="edge">
<title>Node2&#45;&gt;Node7</title>
<g id="a_edge6_Node000002_Node000007"><a xlink:title=" ">
<path fill="none" stroke="#63b8ff" d="M509.17,-605.76C460.21,-655.69 345.08,-773.07 311.41,-807.41"/>
<polygon fill="#63b8ff" stroke="#63b8ff" points="511.94,-607.94 516.44,-598.35 506.94,-603.04 511.94,-607.94"/>
</a>
</g>
</g>
<!-- Node6 -->
<g id="Node000006" class="node">
<title>Node6</title>
<g id="a_Node000006"><a xlink:href="classMax22200Handler.html#aee42537a3d2f0955a1479709b2d4b4b8" target="_top" xlink:title=" ">
<polygon fill="white" stroke="#666666" points="162.5,-752.5 3.5,-752.5 3.5,-733.5 162.5,-733.5 162.5,-752.5"/>
<text text-anchor="middle" x="83" y="-740.5" font-family="Helvetica,sans-Serif" font-size="10.00">Max22200Handler::GetDriver</text>
</a>
</g>
</g>
<!-- Node5&#45;&gt;Node6 -->
<g id="edge5_Node000005_Node000006" class="edge">
<title>Node5&#45;&gt;Node6</title>
<g id="a_edge5_Node000005_Node000006"><a xlink:title=" ">
<path fill="none" stroke="#63b8ff" d="M212.3,-588.39C208.62,-590.57 205.16,-593.09 202,-596 158.52,-636.02 208.75,-683.2 166,-724 161.98,-727.83 157.35,-730.95 152.38,-733.47"/>
<polygon fill="#63b8ff" stroke="#63b8ff" points="213.88,-591.51 221.23,-583.88 210.73,-585.26 213.88,-591.51"/>
</a>
</g>
</g>
<!-- Node8 -->
<g id="Node000008" class="node">
<title>Node8</title>
<g id="a_Node000008"><a xlink:href="classMax22200Handler.html#a963d65edae16cca4fd153b3af0c1e68e" target="_top" xlink:title="Clear all fault flags.">
<polygon fill="white" stroke="#666666" points="166,-789.5 0,-789.5 0,-770.5 166,-770.5 166,-789.5"/>
<text text-anchor="middle" x="83" y="-777.5" font-family="Helvetica,sans-Serif" font-size="10.00">Max22200Handler::ClearFaults</text>
</a>
</g>
</g>
<!-- Node7&#45;&gt;Node8 -->
<g id="edge7_Node000007_Node000008" class="edge">
<title>Node7&#45;&gt;Node8</title>
<g id="a_edge7_Node000007_Node000008"><a xlink:title=" ">
<path fill="none" stroke="#63b8ff" d="M234.35,-805.75C204.15,-800.58 168.7,-794.51 139.81,-789.56"/>
<polygon fill="#63b8ff" stroke="#63b8ff" points="233.93,-809.23 244.37,-807.47 235.11,-802.33 233.93,-809.23"/>
</a>
</g>
</g>
<!-- Node9 -->
<g id="Node000009" class="node">
<title>Node9</title>
<g id="a_Node000009"><a xlink:href="classMax22200Handler.html#a9e9684818c7efddd45697f28051cbca2" target="_top" xlink:title="Disable all channels.">
<polygon fill="white" stroke="#666666" points="157.5,-923 8.5,-923 8.5,-893 157.5,-893 157.5,-923"/>
<text text-anchor="start" x="16.5" y="-911" font-family="Helvetica,sans-Serif" font-size="10.00">Max22200Handler::Disable</text>
<text text-anchor="middle" x="83" y="-900" font-family="Helvetica,sans-Serif" font-size="10.00">AllChannels</text>
</a>
</g>
</g>
<!-- Node7&#45;&gt;Node9 -->
<g id="edge8_Node000007_Node000009" class="edge">
<title>Node7&#45;&gt;Node9</title>
<g id="a_edge8_Node000007_Node000009"><a xlink:title=" ">
<path fill="none" stroke="#63b8ff" d="M274.1,-831.7C247.56,-846.33 204.81,-868.76 166,-884 157.85,-887.2 149.11,-890.2 140.47,-892.92"/>
<polygon fill="#63b8ff" stroke="#63b8ff" points="276.07,-834.61 283.1,-826.68 272.66,-828.49 276.07,-834.61"/>
</a>
</g>
</g>
<!-- Node10 -->
<g id="Node000010" class="node">
<title>Node10</title>
<g id="a_Node000010"><a xlink:href="classMax22200Handler.html#af7aba4f68825068e774badca04c49a07" target="_top" xlink:title="Enable all channels.">
<polygon fill="white" stroke="#666666" points="162,-875 4,-875 4,-845 162,-845 162,-875"/>
<text text-anchor="start" x="12" y="-863" font-family="Helvetica,sans-Serif" font-size="10.00">Max22200Handler::EnableAll</text>
<text text-anchor="middle" x="83" y="-852" font-family="Helvetica,sans-Serif" font-size="10.00">Channels</text>
</a>
</g>
</g>
<!-- Node7&#45;&gt;Node10 -->
<g id="edge9_Node000007_Node000010" class="edge">
<title>Node7&#45;&gt;Node10</title>
<g id="a_edge9_Node000007_Node000010"><a xlink:title=" ">
<path fill="none" stroke="#63b8ff" d="M242.2,-828.51C216.77,-833.57 186.55,-839.58 159.38,-844.99"/>
<polygon fill="#63b8ff" stroke="#63b8ff" points="242.94,-831.93 252.06,-826.54 241.57,-825.06 242.94,-831.93"/>
</a>
</g>
</g>
<!-- Node11 -->
<g id="Node000011" class="node">
<title>Node11</title>
<g id="a_Node000011"><a xlink:href="classMax22200Handler.html#ac5b60b117fec404c55597929134fa1a1" target="_top" xlink:title="Check if any fault is present.">
<polygon fill="white" stroke="#666666" points="160,-826.5 6,-826.5 6,-807.5 160,-807.5 160,-826.5"/>
<text text-anchor="middle" x="83" y="-814.5" font-family="Helvetica,sans-Serif" font-size="10.00">Max22200Handler::HasFault</text>
</a>
</g>
</g>
<!-- Node7&#45;&gt;Node11 -->
<g id="edge10_Node000007_Node000011" class="edge">
<title>Node7&#45;&gt;Node11</title>
<g id="a_edge10_Node000007_Node000011"><a xlink:title=" ">
<path fill="none" stroke="#63b8ff" d="M209.22,-817C192.95,-817 176.16,-817 160.35,-817"/>
<polygon fill="#63b8ff" stroke="#63b8ff" points="209.26,-820.5 219.26,-817 209.26,-813.5 209.26,-820.5"/>
</a>
</g>
</g>
<!-- Node13 -->
<g id="Node000013" class="node">
<title>Node13</title>
<g id="a_Node000013"><a xlink:href="classTle92466edHandler.html#afcec01ba90f6596dcde99387ef41b6e4" target="_top" xlink:title="Dump diagnostics to logger.">
<polygon fill="white" stroke="#666666" points="360,-499 242,-499 242,-469 360,-469 360,-499"/>
<text text-anchor="start" x="250" y="-487" font-family="Helvetica,sans-Serif" font-size="10.00">Tle92466edHandler::</text>
<text text-anchor="middle" x="301" y="-476" font-family="Helvetica,sans-Serif" font-size="10.00">DumpDiagnostics</text>
</a>
</g>
</g>
<!-- Node12&#45;&gt;Node13 -->
<g id="edge12_Node000012_Node000013" class="edge">
<title>Node12&#45;&gt;Node13</title>
<g id="a_edge12_Node000012_Node000013"><a xlink:title=" ">
<path fill="none" stroke="#63b8ff" d="M456.94,-454.29C425.55,-460.31 389.57,-467.21 360.18,-472.85"/>
<polygon fill="#63b8ff" stroke="#63b8ff" points="457.8,-457.69 466.96,-452.37 456.48,-450.82 457.8,-457.69"/>
</a>
</g>
</g>
<!-- Node14 -->
<g id="Node000014" class="node">
<title>Node14</title>
<g id="a_Node000014"><a xlink:href="classTle92466edHandler.html#a1a976346516812f7125cdeb2f3aeb327" target="_top" xlink:title="Ensure driver is initialized (lazy init entrypoint).">
<polygon fill="white" stroke="#666666" points="360,-451 242,-451 242,-421 360,-421 360,-451"/>
<text text-anchor="start" x="250" y="-439" font-family="Helvetica,sans-Serif" font-size="10.00">Tle92466edHandler::</text>
<text text-anchor="middle" x="301" y="-428" font-family="Helvetica,sans-Serif" font-size="10.00">EnsureInitialized</text>
</a>
</g>
</g>
<!-- Node12&#45;&gt;Node14 -->
<g id="edge13_Node000012_Node000014" class="edge">
<title>Node12&#45;&gt;Node14</title>
<g id="a_edge13_Node000012_Node000014"><a xlink:title=" ">
<path fill="none" stroke="#63b8ff" d="M456.94,-438.7C425.55,-438.15 389.57,-437.53 360.18,-437.01"/>
<polygon fill="#63b8ff" stroke="#63b8ff" points="456.9,-442.2 466.96,-438.88 457.02,-435.2 456.9,-442.2"/>
</a>
</g>
</g>
<!-- Node15 -->
<g id="Node000015" class="node">
<title>Node15</title>
<g id="a_Node000015"><a xlink:href="classTle92466edHandler.html#ae83bbf85e50d68c8adcc2160bdaed271" target="_top" xlink:title="Get the underlying driver for advanced operations.">
<polygon fill="white" stroke="#666666" points="360,-403 242,-403 242,-373 360,-373 360,-403"/>
<text text-anchor="start" x="250" y="-391" font-family="Helvetica,sans-Serif" font-size="10.00">Tle92466edHandler::</text>
<text text-anchor="middle" x="301" y="-380" font-family="Helvetica,sans-Serif" font-size="10.00">GetDriver</text>
</a>
</g>
</g>
<!-- Node12&#45;&gt;Node15 -->
<g id="edge14_Node000012_Node000015" class="edge">
<title>Node12&#45;&gt;Node15</title>
<g id="a_edge14_Node000012_Node000015"><a xlink:title=" ">
<path fill="none" stroke="#63b8ff" d="M456.94,-423.11C425.55,-415.99 389.57,-407.84 360.18,-401.18"/>
<polygon fill="#63b8ff" stroke="#63b8ff" points="456.43,-426.58 466.96,-425.38 457.98,-419.75 456.43,-426.58"/>
</a>
</g>
</g>
<!-- Node17 -->
<g id="Node000017" class="node">
<title>Node17</title>
<g id="a_Node000017"><a xlink:href="classTle92466edHandler.html#aef42f3c7c1b1ef51b27eb8d178aca6bc" target="_top" xlink:title="Execute a lambda with a locked, initialized driver.">
<polygon fill="white" stroke="#666666" points="360,-547 242,-547 242,-517 360,-517 360,-547"/>
<text text-anchor="start" x="250" y="-535" font-family="Helvetica,sans-Serif" font-size="10.00">Tle92466edHandler::</text>
<text text-anchor="middle" x="301" y="-524" font-family="Helvetica,sans-Serif" font-size="10.00">withDriver</text>
</a>
</g>
</g>
<!-- Node12&#45;&gt;Node17 -->
<g id="edge16_Node000012_Node000017" class="edge">
<title>Node12&#45;&gt;Node17</title>
<g id="a_edge16_Node000012_Node000017"><a xlink:title=" ">
<path fill="none" stroke="#63b8ff" d="M497.92,-460.19C471.94,-475.11 434.66,-495.01 400,-508 387.37,-512.74 373.47,-516.79 360.21,-520.15"/>
<polygon fill="#63b8ff" stroke="#63b8ff" points="499.73,-463.19 506.62,-455.14 496.22,-457.14 499.73,-463.19"/>
</a>
</g>
</g>
<!-- Node16 -->
<g id="Node000016" class="node">
<title>Node16</title>
<g id="a_Node000016"><a xlink:href="classTle92466edHandler.html#a56ebe6e509ccd1b6b865728ba14d2533" target="_top" xlink:title=" ">
<polygon fill="white" stroke="#666666" points="142,-283 24,-283 24,-253 142,-253 142,-283"/>
<text text-anchor="start" x="32" y="-271" font-family="Helvetica,sans-Serif" font-size="10.00">Tle92466edHandler::</text>
<text text-anchor="middle" x="83" y="-260" font-family="Helvetica,sans-Serif" font-size="10.00">GetDriver</text>
</a>
</g>
</g>
<!-- Node15&#45;&gt;Node16 -->
<g id="edge15_Node000015_Node000016" class="edge">
<title>Node15&#45;&gt;Node16</title>
<g id="a_edge15_Node000015_Node000016"><a xlink:title=" ">
<path fill="none" stroke="#63b8ff" d="M231.87,-379.48C221.12,-375.92 210.7,-370.94 202,-364 174.04,-341.68 193.46,-314.94 166,-292 159.06,-286.2 150.77,-281.8 142.16,-278.46"/>
<polygon fill="#63b8ff" stroke="#63b8ff" points="231.21,-382.93 241.79,-382.36 233.17,-376.21 231.21,-382.93"/>
</a>
</g>
</g>
<!-- Node18 -->
<g id="Node000018" class="node">
<title>Node18</title>
<g id="a_Node000018"><a xlink:href="classTle92466edHandler.html#ab3123678e6df690f5669fd89079e0a4e" target="_top" xlink:title="Clear all fault flags.">
<polygon fill="white" stroke="#666666" points="142,-427 24,-427 24,-397 142,-397 142,-427"/>
<text text-anchor="start" x="32" y="-415" font-family="Helvetica,sans-Serif" font-size="10.00">Tle92466edHandler::</text>
<text text-anchor="middle" x="83" y="-404" font-family="Helvetica,sans-Serif" font-size="10.00">ClearFaults</text>
</a>
</g>
</g>
<!-- Node17&#45;&gt;Node18 -->
<g id="edge17_Node000017_Node000018" class="edge">
<title>Node17&#45;&gt;Node18</title>
<g id="a_edge17_Node000017_Node000018"><a xlink:title=" ">
<path fill="none" stroke="#63b8ff" d="M231.87,-523.48C221.12,-519.92 210.7,-514.94 202,-508 174.04,-485.68 193.46,-458.94 166,-436 159.06,-430.2 150.77,-425.8 142.16,-422.46"/>
<polygon fill="#63b8ff" stroke="#63b8ff" points="231.21,-526.93 241.79,-526.36 233.17,-520.21 231.21,-526.93"/>
</a>
</g>
</g>
<!-- Node19 -->
<g id="Node000019" class="node">
<title>Node19</title>
<g id="a_Node000019"><a xlink:href="classTle92466edHandler.html#ac37cbbcce53c7a55657ee61cd5015190" target="_top" xlink:title="Disable all channels.">
<polygon fill="white" stroke="#666666" points="142,-379 24,-379 24,-349 142,-349 142,-379"/>
<text text-anchor="start" x="32" y="-367" font-family="Helvetica,sans-Serif" font-size="10.00">Tle92466edHandler::</text>
<text text-anchor="middle" x="83" y="-356" font-family="Helvetica,sans-Serif" font-size="10.00">DisableAllChannels</text>
</a>
</g>
</g>
<!-- Node17&#45;&gt;Node19 -->
<g id="edge18_Node000017_Node000019" class="edge">
<title>Node17&#45;&gt;Node19</title>
<g id="a_edge18_Node000017_Node000019"><a xlink:title=" ">
<path fill="none" stroke="#63b8ff" d="M232.1,-525.14C221,-521.44 210.4,-515.98 202,-508 161.63,-469.65 205.51,-427.24 166,-388 159.37,-381.41 151.04,-376.62 142.24,-373.13"/>
<polygon fill="#63b8ff" stroke="#63b8ff" points="231.36,-528.57 241.94,-527.97 233.3,-521.85 231.36,-528.57"/>
</a>
</g>
</g>
<!-- Node20 -->
<g id="Node000020" class="node">
<title>Node20</title>
<g id="a_Node000020"><a xlink:href="classTle92466edHandler.html#a1ee30771436827a1499a379aa7e5ab49" target="_top" xlink:title="Enable all channels.">
<polygon fill="white" stroke="#666666" points="142,-331 24,-331 24,-301 142,-301 142,-331"/>
<text text-anchor="start" x="32" y="-319" font-family="Helvetica,sans-Serif" font-size="10.00">Tle92466edHandler::</text>
<text text-anchor="middle" x="83" y="-308" font-family="Helvetica,sans-Serif" font-size="10.00">EnableAllChannels</text>
</a>
</g>
</g>
<!-- Node17&#45;&gt;Node20 -->
<g id="edge19_Node000017_Node000020" class="edge">
<title>Node17&#45;&gt;Node20</title>
<g id="a_edge19_Node000017_Node000020"><a xlink:title=" ">
<path fill="none" stroke="#63b8ff" d="M231.95,-525.82C220.76,-522.06 210.17,-516.41 202,-508 148.79,-453.22 217.97,-395.95 166,-340 159.54,-333.04 151.18,-328.07 142.28,-324.51"/>
<polygon fill="#63b8ff" stroke="#63b8ff" points="231.31,-529.28 241.89,-528.66 233.24,-522.55 231.31,-529.28"/>
</a>
</g>
</g>
<!-- Node21 -->
<g id="Node000021" class="node">
<title>Node21</title>
<g id="a_Node000021"><a xlink:href="classTle92466edHandler.html#a19b966bb109b988eb98d319b76908667" target="_top" xlink:title="Enter config mode (for register writes).">
<polygon fill="white" stroke="#666666" points="142,-715 24,-715 24,-685 142,-685 142,-715"/>
<text text-anchor="start" x="32" y="-703" font-family="Helvetica,sans-Serif" font-size="10.00">Tle92466edHandler::</text>
<text text-anchor="middle" x="83" y="-692" font-family="Helvetica,sans-Serif" font-size="10.00">EnterConfigMode</text>
</a>
</g>
</g>
<!-- Node17&#45;&gt;Node21 -->
<g id="edge20_Node000017_Node000021" class="edge">
<title>Node17&#45;&gt;Node21</title>
<g id="a_edge20_Node000017_Node000021"><a xlink:title=" ">
<path fill="none" stroke="#63b8ff" d="M232.06,-541.11C220.96,-545.14 210.37,-550.87 202,-559 162.96,-596.9 204.73,-637.79 166,-676 159.35,-682.56 151,-687.35 142.2,-690.83"/>
<polygon fill="#63b8ff" stroke="#63b8ff" points="233.43,-544.35 241.9,-537.99 231.31,-537.68 233.43,-544.35"/>
</a>
</g>
</g>
<!-- Node22 -->
<g id="Node000022" class="node">
<title>Node22</title>
<g id="a_Node000022"><a xlink:href="classTle92466edHandler.html#aee10ff4c219a042d260a6b1f58a9219a" target="_top" xlink:title="Enter mission mode (enable outputs after configuration).">
<polygon fill="white" stroke="#666666" points="142,-667 24,-667 24,-637 142,-637 142,-667"/>
<text text-anchor="start" x="32" y="-655" font-family="Helvetica,sans-Serif" font-size="10.00">Tle92466edHandler::</text>
<text text-anchor="middle" x="83" y="-644" font-family="Helvetica,sans-Serif" font-size="10.00">EnterMissionMode</text>
</a>
</g>
</g>
<!-- Node17&#45;&gt;Node22 -->
<g id="edge21_Node000017_Node000022" class="edge">
<title>Node17&#45;&gt;Node22</title>
<g id="a_edge21_Node000017_Node000022"><a xlink:title=" ">
<path fill="none" stroke="#63b8ff" d="M232.24,-542.77C221.37,-546.64 210.81,-551.88 202,-559 175.09,-580.73 192.74,-606.05 166,-628 159.01,-633.74 150.69,-638.11 142.08,-641.43"/>
<polygon fill="#63b8ff" stroke="#63b8ff" points="233.37,-546.08 241.84,-539.72 231.25,-539.41 233.37,-546.08"/>
</a>
</g>
</g>
<!-- Node23 -->
<g id="Node000023" class="node">
<title>Node23</title>
<g id="a_Node000023"><a xlink:href="classTle92466edHandler.html#a4c646ee5db271f07517cc15e8a623f0e" target="_top" xlink:title="Get chip ID (returns 0 on error).">
<polygon fill="white" stroke="#666666" points="142,-619 24,-619 24,-589 142,-589 142,-619"/>
<text text-anchor="start" x="32" y="-607" font-family="Helvetica,sans-Serif" font-size="10.00">Tle92466edHandler::</text>
<text text-anchor="middle" x="83" y="-596" font-family="Helvetica,sans-Serif" font-size="10.00">GetChipId</text>
</a>
</g>
</g>
<!-- Node17&#45;&gt;Node23 -->
<g id="edge22_Node000017_Node000023" class="edge">
<title>Node17&#45;&gt;Node23</title>
<g id="a_edge22_Node000017_Node000023"><a xlink:title=" ">
<path fill="none" stroke="#63b8ff" d="M232.12,-548.23C221.88,-551.38 211.55,-554.98 202,-559 184.93,-566.19 183.01,-572.68 166,-580 158.37,-583.28 150.15,-586.28 141.97,-588.96"/>
<polygon fill="#63b8ff" stroke="#63b8ff" points="233.3,-551.53 241.89,-545.33 231.31,-544.82 233.3,-551.53"/>
</a>
</g>
</g>
<!-- Node24 -->
<g id="Node000024" class="node">
<title>Node24</title>
<g id="a_Node000024"><a xlink:href="classTle92466edHandler.html#a0c29d4ada1c9247dc90fb64d914dec1f" target="_top" xlink:title="Get IC version (returns 0 on error).">
<polygon fill="white" stroke="#666666" points="142,-571 24,-571 24,-541 142,-541 142,-571"/>
<text text-anchor="start" x="32" y="-559" font-family="Helvetica,sans-Serif" font-size="10.00">Tle92466edHandler::</text>
<text text-anchor="middle" x="83" y="-548" font-family="Helvetica,sans-Serif" font-size="10.00">GetIcVersion</text>
</a>
</g>
</g>
<!-- Node17&#45;&gt;Node24 -->
<g id="edge23_Node000017_Node000024" class="edge">
<title>Node17&#45;&gt;Node24</title>
<g id="a_edge23_Node000017_Node000024"><a xlink:title=" ">
<path fill="none" stroke="#63b8ff" d="M231.85,-539.57C203.07,-542.77 169.89,-546.46 142.27,-549.53"/>
<polygon fill="#63b8ff" stroke="#63b8ff" points="232.28,-543.05 241.83,-538.46 231.51,-536.09 232.28,-543.05"/>
</a>
</g>
</g>
<!-- Node25 -->
<g id="Node000025" class="node">
<title>Node25</title>
<g id="a_Node000025"><a xlink:href="classTle92466edHandler.html#ab86e6d3eb2dca25154a8fa7c42ddb945" target="_top" xlink:title="Check if any fault is present.">
<polygon fill="white" stroke="#666666" points="142,-523 24,-523 24,-493 142,-493 142,-523"/>
<text text-anchor="start" x="32" y="-511" font-family="Helvetica,sans-Serif" font-size="10.00">Tle92466edHandler::</text>
<text text-anchor="middle" x="83" y="-500" font-family="Helvetica,sans-Serif" font-size="10.00">HasFault</text>
</a>
</g>
</g>
<!-- Node17&#45;&gt;Node25 -->
<g id="edge24_Node000017_Node000025" class="edge">
<title>Node17&#45;&gt;Node25</title>
<g id="a_edge24_Node000017_Node000025"><a xlink:title=" ">
<path fill="none" stroke="#63b8ff" d="M231.85,-524.43C203.07,-521.23 169.89,-517.54 142.27,-514.47"/>
<polygon fill="#63b8ff" stroke="#63b8ff" points="231.51,-527.91 241.83,-525.54 232.28,-520.95 231.51,-527.91"/>
</a>
</g>
</g>
<!-- Node26 -->
<g id="Node000026" class="node">
<title>Node26</title>
<g id="a_Node000026"><a xlink:href="classTle92466edHandler.html#a6bcbd117208f3e44f2216d45541eb4fa" target="_top" xlink:title="Check if in mission mode.">
<polygon fill="white" stroke="#666666" points="142,-475 24,-475 24,-445 142,-445 142,-475"/>
<text text-anchor="start" x="32" y="-463" font-family="Helvetica,sans-Serif" font-size="10.00">Tle92466edHandler::</text>
<text text-anchor="middle" x="83" y="-452" font-family="Helvetica,sans-Serif" font-size="10.00">IsMissionMode</text>
</a>
</g>
</g>
<!-- Node17&#45;&gt;Node26 -->
<g id="edge25_Node000017_Node000026" class="edge">
<title>Node17&#45;&gt;Node26</title>
<g id="a_edge25_Node000017_Node000026"><a xlink:title=" ">
<path fill="none" stroke="#63b8ff" d="M232.08,-518.64C221.81,-515.69 211.48,-512.17 202,-508 184.4,-500.26 183.43,-492.13 166,-484 158.47,-480.49 150.31,-477.37 142.16,-474.63"/>
<polygon fill="#63b8ff" stroke="#63b8ff" points="231.32,-522.06 241.89,-521.3 233.16,-515.3 231.32,-522.06"/>
</a>
</g>
</g>
<!-- Node28&#45;&gt;Node2 -->
<g id="edge28_Node000028_Node000002" class="edge">
<title>Node28&#45;&gt;Node2</title>
<g id="a_edge28_Node000028_Node000002"><a xlink:title=" ">
<path fill="none" stroke="#63b8ff" d="M689.12,-552.46C664.72,-557.25 636.04,-562.88 609.99,-567.99"/>
<polygon fill="#63b8ff" stroke="#63b8ff" points="689.8,-555.89 698.94,-550.53 688.45,-549.02 689.8,-555.89"/>
</a>
</g>
</g>
<!-- Node29&#45;&gt;Node12 -->
<g id="edge30_Node000029_Node000012" class="edge">
<title>Node29&#45;&gt;Node12</title>
<g id="a_edge30_Node000029_Node000012"><a xlink:title=" ">
<path fill="none" stroke="#63b8ff" d="M679.17,-442.72C653.19,-442.24 623.7,-441.69 598.09,-441.21"/>
<polygon fill="#63b8ff" stroke="#63b8ff" points="679.24,-446.22 689.31,-442.91 679.37,-439.23 679.24,-446.22"/>
</a>
</g>
</g>
<!-- Node31 -->
<g id="Node000031" class="node">
<title>Node31</title>
<g id="a_Node000031"><a xlink:href="classWs2812Handler.html#afe5f397b22e9b92cf2fb2cebae6e123d" target="_top" xlink:title=" ">
<polygon fill="white" stroke="#666666" points="623,-323 442,-323 442,-293 623,-293 623,-323"/>
<text text-anchor="start" x="450" y="-311" font-family="Helvetica,sans-Serif" font-size="10.00">Ws2812Handler::EnsureInitialized</text>
<text text-anchor="middle" x="532.5" y="-300" font-family="Helvetica,sans-Serif" font-size="10.00">Locked</text>
</a>
</g>
</g>
<!-- Node30&#45;&gt;Node31 -->
<g id="edge32_Node000030_Node000031" class="edge">
<title>Node30&#45;&gt;Node31</title>
<g id="a_edge32_Node000030_Node000031"><a xlink:title=" ">
<path fill="none" stroke="#63b8ff" d="M694.83,-351.21C684.9,-348.89 674.62,-346.42 665,-344 639.06,-337.47 610.4,-329.69 586.48,-323.03"/>
<polygon fill="#63b8ff" stroke="#63b8ff" points="694.07,-354.62 704.6,-353.47 695.65,-347.8 694.07,-354.62"/>
</a>
</g>
</g>
<!-- Node32 -->
<g id="Node000032" class="node">
<title>Node32</title>
<g id="a_Node000032"><a xlink:href="classWs2812Handler.html#a586683dcf63f17194b77c026972c7b2b" target="_top" xlink:title="Dump diagnostics to logger.">
<polygon fill="white" stroke="#666666" points="394,-317.5 208,-317.5 208,-298.5 394,-298.5 394,-317.5"/>
<text text-anchor="middle" x="301" y="-305.5" font-family="Helvetica,sans-Serif" font-size="10.00">Ws2812Handler::DumpDiagnostics</text>
</a>
</g>
</g>
<!-- Node31&#45;&gt;Node32 -->
<g id="edge33_Node000031_Node000032" class="edge">
<title>Node31&#45;&gt;Node32</title>
<g id="a_edge33_Node000031_Node000032"><a xlink:title=" ">
<path fill="none" stroke="#63b8ff" d="M431.47,-308C419.12,-308 406.53,-308 394.3,-308"/>
<polygon fill="#63b8ff" stroke="#63b8ff" points="431.78,-311.5 441.78,-308 431.78,-304.5 431.78,-311.5"/>
</a>
</g>
</g>
<!-- Node33 -->
<g id="Node000033" class="node">
<title>Node33</title>
<g id="a_Node000033"><a xlink:href="classWs2812Handler.html#a764cc93c64a81844a284ac7515ea8366" target="_top" xlink:title="Ensure strip resources are initialized (lazy init entrypoint).">
<polygon fill="white" stroke="#666666" points="391.5,-280.5 210.5,-280.5 210.5,-261.5 391.5,-261.5 391.5,-280.5"/>
<text text-anchor="middle" x="301" y="-268.5" font-family="Helvetica,sans-Serif" font-size="10.00">Ws2812Handler::EnsureInitialized</text>
</a>
</g>
</g>
<!-- Node31&#45;&gt;Node33 -->
<g id="edge34_Node000031_Node000033" class="edge">
<title>Node31&#45;&gt;Node33</title>
<g id="a_edge34_Node000031_Node000033"><a xlink:title=" ">
<path fill="none" stroke="#63b8ff" d="M431.89,-291.94C407.8,-288.06 382.81,-284.03 361.25,-280.55"/>
<polygon fill="#63b8ff" stroke="#63b8ff" points="431.35,-295.4 441.78,-293.54 432.47,-288.49 431.35,-295.4"/>
</a>
</g>
</g>
<!-- Node34 -->
<g id="Node000034" class="node">
<title>Node34</title>
<g id="a_Node000034"><a xlink:href="classWs2812Handler.html#a3e09ba2c15d5b0e7d6d254e22f634ae8" target="_top" xlink:title="Get the animator object.">
<polygon fill="#fff0f0" stroke="red" points="382,-243.5 220,-243.5 220,-224.5 382,-224.5 382,-243.5"/>
<text text-anchor="middle" x="301" y="-231.5" font-family="Helvetica,sans-Serif" font-size="10.00">Ws2812Handler::GetAnimator</text>
</a>
</g>
</g>
<!-- Node31&#45;&gt;Node34 -->
<g id="edge35_Node000031_Node000034" class="edge">
<title>Node31&#45;&gt;Node34</title>
<g id="a_edge35_Node000031_Node000034"><a xlink:title=" ">
<path fill="none" stroke="#63b8ff" d="M491.17,-288.6C465.54,-276.91 431.4,-262.5 400,-253 387.72,-249.29 374.36,-246.13 361.56,-243.52"/>
<polygon fill="#63b8ff" stroke="#63b8ff" points="490,-291.91 500.55,-292.93 492.93,-285.56 490,-291.91"/>
</a>
</g>
</g>
<!-- Node36 -->
<g id="Node000036" class="node">
<title>Node36</title>
<g id="a_Node000036"><a xlink:href="classWs2812Handler.html#a7471840392adad3cab496e2dc57dc792" target="_top" xlink:title="Get the underlying LED strip object.">
<polygon fill="#fff0f0" stroke="red" points="371,-354.5 231,-354.5 231,-335.5 371,-335.5 371,-354.5"/>
<text text-anchor="middle" x="301" y="-342.5" font-family="Helvetica,sans-Serif" font-size="10.00">Ws2812Handler::GetStrip</text>
</a>
</g>
</g>
<!-- Node31&#45;&gt;Node36 -->
<g id="edge36_Node000031_Node000036" class="edge">
<title>Node31&#45;&gt;Node36</title>
<g id="a_edge36_Node000031_Node000036"><a xlink:title=" ">
<path fill="none" stroke="#63b8ff" d="M431.89,-324.06C407.8,-327.94 382.81,-331.97 361.25,-335.45"/>
<polygon fill="#63b8ff" stroke="#63b8ff" points="432.47,-327.51 441.78,-322.46 431.35,-320.6 432.47,-327.51"/>
</a>
</g>
</g>
<!-- Node41 -->
<g id="Node000041" class="node">
<title>Node41</title>
<g id="a_Node000041"><a xlink:href="classTmc9660Handler.html#a5a279ae9d4b5a8e0d71cb24577ad88ea" target="_top" xlink:title="Ensure driver is initialized (lazy init entrypoint).">
<polygon fill="#fff0f0" stroke="red" points="626,-162.5 439,-162.5 439,-143.5 626,-143.5 626,-162.5"/>
<text text-anchor="middle" x="532.5" y="-150.5" font-family="Helvetica,sans-Serif" font-size="10.00">Tmc9660Handler::EnsureInitialized</text>
</a>
</g>
</g>
<!-- Node40&#45;&gt;Node41 -->
<g id="edge40_Node000040_Node000041" class="edge">
<title>Node40&#45;&gt;Node41</title>
<g id="a_edge40_Node000040_Node000041"><a xlink:title=" ">
<path fill="none" stroke="#63b8ff" d="M686.22,-217.07C679.01,-215.24 671.8,-213.22 665,-211 623.48,-197.47 577.28,-175.33 552.19,-162.68"/>
<polygon fill="#63b8ff" stroke="#63b8ff" points="685.48,-220.49 696.02,-219.44 687.12,-213.69 685.48,-220.49"/>
</a>
</g>
</g>
<!-- Node42 -->
<g id="Node000042" class="node">
<title>Node42</title>
<g id="a_Node000042"><a xlink:href="classTmc9660Handler.html#a7fe382c4dbf6bf84ed31586e52ec2e6e" target="_top" xlink:title="Get a reference to the ADC wrapper.">
<polygon fill="#fff0f0" stroke="red" points="362.5,-132.5 239.5,-132.5 239.5,-113.5 362.5,-113.5 362.5,-132.5"/>
<text text-anchor="middle" x="301" y="-120.5" font-family="Helvetica,sans-Serif" font-size="10.00">Tmc9660Handler::adc</text>
</a>
</g>
</g>
<!-- Node41&#45;&gt;Node42 -->
<g id="edge41_Node000041_Node000042" class="edge">
<title>Node41&#45;&gt;Node42</title>
<g id="a_edge41_Node000041_Node000042"><a xlink:title=" ">
<path fill="none" stroke="#63b8ff" d="M448.3,-142.12C420.03,-138.43 389,-134.37 362.81,-130.95"/>
<polygon fill="#63b8ff" stroke="#63b8ff" points="448.2,-145.64 458.57,-143.47 449.11,-138.7 448.2,-145.64"/>
</a>
</g>
</g>
<!-- Node48 -->
<g id="Node000048" class="node">
<title>Node48</title>
<g id="a_Node000048"><a xlink:href="classTmc9660Handler.html#a85be9cd2e065b83c7abb36cb70fa6c67" target="_top" xlink:title="Get the TMC9660 driver instance connected via SPI (nullptr if using UART).">
<polygon fill="white" stroke="#666666" points="383.5,-95.5 218.5,-95.5 218.5,-76.5 383.5,-76.5 383.5,-95.5"/>
<text text-anchor="middle" x="301" y="-83.5" font-family="Helvetica,sans-Serif" font-size="10.00">Tmc9660Handler::driverViaSpi</text>
</a>
</g>
</g>
<!-- Node41&#45;&gt;Node48 -->
<g id="edge42_Node000041_Node000048" class="edge">
<title>Node41&#45;&gt;Node48</title>
<g id="a_edge42_Node000041_Node000048"><a xlink:title=" ">
<path fill="none" stroke="#63b8ff" d="M465.95,-140.8C455.69,-137.88 445.39,-134.32 436,-130 418.07,-121.76 418.15,-111.75 400,-104 391.97,-100.57 383.29,-97.79 374.53,-95.54"/>
<polygon fill="#63b8ff" stroke="#63b8ff" points="465.16,-144.22 475.73,-143.42 466.97,-137.45 465.16,-144.22"/>
</a>
</g>
</g>
<!-- Node49 -->
<g id="Node000049" class="node">
<title>Node49</title>
<g id="a_Node000049"><a xlink:href="classTmc9660Handler.html#ac4f303f9e7be9cb737a667dd5d85dd3a" target="_top" xlink:title="Get the TMC9660 driver instance connected via UART (nullptr if using SPI).">
<polygon fill="white" stroke="#666666" points="386.5,-58.5 215.5,-58.5 215.5,-39.5 386.5,-39.5 386.5,-58.5"/>
<text text-anchor="middle" x="301" y="-46.5" font-family="Helvetica,sans-Serif" font-size="10.00">Tmc9660Handler::driverViaUart</text>
</a>
</g>
</g>
<!-- Node41&#45;&gt;Node49 -->
<g id="edge43_Node000041_Node000049" class="edge">
<title>Node41&#45;&gt;Node49</title>
<g id="a_edge43_Node000041_Node000049"><a xlink:title=" ">
<path fill="none" stroke="#63b8ff" d="M452.68,-139.71C446.75,-137.03 441.1,-133.83 436,-130 410.21,-110.64 426.31,-85.65 400,-67 395.34,-63.7 390.26,-60.95 384.93,-58.66"/>
<polygon fill="#63b8ff" stroke="#63b8ff" points="451.6,-143.05 462.19,-143.49 454.19,-136.54 451.6,-143.05"/>
</a>
</g>
</g>
<!-- Node50 -->
<g id="Node000050" class="node">
<title>Node50</title>
<g id="a_Node000050"><a xlink:href="classTmc9660Handler.html#adee8a764564554f060b879752048bf74" target="_top" xlink:title="Dump comprehensive diagnostics to the system log.">
<polygon fill="white" stroke="#666666" points="397,-206.5 205,-206.5 205,-187.5 397,-187.5 397,-206.5"/>
<text text-anchor="middle" x="301" y="-194.5" font-family="Helvetica,sans-Serif" font-size="10.00">Tmc9660Handler::DumpDiagnostics</text>
</a>
</g>
</g>
<!-- Node41&#45;&gt;Node50 -->
<g id="edge44_Node000041_Node000050" class="edge">
<title>Node41&#45;&gt;Node50</title>
<g id="a_edge44_Node000041_Node000050"><a xlink:title=" ">
<path fill="none" stroke="#63b8ff" d="M474.1,-164.52C451.08,-169.1 424.29,-174.37 400,-179 385.3,-181.8 369.35,-184.77 354.66,-187.46"/>
<polygon fill="#63b8ff" stroke="#63b8ff" points="474.93,-167.93 484.05,-162.54 473.56,-161.06 474.93,-167.93"/>
</a>
</g>
</g>
<!-- Node51 -->
<g id="Node000051" class="node">
<title>Node51</title>
<g id="a_Node000051"><a xlink:href="classTmc9660Handler.html#acf7d1583239c9f767f82b42fc03b56cf" target="_top" xlink:title="Get a reference to the GPIO wrapper for a TMC9660 internal GPIO pin.">
<polygon fill="white" stroke="#666666" points="364.5,-169.5 237.5,-169.5 237.5,-150.5 364.5,-150.5 364.5,-169.5"/>
<text text-anchor="middle" x="301" y="-157.5" font-family="Helvetica,sans-Serif" font-size="10.00">Tmc9660Handler::gpio</text>
</a>
</g>
</g>
<!-- Node41&#45;&gt;Node51 -->
<g id="edge45_Node000041_Node000051" class="edge">
<title>Node41&#45;&gt;Node51</title>
<g id="a_edge45_Node000041_Node000051"><a xlink:title=" ">
<path fill="none" stroke="#63b8ff" d="M428.54,-156.14C406.8,-156.8 384.49,-157.48 364.78,-158.09"/>
<polygon fill="#63b8ff" stroke="#63b8ff" points="428.93,-159.63 438.82,-155.83 428.71,-152.63 428.93,-159.63"/>
</a>
</g>
</g>
<!-- Node97 -->
<g id="Node000097" class="node">
<title>Node97</title>
<g id="a_Node000097"><a xlink:href="classTmc5160Handler.html#a6d4fce2433e03bb11b05a4278ef66fd0" target="_top" xlink:title=" ">
<polygon fill="#fff0f0" stroke="red" points="626,-121 439,-121 439,-91 626,-91 626,-121"/>
<text text-anchor="start" x="447" y="-109" font-family="Helvetica,sans-Serif" font-size="10.00">Tmc5160Handler::EnsureInitialized</text>
<text text-anchor="middle" x="532.5" y="-98" font-family="Helvetica,sans-Serif" font-size="10.00">Locked</text>
</a>
</g>
</g>
<!-- Node96&#45;&gt;Node97 -->
<g id="edge49_Node000096_Node000097" class="edge">
<title>Node96&#45;&gt;Node97</title>
<g id="a_edge49_Node000096_Node000097"><a xlink:title=" ">
<path fill="none" stroke="#63b8ff" d="M664.14,-106C651.73,-106 638.87,-106 626.27,-106"/>
<polygon fill="#63b8ff" stroke="#63b8ff" points="664.45,-109.5 674.45,-106 664.45,-102.5 664.45,-109.5"/>
</a>
</g>
</g>
</g>
</svg>
