<?xml version="1.0" encoding="UTF-8" standalone="no"?>
<!DOCTYPE svg PUBLIC "-//W3C//DTD SVG 1.1//EN"
 "http://www.w3.org/Graphics/SVG/1.1/DTD/svg11.dtd">
<!-- Generated by graphviz version 2.43.0 (0)
 -->
<!-- Title: Tmc9660Handler::Adc::ReadCurrentSenseChannel Pages: 1 -->
<svg width="1308pt" height="113pt"
 viewBox="0.00 0.00 1308.00 112.50" xmlns="http://www.w3.org/2000/svg" xmlns:xlink="http://www.w3.org/1999/xlink">
<g id="graph0" class="graph" transform="scale(1 1) rotate(0) translate(4 108.5)">
<title>Tmc9660Handler::Adc::ReadCurrentSenseChannel</title>
<!-- Node1 -->
<g id="Node000001" class="node">
<title>Node1</title>
<g id="a_Node000001"><a xlink:title="Read a phase current sense channel.">
<polygon fill="#999999" stroke="#666666" points="152,-51 0,-51 0,-21 152,-21 152,-51"/>
<text text-anchor="start" x="8" y="-39" font-family="Helvetica,sans-Serif" font-size="10.00">Tmc9660Handler::Adc</text>
<text text-anchor="middle" x="76" y="-28" font-family="Helvetica,sans-Serif" font-size="10.00">::ReadCurrentSenseChannel</text>
</a>
</g>
</g>
<!-- Node2 -->
<g id="Node000002" class="node">
<title>Node2</title>
<g id="a_Node000002"><a xlink:href="classTmc9660Handler.html#a393382194d0602e7aa02da6a8fd7a20a" target="_top" xlink:title="Get a reference to the Temperature wrapper.">
<polygon fill="white" stroke="#666666" points="355,-45.5 188,-45.5 188,-26.5 355,-26.5 355,-45.5"/>
<text text-anchor="middle" x="271.5" y="-33.5" font-family="Helvetica,sans-Serif" font-size="10.00">Tmc9660Handler::temperature</text>
</a>
</g>
</g>
<!-- Node1&#45;&gt;Node2 -->
<g id="edge1_Node000001_Node000002" class="edge">
<title>Node1&#45;&gt;Node2</title>
<g id="a_edge1_Node000001_Node000002"><a xlink:title=" ">
<path fill="none" stroke="#63b8ff" d="M152.09,-36C160.49,-36 169.12,-36 177.7,-36"/>
<polygon fill="#63b8ff" stroke="#63b8ff" points="177.75,-39.5 187.75,-36 177.75,-32.5 177.75,-39.5"/>
</a>
</g>
</g>
<!-- Node2&#45;&gt;Node2 -->
<g id="edge14_Node000002_Node000002" class="edge">
<title>Node2&#45;&gt;Node2</title>
<g id="a_edge14_Node000002_Node000002"><a xlink:title=" ">
<path fill="none" stroke="#63b8ff" d="M241.6,-45.58C227.05,-54.23 237.02,-63.5 271.5,-63.5 295.21,-63.5 307.32,-59.12 307.86,-53.57"/>
<polygon fill="#63b8ff" stroke="#63b8ff" points="310.41,-51.16 301.4,-45.58 304.96,-55.56 310.41,-51.16"/>
</a>
</g>
</g>
<!-- Node3 -->
<g id="Node000003" class="node">
<title>Node3</title>
<g id="a_Node000003"><a xlink:href="classTmc9660Handler.html#a5a279ae9d4b5a8e0d71cb24577ad88ea" target="_top" xlink:title="Ensure driver is initialized (lazy init entrypoint).">
<polygon fill="white" stroke="#666666" points="578,-45.5 391,-45.5 391,-26.5 578,-26.5 578,-45.5"/>
<text text-anchor="middle" x="484.5" y="-33.5" font-family="Helvetica,sans-Serif" font-size="10.00">Tmc9660Handler::EnsureInitialized</text>
</a>
</g>
</g>
<!-- Node2&#45;&gt;Node3 -->
<g id="edge2_Node000002_Node000003" class="edge">
<title>Node2&#45;&gt;Node3</title>
<g id="a_edge2_Node000002_Node000003"><a xlink:title=" ">
<path fill="none" stroke="#63b8ff" d="M355.29,-29.39C363.67,-29.29 372.25,-29.24 380.81,-29.25"/>
<polygon fill="#63b8ff" stroke="#63b8ff" points="380.81,-32.75 390.83,-29.29 380.84,-25.75 380.81,-32.75"/>
</a>
</g>
</g>
<!-- Node3&#45;&gt;Node2 -->
<g id="edge13_Node000003_Node000002" class="edge">
<title>Node3&#45;&gt;Node2</title>
<g id="a_edge13_Node000003_Node000002"><a xlink:title=" ">
<path fill="none" stroke="#63b8ff" d="M390.83,-42.71C382.42,-42.76 373.9,-42.76 365.48,-42.71"/>
<polygon fill="#63b8ff" stroke="#63b8ff" points="365.32,-39.21 355.29,-42.61 365.25,-46.21 365.32,-39.21"/>
</a>
</g>
</g>
<!-- Node4 -->
<g id="Node000004" class="node">
<title>Node4</title>
<g id="a_Node000004"><a xlink:href="classTmc9660Handler.html#a7c1d8073576d678b09dac24c9eb12845" target="_top" xlink:title="Ensure initialized while handler_mutex_ is already held.">
<polygon fill="white" stroke="#666666" points="801,-51 614,-51 614,-21 801,-21 801,-51"/>
<text text-anchor="start" x="622" y="-39" font-family="Helvetica,sans-Serif" font-size="10.00">Tmc9660Handler::EnsureInitialized</text>
<text text-anchor="middle" x="707.5" y="-28" font-family="Helvetica,sans-Serif" font-size="10.00">Locked</text>
</a>
</g>
</g>
<!-- Node3&#45;&gt;Node4 -->
<g id="edge3_Node000003_Node000004" class="edge">
<title>Node3&#45;&gt;Node4</title>
<g id="a_edge3_Node000003_Node000004"><a xlink:title=" ">
<path fill="none" stroke="#63b8ff" d="M578.26,-36C586.75,-36 595.39,-36 603.96,-36"/>
<polygon fill="#63b8ff" stroke="#63b8ff" points="603.97,-39.5 613.97,-36 603.97,-32.5 603.97,-39.5"/>
</a>
</g>
</g>
<!-- Node5 -->
<g id="Node000005" class="node">
<title>Node5</title>
<g id="a_Node000005"><a xlink:href="classTmc9660Handler.html#adc564847f8ae26c47412aaee0758991c" target="_top" xlink:title="Initialize the TMC9660 device.">
<polygon fill="white" stroke="#666666" points="985,-67.5 837,-67.5 837,-48.5 985,-48.5 985,-67.5"/>
<text text-anchor="middle" x="911" y="-55.5" font-family="Helvetica,sans-Serif" font-size="10.00">Tmc9660Handler::Initialize</text>
</a>
</g>
</g>
<!-- Node4&#45;&gt;Node5 -->
<g id="edge4_Node000004_Node000005" class="edge">
<title>Node4&#45;&gt;Node5</title>
<g id="a_edge4_Node000004_Node000005"><a xlink:title=" ">
<path fill="none" stroke="#63b8ff" d="M801.29,-46.13C809.73,-47.05 818.25,-47.98 826.61,-48.9"/>
<polygon fill="#63b8ff" stroke="#63b8ff" points="826.38,-52.39 836.7,-50 827.14,-45.43 826.38,-52.39"/>
</a>
</g>
</g>
<!-- Node11 -->
<g id="Node000011" class="node">
<title>Node11</title>
<g id="a_Node000011"><a xlink:href="classTmc9660Handler.html#a13db97d201a287d8aa60384e04070b9f" target="_top" xlink:title="Check if the TMC9660 driver has been initialized and is ready.">
<polygon fill="white" stroke="#666666" points="983,-30 839,-30 839,0 983,0 983,-30"/>
<text text-anchor="start" x="847" y="-18" font-family="Helvetica,sans-Serif" font-size="10.00">Tmc9660Handler::IsDriver</text>
<text text-anchor="middle" x="911" y="-7" font-family="Helvetica,sans-Serif" font-size="10.00">Ready</text>
</a>
</g>
</g>
<!-- Node4&#45;&gt;Node11 -->
<g id="edge12_Node000004_Node000011" class="edge">
<title>Node4&#45;&gt;Node11</title>
<g id="a_edge12_Node000004_Node000011"><a xlink:title=" ">
<path fill="none" stroke="#63b8ff" d="M801.29,-26.33C810.44,-25.38 819.69,-24.41 828.71,-23.47"/>
<polygon fill="#63b8ff" stroke="#63b8ff" points="829.21,-26.94 838.8,-22.42 828.49,-19.98 829.21,-26.94"/>
</a>
</g>
</g>
<!-- Node6 -->
<g id="Node000006" class="node">
<title>Node6</title>
<g id="a_Node000006"><a xlink:href="classLogger.html#adce17848a5844e053bfd314863dc1404" target="_top" xlink:title="Log error message.">
<polygon fill="white" stroke="#666666" points="1117.5,-67.5 1038.5,-67.5 1038.5,-48.5 1117.5,-48.5 1117.5,-67.5"/>
<text text-anchor="middle" x="1078" y="-55.5" font-family="Helvetica,sans-Serif" font-size="10.00">Logger::Error</text>
</a>
</g>
</g>
<!-- Node5&#45;&gt;Node6 -->
<g id="edge5_Node000005_Node000006" class="edge">
<title>Node5&#45;&gt;Node6</title>
<g id="a_edge5_Node000005_Node000006"><a xlink:title=" ">
<path fill="none" stroke="#63b8ff" d="M985.33,-58C999.73,-58 1014.5,-58 1027.87,-58"/>
<polygon fill="#63b8ff" stroke="#63b8ff" points="1028.26,-61.5 1038.26,-58 1028.26,-54.5 1028.26,-61.5"/>
</a>
</g>
</g>
<!-- Node9 -->
<g id="Node000009" class="node">
<title>Node9</title>
<g id="a_Node000009"><a xlink:href="classLogger.html#a5789d11f8f1356e2192c0023a089cbc4" target="_top" xlink:title="Get singleton instance.">
<polygon fill="white" stroke="#666666" points="1135,-30.5 1021,-30.5 1021,-11.5 1135,-11.5 1135,-30.5"/>
<text text-anchor="middle" x="1078" y="-18.5" font-family="Helvetica,sans-Serif" font-size="10.00">Logger::GetInstance</text>
</a>
</g>
</g>
<!-- Node5&#45;&gt;Node9 -->
<g id="edge8_Node000005_Node000009" class="edge">
<title>Node5&#45;&gt;Node9</title>
<g id="a_edge8_Node000005_Node000009"><a xlink:title=" ">
<path fill="none" stroke="#63b8ff" d="M954.49,-48.47C975.87,-43.68 1001.97,-37.82 1024.58,-32.75"/>
<polygon fill="#63b8ff" stroke="#63b8ff" points="1025.37,-36.16 1034.37,-30.56 1023.84,-29.33 1025.37,-36.16"/>
</a>
</g>
</g>
<!-- Node10 -->
<g id="Node000010" class="node">
<title>Node10</title>
<g id="a_Node000010"><a xlink:href="classLogger.html#a4681229c521795685fc14f6b55c82300" target="_top" xlink:title="Log info message.">
<polygon fill="white" stroke="#666666" points="1115,-104.5 1041,-104.5 1041,-85.5 1115,-85.5 1115,-104.5"/>
<text text-anchor="middle" x="1078" y="-92.5" font-family="Helvetica,sans-Serif" font-size="10.00">Logger::Info</text>
</a>
</g>
</g>
<!-- Node5&#45;&gt;Node10 -->
<g id="edge9_Node000005_Node000010" class="edge">
<title>Node5&#45;&gt;Node10</title>
<g id="a_edge9_Node000005_Node000010"><a xlink:title=" ">
<path fill="none" stroke="#63b8ff" d="M954.49,-67.53C977.89,-72.77 1006.94,-79.29 1030.89,-84.66"/>
<polygon fill="#63b8ff" stroke="#63b8ff" points="1030.28,-88.11 1040.8,-86.88 1031.81,-81.28 1030.28,-88.11"/>
</a>
</g>
</g>
<!-- Node7 -->
<g id="Node000007" class="node">
<title>Node7</title>
<g id="a_Node000007"><a xlink:href="classLogger.html#af9e84e0ff6bd538e4f9ed8dcebc3e2f0" target="_top" xlink:title="Check if log level is enabled for tag.">
<polygon fill="white" stroke="#666666" points="1300,-104.5 1171,-104.5 1171,-85.5 1300,-85.5 1300,-104.5"/>
<text text-anchor="middle" x="1235.5" y="-92.5" font-family="Helvetica,sans-Serif" font-size="10.00">Logger::IsLevelEnabled</text>
</a>
</g>
</g>
<!-- Node6&#45;&gt;Node7 -->
<g id="edge6_Node000006_Node000007" class="edge">
<title>Node6&#45;&gt;Node7</title>
<g id="a_edge6_Node000006_Node000007"><a xlink:title=" ">
<path fill="none" stroke="#63b8ff" d="M1117.84,-67.24C1138.03,-72.05 1162.94,-77.97 1184.55,-83.11"/>
<polygon fill="#63b8ff" stroke="#63b8ff" points="1184,-86.58 1194.53,-85.49 1185.62,-79.77 1184,-86.58"/>
</a>
</g>
</g>
<!-- Node8 -->
<g id="Node000008" class="node">
<title>Node8</title>
<g id="a_Node000008"><a xlink:href="classLogger.html#a6adb205db597526fb91ad20067400394" target="_top" xlink:title="Internal logging method.">
<polygon fill="white" stroke="#666666" points="1290.5,-67.5 1180.5,-67.5 1180.5,-48.5 1290.5,-48.5 1290.5,-67.5"/>
<text text-anchor="middle" x="1235.5" y="-55.5" font-family="Helvetica,sans-Serif" font-size="10.00">Logger::LogInternal</text>
</a>
</g>
</g>
<!-- Node6&#45;&gt;Node8 -->
<g id="edge7_Node000006_Node000008" class="edge">
<title>Node6&#45;&gt;Node8</title>
<g id="a_edge7_Node000006_Node000008"><a xlink:title=" ">
<path fill="none" stroke="#63b8ff" d="M1117.84,-58C1133.63,-58 1152.31,-58 1170.03,-58"/>
<polygon fill="#63b8ff" stroke="#63b8ff" points="1170.33,-61.5 1180.33,-58 1170.33,-54.5 1170.33,-61.5"/>
</a>
</g>
</g>
<!-- Node10&#45;&gt;Node7 -->
<g id="edge10_Node000010_Node000007" class="edge">
<title>Node10&#45;&gt;Node7</title>
<g id="a_edge10_Node000010_Node000007"><a xlink:title=" ">
<path fill="none" stroke="#63b8ff" d="M1115.07,-95C1128.68,-95 1144.72,-95 1160.55,-95"/>
<polygon fill="#63b8ff" stroke="#63b8ff" points="1160.89,-98.5 1170.89,-95 1160.89,-91.5 1160.89,-98.5"/>
</a>
</g>
</g>
<!-- Node10&#45;&gt;Node8 -->
<g id="edge11_Node000010_Node000008" class="edge">
<title>Node10&#45;&gt;Node8</title>
<g id="a_edge11_Node000010_Node000008"><a xlink:title=" ">
<path fill="none" stroke="#63b8ff" d="M1115.07,-86.42C1135.78,-81.49 1162.09,-75.23 1184.74,-69.84"/>
<polygon fill="#63b8ff" stroke="#63b8ff" points="1185.61,-73.23 1194.53,-67.51 1183.99,-66.42 1185.61,-73.23"/>
</a>
</g>
</g>
</g>
</svg>
