<?xml version="1.0" encoding="UTF-8" standalone="no"?>
<!DOCTYPE svg PUBLIC "-//W3C//DTD SVG 1.1//EN"
 "http://www.w3.org/Graphics/SVG/1.1/DTD/svg11.dtd">
<!-- Generated by graphviz version 2.43.0 (0)
 -->
<!-- Title: HalI2cSe050Comm::Transceive Pages: 1 -->
<svg width="346pt" height="108pt"
 viewBox="0.00 0.00 346.00 108.00" xmlns="http://www.w3.org/2000/svg" xmlns:xlink="http://www.w3.org/1999/xlink">
<g id="graph0" class="graph" transform="scale(1 1) rotate(0) translate(4 104)">
<title>HalI2cSe050Comm::Transceive</title>
<!-- Node1 -->
<g id="Node000001" class="node">
<title>Node1</title>
<g id="a_Node000001"><a xlink:title=" ">
<polygon fill="#999999" stroke="#666666" points="167,-59 0,-59 0,-40 167,-40 167,-59"/>
<text text-anchor="middle" x="83.5" y="-47" font-family="Helvetica,sans-Serif" font-size="10.00">HalI2cSe050Comm::Transceive</text>
</a>
</g>
</g>
<!-- Node2 -->
<g id="Node000002" class="node">
<title>Node2</title>
<g id="a_Node000002"><a xlink:href="namespaceanonymous__namespace_02Se050Handler_8cpp_03.html#ac712ade1fe8a1302fb5ee3187909b09e" target="_top" xlink:title=" ">
<polygon fill="white" stroke="#666666" points="338,-100 203,-100 203,-59 338,-59 338,-100"/>
<text text-anchor="start" x="211" y="-88" font-family="Helvetica,sans-Serif" font-size="10.00">anonymous_namespace</text>
<text text-anchor="start" x="211" y="-77" font-family="Helvetica,sans-Serif" font-size="10.00">{Se050Handler::cpp}</text>
<text text-anchor="middle" x="270.5" y="-66" font-family="Helvetica,sans-Serif" font-size="10.00">::ClampU16</text>
</a>
</g>
</g>
<!-- Node1&#45;&gt;Node2 -->
<g id="edge1_Node000001_Node000002" class="edge">
<title>Node1&#45;&gt;Node2</title>
<g id="a_edge1_Node000001_Node000002"><a xlink:title=" ">
<path fill="none" stroke="#63b8ff" d="M143.29,-59.03C158.97,-61.58 176.15,-64.36 192.65,-67.04"/>
<polygon fill="#63b8ff" stroke="#63b8ff" points="192.38,-70.54 202.82,-68.69 193.5,-63.63 192.38,-70.54"/>
</a>
</g>
</g>
<!-- Node3 -->
<g id="Node000003" class="node">
<title>Node3</title>
<g id="a_Node000003"><a xlink:href="namespaceanonymous__namespace_02Se050Handler_8cpp_03.html#a2a6831a1ec2b7c917f283d1788590978" target="_top" xlink:title=" ">
<polygon fill="white" stroke="#666666" points="338,-41 203,-41 203,0 338,0 338,-41"/>
<text text-anchor="start" x="211" y="-29" font-family="Helvetica,sans-Serif" font-size="10.00">anonymous_namespace</text>
<text text-anchor="start" x="211" y="-18" font-family="Helvetica,sans-Serif" font-size="10.00">{Se050Handler::cpp}</text>
<text text-anchor="middle" x="270.5" y="-7" font-family="Helvetica,sans-Serif" font-size="10.00">::MapI2c</text>
</a>
</g>
</g>
<!-- Node1&#45;&gt;Node3 -->
<g id="edge2_Node000001_Node000003" class="edge">
<title>Node1&#45;&gt;Node3</title>
<g id="a_edge2_Node000001_Node000003"><a xlink:title=" ">
<path fill="none" stroke="#63b8ff" d="M145.33,-39.96C160.45,-37.59 176.85,-35.02 192.63,-32.55"/>
<polygon fill="#63b8ff" stroke="#63b8ff" points="193.55,-35.95 202.89,-30.94 192.47,-29.03 193.55,-35.95"/>
</a>
</g>
</g>
</g>
</svg>
