<?xml version="1.0" encoding="UTF-8" standalone="no"?>
<!DOCTYPE svg PUBLIC "-//W3C//DTD SVG 1.1//EN"
 "http://www.w3.org/Graphics/SVG/1.1/DTD/svg11.dtd">
<!-- Generated by graphviz version 2.43.0 (0)
 -->
<!-- Title: Ads7952Handler::EnsureInitializedLocked Pages: 1 -->
<svg width="568pt" height="64pt"
 viewBox="0.00 0.00 568.00 64.00" xmlns="http://www.w3.org/2000/svg" xmlns:xlink="http://www.w3.org/1999/xlink">
<g id="graph0" class="graph" transform="scale(1 1) rotate(0) translate(4 60)">
<title>Ads7952Handler::EnsureInitializedLocked</title>
<!-- Node1 -->
<g id="Node000001" class="node">
<title>Node1</title>
<g id="a_Node000001"><a xlink:title="Ensure initialized while mutex is already held.">
<polygon fill="#999999" stroke="#666666" points="560,-42.5 376,-42.5 376,-12.5 560,-12.5 560,-42.5"/>
<text text-anchor="start" x="384" y="-30.5" font-family="Helvetica,sans-Serif" font-size="10.00">Ads7952Handler::EnsureInitialized</text>
<text text-anchor="middle" x="468" y="-19.5" font-family="Helvetica,sans-Serif" font-size="10.00">Locked</text>
</a>
</g>
</g>
<!-- Node2 -->
<g id="Node000002" class="node">
<title>Node2</title>
<g id="a_Node000002"><a xlink:href="classAds7952Handler.html#a7703915b68bb1ef88fbbd980bf938d90" target="_top" xlink:title="Get raw pointer to the ADS7952 driver for advanced operations.">
<polygon fill="white" stroke="#666666" points="338,-56 188,-56 188,-37 338,-37 338,-56"/>
<text text-anchor="middle" x="263" y="-44" font-family="Helvetica,sans-Serif" font-size="10.00">Ads7952Handler::GetDriver</text>
</a>
</g>
</g>
<!-- Node1&#45;&gt;Node2 -->
<g id="edge1_Node000001_Node000002" class="edge">
<title>Node1&#45;&gt;Node2</title>
<g id="a_edge1_Node000001_Node000002"><a xlink:title=" ">
<path fill="none" stroke="#63b8ff" d="M365.78,-36.97C356.45,-37.85 347.11,-38.72 338.09,-39.57"/>
<polygon fill="#63b8ff" stroke="#63b8ff" points="366.26,-40.44 375.89,-36.03 365.61,-33.47 366.26,-40.44"/>
</a>
</g>
</g>
<!-- Node4 -->
<g id="Node000004" class="node">
<title>Node4</title>
<g id="a_Node000004"><a xlink:href="classAds7952Handler.html#a69677cd8a49a9d456c739755d3bd2943" target="_top" xlink:title="Visit the underlying ADS7952 driver under handler mutex protection.">
<polygon fill="white" stroke="#666666" points="340,-19 186,-19 186,0 340,0 340,-19"/>
<text text-anchor="middle" x="263" y="-7" font-family="Helvetica,sans-Serif" font-size="10.00">Ads7952Handler::visitDriver</text>
</a>
</g>
</g>
<!-- Node1&#45;&gt;Node4 -->
<g id="edge3_Node000001_Node000004" class="edge">
<title>Node1&#45;&gt;Node4</title>
<g id="a_edge3_Node000001_Node000004"><a xlink:title=" ">
<path fill="none" stroke="#63b8ff" d="M365.81,-18.53C357.21,-17.76 348.61,-17 340.25,-16.26"/>
<polygon fill="#63b8ff" stroke="#63b8ff" points="365.62,-22.02 375.89,-19.42 366.24,-15.05 365.62,-22.02"/>
</a>
</g>
</g>
<!-- Node3 -->
<g id="Node000003" class="node">
<title>Node3</title>
<g id="a_Node000003"><a xlink:href="classAds7952Handler.html#ae85d3136bffa914057733aacd43ecd65" target="_top" xlink:title=" ">
<polygon fill="white" stroke="#666666" points="150,-56 0,-56 0,-37 150,-37 150,-56"/>
<text text-anchor="middle" x="75" y="-44" font-family="Helvetica,sans-Serif" font-size="10.00">Ads7952Handler::GetDriver</text>
</a>
</g>
</g>
<!-- Node2&#45;&gt;Node3 -->
<g id="edge2_Node000002_Node000003" class="edge">
<title>Node2&#45;&gt;Node3</title>
<g id="a_edge2_Node000002_Node000003"><a xlink:title=" ">
<path fill="none" stroke="#63b8ff" d="M177.94,-46.5C168.65,-46.5 159.25,-46.5 150.1,-46.5"/>
<polygon fill="#63b8ff" stroke="#63b8ff" points="177.95,-50 187.95,-46.5 177.95,-43 177.95,-50"/>
</a>
</g>
</g>
</g>
</svg>
