<?xml version="1.0" encoding="UTF-8" standalone="no"?>
<!DOCTYPE svg PUBLIC "-//W3C//DTD SVG 1.1//EN"
 "http://www.w3.org/Graphics/SVG/1.1/DTD/svg11.dtd">
<!-- Generated by graphviz version 2.43.0 (0)
 -->
<!-- Title: As5047uHandler::HandleSensorErrors Pages: 1 -->
<svg width="1484pt" height="113pt"
 viewBox="0.00 0.00 1484.00 112.50" xmlns="http://www.w3.org/2000/svg" xmlns:xlink="http://www.w3.org/1999/xlink">
<g id="graph0" class="graph" transform="scale(1 1) rotate(0) translate(4 108.5)">
<title>As5047uHandler::HandleSensorErrors</title>
<!-- Node1 -->
<g id="Node000001" class="node">
<title>Node1</title>
<g id="a_Node000001"><a xlink:title="Handle sensor errors and update diagnostics.">
<polygon fill="#999999" stroke="#666666" points="1476,-73 1306,-73 1306,-43 1476,-43 1476,-73"/>
<text text-anchor="start" x="1314" y="-61" font-family="Helvetica,sans-Serif" font-size="10.00">As5047uHandler::HandleSensor</text>
<text text-anchor="middle" x="1391" y="-50" font-family="Helvetica,sans-Serif" font-size="10.00">Errors</text>
</a>
</g>
</g>
<!-- Node2 -->
<g id="Node000002" class="node">
<title>Node2</title>
<g id="a_Node000002"><a xlink:href="classAs5047uHandler.html#a6854be00365afbb2eeddfb3177939456" target="_top" xlink:title="Update cached diagnostics.">
<polygon fill="white" stroke="#666666" points="1270,-67.5 1075,-67.5 1075,-48.5 1270,-48.5 1270,-67.5"/>
<text text-anchor="middle" x="1172.5" y="-55.5" font-family="Helvetica,sans-Serif" font-size="10.00">As5047uHandler::UpdateDiagnostics</text>
</a>
</g>
</g>
<!-- Node1&#45;&gt;Node2 -->
<g id="edge1_Node000001_Node000002" class="edge">
<title>Node1&#45;&gt;Node2</title>
<g id="a_edge1_Node000001_Node000002"><a xlink:title=" ">
<path fill="none" stroke="#63b8ff" d="M1295.97,-58C1287.39,-58 1278.68,-58 1270.07,-58"/>
<polygon fill="#63b8ff" stroke="#63b8ff" points="1295.99,-61.5 1305.99,-58 1295.99,-54.5 1295.99,-61.5"/>
</a>
</g>
</g>
<!-- Node3 -->
<g id="Node000003" class="node">
<title>Node3</title>
<g id="a_Node000003"><a xlink:href="classAs5047uHandler.html#a4dcfcea95fe8114ca7e0e5554d21ebc0" target="_top" xlink:title="Initialize the AS5047U sensor (lazy initialization)">
<polygon fill="white" stroke="#666666" points="1039,-67.5 894,-67.5 894,-48.5 1039,-48.5 1039,-67.5"/>
<text text-anchor="middle" x="966.5" y="-55.5" font-family="Helvetica,sans-Serif" font-size="10.00">As5047uHandler::Initialize</text>
</a>
</g>
</g>
<!-- Node2&#45;&gt;Node3 -->
<g id="edge2_Node000002_Node000003" class="edge">
<title>Node2&#45;&gt;Node3</title>
<g id="a_edge2_Node000002_Node000003"><a xlink:title=" ">
<path fill="none" stroke="#63b8ff" d="M1064.7,-58C1056.04,-58 1047.42,-58 1039.1,-58"/>
<polygon fill="#63b8ff" stroke="#63b8ff" points="1064.88,-61.5 1074.88,-58 1064.88,-54.5 1064.88,-61.5"/>
</a>
</g>
</g>
<!-- Node4 -->
<g id="Node000004" class="node">
<title>Node4</title>
<g id="a_Node000004"><a xlink:href="classAs5047uHandler.html#a040ba453eb7892ab3189631d73a2f683" target="_top" xlink:title="Ensure initialized while mutex is already held.">
<polygon fill="white" stroke="#666666" points="858,-73 674,-73 674,-43 858,-43 858,-73"/>
<text text-anchor="start" x="682" y="-61" font-family="Helvetica,sans-Serif" font-size="10.00">As5047uHandler::EnsureInitialized</text>
<text text-anchor="middle" x="766" y="-50" font-family="Helvetica,sans-Serif" font-size="10.00">Locked</text>
</a>
</g>
</g>
<!-- Node3&#45;&gt;Node4 -->
<g id="edge3_Node000003_Node000004" class="edge">
<title>Node3&#45;&gt;Node4</title>
<g id="a_edge3_Node000003_Node000004"><a xlink:title=" ">
<path fill="none" stroke="#63b8ff" d="M883.7,-58C875.31,-58 866.75,-58 858.26,-58"/>
<polygon fill="#63b8ff" stroke="#63b8ff" points="883.84,-61.5 893.84,-58 883.84,-54.5 883.84,-61.5"/>
</a>
</g>
</g>
<!-- Node5 -->
<g id="Node000005" class="node">
<title>Node5</title>
<g id="a_Node000005"><a xlink:href="classAs5047uHandler.html#a7f16efc74198279ee63c46d2b55825fa" target="_top" xlink:title="Ensure the handler is initialized (lazy init entrypoint).">
<polygon fill="white" stroke="#666666" points="638,-104.5 454,-104.5 454,-85.5 638,-85.5 638,-104.5"/>
<text text-anchor="middle" x="546" y="-92.5" font-family="Helvetica,sans-Serif" font-size="10.00">As5047uHandler::EnsureInitialized</text>
</a>
</g>
</g>
<!-- Node4&#45;&gt;Node5 -->
<g id="edge4_Node000004_Node000005" class="edge">
<title>Node4&#45;&gt;Node5</title>
<g id="a_edge4_Node000004_Node000005"><a xlink:title=" ">
<path fill="none" stroke="#63b8ff" d="M666.4,-74.73C644.68,-78.42 622.41,-82.2 603.07,-85.48"/>
<polygon fill="#63b8ff" stroke="#63b8ff" points="667.06,-78.17 676.33,-73.05 665.89,-71.27 667.06,-78.17"/>
</a>
</g>
</g>
<!-- Node6 -->
<g id="Node000006" class="node">
<title>Node6</title>
<g id="a_Node000006"><a xlink:href="classAs5047uHandler.html#a7935a51fb2973e3a1793d378fc50118a" target="_top" xlink:title="Get pointer to AS5047U driver for advanced operations.">
<polygon fill="white" stroke="#666666" points="622.5,-67.5 469.5,-67.5 469.5,-48.5 622.5,-48.5 622.5,-67.5"/>
<text text-anchor="middle" x="546" y="-55.5" font-family="Helvetica,sans-Serif" font-size="10.00">As5047uHandler::GetSensor</text>
</a>
</g>
</g>
<!-- Node4&#45;&gt;Node6 -->
<g id="edge5_Node000004_Node000006" class="edge">
<title>Node4&#45;&gt;Node6</title>
<g id="a_edge5_Node000004_Node000006"><a xlink:title=" ">
<path fill="none" stroke="#63b8ff" d="M663.77,-58C649.93,-58 635.92,-58 622.64,-58"/>
<polygon fill="#63b8ff" stroke="#63b8ff" points="663.81,-61.5 673.81,-58 663.81,-54.5 663.81,-61.5"/>
</a>
</g>
</g>
<!-- Node11 -->
<g id="Node000011" class="node">
<title>Node11</title>
<g id="a_Node000011"><a xlink:href="classAs5047uHandler.html#a10eeb015c791ff484935168e3683c053" target="_top" xlink:title="Validate sensor parameters.">
<polygon fill="white" stroke="#666666" points="617.5,-30 474.5,-30 474.5,0 617.5,0 617.5,-30"/>
<text text-anchor="start" x="482.5" y="-18" font-family="Helvetica,sans-Serif" font-size="10.00">As5047uHandler::Validate</text>
<text text-anchor="middle" x="546" y="-7" font-family="Helvetica,sans-Serif" font-size="10.00">Sensor</text>
</a>
</g>
</g>
<!-- Node4&#45;&gt;Node11 -->
<g id="edge11_Node000004_Node000011" class="edge">
<title>Node4&#45;&gt;Node11</title>
<g id="a_edge11_Node000004_Node000011"><a xlink:title=" ">
<path fill="none" stroke="#63b8ff" d="M678.9,-41.02C658.62,-37.02 637.23,-32.8 617.72,-28.95"/>
<polygon fill="#63b8ff" stroke="#63b8ff" points="678.27,-44.46 688.75,-42.96 679.62,-37.59 678.27,-44.46"/>
</a>
</g>
</g>
<!-- Node7 -->
<g id="Node000007" class="node">
<title>Node7</title>
<g id="a_Node000007"><a xlink:href="as5047u__handler__comprehensive__test_8cpp.html#aaa3a69b37bf8fcd8431b8495e9b311ca" target="_top" xlink:title=" ">
<polygon fill="white" stroke="#666666" points="418,-86.5 287,-86.5 287,-67.5 418,-67.5 418,-86.5"/>
<text text-anchor="middle" x="352.5" y="-74.5" font-family="Helvetica,sans-Serif" font-size="10.00">concurrent_reader_task</text>
</a>
</g>
</g>
<!-- Node6&#45;&gt;Node7 -->
<g id="edge6_Node000006_Node000007" class="edge">
<title>Node6&#45;&gt;Node7</title>
<g id="a_edge6_Node000006_Node000007"><a xlink:title=" ">
<path fill="none" stroke="#63b8ff" d="M459.31,-66.5C445.47,-67.87 431.35,-69.28 418.12,-70.59"/>
<polygon fill="#63b8ff" stroke="#63b8ff" points="459.71,-69.98 469.31,-65.51 459.02,-63.01 459.71,-69.98"/>
</a>
</g>
</g>
<!-- Node10 -->
<g id="Node000010" class="node">
<title>Node10</title>
<g id="a_Node000010"><a xlink:href="as5047u__handler__comprehensive__test_8cpp.html#ac83f97b7754666b5e7733941b37c5630" target="_top" xlink:title=" ">
<polygon fill="white" stroke="#666666" points="251,-48.5 101,-48.5 101,-29.5 251,-29.5 251,-48.5"/>
<text text-anchor="middle" x="176" y="-36.5" font-family="Helvetica,sans-Serif" font-size="10.00">test_operations_before_init</text>
</a>
</g>
</g>
<!-- Node6&#45;&gt;Node10 -->
<g id="edge9_Node000006_Node000010" class="edge">
<title>Node6&#45;&gt;Node10</title>
<g id="a_edge9_Node000006_Node000010"><a xlink:title=" ">
<path fill="none" stroke="#63b8ff" d="M458.88,-53.55C395.84,-50.3 311.17,-45.93 251.13,-42.83"/>
<polygon fill="#63b8ff" stroke="#63b8ff" points="459.03,-57.07 469.2,-54.09 459.39,-50.08 459.03,-57.07"/>
</a>
</g>
</g>
<!-- Node8 -->
<g id="Node000008" class="node">
<title>Node8</title>
<g id="a_Node000008"><a xlink:href="as5047u__handler__comprehensive__test_8cpp.html#ae9b39916d49066b59641c5ae10376c84" target="_top" xlink:title=" ">
<polygon fill="white" stroke="#666666" points="241.5,-85.5 110.5,-85.5 110.5,-66.5 241.5,-66.5 241.5,-85.5"/>
<text text-anchor="middle" x="176" y="-73.5" font-family="Helvetica,sans-Serif" font-size="10.00">test_concurrent_access</text>
</a>
</g>
</g>
<!-- Node7&#45;&gt;Node8 -->
<g id="edge7_Node000007_Node000008" class="edge">
<title>Node7&#45;&gt;Node8</title>
<g id="a_edge7_Node000007_Node000008"><a xlink:title=" ">
<path fill="none" stroke="#63b8ff" d="M276.46,-76.57C264.9,-76.5 253.05,-76.44 241.74,-76.37"/>
<polygon fill="#63b8ff" stroke="#63b8ff" points="276.5,-80.07 286.52,-76.63 276.54,-73.07 276.5,-80.07"/>
</a>
</g>
</g>
<!-- Node9 -->
<g id="Node000009" class="node">
<title>Node9</title>
<g id="a_Node000009"><a xlink:href="as5047u__handler__comprehensive__test_8cpp.html#a630544a7f0a2cc40d8a7fefab7e2fe70" target="_top" xlink:title=" ">
<polygon fill="white" stroke="#666666" points="65,-66.5 0,-66.5 0,-47.5 65,-47.5 65,-66.5"/>
<text text-anchor="middle" x="32.5" y="-54.5" font-family="Helvetica,sans-Serif" font-size="10.00">app_main</text>
</a>
</g>
</g>
<!-- Node8&#45;&gt;Node9 -->
<g id="edge8_Node000008_Node000009" class="edge">
<title>Node8&#45;&gt;Node9</title>
<g id="a_edge8_Node000008_Node000009"><a xlink:title=" ">
<path fill="none" stroke="#63b8ff" d="M100.47,-65.99C88.02,-64.32 75.73,-62.67 65.14,-61.25"/>
<polygon fill="#63b8ff" stroke="#63b8ff" points="100.08,-69.47 110.46,-67.33 101.02,-62.53 100.08,-69.47"/>
</a>
</g>
</g>
<!-- Node10&#45;&gt;Node9 -->
<g id="edge10_Node000010_Node000009" class="edge">
<title>Node10&#45;&gt;Node9</title>
<g id="a_edge10_Node000010_Node000009"><a xlink:title=" ">
<path fill="none" stroke="#63b8ff" d="M90.98,-49.69C81.88,-50.85 73.09,-51.96 65.23,-52.96"/>
<polygon fill="#63b8ff" stroke="#63b8ff" points="91.46,-53.16 100.93,-48.42 90.57,-46.21 91.46,-53.16"/>
</a>
</g>
</g>
</g>
</svg>
