<?xml version="1.0" encoding="UTF-8" standalone="no"?>
<!DOCTYPE svg PUBLIC "-//W3C//DTD SVG 1.1//EN"
 "http://www.w3.org/Graphics/SVG/1.1/DTD/svg11.dtd">
<!-- Generated by graphviz version 2.43.0 (0)
 -->
<!-- Title: Tmc9660Handler::GetExternalTemperature Pages: 1 -->
<svg width="568pt" height="114pt"
 viewBox="0.00 0.00 568.00 113.50" xmlns="http://www.w3.org/2000/svg" xmlns:xlink="http://www.w3.org/1999/xlink">
<g id="graph0" class="graph" transform="scale(1 1) rotate(0) translate(4 109.5)">
<title>Tmc9660Handler::GetExternalTemperature</title>
<!-- Node1 -->
<g id="Node000001" class="node">
<title>Node1</title>
<g id="a_Node000001"><a xlink:title="Read the external temperature sensor raw value.">
<polygon fill="#999999" stroke="#666666" points="164,-62.5 0,-62.5 0,-32.5 164,-32.5 164,-62.5"/>
<text text-anchor="start" x="8" y="-50.5" font-family="Helvetica,sans-Serif" font-size="10.00">Tmc9660Handler::GetExternal</text>
<text text-anchor="middle" x="82" y="-39.5" font-family="Helvetica,sans-Serif" font-size="10.00">Temperature</text>
</a>
</g>
</g>
<!-- Node2 -->
<g id="Node000002" class="node">
<title>Node2</title>
<g id="a_Node000002"><a xlink:href="classTmc9660Handler.html#a13db97d201a287d8aa60384e04070b9f" target="_top" xlink:title="Check if the TMC9660 driver has been initialized and is ready.">
<polygon fill="white" stroke="#666666" points="350.5,-105.5 206.5,-105.5 206.5,-75.5 350.5,-75.5 350.5,-105.5"/>
<text text-anchor="start" x="214.5" y="-93.5" font-family="Helvetica,sans-Serif" font-size="10.00">Tmc9660Handler::IsDriver</text>
<text text-anchor="middle" x="278.5" y="-82.5" font-family="Helvetica,sans-Serif" font-size="10.00">Ready</text>
</a>
</g>
</g>
<!-- Node1&#45;&gt;Node2 -->
<g id="edge1_Node000001_Node000002" class="edge">
<title>Node1&#45;&gt;Node2</title>
<g id="a_edge1_Node000001_Node000002"><a xlink:title=" ">
<path fill="none" stroke="#63b8ff" d="M151.03,-62.54C166.72,-66.01 183.53,-69.73 199.61,-73.28"/>
<polygon fill="#63b8ff" stroke="#63b8ff" points="198.99,-76.73 209.51,-75.47 200.5,-69.89 198.99,-76.73"/>
</a>
</g>
</g>
<!-- Node3 -->
<g id="Node000003" class="node">
<title>Node3</title>
<g id="a_Node000003"><a xlink:href="classTmc9660Handler.html#a393382194d0602e7aa02da6a8fd7a20a" target="_top" xlink:title="Get a reference to the Temperature wrapper.">
<polygon fill="white" stroke="#666666" points="560,-38 393,-38 393,-19 560,-19 560,-38"/>
<text text-anchor="middle" x="476.5" y="-26" font-family="Helvetica,sans-Serif" font-size="10.00">Tmc9660Handler::temperature</text>
</a>
</g>
</g>
<!-- Node1&#45;&gt;Node3 -->
<g id="edge2_Node000001_Node000003" class="edge">
<title>Node1&#45;&gt;Node3</title>
<g id="a_edge2_Node000001_Node000003"><a xlink:title=" ">
<path fill="none" stroke="#63b8ff" d="M164.33,-43.56C227.97,-40.48 316.52,-36.2 382.89,-32.98"/>
<polygon fill="#63b8ff" stroke="#63b8ff" points="383.11,-36.48 392.93,-32.5 382.77,-29.48 383.11,-36.48"/>
</a>
</g>
</g>
<!-- Node4 -->
<g id="Node000004" class="node">
<title>Node4</title>
<g id="a_Node000004"><a xlink:href="classTmc9660Handler.html#a4360829b58deda85e9da4b9cebee96f0" target="_top" xlink:title="Execute a function on the underlying typed TMC9660 driver.">
<polygon fill="white" stroke="#666666" points="357,-19 200,-19 200,0 357,0 357,-19"/>
<text text-anchor="middle" x="278.5" y="-7" font-family="Helvetica,sans-Serif" font-size="10.00">Tmc9660Handler::visitDriver</text>
</a>
</g>
</g>
<!-- Node1&#45;&gt;Node4 -->
<g id="edge3_Node000001_Node000004" class="edge">
<title>Node1&#45;&gt;Node4</title>
<g id="a_edge3_Node000001_Node000004"><a xlink:title=" ">
<path fill="none" stroke="#63b8ff" d="M159.87,-32.48C179.49,-28.65 200.27,-24.59 218.82,-20.96"/>
<polygon fill="#63b8ff" stroke="#63b8ff" points="219.73,-24.35 228.87,-19 218.38,-17.48 219.73,-24.35"/>
</a>
</g>
</g>
<!-- Node4&#45;&gt;Node3 -->
<g id="edge4_Node000004_Node000003" class="edge">
<title>Node4&#45;&gt;Node3</title>
<g id="a_edge4_Node000004_Node000003"><a xlink:title=" ">
<path fill="none" stroke="#63b8ff" d="M357.25,-17.04C365.62,-17.85 374.2,-18.68 382.73,-19.51"/>
<polygon fill="#63b8ff" stroke="#63b8ff" points="382.4,-22.99 392.7,-20.47 383.08,-16.02 382.4,-22.99"/>
</a>
</g>
</g>
</g>
</svg>
