<?xml version="1.0" encoding="UTF-8" standalone="no"?>
<!DOCTYPE svg PUBLIC "-//W3C//DTD SVG 1.1//EN"
 "http://www.w3.org/Graphics/SVG/1.1/DTD/svg11.dtd">
<!-- Generated by graphviz version 2.43.0 (0)
 -->
<!-- Title: Tmc5160Handler::Initialize Pages: 1 -->
<svg width="471pt" height="138pt"
 viewBox="0.00 0.00 471.00 138.00" xmlns="http://www.w3.org/2000/svg" xmlns:xlink="http://www.w3.org/1999/xlink">
<g id="graph0" class="graph" transform="scale(1 1) rotate(0) translate(4 134)">
<title>Tmc5160Handler::Initialize</title>
<!-- Node1 -->
<g id="Node000001" class="node">
<title>Node1</title>
<g id="a_Node000001"><a xlink:title="Initialize the TMC5160 driver with full configuration.">
<polygon fill="#999999" stroke="#666666" points="148,-74 0,-74 0,-55 148,-55 148,-74"/>
<text text-anchor="middle" x="74" y="-62" font-family="Helvetica,sans-Serif" font-size="10.00">Tmc5160Handler::Initialize</text>
</a>
</g>
</g>
<!-- Node2 -->
<g id="Node000002" class="node">
<title>Node2</title>
<g id="a_Node000002"><a xlink:href="classLogger.html#a5e4bcdaea60b9ac227b564d780388769" target="_top" xlink:title="Log error message.">
<polygon fill="white" stroke="#666666" points="280.5,-130 201.5,-130 201.5,-111 280.5,-111 280.5,-130"/>
<text text-anchor="middle" x="241" y="-118" font-family="Helvetica,sans-Serif" font-size="10.00">Logger::Error</text>
</a>
</g>
</g>
<!-- Node1&#45;&gt;Node2 -->
<g id="edge1_Node000001_Node000002" class="edge">
<title>Node1&#45;&gt;Node2</title>
<g id="a_edge1_Node000001_Node000002"><a xlink:title=" ">
<path fill="none" stroke="#63b8ff" d="M101.81,-74.05C123.84,-81.85 155.88,-93.08 184,-102.5 189.2,-104.24 194.69,-106.05 200.12,-107.81"/>
<polygon fill="#63b8ff" stroke="#63b8ff" points="199.14,-111.17 209.73,-110.92 201.29,-104.51 199.14,-111.17"/>
</a>
</g>
</g>
<!-- Node5 -->
<g id="Node000005" class="node">
<title>Node5</title>
<g id="a_Node000005"><a xlink:href="classLogger.html#a5789d11f8f1356e2192c0023a089cbc4" target="_top" xlink:title="Get singleton instance.">
<polygon fill="white" stroke="#666666" points="298,-19 184,-19 184,0 298,0 298,-19"/>
<text text-anchor="middle" x="241" y="-7" font-family="Helvetica,sans-Serif" font-size="10.00">Logger::GetInstance</text>
</a>
</g>
</g>
<!-- Node1&#45;&gt;Node5 -->
<g id="edge4_Node000001_Node000005" class="edge">
<title>Node1&#45;&gt;Node5</title>
<g id="a_edge4_Node000001_Node000005"><a xlink:title=" ">
<path fill="none" stroke="#63b8ff" d="M102.73,-54.95C124.74,-47.4 156.3,-36.65 184,-27.5 189.27,-25.76 194.83,-23.94 200.32,-22.17"/>
<polygon fill="#63b8ff" stroke="#63b8ff" points="201.59,-25.43 210.04,-19.03 199.44,-18.77 201.59,-25.43"/>
</a>
</g>
</g>
<!-- Node6 -->
<g id="Node000006" class="node">
<title>Node6</title>
<g id="a_Node000006"><a xlink:href="classLogger.html#a1c0c947d87884bca0395fd38d19d1102" target="_top" xlink:title="Log info message.">
<polygon fill="white" stroke="#666666" points="278,-93 204,-93 204,-74 278,-74 278,-93"/>
<text text-anchor="middle" x="241" y="-81" font-family="Helvetica,sans-Serif" font-size="10.00">Logger::Info</text>
</a>
</g>
</g>
<!-- Node1&#45;&gt;Node6 -->
<g id="edge5_Node000001_Node000006" class="edge">
<title>Node1&#45;&gt;Node6</title>
<g id="a_edge5_Node000001_Node000006"><a xlink:title=" ">
<path fill="none" stroke="#63b8ff" d="M148.33,-72.94C163.85,-74.73 179.8,-76.57 193.96,-78.2"/>
<polygon fill="#63b8ff" stroke="#63b8ff" points="193.58,-81.68 203.92,-79.35 194.38,-74.72 193.58,-81.68"/>
</a>
</g>
</g>
<!-- Node7 -->
<g id="Node000007" class="node">
<title>Node7</title>
<g id="a_Node000007"><a xlink:href="classLogger.html#a8c19c14724b0be1d2be63da4258c001a" target="_top" xlink:title="Log warning message.">
<polygon fill="white" stroke="#666666" points="281,-56 201,-56 201,-37 281,-37 281,-56"/>
<text text-anchor="middle" x="241" y="-44" font-family="Helvetica,sans-Serif" font-size="10.00">Logger::Warn</text>
</a>
</g>
</g>
<!-- Node1&#45;&gt;Node7 -->
<g id="edge8_Node000001_Node000007" class="edge">
<title>Node1&#45;&gt;Node7</title>
<g id="a_edge8_Node000001_Node000007"><a xlink:title=" ">
<path fill="none" stroke="#63b8ff" d="M148.33,-56.5C162.59,-54.94 177.23,-53.35 190.49,-51.9"/>
<polygon fill="#63b8ff" stroke="#63b8ff" points="191.25,-55.34 200.81,-50.78 190.49,-48.38 191.25,-55.34"/>
</a>
</g>
</g>
<!-- Node3 -->
<g id="Node000003" class="node">
<title>Node3</title>
<g id="a_Node000003"><a xlink:href="classLogger.html#a737b981213c02321a5235848334d7191" target="_top" xlink:title="Check if log level is enabled for tag.">
<polygon fill="white" stroke="#666666" points="463,-111 334,-111 334,-92 463,-92 463,-111"/>
<text text-anchor="middle" x="398.5" y="-99" font-family="Helvetica,sans-Serif" font-size="10.00">Logger::IsLevelEnabled</text>
</a>
</g>
</g>
<!-- Node2&#45;&gt;Node3 -->
<g id="edge2_Node000002_Node000003" class="edge">
<title>Node2&#45;&gt;Node3</title>
<g id="a_edge2_Node000002_Node000003"><a xlink:title=" ">
<path fill="none" stroke="#63b8ff" d="M280.84,-115.75C293.85,-114.16 308.82,-112.34 323.6,-110.53"/>
<polygon fill="#63b8ff" stroke="#63b8ff" points="324.28,-113.97 333.78,-109.29 323.43,-107.02 324.28,-113.97"/>
</a>
</g>
</g>
<!-- Node4 -->
<g id="Node000004" class="node">
<title>Node4</title>
<g id="a_Node000004"><a xlink:href="classLogger.html#aeede6ac18db92a47caede076ef188a13" target="_top" xlink:title="Internal logging method.">
<polygon fill="white" stroke="#666666" points="453.5,-74 343.5,-74 343.5,-55 453.5,-55 453.5,-74"/>
<text text-anchor="middle" x="398.5" y="-62" font-family="Helvetica,sans-Serif" font-size="10.00">Logger::LogInternal</text>
</a>
</g>
</g>
<!-- Node2&#45;&gt;Node4 -->
<g id="edge3_Node000002_Node000004" class="edge">
<title>Node2&#45;&gt;Node4</title>
<g id="a_edge3_Node000002_Node000004"><a xlink:title=" ">
<path fill="none" stroke="#63b8ff" d="M274.92,-110.98C282.59,-108.47 290.66,-105.59 298,-102.5 314.68,-95.48 317.25,-90.35 334,-83.5 339.53,-81.24 345.42,-79.12 351.31,-77.16"/>
<polygon fill="#63b8ff" stroke="#63b8ff" points="352.67,-80.41 361.14,-74.05 350.55,-73.73 352.67,-80.41"/>
</a>
</g>
</g>
<!-- Node6&#45;&gt;Node3 -->
<g id="edge6_Node000006_Node000003" class="edge">
<title>Node6&#45;&gt;Node3</title>
<g id="a_edge6_Node000006_Node000003"><a xlink:title=" ">
<path fill="none" stroke="#63b8ff" d="M278.07,-87.67C291.68,-89.25 307.72,-91.11 323.55,-92.94"/>
<polygon fill="#63b8ff" stroke="#63b8ff" points="323.55,-96.46 333.89,-94.14 324.36,-89.51 323.55,-96.46"/>
</a>
</g>
</g>
<!-- Node6&#45;&gt;Node4 -->
<g id="edge7_Node000006_Node000004" class="edge">
<title>Node6&#45;&gt;Node4</title>
<g id="a_edge7_Node000006_Node000004"><a xlink:title=" ">
<path fill="none" stroke="#63b8ff" d="M278.07,-79.09C294.49,-77.09 314.44,-74.65 333.3,-72.34"/>
<polygon fill="#63b8ff" stroke="#63b8ff" points="333.83,-75.81 343.33,-71.12 332.98,-68.86 333.83,-75.81"/>
</a>
</g>
</g>
<!-- Node7&#45;&gt;Node3 -->
<g id="edge9_Node000007_Node000003" class="edge">
<title>Node7&#45;&gt;Node3</title>
<g id="a_edge9_Node000007_Node000003"><a xlink:title=" ">
<path fill="none" stroke="#63b8ff" d="M272.51,-56.01C280.86,-58.84 289.85,-62.1 298,-65.5 314.51,-72.39 317.32,-77.03 334,-83.5 339.07,-85.47 344.45,-87.33 349.85,-89.05"/>
<polygon fill="#63b8ff" stroke="#63b8ff" points="348.92,-92.42 359.51,-91.99 350.96,-85.73 348.92,-92.42"/>
</a>
</g>
</g>
<!-- Node7&#45;&gt;Node4 -->
<g id="edge10_Node000007_Node000004" class="edge">
<title>Node7&#45;&gt;Node4</title>
<g id="a_edge10_Node000007_Node000004"><a xlink:title=" ">
<path fill="none" stroke="#63b8ff" d="M281.24,-51.04C296.96,-52.86 315.49,-55.01 333.08,-57.04"/>
<polygon fill="#63b8ff" stroke="#63b8ff" points="332.96,-60.55 343.3,-58.23 333.77,-53.6 332.96,-60.55"/>
</a>
</g>
</g>
</g>
</svg>
