<?xml version="1.0" encoding="UTF-8" standalone="no"?>
<!DOCTYPE svg PUBLIC "-//W3C//DTD SVG 1.1//EN"
 "http://www.w3.org/Graphics/SVG/1.1/DTD/svg11.dtd">
<!-- Generated by graphviz version 2.43.0 (0)
 -->
<!-- Title: Tmc9660Handler::visitDriver Pages: 1 -->
<svg width="1313pt" height="114pt"
 viewBox="0.00 0.00 1313.00 114.00" xmlns="http://www.w3.org/2000/svg" xmlns:xlink="http://www.w3.org/1999/xlink">
<g id="graph0" class="graph" transform="scale(1 1) rotate(0) translate(4 110)">
<title>Tmc9660Handler::visitDriver</title>
<!-- Node1 -->
<g id="Node000001" class="node">
<title>Node1</title>
<g id="a_Node000001"><a xlink:title="Execute a function on the underlying typed TMC9660 driver.">
<polygon fill="#999999" stroke="#666666" points="157,-47 0,-47 0,-28 157,-28 157,-47"/>
<text text-anchor="middle" x="78.5" y="-35" font-family="Helvetica,sans-Serif" font-size="10.00">Tmc9660Handler::visitDriver</text>
</a>
</g>
</g>
<!-- Node2 -->
<g id="Node000002" class="node">
<title>Node2</title>
<g id="a_Node000002"><a xlink:href="classTmc9660Handler.html#a7c1d8073576d678b09dac24c9eb12845" target="_top" xlink:title="Ensure initialized while handler_mutex_ is already held.">
<polygon fill="white" stroke="#666666" points="806,-52.5 619,-52.5 619,-22.5 806,-22.5 806,-52.5"/>
<text text-anchor="start" x="627" y="-40.5" font-family="Helvetica,sans-Serif" font-size="10.00">Tmc9660Handler::EnsureInitialized</text>
<text text-anchor="middle" x="712.5" y="-29.5" font-family="Helvetica,sans-Serif" font-size="10.00">Locked</text>
</a>
</g>
</g>
<!-- Node1&#45;&gt;Node2 -->
<g id="edge1_Node000001_Node000002" class="edge">
<title>Node1&#45;&gt;Node2</title>
<g id="a_edge1_Node000001_Node000002"><a xlink:title=" ">
<path fill="none" stroke="#63b8ff" d="M157.3,-44.49C169.24,-45.32 181.45,-46.04 193,-46.5 337.09,-52.2 503.84,-47.25 608.49,-42.74"/>
<polygon fill="#63b8ff" stroke="#63b8ff" points="608.9,-46.22 618.74,-42.29 608.59,-39.23 608.9,-46.22"/>
</a>
</g>
</g>
<!-- Node10 -->
<g id="Node000010" class="node">
<title>Node10</title>
<g id="a_Node000010"><a xlink:href="classTmc9660Handler.html#a393382194d0602e7aa02da6a8fd7a20a" target="_top" xlink:title="Get a reference to the Temperature wrapper.">
<polygon fill="white" stroke="#666666" points="360,-19 193,-19 193,0 360,0 360,-19"/>
<text text-anchor="middle" x="276.5" y="-7" font-family="Helvetica,sans-Serif" font-size="10.00">Tmc9660Handler::temperature</text>
</a>
</g>
</g>
<!-- Node1&#45;&gt;Node10 -->
<g id="edge11_Node000001_Node000010" class="edge">
<title>Node1&#45;&gt;Node10</title>
<g id="a_edge11_Node000001_Node000010"><a xlink:title=" ">
<path fill="none" stroke="#63b8ff" d="M146.13,-27.98C163.01,-25.57 181.29,-22.96 198.63,-20.48"/>
<polygon fill="#63b8ff" stroke="#63b8ff" points="199.32,-23.92 208.72,-19.04 198.33,-16.99 199.32,-23.92"/>
</a>
</g>
</g>
<!-- Node3 -->
<g id="Node000003" class="node">
<title>Node3</title>
<g id="a_Node000003"><a xlink:href="classTmc9660Handler.html#adc564847f8ae26c47412aaee0758991c" target="_top" xlink:title="Initialize the TMC9660 device.">
<polygon fill="white" stroke="#666666" points="990,-69 842,-69 842,-50 990,-50 990,-69"/>
<text text-anchor="middle" x="916" y="-57" font-family="Helvetica,sans-Serif" font-size="10.00">Tmc9660Handler::Initialize</text>
</a>
</g>
</g>
<!-- Node2&#45;&gt;Node3 -->
<g id="edge2_Node000002_Node000003" class="edge">
<title>Node2&#45;&gt;Node3</title>
<g id="a_edge2_Node000002_Node000003"><a xlink:title=" ">
<path fill="none" stroke="#63b8ff" d="M806.29,-47.63C814.73,-48.55 823.25,-49.48 831.61,-50.4"/>
<polygon fill="#63b8ff" stroke="#63b8ff" points="831.38,-53.89 841.7,-51.5 832.14,-46.93 831.38,-53.89"/>
</a>
</g>
</g>
<!-- Node9 -->
<g id="Node000009" class="node">
<title>Node9</title>
<g id="a_Node000009"><a xlink:href="classTmc9660Handler.html#a13db97d201a287d8aa60384e04070b9f" target="_top" xlink:title="Check if the TMC9660 driver has been initialized and is ready.">
<polygon fill="white" stroke="#666666" points="988,-31.5 844,-31.5 844,-1.5 988,-1.5 988,-31.5"/>
<text text-anchor="start" x="852" y="-19.5" font-family="Helvetica,sans-Serif" font-size="10.00">Tmc9660Handler::IsDriver</text>
<text text-anchor="middle" x="916" y="-8.5" font-family="Helvetica,sans-Serif" font-size="10.00">Ready</text>
</a>
</g>
</g>
<!-- Node2&#45;&gt;Node9 -->
<g id="edge10_Node000002_Node000009" class="edge">
<title>Node2&#45;&gt;Node9</title>
<g id="a_edge10_Node000002_Node000009"><a xlink:title=" ">
<path fill="none" stroke="#63b8ff" d="M806.29,-27.83C815.44,-26.88 824.69,-25.91 833.71,-24.97"/>
<polygon fill="#63b8ff" stroke="#63b8ff" points="834.21,-28.44 843.8,-23.92 833.49,-21.48 834.21,-28.44"/>
</a>
</g>
</g>
<!-- Node4 -->
<g id="Node000004" class="node">
<title>Node4</title>
<g id="a_Node000004"><a xlink:href="classLogger.html#adce17848a5844e053bfd314863dc1404" target="_top" xlink:title="Log error message.">
<polygon fill="white" stroke="#666666" points="1122.5,-69 1043.5,-69 1043.5,-50 1122.5,-50 1122.5,-69"/>
<text text-anchor="middle" x="1083" y="-57" font-family="Helvetica,sans-Serif" font-size="10.00">Logger::Error</text>
</a>
</g>
</g>
<!-- Node3&#45;&gt;Node4 -->
<g id="edge3_Node000003_Node000004" class="edge">
<title>Node3&#45;&gt;Node4</title>
<g id="a_edge3_Node000003_Node000004"><a xlink:title=" ">
<path fill="none" stroke="#63b8ff" d="M990.33,-59.5C1004.73,-59.5 1019.5,-59.5 1032.87,-59.5"/>
<polygon fill="#63b8ff" stroke="#63b8ff" points="1033.26,-63 1043.26,-59.5 1033.26,-56 1033.26,-63"/>
</a>
</g>
</g>
<!-- Node7 -->
<g id="Node000007" class="node">
<title>Node7</title>
<g id="a_Node000007"><a xlink:href="classLogger.html#a5789d11f8f1356e2192c0023a089cbc4" target="_top" xlink:title="Get singleton instance.">
<polygon fill="white" stroke="#666666" points="1140,-32 1026,-32 1026,-13 1140,-13 1140,-32"/>
<text text-anchor="middle" x="1083" y="-20" font-family="Helvetica,sans-Serif" font-size="10.00">Logger::GetInstance</text>
</a>
</g>
</g>
<!-- Node3&#45;&gt;Node7 -->
<g id="edge6_Node000003_Node000007" class="edge">
<title>Node3&#45;&gt;Node7</title>
<g id="a_edge6_Node000003_Node000007"><a xlink:title=" ">
<path fill="none" stroke="#63b8ff" d="M959.49,-49.97C980.87,-45.18 1006.97,-39.32 1029.58,-34.25"/>
<polygon fill="#63b8ff" stroke="#63b8ff" points="1030.37,-37.66 1039.37,-32.06 1028.84,-30.83 1030.37,-37.66"/>
</a>
</g>
</g>
<!-- Node8 -->
<g id="Node000008" class="node">
<title>Node8</title>
<g id="a_Node000008"><a xlink:href="classLogger.html#a4681229c521795685fc14f6b55c82300" target="_top" xlink:title="Log info message.">
<polygon fill="white" stroke="#666666" points="1120,-106 1046,-106 1046,-87 1120,-87 1120,-106"/>
<text text-anchor="middle" x="1083" y="-94" font-family="Helvetica,sans-Serif" font-size="10.00">Logger::Info</text>
</a>
</g>
</g>
<!-- Node3&#45;&gt;Node8 -->
<g id="edge7_Node000003_Node000008" class="edge">
<title>Node3&#45;&gt;Node8</title>
<g id="a_edge7_Node000003_Node000008"><a xlink:title=" ">
<path fill="none" stroke="#63b8ff" d="M959.49,-69.03C982.89,-74.27 1011.94,-80.79 1035.89,-86.16"/>
<polygon fill="#63b8ff" stroke="#63b8ff" points="1035.28,-89.61 1045.8,-88.38 1036.81,-82.78 1035.28,-89.61"/>
</a>
</g>
</g>
<!-- Node5 -->
<g id="Node000005" class="node">
<title>Node5</title>
<g id="a_Node000005"><a xlink:href="classLogger.html#af9e84e0ff6bd538e4f9ed8dcebc3e2f0" target="_top" xlink:title="Check if log level is enabled for tag.">
<polygon fill="white" stroke="#666666" points="1305,-106 1176,-106 1176,-87 1305,-87 1305,-106"/>
<text text-anchor="middle" x="1240.5" y="-94" font-family="Helvetica,sans-Serif" font-size="10.00">Logger::IsLevelEnabled</text>
</a>
</g>
</g>
<!-- Node4&#45;&gt;Node5 -->
<g id="edge4_Node000004_Node000005" class="edge">
<title>Node4&#45;&gt;Node5</title>
<g id="a_edge4_Node000004_Node000005"><a xlink:title=" ">
<path fill="none" stroke="#63b8ff" d="M1122.84,-68.74C1143.03,-73.55 1167.94,-79.47 1189.55,-84.61"/>
<polygon fill="#63b8ff" stroke="#63b8ff" points="1189,-88.08 1199.53,-86.99 1190.62,-81.27 1189,-88.08"/>
</a>
</g>
</g>
<!-- Node6 -->
<g id="Node000006" class="node">
<title>Node6</title>
<g id="a_Node000006"><a xlink:href="classLogger.html#a6adb205db597526fb91ad20067400394" target="_top" xlink:title="Internal logging method.">
<polygon fill="white" stroke="#666666" points="1295.5,-69 1185.5,-69 1185.5,-50 1295.5,-50 1295.5,-69"/>
<text text-anchor="middle" x="1240.5" y="-57" font-family="Helvetica,sans-Serif" font-size="10.00">Logger::LogInternal</text>
</a>
</g>
</g>
<!-- Node4&#45;&gt;Node6 -->
<g id="edge5_Node000004_Node000006" class="edge">
<title>Node4&#45;&gt;Node6</title>
<g id="a_edge5_Node000004_Node000006"><a xlink:title=" ">
<path fill="none" stroke="#63b8ff" d="M1122.84,-59.5C1138.63,-59.5 1157.31,-59.5 1175.03,-59.5"/>
<polygon fill="#63b8ff" stroke="#63b8ff" points="1175.33,-63 1185.33,-59.5 1175.33,-56 1175.33,-63"/>
</a>
</g>
</g>
<!-- Node8&#45;&gt;Node5 -->
<g id="edge8_Node000008_Node000005" class="edge">
<title>Node8&#45;&gt;Node5</title>
<g id="a_edge8_Node000008_Node000005"><a xlink:title=" ">
<path fill="none" stroke="#63b8ff" d="M1120.07,-96.5C1133.68,-96.5 1149.72,-96.5 1165.55,-96.5"/>
<polygon fill="#63b8ff" stroke="#63b8ff" points="1165.89,-100 1175.89,-96.5 1165.89,-93 1165.89,-100"/>
</a>
</g>
</g>
<!-- Node8&#45;&gt;Node6 -->
<g id="edge9_Node000008_Node000006" class="edge">
<title>Node8&#45;&gt;Node6</title>
<g id="a_edge9_Node000008_Node000006"><a xlink:title=" ">
<path fill="none" stroke="#63b8ff" d="M1120.07,-87.92C1140.78,-82.99 1167.09,-76.73 1189.74,-71.34"/>
<polygon fill="#63b8ff" stroke="#63b8ff" points="1190.61,-74.73 1199.53,-69.01 1188.99,-67.92 1190.61,-74.73"/>
</a>
</g>
</g>
<!-- Node10&#45;&gt;Node10 -->
<g id="edge15_Node000010_Node000010" class="edge">
<title>Node10&#45;&gt;Node10</title>
<g id="a_edge15_Node000010_Node000010"><a xlink:title=" ">
<path fill="none" stroke="#63b8ff" d="M245.98,-19.08C231.14,-27.73 241.31,-37 276.5,-37 301.24,-37 313.62,-32.42 313.62,-26.69"/>
<polygon fill="#63b8ff" stroke="#63b8ff" points="316.22,-24.34 307.02,-19.08 310.93,-28.93 316.22,-24.34"/>
</a>
</g>
</g>
<!-- Node11 -->
<g id="Node000011" class="node">
<title>Node11</title>
<g id="a_Node000011"><a xlink:href="classTmc9660Handler.html#a5a279ae9d4b5a8e0d71cb24577ad88ea" target="_top" xlink:title="Ensure driver is initialized (lazy init entrypoint).">
<polygon fill="white" stroke="#666666" points="583,-19 396,-19 396,0 583,0 583,-19"/>
<text text-anchor="middle" x="489.5" y="-7" font-family="Helvetica,sans-Serif" font-size="10.00">Tmc9660Handler::EnsureInitialized</text>
</a>
</g>
</g>
<!-- Node10&#45;&gt;Node11 -->
<g id="edge12_Node000010_Node000011" class="edge">
<title>Node10&#45;&gt;Node11</title>
<g id="a_edge12_Node000010_Node000011"><a xlink:title=" ">
<path fill="none" stroke="#63b8ff" d="M360.29,-2.89C368.67,-2.79 377.25,-2.74 385.81,-2.75"/>
<polygon fill="#63b8ff" stroke="#63b8ff" points="385.81,-6.25 395.83,-2.79 385.84,0.75 385.81,-6.25"/>
</a>
</g>
</g>
<!-- Node11&#45;&gt;Node2 -->
<g id="edge13_Node000011_Node000002" class="edge">
<title>Node11&#45;&gt;Node2</title>
<g id="a_edge13_Node000011_Node000002"><a xlink:title=" ">
<path fill="none" stroke="#63b8ff" d="M565.63,-19.02C579.56,-20.78 594.32,-22.65 608.91,-24.5"/>
<polygon fill="#63b8ff" stroke="#63b8ff" points="608.6,-27.99 618.96,-25.78 609.48,-21.05 608.6,-27.99"/>
</a>
</g>
</g>
<!-- Node11&#45;&gt;Node10 -->
<g id="edge14_Node000011_Node000010" class="edge">
<title>Node11&#45;&gt;Node10</title>
<g id="a_edge14_Node000011_Node000010"><a xlink:title=" ">
<path fill="none" stroke="#63b8ff" d="M395.83,-16.21C387.42,-16.26 378.9,-16.26 370.48,-16.21"/>
<polygon fill="#63b8ff" stroke="#63b8ff" points="370.32,-12.71 360.29,-16.11 370.25,-19.71 370.32,-12.71"/>
</a>
</g>
</g>
</g>
</svg>
