<?xml version="1.0" encoding="UTF-8" standalone="no"?>
<!DOCTYPE svg PUBLIC "-//W3C//DTD SVG 1.1//EN"
 "http://www.w3.org/Graphics/SVG/1.1/DTD/svg11.dtd">
<!-- Generated by graphviz version 2.43.0 (0)
 -->
<!-- Title: Tmc9660Handler::GetSupplyVoltage Pages: 1 -->
<svg width="1282pt" height="115pt"
 viewBox="0.00 0.00 1282.00 115.00" xmlns="http://www.w3.org/2000/svg" xmlns:xlink="http://www.w3.org/1999/xlink">
<g id="graph0" class="graph" transform="scale(1 1) rotate(0) translate(4 111)">
<title>Tmc9660Handler::GetSupplyVoltage</title>
<!-- Node1 -->
<g id="Node000001" class="node">
<title>Node1</title>
<g id="a_Node000001"><a xlink:title="Read the motor supply voltage.">
<polygon fill="#999999" stroke="#666666" points="156,-62.5 0,-62.5 0,-32.5 156,-32.5 156,-62.5"/>
<text text-anchor="start" x="8" y="-50.5" font-family="Helvetica,sans-Serif" font-size="10.00">Tmc9660Handler::GetSupply</text>
<text text-anchor="middle" x="78" y="-39.5" font-family="Helvetica,sans-Serif" font-size="10.00">Voltage</text>
</a>
</g>
</g>
<!-- Node2 -->
<g id="Node000002" class="node">
<title>Node2</title>
<g id="a_Node000002"><a xlink:href="classTmc9660Handler.html#a5a279ae9d4b5a8e0d71cb24577ad88ea" target="_top" xlink:title="Ensure driver is initialized (lazy init entrypoint).">
<polygon fill="white" stroke="#666666" points="775,-48 588,-48 588,-29 775,-29 775,-48"/>
<text text-anchor="middle" x="681.5" y="-36" font-family="Helvetica,sans-Serif" font-size="10.00">Tmc9660Handler::EnsureInitialized</text>
</a>
</g>
</g>
<!-- Node1&#45;&gt;Node2 -->
<g id="edge1_Node000001_Node000002" class="edge">
<title>Node1&#45;&gt;Node2</title>
<g id="a_edge1_Node000001_Node000002"><a xlink:title=" ">
<path fill="none" stroke="#63b8ff" d="M156.39,-61.47C250.38,-76.28 413.53,-95.04 552,-75.5 584.47,-70.92 620.23,-60.13 645.76,-51.38"/>
<polygon fill="#63b8ff" stroke="#63b8ff" points="647.08,-54.62 655.36,-48.02 644.76,-48.02 647.08,-54.62"/>
</a>
</g>
</g>
<!-- Node10 -->
<g id="Node000010" class="node">
<title>Node10</title>
<g id="a_Node000010"><a xlink:href="classTmc9660Handler.html#a393382194d0602e7aa02da6a8fd7a20a" target="_top" xlink:title="Get a reference to the Temperature wrapper.">
<polygon fill="white" stroke="#666666" points="552,-48 385,-48 385,-29 552,-29 552,-48"/>
<text text-anchor="middle" x="468.5" y="-36" font-family="Helvetica,sans-Serif" font-size="10.00">Tmc9660Handler::temperature</text>
</a>
</g>
</g>
<!-- Node1&#45;&gt;Node10 -->
<g id="edge11_Node000001_Node000010" class="edge">
<title>Node1&#45;&gt;Node10</title>
<g id="a_edge11_Node000001_Node000010"><a xlink:title=" ">
<path fill="none" stroke="#63b8ff" d="M156.22,-45.71C219.05,-44.26 307.92,-42.2 374.63,-40.65"/>
<polygon fill="#63b8ff" stroke="#63b8ff" points="374.8,-44.15 384.72,-40.42 374.64,-37.15 374.8,-44.15"/>
</a>
</g>
</g>
<!-- Node11 -->
<g id="Node000011" class="node">
<title>Node11</title>
<g id="a_Node000011"><a xlink:href="classTmc9660Handler.html#a4360829b58deda85e9da4b9cebee96f0" target="_top" xlink:title="Execute a function on the underlying typed TMC9660 driver.">
<polygon fill="white" stroke="#666666" points="349,-19 192,-19 192,0 349,0 349,-19"/>
<text text-anchor="middle" x="270.5" y="-7" font-family="Helvetica,sans-Serif" font-size="10.00">Tmc9660Handler::visitDriver</text>
</a>
</g>
</g>
<!-- Node1&#45;&gt;Node11 -->
<g id="edge14_Node000001_Node000011" class="edge">
<title>Node1&#45;&gt;Node11</title>
<g id="a_edge14_Node000001_Node000011"><a xlink:title=" ">
<path fill="none" stroke="#63b8ff" d="M154.29,-32.48C173.51,-28.65 193.86,-24.59 212.02,-20.96"/>
<polygon fill="#63b8ff" stroke="#63b8ff" points="212.75,-24.39 221.87,-19 211.38,-17.52 212.75,-24.39"/>
</a>
</g>
</g>
<!-- Node3 -->
<g id="Node000003" class="node">
<title>Node3</title>
<g id="a_Node000003"><a xlink:href="classTmc9660Handler.html#adc564847f8ae26c47412aaee0758991c" target="_top" xlink:title="Initialize the TMC9660 device.">
<polygon fill="white" stroke="#666666" points="959,-70 811,-70 811,-51 959,-51 959,-70"/>
<text text-anchor="middle" x="885" y="-58" font-family="Helvetica,sans-Serif" font-size="10.00">Tmc9660Handler::Initialize</text>
</a>
</g>
</g>
<!-- Node2&#45;&gt;Node3 -->
<g id="edge2_Node000002_Node000003" class="edge">
<title>Node2&#45;&gt;Node3</title>
<g id="a_edge2_Node000002_Node000003"><a xlink:title=" ">
<path fill="none" stroke="#63b8ff" d="M769.71,-48.02C780,-49.15 790.48,-50.29 800.72,-51.41"/>
<polygon fill="#63b8ff" stroke="#63b8ff" points="800.53,-54.91 810.85,-52.51 801.29,-47.95 800.53,-54.91"/>
</a>
</g>
</g>
<!-- Node9 -->
<g id="Node000009" class="node">
<title>Node9</title>
<g id="a_Node000009"><a xlink:href="classTmc9660Handler.html#a13db97d201a287d8aa60384e04070b9f" target="_top" xlink:title="Check if the TMC9660 driver has been initialized and is ready.">
<polygon fill="white" stroke="#666666" points="957,-32.5 813,-32.5 813,-2.5 957,-2.5 957,-32.5"/>
<text text-anchor="start" x="821" y="-20.5" font-family="Helvetica,sans-Serif" font-size="10.00">Tmc9660Handler::IsDriver</text>
<text text-anchor="middle" x="885" y="-9.5" font-family="Helvetica,sans-Serif" font-size="10.00">Ready</text>
</a>
</g>
</g>
<!-- Node2&#45;&gt;Node9 -->
<g id="edge10_Node000002_Node000009" class="edge">
<title>Node2&#45;&gt;Node9</title>
<g id="a_edge10_Node000002_Node000009"><a xlink:title=" ">
<path fill="none" stroke="#63b8ff" d="M773.82,-28.98C783.45,-27.98 793.2,-26.96 802.71,-25.97"/>
<polygon fill="#63b8ff" stroke="#63b8ff" points="803.34,-29.43 812.92,-24.91 802.61,-22.46 803.34,-29.43"/>
</a>
</g>
</g>
<!-- Node4 -->
<g id="Node000004" class="node">
<title>Node4</title>
<g id="a_Node000004"><a xlink:href="classLogger.html#adce17848a5844e053bfd314863dc1404" target="_top" xlink:title="Log error message.">
<polygon fill="white" stroke="#666666" points="1091.5,-70 1012.5,-70 1012.5,-51 1091.5,-51 1091.5,-70"/>
<text text-anchor="middle" x="1052" y="-58" font-family="Helvetica,sans-Serif" font-size="10.00">Logger::Error</text>
</a>
</g>
</g>
<!-- Node3&#45;&gt;Node4 -->
<g id="edge3_Node000003_Node000004" class="edge">
<title>Node3&#45;&gt;Node4</title>
<g id="a_edge3_Node000003_Node000004"><a xlink:title=" ">
<path fill="none" stroke="#63b8ff" d="M959.33,-60.5C973.73,-60.5 988.5,-60.5 1001.87,-60.5"/>
<polygon fill="#63b8ff" stroke="#63b8ff" points="1002.26,-64 1012.26,-60.5 1002.26,-57 1002.26,-64"/>
</a>
</g>
</g>
<!-- Node7 -->
<g id="Node000007" class="node">
<title>Node7</title>
<g id="a_Node000007"><a xlink:href="classLogger.html#a5789d11f8f1356e2192c0023a089cbc4" target="_top" xlink:title="Get singleton instance.">
<polygon fill="white" stroke="#666666" points="1109,-33 995,-33 995,-14 1109,-14 1109,-33"/>
<text text-anchor="middle" x="1052" y="-21" font-family="Helvetica,sans-Serif" font-size="10.00">Logger::GetInstance</text>
</a>
</g>
</g>
<!-- Node3&#45;&gt;Node7 -->
<g id="edge6_Node000003_Node000007" class="edge">
<title>Node3&#45;&gt;Node7</title>
<g id="a_edge6_Node000003_Node000007"><a xlink:title=" ">
<path fill="none" stroke="#63b8ff" d="M928.49,-50.97C949.87,-46.18 975.97,-40.32 998.58,-35.25"/>
<polygon fill="#63b8ff" stroke="#63b8ff" points="999.37,-38.66 1008.37,-33.06 997.84,-31.83 999.37,-38.66"/>
</a>
</g>
</g>
<!-- Node8 -->
<g id="Node000008" class="node">
<title>Node8</title>
<g id="a_Node000008"><a xlink:href="classLogger.html#a4681229c521795685fc14f6b55c82300" target="_top" xlink:title="Log info message.">
<polygon fill="white" stroke="#666666" points="1089,-107 1015,-107 1015,-88 1089,-88 1089,-107"/>
<text text-anchor="middle" x="1052" y="-95" font-family="Helvetica,sans-Serif" font-size="10.00">Logger::Info</text>
</a>
</g>
</g>
<!-- Node3&#45;&gt;Node8 -->
<g id="edge7_Node000003_Node000008" class="edge">
<title>Node3&#45;&gt;Node8</title>
<g id="a_edge7_Node000003_Node000008"><a xlink:title=" ">
<path fill="none" stroke="#63b8ff" d="M928.49,-70.03C951.89,-75.27 980.94,-81.79 1004.89,-87.16"/>
<polygon fill="#63b8ff" stroke="#63b8ff" points="1004.28,-90.61 1014.8,-89.38 1005.81,-83.78 1004.28,-90.61"/>
</a>
</g>
</g>
<!-- Node5 -->
<g id="Node000005" class="node">
<title>Node5</title>
<g id="a_Node000005"><a xlink:href="classLogger.html#af9e84e0ff6bd538e4f9ed8dcebc3e2f0" target="_top" xlink:title="Check if log level is enabled for tag.">
<polygon fill="white" stroke="#666666" points="1274,-107 1145,-107 1145,-88 1274,-88 1274,-107"/>
<text text-anchor="middle" x="1209.5" y="-95" font-family="Helvetica,sans-Serif" font-size="10.00">Logger::IsLevelEnabled</text>
</a>
</g>
</g>
<!-- Node4&#45;&gt;Node5 -->
<g id="edge4_Node000004_Node000005" class="edge">
<title>Node4&#45;&gt;Node5</title>
<g id="a_edge4_Node000004_Node000005"><a xlink:title=" ">
<path fill="none" stroke="#63b8ff" d="M1091.84,-69.74C1112.03,-74.55 1136.94,-80.47 1158.55,-85.61"/>
<polygon fill="#63b8ff" stroke="#63b8ff" points="1158,-89.08 1168.53,-87.99 1159.62,-82.27 1158,-89.08"/>
</a>
</g>
</g>
<!-- Node6 -->
<g id="Node000006" class="node">
<title>Node6</title>
<g id="a_Node000006"><a xlink:href="classLogger.html#a6adb205db597526fb91ad20067400394" target="_top" xlink:title="Internal logging method.">
<polygon fill="white" stroke="#666666" points="1264.5,-70 1154.5,-70 1154.5,-51 1264.5,-51 1264.5,-70"/>
<text text-anchor="middle" x="1209.5" y="-58" font-family="Helvetica,sans-Serif" font-size="10.00">Logger::LogInternal</text>
</a>
</g>
</g>
<!-- Node4&#45;&gt;Node6 -->
<g id="edge5_Node000004_Node000006" class="edge">
<title>Node4&#45;&gt;Node6</title>
<g id="a_edge5_Node000004_Node000006"><a xlink:title=" ">
<path fill="none" stroke="#63b8ff" d="M1091.84,-60.5C1107.63,-60.5 1126.31,-60.5 1144.03,-60.5"/>
<polygon fill="#63b8ff" stroke="#63b8ff" points="1144.33,-64 1154.33,-60.5 1144.33,-57 1144.33,-64"/>
</a>
</g>
</g>
<!-- Node8&#45;&gt;Node5 -->
<g id="edge8_Node000008_Node000005" class="edge">
<title>Node8&#45;&gt;Node5</title>
<g id="a_edge8_Node000008_Node000005"><a xlink:title=" ">
<path fill="none" stroke="#63b8ff" d="M1089.07,-97.5C1102.68,-97.5 1118.72,-97.5 1134.55,-97.5"/>
<polygon fill="#63b8ff" stroke="#63b8ff" points="1134.89,-101 1144.89,-97.5 1134.89,-94 1134.89,-101"/>
</a>
</g>
</g>
<!-- Node8&#45;&gt;Node6 -->
<g id="edge9_Node000008_Node000006" class="edge">
<title>Node8&#45;&gt;Node6</title>
<g id="a_edge9_Node000008_Node000006"><a xlink:title=" ">
<path fill="none" stroke="#63b8ff" d="M1089.07,-88.92C1109.78,-83.99 1136.09,-77.73 1158.74,-72.34"/>
<polygon fill="#63b8ff" stroke="#63b8ff" points="1159.61,-75.73 1168.53,-70.01 1157.99,-68.92 1159.61,-75.73"/>
</a>
</g>
</g>
<!-- Node10&#45;&gt;Node2 -->
<g id="edge12_Node000010_Node000002" class="edge">
<title>Node10&#45;&gt;Node2</title>
<g id="a_edge12_Node000010_Node000002"><a xlink:title=" ">
<path fill="none" stroke="#63b8ff" d="M552.29,-38.5C560.67,-38.5 569.25,-38.5 577.81,-38.5"/>
<polygon fill="#63b8ff" stroke="#63b8ff" points="577.83,-42 587.83,-38.5 577.83,-35 577.83,-42"/>
</a>
</g>
</g>
<!-- Node10&#45;&gt;Node10 -->
<g id="edge13_Node000010_Node000010" class="edge">
<title>Node10&#45;&gt;Node10</title>
<g id="a_edge13_Node000010_Node000010"><a xlink:title=" ">
<path fill="none" stroke="#63b8ff" d="M437.98,-48.08C423.14,-56.73 433.31,-66 468.5,-66 493.24,-66 505.62,-61.42 505.62,-55.69"/>
<polygon fill="#63b8ff" stroke="#63b8ff" points="508.22,-53.34 499.02,-48.08 502.93,-57.93 508.22,-53.34"/>
</a>
</g>
</g>
<!-- Node11&#45;&gt;Node2 -->
<g id="edge15_Node000011_Node000002" class="edge">
<title>Node11&#45;&gt;Node2</title>
<g id="a_edge15_Node000011_Node000002"><a xlink:title=" ">
<path fill="none" stroke="#63b8ff" d="M349.04,-9.95C405.43,-10.84 483.58,-13.24 552,-19.5 572.65,-21.39 595.05,-24.37 615.27,-27.42"/>
<polygon fill="#63b8ff" stroke="#63b8ff" points="614.9,-30.91 625.32,-28.97 615.97,-23.99 614.9,-30.91"/>
</a>
</g>
</g>
<!-- Node11&#45;&gt;Node10 -->
<g id="edge16_Node000011_Node000010" class="edge">
<title>Node11&#45;&gt;Node10</title>
<g id="a_edge16_Node000011_Node000010"><a xlink:title=" ">
<path fill="none" stroke="#63b8ff" d="M335.95,-19.04C354.2,-21.74 374.22,-24.7 393.02,-27.48"/>
<polygon fill="#63b8ff" stroke="#63b8ff" points="392.61,-30.96 403.01,-28.96 393.63,-24.03 392.61,-30.96"/>
</a>
</g>
</g>
</g>
</svg>
