<?xml version="1.0" encoding="UTF-8" standalone="no"?>
<!DOCTYPE svg PUBLIC "-//W3C//DTD SVG 1.1//EN"
 "http://www.w3.org/Graphics/SVG/1.1/DTD/svg11.dtd">
<!-- Generated by graphviz version 2.43.0 (0)
 -->
<!-- Title: Tmc5160Handler::spiDriver Pages: 1 -->
<svg width="880pt" height="138pt"
 viewBox="0.00 0.00 880.00 138.00" xmlns="http://www.w3.org/2000/svg" xmlns:xlink="http://www.w3.org/1999/xlink">
<g id="graph0" class="graph" transform="scale(1 1) rotate(0) translate(4 134)">
<title>Tmc5160Handler::spiDriver</title>
<!-- Node1 -->
<g id="Node000001" class="node">
<title>Node1</title>
<g id="a_Node000001"><a xlink:title="Get typed SPI driver pointer (null if UART mode or not initialized).">
<polygon fill="#999999" stroke="#666666" points="150,-74 0,-74 0,-55 150,-55 150,-74"/>
<text text-anchor="middle" x="75" y="-62" font-family="Helvetica,sans-Serif" font-size="10.00">Tmc5160Handler::spiDriver</text>
</a>
</g>
</g>
<!-- Node2 -->
<g id="Node000002" class="node">
<title>Node2</title>
<g id="a_Node000002"><a xlink:href="classTmc5160Handler.html#a6d4fce2433e03bb11b05a4278ef66fd0" target="_top" xlink:title=" ">
<polygon fill="white" stroke="#666666" points="373,-79.5 186,-79.5 186,-49.5 373,-49.5 373,-79.5"/>
<text text-anchor="start" x="194" y="-67.5" font-family="Helvetica,sans-Serif" font-size="10.00">Tmc5160Handler::EnsureInitialized</text>
<text text-anchor="middle" x="279.5" y="-56.5" font-family="Helvetica,sans-Serif" font-size="10.00">Locked</text>
</a>
</g>
</g>
<!-- Node1&#45;&gt;Node2 -->
<g id="edge1_Node000001_Node000002" class="edge">
<title>Node1&#45;&gt;Node2</title>
<g id="a_edge1_Node000001_Node000002"><a xlink:title=" ">
<path fill="none" stroke="#63b8ff" d="M150.25,-64.5C158.61,-64.5 167.23,-64.5 175.87,-64.5"/>
<polygon fill="#63b8ff" stroke="#63b8ff" points="175.99,-68 185.99,-64.5 175.99,-61 175.99,-68"/>
</a>
</g>
</g>
<!-- Node3 -->
<g id="Node000003" class="node">
<title>Node3</title>
<g id="a_Node000003"><a xlink:href="classTmc5160Handler.html#a64755f326176b0a38485acf5ca69fd0c" target="_top" xlink:title="Initialize the TMC5160 driver with full configuration.">
<polygon fill="white" stroke="#666666" points="557,-74 409,-74 409,-55 557,-55 557,-74"/>
<text text-anchor="middle" x="483" y="-62" font-family="Helvetica,sans-Serif" font-size="10.00">Tmc5160Handler::Initialize</text>
</a>
</g>
</g>
<!-- Node2&#45;&gt;Node3 -->
<g id="edge2_Node000002_Node000003" class="edge">
<title>Node2&#45;&gt;Node3</title>
<g id="a_edge2_Node000002_Node000003"><a xlink:title=" ">
<path fill="none" stroke="#63b8ff" d="M373.29,-64.5C381.73,-64.5 390.25,-64.5 398.61,-64.5"/>
<polygon fill="#63b8ff" stroke="#63b8ff" points="398.7,-68 408.7,-64.5 398.7,-61 398.7,-68"/>
</a>
</g>
</g>
<!-- Node4 -->
<g id="Node000004" class="node">
<title>Node4</title>
<g id="a_Node000004"><a xlink:href="classLogger.html#a5e4bcdaea60b9ac227b564d780388769" target="_top" xlink:title="Log error message.">
<polygon fill="white" stroke="#666666" points="689.5,-130 610.5,-130 610.5,-111 689.5,-111 689.5,-130"/>
<text text-anchor="middle" x="650" y="-118" font-family="Helvetica,sans-Serif" font-size="10.00">Logger::Error</text>
</a>
</g>
</g>
<!-- Node3&#45;&gt;Node4 -->
<g id="edge3_Node000003_Node000004" class="edge">
<title>Node3&#45;&gt;Node4</title>
<g id="a_edge3_Node000003_Node000004"><a xlink:title=" ">
<path fill="none" stroke="#63b8ff" d="M510.81,-74.05C532.84,-81.85 564.88,-93.08 593,-102.5 598.2,-104.24 603.69,-106.05 609.12,-107.81"/>
<polygon fill="#63b8ff" stroke="#63b8ff" points="608.14,-111.17 618.73,-110.92 610.29,-104.51 608.14,-111.17"/>
</a>
</g>
</g>
<!-- Node7 -->
<g id="Node000007" class="node">
<title>Node7</title>
<g id="a_Node000007"><a xlink:href="classLogger.html#a5789d11f8f1356e2192c0023a089cbc4" target="_top" xlink:title="Get singleton instance.">
<polygon fill="white" stroke="#666666" points="707,-19 593,-19 593,0 707,0 707,-19"/>
<text text-anchor="middle" x="650" y="-7" font-family="Helvetica,sans-Serif" font-size="10.00">Logger::GetInstance</text>
</a>
</g>
</g>
<!-- Node3&#45;&gt;Node7 -->
<g id="edge6_Node000003_Node000007" class="edge">
<title>Node3&#45;&gt;Node7</title>
<g id="a_edge6_Node000003_Node000007"><a xlink:title=" ">
<path fill="none" stroke="#63b8ff" d="M511.73,-54.95C533.74,-47.4 565.3,-36.65 593,-27.5 598.27,-25.76 603.83,-23.94 609.32,-22.17"/>
<polygon fill="#63b8ff" stroke="#63b8ff" points="610.59,-25.43 619.04,-19.03 608.44,-18.77 610.59,-25.43"/>
</a>
</g>
</g>
<!-- Node8 -->
<g id="Node000008" class="node">
<title>Node8</title>
<g id="a_Node000008"><a xlink:href="classLogger.html#a1c0c947d87884bca0395fd38d19d1102" target="_top" xlink:title="Log info message.">
<polygon fill="white" stroke="#666666" points="687,-93 613,-93 613,-74 687,-74 687,-93"/>
<text text-anchor="middle" x="650" y="-81" font-family="Helvetica,sans-Serif" font-size="10.00">Logger::Info</text>
</a>
</g>
</g>
<!-- Node3&#45;&gt;Node8 -->
<g id="edge7_Node000003_Node000008" class="edge">
<title>Node3&#45;&gt;Node8</title>
<g id="a_edge7_Node000003_Node000008"><a xlink:title=" ">
<path fill="none" stroke="#63b8ff" d="M557.33,-72.94C572.85,-74.73 588.8,-76.57 602.96,-78.2"/>
<polygon fill="#63b8ff" stroke="#63b8ff" points="602.58,-81.68 612.92,-79.35 603.38,-74.72 602.58,-81.68"/>
</a>
</g>
</g>
<!-- Node9 -->
<g id="Node000009" class="node">
<title>Node9</title>
<g id="a_Node000009"><a xlink:href="classLogger.html#a8c19c14724b0be1d2be63da4258c001a" target="_top" xlink:title="Log warning message.">
<polygon fill="white" stroke="#666666" points="690,-56 610,-56 610,-37 690,-37 690,-56"/>
<text text-anchor="middle" x="650" y="-44" font-family="Helvetica,sans-Serif" font-size="10.00">Logger::Warn</text>
</a>
</g>
</g>
<!-- Node3&#45;&gt;Node9 -->
<g id="edge10_Node000003_Node000009" class="edge">
<title>Node3&#45;&gt;Node9</title>
<g id="a_edge10_Node000003_Node000009"><a xlink:title=" ">
<path fill="none" stroke="#63b8ff" d="M557.33,-56.5C571.59,-54.94 586.23,-53.35 599.49,-51.9"/>
<polygon fill="#63b8ff" stroke="#63b8ff" points="600.25,-55.34 609.81,-50.78 599.49,-48.38 600.25,-55.34"/>
</a>
</g>
</g>
<!-- Node5 -->
<g id="Node000005" class="node">
<title>Node5</title>
<g id="a_Node000005"><a xlink:href="classLogger.html#a737b981213c02321a5235848334d7191" target="_top" xlink:title="Check if log level is enabled for tag.">
<polygon fill="white" stroke="#666666" points="872,-111 743,-111 743,-92 872,-92 872,-111"/>
<text text-anchor="middle" x="807.5" y="-99" font-family="Helvetica,sans-Serif" font-size="10.00">Logger::IsLevelEnabled</text>
</a>
</g>
</g>
<!-- Node4&#45;&gt;Node5 -->
<g id="edge4_Node000004_Node000005" class="edge">
<title>Node4&#45;&gt;Node5</title>
<g id="a_edge4_Node000004_Node000005"><a xlink:title=" ">
<path fill="none" stroke="#63b8ff" d="M689.84,-115.75C702.85,-114.16 717.82,-112.34 732.6,-110.53"/>
<polygon fill="#63b8ff" stroke="#63b8ff" points="733.28,-113.97 742.78,-109.29 732.43,-107.02 733.28,-113.97"/>
</a>
</g>
</g>
<!-- Node6 -->
<g id="Node000006" class="node">
<title>Node6</title>
<g id="a_Node000006"><a xlink:href="classLogger.html#aeede6ac18db92a47caede076ef188a13" target="_top" xlink:title="Internal logging method.">
<polygon fill="white" stroke="#666666" points="862.5,-74 752.5,-74 752.5,-55 862.5,-55 862.5,-74"/>
<text text-anchor="middle" x="807.5" y="-62" font-family="Helvetica,sans-Serif" font-size="10.00">Logger::LogInternal</text>
</a>
</g>
</g>
<!-- Node4&#45;&gt;Node6 -->
<g id="edge5_Node000004_Node000006" class="edge">
<title>Node4&#45;&gt;Node6</title>
<g id="a_edge5_Node000004_Node000006"><a xlink:title=" ">
<path fill="none" stroke="#63b8ff" d="M683.92,-110.98C691.59,-108.47 699.66,-105.59 707,-102.5 723.68,-95.48 726.25,-90.35 743,-83.5 748.53,-81.24 754.42,-79.12 760.31,-77.16"/>
<polygon fill="#63b8ff" stroke="#63b8ff" points="761.67,-80.41 770.14,-74.05 759.55,-73.73 761.67,-80.41"/>
</a>
</g>
</g>
<!-- Node8&#45;&gt;Node5 -->
<g id="edge8_Node000008_Node000005" class="edge">
<title>Node8&#45;&gt;Node5</title>
<g id="a_edge8_Node000008_Node000005"><a xlink:title=" ">
<path fill="none" stroke="#63b8ff" d="M687.07,-87.67C700.68,-89.25 716.72,-91.11 732.55,-92.94"/>
<polygon fill="#63b8ff" stroke="#63b8ff" points="732.55,-96.46 742.89,-94.14 733.36,-89.51 732.55,-96.46"/>
</a>
</g>
</g>
<!-- Node8&#45;&gt;Node6 -->
<g id="edge9_Node000008_Node000006" class="edge">
<title>Node8&#45;&gt;Node6</title>
<g id="a_edge9_Node000008_Node000006"><a xlink:title=" ">
<path fill="none" stroke="#63b8ff" d="M687.07,-79.09C703.49,-77.09 723.44,-74.65 742.3,-72.34"/>
<polygon fill="#63b8ff" stroke="#63b8ff" points="742.83,-75.81 752.33,-71.12 741.98,-68.86 742.83,-75.81"/>
</a>
</g>
</g>
<!-- Node9&#45;&gt;Node5 -->
<g id="edge11_Node000009_Node000005" class="edge">
<title>Node9&#45;&gt;Node5</title>
<g id="a_edge11_Node000009_Node000005"><a xlink:title=" ">
<path fill="none" stroke="#63b8ff" d="M681.51,-56.01C689.86,-58.84 698.85,-62.1 707,-65.5 723.51,-72.39 726.32,-77.03 743,-83.5 748.07,-85.47 753.45,-87.33 758.85,-89.05"/>
<polygon fill="#63b8ff" stroke="#63b8ff" points="757.92,-92.42 768.51,-91.99 759.96,-85.73 757.92,-92.42"/>
</a>
</g>
</g>
<!-- Node9&#45;&gt;Node6 -->
<g id="edge12_Node000009_Node000006" class="edge">
<title>Node9&#45;&gt;Node6</title>
<g id="a_edge12_Node000009_Node000006"><a xlink:title=" ">
<path fill="none" stroke="#63b8ff" d="M690.24,-51.04C705.96,-52.86 724.49,-55.01 742.08,-57.04"/>
<polygon fill="#63b8ff" stroke="#63b8ff" points="741.96,-60.55 752.3,-58.23 742.77,-53.6 741.96,-60.55"/>
</a>
</g>
</g>
</g>
</svg>
