<?xml version="1.0" encoding="UTF-8" standalone="no"?>
<!DOCTYPE svg PUBLIC "-//W3C//DTD SVG 1.1//EN"
 "http://www.w3.org/Graphics/SVG/1.1/DTD/svg11.dtd">
<!-- Generated by graphviz version 2.43.0 (0)
 -->
<!-- Title: Tmc9660Handler::Adc::ReadMultipleChannels Pages: 1 -->
<svg width="1288pt" height="113pt"
 viewBox="0.00 0.00 1288.00 112.50" xmlns="http://www.w3.org/2000/svg" xmlns:xlink="http://www.w3.org/1999/xlink">
<g id="graph0" class="graph" transform="scale(1 1) rotate(0) translate(4 108.5)">
<title>Tmc9660Handler::Adc::ReadMultipleChannels</title>
<!-- Node1 -->
<g id="Node000001" class="node">
<title>Node1</title>
<g id="a_Node000001"><a xlink:title="Read multiple channels in a batch.">
<polygon fill="#999999" stroke="#666666" points="132,-51 0,-51 0,-21 132,-21 132,-51"/>
<text text-anchor="start" x="8" y="-39" font-family="Helvetica,sans-Serif" font-size="10.00">Tmc9660Handler::Adc</text>
<text text-anchor="middle" x="66" y="-28" font-family="Helvetica,sans-Serif" font-size="10.00">::ReadMultipleChannels</text>
</a>
</g>
</g>
<!-- Node2 -->
<g id="Node000002" class="node">
<title>Node2</title>
<g id="a_Node000002"><a xlink:href="classTmc9660Handler.html#a393382194d0602e7aa02da6a8fd7a20a" target="_top" xlink:title="Get a reference to the Temperature wrapper.">
<polygon fill="white" stroke="#666666" points="335,-45.5 168,-45.5 168,-26.5 335,-26.5 335,-45.5"/>
<text text-anchor="middle" x="251.5" y="-33.5" font-family="Helvetica,sans-Serif" font-size="10.00">Tmc9660Handler::temperature</text>
</a>
</g>
</g>
<!-- Node1&#45;&gt;Node2 -->
<g id="edge1_Node000001_Node000002" class="edge">
<title>Node1&#45;&gt;Node2</title>
<g id="a_edge1_Node000001_Node000002"><a xlink:title=" ">
<path fill="none" stroke="#63b8ff" d="M132.21,-36C140.5,-36 149.11,-36 157.73,-36"/>
<polygon fill="#63b8ff" stroke="#63b8ff" points="157.84,-39.5 167.84,-36 157.84,-32.5 157.84,-39.5"/>
</a>
</g>
</g>
<!-- Node2&#45;&gt;Node2 -->
<g id="edge14_Node000002_Node000002" class="edge">
<title>Node2&#45;&gt;Node2</title>
<g id="a_edge14_Node000002_Node000002"><a xlink:title=" ">
<path fill="none" stroke="#63b8ff" d="M223.14,-45.58C209.34,-54.23 218.8,-63.5 251.5,-63.5 273.98,-63.5 285.48,-59.12 285.98,-53.57"/>
<polygon fill="#63b8ff" stroke="#63b8ff" points="288.72,-51.39 279.86,-45.58 283.16,-55.65 288.72,-51.39"/>
</a>
</g>
</g>
<!-- Node3 -->
<g id="Node000003" class="node">
<title>Node3</title>
<g id="a_Node000003"><a xlink:href="classTmc9660Handler.html#a5a279ae9d4b5a8e0d71cb24577ad88ea" target="_top" xlink:title="Ensure driver is initialized (lazy init entrypoint).">
<polygon fill="white" stroke="#666666" points="558,-45.5 371,-45.5 371,-26.5 558,-26.5 558,-45.5"/>
<text text-anchor="middle" x="464.5" y="-33.5" font-family="Helvetica,sans-Serif" font-size="10.00">Tmc9660Handler::EnsureInitialized</text>
</a>
</g>
</g>
<!-- Node2&#45;&gt;Node3 -->
<g id="edge2_Node000002_Node000003" class="edge">
<title>Node2&#45;&gt;Node3</title>
<g id="a_edge2_Node000002_Node000003"><a xlink:title=" ">
<path fill="none" stroke="#63b8ff" d="M335.29,-29.39C343.67,-29.29 352.25,-29.24 360.81,-29.25"/>
<polygon fill="#63b8ff" stroke="#63b8ff" points="360.81,-32.75 370.83,-29.29 360.84,-25.75 360.81,-32.75"/>
</a>
</g>
</g>
<!-- Node3&#45;&gt;Node2 -->
<g id="edge13_Node000003_Node000002" class="edge">
<title>Node3&#45;&gt;Node2</title>
<g id="a_edge13_Node000003_Node000002"><a xlink:title=" ">
<path fill="none" stroke="#63b8ff" d="M370.83,-42.71C362.42,-42.76 353.9,-42.76 345.48,-42.71"/>
<polygon fill="#63b8ff" stroke="#63b8ff" points="345.32,-39.21 335.29,-42.61 345.25,-46.21 345.32,-39.21"/>
</a>
</g>
</g>
<!-- Node4 -->
<g id="Node000004" class="node">
<title>Node4</title>
<g id="a_Node000004"><a xlink:href="classTmc9660Handler.html#a7c1d8073576d678b09dac24c9eb12845" target="_top" xlink:title="Ensure initialized while handler_mutex_ is already held.">
<polygon fill="white" stroke="#666666" points="781,-51 594,-51 594,-21 781,-21 781,-51"/>
<text text-anchor="start" x="602" y="-39" font-family="Helvetica,sans-Serif" font-size="10.00">Tmc9660Handler::EnsureInitialized</text>
<text text-anchor="middle" x="687.5" y="-28" font-family="Helvetica,sans-Serif" font-size="10.00">Locked</text>
</a>
</g>
</g>
<!-- Node3&#45;&gt;Node4 -->
<g id="edge3_Node000003_Node000004" class="edge">
<title>Node3&#45;&gt;Node4</title>
<g id="a_edge3_Node000003_Node000004"><a xlink:title=" ">
<path fill="none" stroke="#63b8ff" d="M558.26,-36C566.75,-36 575.39,-36 583.96,-36"/>
<polygon fill="#63b8ff" stroke="#63b8ff" points="583.97,-39.5 593.97,-36 583.97,-32.5 583.97,-39.5"/>
</a>
</g>
</g>
<!-- Node5 -->
<g id="Node000005" class="node">
<title>Node5</title>
<g id="a_Node000005"><a xlink:href="classTmc9660Handler.html#adc564847f8ae26c47412aaee0758991c" target="_top" xlink:title="Initialize the TMC9660 device.">
<polygon fill="white" stroke="#666666" points="965,-67.5 817,-67.5 817,-48.5 965,-48.5 965,-67.5"/>
<text text-anchor="middle" x="891" y="-55.5" font-family="Helvetica,sans-Serif" font-size="10.00">Tmc9660Handler::Initialize</text>
</a>
</g>
</g>
<!-- Node4&#45;&gt;Node5 -->
<g id="edge4_Node000004_Node000005" class="edge">
<title>Node4&#45;&gt;Node5</title>
<g id="a_edge4_Node000004_Node000005"><a xlink:title=" ">
<path fill="none" stroke="#63b8ff" d="M781.29,-46.13C789.73,-47.05 798.25,-47.98 806.61,-48.9"/>
<polygon fill="#63b8ff" stroke="#63b8ff" points="806.38,-52.39 816.7,-50 807.14,-45.43 806.38,-52.39"/>
</a>
</g>
</g>
<!-- Node11 -->
<g id="Node000011" class="node">
<title>Node11</title>
<g id="a_Node000011"><a xlink:href="classTmc9660Handler.html#a13db97d201a287d8aa60384e04070b9f" target="_top" xlink:title="Check if the TMC9660 driver has been initialized and is ready.">
<polygon fill="white" stroke="#666666" points="963,-30 819,-30 819,0 963,0 963,-30"/>
<text text-anchor="start" x="827" y="-18" font-family="Helvetica,sans-Serif" font-size="10.00">Tmc9660Handler::IsDriver</text>
<text text-anchor="middle" x="891" y="-7" font-family="Helvetica,sans-Serif" font-size="10.00">Ready</text>
</a>
</g>
</g>
<!-- Node4&#45;&gt;Node11 -->
<g id="edge12_Node000004_Node000011" class="edge">
<title>Node4&#45;&gt;Node11</title>
<g id="a_edge12_Node000004_Node000011"><a xlink:title=" ">
<path fill="none" stroke="#63b8ff" d="M781.29,-26.33C790.44,-25.38 799.69,-24.41 808.71,-23.47"/>
<polygon fill="#63b8ff" stroke="#63b8ff" points="809.21,-26.94 818.8,-22.42 808.49,-19.98 809.21,-26.94"/>
</a>
</g>
</g>
<!-- Node6 -->
<g id="Node000006" class="node">
<title>Node6</title>
<g id="a_Node000006"><a xlink:href="classLogger.html#adce17848a5844e053bfd314863dc1404" target="_top" xlink:title="Log error message.">
<polygon fill="white" stroke="#666666" points="1097.5,-67.5 1018.5,-67.5 1018.5,-48.5 1097.5,-48.5 1097.5,-67.5"/>
<text text-anchor="middle" x="1058" y="-55.5" font-family="Helvetica,sans-Serif" font-size="10.00">Logger::Error</text>
</a>
</g>
</g>
<!-- Node5&#45;&gt;Node6 -->
<g id="edge5_Node000005_Node000006" class="edge">
<title>Node5&#45;&gt;Node6</title>
<g id="a_edge5_Node000005_Node000006"><a xlink:title=" ">
<path fill="none" stroke="#63b8ff" d="M965.33,-58C979.73,-58 994.5,-58 1007.87,-58"/>
<polygon fill="#63b8ff" stroke="#63b8ff" points="1008.26,-61.5 1018.26,-58 1008.26,-54.5 1008.26,-61.5"/>
</a>
</g>
</g>
<!-- Node9 -->
<g id="Node000009" class="node">
<title>Node9</title>
<g id="a_Node000009"><a xlink:href="classLogger.html#a5789d11f8f1356e2192c0023a089cbc4" target="_top" xlink:title="Get singleton instance.">
<polygon fill="white" stroke="#666666" points="1115,-30.5 1001,-30.5 1001,-11.5 1115,-11.5 1115,-30.5"/>
<text text-anchor="middle" x="1058" y="-18.5" font-family="Helvetica,sans-Serif" font-size="10.00">Logger::GetInstance</text>
</a>
</g>
</g>
<!-- Node5&#45;&gt;Node9 -->
<g id="edge8_Node000005_Node000009" class="edge">
<title>Node5&#45;&gt;Node9</title>
<g id="a_edge8_Node000005_Node000009"><a xlink:title=" ">
<path fill="none" stroke="#63b8ff" d="M934.49,-48.47C955.87,-43.68 981.97,-37.82 1004.58,-32.75"/>
<polygon fill="#63b8ff" stroke="#63b8ff" points="1005.37,-36.16 1014.37,-30.56 1003.84,-29.33 1005.37,-36.16"/>
</a>
</g>
</g>
<!-- Node10 -->
<g id="Node000010" class="node">
<title>Node10</title>
<g id="a_Node000010"><a xlink:href="classLogger.html#a4681229c521795685fc14f6b55c82300" target="_top" xlink:title="Log info message.">
<polygon fill="white" stroke="#666666" points="1095,-104.5 1021,-104.5 1021,-85.5 1095,-85.5 1095,-104.5"/>
<text text-anchor="middle" x="1058" y="-92.5" font-family="Helvetica,sans-Serif" font-size="10.00">Logger::Info</text>
</a>
</g>
</g>
<!-- Node5&#45;&gt;Node10 -->
<g id="edge9_Node000005_Node000010" class="edge">
<title>Node5&#45;&gt;Node10</title>
<g id="a_edge9_Node000005_Node000010"><a xlink:title=" ">
<path fill="none" stroke="#63b8ff" d="M934.49,-67.53C957.89,-72.77 986.94,-79.29 1010.89,-84.66"/>
<polygon fill="#63b8ff" stroke="#63b8ff" points="1010.28,-88.11 1020.8,-86.88 1011.81,-81.28 1010.28,-88.11"/>
</a>
</g>
</g>
<!-- Node7 -->
<g id="Node000007" class="node">
<title>Node7</title>
<g id="a_Node000007"><a xlink:href="classLogger.html#af9e84e0ff6bd538e4f9ed8dcebc3e2f0" target="_top" xlink:title="Check if log level is enabled for tag.">
<polygon fill="white" stroke="#666666" points="1280,-104.5 1151,-104.5 1151,-85.5 1280,-85.5 1280,-104.5"/>
<text text-anchor="middle" x="1215.5" y="-92.5" font-family="Helvetica,sans-Serif" font-size="10.00">Logger::IsLevelEnabled</text>
</a>
</g>
</g>
<!-- Node6&#45;&gt;Node7 -->
<g id="edge6_Node000006_Node000007" class="edge">
<title>Node6&#45;&gt;Node7</title>
<g id="a_edge6_Node000006_Node000007"><a xlink:title=" ">
<path fill="none" stroke="#63b8ff" d="M1097.84,-67.24C1118.03,-72.05 1142.94,-77.97 1164.55,-83.11"/>
<polygon fill="#63b8ff" stroke="#63b8ff" points="1164,-86.58 1174.53,-85.49 1165.62,-79.77 1164,-86.58"/>
</a>
</g>
</g>
<!-- Node8 -->
<g id="Node000008" class="node">
<title>Node8</title>
<g id="a_Node000008"><a xlink:href="classLogger.html#a6adb205db597526fb91ad20067400394" target="_top" xlink:title="Internal logging method.">
<polygon fill="white" stroke="#666666" points="1270.5,-67.5 1160.5,-67.5 1160.5,-48.5 1270.5,-48.5 1270.5,-67.5"/>
<text text-anchor="middle" x="1215.5" y="-55.5" font-family="Helvetica,sans-Serif" font-size="10.00">Logger::LogInternal</text>
</a>
</g>
</g>
<!-- Node6&#45;&gt;Node8 -->
<g id="edge7_Node000006_Node000008" class="edge">
<title>Node6&#45;&gt;Node8</title>
<g id="a_edge7_Node000006_Node000008"><a xlink:title=" ">
<path fill="none" stroke="#63b8ff" d="M1097.84,-58C1113.63,-58 1132.31,-58 1150.03,-58"/>
<polygon fill="#63b8ff" stroke="#63b8ff" points="1150.33,-61.5 1160.33,-58 1150.33,-54.5 1150.33,-61.5"/>
</a>
</g>
</g>
<!-- Node10&#45;&gt;Node7 -->
<g id="edge10_Node000010_Node000007" class="edge">
<title>Node10&#45;&gt;Node7</title>
<g id="a_edge10_Node000010_Node000007"><a xlink:title=" ">
<path fill="none" stroke="#63b8ff" d="M1095.07,-95C1108.68,-95 1124.72,-95 1140.55,-95"/>
<polygon fill="#63b8ff" stroke="#63b8ff" points="1140.89,-98.5 1150.89,-95 1140.89,-91.5 1140.89,-98.5"/>
</a>
</g>
</g>
<!-- Node10&#45;&gt;Node8 -->
<g id="edge11_Node000010_Node000008" class="edge">
<title>Node10&#45;&gt;Node8</title>
<g id="a_edge11_Node000010_Node000008"><a xlink:title=" ">
<path fill="none" stroke="#63b8ff" d="M1095.07,-86.42C1115.78,-81.49 1142.09,-75.23 1164.74,-69.84"/>
<polygon fill="#63b8ff" stroke="#63b8ff" points="1165.61,-73.23 1174.53,-67.51 1163.99,-66.42 1165.61,-73.23"/>
</a>
</g>
</g>
</g>
</svg>
