<?xml version="1.0" encoding="UTF-8" standalone="no"?>
<!DOCTYPE svg PUBLIC "-//W3C//DTD SVG 1.1//EN"
 "http://www.w3.org/Graphics/SVG/1.1/DTD/svg11.dtd">
<!-- Generated by graphviz version 2.43.0 (0)
 -->
<!-- Title: CanOpenBaseCanLink::Read Pages: 1 -->
<svg width="498pt" height="38pt"
 viewBox="0.00 0.00 498.00 38.00" xmlns="http://www.w3.org/2000/svg" xmlns:xlink="http://www.w3.org/1999/xlink">
<g id="graph0" class="graph" transform="scale(1 1) rotate(0) translate(4 34)">
<title>CanOpenBaseCanLink::Read</title>
<!-- Node1 -->
<g id="Node000001" class="node">
<title>Node1</title>
<g id="a_Node000001"><a xlink:title=" ">
<polygon fill="#999999" stroke="#666666" points="124,-30 0,-30 0,0 124,0 124,-30"/>
<text text-anchor="start" x="8" y="-18" font-family="Helvetica,sans-Serif" font-size="10.00">CanOpenBaseCanLink</text>
<text text-anchor="middle" x="62" y="-7" font-family="Helvetica,sans-Serif" font-size="10.00">::Read</text>
</a>
</g>
</g>
<!-- Node2 -->
<g id="Node000002" class="node">
<title>Node2</title>
<g id="a_Node000002"><a xlink:href="classHfUtilsCanOpenTransport.html#aa7ca3b9e5bda184de10956e775976de4" target="_top" xlink:title=" ">
<polygon fill="white" stroke="#666666" points="300,-30 160,-30 160,0 300,0 300,-30"/>
<text text-anchor="start" x="168" y="-18" font-family="Helvetica,sans-Serif" font-size="10.00">HfUtilsCanOpenTransport</text>
<text text-anchor="middle" x="230" y="-7" font-family="Helvetica,sans-Serif" font-size="10.00">::receive</text>
</a>
</g>
</g>
<!-- Node1&#45;&gt;Node2 -->
<g id="edge1_Node000001_Node000002" class="edge">
<title>Node1&#45;&gt;Node2</title>
<g id="a_edge1_Node000001_Node000002"><a xlink:title=" ">
<path fill="none" stroke="#63b8ff" d="M124.34,-15C132.55,-15 141.06,-15 149.52,-15"/>
<polygon fill="#63b8ff" stroke="#63b8ff" points="149.8,-18.5 159.8,-15 149.8,-11.5 149.8,-18.5"/>
</a>
</g>
</g>
<!-- Node3 -->
<g id="Node000003" class="node">
<title>Node3</title>
<g id="a_Node000003"><a xlink:href="HfUtilsCanOpenBridge_8hpp.html#a3c53d9214a389deca928775a8509b5bd" target="_top" xlink:title=" ">
<polygon fill="white" stroke="#666666" points="490,-24.5 336,-24.5 336,-5.5 490,-5.5 490,-24.5"/>
<text text-anchor="middle" x="413" y="-12.5" font-family="Helvetica,sans-Serif" font-size="10.00">HfUtilsMessageToCanFrame</text>
</a>
</g>
</g>
<!-- Node2&#45;&gt;Node3 -->
<g id="edge2_Node000002_Node000003" class="edge">
<title>Node2&#45;&gt;Node3</title>
<g id="a_edge2_Node000002_Node000003"><a xlink:title=" ">
<path fill="none" stroke="#63b8ff" d="M300.2,-15C308.6,-15 317.25,-15 325.85,-15"/>
<polygon fill="#63b8ff" stroke="#63b8ff" points="325.9,-18.5 335.9,-15 325.9,-11.5 325.9,-18.5"/>
</a>
</g>
</g>
</g>
</svg>
