<?xml version="1.0" encoding="UTF-8" standalone="no"?>
<!DOCTYPE svg PUBLIC "-//W3C//DTD SVG 1.1//EN"
 "http://www.w3.org/Graphics/SVG/1.1/DTD/svg11.dtd">
<!-- Generated by graphviz version 2.43.0 (0)
 -->
<!-- Title: Tmc9660Handler::EnableDriverOutput Pages: 1 -->
<svg width="1295pt" height="115pt"
 viewBox="0.00 0.00 1295.00 115.00" xmlns="http://www.w3.org/2000/svg" xmlns:xlink="http://www.w3.org/1999/xlink">
<g id="graph0" class="graph" transform="scale(1 1) rotate(0) translate(4 111)">
<title>Tmc9660Handler::EnableDriverOutput</title>
<!-- Node1 -->
<g id="Node000001" class="node">
<title>Node1</title>
<g id="a_Node000001"><a xlink:title="Assert the DRV_EN control pin (enable the TMC9660 power stage hardware).">
<polygon fill="#999999" stroke="#666666" points="169,-62.5 0,-62.5 0,-32.5 169,-32.5 169,-62.5"/>
<text text-anchor="start" x="8" y="-50.5" font-family="Helvetica,sans-Serif" font-size="10.00">Tmc9660Handler::EnableDriver</text>
<text text-anchor="middle" x="84.5" y="-39.5" font-family="Helvetica,sans-Serif" font-size="10.00">Output</text>
</a>
</g>
</g>
<!-- Node2 -->
<g id="Node000002" class="node">
<title>Node2</title>
<g id="a_Node000002"><a xlink:href="classTmc9660Handler.html#a5a279ae9d4b5a8e0d71cb24577ad88ea" target="_top" xlink:title="Ensure driver is initialized (lazy init entrypoint).">
<polygon fill="white" stroke="#666666" points="788,-48 601,-48 601,-29 788,-29 788,-48"/>
<text text-anchor="middle" x="694.5" y="-36" font-family="Helvetica,sans-Serif" font-size="10.00">Tmc9660Handler::EnsureInitialized</text>
</a>
</g>
</g>
<!-- Node1&#45;&gt;Node2 -->
<g id="edge1_Node000001_Node000002" class="edge">
<title>Node1&#45;&gt;Node2</title>
<g id="a_edge1_Node000001_Node000002"><a xlink:title=" ">
<path fill="none" stroke="#63b8ff" d="M169.07,-62.35C265.07,-77.11 427.11,-94.96 565,-75.5 597.47,-70.92 633.23,-60.13 658.76,-51.38"/>
<polygon fill="#63b8ff" stroke="#63b8ff" points="660.08,-54.62 668.36,-48.02 657.76,-48.02 660.08,-54.62"/>
</a>
</g>
</g>
<!-- Node10 -->
<g id="Node000010" class="node">
<title>Node10</title>
<g id="a_Node000010"><a xlink:href="classTmc9660Handler.html#a393382194d0602e7aa02da6a8fd7a20a" target="_top" xlink:title="Get a reference to the Temperature wrapper.">
<polygon fill="white" stroke="#666666" points="565,-48 398,-48 398,-29 565,-29 565,-48"/>
<text text-anchor="middle" x="481.5" y="-36" font-family="Helvetica,sans-Serif" font-size="10.00">Tmc9660Handler::temperature</text>
</a>
</g>
</g>
<!-- Node1&#45;&gt;Node10 -->
<g id="edge11_Node000001_Node000010" class="edge">
<title>Node1&#45;&gt;Node10</title>
<g id="a_edge11_Node000001_Node000010"><a xlink:title=" ">
<path fill="none" stroke="#63b8ff" d="M169.27,-45.59C233.35,-44.13 321.67,-42.12 387.86,-40.61"/>
<polygon fill="#63b8ff" stroke="#63b8ff" points="387.95,-44.11 397.87,-40.38 387.79,-37.11 387.95,-44.11"/>
</a>
</g>
</g>
<!-- Node11 -->
<g id="Node000011" class="node">
<title>Node11</title>
<g id="a_Node000011"><a xlink:href="classTmc9660Handler.html#a4360829b58deda85e9da4b9cebee96f0" target="_top" xlink:title="Execute a function on the underlying typed TMC9660 driver.">
<polygon fill="white" stroke="#666666" points="362,-19 205,-19 205,0 362,0 362,-19"/>
<text text-anchor="middle" x="283.5" y="-7" font-family="Helvetica,sans-Serif" font-size="10.00">Tmc9660Handler::visitDriver</text>
</a>
</g>
</g>
<!-- Node1&#45;&gt;Node11 -->
<g id="edge14_Node000001_Node000011" class="edge">
<title>Node1&#45;&gt;Node11</title>
<g id="a_edge14_Node000001_Node000011"><a xlink:title=" ">
<path fill="none" stroke="#63b8ff" d="M163.36,-32.48C183.32,-28.63 204.47,-24.55 223.32,-20.91"/>
<polygon fill="#63b8ff" stroke="#63b8ff" points="224.09,-24.33 233.25,-19 222.76,-17.46 224.09,-24.33"/>
</a>
</g>
</g>
<!-- Node3 -->
<g id="Node000003" class="node">
<title>Node3</title>
<g id="a_Node000003"><a xlink:href="classTmc9660Handler.html#adc564847f8ae26c47412aaee0758991c" target="_top" xlink:title="Initialize the TMC9660 device.">
<polygon fill="white" stroke="#666666" points="972,-70 824,-70 824,-51 972,-51 972,-70"/>
<text text-anchor="middle" x="898" y="-58" font-family="Helvetica,sans-Serif" font-size="10.00">Tmc9660Handler::Initialize</text>
</a>
</g>
</g>
<!-- Node2&#45;&gt;Node3 -->
<g id="edge2_Node000002_Node000003" class="edge">
<title>Node2&#45;&gt;Node3</title>
<g id="a_edge2_Node000002_Node000003"><a xlink:title=" ">
<path fill="none" stroke="#63b8ff" d="M782.71,-48.02C793,-49.15 803.48,-50.29 813.72,-51.41"/>
<polygon fill="#63b8ff" stroke="#63b8ff" points="813.53,-54.91 823.85,-52.51 814.29,-47.95 813.53,-54.91"/>
</a>
</g>
</g>
<!-- Node9 -->
<g id="Node000009" class="node">
<title>Node9</title>
<g id="a_Node000009"><a xlink:href="classTmc9660Handler.html#a13db97d201a287d8aa60384e04070b9f" target="_top" xlink:title="Check if the TMC9660 driver has been initialized and is ready.">
<polygon fill="white" stroke="#666666" points="970,-32.5 826,-32.5 826,-2.5 970,-2.5 970,-32.5"/>
<text text-anchor="start" x="834" y="-20.5" font-family="Helvetica,sans-Serif" font-size="10.00">Tmc9660Handler::IsDriver</text>
<text text-anchor="middle" x="898" y="-9.5" font-family="Helvetica,sans-Serif" font-size="10.00">Ready</text>
</a>
</g>
</g>
<!-- Node2&#45;&gt;Node9 -->
<g id="edge10_Node000002_Node000009" class="edge">
<title>Node2&#45;&gt;Node9</title>
<g id="a_edge10_Node000002_Node000009"><a xlink:title=" ">
<path fill="none" stroke="#63b8ff" d="M786.82,-28.98C796.45,-27.98 806.2,-26.96 815.71,-25.97"/>
<polygon fill="#63b8ff" stroke="#63b8ff" points="816.34,-29.43 825.92,-24.91 815.61,-22.46 816.34,-29.43"/>
</a>
</g>
</g>
<!-- Node4 -->
<g id="Node000004" class="node">
<title>Node4</title>
<g id="a_Node000004"><a xlink:href="classLogger.html#adce17848a5844e053bfd314863dc1404" target="_top" xlink:title="Log error message.">
<polygon fill="white" stroke="#666666" points="1104.5,-70 1025.5,-70 1025.5,-51 1104.5,-51 1104.5,-70"/>
<text text-anchor="middle" x="1065" y="-58" font-family="Helvetica,sans-Serif" font-size="10.00">Logger::Error</text>
</a>
</g>
</g>
<!-- Node3&#45;&gt;Node4 -->
<g id="edge3_Node000003_Node000004" class="edge">
<title>Node3&#45;&gt;Node4</title>
<g id="a_edge3_Node000003_Node000004"><a xlink:title=" ">
<path fill="none" stroke="#63b8ff" d="M972.33,-60.5C986.73,-60.5 1001.5,-60.5 1014.87,-60.5"/>
<polygon fill="#63b8ff" stroke="#63b8ff" points="1015.26,-64 1025.26,-60.5 1015.26,-57 1015.26,-64"/>
</a>
</g>
</g>
<!-- Node7 -->
<g id="Node000007" class="node">
<title>Node7</title>
<g id="a_Node000007"><a xlink:href="classLogger.html#a5789d11f8f1356e2192c0023a089cbc4" target="_top" xlink:title="Get singleton instance.">
<polygon fill="white" stroke="#666666" points="1122,-33 1008,-33 1008,-14 1122,-14 1122,-33"/>
<text text-anchor="middle" x="1065" y="-21" font-family="Helvetica,sans-Serif" font-size="10.00">Logger::GetInstance</text>
</a>
</g>
</g>
<!-- Node3&#45;&gt;Node7 -->
<g id="edge6_Node000003_Node000007" class="edge">
<title>Node3&#45;&gt;Node7</title>
<g id="a_edge6_Node000003_Node000007"><a xlink:title=" ">
<path fill="none" stroke="#63b8ff" d="M941.49,-50.97C962.87,-46.18 988.97,-40.32 1011.58,-35.25"/>
<polygon fill="#63b8ff" stroke="#63b8ff" points="1012.37,-38.66 1021.37,-33.06 1010.84,-31.83 1012.37,-38.66"/>
</a>
</g>
</g>
<!-- Node8 -->
<g id="Node000008" class="node">
<title>Node8</title>
<g id="a_Node000008"><a xlink:href="classLogger.html#a4681229c521795685fc14f6b55c82300" target="_top" xlink:title="Log info message.">
<polygon fill="white" stroke="#666666" points="1102,-107 1028,-107 1028,-88 1102,-88 1102,-107"/>
<text text-anchor="middle" x="1065" y="-95" font-family="Helvetica,sans-Serif" font-size="10.00">Logger::Info</text>
</a>
</g>
</g>
<!-- Node3&#45;&gt;Node8 -->
<g id="edge7_Node000003_Node000008" class="edge">
<title>Node3&#45;&gt;Node8</title>
<g id="a_edge7_Node000003_Node000008"><a xlink:title=" ">
<path fill="none" stroke="#63b8ff" d="M941.49,-70.03C964.89,-75.27 993.94,-81.79 1017.89,-87.16"/>
<polygon fill="#63b8ff" stroke="#63b8ff" points="1017.28,-90.61 1027.8,-89.38 1018.81,-83.78 1017.28,-90.61"/>
</a>
</g>
</g>
<!-- Node5 -->
<g id="Node000005" class="node">
<title>Node5</title>
<g id="a_Node000005"><a xlink:href="classLogger.html#af9e84e0ff6bd538e4f9ed8dcebc3e2f0" target="_top" xlink:title="Check if log level is enabled for tag.">
<polygon fill="white" stroke="#666666" points="1287,-107 1158,-107 1158,-88 1287,-88 1287,-107"/>
<text text-anchor="middle" x="1222.5" y="-95" font-family="Helvetica,sans-Serif" font-size="10.00">Logger::IsLevelEnabled</text>
</a>
</g>
</g>
<!-- Node4&#45;&gt;Node5 -->
<g id="edge4_Node000004_Node000005" class="edge">
<title>Node4&#45;&gt;Node5</title>
<g id="a_edge4_Node000004_Node000005"><a xlink:title=" ">
<path fill="none" stroke="#63b8ff" d="M1104.84,-69.74C1125.03,-74.55 1149.94,-80.47 1171.55,-85.61"/>
<polygon fill="#63b8ff" stroke="#63b8ff" points="1171,-89.08 1181.53,-87.99 1172.62,-82.27 1171,-89.08"/>
</a>
</g>
</g>
<!-- Node6 -->
<g id="Node000006" class="node">
<title>Node6</title>
<g id="a_Node000006"><a xlink:href="classLogger.html#a6adb205db597526fb91ad20067400394" target="_top" xlink:title="Internal logging method.">
<polygon fill="white" stroke="#666666" points="1277.5,-70 1167.5,-70 1167.5,-51 1277.5,-51 1277.5,-70"/>
<text text-anchor="middle" x="1222.5" y="-58" font-family="Helvetica,sans-Serif" font-size="10.00">Logger::LogInternal</text>
</a>
</g>
</g>
<!-- Node4&#45;&gt;Node6 -->
<g id="edge5_Node000004_Node000006" class="edge">
<title>Node4&#45;&gt;Node6</title>
<g id="a_edge5_Node000004_Node000006"><a xlink:title=" ">
<path fill="none" stroke="#63b8ff" d="M1104.84,-60.5C1120.63,-60.5 1139.31,-60.5 1157.03,-60.5"/>
<polygon fill="#63b8ff" stroke="#63b8ff" points="1157.33,-64 1167.33,-60.5 1157.33,-57 1157.33,-64"/>
</a>
</g>
</g>
<!-- Node8&#45;&gt;Node5 -->
<g id="edge8_Node000008_Node000005" class="edge">
<title>Node8&#45;&gt;Node5</title>
<g id="a_edge8_Node000008_Node000005"><a xlink:title=" ">
<path fill="none" stroke="#63b8ff" d="M1102.07,-97.5C1115.68,-97.5 1131.72,-97.5 1147.55,-97.5"/>
<polygon fill="#63b8ff" stroke="#63b8ff" points="1147.89,-101 1157.89,-97.5 1147.89,-94 1147.89,-101"/>
</a>
</g>
</g>
<!-- Node8&#45;&gt;Node6 -->
<g id="edge9_Node000008_Node000006" class="edge">
<title>Node8&#45;&gt;Node6</title>
<g id="a_edge9_Node000008_Node000006"><a xlink:title=" ">
<path fill="none" stroke="#63b8ff" d="M1102.07,-88.92C1122.78,-83.99 1149.09,-77.73 1171.74,-72.34"/>
<polygon fill="#63b8ff" stroke="#63b8ff" points="1172.61,-75.73 1181.53,-70.01 1170.99,-68.92 1172.61,-75.73"/>
</a>
</g>
</g>
<!-- Node10&#45;&gt;Node2 -->
<g id="edge12_Node000010_Node000002" class="edge">
<title>Node10&#45;&gt;Node2</title>
<g id="a_edge12_Node000010_Node000002"><a xlink:title=" ">
<path fill="none" stroke="#63b8ff" d="M565.29,-38.5C573.67,-38.5 582.25,-38.5 590.81,-38.5"/>
<polygon fill="#63b8ff" stroke="#63b8ff" points="590.83,-42 600.83,-38.5 590.83,-35 590.83,-42"/>
</a>
</g>
</g>
<!-- Node10&#45;&gt;Node10 -->
<g id="edge13_Node000010_Node000010" class="edge">
<title>Node10&#45;&gt;Node10</title>
<g id="a_edge13_Node000010_Node000010"><a xlink:title=" ">
<path fill="none" stroke="#63b8ff" d="M450.98,-48.08C436.14,-56.73 446.31,-66 481.5,-66 506.24,-66 518.62,-61.42 518.62,-55.69"/>
<polygon fill="#63b8ff" stroke="#63b8ff" points="521.22,-53.34 512.02,-48.08 515.93,-57.93 521.22,-53.34"/>
</a>
</g>
</g>
<!-- Node11&#45;&gt;Node2 -->
<g id="edge15_Node000011_Node000002" class="edge">
<title>Node11&#45;&gt;Node2</title>
<g id="a_edge15_Node000011_Node000002"><a xlink:title=" ">
<path fill="none" stroke="#63b8ff" d="M362.04,-9.95C418.43,-10.84 496.58,-13.24 565,-19.5 585.65,-21.39 608.05,-24.37 628.27,-27.42"/>
<polygon fill="#63b8ff" stroke="#63b8ff" points="627.9,-30.91 638.32,-28.97 628.97,-23.99 627.9,-30.91"/>
</a>
</g>
</g>
<!-- Node11&#45;&gt;Node10 -->
<g id="edge16_Node000011_Node000010" class="edge">
<title>Node11&#45;&gt;Node10</title>
<g id="a_edge16_Node000011_Node000010"><a xlink:title=" ">
<path fill="none" stroke="#63b8ff" d="M348.95,-19.04C367.2,-21.74 387.22,-24.7 406.02,-27.48"/>
<polygon fill="#63b8ff" stroke="#63b8ff" points="405.61,-30.96 416.01,-28.96 406.63,-24.03 405.61,-30.96"/>
</a>
</g>
</g>
</g>
</svg>
