<?xml version="1.0" encoding="UTF-8" standalone="no"?>
<!DOCTYPE svg PUBLIC "-//W3C//DTD SVG 1.1//EN"
 "http://www.w3.org/Graphics/SVG/1.1/DTD/svg11.dtd">
<!-- Generated by graphviz version 2.43.0 (0)
 -->
<!-- Title: Tmc9660Handler::visitDriver Pages: 1 -->
<svg width="1090pt" height="114pt"
 viewBox="0.00 0.00 1090.00 114.00" xmlns="http://www.w3.org/2000/svg" xmlns:xlink="http://www.w3.org/1999/xlink">
<g id="graph0" class="graph" transform="scale(1 1) rotate(0) translate(4 110)">
<title>Tmc9660Handler::visitDriver</title>
<!-- Node1 -->
<g id="Node000001" class="node">
<title>Node1</title>
<g id="a_Node000001"><a xlink:title="Execute a function on the underlying typed TMC9660 driver.">
<polygon fill="#999999" stroke="#666666" points="157,-47 0,-47 0,-28 157,-28 157,-47"/>
<text text-anchor="middle" x="78.5" y="-35" font-family="Helvetica,sans-Serif" font-size="10.00">Tmc9660Handler::visitDriver</text>
</a>
</g>
</g>
<!-- Node2 -->
<g id="Node000002" class="node">
<title>Node2</title>
<g id="a_Node000002"><a xlink:href="classTmc9660Handler.html#a5a279ae9d4b5a8e0d71cb24577ad88ea" target="_top" xlink:title="Ensure driver is initialized (lazy init entrypoint).">
<polygon fill="white" stroke="#666666" points="583,-47 396,-47 396,-28 583,-28 583,-47"/>
<text text-anchor="middle" x="489.5" y="-35" font-family="Helvetica,sans-Serif" font-size="10.00">Tmc9660Handler::EnsureInitialized</text>
</a>
</g>
</g>
<!-- Node1&#45;&gt;Node2 -->
<g id="edge1_Node000001_Node000002" class="edge">
<title>Node1&#45;&gt;Node2</title>
<g id="a_edge1_Node000001_Node000002"><a xlink:title=" ">
<path fill="none" stroke="#63b8ff" d="M157.3,-44.49C169.24,-45.32 181.45,-46.04 193,-46.5 267.16,-49.44 285.82,-49.09 360,-46.5 368.35,-46.21 377.01,-45.81 385.69,-45.34"/>
<polygon fill="#63b8ff" stroke="#63b8ff" points="386.11,-48.82 395.89,-44.76 385.71,-41.83 386.11,-48.82"/>
</a>
</g>
</g>
<!-- Node10 -->
<g id="Node000010" class="node">
<title>Node10</title>
<g id="a_Node000010"><a xlink:href="classTmc9660Handler.html#a393382194d0602e7aa02da6a8fd7a20a" target="_top" xlink:title="Get a reference to the Temperature wrapper.">
<polygon fill="white" stroke="#666666" points="360,-19 193,-19 193,0 360,0 360,-19"/>
<text text-anchor="middle" x="276.5" y="-7" font-family="Helvetica,sans-Serif" font-size="10.00">Tmc9660Handler::temperature</text>
</a>
</g>
</g>
<!-- Node1&#45;&gt;Node10 -->
<g id="edge11_Node000001_Node000010" class="edge">
<title>Node1&#45;&gt;Node10</title>
<g id="a_edge11_Node000001_Node000010"><a xlink:title=" ">
<path fill="none" stroke="#63b8ff" d="M146.13,-27.98C163.01,-25.57 181.29,-22.96 198.63,-20.48"/>
<polygon fill="#63b8ff" stroke="#63b8ff" points="199.32,-23.92 208.72,-19.04 198.33,-16.99 199.32,-23.92"/>
</a>
</g>
</g>
<!-- Node3 -->
<g id="Node000003" class="node">
<title>Node3</title>
<g id="a_Node000003"><a xlink:href="classTmc9660Handler.html#adc564847f8ae26c47412aaee0758991c" target="_top" xlink:title="Initialize the TMC9660 device.">
<polygon fill="white" stroke="#666666" points="767,-69 619,-69 619,-50 767,-50 767,-69"/>
<text text-anchor="middle" x="693" y="-57" font-family="Helvetica,sans-Serif" font-size="10.00">Tmc9660Handler::Initialize</text>
</a>
</g>
</g>
<!-- Node2&#45;&gt;Node3 -->
<g id="edge2_Node000002_Node000003" class="edge">
<title>Node2&#45;&gt;Node3</title>
<g id="a_edge2_Node000002_Node000003"><a xlink:title=" ">
<path fill="none" stroke="#63b8ff" d="M577.71,-47.02C588,-48.15 598.48,-49.29 608.72,-50.41"/>
<polygon fill="#63b8ff" stroke="#63b8ff" points="608.53,-53.91 618.85,-51.51 609.29,-46.95 608.53,-53.91"/>
</a>
</g>
</g>
<!-- Node9 -->
<g id="Node000009" class="node">
<title>Node9</title>
<g id="a_Node000009"><a xlink:href="classTmc9660Handler.html#a13db97d201a287d8aa60384e04070b9f" target="_top" xlink:title="Check if the TMC9660 driver has been initialized and is ready.">
<polygon fill="white" stroke="#666666" points="765,-31.5 621,-31.5 621,-1.5 765,-1.5 765,-31.5"/>
<text text-anchor="start" x="629" y="-19.5" font-family="Helvetica,sans-Serif" font-size="10.00">Tmc9660Handler::IsDriver</text>
<text text-anchor="middle" x="693" y="-8.5" font-family="Helvetica,sans-Serif" font-size="10.00">Ready</text>
</a>
</g>
</g>
<!-- Node2&#45;&gt;Node9 -->
<g id="edge10_Node000002_Node000009" class="edge">
<title>Node2&#45;&gt;Node9</title>
<g id="a_edge10_Node000002_Node000009"><a xlink:title=" ">
<path fill="none" stroke="#63b8ff" d="M581.82,-27.98C591.45,-26.98 601.2,-25.96 610.71,-24.97"/>
<polygon fill="#63b8ff" stroke="#63b8ff" points="611.34,-28.43 620.92,-23.91 610.61,-21.46 611.34,-28.43"/>
</a>
</g>
</g>
<!-- Node4 -->
<g id="Node000004" class="node">
<title>Node4</title>
<g id="a_Node000004"><a xlink:href="classLogger.html#adce17848a5844e053bfd314863dc1404" target="_top" xlink:title="Log error message.">
<polygon fill="white" stroke="#666666" points="899.5,-69 820.5,-69 820.5,-50 899.5,-50 899.5,-69"/>
<text text-anchor="middle" x="860" y="-57" font-family="Helvetica,sans-Serif" font-size="10.00">Logger::Error</text>
</a>
</g>
</g>
<!-- Node3&#45;&gt;Node4 -->
<g id="edge3_Node000003_Node000004" class="edge">
<title>Node3&#45;&gt;Node4</title>
<g id="a_edge3_Node000003_Node000004"><a xlink:title=" ">
<path fill="none" stroke="#63b8ff" d="M767.33,-59.5C781.73,-59.5 796.5,-59.5 809.87,-59.5"/>
<polygon fill="#63b8ff" stroke="#63b8ff" points="810.26,-63 820.26,-59.5 810.26,-56 810.26,-63"/>
</a>
</g>
</g>
<!-- Node7 -->
<g id="Node000007" class="node">
<title>Node7</title>
<g id="a_Node000007"><a xlink:href="classLogger.html#a5789d11f8f1356e2192c0023a089cbc4" target="_top" xlink:title="Get singleton instance.">
<polygon fill="white" stroke="#666666" points="917,-32 803,-32 803,-13 917,-13 917,-32"/>
<text text-anchor="middle" x="860" y="-20" font-family="Helvetica,sans-Serif" font-size="10.00">Logger::GetInstance</text>
</a>
</g>
</g>
<!-- Node3&#45;&gt;Node7 -->
<g id="edge6_Node000003_Node000007" class="edge">
<title>Node3&#45;&gt;Node7</title>
<g id="a_edge6_Node000003_Node000007"><a xlink:title=" ">
<path fill="none" stroke="#63b8ff" d="M736.49,-49.97C757.87,-45.18 783.97,-39.32 806.58,-34.25"/>
<polygon fill="#63b8ff" stroke="#63b8ff" points="807.37,-37.66 816.37,-32.06 805.84,-30.83 807.37,-37.66"/>
</a>
</g>
</g>
<!-- Node8 -->
<g id="Node000008" class="node">
<title>Node8</title>
<g id="a_Node000008"><a xlink:href="classLogger.html#a4681229c521795685fc14f6b55c82300" target="_top" xlink:title="Log info message.">
<polygon fill="white" stroke="#666666" points="897,-106 823,-106 823,-87 897,-87 897,-106"/>
<text text-anchor="middle" x="860" y="-94" font-family="Helvetica,sans-Serif" font-size="10.00">Logger::Info</text>
</a>
</g>
</g>
<!-- Node3&#45;&gt;Node8 -->
<g id="edge7_Node000003_Node000008" class="edge">
<title>Node3&#45;&gt;Node8</title>
<g id="a_edge7_Node000003_Node000008"><a xlink:title=" ">
<path fill="none" stroke="#63b8ff" d="M736.49,-69.03C759.89,-74.27 788.94,-80.79 812.89,-86.16"/>
<polygon fill="#63b8ff" stroke="#63b8ff" points="812.28,-89.61 822.8,-88.38 813.81,-82.78 812.28,-89.61"/>
</a>
</g>
</g>
<!-- Node5 -->
<g id="Node000005" class="node">
<title>Node5</title>
<g id="a_Node000005"><a xlink:href="classLogger.html#af9e84e0ff6bd538e4f9ed8dcebc3e2f0" target="_top" xlink:title="Check if log level is enabled for tag.">
<polygon fill="white" stroke="#666666" points="1082,-106 953,-106 953,-87 1082,-87 1082,-106"/>
<text text-anchor="middle" x="1017.5" y="-94" font-family="Helvetica,sans-Serif" font-size="10.00">Logger::IsLevelEnabled</text>
</a>
</g>
</g>
<!-- Node4&#45;&gt;Node5 -->
<g id="edge4_Node000004_Node000005" class="edge">
<title>Node4&#45;&gt;Node5</title>
<g id="a_edge4_Node000004_Node000005"><a xlink:title=" ">
<path fill="none" stroke="#63b8ff" d="M899.84,-68.74C920.03,-73.55 944.94,-79.47 966.55,-84.61"/>
<polygon fill="#63b8ff" stroke="#63b8ff" points="966,-88.08 976.53,-86.99 967.62,-81.27 966,-88.08"/>
</a>
</g>
</g>
<!-- Node6 -->
<g id="Node000006" class="node">
<title>Node6</title>
<g id="a_Node000006"><a xlink:href="classLogger.html#a6adb205db597526fb91ad20067400394" target="_top" xlink:title="Internal logging method.">
<polygon fill="white" stroke="#666666" points="1072.5,-69 962.5,-69 962.5,-50 1072.5,-50 1072.5,-69"/>
<text text-anchor="middle" x="1017.5" y="-57" font-family="Helvetica,sans-Serif" font-size="10.00">Logger::LogInternal</text>
</a>
</g>
</g>
<!-- Node4&#45;&gt;Node6 -->
<g id="edge5_Node000004_Node000006" class="edge">
<title>Node4&#45;&gt;Node6</title>
<g id="a_edge5_Node000004_Node000006"><a xlink:title=" ">
<path fill="none" stroke="#63b8ff" d="M899.84,-59.5C915.63,-59.5 934.31,-59.5 952.03,-59.5"/>
<polygon fill="#63b8ff" stroke="#63b8ff" points="952.33,-63 962.33,-59.5 952.33,-56 952.33,-63"/>
</a>
</g>
</g>
<!-- Node8&#45;&gt;Node5 -->
<g id="edge8_Node000008_Node000005" class="edge">
<title>Node8&#45;&gt;Node5</title>
<g id="a_edge8_Node000008_Node000005"><a xlink:title=" ">
<path fill="none" stroke="#63b8ff" d="M897.07,-96.5C910.68,-96.5 926.72,-96.5 942.55,-96.5"/>
<polygon fill="#63b8ff" stroke="#63b8ff" points="942.89,-100 952.89,-96.5 942.89,-93 942.89,-100"/>
</a>
</g>
</g>
<!-- Node8&#45;&gt;Node6 -->
<g id="edge9_Node000008_Node000006" class="edge">
<title>Node8&#45;&gt;Node6</title>
<g id="a_edge9_Node000008_Node000006"><a xlink:title=" ">
<path fill="none" stroke="#63b8ff" d="M897.07,-87.92C917.78,-82.99 944.09,-76.73 966.74,-71.34"/>
<polygon fill="#63b8ff" stroke="#63b8ff" points="967.61,-74.73 976.53,-69.01 965.99,-67.92 967.61,-74.73"/>
</a>
</g>
</g>
<!-- Node10&#45;&gt;Node2 -->
<g id="edge12_Node000010_Node000002" class="edge">
<title>Node10&#45;&gt;Node2</title>
<g id="a_edge12_Node000010_Node000002"><a xlink:title=" ">
<path fill="none" stroke="#63b8ff" d="M349.23,-19.02C367.66,-21.46 387.63,-24.11 406.54,-26.62"/>
<polygon fill="#63b8ff" stroke="#63b8ff" points="406.24,-30.11 416.61,-27.96 407.16,-23.18 406.24,-30.11"/>
</a>
</g>
</g>
<!-- Node10&#45;&gt;Node10 -->
<g id="edge13_Node000010_Node000010" class="edge">
<title>Node10&#45;&gt;Node10</title>
<g id="a_edge13_Node000010_Node000010"><a xlink:title=" ">
<path fill="none" stroke="#63b8ff" d="M245.98,-19.08C231.14,-27.73 241.31,-37 276.5,-37 301.24,-37 313.62,-32.42 313.62,-26.69"/>
<polygon fill="#63b8ff" stroke="#63b8ff" points="316.22,-24.34 307.02,-19.08 310.93,-28.93 316.22,-24.34"/>
</a>
</g>
</g>
</g>
</svg>
