<?xml version="1.0" encoding="UTF-8" standalone="no"?>
<!DOCTYPE svg PUBLIC "-//W3C//DTD SVG 1.1//EN"
 "http://www.w3.org/Graphics/SVG/1.1/DTD/svg11.dtd">
<!-- Generated by graphviz version 2.43.0 (0)
 -->
<!-- Title: Pca9685Handler::Sleep Pages: 1 -->
<svg width="536pt" height="38pt"
 viewBox="0.00 0.00 536.00 38.00" xmlns="http://www.w3.org/2000/svg" xmlns:xlink="http://www.w3.org/1999/xlink">
<g id="graph0" class="graph" transform="scale(1 1) rotate(0) translate(4 34)">
<title>Pca9685Handler::Sleep</title>
<!-- Node1 -->
<g id="Node000001" class="node">
<title>Node1</title>
<g id="a_Node000001"><a xlink:title="Put PCA9685 into low&#45;power sleep mode.">
<polygon fill="#999999" stroke="#666666" points="129,-24.5 0,-24.5 0,-5.5 129,-5.5 129,-24.5"/>
<text text-anchor="middle" x="64.5" y="-12.5" font-family="Helvetica,sans-Serif" font-size="10.00">Pca9685Handler::Sleep</text>
</a>
</g>
</g>
<!-- Node2 -->
<g id="Node000002" class="node">
<title>Node2</title>
<g id="a_Node000002"><a xlink:href="classPca9685Handler.html#abc72cbb1c0ffd4410143d52c605e0e49" target="_top" xlink:title="Check init under already&#45;held handler_mutex_.">
<polygon fill="white" stroke="#666666" points="348,-30 165,-30 165,0 348,0 348,-30"/>
<text text-anchor="start" x="173" y="-18" font-family="Helvetica,sans-Serif" font-size="10.00">Pca9685Handler::ensureInitialized</text>
<text text-anchor="middle" x="256.5" y="-7" font-family="Helvetica,sans-Serif" font-size="10.00">Locked</text>
</a>
</g>
</g>
<!-- Node1&#45;&gt;Node2 -->
<g id="edge1_Node000001_Node000002" class="edge">
<title>Node1&#45;&gt;Node2</title>
<g id="a_edge1_Node000001_Node000002"><a xlink:title=" ">
<path fill="none" stroke="#63b8ff" d="M129.03,-15C137.33,-15 145.99,-15 154.71,-15"/>
<polygon fill="#63b8ff" stroke="#63b8ff" points="154.96,-18.5 164.96,-15 154.96,-11.5 154.96,-18.5"/>
</a>
</g>
</g>
<!-- Node3 -->
<g id="Node000003" class="node">
<title>Node3</title>
<g id="a_Node000003"><a xlink:href="classPca9685Handler.html#ab7b5cd2320a6bb69ff6a2869051e9d5e" target="_top" xlink:title="Internal initialization (called under mutex).">
<polygon fill="white" stroke="#666666" points="528,-30 384,-30 384,0 528,0 528,-30"/>
<text text-anchor="start" x="392" y="-18" font-family="Helvetica,sans-Serif" font-size="10.00">Pca9685Handler::initialize</text>
<text text-anchor="middle" x="456" y="-7" font-family="Helvetica,sans-Serif" font-size="10.00">Internal</text>
</a>
</g>
</g>
<!-- Node2&#45;&gt;Node3 -->
<g id="edge2_Node000002_Node000003" class="edge">
<title>Node2&#45;&gt;Node3</title>
<g id="a_edge2_Node000002_Node000003"><a xlink:title=" ">
<path fill="none" stroke="#63b8ff" d="M348.16,-15C356.66,-15 365.25,-15 373.67,-15"/>
<polygon fill="#63b8ff" stroke="#63b8ff" points="373.82,-18.5 383.82,-15 373.82,-11.5 373.82,-18.5"/>
</a>
</g>
</g>
</g>
</svg>
