<?xml version="1.0" encoding="UTF-8" standalone="no"?>
<!DOCTYPE svg PUBLIC "-//W3C//DTD SVG 1.1//EN"
 "http://www.w3.org/Graphics/SVG/1.1/DTD/svg11.dtd">
<!-- Generated by graphviz version 2.43.0 (0)
 -->
<!-- Title: Max22200Handler::HasFault Pages: 1 -->
<svg width="896pt" height="138pt"
 viewBox="0.00 0.00 896.00 138.00" xmlns="http://www.w3.org/2000/svg" xmlns:xlink="http://www.w3.org/1999/xlink">
<g id="graph0" class="graph" transform="scale(1 1) rotate(0) translate(4 134)">
<title>Max22200Handler::HasFault</title>
<!-- Node1 -->
<g id="Node000001" class="node">
<title>Node1</title>
<g id="a_Node000001"><a xlink:title="Check if any fault is present.">
<polygon fill="#999999" stroke="#666666" points="154,-83 0,-83 0,-64 154,-64 154,-83"/>
<text text-anchor="middle" x="77" y="-71" font-family="Helvetica,sans-Serif" font-size="10.00">Max22200Handler::HasFault</text>
</a>
</g>
</g>
<!-- Node2 -->
<g id="Node000002" class="node">
<title>Node2</title>
<g id="a_Node000002"><a xlink:href="classMax22200Handler.html#aa00edacb247660349767fa4521121104" target="_top" xlink:title=" ">
<polygon fill="white" stroke="#666666" points="383,-88.5 190,-88.5 190,-58.5 383,-58.5 383,-88.5"/>
<text text-anchor="start" x="198" y="-76.5" font-family="Helvetica,sans-Serif" font-size="10.00">Max22200Handler::EnsureInitialized</text>
<text text-anchor="middle" x="286.5" y="-65.5" font-family="Helvetica,sans-Serif" font-size="10.00">Locked</text>
</a>
</g>
</g>
<!-- Node1&#45;&gt;Node2 -->
<g id="edge1_Node000001_Node000002" class="edge">
<title>Node1&#45;&gt;Node2</title>
<g id="a_edge1_Node000001_Node000002"><a xlink:title=" ">
<path fill="none" stroke="#63b8ff" d="M154.09,-73.5C162.48,-73.5 171.14,-73.5 179.82,-73.5"/>
<polygon fill="#63b8ff" stroke="#63b8ff" points="179.99,-77 189.99,-73.5 179.99,-70 179.99,-77"/>
</a>
</g>
</g>
<!-- Node3 -->
<g id="Node000003" class="node">
<title>Node3</title>
<g id="a_Node000003"><a xlink:href="classLogger.html#a5e4bcdaea60b9ac227b564d780388769" target="_top" xlink:title="Log error message.">
<polygon fill="white" stroke="#666666" points="705.5,-130 626.5,-130 626.5,-111 705.5,-111 705.5,-130"/>
<text text-anchor="middle" x="666" y="-118" font-family="Helvetica,sans-Serif" font-size="10.00">Logger::Error</text>
</a>
</g>
</g>
<!-- Node2&#45;&gt;Node3 -->
<g id="edge2_Node000002_Node000003" class="edge">
<title>Node2&#45;&gt;Node3</title>
<g id="a_edge2_Node000002_Node000003"><a xlink:title=" ">
<path fill="none" stroke="#63b8ff" d="M383.33,-87.69C395.34,-89.37 407.45,-91.01 419,-92.5 487.26,-101.31 566.36,-110.06 616.04,-115.37"/>
<polygon fill="#63b8ff" stroke="#63b8ff" points="615.87,-118.87 626.18,-116.45 616.61,-111.91 615.87,-118.87"/>
</a>
</g>
</g>
<!-- Node6 -->
<g id="Node000006" class="node">
<title>Node6</title>
<g id="a_Node000006"><a xlink:href="classLogger.html#a5789d11f8f1356e2192c0023a089cbc4" target="_top" xlink:title="Get singleton instance.">
<polygon fill="white" stroke="#666666" points="723,-19 609,-19 609,0 723,0 723,-19"/>
<text text-anchor="middle" x="666" y="-7" font-family="Helvetica,sans-Serif" font-size="10.00">Logger::GetInstance</text>
</a>
</g>
</g>
<!-- Node2&#45;&gt;Node6 -->
<g id="edge5_Node000002_Node000006" class="edge">
<title>Node2&#45;&gt;Node6</title>
<g id="a_edge5_Node000002_Node000006"><a xlink:title=" ">
<path fill="none" stroke="#63b8ff" d="M376.01,-58.49C444.23,-46.93 537.08,-31.19 598.92,-20.7"/>
<polygon fill="#63b8ff" stroke="#63b8ff" points="599.68,-24.12 608.95,-19 598.51,-17.22 599.68,-24.12"/>
</a>
</g>
</g>
<!-- Node7 -->
<g id="Node000007" class="node">
<title>Node7</title>
<g id="a_Node000007"><a xlink:href="classMax22200Handler.html#ad6c72b45a96c36cd1b450f5e330fad25" target="_top" xlink:title="Initialize driver (ENABLE HIGH, read/clear STATUS, set ACTIVE).">
<polygon fill="white" stroke="#666666" points="573,-83 419,-83 419,-64 573,-64 573,-83"/>
<text text-anchor="middle" x="496" y="-71" font-family="Helvetica,sans-Serif" font-size="10.00">Max22200Handler::Initialize</text>
</a>
</g>
</g>
<!-- Node2&#45;&gt;Node7 -->
<g id="edge6_Node000002_Node000007" class="edge">
<title>Node2&#45;&gt;Node7</title>
<g id="a_edge6_Node000002_Node000007"><a xlink:title=" ">
<path fill="none" stroke="#63b8ff" d="M383.05,-73.5C391.6,-73.5 400.22,-73.5 408.68,-73.5"/>
<polygon fill="#63b8ff" stroke="#63b8ff" points="408.9,-77 418.9,-73.5 408.9,-70 408.9,-77"/>
</a>
</g>
</g>
<!-- Node4 -->
<g id="Node000004" class="node">
<title>Node4</title>
<g id="a_Node000004"><a xlink:href="classLogger.html#a737b981213c02321a5235848334d7191" target="_top" xlink:title="Check if log level is enabled for tag.">
<polygon fill="white" stroke="#666666" points="888,-111 759,-111 759,-92 888,-92 888,-111"/>
<text text-anchor="middle" x="823.5" y="-99" font-family="Helvetica,sans-Serif" font-size="10.00">Logger::IsLevelEnabled</text>
</a>
</g>
</g>
<!-- Node3&#45;&gt;Node4 -->
<g id="edge3_Node000003_Node000004" class="edge">
<title>Node3&#45;&gt;Node4</title>
<g id="a_edge3_Node000003_Node000004"><a xlink:title=" ">
<path fill="none" stroke="#63b8ff" d="M705.84,-115.75C718.85,-114.16 733.82,-112.34 748.6,-110.53"/>
<polygon fill="#63b8ff" stroke="#63b8ff" points="749.28,-113.97 758.78,-109.29 748.43,-107.02 749.28,-113.97"/>
</a>
</g>
</g>
<!-- Node5 -->
<g id="Node000005" class="node">
<title>Node5</title>
<g id="a_Node000005"><a xlink:href="classLogger.html#aeede6ac18db92a47caede076ef188a13" target="_top" xlink:title="Internal logging method.">
<polygon fill="white" stroke="#666666" points="878.5,-74 768.5,-74 768.5,-55 878.5,-55 878.5,-74"/>
<text text-anchor="middle" x="823.5" y="-62" font-family="Helvetica,sans-Serif" font-size="10.00">Logger::LogInternal</text>
</a>
</g>
</g>
<!-- Node3&#45;&gt;Node5 -->
<g id="edge4_Node000003_Node000005" class="edge">
<title>Node3&#45;&gt;Node5</title>
<g id="a_edge4_Node000003_Node000005"><a xlink:title=" ">
<path fill="none" stroke="#63b8ff" d="M699.92,-110.98C707.59,-108.47 715.66,-105.59 723,-102.5 739.68,-95.48 742.25,-90.35 759,-83.5 764.53,-81.24 770.42,-79.12 776.31,-77.16"/>
<polygon fill="#63b8ff" stroke="#63b8ff" points="777.67,-80.41 786.14,-74.05 775.55,-73.73 777.67,-80.41"/>
</a>
</g>
</g>
<!-- Node7&#45;&gt;Node3 -->
<g id="edge7_Node000007_Node000003" class="edge">
<title>Node7&#45;&gt;Node3</title>
<g id="a_edge7_Node000007_Node000003"><a xlink:title=" ">
<path fill="none" stroke="#63b8ff" d="M531,-83.01C556.87,-90.25 592.7,-100.27 620.8,-108.13"/>
<polygon fill="#63b8ff" stroke="#63b8ff" points="620.19,-111.6 630.77,-110.92 622.08,-104.86 620.19,-111.6"/>
</a>
</g>
</g>
<!-- Node7&#45;&gt;Node6 -->
<g id="edge8_Node000007_Node000006" class="edge">
<title>Node7&#45;&gt;Node6</title>
<g id="a_edge8_Node000007_Node000006"><a xlink:title=" ">
<path fill="none" stroke="#63b8ff" d="M518.69,-64C541.11,-54.32 577.21,-39.12 609,-27.5 613.85,-25.73 618.97,-23.95 624.07,-22.25"/>
<polygon fill="#63b8ff" stroke="#63b8ff" points="625.34,-25.51 633.75,-19.06 623.16,-18.86 625.34,-25.51"/>
</a>
</g>
</g>
<!-- Node8 -->
<g id="Node000008" class="node">
<title>Node8</title>
<g id="a_Node000008"><a xlink:href="classLogger.html#a1c0c947d87884bca0395fd38d19d1102" target="_top" xlink:title="Log info message.">
<polygon fill="white" stroke="#666666" points="703,-56 629,-56 629,-37 703,-37 703,-56"/>
<text text-anchor="middle" x="666" y="-44" font-family="Helvetica,sans-Serif" font-size="10.00">Logger::Info</text>
</a>
</g>
</g>
<!-- Node7&#45;&gt;Node8 -->
<g id="edge9_Node000007_Node000008" class="edge">
<title>Node7&#45;&gt;Node8</title>
<g id="a_edge9_Node000007_Node000008"><a xlink:title=" ">
<path fill="none" stroke="#63b8ff" d="M556.23,-63.98C576.73,-60.69 599.39,-57.04 618.7,-53.94"/>
<polygon fill="#63b8ff" stroke="#63b8ff" points="619.44,-57.37 628.75,-52.33 618.32,-50.46 619.44,-57.37"/>
</a>
</g>
</g>
<!-- Node9 -->
<g id="Node000009" class="node">
<title>Node9</title>
<g id="a_Node000009"><a xlink:href="classLogger.html#a8c19c14724b0be1d2be63da4258c001a" target="_top" xlink:title="Log warning message.">
<polygon fill="white" stroke="#666666" points="706,-93 626,-93 626,-74 706,-74 706,-93"/>
<text text-anchor="middle" x="666" y="-81" font-family="Helvetica,sans-Serif" font-size="10.00">Logger::Warn</text>
</a>
</g>
</g>
<!-- Node7&#45;&gt;Node9 -->
<g id="edge12_Node000007_Node000009" class="edge">
<title>Node7&#45;&gt;Node9</title>
<g id="a_edge12_Node000007_Node000009"><a xlink:title=" ">
<path fill="none" stroke="#63b8ff" d="M573.14,-78.03C587.52,-78.89 602.22,-79.76 615.52,-80.55"/>
<polygon fill="#63b8ff" stroke="#63b8ff" points="615.66,-84.07 625.85,-81.17 616.08,-77.08 615.66,-84.07"/>
</a>
</g>
</g>
<!-- Node8&#45;&gt;Node4 -->
<g id="edge10_Node000008_Node000004" class="edge">
<title>Node8&#45;&gt;Node4</title>
<g id="a_edge10_Node000008_Node000004"><a xlink:title=" ">
<path fill="none" stroke="#63b8ff" d="M697.51,-56.01C705.86,-58.84 714.85,-62.1 723,-65.5 739.51,-72.39 742.32,-77.03 759,-83.5 764.07,-85.47 769.45,-87.33 774.85,-89.05"/>
<polygon fill="#63b8ff" stroke="#63b8ff" points="773.92,-92.42 784.51,-91.99 775.96,-85.73 773.92,-92.42"/>
</a>
</g>
</g>
<!-- Node8&#45;&gt;Node5 -->
<g id="edge11_Node000008_Node000005" class="edge">
<title>Node8&#45;&gt;Node5</title>
<g id="a_edge11_Node000008_Node000005"><a xlink:title=" ">
<path fill="none" stroke="#63b8ff" d="M703.07,-50.67C719.49,-52.58 739.44,-54.89 758.3,-57.07"/>
<polygon fill="#63b8ff" stroke="#63b8ff" points="758,-60.56 768.33,-58.23 758.8,-53.6 758,-60.56"/>
</a>
</g>
</g>
<!-- Node9&#45;&gt;Node4 -->
<g id="edge13_Node000009_Node000004" class="edge">
<title>Node9&#45;&gt;Node4</title>
<g id="a_edge13_Node000009_Node000004"><a xlink:title=" ">
<path fill="none" stroke="#63b8ff" d="M706.24,-88.04C719.18,-89.54 734.02,-91.26 748.68,-92.95"/>
<polygon fill="#63b8ff" stroke="#63b8ff" points="748.43,-96.45 758.77,-94.12 749.24,-89.5 748.43,-96.45"/>
</a>
</g>
</g>
<!-- Node9&#45;&gt;Node5 -->
<g id="edge14_Node000009_Node000005" class="edge">
<title>Node9&#45;&gt;Node5</title>
<g id="a_edge14_Node000009_Node000005"><a xlink:title=" ">
<path fill="none" stroke="#63b8ff" d="M706.24,-78.71C721.96,-76.78 740.49,-74.52 758.08,-72.37"/>
<polygon fill="#63b8ff" stroke="#63b8ff" points="758.8,-75.81 768.3,-71.12 757.95,-68.86 758.8,-75.81"/>
</a>
</g>
</g>
</g>
</svg>
