<?xml version="1.0" encoding="UTF-8" standalone="no"?>
<!DOCTYPE svg PUBLIC "-//W3C//DTD SVG 1.1//EN"
 "http://www.w3.org/Graphics/SVG/1.1/DTD/svg11.dtd">
<!-- Generated by graphviz version 2.43.0 (0)
 -->
<!-- Title: Tle92466edHandler Pages: 1 -->
<svg width="380pt" height="237pt"
 viewBox="0.00 0.00 379.50 237.00" xmlns="http://www.w3.org/2000/svg" xmlns:xlink="http://www.w3.org/1999/xlink">
<g id="graph0" class="graph" transform="scale(1 1) rotate(0) translate(4 233)">
<title>Tle92466edHandler</title>
<!-- Node1 -->
<g id="Node000001" class="node">
<title>Node1</title>
<g id="a_Node000001"><a xlink:title="Unified handler for TLE92466ED six&#45;channel solenoid driver.">
<polygon fill="#999999" stroke="#666666" points="247.5,-19 135.5,-19 135.5,0 247.5,0 247.5,-19"/>
<text text-anchor="middle" x="191.5" y="-7" font-family="Helvetica,sans-Serif" font-size="10.00">Tle92466edHandler</text>
</a>
</g>
</g>
<!-- Node2 -->
<g id="Node000002" class="node">
<title>Node2</title>
<g id="a_Node000002"><a xlink:title=" ">
<polygon fill="white" stroke="#666666" points="189,-96 0,-96 0,-66 189,-66 189,-96"/>
<text text-anchor="start" x="8" y="-84" font-family="Helvetica,sans-Serif" font-size="10.00">std::unique_ptr&lt; HalSpiTle92466ed</text>
<text text-anchor="middle" x="94.5" y="-73" font-family="Helvetica,sans-Serif" font-size="10.00">Comm &gt;</text>
</a>
</g>
</g>
<!-- Node2&#45;&gt;Node1 -->
<g id="edge1_Node000001_Node000002" class="edge">
<title>Node2&#45;&gt;Node1</title>
<g id="a_edge1_Node000001_Node000002"><a xlink:title=" ">
<path fill="none" stroke="#9a32cd" stroke-dasharray="5,2" d="M122.41,-60C141.33,-46.45 165.38,-29.21 179.54,-19.07"/>
<polygon fill="#9a32cd" stroke="#9a32cd" points="120.22,-57.27 114.13,-65.94 124.3,-62.96 120.22,-57.27"/>
</a>
</g>
<text text-anchor="middle" x="172.5" y="-40" font-family="Helvetica,sans-Serif" font-size="10.00" fill="grey"> comm_</text>
</g>
<!-- Node3 -->
<g id="Node000003" class="node">
<title>Node3</title>
<g id="a_Node000003"><a xlink:href="classHalSpiTle92466edComm.html" target="_top" xlink:title="CRTP SPI communication adapter for TLE92466ED using BaseSpi and BaseGpio.">
<polygon fill="white" stroke="#666666" points="163,-162 26,-162 26,-143 163,-143 163,-162"/>
<text text-anchor="middle" x="94.5" y="-150" font-family="Helvetica,sans-Serif" font-size="10.00">HalSpiTle92466edComm</text>
</a>
</g>
</g>
<!-- Node3&#45;&gt;Node2 -->
<g id="edge2_Node000002_Node000003" class="edge">
<title>Node3&#45;&gt;Node2</title>
<g id="a_edge2_Node000002_Node000003"><a xlink:title=" ">
<path fill="none" stroke="#9a32cd" stroke-dasharray="5,2" d="M94.5,-132.71C94.5,-121.19 94.5,-106.68 94.5,-96.14"/>
<polygon fill="#9a32cd" stroke="#9a32cd" points="91,-132.98 94.5,-142.98 98,-132.98 91,-132.98"/>
</a>
</g>
<text text-anchor="middle" x="103" y="-117" font-family="Helvetica,sans-Serif" font-size="10.00" fill="grey"> ptr</text>
</g>
<!-- Node4 -->
<g id="Node000004" class="node">
<title>Node4</title>
<g id="a_Node000004"><a xlink:title=" ">
<polygon fill="white" stroke="#666666" points="174.5,-229 14.5,-229 14.5,-199 174.5,-199 174.5,-229"/>
<text text-anchor="start" x="22.5" y="-217" font-family="Helvetica,sans-Serif" font-size="10.00">tle92466ed::SpiInterface</text>
<text text-anchor="middle" x="94.5" y="-206" font-family="Helvetica,sans-Serif" font-size="10.00">&lt; HalSpiTle92466edComm &gt;</text>
</a>
</g>
</g>
<!-- Node4&#45;&gt;Node3 -->
<g id="edge3_Node000003_Node000004" class="edge">
<title>Node4&#45;&gt;Node3</title>
<g id="a_edge3_Node000003_Node000004"><a xlink:title=" ">
<path fill="none" stroke="#63b8ff" d="M94.5,-188.79C94.5,-179.36 94.5,-169.15 94.5,-162.16"/>
<polygon fill="#63b8ff" stroke="#63b8ff" points="91,-188.9 94.5,-198.9 98,-188.9 91,-188.9"/>
</a>
</g>
</g>
<!-- Node5 -->
<g id="Node000005" class="node">
<title>Node5</title>
<g id="a_Node000005"><a xlink:title=" ">
<polygon fill="white" stroke="#666666" points="371.5,-90.5 207.5,-90.5 207.5,-71.5 371.5,-71.5 371.5,-90.5"/>
<text text-anchor="middle" x="289.5" y="-78.5" font-family="Helvetica,sans-Serif" font-size="10.00">std::unique_ptr&lt; DriverType &gt;</text>
</a>
</g>
</g>
<!-- Node5&#45;&gt;Node1 -->
<g id="edge4_Node000001_Node000005" class="edge">
<title>Node5&#45;&gt;Node1</title>
<g id="a_edge4_Node000001_Node000005"><a xlink:title=" ">
<path fill="none" stroke="#9a32cd" stroke-dasharray="5,2" d="M269.15,-65.57C249.37,-51.54 219.98,-30.7 203.62,-19.09"/>
<polygon fill="#9a32cd" stroke="#9a32cd" points="267.3,-68.55 277.48,-71.48 271.35,-62.84 267.3,-68.55"/>
</a>
</g>
<text text-anchor="middle" x="261" y="-40" font-family="Helvetica,sans-Serif" font-size="10.00" fill="grey"> driver_</text>
</g>
</g>
</svg>
