<?xml version="1.0" encoding="UTF-8" standalone="no"?>
<!DOCTYPE svg PUBLIC "-//W3C//DTD SVG 1.1//EN"
 "http://www.w3.org/Graphics/SVG/1.1/DTD/svg11.dtd">
<!-- Generated by graphviz version 2.43.0 (0)
 -->
<!-- Title: Tle92466edHandler::EnsureInitializedLocked Pages: 1 -->
<svg width="466pt" height="614pt"
 viewBox="0.00 0.00 466.00 614.00" xmlns="http://www.w3.org/2000/svg" xmlns:xlink="http://www.w3.org/1999/xlink">
<g id="graph0" class="graph" transform="scale(1 1) rotate(0) translate(4 610)">
<title>Tle92466edHandler::EnsureInitializedLocked</title>
<!-- Node1 -->
<g id="Node000001" class="node">
<title>Node1</title>
<g id="a_Node000001"><a xlink:title=" ">
<polygon fill="#999999" stroke="#666666" points="458,-510 327,-510 327,-480 458,-480 458,-510"/>
<text text-anchor="start" x="335" y="-498" font-family="Helvetica,sans-Serif" font-size="10.00">Tle92466edHandler::</text>
<text text-anchor="middle" x="392.5" y="-487" font-family="Helvetica,sans-Serif" font-size="10.00">EnsureInitializedLocked</text>
</a>
</g>
</g>
<!-- Node2 -->
<g id="Node000002" class="node">
<title>Node2</title>
<g id="a_Node000002"><a xlink:href="classTle92466edHandler.html#afcec01ba90f6596dcde99387ef41b6e4" target="_top" xlink:title="Dump diagnostics to logger.">
<polygon fill="white" stroke="#666666" points="291,-582 173,-582 173,-552 291,-552 291,-582"/>
<text text-anchor="start" x="181" y="-570" font-family="Helvetica,sans-Serif" font-size="10.00">Tle92466edHandler::</text>
<text text-anchor="middle" x="232" y="-559" font-family="Helvetica,sans-Serif" font-size="10.00">DumpDiagnostics</text>
</a>
</g>
</g>
<!-- Node1&#45;&gt;Node2 -->
<g id="edge1_Node000001_Node000002" class="edge">
<title>Node1&#45;&gt;Node2</title>
<g id="a_edge1_Node000001_Node000002"><a xlink:title=" ">
<path fill="none" stroke="#63b8ff" d="M351.68,-514.62C333.31,-523.51 311.16,-534.02 291,-543 284.33,-545.97 277.18,-549.03 270.25,-551.93"/>
<polygon fill="#63b8ff" stroke="#63b8ff" points="353.44,-517.65 360.91,-510.13 350.38,-511.36 353.44,-517.65"/>
</a>
</g>
</g>
<!-- Node3 -->
<g id="Node000003" class="node">
<title>Node3</title>
<g id="a_Node000003"><a xlink:href="classTle92466edHandler.html#a1a976346516812f7125cdeb2f3aeb327" target="_top" xlink:title="Ensure driver is initialized (lazy init entrypoint).">
<polygon fill="white" stroke="#666666" points="291,-534 173,-534 173,-504 291,-504 291,-534"/>
<text text-anchor="start" x="181" y="-522" font-family="Helvetica,sans-Serif" font-size="10.00">Tle92466edHandler::</text>
<text text-anchor="middle" x="232" y="-511" font-family="Helvetica,sans-Serif" font-size="10.00">EnsureInitialized</text>
</a>
</g>
</g>
<!-- Node1&#45;&gt;Node3 -->
<g id="edge2_Node000001_Node000003" class="edge">
<title>Node1&#45;&gt;Node3</title>
<g id="a_edge2_Node000001_Node000003"><a xlink:title=" ">
<path fill="none" stroke="#63b8ff" d="M316.61,-506.34C308.08,-507.63 299.48,-508.93 291.21,-510.19"/>
<polygon fill="#63b8ff" stroke="#63b8ff" points="317.21,-509.79 326.57,-504.83 316.16,-502.87 317.21,-509.79"/>
</a>
</g>
</g>
<!-- Node4 -->
<g id="Node000004" class="node">
<title>Node4</title>
<g id="a_Node000004"><a xlink:href="classTle92466edHandler.html#ae83bbf85e50d68c8adcc2160bdaed271" target="_top" xlink:title="Get the underlying driver for advanced operations.">
<polygon fill="white" stroke="#666666" points="291,-486 173,-486 173,-456 291,-456 291,-486"/>
<text text-anchor="start" x="181" y="-474" font-family="Helvetica,sans-Serif" font-size="10.00">Tle92466edHandler::</text>
<text text-anchor="middle" x="232" y="-463" font-family="Helvetica,sans-Serif" font-size="10.00">GetDriver</text>
</a>
</g>
</g>
<!-- Node1&#45;&gt;Node4 -->
<g id="edge3_Node000001_Node000004" class="edge">
<title>Node1&#45;&gt;Node4</title>
<g id="a_edge3_Node000001_Node000004"><a xlink:title=" ">
<path fill="none" stroke="#63b8ff" d="M316.61,-483.66C308.08,-482.37 299.48,-481.07 291.21,-479.81"/>
<polygon fill="#63b8ff" stroke="#63b8ff" points="316.16,-487.13 326.57,-485.17 317.21,-480.21 316.16,-487.13"/>
</a>
</g>
</g>
<!-- Node6 -->
<g id="Node000006" class="node">
<title>Node6</title>
<g id="a_Node000006"><a xlink:href="classTle92466edHandler.html#aef42f3c7c1b1ef51b27eb8d178aca6bc" target="_top" xlink:title="Execute a lambda with a locked, initialized driver.">
<polygon fill="white" stroke="#666666" points="291,-318 173,-318 173,-288 291,-288 291,-318"/>
<text text-anchor="start" x="181" y="-306" font-family="Helvetica,sans-Serif" font-size="10.00">Tle92466edHandler::</text>
<text text-anchor="middle" x="232" y="-295" font-family="Helvetica,sans-Serif" font-size="10.00">withDriver</text>
</a>
</g>
</g>
<!-- Node1&#45;&gt;Node6 -->
<g id="edge5_Node000001_Node000006" class="edge">
<title>Node1&#45;&gt;Node6</title>
<g id="a_edge5_Node000001_Node000006"><a xlink:title=" ">
<path fill="none" stroke="#63b8ff" d="M372.61,-472.12C339.85,-432.43 273.34,-351.87 245.6,-318.26"/>
<polygon fill="#63b8ff" stroke="#63b8ff" points="370,-474.45 379.06,-479.93 375.4,-469.99 370,-474.45"/>
</a>
</g>
</g>
<!-- Node5 -->
<g id="Node000005" class="node">
<title>Node5</title>
<g id="a_Node000005"><a xlink:href="classTle92466edHandler.html#a56ebe6e509ccd1b6b865728ba14d2533" target="_top" xlink:title=" ">
<polygon fill="white" stroke="#666666" points="127.5,-606 9.5,-606 9.5,-576 127.5,-576 127.5,-606"/>
<text text-anchor="start" x="17.5" y="-594" font-family="Helvetica,sans-Serif" font-size="10.00">Tle92466edHandler::</text>
<text text-anchor="middle" x="68.5" y="-583" font-family="Helvetica,sans-Serif" font-size="10.00">GetDriver</text>
</a>
</g>
</g>
<!-- Node4&#45;&gt;Node5 -->
<g id="edge4_Node000004_Node000005" class="edge">
<title>Node4&#45;&gt;Node5</title>
<g id="a_edge4_Node000004_Node000005"><a xlink:title=" ">
<path fill="none" stroke="#63b8ff" d="M176.97,-491.64C175.59,-492.7 174.26,-493.83 173,-495 146.82,-519.38 163.79,-543.29 137,-567 133.09,-570.46 128.64,-573.43 123.94,-575.98"/>
<polygon fill="#63b8ff" stroke="#63b8ff" points="178.96,-494.51 185.35,-486.06 175.09,-488.68 178.96,-494.51"/>
</a>
</g>
</g>
<!-- Node7 -->
<g id="Node000007" class="node">
<title>Node7</title>
<g id="a_Node000007"><a xlink:href="classTle92466edHandler.html#ab3123678e6df690f5669fd89079e0a4e" target="_top" xlink:title="Clear all fault flags.">
<polygon fill="white" stroke="#666666" points="127.5,-558 9.5,-558 9.5,-528 127.5,-528 127.5,-558"/>
<text text-anchor="start" x="17.5" y="-546" font-family="Helvetica,sans-Serif" font-size="10.00">Tle92466edHandler::</text>
<text text-anchor="middle" x="68.5" y="-535" font-family="Helvetica,sans-Serif" font-size="10.00">ClearFaults</text>
</a>
</g>
</g>
<!-- Node6&#45;&gt;Node7 -->
<g id="edge6_Node000006_Node000007" class="edge">
<title>Node6&#45;&gt;Node7</title>
<g id="a_edge6_Node000006_Node000007"><a xlink:title=" ">
<path fill="none" stroke="#63b8ff" d="M220.88,-327.66C198.17,-382.84 144.51,-511.99 137,-519 133.36,-522.39 129.21,-525.31 124.8,-527.82"/>
<polygon fill="#63b8ff" stroke="#63b8ff" points="224.18,-328.85 224.75,-318.27 217.71,-326.19 224.18,-328.85"/>
</a>
</g>
</g>
<!-- Node8 -->
<g id="Node000008" class="node">
<title>Node8</title>
<g id="a_Node000008"><a xlink:href="classTle92466edHandler.html#ac37cbbcce53c7a55657ee61cd5015190" target="_top" xlink:title="Disable all channels.">
<polygon fill="white" stroke="#666666" points="127.5,-510 9.5,-510 9.5,-480 127.5,-480 127.5,-510"/>
<text text-anchor="start" x="17.5" y="-498" font-family="Helvetica,sans-Serif" font-size="10.00">Tle92466edHandler::</text>
<text text-anchor="middle" x="68.5" y="-487" font-family="Helvetica,sans-Serif" font-size="10.00">DisableAllChannels</text>
</a>
</g>
</g>
<!-- Node6&#45;&gt;Node8 -->
<g id="edge7_Node000006_Node000008" class="edge">
<title>Node6&#45;&gt;Node8</title>
<g id="a_edge7_Node000006_Node000008"><a xlink:title=" ">
<path fill="none" stroke="#63b8ff" d="M223.26,-328.24C210.83,-364.74 183.02,-432.15 137,-471 132.91,-474.45 128.3,-477.42 123.44,-479.97"/>
<polygon fill="#63b8ff" stroke="#63b8ff" points="226.7,-328.98 226.5,-318.39 220.05,-326.8 226.7,-328.98"/>
</a>
</g>
</g>
<!-- Node9 -->
<g id="Node000009" class="node">
<title>Node9</title>
<g id="a_Node000009"><a xlink:href="classTle92466edHandler.html#a7785b8d56d0bd25001e5bdf9b8d557a2" target="_top" xlink:title="Drive the chip&#39;s EN pin LOW to gate off the output stage. SPI access remains functional; only the hig...">
<polygon fill="white" stroke="#666666" points="127.5,-462 9.5,-462 9.5,-432 127.5,-432 127.5,-462"/>
<text text-anchor="start" x="17.5" y="-450" font-family="Helvetica,sans-Serif" font-size="10.00">Tle92466edHandler::</text>
<text text-anchor="middle" x="68.5" y="-439" font-family="Helvetica,sans-Serif" font-size="10.00">DisableOutputStage</text>
</a>
</g>
</g>
<!-- Node6&#45;&gt;Node9 -->
<g id="edge8_Node000006_Node000009" class="edge">
<title>Node6&#45;&gt;Node9</title>
<g id="a_edge8_Node000006_Node000009"><a xlink:title=" ">
<path fill="none" stroke="#63b8ff" d="M217.9,-326.93C202.04,-353.84 172.93,-397.14 137,-423 132.26,-426.42 126.98,-429.39 121.52,-431.96"/>
<polygon fill="#63b8ff" stroke="#63b8ff" points="221,-328.57 222.95,-318.15 214.93,-325.08 221,-328.57"/>
</a>
</g>
</g>
<!-- Node10 -->
<g id="Node000010" class="node">
<title>Node10</title>
<g id="a_Node000010"><a xlink:href="classTle92466edHandler.html#a1ee30771436827a1499a379aa7e5ab49" target="_top" xlink:title="Enable all channels.">
<polygon fill="white" stroke="#666666" points="127.5,-414 9.5,-414 9.5,-384 127.5,-384 127.5,-414"/>
<text text-anchor="start" x="17.5" y="-402" font-family="Helvetica,sans-Serif" font-size="10.00">Tle92466edHandler::</text>
<text text-anchor="middle" x="68.5" y="-391" font-family="Helvetica,sans-Serif" font-size="10.00">EnableAllChannels</text>
</a>
</g>
</g>
<!-- Node6&#45;&gt;Node10 -->
<g id="edge9_Node000006_Node000010" class="edge">
<title>Node6&#45;&gt;Node10</title>
<g id="a_edge9_Node000006_Node000010"><a xlink:title=" ">
<path fill="none" stroke="#63b8ff" d="M206.69,-325.04C188.53,-340.63 162.53,-361.13 137,-375 130.99,-378.27 124.45,-381.24 117.88,-383.89"/>
<polygon fill="#63b8ff" stroke="#63b8ff" points="209.22,-327.48 214.45,-318.27 204.62,-322.21 209.22,-327.48"/>
</a>
</g>
</g>
<!-- Node11 -->
<g id="Node000011" class="node">
<title>Node11</title>
<g id="a_Node000011"><a xlink:href="classTle92466edHandler.html#ad9d8117d83234cdd7947aeeb40281b36" target="_top" xlink:title="Clear the FB_FRZ register so the chip updates FB_DC / FB_I_AVG / FB_VBAT on every channel.">
<polygon fill="white" stroke="#666666" points="137,-366 0,-366 0,-336 137,-336 137,-366"/>
<text text-anchor="start" x="8" y="-354" font-family="Helvetica,sans-Serif" font-size="10.00">Tle92466edHandler::</text>
<text text-anchor="middle" x="68.5" y="-343" font-family="Helvetica,sans-Serif" font-size="10.00">EnableFeedbackUpdates</text>
</a>
</g>
</g>
<!-- Node6&#45;&gt;Node11 -->
<g id="edge10_Node000006_Node000011" class="edge">
<title>Node6&#45;&gt;Node11</title>
<g id="a_edge10_Node000006_Node000011"><a xlink:title=" ">
<path fill="none" stroke="#63b8ff" d="M170.68,-320.93C153.99,-325.89 136.05,-331.22 119.98,-336"/>
<polygon fill="#63b8ff" stroke="#63b8ff" points="171.76,-324.26 180.34,-318.06 169.76,-317.55 171.76,-324.26"/>
</a>
</g>
</g>
<!-- Node12 -->
<g id="Node000012" class="node">
<title>Node12</title>
<g id="a_Node000012"><a xlink:href="classTle92466edHandler.html#aec30fe1266505d13b73f02c7f92e1618" target="_top" xlink:title="Drive the chip&#39;s hardware EN pin HIGH so the output stage can deliver current to the load.">
<polygon fill="white" stroke="#666666" points="127.5,-318 9.5,-318 9.5,-288 127.5,-288 127.5,-318"/>
<text text-anchor="start" x="17.5" y="-306" font-family="Helvetica,sans-Serif" font-size="10.00">Tle92466edHandler::</text>
<text text-anchor="middle" x="68.5" y="-295" font-family="Helvetica,sans-Serif" font-size="10.00">EnableOutputStage</text>
</a>
</g>
</g>
<!-- Node6&#45;&gt;Node12 -->
<g id="edge11_Node000006_Node000012" class="edge">
<title>Node6&#45;&gt;Node12</title>
<g id="a_edge11_Node000006_Node000012"><a xlink:title=" ">
<path fill="none" stroke="#63b8ff" d="M162.61,-303C151,-303 139.04,-303 127.72,-303"/>
<polygon fill="#63b8ff" stroke="#63b8ff" points="162.69,-306.5 172.69,-303 162.69,-299.5 162.69,-306.5"/>
</a>
</g>
</g>
<!-- Node13 -->
<g id="Node000013" class="node">
<title>Node13</title>
<g id="a_Node000013"><a xlink:href="classTle92466edHandler.html#a19b966bb109b988eb98d319b76908667" target="_top" xlink:title="Enter config mode (for register writes).">
<polygon fill="white" stroke="#666666" points="127.5,-270 9.5,-270 9.5,-240 127.5,-240 127.5,-270"/>
<text text-anchor="start" x="17.5" y="-258" font-family="Helvetica,sans-Serif" font-size="10.00">Tle92466edHandler::</text>
<text text-anchor="middle" x="68.5" y="-247" font-family="Helvetica,sans-Serif" font-size="10.00">EnterConfigMode</text>
</a>
</g>
</g>
<!-- Node6&#45;&gt;Node13 -->
<g id="edge12_Node000006_Node000013" class="edge">
<title>Node6&#45;&gt;Node13</title>
<g id="a_edge12_Node000006_Node000013"><a xlink:title=" ">
<path fill="none" stroke="#63b8ff" d="M170.68,-285.07C153.99,-280.11 136.05,-274.78 119.98,-270"/>
<polygon fill="#63b8ff" stroke="#63b8ff" points="169.76,-288.45 180.34,-287.94 171.76,-281.74 169.76,-288.45"/>
</a>
</g>
</g>
<!-- Node14 -->
<g id="Node000014" class="node">
<title>Node14</title>
<g id="a_Node000014"><a xlink:href="classTle92466edHandler.html#aee10ff4c219a042d260a6b1f58a9219a" target="_top" xlink:title="Enter mission mode (enable outputs after configuration).">
<polygon fill="white" stroke="#666666" points="127.5,-222 9.5,-222 9.5,-192 127.5,-192 127.5,-222"/>
<text text-anchor="start" x="17.5" y="-210" font-family="Helvetica,sans-Serif" font-size="10.00">Tle92466edHandler::</text>
<text text-anchor="middle" x="68.5" y="-199" font-family="Helvetica,sans-Serif" font-size="10.00">EnterMissionMode</text>
</a>
</g>
</g>
<!-- Node6&#45;&gt;Node14 -->
<g id="edge13_Node000006_Node000014" class="edge">
<title>Node6&#45;&gt;Node14</title>
<g id="a_edge13_Node000006_Node000014"><a xlink:title=" ">
<path fill="none" stroke="#63b8ff" d="M206.69,-280.96C188.53,-265.37 162.53,-244.87 137,-231 130.99,-227.73 124.45,-224.76 117.88,-222.11"/>
<polygon fill="#63b8ff" stroke="#63b8ff" points="204.62,-283.79 214.45,-287.73 209.22,-278.52 204.62,-283.79"/>
</a>
</g>
</g>
<!-- Node15 -->
<g id="Node000015" class="node">
<title>Node15</title>
<g id="a_Node000015"><a xlink:href="classTle92466edHandler.html#a4c646ee5db271f07517cc15e8a623f0e" target="_top" xlink:title="Get chip ID (returns 0 on error).">
<polygon fill="white" stroke="#666666" points="127.5,-174 9.5,-174 9.5,-144 127.5,-144 127.5,-174"/>
<text text-anchor="start" x="17.5" y="-162" font-family="Helvetica,sans-Serif" font-size="10.00">Tle92466edHandler::</text>
<text text-anchor="middle" x="68.5" y="-151" font-family="Helvetica,sans-Serif" font-size="10.00">GetChipId</text>
</a>
</g>
</g>
<!-- Node6&#45;&gt;Node15 -->
<g id="edge14_Node000006_Node000015" class="edge">
<title>Node6&#45;&gt;Node15</title>
<g id="a_edge14_Node000006_Node000015"><a xlink:title=" ">
<path fill="none" stroke="#63b8ff" d="M217.9,-279.07C202.04,-252.16 172.93,-208.86 137,-183 132.26,-179.58 126.98,-176.61 121.52,-174.04"/>
<polygon fill="#63b8ff" stroke="#63b8ff" points="214.93,-280.92 222.95,-287.85 221,-277.43 214.93,-280.92"/>
</a>
</g>
</g>
<!-- Node16 -->
<g id="Node000016" class="node">
<title>Node16</title>
<g id="a_Node000016"><a xlink:href="classTle92466edHandler.html#a0c29d4ada1c9247dc90fb64d914dec1f" target="_top" xlink:title="Get IC version (returns 0 on error).">
<polygon fill="white" stroke="#666666" points="127.5,-126 9.5,-126 9.5,-96 127.5,-96 127.5,-126"/>
<text text-anchor="start" x="17.5" y="-114" font-family="Helvetica,sans-Serif" font-size="10.00">Tle92466edHandler::</text>
<text text-anchor="middle" x="68.5" y="-103" font-family="Helvetica,sans-Serif" font-size="10.00">GetIcVersion</text>
</a>
</g>
</g>
<!-- Node6&#45;&gt;Node16 -->
<g id="edge15_Node000006_Node000016" class="edge">
<title>Node6&#45;&gt;Node16</title>
<g id="a_edge15_Node000006_Node000016"><a xlink:title=" ">
<path fill="none" stroke="#63b8ff" d="M223.26,-277.76C210.83,-241.26 183.02,-173.85 137,-135 132.91,-131.55 128.3,-128.58 123.44,-126.03"/>
<polygon fill="#63b8ff" stroke="#63b8ff" points="220.05,-279.2 226.5,-287.61 226.7,-277.02 220.05,-279.2"/>
</a>
</g>
</g>
<!-- Node17 -->
<g id="Node000017" class="node">
<title>Node17</title>
<g id="a_Node000017"><a xlink:href="classTle92466edHandler.html#ab86e6d3eb2dca25154a8fa7c42ddb945" target="_top" xlink:title="Check if any fault is present.">
<polygon fill="white" stroke="#666666" points="127.5,-78 9.5,-78 9.5,-48 127.5,-48 127.5,-78"/>
<text text-anchor="start" x="17.5" y="-66" font-family="Helvetica,sans-Serif" font-size="10.00">Tle92466edHandler::</text>
<text text-anchor="middle" x="68.5" y="-55" font-family="Helvetica,sans-Serif" font-size="10.00">HasFault</text>
</a>
</g>
</g>
<!-- Node6&#45;&gt;Node17 -->
<g id="edge16_Node000006_Node000017" class="edge">
<title>Node6&#45;&gt;Node17</title>
<g id="a_edge16_Node000006_Node000017"><a xlink:title=" ">
<path fill="none" stroke="#63b8ff" d="M226.78,-277.8C218.03,-233.17 193.76,-139.98 137,-87 133.36,-83.61 129.21,-80.69 124.8,-78.18"/>
<polygon fill="#63b8ff" stroke="#63b8ff" points="223.37,-278.6 228.64,-287.79 230.26,-277.32 223.37,-278.6"/>
</a>
</g>
</g>
<!-- Node18 -->
<g id="Node000018" class="node">
<title>Node18</title>
<g id="a_Node000018"><a xlink:href="classTle92466edHandler.html#a6bcbd117208f3e44f2216d45541eb4fa" target="_top" xlink:title="Check if in mission mode.">
<polygon fill="white" stroke="#666666" points="127.5,-30 9.5,-30 9.5,0 127.5,0 127.5,-30"/>
<text text-anchor="start" x="17.5" y="-18" font-family="Helvetica,sans-Serif" font-size="10.00">Tle92466edHandler::</text>
<text text-anchor="middle" x="68.5" y="-7" font-family="Helvetica,sans-Serif" font-size="10.00">IsMissionMode</text>
</a>
</g>
</g>
<!-- Node6&#45;&gt;Node18 -->
<g id="edge17_Node000006_Node000018" class="edge">
<title>Node6&#45;&gt;Node18</title>
<g id="a_edge17_Node000006_Node000018"><a xlink:title=" ">
<path fill="none" stroke="#63b8ff" d="M229.09,-277.82C223.82,-225.99 204.62,-106.59 137,-39 133.57,-35.57 129.62,-32.63 125.38,-30.11"/>
<polygon fill="#63b8ff" stroke="#63b8ff" points="225.6,-278.17 230.01,-287.81 232.57,-277.53 225.6,-278.17"/>
</a>
</g>
</g>
</g>
</svg>
