<?xml version="1.0" encoding="UTF-8" standalone="no"?>
<!DOCTYPE svg PUBLIC "-//W3C//DTD SVG 1.1//EN"
 "http://www.w3.org/Graphics/SVG/1.1/DTD/svg11.dtd">
<!-- Generated by graphviz version 2.43.0 (0)
 -->
<!-- Title: As5047uHandler::UpdateDiagnostics Pages: 1 -->
<svg width="824pt" height="113pt"
 viewBox="0.00 0.00 824.00 112.50" xmlns="http://www.w3.org/2000/svg" xmlns:xlink="http://www.w3.org/1999/xlink">
<g id="graph0" class="graph" transform="scale(1 1) rotate(0) translate(4 108.5)">
<title>As5047uHandler::UpdateDiagnostics</title>
<!-- Node1 -->
<g id="Node000001" class="node">
<title>Node1</title>
<g id="a_Node000001"><a xlink:title="Update cached diagnostics.">
<polygon fill="#999999" stroke="#666666" points="816,-67.5 621,-67.5 621,-48.5 816,-48.5 816,-67.5"/>
<text text-anchor="middle" x="718.5" y="-55.5" font-family="Helvetica,sans-Serif" font-size="10.00">As5047uHandler::UpdateDiagnostics</text>
</a>
</g>
</g>
<!-- Node2 -->
<g id="Node000002" class="node">
<title>Node2</title>
<g id="a_Node000002"><a xlink:href="classAs5047uHandler.html#a4dcfcea95fe8114ca7e0e5554d21ebc0" target="_top" xlink:title="Initialize the AS5047U sensor (lazy initialization)">
<polygon fill="white" stroke="#666666" points="585,-67.5 440,-67.5 440,-48.5 585,-48.5 585,-67.5"/>
<text text-anchor="middle" x="512.5" y="-55.5" font-family="Helvetica,sans-Serif" font-size="10.00">As5047uHandler::Initialize</text>
</a>
</g>
</g>
<!-- Node1&#45;&gt;Node2 -->
<g id="edge1_Node000001_Node000002" class="edge">
<title>Node1&#45;&gt;Node2</title>
<g id="a_edge1_Node000001_Node000002"><a xlink:title=" ">
<path fill="none" stroke="#63b8ff" d="M610.7,-58C602.04,-58 593.42,-58 585.1,-58"/>
<polygon fill="#63b8ff" stroke="#63b8ff" points="610.88,-61.5 620.88,-58 610.88,-54.5 610.88,-61.5"/>
</a>
</g>
</g>
<!-- Node3 -->
<g id="Node000003" class="node">
<title>Node3</title>
<g id="a_Node000003"><a xlink:href="classAs5047uHandler.html#a040ba453eb7892ab3189631d73a2f683" target="_top" xlink:title="Ensure initialized while mutex is already held.">
<polygon fill="white" stroke="#666666" points="404,-73 220,-73 220,-43 404,-43 404,-73"/>
<text text-anchor="start" x="228" y="-61" font-family="Helvetica,sans-Serif" font-size="10.00">As5047uHandler::EnsureInitialized</text>
<text text-anchor="middle" x="312" y="-50" font-family="Helvetica,sans-Serif" font-size="10.00">Locked</text>
</a>
</g>
</g>
<!-- Node2&#45;&gt;Node3 -->
<g id="edge2_Node000002_Node000003" class="edge">
<title>Node2&#45;&gt;Node3</title>
<g id="a_edge2_Node000002_Node000003"><a xlink:title=" ">
<path fill="none" stroke="#63b8ff" d="M429.7,-58C421.31,-58 412.75,-58 404.26,-58"/>
<polygon fill="#63b8ff" stroke="#63b8ff" points="429.84,-61.5 439.84,-58 429.84,-54.5 429.84,-61.5"/>
</a>
</g>
</g>
<!-- Node4 -->
<g id="Node000004" class="node">
<title>Node4</title>
<g id="a_Node000004"><a xlink:href="classAs5047uHandler.html#a7f16efc74198279ee63c46d2b55825fa" target="_top" xlink:title="Ensure the handler is initialized (lazy init entrypoint).">
<polygon fill="white" stroke="#666666" points="184,-104.5 0,-104.5 0,-85.5 184,-85.5 184,-104.5"/>
<text text-anchor="middle" x="92" y="-92.5" font-family="Helvetica,sans-Serif" font-size="10.00">As5047uHandler::EnsureInitialized</text>
</a>
</g>
</g>
<!-- Node3&#45;&gt;Node4 -->
<g id="edge3_Node000003_Node000004" class="edge">
<title>Node3&#45;&gt;Node4</title>
<g id="a_edge3_Node000003_Node000004"><a xlink:title=" ">
<path fill="none" stroke="#63b8ff" d="M212.4,-74.73C190.68,-78.42 168.41,-82.2 149.07,-85.48"/>
<polygon fill="#63b8ff" stroke="#63b8ff" points="213.06,-78.17 222.33,-73.05 211.89,-71.27 213.06,-78.17"/>
</a>
</g>
</g>
<!-- Node5 -->
<g id="Node000005" class="node">
<title>Node5</title>
<g id="a_Node000005"><a xlink:href="classAs5047uHandler.html#a7935a51fb2973e3a1793d378fc50118a" target="_top" xlink:title="Get pointer to AS5047U driver for advanced operations.">
<polygon fill="white" stroke="#666666" points="168.5,-67.5 15.5,-67.5 15.5,-48.5 168.5,-48.5 168.5,-67.5"/>
<text text-anchor="middle" x="92" y="-55.5" font-family="Helvetica,sans-Serif" font-size="10.00">As5047uHandler::GetSensor</text>
</a>
</g>
</g>
<!-- Node3&#45;&gt;Node5 -->
<g id="edge4_Node000003_Node000005" class="edge">
<title>Node3&#45;&gt;Node5</title>
<g id="a_edge4_Node000003_Node000005"><a xlink:title=" ">
<path fill="none" stroke="#63b8ff" d="M209.77,-58C195.93,-58 181.92,-58 168.64,-58"/>
<polygon fill="#63b8ff" stroke="#63b8ff" points="209.81,-61.5 219.81,-58 209.81,-54.5 209.81,-61.5"/>
</a>
</g>
</g>
<!-- Node6 -->
<g id="Node000006" class="node">
<title>Node6</title>
<g id="a_Node000006"><a xlink:href="classAs5047uHandler.html#a10eeb015c791ff484935168e3683c053" target="_top" xlink:title="Validate sensor parameters.">
<polygon fill="white" stroke="#666666" points="163.5,-30 20.5,-30 20.5,0 163.5,0 163.5,-30"/>
<text text-anchor="start" x="28.5" y="-18" font-family="Helvetica,sans-Serif" font-size="10.00">As5047uHandler::Validate</text>
<text text-anchor="middle" x="92" y="-7" font-family="Helvetica,sans-Serif" font-size="10.00">Sensor</text>
</a>
</g>
</g>
<!-- Node3&#45;&gt;Node6 -->
<g id="edge5_Node000003_Node000006" class="edge">
<title>Node3&#45;&gt;Node6</title>
<g id="a_edge5_Node000003_Node000006"><a xlink:title=" ">
<path fill="none" stroke="#63b8ff" d="M224.9,-41.02C204.62,-37.02 183.23,-32.8 163.72,-28.95"/>
<polygon fill="#63b8ff" stroke="#63b8ff" points="224.27,-44.46 234.75,-42.96 225.62,-37.59 224.27,-44.46"/>
</a>
</g>
</g>
</g>
</svg>
