<?xml version="1.0" encoding="UTF-8" standalone="no"?>
<!DOCTYPE svg PUBLIC "-//W3C//DTD SVG 1.1//EN"
 "http://www.w3.org/Graphics/SVG/1.1/DTD/svg11.dtd">
<!-- Generated by graphviz version 2.43.0 (0)
 -->
<!-- Title: Bno08xHandler::ensureInitializedLocked Pages: 1 -->
<svg width="557pt" height="76pt"
 viewBox="0.00 0.00 557.00 75.50" xmlns="http://www.w3.org/2000/svg" xmlns:xlink="http://www.w3.org/1999/xlink">
<g id="graph0" class="graph" transform="scale(1 1) rotate(0) translate(4 71.5)">
<title>Bno08xHandler::ensureInitializedLocked</title>
<!-- Node1 -->
<g id="Node000001" class="node">
<title>Node1</title>
<g id="a_Node000001"><a xlink:title="Internal: ensure initialized (assumes mutex is held).">
<polygon fill="#999999" stroke="#666666" points="179,-51 0,-51 0,-21 179,-21 179,-51"/>
<text text-anchor="start" x="8" y="-39" font-family="Helvetica,sans-Serif" font-size="10.00">Bno08xHandler::ensureInitialized</text>
<text text-anchor="middle" x="89.5" y="-28" font-family="Helvetica,sans-Serif" font-size="10.00">Locked</text>
</a>
</g>
</g>
<!-- Node2 -->
<g id="Node000002" class="node">
<title>Node2</title>
<g id="a_Node000002"><a xlink:href="classBno08xHandler.html#ac1a1ff0d56324dcc09d9b48ca2e132e6" target="_top" xlink:title="Initialize the BNO08x sensor.">
<polygon fill="white" stroke="#666666" points="355,-45.5 215,-45.5 215,-26.5 355,-26.5 355,-45.5"/>
<text text-anchor="middle" x="285" y="-33.5" font-family="Helvetica,sans-Serif" font-size="10.00">Bno08xHandler::Initialize</text>
</a>
</g>
</g>
<!-- Node1&#45;&gt;Node2 -->
<g id="edge1_Node000001_Node000002" class="edge">
<title>Node1&#45;&gt;Node2</title>
<g id="a_edge1_Node000001_Node000002"><a xlink:title=" ">
<path fill="none" stroke="#63b8ff" d="M179.04,-36C187.6,-36 196.25,-36 204.71,-36"/>
<polygon fill="#63b8ff" stroke="#63b8ff" points="204.92,-39.5 214.92,-36 204.92,-32.5 204.92,-39.5"/>
</a>
</g>
</g>
<!-- Node3 -->
<g id="Node000003" class="node">
<title>Node3</title>
<g id="a_Node000003"><a xlink:href="classIBno08xDriverOps.html#a0ca90c1a5664ab3eb83f691aff34faa0" target="_top" xlink:title=" ">
<polygon fill="white" stroke="#666666" points="539.5,-67.5 400.5,-67.5 400.5,-48.5 539.5,-48.5 539.5,-67.5"/>
<text text-anchor="middle" x="470" y="-55.5" font-family="Helvetica,sans-Serif" font-size="10.00">IBno08xDriverOps::Begin</text>
</a>
</g>
</g>
<!-- Node2&#45;&gt;Node3 -->
<g id="edge2_Node000002_Node000003" class="edge">
<title>Node2&#45;&gt;Node3</title>
<g id="a_edge2_Node000002_Node000003"><a xlink:title=" ">
<path fill="none" stroke="#63b8ff" d="M355.18,-44.32C366.61,-45.69 378.54,-47.12 390.18,-48.52"/>
<polygon fill="#63b8ff" stroke="#63b8ff" points="389.98,-52.03 400.32,-49.74 390.81,-45.08 389.98,-52.03"/>
</a>
</g>
</g>
<!-- Node4 -->
<g id="Node000004" class="node">
<title>Node4</title>
<g id="a_Node000004"><a xlink:href="classIBno08xDriverOps.html#a66418ccb85cd8eb8eea327fa979a2b6a" target="_top" xlink:title=" ">
<polygon fill="white" stroke="#666666" points="549,-30 391,-30 391,0 549,0 549,-30"/>
<text text-anchor="start" x="399" y="-18" font-family="Helvetica,sans-Serif" font-size="10.00">IBno08xDriverOps::Hardware</text>
<text text-anchor="middle" x="470" y="-7" font-family="Helvetica,sans-Serif" font-size="10.00">Reset</text>
</a>
</g>
</g>
<!-- Node2&#45;&gt;Node4 -->
<g id="edge3_Node000002_Node000004" class="edge">
<title>Node2&#45;&gt;Node4</title>
<g id="a_edge3_Node000002_Node000004"><a xlink:title=" ">
<path fill="none" stroke="#63b8ff" d="M355.18,-28.06C363.55,-27.1 372.18,-26.11 380.77,-25.12"/>
<polygon fill="#63b8ff" stroke="#63b8ff" points="381.29,-28.59 390.83,-23.97 380.49,-21.63 381.29,-28.59"/>
</a>
</g>
</g>
</g>
</svg>
