<?xml version="1.0" encoding="UTF-8" standalone="no"?>
<!DOCTYPE svg PUBLIC "-//W3C//DTD SVG 1.1//EN"
 "http://www.w3.org/Graphics/SVG/1.1/DTD/svg11.dtd">
<!-- Generated by graphviz version 2.43.0 (0)
 -->
<!-- Title: Max22200Handler::GetDriver Pages: 1 -->
<svg width="1124pt" height="203pt"
 viewBox="0.00 0.00 1124.00 203.50" xmlns="http://www.w3.org/2000/svg" xmlns:xlink="http://www.w3.org/1999/xlink">
<g id="graph0" class="graph" transform="scale(1 1) rotate(0) translate(4 199.5)">
<title>Max22200Handler::GetDriver</title>
<!-- Node1 -->
<g id="Node000001" class="node">
<title>Node1</title>
<g id="a_Node000001"><a xlink:title="Get the underlying driver for advanced operations.">
<polygon fill="#999999" stroke="#666666" points="159,-93 0,-93 0,-74 159,-74 159,-93"/>
<text text-anchor="middle" x="79.5" y="-81" font-family="Helvetica,sans-Serif" font-size="10.00">Max22200Handler::GetDriver</text>
</a>
</g>
</g>
<!-- Node2 -->
<g id="Node000002" class="node">
<title>Node2</title>
<g id="a_Node000002"><a xlink:href="classMax22200Handler.html#aa00edacb247660349767fa4521121104" target="_top" xlink:title=" ">
<polygon fill="white" stroke="#666666" points="388,-98.5 195,-98.5 195,-68.5 388,-68.5 388,-98.5"/>
<text text-anchor="start" x="203" y="-86.5" font-family="Helvetica,sans-Serif" font-size="10.00">Max22200Handler::EnsureInitialized</text>
<text text-anchor="middle" x="291.5" y="-75.5" font-family="Helvetica,sans-Serif" font-size="10.00">Locked</text>
</a>
</g>
</g>
<!-- Node1&#45;&gt;Node2 -->
<g id="edge1_Node000001_Node000002" class="edge">
<title>Node1&#45;&gt;Node2</title>
<g id="a_edge1_Node000001_Node000002"><a xlink:title=" ">
<path fill="none" stroke="#63b8ff" d="M159.29,-83.5C167.66,-83.5 176.26,-83.5 184.87,-83.5"/>
<polygon fill="#63b8ff" stroke="#63b8ff" points="184.96,-87 194.96,-83.5 184.96,-80 184.96,-87"/>
</a>
</g>
</g>
<!-- Node3 -->
<g id="Node000003" class="node">
<title>Node3</title>
<g id="a_Node000003"><a xlink:href="classLogger.html#adce17848a5844e053bfd314863dc1404" target="_top" xlink:title="Log error message.">
<polygon fill="white" stroke="#666666" points="728,-19 649,-19 649,0 728,0 728,-19"/>
<text text-anchor="middle" x="688.5" y="-7" font-family="Helvetica,sans-Serif" font-size="10.00">Logger::Error</text>
</a>
</g>
</g>
<!-- Node2&#45;&gt;Node3 -->
<g id="edge2_Node000002_Node000003" class="edge">
<title>Node2&#45;&gt;Node3</title>
<g id="a_edge2_Node000002_Node000003"><a xlink:title=" ">
<path fill="none" stroke="#63b8ff" d="M372.91,-68.44C452.67,-53.49 572.3,-31.08 638.69,-18.64"/>
<polygon fill="#63b8ff" stroke="#63b8ff" points="639.69,-22.02 648.88,-16.74 638.4,-15.14 639.69,-22.02"/>
</a>
</g>
</g>
<!-- Node7 -->
<g id="Node000007" class="node">
<title>Node7</title>
<g id="a_Node000007"><a xlink:href="classLogger.html#a5789d11f8f1356e2192c0023a089cbc4" target="_top" xlink:title="Get singleton instance.">
<polygon fill="white" stroke="#666666" points="920.5,-174 806.5,-174 806.5,-155 920.5,-155 920.5,-174"/>
<text text-anchor="middle" x="863.5" y="-162" font-family="Helvetica,sans-Serif" font-size="10.00">Logger::GetInstance</text>
</a>
</g>
</g>
<!-- Node2&#45;&gt;Node7 -->
<g id="edge6_Node000002_Node000007" class="edge">
<title>Node2&#45;&gt;Node7</title>
<g id="a_edge6_Node000002_Node000007"><a xlink:title=" ">
<path fill="none" stroke="#63b8ff" d="M326.34,-98.51C384,-123.17 505.56,-171.24 614,-188.5 679.4,-198.91 697.24,-196.32 763,-188.5 782.32,-186.2 803.32,-181.48 821.03,-176.83"/>
<polygon fill="#63b8ff" stroke="#63b8ff" points="822.3,-180.11 831.03,-174.11 820.46,-173.35 822.3,-180.11"/>
</a>
</g>
</g>
<!-- Node8 -->
<g id="Node000008" class="node">
<title>Node8</title>
<g id="a_Node000008"><a xlink:href="classMax22200Handler.html#a0dce05cd6639a10e52c0f669b72baf52" target="_top" xlink:title="Initialize driver (ENABLE HIGH, read/clear STATUS, set ACTIVE).">
<polygon fill="white" stroke="#666666" points="578,-93 424,-93 424,-74 578,-74 578,-93"/>
<text text-anchor="middle" x="501" y="-81" font-family="Helvetica,sans-Serif" font-size="10.00">Max22200Handler::Initialize</text>
</a>
</g>
</g>
<!-- Node2&#45;&gt;Node8 -->
<g id="edge7_Node000002_Node000008" class="edge">
<title>Node2&#45;&gt;Node8</title>
<g id="a_edge7_Node000002_Node000008"><a xlink:title=" ">
<path fill="none" stroke="#63b8ff" d="M388.05,-83.5C396.6,-83.5 405.22,-83.5 413.68,-83.5"/>
<polygon fill="#63b8ff" stroke="#63b8ff" points="413.9,-87 423.9,-83.5 413.9,-80 413.9,-87"/>
</a>
</g>
</g>
<!-- Node4 -->
<g id="Node000004" class="node">
<title>Node4</title>
<g id="a_Node000004"><a xlink:href="classLogger.html#af9e84e0ff6bd538e4f9ed8dcebc3e2f0" target="_top" xlink:title="Check if log level is enabled for tag.">
<polygon fill="white" stroke="#666666" points="928,-38 799,-38 799,-19 928,-19 928,-38"/>
<text text-anchor="middle" x="863.5" y="-26" font-family="Helvetica,sans-Serif" font-size="10.00">Logger::IsLevelEnabled</text>
</a>
</g>
</g>
<!-- Node3&#45;&gt;Node4 -->
<g id="edge3_Node000003_Node000004" class="edge">
<title>Node3&#45;&gt;Node4</title>
<g id="a_edge3_Node000003_Node000004"><a xlink:title=" ">
<path fill="none" stroke="#63b8ff" d="M728.32,-13.76C746.13,-15.72 767.86,-18.11 788.6,-20.38"/>
<polygon fill="#63b8ff" stroke="#63b8ff" points="788.36,-23.88 798.68,-21.49 789.12,-16.92 788.36,-23.88"/>
</a>
</g>
</g>
<!-- Node5 -->
<g id="Node000005" class="node">
<title>Node5</title>
<g id="a_Node000005"><a xlink:href="classLogger.html#a6adb205db597526fb91ad20067400394" target="_top" xlink:title="Internal logging method.">
<polygon fill="white" stroke="#666666" points="918.5,-75 808.5,-75 808.5,-56 918.5,-56 918.5,-75"/>
<text text-anchor="middle" x="863.5" y="-63" font-family="Helvetica,sans-Serif" font-size="10.00">Logger::LogInternal</text>
</a>
</g>
</g>
<!-- Node3&#45;&gt;Node5 -->
<g id="edge4_Node000003_Node000005" class="edge">
<title>Node3&#45;&gt;Node5</title>
<g id="a_edge4_Node000003_Node000005"><a xlink:title=" ">
<path fill="none" stroke="#63b8ff" d="M728.19,-17.1C739.58,-19.83 751.95,-23.3 763,-27.5 779.91,-33.92 782.25,-39.65 799,-46.5 804.53,-48.76 810.42,-50.88 816.31,-52.84"/>
<polygon fill="#63b8ff" stroke="#63b8ff" points="815.55,-56.27 826.14,-55.95 817.67,-49.59 815.55,-56.27"/>
</a>
</g>
</g>
<!-- Node6 -->
<g id="Node000006" class="node">
<title>Node6</title>
<g id="a_Node000006"><a xlink:href="namespaceanonymous__namespace_02Logger_8cpp_03.html#a9d2b496fa1b4f4e28667d14e4b8cb190" target="_top" xlink:title=" ">
<polygon fill="white" stroke="#666666" points="1116,-80.5 964,-80.5 964,-50.5 1116,-50.5 1116,-80.5"/>
<text text-anchor="start" x="972" y="-68.5" font-family="Helvetica,sans-Serif" font-size="10.00">anonymous_namespace</text>
<text text-anchor="middle" x="1040" y="-57.5" font-family="Helvetica,sans-Serif" font-size="10.00">{Logger::cpp}::ToBaseLevel</text>
</a>
</g>
</g>
<!-- Node5&#45;&gt;Node6 -->
<g id="edge5_Node000005_Node000006" class="edge">
<title>Node5&#45;&gt;Node6</title>
<g id="a_edge5_Node000005_Node000006"><a xlink:title=" ">
<path fill="none" stroke="#63b8ff" d="M918.76,-65.5C929.93,-65.5 941.96,-65.5 953.93,-65.5"/>
<polygon fill="#63b8ff" stroke="#63b8ff" points="953.95,-69 963.95,-65.5 953.95,-62 953.95,-69"/>
</a>
</g>
</g>
<!-- Node8&#45;&gt;Node3 -->
<g id="edge8_Node000008_Node000003" class="edge">
<title>Node8&#45;&gt;Node3</title>
<g id="a_edge8_Node000008_Node000003"><a xlink:title=" ">
<path fill="none" stroke="#63b8ff" d="M518.18,-73.96C539.51,-61.72 578.49,-40.54 614,-27.5 621.98,-24.57 630.62,-21.97 639.07,-19.73"/>
<polygon fill="#63b8ff" stroke="#63b8ff" points="640.03,-23.09 648.87,-17.25 638.31,-16.31 640.03,-23.09"/>
</a>
</g>
</g>
<!-- Node8&#45;&gt;Node7 -->
<g id="edge9_Node000008_Node000007" class="edge">
<title>Node8&#45;&gt;Node7</title>
<g id="a_edge9_Node000008_Node000007"><a xlink:title=" ">
<path fill="none" stroke="#63b8ff" d="M547.33,-93.09C599.44,-104.18 687.51,-123.16 763,-140.5 779.64,-144.32 797.8,-148.66 814,-152.58"/>
<polygon fill="#63b8ff" stroke="#63b8ff" points="813.26,-156 823.8,-154.96 814.91,-149.2 813.26,-156"/>
</a>
</g>
</g>
<!-- Node9 -->
<g id="Node000009" class="node">
<title>Node9</title>
<g id="a_Node000009"><a xlink:href="classLogger.html#a4681229c521795685fc14f6b55c82300" target="_top" xlink:title="Log info message.">
<polygon fill="white" stroke="#666666" points="725.5,-93 651.5,-93 651.5,-74 725.5,-74 725.5,-93"/>
<text text-anchor="middle" x="688.5" y="-81" font-family="Helvetica,sans-Serif" font-size="10.00">Logger::Info</text>
</a>
</g>
</g>
<!-- Node8&#45;&gt;Node9 -->
<g id="edge10_Node000008_Node000009" class="edge">
<title>Node8&#45;&gt;Node9</title>
<g id="a_edge10_Node000008_Node000009"><a xlink:title=" ">
<path fill="none" stroke="#63b8ff" d="M578.25,-83.5C599.5,-83.5 621.94,-83.5 640.92,-83.5"/>
<polygon fill="#63b8ff" stroke="#63b8ff" points="641.08,-87 651.08,-83.5 641.08,-80 641.08,-87"/>
</a>
</g>
</g>
<!-- Node10 -->
<g id="Node000010" class="node">
<title>Node10</title>
<g id="a_Node000010"><a xlink:href="classMax22200Handler.html#a46a1ed5c96b117192f0cae05c4f9627b" target="_top" xlink:title="Bring the chip from POR through to a verified ACTIVE=1, UVM=0 state, then drain POR&#45;latched fault bit...">
<polygon fill="white" stroke="#666666" points="763,-179.5 614,-179.5 614,-149.5 763,-149.5 763,-179.5"/>
<text text-anchor="start" x="622" y="-167.5" font-family="Helvetica,sans-Serif" font-size="10.00">Max22200Handler::WaitFor</text>
<text text-anchor="middle" x="688.5" y="-156.5" font-family="Helvetica,sans-Serif" font-size="10.00">ActiveAndDrainFaults</text>
</a>
</g>
</g>
<!-- Node8&#45;&gt;Node10 -->
<g id="edge13_Node000008_Node000010" class="edge">
<title>Node8&#45;&gt;Node10</title>
<g id="a_edge13_Node000008_Node000010"><a xlink:title=" ">
<path fill="none" stroke="#63b8ff" d="M521.67,-93.06C543.91,-103.77 581.3,-121.47 614,-135.5 621.88,-138.88 630.3,-142.34 638.52,-145.64"/>
<polygon fill="#63b8ff" stroke="#63b8ff" points="637.45,-148.98 648.04,-149.42 640.04,-142.48 637.45,-148.98"/>
</a>
</g>
</g>
<!-- Node11 -->
<g id="Node000011" class="node">
<title>Node11</title>
<g id="a_Node000011"><a xlink:href="classLogger.html#aaa95ffa14d07a965d4a85bdec82cba26" target="_top" xlink:title="Log warning message.">
<polygon fill="white" stroke="#666666" points="728.5,-56 648.5,-56 648.5,-37 728.5,-37 728.5,-56"/>
<text text-anchor="middle" x="688.5" y="-44" font-family="Helvetica,sans-Serif" font-size="10.00">Logger::Warn</text>
</a>
</g>
</g>
<!-- Node8&#45;&gt;Node11 -->
<g id="edge15_Node000008_Node000011" class="edge">
<title>Node8&#45;&gt;Node11</title>
<g id="a_edge15_Node000008_Node000011"><a xlink:title=" ">
<path fill="none" stroke="#63b8ff" d="M549.77,-73.97C576.9,-68.56 610.8,-61.8 638.18,-56.34"/>
<polygon fill="#63b8ff" stroke="#63b8ff" points="639.21,-59.7 648.33,-54.31 637.84,-52.84 639.21,-59.7"/>
</a>
</g>
</g>
<!-- Node9&#45;&gt;Node4 -->
<g id="edge11_Node000009_Node000004" class="edge">
<title>Node9&#45;&gt;Node4</title>
<g id="a_edge11_Node000009_Node000004"><a xlink:title=" ">
<path fill="none" stroke="#63b8ff" d="M725.86,-75.71C737.85,-72.72 751.15,-68.94 763,-64.5 779.75,-58.23 782.32,-52.97 799,-46.5 804.07,-44.53 809.45,-42.67 814.85,-40.95"/>
<polygon fill="#63b8ff" stroke="#63b8ff" points="815.96,-44.27 824.51,-38.01 813.92,-37.58 815.96,-44.27"/>
</a>
</g>
</g>
<!-- Node9&#45;&gt;Node5 -->
<g id="edge12_Node000009_Node000005" class="edge">
<title>Node9&#45;&gt;Node5</title>
<g id="a_edge12_Node000009_Node000005"><a xlink:title=" ">
<path fill="none" stroke="#63b8ff" d="M725.77,-79.73C746.75,-77.54 773.78,-74.73 798.25,-72.18"/>
<polygon fill="#63b8ff" stroke="#63b8ff" points="798.62,-75.67 808.2,-71.15 797.89,-68.7 798.62,-75.67"/>
</a>
</g>
</g>
<!-- Node10&#45;&gt;Node7 -->
<g id="edge14_Node000010_Node000007" class="edge">
<title>Node10&#45;&gt;Node7</title>
<g id="a_edge14_Node000010_Node000007"><a xlink:title=" ">
<path fill="none" stroke="#63b8ff" d="M763.12,-164.5C774.06,-164.5 785.28,-164.5 796.07,-164.5"/>
<polygon fill="#63b8ff" stroke="#63b8ff" points="796.25,-168 806.25,-164.5 796.25,-161 796.25,-168"/>
</a>
</g>
</g>
<!-- Node11&#45;&gt;Node4 -->
<g id="edge16_Node000011_Node000004" class="edge">
<title>Node11&#45;&gt;Node4</title>
<g id="a_edge16_Node000011_Node000004"><a xlink:title=" ">
<path fill="none" stroke="#63b8ff" d="M728.76,-42.42C746.58,-40.56 768.26,-38.31 788.93,-36.16"/>
<polygon fill="#63b8ff" stroke="#63b8ff" points="789.39,-39.63 798.97,-35.11 788.66,-32.66 789.39,-39.63"/>
</a>
</g>
</g>
<!-- Node11&#45;&gt;Node5 -->
<g id="edge17_Node000011_Node000005" class="edge">
<title>Node11&#45;&gt;Node5</title>
<g id="a_edge17_Node000011_Node000005"><a xlink:title=" ">
<path fill="none" stroke="#63b8ff" d="M728.76,-50.81C749.25,-53.06 774.85,-55.87 798.15,-58.43"/>
<polygon fill="#63b8ff" stroke="#63b8ff" points="798,-61.94 808.32,-59.55 798.76,-54.98 798,-61.94"/>
</a>
</g>
</g>
</g>
</svg>
