<?xml version="1.0" encoding="UTF-8" standalone="no"?>
<!DOCTYPE svg PUBLIC "-//W3C//DTD SVG 1.1//EN"
 "http://www.w3.org/Graphics/SVG/1.1/DTD/svg11.dtd">
<!-- Generated by graphviz version 2.43.0 (0)
 -->
<!-- Title: Pcal95555GpioPin Pages: 1 -->
<svg width="1000pt" height="262pt"
 viewBox="0.00 0.00 1000.00 262.23" xmlns="http://www.w3.org/2000/svg" xmlns:xlink="http://www.w3.org/1999/xlink">
<g id="graph0" class="graph" transform="scale(1 1) rotate(0) translate(4 258.23)">
<title>Pcal95555GpioPin</title>
<!-- Node1 -->
<g id="Node000001" class="node">
<title>Node1</title>
<g id="a_Node000001"><a xlink:title="BaseGpio adapter for a single PCAL95555 GPIO expander pin.">
<polygon fill="#999999" stroke="#666666" points="228,-30.73 124,-30.73 124,-11.73 228,-11.73 228,-30.73"/>
<text text-anchor="middle" x="176" y="-18.73" font-family="Helvetica,sans-Serif" font-size="10.00">Pcal95555GpioPin</text>
</a>
</g>
</g>
<!-- Node9 -->
<g id="Node000009" class="node">
<title>Node9</title>
<g id="a_Node000009"><a xlink:title=" ">
<polygon fill="white" stroke="#666666" points="456,-62.23 305,-62.23 305,-32.23 456,-32.23 456,-62.23"/>
<text text-anchor="start" x="313" y="-50.23" font-family="Helvetica,sans-Serif" font-size="10.00">std::shared_ptr&lt; Pcal95555</text>
<text text-anchor="middle" x="380.5" y="-39.23" font-family="Helvetica,sans-Serif" font-size="10.00">GpioPin &gt;</text>
</a>
</g>
</g>
<!-- Node1&#45;&gt;Node9 -->
<g id="edge9_Node000009_Node000001" class="edge">
<title>Node1&#45;&gt;Node9</title>
<g id="a_edge9_Node000009_Node000001"><a xlink:title=" ">
<path fill="none" stroke="#9a32cd" stroke-dasharray="5,2" d="M238.15,-29.08C259.1,-31.77 282.78,-34.81 304.69,-37.62"/>
<polygon fill="#9a32cd" stroke="#9a32cd" points="238.46,-25.59 228.1,-27.79 237.57,-32.53 238.46,-25.59"/>
</a>
</g>
<text text-anchor="middle" x="278.5" y="-38.23" font-family="Helvetica,sans-Serif" font-size="10.00" fill="grey"> ptr</text>
</g>
<!-- Node2 -->
<g id="Node000002" class="node">
<title>Node2</title>
<g id="a_Node000002"><a xlink:title=" ">
<polygon fill="white" stroke="#666666" points="63,-30.73 0,-30.73 0,-11.73 63,-11.73 63,-30.73"/>
<text text-anchor="middle" x="31.5" y="-18.73" font-family="Helvetica,sans-Serif" font-size="10.00">BaseGpio</text>
</a>
</g>
</g>
<!-- Node2&#45;&gt;Node1 -->
<g id="edge1_Node000001_Node000002" class="edge">
<title>Node2&#45;&gt;Node1</title>
<g id="a_edge1_Node000001_Node000002"><a xlink:title=" ">
<path fill="none" stroke="#63b8ff" d="M73.49,-21.23C89.16,-21.23 107.23,-21.23 123.74,-21.23"/>
<polygon fill="#63b8ff" stroke="#63b8ff" points="73.07,-17.73 63.07,-21.23 73.07,-24.73 73.07,-17.73"/>
</a>
</g>
</g>
<!-- Node3 -->
<g id="Node000003" class="node">
<title>Node3</title>
<g id="a_Node000003"><a xlink:href="classPcal95555Handler.html" target="_top" xlink:title="Unified, non&#45;templated handler for a single PCA9555 / PCAL9555A device.">
<polygon fill="white" stroke="#666666" points="992,-135.73 887,-135.73 887,-116.73 992,-116.73 992,-135.73"/>
<text text-anchor="middle" x="939.5" y="-123.73" font-family="Helvetica,sans-Serif" font-size="10.00">Pcal95555Handler</text>
</a>
</g>
</g>
<!-- Node3&#45;&gt;Node1 -->
<g id="edge2_Node000001_Node000003" class="edge">
<title>Node3&#45;&gt;Node1</title>
<g id="a_edge2_Node000001_Node000003"><a xlink:title=" ">
<path fill="none" stroke="#9a32cd" stroke-dasharray="5,2" d="M922.43,-109.17C909.13,-95.81 889.19,-77.49 869,-65.23 822.94,-37.25 808.97,-31.18 756,-21.23 564.09,14.82 330.05,-3.84 228.31,-14.94"/>
<polygon fill="#9a32cd" stroke="#9a32cd" points="919.97,-111.65 929.46,-116.38 924.99,-106.77 919.97,-111.65"/>
</a>
</g>
<text text-anchor="middle" x="515" y="-4.23" font-family="Helvetica,sans-Serif" font-size="10.00" fill="grey"> parent_handler_</text>
</g>
<!-- Node4 -->
<g id="Node000004" class="node">
<title>Node4</title>
<g id="a_Node000004"><a xlink:title=" ">
<polygon fill="white" stroke="#666666" points="756,-254.23 574,-254.23 574,-224.23 756,-224.23 756,-254.23"/>
<text text-anchor="start" x="582" y="-242.23" font-family="Helvetica,sans-Serif" font-size="10.00">std::unique_ptr&lt; HalI2cPcal95555</text>
<text text-anchor="middle" x="665" y="-231.23" font-family="Helvetica,sans-Serif" font-size="10.00">Comm &gt;</text>
</a>
</g>
</g>
<!-- Node4&#45;&gt;Node3 -->
<g id="edge3_Node000003_Node000004" class="edge">
<title>Node4&#45;&gt;Node3</title>
<g id="a_edge3_Node000003_Node000004"><a xlink:title=" ">
<path fill="none" stroke="#9a32cd" stroke-dasharray="5,2" d="M766.1,-224.81C800.09,-217.3 837.43,-206.02 869,-189.23 894.88,-175.46 918.73,-149.91 930.6,-135.95"/>
<polygon fill="#9a32cd" stroke="#9a32cd" points="765.2,-221.43 756.14,-226.93 766.65,-228.27 765.2,-221.43"/>
</a>
</g>
<text text-anchor="middle" x="821.5" y="-224.23" font-family="Helvetica,sans-Serif" font-size="10.00" fill="grey"> i2c_adapter_</text>
</g>
<!-- Node5 -->
<g id="Node000005" class="node">
<title>Node5</title>
<g id="a_Node000005"><a xlink:href="classHalI2cPcal95555Comm.html" target="_top" xlink:title="Concrete I2C communication adapter for PCAL95555 using BaseI2c.">
<polygon fill="white" stroke="#666666" points="445.5,-248.73 315.5,-248.73 315.5,-229.73 445.5,-229.73 445.5,-248.73"/>
<text text-anchor="middle" x="380.5" y="-236.73" font-family="Helvetica,sans-Serif" font-size="10.00">HalI2cPcal95555Comm</text>
</a>
</g>
</g>
<!-- Node5&#45;&gt;Node4 -->
<g id="edge4_Node000004_Node000005" class="edge">
<title>Node5&#45;&gt;Node4</title>
<g id="a_edge4_Node000004_Node000005"><a xlink:title=" ">
<path fill="none" stroke="#9a32cd" stroke-dasharray="5,2" d="M455.61,-239.23C491.84,-239.23 535.76,-239.23 573.91,-239.23"/>
<polygon fill="#9a32cd" stroke="#9a32cd" points="455.6,-235.73 445.6,-239.23 455.6,-242.73 455.6,-235.73"/>
</a>
</g>
<text text-anchor="middle" x="515" y="-242.23" font-family="Helvetica,sans-Serif" font-size="10.00" fill="grey"> ptr</text>
</g>
<!-- Node6 -->
<g id="Node000006" class="node">
<title>Node6</title>
<g id="a_Node000006"><a xlink:title=" ">
<polygon fill="white" stroke="#666666" points="252,-254.23 100,-254.23 100,-224.23 252,-224.23 252,-254.23"/>
<text text-anchor="start" x="108" y="-242.23" font-family="Helvetica,sans-Serif" font-size="10.00">pcal95555::I2cInterface</text>
<text text-anchor="middle" x="176" y="-231.23" font-family="Helvetica,sans-Serif" font-size="10.00">&lt; HalI2cPcal95555Comm &gt;</text>
</a>
</g>
</g>
<!-- Node6&#45;&gt;Node5 -->
<g id="edge5_Node000005_Node000006" class="edge">
<title>Node6&#45;&gt;Node5</title>
<g id="a_edge5_Node000005_Node000006"><a xlink:title=" ">
<path fill="none" stroke="#63b8ff" d="M262.48,-239.23C280.23,-239.23 298.65,-239.23 315.47,-239.23"/>
<polygon fill="#63b8ff" stroke="#63b8ff" points="262.12,-235.73 252.12,-239.23 262.12,-242.73 262.12,-235.73"/>
</a>
</g>
</g>
<!-- Node7 -->
<g id="Node000007" class="node">
<title>Node7</title>
<g id="a_Node000007"><a xlink:title=" ">
<polygon fill="white" stroke="#666666" points="740.5,-206.23 589.5,-206.23 589.5,-176.23 740.5,-176.23 740.5,-206.23"/>
<text text-anchor="start" x="597.5" y="-194.23" font-family="Helvetica,sans-Serif" font-size="10.00">std::unique_ptr&lt; Pcal95555</text>
<text text-anchor="middle" x="665" y="-183.23" font-family="Helvetica,sans-Serif" font-size="10.00">Driver &gt;</text>
</a>
</g>
</g>
<!-- Node7&#45;&gt;Node3 -->
<g id="edge6_Node000003_Node000007" class="edge">
<title>Node7&#45;&gt;Node3</title>
<g id="a_edge6_Node000003_Node000007"><a xlink:title=" ">
<path fill="none" stroke="#9a32cd" stroke-dasharray="5,2" d="M750.71,-178.98C787.43,-172.75 830.71,-164.15 869,-153.23 885.43,-148.54 903.4,-141.51 916.94,-135.8"/>
<polygon fill="#9a32cd" stroke="#9a32cd" points="749.82,-175.58 740.53,-180.68 750.97,-182.48 749.82,-175.58"/>
</a>
</g>
<text text-anchor="middle" x="821.5" y="-177.23" font-family="Helvetica,sans-Serif" font-size="10.00" fill="grey"> pcal95555_driver_</text>
</g>
<!-- Node8 -->
<g id="Node000008" class="node">
<title>Node8</title>
<g id="a_Node000008"><a xlink:title=" ">
<polygon fill="white" stroke="#666666" points="732,-71.73 598,-71.73 598,-30.73 732,-30.73 732,-71.73"/>
<text text-anchor="start" x="606" y="-59.73" font-family="Helvetica,sans-Serif" font-size="10.00">std::array&lt; std::shared</text>
<text text-anchor="start" x="606" y="-48.73" font-family="Helvetica,sans-Serif" font-size="10.00">_ptr&lt; Pcal95555GpioPin</text>
<text text-anchor="middle" x="665" y="-37.73" font-family="Helvetica,sans-Serif" font-size="10.00"> &gt;, 16 &gt;</text>
</a>
</g>
</g>
<!-- Node8&#45;&gt;Node3 -->
<g id="edge7_Node000003_Node000008" class="edge">
<title>Node8&#45;&gt;Node3</title>
<g id="a_edge7_Node000003_Node000008"><a xlink:title=" ">
<path fill="none" stroke="#9a32cd" stroke-dasharray="5,2" d="M742.53,-62.6C781.05,-69.44 828.13,-79.52 869,-93.23 887.49,-99.43 907.49,-109.29 921.27,-116.62"/>
<polygon fill="#9a32cd" stroke="#9a32cd" points="742.87,-59.11 732.42,-60.84 741.68,-66 742.87,-59.11"/>
</a>
</g>
<text text-anchor="middle" x="821.5" y="-96.23" font-family="Helvetica,sans-Serif" font-size="10.00" fill="grey"> pin_registry_</text>
</g>
<!-- Node9&#45;&gt;Node8 -->
<g id="edge8_Node000008_Node000009" class="edge">
<title>Node9&#45;&gt;Node8</title>
<g id="a_edge8_Node000008_Node000009"><a xlink:title=" ">
<path fill="none" stroke="#9a32cd" stroke-dasharray="5,2" d="M466.33,-48.43C508.4,-49.02 558.46,-49.73 597.67,-50.29"/>
<polygon fill="#9a32cd" stroke="#9a32cd" points="466.14,-44.93 456.09,-48.28 466.04,-51.93 466.14,-44.93"/>
</a>
</g>
<text text-anchor="middle" x="515" y="-53.23" font-family="Helvetica,sans-Serif" font-size="10.00" fill="grey"> elements</text>
</g>
<!-- Node10 -->
<g id="Node000010" class="node">
<title>Node10</title>
<g id="a_Node000010"><a xlink:title=" ">
<polygon fill="white" stroke="#666666" points="722.5,-157.73 607.5,-157.73 607.5,-138.73 722.5,-138.73 722.5,-157.73"/>
<text text-anchor="middle" x="665" y="-145.73" font-family="Helvetica,sans-Serif" font-size="10.00">std::atomic&lt; bool &gt;</text>
</a>
</g>
</g>
<!-- Node10&#45;&gt;Node3 -->
<g id="edge10_Node000003_Node000010" class="edge">
<title>Node10&#45;&gt;Node3</title>
<g id="a_edge10_Node000003_Node000010"><a xlink:title=" ">
<path fill="none" stroke="#9a32cd" stroke-dasharray="5,2" d="M732.98,-142.82C780.46,-138.99 843.22,-133.92 886.85,-130.4"/>
<polygon fill="#9a32cd" stroke="#9a32cd" points="732.48,-139.35 722.79,-143.64 733.04,-146.33 732.48,-139.35"/>
</a>
</g>
<text text-anchor="middle" x="821.5" y="-141.23" font-family="Helvetica,sans-Serif" font-size="10.00" fill="grey"> interrupt_pending_</text>
</g>
<!-- Node11 -->
<g id="Node000011" class="node">
<title>Node11</title>
<g id="a_Node000011"><a xlink:title=" ">
<polygon fill="white" stroke="#666666" points="720.5,-120.23 609.5,-120.23 609.5,-90.23 720.5,-90.23 720.5,-120.23"/>
<text text-anchor="start" x="617.5" y="-108.23" font-family="Helvetica,sans-Serif" font-size="10.00">std::array&lt; hf_gpio</text>
<text text-anchor="middle" x="665" y="-97.23" font-family="Helvetica,sans-Serif" font-size="10.00">_pull_mode_t, 16 &gt;</text>
</a>
</g>
</g>
<!-- Node11&#45;&gt;Node3 -->
<g id="edge11_Node000003_Node000011" class="edge">
<title>Node11&#45;&gt;Node3</title>
<g id="a_edge11_Node000003_Node000011"><a xlink:title=" ">
<path fill="none" stroke="#9a32cd" stroke-dasharray="5,2" d="M730.96,-106.65C770.87,-107.96 822.99,-110.47 869,-115.23 874.83,-115.83 880.92,-116.6 886.97,-117.44"/>
<polygon fill="#9a32cd" stroke="#9a32cd" points="730.94,-103.14 720.83,-106.33 730.72,-110.14 730.94,-103.14"/>
</a>
</g>
<text text-anchor="middle" x="821.5" y="-118.23" font-family="Helvetica,sans-Serif" font-size="10.00" fill="grey"> pull_mode_cache_</text>
</g>
</g>
</svg>
