<?xml version="1.0" encoding="UTF-8" standalone="no"?>
<!DOCTYPE svg PUBLIC "-//W3C//DTD SVG 1.1//EN"
 "http://www.w3.org/Graphics/SVG/1.1/DTD/svg11.dtd">
<!-- Generated by graphviz version 2.43.0 (0)
 -->
<!-- Title: Tmc9660Handler::EnterBootloaderMode Pages: 1 -->
<svg width="1188pt" height="207pt"
 viewBox="0.00 0.00 1188.00 206.51" xmlns="http://www.w3.org/2000/svg" xmlns:xlink="http://www.w3.org/1999/xlink">
<g id="graph0" class="graph" transform="scale(1 1) rotate(0) translate(4 202.51)">
<title>Tmc9660Handler::EnterBootloaderMode</title>
<!-- Node1 -->
<g id="Node000001" class="node">
<title>Node1</title>
<g id="a_Node000001"><a xlink:title="Command the TMC9660 to leave parameter mode and enter bootloader mode.">
<polygon fill="#999999" stroke="#666666" points="212,-37.01 0,-37.01 0,-18.01 212,-18.01 212,-37.01"/>
<text text-anchor="middle" x="106" y="-25.01" font-family="Helvetica,sans-Serif" font-size="10.00">Tmc9660Handler::EnterBootloaderMode</text>
</a>
</g>
</g>
<!-- Node2 -->
<g id="Node000002" class="node">
<title>Node2</title>
<g id="a_Node000002"><a xlink:href="classTmc9660Handler.html#a5a279ae9d4b5a8e0d71cb24577ad88ea" target="_top" xlink:title="Ensure driver is initialized (lazy init entrypoint).">
<polygon fill="white" stroke="#666666" points="628,-75.01 441,-75.01 441,-56.01 628,-56.01 628,-75.01"/>
<text text-anchor="middle" x="534.5" y="-63.01" font-family="Helvetica,sans-Serif" font-size="10.00">Tmc9660Handler::EnsureInitialized</text>
</a>
</g>
</g>
<!-- Node1&#45;&gt;Node2 -->
<g id="edge1_Node000001_Node000002" class="edge">
<title>Node1&#45;&gt;Node2</title>
<g id="a_edge1_Node000001_Node000002"><a xlink:title=" ">
<path fill="none" stroke="#63b8ff" d="M170.77,-37.03C194.92,-40.39 222.69,-43.97 248,-46.51 308.49,-52.59 376.39,-57.2 430.8,-60.36"/>
<polygon fill="#63b8ff" stroke="#63b8ff" points="430.61,-63.85 440.79,-60.93 431.01,-56.86 430.61,-63.85"/>
</a>
</g>
</g>
<!-- Node10 -->
<g id="Node000010" class="node">
<title>Node10</title>
<g id="a_Node000010"><a xlink:href="classTmc9660Handler.html#a393382194d0602e7aa02da6a8fd7a20a" target="_top" xlink:title="Get a reference to the Temperature wrapper.">
<polygon fill="white" stroke="#666666" points="1015,-21.01 848,-21.01 848,-2.01 1015,-2.01 1015,-21.01"/>
<text text-anchor="middle" x="931.5" y="-9.01" font-family="Helvetica,sans-Serif" font-size="10.00">Tmc9660Handler::temperature</text>
</a>
</g>
</g>
<!-- Node1&#45;&gt;Node10 -->
<g id="edge15_Node000001_Node000010" class="edge">
<title>Node1&#45;&gt;Node10</title>
<g id="a_edge15_Node000001_Node000010"><a xlink:title=" ">
<path fill="none" stroke="#63b8ff" d="M164.45,-18C189.96,-14.23 220.4,-10.36 248,-8.51 458.57,5.61 706.5,-1.37 837.88,-6.92"/>
<polygon fill="#63b8ff" stroke="#63b8ff" points="837.77,-10.42 847.91,-7.35 838.07,-3.43 837.77,-10.42"/>
</a>
</g>
</g>
<!-- Node11 -->
<g id="Node000011" class="node">
<title>Node11</title>
<g id="a_Node000011"><a xlink:href="classTmc9660Handler.html#a4360829b58deda85e9da4b9cebee96f0" target="_top" xlink:title="Execute a function on the underlying typed TMC9660 driver.">
<polygon fill="white" stroke="#666666" points="405,-37.01 248,-37.01 248,-18.01 405,-18.01 405,-37.01"/>
<text text-anchor="middle" x="326.5" y="-25.01" font-family="Helvetica,sans-Serif" font-size="10.00">Tmc9660Handler::visitDriver</text>
</a>
</g>
</g>
<!-- Node1&#45;&gt;Node11 -->
<g id="edge16_Node000001_Node000011" class="edge">
<title>Node1&#45;&gt;Node11</title>
<g id="a_edge16_Node000001_Node000011"><a xlink:title=" ">
<path fill="none" stroke="#63b8ff" d="M212.09,-27.51C220.64,-27.51 229.22,-27.51 237.63,-27.51"/>
<polygon fill="#63b8ff" stroke="#63b8ff" points="237.79,-31.01 247.79,-27.51 237.79,-24.01 237.79,-31.01"/>
</a>
</g>
</g>
<!-- Node3 -->
<g id="Node000003" class="node">
<title>Node3</title>
<g id="a_Node000003"><a xlink:href="classTmc9660Handler.html#adc564847f8ae26c47412aaee0758991c" target="_top" xlink:title="Initialize the TMC9660 device.">
<polygon fill="white" stroke="#666666" points="812,-113.01 664,-113.01 664,-94.01 812,-94.01 812,-113.01"/>
<text text-anchor="middle" x="738" y="-101.01" font-family="Helvetica,sans-Serif" font-size="10.00">Tmc9660Handler::Initialize</text>
</a>
</g>
</g>
<!-- Node2&#45;&gt;Node3 -->
<g id="edge2_Node000002_Node000003" class="edge">
<title>Node2&#45;&gt;Node3</title>
<g id="a_edge2_Node000002_Node000003"><a xlink:title=" ">
<path fill="none" stroke="#63b8ff" d="M586.09,-75.05C613.51,-80.22 647.6,-86.65 676.43,-92.09"/>
<polygon fill="#63b8ff" stroke="#63b8ff" points="675.92,-95.55 686.39,-93.97 677.21,-88.67 675.92,-95.55"/>
</a>
</g>
</g>
<!-- Node9 -->
<g id="Node000009" class="node">
<title>Node9</title>
<g id="a_Node000009"><a xlink:href="classTmc9660Handler.html#a13db97d201a287d8aa60384e04070b9f" target="_top" xlink:title="Check if the TMC9660 driver has been initialized and is ready.">
<polygon fill="white" stroke="#666666" points="1003.5,-198.51 859.5,-198.51 859.5,-168.51 1003.5,-168.51 1003.5,-198.51"/>
<text text-anchor="start" x="867.5" y="-186.51" font-family="Helvetica,sans-Serif" font-size="10.00">Tmc9660Handler::IsDriver</text>
<text text-anchor="middle" x="931.5" y="-175.51" font-family="Helvetica,sans-Serif" font-size="10.00">Ready</text>
</a>
</g>
</g>
<!-- Node2&#45;&gt;Node9 -->
<g id="edge14_Node000002_Node000009" class="edge">
<title>Node2&#45;&gt;Node9</title>
<g id="a_edge14_Node000002_Node000009"><a xlink:title=" ">
<path fill="none" stroke="#63b8ff" d="M554.2,-75.18C578.82,-87.59 623.71,-109.1 664,-122.51 724.92,-142.79 795.88,-158.67 849.25,-169.14"/>
<polygon fill="#63b8ff" stroke="#63b8ff" points="848.86,-172.62 859.34,-171.09 850.19,-165.75 848.86,-172.62"/>
</a>
</g>
</g>
<!-- Node4 -->
<g id="Node000004" class="node">
<title>Node4</title>
<g id="a_Node000004"><a xlink:href="classLogger.html#adce17848a5844e053bfd314863dc1404" target="_top" xlink:title="Log error message.">
<polygon fill="white" stroke="#666666" points="971,-76.01 892,-76.01 892,-57.01 971,-57.01 971,-76.01"/>
<text text-anchor="middle" x="931.5" y="-64.01" font-family="Helvetica,sans-Serif" font-size="10.00">Logger::Error</text>
</a>
</g>
</g>
<!-- Node3&#45;&gt;Node4 -->
<g id="edge3_Node000003_Node000004" class="edge">
<title>Node3&#45;&gt;Node4</title>
<g id="a_edge3_Node000003_Node000004"><a xlink:title=" ">
<path fill="none" stroke="#63b8ff" d="M788.32,-93.98C817.04,-88.43 853.11,-81.46 881.74,-75.93"/>
<polygon fill="#63b8ff" stroke="#63b8ff" points="882.77,-79.3 891.92,-73.96 881.44,-72.42 882.77,-79.3"/>
</a>
</g>
</g>
<!-- Node7 -->
<g id="Node000007" class="node">
<title>Node7</title>
<g id="a_Node000007"><a xlink:href="classLogger.html#a5789d11f8f1356e2192c0023a089cbc4" target="_top" xlink:title="Get singleton instance.">
<polygon fill="white" stroke="#666666" points="988.5,-150.01 874.5,-150.01 874.5,-131.01 988.5,-131.01 988.5,-150.01"/>
<text text-anchor="middle" x="931.5" y="-138.01" font-family="Helvetica,sans-Serif" font-size="10.00">Logger::GetInstance</text>
</a>
</g>
</g>
<!-- Node3&#45;&gt;Node7 -->
<g id="edge6_Node000003_Node000007" class="edge">
<title>Node3&#45;&gt;Node7</title>
<g id="a_edge6_Node000003_Node000007"><a xlink:title=" ">
<path fill="none" stroke="#63b8ff" d="M788.32,-113.04C813.57,-117.92 844.51,-123.9 871.07,-129.03"/>
<polygon fill="#63b8ff" stroke="#63b8ff" points="870.54,-132.49 881.02,-130.95 871.86,-125.62 870.54,-132.49"/>
</a>
</g>
</g>
<!-- Node8 -->
<g id="Node000008" class="node">
<title>Node8</title>
<g id="a_Node000008"><a xlink:href="classLogger.html#a4681229c521795685fc14f6b55c82300" target="_top" xlink:title="Log info message.">
<polygon fill="white" stroke="#666666" points="968.5,-113.01 894.5,-113.01 894.5,-94.01 968.5,-94.01 968.5,-113.01"/>
<text text-anchor="middle" x="931.5" y="-101.01" font-family="Helvetica,sans-Serif" font-size="10.00">Logger::Info</text>
</a>
</g>
</g>
<!-- Node3&#45;&gt;Node8 -->
<g id="edge7_Node000003_Node000008" class="edge">
<title>Node3&#45;&gt;Node8</title>
<g id="a_edge7_Node000003_Node000008"><a xlink:title=" ">
<path fill="none" stroke="#63b8ff" d="M812.22,-103.51C836.35,-103.51 862.52,-103.51 884.08,-103.51"/>
<polygon fill="#63b8ff" stroke="#63b8ff" points="884.27,-107.01 894.27,-103.51 884.27,-100.01 884.27,-107.01"/>
</a>
</g>
</g>
<!-- Node3&#45;&gt;Node9 -->
<g id="edge10_Node000003_Node000009" class="edge">
<title>Node3&#45;&gt;Node9</title>
<g id="a_edge10_Node000003_Node000009"><a xlink:title=" ">
<path fill="none" stroke="#63b8ff" d="M755.16,-113.06C776.05,-125.11 813.8,-145.9 848,-159.51 853.02,-161.51 858.28,-163.42 863.6,-165.24"/>
<polygon fill="#63b8ff" stroke="#63b8ff" points="862.62,-168.6 873.21,-168.39 864.8,-161.95 862.62,-168.6"/>
</a>
</g>
</g>
<!-- Node3&#45;&gt;Node10 -->
<g id="edge11_Node000003_Node000010" class="edge">
<title>Node3&#45;&gt;Node10</title>
<g id="a_edge11_Node000003_Node000010"><a xlink:title=" ">
<path fill="none" stroke="#63b8ff" d="M777.71,-93.89C789.15,-90.24 801.43,-85.48 812,-79.51 830.38,-69.12 830.18,-59.84 848,-48.51 862.56,-39.25 879.83,-31.12 894.79,-24.86"/>
<polygon fill="#63b8ff" stroke="#63b8ff" points="896.3,-28.03 904.24,-21.02 893.66,-21.54 896.3,-28.03"/>
</a>
</g>
</g>
<!-- Node5 -->
<g id="Node000005" class="node">
<title>Node5</title>
<g id="a_Node000005"><a xlink:href="classLogger.html#af9e84e0ff6bd538e4f9ed8dcebc3e2f0" target="_top" xlink:title="Check if log level is enabled for tag.">
<polygon fill="white" stroke="#666666" points="1180,-113.01 1051,-113.01 1051,-94.01 1180,-94.01 1180,-113.01"/>
<text text-anchor="middle" x="1115.5" y="-101.01" font-family="Helvetica,sans-Serif" font-size="10.00">Logger::IsLevelEnabled</text>
</a>
</g>
</g>
<!-- Node4&#45;&gt;Node5 -->
<g id="edge4_Node000004_Node000005" class="edge">
<title>Node4&#45;&gt;Node5</title>
<g id="a_edge4_Node000004_Node000005"><a xlink:title=" ">
<path fill="none" stroke="#63b8ff" d="M971.1,-74.36C996.19,-79.46 1029.34,-86.2 1057.45,-91.91"/>
<polygon fill="#63b8ff" stroke="#63b8ff" points="1057.06,-95.4 1067.56,-93.97 1058.45,-88.54 1057.06,-95.4"/>
</a>
</g>
</g>
<!-- Node6 -->
<g id="Node000006" class="node">
<title>Node6</title>
<g id="a_Node000006"><a xlink:href="classLogger.html#a6adb205db597526fb91ad20067400394" target="_top" xlink:title="Internal logging method.">
<polygon fill="white" stroke="#666666" points="1170.5,-76.01 1060.5,-76.01 1060.5,-57.01 1170.5,-57.01 1170.5,-76.01"/>
<text text-anchor="middle" x="1115.5" y="-64.01" font-family="Helvetica,sans-Serif" font-size="10.00">Logger::LogInternal</text>
</a>
</g>
</g>
<!-- Node4&#45;&gt;Node6 -->
<g id="edge5_Node000004_Node000006" class="edge">
<title>Node4&#45;&gt;Node6</title>
<g id="a_edge5_Node000004_Node000006"><a xlink:title=" ">
<path fill="none" stroke="#63b8ff" d="M971.1,-66.51C994.03,-66.51 1023.71,-66.51 1050.11,-66.51"/>
<polygon fill="#63b8ff" stroke="#63b8ff" points="1050.43,-70.01 1060.43,-66.51 1050.43,-63.01 1050.43,-70.01"/>
</a>
</g>
</g>
<!-- Node8&#45;&gt;Node5 -->
<g id="edge8_Node000008_Node000005" class="edge">
<title>Node8&#45;&gt;Node5</title>
<g id="a_edge8_Node000008_Node000005"><a xlink:title=" ">
<path fill="none" stroke="#63b8ff" d="M968.89,-103.51C989.5,-103.51 1016.03,-103.51 1040.79,-103.51"/>
<polygon fill="#63b8ff" stroke="#63b8ff" points="1040.9,-107.01 1050.9,-103.51 1040.9,-100.01 1040.9,-107.01"/>
</a>
</g>
</g>
<!-- Node8&#45;&gt;Node6 -->
<g id="edge9_Node000008_Node000006" class="edge">
<title>Node8&#45;&gt;Node6</title>
<g id="a_edge9_Node000008_Node000006"><a xlink:title=" ">
<path fill="none" stroke="#63b8ff" d="M968.89,-96.11C994.23,-90.96 1028.52,-83.99 1057.46,-78.11"/>
<polygon fill="#63b8ff" stroke="#63b8ff" points="1058.35,-81.5 1067.45,-76.08 1056.95,-74.64 1058.35,-81.5"/>
</a>
</g>
</g>
<!-- Node10&#45;&gt;Node2 -->
<g id="edge12_Node000010_Node000002" class="edge">
<title>Node10&#45;&gt;Node2</title>
<g id="a_edge12_Node000010_Node000002"><a xlink:title=" ">
<path fill="none" stroke="#63b8ff" d="M898.61,-21.07C874.92,-27.81 841.71,-36.49 812,-41.51 754.99,-51.14 690.67,-57.01 638.42,-60.54"/>
<polygon fill="#63b8ff" stroke="#63b8ff" points="637.89,-57.06 628.14,-61.21 638.35,-64.05 637.89,-57.06"/>
</a>
</g>
</g>
<!-- Node10&#45;&gt;Node10 -->
<g id="edge13_Node000010_Node000010" class="edge">
<title>Node10&#45;&gt;Node10</title>
<g id="a_edge13_Node000010_Node000010"><a xlink:title=" ">
<path fill="none" stroke="#63b8ff" d="M903.14,-21.09C889.34,-29.74 898.8,-39.01 931.5,-39.01 953.98,-39.01 965.48,-34.63 965.98,-29.08"/>
<polygon fill="#63b8ff" stroke="#63b8ff" points="968.72,-26.9 959.86,-21.09 963.16,-31.16 968.72,-26.9"/>
</a>
</g>
</g>
<!-- Node11&#45;&gt;Node2 -->
<g id="edge17_Node000011_Node000002" class="edge">
<title>Node11&#45;&gt;Node2</title>
<g id="a_edge17_Node000011_Node000002"><a xlink:title=" ">
<path fill="none" stroke="#63b8ff" d="M379.22,-37.05C407.26,-42.22 442.1,-48.65 471.58,-54.09"/>
<polygon fill="#63b8ff" stroke="#63b8ff" points="471.29,-57.59 481.76,-55.97 472.56,-50.71 471.29,-57.59"/>
</a>
</g>
</g>
<!-- Node11&#45;&gt;Node10 -->
<g id="edge18_Node000011_Node000010" class="edge">
<title>Node11&#45;&gt;Node10</title>
<g id="a_edge18_Node000011_Node000010"><a xlink:title=" ">
<path fill="none" stroke="#63b8ff" d="M405.1,-25.45C515.9,-22.51 719.14,-17.12 837.74,-13.97"/>
<polygon fill="#63b8ff" stroke="#63b8ff" points="837.99,-17.47 847.89,-13.7 837.8,-10.47 837.99,-17.47"/>
</a>
</g>
</g>
</g>
</svg>
