<?xml version="1.0" encoding="UTF-8" standalone="no"?>
<!DOCTYPE svg PUBLIC "-//W3C//DTD SVG 1.1//EN"
 "http://www.w3.org/Graphics/SVG/1.1/DTD/svg11.dtd">
<!-- Generated by graphviz version 2.43.0 (0)
 -->
<!-- Title: Tmc5160Handler::Deinitialize Pages: 1 -->
<svg width="527pt" height="113pt"
 viewBox="0.00 0.00 527.00 112.50" xmlns="http://www.w3.org/2000/svg" xmlns:xlink="http://www.w3.org/1999/xlink">
<g id="graph0" class="graph" transform="scale(1 1) rotate(0) translate(4 108.5)">
<title>Tmc5160Handler::Deinitialize</title>
<!-- Node1 -->
<g id="Node000001" class="node">
<title>Node1</title>
<g id="a_Node000001"><a xlink:title="Deinitialize — disable motor and release resources.">
<polygon fill="#999999" stroke="#666666" points="161,-67.5 0,-67.5 0,-48.5 161,-48.5 161,-67.5"/>
<text text-anchor="middle" x="80.5" y="-55.5" font-family="Helvetica,sans-Serif" font-size="10.00">Tmc5160Handler::Deinitialize</text>
</a>
</g>
</g>
<!-- Node2 -->
<g id="Node000002" class="node">
<title>Node2</title>
<g id="a_Node000002"><a xlink:href="classLogger.html#a5789d11f8f1356e2192c0023a089cbc4" target="_top" xlink:title="Get singleton instance.">
<polygon fill="white" stroke="#666666" points="332.5,-104.5 218.5,-104.5 218.5,-85.5 332.5,-85.5 332.5,-104.5"/>
<text text-anchor="middle" x="275.5" y="-92.5" font-family="Helvetica,sans-Serif" font-size="10.00">Logger::GetInstance</text>
</a>
</g>
</g>
<!-- Node1&#45;&gt;Node2 -->
<g id="edge1_Node000001_Node000002" class="edge">
<title>Node1&#45;&gt;Node2</title>
<g id="a_edge1_Node000001_Node000002"><a xlink:title=" ">
<path fill="none" stroke="#63b8ff" d="M131.2,-67.53C156.65,-72.41 187.84,-78.39 214.61,-83.52"/>
<polygon fill="#63b8ff" stroke="#63b8ff" points="214.15,-86.99 224.63,-85.44 215.47,-80.12 214.15,-86.99"/>
</a>
</g>
</g>
<!-- Node3 -->
<g id="Node000003" class="node">
<title>Node3</title>
<g id="a_Node000003"><a xlink:href="classLogger.html#a4681229c521795685fc14f6b55c82300" target="_top" xlink:title="Log info message.">
<polygon fill="white" stroke="#666666" points="312.5,-67.5 238.5,-67.5 238.5,-48.5 312.5,-48.5 312.5,-67.5"/>
<text text-anchor="middle" x="275.5" y="-55.5" font-family="Helvetica,sans-Serif" font-size="10.00">Logger::Info</text>
</a>
</g>
</g>
<!-- Node1&#45;&gt;Node3 -->
<g id="edge2_Node000001_Node000003" class="edge">
<title>Node1&#45;&gt;Node3</title>
<g id="a_edge2_Node000001_Node000003"><a xlink:title=" ">
<path fill="none" stroke="#63b8ff" d="M161.11,-58C183.93,-58 208.04,-58 228.14,-58"/>
<polygon fill="#63b8ff" stroke="#63b8ff" points="228.25,-61.5 238.25,-58 228.25,-54.5 228.25,-61.5"/>
</a>
</g>
</g>
<!-- Node6 -->
<g id="Node000006" class="node">
<title>Node6</title>
<g id="a_Node000006"><a xlink:href="classTmc5160Handler.html#a439a68f9d3f6785e0a493f9ed3821325" target="_top" xlink:title="Helper: execute a visitor on the active driver (no lock, internal use)">
<polygon fill="white" stroke="#666666" points="354,-30 197,-30 197,0 354,0 354,-30"/>
<text text-anchor="start" x="205" y="-18" font-family="Helvetica,sans-Serif" font-size="10.00">Tmc5160Handler::visitDriver</text>
<text text-anchor="middle" x="275.5" y="-7" font-family="Helvetica,sans-Serif" font-size="10.00">Internal</text>
</a>
</g>
</g>
<!-- Node1&#45;&gt;Node6 -->
<g id="edge5_Node000001_Node000006" class="edge">
<title>Node1&#45;&gt;Node6</title>
<g id="a_edge5_Node000001_Node000006"><a xlink:title=" ">
<path fill="none" stroke="#63b8ff" d="M124.33,-48.46C145.8,-43.67 172.47,-37.73 197.35,-32.19"/>
<polygon fill="#63b8ff" stroke="#63b8ff" points="198.15,-35.6 207.15,-30.01 196.62,-28.76 198.15,-35.6"/>
</a>
</g>
</g>
<!-- Node4 -->
<g id="Node000004" class="node">
<title>Node4</title>
<g id="a_Node000004"><a xlink:href="classLogger.html#af9e84e0ff6bd538e4f9ed8dcebc3e2f0" target="_top" xlink:title="Check if log level is enabled for tag.">
<polygon fill="white" stroke="#666666" points="519,-85.5 390,-85.5 390,-66.5 519,-66.5 519,-85.5"/>
<text text-anchor="middle" x="454.5" y="-73.5" font-family="Helvetica,sans-Serif" font-size="10.00">Logger::IsLevelEnabled</text>
</a>
</g>
</g>
<!-- Node3&#45;&gt;Node4 -->
<g id="edge3_Node000003_Node000004" class="edge">
<title>Node3&#45;&gt;Node4</title>
<g id="a_edge3_Node000003_Node000004"><a xlink:title=" ">
<path fill="none" stroke="#63b8ff" d="M312.75,-61.69C332.04,-63.65 356.5,-66.14 379.59,-68.48"/>
<polygon fill="#63b8ff" stroke="#63b8ff" points="379.43,-71.99 389.73,-69.52 380.14,-65.02 379.43,-71.99"/>
</a>
</g>
</g>
<!-- Node5 -->
<g id="Node000005" class="node">
<title>Node5</title>
<g id="a_Node000005"><a xlink:href="classLogger.html#a6adb205db597526fb91ad20067400394" target="_top" xlink:title="Internal logging method.">
<polygon fill="white" stroke="#666666" points="509.5,-48.5 399.5,-48.5 399.5,-29.5 509.5,-29.5 509.5,-48.5"/>
<text text-anchor="middle" x="454.5" y="-36.5" font-family="Helvetica,sans-Serif" font-size="10.00">Logger::LogInternal</text>
</a>
</g>
</g>
<!-- Node3&#45;&gt;Node5 -->
<g id="edge4_Node000003_Node000005" class="edge">
<title>Node3&#45;&gt;Node5</title>
<g id="a_edge4_Node000003_Node000005"><a xlink:title=" ">
<path fill="none" stroke="#63b8ff" d="M312.75,-54.11C334.8,-51.74 363.6,-48.65 389.4,-45.88"/>
<polygon fill="#63b8ff" stroke="#63b8ff" points="389.92,-49.35 399.49,-44.8 389.17,-42.39 389.92,-49.35"/>
</a>
</g>
</g>
</g>
</svg>
