<?xml version="1.0" encoding="UTF-8" standalone="no"?>
<!DOCTYPE svg PUBLIC "-//W3C//DTD SVG 1.1//EN"
 "http://www.w3.org/Graphics/SVG/1.1/DTD/svg11.dtd">
<!-- Generated by graphviz version 2.43.0 (0)
 -->
<!-- Title: Tmc9660Handler::IsDriverReady Pages: 1 -->
<svg width="628pt" height="515pt"
 viewBox="0.00 0.00 628.00 515.00" xmlns="http://www.w3.org/2000/svg" xmlns:xlink="http://www.w3.org/1999/xlink">
<g id="graph0" class="graph" transform="scale(1 1) rotate(0) translate(4 511)">
<title>Tmc9660Handler::IsDriverReady</title>
<!-- Node1 -->
<g id="Node000001" class="node">
<title>Node1</title>
<g id="a_Node000001"><a xlink:title="Check if the TMC9660 driver has been initialized and is ready.">
<polygon fill="#999999" stroke="#666666" points="620,-281 476,-281 476,-251 620,-251 620,-281"/>
<text text-anchor="start" x="484" y="-269" font-family="Helvetica,sans-Serif" font-size="10.00">Tmc9660Handler::IsDriver</text>
<text text-anchor="middle" x="548" y="-258" font-family="Helvetica,sans-Serif" font-size="10.00">Ready</text>
</a>
</g>
</g>
<!-- Node2 -->
<g id="Node000002" class="node">
<title>Node2</title>
<g id="a_Node000002"><a xlink:href="classTmc9660Handler.html#af55fa5277da0e3d5f6c7200a4cfdbd10" target="_top" xlink:title="De&#45;assert the DRV_EN control pin (disable the TMC9660 power stage hardware).">
<polygon fill="white" stroke="#666666" points="420.5,-507 247.5,-507 247.5,-477 420.5,-477 420.5,-507"/>
<text text-anchor="start" x="255.5" y="-495" font-family="Helvetica,sans-Serif" font-size="10.00">Tmc9660Handler::DisableDriver</text>
<text text-anchor="middle" x="334" y="-484" font-family="Helvetica,sans-Serif" font-size="10.00">Output</text>
</a>
</g>
</g>
<!-- Node1&#45;&gt;Node2 -->
<g id="edge1_Node000001_Node000002" class="edge">
<title>Node1&#45;&gt;Node2</title>
<g id="a_edge1_Node000001_Node000002"><a xlink:title=" ">
<path fill="none" stroke="#63b8ff" d="M541.07,-290.94C529.45,-334.08 499.5,-422.38 440,-468 434.14,-472.49 427.59,-476.17 420.7,-479.18"/>
<polygon fill="#63b8ff" stroke="#63b8ff" points="544.46,-291.8 543.57,-281.24 537.68,-290.05 544.46,-291.8"/>
</a>
</g>
</g>
<!-- Node3 -->
<g id="Node000003" class="node">
<title>Node3</title>
<g id="a_Node000003"><a xlink:href="classTmc9660Handler.html#ad2004d275f9578a1530ad9eb49ff7afb" target="_top" xlink:title="Disable the motor driver output stage (coast/brake behavior depends on gate driver configuration).">
<polygon fill="white" stroke="#666666" points="419.5,-458.5 248.5,-458.5 248.5,-439.5 419.5,-439.5 419.5,-458.5"/>
<text text-anchor="middle" x="334" y="-446.5" font-family="Helvetica,sans-Serif" font-size="10.00">Tmc9660Handler::DisableMotor</text>
</a>
</g>
</g>
<!-- Node1&#45;&gt;Node3 -->
<g id="edge2_Node000001_Node000003" class="edge">
<title>Node1&#45;&gt;Node3</title>
<g id="a_edge2_Node000001_Node000003"><a xlink:title=" ">
<path fill="none" stroke="#63b8ff" d="M537.42,-290.63C522.29,-326.12 489.43,-391.07 440,-425 430.83,-431.3 420.25,-435.96 409.41,-439.42"/>
<polygon fill="#63b8ff" stroke="#63b8ff" points="540.79,-291.62 541.38,-281.04 534.32,-288.95 540.79,-291.62"/>
</a>
</g>
</g>
<!-- Node4 -->
<g id="Node000004" class="node">
<title>Node4</title>
<g id="a_Node000004"><a xlink:href="classTmc9660Handler.html#adee8a764564554f060b879752048bf74" target="_top" xlink:title="Dump comprehensive diagnostics to the system log.">
<polygon fill="white" stroke="#666666" points="192,-163.5 0,-163.5 0,-144.5 192,-144.5 192,-163.5"/>
<text text-anchor="middle" x="96" y="-151.5" font-family="Helvetica,sans-Serif" font-size="10.00">Tmc9660Handler::DumpDiagnostics</text>
</a>
</g>
</g>
<!-- Node1&#45;&gt;Node4 -->
<g id="edge3_Node000001_Node000004" class="edge">
<title>Node1&#45;&gt;Node4</title>
<g id="a_edge3_Node000001_Node000004"><a xlink:title=" ">
<path fill="none" stroke="#63b8ff" d="M534.83,-290.44C518.18,-320.79 485.12,-371.12 440,-392 354.49,-431.57 309.11,-439.94 228,-392 138.67,-339.2 106.13,-201.38 98.74,-163.66"/>
<polygon fill="#63b8ff" stroke="#63b8ff" points="538.06,-291.82 539.66,-281.35 531.88,-288.54 538.06,-291.82"/>
</a>
</g>
</g>
<!-- Node5 -->
<g id="Node000005" class="node">
<title>Node5</title>
<g id="a_Node000005"><a xlink:href="classTmc9660Handler.html#af200e87a8fb2f4cf42861a5410b6a995" target="_top" xlink:title="Assert the DRV_EN control pin (enable the TMC9660 power stage hardware).">
<polygon fill="white" stroke="#666666" points="418.5,-383 249.5,-383 249.5,-353 418.5,-353 418.5,-383"/>
<text text-anchor="start" x="257.5" y="-371" font-family="Helvetica,sans-Serif" font-size="10.00">Tmc9660Handler::EnableDriver</text>
<text text-anchor="middle" x="334" y="-360" font-family="Helvetica,sans-Serif" font-size="10.00">Output</text>
</a>
</g>
</g>
<!-- Node1&#45;&gt;Node5 -->
<g id="edge4_Node000001_Node000005" class="edge">
<title>Node1&#45;&gt;Node5</title>
<g id="a_edge4_Node000001_Node000005"><a xlink:title=" ">
<path fill="none" stroke="#63b8ff" d="M523.33,-287.67C502.76,-305.36 471.4,-329.7 440,-344 432.43,-347.45 424.31,-350.42 416.08,-352.98"/>
<polygon fill="#63b8ff" stroke="#63b8ff" points="525.71,-290.23 530.93,-281.01 521.1,-284.97 525.71,-290.23"/>
</a>
</g>
</g>
<!-- Node6 -->
<g id="Node000006" class="node">
<title>Node6</title>
<g id="a_Node000006"><a xlink:href="classTmc9660Handler.html#aee0edc3320de8f590480ed4546254fc2" target="_top" xlink:title="Enable the motor driver output stage.">
<polygon fill="white" stroke="#666666" points="417.5,-334.5 250.5,-334.5 250.5,-315.5 417.5,-315.5 417.5,-334.5"/>
<text text-anchor="middle" x="334" y="-322.5" font-family="Helvetica,sans-Serif" font-size="10.00">Tmc9660Handler::EnableMotor</text>
</a>
</g>
</g>
<!-- Node1&#45;&gt;Node6 -->
<g id="edge5_Node000001_Node000006" class="edge">
<title>Node1&#45;&gt;Node6</title>
<g id="a_edge5_Node000001_Node000006"><a xlink:title=" ">
<path fill="none" stroke="#63b8ff" d="M503.51,-284.89C484.33,-292.64 461.33,-301.14 440,-307 427.96,-310.3 414.97,-313.12 402.37,-315.47"/>
<polygon fill="#63b8ff" stroke="#63b8ff" points="504.96,-288.08 512.88,-281.05 502.3,-281.6 504.96,-288.08"/>
</a>
</g>
</g>
<!-- Node7 -->
<g id="Node000007" class="node">
<title>Node7</title>
<g id="a_Node000007"><a xlink:href="classTmc9660Handler.html#af1d05fe540ad2fb17002eb4ea5b5f266" target="_top" xlink:title="Command the TMC9660 to leave parameter mode and enter bootloader mode.">
<polygon fill="white" stroke="#666666" points="440,-297.5 228,-297.5 228,-278.5 440,-278.5 440,-297.5"/>
<text text-anchor="middle" x="334" y="-285.5" font-family="Helvetica,sans-Serif" font-size="10.00">Tmc9660Handler::EnterBootloaderMode</text>
</a>
</g>
</g>
<!-- Node1&#45;&gt;Node7 -->
<g id="edge6_Node000001_Node000007" class="edge">
<title>Node1&#45;&gt;Node7</title>
<g id="a_edge6_Node000001_Node000007"><a xlink:title=" ">
<path fill="none" stroke="#63b8ff" d="M465.71,-274.44C452.95,-275.76 439.68,-277.14 426.7,-278.48"/>
<polygon fill="#63b8ff" stroke="#63b8ff" points="466.23,-277.9 475.82,-273.39 465.51,-270.94 466.23,-277.9"/>
</a>
</g>
</g>
<!-- Node8 -->
<g id="Node000008" class="node">
<title>Node8</title>
<g id="a_Node000008"><a xlink:href="classTmc9660Handler.html#ac3a19e67fd802fdcbea05a056ec797e5" target="_top" xlink:title="Read the actual (measured) motor position.">
<polygon fill="white" stroke="#666666" points="411,-260 257,-260 257,-230 411,-230 411,-260"/>
<text text-anchor="start" x="265" y="-248" font-family="Helvetica,sans-Serif" font-size="10.00">Tmc9660Handler::GetActual</text>
<text text-anchor="middle" x="334" y="-237" font-family="Helvetica,sans-Serif" font-size="10.00">Position</text>
</a>
</g>
</g>
<!-- Node1&#45;&gt;Node8 -->
<g id="edge7_Node000001_Node000008" class="edge">
<title>Node1&#45;&gt;Node8</title>
<g id="a_edge7_Node000001_Node000008"><a xlink:title=" ">
<path fill="none" stroke="#63b8ff" d="M465.68,-257.94C447.74,-256.17 428.8,-254.29 411.08,-252.54"/>
<polygon fill="#63b8ff" stroke="#63b8ff" points="465.52,-261.45 475.82,-258.95 466.21,-254.48 465.52,-261.45"/>
</a>
</g>
</g>
<!-- Node9 -->
<g id="Node000009" class="node">
<title>Node9</title>
<g id="a_Node000009"><a xlink:href="classTmc9660Handler.html#a4c49d0ada65dbdfa8e2888de6dd33d9a" target="_top" xlink:title="Read the actual (measured) motor velocity.">
<polygon fill="white" stroke="#666666" points="411,-212 257,-212 257,-182 411,-182 411,-212"/>
<text text-anchor="start" x="265" y="-200" font-family="Helvetica,sans-Serif" font-size="10.00">Tmc9660Handler::GetActual</text>
<text text-anchor="middle" x="334" y="-189" font-family="Helvetica,sans-Serif" font-size="10.00">Velocity</text>
</a>
</g>
</g>
<!-- Node1&#45;&gt;Node9 -->
<g id="edge8_Node000001_Node000009" class="edge">
<title>Node1&#45;&gt;Node9</title>
<g id="a_edge8_Node000001_Node000009"><a xlink:title=" ">
<path fill="none" stroke="#63b8ff" d="M505.97,-246.78C486.31,-238.08 462.26,-228.16 440,-221 429.85,-217.73 419.02,-214.73 408.31,-212.04"/>
<polygon fill="#63b8ff" stroke="#63b8ff" points="504.68,-250.03 515.24,-250.93 507.55,-243.65 504.68,-250.03"/>
</a>
</g>
</g>
<!-- Node10 -->
<g id="Node000010" class="node">
<title>Node10</title>
<g id="a_Node000010"><a xlink:href="classTmc9660Handler.html#ac7549efc59aeedcc3c29e39f13a529fa" target="_top" xlink:title="Read the TMC9660 internal chip temperature.">
<polygon fill="white" stroke="#666666" points="437,-163.5 231,-163.5 231,-144.5 437,-144.5 437,-163.5"/>
<text text-anchor="middle" x="334" y="-151.5" font-family="Helvetica,sans-Serif" font-size="10.00">Tmc9660Handler::GetChipTemperature</text>
</a>
</g>
</g>
<!-- Node1&#45;&gt;Node10 -->
<g id="edge9_Node000001_Node000010" class="edge">
<title>Node1&#45;&gt;Node10</title>
<g id="a_edge9_Node000001_Node000010"><a xlink:title=" ">
<path fill="none" stroke="#63b8ff" d="M527.91,-243.52C508.19,-221.87 475.38,-189.97 440,-173 431.9,-169.11 423.1,-166.02 414.16,-163.55"/>
<polygon fill="#63b8ff" stroke="#63b8ff" points="525.3,-245.85 534.56,-250.99 530.52,-241.2 525.3,-245.85"/>
</a>
</g>
</g>
<!-- Node11 -->
<g id="Node000011" class="node">
<title>Node11</title>
<g id="a_Node000011"><a xlink:href="classTmc9660Handler.html#a3049dd3b79c6d340eb7b8a81604f0406" target="_top" xlink:title="Read the external temperature sensor raw value.">
<polygon fill="white" stroke="#666666" points="416,-126 252,-126 252,-96 416,-96 416,-126"/>
<text text-anchor="start" x="260" y="-114" font-family="Helvetica,sans-Serif" font-size="10.00">Tmc9660Handler::GetExternal</text>
<text text-anchor="middle" x="334" y="-103" font-family="Helvetica,sans-Serif" font-size="10.00">Temperature</text>
</a>
</g>
</g>
<!-- Node1&#45;&gt;Node11 -->
<g id="edge11_Node000001_Node000011" class="edge">
<title>Node1&#45;&gt;Node11</title>
<g id="a_edge11_Node000001_Node000011"><a xlink:title=" ">
<path fill="none" stroke="#63b8ff" d="M533.88,-241.97C516.43,-212.35 482.74,-162.67 440,-136 432.61,-131.39 424.44,-127.62 416.01,-124.56"/>
<polygon fill="#63b8ff" stroke="#63b8ff" points="530.95,-243.9 538.97,-250.83 537.02,-240.42 530.95,-243.9"/>
</a>
</g>
</g>
<!-- Node12 -->
<g id="Node000012" class="node">
<title>Node12</title>
<g id="a_Node000012"><a xlink:href="classTmc9660Handler.html#a097e8a8930006294be7fc11ecccb48fd" target="_top" xlink:title="Read the instantaneous motor phase current.">
<polygon fill="white" stroke="#666666" points="410,-78 258,-78 258,-48 410,-48 410,-78"/>
<text text-anchor="start" x="266" y="-66" font-family="Helvetica,sans-Serif" font-size="10.00">Tmc9660Handler::GetMotor</text>
<text text-anchor="middle" x="334" y="-55" font-family="Helvetica,sans-Serif" font-size="10.00">Current</text>
</a>
</g>
</g>
<!-- Node1&#45;&gt;Node12 -->
<g id="edge12_Node000001_Node000012" class="edge">
<title>Node1&#45;&gt;Node12</title>
<g id="a_edge12_Node000001_Node000012"><a xlink:title=" ">
<path fill="none" stroke="#63b8ff" d="M539.37,-241.4C525.93,-202.29 494.18,-126.37 440,-87 431.15,-80.57 420.86,-75.83 410.26,-72.33"/>
<polygon fill="#63b8ff" stroke="#63b8ff" points="536.07,-242.56 542.54,-250.95 542.71,-240.35 536.07,-242.56"/>
</a>
</g>
</g>
<!-- Node13 -->
<g id="Node000013" class="node">
<title>Node13</title>
<g id="a_Node000013"><a xlink:href="classTmc9660Handler.html#a3d6437320844ff3ffe77eada12ad7ea7" target="_top" xlink:title="Read the motor supply voltage.">
<polygon fill="white" stroke="#666666" points="412,-30 256,-30 256,0 412,0 412,-30"/>
<text text-anchor="start" x="264" y="-18" font-family="Helvetica,sans-Serif" font-size="10.00">Tmc9660Handler::GetSupply</text>
<text text-anchor="middle" x="334" y="-7" font-family="Helvetica,sans-Serif" font-size="10.00">Voltage</text>
</a>
</g>
</g>
<!-- Node1&#45;&gt;Node13 -->
<g id="edge13_Node000001_Node000013" class="edge">
<title>Node1&#45;&gt;Node13</title>
<g id="a_edge13_Node000001_Node000013"><a xlink:title=" ">
<path fill="none" stroke="#63b8ff" d="M542.58,-240.74C532.92,-193.44 505.35,-91.58 440,-39 431.84,-32.44 422.23,-27.59 412.19,-24.04"/>
<polygon fill="#63b8ff" stroke="#63b8ff" points="539.18,-241.6 544.52,-250.75 546.05,-240.26 539.18,-241.6"/>
</a>
</g>
</g>
<!-- Node10&#45;&gt;Node4 -->
<g id="edge10_Node000010_Node000004" class="edge">
<title>Node10&#45;&gt;Node4</title>
<g id="a_edge10_Node000010_Node000004"><a xlink:title=" ">
<path fill="none" stroke="#63b8ff" d="M220.59,-154C211.1,-154 201.56,-154 192.22,-154"/>
<polygon fill="#63b8ff" stroke="#63b8ff" points="220.86,-157.5 230.86,-154 220.86,-150.5 220.86,-157.5"/>
</a>
</g>
</g>
<!-- Node13&#45;&gt;Node4 -->
<g id="edge14_Node000013_Node000004" class="edge">
<title>Node13&#45;&gt;Node4</title>
<g id="a_edge14_Node000013_Node000004"><a xlink:title=" ">
<path fill="none" stroke="#63b8ff" d="M245.9,-31.29C239.71,-33.54 233.68,-36.1 228,-39 173.84,-66.69 123.97,-121.79 105.04,-144.19"/>
<polygon fill="#63b8ff" stroke="#63b8ff" points="247.36,-34.49 255.73,-28 245.14,-27.85 247.36,-34.49"/>
</a>
</g>
</g>
</g>
</svg>
