<?xml version="1.0" encoding="UTF-8" standalone="no"?>
<!DOCTYPE svg PUBLIC "-//W3C//DTD SVG 1.1//EN"
 "http://www.w3.org/Graphics/SVG/1.1/DTD/svg11.dtd">
<!-- Generated by graphviz version 2.43.0 (0)
 -->
<!-- Title: Max22200Handler::EnsureInitializedLocked Pages: 1 -->
<svg width="706pt" height="138pt"
 viewBox="0.00 0.00 706.00 138.00" xmlns="http://www.w3.org/2000/svg" xmlns:xlink="http://www.w3.org/1999/xlink">
<g id="graph0" class="graph" transform="scale(1 1) rotate(0) translate(4 134)">
<title>Max22200Handler::EnsureInitializedLocked</title>
<!-- Node1 -->
<g id="Node000001" class="node">
<title>Node1</title>
<g id="a_Node000001"><a xlink:title=" ">
<polygon fill="#999999" stroke="#666666" points="193,-88.5 0,-88.5 0,-58.5 193,-58.5 193,-88.5"/>
<text text-anchor="start" x="8" y="-76.5" font-family="Helvetica,sans-Serif" font-size="10.00">Max22200Handler::EnsureInitialized</text>
<text text-anchor="middle" x="96.5" y="-65.5" font-family="Helvetica,sans-Serif" font-size="10.00">Locked</text>
</a>
</g>
</g>
<!-- Node2 -->
<g id="Node000002" class="node">
<title>Node2</title>
<g id="a_Node000002"><a xlink:href="classLogger.html#adce17848a5844e053bfd314863dc1404" target="_top" xlink:title="Log error message.">
<polygon fill="white" stroke="#666666" points="515.5,-130 436.5,-130 436.5,-111 515.5,-111 515.5,-130"/>
<text text-anchor="middle" x="476" y="-118" font-family="Helvetica,sans-Serif" font-size="10.00">Logger::Error</text>
</a>
</g>
</g>
<!-- Node1&#45;&gt;Node2 -->
<g id="edge1_Node000001_Node000002" class="edge">
<title>Node1&#45;&gt;Node2</title>
<g id="a_edge1_Node000001_Node000002"><a xlink:title=" ">
<path fill="none" stroke="#63b8ff" d="M193.33,-87.69C205.34,-89.37 217.45,-91.01 229,-92.5 297.26,-101.31 376.36,-110.06 426.04,-115.37"/>
<polygon fill="#63b8ff" stroke="#63b8ff" points="425.87,-118.87 436.18,-116.45 426.61,-111.91 425.87,-118.87"/>
</a>
</g>
</g>
<!-- Node5 -->
<g id="Node000005" class="node">
<title>Node5</title>
<g id="a_Node000005"><a xlink:href="classLogger.html#a5789d11f8f1356e2192c0023a089cbc4" target="_top" xlink:title="Get singleton instance.">
<polygon fill="white" stroke="#666666" points="533,-19 419,-19 419,0 533,0 533,-19"/>
<text text-anchor="middle" x="476" y="-7" font-family="Helvetica,sans-Serif" font-size="10.00">Logger::GetInstance</text>
</a>
</g>
</g>
<!-- Node1&#45;&gt;Node5 -->
<g id="edge4_Node000001_Node000005" class="edge">
<title>Node1&#45;&gt;Node5</title>
<g id="a_edge4_Node000001_Node000005"><a xlink:title=" ">
<path fill="none" stroke="#63b8ff" d="M186.01,-58.49C254.23,-46.93 347.08,-31.19 408.92,-20.7"/>
<polygon fill="#63b8ff" stroke="#63b8ff" points="409.68,-24.12 418.95,-19 408.51,-17.22 409.68,-24.12"/>
</a>
</g>
</g>
<!-- Node6 -->
<g id="Node000006" class="node">
<title>Node6</title>
<g id="a_Node000006"><a xlink:href="classMax22200Handler.html#a0dce05cd6639a10e52c0f669b72baf52" target="_top" xlink:title="Initialize driver (ENABLE HIGH, read/clear STATUS, set ACTIVE).">
<polygon fill="white" stroke="#666666" points="383,-83 229,-83 229,-64 383,-64 383,-83"/>
<text text-anchor="middle" x="306" y="-71" font-family="Helvetica,sans-Serif" font-size="10.00">Max22200Handler::Initialize</text>
</a>
</g>
</g>
<!-- Node1&#45;&gt;Node6 -->
<g id="edge5_Node000001_Node000006" class="edge">
<title>Node1&#45;&gt;Node6</title>
<g id="a_edge5_Node000001_Node000006"><a xlink:title=" ">
<path fill="none" stroke="#63b8ff" d="M193.05,-73.5C201.6,-73.5 210.22,-73.5 218.68,-73.5"/>
<polygon fill="#63b8ff" stroke="#63b8ff" points="218.9,-77 228.9,-73.5 218.9,-70 218.9,-77"/>
</a>
</g>
</g>
<!-- Node3 -->
<g id="Node000003" class="node">
<title>Node3</title>
<g id="a_Node000003"><a xlink:href="classLogger.html#af9e84e0ff6bd538e4f9ed8dcebc3e2f0" target="_top" xlink:title="Check if log level is enabled for tag.">
<polygon fill="white" stroke="#666666" points="698,-111 569,-111 569,-92 698,-92 698,-111"/>
<text text-anchor="middle" x="633.5" y="-99" font-family="Helvetica,sans-Serif" font-size="10.00">Logger::IsLevelEnabled</text>
</a>
</g>
</g>
<!-- Node2&#45;&gt;Node3 -->
<g id="edge2_Node000002_Node000003" class="edge">
<title>Node2&#45;&gt;Node3</title>
<g id="a_edge2_Node000002_Node000003"><a xlink:title=" ">
<path fill="none" stroke="#63b8ff" d="M515.84,-115.75C528.85,-114.16 543.82,-112.34 558.6,-110.53"/>
<polygon fill="#63b8ff" stroke="#63b8ff" points="559.28,-113.97 568.78,-109.29 558.43,-107.02 559.28,-113.97"/>
</a>
</g>
</g>
<!-- Node4 -->
<g id="Node000004" class="node">
<title>Node4</title>
<g id="a_Node000004"><a xlink:href="classLogger.html#a6adb205db597526fb91ad20067400394" target="_top" xlink:title="Internal logging method.">
<polygon fill="white" stroke="#666666" points="688.5,-74 578.5,-74 578.5,-55 688.5,-55 688.5,-74"/>
<text text-anchor="middle" x="633.5" y="-62" font-family="Helvetica,sans-Serif" font-size="10.00">Logger::LogInternal</text>
</a>
</g>
</g>
<!-- Node2&#45;&gt;Node4 -->
<g id="edge3_Node000002_Node000004" class="edge">
<title>Node2&#45;&gt;Node4</title>
<g id="a_edge3_Node000002_Node000004"><a xlink:title=" ">
<path fill="none" stroke="#63b8ff" d="M509.92,-110.98C517.59,-108.47 525.66,-105.59 533,-102.5 549.68,-95.48 552.25,-90.35 569,-83.5 574.53,-81.24 580.42,-79.12 586.31,-77.16"/>
<polygon fill="#63b8ff" stroke="#63b8ff" points="587.67,-80.41 596.14,-74.05 585.55,-73.73 587.67,-80.41"/>
</a>
</g>
</g>
<!-- Node6&#45;&gt;Node2 -->
<g id="edge6_Node000006_Node000002" class="edge">
<title>Node6&#45;&gt;Node2</title>
<g id="a_edge6_Node000006_Node000002"><a xlink:title=" ">
<path fill="none" stroke="#63b8ff" d="M341,-83.01C366.87,-90.25 402.7,-100.27 430.8,-108.13"/>
<polygon fill="#63b8ff" stroke="#63b8ff" points="430.19,-111.6 440.77,-110.92 432.08,-104.86 430.19,-111.6"/>
</a>
</g>
</g>
<!-- Node6&#45;&gt;Node5 -->
<g id="edge7_Node000006_Node000005" class="edge">
<title>Node6&#45;&gt;Node5</title>
<g id="a_edge7_Node000006_Node000005"><a xlink:title=" ">
<path fill="none" stroke="#63b8ff" d="M328.69,-64C351.11,-54.32 387.21,-39.12 419,-27.5 423.85,-25.73 428.97,-23.95 434.07,-22.25"/>
<polygon fill="#63b8ff" stroke="#63b8ff" points="435.34,-25.51 443.75,-19.06 433.16,-18.86 435.34,-25.51"/>
</a>
</g>
</g>
<!-- Node7 -->
<g id="Node000007" class="node">
<title>Node7</title>
<g id="a_Node000007"><a xlink:href="classLogger.html#a4681229c521795685fc14f6b55c82300" target="_top" xlink:title="Log info message.">
<polygon fill="white" stroke="#666666" points="513,-56 439,-56 439,-37 513,-37 513,-56"/>
<text text-anchor="middle" x="476" y="-44" font-family="Helvetica,sans-Serif" font-size="10.00">Logger::Info</text>
</a>
</g>
</g>
<!-- Node6&#45;&gt;Node7 -->
<g id="edge8_Node000006_Node000007" class="edge">
<title>Node6&#45;&gt;Node7</title>
<g id="a_edge8_Node000006_Node000007"><a xlink:title=" ">
<path fill="none" stroke="#63b8ff" d="M366.23,-63.98C386.73,-60.69 409.39,-57.04 428.7,-53.94"/>
<polygon fill="#63b8ff" stroke="#63b8ff" points="429.44,-57.37 438.75,-52.33 428.32,-50.46 429.44,-57.37"/>
</a>
</g>
</g>
<!-- Node8 -->
<g id="Node000008" class="node">
<title>Node8</title>
<g id="a_Node000008"><a xlink:href="classLogger.html#aaa95ffa14d07a965d4a85bdec82cba26" target="_top" xlink:title="Log warning message.">
<polygon fill="white" stroke="#666666" points="516,-93 436,-93 436,-74 516,-74 516,-93"/>
<text text-anchor="middle" x="476" y="-81" font-family="Helvetica,sans-Serif" font-size="10.00">Logger::Warn</text>
</a>
</g>
</g>
<!-- Node6&#45;&gt;Node8 -->
<g id="edge11_Node000006_Node000008" class="edge">
<title>Node6&#45;&gt;Node8</title>
<g id="a_edge11_Node000006_Node000008"><a xlink:title=" ">
<path fill="none" stroke="#63b8ff" d="M383.14,-78.03C397.52,-78.89 412.22,-79.76 425.52,-80.55"/>
<polygon fill="#63b8ff" stroke="#63b8ff" points="425.66,-84.07 435.85,-81.17 426.08,-77.08 425.66,-84.07"/>
</a>
</g>
</g>
<!-- Node7&#45;&gt;Node3 -->
<g id="edge9_Node000007_Node000003" class="edge">
<title>Node7&#45;&gt;Node3</title>
<g id="a_edge9_Node000007_Node000003"><a xlink:title=" ">
<path fill="none" stroke="#63b8ff" d="M507.51,-56.01C515.86,-58.84 524.85,-62.1 533,-65.5 549.51,-72.39 552.32,-77.03 569,-83.5 574.07,-85.47 579.45,-87.33 584.85,-89.05"/>
<polygon fill="#63b8ff" stroke="#63b8ff" points="583.92,-92.42 594.51,-91.99 585.96,-85.73 583.92,-92.42"/>
</a>
</g>
</g>
<!-- Node7&#45;&gt;Node4 -->
<g id="edge10_Node000007_Node000004" class="edge">
<title>Node7&#45;&gt;Node4</title>
<g id="a_edge10_Node000007_Node000004"><a xlink:title=" ">
<path fill="none" stroke="#63b8ff" d="M513.07,-50.67C529.49,-52.58 549.44,-54.89 568.3,-57.07"/>
<polygon fill="#63b8ff" stroke="#63b8ff" points="568,-60.56 578.33,-58.23 568.8,-53.6 568,-60.56"/>
</a>
</g>
</g>
<!-- Node8&#45;&gt;Node3 -->
<g id="edge12_Node000008_Node000003" class="edge">
<title>Node8&#45;&gt;Node3</title>
<g id="a_edge12_Node000008_Node000003"><a xlink:title=" ">
<path fill="none" stroke="#63b8ff" d="M516.24,-88.04C529.18,-89.54 544.02,-91.26 558.68,-92.95"/>
<polygon fill="#63b8ff" stroke="#63b8ff" points="558.43,-96.45 568.77,-94.12 559.24,-89.5 558.43,-96.45"/>
</a>
</g>
</g>
<!-- Node8&#45;&gt;Node4 -->
<g id="edge13_Node000008_Node000004" class="edge">
<title>Node8&#45;&gt;Node4</title>
<g id="a_edge13_Node000008_Node000004"><a xlink:title=" ">
<path fill="none" stroke="#63b8ff" d="M516.24,-78.71C531.96,-76.78 550.49,-74.52 568.08,-72.37"/>
<polygon fill="#63b8ff" stroke="#63b8ff" points="568.8,-75.81 578.3,-71.12 567.95,-68.86 568.8,-75.81"/>
</a>
</g>
</g>
</g>
</svg>
