<?xml version="1.0" encoding="UTF-8" standalone="no"?>
<!DOCTYPE svg PUBLIC "-//W3C//DTD SVG 1.1//EN"
 "http://www.w3.org/Graphics/SVG/1.1/DTD/svg11.dtd">
<!-- Generated by graphviz version 2.43.0 (0)
 -->
<!-- Title: Tmc9660Handler::Temperature::GetCapabilities Pages: 1 -->
<svg width="1130pt" height="150pt"
 viewBox="0.00 0.00 1130.00 149.50" xmlns="http://www.w3.org/2000/svg" xmlns:xlink="http://www.w3.org/1999/xlink">
<g id="graph0" class="graph" transform="scale(1 1) rotate(0) translate(4 145.5)">
<title>Tmc9660Handler::Temperature::GetCapabilities</title>
<!-- Node1 -->
<g id="Node000001" class="node">
<title>Node1</title>
<g id="a_Node000001"><a xlink:title="Get sensor capabilities flags.">
<polygon fill="#999999" stroke="#666666" points="167,-54 0,-54 0,-24 167,-24 167,-54"/>
<text text-anchor="start" x="8" y="-42" font-family="Helvetica,sans-Serif" font-size="10.00">Tmc9660Handler::Temperature</text>
<text text-anchor="middle" x="83.5" y="-31" font-family="Helvetica,sans-Serif" font-size="10.00">::GetCapabilities</text>
</a>
</g>
</g>
<!-- Node2 -->
<g id="Node000002" class="node">
<title>Node2</title>
<g id="a_Node000002"><a xlink:href="classTmc9660Handler.html#a393382194d0602e7aa02da6a8fd7a20a" target="_top" xlink:title="Get a reference to the Temperature wrapper.">
<polygon fill="white" stroke="#666666" points="370,-48.5 203,-48.5 203,-29.5 370,-29.5 370,-48.5"/>
<text text-anchor="middle" x="286.5" y="-36.5" font-family="Helvetica,sans-Serif" font-size="10.00">Tmc9660Handler::temperature</text>
</a>
</g>
</g>
<!-- Node1&#45;&gt;Node2 -->
<g id="edge1_Node000001_Node000002" class="edge">
<title>Node1&#45;&gt;Node2</title>
<g id="a_edge1_Node000001_Node000002"><a xlink:title=" ">
<path fill="none" stroke="#63b8ff" d="M167.12,-39C175.61,-39 184.27,-39 192.85,-39"/>
<polygon fill="#63b8ff" stroke="#63b8ff" points="192.87,-42.5 202.87,-39 192.87,-35.5 192.87,-42.5"/>
</a>
</g>
</g>
<!-- Node2&#45;&gt;Node2 -->
<g id="edge14_Node000002_Node000002" class="edge">
<title>Node2&#45;&gt;Node2</title>
<g id="a_edge14_Node000002_Node000002"><a xlink:title=" ">
<path fill="none" stroke="#63b8ff" d="M255.37,-48.58C240.22,-57.23 250.6,-66.5 286.5,-66.5 311.74,-66.5 324.37,-61.92 324.37,-56.19"/>
<polygon fill="#63b8ff" stroke="#63b8ff" points="326.89,-53.75 317.63,-48.58 321.65,-58.39 326.89,-53.75"/>
</a>
</g>
</g>
<!-- Node3 -->
<g id="Node000003" class="node">
<title>Node3</title>
<g id="a_Node000003"><a xlink:href="classTmc9660Handler.html#a5a279ae9d4b5a8e0d71cb24577ad88ea" target="_top" xlink:title="Ensure driver is initialized (lazy init entrypoint).">
<polygon fill="white" stroke="#666666" points="593,-29.5 406,-29.5 406,-10.5 593,-10.5 593,-29.5"/>
<text text-anchor="middle" x="499.5" y="-17.5" font-family="Helvetica,sans-Serif" font-size="10.00">Tmc9660Handler::EnsureInitialized</text>
</a>
</g>
</g>
<!-- Node2&#45;&gt;Node3 -->
<g id="edge2_Node000002_Node000003" class="edge">
<title>Node2&#45;&gt;Node3</title>
<g id="a_edge2_Node000002_Node000003"><a xlink:title=" ">
<path fill="none" stroke="#63b8ff" d="M370.29,-31.55C378.67,-30.79 387.25,-30.02 395.81,-29.25"/>
<polygon fill="#63b8ff" stroke="#63b8ff" points="396.18,-32.73 405.83,-28.34 395.56,-25.76 396.18,-32.73"/>
</a>
</g>
</g>
<!-- Node4 -->
<g id="Node000004" class="node">
<title>Node4</title>
<g id="a_Node000004"><a xlink:href="classTmc9660Handler.html#adc564847f8ae26c47412aaee0758991c" target="_top" xlink:title="Initialize the TMC9660 device.">
<polygon fill="white" stroke="#666666" points="777,-67.5 629,-67.5 629,-48.5 777,-48.5 777,-67.5"/>
<text text-anchor="middle" x="703" y="-55.5" font-family="Helvetica,sans-Serif" font-size="10.00">Tmc9660Handler::Initialize</text>
</a>
</g>
</g>
<!-- Node3&#45;&gt;Node4 -->
<g id="edge3_Node000003_Node000004" class="edge">
<title>Node3&#45;&gt;Node4</title>
<g id="a_edge3_Node000003_Node000004"><a xlink:title=" ">
<path fill="none" stroke="#63b8ff" d="M551.09,-29.54C578.51,-34.71 612.6,-41.14 641.43,-46.58"/>
<polygon fill="#63b8ff" stroke="#63b8ff" points="640.92,-50.04 651.39,-48.46 642.21,-43.16 640.92,-50.04"/>
</a>
</g>
</g>
<!-- Node10 -->
<g id="Node000010" class="node">
<title>Node10</title>
<g id="a_Node000010"><a xlink:href="classTmc9660Handler.html#a13db97d201a287d8aa60384e04070b9f" target="_top" xlink:title="Check if the TMC9660 driver has been initialized and is ready.">
<polygon fill="white" stroke="#666666" points="957,-30 813,-30 813,0 957,0 957,-30"/>
<text text-anchor="start" x="821" y="-18" font-family="Helvetica,sans-Serif" font-size="10.00">Tmc9660Handler::IsDriver</text>
<text text-anchor="middle" x="885" y="-7" font-family="Helvetica,sans-Serif" font-size="10.00">Ready</text>
</a>
</g>
</g>
<!-- Node3&#45;&gt;Node10 -->
<g id="edge13_Node000003_Node000010" class="edge">
<title>Node3&#45;&gt;Node10</title>
<g id="a_edge13_Node000003_Node000010"><a xlink:title=" ">
<path fill="none" stroke="#63b8ff" d="M593.33,-18.79C657.28,-17.96 741.42,-16.86 802.72,-16.06"/>
<polygon fill="#63b8ff" stroke="#63b8ff" points="802.78,-19.56 812.73,-15.93 802.69,-12.56 802.78,-19.56"/>
</a>
</g>
</g>
<!-- Node4&#45;&gt;Node2 -->
<g id="edge12_Node000004_Node000002" class="edge">
<title>Node4&#45;&gt;Node2</title>
<g id="a_edge12_Node000004_Node000002"><a xlink:title=" ">
<path fill="none" stroke="#63b8ff" d="M628.97,-54.65C559.87,-51.49 455.85,-46.72 380.78,-43.28"/>
<polygon fill="#63b8ff" stroke="#63b8ff" points="380.53,-39.76 370.38,-42.8 380.21,-46.75 380.53,-39.76"/>
</a>
</g>
</g>
<!-- Node5 -->
<g id="Node000005" class="node">
<title>Node5</title>
<g id="a_Node000005"><a xlink:href="classLogger.html#adce17848a5844e053bfd314863dc1404" target="_top" xlink:title="Log error message.">
<polygon fill="white" stroke="#666666" points="924.5,-141.5 845.5,-141.5 845.5,-122.5 924.5,-122.5 924.5,-141.5"/>
<text text-anchor="middle" x="885" y="-129.5" font-family="Helvetica,sans-Serif" font-size="10.00">Logger::Error</text>
</a>
</g>
</g>
<!-- Node4&#45;&gt;Node5 -->
<g id="edge4_Node000004_Node000005" class="edge">
<title>Node4&#45;&gt;Node5</title>
<g id="a_edge4_Node000004_Node000005"><a xlink:title=" ">
<path fill="none" stroke="#63b8ff" d="M719.73,-67.53C740.46,-79.74 778.37,-100.91 813,-114 820.11,-116.69 827.78,-119.1 835.35,-121.23"/>
<polygon fill="#63b8ff" stroke="#63b8ff" points="834.62,-124.66 845.19,-123.85 836.42,-117.89 834.62,-124.66"/>
</a>
</g>
</g>
<!-- Node8 -->
<g id="Node000008" class="node">
<title>Node8</title>
<g id="a_Node000008"><a xlink:href="classLogger.html#a5789d11f8f1356e2192c0023a089cbc4" target="_top" xlink:title="Get singleton instance.">
<polygon fill="white" stroke="#666666" points="942,-67.5 828,-67.5 828,-48.5 942,-48.5 942,-67.5"/>
<text text-anchor="middle" x="885" y="-55.5" font-family="Helvetica,sans-Serif" font-size="10.00">Logger::GetInstance</text>
</a>
</g>
</g>
<!-- Node4&#45;&gt;Node8 -->
<g id="edge7_Node000004_Node000008" class="edge">
<title>Node4&#45;&gt;Node8</title>
<g id="a_edge7_Node000004_Node000008"><a xlink:title=" ">
<path fill="none" stroke="#63b8ff" d="M777.21,-58C790.58,-58 804.45,-58 817.6,-58"/>
<polygon fill="#63b8ff" stroke="#63b8ff" points="817.97,-61.5 827.97,-58 817.97,-54.5 817.97,-61.5"/>
</a>
</g>
</g>
<!-- Node9 -->
<g id="Node000009" class="node">
<title>Node9</title>
<g id="a_Node000009"><a xlink:href="classLogger.html#a4681229c521795685fc14f6b55c82300" target="_top" xlink:title="Log info message.">
<polygon fill="white" stroke="#666666" points="922,-104.5 848,-104.5 848,-85.5 922,-85.5 922,-104.5"/>
<text text-anchor="middle" x="885" y="-92.5" font-family="Helvetica,sans-Serif" font-size="10.00">Logger::Info</text>
</a>
</g>
</g>
<!-- Node4&#45;&gt;Node9 -->
<g id="edge8_Node000004_Node000009" class="edge">
<title>Node4&#45;&gt;Node9</title>
<g id="a_edge8_Node000004_Node000009"><a xlink:title=" ">
<path fill="none" stroke="#63b8ff" d="M750.35,-67.53C777.23,-73.05 810.96,-79.99 837.81,-85.51"/>
<polygon fill="#63b8ff" stroke="#63b8ff" points="837.24,-88.96 847.74,-87.55 838.65,-82.1 837.24,-88.96"/>
</a>
</g>
</g>
<!-- Node4&#45;&gt;Node10 -->
<g id="edge11_Node000004_Node000010" class="edge">
<title>Node4&#45;&gt;Node10</title>
<g id="a_edge11_Node000004_Node000010"><a xlink:title=" ">
<path fill="none" stroke="#63b8ff" d="M743.95,-48.46C763.8,-43.72 788.4,-37.84 811.43,-32.34"/>
<polygon fill="#63b8ff" stroke="#63b8ff" points="812.27,-35.73 821.18,-30.01 810.64,-28.93 812.27,-35.73"/>
</a>
</g>
</g>
<!-- Node6 -->
<g id="Node000006" class="node">
<title>Node6</title>
<g id="a_Node000006"><a xlink:href="classLogger.html#af9e84e0ff6bd538e4f9ed8dcebc3e2f0" target="_top" xlink:title="Check if log level is enabled for tag.">
<polygon fill="white" stroke="#666666" points="1122,-141.5 993,-141.5 993,-122.5 1122,-122.5 1122,-141.5"/>
<text text-anchor="middle" x="1057.5" y="-129.5" font-family="Helvetica,sans-Serif" font-size="10.00">Logger::IsLevelEnabled</text>
</a>
</g>
</g>
<!-- Node5&#45;&gt;Node6 -->
<g id="edge5_Node000005_Node000006" class="edge">
<title>Node5&#45;&gt;Node6</title>
<g id="a_edge5_Node000005_Node000006"><a xlink:title=" ">
<path fill="none" stroke="#63b8ff" d="M924.69,-132C941.92,-132 962.81,-132 982.83,-132"/>
<polygon fill="#63b8ff" stroke="#63b8ff" points="982.89,-135.5 992.89,-132 982.89,-128.5 982.89,-135.5"/>
</a>
</g>
</g>
<!-- Node7 -->
<g id="Node000007" class="node">
<title>Node7</title>
<g id="a_Node000007"><a xlink:href="classLogger.html#a6adb205db597526fb91ad20067400394" target="_top" xlink:title="Internal logging method.">
<polygon fill="white" stroke="#666666" points="1112.5,-104.5 1002.5,-104.5 1002.5,-85.5 1112.5,-85.5 1112.5,-104.5"/>
<text text-anchor="middle" x="1057.5" y="-92.5" font-family="Helvetica,sans-Serif" font-size="10.00">Logger::LogInternal</text>
</a>
</g>
</g>
<!-- Node5&#45;&gt;Node7 -->
<g id="edge6_Node000005_Node000007" class="edge">
<title>Node5&#45;&gt;Node7</title>
<g id="a_edge6_Node000005_Node000007"><a xlink:title=" ">
<path fill="none" stroke="#63b8ff" d="M924.69,-123.6C947.76,-118.6 977.4,-112.17 1002.72,-106.67"/>
<polygon fill="#63b8ff" stroke="#63b8ff" points="1003.52,-110.08 1012.55,-104.54 1002.04,-103.24 1003.52,-110.08"/>
</a>
</g>
</g>
<!-- Node9&#45;&gt;Node6 -->
<g id="edge9_Node000009_Node000006" class="edge">
<title>Node9&#45;&gt;Node6</title>
<g id="a_edge9_Node000009_Node000006"><a xlink:title=" ">
<path fill="none" stroke="#63b8ff" d="M922.16,-102.85C945.56,-107.93 976.45,-114.63 1002.71,-120.33"/>
<polygon fill="#63b8ff" stroke="#63b8ff" points="1002.01,-123.76 1012.52,-122.46 1003.49,-116.92 1002.01,-123.76"/>
</a>
</g>
</g>
<!-- Node9&#45;&gt;Node7 -->
<g id="edge10_Node000009_Node000007" class="edge">
<title>Node9&#45;&gt;Node7</title>
<g id="a_edge10_Node000009_Node000007"><a xlink:title=" ">
<path fill="none" stroke="#63b8ff" d="M922.16,-95C942.42,-95 968.31,-95 991.93,-95"/>
<polygon fill="#63b8ff" stroke="#63b8ff" points="992.25,-98.5 1002.25,-95 992.25,-91.5 992.25,-98.5"/>
</a>
</g>
</g>
</g>
</svg>
