<?xml version="1.0" encoding="UTF-8" standalone="no"?>
<!DOCTYPE svg PUBLIC "-//W3C//DTD SVG 1.1//EN"
 "http://www.w3.org/Graphics/SVG/1.1/DTD/svg11.dtd">
<!-- Generated by graphviz version 2.43.0 (0)
 -->
<!-- Title: Tmc9660Handler::driverViaSpi Pages: 1 -->
<svg width="1321pt" height="113pt"
 viewBox="0.00 0.00 1321.00 112.50" xmlns="http://www.w3.org/2000/svg" xmlns:xlink="http://www.w3.org/1999/xlink">
<g id="graph0" class="graph" transform="scale(1 1) rotate(0) translate(4 108.5)">
<title>Tmc9660Handler::driverViaSpi</title>
<!-- Node1 -->
<g id="Node000001" class="node">
<title>Node1</title>
<g id="a_Node000001"><a xlink:title="Const version of driverViaSpi().">
<polygon fill="#999999" stroke="#666666" points="165,-45.5 0,-45.5 0,-26.5 165,-26.5 165,-45.5"/>
<text text-anchor="middle" x="82.5" y="-33.5" font-family="Helvetica,sans-Serif" font-size="10.00">Tmc9660Handler::driverViaSpi</text>
</a>
</g>
</g>
<!-- Node2 -->
<g id="Node000002" class="node">
<title>Node2</title>
<g id="a_Node000002"><a xlink:href="classTmc9660Handler.html#a393382194d0602e7aa02da6a8fd7a20a" target="_top" xlink:title="Get a reference to the Temperature wrapper.">
<polygon fill="white" stroke="#666666" points="368,-45.5 201,-45.5 201,-26.5 368,-26.5 368,-45.5"/>
<text text-anchor="middle" x="284.5" y="-33.5" font-family="Helvetica,sans-Serif" font-size="10.00">Tmc9660Handler::temperature</text>
</a>
</g>
</g>
<!-- Node1&#45;&gt;Node2 -->
<g id="edge1_Node000001_Node000002" class="edge">
<title>Node1&#45;&gt;Node2</title>
<g id="a_edge1_Node000001_Node000002"><a xlink:title=" ">
<path fill="none" stroke="#63b8ff" d="M165.14,-36C173.6,-36 182.24,-36 190.81,-36"/>
<polygon fill="#63b8ff" stroke="#63b8ff" points="190.83,-39.5 200.83,-36 190.83,-32.5 190.83,-39.5"/>
</a>
</g>
</g>
<!-- Node2&#45;&gt;Node2 -->
<g id="edge14_Node000002_Node000002" class="edge">
<title>Node2&#45;&gt;Node2</title>
<g id="a_edge14_Node000002_Node000002"><a xlink:title=" ">
<path fill="none" stroke="#63b8ff" d="M253.37,-45.58C238.22,-54.23 248.6,-63.5 284.5,-63.5 309.74,-63.5 322.37,-58.92 322.37,-53.19"/>
<polygon fill="#63b8ff" stroke="#63b8ff" points="324.89,-50.75 315.63,-45.58 319.65,-55.39 324.89,-50.75"/>
</a>
</g>
</g>
<!-- Node3 -->
<g id="Node000003" class="node">
<title>Node3</title>
<g id="a_Node000003"><a xlink:href="classTmc9660Handler.html#a5a279ae9d4b5a8e0d71cb24577ad88ea" target="_top" xlink:title="Ensure driver is initialized (lazy init entrypoint).">
<polygon fill="white" stroke="#666666" points="591,-45.5 404,-45.5 404,-26.5 591,-26.5 591,-45.5"/>
<text text-anchor="middle" x="497.5" y="-33.5" font-family="Helvetica,sans-Serif" font-size="10.00">Tmc9660Handler::EnsureInitialized</text>
</a>
</g>
</g>
<!-- Node2&#45;&gt;Node3 -->
<g id="edge2_Node000002_Node000003" class="edge">
<title>Node2&#45;&gt;Node3</title>
<g id="a_edge2_Node000002_Node000003"><a xlink:title=" ">
<path fill="none" stroke="#63b8ff" d="M368.29,-29.39C376.67,-29.29 385.25,-29.24 393.81,-29.25"/>
<polygon fill="#63b8ff" stroke="#63b8ff" points="393.81,-32.75 403.83,-29.29 393.84,-25.75 393.81,-32.75"/>
</a>
</g>
</g>
<!-- Node3&#45;&gt;Node2 -->
<g id="edge13_Node000003_Node000002" class="edge">
<title>Node3&#45;&gt;Node2</title>
<g id="a_edge13_Node000003_Node000002"><a xlink:title=" ">
<path fill="none" stroke="#63b8ff" d="M403.83,-42.71C395.42,-42.76 386.9,-42.76 378.48,-42.71"/>
<polygon fill="#63b8ff" stroke="#63b8ff" points="378.32,-39.21 368.29,-42.61 378.25,-46.21 378.32,-39.21"/>
</a>
</g>
</g>
<!-- Node4 -->
<g id="Node000004" class="node">
<title>Node4</title>
<g id="a_Node000004"><a xlink:href="classTmc9660Handler.html#a7c1d8073576d678b09dac24c9eb12845" target="_top" xlink:title="Ensure initialized while handler_mutex_ is already held.">
<polygon fill="white" stroke="#666666" points="814,-51 627,-51 627,-21 814,-21 814,-51"/>
<text text-anchor="start" x="635" y="-39" font-family="Helvetica,sans-Serif" font-size="10.00">Tmc9660Handler::EnsureInitialized</text>
<text text-anchor="middle" x="720.5" y="-28" font-family="Helvetica,sans-Serif" font-size="10.00">Locked</text>
</a>
</g>
</g>
<!-- Node3&#45;&gt;Node4 -->
<g id="edge3_Node000003_Node000004" class="edge">
<title>Node3&#45;&gt;Node4</title>
<g id="a_edge3_Node000003_Node000004"><a xlink:title=" ">
<path fill="none" stroke="#63b8ff" d="M591.26,-36C599.75,-36 608.39,-36 616.96,-36"/>
<polygon fill="#63b8ff" stroke="#63b8ff" points="616.97,-39.5 626.97,-36 616.97,-32.5 616.97,-39.5"/>
</a>
</g>
</g>
<!-- Node5 -->
<g id="Node000005" class="node">
<title>Node5</title>
<g id="a_Node000005"><a xlink:href="classTmc9660Handler.html#adc564847f8ae26c47412aaee0758991c" target="_top" xlink:title="Initialize the TMC9660 device.">
<polygon fill="white" stroke="#666666" points="998,-67.5 850,-67.5 850,-48.5 998,-48.5 998,-67.5"/>
<text text-anchor="middle" x="924" y="-55.5" font-family="Helvetica,sans-Serif" font-size="10.00">Tmc9660Handler::Initialize</text>
</a>
</g>
</g>
<!-- Node4&#45;&gt;Node5 -->
<g id="edge4_Node000004_Node000005" class="edge">
<title>Node4&#45;&gt;Node5</title>
<g id="a_edge4_Node000004_Node000005"><a xlink:title=" ">
<path fill="none" stroke="#63b8ff" d="M814.29,-46.13C822.73,-47.05 831.25,-47.98 839.61,-48.9"/>
<polygon fill="#63b8ff" stroke="#63b8ff" points="839.38,-52.39 849.7,-50 840.14,-45.43 839.38,-52.39"/>
</a>
</g>
</g>
<!-- Node11 -->
<g id="Node000011" class="node">
<title>Node11</title>
<g id="a_Node000011"><a xlink:href="classTmc9660Handler.html#a13db97d201a287d8aa60384e04070b9f" target="_top" xlink:title="Check if the TMC9660 driver has been initialized and is ready.">
<polygon fill="white" stroke="#666666" points="996,-30 852,-30 852,0 996,0 996,-30"/>
<text text-anchor="start" x="860" y="-18" font-family="Helvetica,sans-Serif" font-size="10.00">Tmc9660Handler::IsDriver</text>
<text text-anchor="middle" x="924" y="-7" font-family="Helvetica,sans-Serif" font-size="10.00">Ready</text>
</a>
</g>
</g>
<!-- Node4&#45;&gt;Node11 -->
<g id="edge12_Node000004_Node000011" class="edge">
<title>Node4&#45;&gt;Node11</title>
<g id="a_edge12_Node000004_Node000011"><a xlink:title=" ">
<path fill="none" stroke="#63b8ff" d="M814.29,-26.33C823.44,-25.38 832.69,-24.41 841.71,-23.47"/>
<polygon fill="#63b8ff" stroke="#63b8ff" points="842.21,-26.94 851.8,-22.42 841.49,-19.98 842.21,-26.94"/>
</a>
</g>
</g>
<!-- Node6 -->
<g id="Node000006" class="node">
<title>Node6</title>
<g id="a_Node000006"><a xlink:href="classLogger.html#adce17848a5844e053bfd314863dc1404" target="_top" xlink:title="Log error message.">
<polygon fill="white" stroke="#666666" points="1130.5,-67.5 1051.5,-67.5 1051.5,-48.5 1130.5,-48.5 1130.5,-67.5"/>
<text text-anchor="middle" x="1091" y="-55.5" font-family="Helvetica,sans-Serif" font-size="10.00">Logger::Error</text>
</a>
</g>
</g>
<!-- Node5&#45;&gt;Node6 -->
<g id="edge5_Node000005_Node000006" class="edge">
<title>Node5&#45;&gt;Node6</title>
<g id="a_edge5_Node000005_Node000006"><a xlink:title=" ">
<path fill="none" stroke="#63b8ff" d="M998.33,-58C1012.73,-58 1027.5,-58 1040.87,-58"/>
<polygon fill="#63b8ff" stroke="#63b8ff" points="1041.26,-61.5 1051.26,-58 1041.26,-54.5 1041.26,-61.5"/>
</a>
</g>
</g>
<!-- Node9 -->
<g id="Node000009" class="node">
<title>Node9</title>
<g id="a_Node000009"><a xlink:href="classLogger.html#a5789d11f8f1356e2192c0023a089cbc4" target="_top" xlink:title="Get singleton instance.">
<polygon fill="white" stroke="#666666" points="1148,-30.5 1034,-30.5 1034,-11.5 1148,-11.5 1148,-30.5"/>
<text text-anchor="middle" x="1091" y="-18.5" font-family="Helvetica,sans-Serif" font-size="10.00">Logger::GetInstance</text>
</a>
</g>
</g>
<!-- Node5&#45;&gt;Node9 -->
<g id="edge8_Node000005_Node000009" class="edge">
<title>Node5&#45;&gt;Node9</title>
<g id="a_edge8_Node000005_Node000009"><a xlink:title=" ">
<path fill="none" stroke="#63b8ff" d="M967.49,-48.47C988.87,-43.68 1014.97,-37.82 1037.58,-32.75"/>
<polygon fill="#63b8ff" stroke="#63b8ff" points="1038.37,-36.16 1047.37,-30.56 1036.84,-29.33 1038.37,-36.16"/>
</a>
</g>
</g>
<!-- Node10 -->
<g id="Node000010" class="node">
<title>Node10</title>
<g id="a_Node000010"><a xlink:href="classLogger.html#a4681229c521795685fc14f6b55c82300" target="_top" xlink:title="Log info message.">
<polygon fill="white" stroke="#666666" points="1128,-104.5 1054,-104.5 1054,-85.5 1128,-85.5 1128,-104.5"/>
<text text-anchor="middle" x="1091" y="-92.5" font-family="Helvetica,sans-Serif" font-size="10.00">Logger::Info</text>
</a>
</g>
</g>
<!-- Node5&#45;&gt;Node10 -->
<g id="edge9_Node000005_Node000010" class="edge">
<title>Node5&#45;&gt;Node10</title>
<g id="a_edge9_Node000005_Node000010"><a xlink:title=" ">
<path fill="none" stroke="#63b8ff" d="M967.49,-67.53C990.89,-72.77 1019.94,-79.29 1043.89,-84.66"/>
<polygon fill="#63b8ff" stroke="#63b8ff" points="1043.28,-88.11 1053.8,-86.88 1044.81,-81.28 1043.28,-88.11"/>
</a>
</g>
</g>
<!-- Node7 -->
<g id="Node000007" class="node">
<title>Node7</title>
<g id="a_Node000007"><a xlink:href="classLogger.html#af9e84e0ff6bd538e4f9ed8dcebc3e2f0" target="_top" xlink:title="Check if log level is enabled for tag.">
<polygon fill="white" stroke="#666666" points="1313,-104.5 1184,-104.5 1184,-85.5 1313,-85.5 1313,-104.5"/>
<text text-anchor="middle" x="1248.5" y="-92.5" font-family="Helvetica,sans-Serif" font-size="10.00">Logger::IsLevelEnabled</text>
</a>
</g>
</g>
<!-- Node6&#45;&gt;Node7 -->
<g id="edge6_Node000006_Node000007" class="edge">
<title>Node6&#45;&gt;Node7</title>
<g id="a_edge6_Node000006_Node000007"><a xlink:title=" ">
<path fill="none" stroke="#63b8ff" d="M1130.84,-67.24C1151.03,-72.05 1175.94,-77.97 1197.55,-83.11"/>
<polygon fill="#63b8ff" stroke="#63b8ff" points="1197,-86.58 1207.53,-85.49 1198.62,-79.77 1197,-86.58"/>
</a>
</g>
</g>
<!-- Node8 -->
<g id="Node000008" class="node">
<title>Node8</title>
<g id="a_Node000008"><a xlink:href="classLogger.html#a6adb205db597526fb91ad20067400394" target="_top" xlink:title="Internal logging method.">
<polygon fill="white" stroke="#666666" points="1303.5,-67.5 1193.5,-67.5 1193.5,-48.5 1303.5,-48.5 1303.5,-67.5"/>
<text text-anchor="middle" x="1248.5" y="-55.5" font-family="Helvetica,sans-Serif" font-size="10.00">Logger::LogInternal</text>
</a>
</g>
</g>
<!-- Node6&#45;&gt;Node8 -->
<g id="edge7_Node000006_Node000008" class="edge">
<title>Node6&#45;&gt;Node8</title>
<g id="a_edge7_Node000006_Node000008"><a xlink:title=" ">
<path fill="none" stroke="#63b8ff" d="M1130.84,-58C1146.63,-58 1165.31,-58 1183.03,-58"/>
<polygon fill="#63b8ff" stroke="#63b8ff" points="1183.33,-61.5 1193.33,-58 1183.33,-54.5 1183.33,-61.5"/>
</a>
</g>
</g>
<!-- Node10&#45;&gt;Node7 -->
<g id="edge10_Node000010_Node000007" class="edge">
<title>Node10&#45;&gt;Node7</title>
<g id="a_edge10_Node000010_Node000007"><a xlink:title=" ">
<path fill="none" stroke="#63b8ff" d="M1128.07,-95C1141.68,-95 1157.72,-95 1173.55,-95"/>
<polygon fill="#63b8ff" stroke="#63b8ff" points="1173.89,-98.5 1183.89,-95 1173.89,-91.5 1173.89,-98.5"/>
</a>
</g>
</g>
<!-- Node10&#45;&gt;Node8 -->
<g id="edge11_Node000010_Node000008" class="edge">
<title>Node10&#45;&gt;Node8</title>
<g id="a_edge11_Node000010_Node000008"><a xlink:title=" ">
<path fill="none" stroke="#63b8ff" d="M1128.07,-86.42C1148.78,-81.49 1175.09,-75.23 1197.74,-69.84"/>
<polygon fill="#63b8ff" stroke="#63b8ff" points="1198.61,-73.23 1207.53,-67.51 1196.99,-66.42 1198.61,-73.23"/>
</a>
</g>
</g>
</g>
</svg>
