<?xml version="1.0" encoding="UTF-8" standalone="no"?>
<!DOCTYPE svg PUBLIC "-//W3C//DTD SVG 1.1//EN"
 "http://www.w3.org/Graphics/SVG/1.1/DTD/svg11.dtd">
<!-- Generated by graphviz version 2.43.0 (0)
 -->
<!-- Title: Tmc9660AdcWrapper Pages: 1 -->
<svg width="1585pt" height="379pt"
 viewBox="0.00 0.00 1585.00 378.50" xmlns="http://www.w3.org/2000/svg" xmlns:xlink="http://www.w3.org/1999/xlink">
<g id="graph0" class="graph" transform="scale(1 1) rotate(0) translate(4 374.5)">
<title>Tmc9660AdcWrapper</title>
<!-- Node1 -->
<g id="Node000001" class="node">
<title>Node1</title>
<g id="a_Node000001"><a xlink:title="Delegation wrapper that adapts Tmc9660Handler::Adc for external ownership.">
<polygon fill="#999999" stroke="#666666" points="1075,-299.5 954,-299.5 954,-280.5 1075,-280.5 1075,-299.5"/>
<text text-anchor="middle" x="1014.5" y="-287.5" font-family="Helvetica,sans-Serif" font-size="10.00">Tmc9660AdcWrapper</text>
</a>
</g>
</g>
<!-- Node2 -->
<g id="Node000002" class="node">
<title>Node2</title>
<g id="a_Node000002"><a xlink:title=" ">
<polygon fill="white" stroke="#666666" points="110.5,-269.5 51.5,-269.5 51.5,-250.5 110.5,-250.5 110.5,-269.5"/>
<text text-anchor="middle" x="81" y="-257.5" font-family="Helvetica,sans-Serif" font-size="10.00">BaseAdc</text>
</a>
</g>
</g>
<!-- Node2&#45;&gt;Node1 -->
<g id="edge1_Node000001_Node000002" class="edge">
<title>Node2&#45;&gt;Node1</title>
<g id="a_edge1_Node000001_Node000002"><a xlink:title=" ">
<path fill="none" stroke="#63b8ff" d="M120.62,-271.21C166.97,-283.65 247.23,-302 317.5,-302 317.5,-302 317.5,-302 779.5,-302 838.89,-302 906.65,-298.1 953.91,-294.74"/>
<polygon fill="#63b8ff" stroke="#63b8ff" points="121.28,-267.76 110.71,-268.5 119.43,-274.51 121.28,-267.76"/>
</a>
</g>
</g>
<!-- Node18 -->
<g id="Node000018" class="node">
<title>Node18</title>
<g id="a_Node000018"><a xlink:href="classTmc9660Handler_1_1Adc.html" target="_top" xlink:title="BaseAdc adapter for all TMC9660 ADC channels.">
<polygon fill="white" stroke="#666666" points="380.5,-197.5 256.5,-197.5 256.5,-178.5 380.5,-178.5 380.5,-197.5"/>
<text text-anchor="middle" x="318.5" y="-185.5" font-family="Helvetica,sans-Serif" font-size="10.00">Tmc9660Handler::Adc</text>
</a>
</g>
</g>
<!-- Node2&#45;&gt;Node18 -->
<g id="edge20_Node000018_Node000002" class="edge">
<title>Node2&#45;&gt;Node18</title>
<g id="a_edge20_Node000018_Node000002"><a xlink:title=" ">
<path fill="none" stroke="#63b8ff" d="M120.54,-248.22C166.76,-234.09 243.36,-210.67 286.14,-197.59"/>
<polygon fill="#63b8ff" stroke="#63b8ff" points="119.42,-244.9 110.88,-251.17 121.46,-251.59 119.42,-244.9"/>
</a>
</g>
</g>
<!-- Node3 -->
<g id="Node000003" class="node">
<title>Node3</title>
<g id="a_Node000003"><a xlink:href="classTmc9660Handler.html" target="_top" xlink:title="Unified, non&#45;templated handler for a single TMC9660 motor controller device.">
<polygon fill="white" stroke="#666666" points="828.5,-213.5 728.5,-213.5 728.5,-194.5 828.5,-194.5 828.5,-213.5"/>
<text text-anchor="middle" x="778.5" y="-201.5" font-family="Helvetica,sans-Serif" font-size="10.00">Tmc9660Handler</text>
</a>
</g>
</g>
<!-- Node3&#45;&gt;Node1 -->
<g id="edge2_Node000001_Node000003" class="edge">
<title>Node3&#45;&gt;Node1</title>
<g id="a_edge2_Node000001_Node000003"><a xlink:title=" ">
<path fill="none" stroke="#9a32cd" stroke-dasharray="5,2" d="M799.71,-219.61C814.97,-230.69 836.83,-245.11 858,-254 888.41,-266.76 924.15,-275.44 953.69,-281.07"/>
<polygon fill="#9a32cd" stroke="#9a32cd" points="801.66,-216.69 791.55,-213.54 797.49,-222.31 801.66,-216.69"/>
</a>
</g>
<text text-anchor="middle" x="885.5" y="-274" font-family="Helvetica,sans-Serif" font-size="10.00" fill="grey"> handler_</text>
</g>
<!-- Node15 -->
<g id="Node000015" class="node">
<title>Node15</title>
<g id="a_Node000015"><a xlink:href="classTmc9660Handler_1_1Gpio.html" target="_top" xlink:title="BaseGpio adapter for a single TMC9660 internal GPIO channel.">
<polygon fill="white" stroke="#666666" points="1078.5,-344.5 950.5,-344.5 950.5,-325.5 1078.5,-325.5 1078.5,-344.5"/>
<text text-anchor="middle" x="1014.5" y="-332.5" font-family="Helvetica,sans-Serif" font-size="10.00">Tmc9660Handler::Gpio</text>
</a>
</g>
</g>
<!-- Node3&#45;&gt;Node15 -->
<g id="edge17_Node000015_Node000003" class="edge">
<title>Node3&#45;&gt;Node15</title>
<g id="a_edge17_Node000015_Node000003"><a xlink:title=" ">
<path fill="none" stroke="#9a32cd" stroke-dasharray="5,2" d="M792.18,-221.79C806.27,-240.33 830.67,-269.01 858,-286 889.61,-305.65 929.78,-318.04 961.37,-325.45"/>
<polygon fill="#9a32cd" stroke="#9a32cd" points="794.88,-219.56 786.12,-213.6 789.25,-223.72 794.88,-219.56"/>
</a>
</g>
<text text-anchor="middle" x="885.5" y="-313" font-family="Helvetica,sans-Serif" font-size="10.00" fill="grey"> parent_</text>
</g>
<!-- Node3&#45;&gt;Node18 -->
<g id="edge21_Node000018_Node000003" class="edge">
<title>Node3&#45;&gt;Node18</title>
<g id="a_edge21_Node000018_Node000003"><a xlink:title=" ">
<path fill="none" stroke="#9a32cd" stroke-dasharray="5,2" d="M718.27,-201.79C687.22,-200.64 648.56,-199.22 614,-198 533.35,-195.15 440.27,-192.02 380.7,-190.03"/>
<polygon fill="#9a32cd" stroke="#9a32cd" points="718.37,-205.29 728.49,-202.17 718.63,-198.3 718.37,-205.29"/>
</a>
</g>
<text text-anchor="middle" x="525.5" y="-201" font-family="Helvetica,sans-Serif" font-size="10.00" fill="grey"> parent_</text>
</g>
<!-- Node21 -->
<g id="Node000021" class="node">
<title>Node21</title>
<g id="a_Node000021"><a xlink:href="classTmc9660Handler_1_1Temperature.html" target="_top" xlink:title="BaseTemperature adapter for TMC9660 internal chip temperature sensor.">
<polygon fill="white" stroke="#666666" points="1098,-160.5 931,-160.5 931,-141.5 1098,-141.5 1098,-160.5"/>
<text text-anchor="middle" x="1014.5" y="-148.5" font-family="Helvetica,sans-Serif" font-size="10.00">Tmc9660Handler::Temperature</text>
</a>
</g>
</g>
<!-- Node3&#45;&gt;Node21 -->
<g id="edge26_Node000021_Node000003" class="edge">
<title>Node3&#45;&gt;Node21</title>
<g id="a_edge26_Node000021_Node000003"><a xlink:title=" ">
<path fill="none" stroke="#9a32cd" stroke-dasharray="5,2" d="M816.11,-191.25C829.22,-186.98 844.17,-182.43 858,-179 887.95,-171.57 921.61,-165.26 949.93,-160.52"/>
<polygon fill="#9a32cd" stroke="#9a32cd" points="814.89,-187.97 806.5,-194.44 817.09,-194.61 814.89,-187.97"/>
</a>
</g>
<text text-anchor="middle" x="885.5" y="-182" font-family="Helvetica,sans-Serif" font-size="10.00" fill="grey"> parent_</text>
</g>
<!-- Node4 -->
<g id="Node000004" class="node">
<title>Node4</title>
<g id="a_Node000004"><a xlink:title=" ">
<polygon fill="white" stroke="#666666" points="614,-104 437,-104 437,-74 614,-74 614,-104"/>
<text text-anchor="start" x="445" y="-92" font-family="Helvetica,sans-Serif" font-size="10.00">std::unique_ptr&lt; HalSpiTmc9660</text>
<text text-anchor="middle" x="525.5" y="-81" font-family="Helvetica,sans-Serif" font-size="10.00">Comm &gt;</text>
</a>
</g>
</g>
<!-- Node4&#45;&gt;Node3 -->
<g id="edge3_Node000003_Node000004" class="edge">
<title>Node4&#45;&gt;Node3</title>
<g id="a_edge3_Node000003_Node000004"><a xlink:title=" ">
<path fill="none" stroke="#9a32cd" stroke-dasharray="5,2" d="M624.28,-98.25C650.66,-104.57 677.75,-114.97 699,-132 712.96,-143.19 704.82,-154.9 717,-168 727.57,-179.37 742.54,-188.32 754.95,-194.45"/>
<polygon fill="#9a32cd" stroke="#9a32cd" points="624.74,-94.77 614.22,-96.03 623.22,-101.6 624.74,-94.77"/>
</a>
</g>
<text text-anchor="middle" x="665.5" y="-135" font-family="Helvetica,sans-Serif" font-size="10.00" fill="grey"> spi_comm_</text>
</g>
<!-- Node5 -->
<g id="Node000005" class="node">
<title>Node5</title>
<g id="a_Node000005"><a xlink:href="classHalSpiTmc9660Comm.html" target="_top" xlink:title="CRTP SPI communication adapter bridging BaseSpi/BaseGpio to tmc9660::SpiCommInterface.">
<polygon fill="white" stroke="#666666" points="381,-98.5 256,-98.5 256,-79.5 381,-79.5 381,-98.5"/>
<text text-anchor="middle" x="318.5" y="-86.5" font-family="Helvetica,sans-Serif" font-size="10.00">HalSpiTmc9660Comm</text>
</a>
</g>
</g>
<!-- Node5&#45;&gt;Node4 -->
<g id="edge4_Node000004_Node000005" class="edge">
<title>Node5&#45;&gt;Node4</title>
<g id="a_edge4_Node000004_Node000005"><a xlink:title=" ">
<path fill="none" stroke="#9a32cd" stroke-dasharray="5,2" d="M391.08,-89C405.87,-89 421.6,-89 436.89,-89"/>
<polygon fill="#9a32cd" stroke="#9a32cd" points="391.01,-85.5 381.01,-89 391.01,-92.5 391.01,-85.5"/>
</a>
</g>
<text text-anchor="middle" x="410.5" y="-92" font-family="Helvetica,sans-Serif" font-size="10.00" fill="grey"> ptr</text>
</g>
<!-- Node6 -->
<g id="Node000006" class="node">
<title>Node6</title>
<g id="a_Node000006"><a xlink:title=" ">
<polygon fill="white" stroke="#666666" points="159,-123 3,-123 3,-93 159,-93 159,-123"/>
<text text-anchor="start" x="11" y="-111" font-family="Helvetica,sans-Serif" font-size="10.00">tmc9660::SpiCommInterface</text>
<text text-anchor="middle" x="81" y="-100" font-family="Helvetica,sans-Serif" font-size="10.00">&lt; HalSpiTmc9660Comm &gt;</text>
</a>
</g>
</g>
<!-- Node6&#45;&gt;Node5 -->
<g id="edge5_Node000005_Node000006" class="edge">
<title>Node6&#45;&gt;Node5</title>
<g id="a_edge5_Node000005_Node000006"><a xlink:title=" ">
<path fill="none" stroke="#63b8ff" d="M169.18,-100.97C197.98,-98.64 229.4,-96.11 255.88,-93.97"/>
<polygon fill="#63b8ff" stroke="#63b8ff" points="168.8,-97.49 159.11,-101.78 169.36,-104.46 168.8,-97.49"/>
</a>
</g>
</g>
<!-- Node7 -->
<g id="Node000007" class="node">
<title>Node7</title>
<g id="a_Node000007"><a xlink:href="structTmc9660CtrlPins.html" target="_top" xlink:title="Shared helper holding the four TMC9660 host&#45;side control pin references.">
<polygon fill="white" stroke="#666666" points="130.5,-71.5 31.5,-71.5 31.5,-52.5 130.5,-52.5 130.5,-71.5"/>
<text text-anchor="middle" x="81" y="-59.5" font-family="Helvetica,sans-Serif" font-size="10.00">Tmc9660CtrlPins</text>
</a>
</g>
</g>
<!-- Node7&#45;&gt;Node5 -->
<g id="edge6_Node000005_Node000007" class="edge">
<title>Node7&#45;&gt;Node5</title>
<g id="a_edge6_Node000005_Node000007"><a xlink:title=" ">
<path fill="none" stroke="#9a32cd" stroke-dasharray="5,2" d="M140.58,-68.72C175.59,-72.73 220.02,-77.82 255.6,-81.9"/>
<polygon fill="#9a32cd" stroke="#9a32cd" points="140.84,-65.22 130.51,-67.56 140.05,-72.18 140.84,-65.22"/>
</a>
</g>
<text text-anchor="middle" x="207.5" y="-83" font-family="Helvetica,sans-Serif" font-size="10.00" fill="grey"> ctrl_pins_</text>
</g>
<!-- Node9 -->
<g id="Node000009" class="node">
<title>Node9</title>
<g id="a_Node000009"><a xlink:href="classHalUartTmc9660Comm.html" target="_top" xlink:title="CRTP UART communication adapter bridging BaseUart/BaseGpio to tmc9660::UartCommInterface.">
<polygon fill="white" stroke="#666666" points="384,-50.5 253,-50.5 253,-31.5 384,-31.5 384,-50.5"/>
<text text-anchor="middle" x="318.5" y="-38.5" font-family="Helvetica,sans-Serif" font-size="10.00">HalUartTmc9660Comm</text>
</a>
</g>
</g>
<!-- Node7&#45;&gt;Node9 -->
<g id="edge10_Node000009_Node000007" class="edge">
<title>Node7&#45;&gt;Node9</title>
<g id="a_edge10_Node000009_Node000007"><a xlink:title=" ">
<path fill="none" stroke="#9a32cd" stroke-dasharray="5,2" d="M140.7,-53.5C153.63,-51.82 167.26,-50.21 180,-49 203.69,-46.74 229.73,-45.03 252.72,-43.78"/>
<polygon fill="#9a32cd" stroke="#9a32cd" points="139.97,-50.06 130.52,-54.84 140.89,-57 139.97,-50.06"/>
</a>
</g>
<text text-anchor="middle" x="207.5" y="-52" font-family="Helvetica,sans-Serif" font-size="10.00" fill="grey"> ctrl_pins_</text>
</g>
<!-- Node8 -->
<g id="Node000008" class="node">
<title>Node8</title>
<g id="a_Node000008"><a xlink:title=" ">
<polygon fill="white" stroke="#666666" points="594.5,-56 456.5,-56 456.5,-26 594.5,-26 594.5,-56"/>
<text text-anchor="start" x="464.5" y="-44" font-family="Helvetica,sans-Serif" font-size="10.00">std::unique_ptr&lt; HalUart</text>
<text text-anchor="middle" x="525.5" y="-33" font-family="Helvetica,sans-Serif" font-size="10.00">Tmc9660Comm &gt;</text>
</a>
</g>
</g>
<!-- Node8&#45;&gt;Node3 -->
<g id="edge7_Node000003_Node000008" class="edge">
<title>Node8&#45;&gt;Node3</title>
<g id="a_edge7_Node000003_Node000008"><a xlink:title=" ">
<path fill="none" stroke="#9a32cd" stroke-dasharray="5,2" d="M604.9,-43.8C638.13,-49.01 674.7,-60.73 699,-86 724.86,-112.89 695.17,-137.74 717,-168 725.58,-179.89 739.41,-188.55 751.68,-194.38"/>
<polygon fill="#9a32cd" stroke="#9a32cd" points="605.1,-40.29 594.72,-42.38 604.14,-47.23 605.1,-40.29"/>
</a>
</g>
<text text-anchor="middle" x="665.5" y="-89" font-family="Helvetica,sans-Serif" font-size="10.00" fill="grey"> uart_comm_</text>
</g>
<!-- Node9&#45;&gt;Node8 -->
<g id="edge8_Node000008_Node000009" class="edge">
<title>Node9&#45;&gt;Node8</title>
<g id="a_edge8_Node000008_Node000009"><a xlink:title=" ">
<path fill="none" stroke="#9a32cd" stroke-dasharray="5,2" d="M394.22,-41C414.54,-41 436.42,-41 456.35,-41"/>
<polygon fill="#9a32cd" stroke="#9a32cd" points="394.08,-37.5 384.08,-41 394.08,-44.5 394.08,-37.5"/>
</a>
</g>
<text text-anchor="middle" x="410.5" y="-44" font-family="Helvetica,sans-Serif" font-size="10.00" fill="grey"> ptr</text>
</g>
<!-- Node10 -->
<g id="Node000010" class="node">
<title>Node10</title>
<g id="a_Node000010"><a xlink:title=" ">
<polygon fill="white" stroke="#666666" points="162,-30 0,-30 0,0 162,0 162,-30"/>
<text text-anchor="start" x="8" y="-18" font-family="Helvetica,sans-Serif" font-size="10.00">tmc9660::UartCommInterface</text>
<text text-anchor="middle" x="81" y="-7" font-family="Helvetica,sans-Serif" font-size="10.00">&lt; HalUartTmc9660Comm &gt;</text>
</a>
</g>
</g>
<!-- Node10&#45;&gt;Node9 -->
<g id="edge9_Node000009_Node000010" class="edge">
<title>Node10&#45;&gt;Node9</title>
<g id="a_edge9_Node000009_Node000010"><a xlink:title=" ">
<path fill="none" stroke="#63b8ff" d="M172.24,-24.96C199.11,-27.93 227.99,-31.12 252.88,-33.87"/>
<polygon fill="#63b8ff" stroke="#63b8ff" points="172.38,-21.46 162.06,-23.84 171.61,-28.42 172.38,-21.46"/>
</a>
</g>
</g>
<!-- Node11 -->
<g id="Node000011" class="node">
<title>Node11</title>
<g id="a_Node000011"><a xlink:title=" ">
<polygon fill="white" stroke="#666666" points="604,-273.5 447,-273.5 447,-254.5 604,-254.5 604,-273.5"/>
<text text-anchor="middle" x="525.5" y="-261.5" font-family="Helvetica,sans-Serif" font-size="10.00">std::unique_ptr&lt; SpiDriver &gt;</text>
</a>
</g>
</g>
<!-- Node11&#45;&gt;Node3 -->
<g id="edge11_Node000003_Node000011" class="edge">
<title>Node11&#45;&gt;Node3</title>
<g id="a_edge11_Node000003_Node000011"><a xlink:title=" ">
<path fill="none" stroke="#9a32cd" stroke-dasharray="5,2" d="M597.6,-252.74C628.93,-247.18 666.03,-239.78 699,-231 717.24,-226.14 737.37,-219.19 752.68,-213.55"/>
<polygon fill="#9a32cd" stroke="#9a32cd" points="596.9,-249.31 587.65,-254.48 598.1,-256.21 596.9,-249.31"/>
</a>
</g>
<text text-anchor="middle" x="665.5" y="-249" font-family="Helvetica,sans-Serif" font-size="10.00" fill="grey"> spi_driver_</text>
</g>
<!-- Node12 -->
<g id="Node000012" class="node">
<title>Node12</title>
<g id="a_Node000012"><a xlink:title=" ">
<polygon fill="white" stroke="#666666" points="607,-236.5 444,-236.5 444,-217.5 607,-217.5 607,-236.5"/>
<text text-anchor="middle" x="525.5" y="-224.5" font-family="Helvetica,sans-Serif" font-size="10.00">std::unique_ptr&lt; UartDriver &gt;</text>
</a>
</g>
</g>
<!-- Node12&#45;&gt;Node3 -->
<g id="edge12_Node000003_Node000012" class="edge">
<title>Node12&#45;&gt;Node3</title>
<g id="a_edge12_Node000003_Node000012"><a xlink:title=" ">
<path fill="none" stroke="#9a32cd" stroke-dasharray="5,2" d="M617.71,-218.64C655.08,-215.22 696.85,-211.39 728.31,-208.51"/>
<polygon fill="#9a32cd" stroke="#9a32cd" points="616.94,-215.2 607.3,-219.6 617.58,-222.17 616.94,-215.2"/>
</a>
</g>
<text text-anchor="middle" x="665.5" y="-219" font-family="Helvetica,sans-Serif" font-size="10.00" fill="grey"> uart_driver_</text>
</g>
<!-- Node13 -->
<g id="Node000013" class="node">
<title>Node13</title>
<g id="a_Node000013"><a xlink:title=" ">
<polygon fill="white" stroke="#666666" points="1577,-279.5 1441,-279.5 1441,-238.5 1577,-238.5 1577,-279.5"/>
<text text-anchor="start" x="1449" y="-267.5" font-family="Helvetica,sans-Serif" font-size="10.00">std::array&lt; std::unique</text>
<text text-anchor="start" x="1449" y="-256.5" font-family="Helvetica,sans-Serif" font-size="10.00">_ptr&lt; Tmc9660Handler::</text>
<text text-anchor="middle" x="1509" y="-245.5" font-family="Helvetica,sans-Serif" font-size="10.00">Gpio &gt;, 2 &gt;</text>
</a>
</g>
</g>
<!-- Node13&#45;&gt;Node3 -->
<g id="edge13_Node000003_Node000013" class="edge">
<title>Node13&#45;&gt;Node3</title>
<g id="a_edge13_Node000003_Node000013"><a xlink:title=" ">
<path fill="none" stroke="#9a32cd" stroke-dasharray="5,2" d="M1430.64,-255.09C1308.72,-248.6 1064.47,-234.28 858,-214 848.57,-213.07 838.51,-211.92 828.86,-210.73"/>
<polygon fill="#9a32cd" stroke="#9a32cd" points="1430.82,-258.6 1440.99,-255.64 1431.19,-251.61 1430.82,-258.6"/>
</a>
</g>
<text text-anchor="middle" x="1154" y="-243" font-family="Helvetica,sans-Serif" font-size="10.00" fill="grey"> gpioWrappers_</text>
</g>
<!-- Node14 -->
<g id="Node000014" class="node">
<title>Node14</title>
<g id="a_Node000014"><a xlink:title=" ">
<polygon fill="white" stroke="#666666" points="1356,-313 1210,-313 1210,-283 1356,-283 1356,-313"/>
<text text-anchor="start" x="1218" y="-301" font-family="Helvetica,sans-Serif" font-size="10.00">std::unique_ptr&lt; Tmc9660</text>
<text text-anchor="middle" x="1283" y="-290" font-family="Helvetica,sans-Serif" font-size="10.00">Handler::Gpio &gt;</text>
</a>
</g>
</g>
<!-- Node14&#45;&gt;Node13 -->
<g id="edge14_Node000013_Node000014" class="edge">
<title>Node14&#45;&gt;Node13</title>
<g id="a_edge14_Node000013_Node000014"><a xlink:title=" ">
<path fill="none" stroke="#9a32cd" stroke-dasharray="5,2" d="M1366.15,-283.7C1390.76,-279.41 1417.45,-274.76 1440.97,-270.67"/>
<polygon fill="#9a32cd" stroke="#9a32cd" points="1365.36,-280.28 1356.11,-285.45 1366.56,-287.18 1365.36,-280.28"/>
</a>
</g>
<text text-anchor="middle" x="1398.5" y="-284" font-family="Helvetica,sans-Serif" font-size="10.00" fill="grey"> elements</text>
</g>
<!-- Node15&#45;&gt;Node14 -->
<g id="edge15_Node000014_Node000015" class="edge">
<title>Node15&#45;&gt;Node14</title>
<g id="a_edge15_Node000014_Node000015"><a xlink:title=" ">
<path fill="none" stroke="#9a32cd" stroke-dasharray="5,2" d="M1088.57,-324.85C1126.33,-319.61 1172.26,-313.24 1209.88,-308.01"/>
<polygon fill="#9a32cd" stroke="#9a32cd" points="1088.08,-321.39 1078.66,-326.23 1089.04,-328.32 1088.08,-321.39"/>
</a>
</g>
<text text-anchor="middle" x="1154" y="-323" font-family="Helvetica,sans-Serif" font-size="10.00" fill="grey"> ptr</text>
</g>
<!-- Node16 -->
<g id="Node000016" class="node">
<title>Node16</title>
<g id="a_Node000016"><a xlink:title=" ">
<polygon fill="white" stroke="#666666" points="810,-370.5 747,-370.5 747,-351.5 810,-351.5 810,-370.5"/>
<text text-anchor="middle" x="778.5" y="-358.5" font-family="Helvetica,sans-Serif" font-size="10.00">BaseGpio</text>
</a>
</g>
</g>
<!-- Node16&#45;&gt;Node15 -->
<g id="edge16_Node000015_Node000016" class="edge">
<title>Node16&#45;&gt;Node15</title>
<g id="a_edge16_Node000015_Node000016"><a xlink:title=" ">
<path fill="none" stroke="#63b8ff" d="M820.04,-356.9C846.51,-354.19 881.82,-350.5 913,-347 925.05,-345.65 937.9,-344.15 950.25,-342.69"/>
<polygon fill="#63b8ff" stroke="#63b8ff" points="819.59,-353.43 810,-357.93 820.3,-360.39 819.59,-353.43"/>
</a>
</g>
</g>
<!-- Node17 -->
<g id="Node000017" class="node">
<title>Node17</title>
<g id="a_Node000017"><a xlink:title=" ">
<polygon fill="white" stroke="#666666" points="598.5,-152 452.5,-152 452.5,-122 598.5,-122 598.5,-152"/>
<text text-anchor="start" x="460.5" y="-140" font-family="Helvetica,sans-Serif" font-size="10.00">std::unique_ptr&lt; Tmc9660</text>
<text text-anchor="middle" x="525.5" y="-129" font-family="Helvetica,sans-Serif" font-size="10.00">Handler::Adc &gt;</text>
</a>
</g>
</g>
<!-- Node17&#45;&gt;Node3 -->
<g id="edge18_Node000003_Node000017" class="edge">
<title>Node17&#45;&gt;Node3</title>
<g id="a_edge18_Node000003_Node000017"><a xlink:title=" ">
<path fill="none" stroke="#9a32cd" stroke-dasharray="5,2" d="M608.75,-143.76C637.76,-147.61 670.28,-153.63 699,-163 722.53,-170.68 747.51,-184.92 762.81,-194.42"/>
<polygon fill="#9a32cd" stroke="#9a32cd" points="609.01,-140.26 598.65,-142.49 608.13,-147.21 609.01,-140.26"/>
</a>
</g>
<text text-anchor="middle" x="665.5" y="-166" font-family="Helvetica,sans-Serif" font-size="10.00" fill="grey"> adcWrapper_</text>
</g>
<!-- Node18&#45;&gt;Node17 -->
<g id="edge19_Node000017_Node000018" class="edge">
<title>Node18&#45;&gt;Node17</title>
<g id="a_edge19_Node000017_Node000018"><a xlink:title=" ">
<path fill="none" stroke="#9a32cd" stroke-dasharray="5,2" d="M358.35,-175.49C372.07,-171.26 387.65,-166.69 402,-163 418.21,-158.83 435.76,-154.82 452.36,-151.24"/>
<polygon fill="#9a32cd" stroke="#9a32cd" points="357.24,-172.17 348.73,-178.48 359.32,-178.85 357.24,-172.17"/>
</a>
</g>
<text text-anchor="middle" x="410.5" y="-166" font-family="Helvetica,sans-Serif" font-size="10.00" fill="grey"> ptr</text>
</g>
<!-- Node19 -->
<g id="Node000019" class="node">
<title>Node19</title>
<g id="a_Node000019"><a xlink:title=" ">
<polygon fill="white" stroke="#666666" points="138.5,-203 23.5,-203 23.5,-173 138.5,-173 138.5,-203"/>
<text text-anchor="start" x="31.5" y="-191" font-family="Helvetica,sans-Serif" font-size="10.00">std::atomic&lt; hf_adc</text>
<text text-anchor="middle" x="81" y="-180" font-family="Helvetica,sans-Serif" font-size="10.00">_err_t &gt;</text>
</a>
</g>
</g>
<!-- Node19&#45;&gt;Node18 -->
<g id="edge22_Node000018_Node000019" class="edge">
<title>Node19&#45;&gt;Node18</title>
<g id="a_edge22_Node000018_Node000019"><a xlink:title=" ">
<path fill="none" stroke="#9a32cd" stroke-dasharray="5,2" d="M148.95,-188C182.73,-188 223.4,-188 256.33,-188"/>
<polygon fill="#9a32cd" stroke="#9a32cd" points="148.71,-184.5 138.71,-188 148.71,-191.5 148.71,-184.5"/>
</a>
</g>
<text text-anchor="middle" x="207.5" y="-191" font-family="Helvetica,sans-Serif" font-size="10.00" fill="grey"> last_error_</text>
</g>
<!-- Node20 -->
<g id="Node000020" class="node">
<title>Node20</title>
<g id="a_Node000020"><a xlink:title=" ">
<polygon fill="white" stroke="#666666" points="1356,-204 1210,-204 1210,-174 1356,-174 1356,-204"/>
<text text-anchor="start" x="1218" y="-192" font-family="Helvetica,sans-Serif" font-size="10.00">std::unique_ptr&lt; Tmc9660</text>
<text text-anchor="middle" x="1283" y="-181" font-family="Helvetica,sans-Serif" font-size="10.00">Handler::Temperature &gt;</text>
</a>
</g>
</g>
<!-- Node20&#45;&gt;Node3 -->
<g id="edge23_Node000003_Node000020" class="edge">
<title>Node20&#45;&gt;Node3</title>
<g id="a_edge23_Node000003_Node000020"><a xlink:title=" ">
<path fill="none" stroke="#9a32cd" stroke-dasharray="5,2" d="M1199.5,-191.46C1094.02,-194.61 914.76,-199.96 828.6,-202.53"/>
<polygon fill="#9a32cd" stroke="#9a32cd" points="1199.89,-194.95 1209.78,-191.16 1199.68,-187.96 1199.89,-194.95"/>
</a>
</g>
<text text-anchor="middle" x="1014.5" y="-202" font-family="Helvetica,sans-Serif" font-size="10.00" fill="grey"> temperatureWrapper_</text>
</g>
<!-- Node21&#45;&gt;Node20 -->
<g id="edge24_Node000020_Node000021" class="edge">
<title>Node21&#45;&gt;Node20</title>
<g id="a_edge24_Node000020_Node000021"><a xlink:title=" ">
<path fill="none" stroke="#9a32cd" stroke-dasharray="5,2" d="M1092.63,-162C1129.61,-167.27 1173.63,-173.55 1209.92,-178.72"/>
<polygon fill="#9a32cd" stroke="#9a32cd" points="1092.8,-158.49 1082.41,-160.54 1091.81,-165.42 1092.8,-158.49"/>
</a>
</g>
<text text-anchor="middle" x="1154" y="-178" font-family="Helvetica,sans-Serif" font-size="10.00" fill="grey"> ptr</text>
</g>
<!-- Node22 -->
<g id="Node000022" class="node">
<title>Node22</title>
<g id="a_Node000022"><a xlink:title=" ">
<polygon fill="white" stroke="#666666" points="829.5,-110.5 727.5,-110.5 727.5,-91.5 829.5,-91.5 829.5,-110.5"/>
<text text-anchor="middle" x="778.5" y="-98.5" font-family="Helvetica,sans-Serif" font-size="10.00">BaseTemperature</text>
</a>
</g>
</g>
<!-- Node22&#45;&gt;Node21 -->
<g id="edge25_Node000021_Node000022" class="edge">
<title>Node22&#45;&gt;Node21</title>
<g id="a_edge25_Node000021_Node000022"><a xlink:title=" ">
<path fill="none" stroke="#63b8ff" d="M833.88,-112.62C874.83,-121.37 930.29,-133.22 968.7,-141.43"/>
<polygon fill="#63b8ff" stroke="#63b8ff" points="834.58,-109.19 824.06,-110.52 833.11,-116.03 834.58,-109.19"/>
</a>
</g>
</g>
<!-- Node23 -->
<g id="Node000023" class="node">
<title>Node23</title>
<g id="a_Node000023"><a xlink:title=" ">
<polygon fill="white" stroke="#666666" points="840,-159 717,-159 717,-129 840,-129 840,-159"/>
<text text-anchor="start" x="725" y="-147" font-family="Helvetica,sans-Serif" font-size="10.00">std::atomic&lt; hf_temp</text>
<text text-anchor="middle" x="778.5" y="-136" font-family="Helvetica,sans-Serif" font-size="10.00">_err_t &gt;</text>
</a>
</g>
</g>
<!-- Node23&#45;&gt;Node21 -->
<g id="edge27_Node000021_Node000023" class="edge">
<title>Node23&#45;&gt;Node21</title>
<g id="a_edge27_Node000021_Node000023"><a xlink:title=" ">
<path fill="none" stroke="#9a32cd" stroke-dasharray="5,2" d="M850.4,-143.84C870.63,-143.99 892.69,-144.32 913,-145 918.85,-145.2 924.89,-145.44 930.97,-145.73"/>
<polygon fill="#9a32cd" stroke="#9a32cd" points="850.34,-140.34 840.32,-143.79 850.3,-147.34 850.34,-140.34"/>
</a>
</g>
<text text-anchor="middle" x="885.5" y="-148" font-family="Helvetica,sans-Serif" font-size="10.00" fill="grey"> last_error_</text>
</g>
</g>
</svg>
