<?xml version="1.0" encoding="UTF-8" standalone="no"?>
<!DOCTYPE svg PUBLIC "-//W3C//DTD SVG 1.1//EN"
 "http://www.w3.org/Graphics/SVG/1.1/DTD/svg11.dtd">
<!-- Generated by graphviz version 2.43.0 (0)
 -->
<!-- Title: Tmc9660Handler::visitDriver Pages: 1 -->
<svg width="641pt" height="402pt"
 viewBox="0.00 0.00 641.00 402.00" xmlns="http://www.w3.org/2000/svg" xmlns:xlink="http://www.w3.org/1999/xlink">
<g id="graph0" class="graph" transform="scale(1 1) rotate(0) translate(4 398)">
<title>Tmc9660Handler::visitDriver</title>
<!-- Node1 -->
<g id="Node000001" class="node">
<title>Node1</title>
<g id="a_Node000001"><a xlink:title="Execute a function on the underlying typed TMC9660 driver.">
<polygon fill="#999999" stroke="#666666" points="633,-206.5 476,-206.5 476,-187.5 633,-187.5 633,-206.5"/>
<text text-anchor="middle" x="554.5" y="-194.5" font-family="Helvetica,sans-Serif" font-size="10.00">Tmc9660Handler::visitDriver</text>
</a>
</g>
</g>
<!-- Node2 -->
<g id="Node000002" class="node">
<title>Node2</title>
<g id="a_Node000002"><a xlink:href="classTmc9660Handler.html#af55fa5277da0e3d5f6c7200a4cfdbd10" target="_top" xlink:title="De&#45;assert the DRV_EN control pin (disable the TMC9660 power stage hardware).">
<polygon fill="white" stroke="#666666" points="420.5,-394 247.5,-394 247.5,-364 420.5,-364 420.5,-394"/>
<text text-anchor="start" x="255.5" y="-382" font-family="Helvetica,sans-Serif" font-size="10.00">Tmc9660Handler::DisableDriver</text>
<text text-anchor="middle" x="334" y="-371" font-family="Helvetica,sans-Serif" font-size="10.00">Output</text>
</a>
</g>
</g>
<!-- Node1&#45;&gt;Node2 -->
<g id="edge1_Node000001_Node000002" class="edge">
<title>Node1&#45;&gt;Node2</title>
<g id="a_edge1_Node000001_Node000002"><a xlink:title=" ">
<path fill="none" stroke="#63b8ff" d="M545.49,-215.85C530.2,-249.43 493.54,-319.44 440,-355 434,-358.98 427.44,-362.31 420.6,-365.09"/>
<polygon fill="#63b8ff" stroke="#63b8ff" points="548.71,-217.23 549.55,-206.67 542.3,-214.4 548.71,-217.23"/>
</a>
</g>
</g>
<!-- Node3 -->
<g id="Node000003" class="node">
<title>Node3</title>
<g id="a_Node000003"><a xlink:href="classTmc9660Handler.html#af200e87a8fb2f4cf42861a5410b6a995" target="_top" xlink:title="Assert the DRV_EN control pin (enable the TMC9660 power stage hardware).">
<polygon fill="white" stroke="#666666" points="418.5,-346 249.5,-346 249.5,-316 418.5,-316 418.5,-346"/>
<text text-anchor="start" x="257.5" y="-334" font-family="Helvetica,sans-Serif" font-size="10.00">Tmc9660Handler::EnableDriver</text>
<text text-anchor="middle" x="334" y="-323" font-family="Helvetica,sans-Serif" font-size="10.00">Output</text>
</a>
</g>
</g>
<!-- Node1&#45;&gt;Node3 -->
<g id="edge2_Node000001_Node000003" class="edge">
<title>Node1&#45;&gt;Node3</title>
<g id="a_edge2_Node000001_Node000003"><a xlink:title=" ">
<path fill="none" stroke="#63b8ff" d="M540.31,-214.87C521.09,-239.56 482.96,-283.69 440,-307 433.26,-310.66 425.99,-313.76 418.52,-316.39"/>
<polygon fill="#63b8ff" stroke="#63b8ff" points="543.23,-216.81 546.51,-206.73 537.66,-212.57 543.23,-216.81"/>
</a>
</g>
</g>
<!-- Node4 -->
<g id="Node000004" class="node">
<title>Node4</title>
<g id="a_Node000004"><a xlink:href="classTmc9660Handler.html#af1d05fe540ad2fb17002eb4ea5b5f266" target="_top" xlink:title="Command the TMC9660 to leave parameter mode and enter bootloader mode.">
<polygon fill="white" stroke="#666666" points="440,-297.5 228,-297.5 228,-278.5 440,-278.5 440,-297.5"/>
<text text-anchor="middle" x="334" y="-285.5" font-family="Helvetica,sans-Serif" font-size="10.00">Tmc9660Handler::EnterBootloaderMode</text>
</a>
</g>
</g>
<!-- Node1&#45;&gt;Node4 -->
<g id="edge3_Node000001_Node000004" class="edge">
<title>Node1&#45;&gt;Node4</title>
<g id="a_edge3_Node000001_Node000004"><a xlink:title=" ">
<path fill="none" stroke="#63b8ff" d="M533.66,-212.98C511.97,-229.61 475.54,-255.13 440,-269 429.99,-272.91 419.13,-276.02 408.31,-278.5"/>
<polygon fill="#63b8ff" stroke="#63b8ff" points="536.02,-215.58 541.75,-206.67 531.72,-210.06 536.02,-215.58"/>
</a>
</g>
</g>
<!-- Node5 -->
<g id="Node000005" class="node">
<title>Node5</title>
<g id="a_Node000005"><a xlink:href="classTmc9660Handler.html#ac3a19e67fd802fdcbea05a056ec797e5" target="_top" xlink:title="Read the actual (measured) motor position.">
<polygon fill="white" stroke="#666666" points="411,-260 257,-260 257,-230 411,-230 411,-260"/>
<text text-anchor="start" x="265" y="-248" font-family="Helvetica,sans-Serif" font-size="10.00">Tmc9660Handler::GetActual</text>
<text text-anchor="middle" x="334" y="-237" font-family="Helvetica,sans-Serif" font-size="10.00">Position</text>
</a>
</g>
</g>
<!-- Node1&#45;&gt;Node5 -->
<g id="edge4_Node000001_Node000005" class="edge">
<title>Node1&#45;&gt;Node5</title>
<g id="a_edge4_Node000001_Node000005"><a xlink:title=" ">
<path fill="none" stroke="#63b8ff" d="M500.08,-208.74C470.92,-215.14 434.5,-223.14 403.3,-230"/>
<polygon fill="#63b8ff" stroke="#63b8ff" points="501.05,-212.1 510.07,-206.54 499.55,-205.27 501.05,-212.1"/>
</a>
</g>
</g>
<!-- Node6 -->
<g id="Node000006" class="node">
<title>Node6</title>
<g id="a_Node000006"><a xlink:href="classTmc9660Handler.html#a4c49d0ada65dbdfa8e2888de6dd33d9a" target="_top" xlink:title="Read the actual (measured) motor velocity.">
<polygon fill="white" stroke="#666666" points="411,-212 257,-212 257,-182 411,-182 411,-212"/>
<text text-anchor="start" x="265" y="-200" font-family="Helvetica,sans-Serif" font-size="10.00">Tmc9660Handler::GetActual</text>
<text text-anchor="middle" x="334" y="-189" font-family="Helvetica,sans-Serif" font-size="10.00">Velocity</text>
</a>
</g>
</g>
<!-- Node1&#45;&gt;Node6 -->
<g id="edge5_Node000001_Node000006" class="edge">
<title>Node1&#45;&gt;Node6</title>
<g id="a_edge5_Node000001_Node000006"><a xlink:title=" ">
<path fill="none" stroke="#63b8ff" d="M465.66,-197C447.66,-197 428.85,-197 411.3,-197"/>
<polygon fill="#63b8ff" stroke="#63b8ff" points="465.85,-200.5 475.85,-197 465.85,-193.5 465.85,-200.5"/>
</a>
</g>
</g>
<!-- Node7 -->
<g id="Node000007" class="node">
<title>Node7</title>
<g id="a_Node000007"><a xlink:href="classTmc9660Handler.html#ac7549efc59aeedcc3c29e39f13a529fa" target="_top" xlink:title="Read the TMC9660 internal chip temperature.">
<polygon fill="white" stroke="#666666" points="437,-163.5 231,-163.5 231,-144.5 437,-144.5 437,-163.5"/>
<text text-anchor="middle" x="334" y="-151.5" font-family="Helvetica,sans-Serif" font-size="10.00">Tmc9660Handler::GetChipTemperature</text>
</a>
</g>
</g>
<!-- Node1&#45;&gt;Node7 -->
<g id="edge6_Node000001_Node000007" class="edge">
<title>Node1&#45;&gt;Node7</title>
<g id="a_edge6_Node000001_Node000007"><a xlink:title=" ">
<path fill="none" stroke="#63b8ff" d="M499.97,-185.34C481.05,-181.31 459.6,-176.84 440,-173 423.55,-169.77 405.61,-166.45 389.28,-163.51"/>
<polygon fill="#63b8ff" stroke="#63b8ff" points="499.39,-188.8 509.9,-187.47 500.86,-181.95 499.39,-188.8"/>
</a>
</g>
</g>
<!-- Node9 -->
<g id="Node000009" class="node">
<title>Node9</title>
<g id="a_Node000009"><a xlink:href="classTmc9660Handler.html#a3049dd3b79c6d340eb7b8a81604f0406" target="_top" xlink:title="Read the external temperature sensor raw value.">
<polygon fill="white" stroke="#666666" points="416,-126 252,-126 252,-96 416,-96 416,-126"/>
<text text-anchor="start" x="260" y="-114" font-family="Helvetica,sans-Serif" font-size="10.00">Tmc9660Handler::GetExternal</text>
<text text-anchor="middle" x="334" y="-103" font-family="Helvetica,sans-Serif" font-size="10.00">Temperature</text>
</a>
</g>
</g>
<!-- Node1&#45;&gt;Node9 -->
<g id="edge8_Node000001_Node000009" class="edge">
<title>Node1&#45;&gt;Node9</title>
<g id="a_edge8_Node000001_Node000009"><a xlink:title=" ">
<path fill="none" stroke="#63b8ff" d="M529.9,-181.96C507.52,-168.28 472.57,-148.39 440,-136 430.1,-132.24 419.46,-128.92 408.88,-126.03"/>
<polygon fill="#63b8ff" stroke="#63b8ff" points="528.33,-185.11 538.68,-187.4 532.02,-179.16 528.33,-185.11"/>
</a>
</g>
</g>
<!-- Node10 -->
<g id="Node000010" class="node">
<title>Node10</title>
<g id="a_Node000010"><a xlink:href="classTmc9660Handler.html#a097e8a8930006294be7fc11ecccb48fd" target="_top" xlink:title="Read the instantaneous motor phase current.">
<polygon fill="white" stroke="#666666" points="410,-78 258,-78 258,-48 410,-48 410,-78"/>
<text text-anchor="start" x="266" y="-66" font-family="Helvetica,sans-Serif" font-size="10.00">Tmc9660Handler::GetMotor</text>
<text text-anchor="middle" x="334" y="-55" font-family="Helvetica,sans-Serif" font-size="10.00">Current</text>
</a>
</g>
</g>
<!-- Node1&#45;&gt;Node10 -->
<g id="edge9_Node000001_Node000010" class="edge">
<title>Node1&#45;&gt;Node10</title>
<g id="a_edge9_Node000001_Node000010"><a xlink:title=" ">
<path fill="none" stroke="#63b8ff" d="M540.31,-179.13C521.09,-154.44 482.96,-110.31 440,-87 430.8,-82.01 420.59,-78.05 410.27,-74.91"/>
<polygon fill="#63b8ff" stroke="#63b8ff" points="537.66,-181.43 546.51,-187.27 543.23,-177.19 537.66,-181.43"/>
</a>
</g>
</g>
<!-- Node11 -->
<g id="Node000011" class="node">
<title>Node11</title>
<g id="a_Node000011"><a xlink:href="classTmc9660Handler.html#a3d6437320844ff3ffe77eada12ad7ea7" target="_top" xlink:title="Read the motor supply voltage.">
<polygon fill="white" stroke="#666666" points="412,-30 256,-30 256,0 412,0 412,-30"/>
<text text-anchor="start" x="264" y="-18" font-family="Helvetica,sans-Serif" font-size="10.00">Tmc9660Handler::GetSupply</text>
<text text-anchor="middle" x="334" y="-7" font-family="Helvetica,sans-Serif" font-size="10.00">Voltage</text>
</a>
</g>
</g>
<!-- Node1&#45;&gt;Node11 -->
<g id="edge10_Node000001_Node000011" class="edge">
<title>Node1&#45;&gt;Node11</title>
<g id="a_edge10_Node000001_Node000011"><a xlink:title=" ">
<path fill="none" stroke="#63b8ff" d="M545.49,-178.15C530.2,-144.57 493.54,-74.56 440,-39 431.59,-33.41 422.05,-29.12 412.24,-25.81"/>
<polygon fill="#63b8ff" stroke="#63b8ff" points="542.3,-179.6 549.55,-187.33 548.71,-176.77 542.3,-179.6"/>
</a>
</g>
</g>
<!-- Node8 -->
<g id="Node000008" class="node">
<title>Node8</title>
<g id="a_Node000008"><a xlink:href="classTmc9660Handler.html#adee8a764564554f060b879752048bf74" target="_top" xlink:title="Dump comprehensive diagnostics to the system log.">
<polygon fill="white" stroke="#666666" points="192,-93.5 0,-93.5 0,-74.5 192,-74.5 192,-93.5"/>
<text text-anchor="middle" x="96" y="-81.5" font-family="Helvetica,sans-Serif" font-size="10.00">Tmc9660Handler::DumpDiagnostics</text>
</a>
</g>
</g>
<!-- Node7&#45;&gt;Node8 -->
<g id="edge7_Node000007_Node000008" class="edge">
<title>Node7&#45;&gt;Node8</title>
<g id="a_edge7_Node000007_Node000008"><a xlink:title=" ">
<path fill="none" stroke="#63b8ff" d="M259.2,-142.5C248.65,-140.32 238,-137.82 228,-135 188.07,-123.73 143.4,-104.94 117.9,-93.58"/>
<polygon fill="#63b8ff" stroke="#63b8ff" points="258.76,-145.98 269.25,-144.49 260.12,-139.11 258.76,-145.98"/>
</a>
</g>
</g>
<!-- Node11&#45;&gt;Node8 -->
<g id="edge11_Node000011_Node000008" class="edge">
<title>Node11&#45;&gt;Node8</title>
<g id="a_edge11_Node000011_Node000008"><a xlink:title=" ">
<path fill="none" stroke="#63b8ff" d="M252.63,-32.45C244.28,-34.53 235.95,-36.73 228,-39 190.77,-49.62 148.55,-64.68 122.35,-74.39"/>
<polygon fill="#63b8ff" stroke="#63b8ff" points="253.54,-35.83 262.42,-30.05 251.87,-29.03 253.54,-35.83"/>
</a>
</g>
</g>
</g>
</svg>
