<?xml version="1.0" encoding="UTF-8" standalone="no"?>
<!DOCTYPE svg PUBLIC "-//W3C//DTD SVG 1.1//EN"
 "http://www.w3.org/Graphics/SVG/1.1/DTD/svg11.dtd">
<!-- Generated by graphviz version 2.43.0 (0)
 -->
<!-- Title: Ws2812Handler::Deinitialize Pages: 1 -->
<svg width="478pt" height="82pt"
 viewBox="0.00 0.00 478.00 82.00" xmlns="http://www.w3.org/2000/svg" xmlns:xlink="http://www.w3.org/1999/xlink">
<g id="graph0" class="graph" transform="scale(1 1) rotate(0) translate(4 78)">
<title>Ws2812Handler::Deinitialize</title>
<!-- Node1 -->
<g id="Node000001" class="node">
<title>Node1</title>
<g id="a_Node000001"><a xlink:title="Deinitialize and release RMT resources.">
<polygon fill="#999999" stroke="#666666" points="155,-55 0,-55 0,-36 155,-36 155,-55"/>
<text text-anchor="middle" x="77.5" y="-43" font-family="Helvetica,sans-Serif" font-size="10.00">Ws2812Handler::Deinitialize</text>
</a>
</g>
</g>
<!-- Node2 -->
<g id="Node000002" class="node">
<title>Node2</title>
<g id="a_Node000002"><a xlink:href="classLogger.html#a5789d11f8f1356e2192c0023a089cbc4" target="_top" xlink:title="Get singleton instance.">
<polygon fill="white" stroke="#666666" points="305,-74 191,-74 191,-55 305,-55 305,-74"/>
<text text-anchor="middle" x="248" y="-62" font-family="Helvetica,sans-Serif" font-size="10.00">Logger::GetInstance</text>
</a>
</g>
</g>
<!-- Node1&#45;&gt;Node2 -->
<g id="edge1_Node000001_Node000002" class="edge">
<title>Node1&#45;&gt;Node2</title>
<g id="a_edge1_Node000001_Node000002"><a xlink:title=" ">
<path fill="none" stroke="#63b8ff" d="M155.35,-54.17C163.87,-55.13 172.49,-56.1 180.85,-57.04"/>
<polygon fill="#63b8ff" stroke="#63b8ff" points="180.58,-60.53 190.91,-58.18 181.37,-53.58 180.58,-60.53"/>
</a>
</g>
</g>
<!-- Node3 -->
<g id="Node000003" class="node">
<title>Node3</title>
<g id="a_Node000003"><a xlink:href="classLogger.html#a1c0c947d87884bca0395fd38d19d1102" target="_top" xlink:title="Log info message.">
<polygon fill="white" stroke="#666666" points="285,-37 211,-37 211,-18 285,-18 285,-37"/>
<text text-anchor="middle" x="248" y="-25" font-family="Helvetica,sans-Serif" font-size="10.00">Logger::Info</text>
</a>
</g>
</g>
<!-- Node1&#45;&gt;Node3 -->
<g id="edge2_Node000001_Node000003" class="edge">
<title>Node1&#45;&gt;Node3</title>
<g id="a_edge2_Node000001_Node000003"><a xlink:title=" ">
<path fill="none" stroke="#63b8ff" d="M155.35,-37.29C170.71,-35.65 186.39,-33.97 200.35,-32.48"/>
<polygon fill="#63b8ff" stroke="#63b8ff" points="201.08,-35.93 210.65,-31.38 200.33,-28.97 201.08,-35.93"/>
</a>
</g>
</g>
<!-- Node4 -->
<g id="Node000004" class="node">
<title>Node4</title>
<g id="a_Node000004"><a xlink:href="classLogger.html#a737b981213c02321a5235848334d7191" target="_top" xlink:title="Check if log level is enabled for tag.">
<polygon fill="white" stroke="#666666" points="470,-56 341,-56 341,-37 470,-37 470,-56"/>
<text text-anchor="middle" x="405.5" y="-44" font-family="Helvetica,sans-Serif" font-size="10.00">Logger::IsLevelEnabled</text>
</a>
</g>
</g>
<!-- Node3&#45;&gt;Node4 -->
<g id="edge3_Node000003_Node000004" class="edge">
<title>Node3&#45;&gt;Node4</title>
<g id="a_edge3_Node000003_Node000004"><a xlink:title=" ">
<path fill="none" stroke="#63b8ff" d="M285.07,-31.91C298.68,-33.57 314.72,-35.53 330.55,-37.46"/>
<polygon fill="#63b8ff" stroke="#63b8ff" points="330.54,-40.99 340.89,-38.73 331.39,-34.04 330.54,-40.99"/>
</a>
</g>
</g>
<!-- Node5 -->
<g id="Node000005" class="node">
<title>Node5</title>
<g id="a_Node000005"><a xlink:href="classLogger.html#aeede6ac18db92a47caede076ef188a13" target="_top" xlink:title="Internal logging method.">
<polygon fill="white" stroke="#666666" points="460.5,-19 350.5,-19 350.5,0 460.5,0 460.5,-19"/>
<text text-anchor="middle" x="405.5" y="-7" font-family="Helvetica,sans-Serif" font-size="10.00">Logger::LogInternal</text>
</a>
</g>
</g>
<!-- Node3&#45;&gt;Node5 -->
<g id="edge4_Node000003_Node000005" class="edge">
<title>Node3&#45;&gt;Node5</title>
<g id="a_edge4_Node000003_Node000005"><a xlink:title=" ">
<path fill="none" stroke="#63b8ff" d="M285.07,-23.33C301.49,-21.42 321.44,-19.11 340.3,-16.93"/>
<polygon fill="#63b8ff" stroke="#63b8ff" points="340.8,-20.4 350.33,-15.77 340,-13.44 340.8,-20.4"/>
</a>
</g>
</g>
</g>
</svg>
