<?xml version="1.0" encoding="UTF-8" standalone="no"?>
<!DOCTYPE svg PUBLIC "-//W3C//DTD SVG 1.1//EN"
 "http://www.w3.org/Graphics/SVG/1.1/DTD/svg11.dtd">
<!-- Generated by graphviz version 2.43.0 (0)
 -->
<!-- Title: Tmc9660Handler::gpio Pages: 1 -->
<svg width="1060pt" height="114pt"
 viewBox="0.00 0.00 1060.00 114.00" xmlns="http://www.w3.org/2000/svg" xmlns:xlink="http://www.w3.org/1999/xlink">
<g id="graph0" class="graph" transform="scale(1 1) rotate(0) translate(4 110)">
<title>Tmc9660Handler::gpio</title>
<!-- Node1 -->
<g id="Node000001" class="node">
<title>Node1</title>
<g id="a_Node000001"><a xlink:title="Get a reference to the GPIO wrapper for a TMC9660 internal GPIO pin.">
<polygon fill="#999999" stroke="#666666" points="127,-47 0,-47 0,-28 127,-28 127,-47"/>
<text text-anchor="middle" x="63.5" y="-35" font-family="Helvetica,sans-Serif" font-size="10.00">Tmc9660Handler::gpio</text>
</a>
</g>
</g>
<!-- Node2 -->
<g id="Node000002" class="node">
<title>Node2</title>
<g id="a_Node000002"><a xlink:href="classTmc9660Handler.html#a5a279ae9d4b5a8e0d71cb24577ad88ea" target="_top" xlink:title="Ensure driver is initialized (lazy init entrypoint).">
<polygon fill="white" stroke="#666666" points="553,-47 366,-47 366,-28 553,-28 553,-47"/>
<text text-anchor="middle" x="459.5" y="-35" font-family="Helvetica,sans-Serif" font-size="10.00">Tmc9660Handler::EnsureInitialized</text>
</a>
</g>
</g>
<!-- Node1&#45;&gt;Node2 -->
<g id="edge1_Node000001_Node000002" class="edge">
<title>Node1&#45;&gt;Node2</title>
<g id="a_edge1_Node000001_Node000002"><a xlink:title=" ">
<path fill="none" stroke="#63b8ff" d="M127.23,-44.09C139.1,-45.1 151.42,-45.97 163,-46.5 237.15,-49.88 255.82,-49.09 330,-46.5 338.35,-46.21 347.01,-45.81 355.69,-45.34"/>
<polygon fill="#63b8ff" stroke="#63b8ff" points="356.11,-48.82 365.89,-44.76 355.71,-41.83 356.11,-48.82"/>
</a>
</g>
</g>
<!-- Node10 -->
<g id="Node000010" class="node">
<title>Node10</title>
<g id="a_Node000010"><a xlink:href="classTmc9660Handler.html#a393382194d0602e7aa02da6a8fd7a20a" target="_top" xlink:title="Get a reference to the Temperature wrapper.">
<polygon fill="white" stroke="#666666" points="330,-19 163,-19 163,0 330,0 330,-19"/>
<text text-anchor="middle" x="246.5" y="-7" font-family="Helvetica,sans-Serif" font-size="10.00">Tmc9660Handler::temperature</text>
</a>
</g>
</g>
<!-- Node1&#45;&gt;Node10 -->
<g id="edge11_Node000001_Node000010" class="edge">
<title>Node1&#45;&gt;Node10</title>
<g id="a_edge11_Node000001_Node000010"><a xlink:title=" ">
<path fill="none" stroke="#63b8ff" d="M126.03,-27.98C141.33,-25.61 157.87,-23.06 173.62,-20.62"/>
<polygon fill="#63b8ff" stroke="#63b8ff" points="174.48,-24.03 183.83,-19.04 173.41,-17.11 174.48,-24.03"/>
</a>
</g>
</g>
<!-- Node3 -->
<g id="Node000003" class="node">
<title>Node3</title>
<g id="a_Node000003"><a xlink:href="classTmc9660Handler.html#adc564847f8ae26c47412aaee0758991c" target="_top" xlink:title="Initialize the TMC9660 device.">
<polygon fill="white" stroke="#666666" points="737,-69 589,-69 589,-50 737,-50 737,-69"/>
<text text-anchor="middle" x="663" y="-57" font-family="Helvetica,sans-Serif" font-size="10.00">Tmc9660Handler::Initialize</text>
</a>
</g>
</g>
<!-- Node2&#45;&gt;Node3 -->
<g id="edge2_Node000002_Node000003" class="edge">
<title>Node2&#45;&gt;Node3</title>
<g id="a_edge2_Node000002_Node000003"><a xlink:title=" ">
<path fill="none" stroke="#63b8ff" d="M547.71,-47.02C558,-48.15 568.48,-49.29 578.72,-50.41"/>
<polygon fill="#63b8ff" stroke="#63b8ff" points="578.53,-53.91 588.85,-51.51 579.29,-46.95 578.53,-53.91"/>
</a>
</g>
</g>
<!-- Node9 -->
<g id="Node000009" class="node">
<title>Node9</title>
<g id="a_Node000009"><a xlink:href="classTmc9660Handler.html#a13db97d201a287d8aa60384e04070b9f" target="_top" xlink:title="Check if the TMC9660 driver has been initialized and is ready.">
<polygon fill="white" stroke="#666666" points="735,-31.5 591,-31.5 591,-1.5 735,-1.5 735,-31.5"/>
<text text-anchor="start" x="599" y="-19.5" font-family="Helvetica,sans-Serif" font-size="10.00">Tmc9660Handler::IsDriver</text>
<text text-anchor="middle" x="663" y="-8.5" font-family="Helvetica,sans-Serif" font-size="10.00">Ready</text>
</a>
</g>
</g>
<!-- Node2&#45;&gt;Node9 -->
<g id="edge10_Node000002_Node000009" class="edge">
<title>Node2&#45;&gt;Node9</title>
<g id="a_edge10_Node000002_Node000009"><a xlink:title=" ">
<path fill="none" stroke="#63b8ff" d="M551.82,-27.98C561.45,-26.98 571.2,-25.96 580.71,-24.97"/>
<polygon fill="#63b8ff" stroke="#63b8ff" points="581.34,-28.43 590.92,-23.91 580.61,-21.46 581.34,-28.43"/>
</a>
</g>
</g>
<!-- Node4 -->
<g id="Node000004" class="node">
<title>Node4</title>
<g id="a_Node000004"><a xlink:href="classLogger.html#adce17848a5844e053bfd314863dc1404" target="_top" xlink:title="Log error message.">
<polygon fill="white" stroke="#666666" points="869.5,-69 790.5,-69 790.5,-50 869.5,-50 869.5,-69"/>
<text text-anchor="middle" x="830" y="-57" font-family="Helvetica,sans-Serif" font-size="10.00">Logger::Error</text>
</a>
</g>
</g>
<!-- Node3&#45;&gt;Node4 -->
<g id="edge3_Node000003_Node000004" class="edge">
<title>Node3&#45;&gt;Node4</title>
<g id="a_edge3_Node000003_Node000004"><a xlink:title=" ">
<path fill="none" stroke="#63b8ff" d="M737.33,-59.5C751.73,-59.5 766.5,-59.5 779.87,-59.5"/>
<polygon fill="#63b8ff" stroke="#63b8ff" points="780.26,-63 790.26,-59.5 780.26,-56 780.26,-63"/>
</a>
</g>
</g>
<!-- Node7 -->
<g id="Node000007" class="node">
<title>Node7</title>
<g id="a_Node000007"><a xlink:href="classLogger.html#a5789d11f8f1356e2192c0023a089cbc4" target="_top" xlink:title="Get singleton instance.">
<polygon fill="white" stroke="#666666" points="887,-32 773,-32 773,-13 887,-13 887,-32"/>
<text text-anchor="middle" x="830" y="-20" font-family="Helvetica,sans-Serif" font-size="10.00">Logger::GetInstance</text>
</a>
</g>
</g>
<!-- Node3&#45;&gt;Node7 -->
<g id="edge6_Node000003_Node000007" class="edge">
<title>Node3&#45;&gt;Node7</title>
<g id="a_edge6_Node000003_Node000007"><a xlink:title=" ">
<path fill="none" stroke="#63b8ff" d="M706.49,-49.97C727.87,-45.18 753.97,-39.32 776.58,-34.25"/>
<polygon fill="#63b8ff" stroke="#63b8ff" points="777.37,-37.66 786.37,-32.06 775.84,-30.83 777.37,-37.66"/>
</a>
</g>
</g>
<!-- Node8 -->
<g id="Node000008" class="node">
<title>Node8</title>
<g id="a_Node000008"><a xlink:href="classLogger.html#a4681229c521795685fc14f6b55c82300" target="_top" xlink:title="Log info message.">
<polygon fill="white" stroke="#666666" points="867,-106 793,-106 793,-87 867,-87 867,-106"/>
<text text-anchor="middle" x="830" y="-94" font-family="Helvetica,sans-Serif" font-size="10.00">Logger::Info</text>
</a>
</g>
</g>
<!-- Node3&#45;&gt;Node8 -->
<g id="edge7_Node000003_Node000008" class="edge">
<title>Node3&#45;&gt;Node8</title>
<g id="a_edge7_Node000003_Node000008"><a xlink:title=" ">
<path fill="none" stroke="#63b8ff" d="M706.49,-69.03C729.89,-74.27 758.94,-80.79 782.89,-86.16"/>
<polygon fill="#63b8ff" stroke="#63b8ff" points="782.28,-89.61 792.8,-88.38 783.81,-82.78 782.28,-89.61"/>
</a>
</g>
</g>
<!-- Node5 -->
<g id="Node000005" class="node">
<title>Node5</title>
<g id="a_Node000005"><a xlink:href="classLogger.html#af9e84e0ff6bd538e4f9ed8dcebc3e2f0" target="_top" xlink:title="Check if log level is enabled for tag.">
<polygon fill="white" stroke="#666666" points="1052,-106 923,-106 923,-87 1052,-87 1052,-106"/>
<text text-anchor="middle" x="987.5" y="-94" font-family="Helvetica,sans-Serif" font-size="10.00">Logger::IsLevelEnabled</text>
</a>
</g>
</g>
<!-- Node4&#45;&gt;Node5 -->
<g id="edge4_Node000004_Node000005" class="edge">
<title>Node4&#45;&gt;Node5</title>
<g id="a_edge4_Node000004_Node000005"><a xlink:title=" ">
<path fill="none" stroke="#63b8ff" d="M869.84,-68.74C890.03,-73.55 914.94,-79.47 936.55,-84.61"/>
<polygon fill="#63b8ff" stroke="#63b8ff" points="936,-88.08 946.53,-86.99 937.62,-81.27 936,-88.08"/>
</a>
</g>
</g>
<!-- Node6 -->
<g id="Node000006" class="node">
<title>Node6</title>
<g id="a_Node000006"><a xlink:href="classLogger.html#a6adb205db597526fb91ad20067400394" target="_top" xlink:title="Internal logging method.">
<polygon fill="white" stroke="#666666" points="1042.5,-69 932.5,-69 932.5,-50 1042.5,-50 1042.5,-69"/>
<text text-anchor="middle" x="987.5" y="-57" font-family="Helvetica,sans-Serif" font-size="10.00">Logger::LogInternal</text>
</a>
</g>
</g>
<!-- Node4&#45;&gt;Node6 -->
<g id="edge5_Node000004_Node000006" class="edge">
<title>Node4&#45;&gt;Node6</title>
<g id="a_edge5_Node000004_Node000006"><a xlink:title=" ">
<path fill="none" stroke="#63b8ff" d="M869.84,-59.5C885.63,-59.5 904.31,-59.5 922.03,-59.5"/>
<polygon fill="#63b8ff" stroke="#63b8ff" points="922.33,-63 932.33,-59.5 922.33,-56 922.33,-63"/>
</a>
</g>
</g>
<!-- Node8&#45;&gt;Node5 -->
<g id="edge8_Node000008_Node000005" class="edge">
<title>Node8&#45;&gt;Node5</title>
<g id="a_edge8_Node000008_Node000005"><a xlink:title=" ">
<path fill="none" stroke="#63b8ff" d="M867.07,-96.5C880.68,-96.5 896.72,-96.5 912.55,-96.5"/>
<polygon fill="#63b8ff" stroke="#63b8ff" points="912.89,-100 922.89,-96.5 912.89,-93 912.89,-100"/>
</a>
</g>
</g>
<!-- Node8&#45;&gt;Node6 -->
<g id="edge9_Node000008_Node000006" class="edge">
<title>Node8&#45;&gt;Node6</title>
<g id="a_edge9_Node000008_Node000006"><a xlink:title=" ">
<path fill="none" stroke="#63b8ff" d="M867.07,-87.92C887.78,-82.99 914.09,-76.73 936.74,-71.34"/>
<polygon fill="#63b8ff" stroke="#63b8ff" points="937.61,-74.73 946.53,-69.01 935.99,-67.92 937.61,-74.73"/>
</a>
</g>
</g>
<!-- Node10&#45;&gt;Node2 -->
<g id="edge12_Node000010_Node000002" class="edge">
<title>Node10&#45;&gt;Node2</title>
<g id="a_edge12_Node000010_Node000002"><a xlink:title=" ">
<path fill="none" stroke="#63b8ff" d="M319.23,-19.02C337.66,-21.46 357.63,-24.11 376.54,-26.62"/>
<polygon fill="#63b8ff" stroke="#63b8ff" points="376.24,-30.11 386.61,-27.96 377.16,-23.18 376.24,-30.11"/>
</a>
</g>
</g>
<!-- Node10&#45;&gt;Node10 -->
<g id="edge13_Node000010_Node000010" class="edge">
<title>Node10&#45;&gt;Node10</title>
<g id="a_edge13_Node000010_Node000010"><a xlink:title=" ">
<path fill="none" stroke="#63b8ff" d="M218.45,-19.08C204.8,-27.73 214.15,-37 246.5,-37 268.74,-37 280.11,-32.62 280.61,-27.07"/>
<polygon fill="#63b8ff" stroke="#63b8ff" points="283.38,-24.94 274.55,-19.08 277.8,-29.17 283.38,-24.94"/>
</a>
</g>
</g>
</g>
</svg>
