<?xml version="1.0" encoding="UTF-8" standalone="no"?>
<!DOCTYPE svg PUBLIC "-//W3C//DTD SVG 1.1//EN"
 "http://www.w3.org/Graphics/SVG/1.1/DTD/svg11.dtd">
<!-- Generated by graphviz version 2.43.0 (0)
 -->
<!-- Title: NtcTemperatureHandler::~NtcTemperatureHandler Pages: 1 -->
<svg width="708pt" height="113pt"
 viewBox="0.00 0.00 708.00 112.50" xmlns="http://www.w3.org/2000/svg" xmlns:xlink="http://www.w3.org/1999/xlink">
<g id="graph0" class="graph" transform="scale(1 1) rotate(0) translate(4 108.5)">
<title>NtcTemperatureHandler::~NtcTemperatureHandler</title>
<!-- Node1 -->
<g id="Node000001" class="node">
<title>Node1</title>
<g id="a_Node000001"><a xlink:title="Virtual destructor &#45; cleans up timer and thermistor resources.">
<polygon fill="#999999" stroke="#666666" points="147,-51 0,-51 0,-21 147,-21 147,-51"/>
<text text-anchor="start" x="8" y="-39" font-family="Helvetica,sans-Serif" font-size="10.00">NtcTemperatureHandler</text>
<text text-anchor="middle" x="73.5" y="-28" font-family="Helvetica,sans-Serif" font-size="10.00">::~NtcTemperatureHandler</text>
</a>
</g>
</g>
<!-- Node2 -->
<g id="Node000002" class="node">
<title>Node2</title>
<g id="a_Node000002"><a xlink:href="classNtcTemperatureHandler.html#a7cd3aa59989bec0514d6717d345d8466" target="_top" xlink:title=" ">
<polygon fill="white" stroke="#666666" points="335,-73 183,-73 183,-43 335,-43 335,-73"/>
<text text-anchor="start" x="191" y="-61" font-family="Helvetica,sans-Serif" font-size="10.00">NtcTemperatureHandler</text>
<text text-anchor="middle" x="259" y="-50" font-family="Helvetica,sans-Serif" font-size="10.00">::StopContinuousMonitoring</text>
</a>
</g>
</g>
<!-- Node1&#45;&gt;Node2 -->
<g id="edge1_Node000001_Node000002" class="edge">
<title>Node1&#45;&gt;Node2</title>
<g id="a_edge1_Node000001_Node000002"><a xlink:title=" ">
<path fill="none" stroke="#63b8ff" d="M147.02,-44.69C155.52,-45.71 164.25,-46.76 172.89,-47.8"/>
<polygon fill="#63b8ff" stroke="#63b8ff" points="172.65,-51.29 182.99,-49.01 173.48,-44.34 172.65,-51.29"/>
</a>
</g>
</g>
<!-- Node7 -->
<g id="Node000007" class="node">
<title>Node7</title>
<g id="a_Node000007"><a xlink:href="classNtcTemperatureHandler.html#a0b3fba99650d0b01b1347eae0c86abba" target="_top" xlink:title=" ">
<polygon fill="white" stroke="#666666" points="535,-30 371,-30 371,0 535,0 535,-30"/>
<text text-anchor="start" x="379" y="-18" font-family="Helvetica,sans-Serif" font-size="10.00">NtcTemperatureHandler</text>
<text text-anchor="middle" x="453" y="-7" font-family="Helvetica,sans-Serif" font-size="10.00">::UnregisterMonitoringContext</text>
</a>
</g>
</g>
<!-- Node1&#45;&gt;Node7 -->
<g id="edge7_Node000001_Node000007" class="edge">
<title>Node1&#45;&gt;Node7</title>
<g id="a_edge7_Node000001_Node000007"><a xlink:title=" ">
<path fill="none" stroke="#63b8ff" d="M147.29,-31.95C208.09,-28.57 295.12,-23.73 360.61,-20.08"/>
<polygon fill="#63b8ff" stroke="#63b8ff" points="361.14,-23.56 370.93,-19.51 360.75,-16.57 361.14,-23.56"/>
</a>
</g>
</g>
<!-- Node3 -->
<g id="Node000003" class="node">
<title>Node3</title>
<g id="a_Node000003"><a xlink:href="classLogger.html#a5789d11f8f1356e2192c0023a089cbc4" target="_top" xlink:title="Get singleton instance.">
<polygon fill="white" stroke="#666666" points="510,-104.5 396,-104.5 396,-85.5 510,-85.5 510,-104.5"/>
<text text-anchor="middle" x="453" y="-92.5" font-family="Helvetica,sans-Serif" font-size="10.00">Logger::GetInstance</text>
</a>
</g>
</g>
<!-- Node2&#45;&gt;Node3 -->
<g id="edge2_Node000002_Node000003" class="edge">
<title>Node2&#45;&gt;Node3</title>
<g id="a_edge2_Node000002_Node000003"><a xlink:title=" ">
<path fill="none" stroke="#63b8ff" d="M335.06,-72.46C354.14,-76.14 374.38,-80.04 392.56,-83.55"/>
<polygon fill="#63b8ff" stroke="#63b8ff" points="391.95,-86.99 402.43,-85.45 393.27,-80.12 391.95,-86.99"/>
</a>
</g>
</g>
<!-- Node4 -->
<g id="Node000004" class="node">
<title>Node4</title>
<g id="a_Node000004"><a xlink:href="classLogger.html#a4681229c521795685fc14f6b55c82300" target="_top" xlink:title="Log info message.">
<polygon fill="white" stroke="#666666" points="490,-67.5 416,-67.5 416,-48.5 490,-48.5 490,-67.5"/>
<text text-anchor="middle" x="453" y="-55.5" font-family="Helvetica,sans-Serif" font-size="10.00">Logger::Info</text>
</a>
</g>
</g>
<!-- Node2&#45;&gt;Node4 -->
<g id="edge3_Node000002_Node000004" class="edge">
<title>Node2&#45;&gt;Node4</title>
<g id="a_edge3_Node000002_Node000004"><a xlink:title=" ">
<path fill="none" stroke="#63b8ff" d="M335.06,-58C358.92,-58 384.6,-58 405.79,-58"/>
<polygon fill="#63b8ff" stroke="#63b8ff" points="405.81,-61.5 415.81,-58 405.81,-54.5 405.81,-61.5"/>
</a>
</g>
</g>
<!-- Node2&#45;&gt;Node7 -->
<g id="edge6_Node000002_Node000007" class="edge">
<title>Node2&#45;&gt;Node7</title>
<g id="a_edge6_Node000002_Node000007"><a xlink:title=" ">
<path fill="none" stroke="#63b8ff" d="M327.15,-42.96C342.64,-39.49 359.24,-35.77 375.11,-32.22"/>
<polygon fill="#63b8ff" stroke="#63b8ff" points="375.89,-35.63 384.89,-30.03 374.36,-28.8 375.89,-35.63"/>
</a>
</g>
</g>
<!-- Node5 -->
<g id="Node000005" class="node">
<title>Node5</title>
<g id="a_Node000005"><a xlink:href="classLogger.html#af9e84e0ff6bd538e4f9ed8dcebc3e2f0" target="_top" xlink:title="Check if log level is enabled for tag.">
<polygon fill="white" stroke="#666666" points="700,-85.5 571,-85.5 571,-66.5 700,-66.5 700,-85.5"/>
<text text-anchor="middle" x="635.5" y="-73.5" font-family="Helvetica,sans-Serif" font-size="10.00">Logger::IsLevelEnabled</text>
</a>
</g>
</g>
<!-- Node4&#45;&gt;Node5 -->
<g id="edge4_Node000004_Node000005" class="edge">
<title>Node4&#45;&gt;Node5</title>
<g id="a_edge4_Node000004_Node000005"><a xlink:title=" ">
<path fill="none" stroke="#63b8ff" d="M490.09,-61.6C510.35,-63.62 536.38,-66.21 560.75,-68.64"/>
<polygon fill="#63b8ff" stroke="#63b8ff" points="560.41,-72.13 570.7,-69.64 561.1,-65.16 560.41,-72.13"/>
</a>
</g>
</g>
<!-- Node6 -->
<g id="Node000006" class="node">
<title>Node6</title>
<g id="a_Node000006"><a xlink:href="classLogger.html#a6adb205db597526fb91ad20067400394" target="_top" xlink:title="Internal logging method.">
<polygon fill="white" stroke="#666666" points="690.5,-48.5 580.5,-48.5 580.5,-29.5 690.5,-29.5 690.5,-48.5"/>
<text text-anchor="middle" x="635.5" y="-36.5" font-family="Helvetica,sans-Serif" font-size="10.00">Logger::LogInternal</text>
</a>
</g>
</g>
<!-- Node4&#45;&gt;Node6 -->
<g id="edge5_Node000004_Node000006" class="edge">
<title>Node4&#45;&gt;Node6</title>
<g id="a_edge5_Node000004_Node000006"><a xlink:title=" ">
<path fill="none" stroke="#63b8ff" d="M490.09,-54.2C512.99,-51.79 543.27,-48.6 570.18,-45.77"/>
<polygon fill="#63b8ff" stroke="#63b8ff" points="570.73,-49.23 580.31,-44.7 570,-42.27 570.73,-49.23"/>
</a>
</g>
</g>
</g>
</svg>
