<?xml version="1.0" encoding="UTF-8" standalone="no"?>
<!DOCTYPE svg PUBLIC "-//W3C//DTD SVG 1.1//EN"
 "http://www.w3.org/Graphics/SVG/1.1/DTD/svg11.dtd">
<!-- Generated by graphviz version 2.43.0 (0)
 -->
<!-- Title: Logger::Info Pages: 1 -->
<svg width="536pt" height="1637pt"
 viewBox="0.00 0.00 536.00 1636.50" xmlns="http://www.w3.org/2000/svg" xmlns:xlink="http://www.w3.org/1999/xlink">
<g id="graph0" class="graph" transform="scale(1 1) rotate(0) translate(4 1632.5)">
<title>Logger::Info</title>
<!-- Node1 -->
<g id="Node000001" class="node">
<title>Node1</title>
<g id="a_Node000001"><a xlink:title="Log info message.">
<polygon fill="#999999" stroke="#666666" points="528,-831 454,-831 454,-812 528,-812 528,-831"/>
<text text-anchor="middle" x="491" y="-819" font-family="Helvetica,sans-Serif" font-size="10.00">Logger::Info</text>
</a>
</g>
</g>
<!-- Node2 -->
<g id="Node000002" class="node">
<title>Node2</title>
<g id="a_Node000002"><a xlink:href="classNtcTemperatureHandler.html#ab9723f043883e044f077a2627b600fdb" target="_top" xlink:title="Calibrate the thermistor.">
<polygon fill="white" stroke="#666666" points="386,-1628.5 253,-1628.5 253,-1598.5 386,-1598.5 386,-1628.5"/>
<text text-anchor="start" x="261" y="-1616.5" font-family="Helvetica,sans-Serif" font-size="10.00">NtcTemperatureHandler</text>
<text text-anchor="middle" x="319.5" y="-1605.5" font-family="Helvetica,sans-Serif" font-size="10.00">::Calibrate</text>
</a>
</g>
</g>
<!-- Node1&#45;&gt;Node2 -->
<g id="edge1_Node000001_Node000002" class="edge">
<title>Node1&#45;&gt;Node2</title>
<g id="a_edge1_Node000001_Node000002"><a xlink:title=" ">
<path fill="none" stroke="#63b8ff" d="M489.49,-841.34C486.38,-956.04 468.35,-1531.09 418,-1589.5 409.75,-1599.07 398.35,-1605.15 386.25,-1608.94"/>
<polygon fill="#63b8ff" stroke="#63b8ff" points="493,-841.28 489.76,-831.19 486,-841.1 493,-841.28"/>
</a>
</g>
</g>
<!-- Node3 -->
<g id="Node000003" class="node">
<title>Node3</title>
<g id="a_Node000003"><a xlink:href="classMax22200Handler.html#a56aeb5c7e58aa51bbb45eb3b78387152" target="_top" xlink:title="Deinitialize — disable all channels, ACTIVE=0, ENABLE LOW.">
<polygon fill="white" stroke="#666666" points="403,-1580 236,-1580 236,-1561 403,-1561 403,-1580"/>
<text text-anchor="middle" x="319.5" y="-1568" font-family="Helvetica,sans-Serif" font-size="10.00">Max22200Handler::Deinitialize</text>
</a>
</g>
</g>
<!-- Node1&#45;&gt;Node3 -->
<g id="edge2_Node000001_Node000003" class="edge">
<title>Node1&#45;&gt;Node3</title>
<g id="a_edge2_Node000001_Node000003"><a xlink:title=" ">
<path fill="none" stroke="#63b8ff" d="M489.43,-841.43C486.07,-953.04 467.2,-1497.43 418,-1551.5 413.71,-1556.22 408.62,-1559.97 403.05,-1562.94"/>
<polygon fill="#63b8ff" stroke="#63b8ff" points="492.94,-841.35 489.73,-831.25 485.94,-841.14 492.94,-841.35"/>
</a>
</g>
</g>
<!-- Node5 -->
<g id="Node000005" class="node">
<title>Node5</title>
<g id="a_Node000005"><a xlink:href="classTle92466edHandler.html#a671266be309eb76e3dedeef3426ffdfe" target="_top" xlink:title="Deinitialize — disable channels and shut down.">
<polygon fill="white" stroke="#666666" points="378.5,-1542.5 260.5,-1542.5 260.5,-1512.5 378.5,-1512.5 378.5,-1542.5"/>
<text text-anchor="start" x="268.5" y="-1530.5" font-family="Helvetica,sans-Serif" font-size="10.00">Tle92466edHandler::</text>
<text text-anchor="middle" x="319.5" y="-1519.5" font-family="Helvetica,sans-Serif" font-size="10.00">Deinitialize</text>
</a>
</g>
</g>
<!-- Node1&#45;&gt;Node5 -->
<g id="edge4_Node000001_Node000005" class="edge">
<title>Node1&#45;&gt;Node5</title>
<g id="a_edge4_Node000001_Node000005"><a xlink:title=" ">
<path fill="none" stroke="#63b8ff" d="M489.24,-841.41C485,-948.4 462.74,-1452.21 418,-1503.5 407.97,-1514.99 393.41,-1521.44 378.58,-1524.93"/>
<polygon fill="#63b8ff" stroke="#63b8ff" points="492.74,-841.46 489.64,-831.33 485.75,-841.19 492.74,-841.46"/>
</a>
</g>
</g>
<!-- Node7 -->
<g id="Node000007" class="node">
<title>Node7</title>
<g id="a_Node000007"><a xlink:href="classTmc5160Handler.html#a262b31fb5ccbfe229766a9a4b3ce546b" target="_top" xlink:title="Deinitialize — disable motor and release resources.">
<polygon fill="white" stroke="#666666" points="400,-1494 239,-1494 239,-1475 400,-1475 400,-1494"/>
<text text-anchor="middle" x="319.5" y="-1482" font-family="Helvetica,sans-Serif" font-size="10.00">Tmc5160Handler::Deinitialize</text>
</a>
</g>
</g>
<!-- Node1&#45;&gt;Node7 -->
<g id="edge6_Node000001_Node000007" class="edge">
<title>Node1&#45;&gt;Node7</title>
<g id="a_edge6_Node000001_Node000007"><a xlink:title=" ">
<path fill="none" stroke="#63b8ff" d="M489.17,-841.34C484.68,-944.78 461.76,-1419.5 418,-1466.5 412.96,-1471.92 406.86,-1476.02 400.2,-1479.1"/>
<polygon fill="#63b8ff" stroke="#63b8ff" points="492.67,-841.45 489.6,-831.31 485.68,-841.15 492.67,-841.45"/>
</a>
</g>
</g>
<!-- Node9 -->
<g id="Node000009" class="node">
<title>Node9</title>
<g id="a_Node000009"><a xlink:href="classWs2812Handler.html#a608af1984272e2924da68109e7985c4e" target="_top" xlink:title="Deinitialize and release RMT resources.">
<polygon fill="white" stroke="#666666" points="397,-1457 242,-1457 242,-1438 397,-1438 397,-1457"/>
<text text-anchor="middle" x="319.5" y="-1445" font-family="Helvetica,sans-Serif" font-size="10.00">Ws2812Handler::Deinitialize</text>
</a>
</g>
</g>
<!-- Node1&#45;&gt;Node9 -->
<g id="edge8_Node000001_Node000009" class="edge">
<title>Node1&#45;&gt;Node9</title>
<g id="a_edge8_Node000001_Node000009"><a xlink:title=" ">
<path fill="none" stroke="#63b8ff" d="M488.96,-841.19C483.58,-939.98 457.58,-1378.76 418,-1423.5 412.22,-1430.03 404.99,-1434.92 397.08,-1438.57"/>
<polygon fill="#63b8ff" stroke="#63b8ff" points="492.46,-841.27 489.5,-831.1 485.47,-840.9 492.46,-841.27"/>
</a>
</g>
</g>
<!-- Node11 -->
<g id="Node000011" class="node">
<title>Node11</title>
<g id="a_Node000011"><a xlink:href="classNtcTemperatureHandler.html#a8c1949119402a748e1000e473e263703" target="_top" xlink:title=" ">
<polygon fill="white" stroke="#666666" points="159,-259.5 26,-259.5 26,-229.5 159,-229.5 159,-259.5"/>
<text text-anchor="start" x="34" y="-247.5" font-family="Helvetica,sans-Serif" font-size="10.00">NtcTemperatureHandler</text>
<text text-anchor="middle" x="92.5" y="-236.5" font-family="Helvetica,sans-Serif" font-size="10.00">::Deinitialize</text>
</a>
</g>
</g>
<!-- Node1&#45;&gt;Node11 -->
<g id="edge10_Node000001_Node000011" class="edge">
<title>Node1&#45;&gt;Node11</title>
<g id="a_edge10_Node000001_Node000011"><a xlink:title=" ">
<path fill="none" stroke="#63b8ff" d="M490.42,-801.83C491.85,-713.99 492.87,-358.58 418,-284.5 399.94,-266.63 248.49,-254.2 159.01,-248.33"/>
<polygon fill="#63b8ff" stroke="#63b8ff" points="486.92,-801.94 490.23,-812 493.91,-802.07 486.92,-801.94"/>
</a>
</g>
</g>
<!-- Node12 -->
<g id="Node000012" class="node">
<title>Node12</title>
<g id="a_Node000012"><a xlink:href="classNtcTemperatureHandler.html#a3991d34f48052ae90f6bfc1ad0d5c1cb" target="_top" xlink:title=" ">
<polygon fill="white" stroke="#666666" points="399.5,-1381.5 239.5,-1381.5 239.5,-1351.5 399.5,-1351.5 399.5,-1381.5"/>
<text text-anchor="start" x="247.5" y="-1369.5" font-family="Helvetica,sans-Serif" font-size="10.00">NtcTemperatureHandler</text>
<text text-anchor="middle" x="319.5" y="-1358.5" font-family="Helvetica,sans-Serif" font-size="10.00">::DisableThresholdMonitoring</text>
</a>
</g>
</g>
<!-- Node1&#45;&gt;Node12 -->
<g id="edge11_Node000001_Node000012" class="edge">
<title>Node1&#45;&gt;Node12</title>
<g id="a_edge11_Node000001_Node000012"><a xlink:title=" ">
<path fill="none" stroke="#63b8ff" d="M490.12,-841.19C490.21,-926.94 486.22,-1266.78 418,-1342.5 412.87,-1348.2 406.62,-1352.65 399.79,-1356.11"/>
<polygon fill="#63b8ff" stroke="#63b8ff" points="493.62,-841.02 490.08,-831.03 486.62,-841.04 493.62,-841.02"/>
</a>
</g>
</g>
<!-- Node13 -->
<g id="Node000013" class="node">
<title>Node13</title>
<g id="a_Node000013"><a xlink:href="classAs5047uHandler.html#a4b24bfde6fe7f29e66b61828f44d2dff" target="_top" xlink:title="Dump comprehensive diagnostics and statistics to log as INFO level. Logs AS5047U sensor status,...">
<polygon fill="white" stroke="#666666" points="414,-1333 225,-1333 225,-1314 414,-1314 414,-1333"/>
<text text-anchor="middle" x="319.5" y="-1321" font-family="Helvetica,sans-Serif" font-size="10.00">As5047uHandler::DumpDiagnostics</text>
</a>
</g>
</g>
<!-- Node1&#45;&gt;Node13 -->
<g id="edge12_Node000001_Node000013" class="edge">
<title>Node1&#45;&gt;Node13</title>
<g id="a_edge12_Node000001_Node000013"><a xlink:title=" ">
<path fill="none" stroke="#63b8ff" d="M489.99,-841.19C489.55,-923.35 483.52,-1237.65 418,-1305.5 414.89,-1308.72 411.41,-1311.47 407.66,-1313.82"/>
<polygon fill="#63b8ff" stroke="#63b8ff" points="493.49,-841.2 490.03,-831.19 486.49,-841.18 493.49,-841.2"/>
</a>
</g>
</g>
<!-- Node14 -->
<g id="Node000014" class="node">
<title>Node14</title>
<g id="a_Node000014"><a xlink:href="classBno08xHandler.html#a58384d1dfa272ba616140abb9fa55c2b" target="_top" xlink:title="Dump comprehensive diagnostics to the logger.">
<polygon fill="white" stroke="#666666" points="411.5,-1296 227.5,-1296 227.5,-1277 411.5,-1277 411.5,-1296"/>
<text text-anchor="middle" x="319.5" y="-1284" font-family="Helvetica,sans-Serif" font-size="10.00">Bno08xHandler::DumpDiagnostics</text>
</a>
</g>
</g>
<!-- Node1&#45;&gt;Node14 -->
<g id="edge13_Node000001_Node000014" class="edge">
<title>Node1&#45;&gt;Node14</title>
<g id="a_edge13_Node000001_Node000014"><a xlink:title=" ">
<path fill="none" stroke="#63b8ff" d="M489.72,-841.65C488.19,-920.48 478.49,-1206.61 418,-1268.5 414.87,-1271.7 411.37,-1274.44 407.61,-1276.77"/>
<polygon fill="#63b8ff" stroke="#63b8ff" points="493.23,-841.27 489.9,-831.21 486.23,-841.15 493.23,-841.27"/>
</a>
</g>
</g>
<!-- Node15 -->
<g id="Node000015" class="node">
<title>Node15</title>
<g id="a_Node000015"><a xlink:href="classPca9685Handler.html#ae86db8a2e163cd62cfd4459047f1f204" target="_top" xlink:title="Dump comprehensive diagnostics to the system log.">
<polygon fill="white" stroke="#666666" points="413.5,-1259 225.5,-1259 225.5,-1240 413.5,-1240 413.5,-1259"/>
<text text-anchor="middle" x="319.5" y="-1247" font-family="Helvetica,sans-Serif" font-size="10.00">Pca9685Handler::DumpDiagnostics</text>
</a>
</g>
</g>
<!-- Node1&#45;&gt;Node15 -->
<g id="edge14_Node000001_Node000015" class="edge">
<title>Node1&#45;&gt;Node15</title>
<g id="a_edge14_Node000001_Node000015"><a xlink:title=" ">
<path fill="none" stroke="#63b8ff" d="M489.41,-841.4C486.77,-915.69 473.66,-1175.35 418,-1231.5 414.73,-1234.8 411.06,-1237.61 407.12,-1239.98"/>
<polygon fill="#63b8ff" stroke="#63b8ff" points="492.91,-841.24 489.74,-831.13 485.92,-841.01 492.91,-841.24"/>
</a>
</g>
</g>
<!-- Node16 -->
<g id="Node000016" class="node">
<title>Node16</title>
<g id="a_Node000016"><a xlink:href="classPcal95555Handler.html#a7fcf65a91f94a68330ee6738f8297b83" target="_top" xlink:title="Dump comprehensive diagnostics to the system log.">
<polygon fill="white" stroke="#666666" points="418,-1222 221,-1222 221,-1203 418,-1203 418,-1222"/>
<text text-anchor="middle" x="319.5" y="-1210" font-family="Helvetica,sans-Serif" font-size="10.00">Pcal95555Handler::DumpDiagnostics</text>
</a>
</g>
</g>
<!-- Node1&#45;&gt;Node16 -->
<g id="edge15_Node000001_Node000016" class="edge">
<title>Node1&#45;&gt;Node16</title>
<g id="a_edge15_Node000001_Node000016"><a xlink:title=" ">
<path fill="none" stroke="#63b8ff" d="M489.03,-841.4C485.2,-911.3 468.79,-1144.12 418,-1194.5 414.7,-1197.77 411.01,-1200.56 407.05,-1202.92"/>
<polygon fill="#63b8ff" stroke="#63b8ff" points="492.53,-841.47 489.56,-831.3 485.54,-841.1 492.53,-841.47"/>
</a>
</g>
</g>
<!-- Node17 -->
<g id="Node000017" class="node">
<title>Node17</title>
<g id="a_Node000017"><a xlink:href="classTmc9660Handler.html#adee8a764564554f060b879752048bf74" target="_top" xlink:title="Dump comprehensive diagnostics to the system log.">
<polygon fill="white" stroke="#666666" points="415.5,-1185 223.5,-1185 223.5,-1166 415.5,-1166 415.5,-1185"/>
<text text-anchor="middle" x="319.5" y="-1173" font-family="Helvetica,sans-Serif" font-size="10.00">Tmc9660Handler::DumpDiagnostics</text>
</a>
</g>
</g>
<!-- Node1&#45;&gt;Node17 -->
<g id="edge16_Node000001_Node000017" class="edge">
<title>Node1&#45;&gt;Node17</title>
<g id="a_edge16_Node000001_Node000017"><a xlink:title=" ">
<path fill="none" stroke="#63b8ff" d="M488.54,-841.43C483.34,-906.61 463.57,-1111.8 418,-1156.5 414.18,-1160.24 409.86,-1163.36 405.21,-1165.94"/>
<polygon fill="#63b8ff" stroke="#63b8ff" points="492.04,-841.51 489.32,-831.27 485.06,-840.97 492.04,-841.51"/>
</a>
</g>
</g>
<!-- Node18 -->
<g id="Node000018" class="node">
<title>Node18</title>
<g id="a_Node000018"><a xlink:href="classNtcTemperatureHandler.html#ae3ed02cf4cd05dd73a3e9a42f9219f3e" target="_top" xlink:title=" ">
<polygon fill="white" stroke="#666666" points="397.5,-1099.5 241.5,-1099.5 241.5,-1069.5 397.5,-1069.5 397.5,-1099.5"/>
<text text-anchor="start" x="249.5" y="-1087.5" font-family="Helvetica,sans-Serif" font-size="10.00">NtcTemperatureHandler</text>
<text text-anchor="middle" x="319.5" y="-1076.5" font-family="Helvetica,sans-Serif" font-size="10.00">::EnableThresholdMonitoring</text>
</a>
</g>
</g>
<!-- Node1&#45;&gt;Node18 -->
<g id="edge17_Node000001_Node000018" class="edge">
<title>Node1&#45;&gt;Node18</title>
<g id="a_edge17_Node000001_Node000018"><a xlink:title=" ">
<path fill="none" stroke="#63b8ff" d="M490.2,-841.57C489.52,-887.42 481.14,-1000.52 418,-1060.5 412.19,-1066.02 405.31,-1070.34 397.95,-1073.7"/>
<polygon fill="#63b8ff" stroke="#63b8ff" points="493.7,-841.45 490.24,-831.43 486.7,-841.42 493.7,-841.45"/>
</a>
</g>
</g>
<!-- Node19 -->
<g id="Node000019" class="node">
<title>Node19</title>
<g id="a_Node000019"><a xlink:href="classNtcTemperatureHandler.html#a97fa93b2ed6337e24e056b46fbe331c7" target="_top" xlink:title=" ">
<polygon fill="white" stroke="#666666" points="159,-1147.5 26,-1147.5 26,-1117.5 159,-1117.5 159,-1147.5"/>
<text text-anchor="start" x="34" y="-1135.5" font-family="Helvetica,sans-Serif" font-size="10.00">NtcTemperatureHandler</text>
<text text-anchor="middle" x="92.5" y="-1124.5" font-family="Helvetica,sans-Serif" font-size="10.00">::Initialize</text>
</a>
</g>
</g>
<!-- Node1&#45;&gt;Node19 -->
<g id="edge27_Node000001_Node000019" class="edge">
<title>Node1&#45;&gt;Node19</title>
<g id="a_edge27_Node000001_Node000019"><a xlink:title=" ">
<path fill="none" stroke="#63b8ff" d="M489.02,-841.19C484.07,-937.22 460.26,-1353.25 418,-1390.5 385.16,-1419.45 258.19,-1413.6 221,-1390.5 131.03,-1334.6 102.63,-1194.35 95.53,-1147.79"/>
<polygon fill="#63b8ff" stroke="#63b8ff" points="492.52,-841.28 489.53,-831.12 485.53,-840.93 492.52,-841.28"/>
</a>
</g>
</g>
<!-- Node20 -->
<g id="Node000020" class="node">
<title>Node20</title>
<g id="a_Node000020"><a xlink:href="classNtcTemperatureHandler.html#a059ed62988ed8c4e69ac891b448ff17a" target="_top" xlink:title=" ">
<polygon fill="white" stroke="#666666" points="386,-1051.5 253,-1051.5 253,-1021.5 386,-1021.5 386,-1051.5"/>
<text text-anchor="start" x="261" y="-1039.5" font-family="Helvetica,sans-Serif" font-size="10.00">NtcTemperatureHandler</text>
<text text-anchor="middle" x="319.5" y="-1028.5" font-family="Helvetica,sans-Serif" font-size="10.00">::EnterSleepMode</text>
</a>
</g>
</g>
<!-- Node1&#45;&gt;Node20 -->
<g id="edge19_Node000001_Node000020" class="edge">
<title>Node1&#45;&gt;Node20</title>
<g id="a_edge19_Node000001_Node000020"><a xlink:title=" ">
<path fill="none" stroke="#63b8ff" d="M488.47,-841.19C484.37,-880.02 469.63,-966.69 418,-1012.5 409,-1020.48 397.77,-1025.91 386.17,-1029.57"/>
<polygon fill="#63b8ff" stroke="#63b8ff" points="491.96,-841.45 489.4,-831.17 484.99,-840.81 491.96,-841.45"/>
</a>
</g>
</g>
<!-- Node21 -->
<g id="Node000021" class="node">
<title>Node21</title>
<g id="a_Node000021"><a xlink:href="classNtcTemperatureHandler.html#a3bc0497cbb414d6cb346a2a519e8b0b7" target="_top" xlink:title=" ">
<polygon fill="white" stroke="#666666" points="386,-1003.5 253,-1003.5 253,-973.5 386,-973.5 386,-1003.5"/>
<text text-anchor="start" x="261" y="-991.5" font-family="Helvetica,sans-Serif" font-size="10.00">NtcTemperatureHandler</text>
<text text-anchor="middle" x="319.5" y="-980.5" font-family="Helvetica,sans-Serif" font-size="10.00">::ExitSleepMode</text>
</a>
</g>
</g>
<!-- Node1&#45;&gt;Node21 -->
<g id="edge20_Node000001_Node000021" class="edge">
<title>Node1&#45;&gt;Node21</title>
<g id="a_edge20_Node000001_Node000021"><a xlink:title=" ">
<path fill="none" stroke="#63b8ff" d="M485.66,-841.33C477.77,-872.46 458.08,-932.56 418,-964.5 408.73,-971.89 397.5,-977.04 386.02,-980.63"/>
<polygon fill="#63b8ff" stroke="#63b8ff" points="489.14,-841.81 488.04,-831.27 482.33,-840.19 489.14,-841.81"/>
</a>
</g>
</g>
<!-- Node22 -->
<g id="Node000022" class="node">
<title>Node22</title>
<g id="a_Node000022"><a xlink:href="namespaceanonymous__namespace_02Tmc9660Handler_8cpp_03.html#a9645e5797d8ff9813283015d244ec066" target="_top" xlink:title=" ">
<polygon fill="white" stroke="#666666" points="387,-955 252,-955 252,-914 387,-914 387,-955"/>
<text text-anchor="start" x="260" y="-943" font-family="Helvetica,sans-Serif" font-size="10.00">anonymous_namespace</text>
<text text-anchor="start" x="260" y="-932" font-family="Helvetica,sans-Serif" font-size="10.00">{Tmc9660Handler::cpp}</text>
<text text-anchor="middle" x="319.5" y="-921" font-family="Helvetica,sans-Serif" font-size="10.00">::halDebugLog</text>
</a>
</g>
</g>
<!-- Node1&#45;&gt;Node22 -->
<g id="edge21_Node000001_Node000022" class="edge">
<title>Node1&#45;&gt;Node22</title>
<g id="a_edge21_Node000001_Node000022"><a xlink:title=" ">
<path fill="none" stroke="#63b8ff" d="M478.89,-839.82C466.38,-858.92 444.33,-888.42 418,-905.5 408.59,-911.6 397.85,-916.47 387.02,-920.32"/>
<polygon fill="#63b8ff" stroke="#63b8ff" points="481.99,-841.45 484.38,-831.13 476.08,-837.71 481.99,-841.45"/>
</a>
</g>
</g>
<!-- Node25 -->
<g id="Node000025" class="node">
<title>Node25</title>
<g id="a_Node000025"><a xlink:href="classMax22200Handler.html#ad6c72b45a96c36cd1b450f5e330fad25" target="_top" xlink:title="Initialize driver (ENABLE HIGH, read/clear STATUS, set ACTIVE).">
<polygon fill="white" stroke="#666666" points="396.5,-896 242.5,-896 242.5,-877 396.5,-877 396.5,-896"/>
<text text-anchor="middle" x="319.5" y="-884" font-family="Helvetica,sans-Serif" font-size="10.00">Max22200Handler::Initialize</text>
</a>
</g>
</g>
<!-- Node1&#45;&gt;Node25 -->
<g id="edge24_Node000001_Node000025" class="edge">
<title>Node1&#45;&gt;Node25</title>
<g id="a_edge24_Node000001_Node000025"><a xlink:title=" ">
<path fill="none" stroke="#63b8ff" d="M469.77,-837.37C455.93,-847.46 436.75,-860 418,-867.5 408.31,-871.37 397.76,-874.48 387.29,-876.96"/>
<polygon fill="#63b8ff" stroke="#63b8ff" points="472.14,-839.97 478.04,-831.17 467.94,-834.37 472.14,-839.97"/>
</a>
</g>
</g>
<!-- Node26 -->
<g id="Node000026" class="node">
<title>Node26</title>
<g id="a_Node000026"><a xlink:href="classTle92466edHandler.html#a0883f87dfe49cce3abd5acfc8cb2176c" target="_top" xlink:title="Initialize driver (hardware reset + SPI init + enter config mode).">
<polygon fill="white" stroke="#666666" points="378.5,-858.5 260.5,-858.5 260.5,-828.5 378.5,-828.5 378.5,-858.5"/>
<text text-anchor="start" x="268.5" y="-846.5" font-family="Helvetica,sans-Serif" font-size="10.00">Tle92466edHandler::</text>
<text text-anchor="middle" x="319.5" y="-835.5" font-family="Helvetica,sans-Serif" font-size="10.00">Initialize</text>
</a>
</g>
</g>
<!-- Node1&#45;&gt;Node26 -->
<g id="edge25_Node000001_Node000026" class="edge">
<title>Node1&#45;&gt;Node26</title>
<g id="a_edge25_Node000001_Node000026"><a xlink:title=" ">
<path fill="none" stroke="#63b8ff" d="M443.54,-827.53C423.55,-830.12 399.95,-833.19 378.8,-835.93"/>
<polygon fill="#63b8ff" stroke="#63b8ff" points="444.17,-830.98 453.64,-826.22 443.27,-824.04 444.17,-830.98"/>
</a>
</g>
</g>
<!-- Node27 -->
<g id="Node000027" class="node">
<title>Node27</title>
<g id="a_Node000027"><a xlink:href="classWs2812Handler.html#a172ae173d1e2bd93c9808452aad6e4cd" target="_top" xlink:title="Initialize the RMT channel and LED strip.">
<polygon fill="white" stroke="#666666" points="390.5,-810 248.5,-810 248.5,-791 390.5,-791 390.5,-810"/>
<text text-anchor="middle" x="319.5" y="-798" font-family="Helvetica,sans-Serif" font-size="10.00">Ws2812Handler::Initialize</text>
</a>
</g>
</g>
<!-- Node1&#45;&gt;Node27 -->
<g id="edge26_Node000001_Node000027" class="edge">
<title>Node1&#45;&gt;Node27</title>
<g id="a_edge26_Node000001_Node000027"><a xlink:title=" ">
<path fill="none" stroke="#63b8ff" d="M443.32,-815.72C427.05,-813.7 408.41,-811.39 390.66,-809.19"/>
<polygon fill="#63b8ff" stroke="#63b8ff" points="443.28,-819.24 453.64,-816.99 444.14,-812.29 443.28,-819.24"/>
</a>
</g>
</g>
<!-- Node28 -->
<g id="Node000028" class="node">
<title>Node28</title>
<g id="a_Node000028"><a xlink:href="classTmc9660Handler_1_1Temperature.html#a8019acd874c13ba0e175224a367bf370" target="_top" xlink:title="Initialize (verifies parent driver is ready).">
<polygon fill="white" stroke="#666666" points="403,-772.5 236,-772.5 236,-742.5 403,-742.5 403,-772.5"/>
<text text-anchor="start" x="244" y="-760.5" font-family="Helvetica,sans-Serif" font-size="10.00">Tmc9660Handler::Temperature</text>
<text text-anchor="middle" x="319.5" y="-749.5" font-family="Helvetica,sans-Serif" font-size="10.00">::Initialize</text>
</a>
</g>
</g>
<!-- Node1&#45;&gt;Node28 -->
<g id="edge28_Node000001_Node000028" class="edge">
<title>Node1&#45;&gt;Node28</title>
<g id="a_edge28_Node000001_Node000028"><a xlink:title=" ">
<path fill="none" stroke="#63b8ff" d="M466.64,-806.43C452.91,-798.12 434.98,-788.17 418,-781.5 409.48,-778.15 400.36,-775.17 391.23,-772.54"/>
<polygon fill="#63b8ff" stroke="#63b8ff" points="465.06,-809.57 475.4,-811.86 468.74,-803.62 465.06,-809.57"/>
</a>
</g>
</g>
<!-- Node29 -->
<g id="Node000029" class="node">
<title>Node29</title>
<g id="a_Node000029"><a xlink:href="classTmc9660Handler.html#adc564847f8ae26c47412aaee0758991c" target="_top" xlink:title="Initialize the TMC9660 device.">
<polygon fill="white" stroke="#666666" points="393.5,-724 245.5,-724 245.5,-705 393.5,-705 393.5,-724"/>
<text text-anchor="middle" x="319.5" y="-712" font-family="Helvetica,sans-Serif" font-size="10.00">Tmc9660Handler::Initialize</text>
</a>
</g>
</g>
<!-- Node1&#45;&gt;Node29 -->
<g id="edge29_Node000001_Node000029" class="edge">
<title>Node1&#45;&gt;Node29</title>
<g id="a_edge29_Node000001_Node000029"><a xlink:title=" ">
<path fill="none" stroke="#63b8ff" d="M480.14,-803.02C468.24,-782.6 446.25,-750.39 418,-733.5 410.52,-729.03 402.2,-725.59 393.66,-722.94"/>
<polygon fill="#63b8ff" stroke="#63b8ff" points="477.22,-804.96 485.16,-811.97 483.33,-801.54 477.22,-804.96"/>
</a>
</g>
</g>
<!-- Node30 -->
<g id="Node000030" class="node">
<title>Node30</title>
<g id="a_Node000030"><a xlink:href="classMax22200Handler.html#a4a87c1be18b3b4fb6055bccd6df7da9f" target="_top" xlink:title="Initialize with board configuration.">
<polygon fill="white" stroke="#666666" points="396.5,-687 242.5,-687 242.5,-668 396.5,-668 396.5,-687"/>
<text text-anchor="middle" x="319.5" y="-675" font-family="Helvetica,sans-Serif" font-size="10.00">Max22200Handler::Initialize</text>
</a>
</g>
</g>
<!-- Node1&#45;&gt;Node30 -->
<g id="edge30_Node000001_Node000030" class="edge">
<title>Node1&#45;&gt;Node30</title>
<g id="a_edge30_Node000001_Node000030"><a xlink:title=" ">
<path fill="none" stroke="#63b8ff" d="M484.52,-801.76C475.58,-773.43 455,-721.76 418,-695.5 411.54,-690.92 404.26,-687.4 396.65,-684.72"/>
<polygon fill="#63b8ff" stroke="#63b8ff" points="481.27,-803.11 487.48,-811.7 487.98,-801.11 481.27,-803.11"/>
</a>
</g>
</g>
<!-- Node31 -->
<g id="Node000031" class="node">
<title>Node31</title>
<g id="a_Node000031"><a xlink:href="classTle92466edHandler.html#a427b6968c56e28e3e8d92b9d083fca33" target="_top" xlink:title="Initialize with global configuration.">
<polygon fill="white" stroke="#666666" points="378.5,-649.5 260.5,-649.5 260.5,-619.5 378.5,-619.5 378.5,-649.5"/>
<text text-anchor="start" x="268.5" y="-637.5" font-family="Helvetica,sans-Serif" font-size="10.00">Tle92466edHandler::</text>
<text text-anchor="middle" x="319.5" y="-626.5" font-family="Helvetica,sans-Serif" font-size="10.00">Initialize</text>
</a>
</g>
</g>
<!-- Node1&#45;&gt;Node31 -->
<g id="edge31_Node000001_Node000031" class="edge">
<title>Node1&#45;&gt;Node31</title>
<g id="a_edge31_Node000001_Node000031"><a xlink:title=" ">
<path fill="none" stroke="#63b8ff" d="M486.96,-801.39C480.63,-766.77 462.71,-696.02 418,-658.5 406.92,-649.2 392.77,-643.41 378.71,-639.83"/>
<polygon fill="#63b8ff" stroke="#63b8ff" points="483.57,-802.37 488.68,-811.65 490.48,-801.21 483.57,-802.37"/>
</a>
</g>
</g>
<!-- Node32 -->
<g id="Node000032" class="node">
<title>Node32</title>
<g id="a_Node000032"><a xlink:href="classTmc5160Handler.html#a64755f326176b0a38485acf5ca69fd0c" target="_top" xlink:title="Initialize the TMC5160 driver with full configuration.">
<polygon fill="white" stroke="#666666" points="393.5,-601 245.5,-601 245.5,-582 393.5,-582 393.5,-601"/>
<text text-anchor="middle" x="319.5" y="-589" font-family="Helvetica,sans-Serif" font-size="10.00">Tmc5160Handler::Initialize</text>
</a>
</g>
</g>
<!-- Node1&#45;&gt;Node32 -->
<g id="edge32_Node000001_Node000032" class="edge">
<title>Node1&#45;&gt;Node32</title>
<g id="a_edge32_Node000001_Node000032"><a xlink:title=" ">
<path fill="none" stroke="#63b8ff" d="M489.48,-801.58C487.23,-759.41 475.72,-660.84 418,-610.5 410.98,-604.38 402.59,-599.99 393.71,-596.89"/>
<polygon fill="#63b8ff" stroke="#63b8ff" points="485.98,-801.83 489.89,-811.68 492.98,-801.55 485.98,-801.83"/>
</a>
</g>
</g>
<!-- Node33 -->
<g id="Node000033" class="node">
<title>Node33</title>
<g id="a_Node000033"><a xlink:href="classMax22200Handler.html#a980ab91fe8af480657541343c4f1eb90" target="_top" xlink:title="Construct MAX22200 handler.">
<polygon fill="white" stroke="#666666" points="401,-563.5 238,-563.5 238,-533.5 401,-533.5 401,-563.5"/>
<text text-anchor="start" x="246" y="-551.5" font-family="Helvetica,sans-Serif" font-size="10.00">Max22200Handler::Max22200</text>
<text text-anchor="middle" x="319.5" y="-540.5" font-family="Helvetica,sans-Serif" font-size="10.00">Handler</text>
</a>
</g>
</g>
<!-- Node1&#45;&gt;Node33 -->
<g id="edge33_Node000001_Node000033" class="edge">
<title>Node1&#45;&gt;Node33</title>
<g id="a_edge33_Node000001_Node000033"><a xlink:title=" ">
<path fill="none" stroke="#63b8ff" d="M490.49,-801.89C490.54,-755.02 483.81,-635.72 418,-572.5 413.1,-567.79 407.43,-563.96 401.33,-560.85"/>
<polygon fill="#63b8ff" stroke="#63b8ff" points="486.99,-801.89 490.37,-811.93 493.99,-801.97 486.99,-801.89"/>
</a>
</g>
</g>
<!-- Node34 -->
<g id="Node000034" class="node">
<title>Node34</title>
<g id="a_Node000034"><a xlink:href="classNtcTemperatureHandler.html#afbd49ab0a549ce22cada91fcd498b6d7" target="_top" xlink:title=" ">
<polygon fill="white" stroke="#666666" points="386,-515.5 253,-515.5 253,-485.5 386,-485.5 386,-515.5"/>
<text text-anchor="start" x="261" y="-503.5" font-family="Helvetica,sans-Serif" font-size="10.00">NtcTemperatureHandler</text>
<text text-anchor="middle" x="319.5" y="-492.5" font-family="Helvetica,sans-Serif" font-size="10.00">::ResetCalibration</text>
</a>
</g>
</g>
<!-- Node1&#45;&gt;Node34 -->
<g id="edge34_Node000001_Node000034" class="edge">
<title>Node1&#45;&gt;Node34</title>
<g id="a_edge34_Node000001_Node000034"><a xlink:title=" ">
<path fill="none" stroke="#63b8ff" d="M487.9,-801.99C481.09,-742.4 457.76,-564.4 418,-524.5 409.33,-515.79 398.03,-510.06 386.22,-506.33"/>
<polygon fill="#63b8ff" stroke="#63b8ff" points="484.42,-802.42 489.01,-811.97 491.38,-801.64 484.42,-802.42"/>
</a>
</g>
</g>
<!-- Node35 -->
<g id="Node000035" class="node">
<title>Node35</title>
<g id="a_Node000035"><a xlink:href="classNtcTemperatureHandler.html#adb609ac3f90e26a005a28c0d0056f638" target="_top" xlink:title=" ">
<polygon fill="white" stroke="#666666" points="386,-467.5 253,-467.5 253,-437.5 386,-437.5 386,-467.5"/>
<text text-anchor="start" x="261" y="-455.5" font-family="Helvetica,sans-Serif" font-size="10.00">NtcTemperatureHandler</text>
<text text-anchor="middle" x="319.5" y="-444.5" font-family="Helvetica,sans-Serif" font-size="10.00">::ResetDiagnostics</text>
</a>
</g>
</g>
<!-- Node1&#45;&gt;Node35 -->
<g id="edge35_Node000001_Node000035" class="edge">
<title>Node1&#45;&gt;Node35</title>
<g id="a_edge35_Node000001_Node000035"><a xlink:title=" ">
<path fill="none" stroke="#63b8ff" d="M488.57,-801.51C483.43,-735.17 463.69,-523.85 418,-476.5 409.41,-467.59 398.08,-461.78 386.2,-458.03"/>
<polygon fill="#63b8ff" stroke="#63b8ff" points="485.11,-802.11 489.34,-811.82 492.09,-801.59 485.11,-802.11"/>
</a>
</g>
</g>
<!-- Node36 -->
<g id="Node000036" class="node">
<title>Node36</title>
<g id="a_Node000036"><a xlink:href="classNtcTemperatureHandler.html#a20cfb11a0f83dda45e22ee4815b2c6d7" target="_top" xlink:title=" ">
<polygon fill="white" stroke="#666666" points="386,-419.5 253,-419.5 253,-389.5 386,-389.5 386,-419.5"/>
<text text-anchor="start" x="261" y="-407.5" font-family="Helvetica,sans-Serif" font-size="10.00">NtcTemperatureHandler</text>
<text text-anchor="middle" x="319.5" y="-396.5" font-family="Helvetica,sans-Serif" font-size="10.00">::ResetStatistics</text>
</a>
</g>
</g>
<!-- Node1&#45;&gt;Node36 -->
<g id="edge36_Node000001_Node000036" class="edge">
<title>Node1&#45;&gt;Node36</title>
<g id="a_edge36_Node000001_Node000036"><a xlink:title=" ">
<path fill="none" stroke="#63b8ff" d="M489.13,-801.6C485.58,-729.54 469.8,-483.51 418,-428.5 409.46,-419.43 398.08,-413.55 386.12,-409.79"/>
<polygon fill="#63b8ff" stroke="#63b8ff" points="485.65,-802.13 489.62,-811.96 492.64,-801.81 485.65,-802.13"/>
</a>
</g>
</g>
<!-- Node37 -->
<g id="Node000037" class="node">
<title>Node37</title>
<g id="a_Node000037"><a xlink:href="classNtcTemperatureHandler.html#adb887f49bc1fc44e23482aef76a707b7" target="_top" xlink:title=" ">
<polygon fill="white" stroke="#666666" points="386,-371.5 253,-371.5 253,-341.5 386,-341.5 386,-371.5"/>
<text text-anchor="start" x="261" y="-359.5" font-family="Helvetica,sans-Serif" font-size="10.00">NtcTemperatureHandler</text>
<text text-anchor="middle" x="319.5" y="-348.5" font-family="Helvetica,sans-Serif" font-size="10.00">::SelfTest</text>
</a>
</g>
</g>
<!-- Node1&#45;&gt;Node37 -->
<g id="edge37_Node000001_Node000037" class="edge">
<title>Node1&#45;&gt;Node37</title>
<g id="a_edge37_Node000001_Node000037"><a xlink:title=" ">
<path fill="none" stroke="#63b8ff" d="M489.57,-801.72C487.48,-724.32 475.95,-443.25 418,-380.5 409.48,-371.28 398.05,-365.35 386,-361.58"/>
<polygon fill="#63b8ff" stroke="#63b8ff" points="486.08,-802.06 489.82,-811.97 493.07,-801.89 486.08,-802.06"/>
</a>
</g>
</g>
<!-- Node38 -->
<g id="Node000038" class="node">
<title>Node38</title>
<g id="a_Node000038"><a xlink:href="classNtcTemperatureHandler.html#af69b8450dddaf1ffeece5c586f318875" target="_top" xlink:title=" ">
<polygon fill="white" stroke="#666666" points="386,-323.5 253,-323.5 253,-293.5 386,-293.5 386,-323.5"/>
<text text-anchor="start" x="261" y="-311.5" font-family="Helvetica,sans-Serif" font-size="10.00">NtcTemperatureHandler</text>
<text text-anchor="middle" x="319.5" y="-300.5" font-family="Helvetica,sans-Serif" font-size="10.00">::SetCalibrationOffset</text>
</a>
</g>
</g>
<!-- Node1&#45;&gt;Node38 -->
<g id="edge38_Node000001_Node000038" class="edge">
<title>Node1&#45;&gt;Node38</title>
<g id="a_edge38_Node000001_Node000038"><a xlink:title=" ">
<path fill="none" stroke="#63b8ff" d="M489.92,-801.71C489.17,-719.11 482.09,-403 418,-332.5 409.56,-323.21 398.15,-317.25 386.12,-313.48"/>
<polygon fill="#63b8ff" stroke="#63b8ff" points="486.42,-801.78 489.99,-811.76 493.42,-801.74 486.42,-801.78"/>
</a>
</g>
</g>
<!-- Node39 -->
<g id="Node000039" class="node">
<title>Node39</title>
<g id="a_Node000039"><a xlink:href="classNtcTemperatureHandler.html#a275ae5ee2756034dcaa99f3877d8e1f0" target="_top" xlink:title=" ">
<polygon fill="white" stroke="#666666" points="386,-1147.5 253,-1147.5 253,-1117.5 386,-1117.5 386,-1147.5"/>
<text text-anchor="start" x="261" y="-1135.5" font-family="Helvetica,sans-Serif" font-size="10.00">NtcTemperatureHandler</text>
<text text-anchor="middle" x="319.5" y="-1124.5" font-family="Helvetica,sans-Serif" font-size="10.00">::SetThresholds</text>
</a>
</g>
</g>
<!-- Node1&#45;&gt;Node39 -->
<g id="edge39_Node000001_Node000039" class="edge">
<title>Node1&#45;&gt;Node39</title>
<g id="a_edge39_Node000001_Node000039"><a xlink:title=" ">
<path fill="none" stroke="#63b8ff" d="M487.71,-841.1C480.51,-899.43 456.48,-1070.19 418,-1108.5 409.29,-1117.17 397.98,-1122.89 386.17,-1126.62"/>
<polygon fill="#63b8ff" stroke="#63b8ff" points="491.2,-841.36 488.93,-831.01 484.25,-840.52 491.2,-841.36"/>
</a>
</g>
</g>
<!-- Node40 -->
<g id="Node000040" class="node">
<title>Node40</title>
<g id="a_Node000040"><a xlink:href="classNtcTemperatureHandler.html#aeabac754a1b923c79969657d69b97a72" target="_top" xlink:title=" ">
<polygon fill="white" stroke="#666666" points="396,-237.5 243,-237.5 243,-207.5 396,-207.5 396,-237.5"/>
<text text-anchor="start" x="251" y="-225.5" font-family="Helvetica,sans-Serif" font-size="10.00">NtcTemperatureHandler</text>
<text text-anchor="middle" x="319.5" y="-214.5" font-family="Helvetica,sans-Serif" font-size="10.00">::StartContinuousMonitoring</text>
</a>
</g>
</g>
<!-- Node1&#45;&gt;Node40 -->
<g id="edge41_Node000001_Node000040" class="edge">
<title>Node1&#45;&gt;Node40</title>
<g id="a_edge41_Node000001_Node000040"><a xlink:title=" ">
<path fill="none" stroke="#63b8ff" d="M490.29,-801.49C491.2,-710.54 490.41,-336.83 418,-251.5 412.06,-244.5 404.51,-239.14 396.25,-235.06"/>
<polygon fill="#63b8ff" stroke="#63b8ff" points="486.79,-801.53 490.17,-811.57 493.79,-801.61 486.79,-801.53"/>
</a>
</g>
</g>
<!-- Node41 -->
<g id="Node000041" class="node">
<title>Node41</title>
<g id="a_Node000041"><a xlink:href="classNtcTemperatureHandler.html#a7cd3aa59989bec0514d6717d345d8466" target="_top" xlink:title=" ">
<polygon fill="white" stroke="#666666" points="395.5,-189.5 243.5,-189.5 243.5,-159.5 395.5,-159.5 395.5,-189.5"/>
<text text-anchor="start" x="251.5" y="-177.5" font-family="Helvetica,sans-Serif" font-size="10.00">NtcTemperatureHandler</text>
<text text-anchor="middle" x="319.5" y="-166.5" font-family="Helvetica,sans-Serif" font-size="10.00">::StopContinuousMonitoring</text>
</a>
</g>
</g>
<!-- Node1&#45;&gt;Node41 -->
<g id="edge42_Node000001_Node000041" class="edge">
<title>Node1&#45;&gt;Node41</title>
<g id="a_edge42_Node000001_Node000041"><a xlink:title=" ">
<path fill="none" stroke="#63b8ff" d="M489.03,-801.44C483.92,-699.82 458.89,-244.91 418,-198.5 411.89,-191.57 404.13,-186.48 395.67,-182.76"/>
<polygon fill="#63b8ff" stroke="#63b8ff" points="485.54,-801.75 489.53,-811.57 492.53,-801.41 485.54,-801.75"/>
</a>
</g>
</g>
<!-- Node43 -->
<g id="Node000043" class="node">
<title>Node43</title>
<g id="a_Node000043"><a xlink:href="classTle92466edHandler.html#aa06da4aafab991668a54478a602c029c" target="_top" xlink:title="Construct TLE92466ED handler.">
<polygon fill="white" stroke="#666666" points="378.5,-141.5 260.5,-141.5 260.5,-111.5 378.5,-111.5 378.5,-141.5"/>
<text text-anchor="start" x="268.5" y="-129.5" font-family="Helvetica,sans-Serif" font-size="10.00">Tle92466edHandler::</text>
<text text-anchor="middle" x="319.5" y="-118.5" font-family="Helvetica,sans-Serif" font-size="10.00">Tle92466edHandler</text>
</a>
</g>
</g>
<!-- Node1&#45;&gt;Node43 -->
<g id="edge45_Node000001_Node000043" class="edge">
<title>Node1&#45;&gt;Node43</title>
<g id="a_edge45_Node000001_Node000043"><a xlink:title=" ">
<path fill="none" stroke="#63b8ff" d="M489.21,-801.59C484.81,-695.64 462.03,-200.88 418,-150.5 407.96,-139.01 393.4,-132.58 378.57,-129.08"/>
<polygon fill="#63b8ff" stroke="#63b8ff" points="485.72,-801.97 489.62,-811.82 492.71,-801.69 485.72,-801.97"/>
</a>
</g>
</g>
<!-- Node44 -->
<g id="Node000044" class="node">
<title>Node44</title>
<g id="a_Node000044"><a xlink:href="classTmc5160Handler.html#a3734595897a34600986242dbbefd9ed3" target="_top" xlink:title="Construct a TMC5160 handler with SPI communication.">
<polygon fill="white" stroke="#666666" points="414,-93 225,-93 225,-74 414,-74 414,-93"/>
<text text-anchor="middle" x="319.5" y="-81" font-family="Helvetica,sans-Serif" font-size="10.00">Tmc5160Handler::Tmc5160Handler</text>
</a>
</g>
</g>
<!-- Node1&#45;&gt;Node44 -->
<g id="edge46_Node000001_Node000044" class="edge">
<title>Node1&#45;&gt;Node44</title>
<g id="a_edge46_Node000001_Node000044"><a xlink:title=" ">
<path fill="none" stroke="#63b8ff" d="M489.41,-801.87C485.92,-691.94 466.51,-155.73 418,-102.5 414.63,-98.8 410.77,-95.7 406.58,-93.1"/>
<polygon fill="#63b8ff" stroke="#63b8ff" points="485.91,-802.01 489.72,-811.9 492.91,-801.8 485.91,-802.01"/>
</a>
</g>
</g>
<!-- Node45 -->
<g id="Node000045" class="node">
<title>Node45</title>
<g id="a_Node000045"><a xlink:href="classTmc5160Handler.html#a2601e350781600541622f65460a24691" target="_top" xlink:title="Construct a TMC5160 handler with UART communication.">
<polygon fill="white" stroke="#666666" points="414,-56 225,-56 225,-37 414,-37 414,-56"/>
<text text-anchor="middle" x="319.5" y="-44" font-family="Helvetica,sans-Serif" font-size="10.00">Tmc5160Handler::Tmc5160Handler</text>
</a>
</g>
</g>
<!-- Node1&#45;&gt;Node45 -->
<g id="edge47_Node000001_Node000045" class="edge">
<title>Node1&#45;&gt;Node45</title>
<g id="a_edge47_Node000001_Node000045"><a xlink:title=" ">
<path fill="none" stroke="#63b8ff" d="M489.52,-801.9C486.58,-688.59 469.35,-120.56 418,-64.5 415.09,-61.33 411.82,-58.6 408.29,-56.27"/>
<polygon fill="#63b8ff" stroke="#63b8ff" points="486.02,-802.01 489.78,-811.92 493.02,-801.84 486.02,-802.01"/>
</a>
</g>
</g>
<!-- Node46 -->
<g id="Node000046" class="node">
<title>Node46</title>
<g id="a_Node000046"><a xlink:href="classWs2812Handler.html#adffc9bfd3774c28bdd2d9fe72f2e40ad" target="_top" xlink:title="Construct WS2812 handler with configuration.">
<polygon fill="white" stroke="#666666" points="408,-19 231,-19 231,0 408,0 408,-19"/>
<text text-anchor="middle" x="319.5" y="-7" font-family="Helvetica,sans-Serif" font-size="10.00">Ws2812Handler::Ws2812Handler</text>
</a>
</g>
</g>
<!-- Node1&#45;&gt;Node46 -->
<g id="edge48_Node000001_Node000046" class="edge">
<title>Node1&#45;&gt;Node46</title>
<g id="a_edge48_Node000001_Node000046"><a xlink:title=" ">
<path fill="none" stroke="#63b8ff" d="M489.61,-801.67C487.12,-684.57 471.82,-86.52 418,-27.5 415.1,-24.32 411.84,-21.59 408.31,-19.25"/>
<polygon fill="#63b8ff" stroke="#63b8ff" points="486.11,-801.81 489.82,-811.73 493.11,-801.66 486.11,-801.81"/>
</a>
</g>
</g>
<!-- Node4 -->
<g id="Node000004" class="node">
<title>Node4</title>
<g id="a_Node000004"><a xlink:href="classMax22200Handler.html#ac4714672494c6253e2b9e95f9b5d32a6" target="_top" xlink:title=" ">
<polygon fill="white" stroke="#666666" points="178,-1592.5 7,-1592.5 7,-1562.5 178,-1562.5 178,-1592.5"/>
<text text-anchor="start" x="15" y="-1580.5" font-family="Helvetica,sans-Serif" font-size="10.00">Max22200Handler::~Max22200</text>
<text text-anchor="middle" x="92.5" y="-1569.5" font-family="Helvetica,sans-Serif" font-size="10.00">Handler</text>
</a>
</g>
</g>
<!-- Node3&#45;&gt;Node4 -->
<g id="edge3_Node000003_Node000004" class="edge">
<title>Node3&#45;&gt;Node4</title>
<g id="a_edge3_Node000003_Node000004"><a xlink:title=" ">
<path fill="none" stroke="#63b8ff" d="M225.75,-1573.39C210.02,-1573.87 193.77,-1574.38 178.26,-1574.86"/>
<polygon fill="#63b8ff" stroke="#63b8ff" points="226.11,-1576.88 236,-1573.07 225.89,-1569.88 226.11,-1576.88"/>
</a>
</g>
</g>
<!-- Node6 -->
<g id="Node000006" class="node">
<title>Node6</title>
<g id="a_Node000006"><a xlink:href="classTle92466edHandler.html#a4ee41e5564077c020e0786f19217fd20" target="_top" xlink:title=" ">
<polygon fill="white" stroke="#666666" points="152.5,-1544.5 32.5,-1544.5 32.5,-1514.5 152.5,-1514.5 152.5,-1544.5"/>
<text text-anchor="start" x="40.5" y="-1532.5" font-family="Helvetica,sans-Serif" font-size="10.00">Tle92466edHandler::</text>
<text text-anchor="middle" x="92.5" y="-1521.5" font-family="Helvetica,sans-Serif" font-size="10.00">~Tle92466edHandler</text>
</a>
</g>
</g>
<!-- Node5&#45;&gt;Node6 -->
<g id="edge5_Node000005_Node000006" class="edge">
<title>Node5&#45;&gt;Node6</title>
<g id="a_edge5_Node000005_Node000006"><a xlink:title=" ">
<path fill="none" stroke="#63b8ff" d="M249.95,-1528.11C218.89,-1528.39 182.52,-1528.71 152.67,-1528.97"/>
<polygon fill="#63b8ff" stroke="#63b8ff" points="250.3,-1531.61 260.26,-1528.02 250.23,-1524.61 250.3,-1531.61"/>
</a>
</g>
</g>
<!-- Node8 -->
<g id="Node000008" class="node">
<title>Node8</title>
<g id="a_Node000008"><a xlink:href="classTmc5160Handler.html#aed4f4e077bf616f3a0b7af6f3fafcf74" target="_top" xlink:title="Destructor.">
<polygon fill="white" stroke="#666666" points="172,-1496.5 13,-1496.5 13,-1466.5 172,-1466.5 172,-1496.5"/>
<text text-anchor="start" x="21" y="-1484.5" font-family="Helvetica,sans-Serif" font-size="10.00">Tmc5160Handler::~Tmc5160</text>
<text text-anchor="middle" x="92.5" y="-1473.5" font-family="Helvetica,sans-Serif" font-size="10.00">Handler</text>
</a>
</g>
</g>
<!-- Node7&#45;&gt;Node8 -->
<g id="edge7_Node000007_Node000008" class="edge">
<title>Node7&#45;&gt;Node8</title>
<g id="a_edge7_Node000007_Node000008"><a xlink:title=" ">
<path fill="none" stroke="#63b8ff" d="M228.61,-1483.3C209.97,-1483.05 190.48,-1482.79 172.28,-1482.55"/>
<polygon fill="#63b8ff" stroke="#63b8ff" points="228.81,-1486.8 238.86,-1483.44 228.9,-1479.8 228.81,-1486.8"/>
</a>
</g>
</g>
<!-- Node10 -->
<g id="Node000010" class="node">
<title>Node10</title>
<g id="a_Node000010"><a xlink:href="classWs2812Handler.html#a681653a0596ee282296caf6a3dc4a070" target="_top" xlink:title=" ">
<polygon fill="white" stroke="#666666" points="185,-1448 0,-1448 0,-1429 185,-1429 185,-1448"/>
<text text-anchor="middle" x="92.5" y="-1436" font-family="Helvetica,sans-Serif" font-size="10.00">Ws2812Handler::~Ws2812Handler</text>
</a>
</g>
</g>
<!-- Node9&#45;&gt;Node10 -->
<g id="edge9_Node000009_Node000010" class="edge">
<title>Node9&#45;&gt;Node10</title>
<g id="a_edge9_Node000009_Node000010"><a xlink:title=" ">
<path fill="none" stroke="#63b8ff" d="M231.32,-1444.01C216.17,-1443.41 200.37,-1442.77 185.11,-1442.16"/>
<polygon fill="#63b8ff" stroke="#63b8ff" points="231.57,-1447.53 241.7,-1444.43 231.84,-1440.53 231.57,-1447.53"/>
</a>
</g>
</g>
<!-- Node18&#45;&gt;Node19 -->
<g id="edge18_Node000018_Node000019" class="edge">
<title>Node18&#45;&gt;Node19</title>
<g id="a_edge18_Node000018_Node000019"><a xlink:title=" ">
<path fill="none" stroke="#63b8ff" d="M238.14,-1101.64C212.27,-1107.16 183.92,-1113.21 159.23,-1118.48"/>
<polygon fill="#63b8ff" stroke="#63b8ff" points="238.88,-1105.07 247.93,-1099.56 237.42,-1098.22 238.88,-1105.07"/>
</a>
</g>
</g>
<!-- Node23 -->
<g id="Node000023" class="node">
<title>Node23</title>
<g id="a_Node000023"><a xlink:href="classHalSpiTmc9660Comm.html#ac7145aa4216147b19418a4b23cccda75" target="_top" xlink:title="Route TMC9660 driver debug output to the HardFOC Logger.">
<polygon fill="white" stroke="#666666" points="158,-925.5 27,-925.5 27,-895.5 158,-895.5 158,-925.5"/>
<text text-anchor="start" x="35" y="-913.5" font-family="Helvetica,sans-Serif" font-size="10.00">HalSpiTmc9660Comm::</text>
<text text-anchor="middle" x="92.5" y="-902.5" font-family="Helvetica,sans-Serif" font-size="10.00">debugLog</text>
</a>
</g>
</g>
<!-- Node22&#45;&gt;Node23 -->
<g id="edge22_Node000022_Node000023" class="edge">
<title>Node22&#45;&gt;Node23</title>
<g id="a_edge22_Node000022_Node000023"><a xlink:title=" ">
<path fill="none" stroke="#63b8ff" d="M241.68,-926.31C214.58,-923.42 184.39,-920.2 158.37,-917.42"/>
<polygon fill="#63b8ff" stroke="#63b8ff" points="241.59,-929.82 251.91,-927.4 242.33,-922.86 241.59,-929.82"/>
</a>
</g>
</g>
<!-- Node24 -->
<g id="Node000024" class="node">
<title>Node24</title>
<g id="a_Node000024"><a xlink:href="classHalUartTmc9660Comm.html#a1a992dfbd1c60452f19f38dff2754403" target="_top" xlink:title="Route TMC9660 driver debug output to the HardFOC Logger.">
<polygon fill="white" stroke="#666666" points="158,-973.5 27,-973.5 27,-943.5 158,-943.5 158,-973.5"/>
<text text-anchor="start" x="35" y="-961.5" font-family="Helvetica,sans-Serif" font-size="10.00">HalUartTmc9660Comm</text>
<text text-anchor="middle" x="92.5" y="-950.5" font-family="Helvetica,sans-Serif" font-size="10.00">::debugLog</text>
</a>
</g>
</g>
<!-- Node22&#45;&gt;Node24 -->
<g id="edge23_Node000022_Node000024" class="edge">
<title>Node22&#45;&gt;Node24</title>
<g id="a_edge23_Node000022_Node000024"><a xlink:title=" ">
<path fill="none" stroke="#63b8ff" d="M241.68,-942.69C214.58,-945.58 184.39,-948.8 158.37,-951.58"/>
<polygon fill="#63b8ff" stroke="#63b8ff" points="242.33,-946.14 251.91,-941.6 241.59,-939.18 242.33,-946.14"/>
</a>
</g>
</g>
<!-- Node39&#45;&gt;Node19 -->
<g id="edge40_Node000039_Node000019" class="edge">
<title>Node39&#45;&gt;Node19</title>
<g id="a_edge40_Node000039_Node000019"><a xlink:title=" ">
<path fill="none" stroke="#63b8ff" d="M242.62,-1132.5C215.59,-1132.5 185.38,-1132.5 159.27,-1132.5"/>
<polygon fill="#63b8ff" stroke="#63b8ff" points="242.82,-1136 252.82,-1132.5 242.82,-1129 242.82,-1136"/>
</a>
</g>
</g>
<!-- Node41&#45;&gt;Node11 -->
<g id="edge43_Node000041_Node000011" class="edge">
<title>Node41&#45;&gt;Node11</title>
<g id="a_edge43_Node000041_Node000011"><a xlink:title=" ">
<path fill="none" stroke="#63b8ff" d="M243.29,-192.17C235.73,-194.2 228.19,-196.32 221,-198.5 190.71,-207.67 157.05,-219.9 131.93,-229.44"/>
<polygon fill="#63b8ff" stroke="#63b8ff" points="244.43,-195.49 253.21,-189.57 242.65,-188.72 244.43,-195.49"/>
</a>
</g>
</g>
<!-- Node42 -->
<g id="Node000042" class="node">
<title>Node42</title>
<g id="a_Node000042"><a xlink:href="classNtcTemperatureHandler.html#aac69a65bcccfecfc2bfca99f7ac2aeb3" target="_top" xlink:title="Virtual destructor &#45; cleans up timer and thermistor resources.">
<polygon fill="white" stroke="#666666" points="166,-189.5 19,-189.5 19,-159.5 166,-159.5 166,-189.5"/>
<text text-anchor="start" x="27" y="-177.5" font-family="Helvetica,sans-Serif" font-size="10.00">NtcTemperatureHandler</text>
<text text-anchor="middle" x="92.5" y="-166.5" font-family="Helvetica,sans-Serif" font-size="10.00">::~NtcTemperatureHandler</text>
</a>
</g>
</g>
<!-- Node41&#45;&gt;Node42 -->
<g id="edge44_Node000041_Node000042" class="edge">
<title>Node41&#45;&gt;Node42</title>
<g id="a_edge44_Node000041_Node000042"><a xlink:title=" ">
<path fill="none" stroke="#63b8ff" d="M233.26,-174.5C211.23,-174.5 187.71,-174.5 166.37,-174.5"/>
<polygon fill="#63b8ff" stroke="#63b8ff" points="233.27,-178 243.27,-174.5 233.27,-171 233.27,-178"/>
</a>
</g>
</g>
</g>
</svg>
