<?xml version="1.0" encoding="UTF-8" standalone="no"?>
<!DOCTYPE svg PUBLIC "-//W3C//DTD SVG 1.1//EN"
 "http://www.w3.org/Graphics/SVG/1.1/DTD/svg11.dtd">
<!-- Generated by graphviz version 2.43.0 (0)
 -->
<!-- Title: Tmc5160Handler::GetStallGuardResult Pages: 1 -->
<svg width="875pt" height="138pt"
 viewBox="0.00 0.00 875.00 138.00" xmlns="http://www.w3.org/2000/svg" xmlns:xlink="http://www.w3.org/1999/xlink">
<g id="graph0" class="graph" transform="scale(1 1) rotate(0) translate(4 134)">
<title>Tmc5160Handler::GetStallGuardResult</title>
<!-- Node1 -->
<g id="Node000001" class="node">
<title>Node1</title>
<g id="a_Node000001"><a xlink:title="Get StallGuard result value.">
<polygon fill="#999999" stroke="#666666" points="145,-55.5 0,-55.5 0,-25.5 145,-25.5 145,-55.5"/>
<text text-anchor="start" x="8" y="-43.5" font-family="Helvetica,sans-Serif" font-size="10.00">Tmc5160Handler::GetStall</text>
<text text-anchor="middle" x="72.5" y="-32.5" font-family="Helvetica,sans-Serif" font-size="10.00">GuardResult</text>
</a>
</g>
</g>
<!-- Node2 -->
<g id="Node000002" class="node">
<title>Node2</title>
<g id="a_Node000002"><a xlink:href="classTmc5160Handler.html#a6d4fce2433e03bb11b05a4278ef66fd0" target="_top" xlink:title=" ">
<polygon fill="white" stroke="#666666" points="368,-79.5 181,-79.5 181,-49.5 368,-49.5 368,-79.5"/>
<text text-anchor="start" x="189" y="-67.5" font-family="Helvetica,sans-Serif" font-size="10.00">Tmc5160Handler::EnsureInitialized</text>
<text text-anchor="middle" x="274.5" y="-56.5" font-family="Helvetica,sans-Serif" font-size="10.00">Locked</text>
</a>
</g>
</g>
<!-- Node1&#45;&gt;Node2 -->
<g id="edge1_Node000001_Node000002" class="edge">
<title>Node1&#45;&gt;Node2</title>
<g id="a_edge1_Node000001_Node000002"><a xlink:title=" ">
<path fill="none" stroke="#63b8ff" d="M145.14,-49.1C153.44,-50.09 162.02,-51.12 170.63,-52.16"/>
<polygon fill="#63b8ff" stroke="#63b8ff" points="170.39,-55.65 180.74,-53.37 171.22,-48.7 170.39,-55.65"/>
</a>
</g>
</g>
<!-- Node10 -->
<g id="Node000010" class="node">
<title>Node10</title>
<g id="a_Node000010"><a xlink:href="classTmc5160Handler.html#a439a68f9d3f6785e0a493f9ed3821325" target="_top" xlink:title="Helper: execute a visitor on the active driver (no lock, internal use)">
<polygon fill="white" stroke="#666666" points="353,-31.5 196,-31.5 196,-1.5 353,-1.5 353,-31.5"/>
<text text-anchor="start" x="204" y="-19.5" font-family="Helvetica,sans-Serif" font-size="10.00">Tmc5160Handler::visitDriver</text>
<text text-anchor="middle" x="274.5" y="-8.5" font-family="Helvetica,sans-Serif" font-size="10.00">Internal</text>
</a>
</g>
</g>
<!-- Node1&#45;&gt;Node10 -->
<g id="edge13_Node000001_Node000010" class="edge">
<title>Node1&#45;&gt;Node10</title>
<g id="a_edge13_Node000001_Node000010"><a xlink:title=" ">
<path fill="none" stroke="#63b8ff" d="M145.14,-31.9C158.27,-30.33 172.11,-28.67 185.65,-27.04"/>
<polygon fill="#63b8ff" stroke="#63b8ff" points="186.42,-30.48 195.93,-25.81 185.58,-23.53 186.42,-30.48"/>
</a>
</g>
</g>
<!-- Node3 -->
<g id="Node000003" class="node">
<title>Node3</title>
<g id="a_Node000003"><a xlink:href="classTmc5160Handler.html#a64755f326176b0a38485acf5ca69fd0c" target="_top" xlink:title="Initialize the TMC5160 driver with full configuration.">
<polygon fill="white" stroke="#666666" points="552,-74 404,-74 404,-55 552,-55 552,-74"/>
<text text-anchor="middle" x="478" y="-62" font-family="Helvetica,sans-Serif" font-size="10.00">Tmc5160Handler::Initialize</text>
</a>
</g>
</g>
<!-- Node2&#45;&gt;Node3 -->
<g id="edge2_Node000002_Node000003" class="edge">
<title>Node2&#45;&gt;Node3</title>
<g id="a_edge2_Node000002_Node000003"><a xlink:title=" ">
<path fill="none" stroke="#63b8ff" d="M368.29,-64.5C376.73,-64.5 385.25,-64.5 393.61,-64.5"/>
<polygon fill="#63b8ff" stroke="#63b8ff" points="393.7,-68 403.7,-64.5 393.7,-61 393.7,-68"/>
</a>
</g>
</g>
<!-- Node4 -->
<g id="Node000004" class="node">
<title>Node4</title>
<g id="a_Node000004"><a xlink:href="classLogger.html#a5e4bcdaea60b9ac227b564d780388769" target="_top" xlink:title="Log error message.">
<polygon fill="white" stroke="#666666" points="684.5,-130 605.5,-130 605.5,-111 684.5,-111 684.5,-130"/>
<text text-anchor="middle" x="645" y="-118" font-family="Helvetica,sans-Serif" font-size="10.00">Logger::Error</text>
</a>
</g>
</g>
<!-- Node3&#45;&gt;Node4 -->
<g id="edge3_Node000003_Node000004" class="edge">
<title>Node3&#45;&gt;Node4</title>
<g id="a_edge3_Node000003_Node000004"><a xlink:title=" ">
<path fill="none" stroke="#63b8ff" d="M505.81,-74.05C527.84,-81.85 559.88,-93.08 588,-102.5 593.2,-104.24 598.69,-106.05 604.12,-107.81"/>
<polygon fill="#63b8ff" stroke="#63b8ff" points="603.14,-111.17 613.73,-110.92 605.29,-104.51 603.14,-111.17"/>
</a>
</g>
</g>
<!-- Node7 -->
<g id="Node000007" class="node">
<title>Node7</title>
<g id="a_Node000007"><a xlink:href="classLogger.html#a5789d11f8f1356e2192c0023a089cbc4" target="_top" xlink:title="Get singleton instance.">
<polygon fill="white" stroke="#666666" points="702,-19 588,-19 588,0 702,0 702,-19"/>
<text text-anchor="middle" x="645" y="-7" font-family="Helvetica,sans-Serif" font-size="10.00">Logger::GetInstance</text>
</a>
</g>
</g>
<!-- Node3&#45;&gt;Node7 -->
<g id="edge6_Node000003_Node000007" class="edge">
<title>Node3&#45;&gt;Node7</title>
<g id="a_edge6_Node000003_Node000007"><a xlink:title=" ">
<path fill="none" stroke="#63b8ff" d="M507.74,-54.92C534.87,-45.88 575.73,-32.26 605.63,-22.29"/>
<polygon fill="#63b8ff" stroke="#63b8ff" points="606.93,-25.55 615.31,-19.06 604.72,-18.9 606.93,-25.55"/>
</a>
</g>
</g>
<!-- Node8 -->
<g id="Node000008" class="node">
<title>Node8</title>
<g id="a_Node000008"><a xlink:href="classLogger.html#a1c0c947d87884bca0395fd38d19d1102" target="_top" xlink:title="Log info message.">
<polygon fill="white" stroke="#666666" points="682,-93 608,-93 608,-74 682,-74 682,-93"/>
<text text-anchor="middle" x="645" y="-81" font-family="Helvetica,sans-Serif" font-size="10.00">Logger::Info</text>
</a>
</g>
</g>
<!-- Node3&#45;&gt;Node8 -->
<g id="edge7_Node000003_Node000008" class="edge">
<title>Node3&#45;&gt;Node8</title>
<g id="a_edge7_Node000003_Node000008"><a xlink:title=" ">
<path fill="none" stroke="#63b8ff" d="M552.33,-72.94C567.85,-74.73 583.8,-76.57 597.96,-78.2"/>
<polygon fill="#63b8ff" stroke="#63b8ff" points="597.58,-81.68 607.92,-79.35 598.38,-74.72 597.58,-81.68"/>
</a>
</g>
</g>
<!-- Node9 -->
<g id="Node000009" class="node">
<title>Node9</title>
<g id="a_Node000009"><a xlink:href="classLogger.html#a8c19c14724b0be1d2be63da4258c001a" target="_top" xlink:title="Log warning message.">
<polygon fill="white" stroke="#666666" points="685,-56 605,-56 605,-37 685,-37 685,-56"/>
<text text-anchor="middle" x="645" y="-44" font-family="Helvetica,sans-Serif" font-size="10.00">Logger::Warn</text>
</a>
</g>
</g>
<!-- Node3&#45;&gt;Node9 -->
<g id="edge10_Node000003_Node000009" class="edge">
<title>Node3&#45;&gt;Node9</title>
<g id="a_edge10_Node000003_Node000009"><a xlink:title=" ">
<path fill="none" stroke="#63b8ff" d="M552.33,-56.5C566.59,-54.94 581.23,-53.35 594.49,-51.9"/>
<polygon fill="#63b8ff" stroke="#63b8ff" points="595.25,-55.34 604.81,-50.78 594.49,-48.38 595.25,-55.34"/>
</a>
</g>
</g>
<!-- Node5 -->
<g id="Node000005" class="node">
<title>Node5</title>
<g id="a_Node000005"><a xlink:href="classLogger.html#a737b981213c02321a5235848334d7191" target="_top" xlink:title="Check if log level is enabled for tag.">
<polygon fill="white" stroke="#666666" points="867,-111 738,-111 738,-92 867,-92 867,-111"/>
<text text-anchor="middle" x="802.5" y="-99" font-family="Helvetica,sans-Serif" font-size="10.00">Logger::IsLevelEnabled</text>
</a>
</g>
</g>
<!-- Node4&#45;&gt;Node5 -->
<g id="edge4_Node000004_Node000005" class="edge">
<title>Node4&#45;&gt;Node5</title>
<g id="a_edge4_Node000004_Node000005"><a xlink:title=" ">
<path fill="none" stroke="#63b8ff" d="M684.84,-115.75C697.85,-114.16 712.82,-112.34 727.6,-110.53"/>
<polygon fill="#63b8ff" stroke="#63b8ff" points="728.28,-113.97 737.78,-109.29 727.43,-107.02 728.28,-113.97"/>
</a>
</g>
</g>
<!-- Node6 -->
<g id="Node000006" class="node">
<title>Node6</title>
<g id="a_Node000006"><a xlink:href="classLogger.html#aeede6ac18db92a47caede076ef188a13" target="_top" xlink:title="Internal logging method.">
<polygon fill="white" stroke="#666666" points="857.5,-74 747.5,-74 747.5,-55 857.5,-55 857.5,-74"/>
<text text-anchor="middle" x="802.5" y="-62" font-family="Helvetica,sans-Serif" font-size="10.00">Logger::LogInternal</text>
</a>
</g>
</g>
<!-- Node4&#45;&gt;Node6 -->
<g id="edge5_Node000004_Node000006" class="edge">
<title>Node4&#45;&gt;Node6</title>
<g id="a_edge5_Node000004_Node000006"><a xlink:title=" ">
<path fill="none" stroke="#63b8ff" d="M678.92,-110.98C686.59,-108.47 694.66,-105.59 702,-102.5 718.68,-95.48 721.25,-90.35 738,-83.5 743.53,-81.24 749.42,-79.12 755.31,-77.16"/>
<polygon fill="#63b8ff" stroke="#63b8ff" points="756.67,-80.41 765.14,-74.05 754.55,-73.73 756.67,-80.41"/>
</a>
</g>
</g>
<!-- Node8&#45;&gt;Node5 -->
<g id="edge8_Node000008_Node000005" class="edge">
<title>Node8&#45;&gt;Node5</title>
<g id="a_edge8_Node000008_Node000005"><a xlink:title=" ">
<path fill="none" stroke="#63b8ff" d="M682.07,-87.67C695.68,-89.25 711.72,-91.11 727.55,-92.94"/>
<polygon fill="#63b8ff" stroke="#63b8ff" points="727.55,-96.46 737.89,-94.14 728.36,-89.51 727.55,-96.46"/>
</a>
</g>
</g>
<!-- Node8&#45;&gt;Node6 -->
<g id="edge9_Node000008_Node000006" class="edge">
<title>Node8&#45;&gt;Node6</title>
<g id="a_edge9_Node000008_Node000006"><a xlink:title=" ">
<path fill="none" stroke="#63b8ff" d="M682.07,-79.09C698.49,-77.09 718.44,-74.65 737.3,-72.34"/>
<polygon fill="#63b8ff" stroke="#63b8ff" points="737.83,-75.81 747.33,-71.12 736.98,-68.86 737.83,-75.81"/>
</a>
</g>
</g>
<!-- Node9&#45;&gt;Node5 -->
<g id="edge11_Node000009_Node000005" class="edge">
<title>Node9&#45;&gt;Node5</title>
<g id="a_edge11_Node000009_Node000005"><a xlink:title=" ">
<path fill="none" stroke="#63b8ff" d="M676.51,-56.01C684.86,-58.84 693.85,-62.1 702,-65.5 718.51,-72.39 721.32,-77.03 738,-83.5 743.07,-85.47 748.45,-87.33 753.85,-89.05"/>
<polygon fill="#63b8ff" stroke="#63b8ff" points="752.92,-92.42 763.51,-91.99 754.96,-85.73 752.92,-92.42"/>
</a>
</g>
</g>
<!-- Node9&#45;&gt;Node6 -->
<g id="edge12_Node000009_Node000006" class="edge">
<title>Node9&#45;&gt;Node6</title>
<g id="a_edge12_Node000009_Node000006"><a xlink:title=" ">
<path fill="none" stroke="#63b8ff" d="M685.24,-51.04C700.96,-52.86 719.49,-55.01 737.08,-57.04"/>
<polygon fill="#63b8ff" stroke="#63b8ff" points="736.96,-60.55 747.3,-58.23 737.77,-53.6 736.96,-60.55"/>
</a>
</g>
</g>
</g>
</svg>
