<?xml version="1.0" encoding="UTF-8" standalone="no"?>
<!DOCTYPE svg PUBLIC "-//W3C//DTD SVG 1.1//EN"
 "http://www.w3.org/Graphics/SVG/1.1/DTD/svg11.dtd">
<!-- Generated by graphviz version 2.43.0 (0)
 -->
<!-- Title: Pcal95555Handler::GetDriver Pages: 1 -->
<svg width="1117pt" height="38pt"
 viewBox="0.00 0.00 1117.00 38.00" xmlns="http://www.w3.org/2000/svg" xmlns:xlink="http://www.w3.org/1999/xlink">
<g id="graph0" class="graph" transform="scale(1 1) rotate(0) translate(4 34)">
<title>Pcal95555Handler::GetDriver</title>
<!-- Node1 -->
<g id="Node000001" class="node">
<title>Node1</title>
<g id="a_Node000001"><a xlink:title=" ">
<polygon fill="#999999" stroke="#666666" points="158,-24.5 0,-24.5 0,-5.5 158,-5.5 158,-24.5"/>
<text text-anchor="middle" x="79" y="-12.5" font-family="Helvetica,sans-Serif" font-size="10.00">Pcal95555Handler::GetDriver</text>
</a>
</g>
</g>
<!-- Node2 -->
<g id="Node000002" class="node">
<title>Node2</title>
<g id="a_Node000002"><a xlink:href="classPcal95555Handler.html#a6715e51d5d09a2466b3b86820b9f5ea6" target="_top" xlink:title="Get the underlying PCAL95555 driver for advanced register&#45;level operations.">
<polygon fill="white" stroke="#666666" points="352,-24.5 194,-24.5 194,-5.5 352,-5.5 352,-24.5"/>
<text text-anchor="middle" x="273" y="-12.5" font-family="Helvetica,sans-Serif" font-size="10.00">Pcal95555Handler::GetDriver</text>
</a>
</g>
</g>
<!-- Node1&#45;&gt;Node2 -->
<g id="edge1_Node000001_Node000002" class="edge">
<title>Node1&#45;&gt;Node2</title>
<g id="a_edge1_Node000001_Node000002"><a xlink:title=" ">
<path fill="none" stroke="#63b8ff" d="M158.09,-15C166.6,-15 175.3,-15 183.92,-15"/>
<polygon fill="#63b8ff" stroke="#63b8ff" points="183.98,-18.5 193.98,-15 183.98,-11.5 183.98,-18.5"/>
</a>
</g>
</g>
<!-- Node3 -->
<g id="Node000003" class="node">
<title>Node3</title>
<g id="a_Node000003"><a xlink:href="classPcal95555Handler.html#a7d8ed72bf4fc9dfcb0be4877deec99b3" target="_top" xlink:title="Check init state under already&#45;held handler_mutex_.">
<polygon fill="white" stroke="#666666" points="532,-30 388,-30 388,0 532,0 532,-30"/>
<text text-anchor="start" x="396" y="-18" font-family="Helvetica,sans-Serif" font-size="10.00">Pcal95555Handler::Ensure</text>
<text text-anchor="middle" x="460" y="-7" font-family="Helvetica,sans-Serif" font-size="10.00">InitializedLocked</text>
</a>
</g>
</g>
<!-- Node2&#45;&gt;Node3 -->
<g id="edge2_Node000002_Node000003" class="edge">
<title>Node2&#45;&gt;Node3</title>
<g id="a_edge2_Node000002_Node000003"><a xlink:title=" ">
<path fill="none" stroke="#63b8ff" d="M352.19,-15C360.6,-15 369.18,-15 377.63,-15"/>
<polygon fill="#63b8ff" stroke="#63b8ff" points="377.85,-18.5 387.85,-15 377.85,-11.5 377.85,-18.5"/>
</a>
</g>
</g>
<!-- Node4 -->
<g id="Node000004" class="node">
<title>Node4</title>
<g id="a_Node000004"><a xlink:href="classPcal95555Handler.html#a5c2e68d6c9e39e373d40e94f5e951558" target="_top" xlink:title="Internal initialization (called by EnsureInitialized under mutex).">
<polygon fill="white" stroke="#666666" points="721,-24.5 568,-24.5 568,-5.5 721,-5.5 721,-24.5"/>
<text text-anchor="middle" x="644.5" y="-12.5" font-family="Helvetica,sans-Serif" font-size="10.00">Pcal95555Handler::Initialize</text>
</a>
</g>
</g>
<!-- Node3&#45;&gt;Node4 -->
<g id="edge3_Node000003_Node000004" class="edge">
<title>Node3&#45;&gt;Node4</title>
<g id="a_edge3_Node000003_Node000004"><a xlink:title=" ">
<path fill="none" stroke="#63b8ff" d="M532.08,-15C540.5,-15 549.16,-15 557.75,-15"/>
<polygon fill="#63b8ff" stroke="#63b8ff" points="557.79,-18.5 567.79,-15 557.79,-11.5 557.79,-18.5"/>
</a>
</g>
</g>
<!-- Node5 -->
<g id="Node000005" class="node">
<title>Node5</title>
<g id="a_Node000005"><a xlink:href="classPcal95555Handler.html#add6bf45bbac47b7d8d579fbd9bc50d2e" target="_top" xlink:title="Configure the hardware interrupt pin (falling edge, active&#45;low).">
<polygon fill="white" stroke="#666666" points="915,-30 757,-30 757,0 915,0 915,-30"/>
<text text-anchor="start" x="765" y="-18" font-family="Helvetica,sans-Serif" font-size="10.00">Pcal95555Handler::Configure</text>
<text text-anchor="middle" x="836" y="-7" font-family="Helvetica,sans-Serif" font-size="10.00">HardwareInterrupt</text>
</a>
</g>
</g>
<!-- Node4&#45;&gt;Node5 -->
<g id="edge4_Node000004_Node000005" class="edge">
<title>Node4&#45;&gt;Node5</title>
<g id="a_edge4_Node000004_Node000005"><a xlink:title=" ">
<path fill="none" stroke="#63b8ff" d="M721.21,-15C729.66,-15 738.32,-15 746.9,-15"/>
<polygon fill="#63b8ff" stroke="#63b8ff" points="746.93,-18.5 756.93,-15 746.93,-11.5 746.93,-18.5"/>
</a>
</g>
</g>
<!-- Node6 -->
<g id="Node000006" class="node">
<title>Node6</title>
<g id="a_Node000006"><a xlink:href="classPcal95555Handler.html#a87e8b50faf5d3d815227068ff26b1a6b" target="_top" xlink:title="Static ISR callback for the hardware interrupt pin.">
<polygon fill="white" stroke="#666666" points="1109,-30 951,-30 951,0 1109,0 1109,-30"/>
<text text-anchor="start" x="959" y="-18" font-family="Helvetica,sans-Serif" font-size="10.00">Pcal95555Handler::Hardware</text>
<text text-anchor="middle" x="1030" y="-7" font-family="Helvetica,sans-Serif" font-size="10.00">InterruptCallback</text>
</a>
</g>
</g>
<!-- Node5&#45;&gt;Node6 -->
<g id="edge5_Node000005_Node000006" class="edge">
<title>Node5&#45;&gt;Node6</title>
<g id="a_edge5_Node000005_Node000006"><a xlink:title=" ">
<path fill="none" stroke="#63b8ff" d="M915.09,-15C923.6,-15 932.3,-15 940.92,-15"/>
<polygon fill="#63b8ff" stroke="#63b8ff" points="940.98,-18.5 950.98,-15 940.98,-11.5 940.98,-18.5"/>
</a>
</g>
</g>
</g>
</svg>
