<?xml version="1.0" encoding="UTF-8" standalone="no"?>
<!DOCTYPE svg PUBLIC "-//W3C//DTD SVG 1.1//EN"
 "http://www.w3.org/Graphics/SVG/1.1/DTD/svg11.dtd">
<!-- Generated by graphviz version 2.43.0 (0)
 -->
<!-- Title: Tmc9660Handler::Adc::ReadCurrentSenseChannel Pages: 1 -->
<svg width="1085pt" height="113pt"
 viewBox="0.00 0.00 1085.00 112.50" xmlns="http://www.w3.org/2000/svg" xmlns:xlink="http://www.w3.org/1999/xlink">
<g id="graph0" class="graph" transform="scale(1 1) rotate(0) translate(4 108.5)">
<title>Tmc9660Handler::Adc::ReadCurrentSenseChannel</title>
<!-- Node1 -->
<g id="Node000001" class="node">
<title>Node1</title>
<g id="a_Node000001"><a xlink:title="Read a phase current sense channel.">
<polygon fill="#999999" stroke="#666666" points="152,-51 0,-51 0,-21 152,-21 152,-51"/>
<text text-anchor="start" x="8" y="-39" font-family="Helvetica,sans-Serif" font-size="10.00">Tmc9660Handler::Adc</text>
<text text-anchor="middle" x="76" y="-28" font-family="Helvetica,sans-Serif" font-size="10.00">::ReadCurrentSenseChannel</text>
</a>
</g>
</g>
<!-- Node2 -->
<g id="Node000002" class="node">
<title>Node2</title>
<g id="a_Node000002"><a xlink:href="classTmc9660Handler.html#a393382194d0602e7aa02da6a8fd7a20a" target="_top" xlink:title="Get a reference to the Temperature wrapper.">
<polygon fill="white" stroke="#666666" points="355,-45.5 188,-45.5 188,-26.5 355,-26.5 355,-45.5"/>
<text text-anchor="middle" x="271.5" y="-33.5" font-family="Helvetica,sans-Serif" font-size="10.00">Tmc9660Handler::temperature</text>
</a>
</g>
</g>
<!-- Node1&#45;&gt;Node2 -->
<g id="edge1_Node000001_Node000002" class="edge">
<title>Node1&#45;&gt;Node2</title>
<g id="a_edge1_Node000001_Node000002"><a xlink:title=" ">
<path fill="none" stroke="#63b8ff" d="M152.09,-36C160.49,-36 169.12,-36 177.7,-36"/>
<polygon fill="#63b8ff" stroke="#63b8ff" points="177.75,-39.5 187.75,-36 177.75,-32.5 177.75,-39.5"/>
</a>
</g>
</g>
<!-- Node2&#45;&gt;Node2 -->
<g id="edge12_Node000002_Node000002" class="edge">
<title>Node2&#45;&gt;Node2</title>
<g id="a_edge12_Node000002_Node000002"><a xlink:title=" ">
<path fill="none" stroke="#63b8ff" d="M241.6,-45.58C227.05,-54.23 237.02,-63.5 271.5,-63.5 295.21,-63.5 307.32,-59.12 307.86,-53.57"/>
<polygon fill="#63b8ff" stroke="#63b8ff" points="310.41,-51.16 301.4,-45.58 304.96,-55.56 310.41,-51.16"/>
</a>
</g>
</g>
<!-- Node3 -->
<g id="Node000003" class="node">
<title>Node3</title>
<g id="a_Node000003"><a xlink:href="classTmc9660Handler.html#a5a279ae9d4b5a8e0d71cb24577ad88ea" target="_top" xlink:title="Ensure driver is initialized (lazy init entrypoint).">
<polygon fill="white" stroke="#666666" points="578,-45.5 391,-45.5 391,-26.5 578,-26.5 578,-45.5"/>
<text text-anchor="middle" x="484.5" y="-33.5" font-family="Helvetica,sans-Serif" font-size="10.00">Tmc9660Handler::EnsureInitialized</text>
</a>
</g>
</g>
<!-- Node2&#45;&gt;Node3 -->
<g id="edge2_Node000002_Node000003" class="edge">
<title>Node2&#45;&gt;Node3</title>
<g id="a_edge2_Node000002_Node000003"><a xlink:title=" ">
<path fill="none" stroke="#63b8ff" d="M355.29,-36C363.67,-36 372.25,-36 380.81,-36"/>
<polygon fill="#63b8ff" stroke="#63b8ff" points="380.83,-39.5 390.83,-36 380.83,-32.5 380.83,-39.5"/>
</a>
</g>
</g>
<!-- Node4 -->
<g id="Node000004" class="node">
<title>Node4</title>
<g id="a_Node000004"><a xlink:href="classTmc9660Handler.html#adc564847f8ae26c47412aaee0758991c" target="_top" xlink:title="Initialize the TMC9660 device.">
<polygon fill="white" stroke="#666666" points="762,-67.5 614,-67.5 614,-48.5 762,-48.5 762,-67.5"/>
<text text-anchor="middle" x="688" y="-55.5" font-family="Helvetica,sans-Serif" font-size="10.00">Tmc9660Handler::Initialize</text>
</a>
</g>
</g>
<!-- Node3&#45;&gt;Node4 -->
<g id="edge3_Node000003_Node000004" class="edge">
<title>Node3&#45;&gt;Node4</title>
<g id="a_edge3_Node000003_Node000004"><a xlink:title=" ">
<path fill="none" stroke="#63b8ff" d="M572.71,-45.52C583,-46.65 593.48,-47.79 603.72,-48.91"/>
<polygon fill="#63b8ff" stroke="#63b8ff" points="603.53,-52.41 613.85,-50.01 604.29,-45.45 603.53,-52.41"/>
</a>
</g>
</g>
<!-- Node10 -->
<g id="Node000010" class="node">
<title>Node10</title>
<g id="a_Node000010"><a xlink:href="classTmc9660Handler.html#a13db97d201a287d8aa60384e04070b9f" target="_top" xlink:title="Check if the TMC9660 driver has been initialized and is ready.">
<polygon fill="white" stroke="#666666" points="760,-30 616,-30 616,0 760,0 760,-30"/>
<text text-anchor="start" x="624" y="-18" font-family="Helvetica,sans-Serif" font-size="10.00">Tmc9660Handler::IsDriver</text>
<text text-anchor="middle" x="688" y="-7" font-family="Helvetica,sans-Serif" font-size="10.00">Ready</text>
</a>
</g>
</g>
<!-- Node3&#45;&gt;Node10 -->
<g id="edge11_Node000003_Node000010" class="edge">
<title>Node3&#45;&gt;Node10</title>
<g id="a_edge11_Node000003_Node000010"><a xlink:title=" ">
<path fill="none" stroke="#63b8ff" d="M576.82,-26.48C586.45,-25.48 596.2,-24.46 605.71,-23.47"/>
<polygon fill="#63b8ff" stroke="#63b8ff" points="606.34,-26.93 615.92,-22.41 605.61,-19.96 606.34,-26.93"/>
</a>
</g>
</g>
<!-- Node5 -->
<g id="Node000005" class="node">
<title>Node5</title>
<g id="a_Node000005"><a xlink:href="classLogger.html#adce17848a5844e053bfd314863dc1404" target="_top" xlink:title="Log error message.">
<polygon fill="white" stroke="#666666" points="894.5,-67.5 815.5,-67.5 815.5,-48.5 894.5,-48.5 894.5,-67.5"/>
<text text-anchor="middle" x="855" y="-55.5" font-family="Helvetica,sans-Serif" font-size="10.00">Logger::Error</text>
</a>
</g>
</g>
<!-- Node4&#45;&gt;Node5 -->
<g id="edge4_Node000004_Node000005" class="edge">
<title>Node4&#45;&gt;Node5</title>
<g id="a_edge4_Node000004_Node000005"><a xlink:title=" ">
<path fill="none" stroke="#63b8ff" d="M762.33,-58C776.73,-58 791.5,-58 804.87,-58"/>
<polygon fill="#63b8ff" stroke="#63b8ff" points="805.26,-61.5 815.26,-58 805.26,-54.5 805.26,-61.5"/>
</a>
</g>
</g>
<!-- Node8 -->
<g id="Node000008" class="node">
<title>Node8</title>
<g id="a_Node000008"><a xlink:href="classLogger.html#a5789d11f8f1356e2192c0023a089cbc4" target="_top" xlink:title="Get singleton instance.">
<polygon fill="white" stroke="#666666" points="912,-30.5 798,-30.5 798,-11.5 912,-11.5 912,-30.5"/>
<text text-anchor="middle" x="855" y="-18.5" font-family="Helvetica,sans-Serif" font-size="10.00">Logger::GetInstance</text>
</a>
</g>
</g>
<!-- Node4&#45;&gt;Node8 -->
<g id="edge7_Node000004_Node000008" class="edge">
<title>Node4&#45;&gt;Node8</title>
<g id="a_edge7_Node000004_Node000008"><a xlink:title=" ">
<path fill="none" stroke="#63b8ff" d="M731.49,-48.47C752.87,-43.68 778.97,-37.82 801.58,-32.75"/>
<polygon fill="#63b8ff" stroke="#63b8ff" points="802.37,-36.16 811.37,-30.56 800.84,-29.33 802.37,-36.16"/>
</a>
</g>
</g>
<!-- Node9 -->
<g id="Node000009" class="node">
<title>Node9</title>
<g id="a_Node000009"><a xlink:href="classLogger.html#a4681229c521795685fc14f6b55c82300" target="_top" xlink:title="Log info message.">
<polygon fill="white" stroke="#666666" points="892,-104.5 818,-104.5 818,-85.5 892,-85.5 892,-104.5"/>
<text text-anchor="middle" x="855" y="-92.5" font-family="Helvetica,sans-Serif" font-size="10.00">Logger::Info</text>
</a>
</g>
</g>
<!-- Node4&#45;&gt;Node9 -->
<g id="edge8_Node000004_Node000009" class="edge">
<title>Node4&#45;&gt;Node9</title>
<g id="a_edge8_Node000004_Node000009"><a xlink:title=" ">
<path fill="none" stroke="#63b8ff" d="M731.49,-67.53C754.89,-72.77 783.94,-79.29 807.89,-84.66"/>
<polygon fill="#63b8ff" stroke="#63b8ff" points="807.28,-88.11 817.8,-86.88 808.81,-81.28 807.28,-88.11"/>
</a>
</g>
</g>
<!-- Node6 -->
<g id="Node000006" class="node">
<title>Node6</title>
<g id="a_Node000006"><a xlink:href="classLogger.html#af9e84e0ff6bd538e4f9ed8dcebc3e2f0" target="_top" xlink:title="Check if log level is enabled for tag.">
<polygon fill="white" stroke="#666666" points="1077,-104.5 948,-104.5 948,-85.5 1077,-85.5 1077,-104.5"/>
<text text-anchor="middle" x="1012.5" y="-92.5" font-family="Helvetica,sans-Serif" font-size="10.00">Logger::IsLevelEnabled</text>
</a>
</g>
</g>
<!-- Node5&#45;&gt;Node6 -->
<g id="edge5_Node000005_Node000006" class="edge">
<title>Node5&#45;&gt;Node6</title>
<g id="a_edge5_Node000005_Node000006"><a xlink:title=" ">
<path fill="none" stroke="#63b8ff" d="M894.84,-67.24C915.03,-72.05 939.94,-77.97 961.55,-83.11"/>
<polygon fill="#63b8ff" stroke="#63b8ff" points="961,-86.58 971.53,-85.49 962.62,-79.77 961,-86.58"/>
</a>
</g>
</g>
<!-- Node7 -->
<g id="Node000007" class="node">
<title>Node7</title>
<g id="a_Node000007"><a xlink:href="classLogger.html#a6adb205db597526fb91ad20067400394" target="_top" xlink:title="Internal logging method.">
<polygon fill="white" stroke="#666666" points="1067.5,-67.5 957.5,-67.5 957.5,-48.5 1067.5,-48.5 1067.5,-67.5"/>
<text text-anchor="middle" x="1012.5" y="-55.5" font-family="Helvetica,sans-Serif" font-size="10.00">Logger::LogInternal</text>
</a>
</g>
</g>
<!-- Node5&#45;&gt;Node7 -->
<g id="edge6_Node000005_Node000007" class="edge">
<title>Node5&#45;&gt;Node7</title>
<g id="a_edge6_Node000005_Node000007"><a xlink:title=" ">
<path fill="none" stroke="#63b8ff" d="M894.84,-58C910.63,-58 929.31,-58 947.03,-58"/>
<polygon fill="#63b8ff" stroke="#63b8ff" points="947.33,-61.5 957.33,-58 947.33,-54.5 947.33,-61.5"/>
</a>
</g>
</g>
<!-- Node9&#45;&gt;Node6 -->
<g id="edge9_Node000009_Node000006" class="edge">
<title>Node9&#45;&gt;Node6</title>
<g id="a_edge9_Node000009_Node000006"><a xlink:title=" ">
<path fill="none" stroke="#63b8ff" d="M892.07,-95C905.68,-95 921.72,-95 937.55,-95"/>
<polygon fill="#63b8ff" stroke="#63b8ff" points="937.89,-98.5 947.89,-95 937.89,-91.5 937.89,-98.5"/>
</a>
</g>
</g>
<!-- Node9&#45;&gt;Node7 -->
<g id="edge10_Node000009_Node000007" class="edge">
<title>Node9&#45;&gt;Node7</title>
<g id="a_edge10_Node000009_Node000007"><a xlink:title=" ">
<path fill="none" stroke="#63b8ff" d="M892.07,-86.42C912.78,-81.49 939.09,-75.23 961.74,-69.84"/>
<polygon fill="#63b8ff" stroke="#63b8ff" points="962.61,-73.23 971.53,-67.51 960.99,-66.42 962.61,-73.23"/>
</a>
</g>
</g>
</g>
</svg>
