<?xml version="1.0" encoding="UTF-8" standalone="no"?>
<!DOCTYPE svg PUBLIC "-//W3C//DTD SVG 1.1//EN"
 "http://www.w3.org/Graphics/SVG/1.1/DTD/svg11.dtd">
<!-- Generated by graphviz version 2.43.0 (0)
 -->
<!-- Title: Tmc9660Handler::GetMotorCurrent Pages: 1 -->
<svg width="1278pt" height="115pt"
 viewBox="0.00 0.00 1278.00 115.00" xmlns="http://www.w3.org/2000/svg" xmlns:xlink="http://www.w3.org/1999/xlink">
<g id="graph0" class="graph" transform="scale(1 1) rotate(0) translate(4 111)">
<title>Tmc9660Handler::GetMotorCurrent</title>
<!-- Node1 -->
<g id="Node000001" class="node">
<title>Node1</title>
<g id="a_Node000001"><a xlink:title="Read the instantaneous motor phase current.">
<polygon fill="#999999" stroke="#666666" points="152,-62.5 0,-62.5 0,-32.5 152,-32.5 152,-62.5"/>
<text text-anchor="start" x="8" y="-50.5" font-family="Helvetica,sans-Serif" font-size="10.00">Tmc9660Handler::GetMotor</text>
<text text-anchor="middle" x="76" y="-39.5" font-family="Helvetica,sans-Serif" font-size="10.00">Current</text>
</a>
</g>
</g>
<!-- Node2 -->
<g id="Node000002" class="node">
<title>Node2</title>
<g id="a_Node000002"><a xlink:href="classTmc9660Handler.html#a5a279ae9d4b5a8e0d71cb24577ad88ea" target="_top" xlink:title="Ensure driver is initialized (lazy init entrypoint).">
<polygon fill="white" stroke="#666666" points="771,-48 584,-48 584,-29 771,-29 771,-48"/>
<text text-anchor="middle" x="677.5" y="-36" font-family="Helvetica,sans-Serif" font-size="10.00">Tmc9660Handler::EnsureInitialized</text>
</a>
</g>
</g>
<!-- Node1&#45;&gt;Node2 -->
<g id="edge1_Node000001_Node000002" class="edge">
<title>Node1&#45;&gt;Node2</title>
<g id="a_edge1_Node000001_Node000002"><a xlink:title=" ">
<path fill="none" stroke="#63b8ff" d="M152.01,-61.12C245.26,-75.95 409.1,-95.1 548,-75.5 580.47,-70.92 616.23,-60.13 641.76,-51.38"/>
<polygon fill="#63b8ff" stroke="#63b8ff" points="643.08,-54.62 651.36,-48.02 640.76,-48.02 643.08,-54.62"/>
</a>
</g>
</g>
<!-- Node10 -->
<g id="Node000010" class="node">
<title>Node10</title>
<g id="a_Node000010"><a xlink:href="classTmc9660Handler.html#a393382194d0602e7aa02da6a8fd7a20a" target="_top" xlink:title="Get a reference to the Temperature wrapper.">
<polygon fill="white" stroke="#666666" points="548,-48 381,-48 381,-29 548,-29 548,-48"/>
<text text-anchor="middle" x="464.5" y="-36" font-family="Helvetica,sans-Serif" font-size="10.00">Tmc9660Handler::temperature</text>
</a>
</g>
</g>
<!-- Node1&#45;&gt;Node10 -->
<g id="edge11_Node000001_Node000010" class="edge">
<title>Node1&#45;&gt;Node10</title>
<g id="a_edge11_Node000001_Node000010"><a xlink:title=" ">
<path fill="none" stroke="#63b8ff" d="M152.44,-45.74C214.92,-44.29 303.96,-42.21 370.78,-40.66"/>
<polygon fill="#63b8ff" stroke="#63b8ff" points="370.98,-44.16 380.89,-40.42 370.81,-37.16 370.98,-44.16"/>
</a>
</g>
</g>
<!-- Node11 -->
<g id="Node000011" class="node">
<title>Node11</title>
<g id="a_Node000011"><a xlink:href="classTmc9660Handler.html#a4360829b58deda85e9da4b9cebee96f0" target="_top" xlink:title="Execute a function on the underlying typed TMC9660 driver.">
<polygon fill="white" stroke="#666666" points="345,-19 188,-19 188,0 345,0 345,-19"/>
<text text-anchor="middle" x="266.5" y="-7" font-family="Helvetica,sans-Serif" font-size="10.00">Tmc9660Handler::visitDriver</text>
</a>
</g>
</g>
<!-- Node1&#45;&gt;Node11 -->
<g id="edge14_Node000001_Node000011" class="edge">
<title>Node1&#45;&gt;Node11</title>
<g id="a_edge14_Node000001_Node000011"><a xlink:title=" ">
<path fill="none" stroke="#63b8ff" d="M151.5,-32.48C170.43,-28.67 190.47,-24.63 208.38,-21.02"/>
<polygon fill="#63b8ff" stroke="#63b8ff" points="209.26,-24.41 218.37,-19 207.88,-17.55 209.26,-24.41"/>
</a>
</g>
</g>
<!-- Node3 -->
<g id="Node000003" class="node">
<title>Node3</title>
<g id="a_Node000003"><a xlink:href="classTmc9660Handler.html#adc564847f8ae26c47412aaee0758991c" target="_top" xlink:title="Initialize the TMC9660 device.">
<polygon fill="white" stroke="#666666" points="955,-70 807,-70 807,-51 955,-51 955,-70"/>
<text text-anchor="middle" x="881" y="-58" font-family="Helvetica,sans-Serif" font-size="10.00">Tmc9660Handler::Initialize</text>
</a>
</g>
</g>
<!-- Node2&#45;&gt;Node3 -->
<g id="edge2_Node000002_Node000003" class="edge">
<title>Node2&#45;&gt;Node3</title>
<g id="a_edge2_Node000002_Node000003"><a xlink:title=" ">
<path fill="none" stroke="#63b8ff" d="M765.71,-48.02C776,-49.15 786.48,-50.29 796.72,-51.41"/>
<polygon fill="#63b8ff" stroke="#63b8ff" points="796.53,-54.91 806.85,-52.51 797.29,-47.95 796.53,-54.91"/>
</a>
</g>
</g>
<!-- Node9 -->
<g id="Node000009" class="node">
<title>Node9</title>
<g id="a_Node000009"><a xlink:href="classTmc9660Handler.html#a13db97d201a287d8aa60384e04070b9f" target="_top" xlink:title="Check if the TMC9660 driver has been initialized and is ready.">
<polygon fill="white" stroke="#666666" points="953,-32.5 809,-32.5 809,-2.5 953,-2.5 953,-32.5"/>
<text text-anchor="start" x="817" y="-20.5" font-family="Helvetica,sans-Serif" font-size="10.00">Tmc9660Handler::IsDriver</text>
<text text-anchor="middle" x="881" y="-9.5" font-family="Helvetica,sans-Serif" font-size="10.00">Ready</text>
</a>
</g>
</g>
<!-- Node2&#45;&gt;Node9 -->
<g id="edge10_Node000002_Node000009" class="edge">
<title>Node2&#45;&gt;Node9</title>
<g id="a_edge10_Node000002_Node000009"><a xlink:title=" ">
<path fill="none" stroke="#63b8ff" d="M769.82,-28.98C779.45,-27.98 789.2,-26.96 798.71,-25.97"/>
<polygon fill="#63b8ff" stroke="#63b8ff" points="799.34,-29.43 808.92,-24.91 798.61,-22.46 799.34,-29.43"/>
</a>
</g>
</g>
<!-- Node4 -->
<g id="Node000004" class="node">
<title>Node4</title>
<g id="a_Node000004"><a xlink:href="classLogger.html#adce17848a5844e053bfd314863dc1404" target="_top" xlink:title="Log error message.">
<polygon fill="white" stroke="#666666" points="1087.5,-70 1008.5,-70 1008.5,-51 1087.5,-51 1087.5,-70"/>
<text text-anchor="middle" x="1048" y="-58" font-family="Helvetica,sans-Serif" font-size="10.00">Logger::Error</text>
</a>
</g>
</g>
<!-- Node3&#45;&gt;Node4 -->
<g id="edge3_Node000003_Node000004" class="edge">
<title>Node3&#45;&gt;Node4</title>
<g id="a_edge3_Node000003_Node000004"><a xlink:title=" ">
<path fill="none" stroke="#63b8ff" d="M955.33,-60.5C969.73,-60.5 984.5,-60.5 997.87,-60.5"/>
<polygon fill="#63b8ff" stroke="#63b8ff" points="998.26,-64 1008.26,-60.5 998.26,-57 998.26,-64"/>
</a>
</g>
</g>
<!-- Node7 -->
<g id="Node000007" class="node">
<title>Node7</title>
<g id="a_Node000007"><a xlink:href="classLogger.html#a5789d11f8f1356e2192c0023a089cbc4" target="_top" xlink:title="Get singleton instance.">
<polygon fill="white" stroke="#666666" points="1105,-33 991,-33 991,-14 1105,-14 1105,-33"/>
<text text-anchor="middle" x="1048" y="-21" font-family="Helvetica,sans-Serif" font-size="10.00">Logger::GetInstance</text>
</a>
</g>
</g>
<!-- Node3&#45;&gt;Node7 -->
<g id="edge6_Node000003_Node000007" class="edge">
<title>Node3&#45;&gt;Node7</title>
<g id="a_edge6_Node000003_Node000007"><a xlink:title=" ">
<path fill="none" stroke="#63b8ff" d="M924.49,-50.97C945.87,-46.18 971.97,-40.32 994.58,-35.25"/>
<polygon fill="#63b8ff" stroke="#63b8ff" points="995.37,-38.66 1004.37,-33.06 993.84,-31.83 995.37,-38.66"/>
</a>
</g>
</g>
<!-- Node8 -->
<g id="Node000008" class="node">
<title>Node8</title>
<g id="a_Node000008"><a xlink:href="classLogger.html#a4681229c521795685fc14f6b55c82300" target="_top" xlink:title="Log info message.">
<polygon fill="white" stroke="#666666" points="1085,-107 1011,-107 1011,-88 1085,-88 1085,-107"/>
<text text-anchor="middle" x="1048" y="-95" font-family="Helvetica,sans-Serif" font-size="10.00">Logger::Info</text>
</a>
</g>
</g>
<!-- Node3&#45;&gt;Node8 -->
<g id="edge7_Node000003_Node000008" class="edge">
<title>Node3&#45;&gt;Node8</title>
<g id="a_edge7_Node000003_Node000008"><a xlink:title=" ">
<path fill="none" stroke="#63b8ff" d="M924.49,-70.03C947.89,-75.27 976.94,-81.79 1000.89,-87.16"/>
<polygon fill="#63b8ff" stroke="#63b8ff" points="1000.28,-90.61 1010.8,-89.38 1001.81,-83.78 1000.28,-90.61"/>
</a>
</g>
</g>
<!-- Node5 -->
<g id="Node000005" class="node">
<title>Node5</title>
<g id="a_Node000005"><a xlink:href="classLogger.html#af9e84e0ff6bd538e4f9ed8dcebc3e2f0" target="_top" xlink:title="Check if log level is enabled for tag.">
<polygon fill="white" stroke="#666666" points="1270,-107 1141,-107 1141,-88 1270,-88 1270,-107"/>
<text text-anchor="middle" x="1205.5" y="-95" font-family="Helvetica,sans-Serif" font-size="10.00">Logger::IsLevelEnabled</text>
</a>
</g>
</g>
<!-- Node4&#45;&gt;Node5 -->
<g id="edge4_Node000004_Node000005" class="edge">
<title>Node4&#45;&gt;Node5</title>
<g id="a_edge4_Node000004_Node000005"><a xlink:title=" ">
<path fill="none" stroke="#63b8ff" d="M1087.84,-69.74C1108.03,-74.55 1132.94,-80.47 1154.55,-85.61"/>
<polygon fill="#63b8ff" stroke="#63b8ff" points="1154,-89.08 1164.53,-87.99 1155.62,-82.27 1154,-89.08"/>
</a>
</g>
</g>
<!-- Node6 -->
<g id="Node000006" class="node">
<title>Node6</title>
<g id="a_Node000006"><a xlink:href="classLogger.html#a6adb205db597526fb91ad20067400394" target="_top" xlink:title="Internal logging method.">
<polygon fill="white" stroke="#666666" points="1260.5,-70 1150.5,-70 1150.5,-51 1260.5,-51 1260.5,-70"/>
<text text-anchor="middle" x="1205.5" y="-58" font-family="Helvetica,sans-Serif" font-size="10.00">Logger::LogInternal</text>
</a>
</g>
</g>
<!-- Node4&#45;&gt;Node6 -->
<g id="edge5_Node000004_Node000006" class="edge">
<title>Node4&#45;&gt;Node6</title>
<g id="a_edge5_Node000004_Node000006"><a xlink:title=" ">
<path fill="none" stroke="#63b8ff" d="M1087.84,-60.5C1103.63,-60.5 1122.31,-60.5 1140.03,-60.5"/>
<polygon fill="#63b8ff" stroke="#63b8ff" points="1140.33,-64 1150.33,-60.5 1140.33,-57 1140.33,-64"/>
</a>
</g>
</g>
<!-- Node8&#45;&gt;Node5 -->
<g id="edge8_Node000008_Node000005" class="edge">
<title>Node8&#45;&gt;Node5</title>
<g id="a_edge8_Node000008_Node000005"><a xlink:title=" ">
<path fill="none" stroke="#63b8ff" d="M1085.07,-97.5C1098.68,-97.5 1114.72,-97.5 1130.55,-97.5"/>
<polygon fill="#63b8ff" stroke="#63b8ff" points="1130.89,-101 1140.89,-97.5 1130.89,-94 1130.89,-101"/>
</a>
</g>
</g>
<!-- Node8&#45;&gt;Node6 -->
<g id="edge9_Node000008_Node000006" class="edge">
<title>Node8&#45;&gt;Node6</title>
<g id="a_edge9_Node000008_Node000006"><a xlink:title=" ">
<path fill="none" stroke="#63b8ff" d="M1085.07,-88.92C1105.78,-83.99 1132.09,-77.73 1154.74,-72.34"/>
<polygon fill="#63b8ff" stroke="#63b8ff" points="1155.61,-75.73 1164.53,-70.01 1153.99,-68.92 1155.61,-75.73"/>
</a>
</g>
</g>
<!-- Node10&#45;&gt;Node2 -->
<g id="edge12_Node000010_Node000002" class="edge">
<title>Node10&#45;&gt;Node2</title>
<g id="a_edge12_Node000010_Node000002"><a xlink:title=" ">
<path fill="none" stroke="#63b8ff" d="M548.29,-38.5C556.67,-38.5 565.25,-38.5 573.81,-38.5"/>
<polygon fill="#63b8ff" stroke="#63b8ff" points="573.83,-42 583.83,-38.5 573.83,-35 573.83,-42"/>
</a>
</g>
</g>
<!-- Node10&#45;&gt;Node10 -->
<g id="edge13_Node000010_Node000010" class="edge">
<title>Node10&#45;&gt;Node10</title>
<g id="a_edge13_Node000010_Node000010"><a xlink:title=" ">
<path fill="none" stroke="#63b8ff" d="M433.98,-48.08C419.14,-56.73 429.31,-66 464.5,-66 489.24,-66 501.62,-61.42 501.62,-55.69"/>
<polygon fill="#63b8ff" stroke="#63b8ff" points="504.22,-53.34 495.02,-48.08 498.93,-57.93 504.22,-53.34"/>
</a>
</g>
</g>
<!-- Node11&#45;&gt;Node2 -->
<g id="edge15_Node000011_Node000002" class="edge">
<title>Node11&#45;&gt;Node2</title>
<g id="a_edge15_Node000011_Node000002"><a xlink:title=" ">
<path fill="none" stroke="#63b8ff" d="M345.04,-9.95C401.43,-10.84 479.58,-13.24 548,-19.5 568.65,-21.39 591.05,-24.37 611.27,-27.42"/>
<polygon fill="#63b8ff" stroke="#63b8ff" points="610.9,-30.91 621.32,-28.97 611.97,-23.99 610.9,-30.91"/>
</a>
</g>
</g>
<!-- Node11&#45;&gt;Node10 -->
<g id="edge16_Node000011_Node000010" class="edge">
<title>Node11&#45;&gt;Node10</title>
<g id="a_edge16_Node000011_Node000010"><a xlink:title=" ">
<path fill="none" stroke="#63b8ff" d="M331.95,-19.04C350.2,-21.74 370.22,-24.7 389.02,-27.48"/>
<polygon fill="#63b8ff" stroke="#63b8ff" points="388.61,-30.96 399.01,-28.96 389.63,-24.03 388.61,-30.96"/>
</a>
</g>
</g>
</g>
</svg>
