<?xml version="1.0" encoding="UTF-8" standalone="no"?>
<!DOCTYPE svg PUBLIC "-//W3C//DTD SVG 1.1//EN"
 "http://www.w3.org/Graphics/SVG/1.1/DTD/svg11.dtd">
<!-- Generated by graphviz version 2.43.0 (0)
 -->
<!-- Title: Max22200Handler::GetDriver Pages: 1 -->
<svg width="1319pt" height="203pt"
 viewBox="0.00 0.00 1319.00 203.50" xmlns="http://www.w3.org/2000/svg" xmlns:xlink="http://www.w3.org/1999/xlink">
<g id="graph0" class="graph" transform="scale(1 1) rotate(0) translate(4 199.5)">
<title>Max22200Handler::GetDriver</title>
<!-- Node1 -->
<g id="Node000001" class="node">
<title>Node1</title>
<g id="a_Node000001"><a xlink:title=" ">
<polygon fill="#999999" stroke="#666666" points="159,-93 0,-93 0,-74 159,-74 159,-93"/>
<text text-anchor="middle" x="79.5" y="-81" font-family="Helvetica,sans-Serif" font-size="10.00">Max22200Handler::GetDriver</text>
</a>
</g>
</g>
<!-- Node2 -->
<g id="Node000002" class="node">
<title>Node2</title>
<g id="a_Node000002"><a xlink:href="classMax22200Handler.html#a001e00b9d9a02611b51951f16bcb78d1" target="_top" xlink:title="Get the underlying driver for advanced operations.">
<polygon fill="white" stroke="#666666" points="354,-93 195,-93 195,-74 354,-74 354,-93"/>
<text text-anchor="middle" x="274.5" y="-81" font-family="Helvetica,sans-Serif" font-size="10.00">Max22200Handler::GetDriver</text>
</a>
</g>
</g>
<!-- Node1&#45;&gt;Node2 -->
<g id="edge1_Node000001_Node000002" class="edge">
<title>Node1&#45;&gt;Node2</title>
<g id="a_edge1_Node000001_Node000002"><a xlink:title=" ">
<path fill="none" stroke="#63b8ff" d="M159,-83.5C167.48,-83.5 176.14,-83.5 184.73,-83.5"/>
<polygon fill="#63b8ff" stroke="#63b8ff" points="184.76,-87 194.76,-83.5 184.76,-80 184.76,-87"/>
</a>
</g>
</g>
<!-- Node3 -->
<g id="Node000003" class="node">
<title>Node3</title>
<g id="a_Node000003"><a xlink:href="classMax22200Handler.html#aa00edacb247660349767fa4521121104" target="_top" xlink:title=" ">
<polygon fill="white" stroke="#666666" points="583,-98.5 390,-98.5 390,-68.5 583,-68.5 583,-98.5"/>
<text text-anchor="start" x="398" y="-86.5" font-family="Helvetica,sans-Serif" font-size="10.00">Max22200Handler::EnsureInitialized</text>
<text text-anchor="middle" x="486.5" y="-75.5" font-family="Helvetica,sans-Serif" font-size="10.00">Locked</text>
</a>
</g>
</g>
<!-- Node2&#45;&gt;Node3 -->
<g id="edge2_Node000002_Node000003" class="edge">
<title>Node2&#45;&gt;Node3</title>
<g id="a_edge2_Node000002_Node000003"><a xlink:title=" ">
<path fill="none" stroke="#63b8ff" d="M354.29,-83.5C362.66,-83.5 371.26,-83.5 379.87,-83.5"/>
<polygon fill="#63b8ff" stroke="#63b8ff" points="379.96,-87 389.96,-83.5 379.96,-80 379.96,-87"/>
</a>
</g>
</g>
<!-- Node4 -->
<g id="Node000004" class="node">
<title>Node4</title>
<g id="a_Node000004"><a xlink:href="classLogger.html#adce17848a5844e053bfd314863dc1404" target="_top" xlink:title="Log error message.">
<polygon fill="white" stroke="#666666" points="923,-19 844,-19 844,0 923,0 923,-19"/>
<text text-anchor="middle" x="883.5" y="-7" font-family="Helvetica,sans-Serif" font-size="10.00">Logger::Error</text>
</a>
</g>
</g>
<!-- Node3&#45;&gt;Node4 -->
<g id="edge3_Node000003_Node000004" class="edge">
<title>Node3&#45;&gt;Node4</title>
<g id="a_edge3_Node000003_Node000004"><a xlink:title=" ">
<path fill="none" stroke="#63b8ff" d="M567.91,-68.44C647.67,-53.49 767.3,-31.08 833.69,-18.64"/>
<polygon fill="#63b8ff" stroke="#63b8ff" points="834.69,-22.02 843.88,-16.74 833.4,-15.14 834.69,-22.02"/>
</a>
</g>
</g>
<!-- Node8 -->
<g id="Node000008" class="node">
<title>Node8</title>
<g id="a_Node000008"><a xlink:href="classLogger.html#a5789d11f8f1356e2192c0023a089cbc4" target="_top" xlink:title="Get singleton instance.">
<polygon fill="white" stroke="#666666" points="1115.5,-174 1001.5,-174 1001.5,-155 1115.5,-155 1115.5,-174"/>
<text text-anchor="middle" x="1058.5" y="-162" font-family="Helvetica,sans-Serif" font-size="10.00">Logger::GetInstance</text>
</a>
</g>
</g>
<!-- Node3&#45;&gt;Node8 -->
<g id="edge7_Node000003_Node000008" class="edge">
<title>Node3&#45;&gt;Node8</title>
<g id="a_edge7_Node000003_Node000008"><a xlink:title=" ">
<path fill="none" stroke="#63b8ff" d="M521.34,-98.51C579,-123.17 700.56,-171.24 809,-188.5 874.4,-198.91 892.24,-196.32 958,-188.5 977.32,-186.2 998.32,-181.48 1016.03,-176.83"/>
<polygon fill="#63b8ff" stroke="#63b8ff" points="1017.3,-180.11 1026.03,-174.11 1015.46,-173.35 1017.3,-180.11"/>
</a>
</g>
</g>
<!-- Node9 -->
<g id="Node000009" class="node">
<title>Node9</title>
<g id="a_Node000009"><a xlink:href="classMax22200Handler.html#a0dce05cd6639a10e52c0f669b72baf52" target="_top" xlink:title="Initialize driver (ENABLE HIGH, read/clear STATUS, set ACTIVE).">
<polygon fill="white" stroke="#666666" points="773,-93 619,-93 619,-74 773,-74 773,-93"/>
<text text-anchor="middle" x="696" y="-81" font-family="Helvetica,sans-Serif" font-size="10.00">Max22200Handler::Initialize</text>
</a>
</g>
</g>
<!-- Node3&#45;&gt;Node9 -->
<g id="edge8_Node000003_Node000009" class="edge">
<title>Node3&#45;&gt;Node9</title>
<g id="a_edge8_Node000003_Node000009"><a xlink:title=" ">
<path fill="none" stroke="#63b8ff" d="M583.05,-83.5C591.6,-83.5 600.22,-83.5 608.68,-83.5"/>
<polygon fill="#63b8ff" stroke="#63b8ff" points="608.9,-87 618.9,-83.5 608.9,-80 608.9,-87"/>
</a>
</g>
</g>
<!-- Node5 -->
<g id="Node000005" class="node">
<title>Node5</title>
<g id="a_Node000005"><a xlink:href="classLogger.html#af9e84e0ff6bd538e4f9ed8dcebc3e2f0" target="_top" xlink:title="Check if log level is enabled for tag.">
<polygon fill="white" stroke="#666666" points="1123,-38 994,-38 994,-19 1123,-19 1123,-38"/>
<text text-anchor="middle" x="1058.5" y="-26" font-family="Helvetica,sans-Serif" font-size="10.00">Logger::IsLevelEnabled</text>
</a>
</g>
</g>
<!-- Node4&#45;&gt;Node5 -->
<g id="edge4_Node000004_Node000005" class="edge">
<title>Node4&#45;&gt;Node5</title>
<g id="a_edge4_Node000004_Node000005"><a xlink:title=" ">
<path fill="none" stroke="#63b8ff" d="M923.32,-13.76C941.13,-15.72 962.86,-18.11 983.6,-20.38"/>
<polygon fill="#63b8ff" stroke="#63b8ff" points="983.36,-23.88 993.68,-21.49 984.12,-16.92 983.36,-23.88"/>
</a>
</g>
</g>
<!-- Node6 -->
<g id="Node000006" class="node">
<title>Node6</title>
<g id="a_Node000006"><a xlink:href="classLogger.html#a6adb205db597526fb91ad20067400394" target="_top" xlink:title="Internal logging method.">
<polygon fill="white" stroke="#666666" points="1113.5,-75 1003.5,-75 1003.5,-56 1113.5,-56 1113.5,-75"/>
<text text-anchor="middle" x="1058.5" y="-63" font-family="Helvetica,sans-Serif" font-size="10.00">Logger::LogInternal</text>
</a>
</g>
</g>
<!-- Node4&#45;&gt;Node6 -->
<g id="edge5_Node000004_Node000006" class="edge">
<title>Node4&#45;&gt;Node6</title>
<g id="a_edge5_Node000004_Node000006"><a xlink:title=" ">
<path fill="none" stroke="#63b8ff" d="M923.19,-17.1C934.58,-19.83 946.95,-23.3 958,-27.5 974.91,-33.92 977.25,-39.65 994,-46.5 999.53,-48.76 1005.42,-50.88 1011.31,-52.84"/>
<polygon fill="#63b8ff" stroke="#63b8ff" points="1010.55,-56.27 1021.14,-55.95 1012.67,-49.59 1010.55,-56.27"/>
</a>
</g>
</g>
<!-- Node7 -->
<g id="Node000007" class="node">
<title>Node7</title>
<g id="a_Node000007"><a xlink:href="namespaceanonymous__namespace_02Logger_8cpp_03.html#a9d2b496fa1b4f4e28667d14e4b8cb190" target="_top" xlink:title=" ">
<polygon fill="white" stroke="#666666" points="1311,-80.5 1159,-80.5 1159,-50.5 1311,-50.5 1311,-80.5"/>
<text text-anchor="start" x="1167" y="-68.5" font-family="Helvetica,sans-Serif" font-size="10.00">anonymous_namespace</text>
<text text-anchor="middle" x="1235" y="-57.5" font-family="Helvetica,sans-Serif" font-size="10.00">{Logger::cpp}::ToBaseLevel</text>
</a>
</g>
</g>
<!-- Node6&#45;&gt;Node7 -->
<g id="edge6_Node000006_Node000007" class="edge">
<title>Node6&#45;&gt;Node7</title>
<g id="a_edge6_Node000006_Node000007"><a xlink:title=" ">
<path fill="none" stroke="#63b8ff" d="M1113.76,-65.5C1124.93,-65.5 1136.96,-65.5 1148.93,-65.5"/>
<polygon fill="#63b8ff" stroke="#63b8ff" points="1148.95,-69 1158.95,-65.5 1148.95,-62 1148.95,-69"/>
</a>
</g>
</g>
<!-- Node9&#45;&gt;Node4 -->
<g id="edge9_Node000009_Node000004" class="edge">
<title>Node9&#45;&gt;Node4</title>
<g id="a_edge9_Node000009_Node000004"><a xlink:title=" ">
<path fill="none" stroke="#63b8ff" d="M713.18,-73.96C734.51,-61.72 773.49,-40.54 809,-27.5 816.98,-24.57 825.62,-21.97 834.07,-19.73"/>
<polygon fill="#63b8ff" stroke="#63b8ff" points="835.03,-23.09 843.87,-17.25 833.31,-16.31 835.03,-23.09"/>
</a>
</g>
</g>
<!-- Node9&#45;&gt;Node8 -->
<g id="edge10_Node000009_Node000008" class="edge">
<title>Node9&#45;&gt;Node8</title>
<g id="a_edge10_Node000009_Node000008"><a xlink:title=" ">
<path fill="none" stroke="#63b8ff" d="M742.33,-93.09C794.44,-104.18 882.51,-123.16 958,-140.5 974.64,-144.32 992.8,-148.66 1009,-152.58"/>
<polygon fill="#63b8ff" stroke="#63b8ff" points="1008.26,-156 1018.8,-154.96 1009.91,-149.2 1008.26,-156"/>
</a>
</g>
</g>
<!-- Node10 -->
<g id="Node000010" class="node">
<title>Node10</title>
<g id="a_Node000010"><a xlink:href="classLogger.html#a4681229c521795685fc14f6b55c82300" target="_top" xlink:title="Log info message.">
<polygon fill="white" stroke="#666666" points="920.5,-93 846.5,-93 846.5,-74 920.5,-74 920.5,-93"/>
<text text-anchor="middle" x="883.5" y="-81" font-family="Helvetica,sans-Serif" font-size="10.00">Logger::Info</text>
</a>
</g>
</g>
<!-- Node9&#45;&gt;Node10 -->
<g id="edge11_Node000009_Node000010" class="edge">
<title>Node9&#45;&gt;Node10</title>
<g id="a_edge11_Node000009_Node000010"><a xlink:title=" ">
<path fill="none" stroke="#63b8ff" d="M773.25,-83.5C794.5,-83.5 816.94,-83.5 835.92,-83.5"/>
<polygon fill="#63b8ff" stroke="#63b8ff" points="836.08,-87 846.08,-83.5 836.08,-80 836.08,-87"/>
</a>
</g>
</g>
<!-- Node11 -->
<g id="Node000011" class="node">
<title>Node11</title>
<g id="a_Node000011"><a xlink:href="classMax22200Handler.html#a46a1ed5c96b117192f0cae05c4f9627b" target="_top" xlink:title="Bring the chip from POR through to a verified ACTIVE=1, UVM=0 state, then drain POR&#45;latched fault bit...">
<polygon fill="white" stroke="#666666" points="958,-179.5 809,-179.5 809,-149.5 958,-149.5 958,-179.5"/>
<text text-anchor="start" x="817" y="-167.5" font-family="Helvetica,sans-Serif" font-size="10.00">Max22200Handler::WaitFor</text>
<text text-anchor="middle" x="883.5" y="-156.5" font-family="Helvetica,sans-Serif" font-size="10.00">ActiveAndDrainFaults</text>
</a>
</g>
</g>
<!-- Node9&#45;&gt;Node11 -->
<g id="edge14_Node000009_Node000011" class="edge">
<title>Node9&#45;&gt;Node11</title>
<g id="a_edge14_Node000009_Node000011"><a xlink:title=" ">
<path fill="none" stroke="#63b8ff" d="M716.67,-93.06C738.91,-103.77 776.3,-121.47 809,-135.5 816.88,-138.88 825.3,-142.34 833.52,-145.64"/>
<polygon fill="#63b8ff" stroke="#63b8ff" points="832.45,-148.98 843.04,-149.42 835.04,-142.48 832.45,-148.98"/>
</a>
</g>
</g>
<!-- Node12 -->
<g id="Node000012" class="node">
<title>Node12</title>
<g id="a_Node000012"><a xlink:href="classLogger.html#aaa95ffa14d07a965d4a85bdec82cba26" target="_top" xlink:title="Log warning message.">
<polygon fill="white" stroke="#666666" points="923.5,-56 843.5,-56 843.5,-37 923.5,-37 923.5,-56"/>
<text text-anchor="middle" x="883.5" y="-44" font-family="Helvetica,sans-Serif" font-size="10.00">Logger::Warn</text>
</a>
</g>
</g>
<!-- Node9&#45;&gt;Node12 -->
<g id="edge16_Node000009_Node000012" class="edge">
<title>Node9&#45;&gt;Node12</title>
<g id="a_edge16_Node000009_Node000012"><a xlink:title=" ">
<path fill="none" stroke="#63b8ff" d="M744.77,-73.97C771.9,-68.56 805.8,-61.8 833.18,-56.34"/>
<polygon fill="#63b8ff" stroke="#63b8ff" points="834.21,-59.7 843.33,-54.31 832.84,-52.84 834.21,-59.7"/>
</a>
</g>
</g>
<!-- Node10&#45;&gt;Node5 -->
<g id="edge12_Node000010_Node000005" class="edge">
<title>Node10&#45;&gt;Node5</title>
<g id="a_edge12_Node000010_Node000005"><a xlink:title=" ">
<path fill="none" stroke="#63b8ff" d="M920.86,-75.71C932.85,-72.72 946.15,-68.94 958,-64.5 974.75,-58.23 977.32,-52.97 994,-46.5 999.07,-44.53 1004.45,-42.67 1009.85,-40.95"/>
<polygon fill="#63b8ff" stroke="#63b8ff" points="1010.96,-44.27 1019.51,-38.01 1008.92,-37.58 1010.96,-44.27"/>
</a>
</g>
</g>
<!-- Node10&#45;&gt;Node6 -->
<g id="edge13_Node000010_Node000006" class="edge">
<title>Node10&#45;&gt;Node6</title>
<g id="a_edge13_Node000010_Node000006"><a xlink:title=" ">
<path fill="none" stroke="#63b8ff" d="M920.77,-79.73C941.75,-77.54 968.78,-74.73 993.25,-72.18"/>
<polygon fill="#63b8ff" stroke="#63b8ff" points="993.62,-75.67 1003.2,-71.15 992.89,-68.7 993.62,-75.67"/>
</a>
</g>
</g>
<!-- Node11&#45;&gt;Node8 -->
<g id="edge15_Node000011_Node000008" class="edge">
<title>Node11&#45;&gt;Node8</title>
<g id="a_edge15_Node000011_Node000008"><a xlink:title=" ">
<path fill="none" stroke="#63b8ff" d="M958.12,-164.5C969.06,-164.5 980.28,-164.5 991.07,-164.5"/>
<polygon fill="#63b8ff" stroke="#63b8ff" points="991.25,-168 1001.25,-164.5 991.25,-161 991.25,-168"/>
</a>
</g>
</g>
<!-- Node12&#45;&gt;Node5 -->
<g id="edge17_Node000012_Node000005" class="edge">
<title>Node12&#45;&gt;Node5</title>
<g id="a_edge17_Node000012_Node000005"><a xlink:title=" ">
<path fill="none" stroke="#63b8ff" d="M923.76,-42.42C941.58,-40.56 963.26,-38.31 983.93,-36.16"/>
<polygon fill="#63b8ff" stroke="#63b8ff" points="984.39,-39.63 993.97,-35.11 983.66,-32.66 984.39,-39.63"/>
</a>
</g>
</g>
<!-- Node12&#45;&gt;Node6 -->
<g id="edge18_Node000012_Node000006" class="edge">
<title>Node12&#45;&gt;Node6</title>
<g id="a_edge18_Node000012_Node000006"><a xlink:title=" ">
<path fill="none" stroke="#63b8ff" d="M923.76,-50.81C944.25,-53.06 969.85,-55.87 993.15,-58.43"/>
<polygon fill="#63b8ff" stroke="#63b8ff" points="993,-61.94 1003.32,-59.55 993.76,-54.98 993,-61.94"/>
</a>
</g>
</g>
</g>
</svg>
