<?xml version="1.0" encoding="UTF-8" standalone="no"?>
<!DOCTYPE svg PUBLIC "-//W3C//DTD SVG 1.1//EN"
 "http://www.w3.org/Graphics/SVG/1.1/DTD/svg11.dtd">
<!-- Generated by graphviz version 2.43.0 (0)
 -->
<!-- Title: Logger::Warn Pages: 1 -->
<svg width="960pt" height="1228pt"
 viewBox="0.00 0.00 960.00 1228.00" xmlns="http://www.w3.org/2000/svg" xmlns:xlink="http://www.w3.org/1999/xlink">
<g id="graph0" class="graph" transform="scale(1 1) rotate(0) translate(4 1224)">
<title>Logger::Warn</title>
<!-- Node1 -->
<g id="Node000001" class="node">
<title>Node1</title>
<g id="a_Node000001"><a xlink:title="Log warning message.">
<polygon fill="#999999" stroke="#666666" points="952,-568 872,-568 872,-549 952,-549 952,-568"/>
<text text-anchor="middle" x="912" y="-556" font-family="Helvetica,sans-Serif" font-size="10.00">Logger::Warn</text>
</a>
</g>
</g>
<!-- Node2 -->
<g id="Node000002" class="node">
<title>Node2</title>
<g id="a_Node000002"><a xlink:href="classTmc9660Handler.html#ad2004d275f9578a1530ad9eb49ff7afb" target="_top" xlink:title="Disable the motor driver output stage (coast/brake behavior depends on gate driver configuration).">
<polygon fill="white" stroke="#666666" points="836,-964 665,-964 665,-945 836,-945 836,-964"/>
<text text-anchor="middle" x="750.5" y="-952" font-family="Helvetica,sans-Serif" font-size="10.00">Tmc9660Handler::DisableMotor</text>
</a>
</g>
</g>
<!-- Node1&#45;&gt;Node2 -->
<g id="edge1_Node000001_Node000002" class="edge">
<title>Node1&#45;&gt;Node2</title>
<g id="a_edge1_Node000001_Node000002"><a xlink:title=" ">
<path fill="none" stroke="#63b8ff" d="M909.68,-578.19C904.67,-647.38 884.53,-878.05 836,-930.5 830.2,-936.77 822.89,-941.44 815.02,-944.92"/>
<polygon fill="#63b8ff" stroke="#63b8ff" points="913.18,-578.41 910.38,-568.19 906.19,-577.92 913.18,-578.41"/>
</a>
</g>
</g>
<!-- Node3 -->
<g id="Node000003" class="node">
<title>Node3</title>
<g id="a_Node000003"><a xlink:href="classTmc5160Handler.html#ab4bf5aabef968f6f8ee66d08cf05913a" target="_top" xlink:title="Dump diagnostic information to logger.">
<polygon fill="white" stroke="#666666" points="397,-1220 205,-1220 205,-1201 397,-1201 397,-1220"/>
<text text-anchor="middle" x="301" y="-1208" font-family="Helvetica,sans-Serif" font-size="10.00">Tmc5160Handler::DumpDiagnostics</text>
</a>
</g>
</g>
<!-- Node1&#45;&gt;Node3 -->
<g id="edge2_Node000001_Node000003" class="edge">
<title>Node1&#45;&gt;Node3</title>
<g id="a_edge2_Node000001_Node000003"><a xlink:title=" ">
<path fill="none" stroke="#63b8ff" d="M906.72,-578.14C897.89,-615.8 875.13,-699.81 836,-760.5 826.76,-774.83 415.11,-1184.61 400,-1192.5 393.48,-1195.9 386.43,-1198.67 379.2,-1200.92"/>
<polygon fill="#63b8ff" stroke="#63b8ff" points="910.22,-578.54 909.02,-568.01 903.39,-576.99 910.22,-578.54"/>
</a>
</g>
</g>
<!-- Node4 -->
<g id="Node000004" class="node">
<title>Node4</title>
<g id="a_Node000004"><a xlink:href="classTmc9660Handler.html#aee0edc3320de8f590480ed4546254fc2" target="_top" xlink:title="Enable the motor driver output stage.">
<polygon fill="white" stroke="#666666" points="834,-648 667,-648 667,-629 834,-629 834,-648"/>
<text text-anchor="middle" x="750.5" y="-636" font-family="Helvetica,sans-Serif" font-size="10.00">Tmc9660Handler::EnableMotor</text>
</a>
</g>
</g>
<!-- Node1&#45;&gt;Node4 -->
<g id="edge3_Node000001_Node000004" class="edge">
<title>Node1&#45;&gt;Node4</title>
<g id="a_edge3_Node000001_Node000004"><a xlink:title=" ">
<path fill="none" stroke="#63b8ff" d="M895.33,-575.38C881.19,-589.59 859.1,-609.33 836,-620.5 828.98,-623.89 821.32,-626.65 813.58,-628.89"/>
<polygon fill="#63b8ff" stroke="#63b8ff" points="897.9,-577.77 902.33,-568.15 892.87,-572.9 897.9,-577.77"/>
</a>
</g>
</g>
<!-- Node5 -->
<g id="Node000005" class="node">
<title>Node5</title>
<g id="a_Node000005"><a xlink:href="classMax22200Handler.html#ad6c72b45a96c36cd1b450f5e330fad25" target="_top" xlink:title="Initialize driver (ENABLE HIGH, read/clear STATUS, set ACTIVE).">
<polygon fill="white" stroke="#666666" points="827.5,-611 673.5,-611 673.5,-592 827.5,-592 827.5,-611"/>
<text text-anchor="middle" x="750.5" y="-599" font-family="Helvetica,sans-Serif" font-size="10.00">Max22200Handler::Initialize</text>
</a>
</g>
</g>
<!-- Node1&#45;&gt;Node5 -->
<g id="edge4_Node000001_Node000005" class="edge">
<title>Node1&#45;&gt;Node5</title>
<g id="a_edge4_Node000001_Node000005"><a xlink:title=" ">
<path fill="none" stroke="#63b8ff" d="M873.41,-571.25C861.51,-575.09 848.26,-579.17 836,-582.5 823.52,-585.89 809.89,-589.15 797.29,-591.98"/>
<polygon fill="#63b8ff" stroke="#63b8ff" points="874.62,-574.53 883.04,-568.1 872.45,-567.88 874.62,-574.53"/>
</a>
</g>
</g>
<!-- Node16 -->
<g id="Node000016" class="node">
<title>Node16</title>
<g id="a_Node000016"><a xlink:href="classTle92466edHandler.html#a0883f87dfe49cce3abd5acfc8cb2176c" target="_top" xlink:title="Initialize driver (hardware reset + SPI init + enter config mode).">
<polygon fill="white" stroke="#666666" points="809.5,-573.5 691.5,-573.5 691.5,-543.5 809.5,-543.5 809.5,-573.5"/>
<text text-anchor="start" x="699.5" y="-561.5" font-family="Helvetica,sans-Serif" font-size="10.00">Tle92466edHandler::</text>
<text text-anchor="middle" x="750.5" y="-550.5" font-family="Helvetica,sans-Serif" font-size="10.00">Initialize</text>
</a>
</g>
</g>
<!-- Node1&#45;&gt;Node16 -->
<g id="edge14_Node000001_Node000016" class="edge">
<title>Node1&#45;&gt;Node16</title>
<g id="a_edge14_Node000001_Node000016"><a xlink:title=" ">
<path fill="none" stroke="#63b8ff" d="M861.53,-558.5C845.13,-558.5 826.72,-558.5 809.72,-558.5"/>
<polygon fill="#63b8ff" stroke="#63b8ff" points="861.98,-562 871.98,-558.5 861.98,-555 861.98,-562"/>
</a>
</g>
</g>
<!-- Node32 -->
<g id="Node000032" class="node">
<title>Node32</title>
<g id="a_Node000032"><a xlink:href="classWs2812Handler.html#a172ae173d1e2bd93c9808452aad6e4cd" target="_top" xlink:title="Initialize the RMT channel and LED strip.">
<polygon fill="white" stroke="#666666" points="821.5,-525 679.5,-525 679.5,-506 821.5,-506 821.5,-525"/>
<text text-anchor="middle" x="750.5" y="-513" font-family="Helvetica,sans-Serif" font-size="10.00">Ws2812Handler::Initialize</text>
</a>
</g>
</g>
<!-- Node1&#45;&gt;Node32 -->
<g id="edge20_Node000001_Node000032" class="edge">
<title>Node1&#45;&gt;Node32</title>
<g id="a_edge20_Node000001_Node000032"><a xlink:title=" ">
<path fill="none" stroke="#63b8ff" d="M873.41,-545.75C861.51,-541.91 848.26,-537.83 836,-534.5 823.52,-531.11 809.89,-527.85 797.29,-525.02"/>
<polygon fill="#63b8ff" stroke="#63b8ff" points="872.45,-549.12 883.04,-548.9 874.62,-542.47 872.45,-549.12"/>
</a>
</g>
</g>
<!-- Node43 -->
<g id="Node000043" class="node">
<title>Node43</title>
<g id="a_Node000043"><a xlink:href="classNtcTemperatureHandler.html#a97fa93b2ed6337e24e056b46fbe331c7" target="_top" xlink:title=" ">
<polygon fill="white" stroke="#666666" points="817,-487.5 684,-487.5 684,-457.5 817,-457.5 817,-487.5"/>
<text text-anchor="start" x="692" y="-475.5" font-family="Helvetica,sans-Serif" font-size="10.00">NtcTemperatureHandler</text>
<text text-anchor="middle" x="750.5" y="-464.5" font-family="Helvetica,sans-Serif" font-size="10.00">::Initialize</text>
</a>
</g>
</g>
<!-- Node1&#45;&gt;Node43 -->
<g id="edge29_Node000001_Node000043" class="edge">
<title>Node1&#45;&gt;Node43</title>
<g id="a_edge29_Node000001_Node000043"><a xlink:title=" ">
<path fill="none" stroke="#63b8ff" d="M894.18,-541.5C879.84,-527.86 858.09,-509.15 836,-497.5 828.83,-493.72 821,-490.43 813.1,-487.59"/>
<polygon fill="#63b8ff" stroke="#63b8ff" points="892.11,-544.37 901.71,-548.84 897,-539.36 892.11,-544.37"/>
</a>
</g>
</g>
<!-- Node44 -->
<g id="Node000044" class="node">
<title>Node44</title>
<g id="a_Node000044"><a xlink:href="classMax22200Handler.html#a4a87c1be18b3b4fb6055bccd6df7da9f" target="_top" xlink:title="Initialize with board configuration.">
<polygon fill="white" stroke="#666666" points="827.5,-439 673.5,-439 673.5,-420 827.5,-420 827.5,-439"/>
<text text-anchor="middle" x="750.5" y="-427" font-family="Helvetica,sans-Serif" font-size="10.00">Max22200Handler::Initialize</text>
</a>
</g>
</g>
<!-- Node1&#45;&gt;Node44 -->
<g id="edge30_Node000001_Node000044" class="edge">
<title>Node1&#45;&gt;Node44</title>
<g id="a_edge30_Node000001_Node000044"><a xlink:title=" ">
<path fill="none" stroke="#63b8ff" d="M903.27,-539.26C892.22,-514.29 869.46,-471.23 836,-448.5 830.28,-444.61 823.89,-441.51 817.25,-439.03"/>
<polygon fill="#63b8ff" stroke="#63b8ff" points="900.17,-540.9 907.29,-548.74 906.61,-538.17 900.17,-540.9"/>
</a>
</g>
</g>
<!-- Node45 -->
<g id="Node000045" class="node">
<title>Node45</title>
<g id="a_Node000045"><a xlink:href="classTle92466edHandler.html#a427b6968c56e28e3e8d92b9d083fca33" target="_top" xlink:title="Initialize with global configuration.">
<polygon fill="white" stroke="#666666" points="809.5,-401.5 691.5,-401.5 691.5,-371.5 809.5,-371.5 809.5,-401.5"/>
<text text-anchor="start" x="699.5" y="-389.5" font-family="Helvetica,sans-Serif" font-size="10.00">Tle92466edHandler::</text>
<text text-anchor="middle" x="750.5" y="-378.5" font-family="Helvetica,sans-Serif" font-size="10.00">Initialize</text>
</a>
</g>
</g>
<!-- Node1&#45;&gt;Node45 -->
<g id="edge31_Node000001_Node000045" class="edge">
<title>Node1&#45;&gt;Node45</title>
<g id="a_edge31_Node000001_Node000045"><a xlink:title=" ">
<path fill="none" stroke="#63b8ff" d="M906.45,-539.21C898.02,-507.77 877,-445.57 836,-411.5 828.35,-405.14 819.14,-400.4 809.65,-396.87"/>
<polygon fill="#63b8ff" stroke="#63b8ff" points="903.06,-540.12 908.91,-548.95 909.85,-538.4 903.06,-540.12"/>
</a>
</g>
</g>
<!-- Node46 -->
<g id="Node000046" class="node">
<title>Node46</title>
<g id="a_Node000046"><a xlink:href="classTmc5160Handler.html#a64755f326176b0a38485acf5ca69fd0c" target="_top" xlink:title="Initialize the TMC5160 driver with full configuration.">
<polygon fill="white" stroke="#666666" points="824.5,-751 676.5,-751 676.5,-732 824.5,-732 824.5,-751"/>
<text text-anchor="middle" x="750.5" y="-739" font-family="Helvetica,sans-Serif" font-size="10.00">Tmc5160Handler::Initialize</text>
</a>
</g>
</g>
<!-- Node1&#45;&gt;Node46 -->
<g id="edge32_Node000001_Node000046" class="edge">
<title>Node1&#45;&gt;Node46</title>
<g id="a_edge32_Node000001_Node000046"><a xlink:title=" ">
<path fill="none" stroke="#63b8ff" d="M898.57,-576.43C884.25,-596.72 859.63,-630.47 836,-657.5 811.09,-686 778.61,-716.68 762.12,-731.86"/>
<polygon fill="#63b8ff" stroke="#63b8ff" points="901.52,-578.32 904.39,-568.12 895.79,-574.31 901.52,-578.32"/>
</a>
</g>
</g>
<!-- Node66 -->
<g id="Node000066" class="node">
<title>Node66</title>
<g id="a_Node000066"><a xlink:href="classTmc9660Handler_1_1Temperature.html#a5ebc77b2122ba4473b74a4a0fc78ff09" target="_top" xlink:title="Read the chip temperature in degrees Celsius.">
<polygon fill="white" stroke="#666666" points="834,-353.5 667,-353.5 667,-323.5 834,-323.5 834,-353.5"/>
<text text-anchor="start" x="675" y="-341.5" font-family="Helvetica,sans-Serif" font-size="10.00">Tmc9660Handler::Temperature</text>
<text text-anchor="middle" x="750.5" y="-330.5" font-family="Helvetica,sans-Serif" font-size="10.00">::ReadTemperatureCelsiusImpl</text>
</a>
</g>
</g>
<!-- Node1&#45;&gt;Node66 -->
<g id="edge50_Node000001_Node000066" class="edge">
<title>Node1&#45;&gt;Node66</title>
<g id="a_edge50_Node000001_Node000066"><a xlink:title=" ">
<path fill="none" stroke="#63b8ff" d="M909.2,-538.7C904.53,-499.25 888.47,-410.51 836,-362.5 832.29,-359.1 828.13,-356.18 823.7,-353.67"/>
<polygon fill="#63b8ff" stroke="#63b8ff" points="905.72,-539.08 910.25,-548.65 912.68,-538.34 905.72,-539.08"/>
</a>
</g>
</g>
<!-- Node6 -->
<g id="Node000006" class="node">
<title>Node6</title>
<g id="a_Node000006"><a xlink:href="classMax22200Handler.html#aa00edacb247660349767fa4521121104" target="_top" xlink:title=" ">
<polygon fill="white" stroke="#666666" points="629,-550.5 436,-550.5 436,-520.5 629,-520.5 629,-550.5"/>
<text text-anchor="start" x="444" y="-538.5" font-family="Helvetica,sans-Serif" font-size="10.00">Max22200Handler::EnsureInitialized</text>
<text text-anchor="middle" x="532.5" y="-527.5" font-family="Helvetica,sans-Serif" font-size="10.00">Locked</text>
</a>
</g>
</g>
<!-- Node5&#45;&gt;Node6 -->
<g id="edge5_Node000005_Node000006" class="edge">
<title>Node5&#45;&gt;Node6</title>
<g id="a_edge5_Node000005_Node000006"><a xlink:title=" ">
<path fill="none" stroke="#63b8ff" d="M692.42,-589.66C683.2,-587.47 673.8,-585.05 665,-582.5 633.1,-573.25 597.68,-560.44 571.65,-550.53"/>
<polygon fill="#63b8ff" stroke="#63b8ff" points="691.78,-593.11 702.31,-591.96 693.36,-586.29 691.78,-593.11"/>
</a>
</g>
</g>
<!-- Node7 -->
<g id="Node000007" class="node">
<title>Node7</title>
<g id="a_Node000007"><a xlink:href="classMax22200Handler.html#afd07a624dc736a1452c0f6190499adc0" target="_top" xlink:title="Dump diagnostics to logger.">
<polygon fill="white" stroke="#666666" points="400,-582 202,-582 202,-563 400,-563 400,-582"/>
<text text-anchor="middle" x="301" y="-570" font-family="Helvetica,sans-Serif" font-size="10.00">Max22200Handler::DumpDiagnostics</text>
</a>
</g>
</g>
<!-- Node6&#45;&gt;Node7 -->
<g id="edge6_Node000006_Node000007" class="edge">
<title>Node6&#45;&gt;Node7</title>
<g id="a_edge6_Node000006_Node000007"><a xlink:title=" ">
<path fill="none" stroke="#63b8ff" d="M428.01,-552.18C405.05,-555.89 381.48,-559.69 361.03,-562.98"/>
<polygon fill="#63b8ff" stroke="#63b8ff" points="428.84,-555.6 438.15,-550.55 427.72,-548.69 428.84,-555.6"/>
</a>
</g>
</g>
<!-- Node8 -->
<g id="Node000008" class="node">
<title>Node8</title>
<g id="a_Node000008"><a xlink:href="classMax22200Handler.html#a803b60663755d7850857626b58efc084" target="_top" xlink:title="Ensure driver is initialized (lazy init entrypoint).">
<polygon fill="white" stroke="#666666" points="397.5,-545 204.5,-545 204.5,-526 397.5,-526 397.5,-545"/>
<text text-anchor="middle" x="301" y="-533" font-family="Helvetica,sans-Serif" font-size="10.00">Max22200Handler::EnsureInitialized</text>
</a>
</g>
</g>
<!-- Node6&#45;&gt;Node8 -->
<g id="edge7_Node000006_Node000008" class="edge">
<title>Node6&#45;&gt;Node8</title>
<g id="a_edge7_Node000006_Node000008"><a xlink:title=" ">
<path fill="none" stroke="#63b8ff" d="M425.68,-535.5C416.29,-535.5 406.81,-535.5 397.51,-535.5"/>
<polygon fill="#63b8ff" stroke="#63b8ff" points="425.83,-539 435.83,-535.5 425.83,-532 425.83,-539"/>
</a>
</g>
</g>
<!-- Node9 -->
<g id="Node000009" class="node">
<title>Node9</title>
<g id="a_Node000009"><a xlink:href="classMax22200Handler.html#a001e00b9d9a02611b51951f16bcb78d1" target="_top" xlink:title="Get the underlying driver for advanced operations.">
<polygon fill="white" stroke="#666666" points="380.5,-508 221.5,-508 221.5,-489 380.5,-489 380.5,-508"/>
<text text-anchor="middle" x="301" y="-496" font-family="Helvetica,sans-Serif" font-size="10.00">Max22200Handler::GetDriver</text>
</a>
</g>
</g>
<!-- Node6&#45;&gt;Node9 -->
<g id="edge8_Node000006_Node000009" class="edge">
<title>Node6&#45;&gt;Node9</title>
<g id="a_edge8_Node000006_Node000009"><a xlink:title=" ">
<path fill="none" stroke="#63b8ff" d="M428.01,-518.82C405.05,-515.11 381.48,-511.31 361.03,-508.02"/>
<polygon fill="#63b8ff" stroke="#63b8ff" points="427.72,-522.31 438.15,-520.45 428.84,-515.4 427.72,-522.31"/>
</a>
</g>
</g>
<!-- Node11 -->
<g id="Node000011" class="node">
<title>Node11</title>
<g id="a_Node000011"><a xlink:href="classMax22200Handler.html#abcdd9746a0df9c28bb36508d52d80ef5" target="_top" xlink:title="Execute a lambda with a locked, initialized driver.">
<polygon fill="#fff0f0" stroke="red" points="382.5,-471 219.5,-471 219.5,-452 382.5,-452 382.5,-471"/>
<text text-anchor="middle" x="301" y="-459" font-family="Helvetica,sans-Serif" font-size="10.00">Max22200Handler::withDriver</text>
</a>
</g>
</g>
<!-- Node6&#45;&gt;Node11 -->
<g id="edge10_Node000006_Node000011" class="edge">
<title>Node6&#45;&gt;Node11</title>
<g id="a_edge10_Node000006_Node000011"><a xlink:title=" ">
<path fill="none" stroke="#63b8ff" d="M491.17,-516.1C465.54,-504.41 431.4,-490 400,-480.5 387.72,-476.79 374.36,-473.63 361.56,-471.02"/>
<polygon fill="#63b8ff" stroke="#63b8ff" points="490,-519.41 500.55,-520.43 492.93,-513.06 490,-519.41"/>
</a>
</g>
</g>
<!-- Node10 -->
<g id="Node000010" class="node">
<title>Node10</title>
<g id="a_Node000010"><a xlink:href="classMax22200Handler.html#aee42537a3d2f0955a1479709b2d4b4b8" target="_top" xlink:title=" ">
<polygon fill="white" stroke="#666666" points="162.5,-529 3.5,-529 3.5,-510 162.5,-510 162.5,-529"/>
<text text-anchor="middle" x="83" y="-517" font-family="Helvetica,sans-Serif" font-size="10.00">Max22200Handler::GetDriver</text>
</a>
</g>
</g>
<!-- Node9&#45;&gt;Node10 -->
<g id="edge9_Node000009_Node000010" class="edge">
<title>Node9&#45;&gt;Node10</title>
<g id="a_edge9_Node000009_Node000010"><a xlink:title=" ">
<path fill="none" stroke="#63b8ff" d="M211.41,-507.11C195.22,-508.69 178.41,-510.32 162.53,-511.86"/>
<polygon fill="#63b8ff" stroke="#63b8ff" points="211.79,-510.59 221.41,-506.14 211.12,-503.63 211.79,-510.59"/>
</a>
</g>
</g>
<!-- Node12 -->
<g id="Node000012" class="node">
<title>Node12</title>
<g id="a_Node000012"><a xlink:href="classMax22200Handler.html#a439f52e4acfac83872a74fa9eef5237f" target="_top" xlink:title="Clear all fault flags.">
<polygon fill="white" stroke="#666666" points="166,-492 0,-492 0,-473 166,-473 166,-492"/>
<text text-anchor="middle" x="83" y="-480" font-family="Helvetica,sans-Serif" font-size="10.00">Max22200Handler::ClearFaults</text>
</a>
</g>
</g>
<!-- Node11&#45;&gt;Node12 -->
<g id="edge11_Node000011_Node000012" class="edge">
<title>Node11&#45;&gt;Node12</title>
<g id="a_edge11_Node000011_Node000012"><a xlink:title=" ">
<path fill="none" stroke="#63b8ff" d="M208.98,-470.35C194.74,-471.73 180.1,-473.16 166.08,-474.52"/>
<polygon fill="#63b8ff" stroke="#63b8ff" points="209.65,-473.8 219.26,-469.35 208.97,-466.83 209.65,-473.8"/>
</a>
</g>
</g>
<!-- Node13 -->
<g id="Node000013" class="node">
<title>Node13</title>
<g id="a_Node000013"><a xlink:href="classMax22200Handler.html#a8469fc41589ea672b8732769d2222443" target="_top" xlink:title="Disable all channels.">
<polygon fill="white" stroke="#666666" points="157.5,-454.5 8.5,-454.5 8.5,-424.5 157.5,-424.5 157.5,-454.5"/>
<text text-anchor="start" x="16.5" y="-442.5" font-family="Helvetica,sans-Serif" font-size="10.00">Max22200Handler::Disable</text>
<text text-anchor="middle" x="83" y="-431.5" font-family="Helvetica,sans-Serif" font-size="10.00">AllChannels</text>
</a>
</g>
</g>
<!-- Node11&#45;&gt;Node13 -->
<g id="edge12_Node000011_Node000013" class="edge">
<title>Node11&#45;&gt;Node13</title>
<g id="a_edge12_Node000011_Node000013"><a xlink:title=" ">
<path fill="none" stroke="#63b8ff" d="M209.2,-452.25C191.96,-450.5 174.13,-448.68 157.51,-446.99"/>
<polygon fill="#63b8ff" stroke="#63b8ff" points="208.96,-455.75 219.26,-453.28 209.67,-448.78 208.96,-455.75"/>
</a>
</g>
</g>
<!-- Node14 -->
<g id="Node000014" class="node">
<title>Node14</title>
<g id="a_Node000014"><a xlink:href="classMax22200Handler.html#aa9e41274b5467db2e901be023d4dd061" target="_top" xlink:title="Enable all channels.">
<polygon fill="white" stroke="#666666" points="162,-406.5 4,-406.5 4,-376.5 162,-376.5 162,-406.5"/>
<text text-anchor="start" x="12" y="-394.5" font-family="Helvetica,sans-Serif" font-size="10.00">Max22200Handler::EnableAll</text>
<text text-anchor="middle" x="83" y="-383.5" font-family="Helvetica,sans-Serif" font-size="10.00">Channels</text>
</a>
</g>
</g>
<!-- Node11&#45;&gt;Node14 -->
<g id="edge13_Node000011_Node000014" class="edge">
<title>Node11&#45;&gt;Node14</title>
<g id="a_edge13_Node000011_Node000014"><a xlink:title=" ">
<path fill="none" stroke="#63b8ff" d="M220.12,-449.19C213.88,-447.28 207.77,-445.06 202,-442.5 183.72,-434.39 183.88,-424.45 166,-415.5 159.24,-412.11 151.91,-409.12 144.52,-406.51"/>
<polygon fill="#63b8ff" stroke="#63b8ff" points="219.43,-452.63 230,-451.97 221.32,-445.89 219.43,-452.63"/>
</a>
</g>
</g>
<!-- Node17 -->
<g id="Node000017" class="node">
<title>Node17</title>
<g id="a_Node000017"><a xlink:href="classTle92466edHandler.html#a59ce7fd71a61c78bba4dc4a43c99e280" target="_top" xlink:title=" ">
<polygon fill="white" stroke="#666666" points="598,-385.5 467,-385.5 467,-355.5 598,-355.5 598,-385.5"/>
<text text-anchor="start" x="475" y="-373.5" font-family="Helvetica,sans-Serif" font-size="10.00">Tle92466edHandler::</text>
<text text-anchor="middle" x="532.5" y="-362.5" font-family="Helvetica,sans-Serif" font-size="10.00">EnsureInitializedLocked</text>
</a>
</g>
</g>
<!-- Node16&#45;&gt;Node17 -->
<g id="edge15_Node000016_Node000017" class="edge">
<title>Node16&#45;&gt;Node17</title>
<g id="a_edge15_Node000016_Node000017"><a xlink:title=" ">
<path fill="none" stroke="#63b8ff" d="M681.98,-543.53C676.01,-540.97 670.25,-537.99 665,-534.5 604.79,-494.55 559.05,-418.29 541.42,-385.79"/>
<polygon fill="#63b8ff" stroke="#63b8ff" points="680.9,-546.86 691.48,-547.2 683.42,-540.33 680.9,-546.86"/>
</a>
</g>
</g>
<!-- Node18 -->
<g id="Node000018" class="node">
<title>Node18</title>
<g id="a_Node000018"><a xlink:href="classTle92466edHandler.html#afcec01ba90f6596dcde99387ef41b6e4" target="_top" xlink:title="Dump diagnostics to logger.">
<polygon fill="white" stroke="#666666" points="360,-433.5 242,-433.5 242,-403.5 360,-403.5 360,-433.5"/>
<text text-anchor="start" x="250" y="-421.5" font-family="Helvetica,sans-Serif" font-size="10.00">Tle92466edHandler::</text>
<text text-anchor="middle" x="301" y="-410.5" font-family="Helvetica,sans-Serif" font-size="10.00">DumpDiagnostics</text>
</a>
</g>
</g>
<!-- Node17&#45;&gt;Node18 -->
<g id="edge16_Node000017_Node000018" class="edge">
<title>Node17&#45;&gt;Node18</title>
<g id="a_edge16_Node000017_Node000018"><a xlink:title=" ">
<path fill="none" stroke="#63b8ff" d="M456.94,-386.09C425.55,-392.66 389.57,-400.19 360.18,-406.33"/>
<polygon fill="#63b8ff" stroke="#63b8ff" points="457.89,-389.47 466.96,-384 456.46,-382.62 457.89,-389.47"/>
</a>
</g>
</g>
<!-- Node19 -->
<g id="Node000019" class="node">
<title>Node19</title>
<g id="a_Node000019"><a xlink:href="classTle92466edHandler.html#a1a976346516812f7125cdeb2f3aeb327" target="_top" xlink:title="Ensure driver is initialized (lazy init entrypoint).">
<polygon fill="white" stroke="#666666" points="360,-385.5 242,-385.5 242,-355.5 360,-355.5 360,-385.5"/>
<text text-anchor="start" x="250" y="-373.5" font-family="Helvetica,sans-Serif" font-size="10.00">Tle92466edHandler::</text>
<text text-anchor="middle" x="301" y="-362.5" font-family="Helvetica,sans-Serif" font-size="10.00">EnsureInitialized</text>
</a>
</g>
</g>
<!-- Node17&#45;&gt;Node19 -->
<g id="edge17_Node000017_Node000019" class="edge">
<title>Node17&#45;&gt;Node19</title>
<g id="a_edge17_Node000017_Node000019"><a xlink:title=" ">
<path fill="none" stroke="#63b8ff" d="M456.94,-370.5C425.55,-370.5 389.57,-370.5 360.18,-370.5"/>
<polygon fill="#63b8ff" stroke="#63b8ff" points="456.96,-374 466.96,-370.5 456.96,-367 456.96,-374"/>
</a>
</g>
</g>
<!-- Node20 -->
<g id="Node000020" class="node">
<title>Node20</title>
<g id="a_Node000020"><a xlink:href="classTle92466edHandler.html#ae83bbf85e50d68c8adcc2160bdaed271" target="_top" xlink:title="Get the underlying driver for advanced operations.">
<polygon fill="#fff0f0" stroke="red" points="360,-337.5 242,-337.5 242,-307.5 360,-307.5 360,-337.5"/>
<text text-anchor="start" x="250" y="-325.5" font-family="Helvetica,sans-Serif" font-size="10.00">Tle92466edHandler::</text>
<text text-anchor="middle" x="301" y="-314.5" font-family="Helvetica,sans-Serif" font-size="10.00">GetDriver</text>
</a>
</g>
</g>
<!-- Node17&#45;&gt;Node20 -->
<g id="edge18_Node000017_Node000020" class="edge">
<title>Node17&#45;&gt;Node20</title>
<g id="a_edge18_Node000017_Node000020"><a xlink:title=" ">
<path fill="none" stroke="#63b8ff" d="M456.94,-354.91C425.55,-348.34 389.57,-340.81 360.18,-334.67"/>
<polygon fill="#63b8ff" stroke="#63b8ff" points="456.46,-358.38 466.96,-357 457.89,-351.53 456.46,-358.38"/>
</a>
</g>
</g>
<!-- Node22 -->
<g id="Node000022" class="node">
<title>Node22</title>
<g id="a_Node000022"><a xlink:href="classTle92466edHandler.html#aef42f3c7c1b1ef51b27eb8d178aca6bc" target="_top" xlink:title="Execute a lambda with a locked, initialized driver.">
<polygon fill="#fff0f0" stroke="red" points="360,-289.5 242,-289.5 242,-259.5 360,-259.5 360,-289.5"/>
<text text-anchor="start" x="250" y="-277.5" font-family="Helvetica,sans-Serif" font-size="10.00">Tle92466edHandler::</text>
<text text-anchor="middle" x="301" y="-266.5" font-family="Helvetica,sans-Serif" font-size="10.00">withDriver</text>
</a>
</g>
</g>
<!-- Node17&#45;&gt;Node22 -->
<g id="edge19_Node000017_Node000022" class="edge">
<title>Node17&#45;&gt;Node22</title>
<g id="a_edge19_Node000017_Node000022"><a xlink:title=" ">
<path fill="none" stroke="#63b8ff" d="M499.52,-349.9C473.58,-333.95 435.59,-312.33 400,-298.5 387.35,-293.58 373.37,-289.44 360.04,-286.06"/>
<polygon fill="#63b8ff" stroke="#63b8ff" points="497.83,-352.97 508.17,-355.28 501.53,-347.02 497.83,-352.97"/>
</a>
</g>
</g>
<!-- Node33 -->
<g id="Node000033" class="node">
<title>Node33</title>
<g id="a_Node000033"><a xlink:href="classWs2812Handler.html#afe5f397b22e9b92cf2fb2cebae6e123d" target="_top" xlink:title=" ">
<polygon fill="white" stroke="#666666" points="623,-154.5 442,-154.5 442,-124.5 623,-124.5 623,-154.5"/>
<text text-anchor="start" x="450" y="-142.5" font-family="Helvetica,sans-Serif" font-size="10.00">Ws2812Handler::EnsureInitialized</text>
<text text-anchor="middle" x="532.5" y="-131.5" font-family="Helvetica,sans-Serif" font-size="10.00">Locked</text>
</a>
</g>
</g>
<!-- Node32&#45;&gt;Node33 -->
<g id="edge21_Node000032_Node000033" class="edge">
<title>Node32&#45;&gt;Node33</title>
<g id="a_edge21_Node000032_Node000033"><a xlink:title=" ">
<path fill="none" stroke="#63b8ff" d="M670.41,-501.12C668.51,-499.71 666.7,-498.17 665,-496.5 616.17,-448.37 651.47,-411.27 629,-346.5 603.19,-272.09 559.8,-188.28 541.76,-154.65"/>
<polygon fill="#63b8ff" stroke="#63b8ff" points="668.93,-504.32 679.29,-506.56 672.59,-498.35 668.93,-504.32"/>
</a>
</g>
</g>
<!-- Node34 -->
<g id="Node000034" class="node">
<title>Node34</title>
<g id="a_Node000034"><a xlink:href="classWs2812Handler.html#a586683dcf63f17194b77c026972c7b2b" target="_top" xlink:title="Dump diagnostics to logger.">
<polygon fill="white" stroke="#666666" points="394,-241 208,-241 208,-222 394,-222 394,-241"/>
<text text-anchor="middle" x="301" y="-229" font-family="Helvetica,sans-Serif" font-size="10.00">Ws2812Handler::DumpDiagnostics</text>
</a>
</g>
</g>
<!-- Node33&#45;&gt;Node34 -->
<g id="edge22_Node000033_Node000034" class="edge">
<title>Node33&#45;&gt;Node34</title>
<g id="a_edge22_Node000033_Node000034"><a xlink:title=" ">
<path fill="none" stroke="#63b8ff" d="M501.22,-160.39C475.43,-177.21 436.8,-200.19 400,-213.5 390.57,-216.91 380.38,-219.7 370.26,-221.98"/>
<polygon fill="#63b8ff" stroke="#63b8ff" points="503.38,-163.16 509.79,-154.72 499.52,-157.32 503.38,-163.16"/>
</a>
</g>
</g>
<!-- Node35 -->
<g id="Node000035" class="node">
<title>Node35</title>
<g id="a_Node000035"><a xlink:href="classWs2812Handler.html#a764cc93c64a81844a284ac7515ea8366" target="_top" xlink:title="Ensure strip resources are initialized (lazy init entrypoint).">
<polygon fill="white" stroke="#666666" points="391.5,-204 210.5,-204 210.5,-185 391.5,-185 391.5,-204"/>
<text text-anchor="middle" x="301" y="-192" font-family="Helvetica,sans-Serif" font-size="10.00">Ws2812Handler::EnsureInitialized</text>
</a>
</g>
</g>
<!-- Node33&#45;&gt;Node35 -->
<g id="edge23_Node000033_Node000035" class="edge">
<title>Node33&#45;&gt;Node35</title>
<g id="a_edge23_Node000033_Node000035"><a xlink:title=" ">
<path fill="none" stroke="#63b8ff" d="M472.38,-157.39C449.84,-163.88 423.85,-170.97 400,-176.5 386.77,-179.57 372.44,-182.45 358.93,-184.97"/>
<polygon fill="#63b8ff" stroke="#63b8ff" points="473.51,-160.71 482.14,-154.56 471.56,-153.99 473.51,-160.71"/>
</a>
</g>
</g>
<!-- Node36 -->
<g id="Node000036" class="node">
<title>Node36</title>
<g id="a_Node000036"><a xlink:href="classWs2812Handler.html#a3e09ba2c15d5b0e7d6d254e22f634ae8" target="_top" xlink:title="Get the animator object.">
<polygon fill="#fff0f0" stroke="red" points="382,-167 220,-167 220,-148 382,-148 382,-167"/>
<text text-anchor="middle" x="301" y="-155" font-family="Helvetica,sans-Serif" font-size="10.00">Ws2812Handler::GetAnimator</text>
</a>
</g>
</g>
<!-- Node33&#45;&gt;Node36 -->
<g id="edge24_Node000033_Node000036" class="edge">
<title>Node33&#45;&gt;Node36</title>
<g id="a_edge24_Node000033_Node000036"><a xlink:title=" ">
<path fill="none" stroke="#63b8ff" d="M431.59,-147.34C415.12,-148.63 398.23,-149.95 382.32,-151.2"/>
<polygon fill="#63b8ff" stroke="#63b8ff" points="432.09,-150.81 441.78,-146.54 431.54,-143.83 432.09,-150.81"/>
</a>
</g>
</g>
<!-- Node38 -->
<g id="Node000038" class="node">
<title>Node38</title>
<g id="a_Node000038"><a xlink:href="classWs2812Handler.html#a7471840392adad3cab496e2dc57dc792" target="_top" xlink:title="Get the underlying LED strip object.">
<polygon fill="#fff0f0" stroke="red" points="371,-130 231,-130 231,-111 371,-111 371,-130"/>
<text text-anchor="middle" x="301" y="-118" font-family="Helvetica,sans-Serif" font-size="10.00">Ws2812Handler::GetStrip</text>
</a>
</g>
</g>
<!-- Node33&#45;&gt;Node38 -->
<g id="edge25_Node000033_Node000038" class="edge">
<title>Node33&#45;&gt;Node38</title>
<g id="a_edge25_Node000033_Node000038"><a xlink:title=" ">
<path fill="none" stroke="#63b8ff" d="M431.79,-131.25C411.3,-129.55 390.16,-127.8 371.05,-126.22"/>
<polygon fill="#63b8ff" stroke="#63b8ff" points="431.53,-134.74 441.78,-132.07 432.11,-127.76 431.53,-134.74"/>
</a>
</g>
</g>
<!-- Node40 -->
<g id="Node000040" class="node">
<title>Node40</title>
<g id="a_Node000040"><a xlink:href="classWs2812Handler.html#ad67002bf517195998950ed6d8385ee89" target="_top" xlink:title="Transmit pixel data to the LED strip.">
<polygon fill="white" stroke="#666666" points="364,-93 238,-93 238,-74 364,-74 364,-93"/>
<text text-anchor="middle" x="301" y="-81" font-family="Helvetica,sans-Serif" font-size="10.00">Ws2812Handler::Show</text>
</a>
</g>
</g>
<!-- Node33&#45;&gt;Node40 -->
<g id="edge26_Node000033_Node000040" class="edge">
<title>Node33&#45;&gt;Node40</title>
<g id="a_edge26_Node000033_Node000040"><a xlink:title=" ">
<path fill="none" stroke="#63b8ff" d="M472.06,-121.65C449.59,-115.2 423.72,-108.13 400,-102.5 385.58,-99.08 369.86,-95.83 355.32,-93.01"/>
<polygon fill="#63b8ff" stroke="#63b8ff" points="471.22,-125.05 481.8,-124.47 473.17,-118.33 471.22,-125.05"/>
</a>
</g>
</g>
<!-- Node41 -->
<g id="Node000041" class="node">
<title>Node41</title>
<g id="a_Node000041"><a xlink:href="classWs2812Handler.html#a60ee1479e87c2ddb672a03a053be0c59" target="_top" xlink:title="Advance animation by one step.">
<polygon fill="white" stroke="#666666" points="362,-56 240,-56 240,-37 362,-37 362,-56"/>
<text text-anchor="middle" x="301" y="-44" font-family="Helvetica,sans-Serif" font-size="10.00">Ws2812Handler::Step</text>
</a>
</g>
</g>
<!-- Node33&#45;&gt;Node41 -->
<g id="edge27_Node000033_Node000041" class="edge">
<title>Node33&#45;&gt;Node41</title>
<g id="a_edge27_Node000033_Node000041"><a xlink:title=" ">
<path fill="none" stroke="#63b8ff" d="M501.19,-118.71C475.37,-101.94 436.73,-78.99 400,-65.5 388.04,-61.11 374.87,-57.67 362.17,-55"/>
<polygon fill="#63b8ff" stroke="#63b8ff" points="499.48,-121.78 509.76,-124.36 503.34,-115.93 499.48,-121.78"/>
</a>
</g>
</g>
<!-- Node42 -->
<g id="Node000042" class="node">
<title>Node42</title>
<g id="a_Node000042"><a xlink:href="classWs2812Handler.html#af74a184df9277227e6d2b593d13c4501" target="_top" xlink:title="Advance animation by time delta (call periodically).">
<polygon fill="white" stroke="#666666" points="361,-19 241,-19 241,0 361,0 361,-19"/>
<text text-anchor="middle" x="301" y="-7" font-family="Helvetica,sans-Serif" font-size="10.00">Ws2812Handler::Tick</text>
</a>
</g>
</g>
<!-- Node33&#45;&gt;Node42 -->
<g id="edge28_Node000033_Node000042" class="edge">
<title>Node33&#45;&gt;Node42</title>
<g id="a_edge28_Node000033_Node000042"><a xlink:title=" ">
<path fill="none" stroke="#63b8ff" d="M511.94,-116.82C488.2,-90.88 445.66,-49.19 400,-27.5 387.97,-21.78 374.31,-17.88 361.09,-15.21"/>
<polygon fill="#63b8ff" stroke="#63b8ff" points="509.39,-119.23 518.68,-124.33 514.6,-114.55 509.39,-119.23"/>
</a>
</g>
</g>
<!-- Node47 -->
<g id="Node000047" class="node">
<title>Node47</title>
<g id="a_Node000047"><a xlink:href="classTmc5160Handler.html#a6d4fce2433e03bb11b05a4278ef66fd0" target="_top" xlink:title=" ">
<polygon fill="white" stroke="#666666" points="626,-888.5 439,-888.5 439,-858.5 626,-858.5 626,-888.5"/>
<text text-anchor="start" x="447" y="-876.5" font-family="Helvetica,sans-Serif" font-size="10.00">Tmc5160Handler::EnsureInitialized</text>
<text text-anchor="middle" x="532.5" y="-865.5" font-family="Helvetica,sans-Serif" font-size="10.00">Locked</text>
</a>
</g>
</g>
<!-- Node46&#45;&gt;Node47 -->
<g id="edge33_Node000046_Node000047" class="edge">
<title>Node46&#45;&gt;Node47</title>
<g id="a_edge33_Node000046_Node000047"><a xlink:title=" ">
<path fill="none" stroke="#63b8ff" d="M724.95,-756.5C683.4,-781.89 599.69,-833.05 558.1,-858.46"/>
<polygon fill="#63b8ff" stroke="#63b8ff" points="726.91,-759.41 733.62,-751.21 723.26,-753.43 726.91,-759.41"/>
</a>
</g>
</g>
<!-- Node47&#45;&gt;Node3 -->
<g id="edge37_Node000047_Node000003" class="edge">
<title>Node47&#45;&gt;Node3</title>
<g id="a_edge37_Node000047_Node000003"><a xlink:title=" ">
<path fill="none" stroke="#63b8ff" d="M444.27,-894.48C441.27,-896.88 438.49,-899.54 436,-902.5 352.36,-1001.86 489.13,-1098.03 400,-1192.5 396.91,-1195.77 393.44,-1198.56 389.7,-1200.94"/>
<polygon fill="#63b8ff" stroke="#63b8ff" points="446.4,-897.27 452.69,-888.74 442.46,-891.48 446.4,-897.27"/>
</a>
</g>
</g>
<!-- Node48 -->
<g id="Node000048" class="node">
<title>Node48</title>
<g id="a_Node000048"><a xlink:href="classTmc5160Handler.html#a30cf2ab584290fadfcb7d7cc6603444b" target="_top" xlink:title="Disable the motor driver power stage.">
<polygon fill="white" stroke="#666666" points="386.5,-1183 215.5,-1183 215.5,-1164 386.5,-1164 386.5,-1183"/>
<text text-anchor="middle" x="301" y="-1171" font-family="Helvetica,sans-Serif" font-size="10.00">Tmc5160Handler::DisableMotor</text>
</a>
</g>
</g>
<!-- Node47&#45;&gt;Node48 -->
<g id="edge34_Node000047_Node000048" class="edge">
<title>Node47&#45;&gt;Node48</title>
<g id="a_edge34_Node000047_Node000048"><a xlink:title=" ">
<path fill="none" stroke="#63b8ff" d="M444.83,-894.16C441.62,-896.64 438.65,-899.41 436,-902.5 362.08,-988.73 478.68,-1073.59 400,-1155.5 396.05,-1159.62 391.48,-1162.97 386.53,-1165.69"/>
<polygon fill="#63b8ff" stroke="#63b8ff" points="446.85,-897.02 453.25,-888.57 442.98,-891.18 446.85,-897.02"/>
</a>
</g>
</g>
<!-- Node49 -->
<g id="Node000049" class="node">
<title>Node49</title>
<g id="a_Node000049"><a xlink:href="classTmc5160Handler.html#a15dae0f711e2dd4ecea09822b8a3a8bb" target="_top" xlink:title="Get typed SPI driver pointer (null if UART mode or not initialized).">
<polygon fill="#fff0f0" stroke="red" points="383.5,-1146 218.5,-1146 218.5,-1127 383.5,-1127 383.5,-1146"/>
<text text-anchor="middle" x="301" y="-1134" font-family="Helvetica,sans-Serif" font-size="10.00">Tmc5160Handler::driverViaSpi</text>
</a>
</g>
</g>
<!-- Node47&#45;&gt;Node49 -->
<g id="edge35_Node000047_Node000049" class="edge">
<title>Node47&#45;&gt;Node49</title>
<g id="a_edge35_Node000047_Node000049"><a xlink:title=" ">
<path fill="none" stroke="#63b8ff" d="M444.92,-894.24C441.69,-896.69 438.69,-899.44 436,-902.5 371.78,-975.63 468.25,-1049.12 400,-1118.5 395.27,-1123.31 389.71,-1127.07 383.67,-1129.99"/>
<polygon fill="#63b8ff" stroke="#63b8ff" points="446.94,-897.1 453.39,-888.69 443.1,-891.24 446.94,-897.1"/>
</a>
</g>
</g>
<!-- Node51 -->
<g id="Node000051" class="node">
<title>Node51</title>
<g id="a_Node000051"><a xlink:href="classTmc5160Handler.html#af8cb1c7b5011bd24102d296f22c211c5" target="_top" xlink:title="Get typed UART driver pointer (null if SPI mode or not initialized).">
<polygon fill="#fff0f0" stroke="red" points="386.5,-1109 215.5,-1109 215.5,-1090 386.5,-1090 386.5,-1109"/>
<text text-anchor="middle" x="301" y="-1097" font-family="Helvetica,sans-Serif" font-size="10.00">Tmc5160Handler::driverViaUart</text>
</a>
</g>
</g>
<!-- Node47&#45;&gt;Node51 -->
<g id="edge36_Node000047_Node000051" class="edge">
<title>Node47&#45;&gt;Node51</title>
<g id="a_edge36_Node000047_Node000051"><a xlink:title=" ">
<path fill="none" stroke="#63b8ff" d="M445.56,-893.97C442.1,-896.49 438.88,-899.33 436,-902.5 381.45,-962.58 457.86,-1024.6 400,-1081.5 396.05,-1085.38 391.56,-1088.57 386.72,-1091.19"/>
<polygon fill="#63b8ff" stroke="#63b8ff" points="447.45,-896.91 454.04,-888.61 443.71,-890.99 447.45,-896.91"/>
</a>
</g>
</g>
<!-- Node53 -->
<g id="Node000053" class="node">
<title>Node53</title>
<g id="a_Node000053"><a xlink:href="classTmc5160Handler.html#af04426991f32e1a5022df0ec7e9d821d" target="_top" xlink:title="Enable the motor driver power stage.">
<polygon fill="white" stroke="#666666" points="384.5,-1072 217.5,-1072 217.5,-1053 384.5,-1053 384.5,-1072"/>
<text text-anchor="middle" x="301" y="-1060" font-family="Helvetica,sans-Serif" font-size="10.00">Tmc5160Handler::EnableMotor</text>
</a>
</g>
</g>
<!-- Node47&#45;&gt;Node53 -->
<g id="edge38_Node000047_Node000053" class="edge">
<title>Node47&#45;&gt;Node53</title>
<g id="a_edge38_Node000047_Node000053"><a xlink:title=" ">
<path fill="none" stroke="#63b8ff" d="M445.99,-893.98C442.39,-896.5 439.03,-899.33 436,-902.5 391.05,-949.6 447.55,-1000.02 400,-1044.5 395.45,-1048.75 390.25,-1052.17 384.66,-1054.89"/>
<polygon fill="#63b8ff" stroke="#63b8ff" points="448.06,-896.82 454.79,-888.63 444.42,-890.83 448.06,-896.82"/>
</a>
</g>
</g>
<!-- Node54 -->
<g id="Node000054" class="node">
<title>Node54</title>
<g id="a_Node000054"><a xlink:href="classTmc5160Handler.html#a5ad276d4fcd81765d0a5af064fdbf7b5" target="_top" xlink:title="Ensure driver is initialized (lazy init entrypoint).">
<polygon fill="#fff0f0" stroke="red" points="394.5,-1035 207.5,-1035 207.5,-1016 394.5,-1016 394.5,-1035"/>
<text text-anchor="middle" x="301" y="-1023" font-family="Helvetica,sans-Serif" font-size="10.00">Tmc5160Handler::EnsureInitialized</text>
</a>
</g>
</g>
<!-- Node47&#45;&gt;Node54 -->
<g id="edge39_Node000047_Node000054" class="edge">
<title>Node47&#45;&gt;Node54</title>
<g id="a_edge39_Node000047_Node000054"><a xlink:title=" ">
<path fill="none" stroke="#63b8ff" d="M447.44,-893.54C443.33,-896.17 439.48,-899.14 436,-902.5 400.5,-936.76 437.38,-975.3 400,-1007.5 396.2,-1010.77 392,-1013.54 387.55,-1015.86"/>
<polygon fill="#63b8ff" stroke="#63b8ff" points="449.2,-896.57 456.19,-888.62 445.76,-890.47 449.2,-896.57"/>
</a>
</g>
</g>
<!-- Node56 -->
<g id="Node000056" class="node">
<title>Node56</title>
<g id="a_Node000056"><a xlink:href="classTmc5160Handler.html#a0a90626550f36ea01dcd16a20877ca9e" target="_top" xlink:title="Get the chip version info.">
<polygon fill="white" stroke="#666666" points="391.5,-998 210.5,-998 210.5,-979 391.5,-979 391.5,-998"/>
<text text-anchor="middle" x="301" y="-986" font-family="Helvetica,sans-Serif" font-size="10.00">Tmc5160Handler::GetChipVersion</text>
</a>
</g>
</g>
<!-- Node47&#45;&gt;Node56 -->
<g id="edge40_Node000047_Node000056" class="edge">
<title>Node47&#45;&gt;Node56</title>
<g id="a_edge40_Node000047_Node000056"><a xlink:title=" ">
<path fill="none" stroke="#63b8ff" d="M450.19,-893.06C445.15,-895.8 440.36,-898.93 436,-902.5 409.85,-923.92 427.22,-949.46 400,-969.5 394.84,-973.3 389.12,-976.4 383.11,-978.92"/>
<polygon fill="#63b8ff" stroke="#63b8ff" points="452.04,-896.05 459.5,-888.52 448.98,-889.75 452.04,-896.05"/>
</a>
</g>
</g>
<!-- Node57 -->
<g id="Node000057" class="node">
<title>Node57</title>
<g id="a_Node000057"><a xlink:href="classTmc5160Handler.html#acdb558e7d2b6c2548aca4fab849d5362" target="_top" xlink:title="Get current position in microsteps.">
<polygon fill="white" stroke="#666666" points="380.5,-960.5 221.5,-960.5 221.5,-930.5 380.5,-930.5 380.5,-960.5"/>
<text text-anchor="start" x="229.5" y="-948.5" font-family="Helvetica,sans-Serif" font-size="10.00">Tmc5160Handler::GetCurrent</text>
<text text-anchor="middle" x="301" y="-937.5" font-family="Helvetica,sans-Serif" font-size="10.00">Position</text>
</a>
</g>
</g>
<!-- Node47&#45;&gt;Node57 -->
<g id="edge41_Node000047_Node000057" class="edge">
<title>Node47&#45;&gt;Node57</title>
<g id="a_edge41_Node000047_Node000057"><a xlink:title=" ">
<path fill="none" stroke="#63b8ff" d="M465.93,-891.6C455.79,-894.91 445.53,-898.58 436,-902.5 419.27,-909.38 416.91,-915.08 400,-921.5 391.24,-924.83 381.86,-927.81 372.5,-930.45"/>
<polygon fill="#63b8ff" stroke="#63b8ff" points="467.11,-894.9 475.57,-888.53 464.98,-888.23 467.11,-894.9"/>
</a>
</g>
</g>
<!-- Node58 -->
<g id="Node000058" class="node">
<title>Node58</title>
<g id="a_Node000058"><a xlink:href="classTmc5160Handler.html#a477ffe28808df5706f1f3f15018665b7" target="_top" xlink:title="Get current velocity.">
<polygon fill="white" stroke="#666666" points="380.5,-912.5 221.5,-912.5 221.5,-882.5 380.5,-882.5 380.5,-912.5"/>
<text text-anchor="start" x="229.5" y="-900.5" font-family="Helvetica,sans-Serif" font-size="10.00">Tmc5160Handler::GetCurrent</text>
<text text-anchor="middle" x="301" y="-889.5" font-family="Helvetica,sans-Serif" font-size="10.00">Velocity</text>
</a>
</g>
</g>
<!-- Node47&#45;&gt;Node58 -->
<g id="edge42_Node000047_Node000058" class="edge">
<title>Node47&#45;&gt;Node58</title>
<g id="a_edge42_Node000047_Node000058"><a xlink:title=" ">
<path fill="none" stroke="#63b8ff" d="M428.81,-884.24C412.65,-885.93 396.17,-887.65 380.67,-889.27"/>
<polygon fill="#63b8ff" stroke="#63b8ff" points="429.23,-887.71 438.82,-883.19 428.51,-880.75 429.23,-887.71"/>
</a>
</g>
</g>
<!-- Node59 -->
<g id="Node000059" class="node">
<title>Node59</title>
<g id="a_Node000059"><a xlink:href="classTmc5160Handler.html#af583b8d7baca711d2d0e3269bff68ba7" target="_top" xlink:title="Get StallGuard result value.">
<polygon fill="white" stroke="#666666" points="373.5,-864.5 228.5,-864.5 228.5,-834.5 373.5,-834.5 373.5,-864.5"/>
<text text-anchor="start" x="236.5" y="-852.5" font-family="Helvetica,sans-Serif" font-size="10.00">Tmc5160Handler::GetStall</text>
<text text-anchor="middle" x="301" y="-841.5" font-family="Helvetica,sans-Serif" font-size="10.00">GuardResult</text>
</a>
</g>
</g>
<!-- Node47&#45;&gt;Node59 -->
<g id="edge43_Node000047_Node000059" class="edge">
<title>Node47&#45;&gt;Node59</title>
<g id="a_edge43_Node000047_Node000059"><a xlink:title=" ">
<path fill="none" stroke="#63b8ff" d="M428.86,-862.77C410.29,-860.82 391.3,-858.84 373.85,-857.01"/>
<polygon fill="#63b8ff" stroke="#63b8ff" points="428.51,-866.25 438.82,-863.81 429.23,-859.29 428.51,-866.25"/>
</a>
</g>
</g>
<!-- Node60 -->
<g id="Node000060" class="node">
<title>Node60</title>
<g id="a_Node000060"><a xlink:href="classTmc5160Handler.html#a886e33b5d5de426d64b2e006c90422a2" target="_top" xlink:title="Check if motor is enabled.">
<polygon fill="white" stroke="#666666" points="392,-816 210,-816 210,-797 392,-797 392,-816"/>
<text text-anchor="middle" x="301" y="-804" font-family="Helvetica,sans-Serif" font-size="10.00">Tmc5160Handler::IsMotorEnabled</text>
</a>
</g>
</g>
<!-- Node47&#45;&gt;Node60 -->
<g id="edge44_Node000047_Node000060" class="edge">
<title>Node47&#45;&gt;Node60</title>
<g id="a_edge44_Node000047_Node000060"><a xlink:title=" ">
<path fill="none" stroke="#63b8ff" d="M485.58,-854.71C460.59,-845 428.94,-833.53 400,-825.5 386.97,-821.88 372.79,-818.71 359.36,-816.04"/>
<polygon fill="#63b8ff" stroke="#63b8ff" points="484.58,-858.07 495.16,-858.47 487.13,-851.56 484.58,-858.07"/>
</a>
</g>
</g>
<!-- Node61 -->
<g id="Node000061" class="node">
<title>Node61</title>
<g id="a_Node000061"><a xlink:href="classTmc5160Handler.html#a92ab9f87e4c97d8be86e6ed29fa62814" target="_top" xlink:title="Check for overtemperature condition.">
<polygon fill="white" stroke="#666666" points="400,-779 202,-779 202,-760 400,-760 400,-779"/>
<text text-anchor="middle" x="301" y="-767" font-family="Helvetica,sans-Serif" font-size="10.00">Tmc5160Handler::IsOvertemperature</text>
</a>
</g>
</g>
<!-- Node47&#45;&gt;Node61 -->
<g id="edge45_Node000047_Node000061" class="edge">
<title>Node47&#45;&gt;Node61</title>
<g id="a_edge45_Node000047_Node000061"><a xlink:title=" ">
<path fill="none" stroke="#63b8ff" d="M505.15,-852.09C479.73,-832.55 439.42,-804.37 400,-788.5 390.35,-784.62 379.85,-781.51 369.41,-779.03"/>
<polygon fill="#63b8ff" stroke="#63b8ff" points="503.14,-854.96 513.17,-858.36 507.45,-849.45 503.14,-854.96"/>
</a>
</g>
</g>
<!-- Node62 -->
<g id="Node000062" class="node">
<title>Node62</title>
<g id="a_Node000062"><a xlink:href="classTmc5160Handler.html#a0a25f971f0c8a23a489d35ce53fea164" target="_top" xlink:title="Check for stall detection.">
<polygon fill="white" stroke="#666666" points="391,-742 211,-742 211,-723 391,-723 391,-742"/>
<text text-anchor="middle" x="301" y="-730" font-family="Helvetica,sans-Serif" font-size="10.00">Tmc5160Handler::IsStallDetected</text>
</a>
</g>
</g>
<!-- Node47&#45;&gt;Node62 -->
<g id="edge46_Node000047_Node000062" class="edge">
<title>Node47&#45;&gt;Node62</title>
<g id="a_edge46_Node000047_Node000062"><a xlink:title=" ">
<path fill="none" stroke="#63b8ff" d="M513.45,-850.19C490.35,-822.09 447.56,-775.64 400,-751.5 392.35,-747.62 384,-744.53 375.49,-742.06"/>
<polygon fill="#63b8ff" stroke="#63b8ff" points="510.97,-852.69 519.98,-858.28 516.42,-848.3 510.97,-852.69"/>
</a>
</g>
</g>
<!-- Node63 -->
<g id="Node000063" class="node">
<title>Node63</title>
<g id="a_Node000063"><a xlink:href="classTmc5160Handler.html#ad72f4e8d1cb8848bd5967b87637d5f62" target="_top" xlink:title="Check if the motor is at standstill.">
<polygon fill="white" stroke="#666666" points="381,-705 221,-705 221,-686 381,-686 381,-705"/>
<text text-anchor="middle" x="301" y="-693" font-family="Helvetica,sans-Serif" font-size="10.00">Tmc5160Handler::IsStandstill</text>
</a>
</g>
</g>
<!-- Node47&#45;&gt;Node63 -->
<g id="edge47_Node000047_Node000063" class="edge">
<title>Node47&#45;&gt;Node63</title>
<g id="a_edge47_Node000047_Node000063"><a xlink:title=" ">
<path fill="none" stroke="#63b8ff" d="M518.86,-849.52C498.76,-813.92 455.99,-747.73 400,-714.5 393.44,-710.61 386.24,-707.49 378.82,-705"/>
<polygon fill="#63b8ff" stroke="#63b8ff" points="515.8,-851.22 523.7,-858.29 521.93,-847.84 515.8,-851.22"/>
</a>
</g>
</g>
<!-- Node64 -->
<g id="Node000064" class="node">
<title>Node64</title>
<g id="a_Node000064"><a xlink:href="classTmc5160Handler.html#ad1831c33ceedfac6dfb31c99c5009048" target="_top" xlink:title="Check if target position has been reached.">
<polygon fill="white" stroke="#666666" points="373,-667.5 229,-667.5 229,-637.5 373,-637.5 373,-667.5"/>
<text text-anchor="start" x="237" y="-655.5" font-family="Helvetica,sans-Serif" font-size="10.00">Tmc5160Handler::IsTarget</text>
<text text-anchor="middle" x="301" y="-644.5" font-family="Helvetica,sans-Serif" font-size="10.00">Reached</text>
</a>
</g>
</g>
<!-- Node47&#45;&gt;Node64 -->
<g id="edge48_Node000047_Node000064" class="edge">
<title>Node47&#45;&gt;Node64</title>
<g id="a_edge48_Node000047_Node000064"><a xlink:title=" ">
<path fill="none" stroke="#63b8ff" d="M522.04,-849.07C504.55,-807.23 463.08,-722.04 400,-677.5 391.9,-671.78 382.6,-667.36 373.02,-663.96"/>
<polygon fill="#63b8ff" stroke="#63b8ff" points="518.87,-850.55 525.88,-858.49 525.35,-847.91 518.87,-850.55"/>
</a>
</g>
</g>
<!-- Node65 -->
<g id="Node000065" class="node">
<title>Node65</title>
<g id="a_Node000065"><a xlink:href="classTmc5160Handler.html#abc25e920be9b4093eb44b3a5da8bd0ed" target="_top" xlink:title="Stop motor immediately.">
<polygon fill="white" stroke="#666666" points="365,-619 237,-619 237,-600 365,-600 365,-619"/>
<text text-anchor="middle" x="301" y="-607" font-family="Helvetica,sans-Serif" font-size="10.00">Tmc5160Handler::Stop</text>
</a>
</g>
</g>
<!-- Node47&#45;&gt;Node65 -->
<g id="edge49_Node000047_Node000065" class="edge">
<title>Node47&#45;&gt;Node65</title>
<g id="a_edge49_Node000047_Node000065"><a xlink:title=" ">
<path fill="none" stroke="#63b8ff" d="M525.78,-848.72C512.81,-798.48 476.2,-684.63 400,-628.5 389.81,-621 377.47,-616.23 365.02,-613.24"/>
<polygon fill="#63b8ff" stroke="#63b8ff" points="522.39,-849.57 528.19,-858.43 529.18,-847.89 522.39,-849.57"/>
</a>
</g>
</g>
</g>
</svg>
