<?xml version="1.0" encoding="UTF-8" standalone="no"?>
<!DOCTYPE svg PUBLIC "-//W3C//DTD SVG 1.1//EN"
 "http://www.w3.org/Graphics/SVG/1.1/DTD/svg11.dtd">
<!-- Generated by graphviz version 2.43.0 (0)
 -->
<!-- Title: Tmc5160Handler::IsStandstill Pages: 1 -->
<svg width="890pt" height="138pt"
 viewBox="0.00 0.00 890.00 138.00" xmlns="http://www.w3.org/2000/svg" xmlns:xlink="http://www.w3.org/1999/xlink">
<g id="graph0" class="graph" transform="scale(1 1) rotate(0) translate(4 134)">
<title>Tmc5160Handler::IsStandstill</title>
<!-- Node1 -->
<g id="Node000001" class="node">
<title>Node1</title>
<g id="a_Node000001"><a xlink:title="Check if the motor is at standstill.">
<polygon fill="#999999" stroke="#666666" points="160,-50 0,-50 0,-31 160,-31 160,-50"/>
<text text-anchor="middle" x="80" y="-38" font-family="Helvetica,sans-Serif" font-size="10.00">Tmc5160Handler::IsStandstill</text>
</a>
</g>
</g>
<!-- Node2 -->
<g id="Node000002" class="node">
<title>Node2</title>
<g id="a_Node000002"><a xlink:href="classTmc5160Handler.html#a6d4fce2433e03bb11b05a4278ef66fd0" target="_top" xlink:title=" ">
<polygon fill="white" stroke="#666666" points="383,-79.5 196,-79.5 196,-49.5 383,-49.5 383,-79.5"/>
<text text-anchor="start" x="204" y="-67.5" font-family="Helvetica,sans-Serif" font-size="10.00">Tmc5160Handler::EnsureInitialized</text>
<text text-anchor="middle" x="289.5" y="-56.5" font-family="Helvetica,sans-Serif" font-size="10.00">Locked</text>
</a>
</g>
</g>
<!-- Node1&#45;&gt;Node2 -->
<g id="edge1_Node000001_Node000002" class="edge">
<title>Node1&#45;&gt;Node2</title>
<g id="a_edge1_Node000001_Node000002"><a xlink:title=" ">
<path fill="none" stroke="#63b8ff" d="M160.04,-49.64C168.44,-50.61 177.06,-51.61 185.68,-52.61"/>
<polygon fill="#63b8ff" stroke="#63b8ff" points="185.44,-56.1 195.78,-53.78 186.24,-49.15 185.44,-56.1"/>
</a>
</g>
</g>
<!-- Node10 -->
<g id="Node000010" class="node">
<title>Node10</title>
<g id="a_Node000010"><a xlink:href="classTmc5160Handler.html#a439a68f9d3f6785e0a493f9ed3821325" target="_top" xlink:title="Helper: execute a visitor on the active driver (no lock, internal use)">
<polygon fill="white" stroke="#666666" points="368,-31.5 211,-31.5 211,-1.5 368,-1.5 368,-31.5"/>
<text text-anchor="start" x="219" y="-19.5" font-family="Helvetica,sans-Serif" font-size="10.00">Tmc5160Handler::visitDriver</text>
<text text-anchor="middle" x="289.5" y="-8.5" font-family="Helvetica,sans-Serif" font-size="10.00">Internal</text>
</a>
</g>
</g>
<!-- Node1&#45;&gt;Node10 -->
<g id="edge13_Node000001_Node000010" class="edge">
<title>Node1&#45;&gt;Node10</title>
<g id="a_edge13_Node000001_Node000010"><a xlink:title=" ">
<path fill="none" stroke="#63b8ff" d="M160.04,-31.36C173.27,-29.83 187.08,-28.23 200.52,-26.68"/>
<polygon fill="#63b8ff" stroke="#63b8ff" points="201.18,-30.12 210.71,-25.5 200.37,-23.17 201.18,-30.12"/>
</a>
</g>
</g>
<!-- Node3 -->
<g id="Node000003" class="node">
<title>Node3</title>
<g id="a_Node000003"><a xlink:href="classTmc5160Handler.html#a64755f326176b0a38485acf5ca69fd0c" target="_top" xlink:title="Initialize the TMC5160 driver with full configuration.">
<polygon fill="white" stroke="#666666" points="567,-74 419,-74 419,-55 567,-55 567,-74"/>
<text text-anchor="middle" x="493" y="-62" font-family="Helvetica,sans-Serif" font-size="10.00">Tmc5160Handler::Initialize</text>
</a>
</g>
</g>
<!-- Node2&#45;&gt;Node3 -->
<g id="edge2_Node000002_Node000003" class="edge">
<title>Node2&#45;&gt;Node3</title>
<g id="a_edge2_Node000002_Node000003"><a xlink:title=" ">
<path fill="none" stroke="#63b8ff" d="M383.29,-64.5C391.73,-64.5 400.25,-64.5 408.61,-64.5"/>
<polygon fill="#63b8ff" stroke="#63b8ff" points="408.7,-68 418.7,-64.5 408.7,-61 408.7,-68"/>
</a>
</g>
</g>
<!-- Node4 -->
<g id="Node000004" class="node">
<title>Node4</title>
<g id="a_Node000004"><a xlink:href="classLogger.html#adce17848a5844e053bfd314863dc1404" target="_top" xlink:title="Log error message.">
<polygon fill="white" stroke="#666666" points="699.5,-130 620.5,-130 620.5,-111 699.5,-111 699.5,-130"/>
<text text-anchor="middle" x="660" y="-118" font-family="Helvetica,sans-Serif" font-size="10.00">Logger::Error</text>
</a>
</g>
</g>
<!-- Node3&#45;&gt;Node4 -->
<g id="edge3_Node000003_Node000004" class="edge">
<title>Node3&#45;&gt;Node4</title>
<g id="a_edge3_Node000003_Node000004"><a xlink:title=" ">
<path fill="none" stroke="#63b8ff" d="M520.81,-74.05C542.84,-81.85 574.88,-93.08 603,-102.5 608.2,-104.24 613.69,-106.05 619.12,-107.81"/>
<polygon fill="#63b8ff" stroke="#63b8ff" points="618.14,-111.17 628.73,-110.92 620.29,-104.51 618.14,-111.17"/>
</a>
</g>
</g>
<!-- Node7 -->
<g id="Node000007" class="node">
<title>Node7</title>
<g id="a_Node000007"><a xlink:href="classLogger.html#a5789d11f8f1356e2192c0023a089cbc4" target="_top" xlink:title="Get singleton instance.">
<polygon fill="white" stroke="#666666" points="717,-19 603,-19 603,0 717,0 717,-19"/>
<text text-anchor="middle" x="660" y="-7" font-family="Helvetica,sans-Serif" font-size="10.00">Logger::GetInstance</text>
</a>
</g>
</g>
<!-- Node3&#45;&gt;Node7 -->
<g id="edge6_Node000003_Node000007" class="edge">
<title>Node3&#45;&gt;Node7</title>
<g id="a_edge6_Node000003_Node000007"><a xlink:title=" ">
<path fill="none" stroke="#63b8ff" d="M522.74,-54.92C549.87,-45.88 590.73,-32.26 620.63,-22.29"/>
<polygon fill="#63b8ff" stroke="#63b8ff" points="621.93,-25.55 630.31,-19.06 619.72,-18.9 621.93,-25.55"/>
</a>
</g>
</g>
<!-- Node8 -->
<g id="Node000008" class="node">
<title>Node8</title>
<g id="a_Node000008"><a xlink:href="classLogger.html#a4681229c521795685fc14f6b55c82300" target="_top" xlink:title="Log info message.">
<polygon fill="white" stroke="#666666" points="697,-93 623,-93 623,-74 697,-74 697,-93"/>
<text text-anchor="middle" x="660" y="-81" font-family="Helvetica,sans-Serif" font-size="10.00">Logger::Info</text>
</a>
</g>
</g>
<!-- Node3&#45;&gt;Node8 -->
<g id="edge7_Node000003_Node000008" class="edge">
<title>Node3&#45;&gt;Node8</title>
<g id="a_edge7_Node000003_Node000008"><a xlink:title=" ">
<path fill="none" stroke="#63b8ff" d="M567.33,-72.94C582.85,-74.73 598.8,-76.57 612.96,-78.2"/>
<polygon fill="#63b8ff" stroke="#63b8ff" points="612.58,-81.68 622.92,-79.35 613.38,-74.72 612.58,-81.68"/>
</a>
</g>
</g>
<!-- Node9 -->
<g id="Node000009" class="node">
<title>Node9</title>
<g id="a_Node000009"><a xlink:href="classLogger.html#aaa95ffa14d07a965d4a85bdec82cba26" target="_top" xlink:title="Log warning message.">
<polygon fill="white" stroke="#666666" points="700,-56 620,-56 620,-37 700,-37 700,-56"/>
<text text-anchor="middle" x="660" y="-44" font-family="Helvetica,sans-Serif" font-size="10.00">Logger::Warn</text>
</a>
</g>
</g>
<!-- Node3&#45;&gt;Node9 -->
<g id="edge10_Node000003_Node000009" class="edge">
<title>Node3&#45;&gt;Node9</title>
<g id="a_edge10_Node000003_Node000009"><a xlink:title=" ">
<path fill="none" stroke="#63b8ff" d="M567.33,-56.5C581.59,-54.94 596.23,-53.35 609.49,-51.9"/>
<polygon fill="#63b8ff" stroke="#63b8ff" points="610.25,-55.34 619.81,-50.78 609.49,-48.38 610.25,-55.34"/>
</a>
</g>
</g>
<!-- Node5 -->
<g id="Node000005" class="node">
<title>Node5</title>
<g id="a_Node000005"><a xlink:href="classLogger.html#af9e84e0ff6bd538e4f9ed8dcebc3e2f0" target="_top" xlink:title="Check if log level is enabled for tag.">
<polygon fill="white" stroke="#666666" points="882,-111 753,-111 753,-92 882,-92 882,-111"/>
<text text-anchor="middle" x="817.5" y="-99" font-family="Helvetica,sans-Serif" font-size="10.00">Logger::IsLevelEnabled</text>
</a>
</g>
</g>
<!-- Node4&#45;&gt;Node5 -->
<g id="edge4_Node000004_Node000005" class="edge">
<title>Node4&#45;&gt;Node5</title>
<g id="a_edge4_Node000004_Node000005"><a xlink:title=" ">
<path fill="none" stroke="#63b8ff" d="M699.84,-115.75C712.85,-114.16 727.82,-112.34 742.6,-110.53"/>
<polygon fill="#63b8ff" stroke="#63b8ff" points="743.28,-113.97 752.78,-109.29 742.43,-107.02 743.28,-113.97"/>
</a>
</g>
</g>
<!-- Node6 -->
<g id="Node000006" class="node">
<title>Node6</title>
<g id="a_Node000006"><a xlink:href="classLogger.html#a6adb205db597526fb91ad20067400394" target="_top" xlink:title="Internal logging method.">
<polygon fill="white" stroke="#666666" points="872.5,-74 762.5,-74 762.5,-55 872.5,-55 872.5,-74"/>
<text text-anchor="middle" x="817.5" y="-62" font-family="Helvetica,sans-Serif" font-size="10.00">Logger::LogInternal</text>
</a>
</g>
</g>
<!-- Node4&#45;&gt;Node6 -->
<g id="edge5_Node000004_Node000006" class="edge">
<title>Node4&#45;&gt;Node6</title>
<g id="a_edge5_Node000004_Node000006"><a xlink:title=" ">
<path fill="none" stroke="#63b8ff" d="M693.92,-110.98C701.59,-108.47 709.66,-105.59 717,-102.5 733.68,-95.48 736.25,-90.35 753,-83.5 758.53,-81.24 764.42,-79.12 770.31,-77.16"/>
<polygon fill="#63b8ff" stroke="#63b8ff" points="771.67,-80.41 780.14,-74.05 769.55,-73.73 771.67,-80.41"/>
</a>
</g>
</g>
<!-- Node8&#45;&gt;Node5 -->
<g id="edge8_Node000008_Node000005" class="edge">
<title>Node8&#45;&gt;Node5</title>
<g id="a_edge8_Node000008_Node000005"><a xlink:title=" ">
<path fill="none" stroke="#63b8ff" d="M697.07,-87.67C710.68,-89.25 726.72,-91.11 742.55,-92.94"/>
<polygon fill="#63b8ff" stroke="#63b8ff" points="742.55,-96.46 752.89,-94.14 743.36,-89.51 742.55,-96.46"/>
</a>
</g>
</g>
<!-- Node8&#45;&gt;Node6 -->
<g id="edge9_Node000008_Node000006" class="edge">
<title>Node8&#45;&gt;Node6</title>
<g id="a_edge9_Node000008_Node000006"><a xlink:title=" ">
<path fill="none" stroke="#63b8ff" d="M697.07,-79.09C713.49,-77.09 733.44,-74.65 752.3,-72.34"/>
<polygon fill="#63b8ff" stroke="#63b8ff" points="752.83,-75.81 762.33,-71.12 751.98,-68.86 752.83,-75.81"/>
</a>
</g>
</g>
<!-- Node9&#45;&gt;Node5 -->
<g id="edge11_Node000009_Node000005" class="edge">
<title>Node9&#45;&gt;Node5</title>
<g id="a_edge11_Node000009_Node000005"><a xlink:title=" ">
<path fill="none" stroke="#63b8ff" d="M691.51,-56.01C699.86,-58.84 708.85,-62.1 717,-65.5 733.51,-72.39 736.32,-77.03 753,-83.5 758.07,-85.47 763.45,-87.33 768.85,-89.05"/>
<polygon fill="#63b8ff" stroke="#63b8ff" points="767.92,-92.42 778.51,-91.99 769.96,-85.73 767.92,-92.42"/>
</a>
</g>
</g>
<!-- Node9&#45;&gt;Node6 -->
<g id="edge12_Node000009_Node000006" class="edge">
<title>Node9&#45;&gt;Node6</title>
<g id="a_edge12_Node000009_Node000006"><a xlink:title=" ">
<path fill="none" stroke="#63b8ff" d="M700.24,-51.04C715.96,-52.86 734.49,-55.01 752.08,-57.04"/>
<polygon fill="#63b8ff" stroke="#63b8ff" points="751.96,-60.55 762.3,-58.23 752.77,-53.6 751.96,-60.55"/>
</a>
</g>
</g>
</g>
</svg>
