<?xml version="1.0" encoding="UTF-8" standalone="no"?>
<!DOCTYPE svg PUBLIC "-//W3C//DTD SVG 1.1//EN"
 "http://www.w3.org/Graphics/SVG/1.1/DTD/svg11.dtd">
<!-- Generated by graphviz version 2.43.0 (0)
 -->
<!-- Title: Tmc9660Handler::Adc::GetDiagnostics Pages: 1 -->
<svg width="1057pt" height="113pt"
 viewBox="0.00 0.00 1057.00 112.50" xmlns="http://www.w3.org/2000/svg" xmlns:xlink="http://www.w3.org/1999/xlink">
<g id="graph0" class="graph" transform="scale(1 1) rotate(0) translate(4 108.5)">
<title>Tmc9660Handler::Adc::GetDiagnostics</title>
<!-- Node1 -->
<g id="Node000001" class="node">
<title>Node1</title>
<g id="a_Node000001"><a xlink:title="Get ADC health diagnostics (error counts, health status).">
<polygon fill="#999999" stroke="#666666" points="124,-51 0,-51 0,-21 124,-21 124,-51"/>
<text text-anchor="start" x="8" y="-39" font-family="Helvetica,sans-Serif" font-size="10.00">Tmc9660Handler::Adc</text>
<text text-anchor="middle" x="62" y="-28" font-family="Helvetica,sans-Serif" font-size="10.00">::GetDiagnostics</text>
</a>
</g>
</g>
<!-- Node2 -->
<g id="Node000002" class="node">
<title>Node2</title>
<g id="a_Node000002"><a xlink:href="classTmc9660Handler.html#a393382194d0602e7aa02da6a8fd7a20a" target="_top" xlink:title="Get a reference to the Temperature wrapper.">
<polygon fill="white" stroke="#666666" points="327,-45.5 160,-45.5 160,-26.5 327,-26.5 327,-45.5"/>
<text text-anchor="middle" x="243.5" y="-33.5" font-family="Helvetica,sans-Serif" font-size="10.00">Tmc9660Handler::temperature</text>
</a>
</g>
</g>
<!-- Node1&#45;&gt;Node2 -->
<g id="edge1_Node000001_Node000002" class="edge">
<title>Node1&#45;&gt;Node2</title>
<g id="a_edge1_Node000001_Node000002"><a xlink:title=" ">
<path fill="none" stroke="#63b8ff" d="M124.02,-36C132.28,-36 140.89,-36 149.55,-36"/>
<polygon fill="#63b8ff" stroke="#63b8ff" points="149.71,-39.5 159.71,-36 149.71,-32.5 149.71,-39.5"/>
</a>
</g>
</g>
<!-- Node2&#45;&gt;Node2 -->
<g id="edge12_Node000002_Node000002" class="edge">
<title>Node2&#45;&gt;Node2</title>
<g id="a_edge12_Node000002_Node000002"><a xlink:title=" ">
<path fill="none" stroke="#63b8ff" d="M215.76,-45.58C202.26,-54.23 211.51,-63.5 243.5,-63.5 264.99,-63.5 276.22,-59.32 277.18,-53.95"/>
<polygon fill="#63b8ff" stroke="#63b8ff" points="279.89,-51.71 271.24,-45.58 274.18,-55.76 279.89,-51.71"/>
</a>
</g>
</g>
<!-- Node3 -->
<g id="Node000003" class="node">
<title>Node3</title>
<g id="a_Node000003"><a xlink:href="classTmc9660Handler.html#a5a279ae9d4b5a8e0d71cb24577ad88ea" target="_top" xlink:title="Ensure driver is initialized (lazy init entrypoint).">
<polygon fill="white" stroke="#666666" points="550,-45.5 363,-45.5 363,-26.5 550,-26.5 550,-45.5"/>
<text text-anchor="middle" x="456.5" y="-33.5" font-family="Helvetica,sans-Serif" font-size="10.00">Tmc9660Handler::EnsureInitialized</text>
</a>
</g>
</g>
<!-- Node2&#45;&gt;Node3 -->
<g id="edge2_Node000002_Node000003" class="edge">
<title>Node2&#45;&gt;Node3</title>
<g id="a_edge2_Node000002_Node000003"><a xlink:title=" ">
<path fill="none" stroke="#63b8ff" d="M327.29,-36C335.67,-36 344.25,-36 352.81,-36"/>
<polygon fill="#63b8ff" stroke="#63b8ff" points="352.83,-39.5 362.83,-36 352.83,-32.5 352.83,-39.5"/>
</a>
</g>
</g>
<!-- Node4 -->
<g id="Node000004" class="node">
<title>Node4</title>
<g id="a_Node000004"><a xlink:href="classTmc9660Handler.html#adc564847f8ae26c47412aaee0758991c" target="_top" xlink:title="Initialize the TMC9660 device.">
<polygon fill="white" stroke="#666666" points="734,-67.5 586,-67.5 586,-48.5 734,-48.5 734,-67.5"/>
<text text-anchor="middle" x="660" y="-55.5" font-family="Helvetica,sans-Serif" font-size="10.00">Tmc9660Handler::Initialize</text>
</a>
</g>
</g>
<!-- Node3&#45;&gt;Node4 -->
<g id="edge3_Node000003_Node000004" class="edge">
<title>Node3&#45;&gt;Node4</title>
<g id="a_edge3_Node000003_Node000004"><a xlink:title=" ">
<path fill="none" stroke="#63b8ff" d="M544.71,-45.52C555,-46.65 565.48,-47.79 575.72,-48.91"/>
<polygon fill="#63b8ff" stroke="#63b8ff" points="575.53,-52.41 585.85,-50.01 576.29,-45.45 575.53,-52.41"/>
</a>
</g>
</g>
<!-- Node10 -->
<g id="Node000010" class="node">
<title>Node10</title>
<g id="a_Node000010"><a xlink:href="classTmc9660Handler.html#a13db97d201a287d8aa60384e04070b9f" target="_top" xlink:title="Check if the TMC9660 driver has been initialized and is ready.">
<polygon fill="white" stroke="#666666" points="732,-30 588,-30 588,0 732,0 732,-30"/>
<text text-anchor="start" x="596" y="-18" font-family="Helvetica,sans-Serif" font-size="10.00">Tmc9660Handler::IsDriver</text>
<text text-anchor="middle" x="660" y="-7" font-family="Helvetica,sans-Serif" font-size="10.00">Ready</text>
</a>
</g>
</g>
<!-- Node3&#45;&gt;Node10 -->
<g id="edge11_Node000003_Node000010" class="edge">
<title>Node3&#45;&gt;Node10</title>
<g id="a_edge11_Node000003_Node000010"><a xlink:title=" ">
<path fill="none" stroke="#63b8ff" d="M548.82,-26.48C558.45,-25.48 568.2,-24.46 577.71,-23.47"/>
<polygon fill="#63b8ff" stroke="#63b8ff" points="578.34,-26.93 587.92,-22.41 577.61,-19.96 578.34,-26.93"/>
</a>
</g>
</g>
<!-- Node5 -->
<g id="Node000005" class="node">
<title>Node5</title>
<g id="a_Node000005"><a xlink:href="classLogger.html#adce17848a5844e053bfd314863dc1404" target="_top" xlink:title="Log error message.">
<polygon fill="white" stroke="#666666" points="866.5,-67.5 787.5,-67.5 787.5,-48.5 866.5,-48.5 866.5,-67.5"/>
<text text-anchor="middle" x="827" y="-55.5" font-family="Helvetica,sans-Serif" font-size="10.00">Logger::Error</text>
</a>
</g>
</g>
<!-- Node4&#45;&gt;Node5 -->
<g id="edge4_Node000004_Node000005" class="edge">
<title>Node4&#45;&gt;Node5</title>
<g id="a_edge4_Node000004_Node000005"><a xlink:title=" ">
<path fill="none" stroke="#63b8ff" d="M734.33,-58C748.73,-58 763.5,-58 776.87,-58"/>
<polygon fill="#63b8ff" stroke="#63b8ff" points="777.26,-61.5 787.26,-58 777.26,-54.5 777.26,-61.5"/>
</a>
</g>
</g>
<!-- Node8 -->
<g id="Node000008" class="node">
<title>Node8</title>
<g id="a_Node000008"><a xlink:href="classLogger.html#a5789d11f8f1356e2192c0023a089cbc4" target="_top" xlink:title="Get singleton instance.">
<polygon fill="white" stroke="#666666" points="884,-30.5 770,-30.5 770,-11.5 884,-11.5 884,-30.5"/>
<text text-anchor="middle" x="827" y="-18.5" font-family="Helvetica,sans-Serif" font-size="10.00">Logger::GetInstance</text>
</a>
</g>
</g>
<!-- Node4&#45;&gt;Node8 -->
<g id="edge7_Node000004_Node000008" class="edge">
<title>Node4&#45;&gt;Node8</title>
<g id="a_edge7_Node000004_Node000008"><a xlink:title=" ">
<path fill="none" stroke="#63b8ff" d="M703.49,-48.47C724.87,-43.68 750.97,-37.82 773.58,-32.75"/>
<polygon fill="#63b8ff" stroke="#63b8ff" points="774.37,-36.16 783.37,-30.56 772.84,-29.33 774.37,-36.16"/>
</a>
</g>
</g>
<!-- Node9 -->
<g id="Node000009" class="node">
<title>Node9</title>
<g id="a_Node000009"><a xlink:href="classLogger.html#a4681229c521795685fc14f6b55c82300" target="_top" xlink:title="Log info message.">
<polygon fill="white" stroke="#666666" points="864,-104.5 790,-104.5 790,-85.5 864,-85.5 864,-104.5"/>
<text text-anchor="middle" x="827" y="-92.5" font-family="Helvetica,sans-Serif" font-size="10.00">Logger::Info</text>
</a>
</g>
</g>
<!-- Node4&#45;&gt;Node9 -->
<g id="edge8_Node000004_Node000009" class="edge">
<title>Node4&#45;&gt;Node9</title>
<g id="a_edge8_Node000004_Node000009"><a xlink:title=" ">
<path fill="none" stroke="#63b8ff" d="M703.49,-67.53C726.89,-72.77 755.94,-79.29 779.89,-84.66"/>
<polygon fill="#63b8ff" stroke="#63b8ff" points="779.28,-88.11 789.8,-86.88 780.81,-81.28 779.28,-88.11"/>
</a>
</g>
</g>
<!-- Node6 -->
<g id="Node000006" class="node">
<title>Node6</title>
<g id="a_Node000006"><a xlink:href="classLogger.html#af9e84e0ff6bd538e4f9ed8dcebc3e2f0" target="_top" xlink:title="Check if log level is enabled for tag.">
<polygon fill="white" stroke="#666666" points="1049,-104.5 920,-104.5 920,-85.5 1049,-85.5 1049,-104.5"/>
<text text-anchor="middle" x="984.5" y="-92.5" font-family="Helvetica,sans-Serif" font-size="10.00">Logger::IsLevelEnabled</text>
</a>
</g>
</g>
<!-- Node5&#45;&gt;Node6 -->
<g id="edge5_Node000005_Node000006" class="edge">
<title>Node5&#45;&gt;Node6</title>
<g id="a_edge5_Node000005_Node000006"><a xlink:title=" ">
<path fill="none" stroke="#63b8ff" d="M866.84,-67.24C887.03,-72.05 911.94,-77.97 933.55,-83.11"/>
<polygon fill="#63b8ff" stroke="#63b8ff" points="933,-86.58 943.53,-85.49 934.62,-79.77 933,-86.58"/>
</a>
</g>
</g>
<!-- Node7 -->
<g id="Node000007" class="node">
<title>Node7</title>
<g id="a_Node000007"><a xlink:href="classLogger.html#a6adb205db597526fb91ad20067400394" target="_top" xlink:title="Internal logging method.">
<polygon fill="white" stroke="#666666" points="1039.5,-67.5 929.5,-67.5 929.5,-48.5 1039.5,-48.5 1039.5,-67.5"/>
<text text-anchor="middle" x="984.5" y="-55.5" font-family="Helvetica,sans-Serif" font-size="10.00">Logger::LogInternal</text>
</a>
</g>
</g>
<!-- Node5&#45;&gt;Node7 -->
<g id="edge6_Node000005_Node000007" class="edge">
<title>Node5&#45;&gt;Node7</title>
<g id="a_edge6_Node000005_Node000007"><a xlink:title=" ">
<path fill="none" stroke="#63b8ff" d="M866.84,-58C882.63,-58 901.31,-58 919.03,-58"/>
<polygon fill="#63b8ff" stroke="#63b8ff" points="919.33,-61.5 929.33,-58 919.33,-54.5 919.33,-61.5"/>
</a>
</g>
</g>
<!-- Node9&#45;&gt;Node6 -->
<g id="edge9_Node000009_Node000006" class="edge">
<title>Node9&#45;&gt;Node6</title>
<g id="a_edge9_Node000009_Node000006"><a xlink:title=" ">
<path fill="none" stroke="#63b8ff" d="M864.07,-95C877.68,-95 893.72,-95 909.55,-95"/>
<polygon fill="#63b8ff" stroke="#63b8ff" points="909.89,-98.5 919.89,-95 909.89,-91.5 909.89,-98.5"/>
</a>
</g>
</g>
<!-- Node9&#45;&gt;Node7 -->
<g id="edge10_Node000009_Node000007" class="edge">
<title>Node9&#45;&gt;Node7</title>
<g id="a_edge10_Node000009_Node000007"><a xlink:title=" ">
<path fill="none" stroke="#63b8ff" d="M864.07,-86.42C884.78,-81.49 911.09,-75.23 933.74,-69.84"/>
<polygon fill="#63b8ff" stroke="#63b8ff" points="934.61,-73.23 943.53,-67.51 932.99,-66.42 934.61,-73.23"/>
</a>
</g>
</g>
</g>
</svg>
