<?xml version="1.0" encoding="UTF-8" standalone="no"?>
<!DOCTYPE svg PUBLIC "-//W3C//DTD SVG 1.1//EN"
 "http://www.w3.org/Graphics/SVG/1.1/DTD/svg11.dtd">
<!-- Generated by graphviz version 2.43.0 (0)
 -->
<!-- Title: As5047uHandler::ResetToDefaults Pages: 1 -->
<svg width="1221pt" height="121pt"
 viewBox="0.00 0.00 1221.00 120.50" xmlns="http://www.w3.org/2000/svg" xmlns:xlink="http://www.w3.org/1999/xlink">
<g id="graph0" class="graph" transform="scale(1 1) rotate(0) translate(4 116.5)">
<title>As5047uHandler::ResetToDefaults</title>
<!-- Node1 -->
<g id="Node000001" class="node">
<title>Node1</title>
<g id="a_Node000001"><a xlink:title="Reset sensor to default configuration.">
<polygon fill="#999999" stroke="#666666" points="182,-72.5 0,-72.5 0,-53.5 182,-53.5 182,-72.5"/>
<text text-anchor="middle" x="91" y="-60.5" font-family="Helvetica,sans-Serif" font-size="10.00">As5047uHandler::ResetToDefaults</text>
</a>
</g>
</g>
<!-- Node2 -->
<g id="Node000002" class="node">
<title>Node2</title>
<g id="a_Node000002"><a xlink:href="classAs5047uHandler.html#a0e7c20d4fd883c55ff9091041ec04c39" target="_top" xlink:title="Apply configuration to sensor.">
<polygon fill="white" stroke="#666666" points="1007,-112.5 811,-112.5 811,-93.5 1007,-93.5 1007,-112.5"/>
<text text-anchor="middle" x="909" y="-100.5" font-family="Helvetica,sans-Serif" font-size="10.00">As5047uHandler::ApplyConfiguration</text>
</a>
</g>
</g>
<!-- Node1&#45;&gt;Node2 -->
<g id="edge1_Node000001_Node000002" class="edge">
<title>Node1&#45;&gt;Node2</title>
<g id="a_edge1_Node000001_Node000002"><a xlink:title=" ">
<path fill="none" stroke="#63b8ff" d="M132.89,-72.56C157.42,-77.85 189.32,-83.96 218,-87 423.32,-108.78 664.85,-108.49 800.82,-105.97"/>
<polygon fill="#63b8ff" stroke="#63b8ff" points="800.9,-109.47 810.83,-105.78 800.76,-102.47 800.9,-109.47"/>
</a>
</g>
</g>
<!-- Node3 -->
<g id="Node000003" class="node">
<title>Node3</title>
<g id="a_Node000003"><a xlink:href="classAs5047uHandler.html#a5cfe5bb285cb087d078e5f248ccd0d82" target="_top" xlink:title="Get default sensor configuration.">
<polygon fill="white" stroke="#666666" points="374,-78 218,-78 218,-48 374,-48 374,-78"/>
<text text-anchor="start" x="226" y="-66" font-family="Helvetica,sans-Serif" font-size="10.00">As5047uHandler::GetDefault</text>
<text text-anchor="middle" x="296" y="-55" font-family="Helvetica,sans-Serif" font-size="10.00">Config</text>
</a>
</g>
</g>
<!-- Node1&#45;&gt;Node3 -->
<g id="edge2_Node000001_Node000003" class="edge">
<title>Node1&#45;&gt;Node3</title>
<g id="a_edge2_Node000001_Node000003"><a xlink:title=" ">
<path fill="none" stroke="#63b8ff" d="M182.22,-63C190.65,-63 199.19,-63 207.59,-63"/>
<polygon fill="#63b8ff" stroke="#63b8ff" points="207.77,-66.5 217.77,-63 207.77,-59.5 207.77,-66.5"/>
</a>
</g>
</g>
<!-- Node4 -->
<g id="Node000004" class="node">
<title>Node4</title>
<g id="a_Node000004"><a xlink:href="classAs5047uHandler.html#a10eeb015c791ff484935168e3683c053" target="_top" xlink:title="Validate sensor parameters.">
<polygon fill="white" stroke="#666666" points="367.5,-30 224.5,-30 224.5,0 367.5,0 367.5,-30"/>
<text text-anchor="start" x="232.5" y="-18" font-family="Helvetica,sans-Serif" font-size="10.00">As5047uHandler::Validate</text>
<text text-anchor="middle" x="296" y="-7" font-family="Helvetica,sans-Serif" font-size="10.00">Sensor</text>
</a>
</g>
</g>
<!-- Node1&#45;&gt;Node4 -->
<g id="edge3_Node000001_Node000004" class="edge">
<title>Node1&#45;&gt;Node4</title>
<g id="a_edge3_Node000001_Node000004"><a xlink:title=" ">
<path fill="none" stroke="#63b8ff" d="M132.59,-53.4C157.96,-47.4 191.37,-39.5 221.3,-32.43"/>
<polygon fill="#63b8ff" stroke="#63b8ff" points="222.37,-35.77 231.3,-30.06 220.76,-28.96 222.37,-35.77"/>
</a>
</g>
</g>
<!-- Node5 -->
<g id="Node000005" class="node">
<title>Node5</title>
<g id="a_Node000005"><a xlink:href="classAs5047uHandler.html#a040ba453eb7892ab3189631d73a2f683" target="_top" xlink:title="Ensure initialized while mutex is already held.">
<polygon fill="white" stroke="#666666" points="594,-54 410,-54 410,-24 594,-24 594,-54"/>
<text text-anchor="start" x="418" y="-42" font-family="Helvetica,sans-Serif" font-size="10.00">As5047uHandler::EnsureInitialized</text>
<text text-anchor="middle" x="502" y="-31" font-family="Helvetica,sans-Serif" font-size="10.00">Locked</text>
</a>
</g>
</g>
<!-- Node4&#45;&gt;Node5 -->
<g id="edge4_Node000004_Node000005" class="edge">
<title>Node4&#45;&gt;Node5</title>
<g id="a_edge4_Node000004_Node000005"><a xlink:title=" ">
<path fill="none" stroke="#63b8ff" d="M367.78,-23.33C378.17,-24.55 389.05,-25.83 399.91,-27.11"/>
<polygon fill="#63b8ff" stroke="#63b8ff" points="399.53,-30.59 409.87,-28.28 400.35,-23.63 399.53,-30.59"/>
</a>
</g>
</g>
<!-- Node6 -->
<g id="Node000006" class="node">
<title>Node6</title>
<g id="a_Node000006"><a xlink:href="classAs5047uHandler.html#a4dcfcea95fe8114ca7e0e5554d21ebc0" target="_top" xlink:title="Initialize the AS5047U sensor (lazy initialization)">
<polygon fill="white" stroke="#666666" points="775,-75.5 630,-75.5 630,-56.5 775,-56.5 775,-75.5"/>
<text text-anchor="middle" x="702.5" y="-63.5" font-family="Helvetica,sans-Serif" font-size="10.00">As5047uHandler::Initialize</text>
</a>
</g>
</g>
<!-- Node5&#45;&gt;Node6 -->
<g id="edge5_Node000005_Node000006" class="edge">
<title>Node5&#45;&gt;Node6</title>
<g id="a_edge5_Node000005_Node000006"><a xlink:title=" ">
<path fill="none" stroke="#63b8ff" d="M594.12,-51.39C603.22,-52.63 612.42,-53.88 621.41,-55.11"/>
<polygon fill="#63b8ff" stroke="#63b8ff" points="621.06,-58.59 631.44,-56.47 622,-51.65 621.06,-58.59"/>
</a>
</g>
</g>
<!-- Node6&#45;&gt;Node2 -->
<g id="edge6_Node000006_Node000002" class="edge">
<title>Node6&#45;&gt;Node2</title>
<g id="a_edge6_Node000006_Node000002"><a xlink:title=" ">
<path fill="none" stroke="#63b8ff" d="M756.16,-75.53C783.37,-80.45 816.76,-86.49 845.29,-91.65"/>
<polygon fill="#63b8ff" stroke="#63b8ff" points="844.7,-95.1 855.16,-93.44 845.94,-88.22 844.7,-95.1"/>
</a>
</g>
</g>
<!-- Node7 -->
<g id="Node000007" class="node">
<title>Node7</title>
<g id="a_Node000007"><a xlink:href="classAs5047uHandler.html#a6854be00365afbb2eeddfb3177939456" target="_top" xlink:title="Update cached diagnostics.">
<polygon fill="white" stroke="#666666" points="1006.5,-75.5 811.5,-75.5 811.5,-56.5 1006.5,-56.5 1006.5,-75.5"/>
<text text-anchor="middle" x="909" y="-63.5" font-family="Helvetica,sans-Serif" font-size="10.00">As5047uHandler::UpdateDiagnostics</text>
</a>
</g>
</g>
<!-- Node6&#45;&gt;Node7 -->
<g id="edge7_Node000006_Node000007" class="edge">
<title>Node6&#45;&gt;Node7</title>
<g id="a_edge7_Node000006_Node000007"><a xlink:title=" ">
<path fill="none" stroke="#63b8ff" d="M775.02,-66C783.56,-66 792.41,-66 801.31,-66"/>
<polygon fill="#63b8ff" stroke="#63b8ff" points="801.35,-69.5 811.35,-66 801.35,-62.5 801.35,-69.5"/>
</a>
</g>
</g>
<!-- Node8 -->
<g id="Node000008" class="node">
<title>Node8</title>
<g id="a_Node000008"><a xlink:href="classAs5047uHandler.html#a6b29b6418f7b2d19cbdcc65aa6eb9756" target="_top" xlink:title="Handle sensor errors and update diagnostics.">
<polygon fill="white" stroke="#666666" points="1213,-81 1043,-81 1043,-51 1213,-51 1213,-81"/>
<text text-anchor="start" x="1051" y="-69" font-family="Helvetica,sans-Serif" font-size="10.00">As5047uHandler::HandleSensor</text>
<text text-anchor="middle" x="1128" y="-58" font-family="Helvetica,sans-Serif" font-size="10.00">Errors</text>
</a>
</g>
</g>
<!-- Node7&#45;&gt;Node8 -->
<g id="edge8_Node000007_Node000008" class="edge">
<title>Node7&#45;&gt;Node8</title>
<g id="a_edge8_Node000007_Node000008"><a xlink:title=" ">
<path fill="none" stroke="#63b8ff" d="M1006.76,-66C1015.37,-66 1024.08,-66 1032.67,-66"/>
<polygon fill="#63b8ff" stroke="#63b8ff" points="1032.69,-69.5 1042.69,-66 1032.69,-62.5 1032.69,-69.5"/>
</a>
</g>
</g>
</g>
</svg>
