<?xml version="1.0" encoding="UTF-8" standalone="no"?>
<!DOCTYPE svg PUBLIC "-//W3C//DTD SVG 1.1//EN"
 "http://www.w3.org/Graphics/SVG/1.1/DTD/svg11.dtd">
<!-- Generated by graphviz version 2.43.0 (0)
 -->
<!-- Title: Max22200Handler::EnsureInitializedLocked Pages: 1 -->
<svg width="929pt" height="203pt"
 viewBox="0.00 0.00 929.00 203.50" xmlns="http://www.w3.org/2000/svg" xmlns:xlink="http://www.w3.org/1999/xlink">
<g id="graph0" class="graph" transform="scale(1 1) rotate(0) translate(4 199.5)">
<title>Max22200Handler::EnsureInitializedLocked</title>
<!-- Node1 -->
<g id="Node000001" class="node">
<title>Node1</title>
<g id="a_Node000001"><a xlink:title=" ">
<polygon fill="#999999" stroke="#666666" points="193,-98.5 0,-98.5 0,-68.5 193,-68.5 193,-98.5"/>
<text text-anchor="start" x="8" y="-86.5" font-family="Helvetica,sans-Serif" font-size="10.00">Max22200Handler::EnsureInitialized</text>
<text text-anchor="middle" x="96.5" y="-75.5" font-family="Helvetica,sans-Serif" font-size="10.00">Locked</text>
</a>
</g>
</g>
<!-- Node2 -->
<g id="Node000002" class="node">
<title>Node2</title>
<g id="a_Node000002"><a xlink:href="classLogger.html#adce17848a5844e053bfd314863dc1404" target="_top" xlink:title="Log error message.">
<polygon fill="white" stroke="#666666" points="533,-19 454,-19 454,0 533,0 533,-19"/>
<text text-anchor="middle" x="493.5" y="-7" font-family="Helvetica,sans-Serif" font-size="10.00">Logger::Error</text>
</a>
</g>
</g>
<!-- Node1&#45;&gt;Node2 -->
<g id="edge1_Node000001_Node000002" class="edge">
<title>Node1&#45;&gt;Node2</title>
<g id="a_edge1_Node000001_Node000002"><a xlink:title=" ">
<path fill="none" stroke="#63b8ff" d="M177.91,-68.44C257.67,-53.49 377.3,-31.08 443.69,-18.64"/>
<polygon fill="#63b8ff" stroke="#63b8ff" points="444.69,-22.02 453.88,-16.74 443.4,-15.14 444.69,-22.02"/>
</a>
</g>
</g>
<!-- Node6 -->
<g id="Node000006" class="node">
<title>Node6</title>
<g id="a_Node000006"><a xlink:href="classLogger.html#a5789d11f8f1356e2192c0023a089cbc4" target="_top" xlink:title="Get singleton instance.">
<polygon fill="white" stroke="#666666" points="725.5,-174 611.5,-174 611.5,-155 725.5,-155 725.5,-174"/>
<text text-anchor="middle" x="668.5" y="-162" font-family="Helvetica,sans-Serif" font-size="10.00">Logger::GetInstance</text>
</a>
</g>
</g>
<!-- Node1&#45;&gt;Node6 -->
<g id="edge5_Node000001_Node000006" class="edge">
<title>Node1&#45;&gt;Node6</title>
<g id="a_edge5_Node000001_Node000006"><a xlink:title=" ">
<path fill="none" stroke="#63b8ff" d="M131.34,-98.51C189,-123.17 310.56,-171.24 419,-188.5 484.4,-198.91 502.24,-196.32 568,-188.5 587.32,-186.2 608.32,-181.48 626.03,-176.83"/>
<polygon fill="#63b8ff" stroke="#63b8ff" points="627.3,-180.11 636.03,-174.11 625.46,-173.35 627.3,-180.11"/>
</a>
</g>
</g>
<!-- Node7 -->
<g id="Node000007" class="node">
<title>Node7</title>
<g id="a_Node000007"><a xlink:href="classMax22200Handler.html#a0dce05cd6639a10e52c0f669b72baf52" target="_top" xlink:title="Initialize driver (ENABLE HIGH, read/clear STATUS, set ACTIVE).">
<polygon fill="white" stroke="#666666" points="383,-93 229,-93 229,-74 383,-74 383,-93"/>
<text text-anchor="middle" x="306" y="-81" font-family="Helvetica,sans-Serif" font-size="10.00">Max22200Handler::Initialize</text>
</a>
</g>
</g>
<!-- Node1&#45;&gt;Node7 -->
<g id="edge6_Node000001_Node000007" class="edge">
<title>Node1&#45;&gt;Node7</title>
<g id="a_edge6_Node000001_Node000007"><a xlink:title=" ">
<path fill="none" stroke="#63b8ff" d="M193.05,-83.5C201.6,-83.5 210.22,-83.5 218.68,-83.5"/>
<polygon fill="#63b8ff" stroke="#63b8ff" points="218.9,-87 228.9,-83.5 218.9,-80 218.9,-87"/>
</a>
</g>
</g>
<!-- Node3 -->
<g id="Node000003" class="node">
<title>Node3</title>
<g id="a_Node000003"><a xlink:href="classLogger.html#af9e84e0ff6bd538e4f9ed8dcebc3e2f0" target="_top" xlink:title="Check if log level is enabled for tag.">
<polygon fill="white" stroke="#666666" points="733,-38 604,-38 604,-19 733,-19 733,-38"/>
<text text-anchor="middle" x="668.5" y="-26" font-family="Helvetica,sans-Serif" font-size="10.00">Logger::IsLevelEnabled</text>
</a>
</g>
</g>
<!-- Node2&#45;&gt;Node3 -->
<g id="edge2_Node000002_Node000003" class="edge">
<title>Node2&#45;&gt;Node3</title>
<g id="a_edge2_Node000002_Node000003"><a xlink:title=" ">
<path fill="none" stroke="#63b8ff" d="M533.32,-13.76C551.13,-15.72 572.86,-18.11 593.6,-20.38"/>
<polygon fill="#63b8ff" stroke="#63b8ff" points="593.36,-23.88 603.68,-21.49 594.12,-16.92 593.36,-23.88"/>
</a>
</g>
</g>
<!-- Node4 -->
<g id="Node000004" class="node">
<title>Node4</title>
<g id="a_Node000004"><a xlink:href="classLogger.html#a6adb205db597526fb91ad20067400394" target="_top" xlink:title="Internal logging method.">
<polygon fill="white" stroke="#666666" points="723.5,-75 613.5,-75 613.5,-56 723.5,-56 723.5,-75"/>
<text text-anchor="middle" x="668.5" y="-63" font-family="Helvetica,sans-Serif" font-size="10.00">Logger::LogInternal</text>
</a>
</g>
</g>
<!-- Node2&#45;&gt;Node4 -->
<g id="edge3_Node000002_Node000004" class="edge">
<title>Node2&#45;&gt;Node4</title>
<g id="a_edge3_Node000002_Node000004"><a xlink:title=" ">
<path fill="none" stroke="#63b8ff" d="M533.19,-17.1C544.58,-19.83 556.95,-23.3 568,-27.5 584.91,-33.92 587.25,-39.65 604,-46.5 609.53,-48.76 615.42,-50.88 621.31,-52.84"/>
<polygon fill="#63b8ff" stroke="#63b8ff" points="620.55,-56.27 631.14,-55.95 622.67,-49.59 620.55,-56.27"/>
</a>
</g>
</g>
<!-- Node5 -->
<g id="Node000005" class="node">
<title>Node5</title>
<g id="a_Node000005"><a xlink:href="namespaceanonymous__namespace_02Logger_8cpp_03.html#a9d2b496fa1b4f4e28667d14e4b8cb190" target="_top" xlink:title=" ">
<polygon fill="white" stroke="#666666" points="921,-80.5 769,-80.5 769,-50.5 921,-50.5 921,-80.5"/>
<text text-anchor="start" x="777" y="-68.5" font-family="Helvetica,sans-Serif" font-size="10.00">anonymous_namespace</text>
<text text-anchor="middle" x="845" y="-57.5" font-family="Helvetica,sans-Serif" font-size="10.00">{Logger::cpp}::ToBaseLevel</text>
</a>
</g>
</g>
<!-- Node4&#45;&gt;Node5 -->
<g id="edge4_Node000004_Node000005" class="edge">
<title>Node4&#45;&gt;Node5</title>
<g id="a_edge4_Node000004_Node000005"><a xlink:title=" ">
<path fill="none" stroke="#63b8ff" d="M723.76,-65.5C734.93,-65.5 746.96,-65.5 758.93,-65.5"/>
<polygon fill="#63b8ff" stroke="#63b8ff" points="758.95,-69 768.95,-65.5 758.95,-62 758.95,-69"/>
</a>
</g>
</g>
<!-- Node7&#45;&gt;Node2 -->
<g id="edge7_Node000007_Node000002" class="edge">
<title>Node7&#45;&gt;Node2</title>
<g id="a_edge7_Node000007_Node000002"><a xlink:title=" ">
<path fill="none" stroke="#63b8ff" d="M323.18,-73.96C344.51,-61.72 383.49,-40.54 419,-27.5 426.98,-24.57 435.62,-21.97 444.07,-19.73"/>
<polygon fill="#63b8ff" stroke="#63b8ff" points="445.03,-23.09 453.87,-17.25 443.31,-16.31 445.03,-23.09"/>
</a>
</g>
</g>
<!-- Node7&#45;&gt;Node6 -->
<g id="edge8_Node000007_Node000006" class="edge">
<title>Node7&#45;&gt;Node6</title>
<g id="a_edge8_Node000007_Node000006"><a xlink:title=" ">
<path fill="none" stroke="#63b8ff" d="M352.33,-93.09C404.44,-104.18 492.51,-123.16 568,-140.5 584.64,-144.32 602.8,-148.66 619,-152.58"/>
<polygon fill="#63b8ff" stroke="#63b8ff" points="618.26,-156 628.8,-154.96 619.91,-149.2 618.26,-156"/>
</a>
</g>
</g>
<!-- Node8 -->
<g id="Node000008" class="node">
<title>Node8</title>
<g id="a_Node000008"><a xlink:href="classLogger.html#a4681229c521795685fc14f6b55c82300" target="_top" xlink:title="Log info message.">
<polygon fill="white" stroke="#666666" points="530.5,-93 456.5,-93 456.5,-74 530.5,-74 530.5,-93"/>
<text text-anchor="middle" x="493.5" y="-81" font-family="Helvetica,sans-Serif" font-size="10.00">Logger::Info</text>
</a>
</g>
</g>
<!-- Node7&#45;&gt;Node8 -->
<g id="edge9_Node000007_Node000008" class="edge">
<title>Node7&#45;&gt;Node8</title>
<g id="a_edge9_Node000007_Node000008"><a xlink:title=" ">
<path fill="none" stroke="#63b8ff" d="M383.25,-83.5C404.5,-83.5 426.94,-83.5 445.92,-83.5"/>
<polygon fill="#63b8ff" stroke="#63b8ff" points="446.08,-87 456.08,-83.5 446.08,-80 446.08,-87"/>
</a>
</g>
</g>
<!-- Node9 -->
<g id="Node000009" class="node">
<title>Node9</title>
<g id="a_Node000009"><a xlink:href="classMax22200Handler.html#a46a1ed5c96b117192f0cae05c4f9627b" target="_top" xlink:title="Bring the chip from POR through to a verified ACTIVE=1, UVM=0 state, then drain POR&#45;latched fault bit...">
<polygon fill="white" stroke="#666666" points="568,-179.5 419,-179.5 419,-149.5 568,-149.5 568,-179.5"/>
<text text-anchor="start" x="427" y="-167.5" font-family="Helvetica,sans-Serif" font-size="10.00">Max22200Handler::WaitFor</text>
<text text-anchor="middle" x="493.5" y="-156.5" font-family="Helvetica,sans-Serif" font-size="10.00">ActiveAndDrainFaults</text>
</a>
</g>
</g>
<!-- Node7&#45;&gt;Node9 -->
<g id="edge12_Node000007_Node000009" class="edge">
<title>Node7&#45;&gt;Node9</title>
<g id="a_edge12_Node000007_Node000009"><a xlink:title=" ">
<path fill="none" stroke="#63b8ff" d="M326.67,-93.06C348.91,-103.77 386.3,-121.47 419,-135.5 426.88,-138.88 435.3,-142.34 443.52,-145.64"/>
<polygon fill="#63b8ff" stroke="#63b8ff" points="442.45,-148.98 453.04,-149.42 445.04,-142.48 442.45,-148.98"/>
</a>
</g>
</g>
<!-- Node10 -->
<g id="Node000010" class="node">
<title>Node10</title>
<g id="a_Node000010"><a xlink:href="classLogger.html#aaa95ffa14d07a965d4a85bdec82cba26" target="_top" xlink:title="Log warning message.">
<polygon fill="white" stroke="#666666" points="533.5,-56 453.5,-56 453.5,-37 533.5,-37 533.5,-56"/>
<text text-anchor="middle" x="493.5" y="-44" font-family="Helvetica,sans-Serif" font-size="10.00">Logger::Warn</text>
</a>
</g>
</g>
<!-- Node7&#45;&gt;Node10 -->
<g id="edge14_Node000007_Node000010" class="edge">
<title>Node7&#45;&gt;Node10</title>
<g id="a_edge14_Node000007_Node000010"><a xlink:title=" ">
<path fill="none" stroke="#63b8ff" d="M354.77,-73.97C381.9,-68.56 415.8,-61.8 443.18,-56.34"/>
<polygon fill="#63b8ff" stroke="#63b8ff" points="444.21,-59.7 453.33,-54.31 442.84,-52.84 444.21,-59.7"/>
</a>
</g>
</g>
<!-- Node8&#45;&gt;Node3 -->
<g id="edge10_Node000008_Node000003" class="edge">
<title>Node8&#45;&gt;Node3</title>
<g id="a_edge10_Node000008_Node000003"><a xlink:title=" ">
<path fill="none" stroke="#63b8ff" d="M530.86,-75.71C542.85,-72.72 556.15,-68.94 568,-64.5 584.75,-58.23 587.32,-52.97 604,-46.5 609.07,-44.53 614.45,-42.67 619.85,-40.95"/>
<polygon fill="#63b8ff" stroke="#63b8ff" points="620.96,-44.27 629.51,-38.01 618.92,-37.58 620.96,-44.27"/>
</a>
</g>
</g>
<!-- Node8&#45;&gt;Node4 -->
<g id="edge11_Node000008_Node000004" class="edge">
<title>Node8&#45;&gt;Node4</title>
<g id="a_edge11_Node000008_Node000004"><a xlink:title=" ">
<path fill="none" stroke="#63b8ff" d="M530.77,-79.73C551.75,-77.54 578.78,-74.73 603.25,-72.18"/>
<polygon fill="#63b8ff" stroke="#63b8ff" points="603.62,-75.67 613.2,-71.15 602.89,-68.7 603.62,-75.67"/>
</a>
</g>
</g>
<!-- Node9&#45;&gt;Node6 -->
<g id="edge13_Node000009_Node000006" class="edge">
<title>Node9&#45;&gt;Node6</title>
<g id="a_edge13_Node000009_Node000006"><a xlink:title=" ">
<path fill="none" stroke="#63b8ff" d="M568.12,-164.5C579.06,-164.5 590.28,-164.5 601.07,-164.5"/>
<polygon fill="#63b8ff" stroke="#63b8ff" points="601.25,-168 611.25,-164.5 601.25,-161 601.25,-168"/>
</a>
</g>
</g>
<!-- Node10&#45;&gt;Node3 -->
<g id="edge15_Node000010_Node000003" class="edge">
<title>Node10&#45;&gt;Node3</title>
<g id="a_edge15_Node000010_Node000003"><a xlink:title=" ">
<path fill="none" stroke="#63b8ff" d="M533.76,-42.42C551.58,-40.56 573.26,-38.31 593.93,-36.16"/>
<polygon fill="#63b8ff" stroke="#63b8ff" points="594.39,-39.63 603.97,-35.11 593.66,-32.66 594.39,-39.63"/>
</a>
</g>
</g>
<!-- Node10&#45;&gt;Node4 -->
<g id="edge16_Node000010_Node000004" class="edge">
<title>Node10&#45;&gt;Node4</title>
<g id="a_edge16_Node000010_Node000004"><a xlink:title=" ">
<path fill="none" stroke="#63b8ff" d="M533.76,-50.81C554.25,-53.06 579.85,-55.87 603.15,-58.43"/>
<polygon fill="#63b8ff" stroke="#63b8ff" points="603,-61.94 613.32,-59.55 603.76,-54.98 603,-61.94"/>
</a>
</g>
</g>
</g>
</svg>
