<?xml version="1.0" encoding="UTF-8" standalone="no"?>
<!DOCTYPE svg PUBLIC "-//W3C//DTD SVG 1.1//EN"
 "http://www.w3.org/Graphics/SVG/1.1/DTD/svg11.dtd">
<!-- Generated by graphviz version 2.43.0 (0)
 -->
<!-- Title: As5047uHandler::visitDriver Pages: 1 -->
<svg width="1001pt" height="70pt"
 viewBox="0.00 0.00 1001.00 69.50" xmlns="http://www.w3.org/2000/svg" xmlns:xlink="http://www.w3.org/1999/xlink">
<g id="graph0" class="graph" transform="scale(1 1) rotate(0) translate(4 65.5)">
<title>As5047uHandler::visitDriver</title>
<!-- Node1 -->
<g id="Node000001" class="node">
<title>Node1</title>
<g id="a_Node000001"><a xlink:title="Visit the underlying AS5047U driver under handler mutex protection.">
<polygon fill="#999999" stroke="#666666" points="154,-42.5 0,-42.5 0,-23.5 154,-23.5 154,-42.5"/>
<text text-anchor="middle" x="77" y="-30.5" font-family="Helvetica,sans-Serif" font-size="10.00">As5047uHandler::visitDriver</text>
</a>
</g>
</g>
<!-- Node2 -->
<g id="Node000002" class="node">
<title>Node2</title>
<g id="a_Node000002"><a xlink:href="classAs5047uHandler.html#a040ba453eb7892ab3189631d73a2f683" target="_top" xlink:title="Ensure initialized while mutex is already held.">
<polygon fill="white" stroke="#666666" points="374,-48 190,-48 190,-18 374,-18 374,-48"/>
<text text-anchor="start" x="198" y="-36" font-family="Helvetica,sans-Serif" font-size="10.00">As5047uHandler::EnsureInitialized</text>
<text text-anchor="middle" x="282" y="-25" font-family="Helvetica,sans-Serif" font-size="10.00">Locked</text>
</a>
</g>
</g>
<!-- Node1&#45;&gt;Node2 -->
<g id="edge1_Node000001_Node000002" class="edge">
<title>Node1&#45;&gt;Node2</title>
<g id="a_edge1_Node000001_Node000002"><a xlink:title=" ">
<path fill="none" stroke="#63b8ff" d="M154.17,-33C162.5,-33 171.07,-33 179.64,-33"/>
<polygon fill="#63b8ff" stroke="#63b8ff" points="179.68,-36.5 189.68,-33 179.68,-29.5 179.68,-36.5"/>
</a>
</g>
</g>
<!-- Node3 -->
<g id="Node000003" class="node">
<title>Node3</title>
<g id="a_Node000003"><a xlink:href="classAs5047uHandler.html#a157826010a85f4279b7a13791fcf2003" target="_top" xlink:title="Initialize the AS5047U sensor (lazy initialization)">
<polygon fill="white" stroke="#666666" points="555,-42.5 410,-42.5 410,-23.5 555,-23.5 555,-42.5"/>
<text text-anchor="middle" x="482.5" y="-30.5" font-family="Helvetica,sans-Serif" font-size="10.00">As5047uHandler::Initialize</text>
</a>
</g>
</g>
<!-- Node2&#45;&gt;Node3 -->
<g id="edge2_Node000002_Node000003" class="edge">
<title>Node2&#45;&gt;Node3</title>
<g id="a_edge2_Node000002_Node000003"><a xlink:title=" ">
<path fill="none" stroke="#63b8ff" d="M374.12,-33C382.67,-33 391.3,-33 399.75,-33"/>
<polygon fill="#63b8ff" stroke="#63b8ff" points="399.96,-36.5 409.96,-33 399.96,-29.5 399.96,-36.5"/>
</a>
</g>
</g>
<!-- Node4 -->
<g id="Node000004" class="node">
<title>Node4</title>
<g id="a_Node000004"><a xlink:href="classAs5047uHandler.html#a0e7c20d4fd883c55ff9091041ec04c39" target="_top" xlink:title="Apply configuration to sensor.">
<polygon fill="white" stroke="#666666" points="787,-61.5 591,-61.5 591,-42.5 787,-42.5 787,-61.5"/>
<text text-anchor="middle" x="689" y="-49.5" font-family="Helvetica,sans-Serif" font-size="10.00">As5047uHandler::ApplyConfiguration</text>
</a>
</g>
</g>
<!-- Node3&#45;&gt;Node4 -->
<g id="edge3_Node000003_Node000004" class="edge">
<title>Node3&#45;&gt;Node4</title>
<g id="a_edge3_Node000003_Node000004"><a xlink:title=" ">
<path fill="none" stroke="#63b8ff" d="M555.02,-39.65C563.39,-40.42 572.05,-41.23 580.76,-42.04"/>
<polygon fill="#63b8ff" stroke="#63b8ff" points="580.71,-45.55 590.99,-42.99 581.36,-38.58 580.71,-45.55"/>
</a>
</g>
</g>
<!-- Node5 -->
<g id="Node000005" class="node">
<title>Node5</title>
<g id="a_Node000005"><a xlink:href="classAs5047uHandler.html#a6854be00365afbb2eeddfb3177939456" target="_top" xlink:title="Update cached diagnostics.">
<polygon fill="white" stroke="#666666" points="786.5,-24.5 591.5,-24.5 591.5,-5.5 786.5,-5.5 786.5,-24.5"/>
<text text-anchor="middle" x="689" y="-12.5" font-family="Helvetica,sans-Serif" font-size="10.00">As5047uHandler::UpdateDiagnostics</text>
</a>
</g>
</g>
<!-- Node3&#45;&gt;Node5 -->
<g id="edge4_Node000003_Node000005" class="edge">
<title>Node3&#45;&gt;Node5</title>
<g id="a_edge4_Node000003_Node000005"><a xlink:title=" ">
<path fill="none" stroke="#63b8ff" d="M555.02,-26.7C563.56,-25.95 572.41,-25.17 581.31,-24.39"/>
<polygon fill="#63b8ff" stroke="#63b8ff" points="581.7,-27.87 591.35,-23.51 581.09,-20.9 581.7,-27.87"/>
</a>
</g>
</g>
<!-- Node6 -->
<g id="Node000006" class="node">
<title>Node6</title>
<g id="a_Node000006"><a xlink:href="classAs5047uHandler.html#a6b29b6418f7b2d19cbdcc65aa6eb9756" target="_top" xlink:title="Handle sensor errors and update diagnostics.">
<polygon fill="white" stroke="#666666" points="993,-30 823,-30 823,0 993,0 993,-30"/>
<text text-anchor="start" x="831" y="-18" font-family="Helvetica,sans-Serif" font-size="10.00">As5047uHandler::HandleSensor</text>
<text text-anchor="middle" x="908" y="-7" font-family="Helvetica,sans-Serif" font-size="10.00">Errors</text>
</a>
</g>
</g>
<!-- Node5&#45;&gt;Node6 -->
<g id="edge5_Node000005_Node000006" class="edge">
<title>Node5&#45;&gt;Node6</title>
<g id="a_edge5_Node000005_Node000006"><a xlink:title=" ">
<path fill="none" stroke="#63b8ff" d="M786.76,-15C795.37,-15 804.08,-15 812.67,-15"/>
<polygon fill="#63b8ff" stroke="#63b8ff" points="812.69,-18.5 822.69,-15 812.69,-11.5 812.69,-18.5"/>
</a>
</g>
</g>
</g>
</svg>
