<?xml version="1.0" encoding="UTF-8" standalone="no"?>
<!DOCTYPE svg PUBLIC "-//W3C//DTD SVG 1.1//EN"
 "http://www.w3.org/Graphics/SVG/1.1/DTD/svg11.dtd">
<!-- Generated by graphviz version 2.43.0 (0)
 -->
<!-- Title: Mcp9700TemperatureHandler Pages: 1 -->
<svg width="589pt" height="124pt"
 viewBox="0.00 0.00 589.00 123.50" xmlns="http://www.w3.org/2000/svg" xmlns:xlink="http://www.w3.org/1999/xlink">
<g id="graph0" class="graph" transform="scale(1 1) rotate(0) translate(4 119.5)">
<title>Mcp9700TemperatureHandler</title>
<!-- Node1 -->
<g id="Node000001" class="node">
<title>Node1</title>
<g id="a_Node000001"><a xlink:title="BaseTemperature implementation for an MCP9700 on a multiplexed ADC channel.">
<polygon fill="#999999" stroke="#666666" points="581,-72.5 420,-72.5 420,-53.5 581,-53.5 581,-72.5"/>
<text text-anchor="middle" x="500.5" y="-60.5" font-family="Helvetica,sans-Serif" font-size="10.00">Mcp9700TemperatureHandler</text>
</a>
</g>
</g>
<!-- Node2 -->
<g id="Node000002" class="node">
<title>Node2</title>
<g id="a_Node000002"><a xlink:title=" ">
<polygon fill="white" stroke="#666666" points="293.5,-115.5 191.5,-115.5 191.5,-96.5 293.5,-96.5 293.5,-115.5"/>
<text text-anchor="middle" x="242.5" y="-103.5" font-family="Helvetica,sans-Serif" font-size="10.00">BaseTemperature</text>
</a>
</g>
</g>
<!-- Node2&#45;&gt;Node1 -->
<g id="edge1_Node000001_Node000002" class="edge">
<title>Node2&#45;&gt;Node1</title>
<g id="a_edge1_Node000001_Node000002"><a xlink:title=" ">
<path fill="none" stroke="#63b8ff" d="M303.86,-95.86C345.85,-88.81 401.46,-79.47 442.65,-72.55"/>
<polygon fill="#63b8ff" stroke="#63b8ff" points="303.05,-92.45 293.77,-97.56 304.21,-99.35 303.05,-92.45"/>
</a>
</g>
</g>
<!-- Node3 -->
<g id="Node000003" class="node">
<title>Node3</title>
<g id="a_Node000003"><a xlink:title=" ">
<polygon fill="white" stroke="#666666" points="315,-78 170,-78 170,-48 315,-48 315,-78"/>
<text text-anchor="start" x="178" y="-66" font-family="Helvetica,sans-Serif" font-size="10.00">std::unique_ptr&lt; Mcp9700</text>
<text text-anchor="middle" x="242.5" y="-55" font-family="Helvetica,sans-Serif" font-size="10.00">AdcAdapter &gt;</text>
</a>
</g>
</g>
<!-- Node3&#45;&gt;Node1 -->
<g id="edge2_Node000001_Node000003" class="edge">
<title>Node3&#45;&gt;Node1</title>
<g id="a_edge2_Node000001_Node000003"><a xlink:title=" ">
<path fill="none" stroke="#9a32cd" stroke-dasharray="5,2" d="M325.24,-63C355.48,-63 389.7,-63 419.76,-63"/>
<polygon fill="#9a32cd" stroke="#9a32cd" points="325.15,-59.5 315.15,-63 325.15,-66.5 325.15,-59.5"/>
</a>
</g>
<text text-anchor="middle" x="367.5" y="-66" font-family="Helvetica,sans-Serif" font-size="10.00" fill="grey"> adc_adapter_</text>
</g>
<!-- Node4 -->
<g id="Node000004" class="node">
<title>Node4</title>
<g id="a_Node000004"><a xlink:href="classMcp9700AdcAdapter.html" target="_top" xlink:title="Thin adapter: BaseAdc channel read in the shape expected by Mcp9700Thermistor&lt;&gt;.">
<polygon fill="white" stroke="#666666" points="117,-72.5 0,-72.5 0,-53.5 117,-53.5 117,-72.5"/>
<text text-anchor="middle" x="58.5" y="-60.5" font-family="Helvetica,sans-Serif" font-size="10.00">Mcp9700AdcAdapter</text>
</a>
</g>
</g>
<!-- Node4&#45;&gt;Node3 -->
<g id="edge3_Node000003_Node000004" class="edge">
<title>Node4&#45;&gt;Node3</title>
<g id="a_edge3_Node000003_Node000004"><a xlink:title=" ">
<path fill="none" stroke="#9a32cd" stroke-dasharray="5,2" d="M127.09,-63C141.05,-63 155.8,-63 169.9,-63"/>
<polygon fill="#9a32cd" stroke="#9a32cd" points="127.09,-59.5 117.09,-63 127.09,-66.5 127.09,-59.5"/>
</a>
</g>
<text text-anchor="middle" x="143.5" y="-66" font-family="Helvetica,sans-Serif" font-size="10.00" fill="grey"> ptr</text>
</g>
<!-- Node5 -->
<g id="Node000005" class="node">
<title>Node5</title>
<g id="a_Node000005"><a xlink:title=" ">
<polygon fill="white" stroke="#666666" points="315,-30 170,-30 170,0 315,0 315,-30"/>
<text text-anchor="start" x="178" y="-18" font-family="Helvetica,sans-Serif" font-size="10.00">std::unique_ptr&lt; Mcp9700</text>
<text text-anchor="middle" x="242.5" y="-7" font-family="Helvetica,sans-Serif" font-size="10.00">ThermistorConcrete &gt;</text>
</a>
</g>
</g>
<!-- Node5&#45;&gt;Node1 -->
<g id="edge4_Node000001_Node000005" class="edge">
<title>Node5&#45;&gt;Node1</title>
<g id="a_edge4_Node000001_Node000005"><a xlink:title=" ">
<path fill="none" stroke="#9a32cd" stroke-dasharray="5,2" d="M325.02,-30.29C365.56,-37.89 413.3,-46.84 448.58,-53.45"/>
<polygon fill="#9a32cd" stroke="#9a32cd" points="325.62,-26.84 315.15,-28.43 324.33,-33.72 325.62,-26.84"/>
</a>
</g>
<text text-anchor="middle" x="367.5" y="-48" font-family="Helvetica,sans-Serif" font-size="10.00" fill="grey"> thermistor_</text>
</g>
</g>
</svg>
