<?xml version="1.0" encoding="UTF-8" standalone="no"?>
<!DOCTYPE svg PUBLIC "-//W3C//DTD SVG 1.1//EN"
 "http://www.w3.org/Graphics/SVG/1.1/DTD/svg11.dtd">
<!-- Generated by graphviz version 2.43.0 (0)
 -->
<!-- Title: Ws2812Handler::Tick Pages: 1 -->
<svg width="838pt" height="138pt"
 viewBox="0.00 0.00 838.00 138.00" xmlns="http://www.w3.org/2000/svg" xmlns:xlink="http://www.w3.org/1999/xlink">
<g id="graph0" class="graph" transform="scale(1 1) rotate(0) translate(4 134)">
<title>Ws2812Handler::Tick</title>
<!-- Node1 -->
<g id="Node000001" class="node">
<title>Node1</title>
<g id="a_Node000001"><a xlink:title="Advance animation by time delta (call periodically).">
<polygon fill="#999999" stroke="#666666" points="120,-74 0,-74 0,-55 120,-55 120,-74"/>
<text text-anchor="middle" x="60" y="-62" font-family="Helvetica,sans-Serif" font-size="10.00">Ws2812Handler::Tick</text>
</a>
</g>
</g>
<!-- Node2 -->
<g id="Node000002" class="node">
<title>Node2</title>
<g id="a_Node000002"><a xlink:href="classWs2812Handler.html#afe5f397b22e9b92cf2fb2cebae6e123d" target="_top" xlink:title=" ">
<polygon fill="white" stroke="#666666" points="337,-79.5 156,-79.5 156,-49.5 337,-49.5 337,-79.5"/>
<text text-anchor="start" x="164" y="-67.5" font-family="Helvetica,sans-Serif" font-size="10.00">Ws2812Handler::EnsureInitialized</text>
<text text-anchor="middle" x="246.5" y="-56.5" font-family="Helvetica,sans-Serif" font-size="10.00">Locked</text>
</a>
</g>
</g>
<!-- Node1&#45;&gt;Node2 -->
<g id="edge1_Node000001_Node000002" class="edge">
<title>Node1&#45;&gt;Node2</title>
<g id="a_edge1_Node000001_Node000002"><a xlink:title=" ">
<path fill="none" stroke="#63b8ff" d="M120.14,-64.5C128.32,-64.5 136.9,-64.5 145.58,-64.5"/>
<polygon fill="#63b8ff" stroke="#63b8ff" points="145.78,-68 155.78,-64.5 145.78,-61 145.78,-68"/>
</a>
</g>
</g>
<!-- Node3 -->
<g id="Node000003" class="node">
<title>Node3</title>
<g id="a_Node000003"><a xlink:href="classWs2812Handler.html#a172ae173d1e2bd93c9808452aad6e4cd" target="_top" xlink:title="Initialize the RMT channel and LED strip.">
<polygon fill="white" stroke="#666666" points="515,-74 373,-74 373,-55 515,-55 515,-74"/>
<text text-anchor="middle" x="444" y="-62" font-family="Helvetica,sans-Serif" font-size="10.00">Ws2812Handler::Initialize</text>
</a>
</g>
</g>
<!-- Node2&#45;&gt;Node3 -->
<g id="edge2_Node000002_Node000003" class="edge">
<title>Node2&#45;&gt;Node3</title>
<g id="a_edge2_Node000002_Node000003"><a xlink:title=" ">
<path fill="none" stroke="#63b8ff" d="M337.24,-64.5C345.73,-64.5 354.3,-64.5 362.7,-64.5"/>
<polygon fill="#63b8ff" stroke="#63b8ff" points="362.84,-68 372.84,-64.5 362.84,-61 362.84,-68"/>
</a>
</g>
</g>
<!-- Node4 -->
<g id="Node000004" class="node">
<title>Node4</title>
<g id="a_Node000004"><a xlink:href="classLogger.html#adce17848a5844e053bfd314863dc1404" target="_top" xlink:title="Log error message.">
<polygon fill="white" stroke="#666666" points="647.5,-130 568.5,-130 568.5,-111 647.5,-111 647.5,-130"/>
<text text-anchor="middle" x="608" y="-118" font-family="Helvetica,sans-Serif" font-size="10.00">Logger::Error</text>
</a>
</g>
</g>
<!-- Node3&#45;&gt;Node4 -->
<g id="edge3_Node000003_Node000004" class="edge">
<title>Node3&#45;&gt;Node4</title>
<g id="a_edge3_Node000003_Node000004"><a xlink:title=" ">
<path fill="none" stroke="#63b8ff" d="M471.05,-74.11C492.46,-81.94 523.61,-93.19 551,-102.5 556.2,-104.27 561.68,-106.08 567.1,-107.85"/>
<polygon fill="#63b8ff" stroke="#63b8ff" points="566.12,-111.22 576.71,-110.97 568.28,-104.56 566.12,-111.22"/>
</a>
</g>
</g>
<!-- Node7 -->
<g id="Node000007" class="node">
<title>Node7</title>
<g id="a_Node000007"><a xlink:href="classLogger.html#a5789d11f8f1356e2192c0023a089cbc4" target="_top" xlink:title="Get singleton instance.">
<polygon fill="white" stroke="#666666" points="665,-19 551,-19 551,0 665,0 665,-19"/>
<text text-anchor="middle" x="608" y="-7" font-family="Helvetica,sans-Serif" font-size="10.00">Logger::GetInstance</text>
</a>
</g>
</g>
<!-- Node3&#45;&gt;Node7 -->
<g id="edge6_Node000003_Node000007" class="edge">
<title>Node3&#45;&gt;Node7</title>
<g id="a_edge6_Node000003_Node000007"><a xlink:title=" ">
<path fill="none" stroke="#63b8ff" d="M471.95,-54.89C493.33,-47.31 524.02,-36.54 551,-27.5 556.2,-25.76 561.69,-23.95 567.11,-22.19"/>
<polygon fill="#63b8ff" stroke="#63b8ff" points="568.29,-25.48 576.73,-19.08 566.14,-18.82 568.29,-25.48"/>
</a>
</g>
</g>
<!-- Node8 -->
<g id="Node000008" class="node">
<title>Node8</title>
<g id="a_Node000008"><a xlink:href="classLogger.html#a4681229c521795685fc14f6b55c82300" target="_top" xlink:title="Log info message.">
<polygon fill="white" stroke="#666666" points="645,-93 571,-93 571,-74 645,-74 645,-93"/>
<text text-anchor="middle" x="608" y="-81" font-family="Helvetica,sans-Serif" font-size="10.00">Logger::Info</text>
</a>
</g>
</g>
<!-- Node3&#45;&gt;Node8 -->
<g id="edge7_Node000003_Node000008" class="edge">
<title>Node3&#45;&gt;Node8</title>
<g id="a_edge7_Node000003_Node000008"><a xlink:title=" ">
<path fill="none" stroke="#63b8ff" d="M515.11,-72.72C530.53,-74.53 546.48,-76.4 560.67,-78.07"/>
<polygon fill="#63b8ff" stroke="#63b8ff" points="560.33,-81.55 570.67,-79.24 561.15,-74.6 560.33,-81.55"/>
</a>
</g>
</g>
<!-- Node9 -->
<g id="Node000009" class="node">
<title>Node9</title>
<g id="a_Node000009"><a xlink:href="classLogger.html#aaa95ffa14d07a965d4a85bdec82cba26" target="_top" xlink:title="Log warning message.">
<polygon fill="white" stroke="#666666" points="648,-56 568,-56 568,-37 648,-37 648,-56"/>
<text text-anchor="middle" x="608" y="-44" font-family="Helvetica,sans-Serif" font-size="10.00">Logger::Warn</text>
</a>
</g>
</g>
<!-- Node3&#45;&gt;Node9 -->
<g id="edge10_Node000003_Node000009" class="edge">
<title>Node3&#45;&gt;Node9</title>
<g id="a_edge10_Node000003_Node000009"><a xlink:title=" ">
<path fill="none" stroke="#63b8ff" d="M515.11,-56.71C529.42,-55.12 544.2,-53.48 557.6,-51.99"/>
<polygon fill="#63b8ff" stroke="#63b8ff" points="558,-55.47 567.55,-50.88 557.22,-48.51 558,-55.47"/>
</a>
</g>
</g>
<!-- Node5 -->
<g id="Node000005" class="node">
<title>Node5</title>
<g id="a_Node000005"><a xlink:href="classLogger.html#af9e84e0ff6bd538e4f9ed8dcebc3e2f0" target="_top" xlink:title="Check if log level is enabled for tag.">
<polygon fill="white" stroke="#666666" points="830,-111 701,-111 701,-92 830,-92 830,-111"/>
<text text-anchor="middle" x="765.5" y="-99" font-family="Helvetica,sans-Serif" font-size="10.00">Logger::IsLevelEnabled</text>
</a>
</g>
</g>
<!-- Node4&#45;&gt;Node5 -->
<g id="edge4_Node000004_Node000005" class="edge">
<title>Node4&#45;&gt;Node5</title>
<g id="a_edge4_Node000004_Node000005"><a xlink:title=" ">
<path fill="none" stroke="#63b8ff" d="M647.84,-115.75C660.85,-114.16 675.82,-112.34 690.6,-110.53"/>
<polygon fill="#63b8ff" stroke="#63b8ff" points="691.28,-113.97 700.78,-109.29 690.43,-107.02 691.28,-113.97"/>
</a>
</g>
</g>
<!-- Node6 -->
<g id="Node000006" class="node">
<title>Node6</title>
<g id="a_Node000006"><a xlink:href="classLogger.html#a6adb205db597526fb91ad20067400394" target="_top" xlink:title="Internal logging method.">
<polygon fill="white" stroke="#666666" points="820.5,-74 710.5,-74 710.5,-55 820.5,-55 820.5,-74"/>
<text text-anchor="middle" x="765.5" y="-62" font-family="Helvetica,sans-Serif" font-size="10.00">Logger::LogInternal</text>
</a>
</g>
</g>
<!-- Node4&#45;&gt;Node6 -->
<g id="edge5_Node000004_Node000006" class="edge">
<title>Node4&#45;&gt;Node6</title>
<g id="a_edge5_Node000004_Node000006"><a xlink:title=" ">
<path fill="none" stroke="#63b8ff" d="M641.92,-110.98C649.59,-108.47 657.66,-105.59 665,-102.5 681.68,-95.48 684.25,-90.35 701,-83.5 706.53,-81.24 712.42,-79.12 718.31,-77.16"/>
<polygon fill="#63b8ff" stroke="#63b8ff" points="719.67,-80.41 728.14,-74.05 717.55,-73.73 719.67,-80.41"/>
</a>
</g>
</g>
<!-- Node8&#45;&gt;Node5 -->
<g id="edge8_Node000008_Node000005" class="edge">
<title>Node8&#45;&gt;Node5</title>
<g id="a_edge8_Node000008_Node000005"><a xlink:title=" ">
<path fill="none" stroke="#63b8ff" d="M645.07,-87.67C658.68,-89.25 674.72,-91.11 690.55,-92.94"/>
<polygon fill="#63b8ff" stroke="#63b8ff" points="690.55,-96.46 700.89,-94.14 691.36,-89.51 690.55,-96.46"/>
</a>
</g>
</g>
<!-- Node8&#45;&gt;Node6 -->
<g id="edge9_Node000008_Node000006" class="edge">
<title>Node8&#45;&gt;Node6</title>
<g id="a_edge9_Node000008_Node000006"><a xlink:title=" ">
<path fill="none" stroke="#63b8ff" d="M645.07,-79.09C661.49,-77.09 681.44,-74.65 700.3,-72.34"/>
<polygon fill="#63b8ff" stroke="#63b8ff" points="700.83,-75.81 710.33,-71.12 699.98,-68.86 700.83,-75.81"/>
</a>
</g>
</g>
<!-- Node9&#45;&gt;Node5 -->
<g id="edge11_Node000009_Node000005" class="edge">
<title>Node9&#45;&gt;Node5</title>
<g id="a_edge11_Node000009_Node000005"><a xlink:title=" ">
<path fill="none" stroke="#63b8ff" d="M639.51,-56.01C647.86,-58.84 656.85,-62.1 665,-65.5 681.51,-72.39 684.32,-77.03 701,-83.5 706.07,-85.47 711.45,-87.33 716.85,-89.05"/>
<polygon fill="#63b8ff" stroke="#63b8ff" points="715.92,-92.42 726.51,-91.99 717.96,-85.73 715.92,-92.42"/>
</a>
</g>
</g>
<!-- Node9&#45;&gt;Node6 -->
<g id="edge12_Node000009_Node000006" class="edge">
<title>Node9&#45;&gt;Node6</title>
<g id="a_edge12_Node000009_Node000006"><a xlink:title=" ">
<path fill="none" stroke="#63b8ff" d="M648.24,-51.04C663.96,-52.86 682.49,-55.01 700.08,-57.04"/>
<polygon fill="#63b8ff" stroke="#63b8ff" points="699.96,-60.55 710.3,-58.23 700.77,-53.6 699.96,-60.55"/>
</a>
</g>
</g>
</g>
</svg>
