<?xml version="1.0" encoding="UTF-8" standalone="no"?>
<!DOCTYPE svg PUBLIC "-//W3C//DTD SVG 1.1//EN"
 "http://www.w3.org/Graphics/SVG/1.1/DTD/svg11.dtd">
<!-- Generated by graphviz version 2.43.0 (0)
 -->
<!-- Title: create_gpio Pages: 1 -->
<svg width="308pt" height="212pt"
 viewBox="0.00 0.00 308.00 212.00" xmlns="http://www.w3.org/2000/svg" xmlns:xlink="http://www.w3.org/1999/xlink">
<g id="graph0" class="graph" transform="scale(1 1) rotate(0) translate(4 208)">
<title>create_gpio</title>
<!-- Node1 -->
<g id="Node000001" class="node">
<title>Node1</title>
<g id="a_Node000001"><a xlink:title="Create an EspGpio for a specific pin.">
<polygon fill="#999999" stroke="#666666" points="300,-111 226,-111 226,-92 300,-92 300,-111"/>
<text text-anchor="middle" x="263" y="-99" font-family="Helvetica,sans-Serif" font-size="10.00">create_gpio</text>
</a>
</g>
</g>
<!-- Node2 -->
<g id="Node000002" class="node">
<title>Node2</title>
<g id="a_Node000002"><a xlink:href="bno08x__handler__comprehensive__test_8cpp.html#ad7178bfd7bed244bfbb8045f77e478bb" target="_top" xlink:title=" ">
<polygon fill="white" stroke="#666666" points="190,-204 101,-204 101,-185 190,-185 190,-204"/>
<text text-anchor="middle" x="145.5" y="-192" font-family="Helvetica,sans-Serif" font-size="10.00">create_handler</text>
</a>
</g>
</g>
<!-- Node1&#45;&gt;Node2 -->
<g id="edge1_Node000001_Node000002" class="edge">
<title>Node1&#45;&gt;Node2</title>
<g id="a_edge1_Node000001_Node000002"><a xlink:title=" ">
<path fill="none" stroke="#63b8ff" d="M248.51,-119.32C235.16,-135.95 213.39,-160.53 190,-176.5 185.28,-179.73 179.88,-182.53 174.54,-184.91"/>
<polygon fill="#63b8ff" stroke="#63b8ff" points="251.61,-121.04 255.01,-111.01 246.1,-116.73 251.61,-121.04"/>
</a>
</g>
</g>
<!-- Node4 -->
<g id="Node000004" class="node">
<title>Node4</title>
<g id="a_Node000004"><a xlink:href="max22200__handler__comprehensive__test_8cpp.html#ad7178bfd7bed244bfbb8045f77e478bb" target="_top" xlink:title=" ">
<polygon fill="white" stroke="#666666" points="190,-167 101,-167 101,-148 190,-148 190,-167"/>
<text text-anchor="middle" x="145.5" y="-155" font-family="Helvetica,sans-Serif" font-size="10.00">create_handler</text>
</a>
</g>
</g>
<!-- Node1&#45;&gt;Node4 -->
<g id="edge3_Node000001_Node000004" class="edge">
<title>Node1&#45;&gt;Node4</title>
<g id="a_edge3_Node000001_Node000004"><a xlink:title=" ">
<path fill="none" stroke="#63b8ff" d="M236.26,-115.83C222.66,-123.22 205.59,-132.18 190,-139.5 183.79,-142.42 176.97,-145.36 170.61,-147.99"/>
<polygon fill="#63b8ff" stroke="#63b8ff" points="237.97,-118.89 245.06,-111.02 234.61,-112.75 237.97,-118.89"/>
</a>
</g>
</g>
<!-- Node6 -->
<g id="Node000006" class="node">
<title>Node6</title>
<g id="a_Node000006"><a xlink:href="pcal95555__handler__comprehensive__test_8cpp.html#ad7178bfd7bed244bfbb8045f77e478bb" target="_top" xlink:title=" ">
<polygon fill="white" stroke="#666666" points="190,-130 101,-130 101,-111 190,-111 190,-130"/>
<text text-anchor="middle" x="145.5" y="-118" font-family="Helvetica,sans-Serif" font-size="10.00">create_handler</text>
</a>
</g>
</g>
<!-- Node1&#45;&gt;Node6 -->
<g id="edge5_Node000001_Node000006" class="edge">
<title>Node1&#45;&gt;Node6</title>
<g id="a_edge5_Node000001_Node000006"><a xlink:title=" ">
<path fill="none" stroke="#63b8ff" d="M215.75,-109.11C207.36,-110.49 198.62,-111.93 190.3,-113.29"/>
<polygon fill="#63b8ff" stroke="#63b8ff" points="216.47,-112.54 225.77,-107.46 215.34,-105.63 216.47,-112.54"/>
</a>
</g>
</g>
<!-- Node8 -->
<g id="Node000008" class="node">
<title>Node8</title>
<g id="a_Node000008"><a xlink:href="tle92466ed__handler__comprehensive__test_8cpp.html#ad7178bfd7bed244bfbb8045f77e478bb" target="_top" xlink:title=" ">
<polygon fill="white" stroke="#666666" points="190,-93 101,-93 101,-74 190,-74 190,-93"/>
<text text-anchor="middle" x="145.5" y="-81" font-family="Helvetica,sans-Serif" font-size="10.00">create_handler</text>
</a>
</g>
</g>
<!-- Node1&#45;&gt;Node8 -->
<g id="edge7_Node000001_Node000008" class="edge">
<title>Node1&#45;&gt;Node8</title>
<g id="a_edge7_Node000001_Node000008"><a xlink:title=" ">
<path fill="none" stroke="#63b8ff" d="M215.75,-94.29C207.36,-92.98 198.62,-91.62 190.3,-90.33"/>
<polygon fill="#63b8ff" stroke="#63b8ff" points="215.35,-97.77 225.77,-95.85 216.43,-90.86 215.35,-97.77"/>
</a>
</g>
</g>
<!-- Node10 -->
<g id="Node000010" class="node">
<title>Node10</title>
<g id="a_Node000010"><a xlink:href="tmc5160__handler__comprehensive__test_8cpp.html#ad7178bfd7bed244bfbb8045f77e478bb" target="_top" xlink:title=" ">
<polygon fill="white" stroke="#666666" points="190,-56 101,-56 101,-37 190,-37 190,-56"/>
<text text-anchor="middle" x="145.5" y="-44" font-family="Helvetica,sans-Serif" font-size="10.00">create_handler</text>
</a>
</g>
</g>
<!-- Node1&#45;&gt;Node10 -->
<g id="edge9_Node000001_Node000010" class="edge">
<title>Node1&#45;&gt;Node10</title>
<g id="a_edge9_Node000001_Node000010"><a xlink:title=" ">
<path fill="none" stroke="#63b8ff" d="M234.36,-87.26C221.03,-80.5 204.77,-72.41 190,-65.5 183.28,-62.36 175.91,-59.07 169.18,-56.14"/>
<polygon fill="#63b8ff" stroke="#63b8ff" points="232.98,-90.49 243.48,-91.91 236.16,-84.25 232.98,-90.49"/>
</a>
</g>
</g>
<!-- Node12 -->
<g id="Node000012" class="node">
<title>Node12</title>
<g id="a_Node000012"><a xlink:href="tmc9660__handler__comprehensive__test_8cpp.html#ad7178bfd7bed244bfbb8045f77e478bb" target="_top" xlink:title=" ">
<polygon fill="white" stroke="#666666" points="190,-19 101,-19 101,0 190,0 190,-19"/>
<text text-anchor="middle" x="145.5" y="-7" font-family="Helvetica,sans-Serif" font-size="10.00">create_handler</text>
</a>
</g>
</g>
<!-- Node1&#45;&gt;Node12 -->
<g id="edge11_Node000001_Node000012" class="edge">
<title>Node1&#45;&gt;Node12</title>
<g id="a_edge11_Node000001_Node000012"><a xlink:title=" ">
<path fill="none" stroke="#63b8ff" d="M247.91,-83.75C234.41,-67.67 212.78,-44.15 190,-28.5 184.7,-24.86 178.59,-21.67 172.66,-19"/>
<polygon fill="#63b8ff" stroke="#63b8ff" points="245.48,-86.31 254.52,-91.83 250.89,-81.87 245.48,-86.31"/>
</a>
</g>
</g>
<!-- Node3 -->
<g id="Node000003" class="node">
<title>Node3</title>
<g id="a_Node000003"><a xlink:href="bno08x__handler__comprehensive__test_8cpp.html#a630544a7f0a2cc40d8a7fefab7e2fe70" target="_top" xlink:title=" ">
<polygon fill="white" stroke="#666666" points="65,-204 0,-204 0,-185 65,-185 65,-204"/>
<text text-anchor="middle" x="32.5" y="-192" font-family="Helvetica,sans-Serif" font-size="10.00">app_main</text>
</a>
</g>
</g>
<!-- Node2&#45;&gt;Node3 -->
<g id="edge2_Node000002_Node000003" class="edge">
<title>Node2&#45;&gt;Node3</title>
<g id="a_edge2_Node000002_Node000003"><a xlink:title=" ">
<path fill="none" stroke="#63b8ff" d="M90.77,-194.5C82.04,-194.5 73.24,-194.5 65.26,-194.5"/>
<polygon fill="#63b8ff" stroke="#63b8ff" points="90.95,-198 100.95,-194.5 90.95,-191 90.95,-198"/>
</a>
</g>
</g>
<!-- Node5 -->
<g id="Node000005" class="node">
<title>Node5</title>
<g id="a_Node000005"><a xlink:href="max22200__handler__comprehensive__test_8cpp.html#a630544a7f0a2cc40d8a7fefab7e2fe70" target="_top" xlink:title=" ">
<polygon fill="white" stroke="#666666" points="65,-167 0,-167 0,-148 65,-148 65,-167"/>
<text text-anchor="middle" x="32.5" y="-155" font-family="Helvetica,sans-Serif" font-size="10.00">app_main</text>
</a>
</g>
</g>
<!-- Node4&#45;&gt;Node5 -->
<g id="edge4_Node000004_Node000005" class="edge">
<title>Node4&#45;&gt;Node5</title>
<g id="a_edge4_Node000004_Node000005"><a xlink:title=" ">
<path fill="none" stroke="#63b8ff" d="M90.77,-157.5C82.04,-157.5 73.24,-157.5 65.26,-157.5"/>
<polygon fill="#63b8ff" stroke="#63b8ff" points="90.95,-161 100.95,-157.5 90.95,-154 90.95,-161"/>
</a>
</g>
</g>
<!-- Node7 -->
<g id="Node000007" class="node">
<title>Node7</title>
<g id="a_Node000007"><a xlink:href="pcal95555__handler__comprehensive__test_8cpp.html#a630544a7f0a2cc40d8a7fefab7e2fe70" target="_top" xlink:title=" ">
<polygon fill="white" stroke="#666666" points="65,-130 0,-130 0,-111 65,-111 65,-130"/>
<text text-anchor="middle" x="32.5" y="-118" font-family="Helvetica,sans-Serif" font-size="10.00">app_main</text>
</a>
</g>
</g>
<!-- Node6&#45;&gt;Node7 -->
<g id="edge6_Node000006_Node000007" class="edge">
<title>Node6&#45;&gt;Node7</title>
<g id="a_edge6_Node000006_Node000007"><a xlink:title=" ">
<path fill="none" stroke="#63b8ff" d="M90.77,-120.5C82.04,-120.5 73.24,-120.5 65.26,-120.5"/>
<polygon fill="#63b8ff" stroke="#63b8ff" points="90.95,-124 100.95,-120.5 90.95,-117 90.95,-124"/>
</a>
</g>
</g>
<!-- Node9 -->
<g id="Node000009" class="node">
<title>Node9</title>
<g id="a_Node000009"><a xlink:href="tle92466ed__handler__comprehensive__test_8cpp.html#a630544a7f0a2cc40d8a7fefab7e2fe70" target="_top" xlink:title=" ">
<polygon fill="white" stroke="#666666" points="65,-93 0,-93 0,-74 65,-74 65,-93"/>
<text text-anchor="middle" x="32.5" y="-81" font-family="Helvetica,sans-Serif" font-size="10.00">app_main</text>
</a>
</g>
</g>
<!-- Node8&#45;&gt;Node9 -->
<g id="edge8_Node000008_Node000009" class="edge">
<title>Node8&#45;&gt;Node9</title>
<g id="a_edge8_Node000008_Node000009"><a xlink:title=" ">
<path fill="none" stroke="#63b8ff" d="M90.77,-83.5C82.04,-83.5 73.24,-83.5 65.26,-83.5"/>
<polygon fill="#63b8ff" stroke="#63b8ff" points="90.95,-87 100.95,-83.5 90.95,-80 90.95,-87"/>
</a>
</g>
</g>
<!-- Node11 -->
<g id="Node000011" class="node">
<title>Node11</title>
<g id="a_Node000011"><a xlink:href="tmc5160__handler__comprehensive__test_8cpp.html#a630544a7f0a2cc40d8a7fefab7e2fe70" target="_top" xlink:title=" ">
<polygon fill="white" stroke="#666666" points="65,-56 0,-56 0,-37 65,-37 65,-56"/>
<text text-anchor="middle" x="32.5" y="-44" font-family="Helvetica,sans-Serif" font-size="10.00">app_main</text>
</a>
</g>
</g>
<!-- Node10&#45;&gt;Node11 -->
<g id="edge10_Node000010_Node000011" class="edge">
<title>Node10&#45;&gt;Node11</title>
<g id="a_edge10_Node000010_Node000011"><a xlink:title=" ">
<path fill="none" stroke="#63b8ff" d="M90.77,-46.5C82.04,-46.5 73.24,-46.5 65.26,-46.5"/>
<polygon fill="#63b8ff" stroke="#63b8ff" points="90.95,-50 100.95,-46.5 90.95,-43 90.95,-50"/>
</a>
</g>
</g>
<!-- Node13 -->
<g id="Node000013" class="node">
<title>Node13</title>
<g id="a_Node000013"><a xlink:href="tmc9660__handler__comprehensive__test_8cpp.html#a630544a7f0a2cc40d8a7fefab7e2fe70" target="_top" xlink:title=" ">
<polygon fill="white" stroke="#666666" points="65,-19 0,-19 0,0 65,0 65,-19"/>
<text text-anchor="middle" x="32.5" y="-7" font-family="Helvetica,sans-Serif" font-size="10.00">app_main</text>
</a>
</g>
</g>
<!-- Node12&#45;&gt;Node13 -->
<g id="edge12_Node000012_Node000013" class="edge">
<title>Node12&#45;&gt;Node13</title>
<g id="a_edge12_Node000012_Node000013"><a xlink:title=" ">
<path fill="none" stroke="#63b8ff" d="M90.77,-9.5C82.04,-9.5 73.24,-9.5 65.26,-9.5"/>
<polygon fill="#63b8ff" stroke="#63b8ff" points="90.95,-13 100.95,-9.5 90.95,-6 90.95,-13"/>
</a>
</g>
</g>
</g>
</svg>
