<?xml version="1.0" encoding="UTF-8" standalone="no"?>
<!DOCTYPE svg PUBLIC "-//W3C//DTD SVG 1.1//EN"
 "http://www.w3.org/Graphics/SVG/1.1/DTD/svg11.dtd">
<!-- Generated by graphviz version 2.43.0 (0)
 -->
<!-- Title: HfUtilsCanOpenBridge.hpp Pages: 1 -->
<svg width="347pt" height="82pt"
 viewBox="0.00 0.00 346.50 82.00" xmlns="http://www.w3.org/2000/svg" xmlns:xlink="http://www.w3.org/1999/xlink">
<g id="graph0" class="graph" transform="scale(1 1) rotate(0) translate(4 78)">
<title>HfUtilsCanOpenBridge.hpp</title>
<!-- Node1 -->
<g id="Node000001" class="node">
<title>Node1</title>
<g id="a_Node000001"><a xlink:title="Convert CanOpen::CanFrame ↔ hf_can_message_t for BaseCan I/O.">
<polygon fill="#999999" stroke="#666666" points="263,-74 116,-74 116,-55 263,-55 263,-74"/>
<text text-anchor="middle" x="189.5" y="-62" font-family="Helvetica,sans-Serif" font-size="10.00">HfUtilsCanOpenBridge.hpp</text>
</a>
</g>
</g>
<!-- Node2 -->
<g id="Node000002" class="node">
<title>Node2</title>
<g id="a_Node000002"><a xlink:title=" ">
<polygon fill="#e0e0e0" stroke="#999999" points="75,-19 0,-19 0,0 75,0 75,-19"/>
<text text-anchor="middle" x="37.5" y="-7" font-family="Helvetica,sans-Serif" font-size="10.00">CanFrame.h</text>
</a>
</g>
</g>
<!-- Node1&#45;&gt;Node2 -->
<g id="edge1_Node000001_Node000002" class="edge">
<title>Node1&#45;&gt;Node2</title>
<g id="a_edge1_Node000001_Node000002"><a xlink:title=" ">
<path fill="none" stroke="#63b8ff" d="M165.08,-54.98C139.78,-46.16 100.05,-32.31 71.64,-22.41"/>
<polygon fill="#63b8ff" stroke="#63b8ff" points="72.71,-19.07 62.11,-19.08 70.4,-25.68 72.71,-19.07"/>
</a>
</g>
</g>
<!-- Node3 -->
<g id="Node000003" class="node">
<title>Node3</title>
<g id="a_Node000003"><a xlink:title=" ">
<polygon fill="#e0e0e0" stroke="#999999" points="188,-19 93,-19 93,0 188,0 188,-19"/>
<text text-anchor="middle" x="140.5" y="-7" font-family="Helvetica,sans-Serif" font-size="10.00">base/BaseCan.h</text>
</a>
</g>
</g>
<!-- Node1&#45;&gt;Node3 -->
<g id="edge2_Node000001_Node000003" class="edge">
<title>Node1&#45;&gt;Node3</title>
<g id="a_edge2_Node000001_Node000003"><a xlink:title=" ">
<path fill="none" stroke="#63b8ff" d="M181.41,-54.75C174.34,-47.11 163.91,-35.82 155.35,-26.56"/>
<polygon fill="#63b8ff" stroke="#63b8ff" points="157.8,-24.06 148.44,-19.09 152.66,-28.81 157.8,-24.06"/>
</a>
</g>
</g>
<!-- Node4 -->
<g id="Node000004" class="node">
<title>Node4</title>
<g id="a_Node000004"><a xlink:title=" ">
<polygon fill="#e0e0e0" stroke="#999999" points="270.5,-19 206.5,-19 206.5,0 270.5,0 270.5,-19"/>
<text text-anchor="middle" x="238.5" y="-7" font-family="Helvetica,sans-Serif" font-size="10.00">algorithm</text>
</a>
</g>
</g>
<!-- Node1&#45;&gt;Node4 -->
<g id="edge3_Node000001_Node000004" class="edge">
<title>Node1&#45;&gt;Node4</title>
<g id="a_edge3_Node000001_Node000004"><a xlink:title=" ">
<path fill="none" stroke="#63b8ff" d="M197.59,-54.75C204.66,-47.11 215.09,-35.82 223.65,-26.56"/>
<polygon fill="#63b8ff" stroke="#63b8ff" points="226.34,-28.81 230.56,-19.09 221.2,-24.06 226.34,-28.81"/>
</a>
</g>
</g>
<!-- Node5 -->
<g id="Node000005" class="node">
<title>Node5</title>
<g id="a_Node000005"><a xlink:title=" ">
<polygon fill="#e0e0e0" stroke="#999999" points="338.5,-19 288.5,-19 288.5,0 338.5,0 338.5,-19"/>
<text text-anchor="middle" x="313.5" y="-7" font-family="Helvetica,sans-Serif" font-size="10.00">cstring</text>
</a>
</g>
</g>
<!-- Node1&#45;&gt;Node5 -->
<g id="edge4_Node000001_Node000005" class="edge">
<title>Node1&#45;&gt;Node5</title>
<g id="a_edge4_Node000001_Node000005"><a xlink:title=" ">
<path fill="none" stroke="#63b8ff" d="M209.42,-54.98C229.55,-46.38 260.88,-32.99 283.91,-23.15"/>
<polygon fill="#63b8ff" stroke="#63b8ff" points="285.4,-26.32 293.21,-19.17 282.64,-19.88 285.4,-26.32"/>
</a>
</g>
</g>
</g>
</svg>
