<?xml version="1.0" encoding="UTF-8" standalone="no"?>
<!DOCTYPE svg PUBLIC "-//W3C//DTD SVG 1.1//EN"
 "http://www.w3.org/Graphics/SVG/1.1/DTD/svg11.dtd">
<!-- Generated by graphviz version 2.43.0 (0)
 -->
<!-- Title: Logger.cpp Pages: 1 -->
<svg width="483pt" height="170pt"
 viewBox="0.00 0.00 482.50 170.00" xmlns="http://www.w3.org/2000/svg" xmlns:xlink="http://www.w3.org/1999/xlink">
<g id="graph0" class="graph" transform="scale(1 1) rotate(0) translate(4 166)">
<title>Logger.cpp</title>
<!-- Node1 -->
<g id="Node000001" class="node">
<title>Node1</title>
<g id="a_Node000001"><a xlink:title="Implementation of the advanced logging system.">
<polygon fill="#999999" stroke="#666666" points="237,-162 168,-162 168,-143 237,-143 237,-162"/>
<text text-anchor="middle" x="202.5" y="-150" font-family="Helvetica,sans-Serif" font-size="10.00">Logger.cpp</text>
</a>
</g>
</g>
<!-- Node2 -->
<g id="Node000002" class="node">
<title>Node2</title>
<g id="a_Node000002"><a xlink:href="Logger_8h.html" target="_top" xlink:title="Advanced logging system with formatting capabilities.">
<polygon fill="white" stroke="#666666" points="174.5,-90.5 116.5,-90.5 116.5,-71.5 174.5,-71.5 174.5,-90.5"/>
<text text-anchor="middle" x="145.5" y="-78.5" font-family="Helvetica,sans-Serif" font-size="10.00">Logger.h</text>
</a>
</g>
</g>
<!-- Node1&#45;&gt;Node2 -->
<g id="edge1_Node000001_Node000002" class="edge">
<title>Node1&#45;&gt;Node2</title>
<g id="a_edge1_Node000001_Node000002"><a xlink:title=" ">
<path fill="none" stroke="#63b8ff" d="M195.51,-142.98C186.45,-131.93 170.46,-112.43 159,-98.46"/>
<polygon fill="#63b8ff" stroke="#63b8ff" points="161.59,-96.1 152.55,-90.59 156.18,-100.54 161.59,-96.1"/>
</a>
</g>
</g>
<!-- Node3 -->
<g id="Node000003" class="node">
<title>Node3</title>
<g id="a_Node000003"><a xlink:title=" ">
<polygon fill="#e0e0e0" stroke="#999999" points="53,-19 0,-19 0,0 53,0 53,-19"/>
<text text-anchor="middle" x="26.5" y="-7" font-family="Helvetica,sans-Serif" font-size="10.00">cstdarg</text>
</a>
</g>
</g>
<!-- Node1&#45;&gt;Node3 -->
<g id="edge7_Node000001_Node000003" class="edge">
<title>Node1&#45;&gt;Node3</title>
<g id="a_edge7_Node000001_Node000003"><a xlink:title=" ">
<path fill="none" stroke="#63b8ff" d="M167.93,-144.05C143.68,-137.47 111.6,-125.91 88.5,-107 62.28,-85.54 43.52,-49.97 33.89,-28.54"/>
<polygon fill="#63b8ff" stroke="#63b8ff" points="37.07,-27.07 29.91,-19.27 30.64,-29.84 37.07,-27.07"/>
</a>
</g>
</g>
<!-- Node4 -->
<g id="Node000004" class="node">
<title>Node4</title>
<g id="a_Node000004"><a xlink:title=" ">
<polygon fill="#e0e0e0" stroke="#999999" points="121.5,-19 71.5,-19 71.5,0 121.5,0 121.5,-19"/>
<text text-anchor="middle" x="96.5" y="-7" font-family="Helvetica,sans-Serif" font-size="10.00">cstring</text>
</a>
</g>
</g>
<!-- Node1&#45;&gt;Node4 -->
<g id="edge8_Node000001_Node000004" class="edge">
<title>Node1&#45;&gt;Node4</title>
<g id="a_edge8_Node000001_Node000004"><a xlink:title=" ">
<path fill="none" stroke="#63b8ff" d="M167.57,-144.18C146.73,-137.91 121.64,-126.67 107.5,-107 91.14,-84.24 91.39,-50.35 93.57,-29.38"/>
<polygon fill="#63b8ff" stroke="#63b8ff" points="97.08,-29.58 94.89,-19.22 90.14,-28.68 97.08,-29.58"/>
</a>
</g>
</g>
<!-- Node7 -->
<g id="Node000007" class="node">
<title>Node7</title>
<g id="a_Node000007"><a xlink:title=" ">
<polygon fill="#e0e0e0" stroke="#999999" points="328,-107 193,-107 193,-55 328,-55 328,-107"/>
<text text-anchor="start" x="201" y="-95" font-family="Helvetica,sans-Serif" font-size="10.00">../../hf&#45;core&#45;drivers</text>
<text text-anchor="start" x="201" y="-84" font-family="Helvetica,sans-Serif" font-size="10.00">/internal/hf&#45;internal</text>
<text text-anchor="start" x="201" y="-73" font-family="Helvetica,sans-Serif" font-size="10.00">&#45;interface&#45;wrap/inc/base</text>
<text text-anchor="middle" x="260.5" y="-62" font-family="Helvetica,sans-Serif" font-size="10.00">/BaseLogger.h</text>
</a>
</g>
</g>
<!-- Node1&#45;&gt;Node7 -->
<g id="edge6_Node000001_Node000007" class="edge">
<title>Node1&#45;&gt;Node7</title>
<g id="a_edge6_Node000001_Node000007"><a xlink:title=" ">
<path fill="none" stroke="#63b8ff" d="M209.61,-142.98C215.54,-135.87 224.39,-125.27 233.05,-114.89"/>
<polygon fill="#63b8ff" stroke="#63b8ff" points="235.87,-116.97 239.59,-107.05 230.5,-112.49 235.87,-116.97"/>
</a>
</g>
</g>
<!-- Node8 -->
<g id="Node000008" class="node">
<title>Node8</title>
<g id="a_Node000008"><a xlink:title=" ">
<polygon fill="#e0e0e0" stroke="#999999" points="410.5,-90.5 346.5,-90.5 346.5,-71.5 410.5,-71.5 410.5,-90.5"/>
<text text-anchor="middle" x="378.5" y="-78.5" font-family="Helvetica,sans-Serif" font-size="10.00">algorithm</text>
</a>
</g>
</g>
<!-- Node1&#45;&gt;Node8 -->
<g id="edge9_Node000001_Node000008" class="edge">
<title>Node1&#45;&gt;Node8</title>
<g id="a_edge9_Node000001_Node000008"><a xlink:title=" ">
<path fill="none" stroke="#63b8ff" d="M235.21,-143C263.06,-135.22 303.79,-122.58 337.5,-107 344.21,-103.9 351.19,-99.94 357.45,-96.1"/>
<polygon fill="#63b8ff" stroke="#63b8ff" points="359.44,-98.99 365.99,-90.66 355.68,-93.08 359.44,-98.99"/>
</a>
</g>
</g>
<!-- Node9 -->
<g id="Node000009" class="node">
<title>Node9</title>
<g id="a_Node000009"><a xlink:title=" ">
<polygon fill="#e0e0e0" stroke="#999999" points="474.5,-90.5 428.5,-90.5 428.5,-71.5 474.5,-71.5 474.5,-90.5"/>
<text text-anchor="middle" x="451.5" y="-78.5" font-family="Helvetica,sans-Serif" font-size="10.00">cstdio</text>
</a>
</g>
</g>
<!-- Node1&#45;&gt;Node9 -->
<g id="edge10_Node000001_Node000009" class="edge">
<title>Node1&#45;&gt;Node9</title>
<g id="a_edge10_Node000001_Node000009"><a xlink:title=" ">
<path fill="none" stroke="#63b8ff" d="M237.09,-149.3C281.24,-145.41 359.1,-134.9 419.5,-107 424.94,-104.49 430.3,-100.89 435.02,-97.2"/>
<polygon fill="#63b8ff" stroke="#63b8ff" points="437.36,-99.81 442.74,-90.68 432.84,-94.46 437.36,-99.81"/>
</a>
</g>
</g>
<!-- Node2&#45;&gt;Node3 -->
<g id="edge2_Node000002_Node000003" class="edge">
<title>Node2&#45;&gt;Node3</title>
<g id="a_edge2_Node000002_Node000003"><a xlink:title=" ">
<path fill="none" stroke="#63b8ff" d="M130.91,-71.48C110.75,-59.7 74.13,-38.32 50.07,-24.26"/>
<polygon fill="#63b8ff" stroke="#63b8ff" points="51.61,-21.11 41.21,-19.09 48.08,-27.16 51.61,-21.11"/>
</a>
</g>
</g>
<!-- Node2&#45;&gt;Node4 -->
<g id="edge3_Node000002_Node000004" class="edge">
<title>Node2&#45;&gt;Node4</title>
<g id="a_edge3_Node000002_Node000004"><a xlink:title=" ">
<path fill="none" stroke="#63b8ff" d="M139.49,-71.48C131.78,-60.54 118.21,-41.3 108.38,-27.35"/>
<polygon fill="#63b8ff" stroke="#63b8ff" points="111.18,-25.25 102.56,-19.09 105.46,-29.28 111.18,-25.25"/>
</a>
</g>
</g>
<!-- Node5 -->
<g id="Node000005" class="node">
<title>Node5</title>
<g id="a_Node000005"><a xlink:title=" ">
<polygon fill="#e0e0e0" stroke="#999999" points="197.5,-19 139.5,-19 139.5,0 197.5,0 197.5,-19"/>
<text text-anchor="middle" x="168.5" y="-7" font-family="Helvetica,sans-Serif" font-size="10.00">memory</text>
</a>
</g>
</g>
<!-- Node2&#45;&gt;Node5 -->
<g id="edge4_Node000002_Node000005" class="edge">
<title>Node2&#45;&gt;Node5</title>
<g id="a_edge4_Node000002_Node000005"><a xlink:title=" ">
<path fill="none" stroke="#63b8ff" d="M148.32,-71.48C151.8,-60.95 157.83,-42.75 162.39,-28.97"/>
<polygon fill="#63b8ff" stroke="#63b8ff" points="165.84,-29.69 165.66,-19.09 159.19,-27.49 165.84,-29.69"/>
</a>
</g>
</g>
<!-- Node6 -->
<g id="Node000006" class="node">
<title>Node6</title>
<g id="a_Node000006"><a xlink:title=" ">
<polygon fill="#e0e0e0" stroke="#999999" points="265.5,-19 215.5,-19 215.5,0 265.5,0 265.5,-19"/>
<text text-anchor="middle" x="240.5" y="-7" font-family="Helvetica,sans-Serif" font-size="10.00">atomic</text>
</a>
</g>
</g>
<!-- Node2&#45;&gt;Node6 -->
<g id="edge5_Node000002_Node000006" class="edge">
<title>Node2&#45;&gt;Node6</title>
<g id="a_edge5_Node000002_Node000006"><a xlink:title=" ">
<path fill="none" stroke="#63b8ff" d="M157.15,-71.48C172.96,-59.91 201.44,-39.07 220.66,-25.02"/>
<polygon fill="#63b8ff" stroke="#63b8ff" points="222.75,-27.82 228.76,-19.09 218.62,-22.17 222.75,-27.82"/>
</a>
</g>
</g>
</g>
</svg>
