<?xml version="1.0" encoding="UTF-8" standalone="no"?>
<!DOCTYPE svg PUBLIC "-//W3C//DTD SVG 1.1//EN"
 "http://www.w3.org/Graphics/SVG/1.1/DTD/svg11.dtd">
<!-- Generated by graphviz version 2.43.0 (0)
 -->
<!-- Title: Logger.h Pages: 1 -->
<svg width="1782pt" height="93pt"
 viewBox="0.00 0.00 1782.00 93.00" xmlns="http://www.w3.org/2000/svg" xmlns:xlink="http://www.w3.org/1999/xlink">
<g id="graph0" class="graph" transform="scale(1 1) rotate(0) translate(4 89)">
<title>Logger.h</title>
<!-- Node1 -->
<g id="Node000001" class="node">
<title>Node1</title>
<g id="a_Node000001"><a xlink:title="Advanced logging system with formatting capabilities.">
<polygon fill="#999999" stroke="#666666" points="890,-85 832,-85 832,-66 890,-66 890,-85"/>
<text text-anchor="middle" x="861" y="-73" font-family="Helvetica,sans-Serif" font-size="10.00">Logger.h</text>
</a>
</g>
</g>
<!-- Node2 -->
<g id="Node000002" class="node">
<title>Node2</title>
<g id="a_Node000002"><a xlink:href="As5047uHandler_8cpp.html" target="_top" xlink:title="Implementation of unified AS5047U magnetic rotary position sensor handler.">
<polygon fill="white" stroke="#666666" points="116,-24.5 0,-24.5 0,-5.5 116,-5.5 116,-24.5"/>
<text text-anchor="middle" x="58" y="-12.5" font-family="Helvetica,sans-Serif" font-size="10.00">As5047uHandler.cpp</text>
</a>
</g>
</g>
<!-- Node1&#45;&gt;Node2 -->
<g id="edge1_Node000001_Node000002" class="edge">
<title>Node1&#45;&gt;Node2</title>
<g id="a_edge1_Node000001_Node000002"><a xlink:title=" ">
<path fill="none" stroke="#63b8ff" d="M821.75,-74.13C711.45,-72.67 389.57,-65.45 125,-30 114.87,-28.64 103.99,-26.62 94,-24.53"/>
<polygon fill="#63b8ff" stroke="#63b8ff" points="821.71,-77.63 831.75,-74.26 821.79,-70.63 821.71,-77.63"/>
</a>
</g>
</g>
<!-- Node3 -->
<g id="Node000003" class="node">
<title>Node3</title>
<g id="a_Node000003"><a xlink:href="Bno08xHandler_8cpp.html" target="_top" xlink:title="Implementation of unified BNO08x IMU sensor handler.">
<polygon fill="white" stroke="#666666" points="245.5,-24.5 134.5,-24.5 134.5,-5.5 245.5,-5.5 245.5,-24.5"/>
<text text-anchor="middle" x="190" y="-12.5" font-family="Helvetica,sans-Serif" font-size="10.00">Bno08xHandler.cpp</text>
</a>
</g>
</g>
<!-- Node1&#45;&gt;Node3 -->
<g id="edge2_Node000001_Node000003" class="edge">
<title>Node1&#45;&gt;Node3</title>
<g id="a_edge2_Node000001_Node000003"><a xlink:title=" ">
<path fill="none" stroke="#63b8ff" d="M821.56,-73.55C724.53,-70.79 466.66,-60.9 254,-30 244.43,-28.61 234.16,-26.6 224.71,-24.53"/>
<polygon fill="#63b8ff" stroke="#63b8ff" points="821.69,-77.05 831.78,-73.83 821.88,-70.06 821.69,-77.05"/>
</a>
</g>
</g>
<!-- Node4 -->
<g id="Node000004" class="node">
<title>Node4</title>
<g id="a_Node000004"><a xlink:href="Logger_8cpp.html" target="_top" xlink:title="Implementation of the advanced logging system.">
<polygon fill="white" stroke="#666666" points="332.5,-24.5 263.5,-24.5 263.5,-5.5 332.5,-5.5 332.5,-24.5"/>
<text text-anchor="middle" x="298" y="-12.5" font-family="Helvetica,sans-Serif" font-size="10.00">Logger.cpp</text>
</a>
</g>
</g>
<!-- Node1&#45;&gt;Node4 -->
<g id="edge3_Node000001_Node000004" class="edge">
<title>Node1&#45;&gt;Node4</title>
<g id="a_edge3_Node000001_Node000004"><a xlink:title=" ">
<path fill="none" stroke="#63b8ff" d="M821.68,-74.2C734.33,-72.86 517.88,-65.87 341,-30 334.38,-28.66 327.36,-26.64 320.95,-24.55"/>
<polygon fill="#63b8ff" stroke="#63b8ff" points="821.87,-77.7 831.92,-74.34 821.97,-70.7 821.87,-77.7"/>
</a>
</g>
</g>
<!-- Node5 -->
<g id="Node000005" class="node">
<title>Node5</title>
<g id="a_Node000005"><a xlink:href="Max22200Handler_8cpp.html" target="_top" xlink:title="Implementation of MAX22200 handler with SPI communication adapter.">
<polygon fill="white" stroke="#666666" points="475.5,-24.5 350.5,-24.5 350.5,-5.5 475.5,-5.5 475.5,-24.5"/>
<text text-anchor="middle" x="413" y="-12.5" font-family="Helvetica,sans-Serif" font-size="10.00">Max22200Handler.cpp</text>
</a>
</g>
</g>
<!-- Node1&#45;&gt;Node5 -->
<g id="edge4_Node000001_Node000005" class="edge">
<title>Node1&#45;&gt;Node5</title>
<g id="a_edge4_Node000001_Node000005"><a xlink:title=" ">
<path fill="none" stroke="#63b8ff" d="M821.29,-70.78C752.56,-64.12 607.06,-49.06 485,-30 474.93,-28.43 464.13,-26.47 454.03,-24.52"/>
<polygon fill="#63b8ff" stroke="#63b8ff" points="821.36,-74.3 831.65,-71.78 822.03,-67.33 821.36,-74.3"/>
</a>
</g>
</g>
<!-- Node6 -->
<g id="Node000006" class="node">
<title>Node6</title>
<g id="a_Node000006"><a xlink:href="NtcTemperatureHandler_8cpp.html" target="_top" xlink:title="Implementation of NTC temperature sensor handler for HardFOC system.">
<polygon fill="white" stroke="#666666" points="646,-24.5 494,-24.5 494,-5.5 646,-5.5 646,-24.5"/>
<text text-anchor="middle" x="570" y="-12.5" font-family="Helvetica,sans-Serif" font-size="10.00">NtcTemperatureHandler.cpp</text>
</a>
</g>
</g>
<!-- Node1&#45;&gt;Node6 -->
<g id="edge5_Node000001_Node000006" class="edge">
<title>Node1&#45;&gt;Node6</title>
<g id="a_edge5_Node000001_Node000006"><a xlink:title=" ">
<path fill="none" stroke="#63b8ff" d="M821.77,-66.61C767.14,-55.63 668.52,-35.81 612.29,-24.5"/>
<polygon fill="#63b8ff" stroke="#63b8ff" points="821.27,-70.08 831.77,-68.62 822.65,-63.22 821.27,-70.08"/>
</a>
</g>
</g>
<!-- Node7 -->
<g id="Node000007" class="node">
<title>Node7</title>
<g id="a_Node000007"><a xlink:href="Pca9685Handler_8cpp.html" target="_top" xlink:title="Implementation of the PCA9685 PWM controller handler.">
<polygon fill="white" stroke="#666666" points="780,-24.5 664,-24.5 664,-5.5 780,-5.5 780,-24.5"/>
<text text-anchor="middle" x="722" y="-12.5" font-family="Helvetica,sans-Serif" font-size="10.00">Pca9685Handler.cpp</text>
</a>
</g>
</g>
<!-- Node1&#45;&gt;Node7 -->
<g id="edge6_Node000001_Node000007" class="edge">
<title>Node1&#45;&gt;Node7</title>
<g id="a_edge6_Node000001_Node000007"><a xlink:title=" ">
<path fill="none" stroke="#63b8ff" d="M831.49,-62.08C804.64,-50.78 765.72,-34.4 742.24,-24.52"/>
<polygon fill="#63b8ff" stroke="#63b8ff" points="830.21,-65.34 840.79,-65.99 832.93,-58.89 830.21,-65.34"/>
</a>
</g>
</g>
<!-- Node8 -->
<g id="Node000008" class="node">
<title>Node8</title>
<g id="a_Node000008"><a xlink:href="Pcal95555Handler_8cpp.html" target="_top" xlink:title="Implementation of the PCAL95555 GPIO expander handler.">
<polygon fill="white" stroke="#666666" points="923.5,-24.5 798.5,-24.5 798.5,-5.5 923.5,-5.5 923.5,-24.5"/>
<text text-anchor="middle" x="861" y="-12.5" font-family="Helvetica,sans-Serif" font-size="10.00">Pcal95555Handler.cpp</text>
</a>
</g>
</g>
<!-- Node1&#45;&gt;Node8 -->
<g id="edge7_Node000001_Node000008" class="edge">
<title>Node1&#45;&gt;Node8</title>
<g id="a_edge7_Node000001_Node000008"><a xlink:title=" ">
<path fill="none" stroke="#63b8ff" d="M861,-55.66C861,-45.24 861,-32.8 861,-24.67"/>
<polygon fill="#63b8ff" stroke="#63b8ff" points="857.5,-55.87 861,-65.87 864.5,-55.87 857.5,-55.87"/>
</a>
</g>
</g>
<!-- Node9 -->
<g id="Node000009" class="node">
<title>Node9</title>
<g id="a_Node000009"><a xlink:href="Tle92466edHandler_8cpp.html" target="_top" xlink:title="Implementation of TLE92466ED handler with SPI communication adapter.">
<polygon fill="white" stroke="#666666" points="1072.5,-24.5 941.5,-24.5 941.5,-5.5 1072.5,-5.5 1072.5,-24.5"/>
<text text-anchor="middle" x="1007" y="-12.5" font-family="Helvetica,sans-Serif" font-size="10.00">Tle92466edHandler.cpp</text>
</a>
</g>
</g>
<!-- Node1&#45;&gt;Node9 -->
<g id="edge8_Node000001_Node000009" class="edge">
<title>Node1&#45;&gt;Node9</title>
<g id="a_edge8_Node000001_Node000009"><a xlink:title=" ">
<path fill="none" stroke="#63b8ff" d="M891.62,-62.23C919.84,-50.92 960.97,-34.44 985.74,-24.52"/>
<polygon fill="#63b8ff" stroke="#63b8ff" points="890.21,-59.03 882.23,-65.99 892.81,-65.52 890.21,-59.03"/>
</a>
</g>
</g>
<!-- Node10 -->
<g id="Node000010" class="node">
<title>Node10</title>
<g id="a_Node000010"><a xlink:href="Tmc5160Handler_8cpp.html" target="_top" xlink:title="Implementation of TMC5160 handler with SPI/UART communication adapters.">
<polygon fill="white" stroke="#666666" points="1209.5,-24.5 1090.5,-24.5 1090.5,-5.5 1209.5,-5.5 1209.5,-24.5"/>
<text text-anchor="middle" x="1150" y="-12.5" font-family="Helvetica,sans-Serif" font-size="10.00">Tmc5160Handler.cpp</text>
</a>
</g>
</g>
<!-- Node1&#45;&gt;Node10 -->
<g id="edge9_Node000001_Node000010" class="edge">
<title>Node1&#45;&gt;Node10</title>
<g id="a_edge9_Node000001_Node000010"><a xlink:title=" ">
<path fill="none" stroke="#63b8ff" d="M900.36,-66.63C944.57,-57.77 1018.45,-42.94 1082,-30 1090.62,-28.24 1099.86,-26.35 1108.65,-24.54"/>
<polygon fill="#63b8ff" stroke="#63b8ff" points="899.44,-63.24 890.32,-68.64 900.81,-70.11 899.44,-63.24"/>
</a>
</g>
</g>
<!-- Node11 -->
<g id="Node000011" class="node">
<title>Node11</title>
<g id="a_Node000011"><a xlink:href="Tmc9660Handler_8cpp.html" target="_top" xlink:title=" ">
<polygon fill="white" stroke="#666666" points="1346.5,-24.5 1227.5,-24.5 1227.5,-5.5 1346.5,-5.5 1346.5,-24.5"/>
<text text-anchor="middle" x="1287" y="-12.5" font-family="Helvetica,sans-Serif" font-size="10.00">Tmc9660Handler.cpp</text>
</a>
</g>
</g>
<!-- Node1&#45;&gt;Node11 -->
<g id="edge10_Node000001_Node000011" class="edge">
<title>Node1&#45;&gt;Node11</title>
<g id="a_edge10_Node000001_Node000011"><a xlink:title=" ">
<path fill="none" stroke="#63b8ff" d="M900.32,-70.64C966.39,-63.94 1103.73,-49 1219,-30 1228.51,-28.43 1238.72,-26.48 1248.26,-24.53"/>
<polygon fill="#63b8ff" stroke="#63b8ff" points="899.95,-67.16 890.35,-71.65 900.65,-74.13 899.95,-67.16"/>
</a>
</g>
</g>
<!-- Node12 -->
<g id="Node000012" class="node">
<title>Node12</title>
<g id="a_Node000012"><a xlink:href="Ws2812Handler_8cpp.html" target="_top" xlink:title="Implementation of WS2812 LED strip handler.">
<polygon fill="white" stroke="#666666" points="1477.5,-24.5 1364.5,-24.5 1364.5,-5.5 1477.5,-5.5 1477.5,-24.5"/>
<text text-anchor="middle" x="1421" y="-12.5" font-family="Helvetica,sans-Serif" font-size="10.00">Ws2812Handler.cpp</text>
</a>
</g>
</g>
<!-- Node1&#45;&gt;Node12 -->
<g id="edge11_Node000001_Node000012" class="edge">
<title>Node1&#45;&gt;Node12</title>
<g id="a_edge11_Node000001_Node000012"><a xlink:title=" ">
<path fill="none" stroke="#63b8ff" d="M900.27,-72.61C984.28,-68.2 1187.48,-55.62 1356,-30 1365.47,-28.56 1375.63,-26.58 1385.04,-24.57"/>
<polygon fill="#63b8ff" stroke="#63b8ff" points="899.97,-69.12 890.16,-73.13 900.33,-76.11 899.97,-69.12"/>
</a>
</g>
</g>
<!-- Node13 -->
<g id="Node000013" class="node">
<title>Node13</title>
<g id="a_Node000013"><a xlink:href="full__system__integration__test_8cpp.html" target="_top" xlink:title="Full system integration test for hf&#45;core.">
<polygon fill="white" stroke="#666666" points="1628,-30 1496,-30 1496,0 1628,0 1628,-30"/>
<text text-anchor="start" x="1504" y="-18" font-family="Helvetica,sans-Serif" font-size="10.00">full_system_integration</text>
<text text-anchor="middle" x="1562" y="-7" font-family="Helvetica,sans-Serif" font-size="10.00">_test.cpp</text>
</a>
</g>
</g>
<!-- Node1&#45;&gt;Node13 -->
<g id="edge12_Node000001_Node000013" class="edge">
<title>Node1&#45;&gt;Node13</title>
<g id="a_edge12_Node000001_Node000013"><a xlink:title=" ">
<path fill="none" stroke="#63b8ff" d="M900.26,-73.26C999.12,-69.8 1266.21,-58.36 1487,-30 1489.89,-29.63 1492.84,-29.22 1495.81,-28.78"/>
<polygon fill="#63b8ff" stroke="#63b8ff" points="900.01,-69.77 890.13,-73.61 900.25,-76.76 900.01,-69.77"/>
</a>
</g>
</g>
<!-- Node14 -->
<g id="Node000014" class="node">
<title>Node14</title>
<g id="a_Node000014"><a xlink:href="logger__comprehensive__test_8cpp.html" target="_top" xlink:title="Comprehensive test suite for Logger singleton.">
<polygon fill="white" stroke="#666666" points="1774,-30 1646,-30 1646,0 1774,0 1774,-30"/>
<text text-anchor="start" x="1654" y="-18" font-family="Helvetica,sans-Serif" font-size="10.00">logger_comprehensive</text>
<text text-anchor="middle" x="1710" y="-7" font-family="Helvetica,sans-Serif" font-size="10.00">_test.cpp</text>
</a>
</g>
</g>
<!-- Node1&#45;&gt;Node14 -->
<g id="edge13_Node000001_Node000014" class="edge">
<title>Node1&#45;&gt;Node14</title>
<g id="a_edge13_Node000001_Node000014"><a xlink:title=" ">
<path fill="none" stroke="#63b8ff" d="M900.35,-74.08C1014.62,-72.46 1356.13,-64.83 1637,-30 1639.95,-29.63 1642.95,-29.22 1645.98,-28.77"/>
<polygon fill="#63b8ff" stroke="#63b8ff" points="899.97,-70.58 890.02,-74.22 900.06,-77.58 899.97,-70.58"/>
</a>
</g>
</g>
</g>
</svg>
