<?xml version="1.0" encoding="UTF-8" standalone="no"?>
<!DOCTYPE svg PUBLIC "-//W3C//DTD SVG 1.1//EN"
 "http://www.w3.org/Graphics/SVG/1.1/DTD/svg11.dtd">
<!-- Generated by graphviz version 2.43.0 (0)
 -->
<!-- Title: Max22200Handler.h Pages: 1 -->
<svg width="1054pt" height="115pt"
 viewBox="0.00 0.00 1054.00 115.00" xmlns="http://www.w3.org/2000/svg" xmlns:xlink="http://www.w3.org/1999/xlink">
<g id="graph0" class="graph" transform="scale(1 1) rotate(0) translate(4 111)">
<title>Max22200Handler.h</title>
<!-- Node1 -->
<g id="Node000001" class="node">
<title>Node1</title>
<g id="a_Node000001"><a xlink:title="Unified handler for MAX22200 octal solenoid and motor driver.">
<polygon fill="#999999" stroke="#666666" points="519,-107 405,-107 405,-88 519,-88 519,-107"/>
<text text-anchor="middle" x="462" y="-95" font-family="Helvetica,sans-Serif" font-size="10.00">Max22200Handler.h</text>
</a>
</g>
</g>
<!-- Node2 -->
<g id="Node000002" class="node">
<title>Node2</title>
<g id="a_Node000002"><a xlink:title=" ">
<polygon fill="#e0e0e0" stroke="#999999" points="50,-35.5 0,-35.5 0,-16.5 50,-16.5 50,-35.5"/>
<text text-anchor="middle" x="25" y="-23.5" font-family="Helvetica,sans-Serif" font-size="10.00">cstdint</text>
</a>
</g>
</g>
<!-- Node1&#45;&gt;Node2 -->
<g id="edge1_Node000001_Node000002" class="edge">
<title>Node1&#45;&gt;Node2</title>
<g id="a_edge1_Node000001_Node000002"><a xlink:title=" ">
<path fill="none" stroke="#63b8ff" d="M404.85,-93.84C309.09,-88.78 120.64,-76.05 59,-52 52.97,-49.65 47.04,-45.94 41.88,-42.09"/>
<polygon fill="#63b8ff" stroke="#63b8ff" points="43.98,-39.28 34.01,-35.7 39.56,-44.72 43.98,-39.28"/>
</a>
</g>
</g>
<!-- Node3 -->
<g id="Node000003" class="node">
<title>Node3</title>
<g id="a_Node000003"><a xlink:title=" ">
<polygon fill="#e0e0e0" stroke="#999999" points="126,-35.5 68,-35.5 68,-16.5 126,-16.5 126,-35.5"/>
<text text-anchor="middle" x="97" y="-23.5" font-family="Helvetica,sans-Serif" font-size="10.00">memory</text>
</a>
</g>
</g>
<!-- Node1&#45;&gt;Node3 -->
<g id="edge2_Node000001_Node000003" class="edge">
<title>Node1&#45;&gt;Node3</title>
<g id="a_edge2_Node000001_Node000003"><a xlink:title=" ">
<path fill="none" stroke="#63b8ff" d="M404.89,-96.32C338.13,-94.41 225.27,-85.83 135,-52 128.3,-49.49 121.59,-45.63 115.71,-41.68"/>
<polygon fill="#63b8ff" stroke="#63b8ff" points="117.43,-38.61 107.27,-35.6 113.34,-44.29 117.43,-38.61"/>
</a>
</g>
</g>
<!-- Node4 -->
<g id="Node000004" class="node">
<title>Node4</title>
<g id="a_Node000004"><a xlink:title=" ">
<polygon fill="#e0e0e0" stroke="#999999" points="213.5,-35.5 144.5,-35.5 144.5,-16.5 213.5,-16.5 213.5,-35.5"/>
<text text-anchor="middle" x="179" y="-23.5" font-family="Helvetica,sans-Serif" font-size="10.00">type_traits</text>
</a>
</g>
</g>
<!-- Node1&#45;&gt;Node4 -->
<g id="edge3_Node000001_Node000004" class="edge">
<title>Node1&#45;&gt;Node4</title>
<g id="a_edge3_Node000001_Node000004"><a xlink:title=" ">
<path fill="none" stroke="#63b8ff" d="M404.57,-91.22C355.25,-85.43 282.86,-73.88 223,-52 215.28,-49.18 207.34,-45.09 200.35,-41.02"/>
<polygon fill="#63b8ff" stroke="#63b8ff" points="201.9,-37.86 191.54,-35.63 198.24,-43.83 201.9,-37.86"/>
</a>
</g>
</g>
<!-- Node5 -->
<g id="Node000005" class="node">
<title>Node5</title>
<g id="a_Node000005"><a xlink:title=" ">
<polygon fill="#e0e0e0" stroke="#999999" points="374,-46.5 232,-46.5 232,-5.5 374,-5.5 374,-46.5"/>
<text text-anchor="start" x="240" y="-34.5" font-family="Helvetica,sans-Serif" font-size="10.00">core/hf&#45;core&#45;drivers</text>
<text text-anchor="start" x="240" y="-23.5" font-family="Helvetica,sans-Serif" font-size="10.00">/external/hf&#45;max22200</text>
<text text-anchor="middle" x="303" y="-12.5" font-family="Helvetica,sans-Serif" font-size="10.00">&#45;driver/inc/max22200.hpp</text>
</a>
</g>
</g>
<!-- Node1&#45;&gt;Node5 -->
<g id="edge4_Node000001_Node000005" class="edge">
<title>Node1&#45;&gt;Node5</title>
<g id="a_edge4_Node000001_Node000005"><a xlink:title=" ">
<path fill="none" stroke="#63b8ff" d="M442.5,-87.98C421.33,-78.72 386.57,-63.53 357.05,-50.63"/>
<polygon fill="#63b8ff" stroke="#63b8ff" points="358.24,-47.33 347.67,-46.53 355.43,-53.74 358.24,-47.33"/>
</a>
</g>
</g>
<!-- Node6 -->
<g id="Node000006" class="node">
<title>Node6</title>
<g id="a_Node000006"><a xlink:title=" ">
<polygon fill="#e0e0e0" stroke="#999999" points="532,-52 392,-52 392,0 532,0 532,-52"/>
<text text-anchor="start" x="400" y="-40" font-family="Helvetica,sans-Serif" font-size="10.00">core/hf&#45;core&#45;drivers</text>
<text text-anchor="start" x="400" y="-29" font-family="Helvetica,sans-Serif" font-size="10.00">/external/hf&#45;max22200</text>
<text text-anchor="start" x="400" y="-18" font-family="Helvetica,sans-Serif" font-size="10.00">&#45;driver/inc/max22200_spi</text>
<text text-anchor="middle" x="462" y="-7" font-family="Helvetica,sans-Serif" font-size="10.00">_interface.hpp</text>
</a>
</g>
</g>
<!-- Node1&#45;&gt;Node6 -->
<g id="edge5_Node000001_Node000006" class="edge">
<title>Node1&#45;&gt;Node6</title>
<g id="a_edge5_Node000001_Node000006"><a xlink:title=" ">
<path fill="none" stroke="#63b8ff" d="M462,-87.98C462,-81.43 462,-71.91 462,-62.33"/>
<polygon fill="#63b8ff" stroke="#63b8ff" points="465.5,-62.05 462,-52.05 458.5,-62.05 465.5,-62.05"/>
</a>
</g>
</g>
<!-- Node7 -->
<g id="Node000007" class="node">
<title>Node7</title>
<g id="a_Node000007"><a xlink:title=" ">
<polygon fill="#e0e0e0" stroke="#999999" points="724,-46.5 550,-46.5 550,-5.5 724,-5.5 724,-46.5"/>
<text text-anchor="start" x="558" y="-34.5" font-family="Helvetica,sans-Serif" font-size="10.00">core/hf&#45;core&#45;drivers</text>
<text text-anchor="start" x="558" y="-23.5" font-family="Helvetica,sans-Serif" font-size="10.00">/external/hf&#45;max22200</text>
<text text-anchor="middle" x="637" y="-12.5" font-family="Helvetica,sans-Serif" font-size="10.00">&#45;driver/inc/max22200_types.hpp</text>
</a>
</g>
</g>
<!-- Node1&#45;&gt;Node7 -->
<g id="edge6_Node000001_Node000007" class="edge">
<title>Node1&#45;&gt;Node7</title>
<g id="a_edge6_Node000001_Node000007"><a xlink:title=" ">
<path fill="none" stroke="#63b8ff" d="M483.46,-87.98C506.97,-78.64 545.68,-63.27 578.35,-50.29"/>
<polygon fill="#63b8ff" stroke="#63b8ff" points="579.83,-53.47 587.83,-46.53 577.24,-46.97 579.83,-53.47"/>
</a>
</g>
</g>
<!-- Node8 -->
<g id="Node000008" class="node">
<title>Node8</title>
<g id="a_Node000008"><a xlink:title=" ">
<polygon fill="#e0e0e0" stroke="#999999" points="833.5,-35.5 742.5,-35.5 742.5,-16.5 833.5,-16.5 833.5,-35.5"/>
<text text-anchor="middle" x="788" y="-23.5" font-family="Helvetica,sans-Serif" font-size="10.00">base/BaseSpi.h</text>
</a>
</g>
</g>
<!-- Node1&#45;&gt;Node8 -->
<g id="edge7_Node000001_Node000008" class="edge">
<title>Node1&#45;&gt;Node8</title>
<g id="a_edge7_Node000001_Node000008"><a xlink:title=" ">
<path fill="none" stroke="#63b8ff" d="M519.04,-91.55C574.58,-85.7 660.92,-73.88 733,-52 743.13,-48.93 753.82,-44.39 763.06,-40.02"/>
<polygon fill="#63b8ff" stroke="#63b8ff" points="764.64,-43.15 772.07,-35.6 761.55,-36.86 764.64,-43.15"/>
</a>
</g>
</g>
<!-- Node9 -->
<g id="Node000009" class="node">
<title>Node9</title>
<g id="a_Node000009"><a xlink:title=" ">
<polygon fill="#e0e0e0" stroke="#999999" points="950,-35.5 852,-35.5 852,-16.5 950,-16.5 950,-35.5"/>
<text text-anchor="middle" x="901" y="-23.5" font-family="Helvetica,sans-Serif" font-size="10.00">base/BaseGpio.h</text>
</a>
</g>
</g>
<!-- Node1&#45;&gt;Node9 -->
<g id="edge8_Node000001_Node000009" class="edge">
<title>Node1&#45;&gt;Node9</title>
<g id="a_edge8_Node000001_Node000009"><a xlink:title=" ">
<path fill="none" stroke="#63b8ff" d="M519.13,-94.98C594.5,-91.81 730.75,-82.06 843,-52 853.96,-49.06 865.54,-44.42 875.45,-39.92"/>
<polygon fill="#63b8ff" stroke="#63b8ff" points="877.16,-42.98 884.71,-35.54 874.17,-36.65 877.16,-42.98"/>
</a>
</g>
</g>
<!-- Node10 -->
<g id="Node000010" class="node">
<title>Node10</title>
<g id="a_Node000010"><a xlink:title=" ">
<polygon fill="#e0e0e0" stroke="#999999" points="1046,-35.5 968,-35.5 968,-16.5 1046,-16.5 1046,-35.5"/>
<text text-anchor="middle" x="1007" y="-23.5" font-family="Helvetica,sans-Serif" font-size="10.00">RtosMutex.h</text>
</a>
</g>
</g>
<!-- Node1&#45;&gt;Node10 -->
<g id="edge9_Node000001_Node000010" class="edge">
<title>Node1&#45;&gt;Node10</title>
<g id="a_edge9_Node000001_Node000010"><a xlink:title=" ">
<path fill="none" stroke="#63b8ff" d="M519.4,-94.17C632,-89.13 877.94,-75.73 959,-52 967.85,-49.41 976.96,-45.13 984.84,-40.84"/>
<polygon fill="#63b8ff" stroke="#63b8ff" points="986.82,-43.74 993.74,-35.72 983.33,-37.68 986.82,-43.74"/>
</a>
</g>
</g>
</g>
</svg>
