<?xml version="1.0" encoding="UTF-8" standalone="no"?>
<!DOCTYPE svg PUBLIC "-//W3C//DTD SVG 1.1//EN"
 "http://www.w3.org/Graphics/SVG/1.1/DTD/svg11.dtd">
<!-- Generated by graphviz version 2.43.0 (0)
 -->
<!-- Title: Max22200Handler.h Pages: 1 -->
<svg width="1022pt" height="115pt"
 viewBox="0.00 0.00 1021.50 115.00" xmlns="http://www.w3.org/2000/svg" xmlns:xlink="http://www.w3.org/1999/xlink">
<g id="graph0" class="graph" transform="scale(1 1) rotate(0) translate(4 111)">
<title>Max22200Handler.h</title>
<!-- Node1 -->
<g id="Node000001" class="node">
<title>Node1</title>
<g id="a_Node000001"><a xlink:title="Unified handler for MAX22200 octal solenoid and motor driver.">
<polygon fill="#999999" stroke="#666666" points="518,-107 404,-107 404,-88 518,-88 518,-107"/>
<text text-anchor="middle" x="461" y="-95" font-family="Helvetica,sans-Serif" font-size="10.00">Max22200Handler.h</text>
</a>
</g>
</g>
<!-- Node2 -->
<g id="Node000002" class="node">
<title>Node2</title>
<g id="a_Node000002"><a xlink:title=" ">
<polygon fill="#e0e0e0" stroke="#999999" points="50,-35.5 0,-35.5 0,-16.5 50,-16.5 50,-35.5"/>
<text text-anchor="middle" x="25" y="-23.5" font-family="Helvetica,sans-Serif" font-size="10.00">cstdint</text>
</a>
</g>
</g>
<!-- Node1&#45;&gt;Node2 -->
<g id="edge1_Node000001_Node000002" class="edge">
<title>Node1&#45;&gt;Node2</title>
<g id="a_edge1_Node000001_Node000002"><a xlink:title=" ">
<path fill="none" stroke="#63b8ff" d="M403.99,-93.83C308.47,-88.75 120.49,-76 59,-52 52.97,-49.64 47.04,-45.93 41.88,-42.09"/>
<polygon fill="#63b8ff" stroke="#63b8ff" points="43.98,-39.28 34.01,-35.69 39.56,-44.72 43.98,-39.28"/>
</a>
</g>
</g>
<!-- Node3 -->
<g id="Node000003" class="node">
<title>Node3</title>
<g id="a_Node000003"><a xlink:title=" ">
<polygon fill="#e0e0e0" stroke="#999999" points="126,-35.5 68,-35.5 68,-16.5 126,-16.5 126,-35.5"/>
<text text-anchor="middle" x="97" y="-23.5" font-family="Helvetica,sans-Serif" font-size="10.00">memory</text>
</a>
</g>
</g>
<!-- Node1&#45;&gt;Node3 -->
<g id="edge2_Node000001_Node000003" class="edge">
<title>Node1&#45;&gt;Node3</title>
<g id="a_edge2_Node000001_Node000003"><a xlink:title=" ">
<path fill="none" stroke="#63b8ff" d="M403.77,-96.29C337.17,-94.33 224.85,-85.7 135,-52 128.3,-49.49 121.59,-45.63 115.71,-41.68"/>
<polygon fill="#63b8ff" stroke="#63b8ff" points="117.43,-38.61 107.27,-35.6 113.34,-44.29 117.43,-38.61"/>
</a>
</g>
</g>
<!-- Node4 -->
<g id="Node000004" class="node">
<title>Node4</title>
<g id="a_Node000004"><a xlink:title=" ">
<polygon fill="#e0e0e0" stroke="#999999" points="286,-46.5 144,-46.5 144,-5.5 286,-5.5 286,-46.5"/>
<text text-anchor="start" x="152" y="-34.5" font-family="Helvetica,sans-Serif" font-size="10.00">core/hf&#45;core&#45;drivers</text>
<text text-anchor="start" x="152" y="-23.5" font-family="Helvetica,sans-Serif" font-size="10.00">/external/hf&#45;max22200</text>
<text text-anchor="middle" x="215" y="-12.5" font-family="Helvetica,sans-Serif" font-size="10.00">&#45;driver/inc/max22200.hpp</text>
</a>
</g>
</g>
<!-- Node1&#45;&gt;Node4 -->
<g id="edge3_Node000001_Node000004" class="edge">
<title>Node1&#45;&gt;Node4</title>
<g id="a_edge3_Node000001_Node000004"><a xlink:title=" ">
<path fill="none" stroke="#63b8ff" d="M427.5,-87.95C393.9,-79.27 340.7,-65.26 295,-52 292.25,-51.2 289.45,-50.38 286.62,-49.54"/>
<polygon fill="#63b8ff" stroke="#63b8ff" points="287.53,-46.16 276.94,-46.63 285.51,-52.86 287.53,-46.16"/>
</a>
</g>
</g>
<!-- Node5 -->
<g id="Node000005" class="node">
<title>Node5</title>
<g id="a_Node000005"><a xlink:title=" ">
<polygon fill="#e0e0e0" stroke="#999999" points="444,-52 304,-52 304,0 444,0 444,-52"/>
<text text-anchor="start" x="312" y="-40" font-family="Helvetica,sans-Serif" font-size="10.00">core/hf&#45;core&#45;drivers</text>
<text text-anchor="start" x="312" y="-29" font-family="Helvetica,sans-Serif" font-size="10.00">/external/hf&#45;max22200</text>
<text text-anchor="start" x="312" y="-18" font-family="Helvetica,sans-Serif" font-size="10.00">&#45;driver/inc/max22200_spi</text>
<text text-anchor="middle" x="374" y="-7" font-family="Helvetica,sans-Serif" font-size="10.00">_interface.hpp</text>
</a>
</g>
</g>
<!-- Node1&#45;&gt;Node5 -->
<g id="edge4_Node000001_Node000005" class="edge">
<title>Node1&#45;&gt;Node5</title>
<g id="a_edge4_Node000001_Node000005"><a xlink:title=" ">
<path fill="none" stroke="#63b8ff" d="M450.33,-87.98C441,-80.52 426.85,-69.22 413.26,-58.36"/>
<polygon fill="#63b8ff" stroke="#63b8ff" points="415.36,-55.56 405.36,-52.05 410.99,-61.03 415.36,-55.56"/>
</a>
</g>
</g>
<!-- Node6 -->
<g id="Node000006" class="node">
<title>Node6</title>
<g id="a_Node000006"><a xlink:title=" ">
<polygon fill="#e0e0e0" stroke="#999999" points="636,-46.5 462,-46.5 462,-5.5 636,-5.5 636,-46.5"/>
<text text-anchor="start" x="470" y="-34.5" font-family="Helvetica,sans-Serif" font-size="10.00">core/hf&#45;core&#45;drivers</text>
<text text-anchor="start" x="470" y="-23.5" font-family="Helvetica,sans-Serif" font-size="10.00">/external/hf&#45;max22200</text>
<text text-anchor="middle" x="549" y="-12.5" font-family="Helvetica,sans-Serif" font-size="10.00">&#45;driver/inc/max22200_types.hpp</text>
</a>
</g>
</g>
<!-- Node1&#45;&gt;Node6 -->
<g id="edge5_Node000001_Node000006" class="edge">
<title>Node1&#45;&gt;Node6</title>
<g id="a_edge5_Node000001_Node000006"><a xlink:title=" ">
<path fill="none" stroke="#63b8ff" d="M471.79,-87.98C482.81,-79.27 500.48,-65.32 516.13,-52.96"/>
<polygon fill="#63b8ff" stroke="#63b8ff" points="518.41,-55.62 524.09,-46.67 514.07,-50.12 518.41,-55.62"/>
</a>
</g>
</g>
<!-- Node7 -->
<g id="Node000007" class="node">
<title>Node7</title>
<g id="a_Node000007"><a xlink:title=" ">
<polygon fill="#e0e0e0" stroke="#999999" points="745.5,-35.5 654.5,-35.5 654.5,-16.5 745.5,-16.5 745.5,-35.5"/>
<text text-anchor="middle" x="700" y="-23.5" font-family="Helvetica,sans-Serif" font-size="10.00">base/BaseSpi.h</text>
</a>
</g>
</g>
<!-- Node1&#45;&gt;Node7 -->
<g id="edge6_Node000001_Node000007" class="edge">
<title>Node1&#45;&gt;Node7</title>
<g id="a_edge6_Node000001_Node000007"><a xlink:title=" ">
<path fill="none" stroke="#63b8ff" d="M506.68,-87.96C544.33,-80.33 598.86,-67.91 645,-52 654.76,-48.64 665.14,-44.16 674.23,-39.93"/>
<polygon fill="#63b8ff" stroke="#63b8ff" points="675.98,-42.98 683.49,-35.5 672.95,-36.66 675.98,-42.98"/>
</a>
</g>
</g>
<!-- Node8 -->
<g id="Node000008" class="node">
<title>Node8</title>
<g id="a_Node000008"><a xlink:title=" ">
<polygon fill="#e0e0e0" stroke="#999999" points="862,-35.5 764,-35.5 764,-16.5 862,-16.5 862,-35.5"/>
<text text-anchor="middle" x="813" y="-23.5" font-family="Helvetica,sans-Serif" font-size="10.00">base/BaseGpio.h</text>
</a>
</g>
</g>
<!-- Node1&#45;&gt;Node8 -->
<g id="edge7_Node000001_Node000008" class="edge">
<title>Node1&#45;&gt;Node8</title>
<g id="a_edge7_Node000001_Node000008"><a xlink:title=" ">
<path fill="none" stroke="#63b8ff" d="M518.01,-92.23C577.92,-86.75 674.47,-75.03 755,-52 765.75,-48.92 777.14,-44.33 786.96,-39.92"/>
<polygon fill="#63b8ff" stroke="#63b8ff" points="788.58,-43.02 796.17,-35.63 785.62,-36.68 788.58,-43.02"/>
</a>
</g>
</g>
<!-- Node9 -->
<g id="Node000009" class="node">
<title>Node9</title>
<g id="a_Node000009"><a xlink:title=" ">
<polygon fill="#e0e0e0" stroke="#999999" points="1013.5,-52 880.5,-52 880.5,0 1013.5,0 1013.5,-52"/>
<text text-anchor="start" x="888.5" y="-40" font-family="Helvetica,sans-Serif" font-size="10.00">core/hf&#45;core&#45;drivers</text>
<text text-anchor="start" x="888.5" y="-29" font-family="Helvetica,sans-Serif" font-size="10.00">/internal/hf&#45;internal</text>
<text text-anchor="start" x="888.5" y="-18" font-family="Helvetica,sans-Serif" font-size="10.00">&#45;interface&#45;wrap/inc/utils</text>
<text text-anchor="middle" x="947" y="-7" font-family="Helvetica,sans-Serif" font-size="10.00">/RtosMutex.h</text>
</a>
</g>
</g>
<!-- Node1&#45;&gt;Node9 -->
<g id="edge8_Node000001_Node000009" class="edge">
<title>Node1&#45;&gt;Node9</title>
<g id="a_edge8_Node000001_Node000009"><a xlink:title=" ">
<path fill="none" stroke="#63b8ff" d="M518.31,-94.07C596.18,-89.94 739.73,-79.36 870.68,-51.85"/>
<polygon fill="#63b8ff" stroke="#63b8ff" points="871.44,-55.27 880.49,-49.75 869.98,-48.42 871.44,-55.27"/>
</a>
</g>
</g>
</g>
</svg>
