<?xml version="1.0" encoding="UTF-8" standalone="no"?>
<!DOCTYPE svg PUBLIC "-//W3C//DTD SVG 1.1//EN"
 "http://www.w3.org/Graphics/SVG/1.1/DTD/svg11.dtd">
<!-- Generated by graphviz version 2.43.0 (0)
 -->
<!-- Title: Mcp9700TemperatureHandler.h Pages: 1 -->
<svg width="746pt" height="115pt"
 viewBox="0.00 0.00 745.50 115.00" xmlns="http://www.w3.org/2000/svg" xmlns:xlink="http://www.w3.org/1999/xlink">
<g id="graph0" class="graph" transform="scale(1 1) rotate(0) translate(4 111)">
<title>Mcp9700TemperatureHandler.h</title>
<!-- Node1 -->
<g id="Node000001" class="node">
<title>Node1</title>
<g id="a_Node000001"><a xlink:title="MCP9700 linear active thermistor handler (ADC voltage to °C).">
<polygon fill="#999999" stroke="#666666" points="576,-107 407,-107 407,-88 576,-88 576,-107"/>
<text text-anchor="middle" x="491.5" y="-95" font-family="Helvetica,sans-Serif" font-size="10.00">Mcp9700TemperatureHandler.h</text>
</a>
</g>
</g>
<!-- Node2 -->
<g id="Node000002" class="node">
<title>Node2</title>
<g id="a_Node000002"><a xlink:title=" ">
<polygon fill="#e0e0e0" stroke="#999999" points="191,-46.5 0,-46.5 0,-5.5 191,-5.5 191,-46.5"/>
<text text-anchor="start" x="8" y="-34.5" font-family="Helvetica,sans-Serif" font-size="10.00">core/hf&#45;core&#45;drivers</text>
<text text-anchor="start" x="8" y="-23.5" font-family="Helvetica,sans-Serif" font-size="10.00">/external/hf&#45;mcp9700</text>
<text text-anchor="middle" x="95.5" y="-12.5" font-family="Helvetica,sans-Serif" font-size="10.00">&#45;driver/inc/mcp9700_thermistor.hpp</text>
</a>
</g>
</g>
<!-- Node1&#45;&gt;Node2 -->
<g id="edge1_Node000001_Node000002" class="edge">
<title>Node1&#45;&gt;Node2</title>
<g id="a_edge1_Node000001_Node000002"><a xlink:title=" ">
<path fill="none" stroke="#63b8ff" d="M424.83,-87.98C365.46,-80 276.37,-67.07 199.5,-52 194.39,-51 189.16,-49.92 183.88,-48.78"/>
<polygon fill="#63b8ff" stroke="#63b8ff" points="184.23,-45.28 173.71,-46.55 182.73,-52.11 184.23,-45.28"/>
</a>
</g>
</g>
<!-- Node3 -->
<g id="Node000003" class="node">
<title>Node3</title>
<g id="a_Node000003"><a xlink:title=" ">
<polygon fill="#e0e0e0" stroke="#999999" points="344,-52 209,-52 209,0 344,0 344,-52"/>
<text text-anchor="start" x="217" y="-40" font-family="Helvetica,sans-Serif" font-size="10.00">core/hf&#45;core&#45;drivers</text>
<text text-anchor="start" x="217" y="-29" font-family="Helvetica,sans-Serif" font-size="10.00">/internal/hf&#45;internal</text>
<text text-anchor="start" x="217" y="-18" font-family="Helvetica,sans-Serif" font-size="10.00">&#45;interface&#45;wrap/inc/base</text>
<text text-anchor="middle" x="276.5" y="-7" font-family="Helvetica,sans-Serif" font-size="10.00">/BaseAdc.h</text>
</a>
</g>
</g>
<!-- Node1&#45;&gt;Node3 -->
<g id="edge2_Node000001_Node000003" class="edge">
<title>Node1&#45;&gt;Node3</title>
<g id="a_edge2_Node000001_Node000003"><a xlink:title=" ">
<path fill="none" stroke="#63b8ff" d="M464.57,-87.95C438.47,-79.65 397.51,-66.58 353.72,-52.39"/>
<polygon fill="#63b8ff" stroke="#63b8ff" points="354.63,-49 344.04,-49.25 352.47,-55.66 354.63,-49"/>
</a>
</g>
</g>
<!-- Node4 -->
<g id="Node000004" class="node">
<title>Node4</title>
<g id="a_Node000004"><a xlink:title=" ">
<polygon fill="#e0e0e0" stroke="#999999" points="497,-52 362,-52 362,0 497,0 497,-52"/>
<text text-anchor="start" x="370" y="-40" font-family="Helvetica,sans-Serif" font-size="10.00">core/hf&#45;core&#45;drivers</text>
<text text-anchor="start" x="370" y="-29" font-family="Helvetica,sans-Serif" font-size="10.00">/internal/hf&#45;internal</text>
<text text-anchor="start" x="370" y="-18" font-family="Helvetica,sans-Serif" font-size="10.00">&#45;interface&#45;wrap/inc/base</text>
<text text-anchor="middle" x="429.5" y="-7" font-family="Helvetica,sans-Serif" font-size="10.00">/BaseTemperature.h</text>
</a>
</g>
</g>
<!-- Node1&#45;&gt;Node4 -->
<g id="edge3_Node000001_Node000004" class="edge">
<title>Node1&#45;&gt;Node4</title>
<g id="a_edge3_Node000001_Node000004"><a xlink:title=" ">
<path fill="none" stroke="#63b8ff" d="M483.9,-87.98C477.5,-80.8 467.91,-70.06 458.57,-59.58"/>
<polygon fill="#63b8ff" stroke="#63b8ff" points="461.12,-57.19 451.85,-52.05 455.9,-61.85 461.12,-57.19"/>
</a>
</g>
</g>
<!-- Node5 -->
<g id="Node000005" class="node">
<title>Node5</title>
<g id="a_Node000005"><a xlink:title=" ">
<polygon fill="#e0e0e0" stroke="#999999" points="593.5,-35.5 515.5,-35.5 515.5,-16.5 593.5,-16.5 593.5,-35.5"/>
<text text-anchor="middle" x="554.5" y="-23.5" font-family="Helvetica,sans-Serif" font-size="10.00">RtosMutex.h</text>
</a>
</g>
</g>
<!-- Node1&#45;&gt;Node5 -->
<g id="edge4_Node000001_Node000005" class="edge">
<title>Node1&#45;&gt;Node5</title>
<g id="a_edge4_Node000001_Node000005"><a xlink:title=" ">
<path fill="none" stroke="#63b8ff" d="M499.23,-87.98C509.33,-76.83 527.25,-57.06 539.94,-43.06"/>
<polygon fill="#63b8ff" stroke="#63b8ff" points="542.59,-45.35 546.71,-35.59 537.4,-40.65 542.59,-45.35"/>
</a>
</g>
</g>
<!-- Node6 -->
<g id="Node000006" class="node">
<title>Node6</title>
<g id="a_Node000006"><a xlink:title=" ">
<polygon fill="#e0e0e0" stroke="#999999" points="661.5,-35.5 611.5,-35.5 611.5,-16.5 661.5,-16.5 661.5,-35.5"/>
<text text-anchor="middle" x="636.5" y="-23.5" font-family="Helvetica,sans-Serif" font-size="10.00">cstdint</text>
</a>
</g>
</g>
<!-- Node1&#45;&gt;Node6 -->
<g id="edge5_Node000001_Node000006" class="edge">
<title>Node1&#45;&gt;Node6</title>
<g id="a_edge5_Node000001_Node000006"><a xlink:title=" ">
<path fill="none" stroke="#63b8ff" d="M518.38,-87.87C541.41,-79.98 575.1,-67.24 602.5,-52 607.78,-49.06 613.19,-45.42 618.1,-41.84"/>
<polygon fill="#63b8ff" stroke="#63b8ff" points="620.43,-44.46 626.25,-35.61 616.18,-38.9 620.43,-44.46"/>
</a>
</g>
</g>
<!-- Node7 -->
<g id="Node000007" class="node">
<title>Node7</title>
<g id="a_Node000007"><a xlink:title=" ">
<polygon fill="#e0e0e0" stroke="#999999" points="737.5,-35.5 679.5,-35.5 679.5,-16.5 737.5,-16.5 737.5,-35.5"/>
<text text-anchor="middle" x="708.5" y="-23.5" font-family="Helvetica,sans-Serif" font-size="10.00">memory</text>
</a>
</g>
</g>
<!-- Node1&#45;&gt;Node7 -->
<g id="edge6_Node000001_Node000007" class="edge">
<title>Node1&#45;&gt;Node7</title>
<g id="a_edge6_Node000001_Node000007"><a xlink:title=" ">
<path fill="none" stroke="#63b8ff" d="M545.92,-87.93C582.23,-81.02 630.46,-69.53 670.5,-52 676.86,-49.21 683.34,-45.39 689.1,-41.57"/>
<polygon fill="#63b8ff" stroke="#63b8ff" points="691.26,-44.33 697.44,-35.73 687.24,-38.6 691.26,-44.33"/>
</a>
</g>
</g>
</g>
</svg>
