<?xml version="1.0" encoding="UTF-8" standalone="no"?>
<!DOCTYPE svg PUBLIC "-//W3C//DTD SVG 1.1//EN"
 "http://www.w3.org/Graphics/SVG/1.1/DTD/svg11.dtd">
<!-- Generated by graphviz version 2.43.0 (0)
 -->
<!-- Title: handler_utils::DelayUs Pages: 1 -->
<svg width="308pt" height="326pt"
 viewBox="0.00 0.00 308.00 326.00" xmlns="http://www.w3.org/2000/svg" xmlns:xlink="http://www.w3.org/1999/xlink">
<g id="graph0" class="graph" transform="scale(1 1) rotate(0) translate(4 322)">
<title>handler_utils::DelayUs</title>
<!-- Node1 -->
<g id="Node000001" class="node">
<title>Node1</title>
<g id="a_Node000001"><a xlink:title="Microsecond delay with automatic fallback to RTOS delay for large values.">
<polygon fill="#999999" stroke="#666666" points="300,-168.5 173,-168.5 173,-149.5 300,-149.5 300,-168.5"/>
<text text-anchor="middle" x="236.5" y="-156.5" font-family="Helvetica,sans-Serif" font-size="10.00">handler_utils::DelayUs</text>
</a>
</g>
</g>
<!-- Node2 -->
<g id="Node000002" class="node">
<title>Node2</title>
<g id="a_Node000002"><a xlink:href="classHalSpiTle92466edComm.html#aca4238d0c15c631b7fca413fdf7420ab" target="_top" xlink:title=" ">
<polygon fill="white" stroke="#666666" points="137,-318 0,-318 0,-288 137,-288 137,-318"/>
<text text-anchor="start" x="8" y="-306" font-family="Helvetica,sans-Serif" font-size="10.00">HalSpiTle92466edComm</text>
<text text-anchor="middle" x="68.5" y="-295" font-family="Helvetica,sans-Serif" font-size="10.00">::Delay</text>
</a>
</g>
</g>
<!-- Node1&#45;&gt;Node2 -->
<g id="edge1_Node000001_Node000002" class="edge">
<title>Node1&#45;&gt;Node2</title>
<g id="a_edge1_Node000001_Node000002"><a xlink:title=" ">
<path fill="none" stroke="#63b8ff" d="M224.87,-177.46C208.95,-203.58 176.5,-251.24 137,-279 132.22,-282.36 126.92,-285.3 121.45,-287.85"/>
<polygon fill="#63b8ff" stroke="#63b8ff" points="228.04,-178.97 230.15,-168.59 222.03,-175.39 228.04,-178.97"/>
</a>
</g>
</g>
<!-- Node3 -->
<g id="Node000003" class="node">
<title>Node3</title>
<g id="a_Node000003"><a xlink:href="classHalSpiMax22200Comm.html#a485c7077edcd4c3c7d5bafc6a221ca37" target="_top" xlink:title=" ">
<polygon fill="white" stroke="#666666" points="134,-270 3,-270 3,-240 134,-240 134,-270"/>
<text text-anchor="start" x="11" y="-258" font-family="Helvetica,sans-Serif" font-size="10.00">HalSpiMax22200Comm</text>
<text text-anchor="middle" x="68.5" y="-247" font-family="Helvetica,sans-Serif" font-size="10.00">::DelayUs</text>
</a>
</g>
</g>
<!-- Node1&#45;&gt;Node3 -->
<g id="edge2_Node000001_Node000003" class="edge">
<title>Node1&#45;&gt;Node3</title>
<g id="a_edge2_Node000001_Node000003"><a xlink:title=" ">
<path fill="none" stroke="#63b8ff" d="M216.82,-175.23C197.78,-191.13 166.88,-215.2 137,-231 130.84,-234.26 124.15,-237.24 117.45,-239.9"/>
<polygon fill="#63b8ff" stroke="#63b8ff" points="219.32,-177.7 224.68,-168.56 214.79,-172.36 219.32,-177.7"/>
</a>
</g>
</g>
<!-- Node4 -->
<g id="Node000004" class="node">
<title>Node4</title>
<g id="a_Node000004"><a xlink:href="classHalSpiTmc5160Comm.html#a48c631e0d24f7b4b0c33c83b1ffa91ad" target="_top" xlink:title="Delay in microseconds.">
<polygon fill="white" stroke="#666666" points="134,-222 3,-222 3,-192 134,-192 134,-222"/>
<text text-anchor="start" x="11" y="-210" font-family="Helvetica,sans-Serif" font-size="10.00">HalSpiTmc5160Comm::</text>
<text text-anchor="middle" x="68.5" y="-199" font-family="Helvetica,sans-Serif" font-size="10.00">DelayUs</text>
</a>
</g>
</g>
<!-- Node1&#45;&gt;Node4 -->
<g id="edge3_Node000001_Node000004" class="edge">
<title>Node1&#45;&gt;Node4</title>
<g id="a_edge3_Node000001_Node000004"><a xlink:title=" ">
<path fill="none" stroke="#63b8ff" d="M192.41,-171.46C170.77,-177.72 144.37,-185.35 121.59,-191.94"/>
<polygon fill="#63b8ff" stroke="#63b8ff" points="193.67,-174.74 202.31,-168.6 191.73,-168.01 193.67,-174.74"/>
</a>
</g>
</g>
<!-- Node5 -->
<g id="Node000005" class="node">
<title>Node5</title>
<g id="a_Node000005"><a xlink:href="classHalUartTmc5160Comm.html#a87ed8334c9dcbd2f8c028da910f5a968" target="_top" xlink:title="Delay in microseconds.">
<polygon fill="white" stroke="#666666" points="134,-174 3,-174 3,-144 134,-144 134,-174"/>
<text text-anchor="start" x="11" y="-162" font-family="Helvetica,sans-Serif" font-size="10.00">HalUartTmc5160Comm</text>
<text text-anchor="middle" x="68.5" y="-151" font-family="Helvetica,sans-Serif" font-size="10.00">::DelayUs</text>
</a>
</g>
</g>
<!-- Node1&#45;&gt;Node5 -->
<g id="edge4_Node000001_Node000005" class="edge">
<title>Node1&#45;&gt;Node5</title>
<g id="a_edge4_Node000001_Node000005"><a xlink:title=" ">
<path fill="none" stroke="#63b8ff" d="M162.53,-159C153.03,-159 143.35,-159 134,-159"/>
<polygon fill="#63b8ff" stroke="#63b8ff" points="162.74,-162.5 172.74,-159 162.74,-155.5 162.74,-162.5"/>
</a>
</g>
</g>
<!-- Node6 -->
<g id="Node000006" class="node">
<title>Node6</title>
<g id="a_Node000006"><a xlink:href="classHalSpiTmc9660Comm.html#aeed51d5504933aa294d940f0799c279a" target="_top" xlink:title="Delay execution for the specified number of microseconds.">
<polygon fill="white" stroke="#666666" points="134,-126 3,-126 3,-96 134,-96 134,-126"/>
<text text-anchor="start" x="11" y="-114" font-family="Helvetica,sans-Serif" font-size="10.00">HalSpiTmc9660Comm::</text>
<text text-anchor="middle" x="68.5" y="-103" font-family="Helvetica,sans-Serif" font-size="10.00">delayUs</text>
</a>
</g>
</g>
<!-- Node1&#45;&gt;Node6 -->
<g id="edge5_Node000001_Node000006" class="edge">
<title>Node1&#45;&gt;Node6</title>
<g id="a_edge5_Node000001_Node000006"><a xlink:title=" ">
<path fill="none" stroke="#63b8ff" d="M192.41,-146.54C170.77,-140.28 144.37,-132.65 121.59,-126.06"/>
<polygon fill="#63b8ff" stroke="#63b8ff" points="191.73,-149.99 202.31,-149.4 193.67,-143.26 191.73,-149.99"/>
</a>
</g>
</g>
<!-- Node7 -->
<g id="Node000007" class="node">
<title>Node7</title>
<g id="a_Node000007"><a xlink:href="classHalUartTmc9660Comm.html#a03e458d1dca85da1149a9040d8458c06" target="_top" xlink:title="Delay execution for the specified number of microseconds.">
<polygon fill="white" stroke="#666666" points="134,-78 3,-78 3,-48 134,-48 134,-78"/>
<text text-anchor="start" x="11" y="-66" font-family="Helvetica,sans-Serif" font-size="10.00">HalUartTmc9660Comm</text>
<text text-anchor="middle" x="68.5" y="-55" font-family="Helvetica,sans-Serif" font-size="10.00">::delayUs</text>
</a>
</g>
</g>
<!-- Node1&#45;&gt;Node7 -->
<g id="edge6_Node000001_Node000007" class="edge">
<title>Node1&#45;&gt;Node7</title>
<g id="a_edge6_Node000001_Node000007"><a xlink:title=" ">
<path fill="none" stroke="#63b8ff" d="M216.82,-142.77C197.78,-126.87 166.88,-102.8 137,-87 130.84,-83.74 124.15,-80.76 117.45,-78.1"/>
<polygon fill="#63b8ff" stroke="#63b8ff" points="214.79,-145.64 224.68,-149.44 219.32,-140.3 214.79,-145.64"/>
</a>
</g>
</g>
<!-- Node8 -->
<g id="Node000008" class="node">
<title>Node8</title>
<g id="a_Node000008"><a xlink:href="classHalSpiTmc9660Comm.html#a84b3ab081c7b9cab86432945ca9e3f6e" target="_top" xlink:title="Perform an 8&#45;byte full&#45;duplex SPI transfer for TMCL parameter mode.">
<polygon fill="white" stroke="#666666" points="134,-30 3,-30 3,0 134,0 134,-30"/>
<text text-anchor="start" x="11" y="-18" font-family="Helvetica,sans-Serif" font-size="10.00">HalSpiTmc9660Comm::</text>
<text text-anchor="middle" x="68.5" y="-7" font-family="Helvetica,sans-Serif" font-size="10.00">spiTransferTMCL</text>
</a>
</g>
</g>
<!-- Node1&#45;&gt;Node8 -->
<g id="edge7_Node000001_Node000008" class="edge">
<title>Node1&#45;&gt;Node8</title>
<g id="a_edge7_Node000001_Node000008"><a xlink:title=" ">
<path fill="none" stroke="#63b8ff" d="M224.87,-140.54C208.95,-114.42 176.5,-66.76 137,-39 132.22,-35.64 126.92,-32.7 121.45,-30.15"/>
<polygon fill="#63b8ff" stroke="#63b8ff" points="222.03,-142.61 230.15,-149.41 228.04,-139.03 222.03,-142.61"/>
</a>
</g>
</g>
</g>
</svg>
