<?xml version="1.0" encoding="UTF-8" standalone="no"?>
<!DOCTYPE svg PUBLIC "-//W3C//DTD SVG 1.1//EN"
 "http://www.w3.org/Graphics/SVG/1.1/DTD/svg11.dtd">
<!-- Generated by graphviz version 2.43.0 (0)
 -->
<!-- Title: NtcTemperatureHandler.cpp Pages: 1 -->
<svg width="1153pt" height="192pt"
 viewBox="0.00 0.00 1152.50 192.00" xmlns="http://www.w3.org/2000/svg" xmlns:xlink="http://www.w3.org/1999/xlink">
<g id="graph0" class="graph" transform="scale(1 1) rotate(0) translate(4 188)">
<title>NtcTemperatureHandler.cpp</title>
<!-- Node1 -->
<g id="Node000001" class="node">
<title>Node1</title>
<g id="a_Node000001"><a xlink:title="Implementation of NTC temperature sensor handler for HardFOC system.">
<polygon fill="#999999" stroke="#666666" points="1025.5,-184 873.5,-184 873.5,-165 1025.5,-165 1025.5,-184"/>
<text text-anchor="middle" x="949.5" y="-172" font-family="Helvetica,sans-Serif" font-size="10.00">NtcTemperatureHandler.cpp</text>
</a>
</g>
</g>
<!-- Node2 -->
<g id="Node000002" class="node">
<title>Node2</title>
<g id="a_Node000002"><a xlink:href="NtcTemperatureHandler_8h.html" target="_top" xlink:title="NTC temperature sensor handler for the HardFOC system.">
<polygon fill="white" stroke="#666666" points="675,-118 534,-118 534,-99 675,-99 675,-118"/>
<text text-anchor="middle" x="604.5" y="-106" font-family="Helvetica,sans-Serif" font-size="10.00">NtcTemperatureHandler.h</text>
</a>
</g>
</g>
<!-- Node1&#45;&gt;Node2 -->
<g id="edge1_Node000001_Node000002" class="edge">
<title>Node1&#45;&gt;Node2</title>
<g id="a_edge1_Node000001_Node000002"><a xlink:title=" ">
<path fill="none" stroke="#63b8ff" d="M903.33,-164.94C840.46,-153.27 728.02,-132.41 660.44,-119.88"/>
<polygon fill="#63b8ff" stroke="#63b8ff" points="660.87,-116.4 650.4,-118.01 659.59,-123.28 660.87,-116.4"/>
</a>
</g>
</g>
<!-- Node10 -->
<g id="Node000010" class="node">
<title>Node10</title>
<g id="a_Node000010"><a xlink:href="Logger_8h.html" target="_top" xlink:title="Advanced logging system with formatting capabilities.">
<polygon fill="white" stroke="#666666" points="1018,-118 881,-118 881,-99 1018,-99 1018,-118"/>
<text text-anchor="middle" x="949.5" y="-106" font-family="Helvetica,sans-Serif" font-size="10.00">handlers/logger/Logger.h</text>
</a>
</g>
</g>
<!-- Node1&#45;&gt;Node10 -->
<g id="edge9_Node000001_Node000010" class="edge">
<title>Node1&#45;&gt;Node10</title>
<g id="a_edge9_Node000001_Node000010"><a xlink:title=" ">
<path fill="none" stroke="#63b8ff" d="M949.5,-164.87C949.5,-155.66 949.5,-140.79 949.5,-128.77"/>
<polygon fill="#63b8ff" stroke="#63b8ff" points="953,-128.41 949.5,-118.41 946,-128.41 953,-128.41"/>
</a>
</g>
</g>
<!-- Node15 -->
<g id="Node000015" class="node">
<title>Node15</title>
<g id="a_Node000015"><a xlink:title=" ">
<polygon fill="#e0e0e0" stroke="#999999" points="1144.5,-129 1036.5,-129 1036.5,-88 1144.5,-88 1144.5,-129"/>
<text text-anchor="start" x="1044.5" y="-117" font-family="Helvetica,sans-Serif" font-size="10.00">core/hf&#45;core&#45;utils</text>
<text text-anchor="start" x="1044.5" y="-106" font-family="Helvetica,sans-Serif" font-size="10.00">/hf&#45;utils&#45;rtos&#45;wrap</text>
<text text-anchor="middle" x="1090.5" y="-95" font-family="Helvetica,sans-Serif" font-size="10.00">/include/OsUtility.h</text>
</a>
</g>
</g>
<!-- Node1&#45;&gt;Node15 -->
<g id="edge15_Node000001_Node000015" class="edge">
<title>Node1&#45;&gt;Node15</title>
<g id="a_edge15_Node000001_Node000015"><a xlink:title=" ">
<path fill="none" stroke="#63b8ff" d="M968.52,-164.87C986.38,-156.76 1013.94,-144.25 1038.35,-133.17"/>
<polygon fill="#63b8ff" stroke="#63b8ff" points="1039.86,-136.33 1047.52,-129.01 1036.97,-129.96 1039.86,-136.33"/>
</a>
</g>
</g>
<!-- Node3 -->
<g id="Node000003" class="node">
<title>Node3</title>
<g id="a_Node000003"><a xlink:title=" ">
<polygon fill="#e0e0e0" stroke="#999999" points="135,-52 0,-52 0,0 135,0 135,-52"/>
<text text-anchor="start" x="8" y="-40" font-family="Helvetica,sans-Serif" font-size="10.00">core/hf&#45;core&#45;drivers</text>
<text text-anchor="start" x="8" y="-29" font-family="Helvetica,sans-Serif" font-size="10.00">/internal/hf&#45;internal</text>
<text text-anchor="start" x="8" y="-18" font-family="Helvetica,sans-Serif" font-size="10.00">&#45;interface&#45;wrap/inc/base</text>
<text text-anchor="middle" x="67.5" y="-7" font-family="Helvetica,sans-Serif" font-size="10.00">/BaseTemperature.h</text>
</a>
</g>
</g>
<!-- Node2&#45;&gt;Node3 -->
<g id="edge2_Node000002_Node000003" class="edge">
<title>Node2&#45;&gt;Node3</title>
<g id="a_edge2_Node000002_Node000003"><a xlink:title=" ">
<path fill="none" stroke="#63b8ff" d="M533.87,-103.35C444.82,-97.16 287.11,-82.97 145.04,-52.18"/>
<polygon fill="#63b8ff" stroke="#63b8ff" points="145.79,-48.76 135.27,-50.03 144.28,-55.6 145.79,-48.76"/>
</a>
</g>
</g>
<!-- Node4 -->
<g id="Node000004" class="node">
<title>Node4</title>
<g id="a_Node000004"><a xlink:title=" ">
<polygon fill="#e0e0e0" stroke="#999999" points="288,-52 153,-52 153,0 288,0 288,-52"/>
<text text-anchor="start" x="161" y="-40" font-family="Helvetica,sans-Serif" font-size="10.00">core/hf&#45;core&#45;drivers</text>
<text text-anchor="start" x="161" y="-29" font-family="Helvetica,sans-Serif" font-size="10.00">/internal/hf&#45;internal</text>
<text text-anchor="start" x="161" y="-18" font-family="Helvetica,sans-Serif" font-size="10.00">&#45;interface&#45;wrap/inc/base</text>
<text text-anchor="middle" x="220.5" y="-7" font-family="Helvetica,sans-Serif" font-size="10.00">/BaseAdc.h</text>
</a>
</g>
</g>
<!-- Node2&#45;&gt;Node4 -->
<g id="edge3_Node000002_Node000004" class="edge">
<title>Node2&#45;&gt;Node4</title>
<g id="a_edge3_Node000002_Node000004"><a xlink:title=" ">
<path fill="none" stroke="#63b8ff" d="M542.89,-98.99C482.53,-90.06 387.85,-74.52 298.1,-52.28"/>
<polygon fill="#63b8ff" stroke="#63b8ff" points="298.87,-48.87 288.31,-49.83 297.16,-55.66 298.87,-48.87"/>
</a>
</g>
</g>
<!-- Node5 -->
<g id="Node000005" class="node">
<title>Node5</title>
<g id="a_Node000005"><a xlink:title=" ">
<polygon fill="#e0e0e0" stroke="#999999" points="467,-46.5 306,-46.5 306,-5.5 467,-5.5 467,-46.5"/>
<text text-anchor="start" x="314" y="-34.5" font-family="Helvetica,sans-Serif" font-size="10.00">core/hf&#45;core&#45;drivers</text>
<text text-anchor="start" x="314" y="-23.5" font-family="Helvetica,sans-Serif" font-size="10.00">/external/hf&#45;ntc&#45;thermistor</text>
<text text-anchor="middle" x="386.5" y="-12.5" font-family="Helvetica,sans-Serif" font-size="10.00">&#45;driver/inc/ntc_thermistor.hpp</text>
</a>
</g>
</g>
<!-- Node2&#45;&gt;Node5 -->
<g id="edge4_Node000002_Node000005" class="edge">
<title>Node2&#45;&gt;Node5</title>
<g id="a_edge4_Node000002_Node000005"><a xlink:title=" ">
<path fill="none" stroke="#63b8ff" d="M581.17,-98.89C549.86,-87.32 493.06,-66.35 448.87,-50.03"/>
<polygon fill="#63b8ff" stroke="#63b8ff" points="449.95,-46.7 439.36,-46.52 447.53,-53.27 449.95,-46.7"/>
</a>
</g>
</g>
<!-- Node6 -->
<g id="Node000006" class="node">
<title>Node6</title>
<g id="a_Node000006"><a xlink:title=" ">
<polygon fill="#e0e0e0" stroke="#999999" points="587.5,-35.5 485.5,-35.5 485.5,-16.5 587.5,-16.5 587.5,-35.5"/>
<text text-anchor="middle" x="536.5" y="-23.5" font-family="Helvetica,sans-Serif" font-size="10.00">utils/RtosMutex.h</text>
</a>
</g>
</g>
<!-- Node2&#45;&gt;Node6 -->
<g id="edge5_Node000002_Node000006" class="edge">
<title>Node2&#45;&gt;Node6</title>
<g id="a_edge5_Node000002_Node000006"><a xlink:title=" ">
<path fill="none" stroke="#63b8ff" d="M597.22,-98.89C586.14,-85.76 564.81,-60.51 550.61,-43.71"/>
<polygon fill="#63b8ff" stroke="#63b8ff" points="553.06,-41.18 543.93,-35.8 547.71,-45.69 553.06,-41.18"/>
</a>
</g>
</g>
<!-- Node7 -->
<g id="Node000007" class="node">
<title>Node7</title>
<g id="a_Node000007"><a xlink:title=" ">
<polygon fill="#e0e0e0" stroke="#999999" points="739.5,-46.5 605.5,-46.5 605.5,-5.5 739.5,-5.5 739.5,-46.5"/>
<text text-anchor="start" x="613.5" y="-34.5" font-family="Helvetica,sans-Serif" font-size="10.00">core/hf&#45;core&#45;utils</text>
<text text-anchor="start" x="613.5" y="-23.5" font-family="Helvetica,sans-Serif" font-size="10.00">/hf&#45;utils&#45;rtos&#45;wrap</text>
<text text-anchor="middle" x="672.5" y="-12.5" font-family="Helvetica,sans-Serif" font-size="10.00">/include/PeriodicTimer.h</text>
</a>
</g>
</g>
<!-- Node2&#45;&gt;Node7 -->
<g id="edge6_Node000002_Node000007" class="edge">
<title>Node2&#45;&gt;Node7</title>
<g id="a_edge6_Node000002_Node000007"><a xlink:title=" ">
<path fill="none" stroke="#63b8ff" d="M611.78,-98.89C620.71,-88.32 636.27,-69.89 649.41,-54.33"/>
<polygon fill="#63b8ff" stroke="#63b8ff" points="652.23,-56.42 656.01,-46.52 646.89,-51.9 652.23,-56.42"/>
</a>
</g>
</g>
<!-- Node8 -->
<g id="Node000008" class="node">
<title>Node8</title>
<g id="a_Node000008"><a xlink:title=" ">
<polygon fill="#e0e0e0" stroke="#999999" points="877.5,-35.5 819.5,-35.5 819.5,-16.5 877.5,-16.5 877.5,-35.5"/>
<text text-anchor="middle" x="848.5" y="-23.5" font-family="Helvetica,sans-Serif" font-size="10.00">memory</text>
</a>
</g>
</g>
<!-- Node2&#45;&gt;Node8 -->
<g id="edge7_Node000002_Node000008" class="edge">
<title>Node2&#45;&gt;Node8</title>
<g id="a_edge7_Node000002_Node000008"><a xlink:title=" ">
<path fill="none" stroke="#63b8ff" d="M653.03,-98.98C695.74,-90.42 758.98,-75.16 810.5,-52 816.83,-49.15 823.3,-45.31 829.06,-41.49"/>
<polygon fill="#63b8ff" stroke="#63b8ff" points="831.21,-44.26 837.41,-35.67 827.21,-38.52 831.21,-44.26"/>
</a>
</g>
</g>
<!-- Node9 -->
<g id="Node000009" class="node">
<title>Node9</title>
<g id="a_Node000009"><a xlink:title=" ">
<polygon fill="#e0e0e0" stroke="#999999" points="801.5,-35.5 757.5,-35.5 757.5,-16.5 801.5,-16.5 801.5,-35.5"/>
<text text-anchor="middle" x="779.5" y="-23.5" font-family="Helvetica,sans-Serif" font-size="10.00">cfloat</text>
</a>
</g>
</g>
<!-- Node2&#45;&gt;Node9 -->
<g id="edge8_Node000002_Node000009" class="edge">
<title>Node2&#45;&gt;Node9</title>
<g id="a_edge8_Node000002_Node000009"><a xlink:title=" ">
<path fill="none" stroke="#63b8ff" d="M634.4,-98.98C664.4,-89.75 711.37,-73.42 748.5,-52 753.32,-49.22 758.17,-45.72 762.56,-42.23"/>
<polygon fill="#63b8ff" stroke="#63b8ff" points="764.9,-44.83 770.29,-35.7 760.39,-39.47 764.9,-44.83"/>
</a>
</g>
</g>
<!-- Node10&#45;&gt;Node8 -->
<g id="edge12_Node000010_Node000008" class="edge">
<title>Node10&#45;&gt;Node8</title>
<g id="a_edge12_Node000010_Node000008"><a xlink:title=" ">
<path fill="none" stroke="#63b8ff" d="M938.69,-98.89C921.61,-85.27 888.15,-58.6 867.13,-41.85"/>
<polygon fill="#63b8ff" stroke="#63b8ff" points="869.23,-39.05 859.23,-35.55 864.87,-44.52 869.23,-39.05"/>
</a>
</g>
</g>
<!-- Node11 -->
<g id="Node000011" class="node">
<title>Node11</title>
<g id="a_Node000011"><a xlink:title=" ">
<polygon fill="#e0e0e0" stroke="#999999" points="939.5,-35.5 895.5,-35.5 895.5,-16.5 939.5,-16.5 939.5,-35.5"/>
<text text-anchor="middle" x="917.5" y="-23.5" font-family="Helvetica,sans-Serif" font-size="10.00">string</text>
</a>
</g>
</g>
<!-- Node10&#45;&gt;Node11 -->
<g id="edge10_Node000010_Node000011" class="edge">
<title>Node10&#45;&gt;Node11</title>
<g id="a_edge10_Node000010_Node000011"><a xlink:title=" ">
<path fill="none" stroke="#63b8ff" d="M946.08,-98.89C941,-86.12 931.37,-61.89 924.7,-45.11"/>
<polygon fill="#63b8ff" stroke="#63b8ff" points="927.94,-43.8 921,-35.8 921.44,-46.38 927.94,-43.8"/>
</a>
</g>
</g>
<!-- Node12 -->
<g id="Node000012" class="node">
<title>Node12</title>
<g id="a_Node000012"><a xlink:title=" ">
<polygon fill="#e0e0e0" stroke="#999999" points="1005,-35.5 958,-35.5 958,-16.5 1005,-16.5 1005,-35.5"/>
<text text-anchor="middle" x="981.5" y="-23.5" font-family="Helvetica,sans-Serif" font-size="10.00">vector</text>
</a>
</g>
</g>
<!-- Node10&#45;&gt;Node12 -->
<g id="edge11_Node000010_Node000012" class="edge">
<title>Node10&#45;&gt;Node12</title>
<g id="a_edge11_Node000010_Node000012"><a xlink:title=" ">
<path fill="none" stroke="#63b8ff" d="M952.92,-98.89C958,-86.12 967.63,-61.89 974.3,-45.11"/>
<polygon fill="#63b8ff" stroke="#63b8ff" points="977.56,-46.38 978,-35.8 971.06,-43.8 977.56,-46.38"/>
</a>
</g>
</g>
<!-- Node13 -->
<g id="Node000013" class="node">
<title>Node13</title>
<g id="a_Node000013"><a xlink:title=" ">
<polygon fill="#e0e0e0" stroke="#999999" points="1073.5,-35.5 1023.5,-35.5 1023.5,-16.5 1073.5,-16.5 1073.5,-35.5"/>
<text text-anchor="middle" x="1048.5" y="-23.5" font-family="Helvetica,sans-Serif" font-size="10.00">atomic</text>
</a>
</g>
</g>
<!-- Node10&#45;&gt;Node13 -->
<g id="edge13_Node000010_Node000013" class="edge">
<title>Node10&#45;&gt;Node13</title>
<g id="a_edge13_Node000010_Node000013"><a xlink:title=" ">
<path fill="none" stroke="#63b8ff" d="M960.09,-98.89C976.77,-85.33 1009.35,-58.84 1029.96,-42.07"/>
<polygon fill="#63b8ff" stroke="#63b8ff" points="1032.43,-44.58 1037.98,-35.55 1028.01,-39.15 1032.43,-44.58"/>
</a>
</g>
</g>
<!-- Node14 -->
<g id="Node000014" class="node">
<title>Node14</title>
<g id="a_Node000014"><a xlink:title=" ">
<polygon fill="#e0e0e0" stroke="#999999" points="1129.5,-35.5 1091.5,-35.5 1091.5,-16.5 1129.5,-16.5 1129.5,-35.5"/>
<text text-anchor="middle" x="1110.5" y="-23.5" font-family="Helvetica,sans-Serif" font-size="10.00">map</text>
</a>
</g>
</g>
<!-- Node10&#45;&gt;Node14 -->
<g id="edge14_Node000010_Node000014" class="edge">
<title>Node10&#45;&gt;Node14</title>
<g id="a_edge14_Node000010_Node000014"><a xlink:title=" ">
<path fill="none" stroke="#63b8ff" d="M977.29,-98.94C1005.14,-89.68 1048.63,-73.34 1082.5,-52 1086.71,-49.35 1090.9,-46.06 1094.7,-42.74"/>
<polygon fill="#63b8ff" stroke="#63b8ff" points="1097.34,-45.06 1102.28,-35.69 1092.57,-39.94 1097.34,-45.06"/>
</a>
</g>
</g>
</g>
</svg>
