<?xml version="1.0" encoding="UTF-8" standalone="no"?>
<!DOCTYPE svg PUBLIC "-//W3C//DTD SVG 1.1//EN"
 "http://www.w3.org/Graphics/SVG/1.1/DTD/svg11.dtd">
<!-- Generated by graphviz version 2.43.0 (0)
 -->
<!-- Title: NtcTemperatureHandler.h Pages: 1 -->
<svg width="886pt" height="115pt"
 viewBox="0.00 0.00 885.50 115.00" xmlns="http://www.w3.org/2000/svg" xmlns:xlink="http://www.w3.org/1999/xlink">
<g id="graph0" class="graph" transform="scale(1 1) rotate(0) translate(4 111)">
<title>NtcTemperatureHandler.h</title>
<!-- Node1 -->
<g id="Node000001" class="node">
<title>Node1</title>
<g id="a_Node000001"><a xlink:title="NTC temperature sensor handler for the HardFOC system.">
<polygon fill="#999999" stroke="#666666" points="607,-107 466,-107 466,-88 607,-88 607,-107"/>
<text text-anchor="middle" x="536.5" y="-95" font-family="Helvetica,sans-Serif" font-size="10.00">NtcTemperatureHandler.h</text>
</a>
</g>
</g>
<!-- Node2 -->
<g id="Node000002" class="node">
<title>Node2</title>
<g id="a_Node000002"><a xlink:title=" ">
<polygon fill="#e0e0e0" stroke="#999999" points="135,-52 0,-52 0,0 135,0 135,-52"/>
<text text-anchor="start" x="8" y="-40" font-family="Helvetica,sans-Serif" font-size="10.00">core/hf&#45;core&#45;drivers</text>
<text text-anchor="start" x="8" y="-29" font-family="Helvetica,sans-Serif" font-size="10.00">/internal/hf&#45;internal</text>
<text text-anchor="start" x="8" y="-18" font-family="Helvetica,sans-Serif" font-size="10.00">&#45;interface&#45;wrap/inc/base</text>
<text text-anchor="middle" x="67.5" y="-7" font-family="Helvetica,sans-Serif" font-size="10.00">/BaseTemperature.h</text>
</a>
</g>
</g>
<!-- Node1&#45;&gt;Node2 -->
<g id="edge1_Node000001_Node000002" class="edge">
<title>Node1&#45;&gt;Node2</title>
<g id="a_edge1_Node000001_Node000002"><a xlink:title=" ">
<path fill="none" stroke="#63b8ff" d="M465.86,-92.87C388.81,-87.94 261.86,-76.94 145.08,-52.17"/>
<polygon fill="#63b8ff" stroke="#63b8ff" points="145.78,-48.74 135.26,-50.05 144.3,-55.58 145.78,-48.74"/>
</a>
</g>
</g>
<!-- Node3 -->
<g id="Node000003" class="node">
<title>Node3</title>
<g id="a_Node000003"><a xlink:title=" ">
<polygon fill="#e0e0e0" stroke="#999999" points="288,-52 153,-52 153,0 288,0 288,-52"/>
<text text-anchor="start" x="161" y="-40" font-family="Helvetica,sans-Serif" font-size="10.00">core/hf&#45;core&#45;drivers</text>
<text text-anchor="start" x="161" y="-29" font-family="Helvetica,sans-Serif" font-size="10.00">/internal/hf&#45;internal</text>
<text text-anchor="start" x="161" y="-18" font-family="Helvetica,sans-Serif" font-size="10.00">&#45;interface&#45;wrap/inc/base</text>
<text text-anchor="middle" x="220.5" y="-7" font-family="Helvetica,sans-Serif" font-size="10.00">/BaseAdc.h</text>
</a>
</g>
</g>
<!-- Node1&#45;&gt;Node3 -->
<g id="edge2_Node000001_Node000003" class="edge">
<title>Node1&#45;&gt;Node3</title>
<g id="a_edge2_Node000001_Node000003"><a xlink:title=" ">
<path fill="none" stroke="#63b8ff" d="M478.32,-87.96C431.71,-80.61 364.53,-68.87 298.11,-52.29"/>
<polygon fill="#63b8ff" stroke="#63b8ff" points="298.87,-48.87 288.32,-49.81 297.15,-55.66 298.87,-48.87"/>
</a>
</g>
</g>
<!-- Node4 -->
<g id="Node000004" class="node">
<title>Node4</title>
<g id="a_Node000004"><a xlink:title=" ">
<polygon fill="#e0e0e0" stroke="#999999" points="467,-46.5 306,-46.5 306,-5.5 467,-5.5 467,-46.5"/>
<text text-anchor="start" x="314" y="-34.5" font-family="Helvetica,sans-Serif" font-size="10.00">core/hf&#45;core&#45;drivers</text>
<text text-anchor="start" x="314" y="-23.5" font-family="Helvetica,sans-Serif" font-size="10.00">/external/hf&#45;ntc&#45;thermistor</text>
<text text-anchor="middle" x="386.5" y="-12.5" font-family="Helvetica,sans-Serif" font-size="10.00">&#45;driver/inc/ntc_thermistor.hpp</text>
</a>
</g>
</g>
<!-- Node1&#45;&gt;Node4 -->
<g id="edge3_Node000001_Node000004" class="edge">
<title>Node1&#45;&gt;Node4</title>
<g id="a_edge3_Node000001_Node000004"><a xlink:title=" ">
<path fill="none" stroke="#63b8ff" d="M518.11,-87.98C498.22,-78.76 465.63,-63.66 437.85,-50.79"/>
<polygon fill="#63b8ff" stroke="#63b8ff" points="439.19,-47.56 428.65,-46.53 436.25,-53.91 439.19,-47.56"/>
</a>
</g>
</g>
<!-- Node5 -->
<g id="Node000005" class="node">
<title>Node5</title>
<g id="a_Node000005"><a xlink:title=" ">
<polygon fill="#e0e0e0" stroke="#999999" points="587.5,-35.5 485.5,-35.5 485.5,-16.5 587.5,-16.5 587.5,-35.5"/>
<text text-anchor="middle" x="536.5" y="-23.5" font-family="Helvetica,sans-Serif" font-size="10.00">utils/RtosMutex.h</text>
</a>
</g>
</g>
<!-- Node1&#45;&gt;Node5 -->
<g id="edge4_Node000001_Node000005" class="edge">
<title>Node1&#45;&gt;Node5</title>
<g id="a_edge4_Node000001_Node000005"><a xlink:title=" ">
<path fill="none" stroke="#63b8ff" d="M536.5,-87.98C536.5,-77.56 536.5,-59.61 536.5,-45.88"/>
<polygon fill="#63b8ff" stroke="#63b8ff" points="540,-45.59 536.5,-35.59 533,-45.59 540,-45.59"/>
</a>
</g>
</g>
<!-- Node6 -->
<g id="Node000006" class="node">
<title>Node6</title>
<g id="a_Node000006"><a xlink:title=" ">
<polygon fill="#e0e0e0" stroke="#999999" points="739.5,-46.5 605.5,-46.5 605.5,-5.5 739.5,-5.5 739.5,-46.5"/>
<text text-anchor="start" x="613.5" y="-34.5" font-family="Helvetica,sans-Serif" font-size="10.00">core/hf&#45;core&#45;utils</text>
<text text-anchor="start" x="613.5" y="-23.5" font-family="Helvetica,sans-Serif" font-size="10.00">/hf&#45;utils&#45;rtos&#45;wrap</text>
<text text-anchor="middle" x="672.5" y="-12.5" font-family="Helvetica,sans-Serif" font-size="10.00">/include/PeriodicTimer.h</text>
</a>
</g>
</g>
<!-- Node1&#45;&gt;Node6 -->
<g id="edge5_Node000001_Node000006" class="edge">
<title>Node1&#45;&gt;Node6</title>
<g id="a_edge5_Node000001_Node000006"><a xlink:title=" ">
<path fill="none" stroke="#63b8ff" d="M553.18,-87.98C571.05,-78.84 600.25,-63.92 625.28,-51.13"/>
<polygon fill="#63b8ff" stroke="#63b8ff" points="626.98,-54.19 634.29,-46.53 623.79,-47.96 626.98,-54.19"/>
</a>
</g>
</g>
<!-- Node7 -->
<g id="Node000007" class="node">
<title>Node7</title>
<g id="a_Node000007"><a xlink:title=" ">
<polygon fill="#e0e0e0" stroke="#999999" points="815.5,-35.5 757.5,-35.5 757.5,-16.5 815.5,-16.5 815.5,-35.5"/>
<text text-anchor="middle" x="786.5" y="-23.5" font-family="Helvetica,sans-Serif" font-size="10.00">memory</text>
</a>
</g>
</g>
<!-- Node1&#45;&gt;Node7 -->
<g id="edge6_Node000001_Node000007" class="edge">
<title>Node1&#45;&gt;Node7</title>
<g id="a_edge6_Node000001_Node000007"><a xlink:title=" ">
<path fill="none" stroke="#63b8ff" d="M607.21,-88.42C649.4,-81.97 703.36,-70.79 748.5,-52 755.01,-49.29 761.6,-45.43 767.42,-41.56"/>
<polygon fill="#63b8ff" stroke="#63b8ff" points="769.68,-44.24 775.81,-35.61 765.63,-38.53 769.68,-44.24"/>
</a>
</g>
</g>
<!-- Node8 -->
<g id="Node000008" class="node">
<title>Node8</title>
<g id="a_Node000008"><a xlink:title=" ">
<polygon fill="#e0e0e0" stroke="#999999" points="877.5,-35.5 833.5,-35.5 833.5,-16.5 877.5,-16.5 877.5,-35.5"/>
<text text-anchor="middle" x="855.5" y="-23.5" font-family="Helvetica,sans-Serif" font-size="10.00">cfloat</text>
</a>
</g>
</g>
<!-- Node1&#45;&gt;Node8 -->
<g id="edge7_Node000001_Node000008" class="edge">
<title>Node1&#45;&gt;Node8</title>
<g id="a_edge7_Node000001_Node000008"><a xlink:title=" ">
<path fill="none" stroke="#63b8ff" d="M607.14,-95.75C667.27,-92.77 754.73,-82.82 824.5,-52 829.95,-49.59 835.25,-45.97 839.88,-42.22"/>
<polygon fill="#63b8ff" stroke="#63b8ff" points="842.21,-44.83 847.38,-35.58 837.57,-39.59 842.21,-44.83"/>
</a>
</g>
</g>
</g>
</svg>
