<?xml version="1.0" encoding="UTF-8" standalone="no"?>
<!DOCTYPE svg PUBLIC "-//W3C//DTD SVG 1.1//EN"
 "http://www.w3.org/Graphics/SVG/1.1/DTD/svg11.dtd">
<!-- Generated by graphviz version 2.43.0 (0)
 -->
<!-- Title: NtcTemperatureHandler.h Pages: 1 -->
<svg width="482pt" height="93pt"
 viewBox="0.00 0.00 482.00 93.00" xmlns="http://www.w3.org/2000/svg" xmlns:xlink="http://www.w3.org/1999/xlink">
<g id="graph0" class="graph" transform="scale(1 1) rotate(0) translate(4 89)">
<title>NtcTemperatureHandler.h</title>
<!-- Node1 -->
<g id="Node000001" class="node">
<title>Node1</title>
<g id="a_Node000001"><a xlink:title="NTC temperature sensor handler for the HardFOC system.">
<polygon fill="#999999" stroke="#666666" points="306.5,-85 165.5,-85 165.5,-66 306.5,-66 306.5,-85"/>
<text text-anchor="middle" x="236" y="-73" font-family="Helvetica,sans-Serif" font-size="10.00">NtcTemperatureHandler.h</text>
</a>
</g>
</g>
<!-- Node2 -->
<g id="Node000002" class="node">
<title>Node2</title>
<g id="a_Node000002"><a xlink:href="NtcTemperatureHandler_8cpp.html" target="_top" xlink:title="Implementation of NTC temperature sensor handler for HardFOC system.">
<polygon fill="white" stroke="#666666" points="152,-24.5 0,-24.5 0,-5.5 152,-5.5 152,-24.5"/>
<text text-anchor="middle" x="76" y="-12.5" font-family="Helvetica,sans-Serif" font-size="10.00">NtcTemperatureHandler.cpp</text>
</a>
</g>
</g>
<!-- Node1&#45;&gt;Node2 -->
<g id="edge1_Node000001_Node000002" class="edge">
<title>Node1&#45;&gt;Node2</title>
<g id="a_edge1_Node000001_Node000002"><a xlink:title=" ">
<path fill="none" stroke="#63b8ff" d="M203.25,-62.52C172.31,-51.21 126.68,-34.53 99.29,-24.52"/>
<polygon fill="#63b8ff" stroke="#63b8ff" points="202.14,-65.85 212.73,-65.99 204.54,-59.27 202.14,-65.85"/>
</a>
</g>
</g>
<!-- Node3 -->
<g id="Node000003" class="node">
<title>Node3</title>
<g id="a_Node000003"><a xlink:href="full__system__integration__test_8cpp.html" target="_top" xlink:title="Full system integration test for hf&#45;core.">
<polygon fill="white" stroke="#666666" points="302,-30 170,-30 170,0 302,0 302,-30"/>
<text text-anchor="start" x="178" y="-18" font-family="Helvetica,sans-Serif" font-size="10.00">full_system_integration</text>
<text text-anchor="middle" x="236" y="-7" font-family="Helvetica,sans-Serif" font-size="10.00">_test.cpp</text>
</a>
</g>
</g>
<!-- Node1&#45;&gt;Node3 -->
<g id="edge2_Node000001_Node000003" class="edge">
<title>Node1&#45;&gt;Node3</title>
<g id="a_edge2_Node000001_Node000003"><a xlink:title=" ">
<path fill="none" stroke="#63b8ff" d="M236,-55.65C236,-47.36 236,-37.78 236,-30.11"/>
<polygon fill="#63b8ff" stroke="#63b8ff" points="232.5,-55.87 236,-65.87 239.5,-55.87 232.5,-55.87"/>
</a>
</g>
</g>
<!-- Node4 -->
<g id="Node000004" class="node">
<title>Node4</title>
<g id="a_Node000004"><a xlink:href="ntc__handler__comprehensive__test_8cpp.html" target="_top" xlink:title="Comprehensive test suite for NtcTemperatureHandler.">
<polygon fill="white" stroke="#666666" points="474,-30 320,-30 320,0 474,0 474,-30"/>
<text text-anchor="start" x="328" y="-18" font-family="Helvetica,sans-Serif" font-size="10.00">ntc_handler_comprehensive</text>
<text text-anchor="middle" x="397" y="-7" font-family="Helvetica,sans-Serif" font-size="10.00">_test.cpp</text>
</a>
</g>
</g>
<!-- Node1&#45;&gt;Node4 -->
<g id="edge3_Node000001_Node000004" class="edge">
<title>Node1&#45;&gt;Node4</title>
<g id="a_edge3_Node000001_Node000004"><a xlink:title=" ">
<path fill="none" stroke="#63b8ff" d="M269.14,-62.46C295.04,-53.05 331.08,-39.95 358.29,-30.06"/>
<polygon fill="#63b8ff" stroke="#63b8ff" points="267.61,-59.29 259.41,-65.99 270,-65.87 267.61,-59.29"/>
</a>
</g>
</g>
</g>
</svg>
