<?xml version="1.0" encoding="UTF-8" standalone="no"?>
<!DOCTYPE svg PUBLIC "-//W3C//DTD SVG 1.1//EN"
 "http://www.w3.org/Graphics/SVG/1.1/DTD/svg11.dtd">
<!-- Generated by graphviz version 2.43.0 (0)
 -->
<!-- Title: NtcTemperatureHandler.h Pages: 1 -->
<svg width="946pt" height="115pt"
 viewBox="0.00 0.00 945.50 115.00" xmlns="http://www.w3.org/2000/svg" xmlns:xlink="http://www.w3.org/1999/xlink">
<g id="graph0" class="graph" transform="scale(1 1) rotate(0) translate(4 111)">
<title>NtcTemperatureHandler.h</title>
<!-- Node1 -->
<g id="Node000001" class="node">
<title>Node1</title>
<g id="a_Node000001"><a xlink:title="NTC temperature sensor handler for the HardFOC system.">
<polygon fill="#999999" stroke="#666666" points="675,-107 534,-107 534,-88 675,-88 675,-107"/>
<text text-anchor="middle" x="604.5" y="-95" font-family="Helvetica,sans-Serif" font-size="10.00">NtcTemperatureHandler.h</text>
</a>
</g>
</g>
<!-- Node2 -->
<g id="Node000002" class="node">
<title>Node2</title>
<g id="a_Node000002"><a xlink:title=" ">
<polygon fill="#e0e0e0" stroke="#999999" points="135,-52 0,-52 0,0 135,0 135,-52"/>
<text text-anchor="start" x="8" y="-40" font-family="Helvetica,sans-Serif" font-size="10.00">core/hf&#45;core&#45;drivers</text>
<text text-anchor="start" x="8" y="-29" font-family="Helvetica,sans-Serif" font-size="10.00">/internal/hf&#45;internal</text>
<text text-anchor="start" x="8" y="-18" font-family="Helvetica,sans-Serif" font-size="10.00">&#45;interface&#45;wrap/inc/base</text>
<text text-anchor="middle" x="67.5" y="-7" font-family="Helvetica,sans-Serif" font-size="10.00">/BaseTemperature.h</text>
</a>
</g>
</g>
<!-- Node1&#45;&gt;Node2 -->
<g id="edge1_Node000001_Node000002" class="edge">
<title>Node1&#45;&gt;Node2</title>
<g id="a_edge1_Node000001_Node000002"><a xlink:title=" ">
<path fill="none" stroke="#63b8ff" d="M533.87,-94.53C444.91,-90.98 287.43,-81.11 145.44,-52.22"/>
<polygon fill="#63b8ff" stroke="#63b8ff" points="145.75,-48.71 135.25,-50.11 144.33,-55.57 145.75,-48.71"/>
</a>
</g>
</g>
<!-- Node3 -->
<g id="Node000003" class="node">
<title>Node3</title>
<g id="a_Node000003"><a xlink:title=" ">
<polygon fill="#e0e0e0" stroke="#999999" points="288,-52 153,-52 153,0 288,0 288,-52"/>
<text text-anchor="start" x="161" y="-40" font-family="Helvetica,sans-Serif" font-size="10.00">core/hf&#45;core&#45;drivers</text>
<text text-anchor="start" x="161" y="-29" font-family="Helvetica,sans-Serif" font-size="10.00">/internal/hf&#45;internal</text>
<text text-anchor="start" x="161" y="-18" font-family="Helvetica,sans-Serif" font-size="10.00">&#45;interface&#45;wrap/inc/base</text>
<text text-anchor="middle" x="220.5" y="-7" font-family="Helvetica,sans-Serif" font-size="10.00">/BaseAdc.h</text>
</a>
</g>
</g>
<!-- Node1&#45;&gt;Node3 -->
<g id="edge2_Node000001_Node000003" class="edge">
<title>Node1&#45;&gt;Node3</title>
<g id="a_edge2_Node000001_Node000003"><a xlink:title=" ">
<path fill="none" stroke="#63b8ff" d="M533.82,-89.83C473.3,-83.31 383.78,-71.76 298.17,-52.24"/>
<polygon fill="#63b8ff" stroke="#63b8ff" points="298.82,-48.8 288.29,-49.95 297.24,-55.62 298.82,-48.8"/>
</a>
</g>
</g>
<!-- Node4 -->
<g id="Node000004" class="node">
<title>Node4</title>
<g id="a_Node000004"><a xlink:title=" ">
<polygon fill="#e0e0e0" stroke="#999999" points="467,-46.5 306,-46.5 306,-5.5 467,-5.5 467,-46.5"/>
<text text-anchor="start" x="314" y="-34.5" font-family="Helvetica,sans-Serif" font-size="10.00">core/hf&#45;core&#45;drivers</text>
<text text-anchor="start" x="314" y="-23.5" font-family="Helvetica,sans-Serif" font-size="10.00">/external/hf&#45;ntc&#45;thermistor</text>
<text text-anchor="middle" x="386.5" y="-12.5" font-family="Helvetica,sans-Serif" font-size="10.00">&#45;driver/inc/ntc_thermistor.hpp</text>
</a>
</g>
</g>
<!-- Node1&#45;&gt;Node4 -->
<g id="edge3_Node000001_Node000004" class="edge">
<title>Node1&#45;&gt;Node4</title>
<g id="a_edge3_Node000001_Node000004"><a xlink:title=" ">
<path fill="none" stroke="#63b8ff" d="M577.77,-87.98C547.98,-78.48 498.6,-62.74 457.47,-49.63"/>
<polygon fill="#63b8ff" stroke="#63b8ff" points="458.34,-46.23 447.75,-46.53 456.22,-52.9 458.34,-46.23"/>
</a>
</g>
</g>
<!-- Node5 -->
<g id="Node000005" class="node">
<title>Node5</title>
<g id="a_Node000005"><a xlink:title=" ">
<polygon fill="#e0e0e0" stroke="#999999" points="587.5,-35.5 485.5,-35.5 485.5,-16.5 587.5,-16.5 587.5,-35.5"/>
<text text-anchor="middle" x="536.5" y="-23.5" font-family="Helvetica,sans-Serif" font-size="10.00">utils/RtosMutex.h</text>
</a>
</g>
</g>
<!-- Node1&#45;&gt;Node5 -->
<g id="edge4_Node000001_Node000005" class="edge">
<title>Node1&#45;&gt;Node5</title>
<g id="a_edge4_Node000001_Node000005"><a xlink:title=" ">
<path fill="none" stroke="#63b8ff" d="M596.16,-87.98C585.25,-76.83 565.91,-57.06 552.21,-43.06"/>
<polygon fill="#63b8ff" stroke="#63b8ff" points="554.4,-40.29 544.91,-35.59 549.4,-45.19 554.4,-40.29"/>
</a>
</g>
</g>
<!-- Node6 -->
<g id="Node000006" class="node">
<title>Node6</title>
<g id="a_Node000006"><a xlink:title=" ">
<polygon fill="#e0e0e0" stroke="#999999" points="739.5,-46.5 605.5,-46.5 605.5,-5.5 739.5,-5.5 739.5,-46.5"/>
<text text-anchor="start" x="613.5" y="-34.5" font-family="Helvetica,sans-Serif" font-size="10.00">core/hf&#45;core&#45;utils</text>
<text text-anchor="start" x="613.5" y="-23.5" font-family="Helvetica,sans-Serif" font-size="10.00">/hf&#45;utils&#45;rtos&#45;wrap</text>
<text text-anchor="middle" x="672.5" y="-12.5" font-family="Helvetica,sans-Serif" font-size="10.00">/include/PeriodicTimer.h</text>
</a>
</g>
</g>
<!-- Node1&#45;&gt;Node6 -->
<g id="edge5_Node000001_Node000006" class="edge">
<title>Node1&#45;&gt;Node6</title>
<g id="a_edge5_Node000001_Node000006"><a xlink:title=" ">
<path fill="none" stroke="#63b8ff" d="M612.84,-87.98C621.12,-79.51 634.26,-66.08 646.1,-53.98"/>
<polygon fill="#63b8ff" stroke="#63b8ff" points="648.76,-56.27 653.25,-46.67 643.76,-51.37 648.76,-56.27"/>
</a>
</g>
</g>
<!-- Node7 -->
<g id="Node000007" class="node">
<title>Node7</title>
<g id="a_Node000007"><a xlink:title=" ">
<polygon fill="#e0e0e0" stroke="#999999" points="815.5,-35.5 757.5,-35.5 757.5,-16.5 815.5,-16.5 815.5,-35.5"/>
<text text-anchor="middle" x="786.5" y="-23.5" font-family="Helvetica,sans-Serif" font-size="10.00">memory</text>
</a>
</g>
</g>
<!-- Node1&#45;&gt;Node7 -->
<g id="edge6_Node000001_Node000007" class="edge">
<title>Node1&#45;&gt;Node7</title>
<g id="a_edge6_Node000001_Node000007"><a xlink:title=" ">
<path fill="none" stroke="#63b8ff" d="M642.27,-87.94C671.97,-80.48 713.95,-68.3 748.5,-52 754.78,-49.04 761.23,-45.16 766.99,-41.35"/>
<polygon fill="#63b8ff" stroke="#63b8ff" points="769.13,-44.12 775.36,-35.55 765.14,-38.37 769.13,-44.12"/>
</a>
</g>
</g>
<!-- Node8 -->
<g id="Node000008" class="node">
<title>Node8</title>
<g id="a_Node000008"><a xlink:title=" ">
<polygon fill="#e0e0e0" stroke="#999999" points="877.5,-35.5 833.5,-35.5 833.5,-16.5 877.5,-16.5 877.5,-35.5"/>
<text text-anchor="middle" x="855.5" y="-23.5" font-family="Helvetica,sans-Serif" font-size="10.00">cfloat</text>
</a>
</g>
</g>
<!-- Node1&#45;&gt;Node8 -->
<g id="edge7_Node000001_Node000008" class="edge">
<title>Node1&#45;&gt;Node8</title>
<g id="a_edge7_Node000001_Node000008"><a xlink:title=" ">
<path fill="none" stroke="#63b8ff" d="M675.07,-90.88C719.61,-85.27 777.41,-74.12 824.5,-52 829.69,-49.56 834.76,-46.09 839.26,-42.49"/>
<polygon fill="#63b8ff" stroke="#63b8ff" points="841.82,-44.9 847.06,-35.69 837.22,-39.63 841.82,-44.9"/>
</a>
</g>
</g>
<!-- Node9 -->
<g id="Node000009" class="node">
<title>Node9</title>
<g id="a_Node000009"><a xlink:title=" ">
<polygon fill="#e0e0e0" stroke="#999999" points="937.5,-35.5 895.5,-35.5 895.5,-16.5 937.5,-16.5 937.5,-35.5"/>
<text text-anchor="middle" x="916.5" y="-23.5" font-family="Helvetica,sans-Serif" font-size="10.00">array</text>
</a>
</g>
</g>
<!-- Node1&#45;&gt;Node9 -->
<g id="edge8_Node000001_Node000009" class="edge">
<title>Node1&#45;&gt;Node9</title>
<g id="a_edge8_Node000001_Node000009"><a xlink:title=" ">
<path fill="none" stroke="#63b8ff" d="M675.27,-95.69C734.18,-92.63 819.01,-82.59 886.5,-52 891.62,-49.68 896.57,-46.24 900.92,-42.65"/>
<polygon fill="#63b8ff" stroke="#63b8ff" points="903.39,-45.13 908.44,-35.82 898.68,-39.95 903.39,-45.13"/>
</a>
</g>
</g>
</g>
</svg>
