<?xml version="1.0" encoding="UTF-8" standalone="no"?>
<!DOCTYPE svg PUBLIC "-//W3C//DTD SVG 1.1//EN"
 "http://www.w3.org/Graphics/SVG/1.1/DTD/svg11.dtd">
<!-- Generated by graphviz version 2.43.0 (0)
 -->
<!-- Title: Pca9685Handler.h Pages: 1 -->
<svg width="472pt" height="93pt"
 viewBox="0.00 0.00 472.00 93.00" xmlns="http://www.w3.org/2000/svg" xmlns:xlink="http://www.w3.org/1999/xlink">
<g id="graph0" class="graph" transform="scale(1 1) rotate(0) translate(4 89)">
<title>Pca9685Handler.h</title>
<!-- Node1 -->
<g id="Node000001" class="node">
<title>Node1</title>
<g id="a_Node000001"><a xlink:title="Unified handler for the PCA9685 16&#45;channel 12&#45;bit PWM controller.">
<polygon fill="#999999" stroke="#666666" points="252,-85 148,-85 148,-66 252,-66 252,-85"/>
<text text-anchor="middle" x="200" y="-73" font-family="Helvetica,sans-Serif" font-size="10.00">Pca9685Handler.h</text>
</a>
</g>
</g>
<!-- Node2 -->
<g id="Node000002" class="node">
<title>Node2</title>
<g id="a_Node000002"><a xlink:href="Pca9685Handler_8cpp.html" target="_top" xlink:title="Implementation of the PCA9685 PWM controller handler.">
<polygon fill="white" stroke="#666666" points="116,-24.5 0,-24.5 0,-5.5 116,-5.5 116,-24.5"/>
<text text-anchor="middle" x="58" y="-12.5" font-family="Helvetica,sans-Serif" font-size="10.00">Pca9685Handler.cpp</text>
</a>
</g>
</g>
<!-- Node1&#45;&gt;Node2 -->
<g id="edge1_Node000001_Node000002" class="edge">
<title>Node1&#45;&gt;Node2</title>
<g id="a_edge1_Node000001_Node000002"><a xlink:title=" ">
<path fill="none" stroke="#63b8ff" d="M169.86,-62.08C142.43,-50.78 102.66,-34.4 78.67,-24.52"/>
<polygon fill="#63b8ff" stroke="#63b8ff" points="168.77,-65.42 179.35,-65.99 171.44,-58.95 168.77,-65.42"/>
</a>
</g>
</g>
<!-- Node3 -->
<g id="Node000003" class="node">
<title>Node3</title>
<g id="a_Node000003"><a xlink:href="full__system__integration__test_8cpp.html" target="_top" xlink:title="Full system integration test for hf&#45;core.">
<polygon fill="white" stroke="#666666" points="266,-30 134,-30 134,0 266,0 266,-30"/>
<text text-anchor="start" x="142" y="-18" font-family="Helvetica,sans-Serif" font-size="10.00">full_system_integration</text>
<text text-anchor="middle" x="200" y="-7" font-family="Helvetica,sans-Serif" font-size="10.00">_test.cpp</text>
</a>
</g>
</g>
<!-- Node1&#45;&gt;Node3 -->
<g id="edge2_Node000001_Node000003" class="edge">
<title>Node1&#45;&gt;Node3</title>
<g id="a_edge2_Node000001_Node000003"><a xlink:title=" ">
<path fill="none" stroke="#63b8ff" d="M200,-55.65C200,-47.36 200,-37.78 200,-30.11"/>
<polygon fill="#63b8ff" stroke="#63b8ff" points="196.5,-55.87 200,-65.87 203.5,-55.87 196.5,-55.87"/>
</a>
</g>
</g>
<!-- Node4 -->
<g id="Node000004" class="node">
<title>Node4</title>
<g id="a_Node000004"><a xlink:href="pca9685__handler__comprehensive__test_8cpp.html" target="_top" xlink:title="Comprehensive test suite for Pca9685Handler.">
<polygon fill="white" stroke="#666666" points="464,-30 284,-30 284,0 464,0 464,-30"/>
<text text-anchor="start" x="292" y="-18" font-family="Helvetica,sans-Serif" font-size="10.00">pca9685_handler_comprehensive</text>
<text text-anchor="middle" x="374" y="-7" font-family="Helvetica,sans-Serif" font-size="10.00">_test.cpp</text>
</a>
</g>
</g>
<!-- Node1&#45;&gt;Node4 -->
<g id="edge3_Node000001_Node000004" class="edge">
<title>Node1&#45;&gt;Node4</title>
<g id="a_edge3_Node000001_Node000004"><a xlink:title=" ">
<path fill="none" stroke="#63b8ff" d="M235.08,-62.71C263.11,-53.28 302.49,-40.04 332.17,-30.06"/>
<polygon fill="#63b8ff" stroke="#63b8ff" points="233.66,-59.49 225.3,-65.99 235.9,-66.12 233.66,-59.49"/>
</a>
</g>
</g>
</g>
</svg>
