<?xml version="1.0" encoding="UTF-8" standalone="no"?>
<!DOCTYPE svg PUBLIC "-//W3C//DTD SVG 1.1//EN"
 "http://www.w3.org/Graphics/SVG/1.1/DTD/svg11.dtd">
<!-- Generated by graphviz version 2.43.0 (0)
 -->
<!-- Title: Pca9685Handler.cpp Pages: 1 -->
<svg width="1056pt" height="159pt"
 viewBox="0.00 0.00 1055.50 159.00" xmlns="http://www.w3.org/2000/svg" xmlns:xlink="http://www.w3.org/1999/xlink">
<g id="graph0" class="graph" transform="scale(1 1) rotate(0) translate(4 155)">
<title>Pca9685Handler.cpp</title>
<!-- Node1 -->
<g id="Node000001" class="node">
<title>Node1</title>
<g id="a_Node000001"><a xlink:title="Implementation of the PCA9685 PWM controller handler.">
<polygon fill="#999999" stroke="#666666" points="377.5,-151 261.5,-151 261.5,-132 377.5,-132 377.5,-151"/>
<text text-anchor="middle" x="319.5" y="-139" font-family="Helvetica,sans-Serif" font-size="10.00">Pca9685Handler.cpp</text>
</a>
</g>
</g>
<!-- Node2 -->
<g id="Node000002" class="node">
<title>Node2</title>
<g id="a_Node000002"><a xlink:title=" ">
<polygon fill="#e0e0e0" stroke="#999999" points="251,-96 198,-96 198,-77 251,-77 251,-96"/>
<text text-anchor="middle" x="224.5" y="-84" font-family="Helvetica,sans-Serif" font-size="10.00">string.h</text>
</a>
</g>
</g>
<!-- Node1&#45;&gt;Node2 -->
<g id="edge1_Node000001_Node000002" class="edge">
<title>Node1&#45;&gt;Node2</title>
<g id="a_edge1_Node000001_Node000002"><a xlink:title=" ">
<path fill="none" stroke="#63b8ff" d="M304.24,-131.98C289.37,-123.69 266.52,-110.94 249.08,-101.22"/>
<polygon fill="#63b8ff" stroke="#63b8ff" points="250.48,-97.99 240.04,-96.17 247.07,-104.1 250.48,-97.99"/>
</a>
</g>
</g>
<!-- Node3 -->
<g id="Node000003" class="node">
<title>Node3</title>
<g id="a_Node000003"><a xlink:title=" ">
<polygon fill="#e0e0e0" stroke="#999999" points="47,-30 0,-30 0,-11 47,-11 47,-30"/>
<text text-anchor="middle" x="23.5" y="-18" font-family="Helvetica,sans-Serif" font-size="10.00">cmath</text>
</a>
</g>
</g>
<!-- Node1&#45;&gt;Node3 -->
<g id="edge2_Node000001_Node000003" class="edge">
<title>Node1&#45;&gt;Node3</title>
<g id="a_edge2_Node000001_Node000003"><a xlink:title=" ">
<path fill="none" stroke="#63b8ff" d="M314.06,-131.86C304.75,-117.84 284.33,-90.39 259.5,-77 178.85,-33.5 142.43,-72.82 56.5,-41 52.36,-39.47 48.15,-37.42 44.18,-35.22"/>
<polygon fill="#63b8ff" stroke="#63b8ff" points="45.88,-32.17 35.51,-30.01 42.28,-38.16 45.88,-32.17"/>
</a>
</g>
</g>
<!-- Node4 -->
<g id="Node000004" class="node">
<title>Node4</title>
<g id="a_Node000004"><a xlink:href="Pca9685Handler_8h.html" target="_top" xlink:title="Unified handler for the PCA9685 16&#45;channel 12&#45;bit PWM controller.">
<polygon fill="white" stroke="#666666" points="411.5,-96 307.5,-96 307.5,-77 411.5,-77 411.5,-96"/>
<text text-anchor="middle" x="359.5" y="-84" font-family="Helvetica,sans-Serif" font-size="10.00">Pca9685Handler.h</text>
</a>
</g>
</g>
<!-- Node1&#45;&gt;Node4 -->
<g id="edge3_Node000001_Node000004" class="edge">
<title>Node1&#45;&gt;Node4</title>
<g id="a_edge3_Node000001_Node000004"><a xlink:title=" ">
<path fill="none" stroke="#63b8ff" d="M326.11,-131.75C331.76,-124.26 340.04,-113.28 346.95,-104.13"/>
<polygon fill="#63b8ff" stroke="#63b8ff" points="349.79,-106.18 353.02,-96.09 344.2,-101.96 349.79,-106.18"/>
</a>
</g>
</g>
<!-- Node13 -->
<g id="Node000013" class="node">
<title>Node13</title>
<g id="a_Node000013"><a xlink:href="Logger_8h.html" target="_top" xlink:title="Advanced logging system with formatting capabilities.">
<polygon fill="white" stroke="#666666" points="953,-96 816,-96 816,-77 953,-77 953,-96"/>
<text text-anchor="middle" x="884.5" y="-84" font-family="Helvetica,sans-Serif" font-size="10.00">handlers/logger/Logger.h</text>
</a>
</g>
</g>
<!-- Node1&#45;&gt;Node13 -->
<g id="edge13_Node000001_Node000013" class="edge">
<title>Node1&#45;&gt;Node13</title>
<g id="a_edge13_Node000001_Node000013"><a xlink:title=" ">
<path fill="none" stroke="#63b8ff" d="M377.57,-135.05C479.53,-125.49 690.8,-105.67 805.78,-94.88"/>
<polygon fill="#63b8ff" stroke="#63b8ff" points="806.29,-98.35 815.92,-93.93 805.64,-91.38 806.29,-98.35"/>
</a>
</g>
</g>
<!-- Node4&#45;&gt;Node3 -->
<g id="edge7_Node000004_Node000003" class="edge">
<title>Node4&#45;&gt;Node3</title>
<g id="a_edge7_Node000004_Node000003"><a xlink:title=" ">
<path fill="none" stroke="#63b8ff" d="M307.21,-78.35C223.66,-66.86 68.19,-45.13 56.5,-41 52.34,-39.53 48.11,-37.51 44.14,-35.32"/>
<polygon fill="#63b8ff" stroke="#63b8ff" points="45.85,-32.27 35.48,-30.11 42.24,-38.26 45.85,-32.27"/>
</a>
</g>
</g>
<!-- Node5 -->
<g id="Node000005" class="node">
<title>Node5</title>
<g id="a_Node000005"><a xlink:title=" ">
<polygon fill="#e0e0e0" stroke="#999999" points="115.5,-30 65.5,-30 65.5,-11 115.5,-11 115.5,-30"/>
<text text-anchor="middle" x="90.5" y="-18" font-family="Helvetica,sans-Serif" font-size="10.00">cstdint</text>
</a>
</g>
</g>
<!-- Node4&#45;&gt;Node5 -->
<g id="edge4_Node000004_Node000005" class="edge">
<title>Node4&#45;&gt;Node5</title>
<g id="a_edge4_Node000004_Node000005"><a xlink:title=" ">
<path fill="none" stroke="#63b8ff" d="M307.41,-77.71C248.74,-68.57 157.32,-53.13 124.5,-41 120.34,-39.46 116.08,-37.44 112.06,-35.28"/>
<polygon fill="#63b8ff" stroke="#63b8ff" points="113.65,-32.15 103.24,-30.16 110.13,-38.21 113.65,-32.15"/>
</a>
</g>
</g>
<!-- Node6 -->
<g id="Node000006" class="node">
<title>Node6</title>
<g id="a_Node000006"><a xlink:title=" ">
<polygon fill="#e0e0e0" stroke="#999999" points="839.5,-30 781.5,-30 781.5,-11 839.5,-11 839.5,-30"/>
<text text-anchor="middle" x="810.5" y="-18" font-family="Helvetica,sans-Serif" font-size="10.00">memory</text>
</a>
</g>
</g>
<!-- Node4&#45;&gt;Node6 -->
<g id="edge5_Node000004_Node000006" class="edge">
<title>Node4&#45;&gt;Node6</title>
<g id="a_edge5_Node000004_Node000006"><a xlink:title=" ">
<path fill="none" stroke="#63b8ff" d="M411.56,-85.93C491.06,-85.24 646.76,-78.62 772.5,-41 777.69,-39.45 783.02,-37.19 787.98,-34.76"/>
<polygon fill="#63b8ff" stroke="#63b8ff" points="789.75,-37.78 796.94,-30 786.46,-31.6 789.75,-37.78"/>
</a>
</g>
</g>
<!-- Node7 -->
<g id="Node000007" class="node">
<title>Node7</title>
<g id="a_Node000007"><a xlink:title=" ">
<polygon fill="#e0e0e0" stroke="#999999" points="175.5,-30 133.5,-30 133.5,-11 175.5,-11 175.5,-30"/>
<text text-anchor="middle" x="154.5" y="-18" font-family="Helvetica,sans-Serif" font-size="10.00">array</text>
</a>
</g>
</g>
<!-- Node4&#45;&gt;Node7 -->
<g id="edge6_Node000004_Node000007" class="edge">
<title>Node4&#45;&gt;Node7</title>
<g id="a_edge6_Node000004_Node000007"><a xlink:title=" ">
<path fill="none" stroke="#63b8ff" d="M307.88,-76.99C272.23,-70.01 224.27,-58.41 184.5,-41 180.99,-39.46 177.44,-37.54 174.06,-35.5"/>
<polygon fill="#63b8ff" stroke="#63b8ff" points="175.97,-32.57 165.68,-30.02 172.14,-38.42 175.97,-32.57"/>
</a>
</g>
</g>
<!-- Node8 -->
<g id="Node000008" class="node">
<title>Node8</title>
<g id="a_Node000008"><a xlink:title=" ">
<polygon fill="#e0e0e0" stroke="#999999" points="291.5,-30 193.5,-30 193.5,-11 291.5,-11 291.5,-30"/>
<text text-anchor="middle" x="242.5" y="-18" font-family="Helvetica,sans-Serif" font-size="10.00">base/BaseGpio.h</text>
</a>
</g>
</g>
<!-- Node4&#45;&gt;Node8 -->
<g id="edge8_Node000004_Node000008" class="edge">
<title>Node4&#45;&gt;Node8</title>
<g id="a_edge8_Node000004_Node000008"><a xlink:title=" ">
<path fill="none" stroke="#63b8ff" d="M343.72,-76.87C324.09,-66.13 290.36,-47.68 267.27,-35.05"/>
<polygon fill="#63b8ff" stroke="#63b8ff" points="268.86,-31.93 258.4,-30.2 265.5,-38.07 268.86,-31.93"/>
</a>
</g>
</g>
<!-- Node9 -->
<g id="Node000009" class="node">
<title>Node9</title>
<g id="a_Node000009"><a xlink:title=" ">
<polygon fill="#e0e0e0" stroke="#999999" points="409.5,-30 309.5,-30 309.5,-11 409.5,-11 409.5,-30"/>
<text text-anchor="middle" x="359.5" y="-18" font-family="Helvetica,sans-Serif" font-size="10.00">base/BasePwm.h</text>
</a>
</g>
</g>
<!-- Node4&#45;&gt;Node9 -->
<g id="edge9_Node000004_Node000009" class="edge">
<title>Node4&#45;&gt;Node9</title>
<g id="a_edge9_Node000004_Node000009"><a xlink:title=" ">
<path fill="none" stroke="#63b8ff" d="M359.5,-76.87C359.5,-67.66 359.5,-52.79 359.5,-40.77"/>
<polygon fill="#63b8ff" stroke="#63b8ff" points="363,-40.41 359.5,-30.41 356,-40.41 363,-40.41"/>
</a>
</g>
</g>
<!-- Node10 -->
<g id="Node000010" class="node">
<title>Node10</title>
<g id="a_Node000010"><a xlink:title=" ">
<polygon fill="#e0e0e0" stroke="#999999" points="517.5,-30 427.5,-30 427.5,-11 517.5,-11 517.5,-30"/>
<text text-anchor="middle" x="472.5" y="-18" font-family="Helvetica,sans-Serif" font-size="10.00">base/BaseI2c.h</text>
</a>
</g>
</g>
<!-- Node4&#45;&gt;Node10 -->
<g id="edge10_Node000004_Node000010" class="edge">
<title>Node4&#45;&gt;Node10</title>
<g id="a_edge10_Node000004_Node000010"><a xlink:title=" ">
<path fill="none" stroke="#63b8ff" d="M374.74,-76.87C393.61,-66.18 425.98,-47.85 448.27,-35.22"/>
<polygon fill="#63b8ff" stroke="#63b8ff" points="450.16,-38.17 457.14,-30.2 446.71,-32.08 450.16,-38.17"/>
</a>
</g>
</g>
<!-- Node11 -->
<g id="Node000011" class="node">
<title>Node11</title>
<g id="a_Node000011"><a xlink:title=" ">
<polygon fill="#e0e0e0" stroke="#999999" points="667,-41 536,-41 536,0 667,0 667,-41"/>
<text text-anchor="start" x="544" y="-29" font-family="Helvetica,sans-Serif" font-size="10.00">core/hf&#45;core&#45;drivers</text>
<text text-anchor="start" x="544" y="-18" font-family="Helvetica,sans-Serif" font-size="10.00">/external/hf&#45;pca9685</text>
<text text-anchor="middle" x="601.5" y="-7" font-family="Helvetica,sans-Serif" font-size="10.00">&#45;driver/inc/pca9685.hpp</text>
</a>
</g>
</g>
<!-- Node4&#45;&gt;Node11 -->
<g id="edge11_Node000004_Node000011" class="edge">
<title>Node4&#45;&gt;Node11</title>
<g id="a_edge11_Node000004_Node000011"><a xlink:title=" ">
<path fill="none" stroke="#63b8ff" d="M391.89,-76.94C425.96,-67.92 480.8,-53.42 525.84,-41.51"/>
<polygon fill="#63b8ff" stroke="#63b8ff" points="526.81,-44.87 535.58,-38.93 525.02,-38.11 526.81,-44.87"/>
</a>
</g>
</g>
<!-- Node12 -->
<g id="Node000012" class="node">
<title>Node12</title>
<g id="a_Node000012"><a xlink:title=" ">
<polygon fill="#e0e0e0" stroke="#999999" points="763.5,-30 685.5,-30 685.5,-11 763.5,-11 763.5,-30"/>
<text text-anchor="middle" x="724.5" y="-18" font-family="Helvetica,sans-Serif" font-size="10.00">RtosMutex.h</text>
</a>
</g>
</g>
<!-- Node4&#45;&gt;Node12 -->
<g id="edge12_Node000004_Node000012" class="edge">
<title>Node4&#45;&gt;Node12</title>
<g id="a_edge12_Node000004_Node000012"><a xlink:title=" ">
<path fill="none" stroke="#63b8ff" d="M411.7,-81.98C474.99,-76.85 584.47,-65.15 675.5,-41 682.4,-39.17 689.64,-36.65 696.37,-34.02"/>
<polygon fill="#63b8ff" stroke="#63b8ff" points="697.85,-37.2 705.78,-30.17 695.19,-30.72 697.85,-37.2"/>
</a>
</g>
</g>
<!-- Node13&#45;&gt;Node6 -->
<g id="edge16_Node000013_Node000006" class="edge">
<title>Node13&#45;&gt;Node6</title>
<g id="a_edge16_Node000013_Node000006"><a xlink:title=" ">
<path fill="none" stroke="#63b8ff" d="M874.52,-76.87C862.78,-66.71 843.06,-49.66 828.6,-37.15"/>
<polygon fill="#63b8ff" stroke="#63b8ff" points="830.65,-34.3 820.8,-30.41 826.07,-39.59 830.65,-34.3"/>
</a>
</g>
</g>
<!-- Node14 -->
<g id="Node000014" class="node">
<title>Node14</title>
<g id="a_Node000014"><a xlink:title=" ">
<polygon fill="#e0e0e0" stroke="#999999" points="911,-30 858,-30 858,-11 911,-11 911,-30"/>
<text text-anchor="middle" x="884.5" y="-18" font-family="Helvetica,sans-Serif" font-size="10.00">cstdarg</text>
</a>
</g>
</g>
<!-- Node13&#45;&gt;Node14 -->
<g id="edge14_Node000013_Node000014" class="edge">
<title>Node13&#45;&gt;Node14</title>
<g id="a_edge14_Node000013_Node000014"><a xlink:title=" ">
<path fill="none" stroke="#63b8ff" d="M884.5,-76.87C884.5,-67.66 884.5,-52.79 884.5,-40.77"/>
<polygon fill="#63b8ff" stroke="#63b8ff" points="888,-40.41 884.5,-30.41 881,-40.41 888,-40.41"/>
</a>
</g>
</g>
<!-- Node15 -->
<g id="Node000015" class="node">
<title>Node15</title>
<g id="a_Node000015"><a xlink:title=" ">
<polygon fill="#e0e0e0" stroke="#999999" points="979.5,-30 929.5,-30 929.5,-11 979.5,-11 979.5,-30"/>
<text text-anchor="middle" x="954.5" y="-18" font-family="Helvetica,sans-Serif" font-size="10.00">cstring</text>
</a>
</g>
</g>
<!-- Node13&#45;&gt;Node15 -->
<g id="edge15_Node000013_Node000015" class="edge">
<title>Node13&#45;&gt;Node15</title>
<g id="a_edge15_Node000013_Node000015"><a xlink:title=" ">
<path fill="none" stroke="#63b8ff" d="M893.94,-76.87C905.05,-66.71 923.7,-49.66 937.38,-37.15"/>
<polygon fill="#63b8ff" stroke="#63b8ff" points="939.74,-39.74 944.76,-30.41 935.02,-34.57 939.74,-39.74"/>
</a>
</g>
</g>
<!-- Node16 -->
<g id="Node000016" class="node">
<title>Node16</title>
<g id="a_Node000016"><a xlink:title=" ">
<polygon fill="#e0e0e0" stroke="#999999" points="1047.5,-30 997.5,-30 997.5,-11 1047.5,-11 1047.5,-30"/>
<text text-anchor="middle" x="1022.5" y="-18" font-family="Helvetica,sans-Serif" font-size="10.00">atomic</text>
</a>
</g>
</g>
<!-- Node13&#45;&gt;Node16 -->
<g id="edge17_Node000013_Node000016" class="edge">
<title>Node13&#45;&gt;Node16</title>
<g id="a_edge17_Node000013_Node000016"><a xlink:title=" ">
<path fill="none" stroke="#63b8ff" d="M906.75,-76.85C928.04,-68.38 960.91,-54.76 988.5,-41 992.16,-39.17 995.98,-37.13 999.68,-35.07"/>
<polygon fill="#63b8ff" stroke="#63b8ff" points="1001.54,-38.04 1008.47,-30.03 998.06,-31.97 1001.54,-38.04"/>
</a>
</g>
</g>
</g>
</svg>
