<?xml version="1.0" encoding="UTF-8" standalone="no"?>
<!DOCTYPE svg PUBLIC "-//W3C//DTD SVG 1.1//EN"
 "http://www.w3.org/Graphics/SVG/1.1/DTD/svg11.dtd">
<!-- Generated by graphviz version 2.43.0 (0)
 -->
<!-- Title: Pcal95555Handler.cpp Pages: 1 -->
<svg width="1032pt" height="159pt"
 viewBox="0.00 0.00 1032.00 159.00" xmlns="http://www.w3.org/2000/svg" xmlns:xlink="http://www.w3.org/1999/xlink">
<g id="graph0" class="graph" transform="scale(1 1) rotate(0) translate(4 155)">
<title>Pcal95555Handler.cpp</title>
<!-- Node1 -->
<g id="Node000001" class="node">
<title>Node1</title>
<g id="a_Node000001"><a xlink:title="Implementation of the PCAL95555 GPIO expander handler.">
<polygon fill="#999999" stroke="#666666" points="533.5,-151 408.5,-151 408.5,-132 533.5,-132 533.5,-151"/>
<text text-anchor="middle" x="471" y="-139" font-family="Helvetica,sans-Serif" font-size="10.00">Pcal95555Handler.cpp</text>
</a>
</g>
</g>
<!-- Node2 -->
<g id="Node000002" class="node">
<title>Node2</title>
<g id="a_Node000002"><a xlink:href="Pcal95555Handler_8h.html" target="_top" xlink:title="Unified handler for the PCA9555 / PCAL9555A 16&#45;bit I2C GPIO expander.">
<polygon fill="white" stroke="#666666" points="527.5,-96 414.5,-96 414.5,-77 527.5,-77 527.5,-96"/>
<text text-anchor="middle" x="471" y="-84" font-family="Helvetica,sans-Serif" font-size="10.00">Pcal95555Handler.h</text>
</a>
</g>
</g>
<!-- Node1&#45;&gt;Node2 -->
<g id="edge1_Node000001_Node000002" class="edge">
<title>Node1&#45;&gt;Node2</title>
<g id="a_edge1_Node000001_Node000002"><a xlink:title=" ">
<path fill="none" stroke="#63b8ff" d="M471,-131.75C471,-124.8 471,-114.85 471,-106.13"/>
<polygon fill="#63b8ff" stroke="#63b8ff" points="474.5,-106.09 471,-96.09 467.5,-106.09 474.5,-106.09"/>
</a>
</g>
</g>
<!-- Node12 -->
<g id="Node000012" class="node">
<title>Node12</title>
<g id="a_Node000012"><a xlink:href="Logger_8h.html" target="_top" xlink:title="Advanced logging system with formatting capabilities.">
<polygon fill="white" stroke="#666666" points="246.5,-96 109.5,-96 109.5,-77 246.5,-77 246.5,-96"/>
<text text-anchor="middle" x="178" y="-84" font-family="Helvetica,sans-Serif" font-size="10.00">handlers/logger/Logger.h</text>
</a>
</g>
</g>
<!-- Node1&#45;&gt;Node12 -->
<g id="edge11_Node000001_Node000012" class="edge">
<title>Node1&#45;&gt;Node12</title>
<g id="a_edge11_Node000001_Node000012"><a xlink:title=" ">
<path fill="none" stroke="#63b8ff" d="M423.92,-131.98C372.6,-122.7 290.46,-107.84 235.4,-97.88"/>
<polygon fill="#63b8ff" stroke="#63b8ff" points="235.91,-94.42 225.44,-96.08 234.66,-101.31 235.91,-94.42"/>
</a>
</g>
</g>
<!-- Node16 -->
<g id="Node000016" class="node">
<title>Node16</title>
<g id="a_Node000016"><a xlink:title=" ">
<polygon fill="#e0e0e0" stroke="#999999" points="596,-96 546,-96 546,-77 596,-77 596,-96"/>
<text text-anchor="middle" x="571" y="-84" font-family="Helvetica,sans-Serif" font-size="10.00">cstring</text>
</a>
</g>
</g>
<!-- Node1&#45;&gt;Node16 -->
<g id="edge17_Node000001_Node000016" class="edge">
<title>Node1&#45;&gt;Node16</title>
<g id="a_edge17_Node000001_Node000016"><a xlink:title=" ">
<path fill="none" stroke="#63b8ff" d="M487.07,-131.98C502.86,-123.61 527.22,-110.7 545.63,-100.95"/>
<polygon fill="#63b8ff" stroke="#63b8ff" points="547.44,-103.95 554.64,-96.17 544.17,-97.76 547.44,-103.95"/>
</a>
</g>
</g>
<!-- Node3 -->
<g id="Node000003" class="node">
<title>Node3</title>
<g id="a_Node000003"><a xlink:title=" ">
<polygon fill="#e0e0e0" stroke="#999999" points="234,-30 184,-30 184,-11 234,-11 234,-30"/>
<text text-anchor="middle" x="209" y="-18" font-family="Helvetica,sans-Serif" font-size="10.00">atomic</text>
</a>
</g>
</g>
<!-- Node2&#45;&gt;Node3 -->
<g id="edge2_Node000002_Node000003" class="edge">
<title>Node2&#45;&gt;Node3</title>
<g id="a_edge2_Node000002_Node000003"><a xlink:title=" ">
<path fill="none" stroke="#63b8ff" d="M414.31,-79.67C367.31,-73.62 299.31,-61.99 243,-41 238.84,-39.45 234.59,-37.42 230.57,-35.26"/>
<polygon fill="#63b8ff" stroke="#63b8ff" points="232.15,-32.14 221.75,-30.14 228.64,-38.19 232.15,-32.14"/>
</a>
</g>
</g>
<!-- Node4 -->
<g id="Node000004" class="node">
<title>Node4</title>
<g id="a_Node000004"><a xlink:title=" ">
<polygon fill="#e0e0e0" stroke="#999999" points="1024,-30 974,-30 974,-11 1024,-11 1024,-30"/>
<text text-anchor="middle" x="999" y="-18" font-family="Helvetica,sans-Serif" font-size="10.00">cstdint</text>
</a>
</g>
</g>
<!-- Node2&#45;&gt;Node4 -->
<g id="edge3_Node000002_Node000004" class="edge">
<title>Node2&#45;&gt;Node4</title>
<g id="a_edge3_Node000002_Node000004"><a xlink:title=" ">
<path fill="none" stroke="#63b8ff" d="M527.51,-78.06C530.72,-77.68 533.9,-77.33 537,-77 726.82,-56.8 782.76,-97.84 965,-41 969.51,-39.59 974.07,-37.52 978.32,-35.24"/>
<polygon fill="#63b8ff" stroke="#63b8ff" points="980.18,-38.21 987.01,-30.1 976.62,-32.18 980.18,-38.21"/>
</a>
</g>
</g>
<!-- Node5 -->
<g id="Node000005" class="node">
<title>Node5</title>
<g id="a_Node000005"><a xlink:title=" ">
<polygon fill="#e0e0e0" stroke="#999999" points="310,-30 252,-30 252,-11 310,-11 310,-30"/>
<text text-anchor="middle" x="281" y="-18" font-family="Helvetica,sans-Serif" font-size="10.00">memory</text>
</a>
</g>
</g>
<!-- Node2&#45;&gt;Node5 -->
<g id="edge4_Node000002_Node000005" class="edge">
<title>Node2&#45;&gt;Node5</title>
<g id="a_edge4_Node000002_Node000005"><a xlink:title=" ">
<path fill="none" stroke="#63b8ff" d="M434.73,-76.94C403.52,-69.1 357.57,-56.38 319,-41 314.42,-39.17 309.65,-36.98 305.11,-34.73"/>
<polygon fill="#63b8ff" stroke="#63b8ff" points="306.71,-31.62 296.22,-30.15 303.5,-37.84 306.71,-31.62"/>
</a>
</g>
</g>
<!-- Node6 -->
<g id="Node000006" class="node">
<title>Node6</title>
<g id="a_Node000006"><a xlink:title=" ">
<polygon fill="#e0e0e0" stroke="#999999" points="370,-30 328,-30 328,-11 370,-11 370,-30"/>
<text text-anchor="middle" x="349" y="-18" font-family="Helvetica,sans-Serif" font-size="10.00">array</text>
</a>
</g>
</g>
<!-- Node2&#45;&gt;Node6 -->
<g id="edge5_Node000002_Node000006" class="edge">
<title>Node2&#45;&gt;Node6</title>
<g id="a_edge5_Node000002_Node000006"><a xlink:title=" ">
<path fill="none" stroke="#63b8ff" d="M451.88,-76.87C433.25,-68.3 404.28,-54.52 380,-41 377,-39.33 373.89,-37.5 370.84,-35.64"/>
<polygon fill="#63b8ff" stroke="#63b8ff" points="372.42,-32.5 362.09,-30.17 368.71,-38.44 372.42,-32.5"/>
</a>
</g>
</g>
<!-- Node7 -->
<g id="Node000007" class="node">
<title>Node7</title>
<g id="a_Node000007"><a xlink:title=" ">
<polygon fill="#e0e0e0" stroke="#999999" points="453.5,-30 388.5,-30 388.5,-11 453.5,-11 453.5,-30"/>
<text text-anchor="middle" x="421" y="-18" font-family="Helvetica,sans-Serif" font-size="10.00">functional</text>
</a>
</g>
</g>
<!-- Node2&#45;&gt;Node7 -->
<g id="edge6_Node000002_Node000007" class="edge">
<title>Node2&#45;&gt;Node7</title>
<g id="a_edge6_Node000002_Node000007"><a xlink:title=" ">
<path fill="none" stroke="#63b8ff" d="M464.26,-76.87C456.62,-67.09 443.99,-50.92 434.34,-38.58"/>
<polygon fill="#63b8ff" stroke="#63b8ff" points="436.87,-36.13 427.96,-30.41 431.36,-40.44 436.87,-36.13"/>
</a>
</g>
</g>
<!-- Node8 -->
<g id="Node000008" class="node">
<title>Node8</title>
<g id="a_Node000008"><a xlink:title=" ">
<polygon fill="#e0e0e0" stroke="#999999" points="570,-30 472,-30 472,-11 570,-11 570,-30"/>
<text text-anchor="middle" x="521" y="-18" font-family="Helvetica,sans-Serif" font-size="10.00">base/BaseGpio.h</text>
</a>
</g>
</g>
<!-- Node2&#45;&gt;Node8 -->
<g id="edge7_Node000002_Node000008" class="edge">
<title>Node2&#45;&gt;Node8</title>
<g id="a_edge7_Node000002_Node000008"><a xlink:title=" ">
<path fill="none" stroke="#63b8ff" d="M477.74,-76.87C485.38,-67.09 498.01,-50.92 507.66,-38.58"/>
<polygon fill="#63b8ff" stroke="#63b8ff" points="510.64,-40.44 514.04,-30.41 505.13,-36.13 510.64,-40.44"/>
</a>
</g>
</g>
<!-- Node9 -->
<g id="Node000009" class="node">
<title>Node9</title>
<g id="a_Node000009"><a xlink:title=" ">
<polygon fill="#e0e0e0" stroke="#999999" points="678,-30 588,-30 588,-11 678,-11 678,-30"/>
<text text-anchor="middle" x="633" y="-18" font-family="Helvetica,sans-Serif" font-size="10.00">base/BaseI2c.h</text>
</a>
</g>
</g>
<!-- Node2&#45;&gt;Node9 -->
<g id="edge8_Node000002_Node000009" class="edge">
<title>Node2&#45;&gt;Node9</title>
<g id="a_edge8_Node000002_Node000009"><a xlink:title=" ">
<path fill="none" stroke="#63b8ff" d="M492.85,-76.87C520.95,-65.77 569.93,-46.42 601.9,-33.78"/>
<polygon fill="#63b8ff" stroke="#63b8ff" points="603.23,-37.03 611.24,-30.1 600.65,-30.52 603.23,-37.03"/>
</a>
</g>
</g>
<!-- Node10 -->
<g id="Node000010" class="node">
<title>Node10</title>
<g id="a_Node000010"><a xlink:title=" ">
<polygon fill="#e0e0e0" stroke="#999999" points="836,-41 696,-41 696,0 836,0 836,-41"/>
<text text-anchor="start" x="704" y="-29" font-family="Helvetica,sans-Serif" font-size="10.00">core/hf&#45;core&#45;drivers</text>
<text text-anchor="start" x="704" y="-18" font-family="Helvetica,sans-Serif" font-size="10.00">/external/hf&#45;pcal95555</text>
<text text-anchor="middle" x="766" y="-7" font-family="Helvetica,sans-Serif" font-size="10.00">&#45;driver/inc/pcal95555.hpp</text>
</a>
</g>
</g>
<!-- Node2&#45;&gt;Node10 -->
<g id="edge9_Node000002_Node000010" class="edge">
<title>Node2&#45;&gt;Node10</title>
<g id="a_edge9_Node000002_Node000010"><a xlink:title=" ">
<path fill="none" stroke="#63b8ff" d="M514.96,-76.96C556.55,-68.77 620.95,-55.78 685.83,-41.23"/>
<polygon fill="#63b8ff" stroke="#63b8ff" points="686.84,-44.59 695.82,-38.97 685.3,-37.76 686.84,-44.59"/>
</a>
</g>
</g>
<!-- Node11 -->
<g id="Node000011" class="node">
<title>Node11</title>
<g id="a_Node000011"><a xlink:title=" ">
<polygon fill="#e0e0e0" stroke="#999999" points="956,-30 854,-30 854,-11 956,-11 956,-30"/>
<text text-anchor="middle" x="905" y="-18" font-family="Helvetica,sans-Serif" font-size="10.00">utils/RtosMutex.h</text>
</a>
</g>
</g>
<!-- Node2&#45;&gt;Node11 -->
<g id="edge10_Node000002_Node000011" class="edge">
<title>Node2&#45;&gt;Node11</title>
<g id="a_edge10_Node000002_Node000011"><a xlink:title=" ">
<path fill="none" stroke="#63b8ff" d="M527.52,-78.18C530.73,-77.77 533.9,-77.38 537,-77 673.79,-60.2 710.36,-70.44 845,-41 854.1,-39.01 863.77,-36.19 872.63,-33.32"/>
<polygon fill="#63b8ff" stroke="#63b8ff" points="873.86,-36.59 882.21,-30.08 871.62,-29.96 873.86,-36.59"/>
</a>
</g>
</g>
<!-- Node12&#45;&gt;Node3 -->
<g id="edge15_Node000012_Node000003" class="edge">
<title>Node12&#45;&gt;Node3</title>
<g id="a_edge15_Node000012_Node000003"><a xlink:title=" ">
<path fill="none" stroke="#63b8ff" d="M182.18,-76.87C186.78,-67.38 194.29,-51.86 200.2,-39.66"/>
<polygon fill="#63b8ff" stroke="#63b8ff" points="203.48,-40.93 204.69,-30.41 197.18,-37.88 203.48,-40.93"/>
</a>
</g>
</g>
<!-- Node12&#45;&gt;Node5 -->
<g id="edge14_Node000012_Node000005" class="edge">
<title>Node12&#45;&gt;Node5</title>
<g id="a_edge14_Node000012_Node000005"><a xlink:title=" ">
<path fill="none" stroke="#63b8ff" d="M191.89,-76.87C208.94,-66.28 238.07,-48.17 258.37,-35.56"/>
<polygon fill="#63b8ff" stroke="#63b8ff" points="260.35,-38.45 267,-30.2 256.66,-32.5 260.35,-38.45"/>
</a>
</g>
</g>
<!-- Node13 -->
<g id="Node000013" class="node">
<title>Node13</title>
<g id="a_Node000013"><a xlink:title=" ">
<polygon fill="#e0e0e0" stroke="#999999" points="44,-30 0,-30 0,-11 44,-11 44,-30"/>
<text text-anchor="middle" x="22" y="-18" font-family="Helvetica,sans-Serif" font-size="10.00">string</text>
</a>
</g>
</g>
<!-- Node12&#45;&gt;Node13 -->
<g id="edge12_Node000012_Node000013" class="edge">
<title>Node12&#45;&gt;Node13</title>
<g id="a_edge12_Node000012_Node000013"><a xlink:title=" ">
<path fill="none" stroke="#63b8ff" d="M148.21,-76.92C122.41,-69.02 84.4,-56.23 53,-41 49.7,-39.4 46.31,-37.53 43.04,-35.59"/>
<polygon fill="#63b8ff" stroke="#63b8ff" points="44.64,-32.46 34.31,-30.12 40.92,-38.39 44.64,-32.46"/>
</a>
</g>
</g>
<!-- Node14 -->
<g id="Node000014" class="node">
<title>Node14</title>
<g id="a_Node000014"><a xlink:title=" ">
<polygon fill="#e0e0e0" stroke="#999999" points="109.5,-30 62.5,-30 62.5,-11 109.5,-11 109.5,-30"/>
<text text-anchor="middle" x="86" y="-18" font-family="Helvetica,sans-Serif" font-size="10.00">vector</text>
</a>
</g>
</g>
<!-- Node12&#45;&gt;Node14 -->
<g id="edge13_Node000012_Node000014" class="edge">
<title>Node12&#45;&gt;Node14</title>
<g id="a_edge13_Node000012_Node000014"><a xlink:title=" ">
<path fill="none" stroke="#63b8ff" d="M165.59,-76.87C150.64,-66.47 125.28,-48.82 107.2,-36.25"/>
<polygon fill="#63b8ff" stroke="#63b8ff" points="108.71,-33.04 98.5,-30.2 104.72,-38.78 108.71,-33.04"/>
</a>
</g>
</g>
<!-- Node15 -->
<g id="Node000015" class="node">
<title>Node15</title>
<g id="a_Node000015"><a xlink:title=" ">
<polygon fill="#e0e0e0" stroke="#999999" points="166,-30 128,-30 128,-11 166,-11 166,-30"/>
<text text-anchor="middle" x="147" y="-18" font-family="Helvetica,sans-Serif" font-size="10.00">map</text>
</a>
</g>
</g>
<!-- Node12&#45;&gt;Node15 -->
<g id="edge16_Node000012_Node000015" class="edge">
<title>Node12&#45;&gt;Node15</title>
<g id="a_edge16_Node000012_Node000015"><a xlink:title=" ">
<path fill="none" stroke="#63b8ff" d="M173.82,-76.87C169.22,-67.38 161.71,-51.86 155.8,-39.66"/>
<polygon fill="#63b8ff" stroke="#63b8ff" points="158.82,-37.88 151.31,-30.41 152.52,-40.93 158.82,-37.88"/>
</a>
</g>
</g>
</g>
</svg>
