<?xml version="1.0" encoding="UTF-8" standalone="no"?>
<!DOCTYPE svg PUBLIC "-//W3C//DTD SVG 1.1//EN"
 "http://www.w3.org/Graphics/SVG/1.1/DTD/svg11.dtd">
<!-- Generated by graphviz version 2.43.0 (0)
 -->
<!-- Title: print_test_section_status Pages: 1 -->
<svg width="429pt" height="38pt"
 viewBox="0.00 0.00 429.00 38.00" xmlns="http://www.w3.org/2000/svg" xmlns:xlink="http://www.w3.org/1999/xlink">
<g id="graph0" class="graph" transform="scale(1 1) rotate(0) translate(4 34)">
<title>print_test_section_status</title>
<!-- Node1 -->
<g id="Node000001" class="node">
<title>Node1</title>
<g id="a_Node000001"><a xlink:title="Print standardized test summary.">
<polygon fill="#999999" stroke="#666666" points="104,-30 0,-30 0,0 104,0 104,-30"/>
<text text-anchor="start" x="8" y="-18" font-family="Helvetica,sans-Serif" font-size="10.00">print_test_section</text>
<text text-anchor="middle" x="52" y="-7" font-family="Helvetica,sans-Serif" font-size="10.00">_status</text>
</a>
</g>
</g>
<!-- Node2 -->
<g id="Node000002" class="node">
<title>Node2</title>
<g id="a_Node000002"><a xlink:href="TestFramework_8h.html#a57a48f91a141d98e45f82937581e1a97" target="_top" xlink:title="Automatically initialize GPIO14 test indicator if not already done.">
<polygon fill="white" stroke="#666666" points="281,-24.5 140,-24.5 140,-5.5 281,-5.5 281,-24.5"/>
<text text-anchor="middle" x="210.5" y="-12.5" font-family="Helvetica,sans-Serif" font-size="10.00">ensure_gpio14_initialized</text>
</a>
</g>
</g>
<!-- Node1&#45;&gt;Node2 -->
<g id="edge1_Node000001_Node000002" class="edge">
<title>Node1&#45;&gt;Node2</title>
<g id="a_edge1_Node000001_Node000002"><a xlink:title=" ">
<path fill="none" stroke="#63b8ff" d="M104.24,-15C112.45,-15 121.1,-15 129.77,-15"/>
<polygon fill="#63b8ff" stroke="#63b8ff" points="129.95,-18.5 139.95,-15 129.95,-11.5 129.95,-18.5"/>
</a>
</g>
</g>
<!-- Node3 -->
<g id="Node000003" class="node">
<title>Node3</title>
<g id="a_Node000003"><a xlink:href="TestFramework_8h.html#a3967179ac699a5b02ef9787b549409fe" target="_top" xlink:title="Initialize the test progression indicator on GPIO14.">
<polygon fill="white" stroke="#666666" points="421,-30 317,-30 317,0 421,0 421,-30"/>
<text text-anchor="start" x="325" y="-18" font-family="Helvetica,sans-Serif" font-size="10.00">init_test_progress</text>
<text text-anchor="middle" x="369" y="-7" font-family="Helvetica,sans-Serif" font-size="10.00">_indicator</text>
</a>
</g>
</g>
<!-- Node2&#45;&gt;Node3 -->
<g id="edge2_Node000002_Node000003" class="edge">
<title>Node2&#45;&gt;Node3</title>
<g id="a_edge2_Node000002_Node000003"><a xlink:title=" ">
<path fill="none" stroke="#63b8ff" d="M281.05,-15C289.64,-15 298.38,-15 306.83,-15"/>
<polygon fill="#63b8ff" stroke="#63b8ff" points="306.97,-18.5 316.97,-15 306.97,-11.5 306.97,-18.5"/>
</a>
</g>
</g>
</g>
</svg>
