<?xml version="1.0" encoding="UTF-8" standalone="no"?>
<!DOCTYPE svg PUBLIC "-//W3C//DTD SVG 1.1//EN"
 "http://www.w3.org/Graphics/SVG/1.1/DTD/svg11.dtd">
<!-- Generated by graphviz version 2.43.0 (0)
 -->
<!-- Title: Tle92466edHandler.h Pages: 1 -->
<svg width="954pt" height="115pt"
 viewBox="0.00 0.00 953.50 115.00" xmlns="http://www.w3.org/2000/svg" xmlns:xlink="http://www.w3.org/1999/xlink">
<g id="graph0" class="graph" transform="scale(1 1) rotate(0) translate(4 111)">
<title>Tle92466edHandler.h</title>
<!-- Node1 -->
<g id="Node000001" class="node">
<title>Node1</title>
<g id="a_Node000001"><a xlink:title="Unified handler for TLE92466ED six&#45;channel low&#45;side solenoid driver IC.">
<polygon fill="#999999" stroke="#666666" points="407,-107 287,-107 287,-88 407,-88 407,-107"/>
<text text-anchor="middle" x="347" y="-95" font-family="Helvetica,sans-Serif" font-size="10.00">Tle92466edHandler.h</text>
</a>
</g>
</g>
<!-- Node2 -->
<g id="Node000002" class="node">
<title>Node2</title>
<g id="a_Node000002"><a xlink:title=" ">
<polygon fill="#e0e0e0" stroke="#999999" points="50,-35.5 0,-35.5 0,-16.5 50,-16.5 50,-35.5"/>
<text text-anchor="middle" x="25" y="-23.5" font-family="Helvetica,sans-Serif" font-size="10.00">cstdint</text>
</a>
</g>
</g>
<!-- Node1&#45;&gt;Node2 -->
<g id="edge1_Node000001_Node000002" class="edge">
<title>Node1&#45;&gt;Node2</title>
<g id="a_edge1_Node000001_Node000002"><a xlink:title=" ">
<path fill="none" stroke="#63b8ff" d="M286.85,-95.49C226.98,-92.61 133.52,-82.95 59,-52 53.02,-49.52 47.11,-45.77 41.95,-41.92"/>
<polygon fill="#63b8ff" stroke="#63b8ff" points="44.04,-39.12 34.06,-35.57 39.65,-44.57 44.04,-39.12"/>
</a>
</g>
</g>
<!-- Node3 -->
<g id="Node000003" class="node">
<title>Node3</title>
<g id="a_Node000003"><a xlink:title=" ">
<polygon fill="#e0e0e0" stroke="#999999" points="126,-35.5 68,-35.5 68,-16.5 126,-16.5 126,-35.5"/>
<text text-anchor="middle" x="97" y="-23.5" font-family="Helvetica,sans-Serif" font-size="10.00">memory</text>
</a>
</g>
</g>
<!-- Node1&#45;&gt;Node3 -->
<g id="edge2_Node000001_Node000003" class="edge">
<title>Node1&#45;&gt;Node3</title>
<g id="a_edge2_Node000001_Node000003"><a xlink:title=" ">
<path fill="none" stroke="#63b8ff" d="M286.73,-89.96C243.3,-83.81 183.96,-72.38 135,-52 128.49,-49.29 121.9,-45.43 116.08,-41.56"/>
<polygon fill="#63b8ff" stroke="#63b8ff" points="117.87,-38.53 107.69,-35.61 113.82,-44.24 117.87,-38.53"/>
</a>
</g>
</g>
<!-- Node4 -->
<g id="Node000004" class="node">
<title>Node4</title>
<g id="a_Node000004"><a xlink:title=" ">
<polygon fill="#e0e0e0" stroke="#999999" points="197.5,-35.5 144.5,-35.5 144.5,-16.5 197.5,-16.5 197.5,-35.5"/>
<text text-anchor="middle" x="171" y="-23.5" font-family="Helvetica,sans-Serif" font-size="10.00">cstdarg</text>
</a>
</g>
</g>
<!-- Node1&#45;&gt;Node4 -->
<g id="edge3_Node000001_Node000004" class="edge">
<title>Node1&#45;&gt;Node4</title>
<g id="a_edge3_Node000001_Node000004"><a xlink:title=" ">
<path fill="none" stroke="#63b8ff" d="M309.88,-87.94C280.97,-80.52 240.29,-68.39 207,-52 201.14,-49.12 195.16,-45.35 189.8,-41.63"/>
<polygon fill="#63b8ff" stroke="#63b8ff" points="191.64,-38.64 181.5,-35.55 187.51,-44.28 191.64,-38.64"/>
</a>
</g>
</g>
<!-- Node5 -->
<g id="Node000005" class="node">
<title>Node5</title>
<g id="a_Node000005"><a xlink:title=" ">
<polygon fill="#e0e0e0" stroke="#999999" points="256,-35.5 216,-35.5 216,-16.5 256,-16.5 256,-35.5"/>
<text text-anchor="middle" x="236" y="-23.5" font-family="Helvetica,sans-Serif" font-size="10.00">span</text>
</a>
</g>
</g>
<!-- Node1&#45;&gt;Node5 -->
<g id="edge4_Node000001_Node000005" class="edge">
<title>Node1&#45;&gt;Node5</title>
<g id="a_edge4_Node000001_Node000005"><a xlink:title=" ">
<path fill="none" stroke="#63b8ff" d="M328.43,-87.85C311.36,-79.57 285.66,-66.27 265,-52 260.95,-49.2 256.82,-45.94 252.99,-42.7"/>
<polygon fill="#63b8ff" stroke="#63b8ff" points="255.06,-39.86 245.25,-35.87 250.43,-45.11 255.06,-39.86"/>
</a>
</g>
</g>
<!-- Node6 -->
<g id="Node000006" class="node">
<title>Node6</title>
<g id="a_Node000006"><a xlink:title=" ">
<polygon fill="#e0e0e0" stroke="#999999" points="419.5,-46.5 274.5,-46.5 274.5,-5.5 419.5,-5.5 419.5,-46.5"/>
<text text-anchor="start" x="282.5" y="-34.5" font-family="Helvetica,sans-Serif" font-size="10.00">core/hf&#45;core&#45;drivers</text>
<text text-anchor="start" x="282.5" y="-23.5" font-family="Helvetica,sans-Serif" font-size="10.00">/external/hf&#45;tle92466ed</text>
<text text-anchor="middle" x="347" y="-12.5" font-family="Helvetica,sans-Serif" font-size="10.00">&#45;driver/inc/tle92466ed.hpp</text>
</a>
</g>
</g>
<!-- Node1&#45;&gt;Node6 -->
<g id="edge5_Node000001_Node000006" class="edge">
<title>Node1&#45;&gt;Node6</title>
<g id="a_edge5_Node000001_Node000006"><a xlink:title=" ">
<path fill="none" stroke="#63b8ff" d="M347,-87.98C347,-80.15 347,-68.08 347,-56.74"/>
<polygon fill="#63b8ff" stroke="#63b8ff" points="350.5,-56.67 347,-46.67 343.5,-56.67 350.5,-56.67"/>
</a>
</g>
</g>
<!-- Node7 -->
<g id="Node000007" class="node">
<title>Node7</title>
<g id="a_Node000007"><a xlink:title=" ">
<polygon fill="#e0e0e0" stroke="#999999" points="568.5,-52 437.5,-52 437.5,0 568.5,0 568.5,-52"/>
<text text-anchor="start" x="445.5" y="-40" font-family="Helvetica,sans-Serif" font-size="10.00">core/hf&#45;core&#45;drivers</text>
<text text-anchor="start" x="445.5" y="-29" font-family="Helvetica,sans-Serif" font-size="10.00">/external/hf&#45;tle92466ed</text>
<text text-anchor="start" x="445.5" y="-18" font-family="Helvetica,sans-Serif" font-size="10.00">&#45;driver/inc/tle92466ed</text>
<text text-anchor="middle" x="503" y="-7" font-family="Helvetica,sans-Serif" font-size="10.00">_spi_interface.hpp</text>
</a>
</g>
</g>
<!-- Node1&#45;&gt;Node7 -->
<g id="edge6_Node000001_Node000007" class="edge">
<title>Node1&#45;&gt;Node7</title>
<g id="a_edge6_Node000001_Node000007"><a xlink:title=" ">
<path fill="none" stroke="#63b8ff" d="M366.13,-87.98C383.95,-80.04 411.59,-67.73 437.37,-56.24"/>
<polygon fill="#63b8ff" stroke="#63b8ff" points="439.05,-59.32 446.76,-52.05 436.2,-52.93 439.05,-59.32"/>
</a>
</g>
</g>
<!-- Node8 -->
<g id="Node000008" class="node">
<title>Node8</title>
<g id="a_Node000008"><a xlink:title=" ">
<polygon fill="#e0e0e0" stroke="#999999" points="677.5,-35.5 586.5,-35.5 586.5,-16.5 677.5,-16.5 677.5,-35.5"/>
<text text-anchor="middle" x="632" y="-23.5" font-family="Helvetica,sans-Serif" font-size="10.00">base/BaseSpi.h</text>
</a>
</g>
</g>
<!-- Node1&#45;&gt;Node8 -->
<g id="edge7_Node000001_Node000008" class="edge">
<title>Node1&#45;&gt;Node8</title>
<g id="a_edge7_Node000001_Node000008"><a xlink:title=" ">
<path fill="none" stroke="#63b8ff" d="M407.35,-88.98C454.56,-82.12 521.44,-70.24 578,-52 587.68,-48.88 597.89,-44.46 606.8,-40.21"/>
<polygon fill="#63b8ff" stroke="#63b8ff" points="608.46,-43.3 615.87,-35.73 605.36,-37.02 608.46,-43.3"/>
</a>
</g>
</g>
<!-- Node9 -->
<g id="Node000009" class="node">
<title>Node9</title>
<g id="a_Node000009"><a xlink:title=" ">
<polygon fill="#e0e0e0" stroke="#999999" points="794,-35.5 696,-35.5 696,-16.5 794,-16.5 794,-35.5"/>
<text text-anchor="middle" x="745" y="-23.5" font-family="Helvetica,sans-Serif" font-size="10.00">base/BaseGpio.h</text>
</a>
</g>
</g>
<!-- Node1&#45;&gt;Node9 -->
<g id="edge8_Node000001_Node000009" class="edge">
<title>Node1&#45;&gt;Node9</title>
<g id="a_edge8_Node000001_Node000009"><a xlink:title=" ">
<path fill="none" stroke="#63b8ff" d="M407.26,-93.65C476.01,-89.25 591.29,-78.34 687,-52 697.78,-49.03 709.18,-44.46 718.99,-40.03"/>
<polygon fill="#63b8ff" stroke="#63b8ff" points="720.62,-43.14 728.19,-35.72 717.65,-36.8 720.62,-43.14"/>
</a>
</g>
</g>
<!-- Node10 -->
<g id="Node000010" class="node">
<title>Node10</title>
<g id="a_Node000010"><a xlink:title=" ">
<polygon fill="#e0e0e0" stroke="#999999" points="945.5,-52 812.5,-52 812.5,0 945.5,0 945.5,-52"/>
<text text-anchor="start" x="820.5" y="-40" font-family="Helvetica,sans-Serif" font-size="10.00">core/hf&#45;core&#45;drivers</text>
<text text-anchor="start" x="820.5" y="-29" font-family="Helvetica,sans-Serif" font-size="10.00">/internal/hf&#45;internal</text>
<text text-anchor="start" x="820.5" y="-18" font-family="Helvetica,sans-Serif" font-size="10.00">&#45;interface&#45;wrap/inc/utils</text>
<text text-anchor="middle" x="879" y="-7" font-family="Helvetica,sans-Serif" font-size="10.00">/RtosMutex.h</text>
</a>
</g>
</g>
<!-- Node1&#45;&gt;Node10 -->
<g id="edge9_Node000001_Node000010" class="edge">
<title>Node1&#45;&gt;Node10</title>
<g id="a_edge9_Node000001_Node000010"><a xlink:title=" ">
<path fill="none" stroke="#63b8ff" d="M407.03,-94.85C492.87,-91.56 655.57,-81.91 802.4,-51.9"/>
<polygon fill="#63b8ff" stroke="#63b8ff" points="803.42,-55.26 812.5,-49.79 802,-48.41 803.42,-55.26"/>
</a>
</g>
</g>
</g>
</svg>
