<?xml version="1.0" encoding="UTF-8" standalone="no"?>
<!DOCTYPE svg PUBLIC "-//W3C//DTD SVG 1.1//EN"
 "http://www.w3.org/Graphics/SVG/1.1/DTD/svg11.dtd">
<!-- Generated by graphviz version 2.43.0 (0)
 -->
<!-- Title: Tmc5160Handler.cpp Pages: 1 -->
<svg width="1643pt" height="225pt"
 viewBox="0.00 0.00 1643.00 225.00" xmlns="http://www.w3.org/2000/svg" xmlns:xlink="http://www.w3.org/1999/xlink">
<g id="graph0" class="graph" transform="scale(1 1) rotate(0) translate(4 221)">
<title>Tmc5160Handler.cpp</title>
<!-- Node1 -->
<g id="Node000001" class="node">
<title>Node1</title>
<g id="a_Node000001"><a xlink:title="Implementation of TMC5160 handler with SPI/UART communication adapters.">
<polygon fill="#999999" stroke="#666666" points="265.5,-217 146.5,-217 146.5,-198 265.5,-198 265.5,-217"/>
<text text-anchor="middle" x="206" y="-205" font-family="Helvetica,sans-Serif" font-size="10.00">Tmc5160Handler.cpp</text>
</a>
</g>
</g>
<!-- Node2 -->
<g id="Node000002" class="node">
<title>Node2</title>
<g id="a_Node000002"><a xlink:href="Tmc5160Handler_8h.html" target="_top" xlink:title="Unified handler for TMC5160/TMC5130 stepper motor driver with SPI/UART integration.">
<polygon fill="white" stroke="#666666" points="868,-162 760,-162 760,-143 868,-143 868,-162"/>
<text text-anchor="middle" x="814" y="-150" font-family="Helvetica,sans-Serif" font-size="10.00">Tmc5160Handler.h</text>
</a>
</g>
</g>
<!-- Node1&#45;&gt;Node2 -->
<g id="edge1_Node000001_Node000002" class="edge">
<title>Node1&#45;&gt;Node2</title>
<g id="a_edge1_Node000001_Node000002"><a xlink:title=" ">
<path fill="none" stroke="#63b8ff" d="M265.68,-201.3C380.52,-191.29 631.31,-169.42 749.7,-159.11"/>
<polygon fill="#63b8ff" stroke="#63b8ff" points="750.04,-162.59 759.7,-158.23 749.44,-155.61 750.04,-162.59"/>
</a>
</g>
</g>
<!-- Node15 -->
<g id="Node000015" class="node">
<title>Node15</title>
<g id="a_Node000015"><a xlink:href="Logger_8h.html" target="_top" xlink:title="Advanced logging system with formatting capabilities.">
<polygon fill="white" stroke="#666666" points="124,-90.5 66,-90.5 66,-71.5 124,-71.5 124,-90.5"/>
<text text-anchor="middle" x="95" y="-78.5" font-family="Helvetica,sans-Serif" font-size="10.00">Logger.h</text>
</a>
</g>
</g>
<!-- Node1&#45;&gt;Node15 -->
<g id="edge14_Node000001_Node000015" class="edge">
<title>Node1&#45;&gt;Node15</title>
<g id="a_edge14_Node000001_Node000015"><a xlink:title=" ">
<path fill="none" stroke="#63b8ff" d="M190.38,-197.98C176.72,-189.98 156.94,-177.02 143,-162 125.66,-143.32 111.51,-117.38 103.17,-100.16"/>
<polygon fill="#63b8ff" stroke="#63b8ff" points="106.16,-98.29 98.75,-90.71 99.81,-101.25 106.16,-98.29"/>
</a>
</g>
</g>
<!-- Node19 -->
<g id="Node000019" class="node">
<title>Node19</title>
<g id="a_Node000019"><a xlink:href="HandlerCommon_8h.html" target="_top" xlink:title="Shared utility functions for handler CRTP communication adapters.">
<polygon fill="white" stroke="#666666" points="260,-162 152,-162 152,-143 260,-143 260,-162"/>
<text text-anchor="middle" x="206" y="-150" font-family="Helvetica,sans-Serif" font-size="10.00">HandlerCommon.h</text>
</a>
</g>
</g>
<!-- Node1&#45;&gt;Node19 -->
<g id="edge20_Node000001_Node000019" class="edge">
<title>Node1&#45;&gt;Node19</title>
<g id="a_edge20_Node000001_Node000019"><a xlink:title=" ">
<path fill="none" stroke="#63b8ff" d="M206,-197.75C206,-190.8 206,-180.85 206,-172.13"/>
<polygon fill="#63b8ff" stroke="#63b8ff" points="209.5,-172.09 206,-162.09 202.5,-172.09 209.5,-172.09"/>
</a>
</g>
</g>
<!-- Node3 -->
<g id="Node000003" class="node">
<title>Node3</title>
<g id="a_Node000003"><a xlink:title=" ">
<polygon fill="#e0e0e0" stroke="#999999" points="294,-90.5 244,-90.5 244,-71.5 294,-71.5 294,-90.5"/>
<text text-anchor="middle" x="269" y="-78.5" font-family="Helvetica,sans-Serif" font-size="10.00">cstdint</text>
</a>
</g>
</g>
<!-- Node2&#45;&gt;Node3 -->
<g id="edge2_Node000002_Node000003" class="edge">
<title>Node2&#45;&gt;Node3</title>
<g id="a_edge2_Node000002_Node000003"><a xlink:title=" ">
<path fill="none" stroke="#63b8ff" d="M759.72,-150C646.83,-146.34 390.42,-135.13 308,-107 300.84,-104.56 293.68,-100.53 287.48,-96.42"/>
<polygon fill="#63b8ff" stroke="#63b8ff" points="289.37,-93.47 279.2,-90.51 285.3,-99.17 289.37,-93.47"/>
</a>
</g>
</g>
<!-- Node4 -->
<g id="Node000004" class="node">
<title>Node4</title>
<g id="a_Node000004"><a xlink:title=" ">
<polygon fill="#e0e0e0" stroke="#999999" points="816,-19 758,-19 758,0 816,0 816,-19"/>
<text text-anchor="middle" x="787" y="-7" font-family="Helvetica,sans-Serif" font-size="10.00">memory</text>
</a>
</g>
</g>
<!-- Node2&#45;&gt;Node4 -->
<g id="edge3_Node000002_Node000004" class="edge">
<title>Node2&#45;&gt;Node4</title>
<g id="a_edge3_Node000002_Node000004"><a xlink:title=" ">
<path fill="none" stroke="#63b8ff" d="M868.07,-150.15C982.07,-146.75 1238.78,-135.93 1265,-107 1280.52,-89.87 1280.57,-72.08 1265,-55 1235.66,-22.81 935.52,-13.52 826.39,-11.19"/>
<polygon fill="#63b8ff" stroke="#63b8ff" points="826.21,-7.69 816.14,-10.98 826.07,-14.69 826.21,-7.69"/>
</a>
</g>
</g>
<!-- Node5 -->
<g id="Node000005" class="node">
<title>Node5</title>
<g id="a_Node000005"><a xlink:title=" ">
<polygon fill="#e0e0e0" stroke="#999999" points="570.5,-90.5 501.5,-90.5 501.5,-71.5 570.5,-71.5 570.5,-90.5"/>
<text text-anchor="middle" x="536" y="-78.5" font-family="Helvetica,sans-Serif" font-size="10.00">type_traits</text>
</a>
</g>
</g>
<!-- Node2&#45;&gt;Node5 -->
<g id="edge4_Node000002_Node000005" class="edge">
<title>Node2&#45;&gt;Node5</title>
<g id="a_edge4_Node000002_Node000005"><a xlink:title=" ">
<path fill="none" stroke="#63b8ff" d="M759.68,-146.29C711.37,-140.46 639.38,-128.83 580,-107 572.29,-104.17 564.34,-100.07 557.36,-96"/>
<polygon fill="#63b8ff" stroke="#63b8ff" points="558.9,-92.85 548.55,-90.61 555.25,-98.82 558.9,-92.85"/>
</a>
</g>
</g>
<!-- Node6 -->
<g id="Node000006" class="node">
<title>Node6</title>
<g id="a_Node000006"><a xlink:title=" ">
<polygon fill="#e0e0e0" stroke="#999999" points="251.5,-19 198.5,-19 198.5,0 251.5,0 251.5,-19"/>
<text text-anchor="middle" x="225" y="-7" font-family="Helvetica,sans-Serif" font-size="10.00">cstdarg</text>
</a>
</g>
</g>
<!-- Node2&#45;&gt;Node6 -->
<g id="edge5_Node000002_Node000006" class="edge">
<title>Node2&#45;&gt;Node6</title>
<g id="a_edge5_Node000002_Node000006"><a xlink:title=" ">
<path fill="none" stroke="#63b8ff" d="M759.81,-151.89C651.21,-151.81 411.28,-146.94 341,-107 316.11,-92.86 324.35,-74.07 303,-55 288.56,-42.1 269.77,-31.24 254.25,-23.48"/>
<polygon fill="#63b8ff" stroke="#63b8ff" points="255.6,-20.25 245.07,-19.06 252.56,-26.55 255.6,-20.25"/>
</a>
</g>
</g>
<!-- Node7 -->
<g id="Node000007" class="node">
<title>Node7</title>
<g id="a_Node000007"><a xlink:title=" ">
<polygon fill="#e0e0e0" stroke="#999999" points="721.5,-101.5 588.5,-101.5 588.5,-60.5 721.5,-60.5 721.5,-101.5"/>
<text text-anchor="start" x="596.5" y="-89.5" font-family="Helvetica,sans-Serif" font-size="10.00">core/hf&#45;core&#45;drivers</text>
<text text-anchor="start" x="596.5" y="-78.5" font-family="Helvetica,sans-Serif" font-size="10.00">/external/hf&#45;tmc5160</text>
<text text-anchor="middle" x="655" y="-67.5" font-family="Helvetica,sans-Serif" font-size="10.00">&#45;driver/inc/tmc51x0.hpp</text>
</a>
</g>
</g>
<!-- Node2&#45;&gt;Node7 -->
<g id="edge6_Node000002_Node000007" class="edge">
<title>Node2&#45;&gt;Node7</title>
<g id="a_edge6_Node000002_Node000007"><a xlink:title=" ">
<path fill="none" stroke="#63b8ff" d="M794.5,-142.98C773.33,-133.72 738.57,-118.53 709.05,-105.63"/>
<polygon fill="#63b8ff" stroke="#63b8ff" points="710.24,-102.33 699.67,-101.53 707.43,-108.74 710.24,-102.33"/>
</a>
</g>
</g>
<!-- Node8 -->
<g id="Node000008" class="node">
<title>Node8</title>
<g id="a_Node000008"><a xlink:title=" ">
<polygon fill="#e0e0e0" stroke="#999999" points="888,-107 740,-107 740,-55 888,-55 888,-107"/>
<text text-anchor="start" x="748" y="-95" font-family="Helvetica,sans-Serif" font-size="10.00">core/hf&#45;core&#45;drivers</text>
<text text-anchor="start" x="748" y="-84" font-family="Helvetica,sans-Serif" font-size="10.00">/external/hf&#45;tmc5160</text>
<text text-anchor="start" x="748" y="-73" font-family="Helvetica,sans-Serif" font-size="10.00">&#45;driver/inc/tmc51x0_comm</text>
<text text-anchor="middle" x="814" y="-62" font-family="Helvetica,sans-Serif" font-size="10.00">_interface.hpp</text>
</a>
</g>
</g>
<!-- Node2&#45;&gt;Node8 -->
<g id="edge7_Node000002_Node000008" class="edge">
<title>Node2&#45;&gt;Node8</title>
<g id="a_edge7_Node000002_Node000008"><a xlink:title=" ">
<path fill="none" stroke="#63b8ff" d="M814,-142.98C814,-136.43 814,-126.91 814,-117.33"/>
<polygon fill="#63b8ff" stroke="#63b8ff" points="817.5,-117.05 814,-107.05 810.5,-117.05 817.5,-117.05"/>
</a>
</g>
</g>
<!-- Node9 -->
<g id="Node000009" class="node">
<title>Node9</title>
<g id="a_Node000009"><a xlink:title=" ">
<polygon fill="#e0e0e0" stroke="#999999" points="1071.5,-101.5 906.5,-101.5 906.5,-60.5 1071.5,-60.5 1071.5,-101.5"/>
<text text-anchor="start" x="914.5" y="-89.5" font-family="Helvetica,sans-Serif" font-size="10.00">core/hf&#45;core&#45;drivers</text>
<text text-anchor="start" x="914.5" y="-78.5" font-family="Helvetica,sans-Serif" font-size="10.00">/external/hf&#45;tmc5160</text>
<text text-anchor="middle" x="989" y="-67.5" font-family="Helvetica,sans-Serif" font-size="10.00">&#45;driver/inc/tmc51x0_types.hpp</text>
</a>
</g>
</g>
<!-- Node2&#45;&gt;Node9 -->
<g id="edge8_Node000002_Node000009" class="edge">
<title>Node2&#45;&gt;Node9</title>
<g id="a_edge8_Node000002_Node000009"><a xlink:title=" ">
<path fill="none" stroke="#63b8ff" d="M835.46,-142.98C858.97,-133.64 897.68,-118.27 930.35,-105.29"/>
<polygon fill="#63b8ff" stroke="#63b8ff" points="931.83,-108.47 939.83,-101.53 929.24,-101.97 931.83,-108.47"/>
</a>
</g>
</g>
<!-- Node10 -->
<g id="Node000010" class="node">
<title>Node10</title>
<g id="a_Node000010"><a xlink:title=" ">
<polygon fill="#e0e0e0" stroke="#999999" points="1256,-101.5 1090,-101.5 1090,-60.5 1256,-60.5 1256,-101.5"/>
<text text-anchor="start" x="1098" y="-89.5" font-family="Helvetica,sans-Serif" font-size="10.00">core/hf&#45;core&#45;drivers</text>
<text text-anchor="start" x="1098" y="-78.5" font-family="Helvetica,sans-Serif" font-size="10.00">/external/hf&#45;tmc5160</text>
<text text-anchor="middle" x="1173" y="-67.5" font-family="Helvetica,sans-Serif" font-size="10.00">&#45;driver/inc/tmc51x0_result.hpp</text>
</a>
</g>
</g>
<!-- Node2&#45;&gt;Node10 -->
<g id="edge9_Node000002_Node000010" class="edge">
<title>Node2&#45;&gt;Node10</title>
<g id="a_edge9_Node000002_Node000010"><a xlink:title=" ">
<path fill="none" stroke="#63b8ff" d="M868,-144.12C922.15,-136.34 1007.77,-123.01 1081,-107 1085.35,-106.05 1089.8,-105.02 1094.28,-103.95"/>
<polygon fill="#63b8ff" stroke="#63b8ff" points="1095.24,-107.31 1104.11,-101.52 1093.56,-100.52 1095.24,-107.31"/>
</a>
</g>
</g>
<!-- Node11 -->
<g id="Node000011" class="node">
<title>Node11</title>
<g id="a_Node000011"><a xlink:title=" ">
<polygon fill="#e0e0e0" stroke="#999999" points="1403.5,-90.5 1312.5,-90.5 1312.5,-71.5 1403.5,-71.5 1403.5,-90.5"/>
<text text-anchor="middle" x="1358" y="-78.5" font-family="Helvetica,sans-Serif" font-size="10.00">base/BaseSpi.h</text>
</a>
</g>
</g>
<!-- Node2&#45;&gt;Node11 -->
<g id="edge10_Node000002_Node000011" class="edge">
<title>Node2&#45;&gt;Node11</title>
<g id="a_edge10_Node000002_Node000011"><a xlink:title=" ">
<path fill="none" stroke="#63b8ff" d="M868.24,-151.82C958.69,-151.18 1145.46,-144.85 1298,-107 1309.54,-104.14 1321.74,-99.4 1332.1,-94.81"/>
<polygon fill="#63b8ff" stroke="#63b8ff" points="1333.78,-97.89 1341.4,-90.53 1330.85,-91.53 1333.78,-97.89"/>
</a>
</g>
</g>
<!-- Node12 -->
<g id="Node000012" class="node">
<title>Node12</title>
<g id="a_Node000012"><a xlink:title=" ">
<polygon fill="#e0e0e0" stroke="#999999" points="1518.5,-90.5 1421.5,-90.5 1421.5,-71.5 1518.5,-71.5 1518.5,-90.5"/>
<text text-anchor="middle" x="1470" y="-78.5" font-family="Helvetica,sans-Serif" font-size="10.00">base/BaseUart.h</text>
</a>
</g>
</g>
<!-- Node2&#45;&gt;Node12 -->
<g id="edge11_Node000002_Node000012" class="edge">
<title>Node2&#45;&gt;Node12</title>
<g id="a_edge11_Node000002_Node000012"><a xlink:title=" ">
<path fill="none" stroke="#63b8ff" d="M868.12,-149.82C995.38,-145.49 1310.54,-132.48 1413,-107 1423.85,-104.3 1435.25,-99.7 1444.97,-95.17"/>
<polygon fill="#63b8ff" stroke="#63b8ff" points="1446.6,-98.27 1454.06,-90.74 1443.53,-91.98 1446.6,-98.27"/>
</a>
</g>
</g>
<!-- Node13 -->
<g id="Node000013" class="node">
<title>Node13</title>
<g id="a_Node000013"><a xlink:title=" ">
<polygon fill="#e0e0e0" stroke="#999999" points="1635,-90.5 1537,-90.5 1537,-71.5 1635,-71.5 1635,-90.5"/>
<text text-anchor="middle" x="1586" y="-78.5" font-family="Helvetica,sans-Serif" font-size="10.00">base/BaseGpio.h</text>
</a>
</g>
</g>
<!-- Node2&#45;&gt;Node13 -->
<g id="edge12_Node000002_Node000013" class="edge">
<title>Node2&#45;&gt;Node13</title>
<g id="a_edge12_Node000002_Node000013"><a xlink:title=" ">
<path fill="none" stroke="#63b8ff" d="M868.2,-150.53C1012.37,-147.56 1402.82,-136.92 1528,-107 1539.2,-104.32 1550.97,-99.64 1560.96,-95.04"/>
<polygon fill="#63b8ff" stroke="#63b8ff" points="1562.78,-98.05 1570.26,-90.55 1559.74,-91.74 1562.78,-98.05"/>
</a>
</g>
</g>
<!-- Node14 -->
<g id="Node000014" class="node">
<title>Node14</title>
<g id="a_Node000014"><a xlink:title=" ">
<polygon fill="#e0e0e0" stroke="#999999" points="483.5,-107 350.5,-107 350.5,-55 483.5,-55 483.5,-107"/>
<text text-anchor="start" x="358.5" y="-95" font-family="Helvetica,sans-Serif" font-size="10.00">core/hf&#45;core&#45;drivers</text>
<text text-anchor="start" x="358.5" y="-84" font-family="Helvetica,sans-Serif" font-size="10.00">/internal/hf&#45;internal</text>
<text text-anchor="start" x="358.5" y="-73" font-family="Helvetica,sans-Serif" font-size="10.00">&#45;interface&#45;wrap/inc/utils</text>
<text text-anchor="middle" x="417" y="-62" font-family="Helvetica,sans-Serif" font-size="10.00">/RtosMutex.h</text>
</a>
</g>
</g>
<!-- Node2&#45;&gt;Node14 -->
<g id="edge13_Node000002_Node000014" class="edge">
<title>Node2&#45;&gt;Node14</title>
<g id="a_edge13_Node000002_Node000014"><a xlink:title=" ">
<path fill="none" stroke="#63b8ff" d="M759.79,-146.99C697.6,-141.14 592.53,-129.24 493.42,-106.9"/>
<polygon fill="#63b8ff" stroke="#63b8ff" points="494.06,-103.46 483.54,-104.64 492.5,-110.29 494.06,-103.46"/>
</a>
</g>
</g>
<!-- Node15&#45;&gt;Node4 -->
<g id="edge18_Node000015_Node000004" class="edge">
<title>Node15&#45;&gt;Node4</title>
<g id="a_edge18_Node000015_Node000004"><a xlink:title=" ">
<path fill="none" stroke="#63b8ff" d="M104.88,-71.43C112.14,-65.68 122.52,-58.53 133,-55 247.88,-16.3 624.48,-11.19 747.64,-10.57"/>
<polygon fill="#63b8ff" stroke="#63b8ff" points="747.76,-14.07 757.75,-10.53 747.73,-7.07 747.76,-14.07"/>
</a>
</g>
</g>
<!-- Node15&#45;&gt;Node6 -->
<g id="edge15_Node000015_Node000006" class="edge">
<title>Node15&#45;&gt;Node6</title>
<g id="a_edge15_Node000015_Node000006"><a xlink:title=" ">
<path fill="none" stroke="#63b8ff" d="M107.07,-71.48C114.41,-66.43 124.07,-60.07 133,-55 153.54,-43.35 177.58,-31.78 195.94,-23.36"/>
<polygon fill="#63b8ff" stroke="#63b8ff" points="197.57,-26.47 205.23,-19.15 194.68,-20.09 197.57,-26.47"/>
</a>
</g>
</g>
<!-- Node16 -->
<g id="Node000016" class="node">
<title>Node16</title>
<g id="a_Node000016"><a xlink:title=" ">
<polygon fill="#e0e0e0" stroke="#999999" points="180,-19 130,-19 130,0 180,0 180,-19"/>
<text text-anchor="middle" x="155" y="-7" font-family="Helvetica,sans-Serif" font-size="10.00">cstring</text>
</a>
</g>
</g>
<!-- Node15&#45;&gt;Node16 -->
<g id="edge16_Node000015_Node000016" class="edge">
<title>Node15&#45;&gt;Node16</title>
<g id="a_edge16_Node000015_Node000016"><a xlink:title=" ">
<path fill="none" stroke="#63b8ff" d="M102.36,-71.48C111.89,-60.43 128.73,-40.93 140.79,-26.96"/>
<polygon fill="#63b8ff" stroke="#63b8ff" points="143.7,-28.95 147.58,-19.09 138.4,-24.37 143.7,-28.95"/>
</a>
</g>
</g>
<!-- Node17 -->
<g id="Node000017" class="node">
<title>Node17</title>
<g id="a_Node000017"><a xlink:title=" ">
<polygon fill="#e0e0e0" stroke="#999999" points="44,-19 0,-19 0,0 44,0 44,-19"/>
<text text-anchor="middle" x="22" y="-7" font-family="Helvetica,sans-Serif" font-size="10.00">string</text>
</a>
</g>
</g>
<!-- Node15&#45;&gt;Node17 -->
<g id="edge17_Node000015_Node000017" class="edge">
<title>Node15&#45;&gt;Node17</title>
<g id="a_edge17_Node000015_Node000017"><a xlink:title=" ">
<path fill="none" stroke="#63b8ff" d="M86.05,-71.48C74.23,-60.22 53.19,-40.19 38.46,-26.17"/>
<polygon fill="#63b8ff" stroke="#63b8ff" points="40.68,-23.45 31.02,-19.09 35.85,-28.52 40.68,-23.45"/>
</a>
</g>
</g>
<!-- Node18 -->
<g id="Node000018" class="node">
<title>Node18</title>
<g id="a_Node000018"><a xlink:title=" ">
<polygon fill="#e0e0e0" stroke="#999999" points="112,-19 62,-19 62,0 112,0 112,-19"/>
<text text-anchor="middle" x="87" y="-7" font-family="Helvetica,sans-Serif" font-size="10.00">atomic</text>
</a>
</g>
</g>
<!-- Node15&#45;&gt;Node18 -->
<g id="edge19_Node000015_Node000018" class="edge">
<title>Node15&#45;&gt;Node18</title>
<g id="a_edge19_Node000015_Node000018"><a xlink:title=" ">
<path fill="none" stroke="#63b8ff" d="M94.02,-71.48C92.82,-61.06 90.75,-43.11 89.17,-29.38"/>
<polygon fill="#63b8ff" stroke="#63b8ff" points="92.61,-28.63 87.99,-19.09 85.66,-29.43 92.61,-28.63"/>
</a>
</g>
</g>
<!-- Node19&#45;&gt;Node3 -->
<g id="edge22_Node000019_Node000003" class="edge">
<title>Node19&#45;&gt;Node3</title>
<g id="a_edge22_Node000019_Node000003"><a xlink:title=" ">
<path fill="none" stroke="#63b8ff" d="M213.73,-142.98C223.83,-131.83 241.75,-112.06 254.44,-98.06"/>
<polygon fill="#63b8ff" stroke="#63b8ff" points="257.09,-100.35 261.21,-90.59 251.9,-95.65 257.09,-100.35"/>
</a>
</g>
</g>
<!-- Node19&#45;&gt;Node6 -->
<g id="edge21_Node000019_Node000006" class="edge">
<title>Node19&#45;&gt;Node6</title>
<g id="a_edge21_Node000019_Node000006"><a xlink:title=" ">
<path fill="none" stroke="#63b8ff" d="M207.19,-142.68C210.21,-120.23 218.26,-60.5 222.43,-29.61"/>
<polygon fill="#63b8ff" stroke="#63b8ff" points="225.95,-29.69 223.81,-19.32 219.01,-28.76 225.95,-29.69"/>
</a>
</g>
</g>
<!-- Node19&#45;&gt;Node15 -->
<g id="edge24_Node000019_Node000015" class="edge">
<title>Node19&#45;&gt;Node15</title>
<g id="a_edge24_Node000019_Node000015"><a xlink:title=" ">
<path fill="none" stroke="#63b8ff" d="M191.64,-142.95C176.86,-134.09 153.19,-119.79 133,-107 127.62,-103.59 121.85,-99.84 116.48,-96.31"/>
<polygon fill="#63b8ff" stroke="#63b8ff" points="118.21,-93.27 107.94,-90.67 114.36,-99.11 118.21,-93.27"/>
</a>
</g>
</g>
<!-- Node20 -->
<g id="Node000020" class="node">
<title>Node20</title>
<g id="a_Node000020"><a xlink:title=" ">
<polygon fill="#e0e0e0" stroke="#999999" points="188,-90.5 142,-90.5 142,-71.5 188,-71.5 188,-90.5"/>
<text text-anchor="middle" x="165" y="-78.5" font-family="Helvetica,sans-Serif" font-size="10.00">cstdio</text>
</a>
</g>
</g>
<!-- Node19&#45;&gt;Node20 -->
<g id="edge23_Node000019_Node000020" class="edge">
<title>Node19&#45;&gt;Node20</title>
<g id="a_edge23_Node000019_Node000020"><a xlink:title=" ">
<path fill="none" stroke="#63b8ff" d="M200.97,-142.98C194.58,-132.14 183.38,-113.16 175.18,-99.25"/>
<polygon fill="#63b8ff" stroke="#63b8ff" points="178.16,-97.43 170.07,-90.59 172.14,-100.98 178.16,-97.43"/>
</a>
</g>
</g>
</g>
</svg>
