<?xml version="1.0" encoding="UTF-8" standalone="no"?>
<!DOCTYPE svg PUBLIC "-//W3C//DTD SVG 1.1//EN"
 "http://www.w3.org/Graphics/SVG/1.1/DTD/svg11.dtd">
<!-- Generated by graphviz version 2.43.0 (0)
 -->
<!-- Title: Tmc5160Handler.h Pages: 1 -->
<svg width="1471pt" height="115pt"
 viewBox="0.00 0.00 1470.50 115.00" xmlns="http://www.w3.org/2000/svg" xmlns:xlink="http://www.w3.org/1999/xlink">
<g id="graph0" class="graph" transform="scale(1 1) rotate(0) translate(4 111)">
<title>Tmc5160Handler.h</title>
<!-- Node1 -->
<g id="Node000001" class="node">
<title>Node1</title>
<g id="a_Node000001"><a xlink:title="Unified handler for TMC5160/TMC5130 stepper motor driver with SPI/UART integration.">
<polygon fill="#999999" stroke="#666666" points="669,-107 561,-107 561,-88 669,-88 669,-107"/>
<text text-anchor="middle" x="615" y="-95" font-family="Helvetica,sans-Serif" font-size="10.00">Tmc5160Handler.h</text>
</a>
</g>
</g>
<!-- Node2 -->
<g id="Node000002" class="node">
<title>Node2</title>
<g id="a_Node000002"><a xlink:title=" ">
<polygon fill="#e0e0e0" stroke="#999999" points="50,-35.5 0,-35.5 0,-16.5 50,-16.5 50,-35.5"/>
<text text-anchor="middle" x="25" y="-23.5" font-family="Helvetica,sans-Serif" font-size="10.00">cstdint</text>
</a>
</g>
</g>
<!-- Node1&#45;&gt;Node2 -->
<g id="edge1_Node000001_Node000002" class="edge">
<title>Node1&#45;&gt;Node2</title>
<g id="a_edge1_Node000001_Node000002"><a xlink:title=" ">
<path fill="none" stroke="#63b8ff" d="M560.76,-95.92C439.49,-94 149.96,-85.92 59,-52 52.84,-49.7 46.83,-45.95 41.61,-42.04"/>
<polygon fill="#63b8ff" stroke="#63b8ff" points="43.65,-39.18 33.7,-35.54 39.2,-44.59 43.65,-39.18"/>
</a>
</g>
</g>
<!-- Node3 -->
<g id="Node000003" class="node">
<title>Node3</title>
<g id="a_Node000003"><a xlink:title=" ">
<polygon fill="#e0e0e0" stroke="#999999" points="126,-35.5 68,-35.5 68,-16.5 126,-16.5 126,-35.5"/>
<text text-anchor="middle" x="97" y="-23.5" font-family="Helvetica,sans-Serif" font-size="10.00">memory</text>
</a>
</g>
</g>
<!-- Node1&#45;&gt;Node3 -->
<g id="edge2_Node000001_Node000003" class="edge">
<title>Node1&#45;&gt;Node3</title>
<g id="a_edge2_Node000001_Node000003"><a xlink:title=" ">
<path fill="none" stroke="#63b8ff" d="M560.6,-94.77C452.04,-90.77 212.3,-79.1 135,-52 128.25,-49.63 121.52,-45.81 115.64,-41.86"/>
<polygon fill="#63b8ff" stroke="#63b8ff" points="117.37,-38.79 107.22,-35.74 113.25,-44.45 117.37,-38.79"/>
</a>
</g>
</g>
<!-- Node4 -->
<g id="Node000004" class="node">
<title>Node4</title>
<g id="a_Node000004"><a xlink:title=" ">
<polygon fill="#e0e0e0" stroke="#999999" points="213.5,-35.5 144.5,-35.5 144.5,-16.5 213.5,-16.5 213.5,-35.5"/>
<text text-anchor="middle" x="179" y="-23.5" font-family="Helvetica,sans-Serif" font-size="10.00">type_traits</text>
</a>
</g>
</g>
<!-- Node1&#45;&gt;Node4 -->
<g id="edge3_Node000001_Node000004" class="edge">
<title>Node1&#45;&gt;Node4</title>
<g id="a_edge3_Node000001_Node000004"><a xlink:title=" ">
<path fill="none" stroke="#63b8ff" d="M560.75,-97.32C483.52,-96.96 338.36,-90.52 222,-52 214.22,-49.43 206.3,-45.33 199.42,-41.18"/>
<polygon fill="#63b8ff" stroke="#63b8ff" points="201.08,-38.1 190.77,-35.65 197.31,-43.99 201.08,-38.1"/>
</a>
</g>
</g>
<!-- Node5 -->
<g id="Node000005" class="node">
<title>Node5</title>
<g id="a_Node000005"><a xlink:title=" ">
<polygon fill="#e0e0e0" stroke="#999999" points="284.5,-35.5 231.5,-35.5 231.5,-16.5 284.5,-16.5 284.5,-35.5"/>
<text text-anchor="middle" x="258" y="-23.5" font-family="Helvetica,sans-Serif" font-size="10.00">cstdarg</text>
</a>
</g>
</g>
<!-- Node1&#45;&gt;Node5 -->
<g id="edge4_Node000001_Node000005" class="edge">
<title>Node1&#45;&gt;Node5</title>
<g id="a_edge4_Node000001_Node000005"><a xlink:title=" ">
<path fill="none" stroke="#63b8ff" d="M560.87,-96.83C495.22,-95.48 382.27,-87.53 293,-52 286.87,-49.56 280.8,-45.82 275.47,-41.98"/>
<polygon fill="#63b8ff" stroke="#63b8ff" points="277.38,-39.02 267.35,-35.61 273.06,-44.53 277.38,-39.02"/>
</a>
</g>
</g>
<!-- Node6 -->
<g id="Node000006" class="node">
<title>Node6</title>
<g id="a_Node000006"><a xlink:title=" ">
<polygon fill="#e0e0e0" stroke="#999999" points="435.5,-46.5 302.5,-46.5 302.5,-5.5 435.5,-5.5 435.5,-46.5"/>
<text text-anchor="start" x="310.5" y="-34.5" font-family="Helvetica,sans-Serif" font-size="10.00">core/hf&#45;core&#45;drivers</text>
<text text-anchor="start" x="310.5" y="-23.5" font-family="Helvetica,sans-Serif" font-size="10.00">/external/hf&#45;tmc5160</text>
<text text-anchor="middle" x="369" y="-12.5" font-family="Helvetica,sans-Serif" font-size="10.00">&#45;driver/inc/tmc51x0.hpp</text>
</a>
</g>
</g>
<!-- Node1&#45;&gt;Node6 -->
<g id="edge5_Node000001_Node000006" class="edge">
<title>Node1&#45;&gt;Node6</title>
<g id="a_edge5_Node000001_Node000006"><a xlink:title=" ">
<path fill="none" stroke="#63b8ff" d="M579.66,-87.93C545.15,-79.39 491.23,-65.64 445,-52 442.4,-51.23 439.76,-50.44 437.1,-49.63"/>
<polygon fill="#63b8ff" stroke="#63b8ff" points="437.98,-46.23 427.39,-46.61 435.9,-52.92 437.98,-46.23"/>
</a>
</g>
</g>
<!-- Node7 -->
<g id="Node000007" class="node">
<title>Node7</title>
<g id="a_Node000007"><a xlink:title=" ">
<polygon fill="#e0e0e0" stroke="#999999" points="602,-52 454,-52 454,0 602,0 602,-52"/>
<text text-anchor="start" x="462" y="-40" font-family="Helvetica,sans-Serif" font-size="10.00">core/hf&#45;core&#45;drivers</text>
<text text-anchor="start" x="462" y="-29" font-family="Helvetica,sans-Serif" font-size="10.00">/external/hf&#45;tmc5160</text>
<text text-anchor="start" x="462" y="-18" font-family="Helvetica,sans-Serif" font-size="10.00">&#45;driver/inc/tmc51x0_comm</text>
<text text-anchor="middle" x="528" y="-7" font-family="Helvetica,sans-Serif" font-size="10.00">_interface.hpp</text>
</a>
</g>
</g>
<!-- Node1&#45;&gt;Node7 -->
<g id="edge6_Node000001_Node000007" class="edge">
<title>Node1&#45;&gt;Node7</title>
<g id="a_edge6_Node000001_Node000007"><a xlink:title=" ">
<path fill="none" stroke="#63b8ff" d="M604.33,-87.98C595,-80.52 580.85,-69.22 567.26,-58.36"/>
<polygon fill="#63b8ff" stroke="#63b8ff" points="569.36,-55.56 559.36,-52.05 564.99,-61.03 569.36,-55.56"/>
</a>
</g>
</g>
<!-- Node8 -->
<g id="Node000008" class="node">
<title>Node8</title>
<g id="a_Node000008"><a xlink:title=" ">
<polygon fill="#e0e0e0" stroke="#999999" points="785.5,-46.5 620.5,-46.5 620.5,-5.5 785.5,-5.5 785.5,-46.5"/>
<text text-anchor="start" x="628.5" y="-34.5" font-family="Helvetica,sans-Serif" font-size="10.00">core/hf&#45;core&#45;drivers</text>
<text text-anchor="start" x="628.5" y="-23.5" font-family="Helvetica,sans-Serif" font-size="10.00">/external/hf&#45;tmc5160</text>
<text text-anchor="middle" x="703" y="-12.5" font-family="Helvetica,sans-Serif" font-size="10.00">&#45;driver/inc/tmc51x0_types.hpp</text>
</a>
</g>
</g>
<!-- Node1&#45;&gt;Node8 -->
<g id="edge7_Node000001_Node000008" class="edge">
<title>Node1&#45;&gt;Node8</title>
<g id="a_edge7_Node000001_Node000008"><a xlink:title=" ">
<path fill="none" stroke="#63b8ff" d="M625.79,-87.98C636.81,-79.27 654.48,-65.32 670.13,-52.96"/>
<polygon fill="#63b8ff" stroke="#63b8ff" points="672.41,-55.62 678.09,-46.67 668.07,-50.12 672.41,-55.62"/>
</a>
</g>
</g>
<!-- Node9 -->
<g id="Node000009" class="node">
<title>Node9</title>
<g id="a_Node000009"><a xlink:title=" ">
<polygon fill="#e0e0e0" stroke="#999999" points="970,-46.5 804,-46.5 804,-5.5 970,-5.5 970,-46.5"/>
<text text-anchor="start" x="812" y="-34.5" font-family="Helvetica,sans-Serif" font-size="10.00">core/hf&#45;core&#45;drivers</text>
<text text-anchor="start" x="812" y="-23.5" font-family="Helvetica,sans-Serif" font-size="10.00">/external/hf&#45;tmc5160</text>
<text text-anchor="middle" x="887" y="-12.5" font-family="Helvetica,sans-Serif" font-size="10.00">&#45;driver/inc/tmc51x0_result.hpp</text>
</a>
</g>
</g>
<!-- Node1&#45;&gt;Node9 -->
<g id="edge8_Node000001_Node000009" class="edge">
<title>Node1&#45;&gt;Node9</title>
<g id="a_edge8_Node000001_Node000009"><a xlink:title=" ">
<path fill="none" stroke="#63b8ff" d="M650.58,-87.96C686.93,-79.17 744.99,-64.97 795,-52 798.57,-51.07 802.23,-50.12 805.91,-49.14"/>
<polygon fill="#63b8ff" stroke="#63b8ff" points="806.95,-52.49 815.72,-46.54 805.16,-45.72 806.95,-52.49"/>
</a>
</g>
</g>
<!-- Node10 -->
<g id="Node000010" class="node">
<title>Node10</title>
<g id="a_Node000010"><a xlink:title=" ">
<polygon fill="#e0e0e0" stroke="#999999" points="1079.5,-35.5 988.5,-35.5 988.5,-16.5 1079.5,-16.5 1079.5,-35.5"/>
<text text-anchor="middle" x="1034" y="-23.5" font-family="Helvetica,sans-Serif" font-size="10.00">base/BaseSpi.h</text>
</a>
</g>
</g>
<!-- Node1&#45;&gt;Node10 -->
<g id="edge9_Node000001_Node000010" class="edge">
<title>Node1&#45;&gt;Node10</title>
<g id="a_edge9_Node000001_Node000010"><a xlink:title=" ">
<path fill="none" stroke="#63b8ff" d="M669.05,-95.01C741.03,-91.88 871.75,-82.16 979,-52 989.34,-49.09 1000.21,-44.51 1009.53,-40.06"/>
<polygon fill="#63b8ff" stroke="#63b8ff" points="1011.21,-43.13 1018.6,-35.54 1008.09,-36.87 1011.21,-43.13"/>
</a>
</g>
</g>
<!-- Node11 -->
<g id="Node000011" class="node">
<title>Node11</title>
<g id="a_Node000011"><a xlink:title=" ">
<polygon fill="#e0e0e0" stroke="#999999" points="1194.5,-35.5 1097.5,-35.5 1097.5,-16.5 1194.5,-16.5 1194.5,-35.5"/>
<text text-anchor="middle" x="1146" y="-23.5" font-family="Helvetica,sans-Serif" font-size="10.00">base/BaseUart.h</text>
</a>
</g>
</g>
<!-- Node1&#45;&gt;Node11 -->
<g id="edge10_Node000001_Node000011" class="edge">
<title>Node1&#45;&gt;Node11</title>
<g id="a_edge10_Node000001_Node000011"><a xlink:title=" ">
<path fill="none" stroke="#63b8ff" d="M669.28,-96.98C758.37,-96.54 940.58,-90.45 1089,-52 1099.83,-49.2 1111.22,-44.57 1120.94,-40.06"/>
<polygon fill="#63b8ff" stroke="#63b8ff" points="1122.56,-43.16 1130.03,-35.65 1119.51,-36.87 1122.56,-43.16"/>
</a>
</g>
</g>
<!-- Node12 -->
<g id="Node000012" class="node">
<title>Node12</title>
<g id="a_Node000012"><a xlink:title=" ">
<polygon fill="#e0e0e0" stroke="#999999" points="1311,-35.5 1213,-35.5 1213,-16.5 1311,-16.5 1311,-35.5"/>
<text text-anchor="middle" x="1262" y="-23.5" font-family="Helvetica,sans-Serif" font-size="10.00">base/BaseGpio.h</text>
</a>
</g>
</g>
<!-- Node1&#45;&gt;Node12 -->
<g id="edge11_Node000001_Node000012" class="edge">
<title>Node1&#45;&gt;Node12</title>
<g id="a_edge11_Node000001_Node000012"><a xlink:title=" ">
<path fill="none" stroke="#63b8ff" d="M669.14,-94.7C794.85,-90.14 1103.42,-76.74 1204,-52 1215.02,-49.29 1226.61,-44.68 1236.51,-40.16"/>
<polygon fill="#63b8ff" stroke="#63b8ff" points="1238.25,-43.21 1245.76,-35.73 1235.23,-36.89 1238.25,-43.21"/>
</a>
</g>
</g>
<!-- Node13 -->
<g id="Node000013" class="node">
<title>Node13</title>
<g id="a_Node000013"><a xlink:title=" ">
<polygon fill="#e0e0e0" stroke="#999999" points="1462.5,-52 1329.5,-52 1329.5,0 1462.5,0 1462.5,-52"/>
<text text-anchor="start" x="1337.5" y="-40" font-family="Helvetica,sans-Serif" font-size="10.00">core/hf&#45;core&#45;drivers</text>
<text text-anchor="start" x="1337.5" y="-29" font-family="Helvetica,sans-Serif" font-size="10.00">/internal/hf&#45;internal</text>
<text text-anchor="start" x="1337.5" y="-18" font-family="Helvetica,sans-Serif" font-size="10.00">&#45;interface&#45;wrap/inc/utils</text>
<text text-anchor="middle" x="1396" y="-7" font-family="Helvetica,sans-Serif" font-size="10.00">/RtosMutex.h</text>
</a>
</g>
</g>
<!-- Node1&#45;&gt;Node13 -->
<g id="edge12_Node000001_Node000013" class="edge">
<title>Node1&#45;&gt;Node13</title>
<g id="a_edge12_Node000001_Node000013"><a xlink:title=" ">
<path fill="none" stroke="#63b8ff" d="M669.16,-94.87C808.32,-90.39 1176.85,-76.7 1318.88,-51.91"/>
<polygon fill="#63b8ff" stroke="#63b8ff" points="1319.91,-55.28 1329.11,-50.03 1318.64,-48.4 1319.91,-55.28"/>
</a>
</g>
</g>
</g>
</svg>
