<?xml version="1.0" encoding="UTF-8" standalone="no"?>
<!DOCTYPE svg PUBLIC "-//W3C//DTD SVG 1.1//EN"
 "http://www.w3.org/Graphics/SVG/1.1/DTD/svg11.dtd">
<!-- Generated by graphviz version 2.43.0 (0)
 -->
<!-- Title: Tmc9660Handler.h Pages: 1 -->
<svg width="636pt" height="93pt"
 viewBox="0.00 0.00 636.00 93.00" xmlns="http://www.w3.org/2000/svg" xmlns:xlink="http://www.w3.org/1999/xlink">
<g id="graph0" class="graph" transform="scale(1 1) rotate(0) translate(4 89)">
<title>Tmc9660Handler.h</title>
<!-- Node1 -->
<g id="Node000001" class="node">
<title>Node1</title>
<g id="a_Node000001"><a xlink:title="Unified handler for TMC9660 motor controller with GPIO, ADC, and temperature integration.">
<polygon fill="#999999" stroke="#666666" points="344,-85 236,-85 236,-66 344,-66 344,-85"/>
<text text-anchor="middle" x="290" y="-73" font-family="Helvetica,sans-Serif" font-size="10.00">Tmc9660Handler.h</text>
</a>
</g>
</g>
<!-- Node2 -->
<g id="Node000002" class="node">
<title>Node2</title>
<g id="a_Node000002"><a xlink:href="Tmc9660AdcWrapper_8cpp.html" target="_top" xlink:title="Implementation of the TMC9660 ADC delegation wrapper.">
<polygon fill="white" stroke="#666666" points="140,-24.5 0,-24.5 0,-5.5 140,-5.5 140,-24.5"/>
<text text-anchor="middle" x="70" y="-12.5" font-family="Helvetica,sans-Serif" font-size="10.00">Tmc9660AdcWrapper.cpp</text>
</a>
</g>
</g>
<!-- Node1&#45;&gt;Node2 -->
<g id="edge1_Node000001_Node000002" class="edge">
<title>Node1&#45;&gt;Node2</title>
<g id="a_edge1_Node000001_Node000002"><a xlink:title=" ">
<path fill="none" stroke="#63b8ff" d="M248.24,-63.4C205.7,-52.08 140.66,-34.79 102.03,-24.52"/>
<polygon fill="#63b8ff" stroke="#63b8ff" points="247.45,-66.81 258.01,-65.99 249.25,-60.04 247.45,-66.81"/>
</a>
</g>
</g>
<!-- Node3 -->
<g id="Node000003" class="node">
<title>Node3</title>
<g id="a_Node000003"><a xlink:href="Tmc9660Handler_8cpp.html" target="_top" xlink:title=" ">
<polygon fill="white" stroke="#666666" points="277.5,-24.5 158.5,-24.5 158.5,-5.5 277.5,-5.5 277.5,-24.5"/>
<text text-anchor="middle" x="218" y="-12.5" font-family="Helvetica,sans-Serif" font-size="10.00">Tmc9660Handler.cpp</text>
</a>
</g>
</g>
<!-- Node1&#45;&gt;Node3 -->
<g id="edge2_Node000001_Node000003" class="edge">
<title>Node1&#45;&gt;Node3</title>
<g id="a_edge2_Node000001_Node000003"><a xlink:title=" ">
<path fill="none" stroke="#63b8ff" d="M271.58,-59.54C257.99,-48.49 239.96,-33.84 228.67,-24.67"/>
<polygon fill="#63b8ff" stroke="#63b8ff" points="269.41,-62.28 279.38,-65.87 273.82,-56.85 269.41,-62.28"/>
</a>
</g>
</g>
<!-- Node4 -->
<g id="Node000004" class="node">
<title>Node4</title>
<g id="a_Node000004"><a xlink:href="full__system__integration__test_8cpp.html" target="_top" xlink:title="Full system integration test for hf&#45;core.">
<polygon fill="white" stroke="#666666" points="428,-30 296,-30 296,0 428,0 428,-30"/>
<text text-anchor="start" x="304" y="-18" font-family="Helvetica,sans-Serif" font-size="10.00">full_system_integration</text>
<text text-anchor="middle" x="362" y="-7" font-family="Helvetica,sans-Serif" font-size="10.00">_test.cpp</text>
</a>
</g>
</g>
<!-- Node1&#45;&gt;Node4 -->
<g id="edge3_Node000001_Node000004" class="edge">
<title>Node1&#45;&gt;Node4</title>
<g id="a_edge3_Node000001_Node000004"><a xlink:title=" ">
<path fill="none" stroke="#63b8ff" d="M308.46,-59.5C319.6,-50.45 333.69,-39 344.63,-30.11"/>
<polygon fill="#63b8ff" stroke="#63b8ff" points="306.18,-56.85 300.62,-65.87 310.59,-62.28 306.18,-56.85"/>
</a>
</g>
</g>
<!-- Node5 -->
<g id="Node000005" class="node">
<title>Node5</title>
<g id="a_Node000005"><a xlink:href="tmc9660__handler__comprehensive__test_8cpp.html" target="_top" xlink:title="Comprehensive test suite for Tmc9660Handler.">
<polygon fill="white" stroke="#666666" points="628,-30 446,-30 446,0 628,0 628,-30"/>
<text text-anchor="start" x="454" y="-18" font-family="Helvetica,sans-Serif" font-size="10.00">tmc9660_handler_comprehensive</text>
<text text-anchor="middle" x="537" y="-7" font-family="Helvetica,sans-Serif" font-size="10.00">_test.cpp</text>
</a>
</g>
</g>
<!-- Node1&#45;&gt;Node5 -->
<g id="edge4_Node000001_Node000005" class="edge">
<title>Node1&#45;&gt;Node5</title>
<g id="a_edge4_Node000001_Node000005"><a xlink:title=" ">
<path fill="none" stroke="#63b8ff" d="M335.67,-63.68C375.65,-54.21 434.01,-40.39 477.62,-30.06"/>
<polygon fill="#63b8ff" stroke="#63b8ff" points="334.84,-60.28 325.92,-65.99 336.45,-67.09 334.84,-60.28"/>
</a>
</g>
</g>
</g>
</svg>
