<?xml version="1.0" encoding="UTF-8" standalone="no"?>
<!DOCTYPE svg PUBLIC "-//W3C//DTD SVG 1.1//EN"
 "http://www.w3.org/Graphics/SVG/1.1/DTD/svg11.dtd">
<!-- Generated by graphviz version 2.43.0 (0)
 -->
<!-- Title: Tmc9660Handler.h Pages: 1 -->
<svg width="1558pt" height="115pt"
 viewBox="0.00 0.00 1557.50 115.00" xmlns="http://www.w3.org/2000/svg" xmlns:xlink="http://www.w3.org/1999/xlink">
<g id="graph0" class="graph" transform="scale(1 1) rotate(0) translate(4 111)">
<title>Tmc9660Handler.h</title>
<!-- Node1 -->
<g id="Node000001" class="node">
<title>Node1</title>
<g id="a_Node000001"><a xlink:title="Unified handler for TMC9660 motor controller with GPIO, ADC, and temperature integration.">
<polygon fill="#999999" stroke="#666666" points="708,-107 600,-107 600,-88 708,-88 708,-107"/>
<text text-anchor="middle" x="654" y="-95" font-family="Helvetica,sans-Serif" font-size="10.00">Tmc9660Handler.h</text>
</a>
</g>
</g>
<!-- Node2 -->
<g id="Node000002" class="node">
<title>Node2</title>
<g id="a_Node000002"><a xlink:title=" ">
<polygon fill="#e0e0e0" stroke="#999999" points="50,-35.5 0,-35.5 0,-16.5 50,-16.5 50,-35.5"/>
<text text-anchor="middle" x="25" y="-23.5" font-family="Helvetica,sans-Serif" font-size="10.00">cstdint</text>
</a>
</g>
</g>
<!-- Node1&#45;&gt;Node2 -->
<g id="edge1_Node000001_Node000002" class="edge">
<title>Node1&#45;&gt;Node2</title>
<g id="a_edge1_Node000001_Node000002"><a xlink:title=" ">
<path fill="none" stroke="#63b8ff" d="M599.79,-96.25C472.41,-95.05 157.37,-88.39 59,-52 52.84,-49.72 46.82,-45.97 41.6,-42.06"/>
<polygon fill="#63b8ff" stroke="#63b8ff" points="43.64,-39.2 33.69,-35.56 39.19,-44.61 43.64,-39.2"/>
</a>
</g>
</g>
<!-- Node3 -->
<g id="Node000003" class="node">
<title>Node3</title>
<g id="a_Node000003"><a xlink:title=" ">
<polygon fill="#e0e0e0" stroke="#999999" points="126,-35.5 68,-35.5 68,-16.5 126,-16.5 126,-35.5"/>
<text text-anchor="middle" x="97" y="-23.5" font-family="Helvetica,sans-Serif" font-size="10.00">memory</text>
</a>
</g>
</g>
<!-- Node1&#45;&gt;Node3 -->
<g id="edge2_Node000001_Node000003" class="edge">
<title>Node1&#45;&gt;Node3</title>
<g id="a_edge2_Node000001_Node000003"><a xlink:title=" ">
<path fill="none" stroke="#63b8ff" d="M599.61,-95.21C484.47,-91.94 219.7,-81.36 135,-52 128.14,-49.62 121.32,-45.73 115.38,-41.72"/>
<polygon fill="#63b8ff" stroke="#63b8ff" points="117.04,-38.6 106.9,-35.52 112.9,-44.25 117.04,-38.6"/>
</a>
</g>
</g>
<!-- Node4 -->
<g id="Node000004" class="node">
<title>Node4</title>
<g id="a_Node000004"><a xlink:title=" ">
<polygon fill="#e0e0e0" stroke="#999999" points="186,-35.5 144,-35.5 144,-16.5 186,-16.5 186,-35.5"/>
<text text-anchor="middle" x="165" y="-23.5" font-family="Helvetica,sans-Serif" font-size="10.00">array</text>
</a>
</g>
</g>
<!-- Node1&#45;&gt;Node4 -->
<g id="edge3_Node000001_Node000004" class="edge">
<title>Node1&#45;&gt;Node4</title>
<g id="a_edge3_Node000001_Node000004"><a xlink:title=" ">
<path fill="none" stroke="#63b8ff" d="M599.7,-95.23C494.47,-92.11 266.84,-82.01 195,-52 189.82,-49.83 184.84,-46.45 180.49,-42.86"/>
<polygon fill="#63b8ff" stroke="#63b8ff" points="182.72,-40.16 172.99,-35.99 177.99,-45.32 182.72,-40.16"/>
</a>
</g>
</g>
<!-- Node5 -->
<g id="Node000005" class="node">
<title>Node5</title>
<g id="a_Node000005"><a xlink:title=" ">
<polygon fill="#e0e0e0" stroke="#999999" points="254,-35.5 204,-35.5 204,-16.5 254,-16.5 254,-35.5"/>
<text text-anchor="middle" x="229" y="-23.5" font-family="Helvetica,sans-Serif" font-size="10.00">atomic</text>
</a>
</g>
</g>
<!-- Node1&#45;&gt;Node5 -->
<g id="edge4_Node000001_Node000005" class="edge">
<title>Node1&#45;&gt;Node5</title>
<g id="a_edge4_Node000001_Node000005"><a xlink:title=" ">
<path fill="none" stroke="#63b8ff" d="M599.66,-93.77C507.09,-88.56 323.03,-75.54 263,-52 256.97,-49.64 251.05,-45.92 245.88,-42.07"/>
<polygon fill="#63b8ff" stroke="#63b8ff" points="247.98,-39.27 238.01,-35.69 243.57,-44.71 247.98,-39.27"/>
</a>
</g>
</g>
<!-- Node6 -->
<g id="Node000006" class="node">
<title>Node6</title>
<g id="a_Node000006"><a xlink:title=" ">
<polygon fill="#e0e0e0" stroke="#999999" points="341.5,-35.5 272.5,-35.5 272.5,-16.5 341.5,-16.5 341.5,-35.5"/>
<text text-anchor="middle" x="307" y="-23.5" font-family="Helvetica,sans-Serif" font-size="10.00">type_traits</text>
</a>
</g>
</g>
<!-- Node1&#45;&gt;Node6 -->
<g id="edge5_Node000001_Node000006" class="edge">
<title>Node1&#45;&gt;Node6</title>
<g id="a_edge5_Node000001_Node000006"><a xlink:title=" ">
<path fill="none" stroke="#63b8ff" d="M599.81,-94.75C537.84,-91.36 434.1,-81.37 350,-52 342.27,-49.3 334.36,-45.17 327.47,-41.03"/>
<polygon fill="#63b8ff" stroke="#63b8ff" points="329.13,-37.94 318.81,-35.53 325.38,-43.85 329.13,-37.94"/>
</a>
</g>
</g>
<!-- Node7 -->
<g id="Node000007" class="node">
<title>Node7</title>
<g id="a_Node000007"><a xlink:title=" ">
<polygon fill="#e0e0e0" stroke="#999999" points="410.5,-35.5 359.5,-35.5 359.5,-16.5 410.5,-16.5 410.5,-35.5"/>
<text text-anchor="middle" x="385" y="-23.5" font-family="Helvetica,sans-Serif" font-size="10.00">variant</text>
</a>
</g>
</g>
<!-- Node1&#45;&gt;Node7 -->
<g id="edge6_Node000001_Node000007" class="edge">
<title>Node1&#45;&gt;Node7</title>
<g id="a_edge6_Node000001_Node000007"><a xlink:title=" ">
<path fill="none" stroke="#63b8ff" d="M599.73,-93.09C550.76,-88.44 477.63,-77.52 419,-52 413.15,-49.45 407.34,-45.74 402.23,-41.96"/>
<polygon fill="#63b8ff" stroke="#63b8ff" points="404.39,-39.2 394.39,-35.71 400.02,-44.68 404.39,-39.2"/>
</a>
</g>
</g>
<!-- Node8 -->
<g id="Node000008" class="node">
<title>Node8</title>
<g id="a_Node000008"><a xlink:title=" ">
<polygon fill="#e0e0e0" stroke="#999999" points="561.5,-46.5 428.5,-46.5 428.5,-5.5 561.5,-5.5 561.5,-46.5"/>
<text text-anchor="start" x="436.5" y="-34.5" font-family="Helvetica,sans-Serif" font-size="10.00">core/hf&#45;core&#45;drivers</text>
<text text-anchor="start" x="436.5" y="-23.5" font-family="Helvetica,sans-Serif" font-size="10.00">/external/hf&#45;tmc9660</text>
<text text-anchor="middle" x="495" y="-12.5" font-family="Helvetica,sans-Serif" font-size="10.00">&#45;driver/inc/tmc9660.hpp</text>
</a>
</g>
</g>
<!-- Node1&#45;&gt;Node8 -->
<g id="edge7_Node000001_Node000008" class="edge">
<title>Node1&#45;&gt;Node8</title>
<g id="a_edge7_Node000001_Node000008"><a xlink:title=" ">
<path fill="none" stroke="#63b8ff" d="M634.5,-87.98C613.33,-78.72 578.57,-63.53 549.05,-50.63"/>
<polygon fill="#63b8ff" stroke="#63b8ff" points="550.24,-47.33 539.67,-46.53 547.43,-53.74 550.24,-47.33"/>
</a>
</g>
</g>
<!-- Node9 -->
<g id="Node000009" class="node">
<title>Node9</title>
<g id="a_Node000009"><a xlink:title=" ">
<polygon fill="#e0e0e0" stroke="#999999" points="728,-52 580,-52 580,0 728,0 728,-52"/>
<text text-anchor="start" x="588" y="-40" font-family="Helvetica,sans-Serif" font-size="10.00">core/hf&#45;core&#45;drivers</text>
<text text-anchor="start" x="588" y="-29" font-family="Helvetica,sans-Serif" font-size="10.00">/external/hf&#45;tmc9660</text>
<text text-anchor="start" x="588" y="-18" font-family="Helvetica,sans-Serif" font-size="10.00">&#45;driver/inc/tmc9660_comm</text>
<text text-anchor="middle" x="654" y="-7" font-family="Helvetica,sans-Serif" font-size="10.00">_interface.hpp</text>
</a>
</g>
</g>
<!-- Node1&#45;&gt;Node9 -->
<g id="edge8_Node000001_Node000009" class="edge">
<title>Node1&#45;&gt;Node9</title>
<g id="a_edge8_Node000001_Node000009"><a xlink:title=" ">
<path fill="none" stroke="#63b8ff" d="M654,-87.98C654,-81.43 654,-71.91 654,-62.33"/>
<polygon fill="#63b8ff" stroke="#63b8ff" points="657.5,-62.05 654,-52.05 650.5,-62.05 657.5,-62.05"/>
</a>
</g>
</g>
<!-- Node10 -->
<g id="Node000010" class="node">
<title>Node10</title>
<g id="a_Node000010"><a xlink:title=" ">
<polygon fill="#e0e0e0" stroke="#999999" points="844,-35.5 746,-35.5 746,-16.5 844,-16.5 844,-35.5"/>
<text text-anchor="middle" x="795" y="-23.5" font-family="Helvetica,sans-Serif" font-size="10.00">base/BaseGpio.h</text>
</a>
</g>
</g>
<!-- Node1&#45;&gt;Node10 -->
<g id="edge9_Node000001_Node000010" class="edge">
<title>Node1&#45;&gt;Node10</title>
<g id="a_edge9_Node000001_Node000010"><a xlink:title=" ">
<path fill="none" stroke="#63b8ff" d="M671.29,-87.98C695.6,-75.99 740.1,-54.06 768.58,-40.02"/>
<polygon fill="#63b8ff" stroke="#63b8ff" points="770.15,-43.15 777.57,-35.59 767.05,-36.87 770.15,-43.15"/>
</a>
</g>
</g>
<!-- Node11 -->
<g id="Node000011" class="node">
<title>Node11</title>
<g id="a_Node000011"><a xlink:title=" ">
<polygon fill="#e0e0e0" stroke="#999999" points="956,-35.5 862,-35.5 862,-16.5 956,-16.5 956,-35.5"/>
<text text-anchor="middle" x="909" y="-23.5" font-family="Helvetica,sans-Serif" font-size="10.00">base/BaseAdc.h</text>
</a>
</g>
</g>
<!-- Node1&#45;&gt;Node11 -->
<g id="edge10_Node000001_Node000011" class="edge">
<title>Node1&#45;&gt;Node11</title>
<g id="a_edge10_Node000001_Node000011"><a xlink:title=" ">
<path fill="none" stroke="#63b8ff" d="M705.06,-87.99C745.71,-80.53 803.77,-68.31 853,-52 863.05,-48.67 873.74,-44.15 883.06,-39.88"/>
<polygon fill="#63b8ff" stroke="#63b8ff" points="884.65,-43 892.19,-35.56 881.66,-36.67 884.65,-43"/>
</a>
</g>
</g>
<!-- Node12 -->
<g id="Node000012" class="node">
<title>Node12</title>
<g id="a_Node000012"><a xlink:title=" ">
<polygon fill="#e0e0e0" stroke="#999999" points="1111.5,-35.5 974.5,-35.5 974.5,-16.5 1111.5,-16.5 1111.5,-35.5"/>
<text text-anchor="middle" x="1043" y="-23.5" font-family="Helvetica,sans-Serif" font-size="10.00">base/BaseTemperature.h</text>
</a>
</g>
</g>
<!-- Node1&#45;&gt;Node12 -->
<g id="edge11_Node000001_Node000012" class="edge">
<title>Node1&#45;&gt;Node12</title>
<g id="a_edge11_Node000001_Node000012"><a xlink:title=" ">
<path fill="none" stroke="#63b8ff" d="M708.16,-91.54C770.62,-85.18 876.1,-72.45 965,-52 980.05,-48.54 996.38,-43.51 1010.18,-38.87"/>
<polygon fill="#63b8ff" stroke="#63b8ff" points="1011.41,-42.15 1019.73,-35.59 1009.14,-35.53 1011.41,-42.15"/>
</a>
</g>
</g>
<!-- Node13 -->
<g id="Node000013" class="node">
<title>Node13</title>
<g id="a_Node000013"><a xlink:title=" ">
<polygon fill="#e0e0e0" stroke="#999999" points="1220.5,-35.5 1129.5,-35.5 1129.5,-16.5 1220.5,-16.5 1220.5,-35.5"/>
<text text-anchor="middle" x="1175" y="-23.5" font-family="Helvetica,sans-Serif" font-size="10.00">base/BaseSpi.h</text>
</a>
</g>
</g>
<!-- Node1&#45;&gt;Node13 -->
<g id="edge12_Node000001_Node000013" class="edge">
<title>Node1&#45;&gt;Node13</title>
<g id="a_edge12_Node000001_Node000013"><a xlink:title=" ">
<path fill="none" stroke="#63b8ff" d="M708.28,-97.21C796.44,-97.07 975.56,-91.36 1121,-52 1131.11,-49.27 1141.67,-44.78 1150.75,-40.35"/>
<polygon fill="#63b8ff" stroke="#63b8ff" points="1152.62,-43.33 1159.93,-35.66 1149.43,-37.1 1152.62,-43.33"/>
</a>
</g>
</g>
<!-- Node14 -->
<g id="Node000014" class="node">
<title>Node14</title>
<g id="a_Node000014"><a xlink:title=" ">
<polygon fill="#e0e0e0" stroke="#999999" points="1335.5,-35.5 1238.5,-35.5 1238.5,-16.5 1335.5,-16.5 1335.5,-35.5"/>
<text text-anchor="middle" x="1287" y="-23.5" font-family="Helvetica,sans-Serif" font-size="10.00">base/BaseUart.h</text>
</a>
</g>
</g>
<!-- Node1&#45;&gt;Node14 -->
<g id="edge13_Node000001_Node000014" class="edge">
<title>Node1&#45;&gt;Node14</title>
<g id="a_edge13_Node000001_Node000014"><a xlink:title=" ">
<path fill="none" stroke="#63b8ff" d="M708.33,-94.63C832.15,-89.98 1132.09,-76.5 1230,-52 1240.85,-49.28 1252.24,-44.68 1261.97,-40.15"/>
<polygon fill="#63b8ff" stroke="#63b8ff" points="1263.59,-43.26 1271.05,-35.73 1260.53,-36.96 1263.59,-43.26"/>
</a>
</g>
</g>
<!-- Node15 -->
<g id="Node000015" class="node">
<title>Node15</title>
<g id="a_Node000015"><a xlink:title=" ">
<polygon fill="#e0e0e0" stroke="#999999" points="1486.5,-52 1353.5,-52 1353.5,0 1486.5,0 1486.5,-52"/>
<text text-anchor="start" x="1361.5" y="-40" font-family="Helvetica,sans-Serif" font-size="10.00">core/hf&#45;core&#45;drivers</text>
<text text-anchor="start" x="1361.5" y="-29" font-family="Helvetica,sans-Serif" font-size="10.00">/internal/hf&#45;internal</text>
<text text-anchor="start" x="1361.5" y="-18" font-family="Helvetica,sans-Serif" font-size="10.00">&#45;interface&#45;wrap/inc/utils</text>
<text text-anchor="middle" x="1420" y="-7" font-family="Helvetica,sans-Serif" font-size="10.00">/RtosMutex.h</text>
</a>
</g>
</g>
<!-- Node1&#45;&gt;Node15 -->
<g id="edge14_Node000001_Node000015" class="edge">
<title>Node1&#45;&gt;Node15</title>
<g id="a_edge14_Node000001_Node000015"><a xlink:title=" ">
<path fill="none" stroke="#63b8ff" d="M708.11,-94.81C845.3,-90.26 1205.11,-76.49 1343.22,-52.08"/>
<polygon fill="#63b8ff" stroke="#63b8ff" points="1343.98,-55.5 1353.17,-50.22 1342.7,-48.61 1343.98,-55.5"/>
</a>
</g>
</g>
<!-- Node16 -->
<g id="Node000016" class="node">
<title>Node16</title>
<g id="a_Node000016"><a xlink:title=" ">
<polygon fill="#e0e0e0" stroke="#999999" points="1549.5,-35.5 1504.5,-35.5 1504.5,-16.5 1549.5,-16.5 1549.5,-35.5"/>
<text text-anchor="middle" x="1527" y="-23.5" font-family="Helvetica,sans-Serif" font-size="10.00">utility</text>
</a>
</g>
</g>
<!-- Node1&#45;&gt;Node16 -->
<g id="edge15_Node000001_Node000016" class="edge">
<title>Node1&#45;&gt;Node16</title>
<g id="a_edge15_Node000001_Node000016"><a xlink:title=" ">
<path fill="none" stroke="#63b8ff" d="M708.04,-95.57C882.36,-92.32 1422.78,-80.04 1496,-52 1501.65,-49.84 1507.06,-46.23 1511.73,-42.42"/>
<polygon fill="#63b8ff" stroke="#63b8ff" points="1514.18,-44.92 1519.24,-35.62 1509.48,-39.74 1514.18,-44.92"/>
</a>
</g>
</g>
</g>
</svg>
