<?xml version="1.0" encoding="UTF-8" standalone="no"?>
<!DOCTYPE svg PUBLIC "-//W3C//DTD SVG 1.1//EN"
 "http://www.w3.org/Graphics/SVG/1.1/DTD/svg11.dtd">
<!-- Generated by graphviz version 2.43.0 (0)
 -->
<!-- Title: Tmc9660Handler.cpp Pages: 1 -->
<svg width="1631pt" height="247pt"
 viewBox="0.00 0.00 1631.32 247.00" xmlns="http://www.w3.org/2000/svg" xmlns:xlink="http://www.w3.org/1999/xlink">
<g id="graph0" class="graph" transform="scale(1 1) rotate(0) translate(4 243)">
<title>Tmc9660Handler.cpp</title>
<!-- Node1 -->
<g id="Node000001" class="node">
<title>Node1</title>
<g id="a_Node000001"><a xlink:title=" ">
<polygon fill="#999999" stroke="#666666" points="1096.82,-239 977.82,-239 977.82,-220 1096.82,-220 1096.82,-239"/>
<text text-anchor="middle" x="1037.32" y="-227" font-family="Helvetica,sans-Serif" font-size="10.00">Tmc9660Handler.cpp</text>
</a>
</g>
</g>
<!-- Node2 -->
<g id="Node000002" class="node">
<title>Node2</title>
<g id="a_Node000002"><a xlink:href="Tmc9660Handler_8h.html" target="_top" xlink:title="Unified handler for TMC9660 motor controller with GPIO, ADC, and temperature integration.">
<polygon fill="white" stroke="#666666" points="1009.32,-173 901.32,-173 901.32,-154 1009.32,-154 1009.32,-173"/>
<text text-anchor="middle" x="955.32" y="-161" font-family="Helvetica,sans-Serif" font-size="10.00">Tmc9660Handler.h</text>
</a>
</g>
</g>
<!-- Node1&#45;&gt;Node2 -->
<g id="edge1_Node000001_Node000002" class="edge">
<title>Node1&#45;&gt;Node2</title>
<g id="a_edge1_Node000001_Node000002"><a xlink:title=" ">
<path fill="none" stroke="#63b8ff" d="M1026.26,-219.87C1013.05,-209.56 990.74,-192.15 974.66,-179.59"/>
<polygon fill="#63b8ff" stroke="#63b8ff" points="976.5,-176.59 966.46,-173.2 972.19,-182.11 976.5,-176.59"/>
</a>
</g>
</g>
<!-- Node10 -->
<g id="Node000010" class="node">
<title>Node10</title>
<g id="a_Node000010"><a xlink:title=" ">
<polygon fill="#e0e0e0" stroke="#999999" points="1623.32,-107 1475.32,-107 1475.32,-55 1623.32,-55 1623.32,-107"/>
<text text-anchor="start" x="1483.32" y="-95" font-family="Helvetica,sans-Serif" font-size="10.00">core/hf&#45;core&#45;drivers</text>
<text text-anchor="start" x="1483.32" y="-84" font-family="Helvetica,sans-Serif" font-size="10.00">/external/hf&#45;tmc9660</text>
<text text-anchor="start" x="1483.32" y="-73" font-family="Helvetica,sans-Serif" font-size="10.00">&#45;driver/inc/tmc9660_comm</text>
<text text-anchor="middle" x="1549.32" y="-62" font-family="Helvetica,sans-Serif" font-size="10.00">_interface.hpp</text>
</a>
</g>
</g>
<!-- Node1&#45;&gt;Node10 -->
<g id="edge30_Node000001_Node000010" class="edge">
<title>Node1&#45;&gt;Node10</title>
<g id="a_edge30_Node000001_Node000010"><a xlink:title=" ">
<path fill="none" stroke="#63b8ff" d="M1036.38,-219.84C1035.01,-202.29 1034.74,-162.58 1057.32,-143 1124.03,-85.15 1360.77,-121.71 1465.3,-106.78"/>
<polygon fill="#63b8ff" stroke="#63b8ff" points="1466.01,-110.21 1475.29,-105.12 1464.85,-103.31 1466.01,-110.21"/>
</a>
</g>
</g>
<!-- Node18 -->
<g id="Node000018" class="node">
<title>Node18</title>
<g id="a_Node000018"><a xlink:title=" ">
<polygon fill="#e0e0e0" stroke="#999999" points="57.32,-19 7.32,-19 7.32,0 57.32,0 57.32,-19"/>
<text text-anchor="middle" x="32.32" y="-7" font-family="Helvetica,sans-Serif" font-size="10.00">cstring</text>
</a>
</g>
</g>
<!-- Node1&#45;&gt;Node18 -->
<g id="edge17_Node000001_Node000018" class="edge">
<title>Node1&#45;&gt;Node18</title>
<g id="a_edge17_Node000001_Node000018"><a xlink:title=" ">
<path fill="none" stroke="#63b8ff" d="M977.62,-227.4C769.99,-223.39 89.86,-208.42 50.32,-184 -1.1,-152.24 -7.98,-113.47 7.32,-55 9.86,-45.26 15.07,-35.41 20.08,-27.46"/>
<polygon fill="#63b8ff" stroke="#63b8ff" points="23.01,-29.37 25.69,-19.12 17.2,-25.46 23.01,-29.37"/>
</a>
</g>
</g>
<!-- Node19 -->
<g id="Node000019" class="node">
<title>Node19</title>
<g id="a_Node000019"><a xlink:title=" ">
<polygon fill="#e0e0e0" stroke="#999999" points="62.32,-90.5 16.32,-90.5 16.32,-71.5 62.32,-71.5 62.32,-90.5"/>
<text text-anchor="middle" x="39.32" y="-78.5" font-family="Helvetica,sans-Serif" font-size="10.00">cstdio</text>
</a>
</g>
</g>
<!-- Node1&#45;&gt;Node19 -->
<g id="edge18_Node000001_Node000019" class="edge">
<title>Node1&#45;&gt;Node19</title>
<g id="a_edge18_Node000001_Node000019"><a xlink:title=" ">
<path fill="none" stroke="#63b8ff" d="M977.49,-227.43C774.3,-223.58 121.2,-209.29 84.32,-184 56.48,-164.91 45.69,-124.5 41.63,-100.67"/>
<polygon fill="#63b8ff" stroke="#63b8ff" points="45.09,-100.13 40.18,-90.75 38.17,-101.15 45.09,-100.13"/>
</a>
</g>
</g>
<!-- Node20 -->
<g id="Node000020" class="node">
<title>Node20</title>
<g id="a_Node000020"><a xlink:title=" ">
<polygon fill="#e0e0e0" stroke="#999999" points="1112.82,-173 1065.82,-173 1065.82,-154 1112.82,-154 1112.82,-173"/>
<text text-anchor="middle" x="1089.32" y="-161" font-family="Helvetica,sans-Serif" font-size="10.00">cmath</text>
</a>
</g>
</g>
<!-- Node1&#45;&gt;Node20 -->
<g id="edge19_Node000001_Node000020" class="edge">
<title>Node1&#45;&gt;Node20</title>
<g id="a_edge19_Node000001_Node000020"><a xlink:title=" ">
<path fill="none" stroke="#63b8ff" d="M1044.33,-219.87C1052.35,-210 1065.67,-193.61 1075.73,-181.22"/>
<polygon fill="#63b8ff" stroke="#63b8ff" points="1078.49,-183.37 1082.08,-173.41 1073.06,-178.96 1078.49,-183.37"/>
</a>
</g>
</g>
<!-- Node21 -->
<g id="Node000021" class="node">
<title>Node21</title>
<g id="a_Node000021"><a xlink:title=" ">
<polygon fill="#e0e0e0" stroke="#999999" points="1195.32,-173 1131.32,-173 1131.32,-154 1195.32,-154 1195.32,-173"/>
<text text-anchor="middle" x="1163.32" y="-161" font-family="Helvetica,sans-Serif" font-size="10.00">algorithm</text>
</a>
</g>
</g>
<!-- Node1&#45;&gt;Node21 -->
<g id="edge20_Node000001_Node000021" class="edge">
<title>Node1&#45;&gt;Node21</title>
<g id="a_edge20_Node000001_Node000021"><a xlink:title=" ">
<path fill="none" stroke="#63b8ff" d="M1054.31,-219.87C1075.54,-209.09 1112.1,-190.52 1136.97,-177.88"/>
<polygon fill="#63b8ff" stroke="#63b8ff" points="1138.86,-180.85 1146.19,-173.2 1135.69,-174.61 1138.86,-180.85"/>
</a>
</g>
</g>
<!-- Node22 -->
<g id="Node000022" class="node">
<title>Node22</title>
<g id="a_Node000022"><a xlink:href="HandlerCommon_8h.html" target="_top" xlink:title="Shared utility functions for handler CRTP communication adapters.">
<polygon fill="white" stroke="#666666" points="201.32,-173 93.32,-173 93.32,-154 201.32,-154 201.32,-173"/>
<text text-anchor="middle" x="147.32" y="-161" font-family="Helvetica,sans-Serif" font-size="10.00">HandlerCommon.h</text>
</a>
</g>
</g>
<!-- Node1&#45;&gt;Node22 -->
<g id="edge21_Node000001_Node000022" class="edge">
<title>Node1&#45;&gt;Node22</title>
<g id="a_edge21_Node000001_Node000022"><a xlink:title=" ">
<path fill="none" stroke="#63b8ff" d="M977.54,-224.2C816.92,-212.65 376.97,-181.01 211.44,-169.11"/>
<polygon fill="#63b8ff" stroke="#63b8ff" points="211.63,-165.62 201.4,-168.39 211.13,-172.6 211.63,-165.62"/>
</a>
</g>
</g>
<!-- Node25 -->
<g id="Node000025" class="node">
<title>Node25</title>
<g id="a_Node000025"><a xlink:title=" ">
<polygon fill="#e0e0e0" stroke="#999999" points="1348.82,-184 1213.82,-184 1213.82,-143 1348.82,-143 1348.82,-184"/>
<text text-anchor="start" x="1221.82" y="-172" font-family="Helvetica,sans-Serif" font-size="10.00">core/hf&#45;core&#45;utils</text>
<text text-anchor="start" x="1221.82" y="-161" font-family="Helvetica,sans-Serif" font-size="10.00">/hf&#45;utils&#45;rtos&#45;wrap</text>
<text text-anchor="middle" x="1281.32" y="-150" font-family="Helvetica,sans-Serif" font-size="10.00">/include/OsAbstraction.h</text>
</a>
</g>
</g>
<!-- Node1&#45;&gt;Node25 -->
<g id="edge31_Node000001_Node000025" class="edge">
<title>Node1&#45;&gt;Node25</title>
<g id="a_edge31_Node000001_Node000025"><a xlink:title=" ">
<path fill="none" stroke="#63b8ff" d="M1069.97,-219.94C1103.97,-211.02 1158.45,-196.73 1203.59,-184.89"/>
<polygon fill="#63b8ff" stroke="#63b8ff" points="1204.57,-188.25 1213.36,-182.33 1202.8,-181.48 1204.57,-188.25"/>
</a>
</g>
</g>
<!-- Node26 -->
<g id="Node000026" class="node">
<title>Node26</title>
<g id="a_Node000026"><a xlink:title=" ">
<polygon fill="#e0e0e0" stroke="#999999" points="1475.32,-184 1367.32,-184 1367.32,-143 1475.32,-143 1475.32,-184"/>
<text text-anchor="start" x="1375.32" y="-172" font-family="Helvetica,sans-Serif" font-size="10.00">core/hf&#45;core&#45;utils</text>
<text text-anchor="start" x="1375.32" y="-161" font-family="Helvetica,sans-Serif" font-size="10.00">/hf&#45;utils&#45;rtos&#45;wrap</text>
<text text-anchor="middle" x="1421.32" y="-150" font-family="Helvetica,sans-Serif" font-size="10.00">/include/OsUtility.h</text>
</a>
</g>
</g>
<!-- Node1&#45;&gt;Node26 -->
<g id="edge32_Node000001_Node000026" class="edge">
<title>Node1&#45;&gt;Node26</title>
<g id="a_edge32_Node000001_Node000026"><a xlink:title=" ">
<path fill="none" stroke="#63b8ff" d="M1097,-223.15C1159.69,-216.88 1261.23,-204.87 1357.3,-184.05"/>
<polygon fill="#63b8ff" stroke="#63b8ff" points="1358.16,-187.44 1367.17,-181.87 1356.65,-180.61 1358.16,-187.44"/>
</a>
</g>
</g>
<!-- Node3 -->
<g id="Node000003" class="node">
<title>Node3</title>
<g id="a_Node000003"><a xlink:title=" ">
<polygon fill="#e0e0e0" stroke="#999999" points="244.32,-90.5 194.32,-90.5 194.32,-71.5 244.32,-71.5 244.32,-90.5"/>
<text text-anchor="middle" x="219.32" y="-78.5" font-family="Helvetica,sans-Serif" font-size="10.00">cstdint</text>
</a>
</g>
</g>
<!-- Node2&#45;&gt;Node3 -->
<g id="edge2_Node000002_Node000003" class="edge">
<title>Node2&#45;&gt;Node3</title>
<g id="a_edge2_Node000002_Node000003"><a xlink:title=" ">
<path fill="none" stroke="#63b8ff" d="M901.3,-162.03C758.16,-160.2 371.97,-151.18 253.32,-107 247.16,-104.71 241.14,-100.95 235.92,-97.04"/>
<polygon fill="#63b8ff" stroke="#63b8ff" points="237.96,-94.18 228.01,-90.54 233.52,-99.59 237.96,-94.18"/>
</a>
</g>
</g>
<!-- Node4 -->
<g id="Node000004" class="node">
<title>Node4</title>
<g id="a_Node000004"><a xlink:title=" ">
<polygon fill="#e0e0e0" stroke="#999999" points="718.32,-19 660.32,-19 660.32,0 718.32,0 718.32,-19"/>
<text text-anchor="middle" x="689.32" y="-7" font-family="Helvetica,sans-Serif" font-size="10.00">memory</text>
</a>
</g>
</g>
<!-- Node2&#45;&gt;Node4 -->
<g id="edge3_Node000002_Node000004" class="edge">
<title>Node2&#45;&gt;Node4</title>
<g id="a_edge3_Node000002_Node000004"><a xlink:title=" ">
<path fill="none" stroke="#63b8ff" d="M984.03,-153.97C996.12,-150.45 1010.37,-146.41 1023.32,-143 1089.62,-125.55 1130.87,-160.84 1173.32,-107 1187.63,-88.85 1188.89,-72.07 1173.32,-55 1143.53,-22.35 838.38,-13.34 728.49,-11.14"/>
<polygon fill="#63b8ff" stroke="#63b8ff" points="728.54,-7.64 718.48,-10.95 728.41,-14.64 728.54,-7.64"/>
</a>
</g>
</g>
<!-- Node5 -->
<g id="Node000005" class="node">
<title>Node5</title>
<g id="a_Node000005"><a xlink:title=" ">
<polygon fill="#e0e0e0" stroke="#999999" points="1300.32,-90.5 1258.32,-90.5 1258.32,-71.5 1300.32,-71.5 1300.32,-90.5"/>
<text text-anchor="middle" x="1279.32" y="-78.5" font-family="Helvetica,sans-Serif" font-size="10.00">array</text>
</a>
</g>
</g>
<!-- Node2&#45;&gt;Node5 -->
<g id="edge4_Node000002_Node000005" class="edge">
<title>Node2&#45;&gt;Node5</title>
<g id="a_edge4_Node000002_Node000005"><a xlink:title=" ">
<path fill="none" stroke="#63b8ff" d="M982.26,-153.98C994.68,-150.26 1009.66,-146.06 1023.32,-143 1120.43,-121.25 1152.31,-144.91 1244.32,-107 1250.42,-104.48 1256.48,-100.73 1261.8,-96.88"/>
<polygon fill="#63b8ff" stroke="#63b8ff" points="1264.21,-99.45 1269.94,-90.54 1259.9,-93.93 1264.21,-99.45"/>
</a>
</g>
</g>
<!-- Node6 -->
<g id="Node000006" class="node">
<title>Node6</title>
<g id="a_Node000006"><a xlink:title=" ">
<polygon fill="#e0e0e0" stroke="#999999" points="1034.32,-19 984.32,-19 984.32,0 1034.32,0 1034.32,-19"/>
<text text-anchor="middle" x="1009.32" y="-7" font-family="Helvetica,sans-Serif" font-size="10.00">atomic</text>
</a>
</g>
</g>
<!-- Node2&#45;&gt;Node6 -->
<g id="edge5_Node000002_Node000006" class="edge">
<title>Node2&#45;&gt;Node6</title>
<g id="a_edge5_Node000002_Node000006"><a xlink:title=" ">
<path fill="none" stroke="#63b8ff" d="M982.97,-153.99C995.26,-150.36 1009.95,-146.23 1023.32,-143 1103.9,-123.56 1153.66,-171.02 1206.32,-107 1221,-89.15 1220.75,-73.05 1206.32,-55 1186.45,-30.15 1095.73,-18.17 1044.61,-13.3"/>
<polygon fill="#63b8ff" stroke="#63b8ff" points="1044.92,-9.81 1034.65,-12.39 1044.29,-16.78 1044.92,-9.81"/>
</a>
</g>
</g>
<!-- Node7 -->
<g id="Node000007" class="node">
<title>Node7</title>
<g id="a_Node000007"><a xlink:title=" ">
<polygon fill="#e0e0e0" stroke="#999999" points="1387.82,-90.5 1318.82,-90.5 1318.82,-71.5 1387.82,-71.5 1387.82,-90.5"/>
<text text-anchor="middle" x="1353.32" y="-78.5" font-family="Helvetica,sans-Serif" font-size="10.00">type_traits</text>
</a>
</g>
</g>
<!-- Node2&#45;&gt;Node7 -->
<g id="edge6_Node000002_Node000007" class="edge">
<title>Node2&#45;&gt;Node7</title>
<g id="a_edge6_Node000002_Node000007"><a xlink:title=" ">
<path fill="none" stroke="#63b8ff" d="M981.56,-153.95C994.09,-150.13 1009.36,-145.86 1023.32,-143 1148.82,-117.27 1187.75,-147.42 1309.32,-107 1317.23,-104.37 1325.32,-100.26 1332.37,-96.12"/>
<polygon fill="#63b8ff" stroke="#63b8ff" points="1334.59,-98.86 1341.22,-90.6 1330.89,-92.92 1334.59,-98.86"/>
</a>
</g>
</g>
<!-- Node8 -->
<g id="Node000008" class="node">
<title>Node8</title>
<g id="a_Node000008"><a xlink:title=" ">
<polygon fill="#e0e0e0" stroke="#999999" points="1456.82,-90.5 1405.82,-90.5 1405.82,-71.5 1456.82,-71.5 1456.82,-90.5"/>
<text text-anchor="middle" x="1431.32" y="-78.5" font-family="Helvetica,sans-Serif" font-size="10.00">variant</text>
</a>
</g>
</g>
<!-- Node2&#45;&gt;Node8 -->
<g id="edge7_Node000002_Node000008" class="edge">
<title>Node2&#45;&gt;Node8</title>
<g id="a_edge7_Node000002_Node000008"><a xlink:title=" ">
<path fill="none" stroke="#63b8ff" d="M980.88,-153.97C993.52,-150.06 1009.08,-145.7 1023.32,-143 1187.38,-111.85 1241.33,-166.61 1397.32,-107 1403.37,-104.69 1409.29,-100.99 1414.46,-97.14"/>
<polygon fill="#63b8ff" stroke="#63b8ff" points="1416.78,-99.77 1422.33,-90.74 1412.36,-94.34 1416.78,-99.77"/>
</a>
</g>
</g>
<!-- Node9 -->
<g id="Node000009" class="node">
<title>Node9</title>
<g id="a_Node000009"><a xlink:title=" ">
<polygon fill="#e0e0e0" stroke="#999999" points="395.82,-101.5 262.82,-101.5 262.82,-60.5 395.82,-60.5 395.82,-101.5"/>
<text text-anchor="start" x="270.82" y="-89.5" font-family="Helvetica,sans-Serif" font-size="10.00">core/hf&#45;core&#45;drivers</text>
<text text-anchor="start" x="270.82" y="-78.5" font-family="Helvetica,sans-Serif" font-size="10.00">/external/hf&#45;tmc9660</text>
<text text-anchor="middle" x="329.32" y="-67.5" font-family="Helvetica,sans-Serif" font-size="10.00">&#45;driver/inc/tmc9660.hpp</text>
</a>
</g>
</g>
<!-- Node2&#45;&gt;Node9 -->
<g id="edge8_Node000002_Node000009" class="edge">
<title>Node2&#45;&gt;Node9</title>
<g id="a_edge8_Node000002_Node000009"><a xlink:title=" ">
<path fill="none" stroke="#63b8ff" d="M901.24,-160.93C801.96,-157.19 584.39,-145.02 405.32,-107 401.53,-106.2 397.66,-105.27 393.78,-104.26"/>
<polygon fill="#63b8ff" stroke="#63b8ff" points="394.71,-100.88 384.14,-101.59 392.84,-107.63 394.71,-100.88"/>
</a>
</g>
</g>
<!-- Node2&#45;&gt;Node10 -->
<g id="edge9_Node000002_Node000010" class="edge">
<title>Node2&#45;&gt;Node10</title>
<g id="a_edge9_Node000002_Node000010"><a xlink:title=" ">
<path fill="none" stroke="#63b8ff" d="M980.54,-153.97C993.23,-150.02 1008.94,-145.62 1023.32,-143 1214.43,-108.19 1270.37,-142.51 1465.31,-107"/>
<polygon fill="#63b8ff" stroke="#63b8ff" points="1466.11,-110.41 1475.3,-105.14 1464.83,-103.53 1466.11,-110.41"/>
</a>
</g>
</g>
<!-- Node11 -->
<g id="Node000011" class="node">
<title>Node11</title>
<g id="a_Node000011"><a xlink:title=" ">
<polygon fill="#e0e0e0" stroke="#999999" points="512.32,-90.5 414.32,-90.5 414.32,-71.5 512.32,-71.5 512.32,-90.5"/>
<text text-anchor="middle" x="463.32" y="-78.5" font-family="Helvetica,sans-Serif" font-size="10.00">base/BaseGpio.h</text>
</a>
</g>
</g>
<!-- Node2&#45;&gt;Node11 -->
<g id="edge10_Node000002_Node000011" class="edge">
<title>Node2&#45;&gt;Node11</title>
<g id="a_edge10_Node000002_Node000011"><a xlink:title=" ">
<path fill="none" stroke="#63b8ff" d="M901.26,-160.43C818.21,-156.18 654.85,-143.54 521.32,-107 510.53,-104.05 499.13,-99.48 489.32,-95.05"/>
<polygon fill="#63b8ff" stroke="#63b8ff" points="490.66,-91.81 480.12,-90.74 487.69,-98.15 490.66,-91.81"/>
</a>
</g>
</g>
<!-- Node12 -->
<g id="Node000012" class="node">
<title>Node12</title>
<g id="a_Node000012"><a xlink:title=" ">
<polygon fill="#e0e0e0" stroke="#999999" points="624.32,-90.5 530.32,-90.5 530.32,-71.5 624.32,-71.5 624.32,-90.5"/>
<text text-anchor="middle" x="577.32" y="-78.5" font-family="Helvetica,sans-Serif" font-size="10.00">base/BaseAdc.h</text>
</a>
</g>
</g>
<!-- Node2&#45;&gt;Node12 -->
<g id="edge11_Node000002_Node000012" class="edge">
<title>Node2&#45;&gt;Node12</title>
<g id="a_edge11_Node000002_Node000012"><a xlink:title=" ">
<path fill="none" stroke="#63b8ff" d="M901.09,-157.33C836.32,-150.19 725.17,-134.94 633.32,-107 623.04,-103.87 612.16,-99.32 602.75,-94.96"/>
<polygon fill="#63b8ff" stroke="#63b8ff" points="604.09,-91.73 593.56,-90.55 601.06,-98.04 604.09,-91.73"/>
</a>
</g>
</g>
<!-- Node13 -->
<g id="Node000013" class="node">
<title>Node13</title>
<g id="a_Node000013"><a xlink:title=" ">
<polygon fill="#e0e0e0" stroke="#999999" points="779.82,-90.5 642.82,-90.5 642.82,-71.5 779.82,-71.5 779.82,-90.5"/>
<text text-anchor="middle" x="711.32" y="-78.5" font-family="Helvetica,sans-Serif" font-size="10.00">base/BaseTemperature.h</text>
</a>
</g>
</g>
<!-- Node2&#45;&gt;Node13 -->
<g id="edge12_Node000002_Node000013" class="edge">
<title>Node2&#45;&gt;Node13</title>
<g id="a_edge12_Node000002_Node000013"><a xlink:title=" ">
<path fill="none" stroke="#63b8ff" d="M929.21,-153.89C885.27,-139.39 796.51,-110.11 746.91,-93.74"/>
<polygon fill="#63b8ff" stroke="#63b8ff" points="747.84,-90.36 737.24,-90.55 745.64,-97.01 747.84,-90.36"/>
</a>
</g>
</g>
<!-- Node14 -->
<g id="Node000014" class="node">
<title>Node14</title>
<g id="a_Node000014"><a xlink:title=" ">
<polygon fill="#e0e0e0" stroke="#999999" points="888.82,-90.5 797.82,-90.5 797.82,-71.5 888.82,-71.5 888.82,-90.5"/>
<text text-anchor="middle" x="843.32" y="-78.5" font-family="Helvetica,sans-Serif" font-size="10.00">base/BaseSpi.h</text>
</a>
</g>
</g>
<!-- Node2&#45;&gt;Node14 -->
<g id="edge13_Node000002_Node000014" class="edge">
<title>Node2&#45;&gt;Node14</title>
<g id="a_edge13_Node000002_Node000014"><a xlink:title=" ">
<path fill="none" stroke="#63b8ff" d="M943.33,-153.89C924.22,-140.15 886.62,-113.12 863.36,-96.41"/>
<polygon fill="#63b8ff" stroke="#63b8ff" points="865.38,-93.55 855.22,-90.55 861.29,-99.23 865.38,-93.55"/>
</a>
</g>
</g>
<!-- Node15 -->
<g id="Node000015" class="node">
<title>Node15</title>
<g id="a_Node000015"><a xlink:title=" ">
<polygon fill="#e0e0e0" stroke="#999999" points="1003.82,-90.5 906.82,-90.5 906.82,-71.5 1003.82,-71.5 1003.82,-90.5"/>
<text text-anchor="middle" x="955.32" y="-78.5" font-family="Helvetica,sans-Serif" font-size="10.00">base/BaseUart.h</text>
</a>
</g>
</g>
<!-- Node2&#45;&gt;Node15 -->
<g id="edge14_Node000002_Node000015" class="edge">
<title>Node2&#45;&gt;Node15</title>
<g id="a_edge14_Node000002_Node000015"><a xlink:title=" ">
<path fill="none" stroke="#63b8ff" d="M955.32,-153.89C955.32,-141.36 955.32,-117.8 955.32,-101.07"/>
<polygon fill="#63b8ff" stroke="#63b8ff" points="958.82,-100.8 955.32,-90.8 951.82,-100.8 958.82,-100.8"/>
</a>
</g>
</g>
<!-- Node16 -->
<g id="Node000016" class="node">
<title>Node16</title>
<g id="a_Node000016"><a xlink:title=" ">
<polygon fill="#e0e0e0" stroke="#999999" points="1100.32,-90.5 1022.32,-90.5 1022.32,-71.5 1100.32,-71.5 1100.32,-90.5"/>
<text text-anchor="middle" x="1061.32" y="-78.5" font-family="Helvetica,sans-Serif" font-size="10.00">RtosMutex.h</text>
</a>
</g>
</g>
<!-- Node2&#45;&gt;Node16 -->
<g id="edge15_Node000002_Node000016" class="edge">
<title>Node2&#45;&gt;Node16</title>
<g id="a_edge15_Node000002_Node000016"><a xlink:title=" ">
<path fill="none" stroke="#63b8ff" d="M966.66,-153.89C984.67,-140.21 1020.02,-113.36 1042.06,-96.63"/>
<polygon fill="#63b8ff" stroke="#63b8ff" points="1044.21,-99.39 1050.06,-90.55 1039.97,-93.81 1044.21,-99.39"/>
</a>
</g>
</g>
<!-- Node17 -->
<g id="Node000017" class="node">
<title>Node17</title>
<g id="a_Node000017"><a xlink:title=" ">
<polygon fill="#e0e0e0" stroke="#999999" points="1163.82,-90.5 1118.82,-90.5 1118.82,-71.5 1163.82,-71.5 1163.82,-90.5"/>
<text text-anchor="middle" x="1141.32" y="-78.5" font-family="Helvetica,sans-Serif" font-size="10.00">utility</text>
</a>
</g>
</g>
<!-- Node2&#45;&gt;Node17 -->
<g id="edge16_Node000002_Node000017" class="edge">
<title>Node2&#45;&gt;Node17</title>
<g id="a_edge16_Node000002_Node000017"><a xlink:title=" ">
<path fill="none" stroke="#63b8ff" d="M982.06,-154C1019.89,-141.78 1086.93,-119.36 1109.32,-107 1114.36,-104.22 1119.44,-100.67 1124.02,-97.12"/>
<polygon fill="#63b8ff" stroke="#63b8ff" points="1126.56,-99.56 1132.08,-90.51 1122.13,-94.15 1126.56,-99.56"/>
</a>
</g>
</g>
<!-- Node22&#45;&gt;Node3 -->
<g id="edge23_Node000022_Node000003" class="edge">
<title>Node22&#45;&gt;Node3</title>
<g id="a_edge23_Node000022_Node000003"><a xlink:title=" ">
<path fill="none" stroke="#63b8ff" d="M155.02,-153.89C166.76,-140.76 189.34,-115.51 204.38,-98.71"/>
<polygon fill="#63b8ff" stroke="#63b8ff" points="207.39,-100.58 211.45,-90.8 202.17,-95.92 207.39,-100.58"/>
</a>
</g>
</g>
<!-- Node22&#45;&gt;Node19 -->
<g id="edge24_Node000022_Node000019" class="edge">
<title>Node22&#45;&gt;Node19</title>
<g id="a_edge24_Node000022_Node000019"><a xlink:title=" ">
<path fill="none" stroke="#63b8ff" d="M135.76,-153.89C117.41,-140.21 81.39,-113.36 58.94,-96.63"/>
<polygon fill="#63b8ff" stroke="#63b8ff" points="60.9,-93.72 50.79,-90.55 56.72,-99.34 60.9,-93.72"/>
</a>
</g>
</g>
<!-- Node23 -->
<g id="Node000023" class="node">
<title>Node23</title>
<g id="a_Node000023"><a xlink:title=" ">
<polygon fill="#e0e0e0" stroke="#999999" points="144.82,-19 91.82,-19 91.82,0 144.82,0 144.82,-19"/>
<text text-anchor="middle" x="118.32" y="-7" font-family="Helvetica,sans-Serif" font-size="10.00">cstdarg</text>
</a>
</g>
</g>
<!-- Node22&#45;&gt;Node23 -->
<g id="edge22_Node000022_Node000023" class="edge">
<title>Node22&#45;&gt;Node23</title>
<g id="a_edge22_Node000022_Node000023"><a xlink:title=" ">
<path fill="none" stroke="#63b8ff" d="M138.99,-153.98C129.67,-143.79 115.12,-125.74 109.32,-107 101.21,-80.81 107.07,-48.87 112.4,-29.11"/>
<polygon fill="#63b8ff" stroke="#63b8ff" points="115.83,-29.83 115.29,-19.25 109.12,-27.86 115.83,-29.83"/>
</a>
</g>
</g>
<!-- Node24 -->
<g id="Node000024" class="node">
<title>Node24</title>
<g id="a_Node000024"><a xlink:href="Logger_8h.html" target="_top" xlink:title="Advanced logging system with formatting capabilities.">
<polygon fill="white" stroke="#666666" points="176.32,-90.5 118.32,-90.5 118.32,-71.5 176.32,-71.5 176.32,-90.5"/>
<text text-anchor="middle" x="147.32" y="-78.5" font-family="Helvetica,sans-Serif" font-size="10.00">Logger.h</text>
</a>
</g>
</g>
<!-- Node22&#45;&gt;Node24 -->
<g id="edge25_Node000022_Node000024" class="edge">
<title>Node22&#45;&gt;Node24</title>
<g id="a_edge25_Node000022_Node000024"><a xlink:title=" ">
<path fill="none" stroke="#63b8ff" d="M147.32,-153.89C147.32,-141.36 147.32,-117.8 147.32,-101.07"/>
<polygon fill="#63b8ff" stroke="#63b8ff" points="150.82,-100.8 147.32,-90.8 143.82,-100.8 150.82,-100.8"/>
</a>
</g>
</g>
<!-- Node24&#45;&gt;Node4 -->
<g id="edge28_Node000024_Node000004" class="edge">
<title>Node24&#45;&gt;Node4</title>
<g id="a_edge28_Node000024_Node000004"><a xlink:title=" ">
<path fill="none" stroke="#63b8ff" d="M157.22,-71.49C164.49,-65.77 174.88,-58.63 185.32,-55 271.05,-25.16 546.87,-14.5 649.96,-11.5"/>
<polygon fill="#63b8ff" stroke="#63b8ff" points="650.34,-14.99 660.24,-11.21 650.14,-7.99 650.34,-14.99"/>
</a>
</g>
</g>
<!-- Node24&#45;&gt;Node6 -->
<g id="edge29_Node000024_Node000006" class="edge">
<title>Node24&#45;&gt;Node6</title>
<g id="a_edge29_Node000024_Node000006"><a xlink:title=" ">
<path fill="none" stroke="#63b8ff" d="M157.18,-71.38C164.44,-65.61 174.82,-58.46 185.32,-55 223.28,-42.51 821.13,-17.98 973.96,-11.89"/>
<polygon fill="#63b8ff" stroke="#63b8ff" points="974.33,-15.38 984.18,-11.49 974.05,-8.39 974.33,-15.38"/>
</a>
</g>
</g>
<!-- Node24&#45;&gt;Node18 -->
<g id="edge27_Node000024_Node000018" class="edge">
<title>Node24&#45;&gt;Node18</title>
<g id="a_edge27_Node000024_Node000018"><a xlink:title=" ">
<path fill="none" stroke="#63b8ff" d="M133.22,-71.48C113.82,-59.75 78.66,-38.51 55.4,-24.45"/>
<polygon fill="#63b8ff" stroke="#63b8ff" points="56.9,-21.27 46.53,-19.09 53.28,-27.26 56.9,-21.27"/>
</a>
</g>
</g>
<!-- Node24&#45;&gt;Node23 -->
<g id="edge26_Node000024_Node000023" class="edge">
<title>Node24&#45;&gt;Node23</title>
<g id="a_edge26_Node000024_Node000023"><a xlink:title=" ">
<path fill="none" stroke="#63b8ff" d="M143.76,-71.48C139.33,-60.85 131.62,-42.39 125.85,-28.56"/>
<polygon fill="#63b8ff" stroke="#63b8ff" points="128.98,-26.97 121.9,-19.09 122.52,-29.67 128.98,-26.97"/>
</a>
</g>
</g>
</g>
</svg>
