<?xml version="1.0" encoding="UTF-8" standalone="no"?>
<!DOCTYPE svg PUBLIC "-//W3C//DTD SVG 1.1//EN"
 "http://www.w3.org/Graphics/SVG/1.1/DTD/svg11.dtd">
<!-- Generated by graphviz version 2.43.0 (0)
 -->
<!-- Title: Ws2812Handler.h Pages: 1 -->
<svg width="638pt" height="115pt"
 viewBox="0.00 0.00 637.50 115.00" xmlns="http://www.w3.org/2000/svg" xmlns:xlink="http://www.w3.org/1999/xlink">
<g id="graph0" class="graph" transform="scale(1 1) rotate(0) translate(4 111)">
<title>Ws2812Handler.h</title>
<!-- Node1 -->
<g id="Node000001" class="node">
<title>Node1</title>
<g id="a_Node000001"><a xlink:title="Unified handler for WS2812 addressable LED strips using RMT peripheral.">
<polygon fill="#999999" stroke="#666666" points="270,-107 168,-107 168,-88 270,-88 270,-107"/>
<text text-anchor="middle" x="219" y="-95" font-family="Helvetica,sans-Serif" font-size="10.00">Ws2812Handler.h</text>
</a>
</g>
</g>
<!-- Node2 -->
<g id="Node000002" class="node">
<title>Node2</title>
<g id="a_Node000002"><a xlink:title=" ">
<polygon fill="#e0e0e0" stroke="#999999" points="50,-35.5 0,-35.5 0,-16.5 50,-16.5 50,-35.5"/>
<text text-anchor="middle" x="25" y="-23.5" font-family="Helvetica,sans-Serif" font-size="10.00">cstdint</text>
</a>
</g>
</g>
<!-- Node1&#45;&gt;Node2 -->
<g id="edge1_Node000001_Node000002" class="edge">
<title>Node1&#45;&gt;Node2</title>
<g id="a_edge1_Node000001_Node000002"><a xlink:title=" ">
<path fill="none" stroke="#63b8ff" d="M171.16,-87.94C138.48,-80.97 94.78,-69.4 59,-52 53.48,-49.32 47.94,-45.71 42.97,-42.08"/>
<polygon fill="#63b8ff" stroke="#63b8ff" points="44.83,-39.09 34.79,-35.7 40.52,-44.61 44.83,-39.09"/>
</a>
</g>
</g>
<!-- Node3 -->
<g id="Node000003" class="node">
<title>Node3</title>
<g id="a_Node000003"><a xlink:title=" ">
<polygon fill="#e0e0e0" stroke="#999999" points="126,-35.5 68,-35.5 68,-16.5 126,-16.5 126,-35.5"/>
<text text-anchor="middle" x="97" y="-23.5" font-family="Helvetica,sans-Serif" font-size="10.00">memory</text>
</a>
</g>
</g>
<!-- Node1&#45;&gt;Node3 -->
<g id="edge2_Node000001_Node000003" class="edge">
<title>Node1&#45;&gt;Node3</title>
<g id="a_edge2_Node000001_Node000003"><a xlink:title=" ">
<path fill="none" stroke="#63b8ff" d="M201.68,-87.93C184.51,-79.3 157.58,-65.37 135,-52 129.43,-48.7 123.53,-44.95 118.08,-41.38"/>
<polygon fill="#63b8ff" stroke="#63b8ff" points="119.74,-38.28 109.48,-35.64 115.85,-44.1 119.74,-38.28"/>
</a>
</g>
</g>
<!-- Node4 -->
<g id="Node000004" class="node">
<title>Node4</title>
<g id="a_Node000004"><a xlink:title=" ">
<polygon fill="#e0e0e0" stroke="#999999" points="294,-46.5 144,-46.5 144,-5.5 294,-5.5 294,-46.5"/>
<text text-anchor="start" x="152" y="-34.5" font-family="Helvetica,sans-Serif" font-size="10.00">core/hf&#45;core&#45;drivers</text>
<text text-anchor="start" x="152" y="-23.5" font-family="Helvetica,sans-Serif" font-size="10.00">/external/hf&#45;ws2812&#45;rmt</text>
<text text-anchor="middle" x="219" y="-12.5" font-family="Helvetica,sans-Serif" font-size="10.00">&#45;driver/inc/ws2812_cpp.hpp</text>
</a>
</g>
</g>
<!-- Node1&#45;&gt;Node4 -->
<g id="edge3_Node000001_Node000004" class="edge">
<title>Node1&#45;&gt;Node4</title>
<g id="a_edge3_Node000001_Node000004"><a xlink:title=" ">
<path fill="none" stroke="#63b8ff" d="M219,-87.98C219,-80.15 219,-68.08 219,-56.74"/>
<polygon fill="#63b8ff" stroke="#63b8ff" points="222.5,-56.67 219,-46.67 215.5,-56.67 222.5,-56.67"/>
</a>
</g>
</g>
<!-- Node5 -->
<g id="Node000005" class="node">
<title>Node5</title>
<g id="a_Node000005"><a xlink:title=" ">
<polygon fill="#e0e0e0" stroke="#999999" points="478,-46.5 312,-46.5 312,-5.5 478,-5.5 478,-46.5"/>
<text text-anchor="start" x="320" y="-34.5" font-family="Helvetica,sans-Serif" font-size="10.00">core/hf&#45;core&#45;drivers</text>
<text text-anchor="start" x="320" y="-23.5" font-family="Helvetica,sans-Serif" font-size="10.00">/external/hf&#45;ws2812&#45;rmt</text>
<text text-anchor="middle" x="395" y="-12.5" font-family="Helvetica,sans-Serif" font-size="10.00">&#45;driver/inc/ws2812_effects.hpp</text>
</a>
</g>
</g>
<!-- Node1&#45;&gt;Node5 -->
<g id="edge4_Node000001_Node000005" class="edge">
<title>Node1&#45;&gt;Node5</title>
<g id="a_edge4_Node000001_Node000005"><a xlink:title=" ">
<path fill="none" stroke="#63b8ff" d="M240.58,-87.98C264.22,-78.64 303.16,-63.27 336.02,-50.29"/>
<polygon fill="#63b8ff" stroke="#63b8ff" points="337.53,-53.46 345.55,-46.53 334.96,-46.94 337.53,-53.46"/>
</a>
</g>
</g>
<!-- Node6 -->
<g id="Node000006" class="node">
<title>Node6</title>
<g id="a_Node000006"><a xlink:title=" ">
<polygon fill="#e0e0e0" stroke="#999999" points="629.5,-52 496.5,-52 496.5,0 629.5,0 629.5,-52"/>
<text text-anchor="start" x="504.5" y="-40" font-family="Helvetica,sans-Serif" font-size="10.00">core/hf&#45;core&#45;drivers</text>
<text text-anchor="start" x="504.5" y="-29" font-family="Helvetica,sans-Serif" font-size="10.00">/internal/hf&#45;internal</text>
<text text-anchor="start" x="504.5" y="-18" font-family="Helvetica,sans-Serif" font-size="10.00">&#45;interface&#45;wrap/inc/utils</text>
<text text-anchor="middle" x="563" y="-7" font-family="Helvetica,sans-Serif" font-size="10.00">/RtosMutex.h</text>
</a>
</g>
</g>
<!-- Node1&#45;&gt;Node6 -->
<g id="edge5_Node000001_Node000006" class="edge">
<title>Node1&#45;&gt;Node6</title>
<g id="a_edge5_Node000001_Node000006"><a xlink:title=" ">
<path fill="none" stroke="#63b8ff" d="M270.1,-90.39C322.26,-83.62 405.63,-71.34 486.58,-51.94"/>
<polygon fill="#63b8ff" stroke="#63b8ff" points="487.55,-55.3 496.44,-49.53 485.9,-48.5 487.55,-55.3"/>
</a>
</g>
</g>
</g>
</svg>
