<?xml version="1.0" encoding="UTF-8" standalone="no"?>
<!DOCTYPE svg PUBLIC "-//W3C//DTD SVG 1.1//EN"
 "http://www.w3.org/Graphics/SVG/1.1/DTD/svg11.dtd">
<!-- Generated by graphviz version 2.43.0 (0)
 -->
<!-- Title: Ws2812Handler.cpp Pages: 1 -->
<svg width="846pt" height="170pt"
 viewBox="0.00 0.00 846.00 170.00" xmlns="http://www.w3.org/2000/svg" xmlns:xlink="http://www.w3.org/1999/xlink">
<g id="graph0" class="graph" transform="scale(1 1) rotate(0) translate(4 166)">
<title>Ws2812Handler.cpp</title>
<!-- Node1 -->
<g id="Node000001" class="node">
<title>Node1</title>
<g id="a_Node000001"><a xlink:title="Implementation of WS2812 LED strip handler.">
<polygon fill="#999999" stroke="#666666" points="553.5,-162 440.5,-162 440.5,-143 553.5,-143 553.5,-162"/>
<text text-anchor="middle" x="497" y="-150" font-family="Helvetica,sans-Serif" font-size="10.00">Ws2812Handler.cpp</text>
</a>
</g>
</g>
<!-- Node2 -->
<g id="Node000002" class="node">
<title>Node2</title>
<g id="a_Node000002"><a xlink:href="Ws2812Handler_8h.html" target="_top" xlink:title="Unified handler for WS2812 addressable LED strips using RMT peripheral.">
<polygon fill="white" stroke="#666666" points="454,-107 352,-107 352,-88 454,-88 454,-107"/>
<text text-anchor="middle" x="403" y="-95" font-family="Helvetica,sans-Serif" font-size="10.00">Ws2812Handler.h</text>
</a>
</g>
</g>
<!-- Node1&#45;&gt;Node2 -->
<g id="edge1_Node000001_Node000002" class="edge">
<title>Node1&#45;&gt;Node2</title>
<g id="a_edge1_Node000001_Node000002"><a xlink:title=" ">
<path fill="none" stroke="#63b8ff" d="M481.9,-142.98C467.18,-134.69 444.58,-121.94 427.33,-112.22"/>
<polygon fill="#63b8ff" stroke="#63b8ff" points="428.81,-109.03 418.38,-107.17 425.37,-115.13 428.81,-109.03"/>
</a>
</g>
</g>
<!-- Node8 -->
<g id="Node000008" class="node">
<title>Node8</title>
<g id="a_Node000008"><a xlink:href="Logger_8h.html" target="_top" xlink:title="Advanced logging system with formatting capabilities.">
<polygon fill="white" stroke="#666666" points="704,-107 646,-107 646,-88 704,-88 704,-107"/>
<text text-anchor="middle" x="675" y="-95" font-family="Helvetica,sans-Serif" font-size="10.00">Logger.h</text>
</a>
</g>
</g>
<!-- Node1&#45;&gt;Node8 -->
<g id="edge7_Node000001_Node000008" class="edge">
<title>Node1&#45;&gt;Node8</title>
<g id="a_edge7_Node000001_Node000008"><a xlink:title=" ">
<path fill="none" stroke="#63b8ff" d="M525.6,-142.98C555.61,-134.05 602.98,-119.94 636.32,-110.02"/>
<polygon fill="#63b8ff" stroke="#63b8ff" points="637.59,-113.29 646.18,-107.08 635.59,-106.58 637.59,-113.29"/>
</a>
</g>
</g>
<!-- Node3 -->
<g id="Node000003" class="node">
<title>Node3</title>
<g id="a_Node000003"><a xlink:title=" ">
<polygon fill="#e0e0e0" stroke="#999999" points="50,-35.5 0,-35.5 0,-16.5 50,-16.5 50,-35.5"/>
<text text-anchor="middle" x="25" y="-23.5" font-family="Helvetica,sans-Serif" font-size="10.00">cstdint</text>
</a>
</g>
</g>
<!-- Node2&#45;&gt;Node3 -->
<g id="edge2_Node000002_Node000003" class="edge">
<title>Node2&#45;&gt;Node3</title>
<g id="a_edge2_Node000002_Node000003"><a xlink:title=" ">
<path fill="none" stroke="#63b8ff" d="M351.9,-93.04C269.45,-86.93 111.05,-72.87 59,-52 52.99,-49.59 47.07,-45.86 41.91,-42.02"/>
<polygon fill="#63b8ff" stroke="#63b8ff" points="44,-39.21 34.03,-35.64 39.6,-44.65 44,-39.21"/>
</a>
</g>
</g>
<!-- Node4 -->
<g id="Node000004" class="node">
<title>Node4</title>
<g id="a_Node000004"><a xlink:title=" ">
<polygon fill="#e0e0e0" stroke="#999999" points="630,-35.5 572,-35.5 572,-16.5 630,-16.5 630,-35.5"/>
<text text-anchor="middle" x="601" y="-23.5" font-family="Helvetica,sans-Serif" font-size="10.00">memory</text>
</a>
</g>
</g>
<!-- Node2&#45;&gt;Node4 -->
<g id="edge3_Node000002_Node000004" class="edge">
<title>Node2&#45;&gt;Node4</title>
<g id="a_edge3_Node000002_Node000004"><a xlink:title=" ">
<path fill="none" stroke="#63b8ff" d="M446.73,-87.95C479.37,-80.69 524.6,-68.77 562,-52 568.45,-49.11 575.08,-45.25 580.99,-41.44"/>
<polygon fill="#63b8ff" stroke="#63b8ff" points="583.26,-44.13 589.57,-35.62 579.33,-38.33 583.26,-44.13"/>
</a>
</g>
</g>
<!-- Node5 -->
<g id="Node000005" class="node">
<title>Node5</title>
<g id="a_Node000005"><a xlink:title=" ">
<polygon fill="#e0e0e0" stroke="#999999" points="218,-46.5 68,-46.5 68,-5.5 218,-5.5 218,-46.5"/>
<text text-anchor="start" x="76" y="-34.5" font-family="Helvetica,sans-Serif" font-size="10.00">core/hf&#45;core&#45;drivers</text>
<text text-anchor="start" x="76" y="-23.5" font-family="Helvetica,sans-Serif" font-size="10.00">/external/hf&#45;ws2812&#45;rmt</text>
<text text-anchor="middle" x="143" y="-12.5" font-family="Helvetica,sans-Serif" font-size="10.00">&#45;driver/inc/ws2812_cpp.hpp</text>
</a>
</g>
</g>
<!-- Node2&#45;&gt;Node5 -->
<g id="edge4_Node000002_Node000005" class="edge">
<title>Node2&#45;&gt;Node5</title>
<g id="a_edge4_Node000002_Node000005"><a xlink:title=" ">
<path fill="none" stroke="#63b8ff" d="M367.49,-87.98C331.86,-79.33 275.47,-65.33 227,-52 223.85,-51.13 220.63,-50.23 217.38,-49.32"/>
<polygon fill="#63b8ff" stroke="#63b8ff" points="218.16,-45.9 207.59,-46.52 216.24,-52.63 218.16,-45.9"/>
</a>
</g>
</g>
<!-- Node6 -->
<g id="Node000006" class="node">
<title>Node6</title>
<g id="a_Node000006"><a xlink:title=" ">
<polygon fill="#e0e0e0" stroke="#999999" points="402,-46.5 236,-46.5 236,-5.5 402,-5.5 402,-46.5"/>
<text text-anchor="start" x="244" y="-34.5" font-family="Helvetica,sans-Serif" font-size="10.00">core/hf&#45;core&#45;drivers</text>
<text text-anchor="start" x="244" y="-23.5" font-family="Helvetica,sans-Serif" font-size="10.00">/external/hf&#45;ws2812&#45;rmt</text>
<text text-anchor="middle" x="319" y="-12.5" font-family="Helvetica,sans-Serif" font-size="10.00">&#45;driver/inc/ws2812_effects.hpp</text>
</a>
</g>
</g>
<!-- Node2&#45;&gt;Node6 -->
<g id="edge5_Node000002_Node000006" class="edge">
<title>Node2&#45;&gt;Node6</title>
<g id="a_edge5_Node000002_Node000006"><a xlink:title=" ">
<path fill="none" stroke="#63b8ff" d="M392.7,-87.98C382.28,-79.35 365.62,-65.58 350.78,-53.3"/>
<polygon fill="#63b8ff" stroke="#63b8ff" points="352.71,-50.35 342.78,-46.67 348.25,-55.74 352.71,-50.35"/>
</a>
</g>
</g>
<!-- Node7 -->
<g id="Node000007" class="node">
<title>Node7</title>
<g id="a_Node000007"><a xlink:title=" ">
<polygon fill="#e0e0e0" stroke="#999999" points="553.5,-52 420.5,-52 420.5,0 553.5,0 553.5,-52"/>
<text text-anchor="start" x="428.5" y="-40" font-family="Helvetica,sans-Serif" font-size="10.00">core/hf&#45;core&#45;drivers</text>
<text text-anchor="start" x="428.5" y="-29" font-family="Helvetica,sans-Serif" font-size="10.00">/internal/hf&#45;internal</text>
<text text-anchor="start" x="428.5" y="-18" font-family="Helvetica,sans-Serif" font-size="10.00">&#45;interface&#45;wrap/inc/utils</text>
<text text-anchor="middle" x="487" y="-7" font-family="Helvetica,sans-Serif" font-size="10.00">/RtosMutex.h</text>
</a>
</g>
</g>
<!-- Node2&#45;&gt;Node7 -->
<g id="edge6_Node000002_Node000007" class="edge">
<title>Node2&#45;&gt;Node7</title>
<g id="a_edge6_Node000002_Node000007"><a xlink:title=" ">
<path fill="none" stroke="#63b8ff" d="M413.3,-87.98C422.22,-80.59 435.72,-69.43 448.73,-58.67"/>
<polygon fill="#63b8ff" stroke="#63b8ff" points="451.25,-61.13 456.72,-52.05 446.78,-55.73 451.25,-61.13"/>
</a>
</g>
</g>
<!-- Node8&#45;&gt;Node4 -->
<g id="edge10_Node000008_Node000004" class="edge">
<title>Node8&#45;&gt;Node4</title>
<g id="a_edge10_Node000008_Node000004"><a xlink:title=" ">
<path fill="none" stroke="#63b8ff" d="M665.93,-87.98C653.94,-76.72 632.62,-56.69 617.68,-42.67"/>
<polygon fill="#63b8ff" stroke="#63b8ff" points="619.83,-39.89 610.15,-35.59 615.04,-44.99 619.83,-39.89"/>
</a>
</g>
</g>
<!-- Node9 -->
<g id="Node000009" class="node">
<title>Node9</title>
<g id="a_Node000009"><a xlink:title=" ">
<polygon fill="#e0e0e0" stroke="#999999" points="701.5,-35.5 648.5,-35.5 648.5,-16.5 701.5,-16.5 701.5,-35.5"/>
<text text-anchor="middle" x="675" y="-23.5" font-family="Helvetica,sans-Serif" font-size="10.00">cstdarg</text>
</a>
</g>
</g>
<!-- Node8&#45;&gt;Node9 -->
<g id="edge8_Node000008_Node000009" class="edge">
<title>Node8&#45;&gt;Node9</title>
<g id="a_edge8_Node000008_Node000009"><a xlink:title=" ">
<path fill="none" stroke="#63b8ff" d="M675,-87.98C675,-77.56 675,-59.61 675,-45.88"/>
<polygon fill="#63b8ff" stroke="#63b8ff" points="678.5,-45.59 675,-35.59 671.5,-45.59 678.5,-45.59"/>
</a>
</g>
</g>
<!-- Node10 -->
<g id="Node000010" class="node">
<title>Node10</title>
<g id="a_Node000010"><a xlink:title=" ">
<polygon fill="#e0e0e0" stroke="#999999" points="770,-35.5 720,-35.5 720,-16.5 770,-16.5 770,-35.5"/>
<text text-anchor="middle" x="745" y="-23.5" font-family="Helvetica,sans-Serif" font-size="10.00">cstring</text>
</a>
</g>
</g>
<!-- Node8&#45;&gt;Node10 -->
<g id="edge9_Node000008_Node000010" class="edge">
<title>Node8&#45;&gt;Node10</title>
<g id="a_edge9_Node000008_Node000010"><a xlink:title=" ">
<path fill="none" stroke="#63b8ff" d="M683.58,-87.98C694.92,-76.72 715.09,-56.69 729.22,-42.67"/>
<polygon fill="#63b8ff" stroke="#63b8ff" points="731.72,-45.12 736.35,-35.59 726.78,-40.15 731.72,-45.12"/>
</a>
</g>
</g>
<!-- Node11 -->
<g id="Node000011" class="node">
<title>Node11</title>
<g id="a_Node000011"><a xlink:title=" ">
<polygon fill="#e0e0e0" stroke="#999999" points="838,-35.5 788,-35.5 788,-16.5 838,-16.5 838,-35.5"/>
<text text-anchor="middle" x="813" y="-23.5" font-family="Helvetica,sans-Serif" font-size="10.00">atomic</text>
</a>
</g>
</g>
<!-- Node8&#45;&gt;Node11 -->
<g id="edge11_Node000008_Node000011" class="edge">
<title>Node8&#45;&gt;Node11</title>
<g id="a_edge11_Node000008_Node000011"><a xlink:title=" ">
<path fill="none" stroke="#63b8ff" d="M699.29,-87.93C720.86,-79.89 752.91,-66.91 779,-52 784.25,-49 789.64,-45.34 794.55,-41.75"/>
<polygon fill="#63b8ff" stroke="#63b8ff" points="796.87,-44.38 802.71,-35.54 792.63,-38.81 796.87,-44.38"/>
</a>
</g>
</g>
</g>
</svg>
