<?xml version="1.0" encoding="UTF-8" standalone="no"?>
<!DOCTYPE svg PUBLIC "-//W3C//DTD SVG 1.1//EN"
 "http://www.w3.org/Graphics/SVG/1.1/DTD/svg11.dtd">
<!-- Generated by graphviz version 2.43.0 (0)
 -->
<!-- Title: Ads7952Handler.h Pages: 1 -->
<svg width="751pt" height="104pt"
 viewBox="0.00 0.00 751.00 104.00" xmlns="http://www.w3.org/2000/svg" xmlns:xlink="http://www.w3.org/1999/xlink">
<g id="graph0" class="graph" transform="scale(1 1) rotate(0) translate(4 100)">
<title>Ads7952Handler.h</title>
<!-- Node1 -->
<g id="Node000001" class="node">
<title>Node1</title>
<g id="a_Node000001"><a xlink:title="Unified handler for ADS7952 12&#45;channel 12&#45;bit SAR ADC with SPI integration.">
<polygon fill="#999999" stroke="#666666" points="359.5,-96 254.5,-96 254.5,-77 359.5,-77 359.5,-96"/>
<text text-anchor="middle" x="307" y="-84" font-family="Helvetica,sans-Serif" font-size="10.00">Ads7952Handler.h</text>
</a>
</g>
</g>
<!-- Node2 -->
<g id="Node000002" class="node">
<title>Node2</title>
<g id="a_Node000002"><a xlink:title=" ">
<polygon fill="#e0e0e0" stroke="#999999" points="50,-30 0,-30 0,-11 50,-11 50,-30"/>
<text text-anchor="middle" x="25" y="-18" font-family="Helvetica,sans-Serif" font-size="10.00">cstdint</text>
</a>
</g>
</g>
<!-- Node1&#45;&gt;Node2 -->
<g id="edge1_Node000001_Node000002" class="edge">
<title>Node1&#45;&gt;Node2</title>
<g id="a_edge1_Node000001_Node000002"><a xlink:title=" ">
<path fill="none" stroke="#63b8ff" d="M254.35,-81.32C203.19,-76.05 123.94,-64.64 59,-41 54.83,-39.48 50.57,-37.47 46.55,-35.32"/>
<polygon fill="#63b8ff" stroke="#63b8ff" points="48.13,-32.19 37.73,-30.19 44.62,-38.24 48.13,-32.19"/>
</a>
</g>
</g>
<!-- Node3 -->
<g id="Node000003" class="node">
<title>Node3</title>
<g id="a_Node000003"><a xlink:title=" ">
<polygon fill="#e0e0e0" stroke="#999999" points="126,-30 68,-30 68,-11 126,-11 126,-30"/>
<text text-anchor="middle" x="97" y="-18" font-family="Helvetica,sans-Serif" font-size="10.00">memory</text>
</a>
</g>
</g>
<!-- Node1&#45;&gt;Node3 -->
<g id="edge2_Node000001_Node000003" class="edge">
<title>Node1&#45;&gt;Node3</title>
<g id="a_edge2_Node000001_Node000003"><a xlink:title=" ">
<path fill="none" stroke="#63b8ff" d="M263.05,-76.94C227.8,-69.41 177.38,-57.13 135,-41 130.31,-39.21 125.44,-37.01 120.82,-34.73"/>
<polygon fill="#63b8ff" stroke="#63b8ff" points="122.3,-31.56 111.81,-30.07 119.08,-37.77 122.3,-31.56"/>
</a>
</g>
</g>
<!-- Node4 -->
<g id="Node000004" class="node">
<title>Node4</title>
<g id="a_Node000004"><a xlink:title=" ">
<polygon fill="#e0e0e0" stroke="#999999" points="213.5,-30 144.5,-30 144.5,-11 213.5,-11 213.5,-30"/>
<text text-anchor="middle" x="179" y="-18" font-family="Helvetica,sans-Serif" font-size="10.00">type_traits</text>
</a>
</g>
</g>
<!-- Node1&#45;&gt;Node4 -->
<g id="edge3_Node000001_Node000004" class="edge">
<title>Node1&#45;&gt;Node4</title>
<g id="a_edge3_Node000001_Node000004"><a xlink:title=" ">
<path fill="none" stroke="#63b8ff" d="M289.74,-76.87C268.08,-66.04 230.71,-47.35 205.43,-34.72"/>
<polygon fill="#63b8ff" stroke="#63b8ff" points="206.91,-31.54 196.4,-30.2 203.78,-37.8 206.91,-31.54"/>
</a>
</g>
</g>
<!-- Node5 -->
<g id="Node000005" class="node">
<title>Node5</title>
<g id="a_Node000005"><a xlink:title=" ">
<polygon fill="#e0e0e0" stroke="#999999" points="276.5,-30 231.5,-30 231.5,-11 276.5,-11 276.5,-30"/>
<text text-anchor="middle" x="254" y="-18" font-family="Helvetica,sans-Serif" font-size="10.00">utility</text>
</a>
</g>
</g>
<!-- Node1&#45;&gt;Node5 -->
<g id="edge4_Node000001_Node000005" class="edge">
<title>Node1&#45;&gt;Node5</title>
<g id="a_edge4_Node000001_Node000005"><a xlink:title=" ">
<path fill="none" stroke="#63b8ff" d="M299.85,-76.87C291.68,-67 278.11,-50.61 267.84,-38.22"/>
<polygon fill="#63b8ff" stroke="#63b8ff" points="270.45,-35.87 261.37,-30.41 265.06,-40.34 270.45,-35.87"/>
</a>
</g>
</g>
<!-- Node6 -->
<g id="Node000006" class="node">
<title>Node6</title>
<g id="a_Node000006"><a xlink:title=" ">
<polygon fill="#e0e0e0" stroke="#999999" points="425.5,-41 294.5,-41 294.5,0 425.5,0 425.5,-41"/>
<text text-anchor="start" x="302.5" y="-29" font-family="Helvetica,sans-Serif" font-size="10.00">core/hf&#45;core&#45;drivers</text>
<text text-anchor="start" x="302.5" y="-18" font-family="Helvetica,sans-Serif" font-size="10.00">/external/hf&#45;ads7952</text>
<text text-anchor="middle" x="360" y="-7" font-family="Helvetica,sans-Serif" font-size="10.00">&#45;driver/inc/ads7952.hpp</text>
</a>
</g>
</g>
<!-- Node1&#45;&gt;Node6 -->
<g id="edge5_Node000001_Node000006" class="edge">
<title>Node1&#45;&gt;Node6</title>
<g id="a_edge5_Node000001_Node000006"><a xlink:title=" ">
<path fill="none" stroke="#63b8ff" d="M314.15,-76.87C320.12,-69.65 328.98,-58.95 337.33,-48.88"/>
<polygon fill="#63b8ff" stroke="#63b8ff" points="340.16,-50.94 343.84,-41.01 334.77,-46.48 340.16,-50.94"/>
</a>
</g>
</g>
<!-- Node7 -->
<g id="Node000007" class="node">
<title>Node7</title>
<g id="a_Node000007"><a xlink:title=" ">
<polygon fill="#e0e0e0" stroke="#999999" points="534.5,-30 443.5,-30 443.5,-11 534.5,-11 534.5,-30"/>
<text text-anchor="middle" x="489" y="-18" font-family="Helvetica,sans-Serif" font-size="10.00">base/BaseSpi.h</text>
</a>
</g>
</g>
<!-- Node1&#45;&gt;Node7 -->
<g id="edge6_Node000001_Node000007" class="edge">
<title>Node1&#45;&gt;Node7</title>
<g id="a_edge6_Node000001_Node000007"><a xlink:title=" ">
<path fill="none" stroke="#63b8ff" d="M332.05,-76.89C357.87,-67.99 399.3,-53.65 435,-41 441.75,-38.61 448.97,-36.02 455.86,-33.54"/>
<polygon fill="#63b8ff" stroke="#63b8ff" points="457.42,-36.7 465.63,-30.01 455.04,-30.11 457.42,-36.7"/>
</a>
</g>
</g>
<!-- Node8 -->
<g id="Node000008" class="node">
<title>Node8</title>
<g id="a_Node000008"><a xlink:title=" ">
<polygon fill="#e0e0e0" stroke="#999999" points="647,-30 553,-30 553,-11 647,-11 647,-30"/>
<text text-anchor="middle" x="600" y="-18" font-family="Helvetica,sans-Serif" font-size="10.00">base/BaseAdc.h</text>
</a>
</g>
</g>
<!-- Node1&#45;&gt;Node8 -->
<g id="edge7_Node000001_Node000008" class="edge">
<title>Node1&#45;&gt;Node8</title>
<g id="a_edge7_Node000001_Node000008"><a xlink:title=" ">
<path fill="none" stroke="#63b8ff" d="M359.75,-77.91C408.12,-70.41 481.5,-57.65 544,-41 551.97,-38.88 560.44,-36.17 568.32,-33.46"/>
<polygon fill="#63b8ff" stroke="#63b8ff" points="569.64,-36.7 577.89,-30.05 567.3,-30.1 569.64,-36.7"/>
</a>
</g>
</g>
<!-- Node9 -->
<g id="Node000009" class="node">
<title>Node9</title>
<g id="a_Node000009"><a xlink:title=" ">
<polygon fill="#e0e0e0" stroke="#999999" points="743,-30 665,-30 665,-11 743,-11 743,-30"/>
<text text-anchor="middle" x="704" y="-18" font-family="Helvetica,sans-Serif" font-size="10.00">RtosMutex.h</text>
</a>
</g>
</g>
<!-- Node1&#45;&gt;Node9 -->
<g id="edge8_Node000001_Node000009" class="edge">
<title>Node1&#45;&gt;Node9</title>
<g id="a_edge8_Node000001_Node000009"><a xlink:title=" ">
<path fill="none" stroke="#63b8ff" d="M359.54,-83.04C428.55,-78.85 553.04,-67.99 656,-41 662.9,-39.19 670.13,-36.63 676.82,-33.96"/>
<polygon fill="#63b8ff" stroke="#63b8ff" points="678.28,-37.15 686.14,-30.04 675.57,-30.69 678.28,-37.15"/>
</a>
</g>
</g>
</g>
</svg>
