<?xml version="1.0" encoding="UTF-8" standalone="no"?>
<!DOCTYPE svg PUBLIC "-//W3C//DTD SVG 1.1//EN"
 "http://www.w3.org/Graphics/SVG/1.1/DTD/svg11.dtd">
<!-- Generated by graphviz version 2.43.0 (0)
 -->
<!-- Title: As5047uHandler.cpp Pages: 1 -->
<svg width="764pt" height="159pt"
 viewBox="0.00 0.00 764.00 159.00" xmlns="http://www.w3.org/2000/svg" xmlns:xlink="http://www.w3.org/1999/xlink">
<g id="graph0" class="graph" transform="scale(1 1) rotate(0) translate(4 155)">
<title>As5047uHandler.cpp</title>
<!-- Node1 -->
<g id="Node000001" class="node">
<title>Node1</title>
<g id="a_Node000001"><a xlink:title="Implementation of unified AS5047U magnetic rotary position sensor handler.">
<polygon fill="#999999" stroke="#666666" points="532.5,-151 416.5,-151 416.5,-132 532.5,-132 532.5,-151"/>
<text text-anchor="middle" x="474.5" y="-139" font-family="Helvetica,sans-Serif" font-size="10.00">As5047uHandler.cpp</text>
</a>
</g>
</g>
<!-- Node2 -->
<g id="Node000002" class="node">
<title>Node2</title>
<g id="a_Node000002"><a xlink:href="As5047uHandler_8h.html" target="_top" xlink:title="Unified handler for AS5047U magnetic rotary position sensor with SPI integration.">
<polygon fill="white" stroke="#666666" points="431,-96 326,-96 326,-77 431,-77 431,-96"/>
<text text-anchor="middle" x="378.5" y="-84" font-family="Helvetica,sans-Serif" font-size="10.00">As5047uHandler.h</text>
</a>
</g>
</g>
<!-- Node1&#45;&gt;Node2 -->
<g id="edge1_Node000001_Node000002" class="edge">
<title>Node1&#45;&gt;Node2</title>
<g id="a_edge1_Node000001_Node000002"><a xlink:title=" ">
<path fill="none" stroke="#63b8ff" d="M459.08,-131.98C444.05,-123.69 420.96,-110.94 403.34,-101.22"/>
<polygon fill="#63b8ff" stroke="#63b8ff" points="404.65,-97.94 394.2,-96.17 401.27,-104.07 404.65,-97.94"/>
</a>
</g>
</g>
<!-- Node9 -->
<g id="Node000009" class="node">
<title>Node9</title>
<g id="a_Node000009"><a xlink:title=" ">
<polygon fill="#e0e0e0" stroke="#999999" points="499.5,-96 449.5,-96 449.5,-77 499.5,-77 499.5,-96"/>
<text text-anchor="middle" x="474.5" y="-84" font-family="Helvetica,sans-Serif" font-size="10.00">cstring</text>
</a>
</g>
</g>
<!-- Node1&#45;&gt;Node9 -->
<g id="edge8_Node000001_Node000009" class="edge">
<title>Node1&#45;&gt;Node9</title>
<g id="a_edge8_Node000001_Node000009"><a xlink:title=" ">
<path fill="none" stroke="#63b8ff" d="M474.5,-131.75C474.5,-124.8 474.5,-114.85 474.5,-106.13"/>
<polygon fill="#63b8ff" stroke="#63b8ff" points="478,-106.09 474.5,-96.09 471,-106.09 478,-106.09"/>
</a>
</g>
</g>
<!-- Node10 -->
<g id="Node000010" class="node">
<title>Node10</title>
<g id="a_Node000010"><a xlink:title=" ">
<polygon fill="#e0e0e0" stroke="#999999" points="581.5,-96 517.5,-96 517.5,-77 581.5,-77 581.5,-96"/>
<text text-anchor="middle" x="549.5" y="-84" font-family="Helvetica,sans-Serif" font-size="10.00">algorithm</text>
</a>
</g>
</g>
<!-- Node1&#45;&gt;Node10 -->
<g id="edge9_Node000001_Node000010" class="edge">
<title>Node1&#45;&gt;Node10</title>
<g id="a_edge9_Node000001_Node000010"><a xlink:title=" ">
<path fill="none" stroke="#63b8ff" d="M486.55,-131.98C497.96,-123.92 515.33,-111.65 528.93,-102.03"/>
<polygon fill="#63b8ff" stroke="#63b8ff" points="531.08,-104.8 537.23,-96.17 527.04,-99.08 531.08,-104.8"/>
</a>
</g>
</g>
<!-- Node11 -->
<g id="Node000011" class="node">
<title>Node11</title>
<g id="a_Node000011"><a xlink:title=" ">
<polygon fill="#e0e0e0" stroke="#999999" points="647,-96 600,-96 600,-77 647,-77 647,-96"/>
<text text-anchor="middle" x="623.5" y="-84" font-family="Helvetica,sans-Serif" font-size="10.00">cmath</text>
</a>
</g>
</g>
<!-- Node1&#45;&gt;Node11 -->
<g id="edge10_Node000001_Node000011" class="edge">
<title>Node1&#45;&gt;Node11</title>
<g id="a_edge10_Node000001_Node000011"><a xlink:title=" ">
<path fill="none" stroke="#63b8ff" d="M498.44,-131.98C523.2,-123.18 562.08,-109.35 589.91,-99.45"/>
<polygon fill="#63b8ff" stroke="#63b8ff" points="591.37,-102.64 599.62,-95.99 589.03,-96.05 591.37,-102.64"/>
</a>
</g>
</g>
<!-- Node12 -->
<g id="Node000012" class="node">
<title>Node12</title>
<g id="a_Node000012"><a xlink:href="Logger_8h.html" target="_top" xlink:title="Advanced logging system with formatting capabilities.">
<polygon fill="white" stroke="#666666" points="251,-96 114,-96 114,-77 251,-77 251,-96"/>
<text text-anchor="middle" x="182.5" y="-84" font-family="Helvetica,sans-Serif" font-size="10.00">handlers/logger/Logger.h</text>
</a>
</g>
</g>
<!-- Node1&#45;&gt;Node12 -->
<g id="edge11_Node000001_Node000012" class="edge">
<title>Node1&#45;&gt;Node12</title>
<g id="a_edge11_Node000001_Node000012"><a xlink:title=" ">
<path fill="none" stroke="#63b8ff" d="M427.59,-131.98C376.44,-122.7 294.58,-107.84 239.7,-97.88"/>
<polygon fill="#63b8ff" stroke="#63b8ff" points="240.25,-94.42 229.78,-96.08 239,-101.31 240.25,-94.42"/>
</a>
</g>
</g>
<!-- Node3 -->
<g id="Node000003" class="node">
<title>Node3</title>
<g id="a_Node000003"><a xlink:title=" ">
<polygon fill="#e0e0e0" stroke="#999999" points="497.5,-30 447.5,-30 447.5,-11 497.5,-11 497.5,-30"/>
<text text-anchor="middle" x="472.5" y="-18" font-family="Helvetica,sans-Serif" font-size="10.00">cstdint</text>
</a>
</g>
</g>
<!-- Node2&#45;&gt;Node3 -->
<g id="edge2_Node000002_Node000003" class="edge">
<title>Node2&#45;&gt;Node3</title>
<g id="a_edge2_Node000002_Node000003"><a xlink:title=" ">
<path fill="none" stroke="#63b8ff" d="M391.18,-76.87C406.59,-66.37 432.85,-48.5 451.35,-35.9"/>
<polygon fill="#63b8ff" stroke="#63b8ff" points="453.43,-38.72 459.72,-30.2 449.49,-32.93 453.43,-38.72"/>
</a>
</g>
</g>
<!-- Node4 -->
<g id="Node000004" class="node">
<title>Node4</title>
<g id="a_Node000004"><a xlink:title=" ">
<polygon fill="#e0e0e0" stroke="#999999" points="309.5,-30 251.5,-30 251.5,-11 309.5,-11 309.5,-30"/>
<text text-anchor="middle" x="280.5" y="-18" font-family="Helvetica,sans-Serif" font-size="10.00">memory</text>
</a>
</g>
</g>
<!-- Node2&#45;&gt;Node4 -->
<g id="edge3_Node000002_Node000004" class="edge">
<title>Node2&#45;&gt;Node4</title>
<g id="a_edge3_Node000002_Node000004"><a xlink:title=" ">
<path fill="none" stroke="#63b8ff" d="M365.28,-76.87C349.14,-66.32 321.59,-48.34 302.29,-35.73"/>
<polygon fill="#63b8ff" stroke="#63b8ff" points="304.11,-32.74 293.82,-30.2 300.28,-38.6 304.11,-32.74"/>
</a>
</g>
</g>
<!-- Node5 -->
<g id="Node000005" class="node">
<title>Node5</title>
<g id="a_Node000005"><a xlink:title=" ">
<polygon fill="#e0e0e0" stroke="#999999" points="233.5,-30 189.5,-30 189.5,-11 233.5,-11 233.5,-30"/>
<text text-anchor="middle" x="211.5" y="-18" font-family="Helvetica,sans-Serif" font-size="10.00">string</text>
</a>
</g>
</g>
<!-- Node2&#45;&gt;Node5 -->
<g id="edge4_Node000002_Node000005" class="edge">
<title>Node2&#45;&gt;Node5</title>
<g id="a_edge4_Node000002_Node000005"><a xlink:title=" ">
<path fill="none" stroke="#63b8ff" d="M344.93,-77C316.85,-69.31 276.12,-56.78 242.5,-41 239.01,-39.36 235.44,-37.41 232.02,-35.38"/>
<polygon fill="#63b8ff" stroke="#63b8ff" points="233.8,-32.37 223.48,-30 230.07,-38.29 233.8,-32.37"/>
</a>
</g>
</g>
<!-- Node6 -->
<g id="Node000006" class="node">
<title>Node6</title>
<g id="a_Node000006"><a xlink:title=" ">
<polygon fill="#e0e0e0" stroke="#999999" points="647,-41 516,-41 516,0 647,0 647,-41"/>
<text text-anchor="start" x="524" y="-29" font-family="Helvetica,sans-Serif" font-size="10.00">core/hf&#45;core&#45;drivers</text>
<text text-anchor="start" x="524" y="-18" font-family="Helvetica,sans-Serif" font-size="10.00">/external/hf&#45;as5047u</text>
<text text-anchor="middle" x="581.5" y="-7" font-family="Helvetica,sans-Serif" font-size="10.00">&#45;driver/inc/as5047u.hpp</text>
</a>
</g>
</g>
<!-- Node2&#45;&gt;Node6 -->
<g id="edge5_Node000002_Node000006" class="edge">
<title>Node2&#45;&gt;Node6</title>
<g id="a_edge5_Node000002_Node000006"><a xlink:title=" ">
<path fill="none" stroke="#63b8ff" d="M405.88,-76.87C432.39,-68.51 473.73,-55.48 509.65,-44.15"/>
<polygon fill="#63b8ff" stroke="#63b8ff" points="511.13,-47.35 519.62,-41.01 509.03,-40.68 511.13,-47.35"/>
</a>
</g>
</g>
<!-- Node7 -->
<g id="Node000007" class="node">
<title>Node7</title>
<g id="a_Node000007"><a xlink:title=" ">
<polygon fill="#e0e0e0" stroke="#999999" points="756,-30 665,-30 665,-11 756,-11 756,-30"/>
<text text-anchor="middle" x="710.5" y="-18" font-family="Helvetica,sans-Serif" font-size="10.00">base/BaseSpi.h</text>
</a>
</g>
</g>
<!-- Node2&#45;&gt;Node7 -->
<g id="edge6_Node000002_Node000007" class="edge">
<title>Node2&#45;&gt;Node7</title>
<g id="a_edge6_Node000002_Node000007"><a xlink:title=" ">
<path fill="none" stroke="#63b8ff" d="M431.07,-78.29C499.4,-68.7 614.91,-51.74 656.5,-41 664.28,-38.99 672.52,-36.31 680.16,-33.58"/>
<polygon fill="#63b8ff" stroke="#63b8ff" points="681.6,-36.78 689.76,-30.02 679.17,-30.22 681.6,-36.78"/>
</a>
</g>
</g>
<!-- Node8 -->
<g id="Node000008" class="node">
<title>Node8</title>
<g id="a_Node000008"><a xlink:title=" ">
<polygon fill="#e0e0e0" stroke="#999999" points="429.5,-30 327.5,-30 327.5,-11 429.5,-11 429.5,-30"/>
<text text-anchor="middle" x="378.5" y="-18" font-family="Helvetica,sans-Serif" font-size="10.00">utils/RtosMutex.h</text>
</a>
</g>
</g>
<!-- Node2&#45;&gt;Node8 -->
<g id="edge7_Node000002_Node000008" class="edge">
<title>Node2&#45;&gt;Node8</title>
<g id="a_edge7_Node000002_Node000008"><a xlink:title=" ">
<path fill="none" stroke="#63b8ff" d="M378.5,-76.87C378.5,-67.66 378.5,-52.79 378.5,-40.77"/>
<polygon fill="#63b8ff" stroke="#63b8ff" points="382,-40.41 378.5,-30.41 375,-40.41 382,-40.41"/>
</a>
</g>
</g>
<!-- Node12&#45;&gt;Node4 -->
<g id="edge14_Node000012_Node000004" class="edge">
<title>Node12&#45;&gt;Node4</title>
<g id="a_edge14_Node000012_Node000004"><a xlink:title=" ">
<path fill="none" stroke="#63b8ff" d="M195.72,-76.87C211.86,-66.32 239.41,-48.34 258.71,-35.73"/>
<polygon fill="#63b8ff" stroke="#63b8ff" points="260.72,-38.6 267.18,-30.2 256.89,-32.74 260.72,-38.6"/>
</a>
</g>
</g>
<!-- Node12&#45;&gt;Node5 -->
<g id="edge12_Node000012_Node000005" class="edge">
<title>Node12&#45;&gt;Node5</title>
<g id="a_edge12_Node000012_Node000005"><a xlink:title=" ">
<path fill="none" stroke="#63b8ff" d="M186.41,-76.87C190.71,-67.38 197.74,-51.86 203.27,-39.66"/>
<polygon fill="#63b8ff" stroke="#63b8ff" points="206.53,-40.96 207.46,-30.41 200.15,-38.07 206.53,-40.96"/>
</a>
</g>
</g>
<!-- Node13 -->
<g id="Node000013" class="node">
<title>Node13</title>
<g id="a_Node000013"><a xlink:title=" ">
<polygon fill="#e0e0e0" stroke="#999999" points="47,-30 0,-30 0,-11 47,-11 47,-30"/>
<text text-anchor="middle" x="23.5" y="-18" font-family="Helvetica,sans-Serif" font-size="10.00">vector</text>
</a>
</g>
</g>
<!-- Node12&#45;&gt;Node13 -->
<g id="edge13_Node000012_Node000013" class="edge">
<title>Node12&#45;&gt;Node13</title>
<g id="a_edge13_Node000012_Node000013"><a xlink:title=" ">
<path fill="none" stroke="#63b8ff" d="M153.34,-76.97C127.39,-68.97 88.67,-56.01 56.5,-41 52.81,-39.28 48.99,-37.26 45.32,-35.19"/>
<polygon fill="#63b8ff" stroke="#63b8ff" points="47.06,-32.15 36.67,-30.08 43.5,-38.18 47.06,-32.15"/>
</a>
</g>
</g>
<!-- Node14 -->
<g id="Node000014" class="node">
<title>Node14</title>
<g id="a_Node000014"><a xlink:title=" ">
<polygon fill="#e0e0e0" stroke="#999999" points="115.5,-30 65.5,-30 65.5,-11 115.5,-11 115.5,-30"/>
<text text-anchor="middle" x="90.5" y="-18" font-family="Helvetica,sans-Serif" font-size="10.00">atomic</text>
</a>
</g>
</g>
<!-- Node12&#45;&gt;Node14 -->
<g id="edge15_Node000012_Node000014" class="edge">
<title>Node12&#45;&gt;Node14</title>
<g id="a_edge15_Node000012_Node000014"><a xlink:title=" ">
<path fill="none" stroke="#63b8ff" d="M170.09,-76.87C155.14,-66.47 129.78,-48.82 111.7,-36.25"/>
<polygon fill="#63b8ff" stroke="#63b8ff" points="113.21,-33.04 103,-30.2 109.22,-38.78 113.21,-33.04"/>
</a>
</g>
</g>
<!-- Node15 -->
<g id="Node000015" class="node">
<title>Node15</title>
<g id="a_Node000015"><a xlink:title=" ">
<polygon fill="#e0e0e0" stroke="#999999" points="171.5,-30 133.5,-30 133.5,-11 171.5,-11 171.5,-30"/>
<text text-anchor="middle" x="152.5" y="-18" font-family="Helvetica,sans-Serif" font-size="10.00">map</text>
</a>
</g>
</g>
<!-- Node12&#45;&gt;Node15 -->
<g id="edge16_Node000012_Node000015" class="edge">
<title>Node12&#45;&gt;Node15</title>
<g id="a_edge16_Node000012_Node000015"><a xlink:title=" ">
<path fill="none" stroke="#63b8ff" d="M178.45,-76.87C174.01,-67.38 166.73,-51.86 161.01,-39.66"/>
<polygon fill="#63b8ff" stroke="#63b8ff" points="164.09,-37.97 156.67,-30.41 157.75,-40.95 164.09,-37.97"/>
</a>
</g>
</g>
</g>
</svg>
