<?xml version="1.0" encoding="UTF-8" standalone="no"?>
<!DOCTYPE svg PUBLIC "-//W3C//DTD SVG 1.1//EN"
 "http://www.w3.org/Graphics/SVG/1.1/DTD/svg11.dtd">
<!-- Generated by graphviz version 2.43.0 (0)
 -->
<!-- Title: As5047uHandler.h Pages: 1 -->
<svg width="513pt" height="104pt"
 viewBox="0.00 0.00 513.00 104.00" xmlns="http://www.w3.org/2000/svg" xmlns:xlink="http://www.w3.org/1999/xlink">
<g id="graph0" class="graph" transform="scale(1 1) rotate(0) translate(4 100)">
<title>As5047uHandler.h</title>
<!-- Node1 -->
<g id="Node000001" class="node">
<title>Node1</title>
<g id="a_Node000001"><a xlink:title="Unified handler for AS5047U magnetic rotary position sensor with SPI integration.">
<polygon fill="#999999" stroke="#666666" points="262.5,-96 157.5,-96 157.5,-77 262.5,-77 262.5,-96"/>
<text text-anchor="middle" x="210" y="-84" font-family="Helvetica,sans-Serif" font-size="10.00">As5047uHandler.h</text>
</a>
</g>
</g>
<!-- Node2 -->
<g id="Node000002" class="node">
<title>Node2</title>
<g id="a_Node000002"><a xlink:title=" ">
<polygon fill="#e0e0e0" stroke="#999999" points="50,-30 0,-30 0,-11 50,-11 50,-30"/>
<text text-anchor="middle" x="25" y="-18" font-family="Helvetica,sans-Serif" font-size="10.00">cstdint</text>
</a>
</g>
</g>
<!-- Node1&#45;&gt;Node2 -->
<g id="edge1_Node000001_Node000002" class="edge">
<title>Node1&#45;&gt;Node2</title>
<g id="a_edge1_Node000001_Node000002"><a xlink:title=" ">
<path fill="none" stroke="#63b8ff" d="M172.23,-76.98C141.16,-69.36 96.32,-56.94 59,-41 54.99,-39.29 50.85,-37.21 46.91,-35.05"/>
<polygon fill="#63b8ff" stroke="#63b8ff" points="48.6,-31.99 38.19,-30.03 45.11,-38.06 48.6,-31.99"/>
</a>
</g>
</g>
<!-- Node3 -->
<g id="Node000003" class="node">
<title>Node3</title>
<g id="a_Node000003"><a xlink:title=" ">
<polygon fill="#e0e0e0" stroke="#999999" points="126,-30 68,-30 68,-11 126,-11 126,-30"/>
<text text-anchor="middle" x="97" y="-18" font-family="Helvetica,sans-Serif" font-size="10.00">memory</text>
</a>
</g>
</g>
<!-- Node1&#45;&gt;Node3 -->
<g id="edge2_Node000001_Node000003" class="edge">
<title>Node1&#45;&gt;Node3</title>
<g id="a_edge2_Node000001_Node000003"><a xlink:title=" ">
<path fill="none" stroke="#63b8ff" d="M194.76,-76.87C175.89,-66.18 143.52,-47.85 121.23,-35.22"/>
<polygon fill="#63b8ff" stroke="#63b8ff" points="122.79,-32.08 112.36,-30.2 119.34,-38.17 122.79,-32.08"/>
</a>
</g>
</g>
<!-- Node4 -->
<g id="Node000004" class="node">
<title>Node4</title>
<g id="a_Node000004"><a xlink:title=" ">
<polygon fill="#e0e0e0" stroke="#999999" points="275.5,-41 144.5,-41 144.5,0 275.5,0 275.5,-41"/>
<text text-anchor="start" x="152.5" y="-29" font-family="Helvetica,sans-Serif" font-size="10.00">core/hf&#45;core&#45;drivers</text>
<text text-anchor="start" x="152.5" y="-18" font-family="Helvetica,sans-Serif" font-size="10.00">/external/hf&#45;as5047u</text>
<text text-anchor="middle" x="210" y="-7" font-family="Helvetica,sans-Serif" font-size="10.00">&#45;driver/inc/as5047u.hpp</text>
</a>
</g>
</g>
<!-- Node1&#45;&gt;Node4 -->
<g id="edge3_Node000001_Node000004" class="edge">
<title>Node1&#45;&gt;Node4</title>
<g id="a_edge3_Node000001_Node000004"><a xlink:title=" ">
<path fill="none" stroke="#63b8ff" d="M210,-76.87C210,-70.22 210,-60.63 210,-51.28"/>
<polygon fill="#63b8ff" stroke="#63b8ff" points="213.5,-51.01 210,-41.01 206.5,-51.01 213.5,-51.01"/>
</a>
</g>
</g>
<!-- Node5 -->
<g id="Node000005" class="node">
<title>Node5</title>
<g id="a_Node000005"><a xlink:title=" ">
<polygon fill="#e0e0e0" stroke="#999999" points="384.5,-30 293.5,-30 293.5,-11 384.5,-11 384.5,-30"/>
<text text-anchor="middle" x="339" y="-18" font-family="Helvetica,sans-Serif" font-size="10.00">base/BaseSpi.h</text>
</a>
</g>
</g>
<!-- Node1&#45;&gt;Node5 -->
<g id="edge4_Node000001_Node000005" class="edge">
<title>Node1&#45;&gt;Node5</title>
<g id="a_edge4_Node000001_Node000005"><a xlink:title=" ">
<path fill="none" stroke="#63b8ff" d="M227.4,-76.87C249.23,-66.04 286.89,-47.35 312.36,-34.72"/>
<polygon fill="#63b8ff" stroke="#63b8ff" points="314.06,-37.78 321.47,-30.2 310.95,-31.51 314.06,-37.78"/>
</a>
</g>
</g>
<!-- Node6 -->
<g id="Node000006" class="node">
<title>Node6</title>
<g id="a_Node000006"><a xlink:title=" ">
<polygon fill="#e0e0e0" stroke="#999999" points="505,-30 403,-30 403,-11 505,-11 505,-30"/>
<text text-anchor="middle" x="454" y="-18" font-family="Helvetica,sans-Serif" font-size="10.00">utils/RtosMutex.h</text>
</a>
</g>
</g>
<!-- Node1&#45;&gt;Node6 -->
<g id="edge5_Node000001_Node000006" class="edge">
<title>Node1&#45;&gt;Node6</title>
<g id="a_edge5_Node000001_Node000006"><a xlink:title=" ">
<path fill="none" stroke="#63b8ff" d="M248.99,-76.99C286.39,-68.6 344.35,-55.05 394,-41 402.24,-38.67 411.05,-35.94 419.3,-33.28"/>
<polygon fill="#63b8ff" stroke="#63b8ff" points="420.61,-36.53 429.03,-30.09 418.43,-29.88 420.61,-36.53"/>
</a>
</g>
</g>
</g>
</svg>
