<?xml version="1.0" encoding="UTF-8" standalone="no"?>
<!DOCTYPE svg PUBLIC "-//W3C//DTD SVG 1.1//EN"
 "http://www.w3.org/Graphics/SVG/1.1/DTD/svg11.dtd">
<!-- Generated by graphviz version 2.43.0 (0)
 -->
<!-- Title: As5047uHandler.h Pages: 1 -->
<svg width="639pt" height="104pt"
 viewBox="0.00 0.00 639.00 104.00" xmlns="http://www.w3.org/2000/svg" xmlns:xlink="http://www.w3.org/1999/xlink">
<g id="graph0" class="graph" transform="scale(1 1) rotate(0) translate(4 100)">
<title>As5047uHandler.h</title>
<!-- Node1 -->
<g id="Node000001" class="node">
<title>Node1</title>
<g id="a_Node000001"><a xlink:title="Unified handler for AS5047U magnetic rotary position sensor with SPI integration.">
<polygon fill="#999999" stroke="#666666" points="306.5,-96 201.5,-96 201.5,-77 306.5,-77 306.5,-96"/>
<text text-anchor="middle" x="254" y="-84" font-family="Helvetica,sans-Serif" font-size="10.00">As5047uHandler.h</text>
</a>
</g>
</g>
<!-- Node2 -->
<g id="Node000002" class="node">
<title>Node2</title>
<g id="a_Node000002"><a xlink:title=" ">
<polygon fill="#e0e0e0" stroke="#999999" points="50,-30 0,-30 0,-11 50,-11 50,-30"/>
<text text-anchor="middle" x="25" y="-18" font-family="Helvetica,sans-Serif" font-size="10.00">cstdint</text>
</a>
</g>
</g>
<!-- Node1&#45;&gt;Node2 -->
<g id="edge1_Node000001_Node000002" class="edge">
<title>Node1&#45;&gt;Node2</title>
<g id="a_edge1_Node000001_Node000002"><a xlink:title=" ">
<path fill="none" stroke="#63b8ff" d="M201.43,-77.85C161.45,-71.01 105.57,-59.2 59,-41 54.86,-39.38 50.63,-37.32 46.61,-35.15"/>
<polygon fill="#63b8ff" stroke="#63b8ff" points="48.19,-32.03 37.79,-30.04 44.68,-38.08 48.19,-32.03"/>
</a>
</g>
</g>
<!-- Node3 -->
<g id="Node000003" class="node">
<title>Node3</title>
<g id="a_Node000003"><a xlink:title=" ">
<polygon fill="#e0e0e0" stroke="#999999" points="126,-30 68,-30 68,-11 126,-11 126,-30"/>
<text text-anchor="middle" x="97" y="-18" font-family="Helvetica,sans-Serif" font-size="10.00">memory</text>
</a>
</g>
</g>
<!-- Node1&#45;&gt;Node3 -->
<g id="edge2_Node000001_Node000003" class="edge">
<title>Node1&#45;&gt;Node3</title>
<g id="a_edge2_Node000001_Node000003"><a xlink:title=" ">
<path fill="none" stroke="#63b8ff" d="M228.59,-76.96C204.26,-68.56 166.68,-54.99 135,-41 130.69,-39.09 126.17,-36.93 121.82,-34.76"/>
<polygon fill="#63b8ff" stroke="#63b8ff" points="123.2,-31.53 112.7,-30.08 120,-37.76 123.2,-31.53"/>
</a>
</g>
</g>
<!-- Node4 -->
<g id="Node000004" class="node">
<title>Node4</title>
<g id="a_Node000004"><a xlink:title=" ">
<polygon fill="#e0e0e0" stroke="#999999" points="213.5,-30 144.5,-30 144.5,-11 213.5,-11 213.5,-30"/>
<text text-anchor="middle" x="179" y="-18" font-family="Helvetica,sans-Serif" font-size="10.00">type_traits</text>
</a>
</g>
</g>
<!-- Node1&#45;&gt;Node4 -->
<g id="edge3_Node000001_Node000004" class="edge">
<title>Node1&#45;&gt;Node4</title>
<g id="a_edge3_Node000001_Node000004"><a xlink:title=" ">
<path fill="none" stroke="#63b8ff" d="M243.89,-76.87C231.99,-66.71 212,-49.66 197.35,-37.15"/>
<polygon fill="#63b8ff" stroke="#63b8ff" points="199.31,-34.23 189.44,-30.41 194.77,-39.56 199.31,-34.23"/>
</a>
</g>
</g>
<!-- Node5 -->
<g id="Node000005" class="node">
<title>Node5</title>
<g id="a_Node000005"><a xlink:title=" ">
<polygon fill="#e0e0e0" stroke="#999999" points="276.5,-30 231.5,-30 231.5,-11 276.5,-11 276.5,-30"/>
<text text-anchor="middle" x="254" y="-18" font-family="Helvetica,sans-Serif" font-size="10.00">utility</text>
</a>
</g>
</g>
<!-- Node1&#45;&gt;Node5 -->
<g id="edge4_Node000001_Node000005" class="edge">
<title>Node1&#45;&gt;Node5</title>
<g id="a_edge4_Node000001_Node000005"><a xlink:title=" ">
<path fill="none" stroke="#63b8ff" d="M254,-76.87C254,-67.66 254,-52.79 254,-40.77"/>
<polygon fill="#63b8ff" stroke="#63b8ff" points="257.5,-40.41 254,-30.41 250.5,-40.41 257.5,-40.41"/>
</a>
</g>
</g>
<!-- Node6 -->
<g id="Node000006" class="node">
<title>Node6</title>
<g id="a_Node000006"><a xlink:title=" ">
<polygon fill="#e0e0e0" stroke="#999999" points="425.5,-41 294.5,-41 294.5,0 425.5,0 425.5,-41"/>
<text text-anchor="start" x="302.5" y="-29" font-family="Helvetica,sans-Serif" font-size="10.00">core/hf&#45;core&#45;drivers</text>
<text text-anchor="start" x="302.5" y="-18" font-family="Helvetica,sans-Serif" font-size="10.00">/external/hf&#45;as5047u</text>
<text text-anchor="middle" x="360" y="-7" font-family="Helvetica,sans-Serif" font-size="10.00">&#45;driver/inc/as5047u.hpp</text>
</a>
</g>
</g>
<!-- Node1&#45;&gt;Node6 -->
<g id="edge5_Node000001_Node000006" class="edge">
<title>Node1&#45;&gt;Node6</title>
<g id="a_edge5_Node000001_Node000006"><a xlink:title=" ">
<path fill="none" stroke="#63b8ff" d="M268.3,-76.87C281.31,-69.01 301.17,-57.02 319.09,-46.2"/>
<polygon fill="#63b8ff" stroke="#63b8ff" points="320.94,-49.17 327.69,-41.01 317.32,-43.18 320.94,-49.17"/>
</a>
</g>
</g>
<!-- Node7 -->
<g id="Node000007" class="node">
<title>Node7</title>
<g id="a_Node000007"><a xlink:title=" ">
<polygon fill="#e0e0e0" stroke="#999999" points="534.5,-30 443.5,-30 443.5,-11 534.5,-11 534.5,-30"/>
<text text-anchor="middle" x="489" y="-18" font-family="Helvetica,sans-Serif" font-size="10.00">base/BaseSpi.h</text>
</a>
</g>
</g>
<!-- Node1&#45;&gt;Node7 -->
<g id="edge6_Node000001_Node000007" class="edge">
<title>Node1&#45;&gt;Node7</title>
<g id="a_edge6_Node000001_Node000007"><a xlink:title=" ">
<path fill="none" stroke="#63b8ff" d="M293.87,-76.97C330.77,-68.77 386.99,-55.53 435,-41 442.28,-38.8 450.02,-36.17 457.3,-33.58"/>
<polygon fill="#63b8ff" stroke="#63b8ff" points="458.65,-36.81 466.84,-30.1 456.25,-30.23 458.65,-36.81"/>
</a>
</g>
</g>
<!-- Node8 -->
<g id="Node000008" class="node">
<title>Node8</title>
<g id="a_Node000008"><a xlink:title=" ">
<polygon fill="#e0e0e0" stroke="#999999" points="631,-30 553,-30 553,-11 631,-11 631,-30"/>
<text text-anchor="middle" x="592" y="-18" font-family="Helvetica,sans-Serif" font-size="10.00">RtosMutex.h</text>
</a>
</g>
</g>
<!-- Node1&#45;&gt;Node8 -->
<g id="edge7_Node000001_Node000008" class="edge">
<title>Node1&#45;&gt;Node8</title>
<g id="a_edge7_Node000001_Node000008"><a xlink:title=" ">
<path fill="none" stroke="#63b8ff" d="M306.63,-81.15C365.34,-75.44 462.73,-63.41 544,-41 550.6,-39.18 557.52,-36.72 563.99,-34.16"/>
<polygon fill="#63b8ff" stroke="#63b8ff" points="565.77,-37.2 573.66,-30.13 563.08,-30.74 565.77,-37.2"/>
</a>
</g>
</g>
</g>
</svg>
