<?xml version="1.0" encoding="UTF-8" standalone="no"?>
<!DOCTYPE svg PUBLIC "-//W3C//DTD SVG 1.1//EN"
 "http://www.w3.org/Graphics/SVG/1.1/DTD/svg11.dtd">
<!-- Generated by graphviz version 2.43.0 (0)
 -->
<!-- Title: Bno08xHandler.h Pages: 1 -->
<svg width="1242pt" height="104pt"
 viewBox="0.00 0.00 1242.00 104.00" xmlns="http://www.w3.org/2000/svg" xmlns:xlink="http://www.w3.org/1999/xlink">
<g id="graph0" class="graph" transform="scale(1 1) rotate(0) translate(4 100)">
<title>Bno08xHandler.h</title>
<!-- Node1 -->
<g id="Node000001" class="node">
<title>Node1</title>
<g id="a_Node000001"><a xlink:title="Unified handler for BNO08x IMU sensor family with multi&#45;interface support.">
<polygon fill="#999999" stroke="#666666" points="503,-96 403,-96 403,-77 503,-77 503,-96"/>
<text text-anchor="middle" x="453" y="-84" font-family="Helvetica,sans-Serif" font-size="10.00">Bno08xHandler.h</text>
</a>
</g>
</g>
<!-- Node2 -->
<g id="Node000002" class="node">
<title>Node2</title>
<g id="a_Node000002"><a xlink:title=" ">
<polygon fill="#e0e0e0" stroke="#999999" points="50,-30 0,-30 0,-11 50,-11 50,-30"/>
<text text-anchor="middle" x="25" y="-18" font-family="Helvetica,sans-Serif" font-size="10.00">cstdint</text>
</a>
</g>
</g>
<!-- Node1&#45;&gt;Node2 -->
<g id="edge1_Node000001_Node000002" class="edge">
<title>Node1&#45;&gt;Node2</title>
<g id="a_edge1_Node000001_Node000002"><a xlink:title=" ">
<path fill="none" stroke="#63b8ff" d="M402.8,-86.27C326.56,-86.03 177.89,-79.95 59,-41 54.51,-39.53 49.96,-37.43 45.71,-35.14"/>
<polygon fill="#63b8ff" stroke="#63b8ff" points="47.41,-32.08 37.02,-30.01 43.86,-38.11 47.41,-32.08"/>
</a>
</g>
</g>
<!-- Node3 -->
<g id="Node000003" class="node">
<title>Node3</title>
<g id="a_Node000003"><a xlink:title=" ">
<polygon fill="#e0e0e0" stroke="#999999" points="126,-30 68,-30 68,-11 126,-11 126,-30"/>
<text text-anchor="middle" x="97" y="-18" font-family="Helvetica,sans-Serif" font-size="10.00">memory</text>
</a>
</g>
</g>
<!-- Node1&#45;&gt;Node3 -->
<g id="edge2_Node000001_Node000003" class="edge">
<title>Node1&#45;&gt;Node3</title>
<g id="a_edge2_Node000001_Node000003"><a xlink:title=" ">
<path fill="none" stroke="#63b8ff" d="M402.84,-83.65C339.19,-80.14 226.68,-70.02 135,-41 129.92,-39.39 124.69,-37.15 119.8,-34.75"/>
<polygon fill="#63b8ff" stroke="#63b8ff" points="121.43,-31.65 110.95,-30.09 118.17,-37.85 121.43,-31.65"/>
</a>
</g>
</g>
<!-- Node4 -->
<g id="Node000004" class="node">
<title>Node4</title>
<g id="a_Node000004"><a xlink:title=" ">
<polygon fill="#e0e0e0" stroke="#999999" points="186,-30 144,-30 144,-11 186,-11 186,-30"/>
<text text-anchor="middle" x="165" y="-18" font-family="Helvetica,sans-Serif" font-size="10.00">array</text>
</a>
</g>
</g>
<!-- Node1&#45;&gt;Node4 -->
<g id="edge3_Node000001_Node000004" class="edge">
<title>Node1&#45;&gt;Node4</title>
<g id="a_edge3_Node000001_Node000004"><a xlink:title=" ">
<path fill="none" stroke="#63b8ff" d="M402.9,-82.85C349.71,-78.69 263.98,-68.04 195,-41 191.37,-39.58 187.73,-37.68 184.28,-35.63"/>
<polygon fill="#63b8ff" stroke="#63b8ff" points="186.08,-32.63 175.8,-30.06 182.24,-38.48 186.08,-32.63"/>
</a>
</g>
</g>
<!-- Node5 -->
<g id="Node000005" class="node">
<title>Node5</title>
<g id="a_Node000005"><a xlink:title=" ">
<polygon fill="#e0e0e0" stroke="#999999" points="269.5,-30 204.5,-30 204.5,-11 269.5,-11 269.5,-30"/>
<text text-anchor="middle" x="237" y="-18" font-family="Helvetica,sans-Serif" font-size="10.00">functional</text>
</a>
</g>
</g>
<!-- Node1&#45;&gt;Node5 -->
<g id="edge4_Node000001_Node000005" class="edge">
<title>Node1&#45;&gt;Node5</title>
<g id="a_edge4_Node000001_Node000005"><a xlink:title=" ">
<path fill="none" stroke="#63b8ff" d="M409.87,-76.99C374.01,-69.33 321.93,-56.86 278,-41 272.85,-39.14 267.48,-36.85 262.38,-34.51"/>
<polygon fill="#63b8ff" stroke="#63b8ff" points="263.58,-31.2 253.05,-30.03 260.55,-37.51 263.58,-31.2"/>
</a>
</g>
</g>
<!-- Node6 -->
<g id="Node000006" class="node">
<title>Node6</title>
<g id="a_Node000006"><a xlink:title=" ">
<polygon fill="#e0e0e0" stroke="#999999" points="356.5,-30 287.5,-30 287.5,-11 356.5,-11 356.5,-30"/>
<text text-anchor="middle" x="322" y="-18" font-family="Helvetica,sans-Serif" font-size="10.00">type_traits</text>
</a>
</g>
</g>
<!-- Node1&#45;&gt;Node6 -->
<g id="edge5_Node000001_Node000006" class="edge">
<title>Node1&#45;&gt;Node6</title>
<g id="a_edge5_Node000001_Node000006"><a xlink:title=" ">
<path fill="none" stroke="#63b8ff" d="M435.33,-76.87C413.16,-66.04 374.92,-47.35 349.05,-34.72"/>
<polygon fill="#63b8ff" stroke="#63b8ff" points="350.33,-31.44 339.81,-30.2 347.25,-37.73 350.33,-31.44"/>
</a>
</g>
</g>
<!-- Node7 -->
<g id="Node000007" class="node">
<title>Node7</title>
<g id="a_Node000007"><a xlink:title=" ">
<polygon fill="#e0e0e0" stroke="#999999" points="419.5,-30 374.5,-30 374.5,-11 419.5,-11 419.5,-30"/>
<text text-anchor="middle" x="397" y="-18" font-family="Helvetica,sans-Serif" font-size="10.00">utility</text>
</a>
</g>
</g>
<!-- Node1&#45;&gt;Node7 -->
<g id="edge6_Node000001_Node000007" class="edge">
<title>Node1&#45;&gt;Node7</title>
<g id="a_edge6_Node000001_Node000007"><a xlink:title=" ">
<path fill="none" stroke="#63b8ff" d="M445.45,-76.87C436.81,-67 422.47,-50.61 411.63,-38.22"/>
<polygon fill="#63b8ff" stroke="#63b8ff" points="414.01,-35.63 404.79,-30.41 408.74,-40.24 414.01,-35.63"/>
</a>
</g>
</g>
<!-- Node8 -->
<g id="Node000008" class="node">
<title>Node8</title>
<g id="a_Node000008"><a xlink:title=" ">
<polygon fill="#e0e0e0" stroke="#999999" points="582,-41 438,-41 438,0 582,0 582,-41"/>
<text text-anchor="start" x="446" y="-29" font-family="Helvetica,sans-Serif" font-size="10.00">core/hf&#45;core&#45;drivers</text>
<text text-anchor="start" x="446" y="-18" font-family="Helvetica,sans-Serif" font-size="10.00">/external/hf&#45;bno08x&#45;driver</text>
<text text-anchor="middle" x="510" y="-7" font-family="Helvetica,sans-Serif" font-size="10.00">/inc/bno08x.hpp</text>
</a>
</g>
</g>
<!-- Node1&#45;&gt;Node8 -->
<g id="edge7_Node000001_Node000008" class="edge">
<title>Node1&#45;&gt;Node8</title>
<g id="a_edge7_Node000001_Node000008"><a xlink:title=" ">
<path fill="none" stroke="#63b8ff" d="M460.69,-76.87C467.18,-69.58 476.83,-58.74 485.88,-48.58"/>
<polygon fill="#63b8ff" stroke="#63b8ff" points="488.59,-50.8 492.62,-41.01 483.36,-46.15 488.59,-50.8"/>
</a>
</g>
</g>
<!-- Node9 -->
<g id="Node000009" class="node">
<title>Node9</title>
<g id="a_Node000009"><a xlink:title=" ">
<polygon fill="#e0e0e0" stroke="#999999" points="779.5,-41 600.5,-41 600.5,0 779.5,0 779.5,-41"/>
<text text-anchor="start" x="608.5" y="-29" font-family="Helvetica,sans-Serif" font-size="10.00">core/hf&#45;core&#45;drivers</text>
<text text-anchor="start" x="608.5" y="-18" font-family="Helvetica,sans-Serif" font-size="10.00">/external/hf&#45;bno08x&#45;driver</text>
<text text-anchor="middle" x="690" y="-7" font-family="Helvetica,sans-Serif" font-size="10.00">/inc/bno08x_comm_interface.hpp</text>
</a>
</g>
</g>
<!-- Node1&#45;&gt;Node9 -->
<g id="edge8_Node000001_Node000009" class="edge">
<title>Node1&#45;&gt;Node9</title>
<g id="a_edge8_Node000001_Node000009"><a xlink:title=" ">
<path fill="none" stroke="#63b8ff" d="M484.96,-76.87C516.38,-68.39 565.63,-55.08 607.99,-43.65"/>
<polygon fill="#63b8ff" stroke="#63b8ff" points="609.01,-47 617.76,-41.01 607.19,-40.24 609.01,-47"/>
</a>
</g>
</g>
<!-- Node10 -->
<g id="Node000010" class="node">
<title>Node10</title>
<g id="a_Node000010"><a xlink:title=" ">
<polygon fill="#e0e0e0" stroke="#999999" points="888,-30 798,-30 798,-11 888,-11 888,-30"/>
<text text-anchor="middle" x="843" y="-18" font-family="Helvetica,sans-Serif" font-size="10.00">base/BaseI2c.h</text>
</a>
</g>
</g>
<!-- Node1&#45;&gt;Node10 -->
<g id="edge9_Node000001_Node000010" class="edge">
<title>Node1&#45;&gt;Node10</title>
<g id="a_edge9_Node000001_Node000010"><a xlink:title=" ">
<path fill="none" stroke="#63b8ff" d="M503.15,-82.24C569.36,-77.16 689.24,-65.32 789,-41 796.97,-39.06 805.39,-36.35 813.15,-33.57"/>
<polygon fill="#63b8ff" stroke="#63b8ff" points="814.41,-36.84 822.55,-30.06 811.96,-30.28 814.41,-36.84"/>
</a>
</g>
</g>
<!-- Node11 -->
<g id="Node000011" class="node">
<title>Node11</title>
<g id="a_Node000011"><a xlink:title=" ">
<polygon fill="#e0e0e0" stroke="#999999" points="997.5,-30 906.5,-30 906.5,-11 997.5,-11 997.5,-30"/>
<text text-anchor="middle" x="952" y="-18" font-family="Helvetica,sans-Serif" font-size="10.00">base/BaseSpi.h</text>
</a>
</g>
</g>
<!-- Node1&#45;&gt;Node11 -->
<g id="edge10_Node000001_Node000011" class="edge">
<title>Node1&#45;&gt;Node11</title>
<g id="a_edge10_Node000001_Node000011"><a xlink:title=" ">
<path fill="none" stroke="#63b8ff" d="M503.23,-84.39C586.18,-81.69 756.58,-72.45 897,-41 905.36,-39.13 914.21,-36.36 922.3,-33.5"/>
<polygon fill="#63b8ff" stroke="#63b8ff" points="923.55,-36.77 931.71,-30.01 921.12,-30.2 923.55,-36.77"/>
</a>
</g>
</g>
<!-- Node12 -->
<g id="Node000012" class="node">
<title>Node12</title>
<g id="a_Node000012"><a xlink:title=" ">
<polygon fill="#e0e0e0" stroke="#999999" points="1114,-30 1016,-30 1016,-11 1114,-11 1114,-30"/>
<text text-anchor="middle" x="1065" y="-18" font-family="Helvetica,sans-Serif" font-size="10.00">base/BaseGpio.h</text>
</a>
</g>
</g>
<!-- Node1&#45;&gt;Node12 -->
<g id="edge11_Node000001_Node000012" class="edge">
<title>Node1&#45;&gt;Node12</title>
<g id="a_edge11_Node000001_Node000012"><a xlink:title=" ">
<path fill="none" stroke="#63b8ff" d="M503.23,-85.54C601.18,-84.74 824.1,-78.5 1007,-41 1015.9,-39.17 1025.33,-36.39 1033.94,-33.5"/>
<polygon fill="#63b8ff" stroke="#63b8ff" points="1035.32,-36.72 1043.59,-30.09 1032.99,-30.12 1035.32,-36.72"/>
</a>
</g>
</g>
<!-- Node13 -->
<g id="Node000013" class="node">
<title>Node13</title>
<g id="a_Node000013"><a xlink:title=" ">
<polygon fill="#e0e0e0" stroke="#999999" points="1234,-30 1132,-30 1132,-11 1234,-11 1234,-30"/>
<text text-anchor="middle" x="1183" y="-18" font-family="Helvetica,sans-Serif" font-size="10.00">utils/RtosMutex.h</text>
</a>
</g>
</g>
<!-- Node1&#45;&gt;Node13 -->
<g id="edge12_Node000001_Node000013" class="edge">
<title>Node1&#45;&gt;Node13</title>
<g id="a_edge12_Node000001_Node000013"><a xlink:title=" ">
<path fill="none" stroke="#63b8ff" d="M503.24,-83.78C637.82,-78.9 1004.24,-63.87 1123,-41 1132.38,-39.19 1142.33,-36.36 1151.37,-33.4"/>
<polygon fill="#63b8ff" stroke="#63b8ff" points="1152.79,-36.61 1161.12,-30.06 1150.52,-29.99 1152.79,-36.61"/>
</a>
</g>
</g>
</g>
</svg>
