<?xml version="1.0" encoding="UTF-8" standalone="no"?>
<!DOCTYPE svg PUBLIC "-//W3C//DTD SVG 1.1//EN"
 "http://www.w3.org/Graphics/SVG/1.1/DTD/svg11.dtd">
<!-- Generated by graphviz version 2.43.0 (0)
 -->
<!-- Title: Bno08xHandler.h Pages: 1 -->
<svg width="463pt" height="93pt"
 viewBox="0.00 0.00 462.50 93.00" xmlns="http://www.w3.org/2000/svg" xmlns:xlink="http://www.w3.org/1999/xlink">
<g id="graph0" class="graph" transform="scale(1 1) rotate(0) translate(4 89)">
<title>Bno08xHandler.h</title>
<!-- Node1 -->
<g id="Node000001" class="node">
<title>Node1</title>
<g id="a_Node000001"><a xlink:title="Unified handler for BNO08x IMU sensor family with multi&#45;interface support.">
<polygon fill="#999999" stroke="#666666" points="266.5,-85 166.5,-85 166.5,-66 266.5,-66 266.5,-85"/>
<text text-anchor="middle" x="216.5" y="-73" font-family="Helvetica,sans-Serif" font-size="10.00">Bno08xHandler.h</text>
</a>
</g>
</g>
<!-- Node2 -->
<g id="Node000002" class="node">
<title>Node2</title>
<g id="a_Node000002"><a xlink:href="Bno08xHandler_8cpp.html" target="_top" xlink:title="Implementation of unified BNO08x IMU sensor handler.">
<polygon fill="white" stroke="#666666" points="111,-24.5 0,-24.5 0,-5.5 111,-5.5 111,-24.5"/>
<text text-anchor="middle" x="55.5" y="-12.5" font-family="Helvetica,sans-Serif" font-size="10.00">Bno08xHandler.cpp</text>
</a>
</g>
</g>
<!-- Node1&#45;&gt;Node2 -->
<g id="edge1_Node000001_Node000002" class="edge">
<title>Node1&#45;&gt;Node2</title>
<g id="a_edge1_Node000001_Node000002"><a xlink:title=" ">
<path fill="none" stroke="#63b8ff" d="M183.54,-62.52C152.41,-51.21 106.5,-34.53 78.94,-24.52"/>
<polygon fill="#63b8ff" stroke="#63b8ff" points="182.5,-65.87 193.09,-65.99 184.89,-59.29 182.5,-65.87"/>
</a>
</g>
</g>
<!-- Node3 -->
<g id="Node000003" class="node">
<title>Node3</title>
<g id="a_Node000003"><a xlink:href="bno08x__handler__comprehensive__test_8cpp.html" target="_top" xlink:title="Comprehensive test suite for Bno08xHandler.">
<polygon fill="white" stroke="#666666" points="304,-30 129,-30 129,0 304,0 304,-30"/>
<text text-anchor="start" x="137" y="-18" font-family="Helvetica,sans-Serif" font-size="10.00">bno08x_handler_comprehensive</text>
<text text-anchor="middle" x="216.5" y="-7" font-family="Helvetica,sans-Serif" font-size="10.00">_test.cpp</text>
</a>
</g>
</g>
<!-- Node1&#45;&gt;Node3 -->
<g id="edge2_Node000001_Node000003" class="edge">
<title>Node1&#45;&gt;Node3</title>
<g id="a_edge2_Node000001_Node000003"><a xlink:title=" ">
<path fill="none" stroke="#63b8ff" d="M216.5,-55.65C216.5,-47.36 216.5,-37.78 216.5,-30.11"/>
<polygon fill="#63b8ff" stroke="#63b8ff" points="213,-55.87 216.5,-65.87 220,-55.87 213,-55.87"/>
</a>
</g>
</g>
<!-- Node4 -->
<g id="Node000004" class="node">
<title>Node4</title>
<g id="a_Node000004"><a xlink:href="full__system__integration__test_8cpp.html" target="_top" xlink:title="Full system integration test for hf&#45;core.">
<polygon fill="white" stroke="#666666" points="454.5,-30 322.5,-30 322.5,0 454.5,0 454.5,-30"/>
<text text-anchor="start" x="330.5" y="-18" font-family="Helvetica,sans-Serif" font-size="10.00">full_system_integration</text>
<text text-anchor="middle" x="388.5" y="-7" font-family="Helvetica,sans-Serif" font-size="10.00">_test.cpp</text>
</a>
</g>
</g>
<!-- Node1&#45;&gt;Node4 -->
<g id="edge3_Node000001_Node000004" class="edge">
<title>Node1&#45;&gt;Node4</title>
<g id="a_edge3_Node000001_Node000004"><a xlink:title=" ">
<path fill="none" stroke="#63b8ff" d="M251.17,-62.71C278.89,-53.28 317.81,-40.04 347.15,-30.06"/>
<polygon fill="#63b8ff" stroke="#63b8ff" points="249.85,-59.46 241.51,-65.99 252.1,-66.09 249.85,-59.46"/>
</a>
</g>
</g>
</g>
</svg>
