<?xml version="1.0" encoding="UTF-8" standalone="no"?>
<!DOCTYPE svg PUBLIC "-//W3C//DTD SVG 1.1//EN"
 "http://www.w3.org/Graphics/SVG/1.1/DTD/svg11.dtd">
<!-- Generated by graphviz version 2.43.0 (0)
 -->
<!-- Title: CanOpenBaseCanLink.hpp Pages: 1 -->
<svg width="347pt" height="192pt"
 viewBox="0.00 0.00 347.00 192.00" xmlns="http://www.w3.org/2000/svg" xmlns:xlink="http://www.w3.org/1999/xlink">
<g id="graph0" class="graph" transform="scale(1 1) rotate(0) translate(4 188)">
<title>CanOpenBaseCanLink.hpp</title>
<!-- Node1 -->
<g id="Node000001" class="node">
<title>Node1</title>
<g id="a_Node000001"><a xlink:title="Facade: CanOpen::CanFrame I/O on HAL BaseCan via HfUtilsCanOpenTransport.">
<polygon fill="#999999" stroke="#666666" points="304,-184 159,-184 159,-165 304,-165 304,-184"/>
<text text-anchor="middle" x="231.5" y="-172" font-family="Helvetica,sans-Serif" font-size="10.00">CanOpenBaseCanLink.hpp</text>
</a>
</g>
</g>
<!-- Node2 -->
<g id="Node000002" class="node">
<title>Node2</title>
<g id="a_Node000002"><a xlink:href="HfUtilsCanOpenTransport_8hpp.html" target="_top" xlink:title="Send/receive CanOpen::CanFrame on a BaseCan instance.">
<polygon fill="white" stroke="#666666" points="258,-129 97,-129 97,-110 258,-110 258,-129"/>
<text text-anchor="middle" x="177.5" y="-117" font-family="Helvetica,sans-Serif" font-size="10.00">HfUtilsCanOpenTransport.hpp</text>
</a>
</g>
</g>
<!-- Node1&#45;&gt;Node2 -->
<g id="edge1_Node000001_Node000002" class="edge">
<title>Node1&#45;&gt;Node2</title>
<g id="a_edge1_Node000001_Node000002"><a xlink:title=" ">
<path fill="none" stroke="#63b8ff" d="M222.58,-164.75C214.72,-157.03 203.07,-145.6 193.58,-136.28"/>
<polygon fill="#63b8ff" stroke="#63b8ff" points="195.84,-133.6 186.25,-129.09 190.94,-138.59 195.84,-133.6"/>
</a>
</g>
</g>
<!-- Node4 -->
<g id="Node000004" class="node">
<title>Node4</title>
<g id="a_Node000004"><a xlink:title=" ">
<polygon fill="#e0e0e0" stroke="#999999" points="339,-19 264,-19 264,0 339,0 339,-19"/>
<text text-anchor="middle" x="301.5" y="-7" font-family="Helvetica,sans-Serif" font-size="10.00">CanFrame.h</text>
</a>
</g>
</g>
<!-- Node1&#45;&gt;Node4 -->
<g id="edge9_Node000001_Node000004" class="edge">
<title>Node1&#45;&gt;Node4</title>
<g id="a_edge9_Node000001_Node000004"><a xlink:title=" ">
<path fill="none" stroke="#63b8ff" d="M240.41,-164.73C248.54,-156.27 260.34,-142.75 267.5,-129 284.64,-96.06 294.17,-53.33 298.52,-29.22"/>
<polygon fill="#63b8ff" stroke="#63b8ff" points="301.99,-29.72 300.22,-19.27 295.09,-28.55 301.99,-29.72"/>
</a>
</g>
</g>
<!-- Node3 -->
<g id="Node000003" class="node">
<title>Node3</title>
<g id="a_Node000003"><a xlink:href="HfUtilsCanOpenBridge_8hpp.html" target="_top" xlink:title="Convert CanOpen::CanFrame ↔ hf_can_message_t for BaseCan I/O.">
<polygon fill="white" stroke="#666666" points="235,-74 88,-74 88,-55 235,-55 235,-74"/>
<text text-anchor="middle" x="161.5" y="-62" font-family="Helvetica,sans-Serif" font-size="10.00">HfUtilsCanOpenBridge.hpp</text>
</a>
</g>
</g>
<!-- Node2&#45;&gt;Node3 -->
<g id="edge2_Node000002_Node000003" class="edge">
<title>Node2&#45;&gt;Node3</title>
<g id="a_edge2_Node000002_Node000003"><a xlink:title=" ">
<path fill="none" stroke="#63b8ff" d="M174.86,-109.75C172.74,-102.72 169.69,-92.62 167.04,-83.84"/>
<polygon fill="#63b8ff" stroke="#63b8ff" points="170.33,-82.65 164.09,-74.09 163.63,-84.67 170.33,-82.65"/>
</a>
</g>
</g>
<!-- Node2&#45;&gt;Node4 -->
<g id="edge8_Node000002_Node000004" class="edge">
<title>Node2&#45;&gt;Node4</title>
<g id="a_edge8_Node000002_Node000004"><a xlink:title=" ">
<path fill="none" stroke="#63b8ff" d="M192.37,-109.88C206.24,-101.53 227.18,-88.08 243.5,-74 260.19,-59.6 276.92,-40.68 288.1,-27.25"/>
<polygon fill="#63b8ff" stroke="#63b8ff" points="290.96,-29.28 294.58,-19.32 285.54,-24.85 290.96,-29.28"/>
</a>
</g>
</g>
<!-- Node5 -->
<g id="Node000005" class="node">
<title>Node5</title>
<g id="a_Node000005"><a xlink:title=" ">
<polygon fill="#e0e0e0" stroke="#999999" points="95,-19 0,-19 0,0 95,0 95,-19"/>
<text text-anchor="middle" x="47.5" y="-7" font-family="Helvetica,sans-Serif" font-size="10.00">base/BaseCan.h</text>
</a>
</g>
</g>
<!-- Node2&#45;&gt;Node5 -->
<g id="edge7_Node000002_Node000005" class="edge">
<title>Node2&#45;&gt;Node5</title>
<g id="a_edge7_Node000002_Node000005"><a xlink:title=" ">
<path fill="none" stroke="#63b8ff" d="M144.3,-109.94C123.3,-103.11 96.77,-91.7 78.5,-74 65.71,-61.61 57.45,-42.85 52.71,-28.93"/>
<polygon fill="#63b8ff" stroke="#63b8ff" points="55.94,-27.53 49.63,-19.02 49.25,-29.6 55.94,-27.53"/>
</a>
</g>
</g>
<!-- Node3&#45;&gt;Node4 -->
<g id="edge3_Node000003_Node000004" class="edge">
<title>Node3&#45;&gt;Node4</title>
<g id="a_edge3_Node000003_Node000004"><a xlink:title=" ">
<path fill="none" stroke="#63b8ff" d="M183.99,-54.98C207.02,-46.27 243.04,-32.63 269.13,-22.75"/>
<polygon fill="#63b8ff" stroke="#63b8ff" points="270.48,-25.98 278.6,-19.17 268.01,-19.44 270.48,-25.98"/>
</a>
</g>
</g>
<!-- Node3&#45;&gt;Node5 -->
<g id="edge4_Node000003_Node000005" class="edge">
<title>Node3&#45;&gt;Node5</title>
<g id="a_edge4_Node000003_Node000005"><a xlink:title=" ">
<path fill="none" stroke="#63b8ff" d="M143.18,-54.98C124.84,-46.46 96.39,-33.23 75.27,-23.41"/>
<polygon fill="#63b8ff" stroke="#63b8ff" points="76.69,-20.21 66.15,-19.17 73.74,-26.56 76.69,-20.21"/>
</a>
</g>
</g>
<!-- Node6 -->
<g id="Node000006" class="node">
<title>Node6</title>
<g id="a_Node000006"><a xlink:title=" ">
<polygon fill="#e0e0e0" stroke="#999999" points="177.5,-19 113.5,-19 113.5,0 177.5,0 177.5,-19"/>
<text text-anchor="middle" x="145.5" y="-7" font-family="Helvetica,sans-Serif" font-size="10.00">algorithm</text>
</a>
</g>
</g>
<!-- Node3&#45;&gt;Node6 -->
<g id="edge5_Node000003_Node000006" class="edge">
<title>Node3&#45;&gt;Node6</title>
<g id="a_edge5_Node000003_Node000006"><a xlink:title=" ">
<path fill="none" stroke="#63b8ff" d="M158.86,-54.75C156.74,-47.72 153.69,-37.62 151.04,-28.84"/>
<polygon fill="#63b8ff" stroke="#63b8ff" points="154.33,-27.65 148.09,-19.09 147.63,-29.67 154.33,-27.65"/>
</a>
</g>
</g>
<!-- Node7 -->
<g id="Node000007" class="node">
<title>Node7</title>
<g id="a_Node000007"><a xlink:title=" ">
<polygon fill="#e0e0e0" stroke="#999999" points="245.5,-19 195.5,-19 195.5,0 245.5,0 245.5,-19"/>
<text text-anchor="middle" x="220.5" y="-7" font-family="Helvetica,sans-Serif" font-size="10.00">cstring</text>
</a>
</g>
</g>
<!-- Node3&#45;&gt;Node7 -->
<g id="edge6_Node000003_Node000007" class="edge">
<title>Node3&#45;&gt;Node7</title>
<g id="a_edge6_Node000003_Node000007"><a xlink:title=" ">
<path fill="none" stroke="#63b8ff" d="M170.98,-54.98C179.7,-47.15 192.84,-35.34 203.4,-25.86"/>
<polygon fill="#63b8ff" stroke="#63b8ff" points="205.75,-28.46 210.85,-19.17 201.07,-23.25 205.75,-28.46"/>
</a>
</g>
</g>
</g>
</svg>
