<?xml version="1.0" encoding="UTF-8" standalone="no"?>
<!DOCTYPE svg PUBLIC "-//W3C//DTD SVG 1.1//EN"
 "http://www.w3.org/Graphics/SVG/1.1/DTD/svg11.dtd">
<!-- Generated by graphviz version 2.43.0 (0)
 -->
<!-- Title: Bno08xHandler::EnsureInitialized Pages: 1 -->
<svg width="976pt" height="236pt"
 viewBox="0.00 0.00 976.00 235.50" xmlns="http://www.w3.org/2000/svg" xmlns:xlink="http://www.w3.org/1999/xlink">
<g id="graph0" class="graph" transform="scale(1 1) rotate(0) translate(4 231.5)">
<title>Bno08xHandler::EnsureInitialized</title>
<!-- Node1 -->
<g id="Node000001" class="node">
<title>Node1</title>
<g id="a_Node000001"><a xlink:title="Ensure the BNO08x is initialized (lazy init entrypoint).">
<polygon fill="#999999" stroke="#666666" points="179,-114 0,-114 0,-95 179,-95 179,-114"/>
<text text-anchor="middle" x="89.5" y="-102" font-family="Helvetica,sans-Serif" font-size="10.00">Bno08xHandler::EnsureInitialized</text>
</a>
</g>
</g>
<!-- Node2 -->
<g id="Node000002" class="node">
<title>Node2</title>
<g id="a_Node000002"><a xlink:href="classBno08xHandler.html#a0479abc034d5417ba7dc524468a5ce82" target="_top" xlink:title="Internal: ensure initialized (assumes mutex is held).">
<polygon fill="white" stroke="#666666" points="394,-119.5 215,-119.5 215,-89.5 394,-89.5 394,-119.5"/>
<text text-anchor="start" x="223" y="-107.5" font-family="Helvetica,sans-Serif" font-size="10.00">Bno08xHandler::ensureInitialized</text>
<text text-anchor="middle" x="304.5" y="-96.5" font-family="Helvetica,sans-Serif" font-size="10.00">Locked</text>
</a>
</g>
</g>
<!-- Node1&#45;&gt;Node2 -->
<g id="edge1_Node000001_Node000002" class="edge">
<title>Node1&#45;&gt;Node2</title>
<g id="a_edge1_Node000001_Node000002"><a xlink:title=" ">
<path fill="none" stroke="#63b8ff" d="M179.29,-104.5C187.65,-104.5 196.16,-104.5 204.6,-104.5"/>
<polygon fill="#63b8ff" stroke="#63b8ff" points="204.86,-108 214.86,-104.5 204.85,-101 204.86,-108"/>
</a>
</g>
</g>
<!-- Node3 -->
<g id="Node000003" class="node">
<title>Node3</title>
<g id="a_Node000003"><a xlink:href="classBno08xHandler.html#ac1a1ff0d56324dcc09d9b48ca2e132e6" target="_top" xlink:title="Initialize the BNO08x sensor.">
<polygon fill="white" stroke="#666666" points="570,-114 430,-114 430,-95 570,-95 570,-114"/>
<text text-anchor="middle" x="500" y="-102" font-family="Helvetica,sans-Serif" font-size="10.00">Bno08xHandler::Initialize</text>
</a>
</g>
</g>
<!-- Node2&#45;&gt;Node3 -->
<g id="edge2_Node000002_Node000003" class="edge">
<title>Node2&#45;&gt;Node3</title>
<g id="a_edge2_Node000002_Node000003"><a xlink:title=" ">
<path fill="none" stroke="#63b8ff" d="M394.04,-104.5C402.6,-104.5 411.25,-104.5 419.71,-104.5"/>
<polygon fill="#63b8ff" stroke="#63b8ff" points="419.92,-108 429.92,-104.5 419.92,-101 419.92,-108"/>
</a>
</g>
</g>
<!-- Node4 -->
<g id="Node000004" class="node">
<title>Node4</title>
<g id="a_Node000004"><a xlink:href="classBno08xHandler.html#a5669d8d3146a450430e5644b8d297de5" target="_top" xlink:title="Internal: apply configured sensor enables (assumes mutex is held).">
<polygon fill="white" stroke="#666666" points="774.5,-227.5 619.5,-227.5 619.5,-197.5 774.5,-197.5 774.5,-227.5"/>
<text text-anchor="start" x="627.5" y="-215.5" font-family="Helvetica,sans-Serif" font-size="10.00">Bno08xHandler::applyConfig</text>
<text text-anchor="middle" x="697" y="-204.5" font-family="Helvetica,sans-Serif" font-size="10.00">Locked</text>
</a>
</g>
</g>
<!-- Node3&#45;&gt;Node4 -->
<g id="edge3_Node000003_Node000004" class="edge">
<title>Node3&#45;&gt;Node4</title>
<g id="a_edge3_Node000003_Node000004"><a xlink:title=" ">
<path fill="none" stroke="#63b8ff" d="M510.17,-114.11C527.34,-131.53 566.2,-168.4 606,-188.5 609.82,-190.43 613.8,-192.21 617.89,-193.86"/>
<polygon fill="#63b8ff" stroke="#63b8ff" points="616.96,-197.25 627.55,-197.48 619.41,-190.7 616.96,-197.25"/>
</a>
</g>
</g>
<!-- Node6 -->
<g id="Node000006" class="node">
<title>Node6</title>
<g id="a_Node000006"><a xlink:href="classIBno08xDriverOps.html#a0ca90c1a5664ab3eb83f691aff34faa0" target="_top" xlink:title=" ">
<polygon fill="white" stroke="#666666" points="766.5,-179 627.5,-179 627.5,-160 766.5,-160 766.5,-179"/>
<text text-anchor="middle" x="697" y="-167" font-family="Helvetica,sans-Serif" font-size="10.00">IBno08xDriverOps::Begin</text>
</a>
</g>
</g>
<!-- Node3&#45;&gt;Node6 -->
<g id="edge5_Node000003_Node000006" class="edge">
<title>Node3&#45;&gt;Node6</title>
<g id="a_edge5_Node000003_Node000006"><a xlink:title=" ">
<path fill="none" stroke="#63b8ff" d="M519.52,-114C540.15,-124.26 574.73,-140.47 606,-150.5 614.29,-153.16 623.12,-155.55 631.9,-157.66"/>
<polygon fill="#63b8ff" stroke="#63b8ff" points="631.22,-161.09 641.75,-159.92 632.79,-154.27 631.22,-161.09"/>
</a>
</g>
</g>
<!-- Node7 -->
<g id="Node000007" class="node">
<title>Node7</title>
<g id="a_Node000007"><a xlink:href="classIBno08xDriverOps.html#a66418ccb85cd8eb8eea327fa979a2b6a" target="_top" xlink:title=" ">
<polygon fill="white" stroke="#666666" points="776,-141.5 618,-141.5 618,-111.5 776,-111.5 776,-141.5"/>
<text text-anchor="start" x="626" y="-129.5" font-family="Helvetica,sans-Serif" font-size="10.00">IBno08xDriverOps::Hardware</text>
<text text-anchor="middle" x="697" y="-118.5" font-family="Helvetica,sans-Serif" font-size="10.00">Reset</text>
</a>
</g>
</g>
<!-- Node3&#45;&gt;Node7 -->
<g id="edge6_Node000003_Node000007" class="edge">
<title>Node3&#45;&gt;Node7</title>
<g id="a_edge6_Node000003_Node000007"><a xlink:title=" ">
<path fill="none" stroke="#63b8ff" d="M570.02,-112.29C582.21,-113.66 595.05,-115.11 607.69,-116.54"/>
<polygon fill="#63b8ff" stroke="#63b8ff" points="607.43,-120.03 617.76,-117.67 608.21,-113.07 607.43,-120.03"/>
</a>
</g>
</g>
<!-- Node8 -->
<g id="Node000008" class="node">
<title>Node8</title>
<g id="a_Node000008"><a xlink:href="classIBno08xDriverOps.html#a1cfdc8fea4d31f36d9d8219b90beeae4" target="_top" xlink:title="Open the transport (bus + control GPIO setup) before reset or SH&#45;2.">
<polygon fill="white" stroke="#666666" points="788,-93 606,-93 606,-74 788,-74 788,-93"/>
<text text-anchor="middle" x="697" y="-81" font-family="Helvetica,sans-Serif" font-size="10.00">IBno08xDriverOps::OpenTransport</text>
</a>
</g>
</g>
<!-- Node3&#45;&gt;Node8 -->
<g id="edge7_Node000003_Node000008" class="edge">
<title>Node3&#45;&gt;Node8</title>
<g id="a_edge7_Node000003_Node000008"><a xlink:title=" ">
<path fill="none" stroke="#63b8ff" d="M570.02,-97.07C578.96,-96.1 588.24,-95.11 597.53,-94.1"/>
<polygon fill="#63b8ff" stroke="#63b8ff" points="598.03,-97.57 607.6,-93.02 597.28,-90.61 598.03,-97.57"/>
</a>
</g>
</g>
<!-- Node9 -->
<g id="Node000009" class="node">
<title>Node9</title>
<g id="a_Node000009"><a xlink:href="classIBno08xDriverOps.html#a35854a70ef94b79c9193d40459341864" target="_top" xlink:title=" ">
<polygon fill="white" stroke="#666666" points="779,-56 615,-56 615,-37 779,-37 779,-56"/>
<text text-anchor="middle" x="697" y="-44" font-family="Helvetica,sans-Serif" font-size="10.00">IBno08xDriverOps::SetBootPin</text>
</a>
</g>
</g>
<!-- Node3&#45;&gt;Node9 -->
<g id="edge8_Node000003_Node000009" class="edge">
<title>Node3&#45;&gt;Node9</title>
<g id="a_edge8_Node000003_Node000009"><a xlink:title=" ">
<path fill="none" stroke="#63b8ff" d="M523.62,-94.99C544.66,-86.41 577.05,-73.88 606,-65.5 615.11,-62.86 624.83,-60.43 634.4,-58.24"/>
<polygon fill="#63b8ff" stroke="#63b8ff" points="635.27,-61.63 644.27,-56.05 633.75,-54.8 635.27,-61.63"/>
</a>
</g>
</g>
<!-- Node10 -->
<g id="Node000010" class="node">
<title>Node10</title>
<g id="a_Node000010"><a xlink:href="classIBno08xDriverOps.html#a04816a487d80027e6d6fe435f651b265" target="_top" xlink:title=" ">
<polygon fill="white" stroke="#666666" points="781.5,-19 612.5,-19 612.5,0 781.5,0 781.5,-19"/>
<text text-anchor="middle" x="697" y="-7" font-family="Helvetica,sans-Serif" font-size="10.00">IBno08xDriverOps::SetCallback</text>
</a>
</g>
</g>
<!-- Node3&#45;&gt;Node10 -->
<g id="edge9_Node000003_Node000010" class="edge">
<title>Node3&#45;&gt;Node10</title>
<g id="a_edge9_Node000003_Node000010"><a xlink:title=" ">
<path fill="none" stroke="#63b8ff" d="M511.1,-94.89C528.83,-78.6 567.32,-45.65 606,-28.5 611.75,-25.95 617.86,-23.74 624.08,-21.82"/>
<polygon fill="#63b8ff" stroke="#63b8ff" points="625.25,-25.12 633.92,-19.03 623.34,-18.39 625.25,-25.12"/>
</a>
</g>
</g>
<!-- Node5 -->
<g id="Node000005" class="node">
<title>Node5</title>
<g id="a_Node000005"><a xlink:href="classIBno08xDriverOps.html#a1da5bdfd4c8d7fbd42475ae7ee37fb98" target="_top" xlink:title=" ">
<polygon fill="white" stroke="#666666" points="968,-227.5 824,-227.5 824,-197.5 968,-197.5 968,-227.5"/>
<text text-anchor="start" x="832" y="-215.5" font-family="Helvetica,sans-Serif" font-size="10.00">IBno08xDriverOps::Enable</text>
<text text-anchor="middle" x="896" y="-204.5" font-family="Helvetica,sans-Serif" font-size="10.00">Sensor</text>
</a>
</g>
</g>
<!-- Node4&#45;&gt;Node5 -->
<g id="edge4_Node000004_Node000005" class="edge">
<title>Node4&#45;&gt;Node5</title>
<g id="a_edge4_Node000004_Node000005"><a xlink:title=" ">
<path fill="none" stroke="#63b8ff" d="M774.73,-212.5C787.52,-212.5 800.82,-212.5 813.71,-212.5"/>
<polygon fill="#63b8ff" stroke="#63b8ff" points="813.95,-216 823.95,-212.5 813.95,-209 813.95,-216"/>
</a>
</g>
</g>
</g>
</svg>
