<?xml version="1.0" encoding="UTF-8" standalone="no"?>
<!DOCTYPE svg PUBLIC "-//W3C//DTD SVG 1.1//EN"
 "http://www.w3.org/Graphics/SVG/1.1/DTD/svg11.dtd">
<!-- Generated by graphviz version 2.43.0 (0)
 -->
<!-- Title: Max22200Handler::~Max22200Handler Pages: 1 -->
<svg width="697pt" height="82pt"
 viewBox="0.00 0.00 697.00 82.00" xmlns="http://www.w3.org/2000/svg" xmlns:xlink="http://www.w3.org/1999/xlink">
<g id="graph0" class="graph" transform="scale(1 1) rotate(0) translate(4 78)">
<title>Max22200Handler::~Max22200Handler</title>
<!-- Node1 -->
<g id="Node000001" class="node">
<title>Node1</title>
<g id="a_Node000001"><a xlink:title=" ">
<polygon fill="#999999" stroke="#666666" points="171,-60.5 0,-60.5 0,-30.5 171,-30.5 171,-60.5"/>
<text text-anchor="start" x="8" y="-48.5" font-family="Helvetica,sans-Serif" font-size="10.00">Max22200Handler::~Max22200</text>
<text text-anchor="middle" x="85.5" y="-37.5" font-family="Helvetica,sans-Serif" font-size="10.00">Handler</text>
</a>
</g>
</g>
<!-- Node2 -->
<g id="Node000002" class="node">
<title>Node2</title>
<g id="a_Node000002"><a xlink:href="classMax22200Handler.html#a96276218d9af520726b43745bcd0f0f5" target="_top" xlink:title="Deinitialize — disable all channels, ACTIVE=0, ENABLE LOW.">
<polygon fill="white" stroke="#666666" points="374,-55 207,-55 207,-36 374,-36 374,-55"/>
<text text-anchor="middle" x="290.5" y="-43" font-family="Helvetica,sans-Serif" font-size="10.00">Max22200Handler::Deinitialize</text>
</a>
</g>
</g>
<!-- Node1&#45;&gt;Node2 -->
<g id="edge1_Node000001_Node000002" class="edge">
<title>Node1&#45;&gt;Node2</title>
<g id="a_edge1_Node000001_Node000002"><a xlink:title=" ">
<path fill="none" stroke="#63b8ff" d="M171.12,-45.5C179.64,-45.5 188.33,-45.5 196.93,-45.5"/>
<polygon fill="#63b8ff" stroke="#63b8ff" points="196.97,-49 206.97,-45.5 196.97,-42 196.97,-49"/>
</a>
</g>
</g>
<!-- Node3 -->
<g id="Node000003" class="node">
<title>Node3</title>
<g id="a_Node000003"><a xlink:href="classLogger.html#a5789d11f8f1356e2192c0023a089cbc4" target="_top" xlink:title="Get singleton instance.">
<polygon fill="white" stroke="#666666" points="524,-74 410,-74 410,-55 524,-55 524,-74"/>
<text text-anchor="middle" x="467" y="-62" font-family="Helvetica,sans-Serif" font-size="10.00">Logger::GetInstance</text>
</a>
</g>
</g>
<!-- Node2&#45;&gt;Node3 -->
<g id="edge2_Node000002_Node000003" class="edge">
<title>Node2&#45;&gt;Node3</title>
<g id="a_edge2_Node000002_Node000003"><a xlink:title=" ">
<path fill="none" stroke="#63b8ff" d="M374.15,-54.5C382.67,-55.43 391.24,-56.36 399.55,-57.27"/>
<polygon fill="#63b8ff" stroke="#63b8ff" points="399.21,-60.75 409.53,-58.35 399.97,-53.79 399.21,-60.75"/>
</a>
</g>
</g>
<!-- Node4 -->
<g id="Node000004" class="node">
<title>Node4</title>
<g id="a_Node000004"><a xlink:href="classLogger.html#a4681229c521795685fc14f6b55c82300" target="_top" xlink:title="Log info message.">
<polygon fill="white" stroke="#666666" points="504,-37 430,-37 430,-18 504,-18 504,-37"/>
<text text-anchor="middle" x="467" y="-25" font-family="Helvetica,sans-Serif" font-size="10.00">Logger::Info</text>
</a>
</g>
</g>
<!-- Node2&#45;&gt;Node4 -->
<g id="edge3_Node000002_Node000004" class="edge">
<title>Node2&#45;&gt;Node4</title>
<g id="a_edge3_Node000002_Node000004"><a xlink:title=" ">
<path fill="none" stroke="#63b8ff" d="M374.15,-36.97C389.73,-35.37 405.51,-33.74 419.5,-32.3"/>
<polygon fill="#63b8ff" stroke="#63b8ff" points="420.21,-35.74 429.8,-31.23 419.5,-28.78 420.21,-35.74"/>
</a>
</g>
</g>
<!-- Node5 -->
<g id="Node000005" class="node">
<title>Node5</title>
<g id="a_Node000005"><a xlink:href="classLogger.html#af9e84e0ff6bd538e4f9ed8dcebc3e2f0" target="_top" xlink:title="Check if log level is enabled for tag.">
<polygon fill="white" stroke="#666666" points="689,-56 560,-56 560,-37 689,-37 689,-56"/>
<text text-anchor="middle" x="624.5" y="-44" font-family="Helvetica,sans-Serif" font-size="10.00">Logger::IsLevelEnabled</text>
</a>
</g>
</g>
<!-- Node4&#45;&gt;Node5 -->
<g id="edge4_Node000004_Node000005" class="edge">
<title>Node4&#45;&gt;Node5</title>
<g id="a_edge4_Node000004_Node000005"><a xlink:title=" ">
<path fill="none" stroke="#63b8ff" d="M504.07,-31.91C517.68,-33.57 533.72,-35.53 549.55,-37.46"/>
<polygon fill="#63b8ff" stroke="#63b8ff" points="549.54,-40.99 559.89,-38.73 550.39,-34.04 549.54,-40.99"/>
</a>
</g>
</g>
<!-- Node6 -->
<g id="Node000006" class="node">
<title>Node6</title>
<g id="a_Node000006"><a xlink:href="classLogger.html#a6adb205db597526fb91ad20067400394" target="_top" xlink:title="Internal logging method.">
<polygon fill="white" stroke="#666666" points="679.5,-19 569.5,-19 569.5,0 679.5,0 679.5,-19"/>
<text text-anchor="middle" x="624.5" y="-7" font-family="Helvetica,sans-Serif" font-size="10.00">Logger::LogInternal</text>
</a>
</g>
</g>
<!-- Node4&#45;&gt;Node6 -->
<g id="edge5_Node000004_Node000006" class="edge">
<title>Node4&#45;&gt;Node6</title>
<g id="a_edge5_Node000004_Node000006"><a xlink:title=" ">
<path fill="none" stroke="#63b8ff" d="M504.07,-23.33C520.49,-21.42 540.44,-19.11 559.3,-16.93"/>
<polygon fill="#63b8ff" stroke="#63b8ff" points="559.8,-20.4 569.33,-15.77 559,-13.44 559.8,-20.4"/>
</a>
</g>
</g>
</g>
</svg>
