<?xml version="1.0" encoding="UTF-8" standalone="no"?>
<!DOCTYPE svg PUBLIC "-//W3C//DTD SVG 1.1//EN"
 "http://www.w3.org/Graphics/SVG/1.1/DTD/svg11.dtd">
<!-- Generated by graphviz version 2.43.0 (0)
 -->
<!-- Title: Tmc9660Handler::gpio Pages: 1 -->
<svg width="1268pt" height="113pt"
 viewBox="0.00 0.00 1268.00 112.50" xmlns="http://www.w3.org/2000/svg" xmlns:xlink="http://www.w3.org/1999/xlink">
<g id="graph0" class="graph" transform="scale(1 1) rotate(0) translate(4 108.5)">
<title>Tmc9660Handler::gpio</title>
<!-- Node1 -->
<g id="Node000001" class="node">
<title>Node1</title>
<g id="a_Node000001"><a xlink:title="Get a reference to the GPIO wrapper for a TMC9660 internal GPIO pin.">
<polygon fill="#999999" stroke="#666666" points="127,-45.5 0,-45.5 0,-26.5 127,-26.5 127,-45.5"/>
<text text-anchor="middle" x="63.5" y="-33.5" font-family="Helvetica,sans-Serif" font-size="10.00">Tmc9660Handler::gpio</text>
</a>
</g>
</g>
<!-- Node2 -->
<g id="Node000002" class="node">
<title>Node2</title>
<g id="a_Node000002"><a xlink:href="classTmc9660Handler.html#a5a279ae9d4b5a8e0d71cb24577ad88ea" target="_top" xlink:title="Ensure driver is initialized (lazy init entrypoint).">
<polygon fill="white" stroke="#666666" points="350,-45.5 163,-45.5 163,-26.5 350,-26.5 350,-45.5"/>
<text text-anchor="middle" x="256.5" y="-33.5" font-family="Helvetica,sans-Serif" font-size="10.00">Tmc9660Handler::EnsureInitialized</text>
</a>
</g>
</g>
<!-- Node1&#45;&gt;Node2 -->
<g id="edge1_Node000001_Node000002" class="edge">
<title>Node1&#45;&gt;Node2</title>
<g id="a_edge1_Node000001_Node000002"><a xlink:title=" ">
<path fill="none" stroke="#63b8ff" d="M127.04,-36C135.25,-36 143.83,-36 152.5,-36"/>
<polygon fill="#63b8ff" stroke="#63b8ff" points="152.69,-39.5 162.69,-36 152.69,-32.5 152.69,-39.5"/>
</a>
</g>
</g>
<!-- Node3 -->
<g id="Node000003" class="node">
<title>Node3</title>
<g id="a_Node000003"><a xlink:href="classTmc9660Handler.html#a7c1d8073576d678b09dac24c9eb12845" target="_top" xlink:title="Ensure initialized while handler_mutex_ is already held.">
<polygon fill="white" stroke="#666666" points="573,-51 386,-51 386,-21 573,-21 573,-51"/>
<text text-anchor="start" x="394" y="-39" font-family="Helvetica,sans-Serif" font-size="10.00">Tmc9660Handler::EnsureInitialized</text>
<text text-anchor="middle" x="479.5" y="-28" font-family="Helvetica,sans-Serif" font-size="10.00">Locked</text>
</a>
</g>
</g>
<!-- Node2&#45;&gt;Node3 -->
<g id="edge2_Node000002_Node000003" class="edge">
<title>Node2&#45;&gt;Node3</title>
<g id="a_edge2_Node000002_Node000003"><a xlink:title=" ">
<path fill="none" stroke="#63b8ff" d="M350.26,-36C358.75,-36 367.39,-36 375.96,-36"/>
<polygon fill="#63b8ff" stroke="#63b8ff" points="375.97,-39.5 385.97,-36 375.97,-32.5 375.97,-39.5"/>
</a>
</g>
</g>
<!-- Node4 -->
<g id="Node000004" class="node">
<title>Node4</title>
<g id="a_Node000004"><a xlink:href="classTmc9660Handler.html#adc564847f8ae26c47412aaee0758991c" target="_top" xlink:title="Initialize the TMC9660 device.">
<polygon fill="white" stroke="#666666" points="757,-67.5 609,-67.5 609,-48.5 757,-48.5 757,-67.5"/>
<text text-anchor="middle" x="683" y="-55.5" font-family="Helvetica,sans-Serif" font-size="10.00">Tmc9660Handler::Initialize</text>
</a>
</g>
</g>
<!-- Node3&#45;&gt;Node4 -->
<g id="edge3_Node000003_Node000004" class="edge">
<title>Node3&#45;&gt;Node4</title>
<g id="a_edge3_Node000003_Node000004"><a xlink:title=" ">
<path fill="none" stroke="#63b8ff" d="M573.29,-46.13C581.73,-47.05 590.25,-47.98 598.61,-48.9"/>
<polygon fill="#63b8ff" stroke="#63b8ff" points="598.38,-52.39 608.7,-50 599.14,-45.43 598.38,-52.39"/>
</a>
</g>
</g>
<!-- Node11 -->
<g id="Node000011" class="node">
<title>Node11</title>
<g id="a_Node000011"><a xlink:href="classTmc9660Handler.html#a13db97d201a287d8aa60384e04070b9f" target="_top" xlink:title="Check if the TMC9660 driver has been initialized and is ready.">
<polygon fill="white" stroke="#666666" points="755,-30 611,-30 611,0 755,0 755,-30"/>
<text text-anchor="start" x="619" y="-18" font-family="Helvetica,sans-Serif" font-size="10.00">Tmc9660Handler::IsDriver</text>
<text text-anchor="middle" x="683" y="-7" font-family="Helvetica,sans-Serif" font-size="10.00">Ready</text>
</a>
</g>
</g>
<!-- Node3&#45;&gt;Node11 -->
<g id="edge12_Node000003_Node000011" class="edge">
<title>Node3&#45;&gt;Node11</title>
<g id="a_edge12_Node000003_Node000011"><a xlink:title=" ">
<path fill="none" stroke="#63b8ff" d="M573.29,-26.33C582.44,-25.38 591.69,-24.41 600.71,-23.47"/>
<polygon fill="#63b8ff" stroke="#63b8ff" points="601.21,-26.94 610.8,-22.42 600.49,-19.98 601.21,-26.94"/>
</a>
</g>
</g>
<!-- Node5 -->
<g id="Node000005" class="node">
<title>Node5</title>
<g id="a_Node000005"><a xlink:href="classLogger.html#adce17848a5844e053bfd314863dc1404" target="_top" xlink:title="Log error message.">
<polygon fill="white" stroke="#666666" points="889.5,-67.5 810.5,-67.5 810.5,-48.5 889.5,-48.5 889.5,-67.5"/>
<text text-anchor="middle" x="850" y="-55.5" font-family="Helvetica,sans-Serif" font-size="10.00">Logger::Error</text>
</a>
</g>
</g>
<!-- Node4&#45;&gt;Node5 -->
<g id="edge4_Node000004_Node000005" class="edge">
<title>Node4&#45;&gt;Node5</title>
<g id="a_edge4_Node000004_Node000005"><a xlink:title=" ">
<path fill="none" stroke="#63b8ff" d="M757.33,-58C771.73,-58 786.5,-58 799.87,-58"/>
<polygon fill="#63b8ff" stroke="#63b8ff" points="800.26,-61.5 810.26,-58 800.26,-54.5 800.26,-61.5"/>
</a>
</g>
</g>
<!-- Node9 -->
<g id="Node000009" class="node">
<title>Node9</title>
<g id="a_Node000009"><a xlink:href="classLogger.html#a5789d11f8f1356e2192c0023a089cbc4" target="_top" xlink:title="Get singleton instance.">
<polygon fill="white" stroke="#666666" points="907,-30.5 793,-30.5 793,-11.5 907,-11.5 907,-30.5"/>
<text text-anchor="middle" x="850" y="-18.5" font-family="Helvetica,sans-Serif" font-size="10.00">Logger::GetInstance</text>
</a>
</g>
</g>
<!-- Node4&#45;&gt;Node9 -->
<g id="edge8_Node000004_Node000009" class="edge">
<title>Node4&#45;&gt;Node9</title>
<g id="a_edge8_Node000004_Node000009"><a xlink:title=" ">
<path fill="none" stroke="#63b8ff" d="M726.49,-48.47C747.87,-43.68 773.97,-37.82 796.58,-32.75"/>
<polygon fill="#63b8ff" stroke="#63b8ff" points="797.37,-36.16 806.37,-30.56 795.84,-29.33 797.37,-36.16"/>
</a>
</g>
</g>
<!-- Node10 -->
<g id="Node000010" class="node">
<title>Node10</title>
<g id="a_Node000010"><a xlink:href="classLogger.html#a4681229c521795685fc14f6b55c82300" target="_top" xlink:title="Log info message.">
<polygon fill="white" stroke="#666666" points="887,-104.5 813,-104.5 813,-85.5 887,-85.5 887,-104.5"/>
<text text-anchor="middle" x="850" y="-92.5" font-family="Helvetica,sans-Serif" font-size="10.00">Logger::Info</text>
</a>
</g>
</g>
<!-- Node4&#45;&gt;Node10 -->
<g id="edge9_Node000004_Node000010" class="edge">
<title>Node4&#45;&gt;Node10</title>
<g id="a_edge9_Node000004_Node000010"><a xlink:title=" ">
<path fill="none" stroke="#63b8ff" d="M726.49,-67.53C749.89,-72.77 778.94,-79.29 802.89,-84.66"/>
<polygon fill="#63b8ff" stroke="#63b8ff" points="802.28,-88.11 812.8,-86.88 803.81,-81.28 802.28,-88.11"/>
</a>
</g>
</g>
<!-- Node6 -->
<g id="Node000006" class="node">
<title>Node6</title>
<g id="a_Node000006"><a xlink:href="classLogger.html#af9e84e0ff6bd538e4f9ed8dcebc3e2f0" target="_top" xlink:title="Check if log level is enabled for tag.">
<polygon fill="white" stroke="#666666" points="1072,-104.5 943,-104.5 943,-85.5 1072,-85.5 1072,-104.5"/>
<text text-anchor="middle" x="1007.5" y="-92.5" font-family="Helvetica,sans-Serif" font-size="10.00">Logger::IsLevelEnabled</text>
</a>
</g>
</g>
<!-- Node5&#45;&gt;Node6 -->
<g id="edge5_Node000005_Node000006" class="edge">
<title>Node5&#45;&gt;Node6</title>
<g id="a_edge5_Node000005_Node000006"><a xlink:title=" ">
<path fill="none" stroke="#63b8ff" d="M889.84,-67.24C910.03,-72.05 934.94,-77.97 956.55,-83.11"/>
<polygon fill="#63b8ff" stroke="#63b8ff" points="956,-86.58 966.53,-85.49 957.62,-79.77 956,-86.58"/>
</a>
</g>
</g>
<!-- Node7 -->
<g id="Node000007" class="node">
<title>Node7</title>
<g id="a_Node000007"><a xlink:href="classLogger.html#a6adb205db597526fb91ad20067400394" target="_top" xlink:title="Internal logging method.">
<polygon fill="white" stroke="#666666" points="1062.5,-67.5 952.5,-67.5 952.5,-48.5 1062.5,-48.5 1062.5,-67.5"/>
<text text-anchor="middle" x="1007.5" y="-55.5" font-family="Helvetica,sans-Serif" font-size="10.00">Logger::LogInternal</text>
</a>
</g>
</g>
<!-- Node5&#45;&gt;Node7 -->
<g id="edge6_Node000005_Node000007" class="edge">
<title>Node5&#45;&gt;Node7</title>
<g id="a_edge6_Node000005_Node000007"><a xlink:title=" ">
<path fill="none" stroke="#63b8ff" d="M889.84,-58C905.63,-58 924.31,-58 942.03,-58"/>
<polygon fill="#63b8ff" stroke="#63b8ff" points="942.33,-61.5 952.33,-58 942.33,-54.5 942.33,-61.5"/>
</a>
</g>
</g>
<!-- Node8 -->
<g id="Node000008" class="node">
<title>Node8</title>
<g id="a_Node000008"><a xlink:href="namespaceanonymous__namespace_02Logger_8cpp_03.html#a9d2b496fa1b4f4e28667d14e4b8cb190" target="_top" xlink:title=" ">
<polygon fill="white" stroke="#666666" points="1260,-73 1108,-73 1108,-43 1260,-43 1260,-73"/>
<text text-anchor="start" x="1116" y="-61" font-family="Helvetica,sans-Serif" font-size="10.00">anonymous_namespace</text>
<text text-anchor="middle" x="1184" y="-50" font-family="Helvetica,sans-Serif" font-size="10.00">{Logger::cpp}::ToBaseLevel</text>
</a>
</g>
</g>
<!-- Node7&#45;&gt;Node8 -->
<g id="edge7_Node000007_Node000008" class="edge">
<title>Node7&#45;&gt;Node8</title>
<g id="a_edge7_Node000007_Node000008"><a xlink:title=" ">
<path fill="none" stroke="#63b8ff" d="M1062.76,-58C1073.93,-58 1085.96,-58 1097.93,-58"/>
<polygon fill="#63b8ff" stroke="#63b8ff" points="1097.95,-61.5 1107.95,-58 1097.95,-54.5 1097.95,-61.5"/>
</a>
</g>
</g>
<!-- Node10&#45;&gt;Node6 -->
<g id="edge10_Node000010_Node000006" class="edge">
<title>Node10&#45;&gt;Node6</title>
<g id="a_edge10_Node000010_Node000006"><a xlink:title=" ">
<path fill="none" stroke="#63b8ff" d="M887.07,-95C900.68,-95 916.72,-95 932.55,-95"/>
<polygon fill="#63b8ff" stroke="#63b8ff" points="932.89,-98.5 942.89,-95 932.89,-91.5 932.89,-98.5"/>
</a>
</g>
</g>
<!-- Node10&#45;&gt;Node7 -->
<g id="edge11_Node000010_Node000007" class="edge">
<title>Node10&#45;&gt;Node7</title>
<g id="a_edge11_Node000010_Node000007"><a xlink:title=" ">
<path fill="none" stroke="#63b8ff" d="M887.07,-86.42C907.78,-81.49 934.09,-75.23 956.74,-69.84"/>
<polygon fill="#63b8ff" stroke="#63b8ff" points="957.61,-73.23 966.53,-67.51 955.99,-66.42 957.61,-73.23"/>
</a>
</g>
</g>
</g>
</svg>
