<?xml version="1.0" encoding="UTF-8" standalone="no"?>
<!DOCTYPE svg PUBLIC "-//W3C//DTD SVG 1.1//EN"
 "http://www.w3.org/Graphics/SVG/1.1/DTD/svg11.dtd">
<!-- Generated by graphviz version 2.43.0 (0)
 -->
<!-- Title: Tmc9660Handler::DisableDriverOutput Pages: 1 -->
<svg width="577pt" height="114pt"
 viewBox="0.00 0.00 577.00 113.50" xmlns="http://www.w3.org/2000/svg" xmlns:xlink="http://www.w3.org/1999/xlink">
<g id="graph0" class="graph" transform="scale(1 1) rotate(0) translate(4 109.5)">
<title>Tmc9660Handler::DisableDriverOutput</title>
<!-- Node1 -->
<g id="Node000001" class="node">
<title>Node1</title>
<g id="a_Node000001"><a xlink:title="De&#45;assert the DRV_EN control pin (disable the TMC9660 power stage hardware).">
<polygon fill="#999999" stroke="#666666" points="173,-62.5 0,-62.5 0,-32.5 173,-32.5 173,-62.5"/>
<text text-anchor="start" x="8" y="-50.5" font-family="Helvetica,sans-Serif" font-size="10.00">Tmc9660Handler::DisableDriver</text>
<text text-anchor="middle" x="86.5" y="-39.5" font-family="Helvetica,sans-Serif" font-size="10.00">Output</text>
</a>
</g>
</g>
<!-- Node2 -->
<g id="Node000002" class="node">
<title>Node2</title>
<g id="a_Node000002"><a xlink:href="classTmc9660Handler.html#a13db97d201a287d8aa60384e04070b9f" target="_top" xlink:title="Check if the TMC9660 driver has been initialized and is ready.">
<polygon fill="white" stroke="#666666" points="359.5,-105.5 215.5,-105.5 215.5,-75.5 359.5,-75.5 359.5,-105.5"/>
<text text-anchor="start" x="223.5" y="-93.5" font-family="Helvetica,sans-Serif" font-size="10.00">Tmc9660Handler::IsDriver</text>
<text text-anchor="middle" x="287.5" y="-82.5" font-family="Helvetica,sans-Serif" font-size="10.00">Ready</text>
</a>
</g>
</g>
<!-- Node1&#45;&gt;Node2 -->
<g id="edge1_Node000001_Node000002" class="edge">
<title>Node1&#45;&gt;Node2</title>
<g id="a_edge1_Node000001_Node000002"><a xlink:title=" ">
<path fill="none" stroke="#63b8ff" d="M157.1,-62.54C173.16,-66.01 190.36,-69.73 206.81,-73.28"/>
<polygon fill="#63b8ff" stroke="#63b8ff" points="206.43,-76.78 216.94,-75.47 207.9,-69.94 206.43,-76.78"/>
</a>
</g>
</g>
<!-- Node3 -->
<g id="Node000003" class="node">
<title>Node3</title>
<g id="a_Node000003"><a xlink:href="classTmc9660Handler.html#a393382194d0602e7aa02da6a8fd7a20a" target="_top" xlink:title="Get a reference to the Temperature wrapper.">
<polygon fill="white" stroke="#666666" points="569,-38 402,-38 402,-19 569,-19 569,-38"/>
<text text-anchor="middle" x="485.5" y="-26" font-family="Helvetica,sans-Serif" font-size="10.00">Tmc9660Handler::temperature</text>
</a>
</g>
</g>
<!-- Node1&#45;&gt;Node3 -->
<g id="edge2_Node000001_Node000003" class="edge">
<title>Node1&#45;&gt;Node3</title>
<g id="a_edge2_Node000001_Node000003"><a xlink:title=" ">
<path fill="none" stroke="#63b8ff" d="M173.15,-43.4C237.55,-40.32 325.67,-36.1 391.73,-32.94"/>
<polygon fill="#63b8ff" stroke="#63b8ff" points="391.9,-36.44 401.72,-32.46 391.56,-29.44 391.9,-36.44"/>
</a>
</g>
</g>
<!-- Node4 -->
<g id="Node000004" class="node">
<title>Node4</title>
<g id="a_Node000004"><a xlink:href="classTmc9660Handler.html#a4360829b58deda85e9da4b9cebee96f0" target="_top" xlink:title="Execute a function on the underlying typed TMC9660 driver.">
<polygon fill="white" stroke="#666666" points="366,-19 209,-19 209,0 366,0 366,-19"/>
<text text-anchor="middle" x="287.5" y="-7" font-family="Helvetica,sans-Serif" font-size="10.00">Tmc9660Handler::visitDriver</text>
</a>
</g>
</g>
<!-- Node1&#45;&gt;Node4 -->
<g id="edge3_Node000001_Node000004" class="edge">
<title>Node1&#45;&gt;Node4</title>
<g id="a_edge3_Node000001_Node000004"><a xlink:title=" ">
<path fill="none" stroke="#63b8ff" d="M166.15,-32.48C186.32,-28.63 207.68,-24.55 226.72,-20.91"/>
<polygon fill="#63b8ff" stroke="#63b8ff" points="227.58,-24.31 236.75,-19 226.27,-17.44 227.58,-24.31"/>
</a>
</g>
</g>
<!-- Node4&#45;&gt;Node3 -->
<g id="edge4_Node000004_Node000003" class="edge">
<title>Node4&#45;&gt;Node3</title>
<g id="a_edge4_Node000004_Node000003"><a xlink:title=" ">
<path fill="none" stroke="#63b8ff" d="M366.25,-17.04C374.62,-17.85 383.2,-18.68 391.73,-19.51"/>
<polygon fill="#63b8ff" stroke="#63b8ff" points="391.4,-22.99 401.7,-20.47 392.08,-16.02 391.4,-22.99"/>
</a>
</g>
</g>
</g>
</svg>
