<?xml version="1.0" encoding="UTF-8" standalone="no"?>
<!DOCTYPE svg PUBLIC "-//W3C//DTD SVG 1.1//EN"
 "http://www.w3.org/Graphics/SVG/1.1/DTD/svg11.dtd">
<!-- Generated by graphviz version 2.43.0 (0)
 -->
<!-- Title: Tmc9660Handler::adc Pages: 1 -->
<svg width="906pt" height="205pt"
 viewBox="0.00 0.00 906.00 204.50" xmlns="http://www.w3.org/2000/svg" xmlns:xlink="http://www.w3.org/1999/xlink">
<g id="graph0" class="graph" transform="scale(1 1) rotate(0) translate(4 200.5)">
<title>Tmc9660Handler::adc</title>
<!-- Node1 -->
<g id="Node000001" class="node">
<title>Node1</title>
<g id="a_Node000001"><a xlink:title="Get a reference to the ADC wrapper.">
<polygon fill="#999999" stroke="#666666" points="123,-141.5 0,-141.5 0,-122.5 123,-122.5 123,-141.5"/>
<text text-anchor="middle" x="61.5" y="-129.5" font-family="Helvetica,sans-Serif" font-size="10.00">Tmc9660Handler::adc</text>
</a>
</g>
</g>
<!-- Node2 -->
<g id="Node000002" class="node">
<title>Node2</title>
<g id="a_Node000002"><a xlink:href="classTmc9660Handler.html#a5a279ae9d4b5a8e0d71cb24577ad88ea" target="_top" xlink:title="Ensure driver is initialized (lazy init entrypoint).">
<polygon fill="white" stroke="#666666" points="346,-122.5 159,-122.5 159,-103.5 346,-103.5 346,-122.5"/>
<text text-anchor="middle" x="252.5" y="-110.5" font-family="Helvetica,sans-Serif" font-size="10.00">Tmc9660Handler::EnsureInitialized</text>
</a>
</g>
</g>
<!-- Node1&#45;&gt;Node2 -->
<g id="edge1_Node000001_Node000002" class="edge">
<title>Node1&#45;&gt;Node2</title>
<g id="a_edge1_Node000001_Node000002"><a xlink:title=" ">
<path fill="none" stroke="#63b8ff" d="M123.08,-125.91C131.4,-125.07 140.12,-124.2 148.93,-123.31"/>
<polygon fill="#63b8ff" stroke="#63b8ff" points="149.3,-126.79 158.9,-122.31 148.6,-119.83 149.3,-126.79"/>
</a>
</g>
</g>
<!-- Node10 -->
<g id="Node000010" class="node">
<title>Node10</title>
<g id="a_Node000010"><a xlink:href="classTmc9660Handler.html#a393382194d0602e7aa02da6a8fd7a20a" target="_top" xlink:title="Get a reference to the Temperature wrapper.">
<polygon fill="white" stroke="#666666" points="733,-178.5 566,-178.5 566,-159.5 733,-159.5 733,-178.5"/>
<text text-anchor="middle" x="649.5" y="-166.5" font-family="Helvetica,sans-Serif" font-size="10.00">Tmc9660Handler::temperature</text>
</a>
</g>
</g>
<!-- Node1&#45;&gt;Node10 -->
<g id="edge15_Node000001_Node000010" class="edge">
<title>Node1&#45;&gt;Node10</title>
<g id="a_edge15_Node000001_Node000010"><a xlink:title=" ">
<path fill="none" stroke="#63b8ff" d="M123.13,-136.72C187.38,-141.63 291.8,-149.38 382,-155 439.77,-158.6 504.61,-162.02 555.88,-164.58"/>
<polygon fill="#63b8ff" stroke="#63b8ff" points="555.78,-168.08 565.94,-165.08 556.13,-161.08 555.78,-168.08"/>
</a>
</g>
</g>
<!-- Node3 -->
<g id="Node000003" class="node">
<title>Node3</title>
<g id="a_Node000003"><a xlink:href="classTmc9660Handler.html#adc564847f8ae26c47412aaee0758991c" target="_top" xlink:title="Initialize the TMC9660 device.">
<polygon fill="white" stroke="#666666" points="530,-103.5 382,-103.5 382,-84.5 530,-84.5 530,-103.5"/>
<text text-anchor="middle" x="456" y="-91.5" font-family="Helvetica,sans-Serif" font-size="10.00">Tmc9660Handler::Initialize</text>
</a>
</g>
</g>
<!-- Node2&#45;&gt;Node3 -->
<g id="edge2_Node000002_Node000003" class="edge">
<title>Node2&#45;&gt;Node3</title>
<g id="a_edge2_Node000002_Node000003"><a xlink:title=" ">
<path fill="none" stroke="#63b8ff" d="M346.29,-104.25C354.73,-103.45 363.25,-102.65 371.61,-101.86"/>
<polygon fill="#63b8ff" stroke="#63b8ff" points="372.08,-105.33 381.7,-100.91 371.42,-98.37 372.08,-105.33"/>
</a>
</g>
</g>
<!-- Node9 -->
<g id="Node000009" class="node">
<title>Node9</title>
<g id="a_Node000009"><a xlink:href="classTmc9660Handler.html#a13db97d201a287d8aa60384e04070b9f" target="_top" xlink:title="Check if the TMC9660 driver has been initialized and is ready.">
<polygon fill="white" stroke="#666666" points="721.5,-30 577.5,-30 577.5,0 721.5,0 721.5,-30"/>
<text text-anchor="start" x="585.5" y="-18" font-family="Helvetica,sans-Serif" font-size="10.00">Tmc9660Handler::IsDriver</text>
<text text-anchor="middle" x="649.5" y="-7" font-family="Helvetica,sans-Serif" font-size="10.00">Ready</text>
</a>
</g>
</g>
<!-- Node2&#45;&gt;Node9 -->
<g id="edge14_Node000002_Node000009" class="edge">
<title>Node2&#45;&gt;Node9</title>
<g id="a_edge14_Node000002_Node000009"><a xlink:title=" ">
<path fill="none" stroke="#63b8ff" d="M283.72,-103.45C309.66,-95.4 348.12,-83.81 382,-75 443.88,-58.9 514.49,-43.12 567.48,-31.79"/>
<polygon fill="#63b8ff" stroke="#63b8ff" points="568.44,-35.16 577.49,-29.65 566.98,-28.31 568.44,-35.16"/>
</a>
</g>
</g>
<!-- Node4 -->
<g id="Node000004" class="node">
<title>Node4</title>
<g id="a_Node000004"><a xlink:href="classLogger.html#a5e4bcdaea60b9ac227b564d780388769" target="_top" xlink:title="Log error message.">
<polygon fill="white" stroke="#666666" points="689,-141.5 610,-141.5 610,-122.5 689,-122.5 689,-141.5"/>
<text text-anchor="middle" x="649.5" y="-129.5" font-family="Helvetica,sans-Serif" font-size="10.00">Logger::Error</text>
</a>
</g>
</g>
<!-- Node3&#45;&gt;Node4 -->
<g id="edge3_Node000003_Node000004" class="edge">
<title>Node3&#45;&gt;Node4</title>
<g id="a_edge3_Node000003_Node000004"><a xlink:title=" ">
<path fill="none" stroke="#63b8ff" d="M505.32,-103.59C534.27,-109.33 570.94,-116.61 599.93,-122.36"/>
<polygon fill="#63b8ff" stroke="#63b8ff" points="599.34,-125.81 609.83,-124.33 600.71,-118.95 599.34,-125.81"/>
</a>
</g>
</g>
<!-- Node7 -->
<g id="Node000007" class="node">
<title>Node7</title>
<g id="a_Node000007"><a xlink:href="classLogger.html#a5789d11f8f1356e2192c0023a089cbc4" target="_top" xlink:title="Get singleton instance.">
<polygon fill="white" stroke="#666666" points="706.5,-104.5 592.5,-104.5 592.5,-85.5 706.5,-85.5 706.5,-104.5"/>
<text text-anchor="middle" x="649.5" y="-92.5" font-family="Helvetica,sans-Serif" font-size="10.00">Logger::GetInstance</text>
</a>
</g>
</g>
<!-- Node3&#45;&gt;Node7 -->
<g id="edge6_Node000003_Node000007" class="edge">
<title>Node3&#45;&gt;Node7</title>
<g id="a_edge6_Node000003_Node000007"><a xlink:title=" ">
<path fill="none" stroke="#63b8ff" d="M530.22,-94.38C547.27,-94.47 565.33,-94.57 582.07,-94.65"/>
<polygon fill="#63b8ff" stroke="#63b8ff" points="582.28,-98.15 592.3,-94.71 582.32,-91.15 582.28,-98.15"/>
</a>
</g>
</g>
<!-- Node8 -->
<g id="Node000008" class="node">
<title>Node8</title>
<g id="a_Node000008"><a xlink:href="classLogger.html#a1c0c947d87884bca0395fd38d19d1102" target="_top" xlink:title="Log info message.">
<polygon fill="white" stroke="#666666" points="686.5,-67.5 612.5,-67.5 612.5,-48.5 686.5,-48.5 686.5,-67.5"/>
<text text-anchor="middle" x="649.5" y="-55.5" font-family="Helvetica,sans-Serif" font-size="10.00">Logger::Info</text>
</a>
</g>
</g>
<!-- Node3&#45;&gt;Node8 -->
<g id="edge7_Node000003_Node000008" class="edge">
<title>Node3&#45;&gt;Node8</title>
<g id="a_edge7_Node000003_Node000008"><a xlink:title=" ">
<path fill="none" stroke="#63b8ff" d="M507.56,-84.49C536.88,-78.98 573.52,-72.1 602.09,-66.72"/>
<polygon fill="#63b8ff" stroke="#63b8ff" points="603.05,-70.11 612.23,-64.82 601.75,-63.23 603.05,-70.11"/>
</a>
</g>
</g>
<!-- Node3&#45;&gt;Node9 -->
<g id="edge10_Node000003_Node000009" class="edge">
<title>Node3&#45;&gt;Node9</title>
<g id="a_edge10_Node000003_Node000009"><a xlink:title=" ">
<path fill="none" stroke="#63b8ff" d="M473.55,-84.44C494.53,-72.6 532.08,-52.36 566,-39 571.12,-36.98 576.47,-35.05 581.89,-33.22"/>
<polygon fill="#63b8ff" stroke="#63b8ff" points="583.25,-36.46 591.67,-30.03 581.08,-29.8 583.25,-36.46"/>
</a>
</g>
</g>
<!-- Node3&#45;&gt;Node10 -->
<g id="edge11_Node000003_Node000010" class="edge">
<title>Node3&#45;&gt;Node10</title>
<g id="a_edge11_Node000003_Node000010"><a xlink:title=" ">
<path fill="none" stroke="#63b8ff" d="M496.21,-103.53C507.54,-107.16 519.64,-111.93 530,-118 548.73,-128.97 546.73,-141.01 566,-151 569.73,-152.94 573.67,-154.66 577.71,-156.21"/>
<polygon fill="#63b8ff" stroke="#63b8ff" points="576.69,-159.56 587.29,-159.48 578.96,-152.93 576.69,-159.56"/>
</a>
</g>
</g>
<!-- Node5 -->
<g id="Node000005" class="node">
<title>Node5</title>
<g id="a_Node000005"><a xlink:href="classLogger.html#a737b981213c02321a5235848334d7191" target="_top" xlink:title="Check if log level is enabled for tag.">
<polygon fill="white" stroke="#666666" points="898,-131.5 769,-131.5 769,-112.5 898,-112.5 898,-131.5"/>
<text text-anchor="middle" x="833.5" y="-119.5" font-family="Helvetica,sans-Serif" font-size="10.00">Logger::IsLevelEnabled</text>
</a>
</g>
</g>
<!-- Node4&#45;&gt;Node5 -->
<g id="edge4_Node000004_Node000005" class="edge">
<title>Node4&#45;&gt;Node5</title>
<g id="a_edge4_Node000004_Node000005"><a xlink:title=" ">
<path fill="none" stroke="#63b8ff" d="M689.1,-129.88C709.37,-128.77 734.9,-127.36 758.78,-126.05"/>
<polygon fill="#63b8ff" stroke="#63b8ff" points="759.1,-129.54 768.89,-125.49 758.72,-122.55 759.1,-129.54"/>
</a>
</g>
</g>
<!-- Node6 -->
<g id="Node000006" class="node">
<title>Node6</title>
<g id="a_Node000006"><a xlink:href="classLogger.html#aeede6ac18db92a47caede076ef188a13" target="_top" xlink:title="Internal logging method.">
<polygon fill="white" stroke="#666666" points="888.5,-85.5 778.5,-85.5 778.5,-66.5 888.5,-66.5 888.5,-85.5"/>
<text text-anchor="middle" x="833.5" y="-73.5" font-family="Helvetica,sans-Serif" font-size="10.00">Logger::LogInternal</text>
</a>
</g>
</g>
<!-- Node4&#45;&gt;Node6 -->
<g id="edge5_Node000004_Node000006" class="edge">
<title>Node4&#45;&gt;Node6</title>
<g id="a_edge5_Node000004_Node000006"><a xlink:title=" ">
<path fill="none" stroke="#63b8ff" d="M689,-124.85C702.98,-121.93 718.81,-118.23 733,-114 756.19,-107.08 781.68,-97.31 801.05,-89.4"/>
<polygon fill="#63b8ff" stroke="#63b8ff" points="802.4,-92.63 810.31,-85.58 799.73,-86.16 802.4,-92.63"/>
</a>
</g>
</g>
<!-- Node8&#45;&gt;Node5 -->
<g id="edge8_Node000008_Node000005" class="edge">
<title>Node8&#45;&gt;Node5</title>
<g id="a_edge8_Node000008_Node000005"><a xlink:title=" ">
<path fill="none" stroke="#63b8ff" d="M686.84,-63.73C701.44,-66.59 718.27,-70.62 733,-76 749.99,-82.21 752.66,-87.23 769,-95 778.74,-99.63 789.48,-104.34 799.31,-108.5"/>
<polygon fill="#63b8ff" stroke="#63b8ff" points="798.19,-111.83 808.77,-112.46 800.89,-105.37 798.19,-111.83"/>
</a>
</g>
</g>
<!-- Node8&#45;&gt;Node6 -->
<g id="edge9_Node000008_Node000006" class="edge">
<title>Node8&#45;&gt;Node6</title>
<g id="a_edge9_Node000008_Node000006"><a xlink:title=" ">
<path fill="none" stroke="#63b8ff" d="M686.89,-61.6C710.07,-63.89 740.75,-66.93 767.97,-69.62"/>
<polygon fill="#63b8ff" stroke="#63b8ff" points="767.92,-73.13 778.21,-70.63 768.61,-66.16 767.92,-73.13"/>
</a>
</g>
</g>
<!-- Node10&#45;&gt;Node2 -->
<g id="edge12_Node000010_Node000002" class="edge">
<title>Node10&#45;&gt;Node2</title>
<g id="a_edge12_Node000010_Node000002"><a xlink:title=" ">
<path fill="none" stroke="#63b8ff" d="M581.32,-159.48C511.98,-149.65 403.92,-134.33 331,-123.99"/>
<polygon fill="#63b8ff" stroke="#63b8ff" points="331.35,-120.5 320.95,-122.56 330.36,-127.43 331.35,-120.5"/>
</a>
</g>
</g>
<!-- Node10&#45;&gt;Node10 -->
<g id="edge13_Node000010_Node000010" class="edge">
<title>Node10&#45;&gt;Node10</title>
<g id="a_edge13_Node000010_Node000010"><a xlink:title=" ">
<path fill="none" stroke="#63b8ff" d="M621.14,-178.58C607.34,-187.23 616.8,-196.5 649.5,-196.5 671.98,-196.5 683.48,-192.12 683.98,-186.57"/>
<polygon fill="#63b8ff" stroke="#63b8ff" points="686.72,-184.39 677.86,-178.58 681.16,-188.65 686.72,-184.39"/>
</a>
</g>
</g>
</g>
</svg>
