<?xml version="1.0" encoding="UTF-8" standalone="no"?>
<!DOCTYPE svg PUBLIC "-//W3C//DTD SVG 1.1//EN"
 "http://www.w3.org/Graphics/SVG/1.1/DTD/svg11.dtd">
<!-- Generated by graphviz version 2.43.0 (0)
 -->
<!-- Title: Tmc9660Handler::driverViaSpi Pages: 1 -->
<svg width="1128pt" height="150pt"
 viewBox="0.00 0.00 1128.00 149.50" xmlns="http://www.w3.org/2000/svg" xmlns:xlink="http://www.w3.org/1999/xlink">
<g id="graph0" class="graph" transform="scale(1 1) rotate(0) translate(4 145.5)">
<title>Tmc9660Handler::driverViaSpi</title>
<!-- Node1 -->
<g id="Node000001" class="node">
<title>Node1</title>
<g id="a_Node000001"><a xlink:title="Const version of driverViaSpi().">
<polygon fill="#999999" stroke="#666666" points="165,-48.5 0,-48.5 0,-29.5 165,-29.5 165,-48.5"/>
<text text-anchor="middle" x="82.5" y="-36.5" font-family="Helvetica,sans-Serif" font-size="10.00">Tmc9660Handler::driverViaSpi</text>
</a>
</g>
</g>
<!-- Node2 -->
<g id="Node000002" class="node">
<title>Node2</title>
<g id="a_Node000002"><a xlink:href="classTmc9660Handler.html#a393382194d0602e7aa02da6a8fd7a20a" target="_top" xlink:title="Get a reference to the Temperature wrapper.">
<polygon fill="white" stroke="#666666" points="368,-48.5 201,-48.5 201,-29.5 368,-29.5 368,-48.5"/>
<text text-anchor="middle" x="284.5" y="-36.5" font-family="Helvetica,sans-Serif" font-size="10.00">Tmc9660Handler::temperature</text>
</a>
</g>
</g>
<!-- Node1&#45;&gt;Node2 -->
<g id="edge1_Node000001_Node000002" class="edge">
<title>Node1&#45;&gt;Node2</title>
<g id="a_edge1_Node000001_Node000002"><a xlink:title=" ">
<path fill="none" stroke="#63b8ff" d="M165.14,-39C173.6,-39 182.24,-39 190.81,-39"/>
<polygon fill="#63b8ff" stroke="#63b8ff" points="190.83,-42.5 200.83,-39 190.83,-35.5 190.83,-42.5"/>
</a>
</g>
</g>
<!-- Node2&#45;&gt;Node2 -->
<g id="edge14_Node000002_Node000002" class="edge">
<title>Node2&#45;&gt;Node2</title>
<g id="a_edge14_Node000002_Node000002"><a xlink:title=" ">
<path fill="none" stroke="#63b8ff" d="M253.37,-48.58C238.22,-57.23 248.6,-66.5 284.5,-66.5 309.74,-66.5 322.37,-61.92 322.37,-56.19"/>
<polygon fill="#63b8ff" stroke="#63b8ff" points="324.89,-53.75 315.63,-48.58 319.65,-58.39 324.89,-53.75"/>
</a>
</g>
</g>
<!-- Node3 -->
<g id="Node000003" class="node">
<title>Node3</title>
<g id="a_Node000003"><a xlink:href="classTmc9660Handler.html#a5a279ae9d4b5a8e0d71cb24577ad88ea" target="_top" xlink:title="Ensure driver is initialized (lazy init entrypoint).">
<polygon fill="white" stroke="#666666" points="591,-29.5 404,-29.5 404,-10.5 591,-10.5 591,-29.5"/>
<text text-anchor="middle" x="497.5" y="-17.5" font-family="Helvetica,sans-Serif" font-size="10.00">Tmc9660Handler::EnsureInitialized</text>
</a>
</g>
</g>
<!-- Node2&#45;&gt;Node3 -->
<g id="edge2_Node000002_Node000003" class="edge">
<title>Node2&#45;&gt;Node3</title>
<g id="a_edge2_Node000002_Node000003"><a xlink:title=" ">
<path fill="none" stroke="#63b8ff" d="M368.29,-31.55C376.67,-30.79 385.25,-30.02 393.81,-29.25"/>
<polygon fill="#63b8ff" stroke="#63b8ff" points="394.18,-32.73 403.83,-28.34 393.56,-25.76 394.18,-32.73"/>
</a>
</g>
</g>
<!-- Node4 -->
<g id="Node000004" class="node">
<title>Node4</title>
<g id="a_Node000004"><a xlink:href="classTmc9660Handler.html#adc564847f8ae26c47412aaee0758991c" target="_top" xlink:title="Initialize the TMC9660 device.">
<polygon fill="white" stroke="#666666" points="775,-67.5 627,-67.5 627,-48.5 775,-48.5 775,-67.5"/>
<text text-anchor="middle" x="701" y="-55.5" font-family="Helvetica,sans-Serif" font-size="10.00">Tmc9660Handler::Initialize</text>
</a>
</g>
</g>
<!-- Node3&#45;&gt;Node4 -->
<g id="edge3_Node000003_Node000004" class="edge">
<title>Node3&#45;&gt;Node4</title>
<g id="a_edge3_Node000003_Node000004"><a xlink:title=" ">
<path fill="none" stroke="#63b8ff" d="M549.09,-29.54C576.51,-34.71 610.6,-41.14 639.43,-46.58"/>
<polygon fill="#63b8ff" stroke="#63b8ff" points="638.92,-50.04 649.39,-48.46 640.21,-43.16 638.92,-50.04"/>
</a>
</g>
</g>
<!-- Node10 -->
<g id="Node000010" class="node">
<title>Node10</title>
<g id="a_Node000010"><a xlink:href="classTmc9660Handler.html#a13db97d201a287d8aa60384e04070b9f" target="_top" xlink:title="Check if the TMC9660 driver has been initialized and is ready.">
<polygon fill="white" stroke="#666666" points="955,-30 811,-30 811,0 955,0 955,-30"/>
<text text-anchor="start" x="819" y="-18" font-family="Helvetica,sans-Serif" font-size="10.00">Tmc9660Handler::IsDriver</text>
<text text-anchor="middle" x="883" y="-7" font-family="Helvetica,sans-Serif" font-size="10.00">Ready</text>
</a>
</g>
</g>
<!-- Node3&#45;&gt;Node10 -->
<g id="edge13_Node000003_Node000010" class="edge">
<title>Node3&#45;&gt;Node10</title>
<g id="a_edge13_Node000003_Node000010"><a xlink:title=" ">
<path fill="none" stroke="#63b8ff" d="M591.33,-18.79C655.28,-17.96 739.42,-16.86 800.72,-16.06"/>
<polygon fill="#63b8ff" stroke="#63b8ff" points="800.78,-19.56 810.73,-15.93 800.69,-12.56 800.78,-19.56"/>
</a>
</g>
</g>
<!-- Node4&#45;&gt;Node2 -->
<g id="edge12_Node000004_Node000002" class="edge">
<title>Node4&#45;&gt;Node2</title>
<g id="a_edge12_Node000004_Node000002"><a xlink:title=" ">
<path fill="none" stroke="#63b8ff" d="M626.97,-54.65C557.87,-51.49 453.85,-46.72 378.78,-43.28"/>
<polygon fill="#63b8ff" stroke="#63b8ff" points="378.53,-39.76 368.38,-42.8 378.21,-46.75 378.53,-39.76"/>
</a>
</g>
</g>
<!-- Node5 -->
<g id="Node000005" class="node">
<title>Node5</title>
<g id="a_Node000005"><a xlink:href="classLogger.html#adce17848a5844e053bfd314863dc1404" target="_top" xlink:title="Log error message.">
<polygon fill="white" stroke="#666666" points="922.5,-141.5 843.5,-141.5 843.5,-122.5 922.5,-122.5 922.5,-141.5"/>
<text text-anchor="middle" x="883" y="-129.5" font-family="Helvetica,sans-Serif" font-size="10.00">Logger::Error</text>
</a>
</g>
</g>
<!-- Node4&#45;&gt;Node5 -->
<g id="edge4_Node000004_Node000005" class="edge">
<title>Node4&#45;&gt;Node5</title>
<g id="a_edge4_Node000004_Node000005"><a xlink:title=" ">
<path fill="none" stroke="#63b8ff" d="M717.73,-67.53C738.46,-79.74 776.37,-100.91 811,-114 818.11,-116.69 825.78,-119.1 833.35,-121.23"/>
<polygon fill="#63b8ff" stroke="#63b8ff" points="832.62,-124.66 843.19,-123.85 834.42,-117.89 832.62,-124.66"/>
</a>
</g>
</g>
<!-- Node8 -->
<g id="Node000008" class="node">
<title>Node8</title>
<g id="a_Node000008"><a xlink:href="classLogger.html#a5789d11f8f1356e2192c0023a089cbc4" target="_top" xlink:title="Get singleton instance.">
<polygon fill="white" stroke="#666666" points="940,-67.5 826,-67.5 826,-48.5 940,-48.5 940,-67.5"/>
<text text-anchor="middle" x="883" y="-55.5" font-family="Helvetica,sans-Serif" font-size="10.00">Logger::GetInstance</text>
</a>
</g>
</g>
<!-- Node4&#45;&gt;Node8 -->
<g id="edge7_Node000004_Node000008" class="edge">
<title>Node4&#45;&gt;Node8</title>
<g id="a_edge7_Node000004_Node000008"><a xlink:title=" ">
<path fill="none" stroke="#63b8ff" d="M775.21,-58C788.58,-58 802.45,-58 815.6,-58"/>
<polygon fill="#63b8ff" stroke="#63b8ff" points="815.97,-61.5 825.97,-58 815.97,-54.5 815.97,-61.5"/>
</a>
</g>
</g>
<!-- Node9 -->
<g id="Node000009" class="node">
<title>Node9</title>
<g id="a_Node000009"><a xlink:href="classLogger.html#a4681229c521795685fc14f6b55c82300" target="_top" xlink:title="Log info message.">
<polygon fill="white" stroke="#666666" points="920,-104.5 846,-104.5 846,-85.5 920,-85.5 920,-104.5"/>
<text text-anchor="middle" x="883" y="-92.5" font-family="Helvetica,sans-Serif" font-size="10.00">Logger::Info</text>
</a>
</g>
</g>
<!-- Node4&#45;&gt;Node9 -->
<g id="edge8_Node000004_Node000009" class="edge">
<title>Node4&#45;&gt;Node9</title>
<g id="a_edge8_Node000004_Node000009"><a xlink:title=" ">
<path fill="none" stroke="#63b8ff" d="M748.35,-67.53C775.23,-73.05 808.96,-79.99 835.81,-85.51"/>
<polygon fill="#63b8ff" stroke="#63b8ff" points="835.24,-88.96 845.74,-87.55 836.65,-82.1 835.24,-88.96"/>
</a>
</g>
</g>
<!-- Node4&#45;&gt;Node10 -->
<g id="edge11_Node000004_Node000010" class="edge">
<title>Node4&#45;&gt;Node10</title>
<g id="a_edge11_Node000004_Node000010"><a xlink:title=" ">
<path fill="none" stroke="#63b8ff" d="M741.95,-48.46C761.8,-43.72 786.4,-37.84 809.43,-32.34"/>
<polygon fill="#63b8ff" stroke="#63b8ff" points="810.27,-35.73 819.18,-30.01 808.64,-28.93 810.27,-35.73"/>
</a>
</g>
</g>
<!-- Node6 -->
<g id="Node000006" class="node">
<title>Node6</title>
<g id="a_Node000006"><a xlink:href="classLogger.html#af9e84e0ff6bd538e4f9ed8dcebc3e2f0" target="_top" xlink:title="Check if log level is enabled for tag.">
<polygon fill="white" stroke="#666666" points="1120,-141.5 991,-141.5 991,-122.5 1120,-122.5 1120,-141.5"/>
<text text-anchor="middle" x="1055.5" y="-129.5" font-family="Helvetica,sans-Serif" font-size="10.00">Logger::IsLevelEnabled</text>
</a>
</g>
</g>
<!-- Node5&#45;&gt;Node6 -->
<g id="edge5_Node000005_Node000006" class="edge">
<title>Node5&#45;&gt;Node6</title>
<g id="a_edge5_Node000005_Node000006"><a xlink:title=" ">
<path fill="none" stroke="#63b8ff" d="M922.69,-132C939.92,-132 960.81,-132 980.83,-132"/>
<polygon fill="#63b8ff" stroke="#63b8ff" points="980.89,-135.5 990.89,-132 980.89,-128.5 980.89,-135.5"/>
</a>
</g>
</g>
<!-- Node7 -->
<g id="Node000007" class="node">
<title>Node7</title>
<g id="a_Node000007"><a xlink:href="classLogger.html#a6adb205db597526fb91ad20067400394" target="_top" xlink:title="Internal logging method.">
<polygon fill="white" stroke="#666666" points="1110.5,-104.5 1000.5,-104.5 1000.5,-85.5 1110.5,-85.5 1110.5,-104.5"/>
<text text-anchor="middle" x="1055.5" y="-92.5" font-family="Helvetica,sans-Serif" font-size="10.00">Logger::LogInternal</text>
</a>
</g>
</g>
<!-- Node5&#45;&gt;Node7 -->
<g id="edge6_Node000005_Node000007" class="edge">
<title>Node5&#45;&gt;Node7</title>
<g id="a_edge6_Node000005_Node000007"><a xlink:title=" ">
<path fill="none" stroke="#63b8ff" d="M922.69,-123.6C945.76,-118.6 975.4,-112.17 1000.72,-106.67"/>
<polygon fill="#63b8ff" stroke="#63b8ff" points="1001.52,-110.08 1010.55,-104.54 1000.04,-103.24 1001.52,-110.08"/>
</a>
</g>
</g>
<!-- Node9&#45;&gt;Node6 -->
<g id="edge9_Node000009_Node000006" class="edge">
<title>Node9&#45;&gt;Node6</title>
<g id="a_edge9_Node000009_Node000006"><a xlink:title=" ">
<path fill="none" stroke="#63b8ff" d="M920.16,-102.85C943.56,-107.93 974.45,-114.63 1000.71,-120.33"/>
<polygon fill="#63b8ff" stroke="#63b8ff" points="1000.01,-123.76 1010.52,-122.46 1001.49,-116.92 1000.01,-123.76"/>
</a>
</g>
</g>
<!-- Node9&#45;&gt;Node7 -->
<g id="edge10_Node000009_Node000007" class="edge">
<title>Node9&#45;&gt;Node7</title>
<g id="a_edge10_Node000009_Node000007"><a xlink:title=" ">
<path fill="none" stroke="#63b8ff" d="M920.16,-95C940.42,-95 966.31,-95 989.93,-95"/>
<polygon fill="#63b8ff" stroke="#63b8ff" points="990.25,-98.5 1000.25,-95 990.25,-91.5 990.25,-98.5"/>
</a>
</g>
</g>
</g>
</svg>
