<?xml version="1.0" encoding="UTF-8" standalone="no"?>
<!DOCTYPE svg PUBLIC "-//W3C//DTD SVG 1.1//EN"
 "http://www.w3.org/Graphics/SVG/1.1/DTD/svg11.dtd">
<!-- Generated by graphviz version 2.43.0 (0)
 -->
<!-- Title: HalSpiTmc9660Comm::delayUs Pages: 1 -->
<svg width="438pt" height="49pt"
 viewBox="0.00 0.00 438.00 49.00" xmlns="http://www.w3.org/2000/svg" xmlns:xlink="http://www.w3.org/1999/xlink">
<g id="graph0" class="graph" transform="scale(1 1) rotate(0) translate(4 45)">
<title>HalSpiTmc9660Comm::delayUs</title>
<!-- Node1 -->
<g id="Node000001" class="node">
<title>Node1</title>
<g id="a_Node000001"><a xlink:title="Delay execution for the specified number of microseconds.">
<polygon fill="#999999" stroke="#666666" points="131,-35.5 0,-35.5 0,-5.5 131,-5.5 131,-35.5"/>
<text text-anchor="start" x="8" y="-23.5" font-family="Helvetica,sans-Serif" font-size="10.00">HalSpiTmc9660Comm::</text>
<text text-anchor="middle" x="65.5" y="-12.5" font-family="Helvetica,sans-Serif" font-size="10.00">delayUs</text>
</a>
</g>
</g>
<!-- Node2 -->
<g id="Node000002" class="node">
<title>Node2</title>
<g id="a_Node000002"><a xlink:href="namespaceanonymous__namespace_02Tmc9660Handler_8cpp_03.html#a642d059aa537be2dbf8fc1ff98b3b591" target="_top" xlink:title=" ">
<polygon fill="white" stroke="#666666" points="302,-41 167,-41 167,0 302,0 302,-41"/>
<text text-anchor="start" x="175" y="-29" font-family="Helvetica,sans-Serif" font-size="10.00">anonymous_namespace</text>
<text text-anchor="start" x="175" y="-18" font-family="Helvetica,sans-Serif" font-size="10.00">{Tmc9660Handler::cpp}</text>
<text text-anchor="middle" x="234.5" y="-7" font-family="Helvetica,sans-Serif" font-size="10.00">::halDelayUs</text>
</a>
</g>
</g>
<!-- Node1&#45;&gt;Node2 -->
<g id="edge1_Node000001_Node000002" class="edge">
<title>Node1&#45;&gt;Node2</title>
<g id="a_edge1_Node000001_Node000002"><a xlink:title=" ">
<path fill="none" stroke="#63b8ff" d="M131.07,-20.5C139.51,-20.5 148.23,-20.5 156.85,-20.5"/>
<polygon fill="#63b8ff" stroke="#63b8ff" points="156.9,-24 166.9,-20.5 156.9,-17 156.9,-24"/>
</a>
</g>
</g>
<!-- Node3 -->
<g id="Node000003" class="node">
<title>Node3</title>
<g id="a_Node000003"><a xlink:href="Tmc5160Handler_8cpp.html#a182f9d10831e181612f23068c3b47597" target="_top" xlink:title=" ">
<polygon fill="white" stroke="#666666" points="430,-30 338,-30 338,-11 430,-11 430,-30"/>
<text text-anchor="middle" x="384" y="-18" font-family="Helvetica,sans-Serif" font-size="10.00">os_delay_msec</text>
</a>
</g>
</g>
<!-- Node2&#45;&gt;Node3 -->
<g id="edge2_Node000002_Node000003" class="edge">
<title>Node2&#45;&gt;Node3</title>
<g id="a_edge2_Node000002_Node000003"><a xlink:title=" ">
<path fill="none" stroke="#63b8ff" d="M302.34,-20.5C310.81,-20.5 319.4,-20.5 327.66,-20.5"/>
<polygon fill="#63b8ff" stroke="#63b8ff" points="327.92,-24 337.92,-20.5 327.92,-17 327.92,-24"/>
</a>
</g>
</g>
</g>
</svg>
