<?xml version="1.0" encoding="UTF-8" standalone="no"?>
<!DOCTYPE svg PUBLIC "-//W3C//DTD SVG 1.1//EN"
 "http://www.w3.org/Graphics/SVG/1.1/DTD/svg11.dtd">
<!-- Generated by graphviz version 2.43.0 (0)
 -->
<!-- Title: NtcTemperatureHandler::SelfTest Pages: 1 -->
<svg width="663pt" height="136pt"
 viewBox="0.00 0.00 663.00 136.00" xmlns="http://www.w3.org/2000/svg" xmlns:xlink="http://www.w3.org/1999/xlink">
<g id="graph0" class="graph" transform="scale(1 1) rotate(0) translate(4 132)">
<title>NtcTemperatureHandler::SelfTest</title>
<!-- Node1 -->
<g id="Node000001" class="node">
<title>Node1</title>
<g id="a_Node000001"><a xlink:title=" ">
<polygon fill="#999999" stroke="#666666" points="133,-85 0,-85 0,-55 133,-55 133,-85"/>
<text text-anchor="start" x="8" y="-73" font-family="Helvetica,sans-Serif" font-size="10.00">NtcTemperatureHandler</text>
<text text-anchor="middle" x="66.5" y="-62" font-family="Helvetica,sans-Serif" font-size="10.00">::SelfTest</text>
</a>
</g>
</g>
<!-- Node2 -->
<g id="Node000002" class="node">
<title>Node2</title>
<g id="a_Node000002"><a xlink:href="classNtcTemperatureHandler.html#af9018fa033d296d30d6420886ad09701" target="_top" xlink:title="Convert NTC error to BaseTemperature error.">
<polygon fill="white" stroke="#666666" points="302,-128 169,-128 169,-98 302,-98 302,-128"/>
<text text-anchor="start" x="177" y="-116" font-family="Helvetica,sans-Serif" font-size="10.00">NtcTemperatureHandler</text>
<text text-anchor="middle" x="235.5" y="-105" font-family="Helvetica,sans-Serif" font-size="10.00">::ConvertNtcError</text>
</a>
</g>
</g>
<!-- Node1&#45;&gt;Node2 -->
<g id="edge1_Node000001_Node000002" class="edge">
<title>Node1&#45;&gt;Node2</title>
<g id="a_edge1_Node000001_Node000002"><a xlink:title=" ">
<path fill="none" stroke="#63b8ff" d="M125.91,-85.04C138.88,-88.38 152.73,-91.95 166.06,-95.38"/>
<polygon fill="#63b8ff" stroke="#63b8ff" points="165.57,-98.87 176.12,-97.97 167.31,-92.09 165.57,-98.87"/>
</a>
</g>
</g>
<!-- Node3 -->
<g id="Node000003" class="node">
<title>Node3</title>
<g id="a_Node000003"><a xlink:href="classLogger.html#a5789d11f8f1356e2192c0023a089cbc4" target="_top" xlink:title="Get singleton instance.">
<polygon fill="white" stroke="#666666" points="292.5,-79.5 178.5,-79.5 178.5,-60.5 292.5,-60.5 292.5,-79.5"/>
<text text-anchor="middle" x="235.5" y="-67.5" font-family="Helvetica,sans-Serif" font-size="10.00">Logger::GetInstance</text>
</a>
</g>
</g>
<!-- Node1&#45;&gt;Node3 -->
<g id="edge2_Node000001_Node000003" class="edge">
<title>Node1&#45;&gt;Node3</title>
<g id="a_edge2_Node000001_Node000003"><a xlink:title=" ">
<path fill="none" stroke="#63b8ff" d="M133.02,-70C144.61,-70 156.69,-70 168.3,-70"/>
<polygon fill="#63b8ff" stroke="#63b8ff" points="168.36,-73.5 178.36,-70 168.36,-66.5 168.36,-73.5"/>
</a>
</g>
</g>
<!-- Node4 -->
<g id="Node000004" class="node">
<title>Node4</title>
<g id="a_Node000004"><a xlink:href="classLogger.html#a4681229c521795685fc14f6b55c82300" target="_top" xlink:title="Log info message.">
<polygon fill="white" stroke="#666666" points="272.5,-42.5 198.5,-42.5 198.5,-23.5 272.5,-23.5 272.5,-42.5"/>
<text text-anchor="middle" x="235.5" y="-30.5" font-family="Helvetica,sans-Serif" font-size="10.00">Logger::Info</text>
</a>
</g>
</g>
<!-- Node1&#45;&gt;Node4 -->
<g id="edge3_Node000001_Node000004" class="edge">
<title>Node1&#45;&gt;Node4</title>
<g id="a_edge3_Node000001_Node000004"><a xlink:title=" ">
<path fill="none" stroke="#63b8ff" d="M133.02,-55.48C151.34,-51.43 170.86,-47.1 187.84,-43.34"/>
<polygon fill="#63b8ff" stroke="#63b8ff" points="189.05,-46.66 198.05,-41.08 187.53,-39.82 189.05,-46.66"/>
</a>
</g>
</g>
<!-- Node5 -->
<g id="Node000005" class="node">
<title>Node5</title>
<g id="a_Node000005"><a xlink:href="classLogger.html#af9e84e0ff6bd538e4f9ed8dcebc3e2f0" target="_top" xlink:title="Check if log level is enabled for tag.">
<polygon fill="white" stroke="#666666" points="467,-61.5 338,-61.5 338,-42.5 467,-42.5 467,-61.5"/>
<text text-anchor="middle" x="402.5" y="-49.5" font-family="Helvetica,sans-Serif" font-size="10.00">Logger::IsLevelEnabled</text>
</a>
</g>
</g>
<!-- Node4&#45;&gt;Node5 -->
<g id="edge4_Node000004_Node000005" class="edge">
<title>Node4&#45;&gt;Node5</title>
<g id="a_edge4_Node000004_Node000005"><a xlink:title=" ">
<path fill="none" stroke="#63b8ff" d="M272.71,-37.17C288.87,-39.03 308.54,-41.3 327.59,-43.49"/>
<polygon fill="#63b8ff" stroke="#63b8ff" points="327.44,-47 337.78,-44.66 328.24,-40.04 327.44,-47"/>
</a>
</g>
</g>
<!-- Node6 -->
<g id="Node000006" class="node">
<title>Node6</title>
<g id="a_Node000006"><a xlink:href="classLogger.html#a6adb205db597526fb91ad20067400394" target="_top" xlink:title="Internal logging method.">
<polygon fill="white" stroke="#666666" points="457.5,-24.5 347.5,-24.5 347.5,-5.5 457.5,-5.5 457.5,-24.5"/>
<text text-anchor="middle" x="402.5" y="-12.5" font-family="Helvetica,sans-Serif" font-size="10.00">Logger::LogInternal</text>
</a>
</g>
</g>
<!-- Node4&#45;&gt;Node6 -->
<g id="edge5_Node000004_Node000006" class="edge">
<title>Node4&#45;&gt;Node6</title>
<g id="a_edge5_Node000004_Node000006"><a xlink:title=" ">
<path fill="none" stroke="#63b8ff" d="M272.71,-29.05C291.55,-27 315.14,-24.42 336.97,-22.04"/>
<polygon fill="#63b8ff" stroke="#63b8ff" points="337.62,-25.49 347.19,-20.93 336.86,-18.53 337.62,-25.49"/>
</a>
</g>
</g>
<!-- Node7 -->
<g id="Node000007" class="node">
<title>Node7</title>
<g id="a_Node000007"><a xlink:href="namespaceanonymous__namespace_02Logger_8cpp_03.html#a9d2b496fa1b4f4e28667d14e4b8cb190" target="_top" xlink:title=" ">
<polygon fill="white" stroke="#666666" points="655,-30 503,-30 503,0 655,0 655,-30"/>
<text text-anchor="start" x="511" y="-18" font-family="Helvetica,sans-Serif" font-size="10.00">anonymous_namespace</text>
<text text-anchor="middle" x="579" y="-7" font-family="Helvetica,sans-Serif" font-size="10.00">{Logger::cpp}::ToBaseLevel</text>
</a>
</g>
</g>
<!-- Node6&#45;&gt;Node7 -->
<g id="edge6_Node000006_Node000007" class="edge">
<title>Node6&#45;&gt;Node7</title>
<g id="a_edge6_Node000006_Node000007"><a xlink:title=" ">
<path fill="none" stroke="#63b8ff" d="M457.76,-15C468.93,-15 480.96,-15 492.93,-15"/>
<polygon fill="#63b8ff" stroke="#63b8ff" points="492.95,-18.5 502.95,-15 492.95,-11.5 492.95,-18.5"/>
</a>
</g>
</g>
</g>
</svg>
