<?xml version="1.0" encoding="UTF-8" standalone="no"?>
<!DOCTYPE svg PUBLIC "-//W3C//DTD SVG 1.1//EN"
 "http://www.w3.org/Graphics/SVG/1.1/DTD/svg11.dtd">
<!-- Generated by graphviz version 2.43.0 (0)
 -->
<!-- Title: Fdo2Handler::EnsureInitialized Pages: 1 -->
<svg width="567pt" height="76pt"
 viewBox="0.00 0.00 567.00 75.50" xmlns="http://www.w3.org/2000/svg" xmlns:xlink="http://www.w3.org/1999/xlink">
<g id="graph0" class="graph" transform="scale(1 1) rotate(0) translate(4 71.5)">
<title>Fdo2Handler::EnsureInitialized</title>
<!-- Node1 -->
<g id="Node000001" class="node">
<title>Node1</title>
<g id="a_Node000001"><a xlink:title="Wait the FDO2&#45;G2 power&#45;up settle (kFdo2G2PowerUpSettleMs) and probe the device with #VERS....">
<polygon fill="#999999" stroke="#666666" points="166,-40 0,-40 0,-21 166,-21 166,-40"/>
<text text-anchor="middle" x="83" y="-28" font-family="Helvetica,sans-Serif" font-size="10.00">Fdo2Handler::EnsureInitialized</text>
</a>
</g>
</g>
<!-- Node2 -->
<g id="Node000002" class="node">
<title>Node2</title>
<g id="a_Node000002"><a xlink:href="classFdo2Handler.html#a78beeff055bbfb7035037778f87998fa" target="_top" xlink:title=" ">
<polygon fill="white" stroke="#666666" points="368,-45.5 202,-45.5 202,-15.5 368,-15.5 368,-45.5"/>
<text text-anchor="start" x="210" y="-33.5" font-family="Helvetica,sans-Serif" font-size="10.00">Fdo2Handler::EnsureInitialized</text>
<text text-anchor="middle" x="285" y="-22.5" font-family="Helvetica,sans-Serif" font-size="10.00">Locked</text>
</a>
</g>
</g>
<!-- Node1&#45;&gt;Node2 -->
<g id="edge1_Node000001_Node000002" class="edge">
<title>Node1&#45;&gt;Node2</title>
<g id="a_edge1_Node000001_Node000002"><a xlink:title=" ">
<path fill="none" stroke="#63b8ff" d="M166.21,-30.5C174.56,-30.5 183.08,-30.5 191.53,-30.5"/>
<polygon fill="#63b8ff" stroke="#63b8ff" points="191.78,-34 201.78,-30.5 191.78,-27 191.78,-34"/>
</a>
</g>
</g>
<!-- Node3 -->
<g id="Node000003" class="node">
<title>Node3</title>
<g id="a_Node000003"><a xlink:href="classHalUartFdo2Comm.html#a5589d7088dcae478e66825f63c6da124" target="_top" xlink:title=" ">
<polygon fill="white" stroke="#666666" points="553,-67.5 410,-67.5 410,-37.5 553,-37.5 553,-67.5"/>
<text text-anchor="start" x="418" y="-55.5" font-family="Helvetica,sans-Serif" font-size="10.00">HalUartFdo2Comm::delay</text>
<text text-anchor="middle" x="481.5" y="-44.5" font-family="Helvetica,sans-Serif" font-size="10.00">_ms_impl</text>
</a>
</g>
</g>
<!-- Node2&#45;&gt;Node3 -->
<g id="edge2_Node000002_Node000003" class="edge">
<title>Node2&#45;&gt;Node3</title>
<g id="a_edge2_Node000002_Node000003"><a xlink:title=" ">
<path fill="none" stroke="#63b8ff" d="M368.2,-39.8C378.73,-40.99 389.5,-42.21 400,-43.39"/>
<polygon fill="#63b8ff" stroke="#63b8ff" points="399.64,-46.88 409.97,-44.52 400.43,-39.92 399.64,-46.88"/>
</a>
</g>
</g>
<!-- Node4 -->
<g id="Node000004" class="node">
<title>Node4</title>
<g id="a_Node000004"><a xlink:href="classHalUartFdo2Comm.html#ae35e65fd7d755ae9179b93af1e295e29" target="_top" xlink:title=" ">
<polygon fill="white" stroke="#666666" points="559,-19 404,-19 404,0 559,0 559,-19"/>
<text text-anchor="middle" x="481.5" y="-7" font-family="Helvetica,sans-Serif" font-size="10.00">HalUartFdo2Comm::flush_rx</text>
</a>
</g>
</g>
<!-- Node2&#45;&gt;Node4 -->
<g id="edge3_Node000002_Node000004" class="edge">
<title>Node2&#45;&gt;Node4</title>
<g id="a_edge3_Node000002_Node000004"><a xlink:title=" ">
<path fill="none" stroke="#63b8ff" d="M368.2,-21.62C376.7,-20.71 385.35,-19.77 393.89,-18.85"/>
<polygon fill="#63b8ff" stroke="#63b8ff" points="394.29,-22.33 403.85,-17.78 393.53,-15.37 394.29,-22.33"/>
</a>
</g>
</g>
</g>
</svg>
