<?xml version="1.0" encoding="UTF-8" standalone="no"?>
<!DOCTYPE svg PUBLIC "-//W3C//DTD SVG 1.1//EN"
 "http://www.w3.org/Graphics/SVG/1.1/DTD/svg11.dtd">
<!-- Generated by graphviz version 2.43.0 (0)
 -->
<!-- Title: Bno08xHandler::Update Pages: 1 -->
<svg width="737pt" height="209pt"
 viewBox="0.00 0.00 737.00 209.00" xmlns="http://www.w3.org/2000/svg" xmlns:xlink="http://www.w3.org/1999/xlink">
<g id="graph0" class="graph" transform="scale(1 1) rotate(0) translate(4 205)">
<title>Bno08xHandler::Update</title>
<!-- Node1 -->
<g id="Node000001" class="node">
<title>Node1</title>
<g id="a_Node000001"><a xlink:title="Update sensor &#45; must be called regularly to pump the SH&#45;2 service loop.">
<polygon fill="#999999" stroke="#666666" points="133,-86 0,-86 0,-67 133,-67 133,-86"/>
<text text-anchor="middle" x="66.5" y="-74" font-family="Helvetica,sans-Serif" font-size="10.00">Bno08xHandler::Update</text>
</a>
</g>
</g>
<!-- Node2 -->
<g id="Node000002" class="node">
<title>Node2</title>
<g id="a_Node000002"><a xlink:href="classBno08xHandler.html#a0479abc034d5417ba7dc524468a5ce82" target="_top" xlink:title="Internal: ensure initialized (assumes mutex is held).">
<polygon fill="white" stroke="#666666" points="348,-163.5 169,-163.5 169,-133.5 348,-133.5 348,-163.5"/>
<text text-anchor="start" x="177" y="-151.5" font-family="Helvetica,sans-Serif" font-size="10.00">Bno08xHandler::ensureInitialized</text>
<text text-anchor="middle" x="258.5" y="-140.5" font-family="Helvetica,sans-Serif" font-size="10.00">Locked</text>
</a>
</g>
</g>
<!-- Node1&#45;&gt;Node2 -->
<g id="edge1_Node000001_Node000002" class="edge">
<title>Node1&#45;&gt;Node2</title>
<g id="a_edge1_Node000001_Node000002"><a xlink:title=" ">
<path fill="none" stroke="#63b8ff" d="M85.42,-86.17C105.38,-96.65 138.82,-113.37 169,-124.5 174.55,-126.55 180.35,-128.5 186.22,-130.36"/>
<polygon fill="#63b8ff" stroke="#63b8ff" points="185.53,-133.81 196.12,-133.37 187.57,-127.11 185.53,-133.81"/>
</a>
</g>
</g>
<!-- Node7 -->
<g id="Node000007" class="node">
<title>Node7</title>
<g id="a_Node000007"><a xlink:href="classIBno08xDriverOps.html#ade5ca399da28b49b2b9b1851cd189ede" target="_top" xlink:title=" ">
<polygon fill="white" stroke="#666666" points="333,-115.5 184,-115.5 184,-85.5 333,-85.5 333,-115.5"/>
<text text-anchor="start" x="192" y="-103.5" font-family="Helvetica,sans-Serif" font-size="10.00">IBno08xDriverOps::GetLast</text>
<text text-anchor="middle" x="258.5" y="-92.5" font-family="Helvetica,sans-Serif" font-size="10.00">Error</text>
</a>
</g>
</g>
<!-- Node1&#45;&gt;Node7 -->
<g id="edge6_Node000001_Node000007" class="edge">
<title>Node1&#45;&gt;Node7</title>
<g id="a_edge6_Node000001_Node000007"><a xlink:title=" ">
<path fill="none" stroke="#63b8ff" d="M133.15,-84.79C146.15,-86.43 159.95,-88.18 173.45,-89.88"/>
<polygon fill="#63b8ff" stroke="#63b8ff" points="173.35,-93.4 183.71,-91.18 174.22,-86.45 173.35,-93.4"/>
</a>
</g>
</g>
<!-- Node8 -->
<g id="Node000008" class="node">
<title>Node8</title>
<g id="a_Node000008"><a xlink:href="classBno08xHandler.html#a6e91ad7cdb2e1bb9a57eb797cf7d8e96" target="_top" xlink:title="Internal: map SH&#45;2 error code to Bno08xError.">
<polygon fill="white" stroke="#666666" points="333,-67.5 184,-67.5 184,-37.5 333,-37.5 333,-67.5"/>
<text text-anchor="start" x="192" y="-55.5" font-family="Helvetica,sans-Serif" font-size="10.00">Bno08xHandler::mapDriver</text>
<text text-anchor="middle" x="258.5" y="-44.5" font-family="Helvetica,sans-Serif" font-size="10.00">Error</text>
</a>
</g>
</g>
<!-- Node1&#45;&gt;Node8 -->
<g id="edge7_Node000001_Node000008" class="edge">
<title>Node1&#45;&gt;Node8</title>
<g id="a_edge7_Node000001_Node000008"><a xlink:title=" ">
<path fill="none" stroke="#63b8ff" d="M133.15,-68.21C146.15,-66.57 159.95,-64.82 173.45,-63.12"/>
<polygon fill="#63b8ff" stroke="#63b8ff" points="174.22,-66.55 183.71,-61.82 173.35,-59.6 174.22,-66.55"/>
</a>
</g>
</g>
<!-- Node9 -->
<g id="Node000009" class="node">
<title>Node9</title>
<g id="a_Node000009"><a xlink:href="classIBno08xDriverOps.html#acf715744d1f45d38c44b6cbe6a2f56a4" target="_top" xlink:title=" ">
<polygon fill="white" stroke="#666666" points="331.5,-19 185.5,-19 185.5,0 331.5,0 331.5,-19"/>
<text text-anchor="middle" x="258.5" y="-7" font-family="Helvetica,sans-Serif" font-size="10.00">IBno08xDriverOps::Update</text>
</a>
</g>
</g>
<!-- Node1&#45;&gt;Node9 -->
<g id="edge8_Node000001_Node000009" class="edge">
<title>Node1&#45;&gt;Node9</title>
<g id="a_edge8_Node000001_Node000009"><a xlink:title=" ">
<path fill="none" stroke="#63b8ff" d="M84.59,-66.92C104.37,-56.19 138.17,-38.94 169,-28.5 176.72,-25.88 184.95,-23.55 193.17,-21.48"/>
<polygon fill="#63b8ff" stroke="#63b8ff" points="194.23,-24.83 203.14,-19.1 192.6,-18.02 194.23,-24.83"/>
</a>
</g>
</g>
<!-- Node3 -->
<g id="Node000003" class="node">
<title>Node3</title>
<g id="a_Node000003"><a xlink:href="classBno08xHandler.html#ac1a1ff0d56324dcc09d9b48ca2e132e6" target="_top" xlink:title="Initialize the BNO08x sensor.">
<polygon fill="white" stroke="#666666" points="524,-158 384,-158 384,-139 524,-139 524,-158"/>
<text text-anchor="middle" x="454" y="-146" font-family="Helvetica,sans-Serif" font-size="10.00">Bno08xHandler::Initialize</text>
</a>
</g>
</g>
<!-- Node2&#45;&gt;Node3 -->
<g id="edge2_Node000002_Node000003" class="edge">
<title>Node2&#45;&gt;Node3</title>
<g id="a_edge2_Node000002_Node000003"><a xlink:title=" ">
<path fill="none" stroke="#63b8ff" d="M348.04,-148.5C356.6,-148.5 365.25,-148.5 373.71,-148.5"/>
<polygon fill="#63b8ff" stroke="#63b8ff" points="373.92,-152 383.92,-148.5 373.92,-145 373.92,-152"/>
</a>
</g>
</g>
<!-- Node4 -->
<g id="Node000004" class="node">
<title>Node4</title>
<g id="a_Node000004"><a xlink:href="classIBno08xDriverOps.html#a0ca90c1a5664ab3eb83f691aff34faa0" target="_top" xlink:title=" ">
<polygon fill="white" stroke="#666666" points="714,-201 575,-201 575,-182 714,-182 714,-201"/>
<text text-anchor="middle" x="644.5" y="-189" font-family="Helvetica,sans-Serif" font-size="10.00">IBno08xDriverOps::Begin</text>
</a>
</g>
</g>
<!-- Node3&#45;&gt;Node4 -->
<g id="edge3_Node000003_Node000004" class="edge">
<title>Node3&#45;&gt;Node4</title>
<g id="a_edge3_Node000003_Node000004"><a xlink:title=" ">
<path fill="none" stroke="#63b8ff" d="M496.64,-158.03C515.92,-162.44 539.13,-167.74 560,-172.5 570.22,-174.83 581.13,-177.32 591.6,-179.7"/>
<polygon fill="#63b8ff" stroke="#63b8ff" points="590.92,-183.13 601.45,-181.94 592.47,-176.31 590.92,-183.13"/>
</a>
</g>
</g>
<!-- Node5 -->
<g id="Node000005" class="node">
<title>Node5</title>
<g id="a_Node000005"><a xlink:href="classIBno08xDriverOps.html#a66418ccb85cd8eb8eea327fa979a2b6a" target="_top" xlink:title=" ">
<polygon fill="white" stroke="#666666" points="723.5,-163.5 565.5,-163.5 565.5,-133.5 723.5,-133.5 723.5,-163.5"/>
<text text-anchor="start" x="573.5" y="-151.5" font-family="Helvetica,sans-Serif" font-size="10.00">IBno08xDriverOps::Hardware</text>
<text text-anchor="middle" x="644.5" y="-140.5" font-family="Helvetica,sans-Serif" font-size="10.00">Reset</text>
</a>
</g>
</g>
<!-- Node3&#45;&gt;Node5 -->
<g id="edge4_Node000003_Node000005" class="edge">
<title>Node3&#45;&gt;Node5</title>
<g id="a_edge4_Node000003_Node000005"><a xlink:title=" ">
<path fill="none" stroke="#63b8ff" d="M524.12,-148.5C534.31,-148.5 544.93,-148.5 555.44,-148.5"/>
<polygon fill="#63b8ff" stroke="#63b8ff" points="555.47,-152 565.47,-148.5 555.47,-145 555.47,-152"/>
</a>
</g>
</g>
<!-- Node6 -->
<g id="Node000006" class="node">
<title>Node6</title>
<g id="a_Node000006"><a xlink:href="classIBno08xDriverOps.html#a04816a487d80027e6d6fe435f651b265" target="_top" xlink:title=" ">
<polygon fill="white" stroke="#666666" points="729,-115 560,-115 560,-96 729,-96 729,-115"/>
<text text-anchor="middle" x="644.5" y="-103" font-family="Helvetica,sans-Serif" font-size="10.00">IBno08xDriverOps::SetCallback</text>
</a>
</g>
</g>
<!-- Node3&#45;&gt;Node6 -->
<g id="edge5_Node000003_Node000006" class="edge">
<title>Node3&#45;&gt;Node6</title>
<g id="a_edge5_Node000003_Node000006"><a xlink:title=" ">
<path fill="none" stroke="#63b8ff" d="M496.64,-138.97C515.92,-134.56 539.13,-129.26 560,-124.5 570.22,-122.17 581.13,-119.68 591.6,-117.3"/>
<polygon fill="#63b8ff" stroke="#63b8ff" points="592.47,-120.69 601.45,-115.06 590.92,-113.87 592.47,-120.69"/>
</a>
</g>
</g>
</g>
</svg>
