<?xml version="1.0" encoding="UTF-8" standalone="no"?>
<!DOCTYPE svg PUBLIC "-//W3C//DTD SVG 1.1//EN"
 "http://www.w3.org/Graphics/SVG/1.1/DTD/svg11.dtd">
<!-- Generated by graphviz version 2.43.0 (0)
 -->
<!-- Title: Bno08xHandler::Update Pages: 1 -->
<svg width="326pt" height="124pt"
 viewBox="0.00 0.00 326.00 123.50" xmlns="http://www.w3.org/2000/svg" xmlns:xlink="http://www.w3.org/1999/xlink">
<g id="graph0" class="graph" transform="scale(1 1) rotate(0) translate(4 119.5)">
<title>Bno08xHandler::Update</title>
<!-- Node1 -->
<g id="Node000001" class="node">
<title>Node1</title>
<g id="a_Node000001"><a xlink:title="Update sensor &#45; must be called regularly to pump the SH&#45;2 service loop.">
<polygon fill="#999999" stroke="#666666" points="133,-62 0,-62 0,-43 133,-43 133,-62"/>
<text text-anchor="middle" x="66.5" y="-50" font-family="Helvetica,sans-Serif" font-size="10.00">Bno08xHandler::Update</text>
</a>
</g>
</g>
<!-- Node2 -->
<g id="Node000002" class="node">
<title>Node2</title>
<g id="a_Node000002"><a xlink:href="classIBno08xDriverOps.html#ade5ca399da28b49b2b9b1851cd189ede" target="_top" xlink:title=" ">
<polygon fill="white" stroke="#666666" points="318,-115.5 169,-115.5 169,-85.5 318,-85.5 318,-115.5"/>
<text text-anchor="start" x="177" y="-103.5" font-family="Helvetica,sans-Serif" font-size="10.00">IBno08xDriverOps::GetLast</text>
<text text-anchor="middle" x="243.5" y="-92.5" font-family="Helvetica,sans-Serif" font-size="10.00">Error</text>
</a>
</g>
</g>
<!-- Node1&#45;&gt;Node2 -->
<g id="edge1_Node000001_Node000002" class="edge">
<title>Node1&#45;&gt;Node2</title>
<g id="a_edge1_Node000001_Node000002"><a xlink:title=" ">
<path fill="none" stroke="#63b8ff" d="M102.49,-62.1C123.98,-67.99 152.17,-75.72 177.62,-82.7"/>
<polygon fill="#63b8ff" stroke="#63b8ff" points="177.01,-86.17 187.58,-85.44 178.86,-79.42 177.01,-86.17"/>
</a>
</g>
</g>
<!-- Node3 -->
<g id="Node000003" class="node">
<title>Node3</title>
<g id="a_Node000003"><a xlink:href="classBno08xHandler.html#a6e91ad7cdb2e1bb9a57eb797cf7d8e96" target="_top" xlink:title="Internal: map SH&#45;2 error code to Bno08xError.">
<polygon fill="white" stroke="#666666" points="318,-67.5 169,-67.5 169,-37.5 318,-37.5 318,-67.5"/>
<text text-anchor="start" x="177" y="-55.5" font-family="Helvetica,sans-Serif" font-size="10.00">Bno08xHandler::mapDriver</text>
<text text-anchor="middle" x="243.5" y="-44.5" font-family="Helvetica,sans-Serif" font-size="10.00">Error</text>
</a>
</g>
</g>
<!-- Node1&#45;&gt;Node3 -->
<g id="edge2_Node000001_Node000003" class="edge">
<title>Node1&#45;&gt;Node3</title>
<g id="a_edge2_Node000001_Node000003"><a xlink:title=" ">
<path fill="none" stroke="#63b8ff" d="M133.16,-52.5C141.53,-52.5 150.18,-52.5 158.78,-52.5"/>
<polygon fill="#63b8ff" stroke="#63b8ff" points="158.83,-56 168.83,-52.5 158.83,-49 158.83,-56"/>
</a>
</g>
</g>
<!-- Node4 -->
<g id="Node000004" class="node">
<title>Node4</title>
<g id="a_Node000004"><a xlink:href="classIBno08xDriverOps.html#acf715744d1f45d38c44b6cbe6a2f56a4" target="_top" xlink:title=" ">
<polygon fill="white" stroke="#666666" points="316.5,-19 170.5,-19 170.5,0 316.5,0 316.5,-19"/>
<text text-anchor="middle" x="243.5" y="-7" font-family="Helvetica,sans-Serif" font-size="10.00">IBno08xDriverOps::Update</text>
</a>
</g>
</g>
<!-- Node1&#45;&gt;Node4 -->
<g id="edge3_Node000001_Node000004" class="edge">
<title>Node1&#45;&gt;Node4</title>
<g id="a_edge3_Node000001_Node000004"><a xlink:title=" ">
<path fill="none" stroke="#63b8ff" d="M106.34,-42.96C132.17,-36.61 166.29,-28.23 193.91,-21.44"/>
<polygon fill="#63b8ff" stroke="#63b8ff" points="194.89,-24.8 203.77,-19.02 193.22,-18 194.89,-24.8"/>
</a>
</g>
</g>
</g>
</svg>
