<?xml version="1.0" encoding="UTF-8" standalone="no"?>
<!DOCTYPE svg PUBLIC "-//W3C//DTD SVG 1.1//EN"
 "http://www.w3.org/Graphics/SVG/1.1/DTD/svg11.dtd">
<!-- Generated by graphviz version 2.43.0 (0)
 -->
<!-- Title: NtcTemperatureHandler::StopContinuousMonitoring Pages: 1 -->
<svg width="525pt" height="113pt"
 viewBox="0.00 0.00 525.00 112.50" xmlns="http://www.w3.org/2000/svg" xmlns:xlink="http://www.w3.org/1999/xlink">
<g id="graph0" class="graph" transform="scale(1 1) rotate(0) translate(4 108.5)">
<title>NtcTemperatureHandler::StopContinuousMonitoring</title>
<!-- Node1 -->
<g id="Node000001" class="node">
<title>Node1</title>
<g id="a_Node000001"><a xlink:title=" ">
<polygon fill="#999999" stroke="#666666" points="152,-73 0,-73 0,-43 152,-43 152,-73"/>
<text text-anchor="start" x="8" y="-61" font-family="Helvetica,sans-Serif" font-size="10.00">NtcTemperatureHandler</text>
<text text-anchor="middle" x="76" y="-50" font-family="Helvetica,sans-Serif" font-size="10.00">::StopContinuousMonitoring</text>
</a>
</g>
</g>
<!-- Node2 -->
<g id="Node000002" class="node">
<title>Node2</title>
<g id="a_Node000002"><a xlink:href="classLogger.html#a5789d11f8f1356e2192c0023a089cbc4" target="_top" xlink:title="Get singleton instance.">
<polygon fill="white" stroke="#666666" points="327,-104.5 213,-104.5 213,-85.5 327,-85.5 327,-104.5"/>
<text text-anchor="middle" x="270" y="-92.5" font-family="Helvetica,sans-Serif" font-size="10.00">Logger::GetInstance</text>
</a>
</g>
</g>
<!-- Node1&#45;&gt;Node2 -->
<g id="edge1_Node000001_Node000002" class="edge">
<title>Node1&#45;&gt;Node2</title>
<g id="a_edge1_Node000001_Node000002"><a xlink:title=" ">
<path fill="none" stroke="#63b8ff" d="M152.06,-72.46C171.14,-76.14 191.38,-80.04 209.56,-83.55"/>
<polygon fill="#63b8ff" stroke="#63b8ff" points="208.95,-86.99 219.43,-85.45 210.27,-80.12 208.95,-86.99"/>
</a>
</g>
</g>
<!-- Node3 -->
<g id="Node000003" class="node">
<title>Node3</title>
<g id="a_Node000003"><a xlink:href="classLogger.html#a4681229c521795685fc14f6b55c82300" target="_top" xlink:title="Log info message.">
<polygon fill="white" stroke="#666666" points="307,-67.5 233,-67.5 233,-48.5 307,-48.5 307,-67.5"/>
<text text-anchor="middle" x="270" y="-55.5" font-family="Helvetica,sans-Serif" font-size="10.00">Logger::Info</text>
</a>
</g>
</g>
<!-- Node1&#45;&gt;Node3 -->
<g id="edge2_Node000001_Node000003" class="edge">
<title>Node1&#45;&gt;Node3</title>
<g id="a_edge2_Node000001_Node000003"><a xlink:title=" ">
<path fill="none" stroke="#63b8ff" d="M152.06,-58C175.92,-58 201.6,-58 222.79,-58"/>
<polygon fill="#63b8ff" stroke="#63b8ff" points="222.81,-61.5 232.81,-58 222.81,-54.5 222.81,-61.5"/>
</a>
</g>
</g>
<!-- Node6 -->
<g id="Node000006" class="node">
<title>Node6</title>
<g id="a_Node000006"><a xlink:href="classNtcTemperatureHandler.html#a0b3fba99650d0b01b1347eae0c86abba" target="_top" xlink:title=" ">
<polygon fill="white" stroke="#666666" points="352,-30 188,-30 188,0 352,0 352,-30"/>
<text text-anchor="start" x="196" y="-18" font-family="Helvetica,sans-Serif" font-size="10.00">NtcTemperatureHandler</text>
<text text-anchor="middle" x="270" y="-7" font-family="Helvetica,sans-Serif" font-size="10.00">::UnregisterMonitoringContext</text>
</a>
</g>
</g>
<!-- Node1&#45;&gt;Node6 -->
<g id="edge5_Node000001_Node000006" class="edge">
<title>Node1&#45;&gt;Node6</title>
<g id="a_edge5_Node000001_Node000006"><a xlink:title=" ">
<path fill="none" stroke="#63b8ff" d="M144.15,-42.96C159.64,-39.49 176.24,-35.77 192.11,-32.22"/>
<polygon fill="#63b8ff" stroke="#63b8ff" points="192.89,-35.63 201.89,-30.03 191.36,-28.8 192.89,-35.63"/>
</a>
</g>
</g>
<!-- Node4 -->
<g id="Node000004" class="node">
<title>Node4</title>
<g id="a_Node000004"><a xlink:href="classLogger.html#af9e84e0ff6bd538e4f9ed8dcebc3e2f0" target="_top" xlink:title="Check if log level is enabled for tag.">
<polygon fill="white" stroke="#666666" points="517,-85.5 388,-85.5 388,-66.5 517,-66.5 517,-85.5"/>
<text text-anchor="middle" x="452.5" y="-73.5" font-family="Helvetica,sans-Serif" font-size="10.00">Logger::IsLevelEnabled</text>
</a>
</g>
</g>
<!-- Node3&#45;&gt;Node4 -->
<g id="edge3_Node000003_Node000004" class="edge">
<title>Node3&#45;&gt;Node4</title>
<g id="a_edge3_Node000003_Node000004"><a xlink:title=" ">
<path fill="none" stroke="#63b8ff" d="M307.09,-61.6C327.35,-63.62 353.38,-66.21 377.75,-68.64"/>
<polygon fill="#63b8ff" stroke="#63b8ff" points="377.41,-72.13 387.7,-69.64 378.1,-65.16 377.41,-72.13"/>
</a>
</g>
</g>
<!-- Node5 -->
<g id="Node000005" class="node">
<title>Node5</title>
<g id="a_Node000005"><a xlink:href="classLogger.html#a6adb205db597526fb91ad20067400394" target="_top" xlink:title="Internal logging method.">
<polygon fill="white" stroke="#666666" points="507.5,-48.5 397.5,-48.5 397.5,-29.5 507.5,-29.5 507.5,-48.5"/>
<text text-anchor="middle" x="452.5" y="-36.5" font-family="Helvetica,sans-Serif" font-size="10.00">Logger::LogInternal</text>
</a>
</g>
</g>
<!-- Node3&#45;&gt;Node5 -->
<g id="edge4_Node000003_Node000005" class="edge">
<title>Node3&#45;&gt;Node5</title>
<g id="a_edge4_Node000003_Node000005"><a xlink:title=" ">
<path fill="none" stroke="#63b8ff" d="M307.09,-54.2C329.99,-51.79 360.27,-48.6 387.18,-45.77"/>
<polygon fill="#63b8ff" stroke="#63b8ff" points="387.73,-49.23 397.31,-44.7 387,-42.27 387.73,-49.23"/>
</a>
</g>
</g>
</g>
</svg>
