<?xml version="1.0" encoding="UTF-8" standalone="no"?>
<!DOCTYPE svg PUBLIC "-//W3C//DTD SVG 1.1//EN"
 "http://www.w3.org/Graphics/SVG/1.1/DTD/svg11.dtd">
<!-- Generated by graphviz version 2.43.0 (0)
 -->
<!-- Title: Max22200Handler::EnsureInitialized Pages: 1 -->
<svg width="935pt" height="138pt"
 viewBox="0.00 0.00 935.00 138.00" xmlns="http://www.w3.org/2000/svg" xmlns:xlink="http://www.w3.org/1999/xlink">
<g id="graph0" class="graph" transform="scale(1 1) rotate(0) translate(4 134)">
<title>Max22200Handler::EnsureInitialized</title>
<!-- Node1 -->
<g id="Node000001" class="node">
<title>Node1</title>
<g id="a_Node000001"><a xlink:title="Ensure driver is initialized (lazy init entrypoint).">
<polygon fill="#999999" stroke="#666666" points="193,-83 0,-83 0,-64 193,-64 193,-83"/>
<text text-anchor="middle" x="96.5" y="-71" font-family="Helvetica,sans-Serif" font-size="10.00">Max22200Handler::EnsureInitialized</text>
</a>
</g>
</g>
<!-- Node2 -->
<g id="Node000002" class="node">
<title>Node2</title>
<g id="a_Node000002"><a xlink:href="classMax22200Handler.html#aa00edacb247660349767fa4521121104" target="_top" xlink:title=" ">
<polygon fill="white" stroke="#666666" points="422,-88.5 229,-88.5 229,-58.5 422,-58.5 422,-88.5"/>
<text text-anchor="start" x="237" y="-76.5" font-family="Helvetica,sans-Serif" font-size="10.00">Max22200Handler::EnsureInitialized</text>
<text text-anchor="middle" x="325.5" y="-65.5" font-family="Helvetica,sans-Serif" font-size="10.00">Locked</text>
</a>
</g>
</g>
<!-- Node1&#45;&gt;Node2 -->
<g id="edge1_Node000001_Node000002" class="edge">
<title>Node1&#45;&gt;Node2</title>
<g id="a_edge1_Node000001_Node000002"><a xlink:title=" ">
<path fill="none" stroke="#63b8ff" d="M193.11,-73.5C201.65,-73.5 210.32,-73.5 218.93,-73.5"/>
<polygon fill="#63b8ff" stroke="#63b8ff" points="219,-77 229,-73.5 219,-70 219,-77"/>
</a>
</g>
</g>
<!-- Node3 -->
<g id="Node000003" class="node">
<title>Node3</title>
<g id="a_Node000003"><a xlink:href="classLogger.html#adce17848a5844e053bfd314863dc1404" target="_top" xlink:title="Log error message.">
<polygon fill="white" stroke="#666666" points="744.5,-130 665.5,-130 665.5,-111 744.5,-111 744.5,-130"/>
<text text-anchor="middle" x="705" y="-118" font-family="Helvetica,sans-Serif" font-size="10.00">Logger::Error</text>
</a>
</g>
</g>
<!-- Node2&#45;&gt;Node3 -->
<g id="edge2_Node000002_Node000003" class="edge">
<title>Node2&#45;&gt;Node3</title>
<g id="a_edge2_Node000002_Node000003"><a xlink:title=" ">
<path fill="none" stroke="#63b8ff" d="M422.33,-87.69C434.34,-89.37 446.45,-91.01 458,-92.5 526.26,-101.31 605.36,-110.06 655.04,-115.37"/>
<polygon fill="#63b8ff" stroke="#63b8ff" points="654.87,-118.87 665.18,-116.45 655.61,-111.91 654.87,-118.87"/>
</a>
</g>
</g>
<!-- Node6 -->
<g id="Node000006" class="node">
<title>Node6</title>
<g id="a_Node000006"><a xlink:href="classLogger.html#a5789d11f8f1356e2192c0023a089cbc4" target="_top" xlink:title="Get singleton instance.">
<polygon fill="white" stroke="#666666" points="762,-19 648,-19 648,0 762,0 762,-19"/>
<text text-anchor="middle" x="705" y="-7" font-family="Helvetica,sans-Serif" font-size="10.00">Logger::GetInstance</text>
</a>
</g>
</g>
<!-- Node2&#45;&gt;Node6 -->
<g id="edge5_Node000002_Node000006" class="edge">
<title>Node2&#45;&gt;Node6</title>
<g id="a_edge5_Node000002_Node000006"><a xlink:title=" ">
<path fill="none" stroke="#63b8ff" d="M415.01,-58.49C483.23,-46.93 576.08,-31.19 637.92,-20.7"/>
<polygon fill="#63b8ff" stroke="#63b8ff" points="638.68,-24.12 647.95,-19 637.51,-17.22 638.68,-24.12"/>
</a>
</g>
</g>
<!-- Node7 -->
<g id="Node000007" class="node">
<title>Node7</title>
<g id="a_Node000007"><a xlink:href="classMax22200Handler.html#a0dce05cd6639a10e52c0f669b72baf52" target="_top" xlink:title="Initialize driver (ENABLE HIGH, read/clear STATUS, set ACTIVE).">
<polygon fill="white" stroke="#666666" points="612,-83 458,-83 458,-64 612,-64 612,-83"/>
<text text-anchor="middle" x="535" y="-71" font-family="Helvetica,sans-Serif" font-size="10.00">Max22200Handler::Initialize</text>
</a>
</g>
</g>
<!-- Node2&#45;&gt;Node7 -->
<g id="edge6_Node000002_Node000007" class="edge">
<title>Node2&#45;&gt;Node7</title>
<g id="a_edge6_Node000002_Node000007"><a xlink:title=" ">
<path fill="none" stroke="#63b8ff" d="M422.05,-73.5C430.6,-73.5 439.22,-73.5 447.68,-73.5"/>
<polygon fill="#63b8ff" stroke="#63b8ff" points="447.9,-77 457.9,-73.5 447.9,-70 447.9,-77"/>
</a>
</g>
</g>
<!-- Node4 -->
<g id="Node000004" class="node">
<title>Node4</title>
<g id="a_Node000004"><a xlink:href="classLogger.html#af9e84e0ff6bd538e4f9ed8dcebc3e2f0" target="_top" xlink:title="Check if log level is enabled for tag.">
<polygon fill="white" stroke="#666666" points="927,-111 798,-111 798,-92 927,-92 927,-111"/>
<text text-anchor="middle" x="862.5" y="-99" font-family="Helvetica,sans-Serif" font-size="10.00">Logger::IsLevelEnabled</text>
</a>
</g>
</g>
<!-- Node3&#45;&gt;Node4 -->
<g id="edge3_Node000003_Node000004" class="edge">
<title>Node3&#45;&gt;Node4</title>
<g id="a_edge3_Node000003_Node000004"><a xlink:title=" ">
<path fill="none" stroke="#63b8ff" d="M744.84,-115.75C757.85,-114.16 772.82,-112.34 787.6,-110.53"/>
<polygon fill="#63b8ff" stroke="#63b8ff" points="788.28,-113.97 797.78,-109.29 787.43,-107.02 788.28,-113.97"/>
</a>
</g>
</g>
<!-- Node5 -->
<g id="Node000005" class="node">
<title>Node5</title>
<g id="a_Node000005"><a xlink:href="classLogger.html#a6adb205db597526fb91ad20067400394" target="_top" xlink:title="Internal logging method.">
<polygon fill="white" stroke="#666666" points="917.5,-74 807.5,-74 807.5,-55 917.5,-55 917.5,-74"/>
<text text-anchor="middle" x="862.5" y="-62" font-family="Helvetica,sans-Serif" font-size="10.00">Logger::LogInternal</text>
</a>
</g>
</g>
<!-- Node3&#45;&gt;Node5 -->
<g id="edge4_Node000003_Node000005" class="edge">
<title>Node3&#45;&gt;Node5</title>
<g id="a_edge4_Node000003_Node000005"><a xlink:title=" ">
<path fill="none" stroke="#63b8ff" d="M738.92,-110.98C746.59,-108.47 754.66,-105.59 762,-102.5 778.68,-95.48 781.25,-90.35 798,-83.5 803.53,-81.24 809.42,-79.12 815.31,-77.16"/>
<polygon fill="#63b8ff" stroke="#63b8ff" points="816.67,-80.41 825.14,-74.05 814.55,-73.73 816.67,-80.41"/>
</a>
</g>
</g>
<!-- Node7&#45;&gt;Node3 -->
<g id="edge7_Node000007_Node000003" class="edge">
<title>Node7&#45;&gt;Node3</title>
<g id="a_edge7_Node000007_Node000003"><a xlink:title=" ">
<path fill="none" stroke="#63b8ff" d="M570,-83.01C595.87,-90.25 631.7,-100.27 659.8,-108.13"/>
<polygon fill="#63b8ff" stroke="#63b8ff" points="659.19,-111.6 669.77,-110.92 661.08,-104.86 659.19,-111.6"/>
</a>
</g>
</g>
<!-- Node7&#45;&gt;Node6 -->
<g id="edge8_Node000007_Node000006" class="edge">
<title>Node7&#45;&gt;Node6</title>
<g id="a_edge8_Node000007_Node000006"><a xlink:title=" ">
<path fill="none" stroke="#63b8ff" d="M557.69,-64C580.11,-54.32 616.21,-39.12 648,-27.5 652.85,-25.73 657.97,-23.95 663.07,-22.25"/>
<polygon fill="#63b8ff" stroke="#63b8ff" points="664.34,-25.51 672.75,-19.06 662.16,-18.86 664.34,-25.51"/>
</a>
</g>
</g>
<!-- Node8 -->
<g id="Node000008" class="node">
<title>Node8</title>
<g id="a_Node000008"><a xlink:href="classLogger.html#a4681229c521795685fc14f6b55c82300" target="_top" xlink:title="Log info message.">
<polygon fill="white" stroke="#666666" points="742,-56 668,-56 668,-37 742,-37 742,-56"/>
<text text-anchor="middle" x="705" y="-44" font-family="Helvetica,sans-Serif" font-size="10.00">Logger::Info</text>
</a>
</g>
</g>
<!-- Node7&#45;&gt;Node8 -->
<g id="edge9_Node000007_Node000008" class="edge">
<title>Node7&#45;&gt;Node8</title>
<g id="a_edge9_Node000007_Node000008"><a xlink:title=" ">
<path fill="none" stroke="#63b8ff" d="M595.23,-63.98C615.73,-60.69 638.39,-57.04 657.7,-53.94"/>
<polygon fill="#63b8ff" stroke="#63b8ff" points="658.44,-57.37 667.75,-52.33 657.32,-50.46 658.44,-57.37"/>
</a>
</g>
</g>
<!-- Node9 -->
<g id="Node000009" class="node">
<title>Node9</title>
<g id="a_Node000009"><a xlink:href="classLogger.html#aaa95ffa14d07a965d4a85bdec82cba26" target="_top" xlink:title="Log warning message.">
<polygon fill="white" stroke="#666666" points="745,-93 665,-93 665,-74 745,-74 745,-93"/>
<text text-anchor="middle" x="705" y="-81" font-family="Helvetica,sans-Serif" font-size="10.00">Logger::Warn</text>
</a>
</g>
</g>
<!-- Node7&#45;&gt;Node9 -->
<g id="edge12_Node000007_Node000009" class="edge">
<title>Node7&#45;&gt;Node9</title>
<g id="a_edge12_Node000007_Node000009"><a xlink:title=" ">
<path fill="none" stroke="#63b8ff" d="M612.14,-78.03C626.52,-78.89 641.22,-79.76 654.52,-80.55"/>
<polygon fill="#63b8ff" stroke="#63b8ff" points="654.66,-84.07 664.85,-81.17 655.08,-77.08 654.66,-84.07"/>
</a>
</g>
</g>
<!-- Node8&#45;&gt;Node4 -->
<g id="edge10_Node000008_Node000004" class="edge">
<title>Node8&#45;&gt;Node4</title>
<g id="a_edge10_Node000008_Node000004"><a xlink:title=" ">
<path fill="none" stroke="#63b8ff" d="M736.51,-56.01C744.86,-58.84 753.85,-62.1 762,-65.5 778.51,-72.39 781.32,-77.03 798,-83.5 803.07,-85.47 808.45,-87.33 813.85,-89.05"/>
<polygon fill="#63b8ff" stroke="#63b8ff" points="812.92,-92.42 823.51,-91.99 814.96,-85.73 812.92,-92.42"/>
</a>
</g>
</g>
<!-- Node8&#45;&gt;Node5 -->
<g id="edge11_Node000008_Node000005" class="edge">
<title>Node8&#45;&gt;Node5</title>
<g id="a_edge11_Node000008_Node000005"><a xlink:title=" ">
<path fill="none" stroke="#63b8ff" d="M742.07,-50.67C758.49,-52.58 778.44,-54.89 797.3,-57.07"/>
<polygon fill="#63b8ff" stroke="#63b8ff" points="797,-60.56 807.33,-58.23 797.8,-53.6 797,-60.56"/>
</a>
</g>
</g>
<!-- Node9&#45;&gt;Node4 -->
<g id="edge13_Node000009_Node000004" class="edge">
<title>Node9&#45;&gt;Node4</title>
<g id="a_edge13_Node000009_Node000004"><a xlink:title=" ">
<path fill="none" stroke="#63b8ff" d="M745.24,-88.04C758.18,-89.54 773.02,-91.26 787.68,-92.95"/>
<polygon fill="#63b8ff" stroke="#63b8ff" points="787.43,-96.45 797.77,-94.12 788.24,-89.5 787.43,-96.45"/>
</a>
</g>
</g>
<!-- Node9&#45;&gt;Node5 -->
<g id="edge14_Node000009_Node000005" class="edge">
<title>Node9&#45;&gt;Node5</title>
<g id="a_edge14_Node000009_Node000005"><a xlink:title=" ">
<path fill="none" stroke="#63b8ff" d="M745.24,-78.71C760.96,-76.78 779.49,-74.52 797.08,-72.37"/>
<polygon fill="#63b8ff" stroke="#63b8ff" points="797.8,-75.81 807.3,-71.12 796.95,-68.86 797.8,-75.81"/>
</a>
</g>
</g>
</g>
</svg>
