<?xml version="1.0" encoding="UTF-8" standalone="no"?>
<!DOCTYPE svg PUBLIC "-//W3C//DTD SVG 1.1//EN"
 "http://www.w3.org/Graphics/SVG/1.1/DTD/svg11.dtd">
<!-- Generated by graphviz version 2.43.0 (0)
 -->
<!-- Title: Tmc9660Handler::Initialize Pages: 1 -->
<svg width="762pt" height="221pt"
 viewBox="0.00 0.00 762.00 221.05" xmlns="http://www.w3.org/2000/svg" xmlns:xlink="http://www.w3.org/1999/xlink">
<g id="graph0" class="graph" transform="scale(1 1) rotate(0) translate(4 217.05)">
<title>Tmc9660Handler::Initialize</title>
<!-- Node1 -->
<g id="Node000001" class="node">
<title>Node1</title>
<g id="a_Node000001"><a xlink:title="Initialize the TMC9660 device.">
<polygon fill="#999999" stroke="#666666" points="148,-120.05 0,-120.05 0,-101.05 148,-101.05 148,-120.05"/>
<text text-anchor="middle" x="74" y="-108.05" font-family="Helvetica,sans-Serif" font-size="10.00">Tmc9660Handler::Initialize</text>
</a>
</g>
</g>
<!-- Node2 -->
<g id="Node000002" class="node">
<title>Node2</title>
<g id="a_Node000002"><a xlink:href="classLogger.html#adce17848a5844e053bfd314863dc1404" target="_top" xlink:title="Log error message.">
<polygon fill="white" stroke="#666666" points="307,-213.05 228,-213.05 228,-194.05 307,-194.05 307,-213.05"/>
<text text-anchor="middle" x="267.5" y="-201.05" font-family="Helvetica,sans-Serif" font-size="10.00">Logger::Error</text>
</a>
</g>
</g>
<!-- Node1&#45;&gt;Node2 -->
<g id="edge1_Node000001_Node000002" class="edge">
<title>Node1&#45;&gt;Node2</title>
<g id="a_edge1_Node000001_Node000002"><a xlink:title=" ">
<path fill="none" stroke="#63b8ff" d="M85.9,-120.24C104.59,-136.33 144.58,-168.48 184,-185.55 194.61,-190.15 206.52,-193.62 217.91,-196.23"/>
<polygon fill="#63b8ff" stroke="#63b8ff" points="217.24,-199.66 227.75,-198.3 218.69,-192.81 217.24,-199.66"/>
</a>
</g>
</g>
<!-- Node5 -->
<g id="Node000005" class="node">
<title>Node5</title>
<g id="a_Node000005"><a xlink:href="classLogger.html#a5789d11f8f1356e2192c0023a089cbc4" target="_top" xlink:title="Get singleton instance.">
<polygon fill="white" stroke="#666666" points="324.5,-139.05 210.5,-139.05 210.5,-120.05 324.5,-120.05 324.5,-139.05"/>
<text text-anchor="middle" x="267.5" y="-127.05" font-family="Helvetica,sans-Serif" font-size="10.00">Logger::GetInstance</text>
</a>
</g>
</g>
<!-- Node1&#45;&gt;Node5 -->
<g id="edge4_Node000001_Node000005" class="edge">
<title>Node1&#45;&gt;Node5</title>
<g id="a_edge4_Node000001_Node000005"><a xlink:title=" ">
<path fill="none" stroke="#63b8ff" d="M148.22,-117.82C165.27,-119.51 183.33,-121.3 200.07,-122.96"/>
<polygon fill="#63b8ff" stroke="#63b8ff" points="200,-126.47 210.3,-123.98 200.69,-119.51 200,-126.47"/>
</a>
</g>
</g>
<!-- Node6 -->
<g id="Node000006" class="node">
<title>Node6</title>
<g id="a_Node000006"><a xlink:href="classLogger.html#a4681229c521795685fc14f6b55c82300" target="_top" xlink:title="Log info message.">
<polygon fill="white" stroke="#666666" points="304.5,-176.05 230.5,-176.05 230.5,-157.05 304.5,-157.05 304.5,-176.05"/>
<text text-anchor="middle" x="267.5" y="-164.05" font-family="Helvetica,sans-Serif" font-size="10.00">Logger::Info</text>
</a>
</g>
</g>
<!-- Node1&#45;&gt;Node6 -->
<g id="edge5_Node000001_Node000006" class="edge">
<title>Node1&#45;&gt;Node6</title>
<g id="a_edge5_Node000001_Node000006"><a xlink:title=" ">
<path fill="none" stroke="#63b8ff" d="M99.84,-120.18C121.75,-128.43 154.68,-140.28 184,-148.55 195.57,-151.82 208.19,-154.84 220,-157.44"/>
<polygon fill="#63b8ff" stroke="#63b8ff" points="219.61,-160.93 230.12,-159.6 221.08,-154.09 219.61,-160.93"/>
</a>
</g>
</g>
<!-- Node7 -->
<g id="Node000007" class="node">
<title>Node7</title>
<g id="a_Node000007"><a xlink:href="classTmc9660Handler.html#a13db97d201a287d8aa60384e04070b9f" target="_top" xlink:title="Check if the TMC9660 driver has been initialized and is ready.">
<polygon fill="white" stroke="#666666" points="754,-78.55 610,-78.55 610,-48.55 754,-48.55 754,-78.55"/>
<text text-anchor="start" x="618" y="-66.55" font-family="Helvetica,sans-Serif" font-size="10.00">Tmc9660Handler::IsDriver</text>
<text text-anchor="middle" x="682" y="-55.55" font-family="Helvetica,sans-Serif" font-size="10.00">Ready</text>
</a>
</g>
</g>
<!-- Node1&#45;&gt;Node7 -->
<g id="edge8_Node000001_Node000007" class="edge">
<title>Node1&#45;&gt;Node7</title>
<g id="a_edge8_Node000001_Node000007"><a xlink:title=" ">
<path fill="none" stroke="#63b8ff" d="M148.1,-104.88C262.04,-96.05 481.2,-79.05 599.88,-69.85"/>
<polygon fill="#63b8ff" stroke="#63b8ff" points="600.29,-73.32 609.99,-69.06 599.75,-66.34 600.29,-73.32"/>
</a>
</g>
</g>
<!-- Node8 -->
<g id="Node000008" class="node">
<title>Node8</title>
<g id="a_Node000008"><a xlink:href="classTmc9660Handler.html#a393382194d0602e7aa02da6a8fd7a20a" target="_top" xlink:title="Get a reference to the Temperature wrapper.">
<polygon fill="white" stroke="#666666" points="351,-45.05 184,-45.05 184,-26.05 351,-26.05 351,-45.05"/>
<text text-anchor="middle" x="267.5" y="-33.05" font-family="Helvetica,sans-Serif" font-size="10.00">Tmc9660Handler::temperature</text>
</a>
</g>
</g>
<!-- Node1&#45;&gt;Node8 -->
<g id="edge9_Node000001_Node000008" class="edge">
<title>Node1&#45;&gt;Node8</title>
<g id="a_edge9_Node000001_Node000008"><a xlink:title=" ">
<path fill="none" stroke="#63b8ff" d="M99.64,-100.9C133.4,-87.68 194.16,-63.89 232.3,-48.95"/>
<polygon fill="#63b8ff" stroke="#63b8ff" points="233.92,-52.07 241.95,-45.17 231.36,-45.56 233.92,-52.07"/>
</a>
</g>
</g>
<!-- Node3 -->
<g id="Node000003" class="node">
<title>Node3</title>
<g id="a_Node000003"><a xlink:href="classLogger.html#af9e84e0ff6bd538e4f9ed8dcebc3e2f0" target="_top" xlink:title="Check if log level is enabled for tag.">
<polygon fill="white" stroke="#666666" points="545,-213.05 416,-213.05 416,-194.05 545,-194.05 545,-213.05"/>
<text text-anchor="middle" x="480.5" y="-201.05" font-family="Helvetica,sans-Serif" font-size="10.00">Logger::IsLevelEnabled</text>
</a>
</g>
</g>
<!-- Node2&#45;&gt;Node3 -->
<g id="edge2_Node000002_Node000003" class="edge">
<title>Node2&#45;&gt;Node3</title>
<g id="a_edge2_Node000002_Node000003"><a xlink:title=" ">
<path fill="none" stroke="#63b8ff" d="M307.2,-203.55C334.69,-203.55 372.47,-203.55 405.65,-203.55"/>
<polygon fill="#63b8ff" stroke="#63b8ff" points="405.78,-207.05 415.78,-203.55 405.78,-200.05 405.78,-207.05"/>
</a>
</g>
</g>
<!-- Node4 -->
<g id="Node000004" class="node">
<title>Node4</title>
<g id="a_Node000004"><a xlink:href="classLogger.html#a6adb205db597526fb91ad20067400394" target="_top" xlink:title="Internal logging method.">
<polygon fill="white" stroke="#666666" points="535.5,-176.05 425.5,-176.05 425.5,-157.05 535.5,-157.05 535.5,-176.05"/>
<text text-anchor="middle" x="480.5" y="-164.05" font-family="Helvetica,sans-Serif" font-size="10.00">Logger::LogInternal</text>
</a>
</g>
</g>
<!-- Node2&#45;&gt;Node4 -->
<g id="edge3_Node000002_Node000004" class="edge">
<title>Node2&#45;&gt;Node4</title>
<g id="a_edge3_Node000002_Node000004"><a xlink:title=" ">
<path fill="none" stroke="#63b8ff" d="M307.2,-196.77C337.3,-191.49 379.73,-184.05 414.95,-177.87"/>
<polygon fill="#63b8ff" stroke="#63b8ff" points="415.91,-181.26 425.15,-176.08 414.7,-174.36 415.91,-181.26"/>
</a>
</g>
</g>
<!-- Node6&#45;&gt;Node3 -->
<g id="edge6_Node000006_Node000003" class="edge">
<title>Node6&#45;&gt;Node3</title>
<g id="a_edge6_Node000006_Node000003"><a xlink:title=" ">
<path fill="none" stroke="#63b8ff" d="M304.77,-172.91C335.04,-178.22 378.91,-185.91 415.12,-192.26"/>
<polygon fill="#63b8ff" stroke="#63b8ff" points="414.66,-195.74 425.11,-194.02 415.87,-188.84 414.66,-195.74"/>
</a>
</g>
</g>
<!-- Node6&#45;&gt;Node4 -->
<g id="edge7_Node000006_Node000004" class="edge">
<title>Node6&#45;&gt;Node4</title>
<g id="a_edge7_Node000006_Node000004"><a xlink:title=" ">
<path fill="none" stroke="#63b8ff" d="M304.77,-166.55C334.91,-166.55 378.53,-166.55 414.65,-166.55"/>
<polygon fill="#63b8ff" stroke="#63b8ff" points="415.11,-170.05 425.11,-166.55 415.11,-163.05 415.11,-170.05"/>
</a>
</g>
</g>
<!-- Node8&#45;&gt;Node8 -->
<g id="edge13_Node000008_Node000008" class="edge">
<title>Node8&#45;&gt;Node8</title>
<g id="a_edge13_Node000008_Node000008"><a xlink:title=" ">
<path fill="none" stroke="#63b8ff" d="M237.91,-45.14C223.51,-53.79 233.38,-63.05 267.5,-63.05 290.96,-63.05 302.95,-58.67 303.48,-53.13"/>
<polygon fill="#63b8ff" stroke="#63b8ff" points="306.07,-50.76 297.09,-45.14 300.61,-55.13 306.07,-50.76"/>
</a>
</g>
</g>
<!-- Node9 -->
<g id="Node000009" class="node">
<title>Node9</title>
<g id="a_Node000009"><a xlink:href="classTmc9660Handler.html#a5a279ae9d4b5a8e0d71cb24577ad88ea" target="_top" xlink:title="Ensure driver is initialized (lazy init entrypoint).">
<polygon fill="white" stroke="#666666" points="574,-45.05 387,-45.05 387,-26.05 574,-26.05 574,-45.05"/>
<text text-anchor="middle" x="480.5" y="-33.05" font-family="Helvetica,sans-Serif" font-size="10.00">Tmc9660Handler::EnsureInitialized</text>
</a>
</g>
</g>
<!-- Node8&#45;&gt;Node9 -->
<g id="edge10_Node000008_Node000009" class="edge">
<title>Node8&#45;&gt;Node9</title>
<g id="a_edge10_Node000008_Node000009"><a xlink:title=" ">
<path fill="none" stroke="#63b8ff" d="M351.29,-35.55C359.67,-35.55 368.25,-35.55 376.81,-35.55"/>
<polygon fill="#63b8ff" stroke="#63b8ff" points="376.83,-39.05 386.83,-35.55 376.83,-32.05 376.83,-39.05"/>
</a>
</g>
</g>
<!-- Node9&#45;&gt;Node1 -->
<g id="edge11_Node000009_Node000001" class="edge">
<title>Node9&#45;&gt;Node1</title>
<g id="a_edge11_Node000009_Node000001"><a xlink:title=" ">
<path fill="none" stroke="#63b8ff" d="M450.25,-26.01C395.85,-9.9 276.28,17.74 184,-16.55 142.88,-31.84 106.89,-70.37 88.34,-93.07"/>
<polygon fill="#63b8ff" stroke="#63b8ff" points="85.59,-90.91 82.11,-100.92 91.07,-95.27 85.59,-90.91"/>
</a>
</g>
</g>
<!-- Node9&#45;&gt;Node7 -->
<g id="edge12_Node000009_Node000007" class="edge">
<title>Node9&#45;&gt;Node7</title>
<g id="a_edge12_Node000009_Node000007"><a xlink:title=" ">
<path fill="none" stroke="#63b8ff" d="M549.32,-45.07C565.5,-47.34 582.94,-49.79 599.66,-52.14"/>
<polygon fill="#63b8ff" stroke="#63b8ff" points="599.57,-55.66 609.96,-53.58 600.55,-48.73 599.57,-55.66"/>
</a>
</g>
</g>
</g>
</svg>
