<?xml version="1.0" encoding="UTF-8" standalone="no"?>
<!DOCTYPE svg PUBLIC "-//W3C//DTD SVG 1.1//EN"
 "http://www.w3.org/Graphics/SVG/1.1/DTD/svg11.dtd">
<!-- Generated by graphviz version 2.43.0 (0)
 -->
<!-- Title: Logger::Error Pages: 1 -->
<svg width="457pt" height="544pt"
 viewBox="0.00 0.00 457.00 544.00" xmlns="http://www.w3.org/2000/svg" xmlns:xlink="http://www.w3.org/1999/xlink">
<g id="graph0" class="graph" transform="scale(1 1) rotate(0) translate(4 540)">
<title>Logger::Error</title>
<!-- Node1 -->
<g id="Node000001" class="node">
<title>Node1</title>
<g id="a_Node000001"><a xlink:title="Log error message.">
<polygon fill="#999999" stroke="#666666" points="449,-259.5 370,-259.5 370,-240.5 449,-240.5 449,-259.5"/>
<text text-anchor="middle" x="409.5" y="-247.5" font-family="Helvetica,sans-Serif" font-size="10.00">Logger::Error</text>
</a>
</g>
</g>
<!-- Node2 -->
<g id="Node000002" class="node">
<title>Node2</title>
<g id="a_Node000002"><a xlink:href="namespaceanonymous__namespace_02Tmc9660Handler_8cpp_03.html#a9645e5797d8ff9813283015d244ec066" target="_top" xlink:title=" ">
<polygon fill="white" stroke="#666666" points="318,-517.5 183,-517.5 183,-476.5 318,-476.5 318,-517.5"/>
<text text-anchor="start" x="191" y="-505.5" font-family="Helvetica,sans-Serif" font-size="10.00">anonymous_namespace</text>
<text text-anchor="start" x="191" y="-494.5" font-family="Helvetica,sans-Serif" font-size="10.00">{Tmc9660Handler::cpp}</text>
<text text-anchor="middle" x="250.5" y="-483.5" font-family="Helvetica,sans-Serif" font-size="10.00">::halDebugLog</text>
</a>
</g>
</g>
<!-- Node1&#45;&gt;Node2 -->
<g id="edge1_Node000001_Node000002" class="edge">
<title>Node1&#45;&gt;Node2</title>
<g id="a_edge1_Node000001_Node000002"><a xlink:title=" ">
<path fill="none" stroke="#63b8ff" d="M407.26,-269.79C403.59,-311.83 389.22,-410.77 334,-467 329.41,-471.68 324.03,-475.63 318.26,-478.97"/>
<polygon fill="#63b8ff" stroke="#63b8ff" points="410.76,-269.98 408.03,-259.74 403.78,-269.45 410.76,-269.98"/>
</a>
</g>
</g>
<!-- Node5 -->
<g id="Node000005" class="node">
<title>Node5</title>
<g id="a_Node000005"><a xlink:href="classMax22200Handler.html#ad6c72b45a96c36cd1b450f5e330fad25" target="_top" xlink:title="Initialize driver (ENABLE HIGH, read/clear STATUS, set ACTIVE).">
<polygon fill="white" stroke="#666666" points="327.5,-458.5 173.5,-458.5 173.5,-439.5 327.5,-439.5 327.5,-458.5"/>
<text text-anchor="middle" x="250.5" y="-446.5" font-family="Helvetica,sans-Serif" font-size="10.00">Max22200Handler::Initialize</text>
</a>
</g>
</g>
<!-- Node1&#45;&gt;Node5 -->
<g id="edge4_Node000001_Node000005" class="edge">
<title>Node1&#45;&gt;Node5</title>
<g id="a_edge4_Node000001_Node000005"><a xlink:title=" ">
<path fill="none" stroke="#63b8ff" d="M406.24,-269.66C400.87,-306.91 383.83,-387.82 334,-430 329.51,-433.8 324.41,-436.87 319,-439.36"/>
<polygon fill="#63b8ff" stroke="#63b8ff" points="409.73,-269.96 407.55,-259.59 402.79,-269.05 409.73,-269.96"/>
</a>
</g>
</g>
<!-- Node6 -->
<g id="Node000006" class="node">
<title>Node6</title>
<g id="a_Node000006"><a xlink:href="classTle92466edHandler.html#a0883f87dfe49cce3abd5acfc8cb2176c" target="_top" xlink:title="Initialize driver (hardware reset + SPI init + enter config mode).">
<polygon fill="white" stroke="#666666" points="309.5,-421 191.5,-421 191.5,-391 309.5,-391 309.5,-421"/>
<text text-anchor="start" x="199.5" y="-409" font-family="Helvetica,sans-Serif" font-size="10.00">Tle92466edHandler::</text>
<text text-anchor="middle" x="250.5" y="-398" font-family="Helvetica,sans-Serif" font-size="10.00">Initialize</text>
</a>
</g>
</g>
<!-- Node1&#45;&gt;Node6 -->
<g id="edge5_Node000001_Node000006" class="edge">
<title>Node1&#45;&gt;Node6</title>
<g id="a_edge5_Node000001_Node000006"><a xlink:title=" ">
<path fill="none" stroke="#63b8ff" d="M402.72,-269.17C393.11,-297.74 371.16,-351.32 334,-381 326.87,-386.7 318.45,-391.1 309.76,-394.5"/>
<polygon fill="#63b8ff" stroke="#63b8ff" points="406.08,-270.13 405.8,-259.54 399.41,-268 406.08,-270.13"/>
</a>
</g>
</g>
<!-- Node7 -->
<g id="Node000007" class="node">
<title>Node7</title>
<g id="a_Node000007"><a xlink:href="classWs2812Handler.html#a172ae173d1e2bd93c9808452aad6e4cd" target="_top" xlink:title="Initialize the RMT channel and LED strip.">
<polygon fill="white" stroke="#666666" points="321.5,-372.5 179.5,-372.5 179.5,-353.5 321.5,-353.5 321.5,-372.5"/>
<text text-anchor="middle" x="250.5" y="-360.5" font-family="Helvetica,sans-Serif" font-size="10.00">Ws2812Handler::Initialize</text>
</a>
</g>
</g>
<!-- Node1&#45;&gt;Node7 -->
<g id="edge6_Node000001_Node000007" class="edge">
<title>Node1&#45;&gt;Node7</title>
<g id="a_edge6_Node000001_Node000007"><a xlink:title=" ">
<path fill="none" stroke="#63b8ff" d="M398.87,-268.64C386.72,-290.22 363.77,-325.19 334,-344 327.91,-347.85 321.13,-350.92 314.15,-353.37"/>
<polygon fill="#63b8ff" stroke="#63b8ff" points="401.98,-270.23 403.67,-259.77 395.83,-266.9 401.98,-270.23"/>
</a>
</g>
</g>
<!-- Node8 -->
<g id="Node000008" class="node">
<title>Node8</title>
<g id="a_Node000008"><a xlink:href="classNtcTemperatureHandler.html#a97fa93b2ed6337e24e056b46fbe331c7" target="_top" xlink:title=" ">
<polygon fill="white" stroke="#666666" points="317,-335 184,-335 184,-305 317,-305 317,-335"/>
<text text-anchor="start" x="192" y="-323" font-family="Helvetica,sans-Serif" font-size="10.00">NtcTemperatureHandler</text>
<text text-anchor="middle" x="250.5" y="-312" font-family="Helvetica,sans-Serif" font-size="10.00">::Initialize</text>
</a>
</g>
</g>
<!-- Node1&#45;&gt;Node8 -->
<g id="edge7_Node000001_Node000008" class="edge">
<title>Node1&#45;&gt;Node8</title>
<g id="a_edge7_Node000001_Node000008"><a xlink:title=" ">
<path fill="none" stroke="#63b8ff" d="M387.13,-265.35C372.68,-275.18 352.87,-287.62 334,-296 326.64,-299.27 318.71,-302.23 310.79,-304.86"/>
<polygon fill="#63b8ff" stroke="#63b8ff" points="389.16,-268.21 395.38,-259.63 385.17,-262.46 389.16,-268.21"/>
</a>
</g>
</g>
<!-- Node9 -->
<g id="Node000009" class="node">
<title>Node9</title>
<g id="a_Node000009"><a xlink:href="classTmc9660Handler_1_1Temperature.html#a8019acd874c13ba0e175224a367bf370" target="_top" xlink:title="Initialize (verifies parent driver is ready).">
<polygon fill="white" stroke="#666666" points="334,-287 167,-287 167,-257 334,-257 334,-287"/>
<text text-anchor="start" x="175" y="-275" font-family="Helvetica,sans-Serif" font-size="10.00">Tmc9660Handler::Temperature</text>
<text text-anchor="middle" x="250.5" y="-264" font-family="Helvetica,sans-Serif" font-size="10.00">::Initialize</text>
</a>
</g>
</g>
<!-- Node1&#45;&gt;Node9 -->
<g id="edge8_Node000001_Node000009" class="edge">
<title>Node1&#45;&gt;Node9</title>
<g id="a_edge8_Node000001_Node000009"><a xlink:title=" ">
<path fill="none" stroke="#63b8ff" d="M359.65,-256.84C351.49,-257.99 342.83,-259.2 334.09,-260.43"/>
<polygon fill="#63b8ff" stroke="#63b8ff" points="360.27,-260.29 369.69,-255.44 359.3,-253.36 360.27,-260.29"/>
</a>
</g>
</g>
<!-- Node10 -->
<g id="Node000010" class="node">
<title>Node10</title>
<g id="a_Node000010"><a xlink:href="classTmc9660Handler.html#adc564847f8ae26c47412aaee0758991c" target="_top" xlink:title="Initialize the TMC9660 device.">
<polygon fill="white" stroke="#666666" points="324.5,-238.5 176.5,-238.5 176.5,-219.5 324.5,-219.5 324.5,-238.5"/>
<text text-anchor="middle" x="250.5" y="-226.5" font-family="Helvetica,sans-Serif" font-size="10.00">Tmc9660Handler::Initialize</text>
</a>
</g>
</g>
<!-- Node1&#45;&gt;Node10 -->
<g id="edge9_Node000001_Node000010" class="edge">
<title>Node1&#45;&gt;Node10</title>
<g id="a_edge9_Node000001_Node000010"><a xlink:title=" ">
<path fill="none" stroke="#63b8ff" d="M359.67,-243.47C347.92,-241.9 335.14,-240.19 322.61,-238.51"/>
<polygon fill="#63b8ff" stroke="#63b8ff" points="359.32,-246.95 369.69,-244.81 360.24,-240.01 359.32,-246.95"/>
</a>
</g>
</g>
<!-- Node11 -->
<g id="Node000011" class="node">
<title>Node11</title>
<g id="a_Node000011"><a xlink:href="classMax22200Handler.html#a4a87c1be18b3b4fb6055bccd6df7da9f" target="_top" xlink:title="Initialize with board configuration.">
<polygon fill="white" stroke="#666666" points="327.5,-201.5 173.5,-201.5 173.5,-182.5 327.5,-182.5 327.5,-201.5"/>
<text text-anchor="middle" x="250.5" y="-189.5" font-family="Helvetica,sans-Serif" font-size="10.00">Max22200Handler::Initialize</text>
</a>
</g>
</g>
<!-- Node1&#45;&gt;Node11 -->
<g id="edge10_Node000001_Node000011" class="edge">
<title>Node1&#45;&gt;Node11</title>
<g id="a_edge10_Node000001_Node000011"><a xlink:title=" ">
<path fill="none" stroke="#63b8ff" d="M385,-235.2C370.72,-226.76 351.85,-216.59 334,-210 325.06,-206.7 315.34,-203.91 305.82,-201.6"/>
<polygon fill="#63b8ff" stroke="#63b8ff" points="383.3,-238.26 393.67,-240.44 386.92,-232.27 383.3,-238.26"/>
</a>
</g>
</g>
<!-- Node12 -->
<g id="Node000012" class="node">
<title>Node12</title>
<g id="a_Node000012"><a xlink:href="classTle92466edHandler.html#a427b6968c56e28e3e8d92b9d083fca33" target="_top" xlink:title="Initialize with global configuration.">
<polygon fill="white" stroke="#666666" points="309.5,-164 191.5,-164 191.5,-134 309.5,-134 309.5,-164"/>
<text text-anchor="start" x="199.5" y="-152" font-family="Helvetica,sans-Serif" font-size="10.00">Tle92466edHandler::</text>
<text text-anchor="middle" x="250.5" y="-141" font-family="Helvetica,sans-Serif" font-size="10.00">Initialize</text>
</a>
</g>
</g>
<!-- Node1&#45;&gt;Node12 -->
<g id="edge11_Node000001_Node000012" class="edge">
<title>Node1&#45;&gt;Node12</title>
<g id="a_edge11_Node000001_Node000012"><a xlink:title=" ">
<path fill="none" stroke="#63b8ff" d="M395.7,-232.15C382.24,-214.63 359.5,-188.37 334,-173 326.59,-168.53 318.3,-164.86 309.92,-161.85"/>
<polygon fill="#63b8ff" stroke="#63b8ff" points="393.08,-234.48 401.86,-240.41 398.69,-230.3 393.08,-234.48"/>
</a>
</g>
</g>
<!-- Node13 -->
<g id="Node000013" class="node">
<title>Node13</title>
<g id="a_Node000013"><a xlink:href="classTmc5160Handler.html#a64755f326176b0a38485acf5ca69fd0c" target="_top" xlink:title="Initialize the TMC5160 driver with full configuration.">
<polygon fill="white" stroke="#666666" points="324.5,-115.5 176.5,-115.5 176.5,-96.5 324.5,-96.5 324.5,-115.5"/>
<text text-anchor="middle" x="250.5" y="-103.5" font-family="Helvetica,sans-Serif" font-size="10.00">Tmc5160Handler::Initialize</text>
</a>
</g>
</g>
<!-- Node1&#45;&gt;Node13 -->
<g id="edge12_Node000001_Node000013" class="edge">
<title>Node1&#45;&gt;Node13</title>
<g id="a_edge12_Node000001_Node000013"><a xlink:title=" ">
<path fill="none" stroke="#63b8ff" d="M402.43,-230.62C392.67,-202.75 370.77,-151.8 334,-125 328.66,-121.1 322.64,-117.99 316.36,-115.51"/>
<polygon fill="#63b8ff" stroke="#63b8ff" points="399.2,-232 405.68,-240.38 405.84,-229.79 399.2,-232"/>
</a>
</g>
</g>
<!-- Node14 -->
<g id="Node000014" class="node">
<title>Node14</title>
<g id="a_Node000014"><a xlink:href="classTmc9660Handler_1_1Temperature.html#a5ebc77b2122ba4473b74a4a0fc78ff09" target="_top" xlink:title="Read the chip temperature in degrees Celsius.">
<polygon fill="white" stroke="#666666" points="334,-78 167,-78 167,-48 334,-48 334,-78"/>
<text text-anchor="start" x="175" y="-66" font-family="Helvetica,sans-Serif" font-size="10.00">Tmc9660Handler::Temperature</text>
<text text-anchor="middle" x="250.5" y="-55" font-family="Helvetica,sans-Serif" font-size="10.00">::ReadTemperatureCelsiusImpl</text>
</a>
</g>
</g>
<!-- Node1&#45;&gt;Node14 -->
<g id="edge13_Node000001_Node000014" class="edge">
<title>Node1&#45;&gt;Node14</title>
<g id="a_edge13_Node000001_Node000014"><a xlink:title=" ">
<path fill="none" stroke="#63b8ff" d="M404.97,-230.07C397.83,-195.72 378.42,-125.38 334,-87 330.05,-83.59 325.64,-80.66 320.96,-78.15"/>
<polygon fill="#63b8ff" stroke="#63b8ff" points="401.6,-231.09 406.94,-240.24 408.47,-229.76 401.6,-231.09"/>
</a>
</g>
</g>
<!-- Node15 -->
<g id="Node000015" class="node">
<title>Node15</title>
<g id="a_Node000015"><a xlink:href="classNtcTemperatureHandler.html#aeabac754a1b923c79969657d69b97a72" target="_top" xlink:title=" ">
<polygon fill="white" stroke="#666666" points="327,-30 174,-30 174,0 327,0 327,-30"/>
<text text-anchor="start" x="182" y="-18" font-family="Helvetica,sans-Serif" font-size="10.00">NtcTemperatureHandler</text>
<text text-anchor="middle" x="250.5" y="-7" font-family="Helvetica,sans-Serif" font-size="10.00">::StartContinuousMonitoring</text>
</a>
</g>
</g>
<!-- Node1&#45;&gt;Node15 -->
<g id="edge14_Node000001_Node000015" class="edge">
<title>Node1&#45;&gt;Node15</title>
<g id="a_edge14_Node000001_Node000015"><a xlink:title=" ">
<path fill="none" stroke="#63b8ff" d="M407.34,-230.2C403.82,-188.61 389.74,-91.69 334,-39 330.42,-35.62 326.4,-32.71 322.1,-30.21"/>
<polygon fill="#63b8ff" stroke="#63b8ff" points="403.86,-230.66 408.08,-240.38 410.84,-230.15 403.86,-230.66"/>
</a>
</g>
</g>
<!-- Node3 -->
<g id="Node000003" class="node">
<title>Node3</title>
<g id="a_Node000003"><a xlink:href="classHalSpiTmc9660Comm.html#ac7145aa4216147b19418a4b23cccda75" target="_top" xlink:title="Route TMC9660 driver debug output to the HardFOC Logger.">
<polygon fill="white" stroke="#666666" points="131,-536 0,-536 0,-506 131,-506 131,-536"/>
<text text-anchor="start" x="8" y="-524" font-family="Helvetica,sans-Serif" font-size="10.00">HalSpiTmc9660Comm::</text>
<text text-anchor="middle" x="65.5" y="-513" font-family="Helvetica,sans-Serif" font-size="10.00">debugLog</text>
</a>
</g>
</g>
<!-- Node2&#45;&gt;Node3 -->
<g id="edge2_Node000002_Node000003" class="edge">
<title>Node2&#45;&gt;Node3</title>
<g id="a_edge2_Node000002_Node000003"><a xlink:title=" ">
<path fill="none" stroke="#63b8ff" d="M172.91,-507.04C159.04,-508.86 144.69,-510.75 131.2,-512.51"/>
<polygon fill="#63b8ff" stroke="#63b8ff" points="173.46,-510.5 182.92,-505.73 172.54,-503.56 173.46,-510.5"/>
</a>
</g>
</g>
<!-- Node4 -->
<g id="Node000004" class="node">
<title>Node4</title>
<g id="a_Node000004"><a xlink:href="classHalUartTmc9660Comm.html#a1a992dfbd1c60452f19f38dff2754403" target="_top" xlink:title="Route TMC9660 driver debug output to the HardFOC Logger.">
<polygon fill="white" stroke="#666666" points="131,-488 0,-488 0,-458 131,-458 131,-488"/>
<text text-anchor="start" x="8" y="-476" font-family="Helvetica,sans-Serif" font-size="10.00">HalUartTmc9660Comm</text>
<text text-anchor="middle" x="65.5" y="-465" font-family="Helvetica,sans-Serif" font-size="10.00">::debugLog</text>
</a>
</g>
</g>
<!-- Node2&#45;&gt;Node4 -->
<g id="edge3_Node000002_Node000004" class="edge">
<title>Node2&#45;&gt;Node4</title>
<g id="a_edge3_Node000002_Node000004"><a xlink:title=" ">
<path fill="none" stroke="#63b8ff" d="M172.91,-486.96C159.04,-485.14 144.69,-483.25 131.2,-481.49"/>
<polygon fill="#63b8ff" stroke="#63b8ff" points="172.54,-490.44 182.92,-488.27 173.46,-483.5 172.54,-490.44"/>
</a>
</g>
</g>
</g>
</svg>
