<?xml version="1.0" encoding="UTF-8" standalone="no"?>
<!DOCTYPE svg PUBLIC "-//W3C//DTD SVG 1.1//EN"
 "http://www.w3.org/Graphics/SVG/1.1/DTD/svg11.dtd">
<!-- Generated by graphviz version 2.43.0 (0)
 -->
<!-- Title: As5047uHandler::ApplyConfiguration Pages: 1 -->
<svg width="1056pt" height="147pt"
 viewBox="0.00 0.00 1056.00 147.00" xmlns="http://www.w3.org/2000/svg" xmlns:xlink="http://www.w3.org/1999/xlink">
<g id="graph0" class="graph" transform="scale(1 1) rotate(0) translate(4 143)">
<title>As5047uHandler::ApplyConfiguration</title>
<!-- Node1 -->
<g id="Node000001" class="node">
<title>Node1</title>
<g id="a_Node000001"><a xlink:title="Apply configuration to sensor.">
<polygon fill="#999999" stroke="#666666" points="1048,-35 852,-35 852,-16 1048,-16 1048,-35"/>
<text text-anchor="middle" x="950" y="-23" font-family="Helvetica,sans-Serif" font-size="10.00">As5047uHandler::ApplyConfiguration</text>
</a>
</g>
</g>
<!-- Node2 -->
<g id="Node000002" class="node">
<title>Node2</title>
<g id="a_Node000002"><a xlink:href="classAs5047uHandler.html#a4dcfcea95fe8114ca7e0e5554d21ebc0" target="_top" xlink:title="Initialize the AS5047U sensor (lazy initialization)">
<polygon fill="white" stroke="#666666" points="816,-56 671,-56 671,-37 816,-37 816,-56"/>
<text text-anchor="middle" x="743.5" y="-44" font-family="Helvetica,sans-Serif" font-size="10.00">As5047uHandler::Initialize</text>
</a>
</g>
</g>
<!-- Node1&#45;&gt;Node2 -->
<g id="edge1_Node000001_Node000002" class="edge">
<title>Node1&#45;&gt;Node2</title>
<g id="a_edge1_Node000001_Node000002"><a xlink:title=" ">
<path fill="none" stroke="#63b8ff" d="M846.15,-36.06C835.97,-37.11 825.79,-38.15 816.02,-39.16"/>
<polygon fill="#63b8ff" stroke="#63b8ff" points="846.73,-39.52 856.32,-35.02 846.02,-32.56 846.73,-39.52"/>
</a>
</g>
</g>
<!-- Node9 -->
<g id="Node000009" class="node">
<title>Node9</title>
<g id="a_Node000009"><a xlink:href="classAs5047uHandler.html#a7cbd322b961c33b684227abd9581bd4b" target="_top" xlink:title="Reset sensor to default configuration.">
<polygon fill="white" stroke="#666666" points="188.5,-19 6.5,-19 6.5,0 188.5,0 188.5,-19"/>
<text text-anchor="middle" x="97.5" y="-7" font-family="Helvetica,sans-Serif" font-size="10.00">As5047uHandler::ResetToDefaults</text>
</a>
</g>
</g>
<!-- Node1&#45;&gt;Node9 -->
<g id="edge9_Node000001_Node000009" class="edge">
<title>Node1&#45;&gt;Node9</title>
<g id="a_edge9_Node000001_Node000009"><a xlink:title=" ">
<path fill="none" stroke="#63b8ff" d="M841.68,-23.48C672.4,-20.3 346.48,-14.17 188.6,-11.2"/>
<polygon fill="#63b8ff" stroke="#63b8ff" points="841.79,-26.98 851.85,-23.67 841.92,-19.98 841.79,-26.98"/>
</a>
</g>
</g>
<!-- Node3 -->
<g id="Node000003" class="node">
<title>Node3</title>
<g id="a_Node000003"><a xlink:href="classAs5047uHandler.html#a040ba453eb7892ab3189631d73a2f683" target="_top" xlink:title="Ensure initialized while mutex is already held.">
<polygon fill="white" stroke="#666666" points="635,-85.5 451,-85.5 451,-55.5 635,-55.5 635,-85.5"/>
<text text-anchor="start" x="459" y="-73.5" font-family="Helvetica,sans-Serif" font-size="10.00">As5047uHandler::EnsureInitialized</text>
<text text-anchor="middle" x="543" y="-62.5" font-family="Helvetica,sans-Serif" font-size="10.00">Locked</text>
</a>
</g>
</g>
<!-- Node2&#45;&gt;Node3 -->
<g id="edge2_Node000002_Node000003" class="edge">
<title>Node2&#45;&gt;Node3</title>
<g id="a_edge2_Node000002_Node000003"><a xlink:title=" ">
<path fill="none" stroke="#63b8ff" d="M660.7,-56.39C652.31,-57.4 643.75,-58.44 635.26,-59.47"/>
<polygon fill="#63b8ff" stroke="#63b8ff" points="661.33,-59.84 670.84,-55.16 660.49,-52.89 661.33,-59.84"/>
</a>
</g>
</g>
<!-- Node4 -->
<g id="Node000004" class="node">
<title>Node4</title>
<g id="a_Node000004"><a xlink:href="classAs5047uHandler.html#a7f16efc74198279ee63c46d2b55825fa" target="_top" xlink:title="Ensure the handler is initialized (lazy init entrypoint).">
<polygon fill="white" stroke="#666666" points="415,-139 231,-139 231,-120 415,-120 415,-139"/>
<text text-anchor="middle" x="323" y="-127" font-family="Helvetica,sans-Serif" font-size="10.00">As5047uHandler::EnsureInitialized</text>
</a>
</g>
</g>
<!-- Node3&#45;&gt;Node4 -->
<g id="edge3_Node000003_Node000004" class="edge">
<title>Node3&#45;&gt;Node4</title>
<g id="a_edge3_Node000003_Node000004"><a xlink:title=" ">
<path fill="none" stroke="#63b8ff" d="M490.23,-88.73C467.35,-96.39 440.02,-105.01 415,-111.5 403,-114.61 389.98,-117.48 377.65,-119.97"/>
<polygon fill="#63b8ff" stroke="#63b8ff" points="491.39,-92.03 499.74,-85.51 489.15,-85.4 491.39,-92.03"/>
</a>
</g>
</g>
<!-- Node5 -->
<g id="Node000005" class="node">
<title>Node5</title>
<g id="a_Node000005"><a xlink:href="classAs5047uHandler.html#a7935a51fb2973e3a1793d378fc50118a" target="_top" xlink:title="Get pointer to AS5047U driver for advanced operations.">
<polygon fill="white" stroke="#666666" points="399.5,-102 246.5,-102 246.5,-83 399.5,-83 399.5,-102"/>
<text text-anchor="middle" x="323" y="-90" font-family="Helvetica,sans-Serif" font-size="10.00">As5047uHandler::GetSensor</text>
</a>
</g>
</g>
<!-- Node3&#45;&gt;Node5 -->
<g id="edge4_Node000003_Node000005" class="edge">
<title>Node3&#45;&gt;Node5</title>
<g id="a_edge4_Node000003_Node000005"><a xlink:title=" ">
<path fill="none" stroke="#63b8ff" d="M440.77,-80.72C426.93,-82.11 412.92,-83.53 399.64,-84.87"/>
<polygon fill="#63b8ff" stroke="#63b8ff" points="441.21,-84.19 450.81,-79.7 440.51,-77.22 441.21,-84.19"/>
</a>
</g>
</g>
<!-- Node6 -->
<g id="Node000006" class="node">
<title>Node6</title>
<g id="a_Node000006"><a xlink:href="classAs5047uHandler.html#a10eeb015c791ff484935168e3683c053" target="_top" xlink:title="Validate sensor parameters.">
<polygon fill="white" stroke="#666666" points="394.5,-64.5 251.5,-64.5 251.5,-34.5 394.5,-34.5 394.5,-64.5"/>
<text text-anchor="start" x="259.5" y="-52.5" font-family="Helvetica,sans-Serif" font-size="10.00">As5047uHandler::Validate</text>
<text text-anchor="middle" x="323" y="-41.5" font-family="Helvetica,sans-Serif" font-size="10.00">Sensor</text>
</a>
</g>
</g>
<!-- Node3&#45;&gt;Node6 -->
<g id="edge5_Node000003_Node000006" class="edge">
<title>Node3&#45;&gt;Node6</title>
<g id="a_edge5_Node000003_Node000006"><a xlink:title=" ">
<path fill="none" stroke="#63b8ff" d="M440.63,-60.73C425.07,-59.24 409.3,-57.72 394.59,-56.3"/>
<polygon fill="#63b8ff" stroke="#63b8ff" points="440.52,-64.24 450.81,-61.72 441.19,-57.27 440.52,-64.24"/>
</a>
</g>
</g>
<!-- Node7 -->
<g id="Node000007" class="node">
<title>Node7</title>
<g id="a_Node000007"><a xlink:href="classAs5047uHandler.html#a80e3768bb4a51e121f786b1b348e550e" target="_top" xlink:title="Perform sensor calibration.">
<polygon fill="white" stroke="#666666" points="195,-94 0,-94 0,-75 195,-75 195,-94"/>
<text text-anchor="middle" x="97.5" y="-82" font-family="Helvetica,sans-Serif" font-size="10.00">As5047uHandler::PerformCalibration</text>
</a>
</g>
</g>
<!-- Node6&#45;&gt;Node7 -->
<g id="edge6_Node000006_Node000007" class="edge">
<title>Node6&#45;&gt;Node7</title>
<g id="a_edge6_Node000006_Node000007"><a xlink:title=" ">
<path fill="none" stroke="#63b8ff" d="M241.09,-62.17C214.11,-66.4 184.54,-71.03 159.35,-74.97"/>
<polygon fill="#63b8ff" stroke="#63b8ff" points="241.95,-65.58 251.28,-60.57 240.86,-58.66 241.95,-65.58"/>
</a>
</g>
</g>
<!-- Node8 -->
<g id="Node000008" class="node">
<title>Node8</title>
<g id="a_Node000008"><a xlink:href="classAs5047uHandler.html#a02a98f0125d0d80e41b0708658e112a3" target="_top" xlink:title="Program current settings to OTP memory (One&#45;Time Programmable)">
<polygon fill="white" stroke="#666666" points="179.5,-57 15.5,-57 15.5,-38 179.5,-38 179.5,-57"/>
<text text-anchor="middle" x="97.5" y="-45" font-family="Helvetica,sans-Serif" font-size="10.00">As5047uHandler::ProgramOTP</text>
</a>
</g>
</g>
<!-- Node6&#45;&gt;Node8 -->
<g id="edge7_Node000006_Node000008" class="edge">
<title>Node6&#45;&gt;Node8</title>
<g id="a_edge7_Node000006_Node000008"><a xlink:title=" ">
<path fill="none" stroke="#63b8ff" d="M241.26,-48.78C221.22,-48.6 199.73,-48.41 179.66,-48.23"/>
<polygon fill="#63b8ff" stroke="#63b8ff" points="241.25,-52.28 251.28,-48.87 241.31,-45.28 241.25,-52.28"/>
</a>
</g>
</g>
<!-- Node6&#45;&gt;Node9 -->
<g id="edge8_Node000006_Node000009" class="edge">
<title>Node6&#45;&gt;Node9</title>
<g id="a_edge8_Node000006_Node000009"><a xlink:title=" ">
<path fill="none" stroke="#63b8ff" d="M241.31,-35.06C211.51,-29.73 178.51,-23.82 151.75,-19.03"/>
<polygon fill="#63b8ff" stroke="#63b8ff" points="240.82,-38.53 251.28,-36.84 242.06,-31.64 240.82,-38.53"/>
</a>
</g>
</g>
</g>
</svg>
