<?xml version="1.0" encoding="UTF-8" standalone="no"?>
<!DOCTYPE svg PUBLIC "-//W3C//DTD SVG 1.1//EN"
 "http://www.w3.org/Graphics/SVG/1.1/DTD/svg11.dtd">
<!-- Generated by graphviz version 2.43.0 (0)
 -->
<!-- Title: Tmc5160Handler::IsStallDetected Pages: 1 -->
<svg width="910pt" height="138pt"
 viewBox="0.00 0.00 910.00 138.00" xmlns="http://www.w3.org/2000/svg" xmlns:xlink="http://www.w3.org/1999/xlink">
<g id="graph0" class="graph" transform="scale(1 1) rotate(0) translate(4 134)">
<title>Tmc5160Handler::IsStallDetected</title>
<!-- Node1 -->
<g id="Node000001" class="node">
<title>Node1</title>
<g id="a_Node000001"><a xlink:title="Check for stall detection.">
<polygon fill="#999999" stroke="#666666" points="180,-50 0,-50 0,-31 180,-31 180,-50"/>
<text text-anchor="middle" x="90" y="-38" font-family="Helvetica,sans-Serif" font-size="10.00">Tmc5160Handler::IsStallDetected</text>
</a>
</g>
</g>
<!-- Node2 -->
<g id="Node000002" class="node">
<title>Node2</title>
<g id="a_Node000002"><a xlink:href="classTmc5160Handler.html#a6d4fce2433e03bb11b05a4278ef66fd0" target="_top" xlink:title=" ">
<polygon fill="white" stroke="#666666" points="403,-79.5 216,-79.5 216,-49.5 403,-49.5 403,-79.5"/>
<text text-anchor="start" x="224" y="-67.5" font-family="Helvetica,sans-Serif" font-size="10.00">Tmc5160Handler::EnsureInitialized</text>
<text text-anchor="middle" x="309.5" y="-56.5" font-family="Helvetica,sans-Serif" font-size="10.00">Locked</text>
</a>
</g>
</g>
<!-- Node1&#45;&gt;Node2 -->
<g id="edge1_Node000001_Node000002" class="edge">
<title>Node1&#45;&gt;Node2</title>
<g id="a_edge1_Node000001_Node000002"><a xlink:title=" ">
<path fill="none" stroke="#63b8ff" d="M177.27,-50.02C186.69,-51.06 196.35,-52.12 205.94,-53.18"/>
<polygon fill="#63b8ff" stroke="#63b8ff" points="205.57,-56.66 215.89,-54.28 206.34,-49.71 205.57,-56.66"/>
</a>
</g>
</g>
<!-- Node10 -->
<g id="Node000010" class="node">
<title>Node10</title>
<g id="a_Node000010"><a xlink:href="classTmc5160Handler.html#a439a68f9d3f6785e0a493f9ed3821325" target="_top" xlink:title="Helper: execute a visitor on the active driver (no lock, internal use)">
<polygon fill="white" stroke="#666666" points="388,-31.5 231,-31.5 231,-1.5 388,-1.5 388,-31.5"/>
<text text-anchor="start" x="239" y="-19.5" font-family="Helvetica,sans-Serif" font-size="10.00">Tmc5160Handler::visitDriver</text>
<text text-anchor="middle" x="309.5" y="-8.5" font-family="Helvetica,sans-Serif" font-size="10.00">Internal</text>
</a>
</g>
</g>
<!-- Node1&#45;&gt;Node10 -->
<g id="edge13_Node000001_Node000010" class="edge">
<title>Node1&#45;&gt;Node10</title>
<g id="a_edge13_Node000001_Node000010"><a xlink:title=" ">
<path fill="none" stroke="#63b8ff" d="M177.27,-30.98C191.49,-29.41 206.25,-27.78 220.51,-26.21"/>
<polygon fill="#63b8ff" stroke="#63b8ff" points="221.24,-29.65 230.8,-25.07 220.47,-22.69 221.24,-29.65"/>
</a>
</g>
</g>
<!-- Node3 -->
<g id="Node000003" class="node">
<title>Node3</title>
<g id="a_Node000003"><a xlink:href="classTmc5160Handler.html#a64755f326176b0a38485acf5ca69fd0c" target="_top" xlink:title="Initialize the TMC5160 driver with full configuration.">
<polygon fill="white" stroke="#666666" points="587,-74 439,-74 439,-55 587,-55 587,-74"/>
<text text-anchor="middle" x="513" y="-62" font-family="Helvetica,sans-Serif" font-size="10.00">Tmc5160Handler::Initialize</text>
</a>
</g>
</g>
<!-- Node2&#45;&gt;Node3 -->
<g id="edge2_Node000002_Node000003" class="edge">
<title>Node2&#45;&gt;Node3</title>
<g id="a_edge2_Node000002_Node000003"><a xlink:title=" ">
<path fill="none" stroke="#63b8ff" d="M403.29,-64.5C411.73,-64.5 420.25,-64.5 428.61,-64.5"/>
<polygon fill="#63b8ff" stroke="#63b8ff" points="428.7,-68 438.7,-64.5 428.7,-61 428.7,-68"/>
</a>
</g>
</g>
<!-- Node4 -->
<g id="Node000004" class="node">
<title>Node4</title>
<g id="a_Node000004"><a xlink:href="classLogger.html#adce17848a5844e053bfd314863dc1404" target="_top" xlink:title="Log error message.">
<polygon fill="white" stroke="#666666" points="719.5,-130 640.5,-130 640.5,-111 719.5,-111 719.5,-130"/>
<text text-anchor="middle" x="680" y="-118" font-family="Helvetica,sans-Serif" font-size="10.00">Logger::Error</text>
</a>
</g>
</g>
<!-- Node3&#45;&gt;Node4 -->
<g id="edge3_Node000003_Node000004" class="edge">
<title>Node3&#45;&gt;Node4</title>
<g id="a_edge3_Node000003_Node000004"><a xlink:title=" ">
<path fill="none" stroke="#63b8ff" d="M540.81,-74.05C562.84,-81.85 594.88,-93.08 623,-102.5 628.2,-104.24 633.69,-106.05 639.12,-107.81"/>
<polygon fill="#63b8ff" stroke="#63b8ff" points="638.14,-111.17 648.73,-110.92 640.29,-104.51 638.14,-111.17"/>
</a>
</g>
</g>
<!-- Node7 -->
<g id="Node000007" class="node">
<title>Node7</title>
<g id="a_Node000007"><a xlink:href="classLogger.html#a5789d11f8f1356e2192c0023a089cbc4" target="_top" xlink:title="Get singleton instance.">
<polygon fill="white" stroke="#666666" points="737,-19 623,-19 623,0 737,0 737,-19"/>
<text text-anchor="middle" x="680" y="-7" font-family="Helvetica,sans-Serif" font-size="10.00">Logger::GetInstance</text>
</a>
</g>
</g>
<!-- Node3&#45;&gt;Node7 -->
<g id="edge6_Node000003_Node000007" class="edge">
<title>Node3&#45;&gt;Node7</title>
<g id="a_edge6_Node000003_Node000007"><a xlink:title=" ">
<path fill="none" stroke="#63b8ff" d="M542.74,-54.92C569.87,-45.88 610.73,-32.26 640.63,-22.29"/>
<polygon fill="#63b8ff" stroke="#63b8ff" points="641.93,-25.55 650.31,-19.06 639.72,-18.9 641.93,-25.55"/>
</a>
</g>
</g>
<!-- Node8 -->
<g id="Node000008" class="node">
<title>Node8</title>
<g id="a_Node000008"><a xlink:href="classLogger.html#a4681229c521795685fc14f6b55c82300" target="_top" xlink:title="Log info message.">
<polygon fill="white" stroke="#666666" points="717,-93 643,-93 643,-74 717,-74 717,-93"/>
<text text-anchor="middle" x="680" y="-81" font-family="Helvetica,sans-Serif" font-size="10.00">Logger::Info</text>
</a>
</g>
</g>
<!-- Node3&#45;&gt;Node8 -->
<g id="edge7_Node000003_Node000008" class="edge">
<title>Node3&#45;&gt;Node8</title>
<g id="a_edge7_Node000003_Node000008"><a xlink:title=" ">
<path fill="none" stroke="#63b8ff" d="M587.33,-72.94C602.85,-74.73 618.8,-76.57 632.96,-78.2"/>
<polygon fill="#63b8ff" stroke="#63b8ff" points="632.58,-81.68 642.92,-79.35 633.38,-74.72 632.58,-81.68"/>
</a>
</g>
</g>
<!-- Node9 -->
<g id="Node000009" class="node">
<title>Node9</title>
<g id="a_Node000009"><a xlink:href="classLogger.html#aaa95ffa14d07a965d4a85bdec82cba26" target="_top" xlink:title="Log warning message.">
<polygon fill="white" stroke="#666666" points="720,-56 640,-56 640,-37 720,-37 720,-56"/>
<text text-anchor="middle" x="680" y="-44" font-family="Helvetica,sans-Serif" font-size="10.00">Logger::Warn</text>
</a>
</g>
</g>
<!-- Node3&#45;&gt;Node9 -->
<g id="edge10_Node000003_Node000009" class="edge">
<title>Node3&#45;&gt;Node9</title>
<g id="a_edge10_Node000003_Node000009"><a xlink:title=" ">
<path fill="none" stroke="#63b8ff" d="M587.33,-56.5C601.59,-54.94 616.23,-53.35 629.49,-51.9"/>
<polygon fill="#63b8ff" stroke="#63b8ff" points="630.25,-55.34 639.81,-50.78 629.49,-48.38 630.25,-55.34"/>
</a>
</g>
</g>
<!-- Node5 -->
<g id="Node000005" class="node">
<title>Node5</title>
<g id="a_Node000005"><a xlink:href="classLogger.html#af9e84e0ff6bd538e4f9ed8dcebc3e2f0" target="_top" xlink:title="Check if log level is enabled for tag.">
<polygon fill="white" stroke="#666666" points="902,-111 773,-111 773,-92 902,-92 902,-111"/>
<text text-anchor="middle" x="837.5" y="-99" font-family="Helvetica,sans-Serif" font-size="10.00">Logger::IsLevelEnabled</text>
</a>
</g>
</g>
<!-- Node4&#45;&gt;Node5 -->
<g id="edge4_Node000004_Node000005" class="edge">
<title>Node4&#45;&gt;Node5</title>
<g id="a_edge4_Node000004_Node000005"><a xlink:title=" ">
<path fill="none" stroke="#63b8ff" d="M719.84,-115.75C732.85,-114.16 747.82,-112.34 762.6,-110.53"/>
<polygon fill="#63b8ff" stroke="#63b8ff" points="763.28,-113.97 772.78,-109.29 762.43,-107.02 763.28,-113.97"/>
</a>
</g>
</g>
<!-- Node6 -->
<g id="Node000006" class="node">
<title>Node6</title>
<g id="a_Node000006"><a xlink:href="classLogger.html#a6adb205db597526fb91ad20067400394" target="_top" xlink:title="Internal logging method.">
<polygon fill="white" stroke="#666666" points="892.5,-74 782.5,-74 782.5,-55 892.5,-55 892.5,-74"/>
<text text-anchor="middle" x="837.5" y="-62" font-family="Helvetica,sans-Serif" font-size="10.00">Logger::LogInternal</text>
</a>
</g>
</g>
<!-- Node4&#45;&gt;Node6 -->
<g id="edge5_Node000004_Node000006" class="edge">
<title>Node4&#45;&gt;Node6</title>
<g id="a_edge5_Node000004_Node000006"><a xlink:title=" ">
<path fill="none" stroke="#63b8ff" d="M713.92,-110.98C721.59,-108.47 729.66,-105.59 737,-102.5 753.68,-95.48 756.25,-90.35 773,-83.5 778.53,-81.24 784.42,-79.12 790.31,-77.16"/>
<polygon fill="#63b8ff" stroke="#63b8ff" points="791.67,-80.41 800.14,-74.05 789.55,-73.73 791.67,-80.41"/>
</a>
</g>
</g>
<!-- Node8&#45;&gt;Node5 -->
<g id="edge8_Node000008_Node000005" class="edge">
<title>Node8&#45;&gt;Node5</title>
<g id="a_edge8_Node000008_Node000005"><a xlink:title=" ">
<path fill="none" stroke="#63b8ff" d="M717.07,-87.67C730.68,-89.25 746.72,-91.11 762.55,-92.94"/>
<polygon fill="#63b8ff" stroke="#63b8ff" points="762.55,-96.46 772.89,-94.14 763.36,-89.51 762.55,-96.46"/>
</a>
</g>
</g>
<!-- Node8&#45;&gt;Node6 -->
<g id="edge9_Node000008_Node000006" class="edge">
<title>Node8&#45;&gt;Node6</title>
<g id="a_edge9_Node000008_Node000006"><a xlink:title=" ">
<path fill="none" stroke="#63b8ff" d="M717.07,-79.09C733.49,-77.09 753.44,-74.65 772.3,-72.34"/>
<polygon fill="#63b8ff" stroke="#63b8ff" points="772.83,-75.81 782.33,-71.12 771.98,-68.86 772.83,-75.81"/>
</a>
</g>
</g>
<!-- Node9&#45;&gt;Node5 -->
<g id="edge11_Node000009_Node000005" class="edge">
<title>Node9&#45;&gt;Node5</title>
<g id="a_edge11_Node000009_Node000005"><a xlink:title=" ">
<path fill="none" stroke="#63b8ff" d="M711.51,-56.01C719.86,-58.84 728.85,-62.1 737,-65.5 753.51,-72.39 756.32,-77.03 773,-83.5 778.07,-85.47 783.45,-87.33 788.85,-89.05"/>
<polygon fill="#63b8ff" stroke="#63b8ff" points="787.92,-92.42 798.51,-91.99 789.96,-85.73 787.92,-92.42"/>
</a>
</g>
</g>
<!-- Node9&#45;&gt;Node6 -->
<g id="edge12_Node000009_Node000006" class="edge">
<title>Node9&#45;&gt;Node6</title>
<g id="a_edge12_Node000009_Node000006"><a xlink:title=" ">
<path fill="none" stroke="#63b8ff" d="M720.24,-51.04C735.96,-52.86 754.49,-55.01 772.08,-57.04"/>
<polygon fill="#63b8ff" stroke="#63b8ff" points="771.96,-60.55 782.3,-58.23 772.77,-53.6 771.96,-60.55"/>
</a>
</g>
</g>
</g>
</svg>
