<?xml version="1.0" encoding="UTF-8" standalone="no"?>
<!DOCTYPE svg PUBLIC "-//W3C//DTD SVG 1.1//EN"
 "http://www.w3.org/Graphics/SVG/1.1/DTD/svg11.dtd">
<!-- Generated by graphviz version 2.43.0 (0)
 -->
<!-- Title: As5047uHandler::ReadAngle Pages: 1 -->
<svg width="617pt" height="65pt"
 viewBox="0.00 0.00 617.00 65.00" xmlns="http://www.w3.org/2000/svg" xmlns:xlink="http://www.w3.org/1999/xlink">
<g id="graph0" class="graph" transform="scale(1 1) rotate(0) translate(4 61)">
<title>As5047uHandler::ReadAngle</title>
<!-- Node1 -->
<g id="Node000001" class="node">
<title>Node1</title>
<g id="a_Node000001"><a xlink:title="Read current absolute angle with DAEC compensation.">
<polygon fill="#999999" stroke="#666666" points="609,-38 454,-38 454,-19 609,-19 609,-38"/>
<text text-anchor="middle" x="531.5" y="-26" font-family="Helvetica,sans-Serif" font-size="10.00">As5047uHandler::ReadAngle</text>
</a>
</g>
</g>
<!-- Node2 -->
<g id="Node000002" class="node">
<title>Node2</title>
<g id="a_Node000002"><a xlink:href="as5047u__handler__comprehensive__test_8cpp.html#aaa3a69b37bf8fcd8431b8495e9b311ca" target="_top" xlink:title=" ">
<polygon fill="white" stroke="#666666" points="418,-57 287,-57 287,-38 418,-38 418,-57"/>
<text text-anchor="middle" x="352.5" y="-45" font-family="Helvetica,sans-Serif" font-size="10.00">concurrent_reader_task</text>
</a>
</g>
</g>
<!-- Node1&#45;&gt;Node2 -->
<g id="edge1_Node000001_Node000002" class="edge">
<title>Node1&#45;&gt;Node2</title>
<g id="a_edge1_Node000001_Node000002"><a xlink:title=" ">
<path fill="none" stroke="#63b8ff" d="M443.75,-37.81C435.09,-38.74 426.4,-39.67 418.03,-40.57"/>
<polygon fill="#63b8ff" stroke="#63b8ff" points="444.33,-41.27 453.89,-36.72 443.58,-34.31 444.33,-41.27"/>
</a>
</g>
</g>
<!-- Node5 -->
<g id="Node000005" class="node">
<title>Node5</title>
<g id="a_Node000005"><a xlink:href="as5047u__handler__comprehensive__test_8cpp.html#ac83f97b7754666b5e7733941b37c5630" target="_top" xlink:title=" ">
<polygon fill="white" stroke="#666666" points="251,-19 101,-19 101,0 251,0 251,-19"/>
<text text-anchor="middle" x="176" y="-7" font-family="Helvetica,sans-Serif" font-size="10.00">test_operations_before_init</text>
</a>
</g>
</g>
<!-- Node1&#45;&gt;Node5 -->
<g id="edge4_Node000001_Node000005" class="edge">
<title>Node1&#45;&gt;Node5</title>
<g id="a_edge4_Node000001_Node000005"><a xlink:title=" ">
<path fill="none" stroke="#63b8ff" d="M443.74,-23.84C384.67,-20.66 307.32,-16.5 251.13,-13.48"/>
<polygon fill="#63b8ff" stroke="#63b8ff" points="443.62,-27.34 453.8,-24.38 444,-20.35 443.62,-27.34"/>
</a>
</g>
</g>
<!-- Node3 -->
<g id="Node000003" class="node">
<title>Node3</title>
<g id="a_Node000003"><a xlink:href="as5047u__handler__comprehensive__test_8cpp.html#ae9b39916d49066b59641c5ae10376c84" target="_top" xlink:title=" ">
<polygon fill="white" stroke="#666666" points="241.5,-56 110.5,-56 110.5,-37 241.5,-37 241.5,-56"/>
<text text-anchor="middle" x="176" y="-44" font-family="Helvetica,sans-Serif" font-size="10.00">test_concurrent_access</text>
</a>
</g>
</g>
<!-- Node2&#45;&gt;Node3 -->
<g id="edge2_Node000002_Node000003" class="edge">
<title>Node2&#45;&gt;Node3</title>
<g id="a_edge2_Node000002_Node000003"><a xlink:title=" ">
<path fill="none" stroke="#63b8ff" d="M276.46,-47.07C264.9,-47 253.05,-46.94 241.74,-46.87"/>
<polygon fill="#63b8ff" stroke="#63b8ff" points="276.5,-50.57 286.52,-47.13 276.54,-43.57 276.5,-50.57"/>
</a>
</g>
</g>
<!-- Node4 -->
<g id="Node000004" class="node">
<title>Node4</title>
<g id="a_Node000004"><a xlink:href="as5047u__handler__comprehensive__test_8cpp.html#a630544a7f0a2cc40d8a7fefab7e2fe70" target="_top" xlink:title=" ">
<polygon fill="white" stroke="#666666" points="65,-37 0,-37 0,-18 65,-18 65,-37"/>
<text text-anchor="middle" x="32.5" y="-25" font-family="Helvetica,sans-Serif" font-size="10.00">app_main</text>
</a>
</g>
</g>
<!-- Node3&#45;&gt;Node4 -->
<g id="edge3_Node000003_Node000004" class="edge">
<title>Node3&#45;&gt;Node4</title>
<g id="a_edge3_Node000003_Node000004"><a xlink:title=" ">
<path fill="none" stroke="#63b8ff" d="M100.47,-36.49C88.02,-34.82 75.73,-33.17 65.14,-31.75"/>
<polygon fill="#63b8ff" stroke="#63b8ff" points="100.08,-39.97 110.46,-37.83 101.02,-33.03 100.08,-39.97"/>
</a>
</g>
</g>
<!-- Node5&#45;&gt;Node4 -->
<g id="edge5_Node000005_Node000004" class="edge">
<title>Node5&#45;&gt;Node4</title>
<g id="a_edge5_Node000005_Node000004"><a xlink:title=" ">
<path fill="none" stroke="#63b8ff" d="M90.98,-20.19C81.88,-21.35 73.09,-22.46 65.23,-23.46"/>
<polygon fill="#63b8ff" stroke="#63b8ff" points="91.46,-23.66 100.93,-18.92 90.57,-16.71 91.46,-23.66"/>
</a>
</g>
</g>
</g>
</svg>
