<?xml version="1.0" encoding="UTF-8" standalone="no"?>
<!DOCTYPE svg PUBLIC "-//W3C//DTD SVG 1.1//EN"
 "http://www.w3.org/Graphics/SVG/1.1/DTD/svg11.dtd">
<!-- Generated by graphviz version 2.43.0 (0)
 -->
<!-- Title: Logger::Warn Pages: 1 -->
<svg width="956pt" height="982pt"
 viewBox="0.00 0.00 956.00 982.00" xmlns="http://www.w3.org/2000/svg" xmlns:xlink="http://www.w3.org/1999/xlink">
<g id="graph0" class="graph" transform="scale(1 1) rotate(0) translate(4 978)">
<title>Logger::Warn</title>
<!-- Node1 -->
<g id="Node000001" class="node">
<title>Node1</title>
<g id="a_Node000001"><a xlink:title="Log warning message.">
<polygon fill="#999999" stroke="#666666" points="948,-684 868,-684 868,-665 948,-665 948,-684"/>
<text text-anchor="middle" x="908" y="-672" font-family="Helvetica,sans-Serif" font-size="10.00">Logger::Warn</text>
</a>
</g>
</g>
<!-- Node2 -->
<g id="Node000002" class="node">
<title>Node2</title>
<g id="a_Node000002"><a xlink:href="classTmc5160Handler.html#ab4bf5aabef968f6f8ee66d08cf05913a" target="_top" xlink:title="Dump diagnostic information to logger.">
<polygon fill="white" stroke="#666666" points="397,-974 205,-974 205,-955 397,-955 397,-974"/>
<text text-anchor="middle" x="301" y="-962" font-family="Helvetica,sans-Serif" font-size="10.00">Tmc5160Handler::DumpDiagnostics</text>
</a>
</g>
</g>
<!-- Node1&#45;&gt;Node2 -->
<g id="edge1_Node000001_Node000002" class="edge">
<title>Node1&#45;&gt;Node2</title>
<g id="a_edge1_Node000001_Node000002"><a xlink:title=" ">
<path fill="none" stroke="#63b8ff" d="M904.36,-694.41C898.39,-731.43 880.39,-811.04 832,-854.5 711.82,-962.42 514.11,-975.01 397.15,-971.63"/>
<polygon fill="#63b8ff" stroke="#63b8ff" points="907.84,-694.78 905.85,-684.37 900.92,-693.75 907.84,-694.78"/>
</a>
</g>
</g>
<!-- Node3 -->
<g id="Node000003" class="node">
<title>Node3</title>
<g id="a_Node000003"><a xlink:href="classMax22200Handler.html#a0dce05cd6639a10e52c0f669b72baf52" target="_top" xlink:title="Initialize driver (ENABLE HIGH, read/clear STATUS, set ACTIVE).">
<polygon fill="white" stroke="#666666" points="825.5,-770 671.5,-770 671.5,-751 825.5,-751 825.5,-770"/>
<text text-anchor="middle" x="748.5" y="-758" font-family="Helvetica,sans-Serif" font-size="10.00">Max22200Handler::Initialize</text>
</a>
</g>
</g>
<!-- Node1&#45;&gt;Node3 -->
<g id="edge2_Node000001_Node000003" class="edge">
<title>Node1&#45;&gt;Node3</title>
<g id="a_edge2_Node000001_Node000003"><a xlink:title=" ">
<path fill="none" stroke="#63b8ff" d="M892.02,-692.18C878.04,-707.53 855.81,-729.17 832,-741.5 824.56,-745.35 816.34,-748.43 808.06,-750.89"/>
<polygon fill="#63b8ff" stroke="#63b8ff" points="894.9,-694.21 898.9,-684.4 889.65,-689.57 894.9,-694.21"/>
</a>
</g>
</g>
<!-- Node14 -->
<g id="Node000014" class="node">
<title>Node14</title>
<g id="a_Node000014"><a xlink:href="classTle92466edHandler.html#ac607f9cf2453e8d1849b40d2dd8e8474" target="_top" xlink:title="Initialize driver (hardware reset + SPI init + enter config mode).">
<polygon fill="white" stroke="#666666" points="807.5,-732.5 689.5,-732.5 689.5,-702.5 807.5,-702.5 807.5,-732.5"/>
<text text-anchor="start" x="697.5" y="-720.5" font-family="Helvetica,sans-Serif" font-size="10.00">Tle92466edHandler::</text>
<text text-anchor="middle" x="748.5" y="-709.5" font-family="Helvetica,sans-Serif" font-size="10.00">Initialize</text>
</a>
</g>
</g>
<!-- Node1&#45;&gt;Node14 -->
<g id="edge13_Node000001_Node000014" class="edge">
<title>Node1&#45;&gt;Node14</title>
<g id="a_edge13_Node000001_Node000014"><a xlink:title=" ">
<path fill="none" stroke="#63b8ff" d="M862.38,-686.68C844.37,-691.6 823.4,-697.32 804.46,-702.49"/>
<polygon fill="#63b8ff" stroke="#63b8ff" points="863.32,-690.05 872.05,-684.04 861.48,-683.3 863.32,-690.05"/>
</a>
</g>
</g>
<!-- Node30 -->
<g id="Node000030" class="node">
<title>Node30</title>
<g id="a_Node000030"><a xlink:href="classWs2812Handler.html#acce4955435f295ba4853b6239090982f" target="_top" xlink:title="Initialize the RMT channel and LED strip.">
<polygon fill="white" stroke="#666666" points="819.5,-684 677.5,-684 677.5,-665 819.5,-665 819.5,-684"/>
<text text-anchor="middle" x="748.5" y="-672" font-family="Helvetica,sans-Serif" font-size="10.00">Ws2812Handler::Initialize</text>
</a>
</g>
</g>
<!-- Node1&#45;&gt;Node30 -->
<g id="edge29_Node000001_Node000030" class="edge">
<title>Node1&#45;&gt;Node30</title>
<g id="a_edge29_Node000001_Node000030"><a xlink:title=" ">
<path fill="none" stroke="#63b8ff" d="M857.41,-674.5C845.4,-674.5 832.34,-674.5 819.59,-674.5"/>
<polygon fill="#63b8ff" stroke="#63b8ff" points="857.66,-678 867.66,-674.5 857.66,-671 857.66,-678"/>
</a>
</g>
</g>
<!-- Node42 -->
<g id="Node000042" class="node">
<title>Node42</title>
<g id="a_Node000042"><a xlink:href="classNtcTemperatureHandler.html#a97fa93b2ed6337e24e056b46fbe331c7" target="_top" xlink:title=" ">
<polygon fill="white" stroke="#666666" points="815,-646.5 682,-646.5 682,-616.5 815,-616.5 815,-646.5"/>
<text text-anchor="start" x="690" y="-634.5" font-family="Helvetica,sans-Serif" font-size="10.00">NtcTemperatureHandler</text>
<text text-anchor="middle" x="748.5" y="-623.5" font-family="Helvetica,sans-Serif" font-size="10.00">::Initialize</text>
</a>
</g>
</g>
<!-- Node1&#45;&gt;Node42 -->
<g id="edge40_Node000001_Node000042" class="edge">
<title>Node1&#45;&gt;Node42</title>
<g id="a_edge40_Node000001_Node000042"><a xlink:title=" ">
<path fill="none" stroke="#63b8ff" d="M862.38,-662.32C844.37,-657.4 823.4,-651.68 804.46,-646.51"/>
<polygon fill="#63b8ff" stroke="#63b8ff" points="861.48,-665.7 872.05,-664.96 863.32,-658.95 861.48,-665.7"/>
</a>
</g>
</g>
<!-- Node43 -->
<g id="Node000043" class="node">
<title>Node43</title>
<g id="a_Node000043"><a xlink:href="classMax22200Handler.html#aca940fd8213ecb633bafb7c3e143a361" target="_top" xlink:title="Initialize with board configuration.">
<polygon fill="white" stroke="#666666" points="825.5,-598 671.5,-598 671.5,-579 825.5,-579 825.5,-598"/>
<text text-anchor="middle" x="748.5" y="-586" font-family="Helvetica,sans-Serif" font-size="10.00">Max22200Handler::Initialize</text>
</a>
</g>
</g>
<!-- Node1&#45;&gt;Node43 -->
<g id="edge41_Node000001_Node000043" class="edge">
<title>Node1&#45;&gt;Node43</title>
<g id="a_edge41_Node000001_Node000043"><a xlink:title=" ">
<path fill="none" stroke="#63b8ff" d="M892.02,-656.82C878.04,-641.47 855.81,-619.83 832,-607.5 824.56,-603.65 816.34,-600.57 808.06,-598.11"/>
<polygon fill="#63b8ff" stroke="#63b8ff" points="889.65,-659.43 898.9,-664.6 894.9,-654.79 889.65,-659.43"/>
</a>
</g>
</g>
<!-- Node44 -->
<g id="Node000044" class="node">
<title>Node44</title>
<g id="a_Node000044"><a xlink:href="classTle92466edHandler.html#a2f01dd08b168f009db41d658db3484eb" target="_top" xlink:title="Initialize with global configuration.">
<polygon fill="white" stroke="#666666" points="807.5,-560.5 689.5,-560.5 689.5,-530.5 807.5,-530.5 807.5,-560.5"/>
<text text-anchor="start" x="697.5" y="-548.5" font-family="Helvetica,sans-Serif" font-size="10.00">Tle92466edHandler::</text>
<text text-anchor="middle" x="748.5" y="-537.5" font-family="Helvetica,sans-Serif" font-size="10.00">Initialize</text>
</a>
</g>
</g>
<!-- Node1&#45;&gt;Node44 -->
<g id="edge42_Node000001_Node000044" class="edge">
<title>Node1&#45;&gt;Node44</title>
<g id="a_edge42_Node000001_Node000044"><a xlink:title=" ">
<path fill="none" stroke="#63b8ff" d="M898.24,-655.64C886.43,-632.27 863.25,-592.81 832,-570.5 824.69,-565.28 816.28,-561.14 807.68,-557.85"/>
<polygon fill="#63b8ff" stroke="#63b8ff" points="895.2,-657.39 902.72,-664.85 901.49,-654.32 895.2,-657.39"/>
</a>
</g>
</g>
<!-- Node45 -->
<g id="Node000045" class="node">
<title>Node45</title>
<g id="a_Node000045"><a xlink:href="classTmc5160Handler.html#a44ab36857e4e43062f81f7d6f10eab09" target="_top" xlink:title="Initialize the TMC5160 driver with full configuration.">
<polygon fill="white" stroke="#666666" points="822.5,-845 674.5,-845 674.5,-826 822.5,-826 822.5,-845"/>
<text text-anchor="middle" x="748.5" y="-833" font-family="Helvetica,sans-Serif" font-size="10.00">Tmc5160Handler::Initialize</text>
</a>
</g>
</g>
<!-- Node1&#45;&gt;Node45 -->
<g id="edge43_Node000001_Node000045" class="edge">
<title>Node1&#45;&gt;Node45</title>
<g id="a_edge43_Node000001_Node000045"><a xlink:title=" ">
<path fill="none" stroke="#63b8ff" d="M896.69,-692.79C883.59,-715 859.37,-752.78 832,-779.5 812.18,-798.85 784.91,-815.89 767.24,-825.94"/>
<polygon fill="#63b8ff" stroke="#63b8ff" points="899.77,-694.45 901.75,-684.04 893.71,-690.95 899.77,-694.45"/>
</a>
</g>
</g>
<!-- Node55 -->
<g id="Node000055" class="node">
<title>Node55</title>
<g id="a_Node000055"><a xlink:href="classTmc9660Handler_1_1Temperature.html#a5ebc77b2122ba4473b74a4a0fc78ff09" target="_top" xlink:title="Read the chip temperature in degrees Celsius.">
<polygon fill="white" stroke="#666666" points="832,-512.5 665,-512.5 665,-482.5 832,-482.5 832,-512.5"/>
<text text-anchor="start" x="673" y="-500.5" font-family="Helvetica,sans-Serif" font-size="10.00">Tmc9660Handler::Temperature</text>
<text text-anchor="middle" x="748.5" y="-489.5" font-family="Helvetica,sans-Serif" font-size="10.00">::ReadTemperatureCelsiusImpl</text>
</a>
</g>
</g>
<!-- Node1&#45;&gt;Node55 -->
<g id="edge50_Node000001_Node000055" class="edge">
<title>Node1&#45;&gt;Node55</title>
<g id="a_edge50_Node000001_Node000055"><a xlink:title=" ">
<path fill="none" stroke="#63b8ff" d="M902.81,-654.88C894.84,-622.3 874.33,-557.09 832,-521.5 827.89,-518.04 823.3,-515.09 818.46,-512.55"/>
<polygon fill="#63b8ff" stroke="#63b8ff" points="899.48,-655.98 905.13,-664.95 906.3,-654.42 899.48,-655.98"/>
</a>
</g>
</g>
<!-- Node4 -->
<g id="Node000004" class="node">
<title>Node4</title>
<g id="a_Node000004"><a xlink:href="classMax22200Handler.html#aa00edacb247660349767fa4521121104" target="_top" xlink:title=" ">
<polygon fill="white" stroke="#666666" points="629,-775.5 436,-775.5 436,-745.5 629,-745.5 629,-775.5"/>
<text text-anchor="start" x="444" y="-763.5" font-family="Helvetica,sans-Serif" font-size="10.00">Max22200Handler::EnsureInitialized</text>
<text text-anchor="middle" x="532.5" y="-752.5" font-family="Helvetica,sans-Serif" font-size="10.00">Locked</text>
</a>
</g>
</g>
<!-- Node3&#45;&gt;Node4 -->
<g id="edge3_Node000003_Node000004" class="edge">
<title>Node3&#45;&gt;Node4</title>
<g id="a_edge3_Node000003_Node000004"><a xlink:title=" ">
<path fill="none" stroke="#63b8ff" d="M661.38,-760.5C650.78,-760.5 639.89,-760.5 629.15,-760.5"/>
<polygon fill="#63b8ff" stroke="#63b8ff" points="661.45,-764 671.45,-760.5 661.45,-757 661.45,-764"/>
</a>
</g>
</g>
<!-- Node5 -->
<g id="Node000005" class="node">
<title>Node5</title>
<g id="a_Node000005"><a xlink:href="classMax22200Handler.html#afd07a624dc736a1452c0f6190499adc0" target="_top" xlink:title="Dump diagnostics to logger.">
<polygon fill="white" stroke="#666666" points="400,-826 202,-826 202,-807 400,-807 400,-826"/>
<text text-anchor="middle" x="301" y="-814" font-family="Helvetica,sans-Serif" font-size="10.00">Max22200Handler::DumpDiagnostics</text>
</a>
</g>
</g>
<!-- Node4&#45;&gt;Node5 -->
<g id="edge4_Node000004_Node000005" class="edge">
<title>Node4&#45;&gt;Node5</title>
<g id="a_edge4_Node000004_Node000005"><a xlink:title=" ">
<path fill="none" stroke="#63b8ff" d="M473.83,-778.51C450.98,-785.3 424.38,-792.75 400,-798.5 386.87,-801.6 372.64,-804.48 359.2,-806.98"/>
<polygon fill="#63b8ff" stroke="#63b8ff" points="475.14,-781.78 483.71,-775.55 473.13,-775.07 475.14,-781.78"/>
</a>
</g>
</g>
<!-- Node6 -->
<g id="Node000006" class="node">
<title>Node6</title>
<g id="a_Node000006"><a xlink:href="classMax22200Handler.html#a803b60663755d7850857626b58efc084" target="_top" xlink:title="Ensure driver is initialized (lazy init entrypoint).">
<polygon fill="white" stroke="#666666" points="397.5,-789 204.5,-789 204.5,-770 397.5,-770 397.5,-789"/>
<text text-anchor="middle" x="301" y="-777" font-family="Helvetica,sans-Serif" font-size="10.00">Max22200Handler::EnsureInitialized</text>
</a>
</g>
</g>
<!-- Node4&#45;&gt;Node6 -->
<g id="edge5_Node000004_Node000006" class="edge">
<title>Node4&#45;&gt;Node6</title>
<g id="a_edge5_Node000004_Node000006"><a xlink:title=" ">
<path fill="none" stroke="#63b8ff" d="M425.68,-769.26C416.29,-770.04 406.81,-770.82 397.51,-771.59"/>
<polygon fill="#63b8ff" stroke="#63b8ff" points="426.16,-772.73 435.83,-768.42 425.58,-765.76 426.16,-772.73"/>
</a>
</g>
</g>
<!-- Node7 -->
<g id="Node000007" class="node">
<title>Node7</title>
<g id="a_Node000007"><a xlink:href="classMax22200Handler.html#a001e00b9d9a02611b51951f16bcb78d1" target="_top" xlink:title="Get the underlying driver for advanced operations.">
<polygon fill="white" stroke="#666666" points="380.5,-752 221.5,-752 221.5,-733 380.5,-733 380.5,-752"/>
<text text-anchor="middle" x="301" y="-740" font-family="Helvetica,sans-Serif" font-size="10.00">Max22200Handler::GetDriver</text>
</a>
</g>
</g>
<!-- Node4&#45;&gt;Node7 -->
<g id="edge6_Node000004_Node000007" class="edge">
<title>Node4&#45;&gt;Node7</title>
<g id="a_edge6_Node000004_Node000007"><a xlink:title=" ">
<path fill="none" stroke="#63b8ff" d="M425.47,-752.18C410.43,-751 395.19,-749.81 380.79,-748.68"/>
<polygon fill="#63b8ff" stroke="#63b8ff" points="425.59,-755.7 435.83,-753 426.14,-748.73 425.59,-755.7"/>
</a>
</g>
</g>
<!-- Node9 -->
<g id="Node000009" class="node">
<title>Node9</title>
<g id="a_Node000009"><a xlink:href="classMax22200Handler.html#abcdd9746a0df9c28bb36508d52d80ef5" target="_top" xlink:title="Execute a lambda with a locked, initialized driver.">
<polygon fill="white" stroke="#666666" points="382.5,-715 219.5,-715 219.5,-696 382.5,-696 382.5,-715"/>
<text text-anchor="middle" x="301" y="-703" font-family="Helvetica,sans-Serif" font-size="10.00">Max22200Handler::withDriver</text>
</a>
</g>
</g>
<!-- Node4&#45;&gt;Node9 -->
<g id="edge8_Node000004_Node000009" class="edge">
<title>Node4&#45;&gt;Node9</title>
<g id="a_edge8_Node000004_Node000009"><a xlink:title=" ">
<path fill="none" stroke="#63b8ff" d="M470.3,-742.71C448.24,-736.57 423.09,-729.89 400,-724.5 385.49,-721.11 369.66,-717.86 355.05,-715.03"/>
<polygon fill="#63b8ff" stroke="#63b8ff" points="469.63,-746.16 480.21,-745.49 471.52,-739.42 469.63,-746.16"/>
</a>
</g>
</g>
<!-- Node8 -->
<g id="Node000008" class="node">
<title>Node8</title>
<g id="a_Node000008"><a xlink:href="classMax22200Handler.html#aee42537a3d2f0955a1479709b2d4b4b8" target="_top" xlink:title=" ">
<polygon fill="white" stroke="#666666" points="162.5,-819 3.5,-819 3.5,-800 162.5,-800 162.5,-819"/>
<text text-anchor="middle" x="83" y="-807" font-family="Helvetica,sans-Serif" font-size="10.00">Max22200Handler::GetDriver</text>
</a>
</g>
</g>
<!-- Node7&#45;&gt;Node8 -->
<g id="edge7_Node000007_Node000008" class="edge">
<title>Node7&#45;&gt;Node8</title>
<g id="a_edge7_Node000007_Node000008"><a xlink:title=" ">
<path fill="none" stroke="#63b8ff" d="M218.55,-754.95C212.84,-756.83 207.27,-759 202,-761.5 183.18,-770.43 184.7,-782.34 166,-791.5 159.06,-794.9 151.48,-797.66 143.82,-799.9"/>
<polygon fill="#63b8ff" stroke="#63b8ff" points="219.68,-758.26 228.26,-752.04 217.67,-751.55 219.68,-758.26"/>
</a>
</g>
</g>
<!-- Node10 -->
<g id="Node000010" class="node">
<title>Node10</title>
<g id="a_Node000010"><a xlink:href="classMax22200Handler.html#a963d65edae16cca4fd153b3af0c1e68e" target="_top" xlink:title="Clear all fault flags.">
<polygon fill="white" stroke="#666666" points="166,-782 0,-782 0,-763 166,-763 166,-782"/>
<text text-anchor="middle" x="83" y="-770" font-family="Helvetica,sans-Serif" font-size="10.00">Max22200Handler::ClearFaults</text>
</a>
</g>
</g>
<!-- Node9&#45;&gt;Node10 -->
<g id="edge9_Node000009_Node000010" class="edge">
<title>Node9&#45;&gt;Node10</title>
<g id="a_edge9_Node000009_Node000010"><a xlink:title=" ">
<path fill="none" stroke="#63b8ff" d="M218.92,-717.94C213.09,-719.83 207.39,-722 202,-724.5 183.37,-733.15 184.47,-744.51 166,-753.5 158.12,-757.34 149.42,-760.42 140.73,-762.89"/>
<polygon fill="#63b8ff" stroke="#63b8ff" points="220.23,-721.2 228.84,-715.03 218.26,-714.49 220.23,-721.2"/>
</a>
</g>
</g>
<!-- Node11 -->
<g id="Node000011" class="node">
<title>Node11</title>
<g id="a_Node000011"><a xlink:href="classMax22200Handler.html#a9e9684818c7efddd45697f28051cbca2" target="_top" xlink:title="Disable all channels.">
<polygon fill="white" stroke="#666666" points="157.5,-744.5 8.5,-744.5 8.5,-714.5 157.5,-714.5 157.5,-744.5"/>
<text text-anchor="start" x="16.5" y="-732.5" font-family="Helvetica,sans-Serif" font-size="10.00">Max22200Handler::Disable</text>
<text text-anchor="middle" x="83" y="-721.5" font-family="Helvetica,sans-Serif" font-size="10.00">AllChannels</text>
</a>
</g>
</g>
<!-- Node9&#45;&gt;Node11 -->
<g id="edge10_Node000009_Node000011" class="edge">
<title>Node9&#45;&gt;Node11</title>
<g id="a_edge10_Node000009_Node000011"><a xlink:title=" ">
<path fill="none" stroke="#63b8ff" d="M209.2,-715.59C191.96,-717.5 174.13,-719.49 157.51,-721.33"/>
<polygon fill="#63b8ff" stroke="#63b8ff" points="209.71,-719.05 219.26,-714.47 208.94,-712.1 209.71,-719.05"/>
</a>
</g>
</g>
<!-- Node12 -->
<g id="Node000012" class="node">
<title>Node12</title>
<g id="a_Node000012"><a xlink:href="classMax22200Handler.html#af7aba4f68825068e774badca04c49a07" target="_top" xlink:title="Enable all channels.">
<polygon fill="white" stroke="#666666" points="162,-696.5 4,-696.5 4,-666.5 162,-666.5 162,-696.5"/>
<text text-anchor="start" x="12" y="-684.5" font-family="Helvetica,sans-Serif" font-size="10.00">Max22200Handler::EnableAll</text>
<text text-anchor="middle" x="83" y="-673.5" font-family="Helvetica,sans-Serif" font-size="10.00">Channels</text>
</a>
</g>
</g>
<!-- Node9&#45;&gt;Node12 -->
<g id="edge11_Node000009_Node000012" class="edge">
<title>Node9&#45;&gt;Node12</title>
<g id="a_edge11_Node000009_Node000012"><a xlink:title=" ">
<path fill="none" stroke="#63b8ff" d="M209.09,-695.4C193.47,-693.66 177.37,-691.87 162.13,-690.18"/>
<polygon fill="#63b8ff" stroke="#63b8ff" points="208.94,-698.9 219.26,-696.53 209.71,-691.95 208.94,-698.9"/>
</a>
</g>
</g>
<!-- Node13 -->
<g id="Node000013" class="node">
<title>Node13</title>
<g id="a_Node000013"><a xlink:href="classMax22200Handler.html#ac5b60b117fec404c55597929134fa1a1" target="_top" xlink:title="Check if any fault is present.">
<polygon fill="white" stroke="#666666" points="160,-648 6,-648 6,-629 160,-629 160,-648"/>
<text text-anchor="middle" x="83" y="-636" font-family="Helvetica,sans-Serif" font-size="10.00">Max22200Handler::HasFault</text>
</a>
</g>
</g>
<!-- Node9&#45;&gt;Node13 -->
<g id="edge12_Node000009_Node000013" class="edge">
<title>Node9&#45;&gt;Node13</title>
<g id="a_edge12_Node000009_Node000013"><a xlink:title=" ">
<path fill="none" stroke="#63b8ff" d="M218.92,-693.06C213.09,-691.17 207.39,-689 202,-686.5 183.37,-677.85 184.47,-666.49 166,-657.5 158.12,-653.66 149.42,-650.58 140.73,-648.11"/>
<polygon fill="#63b8ff" stroke="#63b8ff" points="218.26,-696.51 228.84,-695.97 220.23,-689.8 218.26,-696.51"/>
</a>
</g>
</g>
<!-- Node15 -->
<g id="Node000015" class="node">
<title>Node15</title>
<g id="a_Node000015"><a xlink:href="classTle92466edHandler.html#a59ce7fd71a61c78bba4dc4a43c99e280" target="_top" xlink:title=" ">
<polygon fill="white" stroke="#666666" points="598,-629.5 467,-629.5 467,-599.5 598,-599.5 598,-629.5"/>
<text text-anchor="start" x="475" y="-617.5" font-family="Helvetica,sans-Serif" font-size="10.00">Tle92466edHandler::</text>
<text text-anchor="middle" x="532.5" y="-606.5" font-family="Helvetica,sans-Serif" font-size="10.00">EnsureInitializedLocked</text>
</a>
</g>
</g>
<!-- Node14&#45;&gt;Node15 -->
<g id="edge14_Node000014_Node000015" class="edge">
<title>Node14&#45;&gt;Node15</title>
<g id="a_edge14_Node000014_Node000015"><a xlink:title=" ">
<path fill="none" stroke="#63b8ff" d="M679.52,-699.26C674.55,-697.46 669.66,-695.54 665,-693.5 624,-675.58 580.18,-647.16 554.9,-629.74"/>
<polygon fill="#63b8ff" stroke="#63b8ff" points="678.54,-702.62 689.13,-702.57 680.81,-696 678.54,-702.62"/>
</a>
</g>
</g>
<!-- Node16 -->
<g id="Node000016" class="node">
<title>Node16</title>
<g id="a_Node000016"><a xlink:href="classTle92466edHandler.html#afcec01ba90f6596dcde99387ef41b6e4" target="_top" xlink:title="Dump diagnostics to logger.">
<polygon fill="white" stroke="#666666" points="360,-677.5 242,-677.5 242,-647.5 360,-647.5 360,-677.5"/>
<text text-anchor="start" x="250" y="-665.5" font-family="Helvetica,sans-Serif" font-size="10.00">Tle92466edHandler::</text>
<text text-anchor="middle" x="301" y="-654.5" font-family="Helvetica,sans-Serif" font-size="10.00">DumpDiagnostics</text>
</a>
</g>
</g>
<!-- Node15&#45;&gt;Node16 -->
<g id="edge15_Node000015_Node000016" class="edge">
<title>Node15&#45;&gt;Node16</title>
<g id="a_edge15_Node000015_Node000016"><a xlink:title=" ">
<path fill="none" stroke="#63b8ff" d="M456.94,-630.09C425.55,-636.66 389.57,-644.19 360.18,-650.33"/>
<polygon fill="#63b8ff" stroke="#63b8ff" points="457.89,-633.47 466.96,-628 456.46,-626.62 457.89,-633.47"/>
</a>
</g>
</g>
<!-- Node17 -->
<g id="Node000017" class="node">
<title>Node17</title>
<g id="a_Node000017"><a xlink:href="classTle92466edHandler.html#a1a976346516812f7125cdeb2f3aeb327" target="_top" xlink:title="Ensure driver is initialized (lazy init entrypoint).">
<polygon fill="white" stroke="#666666" points="360,-629.5 242,-629.5 242,-599.5 360,-599.5 360,-629.5"/>
<text text-anchor="start" x="250" y="-617.5" font-family="Helvetica,sans-Serif" font-size="10.00">Tle92466edHandler::</text>
<text text-anchor="middle" x="301" y="-606.5" font-family="Helvetica,sans-Serif" font-size="10.00">EnsureInitialized</text>
</a>
</g>
</g>
<!-- Node15&#45;&gt;Node17 -->
<g id="edge16_Node000015_Node000017" class="edge">
<title>Node15&#45;&gt;Node17</title>
<g id="a_edge16_Node000015_Node000017"><a xlink:title=" ">
<path fill="none" stroke="#63b8ff" d="M456.94,-614.5C425.55,-614.5 389.57,-614.5 360.18,-614.5"/>
<polygon fill="#63b8ff" stroke="#63b8ff" points="456.96,-618 466.96,-614.5 456.96,-611 456.96,-618"/>
</a>
</g>
</g>
<!-- Node18 -->
<g id="Node000018" class="node">
<title>Node18</title>
<g id="a_Node000018"><a xlink:href="classTle92466edHandler.html#ae83bbf85e50d68c8adcc2160bdaed271" target="_top" xlink:title="Get the underlying driver for advanced operations.">
<polygon fill="white" stroke="#666666" points="360,-581.5 242,-581.5 242,-551.5 360,-551.5 360,-581.5"/>
<text text-anchor="start" x="250" y="-569.5" font-family="Helvetica,sans-Serif" font-size="10.00">Tle92466edHandler::</text>
<text text-anchor="middle" x="301" y="-558.5" font-family="Helvetica,sans-Serif" font-size="10.00">GetDriver</text>
</a>
</g>
</g>
<!-- Node15&#45;&gt;Node18 -->
<g id="edge17_Node000015_Node000018" class="edge">
<title>Node15&#45;&gt;Node18</title>
<g id="a_edge17_Node000015_Node000018"><a xlink:title=" ">
<path fill="none" stroke="#63b8ff" d="M456.94,-598.91C425.55,-592.34 389.57,-584.81 360.18,-578.67"/>
<polygon fill="#63b8ff" stroke="#63b8ff" points="456.46,-602.38 466.96,-601 457.89,-595.53 456.46,-602.38"/>
</a>
</g>
</g>
<!-- Node20 -->
<g id="Node000020" class="node">
<title>Node20</title>
<g id="a_Node000020"><a xlink:href="classTle92466edHandler.html#aef42f3c7c1b1ef51b27eb8d178aca6bc" target="_top" xlink:title="Execute a lambda with a locked, initialized driver.">
<polygon fill="white" stroke="#666666" points="360,-394.5 242,-394.5 242,-364.5 360,-364.5 360,-394.5"/>
<text text-anchor="start" x="250" y="-382.5" font-family="Helvetica,sans-Serif" font-size="10.00">Tle92466edHandler::</text>
<text text-anchor="middle" x="301" y="-371.5" font-family="Helvetica,sans-Serif" font-size="10.00">withDriver</text>
</a>
</g>
</g>
<!-- Node15&#45;&gt;Node20 -->
<g id="edge19_Node000015_Node000020" class="edge">
<title>Node15&#45;&gt;Node20</title>
<g id="a_edge19_Node000015_Node000020"><a xlink:title=" ">
<path fill="none" stroke="#63b8ff" d="M509.64,-592.12C463.31,-544.68 356.25,-435.05 316.88,-394.74"/>
<polygon fill="#63b8ff" stroke="#63b8ff" points="507.3,-594.73 516.79,-599.44 512.31,-589.84 507.3,-594.73"/>
</a>
</g>
</g>
<!-- Node19 -->
<g id="Node000019" class="node">
<title>Node19</title>
<g id="a_Node000019"><a xlink:href="classTle92466edHandler.html#a56ebe6e509ccd1b6b865728ba14d2533" target="_top" xlink:title=" ">
<polygon fill="white" stroke="#666666" points="142,-610.5 24,-610.5 24,-580.5 142,-580.5 142,-610.5"/>
<text text-anchor="start" x="32" y="-598.5" font-family="Helvetica,sans-Serif" font-size="10.00">Tle92466edHandler::</text>
<text text-anchor="middle" x="83" y="-587.5" font-family="Helvetica,sans-Serif" font-size="10.00">GetDriver</text>
</a>
</g>
</g>
<!-- Node18&#45;&gt;Node19 -->
<g id="edge18_Node000018_Node000019" class="edge">
<title>Node18&#45;&gt;Node19</title>
<g id="a_edge18_Node000018_Node000019"><a xlink:title=" ">
<path fill="none" stroke="#63b8ff" d="M231.85,-575.65C203.07,-579.51 169.89,-583.97 142.27,-587.68"/>
<polygon fill="#63b8ff" stroke="#63b8ff" points="232.39,-579.11 241.83,-574.31 231.45,-572.17 232.39,-579.11"/>
</a>
</g>
</g>
<!-- Node21 -->
<g id="Node000021" class="node">
<title>Node21</title>
<g id="a_Node000021"><a xlink:href="classTle92466edHandler.html#ab3123678e6df690f5669fd89079e0a4e" target="_top" xlink:title="Clear all fault flags.">
<polygon fill="white" stroke="#666666" points="142,-562.5 24,-562.5 24,-532.5 142,-532.5 142,-562.5"/>
<text text-anchor="start" x="32" y="-550.5" font-family="Helvetica,sans-Serif" font-size="10.00">Tle92466edHandler::</text>
<text text-anchor="middle" x="83" y="-539.5" font-family="Helvetica,sans-Serif" font-size="10.00">ClearFaults</text>
</a>
</g>
</g>
<!-- Node20&#45;&gt;Node21 -->
<g id="edge20_Node000020_Node000021" class="edge">
<title>Node20&#45;&gt;Node21</title>
<g id="a_edge20_Node000020_Node000021"><a xlink:title=" ">
<path fill="none" stroke="#63b8ff" d="M284.41,-402.93C261.97,-434.86 217.53,-491.69 166,-523.5 158.68,-528.02 150.47,-531.72 142.14,-534.75"/>
<polygon fill="#63b8ff" stroke="#63b8ff" points="287.34,-404.84 290.15,-394.62 281.58,-400.86 287.34,-404.84"/>
</a>
</g>
</g>
<!-- Node22 -->
<g id="Node000022" class="node">
<title>Node22</title>
<g id="a_Node000022"><a xlink:href="classTle92466edHandler.html#ac37cbbcce53c7a55657ee61cd5015190" target="_top" xlink:title="Disable all channels.">
<polygon fill="white" stroke="#666666" points="142,-514.5 24,-514.5 24,-484.5 142,-484.5 142,-514.5"/>
<text text-anchor="start" x="32" y="-502.5" font-family="Helvetica,sans-Serif" font-size="10.00">Tle92466edHandler::</text>
<text text-anchor="middle" x="83" y="-491.5" font-family="Helvetica,sans-Serif" font-size="10.00">DisableAllChannels</text>
</a>
</g>
</g>
<!-- Node20&#45;&gt;Node22 -->
<g id="edge21_Node000020_Node000022" class="edge">
<title>Node20&#45;&gt;Node22</title>
<g id="a_edge21_Node000020_Node000022"><a xlink:title=" ">
<path fill="none" stroke="#63b8ff" d="M275.27,-401.17C249.54,-422.71 207.33,-455.37 166,-475.5 158.53,-479.14 150.41,-482.33 142.27,-485.1"/>
<polygon fill="#63b8ff" stroke="#63b8ff" points="277.65,-403.73 283.02,-394.59 273.13,-398.39 277.65,-403.73"/>
</a>
</g>
</g>
<!-- Node23 -->
<g id="Node000023" class="node">
<title>Node23</title>
<g id="a_Node000023"><a xlink:href="classTle92466edHandler.html#a1ee30771436827a1499a379aa7e5ab49" target="_top" xlink:title="Enable all channels.">
<polygon fill="white" stroke="#666666" points="142,-466.5 24,-466.5 24,-436.5 142,-436.5 142,-466.5"/>
<text text-anchor="start" x="32" y="-454.5" font-family="Helvetica,sans-Serif" font-size="10.00">Tle92466edHandler::</text>
<text text-anchor="middle" x="83" y="-443.5" font-family="Helvetica,sans-Serif" font-size="10.00">EnableAllChannels</text>
</a>
</g>
</g>
<!-- Node20&#45;&gt;Node23 -->
<g id="edge22_Node000020_Node000023" class="edge">
<title>Node20&#45;&gt;Node23</title>
<g id="a_edge22_Node000020_Node000023"><a xlink:title=" ">
<path fill="none" stroke="#63b8ff" d="M250.36,-398.07C225.21,-407.28 194.11,-418.36 166,-427.5 156.69,-430.53 146.73,-433.59 137.07,-436.47"/>
<polygon fill="#63b8ff" stroke="#63b8ff" points="251.87,-401.25 260.05,-394.51 249.45,-394.68 251.87,-401.25"/>
</a>
</g>
</g>
<!-- Node24 -->
<g id="Node000024" class="node">
<title>Node24</title>
<g id="a_Node000024"><a xlink:href="classTle92466edHandler.html#a19b966bb109b988eb98d319b76908667" target="_top" xlink:title="Enter config mode (for register writes).">
<polygon fill="white" stroke="#666666" points="142,-418.5 24,-418.5 24,-388.5 142,-388.5 142,-418.5"/>
<text text-anchor="start" x="32" y="-406.5" font-family="Helvetica,sans-Serif" font-size="10.00">Tle92466edHandler::</text>
<text text-anchor="middle" x="83" y="-395.5" font-family="Helvetica,sans-Serif" font-size="10.00">EnterConfigMode</text>
</a>
</g>
</g>
<!-- Node20&#45;&gt;Node24 -->
<g id="edge23_Node000020_Node000024" class="edge">
<title>Node20&#45;&gt;Node24</title>
<g id="a_edge23_Node000020_Node000024"><a xlink:title=" ">
<path fill="none" stroke="#63b8ff" d="M231.85,-387.07C203.07,-390.27 169.89,-393.96 142.27,-397.03"/>
<polygon fill="#63b8ff" stroke="#63b8ff" points="232.28,-390.55 241.83,-385.96 231.51,-383.59 232.28,-390.55"/>
</a>
</g>
</g>
<!-- Node25 -->
<g id="Node000025" class="node">
<title>Node25</title>
<g id="a_Node000025"><a xlink:href="classTle92466edHandler.html#aee10ff4c219a042d260a6b1f58a9219a" target="_top" xlink:title="Enter mission mode (enable outputs after configuration).">
<polygon fill="white" stroke="#666666" points="142,-370.5 24,-370.5 24,-340.5 142,-340.5 142,-370.5"/>
<text text-anchor="start" x="32" y="-358.5" font-family="Helvetica,sans-Serif" font-size="10.00">Tle92466edHandler::</text>
<text text-anchor="middle" x="83" y="-347.5" font-family="Helvetica,sans-Serif" font-size="10.00">EnterMissionMode</text>
</a>
</g>
</g>
<!-- Node20&#45;&gt;Node25 -->
<g id="edge24_Node000020_Node000025" class="edge">
<title>Node20&#45;&gt;Node25</title>
<g id="a_edge24_Node000020_Node000025"><a xlink:title=" ">
<path fill="none" stroke="#63b8ff" d="M231.85,-371.93C203.07,-368.73 169.89,-365.04 142.27,-361.97"/>
<polygon fill="#63b8ff" stroke="#63b8ff" points="231.51,-375.41 241.83,-373.04 232.28,-368.45 231.51,-375.41"/>
</a>
</g>
</g>
<!-- Node26 -->
<g id="Node000026" class="node">
<title>Node26</title>
<g id="a_Node000026"><a xlink:href="classTle92466edHandler.html#a4c646ee5db271f07517cc15e8a623f0e" target="_top" xlink:title="Get chip ID (returns 0 on error).">
<polygon fill="white" stroke="#666666" points="142,-322.5 24,-322.5 24,-292.5 142,-292.5 142,-322.5"/>
<text text-anchor="start" x="32" y="-310.5" font-family="Helvetica,sans-Serif" font-size="10.00">Tle92466edHandler::</text>
<text text-anchor="middle" x="83" y="-299.5" font-family="Helvetica,sans-Serif" font-size="10.00">GetChipId</text>
</a>
</g>
</g>
<!-- Node20&#45;&gt;Node26 -->
<g id="edge25_Node000020_Node000026" class="edge">
<title>Node20&#45;&gt;Node26</title>
<g id="a_edge25_Node000020_Node000026"><a xlink:title=" ">
<path fill="none" stroke="#63b8ff" d="M250.36,-360.93C225.21,-351.72 194.11,-340.64 166,-331.5 156.69,-328.47 146.73,-325.41 137.07,-322.53"/>
<polygon fill="#63b8ff" stroke="#63b8ff" points="249.45,-364.32 260.05,-364.49 251.87,-357.75 249.45,-364.32"/>
</a>
</g>
</g>
<!-- Node27 -->
<g id="Node000027" class="node">
<title>Node27</title>
<g id="a_Node000027"><a xlink:href="classTle92466edHandler.html#a0c29d4ada1c9247dc90fb64d914dec1f" target="_top" xlink:title="Get IC version (returns 0 on error).">
<polygon fill="white" stroke="#666666" points="142,-274.5 24,-274.5 24,-244.5 142,-244.5 142,-274.5"/>
<text text-anchor="start" x="32" y="-262.5" font-family="Helvetica,sans-Serif" font-size="10.00">Tle92466edHandler::</text>
<text text-anchor="middle" x="83" y="-251.5" font-family="Helvetica,sans-Serif" font-size="10.00">GetIcVersion</text>
</a>
</g>
</g>
<!-- Node20&#45;&gt;Node27 -->
<g id="edge26_Node000020_Node000027" class="edge">
<title>Node20&#45;&gt;Node27</title>
<g id="a_edge26_Node000020_Node000027"><a xlink:title=" ">
<path fill="none" stroke="#63b8ff" d="M275.27,-357.83C249.54,-336.29 207.33,-303.63 166,-283.5 158.53,-279.86 150.41,-276.67 142.27,-273.9"/>
<polygon fill="#63b8ff" stroke="#63b8ff" points="273.13,-360.61 283.02,-364.41 277.65,-355.27 273.13,-360.61"/>
</a>
</g>
</g>
<!-- Node28 -->
<g id="Node000028" class="node">
<title>Node28</title>
<g id="a_Node000028"><a xlink:href="classTle92466edHandler.html#ab86e6d3eb2dca25154a8fa7c42ddb945" target="_top" xlink:title="Check if any fault is present.">
<polygon fill="white" stroke="#666666" points="142,-226.5 24,-226.5 24,-196.5 142,-196.5 142,-226.5"/>
<text text-anchor="start" x="32" y="-214.5" font-family="Helvetica,sans-Serif" font-size="10.00">Tle92466edHandler::</text>
<text text-anchor="middle" x="83" y="-203.5" font-family="Helvetica,sans-Serif" font-size="10.00">HasFault</text>
</a>
</g>
</g>
<!-- Node20&#45;&gt;Node28 -->
<g id="edge27_Node000020_Node000028" class="edge">
<title>Node20&#45;&gt;Node28</title>
<g id="a_edge27_Node000020_Node000028"><a xlink:title=" ">
<path fill="none" stroke="#63b8ff" d="M284.41,-356.07C261.97,-324.14 217.53,-267.31 166,-235.5 158.68,-230.98 150.47,-227.28 142.14,-224.25"/>
<polygon fill="#63b8ff" stroke="#63b8ff" points="281.58,-358.14 290.15,-364.38 287.34,-354.16 281.58,-358.14"/>
</a>
</g>
</g>
<!-- Node29 -->
<g id="Node000029" class="node">
<title>Node29</title>
<g id="a_Node000029"><a xlink:href="classTle92466edHandler.html#a6bcbd117208f3e44f2216d45541eb4fa" target="_top" xlink:title="Check if in mission mode.">
<polygon fill="white" stroke="#666666" points="142,-178.5 24,-178.5 24,-148.5 142,-148.5 142,-178.5"/>
<text text-anchor="start" x="32" y="-166.5" font-family="Helvetica,sans-Serif" font-size="10.00">Tle92466edHandler::</text>
<text text-anchor="middle" x="83" y="-155.5" font-family="Helvetica,sans-Serif" font-size="10.00">IsMissionMode</text>
</a>
</g>
</g>
<!-- Node20&#45;&gt;Node29 -->
<g id="edge28_Node000020_Node000029" class="edge">
<title>Node20&#45;&gt;Node29</title>
<g id="a_edge28_Node000020_Node000029"><a xlink:title=" ">
<path fill="none" stroke="#63b8ff" d="M289.66,-355.19C271.02,-314.33 227.91,-231.99 166,-187.5 158.89,-182.39 150.71,-178.37 142.32,-175.19"/>
<polygon fill="#63b8ff" stroke="#63b8ff" points="286.5,-356.7 293.76,-364.41 292.89,-353.85 286.5,-356.7"/>
</a>
</g>
</g>
<!-- Node31 -->
<g id="Node000031" class="node">
<title>Node31</title>
<g id="a_Node000031"><a xlink:href="classWs2812Handler.html#afe5f397b22e9b92cf2fb2cebae6e123d" target="_top" xlink:title=" ">
<polygon fill="white" stroke="#666666" points="623,-135.5 442,-135.5 442,-105.5 623,-105.5 623,-135.5"/>
<text text-anchor="start" x="450" y="-123.5" font-family="Helvetica,sans-Serif" font-size="10.00">Ws2812Handler::EnsureInitialized</text>
<text text-anchor="middle" x="532.5" y="-112.5" font-family="Helvetica,sans-Serif" font-size="10.00">Locked</text>
</a>
</g>
</g>
<!-- Node30&#45;&gt;Node31 -->
<g id="edge30_Node000030_Node000031" class="edge">
<title>Node30&#45;&gt;Node31</title>
<g id="a_edge30_Node000030_Node000031"><a xlink:title=" ">
<path fill="none" stroke="#63b8ff" d="M669.6,-659.5C667.99,-658.26 666.45,-656.93 665,-655.5 625.96,-617.02 551.39,-218.42 536.23,-135.54"/>
<polygon fill="#63b8ff" stroke="#63b8ff" points="667.86,-662.54 678.18,-664.96 671.62,-656.64 667.86,-662.54"/>
</a>
</g>
</g>
<!-- Node32 -->
<g id="Node000032" class="node">
<title>Node32</title>
<g id="a_Node000032"><a xlink:href="classWs2812Handler.html#a586683dcf63f17194b77c026972c7b2b" target="_top" xlink:title="Dump diagnostics to logger.">
<polygon fill="white" stroke="#666666" points="394,-204 208,-204 208,-185 394,-185 394,-204"/>
<text text-anchor="middle" x="301" y="-192" font-family="Helvetica,sans-Serif" font-size="10.00">Ws2812Handler::DumpDiagnostics</text>
</a>
</g>
</g>
<!-- Node31&#45;&gt;Node32 -->
<g id="edge31_Node000031_Node000032" class="edge">
<title>Node31&#45;&gt;Node32</title>
<g id="a_edge31_Node000031_Node000032"><a xlink:title=" ">
<path fill="none" stroke="#63b8ff" d="M492.34,-139.88C466.63,-151.92 431.96,-166.89 400,-176.5 388.98,-179.81 377.08,-182.62 365.49,-184.96"/>
<polygon fill="#63b8ff" stroke="#63b8ff" points="493.85,-143.04 501.39,-135.59 490.85,-136.71 493.85,-143.04"/>
</a>
</g>
</g>
<!-- Node33 -->
<g id="Node000033" class="node">
<title>Node33</title>
<g id="a_Node000033"><a xlink:href="classWs2812Handler.html#a764cc93c64a81844a284ac7515ea8366" target="_top" xlink:title="Ensure strip resources are initialized (lazy init entrypoint).">
<polygon fill="white" stroke="#666666" points="391.5,-167 210.5,-167 210.5,-148 391.5,-148 391.5,-167"/>
<text text-anchor="middle" x="301" y="-155" font-family="Helvetica,sans-Serif" font-size="10.00">Ws2812Handler::EnsureInitialized</text>
</a>
</g>
</g>
<!-- Node31&#45;&gt;Node33 -->
<g id="edge32_Node000031_Node000033" class="edge">
<title>Node31&#45;&gt;Node33</title>
<g id="a_edge32_Node000031_Node000033"><a xlink:title=" ">
<path fill="none" stroke="#63b8ff" d="M431.89,-136.56C407.8,-140.44 382.81,-144.47 361.25,-147.95"/>
<polygon fill="#63b8ff" stroke="#63b8ff" points="432.47,-140.01 441.78,-134.96 431.35,-133.1 432.47,-140.01"/>
</a>
</g>
</g>
<!-- Node34 -->
<g id="Node000034" class="node">
<title>Node34</title>
<g id="a_Node000034"><a xlink:href="classWs2812Handler.html#a3e09ba2c15d5b0e7d6d254e22f634ae8" target="_top" xlink:title="Get the animator object.">
<polygon fill="white" stroke="#666666" points="382,-130 220,-130 220,-111 382,-111 382,-130"/>
<text text-anchor="middle" x="301" y="-118" font-family="Helvetica,sans-Serif" font-size="10.00">Ws2812Handler::GetAnimator</text>
</a>
</g>
</g>
<!-- Node31&#45;&gt;Node34 -->
<g id="edge33_Node000031_Node000034" class="edge">
<title>Node31&#45;&gt;Node34</title>
<g id="a_edge33_Node000031_Node000034"><a xlink:title=" ">
<path fill="none" stroke="#63b8ff" d="M431.59,-120.5C415.12,-120.5 398.23,-120.5 382.32,-120.5"/>
<polygon fill="#63b8ff" stroke="#63b8ff" points="431.78,-124 441.78,-120.5 431.78,-117 431.78,-124"/>
</a>
</g>
</g>
<!-- Node36 -->
<g id="Node000036" class="node">
<title>Node36</title>
<g id="a_Node000036"><a xlink:href="classWs2812Handler.html#a7471840392adad3cab496e2dc57dc792" target="_top" xlink:title="Get the underlying LED strip object.">
<polygon fill="white" stroke="#666666" points="371,-93 231,-93 231,-74 371,-74 371,-93"/>
<text text-anchor="middle" x="301" y="-81" font-family="Helvetica,sans-Serif" font-size="10.00">Ws2812Handler::GetStrip</text>
</a>
</g>
</g>
<!-- Node31&#45;&gt;Node36 -->
<g id="edge35_Node000031_Node000036" class="edge">
<title>Node31&#45;&gt;Node36</title>
<g id="a_edge35_Node000031_Node000036"><a xlink:title=" ">
<path fill="none" stroke="#63b8ff" d="M431.89,-104.44C407.8,-100.56 382.81,-96.53 361.25,-93.05"/>
<polygon fill="#63b8ff" stroke="#63b8ff" points="431.35,-107.9 441.78,-106.04 432.47,-100.99 431.35,-107.9"/>
</a>
</g>
</g>
<!-- Node40 -->
<g id="Node000040" class="node">
<title>Node40</title>
<g id="a_Node000040"><a xlink:href="classWs2812Handler.html#ae6bb3e858c86d80d69edc1fced893293" target="_top" xlink:title="Visit animator object with a callable.">
<polygon fill="white" stroke="#666666" points="384,-56 218,-56 218,-37 384,-37 384,-56"/>
<text text-anchor="middle" x="301" y="-44" font-family="Helvetica,sans-Serif" font-size="10.00">Ws2812Handler::visitAnimator</text>
</a>
</g>
</g>
<!-- Node31&#45;&gt;Node40 -->
<g id="edge38_Node000031_Node000040" class="edge">
<title>Node31&#45;&gt;Node40</title>
<g id="a_edge38_Node000031_Node000040"><a xlink:title=" ">
<path fill="none" stroke="#63b8ff" d="M492.34,-101.12C466.63,-89.08 431.96,-74.11 400,-64.5 388.98,-61.19 377.08,-58.38 365.49,-56.04"/>
<polygon fill="#63b8ff" stroke="#63b8ff" points="490.85,-104.29 501.39,-105.41 493.85,-97.96 490.85,-104.29"/>
</a>
</g>
</g>
<!-- Node41 -->
<g id="Node000041" class="node">
<title>Node41</title>
<g id="a_Node000041"><a xlink:href="classWs2812Handler.html#a338df7ac09cd31e3b70d7dd488c1baa6" target="_top" xlink:title="Visit strip driver with a callable.">
<polygon fill="white" stroke="#666666" points="376.5,-19 225.5,-19 225.5,0 376.5,0 376.5,-19"/>
<text text-anchor="middle" x="301" y="-7" font-family="Helvetica,sans-Serif" font-size="10.00">Ws2812Handler::visitDriver</text>
</a>
</g>
</g>
<!-- Node31&#45;&gt;Node41 -->
<g id="edge39_Node000031_Node000041" class="edge">
<title>Node31&#45;&gt;Node41</title>
<g id="a_edge39_Node000031_Node000041"><a xlink:title=" ">
<path fill="none" stroke="#63b8ff" d="M507.25,-98.37C482.25,-76.82 441.21,-44.86 400,-27.5 391.87,-24.08 383.09,-21.3 374.24,-19.05"/>
<polygon fill="#63b8ff" stroke="#63b8ff" points="505.26,-101.28 515.09,-105.24 509.88,-96.02 505.26,-101.28"/>
</a>
</g>
</g>
<!-- Node35 -->
<g id="Node000035" class="node">
<title>Node35</title>
<g id="a_Node000035"><a xlink:href="classWs2812Handler.html#ad564e91a669c0a06f5abde5a3ae8a6a6" target="_top" xlink:title=" ">
<polygon fill="white" stroke="#666666" points="164,-130 2,-130 2,-111 164,-111 164,-130"/>
<text text-anchor="middle" x="83" y="-118" font-family="Helvetica,sans-Serif" font-size="10.00">Ws2812Handler::GetAnimator</text>
</a>
</g>
</g>
<!-- Node34&#45;&gt;Node35 -->
<g id="edge34_Node000034_Node000035" class="edge">
<title>Node34&#45;&gt;Node35</title>
<g id="a_edge34_Node000034_Node000035"><a xlink:title=" ">
<path fill="none" stroke="#63b8ff" d="M209.57,-120.5C194.57,-120.5 179.09,-120.5 164.35,-120.5"/>
<polygon fill="#63b8ff" stroke="#63b8ff" points="209.88,-124 219.88,-120.5 209.88,-117 209.88,-124"/>
</a>
</g>
</g>
<!-- Node37 -->
<g id="Node000037" class="node">
<title>Node37</title>
<g id="a_Node000037"><a xlink:href="classWs2812Handler.html#a2511358625ce2eeb89eae9ca17495b6c" target="_top" xlink:title="Naming&#45;consistent alias of GetStrip().">
<polygon fill="#fff0f0" stroke="red" points="156.5,-93 9.5,-93 9.5,-74 156.5,-74 156.5,-93"/>
<text text-anchor="middle" x="83" y="-81" font-family="Helvetica,sans-Serif" font-size="10.00">Ws2812Handler::GetDriver</text>
</a>
</g>
</g>
<!-- Node36&#45;&gt;Node37 -->
<g id="edge36_Node000036_Node000037" class="edge">
<title>Node36&#45;&gt;Node37</title>
<g id="a_edge36_Node000036_Node000037"><a xlink:title=" ">
<path fill="none" stroke="#63b8ff" d="M220.61,-83.5C199.65,-83.5 177.14,-83.5 156.56,-83.5"/>
<polygon fill="#63b8ff" stroke="#63b8ff" points="220.77,-87 230.76,-83.5 220.76,-80 220.77,-87"/>
</a>
</g>
</g>
<!-- Node39 -->
<g id="Node000039" class="node">
<title>Node39</title>
<g id="a_Node000039"><a xlink:href="classWs2812Handler.html#af97f5cc26ad1fb0f4722e72346ca7caa" target="_top" xlink:title=" ">
<polygon fill="white" stroke="#666666" points="153,-56 13,-56 13,-37 153,-37 153,-56"/>
<text text-anchor="middle" x="83" y="-44" font-family="Helvetica,sans-Serif" font-size="10.00">Ws2812Handler::GetStrip</text>
</a>
</g>
</g>
<!-- Node36&#45;&gt;Node39 -->
<g id="edge37_Node000036_Node000039" class="edge">
<title>Node36&#45;&gt;Node39</title>
<g id="a_edge37_Node000036_Node000039"><a xlink:title=" ">
<path fill="none" stroke="#63b8ff" d="M234.35,-72.25C204.15,-67.08 168.7,-61.01 139.81,-56.06"/>
<polygon fill="#63b8ff" stroke="#63b8ff" points="233.93,-75.73 244.37,-73.97 235.11,-68.83 233.93,-75.73"/>
</a>
</g>
</g>
<!-- Node46 -->
<g id="Node000046" class="node">
<title>Node46</title>
<g id="a_Node000046"><a xlink:href="classTmc5160Handler.html#a6d4fce2433e03bb11b05a4278ef66fd0" target="_top" xlink:title=" ">
<polygon fill="white" stroke="#666666" points="626,-905.5 439,-905.5 439,-875.5 626,-875.5 626,-905.5"/>
<text text-anchor="start" x="447" y="-893.5" font-family="Helvetica,sans-Serif" font-size="10.00">Tmc5160Handler::EnsureInitialized</text>
<text text-anchor="middle" x="532.5" y="-882.5" font-family="Helvetica,sans-Serif" font-size="10.00">Locked</text>
</a>
</g>
</g>
<!-- Node45&#45;&gt;Node46 -->
<g id="edge44_Node000045_Node000046" class="edge">
<title>Node45&#45;&gt;Node46</title>
<g id="a_edge44_Node000045_Node000046"><a xlink:title=" ">
<path fill="none" stroke="#63b8ff" d="M700.27,-847.64C668.4,-855.83 626.13,-866.69 592.12,-875.43"/>
<polygon fill="#63b8ff" stroke="#63b8ff" points="701.41,-850.96 710.22,-845.08 699.67,-844.18 701.41,-850.96"/>
</a>
</g>
</g>
<!-- Node46&#45;&gt;Node2 -->
<g id="edge48_Node000046_Node000002" class="edge">
<title>Node46&#45;&gt;Node2</title>
<g id="a_edge48_Node000046_Node000002"><a xlink:title=" ">
<path fill="none" stroke="#63b8ff" d="M492.34,-909.88C466.63,-921.92 431.96,-936.89 400,-946.5 388.98,-949.81 377.08,-952.62 365.49,-954.96"/>
<polygon fill="#63b8ff" stroke="#63b8ff" points="493.85,-913.04 501.39,-905.59 490.85,-906.71 493.85,-913.04"/>
</a>
</g>
</g>
<!-- Node47 -->
<g id="Node000047" class="node">
<title>Node47</title>
<g id="a_Node000047"><a xlink:href="classTmc5160Handler.html#a15dae0f711e2dd4ecea09822b8a3a8bb" target="_top" xlink:title="Get typed SPI driver pointer (null if UART mode or not initialized).">
<polygon fill="#fff0f0" stroke="red" points="383.5,-937 218.5,-937 218.5,-918 383.5,-918 383.5,-937"/>
<text text-anchor="middle" x="301" y="-925" font-family="Helvetica,sans-Serif" font-size="10.00">Tmc5160Handler::driverViaSpi</text>
</a>
</g>
</g>
<!-- Node46&#45;&gt;Node47 -->
<g id="edge45_Node000046_Node000047" class="edge">
<title>Node46&#45;&gt;Node47</title>
<g id="a_edge45_Node000046_Node000047"><a xlink:title=" ">
<path fill="none" stroke="#63b8ff" d="M428.91,-907.04C405.67,-910.79 381.76,-914.64 361.04,-917.98"/>
<polygon fill="#63b8ff" stroke="#63b8ff" points="429.5,-910.49 438.82,-905.44 428.39,-903.58 429.5,-910.49"/>
</a>
</g>
</g>
<!-- Node51 -->
<g id="Node000051" class="node">
<title>Node51</title>
<g id="a_Node000051"><a xlink:href="classTmc5160Handler.html#af8cb1c7b5011bd24102d296f22c211c5" target="_top" xlink:title="Get typed UART driver pointer (null if SPI mode or not initialized).">
<polygon fill="#fff0f0" stroke="red" points="386.5,-900 215.5,-900 215.5,-881 386.5,-881 386.5,-900"/>
<text text-anchor="middle" x="301" y="-888" font-family="Helvetica,sans-Serif" font-size="10.00">Tmc5160Handler::driverViaUart</text>
</a>
</g>
</g>
<!-- Node46&#45;&gt;Node51 -->
<g id="edge47_Node000046_Node000051" class="edge">
<title>Node46&#45;&gt;Node51</title>
<g id="a_edge47_Node000046_Node000051"><a xlink:title=" ">
<path fill="none" stroke="#63b8ff" d="M428.62,-890.5C414.53,-890.5 400.21,-890.5 386.51,-890.5"/>
<polygon fill="#63b8ff" stroke="#63b8ff" points="428.82,-894 438.82,-890.5 428.82,-887 428.82,-894"/>
</a>
</g>
</g>
<!-- Node53 -->
<g id="Node000053" class="node">
<title>Node53</title>
<g id="a_Node000053"><a xlink:href="classTmc5160Handler.html#a5ad276d4fcd81765d0a5af064fdbf7b5" target="_top" xlink:title="Ensure driver is initialized (lazy init entrypoint).">
<polygon fill="#fff0f0" stroke="red" points="394.5,-863 207.5,-863 207.5,-844 394.5,-844 394.5,-863"/>
<text text-anchor="middle" x="301" y="-851" font-family="Helvetica,sans-Serif" font-size="10.00">Tmc5160Handler::EnsureInitialized</text>
</a>
</g>
</g>
<!-- Node46&#45;&gt;Node53 -->
<g id="edge49_Node000046_Node000053" class="edge">
<title>Node46&#45;&gt;Node53</title>
<g id="a_edge49_Node000046_Node000053"><a xlink:title=" ">
<path fill="none" stroke="#63b8ff" d="M428.91,-873.96C405.67,-870.21 381.76,-866.36 361.04,-863.02"/>
<polygon fill="#63b8ff" stroke="#63b8ff" points="428.39,-877.42 438.82,-875.56 429.5,-870.51 428.39,-877.42"/>
</a>
</g>
</g>
<!-- Node48 -->
<g id="Node000048" class="node">
<title>Node48</title>
<g id="a_Node000048"><a xlink:href="classTmc5160Handler.html#aa47c7b0c69a35aa3f9e9c6fc8d2bd95c" target="_top" xlink:title=" ">
<polygon fill="white" stroke="#666666" points="165.5,-937 0.5,-937 0.5,-918 165.5,-918 165.5,-937"/>
<text text-anchor="middle" x="83" y="-925" font-family="Helvetica,sans-Serif" font-size="10.00">Tmc5160Handler::driverViaSpi</text>
</a>
</g>
</g>
<!-- Node47&#45;&gt;Node48 -->
<g id="edge46_Node000047_Node000048" class="edge">
<title>Node47&#45;&gt;Node48</title>
<g id="a_edge46_Node000047_Node000048"><a xlink:title=" ">
<path fill="none" stroke="#63b8ff" d="M208.17,-927.5C194.08,-927.5 179.62,-927.5 165.78,-927.5"/>
<polygon fill="#63b8ff" stroke="#63b8ff" points="208.34,-931 218.34,-927.5 208.34,-924 208.34,-931"/>
</a>
</g>
</g>
</g>
</svg>
