<?xml version="1.0" encoding="UTF-8" standalone="no"?>
<!DOCTYPE svg PUBLIC "-//W3C//DTD SVG 1.1//EN"
 "http://www.w3.org/Graphics/SVG/1.1/DTD/svg11.dtd">
<!-- Generated by graphviz version 2.43.0 (0)
 -->
<!-- Title: NtcTemperatureHandler::Initialize Pages: 1 -->
<svg width="648pt" height="254pt"
 viewBox="0.00 0.00 648.00 253.82" xmlns="http://www.w3.org/2000/svg" xmlns:xlink="http://www.w3.org/1999/xlink">
<g id="graph0" class="graph" transform="scale(1 1) rotate(0) translate(4 249.82)">
<title>NtcTemperatureHandler::Initialize</title>
<!-- Node1 -->
<g id="Node000001" class="node">
<title>Node1</title>
<g id="a_Node000001"><a xlink:title=" ">
<polygon fill="#999999" stroke="#666666" points="133,-154 0,-154 0,-124 133,-124 133,-154"/>
<text text-anchor="start" x="8" y="-142" font-family="Helvetica,sans-Serif" font-size="10.00">NtcTemperatureHandler</text>
<text text-anchor="middle" x="66.5" y="-131" font-family="Helvetica,sans-Serif" font-size="10.00">::Initialize</text>
</a>
</g>
</g>
<!-- Node2 -->
<g id="Node000002" class="node">
<title>Node2</title>
<g id="a_Node000002"><a xlink:href="classNtcTemperatureHandler.html#ae3ed02cf4cd05dd73a3e9a42f9219f3e" target="_top" xlink:title=" ">
<polygon fill="white" stroke="#666666" points="325,-202 169,-202 169,-172 325,-172 325,-202"/>
<text text-anchor="start" x="177" y="-190" font-family="Helvetica,sans-Serif" font-size="10.00">NtcTemperatureHandler</text>
<text text-anchor="middle" x="247" y="-179" font-family="Helvetica,sans-Serif" font-size="10.00">::EnableThresholdMonitoring</text>
</a>
</g>
</g>
<!-- Node1&#45;&gt;Node2 -->
<g id="edge1_Node000001_Node000002" class="edge">
<title>Node1&#45;&gt;Node2</title>
<g id="a_edge1_Node000001_Node000002"><a xlink:title=" ">
<path fill="none" stroke="#63b8ff" d="M123.49,-154.06C141.52,-158.9 161.65,-164.32 180.31,-169.34"/>
<polygon fill="#63b8ff" stroke="#63b8ff" points="179.64,-172.78 190.21,-172 181.46,-166.02 179.64,-172.78"/>
</a>
</g>
</g>
<!-- Node3 -->
<g id="Node000003" class="node">
<title>Node3</title>
<g id="a_Node000003"><a xlink:href="classLogger.html#a5789d11f8f1356e2192c0023a089cbc4" target="_top" xlink:title="Get singleton instance.">
<polygon fill="white" stroke="#666666" points="475,-193.5 361,-193.5 361,-174.5 475,-174.5 475,-193.5"/>
<text text-anchor="middle" x="418" y="-181.5" font-family="Helvetica,sans-Serif" font-size="10.00">Logger::GetInstance</text>
</a>
</g>
</g>
<!-- Node1&#45;&gt;Node3 -->
<g id="edge9_Node000001_Node000003" class="edge">
<title>Node1&#45;&gt;Node3</title>
<g id="a_edge9_Node000001_Node000003"><a xlink:title=" ">
<path fill="none" stroke="#63b8ff" d="M82.32,-154.14C100.73,-171.76 134.01,-199.85 169,-211 242.01,-234.26 332.55,-212.48 381.52,-196.8"/>
<polygon fill="#63b8ff" stroke="#63b8ff" points="382.92,-200.02 391.32,-193.56 380.73,-193.38 382.92,-200.02"/>
</a>
</g>
</g>
<!-- Node4 -->
<g id="Node000004" class="node">
<title>Node4</title>
<g id="a_Node000004"><a xlink:href="classLogger.html#a1c0c947d87884bca0395fd38d19d1102" target="_top" xlink:title="Log info message.">
<polygon fill="white" stroke="#666666" points="455,-153.5 381,-153.5 381,-134.5 455,-134.5 455,-153.5"/>
<text text-anchor="middle" x="418" y="-141.5" font-family="Helvetica,sans-Serif" font-size="10.00">Logger::Info</text>
</a>
</g>
</g>
<!-- Node1&#45;&gt;Node4 -->
<g id="edge10_Node000001_Node000004" class="edge">
<title>Node1&#45;&gt;Node4</title>
<g id="a_edge10_Node000001_Node000004"><a xlink:title=" ">
<path fill="none" stroke="#63b8ff" d="M120.82,-123.94C136.23,-120.26 153.17,-116.85 169,-115 237.87,-106.97 256.47,-104.46 325,-115 326.43,-115.22 353.05,-123.63 377.28,-131.33"/>
<polygon fill="#63b8ff" stroke="#63b8ff" points="376.5,-134.76 387.09,-134.46 378.63,-128.09 376.5,-134.76"/>
</a>
</g>
</g>
<!-- Node7 -->
<g id="Node000007" class="node">
<title>Node7</title>
<g id="a_Node000007"><a xlink:href="classLogger.html#a5e4bcdaea60b9ac227b564d780388769" target="_top" xlink:title="Log error message.">
<polygon fill="white" stroke="#666666" points="457.5,-116.5 378.5,-116.5 378.5,-97.5 457.5,-97.5 457.5,-116.5"/>
<text text-anchor="middle" x="418" y="-104.5" font-family="Helvetica,sans-Serif" font-size="10.00">Logger::Error</text>
</a>
</g>
</g>
<!-- Node1&#45;&gt;Node7 -->
<g id="edge6_Node000001_Node000007" class="edge">
<title>Node1&#45;&gt;Node7</title>
<g id="a_edge6_Node000001_Node000007"><a xlink:title=" ">
<path fill="none" stroke="#63b8ff" d="M101.98,-123.91C121.28,-116.29 146.02,-107.85 169,-104 237.39,-92.54 317.88,-96.69 368.18,-101.34"/>
<polygon fill="#63b8ff" stroke="#63b8ff" points="368.15,-104.85 378.44,-102.33 368.82,-97.88 368.15,-104.85"/>
</a>
</g>
</g>
<!-- Node8 -->
<g id="Node000008" class="node">
<title>Node8</title>
<g id="a_Node000008"><a xlink:href="classNtcTemperatureHandler.html#a5b148f36777ccff9fb633e3f4e99050f" target="_top" xlink:title="Set last error in diagnostics.">
<polygon fill="white" stroke="#666666" points="313.5,-30 180.5,-30 180.5,0 313.5,0 313.5,-30"/>
<text text-anchor="start" x="188.5" y="-18" font-family="Helvetica,sans-Serif" font-size="10.00">NtcTemperatureHandler</text>
<text text-anchor="middle" x="247" y="-7" font-family="Helvetica,sans-Serif" font-size="10.00">::SetLastError</text>
</a>
</g>
</g>
<!-- Node1&#45;&gt;Node8 -->
<g id="edge11_Node000001_Node000008" class="edge">
<title>Node1&#45;&gt;Node8</title>
<g id="a_edge11_Node000001_Node000008"><a xlink:title=" ">
<path fill="none" stroke="#63b8ff" d="M80.17,-123.89C98.09,-103.34 132.72,-66.56 169,-44 174.79,-40.4 181.09,-37.14 187.52,-34.21"/>
<polygon fill="#63b8ff" stroke="#63b8ff" points="189.16,-37.31 196.98,-30.16 186.41,-30.88 189.16,-37.31"/>
</a>
</g>
</g>
<!-- Node9 -->
<g id="Node000009" class="node">
<title>Node9</title>
<g id="a_Node000009"><a xlink:href="classNtcTemperatureHandler.html#a275ae5ee2756034dcaa99f3877d8e1f0" target="_top" xlink:title=" ">
<polygon fill="white" stroke="#666666" points="313.5,-154 180.5,-154 180.5,-124 313.5,-124 313.5,-154"/>
<text text-anchor="start" x="188.5" y="-142" font-family="Helvetica,sans-Serif" font-size="10.00">NtcTemperatureHandler</text>
<text text-anchor="middle" x="247" y="-131" font-family="Helvetica,sans-Serif" font-size="10.00">::SetThresholds</text>
</a>
</g>
</g>
<!-- Node1&#45;&gt;Node9 -->
<g id="edge12_Node000001_Node000009" class="edge">
<title>Node1&#45;&gt;Node9</title>
<g id="a_edge12_Node000001_Node000009"><a xlink:title=" ">
<path fill="none" stroke="#63b8ff" d="M133.21,-139C145.24,-139 157.9,-139 170.2,-139"/>
<polygon fill="#63b8ff" stroke="#63b8ff" points="170.43,-142.5 180.43,-139 170.43,-135.5 170.43,-142.5"/>
</a>
</g>
</g>
<!-- Node10 -->
<g id="Node000010" class="node">
<title>Node10</title>
<g id="a_Node000010"><a xlink:href="classLogger.html#a8c19c14724b0be1d2be63da4258c001a" target="_top" xlink:title="Log warning message.">
<polygon fill="white" stroke="#666666" points="458,-230.5 378,-230.5 378,-211.5 458,-211.5 458,-230.5"/>
<text text-anchor="middle" x="418" y="-218.5" font-family="Helvetica,sans-Serif" font-size="10.00">Logger::Warn</text>
</a>
</g>
</g>
<!-- Node1&#45;&gt;Node10 -->
<g id="edge15_Node000001_Node000010" class="edge">
<title>Node1&#45;&gt;Node10</title>
<g id="a_edge15_Node000001_Node000010"><a xlink:title=" ">
<path fill="none" stroke="#63b8ff" d="M78.51,-154.27C95.2,-175.97 129.21,-214.78 169,-230 236.2,-255.71 321.26,-244.05 372.28,-232.83"/>
<polygon fill="#63b8ff" stroke="#63b8ff" points="373.36,-236.18 382.32,-230.53 371.79,-229.35 373.36,-236.18"/>
</a>
</g>
</g>
<!-- Node2&#45;&gt;Node3 -->
<g id="edge2_Node000002_Node000003" class="edge">
<title>Node2&#45;&gt;Node3</title>
<g id="a_edge2_Node000002_Node000003"><a xlink:title=" ">
<path fill="none" stroke="#63b8ff" d="M325.08,-185.63C333.62,-185.48 342.27,-185.33 350.66,-185.18"/>
<polygon fill="#63b8ff" stroke="#63b8ff" points="350.81,-188.68 360.75,-185 350.69,-181.68 350.81,-188.68"/>
</a>
</g>
</g>
<!-- Node2&#45;&gt;Node4 -->
<g id="edge3_Node000002_Node000004" class="edge">
<title>Node2&#45;&gt;Node4</title>
<g id="a_edge3_Node000002_Node000004"><a xlink:title=" ">
<path fill="none" stroke="#63b8ff" d="M307.11,-171.96C328.02,-166.64 351.22,-160.74 370.89,-155.73"/>
<polygon fill="#63b8ff" stroke="#63b8ff" points="372,-159.06 380.83,-153.2 370.28,-152.28 372,-159.06"/>
</a>
</g>
</g>
<!-- Node5 -->
<g id="Node000005" class="node">
<title>Node5</title>
<g id="a_Node000005"><a xlink:href="classLogger.html#a737b981213c02321a5235848334d7191" target="_top" xlink:title="Check if log level is enabled for tag.">
<polygon fill="white" stroke="#666666" points="640,-171.5 511,-171.5 511,-152.5 640,-152.5 640,-171.5"/>
<text text-anchor="middle" x="575.5" y="-159.5" font-family="Helvetica,sans-Serif" font-size="10.00">Logger::IsLevelEnabled</text>
</a>
</g>
</g>
<!-- Node4&#45;&gt;Node5 -->
<g id="edge4_Node000004_Node000005" class="edge">
<title>Node4&#45;&gt;Node5</title>
<g id="a_edge4_Node000004_Node000005"><a xlink:title=" ">
<path fill="none" stroke="#63b8ff" d="M455.07,-148.17C468.68,-149.75 484.72,-151.61 500.55,-153.44"/>
<polygon fill="#63b8ff" stroke="#63b8ff" points="500.55,-156.96 510.89,-154.64 501.36,-150.01 500.55,-156.96"/>
</a>
</g>
</g>
<!-- Node6 -->
<g id="Node000006" class="node">
<title>Node6</title>
<g id="a_Node000006"><a xlink:href="classLogger.html#aeede6ac18db92a47caede076ef188a13" target="_top" xlink:title="Internal logging method.">
<polygon fill="white" stroke="#666666" points="630.5,-134.5 520.5,-134.5 520.5,-115.5 630.5,-115.5 630.5,-134.5"/>
<text text-anchor="middle" x="575.5" y="-122.5" font-family="Helvetica,sans-Serif" font-size="10.00">Logger::LogInternal</text>
</a>
</g>
</g>
<!-- Node4&#45;&gt;Node6 -->
<g id="edge5_Node000004_Node000006" class="edge">
<title>Node4&#45;&gt;Node6</title>
<g id="a_edge5_Node000004_Node000006"><a xlink:title=" ">
<path fill="none" stroke="#63b8ff" d="M455.07,-139.59C471.49,-137.59 491.44,-135.15 510.3,-132.84"/>
<polygon fill="#63b8ff" stroke="#63b8ff" points="510.83,-136.31 520.33,-131.62 509.98,-129.36 510.83,-136.31"/>
</a>
</g>
</g>
<!-- Node7&#45;&gt;Node5 -->
<g id="edge7_Node000007_Node000005" class="edge">
<title>Node7&#45;&gt;Node5</title>
<g id="a_edge7_Node000007_Node000005"><a xlink:title=" ">
<path fill="none" stroke="#63b8ff" d="M449.51,-116.51C457.86,-119.34 466.85,-122.6 475,-126 491.51,-132.89 494.32,-137.53 511,-144 516.07,-145.97 521.45,-147.83 526.85,-149.55"/>
<polygon fill="#63b8ff" stroke="#63b8ff" points="525.92,-152.92 536.51,-152.49 527.96,-146.23 525.92,-152.92"/>
</a>
</g>
</g>
<!-- Node7&#45;&gt;Node6 -->
<g id="edge8_Node000007_Node000006" class="edge">
<title>Node7&#45;&gt;Node6</title>
<g id="a_edge8_Node000007_Node000006"><a xlink:title=" ">
<path fill="none" stroke="#63b8ff" d="M457.84,-111.5C473.63,-113.32 492.31,-115.49 510.03,-117.54"/>
<polygon fill="#63b8ff" stroke="#63b8ff" points="510,-121.06 520.33,-118.73 510.8,-114.1 510,-121.06"/>
</a>
</g>
</g>
<!-- Node9&#45;&gt;Node3 -->
<g id="edge13_Node000009_Node000003" class="edge">
<title>Node9&#45;&gt;Node3</title>
<g id="a_edge13_Node000009_Node000003"><a xlink:title=" ">
<path fill="none" stroke="#63b8ff" d="M304.74,-154.11C326.5,-159.9 351.02,-166.43 371.58,-171.9"/>
<polygon fill="#63b8ff" stroke="#63b8ff" points="370.76,-175.31 381.32,-174.5 372.56,-168.54 370.76,-175.31"/>
</a>
</g>
</g>
<!-- Node9&#45;&gt;Node4 -->
<g id="edge14_Node000009_Node000004" class="edge">
<title>Node9&#45;&gt;Node4</title>
<g id="a_edge14_Node000009_Node000004"><a xlink:title=" ">
<path fill="none" stroke="#63b8ff" d="M313.82,-140.95C332.7,-141.51 352.89,-142.1 370.36,-142.62"/>
<polygon fill="#63b8ff" stroke="#63b8ff" points="370.75,-146.13 380.85,-142.93 370.96,-139.14 370.75,-146.13"/>
</a>
</g>
</g>
<!-- Node10&#45;&gt;Node5 -->
<g id="edge16_Node000010_Node000005" class="edge">
<title>Node10&#45;&gt;Node5</title>
<g id="a_edge16_Node000010_Node000005"><a xlink:title=" ">
<path fill="none" stroke="#63b8ff" d="M450.25,-211.44C458.36,-208.83 467.04,-205.91 475,-203 498.11,-194.54 523.79,-183.93 543.27,-175.62"/>
<polygon fill="#63b8ff" stroke="#63b8ff" points="544.76,-178.79 552.57,-171.63 542,-172.36 544.76,-178.79"/>
</a>
</g>
</g>
<!-- Node10&#45;&gt;Node6 -->
<g id="edge17_Node000010_Node000006" class="edge">
<title>Node10&#45;&gt;Node6</title>
<g id="a_edge17_Node000010_Node000006"><a xlink:title=" ">
<path fill="none" stroke="#63b8ff" d="M458.17,-212.4C464.18,-209.99 470.03,-206.92 475,-203 499.14,-184 486.67,-162.76 511,-144 513.43,-142.13 516.04,-140.44 518.77,-138.92"/>
<polygon fill="#63b8ff" stroke="#63b8ff" points="520.29,-142.07 527.8,-134.6 517.27,-135.75 520.29,-142.07"/>
</a>
</g>
</g>
</g>
</svg>
