<?xml version="1.0" encoding="UTF-8" standalone="no"?>
<!DOCTYPE svg PUBLIC "-//W3C//DTD SVG 1.1//EN"
 "http://www.w3.org/Graphics/SVG/1.1/DTD/svg11.dtd">
<!-- Generated by graphviz version 2.43.0 (0)
 -->
<!-- Title: Tmc5160Handler Pages: 1 -->
<svg width="817pt" height="180pt"
 viewBox="0.00 0.00 817.00 179.50" xmlns="http://www.w3.org/2000/svg" xmlns:xlink="http://www.w3.org/1999/xlink">
<g id="graph0" class="graph" transform="scale(1 1) rotate(0) translate(4 175.5)">
<title>Tmc5160Handler</title>
<!-- Node1 -->
<g id="Node000001" class="node">
<title>Node1</title>
<g id="a_Node000001"><a xlink:title="Unified handler for TMC5160/TMC5130 stepper motor driver.">
<polygon fill="#999999" stroke="#666666" points="809,-73 709,-73 709,-54 809,-54 809,-73"/>
<text text-anchor="middle" x="759" y="-61" font-family="Helvetica,sans-Serif" font-size="10.00">Tmc5160Handler</text>
</a>
</g>
</g>
<!-- Node2 -->
<g id="Node000002" class="node">
<title>Node2</title>
<g id="a_Node000002"><a xlink:title=" ">
<polygon fill="white" stroke="#666666" points="609,-152.5 432,-152.5 432,-122.5 609,-122.5 609,-152.5"/>
<text text-anchor="start" x="440" y="-140.5" font-family="Helvetica,sans-Serif" font-size="10.00">std::unique_ptr&lt; HalSpiTmc5160</text>
<text text-anchor="middle" x="520.5" y="-129.5" font-family="Helvetica,sans-Serif" font-size="10.00">Comm &gt;</text>
</a>
</g>
</g>
<!-- Node2&#45;&gt;Node1 -->
<g id="edge1_Node000001_Node000002" class="edge">
<title>Node2&#45;&gt;Node1</title>
<g id="a_edge1_Node000001_Node000002"><a xlink:title=" ">
<path fill="none" stroke="#9a32cd" stroke-dasharray="5,2" d="M594.5,-119.92C624.65,-112.09 659.78,-102.21 691,-91.5 706.74,-86.1 724.06,-78.83 737.15,-73.04"/>
<polygon fill="#9a32cd" stroke="#9a32cd" points="593.29,-116.62 584.48,-122.5 595.04,-123.4 593.29,-116.62"/>
</a>
</g>
<text text-anchor="middle" x="659" y="-112.5" font-family="Helvetica,sans-Serif" font-size="10.00" fill="grey"> spi_comm_</text>
</g>
<!-- Node3 -->
<g id="Node000003" class="node">
<title>Node3</title>
<g id="a_Node000003"><a xlink:href="classHalSpiTmc5160Comm.html" target="_top" xlink:title="Concrete SPI communication adapter for TMC5160 using BaseSpi and BaseGpio.">
<polygon fill="white" stroke="#666666" points="376,-147 251,-147 251,-128 376,-128 376,-147"/>
<text text-anchor="middle" x="313.5" y="-135" font-family="Helvetica,sans-Serif" font-size="10.00">HalSpiTmc5160Comm</text>
</a>
</g>
</g>
<!-- Node3&#45;&gt;Node2 -->
<g id="edge2_Node000002_Node000003" class="edge">
<title>Node3&#45;&gt;Node2</title>
<g id="a_edge2_Node000002_Node000003"><a xlink:title=" ">
<path fill="none" stroke="#9a32cd" stroke-dasharray="5,2" d="M386.08,-137.5C400.87,-137.5 416.6,-137.5 431.89,-137.5"/>
<polygon fill="#9a32cd" stroke="#9a32cd" points="386.01,-134 376.01,-137.5 386.01,-141 386.01,-134"/>
</a>
</g>
<text text-anchor="middle" x="405.5" y="-140.5" font-family="Helvetica,sans-Serif" font-size="10.00" fill="grey"> ptr</text>
</g>
<!-- Node4 -->
<g id="Node000004" class="node">
<title>Node4</title>
<g id="a_Node000004"><a xlink:title=" ">
<polygon fill="white" stroke="#666666" points="159,-171.5 3,-171.5 3,-141.5 159,-141.5 159,-171.5"/>
<text text-anchor="start" x="11" y="-159.5" font-family="Helvetica,sans-Serif" font-size="10.00">tmc51x0::SpiCommInterface</text>
<text text-anchor="middle" x="81" y="-148.5" font-family="Helvetica,sans-Serif" font-size="10.00">&lt; HalSpiTmc5160Comm &gt;</text>
</a>
</g>
</g>
<!-- Node4&#45;&gt;Node3 -->
<g id="edge3_Node000003_Node000004" class="edge">
<title>Node4&#45;&gt;Node3</title>
<g id="a_edge3_Node000003_Node000004"><a xlink:title=" ">
<path fill="none" stroke="#63b8ff" d="M169.35,-149.3C196.48,-147.06 225.8,-144.65 250.79,-142.59"/>
<polygon fill="#63b8ff" stroke="#63b8ff" points="168.75,-145.84 159.07,-150.15 169.33,-152.81 168.75,-145.84"/>
</a>
</g>
</g>
<!-- Node5 -->
<g id="Node000005" class="node">
<title>Node5</title>
<g id="a_Node000005"><a xlink:href="structTmc5160CtrlPins.html" target="_top" xlink:title="Shared helper holding TMC5160 host&#45;side control pin references.">
<polygon fill="white" stroke="#666666" points="130.5,-120 31.5,-120 31.5,-101 130.5,-101 130.5,-120"/>
<text text-anchor="middle" x="81" y="-108" font-family="Helvetica,sans-Serif" font-size="10.00">Tmc5160CtrlPins</text>
</a>
</g>
</g>
<!-- Node5&#45;&gt;Node3 -->
<g id="edge4_Node000003_Node000005" class="edge">
<title>Node5&#45;&gt;Node3</title>
<g id="a_edge4_Node000003_Node000005"><a xlink:title=" ">
<path fill="none" stroke="#9a32cd" stroke-dasharray="5,2" d="M140.76,-117.38C174.42,-121.33 216.63,-126.27 250.78,-130.27"/>
<polygon fill="#9a32cd" stroke="#9a32cd" points="140.94,-113.88 130.6,-116.19 140.13,-120.83 140.94,-113.88"/>
</a>
</g>
<text text-anchor="middle" x="205" y="-129.5" font-family="Helvetica,sans-Serif" font-size="10.00" fill="grey"> ctrl_pins_</text>
</g>
<!-- Node7 -->
<g id="Node000007" class="node">
<title>Node7</title>
<g id="a_Node000007"><a xlink:href="classHalUartTmc5160Comm.html" target="_top" xlink:title="Concrete UART communication adapter for TMC5160 using BaseUart and BaseGpio.">
<polygon fill="white" stroke="#666666" points="379,-99 248,-99 248,-80 379,-80 379,-99"/>
<text text-anchor="middle" x="313.5" y="-87" font-family="Helvetica,sans-Serif" font-size="10.00">HalUartTmc5160Comm</text>
</a>
</g>
</g>
<!-- Node5&#45;&gt;Node7 -->
<g id="edge8_Node000007_Node000005" class="edge">
<title>Node5&#45;&gt;Node7</title>
<g id="a_edge8_Node000007_Node000005"><a xlink:title=" ">
<path fill="none" stroke="#9a32cd" stroke-dasharray="5,2" d="M140.7,-102.02C153.63,-100.34 167.26,-98.73 180,-97.5 202.02,-95.38 226.16,-93.72 247.73,-92.48"/>
<polygon fill="#9a32cd" stroke="#9a32cd" points="139.98,-98.58 130.52,-103.36 140.89,-105.52 139.98,-98.58"/>
</a>
</g>
<text text-anchor="middle" x="205" y="-100.5" font-family="Helvetica,sans-Serif" font-size="10.00" fill="grey"> ctrl_pins_</text>
</g>
<!-- Node6 -->
<g id="Node000006" class="node">
<title>Node6</title>
<g id="a_Node000006"><a xlink:title=" ">
<polygon fill="white" stroke="#666666" points="589.5,-104.5 451.5,-104.5 451.5,-74.5 589.5,-74.5 589.5,-104.5"/>
<text text-anchor="start" x="459.5" y="-92.5" font-family="Helvetica,sans-Serif" font-size="10.00">std::unique_ptr&lt; HalUart</text>
<text text-anchor="middle" x="520.5" y="-81.5" font-family="Helvetica,sans-Serif" font-size="10.00">Tmc5160Comm &gt;</text>
</a>
</g>
</g>
<!-- Node6&#45;&gt;Node1 -->
<g id="edge5_Node000001_Node000006" class="edge">
<title>Node6&#45;&gt;Node1</title>
<g id="a_edge5_Node000001_Node000006"><a xlink:title=" ">
<path fill="none" stroke="#9a32cd" stroke-dasharray="5,2" d="M599.58,-80.92C635.58,-76.96 677.21,-72.38 708.77,-68.91"/>
<polygon fill="#9a32cd" stroke="#9a32cd" points="599.15,-77.44 589.59,-82.01 599.91,-84.4 599.15,-77.44"/>
</a>
</g>
<text text-anchor="middle" x="659" y="-79.5" font-family="Helvetica,sans-Serif" font-size="10.00" fill="grey"> uart_comm_</text>
</g>
<!-- Node7&#45;&gt;Node6 -->
<g id="edge6_Node000006_Node000007" class="edge">
<title>Node7&#45;&gt;Node6</title>
<g id="a_edge6_Node000006_Node000007"><a xlink:title=" ">
<path fill="none" stroke="#9a32cd" stroke-dasharray="5,2" d="M389.22,-89.5C409.54,-89.5 431.42,-89.5 451.35,-89.5"/>
<polygon fill="#9a32cd" stroke="#9a32cd" points="389.08,-86 379.08,-89.5 389.08,-93 389.08,-86"/>
</a>
</g>
<text text-anchor="middle" x="405.5" y="-92.5" font-family="Helvetica,sans-Serif" font-size="10.00" fill="grey"> ptr</text>
</g>
<!-- Node8 -->
<g id="Node000008" class="node">
<title>Node8</title>
<g id="a_Node000008"><a xlink:title=" ">
<polygon fill="white" stroke="#666666" points="162,-78.5 0,-78.5 0,-48.5 162,-48.5 162,-78.5"/>
<text text-anchor="start" x="8" y="-66.5" font-family="Helvetica,sans-Serif" font-size="10.00">tmc51x0::UartCommInterface</text>
<text text-anchor="middle" x="81" y="-55.5" font-family="Helvetica,sans-Serif" font-size="10.00">&lt; HalUartTmc5160Comm &gt;</text>
</a>
</g>
</g>
<!-- Node8&#45;&gt;Node7 -->
<g id="edge7_Node000007_Node000008" class="edge">
<title>Node8&#45;&gt;Node7</title>
<g id="a_edge7_Node000007_Node000008"><a xlink:title=" ">
<path fill="none" stroke="#63b8ff" d="M172.56,-73.72C197.66,-76.55 224.4,-79.56 247.71,-82.19"/>
<polygon fill="#63b8ff" stroke="#63b8ff" points="172.62,-70.2 162.29,-72.56 171.84,-77.16 172.62,-70.2"/>
</a>
</g>
</g>
<!-- Node9 -->
<g id="Node000009" class="node">
<title>Node9</title>
<g id="a_Node000009"><a xlink:title=" ">
<polygon fill="white" stroke="#666666" points="599,-56 442,-56 442,-37 599,-37 599,-56"/>
<text text-anchor="middle" x="520.5" y="-44" font-family="Helvetica,sans-Serif" font-size="10.00">std::unique_ptr&lt; SpiDriver &gt;</text>
</a>
</g>
</g>
<!-- Node9&#45;&gt;Node1 -->
<g id="edge9_Node000001_Node000009" class="edge">
<title>Node9&#45;&gt;Node1</title>
<g id="a_edge9_Node000001_Node000009"><a xlink:title=" ">
<path fill="none" stroke="#9a32cd" stroke-dasharray="5,2" d="M609.6,-46.63C635.84,-47.34 664.63,-48.76 691,-51.5 697.11,-52.13 703.51,-53.01 709.81,-53.99"/>
<polygon fill="#9a32cd" stroke="#9a32cd" points="609.37,-43.12 599.29,-46.39 609.21,-50.12 609.37,-43.12"/>
</a>
</g>
<text text-anchor="middle" x="659" y="-54.5" font-family="Helvetica,sans-Serif" font-size="10.00" fill="grey"> spi_driver_</text>
</g>
<!-- Node10 -->
<g id="Node000010" class="node">
<title>Node10</title>
<g id="a_Node000010"><a xlink:title=" ">
<polygon fill="white" stroke="#666666" points="602,-19 439,-19 439,0 602,0 602,-19"/>
<text text-anchor="middle" x="520.5" y="-7" font-family="Helvetica,sans-Serif" font-size="10.00">std::unique_ptr&lt; UartDriver &gt;</text>
</a>
</g>
</g>
<!-- Node10&#45;&gt;Node1 -->
<g id="edge10_Node000001_Node000010" class="edge">
<title>Node10&#45;&gt;Node1</title>
<g id="a_edge10_Node000001_Node000010"><a xlink:title=" ">
<path fill="none" stroke="#9a32cd" stroke-dasharray="5,2" d="M612.47,-15.95C638.2,-19.21 666,-24.11 691,-31.5 709.17,-36.87 728.57,-46.62 741.79,-53.96"/>
<polygon fill="#9a32cd" stroke="#9a32cd" points="612.69,-12.45 602.34,-14.73 611.85,-19.4 612.69,-12.45"/>
</a>
</g>
<text text-anchor="middle" x="659" y="-34.5" font-family="Helvetica,sans-Serif" font-size="10.00" fill="grey"> uart_driver_</text>
</g>
</g>
</svg>
