<?xml version="1.0" encoding="UTF-8" standalone="no"?>
<!DOCTYPE svg PUBLIC "-//W3C//DTD SVG 1.1//EN"
 "http://www.w3.org/Graphics/SVG/1.1/DTD/svg11.dtd">
<!-- Generated by graphviz version 2.43.0 (0)
 -->
<!-- Title: IBno08xDriverOps::GetLastError Pages: 1 -->
<svg width="377pt" height="76pt"
 viewBox="0.00 0.00 377.00 75.50" xmlns="http://www.w3.org/2000/svg" xmlns:xlink="http://www.w3.org/1999/xlink">
<g id="graph0" class="graph" transform="scale(1 1) rotate(0) translate(4 71.5)">
<title>IBno08xDriverOps::GetLastError</title>
<!-- Node1 -->
<g id="Node000001" class="node">
<title>Node1</title>
<g id="a_Node000001"><a xlink:title=" ">
<polygon fill="#999999" stroke="#666666" points="369,-51 220,-51 220,-21 369,-21 369,-51"/>
<text text-anchor="start" x="228" y="-39" font-family="Helvetica,sans-Serif" font-size="10.00">IBno08xDriverOps::GetLast</text>
<text text-anchor="middle" x="294.5" y="-28" font-family="Helvetica,sans-Serif" font-size="10.00">Error</text>
</a>
</g>
</g>
<!-- Node2 -->
<g id="Node000002" class="node">
<title>Node2</title>
<g id="a_Node000002"><a xlink:href="classBno08xHandler.html#a58384d1dfa272ba616140abb9fa55c2b" target="_top" xlink:title="Dump comprehensive diagnostics to the logger.">
<polygon fill="white" stroke="#666666" points="184,-67.5 0,-67.5 0,-48.5 184,-48.5 184,-67.5"/>
<text text-anchor="middle" x="92" y="-55.5" font-family="Helvetica,sans-Serif" font-size="10.00">Bno08xHandler::DumpDiagnostics</text>
</a>
</g>
</g>
<!-- Node1&#45;&gt;Node2 -->
<g id="edge1_Node000001_Node000002" class="edge">
<title>Node1&#45;&gt;Node2</title>
<g id="a_edge1_Node000001_Node000002"><a xlink:title=" ">
<path fill="none" stroke="#63b8ff" d="M209.75,-45.19C199.85,-46.28 189.72,-47.39 179.77,-48.48"/>
<polygon fill="#63b8ff" stroke="#63b8ff" points="210.42,-48.64 219.98,-44.07 209.66,-41.68 210.42,-48.64"/>
</a>
</g>
</g>
<!-- Node3 -->
<g id="Node000003" class="node">
<title>Node3</title>
<g id="a_Node000003"><a xlink:href="classBno08xHandler.html#a0f3b0686f5cbab0f7af7690d188c89b8" target="_top" xlink:title="Get the last driver&#45;level SH&#45;2 error code.">
<polygon fill="white" stroke="#666666" points="174.5,-30 9.5,-30 9.5,0 174.5,0 174.5,-30"/>
<text text-anchor="start" x="17.5" y="-18" font-family="Helvetica,sans-Serif" font-size="10.00">Bno08xHandler::GetLastDriver</text>
<text text-anchor="middle" x="92" y="-7" font-family="Helvetica,sans-Serif" font-size="10.00">Error</text>
</a>
</g>
</g>
<!-- Node1&#45;&gt;Node3 -->
<g id="edge2_Node000001_Node000003" class="edge">
<title>Node1&#45;&gt;Node3</title>
<g id="a_edge2_Node000001_Node000003"><a xlink:title=" ">
<path fill="none" stroke="#63b8ff" d="M209.84,-27.24C198.19,-26.02 186.24,-24.77 174.63,-23.55"/>
<polygon fill="#63b8ff" stroke="#63b8ff" points="209.67,-30.74 219.98,-28.3 210.4,-23.78 209.67,-30.74"/>
</a>
</g>
</g>
</g>
</svg>
