<?xml version="1.0" encoding="UTF-8" standalone="no"?>
<!DOCTYPE svg PUBLIC "-//W3C//DTD SVG 1.1//EN"
 "http://www.w3.org/Graphics/SVG/1.1/DTD/svg11.dtd">
<!-- Generated by graphviz version 2.43.0 (0)
 -->
<!-- Title: Pca9685GpioPin Pages: 1 -->
<svg width="1484pt" height="283pt"
 viewBox="0.00 0.00 1484.00 282.69" xmlns="http://www.w3.org/2000/svg" xmlns:xlink="http://www.w3.org/1999/xlink">
<g id="graph0" class="graph" transform="scale(1 1) rotate(0) translate(4 278.69)">
<title>Pca9685GpioPin</title>
<!-- Node1 -->
<g id="Node000001" class="node">
<title>Node1</title>
<g id="a_Node000001"><a xlink:title="BaseGpio adapter for a single PCA9685 channel used as a digital output.">
<polygon fill="#999999" stroke="#666666" points="219,-26.69 124,-26.69 124,-7.69 219,-7.69 219,-26.69"/>
<text text-anchor="middle" x="171.5" y="-14.69" font-family="Helvetica,sans-Serif" font-size="10.00">Pca9685GpioPin</text>
</a>
</g>
</g>
<!-- Node15 -->
<g id="Node000015" class="node">
<title>Node15</title>
<g id="a_Node000015"><a xlink:title=" ">
<polygon fill="white" stroke="#666666" points="438,-58.19 296,-58.19 296,-28.19 438,-28.19 438,-58.19"/>
<text text-anchor="start" x="304" y="-46.19" font-family="Helvetica,sans-Serif" font-size="10.00">std::shared_ptr&lt; Pca9685</text>
<text text-anchor="middle" x="367" y="-35.19" font-family="Helvetica,sans-Serif" font-size="10.00">GpioPin &gt;</text>
</a>
</g>
</g>
<!-- Node1&#45;&gt;Node15 -->
<g id="edge16_Node000015_Node000001" class="edge">
<title>Node1&#45;&gt;Node15</title>
<g id="a_edge16_Node000015_Node000001"><a xlink:title=" ">
<path fill="none" stroke="#9a32cd" stroke-dasharray="5,2" d="M229.3,-24.83C250.11,-27.62 273.93,-30.82 295.78,-33.76"/>
<polygon fill="#9a32cd" stroke="#9a32cd" points="229.72,-21.35 219.34,-23.49 228.79,-28.29 229.72,-21.35"/>
</a>
</g>
<text text-anchor="middle" x="269.5" y="-34.19" font-family="Helvetica,sans-Serif" font-size="10.00" fill="grey"> ptr</text>
</g>
<!-- Node2 -->
<g id="Node000002" class="node">
<title>Node2</title>
<g id="a_Node000002"><a xlink:title=" ">
<polygon fill="white" stroke="#666666" points="63,-26.69 0,-26.69 0,-7.69 63,-7.69 63,-26.69"/>
<text text-anchor="middle" x="31.5" y="-14.69" font-family="Helvetica,sans-Serif" font-size="10.00">BaseGpio</text>
</a>
</g>
</g>
<!-- Node2&#45;&gt;Node1 -->
<g id="edge1_Node000001_Node000002" class="edge">
<title>Node2&#45;&gt;Node1</title>
<g id="a_edge1_Node000001_Node000002"><a xlink:title=" ">
<path fill="none" stroke="#63b8ff" d="M73.2,-17.19C89.13,-17.19 107.5,-17.19 123.95,-17.19"/>
<polygon fill="#63b8ff" stroke="#63b8ff" points="73.13,-13.69 63.13,-17.19 73.13,-20.69 73.13,-13.69"/>
</a>
</g>
</g>
<!-- Node3 -->
<g id="Node000003" class="node">
<title>Node3</title>
<g id="a_Node000003"><a xlink:href="classPca9685Handler.html" target="_top" xlink:title="Unified, non&#45;templated handler for a single PCA9685 PWM controller.">
<polygon fill="white" stroke="#666666" points="989.5,-93.69 893.5,-93.69 893.5,-74.69 989.5,-74.69 989.5,-93.69"/>
<text text-anchor="middle" x="941.5" y="-81.69" font-family="Helvetica,sans-Serif" font-size="10.00">Pca9685Handler</text>
</a>
</g>
</g>
<!-- Node3&#45;&gt;Node1 -->
<g id="edge2_Node000001_Node000003" class="edge">
<title>Node3&#45;&gt;Node1</title>
<g id="a_edge2_Node000001_Node000003"><a xlink:title=" ">
<path fill="none" stroke="#9a32cd" stroke-dasharray="5,2" d="M908.81,-70.77C868.08,-54.32 794.76,-27.36 729,-17.19 541.86,11.74 315.07,-3.63 219.04,-12.43"/>
<polygon fill="#9a32cd" stroke="#9a32cd" points="907.62,-74.07 918.2,-74.61 910.27,-67.59 907.62,-74.07"/>
</a>
</g>
<text text-anchor="middle" x="497" y="-4.19" font-family="Helvetica,sans-Serif" font-size="10.00" fill="grey"> parent_handler_</text>
</g>
<!-- Node9 -->
<g id="Node000009" class="node">
<title>Node9</title>
<g id="a_Node000009"><a xlink:href="classPca9685PwmAdapter.html" target="_top" xlink:title="BasePwm adapter for all 16 PCA9685 PWM channels.">
<polygon fill="white" stroke="#666666" points="1281,-166.69 1161,-166.69 1161,-147.69 1281,-147.69 1281,-166.69"/>
<text text-anchor="middle" x="1221" y="-154.69" font-family="Helvetica,sans-Serif" font-size="10.00">Pca9685PwmAdapter</text>
</a>
</g>
</g>
<!-- Node3&#45;&gt;Node9 -->
<g id="edge10_Node000009_Node000003" class="edge">
<title>Node3&#45;&gt;Node9</title>
<g id="a_edge10_Node000009_Node000003"><a xlink:title=" ">
<path fill="none" stroke="#9a32cd" stroke-dasharray="5,2" d="M999.81,-91.85C1040.37,-98.11 1095.74,-108.37 1143,-123.19 1163.64,-129.67 1186.15,-140.02 1201.47,-147.6"/>
<polygon fill="#9a32cd" stroke="#9a32cd" points="1000.24,-88.38 989.83,-90.35 999.19,-95.3 1000.24,-88.38"/>
</a>
</g>
<text text-anchor="middle" x="1097.5" y="-126.19" font-family="Helvetica,sans-Serif" font-size="10.00" fill="grey"> parent_handler_</text>
</g>
<!-- Node4 -->
<g id="Node000004" class="node">
<title>Node4</title>
<g id="a_Node000004"><a xlink:title=" ">
<polygon fill="white" stroke="#666666" points="729,-164.19 556,-164.19 556,-134.19 729,-134.19 729,-164.19"/>
<text text-anchor="start" x="564" y="-152.19" font-family="Helvetica,sans-Serif" font-size="10.00">std::unique_ptr&lt; HalI2cPca9685</text>
<text text-anchor="middle" x="642.5" y="-141.19" font-family="Helvetica,sans-Serif" font-size="10.00">Comm &gt;</text>
</a>
</g>
</g>
<!-- Node4&#45;&gt;Node3 -->
<g id="edge3_Node000003_Node000004" class="edge">
<title>Node4&#45;&gt;Node3</title>
<g id="a_edge3_Node000003_Node000004"><a xlink:title=" ">
<path fill="none" stroke="#9a32cd" stroke-dasharray="5,2" d="M728.25,-132.09C760.47,-125.45 797.47,-117.66 831,-110.19 854.46,-104.97 880.65,-98.76 901.54,-93.73"/>
<polygon fill="#9a32cd" stroke="#9a32cd" points="727.51,-128.67 718.42,-134.11 728.92,-135.53 727.51,-128.67"/>
</a>
</g>
<text text-anchor="middle" x="789" y="-130.19" font-family="Helvetica,sans-Serif" font-size="10.00" fill="grey"> i2c_adapter_</text>
</g>
<!-- Node5 -->
<g id="Node000005" class="node">
<title>Node5</title>
<g id="a_Node000005"><a xlink:href="classHalI2cPca9685Comm.html" target="_top" xlink:title="Concrete I2C communication adapter for PCA9685 using BaseI2c.">
<polygon fill="white" stroke="#666666" points="427.5,-158.69 306.5,-158.69 306.5,-139.69 427.5,-139.69 427.5,-158.69"/>
<text text-anchor="middle" x="367" y="-146.69" font-family="Helvetica,sans-Serif" font-size="10.00">HalI2cPca9685Comm</text>
</a>
</g>
</g>
<!-- Node5&#45;&gt;Node4 -->
<g id="edge4_Node000004_Node000005" class="edge">
<title>Node5&#45;&gt;Node4</title>
<g id="a_edge4_Node000004_Node000005"><a xlink:title=" ">
<path fill="none" stroke="#9a32cd" stroke-dasharray="5,2" d="M438.07,-149.19C474.01,-149.19 518.08,-149.19 556,-149.19"/>
<polygon fill="#9a32cd" stroke="#9a32cd" points="437.68,-145.69 427.68,-149.19 437.68,-152.69 437.68,-145.69"/>
</a>
</g>
<text text-anchor="middle" x="497" y="-152.19" font-family="Helvetica,sans-Serif" font-size="10.00" fill="grey"> ptr</text>
</g>
<!-- Node6 -->
<g id="Node000006" class="node">
<title>Node6</title>
<g id="a_Node000006"><a xlink:title=" ">
<polygon fill="white" stroke="#666666" points="243,-164.19 100,-164.19 100,-134.19 243,-134.19 243,-164.19"/>
<text text-anchor="start" x="108" y="-152.19" font-family="Helvetica,sans-Serif" font-size="10.00">pca9685::I2cInterface</text>
<text text-anchor="middle" x="171.5" y="-141.19" font-family="Helvetica,sans-Serif" font-size="10.00">&lt; HalI2cPca9685Comm &gt;</text>
</a>
</g>
</g>
<!-- Node6&#45;&gt;Node5 -->
<g id="edge5_Node000005_Node000006" class="edge">
<title>Node6&#45;&gt;Node5</title>
<g id="a_edge5_Node000005_Node000006"><a xlink:title=" ">
<path fill="none" stroke="#63b8ff" d="M253.5,-149.19C271.21,-149.19 289.64,-149.19 306.33,-149.19"/>
<polygon fill="#63b8ff" stroke="#63b8ff" points="253.18,-145.69 243.18,-149.19 253.18,-152.69 253.18,-145.69"/>
</a>
</g>
</g>
<!-- Node7 -->
<g id="Node000007" class="node">
<title>Node7</title>
<g id="a_Node000007"><a xlink:title=" ">
<polygon fill="white" stroke="#666666" points="713.5,-116.19 571.5,-116.19 571.5,-86.19 713.5,-86.19 713.5,-116.19"/>
<text text-anchor="start" x="579.5" y="-104.19" font-family="Helvetica,sans-Serif" font-size="10.00">std::unique_ptr&lt; Pca9685</text>
<text text-anchor="middle" x="642.5" y="-93.19" font-family="Helvetica,sans-Serif" font-size="10.00">Driver &gt;</text>
</a>
</g>
</g>
<!-- Node7&#45;&gt;Node3 -->
<g id="edge6_Node000003_Node000007" class="edge">
<title>Node7&#45;&gt;Node3</title>
<g id="a_edge6_Node000003_Node000007"><a xlink:title=" ">
<path fill="none" stroke="#9a32cd" stroke-dasharray="5,2" d="M723.78,-96.6C777.99,-93.5 847.68,-89.51 893.19,-86.9"/>
<polygon fill="#9a32cd" stroke="#9a32cd" points="723.29,-93.12 713.51,-97.19 723.69,-100.11 723.29,-93.12"/>
</a>
</g>
<text text-anchor="middle" x="789" y="-98.19" font-family="Helvetica,sans-Serif" font-size="10.00" fill="grey"> pca9685_driver_</text>
</g>
<!-- Node8 -->
<g id="Node000008" class="node">
<title>Node8</title>
<g id="a_Node000008"><a xlink:title=" ">
<polygon fill="white" stroke="#666666" points="1476,-104.19 1334,-104.19 1334,-74.19 1476,-74.19 1476,-104.19"/>
<text text-anchor="start" x="1342" y="-92.19" font-family="Helvetica,sans-Serif" font-size="10.00">std::shared_ptr&lt; Pca9685</text>
<text text-anchor="middle" x="1405" y="-81.19" font-family="Helvetica,sans-Serif" font-size="10.00">PwmAdapter &gt;</text>
</a>
</g>
</g>
<!-- Node8&#45;&gt;Node3 -->
<g id="edge7_Node000003_Node000008" class="edge">
<title>Node8&#45;&gt;Node3</title>
<g id="a_edge7_Node000003_Node000008"><a xlink:title=" ">
<path fill="none" stroke="#9a32cd" stroke-dasharray="5,2" d="M1323.62,-88.32C1227.09,-87.28 1068.37,-85.56 989.72,-84.71"/>
<polygon fill="#9a32cd" stroke="#9a32cd" points="1323.59,-91.82 1333.63,-88.43 1323.67,-84.82 1323.59,-91.82"/>
</a>
</g>
<text text-anchor="middle" x="1221" y="-90.19" font-family="Helvetica,sans-Serif" font-size="10.00" fill="grey"> pwm_adapter_</text>
</g>
<!-- Node9&#45;&gt;Node8 -->
<g id="edge8_Node000008_Node000009" class="edge">
<title>Node9&#45;&gt;Node8</title>
<g id="a_edge8_Node000008_Node000009"><a xlink:title=" ">
<path fill="none" stroke="#9a32cd" stroke-dasharray="5,2" d="M1257.08,-144.09C1287.58,-132.69 1331.76,-116.18 1363.7,-104.25"/>
<polygon fill="#9a32cd" stroke="#9a32cd" points="1255.83,-140.82 1247.69,-147.6 1258.28,-147.37 1255.83,-140.82"/>
</a>
</g>
<text text-anchor="middle" x="1307.5" y="-130.19" font-family="Helvetica,sans-Serif" font-size="10.00" fill="grey"> ptr</text>
</g>
<!-- Node10 -->
<g id="Node000010" class="node">
<title>Node10</title>
<g id="a_Node000010"><a xlink:title=" ">
<polygon fill="white" stroke="#666666" points="974,-274.69 909,-274.69 909,-255.69 974,-255.69 974,-274.69"/>
<text text-anchor="middle" x="941.5" y="-262.69" font-family="Helvetica,sans-Serif" font-size="10.00">BasePwm</text>
</a>
</g>
</g>
<!-- Node10&#45;&gt;Node9 -->
<g id="edge9_Node000009_Node000010" class="edge">
<title>Node10&#45;&gt;Node9</title>
<g id="a_edge9_Node000009_Node000010"><a xlink:title=" ">
<path fill="none" stroke="#63b8ff" d="M984.32,-260.45C1026.22,-254.46 1091.67,-241.7 1143,-216.19 1169.54,-203 1195.98,-180.06 1209.92,-167.01"/>
<polygon fill="#63b8ff" stroke="#63b8ff" points="983.64,-257.01 974.2,-261.83 984.58,-263.95 983.64,-257.01"/>
</a>
</g>
</g>
<!-- Node11 -->
<g id="Node000011" class="node">
<title>Node11</title>
<g id="a_Node000011"><a xlink:title=" ">
<polygon fill="white" stroke="#666666" points="993,-237.19 890,-237.19 890,-207.19 993,-207.19 993,-237.19"/>
<text text-anchor="start" x="898" y="-225.19" font-family="Helvetica,sans-Serif" font-size="10.00">std::array&lt; float,</text>
<text text-anchor="middle" x="941.5" y="-214.19" font-family="Helvetica,sans-Serif" font-size="10.00"> kMaxChannels &gt;</text>
</a>
</g>
</g>
<!-- Node11&#45;&gt;Node9 -->
<g id="edge11_Node000009_Node000011" class="edge">
<title>Node11&#45;&gt;Node9</title>
<g id="a_edge11_Node000009_Node000011"><a xlink:title=" ">
<path fill="none" stroke="#9a32cd" stroke-dasharray="5,2" d="M1003,-212.03C1043.01,-204.84 1096.46,-194.35 1143,-182.19 1159.86,-177.79 1178.46,-171.79 1193.15,-166.77"/>
<polygon fill="#9a32cd" stroke="#9a32cd" points="1002.37,-208.59 993.14,-213.78 1003.59,-215.48 1002.37,-208.59"/>
</a>
</g>
<text text-anchor="middle" x="1097.5" y="-204.19" font-family="Helvetica,sans-Serif" font-size="10.00" fill="grey"> duty_cache_</text>
</g>
<!-- Node12 -->
<g id="Node000012" class="node">
<title>Node12</title>
<g id="a_Node000012"><a xlink:title=" ">
<polygon fill="white" stroke="#666666" points="999,-189.19 884,-189.19 884,-159.19 999,-159.19 999,-189.19"/>
<text text-anchor="start" x="892" y="-177.19" font-family="Helvetica,sans-Serif" font-size="10.00">std::array&lt; uint16</text>
<text text-anchor="middle" x="941.5" y="-166.19" font-family="Helvetica,sans-Serif" font-size="10.00">_t, kMaxChannels &gt;</text>
</a>
</g>
</g>
<!-- Node12&#45;&gt;Node9 -->
<g id="edge12_Node000009_Node000012" class="edge">
<title>Node12&#45;&gt;Node9</title>
<g id="a_edge12_Node000009_Node000012"><a xlink:title=" ">
<path fill="none" stroke="#9a32cd" stroke-dasharray="5,2" d="M1009.54,-170.09C1055.71,-167.26 1116.49,-163.54 1160.86,-160.82"/>
<polygon fill="#9a32cd" stroke="#9a32cd" points="1009.09,-166.61 999.33,-170.71 1009.52,-173.6 1009.09,-166.61"/>
</a>
</g>
<text text-anchor="middle" x="1097.5" y="-170.19" font-family="Helvetica,sans-Serif" font-size="10.00" fill="grey"> on_time_cache_</text>
</g>
<!-- Node13 -->
<g id="Node000013" class="node">
<title>Node13</title>
<g id="a_Node000013"><a xlink:title=" ">
<polygon fill="white" stroke="#666666" points="1034,-140.69 849,-140.69 849,-121.69 1034,-121.69 1034,-140.69"/>
<text text-anchor="middle" x="941.5" y="-128.69" font-family="Helvetica,sans-Serif" font-size="10.00">std::array&lt; bool, kMaxChannels &gt;</text>
</a>
</g>
</g>
<!-- Node13&#45;&gt;Node9 -->
<g id="edge13_Node000009_Node000013" class="edge">
<title>Node13&#45;&gt;Node9</title>
<g id="a_edge13_Node000009_Node000013"><a xlink:title=" ">
<path fill="none" stroke="#9a32cd" stroke-dasharray="5,2" d="M1044.32,-138.34C1075.97,-140.82 1110.96,-143.84 1143,-147.19 1148.76,-147.8 1154.77,-148.48 1160.76,-149.2"/>
<polygon fill="#9a32cd" stroke="#9a32cd" points="1044.41,-134.83 1034.17,-137.55 1043.87,-141.81 1044.41,-134.83"/>
</a>
</g>
<text text-anchor="middle" x="1097.5" y="-150.19" font-family="Helvetica,sans-Serif" font-size="10.00" fill="grey"> channel_enabled_</text>
</g>
<!-- Node14 -->
<g id="Node000014" class="node">
<title>Node14</title>
<g id="a_Node000014"><a xlink:title=" ">
<polygon fill="white" stroke="#666666" points="711,-67.69 574,-67.69 574,-26.69 711,-26.69 711,-67.69"/>
<text text-anchor="start" x="582" y="-55.69" font-family="Helvetica,sans-Serif" font-size="10.00">std::array&lt; std::shared</text>
<text text-anchor="start" x="582" y="-44.69" font-family="Helvetica,sans-Serif" font-size="10.00">_ptr&lt; Pca9685GpioPin &gt;</text>
<text text-anchor="middle" x="642.5" y="-33.69" font-family="Helvetica,sans-Serif" font-size="10.00">, 16 &gt;</text>
</a>
</g>
</g>
<!-- Node14&#45;&gt;Node3 -->
<g id="edge14_Node000003_Node000014" class="edge">
<title>Node14&#45;&gt;Node3</title>
<g id="a_edge14_Node000003_Node000014"><a xlink:title=" ">
<path fill="none" stroke="#9a32cd" stroke-dasharray="5,2" d="M721.26,-56.88C775.88,-63.69 847.15,-72.57 893.37,-78.32"/>
<polygon fill="#9a32cd" stroke="#9a32cd" points="721.62,-53.4 711.27,-55.64 720.76,-60.35 721.62,-53.4"/>
</a>
</g>
<text text-anchor="middle" x="789" y="-73.19" font-family="Helvetica,sans-Serif" font-size="10.00" fill="grey"> gpio_registry_</text>
</g>
<!-- Node15&#45;&gt;Node14 -->
<g id="edge15_Node000014_Node000015" class="edge">
<title>Node15&#45;&gt;Node14</title>
<g id="a_edge15_Node000014_Node000015"><a xlink:title=" ">
<path fill="none" stroke="#9a32cd" stroke-dasharray="5,2" d="M448.32,-44.37C488.24,-44.95 535.95,-45.65 573.96,-46.21"/>
<polygon fill="#9a32cd" stroke="#9a32cd" points="448.13,-40.87 438.08,-44.22 448.03,-47.87 448.13,-40.87"/>
</a>
</g>
<text text-anchor="middle" x="497" y="-49.19" font-family="Helvetica,sans-Serif" font-size="10.00" fill="grey"> elements</text>
</g>
</g>
</svg>
