<?xml version="1.0" encoding="UTF-8" standalone="no"?>
<!DOCTYPE svg PUBLIC "-//W3C//DTD SVG 1.1//EN"
 "http://www.w3.org/Graphics/SVG/1.1/DTD/svg11.dtd">
<!-- Generated by graphviz version 2.43.0 (0)
 -->
<!-- Title: Ws2812Handler::EnsureInitialized Pages: 1 -->
<svg width="899pt" height="138pt"
 viewBox="0.00 0.00 899.00 138.00" xmlns="http://www.w3.org/2000/svg" xmlns:xlink="http://www.w3.org/1999/xlink">
<g id="graph0" class="graph" transform="scale(1 1) rotate(0) translate(4 134)">
<title>Ws2812Handler::EnsureInitialized</title>
<!-- Node1 -->
<g id="Node000001" class="node">
<title>Node1</title>
<g id="a_Node000001"><a xlink:title="Ensure strip resources are initialized (lazy init entrypoint).">
<polygon fill="#999999" stroke="#666666" points="181,-74 0,-74 0,-55 181,-55 181,-74"/>
<text text-anchor="middle" x="90.5" y="-62" font-family="Helvetica,sans-Serif" font-size="10.00">Ws2812Handler::EnsureInitialized</text>
</a>
</g>
</g>
<!-- Node2 -->
<g id="Node000002" class="node">
<title>Node2</title>
<g id="a_Node000002"><a xlink:href="classWs2812Handler.html#afe5f397b22e9b92cf2fb2cebae6e123d" target="_top" xlink:title=" ">
<polygon fill="white" stroke="#666666" points="398,-79.5 217,-79.5 217,-49.5 398,-49.5 398,-79.5"/>
<text text-anchor="start" x="225" y="-67.5" font-family="Helvetica,sans-Serif" font-size="10.00">Ws2812Handler::EnsureInitialized</text>
<text text-anchor="middle" x="307.5" y="-56.5" font-family="Helvetica,sans-Serif" font-size="10.00">Locked</text>
</a>
</g>
</g>
<!-- Node1&#45;&gt;Node2 -->
<g id="edge1_Node000001_Node000002" class="edge">
<title>Node1&#45;&gt;Node2</title>
<g id="a_edge1_Node000001_Node000002"><a xlink:title=" ">
<path fill="none" stroke="#63b8ff" d="M181.12,-64.5C189.48,-64.5 197.98,-64.5 206.42,-64.5"/>
<polygon fill="#63b8ff" stroke="#63b8ff" points="206.68,-68 216.68,-64.5 206.68,-61 206.68,-68"/>
</a>
</g>
</g>
<!-- Node3 -->
<g id="Node000003" class="node">
<title>Node3</title>
<g id="a_Node000003"><a xlink:href="classWs2812Handler.html#acce4955435f295ba4853b6239090982f" target="_top" xlink:title="Initialize the RMT channel and LED strip.">
<polygon fill="white" stroke="#666666" points="576,-74 434,-74 434,-55 576,-55 576,-74"/>
<text text-anchor="middle" x="505" y="-62" font-family="Helvetica,sans-Serif" font-size="10.00">Ws2812Handler::Initialize</text>
</a>
</g>
</g>
<!-- Node2&#45;&gt;Node3 -->
<g id="edge2_Node000002_Node000003" class="edge">
<title>Node2&#45;&gt;Node3</title>
<g id="a_edge2_Node000002_Node000003"><a xlink:title=" ">
<path fill="none" stroke="#63b8ff" d="M398.24,-64.5C406.73,-64.5 415.3,-64.5 423.7,-64.5"/>
<polygon fill="#63b8ff" stroke="#63b8ff" points="423.84,-68 433.84,-64.5 423.84,-61 423.84,-68"/>
</a>
</g>
</g>
<!-- Node4 -->
<g id="Node000004" class="node">
<title>Node4</title>
<g id="a_Node000004"><a xlink:href="classLogger.html#adce17848a5844e053bfd314863dc1404" target="_top" xlink:title="Log error message.">
<polygon fill="white" stroke="#666666" points="708.5,-130 629.5,-130 629.5,-111 708.5,-111 708.5,-130"/>
<text text-anchor="middle" x="669" y="-118" font-family="Helvetica,sans-Serif" font-size="10.00">Logger::Error</text>
</a>
</g>
</g>
<!-- Node3&#45;&gt;Node4 -->
<g id="edge3_Node000003_Node000004" class="edge">
<title>Node3&#45;&gt;Node4</title>
<g id="a_edge3_Node000003_Node000004"><a xlink:title=" ">
<path fill="none" stroke="#63b8ff" d="M532.05,-74.11C553.46,-81.94 584.61,-93.19 612,-102.5 617.2,-104.27 622.68,-106.08 628.1,-107.85"/>
<polygon fill="#63b8ff" stroke="#63b8ff" points="627.12,-111.22 637.71,-110.97 629.28,-104.56 627.12,-111.22"/>
</a>
</g>
</g>
<!-- Node7 -->
<g id="Node000007" class="node">
<title>Node7</title>
<g id="a_Node000007"><a xlink:href="classLogger.html#a5789d11f8f1356e2192c0023a089cbc4" target="_top" xlink:title="Get singleton instance.">
<polygon fill="white" stroke="#666666" points="726,-19 612,-19 612,0 726,0 726,-19"/>
<text text-anchor="middle" x="669" y="-7" font-family="Helvetica,sans-Serif" font-size="10.00">Logger::GetInstance</text>
</a>
</g>
</g>
<!-- Node3&#45;&gt;Node7 -->
<g id="edge6_Node000003_Node000007" class="edge">
<title>Node3&#45;&gt;Node7</title>
<g id="a_edge6_Node000003_Node000007"><a xlink:title=" ">
<path fill="none" stroke="#63b8ff" d="M532.95,-54.89C554.33,-47.31 585.02,-36.54 612,-27.5 617.2,-25.76 622.69,-23.95 628.11,-22.19"/>
<polygon fill="#63b8ff" stroke="#63b8ff" points="629.29,-25.48 637.73,-19.08 627.14,-18.82 629.29,-25.48"/>
</a>
</g>
</g>
<!-- Node8 -->
<g id="Node000008" class="node">
<title>Node8</title>
<g id="a_Node000008"><a xlink:href="classLogger.html#a4681229c521795685fc14f6b55c82300" target="_top" xlink:title="Log info message.">
<polygon fill="white" stroke="#666666" points="706,-93 632,-93 632,-74 706,-74 706,-93"/>
<text text-anchor="middle" x="669" y="-81" font-family="Helvetica,sans-Serif" font-size="10.00">Logger::Info</text>
</a>
</g>
</g>
<!-- Node3&#45;&gt;Node8 -->
<g id="edge7_Node000003_Node000008" class="edge">
<title>Node3&#45;&gt;Node8</title>
<g id="a_edge7_Node000003_Node000008"><a xlink:title=" ">
<path fill="none" stroke="#63b8ff" d="M576.11,-72.72C591.53,-74.53 607.48,-76.4 621.67,-78.07"/>
<polygon fill="#63b8ff" stroke="#63b8ff" points="621.33,-81.55 631.67,-79.24 622.15,-74.6 621.33,-81.55"/>
</a>
</g>
</g>
<!-- Node9 -->
<g id="Node000009" class="node">
<title>Node9</title>
<g id="a_Node000009"><a xlink:href="classLogger.html#aaa95ffa14d07a965d4a85bdec82cba26" target="_top" xlink:title="Log warning message.">
<polygon fill="white" stroke="#666666" points="709,-56 629,-56 629,-37 709,-37 709,-56"/>
<text text-anchor="middle" x="669" y="-44" font-family="Helvetica,sans-Serif" font-size="10.00">Logger::Warn</text>
</a>
</g>
</g>
<!-- Node3&#45;&gt;Node9 -->
<g id="edge10_Node000003_Node000009" class="edge">
<title>Node3&#45;&gt;Node9</title>
<g id="a_edge10_Node000003_Node000009"><a xlink:title=" ">
<path fill="none" stroke="#63b8ff" d="M576.11,-56.71C590.42,-55.12 605.2,-53.48 618.6,-51.99"/>
<polygon fill="#63b8ff" stroke="#63b8ff" points="619,-55.47 628.55,-50.88 618.22,-48.51 619,-55.47"/>
</a>
</g>
</g>
<!-- Node5 -->
<g id="Node000005" class="node">
<title>Node5</title>
<g id="a_Node000005"><a xlink:href="classLogger.html#af9e84e0ff6bd538e4f9ed8dcebc3e2f0" target="_top" xlink:title="Check if log level is enabled for tag.">
<polygon fill="white" stroke="#666666" points="891,-111 762,-111 762,-92 891,-92 891,-111"/>
<text text-anchor="middle" x="826.5" y="-99" font-family="Helvetica,sans-Serif" font-size="10.00">Logger::IsLevelEnabled</text>
</a>
</g>
</g>
<!-- Node4&#45;&gt;Node5 -->
<g id="edge4_Node000004_Node000005" class="edge">
<title>Node4&#45;&gt;Node5</title>
<g id="a_edge4_Node000004_Node000005"><a xlink:title=" ">
<path fill="none" stroke="#63b8ff" d="M708.84,-115.75C721.85,-114.16 736.82,-112.34 751.6,-110.53"/>
<polygon fill="#63b8ff" stroke="#63b8ff" points="752.28,-113.97 761.78,-109.29 751.43,-107.02 752.28,-113.97"/>
</a>
</g>
</g>
<!-- Node6 -->
<g id="Node000006" class="node">
<title>Node6</title>
<g id="a_Node000006"><a xlink:href="classLogger.html#a6adb205db597526fb91ad20067400394" target="_top" xlink:title="Internal logging method.">
<polygon fill="white" stroke="#666666" points="881.5,-74 771.5,-74 771.5,-55 881.5,-55 881.5,-74"/>
<text text-anchor="middle" x="826.5" y="-62" font-family="Helvetica,sans-Serif" font-size="10.00">Logger::LogInternal</text>
</a>
</g>
</g>
<!-- Node4&#45;&gt;Node6 -->
<g id="edge5_Node000004_Node000006" class="edge">
<title>Node4&#45;&gt;Node6</title>
<g id="a_edge5_Node000004_Node000006"><a xlink:title=" ">
<path fill="none" stroke="#63b8ff" d="M702.92,-110.98C710.59,-108.47 718.66,-105.59 726,-102.5 742.68,-95.48 745.25,-90.35 762,-83.5 767.53,-81.24 773.42,-79.12 779.31,-77.16"/>
<polygon fill="#63b8ff" stroke="#63b8ff" points="780.67,-80.41 789.14,-74.05 778.55,-73.73 780.67,-80.41"/>
</a>
</g>
</g>
<!-- Node8&#45;&gt;Node5 -->
<g id="edge8_Node000008_Node000005" class="edge">
<title>Node8&#45;&gt;Node5</title>
<g id="a_edge8_Node000008_Node000005"><a xlink:title=" ">
<path fill="none" stroke="#63b8ff" d="M706.07,-87.67C719.68,-89.25 735.72,-91.11 751.55,-92.94"/>
<polygon fill="#63b8ff" stroke="#63b8ff" points="751.55,-96.46 761.89,-94.14 752.36,-89.51 751.55,-96.46"/>
</a>
</g>
</g>
<!-- Node8&#45;&gt;Node6 -->
<g id="edge9_Node000008_Node000006" class="edge">
<title>Node8&#45;&gt;Node6</title>
<g id="a_edge9_Node000008_Node000006"><a xlink:title=" ">
<path fill="none" stroke="#63b8ff" d="M706.07,-79.09C722.49,-77.09 742.44,-74.65 761.3,-72.34"/>
<polygon fill="#63b8ff" stroke="#63b8ff" points="761.83,-75.81 771.33,-71.12 760.98,-68.86 761.83,-75.81"/>
</a>
</g>
</g>
<!-- Node9&#45;&gt;Node5 -->
<g id="edge11_Node000009_Node000005" class="edge">
<title>Node9&#45;&gt;Node5</title>
<g id="a_edge11_Node000009_Node000005"><a xlink:title=" ">
<path fill="none" stroke="#63b8ff" d="M700.51,-56.01C708.86,-58.84 717.85,-62.1 726,-65.5 742.51,-72.39 745.32,-77.03 762,-83.5 767.07,-85.47 772.45,-87.33 777.85,-89.05"/>
<polygon fill="#63b8ff" stroke="#63b8ff" points="776.92,-92.42 787.51,-91.99 778.96,-85.73 776.92,-92.42"/>
</a>
</g>
</g>
<!-- Node9&#45;&gt;Node6 -->
<g id="edge12_Node000009_Node000006" class="edge">
<title>Node9&#45;&gt;Node6</title>
<g id="a_edge12_Node000009_Node000006"><a xlink:title=" ">
<path fill="none" stroke="#63b8ff" d="M709.24,-51.04C724.96,-52.86 743.49,-55.01 761.08,-57.04"/>
<polygon fill="#63b8ff" stroke="#63b8ff" points="760.96,-60.55 771.3,-58.23 761.77,-53.6 760.96,-60.55"/>
</a>
</g>
</g>
</g>
</svg>
