<?xml version="1.0" encoding="UTF-8" standalone="no"?>
<!DOCTYPE svg PUBLIC "-//W3C//DTD SVG 1.1//EN"
 "http://www.w3.org/Graphics/SVG/1.1/DTD/svg11.dtd">
<!-- Generated by graphviz version 2.43.0 (0)
 -->
<!-- Title: Tmc9660Handler::gpio Pages: 1 -->
<svg width="1080pt" height="146pt"
 viewBox="0.00 0.00 1080.00 146.00" xmlns="http://www.w3.org/2000/svg" xmlns:xlink="http://www.w3.org/1999/xlink">
<g id="graph0" class="graph" transform="scale(1 1) rotate(0) translate(4 142)">
<title>Tmc9660Handler::gpio</title>
<!-- Node1 -->
<g id="Node000001" class="node">
<title>Node1</title>
<g id="a_Node000001"><a xlink:title="Get a reference to the GPIO wrapper for a TMC9660 internal GPIO pin.">
<polygon fill="#999999" stroke="#666666" points="127,-19 0,-19 0,0 127,0 127,-19"/>
<text text-anchor="middle" x="63.5" y="-7" font-family="Helvetica,sans-Serif" font-size="10.00">Tmc9660Handler::gpio</text>
</a>
</g>
</g>
<!-- Node2 -->
<g id="Node000002" class="node">
<title>Node2</title>
<g id="a_Node000002"><a xlink:href="classTmc9660Handler.html#a5a279ae9d4b5a8e0d71cb24577ad88ea" target="_top" xlink:title="Ensure driver is initialized (lazy init entrypoint).">
<polygon fill="white" stroke="#666666" points="350,-38 163,-38 163,-19 350,-19 350,-38"/>
<text text-anchor="middle" x="256.5" y="-26" font-family="Helvetica,sans-Serif" font-size="10.00">Tmc9660Handler::EnsureInitialized</text>
</a>
</g>
</g>
<!-- Node1&#45;&gt;Node2 -->
<g id="edge1_Node000001_Node000002" class="edge">
<title>Node1&#45;&gt;Node2</title>
<g id="a_edge1_Node000001_Node000002"><a xlink:title=" ">
<path fill="none" stroke="#63b8ff" d="M127.04,-15.72C135.25,-16.54 143.83,-17.39 152.5,-18.25"/>
<polygon fill="#63b8ff" stroke="#63b8ff" points="152.39,-21.76 162.69,-19.27 153.08,-14.79 152.39,-21.76"/>
</a>
</g>
</g>
<!-- Node11 -->
<g id="Node000011" class="node">
<title>Node11</title>
<g id="a_Node000011"><a xlink:href="classTmc9660Handler.html#a393382194d0602e7aa02da6a8fd7a20a" target="_top" xlink:title="Get a reference to the Temperature wrapper.">
<polygon fill="white" stroke="#666666" points="563,-19 396,-19 396,0 563,0 563,-19"/>
<text text-anchor="middle" x="479.5" y="-7" font-family="Helvetica,sans-Serif" font-size="10.00">Tmc9660Handler::temperature</text>
</a>
</g>
</g>
<!-- Node1&#45;&gt;Node11 -->
<g id="edge15_Node000001_Node000011" class="edge">
<title>Node1&#45;&gt;Node11</title>
<g id="a_edge15_Node000001_Node000011"><a xlink:title=" ">
<path fill="none" stroke="#63b8ff" d="M127.38,-9.5C196,-9.5 306.58,-9.5 385.3,-9.5"/>
<polygon fill="#63b8ff" stroke="#63b8ff" points="385.7,-13 395.7,-9.5 385.7,-6 385.7,-13"/>
</a>
</g>
</g>
<!-- Node3 -->
<g id="Node000003" class="node">
<title>Node3</title>
<g id="a_Node000003"><a xlink:href="classTmc9660Handler.html#a7c1d8073576d678b09dac24c9eb12845" target="_top" xlink:title="Ensure initialized while handler_mutex_ is already held.">
<polygon fill="white" stroke="#666666" points="573,-85.5 386,-85.5 386,-55.5 573,-55.5 573,-85.5"/>
<text text-anchor="start" x="394" y="-73.5" font-family="Helvetica,sans-Serif" font-size="10.00">Tmc9660Handler::EnsureInitialized</text>
<text text-anchor="middle" x="479.5" y="-62.5" font-family="Helvetica,sans-Serif" font-size="10.00">Locked</text>
</a>
</g>
</g>
<!-- Node2&#45;&gt;Node3 -->
<g id="edge2_Node000002_Node000003" class="edge">
<title>Node2&#45;&gt;Node3</title>
<g id="a_edge2_Node000002_Node000003"><a xlink:title=" ">
<path fill="none" stroke="#63b8ff" d="M307.65,-38.03C331.81,-42.62 361.52,-48.27 389.35,-53.56"/>
<polygon fill="#63b8ff" stroke="#63b8ff" points="389.03,-57.06 399.51,-55.49 390.34,-50.18 389.03,-57.06"/>
</a>
</g>
</g>
<!-- Node2&#45;&gt;Node11 -->
<g id="edge12_Node000002_Node000011" class="edge">
<title>Node2&#45;&gt;Node11</title>
<g id="a_edge12_Node000002_Node000011"><a xlink:title=" ">
<path fill="none" stroke="#63b8ff" d="M303.29,-18.97C327.15,-15.95 357.23,-13 385.7,-10.81"/>
<polygon fill="#63b8ff" stroke="#63b8ff" points="385.98,-14.29 395.69,-10.06 385.46,-7.31 385.98,-14.29"/>
</a>
</g>
</g>
<!-- Node4 -->
<g id="Node000004" class="node">
<title>Node4</title>
<g id="a_Node000004"><a xlink:href="classTmc9660Handler.html#adc564847f8ae26c47412aaee0758991c" target="_top" xlink:title="Initialize the TMC9660 device.">
<polygon fill="white" stroke="#666666" points="757,-101 609,-101 609,-82 757,-82 757,-101"/>
<text text-anchor="middle" x="683" y="-89" font-family="Helvetica,sans-Serif" font-size="10.00">Tmc9660Handler::Initialize</text>
</a>
</g>
</g>
<!-- Node3&#45;&gt;Node4 -->
<g id="edge3_Node000003_Node000004" class="edge">
<title>Node3&#45;&gt;Node4</title>
<g id="a_edge3_Node000003_Node000004"><a xlink:title=" ">
<path fill="none" stroke="#63b8ff" d="M573.29,-80.17C581.73,-81.05 590.25,-81.94 598.61,-82.81"/>
<polygon fill="#63b8ff" stroke="#63b8ff" points="598.39,-86.31 608.7,-83.86 599.12,-79.34 598.39,-86.31"/>
</a>
</g>
</g>
<!-- Node10 -->
<g id="Node000010" class="node">
<title>Node10</title>
<g id="a_Node000010"><a xlink:href="classTmc9660Handler.html#a13db97d201a287d8aa60384e04070b9f" target="_top" xlink:title="Check if the TMC9660 driver has been initialized and is ready.">
<polygon fill="white" stroke="#666666" points="755,-63.5 611,-63.5 611,-33.5 755,-33.5 755,-63.5"/>
<text text-anchor="start" x="619" y="-51.5" font-family="Helvetica,sans-Serif" font-size="10.00">Tmc9660Handler::IsDriver</text>
<text text-anchor="middle" x="683" y="-40.5" font-family="Helvetica,sans-Serif" font-size="10.00">Ready</text>
</a>
</g>
</g>
<!-- Node3&#45;&gt;Node10 -->
<g id="edge11_Node000003_Node000010" class="edge">
<title>Node3&#45;&gt;Node10</title>
<g id="a_edge11_Node000003_Node000010"><a xlink:title=" ">
<path fill="none" stroke="#63b8ff" d="M573.29,-60.37C582.44,-59.37 591.69,-58.36 600.71,-57.37"/>
<polygon fill="#63b8ff" stroke="#63b8ff" points="601.24,-60.84 610.8,-56.27 600.48,-53.88 601.24,-60.84"/>
</a>
</g>
</g>
<!-- Node5 -->
<g id="Node000005" class="node">
<title>Node5</title>
<g id="a_Node000005"><a xlink:href="classLogger.html#adce17848a5844e053bfd314863dc1404" target="_top" xlink:title="Log error message.">
<polygon fill="white" stroke="#666666" points="889.5,-101 810.5,-101 810.5,-82 889.5,-82 889.5,-101"/>
<text text-anchor="middle" x="850" y="-89" font-family="Helvetica,sans-Serif" font-size="10.00">Logger::Error</text>
</a>
</g>
</g>
<!-- Node4&#45;&gt;Node5 -->
<g id="edge4_Node000004_Node000005" class="edge">
<title>Node4&#45;&gt;Node5</title>
<g id="a_edge4_Node000004_Node000005"><a xlink:title=" ">
<path fill="none" stroke="#63b8ff" d="M757.33,-91.5C771.73,-91.5 786.5,-91.5 799.87,-91.5"/>
<polygon fill="#63b8ff" stroke="#63b8ff" points="800.26,-95 810.26,-91.5 800.26,-88 800.26,-95"/>
</a>
</g>
</g>
<!-- Node8 -->
<g id="Node000008" class="node">
<title>Node8</title>
<g id="a_Node000008"><a xlink:href="classLogger.html#a5789d11f8f1356e2192c0023a089cbc4" target="_top" xlink:title="Get singleton instance.">
<polygon fill="white" stroke="#666666" points="907,-64 793,-64 793,-45 907,-45 907,-64"/>
<text text-anchor="middle" x="850" y="-52" font-family="Helvetica,sans-Serif" font-size="10.00">Logger::GetInstance</text>
</a>
</g>
</g>
<!-- Node4&#45;&gt;Node8 -->
<g id="edge7_Node000004_Node000008" class="edge">
<title>Node4&#45;&gt;Node8</title>
<g id="a_edge7_Node000004_Node000008"><a xlink:title=" ">
<path fill="none" stroke="#63b8ff" d="M726.49,-81.97C747.87,-77.18 773.97,-71.32 796.58,-66.25"/>
<polygon fill="#63b8ff" stroke="#63b8ff" points="797.37,-69.66 806.37,-64.06 795.84,-62.83 797.37,-69.66"/>
</a>
</g>
</g>
<!-- Node9 -->
<g id="Node000009" class="node">
<title>Node9</title>
<g id="a_Node000009"><a xlink:href="classLogger.html#a4681229c521795685fc14f6b55c82300" target="_top" xlink:title="Log info message.">
<polygon fill="white" stroke="#666666" points="887,-138 813,-138 813,-119 887,-119 887,-138"/>
<text text-anchor="middle" x="850" y="-126" font-family="Helvetica,sans-Serif" font-size="10.00">Logger::Info</text>
</a>
</g>
</g>
<!-- Node4&#45;&gt;Node9 -->
<g id="edge8_Node000004_Node000009" class="edge">
<title>Node4&#45;&gt;Node9</title>
<g id="a_edge8_Node000004_Node000009"><a xlink:title=" ">
<path fill="none" stroke="#63b8ff" d="M726.49,-101.03C749.89,-106.27 778.94,-112.79 802.89,-118.16"/>
<polygon fill="#63b8ff" stroke="#63b8ff" points="802.28,-121.61 812.8,-120.38 803.81,-114.78 802.28,-121.61"/>
</a>
</g>
</g>
<!-- Node6 -->
<g id="Node000006" class="node">
<title>Node6</title>
<g id="a_Node000006"><a xlink:href="classLogger.html#af9e84e0ff6bd538e4f9ed8dcebc3e2f0" target="_top" xlink:title="Check if log level is enabled for tag.">
<polygon fill="white" stroke="#666666" points="1072,-138 943,-138 943,-119 1072,-119 1072,-138"/>
<text text-anchor="middle" x="1007.5" y="-126" font-family="Helvetica,sans-Serif" font-size="10.00">Logger::IsLevelEnabled</text>
</a>
</g>
</g>
<!-- Node5&#45;&gt;Node6 -->
<g id="edge5_Node000005_Node000006" class="edge">
<title>Node5&#45;&gt;Node6</title>
<g id="a_edge5_Node000005_Node000006"><a xlink:title=" ">
<path fill="none" stroke="#63b8ff" d="M889.84,-100.74C910.03,-105.55 934.94,-111.47 956.55,-116.61"/>
<polygon fill="#63b8ff" stroke="#63b8ff" points="956,-120.08 966.53,-118.99 957.62,-113.27 956,-120.08"/>
</a>
</g>
</g>
<!-- Node7 -->
<g id="Node000007" class="node">
<title>Node7</title>
<g id="a_Node000007"><a xlink:href="classLogger.html#a6adb205db597526fb91ad20067400394" target="_top" xlink:title="Internal logging method.">
<polygon fill="white" stroke="#666666" points="1062.5,-101 952.5,-101 952.5,-82 1062.5,-82 1062.5,-101"/>
<text text-anchor="middle" x="1007.5" y="-89" font-family="Helvetica,sans-Serif" font-size="10.00">Logger::LogInternal</text>
</a>
</g>
</g>
<!-- Node5&#45;&gt;Node7 -->
<g id="edge6_Node000005_Node000007" class="edge">
<title>Node5&#45;&gt;Node7</title>
<g id="a_edge6_Node000005_Node000007"><a xlink:title=" ">
<path fill="none" stroke="#63b8ff" d="M889.84,-91.5C905.63,-91.5 924.31,-91.5 942.03,-91.5"/>
<polygon fill="#63b8ff" stroke="#63b8ff" points="942.33,-95 952.33,-91.5 942.33,-88 942.33,-95"/>
</a>
</g>
</g>
<!-- Node9&#45;&gt;Node6 -->
<g id="edge9_Node000009_Node000006" class="edge">
<title>Node9&#45;&gt;Node6</title>
<g id="a_edge9_Node000009_Node000006"><a xlink:title=" ">
<path fill="none" stroke="#63b8ff" d="M887.07,-128.5C900.68,-128.5 916.72,-128.5 932.55,-128.5"/>
<polygon fill="#63b8ff" stroke="#63b8ff" points="932.89,-132 942.89,-128.5 932.89,-125 932.89,-132"/>
</a>
</g>
</g>
<!-- Node9&#45;&gt;Node7 -->
<g id="edge10_Node000009_Node000007" class="edge">
<title>Node9&#45;&gt;Node7</title>
<g id="a_edge10_Node000009_Node000007"><a xlink:title=" ">
<path fill="none" stroke="#63b8ff" d="M887.07,-119.92C907.78,-114.99 934.09,-108.73 956.74,-103.34"/>
<polygon fill="#63b8ff" stroke="#63b8ff" points="957.61,-106.73 966.53,-101.01 955.99,-99.92 957.61,-106.73"/>
</a>
</g>
</g>
<!-- Node11&#45;&gt;Node2 -->
<g id="edge13_Node000011_Node000002" class="edge">
<title>Node11&#45;&gt;Node2</title>
<g id="a_edge13_Node000011_Node000002"><a xlink:title=" ">
<path fill="none" stroke="#63b8ff" d="M432.68,-19.03C411.61,-21.7 385.7,-24.31 360.33,-26.4"/>
<polygon fill="#63b8ff" stroke="#63b8ff" points="359.95,-22.91 350.26,-27.2 360.51,-29.89 359.95,-22.91"/>
</a>
</g>
</g>
<!-- Node11&#45;&gt;Node11 -->
<g id="edge14_Node000011_Node000011" class="edge">
<title>Node11&#45;&gt;Node11</title>
<g id="a_edge14_Node000011_Node000011"><a xlink:title=" ">
<path fill="none" stroke="#63b8ff" d="M448.37,-19.08C433.22,-27.73 443.6,-37 479.5,-37 504.74,-37 517.37,-32.42 517.37,-26.69"/>
<polygon fill="#63b8ff" stroke="#63b8ff" points="519.89,-24.25 510.63,-19.08 514.65,-28.89 519.89,-24.25"/>
</a>
</g>
</g>
</g>
</svg>
