<?xml version="1.0" encoding="UTF-8" standalone="no"?>
<!DOCTYPE svg PUBLIC "-//W3C//DTD SVG 1.1//EN"
 "http://www.w3.org/Graphics/SVG/1.1/DTD/svg11.dtd">
<!-- Generated by graphviz version 2.43.0 (0)
 -->
<!-- Title: Max22200Handler::EnableAllChannels Pages: 1 -->
<svg width="1099pt" height="138pt"
 viewBox="0.00 0.00 1099.00 138.00" xmlns="http://www.w3.org/2000/svg" xmlns:xlink="http://www.w3.org/1999/xlink">
<g id="graph0" class="graph" transform="scale(1 1) rotate(0) translate(4 134)">
<title>Max22200Handler::EnableAllChannels</title>
<!-- Node1 -->
<g id="Node000001" class="node">
<title>Node1</title>
<g id="a_Node000001"><a xlink:title="Enable all channels.">
<polygon fill="#999999" stroke="#666666" points="158,-88.5 0,-88.5 0,-58.5 158,-58.5 158,-88.5"/>
<text text-anchor="start" x="8" y="-76.5" font-family="Helvetica,sans-Serif" font-size="10.00">Max22200Handler::EnableAll</text>
<text text-anchor="middle" x="79" y="-65.5" font-family="Helvetica,sans-Serif" font-size="10.00">Channels</text>
</a>
</g>
</g>
<!-- Node2 -->
<g id="Node000002" class="node">
<title>Node2</title>
<g id="a_Node000002"><a xlink:href="classMax22200Handler.html#abcdd9746a0df9c28bb36508d52d80ef5" target="_top" xlink:title="Execute a lambda with a locked, initialized driver.">
<polygon fill="white" stroke="#666666" points="357,-83 194,-83 194,-64 357,-64 357,-83"/>
<text text-anchor="middle" x="275.5" y="-71" font-family="Helvetica,sans-Serif" font-size="10.00">Max22200Handler::withDriver</text>
</a>
</g>
</g>
<!-- Node1&#45;&gt;Node2 -->
<g id="edge1_Node000001_Node000002" class="edge">
<title>Node1&#45;&gt;Node2</title>
<g id="a_edge1_Node000001_Node000002"><a xlink:title=" ">
<path fill="none" stroke="#63b8ff" d="M158.27,-73.5C166.6,-73.5 175.12,-73.5 183.58,-73.5"/>
<polygon fill="#63b8ff" stroke="#63b8ff" points="183.85,-77 193.85,-73.5 183.85,-70 183.85,-77"/>
</a>
</g>
</g>
<!-- Node3 -->
<g id="Node000003" class="node">
<title>Node3</title>
<g id="a_Node000003"><a xlink:href="classMax22200Handler.html#aa00edacb247660349767fa4521121104" target="_top" xlink:title=" ">
<polygon fill="white" stroke="#666666" points="586,-88.5 393,-88.5 393,-58.5 586,-58.5 586,-88.5"/>
<text text-anchor="start" x="401" y="-76.5" font-family="Helvetica,sans-Serif" font-size="10.00">Max22200Handler::EnsureInitialized</text>
<text text-anchor="middle" x="489.5" y="-65.5" font-family="Helvetica,sans-Serif" font-size="10.00">Locked</text>
</a>
</g>
</g>
<!-- Node2&#45;&gt;Node3 -->
<g id="edge2_Node000002_Node000003" class="edge">
<title>Node2&#45;&gt;Node3</title>
<g id="a_edge2_Node000002_Node000003"><a xlink:title=" ">
<path fill="none" stroke="#63b8ff" d="M357.25,-73.5C365.58,-73.5 374.13,-73.5 382.67,-73.5"/>
<polygon fill="#63b8ff" stroke="#63b8ff" points="382.69,-77 392.69,-73.5 382.69,-70 382.69,-77"/>
</a>
</g>
</g>
<!-- Node4 -->
<g id="Node000004" class="node">
<title>Node4</title>
<g id="a_Node000004"><a xlink:href="classLogger.html#adce17848a5844e053bfd314863dc1404" target="_top" xlink:title="Log error message.">
<polygon fill="white" stroke="#666666" points="908.5,-130 829.5,-130 829.5,-111 908.5,-111 908.5,-130"/>
<text text-anchor="middle" x="869" y="-118" font-family="Helvetica,sans-Serif" font-size="10.00">Logger::Error</text>
</a>
</g>
</g>
<!-- Node3&#45;&gt;Node4 -->
<g id="edge3_Node000003_Node000004" class="edge">
<title>Node3&#45;&gt;Node4</title>
<g id="a_edge3_Node000003_Node000004"><a xlink:title=" ">
<path fill="none" stroke="#63b8ff" d="M586.33,-87.69C598.34,-89.37 610.45,-91.01 622,-92.5 690.26,-101.31 769.36,-110.06 819.04,-115.37"/>
<polygon fill="#63b8ff" stroke="#63b8ff" points="818.87,-118.87 829.18,-116.45 819.61,-111.91 818.87,-118.87"/>
</a>
</g>
</g>
<!-- Node7 -->
<g id="Node000007" class="node">
<title>Node7</title>
<g id="a_Node000007"><a xlink:href="classLogger.html#a5789d11f8f1356e2192c0023a089cbc4" target="_top" xlink:title="Get singleton instance.">
<polygon fill="white" stroke="#666666" points="926,-19 812,-19 812,0 926,0 926,-19"/>
<text text-anchor="middle" x="869" y="-7" font-family="Helvetica,sans-Serif" font-size="10.00">Logger::GetInstance</text>
</a>
</g>
</g>
<!-- Node3&#45;&gt;Node7 -->
<g id="edge6_Node000003_Node000007" class="edge">
<title>Node3&#45;&gt;Node7</title>
<g id="a_edge6_Node000003_Node000007"><a xlink:title=" ">
<path fill="none" stroke="#63b8ff" d="M579.01,-58.49C647.23,-46.93 740.08,-31.19 801.92,-20.7"/>
<polygon fill="#63b8ff" stroke="#63b8ff" points="802.68,-24.12 811.95,-19 801.51,-17.22 802.68,-24.12"/>
</a>
</g>
</g>
<!-- Node8 -->
<g id="Node000008" class="node">
<title>Node8</title>
<g id="a_Node000008"><a xlink:href="classMax22200Handler.html#ad6c72b45a96c36cd1b450f5e330fad25" target="_top" xlink:title="Initialize driver (ENABLE HIGH, read/clear STATUS, set ACTIVE).">
<polygon fill="white" stroke="#666666" points="776,-83 622,-83 622,-64 776,-64 776,-83"/>
<text text-anchor="middle" x="699" y="-71" font-family="Helvetica,sans-Serif" font-size="10.00">Max22200Handler::Initialize</text>
</a>
</g>
</g>
<!-- Node3&#45;&gt;Node8 -->
<g id="edge7_Node000003_Node000008" class="edge">
<title>Node3&#45;&gt;Node8</title>
<g id="a_edge7_Node000003_Node000008"><a xlink:title=" ">
<path fill="none" stroke="#63b8ff" d="M586.05,-73.5C594.6,-73.5 603.22,-73.5 611.68,-73.5"/>
<polygon fill="#63b8ff" stroke="#63b8ff" points="611.9,-77 621.9,-73.5 611.9,-70 611.9,-77"/>
</a>
</g>
</g>
<!-- Node5 -->
<g id="Node000005" class="node">
<title>Node5</title>
<g id="a_Node000005"><a xlink:href="classLogger.html#af9e84e0ff6bd538e4f9ed8dcebc3e2f0" target="_top" xlink:title="Check if log level is enabled for tag.">
<polygon fill="white" stroke="#666666" points="1091,-111 962,-111 962,-92 1091,-92 1091,-111"/>
<text text-anchor="middle" x="1026.5" y="-99" font-family="Helvetica,sans-Serif" font-size="10.00">Logger::IsLevelEnabled</text>
</a>
</g>
</g>
<!-- Node4&#45;&gt;Node5 -->
<g id="edge4_Node000004_Node000005" class="edge">
<title>Node4&#45;&gt;Node5</title>
<g id="a_edge4_Node000004_Node000005"><a xlink:title=" ">
<path fill="none" stroke="#63b8ff" d="M908.84,-115.75C921.85,-114.16 936.82,-112.34 951.6,-110.53"/>
<polygon fill="#63b8ff" stroke="#63b8ff" points="952.28,-113.97 961.78,-109.29 951.43,-107.02 952.28,-113.97"/>
</a>
</g>
</g>
<!-- Node6 -->
<g id="Node000006" class="node">
<title>Node6</title>
<g id="a_Node000006"><a xlink:href="classLogger.html#a6adb205db597526fb91ad20067400394" target="_top" xlink:title="Internal logging method.">
<polygon fill="white" stroke="#666666" points="1081.5,-74 971.5,-74 971.5,-55 1081.5,-55 1081.5,-74"/>
<text text-anchor="middle" x="1026.5" y="-62" font-family="Helvetica,sans-Serif" font-size="10.00">Logger::LogInternal</text>
</a>
</g>
</g>
<!-- Node4&#45;&gt;Node6 -->
<g id="edge5_Node000004_Node000006" class="edge">
<title>Node4&#45;&gt;Node6</title>
<g id="a_edge5_Node000004_Node000006"><a xlink:title=" ">
<path fill="none" stroke="#63b8ff" d="M902.92,-110.98C910.59,-108.47 918.66,-105.59 926,-102.5 942.68,-95.48 945.25,-90.35 962,-83.5 967.53,-81.24 973.42,-79.12 979.31,-77.16"/>
<polygon fill="#63b8ff" stroke="#63b8ff" points="980.67,-80.41 989.14,-74.05 978.55,-73.73 980.67,-80.41"/>
</a>
</g>
</g>
<!-- Node8&#45;&gt;Node4 -->
<g id="edge8_Node000008_Node000004" class="edge">
<title>Node8&#45;&gt;Node4</title>
<g id="a_edge8_Node000008_Node000004"><a xlink:title=" ">
<path fill="none" stroke="#63b8ff" d="M734,-83.01C759.87,-90.25 795.7,-100.27 823.8,-108.13"/>
<polygon fill="#63b8ff" stroke="#63b8ff" points="823.19,-111.6 833.77,-110.92 825.08,-104.86 823.19,-111.6"/>
</a>
</g>
</g>
<!-- Node8&#45;&gt;Node7 -->
<g id="edge9_Node000008_Node000007" class="edge">
<title>Node8&#45;&gt;Node7</title>
<g id="a_edge9_Node000008_Node000007"><a xlink:title=" ">
<path fill="none" stroke="#63b8ff" d="M721.69,-64C744.11,-54.32 780.21,-39.12 812,-27.5 816.85,-25.73 821.97,-23.95 827.07,-22.25"/>
<polygon fill="#63b8ff" stroke="#63b8ff" points="828.34,-25.51 836.75,-19.06 826.16,-18.86 828.34,-25.51"/>
</a>
</g>
</g>
<!-- Node9 -->
<g id="Node000009" class="node">
<title>Node9</title>
<g id="a_Node000009"><a xlink:href="classLogger.html#a4681229c521795685fc14f6b55c82300" target="_top" xlink:title="Log info message.">
<polygon fill="white" stroke="#666666" points="906,-56 832,-56 832,-37 906,-37 906,-56"/>
<text text-anchor="middle" x="869" y="-44" font-family="Helvetica,sans-Serif" font-size="10.00">Logger::Info</text>
</a>
</g>
</g>
<!-- Node8&#45;&gt;Node9 -->
<g id="edge10_Node000008_Node000009" class="edge">
<title>Node8&#45;&gt;Node9</title>
<g id="a_edge10_Node000008_Node000009"><a xlink:title=" ">
<path fill="none" stroke="#63b8ff" d="M759.23,-63.98C779.73,-60.69 802.39,-57.04 821.7,-53.94"/>
<polygon fill="#63b8ff" stroke="#63b8ff" points="822.44,-57.37 831.75,-52.33 821.32,-50.46 822.44,-57.37"/>
</a>
</g>
</g>
<!-- Node10 -->
<g id="Node000010" class="node">
<title>Node10</title>
<g id="a_Node000010"><a xlink:href="classLogger.html#aaa95ffa14d07a965d4a85bdec82cba26" target="_top" xlink:title="Log warning message.">
<polygon fill="white" stroke="#666666" points="909,-93 829,-93 829,-74 909,-74 909,-93"/>
<text text-anchor="middle" x="869" y="-81" font-family="Helvetica,sans-Serif" font-size="10.00">Logger::Warn</text>
</a>
</g>
</g>
<!-- Node8&#45;&gt;Node10 -->
<g id="edge13_Node000008_Node000010" class="edge">
<title>Node8&#45;&gt;Node10</title>
<g id="a_edge13_Node000008_Node000010"><a xlink:title=" ">
<path fill="none" stroke="#63b8ff" d="M776.14,-78.03C790.52,-78.89 805.22,-79.76 818.52,-80.55"/>
<polygon fill="#63b8ff" stroke="#63b8ff" points="818.66,-84.07 828.85,-81.17 819.08,-77.08 818.66,-84.07"/>
</a>
</g>
</g>
<!-- Node9&#45;&gt;Node5 -->
<g id="edge11_Node000009_Node000005" class="edge">
<title>Node9&#45;&gt;Node5</title>
<g id="a_edge11_Node000009_Node000005"><a xlink:title=" ">
<path fill="none" stroke="#63b8ff" d="M900.51,-56.01C908.86,-58.84 917.85,-62.1 926,-65.5 942.51,-72.39 945.32,-77.03 962,-83.5 967.07,-85.47 972.45,-87.33 977.85,-89.05"/>
<polygon fill="#63b8ff" stroke="#63b8ff" points="976.92,-92.42 987.51,-91.99 978.96,-85.73 976.92,-92.42"/>
</a>
</g>
</g>
<!-- Node9&#45;&gt;Node6 -->
<g id="edge12_Node000009_Node000006" class="edge">
<title>Node9&#45;&gt;Node6</title>
<g id="a_edge12_Node000009_Node000006"><a xlink:title=" ">
<path fill="none" stroke="#63b8ff" d="M906.07,-50.67C922.49,-52.58 942.44,-54.89 961.3,-57.07"/>
<polygon fill="#63b8ff" stroke="#63b8ff" points="961,-60.56 971.33,-58.23 961.8,-53.6 961,-60.56"/>
</a>
</g>
</g>
<!-- Node10&#45;&gt;Node5 -->
<g id="edge14_Node000010_Node000005" class="edge">
<title>Node10&#45;&gt;Node5</title>
<g id="a_edge14_Node000010_Node000005"><a xlink:title=" ">
<path fill="none" stroke="#63b8ff" d="M909.24,-88.04C922.18,-89.54 937.02,-91.26 951.68,-92.95"/>
<polygon fill="#63b8ff" stroke="#63b8ff" points="951.43,-96.45 961.77,-94.12 952.24,-89.5 951.43,-96.45"/>
</a>
</g>
</g>
<!-- Node10&#45;&gt;Node6 -->
<g id="edge15_Node000010_Node000006" class="edge">
<title>Node10&#45;&gt;Node6</title>
<g id="a_edge15_Node000010_Node000006"><a xlink:title=" ">
<path fill="none" stroke="#63b8ff" d="M909.24,-78.71C924.96,-76.78 943.49,-74.52 961.08,-72.37"/>
<polygon fill="#63b8ff" stroke="#63b8ff" points="961.8,-75.81 971.3,-71.12 960.95,-68.86 961.8,-75.81"/>
</a>
</g>
</g>
</g>
</svg>
