<?xml version="1.0" encoding="UTF-8" standalone="no"?>
<!DOCTYPE svg PUBLIC "-//W3C//DTD SVG 1.1//EN"
 "http://www.w3.org/Graphics/SVG/1.1/DTD/svg11.dtd">
<!-- Generated by graphviz version 2.43.0 (0)
 -->
<!-- Title: AlicatBasis2Handler::NormalizeBusBaud Pages: 1 -->
<svg width="312pt" height="221pt"
 viewBox="0.00 0.00 312.00 221.00" xmlns="http://www.w3.org/2000/svg" xmlns:xlink="http://www.w3.org/1999/xlink">
<g id="graph0" class="graph" transform="scale(1 1) rotate(0) translate(4 217)">
<title>AlicatBasis2Handler::NormalizeBusBaud</title>
<!-- Node1 -->
<g id="Node000001" class="node">
<title>Node1</title>
<g id="a_Node000001"><a xlink:title="Normalise every device on the bus to the same baud rate.">
<polygon fill="#999999" stroke="#666666" points="116,-112.5 0,-112.5 0,-82.5 116,-82.5 116,-112.5"/>
<text text-anchor="start" x="8" y="-100.5" font-family="Helvetica,sans-Serif" font-size="10.00">AlicatBasis2Handler</text>
<text text-anchor="middle" x="58" y="-89.5" font-family="Helvetica,sans-Serif" font-size="10.00">::NormalizeBusBaud</text>
</a>
</g>
</g>
<!-- Node2 -->
<g id="Node000002" class="node">
<title>Node2</title>
<g id="a_Node000002"><a xlink:href="namespaceanonymous__namespace_02AlicatBasis2Handler_8cpp_03.html#a50d9ea9c8b3553537fef28c9ee07cb30" target="_top" xlink:title=" ">
<polygon fill="white" stroke="#666666" points="295.5,-195 160.5,-195 160.5,-154 295.5,-154 295.5,-195"/>
<text text-anchor="start" x="168.5" y="-183" font-family="Helvetica,sans-Serif" font-size="10.00">anonymous_namespace</text>
<text text-anchor="start" x="168.5" y="-172" font-family="Helvetica,sans-Serif" font-size="10.00">{AlicatBasis2Handler</text>
<text text-anchor="middle" x="228" y="-161" font-family="Helvetica,sans-Serif" font-size="10.00">::cpp}::BaudFromBps</text>
</a>
</g>
</g>
<!-- Node1&#45;&gt;Node2 -->
<g id="edge1_Node000001_Node000002" class="edge">
<title>Node1&#45;&gt;Node2</title>
<g id="a_edge1_Node000001_Node000002"><a xlink:title=" ">
<path fill="none" stroke="#63b8ff" d="M86.29,-112.57C104.63,-122.45 129.46,-135.36 152,-145.5 155.38,-147.02 158.87,-148.54 162.4,-150.04"/>
<polygon fill="#63b8ff" stroke="#63b8ff" points="161.25,-153.35 171.83,-153.95 163.94,-146.88 161.25,-153.35"/>
</a>
</g>
</g>
<!-- Node3 -->
<g id="Node000003" class="node">
<title>Node3</title>
<g id="a_Node000003"><a xlink:href="namespaceanonymous__namespace_02AlicatBasis2Handler_8cpp_03.html#aeb2770bf09308f306ebf0b62df9fab6d" target="_top" xlink:title=" ">
<polygon fill="white" stroke="#666666" points="304,-118 152,-118 152,-77 304,-77 304,-118"/>
<text text-anchor="start" x="160" y="-106" font-family="Helvetica,sans-Serif" font-size="10.00">anonymous_namespace</text>
<text text-anchor="start" x="160" y="-95" font-family="Helvetica,sans-Serif" font-size="10.00">{AlicatBasis2Handler</text>
<text text-anchor="middle" x="228" y="-84" font-family="Helvetica,sans-Serif" font-size="10.00">::cpp}::IsSupportedBaudBps</text>
</a>
</g>
</g>
<!-- Node1&#45;&gt;Node3 -->
<g id="edge3_Node000001_Node000003" class="edge">
<title>Node1&#45;&gt;Node3</title>
<g id="a_edge3_Node000001_Node000003"><a xlink:title=" ">
<path fill="none" stroke="#63b8ff" d="M116.35,-97.5C124.54,-97.5 133.12,-97.5 141.72,-97.5"/>
<polygon fill="#63b8ff" stroke="#63b8ff" points="141.79,-101 151.79,-97.5 141.79,-94 141.79,-101"/>
</a>
</g>
</g>
<!-- Node4 -->
<g id="Node000004" class="node">
<title>Node4</title>
<g id="a_Node000004"><a xlink:href="namespaceanonymous__namespace_02AlicatBasis2Handler_8cpp_03.html#ac74ab57c3bd5279c52f56c677d73730d" target="_top" xlink:title=" ">
<polygon fill="white" stroke="#666666" points="295.5,-41 160.5,-41 160.5,0 295.5,0 295.5,-41"/>
<text text-anchor="start" x="168.5" y="-29" font-family="Helvetica,sans-Serif" font-size="10.00">anonymous_namespace</text>
<text text-anchor="start" x="168.5" y="-18" font-family="Helvetica,sans-Serif" font-size="10.00">{AlicatBasis2Handler</text>
<text text-anchor="middle" x="228" y="-7" font-family="Helvetica,sans-Serif" font-size="10.00">::cpp}::SetBitmap</text>
</a>
</g>
</g>
<!-- Node1&#45;&gt;Node4 -->
<g id="edge5_Node000001_Node000004" class="edge">
<title>Node1&#45;&gt;Node4</title>
<g id="a_edge5_Node000001_Node000004"><a xlink:title=" ">
<path fill="none" stroke="#63b8ff" d="M91.79,-82.47C114.85,-71.9 146.25,-57.51 172.98,-45.26"/>
<polygon fill="#63b8ff" stroke="#63b8ff" points="174.58,-48.37 182.22,-41.03 171.67,-42.01 174.58,-48.37"/>
</a>
</g>
</g>
<!-- Node2&#45;&gt;Node2 -->
<g id="edge2_Node000002_Node000002" class="edge">
<title>Node2&#45;&gt;Node2</title>
<g id="a_edge2_Node000002_Node000002"><a xlink:title=" ">
<path fill="none" stroke="#63b8ff" d="M196.76,-195.1C193.35,-204.65 203.76,-213 228,-213 243.15,-213 252.9,-209.74 257.25,-204.96"/>
<polygon fill="#63b8ff" stroke="#63b8ff" points="260.69,-205.59 259.24,-195.1 253.83,-204.2 260.69,-205.59"/>
</a>
</g>
</g>
<!-- Node3&#45;&gt;Node3 -->
<g id="edge4_Node000003_Node000003" class="edge">
<title>Node3&#45;&gt;Node3</title>
<g id="a_edge4_Node000003_Node000003"><a xlink:title=" ">
<path fill="none" stroke="#63b8ff" d="M196.76,-118.1C193.35,-127.65 203.76,-136 228,-136 243.15,-136 252.9,-132.74 257.25,-127.96"/>
<polygon fill="#63b8ff" stroke="#63b8ff" points="260.69,-128.59 259.24,-118.1 253.83,-127.2 260.69,-128.59"/>
</a>
</g>
</g>
<!-- Node4&#45;&gt;Node4 -->
<g id="edge6_Node000004_Node000004" class="edge">
<title>Node4&#45;&gt;Node4</title>
<g id="a_edge6_Node000004_Node000004"><a xlink:title=" ">
<path fill="none" stroke="#63b8ff" d="M196.76,-41.1C193.35,-50.65 203.76,-59 228,-59 243.15,-59 252.9,-55.74 257.25,-50.96"/>
<polygon fill="#63b8ff" stroke="#63b8ff" points="260.69,-51.59 259.24,-41.1 253.83,-50.2 260.69,-51.59"/>
</a>
</g>
</g>
</g>
</svg>
