<?xml version="1.0" encoding="UTF-8" standalone="no"?>
<!DOCTYPE svg PUBLIC "-//W3C//DTD SVG 1.1//EN"
 "http://www.w3.org/Graphics/SVG/1.1/DTD/svg11.dtd">
<!-- Generated by graphviz version 2.43.0 (0)
 -->
<!-- Title: Tle92466edHandler::EnterConfigMode Pages: 1 -->
<svg width="762pt" height="138pt"
 viewBox="0.00 0.00 762.00 138.00" xmlns="http://www.w3.org/2000/svg" xmlns:xlink="http://www.w3.org/1999/xlink">
<g id="graph0" class="graph" transform="scale(1 1) rotate(0) translate(4 134)">
<title>Tle92466edHandler::EnterConfigMode</title>
<!-- Node1 -->
<g id="Node000001" class="node">
<title>Node1</title>
<g id="a_Node000001"><a xlink:title="Enter config mode (for register writes).">
<polygon fill="#999999" stroke="#666666" points="118,-85.5 0,-85.5 0,-55.5 118,-55.5 118,-85.5"/>
<text text-anchor="start" x="8" y="-73.5" font-family="Helvetica,sans-Serif" font-size="10.00">Tle92466edHandler::</text>
<text text-anchor="middle" x="59" y="-62.5" font-family="Helvetica,sans-Serif" font-size="10.00">EnterConfigMode</text>
</a>
</g>
</g>
<!-- Node2 -->
<g id="Node000002" class="node">
<title>Node2</title>
<g id="a_Node000002"><a xlink:href="classTle92466edHandler.html#a59ce7fd71a61c78bba4dc4a43c99e280" target="_top" xlink:title=" ">
<polygon fill="white" stroke="#666666" points="285,-85.5 154,-85.5 154,-55.5 285,-55.5 285,-85.5"/>
<text text-anchor="start" x="162" y="-73.5" font-family="Helvetica,sans-Serif" font-size="10.00">Tle92466edHandler::</text>
<text text-anchor="middle" x="219.5" y="-62.5" font-family="Helvetica,sans-Serif" font-size="10.00">EnsureInitializedLocked</text>
</a>
</g>
</g>
<!-- Node1&#45;&gt;Node2 -->
<g id="edge1_Node000001_Node000002" class="edge">
<title>Node1&#45;&gt;Node2</title>
<g id="a_edge1_Node000001_Node000002"><a xlink:title=" ">
<path fill="none" stroke="#63b8ff" d="M118.12,-70.5C126.5,-70.5 135.22,-70.5 143.87,-70.5"/>
<polygon fill="#63b8ff" stroke="#63b8ff" points="143.97,-74 153.97,-70.5 143.97,-67 143.97,-74"/>
</a>
</g>
</g>
<!-- Node3 -->
<g id="Node000003" class="node">
<title>Node3</title>
<g id="a_Node000003"><a xlink:href="classLogger.html#a5e4bcdaea60b9ac227b564d780388769" target="_top" xlink:title="Log error message.">
<polygon fill="white" stroke="#666666" points="571.5,-130 492.5,-130 492.5,-111 571.5,-111 571.5,-130"/>
<text text-anchor="middle" x="532" y="-118" font-family="Helvetica,sans-Serif" font-size="10.00">Logger::Error</text>
</a>
</g>
</g>
<!-- Node2&#45;&gt;Node3 -->
<g id="edge2_Node000002_Node000003" class="edge">
<title>Node2&#45;&gt;Node3</title>
<g id="a_edge2_Node000002_Node000003"><a xlink:title=" ">
<path fill="none" stroke="#63b8ff" d="M278.46,-85.5C292.33,-88.77 307.14,-92 321,-94.5 375.94,-104.43 439.65,-111.73 482.37,-116.03"/>
<polygon fill="#63b8ff" stroke="#63b8ff" points="482.19,-119.53 492.49,-117.03 482.88,-112.56 482.19,-119.53"/>
</a>
</g>
</g>
<!-- Node6 -->
<g id="Node000006" class="node">
<title>Node6</title>
<g id="a_Node000006"><a xlink:href="classLogger.html#a5789d11f8f1356e2192c0023a089cbc4" target="_top" xlink:title="Get singleton instance.">
<polygon fill="white" stroke="#666666" points="589,-19 475,-19 475,0 589,0 589,-19"/>
<text text-anchor="middle" x="532" y="-7" font-family="Helvetica,sans-Serif" font-size="10.00">Logger::GetInstance</text>
</a>
</g>
</g>
<!-- Node2&#45;&gt;Node6 -->
<g id="edge5_Node000002_Node000006" class="edge">
<title>Node2&#45;&gt;Node6</title>
<g id="a_edge5_Node000002_Node000006"><a xlink:title=" ">
<path fill="none" stroke="#63b8ff" d="M280.95,-55.44C294.12,-52.34 308,-49.19 321,-46.5 368.89,-36.57 423.27,-27.04 464.7,-20.13"/>
<polygon fill="#63b8ff" stroke="#63b8ff" points="465.38,-23.57 474.67,-18.48 464.23,-16.66 465.38,-23.57"/>
</a>
</g>
</g>
<!-- Node7 -->
<g id="Node000007" class="node">
<title>Node7</title>
<g id="a_Node000007"><a xlink:href="classTle92466edHandler.html#a0883f87dfe49cce3abd5acfc8cb2176c" target="_top" xlink:title="Initialize driver (hardware reset + SPI init + enter config mode).">
<polygon fill="white" stroke="#666666" points="439,-85.5 321,-85.5 321,-55.5 439,-55.5 439,-85.5"/>
<text text-anchor="start" x="329" y="-73.5" font-family="Helvetica,sans-Serif" font-size="10.00">Tle92466edHandler::</text>
<text text-anchor="middle" x="380" y="-62.5" font-family="Helvetica,sans-Serif" font-size="10.00">Initialize</text>
</a>
</g>
</g>
<!-- Node2&#45;&gt;Node7 -->
<g id="edge6_Node000002_Node000007" class="edge">
<title>Node2&#45;&gt;Node7</title>
<g id="a_edge6_Node000002_Node000007"><a xlink:title=" ">
<path fill="none" stroke="#63b8ff" d="M285.43,-70.5C293.75,-70.5 302.3,-70.5 310.68,-70.5"/>
<polygon fill="#63b8ff" stroke="#63b8ff" points="310.79,-74 320.79,-70.5 310.79,-67 310.79,-74"/>
</a>
</g>
</g>
<!-- Node4 -->
<g id="Node000004" class="node">
<title>Node4</title>
<g id="a_Node000004"><a xlink:href="classLogger.html#a737b981213c02321a5235848334d7191" target="_top" xlink:title="Check if log level is enabled for tag.">
<polygon fill="white" stroke="#666666" points="754,-111 625,-111 625,-92 754,-92 754,-111"/>
<text text-anchor="middle" x="689.5" y="-99" font-family="Helvetica,sans-Serif" font-size="10.00">Logger::IsLevelEnabled</text>
</a>
</g>
</g>
<!-- Node3&#45;&gt;Node4 -->
<g id="edge3_Node000003_Node000004" class="edge">
<title>Node3&#45;&gt;Node4</title>
<g id="a_edge3_Node000003_Node000004"><a xlink:title=" ">
<path fill="none" stroke="#63b8ff" d="M571.84,-115.75C584.85,-114.16 599.82,-112.34 614.6,-110.53"/>
<polygon fill="#63b8ff" stroke="#63b8ff" points="615.28,-113.97 624.78,-109.29 614.43,-107.02 615.28,-113.97"/>
</a>
</g>
</g>
<!-- Node5 -->
<g id="Node000005" class="node">
<title>Node5</title>
<g id="a_Node000005"><a xlink:href="classLogger.html#aeede6ac18db92a47caede076ef188a13" target="_top" xlink:title="Internal logging method.">
<polygon fill="white" stroke="#666666" points="744.5,-74 634.5,-74 634.5,-55 744.5,-55 744.5,-74"/>
<text text-anchor="middle" x="689.5" y="-62" font-family="Helvetica,sans-Serif" font-size="10.00">Logger::LogInternal</text>
</a>
</g>
</g>
<!-- Node3&#45;&gt;Node5 -->
<g id="edge4_Node000003_Node000005" class="edge">
<title>Node3&#45;&gt;Node5</title>
<g id="a_edge4_Node000003_Node000005"><a xlink:title=" ">
<path fill="none" stroke="#63b8ff" d="M565.92,-110.98C573.59,-108.47 581.66,-105.59 589,-102.5 605.68,-95.48 608.25,-90.35 625,-83.5 630.53,-81.24 636.42,-79.12 642.31,-77.16"/>
<polygon fill="#63b8ff" stroke="#63b8ff" points="643.67,-80.41 652.14,-74.05 641.55,-73.73 643.67,-80.41"/>
</a>
</g>
</g>
<!-- Node7&#45;&gt;Node3 -->
<g id="edge7_Node000007_Node000003" class="edge">
<title>Node7&#45;&gt;Node3</title>
<g id="a_edge7_Node000007_Node000003"><a xlink:title=" ">
<path fill="none" stroke="#63b8ff" d="M424.94,-85.63C440.71,-91.02 458.63,-97.08 475,-102.5 480.27,-104.24 485.83,-106.06 491.32,-107.84"/>
<polygon fill="#63b8ff" stroke="#63b8ff" points="490.44,-111.23 501.03,-110.97 492.59,-104.57 490.44,-111.23"/>
</a>
</g>
</g>
<!-- Node7&#45;&gt;Node6 -->
<g id="edge8_Node000007_Node000006" class="edge">
<title>Node7&#45;&gt;Node6</title>
<g id="a_edge8_Node000007_Node000006"><a xlink:title=" ">
<path fill="none" stroke="#63b8ff" d="M412.88,-55.37C430.93,-47.02 454.03,-36.72 475,-28.5 480.26,-26.44 485.84,-24.39 491.37,-22.43"/>
<polygon fill="#63b8ff" stroke="#63b8ff" points="492.86,-25.62 501.17,-19.05 490.57,-19 492.86,-25.62"/>
</a>
</g>
</g>
<!-- Node8 -->
<g id="Node000008" class="node">
<title>Node8</title>
<g id="a_Node000008"><a xlink:href="classLogger.html#a1c0c947d87884bca0395fd38d19d1102" target="_top" xlink:title="Log info message.">
<polygon fill="white" stroke="#666666" points="569,-56 495,-56 495,-37 569,-37 569,-56"/>
<text text-anchor="middle" x="532" y="-44" font-family="Helvetica,sans-Serif" font-size="10.00">Logger::Info</text>
</a>
</g>
</g>
<!-- Node7&#45;&gt;Node8 -->
<g id="edge9_Node000007_Node000008" class="edge">
<title>Node7&#45;&gt;Node8</title>
<g id="a_edge9_Node000007_Node000008"><a xlink:title=" ">
<path fill="none" stroke="#63b8ff" d="M439.42,-61.15C454.38,-58.76 470.27,-56.22 484.54,-53.93"/>
<polygon fill="#63b8ff" stroke="#63b8ff" points="485.28,-57.36 494.6,-52.32 484.18,-50.45 485.28,-57.36"/>
</a>
</g>
</g>
<!-- Node9 -->
<g id="Node000009" class="node">
<title>Node9</title>
<g id="a_Node000009"><a xlink:href="classLogger.html#a8c19c14724b0be1d2be63da4258c001a" target="_top" xlink:title="Log warning message.">
<polygon fill="white" stroke="#666666" points="572,-93 492,-93 492,-74 572,-74 572,-93"/>
<text text-anchor="middle" x="532" y="-81" font-family="Helvetica,sans-Serif" font-size="10.00">Logger::Warn</text>
</a>
</g>
</g>
<!-- Node7&#45;&gt;Node9 -->
<g id="edge12_Node000007_Node000009" class="edge">
<title>Node7&#45;&gt;Node9</title>
<g id="a_edge12_Node000007_Node000009"><a xlink:title=" ">
<path fill="none" stroke="#63b8ff" d="M439.42,-75.56C453.45,-76.78 468.29,-78.07 481.85,-79.24"/>
<polygon fill="#63b8ff" stroke="#63b8ff" points="481.67,-82.74 491.94,-80.11 482.27,-75.76 481.67,-82.74"/>
</a>
</g>
</g>
<!-- Node8&#45;&gt;Node4 -->
<g id="edge10_Node000008_Node000004" class="edge">
<title>Node8&#45;&gt;Node4</title>
<g id="a_edge10_Node000008_Node000004"><a xlink:title=" ">
<path fill="none" stroke="#63b8ff" d="M563.51,-56.01C571.86,-58.84 580.85,-62.1 589,-65.5 605.51,-72.39 608.32,-77.03 625,-83.5 630.07,-85.47 635.45,-87.33 640.85,-89.05"/>
<polygon fill="#63b8ff" stroke="#63b8ff" points="639.92,-92.42 650.51,-91.99 641.96,-85.73 639.92,-92.42"/>
</a>
</g>
</g>
<!-- Node8&#45;&gt;Node5 -->
<g id="edge11_Node000008_Node000005" class="edge">
<title>Node8&#45;&gt;Node5</title>
<g id="a_edge11_Node000008_Node000005"><a xlink:title=" ">
<path fill="none" stroke="#63b8ff" d="M569.07,-50.67C585.49,-52.58 605.44,-54.89 624.3,-57.07"/>
<polygon fill="#63b8ff" stroke="#63b8ff" points="624,-60.56 634.33,-58.23 624.8,-53.6 624,-60.56"/>
</a>
</g>
</g>
<!-- Node9&#45;&gt;Node4 -->
<g id="edge13_Node000009_Node000004" class="edge">
<title>Node9&#45;&gt;Node4</title>
<g id="a_edge13_Node000009_Node000004"><a xlink:title=" ">
<path fill="none" stroke="#63b8ff" d="M572.24,-88.04C585.18,-89.54 600.02,-91.26 614.68,-92.95"/>
<polygon fill="#63b8ff" stroke="#63b8ff" points="614.43,-96.45 624.77,-94.12 615.24,-89.5 614.43,-96.45"/>
</a>
</g>
</g>
<!-- Node9&#45;&gt;Node5 -->
<g id="edge14_Node000009_Node000005" class="edge">
<title>Node9&#45;&gt;Node5</title>
<g id="a_edge14_Node000009_Node000005"><a xlink:title=" ">
<path fill="none" stroke="#63b8ff" d="M572.24,-78.71C587.96,-76.78 606.49,-74.52 624.08,-72.37"/>
<polygon fill="#63b8ff" stroke="#63b8ff" points="624.8,-75.81 634.3,-71.12 623.95,-68.86 624.8,-75.81"/>
</a>
</g>
</g>
</g>
</svg>
