<?xml version="1.0" encoding="UTF-8" standalone="no"?>
<!DOCTYPE svg PUBLIC "-//W3C//DTD SVG 1.1//EN"
 "http://www.w3.org/Graphics/SVG/1.1/DTD/svg11.dtd">
<!-- Generated by graphviz version 2.43.0 (0)
 -->
<!-- Title: Logger::Warn Pages: 1 -->
<svg width="758pt" height="1343pt"
 viewBox="0.00 0.00 758.00 1343.00" xmlns="http://www.w3.org/2000/svg" xmlns:xlink="http://www.w3.org/1999/xlink">
<g id="graph0" class="graph" transform="scale(1 1) rotate(0) translate(4 1339)">
<title>Logger::Warn</title>
<!-- Node1 -->
<g id="Node000001" class="node">
<title>Node1</title>
<g id="a_Node000001"><a xlink:title="Log warning message.">
<polygon fill="#999999" stroke="#666666" points="750,-1015 670,-1015 670,-996 750,-996 750,-1015"/>
<text text-anchor="middle" x="710" y="-1003" font-family="Helvetica,sans-Serif" font-size="10.00">Logger::Warn</text>
</a>
</g>
</g>
<!-- Node2 -->
<g id="Node000002" class="node">
<title>Node2</title>
<g id="a_Node000002"><a xlink:href="classTmc9660Handler.html#ad2004d275f9578a1530ad9eb49ff7afb" target="_top" xlink:title="Disable the motor driver output stage (coast/brake behavior depends on gate driver configuration).">
<polygon fill="white" stroke="#666666" points="634,-1286 463,-1286 463,-1267 634,-1267 634,-1286"/>
<text text-anchor="middle" x="548.5" y="-1274" font-family="Helvetica,sans-Serif" font-size="10.00">Tmc9660Handler::DisableMotor</text>
</a>
</g>
</g>
<!-- Node1&#45;&gt;Node2 -->
<g id="edge1_Node000001_Node000002" class="edge">
<title>Node1&#45;&gt;Node2</title>
<g id="a_edge1_Node000001_Node000002"><a xlink:title=" ">
<path fill="none" stroke="#63b8ff" d="M709.02,-1025.44C707.93,-1072.08 698.55,-1189.1 634,-1252.5 627.58,-1258.8 619.63,-1263.48 611.2,-1266.94"/>
<polygon fill="#63b8ff" stroke="#63b8ff" points="712.52,-1025.22 709.14,-1015.18 705.52,-1025.13 712.52,-1025.22"/>
</a>
</g>
</g>
<!-- Node3 -->
<g id="Node000003" class="node">
<title>Node3</title>
<g id="a_Node000003"><a xlink:href="classTmc5160Handler.html#ab4bf5aabef968f6f8ee66d08cf05913a" target="_top" xlink:title="Dump diagnostic information to logger.">
<polygon fill="white" stroke="#666666" points="195,-1335 3,-1335 3,-1316 195,-1316 195,-1335"/>
<text text-anchor="middle" x="99" y="-1323" font-family="Helvetica,sans-Serif" font-size="10.00">Tmc5160Handler::DumpDiagnostics</text>
</a>
</g>
</g>
<!-- Node1&#45;&gt;Node3 -->
<g id="edge2_Node000001_Node000003" class="edge">
<title>Node1&#45;&gt;Node3</title>
<g id="a_edge2_Node000001_Node000003"><a xlink:title=" ">
<path fill="none" stroke="#63b8ff" d="M706.76,-1025.65C701.42,-1063.85 684.36,-1146.99 634,-1191.5 558.87,-1257.89 295.82,-1285.54 198,-1307.5 184.5,-1310.53 169.86,-1313.43 156.12,-1315.97"/>
<polygon fill="#63b8ff" stroke="#63b8ff" points="710.28,-1025.68 708.07,-1015.32 703.34,-1024.8 710.28,-1025.68"/>
</a>
</g>
</g>
<!-- Node4 -->
<g id="Node000004" class="node">
<title>Node4</title>
<g id="a_Node000004"><a xlink:href="classTmc9660Handler.html#aee0edc3320de8f590480ed4546254fc2" target="_top" xlink:title="Enable the motor driver output stage.">
<polygon fill="white" stroke="#666666" points="632,-1133 465,-1133 465,-1114 632,-1114 632,-1133"/>
<text text-anchor="middle" x="548.5" y="-1121" font-family="Helvetica,sans-Serif" font-size="10.00">Tmc9660Handler::EnableMotor</text>
</a>
</g>
</g>
<!-- Node1&#45;&gt;Node4 -->
<g id="edge3_Node000001_Node000004" class="edge">
<title>Node1&#45;&gt;Node4</title>
<g id="a_edge3_Node000001_Node000004"><a xlink:title=" ">
<path fill="none" stroke="#63b8ff" d="M700.33,-1024.05C688.63,-1046.96 665.54,-1085.35 634,-1105.5 628.69,-1108.89 622.85,-1111.66 616.79,-1113.91"/>
<polygon fill="#63b8ff" stroke="#63b8ff" points="703.5,-1025.53 704.77,-1015.01 697.22,-1022.44 703.5,-1025.53"/>
</a>
</g>
</g>
<!-- Node5 -->
<g id="Node000005" class="node">
<title>Node5</title>
<g id="a_Node000005"><a xlink:href="namespaceanonymous__namespace_02Tmc9660Handler_8cpp_03.html#a9645e5797d8ff9813283015d244ec066" target="_top" xlink:title=" ">
<polygon fill="white" stroke="#666666" points="616,-1096 481,-1096 481,-1055 616,-1055 616,-1096"/>
<text text-anchor="start" x="489" y="-1084" font-family="Helvetica,sans-Serif" font-size="10.00">anonymous_namespace</text>
<text text-anchor="start" x="489" y="-1073" font-family="Helvetica,sans-Serif" font-size="10.00">{Tmc9660Handler::cpp}</text>
<text text-anchor="middle" x="548.5" y="-1062" font-family="Helvetica,sans-Serif" font-size="10.00">::halDebugLog</text>
</a>
</g>
</g>
<!-- Node1&#45;&gt;Node5 -->
<g id="edge4_Node000001_Node000005" class="edge">
<title>Node1&#45;&gt;Node5</title>
<g id="a_edge4_Node000001_Node000005"><a xlink:title=" ">
<path fill="none" stroke="#63b8ff" d="M684.52,-1020.26C670.12,-1028.59 651.37,-1038.84 634,-1046.5 627.33,-1049.44 620.26,-1052.28 613.16,-1054.96"/>
<polygon fill="#63b8ff" stroke="#63b8ff" points="686.45,-1023.18 693.3,-1015.1 682.91,-1017.15 686.45,-1023.18"/>
</a>
</g>
</g>
<!-- Node8 -->
<g id="Node000008" class="node">
<title>Node8</title>
<g id="a_Node000008"><a xlink:href="classMax22200Handler.html#ad6c72b45a96c36cd1b450f5e330fad25" target="_top" xlink:title="Initialize driver (ENABLE HIGH, read/clear STATUS, set ACTIVE).">
<polygon fill="white" stroke="#666666" points="625.5,-1037 471.5,-1037 471.5,-1018 625.5,-1018 625.5,-1037"/>
<text text-anchor="middle" x="548.5" y="-1025" font-family="Helvetica,sans-Serif" font-size="10.00">Max22200Handler::Initialize</text>
</a>
</g>
</g>
<!-- Node1&#45;&gt;Node8 -->
<g id="edge7_Node000001_Node000008" class="edge">
<title>Node1&#45;&gt;Node8</title>
<g id="a_edge7_Node000001_Node000008"><a xlink:title=" ">
<path fill="none" stroke="#63b8ff" d="M659.84,-1012.28C646.8,-1014.08 632.48,-1016.05 618.6,-1017.97"/>
<polygon fill="#63b8ff" stroke="#63b8ff" points="660.55,-1015.72 669.98,-1010.88 659.6,-1008.78 660.55,-1015.72"/>
</a>
</g>
</g>
<!-- Node18 -->
<g id="Node000018" class="node">
<title>Node18</title>
<g id="a_Node000018"><a xlink:href="classTle92466edHandler.html#a0883f87dfe49cce3abd5acfc8cb2176c" target="_top" xlink:title="Initialize driver (hardware reset + SPI init + enter config mode).">
<polygon fill="white" stroke="#666666" points="607.5,-999.5 489.5,-999.5 489.5,-969.5 607.5,-969.5 607.5,-999.5"/>
<text text-anchor="start" x="497.5" y="-987.5" font-family="Helvetica,sans-Serif" font-size="10.00">Tle92466edHandler::</text>
<text text-anchor="middle" x="548.5" y="-976.5" font-family="Helvetica,sans-Serif" font-size="10.00">Initialize</text>
</a>
</g>
</g>
<!-- Node1&#45;&gt;Node18 -->
<g id="edge16_Node000001_Node000018" class="edge">
<title>Node1&#45;&gt;Node18</title>
<g id="a_edge16_Node000001_Node000018"><a xlink:title=" ">
<path fill="none" stroke="#63b8ff" d="M660,-999.05C643.48,-996.87 624.88,-994.43 607.72,-992.17"/>
<polygon fill="#63b8ff" stroke="#63b8ff" points="659.61,-1002.53 669.98,-1000.36 660.52,-995.59 659.61,-1002.53"/>
</a>
</g>
</g>
<!-- Node33 -->
<g id="Node000033" class="node">
<title>Node33</title>
<g id="a_Node000033"><a xlink:href="classWs2812Handler.html#a172ae173d1e2bd93c9808452aad6e4cd" target="_top" xlink:title="Initialize the RMT channel and LED strip.">
<polygon fill="white" stroke="#666666" points="619.5,-951 477.5,-951 477.5,-932 619.5,-932 619.5,-951"/>
<text text-anchor="middle" x="548.5" y="-939" font-family="Helvetica,sans-Serif" font-size="10.00">Ws2812Handler::Initialize</text>
</a>
</g>
</g>
<!-- Node1&#45;&gt;Node33 -->
<g id="edge30_Node000001_Node000033" class="edge">
<title>Node1&#45;&gt;Node33</title>
<g id="a_edge30_Node000001_Node000033"><a xlink:title=" ">
<path fill="none" stroke="#63b8ff" d="M687.59,-990.13C673.09,-980.36 653.15,-968.16 634,-960.5 624.51,-956.7 614.1,-953.58 603.92,-951.04"/>
<polygon fill="#63b8ff" stroke="#63b8ff" points="685.64,-993.03 695.86,-995.83 689.61,-987.27 685.64,-993.03"/>
</a>
</g>
</g>
<!-- Node44 -->
<g id="Node000044" class="node">
<title>Node44</title>
<g id="a_Node000044"><a xlink:href="classNtcTemperatureHandler.html#a97fa93b2ed6337e24e056b46fbe331c7" target="_top" xlink:title=" ">
<polygon fill="white" stroke="#666666" points="615,-913.5 482,-913.5 482,-883.5 615,-883.5 615,-913.5"/>
<text text-anchor="start" x="490" y="-901.5" font-family="Helvetica,sans-Serif" font-size="10.00">NtcTemperatureHandler</text>
<text text-anchor="middle" x="548.5" y="-890.5" font-family="Helvetica,sans-Serif" font-size="10.00">::Initialize</text>
</a>
</g>
</g>
<!-- Node1&#45;&gt;Node44 -->
<g id="edge39_Node000001_Node000044" class="edge">
<title>Node1&#45;&gt;Node44</title>
<g id="a_edge39_Node000001_Node000044"><a xlink:title=" ">
<path fill="none" stroke="#63b8ff" d="M697.12,-987.59C683.86,-968.96 660.71,-940.2 634,-923.5 627.9,-919.69 621.2,-916.43 614.31,-913.66"/>
<polygon fill="#63b8ff" stroke="#63b8ff" points="694.25,-989.59 702.81,-995.83 700.01,-985.62 694.25,-989.59"/>
</a>
</g>
</g>
<!-- Node45 -->
<g id="Node000045" class="node">
<title>Node45</title>
<g id="a_Node000045"><a xlink:href="classMax22200Handler.html#a4a87c1be18b3b4fb6055bccd6df7da9f" target="_top" xlink:title="Initialize with board configuration.">
<polygon fill="white" stroke="#666666" points="625.5,-865 471.5,-865 471.5,-846 625.5,-846 625.5,-865"/>
<text text-anchor="middle" x="548.5" y="-853" font-family="Helvetica,sans-Serif" font-size="10.00">Max22200Handler::Initialize</text>
</a>
</g>
</g>
<!-- Node1&#45;&gt;Node45 -->
<g id="edge40_Node000001_Node000045" class="edge">
<title>Node1&#45;&gt;Node45</title>
<g id="a_edge40_Node000001_Node000045"><a xlink:title=" ">
<path fill="none" stroke="#63b8ff" d="M703.41,-985.99C694.04,-956.96 672.32,-902.8 634,-874.5 628.8,-870.66 622.96,-867.57 616.85,-865.1"/>
<polygon fill="#63b8ff" stroke="#63b8ff" points="700.13,-987.24 706.4,-995.77 706.82,-985.19 700.13,-987.24"/>
</a>
</g>
</g>
<!-- Node46 -->
<g id="Node000046" class="node">
<title>Node46</title>
<g id="a_Node000046"><a xlink:href="classTle92466edHandler.html#a427b6968c56e28e3e8d92b9d083fca33" target="_top" xlink:title="Initialize with global configuration.">
<polygon fill="white" stroke="#666666" points="607.5,-827.5 489.5,-827.5 489.5,-797.5 607.5,-797.5 607.5,-827.5"/>
<text text-anchor="start" x="497.5" y="-815.5" font-family="Helvetica,sans-Serif" font-size="10.00">Tle92466edHandler::</text>
<text text-anchor="middle" x="548.5" y="-804.5" font-family="Helvetica,sans-Serif" font-size="10.00">Initialize</text>
</a>
</g>
</g>
<!-- Node1&#45;&gt;Node46 -->
<g id="edge41_Node000001_Node000046" class="edge">
<title>Node1&#45;&gt;Node46</title>
<g id="a_edge41_Node000001_Node000046"><a xlink:title=" ">
<path fill="none" stroke="#63b8ff" d="M705.76,-985.95C698.93,-950.96 679.75,-877.57 634,-837.5 626.52,-830.95 617.39,-826.11 607.93,-822.54"/>
<polygon fill="#63b8ff" stroke="#63b8ff" points="702.33,-986.65 707.56,-995.87 709.22,-985.4 702.33,-986.65"/>
</a>
</g>
</g>
<!-- Node47 -->
<g id="Node000047" class="node">
<title>Node47</title>
<g id="a_Node000047"><a xlink:href="classTmc5160Handler.html#a64755f326176b0a38485acf5ca69fd0c" target="_top" xlink:title="Initialize the TMC5160 driver with full configuration.">
<polygon fill="white" stroke="#666666" points="622.5,-1182 474.5,-1182 474.5,-1163 622.5,-1163 622.5,-1182"/>
<text text-anchor="middle" x="548.5" y="-1170" font-family="Helvetica,sans-Serif" font-size="10.00">Tmc5160Handler::Initialize</text>
</a>
</g>
</g>
<!-- Node1&#45;&gt;Node47 -->
<g id="edge42_Node000001_Node000047" class="edge">
<title>Node1&#45;&gt;Node47</title>
<g id="a_edge42_Node000001_Node000047"><a xlink:title=" ">
<path fill="none" stroke="#63b8ff" d="M703.33,-1024.92C693.77,-1054.4 671.69,-1110.4 634,-1142.5 622.98,-1151.89 608.81,-1158.41 595.24,-1162.92"/>
<polygon fill="#63b8ff" stroke="#63b8ff" points="706.68,-1025.94 706.29,-1015.35 699.99,-1023.87 706.68,-1025.94"/>
</a>
</g>
</g>
<!-- Node67 -->
<g id="Node000067" class="node">
<title>Node67</title>
<g id="a_Node000067"><a xlink:href="classTmc9660Handler_1_1Temperature.html#a5ebc77b2122ba4473b74a4a0fc78ff09" target="_top" xlink:title="Read the chip temperature in degrees Celsius.">
<polygon fill="white" stroke="#666666" points="632,-779.5 465,-779.5 465,-749.5 632,-749.5 632,-779.5"/>
<text text-anchor="start" x="473" y="-767.5" font-family="Helvetica,sans-Serif" font-size="10.00">Tmc9660Handler::Temperature</text>
<text text-anchor="middle" x="548.5" y="-756.5" font-family="Helvetica,sans-Serif" font-size="10.00">::ReadTemperatureCelsiusImpl</text>
</a>
</g>
</g>
<!-- Node1&#45;&gt;Node67 -->
<g id="edge50_Node000001_Node000067" class="edge">
<title>Node1&#45;&gt;Node67</title>
<g id="a_edge50_Node000001_Node000067"><a xlink:title=" ">
<path fill="none" stroke="#63b8ff" d="M708.02,-985.39C704.83,-942.74 691.31,-842.68 634,-788.5 630.34,-785.04 626.22,-782.08 621.83,-779.54"/>
<polygon fill="#63b8ff" stroke="#63b8ff" points="704.54,-985.83 708.66,-995.59 711.53,-985.39 704.54,-985.83"/>
</a>
</g>
</g>
<!-- Node6 -->
<g id="Node000006" class="node">
<title>Node6</title>
<g id="a_Node000006"><a xlink:href="classHalSpiTmc9660Comm.html#ac7145aa4216147b19418a4b23cccda75" target="_top" xlink:title="Route TMC9660 driver debug output to the HardFOC Logger.">
<polygon fill="white" stroke="#666666" points="396,-1127.5 265,-1127.5 265,-1097.5 396,-1097.5 396,-1127.5"/>
<text text-anchor="start" x="273" y="-1115.5" font-family="Helvetica,sans-Serif" font-size="10.00">HalSpiTmc9660Comm::</text>
<text text-anchor="middle" x="330.5" y="-1104.5" font-family="Helvetica,sans-Serif" font-size="10.00">debugLog</text>
</a>
</g>
</g>
<!-- Node5&#45;&gt;Node6 -->
<g id="edge5_Node000005_Node000006" class="edge">
<title>Node5&#45;&gt;Node6</title>
<g id="a_edge5_Node000005_Node000006"><a xlink:title=" ">
<path fill="none" stroke="#63b8ff" d="M471,-1088.6C446.6,-1092.78 419.86,-1097.37 396.37,-1101.39"/>
<polygon fill="#63b8ff" stroke="#63b8ff" points="471.66,-1092.04 480.93,-1086.9 470.48,-1085.14 471.66,-1092.04"/>
</a>
</g>
</g>
<!-- Node7 -->
<g id="Node000007" class="node">
<title>Node7</title>
<g id="a_Node000007"><a xlink:href="classHalUartTmc9660Comm.html#a1a992dfbd1c60452f19f38dff2754403" target="_top" xlink:title="Route TMC9660 driver debug output to the HardFOC Logger.">
<polygon fill="white" stroke="#666666" points="396,-1079.5 265,-1079.5 265,-1049.5 396,-1049.5 396,-1079.5"/>
<text text-anchor="start" x="273" y="-1067.5" font-family="Helvetica,sans-Serif" font-size="10.00">HalUartTmc9660Comm</text>
<text text-anchor="middle" x="330.5" y="-1056.5" font-family="Helvetica,sans-Serif" font-size="10.00">::debugLog</text>
</a>
</g>
</g>
<!-- Node5&#45;&gt;Node7 -->
<g id="edge6_Node000005_Node000007" class="edge">
<title>Node5&#45;&gt;Node7</title>
<g id="a_edge6_Node000005_Node000007"><a xlink:title=" ">
<path fill="none" stroke="#63b8ff" d="M470.67,-1071.59C446.36,-1070.35 419.75,-1068.99 396.37,-1067.8"/>
<polygon fill="#63b8ff" stroke="#63b8ff" points="470.77,-1075.1 480.93,-1072.11 471.12,-1068.11 470.77,-1075.1"/>
</a>
</g>
</g>
<!-- Node9 -->
<g id="Node000009" class="node">
<title>Node9</title>
<g id="a_Node000009"><a xlink:href="classMax22200Handler.html#aa00edacb247660349767fa4521121104" target="_top" xlink:title=" ">
<polygon fill="white" stroke="#666666" points="427,-998.5 234,-998.5 234,-968.5 427,-968.5 427,-998.5"/>
<text text-anchor="start" x="242" y="-986.5" font-family="Helvetica,sans-Serif" font-size="10.00">Max22200Handler::EnsureInitialized</text>
<text text-anchor="middle" x="330.5" y="-975.5" font-family="Helvetica,sans-Serif" font-size="10.00">Locked</text>
</a>
</g>
</g>
<!-- Node8&#45;&gt;Node9 -->
<g id="edge8_Node000008_Node000009" class="edge">
<title>Node8&#45;&gt;Node9</title>
<g id="a_edge8_Node000008_Node000009"><a xlink:title=" ">
<path fill="none" stroke="#63b8ff" d="M490.55,-1015.9C464.5,-1010.59 433.3,-1004.24 405.46,-998.57"/>
<polygon fill="#63b8ff" stroke="#63b8ff" points="490.13,-1019.39 500.63,-1017.95 491.53,-1012.53 490.13,-1019.39"/>
</a>
</g>
</g>
<!-- Node10 -->
<g id="Node000010" class="node">
<title>Node10</title>
<g id="a_Node000010"><a xlink:href="classMax22200Handler.html#a439f52e4acfac83872a74fa9eef5237f" target="_top" xlink:title="Clear all fault flags.">
<polygon fill="white" stroke="#666666" points="182,-1101 16,-1101 16,-1082 182,-1082 182,-1101"/>
<text text-anchor="middle" x="99" y="-1089" font-family="Helvetica,sans-Serif" font-size="10.00">Max22200Handler::ClearFaults</text>
</a>
</g>
</g>
<!-- Node9&#45;&gt;Node10 -->
<g id="edge9_Node000009_Node000010" class="edge">
<title>Node9&#45;&gt;Node10</title>
<g id="a_edge9_Node000009_Node000010"><a xlink:title=" ">
<path fill="none" stroke="#63b8ff" d="M291.96,-1003.72C273.93,-1013.98 252.3,-1027.09 234,-1040.5 216.73,-1053.15 217.19,-1063.01 198,-1072.5 190.08,-1076.42 181.42,-1079.53 172.64,-1082"/>
<polygon fill="#63b8ff" stroke="#63b8ff" points="294.03,-1006.58 301.03,-998.63 290.6,-1000.47 294.03,-1006.58"/>
</a>
</g>
</g>
<!-- Node11 -->
<g id="Node000011" class="node">
<title>Node11</title>
<g id="a_Node000011"><a xlink:href="classMax22200Handler.html#a8469fc41589ea672b8732769d2222443" target="_top" xlink:title="Disable all channels.">
<polygon fill="white" stroke="#666666" points="173.5,-1063.5 24.5,-1063.5 24.5,-1033.5 173.5,-1033.5 173.5,-1063.5"/>
<text text-anchor="start" x="32.5" y="-1051.5" font-family="Helvetica,sans-Serif" font-size="10.00">Max22200Handler::Disable</text>
<text text-anchor="middle" x="99" y="-1040.5" font-family="Helvetica,sans-Serif" font-size="10.00">AllChannels</text>
</a>
</g>
</g>
<!-- Node9&#45;&gt;Node11 -->
<g id="edge10_Node000009_Node000011" class="edge">
<title>Node9&#45;&gt;Node11</title>
<g id="a_edge10_Node000009_Node000011"><a xlink:title=" ">
<path fill="none" stroke="#63b8ff" d="M274.02,-1001.64C250.65,-1009.06 223.1,-1017.52 198,-1024.5 187.03,-1027.55 175.31,-1030.6 163.94,-1033.45"/>
<polygon fill="#63b8ff" stroke="#63b8ff" points="275.3,-1004.9 283.76,-998.53 273.17,-998.23 275.3,-1004.9"/>
</a>
</g>
</g>
<!-- Node12 -->
<g id="Node000012" class="node">
<title>Node12</title>
<g id="a_Node000012"><a xlink:href="classMax22200Handler.html#afd07a624dc736a1452c0f6190499adc0" target="_top" xlink:title="Dump diagnostics to logger.">
<polygon fill="white" stroke="#666666" points="198,-1015 0,-1015 0,-996 198,-996 198,-1015"/>
<text text-anchor="middle" x="99" y="-1003" font-family="Helvetica,sans-Serif" font-size="10.00">Max22200Handler::DumpDiagnostics</text>
</a>
</g>
</g>
<!-- Node9&#45;&gt;Node12 -->
<g id="edge11_Node000009_Node000012" class="edge">
<title>Node9&#45;&gt;Node12</title>
<g id="a_edge11_Node000009_Node000012"><a xlink:title=" ">
<path fill="none" stroke="#63b8ff" d="M223.82,-993.63C215.25,-994.45 206.61,-995.28 198.1,-996.1"/>
<polygon fill="#63b8ff" stroke="#63b8ff" points="224.21,-997.11 233.83,-992.67 223.54,-990.14 224.21,-997.11"/>
</a>
</g>
</g>
<!-- Node13 -->
<g id="Node000013" class="node">
<title>Node13</title>
<g id="a_Node000013"><a xlink:href="classMax22200Handler.html#aa9e41274b5467db2e901be023d4dd061" target="_top" xlink:title="Enable all channels.">
<polygon fill="white" stroke="#666666" points="178,-977.5 20,-977.5 20,-947.5 178,-947.5 178,-977.5"/>
<text text-anchor="start" x="28" y="-965.5" font-family="Helvetica,sans-Serif" font-size="10.00">Max22200Handler::EnableAll</text>
<text text-anchor="middle" x="99" y="-954.5" font-family="Helvetica,sans-Serif" font-size="10.00">Channels</text>
</a>
</g>
</g>
<!-- Node9&#45;&gt;Node13 -->
<g id="edge12_Node000009_Node000013" class="edge">
<title>Node9&#45;&gt;Node13</title>
<g id="a_edge12_Node000009_Node000013"><a xlink:title=" ">
<path fill="none" stroke="#63b8ff" d="M223.77,-973.83C208.38,-972.42 192.78,-970.99 178.08,-969.64"/>
<polygon fill="#63b8ff" stroke="#63b8ff" points="223.56,-977.32 233.83,-974.75 224.19,-970.35 223.56,-977.32"/>
</a>
</g>
</g>
<!-- Node14 -->
<g id="Node000014" class="node">
<title>Node14</title>
<g id="a_Node000014"><a xlink:href="classMax22200Handler.html#a803b60663755d7850857626b58efc084" target="_top" xlink:title="Ensure driver is initialized (lazy init entrypoint).">
<polygon fill="white" stroke="#666666" points="195.5,-929 2.5,-929 2.5,-910 195.5,-910 195.5,-929"/>
<text text-anchor="middle" x="99" y="-917" font-family="Helvetica,sans-Serif" font-size="10.00">Max22200Handler::EnsureInitialized</text>
</a>
</g>
</g>
<!-- Node9&#45;&gt;Node14 -->
<g id="edge13_Node000009_Node000014" class="edge">
<title>Node9&#45;&gt;Node14</title>
<g id="a_edge13_Node000009_Node000014"><a xlink:title=" ">
<path fill="none" stroke="#63b8ff" d="M280.78,-965.03C256.2,-956.17 225.79,-945.91 198,-938.5 184.6,-934.93 170.01,-931.73 156.27,-929.03"/>
<polygon fill="#63b8ff" stroke="#63b8ff" points="279.64,-968.34 290.23,-968.47 282.03,-961.76 279.64,-968.34"/>
</a>
</g>
</g>
<!-- Node15 -->
<g id="Node000015" class="node">
<title>Node15</title>
<g id="a_Node000015"><a xlink:href="classMax22200Handler.html#a001e00b9d9a02611b51951f16bcb78d1" target="_top" xlink:title="Get the underlying driver for advanced operations.">
<polygon fill="#fff0f0" stroke="red" points="178.5,-892 19.5,-892 19.5,-873 178.5,-873 178.5,-892"/>
<text text-anchor="middle" x="99" y="-880" font-family="Helvetica,sans-Serif" font-size="10.00">Max22200Handler::GetDriver</text>
</a>
</g>
</g>
<!-- Node9&#45;&gt;Node15 -->
<g id="edge14_Node000009_Node000015" class="edge">
<title>Node9&#45;&gt;Node15</title>
<g id="a_edge14_Node000009_Node000015"><a xlink:title=" ">
<path fill="none" stroke="#63b8ff" d="M302.14,-962.23C276.59,-943.44 236.69,-916.71 198,-901.5 188.16,-897.63 177.45,-894.53 166.83,-892.05"/>
<polygon fill="#63b8ff" stroke="#63b8ff" points="300.12,-965.1 310.23,-968.28 304.31,-959.49 300.12,-965.1"/>
</a>
</g>
</g>
<!-- Node17 -->
<g id="Node000017" class="node">
<title>Node17</title>
<g id="a_Node000017"><a xlink:href="classMax22200Handler.html#ac5b60b117fec404c55597929134fa1a1" target="_top" xlink:title="Check if any fault is present.">
<polygon fill="white" stroke="#666666" points="176,-855 22,-855 22,-836 176,-836 176,-855"/>
<text text-anchor="middle" x="99" y="-843" font-family="Helvetica,sans-Serif" font-size="10.00">Max22200Handler::HasFault</text>
</a>
</g>
</g>
<!-- Node9&#45;&gt;Node17 -->
<g id="edge15_Node000009_Node000017" class="edge">
<title>Node9&#45;&gt;Node17</title>
<g id="a_edge15_Node000009_Node000017"><a xlink:title=" ">
<path fill="none" stroke="#63b8ff" d="M310.96,-960.34C287.63,-932.9 244.92,-887.95 198,-864.5 190.17,-860.59 181.62,-857.48 172.93,-855.01"/>
<polygon fill="#63b8ff" stroke="#63b8ff" points="308.46,-962.81 317.55,-968.25 313.84,-958.33 308.46,-962.81"/>
</a>
</g>
</g>
<!-- Node19 -->
<g id="Node000019" class="node">
<title>Node19</title>
<g id="a_Node000019"><a xlink:href="classTle92466edHandler.html#a59ce7fd71a61c78bba4dc4a43c99e280" target="_top" xlink:title=" ">
<polygon fill="white" stroke="#666666" points="396,-577.5 265,-577.5 265,-547.5 396,-547.5 396,-577.5"/>
<text text-anchor="start" x="273" y="-565.5" font-family="Helvetica,sans-Serif" font-size="10.00">Tle92466edHandler::</text>
<text text-anchor="middle" x="330.5" y="-554.5" font-family="Helvetica,sans-Serif" font-size="10.00">EnsureInitializedLocked</text>
</a>
</g>
</g>
<!-- Node18&#45;&gt;Node19 -->
<g id="edge17_Node000018_Node000019" class="edge">
<title>Node18&#45;&gt;Node19</title>
<g id="a_edge17_Node000018_Node000019"><a xlink:title=" ">
<path fill="none" stroke="#63b8ff" d="M480.02,-972.15C473.78,-969.07 467.96,-965.25 463,-960.5 347.68,-849.97 333.44,-636.38 331.72,-577.72"/>
<polygon fill="#63b8ff" stroke="#63b8ff" points="478.82,-975.44 489.4,-976.13 481.56,-969 478.82,-975.44"/>
</a>
</g>
</g>
<!-- Node20 -->
<g id="Node000020" class="node">
<title>Node20</title>
<g id="a_Node000020"><a xlink:href="classTle92466edHandler.html#a61a76044cfd01bc741e5b86fce5cf592" target="_top" xlink:title="Clear all fault flags.">
<polygon fill="white" stroke="#666666" points="158,-817.5 40,-817.5 40,-787.5 158,-787.5 158,-817.5"/>
<text text-anchor="start" x="48" y="-805.5" font-family="Helvetica,sans-Serif" font-size="10.00">Tle92466edHandler::</text>
<text text-anchor="middle" x="99" y="-794.5" font-family="Helvetica,sans-Serif" font-size="10.00">ClearFaults</text>
</a>
</g>
</g>
<!-- Node19&#45;&gt;Node20 -->
<g id="edge18_Node000019_Node000020" class="edge">
<title>Node19&#45;&gt;Node20</title>
<g id="a_edge18_Node000019_Node000020"><a xlink:title=" ">
<path fill="none" stroke="#63b8ff" d="M321.6,-587.21C305.8,-632.52 265.86,-728.81 198,-778.5 186.41,-786.99 172.19,-792.5 158.22,-796.07"/>
<polygon fill="#63b8ff" stroke="#63b8ff" points="324.96,-588.19 324.86,-577.6 318.33,-585.95 324.96,-588.19"/>
</a>
</g>
</g>
<!-- Node21 -->
<g id="Node000021" class="node">
<title>Node21</title>
<g id="a_Node000021"><a xlink:href="classTle92466edHandler.html#ad8eb36eac8e534aee77e3862f59f4813" target="_top" xlink:title="Disable all channels.">
<polygon fill="white" stroke="#666666" points="158,-769.5 40,-769.5 40,-739.5 158,-739.5 158,-769.5"/>
<text text-anchor="start" x="48" y="-757.5" font-family="Helvetica,sans-Serif" font-size="10.00">Tle92466edHandler::</text>
<text text-anchor="middle" x="99" y="-746.5" font-family="Helvetica,sans-Serif" font-size="10.00">DisableAllChannels</text>
</a>
</g>
</g>
<!-- Node19&#45;&gt;Node21 -->
<g id="edge19_Node000019_Node000021" class="edge">
<title>Node19&#45;&gt;Node21</title>
<g id="a_edge19_Node000019_Node000021"><a xlink:title=" ">
<path fill="none" stroke="#63b8ff" d="M317.45,-586.64C297.73,-623.58 254.98,-693.7 198,-730.5 186.08,-738.2 171.89,-743.43 158.07,-746.98"/>
<polygon fill="#63b8ff" stroke="#63b8ff" points="320.66,-588.06 322.18,-577.58 314.45,-584.83 320.66,-588.06"/>
</a>
</g>
</g>
<!-- Node22 -->
<g id="Node000022" class="node">
<title>Node22</title>
<g id="a_Node000022"><a xlink:href="classTle92466edHandler.html#afcec01ba90f6596dcde99387ef41b6e4" target="_top" xlink:title="Dump diagnostics to logger.">
<polygon fill="white" stroke="#666666" points="158,-721.5 40,-721.5 40,-691.5 158,-691.5 158,-721.5"/>
<text text-anchor="start" x="48" y="-709.5" font-family="Helvetica,sans-Serif" font-size="10.00">Tle92466edHandler::</text>
<text text-anchor="middle" x="99" y="-698.5" font-family="Helvetica,sans-Serif" font-size="10.00">DumpDiagnostics</text>
</a>
</g>
</g>
<!-- Node19&#45;&gt;Node22 -->
<g id="edge20_Node000019_Node000022" class="edge">
<title>Node19&#45;&gt;Node22</title>
<g id="a_edge20_Node000019_Node000022"><a xlink:title=" ">
<path fill="none" stroke="#63b8ff" d="M310.8,-585.48C287.33,-612.77 244.46,-657.72 198,-682.5 185.79,-689.01 171.78,-693.79 158.25,-697.28"/>
<polygon fill="#63b8ff" stroke="#63b8ff" points="313.66,-587.51 317.45,-577.61 308.32,-582.99 313.66,-587.51"/>
</a>
</g>
</g>
<!-- Node23 -->
<g id="Node000023" class="node">
<title>Node23</title>
<g id="a_Node000023"><a xlink:href="classTle92466edHandler.html#a41e1f26179783158819584deb99203f8" target="_top" xlink:title="Enable all channels.">
<polygon fill="white" stroke="#666666" points="158,-673.5 40,-673.5 40,-643.5 158,-643.5 158,-673.5"/>
<text text-anchor="start" x="48" y="-661.5" font-family="Helvetica,sans-Serif" font-size="10.00">Tle92466edHandler::</text>
<text text-anchor="middle" x="99" y="-650.5" font-family="Helvetica,sans-Serif" font-size="10.00">EnableAllChannels</text>
</a>
</g>
</g>
<!-- Node19&#45;&gt;Node23 -->
<g id="edge21_Node000019_Node000023" class="edge">
<title>Node19&#45;&gt;Node23</title>
<g id="a_edge21_Node000019_Node000023"><a xlink:title=" ">
<path fill="none" stroke="#63b8ff" d="M297.52,-583.1C271.58,-599.05 233.59,-620.67 198,-634.5 185.35,-639.42 171.37,-643.56 158.04,-646.94"/>
<polygon fill="#63b8ff" stroke="#63b8ff" points="299.53,-585.98 306.17,-577.72 295.83,-580.03 299.53,-585.98"/>
</a>
</g>
</g>
<!-- Node24 -->
<g id="Node000024" class="node">
<title>Node24</title>
<g id="a_Node000024"><a xlink:href="classTle92466edHandler.html#a1a976346516812f7125cdeb2f3aeb327" target="_top" xlink:title="Ensure driver is initialized (lazy init entrypoint).">
<polygon fill="white" stroke="#666666" points="158,-625.5 40,-625.5 40,-595.5 158,-595.5 158,-625.5"/>
<text text-anchor="start" x="48" y="-613.5" font-family="Helvetica,sans-Serif" font-size="10.00">Tle92466edHandler::</text>
<text text-anchor="middle" x="99" y="-602.5" font-family="Helvetica,sans-Serif" font-size="10.00">EnsureInitialized</text>
</a>
</g>
</g>
<!-- Node19&#45;&gt;Node24 -->
<g id="edge22_Node000019_Node000024" class="edge">
<title>Node19&#45;&gt;Node24</title>
<g id="a_edge22_Node000019_Node000024"><a xlink:title=" ">
<path fill="none" stroke="#63b8ff" d="M254.94,-578.09C223.55,-584.66 187.57,-592.19 158.18,-598.33"/>
<polygon fill="#63b8ff" stroke="#63b8ff" points="255.89,-581.47 264.96,-576 254.46,-574.62 255.89,-581.47"/>
</a>
</g>
</g>
<!-- Node25 -->
<g id="Node000025" class="node">
<title>Node25</title>
<g id="a_Node000025"><a xlink:href="classTle92466edHandler.html#a0fa95ebc85ab477497525eea4ab59d94" target="_top" xlink:title="Enter config mode (for register writes).">
<polygon fill="white" stroke="#666666" points="158,-577.5 40,-577.5 40,-547.5 158,-547.5 158,-577.5"/>
<text text-anchor="start" x="48" y="-565.5" font-family="Helvetica,sans-Serif" font-size="10.00">Tle92466edHandler::</text>
<text text-anchor="middle" x="99" y="-554.5" font-family="Helvetica,sans-Serif" font-size="10.00">EnterConfigMode</text>
</a>
</g>
</g>
<!-- Node19&#45;&gt;Node25 -->
<g id="edge23_Node000019_Node000025" class="edge">
<title>Node19&#45;&gt;Node25</title>
<g id="a_edge23_Node000019_Node000025"><a xlink:title=" ">
<path fill="none" stroke="#63b8ff" d="M254.94,-562.5C223.55,-562.5 187.57,-562.5 158.18,-562.5"/>
<polygon fill="#63b8ff" stroke="#63b8ff" points="254.96,-566 264.96,-562.5 254.96,-559 254.96,-566"/>
</a>
</g>
</g>
<!-- Node26 -->
<g id="Node000026" class="node">
<title>Node26</title>
<g id="a_Node000026"><a xlink:href="classTle92466edHandler.html#a8e8602032981d1c684a3d9e5051c043a" target="_top" xlink:title="Enter mission mode (enable outputs after configuration).">
<polygon fill="white" stroke="#666666" points="158,-529.5 40,-529.5 40,-499.5 158,-499.5 158,-529.5"/>
<text text-anchor="start" x="48" y="-517.5" font-family="Helvetica,sans-Serif" font-size="10.00">Tle92466edHandler::</text>
<text text-anchor="middle" x="99" y="-506.5" font-family="Helvetica,sans-Serif" font-size="10.00">EnterMissionMode</text>
</a>
</g>
</g>
<!-- Node19&#45;&gt;Node26 -->
<g id="edge24_Node000019_Node000026" class="edge">
<title>Node19&#45;&gt;Node26</title>
<g id="a_edge24_Node000019_Node000026"><a xlink:title=" ">
<path fill="none" stroke="#63b8ff" d="M254.94,-546.91C223.55,-540.34 187.57,-532.81 158.18,-526.67"/>
<polygon fill="#63b8ff" stroke="#63b8ff" points="254.46,-550.38 264.96,-549 255.89,-543.53 254.46,-550.38"/>
</a>
</g>
</g>
<!-- Node27 -->
<g id="Node000027" class="node">
<title>Node27</title>
<g id="a_Node000027"><a xlink:href="classTle92466edHandler.html#a4c646ee5db271f07517cc15e8a623f0e" target="_top" xlink:title="Get chip ID (returns 0 on error).">
<polygon fill="white" stroke="#666666" points="158,-481.5 40,-481.5 40,-451.5 158,-451.5 158,-481.5"/>
<text text-anchor="start" x="48" y="-469.5" font-family="Helvetica,sans-Serif" font-size="10.00">Tle92466edHandler::</text>
<text text-anchor="middle" x="99" y="-458.5" font-family="Helvetica,sans-Serif" font-size="10.00">GetChipId</text>
</a>
</g>
</g>
<!-- Node19&#45;&gt;Node27 -->
<g id="edge25_Node000019_Node000027" class="edge">
<title>Node19&#45;&gt;Node27</title>
<g id="a_edge25_Node000019_Node000027"><a xlink:title=" ">
<path fill="none" stroke="#63b8ff" d="M297.52,-541.9C271.58,-525.95 233.59,-504.33 198,-490.5 185.35,-485.58 171.37,-481.44 158.04,-478.06"/>
<polygon fill="#63b8ff" stroke="#63b8ff" points="295.83,-544.97 306.17,-547.28 299.53,-539.02 295.83,-544.97"/>
</a>
</g>
</g>
<!-- Node28 -->
<g id="Node000028" class="node">
<title>Node28</title>
<g id="a_Node000028"><a xlink:href="classTle92466edHandler.html#ae83bbf85e50d68c8adcc2160bdaed271" target="_top" xlink:title="Get the underlying driver for advanced operations.">
<polygon fill="#fff0f0" stroke="red" points="158,-433.5 40,-433.5 40,-403.5 158,-403.5 158,-433.5"/>
<text text-anchor="start" x="48" y="-421.5" font-family="Helvetica,sans-Serif" font-size="10.00">Tle92466edHandler::</text>
<text text-anchor="middle" x="99" y="-410.5" font-family="Helvetica,sans-Serif" font-size="10.00">GetDriver</text>
</a>
</g>
</g>
<!-- Node19&#45;&gt;Node28 -->
<g id="edge26_Node000019_Node000028" class="edge">
<title>Node19&#45;&gt;Node28</title>
<g id="a_edge26_Node000019_Node000028"><a xlink:title=" ">
<path fill="none" stroke="#63b8ff" d="M310.8,-539.52C287.33,-512.23 244.46,-467.28 198,-442.5 185.79,-435.99 171.78,-431.21 158.25,-427.72"/>
<polygon fill="#63b8ff" stroke="#63b8ff" points="308.32,-542.01 317.45,-547.39 313.66,-537.49 308.32,-542.01"/>
</a>
</g>
</g>
<!-- Node30 -->
<g id="Node000030" class="node">
<title>Node30</title>
<g id="a_Node000030"><a xlink:href="classTle92466edHandler.html#a0c29d4ada1c9247dc90fb64d914dec1f" target="_top" xlink:title="Get IC version (returns 0 on error).">
<polygon fill="white" stroke="#666666" points="158,-385.5 40,-385.5 40,-355.5 158,-355.5 158,-385.5"/>
<text text-anchor="start" x="48" y="-373.5" font-family="Helvetica,sans-Serif" font-size="10.00">Tle92466edHandler::</text>
<text text-anchor="middle" x="99" y="-362.5" font-family="Helvetica,sans-Serif" font-size="10.00">GetIcVersion</text>
</a>
</g>
</g>
<!-- Node19&#45;&gt;Node30 -->
<g id="edge27_Node000019_Node000030" class="edge">
<title>Node19&#45;&gt;Node30</title>
<g id="a_edge27_Node000019_Node000030"><a xlink:title=" ">
<path fill="none" stroke="#63b8ff" d="M317.45,-538.36C297.73,-501.42 254.98,-431.3 198,-394.5 186.08,-386.8 171.89,-381.57 158.07,-378.02"/>
<polygon fill="#63b8ff" stroke="#63b8ff" points="314.45,-540.17 322.18,-547.42 320.66,-536.94 314.45,-540.17"/>
</a>
</g>
</g>
<!-- Node31 -->
<g id="Node000031" class="node">
<title>Node31</title>
<g id="a_Node000031"><a xlink:href="classTle92466edHandler.html#ab86e6d3eb2dca25154a8fa7c42ddb945" target="_top" xlink:title="Check if any fault is present.">
<polygon fill="white" stroke="#666666" points="158,-337.5 40,-337.5 40,-307.5 158,-307.5 158,-337.5"/>
<text text-anchor="start" x="48" y="-325.5" font-family="Helvetica,sans-Serif" font-size="10.00">Tle92466edHandler::</text>
<text text-anchor="middle" x="99" y="-314.5" font-family="Helvetica,sans-Serif" font-size="10.00">HasFault</text>
</a>
</g>
</g>
<!-- Node19&#45;&gt;Node31 -->
<g id="edge28_Node000019_Node000031" class="edge">
<title>Node19&#45;&gt;Node31</title>
<g id="a_edge28_Node000019_Node000031"><a xlink:title=" ">
<path fill="none" stroke="#63b8ff" d="M321.6,-537.79C305.8,-492.48 265.86,-396.19 198,-346.5 186.41,-338.01 172.19,-332.5 158.22,-328.93"/>
<polygon fill="#63b8ff" stroke="#63b8ff" points="318.33,-539.05 324.86,-547.4 324.96,-536.81 318.33,-539.05"/>
</a>
</g>
</g>
<!-- Node32 -->
<g id="Node000032" class="node">
<title>Node32</title>
<g id="a_Node000032"><a xlink:href="classTle92466edHandler.html#a6bcbd117208f3e44f2216d45541eb4fa" target="_top" xlink:title="Check if in mission mode.">
<polygon fill="white" stroke="#666666" points="158,-289.5 40,-289.5 40,-259.5 158,-259.5 158,-289.5"/>
<text text-anchor="start" x="48" y="-277.5" font-family="Helvetica,sans-Serif" font-size="10.00">Tle92466edHandler::</text>
<text text-anchor="middle" x="99" y="-266.5" font-family="Helvetica,sans-Serif" font-size="10.00">IsMissionMode</text>
</a>
</g>
</g>
<!-- Node19&#45;&gt;Node32 -->
<g id="edge29_Node000019_Node000032" class="edge">
<title>Node19&#45;&gt;Node32</title>
<g id="a_edge29_Node000019_Node000032"><a xlink:title=" ">
<path fill="none" stroke="#63b8ff" d="M324.48,-537.63C312.5,-484.95 277.14,-361.77 198,-298.5 186.64,-289.42 172.35,-283.71 158.22,-280.13"/>
<polygon fill="#63b8ff" stroke="#63b8ff" points="321.08,-538.45 326.63,-547.47 327.91,-536.96 321.08,-538.45"/>
</a>
</g>
</g>
<!-- Node34 -->
<g id="Node000034" class="node">
<title>Node34</title>
<g id="a_Node000034"><a xlink:href="classWs2812Handler.html#afe5f397b22e9b92cf2fb2cebae6e123d" target="_top" xlink:title=" ">
<polygon fill="white" stroke="#666666" points="421,-154.5 240,-154.5 240,-124.5 421,-124.5 421,-154.5"/>
<text text-anchor="start" x="248" y="-142.5" font-family="Helvetica,sans-Serif" font-size="10.00">Ws2812Handler::EnsureInitialized</text>
<text text-anchor="middle" x="330.5" y="-131.5" font-family="Helvetica,sans-Serif" font-size="10.00">Locked</text>
</a>
</g>
</g>
<!-- Node33&#45;&gt;Node34 -->
<g id="edge31_Node000033_Node000034" class="edge">
<title>Node33&#45;&gt;Node34</title>
<g id="a_edge31_Node000033_Node000034"><a xlink:title=" ">
<path fill="none" stroke="#63b8ff" d="M468.81,-928.02C466.73,-926.36 464.78,-924.52 463,-922.5 406.39,-858.15 441.01,-623.05 427,-538.5 401.85,-386.72 351.15,-207.01 335.92,-154.56"/>
<polygon fill="#63b8ff" stroke="#63b8ff" points="467.13,-931.1 477.42,-933.6 470.93,-925.23 467.13,-931.1"/>
</a>
</g>
</g>
<!-- Node35 -->
<g id="Node000035" class="node">
<title>Node35</title>
<g id="a_Node000035"><a xlink:href="classWs2812Handler.html#a586683dcf63f17194b77c026972c7b2b" target="_top" xlink:title="Dump diagnostics to logger.">
<polygon fill="white" stroke="#666666" points="192,-241 6,-241 6,-222 192,-222 192,-241"/>
<text text-anchor="middle" x="99" y="-229" font-family="Helvetica,sans-Serif" font-size="10.00">Ws2812Handler::DumpDiagnostics</text>
</a>
</g>
</g>
<!-- Node34&#45;&gt;Node35 -->
<g id="edge32_Node000034_Node000035" class="edge">
<title>Node34&#45;&gt;Node35</title>
<g id="a_edge32_Node000034_Node000035"><a xlink:title=" ">
<path fill="none" stroke="#63b8ff" d="M299.22,-160.39C273.43,-177.21 234.8,-200.19 198,-213.5 188.57,-216.91 178.38,-219.7 168.26,-221.98"/>
<polygon fill="#63b8ff" stroke="#63b8ff" points="301.38,-163.16 307.79,-154.72 297.52,-157.32 301.38,-163.16"/>
</a>
</g>
</g>
<!-- Node36 -->
<g id="Node000036" class="node">
<title>Node36</title>
<g id="a_Node000036"><a xlink:href="classWs2812Handler.html#a764cc93c64a81844a284ac7515ea8366" target="_top" xlink:title="Ensure strip resources are initialized (lazy init entrypoint).">
<polygon fill="white" stroke="#666666" points="189.5,-204 8.5,-204 8.5,-185 189.5,-185 189.5,-204"/>
<text text-anchor="middle" x="99" y="-192" font-family="Helvetica,sans-Serif" font-size="10.00">Ws2812Handler::EnsureInitialized</text>
</a>
</g>
</g>
<!-- Node34&#45;&gt;Node36 -->
<g id="edge33_Node000034_Node000036" class="edge">
<title>Node34&#45;&gt;Node36</title>
<g id="a_edge33_Node000034_Node000036"><a xlink:title=" ">
<path fill="none" stroke="#63b8ff" d="M270.38,-157.39C247.84,-163.88 221.85,-170.97 198,-176.5 184.77,-179.57 170.44,-182.45 156.93,-184.97"/>
<polygon fill="#63b8ff" stroke="#63b8ff" points="271.51,-160.71 280.14,-154.56 269.56,-153.99 271.51,-160.71"/>
</a>
</g>
</g>
<!-- Node37 -->
<g id="Node000037" class="node">
<title>Node37</title>
<g id="a_Node000037"><a xlink:href="classWs2812Handler.html#a3e09ba2c15d5b0e7d6d254e22f634ae8" target="_top" xlink:title="Get the animator object.">
<polygon fill="#fff0f0" stroke="red" points="180,-167 18,-167 18,-148 180,-148 180,-167"/>
<text text-anchor="middle" x="99" y="-155" font-family="Helvetica,sans-Serif" font-size="10.00">Ws2812Handler::GetAnimator</text>
</a>
</g>
</g>
<!-- Node34&#45;&gt;Node37 -->
<g id="edge34_Node000034_Node000037" class="edge">
<title>Node34&#45;&gt;Node37</title>
<g id="a_edge34_Node000034_Node000037"><a xlink:title=" ">
<path fill="none" stroke="#63b8ff" d="M229.59,-147.34C213.12,-148.63 196.23,-149.95 180.32,-151.2"/>
<polygon fill="#63b8ff" stroke="#63b8ff" points="230.09,-150.81 239.78,-146.54 229.54,-143.83 230.09,-150.81"/>
</a>
</g>
</g>
<!-- Node39 -->
<g id="Node000039" class="node">
<title>Node39</title>
<g id="a_Node000039"><a xlink:href="classWs2812Handler.html#a7471840392adad3cab496e2dc57dc792" target="_top" xlink:title="Get the underlying LED strip object.">
<polygon fill="#fff0f0" stroke="red" points="169,-130 29,-130 29,-111 169,-111 169,-130"/>
<text text-anchor="middle" x="99" y="-118" font-family="Helvetica,sans-Serif" font-size="10.00">Ws2812Handler::GetStrip</text>
</a>
</g>
</g>
<!-- Node34&#45;&gt;Node39 -->
<g id="edge35_Node000034_Node000039" class="edge">
<title>Node34&#45;&gt;Node39</title>
<g id="a_edge35_Node000034_Node000039"><a xlink:title=" ">
<path fill="none" stroke="#63b8ff" d="M229.79,-131.25C209.3,-129.55 188.16,-127.8 169.05,-126.22"/>
<polygon fill="#63b8ff" stroke="#63b8ff" points="229.53,-134.74 239.78,-132.07 230.11,-127.76 229.53,-134.74"/>
</a>
</g>
</g>
<!-- Node41 -->
<g id="Node000041" class="node">
<title>Node41</title>
<g id="a_Node000041"><a xlink:href="classWs2812Handler.html#ad67002bf517195998950ed6d8385ee89" target="_top" xlink:title="Transmit pixel data to the LED strip.">
<polygon fill="white" stroke="#666666" points="162,-93 36,-93 36,-74 162,-74 162,-93"/>
<text text-anchor="middle" x="99" y="-81" font-family="Helvetica,sans-Serif" font-size="10.00">Ws2812Handler::Show</text>
</a>
</g>
</g>
<!-- Node34&#45;&gt;Node41 -->
<g id="edge36_Node000034_Node000041" class="edge">
<title>Node34&#45;&gt;Node41</title>
<g id="a_edge36_Node000034_Node000041"><a xlink:title=" ">
<path fill="none" stroke="#63b8ff" d="M270.06,-121.65C247.59,-115.2 221.72,-108.13 198,-102.5 183.58,-99.08 167.86,-95.83 153.32,-93.01"/>
<polygon fill="#63b8ff" stroke="#63b8ff" points="269.22,-125.05 279.8,-124.47 271.17,-118.33 269.22,-125.05"/>
</a>
</g>
</g>
<!-- Node42 -->
<g id="Node000042" class="node">
<title>Node42</title>
<g id="a_Node000042"><a xlink:href="classWs2812Handler.html#a60ee1479e87c2ddb672a03a053be0c59" target="_top" xlink:title="Advance animation by one step.">
<polygon fill="white" stroke="#666666" points="160,-56 38,-56 38,-37 160,-37 160,-56"/>
<text text-anchor="middle" x="99" y="-44" font-family="Helvetica,sans-Serif" font-size="10.00">Ws2812Handler::Step</text>
</a>
</g>
</g>
<!-- Node34&#45;&gt;Node42 -->
<g id="edge37_Node000034_Node000042" class="edge">
<title>Node34&#45;&gt;Node42</title>
<g id="a_edge37_Node000034_Node000042"><a xlink:title=" ">
<path fill="none" stroke="#63b8ff" d="M299.19,-118.71C273.37,-101.94 234.73,-78.99 198,-65.5 186.04,-61.11 172.87,-57.67 160.17,-55"/>
<polygon fill="#63b8ff" stroke="#63b8ff" points="297.48,-121.78 307.76,-124.36 301.34,-115.93 297.48,-121.78"/>
</a>
</g>
</g>
<!-- Node43 -->
<g id="Node000043" class="node">
<title>Node43</title>
<g id="a_Node000043"><a xlink:href="classWs2812Handler.html#af74a184df9277227e6d2b593d13c4501" target="_top" xlink:title="Advance animation by time delta (call periodically).">
<polygon fill="white" stroke="#666666" points="159,-19 39,-19 39,0 159,0 159,-19"/>
<text text-anchor="middle" x="99" y="-7" font-family="Helvetica,sans-Serif" font-size="10.00">Ws2812Handler::Tick</text>
</a>
</g>
</g>
<!-- Node34&#45;&gt;Node43 -->
<g id="edge38_Node000034_Node000043" class="edge">
<title>Node34&#45;&gt;Node43</title>
<g id="a_edge38_Node000034_Node000043"><a xlink:title=" ">
<path fill="none" stroke="#63b8ff" d="M309.94,-116.82C286.2,-90.88 243.66,-49.19 198,-27.5 185.97,-21.78 172.31,-17.88 159.09,-15.21"/>
<polygon fill="#63b8ff" stroke="#63b8ff" points="307.39,-119.23 316.68,-124.33 312.6,-114.55 307.39,-119.23"/>
</a>
</g>
</g>
<!-- Node48 -->
<g id="Node000048" class="node">
<title>Node48</title>
<g id="a_Node000048"><a xlink:href="classTmc5160Handler.html#a6d4fce2433e03bb11b05a4278ef66fd0" target="_top" xlink:title=" ">
<polygon fill="#fff0f0" stroke="red" points="424,-1210.5 237,-1210.5 237,-1180.5 424,-1180.5 424,-1210.5"/>
<text text-anchor="start" x="245" y="-1198.5" font-family="Helvetica,sans-Serif" font-size="10.00">Tmc5160Handler::EnsureInitialized</text>
<text text-anchor="middle" x="330.5" y="-1187.5" font-family="Helvetica,sans-Serif" font-size="10.00">Locked</text>
</a>
</g>
</g>
<!-- Node47&#45;&gt;Node48 -->
<g id="edge43_Node000047_Node000048" class="edge">
<title>Node47&#45;&gt;Node48</title>
<g id="a_edge43_Node000047_Node000048"><a xlink:title=" ">
<path fill="none" stroke="#63b8ff" d="M464.4,-1181.35C451.2,-1182.75 437.48,-1184.22 424.08,-1185.64"/>
<polygon fill="#63b8ff" stroke="#63b8ff" points="464.8,-1184.83 474.37,-1180.29 464.06,-1177.87 464.8,-1184.83"/>
</a>
</g>
</g>
<!-- Node48&#45;&gt;Node3 -->
<g id="edge45_Node000048_Node000003" class="edge">
<title>Node48&#45;&gt;Node3</title>
<g id="a_edge45_Node000048_Node000003"><a xlink:title=" ">
<path fill="none" stroke="#63b8ff" d="M246.63,-1215.35C242.12,-1218.02 237.86,-1221.06 234,-1224.5 203.99,-1251.26 229.48,-1282.48 198,-1307.5 193.8,-1310.84 189.18,-1313.63 184.31,-1315.96"/>
<polygon fill="#63b8ff" stroke="#63b8ff" points="248.37,-1218.39 255.59,-1210.64 245.11,-1212.2 248.37,-1218.39"/>
</a>
</g>
</g>
<!-- Node49 -->
<g id="Node000049" class="node">
<title>Node49</title>
<g id="a_Node000049"><a xlink:href="classTmc5160Handler.html#a30cf2ab584290fadfcb7d7cc6603444b" target="_top" xlink:title="Disable the motor driver power stage.">
<polygon fill="white" stroke="#666666" points="184.5,-1298 13.5,-1298 13.5,-1279 184.5,-1279 184.5,-1298"/>
<text text-anchor="middle" x="99" y="-1286" font-family="Helvetica,sans-Serif" font-size="10.00">Tmc5160Handler::DisableMotor</text>
</a>
</g>
</g>
<!-- Node48&#45;&gt;Node49 -->
<g id="edge44_Node000048_Node000049" class="edge">
<title>Node48&#45;&gt;Node49</title>
<g id="a_edge44_Node000048_Node000049"><a xlink:title=" ">
<path fill="none" stroke="#63b8ff" d="M251.97,-1214.46C245.66,-1217.36 239.57,-1220.68 234,-1224.5 212.58,-1239.18 220.21,-1257.06 198,-1270.5 192.38,-1273.9 186.26,-1276.69 179.93,-1278.98"/>
<polygon fill="#63b8ff" stroke="#63b8ff" points="253.5,-1217.61 261.36,-1210.51 250.79,-1211.16 253.5,-1217.61"/>
</a>
</g>
</g>
<!-- Node50 -->
<g id="Node000050" class="node">
<title>Node50</title>
<g id="a_Node000050"><a xlink:href="classTmc5160Handler.html#af04426991f32e1a5022df0ec7e9d821d" target="_top" xlink:title="Enable the motor driver power stage.">
<polygon fill="white" stroke="#666666" points="182.5,-1261 15.5,-1261 15.5,-1242 182.5,-1242 182.5,-1261"/>
<text text-anchor="middle" x="99" y="-1249" font-family="Helvetica,sans-Serif" font-size="10.00">Tmc5160Handler::EnableMotor</text>
</a>
</g>
</g>
<!-- Node48&#45;&gt;Node50 -->
<g id="edge46_Node000048_Node000050" class="edge">
<title>Node48&#45;&gt;Node50</title>
<g id="a_edge46_Node000048_Node000050"><a xlink:title=" ">
<path fill="none" stroke="#63b8ff" d="M271.83,-1213.51C248.98,-1220.3 222.38,-1227.75 198,-1233.5 184.87,-1236.6 170.64,-1239.48 157.2,-1241.98"/>
<polygon fill="#63b8ff" stroke="#63b8ff" points="273.14,-1216.78 281.71,-1210.55 271.13,-1210.07 273.14,-1216.78"/>
</a>
</g>
</g>
<!-- Node51 -->
<g id="Node000051" class="node">
<title>Node51</title>
<g id="a_Node000051"><a xlink:href="classTmc5160Handler.html#a5ad276d4fcd81765d0a5af064fdbf7b5" target="_top" xlink:title="Ensure driver is initialized (lazy init entrypoint).">
<polygon fill="#fff0f0" stroke="red" points="192.5,-1224 5.5,-1224 5.5,-1205 192.5,-1205 192.5,-1224"/>
<text text-anchor="middle" x="99" y="-1212" font-family="Helvetica,sans-Serif" font-size="10.00">Tmc5160Handler::EnsureInitialized</text>
</a>
</g>
</g>
<!-- Node48&#45;&gt;Node51 -->
<g id="edge47_Node000048_Node000051" class="edge">
<title>Node48&#45;&gt;Node51</title>
<g id="a_edge47_Node000048_Node000051"><a xlink:title=" ">
<path fill="none" stroke="#63b8ff" d="M226.51,-1204.03C215.23,-1204.96 203.8,-1205.91 192.66,-1206.83"/>
<polygon fill="#63b8ff" stroke="#63b8ff" points="227.14,-1207.49 236.82,-1203.17 226.56,-1200.51 227.14,-1207.49"/>
</a>
</g>
</g>
<!-- Node53 -->
<g id="Node000053" class="node">
<title>Node53</title>
<g id="a_Node000053"><a xlink:href="classTmc5160Handler.html#a0a90626550f36ea01dcd16a20877ca9e" target="_top" xlink:title="Get the chip version info.">
<polygon fill="white" stroke="#666666" points="189.5,-1187 8.5,-1187 8.5,-1168 189.5,-1168 189.5,-1187"/>
<text text-anchor="middle" x="99" y="-1175" font-family="Helvetica,sans-Serif" font-size="10.00">Tmc5160Handler::GetChipVersion</text>
</a>
</g>
</g>
<!-- Node48&#45;&gt;Node53 -->
<g id="edge48_Node000048_Node000053" class="edge">
<title>Node48&#45;&gt;Node53</title>
<g id="a_edge48_Node000048_Node000053"><a xlink:title=" ">
<path fill="none" stroke="#63b8ff" d="M226.54,-1187.42C214.25,-1186.46 201.77,-1185.48 189.68,-1184.53"/>
<polygon fill="#63b8ff" stroke="#63b8ff" points="226.57,-1190.94 236.82,-1188.23 227.12,-1183.96 226.57,-1190.94"/>
</a>
</g>
</g>
<!-- Node54 -->
<g id="Node000054" class="node">
<title>Node54</title>
<g id="a_Node000054"><a xlink:href="classTmc5160Handler.html#acdb558e7d2b6c2548aca4fab849d5362" target="_top" xlink:title="Get current position in microsteps.">
<polygon fill="white" stroke="#666666" points="178.5,-1149.5 19.5,-1149.5 19.5,-1119.5 178.5,-1119.5 178.5,-1149.5"/>
<text text-anchor="start" x="27.5" y="-1137.5" font-family="Helvetica,sans-Serif" font-size="10.00">Tmc5160Handler::GetCurrent</text>
<text text-anchor="middle" x="99" y="-1126.5" font-family="Helvetica,sans-Serif" font-size="10.00">Position</text>
</a>
</g>
</g>
<!-- Node48&#45;&gt;Node54 -->
<g id="edge49_Node000048_Node000054" class="edge">
<title>Node48&#45;&gt;Node54</title>
<g id="a_edge49_Node000048_Node000054"><a xlink:title=" ">
<path fill="none" stroke="#63b8ff" d="M265.81,-1177.82C244.3,-1171.92 220.13,-1165.35 198,-1159.5 185.61,-1156.22 172.31,-1152.78 159.64,-1149.54"/>
<polygon fill="#63b8ff" stroke="#63b8ff" points="264.92,-1181.21 275.49,-1180.49 266.78,-1174.46 264.92,-1181.21"/>
</a>
</g>
</g>
</g>
</svg>
