<?xml version="1.0" encoding="UTF-8" standalone="no"?>
<!DOCTYPE svg PUBLIC "-//W3C//DTD SVG 1.1//EN"
 "http://www.w3.org/Graphics/SVG/1.1/DTD/svg11.dtd">
<!-- Generated by graphviz version 2.43.0 (0)
 -->
<!-- Title: Bno08xHandler::GetSensor Pages: 1 -->
<svg width="1160pt" height="236pt"
 viewBox="0.00 0.00 1160.00 235.50" xmlns="http://www.w3.org/2000/svg" xmlns:xlink="http://www.w3.org/1999/xlink">
<g id="graph0" class="graph" transform="scale(1 1) rotate(0) translate(4 231.5)">
<title>Bno08xHandler::GetSensor</title>
<!-- Node1 -->
<g id="Node000001" class="node">
<title>Node1</title>
<g id="a_Node000001"><a xlink:title="Get direct access to the underlying sensor driver (type&#45;erased).">
<polygon fill="#999999" stroke="#666666" points="148,-114 0,-114 0,-95 148,-95 148,-114"/>
<text text-anchor="middle" x="74" y="-102" font-family="Helvetica,sans-Serif" font-size="10.00">Bno08xHandler::GetSensor</text>
</a>
</g>
</g>
<!-- Node2 -->
<g id="Node000002" class="node">
<title>Node2</title>
<g id="a_Node000002"><a xlink:href="classBno08xHandler.html#afab341345c8ed8fed1a218e0df18c4aa" target="_top" xlink:title="Ensure the BNO08x is initialized (lazy init entrypoint).">
<polygon fill="white" stroke="#666666" points="363,-114 184,-114 184,-95 363,-95 363,-114"/>
<text text-anchor="middle" x="273.5" y="-102" font-family="Helvetica,sans-Serif" font-size="10.00">Bno08xHandler::EnsureInitialized</text>
</a>
</g>
</g>
<!-- Node1&#45;&gt;Node2 -->
<g id="edge1_Node000001_Node000002" class="edge">
<title>Node1&#45;&gt;Node2</title>
<g id="a_edge1_Node000001_Node000002"><a xlink:title=" ">
<path fill="none" stroke="#63b8ff" d="M148.26,-104.5C156.62,-104.5 165.25,-104.5 173.87,-104.5"/>
<polygon fill="#63b8ff" stroke="#63b8ff" points="173.98,-108 183.98,-104.5 173.98,-101 173.98,-108"/>
</a>
</g>
</g>
<!-- Node3 -->
<g id="Node000003" class="node">
<title>Node3</title>
<g id="a_Node000003"><a xlink:href="classBno08xHandler.html#a0479abc034d5417ba7dc524468a5ce82" target="_top" xlink:title="Internal: ensure initialized (assumes mutex is held).">
<polygon fill="white" stroke="#666666" points="578,-119.5 399,-119.5 399,-89.5 578,-89.5 578,-119.5"/>
<text text-anchor="start" x="407" y="-107.5" font-family="Helvetica,sans-Serif" font-size="10.00">Bno08xHandler::ensureInitialized</text>
<text text-anchor="middle" x="488.5" y="-96.5" font-family="Helvetica,sans-Serif" font-size="10.00">Locked</text>
</a>
</g>
</g>
<!-- Node2&#45;&gt;Node3 -->
<g id="edge2_Node000002_Node000003" class="edge">
<title>Node2&#45;&gt;Node3</title>
<g id="a_edge2_Node000002_Node000003"><a xlink:title=" ">
<path fill="none" stroke="#63b8ff" d="M363.29,-104.5C371.65,-104.5 380.16,-104.5 388.6,-104.5"/>
<polygon fill="#63b8ff" stroke="#63b8ff" points="388.86,-108 398.86,-104.5 388.85,-101 388.86,-108"/>
</a>
</g>
</g>
<!-- Node4 -->
<g id="Node000004" class="node">
<title>Node4</title>
<g id="a_Node000004"><a xlink:href="classBno08xHandler.html#ac1a1ff0d56324dcc09d9b48ca2e132e6" target="_top" xlink:title="Initialize the BNO08x sensor.">
<polygon fill="white" stroke="#666666" points="754,-114 614,-114 614,-95 754,-95 754,-114"/>
<text text-anchor="middle" x="684" y="-102" font-family="Helvetica,sans-Serif" font-size="10.00">Bno08xHandler::Initialize</text>
</a>
</g>
</g>
<!-- Node3&#45;&gt;Node4 -->
<g id="edge3_Node000003_Node000004" class="edge">
<title>Node3&#45;&gt;Node4</title>
<g id="a_edge3_Node000003_Node000004"><a xlink:title=" ">
<path fill="none" stroke="#63b8ff" d="M578.04,-104.5C586.6,-104.5 595.25,-104.5 603.71,-104.5"/>
<polygon fill="#63b8ff" stroke="#63b8ff" points="603.92,-108 613.92,-104.5 603.92,-101 603.92,-108"/>
</a>
</g>
</g>
<!-- Node5 -->
<g id="Node000005" class="node">
<title>Node5</title>
<g id="a_Node000005"><a xlink:href="classBno08xHandler.html#a5669d8d3146a450430e5644b8d297de5" target="_top" xlink:title="Internal: apply configured sensor enables (assumes mutex is held).">
<polygon fill="white" stroke="#666666" points="958.5,-227.5 803.5,-227.5 803.5,-197.5 958.5,-197.5 958.5,-227.5"/>
<text text-anchor="start" x="811.5" y="-215.5" font-family="Helvetica,sans-Serif" font-size="10.00">Bno08xHandler::applyConfig</text>
<text text-anchor="middle" x="881" y="-204.5" font-family="Helvetica,sans-Serif" font-size="10.00">Locked</text>
</a>
</g>
</g>
<!-- Node4&#45;&gt;Node5 -->
<g id="edge4_Node000004_Node000005" class="edge">
<title>Node4&#45;&gt;Node5</title>
<g id="a_edge4_Node000004_Node000005"><a xlink:title=" ">
<path fill="none" stroke="#63b8ff" d="M694.17,-114.11C711.34,-131.53 750.2,-168.4 790,-188.5 793.82,-190.43 797.8,-192.21 801.89,-193.86"/>
<polygon fill="#63b8ff" stroke="#63b8ff" points="800.96,-197.25 811.55,-197.48 803.41,-190.7 800.96,-197.25"/>
</a>
</g>
</g>
<!-- Node7 -->
<g id="Node000007" class="node">
<title>Node7</title>
<g id="a_Node000007"><a xlink:href="classIBno08xDriverOps.html#a0ca90c1a5664ab3eb83f691aff34faa0" target="_top" xlink:title=" ">
<polygon fill="white" stroke="#666666" points="950.5,-179 811.5,-179 811.5,-160 950.5,-160 950.5,-179"/>
<text text-anchor="middle" x="881" y="-167" font-family="Helvetica,sans-Serif" font-size="10.00">IBno08xDriverOps::Begin</text>
</a>
</g>
</g>
<!-- Node4&#45;&gt;Node7 -->
<g id="edge6_Node000004_Node000007" class="edge">
<title>Node4&#45;&gt;Node7</title>
<g id="a_edge6_Node000004_Node000007"><a xlink:title=" ">
<path fill="none" stroke="#63b8ff" d="M703.52,-114C724.15,-124.26 758.73,-140.47 790,-150.5 798.29,-153.16 807.12,-155.55 815.9,-157.66"/>
<polygon fill="#63b8ff" stroke="#63b8ff" points="815.22,-161.09 825.75,-159.92 816.79,-154.27 815.22,-161.09"/>
</a>
</g>
</g>
<!-- Node8 -->
<g id="Node000008" class="node">
<title>Node8</title>
<g id="a_Node000008"><a xlink:href="classIBno08xDriverOps.html#a66418ccb85cd8eb8eea327fa979a2b6a" target="_top" xlink:title=" ">
<polygon fill="white" stroke="#666666" points="960,-141.5 802,-141.5 802,-111.5 960,-111.5 960,-141.5"/>
<text text-anchor="start" x="810" y="-129.5" font-family="Helvetica,sans-Serif" font-size="10.00">IBno08xDriverOps::Hardware</text>
<text text-anchor="middle" x="881" y="-118.5" font-family="Helvetica,sans-Serif" font-size="10.00">Reset</text>
</a>
</g>
</g>
<!-- Node4&#45;&gt;Node8 -->
<g id="edge7_Node000004_Node000008" class="edge">
<title>Node4&#45;&gt;Node8</title>
<g id="a_edge7_Node000004_Node000008"><a xlink:title=" ">
<path fill="none" stroke="#63b8ff" d="M754.02,-112.29C766.21,-113.66 779.05,-115.11 791.69,-116.54"/>
<polygon fill="#63b8ff" stroke="#63b8ff" points="791.43,-120.03 801.76,-117.67 792.21,-113.07 791.43,-120.03"/>
</a>
</g>
</g>
<!-- Node9 -->
<g id="Node000009" class="node">
<title>Node9</title>
<g id="a_Node000009"><a xlink:href="classIBno08xDriverOps.html#a1cfdc8fea4d31f36d9d8219b90beeae4" target="_top" xlink:title="Open the transport (bus + control GPIO setup) before reset or SH&#45;2.">
<polygon fill="white" stroke="#666666" points="972,-93 790,-93 790,-74 972,-74 972,-93"/>
<text text-anchor="middle" x="881" y="-81" font-family="Helvetica,sans-Serif" font-size="10.00">IBno08xDriverOps::OpenTransport</text>
</a>
</g>
</g>
<!-- Node4&#45;&gt;Node9 -->
<g id="edge8_Node000004_Node000009" class="edge">
<title>Node4&#45;&gt;Node9</title>
<g id="a_edge8_Node000004_Node000009"><a xlink:title=" ">
<path fill="none" stroke="#63b8ff" d="M754.02,-97.07C762.96,-96.1 772.24,-95.11 781.53,-94.1"/>
<polygon fill="#63b8ff" stroke="#63b8ff" points="782.03,-97.57 791.6,-93.02 781.28,-90.61 782.03,-97.57"/>
</a>
</g>
</g>
<!-- Node10 -->
<g id="Node000010" class="node">
<title>Node10</title>
<g id="a_Node000010"><a xlink:href="classIBno08xDriverOps.html#a35854a70ef94b79c9193d40459341864" target="_top" xlink:title=" ">
<polygon fill="white" stroke="#666666" points="963,-56 799,-56 799,-37 963,-37 963,-56"/>
<text text-anchor="middle" x="881" y="-44" font-family="Helvetica,sans-Serif" font-size="10.00">IBno08xDriverOps::SetBootPin</text>
</a>
</g>
</g>
<!-- Node4&#45;&gt;Node10 -->
<g id="edge9_Node000004_Node000010" class="edge">
<title>Node4&#45;&gt;Node10</title>
<g id="a_edge9_Node000004_Node000010"><a xlink:title=" ">
<path fill="none" stroke="#63b8ff" d="M707.62,-94.99C728.66,-86.41 761.05,-73.88 790,-65.5 799.11,-62.86 808.83,-60.43 818.4,-58.24"/>
<polygon fill="#63b8ff" stroke="#63b8ff" points="819.27,-61.63 828.27,-56.05 817.75,-54.8 819.27,-61.63"/>
</a>
</g>
</g>
<!-- Node11 -->
<g id="Node000011" class="node">
<title>Node11</title>
<g id="a_Node000011"><a xlink:href="classIBno08xDriverOps.html#a04816a487d80027e6d6fe435f651b265" target="_top" xlink:title=" ">
<polygon fill="white" stroke="#666666" points="965.5,-19 796.5,-19 796.5,0 965.5,0 965.5,-19"/>
<text text-anchor="middle" x="881" y="-7" font-family="Helvetica,sans-Serif" font-size="10.00">IBno08xDriverOps::SetCallback</text>
</a>
</g>
</g>
<!-- Node4&#45;&gt;Node11 -->
<g id="edge10_Node000004_Node000011" class="edge">
<title>Node4&#45;&gt;Node11</title>
<g id="a_edge10_Node000004_Node000011"><a xlink:title=" ">
<path fill="none" stroke="#63b8ff" d="M695.1,-94.89C712.83,-78.6 751.32,-45.65 790,-28.5 795.75,-25.95 801.86,-23.74 808.08,-21.82"/>
<polygon fill="#63b8ff" stroke="#63b8ff" points="809.25,-25.12 817.92,-19.03 807.34,-18.39 809.25,-25.12"/>
</a>
</g>
</g>
<!-- Node6 -->
<g id="Node000006" class="node">
<title>Node6</title>
<g id="a_Node000006"><a xlink:href="classIBno08xDriverOps.html#a1da5bdfd4c8d7fbd42475ae7ee37fb98" target="_top" xlink:title=" ">
<polygon fill="white" stroke="#666666" points="1152,-227.5 1008,-227.5 1008,-197.5 1152,-197.5 1152,-227.5"/>
<text text-anchor="start" x="1016" y="-215.5" font-family="Helvetica,sans-Serif" font-size="10.00">IBno08xDriverOps::Enable</text>
<text text-anchor="middle" x="1080" y="-204.5" font-family="Helvetica,sans-Serif" font-size="10.00">Sensor</text>
</a>
</g>
</g>
<!-- Node5&#45;&gt;Node6 -->
<g id="edge5_Node000005_Node000006" class="edge">
<title>Node5&#45;&gt;Node6</title>
<g id="a_edge5_Node000005_Node000006"><a xlink:title=" ">
<path fill="none" stroke="#63b8ff" d="M958.73,-212.5C971.52,-212.5 984.82,-212.5 997.71,-212.5"/>
<polygon fill="#63b8ff" stroke="#63b8ff" points="997.95,-216 1007.95,-212.5 997.95,-209 997.95,-216"/>
</a>
</g>
</g>
</g>
</svg>
