<?xml version="1.0" encoding="UTF-8" standalone="no"?>
<!DOCTYPE svg PUBLIC "-//W3C//DTD SVG 1.1//EN"
 "http://www.w3.org/Graphics/SVG/1.1/DTD/svg11.dtd">
<!-- Generated by graphviz version 2.43.0 (0)
 -->
<!-- Title: Tmc9660Handler::uartDriver Pages: 1 -->
<svg width="938pt" height="205pt"
 viewBox="0.00 0.00 938.00 205.00" xmlns="http://www.w3.org/2000/svg" xmlns:xlink="http://www.w3.org/1999/xlink">
<g id="graph0" class="graph" transform="scale(1 1) rotate(0) translate(4 201)">
<title>Tmc9660Handler::uartDriver</title>
<!-- Node1 -->
<g id="Node000001" class="node">
<title>Node1</title>
<g id="a_Node000001"><a xlink:title="Get the UART&#45;mode driver instance (nullptr if constructed with SPI).">
<polygon fill="#999999" stroke="#666666" points="155,-80 0,-80 0,-61 155,-61 155,-80"/>
<text text-anchor="middle" x="77.5" y="-68" font-family="Helvetica,sans-Serif" font-size="10.00">Tmc9660Handler::uartDriver</text>
</a>
</g>
</g>
<!-- Node2 -->
<g id="Node000002" class="node">
<title>Node2</title>
<g id="a_Node000002"><a xlink:href="classTmc9660Handler.html#a5a279ae9d4b5a8e0d71cb24577ad88ea" target="_top" xlink:title="Ensure driver is initialized (lazy init entrypoint).">
<polygon fill="white" stroke="#666666" points="378,-80 191,-80 191,-61 378,-61 378,-80"/>
<text text-anchor="middle" x="284.5" y="-68" font-family="Helvetica,sans-Serif" font-size="10.00">Tmc9660Handler::EnsureInitialized</text>
</a>
</g>
</g>
<!-- Node1&#45;&gt;Node2 -->
<g id="edge1_Node000001_Node000002" class="edge">
<title>Node1&#45;&gt;Node2</title>
<g id="a_edge1_Node000001_Node000002"><a xlink:title=" ">
<path fill="none" stroke="#63b8ff" d="M155.13,-70.5C163.46,-70.5 172.05,-70.5 180.63,-70.5"/>
<polygon fill="#63b8ff" stroke="#63b8ff" points="180.7,-74 190.7,-70.5 180.7,-67 180.7,-74"/>
</a>
</g>
</g>
<!-- Node3 -->
<g id="Node000003" class="node">
<title>Node3</title>
<g id="a_Node000003"><a xlink:href="classTmc9660Handler.html#adc564847f8ae26c47412aaee0758991c" target="_top" xlink:title="Initialize the TMC9660 device.">
<polygon fill="white" stroke="#666666" points="562,-120 414,-120 414,-101 562,-101 562,-120"/>
<text text-anchor="middle" x="488" y="-108" font-family="Helvetica,sans-Serif" font-size="10.00">Tmc9660Handler::Initialize</text>
</a>
</g>
</g>
<!-- Node2&#45;&gt;Node3 -->
<g id="edge2_Node000002_Node000003" class="edge">
<title>Node2&#45;&gt;Node3</title>
<g id="a_edge2_Node000002_Node000003"><a xlink:title=" ">
<path fill="none" stroke="#63b8ff" d="M333.51,-80.03C362.16,-85.72 398.75,-92.98 429.01,-98.99"/>
<polygon fill="#63b8ff" stroke="#63b8ff" points="428.52,-102.46 439.01,-100.97 429.88,-95.59 428.52,-102.46"/>
</a>
</g>
</g>
<!-- Node9 -->
<g id="Node000009" class="node">
<title>Node9</title>
<g id="a_Node000009"><a xlink:href="classTmc9660Handler.html#a13db97d201a287d8aa60384e04070b9f" target="_top" xlink:title="Check if the TMC9660 driver has been initialized and is ready.">
<polygon fill="white" stroke="#666666" points="753.5,-85.5 609.5,-85.5 609.5,-55.5 753.5,-55.5 753.5,-85.5"/>
<text text-anchor="start" x="617.5" y="-73.5" font-family="Helvetica,sans-Serif" font-size="10.00">Tmc9660Handler::IsDriver</text>
<text text-anchor="middle" x="681.5" y="-62.5" font-family="Helvetica,sans-Serif" font-size="10.00">Ready</text>
</a>
</g>
</g>
<!-- Node2&#45;&gt;Node9 -->
<g id="edge14_Node000002_Node000009" class="edge">
<title>Node2&#45;&gt;Node9</title>
<g id="a_edge14_Node000002_Node000009"><a xlink:title=" ">
<path fill="none" stroke="#63b8ff" d="M378.11,-70.5C445.21,-70.5 535.06,-70.5 599.35,-70.5"/>
<polygon fill="#63b8ff" stroke="#63b8ff" points="599.44,-74 609.44,-70.5 599.44,-67 599.44,-74"/>
</a>
</g>
</g>
<!-- Node4 -->
<g id="Node000004" class="node">
<title>Node4</title>
<g id="a_Node000004"><a xlink:href="classLogger.html#adce17848a5844e053bfd314863dc1404" target="_top" xlink:title="Log error message.">
<polygon fill="white" stroke="#666666" points="721,-160 642,-160 642,-141 721,-141 721,-160"/>
<text text-anchor="middle" x="681.5" y="-148" font-family="Helvetica,sans-Serif" font-size="10.00">Logger::Error</text>
</a>
</g>
</g>
<!-- Node3&#45;&gt;Node4 -->
<g id="edge3_Node000003_Node000004" class="edge">
<title>Node3&#45;&gt;Node4</title>
<g id="a_edge3_Node000003_Node000004"><a xlink:title=" ">
<path fill="none" stroke="#63b8ff" d="M534.87,-120.08C564.07,-126.18 601.85,-134.07 631.62,-140.29"/>
<polygon fill="#63b8ff" stroke="#63b8ff" points="631.28,-143.79 641.79,-142.41 632.71,-136.94 631.28,-143.79"/>
</a>
</g>
</g>
<!-- Node7 -->
<g id="Node000007" class="node">
<title>Node7</title>
<g id="a_Node000007"><a xlink:href="classLogger.html#a5789d11f8f1356e2192c0023a089cbc4" target="_top" xlink:title="Get singleton instance.">
<polygon fill="white" stroke="#666666" points="738.5,-123 624.5,-123 624.5,-104 738.5,-104 738.5,-123"/>
<text text-anchor="middle" x="681.5" y="-111" font-family="Helvetica,sans-Serif" font-size="10.00">Logger::GetInstance</text>
</a>
</g>
</g>
<!-- Node3&#45;&gt;Node7 -->
<g id="edge6_Node000003_Node000007" class="edge">
<title>Node3&#45;&gt;Node7</title>
<g id="a_edge6_Node000003_Node000007"><a xlink:title=" ">
<path fill="none" stroke="#63b8ff" d="M562.22,-111.65C579.27,-111.91 597.33,-112.2 614.07,-112.46"/>
<polygon fill="#63b8ff" stroke="#63b8ff" points="614.25,-115.96 624.3,-112.62 614.35,-108.96 614.25,-115.96"/>
</a>
</g>
</g>
<!-- Node8 -->
<g id="Node000008" class="node">
<title>Node8</title>
<g id="a_Node000008"><a xlink:href="classLogger.html#a4681229c521795685fc14f6b55c82300" target="_top" xlink:title="Log info message.">
<polygon fill="white" stroke="#666666" points="718.5,-197 644.5,-197 644.5,-178 718.5,-178 718.5,-197"/>
<text text-anchor="middle" x="681.5" y="-185" font-family="Helvetica,sans-Serif" font-size="10.00">Logger::Info</text>
</a>
</g>
</g>
<!-- Node3&#45;&gt;Node8 -->
<g id="edge7_Node000003_Node000008" class="edge">
<title>Node3&#45;&gt;Node8</title>
<g id="a_edge7_Node000003_Node000008"><a xlink:title=" ">
<path fill="none" stroke="#63b8ff" d="M503.53,-120.1C523.86,-133.11 562.29,-156.24 598,-169.5 609.49,-173.77 622.27,-177.16 634.28,-179.81"/>
<polygon fill="#63b8ff" stroke="#63b8ff" points="633.63,-183.25 644.13,-181.85 635.05,-176.39 633.63,-183.25"/>
</a>
</g>
</g>
<!-- Node3&#45;&gt;Node9 -->
<g id="edge10_Node000003_Node000009" class="edge">
<title>Node3&#45;&gt;Node9</title>
<g id="a_edge10_Node000003_Node000009"><a xlink:title=" ">
<path fill="none" stroke="#63b8ff" d="M534.87,-100.92C554.16,-96.89 577.19,-92.08 599.18,-87.49"/>
<polygon fill="#63b8ff" stroke="#63b8ff" points="600.12,-90.86 609.2,-85.39 598.69,-84.01 600.12,-90.86"/>
</a>
</g>
</g>
<!-- Node10 -->
<g id="Node000010" class="node">
<title>Node10</title>
<g id="a_Node000010"><a xlink:href="classTmc9660Handler.html#a393382194d0602e7aa02da6a8fd7a20a" target="_top" xlink:title="Get a reference to the Temperature wrapper.">
<polygon fill="white" stroke="#666666" points="765,-19 598,-19 598,0 765,0 765,-19"/>
<text text-anchor="middle" x="681.5" y="-7" font-family="Helvetica,sans-Serif" font-size="10.00">Tmc9660Handler::temperature</text>
</a>
</g>
</g>
<!-- Node3&#45;&gt;Node10 -->
<g id="edge11_Node000003_Node000010" class="edge">
<title>Node3&#45;&gt;Node10</title>
<g id="a_edge11_Node000003_Node000010"><a xlink:title=" ">
<path fill="none" stroke="#63b8ff" d="M504.22,-100.84C525.03,-87.82 563.68,-64.21 598,-46.5 614.14,-38.18 632.53,-29.82 647.85,-23.16"/>
<polygon fill="#63b8ff" stroke="#63b8ff" points="649.62,-26.21 657.42,-19.05 646.85,-19.78 649.62,-26.21"/>
</a>
</g>
</g>
<!-- Node5 -->
<g id="Node000005" class="node">
<title>Node5</title>
<g id="a_Node000005"><a xlink:href="classLogger.html#af9e84e0ff6bd538e4f9ed8dcebc3e2f0" target="_top" xlink:title="Check if log level is enabled for tag.">
<polygon fill="white" stroke="#666666" points="930,-197 801,-197 801,-178 930,-178 930,-197"/>
<text text-anchor="middle" x="865.5" y="-185" font-family="Helvetica,sans-Serif" font-size="10.00">Logger::IsLevelEnabled</text>
</a>
</g>
</g>
<!-- Node4&#45;&gt;Node5 -->
<g id="edge4_Node000004_Node000005" class="edge">
<title>Node4&#45;&gt;Node5</title>
<g id="a_edge4_Node000004_Node000005"><a xlink:title=" ">
<path fill="none" stroke="#63b8ff" d="M721.1,-158.35C746.19,-163.45 779.34,-170.19 807.45,-175.9"/>
<polygon fill="#63b8ff" stroke="#63b8ff" points="807.06,-179.39 817.56,-177.96 808.45,-172.53 807.06,-179.39"/>
</a>
</g>
</g>
<!-- Node6 -->
<g id="Node000006" class="node">
<title>Node6</title>
<g id="a_Node000006"><a xlink:href="classLogger.html#a6adb205db597526fb91ad20067400394" target="_top" xlink:title="Internal logging method.">
<polygon fill="white" stroke="#666666" points="920.5,-160 810.5,-160 810.5,-141 920.5,-141 920.5,-160"/>
<text text-anchor="middle" x="865.5" y="-148" font-family="Helvetica,sans-Serif" font-size="10.00">Logger::LogInternal</text>
</a>
</g>
</g>
<!-- Node4&#45;&gt;Node6 -->
<g id="edge5_Node000004_Node000006" class="edge">
<title>Node4&#45;&gt;Node6</title>
<g id="a_edge5_Node000004_Node000006"><a xlink:title=" ">
<path fill="none" stroke="#63b8ff" d="M721.1,-150.5C744.03,-150.5 773.71,-150.5 800.11,-150.5"/>
<polygon fill="#63b8ff" stroke="#63b8ff" points="800.43,-154 810.43,-150.5 800.43,-147 800.43,-154"/>
</a>
</g>
</g>
<!-- Node8&#45;&gt;Node5 -->
<g id="edge8_Node000008_Node000005" class="edge">
<title>Node8&#45;&gt;Node5</title>
<g id="a_edge8_Node000008_Node000005"><a xlink:title=" ">
<path fill="none" stroke="#63b8ff" d="M718.89,-187.5C739.5,-187.5 766.03,-187.5 790.79,-187.5"/>
<polygon fill="#63b8ff" stroke="#63b8ff" points="790.9,-191 800.9,-187.5 790.9,-184 790.9,-191"/>
</a>
</g>
</g>
<!-- Node8&#45;&gt;Node6 -->
<g id="edge9_Node000008_Node000006" class="edge">
<title>Node8&#45;&gt;Node6</title>
<g id="a_edge9_Node000008_Node000006"><a xlink:title=" ">
<path fill="none" stroke="#63b8ff" d="M718.89,-180.1C744.23,-174.95 778.52,-167.98 807.46,-162.1"/>
<polygon fill="#63b8ff" stroke="#63b8ff" points="808.35,-165.49 817.45,-160.07 806.95,-158.63 808.35,-165.49"/>
</a>
</g>
</g>
<!-- Node10&#45;&gt;Node2 -->
<g id="edge12_Node000010_Node000002" class="edge">
<title>Node10&#45;&gt;Node2</title>
<g id="a_edge12_Node000010_Node000002"><a xlink:title=" ">
<path fill="none" stroke="#63b8ff" d="M618.89,-19.01C548.17,-29.94 432.32,-47.83 357.49,-59.38"/>
<polygon fill="#63b8ff" stroke="#63b8ff" points="356.57,-55.98 347.22,-60.97 357.64,-62.9 356.57,-55.98"/>
</a>
</g>
</g>
<!-- Node10&#45;&gt;Node10 -->
<g id="edge13_Node000010_Node000010" class="edge">
<title>Node10&#45;&gt;Node10</title>
<g id="a_edge13_Node000010_Node000010"><a xlink:title=" ">
<path fill="none" stroke="#63b8ff" d="M653.14,-19.08C639.34,-27.73 648.8,-37 681.5,-37 703.98,-37 715.48,-32.62 715.98,-27.07"/>
<polygon fill="#63b8ff" stroke="#63b8ff" points="718.72,-24.89 709.86,-19.08 713.16,-29.15 718.72,-24.89"/>
</a>
</g>
</g>
</g>
</svg>
