<?xml version="1.0" encoding="UTF-8" standalone="no"?>
<!DOCTYPE svg PUBLIC "-//W3C//DTD SVG 1.1//EN"
 "http://www.w3.org/Graphics/SVG/1.1/DTD/svg11.dtd">
<!-- Generated by graphviz version 2.43.0 (0)
 -->
<!-- Title: Tmc9660Handler::EnsureInitialized Pages: 1 -->
<svg width="694pt" height="113pt"
 viewBox="0.00 0.00 694.00 112.50" xmlns="http://www.w3.org/2000/svg" xmlns:xlink="http://www.w3.org/1999/xlink">
<g id="graph0" class="graph" transform="scale(1 1) rotate(0) translate(4 108.5)">
<title>Tmc9660Handler::EnsureInitialized</title>
<!-- Node1 -->
<g id="Node000001" class="node">
<title>Node1</title>
<g id="a_Node000001"><a xlink:title="Ensure driver is initialized (lazy init entrypoint).">
<polygon fill="#999999" stroke="#666666" points="187,-45.5 0,-45.5 0,-26.5 187,-26.5 187,-45.5"/>
<text text-anchor="middle" x="93.5" y="-33.5" font-family="Helvetica,sans-Serif" font-size="10.00">Tmc9660Handler::EnsureInitialized</text>
</a>
</g>
</g>
<!-- Node2 -->
<g id="Node000002" class="node">
<title>Node2</title>
<g id="a_Node000002"><a xlink:href="classTmc9660Handler.html#adc564847f8ae26c47412aaee0758991c" target="_top" xlink:title="Initialize the TMC9660 device.">
<polygon fill="white" stroke="#666666" points="371,-67.5 223,-67.5 223,-48.5 371,-48.5 371,-67.5"/>
<text text-anchor="middle" x="297" y="-55.5" font-family="Helvetica,sans-Serif" font-size="10.00">Tmc9660Handler::Initialize</text>
</a>
</g>
</g>
<!-- Node1&#45;&gt;Node2 -->
<g id="edge1_Node000001_Node000002" class="edge">
<title>Node1&#45;&gt;Node2</title>
<g id="a_edge1_Node000001_Node000002"><a xlink:title=" ">
<path fill="none" stroke="#63b8ff" d="M181.71,-45.52C192,-46.65 202.48,-47.79 212.72,-48.91"/>
<polygon fill="#63b8ff" stroke="#63b8ff" points="212.53,-52.41 222.85,-50.01 213.29,-45.45 212.53,-52.41"/>
</a>
</g>
</g>
<!-- Node8 -->
<g id="Node000008" class="node">
<title>Node8</title>
<g id="a_Node000008"><a xlink:href="classTmc9660Handler.html#a13db97d201a287d8aa60384e04070b9f" target="_top" xlink:title="Check if the TMC9660 driver has been initialized and is ready.">
<polygon fill="white" stroke="#666666" points="369,-30 225,-30 225,0 369,0 369,-30"/>
<text text-anchor="start" x="233" y="-18" font-family="Helvetica,sans-Serif" font-size="10.00">Tmc9660Handler::IsDriver</text>
<text text-anchor="middle" x="297" y="-7" font-family="Helvetica,sans-Serif" font-size="10.00">Ready</text>
</a>
</g>
</g>
<!-- Node1&#45;&gt;Node8 -->
<g id="edge9_Node000001_Node000008" class="edge">
<title>Node1&#45;&gt;Node8</title>
<g id="a_edge9_Node000001_Node000008"><a xlink:title=" ">
<path fill="none" stroke="#63b8ff" d="M185.82,-26.48C195.45,-25.48 205.2,-24.46 214.71,-23.47"/>
<polygon fill="#63b8ff" stroke="#63b8ff" points="215.34,-26.93 224.92,-22.41 214.61,-19.96 215.34,-26.93"/>
</a>
</g>
</g>
<!-- Node3 -->
<g id="Node000003" class="node">
<title>Node3</title>
<g id="a_Node000003"><a xlink:href="classLogger.html#adce17848a5844e053bfd314863dc1404" target="_top" xlink:title="Log error message.">
<polygon fill="white" stroke="#666666" points="503.5,-67.5 424.5,-67.5 424.5,-48.5 503.5,-48.5 503.5,-67.5"/>
<text text-anchor="middle" x="464" y="-55.5" font-family="Helvetica,sans-Serif" font-size="10.00">Logger::Error</text>
</a>
</g>
</g>
<!-- Node2&#45;&gt;Node3 -->
<g id="edge2_Node000002_Node000003" class="edge">
<title>Node2&#45;&gt;Node3</title>
<g id="a_edge2_Node000002_Node000003"><a xlink:title=" ">
<path fill="none" stroke="#63b8ff" d="M371.33,-58C385.73,-58 400.5,-58 413.87,-58"/>
<polygon fill="#63b8ff" stroke="#63b8ff" points="414.26,-61.5 424.26,-58 414.26,-54.5 414.26,-61.5"/>
</a>
</g>
</g>
<!-- Node6 -->
<g id="Node000006" class="node">
<title>Node6</title>
<g id="a_Node000006"><a xlink:href="classLogger.html#a5789d11f8f1356e2192c0023a089cbc4" target="_top" xlink:title="Get singleton instance.">
<polygon fill="white" stroke="#666666" points="521,-30.5 407,-30.5 407,-11.5 521,-11.5 521,-30.5"/>
<text text-anchor="middle" x="464" y="-18.5" font-family="Helvetica,sans-Serif" font-size="10.00">Logger::GetInstance</text>
</a>
</g>
</g>
<!-- Node2&#45;&gt;Node6 -->
<g id="edge5_Node000002_Node000006" class="edge">
<title>Node2&#45;&gt;Node6</title>
<g id="a_edge5_Node000002_Node000006"><a xlink:title=" ">
<path fill="none" stroke="#63b8ff" d="M340.49,-48.47C361.87,-43.68 387.97,-37.82 410.58,-32.75"/>
<polygon fill="#63b8ff" stroke="#63b8ff" points="411.37,-36.16 420.37,-30.56 409.84,-29.33 411.37,-36.16"/>
</a>
</g>
</g>
<!-- Node7 -->
<g id="Node000007" class="node">
<title>Node7</title>
<g id="a_Node000007"><a xlink:href="classLogger.html#a4681229c521795685fc14f6b55c82300" target="_top" xlink:title="Log info message.">
<polygon fill="white" stroke="#666666" points="501,-104.5 427,-104.5 427,-85.5 501,-85.5 501,-104.5"/>
<text text-anchor="middle" x="464" y="-92.5" font-family="Helvetica,sans-Serif" font-size="10.00">Logger::Info</text>
</a>
</g>
</g>
<!-- Node2&#45;&gt;Node7 -->
<g id="edge6_Node000002_Node000007" class="edge">
<title>Node2&#45;&gt;Node7</title>
<g id="a_edge6_Node000002_Node000007"><a xlink:title=" ">
<path fill="none" stroke="#63b8ff" d="M340.49,-67.53C363.89,-72.77 392.94,-79.29 416.89,-84.66"/>
<polygon fill="#63b8ff" stroke="#63b8ff" points="416.28,-88.11 426.8,-86.88 417.81,-81.28 416.28,-88.11"/>
</a>
</g>
</g>
<!-- Node4 -->
<g id="Node000004" class="node">
<title>Node4</title>
<g id="a_Node000004"><a xlink:href="classLogger.html#af9e84e0ff6bd538e4f9ed8dcebc3e2f0" target="_top" xlink:title="Check if log level is enabled for tag.">
<polygon fill="white" stroke="#666666" points="686,-104.5 557,-104.5 557,-85.5 686,-85.5 686,-104.5"/>
<text text-anchor="middle" x="621.5" y="-92.5" font-family="Helvetica,sans-Serif" font-size="10.00">Logger::IsLevelEnabled</text>
</a>
</g>
</g>
<!-- Node3&#45;&gt;Node4 -->
<g id="edge3_Node000003_Node000004" class="edge">
<title>Node3&#45;&gt;Node4</title>
<g id="a_edge3_Node000003_Node000004"><a xlink:title=" ">
<path fill="none" stroke="#63b8ff" d="M503.84,-67.24C524.03,-72.05 548.94,-77.97 570.55,-83.11"/>
<polygon fill="#63b8ff" stroke="#63b8ff" points="570,-86.58 580.53,-85.49 571.62,-79.77 570,-86.58"/>
</a>
</g>
</g>
<!-- Node5 -->
<g id="Node000005" class="node">
<title>Node5</title>
<g id="a_Node000005"><a xlink:href="classLogger.html#a6adb205db597526fb91ad20067400394" target="_top" xlink:title="Internal logging method.">
<polygon fill="white" stroke="#666666" points="676.5,-67.5 566.5,-67.5 566.5,-48.5 676.5,-48.5 676.5,-67.5"/>
<text text-anchor="middle" x="621.5" y="-55.5" font-family="Helvetica,sans-Serif" font-size="10.00">Logger::LogInternal</text>
</a>
</g>
</g>
<!-- Node3&#45;&gt;Node5 -->
<g id="edge4_Node000003_Node000005" class="edge">
<title>Node3&#45;&gt;Node5</title>
<g id="a_edge4_Node000003_Node000005"><a xlink:title=" ">
<path fill="none" stroke="#63b8ff" d="M503.84,-58C519.63,-58 538.31,-58 556.03,-58"/>
<polygon fill="#63b8ff" stroke="#63b8ff" points="556.33,-61.5 566.33,-58 556.33,-54.5 556.33,-61.5"/>
</a>
</g>
</g>
<!-- Node7&#45;&gt;Node4 -->
<g id="edge7_Node000007_Node000004" class="edge">
<title>Node7&#45;&gt;Node4</title>
<g id="a_edge7_Node000007_Node000004"><a xlink:title=" ">
<path fill="none" stroke="#63b8ff" d="M501.07,-95C514.68,-95 530.72,-95 546.55,-95"/>
<polygon fill="#63b8ff" stroke="#63b8ff" points="546.89,-98.5 556.89,-95 546.89,-91.5 546.89,-98.5"/>
</a>
</g>
</g>
<!-- Node7&#45;&gt;Node5 -->
<g id="edge8_Node000007_Node000005" class="edge">
<title>Node7&#45;&gt;Node5</title>
<g id="a_edge8_Node000007_Node000005"><a xlink:title=" ">
<path fill="none" stroke="#63b8ff" d="M501.07,-86.42C521.78,-81.49 548.09,-75.23 570.74,-69.84"/>
<polygon fill="#63b8ff" stroke="#63b8ff" points="571.61,-73.23 580.53,-67.51 569.99,-66.42 571.61,-73.23"/>
</a>
</g>
</g>
</g>
</svg>
