<?xml version="1.0" encoding="UTF-8" standalone="no"?>
<!DOCTYPE svg PUBLIC "-//W3C//DTD SVG 1.1//EN"
 "http://www.w3.org/Graphics/SVG/1.1/DTD/svg11.dtd">
<!-- Generated by graphviz version 2.43.0 (0)
 -->
<!-- Title: Max22200Handler::DumpDiagnostics Pages: 1 -->
<svg width="940pt" height="138pt"
 viewBox="0.00 0.00 940.00 138.00" xmlns="http://www.w3.org/2000/svg" xmlns:xlink="http://www.w3.org/1999/xlink">
<g id="graph0" class="graph" transform="scale(1 1) rotate(0) translate(4 134)">
<title>Max22200Handler::DumpDiagnostics</title>
<!-- Node1 -->
<g id="Node000001" class="node">
<title>Node1</title>
<g id="a_Node000001"><a xlink:title="Dump diagnostics to logger.">
<polygon fill="#999999" stroke="#666666" points="198,-95 0,-95 0,-76 198,-76 198,-95"/>
<text text-anchor="middle" x="99" y="-83" font-family="Helvetica,sans-Serif" font-size="10.00">Max22200Handler::DumpDiagnostics</text>
</a>
</g>
</g>
<!-- Node2 -->
<g id="Node000002" class="node">
<title>Node2</title>
<g id="a_Node000002"><a xlink:href="classMax22200Handler.html#aa00edacb247660349767fa4521121104" target="_top" xlink:title=" ">
<polygon fill="white" stroke="#666666" points="427,-79.5 234,-79.5 234,-49.5 427,-49.5 427,-79.5"/>
<text text-anchor="start" x="242" y="-67.5" font-family="Helvetica,sans-Serif" font-size="10.00">Max22200Handler::EnsureInitialized</text>
<text text-anchor="middle" x="330.5" y="-56.5" font-family="Helvetica,sans-Serif" font-size="10.00">Locked</text>
</a>
</g>
</g>
<!-- Node1&#45;&gt;Node2 -->
<g id="edge1_Node000001_Node000002" class="edge">
<title>Node1&#45;&gt;Node2</title>
<g id="a_edge1_Node000001_Node000002"><a xlink:title=" ">
<path fill="none" stroke="#63b8ff" d="M198.33,-76.5C206.81,-75.73 215.41,-74.94 223.95,-74.16"/>
<polygon fill="#63b8ff" stroke="#63b8ff" points="224.29,-77.64 233.93,-73.25 223.65,-70.67 224.29,-77.64"/>
</a>
</g>
</g>
<!-- Node6 -->
<g id="Node000006" class="node">
<title>Node6</title>
<g id="a_Node000006"><a xlink:href="classLogger.html#a5789d11f8f1356e2192c0023a089cbc4" target="_top" xlink:title="Get singleton instance.">
<polygon fill="white" stroke="#666666" points="767,-130 653,-130 653,-111 767,-111 767,-130"/>
<text text-anchor="middle" x="710" y="-118" font-family="Helvetica,sans-Serif" font-size="10.00">Logger::GetInstance</text>
</a>
</g>
</g>
<!-- Node1&#45;&gt;Node6 -->
<g id="edge15_Node000001_Node000006" class="edge">
<title>Node1&#45;&gt;Node6</title>
<g id="a_edge15_Node000001_Node000006"><a xlink:title=" ">
<path fill="none" stroke="#63b8ff" d="M198.19,-92.11C271.22,-96.93 373.31,-103.47 463,-108.5 523.78,-111.91 593.04,-115.24 642.55,-117.52"/>
<polygon fill="#63b8ff" stroke="#63b8ff" points="642.66,-121.03 652.81,-117.99 642.98,-114.04 642.66,-121.03"/>
</a>
</g>
</g>
<!-- Node3 -->
<g id="Node000003" class="node">
<title>Node3</title>
<g id="a_Node000003"><a xlink:href="classLogger.html#a5e4bcdaea60b9ac227b564d780388769" target="_top" xlink:title="Log error message.">
<polygon fill="white" stroke="#666666" points="749.5,-19 670.5,-19 670.5,0 749.5,0 749.5,-19"/>
<text text-anchor="middle" x="710" y="-7" font-family="Helvetica,sans-Serif" font-size="10.00">Logger::Error</text>
</a>
</g>
</g>
<!-- Node2&#45;&gt;Node3 -->
<g id="edge2_Node000002_Node000003" class="edge">
<title>Node2&#45;&gt;Node3</title>
<g id="a_edge2_Node000002_Node000003"><a xlink:title=" ">
<path fill="none" stroke="#63b8ff" d="M377.87,-49.48C402.84,-41.99 434.32,-33.49 463,-28.5 530.77,-16.72 610.31,-12.24 660.19,-10.54"/>
<polygon fill="#63b8ff" stroke="#63b8ff" points="660.49,-14.03 670.37,-10.22 660.26,-7.04 660.49,-14.03"/>
</a>
</g>
</g>
<!-- Node2&#45;&gt;Node6 -->
<g id="edge5_Node000002_Node000006" class="edge">
<title>Node2&#45;&gt;Node6</title>
<g id="a_edge5_Node000002_Node000006"><a xlink:title=" ">
<path fill="none" stroke="#63b8ff" d="M427.25,-78.7C494.67,-88.7 583.19,-101.84 642.87,-110.69"/>
<polygon fill="#63b8ff" stroke="#63b8ff" points="642.53,-114.18 652.93,-112.18 643.55,-107.25 642.53,-114.18"/>
</a>
</g>
</g>
<!-- Node7 -->
<g id="Node000007" class="node">
<title>Node7</title>
<g id="a_Node000007"><a xlink:href="classMax22200Handler.html#ad6c72b45a96c36cd1b450f5e330fad25" target="_top" xlink:title="Initialize driver (ENABLE HIGH, read/clear STATUS, set ACTIVE).">
<polygon fill="white" stroke="#666666" points="617,-57 463,-57 463,-38 617,-38 617,-57"/>
<text text-anchor="middle" x="540" y="-45" font-family="Helvetica,sans-Serif" font-size="10.00">Max22200Handler::Initialize</text>
</a>
</g>
</g>
<!-- Node2&#45;&gt;Node7 -->
<g id="edge6_Node000002_Node000007" class="edge">
<title>Node2&#45;&gt;Node7</title>
<g id="a_edge6_Node000002_Node000007"><a xlink:title=" ">
<path fill="none" stroke="#63b8ff" d="M427.05,-56.67C435.6,-55.97 444.22,-55.27 452.68,-54.57"/>
<polygon fill="#63b8ff" stroke="#63b8ff" points="453.22,-58.04 462.9,-53.73 452.65,-51.06 453.22,-58.04"/>
</a>
</g>
</g>
<!-- Node4 -->
<g id="Node000004" class="node">
<title>Node4</title>
<g id="a_Node000004"><a xlink:href="classLogger.html#a737b981213c02321a5235848334d7191" target="_top" xlink:title="Check if log level is enabled for tag.">
<polygon fill="white" stroke="#666666" points="932,-74 803,-74 803,-55 932,-55 932,-74"/>
<text text-anchor="middle" x="867.5" y="-62" font-family="Helvetica,sans-Serif" font-size="10.00">Logger::IsLevelEnabled</text>
</a>
</g>
</g>
<!-- Node3&#45;&gt;Node4 -->
<g id="edge3_Node000003_Node000004" class="edge">
<title>Node3&#45;&gt;Node4</title>
<g id="a_edge3_Node000003_Node000004"><a xlink:title=" ">
<path fill="none" stroke="#63b8ff" d="M743.58,-19.05C751.34,-21.57 759.53,-24.45 767,-27.5 783.56,-34.26 786.37,-38.91 803,-45.5 808.62,-47.73 814.61,-49.84 820.57,-51.79"/>
<polygon fill="#63b8ff" stroke="#63b8ff" points="819.94,-55.26 830.53,-54.92 822.04,-48.58 819.94,-55.26"/>
</a>
</g>
</g>
<!-- Node5 -->
<g id="Node000005" class="node">
<title>Node5</title>
<g id="a_Node000005"><a xlink:href="classLogger.html#aeede6ac18db92a47caede076ef188a13" target="_top" xlink:title="Internal logging method.">
<polygon fill="white" stroke="#666666" points="922.5,-37 812.5,-37 812.5,-18 922.5,-18 922.5,-37"/>
<text text-anchor="middle" x="867.5" y="-25" font-family="Helvetica,sans-Serif" font-size="10.00">Logger::LogInternal</text>
</a>
</g>
</g>
<!-- Node3&#45;&gt;Node5 -->
<g id="edge4_Node000003_Node000005" class="edge">
<title>Node3&#45;&gt;Node5</title>
<g id="a_edge4_Node000003_Node000005"><a xlink:title=" ">
<path fill="none" stroke="#63b8ff" d="M749.84,-14C765.63,-15.82 784.31,-17.99 802.03,-20.04"/>
<polygon fill="#63b8ff" stroke="#63b8ff" points="802,-23.56 812.33,-21.23 802.8,-16.6 802,-23.56"/>
</a>
</g>
</g>
<!-- Node7&#45;&gt;Node3 -->
<g id="edge7_Node000007_Node000003" class="edge">
<title>Node7&#45;&gt;Node3</title>
<g id="a_edge7_Node000007_Node000003"><a xlink:title=" ">
<path fill="none" stroke="#63b8ff" d="M583.39,-37.91C606.89,-32.6 636.19,-25.97 660.58,-20.45"/>
<polygon fill="#63b8ff" stroke="#63b8ff" points="661.38,-23.86 670.36,-18.24 659.83,-17.03 661.38,-23.86"/>
</a>
</g>
</g>
<!-- Node7&#45;&gt;Node6 -->
<g id="edge8_Node000007_Node000006" class="edge">
<title>Node7&#45;&gt;Node6</title>
<g id="a_edge8_Node000007_Node000006"><a xlink:title=" ">
<path fill="none" stroke="#63b8ff" d="M581.7,-57.04C593.5,-60.67 606.12,-65.44 617,-71.5 635.44,-81.78 634.58,-92.17 653,-102.5 656.03,-104.2 659.25,-105.77 662.54,-107.2"/>
<polygon fill="#63b8ff" stroke="#63b8ff" points="661.38,-110.5 671.96,-110.92 663.94,-103.99 661.38,-110.5"/>
</a>
</g>
</g>
<!-- Node8 -->
<g id="Node000008" class="node">
<title>Node8</title>
<g id="a_Node000008"><a xlink:href="classLogger.html#a1c0c947d87884bca0395fd38d19d1102" target="_top" xlink:title="Log info message.">
<polygon fill="white" stroke="#666666" points="747,-56 673,-56 673,-37 747,-37 747,-56"/>
<text text-anchor="middle" x="710" y="-44" font-family="Helvetica,sans-Serif" font-size="10.00">Logger::Info</text>
</a>
</g>
</g>
<!-- Node7&#45;&gt;Node8 -->
<g id="edge9_Node000007_Node000008" class="edge">
<title>Node7&#45;&gt;Node8</title>
<g id="a_edge9_Node000007_Node000008"><a xlink:title=" ">
<path fill="none" stroke="#63b8ff" d="M617.14,-47.05C632.63,-46.95 648.49,-46.86 662.57,-46.78"/>
<polygon fill="#63b8ff" stroke="#63b8ff" points="662.98,-50.27 672.96,-46.71 662.94,-43.27 662.98,-50.27"/>
</a>
</g>
</g>
<!-- Node9 -->
<g id="Node000009" class="node">
<title>Node9</title>
<g id="a_Node000009"><a xlink:href="classLogger.html#a8c19c14724b0be1d2be63da4258c001a" target="_top" xlink:title="Log warning message.">
<polygon fill="white" stroke="#666666" points="750,-93 670,-93 670,-74 750,-74 750,-93"/>
<text text-anchor="middle" x="710" y="-81" font-family="Helvetica,sans-Serif" font-size="10.00">Logger::Warn</text>
</a>
</g>
</g>
<!-- Node7&#45;&gt;Node9 -->
<g id="edge12_Node000007_Node000009" class="edge">
<title>Node7&#45;&gt;Node9</title>
<g id="a_edge12_Node000007_Node000009"><a xlink:title=" ">
<path fill="none" stroke="#63b8ff" d="M585.58,-57.05C608.55,-61.97 636.59,-67.98 660.15,-73.03"/>
<polygon fill="#63b8ff" stroke="#63b8ff" points="659.43,-76.46 669.94,-75.13 660.89,-69.61 659.43,-76.46"/>
</a>
</g>
</g>
<!-- Node8&#45;&gt;Node4 -->
<g id="edge10_Node000008_Node000004" class="edge">
<title>Node8&#45;&gt;Node4</title>
<g id="a_edge10_Node000008_Node000004"><a xlink:title=" ">
<path fill="none" stroke="#63b8ff" d="M747.07,-50.67C760.68,-52.25 776.72,-54.11 792.55,-55.94"/>
<polygon fill="#63b8ff" stroke="#63b8ff" points="792.55,-59.46 802.89,-57.14 793.36,-52.51 792.55,-59.46"/>
</a>
</g>
</g>
<!-- Node8&#45;&gt;Node5 -->
<g id="edge11_Node000008_Node000005" class="edge">
<title>Node8&#45;&gt;Node5</title>
<g id="a_edge11_Node000008_Node000005"><a xlink:title=" ">
<path fill="none" stroke="#63b8ff" d="M747.07,-42.09C763.49,-40.09 783.44,-37.65 802.3,-35.34"/>
<polygon fill="#63b8ff" stroke="#63b8ff" points="802.83,-38.81 812.33,-34.12 801.98,-31.86 802.83,-38.81"/>
</a>
</g>
</g>
<!-- Node9&#45;&gt;Node4 -->
<g id="edge13_Node000009_Node000004" class="edge">
<title>Node9&#45;&gt;Node4</title>
<g id="a_edge13_Node000009_Node000004"><a xlink:title=" ">
<path fill="none" stroke="#63b8ff" d="M750.24,-78.71C763.18,-77.12 778.02,-75.31 792.68,-73.52"/>
<polygon fill="#63b8ff" stroke="#63b8ff" points="793.27,-76.97 802.77,-72.29 792.42,-70.03 793.27,-76.97"/>
</a>
</g>
</g>
<!-- Node9&#45;&gt;Node5 -->
<g id="edge14_Node000009_Node000005" class="edge">
<title>Node9&#45;&gt;Node5</title>
<g id="a_edge14_Node000009_Node000005"><a xlink:title=" ">
<path fill="none" stroke="#63b8ff" d="M744.27,-73.99C751.84,-71.5 759.79,-68.63 767,-65.5 783.79,-58.22 786.08,-52.49 803,-45.5 807.71,-43.55 812.7,-41.74 817.73,-40.07"/>
<polygon fill="#63b8ff" stroke="#63b8ff" points="818.9,-43.38 827.4,-37.05 816.81,-36.7 818.9,-43.38"/>
</a>
</g>
</g>
</g>
</svg>
