<?xml version="1.0" encoding="UTF-8" standalone="no"?>
<!DOCTYPE svg PUBLIC "-//W3C//DTD SVG 1.1//EN"
 "http://www.w3.org/Graphics/SVG/1.1/DTD/svg11.dtd">
<!-- Generated by graphviz version 2.43.0 (0)
 -->
<!-- Title: Tmc9660Handler::driverViaUart Pages: 1 -->
<svg width="1104pt" height="113pt"
 viewBox="0.00 0.00 1104.00 112.50" xmlns="http://www.w3.org/2000/svg" xmlns:xlink="http://www.w3.org/1999/xlink">
<g id="graph0" class="graph" transform="scale(1 1) rotate(0) translate(4 108.5)">
<title>Tmc9660Handler::driverViaUart</title>
<!-- Node1 -->
<g id="Node000001" class="node">
<title>Node1</title>
<g id="a_Node000001"><a xlink:title="Const version of driverViaUart().">
<polygon fill="#999999" stroke="#666666" points="171,-45.5 0,-45.5 0,-26.5 171,-26.5 171,-45.5"/>
<text text-anchor="middle" x="85.5" y="-33.5" font-family="Helvetica,sans-Serif" font-size="10.00">Tmc9660Handler::driverViaUart</text>
</a>
</g>
</g>
<!-- Node2 -->
<g id="Node000002" class="node">
<title>Node2</title>
<g id="a_Node000002"><a xlink:href="classTmc9660Handler.html#a393382194d0602e7aa02da6a8fd7a20a" target="_top" xlink:title="Get a reference to the Temperature wrapper.">
<polygon fill="white" stroke="#666666" points="374,-45.5 207,-45.5 207,-26.5 374,-26.5 374,-45.5"/>
<text text-anchor="middle" x="290.5" y="-33.5" font-family="Helvetica,sans-Serif" font-size="10.00">Tmc9660Handler::temperature</text>
</a>
</g>
</g>
<!-- Node1&#45;&gt;Node2 -->
<g id="edge1_Node000001_Node000002" class="edge">
<title>Node1&#45;&gt;Node2</title>
<g id="a_edge1_Node000001_Node000002"><a xlink:title=" ">
<path fill="none" stroke="#63b8ff" d="M171.12,-36C179.64,-36 188.33,-36 196.93,-36"/>
<polygon fill="#63b8ff" stroke="#63b8ff" points="196.97,-39.5 206.97,-36 196.97,-32.5 196.97,-39.5"/>
</a>
</g>
</g>
<!-- Node2&#45;&gt;Node2 -->
<g id="edge12_Node000002_Node000002" class="edge">
<title>Node2&#45;&gt;Node2</title>
<g id="a_edge12_Node000002_Node000002"><a xlink:title=" ">
<path fill="none" stroke="#63b8ff" d="M259.06,-45.58C243.76,-54.23 254.24,-63.5 290.5,-63.5 315.99,-63.5 328.74,-58.92 328.75,-53.19"/>
<polygon fill="#63b8ff" stroke="#63b8ff" points="331.22,-50.7 321.94,-45.58 326,-55.37 331.22,-50.7"/>
</a>
</g>
</g>
<!-- Node3 -->
<g id="Node000003" class="node">
<title>Node3</title>
<g id="a_Node000003"><a xlink:href="classTmc9660Handler.html#a5a279ae9d4b5a8e0d71cb24577ad88ea" target="_top" xlink:title="Ensure driver is initialized (lazy init entrypoint).">
<polygon fill="white" stroke="#666666" points="597,-45.5 410,-45.5 410,-26.5 597,-26.5 597,-45.5"/>
<text text-anchor="middle" x="503.5" y="-33.5" font-family="Helvetica,sans-Serif" font-size="10.00">Tmc9660Handler::EnsureInitialized</text>
</a>
</g>
</g>
<!-- Node2&#45;&gt;Node3 -->
<g id="edge2_Node000002_Node000003" class="edge">
<title>Node2&#45;&gt;Node3</title>
<g id="a_edge2_Node000002_Node000003"><a xlink:title=" ">
<path fill="none" stroke="#63b8ff" d="M374.29,-36C382.67,-36 391.25,-36 399.81,-36"/>
<polygon fill="#63b8ff" stroke="#63b8ff" points="399.83,-39.5 409.83,-36 399.83,-32.5 399.83,-39.5"/>
</a>
</g>
</g>
<!-- Node4 -->
<g id="Node000004" class="node">
<title>Node4</title>
<g id="a_Node000004"><a xlink:href="classTmc9660Handler.html#adc564847f8ae26c47412aaee0758991c" target="_top" xlink:title="Initialize the TMC9660 device.">
<polygon fill="white" stroke="#666666" points="781,-67.5 633,-67.5 633,-48.5 781,-48.5 781,-67.5"/>
<text text-anchor="middle" x="707" y="-55.5" font-family="Helvetica,sans-Serif" font-size="10.00">Tmc9660Handler::Initialize</text>
</a>
</g>
</g>
<!-- Node3&#45;&gt;Node4 -->
<g id="edge3_Node000003_Node000004" class="edge">
<title>Node3&#45;&gt;Node4</title>
<g id="a_edge3_Node000003_Node000004"><a xlink:title=" ">
<path fill="none" stroke="#63b8ff" d="M591.71,-45.52C602,-46.65 612.48,-47.79 622.72,-48.91"/>
<polygon fill="#63b8ff" stroke="#63b8ff" points="622.53,-52.41 632.85,-50.01 623.29,-45.45 622.53,-52.41"/>
</a>
</g>
</g>
<!-- Node10 -->
<g id="Node000010" class="node">
<title>Node10</title>
<g id="a_Node000010"><a xlink:href="classTmc9660Handler.html#a13db97d201a287d8aa60384e04070b9f" target="_top" xlink:title="Check if the TMC9660 driver has been initialized and is ready.">
<polygon fill="white" stroke="#666666" points="779,-30 635,-30 635,0 779,0 779,-30"/>
<text text-anchor="start" x="643" y="-18" font-family="Helvetica,sans-Serif" font-size="10.00">Tmc9660Handler::IsDriver</text>
<text text-anchor="middle" x="707" y="-7" font-family="Helvetica,sans-Serif" font-size="10.00">Ready</text>
</a>
</g>
</g>
<!-- Node3&#45;&gt;Node10 -->
<g id="edge11_Node000003_Node000010" class="edge">
<title>Node3&#45;&gt;Node10</title>
<g id="a_edge11_Node000003_Node000010"><a xlink:title=" ">
<path fill="none" stroke="#63b8ff" d="M595.82,-26.48C605.45,-25.48 615.2,-24.46 624.71,-23.47"/>
<polygon fill="#63b8ff" stroke="#63b8ff" points="625.34,-26.93 634.92,-22.41 624.61,-19.96 625.34,-26.93"/>
</a>
</g>
</g>
<!-- Node5 -->
<g id="Node000005" class="node">
<title>Node5</title>
<g id="a_Node000005"><a xlink:href="classLogger.html#adce17848a5844e053bfd314863dc1404" target="_top" xlink:title="Log error message.">
<polygon fill="white" stroke="#666666" points="913.5,-67.5 834.5,-67.5 834.5,-48.5 913.5,-48.5 913.5,-67.5"/>
<text text-anchor="middle" x="874" y="-55.5" font-family="Helvetica,sans-Serif" font-size="10.00">Logger::Error</text>
</a>
</g>
</g>
<!-- Node4&#45;&gt;Node5 -->
<g id="edge4_Node000004_Node000005" class="edge">
<title>Node4&#45;&gt;Node5</title>
<g id="a_edge4_Node000004_Node000005"><a xlink:title=" ">
<path fill="none" stroke="#63b8ff" d="M781.33,-58C795.73,-58 810.5,-58 823.87,-58"/>
<polygon fill="#63b8ff" stroke="#63b8ff" points="824.26,-61.5 834.26,-58 824.26,-54.5 824.26,-61.5"/>
</a>
</g>
</g>
<!-- Node8 -->
<g id="Node000008" class="node">
<title>Node8</title>
<g id="a_Node000008"><a xlink:href="classLogger.html#a5789d11f8f1356e2192c0023a089cbc4" target="_top" xlink:title="Get singleton instance.">
<polygon fill="white" stroke="#666666" points="931,-30.5 817,-30.5 817,-11.5 931,-11.5 931,-30.5"/>
<text text-anchor="middle" x="874" y="-18.5" font-family="Helvetica,sans-Serif" font-size="10.00">Logger::GetInstance</text>
</a>
</g>
</g>
<!-- Node4&#45;&gt;Node8 -->
<g id="edge7_Node000004_Node000008" class="edge">
<title>Node4&#45;&gt;Node8</title>
<g id="a_edge7_Node000004_Node000008"><a xlink:title=" ">
<path fill="none" stroke="#63b8ff" d="M750.49,-48.47C771.87,-43.68 797.97,-37.82 820.58,-32.75"/>
<polygon fill="#63b8ff" stroke="#63b8ff" points="821.37,-36.16 830.37,-30.56 819.84,-29.33 821.37,-36.16"/>
</a>
</g>
</g>
<!-- Node9 -->
<g id="Node000009" class="node">
<title>Node9</title>
<g id="a_Node000009"><a xlink:href="classLogger.html#a4681229c521795685fc14f6b55c82300" target="_top" xlink:title="Log info message.">
<polygon fill="white" stroke="#666666" points="911,-104.5 837,-104.5 837,-85.5 911,-85.5 911,-104.5"/>
<text text-anchor="middle" x="874" y="-92.5" font-family="Helvetica,sans-Serif" font-size="10.00">Logger::Info</text>
</a>
</g>
</g>
<!-- Node4&#45;&gt;Node9 -->
<g id="edge8_Node000004_Node000009" class="edge">
<title>Node4&#45;&gt;Node9</title>
<g id="a_edge8_Node000004_Node000009"><a xlink:title=" ">
<path fill="none" stroke="#63b8ff" d="M750.49,-67.53C773.89,-72.77 802.94,-79.29 826.89,-84.66"/>
<polygon fill="#63b8ff" stroke="#63b8ff" points="826.28,-88.11 836.8,-86.88 827.81,-81.28 826.28,-88.11"/>
</a>
</g>
</g>
<!-- Node6 -->
<g id="Node000006" class="node">
<title>Node6</title>
<g id="a_Node000006"><a xlink:href="classLogger.html#af9e84e0ff6bd538e4f9ed8dcebc3e2f0" target="_top" xlink:title="Check if log level is enabled for tag.">
<polygon fill="white" stroke="#666666" points="1096,-104.5 967,-104.5 967,-85.5 1096,-85.5 1096,-104.5"/>
<text text-anchor="middle" x="1031.5" y="-92.5" font-family="Helvetica,sans-Serif" font-size="10.00">Logger::IsLevelEnabled</text>
</a>
</g>
</g>
<!-- Node5&#45;&gt;Node6 -->
<g id="edge5_Node000005_Node000006" class="edge">
<title>Node5&#45;&gt;Node6</title>
<g id="a_edge5_Node000005_Node000006"><a xlink:title=" ">
<path fill="none" stroke="#63b8ff" d="M913.84,-67.24C934.03,-72.05 958.94,-77.97 980.55,-83.11"/>
<polygon fill="#63b8ff" stroke="#63b8ff" points="980,-86.58 990.53,-85.49 981.62,-79.77 980,-86.58"/>
</a>
</g>
</g>
<!-- Node7 -->
<g id="Node000007" class="node">
<title>Node7</title>
<g id="a_Node000007"><a xlink:href="classLogger.html#a6adb205db597526fb91ad20067400394" target="_top" xlink:title="Internal logging method.">
<polygon fill="white" stroke="#666666" points="1086.5,-67.5 976.5,-67.5 976.5,-48.5 1086.5,-48.5 1086.5,-67.5"/>
<text text-anchor="middle" x="1031.5" y="-55.5" font-family="Helvetica,sans-Serif" font-size="10.00">Logger::LogInternal</text>
</a>
</g>
</g>
<!-- Node5&#45;&gt;Node7 -->
<g id="edge6_Node000005_Node000007" class="edge">
<title>Node5&#45;&gt;Node7</title>
<g id="a_edge6_Node000005_Node000007"><a xlink:title=" ">
<path fill="none" stroke="#63b8ff" d="M913.84,-58C929.63,-58 948.31,-58 966.03,-58"/>
<polygon fill="#63b8ff" stroke="#63b8ff" points="966.33,-61.5 976.33,-58 966.33,-54.5 966.33,-61.5"/>
</a>
</g>
</g>
<!-- Node9&#45;&gt;Node6 -->
<g id="edge9_Node000009_Node000006" class="edge">
<title>Node9&#45;&gt;Node6</title>
<g id="a_edge9_Node000009_Node000006"><a xlink:title=" ">
<path fill="none" stroke="#63b8ff" d="M911.07,-95C924.68,-95 940.72,-95 956.55,-95"/>
<polygon fill="#63b8ff" stroke="#63b8ff" points="956.89,-98.5 966.89,-95 956.89,-91.5 956.89,-98.5"/>
</a>
</g>
</g>
<!-- Node9&#45;&gt;Node7 -->
<g id="edge10_Node000009_Node000007" class="edge">
<title>Node9&#45;&gt;Node7</title>
<g id="a_edge10_Node000009_Node000007"><a xlink:title=" ">
<path fill="none" stroke="#63b8ff" d="M911.07,-86.42C931.78,-81.49 958.09,-75.23 980.74,-69.84"/>
<polygon fill="#63b8ff" stroke="#63b8ff" points="981.61,-73.23 990.53,-67.51 979.99,-66.42 981.61,-73.23"/>
</a>
</g>
</g>
</g>
</svg>
