<?xml version="1.0" encoding="UTF-8" standalone="no"?>
<!DOCTYPE svg PUBLIC "-//W3C//DTD SVG 1.1//EN"
 "http://www.w3.org/Graphics/SVG/1.1/DTD/svg11.dtd">
<!-- Generated by graphviz version 2.43.0 (0)
 -->
<!-- Title: Max22200Handler::ClearFaults Pages: 1 -->
<svg width="1107pt" height="138pt"
 viewBox="0.00 0.00 1107.00 138.00" xmlns="http://www.w3.org/2000/svg" xmlns:xlink="http://www.w3.org/1999/xlink">
<g id="graph0" class="graph" transform="scale(1 1) rotate(0) translate(4 134)">
<title>Max22200Handler::ClearFaults</title>
<!-- Node1 -->
<g id="Node000001" class="node">
<title>Node1</title>
<g id="a_Node000001"><a xlink:title="Clear all fault flags.">
<polygon fill="#999999" stroke="#666666" points="166,-83 0,-83 0,-64 166,-64 166,-83"/>
<text text-anchor="middle" x="83" y="-71" font-family="Helvetica,sans-Serif" font-size="10.00">Max22200Handler::ClearFaults</text>
</a>
</g>
</g>
<!-- Node2 -->
<g id="Node000002" class="node">
<title>Node2</title>
<g id="a_Node000002"><a xlink:href="classMax22200Handler.html#abcdd9746a0df9c28bb36508d52d80ef5" target="_top" xlink:title="Execute a lambda with a locked, initialized driver.">
<polygon fill="white" stroke="#666666" points="365,-83 202,-83 202,-64 365,-64 365,-83"/>
<text text-anchor="middle" x="283.5" y="-71" font-family="Helvetica,sans-Serif" font-size="10.00">Max22200Handler::withDriver</text>
</a>
</g>
</g>
<!-- Node1&#45;&gt;Node2 -->
<g id="edge1_Node000001_Node000002" class="edge">
<title>Node1&#45;&gt;Node2</title>
<g id="a_edge1_Node000001_Node000002"><a xlink:title=" ">
<path fill="none" stroke="#63b8ff" d="M166.17,-73.5C174.68,-73.5 183.36,-73.5 191.96,-73.5"/>
<polygon fill="#63b8ff" stroke="#63b8ff" points="191.99,-77 201.99,-73.5 191.99,-70 191.99,-77"/>
</a>
</g>
</g>
<!-- Node3 -->
<g id="Node000003" class="node">
<title>Node3</title>
<g id="a_Node000003"><a xlink:href="classMax22200Handler.html#aa00edacb247660349767fa4521121104" target="_top" xlink:title=" ">
<polygon fill="white" stroke="#666666" points="594,-88.5 401,-88.5 401,-58.5 594,-58.5 594,-88.5"/>
<text text-anchor="start" x="409" y="-76.5" font-family="Helvetica,sans-Serif" font-size="10.00">Max22200Handler::EnsureInitialized</text>
<text text-anchor="middle" x="497.5" y="-65.5" font-family="Helvetica,sans-Serif" font-size="10.00">Locked</text>
</a>
</g>
</g>
<!-- Node2&#45;&gt;Node3 -->
<g id="edge2_Node000002_Node000003" class="edge">
<title>Node2&#45;&gt;Node3</title>
<g id="a_edge2_Node000002_Node000003"><a xlink:title=" ">
<path fill="none" stroke="#63b8ff" d="M365.25,-73.5C373.58,-73.5 382.13,-73.5 390.67,-73.5"/>
<polygon fill="#63b8ff" stroke="#63b8ff" points="390.69,-77 400.69,-73.5 390.69,-70 390.69,-77"/>
</a>
</g>
</g>
<!-- Node4 -->
<g id="Node000004" class="node">
<title>Node4</title>
<g id="a_Node000004"><a xlink:href="classLogger.html#adce17848a5844e053bfd314863dc1404" target="_top" xlink:title="Log error message.">
<polygon fill="white" stroke="#666666" points="916.5,-130 837.5,-130 837.5,-111 916.5,-111 916.5,-130"/>
<text text-anchor="middle" x="877" y="-118" font-family="Helvetica,sans-Serif" font-size="10.00">Logger::Error</text>
</a>
</g>
</g>
<!-- Node3&#45;&gt;Node4 -->
<g id="edge3_Node000003_Node000004" class="edge">
<title>Node3&#45;&gt;Node4</title>
<g id="a_edge3_Node000003_Node000004"><a xlink:title=" ">
<path fill="none" stroke="#63b8ff" d="M594.33,-87.69C606.34,-89.37 618.45,-91.01 630,-92.5 698.26,-101.31 777.36,-110.06 827.04,-115.37"/>
<polygon fill="#63b8ff" stroke="#63b8ff" points="826.87,-118.87 837.18,-116.45 827.61,-111.91 826.87,-118.87"/>
</a>
</g>
</g>
<!-- Node7 -->
<g id="Node000007" class="node">
<title>Node7</title>
<g id="a_Node000007"><a xlink:href="classLogger.html#a5789d11f8f1356e2192c0023a089cbc4" target="_top" xlink:title="Get singleton instance.">
<polygon fill="white" stroke="#666666" points="934,-19 820,-19 820,0 934,0 934,-19"/>
<text text-anchor="middle" x="877" y="-7" font-family="Helvetica,sans-Serif" font-size="10.00">Logger::GetInstance</text>
</a>
</g>
</g>
<!-- Node3&#45;&gt;Node7 -->
<g id="edge6_Node000003_Node000007" class="edge">
<title>Node3&#45;&gt;Node7</title>
<g id="a_edge6_Node000003_Node000007"><a xlink:title=" ">
<path fill="none" stroke="#63b8ff" d="M587.01,-58.49C655.23,-46.93 748.08,-31.19 809.92,-20.7"/>
<polygon fill="#63b8ff" stroke="#63b8ff" points="810.68,-24.12 819.95,-19 809.51,-17.22 810.68,-24.12"/>
</a>
</g>
</g>
<!-- Node8 -->
<g id="Node000008" class="node">
<title>Node8</title>
<g id="a_Node000008"><a xlink:href="classMax22200Handler.html#ad6c72b45a96c36cd1b450f5e330fad25" target="_top" xlink:title="Initialize driver (ENABLE HIGH, read/clear STATUS, set ACTIVE).">
<polygon fill="white" stroke="#666666" points="784,-83 630,-83 630,-64 784,-64 784,-83"/>
<text text-anchor="middle" x="707" y="-71" font-family="Helvetica,sans-Serif" font-size="10.00">Max22200Handler::Initialize</text>
</a>
</g>
</g>
<!-- Node3&#45;&gt;Node8 -->
<g id="edge7_Node000003_Node000008" class="edge">
<title>Node3&#45;&gt;Node8</title>
<g id="a_edge7_Node000003_Node000008"><a xlink:title=" ">
<path fill="none" stroke="#63b8ff" d="M594.05,-73.5C602.6,-73.5 611.22,-73.5 619.68,-73.5"/>
<polygon fill="#63b8ff" stroke="#63b8ff" points="619.9,-77 629.9,-73.5 619.9,-70 619.9,-77"/>
</a>
</g>
</g>
<!-- Node5 -->
<g id="Node000005" class="node">
<title>Node5</title>
<g id="a_Node000005"><a xlink:href="classLogger.html#af9e84e0ff6bd538e4f9ed8dcebc3e2f0" target="_top" xlink:title="Check if log level is enabled for tag.">
<polygon fill="white" stroke="#666666" points="1099,-111 970,-111 970,-92 1099,-92 1099,-111"/>
<text text-anchor="middle" x="1034.5" y="-99" font-family="Helvetica,sans-Serif" font-size="10.00">Logger::IsLevelEnabled</text>
</a>
</g>
</g>
<!-- Node4&#45;&gt;Node5 -->
<g id="edge4_Node000004_Node000005" class="edge">
<title>Node4&#45;&gt;Node5</title>
<g id="a_edge4_Node000004_Node000005"><a xlink:title=" ">
<path fill="none" stroke="#63b8ff" d="M916.84,-115.75C929.85,-114.16 944.82,-112.34 959.6,-110.53"/>
<polygon fill="#63b8ff" stroke="#63b8ff" points="960.28,-113.97 969.78,-109.29 959.43,-107.02 960.28,-113.97"/>
</a>
</g>
</g>
<!-- Node6 -->
<g id="Node000006" class="node">
<title>Node6</title>
<g id="a_Node000006"><a xlink:href="classLogger.html#a6adb205db597526fb91ad20067400394" target="_top" xlink:title="Internal logging method.">
<polygon fill="white" stroke="#666666" points="1089.5,-74 979.5,-74 979.5,-55 1089.5,-55 1089.5,-74"/>
<text text-anchor="middle" x="1034.5" y="-62" font-family="Helvetica,sans-Serif" font-size="10.00">Logger::LogInternal</text>
</a>
</g>
</g>
<!-- Node4&#45;&gt;Node6 -->
<g id="edge5_Node000004_Node000006" class="edge">
<title>Node4&#45;&gt;Node6</title>
<g id="a_edge5_Node000004_Node000006"><a xlink:title=" ">
<path fill="none" stroke="#63b8ff" d="M910.92,-110.98C918.59,-108.47 926.66,-105.59 934,-102.5 950.68,-95.48 953.25,-90.35 970,-83.5 975.53,-81.24 981.42,-79.12 987.31,-77.16"/>
<polygon fill="#63b8ff" stroke="#63b8ff" points="988.67,-80.41 997.14,-74.05 986.55,-73.73 988.67,-80.41"/>
</a>
</g>
</g>
<!-- Node8&#45;&gt;Node4 -->
<g id="edge8_Node000008_Node000004" class="edge">
<title>Node8&#45;&gt;Node4</title>
<g id="a_edge8_Node000008_Node000004"><a xlink:title=" ">
<path fill="none" stroke="#63b8ff" d="M742,-83.01C767.87,-90.25 803.7,-100.27 831.8,-108.13"/>
<polygon fill="#63b8ff" stroke="#63b8ff" points="831.19,-111.6 841.77,-110.92 833.08,-104.86 831.19,-111.6"/>
</a>
</g>
</g>
<!-- Node8&#45;&gt;Node7 -->
<g id="edge9_Node000008_Node000007" class="edge">
<title>Node8&#45;&gt;Node7</title>
<g id="a_edge9_Node000008_Node000007"><a xlink:title=" ">
<path fill="none" stroke="#63b8ff" d="M729.69,-64C752.11,-54.32 788.21,-39.12 820,-27.5 824.85,-25.73 829.97,-23.95 835.07,-22.25"/>
<polygon fill="#63b8ff" stroke="#63b8ff" points="836.34,-25.51 844.75,-19.06 834.16,-18.86 836.34,-25.51"/>
</a>
</g>
</g>
<!-- Node9 -->
<g id="Node000009" class="node">
<title>Node9</title>
<g id="a_Node000009"><a xlink:href="classLogger.html#a4681229c521795685fc14f6b55c82300" target="_top" xlink:title="Log info message.">
<polygon fill="white" stroke="#666666" points="914,-56 840,-56 840,-37 914,-37 914,-56"/>
<text text-anchor="middle" x="877" y="-44" font-family="Helvetica,sans-Serif" font-size="10.00">Logger::Info</text>
</a>
</g>
</g>
<!-- Node8&#45;&gt;Node9 -->
<g id="edge10_Node000008_Node000009" class="edge">
<title>Node8&#45;&gt;Node9</title>
<g id="a_edge10_Node000008_Node000009"><a xlink:title=" ">
<path fill="none" stroke="#63b8ff" d="M767.23,-63.98C787.73,-60.69 810.39,-57.04 829.7,-53.94"/>
<polygon fill="#63b8ff" stroke="#63b8ff" points="830.44,-57.37 839.75,-52.33 829.32,-50.46 830.44,-57.37"/>
</a>
</g>
</g>
<!-- Node10 -->
<g id="Node000010" class="node">
<title>Node10</title>
<g id="a_Node000010"><a xlink:href="classLogger.html#aaa95ffa14d07a965d4a85bdec82cba26" target="_top" xlink:title="Log warning message.">
<polygon fill="white" stroke="#666666" points="917,-93 837,-93 837,-74 917,-74 917,-93"/>
<text text-anchor="middle" x="877" y="-81" font-family="Helvetica,sans-Serif" font-size="10.00">Logger::Warn</text>
</a>
</g>
</g>
<!-- Node8&#45;&gt;Node10 -->
<g id="edge13_Node000008_Node000010" class="edge">
<title>Node8&#45;&gt;Node10</title>
<g id="a_edge13_Node000008_Node000010"><a xlink:title=" ">
<path fill="none" stroke="#63b8ff" d="M784.14,-78.03C798.52,-78.89 813.22,-79.76 826.52,-80.55"/>
<polygon fill="#63b8ff" stroke="#63b8ff" points="826.66,-84.07 836.85,-81.17 827.08,-77.08 826.66,-84.07"/>
</a>
</g>
</g>
<!-- Node9&#45;&gt;Node5 -->
<g id="edge11_Node000009_Node000005" class="edge">
<title>Node9&#45;&gt;Node5</title>
<g id="a_edge11_Node000009_Node000005"><a xlink:title=" ">
<path fill="none" stroke="#63b8ff" d="M908.51,-56.01C916.86,-58.84 925.85,-62.1 934,-65.5 950.51,-72.39 953.32,-77.03 970,-83.5 975.07,-85.47 980.45,-87.33 985.85,-89.05"/>
<polygon fill="#63b8ff" stroke="#63b8ff" points="984.92,-92.42 995.51,-91.99 986.96,-85.73 984.92,-92.42"/>
</a>
</g>
</g>
<!-- Node9&#45;&gt;Node6 -->
<g id="edge12_Node000009_Node000006" class="edge">
<title>Node9&#45;&gt;Node6</title>
<g id="a_edge12_Node000009_Node000006"><a xlink:title=" ">
<path fill="none" stroke="#63b8ff" d="M914.07,-50.67C930.49,-52.58 950.44,-54.89 969.3,-57.07"/>
<polygon fill="#63b8ff" stroke="#63b8ff" points="969,-60.56 979.33,-58.23 969.8,-53.6 969,-60.56"/>
</a>
</g>
</g>
<!-- Node10&#45;&gt;Node5 -->
<g id="edge14_Node000010_Node000005" class="edge">
<title>Node10&#45;&gt;Node5</title>
<g id="a_edge14_Node000010_Node000005"><a xlink:title=" ">
<path fill="none" stroke="#63b8ff" d="M917.24,-88.04C930.18,-89.54 945.02,-91.26 959.68,-92.95"/>
<polygon fill="#63b8ff" stroke="#63b8ff" points="959.43,-96.45 969.77,-94.12 960.24,-89.5 959.43,-96.45"/>
</a>
</g>
</g>
<!-- Node10&#45;&gt;Node6 -->
<g id="edge15_Node000010_Node000006" class="edge">
<title>Node10&#45;&gt;Node6</title>
<g id="a_edge15_Node000010_Node000006"><a xlink:title=" ">
<path fill="none" stroke="#63b8ff" d="M917.24,-78.71C932.96,-76.78 951.49,-74.52 969.08,-72.37"/>
<polygon fill="#63b8ff" stroke="#63b8ff" points="969.8,-75.81 979.3,-71.12 968.95,-68.86 969.8,-75.81"/>
</a>
</g>
</g>
</g>
</svg>
