<?xml version="1.0" encoding="UTF-8" standalone="no"?>
<!DOCTYPE svg PUBLIC "-//W3C//DTD SVG 1.1//EN"
 "http://www.w3.org/Graphics/SVG/1.1/DTD/svg11.dtd">
<!-- Generated by graphviz version 2.43.0 (0)
 -->
<!-- Title: Tmc9660Handler::DisableMotor Pages: 1 -->
<svg width="901pt" height="138pt"
 viewBox="0.00 0.00 901.00 138.00" xmlns="http://www.w3.org/2000/svg" xmlns:xlink="http://www.w3.org/1999/xlink">
<g id="graph0" class="graph" transform="scale(1 1) rotate(0) translate(4 134)">
<title>Tmc9660Handler::DisableMotor</title>
<!-- Node1 -->
<g id="Node000001" class="node">
<title>Node1</title>
<g id="a_Node000001"><a xlink:title="Disable the motor driver output stage (coast/brake behavior depends on gate driver configuration).">
<polygon fill="#999999" stroke="#666666" points="171,-77 0,-77 0,-58 171,-58 171,-77"/>
<text text-anchor="middle" x="85.5" y="-65" font-family="Helvetica,sans-Serif" font-size="10.00">Tmc9660Handler::DisableMotor</text>
</a>
</g>
</g>
<!-- Node2 -->
<g id="Node000002" class="node">
<title>Node2</title>
<g id="a_Node000002"><a xlink:href="classTmc9660Handler.html#a5a279ae9d4b5a8e0d71cb24577ad88ea" target="_top" xlink:title="Ensure driver is initialized (lazy init entrypoint).">
<polygon fill="white" stroke="#666666" points="394,-77 207,-77 207,-58 394,-58 394,-77"/>
<text text-anchor="middle" x="300.5" y="-65" font-family="Helvetica,sans-Serif" font-size="10.00">Tmc9660Handler::EnsureInitialized</text>
</a>
</g>
</g>
<!-- Node1&#45;&gt;Node2 -->
<g id="edge1_Node000001_Node000002" class="edge">
<title>Node1&#45;&gt;Node2</title>
<g id="a_edge1_Node000001_Node000002"><a xlink:title=" ">
<path fill="none" stroke="#63b8ff" d="M171.3,-67.5C179.72,-67.5 188.33,-67.5 196.91,-67.5"/>
<polygon fill="#63b8ff" stroke="#63b8ff" points="196.95,-71 206.95,-67.5 196.95,-64 196.95,-71"/>
</a>
</g>
</g>
<!-- Node7 -->
<g id="Node000007" class="node">
<title>Node7</title>
<g id="a_Node000007"><a xlink:href="classLogger.html#a5789d11f8f1356e2192c0023a089cbc4" target="_top" xlink:title="Get singleton instance.">
<polygon fill="white" stroke="#666666" points="728,-19 614,-19 614,0 728,0 728,-19"/>
<text text-anchor="middle" x="671" y="-7" font-family="Helvetica,sans-Serif" font-size="10.00">Logger::GetInstance</text>
</a>
</g>
</g>
<!-- Node1&#45;&gt;Node7 -->
<g id="edge11_Node000001_Node000007" class="edge">
<title>Node1&#45;&gt;Node7</title>
<g id="a_edge11_Node000001_Node000007"><a xlink:title=" ">
<path fill="none" stroke="#63b8ff" d="M142.19,-57.97C162.54,-54.69 185.78,-51.17 207,-48.5 347.84,-30.78 513.82,-19 603.83,-13.36"/>
<polygon fill="#63b8ff" stroke="#63b8ff" points="604.13,-16.85 613.9,-12.73 603.7,-9.86 604.13,-16.85"/>
</a>
</g>
</g>
<!-- Node10 -->
<g id="Node000010" class="node">
<title>Node10</title>
<g id="a_Node000010"><a xlink:href="classLogger.html#aaa95ffa14d07a965d4a85bdec82cba26" target="_top" xlink:title="Log warning message.">
<polygon fill="white" stroke="#666666" points="711,-130 631,-130 631,-111 711,-111 711,-130"/>
<text text-anchor="middle" x="671" y="-118" font-family="Helvetica,sans-Serif" font-size="10.00">Logger::Warn</text>
</a>
</g>
</g>
<!-- Node1&#45;&gt;Node10 -->
<g id="edge12_Node000001_Node000010" class="edge">
<title>Node1&#45;&gt;Node10</title>
<g id="a_edge12_Node000001_Node000010"><a xlink:title=" ">
<path fill="none" stroke="#63b8ff" d="M144.05,-77.01C163.97,-80.18 186.44,-83.64 207,-86.5 305.88,-100.28 330.44,-106.04 430,-113.5 495.83,-118.44 572.07,-119.94 620.64,-120.38"/>
<polygon fill="#63b8ff" stroke="#63b8ff" points="620.84,-123.88 630.87,-120.45 620.89,-116.88 620.84,-123.88"/>
</a>
</g>
</g>
<!-- Node3 -->
<g id="Node000003" class="node">
<title>Node3</title>
<g id="a_Node000003"><a xlink:href="classTmc9660Handler.html#adc564847f8ae26c47412aaee0758991c" target="_top" xlink:title="Initialize the TMC9660 device.">
<polygon fill="white" stroke="#666666" points="578,-56 430,-56 430,-37 578,-37 578,-56"/>
<text text-anchor="middle" x="504" y="-44" font-family="Helvetica,sans-Serif" font-size="10.00">Tmc9660Handler::Initialize</text>
</a>
</g>
</g>
<!-- Node2&#45;&gt;Node3 -->
<g id="edge2_Node000002_Node000003" class="edge">
<title>Node2&#45;&gt;Node3</title>
<g id="a_edge2_Node000002_Node000003"><a xlink:title=" ">
<path fill="none" stroke="#63b8ff" d="M392.82,-57.98C401.82,-57.04 410.92,-56.1 419.84,-55.17"/>
<polygon fill="#63b8ff" stroke="#63b8ff" points="420.23,-58.65 429.81,-54.13 419.5,-51.68 420.23,-58.65"/>
</a>
</g>
</g>
<!-- Node9 -->
<g id="Node000009" class="node">
<title>Node9</title>
<g id="a_Node000009"><a xlink:href="classTmc9660Handler.html#a13db97d201a287d8aa60384e04070b9f" target="_top" xlink:title="Check if the TMC9660 driver has been initialized and is ready.">
<polygon fill="white" stroke="#666666" points="576,-104.5 432,-104.5 432,-74.5 576,-74.5 576,-104.5"/>
<text text-anchor="start" x="440" y="-92.5" font-family="Helvetica,sans-Serif" font-size="10.00">Tmc9660Handler::IsDriver</text>
<text text-anchor="middle" x="504" y="-81.5" font-family="Helvetica,sans-Serif" font-size="10.00">Ready</text>
</a>
</g>
</g>
<!-- Node2&#45;&gt;Node9 -->
<g id="edge10_Node000002_Node000009" class="edge">
<title>Node2&#45;&gt;Node9</title>
<g id="a_edge10_Node000002_Node000009"><a xlink:title=" ">
<path fill="none" stroke="#63b8ff" d="M388.71,-77.02C399.59,-78.21 410.69,-79.42 421.48,-80.6"/>
<polygon fill="#63b8ff" stroke="#63b8ff" points="421.39,-84.11 431.71,-81.72 422.15,-77.15 421.39,-84.11"/>
</a>
</g>
</g>
<!-- Node4 -->
<g id="Node000004" class="node">
<title>Node4</title>
<g id="a_Node000004"><a xlink:href="classLogger.html#adce17848a5844e053bfd314863dc1404" target="_top" xlink:title="Log error message.">
<polygon fill="white" stroke="#666666" points="710.5,-93 631.5,-93 631.5,-74 710.5,-74 710.5,-93"/>
<text text-anchor="middle" x="671" y="-81" font-family="Helvetica,sans-Serif" font-size="10.00">Logger::Error</text>
</a>
</g>
</g>
<!-- Node3&#45;&gt;Node4 -->
<g id="edge3_Node000003_Node000004" class="edge">
<title>Node3&#45;&gt;Node4</title>
<g id="a_edge3_Node000003_Node000004"><a xlink:title=" ">
<path fill="none" stroke="#63b8ff" d="M547.49,-56.03C570.13,-61.11 598.08,-67.37 621.56,-72.64"/>
<polygon fill="#63b8ff" stroke="#63b8ff" points="620.8,-76.05 631.32,-74.83 622.33,-69.22 620.8,-76.05"/>
</a>
</g>
</g>
<!-- Node3&#45;&gt;Node7 -->
<g id="edge6_Node000003_Node000007" class="edge">
<title>Node3&#45;&gt;Node7</title>
<g id="a_edge6_Node000003_Node000007"><a xlink:title=" ">
<path fill="none" stroke="#63b8ff" d="M547.49,-36.97C568.87,-32.18 594.97,-26.32 617.58,-21.25"/>
<polygon fill="#63b8ff" stroke="#63b8ff" points="618.37,-24.66 627.37,-19.06 616.84,-17.83 618.37,-24.66"/>
</a>
</g>
</g>
<!-- Node8 -->
<g id="Node000008" class="node">
<title>Node8</title>
<g id="a_Node000008"><a xlink:href="classLogger.html#a4681229c521795685fc14f6b55c82300" target="_top" xlink:title="Log info message.">
<polygon fill="white" stroke="#666666" points="708,-56 634,-56 634,-37 708,-37 708,-56"/>
<text text-anchor="middle" x="671" y="-44" font-family="Helvetica,sans-Serif" font-size="10.00">Logger::Info</text>
</a>
</g>
</g>
<!-- Node3&#45;&gt;Node8 -->
<g id="edge7_Node000003_Node000008" class="edge">
<title>Node3&#45;&gt;Node8</title>
<g id="a_edge7_Node000003_Node000008"><a xlink:title=" ">
<path fill="none" stroke="#63b8ff" d="M578.33,-46.5C593.7,-46.5 609.49,-46.5 623.54,-46.5"/>
<polygon fill="#63b8ff" stroke="#63b8ff" points="623.92,-50 633.92,-46.5 623.92,-43 623.92,-50"/>
</a>
</g>
</g>
<!-- Node5 -->
<g id="Node000005" class="node">
<title>Node5</title>
<g id="a_Node000005"><a xlink:href="classLogger.html#af9e84e0ff6bd538e4f9ed8dcebc3e2f0" target="_top" xlink:title="Check if log level is enabled for tag.">
<polygon fill="white" stroke="#666666" points="893,-111 764,-111 764,-92 893,-92 893,-111"/>
<text text-anchor="middle" x="828.5" y="-99" font-family="Helvetica,sans-Serif" font-size="10.00">Logger::IsLevelEnabled</text>
</a>
</g>
</g>
<!-- Node4&#45;&gt;Node5 -->
<g id="edge4_Node000004_Node000005" class="edge">
<title>Node4&#45;&gt;Node5</title>
<g id="a_edge4_Node000004_Node000005"><a xlink:title=" ">
<path fill="none" stroke="#63b8ff" d="M710.84,-88C723.85,-89.5 738.82,-91.23 753.6,-92.95"/>
<polygon fill="#63b8ff" stroke="#63b8ff" points="753.44,-96.45 763.78,-94.12 754.25,-89.5 753.44,-96.45"/>
</a>
</g>
</g>
<!-- Node6 -->
<g id="Node000006" class="node">
<title>Node6</title>
<g id="a_Node000006"><a xlink:href="classLogger.html#a6adb205db597526fb91ad20067400394" target="_top" xlink:title="Internal logging method.">
<polygon fill="white" stroke="#666666" points="883.5,-74 773.5,-74 773.5,-55 883.5,-55 883.5,-74"/>
<text text-anchor="middle" x="828.5" y="-62" font-family="Helvetica,sans-Serif" font-size="10.00">Logger::LogInternal</text>
</a>
</g>
</g>
<!-- Node4&#45;&gt;Node6 -->
<g id="edge5_Node000004_Node000006" class="edge">
<title>Node4&#45;&gt;Node6</title>
<g id="a_edge5_Node000004_Node000006"><a xlink:title=" ">
<path fill="none" stroke="#63b8ff" d="M710.84,-78.75C726.63,-76.82 745.31,-74.54 763.03,-72.38"/>
<polygon fill="#63b8ff" stroke="#63b8ff" points="763.83,-75.81 773.33,-71.12 762.98,-68.86 763.83,-75.81"/>
</a>
</g>
</g>
<!-- Node8&#45;&gt;Node5 -->
<g id="edge8_Node000008_Node000005" class="edge">
<title>Node8&#45;&gt;Node5</title>
<g id="a_edge8_Node000008_Node000005"><a xlink:title=" ">
<path fill="none" stroke="#63b8ff" d="M704.58,-56.05C712.34,-58.57 720.53,-61.45 728,-64.5 744.56,-71.26 747.37,-75.91 764,-82.5 769.62,-84.73 775.61,-86.84 781.57,-88.79"/>
<polygon fill="#63b8ff" stroke="#63b8ff" points="780.94,-92.26 791.53,-91.92 783.04,-85.58 780.94,-92.26"/>
</a>
</g>
</g>
<!-- Node8&#45;&gt;Node6 -->
<g id="edge9_Node000008_Node000006" class="edge">
<title>Node8&#45;&gt;Node6</title>
<g id="a_edge9_Node000008_Node000006"><a xlink:title=" ">
<path fill="none" stroke="#63b8ff" d="M708.07,-50.67C724.49,-52.58 744.44,-54.89 763.3,-57.07"/>
<polygon fill="#63b8ff" stroke="#63b8ff" points="763,-60.56 773.33,-58.23 763.8,-53.6 763,-60.56"/>
</a>
</g>
</g>
<!-- Node10&#45;&gt;Node5 -->
<g id="edge13_Node000010_Node000005" class="edge">
<title>Node10&#45;&gt;Node5</title>
<g id="a_edge13_Node000010_Node000005"><a xlink:title=" ">
<path fill="none" stroke="#63b8ff" d="M711.24,-115.71C724.18,-114.12 739.02,-112.31 753.68,-110.52"/>
<polygon fill="#63b8ff" stroke="#63b8ff" points="754.27,-113.97 763.77,-109.29 753.42,-107.03 754.27,-113.97"/>
</a>
</g>
</g>
<!-- Node10&#45;&gt;Node6 -->
<g id="edge14_Node000010_Node000006" class="edge">
<title>Node10&#45;&gt;Node6</title>
<g id="a_edge14_Node000010_Node000006"><a xlink:title=" ">
<path fill="none" stroke="#63b8ff" d="M705.27,-110.99C712.84,-108.5 720.79,-105.63 728,-102.5 744.79,-95.22 747.08,-89.49 764,-82.5 768.71,-80.55 773.7,-78.74 778.73,-77.07"/>
<polygon fill="#63b8ff" stroke="#63b8ff" points="779.9,-80.38 788.4,-74.05 777.81,-73.7 779.9,-80.38"/>
</a>
</g>
</g>
</g>
</svg>
