<?xml version="1.0" encoding="UTF-8" standalone="no"?>
<!DOCTYPE svg PUBLIC "-//W3C//DTD SVG 1.1//EN"
 "http://www.w3.org/Graphics/SVG/1.1/DTD/svg11.dtd">
<!-- Generated by graphviz version 2.43.0 (0)
 -->
<!-- Title: Pca9685Handler::ensureInitializedLocked Pages: 1 -->
<svg width="571pt" height="115pt"
 viewBox="0.00 0.00 571.00 114.50" xmlns="http://www.w3.org/2000/svg" xmlns:xlink="http://www.w3.org/1999/xlink">
<g id="graph0" class="graph" transform="scale(1 1) rotate(0) translate(4 110.5)">
<title>Pca9685Handler::ensureInitializedLocked</title>
<!-- Node1 -->
<g id="Node000001" class="node">
<title>Node1</title>
<g id="a_Node000001"><a xlink:title="Check init under already&#45;held handler_mutex_.">
<polygon fill="#999999" stroke="#666666" points="563,-75 380,-75 380,-45 563,-45 563,-75"/>
<text text-anchor="start" x="388" y="-63" font-family="Helvetica,sans-Serif" font-size="10.00">Pca9685Handler::ensureInitialized</text>
<text text-anchor="middle" x="471.5" y="-52" font-family="Helvetica,sans-Serif" font-size="10.00">Locked</text>
</a>
</g>
</g>
<!-- Node2 -->
<g id="Node000002" class="node">
<title>Node2</title>
<g id="a_Node000002"><a xlink:href="classPca9685Handler.html#a3f5b93ead4b85c137c94a0d0e8d9bb12" target="_top" xlink:title="Get or create the BasePwm adapter for all 16 channels.">
<polygon fill="white" stroke="#666666" points="344,-106.5 162,-106.5 162,-87.5 344,-87.5 344,-106.5"/>
<text text-anchor="middle" x="253" y="-94.5" font-family="Helvetica,sans-Serif" font-size="10.00">Pca9685Handler::GetPwmAdapter</text>
</a>
</g>
</g>
<!-- Node1&#45;&gt;Node2 -->
<g id="edge1_Node000001_Node000002" class="edge">
<title>Node1&#45;&gt;Node2</title>
<g id="a_edge1_Node000001_Node000002"><a xlink:title=" ">
<path fill="none" stroke="#63b8ff" d="M372.58,-76.73C351.01,-80.42 328.89,-84.2 309.68,-87.48"/>
<polygon fill="#63b8ff" stroke="#63b8ff" points="373.17,-80.18 382.44,-75.05 371.99,-73.28 373.17,-80.18"/>
</a>
</g>
</g>
<!-- Node3 -->
<g id="Node000003" class="node">
<title>Node3</title>
<g id="a_Node000003"><a xlink:href="classPca9685Handler.html#a989c4b1a8260c7af0bf210103d13cc7b" target="_top" xlink:title="Put PCA9685 into low&#45;power sleep mode.">
<polygon fill="white" stroke="#666666" points="317.5,-69.5 188.5,-69.5 188.5,-50.5 317.5,-50.5 317.5,-69.5"/>
<text text-anchor="middle" x="253" y="-57.5" font-family="Helvetica,sans-Serif" font-size="10.00">Pca9685Handler::Sleep</text>
</a>
</g>
</g>
<!-- Node1&#45;&gt;Node3 -->
<g id="edge2_Node000001_Node000003" class="edge">
<title>Node1&#45;&gt;Node3</title>
<g id="a_edge2_Node000001_Node000003"><a xlink:title=" ">
<path fill="none" stroke="#63b8ff" d="M369.56,-60C351.85,-60 333.88,-60 317.55,-60"/>
<polygon fill="#63b8ff" stroke="#63b8ff" points="369.94,-63.5 379.94,-60 369.94,-56.5 369.94,-63.5"/>
</a>
</g>
</g>
<!-- Node5 -->
<g id="Node000005" class="node">
<title>Node5</title>
<g id="a_Node000005"><a xlink:href="classPca9685Handler.html#abfea96039e525e253d0eab9234cdfa5f" target="_top" xlink:title="Wake PCA9685 from sleep mode.">
<polygon fill="white" stroke="#666666" points="317,-29.5 189,-29.5 189,-10.5 317,-10.5 317,-29.5"/>
<text text-anchor="middle" x="253" y="-17.5" font-family="Helvetica,sans-Serif" font-size="10.00">Pca9685Handler::Wake</text>
</a>
</g>
</g>
<!-- Node1&#45;&gt;Node5 -->
<g id="edge4_Node000001_Node000005" class="edge">
<title>Node1&#45;&gt;Node5</title>
<g id="a_edge4_Node000001_Node000005"><a xlink:title=" ">
<path fill="none" stroke="#63b8ff" d="M379.3,-43.15C354.08,-38.49 327.59,-33.6 305.5,-29.51"/>
<polygon fill="#63b8ff" stroke="#63b8ff" points="378.8,-46.62 389.27,-44.99 380.07,-39.73 378.8,-46.62"/>
</a>
</g>
</g>
<!-- Node4 -->
<g id="Node000004" class="node">
<title>Node4</title>
<g id="a_Node000004"><a xlink:href="classPca9685PwmAdapter.html#a825a19eb0b16cbf9ebb93a7b6da115d8" target="_top" xlink:title="Put the PCA9685 into sleep mode (stop all outputs).">
<polygon fill="white" stroke="#666666" points="126,-78 0,-78 0,-48 126,-48 126,-78"/>
<text text-anchor="start" x="8" y="-66" font-family="Helvetica,sans-Serif" font-size="10.00">Pca9685PwmAdapter::</text>
<text text-anchor="middle" x="63" y="-55" font-family="Helvetica,sans-Serif" font-size="10.00">StopAll</text>
</a>
</g>
</g>
<!-- Node3&#45;&gt;Node4 -->
<g id="edge3_Node000003_Node000004" class="edge">
<title>Node3&#45;&gt;Node4</title>
<g id="a_edge3_Node000003_Node000004"><a xlink:title=" ">
<path fill="none" stroke="#63b8ff" d="M178.35,-61.18C161.14,-61.45 142.97,-61.74 126.31,-62.01"/>
<polygon fill="#63b8ff" stroke="#63b8ff" points="178.41,-64.67 188.35,-61.02 178.3,-57.68 178.41,-64.67"/>
</a>
</g>
</g>
<!-- Node6 -->
<g id="Node000006" class="node">
<title>Node6</title>
<g id="a_Node000006"><a xlink:href="classPca9685PwmAdapter.html#aabd9412420647133c10651ec3caed0d4" target="_top" xlink:title="Wake the PCA9685 from sleep (start all channels).">
<polygon fill="white" stroke="#666666" points="126,-30 0,-30 0,0 126,0 126,-30"/>
<text text-anchor="start" x="8" y="-18" font-family="Helvetica,sans-Serif" font-size="10.00">Pca9685PwmAdapter::</text>
<text text-anchor="middle" x="63" y="-7" font-family="Helvetica,sans-Serif" font-size="10.00">StartAll</text>
</a>
</g>
</g>
<!-- Node5&#45;&gt;Node6 -->
<g id="edge5_Node000005_Node000006" class="edge">
<title>Node5&#45;&gt;Node6</title>
<g id="a_edge5_Node000005_Node000006"><a xlink:title=" ">
<path fill="none" stroke="#63b8ff" d="M178.8,-18.05C161.46,-17.59 143.12,-17.1 126.32,-16.66"/>
<polygon fill="#63b8ff" stroke="#63b8ff" points="178.79,-21.55 188.88,-18.32 178.97,-14.56 178.79,-21.55"/>
</a>
</g>
</g>
</g>
</svg>
