<?xml version="1.0" encoding="UTF-8" standalone="no"?>
<!DOCTYPE svg PUBLIC "-//W3C//DTD SVG 1.1//EN"
 "http://www.w3.org/Graphics/SVG/1.1/DTD/svg11.dtd">
<!-- Generated by graphviz version 2.43.0 (0)
 -->
<!-- Title: AlicatBasis2Handler::DiscoverAcrossBauds Pages: 1 -->
<svg width="307pt" height="67pt"
 viewBox="0.00 0.00 307.00 67.00" xmlns="http://www.w3.org/2000/svg" xmlns:xlink="http://www.w3.org/1999/xlink">
<g id="graph0" class="graph" transform="scale(1 1) rotate(0) translate(4 63)">
<title>AlicatBasis2Handler::DiscoverAcrossBauds</title>
<!-- Node1 -->
<g id="Node000001" class="node">
<title>Node1</title>
<g id="a_Node000001"><a xlink:title="Sweep multiple baud rates, returning every BASIS&#45;2 found on the bus along with the baud rate it answe...">
<polygon fill="#999999" stroke="#666666" points="128,-35.5 0,-35.5 0,-5.5 128,-5.5 128,-35.5"/>
<text text-anchor="start" x="8" y="-23.5" font-family="Helvetica,sans-Serif" font-size="10.00">AlicatBasis2Handler</text>
<text text-anchor="middle" x="64" y="-12.5" font-family="Helvetica,sans-Serif" font-size="10.00">::DiscoverAcrossBauds</text>
</a>
</g>
</g>
<!-- Node2 -->
<g id="Node000002" class="node">
<title>Node2</title>
<g id="a_Node000002"><a xlink:href="namespaceanonymous__namespace_02AlicatBasis2Handler_8cpp_03.html#ac74ab57c3bd5279c52f56c677d73730d" target="_top" xlink:title=" ">
<polygon fill="white" stroke="#666666" points="299,-41 164,-41 164,0 299,0 299,-41"/>
<text text-anchor="start" x="172" y="-29" font-family="Helvetica,sans-Serif" font-size="10.00">anonymous_namespace</text>
<text text-anchor="start" x="172" y="-18" font-family="Helvetica,sans-Serif" font-size="10.00">{AlicatBasis2Handler</text>
<text text-anchor="middle" x="231.5" y="-7" font-family="Helvetica,sans-Serif" font-size="10.00">::cpp}::SetBitmap</text>
</a>
</g>
</g>
<!-- Node1&#45;&gt;Node2 -->
<g id="edge1_Node000001_Node000002" class="edge">
<title>Node1&#45;&gt;Node2</title>
<g id="a_edge1_Node000001_Node000002"><a xlink:title=" ">
<path fill="none" stroke="#63b8ff" d="M128.04,-20.5C136.44,-20.5 145.14,-20.5 153.74,-20.5"/>
<polygon fill="#63b8ff" stroke="#63b8ff" points="153.78,-24 163.78,-20.5 153.78,-17 153.78,-24"/>
</a>
</g>
</g>
<!-- Node2&#45;&gt;Node2 -->
<g id="edge2_Node000002_Node000002" class="edge">
<title>Node2&#45;&gt;Node2</title>
<g id="a_edge2_Node000002_Node000002"><a xlink:title=" ">
<path fill="none" stroke="#63b8ff" d="M200.99,-41.1C197.66,-50.65 207.83,-59 231.5,-59 246.29,-59 255.81,-55.74 260.06,-50.96"/>
<polygon fill="#63b8ff" stroke="#63b8ff" points="263.5,-51.59 262.01,-41.1 256.64,-50.23 263.5,-51.59"/>
</a>
</g>
</g>
</g>
</svg>
