<?xml version="1.0" encoding="UTF-8" standalone="no"?>
<!DOCTYPE svg PUBLIC "-//W3C//DTD SVG 1.1//EN"
 "http://www.w3.org/Graphics/SVG/1.1/DTD/svg11.dtd">
<!-- Generated by graphviz version 2.43.0 (0)
 -->
<!-- Title: Tmc9660AdcWrapper::GetMaxChannels Pages: 1 -->
<svg width="1220pt" height="135pt"
 viewBox="0.00 0.00 1220.00 134.50" xmlns="http://www.w3.org/2000/svg" xmlns:xlink="http://www.w3.org/1999/xlink">
<g id="graph0" class="graph" transform="scale(1 1) rotate(0) translate(4 130.5)">
<title>Tmc9660AdcWrapper::GetMaxChannels</title>
<!-- Node1 -->
<g id="Node000001" class="node">
<title>Node1</title>
<g id="a_Node000001"><a xlink:title=" ">
<polygon fill="#999999" stroke="#666666" points="127,-51 0,-51 0,-21 127,-21 127,-51"/>
<text text-anchor="start" x="8" y="-39" font-family="Helvetica,sans-Serif" font-size="10.00">Tmc9660AdcWrapper::</text>
<text text-anchor="middle" x="63.5" y="-28" font-family="Helvetica,sans-Serif" font-size="10.00">GetMaxChannels</text>
</a>
</g>
</g>
<!-- Node2 -->
<g id="Node000002" class="node">
<title>Node2</title>
<g id="a_Node000002"><a xlink:href="classTmc9660Handler.html#a7fe382c4dbf6bf84ed31586e52ec2e6e" target="_top" xlink:title="Get a reference to the ADC wrapper.">
<polygon fill="white" stroke="#666666" points="286.5,-67.5 163.5,-67.5 163.5,-48.5 286.5,-48.5 286.5,-67.5"/>
<text text-anchor="middle" x="225" y="-55.5" font-family="Helvetica,sans-Serif" font-size="10.00">Tmc9660Handler::adc</text>
</a>
</g>
</g>
<!-- Node1&#45;&gt;Node2 -->
<g id="edge1_Node000001_Node000002" class="edge">
<title>Node1&#45;&gt;Node2</title>
<g id="a_edge1_Node000001_Node000002"><a xlink:title=" ">
<path fill="none" stroke="#63b8ff" d="M127.08,-44.63C135.67,-45.82 144.55,-47.04 153.27,-48.24"/>
<polygon fill="#63b8ff" stroke="#63b8ff" points="153.04,-51.75 163.43,-49.65 154,-44.81 153.04,-51.75"/>
</a>
</g>
</g>
<!-- Node12 -->
<g id="Node000012" class="node">
<title>Node12</title>
<g id="a_Node000012"><a xlink:href="classTmc9660Handler_1_1Adc.html#a54138fdf832c471ce109a7c19521d27b" target="_top" xlink:title="Returns the total number of readable channels (15).">
<polygon fill="white" stroke="#666666" points="287,-30 163,-30 163,0 287,0 287,-30"/>
<text text-anchor="start" x="171" y="-18" font-family="Helvetica,sans-Serif" font-size="10.00">Tmc9660Handler::Adc</text>
<text text-anchor="middle" x="225" y="-7" font-family="Helvetica,sans-Serif" font-size="10.00">::GetMaxChannels</text>
</a>
</g>
</g>
<!-- Node1&#45;&gt;Node12 -->
<g id="edge15_Node000001_Node000012" class="edge">
<title>Node1&#45;&gt;Node12</title>
<g id="a_edge15_Node000001_Node000012"><a xlink:title=" ">
<path fill="none" stroke="#63b8ff" d="M127.08,-27.76C135.55,-26.65 144.29,-25.49 152.89,-24.36"/>
<polygon fill="#63b8ff" stroke="#63b8ff" points="153.45,-27.82 162.91,-23.04 152.53,-20.88 153.45,-27.82"/>
</a>
</g>
</g>
<!-- Node3 -->
<g id="Node000003" class="node">
<title>Node3</title>
<g id="a_Node000003"><a xlink:href="classTmc9660Handler.html#a5a279ae9d4b5a8e0d71cb24577ad88ea" target="_top" xlink:title="Ensure driver is initialized (lazy init entrypoint).">
<polygon fill="white" stroke="#666666" points="713,-67.5 526,-67.5 526,-48.5 713,-48.5 713,-67.5"/>
<text text-anchor="middle" x="619.5" y="-55.5" font-family="Helvetica,sans-Serif" font-size="10.00">Tmc9660Handler::EnsureInitialized</text>
</a>
</g>
</g>
<!-- Node2&#45;&gt;Node3 -->
<g id="edge2_Node000002_Node000003" class="edge">
<title>Node2&#45;&gt;Node3</title>
<g id="a_edge2_Node000002_Node000003"><a xlink:title=" ">
<path fill="none" stroke="#63b8ff" d="M286.74,-64.5C298.74,-65.54 311.26,-66.46 323,-67 397.14,-70.43 415.82,-69.59 490,-67 498.35,-66.71 507.01,-66.31 515.69,-65.84"/>
<polygon fill="#63b8ff" stroke="#63b8ff" points="516.11,-69.32 525.89,-65.26 515.71,-62.33 516.11,-69.32"/>
</a>
</g>
</g>
<!-- Node11 -->
<g id="Node000011" class="node">
<title>Node11</title>
<g id="a_Node000011"><a xlink:href="classTmc9660Handler.html#a393382194d0602e7aa02da6a8fd7a20a" target="_top" xlink:title="Get a reference to the Temperature wrapper.">
<polygon fill="white" stroke="#666666" points="490,-39.5 323,-39.5 323,-20.5 490,-20.5 490,-39.5"/>
<text text-anchor="middle" x="406.5" y="-27.5" font-family="Helvetica,sans-Serif" font-size="10.00">Tmc9660Handler::temperature</text>
</a>
</g>
</g>
<!-- Node2&#45;&gt;Node11 -->
<g id="edge12_Node000002_Node000011" class="edge">
<title>Node2&#45;&gt;Node11</title>
<g id="a_edge12_Node000002_Node000011"><a xlink:title=" ">
<path fill="none" stroke="#63b8ff" d="M286.77,-48.52C302.04,-46.14 318.56,-43.56 334.29,-41.11"/>
<polygon fill="#63b8ff" stroke="#63b8ff" points="335.15,-44.52 344.49,-39.52 334.07,-37.6 335.15,-44.52"/>
</a>
</g>
</g>
<!-- Node4 -->
<g id="Node000004" class="node">
<title>Node4</title>
<g id="a_Node000004"><a xlink:href="classTmc9660Handler.html#adc564847f8ae26c47412aaee0758991c" target="_top" xlink:title="Initialize the TMC9660 device.">
<polygon fill="white" stroke="#666666" points="897,-89.5 749,-89.5 749,-70.5 897,-70.5 897,-89.5"/>
<text text-anchor="middle" x="823" y="-77.5" font-family="Helvetica,sans-Serif" font-size="10.00">Tmc9660Handler::Initialize</text>
</a>
</g>
</g>
<!-- Node3&#45;&gt;Node4 -->
<g id="edge3_Node000003_Node000004" class="edge">
<title>Node3&#45;&gt;Node4</title>
<g id="a_edge3_Node000003_Node000004"><a xlink:title=" ">
<path fill="none" stroke="#63b8ff" d="M707.71,-67.52C718,-68.65 728.48,-69.79 738.72,-70.91"/>
<polygon fill="#63b8ff" stroke="#63b8ff" points="738.53,-74.41 748.85,-72.01 739.29,-67.45 738.53,-74.41"/>
</a>
</g>
</g>
<!-- Node10 -->
<g id="Node000010" class="node">
<title>Node10</title>
<g id="a_Node000010"><a xlink:href="classTmc9660Handler.html#a13db97d201a287d8aa60384e04070b9f" target="_top" xlink:title="Check if the TMC9660 driver has been initialized and is ready.">
<polygon fill="white" stroke="#666666" points="895,-52 751,-52 751,-22 895,-22 895,-52"/>
<text text-anchor="start" x="759" y="-40" font-family="Helvetica,sans-Serif" font-size="10.00">Tmc9660Handler::IsDriver</text>
<text text-anchor="middle" x="823" y="-29" font-family="Helvetica,sans-Serif" font-size="10.00">Ready</text>
</a>
</g>
</g>
<!-- Node3&#45;&gt;Node10 -->
<g id="edge11_Node000003_Node000010" class="edge">
<title>Node3&#45;&gt;Node10</title>
<g id="a_edge11_Node000003_Node000010"><a xlink:title=" ">
<path fill="none" stroke="#63b8ff" d="M711.82,-48.48C721.45,-47.48 731.2,-46.46 740.71,-45.47"/>
<polygon fill="#63b8ff" stroke="#63b8ff" points="741.34,-48.93 750.92,-44.41 740.61,-41.96 741.34,-48.93"/>
</a>
</g>
</g>
<!-- Node5 -->
<g id="Node000005" class="node">
<title>Node5</title>
<g id="a_Node000005"><a xlink:href="classLogger.html#adce17848a5844e053bfd314863dc1404" target="_top" xlink:title="Log error message.">
<polygon fill="white" stroke="#666666" points="1029.5,-89.5 950.5,-89.5 950.5,-70.5 1029.5,-70.5 1029.5,-89.5"/>
<text text-anchor="middle" x="990" y="-77.5" font-family="Helvetica,sans-Serif" font-size="10.00">Logger::Error</text>
</a>
</g>
</g>
<!-- Node4&#45;&gt;Node5 -->
<g id="edge4_Node000004_Node000005" class="edge">
<title>Node4&#45;&gt;Node5</title>
<g id="a_edge4_Node000004_Node000005"><a xlink:title=" ">
<path fill="none" stroke="#63b8ff" d="M897.33,-80C911.73,-80 926.5,-80 939.87,-80"/>
<polygon fill="#63b8ff" stroke="#63b8ff" points="940.26,-83.5 950.26,-80 940.26,-76.5 940.26,-83.5"/>
</a>
</g>
</g>
<!-- Node8 -->
<g id="Node000008" class="node">
<title>Node8</title>
<g id="a_Node000008"><a xlink:href="classLogger.html#a5789d11f8f1356e2192c0023a089cbc4" target="_top" xlink:title="Get singleton instance.">
<polygon fill="white" stroke="#666666" points="1047,-52.5 933,-52.5 933,-33.5 1047,-33.5 1047,-52.5"/>
<text text-anchor="middle" x="990" y="-40.5" font-family="Helvetica,sans-Serif" font-size="10.00">Logger::GetInstance</text>
</a>
</g>
</g>
<!-- Node4&#45;&gt;Node8 -->
<g id="edge7_Node000004_Node000008" class="edge">
<title>Node4&#45;&gt;Node8</title>
<g id="a_edge7_Node000004_Node000008"><a xlink:title=" ">
<path fill="none" stroke="#63b8ff" d="M866.49,-70.47C887.87,-65.68 913.97,-59.82 936.58,-54.75"/>
<polygon fill="#63b8ff" stroke="#63b8ff" points="937.37,-58.16 946.37,-52.56 935.84,-51.33 937.37,-58.16"/>
</a>
</g>
</g>
<!-- Node9 -->
<g id="Node000009" class="node">
<title>Node9</title>
<g id="a_Node000009"><a xlink:href="classLogger.html#a4681229c521795685fc14f6b55c82300" target="_top" xlink:title="Log info message.">
<polygon fill="white" stroke="#666666" points="1027,-126.5 953,-126.5 953,-107.5 1027,-107.5 1027,-126.5"/>
<text text-anchor="middle" x="990" y="-114.5" font-family="Helvetica,sans-Serif" font-size="10.00">Logger::Info</text>
</a>
</g>
</g>
<!-- Node4&#45;&gt;Node9 -->
<g id="edge8_Node000004_Node000009" class="edge">
<title>Node4&#45;&gt;Node9</title>
<g id="a_edge8_Node000004_Node000009"><a xlink:title=" ">
<path fill="none" stroke="#63b8ff" d="M866.49,-89.53C889.89,-94.77 918.94,-101.29 942.89,-106.66"/>
<polygon fill="#63b8ff" stroke="#63b8ff" points="942.28,-110.11 952.8,-108.88 943.81,-103.28 942.28,-110.11"/>
</a>
</g>
</g>
<!-- Node6 -->
<g id="Node000006" class="node">
<title>Node6</title>
<g id="a_Node000006"><a xlink:href="classLogger.html#af9e84e0ff6bd538e4f9ed8dcebc3e2f0" target="_top" xlink:title="Check if log level is enabled for tag.">
<polygon fill="white" stroke="#666666" points="1212,-126.5 1083,-126.5 1083,-107.5 1212,-107.5 1212,-126.5"/>
<text text-anchor="middle" x="1147.5" y="-114.5" font-family="Helvetica,sans-Serif" font-size="10.00">Logger::IsLevelEnabled</text>
</a>
</g>
</g>
<!-- Node5&#45;&gt;Node6 -->
<g id="edge5_Node000005_Node000006" class="edge">
<title>Node5&#45;&gt;Node6</title>
<g id="a_edge5_Node000005_Node000006"><a xlink:title=" ">
<path fill="none" stroke="#63b8ff" d="M1029.84,-89.24C1050.03,-94.05 1074.94,-99.97 1096.55,-105.11"/>
<polygon fill="#63b8ff" stroke="#63b8ff" points="1096,-108.58 1106.53,-107.49 1097.62,-101.77 1096,-108.58"/>
</a>
</g>
</g>
<!-- Node7 -->
<g id="Node000007" class="node">
<title>Node7</title>
<g id="a_Node000007"><a xlink:href="classLogger.html#a6adb205db597526fb91ad20067400394" target="_top" xlink:title="Internal logging method.">
<polygon fill="white" stroke="#666666" points="1202.5,-89.5 1092.5,-89.5 1092.5,-70.5 1202.5,-70.5 1202.5,-89.5"/>
<text text-anchor="middle" x="1147.5" y="-77.5" font-family="Helvetica,sans-Serif" font-size="10.00">Logger::LogInternal</text>
</a>
</g>
</g>
<!-- Node5&#45;&gt;Node7 -->
<g id="edge6_Node000005_Node000007" class="edge">
<title>Node5&#45;&gt;Node7</title>
<g id="a_edge6_Node000005_Node000007"><a xlink:title=" ">
<path fill="none" stroke="#63b8ff" d="M1029.84,-80C1045.63,-80 1064.31,-80 1082.03,-80"/>
<polygon fill="#63b8ff" stroke="#63b8ff" points="1082.33,-83.5 1092.33,-80 1082.33,-76.5 1082.33,-83.5"/>
</a>
</g>
</g>
<!-- Node9&#45;&gt;Node6 -->
<g id="edge9_Node000009_Node000006" class="edge">
<title>Node9&#45;&gt;Node6</title>
<g id="a_edge9_Node000009_Node000006"><a xlink:title=" ">
<path fill="none" stroke="#63b8ff" d="M1027.07,-117C1040.68,-117 1056.72,-117 1072.55,-117"/>
<polygon fill="#63b8ff" stroke="#63b8ff" points="1072.89,-120.5 1082.89,-117 1072.89,-113.5 1072.89,-120.5"/>
</a>
</g>
</g>
<!-- Node9&#45;&gt;Node7 -->
<g id="edge10_Node000009_Node000007" class="edge">
<title>Node9&#45;&gt;Node7</title>
<g id="a_edge10_Node000009_Node000007"><a xlink:title=" ">
<path fill="none" stroke="#63b8ff" d="M1027.07,-108.42C1047.78,-103.49 1074.09,-97.23 1096.74,-91.84"/>
<polygon fill="#63b8ff" stroke="#63b8ff" points="1097.61,-95.23 1106.53,-89.51 1095.99,-88.42 1097.61,-95.23"/>
</a>
</g>
</g>
<!-- Node11&#45;&gt;Node3 -->
<g id="edge13_Node000011_Node000003" class="edge">
<title>Node11&#45;&gt;Node3</title>
<g id="a_edge13_Node000011_Node000003"><a xlink:title=" ">
<path fill="none" stroke="#63b8ff" d="M479.23,-39.52C497.66,-41.96 517.63,-44.61 536.54,-47.12"/>
<polygon fill="#63b8ff" stroke="#63b8ff" points="536.24,-50.61 546.61,-48.46 537.16,-43.68 536.24,-50.61"/>
</a>
</g>
</g>
<!-- Node11&#45;&gt;Node11 -->
<g id="edge14_Node000011_Node000011" class="edge">
<title>Node11&#45;&gt;Node11</title>
<g id="a_edge14_Node000011_Node000011"><a xlink:title=" ">
<path fill="none" stroke="#63b8ff" d="M378.76,-39.58C365.26,-48.23 374.51,-57.5 406.5,-57.5 427.99,-57.5 439.22,-53.32 440.18,-47.95"/>
<polygon fill="#63b8ff" stroke="#63b8ff" points="442.89,-45.71 434.24,-39.58 437.18,-49.76 442.89,-45.71"/>
</a>
</g>
</g>
</g>
</svg>
