<?xml version="1.0" encoding="UTF-8" standalone="no"?>
<!DOCTYPE svg PUBLIC "-//W3C//DTD SVG 1.1//EN"
 "http://www.w3.org/Graphics/SVG/1.1/DTD/svg11.dtd">
<!-- Generated by graphviz version 2.43.0 (0)
 -->
<!-- Title: Max22200Handler::GetDriver Pages: 1 -->
<svg width="1096pt" height="138pt"
 viewBox="0.00 0.00 1096.00 138.00" xmlns="http://www.w3.org/2000/svg" xmlns:xlink="http://www.w3.org/1999/xlink">
<g id="graph0" class="graph" transform="scale(1 1) rotate(0) translate(4 134)">
<title>Max22200Handler::GetDriver</title>
<!-- Node1 -->
<g id="Node000001" class="node">
<title>Node1</title>
<g id="a_Node000001"><a xlink:title=" ">
<polygon fill="#999999" stroke="#666666" points="159,-83 0,-83 0,-64 159,-64 159,-83"/>
<text text-anchor="middle" x="79.5" y="-71" font-family="Helvetica,sans-Serif" font-size="10.00">Max22200Handler::GetDriver</text>
</a>
</g>
</g>
<!-- Node2 -->
<g id="Node000002" class="node">
<title>Node2</title>
<g id="a_Node000002"><a xlink:href="classMax22200Handler.html#a001e00b9d9a02611b51951f16bcb78d1" target="_top" xlink:title="Get the underlying driver for advanced operations.">
<polygon fill="white" stroke="#666666" points="354,-83 195,-83 195,-64 354,-64 354,-83"/>
<text text-anchor="middle" x="274.5" y="-71" font-family="Helvetica,sans-Serif" font-size="10.00">Max22200Handler::GetDriver</text>
</a>
</g>
</g>
<!-- Node1&#45;&gt;Node2 -->
<g id="edge1_Node000001_Node000002" class="edge">
<title>Node1&#45;&gt;Node2</title>
<g id="a_edge1_Node000001_Node000002"><a xlink:title=" ">
<path fill="none" stroke="#63b8ff" d="M159,-73.5C167.48,-73.5 176.14,-73.5 184.73,-73.5"/>
<polygon fill="#63b8ff" stroke="#63b8ff" points="184.76,-77 194.76,-73.5 184.76,-70 184.76,-77"/>
</a>
</g>
</g>
<!-- Node3 -->
<g id="Node000003" class="node">
<title>Node3</title>
<g id="a_Node000003"><a xlink:href="classMax22200Handler.html#aa00edacb247660349767fa4521121104" target="_top" xlink:title=" ">
<polygon fill="white" stroke="#666666" points="583,-88.5 390,-88.5 390,-58.5 583,-58.5 583,-88.5"/>
<text text-anchor="start" x="398" y="-76.5" font-family="Helvetica,sans-Serif" font-size="10.00">Max22200Handler::EnsureInitialized</text>
<text text-anchor="middle" x="486.5" y="-65.5" font-family="Helvetica,sans-Serif" font-size="10.00">Locked</text>
</a>
</g>
</g>
<!-- Node2&#45;&gt;Node3 -->
<g id="edge2_Node000002_Node000003" class="edge">
<title>Node2&#45;&gt;Node3</title>
<g id="a_edge2_Node000002_Node000003"><a xlink:title=" ">
<path fill="none" stroke="#63b8ff" d="M354.29,-73.5C362.66,-73.5 371.26,-73.5 379.87,-73.5"/>
<polygon fill="#63b8ff" stroke="#63b8ff" points="379.96,-77 389.96,-73.5 379.96,-70 379.96,-77"/>
</a>
</g>
</g>
<!-- Node4 -->
<g id="Node000004" class="node">
<title>Node4</title>
<g id="a_Node000004"><a xlink:href="classLogger.html#a5e4bcdaea60b9ac227b564d780388769" target="_top" xlink:title="Log error message.">
<polygon fill="white" stroke="#666666" points="905.5,-130 826.5,-130 826.5,-111 905.5,-111 905.5,-130"/>
<text text-anchor="middle" x="866" y="-118" font-family="Helvetica,sans-Serif" font-size="10.00">Logger::Error</text>
</a>
</g>
</g>
<!-- Node3&#45;&gt;Node4 -->
<g id="edge3_Node000003_Node000004" class="edge">
<title>Node3&#45;&gt;Node4</title>
<g id="a_edge3_Node000003_Node000004"><a xlink:title=" ">
<path fill="none" stroke="#63b8ff" d="M583.33,-87.69C595.34,-89.37 607.45,-91.01 619,-92.5 687.26,-101.31 766.36,-110.06 816.04,-115.37"/>
<polygon fill="#63b8ff" stroke="#63b8ff" points="815.87,-118.87 826.18,-116.45 816.61,-111.91 815.87,-118.87"/>
</a>
</g>
</g>
<!-- Node7 -->
<g id="Node000007" class="node">
<title>Node7</title>
<g id="a_Node000007"><a xlink:href="classLogger.html#a5789d11f8f1356e2192c0023a089cbc4" target="_top" xlink:title="Get singleton instance.">
<polygon fill="white" stroke="#666666" points="923,-19 809,-19 809,0 923,0 923,-19"/>
<text text-anchor="middle" x="866" y="-7" font-family="Helvetica,sans-Serif" font-size="10.00">Logger::GetInstance</text>
</a>
</g>
</g>
<!-- Node3&#45;&gt;Node7 -->
<g id="edge6_Node000003_Node000007" class="edge">
<title>Node3&#45;&gt;Node7</title>
<g id="a_edge6_Node000003_Node000007"><a xlink:title=" ">
<path fill="none" stroke="#63b8ff" d="M576.01,-58.49C644.23,-46.93 737.08,-31.19 798.92,-20.7"/>
<polygon fill="#63b8ff" stroke="#63b8ff" points="799.68,-24.12 808.95,-19 798.51,-17.22 799.68,-24.12"/>
</a>
</g>
</g>
<!-- Node8 -->
<g id="Node000008" class="node">
<title>Node8</title>
<g id="a_Node000008"><a xlink:href="classMax22200Handler.html#ad6c72b45a96c36cd1b450f5e330fad25" target="_top" xlink:title="Initialize driver (ENABLE HIGH, read/clear STATUS, set ACTIVE).">
<polygon fill="white" stroke="#666666" points="773,-83 619,-83 619,-64 773,-64 773,-83"/>
<text text-anchor="middle" x="696" y="-71" font-family="Helvetica,sans-Serif" font-size="10.00">Max22200Handler::Initialize</text>
</a>
</g>
</g>
<!-- Node3&#45;&gt;Node8 -->
<g id="edge7_Node000003_Node000008" class="edge">
<title>Node3&#45;&gt;Node8</title>
<g id="a_edge7_Node000003_Node000008"><a xlink:title=" ">
<path fill="none" stroke="#63b8ff" d="M583.05,-73.5C591.6,-73.5 600.22,-73.5 608.68,-73.5"/>
<polygon fill="#63b8ff" stroke="#63b8ff" points="608.9,-77 618.9,-73.5 608.9,-70 608.9,-77"/>
</a>
</g>
</g>
<!-- Node5 -->
<g id="Node000005" class="node">
<title>Node5</title>
<g id="a_Node000005"><a xlink:href="classLogger.html#a737b981213c02321a5235848334d7191" target="_top" xlink:title="Check if log level is enabled for tag.">
<polygon fill="white" stroke="#666666" points="1088,-111 959,-111 959,-92 1088,-92 1088,-111"/>
<text text-anchor="middle" x="1023.5" y="-99" font-family="Helvetica,sans-Serif" font-size="10.00">Logger::IsLevelEnabled</text>
</a>
</g>
</g>
<!-- Node4&#45;&gt;Node5 -->
<g id="edge4_Node000004_Node000005" class="edge">
<title>Node4&#45;&gt;Node5</title>
<g id="a_edge4_Node000004_Node000005"><a xlink:title=" ">
<path fill="none" stroke="#63b8ff" d="M905.84,-115.75C918.85,-114.16 933.82,-112.34 948.6,-110.53"/>
<polygon fill="#63b8ff" stroke="#63b8ff" points="949.28,-113.97 958.78,-109.29 948.43,-107.02 949.28,-113.97"/>
</a>
</g>
</g>
<!-- Node6 -->
<g id="Node000006" class="node">
<title>Node6</title>
<g id="a_Node000006"><a xlink:href="classLogger.html#aeede6ac18db92a47caede076ef188a13" target="_top" xlink:title="Internal logging method.">
<polygon fill="white" stroke="#666666" points="1078.5,-74 968.5,-74 968.5,-55 1078.5,-55 1078.5,-74"/>
<text text-anchor="middle" x="1023.5" y="-62" font-family="Helvetica,sans-Serif" font-size="10.00">Logger::LogInternal</text>
</a>
</g>
</g>
<!-- Node4&#45;&gt;Node6 -->
<g id="edge5_Node000004_Node000006" class="edge">
<title>Node4&#45;&gt;Node6</title>
<g id="a_edge5_Node000004_Node000006"><a xlink:title=" ">
<path fill="none" stroke="#63b8ff" d="M899.92,-110.98C907.59,-108.47 915.66,-105.59 923,-102.5 939.68,-95.48 942.25,-90.35 959,-83.5 964.53,-81.24 970.42,-79.12 976.31,-77.16"/>
<polygon fill="#63b8ff" stroke="#63b8ff" points="977.67,-80.41 986.14,-74.05 975.55,-73.73 977.67,-80.41"/>
</a>
</g>
</g>
<!-- Node8&#45;&gt;Node4 -->
<g id="edge8_Node000008_Node000004" class="edge">
<title>Node8&#45;&gt;Node4</title>
<g id="a_edge8_Node000008_Node000004"><a xlink:title=" ">
<path fill="none" stroke="#63b8ff" d="M731,-83.01C756.87,-90.25 792.7,-100.27 820.8,-108.13"/>
<polygon fill="#63b8ff" stroke="#63b8ff" points="820.19,-111.6 830.77,-110.92 822.08,-104.86 820.19,-111.6"/>
</a>
</g>
</g>
<!-- Node8&#45;&gt;Node7 -->
<g id="edge9_Node000008_Node000007" class="edge">
<title>Node8&#45;&gt;Node7</title>
<g id="a_edge9_Node000008_Node000007"><a xlink:title=" ">
<path fill="none" stroke="#63b8ff" d="M718.69,-64C741.11,-54.32 777.21,-39.12 809,-27.5 813.85,-25.73 818.97,-23.95 824.07,-22.25"/>
<polygon fill="#63b8ff" stroke="#63b8ff" points="825.34,-25.51 833.75,-19.06 823.16,-18.86 825.34,-25.51"/>
</a>
</g>
</g>
<!-- Node9 -->
<g id="Node000009" class="node">
<title>Node9</title>
<g id="a_Node000009"><a xlink:href="classLogger.html#a1c0c947d87884bca0395fd38d19d1102" target="_top" xlink:title="Log info message.">
<polygon fill="white" stroke="#666666" points="903,-56 829,-56 829,-37 903,-37 903,-56"/>
<text text-anchor="middle" x="866" y="-44" font-family="Helvetica,sans-Serif" font-size="10.00">Logger::Info</text>
</a>
</g>
</g>
<!-- Node8&#45;&gt;Node9 -->
<g id="edge10_Node000008_Node000009" class="edge">
<title>Node8&#45;&gt;Node9</title>
<g id="a_edge10_Node000008_Node000009"><a xlink:title=" ">
<path fill="none" stroke="#63b8ff" d="M756.23,-63.98C776.73,-60.69 799.39,-57.04 818.7,-53.94"/>
<polygon fill="#63b8ff" stroke="#63b8ff" points="819.44,-57.37 828.75,-52.33 818.32,-50.46 819.44,-57.37"/>
</a>
</g>
</g>
<!-- Node10 -->
<g id="Node000010" class="node">
<title>Node10</title>
<g id="a_Node000010"><a xlink:href="classLogger.html#a8c19c14724b0be1d2be63da4258c001a" target="_top" xlink:title="Log warning message.">
<polygon fill="white" stroke="#666666" points="906,-93 826,-93 826,-74 906,-74 906,-93"/>
<text text-anchor="middle" x="866" y="-81" font-family="Helvetica,sans-Serif" font-size="10.00">Logger::Warn</text>
</a>
</g>
</g>
<!-- Node8&#45;&gt;Node10 -->
<g id="edge13_Node000008_Node000010" class="edge">
<title>Node8&#45;&gt;Node10</title>
<g id="a_edge13_Node000008_Node000010"><a xlink:title=" ">
<path fill="none" stroke="#63b8ff" d="M773.14,-78.03C787.52,-78.89 802.22,-79.76 815.52,-80.55"/>
<polygon fill="#63b8ff" stroke="#63b8ff" points="815.66,-84.07 825.85,-81.17 816.08,-77.08 815.66,-84.07"/>
</a>
</g>
</g>
<!-- Node9&#45;&gt;Node5 -->
<g id="edge11_Node000009_Node000005" class="edge">
<title>Node9&#45;&gt;Node5</title>
<g id="a_edge11_Node000009_Node000005"><a xlink:title=" ">
<path fill="none" stroke="#63b8ff" d="M897.51,-56.01C905.86,-58.84 914.85,-62.1 923,-65.5 939.51,-72.39 942.32,-77.03 959,-83.5 964.07,-85.47 969.45,-87.33 974.85,-89.05"/>
<polygon fill="#63b8ff" stroke="#63b8ff" points="973.92,-92.42 984.51,-91.99 975.96,-85.73 973.92,-92.42"/>
</a>
</g>
</g>
<!-- Node9&#45;&gt;Node6 -->
<g id="edge12_Node000009_Node000006" class="edge">
<title>Node9&#45;&gt;Node6</title>
<g id="a_edge12_Node000009_Node000006"><a xlink:title=" ">
<path fill="none" stroke="#63b8ff" d="M903.07,-50.67C919.49,-52.58 939.44,-54.89 958.3,-57.07"/>
<polygon fill="#63b8ff" stroke="#63b8ff" points="958,-60.56 968.33,-58.23 958.8,-53.6 958,-60.56"/>
</a>
</g>
</g>
<!-- Node10&#45;&gt;Node5 -->
<g id="edge14_Node000010_Node000005" class="edge">
<title>Node10&#45;&gt;Node5</title>
<g id="a_edge14_Node000010_Node000005"><a xlink:title=" ">
<path fill="none" stroke="#63b8ff" d="M906.24,-88.04C919.18,-89.54 934.02,-91.26 948.68,-92.95"/>
<polygon fill="#63b8ff" stroke="#63b8ff" points="948.43,-96.45 958.77,-94.12 949.24,-89.5 948.43,-96.45"/>
</a>
</g>
</g>
<!-- Node10&#45;&gt;Node6 -->
<g id="edge15_Node000010_Node000006" class="edge">
<title>Node10&#45;&gt;Node6</title>
<g id="a_edge15_Node000010_Node000006"><a xlink:title=" ">
<path fill="none" stroke="#63b8ff" d="M906.24,-78.71C921.96,-76.78 940.49,-74.52 958.08,-72.37"/>
<polygon fill="#63b8ff" stroke="#63b8ff" points="958.8,-75.81 968.3,-71.12 957.95,-68.86 958.8,-75.81"/>
</a>
</g>
</g>
</g>
</svg>
