<?xml version="1.0" encoding="UTF-8" standalone="no"?>
<!DOCTYPE svg PUBLIC "-//W3C//DTD SVG 1.1//EN"
 "http://www.w3.org/Graphics/SVG/1.1/DTD/svg11.dtd">
<!-- Generated by graphviz version 2.43.0 (0)
 -->
<!-- Title: Pca9685Handler::EnsureInitialized Pages: 1 -->
<svg width="689pt" height="136pt"
 viewBox="0.00 0.00 689.00 135.61" xmlns="http://www.w3.org/2000/svg" xmlns:xlink="http://www.w3.org/1999/xlink">
<g id="graph0" class="graph" transform="scale(1 1) rotate(0) translate(4 131.61)">
<title>Pca9685Handler::EnsureInitialized</title>
<!-- Node1 -->
<g id="Node000001" class="node">
<title>Node1</title>
<g id="a_Node000001"><a xlink:title="Ensure the handler is initialized (lazy initialization).">
<polygon fill="#999999" stroke="#666666" points="681,-57.11 498,-57.11 498,-38.11 681,-38.11 681,-57.11"/>
<text text-anchor="middle" x="589.5" y="-45.11" font-family="Helvetica,sans-Serif" font-size="10.00">Pca9685Handler::EnsureInitialized</text>
</a>
</g>
</g>
<!-- Node2 -->
<g id="Node000002" class="node">
<title>Node2</title>
<g id="a_Node000002"><a xlink:href="full__system__integration__test_8cpp.html#a0ffcd10e1f0034357e4d75e4e19504be" target="_top" xlink:title=" ">
<polygon fill="white" stroke="#666666" points="440,-122.11 341,-122.11 341,-103.11 440,-103.11 440,-122.11"/>
<text text-anchor="middle" x="390.5" y="-110.11" font-family="Helvetica,sans-Serif" font-size="10.00">i2c_handler_task</text>
</a>
</g>
</g>
<!-- Node1&#45;&gt;Node2 -->
<g id="edge1_Node000001_Node000002" class="edge">
<title>Node1&#45;&gt;Node2</title>
<g id="a_edge1_Node000001_Node000002"><a xlink:title=" ">
<path fill="none" stroke="#63b8ff" d="M554.48,-60.87C529.17,-70.52 493.67,-83.6 462,-93.61 451.48,-96.93 439.97,-100.19 429.36,-103.04"/>
<polygon fill="#63b8ff" stroke="#63b8ff" points="555.91,-64.07 563.99,-57.23 553.4,-57.54 555.91,-64.07"/>
</a>
</g>
</g>
<!-- Node5 -->
<g id="Node000005" class="node">
<title>Node5</title>
<g id="a_Node000005"><a xlink:href="classPca9685PwmAdapter.html#a4444ef91c028f448f8fd2d06a4d90992" target="_top" xlink:title="Initialize the PWM adapter (ensures parent handler is initialized).">
<polygon fill="white" stroke="#666666" points="453.5,-84.61 327.5,-84.61 327.5,-54.61 453.5,-54.61 453.5,-84.61"/>
<text text-anchor="start" x="335.5" y="-72.61" font-family="Helvetica,sans-Serif" font-size="10.00">Pca9685PwmAdapter::</text>
<text text-anchor="middle" x="390.5" y="-61.61" font-family="Helvetica,sans-Serif" font-size="10.00">Initialize</text>
</a>
</g>
</g>
<!-- Node1&#45;&gt;Node5 -->
<g id="edge4_Node000001_Node000005" class="edge">
<title>Node1&#45;&gt;Node5</title>
<g id="a_edge4_Node000001_Node000005"><a xlink:title=" ">
<path fill="none" stroke="#63b8ff" d="M493.05,-58.26C479.69,-59.76 466.26,-61.26 453.73,-62.66"/>
<polygon fill="#63b8ff" stroke="#63b8ff" points="493.69,-61.72 503.24,-57.13 492.91,-54.76 493.69,-61.72"/>
</a>
</g>
</g>
<!-- Node7 -->
<g id="Node000007" class="node">
<title>Node7</title>
<g id="a_Node000007"><a xlink:href="classPca9685GpioPin.html#aad888b977f799ca7c4f1f35eb9644311" target="_top" xlink:title="Initialize the GPIO pin (sets channel to full&#45;off by default).">
<polygon fill="white" stroke="#666666" points="462,-36.11 319,-36.11 319,-17.11 462,-17.11 462,-36.11"/>
<text text-anchor="middle" x="390.5" y="-24.11" font-family="Helvetica,sans-Serif" font-size="10.00">Pca9685GpioPin::Initialize</text>
</a>
</g>
</g>
<!-- Node1&#45;&gt;Node7 -->
<g id="edge6_Node000001_Node000007" class="edge">
<title>Node1&#45;&gt;Node7</title>
<g id="a_edge6_Node000001_Node000007"><a xlink:title=" ">
<path fill="none" stroke="#63b8ff" d="M489.01,-37C479.95,-36.03 470.9,-35.07 462.17,-34.14"/>
<polygon fill="#63b8ff" stroke="#63b8ff" points="488.91,-40.51 499.22,-38.09 489.65,-33.55 488.91,-40.51"/>
</a>
</g>
</g>
<!-- Node8 -->
<g id="Node000008" class="node">
<title>Node8</title>
<g id="a_Node000008"><a xlink:href="full__system__integration__test_8cpp.html#a5a65d07819438b3ffa159258ea42a9ea" target="_top" xlink:title=" ">
<polygon fill="white" stroke="#666666" points="264,-20.11 120,-20.11 120,-1.11 264,-1.11 264,-20.11"/>
<text text-anchor="middle" x="192" y="-8.11" font-family="Helvetica,sans-Serif" font-size="10.00">test_i2c_multi_device_init</text>
</a>
</g>
</g>
<!-- Node1&#45;&gt;Node8 -->
<g id="edge7_Node000001_Node000008" class="edge">
<title>Node1&#45;&gt;Node8</title>
<g id="a_edge7_Node000001_Node000008"><a xlink:title=" ">
<path fill="none" stroke="#63b8ff" d="M556.28,-34.4C531.1,-24.82 494.96,-12.69 462,-7.61 395.53,2.65 318.73,0.42 264.25,-3.49"/>
<polygon fill="#63b8ff" stroke="#63b8ff" points="555.11,-37.7 565.69,-38.05 557.64,-31.17 555.11,-37.7"/>
</a>
</g>
</g>
<!-- Node3 -->
<g id="Node000003" class="node">
<title>Node3</title>
<g id="a_Node000003"><a xlink:href="full__system__integration__test_8cpp.html#ab02326456d9f2a9466cae859c06f9f1a" target="_top" xlink:title=" ">
<polygon fill="white" stroke="#666666" points="248,-127.61 136,-127.61 136,-97.61 248,-97.61 248,-127.61"/>
<text text-anchor="start" x="144" y="-115.61" font-family="Helvetica,sans-Serif" font-size="10.00">test_concurrent_i2c</text>
<text text-anchor="middle" x="192" y="-104.61" font-family="Helvetica,sans-Serif" font-size="10.00">_access</text>
</a>
</g>
</g>
<!-- Node2&#45;&gt;Node3 -->
<g id="edge2_Node000002_Node000003" class="edge">
<title>Node2&#45;&gt;Node3</title>
<g id="a_edge2_Node000002_Node000003"><a xlink:title=" ">
<path fill="none" stroke="#63b8ff" d="M330.78,-112.61C304.64,-112.61 274.03,-112.61 248.3,-112.61"/>
<polygon fill="#63b8ff" stroke="#63b8ff" points="330.93,-116.11 340.93,-112.61 330.93,-109.11 330.93,-116.11"/>
</a>
</g>
</g>
<!-- Node4 -->
<g id="Node000004" class="node">
<title>Node4</title>
<g id="a_Node000004"><a xlink:href="full__system__integration__test_8cpp.html#a630544a7f0a2cc40d8a7fefab7e2fe70" target="_top" xlink:title=" ">
<polygon fill="white" stroke="#666666" points="65,-60.11 0,-60.11 0,-41.11 65,-41.11 65,-60.11"/>
<text text-anchor="middle" x="32.5" y="-48.11" font-family="Helvetica,sans-Serif" font-size="10.00">app_main</text>
</a>
</g>
</g>
<!-- Node3&#45;&gt;Node4 -->
<g id="edge3_Node000003_Node000004" class="edge">
<title>Node3&#45;&gt;Node4</title>
<g id="a_edge3_Node000003_Node000004"><a xlink:title=" ">
<path fill="none" stroke="#63b8ff" d="M125.69,-97.28C117.28,-94.7 108.86,-91.81 101,-88.61 81.82,-80.8 61.29,-68.63 47.97,-60.18"/>
<polygon fill="#63b8ff" stroke="#63b8ff" points="124.96,-100.72 135.54,-100.17 126.93,-94 124.96,-100.72"/>
</a>
</g>
</g>
<!-- Node6 -->
<g id="Node000006" class="node">
<title>Node6</title>
<g id="a_Node000006"><a xlink:href="classPca9685Handler.html#a3f5b93ead4b85c137c94a0d0e8d9bb12" target="_top" xlink:title="Get or create the BasePwm adapter for all 16 channels.">
<polygon fill="white" stroke="#666666" points="283,-79.11 101,-79.11 101,-60.11 283,-60.11 283,-79.11"/>
<text text-anchor="middle" x="192" y="-67.11" font-family="Helvetica,sans-Serif" font-size="10.00">Pca9685Handler::GetPwmAdapter</text>
</a>
</g>
</g>
<!-- Node5&#45;&gt;Node6 -->
<g id="edge5_Node000005_Node000006" class="edge">
<title>Node5&#45;&gt;Node6</title>
<g id="a_edge5_Node000005_Node000006"><a xlink:title=" ">
<path fill="none" stroke="#63b8ff" d="M317.27,-69.61C306.16,-69.61 294.57,-69.61 283.13,-69.61"/>
<polygon fill="#63b8ff" stroke="#63b8ff" points="317.33,-73.11 327.33,-69.61 317.33,-66.11 317.33,-73.11"/>
</a>
</g>
</g>
<!-- Node8&#45;&gt;Node4 -->
<g id="edge8_Node000008_Node000004" class="edge">
<title>Node8&#45;&gt;Node4</title>
<g id="a_edge8_Node000008_Node000004"><a xlink:title=" ">
<path fill="none" stroke="#63b8ff" d="M143.47,-22.68C118.08,-29.12 87.53,-36.88 65.08,-42.58"/>
<polygon fill="#63b8ff" stroke="#63b8ff" points="144.44,-26.04 153.27,-20.19 142.72,-19.26 144.44,-26.04"/>
</a>
</g>
</g>
</g>
</svg>
