<?xml version="1.0" encoding="UTF-8" standalone="no"?>
<!DOCTYPE svg PUBLIC "-//W3C//DTD SVG 1.1//EN"
 "http://www.w3.org/Graphics/SVG/1.1/DTD/svg11.dtd">
<!-- Generated by graphviz version 2.43.0 (0)
 -->
<!-- Title: Tmc5160Handler::Initialize Pages: 1 -->
<svg width="820pt" height="628pt"
 viewBox="0.00 0.00 820.00 628.00" xmlns="http://www.w3.org/2000/svg" xmlns:xlink="http://www.w3.org/1999/xlink">
<g id="graph0" class="graph" transform="scale(1 1) rotate(0) translate(4 624)">
<title>Tmc5160Handler::Initialize</title>
<!-- Node1 -->
<g id="Node000001" class="node">
<title>Node1</title>
<g id="a_Node000001"><a xlink:title="Initialize the TMC5160 driver with full configuration.">
<polygon fill="#999999" stroke="#666666" points="812,-331 664,-331 664,-312 812,-312 812,-331"/>
<text text-anchor="middle" x="738" y="-319" font-family="Helvetica,sans-Serif" font-size="10.00">Tmc5160Handler::Initialize</text>
</a>
</g>
</g>
<!-- Node2 -->
<g id="Node000002" class="node">
<title>Node2</title>
<g id="a_Node000002"><a xlink:href="classTmc5160Handler.html#a6d4fce2433e03bb11b05a4278ef66fd0" target="_top" xlink:title=" ">
<polygon fill="white" stroke="#666666" points="628,-336.5 441,-336.5 441,-306.5 628,-306.5 628,-336.5"/>
<text text-anchor="start" x="449" y="-324.5" font-family="Helvetica,sans-Serif" font-size="10.00">Tmc5160Handler::EnsureInitialized</text>
<text text-anchor="middle" x="534.5" y="-313.5" font-family="Helvetica,sans-Serif" font-size="10.00">Locked</text>
</a>
</g>
</g>
<!-- Node1&#45;&gt;Node2 -->
<g id="edge1_Node000001_Node000002" class="edge">
<title>Node1&#45;&gt;Node2</title>
<g id="a_edge1_Node000001_Node000002"><a xlink:title=" ">
<path fill="none" stroke="#63b8ff" d="M653.79,-321.5C645.37,-321.5 636.77,-321.5 628.26,-321.5"/>
<polygon fill="#63b8ff" stroke="#63b8ff" points="653.97,-325 663.97,-321.5 653.97,-318 653.97,-325"/>
</a>
</g>
</g>
<!-- Node3 -->
<g id="Node000003" class="node">
<title>Node3</title>
<g id="a_Node000003"><a xlink:href="classTmc5160Handler.html#a30cf2ab584290fadfcb7d7cc6603444b" target="_top" xlink:title="Disable the motor driver power stage.">
<polygon fill="white" stroke="#666666" points="391.5,-620 220.5,-620 220.5,-601 391.5,-601 391.5,-620"/>
<text text-anchor="middle" x="306" y="-608" font-family="Helvetica,sans-Serif" font-size="10.00">Tmc5160Handler::DisableMotor</text>
</a>
</g>
</g>
<!-- Node2&#45;&gt;Node3 -->
<g id="edge2_Node000002_Node000003" class="edge">
<title>Node2&#45;&gt;Node3</title>
<g id="a_edge2_Node000002_Node000003"><a xlink:title=" ">
<path fill="none" stroke="#63b8ff" d="M529.35,-346.98C519.03,-401.5 486.91,-529.6 405,-592.5 400.75,-595.77 396.09,-598.5 391.18,-600.8"/>
<polygon fill="#63b8ff" stroke="#63b8ff" points="532.85,-347.27 531.18,-336.81 525.96,-346.03 532.85,-347.27"/>
</a>
</g>
</g>
<!-- Node4 -->
<g id="Node000004" class="node">
<title>Node4</title>
<g id="a_Node000004"><a xlink:href="classTmc5160Handler.html#a15dae0f711e2dd4ecea09822b8a3a8bb" target="_top" xlink:title="Get typed SPI driver pointer (null if UART mode or not initialized).">
<polygon fill="white" stroke="#666666" points="388.5,-583 223.5,-583 223.5,-564 388.5,-564 388.5,-583"/>
<text text-anchor="middle" x="306" y="-571" font-family="Helvetica,sans-Serif" font-size="10.00">Tmc5160Handler::driverViaSpi</text>
</a>
</g>
</g>
<!-- Node2&#45;&gt;Node4 -->
<g id="edge3_Node000002_Node000004" class="edge">
<title>Node2&#45;&gt;Node4</title>
<g id="a_edge3_Node000002_Node000004"><a xlink:title=" ">
<path fill="none" stroke="#63b8ff" d="M527.51,-346.23C514.38,-394.84 478.18,-502.69 405,-555.5 399.95,-559.14 394.38,-562.12 388.54,-564.54"/>
<polygon fill="#63b8ff" stroke="#63b8ff" points="530.91,-347.09 530.04,-336.53 524.13,-345.33 530.91,-347.09"/>
</a>
</g>
</g>
<!-- Node6 -->
<g id="Node000006" class="node">
<title>Node6</title>
<g id="a_Node000006"><a xlink:href="classTmc5160Handler.html#af8cb1c7b5011bd24102d296f22c211c5" target="_top" xlink:title="Get typed UART driver pointer (null if SPI mode or not initialized).">
<polygon fill="white" stroke="#666666" points="391.5,-546 220.5,-546 220.5,-527 391.5,-527 391.5,-546"/>
<text text-anchor="middle" x="306" y="-534" font-family="Helvetica,sans-Serif" font-size="10.00">Tmc5160Handler::driverViaUart</text>
</a>
</g>
</g>
<!-- Node2&#45;&gt;Node6 -->
<g id="edge5_Node000002_Node000006" class="edge">
<title>Node2&#45;&gt;Node6</title>
<g id="a_edge5_Node000002_Node000006"><a xlink:title=" ">
<path fill="none" stroke="#63b8ff" d="M524.88,-346.18C508.64,-388.81 469.22,-475.76 405,-518.5 399.96,-521.85 394.47,-524.63 388.74,-526.92"/>
<polygon fill="#63b8ff" stroke="#63b8ff" points="528.25,-347.19 528.43,-336.59 521.68,-344.76 528.25,-347.19"/>
</a>
</g>
</g>
<!-- Node8 -->
<g id="Node000008" class="node">
<title>Node8</title>
<g id="a_Node000008"><a xlink:href="classTmc5160Handler.html#ab4bf5aabef968f6f8ee66d08cf05913a" target="_top" xlink:title="Dump diagnostic information to logger.">
<polygon fill="white" stroke="#666666" points="402,-509 210,-509 210,-490 402,-490 402,-509"/>
<text text-anchor="middle" x="306" y="-497" font-family="Helvetica,sans-Serif" font-size="10.00">Tmc5160Handler::DumpDiagnostics</text>
</a>
</g>
</g>
<!-- Node2&#45;&gt;Node8 -->
<g id="edge7_Node000002_Node000008" class="edge">
<title>Node2&#45;&gt;Node8</title>
<g id="a_edge7_Node000002_Node000008"><a xlink:title=" ">
<path fill="none" stroke="#63b8ff" d="M521.13,-346.15C501.68,-382.17 460.37,-448.46 405,-481.5 399.28,-484.91 393.06,-487.71 386.63,-489.99"/>
<polygon fill="#63b8ff" stroke="#63b8ff" points="524.47,-347.33 526.03,-336.85 518.27,-344.07 524.47,-347.33"/>
</a>
</g>
</g>
<!-- Node9 -->
<g id="Node000009" class="node">
<title>Node9</title>
<g id="a_Node000009"><a xlink:href="classTmc5160Handler.html#af04426991f32e1a5022df0ec7e9d821d" target="_top" xlink:title="Enable the motor driver power stage.">
<polygon fill="white" stroke="#666666" points="389.5,-472 222.5,-472 222.5,-453 389.5,-453 389.5,-472"/>
<text text-anchor="middle" x="306" y="-460" font-family="Helvetica,sans-Serif" font-size="10.00">Tmc5160Handler::EnableMotor</text>
</a>
</g>
</g>
<!-- Node2&#45;&gt;Node9 -->
<g id="edge8_Node000002_Node000009" class="edge">
<title>Node2&#45;&gt;Node9</title>
<g id="a_edge8_Node000002_Node000009"><a xlink:title=" ">
<path fill="none" stroke="#63b8ff" d="M515.99,-344.82C493.53,-372.92 451.85,-419.38 405,-443.5 397.45,-447.39 389.2,-450.48 380.79,-452.95"/>
<polygon fill="#63b8ff" stroke="#63b8ff" points="518.91,-346.76 522.32,-336.73 513.4,-342.44 518.91,-346.76"/>
</a>
</g>
</g>
<!-- Node10 -->
<g id="Node000010" class="node">
<title>Node10</title>
<g id="a_Node000010"><a xlink:href="classTmc5160Handler.html#a5ad276d4fcd81765d0a5af064fdbf7b5" target="_top" xlink:title="Ensure driver is initialized (lazy init entrypoint).">
<polygon fill="white" stroke="#666666" points="399.5,-435 212.5,-435 212.5,-416 399.5,-416 399.5,-435"/>
<text text-anchor="middle" x="306" y="-423" font-family="Helvetica,sans-Serif" font-size="10.00">Tmc5160Handler::EnsureInitialized</text>
</a>
</g>
</g>
<!-- Node2&#45;&gt;Node10 -->
<g id="edge9_Node000002_Node000010" class="edge">
<title>Node2&#45;&gt;Node10</title>
<g id="a_edge9_Node000002_Node000010"><a xlink:title=" ">
<path fill="none" stroke="#63b8ff" d="M507.83,-342.93C483.06,-362.49 443.71,-390.68 405,-406.5 395.45,-410.4 385.05,-413.51 374.71,-416"/>
<polygon fill="#63b8ff" stroke="#63b8ff" points="510.04,-345.64 515.65,-336.66 505.66,-340.18 510.04,-345.64"/>
</a>
</g>
</g>
<!-- Node12 -->
<g id="Node000012" class="node">
<title>Node12</title>
<g id="a_Node000012"><a xlink:href="classTmc5160Handler.html#a0a90626550f36ea01dcd16a20877ca9e" target="_top" xlink:title="Get the chip version info.">
<polygon fill="white" stroke="#666666" points="396.5,-398 215.5,-398 215.5,-379 396.5,-379 396.5,-398"/>
<text text-anchor="middle" x="306" y="-386" font-family="Helvetica,sans-Serif" font-size="10.00">Tmc5160Handler::GetChipVersion</text>
</a>
</g>
</g>
<!-- Node2&#45;&gt;Node12 -->
<g id="edge11_Node000002_Node000012" class="edge">
<title>Node2&#45;&gt;Node12</title>
<g id="a_edge11_Node000002_Node000012"><a xlink:title=" ">
<path fill="none" stroke="#63b8ff" d="M488.67,-340.34C464.26,-350.06 433.33,-361.52 405,-369.5 392.07,-373.14 377.99,-376.32 364.64,-378.98"/>
<polygon fill="#63b8ff" stroke="#63b8ff" points="490.06,-343.55 498.03,-336.57 487.44,-337.06 490.06,-343.55"/>
</a>
</g>
</g>
<!-- Node13 -->
<g id="Node000013" class="node">
<title>Node13</title>
<g id="a_Node000013"><a xlink:href="classTmc5160Handler.html#acdb558e7d2b6c2548aca4fab849d5362" target="_top" xlink:title="Get current position in microsteps.">
<polygon fill="white" stroke="#666666" points="385.5,-360.5 226.5,-360.5 226.5,-330.5 385.5,-330.5 385.5,-360.5"/>
<text text-anchor="start" x="234.5" y="-348.5" font-family="Helvetica,sans-Serif" font-size="10.00">Tmc5160Handler::GetCurrent</text>
<text text-anchor="middle" x="306" y="-337.5" font-family="Helvetica,sans-Serif" font-size="10.00">Position</text>
</a>
</g>
</g>
<!-- Node2&#45;&gt;Node13 -->
<g id="edge12_Node000002_Node000013" class="edge">
<title>Node2&#45;&gt;Node13</title>
<g id="a_edge12_Node000002_Node000013"><a xlink:title=" ">
<path fill="none" stroke="#63b8ff" d="M430.35,-332.43C415.29,-334.03 399.99,-335.65 385.53,-337.18"/>
<polygon fill="#63b8ff" stroke="#63b8ff" points="431.14,-335.87 440.72,-331.33 430.41,-328.9 431.14,-335.87"/>
</a>
</g>
</g>
<!-- Node14 -->
<g id="Node000014" class="node">
<title>Node14</title>
<g id="a_Node000014"><a xlink:href="classTmc5160Handler.html#a477ffe28808df5706f1f3f15018665b7" target="_top" xlink:title="Get current velocity.">
<polygon fill="white" stroke="#666666" points="385.5,-312.5 226.5,-312.5 226.5,-282.5 385.5,-282.5 385.5,-312.5"/>
<text text-anchor="start" x="234.5" y="-300.5" font-family="Helvetica,sans-Serif" font-size="10.00">Tmc5160Handler::GetCurrent</text>
<text text-anchor="middle" x="306" y="-289.5" font-family="Helvetica,sans-Serif" font-size="10.00">Velocity</text>
</a>
</g>
</g>
<!-- Node2&#45;&gt;Node14 -->
<g id="edge13_Node000002_Node000014" class="edge">
<title>Node2&#45;&gt;Node14</title>
<g id="a_edge13_Node000002_Node000014"><a xlink:title=" ">
<path fill="none" stroke="#63b8ff" d="M430.35,-310.57C415.29,-308.97 399.99,-307.35 385.53,-305.82"/>
<polygon fill="#63b8ff" stroke="#63b8ff" points="430.41,-314.1 440.72,-311.67 431.14,-307.13 430.41,-314.1"/>
</a>
</g>
</g>
<!-- Node15 -->
<g id="Node000015" class="node">
<title>Node15</title>
<g id="a_Node000015"><a xlink:href="classTmc5160Handler.html#af583b8d7baca711d2d0e3269bff68ba7" target="_top" xlink:title="Get StallGuard result value.">
<polygon fill="white" stroke="#666666" points="378.5,-264.5 233.5,-264.5 233.5,-234.5 378.5,-234.5 378.5,-264.5"/>
<text text-anchor="start" x="241.5" y="-252.5" font-family="Helvetica,sans-Serif" font-size="10.00">Tmc5160Handler::GetStall</text>
<text text-anchor="middle" x="306" y="-241.5" font-family="Helvetica,sans-Serif" font-size="10.00">GuardResult</text>
</a>
</g>
</g>
<!-- Node2&#45;&gt;Node15 -->
<g id="edge14_Node000002_Node000015" class="edge">
<title>Node2&#45;&gt;Node15</title>
<g id="a_edge14_Node000002_Node000015"><a xlink:title=" ">
<path fill="none" stroke="#63b8ff" d="M487.46,-302.8C463.17,-293.32 432.73,-282.04 405,-273.5 394.7,-270.33 383.7,-267.3 372.92,-264.52"/>
<polygon fill="#63b8ff" stroke="#63b8ff" points="486.2,-306.07 496.78,-306.47 488.76,-299.56 486.2,-306.07"/>
</a>
</g>
</g>
<!-- Node16 -->
<g id="Node000016" class="node">
<title>Node16</title>
<g id="a_Node000016"><a xlink:href="classTmc5160Handler.html#a886e33b5d5de426d64b2e006c90422a2" target="_top" xlink:title="Check if motor is enabled.">
<polygon fill="white" stroke="#666666" points="397,-216 215,-216 215,-197 397,-197 397,-216"/>
<text text-anchor="middle" x="306" y="-204" font-family="Helvetica,sans-Serif" font-size="10.00">Tmc5160Handler::IsMotorEnabled</text>
</a>
</g>
</g>
<!-- Node2&#45;&gt;Node16 -->
<g id="edge15_Node000002_Node000016" class="edge">
<title>Node2&#45;&gt;Node16</title>
<g id="a_edge15_Node000002_Node000016"><a xlink:title=" ">
<path fill="none" stroke="#63b8ff" d="M510.4,-299.07C486.16,-276.86 445.95,-243.62 405,-225.5 396.2,-221.61 386.62,-218.51 376.99,-216.05"/>
<polygon fill="#63b8ff" stroke="#63b8ff" points="508.29,-301.88 517.99,-306.14 513.06,-296.76 508.29,-301.88"/>
</a>
</g>
</g>
<!-- Node17 -->
<g id="Node000017" class="node">
<title>Node17</title>
<g id="a_Node000017"><a xlink:href="classTmc5160Handler.html#a92ab9f87e4c97d8be86e6ed29fa62814" target="_top" xlink:title="Check for overtemperature condition.">
<polygon fill="white" stroke="#666666" points="405,-179 207,-179 207,-160 405,-160 405,-179"/>
<text text-anchor="middle" x="306" y="-167" font-family="Helvetica,sans-Serif" font-size="10.00">Tmc5160Handler::IsOvertemperature</text>
</a>
</g>
</g>
<!-- Node2&#45;&gt;Node17 -->
<g id="edge16_Node000002_Node000017" class="edge">
<title>Node2&#45;&gt;Node17</title>
<g id="a_edge16_Node000002_Node000017"><a xlink:title=" ">
<path fill="none" stroke="#63b8ff" d="M517.87,-297.64C496.36,-266.89 454.59,-214.21 405,-187.5 398.68,-184.1 391.83,-181.32 384.8,-179.07"/>
<polygon fill="#63b8ff" stroke="#63b8ff" points="515.1,-299.79 523.64,-306.06 520.87,-295.84 515.1,-299.79"/>
</a>
</g>
</g>
<!-- Node18 -->
<g id="Node000018" class="node">
<title>Node18</title>
<g id="a_Node000018"><a xlink:href="classTmc5160Handler.html#a0a25f971f0c8a23a489d35ce53fea164" target="_top" xlink:title="Check for stall detection.">
<polygon fill="white" stroke="#666666" points="396,-142 216,-142 216,-123 396,-123 396,-142"/>
<text text-anchor="middle" x="306" y="-130" font-family="Helvetica,sans-Serif" font-size="10.00">Tmc5160Handler::IsStallDetected</text>
</a>
</g>
</g>
<!-- Node2&#45;&gt;Node18 -->
<g id="edge17_Node000002_Node000018" class="edge">
<title>Node2&#45;&gt;Node18</title>
<g id="a_edge17_Node000002_Node000018"><a xlink:title=" ">
<path fill="none" stroke="#63b8ff" d="M522.53,-297.09C504.09,-259.1 463.13,-186.46 405,-150.5 399.56,-147.13 393.64,-144.36 387.5,-142.09"/>
<polygon fill="#63b8ff" stroke="#63b8ff" points="519.49,-298.85 526.93,-306.4 525.82,-295.86 519.49,-298.85"/>
</a>
</g>
</g>
<!-- Node19 -->
<g id="Node000019" class="node">
<title>Node19</title>
<g id="a_Node000019"><a xlink:href="classTmc5160Handler.html#ad72f4e8d1cb8848bd5967b87637d5f62" target="_top" xlink:title="Check if the motor is at standstill.">
<polygon fill="white" stroke="#666666" points="386,-105 226,-105 226,-86 386,-86 386,-105"/>
<text text-anchor="middle" x="306" y="-93" font-family="Helvetica,sans-Serif" font-size="10.00">Tmc5160Handler::IsStandstill</text>
</a>
</g>
</g>
<!-- Node2&#45;&gt;Node19 -->
<g id="edge18_Node000002_Node000019" class="edge">
<title>Node2&#45;&gt;Node19</title>
<g id="a_edge18_Node000002_Node000019"><a xlink:title=" ">
<path fill="none" stroke="#63b8ff" d="M525.73,-296.73C510.4,-252.23 471.83,-159.18 405,-113.5 399.29,-109.6 392.97,-106.47 386.37,-103.98"/>
<polygon fill="#63b8ff" stroke="#63b8ff" points="522.49,-298.06 528.97,-306.44 529.13,-295.85 522.49,-298.06"/>
</a>
</g>
</g>
<!-- Node20 -->
<g id="Node000020" class="node">
<title>Node20</title>
<g id="a_Node000020"><a xlink:href="classTmc5160Handler.html#ad1831c33ceedfac6dfb31c99c5009048" target="_top" xlink:title="Check if target position has been reached.">
<polygon fill="white" stroke="#666666" points="378,-67.5 234,-67.5 234,-37.5 378,-37.5 378,-67.5"/>
<text text-anchor="start" x="242" y="-55.5" font-family="Helvetica,sans-Serif" font-size="10.00">Tmc5160Handler::IsTarget</text>
<text text-anchor="middle" x="306" y="-44.5" font-family="Helvetica,sans-Serif" font-size="10.00">Reached</text>
</a>
</g>
</g>
<!-- Node2&#45;&gt;Node20 -->
<g id="edge19_Node000002_Node000020" class="edge">
<title>Node2&#45;&gt;Node20</title>
<g id="a_edge19_Node000002_Node000020"><a xlink:title=" ">
<path fill="none" stroke="#63b8ff" d="M527.69,-296.37C514.78,-246.36 478.83,-134.27 405,-76.5 397.07,-70.29 387.75,-65.66 378.08,-62.22"/>
<polygon fill="#63b8ff" stroke="#63b8ff" points="524.36,-297.46 530.17,-306.32 531.15,-295.77 524.36,-297.46"/>
</a>
</g>
</g>
<!-- Node21 -->
<g id="Node000021" class="node">
<title>Node21</title>
<g id="a_Node000021"><a xlink:href="classTmc5160Handler.html#abc25e920be9b4093eb44b3a5da8bd0ed" target="_top" xlink:title="Stop motor immediately.">
<polygon fill="white" stroke="#666666" points="370,-19 242,-19 242,0 370,0 370,-19"/>
<text text-anchor="middle" x="306" y="-7" font-family="Helvetica,sans-Serif" font-size="10.00">Tmc5160Handler::Stop</text>
</a>
</g>
</g>
<!-- Node2&#45;&gt;Node21 -->
<g id="edge20_Node000002_Node000021" class="edge">
<title>Node2&#45;&gt;Node21</title>
<g id="a_edge20_Node000002_Node000021"><a xlink:title=" ">
<path fill="none" stroke="#63b8ff" d="M530.33,-296.43C521.7,-239.15 492.22,-98.24 405,-28.5 395.05,-20.55 382.74,-15.59 370.24,-12.57"/>
<polygon fill="#63b8ff" stroke="#63b8ff" points="526.88,-297.01 531.76,-306.42 533.81,-296.03 526.88,-297.01"/>
</a>
</g>
</g>
<!-- Node5 -->
<g id="Node000005" class="node">
<title>Node5</title>
<g id="a_Node000005"><a xlink:href="classTmc5160Handler.html#aa47c7b0c69a35aa3f9e9c6fc8d2bd95c" target="_top" xlink:title=" ">
<polygon fill="white" stroke="#666666" points="168,-583 3,-583 3,-564 168,-564 168,-583"/>
<text text-anchor="middle" x="85.5" y="-571" font-family="Helvetica,sans-Serif" font-size="10.00">Tmc5160Handler::driverViaSpi</text>
</a>
</g>
</g>
<!-- Node4&#45;&gt;Node5 -->
<g id="edge4_Node000004_Node000005" class="edge">
<title>Node4&#45;&gt;Node5</title>
<g id="a_edge4_Node000004_Node000005"><a xlink:title=" ">
<path fill="none" stroke="#63b8ff" d="M213.07,-573.5C198.13,-573.5 182.74,-573.5 168.07,-573.5"/>
<polygon fill="#63b8ff" stroke="#63b8ff" points="213.33,-577 223.33,-573.5 213.33,-570 213.33,-577"/>
</a>
</g>
</g>
<!-- Node7 -->
<g id="Node000007" class="node">
<title>Node7</title>
<g id="a_Node000007"><a xlink:href="classTmc5160Handler.html#a845e1879a4606367f419f3892061ff31" target="_top" xlink:title=" ">
<polygon fill="white" stroke="#666666" points="171,-546 0,-546 0,-527 171,-527 171,-546"/>
<text text-anchor="middle" x="85.5" y="-534" font-family="Helvetica,sans-Serif" font-size="10.00">Tmc5160Handler::driverViaUart</text>
</a>
</g>
</g>
<!-- Node6&#45;&gt;Node7 -->
<g id="edge6_Node000006_Node000007" class="edge">
<title>Node6&#45;&gt;Node7</title>
<g id="a_edge6_Node000006_Node000007"><a xlink:title=" ">
<path fill="none" stroke="#63b8ff" d="M209.95,-536.5C197.07,-536.5 183.93,-536.5 171.24,-536.5"/>
<polygon fill="#63b8ff" stroke="#63b8ff" points="210.21,-540 220.21,-536.5 210.21,-533 210.21,-540"/>
</a>
</g>
</g>
<!-- Node11 -->
<g id="Node000011" class="node">
<title>Node11</title>
<g id="a_Node000011"><a xlink:href="classTmc5160Handler.html#adf1b6ae5b680756f1b68169789cf0c1f" target="_top" xlink:title="Visit the typed driver with a callable.">
<polygon fill="white" stroke="#666666" points="164,-435 7,-435 7,-416 164,-416 164,-435"/>
<text text-anchor="middle" x="85.5" y="-423" font-family="Helvetica,sans-Serif" font-size="10.00">Tmc5160Handler::visitDriver</text>
</a>
</g>
</g>
<!-- Node10&#45;&gt;Node11 -->
<g id="edge10_Node000010_Node000011" class="edge">
<title>Node10&#45;&gt;Node11</title>
<g id="a_edge10_Node000010_Node000011"><a xlink:title=" ">
<path fill="none" stroke="#63b8ff" d="M202.13,-425.5C189.35,-425.5 176.45,-425.5 164.15,-425.5"/>
<polygon fill="#63b8ff" stroke="#63b8ff" points="202.34,-429 212.34,-425.5 202.34,-422 202.34,-429"/>
</a>
</g>
</g>
</g>
</svg>
