<?xml version="1.0" encoding="UTF-8" standalone="no"?>
<!DOCTYPE svg PUBLIC "-//W3C//DTD SVG 1.1//EN"
 "http://www.w3.org/Graphics/SVG/1.1/DTD/svg11.dtd">
<!-- Generated by graphviz version 2.43.0 (0)
 -->
<!-- Title: NtcTemperatureHandler::Deinitialize Pages: 1 -->
<svg width="694pt" height="119pt"
 viewBox="0.00 0.00 694.00 118.88" xmlns="http://www.w3.org/2000/svg" xmlns:xlink="http://www.w3.org/1999/xlink">
<g id="graph0" class="graph" transform="scale(1 1) rotate(0) translate(4 114.88)">
<title>NtcTemperatureHandler::Deinitialize</title>
<!-- Node1 -->
<g id="Node000001" class="node">
<title>Node1</title>
<g id="a_Node000001"><a xlink:title=" ">
<polygon fill="#999999" stroke="#666666" points="133,-70 0,-70 0,-40 133,-40 133,-70"/>
<text text-anchor="start" x="8" y="-58" font-family="Helvetica,sans-Serif" font-size="10.00">NtcTemperatureHandler</text>
<text text-anchor="middle" x="66.5" y="-47" font-family="Helvetica,sans-Serif" font-size="10.00">::Deinitialize</text>
</a>
</g>
</g>
<!-- Node2 -->
<g id="Node000002" class="node">
<title>Node2</title>
<g id="a_Node000002"><a xlink:href="classLogger.html#a5789d11f8f1356e2192c0023a089cbc4" target="_top" xlink:title="Get singleton instance.">
<polygon fill="white" stroke="#666666" points="496,-104.5 382,-104.5 382,-85.5 496,-85.5 496,-104.5"/>
<text text-anchor="middle" x="439" y="-92.5" font-family="Helvetica,sans-Serif" font-size="10.00">Logger::GetInstance</text>
</a>
</g>
</g>
<!-- Node1&#45;&gt;Node2 -->
<g id="edge1_Node000001_Node000002" class="edge">
<title>Node1&#45;&gt;Node2</title>
<g id="a_edge1_Node000001_Node000002"><a xlink:title=" ">
<path fill="none" stroke="#63b8ff" d="M92.73,-70.1C112.66,-81.11 141.58,-95.08 169,-101 237.02,-115.69 316.97,-111.25 371.93,-104.97"/>
<polygon fill="#63b8ff" stroke="#63b8ff" points="372.38,-108.45 381.9,-103.78 371.55,-101.49 372.38,-108.45"/>
</a>
</g>
</g>
<!-- Node3 -->
<g id="Node000003" class="node">
<title>Node3</title>
<g id="a_Node000003"><a xlink:href="classLogger.html#a4681229c521795685fc14f6b55c82300" target="_top" xlink:title="Log info message.">
<polygon fill="white" stroke="#666666" points="476,-67.5 402,-67.5 402,-48.5 476,-48.5 476,-67.5"/>
<text text-anchor="middle" x="439" y="-55.5" font-family="Helvetica,sans-Serif" font-size="10.00">Logger::Info</text>
</a>
</g>
</g>
<!-- Node1&#45;&gt;Node3 -->
<g id="edge2_Node000001_Node000003" class="edge">
<title>Node1&#45;&gt;Node3</title>
<g id="a_edge2_Node000001_Node000003"><a xlink:title=" ">
<path fill="none" stroke="#63b8ff" d="M133.02,-53.52C144.99,-53.3 157.37,-53.11 169,-53 236.55,-52.33 253.46,-51.56 321,-53 344.32,-53.5 370.24,-54.55 391.74,-55.57"/>
<polygon fill="#63b8ff" stroke="#63b8ff" points="391.75,-59.07 401.91,-56.06 392.09,-52.08 391.75,-59.07"/>
</a>
</g>
</g>
<!-- Node6 -->
<g id="Node000006" class="node">
<title>Node6</title>
<g id="a_Node000006"><a xlink:href="classNtcTemperatureHandler.html#a7cd3aa59989bec0514d6717d345d8466" target="_top" xlink:title=" ">
<polygon fill="white" stroke="#666666" points="321,-92 169,-92 169,-62 321,-62 321,-92"/>
<text text-anchor="start" x="177" y="-80" font-family="Helvetica,sans-Serif" font-size="10.00">NtcTemperatureHandler</text>
<text text-anchor="middle" x="245" y="-69" font-family="Helvetica,sans-Serif" font-size="10.00">::StopContinuousMonitoring</text>
</a>
</g>
</g>
<!-- Node1&#45;&gt;Node6 -->
<g id="edge5_Node000001_Node000006" class="edge">
<title>Node1&#45;&gt;Node6</title>
<g id="a_edge5_Node000001_Node000006"><a xlink:title=" ">
<path fill="none" stroke="#63b8ff" d="M133.22,-63.19C141.53,-64.23 150.13,-65.3 158.69,-66.37"/>
<polygon fill="#63b8ff" stroke="#63b8ff" points="158.35,-69.85 168.71,-67.62 159.22,-62.91 158.35,-69.85"/>
</a>
</g>
</g>
<!-- Node7 -->
<g id="Node000007" class="node">
<title>Node7</title>
<g id="a_Node000007"><a xlink:href="classNtcTemperatureHandler.html#a0b3fba99650d0b01b1347eae0c86abba" target="_top" xlink:title=" ">
<polygon fill="white" stroke="#666666" points="521,-30 357,-30 357,0 521,0 521,-30"/>
<text text-anchor="start" x="365" y="-18" font-family="Helvetica,sans-Serif" font-size="10.00">NtcTemperatureHandler</text>
<text text-anchor="middle" x="439" y="-7" font-family="Helvetica,sans-Serif" font-size="10.00">::UnregisterMonitoringContext</text>
</a>
</g>
</g>
<!-- Node1&#45;&gt;Node7 -->
<g id="edge9_Node000001_Node000007" class="edge">
<title>Node1&#45;&gt;Node7</title>
<g id="a_edge9_Node000001_Node000007"><a xlink:title=" ">
<path fill="none" stroke="#63b8ff" d="M133.31,-47.89C192.75,-41.48 280.78,-31.97 346.95,-24.83"/>
<polygon fill="#63b8ff" stroke="#63b8ff" points="347.4,-28.3 356.97,-23.75 346.65,-21.34 347.4,-28.3"/>
</a>
</g>
</g>
<!-- Node4 -->
<g id="Node000004" class="node">
<title>Node4</title>
<g id="a_Node000004"><a xlink:href="classLogger.html#af9e84e0ff6bd538e4f9ed8dcebc3e2f0" target="_top" xlink:title="Check if log level is enabled for tag.">
<polygon fill="white" stroke="#666666" points="686,-86.5 557,-86.5 557,-67.5 686,-67.5 686,-86.5"/>
<text text-anchor="middle" x="621.5" y="-74.5" font-family="Helvetica,sans-Serif" font-size="10.00">Logger::IsLevelEnabled</text>
</a>
</g>
</g>
<!-- Node3&#45;&gt;Node4 -->
<g id="edge3_Node000003_Node000004" class="edge">
<title>Node3&#45;&gt;Node4</title>
<g id="a_edge3_Node000003_Node000004"><a xlink:title=" ">
<path fill="none" stroke="#63b8ff" d="M476.09,-61.8C496.35,-63.93 522.38,-66.67 546.75,-69.24"/>
<polygon fill="#63b8ff" stroke="#63b8ff" points="546.39,-72.72 556.7,-70.28 547.13,-65.76 546.39,-72.72"/>
</a>
</g>
</g>
<!-- Node5 -->
<g id="Node000005" class="node">
<title>Node5</title>
<g id="a_Node000005"><a xlink:href="classLogger.html#a6adb205db597526fb91ad20067400394" target="_top" xlink:title="Internal logging method.">
<polygon fill="white" stroke="#666666" points="676.5,-49.5 566.5,-49.5 566.5,-30.5 676.5,-30.5 676.5,-49.5"/>
<text text-anchor="middle" x="621.5" y="-37.5" font-family="Helvetica,sans-Serif" font-size="10.00">Logger::LogInternal</text>
</a>
</g>
</g>
<!-- Node3&#45;&gt;Node5 -->
<g id="edge4_Node000003_Node000005" class="edge">
<title>Node3&#45;&gt;Node5</title>
<g id="a_edge4_Node000003_Node000005"><a xlink:title=" ">
<path fill="none" stroke="#63b8ff" d="M476.09,-54.4C498.99,-52.12 529.27,-49.1 556.18,-46.41"/>
<polygon fill="#63b8ff" stroke="#63b8ff" points="556.71,-49.88 566.31,-45.4 556.01,-42.91 556.71,-49.88"/>
</a>
</g>
</g>
<!-- Node6&#45;&gt;Node2 -->
<g id="edge6_Node000006_Node000002" class="edge">
<title>Node6&#45;&gt;Node2</title>
<g id="a_edge6_Node000006_Node000002"><a xlink:title=" ">
<path fill="none" stroke="#63b8ff" d="M321.06,-84.04C337.78,-85.6 355.39,-87.26 371.73,-88.79"/>
<polygon fill="#63b8ff" stroke="#63b8ff" points="371.44,-92.28 381.72,-89.72 372.09,-85.31 371.44,-92.28"/>
</a>
</g>
</g>
<!-- Node6&#45;&gt;Node3 -->
<g id="edge7_Node000006_Node000003" class="edge">
<title>Node6&#45;&gt;Node3</title>
<g id="a_edge7_Node000006_Node000003"><a xlink:title=" ">
<path fill="none" stroke="#63b8ff" d="M321.06,-69.57C344.92,-67.21 370.6,-64.67 391.79,-62.57"/>
<polygon fill="#63b8ff" stroke="#63b8ff" points="392.21,-66.05 401.81,-61.58 391.52,-59.08 392.21,-66.05"/>
</a>
</g>
</g>
<!-- Node6&#45;&gt;Node7 -->
<g id="edge8_Node000006_Node000007" class="edge">
<title>Node6&#45;&gt;Node7</title>
<g id="a_edge8_Node000006_Node000007"><a xlink:title=" ">
<path fill="none" stroke="#63b8ff" d="M290.48,-61.92C310.74,-55.12 335.05,-47.05 357,-40 364.03,-37.74 371.42,-35.41 378.76,-33.12"/>
<polygon fill="#63b8ff" stroke="#63b8ff" points="380.18,-36.34 388.68,-30.03 378.1,-29.66 380.18,-36.34"/>
</a>
</g>
</g>
</g>
</svg>
