<?xml version="1.0" encoding="UTF-8" standalone="no"?>
<!DOCTYPE svg PUBLIC "-//W3C//DTD SVG 1.1//EN"
 "http://www.w3.org/Graphics/SVG/1.1/DTD/svg11.dtd">
<!-- Generated by graphviz version 2.43.0 (0)
 -->
<!-- Title: As5047uHandler::GetSensor Pages: 1 -->
<svg width="634pt" height="101pt"
 viewBox="0.00 0.00 634.00 101.00" xmlns="http://www.w3.org/2000/svg" xmlns:xlink="http://www.w3.org/1999/xlink">
<g id="graph0" class="graph" transform="scale(1 1) rotate(0) translate(4 97)">
<title>As5047uHandler::GetSensor</title>
<!-- Node1 -->
<g id="Node000001" class="node">
<title>Node1</title>
<g id="a_Node000001"><a xlink:title="Get pointer to AS5047U driver for advanced operations.">
<polygon fill="#999999" stroke="#666666" points="626,-56 473,-56 473,-37 626,-37 626,-56"/>
<text text-anchor="middle" x="549.5" y="-44" font-family="Helvetica,sans-Serif" font-size="10.00">As5047uHandler::GetSensor</text>
</a>
</g>
</g>
<!-- Node2 -->
<g id="Node000002" class="node">
<title>Node2</title>
<g id="a_Node000002"><a xlink:href="as5047u__handler__comprehensive__test_8cpp.html#aaa3a69b37bf8fcd8431b8495e9b311ca" target="_top" xlink:title=" ">
<polygon fill="white" stroke="#666666" points="427.5,-93 296.5,-93 296.5,-74 427.5,-74 427.5,-93"/>
<text text-anchor="middle" x="362" y="-81" font-family="Helvetica,sans-Serif" font-size="10.00">concurrent_reader_task</text>
</a>
</g>
</g>
<!-- Node1&#45;&gt;Node2 -->
<g id="edge1_Node000001_Node000002" class="edge">
<title>Node1&#45;&gt;Node2</title>
<g id="a_edge1_Node000001_Node000002"><a xlink:title=" ">
<path fill="none" stroke="#63b8ff" d="M490.76,-58.02C465.13,-63.13 435.31,-69.08 410.93,-73.94"/>
<polygon fill="#63b8ff" stroke="#63b8ff" points="491.61,-61.42 500.73,-56.03 490.24,-54.55 491.61,-61.42"/>
</a>
</g>
</g>
<!-- Node5 -->
<g id="Node000005" class="node">
<title>Node5</title>
<g id="a_Node000005"><a xlink:href="classAs5047uHandler.html#a10e4de42743f7ceb1f2fef7cadbfc000" target="_top" xlink:title="Naming&#45;consistent alias of GetSensor().">
<polygon fill="white" stroke="#666666" points="437,-56 287,-56 287,-37 437,-37 437,-56"/>
<text text-anchor="middle" x="362" y="-44" font-family="Helvetica,sans-Serif" font-size="10.00">As5047uHandler::GetDriver</text>
</a>
</g>
</g>
<!-- Node1&#45;&gt;Node5 -->
<g id="edge4_Node000001_Node000005" class="edge">
<title>Node1&#45;&gt;Node5</title>
<g id="a_edge4_Node000001_Node000005"><a xlink:title=" ">
<path fill="none" stroke="#63b8ff" d="M462.54,-46.5C454.1,-46.5 445.59,-46.5 437.28,-46.5"/>
<polygon fill="#63b8ff" stroke="#63b8ff" points="462.78,-50 472.78,-46.5 462.78,-43 462.78,-50"/>
</a>
</g>
</g>
<!-- Node7 -->
<g id="Node000007" class="node">
<title>Node7</title>
<g id="a_Node000007"><a xlink:href="as5047u__handler__comprehensive__test_8cpp.html#ac83f97b7754666b5e7733941b37c5630" target="_top" xlink:title=" ">
<polygon fill="white" stroke="#666666" points="251,-19 101,-19 101,0 251,0 251,-19"/>
<text text-anchor="middle" x="176" y="-7" font-family="Helvetica,sans-Serif" font-size="10.00">test_operations_before_init</text>
</a>
</g>
</g>
<!-- Node1&#45;&gt;Node7 -->
<g id="edge6_Node000001_Node000007" class="edge">
<title>Node1&#45;&gt;Node7</title>
<g id="a_edge6_Node000001_Node000007"><a xlink:title=" ">
<path fill="none" stroke="#63b8ff" d="M485.42,-35.34C469.65,-32.81 452.74,-30.34 437,-28.5 374.52,-21.19 303.23,-16.21 251.13,-13.2"/>
<polygon fill="#63b8ff" stroke="#63b8ff" points="485.17,-38.84 495.6,-36.99 486.29,-31.93 485.17,-38.84"/>
</a>
</g>
</g>
<!-- Node3 -->
<g id="Node000003" class="node">
<title>Node3</title>
<g id="a_Node000003"><a xlink:href="as5047u__handler__comprehensive__test_8cpp.html#ae9b39916d49066b59641c5ae10376c84" target="_top" xlink:title=" ">
<polygon fill="white" stroke="#666666" points="241.5,-93 110.5,-93 110.5,-74 241.5,-74 241.5,-93"/>
<text text-anchor="middle" x="176" y="-81" font-family="Helvetica,sans-Serif" font-size="10.00">test_concurrent_access</text>
</a>
</g>
</g>
<!-- Node2&#45;&gt;Node3 -->
<g id="edge2_Node000002_Node000003" class="edge">
<title>Node2&#45;&gt;Node3</title>
<g id="a_edge2_Node000002_Node000003"><a xlink:title=" ">
<path fill="none" stroke="#63b8ff" d="M286.29,-83.5C271.53,-83.5 256.16,-83.5 241.77,-83.5"/>
<polygon fill="#63b8ff" stroke="#63b8ff" points="286.39,-87 296.39,-83.5 286.39,-80 286.39,-87"/>
</a>
</g>
</g>
<!-- Node4 -->
<g id="Node000004" class="node">
<title>Node4</title>
<g id="a_Node000004"><a xlink:href="as5047u__handler__comprehensive__test_8cpp.html#a630544a7f0a2cc40d8a7fefab7e2fe70" target="_top" xlink:title=" ">
<polygon fill="white" stroke="#666666" points="65,-56 0,-56 0,-37 65,-37 65,-56"/>
<text text-anchor="middle" x="32.5" y="-44" font-family="Helvetica,sans-Serif" font-size="10.00">app_main</text>
</a>
</g>
</g>
<!-- Node3&#45;&gt;Node4 -->
<g id="edge3_Node000003_Node000004" class="edge">
<title>Node3&#45;&gt;Node4</title>
<g id="a_edge3_Node000003_Node000004"><a xlink:title=" ">
<path fill="none" stroke="#63b8ff" d="M124.69,-71.52C116.75,-69.55 108.64,-67.5 101,-65.5 89.22,-62.41 76.35,-58.84 65.03,-55.63"/>
<polygon fill="#63b8ff" stroke="#63b8ff" points="124.06,-74.97 134.61,-73.95 125.73,-68.17 124.06,-74.97"/>
</a>
</g>
</g>
<!-- Node6 -->
<g id="Node000006" class="node">
<title>Node6</title>
<g id="a_Node000006"><a xlink:href="classAs5047uHandler.html#aff42824ec0c4048211b432a35946ce19" target="_top" xlink:title=" ">
<polygon fill="white" stroke="#666666" points="251,-56 101,-56 101,-37 251,-37 251,-56"/>
<text text-anchor="middle" x="176" y="-44" font-family="Helvetica,sans-Serif" font-size="10.00">As5047uHandler::GetDriver</text>
</a>
</g>
</g>
<!-- Node5&#45;&gt;Node6 -->
<g id="edge5_Node000005_Node000006" class="edge">
<title>Node5&#45;&gt;Node6</title>
<g id="a_edge5_Node000005_Node000006"><a xlink:title=" ">
<path fill="none" stroke="#63b8ff" d="M276.93,-46.5C268.35,-46.5 259.66,-46.5 251.19,-46.5"/>
<polygon fill="#63b8ff" stroke="#63b8ff" points="276.96,-50 286.96,-46.5 276.96,-43 276.96,-50"/>
</a>
</g>
</g>
<!-- Node7&#45;&gt;Node4 -->
<g id="edge7_Node000007_Node000004" class="edge">
<title>Node7&#45;&gt;Node4</title>
<g id="a_edge7_Node000007_Node000004"><a xlink:title=" ">
<path fill="none" stroke="#63b8ff" d="M127.84,-21.54C118.92,-23.84 109.67,-26.23 101,-28.5 89.27,-31.57 76.4,-34.99 65.08,-38.01"/>
<polygon fill="#63b8ff" stroke="#63b8ff" points="128.9,-24.88 137.72,-19 127.16,-18.1 128.9,-24.88"/>
</a>
</g>
</g>
</g>
</svg>
