<?xml version="1.0" encoding="UTF-8" standalone="no"?>
<!DOCTYPE svg PUBLIC "-//W3C//DTD SVG 1.1//EN"
 "http://www.w3.org/Graphics/SVG/1.1/DTD/svg11.dtd">
<!-- Generated by graphviz version 2.43.0 (0)
 -->
<!-- Title: Ws2812Handler::Show Pages: 1 -->
<svg width="844pt" height="138pt"
 viewBox="0.00 0.00 844.00 138.00" xmlns="http://www.w3.org/2000/svg" xmlns:xlink="http://www.w3.org/1999/xlink">
<g id="graph0" class="graph" transform="scale(1 1) rotate(0) translate(4 134)">
<title>Ws2812Handler::Show</title>
<!-- Node1 -->
<g id="Node000001" class="node">
<title>Node1</title>
<g id="a_Node000001"><a xlink:title="Transmit pixel data to the LED strip.">
<polygon fill="#999999" stroke="#666666" points="126,-74 0,-74 0,-55 126,-55 126,-74"/>
<text text-anchor="middle" x="63" y="-62" font-family="Helvetica,sans-Serif" font-size="10.00">Ws2812Handler::Show</text>
</a>
</g>
</g>
<!-- Node2 -->
<g id="Node000002" class="node">
<title>Node2</title>
<g id="a_Node000002"><a xlink:href="classWs2812Handler.html#afe5f397b22e9b92cf2fb2cebae6e123d" target="_top" xlink:title=" ">
<polygon fill="white" stroke="#666666" points="343,-79.5 162,-79.5 162,-49.5 343,-49.5 343,-79.5"/>
<text text-anchor="start" x="170" y="-67.5" font-family="Helvetica,sans-Serif" font-size="10.00">Ws2812Handler::EnsureInitialized</text>
<text text-anchor="middle" x="252.5" y="-56.5" font-family="Helvetica,sans-Serif" font-size="10.00">Locked</text>
</a>
</g>
</g>
<!-- Node1&#45;&gt;Node2 -->
<g id="edge1_Node000001_Node000002" class="edge">
<title>Node1&#45;&gt;Node2</title>
<g id="a_edge1_Node000001_Node000002"><a xlink:title=" ">
<path fill="none" stroke="#63b8ff" d="M126.17,-64.5C134.37,-64.5 142.94,-64.5 151.57,-64.5"/>
<polygon fill="#63b8ff" stroke="#63b8ff" points="151.72,-68 161.72,-64.5 151.72,-61 151.72,-68"/>
</a>
</g>
</g>
<!-- Node3 -->
<g id="Node000003" class="node">
<title>Node3</title>
<g id="a_Node000003"><a xlink:href="classWs2812Handler.html#a172ae173d1e2bd93c9808452aad6e4cd" target="_top" xlink:title="Initialize the RMT channel and LED strip.">
<polygon fill="white" stroke="#666666" points="521,-74 379,-74 379,-55 521,-55 521,-74"/>
<text text-anchor="middle" x="450" y="-62" font-family="Helvetica,sans-Serif" font-size="10.00">Ws2812Handler::Initialize</text>
</a>
</g>
</g>
<!-- Node2&#45;&gt;Node3 -->
<g id="edge2_Node000002_Node000003" class="edge">
<title>Node2&#45;&gt;Node3</title>
<g id="a_edge2_Node000002_Node000003"><a xlink:title=" ">
<path fill="none" stroke="#63b8ff" d="M343.24,-64.5C351.73,-64.5 360.3,-64.5 368.7,-64.5"/>
<polygon fill="#63b8ff" stroke="#63b8ff" points="368.84,-68 378.84,-64.5 368.84,-61 368.84,-68"/>
</a>
</g>
</g>
<!-- Node4 -->
<g id="Node000004" class="node">
<title>Node4</title>
<g id="a_Node000004"><a xlink:href="classLogger.html#adce17848a5844e053bfd314863dc1404" target="_top" xlink:title="Log error message.">
<polygon fill="white" stroke="#666666" points="653.5,-130 574.5,-130 574.5,-111 653.5,-111 653.5,-130"/>
<text text-anchor="middle" x="614" y="-118" font-family="Helvetica,sans-Serif" font-size="10.00">Logger::Error</text>
</a>
</g>
</g>
<!-- Node3&#45;&gt;Node4 -->
<g id="edge3_Node000003_Node000004" class="edge">
<title>Node3&#45;&gt;Node4</title>
<g id="a_edge3_Node000003_Node000004"><a xlink:title=" ">
<path fill="none" stroke="#63b8ff" d="M477.05,-74.11C498.46,-81.94 529.61,-93.19 557,-102.5 562.2,-104.27 567.68,-106.08 573.1,-107.85"/>
<polygon fill="#63b8ff" stroke="#63b8ff" points="572.12,-111.22 582.71,-110.97 574.28,-104.56 572.12,-111.22"/>
</a>
</g>
</g>
<!-- Node7 -->
<g id="Node000007" class="node">
<title>Node7</title>
<g id="a_Node000007"><a xlink:href="classLogger.html#a5789d11f8f1356e2192c0023a089cbc4" target="_top" xlink:title="Get singleton instance.">
<polygon fill="white" stroke="#666666" points="671,-19 557,-19 557,0 671,0 671,-19"/>
<text text-anchor="middle" x="614" y="-7" font-family="Helvetica,sans-Serif" font-size="10.00">Logger::GetInstance</text>
</a>
</g>
</g>
<!-- Node3&#45;&gt;Node7 -->
<g id="edge6_Node000003_Node000007" class="edge">
<title>Node3&#45;&gt;Node7</title>
<g id="a_edge6_Node000003_Node000007"><a xlink:title=" ">
<path fill="none" stroke="#63b8ff" d="M477.95,-54.89C499.33,-47.31 530.02,-36.54 557,-27.5 562.2,-25.76 567.69,-23.95 573.11,-22.19"/>
<polygon fill="#63b8ff" stroke="#63b8ff" points="574.29,-25.48 582.73,-19.08 572.14,-18.82 574.29,-25.48"/>
</a>
</g>
</g>
<!-- Node8 -->
<g id="Node000008" class="node">
<title>Node8</title>
<g id="a_Node000008"><a xlink:href="classLogger.html#a4681229c521795685fc14f6b55c82300" target="_top" xlink:title="Log info message.">
<polygon fill="white" stroke="#666666" points="651,-93 577,-93 577,-74 651,-74 651,-93"/>
<text text-anchor="middle" x="614" y="-81" font-family="Helvetica,sans-Serif" font-size="10.00">Logger::Info</text>
</a>
</g>
</g>
<!-- Node3&#45;&gt;Node8 -->
<g id="edge7_Node000003_Node000008" class="edge">
<title>Node3&#45;&gt;Node8</title>
<g id="a_edge7_Node000003_Node000008"><a xlink:title=" ">
<path fill="none" stroke="#63b8ff" d="M521.11,-72.72C536.53,-74.53 552.48,-76.4 566.67,-78.07"/>
<polygon fill="#63b8ff" stroke="#63b8ff" points="566.33,-81.55 576.67,-79.24 567.15,-74.6 566.33,-81.55"/>
</a>
</g>
</g>
<!-- Node9 -->
<g id="Node000009" class="node">
<title>Node9</title>
<g id="a_Node000009"><a xlink:href="classLogger.html#aaa95ffa14d07a965d4a85bdec82cba26" target="_top" xlink:title="Log warning message.">
<polygon fill="white" stroke="#666666" points="654,-56 574,-56 574,-37 654,-37 654,-56"/>
<text text-anchor="middle" x="614" y="-44" font-family="Helvetica,sans-Serif" font-size="10.00">Logger::Warn</text>
</a>
</g>
</g>
<!-- Node3&#45;&gt;Node9 -->
<g id="edge10_Node000003_Node000009" class="edge">
<title>Node3&#45;&gt;Node9</title>
<g id="a_edge10_Node000003_Node000009"><a xlink:title=" ">
<path fill="none" stroke="#63b8ff" d="M521.11,-56.71C535.42,-55.12 550.2,-53.48 563.6,-51.99"/>
<polygon fill="#63b8ff" stroke="#63b8ff" points="564,-55.47 573.55,-50.88 563.22,-48.51 564,-55.47"/>
</a>
</g>
</g>
<!-- Node5 -->
<g id="Node000005" class="node">
<title>Node5</title>
<g id="a_Node000005"><a xlink:href="classLogger.html#af9e84e0ff6bd538e4f9ed8dcebc3e2f0" target="_top" xlink:title="Check if log level is enabled for tag.">
<polygon fill="white" stroke="#666666" points="836,-111 707,-111 707,-92 836,-92 836,-111"/>
<text text-anchor="middle" x="771.5" y="-99" font-family="Helvetica,sans-Serif" font-size="10.00">Logger::IsLevelEnabled</text>
</a>
</g>
</g>
<!-- Node4&#45;&gt;Node5 -->
<g id="edge4_Node000004_Node000005" class="edge">
<title>Node4&#45;&gt;Node5</title>
<g id="a_edge4_Node000004_Node000005"><a xlink:title=" ">
<path fill="none" stroke="#63b8ff" d="M653.84,-115.75C666.85,-114.16 681.82,-112.34 696.6,-110.53"/>
<polygon fill="#63b8ff" stroke="#63b8ff" points="697.28,-113.97 706.78,-109.29 696.43,-107.02 697.28,-113.97"/>
</a>
</g>
</g>
<!-- Node6 -->
<g id="Node000006" class="node">
<title>Node6</title>
<g id="a_Node000006"><a xlink:href="classLogger.html#a6adb205db597526fb91ad20067400394" target="_top" xlink:title="Internal logging method.">
<polygon fill="white" stroke="#666666" points="826.5,-74 716.5,-74 716.5,-55 826.5,-55 826.5,-74"/>
<text text-anchor="middle" x="771.5" y="-62" font-family="Helvetica,sans-Serif" font-size="10.00">Logger::LogInternal</text>
</a>
</g>
</g>
<!-- Node4&#45;&gt;Node6 -->
<g id="edge5_Node000004_Node000006" class="edge">
<title>Node4&#45;&gt;Node6</title>
<g id="a_edge5_Node000004_Node000006"><a xlink:title=" ">
<path fill="none" stroke="#63b8ff" d="M647.92,-110.98C655.59,-108.47 663.66,-105.59 671,-102.5 687.68,-95.48 690.25,-90.35 707,-83.5 712.53,-81.24 718.42,-79.12 724.31,-77.16"/>
<polygon fill="#63b8ff" stroke="#63b8ff" points="725.67,-80.41 734.14,-74.05 723.55,-73.73 725.67,-80.41"/>
</a>
</g>
</g>
<!-- Node8&#45;&gt;Node5 -->
<g id="edge8_Node000008_Node000005" class="edge">
<title>Node8&#45;&gt;Node5</title>
<g id="a_edge8_Node000008_Node000005"><a xlink:title=" ">
<path fill="none" stroke="#63b8ff" d="M651.07,-87.67C664.68,-89.25 680.72,-91.11 696.55,-92.94"/>
<polygon fill="#63b8ff" stroke="#63b8ff" points="696.55,-96.46 706.89,-94.14 697.36,-89.51 696.55,-96.46"/>
</a>
</g>
</g>
<!-- Node8&#45;&gt;Node6 -->
<g id="edge9_Node000008_Node000006" class="edge">
<title>Node8&#45;&gt;Node6</title>
<g id="a_edge9_Node000008_Node000006"><a xlink:title=" ">
<path fill="none" stroke="#63b8ff" d="M651.07,-79.09C667.49,-77.09 687.44,-74.65 706.3,-72.34"/>
<polygon fill="#63b8ff" stroke="#63b8ff" points="706.83,-75.81 716.33,-71.12 705.98,-68.86 706.83,-75.81"/>
</a>
</g>
</g>
<!-- Node9&#45;&gt;Node5 -->
<g id="edge11_Node000009_Node000005" class="edge">
<title>Node9&#45;&gt;Node5</title>
<g id="a_edge11_Node000009_Node000005"><a xlink:title=" ">
<path fill="none" stroke="#63b8ff" d="M645.51,-56.01C653.86,-58.84 662.85,-62.1 671,-65.5 687.51,-72.39 690.32,-77.03 707,-83.5 712.07,-85.47 717.45,-87.33 722.85,-89.05"/>
<polygon fill="#63b8ff" stroke="#63b8ff" points="721.92,-92.42 732.51,-91.99 723.96,-85.73 721.92,-92.42"/>
</a>
</g>
</g>
<!-- Node9&#45;&gt;Node6 -->
<g id="edge12_Node000009_Node000006" class="edge">
<title>Node9&#45;&gt;Node6</title>
<g id="a_edge12_Node000009_Node000006"><a xlink:title=" ">
<path fill="none" stroke="#63b8ff" d="M654.24,-51.04C669.96,-52.86 688.49,-55.01 706.08,-57.04"/>
<polygon fill="#63b8ff" stroke="#63b8ff" points="705.96,-60.55 716.3,-58.23 706.77,-53.6 705.96,-60.55"/>
</a>
</g>
</g>
</g>
</svg>
