<?xml version="1.0" encoding="UTF-8" standalone="no"?>
<!DOCTYPE svg PUBLIC "-//W3C//DTD SVG 1.1//EN"
 "http://www.w3.org/Graphics/SVG/1.1/DTD/svg11.dtd">
<!-- Generated by graphviz version 2.43.0 (0)
 -->
<!-- Title: Tle92466edHandler::withDriver Pages: 1 -->
<svg width="299pt" height="566pt"
 viewBox="0.00 0.00 299.00 566.00" xmlns="http://www.w3.org/2000/svg" xmlns:xlink="http://www.w3.org/1999/xlink">
<g id="graph0" class="graph" transform="scale(1 1) rotate(0) translate(4 562)">
<title>Tle92466edHandler::withDriver</title>
<!-- Node1 -->
<g id="Node000001" class="node">
<title>Node1</title>
<g id="a_Node000001"><a xlink:title="Execute a lambda with a locked, initialized driver.">
<polygon fill="#999999" stroke="#666666" points="291,-294 173,-294 173,-264 291,-264 291,-294"/>
<text text-anchor="start" x="181" y="-282" font-family="Helvetica,sans-Serif" font-size="10.00">Tle92466edHandler::</text>
<text text-anchor="middle" x="232" y="-271" font-family="Helvetica,sans-Serif" font-size="10.00">withDriver</text>
</a>
</g>
</g>
<!-- Node2 -->
<g id="Node000002" class="node">
<title>Node2</title>
<g id="a_Node000002"><a xlink:href="classTle92466edHandler.html#ab3123678e6df690f5669fd89079e0a4e" target="_top" xlink:title="Clear all fault flags.">
<polygon fill="white" stroke="#666666" points="127.5,-558 9.5,-558 9.5,-528 127.5,-528 127.5,-558"/>
<text text-anchor="start" x="17.5" y="-546" font-family="Helvetica,sans-Serif" font-size="10.00">Tle92466edHandler::</text>
<text text-anchor="middle" x="68.5" y="-535" font-family="Helvetica,sans-Serif" font-size="10.00">ClearFaults</text>
</a>
</g>
</g>
<!-- Node1&#45;&gt;Node2 -->
<g id="edge1_Node000001_Node000002" class="edge">
<title>Node1&#45;&gt;Node2</title>
<g id="a_edge1_Node000001_Node000002"><a xlink:title=" ">
<path fill="none" stroke="#63b8ff" d="M228.04,-304.21C221.06,-352.54 199.17,-458.77 137,-519 133.43,-522.46 129.32,-525.43 124.94,-527.97"/>
<polygon fill="#63b8ff" stroke="#63b8ff" points="231.55,-304.39 229.41,-294.02 224.61,-303.46 231.55,-304.39"/>
</a>
</g>
</g>
<!-- Node3 -->
<g id="Node000003" class="node">
<title>Node3</title>
<g id="a_Node000003"><a xlink:href="classTle92466edHandler.html#ac37cbbcce53c7a55657ee61cd5015190" target="_top" xlink:title="Disable all channels.">
<polygon fill="white" stroke="#666666" points="127.5,-510 9.5,-510 9.5,-480 127.5,-480 127.5,-510"/>
<text text-anchor="start" x="17.5" y="-498" font-family="Helvetica,sans-Serif" font-size="10.00">Tle92466edHandler::</text>
<text text-anchor="middle" x="68.5" y="-487" font-family="Helvetica,sans-Serif" font-size="10.00">DisableAllChannels</text>
</a>
</g>
</g>
<!-- Node1&#45;&gt;Node3 -->
<g id="edge2_Node000001_Node000003" class="edge">
<title>Node1&#45;&gt;Node3</title>
<g id="a_edge2_Node000001_Node000003"><a xlink:title=" ">
<path fill="none" stroke="#63b8ff" d="M225.29,-303.98C214.76,-344.61 188.48,-425.07 137,-471 133.2,-474.4 128.88,-477.32 124.31,-479.83"/>
<polygon fill="#63b8ff" stroke="#63b8ff" points="228.73,-304.64 227.75,-294.1 221.94,-302.96 228.73,-304.64"/>
</a>
</g>
</g>
<!-- Node4 -->
<g id="Node000004" class="node">
<title>Node4</title>
<g id="a_Node000004"><a xlink:href="classTle92466edHandler.html#a7785b8d56d0bd25001e5bdf9b8d557a2" target="_top" xlink:title="Drive the chip&#39;s EN pin LOW to gate off the output stage. SPI access remains functional; only the hig...">
<polygon fill="white" stroke="#666666" points="127.5,-462 9.5,-462 9.5,-432 127.5,-432 127.5,-462"/>
<text text-anchor="start" x="17.5" y="-450" font-family="Helvetica,sans-Serif" font-size="10.00">Tle92466edHandler::</text>
<text text-anchor="middle" x="68.5" y="-439" font-family="Helvetica,sans-Serif" font-size="10.00">DisableOutputStage</text>
</a>
</g>
</g>
<!-- Node1&#45;&gt;Node4 -->
<g id="edge3_Node000001_Node000004" class="edge">
<title>Node1&#45;&gt;Node4</title>
<g id="a_edge3_Node000001_Node000004"><a xlink:title=" ">
<path fill="none" stroke="#63b8ff" d="M220.84,-303.88C206.62,-335.79 177.85,-390.83 137,-423 132.7,-426.39 127.88,-429.32 122.86,-431.85"/>
<polygon fill="#63b8ff" stroke="#63b8ff" points="224.19,-304.96 224.95,-294.39 217.77,-302.18 224.19,-304.96"/>
</a>
</g>
</g>
<!-- Node5 -->
<g id="Node000005" class="node">
<title>Node5</title>
<g id="a_Node000005"><a xlink:href="classTle92466edHandler.html#a1ee30771436827a1499a379aa7e5ab49" target="_top" xlink:title="Enable all channels.">
<polygon fill="white" stroke="#666666" points="127.5,-414 9.5,-414 9.5,-384 127.5,-384 127.5,-414"/>
<text text-anchor="start" x="17.5" y="-402" font-family="Helvetica,sans-Serif" font-size="10.00">Tle92466edHandler::</text>
<text text-anchor="middle" x="68.5" y="-391" font-family="Helvetica,sans-Serif" font-size="10.00">EnableAllChannels</text>
</a>
</g>
</g>
<!-- Node1&#45;&gt;Node5 -->
<g id="edge4_Node000001_Node000005" class="edge">
<title>Node1&#45;&gt;Node5</title>
<g id="a_edge4_Node000001_Node000005"><a xlink:title=" ">
<path fill="none" stroke="#63b8ff" d="M213.59,-302.06C196.27,-323.58 167.88,-355.26 137,-375 131.76,-378.35 125.99,-381.31 120.1,-383.9"/>
<polygon fill="#63b8ff" stroke="#63b8ff" points="216.44,-304.1 219.88,-294.08 210.94,-299.76 216.44,-304.1"/>
</a>
</g>
</g>
<!-- Node6 -->
<g id="Node000006" class="node">
<title>Node6</title>
<g id="a_Node000006"><a xlink:href="classTle92466edHandler.html#ad9d8117d83234cdd7947aeeb40281b36" target="_top" xlink:title="Clear the FB_FRZ register so the chip updates FB_DC / FB_I_AVG / FB_VBAT on every channel.">
<polygon fill="white" stroke="#666666" points="137,-366 0,-366 0,-336 137,-336 137,-366"/>
<text text-anchor="start" x="8" y="-354" font-family="Helvetica,sans-Serif" font-size="10.00">Tle92466edHandler::</text>
<text text-anchor="middle" x="68.5" y="-343" font-family="Helvetica,sans-Serif" font-size="10.00">EnableFeedbackUpdates</text>
</a>
</g>
</g>
<!-- Node1&#45;&gt;Node6 -->
<g id="edge5_Node000001_Node000006" class="edge">
<title>Node1&#45;&gt;Node6</title>
<g id="a_edge5_Node000001_Node000006"><a xlink:title=" ">
<path fill="none" stroke="#63b8ff" d="M194.74,-298.91C177.5,-308.02 156.45,-318.62 137,-327 129.8,-330.1 122.06,-333.13 114.48,-335.93"/>
<polygon fill="#63b8ff" stroke="#63b8ff" points="196.72,-301.83 203.89,-294.03 193.42,-295.65 196.72,-301.83"/>
</a>
</g>
</g>
<!-- Node7 -->
<g id="Node000007" class="node">
<title>Node7</title>
<g id="a_Node000007"><a xlink:href="classTle92466edHandler.html#aec30fe1266505d13b73f02c7f92e1618" target="_top" xlink:title="Drive the chip&#39;s hardware EN pin HIGH so the output stage can deliver current to the load.">
<polygon fill="white" stroke="#666666" points="127.5,-318 9.5,-318 9.5,-288 127.5,-288 127.5,-318"/>
<text text-anchor="start" x="17.5" y="-306" font-family="Helvetica,sans-Serif" font-size="10.00">Tle92466edHandler::</text>
<text text-anchor="middle" x="68.5" y="-295" font-family="Helvetica,sans-Serif" font-size="10.00">EnableOutputStage</text>
</a>
</g>
</g>
<!-- Node1&#45;&gt;Node7 -->
<g id="edge6_Node000001_Node000007" class="edge">
<title>Node1&#45;&gt;Node7</title>
<g id="a_edge6_Node000001_Node000007"><a xlink:title=" ">
<path fill="none" stroke="#63b8ff" d="M162.61,-289.16C151,-290.89 139.04,-292.67 127.72,-294.35"/>
<polygon fill="#63b8ff" stroke="#63b8ff" points="163.32,-292.6 172.69,-287.66 162.29,-285.67 163.32,-292.6"/>
</a>
</g>
</g>
<!-- Node8 -->
<g id="Node000008" class="node">
<title>Node8</title>
<g id="a_Node000008"><a xlink:href="classTle92466edHandler.html#a19b966bb109b988eb98d319b76908667" target="_top" xlink:title="Enter config mode (for register writes).">
<polygon fill="white" stroke="#666666" points="127.5,-270 9.5,-270 9.5,-240 127.5,-240 127.5,-270"/>
<text text-anchor="start" x="17.5" y="-258" font-family="Helvetica,sans-Serif" font-size="10.00">Tle92466edHandler::</text>
<text text-anchor="middle" x="68.5" y="-247" font-family="Helvetica,sans-Serif" font-size="10.00">EnterConfigMode</text>
</a>
</g>
</g>
<!-- Node1&#45;&gt;Node8 -->
<g id="edge7_Node000001_Node000008" class="edge">
<title>Node1&#45;&gt;Node8</title>
<g id="a_edge7_Node000001_Node000008"><a xlink:title=" ">
<path fill="none" stroke="#63b8ff" d="M162.61,-268.84C151,-267.11 139.04,-265.33 127.72,-263.65"/>
<polygon fill="#63b8ff" stroke="#63b8ff" points="162.29,-272.33 172.69,-270.34 163.32,-265.4 162.29,-272.33"/>
</a>
</g>
</g>
<!-- Node9 -->
<g id="Node000009" class="node">
<title>Node9</title>
<g id="a_Node000009"><a xlink:href="classTle92466edHandler.html#aee10ff4c219a042d260a6b1f58a9219a" target="_top" xlink:title="Enter mission mode (enable outputs after configuration).">
<polygon fill="white" stroke="#666666" points="127.5,-222 9.5,-222 9.5,-192 127.5,-192 127.5,-222"/>
<text text-anchor="start" x="17.5" y="-210" font-family="Helvetica,sans-Serif" font-size="10.00">Tle92466edHandler::</text>
<text text-anchor="middle" x="68.5" y="-199" font-family="Helvetica,sans-Serif" font-size="10.00">EnterMissionMode</text>
</a>
</g>
</g>
<!-- Node1&#45;&gt;Node9 -->
<g id="edge8_Node000001_Node000009" class="edge">
<title>Node1&#45;&gt;Node9</title>
<g id="a_edge8_Node000001_Node000009"><a xlink:title=" ">
<path fill="none" stroke="#63b8ff" d="M194.74,-259.09C177.5,-249.98 156.45,-239.38 137,-231 129.8,-227.9 122.06,-224.87 114.48,-222.07"/>
<polygon fill="#63b8ff" stroke="#63b8ff" points="193.42,-262.35 203.89,-263.97 196.72,-256.17 193.42,-262.35"/>
</a>
</g>
</g>
<!-- Node10 -->
<g id="Node000010" class="node">
<title>Node10</title>
<g id="a_Node000010"><a xlink:href="classTle92466edHandler.html#a4c646ee5db271f07517cc15e8a623f0e" target="_top" xlink:title="Get chip ID (returns 0 on error).">
<polygon fill="white" stroke="#666666" points="127.5,-174 9.5,-174 9.5,-144 127.5,-144 127.5,-174"/>
<text text-anchor="start" x="17.5" y="-162" font-family="Helvetica,sans-Serif" font-size="10.00">Tle92466edHandler::</text>
<text text-anchor="middle" x="68.5" y="-151" font-family="Helvetica,sans-Serif" font-size="10.00">GetChipId</text>
</a>
</g>
</g>
<!-- Node1&#45;&gt;Node10 -->
<g id="edge9_Node000001_Node000010" class="edge">
<title>Node1&#45;&gt;Node10</title>
<g id="a_edge9_Node000001_Node000010"><a xlink:title=" ">
<path fill="none" stroke="#63b8ff" d="M213.59,-255.94C196.27,-234.42 167.88,-202.74 137,-183 131.76,-179.65 125.99,-176.69 120.1,-174.1"/>
<polygon fill="#63b8ff" stroke="#63b8ff" points="210.94,-258.24 219.88,-263.92 216.44,-253.9 210.94,-258.24"/>
</a>
</g>
</g>
<!-- Node11 -->
<g id="Node000011" class="node">
<title>Node11</title>
<g id="a_Node000011"><a xlink:href="classTle92466edHandler.html#a0c29d4ada1c9247dc90fb64d914dec1f" target="_top" xlink:title="Get IC version (returns 0 on error).">
<polygon fill="white" stroke="#666666" points="127.5,-126 9.5,-126 9.5,-96 127.5,-96 127.5,-126"/>
<text text-anchor="start" x="17.5" y="-114" font-family="Helvetica,sans-Serif" font-size="10.00">Tle92466edHandler::</text>
<text text-anchor="middle" x="68.5" y="-103" font-family="Helvetica,sans-Serif" font-size="10.00">GetIcVersion</text>
</a>
</g>
</g>
<!-- Node1&#45;&gt;Node11 -->
<g id="edge10_Node000001_Node000011" class="edge">
<title>Node1&#45;&gt;Node11</title>
<g id="a_edge10_Node000001_Node000011"><a xlink:title=" ">
<path fill="none" stroke="#63b8ff" d="M220.84,-254.12C206.62,-222.21 177.85,-167.17 137,-135 132.7,-131.61 127.88,-128.68 122.86,-126.15"/>
<polygon fill="#63b8ff" stroke="#63b8ff" points="217.77,-255.82 224.95,-263.61 224.19,-253.04 217.77,-255.82"/>
</a>
</g>
</g>
<!-- Node12 -->
<g id="Node000012" class="node">
<title>Node12</title>
<g id="a_Node000012"><a xlink:href="classTle92466edHandler.html#ab86e6d3eb2dca25154a8fa7c42ddb945" target="_top" xlink:title="Check if any fault is present.">
<polygon fill="white" stroke="#666666" points="127.5,-78 9.5,-78 9.5,-48 127.5,-48 127.5,-78"/>
<text text-anchor="start" x="17.5" y="-66" font-family="Helvetica,sans-Serif" font-size="10.00">Tle92466edHandler::</text>
<text text-anchor="middle" x="68.5" y="-55" font-family="Helvetica,sans-Serif" font-size="10.00">HasFault</text>
</a>
</g>
</g>
<!-- Node1&#45;&gt;Node12 -->
<g id="edge11_Node000001_Node000012" class="edge">
<title>Node1&#45;&gt;Node12</title>
<g id="a_edge11_Node000001_Node000012"><a xlink:title=" ">
<path fill="none" stroke="#63b8ff" d="M225.29,-254.02C214.76,-213.39 188.48,-132.93 137,-87 133.2,-83.6 128.88,-80.68 124.31,-78.17"/>
<polygon fill="#63b8ff" stroke="#63b8ff" points="221.94,-255.04 227.75,-263.9 228.73,-253.36 221.94,-255.04"/>
</a>
</g>
</g>
<!-- Node13 -->
<g id="Node000013" class="node">
<title>Node13</title>
<g id="a_Node000013"><a xlink:href="classTle92466edHandler.html#a6bcbd117208f3e44f2216d45541eb4fa" target="_top" xlink:title="Check if in mission mode.">
<polygon fill="white" stroke="#666666" points="127.5,-30 9.5,-30 9.5,0 127.5,0 127.5,-30"/>
<text text-anchor="start" x="17.5" y="-18" font-family="Helvetica,sans-Serif" font-size="10.00">Tle92466edHandler::</text>
<text text-anchor="middle" x="68.5" y="-7" font-family="Helvetica,sans-Serif" font-size="10.00">IsMissionMode</text>
</a>
</g>
</g>
<!-- Node1&#45;&gt;Node13 -->
<g id="edge12_Node000001_Node000013" class="edge">
<title>Node1&#45;&gt;Node13</title>
<g id="a_edge12_Node000001_Node000013"><a xlink:title=" ">
<path fill="none" stroke="#63b8ff" d="M228.04,-253.79C221.06,-205.46 199.17,-99.23 137,-39 133.43,-35.54 129.32,-32.57 124.94,-30.03"/>
<polygon fill="#63b8ff" stroke="#63b8ff" points="224.61,-254.54 229.41,-263.98 231.55,-253.61 224.61,-254.54"/>
</a>
</g>
</g>
</g>
</svg>
