<?xml version="1.0" encoding="UTF-8" standalone="no"?>
<!DOCTYPE svg PUBLIC "-//W3C//DTD SVG 1.1//EN"
 "http://www.w3.org/Graphics/SVG/1.1/DTD/svg11.dtd">
<!-- Generated by graphviz version 2.43.0 (0)
 -->
<!-- Title: Tmc9660Handler::GetChipTemperature Pages: 1 -->
<svg width="1182pt" height="207pt"
 viewBox="0.00 0.00 1182.00 206.71" xmlns="http://www.w3.org/2000/svg" xmlns:xlink="http://www.w3.org/1999/xlink">
<g id="graph0" class="graph" transform="scale(1 1) rotate(0) translate(4 202.71)">
<title>Tmc9660Handler::GetChipTemperature</title>
<!-- Node1 -->
<g id="Node000001" class="node">
<title>Node1</title>
<g id="a_Node000001"><a xlink:title="Read the TMC9660 internal chip temperature.">
<polygon fill="#999999" stroke="#666666" points="206,-37.21 0,-37.21 0,-18.21 206,-18.21 206,-37.21"/>
<text text-anchor="middle" x="103" y="-25.21" font-family="Helvetica,sans-Serif" font-size="10.00">Tmc9660Handler::GetChipTemperature</text>
</a>
</g>
</g>
<!-- Node2 -->
<g id="Node000002" class="node">
<title>Node2</title>
<g id="a_Node000002"><a xlink:href="classTmc9660Handler.html#a5a279ae9d4b5a8e0d71cb24577ad88ea" target="_top" xlink:title="Ensure driver is initialized (lazy init entrypoint).">
<polygon fill="white" stroke="#666666" points="622,-75.21 435,-75.21 435,-56.21 622,-56.21 622,-75.21"/>
<text text-anchor="middle" x="528.5" y="-63.21" font-family="Helvetica,sans-Serif" font-size="10.00">Tmc9660Handler::EnsureInitialized</text>
</a>
</g>
</g>
<!-- Node1&#45;&gt;Node2 -->
<g id="edge1_Node000001_Node000002" class="edge">
<title>Node1&#45;&gt;Node2</title>
<g id="a_edge1_Node000001_Node000002"><a xlink:title=" ">
<path fill="none" stroke="#63b8ff" d="M166.4,-37.24C190.04,-40.61 217.22,-44.18 242,-46.71 302.48,-52.87 370.38,-57.49 424.79,-60.62"/>
<polygon fill="#63b8ff" stroke="#63b8ff" points="424.6,-64.12 434.79,-61.19 425,-57.13 424.6,-64.12"/>
</a>
</g>
</g>
<!-- Node10 -->
<g id="Node000010" class="node">
<title>Node10</title>
<g id="a_Node000010"><a xlink:href="classTmc9660Handler.html#a393382194d0602e7aa02da6a8fd7a20a" target="_top" xlink:title="Get a reference to the Temperature wrapper.">
<polygon fill="white" stroke="#666666" points="1009,-21.21 842,-21.21 842,-2.21 1009,-2.21 1009,-21.21"/>
<text text-anchor="middle" x="925.5" y="-9.21" font-family="Helvetica,sans-Serif" font-size="10.00">Tmc9660Handler::temperature</text>
</a>
</g>
</g>
<!-- Node1&#45;&gt;Node10 -->
<g id="edge15_Node000001_Node000010" class="edge">
<title>Node1&#45;&gt;Node10</title>
<g id="a_edge15_Node000001_Node000010"><a xlink:title=" ">
<path fill="none" stroke="#63b8ff" d="M160.22,-18.19C185.18,-14.43 214.98,-10.56 242,-8.71 452.55,5.72 700.49,-1.38 831.88,-7.03"/>
<polygon fill="#63b8ff" stroke="#63b8ff" points="831.76,-10.53 841.91,-7.47 832.07,-3.54 831.76,-10.53"/>
</a>
</g>
</g>
<!-- Node11 -->
<g id="Node000011" class="node">
<title>Node11</title>
<g id="a_Node000011"><a xlink:href="classTmc9660Handler.html#a4360829b58deda85e9da4b9cebee96f0" target="_top" xlink:title="Execute a function on the underlying typed TMC9660 driver.">
<polygon fill="white" stroke="#666666" points="399,-37.21 242,-37.21 242,-18.21 399,-18.21 399,-37.21"/>
<text text-anchor="middle" x="320.5" y="-25.21" font-family="Helvetica,sans-Serif" font-size="10.00">Tmc9660Handler::visitDriver</text>
</a>
</g>
</g>
<!-- Node1&#45;&gt;Node11 -->
<g id="edge16_Node000001_Node000011" class="edge">
<title>Node1&#45;&gt;Node11</title>
<g id="a_edge16_Node000001_Node000011"><a xlink:title=" ">
<path fill="none" stroke="#63b8ff" d="M206.07,-27.71C214.66,-27.71 223.29,-27.71 231.75,-27.71"/>
<polygon fill="#63b8ff" stroke="#63b8ff" points="231.97,-31.21 241.97,-27.71 231.97,-24.21 231.97,-31.21"/>
</a>
</g>
</g>
<!-- Node3 -->
<g id="Node000003" class="node">
<title>Node3</title>
<g id="a_Node000003"><a xlink:href="classTmc9660Handler.html#adc564847f8ae26c47412aaee0758991c" target="_top" xlink:title="Initialize the TMC9660 device.">
<polygon fill="white" stroke="#666666" points="806,-113.21 658,-113.21 658,-94.21 806,-94.21 806,-113.21"/>
<text text-anchor="middle" x="732" y="-101.21" font-family="Helvetica,sans-Serif" font-size="10.00">Tmc9660Handler::Initialize</text>
</a>
</g>
</g>
<!-- Node2&#45;&gt;Node3 -->
<g id="edge2_Node000002_Node000003" class="edge">
<title>Node2&#45;&gt;Node3</title>
<g id="a_edge2_Node000002_Node000003"><a xlink:title=" ">
<path fill="none" stroke="#63b8ff" d="M580.09,-75.25C607.51,-80.42 641.6,-86.85 670.43,-92.28"/>
<polygon fill="#63b8ff" stroke="#63b8ff" points="669.92,-95.75 680.39,-94.16 671.21,-88.87 669.92,-95.75"/>
</a>
</g>
</g>
<!-- Node9 -->
<g id="Node000009" class="node">
<title>Node9</title>
<g id="a_Node000009"><a xlink:href="classTmc9660Handler.html#a13db97d201a287d8aa60384e04070b9f" target="_top" xlink:title="Check if the TMC9660 driver has been initialized and is ready.">
<polygon fill="white" stroke="#666666" points="997.5,-198.71 853.5,-198.71 853.5,-168.71 997.5,-168.71 997.5,-198.71"/>
<text text-anchor="start" x="861.5" y="-186.71" font-family="Helvetica,sans-Serif" font-size="10.00">Tmc9660Handler::IsDriver</text>
<text text-anchor="middle" x="925.5" y="-175.71" font-family="Helvetica,sans-Serif" font-size="10.00">Ready</text>
</a>
</g>
</g>
<!-- Node2&#45;&gt;Node9 -->
<g id="edge14_Node000002_Node000009" class="edge">
<title>Node2&#45;&gt;Node9</title>
<g id="a_edge14_Node000002_Node000009"><a xlink:title=" ">
<path fill="none" stroke="#63b8ff" d="M548.2,-75.38C572.82,-87.78 617.71,-109.3 658,-122.71 718.92,-142.98 789.88,-158.86 843.25,-169.33"/>
<polygon fill="#63b8ff" stroke="#63b8ff" points="842.86,-172.82 853.34,-171.29 844.19,-165.95 842.86,-172.82"/>
</a>
</g>
</g>
<!-- Node4 -->
<g id="Node000004" class="node">
<title>Node4</title>
<g id="a_Node000004"><a xlink:href="classLogger.html#a5e4bcdaea60b9ac227b564d780388769" target="_top" xlink:title="Log error message.">
<polygon fill="white" stroke="#666666" points="965,-76.21 886,-76.21 886,-57.21 965,-57.21 965,-76.21"/>
<text text-anchor="middle" x="925.5" y="-64.21" font-family="Helvetica,sans-Serif" font-size="10.00">Logger::Error</text>
</a>
</g>
</g>
<!-- Node3&#45;&gt;Node4 -->
<g id="edge3_Node000003_Node000004" class="edge">
<title>Node3&#45;&gt;Node4</title>
<g id="a_edge3_Node000003_Node000004"><a xlink:title=" ">
<path fill="none" stroke="#63b8ff" d="M782.32,-94.18C811.04,-88.63 847.11,-81.66 875.74,-76.13"/>
<polygon fill="#63b8ff" stroke="#63b8ff" points="876.77,-79.49 885.92,-74.16 875.44,-72.62 876.77,-79.49"/>
</a>
</g>
</g>
<!-- Node7 -->
<g id="Node000007" class="node">
<title>Node7</title>
<g id="a_Node000007"><a xlink:href="classLogger.html#a5789d11f8f1356e2192c0023a089cbc4" target="_top" xlink:title="Get singleton instance.">
<polygon fill="white" stroke="#666666" points="982.5,-150.21 868.5,-150.21 868.5,-131.21 982.5,-131.21 982.5,-150.21"/>
<text text-anchor="middle" x="925.5" y="-138.21" font-family="Helvetica,sans-Serif" font-size="10.00">Logger::GetInstance</text>
</a>
</g>
</g>
<!-- Node3&#45;&gt;Node7 -->
<g id="edge6_Node000003_Node000007" class="edge">
<title>Node3&#45;&gt;Node7</title>
<g id="a_edge6_Node000003_Node000007"><a xlink:title=" ">
<path fill="none" stroke="#63b8ff" d="M782.32,-113.23C807.57,-118.11 838.51,-124.09 865.07,-129.22"/>
<polygon fill="#63b8ff" stroke="#63b8ff" points="864.54,-132.68 875.02,-131.15 865.86,-125.81 864.54,-132.68"/>
</a>
</g>
</g>
<!-- Node8 -->
<g id="Node000008" class="node">
<title>Node8</title>
<g id="a_Node000008"><a xlink:href="classLogger.html#a1c0c947d87884bca0395fd38d19d1102" target="_top" xlink:title="Log info message.">
<polygon fill="white" stroke="#666666" points="962.5,-113.21 888.5,-113.21 888.5,-94.21 962.5,-94.21 962.5,-113.21"/>
<text text-anchor="middle" x="925.5" y="-101.21" font-family="Helvetica,sans-Serif" font-size="10.00">Logger::Info</text>
</a>
</g>
</g>
<!-- Node3&#45;&gt;Node8 -->
<g id="edge7_Node000003_Node000008" class="edge">
<title>Node3&#45;&gt;Node8</title>
<g id="a_edge7_Node000003_Node000008"><a xlink:title=" ">
<path fill="none" stroke="#63b8ff" d="M806.22,-103.71C830.35,-103.71 856.52,-103.71 878.08,-103.71"/>
<polygon fill="#63b8ff" stroke="#63b8ff" points="878.27,-107.21 888.27,-103.71 878.27,-100.21 878.27,-107.21"/>
</a>
</g>
</g>
<!-- Node3&#45;&gt;Node9 -->
<g id="edge10_Node000003_Node000009" class="edge">
<title>Node3&#45;&gt;Node9</title>
<g id="a_edge10_Node000003_Node000009"><a xlink:title=" ">
<path fill="none" stroke="#63b8ff" d="M749.16,-113.26C770.05,-125.3 807.8,-146.09 842,-159.71 847.02,-161.71 852.28,-163.62 857.6,-165.43"/>
<polygon fill="#63b8ff" stroke="#63b8ff" points="856.62,-168.8 867.21,-168.59 858.8,-162.14 856.62,-168.8"/>
</a>
</g>
</g>
<!-- Node3&#45;&gt;Node10 -->
<g id="edge11_Node000003_Node000010" class="edge">
<title>Node3&#45;&gt;Node10</title>
<g id="a_edge11_Node000003_Node000010"><a xlink:title=" ">
<path fill="none" stroke="#63b8ff" d="M771.71,-94.09C783.15,-90.44 795.43,-85.68 806,-79.71 824.38,-69.32 824.18,-60.03 842,-48.71 856.56,-39.45 873.83,-31.32 888.79,-25.06"/>
<polygon fill="#63b8ff" stroke="#63b8ff" points="890.3,-28.22 898.24,-21.22 887.66,-21.74 890.3,-28.22"/>
</a>
</g>
</g>
<!-- Node5 -->
<g id="Node000005" class="node">
<title>Node5</title>
<g id="a_Node000005"><a xlink:href="classLogger.html#a737b981213c02321a5235848334d7191" target="_top" xlink:title="Check if log level is enabled for tag.">
<polygon fill="white" stroke="#666666" points="1174,-113.21 1045,-113.21 1045,-94.21 1174,-94.21 1174,-113.21"/>
<text text-anchor="middle" x="1109.5" y="-101.21" font-family="Helvetica,sans-Serif" font-size="10.00">Logger::IsLevelEnabled</text>
</a>
</g>
</g>
<!-- Node4&#45;&gt;Node5 -->
<g id="edge4_Node000004_Node000005" class="edge">
<title>Node4&#45;&gt;Node5</title>
<g id="a_edge4_Node000004_Node000005"><a xlink:title=" ">
<path fill="none" stroke="#63b8ff" d="M965.1,-74.55C990.19,-79.65 1023.34,-86.39 1051.45,-92.11"/>
<polygon fill="#63b8ff" stroke="#63b8ff" points="1051.06,-95.6 1061.56,-94.16 1052.45,-88.74 1051.06,-95.6"/>
</a>
</g>
</g>
<!-- Node6 -->
<g id="Node000006" class="node">
<title>Node6</title>
<g id="a_Node000006"><a xlink:href="classLogger.html#aeede6ac18db92a47caede076ef188a13" target="_top" xlink:title="Internal logging method.">
<polygon fill="white" stroke="#666666" points="1164.5,-76.21 1054.5,-76.21 1054.5,-57.21 1164.5,-57.21 1164.5,-76.21"/>
<text text-anchor="middle" x="1109.5" y="-64.21" font-family="Helvetica,sans-Serif" font-size="10.00">Logger::LogInternal</text>
</a>
</g>
</g>
<!-- Node4&#45;&gt;Node6 -->
<g id="edge5_Node000004_Node000006" class="edge">
<title>Node4&#45;&gt;Node6</title>
<g id="a_edge5_Node000004_Node000006"><a xlink:title=" ">
<path fill="none" stroke="#63b8ff" d="M965.1,-66.71C988.03,-66.71 1017.71,-66.71 1044.11,-66.71"/>
<polygon fill="#63b8ff" stroke="#63b8ff" points="1044.43,-70.21 1054.43,-66.71 1044.43,-63.21 1044.43,-70.21"/>
</a>
</g>
</g>
<!-- Node8&#45;&gt;Node5 -->
<g id="edge8_Node000008_Node000005" class="edge">
<title>Node8&#45;&gt;Node5</title>
<g id="a_edge8_Node000008_Node000005"><a xlink:title=" ">
<path fill="none" stroke="#63b8ff" d="M962.89,-103.71C983.5,-103.71 1010.03,-103.71 1034.79,-103.71"/>
<polygon fill="#63b8ff" stroke="#63b8ff" points="1034.9,-107.21 1044.9,-103.71 1034.9,-100.21 1034.9,-107.21"/>
</a>
</g>
</g>
<!-- Node8&#45;&gt;Node6 -->
<g id="edge9_Node000008_Node000006" class="edge">
<title>Node8&#45;&gt;Node6</title>
<g id="a_edge9_Node000008_Node000006"><a xlink:title=" ">
<path fill="none" stroke="#63b8ff" d="M962.89,-96.31C988.23,-91.16 1022.52,-84.19 1051.46,-78.3"/>
<polygon fill="#63b8ff" stroke="#63b8ff" points="1052.35,-81.69 1061.45,-76.27 1050.95,-74.83 1052.35,-81.69"/>
</a>
</g>
</g>
<!-- Node10&#45;&gt;Node2 -->
<g id="edge12_Node000010_Node000002" class="edge">
<title>Node10&#45;&gt;Node2</title>
<g id="a_edge12_Node000010_Node000002"><a xlink:title=" ">
<path fill="none" stroke="#63b8ff" d="M892.61,-21.27C868.92,-28.01 835.71,-36.69 806,-41.71 748.99,-51.33 684.67,-57.21 632.42,-60.73"/>
<polygon fill="#63b8ff" stroke="#63b8ff" points="631.89,-57.26 622.14,-61.41 632.35,-64.24 631.89,-57.26"/>
</a>
</g>
</g>
<!-- Node10&#45;&gt;Node10 -->
<g id="edge13_Node000010_Node000010" class="edge">
<title>Node10&#45;&gt;Node10</title>
<g id="a_edge13_Node000010_Node000010"><a xlink:title=" ">
<path fill="none" stroke="#63b8ff" d="M897.14,-21.29C883.34,-29.94 892.8,-39.21 925.5,-39.21 947.98,-39.21 959.48,-34.83 959.98,-29.28"/>
<polygon fill="#63b8ff" stroke="#63b8ff" points="962.72,-27.1 953.86,-21.29 957.16,-31.35 962.72,-27.1"/>
</a>
</g>
</g>
<!-- Node11&#45;&gt;Node2 -->
<g id="edge17_Node000011_Node000002" class="edge">
<title>Node11&#45;&gt;Node2</title>
<g id="a_edge17_Node000011_Node000002"><a xlink:title=" ">
<path fill="none" stroke="#63b8ff" d="M373.22,-37.25C401.26,-42.42 436.1,-48.85 465.58,-54.28"/>
<polygon fill="#63b8ff" stroke="#63b8ff" points="465.29,-57.79 475.76,-56.16 466.56,-50.91 465.29,-57.79"/>
</a>
</g>
</g>
<!-- Node11&#45;&gt;Node10 -->
<g id="edge18_Node000011_Node000010" class="edge">
<title>Node11&#45;&gt;Node10</title>
<g id="a_edge18_Node000011_Node000010"><a xlink:title=" ">
<path fill="none" stroke="#63b8ff" d="M399.1,-25.65C509.9,-22.71 713.14,-17.31 831.74,-14.17"/>
<polygon fill="#63b8ff" stroke="#63b8ff" points="831.99,-17.66 841.89,-13.9 831.8,-10.66 831.99,-17.66"/>
</a>
</g>
</g>
</g>
</svg>
