<?xml version="1.0" encoding="UTF-8" standalone="no"?>
<!DOCTYPE svg PUBLIC "-//W3C//DTD SVG 1.1//EN"
 "http://www.w3.org/Graphics/SVG/1.1/DTD/svg11.dtd">
<!-- Generated by graphviz version 2.43.0 (0)
 -->
<!-- Title: Tmc5160Handler::EnsureInitialized Pages: 1 -->
<svg width="917pt" height="138pt"
 viewBox="0.00 0.00 917.00 138.00" xmlns="http://www.w3.org/2000/svg" xmlns:xlink="http://www.w3.org/1999/xlink">
<g id="graph0" class="graph" transform="scale(1 1) rotate(0) translate(4 134)">
<title>Tmc5160Handler::EnsureInitialized</title>
<!-- Node1 -->
<g id="Node000001" class="node">
<title>Node1</title>
<g id="a_Node000001"><a xlink:title="Ensure driver is initialized (lazy init entrypoint).">
<polygon fill="#999999" stroke="#666666" points="187,-74 0,-74 0,-55 187,-55 187,-74"/>
<text text-anchor="middle" x="93.5" y="-62" font-family="Helvetica,sans-Serif" font-size="10.00">Tmc5160Handler::EnsureInitialized</text>
</a>
</g>
</g>
<!-- Node2 -->
<g id="Node000002" class="node">
<title>Node2</title>
<g id="a_Node000002"><a xlink:href="classTmc5160Handler.html#a6d4fce2433e03bb11b05a4278ef66fd0" target="_top" xlink:title=" ">
<polygon fill="white" stroke="#666666" points="410,-79.5 223,-79.5 223,-49.5 410,-49.5 410,-79.5"/>
<text text-anchor="start" x="231" y="-67.5" font-family="Helvetica,sans-Serif" font-size="10.00">Tmc5160Handler::EnsureInitialized</text>
<text text-anchor="middle" x="316.5" y="-56.5" font-family="Helvetica,sans-Serif" font-size="10.00">Locked</text>
</a>
</g>
</g>
<!-- Node1&#45;&gt;Node2 -->
<g id="edge1_Node000001_Node000002" class="edge">
<title>Node1&#45;&gt;Node2</title>
<g id="a_edge1_Node000001_Node000002"><a xlink:title=" ">
<path fill="none" stroke="#63b8ff" d="M187.26,-64.5C195.75,-64.5 204.39,-64.5 212.96,-64.5"/>
<polygon fill="#63b8ff" stroke="#63b8ff" points="212.97,-68 222.97,-64.5 212.97,-61 212.97,-68"/>
</a>
</g>
</g>
<!-- Node3 -->
<g id="Node000003" class="node">
<title>Node3</title>
<g id="a_Node000003"><a xlink:href="classTmc5160Handler.html#a64755f326176b0a38485acf5ca69fd0c" target="_top" xlink:title="Initialize the TMC5160 driver with full configuration.">
<polygon fill="white" stroke="#666666" points="594,-74 446,-74 446,-55 594,-55 594,-74"/>
<text text-anchor="middle" x="520" y="-62" font-family="Helvetica,sans-Serif" font-size="10.00">Tmc5160Handler::Initialize</text>
</a>
</g>
</g>
<!-- Node2&#45;&gt;Node3 -->
<g id="edge2_Node000002_Node000003" class="edge">
<title>Node2&#45;&gt;Node3</title>
<g id="a_edge2_Node000002_Node000003"><a xlink:title=" ">
<path fill="none" stroke="#63b8ff" d="M410.29,-64.5C418.73,-64.5 427.25,-64.5 435.61,-64.5"/>
<polygon fill="#63b8ff" stroke="#63b8ff" points="435.7,-68 445.7,-64.5 435.7,-61 435.7,-68"/>
</a>
</g>
</g>
<!-- Node4 -->
<g id="Node000004" class="node">
<title>Node4</title>
<g id="a_Node000004"><a xlink:href="classLogger.html#a5e4bcdaea60b9ac227b564d780388769" target="_top" xlink:title="Log error message.">
<polygon fill="white" stroke="#666666" points="726.5,-130 647.5,-130 647.5,-111 726.5,-111 726.5,-130"/>
<text text-anchor="middle" x="687" y="-118" font-family="Helvetica,sans-Serif" font-size="10.00">Logger::Error</text>
</a>
</g>
</g>
<!-- Node3&#45;&gt;Node4 -->
<g id="edge3_Node000003_Node000004" class="edge">
<title>Node3&#45;&gt;Node4</title>
<g id="a_edge3_Node000003_Node000004"><a xlink:title=" ">
<path fill="none" stroke="#63b8ff" d="M547.81,-74.05C569.84,-81.85 601.88,-93.08 630,-102.5 635.2,-104.24 640.69,-106.05 646.12,-107.81"/>
<polygon fill="#63b8ff" stroke="#63b8ff" points="645.14,-111.17 655.73,-110.92 647.29,-104.51 645.14,-111.17"/>
</a>
</g>
</g>
<!-- Node7 -->
<g id="Node000007" class="node">
<title>Node7</title>
<g id="a_Node000007"><a xlink:href="classLogger.html#a5789d11f8f1356e2192c0023a089cbc4" target="_top" xlink:title="Get singleton instance.">
<polygon fill="white" stroke="#666666" points="744,-19 630,-19 630,0 744,0 744,-19"/>
<text text-anchor="middle" x="687" y="-7" font-family="Helvetica,sans-Serif" font-size="10.00">Logger::GetInstance</text>
</a>
</g>
</g>
<!-- Node3&#45;&gt;Node7 -->
<g id="edge6_Node000003_Node000007" class="edge">
<title>Node3&#45;&gt;Node7</title>
<g id="a_edge6_Node000003_Node000007"><a xlink:title=" ">
<path fill="none" stroke="#63b8ff" d="M548.73,-54.95C570.74,-47.4 602.3,-36.65 630,-27.5 635.27,-25.76 640.83,-23.94 646.32,-22.17"/>
<polygon fill="#63b8ff" stroke="#63b8ff" points="647.59,-25.43 656.04,-19.03 645.44,-18.77 647.59,-25.43"/>
</a>
</g>
</g>
<!-- Node8 -->
<g id="Node000008" class="node">
<title>Node8</title>
<g id="a_Node000008"><a xlink:href="classLogger.html#a1c0c947d87884bca0395fd38d19d1102" target="_top" xlink:title="Log info message.">
<polygon fill="white" stroke="#666666" points="724,-93 650,-93 650,-74 724,-74 724,-93"/>
<text text-anchor="middle" x="687" y="-81" font-family="Helvetica,sans-Serif" font-size="10.00">Logger::Info</text>
</a>
</g>
</g>
<!-- Node3&#45;&gt;Node8 -->
<g id="edge7_Node000003_Node000008" class="edge">
<title>Node3&#45;&gt;Node8</title>
<g id="a_edge7_Node000003_Node000008"><a xlink:title=" ">
<path fill="none" stroke="#63b8ff" d="M594.33,-72.94C609.85,-74.73 625.8,-76.57 639.96,-78.2"/>
<polygon fill="#63b8ff" stroke="#63b8ff" points="639.58,-81.68 649.92,-79.35 640.38,-74.72 639.58,-81.68"/>
</a>
</g>
</g>
<!-- Node9 -->
<g id="Node000009" class="node">
<title>Node9</title>
<g id="a_Node000009"><a xlink:href="classLogger.html#a8c19c14724b0be1d2be63da4258c001a" target="_top" xlink:title="Log warning message.">
<polygon fill="white" stroke="#666666" points="727,-56 647,-56 647,-37 727,-37 727,-56"/>
<text text-anchor="middle" x="687" y="-44" font-family="Helvetica,sans-Serif" font-size="10.00">Logger::Warn</text>
</a>
</g>
</g>
<!-- Node3&#45;&gt;Node9 -->
<g id="edge10_Node000003_Node000009" class="edge">
<title>Node3&#45;&gt;Node9</title>
<g id="a_edge10_Node000003_Node000009"><a xlink:title=" ">
<path fill="none" stroke="#63b8ff" d="M594.33,-56.5C608.59,-54.94 623.23,-53.35 636.49,-51.9"/>
<polygon fill="#63b8ff" stroke="#63b8ff" points="637.25,-55.34 646.81,-50.78 636.49,-48.38 637.25,-55.34"/>
</a>
</g>
</g>
<!-- Node5 -->
<g id="Node000005" class="node">
<title>Node5</title>
<g id="a_Node000005"><a xlink:href="classLogger.html#a737b981213c02321a5235848334d7191" target="_top" xlink:title="Check if log level is enabled for tag.">
<polygon fill="white" stroke="#666666" points="909,-111 780,-111 780,-92 909,-92 909,-111"/>
<text text-anchor="middle" x="844.5" y="-99" font-family="Helvetica,sans-Serif" font-size="10.00">Logger::IsLevelEnabled</text>
</a>
</g>
</g>
<!-- Node4&#45;&gt;Node5 -->
<g id="edge4_Node000004_Node000005" class="edge">
<title>Node4&#45;&gt;Node5</title>
<g id="a_edge4_Node000004_Node000005"><a xlink:title=" ">
<path fill="none" stroke="#63b8ff" d="M726.84,-115.75C739.85,-114.16 754.82,-112.34 769.6,-110.53"/>
<polygon fill="#63b8ff" stroke="#63b8ff" points="770.28,-113.97 779.78,-109.29 769.43,-107.02 770.28,-113.97"/>
</a>
</g>
</g>
<!-- Node6 -->
<g id="Node000006" class="node">
<title>Node6</title>
<g id="a_Node000006"><a xlink:href="classLogger.html#aeede6ac18db92a47caede076ef188a13" target="_top" xlink:title="Internal logging method.">
<polygon fill="white" stroke="#666666" points="899.5,-74 789.5,-74 789.5,-55 899.5,-55 899.5,-74"/>
<text text-anchor="middle" x="844.5" y="-62" font-family="Helvetica,sans-Serif" font-size="10.00">Logger::LogInternal</text>
</a>
</g>
</g>
<!-- Node4&#45;&gt;Node6 -->
<g id="edge5_Node000004_Node000006" class="edge">
<title>Node4&#45;&gt;Node6</title>
<g id="a_edge5_Node000004_Node000006"><a xlink:title=" ">
<path fill="none" stroke="#63b8ff" d="M720.92,-110.98C728.59,-108.47 736.66,-105.59 744,-102.5 760.68,-95.48 763.25,-90.35 780,-83.5 785.53,-81.24 791.42,-79.12 797.31,-77.16"/>
<polygon fill="#63b8ff" stroke="#63b8ff" points="798.67,-80.41 807.14,-74.05 796.55,-73.73 798.67,-80.41"/>
</a>
</g>
</g>
<!-- Node8&#45;&gt;Node5 -->
<g id="edge8_Node000008_Node000005" class="edge">
<title>Node8&#45;&gt;Node5</title>
<g id="a_edge8_Node000008_Node000005"><a xlink:title=" ">
<path fill="none" stroke="#63b8ff" d="M724.07,-87.67C737.68,-89.25 753.72,-91.11 769.55,-92.94"/>
<polygon fill="#63b8ff" stroke="#63b8ff" points="769.55,-96.46 779.89,-94.14 770.36,-89.51 769.55,-96.46"/>
</a>
</g>
</g>
<!-- Node8&#45;&gt;Node6 -->
<g id="edge9_Node000008_Node000006" class="edge">
<title>Node8&#45;&gt;Node6</title>
<g id="a_edge9_Node000008_Node000006"><a xlink:title=" ">
<path fill="none" stroke="#63b8ff" d="M724.07,-79.09C740.49,-77.09 760.44,-74.65 779.3,-72.34"/>
<polygon fill="#63b8ff" stroke="#63b8ff" points="779.83,-75.81 789.33,-71.12 778.98,-68.86 779.83,-75.81"/>
</a>
</g>
</g>
<!-- Node9&#45;&gt;Node5 -->
<g id="edge11_Node000009_Node000005" class="edge">
<title>Node9&#45;&gt;Node5</title>
<g id="a_edge11_Node000009_Node000005"><a xlink:title=" ">
<path fill="none" stroke="#63b8ff" d="M718.51,-56.01C726.86,-58.84 735.85,-62.1 744,-65.5 760.51,-72.39 763.32,-77.03 780,-83.5 785.07,-85.47 790.45,-87.33 795.85,-89.05"/>
<polygon fill="#63b8ff" stroke="#63b8ff" points="794.92,-92.42 805.51,-91.99 796.96,-85.73 794.92,-92.42"/>
</a>
</g>
</g>
<!-- Node9&#45;&gt;Node6 -->
<g id="edge12_Node000009_Node000006" class="edge">
<title>Node9&#45;&gt;Node6</title>
<g id="a_edge12_Node000009_Node000006"><a xlink:title=" ">
<path fill="none" stroke="#63b8ff" d="M727.24,-51.04C742.96,-52.86 761.49,-55.01 779.08,-57.04"/>
<polygon fill="#63b8ff" stroke="#63b8ff" points="778.96,-60.55 789.3,-58.23 779.77,-53.6 778.96,-60.55"/>
</a>
</g>
</g>
</g>
</svg>
