<?xml version="1.0" encoding="UTF-8" standalone="no"?>
<!DOCTYPE svg PUBLIC "-//W3C//DTD SVG 1.1//EN"
 "http://www.w3.org/Graphics/SVG/1.1/DTD/svg11.dtd">
<!-- Generated by graphviz version 2.43.0 (0)
 -->
<!-- Title: Pca9685GpioPin::Initialize Pages: 1 -->
<svg width="550pt" height="81pt"
 viewBox="0.00 0.00 550.00 81.00" xmlns="http://www.w3.org/2000/svg" xmlns:xlink="http://www.w3.org/1999/xlink">
<g id="graph0" class="graph" transform="scale(1 1) rotate(0) translate(4 77)">
<title>Pca9685GpioPin::Initialize</title>
<!-- Node1 -->
<g id="Node000001" class="node">
<title>Node1</title>
<g id="a_Node000001"><a xlink:title="Initialize the GPIO pin (sets channel to full&#45;off by default).">
<polygon fill="#999999" stroke="#666666" points="143,-45.5 0,-45.5 0,-26.5 143,-26.5 143,-45.5"/>
<text text-anchor="middle" x="71.5" y="-33.5" font-family="Helvetica,sans-Serif" font-size="10.00">Pca9685GpioPin::Initialize</text>
</a>
</g>
</g>
<!-- Node2 -->
<g id="Node000002" class="node">
<title>Node2</title>
<g id="a_Node000002"><a xlink:href="classPca9685Handler.html#a088d4c2eecbd5c39480a5dddf73d91d3" target="_top" xlink:title="Ensure the handler is initialized (lazy initialization).">
<polygon fill="white" stroke="#666666" points="362,-67.5 179,-67.5 179,-48.5 362,-48.5 362,-67.5"/>
<text text-anchor="middle" x="270.5" y="-55.5" font-family="Helvetica,sans-Serif" font-size="10.00">Pca9685Handler::EnsureInitialized</text>
</a>
</g>
</g>
<!-- Node1&#45;&gt;Node2 -->
<g id="edge1_Node000001_Node000002" class="edge">
<title>Node1&#45;&gt;Node2</title>
<g id="a_edge1_Node000001_Node000002"><a xlink:title=" ">
<path fill="none" stroke="#63b8ff" d="M143.07,-43.88C153.19,-45.01 163.74,-46.19 174.24,-47.36"/>
<polygon fill="#63b8ff" stroke="#63b8ff" points="173.96,-50.85 184.28,-48.48 174.73,-43.9 173.96,-50.85"/>
</a>
</g>
</g>
<!-- Node4 -->
<g id="Node000004" class="node">
<title>Node4</title>
<g id="a_Node000004"><a xlink:href="classPca9685Handler.html#a6175f653b325713b0c80c5808ccbe45a" target="_top" xlink:title=" ">
<polygon fill="white" stroke="#666666" points="349.5,-30 191.5,-30 191.5,0 349.5,0 349.5,-30"/>
<text text-anchor="start" x="199.5" y="-18" font-family="Helvetica,sans-Serif" font-size="10.00">Pca9685Handler::SetChannel</text>
<text text-anchor="middle" x="270.5" y="-7" font-family="Helvetica,sans-Serif" font-size="10.00">FullOff</text>
</a>
</g>
</g>
<!-- Node1&#45;&gt;Node4 -->
<g id="edge3_Node000001_Node000004" class="edge">
<title>Node1&#45;&gt;Node4</title>
<g id="a_edge3_Node000001_Node000004"><a xlink:title=" ">
<path fill="none" stroke="#63b8ff" d="M143.07,-28.48C155.44,-27.16 168.45,-25.77 181.23,-24.41"/>
<polygon fill="#63b8ff" stroke="#63b8ff" points="181.84,-27.86 191.41,-23.32 181.09,-20.9 181.84,-27.86"/>
</a>
</g>
</g>
<!-- Node3 -->
<g id="Node000003" class="node">
<title>Node3</title>
<g id="a_Node000003"><a xlink:href="classPca9685Handler.html#ab7b5cd2320a6bb69ff6a2869051e9d5e" target="_top" xlink:title="Internal initialization (called under mutex).">
<polygon fill="white" stroke="#666666" points="542,-73 398,-73 398,-43 542,-43 542,-73"/>
<text text-anchor="start" x="406" y="-61" font-family="Helvetica,sans-Serif" font-size="10.00">Pca9685Handler::initialize</text>
<text text-anchor="middle" x="470" y="-50" font-family="Helvetica,sans-Serif" font-size="10.00">Internal</text>
</a>
</g>
</g>
<!-- Node2&#45;&gt;Node3 -->
<g id="edge2_Node000002_Node000003" class="edge">
<title>Node2&#45;&gt;Node3</title>
<g id="a_edge2_Node000002_Node000003"><a xlink:title=" ">
<path fill="none" stroke="#63b8ff" d="M362.16,-58C370.66,-58 379.25,-58 387.67,-58"/>
<polygon fill="#63b8ff" stroke="#63b8ff" points="387.82,-61.5 397.82,-58 387.82,-54.5 387.82,-61.5"/>
</a>
</g>
</g>
</g>
</svg>
