<?xml version="1.0" encoding="UTF-8" standalone="no"?>
<!DOCTYPE svg PUBLIC "-//W3C//DTD SVG 1.1//EN"
 "http://www.w3.org/Graphics/SVG/1.1/DTD/svg11.dtd">
<!-- Generated by graphviz version 2.43.0 (0)
 -->
<!-- Title: HalSpiTle92466edComm::Transfer32 Pages: 1 -->
<svg width="648pt" height="82pt"
 viewBox="0.00 0.00 648.00 82.00" xmlns="http://www.w3.org/2000/svg" xmlns:xlink="http://www.w3.org/1999/xlink">
<g id="graph0" class="graph" transform="scale(1 1) rotate(0) translate(4 78)">
<title>HalSpiTle92466edComm::Transfer32</title>
<!-- Node1 -->
<g id="Node000001" class="node">
<title>Node1</title>
<g id="a_Node000001"><a xlink:title=" ">
<polygon fill="#999999" stroke="#666666" points="137,-42.5 0,-42.5 0,-12.5 137,-12.5 137,-42.5"/>
<text text-anchor="start" x="8" y="-30.5" font-family="Helvetica,sans-Serif" font-size="10.00">HalSpiTle92466edComm</text>
<text text-anchor="middle" x="68.5" y="-19.5" font-family="Helvetica,sans-Serif" font-size="10.00">::Transfer32</text>
</a>
</g>
</g>
<!-- Node2 -->
<g id="Node000002" class="node">
<title>Node2</title>
<g id="a_Node000002"><a xlink:href="classLogger.html#adce17848a5844e053bfd314863dc1404" target="_top" xlink:title="Log error message.">
<polygon fill="white" stroke="#666666" points="269.5,-56 190.5,-56 190.5,-37 269.5,-37 269.5,-56"/>
<text text-anchor="middle" x="230" y="-44" font-family="Helvetica,sans-Serif" font-size="10.00">Logger::Error</text>
</a>
</g>
</g>
<!-- Node1&#45;&gt;Node2 -->
<g id="edge1_Node000001_Node000002" class="edge">
<title>Node1&#45;&gt;Node2</title>
<g id="a_edge1_Node000001_Node000002"><a xlink:title=" ">
<path fill="none" stroke="#63b8ff" d="M137.14,-35.56C151.62,-37.28 166.65,-39.07 180.25,-40.69"/>
<polygon fill="#63b8ff" stroke="#63b8ff" points="179.99,-44.19 190.34,-41.89 180.82,-37.24 179.99,-44.19"/>
</a>
</g>
</g>
<!-- Node6 -->
<g id="Node000006" class="node">
<title>Node6</title>
<g id="a_Node000006"><a xlink:href="classLogger.html#a5789d11f8f1356e2192c0023a089cbc4" target="_top" xlink:title="Get singleton instance.">
<polygon fill="white" stroke="#666666" points="287,-19 173,-19 173,0 287,0 287,-19"/>
<text text-anchor="middle" x="230" y="-7" font-family="Helvetica,sans-Serif" font-size="10.00">Logger::GetInstance</text>
</a>
</g>
</g>
<!-- Node1&#45;&gt;Node6 -->
<g id="edge5_Node000001_Node000006" class="edge">
<title>Node1&#45;&gt;Node6</title>
<g id="a_edge5_Node000001_Node000006"><a xlink:title=" ">
<path fill="none" stroke="#63b8ff" d="M137.14,-19.87C145.59,-18.91 154.23,-17.94 162.66,-16.99"/>
<polygon fill="#63b8ff" stroke="#63b8ff" points="163.27,-20.44 172.82,-15.84 162.49,-13.48 163.27,-20.44"/>
</a>
</g>
</g>
<!-- Node3 -->
<g id="Node000003" class="node">
<title>Node3</title>
<g id="a_Node000003"><a xlink:href="classLogger.html#af9e84e0ff6bd538e4f9ed8dcebc3e2f0" target="_top" xlink:title="Check if log level is enabled for tag.">
<polygon fill="white" stroke="#666666" points="452,-74 323,-74 323,-55 452,-55 452,-74"/>
<text text-anchor="middle" x="387.5" y="-62" font-family="Helvetica,sans-Serif" font-size="10.00">Logger::IsLevelEnabled</text>
</a>
</g>
</g>
<!-- Node2&#45;&gt;Node3 -->
<g id="edge2_Node000002_Node000003" class="edge">
<title>Node2&#45;&gt;Node3</title>
<g id="a_edge2_Node000002_Node000003"><a xlink:title=" ">
<path fill="none" stroke="#63b8ff" d="M269.84,-51C282.85,-52.5 297.82,-54.23 312.6,-55.95"/>
<polygon fill="#63b8ff" stroke="#63b8ff" points="312.44,-59.45 322.78,-57.12 313.25,-52.5 312.44,-59.45"/>
</a>
</g>
</g>
<!-- Node4 -->
<g id="Node000004" class="node">
<title>Node4</title>
<g id="a_Node000004"><a xlink:href="classLogger.html#a6adb205db597526fb91ad20067400394" target="_top" xlink:title="Internal logging method.">
<polygon fill="white" stroke="#666666" points="442.5,-37 332.5,-37 332.5,-18 442.5,-18 442.5,-37"/>
<text text-anchor="middle" x="387.5" y="-25" font-family="Helvetica,sans-Serif" font-size="10.00">Logger::LogInternal</text>
</a>
</g>
</g>
<!-- Node2&#45;&gt;Node4 -->
<g id="edge3_Node000002_Node000004" class="edge">
<title>Node2&#45;&gt;Node4</title>
<g id="a_edge3_Node000002_Node000004"><a xlink:title=" ">
<path fill="none" stroke="#63b8ff" d="M269.84,-41.75C285.63,-39.82 304.31,-37.54 322.03,-35.38"/>
<polygon fill="#63b8ff" stroke="#63b8ff" points="322.83,-38.81 332.33,-34.12 321.98,-31.86 322.83,-38.81"/>
</a>
</g>
</g>
<!-- Node5 -->
<g id="Node000005" class="node">
<title>Node5</title>
<g id="a_Node000005"><a xlink:href="namespaceanonymous__namespace_02Logger_8cpp_03.html#a9d2b496fa1b4f4e28667d14e4b8cb190" target="_top" xlink:title=" ">
<polygon fill="white" stroke="#666666" points="640,-42.5 488,-42.5 488,-12.5 640,-12.5 640,-42.5"/>
<text text-anchor="start" x="496" y="-30.5" font-family="Helvetica,sans-Serif" font-size="10.00">anonymous_namespace</text>
<text text-anchor="middle" x="564" y="-19.5" font-family="Helvetica,sans-Serif" font-size="10.00">{Logger::cpp}::ToBaseLevel</text>
</a>
</g>
</g>
<!-- Node4&#45;&gt;Node5 -->
<g id="edge4_Node000004_Node000005" class="edge">
<title>Node4&#45;&gt;Node5</title>
<g id="a_edge4_Node000004_Node000005"><a xlink:title=" ">
<path fill="none" stroke="#63b8ff" d="M442.76,-27.5C453.93,-27.5 465.96,-27.5 477.93,-27.5"/>
<polygon fill="#63b8ff" stroke="#63b8ff" points="477.95,-31 487.95,-27.5 477.95,-24 477.95,-31"/>
</a>
</g>
</g>
</g>
</svg>
