<?xml version="1.0" encoding="UTF-8" standalone="no"?>
<!DOCTYPE svg PUBLIC "-//W3C//DTD SVG 1.1//EN"
 "http://www.w3.org/Graphics/SVG/1.1/DTD/svg11.dtd">
<!-- Generated by graphviz version 2.43.0 (0)
 -->
<!-- Title: Tmc9660Handler::Temperature::ReadTemperatureCelsiusImpl Pages: 1 -->
<svg width="543pt" height="138pt"
 viewBox="0.00 0.00 543.00 138.00" xmlns="http://www.w3.org/2000/svg" xmlns:xlink="http://www.w3.org/1999/xlink">
<g id="graph0" class="graph" transform="scale(1 1) rotate(0) translate(4 134)">
<title>Tmc9660Handler::Temperature::ReadTemperatureCelsiusImpl</title>
<!-- Node1 -->
<g id="Node000001" class="node">
<title>Node1</title>
<g id="a_Node000001"><a xlink:title="Read the chip temperature in degrees Celsius.">
<polygon fill="#999999" stroke="#666666" points="167,-79.5 0,-79.5 0,-49.5 167,-49.5 167,-79.5"/>
<text text-anchor="start" x="8" y="-67.5" font-family="Helvetica,sans-Serif" font-size="10.00">Tmc9660Handler::Temperature</text>
<text text-anchor="middle" x="83.5" y="-56.5" font-family="Helvetica,sans-Serif" font-size="10.00">::ReadTemperatureCelsiusImpl</text>
</a>
</g>
</g>
<!-- Node2 -->
<g id="Node000002" class="node">
<title>Node2</title>
<g id="a_Node000002"><a xlink:href="classLogger.html#a5e4bcdaea60b9ac227b564d780388769" target="_top" xlink:title="Log error message.">
<polygon fill="white" stroke="#666666" points="326,-130 247,-130 247,-111 326,-111 326,-130"/>
<text text-anchor="middle" x="286.5" y="-118" font-family="Helvetica,sans-Serif" font-size="10.00">Logger::Error</text>
</a>
</g>
</g>
<!-- Node1&#45;&gt;Node2 -->
<g id="edge1_Node000001_Node000002" class="edge">
<title>Node1&#45;&gt;Node2</title>
<g id="a_edge1_Node000001_Node000002"><a xlink:title=" ">
<path fill="none" stroke="#63b8ff" d="M128.1,-79.58C150.36,-87 177.96,-95.77 203,-102.5 213.84,-105.41 225.57,-108.19 236.7,-110.66"/>
<polygon fill="#63b8ff" stroke="#63b8ff" points="236.19,-114.13 246.7,-112.83 237.67,-107.29 236.19,-114.13"/>
</a>
</g>
</g>
<!-- Node5 -->
<g id="Node000005" class="node">
<title>Node5</title>
<g id="a_Node000005"><a xlink:href="classLogger.html#a5789d11f8f1356e2192c0023a089cbc4" target="_top" xlink:title="Get singleton instance.">
<polygon fill="white" stroke="#666666" points="343.5,-56 229.5,-56 229.5,-37 343.5,-37 343.5,-56"/>
<text text-anchor="middle" x="286.5" y="-44" font-family="Helvetica,sans-Serif" font-size="10.00">Logger::GetInstance</text>
</a>
</g>
</g>
<!-- Node1&#45;&gt;Node5 -->
<g id="edge4_Node000001_Node000005" class="edge">
<title>Node1&#45;&gt;Node5</title>
<g id="a_edge4_Node000001_Node000005"><a xlink:title=" ">
<path fill="none" stroke="#63b8ff" d="M167.12,-57.1C184.43,-55.55 202.47,-53.94 219.09,-52.45"/>
<polygon fill="#63b8ff" stroke="#63b8ff" points="219.59,-55.92 229.24,-51.54 218.97,-48.94 219.59,-55.92"/>
</a>
</g>
</g>
<!-- Node6 -->
<g id="Node000006" class="node">
<title>Node6</title>
<g id="a_Node000006"><a xlink:href="classTmc9660Handler.html#a393382194d0602e7aa02da6a8fd7a20a" target="_top" xlink:title="Get a reference to the Temperature wrapper.">
<polygon fill="white" stroke="#666666" points="370,-19 203,-19 203,0 370,0 370,-19"/>
<text text-anchor="middle" x="286.5" y="-7" font-family="Helvetica,sans-Serif" font-size="10.00">Tmc9660Handler::temperature</text>
</a>
</g>
</g>
<!-- Node1&#45;&gt;Node6 -->
<g id="edge5_Node000001_Node000006" class="edge">
<title>Node1&#45;&gt;Node6</title>
<g id="a_edge5_Node000001_Node000006"><a xlink:title=" ">
<path fill="none" stroke="#63b8ff" d="M129.53,-49.42C151.55,-42.31 178.52,-33.98 203,-27.5 211.15,-25.34 219.8,-23.25 228.31,-21.29"/>
<polygon fill="#63b8ff" stroke="#63b8ff" points="229.22,-24.68 238.21,-19.07 227.69,-17.85 229.22,-24.68"/>
</a>
</g>
</g>
<!-- Node7 -->
<g id="Node000007" class="node">
<title>Node7</title>
<g id="a_Node000007"><a xlink:href="classLogger.html#a8c19c14724b0be1d2be63da4258c001a" target="_top" xlink:title="Log warning message.">
<polygon fill="white" stroke="#666666" points="326.5,-93 246.5,-93 246.5,-74 326.5,-74 326.5,-93"/>
<text text-anchor="middle" x="286.5" y="-81" font-family="Helvetica,sans-Serif" font-size="10.00">Logger::Warn</text>
</a>
</g>
</g>
<!-- Node1&#45;&gt;Node7 -->
<g id="edge6_Node000001_Node000007" class="edge">
<title>Node1&#45;&gt;Node7</title>
<g id="a_edge6_Node000001_Node000007"><a xlink:title=" ">
<path fill="none" stroke="#63b8ff" d="M167.12,-72.31C190.56,-74.53 215.33,-76.87 236.13,-78.83"/>
<polygon fill="#63b8ff" stroke="#63b8ff" points="236.02,-82.34 246.3,-79.79 236.68,-75.37 236.02,-82.34"/>
</a>
</g>
</g>
<!-- Node3 -->
<g id="Node000003" class="node">
<title>Node3</title>
<g id="a_Node000003"><a xlink:href="classLogger.html#a737b981213c02321a5235848334d7191" target="_top" xlink:title="Check if log level is enabled for tag.">
<polygon fill="white" stroke="#666666" points="535,-130 406,-130 406,-111 535,-111 535,-130"/>
<text text-anchor="middle" x="470.5" y="-118" font-family="Helvetica,sans-Serif" font-size="10.00">Logger::IsLevelEnabled</text>
</a>
</g>
</g>
<!-- Node2&#45;&gt;Node3 -->
<g id="edge2_Node000002_Node000003" class="edge">
<title>Node2&#45;&gt;Node3</title>
<g id="a_edge2_Node000002_Node000003"><a xlink:title=" ">
<path fill="none" stroke="#63b8ff" d="M326.1,-120.5C346.37,-120.5 371.9,-120.5 395.78,-120.5"/>
<polygon fill="#63b8ff" stroke="#63b8ff" points="395.89,-124 405.89,-120.5 395.89,-117 395.89,-124"/>
</a>
</g>
</g>
<!-- Node4 -->
<g id="Node000004" class="node">
<title>Node4</title>
<g id="a_Node000004"><a xlink:href="classLogger.html#aeede6ac18db92a47caede076ef188a13" target="_top" xlink:title="Internal logging method.">
<polygon fill="white" stroke="#666666" points="525.5,-93 415.5,-93 415.5,-74 525.5,-74 525.5,-93"/>
<text text-anchor="middle" x="470.5" y="-81" font-family="Helvetica,sans-Serif" font-size="10.00">Logger::LogInternal</text>
</a>
</g>
</g>
<!-- Node2&#45;&gt;Node4 -->
<g id="edge3_Node000002_Node000004" class="edge">
<title>Node2&#45;&gt;Node4</title>
<g id="a_edge3_Node000002_Node000004"><a xlink:title=" ">
<path fill="none" stroke="#63b8ff" d="M326.1,-112.65C351.19,-107.55 384.34,-100.81 412.45,-95.1"/>
<polygon fill="#63b8ff" stroke="#63b8ff" points="413.45,-98.47 422.56,-93.04 412.06,-91.61 413.45,-98.47"/>
</a>
</g>
</g>
<!-- Node7&#45;&gt;Node3 -->
<g id="edge7_Node000007_Node000003" class="edge">
<title>Node7&#45;&gt;Node3</title>
<g id="a_edge7_Node000007_Node000003"><a xlink:title=" ">
<path fill="none" stroke="#63b8ff" d="M326.54,-91.44C351.57,-96.52 384.47,-103.21 412.41,-108.89"/>
<polygon fill="#63b8ff" stroke="#63b8ff" points="411.95,-112.37 422.45,-110.93 413.35,-105.51 411.95,-112.37"/>
</a>
</g>
</g>
<!-- Node7&#45;&gt;Node4 -->
<g id="edge8_Node000007_Node000004" class="edge">
<title>Node7&#45;&gt;Node4</title>
<g id="a_edge8_Node000007_Node000004"><a xlink:title=" ">
<path fill="none" stroke="#63b8ff" d="M326.54,-83.5C349.41,-83.5 378.86,-83.5 405.08,-83.5"/>
<polygon fill="#63b8ff" stroke="#63b8ff" points="405.33,-87 415.33,-83.5 405.33,-80 405.33,-87"/>
</a>
</g>
</g>
</g>
</svg>
