<?xml version="1.0" encoding="UTF-8" standalone="no"?>
<!DOCTYPE svg PUBLIC "-//W3C//DTD SVG 1.1//EN"
 "http://www.w3.org/Graphics/SVG/1.1/DTD/svg11.dtd">
<!-- Generated by graphviz version 2.43.0 (0)
 -->
<!-- Title: Max22200Handler Pages: 1 -->
<svg width="374pt" height="237pt"
 viewBox="0.00 0.00 373.50 237.00" xmlns="http://www.w3.org/2000/svg" xmlns:xlink="http://www.w3.org/1999/xlink">
<g id="graph0" class="graph" transform="scale(1 1) rotate(0) translate(4 233)">
<title>Max22200Handler</title>
<!-- Node1 -->
<g id="Node000001" class="node">
<title>Node1</title>
<g id="a_Node000001"><a xlink:title="Unified handler for MAX22200 octal solenoid/motor driver.">
<polygon fill="#999999" stroke="#666666" points="240.5,-19 134.5,-19 134.5,0 240.5,0 240.5,-19"/>
<text text-anchor="middle" x="187.5" y="-7" font-family="Helvetica,sans-Serif" font-size="10.00">Max22200Handler</text>
</a>
</g>
</g>
<!-- Node2 -->
<g id="Node000002" class="node">
<title>Node2</title>
<g id="a_Node000002"><a xlink:title=" ">
<polygon fill="white" stroke="#666666" points="183,-96 0,-96 0,-66 183,-66 183,-96"/>
<text text-anchor="start" x="8" y="-84" font-family="Helvetica,sans-Serif" font-size="10.00">std::unique_ptr&lt; HalSpiMax22200</text>
<text text-anchor="middle" x="91.5" y="-73" font-family="Helvetica,sans-Serif" font-size="10.00">Comm &gt;</text>
</a>
</g>
</g>
<!-- Node2&#45;&gt;Node1 -->
<g id="edge1_Node000001_Node000002" class="edge">
<title>Node2&#45;&gt;Node1</title>
<g id="a_edge1_Node000001_Node000002"><a xlink:title=" ">
<path fill="none" stroke="#9a32cd" stroke-dasharray="5,2" d="M119.12,-60C137.84,-46.45 161.65,-29.21 175.67,-19.07"/>
<polygon fill="#9a32cd" stroke="#9a32cd" points="116.97,-57.24 110.93,-65.94 121.08,-62.91 116.97,-57.24"/>
</a>
</g>
<text text-anchor="middle" x="168.5" y="-40" font-family="Helvetica,sans-Serif" font-size="10.00" fill="grey"> comm_</text>
</g>
<!-- Node3 -->
<g id="Node000003" class="node">
<title>Node3</title>
<g id="a_Node000003"><a xlink:href="classHalSpiMax22200Comm.html" target="_top" xlink:title="CRTP SPI communication adapter for MAX22200 using BaseSpi and BaseGpio.">
<polygon fill="white" stroke="#666666" points="157,-162 26,-162 26,-143 157,-143 157,-162"/>
<text text-anchor="middle" x="91.5" y="-150" font-family="Helvetica,sans-Serif" font-size="10.00">HalSpiMax22200Comm</text>
</a>
</g>
</g>
<!-- Node3&#45;&gt;Node2 -->
<g id="edge2_Node000002_Node000003" class="edge">
<title>Node3&#45;&gt;Node2</title>
<g id="a_edge2_Node000002_Node000003"><a xlink:title=" ">
<path fill="none" stroke="#9a32cd" stroke-dasharray="5,2" d="M91.5,-132.71C91.5,-121.19 91.5,-106.68 91.5,-96.14"/>
<polygon fill="#9a32cd" stroke="#9a32cd" points="88,-132.98 91.5,-142.98 95,-132.98 88,-132.98"/>
</a>
</g>
<text text-anchor="middle" x="100" y="-117" font-family="Helvetica,sans-Serif" font-size="10.00" fill="grey"> ptr</text>
</g>
<!-- Node4 -->
<g id="Node000004" class="node">
<title>Node4</title>
<g id="a_Node000004"><a xlink:title=" ">
<polygon fill="white" stroke="#666666" points="168.5,-229 14.5,-229 14.5,-199 168.5,-199 168.5,-229"/>
<text text-anchor="start" x="22.5" y="-217" font-family="Helvetica,sans-Serif" font-size="10.00">max22200::SpiInterface</text>
<text text-anchor="middle" x="91.5" y="-206" font-family="Helvetica,sans-Serif" font-size="10.00">&lt; HalSpiMax22200Comm &gt;</text>
</a>
</g>
</g>
<!-- Node4&#45;&gt;Node3 -->
<g id="edge3_Node000003_Node000004" class="edge">
<title>Node4&#45;&gt;Node3</title>
<g id="a_edge3_Node000003_Node000004"><a xlink:title=" ">
<path fill="none" stroke="#63b8ff" d="M91.5,-188.79C91.5,-179.36 91.5,-169.15 91.5,-162.16"/>
<polygon fill="#63b8ff" stroke="#63b8ff" points="88,-188.9 91.5,-198.9 95,-188.9 88,-188.9"/>
</a>
</g>
</g>
<!-- Node5 -->
<g id="Node000005" class="node">
<title>Node5</title>
<g id="a_Node000005"><a xlink:title=" ">
<polygon fill="white" stroke="#666666" points="365.5,-90.5 201.5,-90.5 201.5,-71.5 365.5,-71.5 365.5,-90.5"/>
<text text-anchor="middle" x="283.5" y="-78.5" font-family="Helvetica,sans-Serif" font-size="10.00">std::unique_ptr&lt; DriverType &gt;</text>
</a>
</g>
</g>
<!-- Node5&#45;&gt;Node1 -->
<g id="edge4_Node000001_Node000005" class="edge">
<title>Node5&#45;&gt;Node1</title>
<g id="a_edge4_Node000001_Node000005"><a xlink:title=" ">
<path fill="none" stroke="#9a32cd" stroke-dasharray="5,2" d="M263.57,-65.57C244.19,-51.54 215.4,-30.7 199.37,-19.09"/>
<polygon fill="#9a32cd" stroke="#9a32cd" points="261.58,-68.45 271.73,-71.48 265.68,-62.78 261.58,-68.45"/>
</a>
</g>
<text text-anchor="middle" x="256" y="-40" font-family="Helvetica,sans-Serif" font-size="10.00" fill="grey"> driver_</text>
</g>
</g>
</svg>
