<?xml version="1.0" encoding="UTF-8" standalone="no"?>
<!DOCTYPE svg PUBLIC "-//W3C//DTD SVG 1.1//EN"
 "http://www.w3.org/Graphics/SVG/1.1/DTD/svg11.dtd">
<!-- Generated by graphviz version 2.43.0 (0)
 -->
<!-- Title: Tmc5160Handler::GetCurrentPosition Pages: 1 -->
<svg width="889pt" height="138pt"
 viewBox="0.00 0.00 889.00 138.00" xmlns="http://www.w3.org/2000/svg" xmlns:xlink="http://www.w3.org/1999/xlink">
<g id="graph0" class="graph" transform="scale(1 1) rotate(0) translate(4 134)">
<title>Tmc5160Handler::GetCurrentPosition</title>
<!-- Node1 -->
<g id="Node000001" class="node">
<title>Node1</title>
<g id="a_Node000001"><a xlink:title="Get current position in microsteps.">
<polygon fill="#999999" stroke="#666666" points="159,-55.5 0,-55.5 0,-25.5 159,-25.5 159,-55.5"/>
<text text-anchor="start" x="8" y="-43.5" font-family="Helvetica,sans-Serif" font-size="10.00">Tmc5160Handler::GetCurrent</text>
<text text-anchor="middle" x="79.5" y="-32.5" font-family="Helvetica,sans-Serif" font-size="10.00">Position</text>
</a>
</g>
</g>
<!-- Node2 -->
<g id="Node000002" class="node">
<title>Node2</title>
<g id="a_Node000002"><a xlink:href="classTmc5160Handler.html#a6d4fce2433e03bb11b05a4278ef66fd0" target="_top" xlink:title=" ">
<polygon fill="white" stroke="#666666" points="382,-79.5 195,-79.5 195,-49.5 382,-49.5 382,-79.5"/>
<text text-anchor="start" x="203" y="-67.5" font-family="Helvetica,sans-Serif" font-size="10.00">Tmc5160Handler::EnsureInitialized</text>
<text text-anchor="middle" x="288.5" y="-56.5" font-family="Helvetica,sans-Serif" font-size="10.00">Locked</text>
</a>
</g>
</g>
<!-- Node1&#45;&gt;Node2 -->
<g id="edge1_Node000001_Node000002" class="edge">
<title>Node1&#45;&gt;Node2</title>
<g id="a_edge1_Node000001_Node000002"><a xlink:title=" ">
<path fill="none" stroke="#63b8ff" d="M159.05,-49.61C167.44,-50.58 176.06,-51.58 184.67,-52.58"/>
<polygon fill="#63b8ff" stroke="#63b8ff" points="184.42,-56.07 194.76,-53.75 185.23,-49.12 184.42,-56.07"/>
</a>
</g>
</g>
<!-- Node10 -->
<g id="Node000010" class="node">
<title>Node10</title>
<g id="a_Node000010"><a xlink:href="classTmc5160Handler.html#a439a68f9d3f6785e0a493f9ed3821325" target="_top" xlink:title="Helper: execute a visitor on the active driver (no lock, internal use)">
<polygon fill="white" stroke="#666666" points="367,-31.5 210,-31.5 210,-1.5 367,-1.5 367,-31.5"/>
<text text-anchor="start" x="218" y="-19.5" font-family="Helvetica,sans-Serif" font-size="10.00">Tmc5160Handler::visitDriver</text>
<text text-anchor="middle" x="288.5" y="-8.5" font-family="Helvetica,sans-Serif" font-size="10.00">Internal</text>
</a>
</g>
</g>
<!-- Node1&#45;&gt;Node10 -->
<g id="edge13_Node000001_Node000010" class="edge">
<title>Node1&#45;&gt;Node10</title>
<g id="a_edge13_Node000001_Node000010"><a xlink:title=" ">
<path fill="none" stroke="#63b8ff" d="M159.05,-31.39C172.27,-29.86 186.06,-28.26 199.5,-26.7"/>
<polygon fill="#63b8ff" stroke="#63b8ff" points="200.16,-30.15 209.69,-25.52 199.35,-23.2 200.16,-30.15"/>
</a>
</g>
</g>
<!-- Node3 -->
<g id="Node000003" class="node">
<title>Node3</title>
<g id="a_Node000003"><a xlink:href="classTmc5160Handler.html#a64755f326176b0a38485acf5ca69fd0c" target="_top" xlink:title="Initialize the TMC5160 driver with full configuration.">
<polygon fill="white" stroke="#666666" points="566,-74 418,-74 418,-55 566,-55 566,-74"/>
<text text-anchor="middle" x="492" y="-62" font-family="Helvetica,sans-Serif" font-size="10.00">Tmc5160Handler::Initialize</text>
</a>
</g>
</g>
<!-- Node2&#45;&gt;Node3 -->
<g id="edge2_Node000002_Node000003" class="edge">
<title>Node2&#45;&gt;Node3</title>
<g id="a_edge2_Node000002_Node000003"><a xlink:title=" ">
<path fill="none" stroke="#63b8ff" d="M382.29,-64.5C390.73,-64.5 399.25,-64.5 407.61,-64.5"/>
<polygon fill="#63b8ff" stroke="#63b8ff" points="407.7,-68 417.7,-64.5 407.7,-61 407.7,-68"/>
</a>
</g>
</g>
<!-- Node4 -->
<g id="Node000004" class="node">
<title>Node4</title>
<g id="a_Node000004"><a xlink:href="classLogger.html#a5e4bcdaea60b9ac227b564d780388769" target="_top" xlink:title="Log error message.">
<polygon fill="white" stroke="#666666" points="698.5,-130 619.5,-130 619.5,-111 698.5,-111 698.5,-130"/>
<text text-anchor="middle" x="659" y="-118" font-family="Helvetica,sans-Serif" font-size="10.00">Logger::Error</text>
</a>
</g>
</g>
<!-- Node3&#45;&gt;Node4 -->
<g id="edge3_Node000003_Node000004" class="edge">
<title>Node3&#45;&gt;Node4</title>
<g id="a_edge3_Node000003_Node000004"><a xlink:title=" ">
<path fill="none" stroke="#63b8ff" d="M519.81,-74.05C541.84,-81.85 573.88,-93.08 602,-102.5 607.2,-104.24 612.69,-106.05 618.12,-107.81"/>
<polygon fill="#63b8ff" stroke="#63b8ff" points="617.14,-111.17 627.73,-110.92 619.29,-104.51 617.14,-111.17"/>
</a>
</g>
</g>
<!-- Node7 -->
<g id="Node000007" class="node">
<title>Node7</title>
<g id="a_Node000007"><a xlink:href="classLogger.html#a5789d11f8f1356e2192c0023a089cbc4" target="_top" xlink:title="Get singleton instance.">
<polygon fill="white" stroke="#666666" points="716,-19 602,-19 602,0 716,0 716,-19"/>
<text text-anchor="middle" x="659" y="-7" font-family="Helvetica,sans-Serif" font-size="10.00">Logger::GetInstance</text>
</a>
</g>
</g>
<!-- Node3&#45;&gt;Node7 -->
<g id="edge6_Node000003_Node000007" class="edge">
<title>Node3&#45;&gt;Node7</title>
<g id="a_edge6_Node000003_Node000007"><a xlink:title=" ">
<path fill="none" stroke="#63b8ff" d="M521.74,-54.92C548.87,-45.88 589.73,-32.26 619.63,-22.29"/>
<polygon fill="#63b8ff" stroke="#63b8ff" points="620.93,-25.55 629.31,-19.06 618.72,-18.9 620.93,-25.55"/>
</a>
</g>
</g>
<!-- Node8 -->
<g id="Node000008" class="node">
<title>Node8</title>
<g id="a_Node000008"><a xlink:href="classLogger.html#a1c0c947d87884bca0395fd38d19d1102" target="_top" xlink:title="Log info message.">
<polygon fill="white" stroke="#666666" points="696,-93 622,-93 622,-74 696,-74 696,-93"/>
<text text-anchor="middle" x="659" y="-81" font-family="Helvetica,sans-Serif" font-size="10.00">Logger::Info</text>
</a>
</g>
</g>
<!-- Node3&#45;&gt;Node8 -->
<g id="edge7_Node000003_Node000008" class="edge">
<title>Node3&#45;&gt;Node8</title>
<g id="a_edge7_Node000003_Node000008"><a xlink:title=" ">
<path fill="none" stroke="#63b8ff" d="M566.33,-72.94C581.85,-74.73 597.8,-76.57 611.96,-78.2"/>
<polygon fill="#63b8ff" stroke="#63b8ff" points="611.58,-81.68 621.92,-79.35 612.38,-74.72 611.58,-81.68"/>
</a>
</g>
</g>
<!-- Node9 -->
<g id="Node000009" class="node">
<title>Node9</title>
<g id="a_Node000009"><a xlink:href="classLogger.html#a8c19c14724b0be1d2be63da4258c001a" target="_top" xlink:title="Log warning message.">
<polygon fill="white" stroke="#666666" points="699,-56 619,-56 619,-37 699,-37 699,-56"/>
<text text-anchor="middle" x="659" y="-44" font-family="Helvetica,sans-Serif" font-size="10.00">Logger::Warn</text>
</a>
</g>
</g>
<!-- Node3&#45;&gt;Node9 -->
<g id="edge10_Node000003_Node000009" class="edge">
<title>Node3&#45;&gt;Node9</title>
<g id="a_edge10_Node000003_Node000009"><a xlink:title=" ">
<path fill="none" stroke="#63b8ff" d="M566.33,-56.5C580.59,-54.94 595.23,-53.35 608.49,-51.9"/>
<polygon fill="#63b8ff" stroke="#63b8ff" points="609.25,-55.34 618.81,-50.78 608.49,-48.38 609.25,-55.34"/>
</a>
</g>
</g>
<!-- Node5 -->
<g id="Node000005" class="node">
<title>Node5</title>
<g id="a_Node000005"><a xlink:href="classLogger.html#a737b981213c02321a5235848334d7191" target="_top" xlink:title="Check if log level is enabled for tag.">
<polygon fill="white" stroke="#666666" points="881,-111 752,-111 752,-92 881,-92 881,-111"/>
<text text-anchor="middle" x="816.5" y="-99" font-family="Helvetica,sans-Serif" font-size="10.00">Logger::IsLevelEnabled</text>
</a>
</g>
</g>
<!-- Node4&#45;&gt;Node5 -->
<g id="edge4_Node000004_Node000005" class="edge">
<title>Node4&#45;&gt;Node5</title>
<g id="a_edge4_Node000004_Node000005"><a xlink:title=" ">
<path fill="none" stroke="#63b8ff" d="M698.84,-115.75C711.85,-114.16 726.82,-112.34 741.6,-110.53"/>
<polygon fill="#63b8ff" stroke="#63b8ff" points="742.28,-113.97 751.78,-109.29 741.43,-107.02 742.28,-113.97"/>
</a>
</g>
</g>
<!-- Node6 -->
<g id="Node000006" class="node">
<title>Node6</title>
<g id="a_Node000006"><a xlink:href="classLogger.html#aeede6ac18db92a47caede076ef188a13" target="_top" xlink:title="Internal logging method.">
<polygon fill="white" stroke="#666666" points="871.5,-74 761.5,-74 761.5,-55 871.5,-55 871.5,-74"/>
<text text-anchor="middle" x="816.5" y="-62" font-family="Helvetica,sans-Serif" font-size="10.00">Logger::LogInternal</text>
</a>
</g>
</g>
<!-- Node4&#45;&gt;Node6 -->
<g id="edge5_Node000004_Node000006" class="edge">
<title>Node4&#45;&gt;Node6</title>
<g id="a_edge5_Node000004_Node000006"><a xlink:title=" ">
<path fill="none" stroke="#63b8ff" d="M692.92,-110.98C700.59,-108.47 708.66,-105.59 716,-102.5 732.68,-95.48 735.25,-90.35 752,-83.5 757.53,-81.24 763.42,-79.12 769.31,-77.16"/>
<polygon fill="#63b8ff" stroke="#63b8ff" points="770.67,-80.41 779.14,-74.05 768.55,-73.73 770.67,-80.41"/>
</a>
</g>
</g>
<!-- Node8&#45;&gt;Node5 -->
<g id="edge8_Node000008_Node000005" class="edge">
<title>Node8&#45;&gt;Node5</title>
<g id="a_edge8_Node000008_Node000005"><a xlink:title=" ">
<path fill="none" stroke="#63b8ff" d="M696.07,-87.67C709.68,-89.25 725.72,-91.11 741.55,-92.94"/>
<polygon fill="#63b8ff" stroke="#63b8ff" points="741.55,-96.46 751.89,-94.14 742.36,-89.51 741.55,-96.46"/>
</a>
</g>
</g>
<!-- Node8&#45;&gt;Node6 -->
<g id="edge9_Node000008_Node000006" class="edge">
<title>Node8&#45;&gt;Node6</title>
<g id="a_edge9_Node000008_Node000006"><a xlink:title=" ">
<path fill="none" stroke="#63b8ff" d="M696.07,-79.09C712.49,-77.09 732.44,-74.65 751.3,-72.34"/>
<polygon fill="#63b8ff" stroke="#63b8ff" points="751.83,-75.81 761.33,-71.12 750.98,-68.86 751.83,-75.81"/>
</a>
</g>
</g>
<!-- Node9&#45;&gt;Node5 -->
<g id="edge11_Node000009_Node000005" class="edge">
<title>Node9&#45;&gt;Node5</title>
<g id="a_edge11_Node000009_Node000005"><a xlink:title=" ">
<path fill="none" stroke="#63b8ff" d="M690.51,-56.01C698.86,-58.84 707.85,-62.1 716,-65.5 732.51,-72.39 735.32,-77.03 752,-83.5 757.07,-85.47 762.45,-87.33 767.85,-89.05"/>
<polygon fill="#63b8ff" stroke="#63b8ff" points="766.92,-92.42 777.51,-91.99 768.96,-85.73 766.92,-92.42"/>
</a>
</g>
</g>
<!-- Node9&#45;&gt;Node6 -->
<g id="edge12_Node000009_Node000006" class="edge">
<title>Node9&#45;&gt;Node6</title>
<g id="a_edge12_Node000009_Node000006"><a xlink:title=" ">
<path fill="none" stroke="#63b8ff" d="M699.24,-51.04C714.96,-52.86 733.49,-55.01 751.08,-57.04"/>
<polygon fill="#63b8ff" stroke="#63b8ff" points="750.96,-60.55 761.3,-58.23 751.77,-53.6 750.96,-60.55"/>
</a>
</g>
</g>
</g>
</svg>
