<?xml version="1.0" encoding="UTF-8" standalone="no"?>
<!DOCTYPE svg PUBLIC "-//W3C//DTD SVG 1.1//EN"
 "http://www.w3.org/Graphics/SVG/1.1/DTD/svg11.dtd">
<!-- Generated by graphviz version 2.43.0 (0)
 -->
<!-- Title: Tmc5160Handler::IsOvertemperature Pages: 1 -->
<svg width="928pt" height="138pt"
 viewBox="0.00 0.00 928.00 138.00" xmlns="http://www.w3.org/2000/svg" xmlns:xlink="http://www.w3.org/1999/xlink">
<g id="graph0" class="graph" transform="scale(1 1) rotate(0) translate(4 134)">
<title>Tmc5160Handler::IsOvertemperature</title>
<!-- Node1 -->
<g id="Node000001" class="node">
<title>Node1</title>
<g id="a_Node000001"><a xlink:title="Check for overtemperature condition.">
<polygon fill="#999999" stroke="#666666" points="198,-50 0,-50 0,-31 198,-31 198,-50"/>
<text text-anchor="middle" x="99" y="-38" font-family="Helvetica,sans-Serif" font-size="10.00">Tmc5160Handler::IsOvertemperature</text>
</a>
</g>
</g>
<!-- Node2 -->
<g id="Node000002" class="node">
<title>Node2</title>
<g id="a_Node000002"><a xlink:href="classTmc5160Handler.html#a6d4fce2433e03bb11b05a4278ef66fd0" target="_top" xlink:title=" ">
<polygon fill="white" stroke="#666666" points="421,-79.5 234,-79.5 234,-49.5 421,-49.5 421,-79.5"/>
<text text-anchor="start" x="242" y="-67.5" font-family="Helvetica,sans-Serif" font-size="10.00">Tmc5160Handler::EnsureInitialized</text>
<text text-anchor="middle" x="327.5" y="-56.5" font-family="Helvetica,sans-Serif" font-size="10.00">Locked</text>
</a>
</g>
</g>
<!-- Node1&#45;&gt;Node2 -->
<g id="edge1_Node000001_Node000002" class="edge">
<title>Node1&#45;&gt;Node2</title>
<g id="a_edge1_Node000001_Node000002"><a xlink:title=" ">
<path fill="none" stroke="#63b8ff" d="M189.84,-50.02C200.91,-51.19 212.28,-52.4 223.52,-53.59"/>
<polygon fill="#63b8ff" stroke="#63b8ff" points="223.48,-57.1 233.79,-54.68 224.22,-50.14 223.48,-57.1"/>
</a>
</g>
</g>
<!-- Node10 -->
<g id="Node000010" class="node">
<title>Node10</title>
<g id="a_Node000010"><a xlink:href="classTmc5160Handler.html#a439a68f9d3f6785e0a493f9ed3821325" target="_top" xlink:title="Helper: execute a visitor on the active driver (no lock, internal use)">
<polygon fill="white" stroke="#666666" points="406,-31.5 249,-31.5 249,-1.5 406,-1.5 406,-31.5"/>
<text text-anchor="start" x="257" y="-19.5" font-family="Helvetica,sans-Serif" font-size="10.00">Tmc5160Handler::visitDriver</text>
<text text-anchor="middle" x="327.5" y="-8.5" font-family="Helvetica,sans-Serif" font-size="10.00">Internal</text>
</a>
</g>
</g>
<!-- Node1&#45;&gt;Node10 -->
<g id="edge13_Node000001_Node000010" class="edge">
<title>Node1&#45;&gt;Node10</title>
<g id="a_edge13_Node000001_Node000010"><a xlink:title=" ">
<path fill="none" stroke="#63b8ff" d="M189.84,-30.98C205.85,-29.28 222.51,-27.52 238.47,-25.83"/>
<polygon fill="#63b8ff" stroke="#63b8ff" points="239.26,-29.26 248.84,-24.73 238.53,-22.3 239.26,-29.26"/>
</a>
</g>
</g>
<!-- Node3 -->
<g id="Node000003" class="node">
<title>Node3</title>
<g id="a_Node000003"><a xlink:href="classTmc5160Handler.html#a64755f326176b0a38485acf5ca69fd0c" target="_top" xlink:title="Initialize the TMC5160 driver with full configuration.">
<polygon fill="white" stroke="#666666" points="605,-74 457,-74 457,-55 605,-55 605,-74"/>
<text text-anchor="middle" x="531" y="-62" font-family="Helvetica,sans-Serif" font-size="10.00">Tmc5160Handler::Initialize</text>
</a>
</g>
</g>
<!-- Node2&#45;&gt;Node3 -->
<g id="edge2_Node000002_Node000003" class="edge">
<title>Node2&#45;&gt;Node3</title>
<g id="a_edge2_Node000002_Node000003"><a xlink:title=" ">
<path fill="none" stroke="#63b8ff" d="M421.29,-64.5C429.73,-64.5 438.25,-64.5 446.61,-64.5"/>
<polygon fill="#63b8ff" stroke="#63b8ff" points="446.7,-68 456.7,-64.5 446.7,-61 446.7,-68"/>
</a>
</g>
</g>
<!-- Node4 -->
<g id="Node000004" class="node">
<title>Node4</title>
<g id="a_Node000004"><a xlink:href="classLogger.html#a5e4bcdaea60b9ac227b564d780388769" target="_top" xlink:title="Log error message.">
<polygon fill="white" stroke="#666666" points="737.5,-130 658.5,-130 658.5,-111 737.5,-111 737.5,-130"/>
<text text-anchor="middle" x="698" y="-118" font-family="Helvetica,sans-Serif" font-size="10.00">Logger::Error</text>
</a>
</g>
</g>
<!-- Node3&#45;&gt;Node4 -->
<g id="edge3_Node000003_Node000004" class="edge">
<title>Node3&#45;&gt;Node4</title>
<g id="a_edge3_Node000003_Node000004"><a xlink:title=" ">
<path fill="none" stroke="#63b8ff" d="M558.81,-74.05C580.84,-81.85 612.88,-93.08 641,-102.5 646.2,-104.24 651.69,-106.05 657.12,-107.81"/>
<polygon fill="#63b8ff" stroke="#63b8ff" points="656.14,-111.17 666.73,-110.92 658.29,-104.51 656.14,-111.17"/>
</a>
</g>
</g>
<!-- Node7 -->
<g id="Node000007" class="node">
<title>Node7</title>
<g id="a_Node000007"><a xlink:href="classLogger.html#a5789d11f8f1356e2192c0023a089cbc4" target="_top" xlink:title="Get singleton instance.">
<polygon fill="white" stroke="#666666" points="755,-19 641,-19 641,0 755,0 755,-19"/>
<text text-anchor="middle" x="698" y="-7" font-family="Helvetica,sans-Serif" font-size="10.00">Logger::GetInstance</text>
</a>
</g>
</g>
<!-- Node3&#45;&gt;Node7 -->
<g id="edge6_Node000003_Node000007" class="edge">
<title>Node3&#45;&gt;Node7</title>
<g id="a_edge6_Node000003_Node000007"><a xlink:title=" ">
<path fill="none" stroke="#63b8ff" d="M560.74,-54.92C587.87,-45.88 628.73,-32.26 658.63,-22.29"/>
<polygon fill="#63b8ff" stroke="#63b8ff" points="659.93,-25.55 668.31,-19.06 657.72,-18.9 659.93,-25.55"/>
</a>
</g>
</g>
<!-- Node8 -->
<g id="Node000008" class="node">
<title>Node8</title>
<g id="a_Node000008"><a xlink:href="classLogger.html#a1c0c947d87884bca0395fd38d19d1102" target="_top" xlink:title="Log info message.">
<polygon fill="white" stroke="#666666" points="735,-93 661,-93 661,-74 735,-74 735,-93"/>
<text text-anchor="middle" x="698" y="-81" font-family="Helvetica,sans-Serif" font-size="10.00">Logger::Info</text>
</a>
</g>
</g>
<!-- Node3&#45;&gt;Node8 -->
<g id="edge7_Node000003_Node000008" class="edge">
<title>Node3&#45;&gt;Node8</title>
<g id="a_edge7_Node000003_Node000008"><a xlink:title=" ">
<path fill="none" stroke="#63b8ff" d="M605.33,-72.94C620.85,-74.73 636.8,-76.57 650.96,-78.2"/>
<polygon fill="#63b8ff" stroke="#63b8ff" points="650.58,-81.68 660.92,-79.35 651.38,-74.72 650.58,-81.68"/>
</a>
</g>
</g>
<!-- Node9 -->
<g id="Node000009" class="node">
<title>Node9</title>
<g id="a_Node000009"><a xlink:href="classLogger.html#a8c19c14724b0be1d2be63da4258c001a" target="_top" xlink:title="Log warning message.">
<polygon fill="white" stroke="#666666" points="738,-56 658,-56 658,-37 738,-37 738,-56"/>
<text text-anchor="middle" x="698" y="-44" font-family="Helvetica,sans-Serif" font-size="10.00">Logger::Warn</text>
</a>
</g>
</g>
<!-- Node3&#45;&gt;Node9 -->
<g id="edge10_Node000003_Node000009" class="edge">
<title>Node3&#45;&gt;Node9</title>
<g id="a_edge10_Node000003_Node000009"><a xlink:title=" ">
<path fill="none" stroke="#63b8ff" d="M605.33,-56.5C619.59,-54.94 634.23,-53.35 647.49,-51.9"/>
<polygon fill="#63b8ff" stroke="#63b8ff" points="648.25,-55.34 657.81,-50.78 647.49,-48.38 648.25,-55.34"/>
</a>
</g>
</g>
<!-- Node5 -->
<g id="Node000005" class="node">
<title>Node5</title>
<g id="a_Node000005"><a xlink:href="classLogger.html#a737b981213c02321a5235848334d7191" target="_top" xlink:title="Check if log level is enabled for tag.">
<polygon fill="white" stroke="#666666" points="920,-111 791,-111 791,-92 920,-92 920,-111"/>
<text text-anchor="middle" x="855.5" y="-99" font-family="Helvetica,sans-Serif" font-size="10.00">Logger::IsLevelEnabled</text>
</a>
</g>
</g>
<!-- Node4&#45;&gt;Node5 -->
<g id="edge4_Node000004_Node000005" class="edge">
<title>Node4&#45;&gt;Node5</title>
<g id="a_edge4_Node000004_Node000005"><a xlink:title=" ">
<path fill="none" stroke="#63b8ff" d="M737.84,-115.75C750.85,-114.16 765.82,-112.34 780.6,-110.53"/>
<polygon fill="#63b8ff" stroke="#63b8ff" points="781.28,-113.97 790.78,-109.29 780.43,-107.02 781.28,-113.97"/>
</a>
</g>
</g>
<!-- Node6 -->
<g id="Node000006" class="node">
<title>Node6</title>
<g id="a_Node000006"><a xlink:href="classLogger.html#aeede6ac18db92a47caede076ef188a13" target="_top" xlink:title="Internal logging method.">
<polygon fill="white" stroke="#666666" points="910.5,-74 800.5,-74 800.5,-55 910.5,-55 910.5,-74"/>
<text text-anchor="middle" x="855.5" y="-62" font-family="Helvetica,sans-Serif" font-size="10.00">Logger::LogInternal</text>
</a>
</g>
</g>
<!-- Node4&#45;&gt;Node6 -->
<g id="edge5_Node000004_Node000006" class="edge">
<title>Node4&#45;&gt;Node6</title>
<g id="a_edge5_Node000004_Node000006"><a xlink:title=" ">
<path fill="none" stroke="#63b8ff" d="M731.92,-110.98C739.59,-108.47 747.66,-105.59 755,-102.5 771.68,-95.48 774.25,-90.35 791,-83.5 796.53,-81.24 802.42,-79.12 808.31,-77.16"/>
<polygon fill="#63b8ff" stroke="#63b8ff" points="809.67,-80.41 818.14,-74.05 807.55,-73.73 809.67,-80.41"/>
</a>
</g>
</g>
<!-- Node8&#45;&gt;Node5 -->
<g id="edge8_Node000008_Node000005" class="edge">
<title>Node8&#45;&gt;Node5</title>
<g id="a_edge8_Node000008_Node000005"><a xlink:title=" ">
<path fill="none" stroke="#63b8ff" d="M735.07,-87.67C748.68,-89.25 764.72,-91.11 780.55,-92.94"/>
<polygon fill="#63b8ff" stroke="#63b8ff" points="780.55,-96.46 790.89,-94.14 781.36,-89.51 780.55,-96.46"/>
</a>
</g>
</g>
<!-- Node8&#45;&gt;Node6 -->
<g id="edge9_Node000008_Node000006" class="edge">
<title>Node8&#45;&gt;Node6</title>
<g id="a_edge9_Node000008_Node000006"><a xlink:title=" ">
<path fill="none" stroke="#63b8ff" d="M735.07,-79.09C751.49,-77.09 771.44,-74.65 790.3,-72.34"/>
<polygon fill="#63b8ff" stroke="#63b8ff" points="790.83,-75.81 800.33,-71.12 789.98,-68.86 790.83,-75.81"/>
</a>
</g>
</g>
<!-- Node9&#45;&gt;Node5 -->
<g id="edge11_Node000009_Node000005" class="edge">
<title>Node9&#45;&gt;Node5</title>
<g id="a_edge11_Node000009_Node000005"><a xlink:title=" ">
<path fill="none" stroke="#63b8ff" d="M729.51,-56.01C737.86,-58.84 746.85,-62.1 755,-65.5 771.51,-72.39 774.32,-77.03 791,-83.5 796.07,-85.47 801.45,-87.33 806.85,-89.05"/>
<polygon fill="#63b8ff" stroke="#63b8ff" points="805.92,-92.42 816.51,-91.99 807.96,-85.73 805.92,-92.42"/>
</a>
</g>
</g>
<!-- Node9&#45;&gt;Node6 -->
<g id="edge12_Node000009_Node000006" class="edge">
<title>Node9&#45;&gt;Node6</title>
<g id="a_edge12_Node000009_Node000006"><a xlink:title=" ">
<path fill="none" stroke="#63b8ff" d="M738.24,-51.04C753.96,-52.86 772.49,-55.01 790.08,-57.04"/>
<polygon fill="#63b8ff" stroke="#63b8ff" points="789.96,-60.55 800.3,-58.23 790.77,-53.6 789.96,-60.55"/>
</a>
</g>
</g>
</g>
</svg>
