<?xml version="1.0" encoding="UTF-8" standalone="no"?>
<!DOCTYPE svg PUBLIC "-//W3C//DTD SVG 1.1//EN"
 "http://www.w3.org/Graphics/SVG/1.1/DTD/svg11.dtd">
<!-- Generated by graphviz version 2.43.0 (0)
 -->
<!-- Title: Tmc9660Handler::Adc::ReadCurrentSenseChannel Pages: 1 -->
<svg width="1115pt" height="150pt"
 viewBox="0.00 0.00 1115.00 149.50" xmlns="http://www.w3.org/2000/svg" xmlns:xlink="http://www.w3.org/1999/xlink">
<g id="graph0" class="graph" transform="scale(1 1) rotate(0) translate(4 145.5)">
<title>Tmc9660Handler::Adc::ReadCurrentSenseChannel</title>
<!-- Node1 -->
<g id="Node000001" class="node">
<title>Node1</title>
<g id="a_Node000001"><a xlink:title="Read a phase current sense channel.">
<polygon fill="#999999" stroke="#666666" points="152,-54 0,-54 0,-24 152,-24 152,-54"/>
<text text-anchor="start" x="8" y="-42" font-family="Helvetica,sans-Serif" font-size="10.00">Tmc9660Handler::Adc</text>
<text text-anchor="middle" x="76" y="-31" font-family="Helvetica,sans-Serif" font-size="10.00">::ReadCurrentSenseChannel</text>
</a>
</g>
</g>
<!-- Node2 -->
<g id="Node000002" class="node">
<title>Node2</title>
<g id="a_Node000002"><a xlink:href="classTmc9660Handler.html#a393382194d0602e7aa02da6a8fd7a20a" target="_top" xlink:title="Get a reference to the Temperature wrapper.">
<polygon fill="white" stroke="#666666" points="355,-48.5 188,-48.5 188,-29.5 355,-29.5 355,-48.5"/>
<text text-anchor="middle" x="271.5" y="-36.5" font-family="Helvetica,sans-Serif" font-size="10.00">Tmc9660Handler::temperature</text>
</a>
</g>
</g>
<!-- Node1&#45;&gt;Node2 -->
<g id="edge1_Node000001_Node000002" class="edge">
<title>Node1&#45;&gt;Node2</title>
<g id="a_edge1_Node000001_Node000002"><a xlink:title=" ">
<path fill="none" stroke="#63b8ff" d="M152.09,-39C160.49,-39 169.12,-39 177.7,-39"/>
<polygon fill="#63b8ff" stroke="#63b8ff" points="177.75,-42.5 187.75,-39 177.75,-35.5 177.75,-42.5"/>
</a>
</g>
</g>
<!-- Node2&#45;&gt;Node2 -->
<g id="edge14_Node000002_Node000002" class="edge">
<title>Node2&#45;&gt;Node2</title>
<g id="a_edge14_Node000002_Node000002"><a xlink:title=" ">
<path fill="none" stroke="#63b8ff" d="M241.6,-48.58C227.05,-57.23 237.02,-66.5 271.5,-66.5 295.21,-66.5 307.32,-62.12 307.86,-56.57"/>
<polygon fill="#63b8ff" stroke="#63b8ff" points="310.41,-54.16 301.4,-48.58 304.96,-58.56 310.41,-54.16"/>
</a>
</g>
</g>
<!-- Node3 -->
<g id="Node000003" class="node">
<title>Node3</title>
<g id="a_Node000003"><a xlink:href="classTmc9660Handler.html#a5a279ae9d4b5a8e0d71cb24577ad88ea" target="_top" xlink:title="Ensure driver is initialized (lazy init entrypoint).">
<polygon fill="white" stroke="#666666" points="578,-29.5 391,-29.5 391,-10.5 578,-10.5 578,-29.5"/>
<text text-anchor="middle" x="484.5" y="-17.5" font-family="Helvetica,sans-Serif" font-size="10.00">Tmc9660Handler::EnsureInitialized</text>
</a>
</g>
</g>
<!-- Node2&#45;&gt;Node3 -->
<g id="edge2_Node000002_Node000003" class="edge">
<title>Node2&#45;&gt;Node3</title>
<g id="a_edge2_Node000002_Node000003"><a xlink:title=" ">
<path fill="none" stroke="#63b8ff" d="M355.29,-31.55C363.67,-30.79 372.25,-30.02 380.81,-29.25"/>
<polygon fill="#63b8ff" stroke="#63b8ff" points="381.18,-32.73 390.83,-28.34 380.56,-25.76 381.18,-32.73"/>
</a>
</g>
</g>
<!-- Node4 -->
<g id="Node000004" class="node">
<title>Node4</title>
<g id="a_Node000004"><a xlink:href="classTmc9660Handler.html#adc564847f8ae26c47412aaee0758991c" target="_top" xlink:title="Initialize the TMC9660 device.">
<polygon fill="white" stroke="#666666" points="762,-67.5 614,-67.5 614,-48.5 762,-48.5 762,-67.5"/>
<text text-anchor="middle" x="688" y="-55.5" font-family="Helvetica,sans-Serif" font-size="10.00">Tmc9660Handler::Initialize</text>
</a>
</g>
</g>
<!-- Node3&#45;&gt;Node4 -->
<g id="edge3_Node000003_Node000004" class="edge">
<title>Node3&#45;&gt;Node4</title>
<g id="a_edge3_Node000003_Node000004"><a xlink:title=" ">
<path fill="none" stroke="#63b8ff" d="M536.09,-29.54C563.51,-34.71 597.6,-41.14 626.43,-46.58"/>
<polygon fill="#63b8ff" stroke="#63b8ff" points="625.92,-50.04 636.39,-48.46 627.21,-43.16 625.92,-50.04"/>
</a>
</g>
</g>
<!-- Node10 -->
<g id="Node000010" class="node">
<title>Node10</title>
<g id="a_Node000010"><a xlink:href="classTmc9660Handler.html#a13db97d201a287d8aa60384e04070b9f" target="_top" xlink:title="Check if the TMC9660 driver has been initialized and is ready.">
<polygon fill="white" stroke="#666666" points="942,-30 798,-30 798,0 942,0 942,-30"/>
<text text-anchor="start" x="806" y="-18" font-family="Helvetica,sans-Serif" font-size="10.00">Tmc9660Handler::IsDriver</text>
<text text-anchor="middle" x="870" y="-7" font-family="Helvetica,sans-Serif" font-size="10.00">Ready</text>
</a>
</g>
</g>
<!-- Node3&#45;&gt;Node10 -->
<g id="edge13_Node000003_Node000010" class="edge">
<title>Node3&#45;&gt;Node10</title>
<g id="a_edge13_Node000003_Node000010"><a xlink:title=" ">
<path fill="none" stroke="#63b8ff" d="M578.33,-18.79C642.28,-17.96 726.42,-16.86 787.72,-16.06"/>
<polygon fill="#63b8ff" stroke="#63b8ff" points="787.78,-19.56 797.73,-15.93 787.69,-12.56 787.78,-19.56"/>
</a>
</g>
</g>
<!-- Node4&#45;&gt;Node2 -->
<g id="edge12_Node000004_Node000002" class="edge">
<title>Node4&#45;&gt;Node2</title>
<g id="a_edge12_Node000004_Node000002"><a xlink:title=" ">
<path fill="none" stroke="#63b8ff" d="M613.97,-54.65C544.87,-51.49 440.85,-46.72 365.78,-43.28"/>
<polygon fill="#63b8ff" stroke="#63b8ff" points="365.53,-39.76 355.38,-42.8 365.21,-46.75 365.53,-39.76"/>
</a>
</g>
</g>
<!-- Node5 -->
<g id="Node000005" class="node">
<title>Node5</title>
<g id="a_Node000005"><a xlink:href="classLogger.html#adce17848a5844e053bfd314863dc1404" target="_top" xlink:title="Log error message.">
<polygon fill="white" stroke="#666666" points="909.5,-141.5 830.5,-141.5 830.5,-122.5 909.5,-122.5 909.5,-141.5"/>
<text text-anchor="middle" x="870" y="-129.5" font-family="Helvetica,sans-Serif" font-size="10.00">Logger::Error</text>
</a>
</g>
</g>
<!-- Node4&#45;&gt;Node5 -->
<g id="edge4_Node000004_Node000005" class="edge">
<title>Node4&#45;&gt;Node5</title>
<g id="a_edge4_Node000004_Node000005"><a xlink:title=" ">
<path fill="none" stroke="#63b8ff" d="M704.73,-67.53C725.46,-79.74 763.37,-100.91 798,-114 805.11,-116.69 812.78,-119.1 820.35,-121.23"/>
<polygon fill="#63b8ff" stroke="#63b8ff" points="819.62,-124.66 830.19,-123.85 821.42,-117.89 819.62,-124.66"/>
</a>
</g>
</g>
<!-- Node8 -->
<g id="Node000008" class="node">
<title>Node8</title>
<g id="a_Node000008"><a xlink:href="classLogger.html#a5789d11f8f1356e2192c0023a089cbc4" target="_top" xlink:title="Get singleton instance.">
<polygon fill="white" stroke="#666666" points="927,-67.5 813,-67.5 813,-48.5 927,-48.5 927,-67.5"/>
<text text-anchor="middle" x="870" y="-55.5" font-family="Helvetica,sans-Serif" font-size="10.00">Logger::GetInstance</text>
</a>
</g>
</g>
<!-- Node4&#45;&gt;Node8 -->
<g id="edge7_Node000004_Node000008" class="edge">
<title>Node4&#45;&gt;Node8</title>
<g id="a_edge7_Node000004_Node000008"><a xlink:title=" ">
<path fill="none" stroke="#63b8ff" d="M762.21,-58C775.58,-58 789.45,-58 802.6,-58"/>
<polygon fill="#63b8ff" stroke="#63b8ff" points="802.97,-61.5 812.97,-58 802.97,-54.5 802.97,-61.5"/>
</a>
</g>
</g>
<!-- Node9 -->
<g id="Node000009" class="node">
<title>Node9</title>
<g id="a_Node000009"><a xlink:href="classLogger.html#a4681229c521795685fc14f6b55c82300" target="_top" xlink:title="Log info message.">
<polygon fill="white" stroke="#666666" points="907,-104.5 833,-104.5 833,-85.5 907,-85.5 907,-104.5"/>
<text text-anchor="middle" x="870" y="-92.5" font-family="Helvetica,sans-Serif" font-size="10.00">Logger::Info</text>
</a>
</g>
</g>
<!-- Node4&#45;&gt;Node9 -->
<g id="edge8_Node000004_Node000009" class="edge">
<title>Node4&#45;&gt;Node9</title>
<g id="a_edge8_Node000004_Node000009"><a xlink:title=" ">
<path fill="none" stroke="#63b8ff" d="M735.35,-67.53C762.23,-73.05 795.96,-79.99 822.81,-85.51"/>
<polygon fill="#63b8ff" stroke="#63b8ff" points="822.24,-88.96 832.74,-87.55 823.65,-82.1 822.24,-88.96"/>
</a>
</g>
</g>
<!-- Node4&#45;&gt;Node10 -->
<g id="edge11_Node000004_Node000010" class="edge">
<title>Node4&#45;&gt;Node10</title>
<g id="a_edge11_Node000004_Node000010"><a xlink:title=" ">
<path fill="none" stroke="#63b8ff" d="M728.95,-48.46C748.8,-43.72 773.4,-37.84 796.43,-32.34"/>
<polygon fill="#63b8ff" stroke="#63b8ff" points="797.27,-35.73 806.18,-30.01 795.64,-28.93 797.27,-35.73"/>
</a>
</g>
</g>
<!-- Node6 -->
<g id="Node000006" class="node">
<title>Node6</title>
<g id="a_Node000006"><a xlink:href="classLogger.html#af9e84e0ff6bd538e4f9ed8dcebc3e2f0" target="_top" xlink:title="Check if log level is enabled for tag.">
<polygon fill="white" stroke="#666666" points="1107,-141.5 978,-141.5 978,-122.5 1107,-122.5 1107,-141.5"/>
<text text-anchor="middle" x="1042.5" y="-129.5" font-family="Helvetica,sans-Serif" font-size="10.00">Logger::IsLevelEnabled</text>
</a>
</g>
</g>
<!-- Node5&#45;&gt;Node6 -->
<g id="edge5_Node000005_Node000006" class="edge">
<title>Node5&#45;&gt;Node6</title>
<g id="a_edge5_Node000005_Node000006"><a xlink:title=" ">
<path fill="none" stroke="#63b8ff" d="M909.69,-132C926.92,-132 947.81,-132 967.83,-132"/>
<polygon fill="#63b8ff" stroke="#63b8ff" points="967.89,-135.5 977.89,-132 967.89,-128.5 967.89,-135.5"/>
</a>
</g>
</g>
<!-- Node7 -->
<g id="Node000007" class="node">
<title>Node7</title>
<g id="a_Node000007"><a xlink:href="classLogger.html#a6adb205db597526fb91ad20067400394" target="_top" xlink:title="Internal logging method.">
<polygon fill="white" stroke="#666666" points="1097.5,-104.5 987.5,-104.5 987.5,-85.5 1097.5,-85.5 1097.5,-104.5"/>
<text text-anchor="middle" x="1042.5" y="-92.5" font-family="Helvetica,sans-Serif" font-size="10.00">Logger::LogInternal</text>
</a>
</g>
</g>
<!-- Node5&#45;&gt;Node7 -->
<g id="edge6_Node000005_Node000007" class="edge">
<title>Node5&#45;&gt;Node7</title>
<g id="a_edge6_Node000005_Node000007"><a xlink:title=" ">
<path fill="none" stroke="#63b8ff" d="M909.69,-123.6C932.76,-118.6 962.4,-112.17 987.72,-106.67"/>
<polygon fill="#63b8ff" stroke="#63b8ff" points="988.52,-110.08 997.55,-104.54 987.04,-103.24 988.52,-110.08"/>
</a>
</g>
</g>
<!-- Node9&#45;&gt;Node6 -->
<g id="edge9_Node000009_Node000006" class="edge">
<title>Node9&#45;&gt;Node6</title>
<g id="a_edge9_Node000009_Node000006"><a xlink:title=" ">
<path fill="none" stroke="#63b8ff" d="M907.16,-102.85C930.56,-107.93 961.45,-114.63 987.71,-120.33"/>
<polygon fill="#63b8ff" stroke="#63b8ff" points="987.01,-123.76 997.52,-122.46 988.49,-116.92 987.01,-123.76"/>
</a>
</g>
</g>
<!-- Node9&#45;&gt;Node7 -->
<g id="edge10_Node000009_Node000007" class="edge">
<title>Node9&#45;&gt;Node7</title>
<g id="a_edge10_Node000009_Node000007"><a xlink:title=" ">
<path fill="none" stroke="#63b8ff" d="M907.16,-95C927.42,-95 953.31,-95 976.93,-95"/>
<polygon fill="#63b8ff" stroke="#63b8ff" points="977.25,-98.5 987.25,-95 977.25,-91.5 977.25,-98.5"/>
</a>
</g>
</g>
</g>
</svg>
