<?xml version="1.0" encoding="UTF-8" standalone="no"?>
<!DOCTYPE svg PUBLIC "-//W3C//DTD SVG 1.1//EN"
 "http://www.w3.org/Graphics/SVG/1.1/DTD/svg11.dtd">
<!-- Generated by graphviz version 2.43.0 (0)
 -->
<!-- Title: As5047uHandler::ValidateSensor Pages: 1 -->
<svg width="990pt" height="70pt"
 viewBox="0.00 0.00 990.00 69.50" xmlns="http://www.w3.org/2000/svg" xmlns:xlink="http://www.w3.org/1999/xlink">
<g id="graph0" class="graph" transform="scale(1 1) rotate(0) translate(4 65.5)">
<title>As5047uHandler::ValidateSensor</title>
<!-- Node1 -->
<g id="Node000001" class="node">
<title>Node1</title>
<g id="a_Node000001"><a xlink:title="Validate sensor parameters.">
<polygon fill="#999999" stroke="#666666" points="143,-48 0,-48 0,-18 143,-18 143,-48"/>
<text text-anchor="start" x="8" y="-36" font-family="Helvetica,sans-Serif" font-size="10.00">As5047uHandler::Validate</text>
<text text-anchor="middle" x="71.5" y="-25" font-family="Helvetica,sans-Serif" font-size="10.00">Sensor</text>
</a>
</g>
</g>
<!-- Node2 -->
<g id="Node000002" class="node">
<title>Node2</title>
<g id="a_Node000002"><a xlink:href="classAs5047uHandler.html#a040ba453eb7892ab3189631d73a2f683" target="_top" xlink:title="Ensure initialized while mutex is already held.">
<polygon fill="white" stroke="#666666" points="363,-48 179,-48 179,-18 363,-18 363,-48"/>
<text text-anchor="start" x="187" y="-36" font-family="Helvetica,sans-Serif" font-size="10.00">As5047uHandler::EnsureInitialized</text>
<text text-anchor="middle" x="271" y="-25" font-family="Helvetica,sans-Serif" font-size="10.00">Locked</text>
</a>
</g>
</g>
<!-- Node1&#45;&gt;Node2 -->
<g id="edge1_Node000001_Node000002" class="edge">
<title>Node1&#45;&gt;Node2</title>
<g id="a_edge1_Node000001_Node000002"><a xlink:title=" ">
<path fill="none" stroke="#63b8ff" d="M143.24,-33C151.52,-33 160.08,-33 168.66,-33"/>
<polygon fill="#63b8ff" stroke="#63b8ff" points="168.74,-36.5 178.74,-33 168.74,-29.5 168.74,-36.5"/>
</a>
</g>
</g>
<!-- Node3 -->
<g id="Node000003" class="node">
<title>Node3</title>
<g id="a_Node000003"><a xlink:href="classAs5047uHandler.html#a157826010a85f4279b7a13791fcf2003" target="_top" xlink:title="Initialize the AS5047U sensor (lazy initialization)">
<polygon fill="white" stroke="#666666" points="544,-42.5 399,-42.5 399,-23.5 544,-23.5 544,-42.5"/>
<text text-anchor="middle" x="471.5" y="-30.5" font-family="Helvetica,sans-Serif" font-size="10.00">As5047uHandler::Initialize</text>
</a>
</g>
</g>
<!-- Node2&#45;&gt;Node3 -->
<g id="edge2_Node000002_Node000003" class="edge">
<title>Node2&#45;&gt;Node3</title>
<g id="a_edge2_Node000002_Node000003"><a xlink:title=" ">
<path fill="none" stroke="#63b8ff" d="M363.12,-33C371.67,-33 380.3,-33 388.75,-33"/>
<polygon fill="#63b8ff" stroke="#63b8ff" points="388.96,-36.5 398.96,-33 388.96,-29.5 388.96,-36.5"/>
</a>
</g>
</g>
<!-- Node4 -->
<g id="Node000004" class="node">
<title>Node4</title>
<g id="a_Node000004"><a xlink:href="classAs5047uHandler.html#a0e7c20d4fd883c55ff9091041ec04c39" target="_top" xlink:title="Apply configuration to sensor.">
<polygon fill="white" stroke="#666666" points="776,-61.5 580,-61.5 580,-42.5 776,-42.5 776,-61.5"/>
<text text-anchor="middle" x="678" y="-49.5" font-family="Helvetica,sans-Serif" font-size="10.00">As5047uHandler::ApplyConfiguration</text>
</a>
</g>
</g>
<!-- Node3&#45;&gt;Node4 -->
<g id="edge3_Node000003_Node000004" class="edge">
<title>Node3&#45;&gt;Node4</title>
<g id="a_edge3_Node000003_Node000004"><a xlink:title=" ">
<path fill="none" stroke="#63b8ff" d="M544.02,-39.65C552.39,-40.42 561.05,-41.23 569.76,-42.04"/>
<polygon fill="#63b8ff" stroke="#63b8ff" points="569.71,-45.55 579.99,-42.99 570.36,-38.58 569.71,-45.55"/>
</a>
</g>
</g>
<!-- Node5 -->
<g id="Node000005" class="node">
<title>Node5</title>
<g id="a_Node000005"><a xlink:href="classAs5047uHandler.html#a6854be00365afbb2eeddfb3177939456" target="_top" xlink:title="Update cached diagnostics.">
<polygon fill="white" stroke="#666666" points="775.5,-24.5 580.5,-24.5 580.5,-5.5 775.5,-5.5 775.5,-24.5"/>
<text text-anchor="middle" x="678" y="-12.5" font-family="Helvetica,sans-Serif" font-size="10.00">As5047uHandler::UpdateDiagnostics</text>
</a>
</g>
</g>
<!-- Node3&#45;&gt;Node5 -->
<g id="edge4_Node000003_Node000005" class="edge">
<title>Node3&#45;&gt;Node5</title>
<g id="a_edge4_Node000003_Node000005"><a xlink:title=" ">
<path fill="none" stroke="#63b8ff" d="M544.02,-26.7C552.56,-25.95 561.41,-25.17 570.31,-24.39"/>
<polygon fill="#63b8ff" stroke="#63b8ff" points="570.7,-27.87 580.35,-23.51 570.09,-20.9 570.7,-27.87"/>
</a>
</g>
</g>
<!-- Node6 -->
<g id="Node000006" class="node">
<title>Node6</title>
<g id="a_Node000006"><a xlink:href="classAs5047uHandler.html#a6b29b6418f7b2d19cbdcc65aa6eb9756" target="_top" xlink:title="Handle sensor errors and update diagnostics.">
<polygon fill="white" stroke="#666666" points="982,-30 812,-30 812,0 982,0 982,-30"/>
<text text-anchor="start" x="820" y="-18" font-family="Helvetica,sans-Serif" font-size="10.00">As5047uHandler::HandleSensor</text>
<text text-anchor="middle" x="897" y="-7" font-family="Helvetica,sans-Serif" font-size="10.00">Errors</text>
</a>
</g>
</g>
<!-- Node5&#45;&gt;Node6 -->
<g id="edge5_Node000005_Node000006" class="edge">
<title>Node5&#45;&gt;Node6</title>
<g id="a_edge5_Node000005_Node000006"><a xlink:title=" ">
<path fill="none" stroke="#63b8ff" d="M775.76,-15C784.37,-15 793.08,-15 801.67,-15"/>
<polygon fill="#63b8ff" stroke="#63b8ff" points="801.69,-18.5 811.69,-15 801.69,-11.5 801.69,-18.5"/>
</a>
</g>
</g>
</g>
</svg>
