<?xml version="1.0" encoding="UTF-8" standalone="no"?>
<!DOCTYPE svg PUBLIC "-//W3C//DTD SVG 1.1//EN"
 "http://www.w3.org/Graphics/SVG/1.1/DTD/svg11.dtd">
<!-- Generated by graphviz version 2.43.0 (0)
 -->
<!-- Title: Max22200Handler::withDriver Pages: 1 -->
<svg width="905pt" height="138pt"
 viewBox="0.00 0.00 905.00 138.00" xmlns="http://www.w3.org/2000/svg" xmlns:xlink="http://www.w3.org/1999/xlink">
<g id="graph0" class="graph" transform="scale(1 1) rotate(0) translate(4 134)">
<title>Max22200Handler::withDriver</title>
<!-- Node1 -->
<g id="Node000001" class="node">
<title>Node1</title>
<g id="a_Node000001"><a xlink:title="Execute a lambda with a locked, initialized driver.">
<polygon fill="#999999" stroke="#666666" points="163,-83 0,-83 0,-64 163,-64 163,-83"/>
<text text-anchor="middle" x="81.5" y="-71" font-family="Helvetica,sans-Serif" font-size="10.00">Max22200Handler::withDriver</text>
</a>
</g>
</g>
<!-- Node2 -->
<g id="Node000002" class="node">
<title>Node2</title>
<g id="a_Node000002"><a xlink:href="classMax22200Handler.html#aa00edacb247660349767fa4521121104" target="_top" xlink:title=" ">
<polygon fill="white" stroke="#666666" points="392,-88.5 199,-88.5 199,-58.5 392,-58.5 392,-88.5"/>
<text text-anchor="start" x="207" y="-76.5" font-family="Helvetica,sans-Serif" font-size="10.00">Max22200Handler::EnsureInitialized</text>
<text text-anchor="middle" x="295.5" y="-65.5" font-family="Helvetica,sans-Serif" font-size="10.00">Locked</text>
</a>
</g>
</g>
<!-- Node1&#45;&gt;Node2 -->
<g id="edge1_Node000001_Node000002" class="edge">
<title>Node1&#45;&gt;Node2</title>
<g id="a_edge1_Node000001_Node000002"><a xlink:title=" ">
<path fill="none" stroke="#63b8ff" d="M163.25,-73.5C171.58,-73.5 180.13,-73.5 188.67,-73.5"/>
<polygon fill="#63b8ff" stroke="#63b8ff" points="188.69,-77 198.69,-73.5 188.69,-70 188.69,-77"/>
</a>
</g>
</g>
<!-- Node3 -->
<g id="Node000003" class="node">
<title>Node3</title>
<g id="a_Node000003"><a xlink:href="classLogger.html#adce17848a5844e053bfd314863dc1404" target="_top" xlink:title="Log error message.">
<polygon fill="white" stroke="#666666" points="714.5,-130 635.5,-130 635.5,-111 714.5,-111 714.5,-130"/>
<text text-anchor="middle" x="675" y="-118" font-family="Helvetica,sans-Serif" font-size="10.00">Logger::Error</text>
</a>
</g>
</g>
<!-- Node2&#45;&gt;Node3 -->
<g id="edge2_Node000002_Node000003" class="edge">
<title>Node2&#45;&gt;Node3</title>
<g id="a_edge2_Node000002_Node000003"><a xlink:title=" ">
<path fill="none" stroke="#63b8ff" d="M392.33,-87.69C404.34,-89.37 416.45,-91.01 428,-92.5 496.26,-101.31 575.36,-110.06 625.04,-115.37"/>
<polygon fill="#63b8ff" stroke="#63b8ff" points="624.87,-118.87 635.18,-116.45 625.61,-111.91 624.87,-118.87"/>
</a>
</g>
</g>
<!-- Node6 -->
<g id="Node000006" class="node">
<title>Node6</title>
<g id="a_Node000006"><a xlink:href="classLogger.html#a5789d11f8f1356e2192c0023a089cbc4" target="_top" xlink:title="Get singleton instance.">
<polygon fill="white" stroke="#666666" points="732,-19 618,-19 618,0 732,0 732,-19"/>
<text text-anchor="middle" x="675" y="-7" font-family="Helvetica,sans-Serif" font-size="10.00">Logger::GetInstance</text>
</a>
</g>
</g>
<!-- Node2&#45;&gt;Node6 -->
<g id="edge5_Node000002_Node000006" class="edge">
<title>Node2&#45;&gt;Node6</title>
<g id="a_edge5_Node000002_Node000006"><a xlink:title=" ">
<path fill="none" stroke="#63b8ff" d="M385.01,-58.49C453.23,-46.93 546.08,-31.19 607.92,-20.7"/>
<polygon fill="#63b8ff" stroke="#63b8ff" points="608.68,-24.12 617.95,-19 607.51,-17.22 608.68,-24.12"/>
</a>
</g>
</g>
<!-- Node7 -->
<g id="Node000007" class="node">
<title>Node7</title>
<g id="a_Node000007"><a xlink:href="classMax22200Handler.html#ad6c72b45a96c36cd1b450f5e330fad25" target="_top" xlink:title="Initialize driver (ENABLE HIGH, read/clear STATUS, set ACTIVE).">
<polygon fill="white" stroke="#666666" points="582,-83 428,-83 428,-64 582,-64 582,-83"/>
<text text-anchor="middle" x="505" y="-71" font-family="Helvetica,sans-Serif" font-size="10.00">Max22200Handler::Initialize</text>
</a>
</g>
</g>
<!-- Node2&#45;&gt;Node7 -->
<g id="edge6_Node000002_Node000007" class="edge">
<title>Node2&#45;&gt;Node7</title>
<g id="a_edge6_Node000002_Node000007"><a xlink:title=" ">
<path fill="none" stroke="#63b8ff" d="M392.05,-73.5C400.6,-73.5 409.22,-73.5 417.68,-73.5"/>
<polygon fill="#63b8ff" stroke="#63b8ff" points="417.9,-77 427.9,-73.5 417.9,-70 417.9,-77"/>
</a>
</g>
</g>
<!-- Node4 -->
<g id="Node000004" class="node">
<title>Node4</title>
<g id="a_Node000004"><a xlink:href="classLogger.html#af9e84e0ff6bd538e4f9ed8dcebc3e2f0" target="_top" xlink:title="Check if log level is enabled for tag.">
<polygon fill="white" stroke="#666666" points="897,-111 768,-111 768,-92 897,-92 897,-111"/>
<text text-anchor="middle" x="832.5" y="-99" font-family="Helvetica,sans-Serif" font-size="10.00">Logger::IsLevelEnabled</text>
</a>
</g>
</g>
<!-- Node3&#45;&gt;Node4 -->
<g id="edge3_Node000003_Node000004" class="edge">
<title>Node3&#45;&gt;Node4</title>
<g id="a_edge3_Node000003_Node000004"><a xlink:title=" ">
<path fill="none" stroke="#63b8ff" d="M714.84,-115.75C727.85,-114.16 742.82,-112.34 757.6,-110.53"/>
<polygon fill="#63b8ff" stroke="#63b8ff" points="758.28,-113.97 767.78,-109.29 757.43,-107.02 758.28,-113.97"/>
</a>
</g>
</g>
<!-- Node5 -->
<g id="Node000005" class="node">
<title>Node5</title>
<g id="a_Node000005"><a xlink:href="classLogger.html#a6adb205db597526fb91ad20067400394" target="_top" xlink:title="Internal logging method.">
<polygon fill="white" stroke="#666666" points="887.5,-74 777.5,-74 777.5,-55 887.5,-55 887.5,-74"/>
<text text-anchor="middle" x="832.5" y="-62" font-family="Helvetica,sans-Serif" font-size="10.00">Logger::LogInternal</text>
</a>
</g>
</g>
<!-- Node3&#45;&gt;Node5 -->
<g id="edge4_Node000003_Node000005" class="edge">
<title>Node3&#45;&gt;Node5</title>
<g id="a_edge4_Node000003_Node000005"><a xlink:title=" ">
<path fill="none" stroke="#63b8ff" d="M708.92,-110.98C716.59,-108.47 724.66,-105.59 732,-102.5 748.68,-95.48 751.25,-90.35 768,-83.5 773.53,-81.24 779.42,-79.12 785.31,-77.16"/>
<polygon fill="#63b8ff" stroke="#63b8ff" points="786.67,-80.41 795.14,-74.05 784.55,-73.73 786.67,-80.41"/>
</a>
</g>
</g>
<!-- Node7&#45;&gt;Node3 -->
<g id="edge7_Node000007_Node000003" class="edge">
<title>Node7&#45;&gt;Node3</title>
<g id="a_edge7_Node000007_Node000003"><a xlink:title=" ">
<path fill="none" stroke="#63b8ff" d="M540,-83.01C565.87,-90.25 601.7,-100.27 629.8,-108.13"/>
<polygon fill="#63b8ff" stroke="#63b8ff" points="629.19,-111.6 639.77,-110.92 631.08,-104.86 629.19,-111.6"/>
</a>
</g>
</g>
<!-- Node7&#45;&gt;Node6 -->
<g id="edge8_Node000007_Node000006" class="edge">
<title>Node7&#45;&gt;Node6</title>
<g id="a_edge8_Node000007_Node000006"><a xlink:title=" ">
<path fill="none" stroke="#63b8ff" d="M527.69,-64C550.11,-54.32 586.21,-39.12 618,-27.5 622.85,-25.73 627.97,-23.95 633.07,-22.25"/>
<polygon fill="#63b8ff" stroke="#63b8ff" points="634.34,-25.51 642.75,-19.06 632.16,-18.86 634.34,-25.51"/>
</a>
</g>
</g>
<!-- Node8 -->
<g id="Node000008" class="node">
<title>Node8</title>
<g id="a_Node000008"><a xlink:href="classLogger.html#a4681229c521795685fc14f6b55c82300" target="_top" xlink:title="Log info message.">
<polygon fill="white" stroke="#666666" points="712,-56 638,-56 638,-37 712,-37 712,-56"/>
<text text-anchor="middle" x="675" y="-44" font-family="Helvetica,sans-Serif" font-size="10.00">Logger::Info</text>
</a>
</g>
</g>
<!-- Node7&#45;&gt;Node8 -->
<g id="edge9_Node000007_Node000008" class="edge">
<title>Node7&#45;&gt;Node8</title>
<g id="a_edge9_Node000007_Node000008"><a xlink:title=" ">
<path fill="none" stroke="#63b8ff" d="M565.23,-63.98C585.73,-60.69 608.39,-57.04 627.7,-53.94"/>
<polygon fill="#63b8ff" stroke="#63b8ff" points="628.44,-57.37 637.75,-52.33 627.32,-50.46 628.44,-57.37"/>
</a>
</g>
</g>
<!-- Node9 -->
<g id="Node000009" class="node">
<title>Node9</title>
<g id="a_Node000009"><a xlink:href="classLogger.html#aaa95ffa14d07a965d4a85bdec82cba26" target="_top" xlink:title="Log warning message.">
<polygon fill="white" stroke="#666666" points="715,-93 635,-93 635,-74 715,-74 715,-93"/>
<text text-anchor="middle" x="675" y="-81" font-family="Helvetica,sans-Serif" font-size="10.00">Logger::Warn</text>
</a>
</g>
</g>
<!-- Node7&#45;&gt;Node9 -->
<g id="edge12_Node000007_Node000009" class="edge">
<title>Node7&#45;&gt;Node9</title>
<g id="a_edge12_Node000007_Node000009"><a xlink:title=" ">
<path fill="none" stroke="#63b8ff" d="M582.14,-78.03C596.52,-78.89 611.22,-79.76 624.52,-80.55"/>
<polygon fill="#63b8ff" stroke="#63b8ff" points="624.66,-84.07 634.85,-81.17 625.08,-77.08 624.66,-84.07"/>
</a>
</g>
</g>
<!-- Node8&#45;&gt;Node4 -->
<g id="edge10_Node000008_Node000004" class="edge">
<title>Node8&#45;&gt;Node4</title>
<g id="a_edge10_Node000008_Node000004"><a xlink:title=" ">
<path fill="none" stroke="#63b8ff" d="M706.51,-56.01C714.86,-58.84 723.85,-62.1 732,-65.5 748.51,-72.39 751.32,-77.03 768,-83.5 773.07,-85.47 778.45,-87.33 783.85,-89.05"/>
<polygon fill="#63b8ff" stroke="#63b8ff" points="782.92,-92.42 793.51,-91.99 784.96,-85.73 782.92,-92.42"/>
</a>
</g>
</g>
<!-- Node8&#45;&gt;Node5 -->
<g id="edge11_Node000008_Node000005" class="edge">
<title>Node8&#45;&gt;Node5</title>
<g id="a_edge11_Node000008_Node000005"><a xlink:title=" ">
<path fill="none" stroke="#63b8ff" d="M712.07,-50.67C728.49,-52.58 748.44,-54.89 767.3,-57.07"/>
<polygon fill="#63b8ff" stroke="#63b8ff" points="767,-60.56 777.33,-58.23 767.8,-53.6 767,-60.56"/>
</a>
</g>
</g>
<!-- Node9&#45;&gt;Node4 -->
<g id="edge13_Node000009_Node000004" class="edge">
<title>Node9&#45;&gt;Node4</title>
<g id="a_edge13_Node000009_Node000004"><a xlink:title=" ">
<path fill="none" stroke="#63b8ff" d="M715.24,-88.04C728.18,-89.54 743.02,-91.26 757.68,-92.95"/>
<polygon fill="#63b8ff" stroke="#63b8ff" points="757.43,-96.45 767.77,-94.12 758.24,-89.5 757.43,-96.45"/>
</a>
</g>
</g>
<!-- Node9&#45;&gt;Node5 -->
<g id="edge14_Node000009_Node000005" class="edge">
<title>Node9&#45;&gt;Node5</title>
<g id="a_edge14_Node000009_Node000005"><a xlink:title=" ">
<path fill="none" stroke="#63b8ff" d="M715.24,-78.71C730.96,-76.78 749.49,-74.52 767.08,-72.37"/>
<polygon fill="#63b8ff" stroke="#63b8ff" points="767.8,-75.81 777.3,-71.12 766.95,-68.86 767.8,-75.81"/>
</a>
</g>
</g>
</g>
</svg>
