<?xml version="1.0" encoding="UTF-8" standalone="no"?>
<!DOCTYPE svg PUBLIC "-//W3C//DTD SVG 1.1//EN"
 "http://www.w3.org/Graphics/SVG/1.1/DTD/svg11.dtd">
<!-- Generated by graphviz version 2.43.0 (0)
 -->
<!-- Title: As5047uHandler::DumpDiagnostics Pages: 1 -->
<svg width="519pt" height="119pt"
 viewBox="0.00 0.00 519.00 119.00" xmlns="http://www.w3.org/2000/svg" xmlns:xlink="http://www.w3.org/1999/xlink">
<g id="graph0" class="graph" transform="scale(1 1) rotate(0) translate(4 115)">
<title>As5047uHandler::DumpDiagnostics</title>
<!-- Node1 -->
<g id="Node000001" class="node">
<title>Node1</title>
<g id="a_Node000001"><a xlink:title="Dump comprehensive diagnostics and statistics to log as INFO level. Logs AS5047U sensor status,...">
<polygon fill="#999999" stroke="#666666" points="189,-74 0,-74 0,-55 189,-55 189,-74"/>
<text text-anchor="middle" x="94.5" y="-62" font-family="Helvetica,sans-Serif" font-size="10.00">As5047uHandler::DumpDiagnostics</text>
</a>
</g>
</g>
<!-- Node2 -->
<g id="Node000002" class="node">
<title>Node2</title>
<g id="a_Node000002"><a xlink:href="As5047uHandler_8h.html#ae4489a63be6104ea4bf536da5229a5e1" target="_top" xlink:title="Convert As5047uError to string for debugging.">
<polygon fill="white" stroke="#666666" points="346,-111 225,-111 225,-92 346,-92 346,-111"/>
<text text-anchor="middle" x="285.5" y="-99" font-family="Helvetica,sans-Serif" font-size="10.00">As5047uErrorToString</text>
</a>
</g>
</g>
<!-- Node1&#45;&gt;Node2 -->
<g id="edge1_Node000001_Node000002" class="edge">
<title>Node1&#45;&gt;Node2</title>
<g id="a_edge1_Node000001_Node000002"><a xlink:title=" ">
<path fill="none" stroke="#63b8ff" d="M144.17,-74.03C169.1,-78.91 199.63,-84.89 225.85,-90.02"/>
<polygon fill="#63b8ff" stroke="#63b8ff" points="225.18,-93.45 235.66,-91.94 226.52,-86.58 225.18,-93.45"/>
</a>
</g>
</g>
<!-- Node3 -->
<g id="Node000003" class="node">
<title>Node3</title>
<g id="a_Node000003"><a xlink:href="classLogger.html#a5789d11f8f1356e2192c0023a089cbc4" target="_top" xlink:title="Get singleton instance.">
<polygon fill="white" stroke="#666666" points="342.5,-74 228.5,-74 228.5,-55 342.5,-55 342.5,-74"/>
<text text-anchor="middle" x="285.5" y="-62" font-family="Helvetica,sans-Serif" font-size="10.00">Logger::GetInstance</text>
</a>
</g>
</g>
<!-- Node1&#45;&gt;Node3 -->
<g id="edge2_Node000001_Node000003" class="edge">
<title>Node1&#45;&gt;Node3</title>
<g id="a_edge2_Node000001_Node000003"><a xlink:title=" ">
<path fill="none" stroke="#63b8ff" d="M189.17,-64.5C198.99,-64.5 208.81,-64.5 218.23,-64.5"/>
<polygon fill="#63b8ff" stroke="#63b8ff" points="218.27,-68 228.27,-64.5 218.27,-61 218.27,-68"/>
</a>
</g>
</g>
<!-- Node4 -->
<g id="Node000004" class="node">
<title>Node4</title>
<g id="a_Node000004"><a xlink:href="classLogger.html#a1c0c947d87884bca0395fd38d19d1102" target="_top" xlink:title="Log info message.">
<polygon fill="white" stroke="#666666" points="322.5,-37 248.5,-37 248.5,-18 322.5,-18 322.5,-37"/>
<text text-anchor="middle" x="285.5" y="-25" font-family="Helvetica,sans-Serif" font-size="10.00">Logger::Info</text>
</a>
</g>
</g>
<!-- Node1&#45;&gt;Node4 -->
<g id="edge3_Node000001_Node000004" class="edge">
<title>Node1&#45;&gt;Node4</title>
<g id="a_edge3_Node000001_Node000004"><a xlink:title=" ">
<path fill="none" stroke="#63b8ff" d="M144.17,-54.97C173.1,-49.31 209.6,-42.16 238.11,-36.58"/>
<polygon fill="#63b8ff" stroke="#63b8ff" points="239.09,-39.96 248.23,-34.6 237.75,-33.09 239.09,-39.96"/>
</a>
</g>
</g>
<!-- Node5 -->
<g id="Node000005" class="node">
<title>Node5</title>
<g id="a_Node000005"><a xlink:href="classLogger.html#a737b981213c02321a5235848334d7191" target="_top" xlink:title="Check if log level is enabled for tag.">
<polygon fill="white" stroke="#666666" points="511,-56 382,-56 382,-37 511,-37 511,-56"/>
<text text-anchor="middle" x="446.5" y="-44" font-family="Helvetica,sans-Serif" font-size="10.00">Logger::IsLevelEnabled</text>
</a>
</g>
</g>
<!-- Node4&#45;&gt;Node5 -->
<g id="edge4_Node000004_Node000005" class="edge">
<title>Node4&#45;&gt;Node5</title>
<g id="a_edge4_Node000004_Node000005"><a xlink:title=" ">
<path fill="none" stroke="#63b8ff" d="M322.58,-31.81C337.21,-33.56 354.67,-35.65 371.77,-37.69"/>
<polygon fill="#63b8ff" stroke="#63b8ff" points="371.43,-41.17 381.77,-38.88 372.26,-34.22 371.43,-41.17"/>
</a>
</g>
</g>
<!-- Node6 -->
<g id="Node000006" class="node">
<title>Node6</title>
<g id="a_Node000006"><a xlink:href="classLogger.html#aeede6ac18db92a47caede076ef188a13" target="_top" xlink:title="Internal logging method.">
<polygon fill="white" stroke="#666666" points="501.5,-19 391.5,-19 391.5,0 501.5,0 501.5,-19"/>
<text text-anchor="middle" x="446.5" y="-7" font-family="Helvetica,sans-Serif" font-size="10.00">Logger::LogInternal</text>
</a>
</g>
</g>
<!-- Node4&#45;&gt;Node6 -->
<g id="edge5_Node000004_Node000006" class="edge">
<title>Node4&#45;&gt;Node6</title>
<g id="a_edge5_Node000004_Node000006"><a xlink:title=" ">
<path fill="none" stroke="#63b8ff" d="M322.58,-23.42C339.98,-21.45 361.38,-19.02 381.43,-16.75"/>
<polygon fill="#63b8ff" stroke="#63b8ff" points="381.9,-20.22 391.44,-15.62 381.11,-13.27 381.9,-20.22"/>
</a>
</g>
</g>
</g>
</svg>
