<?xml version="1.0" encoding="UTF-8" standalone="no"?>
<!DOCTYPE svg PUBLIC "-//W3C//DTD SVG 1.1//EN"
 "http://www.w3.org/Graphics/SVG/1.1/DTD/svg11.dtd">
<!-- Generated by graphviz version 2.43.0 (0)
 -->
<!-- Title: NtcTemperatureHandler::Initialize Pages: 1 -->
<svg width="864pt" height="272pt"
 viewBox="0.00 0.00 864.00 271.50" xmlns="http://www.w3.org/2000/svg" xmlns:xlink="http://www.w3.org/1999/xlink">
<g id="graph0" class="graph" transform="scale(1 1) rotate(0) translate(4 267.5)">
<title>NtcTemperatureHandler::Initialize</title>
<!-- Node1 -->
<g id="Node000001" class="node">
<title>Node1</title>
<g id="a_Node000001"><a xlink:title=" ">
<polygon fill="#999999" stroke="#666666" points="133,-164 0,-164 0,-134 133,-134 133,-164"/>
<text text-anchor="start" x="8" y="-152" font-family="Helvetica,sans-Serif" font-size="10.00">NtcTemperatureHandler</text>
<text text-anchor="middle" x="66.5" y="-141" font-family="Helvetica,sans-Serif" font-size="10.00">::Initialize</text>
</a>
</g>
</g>
<!-- Node2 -->
<g id="Node000002" class="node">
<title>Node2</title>
<g id="a_Node000002"><a xlink:href="classLogger.html#adce17848a5844e053bfd314863dc1404" target="_top" xlink:title="Log error message.">
<polygon fill="white" stroke="#666666" points="485.5,-263.5 406.5,-263.5 406.5,-244.5 485.5,-244.5 485.5,-263.5"/>
<text text-anchor="middle" x="446" y="-251.5" font-family="Helvetica,sans-Serif" font-size="10.00">Logger::Error</text>
</a>
</g>
</g>
<!-- Node1&#45;&gt;Node2 -->
<g id="edge1_Node000001_Node000002" class="edge">
<title>Node1&#45;&gt;Node2</title>
<g id="a_edge1_Node000001_Node000002"><a xlink:title=" ">
<path fill="none" stroke="#63b8ff" d="M85.25,-164.04C104.54,-179.51 136.92,-202.98 169,-215 244.94,-243.45 339.72,-251.36 396.14,-253.44"/>
<polygon fill="#63b8ff" stroke="#63b8ff" points="396.1,-256.94 406.21,-253.76 396.33,-249.94 396.1,-256.94"/>
</a>
</g>
</g>
<!-- Node6 -->
<g id="Node000006" class="node">
<title>Node6</title>
<g id="a_Node000006"><a xlink:href="classLogger.html#a5789d11f8f1356e2192c0023a089cbc4" target="_top" xlink:title="Get singleton instance.">
<polygon fill="white" stroke="#666666" points="503,-176.5 389,-176.5 389,-157.5 503,-157.5 503,-176.5"/>
<text text-anchor="middle" x="446" y="-164.5" font-family="Helvetica,sans-Serif" font-size="10.00">Logger::GetInstance</text>
</a>
</g>
</g>
<!-- Node1&#45;&gt;Node6 -->
<g id="edge5_Node000001_Node000006" class="edge">
<title>Node1&#45;&gt;Node6</title>
<g id="a_edge5_Node000001_Node000006"><a xlink:title=" ">
<path fill="none" stroke="#63b8ff" d="M120.82,-164.06C136.23,-167.74 153.17,-171.15 169,-173 240.26,-181.31 322.54,-177.85 378.6,-173.54"/>
<polygon fill="#63b8ff" stroke="#63b8ff" points="379.06,-177.02 388.75,-172.73 378.51,-170.04 379.06,-177.02"/>
</a>
</g>
</g>
<!-- Node7 -->
<g id="Node000007" class="node">
<title>Node7</title>
<g id="a_Node000007"><a xlink:href="classLogger.html#a4681229c521795685fc14f6b55c82300" target="_top" xlink:title="Log info message.">
<polygon fill="white" stroke="#666666" points="483,-139.5 409,-139.5 409,-120.5 483,-120.5 483,-139.5"/>
<text text-anchor="middle" x="446" y="-127.5" font-family="Helvetica,sans-Serif" font-size="10.00">Logger::Info</text>
</a>
</g>
</g>
<!-- Node1&#45;&gt;Node7 -->
<g id="edge6_Node000001_Node000007" class="edge">
<title>Node1&#45;&gt;Node7</title>
<g id="a_edge6_Node000001_Node000007"><a xlink:title=" ">
<path fill="none" stroke="#63b8ff" d="M82.32,-133.86C100.73,-116.24 134.01,-88.15 169,-77 246.92,-52.17 274,-55.87 353,-77 379.84,-84.18 406.97,-101.28 424.74,-114.13"/>
<polygon fill="#63b8ff" stroke="#63b8ff" points="423.02,-117.21 433.13,-120.38 427.2,-111.6 423.02,-117.21"/>
</a>
</g>
</g>
<!-- Node8 -->
<g id="Node000008" class="node">
<title>Node8</title>
<g id="a_Node000008"><a xlink:href="classNtcTemperatureHandler.html#a5b148f36777ccff9fb633e3f4e99050f" target="_top" xlink:title="Set last error in diagnostics.">
<polygon fill="white" stroke="#666666" points="327.5,-30 194.5,-30 194.5,0 327.5,0 327.5,-30"/>
<text text-anchor="start" x="202.5" y="-18" font-family="Helvetica,sans-Serif" font-size="10.00">NtcTemperatureHandler</text>
<text text-anchor="middle" x="261" y="-7" font-family="Helvetica,sans-Serif" font-size="10.00">::SetLastError</text>
</a>
</g>
</g>
<!-- Node1&#45;&gt;Node8 -->
<g id="edge9_Node000001_Node000008" class="edge">
<title>Node1&#45;&gt;Node8</title>
<g id="a_edge9_Node000001_Node000008"><a xlink:title=" ">
<path fill="none" stroke="#63b8ff" d="M78.21,-133.85C95.03,-111.14 129.79,-68.33 169,-44 175.2,-40.15 181.96,-36.77 188.89,-33.81"/>
<polygon fill="#63b8ff" stroke="#63b8ff" points="190.43,-36.97 198.43,-30.03 187.85,-30.46 190.43,-36.97"/>
</a>
</g>
</g>
<!-- Node9 -->
<g id="Node000009" class="node">
<title>Node9</title>
<g id="a_Node000009"><a xlink:href="classNtcTemperatureHandler.html#a8846b2a03daef65310b916c5d79a0b15" target="_top" xlink:title="Internal threshold monitoring state setter for init path.">
<polygon fill="white" stroke="#666666" points="353,-164 169,-164 169,-134 353,-134 353,-164"/>
<text text-anchor="start" x="177" y="-152" font-family="Helvetica,sans-Serif" font-size="10.00">NtcTemperatureHandler</text>
<text text-anchor="middle" x="261" y="-141" font-family="Helvetica,sans-Serif" font-size="10.00">::SetThresholdMonitoringUnlocked</text>
</a>
</g>
</g>
<!-- Node1&#45;&gt;Node9 -->
<g id="edge10_Node000001_Node000009" class="edge">
<title>Node1&#45;&gt;Node9</title>
<g id="a_edge10_Node000001_Node000009"><a xlink:title=" ">
<path fill="none" stroke="#63b8ff" d="M133.21,-149C141.43,-149 149.98,-149 158.59,-149"/>
<polygon fill="#63b8ff" stroke="#63b8ff" points="158.7,-152.5 168.7,-149 158.7,-145.5 158.7,-152.5"/>
</a>
</g>
</g>
<!-- Node10 -->
<g id="Node000010" class="node">
<title>Node10</title>
<g id="a_Node000010"><a xlink:href="classNtcTemperatureHandler.html#a8d29c15c294fd928a4da2d66cc3bd7d3" target="_top" xlink:title="Internal threshold setter for init path (no EnsureInitialized checks).">
<polygon fill="white" stroke="#666666" points="329.5,-116 192.5,-116 192.5,-86 329.5,-86 329.5,-116"/>
<text text-anchor="start" x="200.5" y="-104" font-family="Helvetica,sans-Serif" font-size="10.00">NtcTemperatureHandler</text>
<text text-anchor="middle" x="261" y="-93" font-family="Helvetica,sans-Serif" font-size="10.00">::SetThresholdsUnlocked</text>
</a>
</g>
</g>
<!-- Node1&#45;&gt;Node10 -->
<g id="edge13_Node000001_Node000010" class="edge">
<title>Node1&#45;&gt;Node10</title>
<g id="a_edge13_Node000001_Node000010"><a xlink:title=" ">
<path fill="none" stroke="#63b8ff" d="M127.88,-133.94C147.59,-129.03 169.64,-123.53 190,-118.46"/>
<polygon fill="#63b8ff" stroke="#63b8ff" points="190.98,-121.82 199.83,-116 189.28,-115.03 190.98,-121.82"/>
</a>
</g>
</g>
<!-- Node11 -->
<g id="Node000011" class="node">
<title>Node11</title>
<g id="a_Node000011"><a xlink:href="classLogger.html#aaa95ffa14d07a965d4a85bdec82cba26" target="_top" xlink:title="Log warning message.">
<polygon fill="white" stroke="#666666" points="486,-226.5 406,-226.5 406,-207.5 486,-207.5 486,-226.5"/>
<text text-anchor="middle" x="446" y="-214.5" font-family="Helvetica,sans-Serif" font-size="10.00">Logger::Warn</text>
</a>
</g>
</g>
<!-- Node1&#45;&gt;Node11 -->
<g id="edge16_Node000001_Node000011" class="edge">
<title>Node1&#45;&gt;Node11</title>
<g id="a_edge16_Node000001_Node000011"><a xlink:title=" ">
<path fill="none" stroke="#63b8ff" d="M99.22,-164.11C118.88,-172.81 144.89,-183.14 169,-189 246.6,-207.85 339.47,-214.03 395.27,-216.04"/>
<polygon fill="#63b8ff" stroke="#63b8ff" points="395.47,-219.55 405.58,-216.38 395.7,-212.55 395.47,-219.55"/>
</a>
</g>
</g>
<!-- Node3 -->
<g id="Node000003" class="node">
<title>Node3</title>
<g id="a_Node000003"><a xlink:href="classLogger.html#af9e84e0ff6bd538e4f9ed8dcebc3e2f0" target="_top" xlink:title="Check if log level is enabled for tag.">
<polygon fill="white" stroke="#666666" points="668,-244.5 539,-244.5 539,-225.5 668,-225.5 668,-244.5"/>
<text text-anchor="middle" x="603.5" y="-232.5" font-family="Helvetica,sans-Serif" font-size="10.00">Logger::IsLevelEnabled</text>
</a>
</g>
</g>
<!-- Node2&#45;&gt;Node3 -->
<g id="edge2_Node000002_Node000003" class="edge">
<title>Node2&#45;&gt;Node3</title>
<g id="a_edge2_Node000002_Node000003"><a xlink:title=" ">
<path fill="none" stroke="#63b8ff" d="M485.84,-249.25C498.85,-247.66 513.82,-245.84 528.6,-244.03"/>
<polygon fill="#63b8ff" stroke="#63b8ff" points="529.28,-247.47 538.78,-242.79 528.43,-240.52 529.28,-247.47"/>
</a>
</g>
</g>
<!-- Node4 -->
<g id="Node000004" class="node">
<title>Node4</title>
<g id="a_Node000004"><a xlink:href="classLogger.html#a6adb205db597526fb91ad20067400394" target="_top" xlink:title="Internal logging method.">
<polygon fill="white" stroke="#666666" points="658.5,-207.5 548.5,-207.5 548.5,-188.5 658.5,-188.5 658.5,-207.5"/>
<text text-anchor="middle" x="603.5" y="-195.5" font-family="Helvetica,sans-Serif" font-size="10.00">Logger::LogInternal</text>
</a>
</g>
</g>
<!-- Node2&#45;&gt;Node4 -->
<g id="edge3_Node000002_Node000004" class="edge">
<title>Node2&#45;&gt;Node4</title>
<g id="a_edge3_Node000002_Node000004"><a xlink:title=" ">
<path fill="none" stroke="#63b8ff" d="M479.92,-244.48C487.59,-241.97 495.66,-239.09 503,-236 519.68,-228.98 522.25,-223.85 539,-217 544.53,-214.74 550.42,-212.62 556.31,-210.66"/>
<polygon fill="#63b8ff" stroke="#63b8ff" points="557.67,-213.91 566.14,-207.55 555.55,-207.23 557.67,-213.91"/>
</a>
</g>
</g>
<!-- Node5 -->
<g id="Node000005" class="node">
<title>Node5</title>
<g id="a_Node000005"><a xlink:href="namespaceanonymous__namespace_02Logger_8cpp_03.html#a9d2b496fa1b4f4e28667d14e4b8cb190" target="_top" xlink:title=" ">
<polygon fill="white" stroke="#666666" points="856,-213 704,-213 704,-183 856,-183 856,-213"/>
<text text-anchor="start" x="712" y="-201" font-family="Helvetica,sans-Serif" font-size="10.00">anonymous_namespace</text>
<text text-anchor="middle" x="780" y="-190" font-family="Helvetica,sans-Serif" font-size="10.00">{Logger::cpp}::ToBaseLevel</text>
</a>
</g>
</g>
<!-- Node4&#45;&gt;Node5 -->
<g id="edge4_Node000004_Node000005" class="edge">
<title>Node4&#45;&gt;Node5</title>
<g id="a_edge4_Node000004_Node000005"><a xlink:title=" ">
<path fill="none" stroke="#63b8ff" d="M658.76,-198C669.93,-198 681.96,-198 693.93,-198"/>
<polygon fill="#63b8ff" stroke="#63b8ff" points="693.95,-201.5 703.95,-198 693.95,-194.5 693.95,-201.5"/>
</a>
</g>
</g>
<!-- Node7&#45;&gt;Node3 -->
<g id="edge7_Node000007_Node000003" class="edge">
<title>Node7&#45;&gt;Node3</title>
<g id="a_edge7_Node000007_Node000003"><a xlink:title=" ">
<path fill="none" stroke="#63b8ff" d="M483.19,-137.8C490.29,-140.51 497.29,-144.14 503,-149 529.03,-171.17 512.41,-195.5 539,-217 540.57,-218.27 542.23,-219.45 543.95,-220.55"/>
<polygon fill="#63b8ff" stroke="#63b8ff" points="542.54,-223.76 553.01,-225.37 545.82,-217.58 542.54,-223.76"/>
</a>
</g>
</g>
<!-- Node7&#45;&gt;Node4 -->
<g id="edge8_Node000007_Node000004" class="edge">
<title>Node7&#45;&gt;Node4</title>
<g id="a_edge8_Node000007_Node000004"><a xlink:title=" ">
<path fill="none" stroke="#63b8ff" d="M477.49,-139.54C485.84,-142.37 494.84,-145.62 503,-149 528.23,-159.44 556.04,-173.35 575.82,-183.68"/>
<polygon fill="#63b8ff" stroke="#63b8ff" points="574.37,-186.87 584.85,-188.43 577.63,-180.67 574.37,-186.87"/>
</a>
</g>
</g>
<!-- Node9&#45;&gt;Node6 -->
<g id="edge11_Node000009_Node000006" class="edge">
<title>Node9&#45;&gt;Node6</title>
<g id="a_edge11_Node000009_Node000006"><a xlink:title=" ">
<path fill="none" stroke="#63b8ff" d="M353.23,-157.97C361.89,-158.83 370.55,-159.68 378.9,-160.5"/>
<polygon fill="#63b8ff" stroke="#63b8ff" points="378.62,-163.99 388.92,-161.48 379.31,-157.02 378.62,-163.99"/>
</a>
</g>
</g>
<!-- Node9&#45;&gt;Node7 -->
<g id="edge12_Node000009_Node000007" class="edge">
<title>Node9&#45;&gt;Node7</title>
<g id="a_edge12_Node000009_Node000007"><a xlink:title=" ">
<path fill="none" stroke="#63b8ff" d="M353.23,-139.53C368.93,-137.9 384.63,-136.27 398.5,-134.83"/>
<polygon fill="#63b8ff" stroke="#63b8ff" points="399.14,-138.28 408.72,-133.77 398.41,-131.32 399.14,-138.28"/>
</a>
</g>
</g>
<!-- Node10&#45;&gt;Node6 -->
<g id="edge14_Node000010_Node000006" class="edge">
<title>Node10&#45;&gt;Node6</title>
<g id="a_edge14_Node000010_Node000006"><a xlink:title=" ">
<path fill="none" stroke="#63b8ff" d="M329.47,-116.1C337.54,-118.69 345.55,-121.65 353,-125 370.54,-132.89 371.68,-140.64 389,-149 392.62,-150.75 396.45,-152.38 400.35,-153.9"/>
<polygon fill="#63b8ff" stroke="#63b8ff" points="399.47,-157.3 410.06,-157.42 401.85,-150.72 399.47,-157.3"/>
</a>
</g>
</g>
<!-- Node10&#45;&gt;Node7 -->
<g id="edge15_Node000010_Node000007" class="edge">
<title>Node10&#45;&gt;Node7</title>
<g id="a_edge15_Node000010_Node000007"><a xlink:title=" ">
<path fill="none" stroke="#63b8ff" d="M329.62,-111.72C352.72,-115.38 378,-119.38 399,-122.71"/>
<polygon fill="#63b8ff" stroke="#63b8ff" points="398.51,-126.18 408.93,-124.28 399.6,-119.26 398.51,-126.18"/>
</a>
</g>
</g>
<!-- Node11&#45;&gt;Node3 -->
<g id="edge17_Node000011_Node000003" class="edge">
<title>Node11&#45;&gt;Node3</title>
<g id="a_edge17_Node000011_Node000003"><a xlink:title=" ">
<path fill="none" stroke="#63b8ff" d="M486.24,-221.54C499.18,-223.04 514.02,-224.76 528.68,-226.45"/>
<polygon fill="#63b8ff" stroke="#63b8ff" points="528.43,-229.95 538.77,-227.62 529.24,-223 528.43,-229.95"/>
</a>
</g>
</g>
<!-- Node11&#45;&gt;Node4 -->
<g id="edge18_Node000011_Node000004" class="edge">
<title>Node11&#45;&gt;Node4</title>
<g id="a_edge18_Node000011_Node000004"><a xlink:title=" ">
<path fill="none" stroke="#63b8ff" d="M486.24,-212.21C501.96,-210.28 520.49,-208.02 538.08,-205.87"/>
<polygon fill="#63b8ff" stroke="#63b8ff" points="538.8,-209.31 548.3,-204.62 537.95,-202.36 538.8,-209.31"/>
</a>
</g>
</g>
</g>
</svg>
