<?xml version="1.0" encoding="UTF-8" standalone="no"?>
<!DOCTYPE svg PUBLIC "-//W3C//DTD SVG 1.1//EN"
 "http://www.w3.org/Graphics/SVG/1.1/DTD/svg11.dtd">
<!-- Generated by graphviz version 2.43.0 (0)
 -->
<!-- Title: Max22200Handler::Initialize Pages: 1 -->
<svg width="827pt" height="250pt"
 viewBox="0.00 0.00 827.00 250.00" xmlns="http://www.w3.org/2000/svg" xmlns:xlink="http://www.w3.org/1999/xlink">
<g id="graph0" class="graph" transform="scale(1 1) rotate(0) translate(4 246)">
<title>Max22200Handler::Initialize</title>
<!-- Node1 -->
<g id="Node000001" class="node">
<title>Node1</title>
<g id="a_Node000001"><a xlink:title="Initialize driver (ENABLE HIGH, read/clear STATUS, set ACTIVE).">
<polygon fill="#999999" stroke="#666666" points="819,-186 665,-186 665,-167 819,-167 819,-186"/>
<text text-anchor="middle" x="742" y="-174" font-family="Helvetica,sans-Serif" font-size="10.00">Max22200Handler::Initialize</text>
</a>
</g>
</g>
<!-- Node2 -->
<g id="Node000002" class="node">
<title>Node2</title>
<g id="a_Node000002"><a xlink:href="classMax22200Handler.html#aa00edacb247660349767fa4521121104" target="_top" xlink:title=" ">
<polygon fill="white" stroke="#666666" points="629,-191.5 436,-191.5 436,-161.5 629,-161.5 629,-191.5"/>
<text text-anchor="start" x="444" y="-179.5" font-family="Helvetica,sans-Serif" font-size="10.00">Max22200Handler::EnsureInitialized</text>
<text text-anchor="middle" x="532.5" y="-168.5" font-family="Helvetica,sans-Serif" font-size="10.00">Locked</text>
</a>
</g>
</g>
<!-- Node1&#45;&gt;Node2 -->
<g id="edge1_Node000001_Node000002" class="edge">
<title>Node1&#45;&gt;Node2</title>
<g id="a_edge1_Node000001_Node000002"><a xlink:title=" ">
<path fill="none" stroke="#63b8ff" d="M654.67,-176.5C646.2,-176.5 637.56,-176.5 629.01,-176.5"/>
<polygon fill="#63b8ff" stroke="#63b8ff" points="654.91,-180 664.91,-176.5 654.91,-173 654.91,-180"/>
</a>
</g>
</g>
<!-- Node3 -->
<g id="Node000003" class="node">
<title>Node3</title>
<g id="a_Node000003"><a xlink:href="classMax22200Handler.html#afd07a624dc736a1452c0f6190499adc0" target="_top" xlink:title="Dump diagnostics to logger.">
<polygon fill="white" stroke="#666666" points="400,-242 202,-242 202,-223 400,-223 400,-242"/>
<text text-anchor="middle" x="301" y="-230" font-family="Helvetica,sans-Serif" font-size="10.00">Max22200Handler::DumpDiagnostics</text>
</a>
</g>
</g>
<!-- Node2&#45;&gt;Node3 -->
<g id="edge2_Node000002_Node000003" class="edge">
<title>Node2&#45;&gt;Node3</title>
<g id="a_edge2_Node000002_Node000003"><a xlink:title=" ">
<path fill="none" stroke="#63b8ff" d="M473.83,-194.51C450.98,-201.3 424.38,-208.75 400,-214.5 386.87,-217.6 372.64,-220.48 359.2,-222.98"/>
<polygon fill="#63b8ff" stroke="#63b8ff" points="475.14,-197.78 483.71,-191.55 473.13,-191.07 475.14,-197.78"/>
</a>
</g>
</g>
<!-- Node4 -->
<g id="Node000004" class="node">
<title>Node4</title>
<g id="a_Node000004"><a xlink:href="classMax22200Handler.html#a803b60663755d7850857626b58efc084" target="_top" xlink:title="Ensure driver is initialized (lazy init entrypoint).">
<polygon fill="white" stroke="#666666" points="397.5,-205 204.5,-205 204.5,-186 397.5,-186 397.5,-205"/>
<text text-anchor="middle" x="301" y="-193" font-family="Helvetica,sans-Serif" font-size="10.00">Max22200Handler::EnsureInitialized</text>
</a>
</g>
</g>
<!-- Node2&#45;&gt;Node4 -->
<g id="edge3_Node000002_Node000004" class="edge">
<title>Node2&#45;&gt;Node4</title>
<g id="a_edge3_Node000002_Node000004"><a xlink:title=" ">
<path fill="none" stroke="#63b8ff" d="M425.68,-185.26C416.29,-186.04 406.81,-186.82 397.51,-187.59"/>
<polygon fill="#63b8ff" stroke="#63b8ff" points="426.16,-188.73 435.83,-184.42 425.58,-181.76 426.16,-188.73"/>
</a>
</g>
</g>
<!-- Node5 -->
<g id="Node000005" class="node">
<title>Node5</title>
<g id="a_Node000005"><a xlink:href="classMax22200Handler.html#a001e00b9d9a02611b51951f16bcb78d1" target="_top" xlink:title="Get the underlying driver for advanced operations.">
<polygon fill="white" stroke="#666666" points="380.5,-168 221.5,-168 221.5,-149 380.5,-149 380.5,-168"/>
<text text-anchor="middle" x="301" y="-156" font-family="Helvetica,sans-Serif" font-size="10.00">Max22200Handler::GetDriver</text>
</a>
</g>
</g>
<!-- Node2&#45;&gt;Node5 -->
<g id="edge4_Node000002_Node000005" class="edge">
<title>Node2&#45;&gt;Node5</title>
<g id="a_edge4_Node000002_Node000005"><a xlink:title=" ">
<path fill="none" stroke="#63b8ff" d="M425.47,-168.18C410.43,-167 395.19,-165.81 380.79,-164.68"/>
<polygon fill="#63b8ff" stroke="#63b8ff" points="425.59,-171.7 435.83,-169 426.14,-164.73 425.59,-171.7"/>
</a>
</g>
</g>
<!-- Node7 -->
<g id="Node000007" class="node">
<title>Node7</title>
<g id="a_Node000007"><a xlink:href="classMax22200Handler.html#abcdd9746a0df9c28bb36508d52d80ef5" target="_top" xlink:title="Execute a lambda with a locked, initialized driver.">
<polygon fill="white" stroke="#666666" points="382.5,-110 219.5,-110 219.5,-91 382.5,-91 382.5,-110"/>
<text text-anchor="middle" x="301" y="-98" font-family="Helvetica,sans-Serif" font-size="10.00">Max22200Handler::withDriver</text>
</a>
</g>
</g>
<!-- Node2&#45;&gt;Node7 -->
<g id="edge6_Node000002_Node000007" class="edge">
<title>Node2&#45;&gt;Node7</title>
<g id="a_edge6_Node000002_Node000007"><a xlink:title=" ">
<path fill="none" stroke="#63b8ff" d="M476.38,-158.25C430.61,-143.09 367.31,-122.13 330.91,-110.07"/>
<polygon fill="#63b8ff" stroke="#63b8ff" points="475.56,-161.66 486.16,-161.48 477.77,-155.02 475.56,-161.66"/>
</a>
</g>
</g>
<!-- Node6 -->
<g id="Node000006" class="node">
<title>Node6</title>
<g id="a_Node000006"><a xlink:href="classMax22200Handler.html#aee42537a3d2f0955a1479709b2d4b4b8" target="_top" xlink:title=" ">
<polygon fill="white" stroke="#666666" points="162.5,-190 3.5,-190 3.5,-171 162.5,-171 162.5,-190"/>
<text text-anchor="middle" x="83" y="-178" font-family="Helvetica,sans-Serif" font-size="10.00">Max22200Handler::GetDriver</text>
</a>
</g>
</g>
<!-- Node5&#45;&gt;Node6 -->
<g id="edge5_Node000005_Node000006" class="edge">
<title>Node5&#45;&gt;Node6</title>
<g id="a_edge5_Node000005_Node000006"><a xlink:title=" ">
<path fill="none" stroke="#63b8ff" d="M211.41,-167.52C195.22,-169.17 178.41,-170.88 162.53,-172.5"/>
<polygon fill="#63b8ff" stroke="#63b8ff" points="211.81,-171 221.41,-166.5 211.1,-164.04 211.81,-171"/>
</a>
</g>
</g>
<!-- Node8 -->
<g id="Node000008" class="node">
<title>Node8</title>
<g id="a_Node000008"><a xlink:href="classMax22200Handler.html#a439f52e4acfac83872a74fa9eef5237f" target="_top" xlink:title="Clear all fault flags.">
<polygon fill="white" stroke="#666666" points="166,-153 0,-153 0,-134 166,-134 166,-153"/>
<text text-anchor="middle" x="83" y="-141" font-family="Helvetica,sans-Serif" font-size="10.00">Max22200Handler::ClearFaults</text>
</a>
</g>
</g>
<!-- Node7&#45;&gt;Node8 -->
<g id="edge7_Node000007_Node000008" class="edge">
<title>Node7&#45;&gt;Node8</title>
<g id="a_edge7_Node000007_Node000008"><a xlink:title=" ">
<path fill="none" stroke="#63b8ff" d="M242.12,-112.02C207.62,-118.89 164.35,-127.5 131.8,-133.98"/>
<polygon fill="#63b8ff" stroke="#63b8ff" points="242.94,-115.43 252.06,-110.04 241.57,-108.56 242.94,-115.43"/>
</a>
</g>
</g>
<!-- Node9 -->
<g id="Node000009" class="node">
<title>Node9</title>
<g id="a_Node000009"><a xlink:href="classMax22200Handler.html#a8469fc41589ea672b8732769d2222443" target="_top" xlink:title="Disable all channels.">
<polygon fill="white" stroke="#666666" points="157.5,-115.5 8.5,-115.5 8.5,-85.5 157.5,-85.5 157.5,-115.5"/>
<text text-anchor="start" x="16.5" y="-103.5" font-family="Helvetica,sans-Serif" font-size="10.00">Max22200Handler::Disable</text>
<text text-anchor="middle" x="83" y="-92.5" font-family="Helvetica,sans-Serif" font-size="10.00">AllChannels</text>
</a>
</g>
</g>
<!-- Node7&#45;&gt;Node9 -->
<g id="edge8_Node000007_Node000009" class="edge">
<title>Node7&#45;&gt;Node9</title>
<g id="a_edge8_Node000007_Node000009"><a xlink:title=" ">
<path fill="none" stroke="#63b8ff" d="M209.2,-100.5C191.96,-100.5 174.13,-100.5 157.51,-100.5"/>
<polygon fill="#63b8ff" stroke="#63b8ff" points="209.26,-104 219.26,-100.5 209.26,-97 209.26,-104"/>
</a>
</g>
</g>
<!-- Node10 -->
<g id="Node000010" class="node">
<title>Node10</title>
<g id="a_Node000010"><a xlink:href="classMax22200Handler.html#aa9e41274b5467db2e901be023d4dd061" target="_top" xlink:title="Enable all channels.">
<polygon fill="white" stroke="#666666" points="162,-67.5 4,-67.5 4,-37.5 162,-37.5 162,-67.5"/>
<text text-anchor="start" x="12" y="-55.5" font-family="Helvetica,sans-Serif" font-size="10.00">Max22200Handler::EnableAll</text>
<text text-anchor="middle" x="83" y="-44.5" font-family="Helvetica,sans-Serif" font-size="10.00">Channels</text>
</a>
</g>
</g>
<!-- Node7&#45;&gt;Node10 -->
<g id="edge9_Node000007_Node000010" class="edge">
<title>Node7&#45;&gt;Node10</title>
<g id="a_edge9_Node000007_Node000010"><a xlink:title=" ">
<path fill="none" stroke="#63b8ff" d="M247.19,-88.76C218.36,-82.36 182.36,-74.36 151.52,-67.5"/>
<polygon fill="#63b8ff" stroke="#63b8ff" points="246.55,-92.21 257.07,-90.96 248.06,-85.37 246.55,-92.21"/>
</a>
</g>
</g>
<!-- Node11 -->
<g id="Node000011" class="node">
<title>Node11</title>
<g id="a_Node000011"><a xlink:href="classMax22200Handler.html#ac5b60b117fec404c55597929134fa1a1" target="_top" xlink:title="Check if any fault is present.">
<polygon fill="white" stroke="#666666" points="160,-19 6,-19 6,0 160,0 160,-19"/>
<text text-anchor="middle" x="83" y="-7" font-family="Helvetica,sans-Serif" font-size="10.00">Max22200Handler::HasFault</text>
</a>
</g>
</g>
<!-- Node7&#45;&gt;Node11 -->
<g id="edge10_Node000007_Node000011" class="edge">
<title>Node7&#45;&gt;Node11</title>
<g id="a_edge10_Node000007_Node000011"><a xlink:title=" ">
<path fill="none" stroke="#63b8ff" d="M276.59,-85.43C250.53,-69.26 206.72,-43.84 166,-28.5 156.15,-24.79 145.36,-21.66 134.93,-19.09"/>
<polygon fill="#63b8ff" stroke="#63b8ff" points="275.02,-88.58 285.35,-90.93 278.74,-82.65 275.02,-88.58"/>
</a>
</g>
</g>
</g>
</svg>
