<?xml version="1.0" encoding="UTF-8" standalone="no"?>
<!DOCTYPE svg PUBLIC "-//W3C//DTD SVG 1.1//EN"
 "http://www.w3.org/Graphics/SVG/1.1/DTD/svg11.dtd">
<!-- Generated by graphviz version 2.43.0 (0)
 -->
<!-- Title: Tmc9660Handler::Tmc9660Handler Pages: 1 -->
<svg width="1152pt" height="150pt"
 viewBox="0.00 0.00 1152.00 149.50" xmlns="http://www.w3.org/2000/svg" xmlns:xlink="http://www.w3.org/1999/xlink">
<g id="graph0" class="graph" transform="scale(1 1) rotate(0) translate(4 145.5)">
<title>Tmc9660Handler::Tmc9660Handler</title>
<!-- Node1 -->
<g id="Node000001" class="node">
<title>Node1</title>
<g id="a_Node000001"><a xlink:title="Construct a handler for a TMC9660 connected via SPI.">
<polygon fill="#999999" stroke="#666666" points="189,-48.5 0,-48.5 0,-29.5 189,-29.5 189,-48.5"/>
<text text-anchor="middle" x="94.5" y="-36.5" font-family="Helvetica,sans-Serif" font-size="10.00">Tmc9660Handler::Tmc9660Handler</text>
</a>
</g>
</g>
<!-- Node2 -->
<g id="Node000002" class="node">
<title>Node2</title>
<g id="a_Node000002"><a xlink:href="classTmc9660Handler.html#a393382194d0602e7aa02da6a8fd7a20a" target="_top" xlink:title="Get a reference to the Temperature wrapper.">
<polygon fill="white" stroke="#666666" points="392,-48.5 225,-48.5 225,-29.5 392,-29.5 392,-48.5"/>
<text text-anchor="middle" x="308.5" y="-36.5" font-family="Helvetica,sans-Serif" font-size="10.00">Tmc9660Handler::temperature</text>
</a>
</g>
</g>
<!-- Node1&#45;&gt;Node2 -->
<g id="edge1_Node000001_Node000002" class="edge">
<title>Node1&#45;&gt;Node2</title>
<g id="a_edge1_Node000001_Node000002"><a xlink:title=" ">
<path fill="none" stroke="#63b8ff" d="M189.1,-39C197.54,-39 206.09,-39 214.52,-39"/>
<polygon fill="#63b8ff" stroke="#63b8ff" points="214.73,-42.5 224.73,-39 214.73,-35.5 214.73,-42.5"/>
</a>
</g>
</g>
<!-- Node2&#45;&gt;Node2 -->
<g id="edge14_Node000002_Node000002" class="edge">
<title>Node2&#45;&gt;Node2</title>
<g id="a_edge14_Node000002_Node000002"><a xlink:title=" ">
<path fill="none" stroke="#63b8ff" d="M275.82,-48.58C259.93,-57.23 270.82,-66.5 308.5,-66.5 335.58,-66.5 348.83,-61.71 348.23,-55.81"/>
<polygon fill="#63b8ff" stroke="#63b8ff" points="350.67,-53.29 341.18,-48.58 345.66,-58.18 350.67,-53.29"/>
</a>
</g>
</g>
<!-- Node3 -->
<g id="Node000003" class="node">
<title>Node3</title>
<g id="a_Node000003"><a xlink:href="classTmc9660Handler.html#a5a279ae9d4b5a8e0d71cb24577ad88ea" target="_top" xlink:title="Ensure driver is initialized (lazy init entrypoint).">
<polygon fill="white" stroke="#666666" points="615,-29.5 428,-29.5 428,-10.5 615,-10.5 615,-29.5"/>
<text text-anchor="middle" x="521.5" y="-17.5" font-family="Helvetica,sans-Serif" font-size="10.00">Tmc9660Handler::EnsureInitialized</text>
</a>
</g>
</g>
<!-- Node2&#45;&gt;Node3 -->
<g id="edge2_Node000002_Node000003" class="edge">
<title>Node2&#45;&gt;Node3</title>
<g id="a_edge2_Node000002_Node000003"><a xlink:title=" ">
<path fill="none" stroke="#63b8ff" d="M392.29,-31.55C400.67,-30.79 409.25,-30.02 417.81,-29.25"/>
<polygon fill="#63b8ff" stroke="#63b8ff" points="418.18,-32.73 427.83,-28.34 417.56,-25.76 418.18,-32.73"/>
</a>
</g>
</g>
<!-- Node4 -->
<g id="Node000004" class="node">
<title>Node4</title>
<g id="a_Node000004"><a xlink:href="classTmc9660Handler.html#adc564847f8ae26c47412aaee0758991c" target="_top" xlink:title="Initialize the TMC9660 device.">
<polygon fill="white" stroke="#666666" points="799,-67.5 651,-67.5 651,-48.5 799,-48.5 799,-67.5"/>
<text text-anchor="middle" x="725" y="-55.5" font-family="Helvetica,sans-Serif" font-size="10.00">Tmc9660Handler::Initialize</text>
</a>
</g>
</g>
<!-- Node3&#45;&gt;Node4 -->
<g id="edge3_Node000003_Node000004" class="edge">
<title>Node3&#45;&gt;Node4</title>
<g id="a_edge3_Node000003_Node000004"><a xlink:title=" ">
<path fill="none" stroke="#63b8ff" d="M573.09,-29.54C600.51,-34.71 634.6,-41.14 663.43,-46.58"/>
<polygon fill="#63b8ff" stroke="#63b8ff" points="662.92,-50.04 673.39,-48.46 664.21,-43.16 662.92,-50.04"/>
</a>
</g>
</g>
<!-- Node10 -->
<g id="Node000010" class="node">
<title>Node10</title>
<g id="a_Node000010"><a xlink:href="classTmc9660Handler.html#a13db97d201a287d8aa60384e04070b9f" target="_top" xlink:title="Check if the TMC9660 driver has been initialized and is ready.">
<polygon fill="white" stroke="#666666" points="979,-30 835,-30 835,0 979,0 979,-30"/>
<text text-anchor="start" x="843" y="-18" font-family="Helvetica,sans-Serif" font-size="10.00">Tmc9660Handler::IsDriver</text>
<text text-anchor="middle" x="907" y="-7" font-family="Helvetica,sans-Serif" font-size="10.00">Ready</text>
</a>
</g>
</g>
<!-- Node3&#45;&gt;Node10 -->
<g id="edge13_Node000003_Node000010" class="edge">
<title>Node3&#45;&gt;Node10</title>
<g id="a_edge13_Node000003_Node000010"><a xlink:title=" ">
<path fill="none" stroke="#63b8ff" d="M615.33,-18.79C679.28,-17.96 763.42,-16.86 824.72,-16.06"/>
<polygon fill="#63b8ff" stroke="#63b8ff" points="824.78,-19.56 834.73,-15.93 824.69,-12.56 824.78,-19.56"/>
</a>
</g>
</g>
<!-- Node4&#45;&gt;Node2 -->
<g id="edge12_Node000004_Node000002" class="edge">
<title>Node4&#45;&gt;Node2</title>
<g id="a_edge12_Node000004_Node000002"><a xlink:title=" ">
<path fill="none" stroke="#63b8ff" d="M650.97,-54.65C581.87,-51.49 477.85,-46.72 402.78,-43.28"/>
<polygon fill="#63b8ff" stroke="#63b8ff" points="402.53,-39.76 392.38,-42.8 402.21,-46.75 402.53,-39.76"/>
</a>
</g>
</g>
<!-- Node5 -->
<g id="Node000005" class="node">
<title>Node5</title>
<g id="a_Node000005"><a xlink:href="classLogger.html#a5e4bcdaea60b9ac227b564d780388769" target="_top" xlink:title="Log error message.">
<polygon fill="white" stroke="#666666" points="946.5,-141.5 867.5,-141.5 867.5,-122.5 946.5,-122.5 946.5,-141.5"/>
<text text-anchor="middle" x="907" y="-129.5" font-family="Helvetica,sans-Serif" font-size="10.00">Logger::Error</text>
</a>
</g>
</g>
<!-- Node4&#45;&gt;Node5 -->
<g id="edge4_Node000004_Node000005" class="edge">
<title>Node4&#45;&gt;Node5</title>
<g id="a_edge4_Node000004_Node000005"><a xlink:title=" ">
<path fill="none" stroke="#63b8ff" d="M741.73,-67.53C762.46,-79.74 800.37,-100.91 835,-114 842.11,-116.69 849.78,-119.1 857.35,-121.23"/>
<polygon fill="#63b8ff" stroke="#63b8ff" points="856.62,-124.66 867.19,-123.85 858.42,-117.89 856.62,-124.66"/>
</a>
</g>
</g>
<!-- Node8 -->
<g id="Node000008" class="node">
<title>Node8</title>
<g id="a_Node000008"><a xlink:href="classLogger.html#a5789d11f8f1356e2192c0023a089cbc4" target="_top" xlink:title="Get singleton instance.">
<polygon fill="white" stroke="#666666" points="964,-67.5 850,-67.5 850,-48.5 964,-48.5 964,-67.5"/>
<text text-anchor="middle" x="907" y="-55.5" font-family="Helvetica,sans-Serif" font-size="10.00">Logger::GetInstance</text>
</a>
</g>
</g>
<!-- Node4&#45;&gt;Node8 -->
<g id="edge7_Node000004_Node000008" class="edge">
<title>Node4&#45;&gt;Node8</title>
<g id="a_edge7_Node000004_Node000008"><a xlink:title=" ">
<path fill="none" stroke="#63b8ff" d="M799.21,-58C812.58,-58 826.45,-58 839.6,-58"/>
<polygon fill="#63b8ff" stroke="#63b8ff" points="839.97,-61.5 849.97,-58 839.97,-54.5 839.97,-61.5"/>
</a>
</g>
</g>
<!-- Node9 -->
<g id="Node000009" class="node">
<title>Node9</title>
<g id="a_Node000009"><a xlink:href="classLogger.html#a1c0c947d87884bca0395fd38d19d1102" target="_top" xlink:title="Log info message.">
<polygon fill="white" stroke="#666666" points="944,-104.5 870,-104.5 870,-85.5 944,-85.5 944,-104.5"/>
<text text-anchor="middle" x="907" y="-92.5" font-family="Helvetica,sans-Serif" font-size="10.00">Logger::Info</text>
</a>
</g>
</g>
<!-- Node4&#45;&gt;Node9 -->
<g id="edge8_Node000004_Node000009" class="edge">
<title>Node4&#45;&gt;Node9</title>
<g id="a_edge8_Node000004_Node000009"><a xlink:title=" ">
<path fill="none" stroke="#63b8ff" d="M772.35,-67.53C799.23,-73.05 832.96,-79.99 859.81,-85.51"/>
<polygon fill="#63b8ff" stroke="#63b8ff" points="859.24,-88.96 869.74,-87.55 860.65,-82.1 859.24,-88.96"/>
</a>
</g>
</g>
<!-- Node4&#45;&gt;Node10 -->
<g id="edge11_Node000004_Node000010" class="edge">
<title>Node4&#45;&gt;Node10</title>
<g id="a_edge11_Node000004_Node000010"><a xlink:title=" ">
<path fill="none" stroke="#63b8ff" d="M765.95,-48.46C785.8,-43.72 810.4,-37.84 833.43,-32.34"/>
<polygon fill="#63b8ff" stroke="#63b8ff" points="834.27,-35.73 843.18,-30.01 832.64,-28.93 834.27,-35.73"/>
</a>
</g>
</g>
<!-- Node6 -->
<g id="Node000006" class="node">
<title>Node6</title>
<g id="a_Node000006"><a xlink:href="classLogger.html#a737b981213c02321a5235848334d7191" target="_top" xlink:title="Check if log level is enabled for tag.">
<polygon fill="white" stroke="#666666" points="1144,-141.5 1015,-141.5 1015,-122.5 1144,-122.5 1144,-141.5"/>
<text text-anchor="middle" x="1079.5" y="-129.5" font-family="Helvetica,sans-Serif" font-size="10.00">Logger::IsLevelEnabled</text>
</a>
</g>
</g>
<!-- Node5&#45;&gt;Node6 -->
<g id="edge5_Node000005_Node000006" class="edge">
<title>Node5&#45;&gt;Node6</title>
<g id="a_edge5_Node000005_Node000006"><a xlink:title=" ">
<path fill="none" stroke="#63b8ff" d="M946.69,-132C963.92,-132 984.81,-132 1004.83,-132"/>
<polygon fill="#63b8ff" stroke="#63b8ff" points="1004.89,-135.5 1014.89,-132 1004.89,-128.5 1004.89,-135.5"/>
</a>
</g>
</g>
<!-- Node7 -->
<g id="Node000007" class="node">
<title>Node7</title>
<g id="a_Node000007"><a xlink:href="classLogger.html#aeede6ac18db92a47caede076ef188a13" target="_top" xlink:title="Internal logging method.">
<polygon fill="white" stroke="#666666" points="1134.5,-104.5 1024.5,-104.5 1024.5,-85.5 1134.5,-85.5 1134.5,-104.5"/>
<text text-anchor="middle" x="1079.5" y="-92.5" font-family="Helvetica,sans-Serif" font-size="10.00">Logger::LogInternal</text>
</a>
</g>
</g>
<!-- Node5&#45;&gt;Node7 -->
<g id="edge6_Node000005_Node000007" class="edge">
<title>Node5&#45;&gt;Node7</title>
<g id="a_edge6_Node000005_Node000007"><a xlink:title=" ">
<path fill="none" stroke="#63b8ff" d="M946.69,-123.6C969.76,-118.6 999.4,-112.17 1024.72,-106.67"/>
<polygon fill="#63b8ff" stroke="#63b8ff" points="1025.52,-110.08 1034.55,-104.54 1024.04,-103.24 1025.52,-110.08"/>
</a>
</g>
</g>
<!-- Node9&#45;&gt;Node6 -->
<g id="edge9_Node000009_Node000006" class="edge">
<title>Node9&#45;&gt;Node6</title>
<g id="a_edge9_Node000009_Node000006"><a xlink:title=" ">
<path fill="none" stroke="#63b8ff" d="M944.16,-102.85C967.56,-107.93 998.45,-114.63 1024.71,-120.33"/>
<polygon fill="#63b8ff" stroke="#63b8ff" points="1024.01,-123.76 1034.52,-122.46 1025.49,-116.92 1024.01,-123.76"/>
</a>
</g>
</g>
<!-- Node9&#45;&gt;Node7 -->
<g id="edge10_Node000009_Node000007" class="edge">
<title>Node9&#45;&gt;Node7</title>
<g id="a_edge10_Node000009_Node000007"><a xlink:title=" ">
<path fill="none" stroke="#63b8ff" d="M944.16,-95C964.42,-95 990.31,-95 1013.93,-95"/>
<polygon fill="#63b8ff" stroke="#63b8ff" points="1014.25,-98.5 1024.25,-95 1014.25,-91.5 1014.25,-98.5"/>
</a>
</g>
</g>
</g>
</svg>
