<?xml version="1.0" encoding="UTF-8" standalone="no"?>
<!DOCTYPE svg PUBLIC "-//W3C//DTD SVG 1.1//EN"
 "http://www.w3.org/Graphics/SVG/1.1/DTD/svg11.dtd">
<!-- Generated by graphviz version 2.43.0 (0)
 -->
<!-- Title: As5047uHandler::DumpDiagnostics Pages: 1 -->
<svg width="700pt" height="88pt"
 viewBox="0.00 0.00 700.00 87.50" xmlns="http://www.w3.org/2000/svg" xmlns:xlink="http://www.w3.org/1999/xlink">
<g id="graph0" class="graph" transform="scale(1 1) rotate(0) translate(4 83.5)">
<title>As5047uHandler::DumpDiagnostics</title>
<!-- Node1 -->
<g id="Node000001" class="node">
<title>Node1</title>
<g id="a_Node000001"><a xlink:title="Dump comprehensive diagnostics and statistics to log as INFO level. Logs AS5047U sensor status,...">
<polygon fill="#999999" stroke="#666666" points="189,-60.5 0,-60.5 0,-41.5 189,-41.5 189,-60.5"/>
<text text-anchor="middle" x="94.5" y="-48.5" font-family="Helvetica,sans-Serif" font-size="10.00">As5047uHandler::DumpDiagnostics</text>
</a>
</g>
</g>
<!-- Node2 -->
<g id="Node000002" class="node">
<title>Node2</title>
<g id="a_Node000002"><a xlink:href="classLogger.html#a5789d11f8f1356e2192c0023a089cbc4" target="_top" xlink:title="Get singleton instance.">
<polygon fill="white" stroke="#666666" points="339,-79.5 225,-79.5 225,-60.5 339,-60.5 339,-79.5"/>
<text text-anchor="middle" x="282" y="-67.5" font-family="Helvetica,sans-Serif" font-size="10.00">Logger::GetInstance</text>
</a>
</g>
</g>
<!-- Node1&#45;&gt;Node2 -->
<g id="edge1_Node000001_Node000002" class="edge">
<title>Node1&#45;&gt;Node2</title>
<g id="a_edge1_Node000001_Node000002"><a xlink:title=" ">
<path fill="none" stroke="#63b8ff" d="M188.52,-60.53C197.33,-61.43 206.13,-62.33 214.61,-63.2"/>
<polygon fill="#63b8ff" stroke="#63b8ff" points="214.47,-66.7 224.77,-64.24 215.18,-59.74 214.47,-66.7"/>
</a>
</g>
</g>
<!-- Node3 -->
<g id="Node000003" class="node">
<title>Node3</title>
<g id="a_Node000003"><a xlink:href="classLogger.html#a4681229c521795685fc14f6b55c82300" target="_top" xlink:title="Log info message.">
<polygon fill="white" stroke="#666666" points="319,-42.5 245,-42.5 245,-23.5 319,-23.5 319,-42.5"/>
<text text-anchor="middle" x="282" y="-30.5" font-family="Helvetica,sans-Serif" font-size="10.00">Logger::Info</text>
</a>
</g>
</g>
<!-- Node1&#45;&gt;Node3 -->
<g id="edge2_Node000001_Node000003" class="edge">
<title>Node1&#45;&gt;Node3</title>
<g id="a_edge2_Node000001_Node000003"><a xlink:title=" ">
<path fill="none" stroke="#63b8ff" d="M189.07,-41.92C204.85,-40.39 220.6,-38.86 234.5,-37.51"/>
<polygon fill="#63b8ff" stroke="#63b8ff" points="235.11,-40.97 244.73,-36.52 234.44,-34 235.11,-40.97"/>
</a>
</g>
</g>
<!-- Node4 -->
<g id="Node000004" class="node">
<title>Node4</title>
<g id="a_Node000004"><a xlink:href="classLogger.html#af9e84e0ff6bd538e4f9ed8dcebc3e2f0" target="_top" xlink:title="Check if log level is enabled for tag.">
<polygon fill="white" stroke="#666666" points="504,-61.5 375,-61.5 375,-42.5 504,-42.5 504,-61.5"/>
<text text-anchor="middle" x="439.5" y="-49.5" font-family="Helvetica,sans-Serif" font-size="10.00">Logger::IsLevelEnabled</text>
</a>
</g>
</g>
<!-- Node3&#45;&gt;Node4 -->
<g id="edge3_Node000003_Node000004" class="edge">
<title>Node3&#45;&gt;Node4</title>
<g id="a_edge3_Node000003_Node000004"><a xlink:title=" ">
<path fill="none" stroke="#63b8ff" d="M319.07,-37.41C332.68,-39.07 348.72,-41.03 364.55,-42.96"/>
<polygon fill="#63b8ff" stroke="#63b8ff" points="364.54,-46.49 374.89,-44.23 365.39,-39.54 364.54,-46.49"/>
</a>
</g>
</g>
<!-- Node5 -->
<g id="Node000005" class="node">
<title>Node5</title>
<g id="a_Node000005"><a xlink:href="classLogger.html#a6adb205db597526fb91ad20067400394" target="_top" xlink:title="Internal logging method.">
<polygon fill="white" stroke="#666666" points="494.5,-24.5 384.5,-24.5 384.5,-5.5 494.5,-5.5 494.5,-24.5"/>
<text text-anchor="middle" x="439.5" y="-12.5" font-family="Helvetica,sans-Serif" font-size="10.00">Logger::LogInternal</text>
</a>
</g>
</g>
<!-- Node3&#45;&gt;Node5 -->
<g id="edge4_Node000003_Node000005" class="edge">
<title>Node3&#45;&gt;Node5</title>
<g id="a_edge4_Node000003_Node000005"><a xlink:title=" ">
<path fill="none" stroke="#63b8ff" d="M319.07,-28.83C335.49,-26.92 355.44,-24.61 374.3,-22.43"/>
<polygon fill="#63b8ff" stroke="#63b8ff" points="374.8,-25.9 384.33,-21.27 374,-18.94 374.8,-25.9"/>
</a>
</g>
</g>
<!-- Node6 -->
<g id="Node000006" class="node">
<title>Node6</title>
<g id="a_Node000006"><a xlink:href="namespaceanonymous__namespace_02Logger_8cpp_03.html#a9d2b496fa1b4f4e28667d14e4b8cb190" target="_top" xlink:title=" ">
<polygon fill="white" stroke="#666666" points="692,-30 540,-30 540,0 692,0 692,-30"/>
<text text-anchor="start" x="548" y="-18" font-family="Helvetica,sans-Serif" font-size="10.00">anonymous_namespace</text>
<text text-anchor="middle" x="616" y="-7" font-family="Helvetica,sans-Serif" font-size="10.00">{Logger::cpp}::ToBaseLevel</text>
</a>
</g>
</g>
<!-- Node5&#45;&gt;Node6 -->
<g id="edge5_Node000005_Node000006" class="edge">
<title>Node5&#45;&gt;Node6</title>
<g id="a_edge5_Node000005_Node000006"><a xlink:title=" ">
<path fill="none" stroke="#63b8ff" d="M494.76,-15C505.93,-15 517.96,-15 529.93,-15"/>
<polygon fill="#63b8ff" stroke="#63b8ff" points="529.95,-18.5 539.95,-15 529.95,-11.5 529.95,-18.5"/>
</a>
</g>
</g>
</g>
</svg>
