<?xml version="1.0" encoding="UTF-8" standalone="no"?>
<!DOCTYPE svg PUBLIC "-//W3C//DTD SVG 1.1//EN"
 "http://www.w3.org/Graphics/SVG/1.1/DTD/svg11.dtd">
<!-- Generated by graphviz version 2.43.0 (0)
 -->
<!-- Title: Tmc9660Handler::GetSupplyVoltage Pages: 1 -->
<svg width="560pt" height="114pt"
 viewBox="0.00 0.00 560.00 113.50" xmlns="http://www.w3.org/2000/svg" xmlns:xlink="http://www.w3.org/1999/xlink">
<g id="graph0" class="graph" transform="scale(1 1) rotate(0) translate(4 109.5)">
<title>Tmc9660Handler::GetSupplyVoltage</title>
<!-- Node1 -->
<g id="Node000001" class="node">
<title>Node1</title>
<g id="a_Node000001"><a xlink:title="Read the motor supply voltage.">
<polygon fill="#999999" stroke="#666666" points="156,-62.5 0,-62.5 0,-32.5 156,-32.5 156,-62.5"/>
<text text-anchor="start" x="8" y="-50.5" font-family="Helvetica,sans-Serif" font-size="10.00">Tmc9660Handler::GetSupply</text>
<text text-anchor="middle" x="78" y="-39.5" font-family="Helvetica,sans-Serif" font-size="10.00">Voltage</text>
</a>
</g>
</g>
<!-- Node2 -->
<g id="Node000002" class="node">
<title>Node2</title>
<g id="a_Node000002"><a xlink:href="classTmc9660Handler.html#a13db97d201a287d8aa60384e04070b9f" target="_top" xlink:title="Check if the TMC9660 driver has been initialized and is ready.">
<polygon fill="white" stroke="#666666" points="342.5,-105.5 198.5,-105.5 198.5,-75.5 342.5,-75.5 342.5,-105.5"/>
<text text-anchor="start" x="206.5" y="-93.5" font-family="Helvetica,sans-Serif" font-size="10.00">Tmc9660Handler::IsDriver</text>
<text text-anchor="middle" x="270.5" y="-82.5" font-family="Helvetica,sans-Serif" font-size="10.00">Ready</text>
</a>
</g>
</g>
<!-- Node1&#45;&gt;Node2 -->
<g id="edge1_Node000001_Node000002" class="edge">
<title>Node1&#45;&gt;Node2</title>
<g id="a_edge1_Node000001_Node000002"><a xlink:title=" ">
<path fill="none" stroke="#63b8ff" d="M145.63,-62.54C160.85,-65.98 177.16,-69.66 192.77,-73.18"/>
<polygon fill="#63b8ff" stroke="#63b8ff" points="192.38,-76.68 202.91,-75.47 193.93,-69.85 192.38,-76.68"/>
</a>
</g>
</g>
<!-- Node3 -->
<g id="Node000003" class="node">
<title>Node3</title>
<g id="a_Node000003"><a xlink:href="classTmc9660Handler.html#a393382194d0602e7aa02da6a8fd7a20a" target="_top" xlink:title="Get a reference to the Temperature wrapper.">
<polygon fill="white" stroke="#666666" points="552,-38 385,-38 385,-19 552,-19 552,-38"/>
<text text-anchor="middle" x="468.5" y="-26" font-family="Helvetica,sans-Serif" font-size="10.00">Tmc9660Handler::temperature</text>
</a>
</g>
</g>
<!-- Node1&#45;&gt;Node3 -->
<g id="edge2_Node000001_Node000003" class="edge">
<title>Node1&#45;&gt;Node3</title>
<g id="a_edge2_Node000001_Node000003"><a xlink:title=" ">
<path fill="none" stroke="#63b8ff" d="M156.22,-43.72C219.05,-40.65 307.92,-36.3 374.63,-33.04"/>
<polygon fill="#63b8ff" stroke="#63b8ff" points="374.9,-36.53 384.72,-32.55 374.56,-29.54 374.9,-36.53"/>
</a>
</g>
</g>
<!-- Node4 -->
<g id="Node000004" class="node">
<title>Node4</title>
<g id="a_Node000004"><a xlink:href="classTmc9660Handler.html#a4360829b58deda85e9da4b9cebee96f0" target="_top" xlink:title="Execute a function on the underlying typed TMC9660 driver.">
<polygon fill="white" stroke="#666666" points="349,-19 192,-19 192,0 349,0 349,-19"/>
<text text-anchor="middle" x="270.5" y="-7" font-family="Helvetica,sans-Serif" font-size="10.00">Tmc9660Handler::visitDriver</text>
</a>
</g>
</g>
<!-- Node1&#45;&gt;Node4 -->
<g id="edge3_Node000001_Node000004" class="edge">
<title>Node1&#45;&gt;Node4</title>
<g id="a_edge3_Node000001_Node000004"><a xlink:title=" ">
<path fill="none" stroke="#63b8ff" d="M154.29,-32.48C173.51,-28.65 193.86,-24.59 212.02,-20.96"/>
<polygon fill="#63b8ff" stroke="#63b8ff" points="212.75,-24.39 221.87,-19 211.38,-17.52 212.75,-24.39"/>
</a>
</g>
</g>
<!-- Node4&#45;&gt;Node3 -->
<g id="edge4_Node000004_Node000003" class="edge">
<title>Node4&#45;&gt;Node3</title>
<g id="a_edge4_Node000004_Node000003"><a xlink:title=" ">
<path fill="none" stroke="#63b8ff" d="M349.25,-17.04C357.62,-17.85 366.2,-18.68 374.73,-19.51"/>
<polygon fill="#63b8ff" stroke="#63b8ff" points="374.4,-22.99 384.7,-20.47 375.08,-16.02 374.4,-22.99"/>
</a>
</g>
</g>
</g>
</svg>
