<?xml version="1.0" encoding="UTF-8" standalone="no"?>
<!DOCTYPE svg PUBLIC "-//W3C//DTD SVG 1.1//EN"
 "http://www.w3.org/Graphics/SVG/1.1/DTD/svg11.dtd">
<!-- Generated by graphviz version 2.43.0 (0)
 -->
<!-- Title: Logger::Warn Pages: 1 -->
<svg width="956pt" height="894pt"
 viewBox="0.00 0.00 956.00 893.50" xmlns="http://www.w3.org/2000/svg" xmlns:xlink="http://www.w3.org/1999/xlink">
<g id="graph0" class="graph" transform="scale(1 1) rotate(0) translate(4 889.5)">
<title>Logger::Warn</title>
<!-- Node1 -->
<g id="Node000001" class="node">
<title>Node1</title>
<g id="a_Node000001"><a xlink:title="Log warning message.">
<polygon fill="#999999" stroke="#666666" points="948,-217.5 868,-217.5 868,-198.5 948,-198.5 948,-217.5"/>
<text text-anchor="middle" x="908" y="-205.5" font-family="Helvetica,sans-Serif" font-size="10.00">Logger::Warn</text>
</a>
</g>
</g>
<!-- Node2 -->
<g id="Node000002" class="node">
<title>Node2</title>
<g id="a_Node000002"><a xlink:href="classTmc5160Handler.html#ab4bf5aabef968f6f8ee66d08cf05913a" target="_top" xlink:title="Dump diagnostic information to logger.">
<polygon fill="white" stroke="#666666" points="397,-140.5 205,-140.5 205,-121.5 397,-121.5 397,-140.5"/>
<text text-anchor="middle" x="301" y="-128.5" font-family="Helvetica,sans-Serif" font-size="10.00">Tmc5160Handler::DumpDiagnostics</text>
</a>
</g>
</g>
<!-- Node1&#45;&gt;Node2 -->
<g id="edge1_Node000001_Node000002" class="edge">
<title>Node1&#45;&gt;Node2</title>
<g id="a_edge1_Node000001_Node000002"><a xlink:title=" ">
<path fill="none" stroke="#63b8ff" d="M857.5,-210.26C848.99,-210.57 840.24,-210.84 832,-211 757.79,-212.48 738.73,-219.51 665,-211 544.84,-197.13 518.41,-173.71 400,-149 385.95,-146.07 370.7,-143.14 356.52,-140.53"/>
<polygon fill="#63b8ff" stroke="#63b8ff" points="857.84,-213.75 867.7,-209.87 857.57,-206.76 857.84,-213.75"/>
</a>
</g>
</g>
<!-- Node3 -->
<g id="Node000003" class="node">
<title>Node3</title>
<g id="a_Node000003"><a xlink:href="classMax22200Handler.html#a0dce05cd6639a10e52c0f669b72baf52" target="_top" xlink:title="Initialize driver (ENABLE HIGH, read/clear STATUS, set ACTIVE).">
<polygon fill="white" stroke="#666666" points="825.5,-700.5 671.5,-700.5 671.5,-681.5 825.5,-681.5 825.5,-700.5"/>
<text text-anchor="middle" x="748.5" y="-688.5" font-family="Helvetica,sans-Serif" font-size="10.00">Max22200Handler::Initialize</text>
</a>
</g>
</g>
<!-- Node1&#45;&gt;Node3 -->
<g id="edge2_Node000001_Node000003" class="edge">
<title>Node1&#45;&gt;Node3</title>
<g id="a_edge2_Node000001_Node000003"><a xlink:title=" ">
<path fill="none" stroke="#63b8ff" d="M901.7,-227.51C889.96,-270.37 860.55,-375.86 832,-463 804.08,-548.21 765.51,-649.46 753.34,-681.07"/>
<polygon fill="#63b8ff" stroke="#63b8ff" points="905.1,-228.36 904.35,-217.79 898.34,-226.52 905.1,-228.36"/>
</a>
</g>
</g>
<!-- Node14 -->
<g id="Node000014" class="node">
<title>Node14</title>
<g id="a_Node000014"><a xlink:href="classTle92466edHandler.html#ac607f9cf2453e8d1849b40d2dd8e8474" target="_top" xlink:title="Initialize driver (hardware reset + SPI init + enter config mode).">
<polygon fill="white" stroke="#666666" points="807.5,-454 689.5,-454 689.5,-424 807.5,-424 807.5,-454"/>
<text text-anchor="start" x="697.5" y="-442" font-family="Helvetica,sans-Serif" font-size="10.00">Tle92466edHandler::</text>
<text text-anchor="middle" x="748.5" y="-431" font-family="Helvetica,sans-Serif" font-size="10.00">Initialize</text>
</a>
</g>
</g>
<!-- Node1&#45;&gt;Node14 -->
<g id="edge13_Node000001_Node000014" class="edge">
<title>Node1&#45;&gt;Node14</title>
<g id="a_edge13_Node000001_Node000014"><a xlink:title=" ">
<path fill="none" stroke="#63b8ff" d="M896.36,-226.53C882.29,-250.75 856.41,-294.28 832,-330 808.43,-364.48 778.28,-403.07 761.73,-423.82"/>
<polygon fill="#63b8ff" stroke="#63b8ff" points="899.5,-228.1 901.47,-217.69 893.44,-224.6 899.5,-228.1"/>
</a>
</g>
</g>
<!-- Node30 -->
<g id="Node000030" class="node">
<title>Node30</title>
<g id="a_Node000030"><a xlink:href="classWs2812Handler.html#acce4955435f295ba4853b6239090982f" target="_top" xlink:title="Initialize the RMT channel and LED strip.">
<polygon fill="white" stroke="#666666" points="819.5,-320.5 677.5,-320.5 677.5,-301.5 819.5,-301.5 819.5,-320.5"/>
<text text-anchor="middle" x="748.5" y="-308.5" font-family="Helvetica,sans-Serif" font-size="10.00">Ws2812Handler::Initialize</text>
</a>
</g>
</g>
<!-- Node1&#45;&gt;Node30 -->
<g id="edge29_Node000001_Node000030" class="edge">
<title>Node1&#45;&gt;Node30</title>
<g id="a_edge29_Node000001_Node000030"><a xlink:title=" ">
<path fill="none" stroke="#63b8ff" d="M894.41,-226.04C880.95,-244.01 857.99,-271.16 832,-287 821.81,-293.21 809.93,-297.88 798.42,-301.37"/>
<polygon fill="#63b8ff" stroke="#63b8ff" points="897.51,-227.73 900.55,-217.58 891.84,-223.61 897.51,-227.73"/>
</a>
</g>
</g>
<!-- Node42 -->
<g id="Node000042" class="node">
<title>Node42</title>
<g id="a_Node000042"><a xlink:href="classAds7952Handler.html#a0644e9b1c82bc200591155b36a9ca4dd" target="_top" xlink:title="Initialize the ADS7952 ADC (lazy initialization).">
<polygon fill="white" stroke="#666666" points="821,-277.5 676,-277.5 676,-258.5 821,-258.5 821,-277.5"/>
<text text-anchor="middle" x="748.5" y="-265.5" font-family="Helvetica,sans-Serif" font-size="10.00">Ads7952Handler::Initialize</text>
</a>
</g>
</g>
<!-- Node1&#45;&gt;Node42 -->
<g id="edge37_Node000001_Node000042" class="edge">
<title>Node1&#45;&gt;Node42</title>
<g id="a_edge37_Node000001_Node000042"><a xlink:title=" ">
<path fill="none" stroke="#63b8ff" d="M880.07,-222.26C865.99,-229.36 848.33,-237.75 832,-244 817.65,-249.49 801.49,-254.45 787.3,-258.41"/>
<polygon fill="#63b8ff" stroke="#63b8ff" points="881.88,-225.26 889.18,-217.58 878.68,-219.03 881.88,-225.26"/>
</a>
</g>
</g>
<!-- Node47 -->
<g id="Node000047" class="node">
<title>Node47</title>
<g id="a_Node000047"><a xlink:href="classNtcTemperatureHandler.html#a97fa93b2ed6337e24e056b46fbe331c7" target="_top" xlink:title=" ">
<polygon fill="white" stroke="#666666" points="815,-202 682,-202 682,-172 815,-172 815,-202"/>
<text text-anchor="start" x="690" y="-190" font-family="Helvetica,sans-Serif" font-size="10.00">NtcTemperatureHandler</text>
<text text-anchor="middle" x="748.5" y="-179" font-family="Helvetica,sans-Serif" font-size="10.00">::Initialize</text>
</a>
</g>
</g>
<!-- Node1&#45;&gt;Node47 -->
<g id="edge41_Node000001_Node000047" class="edge">
<title>Node1&#45;&gt;Node47</title>
<g id="a_edge41_Node000001_Node000047"><a xlink:title=" ">
<path fill="none" stroke="#63b8ff" d="M857.68,-201.42C844.24,-199.63 829.46,-197.66 815.27,-195.77"/>
<polygon fill="#63b8ff" stroke="#63b8ff" points="857.29,-204.9 867.66,-202.75 858.21,-197.96 857.29,-204.9"/>
</a>
</g>
</g>
<!-- Node48 -->
<g id="Node000048" class="node">
<title>Node48</title>
<g id="a_Node000048"><a xlink:href="classMax22200Handler.html#aca940fd8213ecb633bafb7c3e143a361" target="_top" xlink:title="Initialize with board configuration.">
<polygon fill="white" stroke="#666666" points="825.5,-153.5 671.5,-153.5 671.5,-134.5 825.5,-134.5 825.5,-153.5"/>
<text text-anchor="middle" x="748.5" y="-141.5" font-family="Helvetica,sans-Serif" font-size="10.00">Max22200Handler::Initialize</text>
</a>
</g>
</g>
<!-- Node1&#45;&gt;Node48 -->
<g id="edge42_Node000001_Node000048" class="edge">
<title>Node1&#45;&gt;Node48</title>
<g id="a_edge42_Node000001_Node000048"><a xlink:title=" ">
<path fill="none" stroke="#63b8ff" d="M885.58,-192.66C871.07,-182.91 851.13,-170.71 832,-163 822.59,-159.21 812.27,-156.08 802.2,-153.53"/>
<polygon fill="#63b8ff" stroke="#63b8ff" points="883.63,-195.57 893.85,-198.35 887.6,-189.8 883.63,-195.57"/>
</a>
</g>
</g>
<!-- Node49 -->
<g id="Node000049" class="node">
<title>Node49</title>
<g id="a_Node000049"><a xlink:href="classTle92466edHandler.html#a2f01dd08b168f009db41d658db3484eb" target="_top" xlink:title="Initialize with global configuration.">
<polygon fill="white" stroke="#666666" points="807.5,-116 689.5,-116 689.5,-86 807.5,-86 807.5,-116"/>
<text text-anchor="start" x="697.5" y="-104" font-family="Helvetica,sans-Serif" font-size="10.00">Tle92466edHandler::</text>
<text text-anchor="middle" x="748.5" y="-93" font-family="Helvetica,sans-Serif" font-size="10.00">Initialize</text>
</a>
</g>
</g>
<!-- Node1&#45;&gt;Node49 -->
<g id="edge43_Node000001_Node000049" class="edge">
<title>Node1&#45;&gt;Node49</title>
<g id="a_edge43_Node000001_Node000049"><a xlink:title=" ">
<path fill="none" stroke="#63b8ff" d="M895.4,-190.15C882.22,-171.26 859.02,-141.92 832,-125 824.54,-120.33 816.14,-116.54 807.62,-113.46"/>
<polygon fill="#63b8ff" stroke="#63b8ff" points="892.53,-192.15 901.03,-198.47 898.33,-188.23 892.53,-192.15"/>
</a>
</g>
</g>
<!-- Node50 -->
<g id="Node000050" class="node">
<title>Node50</title>
<g id="a_Node000050"><a xlink:href="classTmc5160Handler.html#a44ab36857e4e43062f81f7d6f10eab09" target="_top" xlink:title="Initialize the TMC5160 driver with full configuration.">
<polygon fill="white" stroke="#666666" points="822.5,-67.5 674.5,-67.5 674.5,-48.5 822.5,-48.5 822.5,-67.5"/>
<text text-anchor="middle" x="748.5" y="-55.5" font-family="Helvetica,sans-Serif" font-size="10.00">Tmc5160Handler::Initialize</text>
</a>
</g>
</g>
<!-- Node1&#45;&gt;Node50 -->
<g id="edge44_Node000001_Node000050" class="edge">
<title>Node1&#45;&gt;Node50</title>
<g id="a_edge44_Node000001_Node000050"><a xlink:title=" ">
<path fill="none" stroke="#63b8ff" d="M901.39,-188.51C891.99,-159.52 870.25,-105.4 832,-77 826.81,-73.15 820.96,-70.05 814.84,-67.58"/>
<polygon fill="#63b8ff" stroke="#63b8ff" points="898.11,-189.76 904.39,-198.29 904.8,-187.7 898.11,-189.76"/>
</a>
</g>
</g>
<!-- Node60 -->
<g id="Node000060" class="node">
<title>Node60</title>
<g id="a_Node000060"><a xlink:href="classTmc9660Handler_1_1Temperature.html#a5ebc77b2122ba4473b74a4a0fc78ff09" target="_top" xlink:title="Read the chip temperature in degrees Celsius.">
<polygon fill="white" stroke="#666666" points="832,-30 665,-30 665,0 832,0 832,-30"/>
<text text-anchor="start" x="673" y="-18" font-family="Helvetica,sans-Serif" font-size="10.00">Tmc9660Handler::Temperature</text>
<text text-anchor="middle" x="748.5" y="-7" font-family="Helvetica,sans-Serif" font-size="10.00">::ReadTemperatureCelsiusImpl</text>
</a>
</g>
</g>
<!-- Node1&#45;&gt;Node60 -->
<g id="edge50_Node000001_Node000060" class="edge">
<title>Node1&#45;&gt;Node60</title>
<g id="a_edge50_Node000001_Node000060"><a xlink:title=" ">
<path fill="none" stroke="#63b8ff" d="M903.82,-188.31C897.07,-153.09 878.02,-79.21 832,-39 828.07,-35.56 823.67,-32.62 819.01,-30.1"/>
<polygon fill="#63b8ff" stroke="#63b8ff" points="900.39,-189.07 905.59,-198.3 907.29,-187.84 900.39,-189.07"/>
</a>
</g>
</g>
<!-- Node4 -->
<g id="Node000004" class="node">
<title>Node4</title>
<g id="a_Node000004"><a xlink:href="classMax22200Handler.html#aa00edacb247660349767fa4521121104" target="_top" xlink:title=" ">
<polygon fill="white" stroke="#666666" points="629,-815 436,-815 436,-785 629,-785 629,-815"/>
<text text-anchor="start" x="444" y="-803" font-family="Helvetica,sans-Serif" font-size="10.00">Max22200Handler::EnsureInitialized</text>
<text text-anchor="middle" x="532.5" y="-792" font-family="Helvetica,sans-Serif" font-size="10.00">Locked</text>
</a>
</g>
</g>
<!-- Node3&#45;&gt;Node4 -->
<g id="edge3_Node000003_Node000004" class="edge">
<title>Node3&#45;&gt;Node4</title>
<g id="a_edge3_Node000003_Node000004"><a xlink:title=" ">
<path fill="none" stroke="#63b8ff" d="M719.47,-705.28C679.03,-725.87 604.65,-763.76 563.26,-784.84"/>
<polygon fill="#63b8ff" stroke="#63b8ff" points="721.19,-708.33 728.51,-700.67 718.01,-702.09 721.19,-708.33"/>
</a>
</g>
</g>
<!-- Node5 -->
<g id="Node000005" class="node">
<title>Node5</title>
<g id="a_Node000005"><a xlink:href="classMax22200Handler.html#afd07a624dc736a1452c0f6190499adc0" target="_top" xlink:title="Dump diagnostics to logger.">
<polygon fill="white" stroke="#666666" points="400,-883.5 202,-883.5 202,-864.5 400,-864.5 400,-883.5"/>
<text text-anchor="middle" x="301" y="-871.5" font-family="Helvetica,sans-Serif" font-size="10.00">Max22200Handler::DumpDiagnostics</text>
</a>
</g>
</g>
<!-- Node4&#45;&gt;Node5 -->
<g id="edge4_Node000004_Node000005" class="edge">
<title>Node4&#45;&gt;Node5</title>
<g id="a_edge4_Node000004_Node000005"><a xlink:title=" ">
<path fill="none" stroke="#63b8ff" d="M492.34,-819.38C466.63,-831.42 431.96,-846.39 400,-856 388.98,-859.31 377.08,-862.12 365.49,-864.46"/>
<polygon fill="#63b8ff" stroke="#63b8ff" points="493.85,-822.54 501.39,-815.09 490.85,-816.21 493.85,-822.54"/>
</a>
</g>
</g>
<!-- Node6 -->
<g id="Node000006" class="node">
<title>Node6</title>
<g id="a_Node000006"><a xlink:href="classMax22200Handler.html#a803b60663755d7850857626b58efc084" target="_top" xlink:title="Ensure driver is initialized (lazy init entrypoint).">
<polygon fill="white" stroke="#666666" points="397.5,-846.5 204.5,-846.5 204.5,-827.5 397.5,-827.5 397.5,-846.5"/>
<text text-anchor="middle" x="301" y="-834.5" font-family="Helvetica,sans-Serif" font-size="10.00">Max22200Handler::EnsureInitialized</text>
</a>
</g>
</g>
<!-- Node4&#45;&gt;Node6 -->
<g id="edge5_Node000004_Node000006" class="edge">
<title>Node4&#45;&gt;Node6</title>
<g id="a_edge5_Node000004_Node000006"><a xlink:title=" ">
<path fill="none" stroke="#63b8ff" d="M428.01,-816.68C405.05,-820.39 381.48,-824.19 361.03,-827.48"/>
<polygon fill="#63b8ff" stroke="#63b8ff" points="428.84,-820.1 438.15,-815.05 427.72,-813.19 428.84,-820.1"/>
</a>
</g>
</g>
<!-- Node7 -->
<g id="Node000007" class="node">
<title>Node7</title>
<g id="a_Node000007"><a xlink:href="classMax22200Handler.html#a001e00b9d9a02611b51951f16bcb78d1" target="_top" xlink:title="Get the underlying driver for advanced operations.">
<polygon fill="white" stroke="#666666" points="380.5,-809.5 221.5,-809.5 221.5,-790.5 380.5,-790.5 380.5,-809.5"/>
<text text-anchor="middle" x="301" y="-797.5" font-family="Helvetica,sans-Serif" font-size="10.00">Max22200Handler::GetDriver</text>
</a>
</g>
</g>
<!-- Node4&#45;&gt;Node7 -->
<g id="edge6_Node000004_Node000007" class="edge">
<title>Node4&#45;&gt;Node7</title>
<g id="a_edge6_Node000004_Node000007"><a xlink:title=" ">
<path fill="none" stroke="#63b8ff" d="M425.47,-800C410.43,-800 395.19,-800 380.79,-800"/>
<polygon fill="#63b8ff" stroke="#63b8ff" points="425.83,-803.5 435.83,-800 425.83,-796.5 425.83,-803.5"/>
</a>
</g>
</g>
<!-- Node9 -->
<g id="Node000009" class="node">
<title>Node9</title>
<g id="a_Node000009"><a xlink:href="classMax22200Handler.html#abcdd9746a0df9c28bb36508d52d80ef5" target="_top" xlink:title="Execute a lambda with a locked, initialized driver.">
<polygon fill="white" stroke="#666666" points="382.5,-772.5 219.5,-772.5 219.5,-753.5 382.5,-753.5 382.5,-772.5"/>
<text text-anchor="middle" x="301" y="-760.5" font-family="Helvetica,sans-Serif" font-size="10.00">Max22200Handler::withDriver</text>
</a>
</g>
</g>
<!-- Node4&#45;&gt;Node9 -->
<g id="edge8_Node000004_Node000009" class="edge">
<title>Node4&#45;&gt;Node9</title>
<g id="a_edge8_Node000004_Node000009"><a xlink:title=" ">
<path fill="none" stroke="#63b8ff" d="M428.01,-783.32C405.05,-779.61 381.48,-775.81 361.03,-772.52"/>
<polygon fill="#63b8ff" stroke="#63b8ff" points="427.72,-786.81 438.15,-784.95 428.84,-779.9 427.72,-786.81"/>
</a>
</g>
</g>
<!-- Node8 -->
<g id="Node000008" class="node">
<title>Node8</title>
<g id="a_Node000008"><a xlink:href="classMax22200Handler.html#aee42537a3d2f0955a1479709b2d4b4b8" target="_top" xlink:title=" ">
<polygon fill="white" stroke="#666666" points="162.5,-885.5 3.5,-885.5 3.5,-866.5 162.5,-866.5 162.5,-885.5"/>
<text text-anchor="middle" x="83" y="-873.5" font-family="Helvetica,sans-Serif" font-size="10.00">Max22200Handler::GetDriver</text>
</a>
</g>
</g>
<!-- Node7&#45;&gt;Node8 -->
<g id="edge7_Node000007_Node000008" class="edge">
<title>Node7&#45;&gt;Node8</title>
<g id="a_edge7_Node000007_Node000008"><a xlink:title=" ">
<path fill="none" stroke="#63b8ff" d="M215.19,-812.89C210.62,-814.67 206.19,-816.7 202,-819 181.61,-830.19 186.19,-845.44 166,-857 159.28,-860.85 151.83,-863.92 144.23,-866.37"/>
<polygon fill="#63b8ff" stroke="#63b8ff" points="216.43,-816.16 224.72,-809.56 214.12,-809.55 216.43,-816.16"/>
</a>
</g>
</g>
<!-- Node10 -->
<g id="Node000010" class="node">
<title>Node10</title>
<g id="a_Node000010"><a xlink:href="classMax22200Handler.html#a963d65edae16cca4fd153b3af0c1e68e" target="_top" xlink:title="Clear all fault flags.">
<polygon fill="white" stroke="#666666" points="166,-714.5 0,-714.5 0,-695.5 166,-695.5 166,-714.5"/>
<text text-anchor="middle" x="83" y="-702.5" font-family="Helvetica,sans-Serif" font-size="10.00">Max22200Handler::ClearFaults</text>
</a>
</g>
</g>
<!-- Node9&#45;&gt;Node10 -->
<g id="edge9_Node000009_Node000010" class="edge">
<title>Node9&#45;&gt;Node10</title>
<g id="a_edge9_Node000009_Node000010"><a xlink:title=" ">
<path fill="none" stroke="#63b8ff" d="M259.31,-750.52C232.83,-742.56 197.49,-732.22 166,-724 153.42,-720.71 139.67,-717.42 127.09,-714.51"/>
<polygon fill="#63b8ff" stroke="#63b8ff" points="258.41,-753.9 269,-753.45 260.44,-747.2 258.41,-753.9"/>
</a>
</g>
</g>
<!-- Node11 -->
<g id="Node000011" class="node">
<title>Node11</title>
<g id="a_Node000011"><a xlink:href="classMax22200Handler.html#a9e9684818c7efddd45697f28051cbca2" target="_top" xlink:title="Disable all channels.">
<polygon fill="white" stroke="#666666" points="157.5,-848 8.5,-848 8.5,-818 157.5,-818 157.5,-848"/>
<text text-anchor="start" x="16.5" y="-836" font-family="Helvetica,sans-Serif" font-size="10.00">Max22200Handler::Disable</text>
<text text-anchor="middle" x="83" y="-825" font-family="Helvetica,sans-Serif" font-size="10.00">AllChannels</text>
</a>
</g>
</g>
<!-- Node9&#45;&gt;Node11 -->
<g id="edge10_Node000009_Node000011" class="edge">
<title>Node9&#45;&gt;Node11</title>
<g id="a_edge10_Node000009_Node000011"><a xlink:title=" ">
<path fill="none" stroke="#63b8ff" d="M220.12,-775.31C213.88,-777.22 207.77,-779.44 202,-782 183.72,-790.11 183.88,-800.05 166,-809 159.24,-812.39 151.91,-815.38 144.52,-817.99"/>
<polygon fill="#63b8ff" stroke="#63b8ff" points="221.32,-778.61 230,-772.53 219.43,-771.87 221.32,-778.61"/>
</a>
</g>
</g>
<!-- Node12 -->
<g id="Node000012" class="node">
<title>Node12</title>
<g id="a_Node000012"><a xlink:href="classMax22200Handler.html#af7aba4f68825068e774badca04c49a07" target="_top" xlink:title="Enable all channels.">
<polygon fill="white" stroke="#666666" points="162,-800 4,-800 4,-770 162,-770 162,-800"/>
<text text-anchor="start" x="12" y="-788" font-family="Helvetica,sans-Serif" font-size="10.00">Max22200Handler::EnableAll</text>
<text text-anchor="middle" x="83" y="-777" font-family="Helvetica,sans-Serif" font-size="10.00">Channels</text>
</a>
</g>
</g>
<!-- Node9&#45;&gt;Node12 -->
<g id="edge11_Node000009_Node000012" class="edge">
<title>Node9&#45;&gt;Node12</title>
<g id="a_edge11_Node000009_Node000012"><a xlink:title=" ">
<path fill="none" stroke="#63b8ff" d="M209.09,-772.26C193.47,-773.85 177.37,-775.49 162.13,-777.04"/>
<polygon fill="#63b8ff" stroke="#63b8ff" points="209.67,-775.72 219.26,-771.22 208.96,-768.75 209.67,-775.72"/>
</a>
</g>
</g>
<!-- Node13 -->
<g id="Node000013" class="node">
<title>Node13</title>
<g id="a_Node000013"><a xlink:href="classMax22200Handler.html#ac5b60b117fec404c55597929134fa1a1" target="_top" xlink:title="Check if any fault is present.">
<polygon fill="white" stroke="#666666" points="160,-751.5 6,-751.5 6,-732.5 160,-732.5 160,-751.5"/>
<text text-anchor="middle" x="83" y="-739.5" font-family="Helvetica,sans-Serif" font-size="10.00">Max22200Handler::HasFault</text>
</a>
</g>
</g>
<!-- Node9&#45;&gt;Node13 -->
<g id="edge12_Node000009_Node000013" class="edge">
<title>Node9&#45;&gt;Node13</title>
<g id="a_edge12_Node000009_Node000013"><a xlink:title=" ">
<path fill="none" stroke="#63b8ff" d="M209.22,-754.17C192.95,-752.59 176.16,-750.96 160.35,-749.42"/>
<polygon fill="#63b8ff" stroke="#63b8ff" points="208.97,-757.67 219.26,-755.15 209.65,-750.7 208.97,-757.67"/>
</a>
</g>
</g>
<!-- Node15 -->
<g id="Node000015" class="node">
<title>Node15</title>
<g id="a_Node000015"><a xlink:href="classTle92466edHandler.html#a59ce7fd71a61c78bba4dc4a43c99e280" target="_top" xlink:title=" ">
<polygon fill="white" stroke="#666666" points="598,-533 467,-533 467,-503 598,-503 598,-533"/>
<text text-anchor="start" x="475" y="-521" font-family="Helvetica,sans-Serif" font-size="10.00">Tle92466edHandler::</text>
<text text-anchor="middle" x="532.5" y="-510" font-family="Helvetica,sans-Serif" font-size="10.00">EnsureInitializedLocked</text>
</a>
</g>
</g>
<!-- Node14&#45;&gt;Node15 -->
<g id="edge14_Node000014_Node000015" class="edge">
<title>Node14&#45;&gt;Node15</title>
<g id="a_edge14_Node000014_Node000015"><a xlink:title=" ">
<path fill="none" stroke="#63b8ff" d="M697.05,-457.62C659.67,-471.42 609.37,-489.99 574.47,-502.88"/>
<polygon fill="#63b8ff" stroke="#63b8ff" points="698.58,-460.79 706.74,-454.05 696.15,-454.23 698.58,-460.79"/>
</a>
</g>
</g>
<!-- Node16 -->
<g id="Node000016" class="node">
<title>Node16</title>
<g id="a_Node000016"><a xlink:href="classTle92466edHandler.html#afcec01ba90f6596dcde99387ef41b6e4" target="_top" xlink:title="Dump diagnostics to logger.">
<polygon fill="white" stroke="#666666" points="360,-629 242,-629 242,-599 360,-599 360,-629"/>
<text text-anchor="start" x="250" y="-617" font-family="Helvetica,sans-Serif" font-size="10.00">Tle92466edHandler::</text>
<text text-anchor="middle" x="301" y="-606" font-family="Helvetica,sans-Serif" font-size="10.00">DumpDiagnostics</text>
</a>
</g>
</g>
<!-- Node15&#45;&gt;Node16 -->
<g id="edge15_Node000015_Node000016" class="edge">
<title>Node15&#45;&gt;Node16</title>
<g id="a_edge15_Node000015_Node000016"><a xlink:title=" ">
<path fill="none" stroke="#63b8ff" d="M499.52,-538.6C473.58,-554.55 435.59,-576.17 400,-590 387.35,-594.92 373.37,-599.06 360.04,-602.44"/>
<polygon fill="#63b8ff" stroke="#63b8ff" points="501.53,-541.48 508.17,-533.22 497.83,-535.53 501.53,-541.48"/>
</a>
</g>
</g>
<!-- Node17 -->
<g id="Node000017" class="node">
<title>Node17</title>
<g id="a_Node000017"><a xlink:href="classTle92466edHandler.html#a1a976346516812f7125cdeb2f3aeb327" target="_top" xlink:title="Ensure driver is initialized (lazy init entrypoint).">
<polygon fill="white" stroke="#666666" points="360,-581 242,-581 242,-551 360,-551 360,-581"/>
<text text-anchor="start" x="250" y="-569" font-family="Helvetica,sans-Serif" font-size="10.00">Tle92466edHandler::</text>
<text text-anchor="middle" x="301" y="-558" font-family="Helvetica,sans-Serif" font-size="10.00">EnsureInitialized</text>
</a>
</g>
</g>
<!-- Node15&#45;&gt;Node17 -->
<g id="edge16_Node000015_Node000017" class="edge">
<title>Node15&#45;&gt;Node17</title>
<g id="a_edge16_Node000015_Node000017"><a xlink:title=" ">
<path fill="none" stroke="#63b8ff" d="M456.94,-533.59C425.55,-540.16 389.57,-547.69 360.18,-553.83"/>
<polygon fill="#63b8ff" stroke="#63b8ff" points="457.89,-536.97 466.96,-531.5 456.46,-530.12 457.89,-536.97"/>
</a>
</g>
</g>
<!-- Node18 -->
<g id="Node000018" class="node">
<title>Node18</title>
<g id="a_Node000018"><a xlink:href="classTle92466edHandler.html#ae83bbf85e50d68c8adcc2160bdaed271" target="_top" xlink:title="Get the underlying driver for advanced operations.">
<polygon fill="white" stroke="#666666" points="360,-533 242,-533 242,-503 360,-503 360,-533"/>
<text text-anchor="start" x="250" y="-521" font-family="Helvetica,sans-Serif" font-size="10.00">Tle92466edHandler::</text>
<text text-anchor="middle" x="301" y="-510" font-family="Helvetica,sans-Serif" font-size="10.00">GetDriver</text>
</a>
</g>
</g>
<!-- Node15&#45;&gt;Node18 -->
<g id="edge17_Node000015_Node000018" class="edge">
<title>Node15&#45;&gt;Node18</title>
<g id="a_edge17_Node000015_Node000018"><a xlink:title=" ">
<path fill="none" stroke="#63b8ff" d="M456.94,-518C425.55,-518 389.57,-518 360.18,-518"/>
<polygon fill="#63b8ff" stroke="#63b8ff" points="456.96,-521.5 466.96,-518 456.96,-514.5 456.96,-521.5"/>
</a>
</g>
</g>
<!-- Node20 -->
<g id="Node000020" class="node">
<title>Node20</title>
<g id="a_Node000020"><a xlink:href="classTle92466edHandler.html#aef42f3c7c1b1ef51b27eb8d178aca6bc" target="_top" xlink:title="Execute a lambda with a locked, initialized driver.">
<polygon fill="white" stroke="#666666" points="360,-485 242,-485 242,-455 360,-455 360,-485"/>
<text text-anchor="start" x="250" y="-473" font-family="Helvetica,sans-Serif" font-size="10.00">Tle92466edHandler::</text>
<text text-anchor="middle" x="301" y="-462" font-family="Helvetica,sans-Serif" font-size="10.00">withDriver</text>
</a>
</g>
</g>
<!-- Node15&#45;&gt;Node20 -->
<g id="edge19_Node000015_Node000020" class="edge">
<title>Node15&#45;&gt;Node20</title>
<g id="a_edge19_Node000015_Node000020"><a xlink:title=" ">
<path fill="none" stroke="#63b8ff" d="M456.94,-502.41C425.55,-495.84 389.57,-488.31 360.18,-482.17"/>
<polygon fill="#63b8ff" stroke="#63b8ff" points="456.46,-505.88 466.96,-504.5 457.89,-499.03 456.46,-505.88"/>
</a>
</g>
</g>
<!-- Node19 -->
<g id="Node000019" class="node">
<title>Node19</title>
<g id="a_Node000019"><a xlink:href="classTle92466edHandler.html#a56ebe6e509ccd1b6b865728ba14d2533" target="_top" xlink:title=" ">
<polygon fill="white" stroke="#666666" points="142,-677 24,-677 24,-647 142,-647 142,-677"/>
<text text-anchor="start" x="32" y="-665" font-family="Helvetica,sans-Serif" font-size="10.00">Tle92466edHandler::</text>
<text text-anchor="middle" x="83" y="-654" font-family="Helvetica,sans-Serif" font-size="10.00">GetDriver</text>
</a>
</g>
</g>
<!-- Node18&#45;&gt;Node19 -->
<g id="edge18_Node000018_Node000019" class="edge">
<title>Node18&#45;&gt;Node19</title>
<g id="a_edge18_Node000018_Node000019"><a xlink:title=" ">
<path fill="none" stroke="#63b8ff" d="M232.14,-525.46C221.14,-529.11 210.56,-534.4 202,-542 167.93,-572.26 199.39,-606.99 166,-638 159.26,-644.26 150.98,-648.89 142.29,-652.32"/>
<polygon fill="#63b8ff" stroke="#63b8ff" points="233.25,-528.78 241.89,-522.65 231.31,-522.06 233.25,-528.78"/>
</a>
</g>
</g>
<!-- Node21 -->
<g id="Node000021" class="node">
<title>Node21</title>
<g id="a_Node000021"><a xlink:href="classTle92466edHandler.html#ab3123678e6df690f5669fd89079e0a4e" target="_top" xlink:title="Clear all fault flags.">
<polygon fill="white" stroke="#666666" points="142,-341 24,-341 24,-311 142,-311 142,-341"/>
<text text-anchor="start" x="32" y="-329" font-family="Helvetica,sans-Serif" font-size="10.00">Tle92466edHandler::</text>
<text text-anchor="middle" x="83" y="-318" font-family="Helvetica,sans-Serif" font-size="10.00">ClearFaults</text>
</a>
</g>
</g>
<!-- Node20&#45;&gt;Node21 -->
<g id="edge20_Node000020_Node000021" class="edge">
<title>Node20&#45;&gt;Node21</title>
<g id="a_edge20_Node000020_Node000021"><a xlink:title=" ">
<path fill="none" stroke="#63b8ff" d="M232.14,-462.54C221.14,-458.89 210.56,-453.6 202,-446 167.93,-415.74 199.39,-381.01 166,-350 159.26,-343.74 150.98,-339.11 142.29,-335.68"/>
<polygon fill="#63b8ff" stroke="#63b8ff" points="231.31,-465.94 241.89,-465.35 233.25,-459.22 231.31,-465.94"/>
</a>
</g>
</g>
<!-- Node22 -->
<g id="Node000022" class="node">
<title>Node22</title>
<g id="a_Node000022"><a xlink:href="classTle92466edHandler.html#ac37cbbcce53c7a55657ee61cd5015190" target="_top" xlink:title="Disable all channels.">
<polygon fill="white" stroke="#666666" points="142,-293 24,-293 24,-263 142,-263 142,-293"/>
<text text-anchor="start" x="32" y="-281" font-family="Helvetica,sans-Serif" font-size="10.00">Tle92466edHandler::</text>
<text text-anchor="middle" x="83" y="-270" font-family="Helvetica,sans-Serif" font-size="10.00">DisableAllChannels</text>
</a>
</g>
</g>
<!-- Node20&#45;&gt;Node22 -->
<g id="edge21_Node000020_Node000022" class="edge">
<title>Node20&#45;&gt;Node22</title>
<g id="a_edge21_Node000020_Node000022"><a xlink:title=" ">
<path fill="none" stroke="#63b8ff" d="M231.98,-463.53C220.84,-459.79 210.26,-454.22 202,-446 155.24,-399.46 211.71,-349.57 166,-302 159.42,-295.16 151.01,-290.23 142.09,-286.7"/>
<polygon fill="#63b8ff" stroke="#63b8ff" points="231.3,-466.97 241.87,-466.36 233.23,-460.24 231.3,-466.97"/>
</a>
</g>
</g>
<!-- Node23 -->
<g id="Node000023" class="node">
<title>Node23</title>
<g id="a_Node000023"><a xlink:href="classTle92466edHandler.html#a1ee30771436827a1499a379aa7e5ab49" target="_top" xlink:title="Enable all channels.">
<polygon fill="white" stroke="#666666" points="142,-245 24,-245 24,-215 142,-215 142,-245"/>
<text text-anchor="start" x="32" y="-233" font-family="Helvetica,sans-Serif" font-size="10.00">Tle92466edHandler::</text>
<text text-anchor="middle" x="83" y="-222" font-family="Helvetica,sans-Serif" font-size="10.00">EnableAllChannels</text>
</a>
</g>
</g>
<!-- Node20&#45;&gt;Node23 -->
<g id="edge22_Node000020_Node000023" class="edge">
<title>Node20&#45;&gt;Node23</title>
<g id="a_edge22_Node000020_Node000023"><a xlink:title=" ">
<path fill="none" stroke="#63b8ff" d="M232.3,-464.17C220.93,-460.39 210.18,-454.65 202,-446 142.31,-382.95 224.27,-318.36 166,-254 159.53,-246.85 151.06,-241.79 142.02,-238.21"/>
<polygon fill="#63b8ff" stroke="#63b8ff" points="231.38,-467.55 241.96,-466.9 233.29,-460.81 231.38,-467.55"/>
</a>
</g>
</g>
<!-- Node24 -->
<g id="Node000024" class="node">
<title>Node24</title>
<g id="a_Node000024"><a xlink:href="classTle92466edHandler.html#a19b966bb109b988eb98d319b76908667" target="_top" xlink:title="Enter config mode (for register writes).">
<polygon fill="white" stroke="#666666" points="142,-629 24,-629 24,-599 142,-599 142,-629"/>
<text text-anchor="start" x="32" y="-617" font-family="Helvetica,sans-Serif" font-size="10.00">Tle92466edHandler::</text>
<text text-anchor="middle" x="83" y="-606" font-family="Helvetica,sans-Serif" font-size="10.00">EnterConfigMode</text>
</a>
</g>
</g>
<!-- Node20&#45;&gt;Node24 -->
<g id="edge23_Node000020_Node000024" class="edge">
<title>Node20&#45;&gt;Node24</title>
<g id="a_edge23_Node000020_Node000024"><a xlink:title=" ">
<path fill="none" stroke="#63b8ff" d="M232.14,-477.46C221.14,-481.11 210.56,-486.4 202,-494 167.93,-524.26 199.39,-558.99 166,-590 159.26,-596.26 150.98,-600.89 142.29,-604.32"/>
<polygon fill="#63b8ff" stroke="#63b8ff" points="233.25,-480.78 241.89,-474.65 231.31,-474.06 233.25,-480.78"/>
</a>
</g>
</g>
<!-- Node25 -->
<g id="Node000025" class="node">
<title>Node25</title>
<g id="a_Node000025"><a xlink:href="classTle92466edHandler.html#aee10ff4c219a042d260a6b1f58a9219a" target="_top" xlink:title="Enter mission mode (enable outputs after configuration).">
<polygon fill="white" stroke="#666666" points="142,-581 24,-581 24,-551 142,-551 142,-581"/>
<text text-anchor="start" x="32" y="-569" font-family="Helvetica,sans-Serif" font-size="10.00">Tle92466edHandler::</text>
<text text-anchor="middle" x="83" y="-558" font-family="Helvetica,sans-Serif" font-size="10.00">EnterMissionMode</text>
</a>
</g>
</g>
<!-- Node20&#45;&gt;Node25 -->
<g id="edge24_Node000020_Node000025" class="edge">
<title>Node20&#45;&gt;Node25</title>
<g id="a_edge24_Node000020_Node000025"><a xlink:title=" ">
<path fill="none" stroke="#63b8ff" d="M232.08,-480.14C221.49,-483.52 211.06,-488.01 202,-494 179.75,-508.7 187.92,-526.81 166,-542 158.81,-546.98 150.57,-550.95 142.16,-554.09"/>
<polygon fill="#63b8ff" stroke="#63b8ff" points="233.17,-483.47 241.82,-477.35 231.24,-476.74 233.17,-483.47"/>
</a>
</g>
</g>
<!-- Node26 -->
<g id="Node000026" class="node">
<title>Node26</title>
<g id="a_Node000026"><a xlink:href="classTle92466edHandler.html#a4c646ee5db271f07517cc15e8a623f0e" target="_top" xlink:title="Get chip ID (returns 0 on error).">
<polygon fill="white" stroke="#666666" points="142,-533 24,-533 24,-503 142,-503 142,-533"/>
<text text-anchor="start" x="32" y="-521" font-family="Helvetica,sans-Serif" font-size="10.00">Tle92466edHandler::</text>
<text text-anchor="middle" x="83" y="-510" font-family="Helvetica,sans-Serif" font-size="10.00">GetChipId</text>
</a>
</g>
</g>
<!-- Node20&#45;&gt;Node26 -->
<g id="edge25_Node000020_Node000026" class="edge">
<title>Node20&#45;&gt;Node26</title>
<g id="a_edge25_Node000020_Node000026"><a xlink:title=" ">
<path fill="none" stroke="#63b8ff" d="M231.85,-485.14C203.07,-491.54 169.89,-498.91 142.27,-505.05"/>
<polygon fill="#63b8ff" stroke="#63b8ff" points="232.83,-488.51 241.83,-482.93 231.31,-481.68 232.83,-488.51"/>
</a>
</g>
</g>
<!-- Node27 -->
<g id="Node000027" class="node">
<title>Node27</title>
<g id="a_Node000027"><a xlink:href="classTle92466edHandler.html#a0c29d4ada1c9247dc90fb64d914dec1f" target="_top" xlink:title="Get IC version (returns 0 on error).">
<polygon fill="white" stroke="#666666" points="142,-485 24,-485 24,-455 142,-455 142,-485"/>
<text text-anchor="start" x="32" y="-473" font-family="Helvetica,sans-Serif" font-size="10.00">Tle92466edHandler::</text>
<text text-anchor="middle" x="83" y="-462" font-family="Helvetica,sans-Serif" font-size="10.00">GetIcVersion</text>
</a>
</g>
</g>
<!-- Node20&#45;&gt;Node27 -->
<g id="edge26_Node000020_Node000027" class="edge">
<title>Node20&#45;&gt;Node27</title>
<g id="a_edge26_Node000020_Node000027"><a xlink:title=" ">
<path fill="none" stroke="#63b8ff" d="M231.47,-470C202.78,-470 169.77,-470 142.27,-470"/>
<polygon fill="#63b8ff" stroke="#63b8ff" points="231.83,-473.5 241.83,-470 231.83,-466.5 231.83,-473.5"/>
</a>
</g>
</g>
<!-- Node28 -->
<g id="Node000028" class="node">
<title>Node28</title>
<g id="a_Node000028"><a xlink:href="classTle92466edHandler.html#ab86e6d3eb2dca25154a8fa7c42ddb945" target="_top" xlink:title="Check if any fault is present.">
<polygon fill="white" stroke="#666666" points="142,-437 24,-437 24,-407 142,-407 142,-437"/>
<text text-anchor="start" x="32" y="-425" font-family="Helvetica,sans-Serif" font-size="10.00">Tle92466edHandler::</text>
<text text-anchor="middle" x="83" y="-414" font-family="Helvetica,sans-Serif" font-size="10.00">HasFault</text>
</a>
</g>
</g>
<!-- Node20&#45;&gt;Node28 -->
<g id="edge27_Node000020_Node000028" class="edge">
<title>Node20&#45;&gt;Node28</title>
<g id="a_edge27_Node000020_Node000028"><a xlink:title=" ">
<path fill="none" stroke="#63b8ff" d="M231.85,-454.86C203.07,-448.46 169.89,-441.09 142.27,-434.95"/>
<polygon fill="#63b8ff" stroke="#63b8ff" points="231.31,-458.32 241.83,-457.07 232.83,-451.49 231.31,-458.32"/>
</a>
</g>
</g>
<!-- Node29 -->
<g id="Node000029" class="node">
<title>Node29</title>
<g id="a_Node000029"><a xlink:href="classTle92466edHandler.html#a6bcbd117208f3e44f2216d45541eb4fa" target="_top" xlink:title="Check if in mission mode.">
<polygon fill="white" stroke="#666666" points="142,-389 24,-389 24,-359 142,-359 142,-389"/>
<text text-anchor="start" x="32" y="-377" font-family="Helvetica,sans-Serif" font-size="10.00">Tle92466edHandler::</text>
<text text-anchor="middle" x="83" y="-366" font-family="Helvetica,sans-Serif" font-size="10.00">IsMissionMode</text>
</a>
</g>
</g>
<!-- Node20&#45;&gt;Node29 -->
<g id="edge28_Node000020_Node000029" class="edge">
<title>Node20&#45;&gt;Node29</title>
<g id="a_edge28_Node000020_Node000029"><a xlink:title=" ">
<path fill="none" stroke="#63b8ff" d="M232.08,-459.86C221.49,-456.48 211.06,-451.99 202,-446 179.75,-431.3 187.92,-413.19 166,-398 158.81,-393.02 150.57,-389.05 142.16,-385.91"/>
<polygon fill="#63b8ff" stroke="#63b8ff" points="231.24,-463.26 241.82,-462.65 233.17,-456.53 231.24,-463.26"/>
</a>
</g>
</g>
<!-- Node31 -->
<g id="Node000031" class="node">
<title>Node31</title>
<g id="a_Node000031"><a xlink:href="classWs2812Handler.html#afe5f397b22e9b92cf2fb2cebae6e123d" target="_top" xlink:title=" ">
<polygon fill="white" stroke="#666666" points="623,-331 442,-331 442,-301 623,-301 623,-331"/>
<text text-anchor="start" x="450" y="-319" font-family="Helvetica,sans-Serif" font-size="10.00">Ws2812Handler::EnsureInitialized</text>
<text text-anchor="middle" x="532.5" y="-308" font-family="Helvetica,sans-Serif" font-size="10.00">Locked</text>
</a>
</g>
</g>
<!-- Node30&#45;&gt;Node31 -->
<g id="edge30_Node000030_Node000031" class="edge">
<title>Node30&#45;&gt;Node31</title>
<g id="a_edge30_Node000030_Node000031"><a xlink:title=" ">
<path fill="none" stroke="#63b8ff" d="M667.13,-312.88C652.81,-313.21 637.8,-313.56 623.24,-313.9"/>
<polygon fill="#63b8ff" stroke="#63b8ff" points="667.51,-316.37 677.43,-312.64 667.35,-309.37 667.51,-316.37"/>
</a>
</g>
</g>
<!-- Node32 -->
<g id="Node000032" class="node">
<title>Node32</title>
<g id="a_Node000032"><a xlink:href="classWs2812Handler.html#a586683dcf63f17194b77c026972c7b2b" target="_top" xlink:title="Dump diagnostics to logger.">
<polygon fill="white" stroke="#666666" points="394,-362.5 208,-362.5 208,-343.5 394,-343.5 394,-362.5"/>
<text text-anchor="middle" x="301" y="-350.5" font-family="Helvetica,sans-Serif" font-size="10.00">Ws2812Handler::DumpDiagnostics</text>
</a>
</g>
</g>
<!-- Node31&#45;&gt;Node32 -->
<g id="edge31_Node000031_Node000032" class="edge">
<title>Node31&#45;&gt;Node32</title>
<g id="a_edge31_Node000031_Node000032"><a xlink:title=" ">
<path fill="none" stroke="#63b8ff" d="M431.89,-332.06C407.8,-335.94 382.81,-339.97 361.25,-343.45"/>
<polygon fill="#63b8ff" stroke="#63b8ff" points="432.47,-335.51 441.78,-330.46 431.35,-328.6 432.47,-335.51"/>
</a>
</g>
</g>
<!-- Node33 -->
<g id="Node000033" class="node">
<title>Node33</title>
<g id="a_Node000033"><a xlink:href="classWs2812Handler.html#a764cc93c64a81844a284ac7515ea8366" target="_top" xlink:title="Ensure strip resources are initialized (lazy init entrypoint).">
<polygon fill="white" stroke="#666666" points="391.5,-325.5 210.5,-325.5 210.5,-306.5 391.5,-306.5 391.5,-325.5"/>
<text text-anchor="middle" x="301" y="-313.5" font-family="Helvetica,sans-Serif" font-size="10.00">Ws2812Handler::EnsureInitialized</text>
</a>
</g>
</g>
<!-- Node31&#45;&gt;Node33 -->
<g id="edge32_Node000031_Node000033" class="edge">
<title>Node31&#45;&gt;Node33</title>
<g id="a_edge32_Node000031_Node000033"><a xlink:title=" ">
<path fill="none" stroke="#63b8ff" d="M431.67,-316C418.36,-316 404.78,-316 391.65,-316"/>
<polygon fill="#63b8ff" stroke="#63b8ff" points="431.78,-319.5 441.78,-316 431.78,-312.5 431.78,-319.5"/>
</a>
</g>
</g>
<!-- Node34 -->
<g id="Node000034" class="node">
<title>Node34</title>
<g id="a_Node000034"><a xlink:href="classWs2812Handler.html#a3e09ba2c15d5b0e7d6d254e22f634ae8" target="_top" xlink:title="Get the animator object.">
<polygon fill="#fff0f0" stroke="red" points="382,-288.5 220,-288.5 220,-269.5 382,-269.5 382,-288.5"/>
<text text-anchor="middle" x="301" y="-276.5" font-family="Helvetica,sans-Serif" font-size="10.00">Ws2812Handler::GetAnimator</text>
</a>
</g>
</g>
<!-- Node31&#45;&gt;Node34 -->
<g id="edge33_Node000031_Node000034" class="edge">
<title>Node31&#45;&gt;Node34</title>
<g id="a_edge33_Node000031_Node000034"><a xlink:title=" ">
<path fill="none" stroke="#63b8ff" d="M431.89,-299.94C407.8,-296.06 382.81,-292.03 361.25,-288.55"/>
<polygon fill="#63b8ff" stroke="#63b8ff" points="431.35,-303.4 441.78,-301.54 432.47,-296.49 431.35,-303.4"/>
</a>
</g>
</g>
<!-- Node36 -->
<g id="Node000036" class="node">
<title>Node36</title>
<g id="a_Node000036"><a xlink:href="classWs2812Handler.html#a7471840392adad3cab496e2dc57dc792" target="_top" xlink:title="Get the underlying LED strip object.">
<polygon fill="#fff0f0" stroke="red" points="371,-251.5 231,-251.5 231,-232.5 371,-232.5 371,-251.5"/>
<text text-anchor="middle" x="301" y="-239.5" font-family="Helvetica,sans-Serif" font-size="10.00">Ws2812Handler::GetStrip</text>
</a>
</g>
</g>
<!-- Node31&#45;&gt;Node36 -->
<g id="edge34_Node000031_Node000036" class="edge">
<title>Node31&#45;&gt;Node36</title>
<g id="a_edge34_Node000031_Node000036"><a xlink:title=" ">
<path fill="none" stroke="#63b8ff" d="M447.56,-297.34C443.59,-295.7 439.71,-293.93 436,-292 417.26,-282.28 419,-270.21 400,-261 391.03,-256.65 381.15,-253.3 371.21,-250.72"/>
<polygon fill="#63b8ff" stroke="#63b8ff" points="446.39,-300.64 456.98,-300.92 448.88,-294.1 446.39,-300.64"/>
</a>
</g>
</g>
<!-- Node40 -->
<g id="Node000040" class="node">
<title>Node40</title>
<g id="a_Node000040"><a xlink:href="classWs2812Handler.html#ae6bb3e858c86d80d69edc1fced893293" target="_top" xlink:title="Visit animator object with a callable.">
<polygon fill="white" stroke="#666666" points="384,-436.5 218,-436.5 218,-417.5 384,-417.5 384,-436.5"/>
<text text-anchor="middle" x="301" y="-424.5" font-family="Helvetica,sans-Serif" font-size="10.00">Ws2812Handler::visitAnimator</text>
</a>
</g>
</g>
<!-- Node31&#45;&gt;Node40 -->
<g id="edge35_Node000031_Node000040" class="edge">
<title>Node31&#45;&gt;Node40</title>
<g id="a_edge35_Node000031_Node000040"><a xlink:title=" ">
<path fill="none" stroke="#63b8ff" d="M507.25,-338.13C482.25,-359.68 441.21,-391.64 400,-409 391.87,-412.42 383.09,-415.2 374.24,-417.45"/>
<polygon fill="#63b8ff" stroke="#63b8ff" points="509.88,-340.48 515.09,-331.26 505.26,-335.22 509.88,-340.48"/>
</a>
</g>
</g>
<!-- Node41 -->
<g id="Node000041" class="node">
<title>Node41</title>
<g id="a_Node000041"><a xlink:href="classWs2812Handler.html#a338df7ac09cd31e3b70d7dd488c1baa6" target="_top" xlink:title="Visit strip driver with a callable.">
<polygon fill="white" stroke="#666666" points="376.5,-399.5 225.5,-399.5 225.5,-380.5 376.5,-380.5 376.5,-399.5"/>
<text text-anchor="middle" x="301" y="-387.5" font-family="Helvetica,sans-Serif" font-size="10.00">Ws2812Handler::visitDriver</text>
</a>
</g>
</g>
<!-- Node31&#45;&gt;Node41 -->
<g id="edge36_Node000031_Node000041" class="edge">
<title>Node31&#45;&gt;Node41</title>
<g id="a_edge36_Node000031_Node000041"><a xlink:title=" ">
<path fill="none" stroke="#63b8ff" d="M492.34,-335.38C466.63,-347.42 431.96,-362.39 400,-372 388.98,-375.31 377.08,-378.12 365.49,-380.46"/>
<polygon fill="#63b8ff" stroke="#63b8ff" points="493.85,-338.54 501.39,-331.09 490.85,-332.21 493.85,-338.54"/>
</a>
</g>
</g>
<!-- Node43 -->
<g id="Node000043" class="node">
<title>Node43</title>
<g id="a_Node000043"><a xlink:href="classAds7952Handler.html#a4541d57be2e20b35d9270a62642fb862" target="_top" xlink:title="Ensure initialized while mutex is already held.">
<polygon fill="white" stroke="#666666" points="624.5,-283 440.5,-283 440.5,-253 624.5,-253 624.5,-283"/>
<text text-anchor="start" x="448.5" y="-271" font-family="Helvetica,sans-Serif" font-size="10.00">Ads7952Handler::EnsureInitialized</text>
<text text-anchor="middle" x="532.5" y="-260" font-family="Helvetica,sans-Serif" font-size="10.00">Locked</text>
</a>
</g>
</g>
<!-- Node42&#45;&gt;Node43 -->
<g id="edge38_Node000042_Node000043" class="edge">
<title>Node42&#45;&gt;Node43</title>
<g id="a_edge38_Node000042_Node000043"><a xlink:title=" ">
<path fill="none" stroke="#63b8ff" d="M665.81,-268C652.39,-268 638.41,-268 624.78,-268"/>
<polygon fill="#63b8ff" stroke="#63b8ff" points="665.94,-271.5 675.94,-268 665.94,-264.5 665.94,-271.5"/>
</a>
</g>
</g>
<!-- Node44 -->
<g id="Node000044" class="node">
<title>Node44</title>
<g id="a_Node000044"><a xlink:href="classAds7952Handler.html#a7703915b68bb1ef88fbbd980bf938d90" target="_top" xlink:title="Get raw pointer to the ADS7952 driver for advanced operations.">
<polygon fill="#fff0f0" stroke="red" points="376,-214.5 226,-214.5 226,-195.5 376,-195.5 376,-214.5"/>
<text text-anchor="middle" x="301" y="-202.5" font-family="Helvetica,sans-Serif" font-size="10.00">Ads7952Handler::GetDriver</text>
</a>
</g>
</g>
<!-- Node43&#45;&gt;Node44 -->
<g id="edge39_Node000043_Node000044" class="edge">
<title>Node43&#45;&gt;Node44</title>
<g id="a_edge39_Node000043_Node000044"><a xlink:title=" ">
<path fill="none" stroke="#63b8ff" d="M469.03,-250.01C457.96,-246.55 446.59,-242.81 436,-239 419.69,-233.14 416.59,-229.01 400,-224 387.72,-220.29 374.35,-217.14 361.55,-214.54"/>
<polygon fill="#63b8ff" stroke="#63b8ff" points="468.06,-253.38 478.65,-252.98 470.13,-246.69 468.06,-253.38"/>
</a>
</g>
</g>
<!-- Node46 -->
<g id="Node000046" class="node">
<title>Node46</title>
<g id="a_Node000046"><a xlink:href="classAds7952Handler.html#a69677cd8a49a9d456c739755d3bd2943" target="_top" xlink:title="Visit the underlying ADS7952 driver under handler mutex protection.">
<polygon fill="white" stroke="#666666" points="378,-177.5 224,-177.5 224,-158.5 378,-158.5 378,-177.5"/>
<text text-anchor="middle" x="301" y="-165.5" font-family="Helvetica,sans-Serif" font-size="10.00">Ads7952Handler::visitDriver</text>
</a>
</g>
</g>
<!-- Node43&#45;&gt;Node46 -->
<g id="edge40_Node000043_Node000046" class="edge">
<title>Node43&#45;&gt;Node46</title>
<g id="a_edge40_Node000043_Node000046"><a xlink:title=" ">
<path fill="none" stroke="#63b8ff" d="M452.35,-248.72C446.58,-245.91 441.05,-242.68 436,-239 413.29,-222.44 423.54,-202.37 400,-187 393.32,-182.64 385.88,-179.24 378.17,-176.58"/>
<polygon fill="#63b8ff" stroke="#63b8ff" points="451.01,-251.96 461.57,-252.82 453.86,-245.56 451.01,-251.96"/>
</a>
</g>
</g>
<!-- Node51 -->
<g id="Node000051" class="node">
<title>Node51</title>
<g id="a_Node000051"><a xlink:href="classTmc5160Handler.html#a6d4fce2433e03bb11b05a4278ef66fd0" target="_top" xlink:title=" ">
<polygon fill="white" stroke="#666666" points="626,-73 439,-73 439,-43 626,-43 626,-73"/>
<text text-anchor="start" x="447" y="-61" font-family="Helvetica,sans-Serif" font-size="10.00">Tmc5160Handler::EnsureInitialized</text>
<text text-anchor="middle" x="532.5" y="-50" font-family="Helvetica,sans-Serif" font-size="10.00">Locked</text>
</a>
</g>
</g>
<!-- Node50&#45;&gt;Node51 -->
<g id="edge45_Node000050_Node000051" class="edge">
<title>Node50&#45;&gt;Node51</title>
<g id="a_edge45_Node000050_Node000051"><a xlink:title=" ">
<path fill="none" stroke="#63b8ff" d="M664.14,-58C651.73,-58 638.87,-58 626.27,-58"/>
<polygon fill="#63b8ff" stroke="#63b8ff" points="664.45,-61.5 674.45,-58 664.45,-54.5 664.45,-61.5"/>
</a>
</g>
</g>
<!-- Node51&#45;&gt;Node2 -->
<g id="edge48_Node000051_Node000002" class="edge">
<title>Node51&#45;&gt;Node2</title>
<g id="a_edge48_Node000051_Node000002"><a xlink:title=" ">
<path fill="none" stroke="#63b8ff" d="M490.61,-77.25C465.03,-88.67 431.14,-102.69 400,-112 387.63,-115.7 374.16,-118.85 361.28,-121.47"/>
<polygon fill="#63b8ff" stroke="#63b8ff" points="492.31,-80.32 499.99,-73.01 489.43,-73.94 492.31,-80.32"/>
</a>
</g>
</g>
<!-- Node52 -->
<g id="Node000052" class="node">
<title>Node52</title>
<g id="a_Node000052"><a xlink:href="classTmc5160Handler.html#a15dae0f711e2dd4ecea09822b8a3a8bb" target="_top" xlink:title="Get typed SPI driver pointer (null if UART mode or not initialized).">
<polygon fill="#fff0f0" stroke="red" points="383.5,-29.5 218.5,-29.5 218.5,-10.5 383.5,-10.5 383.5,-29.5"/>
<text text-anchor="middle" x="301" y="-17.5" font-family="Helvetica,sans-Serif" font-size="10.00">Tmc5160Handler::driverViaSpi</text>
</a>
</g>
</g>
<!-- Node51&#45;&gt;Node52 -->
<g id="edge46_Node000051_Node000052" class="edge">
<title>Node51&#45;&gt;Node52</title>
<g id="a_edge46_Node000051_Node000052"><a xlink:title=" ">
<path fill="none" stroke="#63b8ff" d="M430.75,-41.32C406.32,-37.27 381.02,-33.08 359.38,-29.5"/>
<polygon fill="#63b8ff" stroke="#63b8ff" points="430.36,-44.8 440.8,-42.98 431.5,-37.89 430.36,-44.8"/>
</a>
</g>
</g>
<!-- Node56 -->
<g id="Node000056" class="node">
<title>Node56</title>
<g id="a_Node000056"><a xlink:href="classTmc5160Handler.html#af8cb1c7b5011bd24102d296f22c211c5" target="_top" xlink:title="Get typed UART driver pointer (null if SPI mode or not initialized).">
<polygon fill="#fff0f0" stroke="red" points="386.5,-103.5 215.5,-103.5 215.5,-84.5 386.5,-84.5 386.5,-103.5"/>
<text text-anchor="middle" x="301" y="-91.5" font-family="Helvetica,sans-Serif" font-size="10.00">Tmc5160Handler::driverViaUart</text>
</a>
</g>
</g>
<!-- Node51&#45;&gt;Node56 -->
<g id="edge47_Node000051_Node000056" class="edge">
<title>Node51&#45;&gt;Node56</title>
<g id="a_edge47_Node000051_Node000056"><a xlink:title=" ">
<path fill="none" stroke="#63b8ff" d="M428.84,-74.1C406.25,-77.65 383.03,-81.29 362.73,-84.47"/>
<polygon fill="#63b8ff" stroke="#63b8ff" points="429.48,-77.55 438.82,-72.54 428.39,-70.63 429.48,-77.55"/>
</a>
</g>
</g>
<!-- Node58 -->
<g id="Node000058" class="node">
<title>Node58</title>
<g id="a_Node000058"><a xlink:href="classTmc5160Handler.html#a5ad276d4fcd81765d0a5af064fdbf7b5" target="_top" xlink:title="Ensure driver is initialized (lazy init entrypoint).">
<polygon fill="#fff0f0" stroke="red" points="394.5,-66.5 207.5,-66.5 207.5,-47.5 394.5,-47.5 394.5,-66.5"/>
<text text-anchor="middle" x="301" y="-54.5" font-family="Helvetica,sans-Serif" font-size="10.00">Tmc5160Handler::EnsureInitialized</text>
</a>
</g>
</g>
<!-- Node51&#45;&gt;Node58 -->
<g id="edge49_Node000051_Node000058" class="edge">
<title>Node51&#45;&gt;Node58</title>
<g id="a_edge49_Node000051_Node000058"><a xlink:title=" ">
<path fill="none" stroke="#63b8ff" d="M428.51,-57.55C417.23,-57.5 405.8,-57.45 394.66,-57.4"/>
<polygon fill="#63b8ff" stroke="#63b8ff" points="428.8,-61.05 438.82,-57.6 428.83,-54.05 428.8,-61.05"/>
</a>
</g>
</g>
</g>
</svg>
