<?xml version="1.0" encoding="UTF-8" standalone="no"?>
<!DOCTYPE svg PUBLIC "-//W3C//DTD SVG 1.1//EN"
 "http://www.w3.org/Graphics/SVG/1.1/DTD/svg11.dtd">
<!-- Generated by graphviz version 2.43.0 (0)
 -->
<!-- Title: Pca9685PwmAdapter::StartAll Pages: 1 -->
<svg width="697pt" height="38pt"
 viewBox="0.00 0.00 697.00 38.00" xmlns="http://www.w3.org/2000/svg" xmlns:xlink="http://www.w3.org/1999/xlink">
<g id="graph0" class="graph" transform="scale(1 1) rotate(0) translate(4 34)">
<title>Pca9685PwmAdapter::StartAll</title>
<!-- Node1 -->
<g id="Node000001" class="node">
<title>Node1</title>
<g id="a_Node000001"><a xlink:title="Wake the PCA9685 from sleep (start all channels).">
<polygon fill="#999999" stroke="#666666" points="126,-30 0,-30 0,0 126,0 126,-30"/>
<text text-anchor="start" x="8" y="-18" font-family="Helvetica,sans-Serif" font-size="10.00">Pca9685PwmAdapter::</text>
<text text-anchor="middle" x="63" y="-7" font-family="Helvetica,sans-Serif" font-size="10.00">StartAll</text>
</a>
</g>
</g>
<!-- Node2 -->
<g id="Node000002" class="node">
<title>Node2</title>
<g id="a_Node000002"><a xlink:href="classPca9685Handler.html#abfea96039e525e253d0eab9234cdfa5f" target="_top" xlink:title="Wake PCA9685 from sleep mode.">
<polygon fill="white" stroke="#666666" points="290,-24.5 162,-24.5 162,-5.5 290,-5.5 290,-24.5"/>
<text text-anchor="middle" x="226" y="-12.5" font-family="Helvetica,sans-Serif" font-size="10.00">Pca9685Handler::Wake</text>
</a>
</g>
</g>
<!-- Node1&#45;&gt;Node2 -->
<g id="edge1_Node000001_Node000002" class="edge">
<title>Node1&#45;&gt;Node2</title>
<g id="a_edge1_Node000001_Node000002"><a xlink:title=" ">
<path fill="none" stroke="#63b8ff" d="M126.25,-15C134.55,-15 143.13,-15 151.6,-15"/>
<polygon fill="#63b8ff" stroke="#63b8ff" points="151.86,-18.5 161.86,-15 151.86,-11.5 151.86,-18.5"/>
</a>
</g>
</g>
<!-- Node3 -->
<g id="Node000003" class="node">
<title>Node3</title>
<g id="a_Node000003"><a xlink:href="classPca9685Handler.html#abc72cbb1c0ffd4410143d52c605e0e49" target="_top" xlink:title="Check init under already&#45;held handler_mutex_.">
<polygon fill="white" stroke="#666666" points="509,-30 326,-30 326,0 509,0 509,-30"/>
<text text-anchor="start" x="334" y="-18" font-family="Helvetica,sans-Serif" font-size="10.00">Pca9685Handler::ensureInitialized</text>
<text text-anchor="middle" x="417.5" y="-7" font-family="Helvetica,sans-Serif" font-size="10.00">Locked</text>
</a>
</g>
</g>
<!-- Node2&#45;&gt;Node3 -->
<g id="edge2_Node000002_Node000003" class="edge">
<title>Node2&#45;&gt;Node3</title>
<g id="a_edge2_Node000002_Node000003"><a xlink:title=" ">
<path fill="none" stroke="#63b8ff" d="M290.1,-15C298.38,-15 307.03,-15 315.74,-15"/>
<polygon fill="#63b8ff" stroke="#63b8ff" points="315.98,-18.5 325.98,-15 315.98,-11.5 315.98,-18.5"/>
</a>
</g>
</g>
<!-- Node4 -->
<g id="Node000004" class="node">
<title>Node4</title>
<g id="a_Node000004"><a xlink:href="classPca9685Handler.html#ab7b5cd2320a6bb69ff6a2869051e9d5e" target="_top" xlink:title="Internal initialization (called under mutex).">
<polygon fill="white" stroke="#666666" points="689,-30 545,-30 545,0 689,0 689,-30"/>
<text text-anchor="start" x="553" y="-18" font-family="Helvetica,sans-Serif" font-size="10.00">Pca9685Handler::initialize</text>
<text text-anchor="middle" x="617" y="-7" font-family="Helvetica,sans-Serif" font-size="10.00">Internal</text>
</a>
</g>
</g>
<!-- Node3&#45;&gt;Node4 -->
<g id="edge3_Node000003_Node000004" class="edge">
<title>Node3&#45;&gt;Node4</title>
<g id="a_edge3_Node000003_Node000004"><a xlink:title=" ">
<path fill="none" stroke="#63b8ff" d="M509.16,-15C517.66,-15 526.25,-15 534.67,-15"/>
<polygon fill="#63b8ff" stroke="#63b8ff" points="534.82,-18.5 544.82,-15 534.82,-11.5 534.82,-18.5"/>
</a>
</g>
</g>
</g>
</svg>
