<?xml version="1.0" encoding="UTF-8" standalone="no"?>
<!DOCTYPE svg PUBLIC "-//W3C//DTD SVG 1.1//EN"
 "http://www.w3.org/Graphics/SVG/1.1/DTD/svg11.dtd">
<!-- Generated by graphviz version 2.43.0 (0)
 -->
<!-- Title: Tmc9660Handler::driverViaUart Pages: 1 -->
<svg width="368pt" height="64pt"
 viewBox="0.00 0.00 368.00 64.00" xmlns="http://www.w3.org/2000/svg" xmlns:xlink="http://www.w3.org/1999/xlink">
<g id="graph0" class="graph" transform="scale(1 1) rotate(0) translate(4 60)">
<title>Tmc9660Handler::driverViaUart</title>
<!-- Node1 -->
<g id="Node000001" class="node">
<title>Node1</title>
<g id="a_Node000001"><a xlink:title="Get the TMC9660 driver instance connected via UART (nullptr if using SPI).">
<polygon fill="#999999" stroke="#666666" points="360,-37 189,-37 189,-18 360,-18 360,-37"/>
<text text-anchor="middle" x="274.5" y="-25" font-family="Helvetica,sans-Serif" font-size="10.00">Tmc9660Handler::driverViaUart</text>
</a>
</g>
</g>
<!-- Node2 -->
<g id="Node000002" class="node">
<title>Node2</title>
<g id="a_Node000002"><a xlink:href="classTmc9660Handler.html#ae1d6f6676180aff28d02dcb954917b79" target="_top" xlink:title="Const overload of GetDriver().">
<polygon fill="white" stroke="#666666" points="153,-56 0,-56 0,-37 153,-37 153,-56"/>
<text text-anchor="middle" x="76.5" y="-44" font-family="Helvetica,sans-Serif" font-size="10.00">Tmc9660Handler::GetDriver</text>
</a>
</g>
</g>
<!-- Node1&#45;&gt;Node2 -->
<g id="edge1_Node000001_Node000002" class="edge">
<title>Node1&#45;&gt;Node2</title>
<g id="a_edge1_Node000001_Node000002"><a xlink:title=" ">
<path fill="none" stroke="#63b8ff" d="M178.85,-36.67C170.22,-37.51 161.56,-38.35 153.12,-39.17"/>
<polygon fill="#63b8ff" stroke="#63b8ff" points="179.34,-40.14 188.96,-35.7 178.67,-33.18 179.34,-40.14"/>
</a>
</g>
</g>
<!-- Node3 -->
<g id="Node000003" class="node">
<title>Node3</title>
<g id="a_Node000003"><a xlink:href="classTmc9660Handler.html#ac29a3cfd55b2186f357c8b2f56d16bce" target="_top" xlink:title="Get the active driver pointer without requiring visitor usage.">
<polygon fill="white" stroke="#666666" points="153,-19 0,-19 0,0 153,0 153,-19"/>
<text text-anchor="middle" x="76.5" y="-7" font-family="Helvetica,sans-Serif" font-size="10.00">Tmc9660Handler::GetDriver</text>
</a>
</g>
</g>
<!-- Node1&#45;&gt;Node3 -->
<g id="edge2_Node000001_Node000003" class="edge">
<title>Node1&#45;&gt;Node3</title>
<g id="a_edge2_Node000001_Node000003"><a xlink:title=" ">
<path fill="none" stroke="#63b8ff" d="M178.85,-18.81C170.22,-18.02 161.56,-17.22 153.12,-16.44"/>
<polygon fill="#63b8ff" stroke="#63b8ff" points="178.68,-22.31 188.96,-19.74 179.32,-15.34 178.68,-22.31"/>
</a>
</g>
</g>
</g>
</svg>
