<?xml version="1.0" encoding="UTF-8" standalone="no"?>
<!DOCTYPE svg PUBLIC "-//W3C//DTD SVG 1.1//EN"
 "http://www.w3.org/Graphics/SVG/1.1/DTD/svg11.dtd">
<!-- Generated by graphviz version 2.43.0 (0)
 -->
<!-- Title: NtcTemperatureHandler::UnregisterMonitoringContext Pages: 1 -->
<svg width="543pt" height="95pt"
 viewBox="0.00 0.00 543.00 95.00" xmlns="http://www.w3.org/2000/svg" xmlns:xlink="http://www.w3.org/1999/xlink">
<g id="graph0" class="graph" transform="scale(1 1) rotate(0) translate(4 91)">
<title>NtcTemperatureHandler::UnregisterMonitoringContext</title>
<!-- Node1 -->
<g id="Node000001" class="node">
<title>Node1</title>
<g id="a_Node000001"><a xlink:title=" ">
<polygon fill="#999999" stroke="#666666" points="535,-54 371,-54 371,-24 535,-24 535,-54"/>
<text text-anchor="start" x="379" y="-42" font-family="Helvetica,sans-Serif" font-size="10.00">NtcTemperatureHandler</text>
<text text-anchor="middle" x="453" y="-31" font-family="Helvetica,sans-Serif" font-size="10.00">::UnregisterMonitoringContext</text>
</a>
</g>
</g>
<!-- Node2 -->
<g id="Node000002" class="node">
<title>Node2</title>
<g id="a_Node000002"><a xlink:href="classNtcTemperatureHandler.html#a8c1949119402a748e1000e473e263703" target="_top" xlink:title=" ">
<polygon fill="white" stroke="#666666" points="140,-87 7,-87 7,-57 140,-57 140,-87"/>
<text text-anchor="start" x="15" y="-75" font-family="Helvetica,sans-Serif" font-size="10.00">NtcTemperatureHandler</text>
<text text-anchor="middle" x="73.5" y="-64" font-family="Helvetica,sans-Serif" font-size="10.00">::Deinitialize</text>
</a>
</g>
</g>
<!-- Node1&#45;&gt;Node2 -->
<g id="edge1_Node000001_Node000002" class="edge">
<title>Node1&#45;&gt;Node2</title>
<g id="a_edge1_Node000001_Node000002"><a xlink:title=" ">
<path fill="none" stroke="#63b8ff" d="M378.7,-56C364.28,-58.78 349.22,-61.31 335,-63 268.94,-70.86 192.86,-72.66 140.04,-72.77"/>
<polygon fill="#63b8ff" stroke="#63b8ff" points="379.43,-59.42 388.56,-54.03 378.07,-52.55 379.43,-59.42"/>
</a>
</g>
</g>
<!-- Node3 -->
<g id="Node000003" class="node">
<title>Node3</title>
<g id="a_Node000003"><a xlink:href="classNtcTemperatureHandler.html#a7cd3aa59989bec0514d6717d345d8466" target="_top" xlink:title=" ">
<polygon fill="white" stroke="#666666" points="335,-54 183,-54 183,-24 335,-24 335,-54"/>
<text text-anchor="start" x="191" y="-42" font-family="Helvetica,sans-Serif" font-size="10.00">NtcTemperatureHandler</text>
<text text-anchor="middle" x="259" y="-31" font-family="Helvetica,sans-Serif" font-size="10.00">::StopContinuousMonitoring</text>
</a>
</g>
</g>
<!-- Node1&#45;&gt;Node3 -->
<g id="edge2_Node000001_Node000003" class="edge">
<title>Node1&#45;&gt;Node3</title>
<g id="a_edge2_Node000001_Node000003"><a xlink:title=" ">
<path fill="none" stroke="#63b8ff" d="M360.78,-39C352.16,-39 343.5,-39 335.05,-39"/>
<polygon fill="#63b8ff" stroke="#63b8ff" points="360.85,-42.5 370.85,-39 360.85,-35.5 360.85,-42.5"/>
</a>
</g>
</g>
<!-- Node4 -->
<g id="Node000004" class="node">
<title>Node4</title>
<g id="a_Node000004"><a xlink:href="classNtcTemperatureHandler.html#aac69a65bcccfecfc2bfca99f7ac2aeb3" target="_top" xlink:title="Virtual destructor &#45; cleans up timer and thermistor resources.">
<polygon fill="white" stroke="#666666" points="147,-30 0,-30 0,0 147,0 147,-30"/>
<text text-anchor="start" x="8" y="-18" font-family="Helvetica,sans-Serif" font-size="10.00">NtcTemperatureHandler</text>
<text text-anchor="middle" x="73.5" y="-7" font-family="Helvetica,sans-Serif" font-size="10.00">::~NtcTemperatureHandler</text>
</a>
</g>
</g>
<!-- Node1&#45;&gt;Node4 -->
<g id="edge5_Node000001_Node000004" class="edge">
<title>Node1&#45;&gt;Node4</title>
<g id="a_edge5_Node000001_Node000004"><a xlink:title=" ">
<path fill="none" stroke="#63b8ff" d="M380.27,-21.9C365.39,-19.03 349.75,-16.5 335,-15 271.78,-8.58 199.49,-9.21 147.13,-11.08"/>
<polygon fill="#63b8ff" stroke="#63b8ff" points="379.93,-25.41 390.43,-23.94 381.31,-18.54 379.93,-25.41"/>
</a>
</g>
</g>
<!-- Node3&#45;&gt;Node2 -->
<g id="edge3_Node000003_Node000002" class="edge">
<title>Node3&#45;&gt;Node2</title>
<g id="a_edge3_Node000003_Node000002"><a xlink:title=" ">
<path fill="none" stroke="#63b8ff" d="M172.81,-54.32C161.84,-56.29 150.74,-58.29 140.15,-60.19"/>
<polygon fill="#63b8ff" stroke="#63b8ff" points="173.61,-57.73 182.83,-52.52 172.37,-50.84 173.61,-57.73"/>
</a>
</g>
</g>
<!-- Node3&#45;&gt;Node4 -->
<g id="edge4_Node000003_Node000004" class="edge">
<title>Node3&#45;&gt;Node4</title>
<g id="a_edge4_Node000003_Node000004"><a xlink:title=" ">
<path fill="none" stroke="#63b8ff" d="M172.82,-27.86C164.25,-26.74 155.6,-25.61 147.18,-24.51"/>
<polygon fill="#63b8ff" stroke="#63b8ff" points="172.46,-31.34 182.83,-29.17 173.37,-24.4 172.46,-31.34"/>
</a>
</g>
</g>
</g>
</svg>
