<?xml version="1.0" encoding="UTF-8" standalone="no"?>
<!DOCTYPE svg PUBLIC "-//W3C//DTD SVG 1.1//EN"
 "http://www.w3.org/Graphics/SVG/1.1/DTD/svg11.dtd">
<!-- Generated by graphviz version 2.43.0 (0)
 -->
<!-- Title: Tmc9660Handler::IsDriverReady Pages: 1 -->
<svg width="1017pt" height="416pt"
 viewBox="0.00 0.00 1017.00 415.50" xmlns="http://www.w3.org/2000/svg" xmlns:xlink="http://www.w3.org/1999/xlink">
<g id="graph0" class="graph" transform="scale(1 1) rotate(0) translate(4 411.5)">
<title>Tmc9660Handler::IsDriverReady</title>
<!-- Node1 -->
<g id="Node000001" class="node">
<title>Node1</title>
<g id="a_Node000001"><a xlink:title="Check if the TMC9660 driver has been initialized and is ready.">
<polygon fill="#999999" stroke="#666666" points="1009,-98.5 865,-98.5 865,-68.5 1009,-68.5 1009,-98.5"/>
<text text-anchor="start" x="873" y="-86.5" font-family="Helvetica,sans-Serif" font-size="10.00">Tmc9660Handler::IsDriver</text>
<text text-anchor="middle" x="937" y="-75.5" font-family="Helvetica,sans-Serif" font-size="10.00">Ready</text>
</a>
</g>
</g>
<!-- Node2 -->
<g id="Node000002" class="node">
<title>Node2</title>
<g id="a_Node000002"><a xlink:href="classTmc9660Handler.html#a7c1d8073576d678b09dac24c9eb12845" target="_top" xlink:title="Ensure initialized while handler_mutex_ is already held.">
<polygon fill="white" stroke="#666666" points="829,-98.5 642,-98.5 642,-68.5 829,-68.5 829,-98.5"/>
<text text-anchor="start" x="650" y="-86.5" font-family="Helvetica,sans-Serif" font-size="10.00">Tmc9660Handler::EnsureInitialized</text>
<text text-anchor="middle" x="735.5" y="-75.5" font-family="Helvetica,sans-Serif" font-size="10.00">Locked</text>
</a>
</g>
</g>
<!-- Node1&#45;&gt;Node2 -->
<g id="edge1_Node000001_Node000002" class="edge">
<title>Node1&#45;&gt;Node2</title>
<g id="a_edge1_Node000001_Node000002"><a xlink:title=" ">
<path fill="none" stroke="#63b8ff" d="M854.7,-83.5C846.32,-83.5 837.76,-83.5 829.27,-83.5"/>
<polygon fill="#63b8ff" stroke="#63b8ff" points="854.82,-87 864.82,-83.5 854.82,-80 854.82,-87"/>
</a>
</g>
</g>
<!-- Node3 -->
<g id="Node000003" class="node">
<title>Node3</title>
<g id="a_Node000003"><a xlink:href="classTmc9660Handler.html#adee8a764564554f060b879752048bf74" target="_top" xlink:title="Dump comprehensive diagnostics to the system log.">
<polygon fill="white" stroke="#666666" points="606,-130 414,-130 414,-111 606,-111 606,-130"/>
<text text-anchor="middle" x="510" y="-118" font-family="Helvetica,sans-Serif" font-size="10.00">Tmc9660Handler::DumpDiagnostics</text>
</a>
</g>
</g>
<!-- Node2&#45;&gt;Node3 -->
<g id="edge2_Node000002_Node000003" class="edge">
<title>Node2&#45;&gt;Node3</title>
<g id="a_edge2_Node000002_Node000003"><a xlink:title=" ">
<path fill="none" stroke="#63b8ff" d="M633.72,-100.18C611.35,-103.89 588.4,-107.69 568.48,-110.98"/>
<polygon fill="#63b8ff" stroke="#63b8ff" points="634.3,-103.64 643.59,-98.55 633.16,-96.73 634.3,-103.64"/>
</a>
</g>
</g>
<!-- Node4 -->
<g id="Node000004" class="node">
<title>Node4</title>
<g id="a_Node000004"><a xlink:href="classTmc9660Handler.html#a5a279ae9d4b5a8e0d71cb24577ad88ea" target="_top" xlink:title="Ensure driver is initialized (lazy init entrypoint).">
<polygon fill="white" stroke="#666666" points="603.5,-93 416.5,-93 416.5,-74 603.5,-74 603.5,-93"/>
<text text-anchor="middle" x="510" y="-81" font-family="Helvetica,sans-Serif" font-size="10.00">Tmc9660Handler::EnsureInitialized</text>
</a>
</g>
</g>
<!-- Node2&#45;&gt;Node4 -->
<g id="edge3_Node000002_Node000004" class="edge">
<title>Node2&#45;&gt;Node4</title>
<g id="a_edge3_Node000002_Node000004"><a xlink:title=" ">
<path fill="none" stroke="#63b8ff" d="M631.87,-83.5C622.52,-83.5 613.07,-83.5 603.81,-83.5"/>
<polygon fill="#63b8ff" stroke="#63b8ff" points="631.98,-87 641.98,-83.5 631.98,-80 631.98,-87"/>
</a>
</g>
</g>
<!-- Node19 -->
<g id="Node000019" class="node">
<title>Node19</title>
<g id="a_Node000019"><a xlink:href="classTmc9660Handler.html#a4e219285c12b2ca50075edfaf73b4e2f" target="_top" xlink:title="Execute a function on the underlying typed TMC9660 driver.">
<polygon fill="white" stroke="#666666" points="588.5,-56 431.5,-56 431.5,-37 588.5,-37 588.5,-56"/>
<text text-anchor="middle" x="510" y="-44" font-family="Helvetica,sans-Serif" font-size="10.00">Tmc9660Handler::visitDriver</text>
</a>
</g>
</g>
<!-- Node2&#45;&gt;Node19 -->
<g id="edge20_Node000002_Node000019" class="edge">
<title>Node2&#45;&gt;Node19</title>
<g id="a_edge20_Node000002_Node000019"><a xlink:title=" ">
<path fill="none" stroke="#63b8ff" d="M633.72,-66.82C611.35,-63.11 588.4,-59.31 568.48,-56.02"/>
<polygon fill="#63b8ff" stroke="#63b8ff" points="633.16,-70.27 643.59,-68.45 634.3,-63.36 633.16,-70.27"/>
</a>
</g>
</g>
<!-- Node5 -->
<g id="Node000005" class="node">
<title>Node5</title>
<g id="a_Node000005"><a xlink:href="classTmc9660Handler.html#a7fe382c4dbf6bf84ed31586e52ec2e6e" target="_top" xlink:title="Get a reference to the ADC wrapper.">
<polygon fill="white" stroke="#666666" points="354,-282 231,-282 231,-263 354,-263 354,-282"/>
<text text-anchor="middle" x="292.5" y="-270" font-family="Helvetica,sans-Serif" font-size="10.00">Tmc9660Handler::adc</text>
</a>
</g>
</g>
<!-- Node4&#45;&gt;Node5 -->
<g id="edge4_Node000004_Node000005" class="edge">
<title>Node4&#45;&gt;Node5</title>
<g id="a_edge4_Node000004_Node000005"><a xlink:title=" ">
<path fill="none" stroke="#63b8ff" d="M423.91,-96.98C420.47,-98.63 417.15,-100.46 414,-102.5 381.23,-123.77 317.97,-230.17 299.01,-262.9"/>
<polygon fill="#63b8ff" stroke="#63b8ff" points="425.38,-100.16 433.25,-93.07 422.68,-93.7 425.38,-100.16"/>
</a>
</g>
</g>
<!-- Node11 -->
<g id="Node000011" class="node">
<title>Node11</title>
<g id="a_Node000011"><a xlink:href="classTmc9660Handler.html#a85be9cd2e065b83c7abb36cb70fa6c67" target="_top" xlink:title="Get the TMC9660 driver instance connected via SPI (nullptr if using UART).">
<polygon fill="white" stroke="#666666" points="375,-130 210,-130 210,-111 375,-111 375,-130"/>
<text text-anchor="middle" x="292.5" y="-118" font-family="Helvetica,sans-Serif" font-size="10.00">Tmc9660Handler::driverViaSpi</text>
</a>
</g>
</g>
<!-- Node4&#45;&gt;Node11 -->
<g id="edge10_Node000004_Node000011" class="edge">
<title>Node4&#45;&gt;Node11</title>
<g id="a_edge10_Node000004_Node000011"><a xlink:title=" ">
<path fill="none" stroke="#63b8ff" d="M443.5,-94.75C413.37,-99.92 378.01,-105.99 349.18,-110.94"/>
<polygon fill="#63b8ff" stroke="#63b8ff" points="444.24,-98.17 453.5,-93.03 443.06,-91.27 444.24,-98.17"/>
</a>
</g>
</g>
<!-- Node15 -->
<g id="Node000015" class="node">
<title>Node15</title>
<g id="a_Node000015"><a xlink:href="classTmc9660Handler.html#ac4f303f9e7be9cb737a667dd5d85dd3a" target="_top" xlink:title="Get the TMC9660 driver instance connected via UART (nullptr if using SPI).">
<polygon fill="white" stroke="#666666" points="378,-93 207,-93 207,-74 378,-74 378,-93"/>
<text text-anchor="middle" x="292.5" y="-81" font-family="Helvetica,sans-Serif" font-size="10.00">Tmc9660Handler::driverViaUart</text>
</a>
</g>
</g>
<!-- Node4&#45;&gt;Node15 -->
<g id="edge14_Node000004_Node000015" class="edge">
<title>Node4&#45;&gt;Node15</title>
<g id="a_edge14_Node000004_Node000015"><a xlink:title=" ">
<path fill="none" stroke="#63b8ff" d="M406.22,-83.5C396.85,-83.5 387.43,-83.5 378.24,-83.5"/>
<polygon fill="#63b8ff" stroke="#63b8ff" points="406.36,-87 416.36,-83.5 406.36,-80 406.36,-87"/>
</a>
</g>
</g>
<!-- Node17 -->
<g id="Node000017" class="node">
<title>Node17</title>
<g id="a_Node000017"><a xlink:href="classTmc9660Handler.html#acf7d1583239c9f767f82b42fc03b56cf" target="_top" xlink:title="Get a reference to the GPIO wrapper for a TMC9660 internal GPIO pin.">
<polygon fill="white" stroke="#666666" points="356,-56 229,-56 229,-37 356,-37 356,-56"/>
<text text-anchor="middle" x="292.5" y="-44" font-family="Helvetica,sans-Serif" font-size="10.00">Tmc9660Handler::gpio</text>
</a>
</g>
</g>
<!-- Node4&#45;&gt;Node17 -->
<g id="edge18_Node000004_Node000017" class="edge">
<title>Node4&#45;&gt;Node17</title>
<g id="a_edge18_Node000004_Node000017"><a xlink:title=" ">
<path fill="none" stroke="#63b8ff" d="M443.5,-72.25C413.37,-67.08 378.01,-61.01 349.18,-56.06"/>
<polygon fill="#63b8ff" stroke="#63b8ff" points="443.06,-75.73 453.5,-73.97 444.24,-68.83 443.06,-75.73"/>
</a>
</g>
</g>
<!-- Node18 -->
<g id="Node000018" class="node">
<title>Node18</title>
<g id="a_Node000018"><a xlink:href="classTmc9660Handler.html#a393382194d0602e7aa02da6a8fd7a20a" target="_top" xlink:title="Get a reference to the Temperature wrapper.">
<polygon fill="white" stroke="#666666" points="376,-19 209,-19 209,0 376,0 376,-19"/>
<text text-anchor="middle" x="292.5" y="-7" font-family="Helvetica,sans-Serif" font-size="10.00">Tmc9660Handler::temperature</text>
</a>
</g>
</g>
<!-- Node4&#45;&gt;Node18 -->
<g id="edge19_Node000004_Node000018" class="edge">
<title>Node4&#45;&gt;Node18</title>
<g id="a_edge19_Node000004_Node000018"><a xlink:title=" ">
<path fill="none" stroke="#63b8ff" d="M427.25,-70.58C422.66,-68.81 418.21,-66.79 414,-64.5 393.85,-53.54 398.09,-38.59 378,-27.5 371.83,-24.09 365.07,-21.33 358.16,-19.09"/>
<polygon fill="#63b8ff" stroke="#63b8ff" points="426.22,-73.93 436.81,-73.89 428.51,-67.31 426.22,-73.93"/>
</a>
</g>
</g>
<!-- Node6 -->
<g id="Node000006" class="node">
<title>Node6</title>
<g id="a_Node000006"><a xlink:href="classTmc9660AdcWrapper.html#a9d61893186aaa1d768cf61038ab285cb" target="_top" xlink:title=" ">
<polygon fill="white" stroke="#666666" points="149,-311.5 22,-311.5 22,-281.5 149,-281.5 149,-311.5"/>
<text text-anchor="start" x="30" y="-299.5" font-family="Helvetica,sans-Serif" font-size="10.00">Tmc9660AdcWrapper::</text>
<text text-anchor="middle" x="85.5" y="-288.5" font-family="Helvetica,sans-Serif" font-size="10.00">Deinitialize</text>
</a>
</g>
</g>
<!-- Node5&#45;&gt;Node6 -->
<g id="edge5_Node000005_Node000006" class="edge">
<title>Node5&#45;&gt;Node6</title>
<g id="a_edge5_Node000005_Node000006"><a xlink:title=" ">
<path fill="none" stroke="#63b8ff" d="M220.68,-280.79C197.42,-283.51 171.76,-286.52 149.15,-289.17"/>
<polygon fill="#63b8ff" stroke="#63b8ff" points="221.3,-284.24 230.83,-279.6 220.49,-277.29 221.3,-284.24"/>
</a>
</g>
</g>
<!-- Node7 -->
<g id="Node000007" class="node">
<title>Node7</title>
<g id="a_Node000007"><a xlink:href="classTmc9660AdcWrapper.html#a7f754c5432b29313fb09f3cc353a4e6f" target="_top" xlink:title=" ">
<polygon fill="white" stroke="#666666" points="149,-263.5 22,-263.5 22,-233.5 149,-233.5 149,-263.5"/>
<text text-anchor="start" x="30" y="-251.5" font-family="Helvetica,sans-Serif" font-size="10.00">Tmc9660AdcWrapper::</text>
<text text-anchor="middle" x="85.5" y="-240.5" font-family="Helvetica,sans-Serif" font-size="10.00">GetMaxChannels</text>
</a>
</g>
</g>
<!-- Node5&#45;&gt;Node7 -->
<g id="edge6_Node000005_Node000007" class="edge">
<title>Node5&#45;&gt;Node7</title>
<g id="a_edge6_Node000005_Node000007"><a xlink:title=" ">
<path fill="none" stroke="#63b8ff" d="M220.68,-264.21C197.42,-261.49 171.76,-258.48 149.15,-255.83"/>
<polygon fill="#63b8ff" stroke="#63b8ff" points="220.49,-267.71 230.83,-265.4 221.3,-260.76 220.49,-267.71"/>
</a>
</g>
</g>
<!-- Node8 -->
<g id="Node000008" class="node">
<title>Node8</title>
<g id="a_Node000008"><a xlink:href="classTmc9660AdcWrapper.html#aebe0e2cd94c5db2d70ef05c5cffd1913" target="_top" xlink:title=" ">
<polygon fill="white" stroke="#666666" points="149,-215.5 22,-215.5 22,-185.5 149,-185.5 149,-215.5"/>
<text text-anchor="start" x="30" y="-203.5" font-family="Helvetica,sans-Serif" font-size="10.00">Tmc9660AdcWrapper::</text>
<text text-anchor="middle" x="85.5" y="-192.5" font-family="Helvetica,sans-Serif" font-size="10.00">Initialize</text>
</a>
</g>
</g>
<!-- Node5&#45;&gt;Node8 -->
<g id="edge7_Node000005_Node000008" class="edge">
<title>Node5&#45;&gt;Node8</title>
<g id="a_edge7_Node000005_Node000008"><a xlink:title=" ">
<path fill="none" stroke="#63b8ff" d="M260.19,-259C236.06,-248.85 201.73,-234.95 171,-224.5 161.9,-221.41 152.17,-218.38 142.66,-215.58"/>
<polygon fill="#63b8ff" stroke="#63b8ff" points="258.97,-262.29 269.54,-262.97 261.7,-255.84 258.97,-262.29"/>
</a>
</g>
</g>
<!-- Node9 -->
<g id="Node000009" class="node">
<title>Node9</title>
<g id="a_Node000009"><a xlink:href="classTmc9660AdcWrapper.html#a3a7e9bf27e3cf27497ecbed63209fbdf" target="_top" xlink:title=" ">
<polygon fill="white" stroke="#666666" points="149,-407.5 22,-407.5 22,-377.5 149,-377.5 149,-407.5"/>
<text text-anchor="start" x="30" y="-395.5" font-family="Helvetica,sans-Serif" font-size="10.00">Tmc9660AdcWrapper::</text>
<text text-anchor="middle" x="85.5" y="-384.5" font-family="Helvetica,sans-Serif" font-size="10.00">ResetDiagnostics</text>
</a>
</g>
</g>
<!-- Node5&#45;&gt;Node9 -->
<g id="edge8_Node000005_Node000009" class="edge">
<title>Node5&#45;&gt;Node9</title>
<g id="a_edge8_Node000005_Node000009"><a xlink:title=" ">
<path fill="none" stroke="#63b8ff" d="M274.95,-289.31C253.03,-310.66 212.32,-347.27 171,-368.5 164.22,-371.99 156.86,-375.02 149.41,-377.66"/>
<polygon fill="#63b8ff" stroke="#63b8ff" points="277.49,-291.72 282.14,-282.19 272.57,-286.74 277.49,-291.72"/>
</a>
</g>
</g>
<!-- Node10 -->
<g id="Node000010" class="node">
<title>Node10</title>
<g id="a_Node000010"><a xlink:href="classTmc9660AdcWrapper.html#abccc374da45807cc0d2cf7ddedfd88bc" target="_top" xlink:title=" ">
<polygon fill="white" stroke="#666666" points="149,-359.5 22,-359.5 22,-329.5 149,-329.5 149,-359.5"/>
<text text-anchor="start" x="30" y="-347.5" font-family="Helvetica,sans-Serif" font-size="10.00">Tmc9660AdcWrapper::</text>
<text text-anchor="middle" x="85.5" y="-336.5" font-family="Helvetica,sans-Serif" font-size="10.00">ResetStatistics</text>
</a>
</g>
</g>
<!-- Node5&#45;&gt;Node10 -->
<g id="edge9_Node000005_Node000010" class="edge">
<title>Node5&#45;&gt;Node10</title>
<g id="a_edge9_Node000005_Node000010"><a xlink:title=" ">
<path fill="none" stroke="#63b8ff" d="M260.19,-286C236.06,-296.15 201.73,-310.05 171,-320.5 161.9,-323.59 152.17,-326.62 142.66,-329.42"/>
<polygon fill="#63b8ff" stroke="#63b8ff" points="261.7,-289.16 269.54,-282.03 258.97,-282.71 261.7,-289.16"/>
</a>
</g>
</g>
<!-- Node12 -->
<g id="Node000012" class="node">
<title>Node12</title>
<g id="a_Node000012"><a xlink:href="classTmc9660Handler.html#ad8946c2dd3a3d5e26620c514988fa2df" target="_top" xlink:title="Const version of driverViaSpi().">
<polygon fill="white" stroke="#666666" points="168,-167 3,-167 3,-148 168,-148 168,-167"/>
<text text-anchor="middle" x="85.5" y="-155" font-family="Helvetica,sans-Serif" font-size="10.00">Tmc9660Handler::driverViaSpi</text>
</a>
</g>
</g>
<!-- Node11&#45;&gt;Node12 -->
<g id="edge11_Node000011_Node000012" class="edge">
<title>Node11&#45;&gt;Node12</title>
<g id="a_edge11_Node000011_Node000012"><a xlink:title=" ">
<path fill="none" stroke="#63b8ff" d="M228.82,-131.81C200.24,-136.97 166.77,-143.01 139.47,-147.94"/>
<polygon fill="#63b8ff" stroke="#63b8ff" points="229.49,-135.25 238.71,-130.03 228.24,-128.36 229.49,-135.25"/>
</a>
</g>
</g>
<!-- Node13 -->
<g id="Node000013" class="node">
<title>Node13</title>
<g id="a_Node000013"><a xlink:href="classTmc9660Handler.html#ae1d6f6676180aff28d02dcb954917b79" target="_top" xlink:title="Const overload of GetDriver().">
<polygon fill="white" stroke="#666666" points="162,-93 9,-93 9,-74 162,-74 162,-93"/>
<text text-anchor="middle" x="85.5" y="-81" font-family="Helvetica,sans-Serif" font-size="10.00">Tmc9660Handler::GetDriver</text>
</a>
</g>
</g>
<!-- Node11&#45;&gt;Node13 -->
<g id="edge12_Node000011_Node000013" class="edge">
<title>Node11&#45;&gt;Node13</title>
<g id="a_edge12_Node000011_Node000013"><a xlink:title=" ">
<path fill="none" stroke="#63b8ff" d="M228.82,-109.19C200.24,-104.03 166.77,-97.99 139.47,-93.06"/>
<polygon fill="#63b8ff" stroke="#63b8ff" points="228.24,-112.64 238.71,-110.97 229.49,-105.75 228.24,-112.64"/>
</a>
</g>
</g>
<!-- Node14 -->
<g id="Node000014" class="node">
<title>Node14</title>
<g id="a_Node000014"><a xlink:href="classTmc9660Handler.html#ac29a3cfd55b2186f357c8b2f56d16bce" target="_top" xlink:title="Get the active driver pointer without requiring visitor usage.">
<polygon fill="white" stroke="#666666" points="162,-130 9,-130 9,-111 162,-111 162,-130"/>
<text text-anchor="middle" x="85.5" y="-118" font-family="Helvetica,sans-Serif" font-size="10.00">Tmc9660Handler::GetDriver</text>
</a>
</g>
</g>
<!-- Node11&#45;&gt;Node14 -->
<g id="edge13_Node000011_Node000014" class="edge">
<title>Node11&#45;&gt;Node14</title>
<g id="a_edge13_Node000011_Node000014"><a xlink:title=" ">
<path fill="none" stroke="#63b8ff" d="M199.85,-120.5C187.25,-120.5 174.44,-120.5 162.17,-120.5"/>
<polygon fill="#63b8ff" stroke="#63b8ff" points="199.89,-124 209.89,-120.5 199.89,-117 199.89,-124"/>
</a>
</g>
</g>
<!-- Node15&#45;&gt;Node13 -->
<g id="edge16_Node000015_Node000013" class="edge">
<title>Node15&#45;&gt;Node13</title>
<g id="a_edge16_Node000015_Node000013"><a xlink:title=" ">
<path fill="none" stroke="#63b8ff" d="M196.75,-83.5C185.1,-83.5 173.32,-83.5 162.01,-83.5"/>
<polygon fill="#63b8ff" stroke="#63b8ff" points="196.94,-87 206.94,-83.5 196.94,-80 196.94,-87"/>
</a>
</g>
</g>
<!-- Node15&#45;&gt;Node14 -->
<g id="edge17_Node000015_Node000014" class="edge">
<title>Node15&#45;&gt;Node14</title>
<g id="a_edge17_Node000015_Node000014"><a xlink:title=" ">
<path fill="none" stroke="#63b8ff" d="M228.82,-94.81C200.24,-99.97 166.77,-106.01 139.47,-110.94"/>
<polygon fill="#63b8ff" stroke="#63b8ff" points="229.49,-98.25 238.71,-93.03 228.24,-91.36 229.49,-98.25"/>
</a>
</g>
</g>
<!-- Node16 -->
<g id="Node000016" class="node">
<title>Node16</title>
<g id="a_Node000016"><a xlink:href="classTmc9660Handler.html#a4eb74918e10999d77de25728b19542cf" target="_top" xlink:title="Const version of driverViaUart().">
<polygon fill="white" stroke="#666666" points="171,-56 0,-56 0,-37 171,-37 171,-56"/>
<text text-anchor="middle" x="85.5" y="-44" font-family="Helvetica,sans-Serif" font-size="10.00">Tmc9660Handler::driverViaUart</text>
</a>
</g>
</g>
<!-- Node15&#45;&gt;Node16 -->
<g id="edge15_Node000015_Node000016" class="edge">
<title>Node15&#45;&gt;Node16</title>
<g id="a_edge15_Node000015_Node000016"><a xlink:title=" ">
<path fill="none" stroke="#63b8ff" d="M228.82,-72.19C200.24,-67.03 166.77,-60.99 139.47,-56.06"/>
<polygon fill="#63b8ff" stroke="#63b8ff" points="228.24,-75.64 238.71,-73.97 229.49,-68.75 228.24,-75.64"/>
</a>
</g>
</g>
</g>
</svg>
