<?xml version="1.0" encoding="UTF-8" standalone="no"?>
<!DOCTYPE svg PUBLIC "-//W3C//DTD SVG 1.1//EN"
 "http://www.w3.org/Graphics/SVG/1.1/DTD/svg11.dtd">
<!-- Generated by graphviz version 2.43.0 (0)
 -->
<!-- Title: Tmc9660Handler::EnterBootloaderMode Pages: 1 -->
<svg width="1338pt" height="115pt"
 viewBox="0.00 0.00 1338.00 115.00" xmlns="http://www.w3.org/2000/svg" xmlns:xlink="http://www.w3.org/1999/xlink">
<g id="graph0" class="graph" transform="scale(1 1) rotate(0) translate(4 111)">
<title>Tmc9660Handler::EnterBootloaderMode</title>
<!-- Node1 -->
<g id="Node000001" class="node">
<title>Node1</title>
<g id="a_Node000001"><a xlink:title="Command the TMC9660 to leave parameter mode and enter bootloader mode.">
<polygon fill="#999999" stroke="#666666" points="212,-57 0,-57 0,-38 212,-38 212,-57"/>
<text text-anchor="middle" x="106" y="-45" font-family="Helvetica,sans-Serif" font-size="10.00">Tmc9660Handler::EnterBootloaderMode</text>
</a>
</g>
</g>
<!-- Node2 -->
<g id="Node000002" class="node">
<title>Node2</title>
<g id="a_Node000002"><a xlink:href="classTmc9660Handler.html#a5a279ae9d4b5a8e0d71cb24577ad88ea" target="_top" xlink:title="Ensure driver is initialized (lazy init entrypoint).">
<polygon fill="white" stroke="#666666" points="831,-48 644,-48 644,-29 831,-29 831,-48"/>
<text text-anchor="middle" x="737.5" y="-36" font-family="Helvetica,sans-Serif" font-size="10.00">Tmc9660Handler::EnsureInitialized</text>
</a>
</g>
</g>
<!-- Node1&#45;&gt;Node2 -->
<g id="edge1_Node000001_Node000002" class="edge">
<title>Node1&#45;&gt;Node2</title>
<g id="a_edge1_Node000001_Node000002"><a xlink:title=" ">
<path fill="none" stroke="#63b8ff" d="M158.85,-57.04C250.11,-72.35 445.18,-98.47 608,-75.5 640.47,-70.92 676.23,-60.13 701.76,-51.38"/>
<polygon fill="#63b8ff" stroke="#63b8ff" points="703.08,-54.62 711.36,-48.02 700.76,-48.02 703.08,-54.62"/>
</a>
</g>
</g>
<!-- Node10 -->
<g id="Node000010" class="node">
<title>Node10</title>
<g id="a_Node000010"><a xlink:href="classTmc9660Handler.html#a393382194d0602e7aa02da6a8fd7a20a" target="_top" xlink:title="Get a reference to the Temperature wrapper.">
<polygon fill="white" stroke="#666666" points="608,-48 441,-48 441,-29 608,-29 608,-48"/>
<text text-anchor="middle" x="524.5" y="-36" font-family="Helvetica,sans-Serif" font-size="10.00">Tmc9660Handler::temperature</text>
</a>
</g>
</g>
<!-- Node1&#45;&gt;Node10 -->
<g id="edge11_Node000001_Node000010" class="edge">
<title>Node1&#45;&gt;Node10</title>
<g id="a_edge11_Node000001_Node000010"><a xlink:title=" ">
<path fill="none" stroke="#63b8ff" d="M212.1,-45.23C279.35,-43.78 365.81,-41.91 430.55,-40.51"/>
<polygon fill="#63b8ff" stroke="#63b8ff" points="430.82,-44 440.75,-40.29 430.67,-37.01 430.82,-44"/>
</a>
</g>
</g>
<!-- Node11 -->
<g id="Node000011" class="node">
<title>Node11</title>
<g id="a_Node000011"><a xlink:href="classTmc9660Handler.html#a4360829b58deda85e9da4b9cebee96f0" target="_top" xlink:title="Execute a function on the underlying typed TMC9660 driver.">
<polygon fill="white" stroke="#666666" points="405,-19 248,-19 248,0 405,0 405,-19"/>
<text text-anchor="middle" x="326.5" y="-7" font-family="Helvetica,sans-Serif" font-size="10.00">Tmc9660Handler::visitDriver</text>
</a>
</g>
</g>
<!-- Node1&#45;&gt;Node11 -->
<g id="edge14_Node000001_Node000011" class="edge">
<title>Node1&#45;&gt;Node11</title>
<g id="a_edge14_Node000001_Node000011"><a xlink:title=" ">
<path fill="none" stroke="#63b8ff" d="M161.85,-37.96C191.85,-32.74 229.2,-26.25 260.64,-20.78"/>
<polygon fill="#63b8ff" stroke="#63b8ff" points="261.37,-24.21 270.62,-19.04 260.17,-17.31 261.37,-24.21"/>
</a>
</g>
</g>
<!-- Node3 -->
<g id="Node000003" class="node">
<title>Node3</title>
<g id="a_Node000003"><a xlink:href="classTmc9660Handler.html#adc564847f8ae26c47412aaee0758991c" target="_top" xlink:title="Initialize the TMC9660 device.">
<polygon fill="white" stroke="#666666" points="1015,-70 867,-70 867,-51 1015,-51 1015,-70"/>
<text text-anchor="middle" x="941" y="-58" font-family="Helvetica,sans-Serif" font-size="10.00">Tmc9660Handler::Initialize</text>
</a>
</g>
</g>
<!-- Node2&#45;&gt;Node3 -->
<g id="edge2_Node000002_Node000003" class="edge">
<title>Node2&#45;&gt;Node3</title>
<g id="a_edge2_Node000002_Node000003"><a xlink:title=" ">
<path fill="none" stroke="#63b8ff" d="M825.71,-48.02C836,-49.15 846.48,-50.29 856.72,-51.41"/>
<polygon fill="#63b8ff" stroke="#63b8ff" points="856.53,-54.91 866.85,-52.51 857.29,-47.95 856.53,-54.91"/>
</a>
</g>
</g>
<!-- Node9 -->
<g id="Node000009" class="node">
<title>Node9</title>
<g id="a_Node000009"><a xlink:href="classTmc9660Handler.html#a13db97d201a287d8aa60384e04070b9f" target="_top" xlink:title="Check if the TMC9660 driver has been initialized and is ready.">
<polygon fill="white" stroke="#666666" points="1013,-32.5 869,-32.5 869,-2.5 1013,-2.5 1013,-32.5"/>
<text text-anchor="start" x="877" y="-20.5" font-family="Helvetica,sans-Serif" font-size="10.00">Tmc9660Handler::IsDriver</text>
<text text-anchor="middle" x="941" y="-9.5" font-family="Helvetica,sans-Serif" font-size="10.00">Ready</text>
</a>
</g>
</g>
<!-- Node2&#45;&gt;Node9 -->
<g id="edge10_Node000002_Node000009" class="edge">
<title>Node2&#45;&gt;Node9</title>
<g id="a_edge10_Node000002_Node000009"><a xlink:title=" ">
<path fill="none" stroke="#63b8ff" d="M829.82,-28.98C839.45,-27.98 849.2,-26.96 858.71,-25.97"/>
<polygon fill="#63b8ff" stroke="#63b8ff" points="859.34,-29.43 868.92,-24.91 858.61,-22.46 859.34,-29.43"/>
</a>
</g>
</g>
<!-- Node4 -->
<g id="Node000004" class="node">
<title>Node4</title>
<g id="a_Node000004"><a xlink:href="classLogger.html#adce17848a5844e053bfd314863dc1404" target="_top" xlink:title="Log error message.">
<polygon fill="white" stroke="#666666" points="1147.5,-70 1068.5,-70 1068.5,-51 1147.5,-51 1147.5,-70"/>
<text text-anchor="middle" x="1108" y="-58" font-family="Helvetica,sans-Serif" font-size="10.00">Logger::Error</text>
</a>
</g>
</g>
<!-- Node3&#45;&gt;Node4 -->
<g id="edge3_Node000003_Node000004" class="edge">
<title>Node3&#45;&gt;Node4</title>
<g id="a_edge3_Node000003_Node000004"><a xlink:title=" ">
<path fill="none" stroke="#63b8ff" d="M1015.33,-60.5C1029.73,-60.5 1044.5,-60.5 1057.87,-60.5"/>
<polygon fill="#63b8ff" stroke="#63b8ff" points="1058.26,-64 1068.26,-60.5 1058.26,-57 1058.26,-64"/>
</a>
</g>
</g>
<!-- Node7 -->
<g id="Node000007" class="node">
<title>Node7</title>
<g id="a_Node000007"><a xlink:href="classLogger.html#a5789d11f8f1356e2192c0023a089cbc4" target="_top" xlink:title="Get singleton instance.">
<polygon fill="white" stroke="#666666" points="1165,-33 1051,-33 1051,-14 1165,-14 1165,-33"/>
<text text-anchor="middle" x="1108" y="-21" font-family="Helvetica,sans-Serif" font-size="10.00">Logger::GetInstance</text>
</a>
</g>
</g>
<!-- Node3&#45;&gt;Node7 -->
<g id="edge6_Node000003_Node000007" class="edge">
<title>Node3&#45;&gt;Node7</title>
<g id="a_edge6_Node000003_Node000007"><a xlink:title=" ">
<path fill="none" stroke="#63b8ff" d="M984.49,-50.97C1005.87,-46.18 1031.97,-40.32 1054.58,-35.25"/>
<polygon fill="#63b8ff" stroke="#63b8ff" points="1055.37,-38.66 1064.37,-33.06 1053.84,-31.83 1055.37,-38.66"/>
</a>
</g>
</g>
<!-- Node8 -->
<g id="Node000008" class="node">
<title>Node8</title>
<g id="a_Node000008"><a xlink:href="classLogger.html#a4681229c521795685fc14f6b55c82300" target="_top" xlink:title="Log info message.">
<polygon fill="white" stroke="#666666" points="1145,-107 1071,-107 1071,-88 1145,-88 1145,-107"/>
<text text-anchor="middle" x="1108" y="-95" font-family="Helvetica,sans-Serif" font-size="10.00">Logger::Info</text>
</a>
</g>
</g>
<!-- Node3&#45;&gt;Node8 -->
<g id="edge7_Node000003_Node000008" class="edge">
<title>Node3&#45;&gt;Node8</title>
<g id="a_edge7_Node000003_Node000008"><a xlink:title=" ">
<path fill="none" stroke="#63b8ff" d="M984.49,-70.03C1007.89,-75.27 1036.94,-81.79 1060.89,-87.16"/>
<polygon fill="#63b8ff" stroke="#63b8ff" points="1060.28,-90.61 1070.8,-89.38 1061.81,-83.78 1060.28,-90.61"/>
</a>
</g>
</g>
<!-- Node5 -->
<g id="Node000005" class="node">
<title>Node5</title>
<g id="a_Node000005"><a xlink:href="classLogger.html#af9e84e0ff6bd538e4f9ed8dcebc3e2f0" target="_top" xlink:title="Check if log level is enabled for tag.">
<polygon fill="white" stroke="#666666" points="1330,-107 1201,-107 1201,-88 1330,-88 1330,-107"/>
<text text-anchor="middle" x="1265.5" y="-95" font-family="Helvetica,sans-Serif" font-size="10.00">Logger::IsLevelEnabled</text>
</a>
</g>
</g>
<!-- Node4&#45;&gt;Node5 -->
<g id="edge4_Node000004_Node000005" class="edge">
<title>Node4&#45;&gt;Node5</title>
<g id="a_edge4_Node000004_Node000005"><a xlink:title=" ">
<path fill="none" stroke="#63b8ff" d="M1147.84,-69.74C1168.03,-74.55 1192.94,-80.47 1214.55,-85.61"/>
<polygon fill="#63b8ff" stroke="#63b8ff" points="1214,-89.08 1224.53,-87.99 1215.62,-82.27 1214,-89.08"/>
</a>
</g>
</g>
<!-- Node6 -->
<g id="Node000006" class="node">
<title>Node6</title>
<g id="a_Node000006"><a xlink:href="classLogger.html#a6adb205db597526fb91ad20067400394" target="_top" xlink:title="Internal logging method.">
<polygon fill="white" stroke="#666666" points="1320.5,-70 1210.5,-70 1210.5,-51 1320.5,-51 1320.5,-70"/>
<text text-anchor="middle" x="1265.5" y="-58" font-family="Helvetica,sans-Serif" font-size="10.00">Logger::LogInternal</text>
</a>
</g>
</g>
<!-- Node4&#45;&gt;Node6 -->
<g id="edge5_Node000004_Node000006" class="edge">
<title>Node4&#45;&gt;Node6</title>
<g id="a_edge5_Node000004_Node000006"><a xlink:title=" ">
<path fill="none" stroke="#63b8ff" d="M1147.84,-60.5C1163.63,-60.5 1182.31,-60.5 1200.03,-60.5"/>
<polygon fill="#63b8ff" stroke="#63b8ff" points="1200.33,-64 1210.33,-60.5 1200.33,-57 1200.33,-64"/>
</a>
</g>
</g>
<!-- Node8&#45;&gt;Node5 -->
<g id="edge8_Node000008_Node000005" class="edge">
<title>Node8&#45;&gt;Node5</title>
<g id="a_edge8_Node000008_Node000005"><a xlink:title=" ">
<path fill="none" stroke="#63b8ff" d="M1145.07,-97.5C1158.68,-97.5 1174.72,-97.5 1190.55,-97.5"/>
<polygon fill="#63b8ff" stroke="#63b8ff" points="1190.89,-101 1200.89,-97.5 1190.89,-94 1190.89,-101"/>
</a>
</g>
</g>
<!-- Node8&#45;&gt;Node6 -->
<g id="edge9_Node000008_Node000006" class="edge">
<title>Node8&#45;&gt;Node6</title>
<g id="a_edge9_Node000008_Node000006"><a xlink:title=" ">
<path fill="none" stroke="#63b8ff" d="M1145.07,-88.92C1165.78,-83.99 1192.09,-77.73 1214.74,-72.34"/>
<polygon fill="#63b8ff" stroke="#63b8ff" points="1215.61,-75.73 1224.53,-70.01 1213.99,-68.92 1215.61,-75.73"/>
</a>
</g>
</g>
<!-- Node10&#45;&gt;Node2 -->
<g id="edge12_Node000010_Node000002" class="edge">
<title>Node10&#45;&gt;Node2</title>
<g id="a_edge12_Node000010_Node000002"><a xlink:title=" ">
<path fill="none" stroke="#63b8ff" d="M608.29,-38.5C616.67,-38.5 625.25,-38.5 633.81,-38.5"/>
<polygon fill="#63b8ff" stroke="#63b8ff" points="633.83,-42 643.83,-38.5 633.83,-35 633.83,-42"/>
</a>
</g>
</g>
<!-- Node10&#45;&gt;Node10 -->
<g id="edge13_Node000010_Node000010" class="edge">
<title>Node10&#45;&gt;Node10</title>
<g id="a_edge13_Node000010_Node000010"><a xlink:title=" ">
<path fill="none" stroke="#63b8ff" d="M493.98,-48.08C479.14,-56.73 489.31,-66 524.5,-66 549.24,-66 561.62,-61.42 561.62,-55.69"/>
<polygon fill="#63b8ff" stroke="#63b8ff" points="564.22,-53.34 555.02,-48.08 558.93,-57.93 564.22,-53.34"/>
</a>
</g>
</g>
<!-- Node11&#45;&gt;Node2 -->
<g id="edge15_Node000011_Node000002" class="edge">
<title>Node11&#45;&gt;Node2</title>
<g id="a_edge15_Node000011_Node000002"><a xlink:title=" ">
<path fill="none" stroke="#63b8ff" d="M405.04,-9.95C461.43,-10.84 539.58,-13.24 608,-19.5 628.65,-21.39 651.05,-24.37 671.27,-27.42"/>
<polygon fill="#63b8ff" stroke="#63b8ff" points="670.9,-30.91 681.32,-28.97 671.97,-23.99 670.9,-30.91"/>
</a>
</g>
</g>
<!-- Node11&#45;&gt;Node10 -->
<g id="edge16_Node000011_Node000010" class="edge">
<title>Node11&#45;&gt;Node10</title>
<g id="a_edge16_Node000011_Node000010"><a xlink:title=" ">
<path fill="none" stroke="#63b8ff" d="M391.95,-19.04C410.2,-21.74 430.22,-24.7 449.02,-27.48"/>
<polygon fill="#63b8ff" stroke="#63b8ff" points="448.61,-30.96 459.01,-28.96 449.63,-24.03 448.61,-30.96"/>
</a>
</g>
</g>
</g>
</svg>
