<?xml version="1.0" encoding="UTF-8" standalone="no"?>
<!DOCTYPE svg PUBLIC "-//W3C//DTD SVG 1.1//EN"
 "http://www.w3.org/Graphics/SVG/1.1/DTD/svg11.dtd">
<!-- Generated by graphviz version 2.43.0 (0)
 -->
<!-- Title: Tle92466edHandler::DumpDiagnostics Pages: 1 -->
<svg width="762pt" height="138pt"
 viewBox="0.00 0.00 762.00 138.00" xmlns="http://www.w3.org/2000/svg" xmlns:xlink="http://www.w3.org/1999/xlink">
<g id="graph0" class="graph" transform="scale(1 1) rotate(0) translate(4 134)">
<title>Tle92466edHandler::DumpDiagnostics</title>
<!-- Node1 -->
<g id="Node000001" class="node">
<title>Node1</title>
<g id="a_Node000001"><a xlink:title="Dump diagnostics to logger.">
<polygon fill="#999999" stroke="#666666" points="118,-86.5 0,-86.5 0,-56.5 118,-56.5 118,-86.5"/>
<text text-anchor="start" x="8" y="-74.5" font-family="Helvetica,sans-Serif" font-size="10.00">Tle92466edHandler::</text>
<text text-anchor="middle" x="59" y="-63.5" font-family="Helvetica,sans-Serif" font-size="10.00">DumpDiagnostics</text>
</a>
</g>
</g>
<!-- Node2 -->
<g id="Node000002" class="node">
<title>Node2</title>
<g id="a_Node000002"><a xlink:href="classTle92466edHandler.html#a59ce7fd71a61c78bba4dc4a43c99e280" target="_top" xlink:title=" ">
<polygon fill="white" stroke="#666666" points="285,-86.5 154,-86.5 154,-56.5 285,-56.5 285,-86.5"/>
<text text-anchor="start" x="162" y="-74.5" font-family="Helvetica,sans-Serif" font-size="10.00">Tle92466edHandler::</text>
<text text-anchor="middle" x="219.5" y="-63.5" font-family="Helvetica,sans-Serif" font-size="10.00">EnsureInitializedLocked</text>
</a>
</g>
</g>
<!-- Node1&#45;&gt;Node2 -->
<g id="edge1_Node000001_Node000002" class="edge">
<title>Node1&#45;&gt;Node2</title>
<g id="a_edge1_Node000001_Node000002"><a xlink:title=" ">
<path fill="none" stroke="#63b8ff" d="M118.12,-71.5C126.5,-71.5 135.22,-71.5 143.87,-71.5"/>
<polygon fill="#63b8ff" stroke="#63b8ff" points="143.97,-75 153.97,-71.5 143.97,-68 143.97,-75"/>
</a>
</g>
</g>
<!-- Node6 -->
<g id="Node000006" class="node">
<title>Node6</title>
<g id="a_Node000006"><a xlink:href="classLogger.html#a5789d11f8f1356e2192c0023a089cbc4" target="_top" xlink:title="Get singleton instance.">
<polygon fill="white" stroke="#666666" points="589,-130 475,-130 475,-111 589,-111 589,-130"/>
<text text-anchor="middle" x="532" y="-118" font-family="Helvetica,sans-Serif" font-size="10.00">Logger::GetInstance</text>
</a>
</g>
</g>
<!-- Node1&#45;&gt;Node6 -->
<g id="edge15_Node000001_Node000006" class="edge">
<title>Node1&#45;&gt;Node6</title>
<g id="a_edge15_Node000001_Node000006"><a xlink:title=" ">
<path fill="none" stroke="#63b8ff" d="M112.87,-86.58C126.21,-89.95 140.55,-93.19 154,-95.5 261.6,-113.95 388.62,-118.97 464.35,-120.23"/>
<polygon fill="#63b8ff" stroke="#63b8ff" points="464.63,-123.74 474.68,-120.39 464.74,-116.74 464.63,-123.74"/>
</a>
</g>
</g>
<!-- Node10 -->
<g id="Node000010" class="node">
<title>Node10</title>
<g id="a_Node000010"><a xlink:href="Tle92466edHandler_8cpp.html#a5c86099f760a9845d5fa0e65f8b57fb5" target="_top" xlink:title=" ">
<polygon fill="white" stroke="#666666" points="252.5,-38 186.5,-38 186.5,-19 252.5,-19 252.5,-38"/>
<text text-anchor="middle" x="219.5" y="-26" font-family="Helvetica,sans-Serif" font-size="10.00">toChannel</text>
</a>
</g>
</g>
<!-- Node1&#45;&gt;Node10 -->
<g id="edge16_Node000001_Node000010" class="edge">
<title>Node1&#45;&gt;Node10</title>
<g id="a_edge16_Node000001_Node000010"><a xlink:title=" ">
<path fill="none" stroke="#63b8ff" d="M115.44,-56.46C135.56,-51 157.95,-44.93 176.71,-39.84"/>
<polygon fill="#63b8ff" stroke="#63b8ff" points="177.7,-43.2 186.43,-37.2 175.86,-36.44 177.7,-43.2"/>
</a>
</g>
</g>
<!-- Node3 -->
<g id="Node000003" class="node">
<title>Node3</title>
<g id="a_Node000003"><a xlink:href="classLogger.html#adce17848a5844e053bfd314863dc1404" target="_top" xlink:title="Log error message.">
<polygon fill="white" stroke="#666666" points="571.5,-19 492.5,-19 492.5,0 571.5,0 571.5,-19"/>
<text text-anchor="middle" x="532" y="-7" font-family="Helvetica,sans-Serif" font-size="10.00">Logger::Error</text>
</a>
</g>
</g>
<!-- Node2&#45;&gt;Node3 -->
<g id="edge2_Node000002_Node000003" class="edge">
<title>Node2&#45;&gt;Node3</title>
<g id="a_edge2_Node000002_Node000003"><a xlink:title=" ">
<path fill="none" stroke="#63b8ff" d="M261,-56.47C269.01,-53.31 277.31,-49.9 285,-46.5 301.36,-39.26 303.79,-33.39 321,-28.5 374.67,-13.24 438.88,-9.42 482.05,-8.82"/>
<polygon fill="#63b8ff" stroke="#63b8ff" points="482.31,-12.32 492.28,-8.74 482.25,-5.32 482.31,-12.32"/>
</a>
</g>
</g>
<!-- Node2&#45;&gt;Node6 -->
<g id="edge5_Node000002_Node000006" class="edge">
<title>Node2&#45;&gt;Node6</title>
<g id="a_edge5_Node000002_Node000006"><a xlink:title=" ">
<path fill="none" stroke="#63b8ff" d="M285.21,-81.71C337.89,-90.03 411.95,-101.71 464.98,-110.08"/>
<polygon fill="#63b8ff" stroke="#63b8ff" points="464.53,-113.55 474.96,-111.66 465.63,-106.64 464.53,-113.55"/>
</a>
</g>
</g>
<!-- Node7 -->
<g id="Node000007" class="node">
<title>Node7</title>
<g id="a_Node000007"><a xlink:href="classTle92466edHandler.html#a0883f87dfe49cce3abd5acfc8cb2176c" target="_top" xlink:title="Initialize driver (hardware reset + SPI init + enter config mode).">
<polygon fill="white" stroke="#666666" points="439,-67.5 321,-67.5 321,-37.5 439,-37.5 439,-67.5"/>
<text text-anchor="start" x="329" y="-55.5" font-family="Helvetica,sans-Serif" font-size="10.00">Tle92466edHandler::</text>
<text text-anchor="middle" x="380" y="-44.5" font-family="Helvetica,sans-Serif" font-size="10.00">Initialize</text>
</a>
</g>
</g>
<!-- Node2&#45;&gt;Node7 -->
<g id="edge6_Node000002_Node000007" class="edge">
<title>Node2&#45;&gt;Node7</title>
<g id="a_edge6_Node000002_Node000007"><a xlink:title=" ">
<path fill="none" stroke="#63b8ff" d="M285.43,-63.72C293.75,-62.72 302.3,-61.69 310.68,-60.69"/>
<polygon fill="#63b8ff" stroke="#63b8ff" points="311.28,-64.14 320.79,-59.48 310.44,-57.19 311.28,-64.14"/>
</a>
</g>
</g>
<!-- Node4 -->
<g id="Node000004" class="node">
<title>Node4</title>
<g id="a_Node000004"><a xlink:href="classLogger.html#af9e84e0ff6bd538e4f9ed8dcebc3e2f0" target="_top" xlink:title="Check if log level is enabled for tag.">
<polygon fill="white" stroke="#666666" points="754,-74 625,-74 625,-55 754,-55 754,-74"/>
<text text-anchor="middle" x="689.5" y="-62" font-family="Helvetica,sans-Serif" font-size="10.00">Logger::IsLevelEnabled</text>
</a>
</g>
</g>
<!-- Node3&#45;&gt;Node4 -->
<g id="edge3_Node000003_Node000004" class="edge">
<title>Node3&#45;&gt;Node4</title>
<g id="a_edge3_Node000003_Node000004"><a xlink:title=" ">
<path fill="none" stroke="#63b8ff" d="M565.58,-19.05C573.34,-21.57 581.53,-24.45 589,-27.5 605.56,-34.26 608.37,-38.91 625,-45.5 630.62,-47.73 636.61,-49.84 642.57,-51.79"/>
<polygon fill="#63b8ff" stroke="#63b8ff" points="641.94,-55.26 652.53,-54.92 644.04,-48.58 641.94,-55.26"/>
</a>
</g>
</g>
<!-- Node5 -->
<g id="Node000005" class="node">
<title>Node5</title>
<g id="a_Node000005"><a xlink:href="classLogger.html#a6adb205db597526fb91ad20067400394" target="_top" xlink:title="Internal logging method.">
<polygon fill="white" stroke="#666666" points="744.5,-37 634.5,-37 634.5,-18 744.5,-18 744.5,-37"/>
<text text-anchor="middle" x="689.5" y="-25" font-family="Helvetica,sans-Serif" font-size="10.00">Logger::LogInternal</text>
</a>
</g>
</g>
<!-- Node3&#45;&gt;Node5 -->
<g id="edge4_Node000003_Node000005" class="edge">
<title>Node3&#45;&gt;Node5</title>
<g id="a_edge4_Node000003_Node000005"><a xlink:title=" ">
<path fill="none" stroke="#63b8ff" d="M571.84,-14C587.63,-15.82 606.31,-17.99 624.03,-20.04"/>
<polygon fill="#63b8ff" stroke="#63b8ff" points="624,-23.56 634.33,-21.23 624.8,-16.6 624,-23.56"/>
</a>
</g>
</g>
<!-- Node7&#45;&gt;Node3 -->
<g id="edge7_Node000007_Node000003" class="edge">
<title>Node7&#45;&gt;Node3</title>
<g id="a_edge7_Node000007_Node000003"><a xlink:title=" ">
<path fill="none" stroke="#63b8ff" d="M433.46,-37.46C451.26,-32.36 470.92,-26.72 487.9,-21.85"/>
<polygon fill="#63b8ff" stroke="#63b8ff" points="488.91,-25.21 497.56,-19.09 486.98,-18.48 488.91,-25.21"/>
</a>
</g>
</g>
<!-- Node7&#45;&gt;Node6 -->
<g id="edge8_Node000007_Node000006" class="edge">
<title>Node7&#45;&gt;Node6</title>
<g id="a_edge8_Node000007_Node000006"><a xlink:title=" ">
<path fill="none" stroke="#63b8ff" d="M412.19,-67.64C420.93,-72 430.39,-76.84 439,-81.5 455.29,-90.31 458.08,-94.95 475,-102.5 479.04,-104.3 483.32,-106.01 487.65,-107.61"/>
<polygon fill="#63b8ff" stroke="#63b8ff" points="486.5,-110.91 497.09,-110.91 488.81,-104.31 486.5,-110.91"/>
</a>
</g>
</g>
<!-- Node8 -->
<g id="Node000008" class="node">
<title>Node8</title>
<g id="a_Node000008"><a xlink:href="classLogger.html#a4681229c521795685fc14f6b55c82300" target="_top" xlink:title="Log info message.">
<polygon fill="white" stroke="#666666" points="569,-56 495,-56 495,-37 569,-37 569,-56"/>
<text text-anchor="middle" x="532" y="-44" font-family="Helvetica,sans-Serif" font-size="10.00">Logger::Info</text>
</a>
</g>
</g>
<!-- Node7&#45;&gt;Node8 -->
<g id="edge9_Node000007_Node000008" class="edge">
<title>Node7&#45;&gt;Node8</title>
<g id="a_edge9_Node000007_Node000008"><a xlink:title=" ">
<path fill="none" stroke="#63b8ff" d="M439.42,-50.16C454.38,-49.56 470.27,-48.93 484.54,-48.36"/>
<polygon fill="#63b8ff" stroke="#63b8ff" points="484.75,-51.85 494.6,-47.96 484.47,-44.86 484.75,-51.85"/>
</a>
</g>
</g>
<!-- Node9 -->
<g id="Node000009" class="node">
<title>Node9</title>
<g id="a_Node000009"><a xlink:href="classLogger.html#aaa95ffa14d07a965d4a85bdec82cba26" target="_top" xlink:title="Log warning message.">
<polygon fill="white" stroke="#666666" points="572,-93 492,-93 492,-74 572,-74 572,-93"/>
<text text-anchor="middle" x="532" y="-81" font-family="Helvetica,sans-Serif" font-size="10.00">Logger::Warn</text>
</a>
</g>
</g>
<!-- Node7&#45;&gt;Node9 -->
<g id="edge12_Node000007_Node000009" class="edge">
<title>Node7&#45;&gt;Node9</title>
<g id="a_edge12_Node000007_Node000009"><a xlink:title=" ">
<path fill="none" stroke="#63b8ff" d="M439.42,-64.57C453.45,-67.47 468.29,-70.54 481.85,-73.34"/>
<polygon fill="#63b8ff" stroke="#63b8ff" points="481.43,-76.83 491.94,-75.43 482.85,-69.98 481.43,-76.83"/>
</a>
</g>
</g>
<!-- Node8&#45;&gt;Node4 -->
<g id="edge10_Node000008_Node000004" class="edge">
<title>Node8&#45;&gt;Node4</title>
<g id="a_edge10_Node000008_Node000004"><a xlink:title=" ">
<path fill="none" stroke="#63b8ff" d="M569.07,-50.67C582.68,-52.25 598.72,-54.11 614.55,-55.94"/>
<polygon fill="#63b8ff" stroke="#63b8ff" points="614.55,-59.46 624.89,-57.14 615.36,-52.51 614.55,-59.46"/>
</a>
</g>
</g>
<!-- Node8&#45;&gt;Node5 -->
<g id="edge11_Node000008_Node000005" class="edge">
<title>Node8&#45;&gt;Node5</title>
<g id="a_edge11_Node000008_Node000005"><a xlink:title=" ">
<path fill="none" stroke="#63b8ff" d="M569.07,-42.09C585.49,-40.09 605.44,-37.65 624.3,-35.34"/>
<polygon fill="#63b8ff" stroke="#63b8ff" points="624.83,-38.81 634.33,-34.12 623.98,-31.86 624.83,-38.81"/>
</a>
</g>
</g>
<!-- Node9&#45;&gt;Node4 -->
<g id="edge13_Node000009_Node000004" class="edge">
<title>Node9&#45;&gt;Node4</title>
<g id="a_edge13_Node000009_Node000004"><a xlink:title=" ">
<path fill="none" stroke="#63b8ff" d="M572.24,-78.71C585.18,-77.12 600.02,-75.31 614.68,-73.52"/>
<polygon fill="#63b8ff" stroke="#63b8ff" points="615.27,-76.97 624.77,-72.29 614.42,-70.03 615.27,-76.97"/>
</a>
</g>
</g>
<!-- Node9&#45;&gt;Node5 -->
<g id="edge14_Node000009_Node000005" class="edge">
<title>Node9&#45;&gt;Node5</title>
<g id="a_edge14_Node000009_Node000005"><a xlink:title=" ">
<path fill="none" stroke="#63b8ff" d="M566.27,-73.99C573.84,-71.5 581.79,-68.63 589,-65.5 605.79,-58.22 608.08,-52.49 625,-45.5 629.71,-43.55 634.7,-41.74 639.73,-40.07"/>
<polygon fill="#63b8ff" stroke="#63b8ff" points="640.9,-43.38 649.4,-37.05 638.81,-36.7 640.9,-43.38"/>
</a>
</g>
</g>
</g>
</svg>
