<?xml version="1.0" encoding="UTF-8" standalone="no"?>
<!DOCTYPE svg PUBLIC "-//W3C//DTD SVG 1.1//EN"
 "http://www.w3.org/Graphics/SVG/1.1/DTD/svg11.dtd">
<!-- Generated by graphviz version 2.43.0 (0)
 -->
<!-- Title: Tmc9660Handler::Adc::ReadMultipleChannels Pages: 1 -->
<svg width="1065pt" height="113pt"
 viewBox="0.00 0.00 1065.00 112.50" xmlns="http://www.w3.org/2000/svg" xmlns:xlink="http://www.w3.org/1999/xlink">
<g id="graph0" class="graph" transform="scale(1 1) rotate(0) translate(4 108.5)">
<title>Tmc9660Handler::Adc::ReadMultipleChannels</title>
<!-- Node1 -->
<g id="Node000001" class="node">
<title>Node1</title>
<g id="a_Node000001"><a xlink:title="Read multiple channels in a batch.">
<polygon fill="#999999" stroke="#666666" points="132,-51 0,-51 0,-21 132,-21 132,-51"/>
<text text-anchor="start" x="8" y="-39" font-family="Helvetica,sans-Serif" font-size="10.00">Tmc9660Handler::Adc</text>
<text text-anchor="middle" x="66" y="-28" font-family="Helvetica,sans-Serif" font-size="10.00">::ReadMultipleChannels</text>
</a>
</g>
</g>
<!-- Node2 -->
<g id="Node000002" class="node">
<title>Node2</title>
<g id="a_Node000002"><a xlink:href="classTmc9660Handler.html#a393382194d0602e7aa02da6a8fd7a20a" target="_top" xlink:title="Get a reference to the Temperature wrapper.">
<polygon fill="white" stroke="#666666" points="335,-45.5 168,-45.5 168,-26.5 335,-26.5 335,-45.5"/>
<text text-anchor="middle" x="251.5" y="-33.5" font-family="Helvetica,sans-Serif" font-size="10.00">Tmc9660Handler::temperature</text>
</a>
</g>
</g>
<!-- Node1&#45;&gt;Node2 -->
<g id="edge1_Node000001_Node000002" class="edge">
<title>Node1&#45;&gt;Node2</title>
<g id="a_edge1_Node000001_Node000002"><a xlink:title=" ">
<path fill="none" stroke="#63b8ff" d="M132.21,-36C140.5,-36 149.11,-36 157.73,-36"/>
<polygon fill="#63b8ff" stroke="#63b8ff" points="157.84,-39.5 167.84,-36 157.84,-32.5 157.84,-39.5"/>
</a>
</g>
</g>
<!-- Node2&#45;&gt;Node2 -->
<g id="edge12_Node000002_Node000002" class="edge">
<title>Node2&#45;&gt;Node2</title>
<g id="a_edge12_Node000002_Node000002"><a xlink:title=" ">
<path fill="none" stroke="#63b8ff" d="M223.14,-45.58C209.34,-54.23 218.8,-63.5 251.5,-63.5 273.98,-63.5 285.48,-59.12 285.98,-53.57"/>
<polygon fill="#63b8ff" stroke="#63b8ff" points="288.72,-51.39 279.86,-45.58 283.16,-55.65 288.72,-51.39"/>
</a>
</g>
</g>
<!-- Node3 -->
<g id="Node000003" class="node">
<title>Node3</title>
<g id="a_Node000003"><a xlink:href="classTmc9660Handler.html#a5a279ae9d4b5a8e0d71cb24577ad88ea" target="_top" xlink:title="Ensure driver is initialized (lazy init entrypoint).">
<polygon fill="white" stroke="#666666" points="558,-45.5 371,-45.5 371,-26.5 558,-26.5 558,-45.5"/>
<text text-anchor="middle" x="464.5" y="-33.5" font-family="Helvetica,sans-Serif" font-size="10.00">Tmc9660Handler::EnsureInitialized</text>
</a>
</g>
</g>
<!-- Node2&#45;&gt;Node3 -->
<g id="edge2_Node000002_Node000003" class="edge">
<title>Node2&#45;&gt;Node3</title>
<g id="a_edge2_Node000002_Node000003"><a xlink:title=" ">
<path fill="none" stroke="#63b8ff" d="M335.29,-36C343.67,-36 352.25,-36 360.81,-36"/>
<polygon fill="#63b8ff" stroke="#63b8ff" points="360.83,-39.5 370.83,-36 360.83,-32.5 360.83,-39.5"/>
</a>
</g>
</g>
<!-- Node4 -->
<g id="Node000004" class="node">
<title>Node4</title>
<g id="a_Node000004"><a xlink:href="classTmc9660Handler.html#adc564847f8ae26c47412aaee0758991c" target="_top" xlink:title="Initialize the TMC9660 device.">
<polygon fill="white" stroke="#666666" points="742,-67.5 594,-67.5 594,-48.5 742,-48.5 742,-67.5"/>
<text text-anchor="middle" x="668" y="-55.5" font-family="Helvetica,sans-Serif" font-size="10.00">Tmc9660Handler::Initialize</text>
</a>
</g>
</g>
<!-- Node3&#45;&gt;Node4 -->
<g id="edge3_Node000003_Node000004" class="edge">
<title>Node3&#45;&gt;Node4</title>
<g id="a_edge3_Node000003_Node000004"><a xlink:title=" ">
<path fill="none" stroke="#63b8ff" d="M552.71,-45.52C563,-46.65 573.48,-47.79 583.72,-48.91"/>
<polygon fill="#63b8ff" stroke="#63b8ff" points="583.53,-52.41 593.85,-50.01 584.29,-45.45 583.53,-52.41"/>
</a>
</g>
</g>
<!-- Node10 -->
<g id="Node000010" class="node">
<title>Node10</title>
<g id="a_Node000010"><a xlink:href="classTmc9660Handler.html#a13db97d201a287d8aa60384e04070b9f" target="_top" xlink:title="Check if the TMC9660 driver has been initialized and is ready.">
<polygon fill="white" stroke="#666666" points="740,-30 596,-30 596,0 740,0 740,-30"/>
<text text-anchor="start" x="604" y="-18" font-family="Helvetica,sans-Serif" font-size="10.00">Tmc9660Handler::IsDriver</text>
<text text-anchor="middle" x="668" y="-7" font-family="Helvetica,sans-Serif" font-size="10.00">Ready</text>
</a>
</g>
</g>
<!-- Node3&#45;&gt;Node10 -->
<g id="edge11_Node000003_Node000010" class="edge">
<title>Node3&#45;&gt;Node10</title>
<g id="a_edge11_Node000003_Node000010"><a xlink:title=" ">
<path fill="none" stroke="#63b8ff" d="M556.82,-26.48C566.45,-25.48 576.2,-24.46 585.71,-23.47"/>
<polygon fill="#63b8ff" stroke="#63b8ff" points="586.34,-26.93 595.92,-22.41 585.61,-19.96 586.34,-26.93"/>
</a>
</g>
</g>
<!-- Node5 -->
<g id="Node000005" class="node">
<title>Node5</title>
<g id="a_Node000005"><a xlink:href="classLogger.html#adce17848a5844e053bfd314863dc1404" target="_top" xlink:title="Log error message.">
<polygon fill="white" stroke="#666666" points="874.5,-67.5 795.5,-67.5 795.5,-48.5 874.5,-48.5 874.5,-67.5"/>
<text text-anchor="middle" x="835" y="-55.5" font-family="Helvetica,sans-Serif" font-size="10.00">Logger::Error</text>
</a>
</g>
</g>
<!-- Node4&#45;&gt;Node5 -->
<g id="edge4_Node000004_Node000005" class="edge">
<title>Node4&#45;&gt;Node5</title>
<g id="a_edge4_Node000004_Node000005"><a xlink:title=" ">
<path fill="none" stroke="#63b8ff" d="M742.33,-58C756.73,-58 771.5,-58 784.87,-58"/>
<polygon fill="#63b8ff" stroke="#63b8ff" points="785.26,-61.5 795.26,-58 785.26,-54.5 785.26,-61.5"/>
</a>
</g>
</g>
<!-- Node8 -->
<g id="Node000008" class="node">
<title>Node8</title>
<g id="a_Node000008"><a xlink:href="classLogger.html#a5789d11f8f1356e2192c0023a089cbc4" target="_top" xlink:title="Get singleton instance.">
<polygon fill="white" stroke="#666666" points="892,-30.5 778,-30.5 778,-11.5 892,-11.5 892,-30.5"/>
<text text-anchor="middle" x="835" y="-18.5" font-family="Helvetica,sans-Serif" font-size="10.00">Logger::GetInstance</text>
</a>
</g>
</g>
<!-- Node4&#45;&gt;Node8 -->
<g id="edge7_Node000004_Node000008" class="edge">
<title>Node4&#45;&gt;Node8</title>
<g id="a_edge7_Node000004_Node000008"><a xlink:title=" ">
<path fill="none" stroke="#63b8ff" d="M711.49,-48.47C732.87,-43.68 758.97,-37.82 781.58,-32.75"/>
<polygon fill="#63b8ff" stroke="#63b8ff" points="782.37,-36.16 791.37,-30.56 780.84,-29.33 782.37,-36.16"/>
</a>
</g>
</g>
<!-- Node9 -->
<g id="Node000009" class="node">
<title>Node9</title>
<g id="a_Node000009"><a xlink:href="classLogger.html#a4681229c521795685fc14f6b55c82300" target="_top" xlink:title="Log info message.">
<polygon fill="white" stroke="#666666" points="872,-104.5 798,-104.5 798,-85.5 872,-85.5 872,-104.5"/>
<text text-anchor="middle" x="835" y="-92.5" font-family="Helvetica,sans-Serif" font-size="10.00">Logger::Info</text>
</a>
</g>
</g>
<!-- Node4&#45;&gt;Node9 -->
<g id="edge8_Node000004_Node000009" class="edge">
<title>Node4&#45;&gt;Node9</title>
<g id="a_edge8_Node000004_Node000009"><a xlink:title=" ">
<path fill="none" stroke="#63b8ff" d="M711.49,-67.53C734.89,-72.77 763.94,-79.29 787.89,-84.66"/>
<polygon fill="#63b8ff" stroke="#63b8ff" points="787.28,-88.11 797.8,-86.88 788.81,-81.28 787.28,-88.11"/>
</a>
</g>
</g>
<!-- Node6 -->
<g id="Node000006" class="node">
<title>Node6</title>
<g id="a_Node000006"><a xlink:href="classLogger.html#af9e84e0ff6bd538e4f9ed8dcebc3e2f0" target="_top" xlink:title="Check if log level is enabled for tag.">
<polygon fill="white" stroke="#666666" points="1057,-104.5 928,-104.5 928,-85.5 1057,-85.5 1057,-104.5"/>
<text text-anchor="middle" x="992.5" y="-92.5" font-family="Helvetica,sans-Serif" font-size="10.00">Logger::IsLevelEnabled</text>
</a>
</g>
</g>
<!-- Node5&#45;&gt;Node6 -->
<g id="edge5_Node000005_Node000006" class="edge">
<title>Node5&#45;&gt;Node6</title>
<g id="a_edge5_Node000005_Node000006"><a xlink:title=" ">
<path fill="none" stroke="#63b8ff" d="M874.84,-67.24C895.03,-72.05 919.94,-77.97 941.55,-83.11"/>
<polygon fill="#63b8ff" stroke="#63b8ff" points="941,-86.58 951.53,-85.49 942.62,-79.77 941,-86.58"/>
</a>
</g>
</g>
<!-- Node7 -->
<g id="Node000007" class="node">
<title>Node7</title>
<g id="a_Node000007"><a xlink:href="classLogger.html#a6adb205db597526fb91ad20067400394" target="_top" xlink:title="Internal logging method.">
<polygon fill="white" stroke="#666666" points="1047.5,-67.5 937.5,-67.5 937.5,-48.5 1047.5,-48.5 1047.5,-67.5"/>
<text text-anchor="middle" x="992.5" y="-55.5" font-family="Helvetica,sans-Serif" font-size="10.00">Logger::LogInternal</text>
</a>
</g>
</g>
<!-- Node5&#45;&gt;Node7 -->
<g id="edge6_Node000005_Node000007" class="edge">
<title>Node5&#45;&gt;Node7</title>
<g id="a_edge6_Node000005_Node000007"><a xlink:title=" ">
<path fill="none" stroke="#63b8ff" d="M874.84,-58C890.63,-58 909.31,-58 927.03,-58"/>
<polygon fill="#63b8ff" stroke="#63b8ff" points="927.33,-61.5 937.33,-58 927.33,-54.5 927.33,-61.5"/>
</a>
</g>
</g>
<!-- Node9&#45;&gt;Node6 -->
<g id="edge9_Node000009_Node000006" class="edge">
<title>Node9&#45;&gt;Node6</title>
<g id="a_edge9_Node000009_Node000006"><a xlink:title=" ">
<path fill="none" stroke="#63b8ff" d="M872.07,-95C885.68,-95 901.72,-95 917.55,-95"/>
<polygon fill="#63b8ff" stroke="#63b8ff" points="917.89,-98.5 927.89,-95 917.89,-91.5 917.89,-98.5"/>
</a>
</g>
</g>
<!-- Node9&#45;&gt;Node7 -->
<g id="edge10_Node000009_Node000007" class="edge">
<title>Node9&#45;&gt;Node7</title>
<g id="a_edge10_Node000009_Node000007"><a xlink:title=" ">
<path fill="none" stroke="#63b8ff" d="M872.07,-86.42C892.78,-81.49 919.09,-75.23 941.74,-69.84"/>
<polygon fill="#63b8ff" stroke="#63b8ff" points="942.61,-73.23 951.53,-67.51 940.99,-66.42 942.61,-73.23"/>
</a>
</g>
</g>
</g>
</svg>
