<?xml version="1.0" encoding="UTF-8" standalone="no"?>
<!DOCTYPE svg PUBLIC "-//W3C//DTD SVG 1.1//EN"
 "http://www.w3.org/Graphics/SVG/1.1/DTD/svg11.dtd">
<!-- Generated by graphviz version 2.43.0 (0)
 -->
<!-- Title: Ws2812Handler::visitAnimator Pages: 1 -->
<svg width="884pt" height="138pt"
 viewBox="0.00 0.00 884.00 138.00" xmlns="http://www.w3.org/2000/svg" xmlns:xlink="http://www.w3.org/1999/xlink">
<g id="graph0" class="graph" transform="scale(1 1) rotate(0) translate(4 134)">
<title>Ws2812Handler::visitAnimator</title>
<!-- Node1 -->
<g id="Node000001" class="node">
<title>Node1</title>
<g id="a_Node000001"><a xlink:title="Visit animator object with a callable.">
<polygon fill="#999999" stroke="#666666" points="166,-74 0,-74 0,-55 166,-55 166,-74"/>
<text text-anchor="middle" x="83" y="-62" font-family="Helvetica,sans-Serif" font-size="10.00">Ws2812Handler::visitAnimator</text>
</a>
</g>
</g>
<!-- Node2 -->
<g id="Node000002" class="node">
<title>Node2</title>
<g id="a_Node000002"><a xlink:href="classWs2812Handler.html#afe5f397b22e9b92cf2fb2cebae6e123d" target="_top" xlink:title=" ">
<polygon fill="white" stroke="#666666" points="383,-79.5 202,-79.5 202,-49.5 383,-49.5 383,-79.5"/>
<text text-anchor="start" x="210" y="-67.5" font-family="Helvetica,sans-Serif" font-size="10.00">Ws2812Handler::EnsureInitialized</text>
<text text-anchor="middle" x="292.5" y="-56.5" font-family="Helvetica,sans-Serif" font-size="10.00">Locked</text>
</a>
</g>
</g>
<!-- Node1&#45;&gt;Node2 -->
<g id="edge1_Node000001_Node000002" class="edge">
<title>Node1&#45;&gt;Node2</title>
<g id="a_edge1_Node000001_Node000002"><a xlink:title=" ">
<path fill="none" stroke="#63b8ff" d="M166.01,-64.5C174.48,-64.5 183.15,-64.5 191.78,-64.5"/>
<polygon fill="#63b8ff" stroke="#63b8ff" points="191.88,-68 201.88,-64.5 191.88,-61 191.88,-68"/>
</a>
</g>
</g>
<!-- Node3 -->
<g id="Node000003" class="node">
<title>Node3</title>
<g id="a_Node000003"><a xlink:href="classWs2812Handler.html#acce4955435f295ba4853b6239090982f" target="_top" xlink:title="Initialize the RMT channel and LED strip.">
<polygon fill="white" stroke="#666666" points="561,-74 419,-74 419,-55 561,-55 561,-74"/>
<text text-anchor="middle" x="490" y="-62" font-family="Helvetica,sans-Serif" font-size="10.00">Ws2812Handler::Initialize</text>
</a>
</g>
</g>
<!-- Node2&#45;&gt;Node3 -->
<g id="edge2_Node000002_Node000003" class="edge">
<title>Node2&#45;&gt;Node3</title>
<g id="a_edge2_Node000002_Node000003"><a xlink:title=" ">
<path fill="none" stroke="#63b8ff" d="M383.24,-64.5C391.73,-64.5 400.3,-64.5 408.7,-64.5"/>
<polygon fill="#63b8ff" stroke="#63b8ff" points="408.84,-68 418.84,-64.5 408.84,-61 408.84,-68"/>
</a>
</g>
</g>
<!-- Node4 -->
<g id="Node000004" class="node">
<title>Node4</title>
<g id="a_Node000004"><a xlink:href="classLogger.html#adce17848a5844e053bfd314863dc1404" target="_top" xlink:title="Log error message.">
<polygon fill="white" stroke="#666666" points="693.5,-130 614.5,-130 614.5,-111 693.5,-111 693.5,-130"/>
<text text-anchor="middle" x="654" y="-118" font-family="Helvetica,sans-Serif" font-size="10.00">Logger::Error</text>
</a>
</g>
</g>
<!-- Node3&#45;&gt;Node4 -->
<g id="edge3_Node000003_Node000004" class="edge">
<title>Node3&#45;&gt;Node4</title>
<g id="a_edge3_Node000003_Node000004"><a xlink:title=" ">
<path fill="none" stroke="#63b8ff" d="M517.05,-74.11C538.46,-81.94 569.61,-93.19 597,-102.5 602.2,-104.27 607.68,-106.08 613.1,-107.85"/>
<polygon fill="#63b8ff" stroke="#63b8ff" points="612.12,-111.22 622.71,-110.97 614.28,-104.56 612.12,-111.22"/>
</a>
</g>
</g>
<!-- Node7 -->
<g id="Node000007" class="node">
<title>Node7</title>
<g id="a_Node000007"><a xlink:href="classLogger.html#a5789d11f8f1356e2192c0023a089cbc4" target="_top" xlink:title="Get singleton instance.">
<polygon fill="white" stroke="#666666" points="711,-19 597,-19 597,0 711,0 711,-19"/>
<text text-anchor="middle" x="654" y="-7" font-family="Helvetica,sans-Serif" font-size="10.00">Logger::GetInstance</text>
</a>
</g>
</g>
<!-- Node3&#45;&gt;Node7 -->
<g id="edge6_Node000003_Node000007" class="edge">
<title>Node3&#45;&gt;Node7</title>
<g id="a_edge6_Node000003_Node000007"><a xlink:title=" ">
<path fill="none" stroke="#63b8ff" d="M517.95,-54.89C539.33,-47.31 570.02,-36.54 597,-27.5 602.2,-25.76 607.69,-23.95 613.11,-22.19"/>
<polygon fill="#63b8ff" stroke="#63b8ff" points="614.29,-25.48 622.73,-19.08 612.14,-18.82 614.29,-25.48"/>
</a>
</g>
</g>
<!-- Node8 -->
<g id="Node000008" class="node">
<title>Node8</title>
<g id="a_Node000008"><a xlink:href="classLogger.html#a4681229c521795685fc14f6b55c82300" target="_top" xlink:title="Log info message.">
<polygon fill="white" stroke="#666666" points="691,-93 617,-93 617,-74 691,-74 691,-93"/>
<text text-anchor="middle" x="654" y="-81" font-family="Helvetica,sans-Serif" font-size="10.00">Logger::Info</text>
</a>
</g>
</g>
<!-- Node3&#45;&gt;Node8 -->
<g id="edge7_Node000003_Node000008" class="edge">
<title>Node3&#45;&gt;Node8</title>
<g id="a_edge7_Node000003_Node000008"><a xlink:title=" ">
<path fill="none" stroke="#63b8ff" d="M561.11,-72.72C576.53,-74.53 592.48,-76.4 606.67,-78.07"/>
<polygon fill="#63b8ff" stroke="#63b8ff" points="606.33,-81.55 616.67,-79.24 607.15,-74.6 606.33,-81.55"/>
</a>
</g>
</g>
<!-- Node9 -->
<g id="Node000009" class="node">
<title>Node9</title>
<g id="a_Node000009"><a xlink:href="classLogger.html#aaa95ffa14d07a965d4a85bdec82cba26" target="_top" xlink:title="Log warning message.">
<polygon fill="white" stroke="#666666" points="694,-56 614,-56 614,-37 694,-37 694,-56"/>
<text text-anchor="middle" x="654" y="-44" font-family="Helvetica,sans-Serif" font-size="10.00">Logger::Warn</text>
</a>
</g>
</g>
<!-- Node3&#45;&gt;Node9 -->
<g id="edge10_Node000003_Node000009" class="edge">
<title>Node3&#45;&gt;Node9</title>
<g id="a_edge10_Node000003_Node000009"><a xlink:title=" ">
<path fill="none" stroke="#63b8ff" d="M561.11,-56.71C575.42,-55.12 590.2,-53.48 603.6,-51.99"/>
<polygon fill="#63b8ff" stroke="#63b8ff" points="604,-55.47 613.55,-50.88 603.22,-48.51 604,-55.47"/>
</a>
</g>
</g>
<!-- Node5 -->
<g id="Node000005" class="node">
<title>Node5</title>
<g id="a_Node000005"><a xlink:href="classLogger.html#af9e84e0ff6bd538e4f9ed8dcebc3e2f0" target="_top" xlink:title="Check if log level is enabled for tag.">
<polygon fill="white" stroke="#666666" points="876,-111 747,-111 747,-92 876,-92 876,-111"/>
<text text-anchor="middle" x="811.5" y="-99" font-family="Helvetica,sans-Serif" font-size="10.00">Logger::IsLevelEnabled</text>
</a>
</g>
</g>
<!-- Node4&#45;&gt;Node5 -->
<g id="edge4_Node000004_Node000005" class="edge">
<title>Node4&#45;&gt;Node5</title>
<g id="a_edge4_Node000004_Node000005"><a xlink:title=" ">
<path fill="none" stroke="#63b8ff" d="M693.84,-115.75C706.85,-114.16 721.82,-112.34 736.6,-110.53"/>
<polygon fill="#63b8ff" stroke="#63b8ff" points="737.28,-113.97 746.78,-109.29 736.43,-107.02 737.28,-113.97"/>
</a>
</g>
</g>
<!-- Node6 -->
<g id="Node000006" class="node">
<title>Node6</title>
<g id="a_Node000006"><a xlink:href="classLogger.html#a6adb205db597526fb91ad20067400394" target="_top" xlink:title="Internal logging method.">
<polygon fill="white" stroke="#666666" points="866.5,-74 756.5,-74 756.5,-55 866.5,-55 866.5,-74"/>
<text text-anchor="middle" x="811.5" y="-62" font-family="Helvetica,sans-Serif" font-size="10.00">Logger::LogInternal</text>
</a>
</g>
</g>
<!-- Node4&#45;&gt;Node6 -->
<g id="edge5_Node000004_Node000006" class="edge">
<title>Node4&#45;&gt;Node6</title>
<g id="a_edge5_Node000004_Node000006"><a xlink:title=" ">
<path fill="none" stroke="#63b8ff" d="M687.92,-110.98C695.59,-108.47 703.66,-105.59 711,-102.5 727.68,-95.48 730.25,-90.35 747,-83.5 752.53,-81.24 758.42,-79.12 764.31,-77.16"/>
<polygon fill="#63b8ff" stroke="#63b8ff" points="765.67,-80.41 774.14,-74.05 763.55,-73.73 765.67,-80.41"/>
</a>
</g>
</g>
<!-- Node8&#45;&gt;Node5 -->
<g id="edge8_Node000008_Node000005" class="edge">
<title>Node8&#45;&gt;Node5</title>
<g id="a_edge8_Node000008_Node000005"><a xlink:title=" ">
<path fill="none" stroke="#63b8ff" d="M691.07,-87.67C704.68,-89.25 720.72,-91.11 736.55,-92.94"/>
<polygon fill="#63b8ff" stroke="#63b8ff" points="736.55,-96.46 746.89,-94.14 737.36,-89.51 736.55,-96.46"/>
</a>
</g>
</g>
<!-- Node8&#45;&gt;Node6 -->
<g id="edge9_Node000008_Node000006" class="edge">
<title>Node8&#45;&gt;Node6</title>
<g id="a_edge9_Node000008_Node000006"><a xlink:title=" ">
<path fill="none" stroke="#63b8ff" d="M691.07,-79.09C707.49,-77.09 727.44,-74.65 746.3,-72.34"/>
<polygon fill="#63b8ff" stroke="#63b8ff" points="746.83,-75.81 756.33,-71.12 745.98,-68.86 746.83,-75.81"/>
</a>
</g>
</g>
<!-- Node9&#45;&gt;Node5 -->
<g id="edge11_Node000009_Node000005" class="edge">
<title>Node9&#45;&gt;Node5</title>
<g id="a_edge11_Node000009_Node000005"><a xlink:title=" ">
<path fill="none" stroke="#63b8ff" d="M685.51,-56.01C693.86,-58.84 702.85,-62.1 711,-65.5 727.51,-72.39 730.32,-77.03 747,-83.5 752.07,-85.47 757.45,-87.33 762.85,-89.05"/>
<polygon fill="#63b8ff" stroke="#63b8ff" points="761.92,-92.42 772.51,-91.99 763.96,-85.73 761.92,-92.42"/>
</a>
</g>
</g>
<!-- Node9&#45;&gt;Node6 -->
<g id="edge12_Node000009_Node000006" class="edge">
<title>Node9&#45;&gt;Node6</title>
<g id="a_edge12_Node000009_Node000006"><a xlink:title=" ">
<path fill="none" stroke="#63b8ff" d="M694.24,-51.04C709.96,-52.86 728.49,-55.01 746.08,-57.04"/>
<polygon fill="#63b8ff" stroke="#63b8ff" points="745.96,-60.55 756.3,-58.23 746.77,-53.6 745.96,-60.55"/>
</a>
</g>
</g>
</g>
</svg>
