<?xml version="1.0" encoding="UTF-8" standalone="no"?>
<!DOCTYPE svg PUBLIC "-//W3C//DTD SVG 1.1//EN"
 "http://www.w3.org/Graphics/SVG/1.1/DTD/svg11.dtd">
<!-- Generated by graphviz version 2.43.0 (0)
 -->
<!-- Title: Tmc9660Handler::Tmc9660Handler Pages: 1 -->
<svg width="1345pt" height="113pt"
 viewBox="0.00 0.00 1345.00 112.50" xmlns="http://www.w3.org/2000/svg" xmlns:xlink="http://www.w3.org/1999/xlink">
<g id="graph0" class="graph" transform="scale(1 1) rotate(0) translate(4 108.5)">
<title>Tmc9660Handler::Tmc9660Handler</title>
<!-- Node1 -->
<g id="Node000001" class="node">
<title>Node1</title>
<g id="a_Node000001"><a xlink:title="Construct a handler for a TMC9660 connected via SPI.">
<polygon fill="#999999" stroke="#666666" points="189,-45.5 0,-45.5 0,-26.5 189,-26.5 189,-45.5"/>
<text text-anchor="middle" x="94.5" y="-33.5" font-family="Helvetica,sans-Serif" font-size="10.00">Tmc9660Handler::Tmc9660Handler</text>
</a>
</g>
</g>
<!-- Node2 -->
<g id="Node000002" class="node">
<title>Node2</title>
<g id="a_Node000002"><a xlink:href="classTmc9660Handler.html#a393382194d0602e7aa02da6a8fd7a20a" target="_top" xlink:title="Get a reference to the Temperature wrapper.">
<polygon fill="white" stroke="#666666" points="392,-45.5 225,-45.5 225,-26.5 392,-26.5 392,-45.5"/>
<text text-anchor="middle" x="308.5" y="-33.5" font-family="Helvetica,sans-Serif" font-size="10.00">Tmc9660Handler::temperature</text>
</a>
</g>
</g>
<!-- Node1&#45;&gt;Node2 -->
<g id="edge1_Node000001_Node000002" class="edge">
<title>Node1&#45;&gt;Node2</title>
<g id="a_edge1_Node000001_Node000002"><a xlink:title=" ">
<path fill="none" stroke="#63b8ff" d="M189.1,-36C197.54,-36 206.09,-36 214.52,-36"/>
<polygon fill="#63b8ff" stroke="#63b8ff" points="214.73,-39.5 224.73,-36 214.73,-32.5 214.73,-39.5"/>
</a>
</g>
</g>
<!-- Node2&#45;&gt;Node2 -->
<g id="edge14_Node000002_Node000002" class="edge">
<title>Node2&#45;&gt;Node2</title>
<g id="a_edge14_Node000002_Node000002"><a xlink:title=" ">
<path fill="none" stroke="#63b8ff" d="M275.82,-45.58C259.93,-54.23 270.82,-63.5 308.5,-63.5 335.58,-63.5 348.83,-58.71 348.23,-52.81"/>
<polygon fill="#63b8ff" stroke="#63b8ff" points="350.67,-50.29 341.18,-45.58 345.66,-55.18 350.67,-50.29"/>
</a>
</g>
</g>
<!-- Node3 -->
<g id="Node000003" class="node">
<title>Node3</title>
<g id="a_Node000003"><a xlink:href="classTmc9660Handler.html#a5a279ae9d4b5a8e0d71cb24577ad88ea" target="_top" xlink:title="Ensure driver is initialized (lazy init entrypoint).">
<polygon fill="white" stroke="#666666" points="615,-45.5 428,-45.5 428,-26.5 615,-26.5 615,-45.5"/>
<text text-anchor="middle" x="521.5" y="-33.5" font-family="Helvetica,sans-Serif" font-size="10.00">Tmc9660Handler::EnsureInitialized</text>
</a>
</g>
</g>
<!-- Node2&#45;&gt;Node3 -->
<g id="edge2_Node000002_Node000003" class="edge">
<title>Node2&#45;&gt;Node3</title>
<g id="a_edge2_Node000002_Node000003"><a xlink:title=" ">
<path fill="none" stroke="#63b8ff" d="M392.29,-29.39C400.67,-29.29 409.25,-29.24 417.81,-29.25"/>
<polygon fill="#63b8ff" stroke="#63b8ff" points="417.81,-32.75 427.83,-29.29 417.84,-25.75 417.81,-32.75"/>
</a>
</g>
</g>
<!-- Node3&#45;&gt;Node2 -->
<g id="edge13_Node000003_Node000002" class="edge">
<title>Node3&#45;&gt;Node2</title>
<g id="a_edge13_Node000003_Node000002"><a xlink:title=" ">
<path fill="none" stroke="#63b8ff" d="M427.83,-42.71C419.42,-42.76 410.9,-42.76 402.48,-42.71"/>
<polygon fill="#63b8ff" stroke="#63b8ff" points="402.32,-39.21 392.29,-42.61 402.25,-46.21 402.32,-39.21"/>
</a>
</g>
</g>
<!-- Node4 -->
<g id="Node000004" class="node">
<title>Node4</title>
<g id="a_Node000004"><a xlink:href="classTmc9660Handler.html#a7c1d8073576d678b09dac24c9eb12845" target="_top" xlink:title="Ensure initialized while handler_mutex_ is already held.">
<polygon fill="white" stroke="#666666" points="838,-51 651,-51 651,-21 838,-21 838,-51"/>
<text text-anchor="start" x="659" y="-39" font-family="Helvetica,sans-Serif" font-size="10.00">Tmc9660Handler::EnsureInitialized</text>
<text text-anchor="middle" x="744.5" y="-28" font-family="Helvetica,sans-Serif" font-size="10.00">Locked</text>
</a>
</g>
</g>
<!-- Node3&#45;&gt;Node4 -->
<g id="edge3_Node000003_Node000004" class="edge">
<title>Node3&#45;&gt;Node4</title>
<g id="a_edge3_Node000003_Node000004"><a xlink:title=" ">
<path fill="none" stroke="#63b8ff" d="M615.26,-36C623.75,-36 632.39,-36 640.96,-36"/>
<polygon fill="#63b8ff" stroke="#63b8ff" points="640.97,-39.5 650.97,-36 640.97,-32.5 640.97,-39.5"/>
</a>
</g>
</g>
<!-- Node5 -->
<g id="Node000005" class="node">
<title>Node5</title>
<g id="a_Node000005"><a xlink:href="classTmc9660Handler.html#adc564847f8ae26c47412aaee0758991c" target="_top" xlink:title="Initialize the TMC9660 device.">
<polygon fill="white" stroke="#666666" points="1022,-67.5 874,-67.5 874,-48.5 1022,-48.5 1022,-67.5"/>
<text text-anchor="middle" x="948" y="-55.5" font-family="Helvetica,sans-Serif" font-size="10.00">Tmc9660Handler::Initialize</text>
</a>
</g>
</g>
<!-- Node4&#45;&gt;Node5 -->
<g id="edge4_Node000004_Node000005" class="edge">
<title>Node4&#45;&gt;Node5</title>
<g id="a_edge4_Node000004_Node000005"><a xlink:title=" ">
<path fill="none" stroke="#63b8ff" d="M838.29,-46.13C846.73,-47.05 855.25,-47.98 863.61,-48.9"/>
<polygon fill="#63b8ff" stroke="#63b8ff" points="863.38,-52.39 873.7,-50 864.14,-45.43 863.38,-52.39"/>
</a>
</g>
</g>
<!-- Node11 -->
<g id="Node000011" class="node">
<title>Node11</title>
<g id="a_Node000011"><a xlink:href="classTmc9660Handler.html#a13db97d201a287d8aa60384e04070b9f" target="_top" xlink:title="Check if the TMC9660 driver has been initialized and is ready.">
<polygon fill="white" stroke="#666666" points="1020,-30 876,-30 876,0 1020,0 1020,-30"/>
<text text-anchor="start" x="884" y="-18" font-family="Helvetica,sans-Serif" font-size="10.00">Tmc9660Handler::IsDriver</text>
<text text-anchor="middle" x="948" y="-7" font-family="Helvetica,sans-Serif" font-size="10.00">Ready</text>
</a>
</g>
</g>
<!-- Node4&#45;&gt;Node11 -->
<g id="edge12_Node000004_Node000011" class="edge">
<title>Node4&#45;&gt;Node11</title>
<g id="a_edge12_Node000004_Node000011"><a xlink:title=" ">
<path fill="none" stroke="#63b8ff" d="M838.29,-26.33C847.44,-25.38 856.69,-24.41 865.71,-23.47"/>
<polygon fill="#63b8ff" stroke="#63b8ff" points="866.21,-26.94 875.8,-22.42 865.49,-19.98 866.21,-26.94"/>
</a>
</g>
</g>
<!-- Node6 -->
<g id="Node000006" class="node">
<title>Node6</title>
<g id="a_Node000006"><a xlink:href="classLogger.html#adce17848a5844e053bfd314863dc1404" target="_top" xlink:title="Log error message.">
<polygon fill="white" stroke="#666666" points="1154.5,-67.5 1075.5,-67.5 1075.5,-48.5 1154.5,-48.5 1154.5,-67.5"/>
<text text-anchor="middle" x="1115" y="-55.5" font-family="Helvetica,sans-Serif" font-size="10.00">Logger::Error</text>
</a>
</g>
</g>
<!-- Node5&#45;&gt;Node6 -->
<g id="edge5_Node000005_Node000006" class="edge">
<title>Node5&#45;&gt;Node6</title>
<g id="a_edge5_Node000005_Node000006"><a xlink:title=" ">
<path fill="none" stroke="#63b8ff" d="M1022.33,-58C1036.73,-58 1051.5,-58 1064.87,-58"/>
<polygon fill="#63b8ff" stroke="#63b8ff" points="1065.26,-61.5 1075.26,-58 1065.26,-54.5 1065.26,-61.5"/>
</a>
</g>
</g>
<!-- Node9 -->
<g id="Node000009" class="node">
<title>Node9</title>
<g id="a_Node000009"><a xlink:href="classLogger.html#a5789d11f8f1356e2192c0023a089cbc4" target="_top" xlink:title="Get singleton instance.">
<polygon fill="white" stroke="#666666" points="1172,-30.5 1058,-30.5 1058,-11.5 1172,-11.5 1172,-30.5"/>
<text text-anchor="middle" x="1115" y="-18.5" font-family="Helvetica,sans-Serif" font-size="10.00">Logger::GetInstance</text>
</a>
</g>
</g>
<!-- Node5&#45;&gt;Node9 -->
<g id="edge8_Node000005_Node000009" class="edge">
<title>Node5&#45;&gt;Node9</title>
<g id="a_edge8_Node000005_Node000009"><a xlink:title=" ">
<path fill="none" stroke="#63b8ff" d="M991.49,-48.47C1012.87,-43.68 1038.97,-37.82 1061.58,-32.75"/>
<polygon fill="#63b8ff" stroke="#63b8ff" points="1062.37,-36.16 1071.37,-30.56 1060.84,-29.33 1062.37,-36.16"/>
</a>
</g>
</g>
<!-- Node10 -->
<g id="Node000010" class="node">
<title>Node10</title>
<g id="a_Node000010"><a xlink:href="classLogger.html#a4681229c521795685fc14f6b55c82300" target="_top" xlink:title="Log info message.">
<polygon fill="white" stroke="#666666" points="1152,-104.5 1078,-104.5 1078,-85.5 1152,-85.5 1152,-104.5"/>
<text text-anchor="middle" x="1115" y="-92.5" font-family="Helvetica,sans-Serif" font-size="10.00">Logger::Info</text>
</a>
</g>
</g>
<!-- Node5&#45;&gt;Node10 -->
<g id="edge9_Node000005_Node000010" class="edge">
<title>Node5&#45;&gt;Node10</title>
<g id="a_edge9_Node000005_Node000010"><a xlink:title=" ">
<path fill="none" stroke="#63b8ff" d="M991.49,-67.53C1014.89,-72.77 1043.94,-79.29 1067.89,-84.66"/>
<polygon fill="#63b8ff" stroke="#63b8ff" points="1067.28,-88.11 1077.8,-86.88 1068.81,-81.28 1067.28,-88.11"/>
</a>
</g>
</g>
<!-- Node7 -->
<g id="Node000007" class="node">
<title>Node7</title>
<g id="a_Node000007"><a xlink:href="classLogger.html#af9e84e0ff6bd538e4f9ed8dcebc3e2f0" target="_top" xlink:title="Check if log level is enabled for tag.">
<polygon fill="white" stroke="#666666" points="1337,-104.5 1208,-104.5 1208,-85.5 1337,-85.5 1337,-104.5"/>
<text text-anchor="middle" x="1272.5" y="-92.5" font-family="Helvetica,sans-Serif" font-size="10.00">Logger::IsLevelEnabled</text>
</a>
</g>
</g>
<!-- Node6&#45;&gt;Node7 -->
<g id="edge6_Node000006_Node000007" class="edge">
<title>Node6&#45;&gt;Node7</title>
<g id="a_edge6_Node000006_Node000007"><a xlink:title=" ">
<path fill="none" stroke="#63b8ff" d="M1154.84,-67.24C1175.03,-72.05 1199.94,-77.97 1221.55,-83.11"/>
<polygon fill="#63b8ff" stroke="#63b8ff" points="1221,-86.58 1231.53,-85.49 1222.62,-79.77 1221,-86.58"/>
</a>
</g>
</g>
<!-- Node8 -->
<g id="Node000008" class="node">
<title>Node8</title>
<g id="a_Node000008"><a xlink:href="classLogger.html#a6adb205db597526fb91ad20067400394" target="_top" xlink:title="Internal logging method.">
<polygon fill="white" stroke="#666666" points="1327.5,-67.5 1217.5,-67.5 1217.5,-48.5 1327.5,-48.5 1327.5,-67.5"/>
<text text-anchor="middle" x="1272.5" y="-55.5" font-family="Helvetica,sans-Serif" font-size="10.00">Logger::LogInternal</text>
</a>
</g>
</g>
<!-- Node6&#45;&gt;Node8 -->
<g id="edge7_Node000006_Node000008" class="edge">
<title>Node6&#45;&gt;Node8</title>
<g id="a_edge7_Node000006_Node000008"><a xlink:title=" ">
<path fill="none" stroke="#63b8ff" d="M1154.84,-58C1170.63,-58 1189.31,-58 1207.03,-58"/>
<polygon fill="#63b8ff" stroke="#63b8ff" points="1207.33,-61.5 1217.33,-58 1207.33,-54.5 1207.33,-61.5"/>
</a>
</g>
</g>
<!-- Node10&#45;&gt;Node7 -->
<g id="edge10_Node000010_Node000007" class="edge">
<title>Node10&#45;&gt;Node7</title>
<g id="a_edge10_Node000010_Node000007"><a xlink:title=" ">
<path fill="none" stroke="#63b8ff" d="M1152.07,-95C1165.68,-95 1181.72,-95 1197.55,-95"/>
<polygon fill="#63b8ff" stroke="#63b8ff" points="1197.89,-98.5 1207.89,-95 1197.89,-91.5 1197.89,-98.5"/>
</a>
</g>
</g>
<!-- Node10&#45;&gt;Node8 -->
<g id="edge11_Node000010_Node000008" class="edge">
<title>Node10&#45;&gt;Node8</title>
<g id="a_edge11_Node000010_Node000008"><a xlink:title=" ">
<path fill="none" stroke="#63b8ff" d="M1152.07,-86.42C1172.78,-81.49 1199.09,-75.23 1221.74,-69.84"/>
<polygon fill="#63b8ff" stroke="#63b8ff" points="1222.61,-73.23 1231.53,-67.51 1220.99,-66.42 1222.61,-73.23"/>
</a>
</g>
</g>
</g>
</svg>
