<?xml version="1.0" encoding="UTF-8" standalone="no"?>
<!DOCTYPE svg PUBLIC "-//W3C//DTD SVG 1.1//EN"
 "http://www.w3.org/Graphics/SVG/1.1/DTD/svg11.dtd">
<!-- Generated by graphviz version 2.43.0 (0)
 -->
<!-- Title: Tmc9660Handler::Adc::ReadMotorDataChannel Pages: 1 -->
<svg width="1102pt" height="150pt"
 viewBox="0.00 0.00 1102.00 149.50" xmlns="http://www.w3.org/2000/svg" xmlns:xlink="http://www.w3.org/1999/xlink">
<g id="graph0" class="graph" transform="scale(1 1) rotate(0) translate(4 145.5)">
<title>Tmc9660Handler::Adc::ReadMotorDataChannel</title>
<!-- Node1 -->
<g id="Node000001" class="node">
<title>Node1</title>
<g id="a_Node000001"><a xlink:title="Read a motor data channel.">
<polygon fill="#999999" stroke="#666666" points="139,-54 0,-54 0,-24 139,-24 139,-54"/>
<text text-anchor="start" x="8" y="-42" font-family="Helvetica,sans-Serif" font-size="10.00">Tmc9660Handler::Adc</text>
<text text-anchor="middle" x="69.5" y="-31" font-family="Helvetica,sans-Serif" font-size="10.00">::ReadMotorDataChannel</text>
</a>
</g>
</g>
<!-- Node2 -->
<g id="Node000002" class="node">
<title>Node2</title>
<g id="a_Node000002"><a xlink:href="classTmc9660Handler.html#a393382194d0602e7aa02da6a8fd7a20a" target="_top" xlink:title="Get a reference to the Temperature wrapper.">
<polygon fill="white" stroke="#666666" points="342,-48.5 175,-48.5 175,-29.5 342,-29.5 342,-48.5"/>
<text text-anchor="middle" x="258.5" y="-36.5" font-family="Helvetica,sans-Serif" font-size="10.00">Tmc9660Handler::temperature</text>
</a>
</g>
</g>
<!-- Node1&#45;&gt;Node2 -->
<g id="edge1_Node000001_Node000002" class="edge">
<title>Node1&#45;&gt;Node2</title>
<g id="a_edge1_Node000001_Node000002"><a xlink:title=" ">
<path fill="none" stroke="#63b8ff" d="M139.07,-39C147.46,-39 156.14,-39 164.81,-39"/>
<polygon fill="#63b8ff" stroke="#63b8ff" points="164.97,-42.5 174.97,-39 164.97,-35.5 164.97,-42.5"/>
</a>
</g>
</g>
<!-- Node2&#45;&gt;Node2 -->
<g id="edge14_Node000002_Node000002" class="edge">
<title>Node2&#45;&gt;Node2</title>
<g id="a_edge14_Node000002_Node000002"><a xlink:title=" ">
<path fill="none" stroke="#63b8ff" d="M229.52,-48.58C215.43,-57.23 225.09,-66.5 258.5,-66.5 281.47,-66.5 293.22,-62.12 293.73,-56.57"/>
<polygon fill="#63b8ff" stroke="#63b8ff" points="296.4,-54.3 287.48,-48.58 290.89,-58.61 296.4,-54.3"/>
</a>
</g>
</g>
<!-- Node3 -->
<g id="Node000003" class="node">
<title>Node3</title>
<g id="a_Node000003"><a xlink:href="classTmc9660Handler.html#a5a279ae9d4b5a8e0d71cb24577ad88ea" target="_top" xlink:title="Ensure driver is initialized (lazy init entrypoint).">
<polygon fill="white" stroke="#666666" points="565,-29.5 378,-29.5 378,-10.5 565,-10.5 565,-29.5"/>
<text text-anchor="middle" x="471.5" y="-17.5" font-family="Helvetica,sans-Serif" font-size="10.00">Tmc9660Handler::EnsureInitialized</text>
</a>
</g>
</g>
<!-- Node2&#45;&gt;Node3 -->
<g id="edge2_Node000002_Node000003" class="edge">
<title>Node2&#45;&gt;Node3</title>
<g id="a_edge2_Node000002_Node000003"><a xlink:title=" ">
<path fill="none" stroke="#63b8ff" d="M342.29,-31.55C350.67,-30.79 359.25,-30.02 367.81,-29.25"/>
<polygon fill="#63b8ff" stroke="#63b8ff" points="368.18,-32.73 377.83,-28.34 367.56,-25.76 368.18,-32.73"/>
</a>
</g>
</g>
<!-- Node4 -->
<g id="Node000004" class="node">
<title>Node4</title>
<g id="a_Node000004"><a xlink:href="classTmc9660Handler.html#adc564847f8ae26c47412aaee0758991c" target="_top" xlink:title="Initialize the TMC9660 device.">
<polygon fill="white" stroke="#666666" points="749,-67.5 601,-67.5 601,-48.5 749,-48.5 749,-67.5"/>
<text text-anchor="middle" x="675" y="-55.5" font-family="Helvetica,sans-Serif" font-size="10.00">Tmc9660Handler::Initialize</text>
</a>
</g>
</g>
<!-- Node3&#45;&gt;Node4 -->
<g id="edge3_Node000003_Node000004" class="edge">
<title>Node3&#45;&gt;Node4</title>
<g id="a_edge3_Node000003_Node000004"><a xlink:title=" ">
<path fill="none" stroke="#63b8ff" d="M523.09,-29.54C550.51,-34.71 584.6,-41.14 613.43,-46.58"/>
<polygon fill="#63b8ff" stroke="#63b8ff" points="612.92,-50.04 623.39,-48.46 614.21,-43.16 612.92,-50.04"/>
</a>
</g>
</g>
<!-- Node10 -->
<g id="Node000010" class="node">
<title>Node10</title>
<g id="a_Node000010"><a xlink:href="classTmc9660Handler.html#a13db97d201a287d8aa60384e04070b9f" target="_top" xlink:title="Check if the TMC9660 driver has been initialized and is ready.">
<polygon fill="white" stroke="#666666" points="929,-30 785,-30 785,0 929,0 929,-30"/>
<text text-anchor="start" x="793" y="-18" font-family="Helvetica,sans-Serif" font-size="10.00">Tmc9660Handler::IsDriver</text>
<text text-anchor="middle" x="857" y="-7" font-family="Helvetica,sans-Serif" font-size="10.00">Ready</text>
</a>
</g>
</g>
<!-- Node3&#45;&gt;Node10 -->
<g id="edge13_Node000003_Node000010" class="edge">
<title>Node3&#45;&gt;Node10</title>
<g id="a_edge13_Node000003_Node000010"><a xlink:title=" ">
<path fill="none" stroke="#63b8ff" d="M565.33,-18.79C629.28,-17.96 713.42,-16.86 774.72,-16.06"/>
<polygon fill="#63b8ff" stroke="#63b8ff" points="774.78,-19.56 784.73,-15.93 774.69,-12.56 774.78,-19.56"/>
</a>
</g>
</g>
<!-- Node4&#45;&gt;Node2 -->
<g id="edge12_Node000004_Node000002" class="edge">
<title>Node4&#45;&gt;Node2</title>
<g id="a_edge12_Node000004_Node000002"><a xlink:title=" ">
<path fill="none" stroke="#63b8ff" d="M600.97,-54.65C531.87,-51.49 427.85,-46.72 352.78,-43.28"/>
<polygon fill="#63b8ff" stroke="#63b8ff" points="352.53,-39.76 342.38,-42.8 352.21,-46.75 352.53,-39.76"/>
</a>
</g>
</g>
<!-- Node5 -->
<g id="Node000005" class="node">
<title>Node5</title>
<g id="a_Node000005"><a xlink:href="classLogger.html#a5e4bcdaea60b9ac227b564d780388769" target="_top" xlink:title="Log error message.">
<polygon fill="white" stroke="#666666" points="896.5,-141.5 817.5,-141.5 817.5,-122.5 896.5,-122.5 896.5,-141.5"/>
<text text-anchor="middle" x="857" y="-129.5" font-family="Helvetica,sans-Serif" font-size="10.00">Logger::Error</text>
</a>
</g>
</g>
<!-- Node4&#45;&gt;Node5 -->
<g id="edge4_Node000004_Node000005" class="edge">
<title>Node4&#45;&gt;Node5</title>
<g id="a_edge4_Node000004_Node000005"><a xlink:title=" ">
<path fill="none" stroke="#63b8ff" d="M691.73,-67.53C712.46,-79.74 750.37,-100.91 785,-114 792.11,-116.69 799.78,-119.1 807.35,-121.23"/>
<polygon fill="#63b8ff" stroke="#63b8ff" points="806.62,-124.66 817.19,-123.85 808.42,-117.89 806.62,-124.66"/>
</a>
</g>
</g>
<!-- Node8 -->
<g id="Node000008" class="node">
<title>Node8</title>
<g id="a_Node000008"><a xlink:href="classLogger.html#a5789d11f8f1356e2192c0023a089cbc4" target="_top" xlink:title="Get singleton instance.">
<polygon fill="white" stroke="#666666" points="914,-67.5 800,-67.5 800,-48.5 914,-48.5 914,-67.5"/>
<text text-anchor="middle" x="857" y="-55.5" font-family="Helvetica,sans-Serif" font-size="10.00">Logger::GetInstance</text>
</a>
</g>
</g>
<!-- Node4&#45;&gt;Node8 -->
<g id="edge7_Node000004_Node000008" class="edge">
<title>Node4&#45;&gt;Node8</title>
<g id="a_edge7_Node000004_Node000008"><a xlink:title=" ">
<path fill="none" stroke="#63b8ff" d="M749.21,-58C762.58,-58 776.45,-58 789.6,-58"/>
<polygon fill="#63b8ff" stroke="#63b8ff" points="789.97,-61.5 799.97,-58 789.97,-54.5 789.97,-61.5"/>
</a>
</g>
</g>
<!-- Node9 -->
<g id="Node000009" class="node">
<title>Node9</title>
<g id="a_Node000009"><a xlink:href="classLogger.html#a1c0c947d87884bca0395fd38d19d1102" target="_top" xlink:title="Log info message.">
<polygon fill="white" stroke="#666666" points="894,-104.5 820,-104.5 820,-85.5 894,-85.5 894,-104.5"/>
<text text-anchor="middle" x="857" y="-92.5" font-family="Helvetica,sans-Serif" font-size="10.00">Logger::Info</text>
</a>
</g>
</g>
<!-- Node4&#45;&gt;Node9 -->
<g id="edge8_Node000004_Node000009" class="edge">
<title>Node4&#45;&gt;Node9</title>
<g id="a_edge8_Node000004_Node000009"><a xlink:title=" ">
<path fill="none" stroke="#63b8ff" d="M722.35,-67.53C749.23,-73.05 782.96,-79.99 809.81,-85.51"/>
<polygon fill="#63b8ff" stroke="#63b8ff" points="809.24,-88.96 819.74,-87.55 810.65,-82.1 809.24,-88.96"/>
</a>
</g>
</g>
<!-- Node4&#45;&gt;Node10 -->
<g id="edge11_Node000004_Node000010" class="edge">
<title>Node4&#45;&gt;Node10</title>
<g id="a_edge11_Node000004_Node000010"><a xlink:title=" ">
<path fill="none" stroke="#63b8ff" d="M715.95,-48.46C735.8,-43.72 760.4,-37.84 783.43,-32.34"/>
<polygon fill="#63b8ff" stroke="#63b8ff" points="784.27,-35.73 793.18,-30.01 782.64,-28.93 784.27,-35.73"/>
</a>
</g>
</g>
<!-- Node6 -->
<g id="Node000006" class="node">
<title>Node6</title>
<g id="a_Node000006"><a xlink:href="classLogger.html#a737b981213c02321a5235848334d7191" target="_top" xlink:title="Check if log level is enabled for tag.">
<polygon fill="white" stroke="#666666" points="1094,-141.5 965,-141.5 965,-122.5 1094,-122.5 1094,-141.5"/>
<text text-anchor="middle" x="1029.5" y="-129.5" font-family="Helvetica,sans-Serif" font-size="10.00">Logger::IsLevelEnabled</text>
</a>
</g>
</g>
<!-- Node5&#45;&gt;Node6 -->
<g id="edge5_Node000005_Node000006" class="edge">
<title>Node5&#45;&gt;Node6</title>
<g id="a_edge5_Node000005_Node000006"><a xlink:title=" ">
<path fill="none" stroke="#63b8ff" d="M896.69,-132C913.92,-132 934.81,-132 954.83,-132"/>
<polygon fill="#63b8ff" stroke="#63b8ff" points="954.89,-135.5 964.89,-132 954.89,-128.5 954.89,-135.5"/>
</a>
</g>
</g>
<!-- Node7 -->
<g id="Node000007" class="node">
<title>Node7</title>
<g id="a_Node000007"><a xlink:href="classLogger.html#aeede6ac18db92a47caede076ef188a13" target="_top" xlink:title="Internal logging method.">
<polygon fill="white" stroke="#666666" points="1084.5,-104.5 974.5,-104.5 974.5,-85.5 1084.5,-85.5 1084.5,-104.5"/>
<text text-anchor="middle" x="1029.5" y="-92.5" font-family="Helvetica,sans-Serif" font-size="10.00">Logger::LogInternal</text>
</a>
</g>
</g>
<!-- Node5&#45;&gt;Node7 -->
<g id="edge6_Node000005_Node000007" class="edge">
<title>Node5&#45;&gt;Node7</title>
<g id="a_edge6_Node000005_Node000007"><a xlink:title=" ">
<path fill="none" stroke="#63b8ff" d="M896.69,-123.6C919.76,-118.6 949.4,-112.17 974.72,-106.67"/>
<polygon fill="#63b8ff" stroke="#63b8ff" points="975.52,-110.08 984.55,-104.54 974.04,-103.24 975.52,-110.08"/>
</a>
</g>
</g>
<!-- Node9&#45;&gt;Node6 -->
<g id="edge9_Node000009_Node000006" class="edge">
<title>Node9&#45;&gt;Node6</title>
<g id="a_edge9_Node000009_Node000006"><a xlink:title=" ">
<path fill="none" stroke="#63b8ff" d="M894.16,-102.85C917.56,-107.93 948.45,-114.63 974.71,-120.33"/>
<polygon fill="#63b8ff" stroke="#63b8ff" points="974.01,-123.76 984.52,-122.46 975.49,-116.92 974.01,-123.76"/>
</a>
</g>
</g>
<!-- Node9&#45;&gt;Node7 -->
<g id="edge10_Node000009_Node000007" class="edge">
<title>Node9&#45;&gt;Node7</title>
<g id="a_edge10_Node000009_Node000007"><a xlink:title=" ">
<path fill="none" stroke="#63b8ff" d="M894.16,-95C914.42,-95 940.31,-95 963.93,-95"/>
<polygon fill="#63b8ff" stroke="#63b8ff" points="964.25,-98.5 974.25,-95 964.25,-91.5 964.25,-98.5"/>
</a>
</g>
</g>
</g>
</svg>
