<?xml version="1.0" encoding="UTF-8" standalone="no"?>
<!DOCTYPE svg PUBLIC "-//W3C//DTD SVG 1.1//EN"
 "http://www.w3.org/Graphics/SVG/1.1/DTD/svg11.dtd">
<!-- Generated by graphviz version 2.43.0 (0)
 -->
<!-- Title: Bno08xHandler::DumpDiagnostics Pages: 1 -->
<svg width="739pt" height="211pt"
 viewBox="0.00 0.00 739.00 210.50" xmlns="http://www.w3.org/2000/svg" xmlns:xlink="http://www.w3.org/1999/xlink">
<g id="graph0" class="graph" transform="scale(1 1) rotate(0) translate(4 206.5)">
<title>Bno08xHandler::DumpDiagnostics</title>
<!-- Node1 -->
<g id="Node000001" class="node">
<title>Node1</title>
<g id="a_Node000001"><a xlink:title="Dump comprehensive diagnostics to the logger.">
<polygon fill="#999999" stroke="#666666" points="184,-122.5 0,-122.5 0,-103.5 184,-103.5 184,-122.5"/>
<text text-anchor="middle" x="92" y="-110.5" font-family="Helvetica,sans-Serif" font-size="10.00">Bno08xHandler::DumpDiagnostics</text>
</a>
</g>
</g>
<!-- Node2 -->
<g id="Node000002" class="node">
<title>Node2</title>
<g id="a_Node000002"><a xlink:href="Bno08xHandler_8h.html#a929bff75c00c4ce529177b0640cdf58c" target="_top" xlink:title="Convert Bno08xError to string for debugging.">
<polygon fill="white" stroke="#666666" points="357,-202.5 241,-202.5 241,-183.5 357,-183.5 357,-202.5"/>
<text text-anchor="middle" x="299" y="-190.5" font-family="Helvetica,sans-Serif" font-size="10.00">Bno08xErrorToString</text>
</a>
</g>
</g>
<!-- Node1&#45;&gt;Node2 -->
<g id="edge1_Node000001_Node000002" class="edge">
<title>Node1&#45;&gt;Node2</title>
<g id="a_edge1_Node000001_Node000002"><a xlink:title=" ">
<path fill="none" stroke="#63b8ff" d="M109.72,-122.7C133.51,-136.14 178.83,-160.42 220,-175 226.02,-177.13 232.39,-179.08 238.79,-180.84"/>
<polygon fill="#63b8ff" stroke="#63b8ff" points="238.27,-184.32 248.83,-183.45 240.03,-177.54 238.27,-184.32"/>
</a>
</g>
</g>
<!-- Node3 -->
<g id="Node000003" class="node">
<title>Node3</title>
<g id="a_Node000003"><a xlink:href="classLogger.html#a5789d11f8f1356e2192c0023a089cbc4" target="_top" xlink:title="Get singleton instance.">
<polygon fill="white" stroke="#666666" points="356,-165.5 242,-165.5 242,-146.5 356,-146.5 356,-165.5"/>
<text text-anchor="middle" x="299" y="-153.5" font-family="Helvetica,sans-Serif" font-size="10.00">Logger::GetInstance</text>
</a>
</g>
</g>
<!-- Node1&#45;&gt;Node3 -->
<g id="edge2_Node000001_Node000003" class="edge">
<title>Node1&#45;&gt;Node3</title>
<g id="a_edge2_Node000001_Node000003"><a xlink:title=" ">
<path fill="none" stroke="#63b8ff" d="M138.5,-122.54C169.28,-129 210.13,-137.57 242.78,-144.42"/>
<polygon fill="#63b8ff" stroke="#63b8ff" points="242.13,-147.86 252.63,-146.48 243.56,-141.01 242.13,-147.86"/>
</a>
</g>
</g>
<!-- Node4 -->
<g id="Node000004" class="node">
<title>Node4</title>
<g id="a_Node000004"><a xlink:href="classIBno08xDriverOps.html#ade5ca399da28b49b2b9b1851cd189ede" target="_top" xlink:title=" ">
<polygon fill="white" stroke="#666666" points="373.5,-128 224.5,-128 224.5,-98 373.5,-98 373.5,-128"/>
<text text-anchor="start" x="232.5" y="-116" font-family="Helvetica,sans-Serif" font-size="10.00">IBno08xDriverOps::GetLast</text>
<text text-anchor="middle" x="299" y="-105" font-family="Helvetica,sans-Serif" font-size="10.00">Error</text>
</a>
</g>
</g>
<!-- Node1&#45;&gt;Node4 -->
<g id="edge3_Node000001_Node000004" class="edge">
<title>Node1&#45;&gt;Node4</title>
<g id="a_edge3_Node000001_Node000004"><a xlink:title=" ">
<path fill="none" stroke="#63b8ff" d="M184.11,-113C194.11,-113 204.26,-113 214.16,-113"/>
<polygon fill="#63b8ff" stroke="#63b8ff" points="214.38,-116.5 224.38,-113 214.38,-109.5 214.38,-116.5"/>
</a>
</g>
</g>
<!-- Node5 -->
<g id="Node000005" class="node">
<title>Node5</title>
<g id="a_Node000005"><a xlink:href="classIBno08xDriverOps.html#ab2a749539196e1ba1362837595b048d7" target="_top" xlink:title=" ">
<polygon fill="white" stroke="#666666" points="378,-79.5 220,-79.5 220,-60.5 378,-60.5 378,-79.5"/>
<text text-anchor="middle" x="299" y="-67.5" font-family="Helvetica,sans-Serif" font-size="10.00">IBno08xDriverOps::GetLatest</text>
</a>
</g>
</g>
<!-- Node1&#45;&gt;Node5 -->
<g id="edge4_Node000001_Node000005" class="edge">
<title>Node1&#45;&gt;Node5</title>
<g id="a_edge4_Node000001_Node000005"><a xlink:title=" ">
<path fill="none" stroke="#63b8ff" d="M138.5,-103.46C169.28,-97 210.13,-88.43 242.78,-81.58"/>
<polygon fill="#63b8ff" stroke="#63b8ff" points="243.56,-84.99 252.63,-79.52 242.13,-78.14 243.56,-84.99"/>
</a>
</g>
</g>
<!-- Node6 -->
<g id="Node000006" class="node">
<title>Node6</title>
<g id="a_Node000006"><a xlink:href="classLogger.html#a4681229c521795685fc14f6b55c82300" target="_top" xlink:title="Log info message.">
<polygon fill="white" stroke="#666666" points="336,-42.5 262,-42.5 262,-23.5 336,-23.5 336,-42.5"/>
<text text-anchor="middle" x="299" y="-30.5" font-family="Helvetica,sans-Serif" font-size="10.00">Logger::Info</text>
</a>
</g>
</g>
<!-- Node1&#45;&gt;Node6 -->
<g id="edge5_Node000001_Node000006" class="edge">
<title>Node1&#45;&gt;Node6</title>
<g id="a_edge5_Node000001_Node000006"><a xlink:title=" ">
<path fill="none" stroke="#63b8ff" d="M110.17,-103.32C134.13,-90.16 179.23,-66.58 220,-52 230.14,-48.37 241.27,-45.2 251.87,-42.55"/>
<polygon fill="#63b8ff" stroke="#63b8ff" points="252.91,-45.9 261.81,-40.16 251.27,-39.09 252.91,-45.9"/>
</a>
</g>
</g>
<!-- Node7 -->
<g id="Node000007" class="node">
<title>Node7</title>
<g id="a_Node000007"><a xlink:href="classLogger.html#af9e84e0ff6bd538e4f9ed8dcebc3e2f0" target="_top" xlink:title="Check if log level is enabled for tag.">
<polygon fill="white" stroke="#666666" points="543,-61.5 414,-61.5 414,-42.5 543,-42.5 543,-61.5"/>
<text text-anchor="middle" x="478.5" y="-49.5" font-family="Helvetica,sans-Serif" font-size="10.00">Logger::IsLevelEnabled</text>
</a>
</g>
</g>
<!-- Node6&#45;&gt;Node7 -->
<g id="edge6_Node000006_Node000007" class="edge">
<title>Node6&#45;&gt;Node7</title>
<g id="a_edge6_Node000006_Node000007"><a xlink:title=" ">
<path fill="none" stroke="#63b8ff" d="M336.35,-36.89C355.79,-38.97 380.45,-41.61 403.7,-44.1"/>
<polygon fill="#63b8ff" stroke="#63b8ff" points="403.59,-47.61 413.91,-45.19 404.34,-40.65 403.59,-47.61"/>
</a>
</g>
</g>
<!-- Node8 -->
<g id="Node000008" class="node">
<title>Node8</title>
<g id="a_Node000008"><a xlink:href="classLogger.html#a6adb205db597526fb91ad20067400394" target="_top" xlink:title="Internal logging method.">
<polygon fill="white" stroke="#666666" points="533.5,-24.5 423.5,-24.5 423.5,-5.5 533.5,-5.5 533.5,-24.5"/>
<text text-anchor="middle" x="478.5" y="-12.5" font-family="Helvetica,sans-Serif" font-size="10.00">Logger::LogInternal</text>
</a>
</g>
</g>
<!-- Node6&#45;&gt;Node8 -->
<g id="edge7_Node000006_Node000008" class="edge">
<title>Node6&#45;&gt;Node8</title>
<g id="a_edge7_Node000006_Node000008"><a xlink:title=" ">
<path fill="none" stroke="#63b8ff" d="M336.35,-29.31C358.46,-27.07 387.34,-24.14 413.22,-21.52"/>
<polygon fill="#63b8ff" stroke="#63b8ff" points="413.74,-24.98 423.34,-20.49 413.04,-18.02 413.74,-24.98"/>
</a>
</g>
</g>
<!-- Node9 -->
<g id="Node000009" class="node">
<title>Node9</title>
<g id="a_Node000009"><a xlink:href="namespaceanonymous__namespace_02Logger_8cpp_03.html#a9d2b496fa1b4f4e28667d14e4b8cb190" target="_top" xlink:title=" ">
<polygon fill="white" stroke="#666666" points="731,-30 579,-30 579,0 731,0 731,-30"/>
<text text-anchor="start" x="587" y="-18" font-family="Helvetica,sans-Serif" font-size="10.00">anonymous_namespace</text>
<text text-anchor="middle" x="655" y="-7" font-family="Helvetica,sans-Serif" font-size="10.00">{Logger::cpp}::ToBaseLevel</text>
</a>
</g>
</g>
<!-- Node8&#45;&gt;Node9 -->
<g id="edge8_Node000008_Node000009" class="edge">
<title>Node8&#45;&gt;Node9</title>
<g id="a_edge8_Node000008_Node000009"><a xlink:title=" ">
<path fill="none" stroke="#63b8ff" d="M533.76,-15C544.93,-15 556.96,-15 568.93,-15"/>
<polygon fill="#63b8ff" stroke="#63b8ff" points="568.95,-18.5 578.95,-15 568.95,-11.5 568.95,-18.5"/>
</a>
</g>
</g>
</g>
</svg>
