<?xml version="1.0" encoding="UTF-8" standalone="no"?>
<!DOCTYPE svg PUBLIC "-//W3C//DTD SVG 1.1//EN"
 "http://www.w3.org/Graphics/SVG/1.1/DTD/svg11.dtd">
<!-- Generated by graphviz version 2.43.0 (0)
 -->
<!-- Title: Ads7952Handler::Initialize Pages: 1 -->
<svg width="550pt" height="175pt"
 viewBox="0.00 0.00 550.00 175.00" xmlns="http://www.w3.org/2000/svg" xmlns:xlink="http://www.w3.org/1999/xlink">
<g id="graph0" class="graph" transform="scale(1 1) rotate(0) translate(4 171)">
<title>Ads7952Handler::Initialize</title>
<!-- Node1 -->
<g id="Node000001" class="node">
<title>Node1</title>
<g id="a_Node000001"><a xlink:title="Initialize the ADS7952 ADC (lazy initialization).">
<polygon fill="#999999" stroke="#666666" points="145,-93 0,-93 0,-74 145,-74 145,-93"/>
<text text-anchor="middle" x="72.5" y="-81" font-family="Helvetica,sans-Serif" font-size="10.00">Ads7952Handler::Initialize</text>
</a>
</g>
</g>
<!-- Node2 -->
<g id="Node000002" class="node">
<title>Node2</title>
<g id="a_Node000002"><a xlink:href="classAds7952Handler.html#a3cc3a33955e1e0b218f801f1b98192f2" target="_top" xlink:title="Apply configuration to the driver after init.">
<polygon fill="white" stroke="#666666" points="377,-167 181,-167 181,-148 377,-148 377,-167"/>
<text text-anchor="middle" x="279" y="-155" font-family="Helvetica,sans-Serif" font-size="10.00">Ads7952Handler::ApplyConfiguration</text>
</a>
</g>
</g>
<!-- Node1&#45;&gt;Node2 -->
<g id="edge1_Node000001_Node000002" class="edge">
<title>Node1&#45;&gt;Node2</title>
<g id="a_edge1_Node000001_Node000002"><a xlink:title=" ">
<path fill="none" stroke="#63b8ff" d="M88.52,-93.17C108.73,-105.74 146.18,-127.5 181,-139.5 187.74,-141.82 194.84,-143.86 202.02,-145.66"/>
<polygon fill="#63b8ff" stroke="#63b8ff" points="201.3,-149.08 211.83,-147.95 202.89,-142.26 201.3,-149.08"/>
</a>
</g>
</g>
<!-- Node3 -->
<g id="Node000003" class="node">
<title>Node3</title>
<g id="a_Node000003"><a xlink:href="classLogger.html#adce17848a5844e053bfd314863dc1404" target="_top" xlink:title="Log error message.">
<polygon fill="white" stroke="#666666" points="318.5,-130 239.5,-130 239.5,-111 318.5,-111 318.5,-130"/>
<text text-anchor="middle" x="279" y="-118" font-family="Helvetica,sans-Serif" font-size="10.00">Logger::Error</text>
</a>
</g>
</g>
<!-- Node1&#45;&gt;Node3 -->
<g id="edge2_Node000001_Node000003" class="edge">
<title>Node1&#45;&gt;Node3</title>
<g id="a_edge2_Node000001_Node000003"><a xlink:title=" ">
<path fill="none" stroke="#63b8ff" d="M126.16,-93.03C157.95,-98.78 198.18,-106.06 229.24,-111.68"/>
<polygon fill="#63b8ff" stroke="#63b8ff" points="228.94,-115.18 239.4,-113.52 230.18,-108.29 228.94,-115.18"/>
</a>
</g>
</g>
<!-- Node6 -->
<g id="Node000006" class="node">
<title>Node6</title>
<g id="a_Node000006"><a xlink:href="classLogger.html#a5789d11f8f1356e2192c0023a089cbc4" target="_top" xlink:title="Get singleton instance.">
<polygon fill="white" stroke="#666666" points="336,-19 222,-19 222,0 336,0 336,-19"/>
<text text-anchor="middle" x="279" y="-7" font-family="Helvetica,sans-Serif" font-size="10.00">Logger::GetInstance</text>
</a>
</g>
</g>
<!-- Node1&#45;&gt;Node6 -->
<g id="edge5_Node000001_Node000006" class="edge">
<title>Node1&#45;&gt;Node6</title>
<g id="a_edge5_Node000001_Node000006"><a xlink:title=" ">
<path fill="none" stroke="#63b8ff" d="M88.52,-73.83C108.73,-61.26 146.18,-39.5 181,-27.5 190.82,-24.12 201.42,-21.33 211.9,-19.04"/>
<polygon fill="#63b8ff" stroke="#63b8ff" points="212.77,-22.43 221.87,-16.99 211.37,-15.57 212.77,-22.43"/>
</a>
</g>
</g>
<!-- Node7 -->
<g id="Node000007" class="node">
<title>Node7</title>
<g id="a_Node000007"><a xlink:href="classLogger.html#a4681229c521795685fc14f6b55c82300" target="_top" xlink:title="Log info message.">
<polygon fill="white" stroke="#666666" points="316,-93 242,-93 242,-74 316,-74 316,-93"/>
<text text-anchor="middle" x="279" y="-81" font-family="Helvetica,sans-Serif" font-size="10.00">Logger::Info</text>
</a>
</g>
</g>
<!-- Node1&#45;&gt;Node7 -->
<g id="edge6_Node000001_Node000007" class="edge">
<title>Node1&#45;&gt;Node7</title>
<g id="a_edge6_Node000001_Node000007"><a xlink:title=" ">
<path fill="none" stroke="#63b8ff" d="M145.02,-83.5C173.77,-83.5 206.1,-83.5 231.68,-83.5"/>
<polygon fill="#63b8ff" stroke="#63b8ff" points="231.84,-87 241.84,-83.5 231.84,-80 231.84,-87"/>
</a>
</g>
</g>
<!-- Node8 -->
<g id="Node000008" class="node">
<title>Node8</title>
<g id="a_Node000008"><a xlink:href="classLogger.html#aaa95ffa14d07a965d4a85bdec82cba26" target="_top" xlink:title="Log warning message.">
<polygon fill="white" stroke="#666666" points="319,-56 239,-56 239,-37 319,-37 319,-56"/>
<text text-anchor="middle" x="279" y="-44" font-family="Helvetica,sans-Serif" font-size="10.00">Logger::Warn</text>
</a>
</g>
</g>
<!-- Node1&#45;&gt;Node8 -->
<g id="edge9_Node000001_Node000008" class="edge">
<title>Node1&#45;&gt;Node8</title>
<g id="a_edge9_Node000001_Node000008"><a xlink:title=" ">
<path fill="none" stroke="#63b8ff" d="M126.16,-73.97C157.74,-68.26 197.65,-61.04 228.62,-55.43"/>
<polygon fill="#63b8ff" stroke="#63b8ff" points="229.54,-58.82 238.76,-53.6 228.29,-51.94 229.54,-58.82"/>
</a>
</g>
</g>
<!-- Node4 -->
<g id="Node000004" class="node">
<title>Node4</title>
<g id="a_Node000004"><a xlink:href="classLogger.html#af9e84e0ff6bd538e4f9ed8dcebc3e2f0" target="_top" xlink:title="Check if log level is enabled for tag.">
<polygon fill="white" stroke="#666666" points="542,-111 413,-111 413,-92 542,-92 542,-111"/>
<text text-anchor="middle" x="477.5" y="-99" font-family="Helvetica,sans-Serif" font-size="10.00">Logger::IsLevelEnabled</text>
</a>
</g>
</g>
<!-- Node3&#45;&gt;Node4 -->
<g id="edge3_Node000003_Node000004" class="edge">
<title>Node3&#45;&gt;Node4</title>
<g id="a_edge3_Node000003_Node000004"><a xlink:title=" ">
<path fill="none" stroke="#63b8ff" d="M318.82,-116.75C342.63,-114.44 373.9,-111.42 402.3,-108.67"/>
<polygon fill="#63b8ff" stroke="#63b8ff" points="403,-112.12 412.62,-107.68 402.33,-105.16 403,-112.12"/>
</a>
</g>
</g>
<!-- Node5 -->
<g id="Node000005" class="node">
<title>Node5</title>
<g id="a_Node000005"><a xlink:href="classLogger.html#a6adb205db597526fb91ad20067400394" target="_top" xlink:title="Internal logging method.">
<polygon fill="white" stroke="#666666" points="532.5,-74 422.5,-74 422.5,-55 532.5,-55 532.5,-74"/>
<text text-anchor="middle" x="477.5" y="-62" font-family="Helvetica,sans-Serif" font-size="10.00">Logger::LogInternal</text>
</a>
</g>
</g>
<!-- Node3&#45;&gt;Node5 -->
<g id="edge4_Node000003_Node000005" class="edge">
<title>Node3&#45;&gt;Node5</title>
<g id="a_edge4_Node000003_Node000005"><a xlink:title=" ">
<path fill="none" stroke="#63b8ff" d="M318.93,-116.02C336.93,-113.26 358.4,-108.97 377,-102.5 394.09,-96.56 396.25,-90.35 413,-83.5 418.53,-81.24 424.42,-79.12 430.31,-77.16"/>
<polygon fill="#63b8ff" stroke="#63b8ff" points="431.67,-80.41 440.14,-74.05 429.55,-73.73 431.67,-80.41"/>
</a>
</g>
</g>
<!-- Node7&#45;&gt;Node4 -->
<g id="edge7_Node000007_Node000004" class="edge">
<title>Node7&#45;&gt;Node4</title>
<g id="a_edge7_Node000007_Node000004"><a xlink:title=" ">
<path fill="none" stroke="#63b8ff" d="M316.04,-86.8C340.22,-89.02 372.95,-92.01 402.54,-94.72"/>
<polygon fill="#63b8ff" stroke="#63b8ff" points="402.58,-98.24 412.85,-95.67 403.22,-91.27 402.58,-98.24"/>
</a>
</g>
</g>
<!-- Node7&#45;&gt;Node5 -->
<g id="edge8_Node000007_Node000005" class="edge">
<title>Node7&#45;&gt;Node5</title>
<g id="a_edge8_Node000007_Node000005"><a xlink:title=" ">
<path fill="none" stroke="#63b8ff" d="M316.04,-80.02C342.83,-77.42 380.11,-73.82 412,-70.74"/>
<polygon fill="#63b8ff" stroke="#63b8ff" points="412.52,-74.2 422.14,-69.76 411.85,-67.24 412.52,-74.2"/>
</a>
</g>
</g>
<!-- Node8&#45;&gt;Node4 -->
<g id="edge10_Node000008_Node000004" class="edge">
<title>Node8&#45;&gt;Node4</title>
<g id="a_edge10_Node000008_Node000004"><a xlink:title=" ">
<path fill="none" stroke="#63b8ff" d="M319.33,-51.73C337.22,-54.73 358.48,-59.19 377,-65.5 393.93,-71.27 396.32,-77.03 413,-83.5 418.07,-85.47 423.45,-87.33 428.85,-89.05"/>
<polygon fill="#63b8ff" stroke="#63b8ff" points="427.92,-92.42 438.51,-91.99 429.96,-85.73 427.92,-92.42"/>
</a>
</g>
</g>
<!-- Node8&#45;&gt;Node5 -->
<g id="edge11_Node000008_Node000005" class="edge">
<title>Node8&#45;&gt;Node5</title>
<g id="a_edge11_Node000008_Node000005"><a xlink:title=" ">
<path fill="none" stroke="#63b8ff" d="M319.29,-50.1C345.86,-52.53 381.55,-55.8 412.21,-58.61"/>
<polygon fill="#63b8ff" stroke="#63b8ff" points="412.11,-62.12 422.39,-59.54 412.75,-55.15 412.11,-62.12"/>
</a>
</g>
</g>
</g>
</svg>
