<?xml version="1.0" encoding="UTF-8" standalone="no"?>
<!DOCTYPE svg PUBLIC "-//W3C//DTD SVG 1.1//EN"
 "http://www.w3.org/Graphics/SVG/1.1/DTD/svg11.dtd">
<!-- Generated by graphviz version 2.43.0 (0)
 -->
<!-- Title: Tmc9660Handler::EnableMotor Pages: 1 -->
<svg width="897pt" height="138pt"
 viewBox="0.00 0.00 897.00 138.00" xmlns="http://www.w3.org/2000/svg" xmlns:xlink="http://www.w3.org/1999/xlink">
<g id="graph0" class="graph" transform="scale(1 1) rotate(0) translate(4 134)">
<title>Tmc9660Handler::EnableMotor</title>
<!-- Node1 -->
<g id="Node000001" class="node">
<title>Node1</title>
<g id="a_Node000001"><a xlink:title="Enable the motor driver output stage.">
<polygon fill="#999999" stroke="#666666" points="167,-77 0,-77 0,-58 167,-58 167,-77"/>
<text text-anchor="middle" x="83.5" y="-65" font-family="Helvetica,sans-Serif" font-size="10.00">Tmc9660Handler::EnableMotor</text>
</a>
</g>
</g>
<!-- Node2 -->
<g id="Node000002" class="node">
<title>Node2</title>
<g id="a_Node000002"><a xlink:href="classTmc9660Handler.html#a5a279ae9d4b5a8e0d71cb24577ad88ea" target="_top" xlink:title="Ensure driver is initialized (lazy init entrypoint).">
<polygon fill="white" stroke="#666666" points="390,-77 203,-77 203,-58 390,-58 390,-77"/>
<text text-anchor="middle" x="296.5" y="-65" font-family="Helvetica,sans-Serif" font-size="10.00">Tmc9660Handler::EnsureInitialized</text>
</a>
</g>
</g>
<!-- Node1&#45;&gt;Node2 -->
<g id="edge1_Node000001_Node000002" class="edge">
<title>Node1&#45;&gt;Node2</title>
<g id="a_edge1_Node000001_Node000002"><a xlink:title=" ">
<path fill="none" stroke="#63b8ff" d="M167.29,-67.5C175.67,-67.5 184.25,-67.5 192.81,-67.5"/>
<polygon fill="#63b8ff" stroke="#63b8ff" points="192.83,-71 202.83,-67.5 192.83,-64 192.83,-71"/>
</a>
</g>
</g>
<!-- Node7 -->
<g id="Node000007" class="node">
<title>Node7</title>
<g id="a_Node000007"><a xlink:href="classLogger.html#a5789d11f8f1356e2192c0023a089cbc4" target="_top" xlink:title="Get singleton instance.">
<polygon fill="white" stroke="#666666" points="724,-19 610,-19 610,0 724,0 724,-19"/>
<text text-anchor="middle" x="667" y="-7" font-family="Helvetica,sans-Serif" font-size="10.00">Logger::GetInstance</text>
</a>
</g>
</g>
<!-- Node1&#45;&gt;Node7 -->
<g id="edge11_Node000001_Node000007" class="edge">
<title>Node1&#45;&gt;Node7</title>
<g id="a_edge11_Node000001_Node000007"><a xlink:title=" ">
<path fill="none" stroke="#63b8ff" d="M139.26,-57.96C159.28,-54.67 182.12,-51.15 203,-48.5 343.81,-30.6 509.8,-18.88 599.83,-13.3"/>
<polygon fill="#63b8ff" stroke="#63b8ff" points="600.12,-16.79 609.89,-12.69 599.7,-9.8 600.12,-16.79"/>
</a>
</g>
</g>
<!-- Node10 -->
<g id="Node000010" class="node">
<title>Node10</title>
<g id="a_Node000010"><a xlink:href="classLogger.html#aaa95ffa14d07a965d4a85bdec82cba26" target="_top" xlink:title="Log warning message.">
<polygon fill="white" stroke="#666666" points="707,-130 627,-130 627,-111 707,-111 707,-130"/>
<text text-anchor="middle" x="667" y="-118" font-family="Helvetica,sans-Serif" font-size="10.00">Logger::Warn</text>
</a>
</g>
</g>
<!-- Node1&#45;&gt;Node10 -->
<g id="edge12_Node000001_Node000010" class="edge">
<title>Node1&#45;&gt;Node10</title>
<g id="a_edge12_Node000001_Node000010"><a xlink:title=" ">
<path fill="none" stroke="#63b8ff" d="M141.09,-77.03C160.68,-80.21 182.78,-83.66 203,-86.5 301.86,-100.41 326.44,-106.04 426,-113.5 491.83,-118.44 568.07,-119.94 616.64,-120.38"/>
<polygon fill="#63b8ff" stroke="#63b8ff" points="616.84,-123.88 626.87,-120.45 616.89,-116.88 616.84,-123.88"/>
</a>
</g>
</g>
<!-- Node3 -->
<g id="Node000003" class="node">
<title>Node3</title>
<g id="a_Node000003"><a xlink:href="classTmc9660Handler.html#adc564847f8ae26c47412aaee0758991c" target="_top" xlink:title="Initialize the TMC9660 device.">
<polygon fill="white" stroke="#666666" points="574,-56 426,-56 426,-37 574,-37 574,-56"/>
<text text-anchor="middle" x="500" y="-44" font-family="Helvetica,sans-Serif" font-size="10.00">Tmc9660Handler::Initialize</text>
</a>
</g>
</g>
<!-- Node2&#45;&gt;Node3 -->
<g id="edge2_Node000002_Node000003" class="edge">
<title>Node2&#45;&gt;Node3</title>
<g id="a_edge2_Node000002_Node000003"><a xlink:title=" ">
<path fill="none" stroke="#63b8ff" d="M388.82,-57.98C397.82,-57.04 406.92,-56.1 415.84,-55.17"/>
<polygon fill="#63b8ff" stroke="#63b8ff" points="416.23,-58.65 425.81,-54.13 415.5,-51.68 416.23,-58.65"/>
</a>
</g>
</g>
<!-- Node9 -->
<g id="Node000009" class="node">
<title>Node9</title>
<g id="a_Node000009"><a xlink:href="classTmc9660Handler.html#a13db97d201a287d8aa60384e04070b9f" target="_top" xlink:title="Check if the TMC9660 driver has been initialized and is ready.">
<polygon fill="white" stroke="#666666" points="572,-104.5 428,-104.5 428,-74.5 572,-74.5 572,-104.5"/>
<text text-anchor="start" x="436" y="-92.5" font-family="Helvetica,sans-Serif" font-size="10.00">Tmc9660Handler::IsDriver</text>
<text text-anchor="middle" x="500" y="-81.5" font-family="Helvetica,sans-Serif" font-size="10.00">Ready</text>
</a>
</g>
</g>
<!-- Node2&#45;&gt;Node9 -->
<g id="edge10_Node000002_Node000009" class="edge">
<title>Node2&#45;&gt;Node9</title>
<g id="a_edge10_Node000002_Node000009"><a xlink:title=" ">
<path fill="none" stroke="#63b8ff" d="M384.71,-77.02C395.59,-78.21 406.69,-79.42 417.48,-80.6"/>
<polygon fill="#63b8ff" stroke="#63b8ff" points="417.39,-84.11 427.71,-81.72 418.15,-77.15 417.39,-84.11"/>
</a>
</g>
</g>
<!-- Node4 -->
<g id="Node000004" class="node">
<title>Node4</title>
<g id="a_Node000004"><a xlink:href="classLogger.html#adce17848a5844e053bfd314863dc1404" target="_top" xlink:title="Log error message.">
<polygon fill="white" stroke="#666666" points="706.5,-93 627.5,-93 627.5,-74 706.5,-74 706.5,-93"/>
<text text-anchor="middle" x="667" y="-81" font-family="Helvetica,sans-Serif" font-size="10.00">Logger::Error</text>
</a>
</g>
</g>
<!-- Node3&#45;&gt;Node4 -->
<g id="edge3_Node000003_Node000004" class="edge">
<title>Node3&#45;&gt;Node4</title>
<g id="a_edge3_Node000003_Node000004"><a xlink:title=" ">
<path fill="none" stroke="#63b8ff" d="M543.49,-56.03C566.13,-61.11 594.08,-67.37 617.56,-72.64"/>
<polygon fill="#63b8ff" stroke="#63b8ff" points="616.8,-76.05 627.32,-74.83 618.33,-69.22 616.8,-76.05"/>
</a>
</g>
</g>
<!-- Node3&#45;&gt;Node7 -->
<g id="edge6_Node000003_Node000007" class="edge">
<title>Node3&#45;&gt;Node7</title>
<g id="a_edge6_Node000003_Node000007"><a xlink:title=" ">
<path fill="none" stroke="#63b8ff" d="M543.49,-36.97C564.87,-32.18 590.97,-26.32 613.58,-21.25"/>
<polygon fill="#63b8ff" stroke="#63b8ff" points="614.37,-24.66 623.37,-19.06 612.84,-17.83 614.37,-24.66"/>
</a>
</g>
</g>
<!-- Node8 -->
<g id="Node000008" class="node">
<title>Node8</title>
<g id="a_Node000008"><a xlink:href="classLogger.html#a4681229c521795685fc14f6b55c82300" target="_top" xlink:title="Log info message.">
<polygon fill="white" stroke="#666666" points="704,-56 630,-56 630,-37 704,-37 704,-56"/>
<text text-anchor="middle" x="667" y="-44" font-family="Helvetica,sans-Serif" font-size="10.00">Logger::Info</text>
</a>
</g>
</g>
<!-- Node3&#45;&gt;Node8 -->
<g id="edge7_Node000003_Node000008" class="edge">
<title>Node3&#45;&gt;Node8</title>
<g id="a_edge7_Node000003_Node000008"><a xlink:title=" ">
<path fill="none" stroke="#63b8ff" d="M574.33,-46.5C589.7,-46.5 605.49,-46.5 619.54,-46.5"/>
<polygon fill="#63b8ff" stroke="#63b8ff" points="619.92,-50 629.92,-46.5 619.92,-43 619.92,-50"/>
</a>
</g>
</g>
<!-- Node5 -->
<g id="Node000005" class="node">
<title>Node5</title>
<g id="a_Node000005"><a xlink:href="classLogger.html#af9e84e0ff6bd538e4f9ed8dcebc3e2f0" target="_top" xlink:title="Check if log level is enabled for tag.">
<polygon fill="white" stroke="#666666" points="889,-111 760,-111 760,-92 889,-92 889,-111"/>
<text text-anchor="middle" x="824.5" y="-99" font-family="Helvetica,sans-Serif" font-size="10.00">Logger::IsLevelEnabled</text>
</a>
</g>
</g>
<!-- Node4&#45;&gt;Node5 -->
<g id="edge4_Node000004_Node000005" class="edge">
<title>Node4&#45;&gt;Node5</title>
<g id="a_edge4_Node000004_Node000005"><a xlink:title=" ">
<path fill="none" stroke="#63b8ff" d="M706.84,-88C719.85,-89.5 734.82,-91.23 749.6,-92.95"/>
<polygon fill="#63b8ff" stroke="#63b8ff" points="749.44,-96.45 759.78,-94.12 750.25,-89.5 749.44,-96.45"/>
</a>
</g>
</g>
<!-- Node6 -->
<g id="Node000006" class="node">
<title>Node6</title>
<g id="a_Node000006"><a xlink:href="classLogger.html#a6adb205db597526fb91ad20067400394" target="_top" xlink:title="Internal logging method.">
<polygon fill="white" stroke="#666666" points="879.5,-74 769.5,-74 769.5,-55 879.5,-55 879.5,-74"/>
<text text-anchor="middle" x="824.5" y="-62" font-family="Helvetica,sans-Serif" font-size="10.00">Logger::LogInternal</text>
</a>
</g>
</g>
<!-- Node4&#45;&gt;Node6 -->
<g id="edge5_Node000004_Node000006" class="edge">
<title>Node4&#45;&gt;Node6</title>
<g id="a_edge5_Node000004_Node000006"><a xlink:title=" ">
<path fill="none" stroke="#63b8ff" d="M706.84,-78.75C722.63,-76.82 741.31,-74.54 759.03,-72.38"/>
<polygon fill="#63b8ff" stroke="#63b8ff" points="759.83,-75.81 769.33,-71.12 758.98,-68.86 759.83,-75.81"/>
</a>
</g>
</g>
<!-- Node8&#45;&gt;Node5 -->
<g id="edge8_Node000008_Node000005" class="edge">
<title>Node8&#45;&gt;Node5</title>
<g id="a_edge8_Node000008_Node000005"><a xlink:title=" ">
<path fill="none" stroke="#63b8ff" d="M700.58,-56.05C708.34,-58.57 716.53,-61.45 724,-64.5 740.56,-71.26 743.37,-75.91 760,-82.5 765.62,-84.73 771.61,-86.84 777.57,-88.79"/>
<polygon fill="#63b8ff" stroke="#63b8ff" points="776.94,-92.26 787.53,-91.92 779.04,-85.58 776.94,-92.26"/>
</a>
</g>
</g>
<!-- Node8&#45;&gt;Node6 -->
<g id="edge9_Node000008_Node000006" class="edge">
<title>Node8&#45;&gt;Node6</title>
<g id="a_edge9_Node000008_Node000006"><a xlink:title=" ">
<path fill="none" stroke="#63b8ff" d="M704.07,-50.67C720.49,-52.58 740.44,-54.89 759.3,-57.07"/>
<polygon fill="#63b8ff" stroke="#63b8ff" points="759,-60.56 769.33,-58.23 759.8,-53.6 759,-60.56"/>
</a>
</g>
</g>
<!-- Node10&#45;&gt;Node5 -->
<g id="edge13_Node000010_Node000005" class="edge">
<title>Node10&#45;&gt;Node5</title>
<g id="a_edge13_Node000010_Node000005"><a xlink:title=" ">
<path fill="none" stroke="#63b8ff" d="M707.24,-115.71C720.18,-114.12 735.02,-112.31 749.68,-110.52"/>
<polygon fill="#63b8ff" stroke="#63b8ff" points="750.27,-113.97 759.77,-109.29 749.42,-107.03 750.27,-113.97"/>
</a>
</g>
</g>
<!-- Node10&#45;&gt;Node6 -->
<g id="edge14_Node000010_Node000006" class="edge">
<title>Node10&#45;&gt;Node6</title>
<g id="a_edge14_Node000010_Node000006"><a xlink:title=" ">
<path fill="none" stroke="#63b8ff" d="M701.27,-110.99C708.84,-108.5 716.79,-105.63 724,-102.5 740.79,-95.22 743.08,-89.49 760,-82.5 764.71,-80.55 769.7,-78.74 774.73,-77.07"/>
<polygon fill="#63b8ff" stroke="#63b8ff" points="775.9,-80.38 784.4,-74.05 773.81,-73.7 775.9,-80.38"/>
</a>
</g>
</g>
</g>
</svg>
