<?xml version="1.0" encoding="UTF-8" standalone="no"?>
<!DOCTYPE svg PUBLIC "-//W3C//DTD SVG 1.1//EN"
 "http://www.w3.org/Graphics/SVG/1.1/DTD/svg11.dtd">
<!-- Generated by graphviz version 2.43.0 (0)
 -->
<!-- Title: Tmc5160Handler::visitDriver Pages: 1 -->
<svg width="1110pt" height="138pt"
 viewBox="0.00 0.00 1110.00 138.00" xmlns="http://www.w3.org/2000/svg" xmlns:xlink="http://www.w3.org/1999/xlink">
<g id="graph0" class="graph" transform="scale(1 1) rotate(0) translate(4 134)">
<title>Tmc5160Handler::visitDriver</title>
<!-- Node1 -->
<g id="Node000001" class="node">
<title>Node1</title>
<g id="a_Node000001"><a xlink:title="Visit the typed driver with a callable.">
<polygon fill="#999999" stroke="#666666" points="157,-74 0,-74 0,-55 157,-55 157,-74"/>
<text text-anchor="middle" x="78.5" y="-62" font-family="Helvetica,sans-Serif" font-size="10.00">Tmc5160Handler::visitDriver</text>
</a>
</g>
</g>
<!-- Node2 -->
<g id="Node000002" class="node">
<title>Node2</title>
<g id="a_Node000002"><a xlink:href="classTmc5160Handler.html#a5ad276d4fcd81765d0a5af064fdbf7b5" target="_top" xlink:title="Ensure driver is initialized (lazy init entrypoint).">
<polygon fill="white" stroke="#666666" points="380,-74 193,-74 193,-55 380,-55 380,-74"/>
<text text-anchor="middle" x="286.5" y="-62" font-family="Helvetica,sans-Serif" font-size="10.00">Tmc5160Handler::EnsureInitialized</text>
</a>
</g>
</g>
<!-- Node1&#45;&gt;Node2 -->
<g id="edge1_Node000001_Node000002" class="edge">
<title>Node1&#45;&gt;Node2</title>
<g id="a_edge1_Node000001_Node000002"><a xlink:title=" ">
<path fill="none" stroke="#63b8ff" d="M157.09,-64.5C165.45,-64.5 174.05,-64.5 182.65,-64.5"/>
<polygon fill="#63b8ff" stroke="#63b8ff" points="182.72,-68 192.72,-64.5 182.72,-61 182.72,-68"/>
</a>
</g>
</g>
<!-- Node3 -->
<g id="Node000003" class="node">
<title>Node3</title>
<g id="a_Node000003"><a xlink:href="classTmc5160Handler.html#a6d4fce2433e03bb11b05a4278ef66fd0" target="_top" xlink:title=" ">
<polygon fill="white" stroke="#666666" points="603,-79.5 416,-79.5 416,-49.5 603,-49.5 603,-79.5"/>
<text text-anchor="start" x="424" y="-67.5" font-family="Helvetica,sans-Serif" font-size="10.00">Tmc5160Handler::EnsureInitialized</text>
<text text-anchor="middle" x="509.5" y="-56.5" font-family="Helvetica,sans-Serif" font-size="10.00">Locked</text>
</a>
</g>
</g>
<!-- Node2&#45;&gt;Node3 -->
<g id="edge2_Node000002_Node000003" class="edge">
<title>Node2&#45;&gt;Node3</title>
<g id="a_edge2_Node000002_Node000003"><a xlink:title=" ">
<path fill="none" stroke="#63b8ff" d="M380.26,-64.5C388.75,-64.5 397.39,-64.5 405.96,-64.5"/>
<polygon fill="#63b8ff" stroke="#63b8ff" points="405.97,-68 415.97,-64.5 405.97,-61 405.97,-68"/>
</a>
</g>
</g>
<!-- Node4 -->
<g id="Node000004" class="node">
<title>Node4</title>
<g id="a_Node000004"><a xlink:href="classTmc5160Handler.html#a44ab36857e4e43062f81f7d6f10eab09" target="_top" xlink:title="Initialize the TMC5160 driver with full configuration.">
<polygon fill="white" stroke="#666666" points="787,-74 639,-74 639,-55 787,-55 787,-74"/>
<text text-anchor="middle" x="713" y="-62" font-family="Helvetica,sans-Serif" font-size="10.00">Tmc5160Handler::Initialize</text>
</a>
</g>
</g>
<!-- Node3&#45;&gt;Node4 -->
<g id="edge3_Node000003_Node000004" class="edge">
<title>Node3&#45;&gt;Node4</title>
<g id="a_edge3_Node000003_Node000004"><a xlink:title=" ">
<path fill="none" stroke="#63b8ff" d="M603.29,-64.5C611.73,-64.5 620.25,-64.5 628.61,-64.5"/>
<polygon fill="#63b8ff" stroke="#63b8ff" points="628.7,-68 638.7,-64.5 628.7,-61 628.7,-68"/>
</a>
</g>
</g>
<!-- Node5 -->
<g id="Node000005" class="node">
<title>Node5</title>
<g id="a_Node000005"><a xlink:href="classLogger.html#adce17848a5844e053bfd314863dc1404" target="_top" xlink:title="Log error message.">
<polygon fill="white" stroke="#666666" points="919.5,-130 840.5,-130 840.5,-111 919.5,-111 919.5,-130"/>
<text text-anchor="middle" x="880" y="-118" font-family="Helvetica,sans-Serif" font-size="10.00">Logger::Error</text>
</a>
</g>
</g>
<!-- Node4&#45;&gt;Node5 -->
<g id="edge4_Node000004_Node000005" class="edge">
<title>Node4&#45;&gt;Node5</title>
<g id="a_edge4_Node000004_Node000005"><a xlink:title=" ">
<path fill="none" stroke="#63b8ff" d="M740.81,-74.05C762.84,-81.85 794.88,-93.08 823,-102.5 828.2,-104.24 833.69,-106.05 839.12,-107.81"/>
<polygon fill="#63b8ff" stroke="#63b8ff" points="838.14,-111.17 848.73,-110.92 840.29,-104.51 838.14,-111.17"/>
</a>
</g>
</g>
<!-- Node8 -->
<g id="Node000008" class="node">
<title>Node8</title>
<g id="a_Node000008"><a xlink:href="classLogger.html#a5789d11f8f1356e2192c0023a089cbc4" target="_top" xlink:title="Get singleton instance.">
<polygon fill="white" stroke="#666666" points="937,-19 823,-19 823,0 937,0 937,-19"/>
<text text-anchor="middle" x="880" y="-7" font-family="Helvetica,sans-Serif" font-size="10.00">Logger::GetInstance</text>
</a>
</g>
</g>
<!-- Node4&#45;&gt;Node8 -->
<g id="edge7_Node000004_Node000008" class="edge">
<title>Node4&#45;&gt;Node8</title>
<g id="a_edge7_Node000004_Node000008"><a xlink:title=" ">
<path fill="none" stroke="#63b8ff" d="M741.73,-54.95C763.74,-47.4 795.3,-36.65 823,-27.5 828.27,-25.76 833.83,-23.94 839.32,-22.17"/>
<polygon fill="#63b8ff" stroke="#63b8ff" points="840.59,-25.43 849.04,-19.03 838.44,-18.77 840.59,-25.43"/>
</a>
</g>
</g>
<!-- Node9 -->
<g id="Node000009" class="node">
<title>Node9</title>
<g id="a_Node000009"><a xlink:href="classLogger.html#a4681229c521795685fc14f6b55c82300" target="_top" xlink:title="Log info message.">
<polygon fill="white" stroke="#666666" points="917,-93 843,-93 843,-74 917,-74 917,-93"/>
<text text-anchor="middle" x="880" y="-81" font-family="Helvetica,sans-Serif" font-size="10.00">Logger::Info</text>
</a>
</g>
</g>
<!-- Node4&#45;&gt;Node9 -->
<g id="edge8_Node000004_Node000009" class="edge">
<title>Node4&#45;&gt;Node9</title>
<g id="a_edge8_Node000004_Node000009"><a xlink:title=" ">
<path fill="none" stroke="#63b8ff" d="M787.33,-72.94C802.85,-74.73 818.8,-76.57 832.96,-78.2"/>
<polygon fill="#63b8ff" stroke="#63b8ff" points="832.58,-81.68 842.92,-79.35 833.38,-74.72 832.58,-81.68"/>
</a>
</g>
</g>
<!-- Node10 -->
<g id="Node000010" class="node">
<title>Node10</title>
<g id="a_Node000010"><a xlink:href="classLogger.html#aaa95ffa14d07a965d4a85bdec82cba26" target="_top" xlink:title="Log warning message.">
<polygon fill="white" stroke="#666666" points="920,-56 840,-56 840,-37 920,-37 920,-56"/>
<text text-anchor="middle" x="880" y="-44" font-family="Helvetica,sans-Serif" font-size="10.00">Logger::Warn</text>
</a>
</g>
</g>
<!-- Node4&#45;&gt;Node10 -->
<g id="edge11_Node000004_Node000010" class="edge">
<title>Node4&#45;&gt;Node10</title>
<g id="a_edge11_Node000004_Node000010"><a xlink:title=" ">
<path fill="none" stroke="#63b8ff" d="M787.33,-56.5C801.59,-54.94 816.23,-53.35 829.49,-51.9"/>
<polygon fill="#63b8ff" stroke="#63b8ff" points="830.25,-55.34 839.81,-50.78 829.49,-48.38 830.25,-55.34"/>
</a>
</g>
</g>
<!-- Node6 -->
<g id="Node000006" class="node">
<title>Node6</title>
<g id="a_Node000006"><a xlink:href="classLogger.html#af9e84e0ff6bd538e4f9ed8dcebc3e2f0" target="_top" xlink:title="Check if log level is enabled for tag.">
<polygon fill="white" stroke="#666666" points="1102,-111 973,-111 973,-92 1102,-92 1102,-111"/>
<text text-anchor="middle" x="1037.5" y="-99" font-family="Helvetica,sans-Serif" font-size="10.00">Logger::IsLevelEnabled</text>
</a>
</g>
</g>
<!-- Node5&#45;&gt;Node6 -->
<g id="edge5_Node000005_Node000006" class="edge">
<title>Node5&#45;&gt;Node6</title>
<g id="a_edge5_Node000005_Node000006"><a xlink:title=" ">
<path fill="none" stroke="#63b8ff" d="M919.84,-115.75C932.85,-114.16 947.82,-112.34 962.6,-110.53"/>
<polygon fill="#63b8ff" stroke="#63b8ff" points="963.28,-113.97 972.78,-109.29 962.43,-107.02 963.28,-113.97"/>
</a>
</g>
</g>
<!-- Node7 -->
<g id="Node000007" class="node">
<title>Node7</title>
<g id="a_Node000007"><a xlink:href="classLogger.html#a6adb205db597526fb91ad20067400394" target="_top" xlink:title="Internal logging method.">
<polygon fill="white" stroke="#666666" points="1092.5,-74 982.5,-74 982.5,-55 1092.5,-55 1092.5,-74"/>
<text text-anchor="middle" x="1037.5" y="-62" font-family="Helvetica,sans-Serif" font-size="10.00">Logger::LogInternal</text>
</a>
</g>
</g>
<!-- Node5&#45;&gt;Node7 -->
<g id="edge6_Node000005_Node000007" class="edge">
<title>Node5&#45;&gt;Node7</title>
<g id="a_edge6_Node000005_Node000007"><a xlink:title=" ">
<path fill="none" stroke="#63b8ff" d="M913.92,-110.98C921.59,-108.47 929.66,-105.59 937,-102.5 953.68,-95.48 956.25,-90.35 973,-83.5 978.53,-81.24 984.42,-79.12 990.31,-77.16"/>
<polygon fill="#63b8ff" stroke="#63b8ff" points="991.67,-80.41 1000.14,-74.05 989.55,-73.73 991.67,-80.41"/>
</a>
</g>
</g>
<!-- Node9&#45;&gt;Node6 -->
<g id="edge9_Node000009_Node000006" class="edge">
<title>Node9&#45;&gt;Node6</title>
<g id="a_edge9_Node000009_Node000006"><a xlink:title=" ">
<path fill="none" stroke="#63b8ff" d="M917.07,-87.67C930.68,-89.25 946.72,-91.11 962.55,-92.94"/>
<polygon fill="#63b8ff" stroke="#63b8ff" points="962.55,-96.46 972.89,-94.14 963.36,-89.51 962.55,-96.46"/>
</a>
</g>
</g>
<!-- Node9&#45;&gt;Node7 -->
<g id="edge10_Node000009_Node000007" class="edge">
<title>Node9&#45;&gt;Node7</title>
<g id="a_edge10_Node000009_Node000007"><a xlink:title=" ">
<path fill="none" stroke="#63b8ff" d="M917.07,-79.09C933.49,-77.09 953.44,-74.65 972.3,-72.34"/>
<polygon fill="#63b8ff" stroke="#63b8ff" points="972.83,-75.81 982.33,-71.12 971.98,-68.86 972.83,-75.81"/>
</a>
</g>
</g>
<!-- Node10&#45;&gt;Node6 -->
<g id="edge12_Node000010_Node000006" class="edge">
<title>Node10&#45;&gt;Node6</title>
<g id="a_edge12_Node000010_Node000006"><a xlink:title=" ">
<path fill="none" stroke="#63b8ff" d="M911.51,-56.01C919.86,-58.84 928.85,-62.1 937,-65.5 953.51,-72.39 956.32,-77.03 973,-83.5 978.07,-85.47 983.45,-87.33 988.85,-89.05"/>
<polygon fill="#63b8ff" stroke="#63b8ff" points="987.92,-92.42 998.51,-91.99 989.96,-85.73 987.92,-92.42"/>
</a>
</g>
</g>
<!-- Node10&#45;&gt;Node7 -->
<g id="edge13_Node000010_Node000007" class="edge">
<title>Node10&#45;&gt;Node7</title>
<g id="a_edge13_Node000010_Node000007"><a xlink:title=" ">
<path fill="none" stroke="#63b8ff" d="M920.24,-51.04C935.96,-52.86 954.49,-55.01 972.08,-57.04"/>
<polygon fill="#63b8ff" stroke="#63b8ff" points="971.96,-60.55 982.3,-58.23 972.77,-53.6 971.96,-60.55"/>
</a>
</g>
</g>
</g>
</svg>
