<?xml version="1.0" encoding="UTF-8" standalone="no"?>
<!DOCTYPE svg PUBLIC "-//W3C//DTD SVG 1.1//EN"
 "http://www.w3.org/Graphics/SVG/1.1/DTD/svg11.dtd">
<!-- Generated by graphviz version 2.43.0 (0)
 -->
<!-- Title: NtcTemperatureHandler::Deinitialize Pages: 1 -->
<svg width="644pt" height="85pt"
 viewBox="0.00 0.00 644.00 85.00" xmlns="http://www.w3.org/2000/svg" xmlns:xlink="http://www.w3.org/1999/xlink">
<g id="graph0" class="graph" transform="scale(1 1) rotate(0) translate(4 81)">
<title>NtcTemperatureHandler::Deinitialize</title>
<!-- Node1 -->
<g id="Node000001" class="node">
<title>Node1</title>
<g id="a_Node000001"><a xlink:title=" ">
<polygon fill="#999999" stroke="#666666" points="133,-62.5 0,-62.5 0,-32.5 133,-32.5 133,-62.5"/>
<text text-anchor="start" x="8" y="-50.5" font-family="Helvetica,sans-Serif" font-size="10.00">NtcTemperatureHandler</text>
<text text-anchor="middle" x="66.5" y="-39.5" font-family="Helvetica,sans-Serif" font-size="10.00">::Deinitialize</text>
</a>
</g>
</g>
<!-- Node2 -->
<g id="Node000002" class="node">
<title>Node2</title>
<g id="a_Node000002"><a xlink:href="classLogger.html#a5789d11f8f1356e2192c0023a089cbc4" target="_top" xlink:title="Get singleton instance.">
<polygon fill="white" stroke="#666666" points="471,-77 357,-77 357,-58 471,-58 471,-77"/>
<text text-anchor="middle" x="414" y="-65" font-family="Helvetica,sans-Serif" font-size="10.00">Logger::GetInstance</text>
</a>
</g>
</g>
<!-- Node1&#45;&gt;Node2 -->
<g id="edge1_Node000001_Node000002" class="edge">
<title>Node1&#45;&gt;Node2</title>
<g id="a_edge1_Node000001_Node000002"><a xlink:title=" ">
<path fill="none" stroke="#63b8ff" d="M120.82,-62.56C136.23,-66.24 153.17,-69.65 169,-71.5 228.72,-78.46 297.2,-76.48 346.39,-73.33"/>
<polygon fill="#63b8ff" stroke="#63b8ff" points="346.84,-76.8 356.58,-72.64 346.37,-69.82 346.84,-76.8"/>
</a>
</g>
</g>
<!-- Node3 -->
<g id="Node000003" class="node">
<title>Node3</title>
<g id="a_Node000003"><a xlink:href="classLogger.html#a1c0c947d87884bca0395fd38d19d1102" target="_top" xlink:title="Log info message.">
<polygon fill="white" stroke="#666666" points="451,-37 377,-37 377,-18 451,-18 451,-37"/>
<text text-anchor="middle" x="414" y="-25" font-family="Helvetica,sans-Serif" font-size="10.00">Logger::Info</text>
</a>
</g>
</g>
<!-- Node1&#45;&gt;Node3 -->
<g id="edge2_Node000001_Node000003" class="edge">
<title>Node1&#45;&gt;Node3</title>
<g id="a_edge2_Node000001_Node000003"><a xlink:title=" ">
<path fill="none" stroke="#63b8ff" d="M120.82,-32.44C136.23,-28.76 153.17,-25.35 169,-23.5 237.56,-15.51 317.67,-19.31 366.87,-23.13"/>
<polygon fill="#63b8ff" stroke="#63b8ff" points="366.63,-26.62 376.88,-23.94 367.2,-19.64 366.63,-26.62"/>
</a>
</g>
</g>
<!-- Node6 -->
<g id="Node000006" class="node">
<title>Node6</title>
<g id="a_Node000006"><a xlink:href="classNtcTemperatureHandler.html#a7cd3aa59989bec0514d6717d345d8466" target="_top" xlink:title=" ">
<polygon fill="white" stroke="#666666" points="321,-62.5 169,-62.5 169,-32.5 321,-32.5 321,-62.5"/>
<text text-anchor="start" x="177" y="-50.5" font-family="Helvetica,sans-Serif" font-size="10.00">NtcTemperatureHandler</text>
<text text-anchor="middle" x="245" y="-39.5" font-family="Helvetica,sans-Serif" font-size="10.00">::StopContinuousMonitoring</text>
</a>
</g>
</g>
<!-- Node1&#45;&gt;Node6 -->
<g id="edge5_Node000001_Node000006" class="edge">
<title>Node1&#45;&gt;Node6</title>
<g id="a_edge5_Node000001_Node000006"><a xlink:title=" ">
<path fill="none" stroke="#63b8ff" d="M133.22,-47.5C141.53,-47.5 150.13,-47.5 158.69,-47.5"/>
<polygon fill="#63b8ff" stroke="#63b8ff" points="158.71,-51 168.71,-47.5 158.71,-44 158.71,-51"/>
</a>
</g>
</g>
<!-- Node4 -->
<g id="Node000004" class="node">
<title>Node4</title>
<g id="a_Node000004"><a xlink:href="classLogger.html#a737b981213c02321a5235848334d7191" target="_top" xlink:title="Check if log level is enabled for tag.">
<polygon fill="white" stroke="#666666" points="636,-56 507,-56 507,-37 636,-37 636,-56"/>
<text text-anchor="middle" x="571.5" y="-44" font-family="Helvetica,sans-Serif" font-size="10.00">Logger::IsLevelEnabled</text>
</a>
</g>
</g>
<!-- Node3&#45;&gt;Node4 -->
<g id="edge3_Node000003_Node000004" class="edge">
<title>Node3&#45;&gt;Node4</title>
<g id="a_edge3_Node000003_Node000004"><a xlink:title=" ">
<path fill="none" stroke="#63b8ff" d="M451.07,-31.91C464.68,-33.57 480.72,-35.53 496.55,-37.46"/>
<polygon fill="#63b8ff" stroke="#63b8ff" points="496.54,-40.99 506.89,-38.73 497.39,-34.04 496.54,-40.99"/>
</a>
</g>
</g>
<!-- Node5 -->
<g id="Node000005" class="node">
<title>Node5</title>
<g id="a_Node000005"><a xlink:href="classLogger.html#aeede6ac18db92a47caede076ef188a13" target="_top" xlink:title="Internal logging method.">
<polygon fill="white" stroke="#666666" points="626.5,-19 516.5,-19 516.5,0 626.5,0 626.5,-19"/>
<text text-anchor="middle" x="571.5" y="-7" font-family="Helvetica,sans-Serif" font-size="10.00">Logger::LogInternal</text>
</a>
</g>
</g>
<!-- Node3&#45;&gt;Node5 -->
<g id="edge4_Node000003_Node000005" class="edge">
<title>Node3&#45;&gt;Node5</title>
<g id="a_edge4_Node000003_Node000005"><a xlink:title=" ">
<path fill="none" stroke="#63b8ff" d="M451.07,-23.33C467.49,-21.42 487.44,-19.11 506.3,-16.93"/>
<polygon fill="#63b8ff" stroke="#63b8ff" points="506.8,-20.4 516.33,-15.77 506,-13.44 506.8,-20.4"/>
</a>
</g>
</g>
<!-- Node6&#45;&gt;Node2 -->
<g id="edge6_Node000006_Node000002" class="edge">
<title>Node6&#45;&gt;Node2</title>
<g id="a_edge6_Node000006_Node000002"><a xlink:title=" ">
<path fill="none" stroke="#63b8ff" d="M321.19,-56.51C329.69,-57.52 338.3,-58.55 346.67,-59.56"/>
<polygon fill="#63b8ff" stroke="#63b8ff" points="346.39,-63.05 356.73,-60.76 347.22,-56.1 346.39,-63.05"/>
</a>
</g>
</g>
<!-- Node6&#45;&gt;Node3 -->
<g id="edge7_Node000006_Node000003" class="edge">
<title>Node6&#45;&gt;Node3</title>
<g id="a_edge7_Node000006_Node000003"><a xlink:title=" ">
<path fill="none" stroke="#63b8ff" d="M321.19,-38.49C336.8,-36.63 352.8,-34.71 366.97,-33.01"/>
<polygon fill="#63b8ff" stroke="#63b8ff" points="367.43,-36.48 376.94,-31.82 366.6,-29.53 367.43,-36.48"/>
</a>
</g>
</g>
</g>
</svg>
