<?xml version="1.0" encoding="UTF-8" standalone="no"?>
<!DOCTYPE svg PUBLIC "-//W3C//DTD SVG 1.1//EN"
 "http://www.w3.org/Graphics/SVG/1.1/DTD/svg11.dtd">
<!-- Generated by graphviz version 2.43.0 (0)
 -->
<!-- Title: Max22200Handler::DisableAllChannels Pages: 1 -->
<svg width="1090pt" height="138pt"
 viewBox="0.00 0.00 1090.00 138.00" xmlns="http://www.w3.org/2000/svg" xmlns:xlink="http://www.w3.org/1999/xlink">
<g id="graph0" class="graph" transform="scale(1 1) rotate(0) translate(4 134)">
<title>Max22200Handler::DisableAllChannels</title>
<!-- Node1 -->
<g id="Node000001" class="node">
<title>Node1</title>
<g id="a_Node000001"><a xlink:title="Disable all channels.">
<polygon fill="#999999" stroke="#666666" points="149,-88.5 0,-88.5 0,-58.5 149,-58.5 149,-88.5"/>
<text text-anchor="start" x="8" y="-76.5" font-family="Helvetica,sans-Serif" font-size="10.00">Max22200Handler::Disable</text>
<text text-anchor="middle" x="74.5" y="-65.5" font-family="Helvetica,sans-Serif" font-size="10.00">AllChannels</text>
</a>
</g>
</g>
<!-- Node2 -->
<g id="Node000002" class="node">
<title>Node2</title>
<g id="a_Node000002"><a xlink:href="classMax22200Handler.html#abcdd9746a0df9c28bb36508d52d80ef5" target="_top" xlink:title="Execute a lambda with a locked, initialized driver.">
<polygon fill="white" stroke="#666666" points="348,-83 185,-83 185,-64 348,-64 348,-83"/>
<text text-anchor="middle" x="266.5" y="-71" font-family="Helvetica,sans-Serif" font-size="10.00">Max22200Handler::withDriver</text>
</a>
</g>
</g>
<!-- Node1&#45;&gt;Node2 -->
<g id="edge1_Node000001_Node000002" class="edge">
<title>Node1&#45;&gt;Node2</title>
<g id="a_edge1_Node000001_Node000002"><a xlink:title=" ">
<path fill="none" stroke="#63b8ff" d="M149.23,-73.5C157.63,-73.5 166.26,-73.5 174.84,-73.5"/>
<polygon fill="#63b8ff" stroke="#63b8ff" points="174.88,-77 184.88,-73.5 174.88,-70 174.88,-77"/>
</a>
</g>
</g>
<!-- Node3 -->
<g id="Node000003" class="node">
<title>Node3</title>
<g id="a_Node000003"><a xlink:href="classMax22200Handler.html#aa00edacb247660349767fa4521121104" target="_top" xlink:title=" ">
<polygon fill="white" stroke="#666666" points="577,-88.5 384,-88.5 384,-58.5 577,-58.5 577,-88.5"/>
<text text-anchor="start" x="392" y="-76.5" font-family="Helvetica,sans-Serif" font-size="10.00">Max22200Handler::EnsureInitialized</text>
<text text-anchor="middle" x="480.5" y="-65.5" font-family="Helvetica,sans-Serif" font-size="10.00">Locked</text>
</a>
</g>
</g>
<!-- Node2&#45;&gt;Node3 -->
<g id="edge2_Node000002_Node000003" class="edge">
<title>Node2&#45;&gt;Node3</title>
<g id="a_edge2_Node000002_Node000003"><a xlink:title=" ">
<path fill="none" stroke="#63b8ff" d="M348.25,-73.5C356.58,-73.5 365.13,-73.5 373.67,-73.5"/>
<polygon fill="#63b8ff" stroke="#63b8ff" points="373.69,-77 383.69,-73.5 373.69,-70 373.69,-77"/>
</a>
</g>
</g>
<!-- Node4 -->
<g id="Node000004" class="node">
<title>Node4</title>
<g id="a_Node000004"><a xlink:href="classLogger.html#adce17848a5844e053bfd314863dc1404" target="_top" xlink:title="Log error message.">
<polygon fill="white" stroke="#666666" points="899.5,-130 820.5,-130 820.5,-111 899.5,-111 899.5,-130"/>
<text text-anchor="middle" x="860" y="-118" font-family="Helvetica,sans-Serif" font-size="10.00">Logger::Error</text>
</a>
</g>
</g>
<!-- Node3&#45;&gt;Node4 -->
<g id="edge3_Node000003_Node000004" class="edge">
<title>Node3&#45;&gt;Node4</title>
<g id="a_edge3_Node000003_Node000004"><a xlink:title=" ">
<path fill="none" stroke="#63b8ff" d="M577.33,-87.69C589.34,-89.37 601.45,-91.01 613,-92.5 681.26,-101.31 760.36,-110.06 810.04,-115.37"/>
<polygon fill="#63b8ff" stroke="#63b8ff" points="809.87,-118.87 820.18,-116.45 810.61,-111.91 809.87,-118.87"/>
</a>
</g>
</g>
<!-- Node7 -->
<g id="Node000007" class="node">
<title>Node7</title>
<g id="a_Node000007"><a xlink:href="classLogger.html#a5789d11f8f1356e2192c0023a089cbc4" target="_top" xlink:title="Get singleton instance.">
<polygon fill="white" stroke="#666666" points="917,-19 803,-19 803,0 917,0 917,-19"/>
<text text-anchor="middle" x="860" y="-7" font-family="Helvetica,sans-Serif" font-size="10.00">Logger::GetInstance</text>
</a>
</g>
</g>
<!-- Node3&#45;&gt;Node7 -->
<g id="edge6_Node000003_Node000007" class="edge">
<title>Node3&#45;&gt;Node7</title>
<g id="a_edge6_Node000003_Node000007"><a xlink:title=" ">
<path fill="none" stroke="#63b8ff" d="M570.01,-58.49C638.23,-46.93 731.08,-31.19 792.92,-20.7"/>
<polygon fill="#63b8ff" stroke="#63b8ff" points="793.68,-24.12 802.95,-19 792.51,-17.22 793.68,-24.12"/>
</a>
</g>
</g>
<!-- Node8 -->
<g id="Node000008" class="node">
<title>Node8</title>
<g id="a_Node000008"><a xlink:href="classMax22200Handler.html#ad6c72b45a96c36cd1b450f5e330fad25" target="_top" xlink:title="Initialize driver (ENABLE HIGH, read/clear STATUS, set ACTIVE).">
<polygon fill="white" stroke="#666666" points="767,-83 613,-83 613,-64 767,-64 767,-83"/>
<text text-anchor="middle" x="690" y="-71" font-family="Helvetica,sans-Serif" font-size="10.00">Max22200Handler::Initialize</text>
</a>
</g>
</g>
<!-- Node3&#45;&gt;Node8 -->
<g id="edge7_Node000003_Node000008" class="edge">
<title>Node3&#45;&gt;Node8</title>
<g id="a_edge7_Node000003_Node000008"><a xlink:title=" ">
<path fill="none" stroke="#63b8ff" d="M577.05,-73.5C585.6,-73.5 594.22,-73.5 602.68,-73.5"/>
<polygon fill="#63b8ff" stroke="#63b8ff" points="602.9,-77 612.9,-73.5 602.9,-70 602.9,-77"/>
</a>
</g>
</g>
<!-- Node5 -->
<g id="Node000005" class="node">
<title>Node5</title>
<g id="a_Node000005"><a xlink:href="classLogger.html#af9e84e0ff6bd538e4f9ed8dcebc3e2f0" target="_top" xlink:title="Check if log level is enabled for tag.">
<polygon fill="white" stroke="#666666" points="1082,-111 953,-111 953,-92 1082,-92 1082,-111"/>
<text text-anchor="middle" x="1017.5" y="-99" font-family="Helvetica,sans-Serif" font-size="10.00">Logger::IsLevelEnabled</text>
</a>
</g>
</g>
<!-- Node4&#45;&gt;Node5 -->
<g id="edge4_Node000004_Node000005" class="edge">
<title>Node4&#45;&gt;Node5</title>
<g id="a_edge4_Node000004_Node000005"><a xlink:title=" ">
<path fill="none" stroke="#63b8ff" d="M899.84,-115.75C912.85,-114.16 927.82,-112.34 942.6,-110.53"/>
<polygon fill="#63b8ff" stroke="#63b8ff" points="943.28,-113.97 952.78,-109.29 942.43,-107.02 943.28,-113.97"/>
</a>
</g>
</g>
<!-- Node6 -->
<g id="Node000006" class="node">
<title>Node6</title>
<g id="a_Node000006"><a xlink:href="classLogger.html#a6adb205db597526fb91ad20067400394" target="_top" xlink:title="Internal logging method.">
<polygon fill="white" stroke="#666666" points="1072.5,-74 962.5,-74 962.5,-55 1072.5,-55 1072.5,-74"/>
<text text-anchor="middle" x="1017.5" y="-62" font-family="Helvetica,sans-Serif" font-size="10.00">Logger::LogInternal</text>
</a>
</g>
</g>
<!-- Node4&#45;&gt;Node6 -->
<g id="edge5_Node000004_Node000006" class="edge">
<title>Node4&#45;&gt;Node6</title>
<g id="a_edge5_Node000004_Node000006"><a xlink:title=" ">
<path fill="none" stroke="#63b8ff" d="M893.92,-110.98C901.59,-108.47 909.66,-105.59 917,-102.5 933.68,-95.48 936.25,-90.35 953,-83.5 958.53,-81.24 964.42,-79.12 970.31,-77.16"/>
<polygon fill="#63b8ff" stroke="#63b8ff" points="971.67,-80.41 980.14,-74.05 969.55,-73.73 971.67,-80.41"/>
</a>
</g>
</g>
<!-- Node8&#45;&gt;Node4 -->
<g id="edge8_Node000008_Node000004" class="edge">
<title>Node8&#45;&gt;Node4</title>
<g id="a_edge8_Node000008_Node000004"><a xlink:title=" ">
<path fill="none" stroke="#63b8ff" d="M725,-83.01C750.87,-90.25 786.7,-100.27 814.8,-108.13"/>
<polygon fill="#63b8ff" stroke="#63b8ff" points="814.19,-111.6 824.77,-110.92 816.08,-104.86 814.19,-111.6"/>
</a>
</g>
</g>
<!-- Node8&#45;&gt;Node7 -->
<g id="edge9_Node000008_Node000007" class="edge">
<title>Node8&#45;&gt;Node7</title>
<g id="a_edge9_Node000008_Node000007"><a xlink:title=" ">
<path fill="none" stroke="#63b8ff" d="M712.69,-64C735.11,-54.32 771.21,-39.12 803,-27.5 807.85,-25.73 812.97,-23.95 818.07,-22.25"/>
<polygon fill="#63b8ff" stroke="#63b8ff" points="819.34,-25.51 827.75,-19.06 817.16,-18.86 819.34,-25.51"/>
</a>
</g>
</g>
<!-- Node9 -->
<g id="Node000009" class="node">
<title>Node9</title>
<g id="a_Node000009"><a xlink:href="classLogger.html#a4681229c521795685fc14f6b55c82300" target="_top" xlink:title="Log info message.">
<polygon fill="white" stroke="#666666" points="897,-56 823,-56 823,-37 897,-37 897,-56"/>
<text text-anchor="middle" x="860" y="-44" font-family="Helvetica,sans-Serif" font-size="10.00">Logger::Info</text>
</a>
</g>
</g>
<!-- Node8&#45;&gt;Node9 -->
<g id="edge10_Node000008_Node000009" class="edge">
<title>Node8&#45;&gt;Node9</title>
<g id="a_edge10_Node000008_Node000009"><a xlink:title=" ">
<path fill="none" stroke="#63b8ff" d="M750.23,-63.98C770.73,-60.69 793.39,-57.04 812.7,-53.94"/>
<polygon fill="#63b8ff" stroke="#63b8ff" points="813.44,-57.37 822.75,-52.33 812.32,-50.46 813.44,-57.37"/>
</a>
</g>
</g>
<!-- Node10 -->
<g id="Node000010" class="node">
<title>Node10</title>
<g id="a_Node000010"><a xlink:href="classLogger.html#aaa95ffa14d07a965d4a85bdec82cba26" target="_top" xlink:title="Log warning message.">
<polygon fill="white" stroke="#666666" points="900,-93 820,-93 820,-74 900,-74 900,-93"/>
<text text-anchor="middle" x="860" y="-81" font-family="Helvetica,sans-Serif" font-size="10.00">Logger::Warn</text>
</a>
</g>
</g>
<!-- Node8&#45;&gt;Node10 -->
<g id="edge13_Node000008_Node000010" class="edge">
<title>Node8&#45;&gt;Node10</title>
<g id="a_edge13_Node000008_Node000010"><a xlink:title=" ">
<path fill="none" stroke="#63b8ff" d="M767.14,-78.03C781.52,-78.89 796.22,-79.76 809.52,-80.55"/>
<polygon fill="#63b8ff" stroke="#63b8ff" points="809.66,-84.07 819.85,-81.17 810.08,-77.08 809.66,-84.07"/>
</a>
</g>
</g>
<!-- Node9&#45;&gt;Node5 -->
<g id="edge11_Node000009_Node000005" class="edge">
<title>Node9&#45;&gt;Node5</title>
<g id="a_edge11_Node000009_Node000005"><a xlink:title=" ">
<path fill="none" stroke="#63b8ff" d="M891.51,-56.01C899.86,-58.84 908.85,-62.1 917,-65.5 933.51,-72.39 936.32,-77.03 953,-83.5 958.07,-85.47 963.45,-87.33 968.85,-89.05"/>
<polygon fill="#63b8ff" stroke="#63b8ff" points="967.92,-92.42 978.51,-91.99 969.96,-85.73 967.92,-92.42"/>
</a>
</g>
</g>
<!-- Node9&#45;&gt;Node6 -->
<g id="edge12_Node000009_Node000006" class="edge">
<title>Node9&#45;&gt;Node6</title>
<g id="a_edge12_Node000009_Node000006"><a xlink:title=" ">
<path fill="none" stroke="#63b8ff" d="M897.07,-50.67C913.49,-52.58 933.44,-54.89 952.3,-57.07"/>
<polygon fill="#63b8ff" stroke="#63b8ff" points="952,-60.56 962.33,-58.23 952.8,-53.6 952,-60.56"/>
</a>
</g>
</g>
<!-- Node10&#45;&gt;Node5 -->
<g id="edge14_Node000010_Node000005" class="edge">
<title>Node10&#45;&gt;Node5</title>
<g id="a_edge14_Node000010_Node000005"><a xlink:title=" ">
<path fill="none" stroke="#63b8ff" d="M900.24,-88.04C913.18,-89.54 928.02,-91.26 942.68,-92.95"/>
<polygon fill="#63b8ff" stroke="#63b8ff" points="942.43,-96.45 952.77,-94.12 943.24,-89.5 942.43,-96.45"/>
</a>
</g>
</g>
<!-- Node10&#45;&gt;Node6 -->
<g id="edge15_Node000010_Node000006" class="edge">
<title>Node10&#45;&gt;Node6</title>
<g id="a_edge15_Node000010_Node000006"><a xlink:title=" ">
<path fill="none" stroke="#63b8ff" d="M900.24,-78.71C915.96,-76.78 934.49,-74.52 952.08,-72.37"/>
<polygon fill="#63b8ff" stroke="#63b8ff" points="952.8,-75.81 962.3,-71.12 951.95,-68.86 952.8,-75.81"/>
</a>
</g>
</g>
</g>
</svg>
