<?xml version="1.0" encoding="UTF-8" standalone="no"?>
<!DOCTYPE svg PUBLIC "-//W3C//DTD SVG 1.1//EN"
 "http://www.w3.org/Graphics/SVG/1.1/DTD/svg11.dtd">
<!-- Generated by graphviz version 2.43.0 (0)
 -->
<!-- Title: Ws2812Handler::GetDriver Pages: 1 -->
<svg width="1224pt" height="138pt"
 viewBox="0.00 0.00 1224.00 138.00" xmlns="http://www.w3.org/2000/svg" xmlns:xlink="http://www.w3.org/1999/xlink">
<g id="graph0" class="graph" transform="scale(1 1) rotate(0) translate(4 134)">
<title>Ws2812Handler::GetDriver</title>
<!-- Node1 -->
<g id="Node000001" class="node">
<title>Node1</title>
<g id="a_Node000001"><a xlink:title=" ">
<polygon fill="#999999" stroke="#666666" points="147,-74 0,-74 0,-55 147,-55 147,-74"/>
<text text-anchor="middle" x="73.5" y="-62" font-family="Helvetica,sans-Serif" font-size="10.00">Ws2812Handler::GetDriver</text>
</a>
</g>
</g>
<!-- Node2 -->
<g id="Node000002" class="node">
<title>Node2</title>
<g id="a_Node000002"><a xlink:href="classWs2812Handler.html#a2511358625ce2eeb89eae9ca17495b6c" target="_top" xlink:title="Naming&#45;consistent alias of GetStrip().">
<polygon fill="white" stroke="#666666" points="330,-74 183,-74 183,-55 330,-55 330,-74"/>
<text text-anchor="middle" x="256.5" y="-62" font-family="Helvetica,sans-Serif" font-size="10.00">Ws2812Handler::GetDriver</text>
</a>
</g>
</g>
<!-- Node1&#45;&gt;Node2 -->
<g id="edge1_Node000001_Node000002" class="edge">
<title>Node1&#45;&gt;Node2</title>
<g id="a_edge1_Node000001_Node000002"><a xlink:title=" ">
<path fill="none" stroke="#63b8ff" d="M147.08,-64.5C155.56,-64.5 164.26,-64.5 172.87,-64.5"/>
<polygon fill="#63b8ff" stroke="#63b8ff" points="172.91,-68 182.91,-64.5 172.91,-61 172.91,-68"/>
</a>
</g>
</g>
<!-- Node3 -->
<g id="Node000003" class="node">
<title>Node3</title>
<g id="a_Node000003"><a xlink:href="classWs2812Handler.html#a7471840392adad3cab496e2dc57dc792" target="_top" xlink:title="Get the underlying LED strip object.">
<polygon fill="white" stroke="#666666" points="506,-74 366,-74 366,-55 506,-55 506,-74"/>
<text text-anchor="middle" x="436" y="-62" font-family="Helvetica,sans-Serif" font-size="10.00">Ws2812Handler::GetStrip</text>
</a>
</g>
</g>
<!-- Node2&#45;&gt;Node3 -->
<g id="edge2_Node000002_Node000003" class="edge">
<title>Node2&#45;&gt;Node3</title>
<g id="a_edge2_Node000002_Node000003"><a xlink:title=" ">
<path fill="none" stroke="#63b8ff" d="M330.21,-64.5C338.58,-64.5 347.15,-64.5 355.6,-64.5"/>
<polygon fill="#63b8ff" stroke="#63b8ff" points="355.84,-68 365.84,-64.5 355.84,-61 355.84,-68"/>
</a>
</g>
</g>
<!-- Node4 -->
<g id="Node000004" class="node">
<title>Node4</title>
<g id="a_Node000004"><a xlink:href="classWs2812Handler.html#afe5f397b22e9b92cf2fb2cebae6e123d" target="_top" xlink:title=" ">
<polygon fill="white" stroke="#666666" points="723,-79.5 542,-79.5 542,-49.5 723,-49.5 723,-79.5"/>
<text text-anchor="start" x="550" y="-67.5" font-family="Helvetica,sans-Serif" font-size="10.00">Ws2812Handler::EnsureInitialized</text>
<text text-anchor="middle" x="632.5" y="-56.5" font-family="Helvetica,sans-Serif" font-size="10.00">Locked</text>
</a>
</g>
</g>
<!-- Node3&#45;&gt;Node4 -->
<g id="edge3_Node000003_Node000004" class="edge">
<title>Node3&#45;&gt;Node4</title>
<g id="a_edge3_Node000003_Node000004"><a xlink:title=" ">
<path fill="none" stroke="#63b8ff" d="M506.12,-64.5C514.44,-64.5 523.06,-64.5 531.71,-64.5"/>
<polygon fill="#63b8ff" stroke="#63b8ff" points="531.85,-68 541.85,-64.5 531.85,-61 531.85,-68"/>
</a>
</g>
</g>
<!-- Node5 -->
<g id="Node000005" class="node">
<title>Node5</title>
<g id="a_Node000005"><a xlink:href="classWs2812Handler.html#acce4955435f295ba4853b6239090982f" target="_top" xlink:title="Initialize the RMT channel and LED strip.">
<polygon fill="white" stroke="#666666" points="901,-74 759,-74 759,-55 901,-55 901,-74"/>
<text text-anchor="middle" x="830" y="-62" font-family="Helvetica,sans-Serif" font-size="10.00">Ws2812Handler::Initialize</text>
</a>
</g>
</g>
<!-- Node4&#45;&gt;Node5 -->
<g id="edge4_Node000004_Node000005" class="edge">
<title>Node4&#45;&gt;Node5</title>
<g id="a_edge4_Node000004_Node000005"><a xlink:title=" ">
<path fill="none" stroke="#63b8ff" d="M723.24,-64.5C731.73,-64.5 740.3,-64.5 748.7,-64.5"/>
<polygon fill="#63b8ff" stroke="#63b8ff" points="748.84,-68 758.84,-64.5 748.84,-61 748.84,-68"/>
</a>
</g>
</g>
<!-- Node6 -->
<g id="Node000006" class="node">
<title>Node6</title>
<g id="a_Node000006"><a xlink:href="classLogger.html#adce17848a5844e053bfd314863dc1404" target="_top" xlink:title="Log error message.">
<polygon fill="white" stroke="#666666" points="1033.5,-130 954.5,-130 954.5,-111 1033.5,-111 1033.5,-130"/>
<text text-anchor="middle" x="994" y="-118" font-family="Helvetica,sans-Serif" font-size="10.00">Logger::Error</text>
</a>
</g>
</g>
<!-- Node5&#45;&gt;Node6 -->
<g id="edge5_Node000005_Node000006" class="edge">
<title>Node5&#45;&gt;Node6</title>
<g id="a_edge5_Node000005_Node000006"><a xlink:title=" ">
<path fill="none" stroke="#63b8ff" d="M857.05,-74.11C878.46,-81.94 909.61,-93.19 937,-102.5 942.2,-104.27 947.68,-106.08 953.1,-107.85"/>
<polygon fill="#63b8ff" stroke="#63b8ff" points="952.12,-111.22 962.71,-110.97 954.28,-104.56 952.12,-111.22"/>
</a>
</g>
</g>
<!-- Node9 -->
<g id="Node000009" class="node">
<title>Node9</title>
<g id="a_Node000009"><a xlink:href="classLogger.html#a5789d11f8f1356e2192c0023a089cbc4" target="_top" xlink:title="Get singleton instance.">
<polygon fill="white" stroke="#666666" points="1051,-19 937,-19 937,0 1051,0 1051,-19"/>
<text text-anchor="middle" x="994" y="-7" font-family="Helvetica,sans-Serif" font-size="10.00">Logger::GetInstance</text>
</a>
</g>
</g>
<!-- Node5&#45;&gt;Node9 -->
<g id="edge8_Node000005_Node000009" class="edge">
<title>Node5&#45;&gt;Node9</title>
<g id="a_edge8_Node000005_Node000009"><a xlink:title=" ">
<path fill="none" stroke="#63b8ff" d="M857.95,-54.89C879.33,-47.31 910.02,-36.54 937,-27.5 942.2,-25.76 947.69,-23.95 953.11,-22.19"/>
<polygon fill="#63b8ff" stroke="#63b8ff" points="954.29,-25.48 962.73,-19.08 952.14,-18.82 954.29,-25.48"/>
</a>
</g>
</g>
<!-- Node10 -->
<g id="Node000010" class="node">
<title>Node10</title>
<g id="a_Node000010"><a xlink:href="classLogger.html#a4681229c521795685fc14f6b55c82300" target="_top" xlink:title="Log info message.">
<polygon fill="white" stroke="#666666" points="1031,-93 957,-93 957,-74 1031,-74 1031,-93"/>
<text text-anchor="middle" x="994" y="-81" font-family="Helvetica,sans-Serif" font-size="10.00">Logger::Info</text>
</a>
</g>
</g>
<!-- Node5&#45;&gt;Node10 -->
<g id="edge9_Node000005_Node000010" class="edge">
<title>Node5&#45;&gt;Node10</title>
<g id="a_edge9_Node000005_Node000010"><a xlink:title=" ">
<path fill="none" stroke="#63b8ff" d="M901.11,-72.72C916.53,-74.53 932.48,-76.4 946.67,-78.07"/>
<polygon fill="#63b8ff" stroke="#63b8ff" points="946.33,-81.55 956.67,-79.24 947.15,-74.6 946.33,-81.55"/>
</a>
</g>
</g>
<!-- Node11 -->
<g id="Node000011" class="node">
<title>Node11</title>
<g id="a_Node000011"><a xlink:href="classLogger.html#aaa95ffa14d07a965d4a85bdec82cba26" target="_top" xlink:title="Log warning message.">
<polygon fill="white" stroke="#666666" points="1034,-56 954,-56 954,-37 1034,-37 1034,-56"/>
<text text-anchor="middle" x="994" y="-44" font-family="Helvetica,sans-Serif" font-size="10.00">Logger::Warn</text>
</a>
</g>
</g>
<!-- Node5&#45;&gt;Node11 -->
<g id="edge12_Node000005_Node000011" class="edge">
<title>Node5&#45;&gt;Node11</title>
<g id="a_edge12_Node000005_Node000011"><a xlink:title=" ">
<path fill="none" stroke="#63b8ff" d="M901.11,-56.71C915.42,-55.12 930.2,-53.48 943.6,-51.99"/>
<polygon fill="#63b8ff" stroke="#63b8ff" points="944,-55.47 953.55,-50.88 943.22,-48.51 944,-55.47"/>
</a>
</g>
</g>
<!-- Node7 -->
<g id="Node000007" class="node">
<title>Node7</title>
<g id="a_Node000007"><a xlink:href="classLogger.html#af9e84e0ff6bd538e4f9ed8dcebc3e2f0" target="_top" xlink:title="Check if log level is enabled for tag.">
<polygon fill="white" stroke="#666666" points="1216,-111 1087,-111 1087,-92 1216,-92 1216,-111"/>
<text text-anchor="middle" x="1151.5" y="-99" font-family="Helvetica,sans-Serif" font-size="10.00">Logger::IsLevelEnabled</text>
</a>
</g>
</g>
<!-- Node6&#45;&gt;Node7 -->
<g id="edge6_Node000006_Node000007" class="edge">
<title>Node6&#45;&gt;Node7</title>
<g id="a_edge6_Node000006_Node000007"><a xlink:title=" ">
<path fill="none" stroke="#63b8ff" d="M1033.84,-115.75C1046.85,-114.16 1061.82,-112.34 1076.6,-110.53"/>
<polygon fill="#63b8ff" stroke="#63b8ff" points="1077.28,-113.97 1086.78,-109.29 1076.43,-107.02 1077.28,-113.97"/>
</a>
</g>
</g>
<!-- Node8 -->
<g id="Node000008" class="node">
<title>Node8</title>
<g id="a_Node000008"><a xlink:href="classLogger.html#a6adb205db597526fb91ad20067400394" target="_top" xlink:title="Internal logging method.">
<polygon fill="white" stroke="#666666" points="1206.5,-74 1096.5,-74 1096.5,-55 1206.5,-55 1206.5,-74"/>
<text text-anchor="middle" x="1151.5" y="-62" font-family="Helvetica,sans-Serif" font-size="10.00">Logger::LogInternal</text>
</a>
</g>
</g>
<!-- Node6&#45;&gt;Node8 -->
<g id="edge7_Node000006_Node000008" class="edge">
<title>Node6&#45;&gt;Node8</title>
<g id="a_edge7_Node000006_Node000008"><a xlink:title=" ">
<path fill="none" stroke="#63b8ff" d="M1027.92,-110.98C1035.59,-108.47 1043.66,-105.59 1051,-102.5 1067.68,-95.48 1070.25,-90.35 1087,-83.5 1092.53,-81.24 1098.42,-79.12 1104.31,-77.16"/>
<polygon fill="#63b8ff" stroke="#63b8ff" points="1105.67,-80.41 1114.14,-74.05 1103.55,-73.73 1105.67,-80.41"/>
</a>
</g>
</g>
<!-- Node10&#45;&gt;Node7 -->
<g id="edge10_Node000010_Node000007" class="edge">
<title>Node10&#45;&gt;Node7</title>
<g id="a_edge10_Node000010_Node000007"><a xlink:title=" ">
<path fill="none" stroke="#63b8ff" d="M1031.07,-87.67C1044.68,-89.25 1060.72,-91.11 1076.55,-92.94"/>
<polygon fill="#63b8ff" stroke="#63b8ff" points="1076.55,-96.46 1086.89,-94.14 1077.36,-89.51 1076.55,-96.46"/>
</a>
</g>
</g>
<!-- Node10&#45;&gt;Node8 -->
<g id="edge11_Node000010_Node000008" class="edge">
<title>Node10&#45;&gt;Node8</title>
<g id="a_edge11_Node000010_Node000008"><a xlink:title=" ">
<path fill="none" stroke="#63b8ff" d="M1031.07,-79.09C1047.49,-77.09 1067.44,-74.65 1086.3,-72.34"/>
<polygon fill="#63b8ff" stroke="#63b8ff" points="1086.83,-75.81 1096.33,-71.12 1085.98,-68.86 1086.83,-75.81"/>
</a>
</g>
</g>
<!-- Node11&#45;&gt;Node7 -->
<g id="edge13_Node000011_Node000007" class="edge">
<title>Node11&#45;&gt;Node7</title>
<g id="a_edge13_Node000011_Node000007"><a xlink:title=" ">
<path fill="none" stroke="#63b8ff" d="M1025.51,-56.01C1033.86,-58.84 1042.85,-62.1 1051,-65.5 1067.51,-72.39 1070.32,-77.03 1087,-83.5 1092.07,-85.47 1097.45,-87.33 1102.85,-89.05"/>
<polygon fill="#63b8ff" stroke="#63b8ff" points="1101.92,-92.42 1112.51,-91.99 1103.96,-85.73 1101.92,-92.42"/>
</a>
</g>
</g>
<!-- Node11&#45;&gt;Node8 -->
<g id="edge14_Node000011_Node000008" class="edge">
<title>Node11&#45;&gt;Node8</title>
<g id="a_edge14_Node000011_Node000008"><a xlink:title=" ">
<path fill="none" stroke="#63b8ff" d="M1034.24,-51.04C1049.96,-52.86 1068.49,-55.01 1086.08,-57.04"/>
<polygon fill="#63b8ff" stroke="#63b8ff" points="1085.96,-60.55 1096.3,-58.23 1086.77,-53.6 1085.96,-60.55"/>
</a>
</g>
</g>
</g>
</svg>
