<?xml version="1.0" encoding="UTF-8" standalone="no"?>
<!DOCTYPE svg PUBLIC "-//W3C//DTD SVG 1.1//EN"
 "http://www.w3.org/Graphics/SVG/1.1/DTD/svg11.dtd">
<!-- Generated by graphviz version 2.43.0 (0)
 -->
<!-- Title: Tmc9660Handler::GetExternalTemperature Pages: 1 -->
<svg width="1290pt" height="115pt"
 viewBox="0.00 0.00 1290.00 115.00" xmlns="http://www.w3.org/2000/svg" xmlns:xlink="http://www.w3.org/1999/xlink">
<g id="graph0" class="graph" transform="scale(1 1) rotate(0) translate(4 111)">
<title>Tmc9660Handler::GetExternalTemperature</title>
<!-- Node1 -->
<g id="Node000001" class="node">
<title>Node1</title>
<g id="a_Node000001"><a xlink:title="Read the external temperature sensor raw value.">
<polygon fill="#999999" stroke="#666666" points="164,-62.5 0,-62.5 0,-32.5 164,-32.5 164,-62.5"/>
<text text-anchor="start" x="8" y="-50.5" font-family="Helvetica,sans-Serif" font-size="10.00">Tmc9660Handler::GetExternal</text>
<text text-anchor="middle" x="82" y="-39.5" font-family="Helvetica,sans-Serif" font-size="10.00">Temperature</text>
</a>
</g>
</g>
<!-- Node2 -->
<g id="Node000002" class="node">
<title>Node2</title>
<g id="a_Node000002"><a xlink:href="classTmc9660Handler.html#a5a279ae9d4b5a8e0d71cb24577ad88ea" target="_top" xlink:title="Ensure driver is initialized (lazy init entrypoint).">
<polygon fill="white" stroke="#666666" points="783,-48 596,-48 596,-29 783,-29 783,-48"/>
<text text-anchor="middle" x="689.5" y="-36" font-family="Helvetica,sans-Serif" font-size="10.00">Tmc9660Handler::EnsureInitialized</text>
</a>
</g>
</g>
<!-- Node1&#45;&gt;Node2 -->
<g id="edge1_Node000001_Node000002" class="edge">
<title>Node1&#45;&gt;Node2</title>
<g id="a_edge1_Node000001_Node000002"><a xlink:title=" ">
<path fill="none" stroke="#63b8ff" d="M164.42,-62.05C259.7,-76.83 422,-94.97 560,-75.5 592.47,-70.92 628.23,-60.13 653.76,-51.38"/>
<polygon fill="#63b8ff" stroke="#63b8ff" points="655.08,-54.62 663.36,-48.02 652.76,-48.02 655.08,-54.62"/>
</a>
</g>
</g>
<!-- Node10 -->
<g id="Node000010" class="node">
<title>Node10</title>
<g id="a_Node000010"><a xlink:href="classTmc9660Handler.html#a393382194d0602e7aa02da6a8fd7a20a" target="_top" xlink:title="Get a reference to the Temperature wrapper.">
<polygon fill="white" stroke="#666666" points="560,-48 393,-48 393,-29 560,-29 560,-48"/>
<text text-anchor="middle" x="476.5" y="-36" font-family="Helvetica,sans-Serif" font-size="10.00">Tmc9660Handler::temperature</text>
</a>
</g>
</g>
<!-- Node1&#45;&gt;Node10 -->
<g id="edge11_Node000001_Node000010" class="edge">
<title>Node1&#45;&gt;Node10</title>
<g id="a_edge11_Node000001_Node000010"><a xlink:title=" ">
<path fill="none" stroke="#63b8ff" d="M164.33,-45.64C227.97,-44.18 316.52,-42.15 382.89,-40.62"/>
<polygon fill="#63b8ff" stroke="#63b8ff" points="383.01,-44.12 392.93,-40.39 382.85,-37.12 383.01,-44.12"/>
</a>
</g>
</g>
<!-- Node11 -->
<g id="Node000011" class="node">
<title>Node11</title>
<g id="a_Node000011"><a xlink:href="classTmc9660Handler.html#a4360829b58deda85e9da4b9cebee96f0" target="_top" xlink:title="Execute a function on the underlying typed TMC9660 driver.">
<polygon fill="white" stroke="#666666" points="357,-19 200,-19 200,0 357,0 357,-19"/>
<text text-anchor="middle" x="278.5" y="-7" font-family="Helvetica,sans-Serif" font-size="10.00">Tmc9660Handler::visitDriver</text>
</a>
</g>
</g>
<!-- Node1&#45;&gt;Node11 -->
<g id="edge14_Node000001_Node000011" class="edge">
<title>Node1&#45;&gt;Node11</title>
<g id="a_edge14_Node000001_Node000011"><a xlink:title=" ">
<path fill="none" stroke="#63b8ff" d="M159.87,-32.48C179.49,-28.65 200.27,-24.59 218.82,-20.96"/>
<polygon fill="#63b8ff" stroke="#63b8ff" points="219.73,-24.35 228.87,-19 218.38,-17.48 219.73,-24.35"/>
</a>
</g>
</g>
<!-- Node3 -->
<g id="Node000003" class="node">
<title>Node3</title>
<g id="a_Node000003"><a xlink:href="classTmc9660Handler.html#adc564847f8ae26c47412aaee0758991c" target="_top" xlink:title="Initialize the TMC9660 device.">
<polygon fill="white" stroke="#666666" points="967,-70 819,-70 819,-51 967,-51 967,-70"/>
<text text-anchor="middle" x="893" y="-58" font-family="Helvetica,sans-Serif" font-size="10.00">Tmc9660Handler::Initialize</text>
</a>
</g>
</g>
<!-- Node2&#45;&gt;Node3 -->
<g id="edge2_Node000002_Node000003" class="edge">
<title>Node2&#45;&gt;Node3</title>
<g id="a_edge2_Node000002_Node000003"><a xlink:title=" ">
<path fill="none" stroke="#63b8ff" d="M777.71,-48.02C788,-49.15 798.48,-50.29 808.72,-51.41"/>
<polygon fill="#63b8ff" stroke="#63b8ff" points="808.53,-54.91 818.85,-52.51 809.29,-47.95 808.53,-54.91"/>
</a>
</g>
</g>
<!-- Node9 -->
<g id="Node000009" class="node">
<title>Node9</title>
<g id="a_Node000009"><a xlink:href="classTmc9660Handler.html#a13db97d201a287d8aa60384e04070b9f" target="_top" xlink:title="Check if the TMC9660 driver has been initialized and is ready.">
<polygon fill="white" stroke="#666666" points="965,-32.5 821,-32.5 821,-2.5 965,-2.5 965,-32.5"/>
<text text-anchor="start" x="829" y="-20.5" font-family="Helvetica,sans-Serif" font-size="10.00">Tmc9660Handler::IsDriver</text>
<text text-anchor="middle" x="893" y="-9.5" font-family="Helvetica,sans-Serif" font-size="10.00">Ready</text>
</a>
</g>
</g>
<!-- Node2&#45;&gt;Node9 -->
<g id="edge10_Node000002_Node000009" class="edge">
<title>Node2&#45;&gt;Node9</title>
<g id="a_edge10_Node000002_Node000009"><a xlink:title=" ">
<path fill="none" stroke="#63b8ff" d="M781.82,-28.98C791.45,-27.98 801.2,-26.96 810.71,-25.97"/>
<polygon fill="#63b8ff" stroke="#63b8ff" points="811.34,-29.43 820.92,-24.91 810.61,-22.46 811.34,-29.43"/>
</a>
</g>
</g>
<!-- Node4 -->
<g id="Node000004" class="node">
<title>Node4</title>
<g id="a_Node000004"><a xlink:href="classLogger.html#adce17848a5844e053bfd314863dc1404" target="_top" xlink:title="Log error message.">
<polygon fill="white" stroke="#666666" points="1099.5,-70 1020.5,-70 1020.5,-51 1099.5,-51 1099.5,-70"/>
<text text-anchor="middle" x="1060" y="-58" font-family="Helvetica,sans-Serif" font-size="10.00">Logger::Error</text>
</a>
</g>
</g>
<!-- Node3&#45;&gt;Node4 -->
<g id="edge3_Node000003_Node000004" class="edge">
<title>Node3&#45;&gt;Node4</title>
<g id="a_edge3_Node000003_Node000004"><a xlink:title=" ">
<path fill="none" stroke="#63b8ff" d="M967.33,-60.5C981.73,-60.5 996.5,-60.5 1009.87,-60.5"/>
<polygon fill="#63b8ff" stroke="#63b8ff" points="1010.26,-64 1020.26,-60.5 1010.26,-57 1010.26,-64"/>
</a>
</g>
</g>
<!-- Node7 -->
<g id="Node000007" class="node">
<title>Node7</title>
<g id="a_Node000007"><a xlink:href="classLogger.html#a5789d11f8f1356e2192c0023a089cbc4" target="_top" xlink:title="Get singleton instance.">
<polygon fill="white" stroke="#666666" points="1117,-33 1003,-33 1003,-14 1117,-14 1117,-33"/>
<text text-anchor="middle" x="1060" y="-21" font-family="Helvetica,sans-Serif" font-size="10.00">Logger::GetInstance</text>
</a>
</g>
</g>
<!-- Node3&#45;&gt;Node7 -->
<g id="edge6_Node000003_Node000007" class="edge">
<title>Node3&#45;&gt;Node7</title>
<g id="a_edge6_Node000003_Node000007"><a xlink:title=" ">
<path fill="none" stroke="#63b8ff" d="M936.49,-50.97C957.87,-46.18 983.97,-40.32 1006.58,-35.25"/>
<polygon fill="#63b8ff" stroke="#63b8ff" points="1007.37,-38.66 1016.37,-33.06 1005.84,-31.83 1007.37,-38.66"/>
</a>
</g>
</g>
<!-- Node8 -->
<g id="Node000008" class="node">
<title>Node8</title>
<g id="a_Node000008"><a xlink:href="classLogger.html#a4681229c521795685fc14f6b55c82300" target="_top" xlink:title="Log info message.">
<polygon fill="white" stroke="#666666" points="1097,-107 1023,-107 1023,-88 1097,-88 1097,-107"/>
<text text-anchor="middle" x="1060" y="-95" font-family="Helvetica,sans-Serif" font-size="10.00">Logger::Info</text>
</a>
</g>
</g>
<!-- Node3&#45;&gt;Node8 -->
<g id="edge7_Node000003_Node000008" class="edge">
<title>Node3&#45;&gt;Node8</title>
<g id="a_edge7_Node000003_Node000008"><a xlink:title=" ">
<path fill="none" stroke="#63b8ff" d="M936.49,-70.03C959.89,-75.27 988.94,-81.79 1012.89,-87.16"/>
<polygon fill="#63b8ff" stroke="#63b8ff" points="1012.28,-90.61 1022.8,-89.38 1013.81,-83.78 1012.28,-90.61"/>
</a>
</g>
</g>
<!-- Node5 -->
<g id="Node000005" class="node">
<title>Node5</title>
<g id="a_Node000005"><a xlink:href="classLogger.html#af9e84e0ff6bd538e4f9ed8dcebc3e2f0" target="_top" xlink:title="Check if log level is enabled for tag.">
<polygon fill="white" stroke="#666666" points="1282,-107 1153,-107 1153,-88 1282,-88 1282,-107"/>
<text text-anchor="middle" x="1217.5" y="-95" font-family="Helvetica,sans-Serif" font-size="10.00">Logger::IsLevelEnabled</text>
</a>
</g>
</g>
<!-- Node4&#45;&gt;Node5 -->
<g id="edge4_Node000004_Node000005" class="edge">
<title>Node4&#45;&gt;Node5</title>
<g id="a_edge4_Node000004_Node000005"><a xlink:title=" ">
<path fill="none" stroke="#63b8ff" d="M1099.84,-69.74C1120.03,-74.55 1144.94,-80.47 1166.55,-85.61"/>
<polygon fill="#63b8ff" stroke="#63b8ff" points="1166,-89.08 1176.53,-87.99 1167.62,-82.27 1166,-89.08"/>
</a>
</g>
</g>
<!-- Node6 -->
<g id="Node000006" class="node">
<title>Node6</title>
<g id="a_Node000006"><a xlink:href="classLogger.html#a6adb205db597526fb91ad20067400394" target="_top" xlink:title="Internal logging method.">
<polygon fill="white" stroke="#666666" points="1272.5,-70 1162.5,-70 1162.5,-51 1272.5,-51 1272.5,-70"/>
<text text-anchor="middle" x="1217.5" y="-58" font-family="Helvetica,sans-Serif" font-size="10.00">Logger::LogInternal</text>
</a>
</g>
</g>
<!-- Node4&#45;&gt;Node6 -->
<g id="edge5_Node000004_Node000006" class="edge">
<title>Node4&#45;&gt;Node6</title>
<g id="a_edge5_Node000004_Node000006"><a xlink:title=" ">
<path fill="none" stroke="#63b8ff" d="M1099.84,-60.5C1115.63,-60.5 1134.31,-60.5 1152.03,-60.5"/>
<polygon fill="#63b8ff" stroke="#63b8ff" points="1152.33,-64 1162.33,-60.5 1152.33,-57 1152.33,-64"/>
</a>
</g>
</g>
<!-- Node8&#45;&gt;Node5 -->
<g id="edge8_Node000008_Node000005" class="edge">
<title>Node8&#45;&gt;Node5</title>
<g id="a_edge8_Node000008_Node000005"><a xlink:title=" ">
<path fill="none" stroke="#63b8ff" d="M1097.07,-97.5C1110.68,-97.5 1126.72,-97.5 1142.55,-97.5"/>
<polygon fill="#63b8ff" stroke="#63b8ff" points="1142.89,-101 1152.89,-97.5 1142.89,-94 1142.89,-101"/>
</a>
</g>
</g>
<!-- Node8&#45;&gt;Node6 -->
<g id="edge9_Node000008_Node000006" class="edge">
<title>Node8&#45;&gt;Node6</title>
<g id="a_edge9_Node000008_Node000006"><a xlink:title=" ">
<path fill="none" stroke="#63b8ff" d="M1097.07,-88.92C1117.78,-83.99 1144.09,-77.73 1166.74,-72.34"/>
<polygon fill="#63b8ff" stroke="#63b8ff" points="1167.61,-75.73 1176.53,-70.01 1165.99,-68.92 1167.61,-75.73"/>
</a>
</g>
</g>
<!-- Node10&#45;&gt;Node2 -->
<g id="edge12_Node000010_Node000002" class="edge">
<title>Node10&#45;&gt;Node2</title>
<g id="a_edge12_Node000010_Node000002"><a xlink:title=" ">
<path fill="none" stroke="#63b8ff" d="M560.29,-38.5C568.67,-38.5 577.25,-38.5 585.81,-38.5"/>
<polygon fill="#63b8ff" stroke="#63b8ff" points="585.83,-42 595.83,-38.5 585.83,-35 585.83,-42"/>
</a>
</g>
</g>
<!-- Node10&#45;&gt;Node10 -->
<g id="edge13_Node000010_Node000010" class="edge">
<title>Node10&#45;&gt;Node10</title>
<g id="a_edge13_Node000010_Node000010"><a xlink:title=" ">
<path fill="none" stroke="#63b8ff" d="M445.98,-48.08C431.14,-56.73 441.31,-66 476.5,-66 501.24,-66 513.62,-61.42 513.62,-55.69"/>
<polygon fill="#63b8ff" stroke="#63b8ff" points="516.22,-53.34 507.02,-48.08 510.93,-57.93 516.22,-53.34"/>
</a>
</g>
</g>
<!-- Node11&#45;&gt;Node2 -->
<g id="edge15_Node000011_Node000002" class="edge">
<title>Node11&#45;&gt;Node2</title>
<g id="a_edge15_Node000011_Node000002"><a xlink:title=" ">
<path fill="none" stroke="#63b8ff" d="M357.04,-9.95C413.43,-10.84 491.58,-13.24 560,-19.5 580.65,-21.39 603.05,-24.37 623.27,-27.42"/>
<polygon fill="#63b8ff" stroke="#63b8ff" points="622.9,-30.91 633.32,-28.97 623.97,-23.99 622.9,-30.91"/>
</a>
</g>
</g>
<!-- Node11&#45;&gt;Node10 -->
<g id="edge16_Node000011_Node000010" class="edge">
<title>Node11&#45;&gt;Node10</title>
<g id="a_edge16_Node000011_Node000010"><a xlink:title=" ">
<path fill="none" stroke="#63b8ff" d="M343.95,-19.04C362.2,-21.74 382.22,-24.7 401.02,-27.48"/>
<polygon fill="#63b8ff" stroke="#63b8ff" points="400.61,-30.96 411.01,-28.96 401.63,-24.03 400.61,-30.96"/>
</a>
</g>
</g>
</g>
</svg>
