<?xml version="1.0" encoding="UTF-8" standalone="no"?>
<!DOCTYPE svg PUBLIC "-//W3C//DTD SVG 1.1//EN"
 "http://www.w3.org/Graphics/SVG/1.1/DTD/svg11.dtd">
<!-- Generated by graphviz version 2.43.0 (0)
 -->
<!-- Title: Max22200Handler::withDriver Pages: 1 -->
<svg width="373pt" height="161pt"
 viewBox="0.00 0.00 373.00 161.00" xmlns="http://www.w3.org/2000/svg" xmlns:xlink="http://www.w3.org/1999/xlink">
<g id="graph0" class="graph" transform="scale(1 1) rotate(0) translate(4 157)">
<title>Max22200Handler::withDriver</title>
<!-- Node1 -->
<g id="Node000001" class="node">
<title>Node1</title>
<g id="a_Node000001"><a xlink:title="Execute a lambda with a locked, initialized driver.">
<polygon fill="#999999" stroke="#666666" points="365,-86 202,-86 202,-67 365,-67 365,-86"/>
<text text-anchor="middle" x="283.5" y="-74" font-family="Helvetica,sans-Serif" font-size="10.00">Max22200Handler::withDriver</text>
</a>
</g>
</g>
<!-- Node2 -->
<g id="Node000002" class="node">
<title>Node2</title>
<g id="a_Node000002"><a xlink:href="classMax22200Handler.html#a439f52e4acfac83872a74fa9eef5237f" target="_top" xlink:title="Clear all fault flags.">
<polygon fill="white" stroke="#666666" points="166,-153 0,-153 0,-134 166,-134 166,-153"/>
<text text-anchor="middle" x="83" y="-141" font-family="Helvetica,sans-Serif" font-size="10.00">Max22200Handler::ClearFaults</text>
</a>
</g>
</g>
<!-- Node1&#45;&gt;Node2 -->
<g id="edge1_Node000001_Node000002" class="edge">
<title>Node1&#45;&gt;Node2</title>
<g id="a_edge1_Node000001_Node000002"><a xlink:title=" ">
<path fill="none" stroke="#63b8ff" d="M252.95,-90.25C229.69,-100.68 196.27,-114.83 166,-124.5 154.86,-128.06 142.68,-131.25 131.19,-133.95"/>
<polygon fill="#63b8ff" stroke="#63b8ff" points="254.59,-93.35 262.25,-86.03 251.7,-86.97 254.59,-93.35"/>
</a>
</g>
</g>
<!-- Node3 -->
<g id="Node000003" class="node">
<title>Node3</title>
<g id="a_Node000003"><a xlink:href="classMax22200Handler.html#a8469fc41589ea672b8732769d2222443" target="_top" xlink:title="Disable all channels.">
<polygon fill="white" stroke="#666666" points="157.5,-115.5 8.5,-115.5 8.5,-85.5 157.5,-85.5 157.5,-115.5"/>
<text text-anchor="start" x="16.5" y="-103.5" font-family="Helvetica,sans-Serif" font-size="10.00">Max22200Handler::Disable</text>
<text text-anchor="middle" x="83" y="-92.5" font-family="Helvetica,sans-Serif" font-size="10.00">AllChannels</text>
</a>
</g>
</g>
<!-- Node1&#45;&gt;Node3 -->
<g id="edge2_Node000001_Node000003" class="edge">
<title>Node1&#45;&gt;Node3</title>
<g id="a_edge2_Node000001_Node000003"><a xlink:title=" ">
<path fill="none" stroke="#63b8ff" d="M193.74,-87.23C181.73,-88.68 169.51,-90.16 157.8,-91.58"/>
<polygon fill="#63b8ff" stroke="#63b8ff" points="194.25,-90.7 203.76,-86.02 193.41,-83.75 194.25,-90.7"/>
</a>
</g>
</g>
<!-- Node4 -->
<g id="Node000004" class="node">
<title>Node4</title>
<g id="a_Node000004"><a xlink:href="classMax22200Handler.html#aa9e41274b5467db2e901be023d4dd061" target="_top" xlink:title="Enable all channels.">
<polygon fill="white" stroke="#666666" points="162,-67.5 4,-67.5 4,-37.5 162,-37.5 162,-67.5"/>
<text text-anchor="start" x="12" y="-55.5" font-family="Helvetica,sans-Serif" font-size="10.00">Max22200Handler::EnableAll</text>
<text text-anchor="middle" x="83" y="-44.5" font-family="Helvetica,sans-Serif" font-size="10.00">Channels</text>
</a>
</g>
</g>
<!-- Node1&#45;&gt;Node4 -->
<g id="edge3_Node000001_Node000004" class="edge">
<title>Node1&#45;&gt;Node4</title>
<g id="a_edge3_Node000001_Node000004"><a xlink:title=" ">
<path fill="none" stroke="#63b8ff" d="M193.77,-65.77C183.29,-64.5 172.64,-63.22 162.32,-61.97"/>
<polygon fill="#63b8ff" stroke="#63b8ff" points="193.41,-69.25 203.76,-66.98 194.25,-62.3 193.41,-69.25"/>
</a>
</g>
</g>
<!-- Node5 -->
<g id="Node000005" class="node">
<title>Node5</title>
<g id="a_Node000005"><a xlink:href="classMax22200Handler.html#ac5b60b117fec404c55597929134fa1a1" target="_top" xlink:title="Check if any fault is present.">
<polygon fill="white" stroke="#666666" points="160,-19 6,-19 6,0 160,0 160,-19"/>
<text text-anchor="middle" x="83" y="-7" font-family="Helvetica,sans-Serif" font-size="10.00">Max22200Handler::HasFault</text>
</a>
</g>
</g>
<!-- Node1&#45;&gt;Node5 -->
<g id="edge4_Node000001_Node000005" class="edge">
<title>Node1&#45;&gt;Node5</title>
<g id="a_edge4_Node000001_Node000005"><a xlink:title=" ">
<path fill="none" stroke="#63b8ff" d="M252.95,-62.75C229.69,-52.32 196.27,-38.17 166,-28.5 154.86,-24.94 142.68,-21.75 131.19,-19.05"/>
<polygon fill="#63b8ff" stroke="#63b8ff" points="251.7,-66.03 262.25,-66.97 254.59,-59.65 251.7,-66.03"/>
</a>
</g>
</g>
</g>
</svg>
