<?xml version="1.0" encoding="UTF-8" standalone="no"?>
<!DOCTYPE svg PUBLIC "-//W3C//DTD SVG 1.1//EN"
 "http://www.w3.org/Graphics/SVG/1.1/DTD/svg11.dtd">
<!-- Generated by graphviz version 2.43.0 (0)
 -->
<!-- Title: Tmc9660Handler::visitDriver Pages: 1 -->
<svg width="1090pt" height="113pt"
 viewBox="0.00 0.00 1090.00 112.50" xmlns="http://www.w3.org/2000/svg" xmlns:xlink="http://www.w3.org/1999/xlink">
<g id="graph0" class="graph" transform="scale(1 1) rotate(0) translate(4 108.5)">
<title>Tmc9660Handler::visitDriver</title>
<!-- Node1 -->
<g id="Node000001" class="node">
<title>Node1</title>
<g id="a_Node000001"><a xlink:title="Const overload of visitDriver().">
<polygon fill="#999999" stroke="#666666" points="157,-45.5 0,-45.5 0,-26.5 157,-26.5 157,-45.5"/>
<text text-anchor="middle" x="78.5" y="-33.5" font-family="Helvetica,sans-Serif" font-size="10.00">Tmc9660Handler::visitDriver</text>
</a>
</g>
</g>
<!-- Node2 -->
<g id="Node000002" class="node">
<title>Node2</title>
<g id="a_Node000002"><a xlink:href="classTmc9660Handler.html#a393382194d0602e7aa02da6a8fd7a20a" target="_top" xlink:title="Get a reference to the Temperature wrapper.">
<polygon fill="white" stroke="#666666" points="360,-45.5 193,-45.5 193,-26.5 360,-26.5 360,-45.5"/>
<text text-anchor="middle" x="276.5" y="-33.5" font-family="Helvetica,sans-Serif" font-size="10.00">Tmc9660Handler::temperature</text>
</a>
</g>
</g>
<!-- Node1&#45;&gt;Node2 -->
<g id="edge1_Node000001_Node000002" class="edge">
<title>Node1&#45;&gt;Node2</title>
<g id="a_edge1_Node000001_Node000002"><a xlink:title=" ">
<path fill="none" stroke="#63b8ff" d="M157.25,-36C165.53,-36 174.01,-36 182.45,-36"/>
<polygon fill="#63b8ff" stroke="#63b8ff" points="182.7,-39.5 192.7,-36 182.7,-32.5 182.7,-39.5"/>
</a>
</g>
</g>
<!-- Node2&#45;&gt;Node2 -->
<g id="edge12_Node000002_Node000002" class="edge">
<title>Node2&#45;&gt;Node2</title>
<g id="a_edge12_Node000002_Node000002"><a xlink:title=" ">
<path fill="none" stroke="#63b8ff" d="M245.98,-45.58C231.14,-54.23 241.31,-63.5 276.5,-63.5 301.24,-63.5 313.62,-58.92 313.62,-53.19"/>
<polygon fill="#63b8ff" stroke="#63b8ff" points="316.22,-50.84 307.02,-45.58 310.93,-55.43 316.22,-50.84"/>
</a>
</g>
</g>
<!-- Node3 -->
<g id="Node000003" class="node">
<title>Node3</title>
<g id="a_Node000003"><a xlink:href="classTmc9660Handler.html#a5a279ae9d4b5a8e0d71cb24577ad88ea" target="_top" xlink:title="Ensure driver is initialized (lazy init entrypoint).">
<polygon fill="white" stroke="#666666" points="583,-45.5 396,-45.5 396,-26.5 583,-26.5 583,-45.5"/>
<text text-anchor="middle" x="489.5" y="-33.5" font-family="Helvetica,sans-Serif" font-size="10.00">Tmc9660Handler::EnsureInitialized</text>
</a>
</g>
</g>
<!-- Node2&#45;&gt;Node3 -->
<g id="edge2_Node000002_Node000003" class="edge">
<title>Node2&#45;&gt;Node3</title>
<g id="a_edge2_Node000002_Node000003"><a xlink:title=" ">
<path fill="none" stroke="#63b8ff" d="M360.29,-36C368.67,-36 377.25,-36 385.81,-36"/>
<polygon fill="#63b8ff" stroke="#63b8ff" points="385.83,-39.5 395.83,-36 385.83,-32.5 385.83,-39.5"/>
</a>
</g>
</g>
<!-- Node4 -->
<g id="Node000004" class="node">
<title>Node4</title>
<g id="a_Node000004"><a xlink:href="classTmc9660Handler.html#adc564847f8ae26c47412aaee0758991c" target="_top" xlink:title="Initialize the TMC9660 device.">
<polygon fill="white" stroke="#666666" points="767,-67.5 619,-67.5 619,-48.5 767,-48.5 767,-67.5"/>
<text text-anchor="middle" x="693" y="-55.5" font-family="Helvetica,sans-Serif" font-size="10.00">Tmc9660Handler::Initialize</text>
</a>
</g>
</g>
<!-- Node3&#45;&gt;Node4 -->
<g id="edge3_Node000003_Node000004" class="edge">
<title>Node3&#45;&gt;Node4</title>
<g id="a_edge3_Node000003_Node000004"><a xlink:title=" ">
<path fill="none" stroke="#63b8ff" d="M577.71,-45.52C588,-46.65 598.48,-47.79 608.72,-48.91"/>
<polygon fill="#63b8ff" stroke="#63b8ff" points="608.53,-52.41 618.85,-50.01 609.29,-45.45 608.53,-52.41"/>
</a>
</g>
</g>
<!-- Node10 -->
<g id="Node000010" class="node">
<title>Node10</title>
<g id="a_Node000010"><a xlink:href="classTmc9660Handler.html#a13db97d201a287d8aa60384e04070b9f" target="_top" xlink:title="Check if the TMC9660 driver has been initialized and is ready.">
<polygon fill="white" stroke="#666666" points="765,-30 621,-30 621,0 765,0 765,-30"/>
<text text-anchor="start" x="629" y="-18" font-family="Helvetica,sans-Serif" font-size="10.00">Tmc9660Handler::IsDriver</text>
<text text-anchor="middle" x="693" y="-7" font-family="Helvetica,sans-Serif" font-size="10.00">Ready</text>
</a>
</g>
</g>
<!-- Node3&#45;&gt;Node10 -->
<g id="edge11_Node000003_Node000010" class="edge">
<title>Node3&#45;&gt;Node10</title>
<g id="a_edge11_Node000003_Node000010"><a xlink:title=" ">
<path fill="none" stroke="#63b8ff" d="M581.82,-26.48C591.45,-25.48 601.2,-24.46 610.71,-23.47"/>
<polygon fill="#63b8ff" stroke="#63b8ff" points="611.34,-26.93 620.92,-22.41 610.61,-19.96 611.34,-26.93"/>
</a>
</g>
</g>
<!-- Node5 -->
<g id="Node000005" class="node">
<title>Node5</title>
<g id="a_Node000005"><a xlink:href="classLogger.html#adce17848a5844e053bfd314863dc1404" target="_top" xlink:title="Log error message.">
<polygon fill="white" stroke="#666666" points="899.5,-67.5 820.5,-67.5 820.5,-48.5 899.5,-48.5 899.5,-67.5"/>
<text text-anchor="middle" x="860" y="-55.5" font-family="Helvetica,sans-Serif" font-size="10.00">Logger::Error</text>
</a>
</g>
</g>
<!-- Node4&#45;&gt;Node5 -->
<g id="edge4_Node000004_Node000005" class="edge">
<title>Node4&#45;&gt;Node5</title>
<g id="a_edge4_Node000004_Node000005"><a xlink:title=" ">
<path fill="none" stroke="#63b8ff" d="M767.33,-58C781.73,-58 796.5,-58 809.87,-58"/>
<polygon fill="#63b8ff" stroke="#63b8ff" points="810.26,-61.5 820.26,-58 810.26,-54.5 810.26,-61.5"/>
</a>
</g>
</g>
<!-- Node8 -->
<g id="Node000008" class="node">
<title>Node8</title>
<g id="a_Node000008"><a xlink:href="classLogger.html#a5789d11f8f1356e2192c0023a089cbc4" target="_top" xlink:title="Get singleton instance.">
<polygon fill="white" stroke="#666666" points="917,-30.5 803,-30.5 803,-11.5 917,-11.5 917,-30.5"/>
<text text-anchor="middle" x="860" y="-18.5" font-family="Helvetica,sans-Serif" font-size="10.00">Logger::GetInstance</text>
</a>
</g>
</g>
<!-- Node4&#45;&gt;Node8 -->
<g id="edge7_Node000004_Node000008" class="edge">
<title>Node4&#45;&gt;Node8</title>
<g id="a_edge7_Node000004_Node000008"><a xlink:title=" ">
<path fill="none" stroke="#63b8ff" d="M736.49,-48.47C757.87,-43.68 783.97,-37.82 806.58,-32.75"/>
<polygon fill="#63b8ff" stroke="#63b8ff" points="807.37,-36.16 816.37,-30.56 805.84,-29.33 807.37,-36.16"/>
</a>
</g>
</g>
<!-- Node9 -->
<g id="Node000009" class="node">
<title>Node9</title>
<g id="a_Node000009"><a xlink:href="classLogger.html#a4681229c521795685fc14f6b55c82300" target="_top" xlink:title="Log info message.">
<polygon fill="white" stroke="#666666" points="897,-104.5 823,-104.5 823,-85.5 897,-85.5 897,-104.5"/>
<text text-anchor="middle" x="860" y="-92.5" font-family="Helvetica,sans-Serif" font-size="10.00">Logger::Info</text>
</a>
</g>
</g>
<!-- Node4&#45;&gt;Node9 -->
<g id="edge8_Node000004_Node000009" class="edge">
<title>Node4&#45;&gt;Node9</title>
<g id="a_edge8_Node000004_Node000009"><a xlink:title=" ">
<path fill="none" stroke="#63b8ff" d="M736.49,-67.53C759.89,-72.77 788.94,-79.29 812.89,-84.66"/>
<polygon fill="#63b8ff" stroke="#63b8ff" points="812.28,-88.11 822.8,-86.88 813.81,-81.28 812.28,-88.11"/>
</a>
</g>
</g>
<!-- Node6 -->
<g id="Node000006" class="node">
<title>Node6</title>
<g id="a_Node000006"><a xlink:href="classLogger.html#af9e84e0ff6bd538e4f9ed8dcebc3e2f0" target="_top" xlink:title="Check if log level is enabled for tag.">
<polygon fill="white" stroke="#666666" points="1082,-104.5 953,-104.5 953,-85.5 1082,-85.5 1082,-104.5"/>
<text text-anchor="middle" x="1017.5" y="-92.5" font-family="Helvetica,sans-Serif" font-size="10.00">Logger::IsLevelEnabled</text>
</a>
</g>
</g>
<!-- Node5&#45;&gt;Node6 -->
<g id="edge5_Node000005_Node000006" class="edge">
<title>Node5&#45;&gt;Node6</title>
<g id="a_edge5_Node000005_Node000006"><a xlink:title=" ">
<path fill="none" stroke="#63b8ff" d="M899.84,-67.24C920.03,-72.05 944.94,-77.97 966.55,-83.11"/>
<polygon fill="#63b8ff" stroke="#63b8ff" points="966,-86.58 976.53,-85.49 967.62,-79.77 966,-86.58"/>
</a>
</g>
</g>
<!-- Node7 -->
<g id="Node000007" class="node">
<title>Node7</title>
<g id="a_Node000007"><a xlink:href="classLogger.html#a6adb205db597526fb91ad20067400394" target="_top" xlink:title="Internal logging method.">
<polygon fill="white" stroke="#666666" points="1072.5,-67.5 962.5,-67.5 962.5,-48.5 1072.5,-48.5 1072.5,-67.5"/>
<text text-anchor="middle" x="1017.5" y="-55.5" font-family="Helvetica,sans-Serif" font-size="10.00">Logger::LogInternal</text>
</a>
</g>
</g>
<!-- Node5&#45;&gt;Node7 -->
<g id="edge6_Node000005_Node000007" class="edge">
<title>Node5&#45;&gt;Node7</title>
<g id="a_edge6_Node000005_Node000007"><a xlink:title=" ">
<path fill="none" stroke="#63b8ff" d="M899.84,-58C915.63,-58 934.31,-58 952.03,-58"/>
<polygon fill="#63b8ff" stroke="#63b8ff" points="952.33,-61.5 962.33,-58 952.33,-54.5 952.33,-61.5"/>
</a>
</g>
</g>
<!-- Node9&#45;&gt;Node6 -->
<g id="edge9_Node000009_Node000006" class="edge">
<title>Node9&#45;&gt;Node6</title>
<g id="a_edge9_Node000009_Node000006"><a xlink:title=" ">
<path fill="none" stroke="#63b8ff" d="M897.07,-95C910.68,-95 926.72,-95 942.55,-95"/>
<polygon fill="#63b8ff" stroke="#63b8ff" points="942.89,-98.5 952.89,-95 942.89,-91.5 942.89,-98.5"/>
</a>
</g>
</g>
<!-- Node9&#45;&gt;Node7 -->
<g id="edge10_Node000009_Node000007" class="edge">
<title>Node9&#45;&gt;Node7</title>
<g id="a_edge10_Node000009_Node000007"><a xlink:title=" ">
<path fill="none" stroke="#63b8ff" d="M897.07,-86.42C917.78,-81.49 944.09,-75.23 966.74,-69.84"/>
<polygon fill="#63b8ff" stroke="#63b8ff" points="967.61,-73.23 976.53,-67.51 965.99,-66.42 967.61,-73.23"/>
</a>
</g>
</g>
</g>
</svg>
