<?xml version="1.0" encoding="UTF-8" standalone="no"?>
<!DOCTYPE svg PUBLIC "-//W3C//DTD SVG 1.1//EN"
 "http://www.w3.org/Graphics/SVG/1.1/DTD/svg11.dtd">
<!-- Generated by graphviz version 2.43.0 (0)
 -->
<!-- Title: handlers Pages: 1 -->
<svg width="668pt" height="169pt"
 viewBox="0.00 0.00 668.00 169.00" xmlns="http://www.w3.org/2000/svg" xmlns:xlink="http://www.w3.org/1999/xlink">
<g id="graph0" class="graph" transform="scale(1 1) rotate(0) translate(4 165)">
<title>handlers</title>
<g id="clust1" class="cluster">
<title>clusterdir_97bbe734eff8d6674660850430e62f3c</title>
<g id="a_clust1"><a xlink:href="dir_97bbe734eff8d6674660850430e62f3c.html" target="_top">
<polygon fill="#edf0f7" stroke="#404040" stroke-width="2" points="8,-8 8,-153 652,-153 652,-8 8,-8"/>
</a>
</g>
</g>
<!-- dir_97bbe734eff8d6674660850430e62f3c -->
<g id="node1" class="node">
<title>dir_97bbe734eff8d6674660850430e62f3c</title>
<text text-anchor="middle" x="553" y="-133" font-family="Helvetica,sans-Serif" font-size="10.00">handlers</text>
</g>
<!-- dir_c9131abf6ca5a874fb64ad18ea247de4 -->
<g id="node2" class="node">
<title>dir_c9131abf6ca5a874fb64ad18ea247de4</title>
<g id="a_node2"><a xlink:href="dir_c9131abf6ca5a874fb64ad18ea247de4.html" target="_top" xlink:title="ads7952">
<polygon fill="#a2b4d6" stroke="#404040" points="644,-90 586,-90 586,-71 644,-71 644,-90"/>
<text text-anchor="middle" x="615" y="-78" font-family="Helvetica,sans-Serif" font-size="10.00">ads7952</text>
</a>
</g>
</g>
<!-- dir_7848ed0c40c68eb13e368aca028ebfa2 -->
<g id="node6" class="node">
<title>dir_7848ed0c40c68eb13e368aca028ebfa2</title>
<g id="a_node6"><a xlink:href="dir_7848ed0c40c68eb13e368aca028ebfa2.html" target="_top" xlink:title="logger">
<polygon fill="#a2b4d6" stroke="#404040" points="344.5,-35 297.5,-35 297.5,-16 344.5,-16 344.5,-35"/>
<text text-anchor="middle" x="321" y="-23" font-family="Helvetica,sans-Serif" font-size="10.00">logger</text>
</a>
</g>
</g>
<!-- dir_c9131abf6ca5a874fb64ad18ea247de4&#45;&gt;dir_7848ed0c40c68eb13e368aca028ebfa2 -->
<g id="edge1" class="edge">
<title>dir_c9131abf6ca5a874fb64ad18ea247de4&#45;&gt;dir_7848ed0c40c68eb13e368aca028ebfa2</title>
<g id="a_edge1"><a xlink:href="dir_000000_000009.html" target="_top">
<path fill="none" stroke="#63b8ff" d="M585.98,-72.86C582.95,-72.21 579.92,-71.58 577,-71 497.65,-55.24 403.84,-39.72 354.77,-31.84"/>
<polygon fill="#63b8ff" stroke="#63b8ff" points="355.14,-28.36 344.72,-30.23 354.04,-35.27 355.14,-28.36"/>
</a>
</g>
<g id="a_edge1&#45;headlabel"><a xlink:href="dir_000000_000009.html" target="_top" xlink:title="1">
<text text-anchor="middle" x="359.14" y="-23.62" font-family="Helvetica,sans-Serif" font-size="10.00" fill="#63b8ff">1</text>
</a>
</g>
</g>
<!-- dir_397eef0de592f1461c8076a52d8e83a1 -->
<g id="node3" class="node">
<title>dir_397eef0de592f1461c8076a52d8e83a1</title>
<g id="a_node3"><a xlink:href="dir_397eef0de592f1461c8076a52d8e83a1.html" target="_top" xlink:title="as5047u">
<polygon fill="#a2b4d6" stroke="#404040" points="568,-90 510,-90 510,-71 568,-71 568,-90"/>
<text text-anchor="middle" x="539" y="-78" font-family="Helvetica,sans-Serif" font-size="10.00">as5047u</text>
</a>
</g>
</g>
<!-- dir_397eef0de592f1461c8076a52d8e83a1&#45;&gt;dir_7848ed0c40c68eb13e368aca028ebfa2 -->
<g id="edge2" class="edge">
<title>dir_397eef0de592f1461c8076a52d8e83a1&#45;&gt;dir_7848ed0c40c68eb13e368aca028ebfa2</title>
<g id="a_edge2"><a xlink:href="dir_000001_000009.html" target="_top">
<path fill="none" stroke="#63b8ff" d="M509.6,-72.35C469.23,-62.54 396.83,-44.94 354.44,-34.63"/>
<polygon fill="#63b8ff" stroke="#63b8ff" points="355.15,-31.2 344.6,-32.24 353.49,-38 355.15,-31.2"/>
</a>
</g>
<g id="a_edge2&#45;headlabel"><a xlink:href="dir_000001_000009.html" target="_top" xlink:title="1">
<text text-anchor="middle" x="359.31" y="-26.79" font-family="Helvetica,sans-Serif" font-size="10.00" fill="#63b8ff">1</text>
</a>
</g>
</g>
<!-- dir_a88fe424bb0735aa27657000de5e7f0c -->
<g id="node4" class="node">
<title>dir_a88fe424bb0735aa27657000de5e7f0c</title>
<g id="a_node4"><a xlink:href="dir_a88fe424bb0735aa27657000de5e7f0c.html" target="_top" xlink:title="bno08x">
<polygon fill="#a2b4d6" stroke="#404040" points="491.5,-90 438.5,-90 438.5,-71 491.5,-71 491.5,-90"/>
<text text-anchor="middle" x="465" y="-78" font-family="Helvetica,sans-Serif" font-size="10.00">bno08x</text>
</a>
</g>
</g>
<!-- dir_a88fe424bb0735aa27657000de5e7f0c&#45;&gt;dir_7848ed0c40c68eb13e368aca028ebfa2 -->
<g id="edge3" class="edge">
<title>dir_a88fe424bb0735aa27657000de5e7f0c&#45;&gt;dir_7848ed0c40c68eb13e368aca028ebfa2</title>
<g id="a_edge3"><a xlink:href="dir_000002_000009.html" target="_top">
<path fill="none" stroke="#63b8ff" d="M441.86,-70.98C418.18,-62.27 381.13,-48.63 354.29,-38.75"/>
<polygon fill="#63b8ff" stroke="#63b8ff" points="355.15,-35.34 344.56,-35.17 352.73,-41.91 355.15,-35.34"/>
</a>
</g>
<g id="a_edge3&#45;headlabel"><a xlink:href="dir_000002_000009.html" target="_top" xlink:title="1">
<text text-anchor="middle" x="359.5" y="-31.42" font-family="Helvetica,sans-Serif" font-size="10.00" fill="#63b8ff">1</text>
</a>
</g>
</g>
<!-- dir_52ff2686f796482dae89c725c32853bb -->
<g id="node5" class="node">
<title>dir_52ff2686f796482dae89c725c32853bb</title>
<g id="a_node5"><a xlink:href="dir_52ff2686f796482dae89c725c32853bb.html" target="_top" xlink:title="common">
<polygon fill="#a2b4d6" stroke="#404040" points="167.5,-90 108.5,-90 108.5,-71 167.5,-71 167.5,-90"/>
<text text-anchor="middle" x="138" y="-78" font-family="Helvetica,sans-Serif" font-size="10.00">common</text>
</a>
</g>
</g>
<!-- dir_52ff2686f796482dae89c725c32853bb&#45;&gt;dir_7848ed0c40c68eb13e368aca028ebfa2 -->
<g id="edge4" class="edge">
<title>dir_52ff2686f796482dae89c725c32853bb&#45;&gt;dir_7848ed0c40c68eb13e368aca028ebfa2</title>
<g id="a_edge4"><a xlink:href="dir_000003_000009.html" target="_top">
<path fill="none" stroke="#63b8ff" d="M167.4,-70.98C200.18,-61.49 253.09,-46.17 287.46,-36.21"/>
<polygon fill="#63b8ff" stroke="#63b8ff" points="288.86,-39.45 297.49,-33.31 286.91,-32.73 288.86,-39.45"/>
</a>
</g>
<g id="a_edge4&#45;headlabel"><a xlink:href="dir_000003_000009.html" target="_top" xlink:title="1">
<text text-anchor="middle" x="286.19" y="-40.68" font-family="Helvetica,sans-Serif" font-size="10.00" fill="#63b8ff">1</text>
</a>
</g>
</g>
<!-- dir_0a473e29603899b4f71d8768160d1d9b -->
<g id="node7" class="node">
<title>dir_0a473e29603899b4f71d8768160d1d9b</title>
<g id="a_node7"><a xlink:href="dir_0a473e29603899b4f71d8768160d1d9b.html" target="_top" xlink:title="max22200">
<polygon fill="#a2b4d6" stroke="#404040" points="445,-145 377,-145 377,-126 445,-126 445,-145"/>
<text text-anchor="middle" x="411" y="-133" font-family="Helvetica,sans-Serif" font-size="10.00">max22200</text>
</a>
</g>
</g>
<!-- dir_0a473e29603899b4f71d8768160d1d9b&#45;&gt;dir_52ff2686f796482dae89c725c32853bb -->
<g id="edge5" class="edge">
<title>dir_0a473e29603899b4f71d8768160d1d9b&#45;&gt;dir_52ff2686f796482dae89c725c32853bb</title>
<g id="a_edge5"><a xlink:href="dir_000011_000003.html" target="_top">
<path fill="none" stroke="#63b8ff" d="M376.98,-127.89C326.35,-118.07 231.41,-99.64 177.69,-89.21"/>
<polygon fill="#63b8ff" stroke="#63b8ff" points="178.33,-85.76 167.84,-87.29 176.99,-92.64 178.33,-85.76"/>
</a>
</g>
<g id="a_edge5&#45;headlabel"><a xlink:href="dir_000011_000003.html" target="_top" xlink:title="1">
<text text-anchor="middle" x="182.4" y="-81.16" font-family="Helvetica,sans-Serif" font-size="10.00" fill="#63b8ff">1</text>
</a>
</g>
</g>
<!-- dir_0a473e29603899b4f71d8768160d1d9b&#45;&gt;dir_7848ed0c40c68eb13e368aca028ebfa2 -->
<g id="edge6" class="edge">
<title>dir_0a473e29603899b4f71d8768160d1d9b&#45;&gt;dir_7848ed0c40c68eb13e368aca028ebfa2</title>
<g id="a_edge6"><a xlink:href="dir_000011_000009.html" target="_top">
<path fill="none" stroke="#63b8ff" d="M413.3,-125.89C416.24,-112.88 419.78,-87.93 409,-71 396.86,-51.94 373.85,-40.7 354.4,-34.29"/>
<polygon fill="#63b8ff" stroke="#63b8ff" points="355.21,-30.88 344.63,-31.36 353.2,-37.59 355.21,-30.88"/>
</a>
</g>
<g id="a_edge6&#45;headlabel"><a xlink:href="dir_000011_000009.html" target="_top" xlink:title="1">
<text text-anchor="middle" x="359.47" y="-26.7" font-family="Helvetica,sans-Serif" font-size="10.00" fill="#63b8ff">1</text>
</a>
</g>
</g>
<!-- dir_563a1141a8fe29095e6ac977154154a0 -->
<g id="node8" class="node">
<title>dir_563a1141a8fe29095e6ac977154154a0</title>
<g id="a_node8"><a xlink:href="dir_563a1141a8fe29095e6ac977154154a0.html" target="_top" xlink:title="mcp9700">
<polygon fill="#a2b4d6" stroke="#404040" points="352,-145 290,-145 290,-126 352,-126 352,-145"/>
<text text-anchor="middle" x="321" y="-133" font-family="Helvetica,sans-Serif" font-size="10.00">mcp9700</text>
</a>
</g>
</g>
<!-- dir_578b1697af9bfc63cf33b892db3f6e33 -->
<g id="node9" class="node">
<title>dir_578b1697af9bfc63cf33b892db3f6e33</title>
<g id="a_node9"><a xlink:href="dir_578b1697af9bfc63cf33b892db3f6e33.html" target="_top" xlink:title="ntc">
<polygon fill="#a2b4d6" stroke="#404040" points="400,-90 368,-90 368,-71 400,-71 400,-90"/>
<text text-anchor="middle" x="384" y="-78" font-family="Helvetica,sans-Serif" font-size="10.00">ntc</text>
</a>
</g>
</g>
<!-- dir_578b1697af9bfc63cf33b892db3f6e33&#45;&gt;dir_7848ed0c40c68eb13e368aca028ebfa2 -->
<g id="edge7" class="edge">
<title>dir_578b1697af9bfc63cf33b892db3f6e33&#45;&gt;dir_7848ed0c40c68eb13e368aca028ebfa2</title>
<g id="a_edge7"><a xlink:href="dir_000013_000009.html" target="_top">
<path fill="none" stroke="#63b8ff" d="M373.88,-70.98C364.56,-63.15 350.53,-51.34 339.26,-41.86"/>
<polygon fill="#63b8ff" stroke="#63b8ff" points="341.21,-38.93 331.31,-35.17 336.71,-44.29 341.21,-38.93"/>
</a>
</g>
<g id="a_edge7&#45;headlabel"><a xlink:href="dir_000013_000009.html" target="_top" xlink:title="1">
<text text-anchor="middle" x="345.79" y="-36.57" font-family="Helvetica,sans-Serif" font-size="10.00" fill="#63b8ff">1</text>
</a>
</g>
</g>
<!-- dir_c17f5d286b0e9d3d728751e1cce38b21 -->
<g id="node10" class="node">
<title>dir_c17f5d286b0e9d3d728751e1cce38b21</title>
<g id="a_node10"><a xlink:href="dir_c17f5d286b0e9d3d728751e1cce38b21.html" target="_top" xlink:title="pca9685">
<polygon fill="#a2b4d6" stroke="#404040" points="350,-90 292,-90 292,-71 350,-71 350,-90"/>
<text text-anchor="middle" x="321" y="-78" font-family="Helvetica,sans-Serif" font-size="10.00">pca9685</text>
</a>
</g>
</g>
<!-- dir_c17f5d286b0e9d3d728751e1cce38b21&#45;&gt;dir_7848ed0c40c68eb13e368aca028ebfa2 -->
<g id="edge8" class="edge">
<title>dir_c17f5d286b0e9d3d728751e1cce38b21&#45;&gt;dir_7848ed0c40c68eb13e368aca028ebfa2</title>
<g id="a_edge8"><a xlink:href="dir_000014_000009.html" target="_top">
<path fill="none" stroke="#63b8ff" d="M321,-70.75C321,-63.8 321,-53.85 321,-45.13"/>
<polygon fill="#63b8ff" stroke="#63b8ff" points="324.5,-45.09 321,-35.09 317.5,-45.09 324.5,-45.09"/>
</a>
</g>
<g id="a_edge8&#45;headlabel"><a xlink:href="dir_000014_000009.html" target="_top" xlink:title="1">
<text text-anchor="middle" x="327.34" y="-46.18" font-family="Helvetica,sans-Serif" font-size="10.00" fill="#63b8ff">1</text>
</a>
</g>
</g>
<!-- dir_8fcaa0ad75fc40edc1b6b745802439f3 -->
<g id="node11" class="node">
<title>dir_8fcaa0ad75fc40edc1b6b745802439f3</title>
<g id="a_node11"><a xlink:href="dir_8fcaa0ad75fc40edc1b6b745802439f3.html" target="_top" xlink:title="pcal95555">
<polygon fill="#a2b4d6" stroke="#404040" points="273.5,-90 206.5,-90 206.5,-71 273.5,-71 273.5,-90"/>
<text text-anchor="middle" x="240" y="-78" font-family="Helvetica,sans-Serif" font-size="10.00">pcal95555</text>
</a>
</g>
</g>
<!-- dir_8fcaa0ad75fc40edc1b6b745802439f3&#45;&gt;dir_7848ed0c40c68eb13e368aca028ebfa2 -->
<g id="edge9" class="edge">
<title>dir_8fcaa0ad75fc40edc1b6b745802439f3&#45;&gt;dir_7848ed0c40c68eb13e368aca028ebfa2</title>
<g id="a_edge9"><a xlink:href="dir_000015_000009.html" target="_top">
<path fill="none" stroke="#63b8ff" d="M253.01,-70.98C265.46,-62.84 284.46,-50.41 299.21,-40.76"/>
<polygon fill="#63b8ff" stroke="#63b8ff" points="301.3,-43.57 307.75,-35.17 297.46,-37.72 301.3,-43.57"/>
</a>
</g>
<g id="a_edge9&#45;headlabel"><a xlink:href="dir_000015_000009.html" target="_top" xlink:title="1">
<text text-anchor="middle" x="299.84" y="-45.42" font-family="Helvetica,sans-Serif" font-size="10.00" fill="#63b8ff">1</text>
</a>
</g>
</g>
<!-- dir_e60338d1c39b73a12b907c00fb4619bf -->
<g id="node12" class="node">
<title>dir_e60338d1c39b73a12b907c00fb4619bf</title>
<g id="a_node12"><a xlink:href="dir_e60338d1c39b73a12b907c00fb4619bf.html" target="_top" xlink:title="tle92466ed">
<polygon fill="#a2b4d6" stroke="#404040" points="256.5,-145 185.5,-145 185.5,-126 256.5,-126 256.5,-145"/>
<text text-anchor="middle" x="221" y="-133" font-family="Helvetica,sans-Serif" font-size="10.00">tle92466ed</text>
</a>
</g>
</g>
<!-- dir_e60338d1c39b73a12b907c00fb4619bf&#45;&gt;dir_52ff2686f796482dae89c725c32853bb -->
<g id="edge10" class="edge">
<title>dir_e60338d1c39b73a12b907c00fb4619bf&#45;&gt;dir_52ff2686f796482dae89c725c32853bb</title>
<g id="a_edge10"><a xlink:href="dir_000016_000003.html" target="_top">
<path fill="none" stroke="#63b8ff" d="M207.66,-125.98C194.91,-117.84 175.45,-105.41 160.33,-95.76"/>
<polygon fill="#63b8ff" stroke="#63b8ff" points="161.89,-92.6 151.58,-90.17 158.12,-98.5 161.89,-92.6"/>
</a>
</g>
<g id="a_edge10&#45;headlabel"><a xlink:href="dir_000016_000003.html" target="_top" xlink:title="1">
<text text-anchor="middle" x="166.45" y="-89.64" font-family="Helvetica,sans-Serif" font-size="10.00" fill="#63b8ff">1</text>
</a>
</g>
</g>
<!-- dir_e60338d1c39b73a12b907c00fb4619bf&#45;&gt;dir_7848ed0c40c68eb13e368aca028ebfa2 -->
<g id="edge11" class="edge">
<title>dir_e60338d1c39b73a12b907c00fb4619bf&#45;&gt;dir_7848ed0c40c68eb13e368aca028ebfa2</title>
<g id="a_edge11"><a xlink:href="dir_000016_000009.html" target="_top">
<path fill="none" stroke="#63b8ff" d="M212.92,-125.6C202.17,-112.65 185.88,-88.28 198,-71 217.98,-42.52 258.09,-32.19 287.09,-28.49"/>
<polygon fill="#63b8ff" stroke="#63b8ff" points="287.64,-31.95 297.21,-27.4 286.89,-24.99 287.64,-31.95"/>
</a>
</g>
<g id="a_edge11&#45;headlabel"><a xlink:href="dir_000016_000009.html" target="_top" xlink:title="1">
<text text-anchor="middle" x="284.37" y="-32.66" font-family="Helvetica,sans-Serif" font-size="10.00" fill="#63b8ff">1</text>
</a>
</g>
</g>
<!-- dir_771da01106de958134343da02e29ab81 -->
<g id="node13" class="node">
<title>dir_771da01106de958134343da02e29ab81</title>
<g id="a_node13"><a xlink:href="dir_771da01106de958134343da02e29ab81.html" target="_top" xlink:title="tmc5160">
<polygon fill="#a2b4d6" stroke="#404040" points="90.5,-145 31.5,-145 31.5,-126 90.5,-126 90.5,-145"/>
<text text-anchor="middle" x="61" y="-133" font-family="Helvetica,sans-Serif" font-size="10.00">tmc5160</text>
</a>
</g>
</g>
<!-- dir_771da01106de958134343da02e29ab81&#45;&gt;dir_52ff2686f796482dae89c725c32853bb -->
<g id="edge12" class="edge">
<title>dir_771da01106de958134343da02e29ab81&#45;&gt;dir_52ff2686f796482dae89c725c32853bb</title>
<g id="a_edge12"><a xlink:href="dir_000017_000003.html" target="_top">
<path fill="none" stroke="#63b8ff" d="M73.37,-125.98C85.09,-117.92 102.92,-105.65 116.89,-96.03"/>
<polygon fill="#63b8ff" stroke="#63b8ff" points="119.15,-98.72 125.4,-90.17 115.18,-92.96 119.15,-98.72"/>
</a>
</g>
<g id="a_edge12&#45;headlabel"><a xlink:href="dir_000017_000003.html" target="_top" xlink:title="1">
<text text-anchor="middle" x="117.8" y="-100.6" font-family="Helvetica,sans-Serif" font-size="10.00" fill="#63b8ff">1</text>
</a>
</g>
</g>
<!-- dir_771da01106de958134343da02e29ab81&#45;&gt;dir_7848ed0c40c68eb13e368aca028ebfa2 -->
<g id="edge13" class="edge">
<title>dir_771da01106de958134343da02e29ab81&#45;&gt;dir_7848ed0c40c68eb13e368aca028ebfa2</title>
<g id="a_edge13"><a xlink:href="dir_000017_000009.html" target="_top">
<path fill="none" stroke="#63b8ff" d="M63.59,-125.94C68.26,-112.06 79.48,-84.78 99,-71 128.88,-49.91 232.63,-35.97 287.06,-29.92"/>
<polygon fill="#63b8ff" stroke="#63b8ff" points="287.69,-33.38 297.26,-28.82 286.94,-26.42 287.69,-33.38"/>
</a>
</g>
<g id="a_edge13&#45;headlabel"><a xlink:href="dir_000017_000009.html" target="_top" xlink:title="1">
<text text-anchor="middle" x="284.42" y="-34.09" font-family="Helvetica,sans-Serif" font-size="10.00" fill="#63b8ff">1</text>
</a>
</g>
</g>
<!-- dir_57a9b4ae0972c7aba1e3c2e0355f42ff -->
<g id="node14" class="node">
<title>dir_57a9b4ae0972c7aba1e3c2e0355f42ff</title>
<g id="a_node14"><a xlink:href="dir_57a9b4ae0972c7aba1e3c2e0355f42ff.html" target="_top" xlink:title="tmc9660">
<polygon fill="#a2b4d6" stroke="#404040" points="167.5,-145 108.5,-145 108.5,-126 167.5,-126 167.5,-145"/>
<text text-anchor="middle" x="138" y="-133" font-family="Helvetica,sans-Serif" font-size="10.00">tmc9660</text>
</a>
</g>
</g>
<!-- dir_57a9b4ae0972c7aba1e3c2e0355f42ff&#45;&gt;dir_52ff2686f796482dae89c725c32853bb -->
<g id="edge14" class="edge">
<title>dir_57a9b4ae0972c7aba1e3c2e0355f42ff&#45;&gt;dir_52ff2686f796482dae89c725c32853bb</title>
<g id="a_edge14"><a xlink:href="dir_000018_000003.html" target="_top">
<path fill="none" stroke="#63b8ff" d="M138,-125.75C138,-118.8 138,-108.85 138,-100.13"/>
<polygon fill="#63b8ff" stroke="#63b8ff" points="141.5,-100.09 138,-90.09 134.5,-100.09 141.5,-100.09"/>
</a>
</g>
<g id="a_edge14&#45;headlabel"><a xlink:href="dir_000018_000003.html" target="_top" xlink:title="1">
<text text-anchor="middle" x="144.34" y="-101.18" font-family="Helvetica,sans-Serif" font-size="10.00" fill="#63b8ff">1</text>
</a>
</g>
</g>
<!-- dir_d7be47e4bfeb2e6d7b7afbb9011a1517 -->
<g id="node15" class="node">
<title>dir_d7be47e4bfeb2e6d7b7afbb9011a1517</title>
<g id="a_node15"><a xlink:href="dir_d7be47e4bfeb2e6d7b7afbb9011a1517.html" target="_top" xlink:title="ws2812">
<polygon fill="#a2b4d6" stroke="#404040" points="70,-90 16,-90 16,-71 70,-71 70,-90"/>
<text text-anchor="middle" x="43" y="-78" font-family="Helvetica,sans-Serif" font-size="10.00">ws2812</text>
</a>
</g>
</g>
<!-- dir_d7be47e4bfeb2e6d7b7afbb9011a1517&#45;&gt;dir_7848ed0c40c68eb13e368aca028ebfa2 -->
<g id="edge15" class="edge">
<title>dir_d7be47e4bfeb2e6d7b7afbb9011a1517&#45;&gt;dir_7848ed0c40c68eb13e368aca028ebfa2</title>
<g id="a_edge15"><a xlink:href="dir_000020_000009.html" target="_top">
<path fill="none" stroke="#63b8ff" d="M70.33,-73.76C74.89,-72.82 79.58,-71.87 84,-71 156.4,-56.7 241.46,-41 287.42,-32.6"/>
<polygon fill="#63b8ff" stroke="#63b8ff" points="288.22,-36.01 297.42,-30.77 286.96,-29.13 288.22,-36.01"/>
</a>
</g>
<g id="a_edge15&#45;headlabel"><a xlink:href="dir_000020_000009.html" target="_top" xlink:title="1">
<text text-anchor="middle" x="285.19" y="-36.95" font-family="Helvetica,sans-Serif" font-size="10.00" fill="#63b8ff">1</text>
</a>
</g>
</g>
</g>
</svg>
