<?xml version="1.0" encoding="UTF-8" standalone="no"?>
<!DOCTYPE svg PUBLIC "-//W3C//DTD SVG 1.1//EN"
 "http://www.w3.org/Graphics/SVG/1.1/DTD/svg11.dtd">
<!-- Generated by graphviz version 2.43.0 (0)
 -->
<!-- Title: get_i2c_device Pages: 1 -->
<svg width="564pt" height="222pt"
 viewBox="0.00 0.00 564.00 222.00" xmlns="http://www.w3.org/2000/svg" xmlns:xlink="http://www.w3.org/1999/xlink">
<g id="graph0" class="graph" transform="scale(1 1) rotate(0) translate(4 218)">
<title>get_i2c_device</title>
<!-- Node1 -->
<g id="Node000001" class="node">
<title>Node1</title>
<g id="a_Node000001"><a xlink:title="Get an I2C device handle for a specific address on the shared bus.">
<polygon fill="#999999" stroke="#666666" points="556,-121 467,-121 467,-102 556,-102 556,-121"/>
<text text-anchor="middle" x="511.5" y="-109" font-family="Helvetica,sans-Serif" font-size="10.00">get_i2c_device</text>
</a>
</g>
</g>
<!-- Node2 -->
<g id="Node000002" class="node">
<title>Node2</title>
<g id="a_Node000002"><a xlink:href="bno08x__handler__comprehensive__test_8cpp.html#ad7178bfd7bed244bfbb8045f77e478bb" target="_top" xlink:title=" ">
<polygon fill="white" stroke="#666666" points="400.5,-214 311.5,-214 311.5,-195 400.5,-195 400.5,-214"/>
<text text-anchor="middle" x="356" y="-202" font-family="Helvetica,sans-Serif" font-size="10.00">create_handler</text>
</a>
</g>
</g>
<!-- Node1&#45;&gt;Node2 -->
<g id="edge1_Node000001_Node000002" class="edge">
<title>Node1&#45;&gt;Node2</title>
<g id="a_edge1_Node000001_Node000002"><a xlink:title=" ">
<path fill="none" stroke="#63b8ff" d="M496.39,-129.36C481.83,-146.58 457.55,-172.08 431,-186.5 421.7,-191.55 410.99,-195.2 400.66,-197.83"/>
<polygon fill="#63b8ff" stroke="#63b8ff" points="499.44,-131.17 503.08,-121.22 494.03,-126.73 499.44,-131.17"/>
</a>
</g>
</g>
<!-- Node4 -->
<g id="Node000004" class="node">
<title>Node4</title>
<g id="a_Node000004"><a xlink:href="pca9685__handler__comprehensive__test_8cpp.html#ad7178bfd7bed244bfbb8045f77e478bb" target="_top" xlink:title=" ">
<polygon fill="white" stroke="#666666" points="400.5,-140 311.5,-140 311.5,-121 400.5,-121 400.5,-140"/>
<text text-anchor="middle" x="356" y="-128" font-family="Helvetica,sans-Serif" font-size="10.00">create_handler</text>
</a>
</g>
</g>
<!-- Node1&#45;&gt;Node4 -->
<g id="edge3_Node000001_Node000004" class="edge">
<title>Node1&#45;&gt;Node4</title>
<g id="a_edge3_Node000001_Node000004"><a xlink:title=" ">
<path fill="none" stroke="#63b8ff" d="M456.94,-118.13C438.55,-120.41 418.2,-122.93 400.69,-125.09"/>
<polygon fill="#63b8ff" stroke="#63b8ff" points="457.43,-121.6 466.92,-116.89 456.57,-114.65 457.43,-121.6"/>
</a>
</g>
</g>
<!-- Node6 -->
<g id="Node000006" class="node">
<title>Node6</title>
<g id="a_Node000006"><a xlink:href="pcal95555__handler__comprehensive__test_8cpp.html#ad7178bfd7bed244bfbb8045f77e478bb" target="_top" xlink:title=" ">
<polygon fill="white" stroke="#666666" points="400.5,-103 311.5,-103 311.5,-84 400.5,-84 400.5,-103"/>
<text text-anchor="middle" x="356" y="-91" font-family="Helvetica,sans-Serif" font-size="10.00">create_handler</text>
</a>
</g>
</g>
<!-- Node1&#45;&gt;Node6 -->
<g id="edge5_Node000001_Node000006" class="edge">
<title>Node1&#45;&gt;Node6</title>
<g id="a_edge5_Node000001_Node000006"><a xlink:title=" ">
<path fill="none" stroke="#63b8ff" d="M456.94,-105.22C438.55,-103.06 418.2,-100.68 400.69,-98.62"/>
<polygon fill="#63b8ff" stroke="#63b8ff" points="456.58,-108.7 466.92,-106.39 457.4,-101.75 456.58,-108.7"/>
</a>
</g>
</g>
<!-- Node8 -->
<g id="Node000008" class="node">
<title>Node8</title>
<g id="a_Node000008"><a xlink:href="full__system__integration__test_8cpp.html#a0ffcd10e1f0034357e4d75e4e19504be" target="_top" xlink:title=" ">
<polygon fill="white" stroke="#666666" points="405.5,-63 306.5,-63 306.5,-44 405.5,-44 405.5,-63"/>
<text text-anchor="middle" x="356" y="-51" font-family="Helvetica,sans-Serif" font-size="10.00">i2c_handler_task</text>
</a>
</g>
</g>
<!-- Node1&#45;&gt;Node8 -->
<g id="edge7_Node000001_Node000008" class="edge">
<title>Node1&#45;&gt;Node8</title>
<g id="a_edge7_Node000001_Node000008"><a xlink:title=" ">
<path fill="none" stroke="#63b8ff" d="M481.97,-97.44C467,-90.36 448.23,-81.93 431,-75.5 418.69,-70.91 404.97,-66.61 392.71,-63.05"/>
<polygon fill="#63b8ff" stroke="#63b8ff" points="480.68,-100.7 491.21,-101.87 483.7,-94.39 480.68,-100.7"/>
</a>
</g>
</g>
<!-- Node11 -->
<g id="Node000011" class="node">
<title>Node11</title>
<g id="a_Node000011"><a xlink:href="full__system__integration__test_8cpp.html#a5a65d07819438b3ffa159258ea42a9ea" target="_top" xlink:title=" ">
<polygon fill="white" stroke="#666666" points="245,-19 101,-19 101,0 245,0 245,-19"/>
<text text-anchor="middle" x="173" y="-7" font-family="Helvetica,sans-Serif" font-size="10.00">test_i2c_multi_device_init</text>
</a>
</g>
</g>
<!-- Node1&#45;&gt;Node11 -->
<g id="edge10_Node000001_Node000011" class="edge">
<title>Node1&#45;&gt;Node11</title>
<g id="a_edge10_Node000001_Node000011"><a xlink:title=" ">
<path fill="none" stroke="#63b8ff" d="M497.97,-93.7C483.97,-75.36 459.48,-47.67 431,-34.5 372.51,-7.45 298.67,-2.89 245.17,-4.1"/>
<polygon fill="#63b8ff" stroke="#63b8ff" points="495.23,-95.87 503.98,-101.84 500.86,-91.72 495.23,-95.87"/>
</a>
</g>
</g>
<!-- Node12 -->
<g id="Node000012" class="node">
<title>Node12</title>
<g id="a_Node000012"><a xlink:href="bno08x__handler__comprehensive__test_8cpp.html#ac83f97b7754666b5e7733941b37c5630" target="_top" xlink:title=" ">
<polygon fill="white" stroke="#666666" points="431,-177 281,-177 281,-158 431,-158 431,-177"/>
<text text-anchor="middle" x="356" y="-165" font-family="Helvetica,sans-Serif" font-size="10.00">test_operations_before_init</text>
</a>
</g>
</g>
<!-- Node1&#45;&gt;Node12 -->
<g id="edge12_Node000001_Node000012" class="edge">
<title>Node1&#45;&gt;Node12</title>
<g id="a_edge12_Node000001_Node000012"><a xlink:title=" ">
<path fill="none" stroke="#63b8ff" d="M483.98,-125.88C468.8,-133.68 449.2,-143.01 431,-149.5 422.03,-152.69 412.26,-155.52 402.83,-157.92"/>
<polygon fill="#63b8ff" stroke="#63b8ff" points="486.03,-128.76 493.26,-121.03 482.78,-122.56 486.03,-128.76"/>
</a>
</g>
</g>
<!-- Node3 -->
<g id="Node000003" class="node">
<title>Node3</title>
<g id="a_Node000003"><a xlink:href="bno08x__handler__comprehensive__test_8cpp.html#a630544a7f0a2cc40d8a7fefab7e2fe70" target="_top" xlink:title=" ">
<polygon fill="white" stroke="#666666" points="205.5,-196 140.5,-196 140.5,-177 205.5,-177 205.5,-196"/>
<text text-anchor="middle" x="173" y="-184" font-family="Helvetica,sans-Serif" font-size="10.00">app_main</text>
</a>
</g>
</g>
<!-- Node2&#45;&gt;Node3 -->
<g id="edge2_Node000002_Node000003" class="edge">
<title>Node2&#45;&gt;Node3</title>
<g id="a_edge2_Node000002_Node000003"><a xlink:title=" ">
<path fill="none" stroke="#63b8ff" d="M300.92,-199.12C269.8,-196.03 231.77,-192.25 205.5,-189.63"/>
<polygon fill="#63b8ff" stroke="#63b8ff" points="300.89,-202.64 311.18,-200.14 301.58,-195.67 300.89,-202.64"/>
</a>
</g>
</g>
<!-- Node5 -->
<g id="Node000005" class="node">
<title>Node5</title>
<g id="a_Node000005"><a xlink:href="pca9685__handler__comprehensive__test_8cpp.html#a630544a7f0a2cc40d8a7fefab7e2fe70" target="_top" xlink:title=" ">
<polygon fill="white" stroke="#666666" points="205.5,-142 140.5,-142 140.5,-123 205.5,-123 205.5,-142"/>
<text text-anchor="middle" x="173" y="-130" font-family="Helvetica,sans-Serif" font-size="10.00">app_main</text>
</a>
</g>
</g>
<!-- Node4&#45;&gt;Node5 -->
<g id="edge4_Node000004_Node000005" class="edge">
<title>Node4&#45;&gt;Node5</title>
<g id="a_edge4_Node000004_Node000005"><a xlink:title=" ">
<path fill="none" stroke="#63b8ff" d="M300.92,-131.1C269.8,-131.44 231.77,-131.86 205.5,-132.15"/>
<polygon fill="#63b8ff" stroke="#63b8ff" points="301.22,-134.59 311.18,-130.98 301.15,-127.59 301.22,-134.59"/>
</a>
</g>
</g>
<!-- Node7 -->
<g id="Node000007" class="node">
<title>Node7</title>
<g id="a_Node000007"><a xlink:href="pcal95555__handler__comprehensive__test_8cpp.html#a630544a7f0a2cc40d8a7fefab7e2fe70" target="_top" xlink:title=" ">
<polygon fill="white" stroke="#666666" points="205.5,-105 140.5,-105 140.5,-86 205.5,-86 205.5,-105"/>
<text text-anchor="middle" x="173" y="-93" font-family="Helvetica,sans-Serif" font-size="10.00">app_main</text>
</a>
</g>
</g>
<!-- Node6&#45;&gt;Node7 -->
<g id="edge6_Node000006_Node000007" class="edge">
<title>Node6&#45;&gt;Node7</title>
<g id="a_edge6_Node000006_Node000007"><a xlink:title=" ">
<path fill="none" stroke="#63b8ff" d="M300.92,-94.1C269.8,-94.44 231.77,-94.86 205.5,-95.15"/>
<polygon fill="#63b8ff" stroke="#63b8ff" points="301.22,-97.59 311.18,-93.98 301.15,-90.59 301.22,-97.59"/>
</a>
</g>
</g>
<!-- Node9 -->
<g id="Node000009" class="node">
<title>Node9</title>
<g id="a_Node000009"><a xlink:href="full__system__integration__test_8cpp.html#ab02326456d9f2a9466cae859c06f9f1a" target="_top" xlink:title=" ">
<polygon fill="white" stroke="#666666" points="229,-67.5 117,-67.5 117,-37.5 229,-37.5 229,-67.5"/>
<text text-anchor="start" x="125" y="-55.5" font-family="Helvetica,sans-Serif" font-size="10.00">test_concurrent_i2c</text>
<text text-anchor="middle" x="173" y="-44.5" font-family="Helvetica,sans-Serif" font-size="10.00">_access</text>
</a>
</g>
</g>
<!-- Node8&#45;&gt;Node9 -->
<g id="edge8_Node000008_Node000009" class="edge">
<title>Node8&#45;&gt;Node9</title>
<g id="a_edge8_Node000008_Node000009"><a xlink:title=" ">
<path fill="none" stroke="#63b8ff" d="M296.45,-53.18C274.8,-53.06 250.36,-52.92 229.04,-52.8"/>
<polygon fill="#63b8ff" stroke="#63b8ff" points="296.48,-56.68 306.5,-53.23 296.51,-49.68 296.48,-56.68"/>
</a>
</g>
</g>
<!-- Node10 -->
<g id="Node000010" class="node">
<title>Node10</title>
<g id="a_Node000010"><a xlink:href="full__system__integration__test_8cpp.html#a630544a7f0a2cc40d8a7fefab7e2fe70" target="_top" xlink:title=" ">
<polygon fill="white" stroke="#666666" points="65,-40 0,-40 0,-21 65,-21 65,-40"/>
<text text-anchor="middle" x="32.5" y="-28" font-family="Helvetica,sans-Serif" font-size="10.00">app_main</text>
</a>
</g>
</g>
<!-- Node9&#45;&gt;Node10 -->
<g id="edge9_Node000009_Node000010" class="edge">
<title>Node9&#45;&gt;Node10</title>
<g id="a_edge9_Node000009_Node000010"><a xlink:title=" ">
<path fill="none" stroke="#63b8ff" d="M106.92,-42.16C92.45,-39.86 77.74,-37.53 65.32,-35.56"/>
<polygon fill="#63b8ff" stroke="#63b8ff" points="106.44,-45.63 116.86,-43.74 107.54,-38.72 106.44,-45.63"/>
</a>
</g>
</g>
<!-- Node11&#45;&gt;Node10 -->
<g id="edge11_Node000011_Node000010" class="edge">
<title>Node11&#45;&gt;Node10</title>
<g id="a_edge11_Node000011_Node000010"><a xlink:title=" ">
<path fill="none" stroke="#63b8ff" d="M99.15,-20.55C87.15,-22.36 75.3,-24.16 65.04,-25.72"/>
<polygon fill="#63b8ff" stroke="#63b8ff" points="99.87,-23.98 109.23,-19.02 98.82,-17.06 99.87,-23.98"/>
</a>
</g>
</g>
<!-- Node12&#45;&gt;Node3 -->
<g id="edge13_Node000012_Node000003" class="edge">
<title>Node12&#45;&gt;Node3</title>
<g id="a_edge13_Node000012_Node000003"><a xlink:title=" ">
<path fill="none" stroke="#63b8ff" d="M270.67,-176.35C247.58,-178.78 223.96,-181.26 205.85,-183.16"/>
<polygon fill="#63b8ff" stroke="#63b8ff" points="271.28,-179.81 280.86,-175.28 270.55,-172.85 271.28,-179.81"/>
</a>
</g>
</g>
</g>
</svg>
