<?xml version="1.0" encoding="UTF-8" standalone="no"?>
<!DOCTYPE svg PUBLIC "-//W3C//DTD SVG 1.1//EN"
 "http://www.w3.org/Graphics/SVG/1.1/DTD/svg11.dtd">
<!-- Generated by graphviz version 2.43.0 (0)
 -->
<!-- Title: esp32_bus_setup.hpp Pages: 1 -->
<svg width="2260pt" height="93pt"
 viewBox="0.00 0.00 2260.00 93.00" xmlns="http://www.w3.org/2000/svg" xmlns:xlink="http://www.w3.org/1999/xlink">
<g id="graph0" class="graph" transform="scale(1 1) rotate(0) translate(4 89)">
<title>esp32_bus_setup.hpp</title>
<!-- Node1 -->
<g id="Node000001" class="node">
<title>Node1</title>
<g id="a_Node000001"><a xlink:title="Shared ESP32 bus initialization for hf&#45;core handler tests.">
<polygon fill="#999999" stroke="#666666" points="1176,-85 1054,-85 1054,-66 1176,-66 1176,-85"/>
<text text-anchor="middle" x="1115" y="-73" font-family="Helvetica,sans-Serif" font-size="10.00">esp32_bus_setup.hpp</text>
</a>
</g>
</g>
<!-- Node2 -->
<g id="Node000002" class="node">
<title>Node2</title>
<g id="a_Node000002"><a xlink:href="as5047u__handler__comprehensive__test_8cpp.html" target="_top" xlink:title="Comprehensive test suite for As5047uHandler.">
<polygon fill="white" stroke="#666666" points="180,-30 0,-30 0,0 180,0 180,-30"/>
<text text-anchor="start" x="8" y="-18" font-family="Helvetica,sans-Serif" font-size="10.00">as5047u_handler_comprehensive</text>
<text text-anchor="middle" x="90" y="-7" font-family="Helvetica,sans-Serif" font-size="10.00">_test.cpp</text>
</a>
</g>
</g>
<!-- Node1&#45;&gt;Node2 -->
<g id="edge1_Node000001_Node000002" class="edge">
<title>Node1&#45;&gt;Node2</title>
<g id="a_edge1_Node000001_Node000002"><a xlink:title=" ">
<path fill="none" stroke="#63b8ff" d="M1043.55,-73.32C887.92,-70.24 506.78,-60.04 189,-30 186.06,-29.72 183.08,-29.42 180.07,-29.1"/>
<polygon fill="#63b8ff" stroke="#63b8ff" points="1043.85,-76.82 1053.92,-73.52 1043.99,-69.82 1043.85,-76.82"/>
</a>
</g>
</g>
<!-- Node3 -->
<g id="Node000003" class="node">
<title>Node3</title>
<g id="a_Node000003"><a xlink:href="bno08x__handler__comprehensive__test_8cpp.html" target="_top" xlink:title="Comprehensive test suite for Bno08xHandler.">
<polygon fill="white" stroke="#666666" points="373.5,-30 198.5,-30 198.5,0 373.5,0 373.5,-30"/>
<text text-anchor="start" x="206.5" y="-18" font-family="Helvetica,sans-Serif" font-size="10.00">bno08x_handler_comprehensive</text>
<text text-anchor="middle" x="286" y="-7" font-family="Helvetica,sans-Serif" font-size="10.00">_test.cpp</text>
</a>
</g>
</g>
<!-- Node1&#45;&gt;Node3 -->
<g id="edge2_Node000001_Node000003" class="edge">
<title>Node1&#45;&gt;Node3</title>
<g id="a_edge2_Node000001_Node000003"><a xlink:title=" ">
<path fill="none" stroke="#63b8ff" d="M1043.33,-72.11C912.08,-67.29 624.39,-54.71 383,-30 379.95,-29.69 376.86,-29.35 373.73,-28.99"/>
<polygon fill="#63b8ff" stroke="#63b8ff" points="1043.53,-75.62 1053.65,-72.48 1043.78,-68.62 1043.53,-75.62"/>
</a>
</g>
</g>
<!-- Node4 -->
<g id="Node000004" class="node">
<title>Node4</title>
<g id="a_Node000004"><a xlink:href="full__system__integration__test_8cpp.html" target="_top" xlink:title="Full system integration test for hf&#45;core.">
<polygon fill="white" stroke="#666666" points="524,-30 392,-30 392,0 524,0 524,-30"/>
<text text-anchor="start" x="400" y="-18" font-family="Helvetica,sans-Serif" font-size="10.00">full_system_integration</text>
<text text-anchor="middle" x="458" y="-7" font-family="Helvetica,sans-Serif" font-size="10.00">_test.cpp</text>
</a>
</g>
</g>
<!-- Node1&#45;&gt;Node4 -->
<g id="edge3_Node000001_Node000004" class="edge">
<title>Node1&#45;&gt;Node4</title>
<g id="a_edge3_Node000001_Node000004"><a xlink:title=" ">
<path fill="none" stroke="#63b8ff" d="M1043.29,-71.52C933.18,-66.38 715.99,-54 533,-30 530.11,-29.62 527.16,-29.2 524.19,-28.76"/>
<polygon fill="#63b8ff" stroke="#63b8ff" points="1043.46,-75.03 1053.61,-71.99 1043.78,-68.04 1043.46,-75.03"/>
</a>
</g>
</g>
<!-- Node5 -->
<g id="Node000005" class="node">
<title>Node5</title>
<g id="a_Node000005"><a xlink:href="max22200__handler__comprehensive__test_8cpp.html" target="_top" xlink:title="Comprehensive test suite for Max22200Handler.">
<polygon fill="white" stroke="#666666" points="733.5,-30 542.5,-30 542.5,0 733.5,0 733.5,-30"/>
<text text-anchor="start" x="550.5" y="-18" font-family="Helvetica,sans-Serif" font-size="10.00">max22200_handler_comprehensive</text>
<text text-anchor="middle" x="638" y="-7" font-family="Helvetica,sans-Serif" font-size="10.00">_test.cpp</text>
</a>
</g>
</g>
<!-- Node1&#45;&gt;Node5 -->
<g id="edge4_Node000001_Node000005" class="edge">
<title>Node1&#45;&gt;Node5</title>
<g id="a_edge4_Node000001_Node000005"><a xlink:title=" ">
<path fill="none" stroke="#63b8ff" d="M1043.49,-66.24C968.57,-57.51 847.46,-43.21 743,-30 739.9,-29.61 736.75,-29.21 733.56,-28.8"/>
<polygon fill="#63b8ff" stroke="#63b8ff" points="1043.41,-69.75 1053.75,-67.43 1044.22,-62.8 1043.41,-69.75"/>
</a>
</g>
</g>
<!-- Node6 -->
<g id="Node000006" class="node">
<title>Node6</title>
<g id="a_Node000006"><a xlink:href="ntc__handler__comprehensive__test_8cpp.html" target="_top" xlink:title="Comprehensive test suite for NtcTemperatureHandler.">
<polygon fill="white" stroke="#666666" points="906,-30 752,-30 752,0 906,0 906,-30"/>
<text text-anchor="start" x="760" y="-18" font-family="Helvetica,sans-Serif" font-size="10.00">ntc_handler_comprehensive</text>
<text text-anchor="middle" x="829" y="-7" font-family="Helvetica,sans-Serif" font-size="10.00">_test.cpp</text>
</a>
</g>
</g>
<!-- Node1&#45;&gt;Node6 -->
<g id="edge5_Node000001_Node000006" class="edge">
<title>Node1&#45;&gt;Node6</title>
<g id="a_edge5_Node000001_Node000006"><a xlink:title=" ">
<path fill="none" stroke="#63b8ff" d="M1063.57,-63.98C1017.16,-54.49 948.53,-40.45 897.48,-30.01"/>
<polygon fill="#63b8ff" stroke="#63b8ff" points="1062.91,-67.42 1073.41,-65.99 1064.32,-60.56 1062.91,-67.42"/>
</a>
</g>
</g>
<!-- Node7 -->
<g id="Node000007" class="node">
<title>Node7</title>
<g id="a_Node000007"><a xlink:href="pca9685__handler__comprehensive__test_8cpp.html" target="_top" xlink:title="Comprehensive test suite for Pca9685Handler.">
<polygon fill="white" stroke="#666666" points="1104,-30 924,-30 924,0 1104,0 1104,-30"/>
<text text-anchor="start" x="932" y="-18" font-family="Helvetica,sans-Serif" font-size="10.00">pca9685_handler_comprehensive</text>
<text text-anchor="middle" x="1014" y="-7" font-family="Helvetica,sans-Serif" font-size="10.00">_test.cpp</text>
</a>
</g>
</g>
<!-- Node1&#45;&gt;Node7 -->
<g id="edge6_Node000001_Node000007" class="edge">
<title>Node1&#45;&gt;Node7</title>
<g id="a_edge6_Node000001_Node000007"><a xlink:title=" ">
<path fill="none" stroke="#63b8ff" d="M1091.37,-60.81C1075.43,-51.58 1054.46,-39.43 1038.37,-30.11"/>
<polygon fill="#63b8ff" stroke="#63b8ff" points="1089.69,-63.88 1100.1,-65.87 1093.2,-57.83 1089.69,-63.88"/>
</a>
</g>
</g>
<!-- Node8 -->
<g id="Node000008" class="node">
<title>Node8</title>
<g id="a_Node000008"><a xlink:href="pcal95555__handler__comprehensive__test_8cpp.html" target="_top" xlink:title="Comprehensive test suite for Pcal95555Handler.">
<polygon fill="white" stroke="#666666" points="1311.5,-30 1122.5,-30 1122.5,0 1311.5,0 1311.5,-30"/>
<text text-anchor="start" x="1130.5" y="-18" font-family="Helvetica,sans-Serif" font-size="10.00">pcal95555_handler_comprehensive</text>
<text text-anchor="middle" x="1217" y="-7" font-family="Helvetica,sans-Serif" font-size="10.00">_test.cpp</text>
</a>
</g>
</g>
<!-- Node1&#45;&gt;Node8 -->
<g id="edge7_Node000001_Node000008" class="edge">
<title>Node1&#45;&gt;Node8</title>
<g id="a_edge7_Node000001_Node000008"><a xlink:title=" ">
<path fill="none" stroke="#63b8ff" d="M1138.86,-60.81C1154.96,-51.58 1176.14,-39.43 1192.39,-30.11"/>
<polygon fill="#63b8ff" stroke="#63b8ff" points="1136.98,-57.86 1130.05,-65.87 1140.47,-63.93 1136.98,-57.86"/>
</a>
</g>
</g>
<!-- Node9 -->
<g id="Node000009" class="node">
<title>Node9</title>
<g id="a_Node000009"><a xlink:href="se050__handler__comprehensive__test_8cpp.html" target="_top" xlink:title="Exercises Se050Handler on ESP32 (same usage pattern as hf&#45;se050&#45;driver examples).">
<polygon fill="white" stroke="#666666" points="1498,-30 1330,-30 1330,0 1498,0 1498,-30"/>
<text text-anchor="start" x="1338" y="-18" font-family="Helvetica,sans-Serif" font-size="10.00">se050_handler_comprehensive</text>
<text text-anchor="middle" x="1414" y="-7" font-family="Helvetica,sans-Serif" font-size="10.00">_test.cpp</text>
</a>
</g>
</g>
<!-- Node1&#45;&gt;Node9 -->
<g id="edge8_Node000001_Node000009" class="edge">
<title>Node1&#45;&gt;Node9</title>
<g id="a_edge8_Node000001_Node000009"><a xlink:title=" ">
<path fill="none" stroke="#63b8ff" d="M1168.46,-64.04C1216.99,-54.55 1288.93,-40.47 1342.41,-30.01"/>
<polygon fill="#63b8ff" stroke="#63b8ff" points="1167.62,-60.64 1158.48,-65.99 1168.96,-67.51 1167.62,-60.64"/>
</a>
</g>
</g>
<!-- Node10 -->
<g id="Node000010" class="node">
<title>Node10</title>
<g id="a_Node000010"><a xlink:href="tle92466ed__handler__comprehensive__test_8cpp.html" target="_top" xlink:title="Comprehensive test suite for Tle92466edHandler.">
<polygon fill="white" stroke="#666666" points="1657.5,-30 1516.5,-30 1516.5,0 1657.5,0 1657.5,-30"/>
<text text-anchor="start" x="1524.5" y="-18" font-family="Helvetica,sans-Serif" font-size="10.00">tle92466ed_handler</text>
<text text-anchor="middle" x="1587" y="-7" font-family="Helvetica,sans-Serif" font-size="10.00">_comprehensive_test.cpp</text>
</a>
</g>
</g>
<!-- Node1&#45;&gt;Node10 -->
<g id="edge9_Node000001_Node000010" class="edge">
<title>Node1&#45;&gt;Node10</title>
<g id="a_edge9_Node000001_Node000010"><a xlink:title=" ">
<path fill="none" stroke="#63b8ff" d="M1186.54,-67.68C1265.25,-59.88 1395.41,-46.08 1507,-30 1510.07,-29.56 1513.2,-29.09 1516.37,-28.6"/>
<polygon fill="#63b8ff" stroke="#63b8ff" points="1185.86,-64.23 1176.26,-68.7 1186.55,-71.2 1185.86,-64.23"/>
</a>
</g>
</g>
<!-- Node11 -->
<g id="Node000011" class="node">
<title>Node11</title>
<g id="a_Node000011"><a xlink:href="tmc5160__handler__comprehensive__test_8cpp.html" target="_top" xlink:title="Comprehensive test suite for Tmc5160Handler.">
<polygon fill="white" stroke="#666666" points="1858,-30 1676,-30 1676,0 1858,0 1858,-30"/>
<text text-anchor="start" x="1684" y="-18" font-family="Helvetica,sans-Serif" font-size="10.00">tmc5160_handler_comprehensive</text>
<text text-anchor="middle" x="1767" y="-7" font-family="Helvetica,sans-Serif" font-size="10.00">_test.cpp</text>
</a>
</g>
</g>
<!-- Node1&#45;&gt;Node11 -->
<g id="edge10_Node000001_Node000011" class="edge">
<title>Node1&#45;&gt;Node11</title>
<g id="a_edge10_Node000001_Node000011"><a xlink:title=" ">
<path fill="none" stroke="#63b8ff" d="M1186.57,-70.08C1291.95,-63.26 1494.98,-48.96 1667,-30 1669.88,-29.68 1672.8,-29.35 1675.74,-29"/>
<polygon fill="#63b8ff" stroke="#63b8ff" points="1186.13,-66.6 1176.37,-70.73 1186.58,-73.58 1186.13,-66.6"/>
</a>
</g>
</g>
<!-- Node12 -->
<g id="Node000012" class="node">
<title>Node12</title>
<g id="a_Node000012"><a xlink:href="tmc9660__handler__comprehensive__test_8cpp.html" target="_top" xlink:title="Comprehensive test suite for Tmc9660Handler.">
<polygon fill="white" stroke="#666666" points="2058,-30 1876,-30 1876,0 2058,0 2058,-30"/>
<text text-anchor="start" x="1884" y="-18" font-family="Helvetica,sans-Serif" font-size="10.00">tmc9660_handler_comprehensive</text>
<text text-anchor="middle" x="1967" y="-7" font-family="Helvetica,sans-Serif" font-size="10.00">_test.cpp</text>
</a>
</g>
</g>
<!-- Node1&#45;&gt;Node12 -->
<g id="edge11_Node000001_Node000012" class="edge">
<title>Node1&#45;&gt;Node12</title>
<g id="a_edge11_Node000001_Node000012"><a xlink:title=" ">
<path fill="none" stroke="#63b8ff" d="M1186.16,-72.19C1319.83,-67.42 1617.45,-54.81 1867,-30 1869.88,-29.71 1872.8,-29.41 1875.75,-29.08"/>
<polygon fill="#63b8ff" stroke="#63b8ff" points="1185.92,-68.69 1176.05,-72.54 1186.17,-75.69 1185.92,-68.69"/>
</a>
</g>
</g>
<!-- Node13 -->
<g id="Node000013" class="node">
<title>Node13</title>
<g id="a_Node000013"><a xlink:href="ws2812__handler__comprehensive__test_8cpp.html" target="_top" xlink:title="Comprehensive test suite for Ws2812Handler.">
<polygon fill="white" stroke="#666666" points="2252,-30 2076,-30 2076,0 2252,0 2252,-30"/>
<text text-anchor="start" x="2084" y="-18" font-family="Helvetica,sans-Serif" font-size="10.00">ws2812_handler_comprehensive</text>
<text text-anchor="middle" x="2164" y="-7" font-family="Helvetica,sans-Serif" font-size="10.00">_test.cpp</text>
</a>
</g>
</g>
<!-- Node1&#45;&gt;Node13 -->
<g id="edge12_Node000001_Node000013" class="edge">
<title>Node1&#45;&gt;Node13</title>
<g id="a_edge12_Node000001_Node000013"><a xlink:title=" ">
<path fill="none" stroke="#63b8ff" d="M1186.22,-73.52C1344.79,-70.83 1738.81,-61.28 2067,-30 2069.88,-29.73 2072.8,-29.43 2075.76,-29.11"/>
<polygon fill="#63b8ff" stroke="#63b8ff" points="1186.06,-70.02 1176.12,-73.69 1186.18,-77.02 1186.06,-70.02"/>
</a>
</g>
</g>
</g>
</svg>
