<?xml version="1.0" encoding="UTF-8" standalone="no"?>
<!DOCTYPE svg PUBLIC "-//W3C//DTD SVG 1.1//EN"
 "http://www.w3.org/Graphics/SVG/1.1/DTD/svg11.dtd">
<!-- Generated by graphviz version 2.43.0 (0)
 -->
<!-- Title: get_i2c_device Pages: 1 -->
<svg width="564pt" height="261pt"
 viewBox="0.00 0.00 564.00 261.00" xmlns="http://www.w3.org/2000/svg" xmlns:xlink="http://www.w3.org/1999/xlink">
<g id="graph0" class="graph" transform="scale(1 1) rotate(0) translate(4 257)">
<title>get_i2c_device</title>
<!-- Node1 -->
<g id="Node000001" class="node">
<title>Node1</title>
<g id="a_Node000001"><a xlink:title="Get an I2C device handle for a specific address on the shared bus.">
<polygon fill="#999999" stroke="#666666" points="556,-142 467,-142 467,-123 556,-123 556,-142"/>
<text text-anchor="middle" x="511.5" y="-130" font-family="Helvetica,sans-Serif" font-size="10.00">get_i2c_device</text>
</a>
</g>
</g>
<!-- Node2 -->
<g id="Node000002" class="node">
<title>Node2</title>
<g id="a_Node000002"><a xlink:href="bno08x__handler__comprehensive__test_8cpp.html#ad7178bfd7bed244bfbb8045f77e478bb" target="_top" xlink:title=" ">
<polygon fill="white" stroke="#666666" points="400.5,-253 311.5,-253 311.5,-234 400.5,-234 400.5,-253"/>
<text text-anchor="middle" x="356" y="-241" font-family="Helvetica,sans-Serif" font-size="10.00">create_handler</text>
</a>
</g>
</g>
<!-- Node1&#45;&gt;Node2 -->
<g id="edge1_Node000001_Node000002" class="edge">
<title>Node1&#45;&gt;Node2</title>
<g id="a_edge1_Node000001_Node000002"><a xlink:title=" ">
<path fill="none" stroke="#63b8ff" d="M499.82,-150.87C486.46,-172.15 461.6,-206.69 431,-225.5 421.88,-231.11 411.12,-234.97 400.67,-237.63"/>
<polygon fill="#63b8ff" stroke="#63b8ff" points="502.92,-152.5 505.12,-142.13 496.94,-148.86 502.92,-152.5"/>
</a>
</g>
</g>
<!-- Node4 -->
<g id="Node000004" class="node">
<title>Node4</title>
<g id="a_Node000004"><a xlink:href="pca9685__handler__comprehensive__test_8cpp.html#ad7178bfd7bed244bfbb8045f77e478bb" target="_top" xlink:title=" ">
<polygon fill="white" stroke="#666666" points="400.5,-179 311.5,-179 311.5,-160 400.5,-160 400.5,-179"/>
<text text-anchor="middle" x="356" y="-167" font-family="Helvetica,sans-Serif" font-size="10.00">create_handler</text>
</a>
</g>
</g>
<!-- Node1&#45;&gt;Node4 -->
<g id="edge3_Node000001_Node000004" class="edge">
<title>Node1&#45;&gt;Node4</title>
<g id="a_edge3_Node000001_Node000004"><a xlink:title=" ">
<path fill="none" stroke="#63b8ff" d="M461.03,-144.43C440.2,-149.44 416.3,-155.21 396.66,-159.94"/>
<polygon fill="#63b8ff" stroke="#63b8ff" points="462.07,-147.77 470.97,-142.03 460.43,-140.97 462.07,-147.77"/>
</a>
</g>
</g>
<!-- Node6 -->
<g id="Node000006" class="node">
<title>Node6</title>
<g id="a_Node000006"><a xlink:href="pcal95555__handler__comprehensive__test_8cpp.html#ad7178bfd7bed244bfbb8045f77e478bb" target="_top" xlink:title=" ">
<polygon fill="white" stroke="#666666" points="400.5,-142 311.5,-142 311.5,-123 400.5,-123 400.5,-142"/>
<text text-anchor="middle" x="356" y="-130" font-family="Helvetica,sans-Serif" font-size="10.00">create_handler</text>
</a>
</g>
</g>
<!-- Node1&#45;&gt;Node6 -->
<g id="edge5_Node000001_Node000006" class="edge">
<title>Node1&#45;&gt;Node6</title>
<g id="a_edge5_Node000001_Node000006"><a xlink:title=" ">
<path fill="none" stroke="#63b8ff" d="M456.68,-132.5C438.36,-132.5 418.12,-132.5 400.69,-132.5"/>
<polygon fill="#63b8ff" stroke="#63b8ff" points="456.92,-136 466.92,-132.5 456.92,-129 456.92,-136"/>
</a>
</g>
</g>
<!-- Node8 -->
<g id="Node000008" class="node">
<title>Node8</title>
<g id="a_Node000008"><a xlink:href="se050__handler__comprehensive__test_8cpp.html#ad7178bfd7bed244bfbb8045f77e478bb" target="_top" xlink:title=" ">
<polygon fill="white" stroke="#666666" points="400.5,-105 311.5,-105 311.5,-86 400.5,-86 400.5,-105"/>
<text text-anchor="middle" x="356" y="-93" font-family="Helvetica,sans-Serif" font-size="10.00">create_handler</text>
</a>
</g>
</g>
<!-- Node1&#45;&gt;Node8 -->
<g id="edge7_Node000001_Node000008" class="edge">
<title>Node1&#45;&gt;Node8</title>
<g id="a_edge7_Node000001_Node000008"><a xlink:title=" ">
<path fill="none" stroke="#63b8ff" d="M461.03,-120.57C440.2,-115.56 416.3,-109.79 396.66,-105.06"/>
<polygon fill="#63b8ff" stroke="#63b8ff" points="460.43,-124.03 470.97,-122.97 462.07,-117.23 460.43,-124.03"/>
</a>
</g>
</g>
<!-- Node10 -->
<g id="Node000010" class="node">
<title>Node10</title>
<g id="a_Node000010"><a xlink:href="full__system__integration__test_8cpp.html#a0ffcd10e1f0034357e4d75e4e19504be" target="_top" xlink:title=" ">
<polygon fill="white" stroke="#666666" points="405.5,-65 306.5,-65 306.5,-46 405.5,-46 405.5,-65"/>
<text text-anchor="middle" x="356" y="-53" font-family="Helvetica,sans-Serif" font-size="10.00">i2c_handler_task</text>
</a>
</g>
</g>
<!-- Node1&#45;&gt;Node10 -->
<g id="edge9_Node000001_Node000010" class="edge">
<title>Node1&#45;&gt;Node10</title>
<g id="a_edge9_Node000001_Node000010"><a xlink:title=" ">
<path fill="none" stroke="#63b8ff" d="M490.88,-116.28C475.41,-104.18 452.89,-87.99 431,-77.5 420.49,-72.46 408.57,-68.3 397.42,-65.01"/>
<polygon fill="#63b8ff" stroke="#63b8ff" points="489.11,-119.35 499.1,-122.86 493.48,-113.88 489.11,-119.35"/>
</a>
</g>
</g>
<!-- Node13 -->
<g id="Node000013" class="node">
<title>Node13</title>
<g id="a_Node000013"><a xlink:href="full__system__integration__test_8cpp.html#a5a65d07819438b3ffa159258ea42a9ea" target="_top" xlink:title=" ">
<polygon fill="white" stroke="#666666" points="245,-19 101,-19 101,0 245,0 245,-19"/>
<text text-anchor="middle" x="173" y="-7" font-family="Helvetica,sans-Serif" font-size="10.00">test_i2c_multi_device_init</text>
</a>
</g>
</g>
<!-- Node1&#45;&gt;Node13 -->
<g id="edge12_Node000001_Node000013" class="edge">
<title>Node1&#45;&gt;Node13</title>
<g id="a_edge12_Node000001_Node000013"><a xlink:title=" ">
<path fill="none" stroke="#63b8ff" d="M500.95,-113.8C488.3,-91.2 463.73,-54.04 431,-36.5 373.86,-5.88 299.34,-1.23 245.27,-2.98"/>
<polygon fill="#63b8ff" stroke="#63b8ff" points="497.95,-115.61 505.77,-122.76 504.11,-112.3 497.95,-115.61"/>
</a>
</g>
</g>
<!-- Node14 -->
<g id="Node000014" class="node">
<title>Node14</title>
<g id="a_Node000014"><a xlink:href="bno08x__handler__comprehensive__test_8cpp.html#ac83f97b7754666b5e7733941b37c5630" target="_top" xlink:title=" ">
<polygon fill="white" stroke="#666666" points="431,-216 281,-216 281,-197 431,-197 431,-216"/>
<text text-anchor="middle" x="356" y="-204" font-family="Helvetica,sans-Serif" font-size="10.00">test_operations_before_init</text>
</a>
</g>
</g>
<!-- Node1&#45;&gt;Node14 -->
<g id="edge14_Node000001_Node000014" class="edge">
<title>Node1&#45;&gt;Node14</title>
<g id="a_edge14_Node000001_Node000014"><a xlink:title=" ">
<path fill="none" stroke="#63b8ff" d="M492.03,-148.56C476.66,-161.15 453.7,-178.2 431,-188.5 423.54,-191.89 415.35,-194.69 407.22,-196.99"/>
<polygon fill="#63b8ff" stroke="#63b8ff" points="494.32,-151.21 499.74,-142.1 489.83,-145.84 494.32,-151.21"/>
</a>
</g>
</g>
<!-- Node3 -->
<g id="Node000003" class="node">
<title>Node3</title>
<g id="a_Node000003"><a xlink:href="bno08x__handler__comprehensive__test_8cpp.html#a630544a7f0a2cc40d8a7fefab7e2fe70" target="_top" xlink:title=" ">
<polygon fill="white" stroke="#666666" points="205.5,-234 140.5,-234 140.5,-215 205.5,-215 205.5,-234"/>
<text text-anchor="middle" x="173" y="-222" font-family="Helvetica,sans-Serif" font-size="10.00">app_main</text>
</a>
</g>
</g>
<!-- Node2&#45;&gt;Node3 -->
<g id="edge2_Node000002_Node000003" class="edge">
<title>Node2&#45;&gt;Node3</title>
<g id="a_edge2_Node000002_Node000003"><a xlink:title=" ">
<path fill="none" stroke="#63b8ff" d="M300.92,-237.82C269.8,-234.56 231.77,-230.56 205.5,-227.81"/>
<polygon fill="#63b8ff" stroke="#63b8ff" points="300.87,-241.34 311.18,-238.9 301.61,-234.38 300.87,-241.34"/>
</a>
</g>
</g>
<!-- Node5 -->
<g id="Node000005" class="node">
<title>Node5</title>
<g id="a_Node000005"><a xlink:href="pca9685__handler__comprehensive__test_8cpp.html#a630544a7f0a2cc40d8a7fefab7e2fe70" target="_top" xlink:title=" ">
<polygon fill="white" stroke="#666666" points="205.5,-179 140.5,-179 140.5,-160 205.5,-160 205.5,-179"/>
<text text-anchor="middle" x="173" y="-167" font-family="Helvetica,sans-Serif" font-size="10.00">app_main</text>
</a>
</g>
</g>
<!-- Node4&#45;&gt;Node5 -->
<g id="edge4_Node000004_Node000005" class="edge">
<title>Node4&#45;&gt;Node5</title>
<g id="a_edge4_Node000004_Node000005"><a xlink:title=" ">
<path fill="none" stroke="#63b8ff" d="M300.92,-169.5C269.8,-169.5 231.77,-169.5 205.5,-169.5"/>
<polygon fill="#63b8ff" stroke="#63b8ff" points="301.18,-173 311.18,-169.5 301.18,-166 301.18,-173"/>
</a>
</g>
</g>
<!-- Node7 -->
<g id="Node000007" class="node">
<title>Node7</title>
<g id="a_Node000007"><a xlink:href="pcal95555__handler__comprehensive__test_8cpp.html#a630544a7f0a2cc40d8a7fefab7e2fe70" target="_top" xlink:title=" ">
<polygon fill="white" stroke="#666666" points="205.5,-142 140.5,-142 140.5,-123 205.5,-123 205.5,-142"/>
<text text-anchor="middle" x="173" y="-130" font-family="Helvetica,sans-Serif" font-size="10.00">app_main</text>
</a>
</g>
</g>
<!-- Node6&#45;&gt;Node7 -->
<g id="edge6_Node000006_Node000007" class="edge">
<title>Node6&#45;&gt;Node7</title>
<g id="a_edge6_Node000006_Node000007"><a xlink:title=" ">
<path fill="none" stroke="#63b8ff" d="M300.92,-132.5C269.8,-132.5 231.77,-132.5 205.5,-132.5"/>
<polygon fill="#63b8ff" stroke="#63b8ff" points="301.18,-136 311.18,-132.5 301.18,-129 301.18,-136"/>
</a>
</g>
</g>
<!-- Node9 -->
<g id="Node000009" class="node">
<title>Node9</title>
<g id="a_Node000009"><a xlink:href="se050__handler__comprehensive__test_8cpp.html#a630544a7f0a2cc40d8a7fefab7e2fe70" target="_top" xlink:title=" ">
<polygon fill="white" stroke="#666666" points="205.5,-105 140.5,-105 140.5,-86 205.5,-86 205.5,-105"/>
<text text-anchor="middle" x="173" y="-93" font-family="Helvetica,sans-Serif" font-size="10.00">app_main</text>
</a>
</g>
</g>
<!-- Node8&#45;&gt;Node9 -->
<g id="edge8_Node000008_Node000009" class="edge">
<title>Node8&#45;&gt;Node9</title>
<g id="a_edge8_Node000008_Node000009"><a xlink:title=" ">
<path fill="none" stroke="#63b8ff" d="M300.92,-95.5C269.8,-95.5 231.77,-95.5 205.5,-95.5"/>
<polygon fill="#63b8ff" stroke="#63b8ff" points="301.18,-99 311.18,-95.5 301.18,-92 301.18,-99"/>
</a>
</g>
</g>
<!-- Node11 -->
<g id="Node000011" class="node">
<title>Node11</title>
<g id="a_Node000011"><a xlink:href="full__system__integration__test_8cpp.html#ab02326456d9f2a9466cae859c06f9f1a" target="_top" xlink:title=" ">
<polygon fill="white" stroke="#666666" points="229,-67.5 117,-67.5 117,-37.5 229,-37.5 229,-67.5"/>
<text text-anchor="start" x="125" y="-55.5" font-family="Helvetica,sans-Serif" font-size="10.00">test_concurrent_i2c</text>
<text text-anchor="middle" x="173" y="-44.5" font-family="Helvetica,sans-Serif" font-size="10.00">_access</text>
</a>
</g>
</g>
<!-- Node10&#45;&gt;Node11 -->
<g id="edge10_Node000010_Node000011" class="edge">
<title>Node10&#45;&gt;Node11</title>
<g id="a_edge10_Node000010_Node000011"><a xlink:title=" ">
<path fill="none" stroke="#63b8ff" d="M296.45,-54.53C274.8,-54.17 250.36,-53.77 229.04,-53.41"/>
<polygon fill="#63b8ff" stroke="#63b8ff" points="296.44,-58.03 306.5,-54.7 296.55,-51.03 296.44,-58.03"/>
</a>
</g>
</g>
<!-- Node12 -->
<g id="Node000012" class="node">
<title>Node12</title>
<g id="a_Node000012"><a xlink:href="full__system__integration__test_8cpp.html#a630544a7f0a2cc40d8a7fefab7e2fe70" target="_top" xlink:title=" ">
<polygon fill="white" stroke="#666666" points="65,-40 0,-40 0,-21 65,-21 65,-40"/>
<text text-anchor="middle" x="32.5" y="-28" font-family="Helvetica,sans-Serif" font-size="10.00">app_main</text>
</a>
</g>
</g>
<!-- Node11&#45;&gt;Node12 -->
<g id="edge11_Node000011_Node000012" class="edge">
<title>Node11&#45;&gt;Node12</title>
<g id="a_edge11_Node000011_Node000012"><a xlink:title=" ">
<path fill="none" stroke="#63b8ff" d="M106.92,-42.16C92.45,-39.86 77.74,-37.53 65.32,-35.56"/>
<polygon fill="#63b8ff" stroke="#63b8ff" points="106.44,-45.63 116.86,-43.74 107.54,-38.72 106.44,-45.63"/>
</a>
</g>
</g>
<!-- Node13&#45;&gt;Node12 -->
<g id="edge13_Node000013_Node000012" class="edge">
<title>Node13&#45;&gt;Node12</title>
<g id="a_edge13_Node000013_Node000012"><a xlink:title=" ">
<path fill="none" stroke="#63b8ff" d="M99.15,-20.55C87.15,-22.36 75.3,-24.16 65.04,-25.72"/>
<polygon fill="#63b8ff" stroke="#63b8ff" points="99.87,-23.98 109.23,-19.02 98.82,-17.06 99.87,-23.98"/>
</a>
</g>
</g>
<!-- Node14&#45;&gt;Node3 -->
<g id="edge15_Node000014_Node000003" class="edge">
<title>Node14&#45;&gt;Node3</title>
<g id="a_edge15_Node000014_Node000003"><a xlink:title=" ">
<path fill="none" stroke="#63b8ff" d="M270.67,-214.89C247.58,-217.18 223.96,-219.53 205.85,-221.33"/>
<polygon fill="#63b8ff" stroke="#63b8ff" points="271.25,-218.35 280.86,-213.87 270.56,-211.38 271.25,-218.35"/>
</a>
</g>
</g>
</g>
</svg>
