<?xml version="1.0" encoding="UTF-8" standalone="no"?>
<!DOCTYPE svg PUBLIC "-//W3C//DTD SVG 1.1//EN"
 "http://www.w3.org/Graphics/SVG/1.1/DTD/svg11.dtd">
<!-- Generated by graphviz version 2.43.0 (0)
 -->
<!-- Title: Graphical Class Hierarchy Pages: 1 -->
<svg width="235pt" height="101pt"
 viewBox="0.00 0.00 235.00 101.00" xmlns="http://www.w3.org/2000/svg" xmlns:xlink="http://www.w3.org/1999/xlink">
<g id="graph0" class="graph" transform="scale(1 1) rotate(0) translate(4 97)">
<title>Graphical Class Hierarchy</title>
<!-- Node0 -->
<g id="Node000000" class="node">
<title>Node0</title>
<g id="a_Node000000"><a xlink:title=" ">
<polygon fill="#e0e0e0" stroke="#999999" points="63,-56 0,-56 0,-37 63,-37 63,-56"/>
<text text-anchor="middle" x="31.5" y="-44" font-family="Helvetica,sans-Serif" font-size="10.00">BaseGpio</text>
</a>
</g>
</g>
<!-- Node1 -->
<g id="Node000001" class="node">
<title>Node1</title>
<g id="a_Node000001"><a xlink:href="classPca9685GpioPin.html" target="_top" xlink:title="BaseGpio adapter for a single PCA9685 channel used as a digital output.">
<polygon fill="white" stroke="#666666" points="210.5,-93 115.5,-93 115.5,-74 210.5,-74 210.5,-93"/>
<text text-anchor="middle" x="163" y="-81" font-family="Helvetica,sans-Serif" font-size="10.00">Pca9685GpioPin</text>
</a>
</g>
</g>
<!-- Node0&#45;&gt;Node1 -->
<g id="edge4_Node000000_Node000001" class="edge">
<title>Node0&#45;&gt;Node1</title>
<g id="a_edge4_Node000000_Node000001"><a xlink:title=" ">
<path fill="none" stroke="#63b8ff" d="M73.26,-58.14C90.98,-63.21 111.51,-69.07 128.35,-73.89"/>
<polygon fill="#63b8ff" stroke="#63b8ff" points="73.77,-54.65 63.19,-55.27 71.84,-61.38 73.77,-54.65"/>
</a>
</g>
</g>
<!-- Node2 -->
<g id="Node000002" class="node">
<title>Node2</title>
<g id="a_Node000002"><a xlink:href="classPcal95555GpioPin.html" target="_top" xlink:title="BaseGpio adapter for a single PCAL95555 GPIO expander pin.">
<polygon fill="white" stroke="#666666" points="215,-56 111,-56 111,-37 215,-37 215,-56"/>
<text text-anchor="middle" x="163" y="-44" font-family="Helvetica,sans-Serif" font-size="10.00">Pcal95555GpioPin</text>
</a>
</g>
</g>
<!-- Node0&#45;&gt;Node2 -->
<g id="edge5_Node000000_Node000002" class="edge">
<title>Node0&#45;&gt;Node2</title>
<g id="a_edge5_Node000000_Node000002"><a xlink:title=" ">
<path fill="none" stroke="#63b8ff" d="M73.27,-46.5C85.17,-46.5 98.32,-46.5 110.77,-46.5"/>
<polygon fill="#63b8ff" stroke="#63b8ff" points="73.19,-43 63.19,-46.5 73.19,-50 73.19,-43"/>
</a>
</g>
</g>
<!-- Node3 -->
<g id="Node000003" class="node">
<title>Node3</title>
<g id="a_Node000003"><a xlink:href="classTmc9660Handler_1_1Gpio.html" target="_top" xlink:title="BaseGpio adapter for a single TMC9660 internal GPIO channel.">
<polygon fill="white" stroke="#666666" points="227,-19 99,-19 99,0 227,0 227,-19"/>
<text text-anchor="middle" x="163" y="-7" font-family="Helvetica,sans-Serif" font-size="10.00">Tmc9660Handler::Gpio</text>
</a>
</g>
</g>
<!-- Node0&#45;&gt;Node3 -->
<g id="edge6_Node000000_Node000003" class="edge">
<title>Node0&#45;&gt;Node3</title>
<g id="a_edge6_Node000000_Node000003"><a xlink:title=" ">
<path fill="none" stroke="#63b8ff" d="M73.26,-34.86C90.98,-29.79 111.51,-23.93 128.35,-19.11"/>
<polygon fill="#63b8ff" stroke="#63b8ff" points="71.84,-31.62 63.19,-37.73 73.77,-38.35 71.84,-31.62"/>
</a>
</g>
</g>
</g>
</svg>
