<?xml version="1.0" encoding="UTF-8" standalone="no"?>
<!DOCTYPE svg PUBLIC "-//W3C//DTD SVG 1.1//EN"
 "http://www.w3.org/Graphics/SVG/1.1/DTD/svg11.dtd">
<!-- Generated by graphviz version 2.43.0 (0)
 -->
<!-- Title: Graphical Class Hierarchy Pages: 1 -->
<svg width="227pt" height="64pt"
 viewBox="0.00 0.00 227.00 64.00" xmlns="http://www.w3.org/2000/svg" xmlns:xlink="http://www.w3.org/1999/xlink">
<g id="graph0" class="graph" transform="scale(1 1) rotate(0) translate(4 60)">
<title>Graphical Class Hierarchy</title>
<!-- Node0 -->
<g id="Node000000" class="node">
<title>Node0</title>
<g id="a_Node000000"><a xlink:title=" ">
<polygon fill="#e0e0e0" stroke="#999999" points="59,-37 0,-37 0,-18 59,-18 59,-37"/>
<text text-anchor="middle" x="29.5" y="-25" font-family="Helvetica,sans-Serif" font-size="10.00">BaseAdc</text>
</a>
</g>
</g>
<!-- Node1 -->
<g id="Node000001" class="node">
<title>Node1</title>
<g id="a_Node000001"><a xlink:href="classTmc9660AdcWrapper.html" target="_top" xlink:title="Delegation wrapper that adapts Tmc9660Handler::Adc for external ownership.">
<polygon fill="white" stroke="#666666" points="217.5,-56 96.5,-56 96.5,-37 217.5,-37 217.5,-56"/>
<text text-anchor="middle" x="157" y="-44" font-family="Helvetica,sans-Serif" font-size="10.00">Tmc9660AdcWrapper</text>
</a>
</g>
</g>
<!-- Node0&#45;&gt;Node1 -->
<g id="edge2_Node000000_Node000001" class="edge">
<title>Node0&#45;&gt;Node1</title>
<g id="a_edge2_Node000000_Node000001"><a xlink:title=" ">
<path fill="none" stroke="#63b8ff" d="M69.35,-33.38C77.92,-34.68 87.19,-36.08 96.37,-37.47"/>
<polygon fill="#63b8ff" stroke="#63b8ff" points="69.7,-29.9 59.29,-31.86 68.66,-36.82 69.7,-29.9"/>
</a>
</g>
</g>
<!-- Node2 -->
<g id="Node000002" class="node">
<title>Node2</title>
<g id="a_Node000002"><a xlink:href="classTmc9660Handler_1_1Adc.html" target="_top" xlink:title="BaseAdc adapter for all TMC9660 ADC channels.">
<polygon fill="white" stroke="#666666" points="219,-19 95,-19 95,0 219,0 219,-19"/>
<text text-anchor="middle" x="157" y="-7" font-family="Helvetica,sans-Serif" font-size="10.00">Tmc9660Handler::Adc</text>
</a>
</g>
</g>
<!-- Node0&#45;&gt;Node2 -->
<g id="edge3_Node000000_Node000002" class="edge">
<title>Node0&#45;&gt;Node2</title>
<g id="a_edge3_Node000000_Node000002"><a xlink:title=" ">
<path fill="none" stroke="#63b8ff" d="M69.21,-21.95C77.35,-20.78 86.12,-19.52 94.85,-18.27"/>
<polygon fill="#63b8ff" stroke="#63b8ff" points="68.69,-18.49 59.29,-23.37 69.69,-25.42 68.69,-18.49"/>
</a>
</g>
</g>
</g>
</svg>
