<?xml version="1.0" encoding="UTF-8" standalone="no"?>
<!DOCTYPE svg PUBLIC "-//W3C//DTD SVG 1.1//EN"
 "http://www.w3.org/Graphics/SVG/1.1/DTD/svg11.dtd">
<!-- Generated by graphviz version 2.43.0 (0)
 -->
<!-- Title: Graphical Class Hierarchy Pages: 1 -->
<svg width="313pt" height="101pt"
 viewBox="0.00 0.00 313.00 101.00" xmlns="http://www.w3.org/2000/svg" xmlns:xlink="http://www.w3.org/1999/xlink">
<g id="graph0" class="graph" transform="scale(1 1) rotate(0) translate(4 97)">
<title>Graphical Class Hierarchy</title>
<!-- Node0 -->
<g id="Node000000" class="node">
<title>Node0</title>
<g id="a_Node000000"><a xlink:title=" ">
<polygon fill="#e0e0e0" stroke="#999999" points="102,-56 0,-56 0,-37 102,-37 102,-56"/>
<text text-anchor="middle" x="51" y="-44" font-family="Helvetica,sans-Serif" font-size="10.00">BaseTemperature</text>
</a>
</g>
</g>
<!-- Node1 -->
<g id="Node000001" class="node">
<title>Node1</title>
<g id="a_Node000001"><a xlink:href="classMcp9700TemperatureHandler.html" target="_top" xlink:title="BaseTemperature implementation for an MCP9700 on a multiplexed ADC channel.">
<polygon fill="white" stroke="#666666" points="302,-93 141,-93 141,-74 302,-74 302,-93"/>
<text text-anchor="middle" x="221.5" y="-81" font-family="Helvetica,sans-Serif" font-size="10.00">Mcp9700TemperatureHandler</text>
</a>
</g>
</g>
<!-- Node0&#45;&gt;Node1 -->
<g id="edge10_Node000000_Node000001" class="edge">
<title>Node0&#45;&gt;Node1</title>
<g id="a_edge10_Node000000_Node000001"><a xlink:title=" ">
<path fill="none" stroke="#63b8ff" d="M105.12,-58.26C115.99,-60.66 127.37,-63.17 138,-65.5 150.6,-68.27 164.29,-71.26 176.82,-73.99"/>
<polygon fill="#63b8ff" stroke="#63b8ff" points="105.82,-54.83 95.3,-56.09 104.31,-61.67 105.82,-54.83"/>
</a>
</g>
</g>
<!-- Node2 -->
<g id="Node000002" class="node">
<title>Node2</title>
<g id="a_Node000002"><a xlink:href="classNtcTemperatureHandler.html" target="_top" xlink:title="NTC temperature sensor handler implementing BaseTemperature interface.">
<polygon fill="white" stroke="#666666" points="288,-56 155,-56 155,-37 288,-37 288,-56"/>
<text text-anchor="middle" x="221.5" y="-44" font-family="Helvetica,sans-Serif" font-size="10.00">NtcTemperatureHandler</text>
</a>
</g>
</g>
<!-- Node0&#45;&gt;Node2 -->
<g id="edge11_Node000000_Node000002" class="edge">
<title>Node0&#45;&gt;Node2</title>
<g id="a_edge11_Node000000_Node000002"><a xlink:title=" ">
<path fill="none" stroke="#63b8ff" d="M112.44,-46.5C126.24,-46.5 140.97,-46.5 154.97,-46.5"/>
<polygon fill="#63b8ff" stroke="#63b8ff" points="112.1,-43 102.1,-46.5 112.1,-50 112.1,-43"/>
</a>
</g>
</g>
<!-- Node3 -->
<g id="Node000003" class="node">
<title>Node3</title>
<g id="a_Node000003"><a xlink:href="classTmc9660Handler_1_1Temperature.html" target="_top" xlink:title="BaseTemperature adapter for the TMC9660 internal chip temperature sensor.">
<polygon fill="white" stroke="#666666" points="305,-19 138,-19 138,0 305,0 305,-19"/>
<text text-anchor="middle" x="221.5" y="-7" font-family="Helvetica,sans-Serif" font-size="10.00">Tmc9660Handler::Temperature</text>
</a>
</g>
</g>
<!-- Node0&#45;&gt;Node3 -->
<g id="edge12_Node000000_Node000003" class="edge">
<title>Node0&#45;&gt;Node3</title>
<g id="a_edge12_Node000000_Node000003"><a xlink:title=" ">
<path fill="none" stroke="#63b8ff" d="M105.37,-34.78C128.45,-29.71 155.11,-23.86 176.96,-19.06"/>
<polygon fill="#63b8ff" stroke="#63b8ff" points="104.41,-31.41 95.39,-36.97 105.91,-38.25 104.41,-31.41"/>
</a>
</g>
</g>
</g>
</svg>
