<?xml version="1.0" encoding="UTF-8" standalone="no"?>
<!DOCTYPE svg PUBLIC "-//W3C//DTD SVG 1.1//EN"
 "http://www.w3.org/Graphics/SVG/1.1/DTD/svg11.dtd">
<!-- Generated by graphviz version 2.43.0 (0)
 -->
<!-- Title: Logger.cpp Pages: 1 -->
<svg width="575pt" height="170pt"
 viewBox="0.00 0.00 574.50 170.00" xmlns="http://www.w3.org/2000/svg" xmlns:xlink="http://www.w3.org/1999/xlink">
<g id="graph0" class="graph" transform="scale(1 1) rotate(0) translate(4 166)">
<title>Logger.cpp</title>
<!-- Node1 -->
<g id="Node000001" class="node">
<title>Node1</title>
<g id="a_Node000001"><a xlink:title="Implementation of the advanced logging system.">
<polygon fill="#999999" stroke="#666666" points="303,-162 234,-162 234,-143 303,-143 303,-162"/>
<text text-anchor="middle" x="268.5" y="-150" font-family="Helvetica,sans-Serif" font-size="10.00">Logger.cpp</text>
</a>
</g>
</g>
<!-- Node2 -->
<g id="Node000002" class="node">
<title>Node2</title>
<g id="a_Node000002"><a xlink:href="Logger_8h.html" target="_top" xlink:title="Advanced logging system with formatting capabilities.">
<polygon fill="white" stroke="#666666" points="182.5,-90.5 124.5,-90.5 124.5,-71.5 182.5,-71.5 182.5,-90.5"/>
<text text-anchor="middle" x="153.5" y="-78.5" font-family="Helvetica,sans-Serif" font-size="10.00">Logger.h</text>
</a>
</g>
</g>
<!-- Node1&#45;&gt;Node2 -->
<g id="edge1_Node000001_Node000002" class="edge">
<title>Node1&#45;&gt;Node2</title>
<g id="a_edge1_Node000001_Node000002"><a xlink:title=" ">
<path fill="none" stroke="#63b8ff" d="M253.54,-142.98C238.14,-134.15 213.49,-119.86 192.5,-107 186.97,-103.61 181.04,-99.87 175.53,-96.34"/>
<polygon fill="#63b8ff" stroke="#63b8ff" points="177.07,-93.17 166.77,-90.7 173.28,-99.06 177.07,-93.17"/>
</a>
</g>
</g>
<!-- Node3 -->
<g id="Node000003" class="node">
<title>Node3</title>
<g id="a_Node000003"><a xlink:title=" ">
<polygon fill="#e0e0e0" stroke="#999999" points="53,-19 0,-19 0,0 53,0 53,-19"/>
<text text-anchor="middle" x="26.5" y="-7" font-family="Helvetica,sans-Serif" font-size="10.00">cstdarg</text>
</a>
</g>
</g>
<!-- Node1&#45;&gt;Node3 -->
<g id="edge8_Node000001_Node000003" class="edge">
<title>Node1&#45;&gt;Node3</title>
<g id="a_edge8_Node000001_Node000003"><a xlink:title=" ">
<path fill="none" stroke="#63b8ff" d="M233.87,-150.05C195.82,-146.9 134.42,-137.13 91.5,-107 63.09,-87.05 43.53,-50.39 33.74,-28.45"/>
<polygon fill="#63b8ff" stroke="#63b8ff" points="36.86,-26.83 29.72,-19 30.41,-29.57 36.86,-26.83"/>
</a>
</g>
</g>
<!-- Node4 -->
<g id="Node000004" class="node">
<title>Node4</title>
<g id="a_Node000004"><a xlink:title=" ">
<polygon fill="#e0e0e0" stroke="#999999" points="121.5,-19 71.5,-19 71.5,0 121.5,0 121.5,-19"/>
<text text-anchor="middle" x="96.5" y="-7" font-family="Helvetica,sans-Serif" font-size="10.00">cstring</text>
</a>
</g>
</g>
<!-- Node1&#45;&gt;Node4 -->
<g id="edge9_Node000001_Node000004" class="edge">
<title>Node1&#45;&gt;Node4</title>
<g id="a_edge9_Node000001_Node000004"><a xlink:title=" ">
<path fill="none" stroke="#63b8ff" d="M233.68,-151.26C198.66,-149.04 145.66,-139.96 115.5,-107 96.15,-85.86 94.01,-50.96 94.82,-29.43"/>
<polygon fill="#63b8ff" stroke="#63b8ff" points="98.33,-29.48 95.47,-19.27 91.34,-29.03 98.33,-29.48"/>
</a>
</g>
</g>
<!-- Node8 -->
<g id="Node000008" class="node">
<title>Node8</title>
<g id="a_Node000008"><a xlink:title=" ">
<polygon fill="#e0e0e0" stroke="#999999" points="336,-107 201,-107 201,-55 336,-55 336,-107"/>
<text text-anchor="start" x="209" y="-95" font-family="Helvetica,sans-Serif" font-size="10.00">../../hf&#45;core&#45;drivers</text>
<text text-anchor="start" x="209" y="-84" font-family="Helvetica,sans-Serif" font-size="10.00">/internal/hf&#45;internal</text>
<text text-anchor="start" x="209" y="-73" font-family="Helvetica,sans-Serif" font-size="10.00">&#45;interface&#45;wrap/inc/base</text>
<text text-anchor="middle" x="268.5" y="-62" font-family="Helvetica,sans-Serif" font-size="10.00">/BaseLogger.h</text>
</a>
</g>
</g>
<!-- Node1&#45;&gt;Node8 -->
<g id="edge7_Node000001_Node000008" class="edge">
<title>Node1&#45;&gt;Node8</title>
<g id="a_edge7_Node000001_Node000008"><a xlink:title=" ">
<path fill="none" stroke="#63b8ff" d="M268.5,-142.98C268.5,-136.43 268.5,-126.91 268.5,-117.33"/>
<polygon fill="#63b8ff" stroke="#63b8ff" points="272,-117.05 268.5,-107.05 265,-117.05 272,-117.05"/>
</a>
</g>
</g>
<!-- Node9 -->
<g id="Node000009" class="node">
<title>Node9</title>
<g id="a_Node000009"><a xlink:title=" ">
<polygon fill="#e0e0e0" stroke="#999999" points="418.5,-90.5 354.5,-90.5 354.5,-71.5 418.5,-71.5 418.5,-90.5"/>
<text text-anchor="middle" x="386.5" y="-78.5" font-family="Helvetica,sans-Serif" font-size="10.00">algorithm</text>
</a>
</g>
</g>
<!-- Node1&#45;&gt;Node9 -->
<g id="edge10_Node000001_Node000009" class="edge">
<title>Node1&#45;&gt;Node9</title>
<g id="a_edge10_Node000001_Node000009"><a xlink:title=" ">
<path fill="none" stroke="#63b8ff" d="M283.61,-142.91C299.18,-134.02 324.13,-119.69 345.5,-107 351.43,-103.48 357.8,-99.63 363.72,-96.02"/>
<polygon fill="#63b8ff" stroke="#63b8ff" points="365.8,-98.85 372.51,-90.64 362.15,-92.88 365.8,-98.85"/>
</a>
</g>
</g>
<!-- Node10 -->
<g id="Node000010" class="node">
<title>Node10</title>
<g id="a_Node000010"><a xlink:title=" ">
<polygon fill="#e0e0e0" stroke="#999999" points="492.5,-90.5 436.5,-90.5 436.5,-71.5 492.5,-71.5 492.5,-90.5"/>
<text text-anchor="middle" x="464.5" y="-78.5" font-family="Helvetica,sans-Serif" font-size="10.00">sstream</text>
</a>
</g>
</g>
<!-- Node1&#45;&gt;Node10 -->
<g id="edge11_Node000001_Node000010" class="edge">
<title>Node1&#45;&gt;Node10</title>
<g id="a_edge11_Node000001_Node000010"><a xlink:title=" ">
<path fill="none" stroke="#63b8ff" d="M303.12,-145.16C336.11,-138.36 386.66,-125.91 427.5,-107 433.54,-104.2 439.69,-100.47 445.2,-96.75"/>
<polygon fill="#63b8ff" stroke="#63b8ff" points="447.62,-99.31 453.72,-90.65 443.55,-93.62 447.62,-99.31"/>
</a>
</g>
</g>
<!-- Node11 -->
<g id="Node000011" class="node">
<title>Node11</title>
<g id="a_Node000011"><a xlink:title=" ">
<polygon fill="#e0e0e0" stroke="#999999" points="566.5,-90.5 510.5,-90.5 510.5,-71.5 566.5,-71.5 566.5,-90.5"/>
<text text-anchor="middle" x="538.5" y="-78.5" font-family="Helvetica,sans-Serif" font-size="10.00">iomanip</text>
</a>
</g>
</g>
<!-- Node1&#45;&gt;Node11 -->
<g id="edge12_Node000001_Node000011" class="edge">
<title>Node1&#45;&gt;Node11</title>
<g id="a_edge12_Node000001_Node000011"><a xlink:title=" ">
<path fill="none" stroke="#63b8ff" d="M303.31,-149.25C349.98,-145.26 434.69,-134.58 501.5,-107 507.9,-104.36 514.33,-100.52 520,-96.64"/>
<polygon fill="#63b8ff" stroke="#63b8ff" points="522.15,-99.4 528.16,-90.68 518.02,-93.75 522.15,-99.4"/>
</a>
</g>
</g>
<!-- Node2&#45;&gt;Node3 -->
<g id="edge2_Node000002_Node000003" class="edge">
<title>Node2&#45;&gt;Node3</title>
<g id="a_edge2_Node000002_Node000003"><a xlink:title=" ">
<path fill="none" stroke="#63b8ff" d="M137.93,-71.48C116.31,-59.65 76.99,-38.13 51.31,-24.08"/>
<polygon fill="#63b8ff" stroke="#63b8ff" points="52.65,-20.82 42.2,-19.09 49.29,-26.96 52.65,-20.82"/>
</a>
</g>
</g>
<!-- Node2&#45;&gt;Node4 -->
<g id="edge3_Node000002_Node000004" class="edge">
<title>Node2&#45;&gt;Node4</title>
<g id="a_edge3_Node000002_Node000004"><a xlink:title=" ">
<path fill="none" stroke="#63b8ff" d="M146.51,-71.48C137.45,-60.43 121.46,-40.93 110,-26.96"/>
<polygon fill="#63b8ff" stroke="#63b8ff" points="112.59,-24.6 103.55,-19.09 107.18,-29.04 112.59,-24.6"/>
</a>
</g>
</g>
<!-- Node5 -->
<g id="Node000005" class="node">
<title>Node5</title>
<g id="a_Node000005"><a xlink:title=" ">
<polygon fill="#e0e0e0" stroke="#999999" points="183.5,-19 139.5,-19 139.5,0 183.5,0 183.5,-19"/>
<text text-anchor="middle" x="161.5" y="-7" font-family="Helvetica,sans-Serif" font-size="10.00">string</text>
</a>
</g>
</g>
<!-- Node2&#45;&gt;Node5 -->
<g id="edge4_Node000002_Node000005" class="edge">
<title>Node2&#45;&gt;Node5</title>
<g id="a_edge4_Node000002_Node000005"><a xlink:title=" ">
<path fill="none" stroke="#63b8ff" d="M154.48,-71.48C155.68,-61.06 157.75,-43.11 159.33,-29.38"/>
<polygon fill="#63b8ff" stroke="#63b8ff" points="162.84,-29.43 160.51,-19.09 155.89,-28.63 162.84,-29.43"/>
</a>
</g>
</g>
<!-- Node6 -->
<g id="Node000006" class="node">
<title>Node6</title>
<g id="a_Node000006"><a xlink:title=" ">
<polygon fill="#e0e0e0" stroke="#999999" points="259.5,-19 201.5,-19 201.5,0 259.5,0 259.5,-19"/>
<text text-anchor="middle" x="230.5" y="-7" font-family="Helvetica,sans-Serif" font-size="10.00">memory</text>
</a>
</g>
</g>
<!-- Node2&#45;&gt;Node6 -->
<g id="edge5_Node000002_Node000006" class="edge">
<title>Node2&#45;&gt;Node6</title>
<g id="a_edge5_Node000002_Node000006"><a xlink:title=" ">
<path fill="none" stroke="#63b8ff" d="M162.94,-71.48C175.41,-60.22 197.6,-40.19 213.14,-26.17"/>
<polygon fill="#63b8ff" stroke="#63b8ff" points="215.9,-28.39 220.98,-19.09 211.21,-23.19 215.9,-28.39"/>
</a>
</g>
</g>
<!-- Node7 -->
<g id="Node000007" class="node">
<title>Node7</title>
<g id="a_Node000007"><a xlink:title=" ">
<polygon fill="#e0e0e0" stroke="#999999" points="327.5,-19 277.5,-19 277.5,0 327.5,0 327.5,-19"/>
<text text-anchor="middle" x="302.5" y="-7" font-family="Helvetica,sans-Serif" font-size="10.00">atomic</text>
</a>
</g>
</g>
<!-- Node2&#45;&gt;Node7 -->
<g id="edge6_Node000002_Node000007" class="edge">
<title>Node2&#45;&gt;Node7</title>
<g id="a_edge6_Node000002_Node000007"><a xlink:title=" ">
<path fill="none" stroke="#63b8ff" d="M165.79,-71.28C173.3,-66.17 183.21,-59.8 192.5,-55 216.94,-42.36 245.81,-30.8 267.85,-22.63"/>
<polygon fill="#63b8ff" stroke="#63b8ff" points="269.26,-25.84 277.45,-19.12 266.85,-19.27 269.26,-25.84"/>
</a>
</g>
</g>
</g>
</svg>
