<?xml version="1.0" encoding="UTF-8" standalone="no"?>
<!DOCTYPE svg PUBLIC "-//W3C//DTD SVG 1.1//EN"
 "http://www.w3.org/Graphics/SVG/1.1/DTD/svg11.dtd">
<!-- Generated by graphviz version 2.43.0 (0)
 -->
<!-- Title: Logger.h Pages: 1 -->
<svg width="1591pt" height="148pt"
 viewBox="0.00 0.00 1591.00 148.00" xmlns="http://www.w3.org/2000/svg" xmlns:xlink="http://www.w3.org/1999/xlink">
<g id="graph0" class="graph" transform="scale(1 1) rotate(0) translate(4 144)">
<title>Logger.h</title>
<!-- Node1 -->
<g id="Node000001" class="node">
<title>Node1</title>
<g id="a_Node000001"><a xlink:title="Advanced logging system with formatting capabilities.">
<polygon fill="#999999" stroke="#666666" points="670,-140 612,-140 612,-121 670,-121 670,-140"/>
<text text-anchor="middle" x="641" y="-128" font-family="Helvetica,sans-Serif" font-size="10.00">Logger.h</text>
</a>
</g>
</g>
<!-- Node2 -->
<g id="Node000002" class="node">
<title>Node2</title>
<g id="a_Node000002"><a xlink:href="Ads7952Handler_8cpp.html" target="_top" xlink:title="Implementation of the ADS7952 12&#45;channel SAR ADC handler.">
<polygon fill="white" stroke="#666666" points="116,-79.5 0,-79.5 0,-60.5 116,-60.5 116,-79.5"/>
<text text-anchor="middle" x="58" y="-67.5" font-family="Helvetica,sans-Serif" font-size="10.00">Ads7952Handler.cpp</text>
</a>
</g>
</g>
<!-- Node1&#45;&gt;Node2 -->
<g id="edge1_Node000001_Node000002" class="edge">
<title>Node1&#45;&gt;Node2</title>
<g id="a_edge1_Node000001_Node000002"><a xlink:title=" ">
<path fill="none" stroke="#63b8ff" d="M601.6,-127.72C515.01,-123.45 301.77,-111 125,-85 115.12,-83.55 104.52,-81.54 94.72,-79.5"/>
<polygon fill="#63b8ff" stroke="#63b8ff" points="601.61,-131.22 611.76,-128.21 601.94,-124.23 601.61,-131.22"/>
</a>
</g>
</g>
<!-- Node3 -->
<g id="Node000003" class="node">
<title>Node3</title>
<g id="a_Node000003"><a xlink:href="As5047uHandler_8cpp.html" target="_top" xlink:title="Implementation of unified AS5047U magnetic rotary position sensor handler.">
<polygon fill="white" stroke="#666666" points="250,-79.5 134,-79.5 134,-60.5 250,-60.5 250,-79.5"/>
<text text-anchor="middle" x="192" y="-67.5" font-family="Helvetica,sans-Serif" font-size="10.00">As5047uHandler.cpp</text>
</a>
</g>
</g>
<!-- Node1&#45;&gt;Node3 -->
<g id="edge2_Node000001_Node000003" class="edge">
<title>Node1&#45;&gt;Node3</title>
<g id="a_edge2_Node000001_Node000003"><a xlink:title=" ">
<path fill="none" stroke="#63b8ff" d="M601.58,-126.09C532.11,-119.81 383.43,-105.21 259,-85 249.5,-83.46 239.3,-81.49 229.8,-79.52"/>
<polygon fill="#63b8ff" stroke="#63b8ff" points="601.37,-129.58 611.64,-126.99 601.99,-122.61 601.37,-129.58"/>
</a>
</g>
</g>
<!-- Node4 -->
<g id="Node000004" class="node">
<title>Node4</title>
<g id="a_Node000004"><a xlink:href="Bno08xHandler_8cpp.html" target="_top" xlink:title="Implementation of unified BNO08x IMU sensor handler.">
<polygon fill="white" stroke="#666666" points="379.5,-79.5 268.5,-79.5 268.5,-60.5 379.5,-60.5 379.5,-79.5"/>
<text text-anchor="middle" x="324" y="-67.5" font-family="Helvetica,sans-Serif" font-size="10.00">Bno08xHandler.cpp</text>
</a>
</g>
</g>
<!-- Node1&#45;&gt;Node4 -->
<g id="edge3_Node000001_Node000004" class="edge">
<title>Node1&#45;&gt;Node4</title>
<g id="a_edge3_Node000001_Node000004"><a xlink:title=" ">
<path fill="none" stroke="#63b8ff" d="M601.56,-122.63C552.77,-114.09 467.18,-98.91 394,-85 384.99,-83.29 375.34,-81.4 366.17,-79.57"/>
<polygon fill="#63b8ff" stroke="#63b8ff" points="601.24,-126.13 611.69,-124.41 602.44,-119.24 601.24,-126.13"/>
</a>
</g>
</g>
<!-- Node5 -->
<g id="Node000005" class="node">
<title>Node5</title>
<g id="a_Node000005"><a xlink:href="HandlerCommon_8h.html" target="_top" xlink:title="Shared utility functions for handler CRTP communication adapters.">
<polygon fill="white" stroke="#666666" points="582,-79.5 474,-79.5 474,-60.5 582,-60.5 582,-79.5"/>
<text text-anchor="middle" x="528" y="-67.5" font-family="Helvetica,sans-Serif" font-size="10.00">HandlerCommon.h</text>
</a>
</g>
</g>
<!-- Node1&#45;&gt;Node5 -->
<g id="edge4_Node000001_Node000005" class="edge">
<title>Node1&#45;&gt;Node5</title>
<g id="a_edge4_Node000001_Node000005"><a xlink:title=" ">
<path fill="none" stroke="#63b8ff" d="M615.36,-116.23C593.72,-105.03 563.38,-89.32 544.74,-79.67"/>
<polygon fill="#63b8ff" stroke="#63b8ff" points="613.84,-119.38 624.33,-120.87 617.06,-113.16 613.84,-119.38"/>
</a>
</g>
</g>
<!-- Node6 -->
<g id="Node000006" class="node">
<title>Node6</title>
<g id="a_Node000006"><a xlink:href="Max22200Handler_8cpp.html" target="_top" xlink:title="Implementation of MAX22200 handler with SPI communication adapter.">
<polygon fill="white" stroke="#666666" points="362.5,-19 237.5,-19 237.5,0 362.5,0 362.5,-19"/>
<text text-anchor="middle" x="300" y="-7" font-family="Helvetica,sans-Serif" font-size="10.00">Max22200Handler.cpp</text>
</a>
</g>
</g>
<!-- Node1&#45;&gt;Node6 -->
<g id="edge10_Node000001_Node000006" class="edge">
<title>Node1&#45;&gt;Node6</title>
<g id="a_edge10_Node000001_Node000006"><a xlink:title=" ">
<path fill="none" stroke="#63b8ff" d="M601.82,-123.7C561.62,-117.05 497.69,-104.47 445,-85 418.15,-75.08 413.44,-68.13 388,-55 363.5,-42.36 335.01,-28.02 317.24,-19.11"/>
<polygon fill="#63b8ff" stroke="#63b8ff" points="601.32,-127.17 611.75,-125.31 602.44,-120.26 601.32,-127.17"/>
</a>
</g>
</g>
<!-- Node7 -->
<g id="Node000007" class="node">
<title>Node7</title>
<g id="a_Node000007"><a xlink:href="Tle92466edHandler_8cpp.html" target="_top" xlink:title="Implementation of TLE92466ED handler with SPI communication adapter.">
<polygon fill="white" stroke="#666666" points="511.5,-19 380.5,-19 380.5,0 511.5,0 511.5,-19"/>
<text text-anchor="middle" x="446" y="-7" font-family="Helvetica,sans-Serif" font-size="10.00">Tle92466edHandler.cpp</text>
</a>
</g>
</g>
<!-- Node1&#45;&gt;Node7 -->
<g id="edge14_Node000001_Node000007" class="edge">
<title>Node1&#45;&gt;Node7</title>
<g id="a_edge14_Node000001_Node000007"><a xlink:title=" ">
<path fill="none" stroke="#63b8ff" d="M602.03,-124.34C556.25,-117.51 484.08,-104.04 465,-85 447.05,-67.09 445.28,-34.73 445.56,-19.23"/>
<polygon fill="#63b8ff" stroke="#63b8ff" points="601.54,-127.81 611.94,-125.78 602.54,-120.88 601.54,-127.81"/>
</a>
</g>
</g>
<!-- Node8 -->
<g id="Node000008" class="node">
<title>Node8</title>
<g id="a_Node000008"><a xlink:href="Tmc5160Handler_8cpp.html" target="_top" xlink:title="Implementation of TMC5160 handler with SPI/UART communication adapters.">
<polygon fill="white" stroke="#666666" points="785.5,-19 666.5,-19 666.5,0 785.5,0 785.5,-19"/>
<text text-anchor="middle" x="726" y="-7" font-family="Helvetica,sans-Serif" font-size="10.00">Tmc5160Handler.cpp</text>
</a>
</g>
</g>
<!-- Node1&#45;&gt;Node8 -->
<g id="edge15_Node000001_Node000008" class="edge">
<title>Node1&#45;&gt;Node8</title>
<g id="a_edge15_Node000001_Node000008"><a xlink:title=" ">
<path fill="none" stroke="#63b8ff" d="M632.02,-111.59C625.36,-95.55 619.15,-71.99 630,-55 641.87,-36.42 663.7,-25.48 683.55,-19.1"/>
<polygon fill="#63b8ff" stroke="#63b8ff" points="628.94,-113.27 636.28,-120.91 635.3,-110.36 628.94,-113.27"/>
</a>
</g>
</g>
<!-- Node10 -->
<g id="Node000010" class="node">
<title>Node10</title>
<g id="a_Node000010"><a xlink:href="Logger_8cpp.html" target="_top" xlink:title="Implementation of the advanced logging system.">
<polygon fill="white" stroke="#666666" points="707.5,-79.5 638.5,-79.5 638.5,-60.5 707.5,-60.5 707.5,-79.5"/>
<text text-anchor="middle" x="673" y="-67.5" font-family="Helvetica,sans-Serif" font-size="10.00">Logger.cpp</text>
</a>
</g>
</g>
<!-- Node1&#45;&gt;Node10 -->
<g id="edge9_Node000001_Node000010" class="edge">
<title>Node1&#45;&gt;Node10</title>
<g id="a_edge9_Node000001_Node000010"><a xlink:title=" ">
<path fill="none" stroke="#63b8ff" d="M650.58,-111.98C656.42,-101.31 663.62,-88.15 668.26,-79.67"/>
<polygon fill="#63b8ff" stroke="#63b8ff" points="647.45,-110.42 645.72,-120.87 653.59,-113.77 647.45,-110.42"/>
</a>
</g>
</g>
<!-- Node11 -->
<g id="Node000011" class="node">
<title>Node11</title>
<g id="a_Node000011"><a xlink:href="NtcTemperatureHandler_8cpp.html" target="_top" xlink:title="Implementation of NTC temperature sensor handler for HardFOC system.">
<polygon fill="white" stroke="#666666" points="878,-79.5 726,-79.5 726,-60.5 878,-60.5 878,-79.5"/>
<text text-anchor="middle" x="802" y="-67.5" font-family="Helvetica,sans-Serif" font-size="10.00">NtcTemperatureHandler.cpp</text>
</a>
</g>
</g>
<!-- Node1&#45;&gt;Node11 -->
<g id="edge11_Node000001_Node000011" class="edge">
<title>Node1&#45;&gt;Node11</title>
<g id="a_edge11_Node000001_Node000011"><a xlink:title=" ">
<path fill="none" stroke="#63b8ff" d="M673.96,-117.52C705.09,-106.21 751,-89.53 778.56,-79.52"/>
<polygon fill="#63b8ff" stroke="#63b8ff" points="672.61,-114.29 664.41,-120.99 675,-120.87 672.61,-114.29"/>
</a>
</g>
</g>
<!-- Node12 -->
<g id="Node000012" class="node">
<title>Node12</title>
<g id="a_Node000012"><a xlink:href="Pca9685Handler_8cpp.html" target="_top" xlink:title="Implementation of the PCA9685 PWM controller handler.">
<polygon fill="white" stroke="#666666" points="1012,-79.5 896,-79.5 896,-60.5 1012,-60.5 1012,-79.5"/>
<text text-anchor="middle" x="954" y="-67.5" font-family="Helvetica,sans-Serif" font-size="10.00">Pca9685Handler.cpp</text>
</a>
</g>
</g>
<!-- Node1&#45;&gt;Node12 -->
<g id="edge12_Node000001_Node000012" class="edge">
<title>Node1&#45;&gt;Node12</title>
<g id="a_edge12_Node000001_Node000012"><a xlink:title=" ">
<path fill="none" stroke="#63b8ff" d="M680.3,-122.73C728.91,-114.27 814.17,-99.19 887,-85 895.75,-83.3 905.12,-81.39 914,-79.54"/>
<polygon fill="#63b8ff" stroke="#63b8ff" points="679.46,-119.32 670.21,-124.48 680.66,-126.22 679.46,-119.32"/>
</a>
</g>
</g>
<!-- Node13 -->
<g id="Node000013" class="node">
<title>Node13</title>
<g id="a_Node000013"><a xlink:href="Pcal95555Handler_8cpp.html" target="_top" xlink:title="Implementation of the PCAL95555 GPIO expander handler.">
<polygon fill="white" stroke="#666666" points="1155.5,-79.5 1030.5,-79.5 1030.5,-60.5 1155.5,-60.5 1155.5,-79.5"/>
<text text-anchor="middle" x="1093" y="-67.5" font-family="Helvetica,sans-Serif" font-size="10.00">Pcal95555Handler.cpp</text>
</a>
</g>
</g>
<!-- Node1&#45;&gt;Node13 -->
<g id="edge13_Node000001_Node000013" class="edge">
<title>Node1&#45;&gt;Node13</title>
<g id="a_edge13_Node000001_Node000013"><a xlink:title=" ">
<path fill="none" stroke="#63b8ff" d="M680.18,-125.9C749.25,-119.32 897.08,-104.28 1021,-85 1031.07,-83.43 1041.87,-81.48 1051.97,-79.53"/>
<polygon fill="#63b8ff" stroke="#63b8ff" points="679.81,-122.42 670.18,-126.84 680.47,-129.38 679.81,-122.42"/>
</a>
</g>
</g>
<!-- Node14 -->
<g id="Node000014" class="node">
<title>Node14</title>
<g id="a_Node000014"><a xlink:href="Ws2812Handler_8cpp.html" target="_top" xlink:title="Implementation of WS2812 LED strip handler.">
<polygon fill="white" stroke="#666666" points="1286.5,-79.5 1173.5,-79.5 1173.5,-60.5 1286.5,-60.5 1286.5,-79.5"/>
<text text-anchor="middle" x="1230" y="-67.5" font-family="Helvetica,sans-Serif" font-size="10.00">Ws2812Handler.cpp</text>
</a>
</g>
</g>
<!-- Node1&#45;&gt;Node14 -->
<g id="edge16_Node000001_Node000014" class="edge">
<title>Node1&#45;&gt;Node14</title>
<g id="a_edge16_Node000001_Node000014"><a xlink:title=" ">
<path fill="none" stroke="#63b8ff" d="M680.12,-127.88C767.49,-123.9 984.96,-111.92 1165,-85 1174.59,-83.57 1184.88,-81.57 1194.39,-79.53"/>
<polygon fill="#63b8ff" stroke="#63b8ff" points="679.96,-124.39 670.12,-128.33 680.27,-131.38 679.96,-124.39"/>
</a>
</g>
</g>
<!-- Node15 -->
<g id="Node000015" class="node">
<title>Node15</title>
<g id="a_Node000015"><a xlink:href="full__system__integration__test_8cpp.html" target="_top" xlink:title="Full system integration test for hf&#45;core.">
<polygon fill="white" stroke="#666666" points="1437,-85 1305,-85 1305,-55 1437,-55 1437,-85"/>
<text text-anchor="start" x="1313" y="-73" font-family="Helvetica,sans-Serif" font-size="10.00">full_system_integration</text>
<text text-anchor="middle" x="1371" y="-62" font-family="Helvetica,sans-Serif" font-size="10.00">_test.cpp</text>
</a>
</g>
</g>
<!-- Node1&#45;&gt;Node15 -->
<g id="edge17_Node000001_Node000015" class="edge">
<title>Node1&#45;&gt;Node15</title>
<g id="a_edge17_Node000001_Node000015"><a xlink:title=" ">
<path fill="none" stroke="#63b8ff" d="M680.32,-128.43C782.32,-125.3 1063.66,-114.47 1296,-85 1298.89,-84.63 1301.84,-84.23 1304.81,-83.79"/>
<polygon fill="#63b8ff" stroke="#63b8ff" points="680.06,-124.93 670.17,-128.73 680.27,-131.93 680.06,-124.93"/>
</a>
</g>
</g>
<!-- Node16 -->
<g id="Node000016" class="node">
<title>Node16</title>
<g id="a_Node000016"><a xlink:href="logger__comprehensive__test_8cpp.html" target="_top" xlink:title="Comprehensive test suite for Logger singleton.">
<polygon fill="white" stroke="#666666" points="1583,-85 1455,-85 1455,-55 1583,-55 1583,-85"/>
<text text-anchor="start" x="1463" y="-73" font-family="Helvetica,sans-Serif" font-size="10.00">logger_comprehensive</text>
<text text-anchor="middle" x="1519" y="-62" font-family="Helvetica,sans-Serif" font-size="10.00">_test.cpp</text>
</a>
</g>
</g>
<!-- Node1&#45;&gt;Node16 -->
<g id="edge18_Node000001_Node000016" class="edge">
<title>Node1&#45;&gt;Node16</title>
<g id="a_edge18_Node000001_Node000016"><a xlink:title=" ">
<path fill="none" stroke="#63b8ff" d="M680.25,-129.19C797.19,-127.88 1153.32,-120.99 1446,-85 1448.95,-84.64 1451.95,-84.23 1454.98,-83.78"/>
<polygon fill="#63b8ff" stroke="#63b8ff" points="679.97,-125.7 670,-129.3 680.04,-132.7 679.97,-125.7"/>
</a>
</g>
</g>
<!-- Node5&#45;&gt;Node6 -->
<g id="edge5_Node000005_Node000006" class="edge">
<title>Node5&#45;&gt;Node6</title>
<g id="a_edge5_Node000005_Node000006"><a xlink:title=" ">
<path fill="none" stroke="#63b8ff" d="M485,-57.97C440.92,-46.66 373.31,-29.31 333.19,-19.02"/>
<polygon fill="#63b8ff" stroke="#63b8ff" points="484.29,-61.4 494.85,-60.49 486.03,-54.62 484.29,-61.4"/>
</a>
</g>
</g>
<!-- Node5&#45;&gt;Node7 -->
<g id="edge6_Node000005_Node000007" class="edge">
<title>Node5&#45;&gt;Node7</title>
<g id="a_edge6_Node000005_Node000007"><a xlink:title=" ">
<path fill="none" stroke="#63b8ff" d="M507.46,-54.35C491.93,-43.27 471.13,-28.43 458.15,-19.17"/>
<polygon fill="#63b8ff" stroke="#63b8ff" points="505.73,-57.41 515.9,-60.37 509.79,-51.71 505.73,-57.41"/>
</a>
</g>
</g>
<!-- Node5&#45;&gt;Node8 -->
<g id="edge7_Node000005_Node000008" class="edge">
<title>Node5&#45;&gt;Node8</title>
<g id="a_edge7_Node000005_Node000008"><a xlink:title=" ">
<path fill="none" stroke="#63b8ff" d="M566.56,-57.61C604.85,-46.29 662.7,-29.2 697.17,-19.02"/>
<polygon fill="#63b8ff" stroke="#63b8ff" points="565.39,-54.3 556.79,-60.49 567.37,-61.02 565.39,-54.3"/>
</a>
</g>
</g>
<!-- Node9 -->
<g id="Node000009" class="node">
<title>Node9</title>
<g id="a_Node000009"><a xlink:href="Tmc9660Handler_8cpp.html" target="_top" xlink:title=" ">
<polygon fill="white" stroke="#666666" points="648.5,-19 529.5,-19 529.5,0 648.5,0 648.5,-19"/>
<text text-anchor="middle" x="589" y="-7" font-family="Helvetica,sans-Serif" font-size="10.00">Tmc9660Handler.cpp</text>
</a>
</g>
</g>
<!-- Node5&#45;&gt;Node9 -->
<g id="edge8_Node000005_Node000009" class="edge">
<title>Node5&#45;&gt;Node9</title>
<g id="a_edge8_Node000005_Node000009"><a xlink:title=" ">
<path fill="none" stroke="#63b8ff" d="M544.26,-53.41C555.7,-42.44 570.58,-28.17 579.96,-19.17"/>
<polygon fill="#63b8ff" stroke="#63b8ff" points="541.8,-50.92 537,-60.37 546.64,-55.97 541.8,-50.92"/>
</a>
</g>
</g>
</g>
</svg>
