<?xml version="1.0" encoding="UTF-8" standalone="no"?>
<!DOCTYPE svg PUBLIC "-//W3C//DTD SVG 1.1//EN"
 "http://www.w3.org/Graphics/SVG/1.1/DTD/svg11.dtd">
<!-- Generated by graphviz version 2.43.0 (0)
 -->
<!-- Title: Max22200Handler.cpp Pages: 1 -->
<svg width="1186pt" height="225pt"
 viewBox="0.00 0.00 1185.50 225.00" xmlns="http://www.w3.org/2000/svg" xmlns:xlink="http://www.w3.org/1999/xlink">
<g id="graph0" class="graph" transform="scale(1 1) rotate(0) translate(4 221)">
<title>Max22200Handler.cpp</title>
<!-- Node1 -->
<g id="Node000001" class="node">
<title>Node1</title>
<g id="a_Node000001"><a xlink:title="Implementation of MAX22200 handler with SPI communication adapter.">
<polygon fill="#999999" stroke="#666666" points="651,-217 526,-217 526,-198 651,-198 651,-217"/>
<text text-anchor="middle" x="588.5" y="-205" font-family="Helvetica,sans-Serif" font-size="10.00">Max22200Handler.cpp</text>
</a>
</g>
</g>
<!-- Node2 -->
<g id="Node000002" class="node">
<title>Node2</title>
<g id="a_Node000002"><a xlink:href="Max22200Handler_8h.html" target="_top" xlink:title="Unified handler for MAX22200 octal solenoid and motor driver.">
<polygon fill="white" stroke="#666666" points="645.5,-162 531.5,-162 531.5,-143 645.5,-143 645.5,-162"/>
<text text-anchor="middle" x="588.5" y="-150" font-family="Helvetica,sans-Serif" font-size="10.00">Max22200Handler.h</text>
</a>
</g>
</g>
<!-- Node1&#45;&gt;Node2 -->
<g id="edge1_Node000001_Node000002" class="edge">
<title>Node1&#45;&gt;Node2</title>
<g id="a_edge1_Node000001_Node000002"><a xlink:title=" ">
<path fill="none" stroke="#63b8ff" d="M588.5,-197.75C588.5,-190.8 588.5,-180.85 588.5,-172.13"/>
<polygon fill="#63b8ff" stroke="#63b8ff" points="592,-172.09 588.5,-162.09 585,-172.09 592,-172.09"/>
</a>
</g>
</g>
<!-- Node12 -->
<g id="Node000012" class="node">
<title>Node12</title>
<g id="a_Node000012"><a xlink:href="Logger_8h.html" target="_top" xlink:title="Advanced logging system with formatting capabilities.">
<polygon fill="white" stroke="#666666" points="151.5,-90.5 93.5,-90.5 93.5,-71.5 151.5,-71.5 151.5,-90.5"/>
<text text-anchor="middle" x="122.5" y="-78.5" font-family="Helvetica,sans-Serif" font-size="10.00">Logger.h</text>
</a>
</g>
</g>
<!-- Node1&#45;&gt;Node12 -->
<g id="edge11_Node000001_Node000012" class="edge">
<title>Node1&#45;&gt;Node12</title>
<g id="a_edge11_Node000001_Node000012"><a xlink:title=" ">
<path fill="none" stroke="#63b8ff" d="M525.75,-198.98C440.36,-187.18 284.07,-160 160.5,-107 154.02,-104.22 147.44,-100.34 141.62,-96.47"/>
<polygon fill="#63b8ff" stroke="#63b8ff" points="143.4,-93.44 133.21,-90.54 139.37,-99.16 143.4,-93.44"/>
</a>
</g>
</g>
<!-- Node16 -->
<g id="Node000016" class="node">
<title>Node16</title>
<g id="a_Node000016"><a xlink:href="HandlerCommon_8h.html" target="_top" xlink:title="Shared utility functions for handler CRTP communication adapters.">
<polygon fill="white" stroke="#666666" points="176.5,-162 68.5,-162 68.5,-143 176.5,-143 176.5,-162"/>
<text text-anchor="middle" x="122.5" y="-150" font-family="Helvetica,sans-Serif" font-size="10.00">HandlerCommon.h</text>
</a>
</g>
</g>
<!-- Node1&#45;&gt;Node16 -->
<g id="edge16_Node000001_Node000016" class="edge">
<title>Node1&#45;&gt;Node16</title>
<g id="a_edge16_Node000001_Node000016"><a xlink:title=" ">
<path fill="none" stroke="#63b8ff" d="M525.65,-199.35C437.02,-189.27 276.17,-170.98 186.78,-160.81"/>
<polygon fill="#63b8ff" stroke="#63b8ff" points="187.1,-157.32 176.77,-159.67 186.31,-164.28 187.1,-157.32"/>
</a>
</g>
</g>
<!-- Node18 -->
<g id="Node000018" class="node">
<title>Node18</title>
<g id="a_Node000018"><a xlink:title=" ">
<polygon fill="#e0e0e0" stroke="#999999" points="777,-162 664,-162 664,-143 777,-143 777,-162"/>
<text text-anchor="middle" x="720.5" y="-150" font-family="Helvetica,sans-Serif" font-size="10.00">freertos/FreeRTOS.h</text>
</a>
</g>
</g>
<!-- Node1&#45;&gt;Node18 -->
<g id="edge21_Node000001_Node000018" class="edge">
<title>Node1&#45;&gt;Node18</title>
<g id="a_edge21_Node000001_Node000018"><a xlink:title=" ">
<path fill="none" stroke="#63b8ff" d="M609.71,-197.98C631.23,-189.34 664.78,-175.87 689.33,-166.02"/>
<polygon fill="#63b8ff" stroke="#63b8ff" points="690.93,-169.14 698.91,-162.17 688.32,-162.65 690.93,-169.14"/>
</a>
</g>
</g>
<!-- Node19 -->
<g id="Node000019" class="node">
<title>Node19</title>
<g id="a_Node000019"><a xlink:title=" ">
<polygon fill="#e0e0e0" stroke="#999999" points="883.5,-162 795.5,-162 795.5,-143 883.5,-143 883.5,-162"/>
<text text-anchor="middle" x="839.5" y="-150" font-family="Helvetica,sans-Serif" font-size="10.00">freertos/task.h</text>
</a>
</g>
</g>
<!-- Node1&#45;&gt;Node19 -->
<g id="edge22_Node000001_Node000019" class="edge">
<title>Node1&#45;&gt;Node19</title>
<g id="a_edge22_Node000001_Node000019"><a xlink:title=" ">
<path fill="none" stroke="#63b8ff" d="M628.83,-197.98C672.34,-188.8 741.7,-174.15 788.85,-164.19"/>
<polygon fill="#63b8ff" stroke="#63b8ff" points="789.8,-167.57 798.86,-162.08 788.35,-160.72 789.8,-167.57"/>
</a>
</g>
</g>
<!-- Node3 -->
<g id="Node000003" class="node">
<title>Node3</title>
<g id="a_Node000003"><a xlink:title=" ">
<polygon fill="#e0e0e0" stroke="#999999" points="219.5,-90.5 169.5,-90.5 169.5,-71.5 219.5,-71.5 219.5,-90.5"/>
<text text-anchor="middle" x="194.5" y="-78.5" font-family="Helvetica,sans-Serif" font-size="10.00">cstdint</text>
</a>
</g>
</g>
<!-- Node2&#45;&gt;Node3 -->
<g id="edge2_Node000002_Node000003" class="edge">
<title>Node2&#45;&gt;Node3</title>
<g id="a_edge2_Node000002_Node000003"><a xlink:title=" ">
<path fill="none" stroke="#63b8ff" d="M531.15,-147.95C443.88,-141.96 282.19,-128.35 228.5,-107 222.48,-104.61 216.56,-100.88 211.4,-97.04"/>
<polygon fill="#63b8ff" stroke="#63b8ff" points="213.5,-94.23 203.52,-90.66 209.09,-99.67 213.5,-94.23"/>
</a>
</g>
</g>
<!-- Node4 -->
<g id="Node000004" class="node">
<title>Node4</title>
<g id="a_Node000004"><a xlink:title=" ">
<polygon fill="#e0e0e0" stroke="#999999" points="534.5,-19 476.5,-19 476.5,0 534.5,0 534.5,-19"/>
<text text-anchor="middle" x="505.5" y="-7" font-family="Helvetica,sans-Serif" font-size="10.00">memory</text>
</a>
</g>
</g>
<!-- Node2&#45;&gt;Node4 -->
<g id="edge3_Node000002_Node000004" class="edge">
<title>Node2&#45;&gt;Node4</title>
<g id="a_edge3_Node000002_Node000004"><a xlink:title=" ">
<path fill="none" stroke="#63b8ff" d="M642.2,-142.98C681.59,-135.51 730.25,-123.29 742.5,-107 756.39,-88.53 757.26,-72.79 742.5,-55 717.85,-25.29 605.71,-15.29 544.94,-12.02"/>
<polygon fill="#63b8ff" stroke="#63b8ff" points="544.74,-8.51 534.58,-11.5 544.39,-15.5 544.74,-8.51"/>
</a>
</g>
</g>
<!-- Node5 -->
<g id="Node000005" class="node">
<title>Node5</title>
<g id="a_Node000005"><a xlink:title=" ">
<polygon fill="#e0e0e0" stroke="#999999" points="859,-90.5 790,-90.5 790,-71.5 859,-71.5 859,-90.5"/>
<text text-anchor="middle" x="824.5" y="-78.5" font-family="Helvetica,sans-Serif" font-size="10.00">type_traits</text>
</a>
</g>
</g>
<!-- Node2&#45;&gt;Node5 -->
<g id="edge4_Node000002_Node000005" class="edge">
<title>Node2&#45;&gt;Node5</title>
<g id="a_edge4_Node000002_Node000005"><a xlink:title=" ">
<path fill="none" stroke="#63b8ff" d="M638.66,-142.93C676.87,-135.61 730.4,-123.6 775.5,-107 784.04,-103.86 793.01,-99.59 800.9,-95.47"/>
<polygon fill="#63b8ff" stroke="#63b8ff" points="802.77,-98.44 809.9,-90.61 799.44,-92.29 802.77,-98.44"/>
</a>
</g>
</g>
<!-- Node6 -->
<g id="Node000006" class="node">
<title>Node6</title>
<g id="a_Node000006"><a xlink:title=" ">
<polygon fill="#e0e0e0" stroke="#999999" points="1019.5,-101.5 877.5,-101.5 877.5,-60.5 1019.5,-60.5 1019.5,-101.5"/>
<text text-anchor="start" x="885.5" y="-89.5" font-family="Helvetica,sans-Serif" font-size="10.00">core/hf&#45;core&#45;drivers</text>
<text text-anchor="start" x="885.5" y="-78.5" font-family="Helvetica,sans-Serif" font-size="10.00">/external/hf&#45;max22200</text>
<text text-anchor="middle" x="948.5" y="-67.5" font-family="Helvetica,sans-Serif" font-size="10.00">&#45;driver/inc/max22200.hpp</text>
</a>
</g>
</g>
<!-- Node2&#45;&gt;Node6 -->
<g id="edge5_Node000002_Node000006" class="edge">
<title>Node2&#45;&gt;Node6</title>
<g id="a_edge5_Node000002_Node000006"><a xlink:title=" ">
<path fill="none" stroke="#63b8ff" d="M645.54,-143.43C714.73,-133.48 827.23,-116.67 868.5,-107 872.11,-106.15 875.8,-105.23 879.51,-104.25"/>
<polygon fill="#63b8ff" stroke="#63b8ff" points="880.64,-107.57 889.35,-101.54 878.78,-100.82 880.64,-107.57"/>
</a>
</g>
</g>
<!-- Node7 -->
<g id="Node000007" class="node">
<title>Node7</title>
<g id="a_Node000007"><a xlink:title=" ">
<polygon fill="#e0e0e0" stroke="#999999" points="1177.5,-107 1037.5,-107 1037.5,-55 1177.5,-55 1177.5,-107"/>
<text text-anchor="start" x="1045.5" y="-95" font-family="Helvetica,sans-Serif" font-size="10.00">core/hf&#45;core&#45;drivers</text>
<text text-anchor="start" x="1045.5" y="-84" font-family="Helvetica,sans-Serif" font-size="10.00">/external/hf&#45;max22200</text>
<text text-anchor="start" x="1045.5" y="-73" font-family="Helvetica,sans-Serif" font-size="10.00">&#45;driver/inc/max22200_spi</text>
<text text-anchor="middle" x="1107.5" y="-62" font-family="Helvetica,sans-Serif" font-size="10.00">_interface.hpp</text>
</a>
</g>
</g>
<!-- Node2&#45;&gt;Node7 -->
<g id="edge6_Node000002_Node000007" class="edge">
<title>Node2&#45;&gt;Node7</title>
<g id="a_edge6_Node000002_Node000007"><a xlink:title=" ">
<path fill="none" stroke="#63b8ff" d="M645.51,-144.15C648.89,-143.75 652.24,-143.36 655.5,-143 817.79,-124.88 863.54,-139.7 1027.55,-107.01"/>
<polygon fill="#63b8ff" stroke="#63b8ff" points="1028.38,-110.41 1037.49,-105 1026.99,-103.55 1028.38,-110.41"/>
</a>
</g>
</g>
<!-- Node8 -->
<g id="Node000008" class="node">
<title>Node8</title>
<g id="a_Node000008"><a xlink:title=" ">
<polygon fill="#e0e0e0" stroke="#999999" points="411.5,-101.5 237.5,-101.5 237.5,-60.5 411.5,-60.5 411.5,-101.5"/>
<text text-anchor="start" x="245.5" y="-89.5" font-family="Helvetica,sans-Serif" font-size="10.00">core/hf&#45;core&#45;drivers</text>
<text text-anchor="start" x="245.5" y="-78.5" font-family="Helvetica,sans-Serif" font-size="10.00">/external/hf&#45;max22200</text>
<text text-anchor="middle" x="324.5" y="-67.5" font-family="Helvetica,sans-Serif" font-size="10.00">&#45;driver/inc/max22200_types.hpp</text>
</a>
</g>
</g>
<!-- Node2&#45;&gt;Node8 -->
<g id="edge7_Node000002_Node000008" class="edge">
<title>Node2&#45;&gt;Node8</title>
<g id="a_edge7_Node000002_Node000008"><a xlink:title=" ">
<path fill="none" stroke="#63b8ff" d="M556.13,-142.98C519.6,-133.36 458.73,-117.34 408.56,-104.13"/>
<polygon fill="#63b8ff" stroke="#63b8ff" points="409.24,-100.69 398.68,-101.53 407.45,-107.46 409.24,-100.69"/>
</a>
</g>
</g>
<!-- Node9 -->
<g id="Node000009" class="node">
<title>Node9</title>
<g id="a_Node000009"><a xlink:title=" ">
<polygon fill="#e0e0e0" stroke="#999999" points="521,-90.5 430,-90.5 430,-71.5 521,-71.5 521,-90.5"/>
<text text-anchor="middle" x="475.5" y="-78.5" font-family="Helvetica,sans-Serif" font-size="10.00">base/BaseSpi.h</text>
</a>
</g>
</g>
<!-- Node2&#45;&gt;Node9 -->
<g id="edge8_Node000002_Node000009" class="edge">
<title>Node2&#45;&gt;Node9</title>
<g id="a_edge8_Node000002_Node000009"><a xlink:title=" ">
<path fill="none" stroke="#63b8ff" d="M574.64,-142.98C555.58,-131.25 521.04,-110.01 498.18,-95.95"/>
<polygon fill="#63b8ff" stroke="#63b8ff" points="499.82,-92.85 489.47,-90.59 496.15,-98.81 499.82,-92.85"/>
</a>
</g>
</g>
<!-- Node10 -->
<g id="Node000010" class="node">
<title>Node10</title>
<g id="a_Node000010"><a xlink:title=" ">
<polygon fill="#e0e0e0" stroke="#999999" points="637.5,-90.5 539.5,-90.5 539.5,-71.5 637.5,-71.5 637.5,-90.5"/>
<text text-anchor="middle" x="588.5" y="-78.5" font-family="Helvetica,sans-Serif" font-size="10.00">base/BaseGpio.h</text>
</a>
</g>
</g>
<!-- Node2&#45;&gt;Node10 -->
<g id="edge9_Node000002_Node000010" class="edge">
<title>Node2&#45;&gt;Node10</title>
<g id="a_edge9_Node000002_Node000010"><a xlink:title=" ">
<path fill="none" stroke="#63b8ff" d="M588.5,-142.98C588.5,-132.56 588.5,-114.61 588.5,-100.88"/>
<polygon fill="#63b8ff" stroke="#63b8ff" points="592,-100.59 588.5,-90.59 585,-100.59 592,-100.59"/>
</a>
</g>
</g>
<!-- Node11 -->
<g id="Node000011" class="node">
<title>Node11</title>
<g id="a_Node000011"><a xlink:title=" ">
<polygon fill="#e0e0e0" stroke="#999999" points="733.5,-90.5 655.5,-90.5 655.5,-71.5 733.5,-71.5 733.5,-90.5"/>
<text text-anchor="middle" x="694.5" y="-78.5" font-family="Helvetica,sans-Serif" font-size="10.00">RtosMutex.h</text>
</a>
</g>
</g>
<!-- Node2&#45;&gt;Node11 -->
<g id="edge10_Node000002_Node000011" class="edge">
<title>Node2&#45;&gt;Node11</title>
<g id="a_edge10_Node000002_Node000011"><a xlink:title=" ">
<path fill="none" stroke="#63b8ff" d="M601.5,-142.98C619.3,-131.31 651.49,-110.2 672.94,-96.14"/>
<polygon fill="#63b8ff" stroke="#63b8ff" points="674.95,-99 681.4,-90.59 671.11,-93.15 674.95,-99"/>
</a>
</g>
</g>
<!-- Node12&#45;&gt;Node4 -->
<g id="edge14_Node000012_Node000004" class="edge">
<title>Node12&#45;&gt;Node4</title>
<g id="a_edge14_Node000012_Node000004"><a xlink:title=" ">
<path fill="none" stroke="#63b8ff" d="M132.77,-71.38C140.04,-65.76 150.28,-58.79 160.5,-55 265.9,-15.92 400.42,-10.14 465.99,-9.9"/>
<polygon fill="#63b8ff" stroke="#63b8ff" points="466.28,-13.4 476.28,-9.91 466.29,-6.4 466.28,-13.4"/>
</a>
</g>
</g>
<!-- Node13 -->
<g id="Node000013" class="node">
<title>Node13</title>
<g id="a_Node000013"><a xlink:title=" ">
<polygon fill="#e0e0e0" stroke="#999999" points="53,-19 0,-19 0,0 53,0 53,-19"/>
<text text-anchor="middle" x="26.5" y="-7" font-family="Helvetica,sans-Serif" font-size="10.00">cstdarg</text>
</a>
</g>
</g>
<!-- Node12&#45;&gt;Node13 -->
<g id="edge12_Node000012_Node000013" class="edge">
<title>Node12&#45;&gt;Node13</title>
<g id="a_edge12_Node000012_Node000013"><a xlink:title=" ">
<path fill="none" stroke="#63b8ff" d="M110.73,-71.48C94.75,-59.91 65.97,-39.07 46.55,-25.02"/>
<polygon fill="#63b8ff" stroke="#63b8ff" points="48.52,-22.12 38.37,-19.09 44.42,-27.79 48.52,-22.12"/>
</a>
</g>
</g>
<!-- Node14 -->
<g id="Node000014" class="node">
<title>Node14</title>
<g id="a_Node000014"><a xlink:title=" ">
<polygon fill="#e0e0e0" stroke="#999999" points="202.5,-19 152.5,-19 152.5,0 202.5,0 202.5,-19"/>
<text text-anchor="middle" x="177.5" y="-7" font-family="Helvetica,sans-Serif" font-size="10.00">cstring</text>
</a>
</g>
</g>
<!-- Node12&#45;&gt;Node14 -->
<g id="edge13_Node000012_Node000014" class="edge">
<title>Node12&#45;&gt;Node14</title>
<g id="a_edge13_Node000012_Node000014"><a xlink:title=" ">
<path fill="none" stroke="#63b8ff" d="M129.24,-71.48C137.99,-60.43 153.42,-40.93 164.48,-26.96"/>
<polygon fill="#63b8ff" stroke="#63b8ff" points="167.24,-29.11 170.7,-19.09 161.75,-24.76 167.24,-29.11"/>
</a>
</g>
</g>
<!-- Node15 -->
<g id="Node000015" class="node">
<title>Node15</title>
<g id="a_Node000015"><a xlink:title=" ">
<polygon fill="#e0e0e0" stroke="#999999" points="134.5,-19 84.5,-19 84.5,0 134.5,0 134.5,-19"/>
<text text-anchor="middle" x="109.5" y="-7" font-family="Helvetica,sans-Serif" font-size="10.00">atomic</text>
</a>
</g>
</g>
<!-- Node12&#45;&gt;Node15 -->
<g id="edge15_Node000012_Node000015" class="edge">
<title>Node12&#45;&gt;Node15</title>
<g id="a_edge15_Node000012_Node000015"><a xlink:title=" ">
<path fill="none" stroke="#63b8ff" d="M120.91,-71.48C118.94,-60.95 115.53,-42.75 112.95,-28.97"/>
<polygon fill="#63b8ff" stroke="#63b8ff" points="116.39,-28.28 111.11,-19.09 109.51,-29.56 116.39,-28.28"/>
</a>
</g>
</g>
<!-- Node16&#45;&gt;Node3 -->
<g id="edge18_Node000016_Node000003" class="edge">
<title>Node16&#45;&gt;Node3</title>
<g id="a_edge18_Node000016_Node000003"><a xlink:title=" ">
<path fill="none" stroke="#63b8ff" d="M131.33,-142.98C142.99,-131.72 163.74,-111.69 178.27,-97.67"/>
<polygon fill="#63b8ff" stroke="#63b8ff" points="180.84,-100.06 185.6,-90.59 175.97,-95.02 180.84,-100.06"/>
</a>
</g>
</g>
<!-- Node16&#45;&gt;Node12 -->
<g id="edge20_Node000016_Node000012" class="edge">
<title>Node16&#45;&gt;Node12</title>
<g id="a_edge20_Node000016_Node000012"><a xlink:title=" ">
<path fill="none" stroke="#63b8ff" d="M122.5,-142.98C122.5,-132.56 122.5,-114.61 122.5,-100.88"/>
<polygon fill="#63b8ff" stroke="#63b8ff" points="126,-100.59 122.5,-90.59 119,-100.59 126,-100.59"/>
</a>
</g>
</g>
<!-- Node16&#45;&gt;Node13 -->
<g id="edge17_Node000016_Node000013" class="edge">
<title>Node16&#45;&gt;Node13</title>
<g id="a_edge17_Node000016_Node000013"><a xlink:title=" ">
<path fill="none" stroke="#63b8ff" d="M75.36,-142.95C54.87,-136.64 32.78,-125.75 20.5,-107 5.07,-83.44 12.44,-49.32 19.35,-28.6"/>
<polygon fill="#63b8ff" stroke="#63b8ff" points="22.68,-29.7 22.8,-19.11 16.1,-27.31 22.68,-29.7"/>
</a>
</g>
</g>
<!-- Node17 -->
<g id="Node000017" class="node">
<title>Node17</title>
<g id="a_Node000017"><a xlink:title=" ">
<polygon fill="#e0e0e0" stroke="#999999" points="75.5,-90.5 29.5,-90.5 29.5,-71.5 75.5,-71.5 75.5,-90.5"/>
<text text-anchor="middle" x="52.5" y="-78.5" font-family="Helvetica,sans-Serif" font-size="10.00">cstdio</text>
</a>
</g>
</g>
<!-- Node16&#45;&gt;Node17 -->
<g id="edge19_Node000016_Node000017" class="edge">
<title>Node16&#45;&gt;Node17</title>
<g id="a_edge19_Node000016_Node000017"><a xlink:title=" ">
<path fill="none" stroke="#63b8ff" d="M113.92,-142.98C102.58,-131.72 82.41,-111.69 68.28,-97.67"/>
<polygon fill="#63b8ff" stroke="#63b8ff" points="70.72,-95.15 61.15,-90.59 65.78,-100.12 70.72,-95.15"/>
</a>
</g>
</g>
</g>
</svg>
