<?xml version="1.0" encoding="UTF-8" standalone="no"?>
<!DOCTYPE svg PUBLIC "-//W3C//DTD SVG 1.1//EN"
 "http://www.w3.org/Graphics/SVG/1.1/DTD/svg11.dtd">
<!-- Generated by graphviz version 2.43.0 (0)
 -->
<!-- Title: anonymous_namespace{Tmc9660Handler::cpp}::ReadExactBytesUart Pages: 1 -->
<svg width="313pt" height="86pt"
 viewBox="0.00 0.00 313.00 86.00" xmlns="http://www.w3.org/2000/svg" xmlns:xlink="http://www.w3.org/1999/xlink">
<g id="graph0" class="graph" transform="scale(1 1) rotate(0) translate(4 82)">
<title>anonymous_namespace{Tmc9660Handler::cpp}::ReadExactBytesUart</title>
<!-- Node1 -->
<g id="Node000001" class="node">
<title>Node1</title>
<g id="a_Node000001"><a xlink:title=" ">
<polygon fill="#999999" stroke="#666666" points="305,-59.5 170,-59.5 170,-18.5 305,-18.5 305,-59.5"/>
<text text-anchor="start" x="178" y="-47.5" font-family="Helvetica,sans-Serif" font-size="10.00">anonymous_namespace</text>
<text text-anchor="start" x="178" y="-36.5" font-family="Helvetica,sans-Serif" font-size="10.00">{Tmc9660Handler::cpp}</text>
<text text-anchor="middle" x="237.5" y="-25.5" font-family="Helvetica,sans-Serif" font-size="10.00">::ReadExactBytesUart</text>
</a>
</g>
</g>
<!-- Node2 -->
<g id="Node000002" class="node">
<title>Node2</title>
<g id="a_Node000002"><a xlink:href="classHalUartTmc9660Comm.html#a0df8ee2b226b44eb2e21728e4b7c44d7" target="_top" xlink:title="Receive a 9&#45;byte TMCL reply datagram over UART.">
<polygon fill="white" stroke="#666666" points="132.5,-78 1.5,-78 1.5,-48 132.5,-48 132.5,-78"/>
<text text-anchor="start" x="9.5" y="-66" font-family="Helvetica,sans-Serif" font-size="10.00">HalUartTmc9660Comm</text>
<text text-anchor="middle" x="67" y="-55" font-family="Helvetica,sans-Serif" font-size="10.00">::uartReceiveTMCL</text>
</a>
</g>
</g>
<!-- Node1&#45;&gt;Node2 -->
<g id="edge1_Node000001_Node000002" class="edge">
<title>Node1&#45;&gt;Node2</title>
<g id="a_edge1_Node000001_Node000002"><a xlink:title=" ">
<path fill="none" stroke="#63b8ff" d="M159.77,-49.93C150.74,-51.22 141.58,-52.52 132.74,-53.78"/>
<polygon fill="#63b8ff" stroke="#63b8ff" points="160.5,-53.36 169.9,-48.49 159.51,-46.43 160.5,-53.36"/>
</a>
</g>
</g>
<!-- Node3 -->
<g id="Node000003" class="node">
<title>Node3</title>
<g id="a_Node000003"><a xlink:href="classHalUartTmc9660Comm.html#a044f4af1242b3fb2a9412523e575447a" target="_top" xlink:title="Perform an 8&#45;byte UART bootloader transfer (send + receive).">
<polygon fill="white" stroke="#666666" points="134,-30 0,-30 0,0 134,0 134,-30"/>
<text text-anchor="start" x="8" y="-18" font-family="Helvetica,sans-Serif" font-size="10.00">HalUartTmc9660Comm</text>
<text text-anchor="middle" x="67" y="-7" font-family="Helvetica,sans-Serif" font-size="10.00">::uartTransferBootloader</text>
</a>
</g>
</g>
<!-- Node1&#45;&gt;Node3 -->
<g id="edge2_Node000001_Node000003" class="edge">
<title>Node1&#45;&gt;Node3</title>
<g id="a_edge2_Node000001_Node000003"><a xlink:title=" ">
<path fill="none" stroke="#63b8ff" d="M159.88,-28.09C151.27,-26.86 142.57,-25.62 134.11,-24.42"/>
<polygon fill="#63b8ff" stroke="#63b8ff" points="159.51,-31.57 169.9,-29.51 160.5,-24.64 159.51,-31.57"/>
</a>
</g>
</g>
</g>
</svg>
