<?xml version="1.0" encoding="UTF-8" standalone="no"?>
<!DOCTYPE svg PUBLIC "-//W3C//DTD SVG 1.1//EN"
 "http://www.w3.org/Graphics/SVG/1.1/DTD/svg11.dtd">
<!-- Generated by graphviz version 2.43.0 (0)
 -->
<!-- Title: anonymous_namespace{Tmc9660Handler::cpp}::ReadExactBytesUart Pages: 1 -->
<svg width="316pt" height="76pt"
 viewBox="0.00 0.00 316.00 75.50" xmlns="http://www.w3.org/2000/svg" xmlns:xlink="http://www.w3.org/1999/xlink">
<g id="graph0" class="graph" transform="scale(1 1) rotate(0) translate(4 71.5)">
<title>anonymous_namespace{Tmc9660Handler::cpp}::ReadExactBytesUart</title>
<!-- Node1 -->
<g id="Node000001" class="node">
<title>Node1</title>
<g id="a_Node000001"><a xlink:title=" ">
<polygon fill="#999999" stroke="#666666" points="135,-56.5 0,-56.5 0,-15.5 135,-15.5 135,-56.5"/>
<text text-anchor="start" x="8" y="-44.5" font-family="Helvetica,sans-Serif" font-size="10.00">anonymous_namespace</text>
<text text-anchor="start" x="8" y="-33.5" font-family="Helvetica,sans-Serif" font-size="10.00">{Tmc9660Handler::cpp}</text>
<text text-anchor="middle" x="67.5" y="-22.5" font-family="Helvetica,sans-Serif" font-size="10.00">::ReadExactBytesUart</text>
</a>
</g>
</g>
<!-- Node2 -->
<g id="Node000002" class="node">
<title>Node2</title>
<g id="a_Node000002"><a xlink:href="namespacehandler__utils.html#afc7fd91265677d0865cbc2a413754ed8" target="_top" xlink:title="RTOS&#45;aware millisecond delay.">
<polygon fill="white" stroke="#666666" points="303.5,-67.5 175.5,-67.5 175.5,-48.5 303.5,-48.5 303.5,-67.5"/>
<text text-anchor="middle" x="239.5" y="-55.5" font-family="Helvetica,sans-Serif" font-size="10.00">handler_utils::DelayMs</text>
</a>
</g>
</g>
<!-- Node1&#45;&gt;Node2 -->
<g id="edge1_Node000001_Node000002" class="edge">
<title>Node1&#45;&gt;Node2</title>
<g id="a_edge1_Node000001_Node000002"><a xlink:title=" ">
<path fill="none" stroke="#63b8ff" d="M135.2,-44.63C145.11,-45.91 155.36,-47.24 165.39,-48.54"/>
<polygon fill="#63b8ff" stroke="#63b8ff" points="164.96,-52.01 175.32,-49.82 165.86,-45.07 164.96,-52.01"/>
</a>
</g>
</g>
<!-- Node3 -->
<g id="Node000003" class="node">
<title>Node3</title>
<g id="a_Node000003"><a xlink:href="namespacehandler__utils.html#a75d4e97d12033f5c07ab4deab842ebe9" target="_top" xlink:title="Monotonic time in microseconds for bounded I/O waits.">
<polygon fill="white" stroke="#666666" points="308,-30 171,-30 171,0 308,0 308,-30"/>
<text text-anchor="start" x="179" y="-18" font-family="Helvetica,sans-Serif" font-size="10.00">handler_utils::Monotonic</text>
<text text-anchor="middle" x="239.5" y="-7" font-family="Helvetica,sans-Serif" font-size="10.00">TimeUs</text>
</a>
</g>
</g>
<!-- Node1&#45;&gt;Node3 -->
<g id="edge2_Node000001_Node000003" class="edge">
<title>Node1&#45;&gt;Node3</title>
<g id="a_edge2_Node000001_Node000003"><a xlink:title=" ">
<path fill="none" stroke="#63b8ff" d="M135.2,-27.76C143.62,-26.72 152.3,-25.65 160.88,-24.59"/>
<polygon fill="#63b8ff" stroke="#63b8ff" points="161.38,-28.05 170.87,-23.35 160.52,-21.11 161.38,-28.05"/>
</a>
</g>
</g>
</g>
</svg>
