<?xml version="1.0" encoding="UTF-8" standalone="no"?>
<!DOCTYPE svg PUBLIC "-//W3C//DTD SVG 1.1//EN"
 "http://www.w3.org/Graphics/SVG/1.1/DTD/svg11.dtd">
<!-- Generated by graphviz version 2.43.0 (0)
 -->
<!-- Title: anonymous_namespace{AlicatBasis2Handler::cpp}::BaudFromBps Pages: 1 -->
<svg width="295pt" height="67pt"
 viewBox="0.00 0.00 295.00 67.00" xmlns="http://www.w3.org/2000/svg" xmlns:xlink="http://www.w3.org/1999/xlink">
<g id="graph0" class="graph" transform="scale(1 1) rotate(0) translate(4 63)">
<title>anonymous_namespace{AlicatBasis2Handler::cpp}::BaudFromBps</title>
<!-- Node1 -->
<g id="Node000001" class="node">
<title>Node1</title>
<g id="a_Node000001"><a xlink:title=" ">
<polygon fill="#999999" stroke="#666666" points="287,-41 152,-41 152,0 287,0 287,-41"/>
<text text-anchor="start" x="160" y="-29" font-family="Helvetica,sans-Serif" font-size="10.00">anonymous_namespace</text>
<text text-anchor="start" x="160" y="-18" font-family="Helvetica,sans-Serif" font-size="10.00">{AlicatBasis2Handler</text>
<text text-anchor="middle" x="219.5" y="-7" font-family="Helvetica,sans-Serif" font-size="10.00">::cpp}::BaudFromBps</text>
</a>
</g>
</g>
<!-- Node1&#45;&gt;Node1 -->
<g id="edge1_Node000001_Node000001" class="edge">
<title>Node1&#45;&gt;Node1</title>
<g id="a_edge1_Node000001_Node000001"><a xlink:title=" ">
<path fill="none" stroke="#63b8ff" d="M247.03,-50.96C242.93,-55.74 233.76,-59 219.5,-59 196.69,-59 186.89,-50.65 190.09,-41.1"/>
<polygon fill="#63b8ff" stroke="#63b8ff" points="250.47,-51.58 248.91,-41.1 243.6,-50.26 250.47,-51.58"/>
</a>
</g>
</g>
<!-- Node2 -->
<g id="Node000002" class="node">
<title>Node2</title>
<g id="a_Node000002"><a xlink:href="classAlicatBasis2Handler.html#acd0909cb398b2b50a90f161bd3b805d0" target="_top" xlink:title="Normalise every device on the bus to the same baud rate.">
<polygon fill="white" stroke="#666666" points="116,-35.5 0,-35.5 0,-5.5 116,-5.5 116,-35.5"/>
<text text-anchor="start" x="8" y="-23.5" font-family="Helvetica,sans-Serif" font-size="10.00">AlicatBasis2Handler</text>
<text text-anchor="middle" x="58" y="-12.5" font-family="Helvetica,sans-Serif" font-size="10.00">::NormalizeBusBaud</text>
</a>
</g>
</g>
<!-- Node1&#45;&gt;Node2 -->
<g id="edge2_Node000001_Node000002" class="edge">
<title>Node1&#45;&gt;Node2</title>
<g id="a_edge2_Node000001_Node000002"><a xlink:title=" ">
<path fill="none" stroke="#63b8ff" d="M141.77,-20.5C133.21,-20.5 124.6,-20.5 116.34,-20.5"/>
<polygon fill="#63b8ff" stroke="#63b8ff" points="141.78,-24 151.78,-20.5 141.78,-17 141.78,-24"/>
</a>
</g>
</g>
</g>
</svg>
