<?xml version="1.0" encoding="UTF-8" standalone="no"?>
<!DOCTYPE svg PUBLIC "-//W3C//DTD SVG 1.1//EN"
 "http://www.w3.org/Graphics/SVG/1.1/DTD/svg11.dtd">
<!-- Generated by graphviz version 2.43.0 (0)
 -->
<!-- Title: anonymous_namespace{Se050Handler::cpp}::ClampU16 Pages: 1 -->
<svg width="346pt" height="101pt"
 viewBox="0.00 0.00 346.00 101.00" xmlns="http://www.w3.org/2000/svg" xmlns:xlink="http://www.w3.org/1999/xlink">
<g id="graph0" class="graph" transform="scale(1 1) rotate(0) translate(4 97)">
<title>anonymous_namespace{Se050Handler::cpp}::ClampU16</title>
<!-- Node1 -->
<g id="Node000001" class="node">
<title>Node1</title>
<g id="a_Node000001"><a xlink:title=" ">
<polygon fill="#999999" stroke="#666666" points="338,-67 203,-67 203,-26 338,-26 338,-67"/>
<text text-anchor="start" x="211" y="-55" font-family="Helvetica,sans-Serif" font-size="10.00">anonymous_namespace</text>
<text text-anchor="start" x="211" y="-44" font-family="Helvetica,sans-Serif" font-size="10.00">{Se050Handler::cpp}</text>
<text text-anchor="middle" x="270.5" y="-33" font-family="Helvetica,sans-Serif" font-size="10.00">::ClampU16</text>
</a>
</g>
</g>
<!-- Node2 -->
<g id="Node000002" class="node">
<title>Node2</title>
<g id="a_Node000002"><a xlink:href="classHalI2cSe050Comm.html#a961f84f8344a2612fc5eaf765ea760a9" target="_top" xlink:title=" ">
<polygon fill="white" stroke="#666666" points="161,-93 6,-93 6,-74 161,-74 161,-93"/>
<text text-anchor="middle" x="83.5" y="-81" font-family="Helvetica,sans-Serif" font-size="10.00">HalI2cSe050Comm::I2cRead</text>
</a>
</g>
</g>
<!-- Node1&#45;&gt;Node2 -->
<g id="edge1_Node000001_Node000002" class="edge">
<title>Node1&#45;&gt;Node2</title>
<g id="a_edge1_Node000001_Node000002"><a xlink:title=" ">
<path fill="none" stroke="#63b8ff" d="M192.97,-61.81C172.38,-65.92 150.7,-70.26 132.19,-73.96"/>
<polygon fill="#63b8ff" stroke="#63b8ff" points="193.85,-65.2 202.97,-59.81 192.48,-58.33 193.85,-65.2"/>
</a>
</g>
</g>
<!-- Node3 -->
<g id="Node000003" class="node">
<title>Node3</title>
<g id="a_Node000003"><a xlink:href="classHalI2cSe050Comm.html#a70e1aefefc05f67353ba8cc5e2a66fdb" target="_top" xlink:title=" ">
<polygon fill="white" stroke="#666666" points="161.5,-56 5.5,-56 5.5,-37 161.5,-37 161.5,-56"/>
<text text-anchor="middle" x="83.5" y="-44" font-family="Helvetica,sans-Serif" font-size="10.00">HalI2cSe050Comm::I2cWrite</text>
</a>
</g>
</g>
<!-- Node1&#45;&gt;Node3 -->
<g id="edge2_Node000001_Node000003" class="edge">
<title>Node1&#45;&gt;Node3</title>
<g id="a_edge2_Node000001_Node000003"><a xlink:title=" ">
<path fill="none" stroke="#63b8ff" d="M192.82,-46.5C182.56,-46.5 172.04,-46.5 161.77,-46.5"/>
<polygon fill="#63b8ff" stroke="#63b8ff" points="192.97,-50 202.97,-46.5 192.97,-43 192.97,-50"/>
</a>
</g>
</g>
<!-- Node4 -->
<g id="Node000004" class="node">
<title>Node4</title>
<g id="a_Node000004"><a xlink:href="classHalI2cSe050Comm.html#a6709bf21c025c3520a0b975d96f8e3db" target="_top" xlink:title=" ">
<polygon fill="white" stroke="#666666" points="167,-19 0,-19 0,0 167,0 167,-19"/>
<text text-anchor="middle" x="83.5" y="-7" font-family="Helvetica,sans-Serif" font-size="10.00">HalI2cSe050Comm::Transceive</text>
</a>
</g>
</g>
<!-- Node1&#45;&gt;Node4 -->
<g id="edge3_Node000001_Node000004" class="edge">
<title>Node1&#45;&gt;Node4</title>
<g id="a_edge3_Node000001_Node000004"><a xlink:title=" ">
<path fill="none" stroke="#63b8ff" d="M192.97,-31.19C172.38,-27.08 150.7,-22.74 132.19,-19.04"/>
<polygon fill="#63b8ff" stroke="#63b8ff" points="192.48,-34.67 202.97,-33.19 193.85,-27.8 192.48,-34.67"/>
</a>
</g>
</g>
</g>
</svg>
