<?xml version="1.0" encoding="UTF-8" standalone="no"?>
<!DOCTYPE svg PUBLIC "-//W3C//DTD SVG 1.1//EN"
 "http://www.w3.org/Graphics/SVG/1.1/DTD/svg11.dtd">
<!-- Generated by graphviz version 2.43.0 (0)
 -->
<!-- Title: handler_utils::DelayMs Pages: 1 -->
<svg width="303pt" height="182pt"
 viewBox="0.00 0.00 303.00 182.00" xmlns="http://www.w3.org/2000/svg" xmlns:xlink="http://www.w3.org/1999/xlink">
<g id="graph0" class="graph" transform="scale(1 1) rotate(0) translate(4 178)">
<title>handler_utils::DelayMs</title>
<!-- Node1 -->
<g id="Node000001" class="node">
<title>Node1</title>
<g id="a_Node000001"><a xlink:title="RTOS&#45;aware millisecond delay.">
<polygon fill="#999999" stroke="#666666" points="295,-96.5 167,-96.5 167,-77.5 295,-77.5 295,-96.5"/>
<text text-anchor="middle" x="231" y="-84.5" font-family="Helvetica,sans-Serif" font-size="10.00">handler_utils::DelayMs</text>
</a>
</g>
</g>
<!-- Node2 -->
<g id="Node000002" class="node">
<title>Node2</title>
<g id="a_Node000002"><a xlink:href="classHalSpiTmc5160Comm.html#a68134d1ddb4ce782d8aa4d367475f054" target="_top" xlink:title="Delay in milliseconds.">
<polygon fill="white" stroke="#666666" points="131,-174 0,-174 0,-144 131,-144 131,-174"/>
<text text-anchor="start" x="8" y="-162" font-family="Helvetica,sans-Serif" font-size="10.00">HalSpiTmc5160Comm::</text>
<text text-anchor="middle" x="65.5" y="-151" font-family="Helvetica,sans-Serif" font-size="10.00">DelayMs</text>
</a>
</g>
</g>
<!-- Node1&#45;&gt;Node2 -->
<g id="edge1_Node000001_Node000002" class="edge">
<title>Node1&#45;&gt;Node2</title>
<g id="a_edge1_Node000001_Node000002"><a xlink:title=" ">
<path fill="none" stroke="#63b8ff" d="M202.62,-101.15C182.92,-111.11 155.6,-124.49 131,-135 123.86,-138.05 116.19,-141.1 108.71,-143.95"/>
<polygon fill="#63b8ff" stroke="#63b8ff" points="204.31,-104.21 211.63,-96.56 201.13,-97.98 204.31,-104.21"/>
</a>
</g>
</g>
<!-- Node3 -->
<g id="Node000003" class="node">
<title>Node3</title>
<g id="a_Node000003"><a xlink:href="classHalUartTmc5160Comm.html#a2ad82076cd779eee19a69de5274f9b70" target="_top" xlink:title="Delay in milliseconds.">
<polygon fill="white" stroke="#666666" points="131,-126 0,-126 0,-96 131,-96 131,-126"/>
<text text-anchor="start" x="8" y="-114" font-family="Helvetica,sans-Serif" font-size="10.00">HalUartTmc5160Comm</text>
<text text-anchor="middle" x="65.5" y="-103" font-family="Helvetica,sans-Serif" font-size="10.00">::DelayMs</text>
</a>
</g>
</g>
<!-- Node1&#45;&gt;Node3 -->
<g id="edge2_Node000001_Node000003" class="edge">
<title>Node1&#45;&gt;Node3</title>
<g id="a_edge2_Node000001_Node000003"><a xlink:title=" ">
<path fill="none" stroke="#63b8ff" d="M156.83,-97.74C148.27,-99 139.59,-100.27 131.17,-101.51"/>
<polygon fill="#63b8ff" stroke="#63b8ff" points="157.4,-101.19 166.79,-96.28 156.38,-94.27 157.4,-101.19"/>
</a>
</g>
</g>
<!-- Node4 -->
<g id="Node000004" class="node">
<title>Node4</title>
<g id="a_Node000004"><a xlink:href="classHalSpiTmc9660Comm.html#a1f4360b2fe821d797fc4a8d771150656" target="_top" xlink:title="Delay execution for the specified number of milliseconds.">
<polygon fill="white" stroke="#666666" points="131,-78 0,-78 0,-48 131,-48 131,-78"/>
<text text-anchor="start" x="8" y="-66" font-family="Helvetica,sans-Serif" font-size="10.00">HalSpiTmc9660Comm::</text>
<text text-anchor="middle" x="65.5" y="-55" font-family="Helvetica,sans-Serif" font-size="10.00">delayMs</text>
</a>
</g>
</g>
<!-- Node1&#45;&gt;Node4 -->
<g id="edge3_Node000001_Node000004" class="edge">
<title>Node1&#45;&gt;Node4</title>
<g id="a_edge3_Node000001_Node000004"><a xlink:title=" ">
<path fill="none" stroke="#63b8ff" d="M156.83,-76.26C148.27,-75 139.59,-73.73 131.17,-72.49"/>
<polygon fill="#63b8ff" stroke="#63b8ff" points="156.38,-79.73 166.79,-77.72 157.4,-72.81 156.38,-79.73"/>
</a>
</g>
</g>
<!-- Node5 -->
<g id="Node000005" class="node">
<title>Node5</title>
<g id="a_Node000005"><a xlink:href="classHalUartTmc9660Comm.html#ac4e3272567e3486a74e62d53ccd814d9" target="_top" xlink:title="Delay execution for the specified number of milliseconds.">
<polygon fill="white" stroke="#666666" points="131,-30 0,-30 0,0 131,0 131,-30"/>
<text text-anchor="start" x="8" y="-18" font-family="Helvetica,sans-Serif" font-size="10.00">HalUartTmc9660Comm</text>
<text text-anchor="middle" x="65.5" y="-7" font-family="Helvetica,sans-Serif" font-size="10.00">::delayMs</text>
</a>
</g>
</g>
<!-- Node1&#45;&gt;Node5 -->
<g id="edge4_Node000001_Node000005" class="edge">
<title>Node1&#45;&gt;Node5</title>
<g id="a_edge4_Node000001_Node000005"><a xlink:title=" ">
<path fill="none" stroke="#63b8ff" d="M202.62,-72.85C182.92,-62.89 155.6,-49.51 131,-39 123.86,-35.95 116.19,-32.9 108.71,-30.05"/>
<polygon fill="#63b8ff" stroke="#63b8ff" points="201.13,-76.02 211.63,-77.44 204.31,-69.79 201.13,-76.02"/>
</a>
</g>
</g>
</g>
</svg>
