<?xml version="1.0" encoding="UTF-8" standalone="no"?>
<!DOCTYPE svg PUBLIC "-//W3C//DTD SVG 1.1//EN"
 "http://www.w3.org/Graphics/SVG/1.1/DTD/svg11.dtd">
<!-- Generated by graphviz version 2.43.0 (0)
 -->
<!-- Title: anonymous_namespace{AlicatBasis2Handler::cpp}::IsSupportedBaudBps Pages: 1 -->
<svg width="312pt" height="67pt"
 viewBox="0.00 0.00 312.00 67.00" xmlns="http://www.w3.org/2000/svg" xmlns:xlink="http://www.w3.org/1999/xlink">
<g id="graph0" class="graph" transform="scale(1 1) rotate(0) translate(4 63)">
<title>anonymous_namespace{AlicatBasis2Handler::cpp}::IsSupportedBaudBps</title>
<!-- Node1 -->
<g id="Node000001" class="node">
<title>Node1</title>
<g id="a_Node000001"><a xlink:title=" ">
<polygon fill="#999999" stroke="#666666" points="304,-41 152,-41 152,0 304,0 304,-41"/>
<text text-anchor="start" x="160" y="-29" font-family="Helvetica,sans-Serif" font-size="10.00">anonymous_namespace</text>
<text text-anchor="start" x="160" y="-18" font-family="Helvetica,sans-Serif" font-size="10.00">{AlicatBasis2Handler</text>
<text text-anchor="middle" x="228" y="-7" font-family="Helvetica,sans-Serif" font-size="10.00">::cpp}::IsSupportedBaudBps</text>
</a>
</g>
</g>
<!-- Node1&#45;&gt;Node1 -->
<g id="edge1_Node000001_Node000001" class="edge">
<title>Node1&#45;&gt;Node1</title>
<g id="a_edge1_Node000001_Node000001"><a xlink:title=" ">
<path fill="none" stroke="#63b8ff" d="M257.25,-50.96C252.9,-55.74 243.15,-59 228,-59 203.76,-59 193.35,-50.65 196.76,-41.1"/>
<polygon fill="#63b8ff" stroke="#63b8ff" points="260.69,-51.59 259.24,-41.1 253.83,-50.2 260.69,-51.59"/>
</a>
</g>
</g>
<!-- Node2 -->
<g id="Node000002" class="node">
<title>Node2</title>
<g id="a_Node000002"><a xlink:href="classAlicatBasis2Handler.html#acd0909cb398b2b50a90f161bd3b805d0" target="_top" xlink:title="Normalise every device on the bus to the same baud rate.">
<polygon fill="white" stroke="#666666" points="116,-35.5 0,-35.5 0,-5.5 116,-5.5 116,-35.5"/>
<text text-anchor="start" x="8" y="-23.5" font-family="Helvetica,sans-Serif" font-size="10.00">AlicatBasis2Handler</text>
<text text-anchor="middle" x="58" y="-12.5" font-family="Helvetica,sans-Serif" font-size="10.00">::NormalizeBusBaud</text>
</a>
</g>
</g>
<!-- Node1&#45;&gt;Node2 -->
<g id="edge2_Node000001_Node000002" class="edge">
<title>Node1&#45;&gt;Node2</title>
<g id="a_edge2_Node000001_Node000002"><a xlink:title=" ">
<path fill="none" stroke="#63b8ff" d="M141.71,-20.5C133.07,-20.5 124.44,-20.5 116.2,-20.5"/>
<polygon fill="#63b8ff" stroke="#63b8ff" points="141.84,-24 151.84,-20.5 141.84,-17 141.84,-24"/>
</a>
</g>
</g>
</g>
</svg>
