<?xml version="1.0" encoding="UTF-8" standalone="no"?>
<!DOCTYPE svg PUBLIC "-//W3C//DTD SVG 1.1//EN"
 "http://www.w3.org/Graphics/SVG/1.1/DTD/svg11.dtd">
<!-- Generated by graphviz version 2.43.0 (0)
 -->
<!-- Title: TestFramework.h Pages: 1 -->
<svg width="2929pt" height="93pt"
 viewBox="0.00 0.00 2929.00 93.00" xmlns="http://www.w3.org/2000/svg" xmlns:xlink="http://www.w3.org/1999/xlink">
<g id="graph0" class="graph" transform="scale(1 1) rotate(0) translate(4 89)">
<title>TestFramework.h</title>
<!-- Node1 -->
<g id="Node000001" class="node">
<title>Node1</title>
<g id="a_Node000001"><a xlink:title="Shared testing framework for ESP32&#45;C6 comprehensive test suites.">
<polygon fill="#999999" stroke="#666666" points="1477,-85 1377,-85 1377,-66 1477,-66 1477,-85"/>
<text text-anchor="middle" x="1427" y="-73" font-family="Helvetica,sans-Serif" font-size="10.00">TestFramework.h</text>
</a>
</g>
</g>
<!-- Node2 -->
<g id="Node000002" class="node">
<title>Node2</title>
<g id="a_Node000002"><a xlink:href="as5047u__handler__comprehensive__test_8cpp.html" target="_top" xlink:title="Comprehensive test suite for As5047uHandler.">
<polygon fill="white" stroke="#666666" points="180,-30 0,-30 0,0 180,0 180,-30"/>
<text text-anchor="start" x="8" y="-18" font-family="Helvetica,sans-Serif" font-size="10.00">as5047u_handler_comprehensive</text>
<text text-anchor="middle" x="90" y="-7" font-family="Helvetica,sans-Serif" font-size="10.00">_test.cpp</text>
</a>
</g>
</g>
<!-- Node1&#45;&gt;Node2 -->
<g id="edge1_Node000001_Node000002" class="edge">
<title>Node1&#45;&gt;Node2</title>
<g id="a_edge1_Node000001_Node000002"><a xlink:title=" ">
<path fill="none" stroke="#63b8ff" d="M1366.73,-74.56C1187.17,-74.27 640.3,-69.91 189,-30 186.06,-29.74 183.07,-29.45 180.06,-29.14"/>
<polygon fill="#63b8ff" stroke="#63b8ff" points="1366.76,-78.06 1376.76,-74.58 1366.77,-71.06 1366.76,-78.06"/>
</a>
</g>
</g>
<!-- Node3 -->
<g id="Node000003" class="node">
<title>Node3</title>
<g id="a_Node000003"><a xlink:href="bno08x__handler__comprehensive__test_8cpp.html" target="_top" xlink:title="Comprehensive test suite for Bno08xHandler.">
<polygon fill="white" stroke="#666666" points="373.5,-30 198.5,-30 198.5,0 373.5,0 373.5,-30"/>
<text text-anchor="start" x="206.5" y="-18" font-family="Helvetica,sans-Serif" font-size="10.00">bno08x_handler_comprehensive</text>
<text text-anchor="middle" x="286" y="-7" font-family="Helvetica,sans-Serif" font-size="10.00">_test.cpp</text>
</a>
</g>
</g>
<!-- Node1&#45;&gt;Node3 -->
<g id="edge2_Node000001_Node000003" class="edge">
<title>Node1&#45;&gt;Node3</title>
<g id="a_edge2_Node000001_Node000003"><a xlink:title=" ">
<path fill="none" stroke="#63b8ff" d="M1366.76,-74.05C1206.4,-72.4 755.94,-64.77 383,-30 379.95,-29.72 376.85,-29.4 373.72,-29.06"/>
<polygon fill="#63b8ff" stroke="#63b8ff" points="1366.86,-77.55 1376.89,-74.15 1366.93,-70.55 1366.86,-77.55"/>
</a>
</g>
</g>
<!-- Node4 -->
<g id="Node000004" class="node">
<title>Node4</title>
<g id="a_Node000004"><a xlink:href="canopen__utils__comprehensive__test_8cpp.html" target="_top" xlink:title="Comprehensive test suite for hf&#45;utils&#45;canopen utilities.">
<polygon fill="white" stroke="#666666" points="556,-30 392,-30 392,0 556,0 556,-30"/>
<text text-anchor="start" x="400" y="-18" font-family="Helvetica,sans-Serif" font-size="10.00">canopen_utils_comprehensive</text>
<text text-anchor="middle" x="474" y="-7" font-family="Helvetica,sans-Serif" font-size="10.00">_test.cpp</text>
</a>
</g>
</g>
<!-- Node1&#45;&gt;Node4 -->
<g id="edge3_Node000001_Node000004" class="edge">
<title>Node1&#45;&gt;Node4</title>
<g id="a_edge3_Node000001_Node000004"><a xlink:title=" ">
<path fill="none" stroke="#63b8ff" d="M1366.67,-73.48C1225.92,-70.65 864.95,-60.74 565,-30 562.14,-29.71 559.23,-29.39 556.29,-29.04"/>
<polygon fill="#63b8ff" stroke="#63b8ff" points="1366.76,-76.98 1376.82,-73.68 1366.89,-69.98 1366.76,-76.98"/>
</a>
</g>
</g>
<!-- Node5 -->
<g id="Node000005" class="node">
<title>Node5</title>
<g id="a_Node000005"><a xlink:href="full__system__integration__test_8cpp.html" target="_top" xlink:title="Full system integration test for hf&#45;core.">
<polygon fill="white" stroke="#666666" points="706,-30 574,-30 574,0 706,0 706,-30"/>
<text text-anchor="start" x="582" y="-18" font-family="Helvetica,sans-Serif" font-size="10.00">full_system_integration</text>
<text text-anchor="middle" x="640" y="-7" font-family="Helvetica,sans-Serif" font-size="10.00">_test.cpp</text>
</a>
</g>
</g>
<!-- Node1&#45;&gt;Node5 -->
<g id="edge4_Node000001_Node000005" class="edge">
<title>Node1&#45;&gt;Node5</title>
<g id="a_edge4_Node000001_Node000005"><a xlink:title=" ">
<path fill="none" stroke="#63b8ff" d="M1366.4,-73.21C1243.24,-70.03 955.05,-59.79 715,-30 712.11,-29.64 709.16,-29.24 706.18,-28.81"/>
<polygon fill="#63b8ff" stroke="#63b8ff" points="1366.65,-76.71 1376.74,-73.47 1366.83,-69.72 1366.65,-76.71"/>
</a>
</g>
</g>
<!-- Node6 -->
<g id="Node000006" class="node">
<title>Node6</title>
<g id="a_Node000006"><a xlink:href="general__utils__comprehensive__test_8cpp.html" target="_top" xlink:title="Comprehensive test suite for hf&#45;utils&#45;general utilities.">
<polygon fill="white" stroke="#666666" points="884,-30 724,-30 724,0 884,0 884,-30"/>
<text text-anchor="start" x="732" y="-18" font-family="Helvetica,sans-Serif" font-size="10.00">general_utils_comprehensive</text>
<text text-anchor="middle" x="804" y="-7" font-family="Helvetica,sans-Serif" font-size="10.00">_test.cpp</text>
</a>
</g>
</g>
<!-- Node1&#45;&gt;Node6 -->
<g id="edge5_Node000001_Node000006" class="edge">
<title>Node1&#45;&gt;Node6</title>
<g id="a_edge5_Node000001_Node000006"><a xlink:title=" ">
<path fill="none" stroke="#63b8ff" d="M1366.69,-70.91C1267.61,-64.69 1064.28,-50.58 893,-30 890.05,-29.65 887.05,-29.27 884.02,-28.87"/>
<polygon fill="#63b8ff" stroke="#63b8ff" points="1366.62,-74.41 1376.81,-71.54 1367.05,-67.43 1366.62,-74.41"/>
</a>
</g>
</g>
<!-- Node7 -->
<g id="Node000007" class="node">
<title>Node7</title>
<g id="a_Node000007"><a xlink:href="logger__comprehensive__test_8cpp.html" target="_top" xlink:title="Comprehensive test suite for Logger singleton.">
<polygon fill="white" stroke="#666666" points="1030,-30 902,-30 902,0 1030,0 1030,-30"/>
<text text-anchor="start" x="910" y="-18" font-family="Helvetica,sans-Serif" font-size="10.00">logger_comprehensive</text>
<text text-anchor="middle" x="966" y="-7" font-family="Helvetica,sans-Serif" font-size="10.00">_test.cpp</text>
</a>
</g>
</g>
<!-- Node1&#45;&gt;Node7 -->
<g id="edge6_Node000001_Node000007" class="edge">
<title>Node1&#45;&gt;Node7</title>
<g id="a_edge6_Node000001_Node000007"><a xlink:title=" ">
<path fill="none" stroke="#63b8ff" d="M1366.53,-68.99C1290.04,-61.69 1154.38,-47.65 1039,-30 1036.07,-29.55 1033.07,-29.07 1030.05,-28.57"/>
<polygon fill="#63b8ff" stroke="#63b8ff" points="1366.64,-72.51 1376.92,-69.97 1367.3,-65.54 1366.64,-72.51"/>
</a>
</g>
</g>
<!-- Node8 -->
<g id="Node000008" class="node">
<title>Node8</title>
<g id="a_Node000008"><a xlink:href="max22200__handler__comprehensive__test_8cpp.html" target="_top" xlink:title="Comprehensive test suite for Max22200Handler.">
<polygon fill="white" stroke="#666666" points="1239.5,-30 1048.5,-30 1048.5,0 1239.5,0 1239.5,-30"/>
<text text-anchor="start" x="1056.5" y="-18" font-family="Helvetica,sans-Serif" font-size="10.00">max22200_handler_comprehensive</text>
<text text-anchor="middle" x="1144" y="-7" font-family="Helvetica,sans-Serif" font-size="10.00">_test.cpp</text>
</a>
</g>
</g>
<!-- Node1&#45;&gt;Node8 -->
<g id="edge7_Node000001_Node000008" class="edge">
<title>Node1&#45;&gt;Node8</title>
<g id="a_edge7_Node000001_Node000008"><a xlink:title=" ">
<path fill="none" stroke="#63b8ff" d="M1375.82,-63.92C1329.9,-54.43 1262.17,-40.43 1211.76,-30.01"/>
<polygon fill="#63b8ff" stroke="#63b8ff" points="1375.35,-67.4 1385.85,-65.99 1376.76,-60.54 1375.35,-67.4"/>
</a>
</g>
</g>
<!-- Node9 -->
<g id="Node000009" class="node">
<title>Node9</title>
<g id="a_Node000009"><a xlink:href="ntc__handler__comprehensive__test_8cpp.html" target="_top" xlink:title="Comprehensive test suite for NtcTemperatureHandler.">
<polygon fill="white" stroke="#666666" points="1412,-30 1258,-30 1258,0 1412,0 1412,-30"/>
<text text-anchor="start" x="1266" y="-18" font-family="Helvetica,sans-Serif" font-size="10.00">ntc_handler_comprehensive</text>
<text text-anchor="middle" x="1335" y="-7" font-family="Helvetica,sans-Serif" font-size="10.00">_test.cpp</text>
</a>
</g>
</g>
<!-- Node1&#45;&gt;Node9 -->
<g id="edge8_Node000001_Node000009" class="edge">
<title>Node1&#45;&gt;Node9</title>
<g id="a_edge8_Node000001_Node000009"><a xlink:title=" ">
<path fill="none" stroke="#63b8ff" d="M1404.66,-60.29C1390.25,-51.13 1371.58,-39.26 1357.2,-30.11"/>
<polygon fill="#63b8ff" stroke="#63b8ff" points="1403.11,-63.46 1413.43,-65.87 1406.86,-57.55 1403.11,-63.46"/>
</a>
</g>
</g>
<!-- Node10 -->
<g id="Node000010" class="node">
<title>Node10</title>
<g id="a_Node000010"><a xlink:href="pca9685__handler__comprehensive__test_8cpp.html" target="_top" xlink:title="Comprehensive test suite for Pca9685Handler.">
<polygon fill="white" stroke="#666666" points="1610,-30 1430,-30 1430,0 1610,0 1610,-30"/>
<text text-anchor="start" x="1438" y="-18" font-family="Helvetica,sans-Serif" font-size="10.00">pca9685_handler_comprehensive</text>
<text text-anchor="middle" x="1520" y="-7" font-family="Helvetica,sans-Serif" font-size="10.00">_test.cpp</text>
</a>
</g>
</g>
<!-- Node1&#45;&gt;Node10 -->
<g id="edge9_Node000001_Node000010" class="edge">
<title>Node1&#45;&gt;Node10</title>
<g id="a_edge9_Node000001_Node000010"><a xlink:title=" ">
<path fill="none" stroke="#63b8ff" d="M1449.59,-60.29C1464.15,-51.13 1483.02,-39.26 1497.56,-30.11"/>
<polygon fill="#63b8ff" stroke="#63b8ff" points="1447.32,-57.58 1440.72,-65.87 1451.05,-63.51 1447.32,-57.58"/>
</a>
</g>
</g>
<!-- Node11 -->
<g id="Node000011" class="node">
<title>Node11</title>
<g id="a_Node000011"><a xlink:href="pcal95555__handler__comprehensive__test_8cpp.html" target="_top" xlink:title="Comprehensive test suite for Pcal95555Handler.">
<polygon fill="white" stroke="#666666" points="1817.5,-30 1628.5,-30 1628.5,0 1817.5,0 1817.5,-30"/>
<text text-anchor="start" x="1636.5" y="-18" font-family="Helvetica,sans-Serif" font-size="10.00">pcal95555_handler_comprehensive</text>
<text text-anchor="middle" x="1723" y="-7" font-family="Helvetica,sans-Serif" font-size="10.00">_test.cpp</text>
</a>
</g>
</g>
<!-- Node1&#45;&gt;Node11 -->
<g id="edge10_Node000001_Node000011" class="edge">
<title>Node1&#45;&gt;Node11</title>
<g id="a_edge10_Node000001_Node000011"><a xlink:title=" ">
<path fill="none" stroke="#63b8ff" d="M1479.93,-64.04C1527.97,-54.55 1599.18,-40.47 1652.12,-30.01"/>
<polygon fill="#63b8ff" stroke="#63b8ff" points="1479.17,-60.62 1470.04,-65.99 1480.53,-67.49 1479.17,-60.62"/>
</a>
</g>
</g>
<!-- Node12 -->
<g id="Node000012" class="node">
<title>Node12</title>
<g id="a_Node000012"><a xlink:href="rtos__wrap__comprehensive__test_8cpp.html" target="_top" xlink:title="Comprehensive test suite for hf&#45;utils&#45;rtos&#45;wrap FreeRTOS wrappers.">
<polygon fill="white" stroke="#666666" points="1980.5,-30 1835.5,-30 1835.5,0 1980.5,0 1980.5,-30"/>
<text text-anchor="start" x="1843.5" y="-18" font-family="Helvetica,sans-Serif" font-size="10.00">rtos_wrap_comprehensive</text>
<text text-anchor="middle" x="1908" y="-7" font-family="Helvetica,sans-Serif" font-size="10.00">_test.cpp</text>
</a>
</g>
</g>
<!-- Node1&#45;&gt;Node12 -->
<g id="edge11_Node000001_Node000012" class="edge">
<title>Node1&#45;&gt;Node12</title>
<g id="a_edge11_Node000001_Node000012"><a xlink:title=" ">
<path fill="none" stroke="#63b8ff" d="M1487.18,-68.95C1565.58,-61.45 1706.83,-47.05 1827,-30 1829.68,-29.62 1832.42,-29.22 1835.17,-28.8"/>
<polygon fill="#63b8ff" stroke="#63b8ff" points="1486.63,-65.48 1477.01,-69.91 1487.3,-72.45 1486.63,-65.48"/>
</a>
</g>
</g>
<!-- Node13 -->
<g id="Node000013" class="node">
<title>Node13</title>
<g id="a_Node000013"><a xlink:href="se050__handler__comprehensive__test_8cpp.html" target="_top" xlink:title="Exercises Se050Handler on ESP32 (same usage pattern as hf&#45;se050&#45;driver examples).">
<polygon fill="white" stroke="#666666" points="2167,-30 1999,-30 1999,0 2167,0 2167,-30"/>
<text text-anchor="start" x="2007" y="-18" font-family="Helvetica,sans-Serif" font-size="10.00">se050_handler_comprehensive</text>
<text text-anchor="middle" x="2083" y="-7" font-family="Helvetica,sans-Serif" font-size="10.00">_test.cpp</text>
</a>
</g>
</g>
<!-- Node1&#45;&gt;Node13 -->
<g id="edge12_Node000001_Node000013" class="edge">
<title>Node1&#45;&gt;Node13</title>
<g id="a_edge12_Node000001_Node000013"><a xlink:title=" ">
<path fill="none" stroke="#63b8ff" d="M1487.43,-71.13C1590.66,-65.05 1807.53,-50.92 1990,-30 1992.92,-29.67 1995.89,-29.31 1998.89,-28.93"/>
<polygon fill="#63b8ff" stroke="#63b8ff" points="1486.98,-67.65 1477.2,-71.72 1487.39,-74.63 1486.98,-67.65"/>
</a>
</g>
</g>
<!-- Node14 -->
<g id="Node000014" class="node">
<title>Node14</title>
<g id="a_Node000014"><a xlink:href="tle92466ed__handler__comprehensive__test_8cpp.html" target="_top" xlink:title="Comprehensive test suite for Tle92466edHandler.">
<polygon fill="white" stroke="#666666" points="2326.5,-30 2185.5,-30 2185.5,0 2326.5,0 2326.5,-30"/>
<text text-anchor="start" x="2193.5" y="-18" font-family="Helvetica,sans-Serif" font-size="10.00">tle92466ed_handler</text>
<text text-anchor="middle" x="2256" y="-7" font-family="Helvetica,sans-Serif" font-size="10.00">_comprehensive_test.cpp</text>
</a>
</g>
</g>
<!-- Node1&#45;&gt;Node14 -->
<g id="edge13_Node000001_Node000014" class="edge">
<title>Node1&#45;&gt;Node14</title>
<g id="a_edge13_Node000001_Node000014"><a xlink:title=" ">
<path fill="none" stroke="#63b8ff" d="M1487.47,-73.24C1615.09,-70.07 1921.16,-59.77 2176,-30 2179.08,-29.64 2182.22,-29.24 2185.39,-28.81"/>
<polygon fill="#63b8ff" stroke="#63b8ff" points="1487.05,-69.75 1477.14,-73.49 1487.22,-76.75 1487.05,-69.75"/>
</a>
</g>
</g>
<!-- Node15 -->
<g id="Node000015" class="node">
<title>Node15</title>
<g id="a_Node000015"><a xlink:href="tmc5160__handler__comprehensive__test_8cpp.html" target="_top" xlink:title="Comprehensive test suite for Tmc5160Handler.">
<polygon fill="white" stroke="#666666" points="2527,-30 2345,-30 2345,0 2527,0 2527,-30"/>
<text text-anchor="start" x="2353" y="-18" font-family="Helvetica,sans-Serif" font-size="10.00">tmc5160_handler_comprehensive</text>
<text text-anchor="middle" x="2436" y="-7" font-family="Helvetica,sans-Serif" font-size="10.00">_test.cpp</text>
</a>
</g>
</g>
<!-- Node1&#45;&gt;Node15 -->
<g id="edge14_Node000001_Node000015" class="edge">
<title>Node1&#45;&gt;Node15</title>
<g id="a_edge14_Node000001_Node000015"><a xlink:title=" ">
<path fill="none" stroke="#63b8ff" d="M1487.47,-73.42C1633.58,-70.41 2017.24,-60.05 2336,-30 2338.88,-29.73 2341.8,-29.43 2344.75,-29.12"/>
<polygon fill="#63b8ff" stroke="#63b8ff" points="1487.3,-69.93 1477.37,-73.63 1487.44,-76.92 1487.3,-69.93"/>
</a>
</g>
</g>
<!-- Node16 -->
<g id="Node000016" class="node">
<title>Node16</title>
<g id="a_Node000016"><a xlink:href="tmc9660__handler__comprehensive__test_8cpp.html" target="_top" xlink:title="Comprehensive test suite for Tmc9660Handler.">
<polygon fill="white" stroke="#666666" points="2727,-30 2545,-30 2545,0 2727,0 2727,-30"/>
<text text-anchor="start" x="2553" y="-18" font-family="Helvetica,sans-Serif" font-size="10.00">tmc9660_handler_comprehensive</text>
<text text-anchor="middle" x="2636" y="-7" font-family="Helvetica,sans-Serif" font-size="10.00">_test.cpp</text>
</a>
</g>
</g>
<!-- Node1&#45;&gt;Node16 -->
<g id="edge15_Node000001_Node000016" class="edge">
<title>Node1&#45;&gt;Node16</title>
<g id="a_edge15_Node000001_Node000016"><a xlink:title=" ">
<path fill="none" stroke="#63b8ff" d="M1487.2,-74.18C1654.1,-72.83 2136.78,-65.87 2536,-30 2538.88,-29.74 2541.81,-29.46 2544.76,-29.15"/>
<polygon fill="#63b8ff" stroke="#63b8ff" points="1487.1,-70.68 1477.13,-74.25 1487.16,-77.68 1487.1,-70.68"/>
</a>
</g>
</g>
<!-- Node17 -->
<g id="Node000017" class="node">
<title>Node17</title>
<g id="a_Node000017"><a xlink:href="ws2812__handler__comprehensive__test_8cpp.html" target="_top" xlink:title="Comprehensive test suite for Ws2812Handler.">
<polygon fill="white" stroke="#666666" points="2921,-30 2745,-30 2745,0 2921,0 2921,-30"/>
<text text-anchor="start" x="2753" y="-18" font-family="Helvetica,sans-Serif" font-size="10.00">ws2812_handler_comprehensive</text>
<text text-anchor="middle" x="2833" y="-7" font-family="Helvetica,sans-Serif" font-size="10.00">_test.cpp</text>
</a>
</g>
</g>
<!-- Node1&#45;&gt;Node17 -->
<g id="edge16_Node000001_Node000017" class="edge">
<title>Node1&#45;&gt;Node17</title>
<g id="a_edge16_Node000001_Node000017"><a xlink:title=" ">
<path fill="none" stroke="#63b8ff" d="M1487.18,-74.79C1673.28,-75.19 2255.85,-72.68 2736,-30 2738.88,-29.74 2741.81,-29.46 2744.76,-29.15"/>
<polygon fill="#63b8ff" stroke="#63b8ff" points="1487.06,-71.29 1477.05,-74.77 1487.05,-78.29 1487.06,-71.29"/>
</a>
</g>
</g>
</g>
</svg>
