<?xml version="1.0" encoding="UTF-8" standalone="no"?>
<!DOCTYPE svg PUBLIC "-//W3C//DTD SVG 1.1//EN"
 "http://www.w3.org/Graphics/SVG/1.1/DTD/svg11.dtd">
<!-- Generated by graphviz version 2.43.0 (0)
 -->
<!-- Title: Tle92466edHandler.cpp Pages: 1 -->
<svg width="1239pt" height="225pt"
 viewBox="0.00 0.00 1238.50 225.00" xmlns="http://www.w3.org/2000/svg" xmlns:xlink="http://www.w3.org/1999/xlink">
<g id="graph0" class="graph" transform="scale(1 1) rotate(0) translate(4 221)">
<title>Tle92466edHandler.cpp</title>
<!-- Node1 -->
<g id="Node000001" class="node">
<title>Node1</title>
<g id="a_Node000001"><a xlink:title="Implementation of TLE92466ED handler with SPI communication adapter.">
<polygon fill="#999999" stroke="#666666" points="297.5,-217 166.5,-217 166.5,-198 297.5,-198 297.5,-217"/>
<text text-anchor="middle" x="232" y="-205" font-family="Helvetica,sans-Serif" font-size="10.00">Tle92466edHandler.cpp</text>
</a>
</g>
</g>
<!-- Node2 -->
<g id="Node000002" class="node">
<title>Node2</title>
<g id="a_Node000002"><a xlink:href="Tle92466edHandler_8h.html" target="_top" xlink:title="Unified handler for TLE92466ED six&#45;channel low&#45;side solenoid driver IC.">
<polygon fill="white" stroke="#666666" points="654,-162 534,-162 534,-143 654,-143 654,-162"/>
<text text-anchor="middle" x="594" y="-150" font-family="Helvetica,sans-Serif" font-size="10.00">Tle92466edHandler.h</text>
</a>
</g>
</g>
<!-- Node1&#45;&gt;Node2 -->
<g id="edge1_Node000001_Node000002" class="edge">
<title>Node1&#45;&gt;Node2</title>
<g id="a_edge1_Node000001_Node000002"><a xlink:title=" ">
<path fill="none" stroke="#63b8ff" d="M290.16,-197.98C354.32,-188.59 457.47,-173.49 525.49,-163.53"/>
<polygon fill="#63b8ff" stroke="#63b8ff" points="526.3,-166.95 535.68,-162.04 525.28,-160.02 526.3,-166.95"/>
</a>
</g>
</g>
<!-- Node13 -->
<g id="Node000013" class="node">
<title>Node13</title>
<g id="a_Node000013"><a xlink:href="Logger_8h.html" target="_top" xlink:title="Advanced logging system with formatting capabilities.">
<polygon fill="white" stroke="#666666" points="150,-90.5 92,-90.5 92,-71.5 150,-71.5 150,-90.5"/>
<text text-anchor="middle" x="121" y="-78.5" font-family="Helvetica,sans-Serif" font-size="10.00">Logger.h</text>
</a>
</g>
</g>
<!-- Node1&#45;&gt;Node13 -->
<g id="edge12_Node000001_Node000013" class="edge">
<title>Node1&#45;&gt;Node13</title>
<g id="a_edge12_Node000001_Node000013"><a xlink:title=" ">
<path fill="none" stroke="#63b8ff" d="M216.38,-197.98C202.72,-189.98 182.94,-177.02 169,-162 151.66,-143.32 137.51,-117.38 129.17,-100.16"/>
<polygon fill="#63b8ff" stroke="#63b8ff" points="132.16,-98.29 124.75,-90.71 125.81,-101.25 132.16,-98.29"/>
</a>
</g>
</g>
<!-- Node17 -->
<g id="Node000017" class="node">
<title>Node17</title>
<g id="a_Node000017"><a xlink:href="HandlerCommon_8h.html" target="_top" xlink:title="Shared utility functions for handler CRTP communication adapters.">
<polygon fill="white" stroke="#666666" points="286,-162 178,-162 178,-143 286,-143 286,-162"/>
<text text-anchor="middle" x="232" y="-150" font-family="Helvetica,sans-Serif" font-size="10.00">HandlerCommon.h</text>
</a>
</g>
</g>
<!-- Node1&#45;&gt;Node17 -->
<g id="edge18_Node000001_Node000017" class="edge">
<title>Node1&#45;&gt;Node17</title>
<g id="a_edge18_Node000001_Node000017"><a xlink:title=" ">
<path fill="none" stroke="#63b8ff" d="M232,-197.75C232,-190.8 232,-180.85 232,-172.13"/>
<polygon fill="#63b8ff" stroke="#63b8ff" points="235.5,-172.09 232,-162.09 228.5,-172.09 235.5,-172.09"/>
</a>
</g>
</g>
<!-- Node3 -->
<g id="Node000003" class="node">
<title>Node3</title>
<g id="a_Node000003"><a xlink:title=" ">
<polygon fill="#e0e0e0" stroke="#999999" points="320,-90.5 270,-90.5 270,-71.5 320,-71.5 320,-90.5"/>
<text text-anchor="middle" x="295" y="-78.5" font-family="Helvetica,sans-Serif" font-size="10.00">cstdint</text>
</a>
</g>
</g>
<!-- Node2&#45;&gt;Node3 -->
<g id="edge2_Node000002_Node000003" class="edge">
<title>Node2&#45;&gt;Node3</title>
<g id="a_edge2_Node000002_Node000003"><a xlink:title=" ">
<path fill="none" stroke="#63b8ff" d="M533.86,-148.03C479.96,-143.34 399.54,-132.41 334,-107 327.31,-104.41 320.54,-100.58 314.57,-96.7"/>
<polygon fill="#63b8ff" stroke="#63b8ff" points="316.16,-93.55 305.95,-90.72 312.17,-99.3 316.16,-93.55"/>
</a>
</g>
</g>
<!-- Node4 -->
<g id="Node000004" class="node">
<title>Node4</title>
<g id="a_Node000004"><a xlink:title=" ">
<polygon fill="#e0e0e0" stroke="#999999" points="256,-19 198,-19 198,0 256,0 256,-19"/>
<text text-anchor="middle" x="227" y="-7" font-family="Helvetica,sans-Serif" font-size="10.00">memory</text>
</a>
</g>
</g>
<!-- Node2&#45;&gt;Node4 -->
<g id="edge3_Node000002_Node000004" class="edge">
<title>Node2&#45;&gt;Node4</title>
<g id="a_edge3_Node000002_Node000004"><a xlink:title=" ">
<path fill="none" stroke="#63b8ff" d="M533.66,-151.46C485.18,-148.79 417.15,-138.91 367,-107 342.85,-91.63 351.34,-72.9 329,-55 310.34,-40.05 285.89,-29.15 265.6,-21.89"/>
<polygon fill="#63b8ff" stroke="#63b8ff" points="266.62,-18.54 256.02,-18.61 264.35,-25.16 266.62,-18.54"/>
</a>
</g>
</g>
<!-- Node5 -->
<g id="Node000005" class="node">
<title>Node5</title>
<g id="a_Node000005"><a xlink:title=" ">
<polygon fill="#e0e0e0" stroke="#999999" points="327.5,-19 274.5,-19 274.5,0 327.5,0 327.5,-19"/>
<text text-anchor="middle" x="301" y="-7" font-family="Helvetica,sans-Serif" font-size="10.00">cstdarg</text>
</a>
</g>
</g>
<!-- Node2&#45;&gt;Node5 -->
<g id="edge4_Node000002_Node000005" class="edge">
<title>Node2&#45;&gt;Node5</title>
<g id="a_edge4_Node000002_Node000005"><a xlink:title=" ">
<path fill="none" stroke="#63b8ff" d="M654.14,-147.88C746.82,-141.68 915.86,-127.67 934,-107 949.24,-89.63 949.76,-71.91 934,-55 893.27,-11.3 467.14,-9.71 337.93,-10.24"/>
<polygon fill="#63b8ff" stroke="#63b8ff" points="337.74,-6.74 327.76,-10.29 337.77,-13.74 337.74,-6.74"/>
</a>
</g>
</g>
<!-- Node6 -->
<g id="Node000006" class="node">
<title>Node6</title>
<g id="a_Node000006"><a xlink:title=" ">
<polygon fill="#e0e0e0" stroke="#999999" points="416,-90.5 376,-90.5 376,-71.5 416,-71.5 416,-90.5"/>
<text text-anchor="middle" x="396" y="-78.5" font-family="Helvetica,sans-Serif" font-size="10.00">span</text>
</a>
</g>
</g>
<!-- Node2&#45;&gt;Node6 -->
<g id="edge5_Node000002_Node000006" class="edge">
<title>Node2&#45;&gt;Node6</title>
<g id="a_edge5_Node000002_Node000006"><a xlink:title=" ">
<path fill="none" stroke="#63b8ff" d="M537.68,-142.93C503.96,-136.28 460.98,-125.07 426,-107 421.01,-104.42 416.1,-100.89 411.75,-97.3"/>
<polygon fill="#63b8ff" stroke="#63b8ff" points="413.98,-94.6 404.2,-90.54 409.32,-99.81 413.98,-94.6"/>
</a>
</g>
</g>
<!-- Node7 -->
<g id="Node000007" class="node">
<title>Node7</title>
<g id="a_Node000007"><a xlink:title=" ">
<polygon fill="#e0e0e0" stroke="#999999" points="503.5,-90.5 434.5,-90.5 434.5,-71.5 503.5,-71.5 503.5,-90.5"/>
<text text-anchor="middle" x="469" y="-78.5" font-family="Helvetica,sans-Serif" font-size="10.00">type_traits</text>
</a>
</g>
</g>
<!-- Node2&#45;&gt;Node7 -->
<g id="edge6_Node000002_Node000007" class="edge">
<title>Node2&#45;&gt;Node7</title>
<g id="a_edge6_Node000002_Node000007"><a xlink:title=" ">
<path fill="none" stroke="#63b8ff" d="M578.13,-142.87C561.77,-133.95 535.55,-119.6 513,-107 506.51,-103.37 499.5,-99.41 493.02,-95.73"/>
<polygon fill="#63b8ff" stroke="#63b8ff" points="494.46,-92.52 484.04,-90.62 491,-98.61 494.46,-92.52"/>
</a>
</g>
</g>
<!-- Node8 -->
<g id="Node000008" class="node">
<title>Node8</title>
<g id="a_Node000008"><a xlink:title=" ">
<polygon fill="#e0e0e0" stroke="#999999" points="666.5,-101.5 521.5,-101.5 521.5,-60.5 666.5,-60.5 666.5,-101.5"/>
<text text-anchor="start" x="529.5" y="-89.5" font-family="Helvetica,sans-Serif" font-size="10.00">core/hf&#45;core&#45;drivers</text>
<text text-anchor="start" x="529.5" y="-78.5" font-family="Helvetica,sans-Serif" font-size="10.00">/external/hf&#45;tle92466ed</text>
<text text-anchor="middle" x="594" y="-67.5" font-family="Helvetica,sans-Serif" font-size="10.00">&#45;driver/inc/tle92466ed.hpp</text>
</a>
</g>
</g>
<!-- Node2&#45;&gt;Node8 -->
<g id="edge7_Node000002_Node000008" class="edge">
<title>Node2&#45;&gt;Node8</title>
<g id="a_edge7_Node000002_Node000008"><a xlink:title=" ">
<path fill="none" stroke="#63b8ff" d="M594,-142.98C594,-135.15 594,-123.08 594,-111.74"/>
<polygon fill="#63b8ff" stroke="#63b8ff" points="597.5,-111.67 594,-101.67 590.5,-111.67 597.5,-111.67"/>
</a>
</g>
</g>
<!-- Node9 -->
<g id="Node000009" class="node">
<title>Node9</title>
<g id="a_Node000009"><a xlink:title=" ">
<polygon fill="#e0e0e0" stroke="#999999" points="815.5,-107 684.5,-107 684.5,-55 815.5,-55 815.5,-107"/>
<text text-anchor="start" x="692.5" y="-95" font-family="Helvetica,sans-Serif" font-size="10.00">core/hf&#45;core&#45;drivers</text>
<text text-anchor="start" x="692.5" y="-84" font-family="Helvetica,sans-Serif" font-size="10.00">/external/hf&#45;tle92466ed</text>
<text text-anchor="start" x="692.5" y="-73" font-family="Helvetica,sans-Serif" font-size="10.00">&#45;driver/inc/tle92466ed</text>
<text text-anchor="middle" x="750" y="-62" font-family="Helvetica,sans-Serif" font-size="10.00">_spi_interface.hpp</text>
</a>
</g>
</g>
<!-- Node2&#45;&gt;Node9 -->
<g id="edge8_Node000002_Node000009" class="edge">
<title>Node2&#45;&gt;Node9</title>
<g id="a_edge8_Node000002_Node000009"><a xlink:title=" ">
<path fill="none" stroke="#63b8ff" d="M613.13,-142.98C630.95,-135.04 658.59,-122.73 684.37,-111.24"/>
<polygon fill="#63b8ff" stroke="#63b8ff" points="686.05,-114.32 693.76,-107.05 683.2,-107.93 686.05,-114.32"/>
</a>
</g>
</g>
<!-- Node10 -->
<g id="Node000010" class="node">
<title>Node10</title>
<g id="a_Node000010"><a xlink:title=" ">
<polygon fill="#e0e0e0" stroke="#999999" points="924.5,-90.5 833.5,-90.5 833.5,-71.5 924.5,-71.5 924.5,-90.5"/>
<text text-anchor="middle" x="879" y="-78.5" font-family="Helvetica,sans-Serif" font-size="10.00">base/BaseSpi.h</text>
</a>
</g>
</g>
<!-- Node2&#45;&gt;Node10 -->
<g id="edge9_Node000002_Node000010" class="edge">
<title>Node2&#45;&gt;Node10</title>
<g id="a_edge9_Node000002_Node000010"><a xlink:title=" ">
<path fill="none" stroke="#63b8ff" d="M654.35,-143.98C701.56,-137.12 768.44,-125.24 825,-107 834.68,-103.88 844.89,-99.46 853.8,-95.21"/>
<polygon fill="#63b8ff" stroke="#63b8ff" points="855.46,-98.3 862.87,-90.73 852.36,-92.02 855.46,-98.3"/>
</a>
</g>
</g>
<!-- Node11 -->
<g id="Node000011" class="node">
<title>Node11</title>
<g id="a_Node000011"><a xlink:title=" ">
<polygon fill="#e0e0e0" stroke="#999999" points="1079,-90.5 981,-90.5 981,-71.5 1079,-71.5 1079,-90.5"/>
<text text-anchor="middle" x="1030" y="-78.5" font-family="Helvetica,sans-Serif" font-size="10.00">base/BaseGpio.h</text>
</a>
</g>
</g>
<!-- Node2&#45;&gt;Node11 -->
<g id="edge10_Node000002_Node000011" class="edge">
<title>Node2&#45;&gt;Node11</title>
<g id="a_edge10_Node000002_Node000011"><a xlink:title=" ">
<path fill="none" stroke="#63b8ff" d="M654.3,-149.1C728.79,-145.05 858.9,-134.4 967,-107 978.96,-103.97 991.7,-99.22 1002.57,-94.68"/>
<polygon fill="#63b8ff" stroke="#63b8ff" points="1004.16,-97.8 1011.95,-90.62 1001.38,-91.38 1004.16,-97.8"/>
</a>
</g>
</g>
<!-- Node12 -->
<g id="Node000012" class="node">
<title>Node12</title>
<g id="a_Node000012"><a xlink:title=" ">
<polygon fill="#e0e0e0" stroke="#999999" points="1230.5,-107 1097.5,-107 1097.5,-55 1230.5,-55 1230.5,-107"/>
<text text-anchor="start" x="1105.5" y="-95" font-family="Helvetica,sans-Serif" font-size="10.00">core/hf&#45;core&#45;drivers</text>
<text text-anchor="start" x="1105.5" y="-84" font-family="Helvetica,sans-Serif" font-size="10.00">/internal/hf&#45;internal</text>
<text text-anchor="start" x="1105.5" y="-73" font-family="Helvetica,sans-Serif" font-size="10.00">&#45;interface&#45;wrap/inc/utils</text>
<text text-anchor="middle" x="1164" y="-62" font-family="Helvetica,sans-Serif" font-size="10.00">/RtosMutex.h</text>
</a>
</g>
</g>
<!-- Node2&#45;&gt;Node12 -->
<g id="edge11_Node000002_Node000012" class="edge">
<title>Node2&#45;&gt;Node12</title>
<g id="a_edge11_Node000002_Node000012"><a xlink:title=" ">
<path fill="none" stroke="#63b8ff" d="M654.34,-150.48C746.14,-147.96 926.31,-139.22 1087.02,-106.98"/>
<polygon fill="#63b8ff" stroke="#63b8ff" points="1087.99,-110.36 1097.09,-104.93 1086.59,-103.5 1087.99,-110.36"/>
</a>
</g>
</g>
<!-- Node13&#45;&gt;Node4 -->
<g id="edge16_Node000013_Node000004" class="edge">
<title>Node13&#45;&gt;Node4</title>
<g id="a_edge16_Node000013_Node000004"><a xlink:title=" ">
<path fill="none" stroke="#63b8ff" d="M134.01,-71.43C141.35,-66.6 150.68,-60.46 159,-55 174.53,-44.81 192.06,-33.34 205.44,-24.59"/>
<polygon fill="#63b8ff" stroke="#63b8ff" points="207.5,-27.42 213.96,-19.02 203.67,-21.56 207.5,-27.42"/>
</a>
</g>
</g>
<!-- Node13&#45;&gt;Node5 -->
<g id="edge13_Node000013_Node000005" class="edge">
<title>Node13&#45;&gt;Node5</title>
<g id="a_edge13_Node000013_Node000005"><a xlink:title=" ">
<path fill="none" stroke="#63b8ff" d="M132.15,-71.47C139.48,-66.17 149.44,-59.53 159,-55 177.75,-46.11 228.88,-30.85 264.38,-20.72"/>
<polygon fill="#63b8ff" stroke="#63b8ff" points="265.72,-23.98 274.38,-17.88 263.81,-17.25 265.72,-23.98"/>
</a>
</g>
</g>
<!-- Node14 -->
<g id="Node000014" class="node">
<title>Node14</title>
<g id="a_Node000014"><a xlink:title=" ">
<polygon fill="#e0e0e0" stroke="#999999" points="180,-19 130,-19 130,0 180,0 180,-19"/>
<text text-anchor="middle" x="155" y="-7" font-family="Helvetica,sans-Serif" font-size="10.00">cstring</text>
</a>
</g>
</g>
<!-- Node13&#45;&gt;Node14 -->
<g id="edge14_Node000013_Node000014" class="edge">
<title>Node13&#45;&gt;Node14</title>
<g id="a_edge14_Node000013_Node000014"><a xlink:title=" ">
<path fill="none" stroke="#63b8ff" d="M125.17,-71.48C130.42,-60.74 139.58,-42.03 146.36,-28.16"/>
<polygon fill="#63b8ff" stroke="#63b8ff" points="149.55,-29.61 150.8,-19.09 143.26,-26.54 149.55,-29.61"/>
</a>
</g>
</g>
<!-- Node15 -->
<g id="Node000015" class="node">
<title>Node15</title>
<g id="a_Node000015"><a xlink:title=" ">
<polygon fill="#e0e0e0" stroke="#999999" points="44,-19 0,-19 0,0 44,0 44,-19"/>
<text text-anchor="middle" x="22" y="-7" font-family="Helvetica,sans-Serif" font-size="10.00">string</text>
</a>
</g>
</g>
<!-- Node13&#45;&gt;Node15 -->
<g id="edge15_Node000013_Node000015" class="edge">
<title>Node13&#45;&gt;Node15</title>
<g id="a_edge15_Node000013_Node000015"><a xlink:title=" ">
<path fill="none" stroke="#63b8ff" d="M108.86,-71.48C92.38,-59.91 62.7,-39.07 42.68,-25.02"/>
<polygon fill="#63b8ff" stroke="#63b8ff" points="44.43,-21.97 34.24,-19.09 40.41,-27.7 44.43,-21.97"/>
</a>
</g>
</g>
<!-- Node16 -->
<g id="Node000016" class="node">
<title>Node16</title>
<g id="a_Node000016"><a xlink:title=" ">
<polygon fill="#e0e0e0" stroke="#999999" points="112,-19 62,-19 62,0 112,0 112,-19"/>
<text text-anchor="middle" x="87" y="-7" font-family="Helvetica,sans-Serif" font-size="10.00">atomic</text>
</a>
</g>
</g>
<!-- Node13&#45;&gt;Node16 -->
<g id="edge17_Node000013_Node000016" class="edge">
<title>Node13&#45;&gt;Node16</title>
<g id="a_edge17_Node000013_Node000016"><a xlink:title=" ">
<path fill="none" stroke="#63b8ff" d="M116.83,-71.48C111.58,-60.74 102.42,-42.03 95.64,-28.16"/>
<polygon fill="#63b8ff" stroke="#63b8ff" points="98.74,-26.54 91.2,-19.09 92.45,-29.61 98.74,-26.54"/>
</a>
</g>
</g>
<!-- Node17&#45;&gt;Node3 -->
<g id="edge20_Node000017_Node000003" class="edge">
<title>Node17&#45;&gt;Node3</title>
<g id="a_edge20_Node000017_Node000003"><a xlink:title=" ">
<path fill="none" stroke="#63b8ff" d="M239.73,-142.98C249.83,-131.83 267.75,-112.06 280.44,-98.06"/>
<polygon fill="#63b8ff" stroke="#63b8ff" points="283.09,-100.35 287.21,-90.59 277.9,-95.65 283.09,-100.35"/>
</a>
</g>
</g>
<!-- Node17&#45;&gt;Node5 -->
<g id="edge19_Node000017_Node000005" class="edge">
<title>Node17&#45;&gt;Node5</title>
<g id="a_edge19_Node000017_Node000005"><a xlink:title=" ">
<path fill="none" stroke="#63b8ff" d="M233.31,-142.74C236.21,-125.16 244.29,-84.74 261,-55 266.96,-44.4 275.82,-34.2 283.7,-26.24"/>
<polygon fill="#63b8ff" stroke="#63b8ff" points="286.33,-28.56 291.09,-19.1 281.47,-23.53 286.33,-28.56"/>
</a>
</g>
</g>
<!-- Node17&#45;&gt;Node13 -->
<g id="edge22_Node000017_Node000013" class="edge">
<title>Node17&#45;&gt;Node13</title>
<g id="a_edge22_Node000017_Node000013"><a xlink:title=" ">
<path fill="none" stroke="#63b8ff" d="M217.64,-142.95C202.86,-134.09 179.19,-119.79 159,-107 153.62,-103.59 147.85,-99.84 142.48,-96.31"/>
<polygon fill="#63b8ff" stroke="#63b8ff" points="144.21,-93.27 133.94,-90.67 140.36,-99.11 144.21,-93.27"/>
</a>
</g>
</g>
<!-- Node18 -->
<g id="Node000018" class="node">
<title>Node18</title>
<g id="a_Node000018"><a xlink:title=" ">
<polygon fill="#e0e0e0" stroke="#999999" points="214,-90.5 168,-90.5 168,-71.5 214,-71.5 214,-90.5"/>
<text text-anchor="middle" x="191" y="-78.5" font-family="Helvetica,sans-Serif" font-size="10.00">cstdio</text>
</a>
</g>
</g>
<!-- Node17&#45;&gt;Node18 -->
<g id="edge21_Node000017_Node000018" class="edge">
<title>Node17&#45;&gt;Node18</title>
<g id="a_edge21_Node000017_Node000018"><a xlink:title=" ">
<path fill="none" stroke="#63b8ff" d="M226.97,-142.98C220.58,-132.14 209.38,-113.16 201.18,-99.25"/>
<polygon fill="#63b8ff" stroke="#63b8ff" points="204.16,-97.43 196.07,-90.59 198.14,-100.98 204.16,-97.43"/>
</a>
</g>
</g>
</g>
</svg>
