<?xml version="1.0" encoding="UTF-8" standalone="no"?>
<!DOCTYPE svg PUBLIC "-//W3C//DTD SVG 1.1//EN"
 "http://www.w3.org/Graphics/SVG/1.1/DTD/svg11.dtd">
<!-- Generated by graphviz version 2.43.0 (0)
 -->
<!-- Title: toChannel Pages: 1 -->
<svg width="241pt" height="326pt"
 viewBox="0.00 0.00 241.00 326.00" xmlns="http://www.w3.org/2000/svg" xmlns:xlink="http://www.w3.org/1999/xlink">
<g id="graph0" class="graph" transform="scale(1 1) rotate(0) translate(4 322)">
<title>toChannel</title>
<!-- Node1 -->
<g id="Node000001" class="node">
<title>Node1</title>
<g id="a_Node000001"><a xlink:title=" ">
<polygon fill="#999999" stroke="#666666" points="233,-168.5 167,-168.5 167,-149.5 233,-149.5 233,-168.5"/>
<text text-anchor="middle" x="200" y="-156.5" font-family="Helvetica,sans-Serif" font-size="10.00">toChannel</text>
</a>
</g>
</g>
<!-- Node2 -->
<g id="Node000002" class="node">
<title>Node2</title>
<g id="a_Node000002"><a xlink:href="classTle92466edHandler.html#a1e2b512ab7612d76de3dff2e9d2ffdb9" target="_top" xlink:title="Configure a channel.">
<polygon fill="white" stroke="#666666" points="124.5,-318 6.5,-318 6.5,-288 124.5,-288 124.5,-318"/>
<text text-anchor="start" x="14.5" y="-306" font-family="Helvetica,sans-Serif" font-size="10.00">Tle92466edHandler::</text>
<text text-anchor="middle" x="65.5" y="-295" font-family="Helvetica,sans-Serif" font-size="10.00">ConfigureChannel</text>
</a>
</g>
</g>
<!-- Node1&#45;&gt;Node2 -->
<g id="edge1_Node000001_Node000002" class="edge">
<title>Node1&#45;&gt;Node2</title>
<g id="a_edge1_Node000001_Node000002"><a xlink:title=" ">
<path fill="none" stroke="#63b8ff" d="M192.87,-178.14C183.54,-204.38 163.36,-251.43 131,-279 127,-282.41 122.47,-285.36 117.71,-287.9"/>
<polygon fill="#63b8ff" stroke="#63b8ff" points="196.22,-179.17 196.11,-168.58 189.59,-176.92 196.22,-179.17"/>
</a>
</g>
</g>
<!-- Node3 -->
<g id="Node000003" class="node">
<title>Node3</title>
<g id="a_Node000003"><a xlink:href="classTle92466edHandler.html#aa20087457d9c12f935721357035ffbd3" target="_top" xlink:title="Configure raw PWM period for a channel.">
<polygon fill="white" stroke="#666666" points="124.5,-270 6.5,-270 6.5,-240 124.5,-240 124.5,-270"/>
<text text-anchor="start" x="14.5" y="-258" font-family="Helvetica,sans-Serif" font-size="10.00">Tle92466edHandler::</text>
<text text-anchor="middle" x="65.5" y="-247" font-family="Helvetica,sans-Serif" font-size="10.00">ConfigurePwmRaw</text>
</a>
</g>
</g>
<!-- Node1&#45;&gt;Node3 -->
<g id="edge2_Node000001_Node000003" class="edge">
<title>Node1&#45;&gt;Node3</title>
<g id="a_edge2_Node000001_Node000003"><a xlink:title=" ">
<path fill="none" stroke="#63b8ff" d="M186.03,-176.83C173.52,-192.92 153.25,-216.26 131,-231 125.92,-234.37 120.3,-237.34 114.57,-239.95"/>
<polygon fill="#63b8ff" stroke="#63b8ff" points="188.91,-178.82 192.15,-168.74 183.33,-174.6 188.91,-178.82"/>
</a>
</g>
</g>
<!-- Node4 -->
<g id="Node000004" class="node">
<title>Node4</title>
<g id="a_Node000004"><a xlink:href="classTle92466edHandler.html#aca309d58a9703e9ac74fda1a2dd0a603" target="_top" xlink:title="Disable a channel.">
<polygon fill="white" stroke="#666666" points="124.5,-222 6.5,-222 6.5,-192 124.5,-192 124.5,-222"/>
<text text-anchor="start" x="14.5" y="-210" font-family="Helvetica,sans-Serif" font-size="10.00">Tle92466edHandler::</text>
<text text-anchor="middle" x="65.5" y="-199" font-family="Helvetica,sans-Serif" font-size="10.00">DisableChannel</text>
</a>
</g>
</g>
<!-- Node1&#45;&gt;Node4 -->
<g id="edge3_Node000001_Node000004" class="edge">
<title>Node1&#45;&gt;Node4</title>
<g id="a_edge3_Node000001_Node000004"><a xlink:title=" ">
<path fill="none" stroke="#63b8ff" d="M162.96,-172.06C146,-178.2 125.68,-185.56 108.08,-191.94"/>
<polygon fill="#63b8ff" stroke="#63b8ff" points="164.3,-175.29 172.51,-168.6 161.91,-168.71 164.3,-175.29"/>
</a>
</g>
</g>
<!-- Node5 -->
<g id="Node000005" class="node">
<title>Node5</title>
<g id="a_Node000005"><a xlink:href="classTle92466edHandler.html#afcec01ba90f6596dcde99387ef41b6e4" target="_top" xlink:title="Dump diagnostics to logger.">
<polygon fill="white" stroke="#666666" points="124.5,-174 6.5,-174 6.5,-144 124.5,-144 124.5,-174"/>
<text text-anchor="start" x="14.5" y="-162" font-family="Helvetica,sans-Serif" font-size="10.00">Tle92466edHandler::</text>
<text text-anchor="middle" x="65.5" y="-151" font-family="Helvetica,sans-Serif" font-size="10.00">DumpDiagnostics</text>
</a>
</g>
</g>
<!-- Node1&#45;&gt;Node5 -->
<g id="edge4_Node000001_Node000005" class="edge">
<title>Node1&#45;&gt;Node5</title>
<g id="a_edge4_Node000001_Node000005"><a xlink:title=" ">
<path fill="none" stroke="#63b8ff" d="M156.68,-159C146.5,-159 135.45,-159 124.68,-159"/>
<polygon fill="#63b8ff" stroke="#63b8ff" points="156.93,-162.5 166.93,-159 156.93,-155.5 156.93,-162.5"/>
</a>
</g>
</g>
<!-- Node6 -->
<g id="Node000006" class="node">
<title>Node6</title>
<g id="a_Node000006"><a xlink:href="classTle92466edHandler.html#a74163648a3e412ca1b99f5cd1ea2b6e8" target="_top" xlink:title="Enable a channel.">
<polygon fill="white" stroke="#666666" points="124.5,-126 6.5,-126 6.5,-96 124.5,-96 124.5,-126"/>
<text text-anchor="start" x="14.5" y="-114" font-family="Helvetica,sans-Serif" font-size="10.00">Tle92466edHandler::</text>
<text text-anchor="middle" x="65.5" y="-103" font-family="Helvetica,sans-Serif" font-size="10.00">EnableChannel</text>
</a>
</g>
</g>
<!-- Node1&#45;&gt;Node6 -->
<g id="edge5_Node000001_Node000006" class="edge">
<title>Node1&#45;&gt;Node6</title>
<g id="a_edge5_Node000001_Node000006"><a xlink:title=" ">
<path fill="none" stroke="#63b8ff" d="M162.96,-145.94C146,-139.8 125.68,-132.44 108.08,-126.06"/>
<polygon fill="#63b8ff" stroke="#63b8ff" points="161.91,-149.29 172.51,-149.4 164.3,-142.71 161.91,-149.29"/>
</a>
</g>
</g>
<!-- Node7 -->
<g id="Node000007" class="node">
<title>Node7</title>
<g id="a_Node000007"><a xlink:href="classTle92466edHandler.html#a9d7006a957958c32ddd4f0f5b1aea301" target="_top" xlink:title="Get channel diagnostics.">
<polygon fill="white" stroke="#666666" points="131,-78 0,-78 0,-48 131,-48 131,-78"/>
<text text-anchor="start" x="8" y="-66" font-family="Helvetica,sans-Serif" font-size="10.00">Tle92466edHandler::</text>
<text text-anchor="middle" x="65.5" y="-55" font-family="Helvetica,sans-Serif" font-size="10.00">GetChannelDiagnostics</text>
</a>
</g>
</g>
<!-- Node1&#45;&gt;Node7 -->
<g id="edge6_Node000001_Node000007" class="edge">
<title>Node1&#45;&gt;Node7</title>
<g id="a_edge6_Node000001_Node000007"><a xlink:title=" ">
<path fill="none" stroke="#63b8ff" d="M186.03,-141.17C173.52,-125.08 153.25,-101.74 131,-87 125.92,-83.63 120.3,-80.66 114.57,-78.05"/>
<polygon fill="#63b8ff" stroke="#63b8ff" points="183.33,-143.4 192.15,-149.26 188.91,-139.18 183.33,-143.4"/>
</a>
</g>
</g>
<!-- Node8 -->
<g id="Node000008" class="node">
<title>Node8</title>
<g id="a_Node000008"><a xlink:href="classTle92466edHandler.html#ac4f2233b64443a4919fdbe1806063fac" target="_top" xlink:title="Set channel current setpoint.">
<polygon fill="white" stroke="#666666" points="124.5,-30 6.5,-30 6.5,0 124.5,0 124.5,-30"/>
<text text-anchor="start" x="14.5" y="-18" font-family="Helvetica,sans-Serif" font-size="10.00">Tle92466edHandler::</text>
<text text-anchor="middle" x="65.5" y="-7" font-family="Helvetica,sans-Serif" font-size="10.00">SetChannelCurrent</text>
</a>
</g>
</g>
<!-- Node1&#45;&gt;Node8 -->
<g id="edge7_Node000001_Node000008" class="edge">
<title>Node1&#45;&gt;Node8</title>
<g id="a_edge7_Node000001_Node000008"><a xlink:title=" ">
<path fill="none" stroke="#63b8ff" d="M192.87,-139.86C183.54,-113.62 163.36,-66.57 131,-39 127,-35.59 122.47,-32.64 117.71,-30.1"/>
<polygon fill="#63b8ff" stroke="#63b8ff" points="189.59,-141.08 196.11,-149.42 196.22,-138.83 189.59,-141.08"/>
</a>
</g>
</g>
</g>
</svg>
