<?xml version="1.0" encoding="UTF-8" standalone="no"?>
<!DOCTYPE svg PUBLIC "-//W3C//DTD SVG 1.1//EN"
 "http://www.w3.org/Graphics/SVG/1.1/DTD/svg11.dtd">
<!-- Generated by graphviz version 2.43.0 (0)
 -->
<!-- Title: Tle92466edHandler.cpp Pages: 1 -->
<svg width="1155pt" height="225pt"
 viewBox="0.00 0.00 1155.00 225.00" xmlns="http://www.w3.org/2000/svg" xmlns:xlink="http://www.w3.org/1999/xlink">
<g id="graph0" class="graph" transform="scale(1 1) rotate(0) translate(4 221)">
<title>Tle92466edHandler.cpp</title>
<!-- Node1 -->
<g id="Node000001" class="node">
<title>Node1</title>
<g id="a_Node000001"><a xlink:title="Implementation of TLE92466ED handler with SPI communication adapter.">
<polygon fill="#999999" stroke="#666666" points="269.5,-217 138.5,-217 138.5,-198 269.5,-198 269.5,-217"/>
<text text-anchor="middle" x="204" y="-205" font-family="Helvetica,sans-Serif" font-size="10.00">Tle92466edHandler.cpp</text>
</a>
</g>
</g>
<!-- Node2 -->
<g id="Node000002" class="node">
<title>Node2</title>
<g id="a_Node000002"><a xlink:href="Tle92466edHandler_8h.html" target="_top" xlink:title="Unified handler for TLE92466ED six&#45;channel low&#45;side solenoid driver IC.">
<polygon fill="white" stroke="#666666" points="626,-162 506,-162 506,-143 626,-143 626,-162"/>
<text text-anchor="middle" x="566" y="-150" font-family="Helvetica,sans-Serif" font-size="10.00">Tle92466edHandler.h</text>
</a>
</g>
</g>
<!-- Node1&#45;&gt;Node2 -->
<g id="edge1_Node000001_Node000002" class="edge">
<title>Node1&#45;&gt;Node2</title>
<g id="a_edge1_Node000001_Node000002"><a xlink:title=" ">
<path fill="none" stroke="#63b8ff" d="M262.16,-197.98C326.32,-188.59 429.47,-173.49 497.49,-163.53"/>
<polygon fill="#63b8ff" stroke="#63b8ff" points="498.3,-166.95 507.68,-162.04 497.28,-160.02 498.3,-166.95"/>
</a>
</g>
</g>
<!-- Node13 -->
<g id="Node000013" class="node">
<title>Node13</title>
<g id="a_Node000013"><a xlink:href="Logger_8h.html" target="_top" xlink:title="Advanced logging system with formatting capabilities.">
<polygon fill="white" stroke="#666666" points="122,-90.5 64,-90.5 64,-71.5 122,-71.5 122,-90.5"/>
<text text-anchor="middle" x="93" y="-78.5" font-family="Helvetica,sans-Serif" font-size="10.00">Logger.h</text>
</a>
</g>
</g>
<!-- Node1&#45;&gt;Node13 -->
<g id="edge12_Node000001_Node000013" class="edge">
<title>Node1&#45;&gt;Node13</title>
<g id="a_edge12_Node000001_Node000013"><a xlink:title=" ">
<path fill="none" stroke="#63b8ff" d="M188.38,-197.98C174.72,-189.98 154.94,-177.02 141,-162 123.66,-143.32 109.51,-117.38 101.17,-100.16"/>
<polygon fill="#63b8ff" stroke="#63b8ff" points="104.16,-98.29 96.75,-90.71 97.81,-101.25 104.16,-98.29"/>
</a>
</g>
</g>
<!-- Node16 -->
<g id="Node000016" class="node">
<title>Node16</title>
<g id="a_Node000016"><a xlink:href="HandlerCommon_8h.html" target="_top" xlink:title="Shared utility functions for handler CRTP communication adapters.">
<polygon fill="white" stroke="#666666" points="258,-162 150,-162 150,-143 258,-143 258,-162"/>
<text text-anchor="middle" x="204" y="-150" font-family="Helvetica,sans-Serif" font-size="10.00">HandlerCommon.h</text>
</a>
</g>
</g>
<!-- Node1&#45;&gt;Node16 -->
<g id="edge17_Node000001_Node000016" class="edge">
<title>Node1&#45;&gt;Node16</title>
<g id="a_edge17_Node000001_Node000016"><a xlink:title=" ">
<path fill="none" stroke="#63b8ff" d="M204,-197.75C204,-190.8 204,-180.85 204,-172.13"/>
<polygon fill="#63b8ff" stroke="#63b8ff" points="207.5,-172.09 204,-162.09 200.5,-172.09 207.5,-172.09"/>
</a>
</g>
</g>
<!-- Node3 -->
<g id="Node000003" class="node">
<title>Node3</title>
<g id="a_Node000003"><a xlink:title=" ">
<polygon fill="#e0e0e0" stroke="#999999" points="292,-90.5 242,-90.5 242,-71.5 292,-71.5 292,-90.5"/>
<text text-anchor="middle" x="267" y="-78.5" font-family="Helvetica,sans-Serif" font-size="10.00">cstdint</text>
</a>
</g>
</g>
<!-- Node2&#45;&gt;Node3 -->
<g id="edge2_Node000002_Node000003" class="edge">
<title>Node2&#45;&gt;Node3</title>
<g id="a_edge2_Node000002_Node000003"><a xlink:title=" ">
<path fill="none" stroke="#63b8ff" d="M505.86,-148.03C451.96,-143.34 371.54,-132.41 306,-107 299.31,-104.41 292.54,-100.58 286.57,-96.7"/>
<polygon fill="#63b8ff" stroke="#63b8ff" points="288.16,-93.55 277.95,-90.72 284.17,-99.3 288.16,-93.55"/>
</a>
</g>
</g>
<!-- Node4 -->
<g id="Node000004" class="node">
<title>Node4</title>
<g id="a_Node000004"><a xlink:title=" ">
<polygon fill="#e0e0e0" stroke="#999999" points="194,-19 136,-19 136,0 194,0 194,-19"/>
<text text-anchor="middle" x="165" y="-7" font-family="Helvetica,sans-Serif" font-size="10.00">memory</text>
</a>
</g>
</g>
<!-- Node2&#45;&gt;Node4 -->
<g id="edge3_Node000002_Node000004" class="edge">
<title>Node2&#45;&gt;Node4</title>
<g id="a_edge3_Node000002_Node000004"><a xlink:title=" ">
<path fill="none" stroke="#63b8ff" d="M505.66,-151.46C457.18,-148.79 389.15,-138.91 339,-107 314.85,-91.63 324.16,-71.82 301,-55 285.31,-43.61 238.19,-29.56 203.8,-20.34"/>
<polygon fill="#63b8ff" stroke="#63b8ff" points="204.6,-16.93 194.04,-17.75 202.81,-23.69 204.6,-16.93"/>
</a>
</g>
</g>
<!-- Node5 -->
<g id="Node000005" class="node">
<title>Node5</title>
<g id="a_Node000005"><a xlink:title=" ">
<polygon fill="#e0e0e0" stroke="#999999" points="265.5,-19 212.5,-19 212.5,0 265.5,0 265.5,-19"/>
<text text-anchor="middle" x="239" y="-7" font-family="Helvetica,sans-Serif" font-size="10.00">cstdarg</text>
</a>
</g>
</g>
<!-- Node2&#45;&gt;Node5 -->
<g id="edge4_Node000002_Node000005" class="edge">
<title>Node2&#45;&gt;Node5</title>
<g id="a_edge4_Node000002_Node000005"><a xlink:title=" ">
<path fill="none" stroke="#63b8ff" d="M626.14,-147.88C718.82,-141.68 887.86,-127.67 906,-107 921.24,-89.63 921.79,-71.88 906,-55 862.77,-8.79 409.1,-9.02 275.7,-10.1"/>
<polygon fill="#63b8ff" stroke="#63b8ff" points="275.55,-6.6 265.58,-10.19 275.61,-13.6 275.55,-6.6"/>
</a>
</g>
</g>
<!-- Node6 -->
<g id="Node000006" class="node">
<title>Node6</title>
<g id="a_Node000006"><a xlink:title=" ">
<polygon fill="#e0e0e0" stroke="#999999" points="388,-90.5 348,-90.5 348,-71.5 388,-71.5 388,-90.5"/>
<text text-anchor="middle" x="368" y="-78.5" font-family="Helvetica,sans-Serif" font-size="10.00">span</text>
</a>
</g>
</g>
<!-- Node2&#45;&gt;Node6 -->
<g id="edge5_Node000002_Node000006" class="edge">
<title>Node2&#45;&gt;Node6</title>
<g id="a_edge5_Node000002_Node000006"><a xlink:title=" ">
<path fill="none" stroke="#63b8ff" d="M509.68,-142.93C475.96,-136.28 432.98,-125.07 398,-107 393.01,-104.42 388.1,-100.89 383.75,-97.3"/>
<polygon fill="#63b8ff" stroke="#63b8ff" points="385.98,-94.6 376.2,-90.54 381.32,-99.81 385.98,-94.6"/>
</a>
</g>
</g>
<!-- Node7 -->
<g id="Node000007" class="node">
<title>Node7</title>
<g id="a_Node000007"><a xlink:title=" ">
<polygon fill="#e0e0e0" stroke="#999999" points="475.5,-90.5 406.5,-90.5 406.5,-71.5 475.5,-71.5 475.5,-90.5"/>
<text text-anchor="middle" x="441" y="-78.5" font-family="Helvetica,sans-Serif" font-size="10.00">type_traits</text>
</a>
</g>
</g>
<!-- Node2&#45;&gt;Node7 -->
<g id="edge6_Node000002_Node000007" class="edge">
<title>Node2&#45;&gt;Node7</title>
<g id="a_edge6_Node000002_Node000007"><a xlink:title=" ">
<path fill="none" stroke="#63b8ff" d="M550.13,-142.87C533.77,-133.95 507.55,-119.6 485,-107 478.51,-103.37 471.5,-99.41 465.02,-95.73"/>
<polygon fill="#63b8ff" stroke="#63b8ff" points="466.46,-92.52 456.04,-90.62 463,-98.61 466.46,-92.52"/>
</a>
</g>
</g>
<!-- Node8 -->
<g id="Node000008" class="node">
<title>Node8</title>
<g id="a_Node000008"><a xlink:title=" ">
<polygon fill="#e0e0e0" stroke="#999999" points="638.5,-101.5 493.5,-101.5 493.5,-60.5 638.5,-60.5 638.5,-101.5"/>
<text text-anchor="start" x="501.5" y="-89.5" font-family="Helvetica,sans-Serif" font-size="10.00">core/hf&#45;core&#45;drivers</text>
<text text-anchor="start" x="501.5" y="-78.5" font-family="Helvetica,sans-Serif" font-size="10.00">/external/hf&#45;tle92466ed</text>
<text text-anchor="middle" x="566" y="-67.5" font-family="Helvetica,sans-Serif" font-size="10.00">&#45;driver/inc/tle92466ed.hpp</text>
</a>
</g>
</g>
<!-- Node2&#45;&gt;Node8 -->
<g id="edge7_Node000002_Node000008" class="edge">
<title>Node2&#45;&gt;Node8</title>
<g id="a_edge7_Node000002_Node000008"><a xlink:title=" ">
<path fill="none" stroke="#63b8ff" d="M566,-142.98C566,-135.15 566,-123.08 566,-111.74"/>
<polygon fill="#63b8ff" stroke="#63b8ff" points="569.5,-111.67 566,-101.67 562.5,-111.67 569.5,-111.67"/>
</a>
</g>
</g>
<!-- Node9 -->
<g id="Node000009" class="node">
<title>Node9</title>
<g id="a_Node000009"><a xlink:title=" ">
<polygon fill="#e0e0e0" stroke="#999999" points="787.5,-107 656.5,-107 656.5,-55 787.5,-55 787.5,-107"/>
<text text-anchor="start" x="664.5" y="-95" font-family="Helvetica,sans-Serif" font-size="10.00">core/hf&#45;core&#45;drivers</text>
<text text-anchor="start" x="664.5" y="-84" font-family="Helvetica,sans-Serif" font-size="10.00">/external/hf&#45;tle92466ed</text>
<text text-anchor="start" x="664.5" y="-73" font-family="Helvetica,sans-Serif" font-size="10.00">&#45;driver/inc/tle92466ed</text>
<text text-anchor="middle" x="722" y="-62" font-family="Helvetica,sans-Serif" font-size="10.00">_spi_interface.hpp</text>
</a>
</g>
</g>
<!-- Node2&#45;&gt;Node9 -->
<g id="edge8_Node000002_Node000009" class="edge">
<title>Node2&#45;&gt;Node9</title>
<g id="a_edge8_Node000002_Node000009"><a xlink:title=" ">
<path fill="none" stroke="#63b8ff" d="M585.13,-142.98C602.95,-135.04 630.59,-122.73 656.37,-111.24"/>
<polygon fill="#63b8ff" stroke="#63b8ff" points="658.05,-114.32 665.76,-107.05 655.2,-107.93 658.05,-114.32"/>
</a>
</g>
</g>
<!-- Node10 -->
<g id="Node000010" class="node">
<title>Node10</title>
<g id="a_Node000010"><a xlink:title=" ">
<polygon fill="#e0e0e0" stroke="#999999" points="896.5,-90.5 805.5,-90.5 805.5,-71.5 896.5,-71.5 896.5,-90.5"/>
<text text-anchor="middle" x="851" y="-78.5" font-family="Helvetica,sans-Serif" font-size="10.00">base/BaseSpi.h</text>
</a>
</g>
</g>
<!-- Node2&#45;&gt;Node10 -->
<g id="edge9_Node000002_Node000010" class="edge">
<title>Node2&#45;&gt;Node10</title>
<g id="a_edge9_Node000002_Node000010"><a xlink:title=" ">
<path fill="none" stroke="#63b8ff" d="M626.35,-143.98C673.56,-137.12 740.44,-125.24 797,-107 806.68,-103.88 816.89,-99.46 825.8,-95.21"/>
<polygon fill="#63b8ff" stroke="#63b8ff" points="827.46,-98.3 834.87,-90.73 824.36,-92.02 827.46,-98.3"/>
</a>
</g>
</g>
<!-- Node11 -->
<g id="Node000011" class="node">
<title>Node11</title>
<g id="a_Node000011"><a xlink:title=" ">
<polygon fill="#e0e0e0" stroke="#999999" points="1051,-90.5 953,-90.5 953,-71.5 1051,-71.5 1051,-90.5"/>
<text text-anchor="middle" x="1002" y="-78.5" font-family="Helvetica,sans-Serif" font-size="10.00">base/BaseGpio.h</text>
</a>
</g>
</g>
<!-- Node2&#45;&gt;Node11 -->
<g id="edge10_Node000002_Node000011" class="edge">
<title>Node2&#45;&gt;Node11</title>
<g id="a_edge10_Node000002_Node000011"><a xlink:title=" ">
<path fill="none" stroke="#63b8ff" d="M626.3,-149.1C700.79,-145.05 830.9,-134.4 939,-107 950.96,-103.97 963.7,-99.22 974.57,-94.68"/>
<polygon fill="#63b8ff" stroke="#63b8ff" points="976.16,-97.8 983.95,-90.62 973.38,-91.38 976.16,-97.8"/>
</a>
</g>
</g>
<!-- Node12 -->
<g id="Node000012" class="node">
<title>Node12</title>
<g id="a_Node000012"><a xlink:title=" ">
<polygon fill="#e0e0e0" stroke="#999999" points="1147,-90.5 1069,-90.5 1069,-71.5 1147,-71.5 1147,-90.5"/>
<text text-anchor="middle" x="1108" y="-78.5" font-family="Helvetica,sans-Serif" font-size="10.00">RtosMutex.h</text>
</a>
</g>
</g>
<!-- Node2&#45;&gt;Node12 -->
<g id="edge11_Node000002_Node000012" class="edge">
<title>Node2&#45;&gt;Node12</title>
<g id="a_edge11_Node000002_Node000012"><a xlink:title=" ">
<path fill="none" stroke="#63b8ff" d="M626.1,-149.01C739.35,-143.83 980.15,-130.39 1060,-107 1068.85,-104.41 1077.96,-100.13 1085.84,-95.84"/>
<polygon fill="#63b8ff" stroke="#63b8ff" points="1087.82,-98.74 1094.74,-90.71 1084.33,-92.67 1087.82,-98.74"/>
</a>
</g>
</g>
<!-- Node13&#45;&gt;Node4 -->
<g id="edge15_Node000013_Node000004" class="edge">
<title>Node13&#45;&gt;Node4</title>
<g id="a_edge15_Node000013_Node000004"><a xlink:title=" ">
<path fill="none" stroke="#63b8ff" d="M101.83,-71.48C113.49,-60.22 134.24,-40.19 148.77,-26.17"/>
<polygon fill="#63b8ff" stroke="#63b8ff" points="151.34,-28.56 156.1,-19.09 146.47,-23.52 151.34,-28.56"/>
</a>
</g>
</g>
<!-- Node13&#45;&gt;Node5 -->
<g id="edge13_Node000013_Node000005" class="edge">
<title>Node13&#45;&gt;Node5</title>
<g id="a_edge13_Node000013_Node000005"><a xlink:title=" ">
<path fill="none" stroke="#63b8ff" d="M104.96,-71.28C112.27,-66.17 121.92,-59.8 131,-55 154.94,-42.34 183.29,-30.78 204.94,-22.62"/>
<polygon fill="#63b8ff" stroke="#63b8ff" points="206.22,-25.87 214.38,-19.11 203.78,-19.31 206.22,-25.87"/>
</a>
</g>
</g>
<!-- Node14 -->
<g id="Node000014" class="node">
<title>Node14</title>
<g id="a_Node000014"><a xlink:title=" ">
<polygon fill="#e0e0e0" stroke="#999999" points="50,-19 0,-19 0,0 50,0 50,-19"/>
<text text-anchor="middle" x="25" y="-7" font-family="Helvetica,sans-Serif" font-size="10.00">cstring</text>
</a>
</g>
</g>
<!-- Node13&#45;&gt;Node14 -->
<g id="edge14_Node000013_Node000014" class="edge">
<title>Node13&#45;&gt;Node14</title>
<g id="a_edge14_Node000013_Node000014"><a xlink:title=" ">
<path fill="none" stroke="#63b8ff" d="M84.66,-71.48C73.75,-60.33 54.41,-40.56 40.71,-26.56"/>
<polygon fill="#63b8ff" stroke="#63b8ff" points="42.9,-23.79 33.41,-19.09 37.9,-28.69 42.9,-23.79"/>
</a>
</g>
</g>
<!-- Node15 -->
<g id="Node000015" class="node">
<title>Node15</title>
<g id="a_Node000015"><a xlink:title=" ">
<polygon fill="#e0e0e0" stroke="#999999" points="118,-19 68,-19 68,0 118,0 118,-19"/>
<text text-anchor="middle" x="93" y="-7" font-family="Helvetica,sans-Serif" font-size="10.00">atomic</text>
</a>
</g>
</g>
<!-- Node13&#45;&gt;Node15 -->
<g id="edge16_Node000013_Node000015" class="edge">
<title>Node13&#45;&gt;Node15</title>
<g id="a_edge16_Node000013_Node000015"><a xlink:title=" ">
<path fill="none" stroke="#63b8ff" d="M93,-71.48C93,-61.06 93,-43.11 93,-29.38"/>
<polygon fill="#63b8ff" stroke="#63b8ff" points="96.5,-29.09 93,-19.09 89.5,-29.09 96.5,-29.09"/>
</a>
</g>
</g>
<!-- Node16&#45;&gt;Node3 -->
<g id="edge19_Node000016_Node000003" class="edge">
<title>Node16&#45;&gt;Node3</title>
<g id="a_edge19_Node000016_Node000003"><a xlink:title=" ">
<path fill="none" stroke="#63b8ff" d="M211.73,-142.98C221.83,-131.83 239.75,-112.06 252.44,-98.06"/>
<polygon fill="#63b8ff" stroke="#63b8ff" points="255.09,-100.35 259.21,-90.59 249.9,-95.65 255.09,-100.35"/>
</a>
</g>
</g>
<!-- Node16&#45;&gt;Node5 -->
<g id="edge18_Node000016_Node000005" class="edge">
<title>Node16&#45;&gt;Node5</title>
<g id="a_edge18_Node000016_Node000005"><a xlink:title=" ">
<path fill="none" stroke="#63b8ff" d="M206.19,-142.68C211.79,-120.13 226.72,-59.98 234.36,-29.2"/>
<polygon fill="#63b8ff" stroke="#63b8ff" points="237.8,-29.87 236.81,-19.32 231.01,-28.18 237.8,-29.87"/>
</a>
</g>
</g>
<!-- Node16&#45;&gt;Node13 -->
<g id="edge21_Node000016_Node000013" class="edge">
<title>Node16&#45;&gt;Node13</title>
<g id="a_edge21_Node000016_Node000013"><a xlink:title=" ">
<path fill="none" stroke="#63b8ff" d="M189.64,-142.95C174.86,-134.09 151.19,-119.79 131,-107 125.62,-103.59 119.85,-99.84 114.48,-96.31"/>
<polygon fill="#63b8ff" stroke="#63b8ff" points="116.21,-93.27 105.94,-90.67 112.36,-99.11 116.21,-93.27"/>
</a>
</g>
</g>
<!-- Node17 -->
<g id="Node000017" class="node">
<title>Node17</title>
<g id="a_Node000017"><a xlink:title=" ">
<polygon fill="#e0e0e0" stroke="#999999" points="186,-90.5 140,-90.5 140,-71.5 186,-71.5 186,-90.5"/>
<text text-anchor="middle" x="163" y="-78.5" font-family="Helvetica,sans-Serif" font-size="10.00">cstdio</text>
</a>
</g>
</g>
<!-- Node16&#45;&gt;Node17 -->
<g id="edge20_Node000016_Node000017" class="edge">
<title>Node16&#45;&gt;Node17</title>
<g id="a_edge20_Node000016_Node000017"><a xlink:title=" ">
<path fill="none" stroke="#63b8ff" d="M198.97,-142.98C192.58,-132.14 181.38,-113.16 173.18,-99.25"/>
<polygon fill="#63b8ff" stroke="#63b8ff" points="176.16,-97.43 168.07,-90.59 170.14,-100.98 176.16,-97.43"/>
</a>
</g>
</g>
</g>
</svg>
