<?xml version="1.0" encoding="UTF-8" standalone="no"?>
<!DOCTYPE svg PUBLIC "-//W3C//DTD SVG 1.1//EN"
 "http://www.w3.org/Graphics/SVG/1.1/DTD/svg11.dtd">
<!-- Generated by graphviz version 2.43.0 (0)
 -->
<!-- Title: Tmc9660AdcWrapper.cpp Pages: 1 -->
<svg width="1558pt" height="170pt"
 viewBox="0.00 0.00 1557.50 170.00" xmlns="http://www.w3.org/2000/svg" xmlns:xlink="http://www.w3.org/1999/xlink">
<g id="graph0" class="graph" transform="scale(1 1) rotate(0) translate(4 166)">
<title>Tmc9660AdcWrapper.cpp</title>
<!-- Node1 -->
<g id="Node000001" class="node">
<title>Node1</title>
<g id="a_Node000001"><a xlink:title="Implementation of the TMC9660 ADC delegation wrapper.">
<polygon fill="#999999" stroke="#666666" points="397,-162 257,-162 257,-143 397,-143 397,-162"/>
<text text-anchor="middle" x="327" y="-150" font-family="Helvetica,sans-Serif" font-size="10.00">Tmc9660AdcWrapper.cpp</text>
</a>
</g>
</g>
<!-- Node2 -->
<g id="Node000002" class="node">
<title>Node2</title>
<g id="a_Node000002"><a xlink:href="Tmc9660AdcWrapper_8h.html" target="_top" xlink:title="Thin BaseAdc delegation wrapper for manager&#45;layer ownership of TMC9660 ADC.">
<polygon fill="white" stroke="#666666" points="323.5,-107 194.5,-107 194.5,-88 323.5,-88 323.5,-107"/>
<text text-anchor="middle" x="259" y="-95" font-family="Helvetica,sans-Serif" font-size="10.00">Tmc9660AdcWrapper.h</text>
</a>
</g>
</g>
<!-- Node1&#45;&gt;Node2 -->
<g id="edge1_Node000001_Node000002" class="edge">
<title>Node1&#45;&gt;Node2</title>
<g id="a_edge1_Node000001_Node000002"><a xlink:title=" ">
<path fill="none" stroke="#63b8ff" d="M316.07,-142.98C305.92,-135.07 290.58,-123.11 278.35,-113.58"/>
<polygon fill="#63b8ff" stroke="#63b8ff" points="280.16,-110.56 270.12,-107.17 275.86,-116.08 280.16,-110.56"/>
</a>
</g>
</g>
<!-- Node4 -->
<g id="Node000004" class="node">
<title>Node4</title>
<g id="a_Node000004"><a xlink:href="Tmc9660Handler_8h.html" target="_top" xlink:title="Unified handler for TMC9660 motor controller with GPIO, ADC, and temperature integration.">
<polygon fill="white" stroke="#666666" points="606,-107 498,-107 498,-88 606,-88 606,-107"/>
<text text-anchor="middle" x="552" y="-95" font-family="Helvetica,sans-Serif" font-size="10.00">Tmc9660Handler.h</text>
</a>
</g>
</g>
<!-- Node1&#45;&gt;Node4 -->
<g id="edge3_Node000001_Node000004" class="edge">
<title>Node1&#45;&gt;Node4</title>
<g id="a_edge3_Node000001_Node000004"><a xlink:title=" ">
<path fill="none" stroke="#63b8ff" d="M363.15,-142.98C401.91,-133.86 463.55,-119.33 505.8,-109.38"/>
<polygon fill="#63b8ff" stroke="#63b8ff" points="506.64,-112.78 515.57,-107.08 505.03,-105.97 506.64,-112.78"/>
</a>
</g>
</g>
<!-- Node3 -->
<g id="Node000003" class="node">
<title>Node3</title>
<g id="a_Node000003"><a xlink:title=" ">
<polygon fill="#e0e0e0" stroke="#999999" points="94,-35.5 0,-35.5 0,-16.5 94,-16.5 94,-35.5"/>
<text text-anchor="middle" x="47" y="-23.5" font-family="Helvetica,sans-Serif" font-size="10.00">base/BaseAdc.h</text>
</a>
</g>
</g>
<!-- Node2&#45;&gt;Node3 -->
<g id="edge2_Node000002_Node000003" class="edge">
<title>Node2&#45;&gt;Node3</title>
<g id="a_edge2_Node000002_Node000003"><a xlink:title=" ">
<path fill="none" stroke="#63b8ff" d="M223.85,-88C191.93,-79.92 143.76,-66.83 103,-52 93.2,-48.43 82.7,-43.94 73.47,-39.74"/>
<polygon fill="#63b8ff" stroke="#63b8ff" points="74.94,-36.57 64.39,-35.53 71.99,-42.92 74.94,-36.57"/>
</a>
</g>
</g>
<!-- Node4&#45;&gt;Node3 -->
<g id="edge13_Node000004_Node000003" class="edge">
<title>Node4&#45;&gt;Node3</title>
<g id="a_edge13_Node000004_Node000003"><a xlink:title=" ">
<path fill="none" stroke="#63b8ff" d="M497.88,-93.31C395.29,-86.91 176.25,-71.43 103,-52 92.46,-49.2 81.39,-44.64 71.9,-40.18"/>
<polygon fill="#63b8ff" stroke="#63b8ff" points="73.19,-36.91 62.67,-35.64 70.1,-43.19 73.19,-36.91"/>
</a>
</g>
</g>
<!-- Node5 -->
<g id="Node000005" class="node">
<title>Node5</title>
<g id="a_Node000005"><a xlink:title=" ">
<polygon fill="#e0e0e0" stroke="#999999" points="162,-35.5 112,-35.5 112,-16.5 162,-16.5 162,-35.5"/>
<text text-anchor="middle" x="137" y="-23.5" font-family="Helvetica,sans-Serif" font-size="10.00">cstdint</text>
</a>
</g>
</g>
<!-- Node4&#45;&gt;Node5 -->
<g id="edge4_Node000004_Node000005" class="edge">
<title>Node4&#45;&gt;Node5</title>
<g id="a_edge4_Node000004_Node000005"><a xlink:title=" ">
<path fill="none" stroke="#63b8ff" d="M497.96,-93.6C407.42,-88.18 229.25,-74.94 171,-52 164.97,-49.63 159.05,-45.91 153.89,-42.06"/>
<polygon fill="#63b8ff" stroke="#63b8ff" points="155.99,-39.26 146.02,-35.68 151.58,-44.7 155.99,-39.26"/>
</a>
</g>
</g>
<!-- Node6 -->
<g id="Node000006" class="node">
<title>Node6</title>
<g id="a_Node000006"><a xlink:title=" ">
<polygon fill="#e0e0e0" stroke="#999999" points="238,-35.5 180,-35.5 180,-16.5 238,-16.5 238,-35.5"/>
<text text-anchor="middle" x="209" y="-23.5" font-family="Helvetica,sans-Serif" font-size="10.00">memory</text>
</a>
</g>
</g>
<!-- Node4&#45;&gt;Node6 -->
<g id="edge5_Node000004_Node000006" class="edge">
<title>Node4&#45;&gt;Node6</title>
<g id="a_edge5_Node000004_Node000006"><a xlink:title=" ">
<path fill="none" stroke="#63b8ff" d="M497.89,-95.65C435.5,-93.08 330.78,-83.86 247,-52 240.32,-49.46 233.6,-45.59 227.72,-41.64"/>
<polygon fill="#63b8ff" stroke="#63b8ff" points="229.45,-38.57 219.29,-35.57 225.36,-44.25 229.45,-38.57"/>
</a>
</g>
</g>
<!-- Node7 -->
<g id="Node000007" class="node">
<title>Node7</title>
<g id="a_Node000007"><a xlink:title=" ">
<polygon fill="#e0e0e0" stroke="#999999" points="298,-35.5 256,-35.5 256,-16.5 298,-16.5 298,-35.5"/>
<text text-anchor="middle" x="277" y="-23.5" font-family="Helvetica,sans-Serif" font-size="10.00">array</text>
</a>
</g>
</g>
<!-- Node4&#45;&gt;Node7 -->
<g id="edge6_Node000004_Node000007" class="edge">
<title>Node4&#45;&gt;Node7</title>
<g id="a_edge6_Node000004_Node000007"><a xlink:title=" ">
<path fill="none" stroke="#63b8ff" d="M497.51,-94.54C446.21,-90.9 368.29,-80.65 307,-52 301.91,-49.62 296.97,-46.16 292.62,-42.57"/>
<polygon fill="#63b8ff" stroke="#63b8ff" points="294.85,-39.87 285.09,-35.76 290.15,-45.06 294.85,-39.87"/>
</a>
</g>
</g>
<!-- Node8 -->
<g id="Node000008" class="node">
<title>Node8</title>
<g id="a_Node000008"><a xlink:title=" ">
<polygon fill="#e0e0e0" stroke="#999999" points="366,-35.5 316,-35.5 316,-16.5 366,-16.5 366,-35.5"/>
<text text-anchor="middle" x="341" y="-23.5" font-family="Helvetica,sans-Serif" font-size="10.00">atomic</text>
</a>
</g>
</g>
<!-- Node4&#45;&gt;Node8 -->
<g id="edge7_Node000004_Node000008" class="edge">
<title>Node4&#45;&gt;Node8</title>
<g id="a_edge7_Node000004_Node000008"><a xlink:title=" ">
<path fill="none" stroke="#63b8ff" d="M497.88,-88.51C461.85,-81.86 414.13,-70.43 375,-52 369.23,-49.28 363.44,-45.52 358.33,-41.73"/>
<polygon fill="#63b8ff" stroke="#63b8ff" points="360.48,-38.98 350.47,-35.53 356.15,-44.47 360.48,-38.98"/>
</a>
</g>
</g>
<!-- Node9 -->
<g id="Node000009" class="node">
<title>Node9</title>
<g id="a_Node000009"><a xlink:title=" ">
<polygon fill="#e0e0e0" stroke="#999999" points="453.5,-35.5 384.5,-35.5 384.5,-16.5 453.5,-16.5 453.5,-35.5"/>
<text text-anchor="middle" x="419" y="-23.5" font-family="Helvetica,sans-Serif" font-size="10.00">type_traits</text>
</a>
</g>
</g>
<!-- Node4&#45;&gt;Node9 -->
<g id="edge8_Node000004_Node000009" class="edge">
<title>Node4&#45;&gt;Node9</title>
<g id="a_edge8_Node000004_Node000009"><a xlink:title=" ">
<path fill="none" stroke="#63b8ff" d="M533.89,-87.99C515.58,-79.28 486.57,-65.2 462,-52 455.46,-48.49 448.46,-44.51 442.05,-40.78"/>
<polygon fill="#63b8ff" stroke="#63b8ff" points="443.59,-37.63 433.2,-35.58 440.04,-43.66 443.59,-37.63"/>
</a>
</g>
</g>
<!-- Node10 -->
<g id="Node000010" class="node">
<title>Node10</title>
<g id="a_Node000010"><a xlink:title=" ">
<polygon fill="#e0e0e0" stroke="#999999" points="522.5,-35.5 471.5,-35.5 471.5,-16.5 522.5,-16.5 522.5,-35.5"/>
<text text-anchor="middle" x="497" y="-23.5" font-family="Helvetica,sans-Serif" font-size="10.00">variant</text>
</a>
</g>
</g>
<!-- Node4&#45;&gt;Node10 -->
<g id="edge9_Node000004_Node000010" class="edge">
<title>Node4&#45;&gt;Node10</title>
<g id="a_edge9_Node000004_Node000010"><a xlink:title=" ">
<path fill="none" stroke="#63b8ff" d="M545.26,-87.98C536.51,-76.93 521.08,-57.43 510.02,-43.46"/>
<polygon fill="#63b8ff" stroke="#63b8ff" points="512.75,-41.26 503.8,-35.59 507.26,-45.61 512.75,-41.26"/>
</a>
</g>
</g>
<!-- Node11 -->
<g id="Node000011" class="node">
<title>Node11</title>
<g id="a_Node000011"><a xlink:title=" ">
<polygon fill="#e0e0e0" stroke="#999999" points="673.5,-46.5 540.5,-46.5 540.5,-5.5 673.5,-5.5 673.5,-46.5"/>
<text text-anchor="start" x="548.5" y="-34.5" font-family="Helvetica,sans-Serif" font-size="10.00">core/hf&#45;core&#45;drivers</text>
<text text-anchor="start" x="548.5" y="-23.5" font-family="Helvetica,sans-Serif" font-size="10.00">/external/hf&#45;tmc9660</text>
<text text-anchor="middle" x="607" y="-12.5" font-family="Helvetica,sans-Serif" font-size="10.00">&#45;driver/inc/tmc9660.hpp</text>
</a>
</g>
</g>
<!-- Node4&#45;&gt;Node11 -->
<g id="edge10_Node000004_Node000011" class="edge">
<title>Node4&#45;&gt;Node11</title>
<g id="a_edge10_Node000004_Node000011"><a xlink:title=" ">
<path fill="none" stroke="#63b8ff" d="M558.74,-87.98C565.32,-79.67 575.67,-66.59 585.11,-54.67"/>
<polygon fill="#63b8ff" stroke="#63b8ff" points="587.97,-56.69 591.43,-46.67 582.48,-52.34 587.97,-56.69"/>
</a>
</g>
</g>
<!-- Node12 -->
<g id="Node000012" class="node">
<title>Node12</title>
<g id="a_Node000012"><a xlink:title=" ">
<polygon fill="#e0e0e0" stroke="#999999" points="840,-52 692,-52 692,0 840,0 840,-52"/>
<text text-anchor="start" x="700" y="-40" font-family="Helvetica,sans-Serif" font-size="10.00">core/hf&#45;core&#45;drivers</text>
<text text-anchor="start" x="700" y="-29" font-family="Helvetica,sans-Serif" font-size="10.00">/external/hf&#45;tmc9660</text>
<text text-anchor="start" x="700" y="-18" font-family="Helvetica,sans-Serif" font-size="10.00">&#45;driver/inc/tmc9660_comm</text>
<text text-anchor="middle" x="766" y="-7" font-family="Helvetica,sans-Serif" font-size="10.00">_interface.hpp</text>
</a>
</g>
</g>
<!-- Node4&#45;&gt;Node12 -->
<g id="edge11_Node000004_Node000012" class="edge">
<title>Node4&#45;&gt;Node12</title>
<g id="a_edge11_Node000004_Node000012"><a xlink:title=" ">
<path fill="none" stroke="#63b8ff" d="M578.24,-87.98C604.06,-79.59 644.88,-66.34 681.87,-54.32"/>
<polygon fill="#63b8ff" stroke="#63b8ff" points="683.25,-57.55 691.68,-51.14 681.09,-50.9 683.25,-57.55"/>
</a>
</g>
</g>
<!-- Node13 -->
<g id="Node000013" class="node">
<title>Node13</title>
<g id="a_Node000013"><a xlink:title=" ">
<polygon fill="#e0e0e0" stroke="#999999" points="956,-35.5 858,-35.5 858,-16.5 956,-16.5 956,-35.5"/>
<text text-anchor="middle" x="907" y="-23.5" font-family="Helvetica,sans-Serif" font-size="10.00">base/BaseGpio.h</text>
</a>
</g>
</g>
<!-- Node4&#45;&gt;Node13 -->
<g id="edge12_Node000004_Node000013" class="edge">
<title>Node4&#45;&gt;Node13</title>
<g id="a_edge12_Node000004_Node000013"><a xlink:title=" ">
<path fill="none" stroke="#63b8ff" d="M606.27,-92.6C666.5,-87.3 766.15,-75.63 849,-52 859.76,-48.93 871.15,-44.34 880.96,-39.93"/>
<polygon fill="#63b8ff" stroke="#63b8ff" points="882.58,-43.03 890.17,-35.63 879.63,-36.69 882.58,-43.03"/>
</a>
</g>
</g>
<!-- Node14 -->
<g id="Node000014" class="node">
<title>Node14</title>
<g id="a_Node000014"><a xlink:title=" ">
<polygon fill="#e0e0e0" stroke="#999999" points="1111.5,-35.5 974.5,-35.5 974.5,-16.5 1111.5,-16.5 1111.5,-35.5"/>
<text text-anchor="middle" x="1043" y="-23.5" font-family="Helvetica,sans-Serif" font-size="10.00">base/BaseTemperature.h</text>
</a>
</g>
</g>
<!-- Node4&#45;&gt;Node14 -->
<g id="edge14_Node000004_Node000014" class="edge">
<title>Node4&#45;&gt;Node14</title>
<g id="a_edge14_Node000004_Node000014"><a xlink:title=" ">
<path fill="none" stroke="#63b8ff" d="M606.01,-94.18C685.42,-89.97 838.01,-78.9 965,-52 980.34,-48.75 996.93,-43.66 1010.85,-38.92"/>
<polygon fill="#63b8ff" stroke="#63b8ff" points="1012.18,-42.17 1020.46,-35.57 1009.87,-35.56 1012.18,-42.17"/>
</a>
</g>
</g>
<!-- Node15 -->
<g id="Node000015" class="node">
<title>Node15</title>
<g id="a_Node000015"><a xlink:title=" ">
<polygon fill="#e0e0e0" stroke="#999999" points="1220.5,-35.5 1129.5,-35.5 1129.5,-16.5 1220.5,-16.5 1220.5,-35.5"/>
<text text-anchor="middle" x="1175" y="-23.5" font-family="Helvetica,sans-Serif" font-size="10.00">base/BaseSpi.h</text>
</a>
</g>
</g>
<!-- Node4&#45;&gt;Node15 -->
<g id="edge15_Node000004_Node000015" class="edge">
<title>Node4&#45;&gt;Node15</title>
<g id="a_edge15_Node000004_Node000015"><a xlink:title=" ">
<path fill="none" stroke="#63b8ff" d="M606.17,-94.71C728.83,-90.26 1024.66,-77.2 1121,-52 1131.13,-49.35 1141.7,-44.88 1150.78,-40.45"/>
<polygon fill="#63b8ff" stroke="#63b8ff" points="1152.65,-43.42 1159.95,-35.74 1149.45,-37.19 1152.65,-43.42"/>
</a>
</g>
</g>
<!-- Node16 -->
<g id="Node000016" class="node">
<title>Node16</title>
<g id="a_Node000016"><a xlink:title=" ">
<polygon fill="#e0e0e0" stroke="#999999" points="1335.5,-35.5 1238.5,-35.5 1238.5,-16.5 1335.5,-16.5 1335.5,-35.5"/>
<text text-anchor="middle" x="1287" y="-23.5" font-family="Helvetica,sans-Serif" font-size="10.00">base/BaseUart.h</text>
</a>
</g>
</g>
<!-- Node4&#45;&gt;Node16 -->
<g id="edge16_Node000004_Node000016" class="edge">
<title>Node4&#45;&gt;Node16</title>
<g id="a_edge16_Node000004_Node000016"><a xlink:title=" ">
<path fill="none" stroke="#63b8ff" d="M606.23,-95.36C745.32,-92.06 1112.04,-80.8 1230,-52 1241.02,-49.31 1252.59,-44.62 1262.41,-40.02"/>
<polygon fill="#63b8ff" stroke="#63b8ff" points="1264.11,-43.09 1271.55,-35.54 1261.03,-36.8 1264.11,-43.09"/>
</a>
</g>
</g>
<!-- Node17 -->
<g id="Node000017" class="node">
<title>Node17</title>
<g id="a_Node000017"><a xlink:title=" ">
<polygon fill="#e0e0e0" stroke="#999999" points="1486.5,-52 1353.5,-52 1353.5,0 1486.5,0 1486.5,-52"/>
<text text-anchor="start" x="1361.5" y="-40" font-family="Helvetica,sans-Serif" font-size="10.00">core/hf&#45;core&#45;drivers</text>
<text text-anchor="start" x="1361.5" y="-29" font-family="Helvetica,sans-Serif" font-size="10.00">/internal/hf&#45;internal</text>
<text text-anchor="start" x="1361.5" y="-18" font-family="Helvetica,sans-Serif" font-size="10.00">&#45;interface&#45;wrap/inc/utils</text>
<text text-anchor="middle" x="1420" y="-7" font-family="Helvetica,sans-Serif" font-size="10.00">/RtosMutex.h</text>
</a>
</g>
</g>
<!-- Node4&#45;&gt;Node17 -->
<g id="edge17_Node000004_Node000017" class="edge">
<title>Node4&#45;&gt;Node17</title>
<g id="a_edge17_Node000004_Node000017"><a xlink:title=" ">
<path fill="none" stroke="#63b8ff" d="M606.11,-95.33C757.48,-91.78 1184.01,-79.71 1343.09,-52.09"/>
<polygon fill="#63b8ff" stroke="#63b8ff" points="1343.97,-55.49 1353.18,-50.25 1342.71,-48.6 1343.97,-55.49"/>
</a>
</g>
</g>
<!-- Node18 -->
<g id="Node000018" class="node">
<title>Node18</title>
<g id="a_Node000018"><a xlink:title=" ">
<polygon fill="#e0e0e0" stroke="#999999" points="1549.5,-35.5 1504.5,-35.5 1504.5,-16.5 1549.5,-16.5 1549.5,-35.5"/>
<text text-anchor="middle" x="1527" y="-23.5" font-family="Helvetica,sans-Serif" font-size="10.00">utility</text>
</a>
</g>
</g>
<!-- Node4&#45;&gt;Node18 -->
<g id="edge18_Node000004_Node000018" class="edge">
<title>Node4&#45;&gt;Node18</title>
<g id="a_edge18_Node000004_Node000018"><a xlink:title=" ">
<path fill="none" stroke="#63b8ff" d="M606.23,-95.9C794.51,-93.57 1412.93,-83.54 1496,-52 1501.66,-49.85 1507.07,-46.25 1511.74,-42.44"/>
<polygon fill="#63b8ff" stroke="#63b8ff" points="1514.19,-44.94 1519.25,-35.63 1509.49,-39.76 1514.19,-44.94"/>
</a>
</g>
</g>
</g>
</svg>
