<?xml version="1.0" encoding="UTF-8" standalone="no"?>
<!DOCTYPE svg PUBLIC "-//W3C//DTD SVG 1.1//EN"
 "http://www.w3.org/Graphics/SVG/1.1/DTD/svg11.dtd">
<!-- Generated by graphviz version 2.43.0 (0)
 -->
<!-- Title: As5047uHandler.cpp Pages: 1 -->
<svg width="721pt" height="159pt"
 viewBox="0.00 0.00 721.00 159.00" xmlns="http://www.w3.org/2000/svg" xmlns:xlink="http://www.w3.org/1999/xlink">
<g id="graph0" class="graph" transform="scale(1 1) rotate(0) translate(4 155)">
<title>As5047uHandler.cpp</title>
<!-- Node1 -->
<g id="Node000001" class="node">
<title>Node1</title>
<g id="a_Node000001"><a xlink:title="Implementation of unified AS5047U magnetic rotary position sensor handler.">
<polygon fill="#999999" stroke="#666666" points="367,-151 251,-151 251,-132 367,-132 367,-151"/>
<text text-anchor="middle" x="309" y="-139" font-family="Helvetica,sans-Serif" font-size="10.00">As5047uHandler.cpp</text>
</a>
</g>
</g>
<!-- Node2 -->
<g id="Node000002" class="node">
<title>Node2</title>
<g id="a_Node000002"><a xlink:href="As5047uHandler_8h.html" target="_top" xlink:title="Unified handler for AS5047U magnetic rotary position sensor with SPI integration.">
<polygon fill="white" stroke="#666666" points="361.5,-96 256.5,-96 256.5,-77 361.5,-77 361.5,-96"/>
<text text-anchor="middle" x="309" y="-84" font-family="Helvetica,sans-Serif" font-size="10.00">As5047uHandler.h</text>
</a>
</g>
</g>
<!-- Node1&#45;&gt;Node2 -->
<g id="edge1_Node000001_Node000002" class="edge">
<title>Node1&#45;&gt;Node2</title>
<g id="a_edge1_Node000001_Node000002"><a xlink:title=" ">
<path fill="none" stroke="#63b8ff" d="M309,-131.75C309,-124.8 309,-114.85 309,-106.13"/>
<polygon fill="#63b8ff" stroke="#63b8ff" points="312.5,-106.09 309,-96.09 305.5,-106.09 312.5,-106.09"/>
</a>
</g>
</g>
<!-- Node8 -->
<g id="Node000008" class="node">
<title>Node8</title>
<g id="a_Node000008"><a xlink:title=" ">
<polygon fill="#e0e0e0" stroke="#999999" points="50,-30 0,-30 0,-11 50,-11 50,-30"/>
<text text-anchor="middle" x="25" y="-18" font-family="Helvetica,sans-Serif" font-size="10.00">cstring</text>
</a>
</g>
</g>
<!-- Node1&#45;&gt;Node8 -->
<g id="edge7_Node000001_Node000008" class="edge">
<title>Node1&#45;&gt;Node8</title>
<g id="a_edge7_Node000001_Node000008"><a xlink:title=" ">
<path fill="none" stroke="#63b8ff" d="M250.97,-139.35C203.82,-136.06 137.15,-125.87 87,-96 63.8,-82.18 45.32,-56.4 34.76,-39.1"/>
<polygon fill="#63b8ff" stroke="#63b8ff" points="37.54,-36.92 29.48,-30.04 31.49,-40.44 37.54,-36.92"/>
</a>
</g>
</g>
<!-- Node9 -->
<g id="Node000009" class="node">
<title>Node9</title>
<g id="a_Node000009"><a xlink:title=" ">
<polygon fill="#e0e0e0" stroke="#999999" points="444,-96 380,-96 380,-77 444,-77 444,-96"/>
<text text-anchor="middle" x="412" y="-84" font-family="Helvetica,sans-Serif" font-size="10.00">algorithm</text>
</a>
</g>
</g>
<!-- Node1&#45;&gt;Node9 -->
<g id="edge8_Node000001_Node000009" class="edge">
<title>Node1&#45;&gt;Node9</title>
<g id="a_edge8_Node000001_Node000009"><a xlink:title=" ">
<path fill="none" stroke="#63b8ff" d="M325.55,-131.98C341.89,-123.57 367.13,-110.59 386.13,-100.81"/>
<polygon fill="#63b8ff" stroke="#63b8ff" points="387.86,-103.86 395.15,-96.17 384.66,-97.63 387.86,-103.86"/>
</a>
</g>
</g>
<!-- Node10 -->
<g id="Node000010" class="node">
<title>Node10</title>
<g id="a_Node000010"><a xlink:title=" ">
<polygon fill="#e0e0e0" stroke="#999999" points="509.5,-96 462.5,-96 462.5,-77 509.5,-77 509.5,-96"/>
<text text-anchor="middle" x="486" y="-84" font-family="Helvetica,sans-Serif" font-size="10.00">cmath</text>
</a>
</g>
</g>
<!-- Node1&#45;&gt;Node10 -->
<g id="edge9_Node000001_Node000010" class="edge">
<title>Node1&#45;&gt;Node10</title>
<g id="a_edge9_Node000001_Node000010"><a xlink:title=" ">
<path fill="none" stroke="#63b8ff" d="M337.44,-131.98C368.88,-122.57 419.46,-107.42 452.72,-97.46"/>
<polygon fill="#63b8ff" stroke="#63b8ff" points="453.87,-100.77 462.45,-94.55 451.86,-94.07 453.87,-100.77"/>
</a>
</g>
</g>
<!-- Node11 -->
<g id="Node000011" class="node">
<title>Node11</title>
<g id="a_Node000011"><a xlink:href="Logger_8h.html" target="_top" xlink:title="Advanced logging system with formatting capabilities.">
<polygon fill="white" stroke="#666666" points="233.5,-96 96.5,-96 96.5,-77 233.5,-77 233.5,-96"/>
<text text-anchor="middle" x="165" y="-84" font-family="Helvetica,sans-Serif" font-size="10.00">handlers/logger/Logger.h</text>
</a>
</g>
</g>
<!-- Node1&#45;&gt;Node11 -->
<g id="edge10_Node000001_Node000011" class="edge">
<title>Node1&#45;&gt;Node11</title>
<g id="a_edge10_Node000001_Node000011"><a xlink:title=" ">
<path fill="none" stroke="#63b8ff" d="M285.86,-131.98C262.18,-123.27 225.13,-109.63 198.29,-99.75"/>
<polygon fill="#63b8ff" stroke="#63b8ff" points="199.15,-96.34 188.56,-96.17 196.73,-102.91 199.15,-96.34"/>
</a>
</g>
</g>
<!-- Node3 -->
<g id="Node000003" class="node">
<title>Node3</title>
<g id="a_Node000003"><a xlink:title=" ">
<polygon fill="#e0e0e0" stroke="#999999" points="334,-30 284,-30 284,-11 334,-11 334,-30"/>
<text text-anchor="middle" x="309" y="-18" font-family="Helvetica,sans-Serif" font-size="10.00">cstdint</text>
</a>
</g>
</g>
<!-- Node2&#45;&gt;Node3 -->
<g id="edge2_Node000002_Node000003" class="edge">
<title>Node2&#45;&gt;Node3</title>
<g id="a_edge2_Node000002_Node000003"><a xlink:title=" ">
<path fill="none" stroke="#63b8ff" d="M309,-76.87C309,-67.66 309,-52.79 309,-40.77"/>
<polygon fill="#63b8ff" stroke="#63b8ff" points="312.5,-40.41 309,-30.41 305.5,-40.41 312.5,-40.41"/>
</a>
</g>
</g>
<!-- Node4 -->
<g id="Node000004" class="node">
<title>Node4</title>
<g id="a_Node000004"><a xlink:title=" ">
<polygon fill="#e0e0e0" stroke="#999999" points="266,-30 208,-30 208,-11 266,-11 266,-30"/>
<text text-anchor="middle" x="237" y="-18" font-family="Helvetica,sans-Serif" font-size="10.00">memory</text>
</a>
</g>
</g>
<!-- Node2&#45;&gt;Node4 -->
<g id="edge3_Node000002_Node000004" class="edge">
<title>Node2&#45;&gt;Node4</title>
<g id="a_edge3_Node000002_Node000004"><a xlink:title=" ">
<path fill="none" stroke="#63b8ff" d="M299.29,-76.87C287.87,-66.71 268.68,-49.66 254.61,-37.15"/>
<polygon fill="#63b8ff" stroke="#63b8ff" points="256.82,-34.43 247.02,-30.41 252.17,-39.66 256.82,-34.43"/>
</a>
</g>
</g>
<!-- Node5 -->
<g id="Node000005" class="node">
<title>Node5</title>
<g id="a_Node000005"><a xlink:title=" ">
<polygon fill="#e0e0e0" stroke="#999999" points="483.5,-41 352.5,-41 352.5,0 483.5,0 483.5,-41"/>
<text text-anchor="start" x="360.5" y="-29" font-family="Helvetica,sans-Serif" font-size="10.00">core/hf&#45;core&#45;drivers</text>
<text text-anchor="start" x="360.5" y="-18" font-family="Helvetica,sans-Serif" font-size="10.00">/external/hf&#45;as5047u</text>
<text text-anchor="middle" x="418" y="-7" font-family="Helvetica,sans-Serif" font-size="10.00">&#45;driver/inc/as5047u.hpp</text>
</a>
</g>
</g>
<!-- Node2&#45;&gt;Node5 -->
<g id="edge4_Node000002_Node000005" class="edge">
<title>Node2&#45;&gt;Node5</title>
<g id="a_edge4_Node000002_Node000005"><a xlink:title=" ">
<path fill="none" stroke="#63b8ff" d="M323.7,-76.87C337.08,-69.01 357.51,-57.02 375.93,-46.2"/>
<polygon fill="#63b8ff" stroke="#63b8ff" points="377.92,-49.09 384.77,-41.01 374.38,-43.05 377.92,-49.09"/>
</a>
</g>
</g>
<!-- Node6 -->
<g id="Node000006" class="node">
<title>Node6</title>
<g id="a_Node000006"><a xlink:title=" ">
<polygon fill="#e0e0e0" stroke="#999999" points="592.5,-30 501.5,-30 501.5,-11 592.5,-11 592.5,-30"/>
<text text-anchor="middle" x="547" y="-18" font-family="Helvetica,sans-Serif" font-size="10.00">base/BaseSpi.h</text>
</a>
</g>
</g>
<!-- Node2&#45;&gt;Node6 -->
<g id="edge5_Node000002_Node000006" class="edge">
<title>Node2&#45;&gt;Node6</title>
<g id="a_edge5_Node000002_Node000006"><a xlink:title=" ">
<path fill="none" stroke="#63b8ff" d="M349.9,-76.95C387.42,-68.8 444.37,-55.61 493,-41 500.35,-38.79 508.16,-36.15 515.5,-33.53"/>
<polygon fill="#63b8ff" stroke="#63b8ff" points="516.92,-36.74 525.11,-30.02 514.52,-30.16 516.92,-36.74"/>
</a>
</g>
</g>
<!-- Node7 -->
<g id="Node000007" class="node">
<title>Node7</title>
<g id="a_Node000007"><a xlink:title=" ">
<polygon fill="#e0e0e0" stroke="#999999" points="713,-30 611,-30 611,-11 713,-11 713,-30"/>
<text text-anchor="middle" x="662" y="-18" font-family="Helvetica,sans-Serif" font-size="10.00">utils/RtosMutex.h</text>
</a>
</g>
</g>
<!-- Node2&#45;&gt;Node7 -->
<g id="edge6_Node000002_Node000007" class="edge">
<title>Node2&#45;&gt;Node7</title>
<g id="a_edge6_Node000002_Node000007"><a xlink:title=" ">
<path fill="none" stroke="#63b8ff" d="M361.62,-77.99C439.6,-66.78 579.13,-46.42 602,-41 610.81,-38.91 620.19,-36.14 628.84,-33.35"/>
<polygon fill="#63b8ff" stroke="#63b8ff" points="630.22,-36.57 638.6,-30.09 628.01,-29.93 630.22,-36.57"/>
</a>
</g>
</g>
<!-- Node11&#45;&gt;Node4 -->
<g id="edge13_Node000011_Node000004" class="edge">
<title>Node11&#45;&gt;Node4</title>
<g id="a_edge13_Node000011_Node000004"><a xlink:title=" ">
<path fill="none" stroke="#63b8ff" d="M174.71,-76.87C186.13,-66.71 205.32,-49.66 219.39,-37.15"/>
<polygon fill="#63b8ff" stroke="#63b8ff" points="221.83,-39.66 226.98,-30.41 217.18,-34.43 221.83,-39.66"/>
</a>
</g>
</g>
<!-- Node11&#45;&gt;Node8 -->
<g id="edge12_Node000011_Node000008" class="edge">
<title>Node11&#45;&gt;Node8</title>
<g id="a_edge12_Node000011_Node000008"><a xlink:title=" ">
<path fill="none" stroke="#63b8ff" d="M142.31,-76.91C120.59,-68.48 87.09,-54.89 59,-41 55.33,-39.19 51.51,-37.15 47.81,-35.09"/>
<polygon fill="#63b8ff" stroke="#63b8ff" points="49.43,-31.99 39.01,-30.06 45.95,-38.06 49.43,-31.99"/>
</a>
</g>
</g>
<!-- Node12 -->
<g id="Node000012" class="node">
<title>Node12</title>
<g id="a_Node000012"><a xlink:title=" ">
<polygon fill="#e0e0e0" stroke="#999999" points="121.5,-30 68.5,-30 68.5,-11 121.5,-11 121.5,-30"/>
<text text-anchor="middle" x="95" y="-18" font-family="Helvetica,sans-Serif" font-size="10.00">cstdarg</text>
</a>
</g>
</g>
<!-- Node11&#45;&gt;Node12 -->
<g id="edge11_Node000011_Node000012" class="edge">
<title>Node11&#45;&gt;Node12</title>
<g id="a_edge11_Node000011_Node000012"><a xlink:title=" ">
<path fill="none" stroke="#63b8ff" d="M155.56,-76.87C144.45,-66.71 125.8,-49.66 112.12,-37.15"/>
<polygon fill="#63b8ff" stroke="#63b8ff" points="114.48,-34.57 104.74,-30.41 109.76,-39.74 114.48,-34.57"/>
</a>
</g>
</g>
<!-- Node13 -->
<g id="Node000013" class="node">
<title>Node13</title>
<g id="a_Node000013"><a xlink:title=" ">
<polygon fill="#e0e0e0" stroke="#999999" points="190,-30 140,-30 140,-11 190,-11 190,-30"/>
<text text-anchor="middle" x="165" y="-18" font-family="Helvetica,sans-Serif" font-size="10.00">atomic</text>
</a>
</g>
</g>
<!-- Node11&#45;&gt;Node13 -->
<g id="edge14_Node000011_Node000013" class="edge">
<title>Node11&#45;&gt;Node13</title>
<g id="a_edge14_Node000011_Node000013"><a xlink:title=" ">
<path fill="none" stroke="#63b8ff" d="M165,-76.87C165,-67.66 165,-52.79 165,-40.77"/>
<polygon fill="#63b8ff" stroke="#63b8ff" points="168.5,-40.41 165,-30.41 161.5,-40.41 168.5,-40.41"/>
</a>
</g>
</g>
</g>
</svg>
