<?xml version="1.0" encoding="UTF-8" standalone="no"?>
<!DOCTYPE svg PUBLIC "-//W3C//DTD SVG 1.1//EN"
 "http://www.w3.org/Graphics/SVG/1.1/DTD/svg11.dtd">
<!-- Generated by graphviz version 2.43.0 (0)
 -->
<!-- Title: As5047uHandler.cpp Pages: 1 -->
<svg width="783pt" height="159pt"
 viewBox="0.00 0.00 783.00 159.00" xmlns="http://www.w3.org/2000/svg" xmlns:xlink="http://www.w3.org/1999/xlink">
<g id="graph0" class="graph" transform="scale(1 1) rotate(0) translate(4 155)">
<title>As5047uHandler.cpp</title>
<!-- Node1 -->
<g id="Node000001" class="node">
<title>Node1</title>
<g id="a_Node000001"><a xlink:title="Implementation of unified AS5047U magnetic rotary position sensor handler.">
<polygon fill="#999999" stroke="#666666" points="400,-151 284,-151 284,-132 400,-132 400,-151"/>
<text text-anchor="middle" x="342" y="-139" font-family="Helvetica,sans-Serif" font-size="10.00">As5047uHandler.cpp</text>
</a>
</g>
</g>
<!-- Node2 -->
<g id="Node000002" class="node">
<title>Node2</title>
<g id="a_Node000002"><a xlink:href="As5047uHandler_8h.html" target="_top" xlink:title="Unified handler for AS5047U magnetic rotary position sensor with SPI integration.">
<polygon fill="white" stroke="#666666" points="394.5,-96 289.5,-96 289.5,-77 394.5,-77 394.5,-96"/>
<text text-anchor="middle" x="342" y="-84" font-family="Helvetica,sans-Serif" font-size="10.00">As5047uHandler.h</text>
</a>
</g>
</g>
<!-- Node1&#45;&gt;Node2 -->
<g id="edge1_Node000001_Node000002" class="edge">
<title>Node1&#45;&gt;Node2</title>
<g id="a_edge1_Node000001_Node000002"><a xlink:title=" ">
<path fill="none" stroke="#63b8ff" d="M342,-131.75C342,-124.8 342,-114.85 342,-106.13"/>
<polygon fill="#63b8ff" stroke="#63b8ff" points="345.5,-106.09 342,-96.09 338.5,-106.09 345.5,-106.09"/>
</a>
</g>
</g>
<!-- Node9 -->
<g id="Node000009" class="node">
<title>Node9</title>
<g id="a_Node000009"><a xlink:title=" ">
<polygon fill="#e0e0e0" stroke="#999999" points="50,-30 0,-30 0,-11 50,-11 50,-30"/>
<text text-anchor="middle" x="25" y="-18" font-family="Helvetica,sans-Serif" font-size="10.00">cstring</text>
</a>
</g>
</g>
<!-- Node1&#45;&gt;Node9 -->
<g id="edge8_Node000001_Node000009" class="edge">
<title>Node1&#45;&gt;Node9</title>
<g id="a_edge8_Node000001_Node000009"><a xlink:title=" ">
<path fill="none" stroke="#63b8ff" d="M283.86,-135.69C238.66,-130.3 175.24,-119.08 124,-96 91.52,-81.37 59.62,-54.48 41.16,-37.33"/>
<polygon fill="#63b8ff" stroke="#63b8ff" points="43.32,-34.56 33.66,-30.21 38.5,-39.63 43.32,-34.56"/>
</a>
</g>
</g>
<!-- Node10 -->
<g id="Node000010" class="node">
<title>Node10</title>
<g id="a_Node000010"><a xlink:title=" ">
<polygon fill="#e0e0e0" stroke="#999999" points="477,-96 413,-96 413,-77 477,-77 477,-96"/>
<text text-anchor="middle" x="445" y="-84" font-family="Helvetica,sans-Serif" font-size="10.00">algorithm</text>
</a>
</g>
</g>
<!-- Node1&#45;&gt;Node10 -->
<g id="edge9_Node000001_Node000010" class="edge">
<title>Node1&#45;&gt;Node10</title>
<g id="a_edge9_Node000001_Node000010"><a xlink:title=" ">
<path fill="none" stroke="#63b8ff" d="M358.55,-131.98C374.89,-123.57 400.13,-110.59 419.13,-100.81"/>
<polygon fill="#63b8ff" stroke="#63b8ff" points="420.86,-103.86 428.15,-96.17 417.66,-97.63 420.86,-103.86"/>
</a>
</g>
</g>
<!-- Node11 -->
<g id="Node000011" class="node">
<title>Node11</title>
<g id="a_Node000011"><a xlink:title=" ">
<polygon fill="#e0e0e0" stroke="#999999" points="542.5,-96 495.5,-96 495.5,-77 542.5,-77 542.5,-96"/>
<text text-anchor="middle" x="519" y="-84" font-family="Helvetica,sans-Serif" font-size="10.00">cmath</text>
</a>
</g>
</g>
<!-- Node1&#45;&gt;Node11 -->
<g id="edge10_Node000001_Node000011" class="edge">
<title>Node1&#45;&gt;Node11</title>
<g id="a_edge10_Node000001_Node000011"><a xlink:title=" ">
<path fill="none" stroke="#63b8ff" d="M370.44,-131.98C401.88,-122.57 452.46,-107.42 485.72,-97.46"/>
<polygon fill="#63b8ff" stroke="#63b8ff" points="486.87,-100.77 495.45,-94.55 484.86,-94.07 486.87,-100.77"/>
</a>
</g>
</g>
<!-- Node12 -->
<g id="Node000012" class="node">
<title>Node12</title>
<g id="a_Node000012"><a xlink:href="Logger_8h.html" target="_top" xlink:title="Advanced logging system with formatting capabilities.">
<polygon fill="white" stroke="#666666" points="269.5,-96 132.5,-96 132.5,-77 269.5,-77 269.5,-96"/>
<text text-anchor="middle" x="201" y="-84" font-family="Helvetica,sans-Serif" font-size="10.00">handlers/logger/Logger.h</text>
</a>
</g>
</g>
<!-- Node1&#45;&gt;Node12 -->
<g id="edge11_Node000001_Node000012" class="edge">
<title>Node1&#45;&gt;Node12</title>
<g id="a_edge11_Node000001_Node000012"><a xlink:title=" ">
<path fill="none" stroke="#63b8ff" d="M319.35,-131.98C296.15,-123.27 259.88,-109.63 233.6,-99.75"/>
<polygon fill="#63b8ff" stroke="#63b8ff" points="234.66,-96.41 224.07,-96.17 232.2,-102.97 234.66,-96.41"/>
</a>
</g>
</g>
<!-- Node3 -->
<g id="Node000003" class="node">
<title>Node3</title>
<g id="a_Node000003"><a xlink:title=" ">
<polygon fill="#e0e0e0" stroke="#999999" points="775,-30 725,-30 725,-11 775,-11 775,-30"/>
<text text-anchor="middle" x="750" y="-18" font-family="Helvetica,sans-Serif" font-size="10.00">cstdint</text>
</a>
</g>
</g>
<!-- Node2&#45;&gt;Node3 -->
<g id="edge2_Node000002_Node000003" class="edge">
<title>Node2&#45;&gt;Node3</title>
<g id="a_edge2_Node000002_Node000003"><a xlink:title=" ">
<path fill="none" stroke="#63b8ff" d="M394.76,-78.19C397.88,-77.78 400.98,-77.38 404,-77 542.49,-59.52 583.4,-84.62 716,-41 720.48,-39.52 725.04,-37.42 729.29,-35.13"/>
<polygon fill="#63b8ff" stroke="#63b8ff" points="731.14,-38.1 737.98,-30 727.58,-32.07 731.14,-38.1"/>
</a>
</g>
</g>
<!-- Node4 -->
<g id="Node000004" class="node">
<title>Node4</title>
<g id="a_Node000004"><a xlink:title=" ">
<polygon fill="#e0e0e0" stroke="#999999" points="266,-30 208,-30 208,-11 266,-11 266,-30"/>
<text text-anchor="middle" x="237" y="-18" font-family="Helvetica,sans-Serif" font-size="10.00">memory</text>
</a>
</g>
</g>
<!-- Node2&#45;&gt;Node4 -->
<g id="edge3_Node000002_Node000004" class="edge">
<title>Node2&#45;&gt;Node4</title>
<g id="a_edge3_Node000002_Node000004"><a xlink:title=" ">
<path fill="none" stroke="#63b8ff" d="M327.84,-76.87C310.46,-66.28 280.76,-48.17 260.07,-35.56"/>
<polygon fill="#63b8ff" stroke="#63b8ff" points="261.63,-32.42 251.27,-30.2 257.99,-38.39 261.63,-32.42"/>
</a>
</g>
</g>
<!-- Node5 -->
<g id="Node000005" class="node">
<title>Node5</title>
<g id="a_Node000005"><a xlink:title=" ">
<polygon fill="#e0e0e0" stroke="#999999" points="328,-30 284,-30 284,-11 328,-11 328,-30"/>
<text text-anchor="middle" x="306" y="-18" font-family="Helvetica,sans-Serif" font-size="10.00">string</text>
</a>
</g>
</g>
<!-- Node2&#45;&gt;Node5 -->
<g id="edge4_Node000002_Node000005" class="edge">
<title>Node2&#45;&gt;Node5</title>
<g id="a_edge4_Node000002_Node000005"><a xlink:title=" ">
<path fill="none" stroke="#63b8ff" d="M337.14,-76.87C331.75,-67.28 322.9,-51.55 316.01,-39.3"/>
<polygon fill="#63b8ff" stroke="#63b8ff" points="318.96,-37.41 311.01,-30.41 312.86,-40.84 318.96,-37.41"/>
</a>
</g>
</g>
<!-- Node6 -->
<g id="Node000006" class="node">
<title>Node6</title>
<g id="a_Node000006"><a xlink:title=" ">
<polygon fill="#e0e0e0" stroke="#999999" points="477.5,-41 346.5,-41 346.5,0 477.5,0 477.5,-41"/>
<text text-anchor="start" x="354.5" y="-29" font-family="Helvetica,sans-Serif" font-size="10.00">core/hf&#45;core&#45;drivers</text>
<text text-anchor="start" x="354.5" y="-18" font-family="Helvetica,sans-Serif" font-size="10.00">/external/hf&#45;as5047u</text>
<text text-anchor="middle" x="412" y="-7" font-family="Helvetica,sans-Serif" font-size="10.00">&#45;driver/inc/as5047u.hpp</text>
</a>
</g>
</g>
<!-- Node2&#45;&gt;Node6 -->
<g id="edge5_Node000002_Node000006" class="edge">
<title>Node2&#45;&gt;Node6</title>
<g id="a_edge5_Node000002_Node000006"><a xlink:title=" ">
<path fill="none" stroke="#63b8ff" d="M351.44,-76.87C359.57,-69.44 371.73,-58.31 383.04,-47.98"/>
<polygon fill="#63b8ff" stroke="#63b8ff" points="385.64,-50.34 390.66,-41.01 380.92,-45.17 385.64,-50.34"/>
</a>
</g>
</g>
<!-- Node7 -->
<g id="Node000007" class="node">
<title>Node7</title>
<g id="a_Node000007"><a xlink:title=" ">
<polygon fill="#e0e0e0" stroke="#999999" points="586.5,-30 495.5,-30 495.5,-11 586.5,-11 586.5,-30"/>
<text text-anchor="middle" x="541" y="-18" font-family="Helvetica,sans-Serif" font-size="10.00">base/BaseSpi.h</text>
</a>
</g>
</g>
<!-- Node2&#45;&gt;Node7 -->
<g id="edge6_Node000002_Node000007" class="edge">
<title>Node2&#45;&gt;Node7</title>
<g id="a_edge6_Node000002_Node000007"><a xlink:title=" ">
<path fill="none" stroke="#63b8ff" d="M371.29,-76.97C400.68,-68.3 447.16,-54.3 487,-41 494.09,-38.64 501.65,-35.98 508.81,-33.42"/>
<polygon fill="#63b8ff" stroke="#63b8ff" points="510.02,-36.7 518.23,-30 507.63,-30.12 510.02,-36.7"/>
</a>
</g>
</g>
<!-- Node8 -->
<g id="Node000008" class="node">
<title>Node8</title>
<g id="a_Node000008"><a xlink:title=" ">
<polygon fill="#e0e0e0" stroke="#999999" points="707,-30 605,-30 605,-11 707,-11 707,-30"/>
<text text-anchor="middle" x="656" y="-18" font-family="Helvetica,sans-Serif" font-size="10.00">utils/RtosMutex.h</text>
</a>
</g>
</g>
<!-- Node2&#45;&gt;Node8 -->
<g id="edge7_Node000002_Node000008" class="edge">
<title>Node2&#45;&gt;Node8</title>
<g id="a_edge7_Node000002_Node000008"><a xlink:title=" ">
<path fill="none" stroke="#63b8ff" d="M394.58,-77.18C457.41,-67.09 558.75,-50.27 596,-41 604.71,-38.83 613.99,-36.06 622.58,-33.28"/>
<polygon fill="#63b8ff" stroke="#63b8ff" points="623.89,-36.53 632.28,-30.06 621.69,-29.89 623.89,-36.53"/>
</a>
</g>
</g>
<!-- Node12&#45;&gt;Node4 -->
<g id="edge15_Node000012_Node000004" class="edge">
<title>Node12&#45;&gt;Node4</title>
<g id="a_edge15_Node000012_Node000004"><a xlink:title=" ">
<path fill="none" stroke="#63b8ff" d="M205.86,-76.87C211.25,-67.28 220.1,-51.55 226.99,-39.3"/>
<polygon fill="#63b8ff" stroke="#63b8ff" points="230.14,-40.84 231.99,-30.41 224.04,-37.41 230.14,-40.84"/>
</a>
</g>
</g>
<!-- Node12&#45;&gt;Node5 -->
<g id="edge14_Node000012_Node000005" class="edge">
<title>Node12&#45;&gt;Node5</title>
<g id="a_edge14_Node000012_Node000005"><a xlink:title=" ">
<path fill="none" stroke="#63b8ff" d="M215.52,-76.89C230.47,-67.99 254.44,-53.65 275,-41 277.87,-39.23 280.88,-37.36 283.85,-35.51"/>
<polygon fill="#63b8ff" stroke="#63b8ff" points="285.85,-38.39 292.46,-30.1 282.13,-32.46 285.85,-38.39"/>
</a>
</g>
</g>
<!-- Node12&#45;&gt;Node9 -->
<g id="edge13_Node000012_Node000009" class="edge">
<title>Node12&#45;&gt;Node9</title>
<g id="a_edge13_Node000012_Node000009"><a xlink:title=" ">
<path fill="none" stroke="#63b8ff" d="M166.68,-76.99C137.44,-69.22 94.62,-56.58 59,-41 55.18,-39.33 51.24,-37.34 47.46,-35.29"/>
<polygon fill="#63b8ff" stroke="#63b8ff" points="48.96,-32.11 38.54,-30.17 45.48,-38.18 48.96,-32.11"/>
</a>
</g>
</g>
<!-- Node13 -->
<g id="Node000013" class="node">
<title>Node13</title>
<g id="a_Node000013"><a xlink:title=" ">
<polygon fill="#e0e0e0" stroke="#999999" points="189.5,-30 136.5,-30 136.5,-11 189.5,-11 189.5,-30"/>
<text text-anchor="middle" x="163" y="-18" font-family="Helvetica,sans-Serif" font-size="10.00">cstdarg</text>
</a>
</g>
</g>
<!-- Node12&#45;&gt;Node13 -->
<g id="edge12_Node000012_Node000013" class="edge">
<title>Node12&#45;&gt;Node13</title>
<g id="a_edge12_Node000012_Node000013"><a xlink:title=" ">
<path fill="none" stroke="#63b8ff" d="M195.88,-76.87C190.18,-67.28 180.84,-51.55 173.57,-39.3"/>
<polygon fill="#63b8ff" stroke="#63b8ff" points="176.4,-37.22 168.29,-30.41 170.38,-40.79 176.4,-37.22"/>
</a>
</g>
</g>
<!-- Node14 -->
<g id="Node000014" class="node">
<title>Node14</title>
<g id="a_Node000014"><a xlink:title=" ">
<polygon fill="#e0e0e0" stroke="#999999" points="118,-30 68,-30 68,-11 118,-11 118,-30"/>
<text text-anchor="middle" x="93" y="-18" font-family="Helvetica,sans-Serif" font-size="10.00">atomic</text>
</a>
</g>
</g>
<!-- Node12&#45;&gt;Node14 -->
<g id="edge16_Node000012_Node000014" class="edge">
<title>Node12&#45;&gt;Node14</title>
<g id="a_edge16_Node000012_Node000014"><a xlink:title=" ">
<path fill="none" stroke="#63b8ff" d="M186.43,-76.87C168.48,-66.23 137.73,-48.01 116.44,-35.39"/>
<polygon fill="#63b8ff" stroke="#63b8ff" points="118.07,-32.29 107.68,-30.2 114.5,-38.31 118.07,-32.29"/>
</a>
</g>
</g>
</g>
</svg>
