<?xml version="1.0" encoding="UTF-8" standalone="no"?>
<!DOCTYPE svg PUBLIC "-//W3C//DTD SVG 1.1//EN"
 "http://www.w3.org/Graphics/SVG/1.1/DTD/svg11.dtd">
<!-- Generated by graphviz version 2.43.0 (0)
 -->
<!-- Title: Bno08xHandler.cpp Pages: 1 -->
<svg width="1362pt" height="181pt"
 viewBox="0.00 0.00 1362.00 181.00" xmlns="http://www.w3.org/2000/svg" xmlns:xlink="http://www.w3.org/1999/xlink">
<g id="graph0" class="graph" transform="scale(1 1) rotate(0) translate(4 177)">
<title>Bno08xHandler.cpp</title>
<!-- Node1 -->
<g id="Node000001" class="node">
<title>Node1</title>
<g id="a_Node000001"><a xlink:title="Implementation of unified BNO08x IMU sensor handler.">
<polygon fill="#999999" stroke="#666666" points="715.5,-173 604.5,-173 604.5,-154 715.5,-154 715.5,-173"/>
<text text-anchor="middle" x="660" y="-161" font-family="Helvetica,sans-Serif" font-size="10.00">Bno08xHandler.cpp</text>
</a>
</g>
</g>
<!-- Node2 -->
<g id="Node000002" class="node">
<title>Node2</title>
<g id="a_Node000002"><a xlink:href="Bno08xHandler_8h.html" target="_top" xlink:title="Unified handler for BNO08x IMU sensor family with multi&#45;interface support.">
<polygon fill="white" stroke="#666666" points="618,-107 518,-107 518,-88 618,-88 618,-107"/>
<text text-anchor="middle" x="568" y="-95" font-family="Helvetica,sans-Serif" font-size="10.00">Bno08xHandler.h</text>
</a>
</g>
</g>
<!-- Node1&#45;&gt;Node2 -->
<g id="edge1_Node000001_Node000002" class="edge">
<title>Node1&#45;&gt;Node2</title>
<g id="a_edge1_Node000001_Node000002"><a xlink:title=" ">
<path fill="none" stroke="#63b8ff" d="M647.59,-153.87C632.64,-143.47 607.28,-125.82 589.2,-113.25"/>
<polygon fill="#63b8ff" stroke="#63b8ff" points="590.71,-110.04 580.5,-107.2 586.72,-115.78 590.71,-110.04"/>
</a>
</g>
</g>
<!-- Node13 -->
<g id="Node000013" class="node">
<title>Node13</title>
<g id="a_Node000013"><a xlink:title=" ">
<polygon fill="#e0e0e0" stroke="#999999" points="683.5,-107 636.5,-107 636.5,-88 683.5,-88 683.5,-107"/>
<text text-anchor="middle" x="660" y="-95" font-family="Helvetica,sans-Serif" font-size="10.00">cmath</text>
</a>
</g>
</g>
<!-- Node1&#45;&gt;Node13 -->
<g id="edge12_Node000001_Node000013" class="edge">
<title>Node1&#45;&gt;Node13</title>
<g id="a_edge12_Node000001_Node000013"><a xlink:title=" ">
<path fill="none" stroke="#63b8ff" d="M660,-153.87C660,-144.66 660,-129.79 660,-117.77"/>
<polygon fill="#63b8ff" stroke="#63b8ff" points="663.5,-117.41 660,-107.41 656.5,-117.41 663.5,-117.41"/>
</a>
</g>
</g>
<!-- Node14 -->
<g id="Node000014" class="node">
<title>Node14</title>
<g id="a_Node000014"><a xlink:title=" ">
<polygon fill="#e0e0e0" stroke="#999999" points="748,-107 702,-107 702,-88 748,-88 748,-107"/>
<text text-anchor="middle" x="725" y="-95" font-family="Helvetica,sans-Serif" font-size="10.00">cstdio</text>
</a>
</g>
</g>
<!-- Node1&#45;&gt;Node14 -->
<g id="edge13_Node000001_Node000014" class="edge">
<title>Node1&#45;&gt;Node14</title>
<g id="a_edge13_Node000001_Node000014"><a xlink:title=" ">
<path fill="none" stroke="#63b8ff" d="M668.77,-153.87C678.98,-143.81 696.08,-126.98 708.74,-114.51"/>
<polygon fill="#63b8ff" stroke="#63b8ff" points="711.29,-116.92 715.96,-107.41 706.37,-111.93 711.29,-116.92"/>
</a>
</g>
</g>
<!-- Node15 -->
<g id="Node000015" class="node">
<title>Node15</title>
<g id="a_Node000015"><a xlink:title=" ">
<polygon fill="#e0e0e0" stroke="#999999" points="50,-30 0,-30 0,-11 50,-11 50,-30"/>
<text text-anchor="middle" x="25" y="-18" font-family="Helvetica,sans-Serif" font-size="10.00">cstring</text>
</a>
</g>
</g>
<!-- Node1&#45;&gt;Node15 -->
<g id="edge14_Node000001_Node000015" class="edge">
<title>Node1&#45;&gt;Node15</title>
<g id="a_edge14_Node000001_Node000015"><a xlink:title=" ">
<path fill="none" stroke="#63b8ff" d="M604.24,-162.59C484.84,-162.04 208.43,-156.49 124,-118 85.42,-100.41 52.94,-61.14 36.52,-38.49"/>
<polygon fill="#63b8ff" stroke="#63b8ff" points="39.28,-36.34 30.67,-30.18 33.56,-40.37 39.28,-36.34"/>
</a>
</g>
</g>
<!-- Node16 -->
<g id="Node000016" class="node">
<title>Node16</title>
<g id="a_Node000016"><a xlink:href="Logger_8h.html" target="_top" xlink:title="Advanced logging system with formatting capabilities.">
<polygon fill="white" stroke="#666666" points="269.5,-107 132.5,-107 132.5,-88 269.5,-88 269.5,-107"/>
<text text-anchor="middle" x="201" y="-95" font-family="Helvetica,sans-Serif" font-size="10.00">handlers/logger/Logger.h</text>
</a>
</g>
</g>
<!-- Node1&#45;&gt;Node16 -->
<g id="edge15_Node000001_Node000016" class="edge">
<title>Node1&#45;&gt;Node16</title>
<g id="a_edge15_Node000001_Node000016"><a xlink:title=" ">
<path fill="none" stroke="#63b8ff" d="M604.18,-154.72C520.81,-143.09 363.83,-121.2 272.28,-108.44"/>
<polygon fill="#63b8ff" stroke="#63b8ff" points="272.66,-104.96 262.27,-107.04 271.69,-111.89 272.66,-104.96"/>
</a>
</g>
</g>
<!-- Node20 -->
<g id="Node000020" class="node">
<title>Node20</title>
<g id="a_Node000020"><a xlink:title=" ">
<polygon fill="#e0e0e0" stroke="#999999" points="833.5,-107 766.5,-107 766.5,-88 833.5,-88 833.5,-107"/>
<text text-anchor="middle" x="800" y="-95" font-family="Helvetica,sans-Serif" font-size="10.00">OsUtility.h</text>
</a>
</g>
</g>
<!-- Node1&#45;&gt;Node20 -->
<g id="edge21_Node000001_Node000020" class="edge">
<title>Node1&#45;&gt;Node20</title>
<g id="a_edge21_Node000001_Node000020"><a xlink:title=" ">
<path fill="none" stroke="#63b8ff" d="M678.88,-153.87C702.78,-142.94 744.17,-124.02 771.82,-111.38"/>
<polygon fill="#63b8ff" stroke="#63b8ff" points="773.33,-114.54 780.97,-107.2 770.42,-108.17 773.33,-114.54"/>
</a>
</g>
</g>
<!-- Node21 -->
<g id="Node000021" class="node">
<title>Node21</title>
<g id="a_Node000021"><a xlink:title=" ">
<polygon fill="#e0e0e0" stroke="#999999" points="996,-118 852,-118 852,-77 996,-77 996,-118"/>
<text text-anchor="start" x="860" y="-106" font-family="Helvetica,sans-Serif" font-size="10.00">core/hf&#45;core&#45;drivers</text>
<text text-anchor="start" x="860" y="-95" font-family="Helvetica,sans-Serif" font-size="10.00">/external/hf&#45;bno08x&#45;driver</text>
<text text-anchor="middle" x="924" y="-84" font-family="Helvetica,sans-Serif" font-size="10.00">/src/sh2/sh2_err.h</text>
</a>
</g>
</g>
<!-- Node1&#45;&gt;Node21 -->
<g id="edge22_Node000001_Node000021" class="edge">
<title>Node1&#45;&gt;Node21</title>
<g id="a_edge22_Node000001_Node000021"><a xlink:title=" ">
<path fill="none" stroke="#63b8ff" d="M695.33,-153.94C732.6,-144.9 792.62,-130.35 841.81,-118.42"/>
<polygon fill="#63b8ff" stroke="#63b8ff" points="842.92,-121.76 851.82,-116 841.28,-114.95 842.92,-121.76"/>
</a>
</g>
</g>
<!-- Node3 -->
<g id="Node000003" class="node">
<title>Node3</title>
<g id="a_Node000003"><a xlink:title=" ">
<polygon fill="#e0e0e0" stroke="#999999" points="396,-30 346,-30 346,-11 396,-11 396,-30"/>
<text text-anchor="middle" x="371" y="-18" font-family="Helvetica,sans-Serif" font-size="10.00">cstdint</text>
</a>
</g>
</g>
<!-- Node2&#45;&gt;Node3 -->
<g id="edge2_Node000002_Node000003" class="edge">
<title>Node2&#45;&gt;Node3</title>
<g id="a_edge2_Node000002_Node000003"><a xlink:title=" ">
<path fill="none" stroke="#63b8ff" d="M537.29,-87.97C504.01,-78.29 449.68,-61.19 405,-41 401.2,-39.28 397.28,-37.27 393.5,-35.21"/>
<polygon fill="#63b8ff" stroke="#63b8ff" points="394.99,-32.03 384.58,-30.09 391.51,-38.1 394.99,-32.03"/>
</a>
</g>
</g>
<!-- Node4 -->
<g id="Node000004" class="node">
<title>Node4</title>
<g id="a_Node000004"><a xlink:title=" ">
<polygon fill="#e0e0e0" stroke="#999999" points="328,-30 270,-30 270,-11 328,-11 328,-30"/>
<text text-anchor="middle" x="299" y="-18" font-family="Helvetica,sans-Serif" font-size="10.00">memory</text>
</a>
</g>
</g>
<!-- Node2&#45;&gt;Node4 -->
<g id="edge3_Node000002_Node000004" class="edge">
<title>Node2&#45;&gt;Node4</title>
<g id="a_edge3_Node000002_Node000004"><a xlink:title=" ">
<path fill="none" stroke="#63b8ff" d="M517.87,-88.03C470.38,-79.18 397.53,-63.43 337,-41 332.29,-39.26 327.42,-37.07 322.8,-34.8"/>
<polygon fill="#63b8ff" stroke="#63b8ff" points="324.28,-31.63 313.79,-30.13 321.06,-37.84 324.28,-31.63"/>
</a>
</g>
</g>
<!-- Node5 -->
<g id="Node000005" class="node">
<title>Node5</title>
<g id="a_Node000005"><a xlink:title=" ">
<polygon fill="#e0e0e0" stroke="#999999" points="456,-30 414,-30 414,-11 456,-11 456,-30"/>
<text text-anchor="middle" x="435" y="-18" font-family="Helvetica,sans-Serif" font-size="10.00">array</text>
</a>
</g>
</g>
<!-- Node2&#45;&gt;Node5 -->
<g id="edge4_Node000002_Node000005" class="edge">
<title>Node2&#45;&gt;Node5</title>
<g id="a_edge4_Node000002_Node000005"><a xlink:title=" ">
<path fill="none" stroke="#63b8ff" d="M551.57,-87.97C531.26,-77.33 495.75,-58.42 466,-41 463.04,-39.26 459.95,-37.39 456.91,-35.52"/>
<polygon fill="#63b8ff" stroke="#63b8ff" points="458.49,-32.38 448.16,-30.04 454.78,-38.31 458.49,-32.38"/>
</a>
</g>
</g>
<!-- Node6 -->
<g id="Node000006" class="node">
<title>Node6</title>
<g id="a_Node000006"><a xlink:title=" ">
<polygon fill="#e0e0e0" stroke="#999999" points="539.5,-30 474.5,-30 474.5,-11 539.5,-11 539.5,-30"/>
<text text-anchor="middle" x="507" y="-18" font-family="Helvetica,sans-Serif" font-size="10.00">functional</text>
</a>
</g>
</g>
<!-- Node2&#45;&gt;Node6 -->
<g id="edge5_Node000002_Node000006" class="edge">
<title>Node2&#45;&gt;Node6</title>
<g id="a_edge5_Node000002_Node000006"><a xlink:title=" ">
<path fill="none" stroke="#63b8ff" d="M561,-87.9C551.17,-75.8 533.06,-53.54 520.54,-38.14"/>
<polygon fill="#63b8ff" stroke="#63b8ff" points="522.94,-35.55 513.92,-30 517.51,-39.97 522.94,-35.55"/>
</a>
</g>
</g>
<!-- Node7 -->
<g id="Node000007" class="node">
<title>Node7</title>
<g id="a_Node000007"><a xlink:title=" ">
<polygon fill="#e0e0e0" stroke="#999999" points="702,-41 558,-41 558,0 702,0 702,-41"/>
<text text-anchor="start" x="566" y="-29" font-family="Helvetica,sans-Serif" font-size="10.00">core/hf&#45;core&#45;drivers</text>
<text text-anchor="start" x="566" y="-18" font-family="Helvetica,sans-Serif" font-size="10.00">/external/hf&#45;bno08x&#45;driver</text>
<text text-anchor="middle" x="630" y="-7" font-family="Helvetica,sans-Serif" font-size="10.00">/inc/bno08x.hpp</text>
</a>
</g>
</g>
<!-- Node2&#45;&gt;Node7 -->
<g id="edge6_Node000002_Node000007" class="edge">
<title>Node2&#45;&gt;Node7</title>
<g id="a_edge6_Node000002_Node000007"><a xlink:title=" ">
<path fill="none" stroke="#63b8ff" d="M575.11,-87.9C582.93,-78.44 595.89,-62.76 607.25,-49.02"/>
<polygon fill="#63b8ff" stroke="#63b8ff" points="610.03,-51.15 613.71,-41.21 604.64,-46.69 610.03,-51.15"/>
</a>
</g>
</g>
<!-- Node8 -->
<g id="Node000008" class="node">
<title>Node8</title>
<g id="a_Node000008"><a xlink:title=" ">
<polygon fill="#e0e0e0" stroke="#999999" points="899.5,-41 720.5,-41 720.5,0 899.5,0 899.5,-41"/>
<text text-anchor="start" x="728.5" y="-29" font-family="Helvetica,sans-Serif" font-size="10.00">core/hf&#45;core&#45;drivers</text>
<text text-anchor="start" x="728.5" y="-18" font-family="Helvetica,sans-Serif" font-size="10.00">/external/hf&#45;bno08x&#45;driver</text>
<text text-anchor="middle" x="810" y="-7" font-family="Helvetica,sans-Serif" font-size="10.00">/inc/bno08x_comm_interface.hpp</text>
</a>
</g>
</g>
<!-- Node2&#45;&gt;Node8 -->
<g id="edge7_Node000002_Node000008" class="edge">
<title>Node2&#45;&gt;Node8</title>
<g id="a_edge7_Node000002_Node000008"><a xlink:title=" ">
<path fill="none" stroke="#63b8ff" d="M593.96,-87.95C604.51,-84.5 616.82,-80.52 628,-77 662.98,-65.98 701.85,-54.08 734.65,-44.14"/>
<polygon fill="#63b8ff" stroke="#63b8ff" points="736.07,-47.37 744.63,-41.12 734.04,-40.67 736.07,-47.37"/>
</a>
</g>
</g>
<!-- Node9 -->
<g id="Node000009" class="node">
<title>Node9</title>
<g id="a_Node000009"><a xlink:title=" ">
<polygon fill="#e0e0e0" stroke="#999999" points="1008,-30 918,-30 918,-11 1008,-11 1008,-30"/>
<text text-anchor="middle" x="963" y="-18" font-family="Helvetica,sans-Serif" font-size="10.00">base/BaseI2c.h</text>
</a>
</g>
</g>
<!-- Node2&#45;&gt;Node9 -->
<g id="edge8_Node000002_Node000009" class="edge">
<title>Node2&#45;&gt;Node9</title>
<g id="a_edge8_Node000002_Node000009"><a xlink:title=" ">
<path fill="none" stroke="#63b8ff" d="M590.8,-87.98C601.89,-84.12 615.5,-79.81 628,-77 750.85,-49.42 786.61,-70.56 909,-41 916.97,-39.07 925.39,-36.37 933.16,-33.59"/>
<polygon fill="#63b8ff" stroke="#63b8ff" points="934.41,-36.86 942.55,-30.08 931.96,-30.3 934.41,-36.86"/>
</a>
</g>
</g>
<!-- Node10 -->
<g id="Node000010" class="node">
<title>Node10</title>
<g id="a_Node000010"><a xlink:title=" ">
<polygon fill="#e0e0e0" stroke="#999999" points="1117.5,-30 1026.5,-30 1026.5,-11 1117.5,-11 1117.5,-30"/>
<text text-anchor="middle" x="1072" y="-18" font-family="Helvetica,sans-Serif" font-size="10.00">base/BaseSpi.h</text>
</a>
</g>
</g>
<!-- Node2&#45;&gt;Node10 -->
<g id="edge9_Node000002_Node000010" class="edge">
<title>Node2&#45;&gt;Node10</title>
<g id="a_edge9_Node000002_Node000010"><a xlink:title=" ">
<path fill="none" stroke="#63b8ff" d="M590.19,-87.98C601.37,-84.03 615.23,-79.63 628,-77 798.05,-41.95 847.43,-78.3 1017,-41 1025.37,-39.16 1034.22,-36.4 1042.31,-33.54"/>
<polygon fill="#63b8ff" stroke="#63b8ff" points="1043.56,-36.81 1051.72,-30.05 1041.13,-30.25 1043.56,-36.81"/>
</a>
</g>
</g>
<!-- Node11 -->
<g id="Node000011" class="node">
<title>Node11</title>
<g id="a_Node000011"><a xlink:title=" ">
<polygon fill="#e0e0e0" stroke="#999999" points="1234,-30 1136,-30 1136,-11 1234,-11 1234,-30"/>
<text text-anchor="middle" x="1185" y="-18" font-family="Helvetica,sans-Serif" font-size="10.00">base/BaseGpio.h</text>
</a>
</g>
</g>
<!-- Node2&#45;&gt;Node11 -->
<g id="edge10_Node000002_Node000011" class="edge">
<title>Node2&#45;&gt;Node11</title>
<g id="a_edge10_Node000002_Node000011"><a xlink:title=" ">
<path fill="none" stroke="#63b8ff" d="M589.89,-87.97C601.11,-83.96 615.1,-79.52 628,-77 846.22,-34.32 909,-84.78 1127,-41 1135.98,-39.2 1145.5,-36.39 1154.16,-33.47"/>
<polygon fill="#63b8ff" stroke="#63b8ff" points="1155.61,-36.67 1163.87,-30.04 1153.27,-30.07 1155.61,-36.67"/>
</a>
</g>
</g>
<!-- Node12 -->
<g id="Node000012" class="node">
<title>Node12</title>
<g id="a_Node000012"><a xlink:title=" ">
<polygon fill="#e0e0e0" stroke="#999999" points="1354,-30 1252,-30 1252,-11 1354,-11 1354,-30"/>
<text text-anchor="middle" x="1303" y="-18" font-family="Helvetica,sans-Serif" font-size="10.00">utils/RtosMutex.h</text>
</a>
</g>
</g>
<!-- Node2&#45;&gt;Node12 -->
<g id="edge11_Node000002_Node000012" class="edge">
<title>Node2&#45;&gt;Node12</title>
<g id="a_edge11_Node000002_Node000012"><a xlink:title=" ">
<path fill="none" stroke="#63b8ff" d="M589.59,-88C600.86,-83.95 614.98,-79.46 628,-77 897.06,-26.27 973.94,-91.73 1243,-41 1252.56,-39.2 1262.72,-36.3 1271.9,-33.28"/>
<polygon fill="#63b8ff" stroke="#63b8ff" points="1273.09,-36.57 1281.41,-30 1270.81,-29.95 1273.09,-36.57"/>
</a>
</g>
</g>
<!-- Node16&#45;&gt;Node4 -->
<g id="edge19_Node000016_Node000004" class="edge">
<title>Node16&#45;&gt;Node4</title>
<g id="a_edge19_Node000016_Node000004"><a xlink:title=" ">
<path fill="none" stroke="#63b8ff" d="M212.24,-87.9C228.71,-75.29 259.61,-51.64 279.74,-36.24"/>
<polygon fill="#63b8ff" stroke="#63b8ff" points="282.08,-38.86 287.89,-30 277.82,-33.3 282.08,-38.86"/>
</a>
</g>
</g>
<!-- Node16&#45;&gt;Node15 -->
<g id="edge17_Node000016_Node000015" class="edge">
<title>Node16&#45;&gt;Node15</title>
<g id="a_edge17_Node000016_Node000015"><a xlink:title=" ">
<path fill="none" stroke="#63b8ff" d="M175.9,-87.96C147.15,-77.89 98.87,-60.09 59,-41 55.31,-39.23 51.47,-37.22 47.77,-35.17"/>
<polygon fill="#63b8ff" stroke="#63b8ff" points="49.39,-32.07 38.98,-30.14 45.92,-38.14 49.39,-32.07"/>
</a>
</g>
</g>
<!-- Node17 -->
<g id="Node000017" class="node">
<title>Node17</title>
<g id="a_Node000017"><a xlink:title=" ">
<polygon fill="#e0e0e0" stroke="#999999" points="121.5,-30 68.5,-30 68.5,-11 121.5,-11 121.5,-30"/>
<text text-anchor="middle" x="95" y="-18" font-family="Helvetica,sans-Serif" font-size="10.00">cstdarg</text>
</a>
</g>
</g>
<!-- Node16&#45;&gt;Node17 -->
<g id="edge16_Node000016_Node000017" class="edge">
<title>Node16&#45;&gt;Node17</title>
<g id="a_edge16_Node000016_Node000017"><a xlink:title=" ">
<path fill="none" stroke="#63b8ff" d="M188.84,-87.9C170.87,-75.18 137,-51.22 115.25,-35.83"/>
<polygon fill="#63b8ff" stroke="#63b8ff" points="117.2,-32.92 107.02,-30 113.16,-38.64 117.2,-32.92"/>
</a>
</g>
</g>
<!-- Node18 -->
<g id="Node000018" class="node">
<title>Node18</title>
<g id="a_Node000018"><a xlink:title=" ">
<polygon fill="#e0e0e0" stroke="#999999" points="184,-30 140,-30 140,-11 184,-11 184,-30"/>
<text text-anchor="middle" x="162" y="-18" font-family="Helvetica,sans-Serif" font-size="10.00">string</text>
</a>
</g>
</g>
<!-- Node16&#45;&gt;Node18 -->
<g id="edge18_Node000016_Node000018" class="edge">
<title>Node16&#45;&gt;Node18</title>
<g id="a_edge18_Node000016_Node000018"><a xlink:title=" ">
<path fill="none" stroke="#63b8ff" d="M196.53,-87.9C190.36,-76.03 179.09,-54.36 171.11,-39.01"/>
<polygon fill="#63b8ff" stroke="#63b8ff" points="174.14,-37.26 166.42,-30 167.93,-40.49 174.14,-37.26"/>
</a>
</g>
</g>
<!-- Node19 -->
<g id="Node000019" class="node">
<title>Node19</title>
<g id="a_Node000019"><a xlink:title=" ">
<polygon fill="#e0e0e0" stroke="#999999" points="252,-30 202,-30 202,-11 252,-11 252,-30"/>
<text text-anchor="middle" x="227" y="-18" font-family="Helvetica,sans-Serif" font-size="10.00">atomic</text>
</a>
</g>
</g>
<!-- Node16&#45;&gt;Node19 -->
<g id="edge20_Node000016_Node000019" class="edge">
<title>Node16&#45;&gt;Node19</title>
<g id="a_edge20_Node000016_Node000019"><a xlink:title=" ">
<path fill="none" stroke="#63b8ff" d="M203.98,-87.9C208.06,-76.14 215.46,-54.78 220.78,-39.45"/>
<polygon fill="#63b8ff" stroke="#63b8ff" points="224.08,-40.6 224.05,-30 217.47,-38.31 224.08,-40.6"/>
</a>
</g>
</g>
</g>
</svg>
