<?xml version="1.0" encoding="UTF-8" standalone="no"?>
<!DOCTYPE svg PUBLIC "-//W3C//DTD SVG 1.1//EN"
 "http://www.w3.org/Graphics/SVG/1.1/DTD/svg11.dtd">
<!-- Generated by graphviz version 2.43.0 (0)
 -->
<!-- Title: Tmc9660Handler::DisableMotor Pages: 1 -->
<svg width="954pt" height="242pt"
 viewBox="0.00 0.00 954.00 241.50" xmlns="http://www.w3.org/2000/svg" xmlns:xlink="http://www.w3.org/1999/xlink">
<g id="graph0" class="graph" transform="scale(1 1) rotate(0) translate(4 237.5)">
<title>Tmc9660Handler::DisableMotor</title>
<!-- Node1 -->
<g id="Node000001" class="node">
<title>Node1</title>
<g id="a_Node000001"><a xlink:title="Disable the motor driver output stage (coast/brake behavior depends on gate driver configuration).">
<polygon fill="#999999" stroke="#666666" points="171,-195.5 0,-195.5 0,-176.5 171,-176.5 171,-195.5"/>
<text text-anchor="middle" x="85.5" y="-183.5" font-family="Helvetica,sans-Serif" font-size="10.00">Tmc9660Handler::DisableMotor</text>
</a>
</g>
</g>
<!-- Node2 -->
<g id="Node000002" class="node">
<title>Node2</title>
<g id="a_Node000002"><a xlink:href="classTmc9660Handler.html#a5a279ae9d4b5a8e0d71cb24577ad88ea" target="_top" xlink:title="Ensure driver is initialized (lazy init entrypoint).">
<polygon fill="white" stroke="#666666" points="394,-122.5 207,-122.5 207,-103.5 394,-103.5 394,-122.5"/>
<text text-anchor="middle" x="300.5" y="-110.5" font-family="Helvetica,sans-Serif" font-size="10.00">Tmc9660Handler::EnsureInitialized</text>
</a>
</g>
</g>
<!-- Node1&#45;&gt;Node2 -->
<g id="edge1_Node000001_Node000002" class="edge">
<title>Node1&#45;&gt;Node2</title>
<g id="a_edge1_Node000001_Node000002"><a xlink:title=" ">
<path fill="none" stroke="#63b8ff" d="M114.35,-176.46C152.14,-163.5 219.78,-140.32 262.01,-125.85"/>
<polygon fill="#63b8ff" stroke="#63b8ff" points="263.32,-129.1 271.65,-122.55 261.05,-122.48 263.32,-129.1"/>
</a>
</g>
</g>
<!-- Node7 -->
<g id="Node000007" class="node">
<title>Node7</title>
<g id="a_Node000007"><a xlink:href="classLogger.html#a5789d11f8f1356e2192c0023a089cbc4" target="_top" xlink:title="Get singleton instance.">
<polygon fill="white" stroke="#666666" points="754.5,-196.5 640.5,-196.5 640.5,-177.5 754.5,-177.5 754.5,-196.5"/>
<text text-anchor="middle" x="697.5" y="-184.5" font-family="Helvetica,sans-Serif" font-size="10.00">Logger::GetInstance</text>
</a>
</g>
</g>
<!-- Node1&#45;&gt;Node7 -->
<g id="edge15_Node000001_Node000007" class="edge">
<title>Node1&#45;&gt;Node7</title>
<g id="a_edge15_Node000001_Node000007"><a xlink:title=" ">
<path fill="none" stroke="#63b8ff" d="M171.32,-186.14C294.01,-186.34 518.5,-186.71 630.01,-186.89"/>
<polygon fill="#63b8ff" stroke="#63b8ff" points="630.11,-190.39 640.11,-186.91 630.12,-183.39 630.11,-190.39"/>
</a>
</g>
</g>
<!-- Node11 -->
<g id="Node000011" class="node">
<title>Node11</title>
<g id="a_Node000011"><a xlink:href="classLogger.html#a8c19c14724b0be1d2be63da4258c001a" target="_top" xlink:title="Log warning message.">
<polygon fill="white" stroke="#666666" points="737.5,-233.5 657.5,-233.5 657.5,-214.5 737.5,-214.5 737.5,-233.5"/>
<text text-anchor="middle" x="697.5" y="-221.5" font-family="Helvetica,sans-Serif" font-size="10.00">Logger::Warn</text>
</a>
</g>
</g>
<!-- Node1&#45;&gt;Node11 -->
<g id="edge16_Node000001_Node000011" class="edge">
<title>Node1&#45;&gt;Node11</title>
<g id="a_edge16_Node000001_Node000011"><a xlink:title=" ">
<path fill="none" stroke="#63b8ff" d="M161.63,-195.51C176.64,-197.19 192.31,-198.79 207,-200 367.73,-213.26 558.79,-220.04 647.16,-222.67"/>
<polygon fill="#63b8ff" stroke="#63b8ff" points="647.32,-226.17 657.42,-222.97 647.53,-219.18 647.32,-226.17"/>
</a>
</g>
</g>
<!-- Node3 -->
<g id="Node000003" class="node">
<title>Node3</title>
<g id="a_Node000003"><a xlink:href="classTmc9660Handler.html#adc564847f8ae26c47412aaee0758991c" target="_top" xlink:title="Initialize the TMC9660 device.">
<polygon fill="white" stroke="#666666" points="578,-103.5 430,-103.5 430,-84.5 578,-84.5 578,-103.5"/>
<text text-anchor="middle" x="504" y="-91.5" font-family="Helvetica,sans-Serif" font-size="10.00">Tmc9660Handler::Initialize</text>
</a>
</g>
</g>
<!-- Node2&#45;&gt;Node3 -->
<g id="edge2_Node000002_Node000003" class="edge">
<title>Node2&#45;&gt;Node3</title>
<g id="a_edge2_Node000002_Node000003"><a xlink:title=" ">
<path fill="none" stroke="#63b8ff" d="M394.29,-104.25C402.73,-103.45 411.25,-102.65 419.61,-101.86"/>
<polygon fill="#63b8ff" stroke="#63b8ff" points="420.08,-105.33 429.7,-100.91 419.42,-98.37 420.08,-105.33"/>
</a>
</g>
</g>
<!-- Node9 -->
<g id="Node000009" class="node">
<title>Node9</title>
<g id="a_Node000009"><a xlink:href="classTmc9660Handler.html#a13db97d201a287d8aa60384e04070b9f" target="_top" xlink:title="Check if the TMC9660 driver has been initialized and is ready.">
<polygon fill="white" stroke="#666666" points="769.5,-30 625.5,-30 625.5,0 769.5,0 769.5,-30"/>
<text text-anchor="start" x="633.5" y="-18" font-family="Helvetica,sans-Serif" font-size="10.00">Tmc9660Handler::IsDriver</text>
<text text-anchor="middle" x="697.5" y="-7" font-family="Helvetica,sans-Serif" font-size="10.00">Ready</text>
</a>
</g>
</g>
<!-- Node2&#45;&gt;Node9 -->
<g id="edge14_Node000002_Node000009" class="edge">
<title>Node2&#45;&gt;Node9</title>
<g id="a_edge14_Node000002_Node000009"><a xlink:title=" ">
<path fill="none" stroke="#63b8ff" d="M332.79,-103.47C358.73,-95.69 396.62,-84.62 430,-76 492.06,-59.98 562.81,-43.88 615.81,-32.25"/>
<polygon fill="#63b8ff" stroke="#63b8ff" points="616.8,-35.62 625.82,-30.06 615.31,-28.78 616.8,-35.62"/>
</a>
</g>
</g>
<!-- Node4 -->
<g id="Node000004" class="node">
<title>Node4</title>
<g id="a_Node000004"><a xlink:href="classLogger.html#a5e4bcdaea60b9ac227b564d780388769" target="_top" xlink:title="Log error message.">
<polygon fill="white" stroke="#666666" points="737,-104.5 658,-104.5 658,-85.5 737,-85.5 737,-104.5"/>
<text text-anchor="middle" x="697.5" y="-92.5" font-family="Helvetica,sans-Serif" font-size="10.00">Logger::Error</text>
</a>
</g>
</g>
<!-- Node3&#45;&gt;Node4 -->
<g id="edge3_Node000003_Node000004" class="edge">
<title>Node3&#45;&gt;Node4</title>
<g id="a_edge3_Node000003_Node000004"><a xlink:title=" ">
<path fill="none" stroke="#63b8ff" d="M578.22,-94.38C601.54,-94.5 626.75,-94.64 647.88,-94.75"/>
<polygon fill="#63b8ff" stroke="#63b8ff" points="647.88,-98.25 657.9,-94.8 647.92,-91.25 647.88,-98.25"/>
</a>
</g>
</g>
<!-- Node3&#45;&gt;Node7 -->
<g id="edge6_Node000003_Node000007" class="edge">
<title>Node3&#45;&gt;Node7</title>
<g id="a_edge6_Node000003_Node000007"><a xlink:title=" ">
<path fill="none" stroke="#63b8ff" d="M515.9,-103.69C534.59,-119.78 574.58,-151.93 614,-169 619.13,-171.22 624.56,-173.18 630.09,-174.91"/>
<polygon fill="#63b8ff" stroke="#63b8ff" points="629.53,-178.39 640.1,-177.77 631.45,-171.65 629.53,-178.39"/>
</a>
</g>
</g>
<!-- Node8 -->
<g id="Node000008" class="node">
<title>Node8</title>
<g id="a_Node000008"><a xlink:href="classLogger.html#a1c0c947d87884bca0395fd38d19d1102" target="_top" xlink:title="Log info message.">
<polygon fill="white" stroke="#666666" points="734.5,-67.5 660.5,-67.5 660.5,-48.5 734.5,-48.5 734.5,-67.5"/>
<text text-anchor="middle" x="697.5" y="-55.5" font-family="Helvetica,sans-Serif" font-size="10.00">Logger::Info</text>
</a>
</g>
</g>
<!-- Node3&#45;&gt;Node8 -->
<g id="edge7_Node000003_Node000008" class="edge">
<title>Node3&#45;&gt;Node8</title>
<g id="a_edge7_Node000003_Node000008"><a xlink:title=" ">
<path fill="none" stroke="#63b8ff" d="M555.56,-84.49C584.88,-78.98 621.52,-72.1 650.09,-66.72"/>
<polygon fill="#63b8ff" stroke="#63b8ff" points="651.05,-70.11 660.23,-64.82 649.75,-63.23 651.05,-70.11"/>
</a>
</g>
</g>
<!-- Node3&#45;&gt;Node9 -->
<g id="edge10_Node000003_Node000009" class="edge">
<title>Node3&#45;&gt;Node9</title>
<g id="a_edge10_Node000003_Node000009"><a xlink:title=" ">
<path fill="none" stroke="#63b8ff" d="M521.55,-84.44C542.53,-72.6 580.08,-52.36 614,-39 619.12,-36.98 624.47,-35.05 629.89,-33.22"/>
<polygon fill="#63b8ff" stroke="#63b8ff" points="631.25,-36.46 639.67,-30.03 629.08,-29.8 631.25,-36.46"/>
</a>
</g>
</g>
<!-- Node10 -->
<g id="Node000010" class="node">
<title>Node10</title>
<g id="a_Node000010"><a xlink:href="classTmc9660Handler.html#a393382194d0602e7aa02da6a8fd7a20a" target="_top" xlink:title="Get a reference to the Temperature wrapper.">
<polygon fill="white" stroke="#666666" points="781,-141.5 614,-141.5 614,-122.5 781,-122.5 781,-141.5"/>
<text text-anchor="middle" x="697.5" y="-129.5" font-family="Helvetica,sans-Serif" font-size="10.00">Tmc9660Handler::temperature</text>
</a>
</g>
</g>
<!-- Node3&#45;&gt;Node10 -->
<g id="edge11_Node000003_Node000010" class="edge">
<title>Node3&#45;&gt;Node10</title>
<g id="a_edge11_Node000003_Node000010"><a xlink:title=" ">
<path fill="none" stroke="#63b8ff" d="M553.32,-103.59C579.16,-108.72 611.17,-115.07 638.36,-120.46"/>
<polygon fill="#63b8ff" stroke="#63b8ff" points="638.03,-123.97 648.52,-122.48 639.4,-117.1 638.03,-123.97"/>
</a>
</g>
</g>
<!-- Node5 -->
<g id="Node000005" class="node">
<title>Node5</title>
<g id="a_Node000005"><a xlink:href="classLogger.html#a737b981213c02321a5235848334d7191" target="_top" xlink:title="Check if log level is enabled for tag.">
<polygon fill="white" stroke="#666666" points="946,-122.5 817,-122.5 817,-103.5 946,-103.5 946,-122.5"/>
<text text-anchor="middle" x="881.5" y="-110.5" font-family="Helvetica,sans-Serif" font-size="10.00">Logger::IsLevelEnabled</text>
</a>
</g>
</g>
<!-- Node4&#45;&gt;Node5 -->
<g id="edge4_Node000004_Node000005" class="edge">
<title>Node4&#45;&gt;Node5</title>
<g id="a_edge4_Node000004_Node000005"><a xlink:title=" ">
<path fill="none" stroke="#63b8ff" d="M737.1,-98.82C757.37,-100.82 782.9,-103.35 806.78,-105.71"/>
<polygon fill="#63b8ff" stroke="#63b8ff" points="806.6,-109.21 816.89,-106.71 807.29,-102.24 806.6,-109.21"/>
</a>
</g>
</g>
<!-- Node6 -->
<g id="Node000006" class="node">
<title>Node6</title>
<g id="a_Node000006"><a xlink:href="classLogger.html#aeede6ac18db92a47caede076ef188a13" target="_top" xlink:title="Internal logging method.">
<polygon fill="white" stroke="#666666" points="936.5,-85.5 826.5,-85.5 826.5,-66.5 936.5,-66.5 936.5,-85.5"/>
<text text-anchor="middle" x="881.5" y="-73.5" font-family="Helvetica,sans-Serif" font-size="10.00">Logger::LogInternal</text>
</a>
</g>
</g>
<!-- Node4&#45;&gt;Node6 -->
<g id="edge5_Node000004_Node000006" class="edge">
<title>Node4&#45;&gt;Node6</title>
<g id="a_edge5_Node000004_Node000006"><a xlink:title=" ">
<path fill="none" stroke="#63b8ff" d="M737.1,-90.97C760.14,-88.57 789.97,-85.45 816.46,-82.69"/>
<polygon fill="#63b8ff" stroke="#63b8ff" points="816.84,-86.16 826.43,-81.65 816.12,-79.2 816.84,-86.16"/>
</a>
</g>
</g>
<!-- Node8&#45;&gt;Node5 -->
<g id="edge8_Node000008_Node000005" class="edge">
<title>Node8&#45;&gt;Node5</title>
<g id="a_edge8_Node000008_Node000005"><a xlink:title=" ">
<path fill="none" stroke="#63b8ff" d="M734.77,-64.41C749.36,-67.49 766.2,-71.68 781,-77 797.83,-83.05 800.32,-88.53 817,-95 822.07,-96.97 827.45,-98.83 832.85,-100.55"/>
<polygon fill="#63b8ff" stroke="#63b8ff" points="831.92,-103.92 842.51,-103.49 833.96,-97.23 831.92,-103.92"/>
</a>
</g>
</g>
<!-- Node8&#45;&gt;Node6 -->
<g id="edge9_Node000008_Node000006" class="edge">
<title>Node8&#45;&gt;Node6</title>
<g id="a_edge9_Node000008_Node000006"><a xlink:title=" ">
<path fill="none" stroke="#63b8ff" d="M734.89,-61.6C758.07,-63.89 788.75,-66.93 815.97,-69.62"/>
<polygon fill="#63b8ff" stroke="#63b8ff" points="815.92,-73.13 826.21,-70.63 816.61,-66.16 815.92,-73.13"/>
</a>
</g>
</g>
<!-- Node10&#45;&gt;Node2 -->
<g id="edge12_Node000010_Node000002" class="edge">
<title>Node10&#45;&gt;Node2</title>
<g id="a_edge12_Node000010_Node000002"><a xlink:title=" ">
<path fill="none" stroke="#63b8ff" d="M613.87,-128.03C552.94,-125.09 469.67,-121.09 404.42,-117.95"/>
<polygon fill="#63b8ff" stroke="#63b8ff" points="404.27,-114.44 394.11,-117.45 403.93,-121.43 404.27,-114.44"/>
</a>
</g>
</g>
<!-- Node10&#45;&gt;Node10 -->
<g id="edge13_Node000010_Node000010" class="edge">
<title>Node10&#45;&gt;Node10</title>
<g id="a_edge13_Node000010_Node000010"><a xlink:title=" ">
<path fill="none" stroke="#63b8ff" d="M669.14,-141.58C655.34,-150.23 664.8,-159.5 697.5,-159.5 719.98,-159.5 731.48,-155.12 731.98,-149.57"/>
<polygon fill="#63b8ff" stroke="#63b8ff" points="734.72,-147.39 725.86,-141.58 729.16,-151.65 734.72,-147.39"/>
</a>
</g>
</g>
<!-- Node11&#45;&gt;Node5 -->
<g id="edge17_Node000011_Node000005" class="edge">
<title>Node11&#45;&gt;Node5</title>
<g id="a_edge17_Node000011_Node000005"><a xlink:title=" ">
<path fill="none" stroke="#63b8ff" d="M737.77,-219.84C751.97,-217.22 767.76,-212.95 781,-206 816.88,-187.17 849.32,-151.87 866.84,-130.59"/>
<polygon fill="#63b8ff" stroke="#63b8ff" points="869.66,-132.66 873.2,-122.68 864.21,-128.28 869.66,-132.66"/>
</a>
</g>
</g>
<!-- Node11&#45;&gt;Node6 -->
<g id="edge18_Node000011_Node000006" class="edge">
<title>Node11&#45;&gt;Node6</title>
<g id="a_edge18_Node000011_Node000006"><a xlink:title=" ">
<path fill="none" stroke="#63b8ff" d="M737.57,-223.57C752.75,-221.49 769.27,-216.63 781,-206 819.44,-171.18 779.91,-131.25 817,-95 818.48,-93.55 820.07,-92.21 821.74,-90.98"/>
<polygon fill="#63b8ff" stroke="#63b8ff" points="823.92,-93.75 830.68,-85.6 820.31,-87.75 823.92,-93.75"/>
</a>
</g>
</g>
</g>
</svg>
