<?xml version="1.0" encoding="UTF-8" standalone="no"?>
<!DOCTYPE svg PUBLIC "-//W3C//DTD SVG 1.1//EN"
 "http://www.w3.org/Graphics/SVG/1.1/DTD/svg11.dtd">
<!-- Generated by graphviz version 2.43.0 (0)
 -->
<!-- Title: Bno08xHandler::DumpDiagnostics Pages: 1 -->
<svg width="551pt" height="205pt"
 viewBox="0.00 0.00 551.00 205.00" xmlns="http://www.w3.org/2000/svg" xmlns:xlink="http://www.w3.org/1999/xlink">
<g id="graph0" class="graph" transform="scale(1 1) rotate(0) translate(4 201)">
<title>Bno08xHandler::DumpDiagnostics</title>
<!-- Node1 -->
<g id="Node000001" class="node">
<title>Node1</title>
<g id="a_Node000001"><a xlink:title="Dump comprehensive diagnostics to the logger.">
<polygon fill="#999999" stroke="#666666" points="184,-117 0,-117 0,-98 184,-98 184,-117"/>
<text text-anchor="middle" x="92" y="-105" font-family="Helvetica,sans-Serif" font-size="10.00">Bno08xHandler::DumpDiagnostics</text>
</a>
</g>
</g>
<!-- Node2 -->
<g id="Node000002" class="node">
<title>Node2</title>
<g id="a_Node000002"><a xlink:href="Bno08xHandler_8h.html#a929bff75c00c4ce529177b0640cdf58c" target="_top" xlink:title="Convert Bno08xError to string for debugging.">
<polygon fill="white" stroke="#666666" points="357,-197 241,-197 241,-178 357,-178 357,-197"/>
<text text-anchor="middle" x="299" y="-185" font-family="Helvetica,sans-Serif" font-size="10.00">Bno08xErrorToString</text>
</a>
</g>
</g>
<!-- Node1&#45;&gt;Node2 -->
<g id="edge1_Node000001_Node000002" class="edge">
<title>Node1&#45;&gt;Node2</title>
<g id="a_edge1_Node000001_Node000002"><a xlink:title=" ">
<path fill="none" stroke="#63b8ff" d="M109.72,-117.2C133.51,-130.64 178.83,-154.92 220,-169.5 226.02,-171.63 232.39,-173.58 238.79,-175.34"/>
<polygon fill="#63b8ff" stroke="#63b8ff" points="238.27,-178.82 248.83,-177.95 240.03,-172.04 238.27,-178.82"/>
</a>
</g>
</g>
<!-- Node3 -->
<g id="Node000003" class="node">
<title>Node3</title>
<g id="a_Node000003"><a xlink:href="classLogger.html#a5789d11f8f1356e2192c0023a089cbc4" target="_top" xlink:title="Get singleton instance.">
<polygon fill="white" stroke="#666666" points="356,-160 242,-160 242,-141 356,-141 356,-160"/>
<text text-anchor="middle" x="299" y="-148" font-family="Helvetica,sans-Serif" font-size="10.00">Logger::GetInstance</text>
</a>
</g>
</g>
<!-- Node1&#45;&gt;Node3 -->
<g id="edge2_Node000001_Node000003" class="edge">
<title>Node1&#45;&gt;Node3</title>
<g id="a_edge2_Node000001_Node000003"><a xlink:title=" ">
<path fill="none" stroke="#63b8ff" d="M138.5,-117.04C169.28,-123.5 210.13,-132.07 242.78,-138.92"/>
<polygon fill="#63b8ff" stroke="#63b8ff" points="242.13,-142.36 252.63,-140.98 243.56,-135.51 242.13,-142.36"/>
</a>
</g>
</g>
<!-- Node4 -->
<g id="Node000004" class="node">
<title>Node4</title>
<g id="a_Node000004"><a xlink:href="classIBno08xDriverOps.html#ade5ca399da28b49b2b9b1851cd189ede" target="_top" xlink:title=" ">
<polygon fill="white" stroke="#666666" points="373.5,-122.5 224.5,-122.5 224.5,-92.5 373.5,-92.5 373.5,-122.5"/>
<text text-anchor="start" x="232.5" y="-110.5" font-family="Helvetica,sans-Serif" font-size="10.00">IBno08xDriverOps::GetLast</text>
<text text-anchor="middle" x="299" y="-99.5" font-family="Helvetica,sans-Serif" font-size="10.00">Error</text>
</a>
</g>
</g>
<!-- Node1&#45;&gt;Node4 -->
<g id="edge3_Node000001_Node000004" class="edge">
<title>Node1&#45;&gt;Node4</title>
<g id="a_edge3_Node000001_Node000004"><a xlink:title=" ">
<path fill="none" stroke="#63b8ff" d="M184.11,-107.5C194.11,-107.5 204.26,-107.5 214.16,-107.5"/>
<polygon fill="#63b8ff" stroke="#63b8ff" points="214.38,-111 224.38,-107.5 214.38,-104 214.38,-111"/>
</a>
</g>
</g>
<!-- Node5 -->
<g id="Node000005" class="node">
<title>Node5</title>
<g id="a_Node000005"><a xlink:href="classIBno08xDriverOps.html#ab2a749539196e1ba1362837595b048d7" target="_top" xlink:title=" ">
<polygon fill="white" stroke="#666666" points="378,-74 220,-74 220,-55 378,-55 378,-74"/>
<text text-anchor="middle" x="299" y="-62" font-family="Helvetica,sans-Serif" font-size="10.00">IBno08xDriverOps::GetLatest</text>
</a>
</g>
</g>
<!-- Node1&#45;&gt;Node5 -->
<g id="edge4_Node000001_Node000005" class="edge">
<title>Node1&#45;&gt;Node5</title>
<g id="a_edge4_Node000001_Node000005"><a xlink:title=" ">
<path fill="none" stroke="#63b8ff" d="M138.5,-97.96C169.28,-91.5 210.13,-82.93 242.78,-76.08"/>
<polygon fill="#63b8ff" stroke="#63b8ff" points="243.56,-79.49 252.63,-74.02 242.13,-72.64 243.56,-79.49"/>
</a>
</g>
</g>
<!-- Node6 -->
<g id="Node000006" class="node">
<title>Node6</title>
<g id="a_Node000006"><a xlink:href="classLogger.html#a4681229c521795685fc14f6b55c82300" target="_top" xlink:title="Log info message.">
<polygon fill="white" stroke="#666666" points="336,-37 262,-37 262,-18 336,-18 336,-37"/>
<text text-anchor="middle" x="299" y="-25" font-family="Helvetica,sans-Serif" font-size="10.00">Logger::Info</text>
</a>
</g>
</g>
<!-- Node1&#45;&gt;Node6 -->
<g id="edge5_Node000001_Node000006" class="edge">
<title>Node1&#45;&gt;Node6</title>
<g id="a_edge5_Node000001_Node000006"><a xlink:title=" ">
<path fill="none" stroke="#63b8ff" d="M110.17,-97.82C134.13,-84.66 179.23,-61.08 220,-46.5 230.14,-42.87 241.27,-39.7 251.87,-37.05"/>
<polygon fill="#63b8ff" stroke="#63b8ff" points="252.91,-40.4 261.81,-34.66 251.27,-33.59 252.91,-40.4"/>
</a>
</g>
</g>
<!-- Node7 -->
<g id="Node000007" class="node">
<title>Node7</title>
<g id="a_Node000007"><a xlink:href="classLogger.html#af9e84e0ff6bd538e4f9ed8dcebc3e2f0" target="_top" xlink:title="Check if log level is enabled for tag.">
<polygon fill="white" stroke="#666666" points="543,-56 414,-56 414,-37 543,-37 543,-56"/>
<text text-anchor="middle" x="478.5" y="-44" font-family="Helvetica,sans-Serif" font-size="10.00">Logger::IsLevelEnabled</text>
</a>
</g>
</g>
<!-- Node6&#45;&gt;Node7 -->
<g id="edge6_Node000006_Node000007" class="edge">
<title>Node6&#45;&gt;Node7</title>
<g id="a_edge6_Node000006_Node000007"><a xlink:title=" ">
<path fill="none" stroke="#63b8ff" d="M336.35,-31.39C355.79,-33.47 380.45,-36.11 403.7,-38.6"/>
<polygon fill="#63b8ff" stroke="#63b8ff" points="403.59,-42.11 413.91,-39.69 404.34,-35.15 403.59,-42.11"/>
</a>
</g>
</g>
<!-- Node8 -->
<g id="Node000008" class="node">
<title>Node8</title>
<g id="a_Node000008"><a xlink:href="classLogger.html#a6adb205db597526fb91ad20067400394" target="_top" xlink:title="Internal logging method.">
<polygon fill="white" stroke="#666666" points="533.5,-19 423.5,-19 423.5,0 533.5,0 533.5,-19"/>
<text text-anchor="middle" x="478.5" y="-7" font-family="Helvetica,sans-Serif" font-size="10.00">Logger::LogInternal</text>
</a>
</g>
</g>
<!-- Node6&#45;&gt;Node8 -->
<g id="edge7_Node000006_Node000008" class="edge">
<title>Node6&#45;&gt;Node8</title>
<g id="a_edge7_Node000006_Node000008"><a xlink:title=" ">
<path fill="none" stroke="#63b8ff" d="M336.35,-23.81C358.46,-21.57 387.34,-18.64 413.22,-16.02"/>
<polygon fill="#63b8ff" stroke="#63b8ff" points="413.74,-19.48 423.34,-14.99 413.04,-12.52 413.74,-19.48"/>
</a>
</g>
</g>
</g>
</svg>
