<?xml version="1.0" encoding="UTF-8" standalone="no"?>
<!DOCTYPE svg PUBLIC "-//W3C//DTD SVG 1.1//EN"
 "http://www.w3.org/Graphics/SVG/1.1/DTD/svg11.dtd">
<!-- Generated by graphviz version 2.43.0 (0)
 -->
<!-- Title: Tle92466edHandler::Initialize Pages: 1 -->
<svg width="601pt" height="566pt"
 viewBox="0.00 0.00 601.00 566.00" xmlns="http://www.w3.org/2000/svg" xmlns:xlink="http://www.w3.org/1999/xlink">
<g id="graph0" class="graph" transform="scale(1 1) rotate(0) translate(4 562)">
<title>Tle92466edHandler::Initialize</title>
<!-- Node1 -->
<g id="Node000001" class="node">
<title>Node1</title>
<g id="a_Node000001"><a xlink:title="Initialize driver (hardware reset + SPI init + enter config mode).">
<polygon fill="#999999" stroke="#666666" points="593,-294 475,-294 475,-264 593,-264 593,-294"/>
<text text-anchor="start" x="483" y="-282" font-family="Helvetica,sans-Serif" font-size="10.00">Tle92466edHandler::</text>
<text text-anchor="middle" x="534" y="-271" font-family="Helvetica,sans-Serif" font-size="10.00">Initialize</text>
</a>
</g>
</g>
<!-- Node2 -->
<g id="Node000002" class="node">
<title>Node2</title>
<g id="a_Node000002"><a xlink:href="classTle92466edHandler.html#a59ce7fd71a61c78bba4dc4a43c99e280" target="_top" xlink:title=" ">
<polygon fill="white" stroke="#666666" points="439,-294 308,-294 308,-264 439,-264 439,-294"/>
<text text-anchor="start" x="316" y="-282" font-family="Helvetica,sans-Serif" font-size="10.00">Tle92466edHandler::</text>
<text text-anchor="middle" x="373.5" y="-271" font-family="Helvetica,sans-Serif" font-size="10.00">EnsureInitializedLocked</text>
</a>
</g>
</g>
<!-- Node1&#45;&gt;Node2 -->
<g id="edge1_Node000001_Node000002" class="edge">
<title>Node1&#45;&gt;Node2</title>
<g id="a_edge1_Node000001_Node000002"><a xlink:title=" ">
<path fill="none" stroke="#63b8ff" d="M464.63,-279C456.13,-279 447.47,-279 439.03,-279"/>
<polygon fill="#63b8ff" stroke="#63b8ff" points="464.88,-282.5 474.88,-279 464.88,-275.5 464.88,-282.5"/>
</a>
</g>
</g>
<!-- Node3 -->
<g id="Node000003" class="node">
<title>Node3</title>
<g id="a_Node000003"><a xlink:href="classTle92466edHandler.html#a61a76044cfd01bc741e5b86fce5cf592" target="_top" xlink:title="Clear all fault flags.">
<polygon fill="white" stroke="#666666" points="272,-558 154,-558 154,-528 272,-528 272,-558"/>
<text text-anchor="start" x="162" y="-546" font-family="Helvetica,sans-Serif" font-size="10.00">Tle92466edHandler::</text>
<text text-anchor="middle" x="213" y="-535" font-family="Helvetica,sans-Serif" font-size="10.00">ClearFaults</text>
</a>
</g>
</g>
<!-- Node2&#45;&gt;Node3 -->
<g id="edge2_Node000002_Node000003" class="edge">
<title>Node2&#45;&gt;Node3</title>
<g id="a_edge2_Node000002_Node000003"><a xlink:title=" ">
<path fill="none" stroke="#63b8ff" d="M368.46,-304.3C359.52,-352.35 333.77,-457.49 272,-519 268.6,-522.38 264.66,-525.31 260.46,-527.84"/>
<polygon fill="#63b8ff" stroke="#63b8ff" points="371.95,-304.61 370.25,-294.16 365.06,-303.39 371.95,-304.61"/>
</a>
</g>
</g>
<!-- Node4 -->
<g id="Node000004" class="node">
<title>Node4</title>
<g id="a_Node000004"><a xlink:href="classTle92466edHandler.html#ad8eb36eac8e534aee77e3862f59f4813" target="_top" xlink:title="Disable all channels.">
<polygon fill="white" stroke="#666666" points="272,-510 154,-510 154,-480 272,-480 272,-510"/>
<text text-anchor="start" x="162" y="-498" font-family="Helvetica,sans-Serif" font-size="10.00">Tle92466edHandler::</text>
<text text-anchor="middle" x="213" y="-487" font-family="Helvetica,sans-Serif" font-size="10.00">DisableAllChannels</text>
</a>
</g>
</g>
<!-- Node2&#45;&gt;Node4 -->
<g id="edge3_Node000002_Node000004" class="edge">
<title>Node2&#45;&gt;Node4</title>
<g id="a_edge3_Node000002_Node000004"><a xlink:title=" ">
<path fill="none" stroke="#63b8ff" d="M365.54,-304C353.12,-344.32 323.5,-423.93 272,-471 268.3,-474.38 264.06,-477.32 259.59,-479.87"/>
<polygon fill="#63b8ff" stroke="#63b8ff" points="368.96,-304.76 368.46,-294.18 362.25,-302.77 368.96,-304.76"/>
</a>
</g>
</g>
<!-- Node5 -->
<g id="Node000005" class="node">
<title>Node5</title>
<g id="a_Node000005"><a xlink:href="classTle92466edHandler.html#afcec01ba90f6596dcde99387ef41b6e4" target="_top" xlink:title="Dump diagnostics to logger.">
<polygon fill="white" stroke="#666666" points="272,-462 154,-462 154,-432 272,-432 272,-462"/>
<text text-anchor="start" x="162" y="-450" font-family="Helvetica,sans-Serif" font-size="10.00">Tle92466edHandler::</text>
<text text-anchor="middle" x="213" y="-439" font-family="Helvetica,sans-Serif" font-size="10.00">DumpDiagnostics</text>
</a>
</g>
</g>
<!-- Node2&#45;&gt;Node5 -->
<g id="edge4_Node000002_Node000005" class="edge">
<title>Node2&#45;&gt;Node5</title>
<g id="a_edge4_Node000002_Node000005"><a xlink:title=" ">
<path fill="none" stroke="#63b8ff" d="M360.94,-303.55C344.97,-335.09 313.39,-389.74 272,-423 267.84,-426.34 263.14,-429.29 258.27,-431.86"/>
<polygon fill="#63b8ff" stroke="#63b8ff" points="364.28,-304.69 365.57,-294.17 358,-301.59 364.28,-304.69"/>
</a>
</g>
</g>
<!-- Node6 -->
<g id="Node000006" class="node">
<title>Node6</title>
<g id="a_Node000006"><a xlink:href="classTle92466edHandler.html#a41e1f26179783158819584deb99203f8" target="_top" xlink:title="Enable all channels.">
<polygon fill="white" stroke="#666666" points="272,-414 154,-414 154,-384 272,-384 272,-414"/>
<text text-anchor="start" x="162" y="-402" font-family="Helvetica,sans-Serif" font-size="10.00">Tle92466edHandler::</text>
<text text-anchor="middle" x="213" y="-391" font-family="Helvetica,sans-Serif" font-size="10.00">EnableAllChannels</text>
</a>
</g>
</g>
<!-- Node2&#45;&gt;Node6 -->
<g id="edge5_Node000002_Node000006" class="edge">
<title>Node2&#45;&gt;Node6</title>
<g id="a_edge5_Node000002_Node000006"><a xlink:title=" ">
<path fill="none" stroke="#63b8ff" d="M353.26,-301.71C334.33,-322.92 303.73,-354.33 272,-375 266.98,-378.27 261.44,-381.25 255.83,-383.9"/>
<polygon fill="#63b8ff" stroke="#63b8ff" points="355.95,-303.95 359.92,-294.12 350.69,-299.33 355.95,-303.95"/>
</a>
</g>
</g>
<!-- Node7 -->
<g id="Node000007" class="node">
<title>Node7</title>
<g id="a_Node000007"><a xlink:href="classTle92466edHandler.html#a1a976346516812f7125cdeb2f3aeb327" target="_top" xlink:title="Ensure driver is initialized (lazy init entrypoint).">
<polygon fill="white" stroke="#666666" points="272,-366 154,-366 154,-336 272,-336 272,-366"/>
<text text-anchor="start" x="162" y="-354" font-family="Helvetica,sans-Serif" font-size="10.00">Tle92466edHandler::</text>
<text text-anchor="middle" x="213" y="-343" font-family="Helvetica,sans-Serif" font-size="10.00">EnsureInitialized</text>
</a>
</g>
</g>
<!-- Node2&#45;&gt;Node7 -->
<g id="edge6_Node000002_Node000007" class="edge">
<title>Node2&#45;&gt;Node7</title>
<g id="a_edge6_Node000002_Node000007"><a xlink:title=" ">
<path fill="none" stroke="#63b8ff" d="M332.68,-298.62C314.31,-307.51 292.16,-318.02 272,-327 265.33,-329.97 258.18,-333.03 251.25,-335.93"/>
<polygon fill="#63b8ff" stroke="#63b8ff" points="334.44,-301.65 341.91,-294.13 331.38,-295.36 334.44,-301.65"/>
</a>
</g>
</g>
<!-- Node8 -->
<g id="Node000008" class="node">
<title>Node8</title>
<g id="a_Node000008"><a xlink:href="classTle92466edHandler.html#a0fa95ebc85ab477497525eea4ab59d94" target="_top" xlink:title="Enter config mode (for register writes).">
<polygon fill="white" stroke="#666666" points="272,-318 154,-318 154,-288 272,-288 272,-318"/>
<text text-anchor="start" x="162" y="-306" font-family="Helvetica,sans-Serif" font-size="10.00">Tle92466edHandler::</text>
<text text-anchor="middle" x="213" y="-295" font-family="Helvetica,sans-Serif" font-size="10.00">EnterConfigMode</text>
</a>
</g>
</g>
<!-- Node2&#45;&gt;Node8 -->
<g id="edge7_Node000002_Node000008" class="edge">
<title>Node2&#45;&gt;Node8</title>
<g id="a_edge7_Node000002_Node000008"><a xlink:title=" ">
<path fill="none" stroke="#63b8ff" d="M297.61,-290.34C289.08,-291.63 280.48,-292.93 272.21,-294.19"/>
<polygon fill="#63b8ff" stroke="#63b8ff" points="298.21,-293.79 307.57,-288.83 297.16,-286.87 298.21,-293.79"/>
</a>
</g>
</g>
<!-- Node9 -->
<g id="Node000009" class="node">
<title>Node9</title>
<g id="a_Node000009"><a xlink:href="classTle92466edHandler.html#a8e8602032981d1c684a3d9e5051c043a" target="_top" xlink:title="Enter mission mode (enable outputs after configuration).">
<polygon fill="white" stroke="#666666" points="272,-270 154,-270 154,-240 272,-240 272,-270"/>
<text text-anchor="start" x="162" y="-258" font-family="Helvetica,sans-Serif" font-size="10.00">Tle92466edHandler::</text>
<text text-anchor="middle" x="213" y="-247" font-family="Helvetica,sans-Serif" font-size="10.00">EnterMissionMode</text>
</a>
</g>
</g>
<!-- Node2&#45;&gt;Node9 -->
<g id="edge8_Node000002_Node000009" class="edge">
<title>Node2&#45;&gt;Node9</title>
<g id="a_edge8_Node000002_Node000009"><a xlink:title=" ">
<path fill="none" stroke="#63b8ff" d="M297.61,-267.66C289.08,-266.37 280.48,-265.07 272.21,-263.81"/>
<polygon fill="#63b8ff" stroke="#63b8ff" points="297.16,-271.13 307.57,-269.17 298.21,-264.21 297.16,-271.13"/>
</a>
</g>
</g>
<!-- Node10 -->
<g id="Node000010" class="node">
<title>Node10</title>
<g id="a_Node000010"><a xlink:href="classTle92466edHandler.html#a4c646ee5db271f07517cc15e8a623f0e" target="_top" xlink:title="Get chip ID (returns 0 on error).">
<polygon fill="white" stroke="#666666" points="272,-222 154,-222 154,-192 272,-192 272,-222"/>
<text text-anchor="start" x="162" y="-210" font-family="Helvetica,sans-Serif" font-size="10.00">Tle92466edHandler::</text>
<text text-anchor="middle" x="213" y="-199" font-family="Helvetica,sans-Serif" font-size="10.00">GetChipId</text>
</a>
</g>
</g>
<!-- Node2&#45;&gt;Node10 -->
<g id="edge9_Node000002_Node000010" class="edge">
<title>Node2&#45;&gt;Node10</title>
<g id="a_edge9_Node000002_Node000010"><a xlink:title=" ">
<path fill="none" stroke="#63b8ff" d="M332.68,-259.38C314.31,-250.49 292.16,-239.98 272,-231 265.33,-228.03 258.18,-224.97 251.25,-222.07"/>
<polygon fill="#63b8ff" stroke="#63b8ff" points="331.38,-262.64 341.91,-263.87 334.44,-256.35 331.38,-262.64"/>
</a>
</g>
</g>
<!-- Node11 -->
<g id="Node000011" class="node">
<title>Node11</title>
<g id="a_Node000011"><a xlink:href="classTle92466edHandler.html#ae83bbf85e50d68c8adcc2160bdaed271" target="_top" xlink:title="Get the underlying driver for advanced operations.">
<polygon fill="white" stroke="#666666" points="272,-174 154,-174 154,-144 272,-144 272,-174"/>
<text text-anchor="start" x="162" y="-162" font-family="Helvetica,sans-Serif" font-size="10.00">Tle92466edHandler::</text>
<text text-anchor="middle" x="213" y="-151" font-family="Helvetica,sans-Serif" font-size="10.00">GetDriver</text>
</a>
</g>
</g>
<!-- Node2&#45;&gt;Node11 -->
<g id="edge10_Node000002_Node000011" class="edge">
<title>Node2&#45;&gt;Node11</title>
<g id="a_edge10_Node000002_Node000011"><a xlink:title=" ">
<path fill="none" stroke="#63b8ff" d="M353.26,-256.29C334.33,-235.08 303.73,-203.67 272,-183 266.98,-179.73 261.44,-176.75 255.83,-174.1"/>
<polygon fill="#63b8ff" stroke="#63b8ff" points="350.69,-258.67 359.92,-263.88 355.95,-254.05 350.69,-258.67"/>
</a>
</g>
</g>
<!-- Node13 -->
<g id="Node000013" class="node">
<title>Node13</title>
<g id="a_Node000013"><a xlink:href="classTle92466edHandler.html#a0c29d4ada1c9247dc90fb64d914dec1f" target="_top" xlink:title="Get IC version (returns 0 on error).">
<polygon fill="white" stroke="#666666" points="272,-126 154,-126 154,-96 272,-96 272,-126"/>
<text text-anchor="start" x="162" y="-114" font-family="Helvetica,sans-Serif" font-size="10.00">Tle92466edHandler::</text>
<text text-anchor="middle" x="213" y="-103" font-family="Helvetica,sans-Serif" font-size="10.00">GetIcVersion</text>
</a>
</g>
</g>
<!-- Node2&#45;&gt;Node13 -->
<g id="edge12_Node000002_Node000013" class="edge">
<title>Node2&#45;&gt;Node13</title>
<g id="a_edge12_Node000002_Node000013"><a xlink:title=" ">
<path fill="none" stroke="#63b8ff" d="M360.94,-254.45C344.97,-222.91 313.39,-168.26 272,-135 267.84,-131.66 263.14,-128.71 258.27,-126.14"/>
<polygon fill="#63b8ff" stroke="#63b8ff" points="358,-256.41 365.57,-263.83 364.28,-253.31 358,-256.41"/>
</a>
</g>
</g>
<!-- Node14 -->
<g id="Node000014" class="node">
<title>Node14</title>
<g id="a_Node000014"><a xlink:href="classTle92466edHandler.html#ab86e6d3eb2dca25154a8fa7c42ddb945" target="_top" xlink:title="Check if any fault is present.">
<polygon fill="white" stroke="#666666" points="272,-78 154,-78 154,-48 272,-48 272,-78"/>
<text text-anchor="start" x="162" y="-66" font-family="Helvetica,sans-Serif" font-size="10.00">Tle92466edHandler::</text>
<text text-anchor="middle" x="213" y="-55" font-family="Helvetica,sans-Serif" font-size="10.00">HasFault</text>
</a>
</g>
</g>
<!-- Node2&#45;&gt;Node14 -->
<g id="edge13_Node000002_Node000014" class="edge">
<title>Node2&#45;&gt;Node14</title>
<g id="a_edge13_Node000002_Node000014"><a xlink:title=" ">
<path fill="none" stroke="#63b8ff" d="M365.54,-254C353.12,-213.68 323.5,-134.07 272,-87 268.3,-83.62 264.06,-80.68 259.59,-78.13"/>
<polygon fill="#63b8ff" stroke="#63b8ff" points="362.25,-255.23 368.46,-263.82 368.96,-253.24 362.25,-255.23"/>
</a>
</g>
</g>
<!-- Node15 -->
<g id="Node000015" class="node">
<title>Node15</title>
<g id="a_Node000015"><a xlink:href="classTle92466edHandler.html#a6bcbd117208f3e44f2216d45541eb4fa" target="_top" xlink:title="Check if in mission mode.">
<polygon fill="white" stroke="#666666" points="272,-30 154,-30 154,0 272,0 272,-30"/>
<text text-anchor="start" x="162" y="-18" font-family="Helvetica,sans-Serif" font-size="10.00">Tle92466edHandler::</text>
<text text-anchor="middle" x="213" y="-7" font-family="Helvetica,sans-Serif" font-size="10.00">IsMissionMode</text>
</a>
</g>
</g>
<!-- Node2&#45;&gt;Node15 -->
<g id="edge14_Node000002_Node000015" class="edge">
<title>Node2&#45;&gt;Node15</title>
<g id="a_edge14_Node000002_Node000015"><a xlink:title=" ">
<path fill="none" stroke="#63b8ff" d="M368.46,-253.7C359.52,-205.65 333.77,-100.51 272,-39 268.6,-35.62 264.66,-32.69 260.46,-30.16"/>
<polygon fill="#63b8ff" stroke="#63b8ff" points="365.06,-254.61 370.25,-263.84 371.95,-253.39 365.06,-254.61"/>
</a>
</g>
</g>
<!-- Node12 -->
<g id="Node000012" class="node">
<title>Node12</title>
<g id="a_Node000012"><a xlink:href="classTle92466edHandler.html#a56ebe6e509ccd1b6b865728ba14d2533" target="_top" xlink:title=" ">
<polygon fill="white" stroke="#666666" points="118,-174 0,-174 0,-144 118,-144 118,-174"/>
<text text-anchor="start" x="8" y="-162" font-family="Helvetica,sans-Serif" font-size="10.00">Tle92466edHandler::</text>
<text text-anchor="middle" x="59" y="-151" font-family="Helvetica,sans-Serif" font-size="10.00">GetDriver</text>
</a>
</g>
</g>
<!-- Node11&#45;&gt;Node12 -->
<g id="edge11_Node000011_Node000012" class="edge">
<title>Node11&#45;&gt;Node12</title>
<g id="a_edge11_Node000011_Node000012"><a xlink:title=" ">
<path fill="none" stroke="#63b8ff" d="M143.46,-159C135.01,-159 126.45,-159 118.18,-159"/>
<polygon fill="#63b8ff" stroke="#63b8ff" points="143.67,-162.5 153.67,-159 143.67,-155.5 143.67,-162.5"/>
</a>
</g>
</g>
</g>
</svg>
