<?xml version="1.0" encoding="UTF-8" standalone="no"?>
<!DOCTYPE svg PUBLIC "-//W3C//DTD SVG 1.1//EN"
 "http://www.w3.org/Graphics/SVG/1.1/DTD/svg11.dtd">
<!-- Generated by graphviz version 2.43.0 (0)
 -->
<!-- Title: Tmc9660Handler::DumpDiagnostics Pages: 1 -->
<svg width="1110pt" height="182pt"
 viewBox="0.00 0.00 1110.00 182.33" xmlns="http://www.w3.org/2000/svg" xmlns:xlink="http://www.w3.org/1999/xlink">
<g id="graph0" class="graph" transform="scale(1 1) rotate(0) translate(4 178.33)">
<title>Tmc9660Handler::DumpDiagnostics</title>
<!-- Node1 -->
<g id="Node000001" class="node">
<title>Node1</title>
<g id="a_Node000001"><a xlink:title="Dump comprehensive diagnostics to the system log.">
<polygon fill="#999999" stroke="#666666" points="192,-88.5 0,-88.5 0,-69.5 192,-69.5 192,-88.5"/>
<text text-anchor="middle" x="96" y="-76.5" font-family="Helvetica,sans-Serif" font-size="10.00">Tmc9660Handler::DumpDiagnostics</text>
</a>
</g>
</g>
<!-- Node2 -->
<g id="Node000002" class="node">
<title>Node2</title>
<g id="a_Node000002"><a xlink:href="classTmc9660Handler.html#a7c1d8073576d678b09dac24c9eb12845" target="_top" xlink:title="Ensure initialized while handler_mutex_ is already held.">
<polygon fill="white" stroke="#666666" points="415,-116 228,-116 228,-86 415,-86 415,-116"/>
<text text-anchor="start" x="236" y="-104" font-family="Helvetica,sans-Serif" font-size="10.00">Tmc9660Handler::EnsureInitialized</text>
<text text-anchor="middle" x="321.5" y="-93" font-family="Helvetica,sans-Serif" font-size="10.00">Locked</text>
</a>
</g>
</g>
<!-- Node1&#45;&gt;Node2 -->
<g id="edge1_Node000001_Node000002" class="edge">
<title>Node1&#45;&gt;Node2</title>
<g id="a_edge1_Node000001_Node000002"><a xlink:title=" ">
<path fill="none" stroke="#63b8ff" d="M192.11,-88.36C200.65,-89.2 209.32,-90.06 217.92,-90.9"/>
<polygon fill="#63b8ff" stroke="#63b8ff" points="217.67,-94.4 227.97,-91.89 218.36,-87.43 217.67,-94.4"/>
</a>
</g>
</g>
<!-- Node8 -->
<g id="Node000008" class="node">
<title>Node8</title>
<g id="a_Node000008"><a xlink:href="classLogger.html#a5789d11f8f1356e2192c0023a089cbc4" target="_top" xlink:title="Get singleton instance.">
<polygon fill="white" stroke="#666666" points="749,-68.5 635,-68.5 635,-49.5 749,-49.5 749,-68.5"/>
<text text-anchor="middle" x="692" y="-56.5" font-family="Helvetica,sans-Serif" font-size="10.00">Logger::GetInstance</text>
</a>
</g>
</g>
<!-- Node1&#45;&gt;Node8 -->
<g id="edge12_Node000001_Node000008" class="edge">
<title>Node1&#45;&gt;Node8</title>
<g id="a_edge12_Node000001_Node000008"><a xlink:title=" ">
<path fill="none" stroke="#63b8ff" d="M192.11,-75.8C313.11,-71.72 519.02,-64.79 624.47,-61.24"/>
<polygon fill="#63b8ff" stroke="#63b8ff" points="624.78,-64.73 634.66,-60.9 624.55,-57.74 624.78,-64.73"/>
</a>
</g>
</g>
<!-- Node9 -->
<g id="Node000009" class="node">
<title>Node9</title>
<g id="a_Node000009"><a xlink:href="classLogger.html#a4681229c521795685fc14f6b55c82300" target="_top" xlink:title="Log info message.">
<polygon fill="white" stroke="#666666" points="729,-142.5 655,-142.5 655,-123.5 729,-123.5 729,-142.5"/>
<text text-anchor="middle" x="692" y="-130.5" font-family="Helvetica,sans-Serif" font-size="10.00">Logger::Info</text>
</a>
</g>
</g>
<!-- Node1&#45;&gt;Node9 -->
<g id="edge13_Node000001_Node000009" class="edge">
<title>Node1&#45;&gt;Node9</title>
<g id="a_edge13_Node000001_Node000009"><a xlink:title=" ">
<path fill="none" stroke="#63b8ff" d="M120.29,-88.53C146.21,-98.81 189.5,-115.04 228,-125 388.47,-166.53 435.3,-189.02 599,-163 619.39,-159.76 641.4,-152.72 658.78,-146.27"/>
<polygon fill="#63b8ff" stroke="#63b8ff" points="660.34,-149.42 668.43,-142.58 657.84,-142.88 660.34,-149.42"/>
</a>
</g>
</g>
<!-- Node11 -->
<g id="Node000011" class="node">
<title>Node11</title>
<g id="a_Node000011"><a xlink:href="classTmc9660Handler.html#a07fd9e33de7e1f90137626b730bb5d27" target="_top" xlink:title="Internal no&#45;lock visitDriver for use from already&#45;locked contexts.">
<polygon fill="white" stroke="#666666" points="400,-30 243,-30 243,0 400,0 400,-30"/>
<text text-anchor="start" x="251" y="-18" font-family="Helvetica,sans-Serif" font-size="10.00">Tmc9660Handler::visitDriver</text>
<text text-anchor="middle" x="321.5" y="-7" font-family="Helvetica,sans-Serif" font-size="10.00">Internal</text>
</a>
</g>
</g>
<!-- Node1&#45;&gt;Node11 -->
<g id="edge14_Node000001_Node000011" class="edge">
<title>Node1&#45;&gt;Node11</title>
<g id="a_edge14_Node000001_Node000011"><a xlink:title=" ">
<path fill="none" stroke="#63b8ff" d="M130.46,-69.42C164.17,-59.77 216.98,-44.64 258.38,-32.79"/>
<polygon fill="#63b8ff" stroke="#63b8ff" points="259.45,-36.12 268.1,-30 257.52,-29.39 259.45,-36.12"/>
</a>
</g>
</g>
<!-- Node3 -->
<g id="Node000003" class="node">
<title>Node3</title>
<g id="a_Node000003"><a xlink:href="classTmc9660Handler.html#adc564847f8ae26c47412aaee0758991c" target="_top" xlink:title="Initialize the TMC9660 device.">
<polygon fill="white" stroke="#666666" points="599,-105.5 451,-105.5 451,-86.5 599,-86.5 599,-105.5"/>
<text text-anchor="middle" x="525" y="-93.5" font-family="Helvetica,sans-Serif" font-size="10.00">Tmc9660Handler::Initialize</text>
</a>
</g>
</g>
<!-- Node2&#45;&gt;Node3 -->
<g id="edge2_Node000002_Node000003" class="edge">
<title>Node2&#45;&gt;Node3</title>
<g id="a_edge2_Node000002_Node000003"><a xlink:title=" ">
<path fill="none" stroke="#63b8ff" d="M415.29,-98.7C423.73,-98.49 432.25,-98.28 440.61,-98.07"/>
<polygon fill="#63b8ff" stroke="#63b8ff" points="440.79,-101.57 450.7,-97.82 440.62,-94.57 440.79,-101.57"/>
</a>
</g>
</g>
<!-- Node10 -->
<g id="Node000010" class="node">
<title>Node10</title>
<g id="a_Node000010"><a xlink:href="classTmc9660Handler.html#a13db97d201a287d8aa60384e04070b9f" target="_top" xlink:title="Check if the TMC9660 driver has been initialized and is ready.">
<polygon fill="white" stroke="#666666" points="597,-154 453,-154 453,-124 597,-124 597,-154"/>
<text text-anchor="start" x="461" y="-142" font-family="Helvetica,sans-Serif" font-size="10.00">Tmc9660Handler::IsDriver</text>
<text text-anchor="middle" x="525" y="-131" font-family="Helvetica,sans-Serif" font-size="10.00">Ready</text>
</a>
</g>
</g>
<!-- Node2&#45;&gt;Node10 -->
<g id="edge11_Node000002_Node000010" class="edge">
<title>Node2&#45;&gt;Node10</title>
<g id="a_edge11_Node000002_Node000010"><a xlink:title=" ">
<path fill="none" stroke="#63b8ff" d="M402.14,-116.02C415.46,-118.53 429.3,-121.14 442.67,-123.66"/>
<polygon fill="#63b8ff" stroke="#63b8ff" points="442.31,-127.16 452.78,-125.57 443.6,-120.28 442.31,-127.16"/>
</a>
</g>
</g>
<!-- Node4 -->
<g id="Node000004" class="node">
<title>Node4</title>
<g id="a_Node000004"><a xlink:href="classLogger.html#adce17848a5844e053bfd314863dc1404" target="_top" xlink:title="Log error message.">
<polygon fill="white" stroke="#666666" points="731.5,-105.5 652.5,-105.5 652.5,-86.5 731.5,-86.5 731.5,-105.5"/>
<text text-anchor="middle" x="692" y="-93.5" font-family="Helvetica,sans-Serif" font-size="10.00">Logger::Error</text>
</a>
</g>
</g>
<!-- Node3&#45;&gt;Node4 -->
<g id="edge3_Node000003_Node000004" class="edge">
<title>Node3&#45;&gt;Node4</title>
<g id="a_edge3_Node000003_Node000004"><a xlink:title=" ">
<path fill="none" stroke="#63b8ff" d="M599.33,-96C613.73,-96 628.5,-96 641.87,-96"/>
<polygon fill="#63b8ff" stroke="#63b8ff" points="642.26,-99.5 652.26,-96 642.26,-92.5 642.26,-99.5"/>
</a>
</g>
</g>
<!-- Node3&#45;&gt;Node8 -->
<g id="edge7_Node000003_Node000008" class="edge">
<title>Node3&#45;&gt;Node8</title>
<g id="a_edge7_Node000003_Node000008"><a xlink:title=" ">
<path fill="none" stroke="#63b8ff" d="M568.49,-86.47C589.87,-81.68 615.97,-75.82 638.58,-70.75"/>
<polygon fill="#63b8ff" stroke="#63b8ff" points="639.37,-74.16 648.37,-68.56 637.84,-67.33 639.37,-74.16"/>
</a>
</g>
</g>
<!-- Node3&#45;&gt;Node9 -->
<g id="edge8_Node000003_Node000009" class="edge">
<title>Node3&#45;&gt;Node9</title>
<g id="a_edge8_Node000003_Node000009"><a xlink:title=" ">
<path fill="none" stroke="#63b8ff" d="M568.49,-105.53C591.89,-110.77 620.94,-117.29 644.89,-122.66"/>
<polygon fill="#63b8ff" stroke="#63b8ff" points="644.28,-126.11 654.8,-124.88 645.81,-119.28 644.28,-126.11"/>
</a>
</g>
</g>
<!-- Node5 -->
<g id="Node000005" class="node">
<title>Node5</title>
<g id="a_Node000005"><a xlink:href="classLogger.html#af9e84e0ff6bd538e4f9ed8dcebc3e2f0" target="_top" xlink:title="Check if log level is enabled for tag.">
<polygon fill="white" stroke="#666666" points="914,-142.5 785,-142.5 785,-123.5 914,-123.5 914,-142.5"/>
<text text-anchor="middle" x="849.5" y="-130.5" font-family="Helvetica,sans-Serif" font-size="10.00">Logger::IsLevelEnabled</text>
</a>
</g>
</g>
<!-- Node4&#45;&gt;Node5 -->
<g id="edge4_Node000004_Node000005" class="edge">
<title>Node4&#45;&gt;Node5</title>
<g id="a_edge4_Node000004_Node000005"><a xlink:title=" ">
<path fill="none" stroke="#63b8ff" d="M731.84,-105.24C752.03,-110.05 776.94,-115.97 798.55,-121.11"/>
<polygon fill="#63b8ff" stroke="#63b8ff" points="798,-124.58 808.53,-123.49 799.62,-117.77 798,-124.58"/>
</a>
</g>
</g>
<!-- Node6 -->
<g id="Node000006" class="node">
<title>Node6</title>
<g id="a_Node000006"><a xlink:href="classLogger.html#a6adb205db597526fb91ad20067400394" target="_top" xlink:title="Internal logging method.">
<polygon fill="white" stroke="#666666" points="904.5,-105.5 794.5,-105.5 794.5,-86.5 904.5,-86.5 904.5,-105.5"/>
<text text-anchor="middle" x="849.5" y="-93.5" font-family="Helvetica,sans-Serif" font-size="10.00">Logger::LogInternal</text>
</a>
</g>
</g>
<!-- Node4&#45;&gt;Node6 -->
<g id="edge5_Node000004_Node000006" class="edge">
<title>Node4&#45;&gt;Node6</title>
<g id="a_edge5_Node000004_Node000006"><a xlink:title=" ">
<path fill="none" stroke="#63b8ff" d="M731.84,-96C747.63,-96 766.31,-96 784.03,-96"/>
<polygon fill="#63b8ff" stroke="#63b8ff" points="784.33,-99.5 794.33,-96 784.33,-92.5 784.33,-99.5"/>
</a>
</g>
</g>
<!-- Node7 -->
<g id="Node000007" class="node">
<title>Node7</title>
<g id="a_Node000007"><a xlink:href="namespaceanonymous__namespace_02Logger_8cpp_03.html#a9d2b496fa1b4f4e28667d14e4b8cb190" target="_top" xlink:title=" ">
<polygon fill="white" stroke="#666666" points="1102,-111 950,-111 950,-81 1102,-81 1102,-111"/>
<text text-anchor="start" x="958" y="-99" font-family="Helvetica,sans-Serif" font-size="10.00">anonymous_namespace</text>
<text text-anchor="middle" x="1026" y="-88" font-family="Helvetica,sans-Serif" font-size="10.00">{Logger::cpp}::ToBaseLevel</text>
</a>
</g>
</g>
<!-- Node6&#45;&gt;Node7 -->
<g id="edge6_Node000006_Node000007" class="edge">
<title>Node6&#45;&gt;Node7</title>
<g id="a_edge6_Node000006_Node000007"><a xlink:title=" ">
<path fill="none" stroke="#63b8ff" d="M904.76,-96C915.93,-96 927.96,-96 939.93,-96"/>
<polygon fill="#63b8ff" stroke="#63b8ff" points="939.95,-99.5 949.95,-96 939.95,-92.5 939.95,-99.5"/>
</a>
</g>
</g>
<!-- Node9&#45;&gt;Node5 -->
<g id="edge9_Node000009_Node000005" class="edge">
<title>Node9&#45;&gt;Node5</title>
<g id="a_edge9_Node000009_Node000005"><a xlink:title=" ">
<path fill="none" stroke="#63b8ff" d="M729.07,-133C742.68,-133 758.72,-133 774.55,-133"/>
<polygon fill="#63b8ff" stroke="#63b8ff" points="774.89,-136.5 784.89,-133 774.89,-129.5 774.89,-136.5"/>
</a>
</g>
</g>
<!-- Node9&#45;&gt;Node6 -->
<g id="edge10_Node000009_Node000006" class="edge">
<title>Node9&#45;&gt;Node6</title>
<g id="a_edge10_Node000009_Node000006"><a xlink:title=" ">
<path fill="none" stroke="#63b8ff" d="M729.07,-124.42C749.78,-119.49 776.09,-113.23 798.74,-107.84"/>
<polygon fill="#63b8ff" stroke="#63b8ff" points="799.61,-111.23 808.53,-105.51 797.99,-104.42 799.61,-111.23"/>
</a>
</g>
</g>
</g>
</svg>
