<?xml version="1.0" encoding="UTF-8" standalone="no"?>
<!DOCTYPE svg PUBLIC "-//W3C//DTD SVG 1.1//EN"
 "http://www.w3.org/Graphics/SVG/1.1/DTD/svg11.dtd">
<!-- Generated by graphviz version 2.43.0 (0)
 -->
<!-- Title: HalUartFdo2Comm::flush_rx Pages: 1 -->
<svg width="567pt" height="138pt"
 viewBox="0.00 0.00 567.00 138.00" xmlns="http://www.w3.org/2000/svg" xmlns:xlink="http://www.w3.org/1999/xlink">
<g id="graph0" class="graph" transform="scale(1 1) rotate(0) translate(4 134)">
<title>HalUartFdo2Comm::flush_rx</title>
<!-- Node1 -->
<g id="Node000001" class="node">
<title>Node1</title>
<g id="a_Node000001"><a xlink:title=" ">
<polygon fill="#999999" stroke="#666666" points="559,-74 404,-74 404,-55 559,-55 559,-74"/>
<text text-anchor="middle" x="481.5" y="-62" font-family="Helvetica,sans-Serif" font-size="10.00">HalUartFdo2Comm::flush_rx</text>
</a>
</g>
</g>
<!-- Node2 -->
<g id="Node000002" class="node">
<title>Node2</title>
<g id="a_Node000002"><a xlink:href="classFdo2Handler.html#a78beeff055bbfb7035037778f87998fa" target="_top" xlink:title=" ">
<polygon fill="white" stroke="#666666" points="368,-79.5 202,-79.5 202,-49.5 368,-49.5 368,-79.5"/>
<text text-anchor="start" x="210" y="-67.5" font-family="Helvetica,sans-Serif" font-size="10.00">Fdo2Handler::EnsureInitialized</text>
<text text-anchor="middle" x="285" y="-56.5" font-family="Helvetica,sans-Serif" font-size="10.00">Locked</text>
</a>
</g>
</g>
<!-- Node1&#45;&gt;Node2 -->
<g id="edge1_Node000001_Node000002" class="edge">
<title>Node1&#45;&gt;Node2</title>
<g id="a_edge1_Node000001_Node000002"><a xlink:title=" ">
<path fill="none" stroke="#63b8ff" d="M393.68,-64.5C385.24,-64.5 376.69,-64.5 368.29,-64.5"/>
<polygon fill="#63b8ff" stroke="#63b8ff" points="393.91,-68 403.91,-64.5 393.91,-61 393.91,-68"/>
</a>
</g>
</g>
<!-- Node3 -->
<g id="Node000003" class="node">
<title>Node3</title>
<g id="a_Node000003"><a xlink:href="classFdo2Handler.html#a36795f24ed679bf45cc5de809fb9a9d8" target="_top" xlink:title="Wait the FDO2&#45;G2 power&#45;up settle (kFdo2G2PowerUpSettleMs) and probe the device with #VERS....">
<polygon fill="white" stroke="#666666" points="166,-130 0,-130 0,-111 166,-111 166,-130"/>
<text text-anchor="middle" x="83" y="-118" font-family="Helvetica,sans-Serif" font-size="10.00">Fdo2Handler::EnsureInitialized</text>
</a>
</g>
</g>
<!-- Node2&#45;&gt;Node3 -->
<g id="edge2_Node000002_Node000003" class="edge">
<title>Node2&#45;&gt;Node3</title>
<g id="a_edge2_Node000002_Node000003"><a xlink:title=" ">
<path fill="none" stroke="#63b8ff" d="M230.94,-82.78C210.74,-89.42 187.43,-96.71 166,-102.5 154.74,-105.54 142.51,-108.44 131.02,-110.99"/>
<polygon fill="#63b8ff" stroke="#63b8ff" points="232.2,-86.05 240.59,-79.58 229.99,-79.4 232.2,-86.05"/>
</a>
</g>
</g>
<!-- Node4 -->
<g id="Node000004" class="node">
<title>Node4</title>
<g id="a_Node000004"><a xlink:href="classFdo2Handler.html#a99bba6021370bbd0dcf7b86f8f4efb4e" target="_top" xlink:title="One #MOXY round&#45;trip — partial&#45;pressure O2 + temperature + status.">
<polygon fill="white" stroke="#666666" points="160,-93 6,-93 6,-74 160,-74 160,-93"/>
<text text-anchor="middle" x="83" y="-81" font-family="Helvetica,sans-Serif" font-size="10.00">Fdo2Handler::MeasureMoxy</text>
</a>
</g>
</g>
<!-- Node2&#45;&gt;Node4 -->
<g id="edge3_Node000002_Node000004" class="edge">
<title>Node2&#45;&gt;Node4</title>
<g id="a_edge3_Node000002_Node000004"><a xlink:title=" ">
<path fill="none" stroke="#63b8ff" d="M191.7,-73.27C181.13,-74.27 170.44,-75.29 160.11,-76.27"/>
<polygon fill="#63b8ff" stroke="#63b8ff" points="192.16,-76.74 201.79,-72.31 191.5,-69.77 192.16,-76.74"/>
</a>
</g>
</g>
<!-- Node5 -->
<g id="Node000005" class="node">
<title>Node5</title>
<g id="a_Node000005"><a xlink:href="classFdo2Handler.html#a8d1c48731fcc63071c675fae4e566985" target="_top" xlink:title=" ">
<polygon fill="white" stroke="#666666" points="160,-56 6,-56 6,-37 160,-37 160,-56"/>
<text text-anchor="middle" x="83" y="-44" font-family="Helvetica,sans-Serif" font-size="10.00">Fdo2Handler::MeasureMraw</text>
</a>
</g>
</g>
<!-- Node2&#45;&gt;Node5 -->
<g id="edge4_Node000002_Node000005" class="edge">
<title>Node2&#45;&gt;Node5</title>
<g id="a_edge4_Node000002_Node000005"><a xlink:title=" ">
<path fill="none" stroke="#63b8ff" d="M191.7,-56.19C181.13,-55.24 170.44,-54.28 160.11,-53.35"/>
<polygon fill="#63b8ff" stroke="#63b8ff" points="191.51,-59.69 201.79,-57.1 192.14,-52.72 191.51,-59.69"/>
</a>
</g>
</g>
<!-- Node6 -->
<g id="Node000006" class="node">
<title>Node6</title>
<g id="a_Node000006"><a xlink:href="classFdo2Handler.html#a9ca814fc66a1d02cb0b3bfb7879e9f8c" target="_top" xlink:title="Read the device&#39;s 64&#45;bit unique serial via #IDNR.">
<polygon fill="white" stroke="#666666" points="159.5,-19 6.5,-19 6.5,0 159.5,0 159.5,-19"/>
<text text-anchor="middle" x="83" y="-7" font-family="Helvetica,sans-Serif" font-size="10.00">Fdo2Handler::ReadUniqueId</text>
</a>
</g>
</g>
<!-- Node2&#45;&gt;Node6 -->
<g id="edge5_Node000002_Node000006" class="edge">
<title>Node2&#45;&gt;Node6</title>
<g id="a_edge5_Node000002_Node000006"><a xlink:title=" ">
<path fill="none" stroke="#63b8ff" d="M227.78,-46.49C208.3,-40.48 186.26,-33.93 166,-28.5 153.58,-25.17 140.01,-21.88 127.55,-19.01"/>
<polygon fill="#63b8ff" stroke="#63b8ff" points="226.82,-49.86 237.41,-49.48 228.9,-43.17 226.82,-49.86"/>
</a>
</g>
</g>
</g>
</svg>
