<?xml version="1.0" encoding="UTF-8" standalone="no"?>
<!DOCTYPE svg PUBLIC "-//W3C//DTD SVG 1.1//EN"
 "http://www.w3.org/Graphics/SVG/1.1/DTD/svg11.dtd">
<!-- Generated by graphviz version 2.43.0 (0)
 -->
<!-- Title: Tmc9660Handler::EnterBootloaderMode Pages: 1 -->
<svg width="616pt" height="114pt"
 viewBox="0.00 0.00 616.00 113.50" xmlns="http://www.w3.org/2000/svg" xmlns:xlink="http://www.w3.org/1999/xlink">
<g id="graph0" class="graph" transform="scale(1 1) rotate(0) translate(4 109.5)">
<title>Tmc9660Handler::EnterBootloaderMode</title>
<!-- Node1 -->
<g id="Node000001" class="node">
<title>Node1</title>
<g id="a_Node000001"><a xlink:title="Command the TMC9660 to leave parameter mode and enter bootloader mode.">
<polygon fill="#999999" stroke="#666666" points="212,-57 0,-57 0,-38 212,-38 212,-57"/>
<text text-anchor="middle" x="106" y="-45" font-family="Helvetica,sans-Serif" font-size="10.00">Tmc9660Handler::EnterBootloaderMode</text>
</a>
</g>
</g>
<!-- Node2 -->
<g id="Node000002" class="node">
<title>Node2</title>
<g id="a_Node000002"><a xlink:href="classTmc9660Handler.html#a13db97d201a287d8aa60384e04070b9f" target="_top" xlink:title="Check if the TMC9660 driver has been initialized and is ready.">
<polygon fill="white" stroke="#666666" points="398.5,-105.5 254.5,-105.5 254.5,-75.5 398.5,-75.5 398.5,-105.5"/>
<text text-anchor="start" x="262.5" y="-93.5" font-family="Helvetica,sans-Serif" font-size="10.00">Tmc9660Handler::IsDriver</text>
<text text-anchor="middle" x="326.5" y="-82.5" font-family="Helvetica,sans-Serif" font-size="10.00">Ready</text>
</a>
</g>
</g>
<!-- Node1&#45;&gt;Node2 -->
<g id="edge1_Node000001_Node000002" class="edge">
<title>Node1&#45;&gt;Node2</title>
<g id="a_edge1_Node000001_Node000002"><a xlink:title=" ">
<path fill="none" stroke="#63b8ff" d="M155.49,-57.04C181.59,-62.18 214.46,-68.65 244.33,-74.53"/>
<polygon fill="#63b8ff" stroke="#63b8ff" points="243.84,-78 254.33,-76.49 245.19,-71.13 243.84,-78"/>
</a>
</g>
</g>
<!-- Node3 -->
<g id="Node000003" class="node">
<title>Node3</title>
<g id="a_Node000003"><a xlink:href="classTmc9660Handler.html#a393382194d0602e7aa02da6a8fd7a20a" target="_top" xlink:title="Get a reference to the Temperature wrapper.">
<polygon fill="white" stroke="#666666" points="608,-38 441,-38 441,-19 608,-19 608,-38"/>
<text text-anchor="middle" x="524.5" y="-26" font-family="Helvetica,sans-Serif" font-size="10.00">Tmc9660Handler::temperature</text>
</a>
</g>
</g>
<!-- Node1&#45;&gt;Node3 -->
<g id="edge2_Node000001_Node000003" class="edge">
<title>Node1&#45;&gt;Node3</title>
<g id="a_edge2_Node000001_Node000003"><a xlink:title=" ">
<path fill="none" stroke="#63b8ff" d="M212.1,-42.71C279.35,-39.64 365.81,-35.69 430.55,-32.74"/>
<polygon fill="#63b8ff" stroke="#63b8ff" points="430.92,-36.23 440.75,-32.28 430.6,-29.23 430.92,-36.23"/>
</a>
</g>
</g>
<!-- Node4 -->
<g id="Node000004" class="node">
<title>Node4</title>
<g id="a_Node000004"><a xlink:href="classTmc9660Handler.html#a4360829b58deda85e9da4b9cebee96f0" target="_top" xlink:title="Execute a function on the underlying typed TMC9660 driver.">
<polygon fill="white" stroke="#666666" points="405,-19 248,-19 248,0 405,0 405,-19"/>
<text text-anchor="middle" x="326.5" y="-7" font-family="Helvetica,sans-Serif" font-size="10.00">Tmc9660Handler::visitDriver</text>
</a>
</g>
</g>
<!-- Node1&#45;&gt;Node4 -->
<g id="edge3_Node000001_Node000004" class="edge">
<title>Node1&#45;&gt;Node4</title>
<g id="a_edge3_Node000001_Node000004"><a xlink:title=" ">
<path fill="none" stroke="#63b8ff" d="M161.85,-37.96C191.85,-32.74 229.2,-26.25 260.64,-20.78"/>
<polygon fill="#63b8ff" stroke="#63b8ff" points="261.37,-24.21 270.62,-19.04 260.17,-17.31 261.37,-24.21"/>
</a>
</g>
</g>
<!-- Node4&#45;&gt;Node3 -->
<g id="edge4_Node000004_Node000003" class="edge">
<title>Node4&#45;&gt;Node3</title>
<g id="a_edge4_Node000004_Node000003"><a xlink:title=" ">
<path fill="none" stroke="#63b8ff" d="M405.25,-17.04C413.62,-17.85 422.2,-18.68 430.73,-19.51"/>
<polygon fill="#63b8ff" stroke="#63b8ff" points="430.4,-22.99 440.7,-20.47 431.08,-16.02 430.4,-22.99"/>
</a>
</g>
</g>
</g>
</svg>
