<?xml version="1.0" encoding="UTF-8" standalone="no"?>
<!DOCTYPE svg PUBLIC "-//W3C//DTD SVG 1.1//EN"
 "http://www.w3.org/Graphics/SVG/1.1/DTD/svg11.dtd">
<!-- Generated by graphviz version 2.43.0 (0)
 -->
<!-- Title: Tmc9660Handler::driverViaSpi Pages: 1 -->
<svg width="374pt" height="101pt"
 viewBox="0.00 0.00 374.00 101.00" xmlns="http://www.w3.org/2000/svg" xmlns:xlink="http://www.w3.org/1999/xlink">
<g id="graph0" class="graph" transform="scale(1 1) rotate(0) translate(4 97)">
<title>Tmc9660Handler::driverViaSpi</title>
<!-- Node1 -->
<g id="Node000001" class="node">
<title>Node1</title>
<g id="a_Node000001"><a xlink:title="Get the TMC9660 driver instance connected via SPI (nullptr if using UART).">
<polygon fill="#999999" stroke="#666666" points="366,-56 201,-56 201,-37 366,-37 366,-56"/>
<text text-anchor="middle" x="283.5" y="-44" font-family="Helvetica,sans-Serif" font-size="10.00">Tmc9660Handler::driverViaSpi</text>
</a>
</g>
</g>
<!-- Node2 -->
<g id="Node000002" class="node">
<title>Node2</title>
<g id="a_Node000002"><a xlink:href="classTmc9660Handler.html#ad8946c2dd3a3d5e26620c514988fa2df" target="_top" xlink:title="Const version of driverViaSpi().">
<polygon fill="white" stroke="#666666" points="165,-93 0,-93 0,-74 165,-74 165,-93"/>
<text text-anchor="middle" x="82.5" y="-81" font-family="Helvetica,sans-Serif" font-size="10.00">Tmc9660Handler::driverViaSpi</text>
</a>
</g>
</g>
<!-- Node1&#45;&gt;Node2 -->
<g id="edge1_Node000001_Node000002" class="edge">
<title>Node1&#45;&gt;Node2</title>
<g id="a_edge1_Node000001_Node000002"><a xlink:title=" ">
<path fill="none" stroke="#63b8ff" d="M221.29,-57.88C193.63,-63.02 161.3,-69.03 134.92,-73.94"/>
<polygon fill="#63b8ff" stroke="#63b8ff" points="222.06,-61.3 231.25,-56.03 220.78,-54.42 222.06,-61.3"/>
</a>
</g>
</g>
<!-- Node3 -->
<g id="Node000003" class="node">
<title>Node3</title>
<g id="a_Node000003"><a xlink:href="classTmc9660Handler.html#ae1d6f6676180aff28d02dcb954917b79" target="_top" xlink:title="Const overload of GetDriver().">
<polygon fill="white" stroke="#666666" points="159,-56 6,-56 6,-37 159,-37 159,-56"/>
<text text-anchor="middle" x="82.5" y="-44" font-family="Helvetica,sans-Serif" font-size="10.00">Tmc9660Handler::GetDriver</text>
</a>
</g>
</g>
<!-- Node1&#45;&gt;Node3 -->
<g id="edge2_Node000001_Node000003" class="edge">
<title>Node1&#45;&gt;Node3</title>
<g id="a_edge2_Node000001_Node000003"><a xlink:title=" ">
<path fill="none" stroke="#63b8ff" d="M190.86,-46.5C180.24,-46.5 169.5,-46.5 159.12,-46.5"/>
<polygon fill="#63b8ff" stroke="#63b8ff" points="190.98,-50 200.98,-46.5 190.98,-43 190.98,-50"/>
</a>
</g>
</g>
<!-- Node4 -->
<g id="Node000004" class="node">
<title>Node4</title>
<g id="a_Node000004"><a xlink:href="classTmc9660Handler.html#ac29a3cfd55b2186f357c8b2f56d16bce" target="_top" xlink:title="Get the active driver pointer without requiring visitor usage.">
<polygon fill="white" stroke="#666666" points="159,-19 6,-19 6,0 159,0 159,-19"/>
<text text-anchor="middle" x="82.5" y="-7" font-family="Helvetica,sans-Serif" font-size="10.00">Tmc9660Handler::GetDriver</text>
</a>
</g>
</g>
<!-- Node1&#45;&gt;Node4 -->
<g id="edge3_Node000001_Node000004" class="edge">
<title>Node1&#45;&gt;Node4</title>
<g id="a_edge3_Node000001_Node000004"><a xlink:title=" ">
<path fill="none" stroke="#63b8ff" d="M221.29,-35.12C193.63,-29.98 161.3,-23.97 134.92,-19.06"/>
<polygon fill="#63b8ff" stroke="#63b8ff" points="220.78,-38.58 231.25,-36.97 222.06,-31.7 220.78,-38.58"/>
</a>
</g>
</g>
</g>
</svg>
