<?xml version="1.0" encoding="UTF-8" standalone="no"?>
<!DOCTYPE svg PUBLIC "-//W3C//DTD SVG 1.1//EN"
 "http://www.w3.org/Graphics/SVG/1.1/DTD/svg11.dtd">
<!-- Generated by graphviz version 2.43.0 (0)
 -->
<!-- Title: Tmc5160Handler::GetDriver Pages: 1 -->
<svg width="1090pt" height="138pt"
 viewBox="0.00 0.00 1090.00 138.00" xmlns="http://www.w3.org/2000/svg" xmlns:xlink="http://www.w3.org/1999/xlink">
<g id="graph0" class="graph" transform="scale(1 1) rotate(0) translate(4 134)">
<title>Tmc5160Handler::GetDriver</title>
<!-- Node1 -->
<g id="Node000001" class="node">
<title>Node1</title>
<g id="a_Node000001"><a xlink:title="Get the active driver pointer without requiring visitor usage.">
<polygon fill="#999999" stroke="#666666" points="153,-74 0,-74 0,-55 153,-55 153,-74"/>
<text text-anchor="middle" x="76.5" y="-62" font-family="Helvetica,sans-Serif" font-size="10.00">Tmc5160Handler::GetDriver</text>
</a>
</g>
</g>
<!-- Node2 -->
<g id="Node000002" class="node">
<title>Node2</title>
<g id="a_Node000002"><a xlink:href="classTmc5160Handler.html#a15dae0f711e2dd4ecea09822b8a3a8bb" target="_top" xlink:title="Get typed SPI driver pointer (null if UART mode or not initialized).">
<polygon fill="white" stroke="#666666" points="357,-93 192,-93 192,-74 357,-74 357,-93"/>
<text text-anchor="middle" x="274.5" y="-81" font-family="Helvetica,sans-Serif" font-size="10.00">Tmc5160Handler::driverViaSpi</text>
</a>
</g>
</g>
<!-- Node1&#45;&gt;Node2 -->
<g id="edge1_Node000001_Node000002" class="edge">
<title>Node1&#45;&gt;Node2</title>
<g id="a_edge1_Node000001_Node000002"><a xlink:title=" ">
<path fill="none" stroke="#63b8ff" d="M153.28,-71.85C162.53,-72.74 172.07,-73.67 181.53,-74.58"/>
<polygon fill="#63b8ff" stroke="#63b8ff" points="181.46,-78.09 191.75,-75.58 182.13,-71.13 181.46,-78.09"/>
</a>
</g>
</g>
<!-- Node11 -->
<g id="Node000011" class="node">
<title>Node11</title>
<g id="a_Node000011"><a xlink:href="classTmc5160Handler.html#af8cb1c7b5011bd24102d296f22c211c5" target="_top" xlink:title="Get typed UART driver pointer (null if SPI mode or not initialized).">
<polygon fill="white" stroke="#666666" points="360,-56 189,-56 189,-37 360,-37 360,-56"/>
<text text-anchor="middle" x="274.5" y="-44" font-family="Helvetica,sans-Serif" font-size="10.00">Tmc5160Handler::driverViaUart</text>
</a>
</g>
</g>
<!-- Node1&#45;&gt;Node11 -->
<g id="edge14_Node000001_Node000011" class="edge">
<title>Node1&#45;&gt;Node11</title>
<g id="a_edge14_Node000001_Node000011"><a xlink:title=" ">
<path fill="none" stroke="#63b8ff" d="M153.28,-57.54C161.64,-56.77 170.23,-55.98 178.79,-55.2"/>
<polygon fill="#63b8ff" stroke="#63b8ff" points="179.16,-58.68 188.8,-54.28 178.52,-51.71 179.16,-58.68"/>
</a>
</g>
</g>
<!-- Node3 -->
<g id="Node000003" class="node">
<title>Node3</title>
<g id="a_Node000003"><a xlink:href="classTmc5160Handler.html#a6d4fce2433e03bb11b05a4278ef66fd0" target="_top" xlink:title=" ">
<polygon fill="white" stroke="#666666" points="583,-79.5 396,-79.5 396,-49.5 583,-49.5 583,-79.5"/>
<text text-anchor="start" x="404" y="-67.5" font-family="Helvetica,sans-Serif" font-size="10.00">Tmc5160Handler::EnsureInitialized</text>
<text text-anchor="middle" x="489.5" y="-56.5" font-family="Helvetica,sans-Serif" font-size="10.00">Locked</text>
</a>
</g>
</g>
<!-- Node2&#45;&gt;Node3 -->
<g id="edge2_Node000002_Node000003" class="edge">
<title>Node2&#45;&gt;Node3</title>
<g id="a_edge2_Node000002_Node000003"><a xlink:title=" ">
<path fill="none" stroke="#63b8ff" d="M357.24,-76.21C366.65,-75.37 376.32,-74.51 385.96,-73.65"/>
<polygon fill="#63b8ff" stroke="#63b8ff" points="386.32,-77.13 395.97,-72.75 385.69,-70.16 386.32,-77.13"/>
</a>
</g>
</g>
<!-- Node4 -->
<g id="Node000004" class="node">
<title>Node4</title>
<g id="a_Node000004"><a xlink:href="classTmc5160Handler.html#a44ab36857e4e43062f81f7d6f10eab09" target="_top" xlink:title="Initialize the TMC5160 driver with full configuration.">
<polygon fill="white" stroke="#666666" points="767,-74 619,-74 619,-55 767,-55 767,-74"/>
<text text-anchor="middle" x="693" y="-62" font-family="Helvetica,sans-Serif" font-size="10.00">Tmc5160Handler::Initialize</text>
</a>
</g>
</g>
<!-- Node3&#45;&gt;Node4 -->
<g id="edge3_Node000003_Node000004" class="edge">
<title>Node3&#45;&gt;Node4</title>
<g id="a_edge3_Node000003_Node000004"><a xlink:title=" ">
<path fill="none" stroke="#63b8ff" d="M583.29,-64.5C591.73,-64.5 600.25,-64.5 608.61,-64.5"/>
<polygon fill="#63b8ff" stroke="#63b8ff" points="608.7,-68 618.7,-64.5 608.7,-61 608.7,-68"/>
</a>
</g>
</g>
<!-- Node5 -->
<g id="Node000005" class="node">
<title>Node5</title>
<g id="a_Node000005"><a xlink:href="classLogger.html#adce17848a5844e053bfd314863dc1404" target="_top" xlink:title="Log error message.">
<polygon fill="white" stroke="#666666" points="899.5,-130 820.5,-130 820.5,-111 899.5,-111 899.5,-130"/>
<text text-anchor="middle" x="860" y="-118" font-family="Helvetica,sans-Serif" font-size="10.00">Logger::Error</text>
</a>
</g>
</g>
<!-- Node4&#45;&gt;Node5 -->
<g id="edge4_Node000004_Node000005" class="edge">
<title>Node4&#45;&gt;Node5</title>
<g id="a_edge4_Node000004_Node000005"><a xlink:title=" ">
<path fill="none" stroke="#63b8ff" d="M720.81,-74.05C742.84,-81.85 774.88,-93.08 803,-102.5 808.2,-104.24 813.69,-106.05 819.12,-107.81"/>
<polygon fill="#63b8ff" stroke="#63b8ff" points="818.14,-111.17 828.73,-110.92 820.29,-104.51 818.14,-111.17"/>
</a>
</g>
</g>
<!-- Node8 -->
<g id="Node000008" class="node">
<title>Node8</title>
<g id="a_Node000008"><a xlink:href="classLogger.html#a5789d11f8f1356e2192c0023a089cbc4" target="_top" xlink:title="Get singleton instance.">
<polygon fill="white" stroke="#666666" points="917,-19 803,-19 803,0 917,0 917,-19"/>
<text text-anchor="middle" x="860" y="-7" font-family="Helvetica,sans-Serif" font-size="10.00">Logger::GetInstance</text>
</a>
</g>
</g>
<!-- Node4&#45;&gt;Node8 -->
<g id="edge7_Node000004_Node000008" class="edge">
<title>Node4&#45;&gt;Node8</title>
<g id="a_edge7_Node000004_Node000008"><a xlink:title=" ">
<path fill="none" stroke="#63b8ff" d="M721.73,-54.95C743.74,-47.4 775.3,-36.65 803,-27.5 808.27,-25.76 813.83,-23.94 819.32,-22.17"/>
<polygon fill="#63b8ff" stroke="#63b8ff" points="820.59,-25.43 829.04,-19.03 818.44,-18.77 820.59,-25.43"/>
</a>
</g>
</g>
<!-- Node9 -->
<g id="Node000009" class="node">
<title>Node9</title>
<g id="a_Node000009"><a xlink:href="classLogger.html#a4681229c521795685fc14f6b55c82300" target="_top" xlink:title="Log info message.">
<polygon fill="white" stroke="#666666" points="897,-93 823,-93 823,-74 897,-74 897,-93"/>
<text text-anchor="middle" x="860" y="-81" font-family="Helvetica,sans-Serif" font-size="10.00">Logger::Info</text>
</a>
</g>
</g>
<!-- Node4&#45;&gt;Node9 -->
<g id="edge8_Node000004_Node000009" class="edge">
<title>Node4&#45;&gt;Node9</title>
<g id="a_edge8_Node000004_Node000009"><a xlink:title=" ">
<path fill="none" stroke="#63b8ff" d="M767.33,-72.94C782.85,-74.73 798.8,-76.57 812.96,-78.2"/>
<polygon fill="#63b8ff" stroke="#63b8ff" points="812.58,-81.68 822.92,-79.35 813.38,-74.72 812.58,-81.68"/>
</a>
</g>
</g>
<!-- Node10 -->
<g id="Node000010" class="node">
<title>Node10</title>
<g id="a_Node000010"><a xlink:href="classLogger.html#aaa95ffa14d07a965d4a85bdec82cba26" target="_top" xlink:title="Log warning message.">
<polygon fill="white" stroke="#666666" points="900,-56 820,-56 820,-37 900,-37 900,-56"/>
<text text-anchor="middle" x="860" y="-44" font-family="Helvetica,sans-Serif" font-size="10.00">Logger::Warn</text>
</a>
</g>
</g>
<!-- Node4&#45;&gt;Node10 -->
<g id="edge11_Node000004_Node000010" class="edge">
<title>Node4&#45;&gt;Node10</title>
<g id="a_edge11_Node000004_Node000010"><a xlink:title=" ">
<path fill="none" stroke="#63b8ff" d="M767.33,-56.5C781.59,-54.94 796.23,-53.35 809.49,-51.9"/>
<polygon fill="#63b8ff" stroke="#63b8ff" points="810.25,-55.34 819.81,-50.78 809.49,-48.38 810.25,-55.34"/>
</a>
</g>
</g>
<!-- Node6 -->
<g id="Node000006" class="node">
<title>Node6</title>
<g id="a_Node000006"><a xlink:href="classLogger.html#af9e84e0ff6bd538e4f9ed8dcebc3e2f0" target="_top" xlink:title="Check if log level is enabled for tag.">
<polygon fill="white" stroke="#666666" points="1082,-111 953,-111 953,-92 1082,-92 1082,-111"/>
<text text-anchor="middle" x="1017.5" y="-99" font-family="Helvetica,sans-Serif" font-size="10.00">Logger::IsLevelEnabled</text>
</a>
</g>
</g>
<!-- Node5&#45;&gt;Node6 -->
<g id="edge5_Node000005_Node000006" class="edge">
<title>Node5&#45;&gt;Node6</title>
<g id="a_edge5_Node000005_Node000006"><a xlink:title=" ">
<path fill="none" stroke="#63b8ff" d="M899.84,-115.75C912.85,-114.16 927.82,-112.34 942.6,-110.53"/>
<polygon fill="#63b8ff" stroke="#63b8ff" points="943.28,-113.97 952.78,-109.29 942.43,-107.02 943.28,-113.97"/>
</a>
</g>
</g>
<!-- Node7 -->
<g id="Node000007" class="node">
<title>Node7</title>
<g id="a_Node000007"><a xlink:href="classLogger.html#a6adb205db597526fb91ad20067400394" target="_top" xlink:title="Internal logging method.">
<polygon fill="white" stroke="#666666" points="1072.5,-74 962.5,-74 962.5,-55 1072.5,-55 1072.5,-74"/>
<text text-anchor="middle" x="1017.5" y="-62" font-family="Helvetica,sans-Serif" font-size="10.00">Logger::LogInternal</text>
</a>
</g>
</g>
<!-- Node5&#45;&gt;Node7 -->
<g id="edge6_Node000005_Node000007" class="edge">
<title>Node5&#45;&gt;Node7</title>
<g id="a_edge6_Node000005_Node000007"><a xlink:title=" ">
<path fill="none" stroke="#63b8ff" d="M893.92,-110.98C901.59,-108.47 909.66,-105.59 917,-102.5 933.68,-95.48 936.25,-90.35 953,-83.5 958.53,-81.24 964.42,-79.12 970.31,-77.16"/>
<polygon fill="#63b8ff" stroke="#63b8ff" points="971.67,-80.41 980.14,-74.05 969.55,-73.73 971.67,-80.41"/>
</a>
</g>
</g>
<!-- Node9&#45;&gt;Node6 -->
<g id="edge9_Node000009_Node000006" class="edge">
<title>Node9&#45;&gt;Node6</title>
<g id="a_edge9_Node000009_Node000006"><a xlink:title=" ">
<path fill="none" stroke="#63b8ff" d="M897.07,-87.67C910.68,-89.25 926.72,-91.11 942.55,-92.94"/>
<polygon fill="#63b8ff" stroke="#63b8ff" points="942.55,-96.46 952.89,-94.14 943.36,-89.51 942.55,-96.46"/>
</a>
</g>
</g>
<!-- Node9&#45;&gt;Node7 -->
<g id="edge10_Node000009_Node000007" class="edge">
<title>Node9&#45;&gt;Node7</title>
<g id="a_edge10_Node000009_Node000007"><a xlink:title=" ">
<path fill="none" stroke="#63b8ff" d="M897.07,-79.09C913.49,-77.09 933.44,-74.65 952.3,-72.34"/>
<polygon fill="#63b8ff" stroke="#63b8ff" points="952.83,-75.81 962.33,-71.12 951.98,-68.86 952.83,-75.81"/>
</a>
</g>
</g>
<!-- Node10&#45;&gt;Node6 -->
<g id="edge12_Node000010_Node000006" class="edge">
<title>Node10&#45;&gt;Node6</title>
<g id="a_edge12_Node000010_Node000006"><a xlink:title=" ">
<path fill="none" stroke="#63b8ff" d="M891.51,-56.01C899.86,-58.84 908.85,-62.1 917,-65.5 933.51,-72.39 936.32,-77.03 953,-83.5 958.07,-85.47 963.45,-87.33 968.85,-89.05"/>
<polygon fill="#63b8ff" stroke="#63b8ff" points="967.92,-92.42 978.51,-91.99 969.96,-85.73 967.92,-92.42"/>
</a>
</g>
</g>
<!-- Node10&#45;&gt;Node7 -->
<g id="edge13_Node000010_Node000007" class="edge">
<title>Node10&#45;&gt;Node7</title>
<g id="a_edge13_Node000010_Node000007"><a xlink:title=" ">
<path fill="none" stroke="#63b8ff" d="M900.24,-51.04C915.96,-52.86 934.49,-55.01 952.08,-57.04"/>
<polygon fill="#63b8ff" stroke="#63b8ff" points="951.96,-60.55 962.3,-58.23 952.77,-53.6 951.96,-60.55"/>
</a>
</g>
</g>
<!-- Node11&#45;&gt;Node3 -->
<g id="edge15_Node000011_Node000003" class="edge">
<title>Node11&#45;&gt;Node3</title>
<g id="a_edge15_Node000011_Node000003"><a xlink:title=" ">
<path fill="none" stroke="#63b8ff" d="M360.3,-53.67C368.72,-54.38 377.33,-55.11 385.91,-55.83"/>
<polygon fill="#63b8ff" stroke="#63b8ff" points="385.69,-59.32 395.95,-56.68 386.28,-52.35 385.69,-59.32"/>
</a>
</g>
</g>
</g>
</svg>
