<?xml version="1.0" encoding="UTF-8" standalone="no"?>
<!DOCTYPE svg PUBLIC "-//W3C//DTD SVG 1.1//EN"
 "http://www.w3.org/Graphics/SVG/1.1/DTD/svg11.dtd">
<!-- Generated by graphviz version 2.43.0 (0)
 -->
<!-- Title: Logger::Error Pages: 1 -->
<svg width="955pt" height="967pt"
 viewBox="0.00 0.00 955.00 966.50" xmlns="http://www.w3.org/2000/svg" xmlns:xlink="http://www.w3.org/1999/xlink">
<g id="graph0" class="graph" transform="scale(1 1) rotate(0) translate(4 962.5)">
<title>Logger::Error</title>
<!-- Node1 -->
<g id="Node000001" class="node">
<title>Node1</title>
<g id="a_Node000001"><a xlink:title="Log error message.">
<polygon fill="#999999" stroke="#666666" points="947,-353.5 868,-353.5 868,-334.5 947,-334.5 947,-353.5"/>
<text text-anchor="middle" x="907.5" y="-341.5" font-family="Helvetica,sans-Serif" font-size="10.00">Logger::Error</text>
</a>
</g>
</g>
<!-- Node2 -->
<g id="Node000002" class="node">
<title>Node2</title>
<g id="a_Node000002"><a xlink:href="classMax22200Handler.html#aa00edacb247660349767fa4521121104" target="_top" xlink:title=" ">
<polygon fill="white" stroke="#666666" points="629,-735 436,-735 436,-705 629,-705 629,-735"/>
<text text-anchor="start" x="444" y="-723" font-family="Helvetica,sans-Serif" font-size="10.00">Max22200Handler::EnsureInitialized</text>
<text text-anchor="middle" x="532.5" y="-712" font-family="Helvetica,sans-Serif" font-size="10.00">Locked</text>
</a>
</g>
</g>
<!-- Node1&#45;&gt;Node2 -->
<g id="edge1_Node000001_Node000002" class="edge">
<title>Node1&#45;&gt;Node2</title>
<g id="a_edge1_Node000001_Node000002"><a xlink:title=" ">
<path fill="none" stroke="#63b8ff" d="M904.95,-363.91C899.44,-429 878.65,-633.81 832,-677 778.31,-726.71 694.28,-734.96 629.04,-732.2"/>
<polygon fill="#63b8ff" stroke="#63b8ff" points="908.45,-364.01 905.77,-353.76 901.47,-363.44 908.45,-364.01"/>
</a>
</g>
</g>
<!-- Node12 -->
<g id="Node000012" class="node">
<title>Node12</title>
<g id="a_Node000012"><a xlink:href="classTle92466edHandler.html#a59ce7fd71a61c78bba4dc4a43c99e280" target="_top" xlink:title=" ">
<polygon fill="white" stroke="#666666" points="598,-537 467,-537 467,-507 598,-507 598,-537"/>
<text text-anchor="start" x="475" y="-525" font-family="Helvetica,sans-Serif" font-size="10.00">Tle92466edHandler::</text>
<text text-anchor="middle" x="532.5" y="-514" font-family="Helvetica,sans-Serif" font-size="10.00">EnsureInitializedLocked</text>
</a>
</g>
</g>
<!-- Node1&#45;&gt;Node12 -->
<g id="edge11_Node000001_Node000012" class="edge">
<title>Node1&#45;&gt;Node12</title>
<g id="a_edge11_Node000001_Node000012"><a xlink:title=" ">
<path fill="none" stroke="#63b8ff" d="M900.49,-363.29C890.81,-390.98 869,-441.46 832,-467 813,-480.12 680.13,-501.05 598.19,-512.95"/>
<polygon fill="#63b8ff" stroke="#63b8ff" points="903.89,-364.18 903.72,-353.58 897.24,-361.97 903.89,-364.18"/>
</a>
</g>
</g>
<!-- Node27 -->
<g id="Node000027" class="node">
<title>Node27</title>
<g id="a_Node000027"><a xlink:href="classHalSpiMax22200Comm.html#afa72d731643fff15ec9f448e62401b43" target="_top" xlink:title=" ">
<polygon fill="white" stroke="#666666" points="814,-592 683,-592 683,-562 814,-562 814,-592"/>
<text text-anchor="start" x="691" y="-580" font-family="Helvetica,sans-Serif" font-size="10.00">HalSpiMax22200Comm</text>
<text text-anchor="middle" x="748.5" y="-569" font-family="Helvetica,sans-Serif" font-size="10.00">::GpioSet</text>
</a>
</g>
</g>
<!-- Node1&#45;&gt;Node27 -->
<g id="edge26_Node000001_Node000027" class="edge">
<title>Node1&#45;&gt;Node27</title>
<g id="a_edge26_Node000001_Node000027"><a xlink:title=" ">
<path fill="none" stroke="#63b8ff" d="M905.28,-363.62C901.64,-404.82 887.35,-500.84 832,-553 826.79,-557.91 820.63,-561.82 814.07,-564.94"/>
<polygon fill="#63b8ff" stroke="#63b8ff" points="908.78,-363.77 906.05,-353.53 901.8,-363.24 908.78,-363.77"/>
</a>
</g>
</g>
<!-- Node28 -->
<g id="Node000028" class="node">
<title>Node28</title>
<g id="a_Node000028"><a xlink:href="classMax22200Handler.html#a0dce05cd6639a10e52c0f669b72baf52" target="_top" xlink:title="Initialize driver (ENABLE HIGH, read/clear STATUS, set ACTIVE).">
<polygon fill="white" stroke="#666666" points="825.5,-667.5 671.5,-667.5 671.5,-648.5 825.5,-648.5 825.5,-667.5"/>
<text text-anchor="middle" x="748.5" y="-655.5" font-family="Helvetica,sans-Serif" font-size="10.00">Max22200Handler::Initialize</text>
</a>
</g>
</g>
<!-- Node1&#45;&gt;Node28 -->
<g id="edge27_Node000001_Node000028" class="edge">
<title>Node1&#45;&gt;Node28</title>
<g id="a_edge27_Node000001_Node000028"><a xlink:title=" ">
<path fill="none" stroke="#63b8ff" d="M905.22,-364.02C901.37,-410.05 886.56,-525.24 832,-601 816.33,-622.75 789.66,-638.96 770.89,-648.43"/>
<polygon fill="#63b8ff" stroke="#63b8ff" points="908.72,-364.11 905.98,-353.87 901.74,-363.59 908.72,-364.11"/>
</a>
</g>
</g>
<!-- Node29 -->
<g id="Node000029" class="node">
<title>Node29</title>
<g id="a_Node000029"><a xlink:href="classTle92466edHandler.html#ac607f9cf2453e8d1849b40d2dd8e8474" target="_top" xlink:title="Initialize driver (hardware reset + SPI init + enter config mode).">
<polygon fill="white" stroke="#666666" points="807.5,-544 689.5,-544 689.5,-514 807.5,-514 807.5,-544"/>
<text text-anchor="start" x="697.5" y="-532" font-family="Helvetica,sans-Serif" font-size="10.00">Tle92466edHandler::</text>
<text text-anchor="middle" x="748.5" y="-521" font-family="Helvetica,sans-Serif" font-size="10.00">Initialize</text>
</a>
</g>
</g>
<!-- Node1&#45;&gt;Node29 -->
<g id="edge29_Node000001_Node000029" class="edge">
<title>Node1&#45;&gt;Node29</title>
<g id="a_edge29_Node000001_Node000029"><a xlink:title=" ">
<path fill="none" stroke="#63b8ff" d="M902.28,-363.74C894.25,-396.58 873.75,-462.51 832,-500 825,-506.29 816.55,-511.23 807.76,-515.11"/>
<polygon fill="#63b8ff" stroke="#63b8ff" points="905.78,-364.14 904.61,-353.61 898.96,-362.57 905.78,-364.14"/>
</a>
</g>
</g>
<!-- Node30 -->
<g id="Node000030" class="node">
<title>Node30</title>
<g id="a_Node000030"><a xlink:href="classWs2812Handler.html#acce4955435f295ba4853b6239090982f" target="_top" xlink:title="Initialize the RMT channel and LED strip.">
<polygon fill="white" stroke="#666666" points="819.5,-457.5 677.5,-457.5 677.5,-438.5 819.5,-438.5 819.5,-457.5"/>
<text text-anchor="middle" x="748.5" y="-445.5" font-family="Helvetica,sans-Serif" font-size="10.00">Ws2812Handler::Initialize</text>
</a>
</g>
</g>
<!-- Node1&#45;&gt;Node30 -->
<g id="edge31_Node000001_Node000030" class="edge">
<title>Node1&#45;&gt;Node30</title>
<g id="a_edge31_Node000001_Node000030"><a xlink:title=" ">
<path fill="none" stroke="#63b8ff" d="M895.77,-362.26C883.11,-382.12 860.17,-413.27 832,-430 826.2,-433.44 819.82,-436.23 813.26,-438.49"/>
<polygon fill="#63b8ff" stroke="#63b8ff" points="898.89,-363.88 901.14,-353.52 892.92,-360.21 898.89,-363.88"/>
</a>
</g>
</g>
<!-- Node42 -->
<g id="Node000042" class="node">
<title>Node42</title>
<g id="a_Node000042"><a xlink:href="classAds7952Handler.html#a0644e9b1c82bc200591155b36a9ca4dd" target="_top" xlink:title="Initialize the ADS7952 ADC (lazy initialization).">
<polygon fill="white" stroke="#666666" points="821,-420.5 676,-420.5 676,-401.5 821,-401.5 821,-420.5"/>
<text text-anchor="middle" x="748.5" y="-408.5" font-family="Helvetica,sans-Serif" font-size="10.00">Ads7952Handler::Initialize</text>
</a>
</g>
</g>
<!-- Node1&#45;&gt;Node42 -->
<g id="edge39_Node000001_Node000042" class="edge">
<title>Node1&#45;&gt;Node42</title>
<g id="a_edge39_Node000001_Node000042"><a xlink:title=" ">
<path fill="none" stroke="#63b8ff" d="M886.43,-359.67C872.01,-370.22 851.72,-383.68 832,-392 822.93,-395.83 812.95,-398.96 803.17,-401.48"/>
<polygon fill="#63b8ff" stroke="#63b8ff" points="888.69,-362.35 894.58,-353.55 884.49,-356.76 888.69,-362.35"/>
</a>
</g>
</g>
<!-- Node47 -->
<g id="Node000047" class="node">
<title>Node47</title>
<g id="a_Node000047"><a xlink:href="classNtcTemperatureHandler.html#a97fa93b2ed6337e24e056b46fbe331c7" target="_top" xlink:title=" ">
<polygon fill="white" stroke="#666666" points="815,-383 682,-383 682,-353 815,-353 815,-383"/>
<text text-anchor="start" x="690" y="-371" font-family="Helvetica,sans-Serif" font-size="10.00">NtcTemperatureHandler</text>
<text text-anchor="middle" x="748.5" y="-360" font-family="Helvetica,sans-Serif" font-size="10.00">::Initialize</text>
</a>
</g>
</g>
<!-- Node1&#45;&gt;Node47 -->
<g id="edge41_Node000001_Node000047" class="edge">
<title>Node1&#45;&gt;Node47</title>
<g id="a_edge41_Node000001_Node000047"><a xlink:title=" ">
<path fill="none" stroke="#63b8ff" d="M857.68,-351.46C844.19,-353.53 829.33,-355.8 815.05,-357.98"/>
<polygon fill="#63b8ff" stroke="#63b8ff" points="858.33,-354.9 867.69,-349.93 857.28,-347.98 858.33,-354.9"/>
</a>
</g>
</g>
<!-- Node48 -->
<g id="Node000048" class="node">
<title>Node48</title>
<g id="a_Node000048"><a xlink:href="classTmc9660Handler_1_1Temperature.html#a8019acd874c13ba0e175224a367bf370" target="_top" xlink:title="Initialize (verifies parent driver is ready).">
<polygon fill="white" stroke="#666666" points="832,-335 665,-335 665,-305 832,-305 832,-335"/>
<text text-anchor="start" x="673" y="-323" font-family="Helvetica,sans-Serif" font-size="10.00">Tmc9660Handler::Temperature</text>
<text text-anchor="middle" x="748.5" y="-312" font-family="Helvetica,sans-Serif" font-size="10.00">::Initialize</text>
</a>
</g>
</g>
<!-- Node1&#45;&gt;Node48 -->
<g id="edge42_Node000001_Node000048" class="edge">
<title>Node1&#45;&gt;Node48</title>
<g id="a_edge42_Node000001_Node000048"><a xlink:title=" ">
<path fill="none" stroke="#63b8ff" d="M857.65,-336.53C849.49,-335.29 840.83,-333.96 832.09,-332.63"/>
<polygon fill="#63b8ff" stroke="#63b8ff" points="857.28,-340.02 867.69,-338.07 858.33,-333.1 857.28,-340.02"/>
</a>
</g>
</g>
<!-- Node49 -->
<g id="Node000049" class="node">
<title>Node49</title>
<g id="a_Node000049"><a xlink:href="classTmc9660Handler.html#adc564847f8ae26c47412aaee0758991c" target="_top" xlink:title="Initialize the TMC9660 device.">
<polygon fill="white" stroke="#666666" points="822.5,-286.5 674.5,-286.5 674.5,-267.5 822.5,-267.5 822.5,-286.5"/>
<text text-anchor="middle" x="748.5" y="-274.5" font-family="Helvetica,sans-Serif" font-size="10.00">Tmc9660Handler::Initialize</text>
</a>
</g>
</g>
<!-- Node1&#45;&gt;Node49 -->
<g id="edge43_Node000001_Node000049" class="edge">
<title>Node1&#45;&gt;Node49</title>
<g id="a_edge43_Node000001_Node000049"><a xlink:title=" ">
<path fill="none" stroke="#63b8ff" d="M886.43,-328.33C872.01,-317.78 851.72,-304.32 832,-296 822.93,-292.17 812.95,-289.04 803.17,-286.52"/>
<polygon fill="#63b8ff" stroke="#63b8ff" points="884.49,-331.24 894.58,-334.45 888.69,-325.65 884.49,-331.24"/>
</a>
</g>
</g>
<!-- Node107 -->
<g id="Node000107" class="node">
<title>Node107</title>
<g id="a_Node000107"><a xlink:href="classMax22200Handler.html#aca940fd8213ecb633bafb7c3e143a361" target="_top" xlink:title="Initialize with board configuration.">
<polygon fill="white" stroke="#666666" points="825.5,-249.5 671.5,-249.5 671.5,-230.5 825.5,-230.5 825.5,-249.5"/>
<text text-anchor="middle" x="748.5" y="-237.5" font-family="Helvetica,sans-Serif" font-size="10.00">Max22200Handler::Initialize</text>
</a>
</g>
</g>
<!-- Node1&#45;&gt;Node107 -->
<g id="edge45_Node000001_Node000107" class="edge">
<title>Node1&#45;&gt;Node107</title>
<g id="a_edge45_Node000001_Node000107"><a xlink:title=" ">
<path fill="none" stroke="#63b8ff" d="M895.49,-325.71C882.71,-306.12 859.79,-275.61 832,-259 825.57,-255.15 818.42,-252.09 811.1,-249.64"/>
<polygon fill="#63b8ff" stroke="#63b8ff" points="892.63,-327.75 900.92,-334.34 898.56,-324.02 892.63,-327.75"/>
</a>
</g>
</g>
<!-- Node108 -->
<g id="Node000108" class="node">
<title>Node108</title>
<g id="a_Node000108"><a xlink:href="classTle92466edHandler.html#a2f01dd08b168f009db41d658db3484eb" target="_top" xlink:title="Initialize with global configuration.">
<polygon fill="white" stroke="#666666" points="807.5,-212 689.5,-212 689.5,-182 807.5,-182 807.5,-212"/>
<text text-anchor="start" x="697.5" y="-200" font-family="Helvetica,sans-Serif" font-size="10.00">Tle92466edHandler::</text>
<text text-anchor="middle" x="748.5" y="-189" font-family="Helvetica,sans-Serif" font-size="10.00">Initialize</text>
</a>
</g>
</g>
<!-- Node1&#45;&gt;Node108 -->
<g id="edge46_Node000001_Node000108" class="edge">
<title>Node1&#45;&gt;Node108</title>
<g id="a_edge46_Node000001_Node000108"><a xlink:title=" ">
<path fill="none" stroke="#63b8ff" d="M899.91,-325C889.61,-298.11 867.18,-249.21 832,-222 824.78,-216.41 816.32,-212.07 807.61,-208.7"/>
<polygon fill="#63b8ff" stroke="#63b8ff" points="896.64,-326.26 903.37,-334.44 903.21,-323.85 896.64,-326.26"/>
</a>
</g>
</g>
<!-- Node109 -->
<g id="Node000109" class="node">
<title>Node109</title>
<g id="a_Node000109"><a xlink:href="classTmc5160Handler.html#a44ab36857e4e43062f81f7d6f10eab09" target="_top" xlink:title="Initialize the TMC5160 driver with full configuration.">
<polygon fill="white" stroke="#666666" points="822.5,-163.5 674.5,-163.5 674.5,-144.5 822.5,-144.5 822.5,-163.5"/>
<text text-anchor="middle" x="748.5" y="-151.5" font-family="Helvetica,sans-Serif" font-size="10.00">Tmc5160Handler::Initialize</text>
</a>
</g>
</g>
<!-- Node1&#45;&gt;Node109 -->
<g id="edge47_Node000001_Node000109" class="edge">
<title>Node1&#45;&gt;Node109</title>
<g id="a_edge47_Node000001_Node000109"><a xlink:title=" ">
<path fill="none" stroke="#63b8ff" d="M903.76,-324.34C897.69,-288.49 879.65,-212.58 832,-173 827.36,-169.15 822.1,-166.05 816.52,-163.55"/>
<polygon fill="#63b8ff" stroke="#63b8ff" points="900.34,-325.12 905.33,-334.47 907.26,-324.05 900.34,-325.12"/>
</a>
</g>
</g>
<!-- Node87 -->
<g id="Node000087" class="node">
<title>Node87</title>
<g id="a_Node000087"><a xlink:href="classTmc9660Handler_1_1Temperature.html#a5ebc77b2122ba4473b74a4a0fc78ff09" target="_top" xlink:title="Read the chip temperature in degrees Celsius.">
<polygon fill="white" stroke="#666666" points="832,-126 665,-126 665,-96 832,-96 832,-126"/>
<text text-anchor="start" x="673" y="-114" font-family="Helvetica,sans-Serif" font-size="10.00">Tmc9660Handler::Temperature</text>
<text text-anchor="middle" x="748.5" y="-103" font-family="Helvetica,sans-Serif" font-size="10.00">::ReadTemperatureCelsiusImpl</text>
</a>
</g>
</g>
<!-- Node1&#45;&gt;Node87 -->
<g id="edge49_Node000001_Node000087" class="edge">
<title>Node1&#45;&gt;Node87</title>
<g id="a_edge49_Node000001_Node000087"><a xlink:title=" ">
<path fill="none" stroke="#63b8ff" d="M905.28,-324.38C901.64,-283.18 887.35,-187.16 832,-135 828.42,-131.62 824.39,-128.72 820.09,-126.22"/>
<polygon fill="#63b8ff" stroke="#63b8ff" points="901.8,-324.76 906.05,-334.47 908.78,-324.23 901.8,-324.76"/>
</a>
</g>
</g>
<!-- Node120 -->
<g id="Node000120" class="node">
<title>Node120</title>
<g id="a_Node000120"><a xlink:href="classNtcTemperatureHandler.html#aeabac754a1b923c79969657d69b97a72" target="_top" xlink:title=" ">
<polygon fill="white" stroke="#666666" points="825,-78 672,-78 672,-48 825,-48 825,-78"/>
<text text-anchor="start" x="680" y="-66" font-family="Helvetica,sans-Serif" font-size="10.00">NtcTemperatureHandler</text>
<text text-anchor="middle" x="748.5" y="-55" font-family="Helvetica,sans-Serif" font-size="10.00">::StartContinuousMonitoring</text>
</a>
</g>
</g>
<!-- Node1&#45;&gt;Node120 -->
<g id="edge50_Node000001_Node000120" class="edge">
<title>Node1&#45;&gt;Node120</title>
<g id="a_edge50_Node000001_Node000120"><a xlink:title=" ">
<path fill="none" stroke="#63b8ff" d="M906.81,-324.26C906.46,-276.52 898.73,-153.79 832,-87 828.63,-83.62 824.81,-80.72 820.71,-78.21"/>
<polygon fill="#63b8ff" stroke="#63b8ff" points="903.31,-324.46 906.78,-334.47 910.31,-324.48 903.31,-324.46"/>
</a>
</g>
</g>
<!-- Node121 -->
<g id="Node000121" class="node">
<title>Node121</title>
<g id="a_Node000121"><a xlink:href="classHalSpiTle92466edComm.html#a63f84b0db1a338f4c02e76e8d01c8b65" target="_top" xlink:title=" ">
<polygon fill="white" stroke="#666666" points="817,-30 680,-30 680,0 817,0 817,-30"/>
<text text-anchor="start" x="688" y="-18" font-family="Helvetica,sans-Serif" font-size="10.00">HalSpiTle92466edComm</text>
<text text-anchor="middle" x="748.5" y="-7" font-family="Helvetica,sans-Serif" font-size="10.00">::Transfer32</text>
</a>
</g>
</g>
<!-- Node1&#45;&gt;Node121 -->
<g id="edge51_Node000001_Node000121" class="edge">
<title>Node1&#45;&gt;Node121</title>
<g id="a_edge51_Node000001_Node000121"><a xlink:title=" ">
<path fill="none" stroke="#63b8ff" d="M904.23,-324.04C896.9,-263.06 872.02,-80.8 832,-39 827.77,-34.58 822.78,-30.96 817.38,-28"/>
<polygon fill="#63b8ff" stroke="#63b8ff" points="900.78,-324.72 905.43,-334.25 907.74,-323.91 900.78,-324.72"/>
</a>
</g>
</g>
<!-- Node3 -->
<g id="Node000003" class="node">
<title>Node3</title>
<g id="a_Node000003"><a xlink:href="classMax22200Handler.html#afd07a624dc736a1452c0f6190499adc0" target="_top" xlink:title="Dump diagnostics to logger.">
<polygon fill="white" stroke="#666666" points="400,-748.5 202,-748.5 202,-729.5 400,-729.5 400,-748.5"/>
<text text-anchor="middle" x="301" y="-736.5" font-family="Helvetica,sans-Serif" font-size="10.00">Max22200Handler::DumpDiagnostics</text>
</a>
</g>
</g>
<!-- Node2&#45;&gt;Node3 -->
<g id="edge2_Node000002_Node000003" class="edge">
<title>Node2&#45;&gt;Node3</title>
<g id="a_edge2_Node000002_Node000003"><a xlink:title=" ">
<path fill="none" stroke="#63b8ff" d="M425.82,-728.75C417.25,-729.46 408.61,-730.17 400.1,-730.88"/>
<polygon fill="#63b8ff" stroke="#63b8ff" points="426.16,-732.23 435.83,-727.92 425.58,-725.26 426.16,-732.23"/>
</a>
</g>
</g>
<!-- Node4 -->
<g id="Node000004" class="node">
<title>Node4</title>
<g id="a_Node000004"><a xlink:href="classMax22200Handler.html#a803b60663755d7850857626b58efc084" target="_top" xlink:title="Ensure driver is initialized (lazy init entrypoint).">
<polygon fill="white" stroke="#666666" points="397.5,-711.5 204.5,-711.5 204.5,-692.5 397.5,-692.5 397.5,-711.5"/>
<text text-anchor="middle" x="301" y="-699.5" font-family="Helvetica,sans-Serif" font-size="10.00">Max22200Handler::EnsureInitialized</text>
</a>
</g>
</g>
<!-- Node2&#45;&gt;Node4 -->
<g id="edge3_Node000002_Node000004" class="edge">
<title>Node2&#45;&gt;Node4</title>
<g id="a_edge3_Node000002_Node000004"><a xlink:title=" ">
<path fill="none" stroke="#63b8ff" d="M425.68,-711.7C416.29,-710.96 406.81,-710.22 397.51,-709.49"/>
<polygon fill="#63b8ff" stroke="#63b8ff" points="425.59,-715.2 435.83,-712.5 426.14,-708.23 425.59,-715.2"/>
</a>
</g>
</g>
<!-- Node5 -->
<g id="Node000005" class="node">
<title>Node5</title>
<g id="a_Node000005"><a xlink:href="classMax22200Handler.html#a001e00b9d9a02611b51951f16bcb78d1" target="_top" xlink:title="Get the underlying driver for advanced operations.">
<polygon fill="white" stroke="#666666" points="380.5,-909.5 221.5,-909.5 221.5,-890.5 380.5,-890.5 380.5,-909.5"/>
<text text-anchor="middle" x="301" y="-897.5" font-family="Helvetica,sans-Serif" font-size="10.00">Max22200Handler::GetDriver</text>
</a>
</g>
</g>
<!-- Node2&#45;&gt;Node5 -->
<g id="edge4_Node000002_Node000005" class="edge">
<title>Node2&#45;&gt;Node5</title>
<g id="a_edge4_Node000002_Node000005"><a xlink:title=" ">
<path fill="none" stroke="#63b8ff" d="M508.02,-741.9C482.26,-765.55 439.35,-803.87 400,-834 371.82,-855.57 336.98,-878.13 317.34,-890.49"/>
<polygon fill="#63b8ff" stroke="#63b8ff" points="510.46,-744.41 515.43,-735.06 505.71,-739.27 510.46,-744.41"/>
</a>
</g>
</g>
<!-- Node7 -->
<g id="Node000007" class="node">
<title>Node7</title>
<g id="a_Node000007"><a xlink:href="classMax22200Handler.html#abcdd9746a0df9c28bb36508d52d80ef5" target="_top" xlink:title="Execute a lambda with a locked, initialized driver.">
<polygon fill="white" stroke="#666666" points="382.5,-824.5 219.5,-824.5 219.5,-805.5 382.5,-805.5 382.5,-824.5"/>
<text text-anchor="middle" x="301" y="-812.5" font-family="Helvetica,sans-Serif" font-size="10.00">Max22200Handler::withDriver</text>
</a>
</g>
</g>
<!-- Node2&#45;&gt;Node7 -->
<g id="edge6_Node000002_Node000007" class="edge">
<title>Node2&#45;&gt;Node7</title>
<g id="a_edge6_Node000002_Node000007"><a xlink:title=" ">
<path fill="none" stroke="#63b8ff" d="M485.81,-738.91C437.38,-758.96 362.79,-789.84 325.26,-805.37"/>
<polygon fill="#63b8ff" stroke="#63b8ff" points="487.23,-742.11 495.14,-735.05 484.56,-735.64 487.23,-742.11"/>
</a>
</g>
</g>
<!-- Node6 -->
<g id="Node000006" class="node">
<title>Node6</title>
<g id="a_Node000006"><a xlink:href="classMax22200Handler.html#aee42537a3d2f0955a1479709b2d4b4b8" target="_top" xlink:title=" ">
<polygon fill="white" stroke="#666666" points="162.5,-958.5 3.5,-958.5 3.5,-939.5 162.5,-939.5 162.5,-958.5"/>
<text text-anchor="middle" x="83" y="-946.5" font-family="Helvetica,sans-Serif" font-size="10.00">Max22200Handler::GetDriver</text>
</a>
</g>
</g>
<!-- Node5&#45;&gt;Node6 -->
<g id="edge5_Node000005_Node000006" class="edge">
<title>Node5&#45;&gt;Node6</title>
<g id="a_edge5_Node000005_Node000006"><a xlink:title=" ">
<path fill="none" stroke="#63b8ff" d="M247.92,-911.81C210.6,-920.28 160.99,-931.53 126.15,-939.44"/>
<polygon fill="#63b8ff" stroke="#63b8ff" points="249.12,-915.13 258.1,-909.51 247.57,-908.3 249.12,-915.13"/>
</a>
</g>
</g>
<!-- Node8 -->
<g id="Node000008" class="node">
<title>Node8</title>
<g id="a_Node000008"><a xlink:href="classMax22200Handler.html#a963d65edae16cca4fd153b3af0c1e68e" target="_top" xlink:title="Clear all fault flags.">
<polygon fill="white" stroke="#666666" points="166,-787.5 0,-787.5 0,-768.5 166,-768.5 166,-787.5"/>
<text text-anchor="middle" x="83" y="-775.5" font-family="Helvetica,sans-Serif" font-size="10.00">Max22200Handler::ClearFaults</text>
</a>
</g>
</g>
<!-- Node7&#45;&gt;Node8 -->
<g id="edge7_Node000007_Node000008" class="edge">
<title>Node7&#45;&gt;Node8</title>
<g id="a_edge7_Node000007_Node000008"><a xlink:title=" ">
<path fill="none" stroke="#63b8ff" d="M234.35,-803.75C204.15,-798.58 168.7,-792.51 139.81,-787.56"/>
<polygon fill="#63b8ff" stroke="#63b8ff" points="233.93,-807.23 244.37,-805.47 235.11,-800.33 233.93,-807.23"/>
</a>
</g>
</g>
<!-- Node9 -->
<g id="Node000009" class="node">
<title>Node9</title>
<g id="a_Node000009"><a xlink:href="classMax22200Handler.html#a9e9684818c7efddd45697f28051cbca2" target="_top" xlink:title="Disable all channels.">
<polygon fill="white" stroke="#666666" points="157.5,-921 8.5,-921 8.5,-891 157.5,-891 157.5,-921"/>
<text text-anchor="start" x="16.5" y="-909" font-family="Helvetica,sans-Serif" font-size="10.00">Max22200Handler::Disable</text>
<text text-anchor="middle" x="83" y="-898" font-family="Helvetica,sans-Serif" font-size="10.00">AllChannels</text>
</a>
</g>
</g>
<!-- Node7&#45;&gt;Node9 -->
<g id="edge8_Node000007_Node000009" class="edge">
<title>Node7&#45;&gt;Node9</title>
<g id="a_edge8_Node000007_Node000009"><a xlink:title=" ">
<path fill="none" stroke="#63b8ff" d="M274.1,-829.7C247.56,-844.33 204.81,-866.76 166,-882 157.85,-885.2 149.11,-888.2 140.47,-890.92"/>
<polygon fill="#63b8ff" stroke="#63b8ff" points="276.07,-832.61 283.1,-824.68 272.66,-826.49 276.07,-832.61"/>
</a>
</g>
</g>
<!-- Node10 -->
<g id="Node000010" class="node">
<title>Node10</title>
<g id="a_Node000010"><a xlink:href="classMax22200Handler.html#af7aba4f68825068e774badca04c49a07" target="_top" xlink:title="Enable all channels.">
<polygon fill="white" stroke="#666666" points="162,-873 4,-873 4,-843 162,-843 162,-873"/>
<text text-anchor="start" x="12" y="-861" font-family="Helvetica,sans-Serif" font-size="10.00">Max22200Handler::EnableAll</text>
<text text-anchor="middle" x="83" y="-850" font-family="Helvetica,sans-Serif" font-size="10.00">Channels</text>
</a>
</g>
</g>
<!-- Node7&#45;&gt;Node10 -->
<g id="edge9_Node000007_Node000010" class="edge">
<title>Node7&#45;&gt;Node10</title>
<g id="a_edge9_Node000007_Node000010"><a xlink:title=" ">
<path fill="none" stroke="#63b8ff" d="M242.2,-826.51C216.77,-831.57 186.55,-837.58 159.38,-842.99"/>
<polygon fill="#63b8ff" stroke="#63b8ff" points="242.94,-829.93 252.06,-824.54 241.57,-823.06 242.94,-829.93"/>
</a>
</g>
</g>
<!-- Node11 -->
<g id="Node000011" class="node">
<title>Node11</title>
<g id="a_Node000011"><a xlink:href="classMax22200Handler.html#ac5b60b117fec404c55597929134fa1a1" target="_top" xlink:title="Check if any fault is present.">
<polygon fill="white" stroke="#666666" points="160,-824.5 6,-824.5 6,-805.5 160,-805.5 160,-824.5"/>
<text text-anchor="middle" x="83" y="-812.5" font-family="Helvetica,sans-Serif" font-size="10.00">Max22200Handler::HasFault</text>
</a>
</g>
</g>
<!-- Node7&#45;&gt;Node11 -->
<g id="edge10_Node000007_Node000011" class="edge">
<title>Node7&#45;&gt;Node11</title>
<g id="a_edge10_Node000007_Node000011"><a xlink:title=" ">
<path fill="none" stroke="#63b8ff" d="M209.22,-815C192.95,-815 176.16,-815 160.35,-815"/>
<polygon fill="#63b8ff" stroke="#63b8ff" points="209.26,-818.5 219.26,-815 209.26,-811.5 209.26,-818.5"/>
</a>
</g>
</g>
<!-- Node13 -->
<g id="Node000013" class="node">
<title>Node13</title>
<g id="a_Node000013"><a xlink:href="classTle92466edHandler.html#afcec01ba90f6596dcde99387ef41b6e4" target="_top" xlink:title="Dump diagnostics to logger.">
<polygon fill="white" stroke="#666666" points="360,-534 242,-534 242,-504 360,-504 360,-534"/>
<text text-anchor="start" x="250" y="-522" font-family="Helvetica,sans-Serif" font-size="10.00">Tle92466edHandler::</text>
<text text-anchor="middle" x="301" y="-511" font-family="Helvetica,sans-Serif" font-size="10.00">DumpDiagnostics</text>
</a>
</g>
</g>
<!-- Node12&#45;&gt;Node13 -->
<g id="edge12_Node000012_Node000013" class="edge">
<title>Node12&#45;&gt;Node13</title>
<g id="a_edge12_Node000012_Node000013"><a xlink:title=" ">
<path fill="none" stroke="#63b8ff" d="M456.94,-521.03C425.55,-520.62 389.57,-520.14 360.18,-519.76"/>
<polygon fill="#63b8ff" stroke="#63b8ff" points="456.92,-524.53 466.96,-521.16 457.01,-517.53 456.92,-524.53"/>
</a>
</g>
</g>
<!-- Node14 -->
<g id="Node000014" class="node">
<title>Node14</title>
<g id="a_Node000014"><a xlink:href="classTle92466edHandler.html#a1a976346516812f7125cdeb2f3aeb327" target="_top" xlink:title="Ensure driver is initialized (lazy init entrypoint).">
<polygon fill="white" stroke="#666666" points="360,-486 242,-486 242,-456 360,-456 360,-486"/>
<text text-anchor="start" x="250" y="-474" font-family="Helvetica,sans-Serif" font-size="10.00">Tle92466edHandler::</text>
<text text-anchor="middle" x="301" y="-463" font-family="Helvetica,sans-Serif" font-size="10.00">EnsureInitialized</text>
</a>
</g>
</g>
<!-- Node12&#45;&gt;Node14 -->
<g id="edge13_Node000012_Node000014" class="edge">
<title>Node12&#45;&gt;Node14</title>
<g id="a_edge13_Node000012_Node000014"><a xlink:title=" ">
<path fill="none" stroke="#63b8ff" d="M456.94,-505.43C425.55,-498.46 389.57,-490.46 360.18,-483.93"/>
<polygon fill="#63b8ff" stroke="#63b8ff" points="456.44,-508.91 466.96,-507.66 457.96,-502.07 456.44,-508.91"/>
</a>
</g>
</g>
<!-- Node15 -->
<g id="Node000015" class="node">
<title>Node15</title>
<g id="a_Node000015"><a xlink:href="classTle92466edHandler.html#ae83bbf85e50d68c8adcc2160bdaed271" target="_top" xlink:title="Get the underlying driver for advanced operations.">
<polygon fill="white" stroke="#666666" points="360,-645 242,-645 242,-615 360,-615 360,-645"/>
<text text-anchor="start" x="250" y="-633" font-family="Helvetica,sans-Serif" font-size="10.00">Tle92466edHandler::</text>
<text text-anchor="middle" x="301" y="-622" font-family="Helvetica,sans-Serif" font-size="10.00">GetDriver</text>
</a>
</g>
</g>
<!-- Node12&#45;&gt;Node15 -->
<g id="edge14_Node000012_Node000015" class="edge">
<title>Node12&#45;&gt;Node15</title>
<g id="a_edge14_Node000012_Node000015"><a xlink:title=" ">
<path fill="none" stroke="#63b8ff" d="M495.91,-541.97C469.74,-556.33 433.11,-575.78 400,-591 381.37,-599.57 360.28,-608.1 342.45,-615"/>
<polygon fill="#63b8ff" stroke="#63b8ff" points="497.65,-545.01 504.71,-537.11 494.27,-538.88 497.65,-545.01"/>
</a>
</g>
</g>
<!-- Node17 -->
<g id="Node000017" class="node">
<title>Node17</title>
<g id="a_Node000017"><a xlink:href="classTle92466edHandler.html#aef42f3c7c1b1ef51b27eb8d178aca6bc" target="_top" xlink:title="Execute a lambda with a locked, initialized driver.">
<polygon fill="white" stroke="#666666" points="360,-582 242,-582 242,-552 360,-552 360,-582"/>
<text text-anchor="start" x="250" y="-570" font-family="Helvetica,sans-Serif" font-size="10.00">Tle92466edHandler::</text>
<text text-anchor="middle" x="301" y="-559" font-family="Helvetica,sans-Serif" font-size="10.00">withDriver</text>
</a>
</g>
</g>
<!-- Node12&#45;&gt;Node17 -->
<g id="edge16_Node000012_Node000017" class="edge">
<title>Node12&#45;&gt;Node17</title>
<g id="a_edge16_Node000012_Node000017"><a xlink:title=" ">
<path fill="none" stroke="#63b8ff" d="M456.94,-536.62C425.55,-542.77 389.57,-549.83 360.18,-555.59"/>
<polygon fill="#63b8ff" stroke="#63b8ff" points="457.82,-540.01 466.96,-534.65 456.47,-533.14 457.82,-540.01"/>
</a>
</g>
</g>
<!-- Node16 -->
<g id="Node000016" class="node">
<title>Node16</title>
<g id="a_Node000016"><a xlink:href="classTle92466edHandler.html#a56ebe6e509ccd1b6b865728ba14d2533" target="_top" xlink:title=" ">
<polygon fill="white" stroke="#666666" points="142,-750 24,-750 24,-720 142,-720 142,-750"/>
<text text-anchor="start" x="32" y="-738" font-family="Helvetica,sans-Serif" font-size="10.00">Tle92466edHandler::</text>
<text text-anchor="middle" x="83" y="-727" font-family="Helvetica,sans-Serif" font-size="10.00">GetDriver</text>
</a>
</g>
</g>
<!-- Node15&#45;&gt;Node16 -->
<g id="edge15_Node000015_Node000016" class="edge">
<title>Node15&#45;&gt;Node16</title>
<g id="a_edge15_Node000015_Node000016"><a xlink:title=" ">
<path fill="none" stroke="#63b8ff" d="M261.27,-649.73C242.95,-659.47 220.98,-671.74 202,-684 185.2,-694.85 183.88,-702.05 166,-711 158.57,-714.72 150.47,-717.96 142.34,-720.75"/>
<polygon fill="#63b8ff" stroke="#63b8ff" points="263,-652.78 270.22,-645.02 259.74,-646.58 263,-652.78"/>
</a>
</g>
</g>
<!-- Node18 -->
<g id="Node000018" class="node">
<title>Node18</title>
<g id="a_Node000018"><a xlink:href="classTle92466edHandler.html#ab3123678e6df690f5669fd89079e0a4e" target="_top" xlink:title="Clear all fault flags.">
<polygon fill="white" stroke="#666666" points="142,-414 24,-414 24,-384 142,-384 142,-414"/>
<text text-anchor="start" x="32" y="-402" font-family="Helvetica,sans-Serif" font-size="10.00">Tle92466edHandler::</text>
<text text-anchor="middle" x="83" y="-391" font-family="Helvetica,sans-Serif" font-size="10.00">ClearFaults</text>
</a>
</g>
</g>
<!-- Node17&#45;&gt;Node18 -->
<g id="edge17_Node000017_Node000018" class="edge">
<title>Node17&#45;&gt;Node18</title>
<g id="a_edge17_Node000017_Node000018"><a xlink:title=" ">
<path fill="none" stroke="#63b8ff" d="M232.1,-560.14C221,-556.44 210.4,-550.98 202,-543 161.63,-504.65 205.51,-462.24 166,-423 159.37,-416.41 151.04,-411.62 142.24,-408.13"/>
<polygon fill="#63b8ff" stroke="#63b8ff" points="231.36,-563.57 241.94,-562.97 233.3,-556.85 231.36,-563.57"/>
</a>
</g>
</g>
<!-- Node19 -->
<g id="Node000019" class="node">
<title>Node19</title>
<g id="a_Node000019"><a xlink:href="classTle92466edHandler.html#ac37cbbcce53c7a55657ee61cd5015190" target="_top" xlink:title="Disable all channels.">
<polygon fill="white" stroke="#666666" points="142,-366 24,-366 24,-336 142,-336 142,-366"/>
<text text-anchor="start" x="32" y="-354" font-family="Helvetica,sans-Serif" font-size="10.00">Tle92466edHandler::</text>
<text text-anchor="middle" x="83" y="-343" font-family="Helvetica,sans-Serif" font-size="10.00">DisableAllChannels</text>
</a>
</g>
</g>
<!-- Node17&#45;&gt;Node19 -->
<g id="edge18_Node000017_Node000019" class="edge">
<title>Node17&#45;&gt;Node19</title>
<g id="a_edge18_Node000017_Node000019"><a xlink:title=" ">
<path fill="none" stroke="#63b8ff" d="M231.95,-560.82C220.76,-557.06 210.17,-551.41 202,-543 148.79,-488.22 217.97,-430.95 166,-375 159.54,-368.04 151.18,-363.07 142.28,-359.51"/>
<polygon fill="#63b8ff" stroke="#63b8ff" points="231.31,-564.28 241.89,-563.66 233.24,-557.55 231.31,-564.28"/>
</a>
</g>
</g>
<!-- Node20 -->
<g id="Node000020" class="node">
<title>Node20</title>
<g id="a_Node000020"><a xlink:href="classTle92466edHandler.html#a1ee30771436827a1499a379aa7e5ab49" target="_top" xlink:title="Enable all channels.">
<polygon fill="white" stroke="#666666" points="142,-318 24,-318 24,-288 142,-288 142,-318"/>
<text text-anchor="start" x="32" y="-306" font-family="Helvetica,sans-Serif" font-size="10.00">Tle92466edHandler::</text>
<text text-anchor="middle" x="83" y="-295" font-family="Helvetica,sans-Serif" font-size="10.00">EnableAllChannels</text>
</a>
</g>
</g>
<!-- Node17&#45;&gt;Node20 -->
<g id="edge19_Node000017_Node000020" class="edge">
<title>Node17&#45;&gt;Node20</title>
<g id="a_edge19_Node000017_Node000020"><a xlink:title=" ">
<path fill="none" stroke="#63b8ff" d="M232.16,-561.3C220.8,-557.51 210.1,-551.73 202,-543 135.81,-471.65 230.58,-399.81 166,-327 159.6,-319.79 151.17,-314.69 142.14,-311.1"/>
<polygon fill="#63b8ff" stroke="#63b8ff" points="231.24,-564.68 241.81,-564.04 233.15,-557.94 231.24,-564.68"/>
</a>
</g>
</g>
<!-- Node21 -->
<g id="Node000021" class="node">
<title>Node21</title>
<g id="a_Node000021"><a xlink:href="classTle92466edHandler.html#a19b966bb109b988eb98d319b76908667" target="_top" xlink:title="Enter config mode (for register writes).">
<polygon fill="white" stroke="#666666" points="142,-702 24,-702 24,-672 142,-672 142,-702"/>
<text text-anchor="start" x="32" y="-690" font-family="Helvetica,sans-Serif" font-size="10.00">Tle92466edHandler::</text>
<text text-anchor="middle" x="83" y="-679" font-family="Helvetica,sans-Serif" font-size="10.00">EnterConfigMode</text>
</a>
</g>
</g>
<!-- Node17&#45;&gt;Node21 -->
<g id="edge20_Node000017_Node000021" class="edge">
<title>Node17&#45;&gt;Node21</title>
<g id="a_edge20_Node000017_Node000021"><a xlink:title=" ">
<path fill="none" stroke="#63b8ff" d="M235.3,-586C223.47,-591.29 211.78,-597.88 202,-606 178.95,-625.14 189.92,-644.96 166,-663 158.89,-668.36 150.61,-672.52 142.1,-675.76"/>
<polygon fill="#63b8ff" stroke="#63b8ff" points="236.92,-589.12 244.79,-582.04 234.22,-582.66 236.92,-589.12"/>
</a>
</g>
</g>
<!-- Node22 -->
<g id="Node000022" class="node">
<title>Node22</title>
<g id="a_Node000022"><a xlink:href="classTle92466edHandler.html#aee10ff4c219a042d260a6b1f58a9219a" target="_top" xlink:title="Enter mission mode (enable outputs after configuration).">
<polygon fill="white" stroke="#666666" points="142,-654 24,-654 24,-624 142,-624 142,-654"/>
<text text-anchor="start" x="32" y="-642" font-family="Helvetica,sans-Serif" font-size="10.00">Tle92466edHandler::</text>
<text text-anchor="middle" x="83" y="-631" font-family="Helvetica,sans-Serif" font-size="10.00">EnterMissionMode</text>
</a>
</g>
</g>
<!-- Node17&#45;&gt;Node22 -->
<g id="edge21_Node000017_Node000022" class="edge">
<title>Node17&#45;&gt;Node22</title>
<g id="a_edge21_Node000017_Node000022"><a xlink:title=" ">
<path fill="none" stroke="#63b8ff" d="M250.36,-585.57C225.21,-594.78 194.11,-605.86 166,-615 156.69,-618.03 146.73,-621.09 137.07,-623.97"/>
<polygon fill="#63b8ff" stroke="#63b8ff" points="251.87,-588.75 260.05,-582.01 249.45,-582.18 251.87,-588.75"/>
</a>
</g>
</g>
<!-- Node23 -->
<g id="Node000023" class="node">
<title>Node23</title>
<g id="a_Node000023"><a xlink:href="classTle92466edHandler.html#a4c646ee5db271f07517cc15e8a623f0e" target="_top" xlink:title="Get chip ID (returns 0 on error).">
<polygon fill="white" stroke="#666666" points="142,-606 24,-606 24,-576 142,-576 142,-606"/>
<text text-anchor="start" x="32" y="-594" font-family="Helvetica,sans-Serif" font-size="10.00">Tle92466edHandler::</text>
<text text-anchor="middle" x="83" y="-583" font-family="Helvetica,sans-Serif" font-size="10.00">GetChipId</text>
</a>
</g>
</g>
<!-- Node17&#45;&gt;Node23 -->
<g id="edge22_Node000017_Node000023" class="edge">
<title>Node17&#45;&gt;Node23</title>
<g id="a_edge22_Node000017_Node000023"><a xlink:title=" ">
<path fill="none" stroke="#63b8ff" d="M231.85,-574.57C203.07,-577.77 169.89,-581.46 142.27,-584.53"/>
<polygon fill="#63b8ff" stroke="#63b8ff" points="232.28,-578.05 241.83,-573.46 231.51,-571.09 232.28,-578.05"/>
</a>
</g>
</g>
<!-- Node24 -->
<g id="Node000024" class="node">
<title>Node24</title>
<g id="a_Node000024"><a xlink:href="classTle92466edHandler.html#a0c29d4ada1c9247dc90fb64d914dec1f" target="_top" xlink:title="Get IC version (returns 0 on error).">
<polygon fill="white" stroke="#666666" points="142,-558 24,-558 24,-528 142,-528 142,-558"/>
<text text-anchor="start" x="32" y="-546" font-family="Helvetica,sans-Serif" font-size="10.00">Tle92466edHandler::</text>
<text text-anchor="middle" x="83" y="-535" font-family="Helvetica,sans-Serif" font-size="10.00">GetIcVersion</text>
</a>
</g>
</g>
<!-- Node17&#45;&gt;Node24 -->
<g id="edge23_Node000017_Node000024" class="edge">
<title>Node17&#45;&gt;Node24</title>
<g id="a_edge23_Node000017_Node000024"><a xlink:title=" ">
<path fill="none" stroke="#63b8ff" d="M231.85,-559.43C203.07,-556.23 169.89,-552.54 142.27,-549.47"/>
<polygon fill="#63b8ff" stroke="#63b8ff" points="231.51,-562.91 241.83,-560.54 232.28,-555.95 231.51,-562.91"/>
</a>
</g>
</g>
<!-- Node25 -->
<g id="Node000025" class="node">
<title>Node25</title>
<g id="a_Node000025"><a xlink:href="classTle92466edHandler.html#ab86e6d3eb2dca25154a8fa7c42ddb945" target="_top" xlink:title="Check if any fault is present.">
<polygon fill="white" stroke="#666666" points="142,-510 24,-510 24,-480 142,-480 142,-510"/>
<text text-anchor="start" x="32" y="-498" font-family="Helvetica,sans-Serif" font-size="10.00">Tle92466edHandler::</text>
<text text-anchor="middle" x="83" y="-487" font-family="Helvetica,sans-Serif" font-size="10.00">HasFault</text>
</a>
</g>
</g>
<!-- Node17&#45;&gt;Node25 -->
<g id="edge24_Node000017_Node000025" class="edge">
<title>Node17&#45;&gt;Node25</title>
<g id="a_edge24_Node000017_Node000025"><a xlink:title=" ">
<path fill="none" stroke="#63b8ff" d="M232.08,-553.64C221.81,-550.69 211.48,-547.17 202,-543 184.4,-535.26 183.43,-527.13 166,-519 158.47,-515.49 150.31,-512.37 142.16,-509.63"/>
<polygon fill="#63b8ff" stroke="#63b8ff" points="231.32,-557.06 241.89,-556.3 233.16,-550.3 231.32,-557.06"/>
</a>
</g>
</g>
<!-- Node26 -->
<g id="Node000026" class="node">
<title>Node26</title>
<g id="a_Node000026"><a xlink:href="classTle92466edHandler.html#a6bcbd117208f3e44f2216d45541eb4fa" target="_top" xlink:title="Check if in mission mode.">
<polygon fill="white" stroke="#666666" points="142,-462 24,-462 24,-432 142,-432 142,-462"/>
<text text-anchor="start" x="32" y="-450" font-family="Helvetica,sans-Serif" font-size="10.00">Tle92466edHandler::</text>
<text text-anchor="middle" x="83" y="-439" font-family="Helvetica,sans-Serif" font-size="10.00">IsMissionMode</text>
</a>
</g>
</g>
<!-- Node17&#45;&gt;Node26 -->
<g id="edge25_Node000017_Node000026" class="edge">
<title>Node17&#45;&gt;Node26</title>
<g id="a_edge25_Node000017_Node000026"><a xlink:title=" ">
<path fill="none" stroke="#63b8ff" d="M231.87,-558.48C221.12,-554.92 210.7,-549.94 202,-543 174.04,-520.68 193.46,-493.94 166,-471 159.06,-465.2 150.77,-460.8 142.16,-457.46"/>
<polygon fill="#63b8ff" stroke="#63b8ff" points="231.21,-561.93 241.79,-561.36 233.17,-555.21 231.21,-561.93"/>
</a>
</g>
</g>
<!-- Node28&#45;&gt;Node2 -->
<g id="edge28_Node000028_Node000002" class="edge">
<title>Node28&#45;&gt;Node2</title>
<g id="a_edge28_Node000028_Node000002"><a xlink:title=" ">
<path fill="none" stroke="#63b8ff" d="M704.81,-670.37C670.53,-680.3 622.25,-694.29 585.67,-704.88"/>
<polygon fill="#63b8ff" stroke="#63b8ff" points="705.9,-673.7 714.53,-667.55 703.95,-666.97 705.9,-673.7"/>
</a>
</g>
</g>
<!-- Node29&#45;&gt;Node12 -->
<g id="edge30_Node000029_Node000012" class="edge">
<title>Node29&#45;&gt;Node12</title>
<g id="a_edge30_Node000029_Node000012"><a xlink:title=" ">
<path fill="none" stroke="#63b8ff" d="M679.17,-526.76C653.19,-525.92 623.7,-524.95 598.09,-524.11"/>
<polygon fill="#63b8ff" stroke="#63b8ff" points="679.2,-530.27 689.31,-527.1 679.43,-523.27 679.2,-530.27"/>
</a>
</g>
</g>
<!-- Node31 -->
<g id="Node000031" class="node">
<title>Node31</title>
<g id="a_Node000031"><a xlink:href="classWs2812Handler.html#afe5f397b22e9b92cf2fb2cebae6e123d" target="_top" xlink:title=" ">
<polygon fill="white" stroke="#666666" points="623,-402 442,-402 442,-372 623,-372 623,-402"/>
<text text-anchor="start" x="450" y="-390" font-family="Helvetica,sans-Serif" font-size="10.00">Ws2812Handler::EnsureInitialized</text>
<text text-anchor="middle" x="532.5" y="-379" font-family="Helvetica,sans-Serif" font-size="10.00">Locked</text>
</a>
</g>
</g>
<!-- Node30&#45;&gt;Node31 -->
<g id="edge32_Node000030_Node000031" class="edge">
<title>Node30&#45;&gt;Node31</title>
<g id="a_edge32_Node000030_Node000031"><a xlink:title=" ">
<path fill="none" stroke="#63b8ff" d="M689.97,-436.23C681.56,-434.28 673.03,-432.18 665,-430 634.87,-421.81 601.43,-410.85 575.81,-402.04"/>
<polygon fill="#63b8ff" stroke="#63b8ff" points="689.22,-439.65 699.75,-438.44 690.77,-432.82 689.22,-439.65"/>
</a>
</g>
</g>
<!-- Node32 -->
<g id="Node000032" class="node">
<title>Node32</title>
<g id="a_Node000032"><a xlink:href="classWs2812Handler.html#a586683dcf63f17194b77c026972c7b2b" target="_top" xlink:title="Dump diagnostics to logger.">
<polygon fill="white" stroke="#666666" points="394,-363.5 208,-363.5 208,-344.5 394,-344.5 394,-363.5"/>
<text text-anchor="middle" x="301" y="-351.5" font-family="Helvetica,sans-Serif" font-size="10.00">Ws2812Handler::DumpDiagnostics</text>
</a>
</g>
</g>
<!-- Node31&#45;&gt;Node32 -->
<g id="edge33_Node000031_Node000032" class="edge">
<title>Node31&#45;&gt;Node32</title>
<g id="a_edge33_Node000031_Node000032"><a xlink:title=" ">
<path fill="none" stroke="#63b8ff" d="M431.65,-372.64C410.19,-369.56 388.01,-366.37 368.21,-363.52"/>
<polygon fill="#63b8ff" stroke="#63b8ff" points="431.39,-376.14 441.78,-374.1 432.38,-369.21 431.39,-376.14"/>
</a>
</g>
</g>
<!-- Node33 -->
<g id="Node000033" class="node">
<title>Node33</title>
<g id="a_Node000033"><a xlink:href="classWs2812Handler.html#a764cc93c64a81844a284ac7515ea8366" target="_top" xlink:title="Ensure strip resources are initialized (lazy init entrypoint).">
<polygon fill="white" stroke="#666666" points="391.5,-326.5 210.5,-326.5 210.5,-307.5 391.5,-307.5 391.5,-326.5"/>
<text text-anchor="middle" x="301" y="-314.5" font-family="Helvetica,sans-Serif" font-size="10.00">Ws2812Handler::EnsureInitialized</text>
</a>
</g>
</g>
<!-- Node31&#45;&gt;Node33 -->
<g id="edge34_Node000031_Node000033" class="edge">
<title>Node31&#45;&gt;Node33</title>
<g id="a_edge34_Node000031_Node000033"><a xlink:title=" ">
<path fill="none" stroke="#63b8ff" d="M449.27,-368.63C444.71,-366.9 440.26,-365.03 436,-363 417.95,-354.39 418.28,-344.11 400,-336 391.21,-332.1 381.62,-329 372,-326.53"/>
<polygon fill="#63b8ff" stroke="#63b8ff" points="448.13,-371.94 458.72,-371.96 450.46,-365.34 448.13,-371.94"/>
</a>
</g>
</g>
<!-- Node34 -->
<g id="Node000034" class="node">
<title>Node34</title>
<g id="a_Node000034"><a xlink:href="classWs2812Handler.html#a3e09ba2c15d5b0e7d6d254e22f634ae8" target="_top" xlink:title="Get the animator object.">
<polygon fill="#fff0f0" stroke="red" points="382,-289.5 220,-289.5 220,-270.5 382,-270.5 382,-289.5"/>
<text text-anchor="middle" x="301" y="-277.5" font-family="Helvetica,sans-Serif" font-size="10.00">Ws2812Handler::GetAnimator</text>
</a>
</g>
</g>
<!-- Node31&#45;&gt;Node34 -->
<g id="edge35_Node000031_Node000034" class="edge">
<title>Node31&#45;&gt;Node34</title>
<g id="a_edge35_Node000031_Node000034"><a xlink:title=" ">
<path fill="none" stroke="#63b8ff" d="M441.66,-366.94C439.71,-365.7 437.82,-364.39 436,-363 410.06,-343.19 426.47,-318.09 400,-299 394.52,-295.05 388.43,-291.86 382.05,-289.29"/>
<polygon fill="#63b8ff" stroke="#63b8ff" points="440.12,-370.08 450.56,-371.89 443.52,-363.97 440.12,-370.08"/>
</a>
</g>
</g>
<!-- Node36 -->
<g id="Node000036" class="node">
<title>Node36</title>
<g id="a_Node000036"><a xlink:href="classWs2812Handler.html#a7471840392adad3cab496e2dc57dc792" target="_top" xlink:title="Get the underlying LED strip object.">
<polygon fill="#fff0f0" stroke="red" points="371,-252.5 231,-252.5 231,-233.5 371,-233.5 371,-252.5"/>
<text text-anchor="middle" x="301" y="-240.5" font-family="Helvetica,sans-Serif" font-size="10.00">Ws2812Handler::GetStrip</text>
</a>
</g>
</g>
<!-- Node31&#45;&gt;Node36 -->
<g id="edge36_Node000031_Node000036" class="edge">
<title>Node31&#45;&gt;Node36</title>
<g id="a_edge36_Node000031_Node000036"><a xlink:title=" ">
<path fill="none" stroke="#63b8ff" d="M440.06,-366.39C438.66,-365.31 437.31,-364.19 436,-363 400.72,-330.96 436.14,-293.06 400,-262 391.79,-254.94 381.74,-250.19 371.25,-247.05"/>
<polygon fill="#63b8ff" stroke="#63b8ff" points="438.23,-369.38 448.5,-371.97 442.09,-363.54 438.23,-369.38"/>
</a>
</g>
</g>
<!-- Node40 -->
<g id="Node000040" class="node">
<title>Node40</title>
<g id="a_Node000040"><a xlink:href="classWs2812Handler.html#ae6bb3e858c86d80d69edc1fced893293" target="_top" xlink:title="Visit animator object with a callable.">
<polygon fill="white" stroke="#666666" points="384,-437.5 218,-437.5 218,-418.5 384,-418.5 384,-437.5"/>
<text text-anchor="middle" x="301" y="-425.5" font-family="Helvetica,sans-Serif" font-size="10.00">Ws2812Handler::visitAnimator</text>
</a>
</g>
</g>
<!-- Node31&#45;&gt;Node40 -->
<g id="edge37_Node000031_Node000040" class="edge">
<title>Node31&#45;&gt;Node40</title>
<g id="a_edge37_Node000031_Node000040"><a xlink:title=" ">
<path fill="none" stroke="#63b8ff" d="M437.17,-403.85C409.32,-408.83 379.8,-414.1 355.48,-418.45"/>
<polygon fill="#63b8ff" stroke="#63b8ff" points="438.12,-407.24 447.35,-402.03 436.89,-400.35 438.12,-407.24"/>
</a>
</g>
</g>
<!-- Node41 -->
<g id="Node000041" class="node">
<title>Node41</title>
<g id="a_Node000041"><a xlink:href="classWs2812Handler.html#a338df7ac09cd31e3b70d7dd488c1baa6" target="_top" xlink:title="Visit strip driver with a callable.">
<polygon fill="white" stroke="#666666" points="376.5,-400.5 225.5,-400.5 225.5,-381.5 376.5,-381.5 376.5,-400.5"/>
<text text-anchor="middle" x="301" y="-388.5" font-family="Helvetica,sans-Serif" font-size="10.00">Ws2812Handler::visitDriver</text>
</a>
</g>
</g>
<!-- Node31&#45;&gt;Node41 -->
<g id="edge38_Node000031_Node000041" class="edge">
<title>Node31&#45;&gt;Node41</title>
<g id="a_edge38_Node000031_Node000041"><a xlink:title=" ">
<path fill="none" stroke="#63b8ff" d="M431.63,-388.74C413.23,-389.06 394.31,-389.39 376.81,-389.7"/>
<polygon fill="#63b8ff" stroke="#63b8ff" points="431.85,-392.24 441.78,-388.56 431.72,-385.24 431.85,-392.24"/>
</a>
</g>
</g>
<!-- Node43 -->
<g id="Node000043" class="node">
<title>Node43</title>
<g id="a_Node000043"><a xlink:href="classAds7952Handler.html#a4541d57be2e20b35d9270a62642fb862" target="_top" xlink:title="Ensure initialized while mutex is already held.">
<polygon fill="#fff0f0" stroke="red" points="624.5,-354 440.5,-354 440.5,-324 624.5,-324 624.5,-354"/>
<text text-anchor="start" x="448.5" y="-342" font-family="Helvetica,sans-Serif" font-size="10.00">Ads7952Handler::EnsureInitialized</text>
<text text-anchor="middle" x="532.5" y="-331" font-family="Helvetica,sans-Serif" font-size="10.00">Locked</text>
</a>
</g>
</g>
<!-- Node42&#45;&gt;Node43 -->
<g id="edge40_Node000042_Node000043" class="edge">
<title>Node42&#45;&gt;Node43</title>
<g id="a_edge40_Node000042_Node000043"><a xlink:title=" ">
<path fill="none" stroke="#63b8ff" d="M680.63,-398.37C675.23,-396.52 669.96,-394.41 665,-392 646.52,-383.02 647.39,-372.16 629,-363 622.11,-359.57 614.7,-356.6 607.15,-354.05"/>
<polygon fill="#63b8ff" stroke="#63b8ff" points="679.83,-401.79 690.42,-401.42 681.91,-395.1 679.83,-401.79"/>
</a>
</g>
</g>
<!-- Node50 -->
<g id="Node000050" class="node">
<title>Node50</title>
<g id="a_Node000050"><a xlink:href="classTmc9660Handler.html#a7c1d8073576d678b09dac24c9eb12845" target="_top" xlink:title="Ensure initialized while handler_mutex_ is already held.">
<polygon fill="#fff0f0" stroke="red" points="626,-292 439,-292 439,-262 626,-262 626,-292"/>
<text text-anchor="start" x="447" y="-280" font-family="Helvetica,sans-Serif" font-size="10.00">Tmc9660Handler::EnsureInitialized</text>
<text text-anchor="middle" x="532.5" y="-269" font-family="Helvetica,sans-Serif" font-size="10.00">Locked</text>
</a>
</g>
</g>
<!-- Node49&#45;&gt;Node50 -->
<g id="edge44_Node000049_Node000050" class="edge">
<title>Node49&#45;&gt;Node50</title>
<g id="a_edge44_Node000049_Node000050"><a xlink:title=" ">
<path fill="none" stroke="#63b8ff" d="M664.14,-277C651.73,-277 638.87,-277 626.27,-277"/>
<polygon fill="#63b8ff" stroke="#63b8ff" points="664.45,-280.5 674.45,-277 664.45,-273.5 664.45,-280.5"/>
</a>
</g>
</g>
<!-- Node110 -->
<g id="Node000110" class="node">
<title>Node110</title>
<g id="a_Node000110"><a xlink:href="classTmc5160Handler.html#a6d4fce2433e03bb11b05a4278ef66fd0" target="_top" xlink:title=" ">
<polygon fill="#fff0f0" stroke="red" points="626,-169 439,-169 439,-139 626,-139 626,-169"/>
<text text-anchor="start" x="447" y="-157" font-family="Helvetica,sans-Serif" font-size="10.00">Tmc5160Handler::EnsureInitialized</text>
<text text-anchor="middle" x="532.5" y="-146" font-family="Helvetica,sans-Serif" font-size="10.00">Locked</text>
</a>
</g>
</g>
<!-- Node109&#45;&gt;Node110 -->
<g id="edge48_Node000109_Node000110" class="edge">
<title>Node109&#45;&gt;Node110</title>
<g id="a_edge48_Node000109_Node000110"><a xlink:title=" ">
<path fill="none" stroke="#63b8ff" d="M664.14,-154C651.73,-154 638.87,-154 626.27,-154"/>
<polygon fill="#63b8ff" stroke="#63b8ff" points="664.45,-157.5 674.45,-154 664.45,-150.5 664.45,-157.5"/>
</a>
</g>
</g>
</g>
</svg>
