<?xml version="1.0" encoding="UTF-8" standalone="no"?>
<!DOCTYPE svg PUBLIC "-//W3C//DTD SVG 1.1//EN"
 "http://www.w3.org/Graphics/SVG/1.1/DTD/svg11.dtd">
<!-- Generated by graphviz version 2.43.0 (0)
 -->
<!-- Title: Max22200Handler::Initialize Pages: 1 -->
<svg width="700pt" height="171pt"
 viewBox="0.00 0.00 700.00 171.04" xmlns="http://www.w3.org/2000/svg" xmlns:xlink="http://www.w3.org/1999/xlink">
<g id="graph0" class="graph" transform="scale(1 1) rotate(0) translate(4 167.04)">
<title>Max22200Handler::Initialize</title>
<!-- Node1 -->
<g id="Node000001" class="node">
<title>Node1</title>
<g id="a_Node000001"><a xlink:title="Initialize driver (ENABLE HIGH, read/clear STATUS, set ACTIVE).">
<polygon fill="#999999" stroke="#666666" points="154,-89.04 0,-89.04 0,-70.04 154,-70.04 154,-89.04"/>
<text text-anchor="middle" x="77" y="-77.04" font-family="Helvetica,sans-Serif" font-size="10.00">Max22200Handler::Initialize</text>
</a>
</g>
</g>
<!-- Node2 -->
<g id="Node000002" class="node">
<title>Node2</title>
<g id="a_Node000002"><a xlink:href="classLogger.html#adce17848a5844e053bfd314863dc1404" target="_top" xlink:title="Log error message.">
<polygon fill="white" stroke="#666666" points="304,-163.04 225,-163.04 225,-144.04 304,-144.04 304,-163.04"/>
<text text-anchor="middle" x="264.5" y="-151.04" font-family="Helvetica,sans-Serif" font-size="10.00">Logger::Error</text>
</a>
</g>
</g>
<!-- Node1&#45;&gt;Node2 -->
<g id="edge1_Node000001_Node000002" class="edge">
<title>Node1&#45;&gt;Node2</title>
<g id="a_edge1_Node000001_Node000002"><a xlink:title=" ">
<path fill="none" stroke="#63b8ff" d="M94.18,-89.08C115.51,-101.31 154.49,-122.5 190,-135.54 197.98,-138.47 206.62,-141.06 215.07,-143.31"/>
<polygon fill="#63b8ff" stroke="#63b8ff" points="214.31,-146.73 224.87,-145.79 216.03,-139.94 214.31,-146.73"/>
</a>
</g>
</g>
<!-- Node6 -->
<g id="Node000006" class="node">
<title>Node6</title>
<g id="a_Node000006"><a xlink:href="classLogger.html#a5789d11f8f1356e2192c0023a089cbc4" target="_top" xlink:title="Get singleton instance.">
<polygon fill="white" stroke="#666666" points="496.5,-25.04 382.5,-25.04 382.5,-6.04 496.5,-6.04 496.5,-25.04"/>
<text text-anchor="middle" x="439.5" y="-13.04" font-family="Helvetica,sans-Serif" font-size="10.00">Logger::GetInstance</text>
</a>
</g>
</g>
<!-- Node1&#45;&gt;Node6 -->
<g id="edge5_Node000001_Node000006" class="edge">
<title>Node1&#45;&gt;Node6</title>
<g id="a_edge5_Node000001_Node000006"><a xlink:title=" ">
<path fill="none" stroke="#63b8ff" d="M89.12,-70.02C108.22,-54.37 149.16,-23.82 190,-12.54 249.92,4.02 321.1,0.99 371.89,-4.82"/>
<polygon fill="#63b8ff" stroke="#63b8ff" points="371.74,-8.33 382.09,-6.06 372.58,-1.38 371.74,-8.33"/>
</a>
</g>
</g>
<!-- Node7 -->
<g id="Node000007" class="node">
<title>Node7</title>
<g id="a_Node000007"><a xlink:href="classLogger.html#a4681229c521795685fc14f6b55c82300" target="_top" xlink:title="Log info message.">
<polygon fill="white" stroke="#666666" points="301.5,-126.04 227.5,-126.04 227.5,-107.04 301.5,-107.04 301.5,-126.04"/>
<text text-anchor="middle" x="264.5" y="-114.04" font-family="Helvetica,sans-Serif" font-size="10.00">Logger::Info</text>
</a>
</g>
</g>
<!-- Node1&#45;&gt;Node7 -->
<g id="edge6_Node000001_Node000007" class="edge">
<title>Node1&#45;&gt;Node7</title>
<g id="a_edge6_Node000001_Node000007"><a xlink:title=" ">
<path fill="none" stroke="#63b8ff" d="M125.77,-89.06C153.97,-94.69 189.5,-101.78 217.41,-107.34"/>
<polygon fill="#63b8ff" stroke="#63b8ff" points="216.82,-110.79 227.32,-109.32 218.19,-103.93 216.82,-110.79"/>
</a>
</g>
</g>
<!-- Node8 -->
<g id="Node000008" class="node">
<title>Node8</title>
<g id="a_Node000008"><a xlink:href="classMax22200Handler.html#a46a1ed5c96b117192f0cae05c4f9627b" target="_top" xlink:title="Bring the chip from POR through to a verified ACTIVE=1, UVM=0 state, then drain POR&#45;latched fault bit...">
<polygon fill="white" stroke="#666666" points="339,-51.54 190,-51.54 190,-21.54 339,-21.54 339,-51.54"/>
<text text-anchor="start" x="198" y="-39.54" font-family="Helvetica,sans-Serif" font-size="10.00">Max22200Handler::WaitFor</text>
<text text-anchor="middle" x="264.5" y="-28.54" font-family="Helvetica,sans-Serif" font-size="10.00">ActiveAndDrainFaults</text>
</a>
</g>
</g>
<!-- Node1&#45;&gt;Node8 -->
<g id="edge9_Node000001_Node000008" class="edge">
<title>Node1&#45;&gt;Node8</title>
<g id="a_edge9_Node000001_Node000008"><a xlink:title=" ">
<path fill="none" stroke="#63b8ff" d="M119.17,-69.99C139.62,-65.25 164.98,-59.37 188.71,-53.87"/>
<polygon fill="#63b8ff" stroke="#63b8ff" points="189.81,-57.21 198.76,-51.54 188.23,-50.39 189.81,-57.21"/>
</a>
</g>
</g>
<!-- Node9 -->
<g id="Node000009" class="node">
<title>Node9</title>
<g id="a_Node000009"><a xlink:href="classLogger.html#aaa95ffa14d07a965d4a85bdec82cba26" target="_top" xlink:title="Log warning message.">
<polygon fill="white" stroke="#666666" points="304.5,-89.04 224.5,-89.04 224.5,-70.04 304.5,-70.04 304.5,-89.04"/>
<text text-anchor="middle" x="264.5" y="-77.04" font-family="Helvetica,sans-Serif" font-size="10.00">Logger::Warn</text>
</a>
</g>
</g>
<!-- Node1&#45;&gt;Node9 -->
<g id="edge11_Node000001_Node000009" class="edge">
<title>Node1&#45;&gt;Node9</title>
<g id="a_edge11_Node000001_Node000009"><a xlink:title=" ">
<path fill="none" stroke="#63b8ff" d="M154.25,-79.54C174.48,-79.54 195.79,-79.54 214.16,-79.54"/>
<polygon fill="#63b8ff" stroke="#63b8ff" points="214.32,-83.04 224.32,-79.54 214.32,-76.04 214.32,-83.04"/>
</a>
</g>
</g>
<!-- Node3 -->
<g id="Node000003" class="node">
<title>Node3</title>
<g id="a_Node000003"><a xlink:href="classLogger.html#af9e84e0ff6bd538e4f9ed8dcebc3e2f0" target="_top" xlink:title="Check if log level is enabled for tag.">
<polygon fill="white" stroke="#666666" points="504,-107.04 375,-107.04 375,-88.04 504,-88.04 504,-107.04"/>
<text text-anchor="middle" x="439.5" y="-95.04" font-family="Helvetica,sans-Serif" font-size="10.00">Logger::IsLevelEnabled</text>
</a>
</g>
</g>
<!-- Node2&#45;&gt;Node3 -->
<g id="edge2_Node000002_Node000003" class="edge">
<title>Node2&#45;&gt;Node3</title>
<g id="a_edge2_Node000002_Node000003"><a xlink:title=" ">
<path fill="none" stroke="#63b8ff" d="M304.19,-145.94C315.58,-143.2 327.95,-139.73 339,-135.54 355.91,-129.11 358.25,-123.38 375,-116.54 380.53,-114.28 386.42,-112.15 392.31,-110.2"/>
<polygon fill="#63b8ff" stroke="#63b8ff" points="393.67,-113.44 402.14,-107.09 391.55,-106.77 393.67,-113.44"/>
</a>
</g>
</g>
<!-- Node4 -->
<g id="Node000004" class="node">
<title>Node4</title>
<g id="a_Node000004"><a xlink:href="classLogger.html#a6adb205db597526fb91ad20067400394" target="_top" xlink:title="Internal logging method.">
<polygon fill="white" stroke="#666666" points="494.5,-144.04 384.5,-144.04 384.5,-125.04 494.5,-125.04 494.5,-144.04"/>
<text text-anchor="middle" x="439.5" y="-132.04" font-family="Helvetica,sans-Serif" font-size="10.00">Logger::LogInternal</text>
</a>
</g>
</g>
<!-- Node2&#45;&gt;Node4 -->
<g id="edge3_Node000002_Node000004" class="edge">
<title>Node2&#45;&gt;Node4</title>
<g id="a_edge3_Node000002_Node000004"><a xlink:title=" ">
<path fill="none" stroke="#63b8ff" d="M304.32,-149.27C324.89,-147.01 350.69,-144.18 374.15,-141.6"/>
<polygon fill="#63b8ff" stroke="#63b8ff" points="374.83,-145.05 384.39,-140.48 374.07,-138.09 374.83,-145.05"/>
</a>
</g>
</g>
<!-- Node5 -->
<g id="Node000005" class="node">
<title>Node5</title>
<g id="a_Node000005"><a xlink:href="namespaceanonymous__namespace_02Logger_8cpp_03.html#a9d2b496fa1b4f4e28667d14e4b8cb190" target="_top" xlink:title=" ">
<polygon fill="white" stroke="#666666" points="692,-149.54 540,-149.54 540,-119.54 692,-119.54 692,-149.54"/>
<text text-anchor="start" x="548" y="-137.54" font-family="Helvetica,sans-Serif" font-size="10.00">anonymous_namespace</text>
<text text-anchor="middle" x="616" y="-126.54" font-family="Helvetica,sans-Serif" font-size="10.00">{Logger::cpp}::ToBaseLevel</text>
</a>
</g>
</g>
<!-- Node4&#45;&gt;Node5 -->
<g id="edge4_Node000004_Node000005" class="edge">
<title>Node4&#45;&gt;Node5</title>
<g id="a_edge4_Node000004_Node000005"><a xlink:title=" ">
<path fill="none" stroke="#63b8ff" d="M494.76,-134.54C505.93,-134.54 517.96,-134.54 529.93,-134.54"/>
<polygon fill="#63b8ff" stroke="#63b8ff" points="529.95,-138.04 539.95,-134.54 529.95,-131.04 529.95,-138.04"/>
</a>
</g>
</g>
<!-- Node7&#45;&gt;Node3 -->
<g id="edge7_Node000007_Node000003" class="edge">
<title>Node7&#45;&gt;Node3</title>
<g id="a_edge7_Node000007_Node000003"><a xlink:title=" ">
<path fill="none" stroke="#63b8ff" d="M301.77,-112.55C319.99,-110.55 342.75,-108.05 364.45,-105.67"/>
<polygon fill="#63b8ff" stroke="#63b8ff" points="365.1,-109.12 374.66,-104.55 364.34,-102.16 365.1,-109.12"/>
</a>
</g>
</g>
<!-- Node7&#45;&gt;Node4 -->
<g id="edge8_Node000007_Node000004" class="edge">
<title>Node7&#45;&gt;Node4</title>
<g id="a_edge8_Node000007_Node000004"><a xlink:title=" ">
<path fill="none" stroke="#63b8ff" d="M301.77,-120.31C322.75,-122.49 349.78,-125.3 374.25,-127.85"/>
<polygon fill="#63b8ff" stroke="#63b8ff" points="373.89,-131.33 384.2,-128.89 374.62,-124.37 373.89,-131.33"/>
</a>
</g>
</g>
<!-- Node8&#45;&gt;Node6 -->
<g id="edge10_Node000008_Node000006" class="edge">
<title>Node8&#45;&gt;Node6</title>
<g id="a_edge10_Node000008_Node000006"><a xlink:title=" ">
<path fill="none" stroke="#63b8ff" d="M339.12,-27.6C350.06,-26.27 361.28,-24.91 372.07,-23.6"/>
<polygon fill="#63b8ff" stroke="#63b8ff" points="372.74,-27.04 382.25,-22.36 371.9,-20.1 372.74,-27.04"/>
</a>
</g>
</g>
<!-- Node9&#45;&gt;Node3 -->
<g id="edge12_Node000009_Node000003" class="edge">
<title>Node9&#45;&gt;Node3</title>
<g id="a_edge12_Node000009_Node000003"><a xlink:title=" ">
<path fill="none" stroke="#63b8ff" d="M304.76,-83.62C322.58,-85.47 344.26,-87.73 364.93,-89.88"/>
<polygon fill="#63b8ff" stroke="#63b8ff" points="364.66,-93.37 374.97,-90.93 365.39,-86.41 364.66,-93.37"/>
</a>
</g>
</g>
<!-- Node9&#45;&gt;Node4 -->
<g id="edge13_Node000009_Node000004" class="edge">
<title>Node9&#45;&gt;Node4</title>
<g id="a_edge13_Node000009_Node000004"><a xlink:title=" ">
<path fill="none" stroke="#63b8ff" d="M304.5,-87.99C315.78,-90.87 328.01,-94.42 339,-98.54 355.75,-104.81 358.32,-110.07 375,-116.54 380.07,-118.5 385.45,-120.36 390.85,-122.08"/>
<polygon fill="#63b8ff" stroke="#63b8ff" points="389.92,-125.46 400.51,-125.02 391.96,-118.76 389.92,-125.46"/>
</a>
</g>
</g>
</g>
</svg>
