<?xml version="1.0" encoding="UTF-8" standalone="no"?>
<!DOCTYPE svg PUBLIC "-//W3C//DTD SVG 1.1//EN"
 "http://www.w3.org/Graphics/SVG/1.1/DTD/svg11.dtd">
<!-- Generated by graphviz version 2.43.0 (0)
 -->
<!-- Title: Tmc9660Handler::temperature Pages: 1 -->
<svg width="927pt" height="150pt"
 viewBox="0.00 0.00 927.00 149.50" xmlns="http://www.w3.org/2000/svg" xmlns:xlink="http://www.w3.org/1999/xlink">
<g id="graph0" class="graph" transform="scale(1 1) rotate(0) translate(4 145.5)">
<title>Tmc9660Handler::temperature</title>
<!-- Node1 -->
<g id="Node000001" class="node">
<title>Node1</title>
<g id="a_Node000001"><a xlink:title="Get a reference to the Temperature wrapper.">
<polygon fill="#999999" stroke="#666666" points="167,-48.5 0,-48.5 0,-29.5 167,-29.5 167,-48.5"/>
<text text-anchor="middle" x="83.5" y="-36.5" font-family="Helvetica,sans-Serif" font-size="10.00">Tmc9660Handler::temperature</text>
</a>
</g>
</g>
<!-- Node1&#45;&gt;Node1 -->
<g id="edge13_Node000001_Node000001" class="edge">
<title>Node1&#45;&gt;Node1</title>
<g id="a_edge13_Node000001_Node000001"><a xlink:title=" ">
<path fill="none" stroke="#63b8ff" d="M50.82,-48.58C34.93,-57.23 45.82,-66.5 83.5,-66.5 110.58,-66.5 123.83,-61.71 123.23,-55.81"/>
<polygon fill="#63b8ff" stroke="#63b8ff" points="125.67,-53.29 116.18,-48.58 120.66,-58.18 125.67,-53.29"/>
</a>
</g>
</g>
<!-- Node2 -->
<g id="Node000002" class="node">
<title>Node2</title>
<g id="a_Node000002"><a xlink:href="classTmc9660Handler.html#a5a279ae9d4b5a8e0d71cb24577ad88ea" target="_top" xlink:title="Ensure driver is initialized (lazy init entrypoint).">
<polygon fill="white" stroke="#666666" points="390,-29.5 203,-29.5 203,-10.5 390,-10.5 390,-29.5"/>
<text text-anchor="middle" x="296.5" y="-17.5" font-family="Helvetica,sans-Serif" font-size="10.00">Tmc9660Handler::EnsureInitialized</text>
</a>
</g>
</g>
<!-- Node1&#45;&gt;Node2 -->
<g id="edge1_Node000001_Node000002" class="edge">
<title>Node1&#45;&gt;Node2</title>
<g id="a_edge1_Node000001_Node000002"><a xlink:title=" ">
<path fill="none" stroke="#63b8ff" d="M167.29,-31.55C175.67,-30.79 184.25,-30.02 192.81,-29.25"/>
<polygon fill="#63b8ff" stroke="#63b8ff" points="193.18,-32.73 202.83,-28.34 192.56,-25.76 193.18,-32.73"/>
</a>
</g>
</g>
<!-- Node3 -->
<g id="Node000003" class="node">
<title>Node3</title>
<g id="a_Node000003"><a xlink:href="classTmc9660Handler.html#adc564847f8ae26c47412aaee0758991c" target="_top" xlink:title="Initialize the TMC9660 device.">
<polygon fill="white" stroke="#666666" points="574,-67.5 426,-67.5 426,-48.5 574,-48.5 574,-67.5"/>
<text text-anchor="middle" x="500" y="-55.5" font-family="Helvetica,sans-Serif" font-size="10.00">Tmc9660Handler::Initialize</text>
</a>
</g>
</g>
<!-- Node2&#45;&gt;Node3 -->
<g id="edge2_Node000002_Node000003" class="edge">
<title>Node2&#45;&gt;Node3</title>
<g id="a_edge2_Node000002_Node000003"><a xlink:title=" ">
<path fill="none" stroke="#63b8ff" d="M348.09,-29.54C375.51,-34.71 409.6,-41.14 438.43,-46.58"/>
<polygon fill="#63b8ff" stroke="#63b8ff" points="437.92,-50.04 448.39,-48.46 439.21,-43.16 437.92,-50.04"/>
</a>
</g>
</g>
<!-- Node9 -->
<g id="Node000009" class="node">
<title>Node9</title>
<g id="a_Node000009"><a xlink:href="classTmc9660Handler.html#a13db97d201a287d8aa60384e04070b9f" target="_top" xlink:title="Check if the TMC9660 driver has been initialized and is ready.">
<polygon fill="white" stroke="#666666" points="754,-30 610,-30 610,0 754,0 754,-30"/>
<text text-anchor="start" x="618" y="-18" font-family="Helvetica,sans-Serif" font-size="10.00">Tmc9660Handler::IsDriver</text>
<text text-anchor="middle" x="682" y="-7" font-family="Helvetica,sans-Serif" font-size="10.00">Ready</text>
</a>
</g>
</g>
<!-- Node2&#45;&gt;Node9 -->
<g id="edge12_Node000002_Node000009" class="edge">
<title>Node2&#45;&gt;Node9</title>
<g id="a_edge12_Node000002_Node000009"><a xlink:title=" ">
<path fill="none" stroke="#63b8ff" d="M390.33,-18.79C454.28,-17.96 538.42,-16.86 599.72,-16.06"/>
<polygon fill="#63b8ff" stroke="#63b8ff" points="599.78,-19.56 609.73,-15.93 599.69,-12.56 599.78,-19.56"/>
</a>
</g>
</g>
<!-- Node3&#45;&gt;Node1 -->
<g id="edge11_Node000003_Node000001" class="edge">
<title>Node3&#45;&gt;Node1</title>
<g id="a_edge11_Node000003_Node000001"><a xlink:title=" ">
<path fill="none" stroke="#63b8ff" d="M425.97,-54.65C356.87,-51.49 252.85,-46.72 177.78,-43.28"/>
<polygon fill="#63b8ff" stroke="#63b8ff" points="177.53,-39.76 167.38,-42.8 177.21,-46.75 177.53,-39.76"/>
</a>
</g>
</g>
<!-- Node4 -->
<g id="Node000004" class="node">
<title>Node4</title>
<g id="a_Node000004"><a xlink:href="classLogger.html#adce17848a5844e053bfd314863dc1404" target="_top" xlink:title="Log error message.">
<polygon fill="white" stroke="#666666" points="721.5,-141.5 642.5,-141.5 642.5,-122.5 721.5,-122.5 721.5,-141.5"/>
<text text-anchor="middle" x="682" y="-129.5" font-family="Helvetica,sans-Serif" font-size="10.00">Logger::Error</text>
</a>
</g>
</g>
<!-- Node3&#45;&gt;Node4 -->
<g id="edge3_Node000003_Node000004" class="edge">
<title>Node3&#45;&gt;Node4</title>
<g id="a_edge3_Node000003_Node000004"><a xlink:title=" ">
<path fill="none" stroke="#63b8ff" d="M516.73,-67.53C537.46,-79.74 575.37,-100.91 610,-114 617.11,-116.69 624.78,-119.1 632.35,-121.23"/>
<polygon fill="#63b8ff" stroke="#63b8ff" points="631.62,-124.66 642.19,-123.85 633.42,-117.89 631.62,-124.66"/>
</a>
</g>
</g>
<!-- Node7 -->
<g id="Node000007" class="node">
<title>Node7</title>
<g id="a_Node000007"><a xlink:href="classLogger.html#a5789d11f8f1356e2192c0023a089cbc4" target="_top" xlink:title="Get singleton instance.">
<polygon fill="white" stroke="#666666" points="739,-67.5 625,-67.5 625,-48.5 739,-48.5 739,-67.5"/>
<text text-anchor="middle" x="682" y="-55.5" font-family="Helvetica,sans-Serif" font-size="10.00">Logger::GetInstance</text>
</a>
</g>
</g>
<!-- Node3&#45;&gt;Node7 -->
<g id="edge6_Node000003_Node000007" class="edge">
<title>Node3&#45;&gt;Node7</title>
<g id="a_edge6_Node000003_Node000007"><a xlink:title=" ">
<path fill="none" stroke="#63b8ff" d="M574.21,-58C587.58,-58 601.45,-58 614.6,-58"/>
<polygon fill="#63b8ff" stroke="#63b8ff" points="614.97,-61.5 624.97,-58 614.97,-54.5 614.97,-61.5"/>
</a>
</g>
</g>
<!-- Node8 -->
<g id="Node000008" class="node">
<title>Node8</title>
<g id="a_Node000008"><a xlink:href="classLogger.html#a4681229c521795685fc14f6b55c82300" target="_top" xlink:title="Log info message.">
<polygon fill="white" stroke="#666666" points="719,-104.5 645,-104.5 645,-85.5 719,-85.5 719,-104.5"/>
<text text-anchor="middle" x="682" y="-92.5" font-family="Helvetica,sans-Serif" font-size="10.00">Logger::Info</text>
</a>
</g>
</g>
<!-- Node3&#45;&gt;Node8 -->
<g id="edge7_Node000003_Node000008" class="edge">
<title>Node3&#45;&gt;Node8</title>
<g id="a_edge7_Node000003_Node000008"><a xlink:title=" ">
<path fill="none" stroke="#63b8ff" d="M547.35,-67.53C574.23,-73.05 607.96,-79.99 634.81,-85.51"/>
<polygon fill="#63b8ff" stroke="#63b8ff" points="634.24,-88.96 644.74,-87.55 635.65,-82.1 634.24,-88.96"/>
</a>
</g>
</g>
<!-- Node3&#45;&gt;Node9 -->
<g id="edge10_Node000003_Node000009" class="edge">
<title>Node3&#45;&gt;Node9</title>
<g id="a_edge10_Node000003_Node000009"><a xlink:title=" ">
<path fill="none" stroke="#63b8ff" d="M540.95,-48.46C560.8,-43.72 585.4,-37.84 608.43,-32.34"/>
<polygon fill="#63b8ff" stroke="#63b8ff" points="609.27,-35.73 618.18,-30.01 607.64,-28.93 609.27,-35.73"/>
</a>
</g>
</g>
<!-- Node5 -->
<g id="Node000005" class="node">
<title>Node5</title>
<g id="a_Node000005"><a xlink:href="classLogger.html#af9e84e0ff6bd538e4f9ed8dcebc3e2f0" target="_top" xlink:title="Check if log level is enabled for tag.">
<polygon fill="white" stroke="#666666" points="919,-141.5 790,-141.5 790,-122.5 919,-122.5 919,-141.5"/>
<text text-anchor="middle" x="854.5" y="-129.5" font-family="Helvetica,sans-Serif" font-size="10.00">Logger::IsLevelEnabled</text>
</a>
</g>
</g>
<!-- Node4&#45;&gt;Node5 -->
<g id="edge4_Node000004_Node000005" class="edge">
<title>Node4&#45;&gt;Node5</title>
<g id="a_edge4_Node000004_Node000005"><a xlink:title=" ">
<path fill="none" stroke="#63b8ff" d="M721.69,-132C738.92,-132 759.81,-132 779.83,-132"/>
<polygon fill="#63b8ff" stroke="#63b8ff" points="779.89,-135.5 789.89,-132 779.89,-128.5 779.89,-135.5"/>
</a>
</g>
</g>
<!-- Node6 -->
<g id="Node000006" class="node">
<title>Node6</title>
<g id="a_Node000006"><a xlink:href="classLogger.html#a6adb205db597526fb91ad20067400394" target="_top" xlink:title="Internal logging method.">
<polygon fill="white" stroke="#666666" points="909.5,-104.5 799.5,-104.5 799.5,-85.5 909.5,-85.5 909.5,-104.5"/>
<text text-anchor="middle" x="854.5" y="-92.5" font-family="Helvetica,sans-Serif" font-size="10.00">Logger::LogInternal</text>
</a>
</g>
</g>
<!-- Node4&#45;&gt;Node6 -->
<g id="edge5_Node000004_Node000006" class="edge">
<title>Node4&#45;&gt;Node6</title>
<g id="a_edge5_Node000004_Node000006"><a xlink:title=" ">
<path fill="none" stroke="#63b8ff" d="M721.69,-123.6C744.76,-118.6 774.4,-112.17 799.72,-106.67"/>
<polygon fill="#63b8ff" stroke="#63b8ff" points="800.52,-110.08 809.55,-104.54 799.04,-103.24 800.52,-110.08"/>
</a>
</g>
</g>
<!-- Node8&#45;&gt;Node5 -->
<g id="edge8_Node000008_Node000005" class="edge">
<title>Node8&#45;&gt;Node5</title>
<g id="a_edge8_Node000008_Node000005"><a xlink:title=" ">
<path fill="none" stroke="#63b8ff" d="M719.16,-102.85C742.56,-107.93 773.45,-114.63 799.71,-120.33"/>
<polygon fill="#63b8ff" stroke="#63b8ff" points="799.01,-123.76 809.52,-122.46 800.49,-116.92 799.01,-123.76"/>
</a>
</g>
</g>
<!-- Node8&#45;&gt;Node6 -->
<g id="edge9_Node000008_Node000006" class="edge">
<title>Node8&#45;&gt;Node6</title>
<g id="a_edge9_Node000008_Node000006"><a xlink:title=" ">
<path fill="none" stroke="#63b8ff" d="M719.16,-95C739.42,-95 765.31,-95 788.93,-95"/>
<polygon fill="#63b8ff" stroke="#63b8ff" points="789.25,-98.5 799.25,-95 789.25,-91.5 789.25,-98.5"/>
</a>
</g>
</g>
</g>
</svg>
