<?xml version="1.0" encoding="UTF-8" standalone="no"?>
<!DOCTYPE svg PUBLIC "-//W3C//DTD SVG 1.1//EN"
 "http://www.w3.org/Graphics/SVG/1.1/DTD/svg11.dtd">
<!-- Generated by graphviz version 2.43.0 (0)
 -->
<!-- Title: Tmc5160Handler::Initialize Pages: 1 -->
<svg width="806pt" height="628pt"
 viewBox="0.00 0.00 806.00 628.00" xmlns="http://www.w3.org/2000/svg" xmlns:xlink="http://www.w3.org/1999/xlink">
<g id="graph0" class="graph" transform="scale(1 1) rotate(0) translate(4 624)">
<title>Tmc5160Handler::Initialize</title>
<!-- Node1 -->
<g id="Node000001" class="node">
<title>Node1</title>
<g id="a_Node000001"><a xlink:title="Initialize the TMC5160 driver with full configuration.">
<polygon fill="#999999" stroke="#666666" points="798,-311 650,-311 650,-292 798,-292 798,-311"/>
<text text-anchor="middle" x="724" y="-299" font-family="Helvetica,sans-Serif" font-size="10.00">Tmc5160Handler::Initialize</text>
</a>
</g>
</g>
<!-- Node2 -->
<g id="Node000002" class="node">
<title>Node2</title>
<g id="a_Node000002"><a xlink:href="classTmc5160Handler.html#a6d4fce2433e03bb11b05a4278ef66fd0" target="_top" xlink:title=" ">
<polygon fill="white" stroke="#666666" points="614,-316.5 427,-316.5 427,-286.5 614,-286.5 614,-316.5"/>
<text text-anchor="start" x="435" y="-304.5" font-family="Helvetica,sans-Serif" font-size="10.00">Tmc5160Handler::EnsureInitialized</text>
<text text-anchor="middle" x="520.5" y="-293.5" font-family="Helvetica,sans-Serif" font-size="10.00">Locked</text>
</a>
</g>
</g>
<!-- Node1&#45;&gt;Node2 -->
<g id="edge1_Node000001_Node000002" class="edge">
<title>Node1&#45;&gt;Node2</title>
<g id="a_edge1_Node000001_Node000002"><a xlink:title=" ">
<path fill="none" stroke="#63b8ff" d="M639.79,-301.5C631.37,-301.5 622.77,-301.5 614.26,-301.5"/>
<polygon fill="#63b8ff" stroke="#63b8ff" points="639.97,-305 649.97,-301.5 639.97,-298 639.97,-305"/>
</a>
</g>
</g>
<!-- Node3 -->
<g id="Node000003" class="node">
<title>Node3</title>
<g id="a_Node000003"><a xlink:href="classTmc5160Handler.html#a30cf2ab584290fadfcb7d7cc6603444b" target="_top" xlink:title="Disable the motor driver power stage.">
<polygon fill="white" stroke="#666666" points="377.5,-620 206.5,-620 206.5,-601 377.5,-601 377.5,-620"/>
<text text-anchor="middle" x="292" y="-608" font-family="Helvetica,sans-Serif" font-size="10.00">Tmc5160Handler::DisableMotor</text>
</a>
</g>
</g>
<!-- Node2&#45;&gt;Node3 -->
<g id="edge2_Node000002_Node000003" class="edge">
<title>Node2&#45;&gt;Node3</title>
<g id="a_edge2_Node000002_Node000003"><a xlink:title=" ">
<path fill="none" stroke="#63b8ff" d="M516.32,-326.46C507.67,-383.49 478.14,-523.7 391,-592.5 386.79,-595.82 382.16,-598.61 377.28,-600.93"/>
<polygon fill="#63b8ff" stroke="#63b8ff" points="519.8,-326.91 517.75,-316.51 512.87,-325.92 519.8,-326.91"/>
</a>
</g>
</g>
<!-- Node4 -->
<g id="Node000004" class="node">
<title>Node4</title>
<g id="a_Node000004"><a xlink:href="classTmc5160Handler.html#ab4bf5aabef968f6f8ee66d08cf05913a" target="_top" xlink:title="Dump diagnostic information to logger.">
<polygon fill="white" stroke="#666666" points="388,-583 196,-583 196,-564 388,-564 388,-583"/>
<text text-anchor="middle" x="292" y="-571" font-family="Helvetica,sans-Serif" font-size="10.00">Tmc5160Handler::DumpDiagnostics</text>
</a>
</g>
</g>
<!-- Node2&#45;&gt;Node4 -->
<g id="edge3_Node000002_Node000004" class="edge">
<title>Node2&#45;&gt;Node4</title>
<g id="a_edge3_Node000002_Node000004"><a xlink:title=" ">
<path fill="none" stroke="#63b8ff" d="M514.51,-326.84C502.87,-378.79 468.78,-497.34 391,-555.5 386.57,-558.81 381.71,-561.58 376.61,-563.89"/>
<polygon fill="#63b8ff" stroke="#63b8ff" points="517.99,-327.33 516.66,-316.82 511.14,-325.86 517.99,-327.33"/>
</a>
</g>
</g>
<!-- Node5 -->
<g id="Node000005" class="node">
<title>Node5</title>
<g id="a_Node000005"><a xlink:href="classTmc5160Handler.html#af04426991f32e1a5022df0ec7e9d821d" target="_top" xlink:title="Enable the motor driver power stage.">
<polygon fill="white" stroke="#666666" points="375.5,-546 208.5,-546 208.5,-527 375.5,-527 375.5,-546"/>
<text text-anchor="middle" x="292" y="-534" font-family="Helvetica,sans-Serif" font-size="10.00">Tmc5160Handler::EnableMotor</text>
</a>
</g>
</g>
<!-- Node2&#45;&gt;Node5 -->
<g id="edge4_Node000002_Node000005" class="edge">
<title>Node2&#45;&gt;Node5</title>
<g id="a_edge4_Node000002_Node000005"><a xlink:title=" ">
<path fill="none" stroke="#63b8ff" d="M512.36,-326.36C497.78,-372.35 459.97,-470.41 391,-518.5 386.18,-521.86 380.9,-524.65 375.39,-526.96"/>
<polygon fill="#63b8ff" stroke="#63b8ff" points="515.77,-327.2 515.35,-316.61 509.07,-325.14 515.77,-327.2"/>
</a>
</g>
</g>
<!-- Node6 -->
<g id="Node000006" class="node">
<title>Node6</title>
<g id="a_Node000006"><a xlink:href="classTmc5160Handler.html#a5ad276d4fcd81765d0a5af064fdbf7b5" target="_top" xlink:title="Ensure driver is initialized (lazy init entrypoint).">
<polygon fill="white" stroke="#666666" points="385.5,-509 198.5,-509 198.5,-490 385.5,-490 385.5,-509"/>
<text text-anchor="middle" x="292" y="-497" font-family="Helvetica,sans-Serif" font-size="10.00">Tmc5160Handler::EnsureInitialized</text>
</a>
</g>
</g>
<!-- Node2&#45;&gt;Node6 -->
<g id="edge5_Node000002_Node000006" class="edge">
<title>Node2&#45;&gt;Node6</title>
<g id="a_edge5_Node000002_Node000006"><a xlink:title=" ">
<path fill="none" stroke="#63b8ff" d="M509.51,-325.78C491.89,-365.34 451.34,-443.14 391,-481.5 385.74,-484.84 380.03,-487.6 374.09,-489.87"/>
<polygon fill="#63b8ff" stroke="#63b8ff" points="512.73,-327.16 513.5,-316.59 506.31,-324.38 512.73,-327.16"/>
</a>
</g>
</g>
<!-- Node8 -->
<g id="Node000008" class="node">
<title>Node8</title>
<g id="a_Node000008"><a xlink:href="classTmc5160Handler.html#a0a90626550f36ea01dcd16a20877ca9e" target="_top" xlink:title="Get the chip version info.">
<polygon fill="white" stroke="#666666" points="382.5,-472 201.5,-472 201.5,-453 382.5,-453 382.5,-472"/>
<text text-anchor="middle" x="292" y="-460" font-family="Helvetica,sans-Serif" font-size="10.00">Tmc5160Handler::GetChipVersion</text>
</a>
</g>
</g>
<!-- Node2&#45;&gt;Node8 -->
<g id="edge7_Node000002_Node000008" class="edge">
<title>Node2&#45;&gt;Node8</title>
<g id="a_edge7_Node000002_Node000008"><a xlink:title=" ">
<path fill="none" stroke="#63b8ff" d="M504.83,-325.7C483.86,-358.06 442.14,-414.67 391,-443.5 384.13,-447.37 376.61,-450.47 368.88,-452.94"/>
<polygon fill="#63b8ff" stroke="#63b8ff" points="508.03,-327.2 510.43,-316.88 502.12,-323.45 508.03,-327.2"/>
</a>
</g>
</g>
<!-- Node9 -->
<g id="Node000009" class="node">
<title>Node9</title>
<g id="a_Node000009"><a xlink:href="classTmc5160Handler.html#acdb558e7d2b6c2548aca4fab849d5362" target="_top" xlink:title="Get current position in microsteps.">
<polygon fill="white" stroke="#666666" points="371.5,-434.5 212.5,-434.5 212.5,-404.5 371.5,-404.5 371.5,-434.5"/>
<text text-anchor="start" x="220.5" y="-422.5" font-family="Helvetica,sans-Serif" font-size="10.00">Tmc5160Handler::GetCurrent</text>
<text text-anchor="middle" x="292" y="-411.5" font-family="Helvetica,sans-Serif" font-size="10.00">Position</text>
</a>
</g>
</g>
<!-- Node2&#45;&gt;Node9 -->
<g id="edge8_Node000002_Node000009" class="edge">
<title>Node2&#45;&gt;Node9</title>
<g id="a_edge8_Node000002_Node000009"><a xlink:title=" ">
<path fill="none" stroke="#63b8ff" d="M495.72,-323.4C471.22,-344.81 431.07,-376.84 391,-395.5 383.62,-398.94 375.68,-401.92 367.64,-404.5"/>
<polygon fill="#63b8ff" stroke="#63b8ff" points="498.25,-325.83 503.4,-316.58 493.6,-320.6 498.25,-325.83"/>
</a>
</g>
</g>
<!-- Node10 -->
<g id="Node000010" class="node">
<title>Node10</title>
<g id="a_Node000010"><a xlink:href="classTmc5160Handler.html#a477ffe28808df5706f1f3f15018665b7" target="_top" xlink:title="Get current velocity.">
<polygon fill="white" stroke="#666666" points="371.5,-386.5 212.5,-386.5 212.5,-356.5 371.5,-356.5 371.5,-386.5"/>
<text text-anchor="start" x="220.5" y="-374.5" font-family="Helvetica,sans-Serif" font-size="10.00">Tmc5160Handler::GetCurrent</text>
<text text-anchor="middle" x="292" y="-363.5" font-family="Helvetica,sans-Serif" font-size="10.00">Velocity</text>
</a>
</g>
</g>
<!-- Node2&#45;&gt;Node10 -->
<g id="edge9_Node000002_Node000010" class="edge">
<title>Node2&#45;&gt;Node10</title>
<g id="a_edge9_Node000002_Node000010"><a xlink:title=" ">
<path fill="none" stroke="#63b8ff" d="M471.21,-320.13C447.28,-329.01 417.83,-339.44 391,-347.5 380.52,-350.65 369.31,-353.69 358.36,-356.49"/>
<polygon fill="#63b8ff" stroke="#63b8ff" points="472.63,-323.33 480.77,-316.55 470.17,-316.78 472.63,-323.33"/>
</a>
</g>
</g>
<!-- Node11 -->
<g id="Node000011" class="node">
<title>Node11</title>
<g id="a_Node000011"><a xlink:href="classTmc5160Handler.html#af583b8d7baca711d2d0e3269bff68ba7" target="_top" xlink:title="Get StallGuard result value.">
<polygon fill="white" stroke="#666666" points="364.5,-338.5 219.5,-338.5 219.5,-308.5 364.5,-308.5 364.5,-338.5"/>
<text text-anchor="start" x="227.5" y="-326.5" font-family="Helvetica,sans-Serif" font-size="10.00">Tmc5160Handler::GetStall</text>
<text text-anchor="middle" x="292" y="-315.5" font-family="Helvetica,sans-Serif" font-size="10.00">GuardResult</text>
</a>
</g>
</g>
<!-- Node2&#45;&gt;Node11 -->
<g id="edge10_Node000002_Node000011" class="edge">
<title>Node2&#45;&gt;Node11</title>
<g id="a_edge10_Node000002_Node000011"><a xlink:title=" ">
<path fill="none" stroke="#63b8ff" d="M416.5,-311.5C399.04,-313.2 381.26,-314.93 364.83,-316.52"/>
<polygon fill="#63b8ff" stroke="#63b8ff" points="417.11,-314.96 426.72,-310.51 416.43,-307.99 417.11,-314.96"/>
</a>
</g>
</g>
<!-- Node12 -->
<g id="Node000012" class="node">
<title>Node12</title>
<g id="a_Node000012"><a xlink:href="classTmc5160Handler.html#a886e33b5d5de426d64b2e006c90422a2" target="_top" xlink:title="Check if motor is enabled.">
<polygon fill="white" stroke="#666666" points="383,-290 201,-290 201,-271 383,-271 383,-290"/>
<text text-anchor="middle" x="292" y="-278" font-family="Helvetica,sans-Serif" font-size="10.00">Tmc5160Handler::IsMotorEnabled</text>
</a>
</g>
</g>
<!-- Node2&#45;&gt;Node12 -->
<g id="edge11_Node000002_Node000012" class="edge">
<title>Node2&#45;&gt;Node12</title>
<g id="a_edge11_Node000002_Node000012"><a xlink:title=" ">
<path fill="none" stroke="#63b8ff" d="M416.52,-291.95C405.36,-290.92 394.07,-289.87 383.08,-288.85"/>
<polygon fill="#63b8ff" stroke="#63b8ff" points="416.44,-295.46 426.72,-292.9 417.09,-288.49 416.44,-295.46"/>
</a>
</g>
</g>
<!-- Node13 -->
<g id="Node000013" class="node">
<title>Node13</title>
<g id="a_Node000013"><a xlink:href="classTmc5160Handler.html#a92ab9f87e4c97d8be86e6ed29fa62814" target="_top" xlink:title="Check for overtemperature condition.">
<polygon fill="white" stroke="#666666" points="391,-253 193,-253 193,-234 391,-234 391,-253"/>
<text text-anchor="middle" x="292" y="-241" font-family="Helvetica,sans-Serif" font-size="10.00">Tmc5160Handler::IsOvertemperature</text>
</a>
</g>
</g>
<!-- Node2&#45;&gt;Node13 -->
<g id="edge12_Node000002_Node000013" class="edge">
<title>Node2&#45;&gt;Node13</title>
<g id="a_edge12_Node000002_Node000013"><a xlink:title=" ">
<path fill="none" stroke="#63b8ff" d="M464.28,-283.37C441.7,-276.32 415.25,-268.51 391,-262.5 376.95,-259.02 361.65,-255.78 347.39,-253.01"/>
<polygon fill="#63b8ff" stroke="#63b8ff" points="463.44,-286.78 474.02,-286.45 465.54,-280.1 463.44,-286.78"/>
</a>
</g>
</g>
<!-- Node14 -->
<g id="Node000014" class="node">
<title>Node14</title>
<g id="a_Node000014"><a xlink:href="classTmc5160Handler.html#a0a25f971f0c8a23a489d35ce53fea164" target="_top" xlink:title="Check for stall detection.">
<polygon fill="white" stroke="#666666" points="382,-216 202,-216 202,-197 382,-197 382,-216"/>
<text text-anchor="middle" x="292" y="-204" font-family="Helvetica,sans-Serif" font-size="10.00">Tmc5160Handler::IsStallDetected</text>
</a>
</g>
</g>
<!-- Node2&#45;&gt;Node14 -->
<g id="edge13_Node000002_Node000014" class="edge">
<title>Node2&#45;&gt;Node14</title>
<g id="a_edge13_Node000002_Node000014"><a xlink:title=" ">
<path fill="none" stroke="#63b8ff" d="M490.49,-280.39C465.36,-263.11 427.42,-239.32 391,-225.5 380.79,-221.63 369.67,-218.51 358.71,-216.01"/>
<polygon fill="#63b8ff" stroke="#63b8ff" points="488.62,-283.36 498.82,-286.21 492.62,-277.62 488.62,-283.36"/>
</a>
</g>
</g>
<!-- Node15 -->
<g id="Node000015" class="node">
<title>Node15</title>
<g id="a_Node000015"><a xlink:href="classTmc5160Handler.html#ad72f4e8d1cb8848bd5967b87637d5f62" target="_top" xlink:title="Check if the motor is at standstill.">
<polygon fill="white" stroke="#666666" points="372,-179 212,-179 212,-160 372,-160 372,-179"/>
<text text-anchor="middle" x="292" y="-167" font-family="Helvetica,sans-Serif" font-size="10.00">Tmc5160Handler::IsStandstill</text>
</a>
</g>
</g>
<!-- Node2&#45;&gt;Node15 -->
<g id="edge14_Node000002_Node000015" class="edge">
<title>Node2&#45;&gt;Node15</title>
<g id="a_edge14_Node000002_Node000015"><a xlink:title=" ">
<path fill="none" stroke="#63b8ff" d="M500.5,-278.68C477.42,-252.57 435.95,-210.57 391,-188.5 383.07,-184.6 374.4,-181.51 365.62,-179.04"/>
<polygon fill="#63b8ff" stroke="#63b8ff" points="497.86,-280.98 507.06,-286.24 503.15,-276.39 497.86,-280.98"/>
</a>
</g>
</g>
<!-- Node16 -->
<g id="Node000016" class="node">
<title>Node16</title>
<g id="a_Node000016"><a xlink:href="classTmc5160Handler.html#ad1831c33ceedfac6dfb31c99c5009048" target="_top" xlink:title="Check if target position has been reached.">
<polygon fill="white" stroke="#666666" points="364,-141.5 220,-141.5 220,-111.5 364,-111.5 364,-141.5"/>
<text text-anchor="start" x="228" y="-129.5" font-family="Helvetica,sans-Serif" font-size="10.00">Tmc5160Handler::IsTarget</text>
<text text-anchor="middle" x="292" y="-118.5" font-family="Helvetica,sans-Serif" font-size="10.00">Reached</text>
</a>
</g>
</g>
<!-- Node2&#45;&gt;Node16 -->
<g id="edge15_Node000002_Node000016" class="edge">
<title>Node2&#45;&gt;Node16</title>
<g id="a_edge15_Node000002_Node000016"><a xlink:title=" ">
<path fill="none" stroke="#63b8ff" d="M505.82,-277.83C485.26,-244.43 443.18,-183.93 391,-151.5 382.8,-146.4 373.6,-142.34 364.2,-139.11"/>
<polygon fill="#63b8ff" stroke="#63b8ff" points="502.88,-279.73 511.04,-286.49 508.87,-276.12 502.88,-279.73"/>
</a>
</g>
</g>
<!-- Node17 -->
<g id="Node000017" class="node">
<title>Node17</title>
<g id="a_Node000017"><a xlink:href="classTmc5160Handler.html#a1e9298992489ed84fcd61ddfbb9a0e3c" target="_top" xlink:title="Get typed SPI driver pointer (null if UART mode or not initialized).">
<polygon fill="white" stroke="#666666" points="367,-93 217,-93 217,-74 367,-74 367,-93"/>
<text text-anchor="middle" x="292" y="-81" font-family="Helvetica,sans-Serif" font-size="10.00">Tmc5160Handler::spiDriver</text>
</a>
</g>
</g>
<!-- Node2&#45;&gt;Node17 -->
<g id="edge16_Node000002_Node000017" class="edge">
<title>Node2&#45;&gt;Node17</title>
<g id="a_edge16_Node000002_Node000017"><a xlink:title=" ">
<path fill="none" stroke="#63b8ff" d="M510.91,-276.64C494.71,-233.68 455.37,-146.01 391,-102.5 383.75,-97.6 375.55,-93.89 367.05,-91.1"/>
<polygon fill="#63b8ff" stroke="#63b8ff" points="507.73,-278.11 514.45,-286.3 514.3,-275.7 507.73,-278.11"/>
</a>
</g>
</g>
<!-- Node19 -->
<g id="Node000019" class="node">
<title>Node19</title>
<g id="a_Node000019"><a xlink:href="classTmc5160Handler.html#abc25e920be9b4093eb44b3a5da8bd0ed" target="_top" xlink:title="Stop motor immediately.">
<polygon fill="white" stroke="#666666" points="356,-56 228,-56 228,-37 356,-37 356,-56"/>
<text text-anchor="middle" x="292" y="-44" font-family="Helvetica,sans-Serif" font-size="10.00">Tmc5160Handler::Stop</text>
</a>
</g>
</g>
<!-- Node2&#45;&gt;Node19 -->
<g id="edge18_Node000002_Node000019" class="edge">
<title>Node2&#45;&gt;Node19</title>
<g id="a_edge18_Node000002_Node000019"><a xlink:title=" ">
<path fill="none" stroke="#63b8ff" d="M513.54,-276.62C500.43,-227.72 464.3,-119.15 391,-65.5 380.86,-58.08 368.6,-53.34 356.24,-50.35"/>
<polygon fill="#63b8ff" stroke="#63b8ff" points="510.17,-277.57 516.05,-286.38 516.94,-275.82 510.17,-277.57"/>
</a>
</g>
</g>
<!-- Node20 -->
<g id="Node000020" class="node">
<title>Node20</title>
<g id="a_Node000020"><a xlink:href="classTmc5160Handler.html#a6f33c65aefa37d1696a9cc36e231c0e2" target="_top" xlink:title="Get typed UART driver pointer (null if SPI mode or not initialized).">
<polygon fill="white" stroke="#666666" points="369.5,-19 214.5,-19 214.5,0 369.5,0 369.5,-19"/>
<text text-anchor="middle" x="292" y="-7" font-family="Helvetica,sans-Serif" font-size="10.00">Tmc5160Handler::uartDriver</text>
</a>
</g>
</g>
<!-- Node2&#45;&gt;Node20 -->
<g id="edge19_Node000002_Node000020" class="edge">
<title>Node2&#45;&gt;Node20</title>
<g id="a_edge19_Node000002_Node000020"><a xlink:title=" ">
<path fill="none" stroke="#63b8ff" d="M515.57,-276.47C505.59,-221.79 473.88,-91.42 391,-27.5 384.7,-22.64 377.5,-18.95 369.92,-16.16"/>
<polygon fill="#63b8ff" stroke="#63b8ff" points="512.13,-277.11 517.29,-286.36 519.03,-275.91 512.13,-277.11"/>
</a>
</g>
</g>
<!-- Node7 -->
<g id="Node000007" class="node">
<title>Node7</title>
<g id="a_Node000007"><a xlink:href="classTmc5160Handler.html#adf1b6ae5b680756f1b68169789cf0c1f" target="_top" xlink:title="Visit the typed driver with a callable.">
<polygon fill="white" stroke="#666666" points="157,-509 0,-509 0,-490 157,-490 157,-509"/>
<text text-anchor="middle" x="78.5" y="-497" font-family="Helvetica,sans-Serif" font-size="10.00">Tmc5160Handler::visitDriver</text>
</a>
</g>
</g>
<!-- Node6&#45;&gt;Node7 -->
<g id="edge6_Node000006_Node000007" class="edge">
<title>Node6&#45;&gt;Node7</title>
<g id="a_edge6_Node000006_Node000007"><a xlink:title=" ">
<path fill="none" stroke="#63b8ff" d="M188.19,-499.5C177.7,-499.5 167.16,-499.5 157,-499.5"/>
<polygon fill="#63b8ff" stroke="#63b8ff" points="188.23,-503 198.23,-499.5 188.23,-496 188.23,-503"/>
</a>
</g>
</g>
<!-- Node18 -->
<g id="Node000018" class="node">
<title>Node18</title>
<g id="a_Node000018"><a xlink:href="classTmc5160Handler.html#a214ed8c8b7fe84660afe995980744e47" target="_top" xlink:title=" ">
<polygon fill="white" stroke="#666666" points="153.5,-93 3.5,-93 3.5,-74 153.5,-74 153.5,-93"/>
<text text-anchor="middle" x="78.5" y="-81" font-family="Helvetica,sans-Serif" font-size="10.00">Tmc5160Handler::spiDriver</text>
</a>
</g>
</g>
<!-- Node17&#45;&gt;Node18 -->
<g id="edge17_Node000017_Node000018" class="edge">
<title>Node17&#45;&gt;Node18</title>
<g id="a_edge17_Node000017_Node000018"><a xlink:title=" ">
<path fill="none" stroke="#63b8ff" d="M206.53,-83.5C189.02,-83.5 170.7,-83.5 153.59,-83.5"/>
<polygon fill="#63b8ff" stroke="#63b8ff" points="206.73,-87 216.73,-83.5 206.73,-80 206.73,-87"/>
</a>
</g>
</g>
<!-- Node21 -->
<g id="Node000021" class="node">
<title>Node21</title>
<g id="a_Node000021"><a xlink:href="classTmc5160Handler.html#a456adb62072be599997893da4f6c0fee" target="_top" xlink:title=" ">
<polygon fill="white" stroke="#666666" points="156,-19 1,-19 1,0 156,0 156,-19"/>
<text text-anchor="middle" x="78.5" y="-7" font-family="Helvetica,sans-Serif" font-size="10.00">Tmc5160Handler::uartDriver</text>
</a>
</g>
</g>
<!-- Node20&#45;&gt;Node21 -->
<g id="edge20_Node000020_Node000021" class="edge">
<title>Node20&#45;&gt;Node21</title>
<g id="a_edge20_Node000020_Node000021"><a xlink:title=" ">
<path fill="none" stroke="#63b8ff" d="M204.03,-9.5C188.19,-9.5 171.77,-9.5 156.25,-9.5"/>
<polygon fill="#63b8ff" stroke="#63b8ff" points="204.34,-13 214.34,-9.5 204.34,-6 204.34,-13"/>
</a>
</g>
</g>
</g>
</svg>
