<?xml version="1.0" encoding="UTF-8" standalone="no"?>
<!DOCTYPE svg PUBLIC "-//W3C//DTD SVG 1.1//EN"
 "http://www.w3.org/Graphics/SVG/1.1/DTD/svg11.dtd">
<!-- Generated by graphviz version 2.43.0 (0)
 -->
<!-- Title: Tmc9660Handler::EnsureInitialized Pages: 1 -->
<svg width="917pt" height="147pt"
 viewBox="0.00 0.00 917.00 147.00" xmlns="http://www.w3.org/2000/svg" xmlns:xlink="http://www.w3.org/1999/xlink">
<g id="graph0" class="graph" transform="scale(1 1) rotate(0) translate(4 143)">
<title>Tmc9660Handler::EnsureInitialized</title>
<!-- Node1 -->
<g id="Node000001" class="node">
<title>Node1</title>
<g id="a_Node000001"><a xlink:title="Ensure driver is initialized (lazy init entrypoint).">
<polygon fill="#999999" stroke="#666666" points="187,-19 0,-19 0,0 187,0 187,-19"/>
<text text-anchor="middle" x="93.5" y="-7" font-family="Helvetica,sans-Serif" font-size="10.00">Tmc9660Handler::EnsureInitialized</text>
</a>
</g>
</g>
<!-- Node2 -->
<g id="Node000002" class="node">
<title>Node2</title>
<g id="a_Node000002"><a xlink:href="classTmc9660Handler.html#a7c1d8073576d678b09dac24c9eb12845" target="_top" xlink:title="Ensure initialized while handler_mutex_ is already held.">
<polygon fill="white" stroke="#666666" points="410,-85.5 223,-85.5 223,-55.5 410,-55.5 410,-85.5"/>
<text text-anchor="start" x="231" y="-73.5" font-family="Helvetica,sans-Serif" font-size="10.00">Tmc9660Handler::EnsureInitialized</text>
<text text-anchor="middle" x="316.5" y="-62.5" font-family="Helvetica,sans-Serif" font-size="10.00">Locked</text>
</a>
</g>
</g>
<!-- Node1&#45;&gt;Node2 -->
<g id="edge1_Node000001_Node000002" class="edge">
<title>Node1&#45;&gt;Node2</title>
<g id="a_edge1_Node000001_Node000002"><a xlink:title=" ">
<path fill="none" stroke="#63b8ff" d="M128.3,-19.06C154.2,-26.36 190.83,-36.65 223,-45.5 231.51,-47.84 240.46,-50.29 249.31,-52.69"/>
<polygon fill="#63b8ff" stroke="#63b8ff" points="248.66,-56.14 259.22,-55.38 250.49,-49.38 248.66,-56.14"/>
</a>
</g>
</g>
<!-- Node10 -->
<g id="Node000010" class="node">
<title>Node10</title>
<g id="a_Node000010"><a xlink:href="classTmc9660Handler.html#a393382194d0602e7aa02da6a8fd7a20a" target="_top" xlink:title="Get a reference to the Temperature wrapper.">
<polygon fill="white" stroke="#666666" points="400,-19 233,-19 233,0 400,0 400,-19"/>
<text text-anchor="middle" x="316.5" y="-7" font-family="Helvetica,sans-Serif" font-size="10.00">Tmc9660Handler::temperature</text>
</a>
</g>
</g>
<!-- Node1&#45;&gt;Node10 -->
<g id="edge11_Node000001_Node000010" class="edge">
<title>Node1&#45;&gt;Node10</title>
<g id="a_edge11_Node000001_Node000010"><a xlink:title=" ">
<path fill="none" stroke="#63b8ff" d="M187.26,-2.83C198.96,-2.72 210.92,-2.72 222.62,-2.83"/>
<polygon fill="#63b8ff" stroke="#63b8ff" points="222.78,-6.33 232.81,-2.94 222.86,0.67 222.78,-6.33"/>
</a>
</g>
</g>
<!-- Node3 -->
<g id="Node000003" class="node">
<title>Node3</title>
<g id="a_Node000003"><a xlink:href="classTmc9660Handler.html#adc564847f8ae26c47412aaee0758991c" target="_top" xlink:title="Initialize the TMC9660 device.">
<polygon fill="white" stroke="#666666" points="594,-102 446,-102 446,-83 594,-83 594,-102"/>
<text text-anchor="middle" x="520" y="-90" font-family="Helvetica,sans-Serif" font-size="10.00">Tmc9660Handler::Initialize</text>
</a>
</g>
</g>
<!-- Node2&#45;&gt;Node3 -->
<g id="edge2_Node000002_Node000003" class="edge">
<title>Node2&#45;&gt;Node3</title>
<g id="a_edge2_Node000002_Node000003"><a xlink:title=" ">
<path fill="none" stroke="#63b8ff" d="M410.29,-80.63C418.73,-81.55 427.25,-82.48 435.61,-83.4"/>
<polygon fill="#63b8ff" stroke="#63b8ff" points="435.38,-86.89 445.7,-84.5 436.14,-79.93 435.38,-86.89"/>
</a>
</g>
</g>
<!-- Node9 -->
<g id="Node000009" class="node">
<title>Node9</title>
<g id="a_Node000009"><a xlink:href="classTmc9660Handler.html#a13db97d201a287d8aa60384e04070b9f" target="_top" xlink:title="Check if the TMC9660 driver has been initialized and is ready.">
<polygon fill="white" stroke="#666666" points="592,-64.5 448,-64.5 448,-34.5 592,-34.5 592,-64.5"/>
<text text-anchor="start" x="456" y="-52.5" font-family="Helvetica,sans-Serif" font-size="10.00">Tmc9660Handler::IsDriver</text>
<text text-anchor="middle" x="520" y="-41.5" font-family="Helvetica,sans-Serif" font-size="10.00">Ready</text>
</a>
</g>
</g>
<!-- Node2&#45;&gt;Node9 -->
<g id="edge10_Node000002_Node000009" class="edge">
<title>Node2&#45;&gt;Node9</title>
<g id="a_edge10_Node000002_Node000009"><a xlink:title=" ">
<path fill="none" stroke="#63b8ff" d="M410.29,-60.83C419.44,-59.88 428.69,-58.91 437.71,-57.97"/>
<polygon fill="#63b8ff" stroke="#63b8ff" points="438.21,-61.44 447.8,-56.92 437.49,-54.48 438.21,-61.44"/>
</a>
</g>
</g>
<!-- Node4 -->
<g id="Node000004" class="node">
<title>Node4</title>
<g id="a_Node000004"><a xlink:href="classLogger.html#adce17848a5844e053bfd314863dc1404" target="_top" xlink:title="Log error message.">
<polygon fill="white" stroke="#666666" points="726.5,-102 647.5,-102 647.5,-83 726.5,-83 726.5,-102"/>
<text text-anchor="middle" x="687" y="-90" font-family="Helvetica,sans-Serif" font-size="10.00">Logger::Error</text>
</a>
</g>
</g>
<!-- Node3&#45;&gt;Node4 -->
<g id="edge3_Node000003_Node000004" class="edge">
<title>Node3&#45;&gt;Node4</title>
<g id="a_edge3_Node000003_Node000004"><a xlink:title=" ">
<path fill="none" stroke="#63b8ff" d="M594.33,-92.5C608.73,-92.5 623.5,-92.5 636.87,-92.5"/>
<polygon fill="#63b8ff" stroke="#63b8ff" points="637.26,-96 647.26,-92.5 637.26,-89 637.26,-96"/>
</a>
</g>
</g>
<!-- Node7 -->
<g id="Node000007" class="node">
<title>Node7</title>
<g id="a_Node000007"><a xlink:href="classLogger.html#a5789d11f8f1356e2192c0023a089cbc4" target="_top" xlink:title="Get singleton instance.">
<polygon fill="white" stroke="#666666" points="744,-65 630,-65 630,-46 744,-46 744,-65"/>
<text text-anchor="middle" x="687" y="-53" font-family="Helvetica,sans-Serif" font-size="10.00">Logger::GetInstance</text>
</a>
</g>
</g>
<!-- Node3&#45;&gt;Node7 -->
<g id="edge6_Node000003_Node000007" class="edge">
<title>Node3&#45;&gt;Node7</title>
<g id="a_edge6_Node000003_Node000007"><a xlink:title=" ">
<path fill="none" stroke="#63b8ff" d="M563.49,-82.97C584.87,-78.18 610.97,-72.32 633.58,-67.25"/>
<polygon fill="#63b8ff" stroke="#63b8ff" points="634.37,-70.66 643.37,-65.06 632.84,-63.83 634.37,-70.66"/>
</a>
</g>
</g>
<!-- Node8 -->
<g id="Node000008" class="node">
<title>Node8</title>
<g id="a_Node000008"><a xlink:href="classLogger.html#a4681229c521795685fc14f6b55c82300" target="_top" xlink:title="Log info message.">
<polygon fill="white" stroke="#666666" points="724,-139 650,-139 650,-120 724,-120 724,-139"/>
<text text-anchor="middle" x="687" y="-127" font-family="Helvetica,sans-Serif" font-size="10.00">Logger::Info</text>
</a>
</g>
</g>
<!-- Node3&#45;&gt;Node8 -->
<g id="edge7_Node000003_Node000008" class="edge">
<title>Node3&#45;&gt;Node8</title>
<g id="a_edge7_Node000003_Node000008"><a xlink:title=" ">
<path fill="none" stroke="#63b8ff" d="M563.49,-102.03C586.89,-107.27 615.94,-113.79 639.89,-119.16"/>
<polygon fill="#63b8ff" stroke="#63b8ff" points="639.28,-122.61 649.8,-121.38 640.81,-115.78 639.28,-122.61"/>
</a>
</g>
</g>
<!-- Node5 -->
<g id="Node000005" class="node">
<title>Node5</title>
<g id="a_Node000005"><a xlink:href="classLogger.html#af9e84e0ff6bd538e4f9ed8dcebc3e2f0" target="_top" xlink:title="Check if log level is enabled for tag.">
<polygon fill="white" stroke="#666666" points="909,-139 780,-139 780,-120 909,-120 909,-139"/>
<text text-anchor="middle" x="844.5" y="-127" font-family="Helvetica,sans-Serif" font-size="10.00">Logger::IsLevelEnabled</text>
</a>
</g>
</g>
<!-- Node4&#45;&gt;Node5 -->
<g id="edge4_Node000004_Node000005" class="edge">
<title>Node4&#45;&gt;Node5</title>
<g id="a_edge4_Node000004_Node000005"><a xlink:title=" ">
<path fill="none" stroke="#63b8ff" d="M726.84,-101.74C747.03,-106.55 771.94,-112.47 793.55,-117.61"/>
<polygon fill="#63b8ff" stroke="#63b8ff" points="793,-121.08 803.53,-119.99 794.62,-114.27 793,-121.08"/>
</a>
</g>
</g>
<!-- Node6 -->
<g id="Node000006" class="node">
<title>Node6</title>
<g id="a_Node000006"><a xlink:href="classLogger.html#a6adb205db597526fb91ad20067400394" target="_top" xlink:title="Internal logging method.">
<polygon fill="white" stroke="#666666" points="899.5,-102 789.5,-102 789.5,-83 899.5,-83 899.5,-102"/>
<text text-anchor="middle" x="844.5" y="-90" font-family="Helvetica,sans-Serif" font-size="10.00">Logger::LogInternal</text>
</a>
</g>
</g>
<!-- Node4&#45;&gt;Node6 -->
<g id="edge5_Node000004_Node000006" class="edge">
<title>Node4&#45;&gt;Node6</title>
<g id="a_edge5_Node000004_Node000006"><a xlink:title=" ">
<path fill="none" stroke="#63b8ff" d="M726.84,-92.5C742.63,-92.5 761.31,-92.5 779.03,-92.5"/>
<polygon fill="#63b8ff" stroke="#63b8ff" points="779.33,-96 789.33,-92.5 779.33,-89 779.33,-96"/>
</a>
</g>
</g>
<!-- Node8&#45;&gt;Node5 -->
<g id="edge8_Node000008_Node000005" class="edge">
<title>Node8&#45;&gt;Node5</title>
<g id="a_edge8_Node000008_Node000005"><a xlink:title=" ">
<path fill="none" stroke="#63b8ff" d="M724.07,-129.5C737.68,-129.5 753.72,-129.5 769.55,-129.5"/>
<polygon fill="#63b8ff" stroke="#63b8ff" points="769.89,-133 779.89,-129.5 769.89,-126 769.89,-133"/>
</a>
</g>
</g>
<!-- Node8&#45;&gt;Node6 -->
<g id="edge9_Node000008_Node000006" class="edge">
<title>Node8&#45;&gt;Node6</title>
<g id="a_edge9_Node000008_Node000006"><a xlink:title=" ">
<path fill="none" stroke="#63b8ff" d="M724.07,-120.92C744.78,-115.99 771.09,-109.73 793.74,-104.34"/>
<polygon fill="#63b8ff" stroke="#63b8ff" points="794.61,-107.73 803.53,-102.01 792.99,-100.92 794.61,-107.73"/>
</a>
</g>
</g>
<!-- Node10&#45;&gt;Node1 -->
<g id="edge12_Node000010_Node000001" class="edge">
<title>Node10&#45;&gt;Node1</title>
<g id="a_edge12_Node000010_Node000001"><a xlink:title=" ">
<path fill="none" stroke="#63b8ff" d="M232.81,-16.06C221.32,-16.22 209.4,-16.28 197.6,-16.24"/>
<polygon fill="#63b8ff" stroke="#63b8ff" points="197.28,-12.73 187.26,-16.17 197.24,-19.73 197.28,-12.73"/>
</a>
</g>
</g>
<!-- Node10&#45;&gt;Node10 -->
<g id="edge13_Node000010_Node000010" class="edge">
<title>Node10&#45;&gt;Node10</title>
<g id="a_edge13_Node000010_Node000010"><a xlink:title=" ">
<path fill="none" stroke="#63b8ff" d="M285.37,-19.08C270.22,-27.73 280.6,-37 316.5,-37 341.74,-37 354.37,-32.42 354.37,-26.69"/>
<polygon fill="#63b8ff" stroke="#63b8ff" points="356.89,-24.25 347.63,-19.08 351.65,-28.89 356.89,-24.25"/>
</a>
</g>
</g>
</g>
</svg>
