<?xml version="1.0" encoding="UTF-8" standalone="no"?>
<!DOCTYPE svg PUBLIC "-//W3C//DTD SVG 1.1//EN"
 "http://www.w3.org/Graphics/SVG/1.1/DTD/svg11.dtd">
<!-- Generated by graphviz version 2.43.0 (0)
 -->
<!-- Title: NtcTemperatureHandler::SetThresholdMonitoringUnlocked Pages: 1 -->
<svg width="695pt" height="88pt"
 viewBox="0.00 0.00 695.00 87.50" xmlns="http://www.w3.org/2000/svg" xmlns:xlink="http://www.w3.org/1999/xlink">
<g id="graph0" class="graph" transform="scale(1 1) rotate(0) translate(4 83.5)">
<title>NtcTemperatureHandler::SetThresholdMonitoringUnlocked</title>
<!-- Node1 -->
<g id="Node000001" class="node">
<title>Node1</title>
<g id="a_Node000001"><a xlink:title="Internal threshold monitoring state setter for init path.">
<polygon fill="#999999" stroke="#666666" points="184,-66 0,-66 0,-36 184,-36 184,-66"/>
<text text-anchor="start" x="8" y="-54" font-family="Helvetica,sans-Serif" font-size="10.00">NtcTemperatureHandler</text>
<text text-anchor="middle" x="92" y="-43" font-family="Helvetica,sans-Serif" font-size="10.00">::SetThresholdMonitoringUnlocked</text>
</a>
</g>
</g>
<!-- Node2 -->
<g id="Node000002" class="node">
<title>Node2</title>
<g id="a_Node000002"><a xlink:href="classLogger.html#a5789d11f8f1356e2192c0023a089cbc4" target="_top" xlink:title="Get singleton instance.">
<polygon fill="white" stroke="#666666" points="334,-79.5 220,-79.5 220,-60.5 334,-60.5 334,-79.5"/>
<text text-anchor="middle" x="277" y="-67.5" font-family="Helvetica,sans-Serif" font-size="10.00">Logger::GetInstance</text>
</a>
</g>
</g>
<!-- Node1&#45;&gt;Node2 -->
<g id="edge1_Node000001_Node000002" class="edge">
<title>Node1&#45;&gt;Node2</title>
<g id="a_edge1_Node000001_Node000002"><a xlink:title=" ">
<path fill="none" stroke="#63b8ff" d="M184.23,-60.47C192.89,-61.37 201.55,-62.27 209.9,-63.14"/>
<polygon fill="#63b8ff" stroke="#63b8ff" points="209.61,-66.63 219.92,-64.18 210.33,-59.66 209.61,-66.63"/>
</a>
</g>
</g>
<!-- Node3 -->
<g id="Node000003" class="node">
<title>Node3</title>
<g id="a_Node000003"><a xlink:href="classLogger.html#a4681229c521795685fc14f6b55c82300" target="_top" xlink:title="Log info message.">
<polygon fill="white" stroke="#666666" points="314,-42.5 240,-42.5 240,-23.5 314,-23.5 314,-42.5"/>
<text text-anchor="middle" x="277" y="-30.5" font-family="Helvetica,sans-Serif" font-size="10.00">Logger::Info</text>
</a>
</g>
</g>
<!-- Node1&#45;&gt;Node3 -->
<g id="edge2_Node000001_Node000003" class="edge">
<title>Node1&#45;&gt;Node3</title>
<g id="a_edge2_Node000001_Node000003"><a xlink:title=" ">
<path fill="none" stroke="#63b8ff" d="M184.23,-42.03C199.93,-40.48 215.63,-38.94 229.5,-37.57"/>
<polygon fill="#63b8ff" stroke="#63b8ff" points="230.11,-41.03 239.72,-36.57 229.43,-34.06 230.11,-41.03"/>
</a>
</g>
</g>
<!-- Node4 -->
<g id="Node000004" class="node">
<title>Node4</title>
<g id="a_Node000004"><a xlink:href="classLogger.html#af9e84e0ff6bd538e4f9ed8dcebc3e2f0" target="_top" xlink:title="Check if log level is enabled for tag.">
<polygon fill="white" stroke="#666666" points="499,-61.5 370,-61.5 370,-42.5 499,-42.5 499,-61.5"/>
<text text-anchor="middle" x="434.5" y="-49.5" font-family="Helvetica,sans-Serif" font-size="10.00">Logger::IsLevelEnabled</text>
</a>
</g>
</g>
<!-- Node3&#45;&gt;Node4 -->
<g id="edge3_Node000003_Node000004" class="edge">
<title>Node3&#45;&gt;Node4</title>
<g id="a_edge3_Node000003_Node000004"><a xlink:title=" ">
<path fill="none" stroke="#63b8ff" d="M314.07,-37.41C327.68,-39.07 343.72,-41.03 359.55,-42.96"/>
<polygon fill="#63b8ff" stroke="#63b8ff" points="359.54,-46.49 369.89,-44.23 360.39,-39.54 359.54,-46.49"/>
</a>
</g>
</g>
<!-- Node5 -->
<g id="Node000005" class="node">
<title>Node5</title>
<g id="a_Node000005"><a xlink:href="classLogger.html#a6adb205db597526fb91ad20067400394" target="_top" xlink:title="Internal logging method.">
<polygon fill="white" stroke="#666666" points="489.5,-24.5 379.5,-24.5 379.5,-5.5 489.5,-5.5 489.5,-24.5"/>
<text text-anchor="middle" x="434.5" y="-12.5" font-family="Helvetica,sans-Serif" font-size="10.00">Logger::LogInternal</text>
</a>
</g>
</g>
<!-- Node3&#45;&gt;Node5 -->
<g id="edge4_Node000003_Node000005" class="edge">
<title>Node3&#45;&gt;Node5</title>
<g id="a_edge4_Node000003_Node000005"><a xlink:title=" ">
<path fill="none" stroke="#63b8ff" d="M314.07,-28.83C330.49,-26.92 350.44,-24.61 369.3,-22.43"/>
<polygon fill="#63b8ff" stroke="#63b8ff" points="369.8,-25.9 379.33,-21.27 369,-18.94 369.8,-25.9"/>
</a>
</g>
</g>
<!-- Node6 -->
<g id="Node000006" class="node">
<title>Node6</title>
<g id="a_Node000006"><a xlink:href="namespaceanonymous__namespace_02Logger_8cpp_03.html#a9d2b496fa1b4f4e28667d14e4b8cb190" target="_top" xlink:title=" ">
<polygon fill="white" stroke="#666666" points="687,-30 535,-30 535,0 687,0 687,-30"/>
<text text-anchor="start" x="543" y="-18" font-family="Helvetica,sans-Serif" font-size="10.00">anonymous_namespace</text>
<text text-anchor="middle" x="611" y="-7" font-family="Helvetica,sans-Serif" font-size="10.00">{Logger::cpp}::ToBaseLevel</text>
</a>
</g>
</g>
<!-- Node5&#45;&gt;Node6 -->
<g id="edge5_Node000005_Node000006" class="edge">
<title>Node5&#45;&gt;Node6</title>
<g id="a_edge5_Node000005_Node000006"><a xlink:title=" ">
<path fill="none" stroke="#63b8ff" d="M489.76,-15C500.93,-15 512.96,-15 524.93,-15"/>
<polygon fill="#63b8ff" stroke="#63b8ff" points="524.95,-18.5 534.95,-15 524.95,-11.5 524.95,-18.5"/>
</a>
</g>
</g>
</g>
</svg>
