<?xml version="1.0" encoding="UTF-8" standalone="no"?>
<!DOCTYPE svg PUBLIC "-//W3C//DTD SVG 1.1//EN"
 "http://www.w3.org/Graphics/SVG/1.1/DTD/svg11.dtd">
<!-- Generated by graphviz version 2.43.0 (0)
 -->
<!-- Title: Tmc9660Handler::Temperature::ReadTemperatureCelsiusImpl Pages: 1 -->
<svg width="1130pt" height="187pt"
 viewBox="0.00 0.00 1130.00 187.00" xmlns="http://www.w3.org/2000/svg" xmlns:xlink="http://www.w3.org/1999/xlink">
<g id="graph0" class="graph" transform="scale(1 1) rotate(0) translate(4 183)">
<title>Tmc9660Handler::Temperature::ReadTemperatureCelsiusImpl</title>
<!-- Node1 -->
<g id="Node000001" class="node">
<title>Node1</title>
<g id="a_Node000001"><a xlink:title="Read the chip temperature in degrees Celsius.">
<polygon fill="#999999" stroke="#666666" points="167,-81.5 0,-81.5 0,-51.5 167,-51.5 167,-81.5"/>
<text text-anchor="start" x="8" y="-69.5" font-family="Helvetica,sans-Serif" font-size="10.00">Tmc9660Handler::Temperature</text>
<text text-anchor="middle" x="83.5" y="-58.5" font-family="Helvetica,sans-Serif" font-size="10.00">::ReadTemperatureCelsiusImpl</text>
</a>
</g>
</g>
<!-- Node2 -->
<g id="Node000002" class="node">
<title>Node2</title>
<g id="a_Node000002"><a xlink:href="classLogger.html#adce17848a5844e053bfd314863dc1404" target="_top" xlink:title="Log error message.">
<polygon fill="white" stroke="#666666" points="924.5,-19 845.5,-19 845.5,0 924.5,0 924.5,-19"/>
<text text-anchor="middle" x="885" y="-7" font-family="Helvetica,sans-Serif" font-size="10.00">Logger::Error</text>
</a>
</g>
</g>
<!-- Node1&#45;&gt;Node2 -->
<g id="edge1_Node000001_Node000002" class="edge">
<title>Node1&#45;&gt;Node2</title>
<g id="a_edge1_Node000001_Node000002"><a xlink:title=" ">
<path fill="none" stroke="#63b8ff" d="M167.03,-58.57C179.09,-57.49 191.36,-56.43 203,-55.5 439.58,-36.53 722.82,-19.09 834.9,-12.39"/>
<polygon fill="#63b8ff" stroke="#63b8ff" points="835.43,-15.87 845.2,-11.78 835.01,-8.88 835.43,-15.87"/>
</a>
</g>
</g>
<!-- Node5 -->
<g id="Node000005" class="node">
<title>Node5</title>
<g id="a_Node000005"><a xlink:href="classLogger.html#a5789d11f8f1356e2192c0023a089cbc4" target="_top" xlink:title="Get singleton instance.">
<polygon fill="white" stroke="#666666" points="942,-56 828,-56 828,-37 942,-37 942,-56"/>
<text text-anchor="middle" x="885" y="-44" font-family="Helvetica,sans-Serif" font-size="10.00">Logger::GetInstance</text>
</a>
</g>
</g>
<!-- Node1&#45;&gt;Node5 -->
<g id="edge4_Node000001_Node000005" class="edge">
<title>Node1&#45;&gt;Node5</title>
<g id="a_edge4_Node000001_Node000005"><a xlink:title=" ">
<path fill="none" stroke="#63b8ff" d="M167.05,-64.43C326.21,-60.45 672.59,-51.79 817.83,-48.16"/>
<polygon fill="#63b8ff" stroke="#63b8ff" points="818.02,-51.65 827.93,-47.9 817.85,-44.65 818.02,-51.65"/>
</a>
</g>
</g>
<!-- Node6 -->
<g id="Node000006" class="node">
<title>Node6</title>
<g id="a_Node000006"><a xlink:href="classTmc9660Handler.html#a393382194d0602e7aa02da6a8fd7a20a" target="_top" xlink:title="Get a reference to the Temperature wrapper.">
<polygon fill="white" stroke="#666666" points="370,-95 203,-95 203,-76 370,-76 370,-95"/>
<text text-anchor="middle" x="286.5" y="-83" font-family="Helvetica,sans-Serif" font-size="10.00">Tmc9660Handler::temperature</text>
</a>
</g>
</g>
<!-- Node1&#45;&gt;Node6 -->
<g id="edge5_Node000001_Node000006" class="edge">
<title>Node1&#45;&gt;Node6</title>
<g id="a_edge5_Node000001_Node000006"><a xlink:title=" ">
<path fill="none" stroke="#63b8ff" d="M167.12,-74.31C175.61,-75.11 184.27,-75.93 192.85,-76.74"/>
<polygon fill="#63b8ff" stroke="#63b8ff" points="192.59,-80.23 202.87,-77.69 193.25,-73.26 192.59,-80.23"/>
</a>
</g>
</g>
<!-- Node11 -->
<g id="Node000011" class="node">
<title>Node11</title>
<g id="a_Node000011"><a xlink:href="classLogger.html#aaa95ffa14d07a965d4a85bdec82cba26" target="_top" xlink:title="Log warning message.">
<polygon fill="white" stroke="#666666" points="925,-179 845,-179 845,-160 925,-160 925,-179"/>
<text text-anchor="middle" x="885" y="-167" font-family="Helvetica,sans-Serif" font-size="10.00">Logger::Warn</text>
</a>
</g>
</g>
<!-- Node1&#45;&gt;Node11 -->
<g id="edge17_Node000001_Node000011" class="edge">
<title>Node1&#45;&gt;Node11</title>
<g id="a_edge17_Node000001_Node000011"><a xlink:title=" ">
<path fill="none" stroke="#63b8ff" d="M109.86,-81.64C133.2,-94.79 169.23,-113.16 203,-122.5 432.28,-185.92 720.7,-178.78 834.55,-172.74"/>
<polygon fill="#63b8ff" stroke="#63b8ff" points="834.9,-176.23 844.69,-172.18 834.51,-169.24 834.9,-176.23"/>
</a>
</g>
</g>
<!-- Node3 -->
<g id="Node000003" class="node">
<title>Node3</title>
<g id="a_Node000003"><a xlink:href="classLogger.html#af9e84e0ff6bd538e4f9ed8dcebc3e2f0" target="_top" xlink:title="Check if log level is enabled for tag.">
<polygon fill="white" stroke="#666666" points="1122,-111 993,-111 993,-92 1122,-92 1122,-111"/>
<text text-anchor="middle" x="1057.5" y="-99" font-family="Helvetica,sans-Serif" font-size="10.00">Logger::IsLevelEnabled</text>
</a>
</g>
</g>
<!-- Node2&#45;&gt;Node3 -->
<g id="edge2_Node000002_Node000003" class="edge">
<title>Node2&#45;&gt;Node3</title>
<g id="a_edge2_Node000002_Node000003"><a xlink:title=" ">
<path fill="none" stroke="#63b8ff" d="M924.72,-13.92C935.89,-16.56 947.58,-20.78 957,-27.5 980.78,-44.47 969.58,-65.03 993,-82.5 995.5,-84.37 998.19,-86.05 1000.99,-87.57"/>
<polygon fill="#63b8ff" stroke="#63b8ff" points="999.7,-90.83 1010.24,-91.89 1002.66,-84.49 999.7,-90.83"/>
</a>
</g>
</g>
<!-- Node4 -->
<g id="Node000004" class="node">
<title>Node4</title>
<g id="a_Node000004"><a xlink:href="classLogger.html#a6adb205db597526fb91ad20067400394" target="_top" xlink:title="Internal logging method.">
<polygon fill="white" stroke="#666666" points="1112.5,-74 1002.5,-74 1002.5,-55 1112.5,-55 1112.5,-74"/>
<text text-anchor="middle" x="1057.5" y="-62" font-family="Helvetica,sans-Serif" font-size="10.00">Logger::LogInternal</text>
</a>
</g>
</g>
<!-- Node2&#45;&gt;Node4 -->
<g id="edge3_Node000002_Node000004" class="edge">
<title>Node2&#45;&gt;Node4</title>
<g id="a_edge3_Node000002_Node000004"><a xlink:title=" ">
<path fill="none" stroke="#63b8ff" d="M924.53,-18.47C935.12,-21.15 946.56,-24.25 957,-27.5 979.47,-34.51 1004.29,-43.73 1023.52,-51.22"/>
<polygon fill="#63b8ff" stroke="#63b8ff" points="1022.44,-54.55 1033.02,-54.95 1025,-48.04 1022.44,-54.55"/>
</a>
</g>
</g>
<!-- Node6&#45;&gt;Node6 -->
<g id="edge16_Node000006_Node000006" class="edge">
<title>Node6&#45;&gt;Node6</title>
<g id="a_edge16_Node000006_Node000006"><a xlink:title=" ">
<path fill="none" stroke="#63b8ff" d="M255.37,-95.08C240.22,-103.73 250.6,-113 286.5,-113 311.74,-113 324.37,-108.42 324.37,-102.69"/>
<polygon fill="#63b8ff" stroke="#63b8ff" points="326.89,-100.25 317.63,-95.08 321.65,-104.89 326.89,-100.25"/>
</a>
</g>
</g>
<!-- Node7 -->
<g id="Node000007" class="node">
<title>Node7</title>
<g id="a_Node000007"><a xlink:href="classTmc9660Handler.html#a5a279ae9d4b5a8e0d71cb24577ad88ea" target="_top" xlink:title="Ensure driver is initialized (lazy init entrypoint).">
<polygon fill="white" stroke="#666666" points="593,-133 406,-133 406,-114 593,-114 593,-133"/>
<text text-anchor="middle" x="499.5" y="-121" font-family="Helvetica,sans-Serif" font-size="10.00">Tmc9660Handler::EnsureInitialized</text>
</a>
</g>
</g>
<!-- Node6&#45;&gt;Node7 -->
<g id="edge6_Node000006_Node000007" class="edge">
<title>Node6&#45;&gt;Node7</title>
<g id="a_edge6_Node000006_Node000007"><a xlink:title=" ">
<path fill="none" stroke="#63b8ff" d="M340.47,-95.04C369.32,-100.23 405.2,-106.7 435.47,-112.15"/>
<polygon fill="#63b8ff" stroke="#63b8ff" points="435.04,-115.63 445.51,-113.96 436.29,-108.74 435.04,-115.63"/>
</a>
</g>
</g>
<!-- Node8 -->
<g id="Node000008" class="node">
<title>Node8</title>
<g id="a_Node000008"><a xlink:href="classTmc9660Handler.html#adc564847f8ae26c47412aaee0758991c" target="_top" xlink:title="Initialize the TMC9660 device.">
<polygon fill="white" stroke="#666666" points="777,-95 629,-95 629,-76 777,-76 777,-95"/>
<text text-anchor="middle" x="703" y="-83" font-family="Helvetica,sans-Serif" font-size="10.00">Tmc9660Handler::Initialize</text>
</a>
</g>
</g>
<!-- Node7&#45;&gt;Node8 -->
<g id="edge7_Node000007_Node000008" class="edge">
<title>Node7&#45;&gt;Node8</title>
<g id="a_edge7_Node000007_Node000008"><a xlink:title=" ">
<path fill="none" stroke="#63b8ff" d="M551.09,-113.96C578.51,-108.79 612.6,-102.36 641.43,-96.92"/>
<polygon fill="#63b8ff" stroke="#63b8ff" points="642.21,-100.34 651.39,-95.04 640.92,-93.46 642.21,-100.34"/>
</a>
</g>
</g>
<!-- Node10 -->
<g id="Node000010" class="node">
<title>Node10</title>
<g id="a_Node000010"><a xlink:href="classTmc9660Handler.html#a13db97d201a287d8aa60384e04070b9f" target="_top" xlink:title="Check if the TMC9660 driver has been initialized and is ready.">
<polygon fill="white" stroke="#666666" points="957,-141.5 813,-141.5 813,-111.5 957,-111.5 957,-141.5"/>
<text text-anchor="start" x="821" y="-129.5" font-family="Helvetica,sans-Serif" font-size="10.00">Tmc9660Handler::IsDriver</text>
<text text-anchor="middle" x="885" y="-118.5" font-family="Helvetica,sans-Serif" font-size="10.00">Ready</text>
</a>
</g>
</g>
<!-- Node7&#45;&gt;Node10 -->
<g id="edge15_Node000007_Node000010" class="edge">
<title>Node7&#45;&gt;Node10</title>
<g id="a_edge15_Node000007_Node000010"><a xlink:title=" ">
<path fill="none" stroke="#63b8ff" d="M593.33,-124.23C657.28,-124.73 741.42,-125.38 802.72,-125.86"/>
<polygon fill="#63b8ff" stroke="#63b8ff" points="802.71,-129.36 812.73,-125.94 802.76,-122.36 802.71,-129.36"/>
</a>
</g>
</g>
<!-- Node8&#45;&gt;Node2 -->
<g id="edge8_Node000008_Node000002" class="edge">
<title>Node8&#45;&gt;Node2</title>
<g id="a_edge8_Node000008_Node000002"><a xlink:title=" ">
<path fill="none" stroke="#63b8ff" d="M719.32,-75.81C739.92,-63.16 778.01,-41.02 813,-27.5 820.09,-24.76 827.75,-22.32 835.31,-20.18"/>
<polygon fill="#63b8ff" stroke="#63b8ff" points="836.39,-23.52 845.15,-17.56 834.59,-16.76 836.39,-23.52"/>
</a>
</g>
</g>
<!-- Node8&#45;&gt;Node5 -->
<g id="edge9_Node000008_Node000005" class="edge">
<title>Node8&#45;&gt;Node5</title>
<g id="a_edge9_Node000008_Node000005"><a xlink:title=" ">
<path fill="none" stroke="#63b8ff" d="M748.03,-75.96C772.86,-70.58 804.06,-63.82 830.31,-58.13"/>
<polygon fill="#63b8ff" stroke="#63b8ff" points="831.08,-61.55 840.11,-56.01 829.6,-54.71 831.08,-61.55"/>
</a>
</g>
</g>
<!-- Node8&#45;&gt;Node6 -->
<g id="edge14_Node000008_Node000006" class="edge">
<title>Node8&#45;&gt;Node6</title>
<g id="a_edge14_Node000008_Node000006"><a xlink:title=" ">
<path fill="none" stroke="#63b8ff" d="M628.97,-85.5C559.87,-85.5 455.85,-85.5 380.78,-85.5"/>
<polygon fill="#63b8ff" stroke="#63b8ff" points="380.38,-82 370.38,-85.5 380.38,-89 380.38,-82"/>
</a>
</g>
</g>
<!-- Node9 -->
<g id="Node000009" class="node">
<title>Node9</title>
<g id="a_Node000009"><a xlink:href="classLogger.html#a4681229c521795685fc14f6b55c82300" target="_top" xlink:title="Log info message.">
<polygon fill="white" stroke="#666666" points="922,-93 848,-93 848,-74 922,-74 922,-93"/>
<text text-anchor="middle" x="885" y="-81" font-family="Helvetica,sans-Serif" font-size="10.00">Logger::Info</text>
</a>
</g>
</g>
<!-- Node8&#45;&gt;Node9 -->
<g id="edge10_Node000008_Node000009" class="edge">
<title>Node8&#45;&gt;Node9</title>
<g id="a_edge10_Node000008_Node000009"><a xlink:title=" ">
<path fill="none" stroke="#63b8ff" d="M777.21,-84.69C797.65,-84.46 819.28,-84.22 837.69,-84.01"/>
<polygon fill="#63b8ff" stroke="#63b8ff" points="837.88,-87.51 847.84,-83.9 837.81,-80.51 837.88,-87.51"/>
</a>
</g>
</g>
<!-- Node8&#45;&gt;Node10 -->
<g id="edge13_Node000008_Node000010" class="edge">
<title>Node8&#45;&gt;Node10</title>
<g id="a_edge13_Node000008_Node000010"><a xlink:title=" ">
<path fill="none" stroke="#63b8ff" d="M745.75,-95.01C764.22,-99.22 786.54,-104.3 807.8,-109.14"/>
<polygon fill="#63b8ff" stroke="#63b8ff" points="807.28,-112.61 817.81,-111.42 808.83,-105.79 807.28,-112.61"/>
</a>
</g>
</g>
<!-- Node9&#45;&gt;Node3 -->
<g id="edge11_Node000009_Node000003" class="edge">
<title>Node9&#45;&gt;Node3</title>
<g id="a_edge11_Node000009_Node000003"><a xlink:title=" ">
<path fill="none" stroke="#63b8ff" d="M922.16,-87.32C939.8,-89.18 961.7,-91.49 982.65,-93.7"/>
<polygon fill="#63b8ff" stroke="#63b8ff" points="982.53,-97.21 992.85,-94.78 983.27,-90.25 982.53,-97.21"/>
</a>
</g>
</g>
<!-- Node9&#45;&gt;Node4 -->
<g id="edge12_Node000009_Node000004" class="edge">
<title>Node9&#45;&gt;Node4</title>
<g id="a_edge12_Node000009_Node000004"><a xlink:title=" ">
<path fill="none" stroke="#63b8ff" d="M922.16,-79.47C942.52,-77.2 968.54,-74.3 992.25,-71.66"/>
<polygon fill="#63b8ff" stroke="#63b8ff" points="992.69,-75.13 1002.25,-70.55 991.92,-68.18 992.69,-75.13"/>
</a>
</g>
</g>
<!-- Node11&#45;&gt;Node3 -->
<g id="edge18_Node000011_Node000003" class="edge">
<title>Node11&#45;&gt;Node3</title>
<g id="a_edge18_Node000011_Node000003"><a xlink:title=" ">
<path fill="none" stroke="#63b8ff" d="M925.13,-160.5C935.61,-157.69 946.85,-154.32 957,-150.5 982.87,-140.78 1011,-126.56 1030.73,-115.94"/>
<polygon fill="#63b8ff" stroke="#63b8ff" points="1032.59,-118.91 1039.7,-111.05 1029.24,-112.76 1032.59,-118.91"/>
</a>
</g>
</g>
<!-- Node11&#45;&gt;Node4 -->
<g id="edge19_Node000011_Node000004" class="edge">
<title>Node11&#45;&gt;Node4</title>
<g id="a_edge19_Node000011_Node000004"><a xlink:title=" ">
<path fill="none" stroke="#63b8ff" d="M925.15,-165.01C936.32,-162.23 947.92,-157.74 957,-150.5 983.75,-129.19 966.41,-104 993,-82.5 994.57,-81.23 996.23,-80.05 997.95,-78.95"/>
<polygon fill="#63b8ff" stroke="#63b8ff" points="999.82,-81.92 1007.01,-74.13 996.54,-75.74 999.82,-81.92"/>
</a>
</g>
</g>
</g>
</svg>
