<?xml version="1.0" encoding="UTF-8" standalone="no"?>
<!DOCTYPE svg PUBLIC "-//W3C//DTD SVG 1.1//EN"
 "http://www.w3.org/Graphics/SVG/1.1/DTD/svg11.dtd">
<!-- Generated by graphviz version 2.43.0 (0)
 -->
<!-- Title: Tmc9660Handler::GetChipTemperature Pages: 1 -->
<svg width="1332pt" height="115pt"
 viewBox="0.00 0.00 1332.00 115.00" xmlns="http://www.w3.org/2000/svg" xmlns:xlink="http://www.w3.org/1999/xlink">
<g id="graph0" class="graph" transform="scale(1 1) rotate(0) translate(4 111)">
<title>Tmc9660Handler::GetChipTemperature</title>
<!-- Node1 -->
<g id="Node000001" class="node">
<title>Node1</title>
<g id="a_Node000001"><a xlink:title="Read the TMC9660 internal chip temperature.">
<polygon fill="#999999" stroke="#666666" points="206,-57 0,-57 0,-38 206,-38 206,-57"/>
<text text-anchor="middle" x="103" y="-45" font-family="Helvetica,sans-Serif" font-size="10.00">Tmc9660Handler::GetChipTemperature</text>
</a>
</g>
</g>
<!-- Node2 -->
<g id="Node000002" class="node">
<title>Node2</title>
<g id="a_Node000002"><a xlink:href="classTmc9660Handler.html#a5a279ae9d4b5a8e0d71cb24577ad88ea" target="_top" xlink:title="Ensure driver is initialized (lazy init entrypoint).">
<polygon fill="white" stroke="#666666" points="825,-48 638,-48 638,-29 825,-29 825,-48"/>
<text text-anchor="middle" x="731.5" y="-36" font-family="Helvetica,sans-Serif" font-size="10.00">Tmc9660Handler::EnsureInitialized</text>
</a>
</g>
</g>
<!-- Node1&#45;&gt;Node2 -->
<g id="edge1_Node000001_Node000002" class="edge">
<title>Node1&#45;&gt;Node2</title>
<g id="a_edge1_Node000001_Node000002"><a xlink:title=" ">
<path fill="none" stroke="#63b8ff" d="M155.54,-57.01C246.25,-72.28 440.16,-98.34 602,-75.5 634.47,-70.92 670.23,-60.13 695.76,-51.38"/>
<polygon fill="#63b8ff" stroke="#63b8ff" points="697.08,-54.62 705.36,-48.02 694.76,-48.02 697.08,-54.62"/>
</a>
</g>
</g>
<!-- Node10 -->
<g id="Node000010" class="node">
<title>Node10</title>
<g id="a_Node000010"><a xlink:href="classTmc9660Handler.html#a393382194d0602e7aa02da6a8fd7a20a" target="_top" xlink:title="Get a reference to the Temperature wrapper.">
<polygon fill="white" stroke="#666666" points="602,-48 435,-48 435,-29 602,-29 602,-48"/>
<text text-anchor="middle" x="518.5" y="-36" font-family="Helvetica,sans-Serif" font-size="10.00">Tmc9660Handler::temperature</text>
</a>
</g>
</g>
<!-- Node1&#45;&gt;Node10 -->
<g id="edge11_Node000001_Node000010" class="edge">
<title>Node1&#45;&gt;Node10</title>
<g id="a_edge11_Node000001_Node000010"><a xlink:title=" ">
<path fill="none" stroke="#63b8ff" d="M206.21,-45.28C273.07,-43.82 359.71,-41.93 424.61,-40.52"/>
<polygon fill="#63b8ff" stroke="#63b8ff" points="424.91,-44.02 434.83,-40.3 424.76,-37.02 424.91,-44.02"/>
</a>
</g>
</g>
<!-- Node11 -->
<g id="Node000011" class="node">
<title>Node11</title>
<g id="a_Node000011"><a xlink:href="classTmc9660Handler.html#a4360829b58deda85e9da4b9cebee96f0" target="_top" xlink:title="Execute a function on the underlying typed TMC9660 driver.">
<polygon fill="white" stroke="#666666" points="399,-19 242,-19 242,0 399,0 399,-19"/>
<text text-anchor="middle" x="320.5" y="-7" font-family="Helvetica,sans-Serif" font-size="10.00">Tmc9660Handler::visitDriver</text>
</a>
</g>
</g>
<!-- Node1&#45;&gt;Node11 -->
<g id="edge14_Node000001_Node000011" class="edge">
<title>Node1&#45;&gt;Node11</title>
<g id="a_edge14_Node000001_Node000011"><a xlink:title=" ">
<path fill="none" stroke="#63b8ff" d="M158.1,-37.96C187.56,-32.77 224.21,-26.3 255.13,-20.85"/>
<polygon fill="#63b8ff" stroke="#63b8ff" points="256.14,-24.23 265.38,-19.04 254.92,-17.33 256.14,-24.23"/>
</a>
</g>
</g>
<!-- Node3 -->
<g id="Node000003" class="node">
<title>Node3</title>
<g id="a_Node000003"><a xlink:href="classTmc9660Handler.html#adc564847f8ae26c47412aaee0758991c" target="_top" xlink:title="Initialize the TMC9660 device.">
<polygon fill="white" stroke="#666666" points="1009,-70 861,-70 861,-51 1009,-51 1009,-70"/>
<text text-anchor="middle" x="935" y="-58" font-family="Helvetica,sans-Serif" font-size="10.00">Tmc9660Handler::Initialize</text>
</a>
</g>
</g>
<!-- Node2&#45;&gt;Node3 -->
<g id="edge2_Node000002_Node000003" class="edge">
<title>Node2&#45;&gt;Node3</title>
<g id="a_edge2_Node000002_Node000003"><a xlink:title=" ">
<path fill="none" stroke="#63b8ff" d="M819.71,-48.02C830,-49.15 840.48,-50.29 850.72,-51.41"/>
<polygon fill="#63b8ff" stroke="#63b8ff" points="850.53,-54.91 860.85,-52.51 851.29,-47.95 850.53,-54.91"/>
</a>
</g>
</g>
<!-- Node9 -->
<g id="Node000009" class="node">
<title>Node9</title>
<g id="a_Node000009"><a xlink:href="classTmc9660Handler.html#a13db97d201a287d8aa60384e04070b9f" target="_top" xlink:title="Check if the TMC9660 driver has been initialized and is ready.">
<polygon fill="white" stroke="#666666" points="1007,-32.5 863,-32.5 863,-2.5 1007,-2.5 1007,-32.5"/>
<text text-anchor="start" x="871" y="-20.5" font-family="Helvetica,sans-Serif" font-size="10.00">Tmc9660Handler::IsDriver</text>
<text text-anchor="middle" x="935" y="-9.5" font-family="Helvetica,sans-Serif" font-size="10.00">Ready</text>
</a>
</g>
</g>
<!-- Node2&#45;&gt;Node9 -->
<g id="edge10_Node000002_Node000009" class="edge">
<title>Node2&#45;&gt;Node9</title>
<g id="a_edge10_Node000002_Node000009"><a xlink:title=" ">
<path fill="none" stroke="#63b8ff" d="M823.82,-28.98C833.45,-27.98 843.2,-26.96 852.71,-25.97"/>
<polygon fill="#63b8ff" stroke="#63b8ff" points="853.34,-29.43 862.92,-24.91 852.61,-22.46 853.34,-29.43"/>
</a>
</g>
</g>
<!-- Node4 -->
<g id="Node000004" class="node">
<title>Node4</title>
<g id="a_Node000004"><a xlink:href="classLogger.html#adce17848a5844e053bfd314863dc1404" target="_top" xlink:title="Log error message.">
<polygon fill="white" stroke="#666666" points="1141.5,-70 1062.5,-70 1062.5,-51 1141.5,-51 1141.5,-70"/>
<text text-anchor="middle" x="1102" y="-58" font-family="Helvetica,sans-Serif" font-size="10.00">Logger::Error</text>
</a>
</g>
</g>
<!-- Node3&#45;&gt;Node4 -->
<g id="edge3_Node000003_Node000004" class="edge">
<title>Node3&#45;&gt;Node4</title>
<g id="a_edge3_Node000003_Node000004"><a xlink:title=" ">
<path fill="none" stroke="#63b8ff" d="M1009.33,-60.5C1023.73,-60.5 1038.5,-60.5 1051.87,-60.5"/>
<polygon fill="#63b8ff" stroke="#63b8ff" points="1052.26,-64 1062.26,-60.5 1052.26,-57 1052.26,-64"/>
</a>
</g>
</g>
<!-- Node7 -->
<g id="Node000007" class="node">
<title>Node7</title>
<g id="a_Node000007"><a xlink:href="classLogger.html#a5789d11f8f1356e2192c0023a089cbc4" target="_top" xlink:title="Get singleton instance.">
<polygon fill="white" stroke="#666666" points="1159,-33 1045,-33 1045,-14 1159,-14 1159,-33"/>
<text text-anchor="middle" x="1102" y="-21" font-family="Helvetica,sans-Serif" font-size="10.00">Logger::GetInstance</text>
</a>
</g>
</g>
<!-- Node3&#45;&gt;Node7 -->
<g id="edge6_Node000003_Node000007" class="edge">
<title>Node3&#45;&gt;Node7</title>
<g id="a_edge6_Node000003_Node000007"><a xlink:title=" ">
<path fill="none" stroke="#63b8ff" d="M978.49,-50.97C999.87,-46.18 1025.97,-40.32 1048.58,-35.25"/>
<polygon fill="#63b8ff" stroke="#63b8ff" points="1049.37,-38.66 1058.37,-33.06 1047.84,-31.83 1049.37,-38.66"/>
</a>
</g>
</g>
<!-- Node8 -->
<g id="Node000008" class="node">
<title>Node8</title>
<g id="a_Node000008"><a xlink:href="classLogger.html#a4681229c521795685fc14f6b55c82300" target="_top" xlink:title="Log info message.">
<polygon fill="white" stroke="#666666" points="1139,-107 1065,-107 1065,-88 1139,-88 1139,-107"/>
<text text-anchor="middle" x="1102" y="-95" font-family="Helvetica,sans-Serif" font-size="10.00">Logger::Info</text>
</a>
</g>
</g>
<!-- Node3&#45;&gt;Node8 -->
<g id="edge7_Node000003_Node000008" class="edge">
<title>Node3&#45;&gt;Node8</title>
<g id="a_edge7_Node000003_Node000008"><a xlink:title=" ">
<path fill="none" stroke="#63b8ff" d="M978.49,-70.03C1001.89,-75.27 1030.94,-81.79 1054.89,-87.16"/>
<polygon fill="#63b8ff" stroke="#63b8ff" points="1054.28,-90.61 1064.8,-89.38 1055.81,-83.78 1054.28,-90.61"/>
</a>
</g>
</g>
<!-- Node5 -->
<g id="Node000005" class="node">
<title>Node5</title>
<g id="a_Node000005"><a xlink:href="classLogger.html#af9e84e0ff6bd538e4f9ed8dcebc3e2f0" target="_top" xlink:title="Check if log level is enabled for tag.">
<polygon fill="white" stroke="#666666" points="1324,-107 1195,-107 1195,-88 1324,-88 1324,-107"/>
<text text-anchor="middle" x="1259.5" y="-95" font-family="Helvetica,sans-Serif" font-size="10.00">Logger::IsLevelEnabled</text>
</a>
</g>
</g>
<!-- Node4&#45;&gt;Node5 -->
<g id="edge4_Node000004_Node000005" class="edge">
<title>Node4&#45;&gt;Node5</title>
<g id="a_edge4_Node000004_Node000005"><a xlink:title=" ">
<path fill="none" stroke="#63b8ff" d="M1141.84,-69.74C1162.03,-74.55 1186.94,-80.47 1208.55,-85.61"/>
<polygon fill="#63b8ff" stroke="#63b8ff" points="1208,-89.08 1218.53,-87.99 1209.62,-82.27 1208,-89.08"/>
</a>
</g>
</g>
<!-- Node6 -->
<g id="Node000006" class="node">
<title>Node6</title>
<g id="a_Node000006"><a xlink:href="classLogger.html#a6adb205db597526fb91ad20067400394" target="_top" xlink:title="Internal logging method.">
<polygon fill="white" stroke="#666666" points="1314.5,-70 1204.5,-70 1204.5,-51 1314.5,-51 1314.5,-70"/>
<text text-anchor="middle" x="1259.5" y="-58" font-family="Helvetica,sans-Serif" font-size="10.00">Logger::LogInternal</text>
</a>
</g>
</g>
<!-- Node4&#45;&gt;Node6 -->
<g id="edge5_Node000004_Node000006" class="edge">
<title>Node4&#45;&gt;Node6</title>
<g id="a_edge5_Node000004_Node000006"><a xlink:title=" ">
<path fill="none" stroke="#63b8ff" d="M1141.84,-60.5C1157.63,-60.5 1176.31,-60.5 1194.03,-60.5"/>
<polygon fill="#63b8ff" stroke="#63b8ff" points="1194.33,-64 1204.33,-60.5 1194.33,-57 1194.33,-64"/>
</a>
</g>
</g>
<!-- Node8&#45;&gt;Node5 -->
<g id="edge8_Node000008_Node000005" class="edge">
<title>Node8&#45;&gt;Node5</title>
<g id="a_edge8_Node000008_Node000005"><a xlink:title=" ">
<path fill="none" stroke="#63b8ff" d="M1139.07,-97.5C1152.68,-97.5 1168.72,-97.5 1184.55,-97.5"/>
<polygon fill="#63b8ff" stroke="#63b8ff" points="1184.89,-101 1194.89,-97.5 1184.89,-94 1184.89,-101"/>
</a>
</g>
</g>
<!-- Node8&#45;&gt;Node6 -->
<g id="edge9_Node000008_Node000006" class="edge">
<title>Node8&#45;&gt;Node6</title>
<g id="a_edge9_Node000008_Node000006"><a xlink:title=" ">
<path fill="none" stroke="#63b8ff" d="M1139.07,-88.92C1159.78,-83.99 1186.09,-77.73 1208.74,-72.34"/>
<polygon fill="#63b8ff" stroke="#63b8ff" points="1209.61,-75.73 1218.53,-70.01 1207.99,-68.92 1209.61,-75.73"/>
</a>
</g>
</g>
<!-- Node10&#45;&gt;Node2 -->
<g id="edge12_Node000010_Node000002" class="edge">
<title>Node10&#45;&gt;Node2</title>
<g id="a_edge12_Node000010_Node000002"><a xlink:title=" ">
<path fill="none" stroke="#63b8ff" d="M602.29,-38.5C610.67,-38.5 619.25,-38.5 627.81,-38.5"/>
<polygon fill="#63b8ff" stroke="#63b8ff" points="627.83,-42 637.83,-38.5 627.83,-35 627.83,-42"/>
</a>
</g>
</g>
<!-- Node10&#45;&gt;Node10 -->
<g id="edge13_Node000010_Node000010" class="edge">
<title>Node10&#45;&gt;Node10</title>
<g id="a_edge13_Node000010_Node000010"><a xlink:title=" ">
<path fill="none" stroke="#63b8ff" d="M487.98,-48.08C473.14,-56.73 483.31,-66 518.5,-66 543.24,-66 555.62,-61.42 555.62,-55.69"/>
<polygon fill="#63b8ff" stroke="#63b8ff" points="558.22,-53.34 549.02,-48.08 552.93,-57.93 558.22,-53.34"/>
</a>
</g>
</g>
<!-- Node11&#45;&gt;Node2 -->
<g id="edge15_Node000011_Node000002" class="edge">
<title>Node11&#45;&gt;Node2</title>
<g id="a_edge15_Node000011_Node000002"><a xlink:title=" ">
<path fill="none" stroke="#63b8ff" d="M399.04,-9.95C455.43,-10.84 533.58,-13.24 602,-19.5 622.65,-21.39 645.05,-24.37 665.27,-27.42"/>
<polygon fill="#63b8ff" stroke="#63b8ff" points="664.9,-30.91 675.32,-28.97 665.97,-23.99 664.9,-30.91"/>
</a>
</g>
</g>
<!-- Node11&#45;&gt;Node10 -->
<g id="edge16_Node000011_Node000010" class="edge">
<title>Node11&#45;&gt;Node10</title>
<g id="a_edge16_Node000011_Node000010"><a xlink:title=" ">
<path fill="none" stroke="#63b8ff" d="M385.95,-19.04C404.2,-21.74 424.22,-24.7 443.02,-27.48"/>
<polygon fill="#63b8ff" stroke="#63b8ff" points="442.61,-30.96 453.01,-28.96 443.63,-24.03 442.61,-30.96"/>
</a>
</g>
</g>
</g>
</svg>
