<?xml version="1.0" encoding="UTF-8" standalone="no"?>
<!DOCTYPE svg PUBLIC "-//W3C//DTD SVG 1.1//EN"
 "http://www.w3.org/Graphics/SVG/1.1/DTD/svg11.dtd">
<!-- Generated by graphviz version 2.43.0 (0)
 -->
<!-- Title: Max22200Handler::Initialize Pages: 1 -->
<svg width="477pt" height="138pt"
 viewBox="0.00 0.00 477.00 138.00" xmlns="http://www.w3.org/2000/svg" xmlns:xlink="http://www.w3.org/1999/xlink">
<g id="graph0" class="graph" transform="scale(1 1) rotate(0) translate(4 134)">
<title>Max22200Handler::Initialize</title>
<!-- Node1 -->
<g id="Node000001" class="node">
<title>Node1</title>
<g id="a_Node000001"><a xlink:title="Initialize with board configuration.">
<polygon fill="#999999" stroke="#666666" points="154,-74 0,-74 0,-55 154,-55 154,-74"/>
<text text-anchor="middle" x="77" y="-62" font-family="Helvetica,sans-Serif" font-size="10.00">Max22200Handler::Initialize</text>
</a>
</g>
</g>
<!-- Node2 -->
<g id="Node000002" class="node">
<title>Node2</title>
<g id="a_Node000002"><a xlink:href="classLogger.html#a5e4bcdaea60b9ac227b564d780388769" target="_top" xlink:title="Log error message.">
<polygon fill="white" stroke="#666666" points="286.5,-130 207.5,-130 207.5,-111 286.5,-111 286.5,-130"/>
<text text-anchor="middle" x="247" y="-118" font-family="Helvetica,sans-Serif" font-size="10.00">Logger::Error</text>
</a>
</g>
</g>
<!-- Node1&#45;&gt;Node2 -->
<g id="edge1_Node000001_Node000002" class="edge">
<title>Node1&#45;&gt;Node2</title>
<g id="a_edge1_Node000001_Node000002"><a xlink:title=" ">
<path fill="none" stroke="#63b8ff" d="M106.04,-74.15C128.66,-81.91 161.34,-93.03 190,-102.5 195.27,-104.24 200.83,-106.06 206.32,-107.83"/>
<polygon fill="#63b8ff" stroke="#63b8ff" points="205.44,-111.23 216.04,-110.97 207.59,-104.57 205.44,-111.23"/>
</a>
</g>
</g>
<!-- Node5 -->
<g id="Node000005" class="node">
<title>Node5</title>
<g id="a_Node000005"><a xlink:href="classLogger.html#a5789d11f8f1356e2192c0023a089cbc4" target="_top" xlink:title="Get singleton instance.">
<polygon fill="white" stroke="#666666" points="304,-19 190,-19 190,0 304,0 304,-19"/>
<text text-anchor="middle" x="247" y="-7" font-family="Helvetica,sans-Serif" font-size="10.00">Logger::GetInstance</text>
</a>
</g>
</g>
<!-- Node1&#45;&gt;Node5 -->
<g id="edge4_Node000001_Node000005" class="edge">
<title>Node1&#45;&gt;Node5</title>
<g id="a_edge4_Node000001_Node000005"><a xlink:title=" ">
<path fill="none" stroke="#63b8ff" d="M106.99,-54.85C129.59,-47.35 161.77,-36.7 190,-27.5 195.28,-25.78 200.84,-23.98 206.33,-22.21"/>
<polygon fill="#63b8ff" stroke="#63b8ff" points="207.61,-25.47 216.05,-19.08 205.46,-18.81 207.61,-25.47"/>
</a>
</g>
</g>
<!-- Node6 -->
<g id="Node000006" class="node">
<title>Node6</title>
<g id="a_Node000006"><a xlink:href="classLogger.html#a1c0c947d87884bca0395fd38d19d1102" target="_top" xlink:title="Log info message.">
<polygon fill="white" stroke="#666666" points="284,-93 210,-93 210,-74 284,-74 284,-93"/>
<text text-anchor="middle" x="247" y="-81" font-family="Helvetica,sans-Serif" font-size="10.00">Logger::Info</text>
</a>
</g>
</g>
<!-- Node1&#45;&gt;Node6 -->
<g id="edge5_Node000001_Node000006" class="edge">
<title>Node1&#45;&gt;Node6</title>
<g id="a_edge5_Node000001_Node000006"><a xlink:title=" ">
<path fill="none" stroke="#63b8ff" d="M154.14,-73.11C169.78,-74.88 185.8,-76.69 199.99,-78.3"/>
<polygon fill="#63b8ff" stroke="#63b8ff" points="199.63,-81.78 209.96,-79.42 200.42,-74.82 199.63,-81.78"/>
</a>
</g>
</g>
<!-- Node7 -->
<g id="Node000007" class="node">
<title>Node7</title>
<g id="a_Node000007"><a xlink:href="classLogger.html#a8c19c14724b0be1d2be63da4258c001a" target="_top" xlink:title="Log warning message.">
<polygon fill="white" stroke="#666666" points="287,-56 207,-56 207,-37 287,-37 287,-56"/>
<text text-anchor="middle" x="247" y="-44" font-family="Helvetica,sans-Serif" font-size="10.00">Logger::Warn</text>
</a>
</g>
</g>
<!-- Node1&#45;&gt;Node7 -->
<g id="edge8_Node000001_Node000007" class="edge">
<title>Node1&#45;&gt;Node7</title>
<g id="a_edge8_Node000001_Node000007"><a xlink:title=" ">
<path fill="none" stroke="#63b8ff" d="M154.14,-56.34C168.52,-54.8 183.22,-53.23 196.52,-51.8"/>
<polygon fill="#63b8ff" stroke="#63b8ff" points="197.28,-55.24 206.85,-50.69 196.53,-48.28 197.28,-55.24"/>
</a>
</g>
</g>
<!-- Node3 -->
<g id="Node000003" class="node">
<title>Node3</title>
<g id="a_Node000003"><a xlink:href="classLogger.html#a737b981213c02321a5235848334d7191" target="_top" xlink:title="Check if log level is enabled for tag.">
<polygon fill="white" stroke="#666666" points="469,-111 340,-111 340,-92 469,-92 469,-111"/>
<text text-anchor="middle" x="404.5" y="-99" font-family="Helvetica,sans-Serif" font-size="10.00">Logger::IsLevelEnabled</text>
</a>
</g>
</g>
<!-- Node2&#45;&gt;Node3 -->
<g id="edge2_Node000002_Node000003" class="edge">
<title>Node2&#45;&gt;Node3</title>
<g id="a_edge2_Node000002_Node000003"><a xlink:title=" ">
<path fill="none" stroke="#63b8ff" d="M286.84,-115.75C299.85,-114.16 314.82,-112.34 329.6,-110.53"/>
<polygon fill="#63b8ff" stroke="#63b8ff" points="330.28,-113.97 339.78,-109.29 329.43,-107.02 330.28,-113.97"/>
</a>
</g>
</g>
<!-- Node4 -->
<g id="Node000004" class="node">
<title>Node4</title>
<g id="a_Node000004"><a xlink:href="classLogger.html#aeede6ac18db92a47caede076ef188a13" target="_top" xlink:title="Internal logging method.">
<polygon fill="white" stroke="#666666" points="459.5,-74 349.5,-74 349.5,-55 459.5,-55 459.5,-74"/>
<text text-anchor="middle" x="404.5" y="-62" font-family="Helvetica,sans-Serif" font-size="10.00">Logger::LogInternal</text>
</a>
</g>
</g>
<!-- Node2&#45;&gt;Node4 -->
<g id="edge3_Node000002_Node000004" class="edge">
<title>Node2&#45;&gt;Node4</title>
<g id="a_edge3_Node000002_Node000004"><a xlink:title=" ">
<path fill="none" stroke="#63b8ff" d="M280.92,-110.98C288.59,-108.47 296.66,-105.59 304,-102.5 320.68,-95.48 323.25,-90.35 340,-83.5 345.53,-81.24 351.42,-79.12 357.31,-77.16"/>
<polygon fill="#63b8ff" stroke="#63b8ff" points="358.67,-80.41 367.14,-74.05 356.55,-73.73 358.67,-80.41"/>
</a>
</g>
</g>
<!-- Node6&#45;&gt;Node3 -->
<g id="edge6_Node000006_Node000003" class="edge">
<title>Node6&#45;&gt;Node3</title>
<g id="a_edge6_Node000006_Node000003"><a xlink:title=" ">
<path fill="none" stroke="#63b8ff" d="M284.07,-87.67C297.68,-89.25 313.72,-91.11 329.55,-92.94"/>
<polygon fill="#63b8ff" stroke="#63b8ff" points="329.55,-96.46 339.89,-94.14 330.36,-89.51 329.55,-96.46"/>
</a>
</g>
</g>
<!-- Node6&#45;&gt;Node4 -->
<g id="edge7_Node000006_Node000004" class="edge">
<title>Node6&#45;&gt;Node4</title>
<g id="a_edge7_Node000006_Node000004"><a xlink:title=" ">
<path fill="none" stroke="#63b8ff" d="M284.07,-79.09C300.49,-77.09 320.44,-74.65 339.3,-72.34"/>
<polygon fill="#63b8ff" stroke="#63b8ff" points="339.83,-75.81 349.33,-71.12 338.98,-68.86 339.83,-75.81"/>
</a>
</g>
</g>
<!-- Node7&#45;&gt;Node3 -->
<g id="edge9_Node000007_Node000003" class="edge">
<title>Node7&#45;&gt;Node3</title>
<g id="a_edge9_Node000007_Node000003"><a xlink:title=" ">
<path fill="none" stroke="#63b8ff" d="M278.51,-56.01C286.86,-58.84 295.85,-62.1 304,-65.5 320.51,-72.39 323.32,-77.03 340,-83.5 345.07,-85.47 350.45,-87.33 355.85,-89.05"/>
<polygon fill="#63b8ff" stroke="#63b8ff" points="354.92,-92.42 365.51,-91.99 356.96,-85.73 354.92,-92.42"/>
</a>
</g>
</g>
<!-- Node7&#45;&gt;Node4 -->
<g id="edge10_Node000007_Node000004" class="edge">
<title>Node7&#45;&gt;Node4</title>
<g id="a_edge10_Node000007_Node000004"><a xlink:title=" ">
<path fill="none" stroke="#63b8ff" d="M287.24,-51.04C302.96,-52.86 321.49,-55.01 339.08,-57.04"/>
<polygon fill="#63b8ff" stroke="#63b8ff" points="338.96,-60.55 349.3,-58.23 339.77,-53.6 338.96,-60.55"/>
</a>
</g>
</g>
</g>
</svg>
