<?xml version="1.0" encoding="UTF-8" standalone="no"?>
<!DOCTYPE svg PUBLIC "-//W3C//DTD SVG 1.1//EN"
 "http://www.w3.org/Graphics/SVG/1.1/DTD/svg11.dtd">
<!-- Generated by graphviz version 2.43.0 (0)
 -->
<!-- Title: Ads7952Handler::GetDriver Pages: 1 -->
<svg width="1142pt" height="175pt"
 viewBox="0.00 0.00 1142.00 175.00" xmlns="http://www.w3.org/2000/svg" xmlns:xlink="http://www.w3.org/1999/xlink">
<g id="graph0" class="graph" transform="scale(1 1) rotate(0) translate(4 171)">
<title>Ads7952Handler::GetDriver</title>
<!-- Node1 -->
<g id="Node000001" class="node">
<title>Node1</title>
<g id="a_Node000001"><a xlink:title=" ">
<polygon fill="#999999" stroke="#666666" points="150,-93 0,-93 0,-74 150,-74 150,-93"/>
<text text-anchor="middle" x="75" y="-81" font-family="Helvetica,sans-Serif" font-size="10.00">Ads7952Handler::GetDriver</text>
</a>
</g>
</g>
<!-- Node2 -->
<g id="Node000002" class="node">
<title>Node2</title>
<g id="a_Node000002"><a xlink:href="classAds7952Handler.html#a7703915b68bb1ef88fbbd980bf938d90" target="_top" xlink:title="Get raw pointer to the ADS7952 driver for advanced operations.">
<polygon fill="white" stroke="#666666" points="336,-93 186,-93 186,-74 336,-74 336,-93"/>
<text text-anchor="middle" x="261" y="-81" font-family="Helvetica,sans-Serif" font-size="10.00">Ads7952Handler::GetDriver</text>
</a>
</g>
</g>
<!-- Node1&#45;&gt;Node2 -->
<g id="edge1_Node000001_Node000002" class="edge">
<title>Node1&#45;&gt;Node2</title>
<g id="a_edge1_Node000001_Node000002"><a xlink:title=" ">
<path fill="none" stroke="#63b8ff" d="M150.04,-83.5C158.51,-83.5 167.19,-83.5 175.78,-83.5"/>
<polygon fill="#63b8ff" stroke="#63b8ff" points="175.81,-87 185.81,-83.5 175.81,-80 175.81,-87"/>
</a>
</g>
</g>
<!-- Node3 -->
<g id="Node000003" class="node">
<title>Node3</title>
<g id="a_Node000003"><a xlink:href="classAds7952Handler.html#a4541d57be2e20b35d9270a62642fb862" target="_top" xlink:title="Ensure initialized while mutex is already held.">
<polygon fill="white" stroke="#666666" points="556,-98.5 372,-98.5 372,-68.5 556,-68.5 556,-98.5"/>
<text text-anchor="start" x="380" y="-86.5" font-family="Helvetica,sans-Serif" font-size="10.00">Ads7952Handler::EnsureInitialized</text>
<text text-anchor="middle" x="464" y="-75.5" font-family="Helvetica,sans-Serif" font-size="10.00">Locked</text>
</a>
</g>
</g>
<!-- Node2&#45;&gt;Node3 -->
<g id="edge2_Node000002_Node000003" class="edge">
<title>Node2&#45;&gt;Node3</title>
<g id="a_edge2_Node000002_Node000003"><a xlink:title=" ">
<path fill="none" stroke="#63b8ff" d="M336.27,-83.5C344.63,-83.5 353.25,-83.5 361.88,-83.5"/>
<polygon fill="#63b8ff" stroke="#63b8ff" points="361.99,-87 371.99,-83.5 361.99,-80 361.99,-87"/>
</a>
</g>
</g>
<!-- Node4 -->
<g id="Node000004" class="node">
<title>Node4</title>
<g id="a_Node000004"><a xlink:href="classAds7952Handler.html#a0644e9b1c82bc200591155b36a9ca4dd" target="_top" xlink:title="Initialize the ADS7952 ADC (lazy initialization).">
<polygon fill="white" stroke="#666666" points="737,-93 592,-93 592,-74 737,-74 737,-93"/>
<text text-anchor="middle" x="664.5" y="-81" font-family="Helvetica,sans-Serif" font-size="10.00">Ads7952Handler::Initialize</text>
</a>
</g>
</g>
<!-- Node3&#45;&gt;Node4 -->
<g id="edge3_Node000003_Node000004" class="edge">
<title>Node3&#45;&gt;Node4</title>
<g id="a_edge3_Node000003_Node000004"><a xlink:title=" ">
<path fill="none" stroke="#63b8ff" d="M556.12,-83.5C564.67,-83.5 573.3,-83.5 581.75,-83.5"/>
<polygon fill="#63b8ff" stroke="#63b8ff" points="581.96,-87 591.96,-83.5 581.96,-80 581.96,-87"/>
</a>
</g>
</g>
<!-- Node5 -->
<g id="Node000005" class="node">
<title>Node5</title>
<g id="a_Node000005"><a xlink:href="classAds7952Handler.html#a3cc3a33955e1e0b218f801f1b98192f2" target="_top" xlink:title="Apply configuration to the driver after init.">
<polygon fill="white" stroke="#666666" points="969,-167 773,-167 773,-148 969,-148 969,-167"/>
<text text-anchor="middle" x="871" y="-155" font-family="Helvetica,sans-Serif" font-size="10.00">Ads7952Handler::ApplyConfiguration</text>
</a>
</g>
</g>
<!-- Node4&#45;&gt;Node5 -->
<g id="edge4_Node000004_Node000005" class="edge">
<title>Node4&#45;&gt;Node5</title>
<g id="a_edge4_Node000004_Node000005"><a xlink:title=" ">
<path fill="none" stroke="#63b8ff" d="M680.52,-93.17C700.73,-105.74 738.18,-127.5 773,-139.5 779.74,-141.82 786.84,-143.86 794.02,-145.66"/>
<polygon fill="#63b8ff" stroke="#63b8ff" points="793.3,-149.08 803.83,-147.95 794.89,-142.26 793.3,-149.08"/>
</a>
</g>
</g>
<!-- Node6 -->
<g id="Node000006" class="node">
<title>Node6</title>
<g id="a_Node000006"><a xlink:href="classLogger.html#adce17848a5844e053bfd314863dc1404" target="_top" xlink:title="Log error message.">
<polygon fill="white" stroke="#666666" points="910.5,-130 831.5,-130 831.5,-111 910.5,-111 910.5,-130"/>
<text text-anchor="middle" x="871" y="-118" font-family="Helvetica,sans-Serif" font-size="10.00">Logger::Error</text>
</a>
</g>
</g>
<!-- Node4&#45;&gt;Node6 -->
<g id="edge5_Node000004_Node000006" class="edge">
<title>Node4&#45;&gt;Node6</title>
<g id="a_edge5_Node000004_Node000006"><a xlink:title=" ">
<path fill="none" stroke="#63b8ff" d="M718.16,-93.03C749.95,-98.78 790.18,-106.06 821.24,-111.68"/>
<polygon fill="#63b8ff" stroke="#63b8ff" points="820.94,-115.18 831.4,-113.52 822.18,-108.29 820.94,-115.18"/>
</a>
</g>
</g>
<!-- Node9 -->
<g id="Node000009" class="node">
<title>Node9</title>
<g id="a_Node000009"><a xlink:href="classLogger.html#a5789d11f8f1356e2192c0023a089cbc4" target="_top" xlink:title="Get singleton instance.">
<polygon fill="white" stroke="#666666" points="928,-19 814,-19 814,0 928,0 928,-19"/>
<text text-anchor="middle" x="871" y="-7" font-family="Helvetica,sans-Serif" font-size="10.00">Logger::GetInstance</text>
</a>
</g>
</g>
<!-- Node4&#45;&gt;Node9 -->
<g id="edge8_Node000004_Node000009" class="edge">
<title>Node4&#45;&gt;Node9</title>
<g id="a_edge8_Node000004_Node000009"><a xlink:title=" ">
<path fill="none" stroke="#63b8ff" d="M680.52,-73.83C700.73,-61.26 738.18,-39.5 773,-27.5 782.82,-24.12 793.42,-21.33 803.9,-19.04"/>
<polygon fill="#63b8ff" stroke="#63b8ff" points="804.77,-22.43 813.87,-16.99 803.37,-15.57 804.77,-22.43"/>
</a>
</g>
</g>
<!-- Node10 -->
<g id="Node000010" class="node">
<title>Node10</title>
<g id="a_Node000010"><a xlink:href="classLogger.html#a4681229c521795685fc14f6b55c82300" target="_top" xlink:title="Log info message.">
<polygon fill="white" stroke="#666666" points="908,-93 834,-93 834,-74 908,-74 908,-93"/>
<text text-anchor="middle" x="871" y="-81" font-family="Helvetica,sans-Serif" font-size="10.00">Logger::Info</text>
</a>
</g>
</g>
<!-- Node4&#45;&gt;Node10 -->
<g id="edge9_Node000004_Node000010" class="edge">
<title>Node4&#45;&gt;Node10</title>
<g id="a_edge9_Node000004_Node000010"><a xlink:title=" ">
<path fill="none" stroke="#63b8ff" d="M737.02,-83.5C765.77,-83.5 798.1,-83.5 823.68,-83.5"/>
<polygon fill="#63b8ff" stroke="#63b8ff" points="823.84,-87 833.84,-83.5 823.84,-80 823.84,-87"/>
</a>
</g>
</g>
<!-- Node11 -->
<g id="Node000011" class="node">
<title>Node11</title>
<g id="a_Node000011"><a xlink:href="classLogger.html#aaa95ffa14d07a965d4a85bdec82cba26" target="_top" xlink:title="Log warning message.">
<polygon fill="white" stroke="#666666" points="911,-56 831,-56 831,-37 911,-37 911,-56"/>
<text text-anchor="middle" x="871" y="-44" font-family="Helvetica,sans-Serif" font-size="10.00">Logger::Warn</text>
</a>
</g>
</g>
<!-- Node4&#45;&gt;Node11 -->
<g id="edge12_Node000004_Node000011" class="edge">
<title>Node4&#45;&gt;Node11</title>
<g id="a_edge12_Node000004_Node000011"><a xlink:title=" ">
<path fill="none" stroke="#63b8ff" d="M718.16,-73.97C749.74,-68.26 789.65,-61.04 820.62,-55.43"/>
<polygon fill="#63b8ff" stroke="#63b8ff" points="821.54,-58.82 830.76,-53.6 820.29,-51.94 821.54,-58.82"/>
</a>
</g>
</g>
<!-- Node7 -->
<g id="Node000007" class="node">
<title>Node7</title>
<g id="a_Node000007"><a xlink:href="classLogger.html#af9e84e0ff6bd538e4f9ed8dcebc3e2f0" target="_top" xlink:title="Check if log level is enabled for tag.">
<polygon fill="white" stroke="#666666" points="1134,-111 1005,-111 1005,-92 1134,-92 1134,-111"/>
<text text-anchor="middle" x="1069.5" y="-99" font-family="Helvetica,sans-Serif" font-size="10.00">Logger::IsLevelEnabled</text>
</a>
</g>
</g>
<!-- Node6&#45;&gt;Node7 -->
<g id="edge6_Node000006_Node000007" class="edge">
<title>Node6&#45;&gt;Node7</title>
<g id="a_edge6_Node000006_Node000007"><a xlink:title=" ">
<path fill="none" stroke="#63b8ff" d="M910.82,-116.75C934.63,-114.44 965.9,-111.42 994.3,-108.67"/>
<polygon fill="#63b8ff" stroke="#63b8ff" points="995,-112.12 1004.62,-107.68 994.33,-105.16 995,-112.12"/>
</a>
</g>
</g>
<!-- Node8 -->
<g id="Node000008" class="node">
<title>Node8</title>
<g id="a_Node000008"><a xlink:href="classLogger.html#a6adb205db597526fb91ad20067400394" target="_top" xlink:title="Internal logging method.">
<polygon fill="white" stroke="#666666" points="1124.5,-74 1014.5,-74 1014.5,-55 1124.5,-55 1124.5,-74"/>
<text text-anchor="middle" x="1069.5" y="-62" font-family="Helvetica,sans-Serif" font-size="10.00">Logger::LogInternal</text>
</a>
</g>
</g>
<!-- Node6&#45;&gt;Node8 -->
<g id="edge7_Node000006_Node000008" class="edge">
<title>Node6&#45;&gt;Node8</title>
<g id="a_edge7_Node000006_Node000008"><a xlink:title=" ">
<path fill="none" stroke="#63b8ff" d="M910.93,-116.02C928.93,-113.26 950.4,-108.97 969,-102.5 986.09,-96.56 988.25,-90.35 1005,-83.5 1010.53,-81.24 1016.42,-79.12 1022.31,-77.16"/>
<polygon fill="#63b8ff" stroke="#63b8ff" points="1023.67,-80.41 1032.14,-74.05 1021.55,-73.73 1023.67,-80.41"/>
</a>
</g>
</g>
<!-- Node10&#45;&gt;Node7 -->
<g id="edge10_Node000010_Node000007" class="edge">
<title>Node10&#45;&gt;Node7</title>
<g id="a_edge10_Node000010_Node000007"><a xlink:title=" ">
<path fill="none" stroke="#63b8ff" d="M908.04,-86.8C932.22,-89.02 964.95,-92.01 994.54,-94.72"/>
<polygon fill="#63b8ff" stroke="#63b8ff" points="994.58,-98.24 1004.85,-95.67 995.22,-91.27 994.58,-98.24"/>
</a>
</g>
</g>
<!-- Node10&#45;&gt;Node8 -->
<g id="edge11_Node000010_Node000008" class="edge">
<title>Node10&#45;&gt;Node8</title>
<g id="a_edge11_Node000010_Node000008"><a xlink:title=" ">
<path fill="none" stroke="#63b8ff" d="M908.04,-80.02C934.83,-77.42 972.11,-73.82 1004,-70.74"/>
<polygon fill="#63b8ff" stroke="#63b8ff" points="1004.52,-74.2 1014.14,-69.76 1003.85,-67.24 1004.52,-74.2"/>
</a>
</g>
</g>
<!-- Node11&#45;&gt;Node7 -->
<g id="edge13_Node000011_Node000007" class="edge">
<title>Node11&#45;&gt;Node7</title>
<g id="a_edge13_Node000011_Node000007"><a xlink:title=" ">
<path fill="none" stroke="#63b8ff" d="M911.33,-51.73C929.22,-54.73 950.48,-59.19 969,-65.5 985.93,-71.27 988.32,-77.03 1005,-83.5 1010.07,-85.47 1015.45,-87.33 1020.85,-89.05"/>
<polygon fill="#63b8ff" stroke="#63b8ff" points="1019.92,-92.42 1030.51,-91.99 1021.96,-85.73 1019.92,-92.42"/>
</a>
</g>
</g>
<!-- Node11&#45;&gt;Node8 -->
<g id="edge14_Node000011_Node000008" class="edge">
<title>Node11&#45;&gt;Node8</title>
<g id="a_edge14_Node000011_Node000008"><a xlink:title=" ">
<path fill="none" stroke="#63b8ff" d="M911.29,-50.1C937.86,-52.53 973.55,-55.8 1004.21,-58.61"/>
<polygon fill="#63b8ff" stroke="#63b8ff" points="1004.11,-62.12 1014.39,-59.54 1004.75,-55.15 1004.11,-62.12"/>
</a>
</g>
</g>
</g>
</svg>
