<?xml version="1.0" encoding="UTF-8" standalone="no"?>
<!DOCTYPE svg PUBLIC "-//W3C//DTD SVG 1.1//EN"
 "http://www.w3.org/Graphics/SVG/1.1/DTD/svg11.dtd">
<!-- Generated by graphviz version 2.43.0 (0)
 -->
<!-- Title: Pcal95555Handler::EnsureInitializedLocked Pages: 1 -->
<svg width="729pt" height="38pt"
 viewBox="0.00 0.00 729.00 38.00" xmlns="http://www.w3.org/2000/svg" xmlns:xlink="http://www.w3.org/1999/xlink">
<g id="graph0" class="graph" transform="scale(1 1) rotate(0) translate(4 34)">
<title>Pcal95555Handler::EnsureInitializedLocked</title>
<!-- Node1 -->
<g id="Node000001" class="node">
<title>Node1</title>
<g id="a_Node000001"><a xlink:title="Check init state under already&#45;held handler_mutex_.">
<polygon fill="#999999" stroke="#666666" points="144,-30 0,-30 0,0 144,0 144,-30"/>
<text text-anchor="start" x="8" y="-18" font-family="Helvetica,sans-Serif" font-size="10.00">Pcal95555Handler::Ensure</text>
<text text-anchor="middle" x="72" y="-7" font-family="Helvetica,sans-Serif" font-size="10.00">InitializedLocked</text>
</a>
</g>
</g>
<!-- Node2 -->
<g id="Node000002" class="node">
<title>Node2</title>
<g id="a_Node000002"><a xlink:href="classPcal95555Handler.html#a5c2e68d6c9e39e373d40e94f5e951558" target="_top" xlink:title="Internal initialization (called by EnsureInitialized under mutex).">
<polygon fill="white" stroke="#666666" points="333,-24.5 180,-24.5 180,-5.5 333,-5.5 333,-24.5"/>
<text text-anchor="middle" x="256.5" y="-12.5" font-family="Helvetica,sans-Serif" font-size="10.00">Pcal95555Handler::Initialize</text>
</a>
</g>
</g>
<!-- Node1&#45;&gt;Node2 -->
<g id="edge1_Node000001_Node000002" class="edge">
<title>Node1&#45;&gt;Node2</title>
<g id="a_edge1_Node000001_Node000002"><a xlink:title=" ">
<path fill="none" stroke="#63b8ff" d="M144.08,-15C152.5,-15 161.16,-15 169.75,-15"/>
<polygon fill="#63b8ff" stroke="#63b8ff" points="169.79,-18.5 179.79,-15 169.79,-11.5 169.79,-18.5"/>
</a>
</g>
</g>
<!-- Node3 -->
<g id="Node000003" class="node">
<title>Node3</title>
<g id="a_Node000003"><a xlink:href="classPcal95555Handler.html#add6bf45bbac47b7d8d579fbd9bc50d2e" target="_top" xlink:title="Configure the hardware interrupt pin (falling edge, active&#45;low).">
<polygon fill="white" stroke="#666666" points="527,-30 369,-30 369,0 527,0 527,-30"/>
<text text-anchor="start" x="377" y="-18" font-family="Helvetica,sans-Serif" font-size="10.00">Pcal95555Handler::Configure</text>
<text text-anchor="middle" x="448" y="-7" font-family="Helvetica,sans-Serif" font-size="10.00">HardwareInterrupt</text>
</a>
</g>
</g>
<!-- Node2&#45;&gt;Node3 -->
<g id="edge2_Node000002_Node000003" class="edge">
<title>Node2&#45;&gt;Node3</title>
<g id="a_edge2_Node000002_Node000003"><a xlink:title=" ">
<path fill="none" stroke="#63b8ff" d="M333.21,-15C341.66,-15 350.32,-15 358.9,-15"/>
<polygon fill="#63b8ff" stroke="#63b8ff" points="358.93,-18.5 368.93,-15 358.93,-11.5 358.93,-18.5"/>
</a>
</g>
</g>
<!-- Node4 -->
<g id="Node000004" class="node">
<title>Node4</title>
<g id="a_Node000004"><a xlink:href="classPcal95555Handler.html#a87e8b50faf5d3d815227068ff26b1a6b" target="_top" xlink:title="Static ISR callback for the hardware interrupt pin.">
<polygon fill="white" stroke="#666666" points="721,-30 563,-30 563,0 721,0 721,-30"/>
<text text-anchor="start" x="571" y="-18" font-family="Helvetica,sans-Serif" font-size="10.00">Pcal95555Handler::Hardware</text>
<text text-anchor="middle" x="642" y="-7" font-family="Helvetica,sans-Serif" font-size="10.00">InterruptCallback</text>
</a>
</g>
</g>
<!-- Node3&#45;&gt;Node4 -->
<g id="edge3_Node000003_Node000004" class="edge">
<title>Node3&#45;&gt;Node4</title>
<g id="a_edge3_Node000003_Node000004"><a xlink:title=" ">
<path fill="none" stroke="#63b8ff" d="M527.09,-15C535.6,-15 544.3,-15 552.92,-15"/>
<polygon fill="#63b8ff" stroke="#63b8ff" points="552.98,-18.5 562.98,-15 552.98,-11.5 552.98,-18.5"/>
</a>
</g>
</g>
</g>
</svg>
