<?xml version="1.0" encoding="UTF-8" standalone="no"?>
<!DOCTYPE svg PUBLIC "-//W3C//DTD SVG 1.1//EN"
 "http://www.w3.org/Graphics/SVG/1.1/DTD/svg11.dtd">
<!-- Generated by graphviz version 2.43.0 (0)
 -->
<!-- Title: Tmc9660Handler::Gpio::GetDirectionImpl Pages: 1 -->
<svg width="1091pt" height="150pt"
 viewBox="0.00 0.00 1091.00 149.50" xmlns="http://www.w3.org/2000/svg" xmlns:xlink="http://www.w3.org/1999/xlink">
<g id="graph0" class="graph" transform="scale(1 1) rotate(0) translate(4 145.5)">
<title>Tmc9660Handler::Gpio::GetDirectionImpl</title>
<!-- Node1 -->
<g id="Node000001" class="node">
<title>Node1</title>
<g id="a_Node000001"><a xlink:title="Returns the current configured direction (INPUT or OUTPUT).">
<polygon fill="#999999" stroke="#666666" points="128,-54 0,-54 0,-24 128,-24 128,-54"/>
<text text-anchor="start" x="8" y="-42" font-family="Helvetica,sans-Serif" font-size="10.00">Tmc9660Handler::Gpio</text>
<text text-anchor="middle" x="64" y="-31" font-family="Helvetica,sans-Serif" font-size="10.00">::GetDirectionImpl</text>
</a>
</g>
</g>
<!-- Node2 -->
<g id="Node000002" class="node">
<title>Node2</title>
<g id="a_Node000002"><a xlink:href="classTmc9660Handler.html#a393382194d0602e7aa02da6a8fd7a20a" target="_top" xlink:title="Get a reference to the Temperature wrapper.">
<polygon fill="white" stroke="#666666" points="331,-48.5 164,-48.5 164,-29.5 331,-29.5 331,-48.5"/>
<text text-anchor="middle" x="247.5" y="-36.5" font-family="Helvetica,sans-Serif" font-size="10.00">Tmc9660Handler::temperature</text>
</a>
</g>
</g>
<!-- Node1&#45;&gt;Node2 -->
<g id="edge1_Node000001_Node000002" class="edge">
<title>Node1&#45;&gt;Node2</title>
<g id="a_edge1_Node000001_Node000002"><a xlink:title=" ">
<path fill="none" stroke="#63b8ff" d="M128.23,-39C136.46,-39 145.03,-39 153.63,-39"/>
<polygon fill="#63b8ff" stroke="#63b8ff" points="153.71,-42.5 163.71,-39 153.71,-35.5 153.71,-42.5"/>
</a>
</g>
</g>
<!-- Node2&#45;&gt;Node2 -->
<g id="edge14_Node000002_Node000002" class="edge">
<title>Node2&#45;&gt;Node2</title>
<g id="a_edge14_Node000002_Node000002"><a xlink:title=" ">
<path fill="none" stroke="#63b8ff" d="M219.45,-48.58C205.8,-57.23 215.15,-66.5 247.5,-66.5 269.74,-66.5 281.11,-62.12 281.61,-56.57"/>
<polygon fill="#63b8ff" stroke="#63b8ff" points="284.38,-54.44 275.55,-48.58 278.8,-58.67 284.38,-54.44"/>
</a>
</g>
</g>
<!-- Node3 -->
<g id="Node000003" class="node">
<title>Node3</title>
<g id="a_Node000003"><a xlink:href="classTmc9660Handler.html#a5a279ae9d4b5a8e0d71cb24577ad88ea" target="_top" xlink:title="Ensure driver is initialized (lazy init entrypoint).">
<polygon fill="white" stroke="#666666" points="554,-29.5 367,-29.5 367,-10.5 554,-10.5 554,-29.5"/>
<text text-anchor="middle" x="460.5" y="-17.5" font-family="Helvetica,sans-Serif" font-size="10.00">Tmc9660Handler::EnsureInitialized</text>
</a>
</g>
</g>
<!-- Node2&#45;&gt;Node3 -->
<g id="edge2_Node000002_Node000003" class="edge">
<title>Node2&#45;&gt;Node3</title>
<g id="a_edge2_Node000002_Node000003"><a xlink:title=" ">
<path fill="none" stroke="#63b8ff" d="M331.29,-31.55C339.67,-30.79 348.25,-30.02 356.81,-29.25"/>
<polygon fill="#63b8ff" stroke="#63b8ff" points="357.18,-32.73 366.83,-28.34 356.56,-25.76 357.18,-32.73"/>
</a>
</g>
</g>
<!-- Node4 -->
<g id="Node000004" class="node">
<title>Node4</title>
<g id="a_Node000004"><a xlink:href="classTmc9660Handler.html#adc564847f8ae26c47412aaee0758991c" target="_top" xlink:title="Initialize the TMC9660 device.">
<polygon fill="white" stroke="#666666" points="738,-67.5 590,-67.5 590,-48.5 738,-48.5 738,-67.5"/>
<text text-anchor="middle" x="664" y="-55.5" font-family="Helvetica,sans-Serif" font-size="10.00">Tmc9660Handler::Initialize</text>
</a>
</g>
</g>
<!-- Node3&#45;&gt;Node4 -->
<g id="edge3_Node000003_Node000004" class="edge">
<title>Node3&#45;&gt;Node4</title>
<g id="a_edge3_Node000003_Node000004"><a xlink:title=" ">
<path fill="none" stroke="#63b8ff" d="M512.09,-29.54C539.51,-34.71 573.6,-41.14 602.43,-46.58"/>
<polygon fill="#63b8ff" stroke="#63b8ff" points="601.92,-50.04 612.39,-48.46 603.21,-43.16 601.92,-50.04"/>
</a>
</g>
</g>
<!-- Node10 -->
<g id="Node000010" class="node">
<title>Node10</title>
<g id="a_Node000010"><a xlink:href="classTmc9660Handler.html#a13db97d201a287d8aa60384e04070b9f" target="_top" xlink:title="Check if the TMC9660 driver has been initialized and is ready.">
<polygon fill="white" stroke="#666666" points="918,-30 774,-30 774,0 918,0 918,-30"/>
<text text-anchor="start" x="782" y="-18" font-family="Helvetica,sans-Serif" font-size="10.00">Tmc9660Handler::IsDriver</text>
<text text-anchor="middle" x="846" y="-7" font-family="Helvetica,sans-Serif" font-size="10.00">Ready</text>
</a>
</g>
</g>
<!-- Node3&#45;&gt;Node10 -->
<g id="edge13_Node000003_Node000010" class="edge">
<title>Node3&#45;&gt;Node10</title>
<g id="a_edge13_Node000003_Node000010"><a xlink:title=" ">
<path fill="none" stroke="#63b8ff" d="M554.33,-18.79C618.28,-17.96 702.42,-16.86 763.72,-16.06"/>
<polygon fill="#63b8ff" stroke="#63b8ff" points="763.78,-19.56 773.73,-15.93 763.69,-12.56 763.78,-19.56"/>
</a>
</g>
</g>
<!-- Node4&#45;&gt;Node2 -->
<g id="edge12_Node000004_Node000002" class="edge">
<title>Node4&#45;&gt;Node2</title>
<g id="a_edge12_Node000004_Node000002"><a xlink:title=" ">
<path fill="none" stroke="#63b8ff" d="M589.97,-54.65C520.87,-51.49 416.85,-46.72 341.78,-43.28"/>
<polygon fill="#63b8ff" stroke="#63b8ff" points="341.53,-39.76 331.38,-42.8 341.21,-46.75 341.53,-39.76"/>
</a>
</g>
</g>
<!-- Node5 -->
<g id="Node000005" class="node">
<title>Node5</title>
<g id="a_Node000005"><a xlink:href="classLogger.html#adce17848a5844e053bfd314863dc1404" target="_top" xlink:title="Log error message.">
<polygon fill="white" stroke="#666666" points="885.5,-141.5 806.5,-141.5 806.5,-122.5 885.5,-122.5 885.5,-141.5"/>
<text text-anchor="middle" x="846" y="-129.5" font-family="Helvetica,sans-Serif" font-size="10.00">Logger::Error</text>
</a>
</g>
</g>
<!-- Node4&#45;&gt;Node5 -->
<g id="edge4_Node000004_Node000005" class="edge">
<title>Node4&#45;&gt;Node5</title>
<g id="a_edge4_Node000004_Node000005"><a xlink:title=" ">
<path fill="none" stroke="#63b8ff" d="M680.73,-67.53C701.46,-79.74 739.37,-100.91 774,-114 781.11,-116.69 788.78,-119.1 796.35,-121.23"/>
<polygon fill="#63b8ff" stroke="#63b8ff" points="795.62,-124.66 806.19,-123.85 797.42,-117.89 795.62,-124.66"/>
</a>
</g>
</g>
<!-- Node8 -->
<g id="Node000008" class="node">
<title>Node8</title>
<g id="a_Node000008"><a xlink:href="classLogger.html#a5789d11f8f1356e2192c0023a089cbc4" target="_top" xlink:title="Get singleton instance.">
<polygon fill="white" stroke="#666666" points="903,-67.5 789,-67.5 789,-48.5 903,-48.5 903,-67.5"/>
<text text-anchor="middle" x="846" y="-55.5" font-family="Helvetica,sans-Serif" font-size="10.00">Logger::GetInstance</text>
</a>
</g>
</g>
<!-- Node4&#45;&gt;Node8 -->
<g id="edge7_Node000004_Node000008" class="edge">
<title>Node4&#45;&gt;Node8</title>
<g id="a_edge7_Node000004_Node000008"><a xlink:title=" ">
<path fill="none" stroke="#63b8ff" d="M738.21,-58C751.58,-58 765.45,-58 778.6,-58"/>
<polygon fill="#63b8ff" stroke="#63b8ff" points="778.97,-61.5 788.97,-58 778.97,-54.5 778.97,-61.5"/>
</a>
</g>
</g>
<!-- Node9 -->
<g id="Node000009" class="node">
<title>Node9</title>
<g id="a_Node000009"><a xlink:href="classLogger.html#a4681229c521795685fc14f6b55c82300" target="_top" xlink:title="Log info message.">
<polygon fill="white" stroke="#666666" points="883,-104.5 809,-104.5 809,-85.5 883,-85.5 883,-104.5"/>
<text text-anchor="middle" x="846" y="-92.5" font-family="Helvetica,sans-Serif" font-size="10.00">Logger::Info</text>
</a>
</g>
</g>
<!-- Node4&#45;&gt;Node9 -->
<g id="edge8_Node000004_Node000009" class="edge">
<title>Node4&#45;&gt;Node9</title>
<g id="a_edge8_Node000004_Node000009"><a xlink:title=" ">
<path fill="none" stroke="#63b8ff" d="M711.35,-67.53C738.23,-73.05 771.96,-79.99 798.81,-85.51"/>
<polygon fill="#63b8ff" stroke="#63b8ff" points="798.24,-88.96 808.74,-87.55 799.65,-82.1 798.24,-88.96"/>
</a>
</g>
</g>
<!-- Node4&#45;&gt;Node10 -->
<g id="edge11_Node000004_Node000010" class="edge">
<title>Node4&#45;&gt;Node10</title>
<g id="a_edge11_Node000004_Node000010"><a xlink:title=" ">
<path fill="none" stroke="#63b8ff" d="M704.95,-48.46C724.8,-43.72 749.4,-37.84 772.43,-32.34"/>
<polygon fill="#63b8ff" stroke="#63b8ff" points="773.27,-35.73 782.18,-30.01 771.64,-28.93 773.27,-35.73"/>
</a>
</g>
</g>
<!-- Node6 -->
<g id="Node000006" class="node">
<title>Node6</title>
<g id="a_Node000006"><a xlink:href="classLogger.html#af9e84e0ff6bd538e4f9ed8dcebc3e2f0" target="_top" xlink:title="Check if log level is enabled for tag.">
<polygon fill="white" stroke="#666666" points="1083,-141.5 954,-141.5 954,-122.5 1083,-122.5 1083,-141.5"/>
<text text-anchor="middle" x="1018.5" y="-129.5" font-family="Helvetica,sans-Serif" font-size="10.00">Logger::IsLevelEnabled</text>
</a>
</g>
</g>
<!-- Node5&#45;&gt;Node6 -->
<g id="edge5_Node000005_Node000006" class="edge">
<title>Node5&#45;&gt;Node6</title>
<g id="a_edge5_Node000005_Node000006"><a xlink:title=" ">
<path fill="none" stroke="#63b8ff" d="M885.69,-132C902.92,-132 923.81,-132 943.83,-132"/>
<polygon fill="#63b8ff" stroke="#63b8ff" points="943.89,-135.5 953.89,-132 943.89,-128.5 943.89,-135.5"/>
</a>
</g>
</g>
<!-- Node7 -->
<g id="Node000007" class="node">
<title>Node7</title>
<g id="a_Node000007"><a xlink:href="classLogger.html#a6adb205db597526fb91ad20067400394" target="_top" xlink:title="Internal logging method.">
<polygon fill="white" stroke="#666666" points="1073.5,-104.5 963.5,-104.5 963.5,-85.5 1073.5,-85.5 1073.5,-104.5"/>
<text text-anchor="middle" x="1018.5" y="-92.5" font-family="Helvetica,sans-Serif" font-size="10.00">Logger::LogInternal</text>
</a>
</g>
</g>
<!-- Node5&#45;&gt;Node7 -->
<g id="edge6_Node000005_Node000007" class="edge">
<title>Node5&#45;&gt;Node7</title>
<g id="a_edge6_Node000005_Node000007"><a xlink:title=" ">
<path fill="none" stroke="#63b8ff" d="M885.69,-123.6C908.76,-118.6 938.4,-112.17 963.72,-106.67"/>
<polygon fill="#63b8ff" stroke="#63b8ff" points="964.52,-110.08 973.55,-104.54 963.04,-103.24 964.52,-110.08"/>
</a>
</g>
</g>
<!-- Node9&#45;&gt;Node6 -->
<g id="edge9_Node000009_Node000006" class="edge">
<title>Node9&#45;&gt;Node6</title>
<g id="a_edge9_Node000009_Node000006"><a xlink:title=" ">
<path fill="none" stroke="#63b8ff" d="M883.16,-102.85C906.56,-107.93 937.45,-114.63 963.71,-120.33"/>
<polygon fill="#63b8ff" stroke="#63b8ff" points="963.01,-123.76 973.52,-122.46 964.49,-116.92 963.01,-123.76"/>
</a>
</g>
</g>
<!-- Node9&#45;&gt;Node7 -->
<g id="edge10_Node000009_Node000007" class="edge">
<title>Node9&#45;&gt;Node7</title>
<g id="a_edge10_Node000009_Node000007"><a xlink:title=" ">
<path fill="none" stroke="#63b8ff" d="M883.16,-95C903.42,-95 929.31,-95 952.93,-95"/>
<polygon fill="#63b8ff" stroke="#63b8ff" points="953.25,-98.5 963.25,-95 953.25,-91.5 953.25,-98.5"/>
</a>
</g>
</g>
</g>
</svg>
