<?xml version="1.0" encoding="UTF-8" standalone="no"?>
<!DOCTYPE svg PUBLIC "-//W3C//DTD SVG 1.1//EN"
 "http://www.w3.org/Graphics/SVG/1.1/DTD/svg11.dtd">
<!-- Generated by graphviz version 2.43.0 (0)
 -->
<!-- Title: Bno08xHandler::GetSensor Pages: 1 -->
<svg width="1140pt" height="76pt"
 viewBox="0.00 0.00 1140.00 75.50" xmlns="http://www.w3.org/2000/svg" xmlns:xlink="http://www.w3.org/1999/xlink">
<g id="graph0" class="graph" transform="scale(1 1) rotate(0) translate(4 71.5)">
<title>Bno08xHandler::GetSensor</title>
<!-- Node1 -->
<g id="Node000001" class="node">
<title>Node1</title>
<g id="a_Node000001"><a xlink:title="Const overload of GetSensor().">
<polygon fill="#999999" stroke="#666666" points="148,-45.5 0,-45.5 0,-26.5 148,-26.5 148,-45.5"/>
<text text-anchor="middle" x="74" y="-33.5" font-family="Helvetica,sans-Serif" font-size="10.00">Bno08xHandler::GetSensor</text>
</a>
</g>
</g>
<!-- Node2 -->
<g id="Node000002" class="node">
<title>Node2</title>
<g id="a_Node000002"><a xlink:href="classBno08xHandler.html#a57e2952c0438e800c091cd0e3ebcdaf5" target="_top" xlink:title="Get direct access to the underlying sensor driver (type&#45;erased).">
<polygon fill="white" stroke="#666666" points="332,-45.5 184,-45.5 184,-26.5 332,-26.5 332,-45.5"/>
<text text-anchor="middle" x="258" y="-33.5" font-family="Helvetica,sans-Serif" font-size="10.00">Bno08xHandler::GetSensor</text>
</a>
</g>
</g>
<!-- Node1&#45;&gt;Node2 -->
<g id="edge1_Node000001_Node000002" class="edge">
<title>Node1&#45;&gt;Node2</title>
<g id="a_edge1_Node000001_Node000002"><a xlink:title=" ">
<path fill="none" stroke="#63b8ff" d="M148.24,-36C156.6,-36 165.16,-36 173.64,-36"/>
<polygon fill="#63b8ff" stroke="#63b8ff" points="173.91,-39.5 183.91,-36 173.91,-32.5 173.91,-39.5"/>
</a>
</g>
</g>
<!-- Node3 -->
<g id="Node000003" class="node">
<title>Node3</title>
<g id="a_Node000003"><a xlink:href="classBno08xHandler.html#afab341345c8ed8fed1a218e0df18c4aa" target="_top" xlink:title="Ensure the BNO08x is initialized (lazy init entrypoint).">
<polygon fill="white" stroke="#666666" points="547,-45.5 368,-45.5 368,-26.5 547,-26.5 547,-45.5"/>
<text text-anchor="middle" x="457.5" y="-33.5" font-family="Helvetica,sans-Serif" font-size="10.00">Bno08xHandler::EnsureInitialized</text>
</a>
</g>
</g>
<!-- Node2&#45;&gt;Node3 -->
<g id="edge2_Node000002_Node000003" class="edge">
<title>Node2&#45;&gt;Node3</title>
<g id="a_edge2_Node000002_Node000003"><a xlink:title=" ">
<path fill="none" stroke="#63b8ff" d="M332.26,-36C340.62,-36 349.25,-36 357.87,-36"/>
<polygon fill="#63b8ff" stroke="#63b8ff" points="357.98,-39.5 367.98,-36 357.98,-32.5 357.98,-39.5"/>
</a>
</g>
</g>
<!-- Node4 -->
<g id="Node000004" class="node">
<title>Node4</title>
<g id="a_Node000004"><a xlink:href="classBno08xHandler.html#a0479abc034d5417ba7dc524468a5ce82" target="_top" xlink:title="Internal: ensure initialized (assumes mutex is held).">
<polygon fill="white" stroke="#666666" points="762,-51 583,-51 583,-21 762,-21 762,-51"/>
<text text-anchor="start" x="591" y="-39" font-family="Helvetica,sans-Serif" font-size="10.00">Bno08xHandler::ensureInitialized</text>
<text text-anchor="middle" x="672.5" y="-28" font-family="Helvetica,sans-Serif" font-size="10.00">Locked</text>
</a>
</g>
</g>
<!-- Node3&#45;&gt;Node4 -->
<g id="edge3_Node000003_Node000004" class="edge">
<title>Node3&#45;&gt;Node4</title>
<g id="a_edge3_Node000003_Node000004"><a xlink:title=" ">
<path fill="none" stroke="#63b8ff" d="M547.29,-36C555.65,-36 564.16,-36 572.6,-36"/>
<polygon fill="#63b8ff" stroke="#63b8ff" points="572.86,-39.5 582.86,-36 572.85,-32.5 572.86,-39.5"/>
</a>
</g>
</g>
<!-- Node5 -->
<g id="Node000005" class="node">
<title>Node5</title>
<g id="a_Node000005"><a xlink:href="classBno08xHandler.html#ac1a1ff0d56324dcc09d9b48ca2e132e6" target="_top" xlink:title="Initialize the BNO08x sensor.">
<polygon fill="white" stroke="#666666" points="938,-45.5 798,-45.5 798,-26.5 938,-26.5 938,-45.5"/>
<text text-anchor="middle" x="868" y="-33.5" font-family="Helvetica,sans-Serif" font-size="10.00">Bno08xHandler::Initialize</text>
</a>
</g>
</g>
<!-- Node4&#45;&gt;Node5 -->
<g id="edge4_Node000004_Node000005" class="edge">
<title>Node4&#45;&gt;Node5</title>
<g id="a_edge4_Node000004_Node000005"><a xlink:title=" ">
<path fill="none" stroke="#63b8ff" d="M762.04,-36C770.6,-36 779.25,-36 787.71,-36"/>
<polygon fill="#63b8ff" stroke="#63b8ff" points="787.92,-39.5 797.92,-36 787.92,-32.5 787.92,-39.5"/>
</a>
</g>
</g>
<!-- Node6 -->
<g id="Node000006" class="node">
<title>Node6</title>
<g id="a_Node000006"><a xlink:href="classIBno08xDriverOps.html#a0ca90c1a5664ab3eb83f691aff34faa0" target="_top" xlink:title=" ">
<polygon fill="white" stroke="#666666" points="1122.5,-67.5 983.5,-67.5 983.5,-48.5 1122.5,-48.5 1122.5,-67.5"/>
<text text-anchor="middle" x="1053" y="-55.5" font-family="Helvetica,sans-Serif" font-size="10.00">IBno08xDriverOps::Begin</text>
</a>
</g>
</g>
<!-- Node5&#45;&gt;Node6 -->
<g id="edge5_Node000005_Node000006" class="edge">
<title>Node5&#45;&gt;Node6</title>
<g id="a_edge5_Node000005_Node000006"><a xlink:title=" ">
<path fill="none" stroke="#63b8ff" d="M938.18,-44.32C949.61,-45.69 961.54,-47.12 973.18,-48.52"/>
<polygon fill="#63b8ff" stroke="#63b8ff" points="972.98,-52.03 983.32,-49.74 973.81,-45.08 972.98,-52.03"/>
</a>
</g>
</g>
<!-- Node7 -->
<g id="Node000007" class="node">
<title>Node7</title>
<g id="a_Node000007"><a xlink:href="classIBno08xDriverOps.html#a66418ccb85cd8eb8eea327fa979a2b6a" target="_top" xlink:title=" ">
<polygon fill="white" stroke="#666666" points="1132,-30 974,-30 974,0 1132,0 1132,-30"/>
<text text-anchor="start" x="982" y="-18" font-family="Helvetica,sans-Serif" font-size="10.00">IBno08xDriverOps::Hardware</text>
<text text-anchor="middle" x="1053" y="-7" font-family="Helvetica,sans-Serif" font-size="10.00">Reset</text>
</a>
</g>
</g>
<!-- Node5&#45;&gt;Node7 -->
<g id="edge6_Node000005_Node000007" class="edge">
<title>Node5&#45;&gt;Node7</title>
<g id="a_edge6_Node000005_Node000007"><a xlink:title=" ">
<path fill="none" stroke="#63b8ff" d="M938.18,-28.06C946.55,-27.1 955.18,-26.11 963.77,-25.12"/>
<polygon fill="#63b8ff" stroke="#63b8ff" points="964.29,-28.59 973.83,-23.97 963.49,-21.63 964.29,-28.59"/>
</a>
</g>
</g>
</g>
</svg>
