<?xml version="1.0" encoding="UTF-8" standalone="no"?>
<!DOCTYPE svg PUBLIC "-//W3C//DTD SVG 1.1//EN"
 "http://www.w3.org/Graphics/SVG/1.1/DTD/svg11.dtd">
<!-- Generated by graphviz version 2.43.0 (0)
 -->
<!-- Title: Fdo2Handler::MeasureMraw Pages: 1 -->
<svg width="555pt" height="76pt"
 viewBox="0.00 0.00 555.00 75.50" xmlns="http://www.w3.org/2000/svg" xmlns:xlink="http://www.w3.org/1999/xlink">
<g id="graph0" class="graph" transform="scale(1 1) rotate(0) translate(4 71.5)">
<title>Fdo2Handler::MeasureMraw</title>
<!-- Node1 -->
<g id="Node000001" class="node">
<title>Node1</title>
<g id="a_Node000001"><a xlink:title=" ">
<polygon fill="#999999" stroke="#666666" points="154,-40 0,-40 0,-21 154,-21 154,-40"/>
<text text-anchor="middle" x="77" y="-28" font-family="Helvetica,sans-Serif" font-size="10.00">Fdo2Handler::MeasureMraw</text>
</a>
</g>
</g>
<!-- Node2 -->
<g id="Node000002" class="node">
<title>Node2</title>
<g id="a_Node000002"><a xlink:href="classFdo2Handler.html#a78beeff055bbfb7035037778f87998fa" target="_top" xlink:title=" ">
<polygon fill="white" stroke="#666666" points="356,-45.5 190,-45.5 190,-15.5 356,-15.5 356,-45.5"/>
<text text-anchor="start" x="198" y="-33.5" font-family="Helvetica,sans-Serif" font-size="10.00">Fdo2Handler::EnsureInitialized</text>
<text text-anchor="middle" x="273" y="-22.5" font-family="Helvetica,sans-Serif" font-size="10.00">Locked</text>
</a>
</g>
</g>
<!-- Node1&#45;&gt;Node2 -->
<g id="edge1_Node000001_Node000002" class="edge">
<title>Node1&#45;&gt;Node2</title>
<g id="a_edge1_Node000001_Node000002"><a xlink:title=" ">
<path fill="none" stroke="#63b8ff" d="M154.12,-30.5C162.51,-30.5 171.12,-30.5 179.68,-30.5"/>
<polygon fill="#63b8ff" stroke="#63b8ff" points="179.7,-34 189.7,-30.5 179.7,-27 179.7,-34"/>
</a>
</g>
</g>
<!-- Node3 -->
<g id="Node000003" class="node">
<title>Node3</title>
<g id="a_Node000003"><a xlink:href="classHalUartFdo2Comm.html#a5589d7088dcae478e66825f63c6da124" target="_top" xlink:title=" ">
<polygon fill="white" stroke="#666666" points="541,-67.5 398,-67.5 398,-37.5 541,-37.5 541,-67.5"/>
<text text-anchor="start" x="406" y="-55.5" font-family="Helvetica,sans-Serif" font-size="10.00">HalUartFdo2Comm::delay</text>
<text text-anchor="middle" x="469.5" y="-44.5" font-family="Helvetica,sans-Serif" font-size="10.00">_ms_impl</text>
</a>
</g>
</g>
<!-- Node2&#45;&gt;Node3 -->
<g id="edge2_Node000002_Node000003" class="edge">
<title>Node2&#45;&gt;Node3</title>
<g id="a_edge2_Node000002_Node000003"><a xlink:title=" ">
<path fill="none" stroke="#63b8ff" d="M356.2,-39.8C366.73,-40.99 377.5,-42.21 388,-43.39"/>
<polygon fill="#63b8ff" stroke="#63b8ff" points="387.64,-46.88 397.97,-44.52 388.43,-39.92 387.64,-46.88"/>
</a>
</g>
</g>
<!-- Node4 -->
<g id="Node000004" class="node">
<title>Node4</title>
<g id="a_Node000004"><a xlink:href="classHalUartFdo2Comm.html#ae35e65fd7d755ae9179b93af1e295e29" target="_top" xlink:title=" ">
<polygon fill="white" stroke="#666666" points="547,-19 392,-19 392,0 547,0 547,-19"/>
<text text-anchor="middle" x="469.5" y="-7" font-family="Helvetica,sans-Serif" font-size="10.00">HalUartFdo2Comm::flush_rx</text>
</a>
</g>
</g>
<!-- Node2&#45;&gt;Node4 -->
<g id="edge3_Node000002_Node000004" class="edge">
<title>Node2&#45;&gt;Node4</title>
<g id="a_edge3_Node000002_Node000004"><a xlink:title=" ">
<path fill="none" stroke="#63b8ff" d="M356.2,-21.62C364.7,-20.71 373.35,-19.77 381.89,-18.85"/>
<polygon fill="#63b8ff" stroke="#63b8ff" points="382.29,-22.33 391.85,-17.78 381.53,-15.37 382.29,-22.33"/>
</a>
</g>
</g>
</g>
</svg>
