<?xml version="1.0" encoding="UTF-8" standalone="no"?>
<!DOCTYPE svg PUBLIC "-//W3C//DTD SVG 1.1//EN"
 "http://www.w3.org/Graphics/SVG/1.1/DTD/svg11.dtd">
<!-- Generated by graphviz version 2.43.0 (0)
 -->
<!-- Title: Pca9685Handler Pages: 1 -->
<svg width="1560pt" height="324pt"
 viewBox="0.00 0.00 1560.00 324.00" xmlns="http://www.w3.org/2000/svg" xmlns:xlink="http://www.w3.org/1999/xlink">
<g id="graph0" class="graph" transform="scale(1 1) rotate(0) translate(4 320)">
<title>Pca9685Handler</title>
<!-- Node1 -->
<g id="Node000001" class="node">
<title>Node1</title>
<g id="a_Node000001"><a xlink:title="Unified, non&#45;templated handler for a single PCA9685 PWM controller.">
<polygon fill="#999999" stroke="#666666" points="787.5,-101 691.5,-101 691.5,-82 787.5,-82 787.5,-101"/>
<text text-anchor="middle" x="739.5" y="-89" font-family="Helvetica,sans-Serif" font-size="10.00">Pca9685Handler</text>
</a>
</g>
</g>
<!-- Node7 -->
<g id="Node000007" class="node">
<title>Node7</title>
<g id="a_Node000007"><a xlink:href="classPca9685PwmAdapter.html" target="_top" xlink:title="BasePwm adapter for all 16 PCA9685 PWM channels.">
<polygon fill="white" stroke="#666666" points="1079,-208 959,-208 959,-189 1079,-189 1079,-208"/>
<text text-anchor="middle" x="1019" y="-196" font-family="Helvetica,sans-Serif" font-size="10.00">Pca9685PwmAdapter</text>
</a>
</g>
</g>
<!-- Node1&#45;&gt;Node7 -->
<g id="edge8_Node000007_Node000001" class="edge">
<title>Node1&#45;&gt;Node7</title>
<g id="a_edge8_Node000007_Node000001"><a xlink:title=" ">
<path fill="none" stroke="#9a32cd" stroke-dasharray="5,2" d="M778.09,-104.35C818.59,-118.38 884.8,-141.89 941,-164.5 960.25,-172.24 981.84,-181.86 997.24,-188.89"/>
<polygon fill="#9a32cd" stroke="#9a32cd" points="779.21,-101.03 768.62,-101.07 776.93,-107.65 779.21,-101.03"/>
</a>
</g>
<text text-anchor="middle" x="895.5" y="-167.5" font-family="Helvetica,sans-Serif" font-size="10.00" fill="grey"> parent_handler_</text>
</g>
<!-- Node14 -->
<g id="Node000014" class="node">
<title>Node14</title>
<g id="a_Node000014"><a xlink:href="classPca9685GpioPin.html" target="_top" xlink:title="BaseGpio adapter for a single PCA9685 channel used as a digital output.">
<polygon fill="white" stroke="#666666" points="1066.5,-35 971.5,-35 971.5,-16 1066.5,-16 1066.5,-35"/>
<text text-anchor="middle" x="1019" y="-23" font-family="Helvetica,sans-Serif" font-size="10.00">Pca9685GpioPin</text>
</a>
</g>
</g>
<!-- Node1&#45;&gt;Node14 -->
<g id="edge16_Node000014_Node000001" class="edge">
<title>Node1&#45;&gt;Node14</title>
<g id="a_edge16_Node000014_Node000001"><a xlink:title=" ">
<path fill="none" stroke="#9a32cd" stroke-dasharray="5,2" d="M766.63,-77.31C788.32,-66.22 820.29,-51.4 850,-43.5 890.11,-32.83 937.21,-28.46 971.31,-26.68"/>
<polygon fill="#9a32cd" stroke="#9a32cd" points="764.97,-74.23 757.72,-81.96 768.21,-80.44 764.97,-74.23"/>
</a>
</g>
<text text-anchor="middle" x="895.5" y="-46.5" font-family="Helvetica,sans-Serif" font-size="10.00" fill="grey"> parent_handler_</text>
</g>
<!-- Node2 -->
<g id="Node000002" class="node">
<title>Node2</title>
<g id="a_Node000002"><a xlink:title=" ">
<polygon fill="white" stroke="#666666" points="527,-133.5 354,-133.5 354,-103.5 527,-103.5 527,-133.5"/>
<text text-anchor="start" x="362" y="-121.5" font-family="Helvetica,sans-Serif" font-size="10.00">std::unique_ptr&lt; HalI2cPca9685</text>
<text text-anchor="middle" x="440.5" y="-110.5" font-family="Helvetica,sans-Serif" font-size="10.00">Comm &gt;</text>
</a>
</g>
</g>
<!-- Node2&#45;&gt;Node1 -->
<g id="edge1_Node000001_Node000002" class="edge">
<title>Node2&#45;&gt;Node1</title>
<g id="a_edge1_Node000001_Node000002"><a xlink:title=" ">
<path fill="none" stroke="#9a32cd" stroke-dasharray="5,2" d="M537.18,-109.8C588.74,-105.11 650.07,-99.54 691.37,-95.78"/>
<polygon fill="#9a32cd" stroke="#9a32cd" points="536.65,-106.34 527.01,-110.73 537.28,-113.31 536.65,-106.34"/>
</a>
</g>
<text text-anchor="middle" x="587" y="-112.5" font-family="Helvetica,sans-Serif" font-size="10.00" fill="grey"> i2c_adapter_</text>
</g>
<!-- Node3 -->
<g id="Node000003" class="node">
<title>Node3</title>
<g id="a_Node000003"><a xlink:href="classHalI2cPca9685Comm.html" target="_top" xlink:title="Concrete I2C communication adapter for PCA9685 using BaseI2c.">
<polygon fill="white" stroke="#666666" points="301,-128 180,-128 180,-109 301,-109 301,-128"/>
<text text-anchor="middle" x="240.5" y="-116" font-family="Helvetica,sans-Serif" font-size="10.00">HalI2cPca9685Comm</text>
</a>
</g>
</g>
<!-- Node3&#45;&gt;Node2 -->
<g id="edge2_Node000002_Node000003" class="edge">
<title>Node3&#45;&gt;Node2</title>
<g id="a_edge2_Node000002_Node000003"><a xlink:title=" ">
<path fill="none" stroke="#9a32cd" stroke-dasharray="5,2" d="M311.5,-118.5C325.25,-118.5 339.81,-118.5 353.99,-118.5"/>
<polygon fill="#9a32cd" stroke="#9a32cd" points="311.18,-115 301.18,-118.5 311.18,-122 311.18,-115"/>
</a>
</g>
<text text-anchor="middle" x="327.5" y="-121.5" font-family="Helvetica,sans-Serif" font-size="10.00" fill="grey"> ptr</text>
</g>
<!-- Node4 -->
<g id="Node000004" class="node">
<title>Node4</title>
<g id="a_Node000004"><a xlink:title=" ">
<polygon fill="white" stroke="#666666" points="143,-133.5 0,-133.5 0,-103.5 143,-103.5 143,-133.5"/>
<text text-anchor="start" x="8" y="-121.5" font-family="Helvetica,sans-Serif" font-size="10.00">pca9685::I2cInterface</text>
<text text-anchor="middle" x="71.5" y="-110.5" font-family="Helvetica,sans-Serif" font-size="10.00">&lt; HalI2cPca9685Comm &gt;</text>
</a>
</g>
</g>
<!-- Node4&#45;&gt;Node3 -->
<g id="edge3_Node000003_Node000004" class="edge">
<title>Node4&#45;&gt;Node3</title>
<g id="a_edge3_Node000003_Node000004"><a xlink:title=" ">
<path fill="none" stroke="#63b8ff" d="M153.37,-118.5C162.31,-118.5 171.29,-118.5 179.9,-118.5"/>
<polygon fill="#63b8ff" stroke="#63b8ff" points="153.32,-115 143.32,-118.5 153.32,-122 153.32,-115"/>
</a>
</g>
</g>
<!-- Node5 -->
<g id="Node000005" class="node">
<title>Node5</title>
<g id="a_Node000005"><a xlink:title=" ">
<polygon fill="white" stroke="#666666" points="511.5,-85.5 369.5,-85.5 369.5,-55.5 511.5,-55.5 511.5,-85.5"/>
<text text-anchor="start" x="377.5" y="-73.5" font-family="Helvetica,sans-Serif" font-size="10.00">std::unique_ptr&lt; Pca9685</text>
<text text-anchor="middle" x="440.5" y="-62.5" font-family="Helvetica,sans-Serif" font-size="10.00">Driver &gt;</text>
</a>
</g>
</g>
<!-- Node5&#45;&gt;Node1 -->
<g id="edge4_Node000001_Node000005" class="edge">
<title>Node5&#45;&gt;Node1</title>
<g id="a_edge4_Node000001_Node000005"><a xlink:title=" ">
<path fill="none" stroke="#9a32cd" stroke-dasharray="5,2" d="M522.02,-72.6C555.19,-73.81 593.98,-75.68 629,-78.5 649.51,-80.15 672.11,-82.71 691.42,-85.12"/>
<polygon fill="#9a32cd" stroke="#9a32cd" points="522.03,-69.1 511.92,-72.25 521.79,-76.1 522.03,-69.1"/>
</a>
</g>
<text text-anchor="middle" x="587" y="-81.5" font-family="Helvetica,sans-Serif" font-size="10.00" fill="grey"> pca9685_driver_</text>
</g>
<!-- Node6 -->
<g id="Node000006" class="node">
<title>Node6</title>
<g id="a_Node000006"><a xlink:title=" ">
<polygon fill="white" stroke="#666666" points="1330,-145.5 1188,-145.5 1188,-115.5 1330,-115.5 1330,-145.5"/>
<text text-anchor="start" x="1196" y="-133.5" font-family="Helvetica,sans-Serif" font-size="10.00">std::shared_ptr&lt; Pca9685</text>
<text text-anchor="middle" x="1259" y="-122.5" font-family="Helvetica,sans-Serif" font-size="10.00">PwmAdapter &gt;</text>
</a>
</g>
</g>
<!-- Node6&#45;&gt;Node1 -->
<g id="edge5_Node000001_Node000006" class="edge">
<title>Node6&#45;&gt;Node1</title>
<g id="a_edge5_Node000001_Node000006"><a xlink:title=" ">
<path fill="none" stroke="#9a32cd" stroke-dasharray="5,2" d="M1177.84,-124.46C1068.61,-116.23 876.47,-101.75 787.8,-95.06"/>
<polygon fill="#9a32cd" stroke="#9a32cd" points="1177.58,-127.95 1187.82,-125.21 1178.11,-120.97 1177.58,-127.95"/>
</a>
</g>
<text text-anchor="middle" x="1019" y="-120.5" font-family="Helvetica,sans-Serif" font-size="10.00" fill="grey"> pwm_adapter_</text>
</g>
<!-- Node7&#45;&gt;Node6 -->
<g id="edge6_Node000006_Node000007" class="edge">
<title>Node7&#45;&gt;Node6</title>
<g id="a_edge6_Node000006_Node000007"><a xlink:title=" ">
<path fill="none" stroke="#9a32cd" stroke-dasharray="5,2" d="M1063.04,-186.2C1102.95,-174.8 1162.43,-157.81 1205.19,-145.59"/>
<polygon fill="#9a32cd" stroke="#9a32cd" points="1062,-182.86 1053.34,-188.97 1063.92,-189.59 1062,-182.86"/>
</a>
</g>
<text text-anchor="middle" x="1133.5" y="-177.5" font-family="Helvetica,sans-Serif" font-size="10.00" fill="grey"> ptr</text>
</g>
<!-- Node8 -->
<g id="Node000008" class="node">
<title>Node8</title>
<g id="a_Node000008"><a xlink:title=" ">
<polygon fill="white" stroke="#666666" points="772,-316 707,-316 707,-297 772,-297 772,-316"/>
<text text-anchor="middle" x="739.5" y="-304" font-family="Helvetica,sans-Serif" font-size="10.00">BasePwm</text>
</a>
</g>
</g>
<!-- Node8&#45;&gt;Node7 -->
<g id="edge7_Node000007_Node000008" class="edge">
<title>Node8&#45;&gt;Node7</title>
<g id="a_edge7_Node000007_Node000008"><a xlink:title=" ">
<path fill="none" stroke="#63b8ff" d="M782.32,-301.75C824.22,-295.77 889.67,-283.01 941,-257.5 967.54,-244.31 993.98,-221.37 1007.92,-208.32"/>
<polygon fill="#63b8ff" stroke="#63b8ff" points="781.64,-298.31 772.2,-303.13 782.58,-305.25 781.64,-298.31"/>
</a>
</g>
</g>
<!-- Node9 -->
<g id="Node000009" class="node">
<title>Node9</title>
<g id="a_Node000009"><a xlink:title=" ">
<polygon fill="white" stroke="#666666" points="791,-278.5 688,-278.5 688,-248.5 791,-248.5 791,-278.5"/>
<text text-anchor="start" x="696" y="-266.5" font-family="Helvetica,sans-Serif" font-size="10.00">std::array&lt; float,</text>
<text text-anchor="middle" x="739.5" y="-255.5" font-family="Helvetica,sans-Serif" font-size="10.00"> kMaxChannels &gt;</text>
</a>
</g>
</g>
<!-- Node9&#45;&gt;Node7 -->
<g id="edge9_Node000007_Node000009" class="edge">
<title>Node9&#45;&gt;Node7</title>
<g id="a_edge9_Node000007_Node000009"><a xlink:title=" ">
<path fill="none" stroke="#9a32cd" stroke-dasharray="5,2" d="M801,-253.34C841.01,-246.15 894.46,-235.65 941,-223.5 957.86,-219.1 976.46,-213.09 991.15,-208.07"/>
<polygon fill="#9a32cd" stroke="#9a32cd" points="800.37,-249.89 791.14,-255.09 801.59,-256.79 800.37,-249.89"/>
</a>
</g>
<text text-anchor="middle" x="895.5" y="-245.5" font-family="Helvetica,sans-Serif" font-size="10.00" fill="grey"> duty_cache_</text>
</g>
<!-- Node10 -->
<g id="Node000010" class="node">
<title>Node10</title>
<g id="a_Node000010"><a xlink:title=" ">
<polygon fill="white" stroke="#666666" points="797,-230.5 682,-230.5 682,-200.5 797,-200.5 797,-230.5"/>
<text text-anchor="start" x="690" y="-218.5" font-family="Helvetica,sans-Serif" font-size="10.00">std::array&lt; uint16</text>
<text text-anchor="middle" x="739.5" y="-207.5" font-family="Helvetica,sans-Serif" font-size="10.00">_t, kMaxChannels &gt;</text>
</a>
</g>
</g>
<!-- Node10&#45;&gt;Node7 -->
<g id="edge10_Node000007_Node000010" class="edge">
<title>Node10&#45;&gt;Node7</title>
<g id="a_edge10_Node000007_Node000010"><a xlink:title=" ">
<path fill="none" stroke="#9a32cd" stroke-dasharray="5,2" d="M807.54,-211.39C853.71,-208.56 914.49,-204.84 958.86,-202.12"/>
<polygon fill="#9a32cd" stroke="#9a32cd" points="807.09,-207.91 797.33,-212.02 807.52,-214.9 807.09,-207.91"/>
</a>
</g>
<text text-anchor="middle" x="895.5" y="-211.5" font-family="Helvetica,sans-Serif" font-size="10.00" fill="grey"> on_time_cache_</text>
</g>
<!-- Node11 -->
<g id="Node000011" class="node">
<title>Node11</title>
<g id="a_Node000011"><a xlink:title=" ">
<polygon fill="white" stroke="#666666" points="832,-182 647,-182 647,-163 832,-163 832,-182"/>
<text text-anchor="middle" x="739.5" y="-170" font-family="Helvetica,sans-Serif" font-size="10.00">std::array&lt; bool, kMaxChannels &gt;</text>
</a>
</g>
</g>
<!-- Node11&#45;&gt;Node7 -->
<g id="edge11_Node000007_Node000011" class="edge">
<title>Node11&#45;&gt;Node7</title>
<g id="a_edge11_Node000007_Node000011"><a xlink:title=" ">
<path fill="none" stroke="#9a32cd" stroke-dasharray="5,2" d="M842.32,-179.64C873.97,-182.13 908.96,-185.14 941,-188.5 946.76,-189.1 952.77,-189.79 958.76,-190.51"/>
<polygon fill="#9a32cd" stroke="#9a32cd" points="842.41,-176.14 832.17,-178.86 841.87,-183.12 842.41,-176.14"/>
</a>
</g>
<text text-anchor="middle" x="895.5" y="-191.5" font-family="Helvetica,sans-Serif" font-size="10.00" fill="grey"> channel_enabled_</text>
</g>
<!-- Node12 -->
<g id="Node000012" class="node">
<title>Node12</title>
<g id="a_Node000012"><a xlink:title=" ">
<polygon fill="white" stroke="#666666" points="1552,-68 1415,-68 1415,-27 1552,-27 1552,-68"/>
<text text-anchor="start" x="1423" y="-56" font-family="Helvetica,sans-Serif" font-size="10.00">std::array&lt; std::shared</text>
<text text-anchor="start" x="1423" y="-45" font-family="Helvetica,sans-Serif" font-size="10.00">_ptr&lt; Pca9685GpioPin &gt;</text>
<text text-anchor="middle" x="1483.5" y="-34" font-family="Helvetica,sans-Serif" font-size="10.00">, 16 &gt;</text>
</a>
</g>
</g>
<!-- Node12&#45;&gt;Node1 -->
<g id="edge12_Node000001_Node000012" class="edge">
<title>Node12&#45;&gt;Node1</title>
<g id="a_edge12_Node000001_Node000012"><a xlink:title=" ">
<path fill="none" stroke="#9a32cd" stroke-dasharray="5,2" d="M1404.71,-53C1402.11,-53.17 1399.53,-53.34 1397,-53.5 1168.85,-68.11 895.93,-83.11 787.88,-88.96"/>
<polygon fill="#9a32cd" stroke="#9a32cd" points="1405.09,-56.48 1414.83,-52.33 1404.62,-49.5 1405.09,-56.48"/>
</a>
</g>
<text text-anchor="middle" x="1133.5" y="-75.5" font-family="Helvetica,sans-Serif" font-size="10.00" fill="grey"> gpio_registry_</text>
</g>
<!-- Node13 -->
<g id="Node000013" class="node">
<title>Node13</title>
<g id="a_Node000013"><a xlink:title=" ">
<polygon fill="white" stroke="#666666" points="1330,-40.5 1188,-40.5 1188,-10.5 1330,-10.5 1330,-40.5"/>
<text text-anchor="start" x="1196" y="-28.5" font-family="Helvetica,sans-Serif" font-size="10.00">std::shared_ptr&lt; Pca9685</text>
<text text-anchor="middle" x="1259" y="-17.5" font-family="Helvetica,sans-Serif" font-size="10.00">GpioPin &gt;</text>
</a>
</g>
</g>
<!-- Node13&#45;&gt;Node12 -->
<g id="edge13_Node000012_Node000013" class="edge">
<title>Node13&#45;&gt;Node12</title>
<g id="a_edge13_Node000012_Node000013"><a xlink:title=" ">
<path fill="none" stroke="#9a32cd" stroke-dasharray="5,2" d="M1340.06,-33.42C1364.49,-35.83 1391.11,-38.46 1414.66,-40.79"/>
<polygon fill="#9a32cd" stroke="#9a32cd" points="1340.39,-29.93 1330.09,-32.43 1339.7,-36.9 1340.39,-29.93"/>
</a>
</g>
<text text-anchor="middle" x="1372.5" y="-41.5" font-family="Helvetica,sans-Serif" font-size="10.00" fill="grey"> elements</text>
</g>
<!-- Node14&#45;&gt;Node13 -->
<g id="edge14_Node000013_Node000014" class="edge">
<title>Node14&#45;&gt;Node13</title>
<g id="a_edge14_Node000013_Node000014"><a xlink:title=" ">
<path fill="none" stroke="#9a32cd" stroke-dasharray="5,2" d="M1076.77,-25.5C1110.1,-25.5 1152.5,-25.5 1187.9,-25.5"/>
<polygon fill="#9a32cd" stroke="#9a32cd" points="1076.74,-22 1066.74,-25.5 1076.74,-29 1076.74,-22"/>
</a>
</g>
<text text-anchor="middle" x="1133.5" y="-28.5" font-family="Helvetica,sans-Serif" font-size="10.00" fill="grey"> ptr</text>
</g>
<!-- Node15 -->
<g id="Node000015" class="node">
<title>Node15</title>
<g id="a_Node000015"><a xlink:title=" ">
<polygon fill="white" stroke="#666666" points="771,-19 708,-19 708,0 771,0 771,-19"/>
<text text-anchor="middle" x="739.5" y="-7" font-family="Helvetica,sans-Serif" font-size="10.00">BaseGpio</text>
</a>
</g>
</g>
<!-- Node15&#45;&gt;Node14 -->
<g id="edge15_Node000014_Node000015" class="edge">
<title>Node15&#45;&gt;Node14</title>
<g id="a_edge15_Node000014_Node000015"><a xlink:title=" ">
<path fill="none" stroke="#63b8ff" d="M781.51,-11.86C832.21,-14.79 918.28,-19.75 971.42,-22.81"/>
<polygon fill="#63b8ff" stroke="#63b8ff" points="781.44,-8.35 771.26,-11.27 781.04,-15.34 781.44,-8.35"/>
</a>
</g>
</g>
</g>
</svg>
