<?xml version="1.0" encoding="UTF-8" standalone="no"?>
<!DOCTYPE svg PUBLIC "-//W3C//DTD SVG 1.1//EN"
 "http://www.w3.org/Graphics/SVG/1.1/DTD/svg11.dtd">
<!-- Generated by graphviz version 2.43.0 (0)
 -->
<!-- Title: Max22200Handler::GetDriver Pages: 1 -->
<svg width="901pt" height="138pt"
 viewBox="0.00 0.00 901.00 138.00" xmlns="http://www.w3.org/2000/svg" xmlns:xlink="http://www.w3.org/1999/xlink">
<g id="graph0" class="graph" transform="scale(1 1) rotate(0) translate(4 134)">
<title>Max22200Handler::GetDriver</title>
<!-- Node1 -->
<g id="Node000001" class="node">
<title>Node1</title>
<g id="a_Node000001"><a xlink:title="Get the underlying driver for advanced operations.">
<polygon fill="#999999" stroke="#666666" points="159,-83 0,-83 0,-64 159,-64 159,-83"/>
<text text-anchor="middle" x="79.5" y="-71" font-family="Helvetica,sans-Serif" font-size="10.00">Max22200Handler::GetDriver</text>
</a>
</g>
</g>
<!-- Node2 -->
<g id="Node000002" class="node">
<title>Node2</title>
<g id="a_Node000002"><a xlink:href="classMax22200Handler.html#aa00edacb247660349767fa4521121104" target="_top" xlink:title=" ">
<polygon fill="white" stroke="#666666" points="388,-88.5 195,-88.5 195,-58.5 388,-58.5 388,-88.5"/>
<text text-anchor="start" x="203" y="-76.5" font-family="Helvetica,sans-Serif" font-size="10.00">Max22200Handler::EnsureInitialized</text>
<text text-anchor="middle" x="291.5" y="-65.5" font-family="Helvetica,sans-Serif" font-size="10.00">Locked</text>
</a>
</g>
</g>
<!-- Node1&#45;&gt;Node2 -->
<g id="edge1_Node000001_Node000002" class="edge">
<title>Node1&#45;&gt;Node2</title>
<g id="a_edge1_Node000001_Node000002"><a xlink:title=" ">
<path fill="none" stroke="#63b8ff" d="M159.29,-73.5C167.66,-73.5 176.26,-73.5 184.87,-73.5"/>
<polygon fill="#63b8ff" stroke="#63b8ff" points="184.96,-77 194.96,-73.5 184.96,-70 184.96,-77"/>
</a>
</g>
</g>
<!-- Node3 -->
<g id="Node000003" class="node">
<title>Node3</title>
<g id="a_Node000003"><a xlink:href="classLogger.html#adce17848a5844e053bfd314863dc1404" target="_top" xlink:title="Log error message.">
<polygon fill="white" stroke="#666666" points="710.5,-130 631.5,-130 631.5,-111 710.5,-111 710.5,-130"/>
<text text-anchor="middle" x="671" y="-118" font-family="Helvetica,sans-Serif" font-size="10.00">Logger::Error</text>
</a>
</g>
</g>
<!-- Node2&#45;&gt;Node3 -->
<g id="edge2_Node000002_Node000003" class="edge">
<title>Node2&#45;&gt;Node3</title>
<g id="a_edge2_Node000002_Node000003"><a xlink:title=" ">
<path fill="none" stroke="#63b8ff" d="M388.33,-87.69C400.34,-89.37 412.45,-91.01 424,-92.5 492.26,-101.31 571.36,-110.06 621.04,-115.37"/>
<polygon fill="#63b8ff" stroke="#63b8ff" points="620.87,-118.87 631.18,-116.45 621.61,-111.91 620.87,-118.87"/>
</a>
</g>
</g>
<!-- Node6 -->
<g id="Node000006" class="node">
<title>Node6</title>
<g id="a_Node000006"><a xlink:href="classLogger.html#a5789d11f8f1356e2192c0023a089cbc4" target="_top" xlink:title="Get singleton instance.">
<polygon fill="white" stroke="#666666" points="728,-19 614,-19 614,0 728,0 728,-19"/>
<text text-anchor="middle" x="671" y="-7" font-family="Helvetica,sans-Serif" font-size="10.00">Logger::GetInstance</text>
</a>
</g>
</g>
<!-- Node2&#45;&gt;Node6 -->
<g id="edge5_Node000002_Node000006" class="edge">
<title>Node2&#45;&gt;Node6</title>
<g id="a_edge5_Node000002_Node000006"><a xlink:title=" ">
<path fill="none" stroke="#63b8ff" d="M381.01,-58.49C449.23,-46.93 542.08,-31.19 603.92,-20.7"/>
<polygon fill="#63b8ff" stroke="#63b8ff" points="604.68,-24.12 613.95,-19 603.51,-17.22 604.68,-24.12"/>
</a>
</g>
</g>
<!-- Node7 -->
<g id="Node000007" class="node">
<title>Node7</title>
<g id="a_Node000007"><a xlink:href="classMax22200Handler.html#ad6c72b45a96c36cd1b450f5e330fad25" target="_top" xlink:title="Initialize driver (ENABLE HIGH, read/clear STATUS, set ACTIVE).">
<polygon fill="white" stroke="#666666" points="578,-83 424,-83 424,-64 578,-64 578,-83"/>
<text text-anchor="middle" x="501" y="-71" font-family="Helvetica,sans-Serif" font-size="10.00">Max22200Handler::Initialize</text>
</a>
</g>
</g>
<!-- Node2&#45;&gt;Node7 -->
<g id="edge6_Node000002_Node000007" class="edge">
<title>Node2&#45;&gt;Node7</title>
<g id="a_edge6_Node000002_Node000007"><a xlink:title=" ">
<path fill="none" stroke="#63b8ff" d="M388.05,-73.5C396.6,-73.5 405.22,-73.5 413.68,-73.5"/>
<polygon fill="#63b8ff" stroke="#63b8ff" points="413.9,-77 423.9,-73.5 413.9,-70 413.9,-77"/>
</a>
</g>
</g>
<!-- Node4 -->
<g id="Node000004" class="node">
<title>Node4</title>
<g id="a_Node000004"><a xlink:href="classLogger.html#af9e84e0ff6bd538e4f9ed8dcebc3e2f0" target="_top" xlink:title="Check if log level is enabled for tag.">
<polygon fill="white" stroke="#666666" points="893,-111 764,-111 764,-92 893,-92 893,-111"/>
<text text-anchor="middle" x="828.5" y="-99" font-family="Helvetica,sans-Serif" font-size="10.00">Logger::IsLevelEnabled</text>
</a>
</g>
</g>
<!-- Node3&#45;&gt;Node4 -->
<g id="edge3_Node000003_Node000004" class="edge">
<title>Node3&#45;&gt;Node4</title>
<g id="a_edge3_Node000003_Node000004"><a xlink:title=" ">
<path fill="none" stroke="#63b8ff" d="M710.84,-115.75C723.85,-114.16 738.82,-112.34 753.6,-110.53"/>
<polygon fill="#63b8ff" stroke="#63b8ff" points="754.28,-113.97 763.78,-109.29 753.43,-107.02 754.28,-113.97"/>
</a>
</g>
</g>
<!-- Node5 -->
<g id="Node000005" class="node">
<title>Node5</title>
<g id="a_Node000005"><a xlink:href="classLogger.html#a6adb205db597526fb91ad20067400394" target="_top" xlink:title="Internal logging method.">
<polygon fill="white" stroke="#666666" points="883.5,-74 773.5,-74 773.5,-55 883.5,-55 883.5,-74"/>
<text text-anchor="middle" x="828.5" y="-62" font-family="Helvetica,sans-Serif" font-size="10.00">Logger::LogInternal</text>
</a>
</g>
</g>
<!-- Node3&#45;&gt;Node5 -->
<g id="edge4_Node000003_Node000005" class="edge">
<title>Node3&#45;&gt;Node5</title>
<g id="a_edge4_Node000003_Node000005"><a xlink:title=" ">
<path fill="none" stroke="#63b8ff" d="M704.92,-110.98C712.59,-108.47 720.66,-105.59 728,-102.5 744.68,-95.48 747.25,-90.35 764,-83.5 769.53,-81.24 775.42,-79.12 781.31,-77.16"/>
<polygon fill="#63b8ff" stroke="#63b8ff" points="782.67,-80.41 791.14,-74.05 780.55,-73.73 782.67,-80.41"/>
</a>
</g>
</g>
<!-- Node7&#45;&gt;Node3 -->
<g id="edge7_Node000007_Node000003" class="edge">
<title>Node7&#45;&gt;Node3</title>
<g id="a_edge7_Node000007_Node000003"><a xlink:title=" ">
<path fill="none" stroke="#63b8ff" d="M536,-83.01C561.87,-90.25 597.7,-100.27 625.8,-108.13"/>
<polygon fill="#63b8ff" stroke="#63b8ff" points="625.19,-111.6 635.77,-110.92 627.08,-104.86 625.19,-111.6"/>
</a>
</g>
</g>
<!-- Node7&#45;&gt;Node6 -->
<g id="edge8_Node000007_Node000006" class="edge">
<title>Node7&#45;&gt;Node6</title>
<g id="a_edge8_Node000007_Node000006"><a xlink:title=" ">
<path fill="none" stroke="#63b8ff" d="M523.69,-64C546.11,-54.32 582.21,-39.12 614,-27.5 618.85,-25.73 623.97,-23.95 629.07,-22.25"/>
<polygon fill="#63b8ff" stroke="#63b8ff" points="630.34,-25.51 638.75,-19.06 628.16,-18.86 630.34,-25.51"/>
</a>
</g>
</g>
<!-- Node8 -->
<g id="Node000008" class="node">
<title>Node8</title>
<g id="a_Node000008"><a xlink:href="classLogger.html#a4681229c521795685fc14f6b55c82300" target="_top" xlink:title="Log info message.">
<polygon fill="white" stroke="#666666" points="708,-56 634,-56 634,-37 708,-37 708,-56"/>
<text text-anchor="middle" x="671" y="-44" font-family="Helvetica,sans-Serif" font-size="10.00">Logger::Info</text>
</a>
</g>
</g>
<!-- Node7&#45;&gt;Node8 -->
<g id="edge9_Node000007_Node000008" class="edge">
<title>Node7&#45;&gt;Node8</title>
<g id="a_edge9_Node000007_Node000008"><a xlink:title=" ">
<path fill="none" stroke="#63b8ff" d="M561.23,-63.98C581.73,-60.69 604.39,-57.04 623.7,-53.94"/>
<polygon fill="#63b8ff" stroke="#63b8ff" points="624.44,-57.37 633.75,-52.33 623.32,-50.46 624.44,-57.37"/>
</a>
</g>
</g>
<!-- Node9 -->
<g id="Node000009" class="node">
<title>Node9</title>
<g id="a_Node000009"><a xlink:href="classLogger.html#aaa95ffa14d07a965d4a85bdec82cba26" target="_top" xlink:title="Log warning message.">
<polygon fill="white" stroke="#666666" points="711,-93 631,-93 631,-74 711,-74 711,-93"/>
<text text-anchor="middle" x="671" y="-81" font-family="Helvetica,sans-Serif" font-size="10.00">Logger::Warn</text>
</a>
</g>
</g>
<!-- Node7&#45;&gt;Node9 -->
<g id="edge12_Node000007_Node000009" class="edge">
<title>Node7&#45;&gt;Node9</title>
<g id="a_edge12_Node000007_Node000009"><a xlink:title=" ">
<path fill="none" stroke="#63b8ff" d="M578.14,-78.03C592.52,-78.89 607.22,-79.76 620.52,-80.55"/>
<polygon fill="#63b8ff" stroke="#63b8ff" points="620.66,-84.07 630.85,-81.17 621.08,-77.08 620.66,-84.07"/>
</a>
</g>
</g>
<!-- Node8&#45;&gt;Node4 -->
<g id="edge10_Node000008_Node000004" class="edge">
<title>Node8&#45;&gt;Node4</title>
<g id="a_edge10_Node000008_Node000004"><a xlink:title=" ">
<path fill="none" stroke="#63b8ff" d="M702.51,-56.01C710.86,-58.84 719.85,-62.1 728,-65.5 744.51,-72.39 747.32,-77.03 764,-83.5 769.07,-85.47 774.45,-87.33 779.85,-89.05"/>
<polygon fill="#63b8ff" stroke="#63b8ff" points="778.92,-92.42 789.51,-91.99 780.96,-85.73 778.92,-92.42"/>
</a>
</g>
</g>
<!-- Node8&#45;&gt;Node5 -->
<g id="edge11_Node000008_Node000005" class="edge">
<title>Node8&#45;&gt;Node5</title>
<g id="a_edge11_Node000008_Node000005"><a xlink:title=" ">
<path fill="none" stroke="#63b8ff" d="M708.07,-50.67C724.49,-52.58 744.44,-54.89 763.3,-57.07"/>
<polygon fill="#63b8ff" stroke="#63b8ff" points="763,-60.56 773.33,-58.23 763.8,-53.6 763,-60.56"/>
</a>
</g>
</g>
<!-- Node9&#45;&gt;Node4 -->
<g id="edge13_Node000009_Node000004" class="edge">
<title>Node9&#45;&gt;Node4</title>
<g id="a_edge13_Node000009_Node000004"><a xlink:title=" ">
<path fill="none" stroke="#63b8ff" d="M711.24,-88.04C724.18,-89.54 739.02,-91.26 753.68,-92.95"/>
<polygon fill="#63b8ff" stroke="#63b8ff" points="753.43,-96.45 763.77,-94.12 754.24,-89.5 753.43,-96.45"/>
</a>
</g>
</g>
<!-- Node9&#45;&gt;Node5 -->
<g id="edge14_Node000009_Node000005" class="edge">
<title>Node9&#45;&gt;Node5</title>
<g id="a_edge14_Node000009_Node000005"><a xlink:title=" ">
<path fill="none" stroke="#63b8ff" d="M711.24,-78.71C726.96,-76.78 745.49,-74.52 763.08,-72.37"/>
<polygon fill="#63b8ff" stroke="#63b8ff" points="763.8,-75.81 773.3,-71.12 762.95,-68.86 763.8,-75.81"/>
</a>
</g>
</g>
</g>
</svg>
