<?xml version="1.0" encoding="UTF-8" standalone="no"?>
<!DOCTYPE svg PUBLIC "-//W3C//DTD SVG 1.1//EN"
 "http://www.w3.org/Graphics/SVG/1.1/DTD/svg11.dtd">
<!-- Generated by graphviz version 2.43.0 (0)
 -->
<!-- Title: Ws2812Handler::Step Pages: 1 -->
<svg width="840pt" height="138pt"
 viewBox="0.00 0.00 840.00 138.00" xmlns="http://www.w3.org/2000/svg" xmlns:xlink="http://www.w3.org/1999/xlink">
<g id="graph0" class="graph" transform="scale(1 1) rotate(0) translate(4 134)">
<title>Ws2812Handler::Step</title>
<!-- Node1 -->
<g id="Node000001" class="node">
<title>Node1</title>
<g id="a_Node000001"><a xlink:title="Advance animation by one step.">
<polygon fill="#999999" stroke="#666666" points="122,-74 0,-74 0,-55 122,-55 122,-74"/>
<text text-anchor="middle" x="61" y="-62" font-family="Helvetica,sans-Serif" font-size="10.00">Ws2812Handler::Step</text>
</a>
</g>
</g>
<!-- Node2 -->
<g id="Node000002" class="node">
<title>Node2</title>
<g id="a_Node000002"><a xlink:href="classWs2812Handler.html#afe5f397b22e9b92cf2fb2cebae6e123d" target="_top" xlink:title=" ">
<polygon fill="white" stroke="#666666" points="339,-79.5 158,-79.5 158,-49.5 339,-49.5 339,-79.5"/>
<text text-anchor="start" x="166" y="-67.5" font-family="Helvetica,sans-Serif" font-size="10.00">Ws2812Handler::EnsureInitialized</text>
<text text-anchor="middle" x="248.5" y="-56.5" font-family="Helvetica,sans-Serif" font-size="10.00">Locked</text>
</a>
</g>
</g>
<!-- Node1&#45;&gt;Node2 -->
<g id="edge1_Node000001_Node000002" class="edge">
<title>Node1&#45;&gt;Node2</title>
<g id="a_edge1_Node000001_Node000002"><a xlink:title=" ">
<path fill="none" stroke="#63b8ff" d="M122.23,-64.5C130.44,-64.5 139.04,-64.5 147.72,-64.5"/>
<polygon fill="#63b8ff" stroke="#63b8ff" points="147.94,-68 157.94,-64.5 147.94,-61 147.94,-68"/>
</a>
</g>
</g>
<!-- Node3 -->
<g id="Node000003" class="node">
<title>Node3</title>
<g id="a_Node000003"><a xlink:href="classWs2812Handler.html#a172ae173d1e2bd93c9808452aad6e4cd" target="_top" xlink:title="Initialize the RMT channel and LED strip.">
<polygon fill="white" stroke="#666666" points="517,-74 375,-74 375,-55 517,-55 517,-74"/>
<text text-anchor="middle" x="446" y="-62" font-family="Helvetica,sans-Serif" font-size="10.00">Ws2812Handler::Initialize</text>
</a>
</g>
</g>
<!-- Node2&#45;&gt;Node3 -->
<g id="edge2_Node000002_Node000003" class="edge">
<title>Node2&#45;&gt;Node3</title>
<g id="a_edge2_Node000002_Node000003"><a xlink:title=" ">
<path fill="none" stroke="#63b8ff" d="M339.24,-64.5C347.73,-64.5 356.3,-64.5 364.7,-64.5"/>
<polygon fill="#63b8ff" stroke="#63b8ff" points="364.84,-68 374.84,-64.5 364.84,-61 364.84,-68"/>
</a>
</g>
</g>
<!-- Node4 -->
<g id="Node000004" class="node">
<title>Node4</title>
<g id="a_Node000004"><a xlink:href="classLogger.html#adce17848a5844e053bfd314863dc1404" target="_top" xlink:title="Log error message.">
<polygon fill="white" stroke="#666666" points="649.5,-130 570.5,-130 570.5,-111 649.5,-111 649.5,-130"/>
<text text-anchor="middle" x="610" y="-118" font-family="Helvetica,sans-Serif" font-size="10.00">Logger::Error</text>
</a>
</g>
</g>
<!-- Node3&#45;&gt;Node4 -->
<g id="edge3_Node000003_Node000004" class="edge">
<title>Node3&#45;&gt;Node4</title>
<g id="a_edge3_Node000003_Node000004"><a xlink:title=" ">
<path fill="none" stroke="#63b8ff" d="M473.05,-74.11C494.46,-81.94 525.61,-93.19 553,-102.5 558.2,-104.27 563.68,-106.08 569.1,-107.85"/>
<polygon fill="#63b8ff" stroke="#63b8ff" points="568.12,-111.22 578.71,-110.97 570.28,-104.56 568.12,-111.22"/>
</a>
</g>
</g>
<!-- Node7 -->
<g id="Node000007" class="node">
<title>Node7</title>
<g id="a_Node000007"><a xlink:href="classLogger.html#a5789d11f8f1356e2192c0023a089cbc4" target="_top" xlink:title="Get singleton instance.">
<polygon fill="white" stroke="#666666" points="667,-19 553,-19 553,0 667,0 667,-19"/>
<text text-anchor="middle" x="610" y="-7" font-family="Helvetica,sans-Serif" font-size="10.00">Logger::GetInstance</text>
</a>
</g>
</g>
<!-- Node3&#45;&gt;Node7 -->
<g id="edge6_Node000003_Node000007" class="edge">
<title>Node3&#45;&gt;Node7</title>
<g id="a_edge6_Node000003_Node000007"><a xlink:title=" ">
<path fill="none" stroke="#63b8ff" d="M473.95,-54.89C495.33,-47.31 526.02,-36.54 553,-27.5 558.2,-25.76 563.69,-23.95 569.11,-22.19"/>
<polygon fill="#63b8ff" stroke="#63b8ff" points="570.29,-25.48 578.73,-19.08 568.14,-18.82 570.29,-25.48"/>
</a>
</g>
</g>
<!-- Node8 -->
<g id="Node000008" class="node">
<title>Node8</title>
<g id="a_Node000008"><a xlink:href="classLogger.html#a4681229c521795685fc14f6b55c82300" target="_top" xlink:title="Log info message.">
<polygon fill="white" stroke="#666666" points="647,-93 573,-93 573,-74 647,-74 647,-93"/>
<text text-anchor="middle" x="610" y="-81" font-family="Helvetica,sans-Serif" font-size="10.00">Logger::Info</text>
</a>
</g>
</g>
<!-- Node3&#45;&gt;Node8 -->
<g id="edge7_Node000003_Node000008" class="edge">
<title>Node3&#45;&gt;Node8</title>
<g id="a_edge7_Node000003_Node000008"><a xlink:title=" ">
<path fill="none" stroke="#63b8ff" d="M517.11,-72.72C532.53,-74.53 548.48,-76.4 562.67,-78.07"/>
<polygon fill="#63b8ff" stroke="#63b8ff" points="562.33,-81.55 572.67,-79.24 563.15,-74.6 562.33,-81.55"/>
</a>
</g>
</g>
<!-- Node9 -->
<g id="Node000009" class="node">
<title>Node9</title>
<g id="a_Node000009"><a xlink:href="classLogger.html#aaa95ffa14d07a965d4a85bdec82cba26" target="_top" xlink:title="Log warning message.">
<polygon fill="white" stroke="#666666" points="650,-56 570,-56 570,-37 650,-37 650,-56"/>
<text text-anchor="middle" x="610" y="-44" font-family="Helvetica,sans-Serif" font-size="10.00">Logger::Warn</text>
</a>
</g>
</g>
<!-- Node3&#45;&gt;Node9 -->
<g id="edge10_Node000003_Node000009" class="edge">
<title>Node3&#45;&gt;Node9</title>
<g id="a_edge10_Node000003_Node000009"><a xlink:title=" ">
<path fill="none" stroke="#63b8ff" d="M517.11,-56.71C531.42,-55.12 546.2,-53.48 559.6,-51.99"/>
<polygon fill="#63b8ff" stroke="#63b8ff" points="560,-55.47 569.55,-50.88 559.22,-48.51 560,-55.47"/>
</a>
</g>
</g>
<!-- Node5 -->
<g id="Node000005" class="node">
<title>Node5</title>
<g id="a_Node000005"><a xlink:href="classLogger.html#af9e84e0ff6bd538e4f9ed8dcebc3e2f0" target="_top" xlink:title="Check if log level is enabled for tag.">
<polygon fill="white" stroke="#666666" points="832,-111 703,-111 703,-92 832,-92 832,-111"/>
<text text-anchor="middle" x="767.5" y="-99" font-family="Helvetica,sans-Serif" font-size="10.00">Logger::IsLevelEnabled</text>
</a>
</g>
</g>
<!-- Node4&#45;&gt;Node5 -->
<g id="edge4_Node000004_Node000005" class="edge">
<title>Node4&#45;&gt;Node5</title>
<g id="a_edge4_Node000004_Node000005"><a xlink:title=" ">
<path fill="none" stroke="#63b8ff" d="M649.84,-115.75C662.85,-114.16 677.82,-112.34 692.6,-110.53"/>
<polygon fill="#63b8ff" stroke="#63b8ff" points="693.28,-113.97 702.78,-109.29 692.43,-107.02 693.28,-113.97"/>
</a>
</g>
</g>
<!-- Node6 -->
<g id="Node000006" class="node">
<title>Node6</title>
<g id="a_Node000006"><a xlink:href="classLogger.html#a6adb205db597526fb91ad20067400394" target="_top" xlink:title="Internal logging method.">
<polygon fill="white" stroke="#666666" points="822.5,-74 712.5,-74 712.5,-55 822.5,-55 822.5,-74"/>
<text text-anchor="middle" x="767.5" y="-62" font-family="Helvetica,sans-Serif" font-size="10.00">Logger::LogInternal</text>
</a>
</g>
</g>
<!-- Node4&#45;&gt;Node6 -->
<g id="edge5_Node000004_Node000006" class="edge">
<title>Node4&#45;&gt;Node6</title>
<g id="a_edge5_Node000004_Node000006"><a xlink:title=" ">
<path fill="none" stroke="#63b8ff" d="M643.92,-110.98C651.59,-108.47 659.66,-105.59 667,-102.5 683.68,-95.48 686.25,-90.35 703,-83.5 708.53,-81.24 714.42,-79.12 720.31,-77.16"/>
<polygon fill="#63b8ff" stroke="#63b8ff" points="721.67,-80.41 730.14,-74.05 719.55,-73.73 721.67,-80.41"/>
</a>
</g>
</g>
<!-- Node8&#45;&gt;Node5 -->
<g id="edge8_Node000008_Node000005" class="edge">
<title>Node8&#45;&gt;Node5</title>
<g id="a_edge8_Node000008_Node000005"><a xlink:title=" ">
<path fill="none" stroke="#63b8ff" d="M647.07,-87.67C660.68,-89.25 676.72,-91.11 692.55,-92.94"/>
<polygon fill="#63b8ff" stroke="#63b8ff" points="692.55,-96.46 702.89,-94.14 693.36,-89.51 692.55,-96.46"/>
</a>
</g>
</g>
<!-- Node8&#45;&gt;Node6 -->
<g id="edge9_Node000008_Node000006" class="edge">
<title>Node8&#45;&gt;Node6</title>
<g id="a_edge9_Node000008_Node000006"><a xlink:title=" ">
<path fill="none" stroke="#63b8ff" d="M647.07,-79.09C663.49,-77.09 683.44,-74.65 702.3,-72.34"/>
<polygon fill="#63b8ff" stroke="#63b8ff" points="702.83,-75.81 712.33,-71.12 701.98,-68.86 702.83,-75.81"/>
</a>
</g>
</g>
<!-- Node9&#45;&gt;Node5 -->
<g id="edge11_Node000009_Node000005" class="edge">
<title>Node9&#45;&gt;Node5</title>
<g id="a_edge11_Node000009_Node000005"><a xlink:title=" ">
<path fill="none" stroke="#63b8ff" d="M641.51,-56.01C649.86,-58.84 658.85,-62.1 667,-65.5 683.51,-72.39 686.32,-77.03 703,-83.5 708.07,-85.47 713.45,-87.33 718.85,-89.05"/>
<polygon fill="#63b8ff" stroke="#63b8ff" points="717.92,-92.42 728.51,-91.99 719.96,-85.73 717.92,-92.42"/>
</a>
</g>
</g>
<!-- Node9&#45;&gt;Node6 -->
<g id="edge12_Node000009_Node000006" class="edge">
<title>Node9&#45;&gt;Node6</title>
<g id="a_edge12_Node000009_Node000006"><a xlink:title=" ">
<path fill="none" stroke="#63b8ff" d="M650.24,-51.04C665.96,-52.86 684.49,-55.01 702.08,-57.04"/>
<polygon fill="#63b8ff" stroke="#63b8ff" points="701.96,-60.55 712.3,-58.23 702.77,-53.6 701.96,-60.55"/>
</a>
</g>
</g>
</g>
</svg>
