<?xml version="1.0" encoding="UTF-8" standalone="no"?>
<!DOCTYPE svg PUBLIC "-//W3C//DTD SVG 1.1//EN"
 "http://www.w3.org/Graphics/SVG/1.1/DTD/svg11.dtd">
<!-- Generated by graphviz version 2.43.0 (0)
 -->
<!-- Title: Tmc9660Handler::driverViaUart Pages: 1 -->
<svg width="1327pt" height="113pt"
 viewBox="0.00 0.00 1327.00 112.50" xmlns="http://www.w3.org/2000/svg" xmlns:xlink="http://www.w3.org/1999/xlink">
<g id="graph0" class="graph" transform="scale(1 1) rotate(0) translate(4 108.5)">
<title>Tmc9660Handler::driverViaUart</title>
<!-- Node1 -->
<g id="Node000001" class="node">
<title>Node1</title>
<g id="a_Node000001"><a xlink:title="Const version of driverViaUart().">
<polygon fill="#999999" stroke="#666666" points="171,-45.5 0,-45.5 0,-26.5 171,-26.5 171,-45.5"/>
<text text-anchor="middle" x="85.5" y="-33.5" font-family="Helvetica,sans-Serif" font-size="10.00">Tmc9660Handler::driverViaUart</text>
</a>
</g>
</g>
<!-- Node2 -->
<g id="Node000002" class="node">
<title>Node2</title>
<g id="a_Node000002"><a xlink:href="classTmc9660Handler.html#a393382194d0602e7aa02da6a8fd7a20a" target="_top" xlink:title="Get a reference to the Temperature wrapper.">
<polygon fill="white" stroke="#666666" points="374,-45.5 207,-45.5 207,-26.5 374,-26.5 374,-45.5"/>
<text text-anchor="middle" x="290.5" y="-33.5" font-family="Helvetica,sans-Serif" font-size="10.00">Tmc9660Handler::temperature</text>
</a>
</g>
</g>
<!-- Node1&#45;&gt;Node2 -->
<g id="edge1_Node000001_Node000002" class="edge">
<title>Node1&#45;&gt;Node2</title>
<g id="a_edge1_Node000001_Node000002"><a xlink:title=" ">
<path fill="none" stroke="#63b8ff" d="M171.12,-36C179.64,-36 188.33,-36 196.93,-36"/>
<polygon fill="#63b8ff" stroke="#63b8ff" points="196.97,-39.5 206.97,-36 196.97,-32.5 196.97,-39.5"/>
</a>
</g>
</g>
<!-- Node2&#45;&gt;Node2 -->
<g id="edge14_Node000002_Node000002" class="edge">
<title>Node2&#45;&gt;Node2</title>
<g id="a_edge14_Node000002_Node000002"><a xlink:title=" ">
<path fill="none" stroke="#63b8ff" d="M259.06,-45.58C243.76,-54.23 254.24,-63.5 290.5,-63.5 315.99,-63.5 328.74,-58.92 328.75,-53.19"/>
<polygon fill="#63b8ff" stroke="#63b8ff" points="331.22,-50.7 321.94,-45.58 326,-55.37 331.22,-50.7"/>
</a>
</g>
</g>
<!-- Node3 -->
<g id="Node000003" class="node">
<title>Node3</title>
<g id="a_Node000003"><a xlink:href="classTmc9660Handler.html#a5a279ae9d4b5a8e0d71cb24577ad88ea" target="_top" xlink:title="Ensure driver is initialized (lazy init entrypoint).">
<polygon fill="white" stroke="#666666" points="597,-45.5 410,-45.5 410,-26.5 597,-26.5 597,-45.5"/>
<text text-anchor="middle" x="503.5" y="-33.5" font-family="Helvetica,sans-Serif" font-size="10.00">Tmc9660Handler::EnsureInitialized</text>
</a>
</g>
</g>
<!-- Node2&#45;&gt;Node3 -->
<g id="edge2_Node000002_Node000003" class="edge">
<title>Node2&#45;&gt;Node3</title>
<g id="a_edge2_Node000002_Node000003"><a xlink:title=" ">
<path fill="none" stroke="#63b8ff" d="M374.29,-29.39C382.67,-29.29 391.25,-29.24 399.81,-29.25"/>
<polygon fill="#63b8ff" stroke="#63b8ff" points="399.81,-32.75 409.83,-29.29 399.84,-25.75 399.81,-32.75"/>
</a>
</g>
</g>
<!-- Node3&#45;&gt;Node2 -->
<g id="edge13_Node000003_Node000002" class="edge">
<title>Node3&#45;&gt;Node2</title>
<g id="a_edge13_Node000003_Node000002"><a xlink:title=" ">
<path fill="none" stroke="#63b8ff" d="M409.83,-42.71C401.42,-42.76 392.9,-42.76 384.48,-42.71"/>
<polygon fill="#63b8ff" stroke="#63b8ff" points="384.32,-39.21 374.29,-42.61 384.25,-46.21 384.32,-39.21"/>
</a>
</g>
</g>
<!-- Node4 -->
<g id="Node000004" class="node">
<title>Node4</title>
<g id="a_Node000004"><a xlink:href="classTmc9660Handler.html#a7c1d8073576d678b09dac24c9eb12845" target="_top" xlink:title="Ensure initialized while handler_mutex_ is already held.">
<polygon fill="white" stroke="#666666" points="820,-51 633,-51 633,-21 820,-21 820,-51"/>
<text text-anchor="start" x="641" y="-39" font-family="Helvetica,sans-Serif" font-size="10.00">Tmc9660Handler::EnsureInitialized</text>
<text text-anchor="middle" x="726.5" y="-28" font-family="Helvetica,sans-Serif" font-size="10.00">Locked</text>
</a>
</g>
</g>
<!-- Node3&#45;&gt;Node4 -->
<g id="edge3_Node000003_Node000004" class="edge">
<title>Node3&#45;&gt;Node4</title>
<g id="a_edge3_Node000003_Node000004"><a xlink:title=" ">
<path fill="none" stroke="#63b8ff" d="M597.26,-36C605.75,-36 614.39,-36 622.96,-36"/>
<polygon fill="#63b8ff" stroke="#63b8ff" points="622.97,-39.5 632.97,-36 622.97,-32.5 622.97,-39.5"/>
</a>
</g>
</g>
<!-- Node5 -->
<g id="Node000005" class="node">
<title>Node5</title>
<g id="a_Node000005"><a xlink:href="classTmc9660Handler.html#adc564847f8ae26c47412aaee0758991c" target="_top" xlink:title="Initialize the TMC9660 device.">
<polygon fill="white" stroke="#666666" points="1004,-67.5 856,-67.5 856,-48.5 1004,-48.5 1004,-67.5"/>
<text text-anchor="middle" x="930" y="-55.5" font-family="Helvetica,sans-Serif" font-size="10.00">Tmc9660Handler::Initialize</text>
</a>
</g>
</g>
<!-- Node4&#45;&gt;Node5 -->
<g id="edge4_Node000004_Node000005" class="edge">
<title>Node4&#45;&gt;Node5</title>
<g id="a_edge4_Node000004_Node000005"><a xlink:title=" ">
<path fill="none" stroke="#63b8ff" d="M820.29,-46.13C828.73,-47.05 837.25,-47.98 845.61,-48.9"/>
<polygon fill="#63b8ff" stroke="#63b8ff" points="845.38,-52.39 855.7,-50 846.14,-45.43 845.38,-52.39"/>
</a>
</g>
</g>
<!-- Node11 -->
<g id="Node000011" class="node">
<title>Node11</title>
<g id="a_Node000011"><a xlink:href="classTmc9660Handler.html#a13db97d201a287d8aa60384e04070b9f" target="_top" xlink:title="Check if the TMC9660 driver has been initialized and is ready.">
<polygon fill="white" stroke="#666666" points="1002,-30 858,-30 858,0 1002,0 1002,-30"/>
<text text-anchor="start" x="866" y="-18" font-family="Helvetica,sans-Serif" font-size="10.00">Tmc9660Handler::IsDriver</text>
<text text-anchor="middle" x="930" y="-7" font-family="Helvetica,sans-Serif" font-size="10.00">Ready</text>
</a>
</g>
</g>
<!-- Node4&#45;&gt;Node11 -->
<g id="edge12_Node000004_Node000011" class="edge">
<title>Node4&#45;&gt;Node11</title>
<g id="a_edge12_Node000004_Node000011"><a xlink:title=" ">
<path fill="none" stroke="#63b8ff" d="M820.29,-26.33C829.44,-25.38 838.69,-24.41 847.71,-23.47"/>
<polygon fill="#63b8ff" stroke="#63b8ff" points="848.21,-26.94 857.8,-22.42 847.49,-19.98 848.21,-26.94"/>
</a>
</g>
</g>
<!-- Node6 -->
<g id="Node000006" class="node">
<title>Node6</title>
<g id="a_Node000006"><a xlink:href="classLogger.html#adce17848a5844e053bfd314863dc1404" target="_top" xlink:title="Log error message.">
<polygon fill="white" stroke="#666666" points="1136.5,-67.5 1057.5,-67.5 1057.5,-48.5 1136.5,-48.5 1136.5,-67.5"/>
<text text-anchor="middle" x="1097" y="-55.5" font-family="Helvetica,sans-Serif" font-size="10.00">Logger::Error</text>
</a>
</g>
</g>
<!-- Node5&#45;&gt;Node6 -->
<g id="edge5_Node000005_Node000006" class="edge">
<title>Node5&#45;&gt;Node6</title>
<g id="a_edge5_Node000005_Node000006"><a xlink:title=" ">
<path fill="none" stroke="#63b8ff" d="M1004.33,-58C1018.73,-58 1033.5,-58 1046.87,-58"/>
<polygon fill="#63b8ff" stroke="#63b8ff" points="1047.26,-61.5 1057.26,-58 1047.26,-54.5 1047.26,-61.5"/>
</a>
</g>
</g>
<!-- Node9 -->
<g id="Node000009" class="node">
<title>Node9</title>
<g id="a_Node000009"><a xlink:href="classLogger.html#a5789d11f8f1356e2192c0023a089cbc4" target="_top" xlink:title="Get singleton instance.">
<polygon fill="white" stroke="#666666" points="1154,-30.5 1040,-30.5 1040,-11.5 1154,-11.5 1154,-30.5"/>
<text text-anchor="middle" x="1097" y="-18.5" font-family="Helvetica,sans-Serif" font-size="10.00">Logger::GetInstance</text>
</a>
</g>
</g>
<!-- Node5&#45;&gt;Node9 -->
<g id="edge8_Node000005_Node000009" class="edge">
<title>Node5&#45;&gt;Node9</title>
<g id="a_edge8_Node000005_Node000009"><a xlink:title=" ">
<path fill="none" stroke="#63b8ff" d="M973.49,-48.47C994.87,-43.68 1020.97,-37.82 1043.58,-32.75"/>
<polygon fill="#63b8ff" stroke="#63b8ff" points="1044.37,-36.16 1053.37,-30.56 1042.84,-29.33 1044.37,-36.16"/>
</a>
</g>
</g>
<!-- Node10 -->
<g id="Node000010" class="node">
<title>Node10</title>
<g id="a_Node000010"><a xlink:href="classLogger.html#a4681229c521795685fc14f6b55c82300" target="_top" xlink:title="Log info message.">
<polygon fill="white" stroke="#666666" points="1134,-104.5 1060,-104.5 1060,-85.5 1134,-85.5 1134,-104.5"/>
<text text-anchor="middle" x="1097" y="-92.5" font-family="Helvetica,sans-Serif" font-size="10.00">Logger::Info</text>
</a>
</g>
</g>
<!-- Node5&#45;&gt;Node10 -->
<g id="edge9_Node000005_Node000010" class="edge">
<title>Node5&#45;&gt;Node10</title>
<g id="a_edge9_Node000005_Node000010"><a xlink:title=" ">
<path fill="none" stroke="#63b8ff" d="M973.49,-67.53C996.89,-72.77 1025.94,-79.29 1049.89,-84.66"/>
<polygon fill="#63b8ff" stroke="#63b8ff" points="1049.28,-88.11 1059.8,-86.88 1050.81,-81.28 1049.28,-88.11"/>
</a>
</g>
</g>
<!-- Node7 -->
<g id="Node000007" class="node">
<title>Node7</title>
<g id="a_Node000007"><a xlink:href="classLogger.html#af9e84e0ff6bd538e4f9ed8dcebc3e2f0" target="_top" xlink:title="Check if log level is enabled for tag.">
<polygon fill="white" stroke="#666666" points="1319,-104.5 1190,-104.5 1190,-85.5 1319,-85.5 1319,-104.5"/>
<text text-anchor="middle" x="1254.5" y="-92.5" font-family="Helvetica,sans-Serif" font-size="10.00">Logger::IsLevelEnabled</text>
</a>
</g>
</g>
<!-- Node6&#45;&gt;Node7 -->
<g id="edge6_Node000006_Node000007" class="edge">
<title>Node6&#45;&gt;Node7</title>
<g id="a_edge6_Node000006_Node000007"><a xlink:title=" ">
<path fill="none" stroke="#63b8ff" d="M1136.84,-67.24C1157.03,-72.05 1181.94,-77.97 1203.55,-83.11"/>
<polygon fill="#63b8ff" stroke="#63b8ff" points="1203,-86.58 1213.53,-85.49 1204.62,-79.77 1203,-86.58"/>
</a>
</g>
</g>
<!-- Node8 -->
<g id="Node000008" class="node">
<title>Node8</title>
<g id="a_Node000008"><a xlink:href="classLogger.html#a6adb205db597526fb91ad20067400394" target="_top" xlink:title="Internal logging method.">
<polygon fill="white" stroke="#666666" points="1309.5,-67.5 1199.5,-67.5 1199.5,-48.5 1309.5,-48.5 1309.5,-67.5"/>
<text text-anchor="middle" x="1254.5" y="-55.5" font-family="Helvetica,sans-Serif" font-size="10.00">Logger::LogInternal</text>
</a>
</g>
</g>
<!-- Node6&#45;&gt;Node8 -->
<g id="edge7_Node000006_Node000008" class="edge">
<title>Node6&#45;&gt;Node8</title>
<g id="a_edge7_Node000006_Node000008"><a xlink:title=" ">
<path fill="none" stroke="#63b8ff" d="M1136.84,-58C1152.63,-58 1171.31,-58 1189.03,-58"/>
<polygon fill="#63b8ff" stroke="#63b8ff" points="1189.33,-61.5 1199.33,-58 1189.33,-54.5 1189.33,-61.5"/>
</a>
</g>
</g>
<!-- Node10&#45;&gt;Node7 -->
<g id="edge10_Node000010_Node000007" class="edge">
<title>Node10&#45;&gt;Node7</title>
<g id="a_edge10_Node000010_Node000007"><a xlink:title=" ">
<path fill="none" stroke="#63b8ff" d="M1134.07,-95C1147.68,-95 1163.72,-95 1179.55,-95"/>
<polygon fill="#63b8ff" stroke="#63b8ff" points="1179.89,-98.5 1189.89,-95 1179.89,-91.5 1179.89,-98.5"/>
</a>
</g>
</g>
<!-- Node10&#45;&gt;Node8 -->
<g id="edge11_Node000010_Node000008" class="edge">
<title>Node10&#45;&gt;Node8</title>
<g id="a_edge11_Node000010_Node000008"><a xlink:title=" ">
<path fill="none" stroke="#63b8ff" d="M1134.07,-86.42C1154.78,-81.49 1181.09,-75.23 1203.74,-69.84"/>
<polygon fill="#63b8ff" stroke="#63b8ff" points="1204.61,-73.23 1213.53,-67.51 1202.99,-66.42 1204.61,-73.23"/>
</a>
</g>
</g>
</g>
</svg>
