<?xml version="1.0" encoding="UTF-8" standalone="no"?>
<!DOCTYPE svg PUBLIC "-//W3C//DTD SVG 1.1//EN"
 "http://www.w3.org/Graphics/SVG/1.1/DTD/svg11.dtd">
<!-- Generated by graphviz version 2.43.0 (0)
 -->
<!-- Title: Ws2812Handler::GetStrip Pages: 1 -->
<svg width="514pt" height="64pt"
 viewBox="0.00 0.00 514.00 64.00" xmlns="http://www.w3.org/2000/svg" xmlns:xlink="http://www.w3.org/1999/xlink">
<g id="graph0" class="graph" transform="scale(1 1) rotate(0) translate(4 60)">
<title>Ws2812Handler::GetStrip</title>
<!-- Node1 -->
<g id="Node000001" class="node">
<title>Node1</title>
<g id="a_Node000001"><a xlink:title="Get the underlying LED strip object.">
<polygon fill="#999999" stroke="#666666" points="506,-37 366,-37 366,-18 506,-18 506,-37"/>
<text text-anchor="middle" x="436" y="-25" font-family="Helvetica,sans-Serif" font-size="10.00">Ws2812Handler::GetStrip</text>
</a>
</g>
</g>
<!-- Node2 -->
<g id="Node000002" class="node">
<title>Node2</title>
<g id="a_Node000002"><a xlink:href="classWs2812Handler.html#a2511358625ce2eeb89eae9ca17495b6c" target="_top" xlink:title="Naming&#45;consistent alias of GetStrip().">
<polygon fill="white" stroke="#666666" points="330,-56 183,-56 183,-37 330,-37 330,-56"/>
<text text-anchor="middle" x="256.5" y="-44" font-family="Helvetica,sans-Serif" font-size="10.00">Ws2812Handler::GetDriver</text>
</a>
</g>
</g>
<!-- Node1&#45;&gt;Node2 -->
<g id="edge1_Node000001_Node000002" class="edge">
<title>Node1&#45;&gt;Node2</title>
<g id="a_edge1_Node000001_Node000002"><a xlink:title=" ">
<path fill="none" stroke="#63b8ff" d="M355.92,-35.97C347.38,-36.88 338.72,-37.81 330.26,-38.71"/>
<polygon fill="#63b8ff" stroke="#63b8ff" points="356.29,-39.44 365.87,-34.9 355.55,-32.48 356.29,-39.44"/>
</a>
</g>
</g>
<!-- Node4 -->
<g id="Node000004" class="node">
<title>Node4</title>
<g id="a_Node000004"><a xlink:href="classWs2812Handler.html#af97f5cc26ad1fb0f4722e72346ca7caa" target="_top" xlink:title=" ">
<polygon fill="white" stroke="#666666" points="326.5,-19 186.5,-19 186.5,0 326.5,0 326.5,-19"/>
<text text-anchor="middle" x="256.5" y="-7" font-family="Helvetica,sans-Serif" font-size="10.00">Ws2812Handler::GetStrip</text>
</a>
</g>
</g>
<!-- Node1&#45;&gt;Node4 -->
<g id="edge3_Node000001_Node000004" class="edge">
<title>Node1&#45;&gt;Node4</title>
<g id="a_edge3_Node000001_Node000004"><a xlink:title=" ">
<path fill="none" stroke="#63b8ff" d="M355.83,-19.47C346.13,-18.49 336.28,-17.49 326.74,-16.52"/>
<polygon fill="#63b8ff" stroke="#63b8ff" points="355.56,-22.96 365.87,-20.49 356.27,-16 355.56,-22.96"/>
</a>
</g>
</g>
<!-- Node3 -->
<g id="Node000003" class="node">
<title>Node3</title>
<g id="a_Node000003"><a xlink:href="classWs2812Handler.html#a8180b47ace28b9d2af1e6f610bc46867" target="_top" xlink:title=" ">
<polygon fill="white" stroke="#666666" points="147,-56 0,-56 0,-37 147,-37 147,-56"/>
<text text-anchor="middle" x="73.5" y="-44" font-family="Helvetica,sans-Serif" font-size="10.00">Ws2812Handler::GetDriver</text>
</a>
</g>
</g>
<!-- Node2&#45;&gt;Node3 -->
<g id="edge2_Node000002_Node000003" class="edge">
<title>Node2&#45;&gt;Node3</title>
<g id="a_edge2_Node000002_Node000003"><a xlink:title=" ">
<path fill="none" stroke="#63b8ff" d="M172.88,-46.5C164.28,-46.5 155.58,-46.5 147.09,-46.5"/>
<polygon fill="#63b8ff" stroke="#63b8ff" points="172.92,-50 182.92,-46.5 172.92,-43 172.92,-50"/>
</a>
</g>
</g>
</g>
</svg>
