<?xml version="1.0" encoding="UTF-8" standalone="no"?>
<!DOCTYPE svg PUBLIC "-//W3C//DTD SVG 1.1//EN"
 "http://www.w3.org/Graphics/SVG/1.1/DTD/svg11.dtd">
<!-- Generated by graphviz version 2.43.0 (0)
 -->
<!-- Title: Ads7952Handler::EnsureInitializedLocked Pages: 1 -->
<svg width="958pt" height="175pt"
 viewBox="0.00 0.00 958.00 175.00" xmlns="http://www.w3.org/2000/svg" xmlns:xlink="http://www.w3.org/1999/xlink">
<g id="graph0" class="graph" transform="scale(1 1) rotate(0) translate(4 171)">
<title>Ads7952Handler::EnsureInitializedLocked</title>
<!-- Node1 -->
<g id="Node000001" class="node">
<title>Node1</title>
<g id="a_Node000001"><a xlink:title="Ensure initialized while mutex is already held.">
<polygon fill="#999999" stroke="#666666" points="184,-98.5 0,-98.5 0,-68.5 184,-68.5 184,-98.5"/>
<text text-anchor="start" x="8" y="-86.5" font-family="Helvetica,sans-Serif" font-size="10.00">Ads7952Handler::EnsureInitialized</text>
<text text-anchor="middle" x="92" y="-75.5" font-family="Helvetica,sans-Serif" font-size="10.00">Locked</text>
</a>
</g>
</g>
<!-- Node2 -->
<g id="Node000002" class="node">
<title>Node2</title>
<g id="a_Node000002"><a xlink:href="classAds7952Handler.html#a0644e9b1c82bc200591155b36a9ca4dd" target="_top" xlink:title="Initialize the ADS7952 ADC (lazy initialization).">
<polygon fill="white" stroke="#666666" points="365,-93 220,-93 220,-74 365,-74 365,-93"/>
<text text-anchor="middle" x="292.5" y="-81" font-family="Helvetica,sans-Serif" font-size="10.00">Ads7952Handler::Initialize</text>
</a>
</g>
</g>
<!-- Node1&#45;&gt;Node2 -->
<g id="edge1_Node000001_Node000002" class="edge">
<title>Node1&#45;&gt;Node2</title>
<g id="a_edge1_Node000001_Node000002"><a xlink:title=" ">
<path fill="none" stroke="#63b8ff" d="M184.12,-83.5C192.67,-83.5 201.3,-83.5 209.75,-83.5"/>
<polygon fill="#63b8ff" stroke="#63b8ff" points="209.96,-87 219.96,-83.5 209.96,-80 209.96,-87"/>
</a>
</g>
</g>
<!-- Node3 -->
<g id="Node000003" class="node">
<title>Node3</title>
<g id="a_Node000003"><a xlink:href="classAds7952Handler.html#a3cc3a33955e1e0b218f801f1b98192f2" target="_top" xlink:title="Apply configuration to the driver after init.">
<polygon fill="white" stroke="#666666" points="597,-167 401,-167 401,-148 597,-148 597,-167"/>
<text text-anchor="middle" x="499" y="-155" font-family="Helvetica,sans-Serif" font-size="10.00">Ads7952Handler::ApplyConfiguration</text>
</a>
</g>
</g>
<!-- Node2&#45;&gt;Node3 -->
<g id="edge2_Node000002_Node000003" class="edge">
<title>Node2&#45;&gt;Node3</title>
<g id="a_edge2_Node000002_Node000003"><a xlink:title=" ">
<path fill="none" stroke="#63b8ff" d="M308.52,-93.17C328.73,-105.74 366.18,-127.5 401,-139.5 407.74,-141.82 414.84,-143.86 422.02,-145.66"/>
<polygon fill="#63b8ff" stroke="#63b8ff" points="421.3,-149.08 431.83,-147.95 422.89,-142.26 421.3,-149.08"/>
</a>
</g>
</g>
<!-- Node4 -->
<g id="Node000004" class="node">
<title>Node4</title>
<g id="a_Node000004"><a xlink:href="classLogger.html#adce17848a5844e053bfd314863dc1404" target="_top" xlink:title="Log error message.">
<polygon fill="white" stroke="#666666" points="538.5,-130 459.5,-130 459.5,-111 538.5,-111 538.5,-130"/>
<text text-anchor="middle" x="499" y="-118" font-family="Helvetica,sans-Serif" font-size="10.00">Logger::Error</text>
</a>
</g>
</g>
<!-- Node2&#45;&gt;Node4 -->
<g id="edge3_Node000002_Node000004" class="edge">
<title>Node2&#45;&gt;Node4</title>
<g id="a_edge3_Node000002_Node000004"><a xlink:title=" ">
<path fill="none" stroke="#63b8ff" d="M346.16,-93.03C377.95,-98.78 418.18,-106.06 449.24,-111.68"/>
<polygon fill="#63b8ff" stroke="#63b8ff" points="448.94,-115.18 459.4,-113.52 450.18,-108.29 448.94,-115.18"/>
</a>
</g>
</g>
<!-- Node8 -->
<g id="Node000008" class="node">
<title>Node8</title>
<g id="a_Node000008"><a xlink:href="classLogger.html#a5789d11f8f1356e2192c0023a089cbc4" target="_top" xlink:title="Get singleton instance.">
<polygon fill="white" stroke="#666666" points="556,-19 442,-19 442,0 556,0 556,-19"/>
<text text-anchor="middle" x="499" y="-7" font-family="Helvetica,sans-Serif" font-size="10.00">Logger::GetInstance</text>
</a>
</g>
</g>
<!-- Node2&#45;&gt;Node8 -->
<g id="edge7_Node000002_Node000008" class="edge">
<title>Node2&#45;&gt;Node8</title>
<g id="a_edge7_Node000002_Node000008"><a xlink:title=" ">
<path fill="none" stroke="#63b8ff" d="M308.52,-73.83C328.73,-61.26 366.18,-39.5 401,-27.5 410.82,-24.12 421.42,-21.33 431.9,-19.04"/>
<polygon fill="#63b8ff" stroke="#63b8ff" points="432.77,-22.43 441.87,-16.99 431.37,-15.57 432.77,-22.43"/>
</a>
</g>
</g>
<!-- Node9 -->
<g id="Node000009" class="node">
<title>Node9</title>
<g id="a_Node000009"><a xlink:href="classLogger.html#a4681229c521795685fc14f6b55c82300" target="_top" xlink:title="Log info message.">
<polygon fill="white" stroke="#666666" points="536,-93 462,-93 462,-74 536,-74 536,-93"/>
<text text-anchor="middle" x="499" y="-81" font-family="Helvetica,sans-Serif" font-size="10.00">Logger::Info</text>
</a>
</g>
</g>
<!-- Node2&#45;&gt;Node9 -->
<g id="edge8_Node000002_Node000009" class="edge">
<title>Node2&#45;&gt;Node9</title>
<g id="a_edge8_Node000002_Node000009"><a xlink:title=" ">
<path fill="none" stroke="#63b8ff" d="M365.02,-83.5C393.77,-83.5 426.1,-83.5 451.68,-83.5"/>
<polygon fill="#63b8ff" stroke="#63b8ff" points="451.84,-87 461.84,-83.5 451.84,-80 451.84,-87"/>
</a>
</g>
</g>
<!-- Node10 -->
<g id="Node000010" class="node">
<title>Node10</title>
<g id="a_Node000010"><a xlink:href="classLogger.html#aaa95ffa14d07a965d4a85bdec82cba26" target="_top" xlink:title="Log warning message.">
<polygon fill="white" stroke="#666666" points="539,-56 459,-56 459,-37 539,-37 539,-56"/>
<text text-anchor="middle" x="499" y="-44" font-family="Helvetica,sans-Serif" font-size="10.00">Logger::Warn</text>
</a>
</g>
</g>
<!-- Node2&#45;&gt;Node10 -->
<g id="edge11_Node000002_Node000010" class="edge">
<title>Node2&#45;&gt;Node10</title>
<g id="a_edge11_Node000002_Node000010"><a xlink:title=" ">
<path fill="none" stroke="#63b8ff" d="M346.16,-73.97C377.74,-68.26 417.65,-61.04 448.62,-55.43"/>
<polygon fill="#63b8ff" stroke="#63b8ff" points="449.54,-58.82 458.76,-53.6 448.29,-51.94 449.54,-58.82"/>
</a>
</g>
</g>
<!-- Node5 -->
<g id="Node000005" class="node">
<title>Node5</title>
<g id="a_Node000005"><a xlink:href="classLogger.html#af9e84e0ff6bd538e4f9ed8dcebc3e2f0" target="_top" xlink:title="Check if log level is enabled for tag.">
<polygon fill="white" stroke="#666666" points="762,-111 633,-111 633,-92 762,-92 762,-111"/>
<text text-anchor="middle" x="697.5" y="-99" font-family="Helvetica,sans-Serif" font-size="10.00">Logger::IsLevelEnabled</text>
</a>
</g>
</g>
<!-- Node4&#45;&gt;Node5 -->
<g id="edge4_Node000004_Node000005" class="edge">
<title>Node4&#45;&gt;Node5</title>
<g id="a_edge4_Node000004_Node000005"><a xlink:title=" ">
<path fill="none" stroke="#63b8ff" d="M538.82,-116.75C562.63,-114.44 593.9,-111.42 622.3,-108.67"/>
<polygon fill="#63b8ff" stroke="#63b8ff" points="623,-112.12 632.62,-107.68 622.33,-105.16 623,-112.12"/>
</a>
</g>
</g>
<!-- Node6 -->
<g id="Node000006" class="node">
<title>Node6</title>
<g id="a_Node000006"><a xlink:href="classLogger.html#a6adb205db597526fb91ad20067400394" target="_top" xlink:title="Internal logging method.">
<polygon fill="white" stroke="#666666" points="752.5,-74 642.5,-74 642.5,-55 752.5,-55 752.5,-74"/>
<text text-anchor="middle" x="697.5" y="-62" font-family="Helvetica,sans-Serif" font-size="10.00">Logger::LogInternal</text>
</a>
</g>
</g>
<!-- Node4&#45;&gt;Node6 -->
<g id="edge5_Node000004_Node000006" class="edge">
<title>Node4&#45;&gt;Node6</title>
<g id="a_edge5_Node000004_Node000006"><a xlink:title=" ">
<path fill="none" stroke="#63b8ff" d="M538.93,-116.02C556.93,-113.26 578.4,-108.97 597,-102.5 614.09,-96.56 616.25,-90.35 633,-83.5 638.53,-81.24 644.42,-79.12 650.31,-77.16"/>
<polygon fill="#63b8ff" stroke="#63b8ff" points="651.67,-80.41 660.14,-74.05 649.55,-73.73 651.67,-80.41"/>
</a>
</g>
</g>
<!-- Node7 -->
<g id="Node000007" class="node">
<title>Node7</title>
<g id="a_Node000007"><a xlink:href="namespaceanonymous__namespace_02Logger_8cpp_03.html#a9d2b496fa1b4f4e28667d14e4b8cb190" target="_top" xlink:title=" ">
<polygon fill="white" stroke="#666666" points="950,-79.5 798,-79.5 798,-49.5 950,-49.5 950,-79.5"/>
<text text-anchor="start" x="806" y="-67.5" font-family="Helvetica,sans-Serif" font-size="10.00">anonymous_namespace</text>
<text text-anchor="middle" x="874" y="-56.5" font-family="Helvetica,sans-Serif" font-size="10.00">{Logger::cpp}::ToBaseLevel</text>
</a>
</g>
</g>
<!-- Node6&#45;&gt;Node7 -->
<g id="edge6_Node000006_Node000007" class="edge">
<title>Node6&#45;&gt;Node7</title>
<g id="a_edge6_Node000006_Node000007"><a xlink:title=" ">
<path fill="none" stroke="#63b8ff" d="M752.76,-64.5C763.93,-64.5 775.96,-64.5 787.93,-64.5"/>
<polygon fill="#63b8ff" stroke="#63b8ff" points="787.95,-68 797.95,-64.5 787.95,-61 787.95,-68"/>
</a>
</g>
</g>
<!-- Node9&#45;&gt;Node5 -->
<g id="edge9_Node000009_Node000005" class="edge">
<title>Node9&#45;&gt;Node5</title>
<g id="a_edge9_Node000009_Node000005"><a xlink:title=" ">
<path fill="none" stroke="#63b8ff" d="M536.04,-86.8C560.22,-89.02 592.95,-92.01 622.54,-94.72"/>
<polygon fill="#63b8ff" stroke="#63b8ff" points="622.58,-98.24 632.85,-95.67 623.22,-91.27 622.58,-98.24"/>
</a>
</g>
</g>
<!-- Node9&#45;&gt;Node6 -->
<g id="edge10_Node000009_Node000006" class="edge">
<title>Node9&#45;&gt;Node6</title>
<g id="a_edge10_Node000009_Node000006"><a xlink:title=" ">
<path fill="none" stroke="#63b8ff" d="M536.04,-80.02C562.83,-77.42 600.11,-73.82 632,-70.74"/>
<polygon fill="#63b8ff" stroke="#63b8ff" points="632.52,-74.2 642.14,-69.76 631.85,-67.24 632.52,-74.2"/>
</a>
</g>
</g>
<!-- Node10&#45;&gt;Node5 -->
<g id="edge12_Node000010_Node000005" class="edge">
<title>Node10&#45;&gt;Node5</title>
<g id="a_edge12_Node000010_Node000005"><a xlink:title=" ">
<path fill="none" stroke="#63b8ff" d="M539.33,-51.73C557.22,-54.73 578.48,-59.19 597,-65.5 613.93,-71.27 616.32,-77.03 633,-83.5 638.07,-85.47 643.45,-87.33 648.85,-89.05"/>
<polygon fill="#63b8ff" stroke="#63b8ff" points="647.92,-92.42 658.51,-91.99 649.96,-85.73 647.92,-92.42"/>
</a>
</g>
</g>
<!-- Node10&#45;&gt;Node6 -->
<g id="edge13_Node000010_Node000006" class="edge">
<title>Node10&#45;&gt;Node6</title>
<g id="a_edge13_Node000010_Node000006"><a xlink:title=" ">
<path fill="none" stroke="#63b8ff" d="M539.29,-50.1C565.86,-52.53 601.55,-55.8 632.21,-58.61"/>
<polygon fill="#63b8ff" stroke="#63b8ff" points="632.11,-62.12 642.39,-59.54 632.75,-55.15 632.11,-62.12"/>
</a>
</g>
</g>
</g>
</svg>
