<?xml version="1.0" encoding="UTF-8" standalone="no"?>
<!DOCTYPE svg PUBLIC "-//W3C//DTD SVG 1.1//EN"
 "http://www.w3.org/Graphics/SVG/1.1/DTD/svg11.dtd">
<!-- Generated by graphviz version 2.43.0 (0)
 -->
<!-- Title: Bno08xHandler::EnsureInitialized Pages: 1 -->
<svg width="963pt" height="162pt"
 viewBox="0.00 0.00 963.00 161.50" xmlns="http://www.w3.org/2000/svg" xmlns:xlink="http://www.w3.org/1999/xlink">
<g id="graph0" class="graph" transform="scale(1 1) rotate(0) translate(4 157.5)">
<title>Bno08xHandler::EnsureInitialized</title>
<!-- Node1 -->
<g id="Node000001" class="node">
<title>Node1</title>
<g id="a_Node000001"><a xlink:title="Ensure the BNO08x is initialized (lazy init entrypoint).">
<polygon fill="#999999" stroke="#666666" points="179,-83 0,-83 0,-64 179,-64 179,-83"/>
<text text-anchor="middle" x="89.5" y="-71" font-family="Helvetica,sans-Serif" font-size="10.00">Bno08xHandler::EnsureInitialized</text>
</a>
</g>
</g>
<!-- Node2 -->
<g id="Node000002" class="node">
<title>Node2</title>
<g id="a_Node000002"><a xlink:href="classBno08xHandler.html#a0479abc034d5417ba7dc524468a5ce82" target="_top" xlink:title="Internal: ensure initialized (assumes mutex is held).">
<polygon fill="white" stroke="#666666" points="394,-88.5 215,-88.5 215,-58.5 394,-58.5 394,-88.5"/>
<text text-anchor="start" x="223" y="-76.5" font-family="Helvetica,sans-Serif" font-size="10.00">Bno08xHandler::ensureInitialized</text>
<text text-anchor="middle" x="304.5" y="-65.5" font-family="Helvetica,sans-Serif" font-size="10.00">Locked</text>
</a>
</g>
</g>
<!-- Node1&#45;&gt;Node2 -->
<g id="edge1_Node000001_Node000002" class="edge">
<title>Node1&#45;&gt;Node2</title>
<g id="a_edge1_Node000001_Node000002"><a xlink:title=" ">
<path fill="none" stroke="#63b8ff" d="M179.29,-73.5C187.65,-73.5 196.16,-73.5 204.6,-73.5"/>
<polygon fill="#63b8ff" stroke="#63b8ff" points="204.86,-77 214.86,-73.5 204.85,-70 204.86,-77"/>
</a>
</g>
</g>
<!-- Node3 -->
<g id="Node000003" class="node">
<title>Node3</title>
<g id="a_Node000003"><a xlink:href="classBno08xHandler.html#ac1a1ff0d56324dcc09d9b48ca2e132e6" target="_top" xlink:title="Initialize the BNO08x sensor.">
<polygon fill="white" stroke="#666666" points="570,-83 430,-83 430,-64 570,-64 570,-83"/>
<text text-anchor="middle" x="500" y="-71" font-family="Helvetica,sans-Serif" font-size="10.00">Bno08xHandler::Initialize</text>
</a>
</g>
</g>
<!-- Node2&#45;&gt;Node3 -->
<g id="edge2_Node000002_Node000003" class="edge">
<title>Node2&#45;&gt;Node3</title>
<g id="a_edge2_Node000002_Node000003"><a xlink:title=" ">
<path fill="none" stroke="#63b8ff" d="M394.04,-73.5C402.6,-73.5 411.25,-73.5 419.71,-73.5"/>
<polygon fill="#63b8ff" stroke="#63b8ff" points="419.92,-77 429.92,-73.5 419.92,-70 419.92,-77"/>
</a>
</g>
</g>
<!-- Node4 -->
<g id="Node000004" class="node">
<title>Node4</title>
<g id="a_Node000004"><a xlink:href="classBno08xHandler.html#a5669d8d3146a450430e5644b8d297de5" target="_top" xlink:title="Internal: apply configured sensor enables (assumes mutex is held).">
<polygon fill="white" stroke="#666666" points="768,-153.5 613,-153.5 613,-123.5 768,-123.5 768,-153.5"/>
<text text-anchor="start" x="621" y="-141.5" font-family="Helvetica,sans-Serif" font-size="10.00">Bno08xHandler::applyConfig</text>
<text text-anchor="middle" x="690.5" y="-130.5" font-family="Helvetica,sans-Serif" font-size="10.00">Locked</text>
</a>
</g>
</g>
<!-- Node3&#45;&gt;Node4 -->
<g id="edge3_Node000003_Node000004" class="edge">
<title>Node3&#45;&gt;Node4</title>
<g id="a_edge3_Node000003_Node000004"><a xlink:title=" ">
<path fill="none" stroke="#63b8ff" d="M523.72,-83.07C544.83,-91.8 577.27,-104.78 606,-114.5 612,-116.53 618.28,-118.54 624.59,-120.48"/>
<polygon fill="#63b8ff" stroke="#63b8ff" points="623.89,-123.93 634.48,-123.47 625.92,-117.23 623.89,-123.93"/>
</a>
</g>
</g>
<!-- Node6 -->
<g id="Node000006" class="node">
<title>Node6</title>
<g id="a_Node000006"><a xlink:href="classIBno08xDriverOps.html#a0ca90c1a5664ab3eb83f691aff34faa0" target="_top" xlink:title=" ">
<polygon fill="white" stroke="#666666" points="760,-105 621,-105 621,-86 760,-86 760,-105"/>
<text text-anchor="middle" x="690.5" y="-93" font-family="Helvetica,sans-Serif" font-size="10.00">IBno08xDriverOps::Begin</text>
</a>
</g>
</g>
<!-- Node3&#45;&gt;Node6 -->
<g id="edge5_Node000003_Node000006" class="edge">
<title>Node3&#45;&gt;Node6</title>
<g id="a_edge5_Node000003_Node000006"><a xlink:title=" ">
<path fill="none" stroke="#63b8ff" d="M570.12,-81.57C583.27,-83.1 597.12,-84.72 610.54,-86.28"/>
<polygon fill="#63b8ff" stroke="#63b8ff" points="610.36,-89.79 620.7,-87.47 611.18,-82.83 610.36,-89.79"/>
</a>
</g>
</g>
<!-- Node7 -->
<g id="Node000007" class="node">
<title>Node7</title>
<g id="a_Node000007"><a xlink:href="classIBno08xDriverOps.html#a66418ccb85cd8eb8eea327fa979a2b6a" target="_top" xlink:title=" ">
<polygon fill="white" stroke="#666666" points="769.5,-67.5 611.5,-67.5 611.5,-37.5 769.5,-37.5 769.5,-67.5"/>
<text text-anchor="start" x="619.5" y="-55.5" font-family="Helvetica,sans-Serif" font-size="10.00">IBno08xDriverOps::Hardware</text>
<text text-anchor="middle" x="690.5" y="-44.5" font-family="Helvetica,sans-Serif" font-size="10.00">Reset</text>
</a>
</g>
</g>
<!-- Node3&#45;&gt;Node7 -->
<g id="edge6_Node000003_Node000007" class="edge">
<title>Node3&#45;&gt;Node7</title>
<g id="a_edge6_Node000003_Node000007"><a xlink:title=" ">
<path fill="none" stroke="#63b8ff" d="M570.12,-65.8C580.31,-64.66 590.93,-63.48 601.44,-62.31"/>
<polygon fill="#63b8ff" stroke="#63b8ff" points="601.92,-65.78 611.47,-61.19 601.14,-58.82 601.92,-65.78"/>
</a>
</g>
</g>
<!-- Node8 -->
<g id="Node000008" class="node">
<title>Node8</title>
<g id="a_Node000008"><a xlink:href="classIBno08xDriverOps.html#a04816a487d80027e6d6fe435f651b265" target="_top" xlink:title=" ">
<polygon fill="white" stroke="#666666" points="775,-19 606,-19 606,0 775,0 775,-19"/>
<text text-anchor="middle" x="690.5" y="-7" font-family="Helvetica,sans-Serif" font-size="10.00">IBno08xDriverOps::SetCallback</text>
</a>
</g>
</g>
<!-- Node3&#45;&gt;Node8 -->
<g id="edge7_Node000003_Node000008" class="edge">
<title>Node3&#45;&gt;Node8</title>
<g id="a_edge7_Node000003_Node000008"><a xlink:title=" ">
<path fill="none" stroke="#63b8ff" d="M520.33,-63.96C541.09,-54.01 575.26,-38.49 606,-28.5 613.93,-25.92 622.39,-23.56 630.76,-21.45"/>
<polygon fill="#63b8ff" stroke="#63b8ff" points="631.63,-24.84 640.53,-19.08 629.98,-18.04 631.63,-24.84"/>
</a>
</g>
</g>
<!-- Node5 -->
<g id="Node000005" class="node">
<title>Node5</title>
<g id="a_Node000005"><a xlink:href="classIBno08xDriverOps.html#a1da5bdfd4c8d7fbd42475ae7ee37fb98" target="_top" xlink:title=" ">
<polygon fill="white" stroke="#666666" points="955,-153.5 811,-153.5 811,-123.5 955,-123.5 955,-153.5"/>
<text text-anchor="start" x="819" y="-141.5" font-family="Helvetica,sans-Serif" font-size="10.00">IBno08xDriverOps::Enable</text>
<text text-anchor="middle" x="883" y="-130.5" font-family="Helvetica,sans-Serif" font-size="10.00">Sensor</text>
</a>
</g>
</g>
<!-- Node4&#45;&gt;Node5 -->
<g id="edge4_Node000004_Node000005" class="edge">
<title>Node4&#45;&gt;Node5</title>
<g id="a_edge4_Node000004_Node000005"><a xlink:title=" ">
<path fill="none" stroke="#63b8ff" d="M768.16,-138.5C778.82,-138.5 789.79,-138.5 800.53,-138.5"/>
<polygon fill="#63b8ff" stroke="#63b8ff" points="800.74,-142 810.74,-138.5 800.74,-135 800.74,-142"/>
</a>
</g>
</g>
</g>
</svg>
