<?xml version="1.0" encoding="UTF-8" standalone="no"?>
<!DOCTYPE svg PUBLIC "-//W3C//DTD SVG 1.1//EN"
 "http://www.w3.org/Graphics/SVG/1.1/DTD/svg11.dtd">
<!-- Generated by graphviz version 2.43.0 (0)
 -->
<!-- Title: As5047uHandler::GetDriver Pages: 1 -->
<svg width="1372pt" height="70pt"
 viewBox="0.00 0.00 1372.00 69.50" xmlns="http://www.w3.org/2000/svg" xmlns:xlink="http://www.w3.org/1999/xlink">
<g id="graph0" class="graph" transform="scale(1 1) rotate(0) translate(4 65.5)">
<title>As5047uHandler::GetDriver</title>
<!-- Node1 -->
<g id="Node000001" class="node">
<title>Node1</title>
<g id="a_Node000001"><a xlink:title=" ">
<polygon fill="#999999" stroke="#666666" points="150,-42.5 0,-42.5 0,-23.5 150,-23.5 150,-42.5"/>
<text text-anchor="middle" x="75" y="-30.5" font-family="Helvetica,sans-Serif" font-size="10.00">As5047uHandler::GetDriver</text>
</a>
</g>
</g>
<!-- Node2 -->
<g id="Node000002" class="node">
<title>Node2</title>
<g id="a_Node000002"><a xlink:href="classAs5047uHandler.html#a10e4de42743f7ceb1f2fef7cadbfc000" target="_top" xlink:title="Naming&#45;consistent alias of GetSensor().">
<polygon fill="white" stroke="#666666" points="336,-42.5 186,-42.5 186,-23.5 336,-23.5 336,-42.5"/>
<text text-anchor="middle" x="261" y="-30.5" font-family="Helvetica,sans-Serif" font-size="10.00">As5047uHandler::GetDriver</text>
</a>
</g>
</g>
<!-- Node1&#45;&gt;Node2 -->
<g id="edge1_Node000001_Node000002" class="edge">
<title>Node1&#45;&gt;Node2</title>
<g id="a_edge1_Node000001_Node000002"><a xlink:title=" ">
<path fill="none" stroke="#63b8ff" d="M150.04,-33C158.51,-33 167.19,-33 175.78,-33"/>
<polygon fill="#63b8ff" stroke="#63b8ff" points="175.81,-36.5 185.81,-33 175.81,-29.5 175.81,-36.5"/>
</a>
</g>
</g>
<!-- Node3 -->
<g id="Node000003" class="node">
<title>Node3</title>
<g id="a_Node000003"><a xlink:href="classAs5047uHandler.html#a7935a51fb2973e3a1793d378fc50118a" target="_top" xlink:title="Get pointer to AS5047U driver for advanced operations.">
<polygon fill="white" stroke="#666666" points="525,-42.5 372,-42.5 372,-23.5 525,-23.5 525,-42.5"/>
<text text-anchor="middle" x="448.5" y="-30.5" font-family="Helvetica,sans-Serif" font-size="10.00">As5047uHandler::GetSensor</text>
</a>
</g>
</g>
<!-- Node2&#45;&gt;Node3 -->
<g id="edge2_Node000002_Node000003" class="edge">
<title>Node2&#45;&gt;Node3</title>
<g id="a_edge2_Node000002_Node000003"><a xlink:title=" ">
<path fill="none" stroke="#63b8ff" d="M336.11,-33C344.6,-33 353.3,-33 361.92,-33"/>
<polygon fill="#63b8ff" stroke="#63b8ff" points="361.99,-36.5 371.99,-33 361.99,-29.5 361.99,-36.5"/>
</a>
</g>
</g>
<!-- Node4 -->
<g id="Node000004" class="node">
<title>Node4</title>
<g id="a_Node000004"><a xlink:href="classAs5047uHandler.html#a040ba453eb7892ab3189631d73a2f683" target="_top" xlink:title="Ensure initialized while mutex is already held.">
<polygon fill="white" stroke="#666666" points="745,-48 561,-48 561,-18 745,-18 745,-48"/>
<text text-anchor="start" x="569" y="-36" font-family="Helvetica,sans-Serif" font-size="10.00">As5047uHandler::EnsureInitialized</text>
<text text-anchor="middle" x="653" y="-25" font-family="Helvetica,sans-Serif" font-size="10.00">Locked</text>
</a>
</g>
</g>
<!-- Node3&#45;&gt;Node4 -->
<g id="edge3_Node000003_Node000004" class="edge">
<title>Node3&#45;&gt;Node4</title>
<g id="a_edge3_Node000003_Node000004"><a xlink:title=" ">
<path fill="none" stroke="#63b8ff" d="M525.19,-33C533.51,-33 542.07,-33 550.63,-33"/>
<polygon fill="#63b8ff" stroke="#63b8ff" points="550.67,-36.5 560.67,-33 550.67,-29.5 550.67,-36.5"/>
</a>
</g>
</g>
<!-- Node5 -->
<g id="Node000005" class="node">
<title>Node5</title>
<g id="a_Node000005"><a xlink:href="classAs5047uHandler.html#a157826010a85f4279b7a13791fcf2003" target="_top" xlink:title="Initialize the AS5047U sensor (lazy initialization)">
<polygon fill="white" stroke="#666666" points="926,-42.5 781,-42.5 781,-23.5 926,-23.5 926,-42.5"/>
<text text-anchor="middle" x="853.5" y="-30.5" font-family="Helvetica,sans-Serif" font-size="10.00">As5047uHandler::Initialize</text>
</a>
</g>
</g>
<!-- Node4&#45;&gt;Node5 -->
<g id="edge4_Node000004_Node000005" class="edge">
<title>Node4&#45;&gt;Node5</title>
<g id="a_edge4_Node000004_Node000005"><a xlink:title=" ">
<path fill="none" stroke="#63b8ff" d="M745.12,-33C753.67,-33 762.3,-33 770.75,-33"/>
<polygon fill="#63b8ff" stroke="#63b8ff" points="770.96,-36.5 780.96,-33 770.96,-29.5 770.96,-36.5"/>
</a>
</g>
</g>
<!-- Node6 -->
<g id="Node000006" class="node">
<title>Node6</title>
<g id="a_Node000006"><a xlink:href="classAs5047uHandler.html#a0e7c20d4fd883c55ff9091041ec04c39" target="_top" xlink:title="Apply configuration to sensor.">
<polygon fill="white" stroke="#666666" points="1158,-61.5 962,-61.5 962,-42.5 1158,-42.5 1158,-61.5"/>
<text text-anchor="middle" x="1060" y="-49.5" font-family="Helvetica,sans-Serif" font-size="10.00">As5047uHandler::ApplyConfiguration</text>
</a>
</g>
</g>
<!-- Node5&#45;&gt;Node6 -->
<g id="edge5_Node000005_Node000006" class="edge">
<title>Node5&#45;&gt;Node6</title>
<g id="a_edge5_Node000005_Node000006"><a xlink:title=" ">
<path fill="none" stroke="#63b8ff" d="M926.02,-39.65C934.39,-40.42 943.05,-41.23 951.76,-42.04"/>
<polygon fill="#63b8ff" stroke="#63b8ff" points="951.71,-45.55 961.99,-42.99 952.36,-38.58 951.71,-45.55"/>
</a>
</g>
</g>
<!-- Node7 -->
<g id="Node000007" class="node">
<title>Node7</title>
<g id="a_Node000007"><a xlink:href="classAs5047uHandler.html#a6854be00365afbb2eeddfb3177939456" target="_top" xlink:title="Update cached diagnostics.">
<polygon fill="white" stroke="#666666" points="1157.5,-24.5 962.5,-24.5 962.5,-5.5 1157.5,-5.5 1157.5,-24.5"/>
<text text-anchor="middle" x="1060" y="-12.5" font-family="Helvetica,sans-Serif" font-size="10.00">As5047uHandler::UpdateDiagnostics</text>
</a>
</g>
</g>
<!-- Node5&#45;&gt;Node7 -->
<g id="edge6_Node000005_Node000007" class="edge">
<title>Node5&#45;&gt;Node7</title>
<g id="a_edge6_Node000005_Node000007"><a xlink:title=" ">
<path fill="none" stroke="#63b8ff" d="M926.02,-26.7C934.56,-25.95 943.41,-25.17 952.31,-24.39"/>
<polygon fill="#63b8ff" stroke="#63b8ff" points="952.7,-27.87 962.35,-23.51 952.09,-20.9 952.7,-27.87"/>
</a>
</g>
</g>
<!-- Node8 -->
<g id="Node000008" class="node">
<title>Node8</title>
<g id="a_Node000008"><a xlink:href="classAs5047uHandler.html#a6b29b6418f7b2d19cbdcc65aa6eb9756" target="_top" xlink:title="Handle sensor errors and update diagnostics.">
<polygon fill="white" stroke="#666666" points="1364,-30 1194,-30 1194,0 1364,0 1364,-30"/>
<text text-anchor="start" x="1202" y="-18" font-family="Helvetica,sans-Serif" font-size="10.00">As5047uHandler::HandleSensor</text>
<text text-anchor="middle" x="1279" y="-7" font-family="Helvetica,sans-Serif" font-size="10.00">Errors</text>
</a>
</g>
</g>
<!-- Node7&#45;&gt;Node8 -->
<g id="edge7_Node000007_Node000008" class="edge">
<title>Node7&#45;&gt;Node8</title>
<g id="a_edge7_Node000007_Node000008"><a xlink:title=" ">
<path fill="none" stroke="#63b8ff" d="M1157.76,-15C1166.37,-15 1175.08,-15 1183.67,-15"/>
<polygon fill="#63b8ff" stroke="#63b8ff" points="1183.69,-18.5 1193.69,-15 1183.69,-11.5 1183.69,-18.5"/>
</a>
</g>
</g>
</g>
</svg>
