<?xml version="1.0" encoding="UTF-8" standalone="no"?>
<!DOCTYPE svg PUBLIC "-//W3C//DTD SVG 1.1//EN"
 "http://www.w3.org/Graphics/SVG/1.1/DTD/svg11.dtd">
<!-- Generated by graphviz version 2.43.0 (0)
 -->
<!-- Title: Fdo2Handler::EnsureInitializedLocked Pages: 1 -->
<svg width="365pt" height="76pt"
 viewBox="0.00 0.00 365.00 75.50" xmlns="http://www.w3.org/2000/svg" xmlns:xlink="http://www.w3.org/1999/xlink">
<g id="graph0" class="graph" transform="scale(1 1) rotate(0) translate(4 71.5)">
<title>Fdo2Handler::EnsureInitializedLocked</title>
<!-- Node1 -->
<g id="Node000001" class="node">
<title>Node1</title>
<g id="a_Node000001"><a xlink:title=" ">
<polygon fill="#999999" stroke="#666666" points="166,-45.5 0,-45.5 0,-15.5 166,-15.5 166,-45.5"/>
<text text-anchor="start" x="8" y="-33.5" font-family="Helvetica,sans-Serif" font-size="10.00">Fdo2Handler::EnsureInitialized</text>
<text text-anchor="middle" x="83" y="-22.5" font-family="Helvetica,sans-Serif" font-size="10.00">Locked</text>
</a>
</g>
</g>
<!-- Node2 -->
<g id="Node000002" class="node">
<title>Node2</title>
<g id="a_Node000002"><a xlink:href="classHalUartFdo2Comm.html#a5589d7088dcae478e66825f63c6da124" target="_top" xlink:title=" ">
<polygon fill="white" stroke="#666666" points="351,-67.5 208,-67.5 208,-37.5 351,-37.5 351,-67.5"/>
<text text-anchor="start" x="216" y="-55.5" font-family="Helvetica,sans-Serif" font-size="10.00">HalUartFdo2Comm::delay</text>
<text text-anchor="middle" x="279.5" y="-44.5" font-family="Helvetica,sans-Serif" font-size="10.00">_ms_impl</text>
</a>
</g>
</g>
<!-- Node1&#45;&gt;Node2 -->
<g id="edge1_Node000001_Node000002" class="edge">
<title>Node1&#45;&gt;Node2</title>
<g id="a_edge1_Node000001_Node000002"><a xlink:title=" ">
<path fill="none" stroke="#63b8ff" d="M166.2,-39.8C176.73,-40.99 187.5,-42.21 198,-43.39"/>
<polygon fill="#63b8ff" stroke="#63b8ff" points="197.64,-46.88 207.97,-44.52 198.43,-39.92 197.64,-46.88"/>
</a>
</g>
</g>
<!-- Node3 -->
<g id="Node000003" class="node">
<title>Node3</title>
<g id="a_Node000003"><a xlink:href="classHalUartFdo2Comm.html#ae35e65fd7d755ae9179b93af1e295e29" target="_top" xlink:title=" ">
<polygon fill="white" stroke="#666666" points="357,-19 202,-19 202,0 357,0 357,-19"/>
<text text-anchor="middle" x="279.5" y="-7" font-family="Helvetica,sans-Serif" font-size="10.00">HalUartFdo2Comm::flush_rx</text>
</a>
</g>
</g>
<!-- Node1&#45;&gt;Node3 -->
<g id="edge2_Node000001_Node000003" class="edge">
<title>Node1&#45;&gt;Node3</title>
<g id="a_edge2_Node000001_Node000003"><a xlink:title=" ">
<path fill="none" stroke="#63b8ff" d="M166.2,-21.62C174.7,-20.71 183.35,-19.77 191.89,-18.85"/>
<polygon fill="#63b8ff" stroke="#63b8ff" points="192.29,-22.33 201.85,-17.78 191.53,-15.37 192.29,-22.33"/>
</a>
</g>
</g>
</g>
</svg>
