<?xml version="1.0" encoding="UTF-8" standalone="no"?>
<!DOCTYPE svg PUBLIC "-//W3C//DTD SVG 1.1//EN"
 "http://www.w3.org/Graphics/SVG/1.1/DTD/svg11.dtd">
<!-- Generated by graphviz version 2.43.0 (0)
 -->
<!-- Title: As5047uHandler::ApplyConfiguration Pages: 1 -->
<svg width="422pt" height="64pt"
 viewBox="0.00 0.00 422.00 64.00" xmlns="http://www.w3.org/2000/svg" xmlns:xlink="http://www.w3.org/1999/xlink">
<g id="graph0" class="graph" transform="scale(1 1) rotate(0) translate(4 60)">
<title>As5047uHandler::ApplyConfiguration</title>
<!-- Node1 -->
<g id="Node000001" class="node">
<title>Node1</title>
<g id="a_Node000001"><a xlink:title="Apply configuration to sensor.">
<polygon fill="#999999" stroke="#666666" points="414,-37 218,-37 218,-18 414,-18 414,-37"/>
<text text-anchor="middle" x="316" y="-25" font-family="Helvetica,sans-Serif" font-size="10.00">As5047uHandler::ApplyConfiguration</text>
</a>
</g>
</g>
<!-- Node2 -->
<g id="Node000002" class="node">
<title>Node2</title>
<g id="a_Node000002"><a xlink:href="classAs5047uHandler.html#a4dcfcea95fe8114ca7e0e5554d21ebc0" target="_top" xlink:title="Initialize the AS5047U sensor (lazy initialization)">
<polygon fill="white" stroke="#666666" points="163.5,-56 18.5,-56 18.5,-37 163.5,-37 163.5,-56"/>
<text text-anchor="middle" x="91" y="-44" font-family="Helvetica,sans-Serif" font-size="10.00">As5047uHandler::Initialize</text>
</a>
</g>
</g>
<!-- Node1&#45;&gt;Node2 -->
<g id="edge1_Node000001_Node000002" class="edge">
<title>Node1&#45;&gt;Node2</title>
<g id="a_edge1_Node000001_Node000002"><a xlink:title=" ">
<path fill="none" stroke="#63b8ff" d="M207.56,-36.65C192.68,-37.92 177.7,-39.2 163.69,-40.39"/>
<polygon fill="#63b8ff" stroke="#63b8ff" points="208.17,-40.11 217.84,-35.78 207.58,-33.14 208.17,-40.11"/>
</a>
</g>
</g>
<!-- Node3 -->
<g id="Node000003" class="node">
<title>Node3</title>
<g id="a_Node000003"><a xlink:href="classAs5047uHandler.html#a7cbd322b961c33b684227abd9581bd4b" target="_top" xlink:title="Reset sensor to default configuration.">
<polygon fill="white" stroke="#666666" points="182,-19 0,-19 0,0 182,0 182,-19"/>
<text text-anchor="middle" x="91" y="-7" font-family="Helvetica,sans-Serif" font-size="10.00">As5047uHandler::ResetToDefaults</text>
</a>
</g>
</g>
<!-- Node1&#45;&gt;Node3 -->
<g id="edge2_Node000001_Node000003" class="edge">
<title>Node1&#45;&gt;Node3</title>
<g id="a_edge2_Node000001_Node000003"><a xlink:title=" ">
<path fill="none" stroke="#63b8ff" d="M207.8,-18.85C199.22,-18.15 190.61,-17.46 182.16,-16.78"/>
<polygon fill="#63b8ff" stroke="#63b8ff" points="207.59,-22.34 217.84,-19.66 208.15,-15.36 207.59,-22.34"/>
</a>
</g>
</g>
</g>
</svg>
