<?xml version="1.0" encoding="UTF-8" standalone="no"?>
<!DOCTYPE svg PUBLIC "-//W3C//DTD SVG 1.1//EN"
 "http://www.w3.org/Graphics/SVG/1.1/DTD/svg11.dtd">
<!-- Generated by graphviz version 2.43.0 (0)
 -->
<!-- Title: Tmc9660Handler::EnableMotor Pages: 1 -->
<svg width="950pt" height="242pt"
 viewBox="0.00 0.00 950.00 241.50" xmlns="http://www.w3.org/2000/svg" xmlns:xlink="http://www.w3.org/1999/xlink">
<g id="graph0" class="graph" transform="scale(1 1) rotate(0) translate(4 237.5)">
<title>Tmc9660Handler::EnableMotor</title>
<!-- Node1 -->
<g id="Node000001" class="node">
<title>Node1</title>
<g id="a_Node000001"><a xlink:title="Enable the motor driver output stage.">
<polygon fill="#999999" stroke="#666666" points="167,-195.5 0,-195.5 0,-176.5 167,-176.5 167,-195.5"/>
<text text-anchor="middle" x="83.5" y="-183.5" font-family="Helvetica,sans-Serif" font-size="10.00">Tmc9660Handler::EnableMotor</text>
</a>
</g>
</g>
<!-- Node2 -->
<g id="Node000002" class="node">
<title>Node2</title>
<g id="a_Node000002"><a xlink:href="classTmc9660Handler.html#a5a279ae9d4b5a8e0d71cb24577ad88ea" target="_top" xlink:title="Ensure driver is initialized (lazy init entrypoint).">
<polygon fill="white" stroke="#666666" points="390,-122.5 203,-122.5 203,-103.5 390,-103.5 390,-122.5"/>
<text text-anchor="middle" x="296.5" y="-110.5" font-family="Helvetica,sans-Serif" font-size="10.00">Tmc9660Handler::EnsureInitialized</text>
</a>
</g>
</g>
<!-- Node1&#45;&gt;Node2 -->
<g id="edge1_Node000001_Node000002" class="edge">
<title>Node1&#45;&gt;Node2</title>
<g id="a_edge1_Node000001_Node000002"><a xlink:title=" ">
<path fill="none" stroke="#63b8ff" d="M112.08,-176.46C149.52,-163.5 216.53,-140.32 258.36,-125.85"/>
<polygon fill="#63b8ff" stroke="#63b8ff" points="259.6,-129.12 267.91,-122.55 257.31,-122.51 259.6,-129.12"/>
</a>
</g>
</g>
<!-- Node7 -->
<g id="Node000007" class="node">
<title>Node7</title>
<g id="a_Node000007"><a xlink:href="classLogger.html#a5789d11f8f1356e2192c0023a089cbc4" target="_top" xlink:title="Get singleton instance.">
<polygon fill="white" stroke="#666666" points="750.5,-196.5 636.5,-196.5 636.5,-177.5 750.5,-177.5 750.5,-196.5"/>
<text text-anchor="middle" x="693.5" y="-184.5" font-family="Helvetica,sans-Serif" font-size="10.00">Logger::GetInstance</text>
</a>
</g>
</g>
<!-- Node1&#45;&gt;Node7 -->
<g id="edge15_Node000001_Node000007" class="edge">
<title>Node1&#45;&gt;Node7</title>
<g id="a_edge15_Node000001_Node000007"><a xlink:title=" ">
<path fill="none" stroke="#63b8ff" d="M167.13,-186.14C288.98,-186.34 514.46,-186.71 626.19,-186.89"/>
<polygon fill="#63b8ff" stroke="#63b8ff" points="626.31,-190.39 636.32,-186.91 626.32,-183.39 626.31,-190.39"/>
</a>
</g>
</g>
<!-- Node11 -->
<g id="Node000011" class="node">
<title>Node11</title>
<g id="a_Node000011"><a xlink:href="classLogger.html#a8c19c14724b0be1d2be63da4258c001a" target="_top" xlink:title="Log warning message.">
<polygon fill="white" stroke="#666666" points="733.5,-233.5 653.5,-233.5 653.5,-214.5 733.5,-214.5 733.5,-233.5"/>
<text text-anchor="middle" x="693.5" y="-221.5" font-family="Helvetica,sans-Serif" font-size="10.00">Logger::Warn</text>
</a>
</g>
</g>
<!-- Node1&#45;&gt;Node11 -->
<g id="edge16_Node000001_Node000011" class="edge">
<title>Node1&#45;&gt;Node11</title>
<g id="a_edge16_Node000001_Node000011"><a xlink:title=" ">
<path fill="none" stroke="#63b8ff" d="M158.38,-195.52C173.14,-197.2 188.55,-198.79 203,-200 363.71,-213.42 554.79,-220.12 643.16,-222.7"/>
<polygon fill="#63b8ff" stroke="#63b8ff" points="643.32,-226.21 653.42,-222.99 643.52,-219.21 643.32,-226.21"/>
</a>
</g>
</g>
<!-- Node3 -->
<g id="Node000003" class="node">
<title>Node3</title>
<g id="a_Node000003"><a xlink:href="classTmc9660Handler.html#adc564847f8ae26c47412aaee0758991c" target="_top" xlink:title="Initialize the TMC9660 device.">
<polygon fill="white" stroke="#666666" points="574,-103.5 426,-103.5 426,-84.5 574,-84.5 574,-103.5"/>
<text text-anchor="middle" x="500" y="-91.5" font-family="Helvetica,sans-Serif" font-size="10.00">Tmc9660Handler::Initialize</text>
</a>
</g>
</g>
<!-- Node2&#45;&gt;Node3 -->
<g id="edge2_Node000002_Node000003" class="edge">
<title>Node2&#45;&gt;Node3</title>
<g id="a_edge2_Node000002_Node000003"><a xlink:title=" ">
<path fill="none" stroke="#63b8ff" d="M390.29,-104.25C398.73,-103.45 407.25,-102.65 415.61,-101.86"/>
<polygon fill="#63b8ff" stroke="#63b8ff" points="416.08,-105.33 425.7,-100.91 415.42,-98.37 416.08,-105.33"/>
</a>
</g>
</g>
<!-- Node9 -->
<g id="Node000009" class="node">
<title>Node9</title>
<g id="a_Node000009"><a xlink:href="classTmc9660Handler.html#a13db97d201a287d8aa60384e04070b9f" target="_top" xlink:title="Check if the TMC9660 driver has been initialized and is ready.">
<polygon fill="white" stroke="#666666" points="765.5,-30 621.5,-30 621.5,0 765.5,0 765.5,-30"/>
<text text-anchor="start" x="629.5" y="-18" font-family="Helvetica,sans-Serif" font-size="10.00">Tmc9660Handler::IsDriver</text>
<text text-anchor="middle" x="693.5" y="-7" font-family="Helvetica,sans-Serif" font-size="10.00">Ready</text>
</a>
</g>
</g>
<!-- Node2&#45;&gt;Node9 -->
<g id="edge14_Node000002_Node000009" class="edge">
<title>Node2&#45;&gt;Node9</title>
<g id="a_edge14_Node000002_Node000009"><a xlink:title=" ">
<path fill="none" stroke="#63b8ff" d="M328.79,-103.47C354.73,-95.69 392.62,-84.62 426,-76 488.06,-59.98 558.81,-43.88 611.81,-32.25"/>
<polygon fill="#63b8ff" stroke="#63b8ff" points="612.8,-35.62 621.82,-30.06 611.31,-28.78 612.8,-35.62"/>
</a>
</g>
</g>
<!-- Node4 -->
<g id="Node000004" class="node">
<title>Node4</title>
<g id="a_Node000004"><a xlink:href="classLogger.html#a5e4bcdaea60b9ac227b564d780388769" target="_top" xlink:title="Log error message.">
<polygon fill="white" stroke="#666666" points="733,-104.5 654,-104.5 654,-85.5 733,-85.5 733,-104.5"/>
<text text-anchor="middle" x="693.5" y="-92.5" font-family="Helvetica,sans-Serif" font-size="10.00">Logger::Error</text>
</a>
</g>
</g>
<!-- Node3&#45;&gt;Node4 -->
<g id="edge3_Node000003_Node000004" class="edge">
<title>Node3&#45;&gt;Node4</title>
<g id="a_edge3_Node000003_Node000004"><a xlink:title=" ">
<path fill="none" stroke="#63b8ff" d="M574.22,-94.38C597.54,-94.5 622.75,-94.64 643.88,-94.75"/>
<polygon fill="#63b8ff" stroke="#63b8ff" points="643.88,-98.25 653.9,-94.8 643.92,-91.25 643.88,-98.25"/>
</a>
</g>
</g>
<!-- Node3&#45;&gt;Node7 -->
<g id="edge6_Node000003_Node000007" class="edge">
<title>Node3&#45;&gt;Node7</title>
<g id="a_edge6_Node000003_Node000007"><a xlink:title=" ">
<path fill="none" stroke="#63b8ff" d="M511.9,-103.69C530.59,-119.78 570.58,-151.93 610,-169 615.13,-171.22 620.56,-173.18 626.09,-174.91"/>
<polygon fill="#63b8ff" stroke="#63b8ff" points="625.53,-178.39 636.1,-177.77 627.45,-171.65 625.53,-178.39"/>
</a>
</g>
</g>
<!-- Node8 -->
<g id="Node000008" class="node">
<title>Node8</title>
<g id="a_Node000008"><a xlink:href="classLogger.html#a1c0c947d87884bca0395fd38d19d1102" target="_top" xlink:title="Log info message.">
<polygon fill="white" stroke="#666666" points="730.5,-67.5 656.5,-67.5 656.5,-48.5 730.5,-48.5 730.5,-67.5"/>
<text text-anchor="middle" x="693.5" y="-55.5" font-family="Helvetica,sans-Serif" font-size="10.00">Logger::Info</text>
</a>
</g>
</g>
<!-- Node3&#45;&gt;Node8 -->
<g id="edge7_Node000003_Node000008" class="edge">
<title>Node3&#45;&gt;Node8</title>
<g id="a_edge7_Node000003_Node000008"><a xlink:title=" ">
<path fill="none" stroke="#63b8ff" d="M551.56,-84.49C580.88,-78.98 617.52,-72.1 646.09,-66.72"/>
<polygon fill="#63b8ff" stroke="#63b8ff" points="647.05,-70.11 656.23,-64.82 645.75,-63.23 647.05,-70.11"/>
</a>
</g>
</g>
<!-- Node3&#45;&gt;Node9 -->
<g id="edge10_Node000003_Node000009" class="edge">
<title>Node3&#45;&gt;Node9</title>
<g id="a_edge10_Node000003_Node000009"><a xlink:title=" ">
<path fill="none" stroke="#63b8ff" d="M517.55,-84.44C538.53,-72.6 576.08,-52.36 610,-39 615.12,-36.98 620.47,-35.05 625.89,-33.22"/>
<polygon fill="#63b8ff" stroke="#63b8ff" points="627.25,-36.46 635.67,-30.03 625.08,-29.8 627.25,-36.46"/>
</a>
</g>
</g>
<!-- Node10 -->
<g id="Node000010" class="node">
<title>Node10</title>
<g id="a_Node000010"><a xlink:href="classTmc9660Handler.html#a393382194d0602e7aa02da6a8fd7a20a" target="_top" xlink:title="Get a reference to the Temperature wrapper.">
<polygon fill="white" stroke="#666666" points="777,-141.5 610,-141.5 610,-122.5 777,-122.5 777,-141.5"/>
<text text-anchor="middle" x="693.5" y="-129.5" font-family="Helvetica,sans-Serif" font-size="10.00">Tmc9660Handler::temperature</text>
</a>
</g>
</g>
<!-- Node3&#45;&gt;Node10 -->
<g id="edge11_Node000003_Node000010" class="edge">
<title>Node3&#45;&gt;Node10</title>
<g id="a_edge11_Node000003_Node000010"><a xlink:title=" ">
<path fill="none" stroke="#63b8ff" d="M549.32,-103.59C575.16,-108.72 607.17,-115.07 634.36,-120.46"/>
<polygon fill="#63b8ff" stroke="#63b8ff" points="634.03,-123.97 644.52,-122.48 635.4,-117.1 634.03,-123.97"/>
</a>
</g>
</g>
<!-- Node5 -->
<g id="Node000005" class="node">
<title>Node5</title>
<g id="a_Node000005"><a xlink:href="classLogger.html#a737b981213c02321a5235848334d7191" target="_top" xlink:title="Check if log level is enabled for tag.">
<polygon fill="white" stroke="#666666" points="942,-122.5 813,-122.5 813,-103.5 942,-103.5 942,-122.5"/>
<text text-anchor="middle" x="877.5" y="-110.5" font-family="Helvetica,sans-Serif" font-size="10.00">Logger::IsLevelEnabled</text>
</a>
</g>
</g>
<!-- Node4&#45;&gt;Node5 -->
<g id="edge4_Node000004_Node000005" class="edge">
<title>Node4&#45;&gt;Node5</title>
<g id="a_edge4_Node000004_Node000005"><a xlink:title=" ">
<path fill="none" stroke="#63b8ff" d="M733.1,-98.82C753.37,-100.82 778.9,-103.35 802.78,-105.71"/>
<polygon fill="#63b8ff" stroke="#63b8ff" points="802.6,-109.21 812.89,-106.71 803.29,-102.24 802.6,-109.21"/>
</a>
</g>
</g>
<!-- Node6 -->
<g id="Node000006" class="node">
<title>Node6</title>
<g id="a_Node000006"><a xlink:href="classLogger.html#aeede6ac18db92a47caede076ef188a13" target="_top" xlink:title="Internal logging method.">
<polygon fill="white" stroke="#666666" points="932.5,-85.5 822.5,-85.5 822.5,-66.5 932.5,-66.5 932.5,-85.5"/>
<text text-anchor="middle" x="877.5" y="-73.5" font-family="Helvetica,sans-Serif" font-size="10.00">Logger::LogInternal</text>
</a>
</g>
</g>
<!-- Node4&#45;&gt;Node6 -->
<g id="edge5_Node000004_Node000006" class="edge">
<title>Node4&#45;&gt;Node6</title>
<g id="a_edge5_Node000004_Node000006"><a xlink:title=" ">
<path fill="none" stroke="#63b8ff" d="M733.1,-90.97C756.14,-88.57 785.97,-85.45 812.46,-82.69"/>
<polygon fill="#63b8ff" stroke="#63b8ff" points="812.84,-86.16 822.43,-81.65 812.12,-79.2 812.84,-86.16"/>
</a>
</g>
</g>
<!-- Node8&#45;&gt;Node5 -->
<g id="edge8_Node000008_Node000005" class="edge">
<title>Node8&#45;&gt;Node5</title>
<g id="a_edge8_Node000008_Node000005"><a xlink:title=" ">
<path fill="none" stroke="#63b8ff" d="M730.77,-64.41C745.36,-67.49 762.2,-71.68 777,-77 793.83,-83.05 796.32,-88.53 813,-95 818.07,-96.97 823.45,-98.83 828.85,-100.55"/>
<polygon fill="#63b8ff" stroke="#63b8ff" points="827.92,-103.92 838.51,-103.49 829.96,-97.23 827.92,-103.92"/>
</a>
</g>
</g>
<!-- Node8&#45;&gt;Node6 -->
<g id="edge9_Node000008_Node000006" class="edge">
<title>Node8&#45;&gt;Node6</title>
<g id="a_edge9_Node000008_Node000006"><a xlink:title=" ">
<path fill="none" stroke="#63b8ff" d="M730.89,-61.6C754.07,-63.89 784.75,-66.93 811.97,-69.62"/>
<polygon fill="#63b8ff" stroke="#63b8ff" points="811.92,-73.13 822.21,-70.63 812.61,-66.16 811.92,-73.13"/>
</a>
</g>
</g>
<!-- Node10&#45;&gt;Node2 -->
<g id="edge12_Node000010_Node000002" class="edge">
<title>Node10&#45;&gt;Node2</title>
<g id="a_edge12_Node000010_Node000002"><a xlink:title=" ">
<path fill="none" stroke="#63b8ff" d="M609.87,-128.03C548.94,-125.09 465.67,-121.09 400.42,-117.95"/>
<polygon fill="#63b8ff" stroke="#63b8ff" points="400.27,-114.44 390.11,-117.45 399.93,-121.43 400.27,-114.44"/>
</a>
</g>
</g>
<!-- Node10&#45;&gt;Node10 -->
<g id="edge13_Node000010_Node000010" class="edge">
<title>Node10&#45;&gt;Node10</title>
<g id="a_edge13_Node000010_Node000010"><a xlink:title=" ">
<path fill="none" stroke="#63b8ff" d="M665.14,-141.58C651.34,-150.23 660.8,-159.5 693.5,-159.5 715.98,-159.5 727.48,-155.12 727.98,-149.57"/>
<polygon fill="#63b8ff" stroke="#63b8ff" points="730.72,-147.39 721.86,-141.58 725.16,-151.65 730.72,-147.39"/>
</a>
</g>
</g>
<!-- Node11&#45;&gt;Node5 -->
<g id="edge17_Node000011_Node000005" class="edge">
<title>Node11&#45;&gt;Node5</title>
<g id="a_edge17_Node000011_Node000005"><a xlink:title=" ">
<path fill="none" stroke="#63b8ff" d="M733.77,-219.84C747.97,-217.22 763.76,-212.95 777,-206 812.88,-187.17 845.32,-151.87 862.84,-130.59"/>
<polygon fill="#63b8ff" stroke="#63b8ff" points="865.66,-132.66 869.2,-122.68 860.21,-128.28 865.66,-132.66"/>
</a>
</g>
</g>
<!-- Node11&#45;&gt;Node6 -->
<g id="edge18_Node000011_Node000006" class="edge">
<title>Node11&#45;&gt;Node6</title>
<g id="a_edge18_Node000011_Node000006"><a xlink:title=" ">
<path fill="none" stroke="#63b8ff" d="M733.57,-223.57C748.75,-221.49 765.27,-216.63 777,-206 815.44,-171.18 775.91,-131.25 813,-95 814.48,-93.55 816.07,-92.21 817.74,-90.98"/>
<polygon fill="#63b8ff" stroke="#63b8ff" points="819.92,-93.75 826.68,-85.6 816.31,-87.75 819.92,-93.75"/>
</a>
</g>
</g>
</g>
</svg>
