<?xml version="1.0" encoding="UTF-8" standalone="no"?>
<!DOCTYPE svg PUBLIC "-//W3C//DTD SVG 1.1//EN"
 "http://www.w3.org/Graphics/SVG/1.1/DTD/svg11.dtd">
<!-- Generated by graphviz version 2.43.0 (0)
 -->
<!-- Title: Ws2812Handler::Initialize Pages: 1 -->
<svg width="787pt" height="138pt"
 viewBox="0.00 0.00 787.00 138.00" xmlns="http://www.w3.org/2000/svg" xmlns:xlink="http://www.w3.org/1999/xlink">
<g id="graph0" class="graph" transform="scale(1 1) rotate(0) translate(4 134)">
<title>Ws2812Handler::Initialize</title>
<!-- Node1 -->
<g id="Node000001" class="node">
<title>Node1</title>
<g id="a_Node000001"><a xlink:title="Initialize the RMT channel and LED strip.">
<polygon fill="#999999" stroke="#666666" points="779,-74 637,-74 637,-55 779,-55 779,-74"/>
<text text-anchor="middle" x="708" y="-62" font-family="Helvetica,sans-Serif" font-size="10.00">Ws2812Handler::Initialize</text>
</a>
</g>
</g>
<!-- Node2 -->
<g id="Node000002" class="node">
<title>Node2</title>
<g id="a_Node000002"><a xlink:href="classWs2812Handler.html#afe5f397b22e9b92cf2fb2cebae6e123d" target="_top" xlink:title=" ">
<polygon fill="white" stroke="#666666" points="601,-79.5 420,-79.5 420,-49.5 601,-49.5 601,-79.5"/>
<text text-anchor="start" x="428" y="-67.5" font-family="Helvetica,sans-Serif" font-size="10.00">Ws2812Handler::EnsureInitialized</text>
<text text-anchor="middle" x="510.5" y="-56.5" font-family="Helvetica,sans-Serif" font-size="10.00">Locked</text>
</a>
</g>
</g>
<!-- Node1&#45;&gt;Node2 -->
<g id="edge1_Node000001_Node000002" class="edge">
<title>Node1&#45;&gt;Node2</title>
<g id="a_edge1_Node000001_Node000002"><a xlink:title=" ">
<path fill="none" stroke="#63b8ff" d="M626.78,-64.5C618.33,-64.5 609.7,-64.5 601.16,-64.5"/>
<polygon fill="#63b8ff" stroke="#63b8ff" points="626.97,-68 636.97,-64.5 626.97,-61 626.97,-68"/>
</a>
</g>
</g>
<!-- Node3 -->
<g id="Node000003" class="node">
<title>Node3</title>
<g id="a_Node000003"><a xlink:href="classWs2812Handler.html#a586683dcf63f17194b77c026972c7b2b" target="_top" xlink:title="Dump diagnostics to logger.">
<polygon fill="white" stroke="#666666" points="384,-130 198,-130 198,-111 384,-111 384,-130"/>
<text text-anchor="middle" x="291" y="-118" font-family="Helvetica,sans-Serif" font-size="10.00">Ws2812Handler::DumpDiagnostics</text>
</a>
</g>
</g>
<!-- Node2&#45;&gt;Node3 -->
<g id="edge2_Node000002_Node000003" class="edge">
<title>Node2&#45;&gt;Node3</title>
<g id="a_edge2_Node000002_Node000003"><a xlink:title=" ">
<path fill="none" stroke="#63b8ff" d="M454.19,-82.56C432.44,-89.32 407.18,-96.74 384,-102.5 371.68,-105.56 358.33,-108.43 345.71,-110.94"/>
<polygon fill="#63b8ff" stroke="#63b8ff" points="455.41,-85.84 463.91,-79.51 453.32,-79.17 455.41,-85.84"/>
</a>
</g>
</g>
<!-- Node4 -->
<g id="Node000004" class="node">
<title>Node4</title>
<g id="a_Node000004"><a xlink:href="classWs2812Handler.html#a764cc93c64a81844a284ac7515ea8366" target="_top" xlink:title="Ensure strip resources are initialized (lazy init entrypoint).">
<polygon fill="white" stroke="#666666" points="381.5,-93 200.5,-93 200.5,-74 381.5,-74 381.5,-93"/>
<text text-anchor="middle" x="291" y="-81" font-family="Helvetica,sans-Serif" font-size="10.00">Ws2812Handler::EnsureInitialized</text>
</a>
</g>
</g>
<!-- Node2&#45;&gt;Node4 -->
<g id="edge3_Node000002_Node000004" class="edge">
<title>Node2&#45;&gt;Node4</title>
<g id="a_edge3_Node000002_Node000004"><a xlink:title=" ">
<path fill="none" stroke="#63b8ff" d="M409.65,-73.22C400.26,-74.04 390.79,-74.87 381.52,-75.68"/>
<polygon fill="#63b8ff" stroke="#63b8ff" points="410.12,-76.69 419.78,-72.34 409.51,-69.72 410.12,-76.69"/>
</a>
</g>
</g>
<!-- Node5 -->
<g id="Node000005" class="node">
<title>Node5</title>
<g id="a_Node000005"><a xlink:href="classWs2812Handler.html#a3e09ba2c15d5b0e7d6d254e22f634ae8" target="_top" xlink:title="Get the animator object.">
<polygon fill="white" stroke="#666666" points="372,-56 210,-56 210,-37 372,-37 372,-56"/>
<text text-anchor="middle" x="291" y="-44" font-family="Helvetica,sans-Serif" font-size="10.00">Ws2812Handler::GetAnimator</text>
</a>
</g>
</g>
<!-- Node2&#45;&gt;Node5 -->
<g id="edge4_Node000002_Node000005" class="edge">
<title>Node2&#45;&gt;Node5</title>
<g id="a_edge4_Node000002_Node000005"><a xlink:title=" ">
<path fill="none" stroke="#63b8ff" d="M409.72,-56.24C397.12,-55.2 384.36,-54.14 372.12,-53.13"/>
<polygon fill="#63b8ff" stroke="#63b8ff" points="409.52,-59.74 419.78,-57.07 410.1,-52.76 409.52,-59.74"/>
</a>
</g>
</g>
<!-- Node7 -->
<g id="Node000007" class="node">
<title>Node7</title>
<g id="a_Node000007"><a xlink:href="classWs2812Handler.html#a7471840392adad3cab496e2dc57dc792" target="_top" xlink:title="Get the underlying LED strip object.">
<polygon fill="white" stroke="#666666" points="361,-19 221,-19 221,0 361,0 361,-19"/>
<text text-anchor="middle" x="291" y="-7" font-family="Helvetica,sans-Serif" font-size="10.00">Ws2812Handler::GetStrip</text>
</a>
</g>
</g>
<!-- Node2&#45;&gt;Node7 -->
<g id="edge6_Node000002_Node000007" class="edge">
<title>Node2&#45;&gt;Node7</title>
<g id="a_edge6_Node000002_Node000007"><a xlink:title=" ">
<path fill="none" stroke="#63b8ff" d="M450.55,-46.59C429.63,-40.5 405.85,-33.88 384,-28.5 370.38,-25.15 355.53,-21.9 341.81,-19.07"/>
<polygon fill="#63b8ff" stroke="#63b8ff" points="449.68,-49.99 460.26,-49.44 451.65,-43.27 449.68,-49.99"/>
</a>
</g>
</g>
<!-- Node6 -->
<g id="Node000006" class="node">
<title>Node6</title>
<g id="a_Node000006"><a xlink:href="classWs2812Handler.html#ad564e91a669c0a06f5abde5a3ae8a6a6" target="_top" xlink:title=" ">
<polygon fill="white" stroke="#666666" points="162,-56 0,-56 0,-37 162,-37 162,-56"/>
<text text-anchor="middle" x="81" y="-44" font-family="Helvetica,sans-Serif" font-size="10.00">Ws2812Handler::GetAnimator</text>
</a>
</g>
</g>
<!-- Node5&#45;&gt;Node6 -->
<g id="edge5_Node000005_Node000006" class="edge">
<title>Node5&#45;&gt;Node6</title>
<g id="a_edge5_Node000005_Node000006"><a xlink:title=" ">
<path fill="none" stroke="#63b8ff" d="M199.87,-46.5C187.3,-46.5 174.45,-46.5 162.08,-46.5"/>
<polygon fill="#63b8ff" stroke="#63b8ff" points="199.88,-50 209.88,-46.5 199.88,-43 199.88,-50"/>
</a>
</g>
</g>
<!-- Node8 -->
<g id="Node000008" class="node">
<title>Node8</title>
<g id="a_Node000008"><a xlink:href="classWs2812Handler.html#af97f5cc26ad1fb0f4722e72346ca7caa" target="_top" xlink:title=" ">
<polygon fill="white" stroke="#666666" points="151,-19 11,-19 11,0 151,0 151,-19"/>
<text text-anchor="middle" x="81" y="-7" font-family="Helvetica,sans-Serif" font-size="10.00">Ws2812Handler::GetStrip</text>
</a>
</g>
</g>
<!-- Node7&#45;&gt;Node8 -->
<g id="edge7_Node000007_Node000008" class="edge">
<title>Node7&#45;&gt;Node8</title>
<g id="a_edge7_Node000007_Node000008"><a xlink:title=" ">
<path fill="none" stroke="#63b8ff" d="M210.65,-9.5C191.11,-9.5 170.34,-9.5 151.31,-9.5"/>
<polygon fill="#63b8ff" stroke="#63b8ff" points="210.74,-13 220.74,-9.5 210.74,-6 210.74,-13"/>
</a>
</g>
</g>
</g>
</svg>
