<?xml version="1.0" encoding="UTF-8" standalone="no"?>
<!DOCTYPE svg PUBLIC "-//W3C//DTD SVG 1.1//EN"
 "http://www.w3.org/Graphics/SVG/1.1/DTD/svg11.dtd">
<!-- Generated by graphviz version 2.43.0 (0)
 -->
<!-- Title: Bno08xHandler::Initialize Pages: 1 -->
<svg width="546pt" height="236pt"
 viewBox="0.00 0.00 546.00 235.50" xmlns="http://www.w3.org/2000/svg" xmlns:xlink="http://www.w3.org/1999/xlink">
<g id="graph0" class="graph" transform="scale(1 1) rotate(0) translate(4 231.5)">
<title>Bno08xHandler::Initialize</title>
<!-- Node1 -->
<g id="Node000001" class="node">
<title>Node1</title>
<g id="a_Node000001"><a xlink:title="Initialize the BNO08x sensor.">
<polygon fill="#999999" stroke="#666666" points="140,-114 0,-114 0,-95 140,-95 140,-114"/>
<text text-anchor="middle" x="70" y="-102" font-family="Helvetica,sans-Serif" font-size="10.00">Bno08xHandler::Initialize</text>
</a>
</g>
</g>
<!-- Node2 -->
<g id="Node000002" class="node">
<title>Node2</title>
<g id="a_Node000002"><a xlink:href="classBno08xHandler.html#a5669d8d3146a450430e5644b8d297de5" target="_top" xlink:title="Internal: apply configured sensor enables (assumes mutex is held).">
<polygon fill="white" stroke="#666666" points="344.5,-227.5 189.5,-227.5 189.5,-197.5 344.5,-197.5 344.5,-227.5"/>
<text text-anchor="start" x="197.5" y="-215.5" font-family="Helvetica,sans-Serif" font-size="10.00">Bno08xHandler::applyConfig</text>
<text text-anchor="middle" x="267" y="-204.5" font-family="Helvetica,sans-Serif" font-size="10.00">Locked</text>
</a>
</g>
</g>
<!-- Node1&#45;&gt;Node2 -->
<g id="edge1_Node000001_Node000002" class="edge">
<title>Node1&#45;&gt;Node2</title>
<g id="a_edge1_Node000001_Node000002"><a xlink:title=" ">
<path fill="none" stroke="#63b8ff" d="M80.17,-114.11C97.34,-131.53 136.2,-168.4 176,-188.5 179.82,-190.43 183.8,-192.21 187.89,-193.86"/>
<polygon fill="#63b8ff" stroke="#63b8ff" points="186.96,-197.25 197.55,-197.48 189.41,-190.7 186.96,-197.25"/>
</a>
</g>
</g>
<!-- Node4 -->
<g id="Node000004" class="node">
<title>Node4</title>
<g id="a_Node000004"><a xlink:href="classIBno08xDriverOps.html#a0ca90c1a5664ab3eb83f691aff34faa0" target="_top" xlink:title=" ">
<polygon fill="white" stroke="#666666" points="336.5,-179 197.5,-179 197.5,-160 336.5,-160 336.5,-179"/>
<text text-anchor="middle" x="267" y="-167" font-family="Helvetica,sans-Serif" font-size="10.00">IBno08xDriverOps::Begin</text>
</a>
</g>
</g>
<!-- Node1&#45;&gt;Node4 -->
<g id="edge3_Node000001_Node000004" class="edge">
<title>Node1&#45;&gt;Node4</title>
<g id="a_edge3_Node000001_Node000004"><a xlink:title=" ">
<path fill="none" stroke="#63b8ff" d="M89.52,-114C110.15,-124.26 144.73,-140.47 176,-150.5 184.29,-153.16 193.12,-155.55 201.9,-157.66"/>
<polygon fill="#63b8ff" stroke="#63b8ff" points="201.22,-161.09 211.75,-159.92 202.79,-154.27 201.22,-161.09"/>
</a>
</g>
</g>
<!-- Node5 -->
<g id="Node000005" class="node">
<title>Node5</title>
<g id="a_Node000005"><a xlink:href="classIBno08xDriverOps.html#a66418ccb85cd8eb8eea327fa979a2b6a" target="_top" xlink:title=" ">
<polygon fill="white" stroke="#666666" points="346,-141.5 188,-141.5 188,-111.5 346,-111.5 346,-141.5"/>
<text text-anchor="start" x="196" y="-129.5" font-family="Helvetica,sans-Serif" font-size="10.00">IBno08xDriverOps::Hardware</text>
<text text-anchor="middle" x="267" y="-118.5" font-family="Helvetica,sans-Serif" font-size="10.00">Reset</text>
</a>
</g>
</g>
<!-- Node1&#45;&gt;Node5 -->
<g id="edge4_Node000001_Node000005" class="edge">
<title>Node1&#45;&gt;Node5</title>
<g id="a_edge4_Node000001_Node000005"><a xlink:title=" ">
<path fill="none" stroke="#63b8ff" d="M140.02,-112.29C152.21,-113.66 165.05,-115.11 177.69,-116.54"/>
<polygon fill="#63b8ff" stroke="#63b8ff" points="177.43,-120.03 187.76,-117.67 178.21,-113.07 177.43,-120.03"/>
</a>
</g>
</g>
<!-- Node6 -->
<g id="Node000006" class="node">
<title>Node6</title>
<g id="a_Node000006"><a xlink:href="classIBno08xDriverOps.html#a1cfdc8fea4d31f36d9d8219b90beeae4" target="_top" xlink:title="Open the transport (bus + control GPIO setup) before reset or SH&#45;2.">
<polygon fill="white" stroke="#666666" points="358,-93 176,-93 176,-74 358,-74 358,-93"/>
<text text-anchor="middle" x="267" y="-81" font-family="Helvetica,sans-Serif" font-size="10.00">IBno08xDriverOps::OpenTransport</text>
</a>
</g>
</g>
<!-- Node1&#45;&gt;Node6 -->
<g id="edge5_Node000001_Node000006" class="edge">
<title>Node1&#45;&gt;Node6</title>
<g id="a_edge5_Node000001_Node000006"><a xlink:title=" ">
<path fill="none" stroke="#63b8ff" d="M140.02,-97.07C148.96,-96.1 158.24,-95.11 167.53,-94.1"/>
<polygon fill="#63b8ff" stroke="#63b8ff" points="168.03,-97.57 177.6,-93.02 167.28,-90.61 168.03,-97.57"/>
</a>
</g>
</g>
<!-- Node7 -->
<g id="Node000007" class="node">
<title>Node7</title>
<g id="a_Node000007"><a xlink:href="classIBno08xDriverOps.html#a35854a70ef94b79c9193d40459341864" target="_top" xlink:title=" ">
<polygon fill="white" stroke="#666666" points="349,-56 185,-56 185,-37 349,-37 349,-56"/>
<text text-anchor="middle" x="267" y="-44" font-family="Helvetica,sans-Serif" font-size="10.00">IBno08xDriverOps::SetBootPin</text>
</a>
</g>
</g>
<!-- Node1&#45;&gt;Node7 -->
<g id="edge6_Node000001_Node000007" class="edge">
<title>Node1&#45;&gt;Node7</title>
<g id="a_edge6_Node000001_Node000007"><a xlink:title=" ">
<path fill="none" stroke="#63b8ff" d="M93.62,-94.99C114.66,-86.41 147.05,-73.88 176,-65.5 185.11,-62.86 194.83,-60.43 204.4,-58.24"/>
<polygon fill="#63b8ff" stroke="#63b8ff" points="205.27,-61.63 214.27,-56.05 203.75,-54.8 205.27,-61.63"/>
</a>
</g>
</g>
<!-- Node8 -->
<g id="Node000008" class="node">
<title>Node8</title>
<g id="a_Node000008"><a xlink:href="classIBno08xDriverOps.html#a04816a487d80027e6d6fe435f651b265" target="_top" xlink:title=" ">
<polygon fill="white" stroke="#666666" points="351.5,-19 182.5,-19 182.5,0 351.5,0 351.5,-19"/>
<text text-anchor="middle" x="267" y="-7" font-family="Helvetica,sans-Serif" font-size="10.00">IBno08xDriverOps::SetCallback</text>
</a>
</g>
</g>
<!-- Node1&#45;&gt;Node8 -->
<g id="edge7_Node000001_Node000008" class="edge">
<title>Node1&#45;&gt;Node8</title>
<g id="a_edge7_Node000001_Node000008"><a xlink:title=" ">
<path fill="none" stroke="#63b8ff" d="M81.1,-94.89C98.83,-78.6 137.32,-45.65 176,-28.5 181.75,-25.95 187.86,-23.74 194.08,-21.82"/>
<polygon fill="#63b8ff" stroke="#63b8ff" points="195.25,-25.12 203.92,-19.03 193.34,-18.39 195.25,-25.12"/>
</a>
</g>
</g>
<!-- Node3 -->
<g id="Node000003" class="node">
<title>Node3</title>
<g id="a_Node000003"><a xlink:href="classIBno08xDriverOps.html#a1da5bdfd4c8d7fbd42475ae7ee37fb98" target="_top" xlink:title=" ">
<polygon fill="white" stroke="#666666" points="538,-227.5 394,-227.5 394,-197.5 538,-197.5 538,-227.5"/>
<text text-anchor="start" x="402" y="-215.5" font-family="Helvetica,sans-Serif" font-size="10.00">IBno08xDriverOps::Enable</text>
<text text-anchor="middle" x="466" y="-204.5" font-family="Helvetica,sans-Serif" font-size="10.00">Sensor</text>
</a>
</g>
</g>
<!-- Node2&#45;&gt;Node3 -->
<g id="edge2_Node000002_Node000003" class="edge">
<title>Node2&#45;&gt;Node3</title>
<g id="a_edge2_Node000002_Node000003"><a xlink:title=" ">
<path fill="none" stroke="#63b8ff" d="M344.73,-212.5C357.52,-212.5 370.82,-212.5 383.71,-212.5"/>
<polygon fill="#63b8ff" stroke="#63b8ff" points="383.95,-216 393.95,-212.5 383.95,-209 383.95,-216"/>
</a>
</g>
</g>
</g>
</svg>
