<?xml version="1.0" encoding="UTF-8" standalone="no"?>
<!DOCTYPE svg PUBLIC "-//W3C//DTD SVG 1.1//EN"
 "http://www.w3.org/Graphics/SVG/1.1/DTD/svg11.dtd">
<!-- Generated by graphviz version 2.43.0 (0)
 -->
<!-- Title: As5047uHandler::GetSensor Pages: 1 -->
<svg width="1000pt" height="70pt"
 viewBox="0.00 0.00 1000.00 69.50" xmlns="http://www.w3.org/2000/svg" xmlns:xlink="http://www.w3.org/1999/xlink">
<g id="graph0" class="graph" transform="scale(1 1) rotate(0) translate(4 65.5)">
<title>As5047uHandler::GetSensor</title>
<!-- Node1 -->
<g id="Node000001" class="node">
<title>Node1</title>
<g id="a_Node000001"><a xlink:title="Get pointer to AS5047U driver for advanced operations.">
<polygon fill="#999999" stroke="#666666" points="153,-42.5 0,-42.5 0,-23.5 153,-23.5 153,-42.5"/>
<text text-anchor="middle" x="76.5" y="-30.5" font-family="Helvetica,sans-Serif" font-size="10.00">As5047uHandler::GetSensor</text>
</a>
</g>
</g>
<!-- Node2 -->
<g id="Node000002" class="node">
<title>Node2</title>
<g id="a_Node000002"><a xlink:href="classAs5047uHandler.html#a040ba453eb7892ab3189631d73a2f683" target="_top" xlink:title="Ensure initialized while mutex is already held.">
<polygon fill="white" stroke="#666666" points="373,-48 189,-48 189,-18 373,-18 373,-48"/>
<text text-anchor="start" x="197" y="-36" font-family="Helvetica,sans-Serif" font-size="10.00">As5047uHandler::EnsureInitialized</text>
<text text-anchor="middle" x="281" y="-25" font-family="Helvetica,sans-Serif" font-size="10.00">Locked</text>
</a>
</g>
</g>
<!-- Node1&#45;&gt;Node2 -->
<g id="edge1_Node000001_Node000002" class="edge">
<title>Node1&#45;&gt;Node2</title>
<g id="a_edge1_Node000001_Node000002"><a xlink:title=" ">
<path fill="none" stroke="#63b8ff" d="M153.19,-33C161.51,-33 170.07,-33 178.63,-33"/>
<polygon fill="#63b8ff" stroke="#63b8ff" points="178.67,-36.5 188.67,-33 178.67,-29.5 178.67,-36.5"/>
</a>
</g>
</g>
<!-- Node3 -->
<g id="Node000003" class="node">
<title>Node3</title>
<g id="a_Node000003"><a xlink:href="classAs5047uHandler.html#a157826010a85f4279b7a13791fcf2003" target="_top" xlink:title="Initialize the AS5047U sensor (lazy initialization)">
<polygon fill="white" stroke="#666666" points="554,-42.5 409,-42.5 409,-23.5 554,-23.5 554,-42.5"/>
<text text-anchor="middle" x="481.5" y="-30.5" font-family="Helvetica,sans-Serif" font-size="10.00">As5047uHandler::Initialize</text>
</a>
</g>
</g>
<!-- Node2&#45;&gt;Node3 -->
<g id="edge2_Node000002_Node000003" class="edge">
<title>Node2&#45;&gt;Node3</title>
<g id="a_edge2_Node000002_Node000003"><a xlink:title=" ">
<path fill="none" stroke="#63b8ff" d="M373.12,-33C381.67,-33 390.3,-33 398.75,-33"/>
<polygon fill="#63b8ff" stroke="#63b8ff" points="398.96,-36.5 408.96,-33 398.96,-29.5 398.96,-36.5"/>
</a>
</g>
</g>
<!-- Node4 -->
<g id="Node000004" class="node">
<title>Node4</title>
<g id="a_Node000004"><a xlink:href="classAs5047uHandler.html#a0e7c20d4fd883c55ff9091041ec04c39" target="_top" xlink:title="Apply configuration to sensor.">
<polygon fill="white" stroke="#666666" points="786,-61.5 590,-61.5 590,-42.5 786,-42.5 786,-61.5"/>
<text text-anchor="middle" x="688" y="-49.5" font-family="Helvetica,sans-Serif" font-size="10.00">As5047uHandler::ApplyConfiguration</text>
</a>
</g>
</g>
<!-- Node3&#45;&gt;Node4 -->
<g id="edge3_Node000003_Node000004" class="edge">
<title>Node3&#45;&gt;Node4</title>
<g id="a_edge3_Node000003_Node000004"><a xlink:title=" ">
<path fill="none" stroke="#63b8ff" d="M554.02,-39.65C562.39,-40.42 571.05,-41.23 579.76,-42.04"/>
<polygon fill="#63b8ff" stroke="#63b8ff" points="579.71,-45.55 589.99,-42.99 580.36,-38.58 579.71,-45.55"/>
</a>
</g>
</g>
<!-- Node5 -->
<g id="Node000005" class="node">
<title>Node5</title>
<g id="a_Node000005"><a xlink:href="classAs5047uHandler.html#a6854be00365afbb2eeddfb3177939456" target="_top" xlink:title="Update cached diagnostics.">
<polygon fill="white" stroke="#666666" points="785.5,-24.5 590.5,-24.5 590.5,-5.5 785.5,-5.5 785.5,-24.5"/>
<text text-anchor="middle" x="688" y="-12.5" font-family="Helvetica,sans-Serif" font-size="10.00">As5047uHandler::UpdateDiagnostics</text>
</a>
</g>
</g>
<!-- Node3&#45;&gt;Node5 -->
<g id="edge4_Node000003_Node000005" class="edge">
<title>Node3&#45;&gt;Node5</title>
<g id="a_edge4_Node000003_Node000005"><a xlink:title=" ">
<path fill="none" stroke="#63b8ff" d="M554.02,-26.7C562.56,-25.95 571.41,-25.17 580.31,-24.39"/>
<polygon fill="#63b8ff" stroke="#63b8ff" points="580.7,-27.87 590.35,-23.51 580.09,-20.9 580.7,-27.87"/>
</a>
</g>
</g>
<!-- Node6 -->
<g id="Node000006" class="node">
<title>Node6</title>
<g id="a_Node000006"><a xlink:href="classAs5047uHandler.html#a6b29b6418f7b2d19cbdcc65aa6eb9756" target="_top" xlink:title="Handle sensor errors and update diagnostics.">
<polygon fill="white" stroke="#666666" points="992,-30 822,-30 822,0 992,0 992,-30"/>
<text text-anchor="start" x="830" y="-18" font-family="Helvetica,sans-Serif" font-size="10.00">As5047uHandler::HandleSensor</text>
<text text-anchor="middle" x="907" y="-7" font-family="Helvetica,sans-Serif" font-size="10.00">Errors</text>
</a>
</g>
</g>
<!-- Node5&#45;&gt;Node6 -->
<g id="edge5_Node000005_Node000006" class="edge">
<title>Node5&#45;&gt;Node6</title>
<g id="a_edge5_Node000005_Node000006"><a xlink:title=" ">
<path fill="none" stroke="#63b8ff" d="M785.76,-15C794.37,-15 803.08,-15 811.67,-15"/>
<polygon fill="#63b8ff" stroke="#63b8ff" points="811.69,-18.5 821.69,-15 811.69,-11.5 811.69,-18.5"/>
</a>
</g>
</g>
</g>
</svg>
