<?xml version="1.0" encoding="UTF-8" standalone="no"?>
<!DOCTYPE svg PUBLIC "-//W3C//DTD SVG 1.1//EN"
 "http://www.w3.org/Graphics/SVG/1.1/DTD/svg11.dtd">
<!-- Generated by graphviz version 2.43.0 (0)
 -->
<!-- Title: Tmc9660Handler::Adc::ReadMotorDataChannel Pages: 1 -->
<svg width="1072pt" height="113pt"
 viewBox="0.00 0.00 1072.00 112.50" xmlns="http://www.w3.org/2000/svg" xmlns:xlink="http://www.w3.org/1999/xlink">
<g id="graph0" class="graph" transform="scale(1 1) rotate(0) translate(4 108.5)">
<title>Tmc9660Handler::Adc::ReadMotorDataChannel</title>
<!-- Node1 -->
<g id="Node000001" class="node">
<title>Node1</title>
<g id="a_Node000001"><a xlink:title="Read a motor data channel.">
<polygon fill="#999999" stroke="#666666" points="139,-51 0,-51 0,-21 139,-21 139,-51"/>
<text text-anchor="start" x="8" y="-39" font-family="Helvetica,sans-Serif" font-size="10.00">Tmc9660Handler::Adc</text>
<text text-anchor="middle" x="69.5" y="-28" font-family="Helvetica,sans-Serif" font-size="10.00">::ReadMotorDataChannel</text>
</a>
</g>
</g>
<!-- Node2 -->
<g id="Node000002" class="node">
<title>Node2</title>
<g id="a_Node000002"><a xlink:href="classTmc9660Handler.html#a393382194d0602e7aa02da6a8fd7a20a" target="_top" xlink:title="Get a reference to the Temperature wrapper.">
<polygon fill="white" stroke="#666666" points="342,-45.5 175,-45.5 175,-26.5 342,-26.5 342,-45.5"/>
<text text-anchor="middle" x="258.5" y="-33.5" font-family="Helvetica,sans-Serif" font-size="10.00">Tmc9660Handler::temperature</text>
</a>
</g>
</g>
<!-- Node1&#45;&gt;Node2 -->
<g id="edge1_Node000001_Node000002" class="edge">
<title>Node1&#45;&gt;Node2</title>
<g id="a_edge1_Node000001_Node000002"><a xlink:title=" ">
<path fill="none" stroke="#63b8ff" d="M139.07,-36C147.46,-36 156.14,-36 164.81,-36"/>
<polygon fill="#63b8ff" stroke="#63b8ff" points="164.97,-39.5 174.97,-36 164.97,-32.5 164.97,-39.5"/>
</a>
</g>
</g>
<!-- Node2&#45;&gt;Node2 -->
<g id="edge12_Node000002_Node000002" class="edge">
<title>Node2&#45;&gt;Node2</title>
<g id="a_edge12_Node000002_Node000002"><a xlink:title=" ">
<path fill="none" stroke="#63b8ff" d="M229.52,-45.58C215.43,-54.23 225.09,-63.5 258.5,-63.5 281.47,-63.5 293.22,-59.12 293.73,-53.57"/>
<polygon fill="#63b8ff" stroke="#63b8ff" points="296.4,-51.3 287.48,-45.58 290.89,-55.61 296.4,-51.3"/>
</a>
</g>
</g>
<!-- Node3 -->
<g id="Node000003" class="node">
<title>Node3</title>
<g id="a_Node000003"><a xlink:href="classTmc9660Handler.html#a5a279ae9d4b5a8e0d71cb24577ad88ea" target="_top" xlink:title="Ensure driver is initialized (lazy init entrypoint).">
<polygon fill="white" stroke="#666666" points="565,-45.5 378,-45.5 378,-26.5 565,-26.5 565,-45.5"/>
<text text-anchor="middle" x="471.5" y="-33.5" font-family="Helvetica,sans-Serif" font-size="10.00">Tmc9660Handler::EnsureInitialized</text>
</a>
</g>
</g>
<!-- Node2&#45;&gt;Node3 -->
<g id="edge2_Node000002_Node000003" class="edge">
<title>Node2&#45;&gt;Node3</title>
<g id="a_edge2_Node000002_Node000003"><a xlink:title=" ">
<path fill="none" stroke="#63b8ff" d="M342.29,-36C350.67,-36 359.25,-36 367.81,-36"/>
<polygon fill="#63b8ff" stroke="#63b8ff" points="367.83,-39.5 377.83,-36 367.83,-32.5 367.83,-39.5"/>
</a>
</g>
</g>
<!-- Node4 -->
<g id="Node000004" class="node">
<title>Node4</title>
<g id="a_Node000004"><a xlink:href="classTmc9660Handler.html#adc564847f8ae26c47412aaee0758991c" target="_top" xlink:title="Initialize the TMC9660 device.">
<polygon fill="white" stroke="#666666" points="749,-67.5 601,-67.5 601,-48.5 749,-48.5 749,-67.5"/>
<text text-anchor="middle" x="675" y="-55.5" font-family="Helvetica,sans-Serif" font-size="10.00">Tmc9660Handler::Initialize</text>
</a>
</g>
</g>
<!-- Node3&#45;&gt;Node4 -->
<g id="edge3_Node000003_Node000004" class="edge">
<title>Node3&#45;&gt;Node4</title>
<g id="a_edge3_Node000003_Node000004"><a xlink:title=" ">
<path fill="none" stroke="#63b8ff" d="M559.71,-45.52C570,-46.65 580.48,-47.79 590.72,-48.91"/>
<polygon fill="#63b8ff" stroke="#63b8ff" points="590.53,-52.41 600.85,-50.01 591.29,-45.45 590.53,-52.41"/>
</a>
</g>
</g>
<!-- Node10 -->
<g id="Node000010" class="node">
<title>Node10</title>
<g id="a_Node000010"><a xlink:href="classTmc9660Handler.html#a13db97d201a287d8aa60384e04070b9f" target="_top" xlink:title="Check if the TMC9660 driver has been initialized and is ready.">
<polygon fill="white" stroke="#666666" points="747,-30 603,-30 603,0 747,0 747,-30"/>
<text text-anchor="start" x="611" y="-18" font-family="Helvetica,sans-Serif" font-size="10.00">Tmc9660Handler::IsDriver</text>
<text text-anchor="middle" x="675" y="-7" font-family="Helvetica,sans-Serif" font-size="10.00">Ready</text>
</a>
</g>
</g>
<!-- Node3&#45;&gt;Node10 -->
<g id="edge11_Node000003_Node000010" class="edge">
<title>Node3&#45;&gt;Node10</title>
<g id="a_edge11_Node000003_Node000010"><a xlink:title=" ">
<path fill="none" stroke="#63b8ff" d="M563.82,-26.48C573.45,-25.48 583.2,-24.46 592.71,-23.47"/>
<polygon fill="#63b8ff" stroke="#63b8ff" points="593.34,-26.93 602.92,-22.41 592.61,-19.96 593.34,-26.93"/>
</a>
</g>
</g>
<!-- Node5 -->
<g id="Node000005" class="node">
<title>Node5</title>
<g id="a_Node000005"><a xlink:href="classLogger.html#adce17848a5844e053bfd314863dc1404" target="_top" xlink:title="Log error message.">
<polygon fill="white" stroke="#666666" points="881.5,-67.5 802.5,-67.5 802.5,-48.5 881.5,-48.5 881.5,-67.5"/>
<text text-anchor="middle" x="842" y="-55.5" font-family="Helvetica,sans-Serif" font-size="10.00">Logger::Error</text>
</a>
</g>
</g>
<!-- Node4&#45;&gt;Node5 -->
<g id="edge4_Node000004_Node000005" class="edge">
<title>Node4&#45;&gt;Node5</title>
<g id="a_edge4_Node000004_Node000005"><a xlink:title=" ">
<path fill="none" stroke="#63b8ff" d="M749.33,-58C763.73,-58 778.5,-58 791.87,-58"/>
<polygon fill="#63b8ff" stroke="#63b8ff" points="792.26,-61.5 802.26,-58 792.26,-54.5 792.26,-61.5"/>
</a>
</g>
</g>
<!-- Node8 -->
<g id="Node000008" class="node">
<title>Node8</title>
<g id="a_Node000008"><a xlink:href="classLogger.html#a5789d11f8f1356e2192c0023a089cbc4" target="_top" xlink:title="Get singleton instance.">
<polygon fill="white" stroke="#666666" points="899,-30.5 785,-30.5 785,-11.5 899,-11.5 899,-30.5"/>
<text text-anchor="middle" x="842" y="-18.5" font-family="Helvetica,sans-Serif" font-size="10.00">Logger::GetInstance</text>
</a>
</g>
</g>
<!-- Node4&#45;&gt;Node8 -->
<g id="edge7_Node000004_Node000008" class="edge">
<title>Node4&#45;&gt;Node8</title>
<g id="a_edge7_Node000004_Node000008"><a xlink:title=" ">
<path fill="none" stroke="#63b8ff" d="M718.49,-48.47C739.87,-43.68 765.97,-37.82 788.58,-32.75"/>
<polygon fill="#63b8ff" stroke="#63b8ff" points="789.37,-36.16 798.37,-30.56 787.84,-29.33 789.37,-36.16"/>
</a>
</g>
</g>
<!-- Node9 -->
<g id="Node000009" class="node">
<title>Node9</title>
<g id="a_Node000009"><a xlink:href="classLogger.html#a4681229c521795685fc14f6b55c82300" target="_top" xlink:title="Log info message.">
<polygon fill="white" stroke="#666666" points="879,-104.5 805,-104.5 805,-85.5 879,-85.5 879,-104.5"/>
<text text-anchor="middle" x="842" y="-92.5" font-family="Helvetica,sans-Serif" font-size="10.00">Logger::Info</text>
</a>
</g>
</g>
<!-- Node4&#45;&gt;Node9 -->
<g id="edge8_Node000004_Node000009" class="edge">
<title>Node4&#45;&gt;Node9</title>
<g id="a_edge8_Node000004_Node000009"><a xlink:title=" ">
<path fill="none" stroke="#63b8ff" d="M718.49,-67.53C741.89,-72.77 770.94,-79.29 794.89,-84.66"/>
<polygon fill="#63b8ff" stroke="#63b8ff" points="794.28,-88.11 804.8,-86.88 795.81,-81.28 794.28,-88.11"/>
</a>
</g>
</g>
<!-- Node6 -->
<g id="Node000006" class="node">
<title>Node6</title>
<g id="a_Node000006"><a xlink:href="classLogger.html#af9e84e0ff6bd538e4f9ed8dcebc3e2f0" target="_top" xlink:title="Check if log level is enabled for tag.">
<polygon fill="white" stroke="#666666" points="1064,-104.5 935,-104.5 935,-85.5 1064,-85.5 1064,-104.5"/>
<text text-anchor="middle" x="999.5" y="-92.5" font-family="Helvetica,sans-Serif" font-size="10.00">Logger::IsLevelEnabled</text>
</a>
</g>
</g>
<!-- Node5&#45;&gt;Node6 -->
<g id="edge5_Node000005_Node000006" class="edge">
<title>Node5&#45;&gt;Node6</title>
<g id="a_edge5_Node000005_Node000006"><a xlink:title=" ">
<path fill="none" stroke="#63b8ff" d="M881.84,-67.24C902.03,-72.05 926.94,-77.97 948.55,-83.11"/>
<polygon fill="#63b8ff" stroke="#63b8ff" points="948,-86.58 958.53,-85.49 949.62,-79.77 948,-86.58"/>
</a>
</g>
</g>
<!-- Node7 -->
<g id="Node000007" class="node">
<title>Node7</title>
<g id="a_Node000007"><a xlink:href="classLogger.html#a6adb205db597526fb91ad20067400394" target="_top" xlink:title="Internal logging method.">
<polygon fill="white" stroke="#666666" points="1054.5,-67.5 944.5,-67.5 944.5,-48.5 1054.5,-48.5 1054.5,-67.5"/>
<text text-anchor="middle" x="999.5" y="-55.5" font-family="Helvetica,sans-Serif" font-size="10.00">Logger::LogInternal</text>
</a>
</g>
</g>
<!-- Node5&#45;&gt;Node7 -->
<g id="edge6_Node000005_Node000007" class="edge">
<title>Node5&#45;&gt;Node7</title>
<g id="a_edge6_Node000005_Node000007"><a xlink:title=" ">
<path fill="none" stroke="#63b8ff" d="M881.84,-58C897.63,-58 916.31,-58 934.03,-58"/>
<polygon fill="#63b8ff" stroke="#63b8ff" points="934.33,-61.5 944.33,-58 934.33,-54.5 934.33,-61.5"/>
</a>
</g>
</g>
<!-- Node9&#45;&gt;Node6 -->
<g id="edge9_Node000009_Node000006" class="edge">
<title>Node9&#45;&gt;Node6</title>
<g id="a_edge9_Node000009_Node000006"><a xlink:title=" ">
<path fill="none" stroke="#63b8ff" d="M879.07,-95C892.68,-95 908.72,-95 924.55,-95"/>
<polygon fill="#63b8ff" stroke="#63b8ff" points="924.89,-98.5 934.89,-95 924.89,-91.5 924.89,-98.5"/>
</a>
</g>
</g>
<!-- Node9&#45;&gt;Node7 -->
<g id="edge10_Node000009_Node000007" class="edge">
<title>Node9&#45;&gt;Node7</title>
<g id="a_edge10_Node000009_Node000007"><a xlink:title=" ">
<path fill="none" stroke="#63b8ff" d="M879.07,-86.42C899.78,-81.49 926.09,-75.23 948.74,-69.84"/>
<polygon fill="#63b8ff" stroke="#63b8ff" points="949.61,-73.23 958.53,-67.51 947.99,-66.42 949.61,-73.23"/>
</a>
</g>
</g>
</g>
</svg>
