<?xml version="1.0" encoding="UTF-8" standalone="no"?>
<!DOCTYPE svg PUBLIC "-//W3C//DTD SVG 1.1//EN"
 "http://www.w3.org/Graphics/SVG/1.1/DTD/svg11.dtd">
<!-- Generated by graphviz version 2.43.0 (0)
 -->
<!-- Title: Max22200Handler::EnsureInitialized Pages: 1 -->
<svg width="1158pt" height="203pt"
 viewBox="0.00 0.00 1158.00 203.50" xmlns="http://www.w3.org/2000/svg" xmlns:xlink="http://www.w3.org/1999/xlink">
<g id="graph0" class="graph" transform="scale(1 1) rotate(0) translate(4 199.5)">
<title>Max22200Handler::EnsureInitialized</title>
<!-- Node1 -->
<g id="Node000001" class="node">
<title>Node1</title>
<g id="a_Node000001"><a xlink:title="Ensure driver is initialized (lazy init entrypoint).">
<polygon fill="#999999" stroke="#666666" points="193,-93 0,-93 0,-74 193,-74 193,-93"/>
<text text-anchor="middle" x="96.5" y="-81" font-family="Helvetica,sans-Serif" font-size="10.00">Max22200Handler::EnsureInitialized</text>
</a>
</g>
</g>
<!-- Node2 -->
<g id="Node000002" class="node">
<title>Node2</title>
<g id="a_Node000002"><a xlink:href="classMax22200Handler.html#aa00edacb247660349767fa4521121104" target="_top" xlink:title=" ">
<polygon fill="white" stroke="#666666" points="422,-98.5 229,-98.5 229,-68.5 422,-68.5 422,-98.5"/>
<text text-anchor="start" x="237" y="-86.5" font-family="Helvetica,sans-Serif" font-size="10.00">Max22200Handler::EnsureInitialized</text>
<text text-anchor="middle" x="325.5" y="-75.5" font-family="Helvetica,sans-Serif" font-size="10.00">Locked</text>
</a>
</g>
</g>
<!-- Node1&#45;&gt;Node2 -->
<g id="edge1_Node000001_Node000002" class="edge">
<title>Node1&#45;&gt;Node2</title>
<g id="a_edge1_Node000001_Node000002"><a xlink:title=" ">
<path fill="none" stroke="#63b8ff" d="M193.11,-83.5C201.65,-83.5 210.32,-83.5 218.93,-83.5"/>
<polygon fill="#63b8ff" stroke="#63b8ff" points="219,-87 229,-83.5 219,-80 219,-87"/>
</a>
</g>
</g>
<!-- Node3 -->
<g id="Node000003" class="node">
<title>Node3</title>
<g id="a_Node000003"><a xlink:href="classLogger.html#adce17848a5844e053bfd314863dc1404" target="_top" xlink:title="Log error message.">
<polygon fill="white" stroke="#666666" points="762,-19 683,-19 683,0 762,0 762,-19"/>
<text text-anchor="middle" x="722.5" y="-7" font-family="Helvetica,sans-Serif" font-size="10.00">Logger::Error</text>
</a>
</g>
</g>
<!-- Node2&#45;&gt;Node3 -->
<g id="edge2_Node000002_Node000003" class="edge">
<title>Node2&#45;&gt;Node3</title>
<g id="a_edge2_Node000002_Node000003"><a xlink:title=" ">
<path fill="none" stroke="#63b8ff" d="M406.91,-68.44C486.67,-53.49 606.3,-31.08 672.69,-18.64"/>
<polygon fill="#63b8ff" stroke="#63b8ff" points="673.69,-22.02 682.88,-16.74 672.4,-15.14 673.69,-22.02"/>
</a>
</g>
</g>
<!-- Node7 -->
<g id="Node000007" class="node">
<title>Node7</title>
<g id="a_Node000007"><a xlink:href="classLogger.html#a5789d11f8f1356e2192c0023a089cbc4" target="_top" xlink:title="Get singleton instance.">
<polygon fill="white" stroke="#666666" points="954.5,-174 840.5,-174 840.5,-155 954.5,-155 954.5,-174"/>
<text text-anchor="middle" x="897.5" y="-162" font-family="Helvetica,sans-Serif" font-size="10.00">Logger::GetInstance</text>
</a>
</g>
</g>
<!-- Node2&#45;&gt;Node7 -->
<g id="edge6_Node000002_Node000007" class="edge">
<title>Node2&#45;&gt;Node7</title>
<g id="a_edge6_Node000002_Node000007"><a xlink:title=" ">
<path fill="none" stroke="#63b8ff" d="M360.34,-98.51C418,-123.17 539.56,-171.24 648,-188.5 713.4,-198.91 731.24,-196.32 797,-188.5 816.32,-186.2 837.32,-181.48 855.03,-176.83"/>
<polygon fill="#63b8ff" stroke="#63b8ff" points="856.3,-180.11 865.03,-174.11 854.46,-173.35 856.3,-180.11"/>
</a>
</g>
</g>
<!-- Node8 -->
<g id="Node000008" class="node">
<title>Node8</title>
<g id="a_Node000008"><a xlink:href="classMax22200Handler.html#a0dce05cd6639a10e52c0f669b72baf52" target="_top" xlink:title="Initialize driver (ENABLE HIGH, read/clear STATUS, set ACTIVE).">
<polygon fill="white" stroke="#666666" points="612,-93 458,-93 458,-74 612,-74 612,-93"/>
<text text-anchor="middle" x="535" y="-81" font-family="Helvetica,sans-Serif" font-size="10.00">Max22200Handler::Initialize</text>
</a>
</g>
</g>
<!-- Node2&#45;&gt;Node8 -->
<g id="edge7_Node000002_Node000008" class="edge">
<title>Node2&#45;&gt;Node8</title>
<g id="a_edge7_Node000002_Node000008"><a xlink:title=" ">
<path fill="none" stroke="#63b8ff" d="M422.05,-83.5C430.6,-83.5 439.22,-83.5 447.68,-83.5"/>
<polygon fill="#63b8ff" stroke="#63b8ff" points="447.9,-87 457.9,-83.5 447.9,-80 447.9,-87"/>
</a>
</g>
</g>
<!-- Node4 -->
<g id="Node000004" class="node">
<title>Node4</title>
<g id="a_Node000004"><a xlink:href="classLogger.html#af9e84e0ff6bd538e4f9ed8dcebc3e2f0" target="_top" xlink:title="Check if log level is enabled for tag.">
<polygon fill="white" stroke="#666666" points="962,-38 833,-38 833,-19 962,-19 962,-38"/>
<text text-anchor="middle" x="897.5" y="-26" font-family="Helvetica,sans-Serif" font-size="10.00">Logger::IsLevelEnabled</text>
</a>
</g>
</g>
<!-- Node3&#45;&gt;Node4 -->
<g id="edge3_Node000003_Node000004" class="edge">
<title>Node3&#45;&gt;Node4</title>
<g id="a_edge3_Node000003_Node000004"><a xlink:title=" ">
<path fill="none" stroke="#63b8ff" d="M762.32,-13.76C780.13,-15.72 801.86,-18.11 822.6,-20.38"/>
<polygon fill="#63b8ff" stroke="#63b8ff" points="822.36,-23.88 832.68,-21.49 823.12,-16.92 822.36,-23.88"/>
</a>
</g>
</g>
<!-- Node5 -->
<g id="Node000005" class="node">
<title>Node5</title>
<g id="a_Node000005"><a xlink:href="classLogger.html#a6adb205db597526fb91ad20067400394" target="_top" xlink:title="Internal logging method.">
<polygon fill="white" stroke="#666666" points="952.5,-75 842.5,-75 842.5,-56 952.5,-56 952.5,-75"/>
<text text-anchor="middle" x="897.5" y="-63" font-family="Helvetica,sans-Serif" font-size="10.00">Logger::LogInternal</text>
</a>
</g>
</g>
<!-- Node3&#45;&gt;Node5 -->
<g id="edge4_Node000003_Node000005" class="edge">
<title>Node3&#45;&gt;Node5</title>
<g id="a_edge4_Node000003_Node000005"><a xlink:title=" ">
<path fill="none" stroke="#63b8ff" d="M762.19,-17.1C773.58,-19.83 785.95,-23.3 797,-27.5 813.91,-33.92 816.25,-39.65 833,-46.5 838.53,-48.76 844.42,-50.88 850.31,-52.84"/>
<polygon fill="#63b8ff" stroke="#63b8ff" points="849.55,-56.27 860.14,-55.95 851.67,-49.59 849.55,-56.27"/>
</a>
</g>
</g>
<!-- Node6 -->
<g id="Node000006" class="node">
<title>Node6</title>
<g id="a_Node000006"><a xlink:href="namespaceanonymous__namespace_02Logger_8cpp_03.html#a9d2b496fa1b4f4e28667d14e4b8cb190" target="_top" xlink:title=" ">
<polygon fill="white" stroke="#666666" points="1150,-80.5 998,-80.5 998,-50.5 1150,-50.5 1150,-80.5"/>
<text text-anchor="start" x="1006" y="-68.5" font-family="Helvetica,sans-Serif" font-size="10.00">anonymous_namespace</text>
<text text-anchor="middle" x="1074" y="-57.5" font-family="Helvetica,sans-Serif" font-size="10.00">{Logger::cpp}::ToBaseLevel</text>
</a>
</g>
</g>
<!-- Node5&#45;&gt;Node6 -->
<g id="edge5_Node000005_Node000006" class="edge">
<title>Node5&#45;&gt;Node6</title>
<g id="a_edge5_Node000005_Node000006"><a xlink:title=" ">
<path fill="none" stroke="#63b8ff" d="M952.76,-65.5C963.93,-65.5 975.96,-65.5 987.93,-65.5"/>
<polygon fill="#63b8ff" stroke="#63b8ff" points="987.95,-69 997.95,-65.5 987.95,-62 987.95,-69"/>
</a>
</g>
</g>
<!-- Node8&#45;&gt;Node3 -->
<g id="edge8_Node000008_Node000003" class="edge">
<title>Node8&#45;&gt;Node3</title>
<g id="a_edge8_Node000008_Node000003"><a xlink:title=" ">
<path fill="none" stroke="#63b8ff" d="M552.18,-73.96C573.51,-61.72 612.49,-40.54 648,-27.5 655.98,-24.57 664.62,-21.97 673.07,-19.73"/>
<polygon fill="#63b8ff" stroke="#63b8ff" points="674.03,-23.09 682.87,-17.25 672.31,-16.31 674.03,-23.09"/>
</a>
</g>
</g>
<!-- Node8&#45;&gt;Node7 -->
<g id="edge9_Node000008_Node000007" class="edge">
<title>Node8&#45;&gt;Node7</title>
<g id="a_edge9_Node000008_Node000007"><a xlink:title=" ">
<path fill="none" stroke="#63b8ff" d="M581.33,-93.09C633.44,-104.18 721.51,-123.16 797,-140.5 813.64,-144.32 831.8,-148.66 848,-152.58"/>
<polygon fill="#63b8ff" stroke="#63b8ff" points="847.26,-156 857.8,-154.96 848.91,-149.2 847.26,-156"/>
</a>
</g>
</g>
<!-- Node9 -->
<g id="Node000009" class="node">
<title>Node9</title>
<g id="a_Node000009"><a xlink:href="classLogger.html#a4681229c521795685fc14f6b55c82300" target="_top" xlink:title="Log info message.">
<polygon fill="white" stroke="#666666" points="759.5,-93 685.5,-93 685.5,-74 759.5,-74 759.5,-93"/>
<text text-anchor="middle" x="722.5" y="-81" font-family="Helvetica,sans-Serif" font-size="10.00">Logger::Info</text>
</a>
</g>
</g>
<!-- Node8&#45;&gt;Node9 -->
<g id="edge10_Node000008_Node000009" class="edge">
<title>Node8&#45;&gt;Node9</title>
<g id="a_edge10_Node000008_Node000009"><a xlink:title=" ">
<path fill="none" stroke="#63b8ff" d="M612.25,-83.5C633.5,-83.5 655.94,-83.5 674.92,-83.5"/>
<polygon fill="#63b8ff" stroke="#63b8ff" points="675.08,-87 685.08,-83.5 675.08,-80 675.08,-87"/>
</a>
</g>
</g>
<!-- Node10 -->
<g id="Node000010" class="node">
<title>Node10</title>
<g id="a_Node000010"><a xlink:href="classMax22200Handler.html#a46a1ed5c96b117192f0cae05c4f9627b" target="_top" xlink:title="Bring the chip from POR through to a verified ACTIVE=1, UVM=0 state, then drain POR&#45;latched fault bit...">
<polygon fill="white" stroke="#666666" points="797,-179.5 648,-179.5 648,-149.5 797,-149.5 797,-179.5"/>
<text text-anchor="start" x="656" y="-167.5" font-family="Helvetica,sans-Serif" font-size="10.00">Max22200Handler::WaitFor</text>
<text text-anchor="middle" x="722.5" y="-156.5" font-family="Helvetica,sans-Serif" font-size="10.00">ActiveAndDrainFaults</text>
</a>
</g>
</g>
<!-- Node8&#45;&gt;Node10 -->
<g id="edge13_Node000008_Node000010" class="edge">
<title>Node8&#45;&gt;Node10</title>
<g id="a_edge13_Node000008_Node000010"><a xlink:title=" ">
<path fill="none" stroke="#63b8ff" d="M555.67,-93.06C577.91,-103.77 615.3,-121.47 648,-135.5 655.88,-138.88 664.3,-142.34 672.52,-145.64"/>
<polygon fill="#63b8ff" stroke="#63b8ff" points="671.45,-148.98 682.04,-149.42 674.04,-142.48 671.45,-148.98"/>
</a>
</g>
</g>
<!-- Node11 -->
<g id="Node000011" class="node">
<title>Node11</title>
<g id="a_Node000011"><a xlink:href="classLogger.html#aaa95ffa14d07a965d4a85bdec82cba26" target="_top" xlink:title="Log warning message.">
<polygon fill="white" stroke="#666666" points="762.5,-56 682.5,-56 682.5,-37 762.5,-37 762.5,-56"/>
<text text-anchor="middle" x="722.5" y="-44" font-family="Helvetica,sans-Serif" font-size="10.00">Logger::Warn</text>
</a>
</g>
</g>
<!-- Node8&#45;&gt;Node11 -->
<g id="edge15_Node000008_Node000011" class="edge">
<title>Node8&#45;&gt;Node11</title>
<g id="a_edge15_Node000008_Node000011"><a xlink:title=" ">
<path fill="none" stroke="#63b8ff" d="M583.77,-73.97C610.9,-68.56 644.8,-61.8 672.18,-56.34"/>
<polygon fill="#63b8ff" stroke="#63b8ff" points="673.21,-59.7 682.33,-54.31 671.84,-52.84 673.21,-59.7"/>
</a>
</g>
</g>
<!-- Node9&#45;&gt;Node4 -->
<g id="edge11_Node000009_Node000004" class="edge">
<title>Node9&#45;&gt;Node4</title>
<g id="a_edge11_Node000009_Node000004"><a xlink:title=" ">
<path fill="none" stroke="#63b8ff" d="M759.86,-75.71C771.85,-72.72 785.15,-68.94 797,-64.5 813.75,-58.23 816.32,-52.97 833,-46.5 838.07,-44.53 843.45,-42.67 848.85,-40.95"/>
<polygon fill="#63b8ff" stroke="#63b8ff" points="849.96,-44.27 858.51,-38.01 847.92,-37.58 849.96,-44.27"/>
</a>
</g>
</g>
<!-- Node9&#45;&gt;Node5 -->
<g id="edge12_Node000009_Node000005" class="edge">
<title>Node9&#45;&gt;Node5</title>
<g id="a_edge12_Node000009_Node000005"><a xlink:title=" ">
<path fill="none" stroke="#63b8ff" d="M759.77,-79.73C780.75,-77.54 807.78,-74.73 832.25,-72.18"/>
<polygon fill="#63b8ff" stroke="#63b8ff" points="832.62,-75.67 842.2,-71.15 831.89,-68.7 832.62,-75.67"/>
</a>
</g>
</g>
<!-- Node10&#45;&gt;Node7 -->
<g id="edge14_Node000010_Node000007" class="edge">
<title>Node10&#45;&gt;Node7</title>
<g id="a_edge14_Node000010_Node000007"><a xlink:title=" ">
<path fill="none" stroke="#63b8ff" d="M797.12,-164.5C808.06,-164.5 819.28,-164.5 830.07,-164.5"/>
<polygon fill="#63b8ff" stroke="#63b8ff" points="830.25,-168 840.25,-164.5 830.25,-161 830.25,-168"/>
</a>
</g>
</g>
<!-- Node11&#45;&gt;Node4 -->
<g id="edge16_Node000011_Node000004" class="edge">
<title>Node11&#45;&gt;Node4</title>
<g id="a_edge16_Node000011_Node000004"><a xlink:title=" ">
<path fill="none" stroke="#63b8ff" d="M762.76,-42.42C780.58,-40.56 802.26,-38.31 822.93,-36.16"/>
<polygon fill="#63b8ff" stroke="#63b8ff" points="823.39,-39.63 832.97,-35.11 822.66,-32.66 823.39,-39.63"/>
</a>
</g>
</g>
<!-- Node11&#45;&gt;Node5 -->
<g id="edge17_Node000011_Node000005" class="edge">
<title>Node11&#45;&gt;Node5</title>
<g id="a_edge17_Node000011_Node000005"><a xlink:title=" ">
<path fill="none" stroke="#63b8ff" d="M762.76,-50.81C783.25,-53.06 808.85,-55.87 832.15,-58.43"/>
<polygon fill="#63b8ff" stroke="#63b8ff" points="832,-61.94 842.32,-59.55 832.76,-54.98 832,-61.94"/>
</a>
</g>
</g>
</g>
</svg>
