<?xml version="1.0" encoding="UTF-8" standalone="no"?>
<!DOCTYPE svg PUBLIC "-//W3C//DTD SVG 1.1//EN"
 "http://www.w3.org/Graphics/SVG/1.1/DTD/svg11.dtd">
<!-- Generated by graphviz version 2.43.0 (0)
 -->
<!-- Title: Tmc9660Handler::gpio Pages: 1 -->
<svg width="910pt" height="205pt"
 viewBox="0.00 0.00 910.00 204.50" xmlns="http://www.w3.org/2000/svg" xmlns:xlink="http://www.w3.org/1999/xlink">
<g id="graph0" class="graph" transform="scale(1 1) rotate(0) translate(4 200.5)">
<title>Tmc9660Handler::gpio</title>
<!-- Node1 -->
<g id="Node000001" class="node">
<title>Node1</title>
<g id="a_Node000001"><a xlink:title="Get a reference to the GPIO wrapper for a TMC9660 internal GPIO pin.">
<polygon fill="#999999" stroke="#666666" points="127,-141.5 0,-141.5 0,-122.5 127,-122.5 127,-141.5"/>
<text text-anchor="middle" x="63.5" y="-129.5" font-family="Helvetica,sans-Serif" font-size="10.00">Tmc9660Handler::gpio</text>
</a>
</g>
</g>
<!-- Node2 -->
<g id="Node000002" class="node">
<title>Node2</title>
<g id="a_Node000002"><a xlink:href="classTmc9660Handler.html#a5a279ae9d4b5a8e0d71cb24577ad88ea" target="_top" xlink:title="Ensure driver is initialized (lazy init entrypoint).">
<polygon fill="white" stroke="#666666" points="350,-122.5 163,-122.5 163,-103.5 350,-103.5 350,-122.5"/>
<text text-anchor="middle" x="256.5" y="-110.5" font-family="Helvetica,sans-Serif" font-size="10.00">Tmc9660Handler::EnsureInitialized</text>
</a>
</g>
</g>
<!-- Node1&#45;&gt;Node2 -->
<g id="edge1_Node000001_Node000002" class="edge">
<title>Node1&#45;&gt;Node2</title>
<g id="a_edge1_Node000001_Node000002"><a xlink:title=" ">
<path fill="none" stroke="#63b8ff" d="M127.04,-125.78C135.25,-124.96 143.83,-124.11 152.5,-123.25"/>
<polygon fill="#63b8ff" stroke="#63b8ff" points="153.08,-126.71 162.69,-122.23 152.39,-119.74 153.08,-126.71"/>
</a>
</g>
</g>
<!-- Node10 -->
<g id="Node000010" class="node">
<title>Node10</title>
<g id="a_Node000010"><a xlink:href="classTmc9660Handler.html#a393382194d0602e7aa02da6a8fd7a20a" target="_top" xlink:title="Get a reference to the Temperature wrapper.">
<polygon fill="white" stroke="#666666" points="737,-178.5 570,-178.5 570,-159.5 737,-159.5 737,-178.5"/>
<text text-anchor="middle" x="653.5" y="-166.5" font-family="Helvetica,sans-Serif" font-size="10.00">Tmc9660Handler::temperature</text>
</a>
</g>
</g>
<!-- Node1&#45;&gt;Node10 -->
<g id="edge15_Node000001_Node000010" class="edge">
<title>Node1&#45;&gt;Node10</title>
<g id="a_edge15_Node000001_Node000010"><a xlink:title=" ">
<path fill="none" stroke="#63b8ff" d="M127.01,-136.82C191.78,-141.74 295.94,-149.41 386,-155 443.77,-158.58 508.62,-162 559.88,-164.57"/>
<polygon fill="#63b8ff" stroke="#63b8ff" points="559.78,-168.07 569.94,-165.07 560.13,-161.07 559.78,-168.07"/>
</a>
</g>
</g>
<!-- Node3 -->
<g id="Node000003" class="node">
<title>Node3</title>
<g id="a_Node000003"><a xlink:href="classTmc9660Handler.html#adc564847f8ae26c47412aaee0758991c" target="_top" xlink:title="Initialize the TMC9660 device.">
<polygon fill="white" stroke="#666666" points="534,-103.5 386,-103.5 386,-84.5 534,-84.5 534,-103.5"/>
<text text-anchor="middle" x="460" y="-91.5" font-family="Helvetica,sans-Serif" font-size="10.00">Tmc9660Handler::Initialize</text>
</a>
</g>
</g>
<!-- Node2&#45;&gt;Node3 -->
<g id="edge2_Node000002_Node000003" class="edge">
<title>Node2&#45;&gt;Node3</title>
<g id="a_edge2_Node000002_Node000003"><a xlink:title=" ">
<path fill="none" stroke="#63b8ff" d="M350.29,-104.25C358.73,-103.45 367.25,-102.65 375.61,-101.86"/>
<polygon fill="#63b8ff" stroke="#63b8ff" points="376.08,-105.33 385.7,-100.91 375.42,-98.37 376.08,-105.33"/>
</a>
</g>
</g>
<!-- Node9 -->
<g id="Node000009" class="node">
<title>Node9</title>
<g id="a_Node000009"><a xlink:href="classTmc9660Handler.html#a13db97d201a287d8aa60384e04070b9f" target="_top" xlink:title="Check if the TMC9660 driver has been initialized and is ready.">
<polygon fill="white" stroke="#666666" points="725.5,-30 581.5,-30 581.5,0 725.5,0 725.5,-30"/>
<text text-anchor="start" x="589.5" y="-18" font-family="Helvetica,sans-Serif" font-size="10.00">Tmc9660Handler::IsDriver</text>
<text text-anchor="middle" x="653.5" y="-7" font-family="Helvetica,sans-Serif" font-size="10.00">Ready</text>
</a>
</g>
</g>
<!-- Node2&#45;&gt;Node9 -->
<g id="edge14_Node000002_Node000009" class="edge">
<title>Node2&#45;&gt;Node9</title>
<g id="a_edge14_Node000002_Node000009"><a xlink:title=" ">
<path fill="none" stroke="#63b8ff" d="M287.72,-103.45C313.66,-95.4 352.12,-83.81 386,-75 447.88,-58.9 518.49,-43.12 571.48,-31.79"/>
<polygon fill="#63b8ff" stroke="#63b8ff" points="572.44,-35.16 581.49,-29.65 570.98,-28.31 572.44,-35.16"/>
</a>
</g>
</g>
<!-- Node4 -->
<g id="Node000004" class="node">
<title>Node4</title>
<g id="a_Node000004"><a xlink:href="classLogger.html#a5e4bcdaea60b9ac227b564d780388769" target="_top" xlink:title="Log error message.">
<polygon fill="white" stroke="#666666" points="693,-141.5 614,-141.5 614,-122.5 693,-122.5 693,-141.5"/>
<text text-anchor="middle" x="653.5" y="-129.5" font-family="Helvetica,sans-Serif" font-size="10.00">Logger::Error</text>
</a>
</g>
</g>
<!-- Node3&#45;&gt;Node4 -->
<g id="edge3_Node000003_Node000004" class="edge">
<title>Node3&#45;&gt;Node4</title>
<g id="a_edge3_Node000003_Node000004"><a xlink:title=" ">
<path fill="none" stroke="#63b8ff" d="M509.32,-103.59C538.27,-109.33 574.94,-116.61 603.93,-122.36"/>
<polygon fill="#63b8ff" stroke="#63b8ff" points="603.34,-125.81 613.83,-124.33 604.71,-118.95 603.34,-125.81"/>
</a>
</g>
</g>
<!-- Node7 -->
<g id="Node000007" class="node">
<title>Node7</title>
<g id="a_Node000007"><a xlink:href="classLogger.html#a5789d11f8f1356e2192c0023a089cbc4" target="_top" xlink:title="Get singleton instance.">
<polygon fill="white" stroke="#666666" points="710.5,-104.5 596.5,-104.5 596.5,-85.5 710.5,-85.5 710.5,-104.5"/>
<text text-anchor="middle" x="653.5" y="-92.5" font-family="Helvetica,sans-Serif" font-size="10.00">Logger::GetInstance</text>
</a>
</g>
</g>
<!-- Node3&#45;&gt;Node7 -->
<g id="edge6_Node000003_Node000007" class="edge">
<title>Node3&#45;&gt;Node7</title>
<g id="a_edge6_Node000003_Node000007"><a xlink:title=" ">
<path fill="none" stroke="#63b8ff" d="M534.22,-94.38C551.27,-94.47 569.33,-94.57 586.07,-94.65"/>
<polygon fill="#63b8ff" stroke="#63b8ff" points="586.28,-98.15 596.3,-94.71 586.32,-91.15 586.28,-98.15"/>
</a>
</g>
</g>
<!-- Node8 -->
<g id="Node000008" class="node">
<title>Node8</title>
<g id="a_Node000008"><a xlink:href="classLogger.html#a1c0c947d87884bca0395fd38d19d1102" target="_top" xlink:title="Log info message.">
<polygon fill="white" stroke="#666666" points="690.5,-67.5 616.5,-67.5 616.5,-48.5 690.5,-48.5 690.5,-67.5"/>
<text text-anchor="middle" x="653.5" y="-55.5" font-family="Helvetica,sans-Serif" font-size="10.00">Logger::Info</text>
</a>
</g>
</g>
<!-- Node3&#45;&gt;Node8 -->
<g id="edge7_Node000003_Node000008" class="edge">
<title>Node3&#45;&gt;Node8</title>
<g id="a_edge7_Node000003_Node000008"><a xlink:title=" ">
<path fill="none" stroke="#63b8ff" d="M511.56,-84.49C540.88,-78.98 577.52,-72.1 606.09,-66.72"/>
<polygon fill="#63b8ff" stroke="#63b8ff" points="607.05,-70.11 616.23,-64.82 605.75,-63.23 607.05,-70.11"/>
</a>
</g>
</g>
<!-- Node3&#45;&gt;Node9 -->
<g id="edge10_Node000003_Node000009" class="edge">
<title>Node3&#45;&gt;Node9</title>
<g id="a_edge10_Node000003_Node000009"><a xlink:title=" ">
<path fill="none" stroke="#63b8ff" d="M477.55,-84.44C498.53,-72.6 536.08,-52.36 570,-39 575.12,-36.98 580.47,-35.05 585.89,-33.22"/>
<polygon fill="#63b8ff" stroke="#63b8ff" points="587.25,-36.46 595.67,-30.03 585.08,-29.8 587.25,-36.46"/>
</a>
</g>
</g>
<!-- Node3&#45;&gt;Node10 -->
<g id="edge11_Node000003_Node000010" class="edge">
<title>Node3&#45;&gt;Node10</title>
<g id="a_edge11_Node000003_Node000010"><a xlink:title=" ">
<path fill="none" stroke="#63b8ff" d="M500.21,-103.53C511.54,-107.16 523.64,-111.93 534,-118 552.73,-128.97 550.73,-141.01 570,-151 573.73,-152.94 577.67,-154.66 581.71,-156.21"/>
<polygon fill="#63b8ff" stroke="#63b8ff" points="580.69,-159.56 591.29,-159.48 582.96,-152.93 580.69,-159.56"/>
</a>
</g>
</g>
<!-- Node5 -->
<g id="Node000005" class="node">
<title>Node5</title>
<g id="a_Node000005"><a xlink:href="classLogger.html#a737b981213c02321a5235848334d7191" target="_top" xlink:title="Check if log level is enabled for tag.">
<polygon fill="white" stroke="#666666" points="902,-131.5 773,-131.5 773,-112.5 902,-112.5 902,-131.5"/>
<text text-anchor="middle" x="837.5" y="-119.5" font-family="Helvetica,sans-Serif" font-size="10.00">Logger::IsLevelEnabled</text>
</a>
</g>
</g>
<!-- Node4&#45;&gt;Node5 -->
<g id="edge4_Node000004_Node000005" class="edge">
<title>Node4&#45;&gt;Node5</title>
<g id="a_edge4_Node000004_Node000005"><a xlink:title=" ">
<path fill="none" stroke="#63b8ff" d="M693.1,-129.88C713.37,-128.77 738.9,-127.36 762.78,-126.05"/>
<polygon fill="#63b8ff" stroke="#63b8ff" points="763.1,-129.54 772.89,-125.49 762.72,-122.55 763.1,-129.54"/>
</a>
</g>
</g>
<!-- Node6 -->
<g id="Node000006" class="node">
<title>Node6</title>
<g id="a_Node000006"><a xlink:href="classLogger.html#aeede6ac18db92a47caede076ef188a13" target="_top" xlink:title="Internal logging method.">
<polygon fill="white" stroke="#666666" points="892.5,-85.5 782.5,-85.5 782.5,-66.5 892.5,-66.5 892.5,-85.5"/>
<text text-anchor="middle" x="837.5" y="-73.5" font-family="Helvetica,sans-Serif" font-size="10.00">Logger::LogInternal</text>
</a>
</g>
</g>
<!-- Node4&#45;&gt;Node6 -->
<g id="edge5_Node000004_Node000006" class="edge">
<title>Node4&#45;&gt;Node6</title>
<g id="a_edge5_Node000004_Node000006"><a xlink:title=" ">
<path fill="none" stroke="#63b8ff" d="M693,-124.85C706.98,-121.93 722.81,-118.23 737,-114 760.19,-107.08 785.68,-97.31 805.05,-89.4"/>
<polygon fill="#63b8ff" stroke="#63b8ff" points="806.4,-92.63 814.31,-85.58 803.73,-86.16 806.4,-92.63"/>
</a>
</g>
</g>
<!-- Node8&#45;&gt;Node5 -->
<g id="edge8_Node000008_Node000005" class="edge">
<title>Node8&#45;&gt;Node5</title>
<g id="a_edge8_Node000008_Node000005"><a xlink:title=" ">
<path fill="none" stroke="#63b8ff" d="M690.84,-63.73C705.44,-66.59 722.27,-70.62 737,-76 753.99,-82.21 756.66,-87.23 773,-95 782.74,-99.63 793.48,-104.34 803.31,-108.5"/>
<polygon fill="#63b8ff" stroke="#63b8ff" points="802.19,-111.83 812.77,-112.46 804.89,-105.37 802.19,-111.83"/>
</a>
</g>
</g>
<!-- Node8&#45;&gt;Node6 -->
<g id="edge9_Node000008_Node000006" class="edge">
<title>Node8&#45;&gt;Node6</title>
<g id="a_edge9_Node000008_Node000006"><a xlink:title=" ">
<path fill="none" stroke="#63b8ff" d="M690.89,-61.6C714.07,-63.89 744.75,-66.93 771.97,-69.62"/>
<polygon fill="#63b8ff" stroke="#63b8ff" points="771.92,-73.13 782.21,-70.63 772.61,-66.16 771.92,-73.13"/>
</a>
</g>
</g>
<!-- Node10&#45;&gt;Node2 -->
<g id="edge12_Node000010_Node000002" class="edge">
<title>Node10&#45;&gt;Node2</title>
<g id="a_edge12_Node000010_Node000002"><a xlink:title=" ">
<path fill="none" stroke="#63b8ff" d="M585.32,-159.48C515.98,-149.65 407.92,-134.33 335,-123.99"/>
<polygon fill="#63b8ff" stroke="#63b8ff" points="335.35,-120.5 324.95,-122.56 334.36,-127.43 335.35,-120.5"/>
</a>
</g>
</g>
<!-- Node10&#45;&gt;Node10 -->
<g id="edge13_Node000010_Node000010" class="edge">
<title>Node10&#45;&gt;Node10</title>
<g id="a_edge13_Node000010_Node000010"><a xlink:title=" ">
<path fill="none" stroke="#63b8ff" d="M625.14,-178.58C611.34,-187.23 620.8,-196.5 653.5,-196.5 675.98,-196.5 687.48,-192.12 687.98,-186.57"/>
<polygon fill="#63b8ff" stroke="#63b8ff" points="690.72,-184.39 681.86,-178.58 685.16,-188.65 690.72,-184.39"/>
</a>
</g>
</g>
</g>
</svg>
