<?xml version="1.0" encoding="UTF-8" standalone="no"?>
<!DOCTYPE svg PUBLIC "-//W3C//DTD SVG 1.1//EN"
 "http://www.w3.org/Graphics/SVG/1.1/DTD/svg11.dtd">
<!-- Generated by graphviz version 2.43.0 (0)
 -->
<!-- Title: Logger::Warn Pages: 1 -->
<svg width="961pt" height="916pt"
 viewBox="0.00 0.00 961.00 916.00" xmlns="http://www.w3.org/2000/svg" xmlns:xlink="http://www.w3.org/1999/xlink">
<g id="graph0" class="graph" transform="scale(1 1) rotate(0) translate(4 912)">
<title>Logger::Warn</title>
<!-- Node1 -->
<g id="Node000001" class="node">
<title>Node1</title>
<g id="a_Node000001"><a xlink:title="Log warning message.">
<polygon fill="#999999" stroke="#666666" points="953,-618 873,-618 873,-599 953,-599 953,-618"/>
<text text-anchor="middle" x="913" y="-606" font-family="Helvetica,sans-Serif" font-size="10.00">Logger::Warn</text>
</a>
</g>
</g>
<!-- Node2 -->
<g id="Node000002" class="node">
<title>Node2</title>
<g id="a_Node000002"><a xlink:href="classTmc5160Handler.html#ab4bf5aabef968f6f8ee66d08cf05913a" target="_top" xlink:title="Dump diagnostic information to logger.">
<polygon fill="white" stroke="#666666" points="402,-908 210,-908 210,-889 402,-889 402,-908"/>
<text text-anchor="middle" x="306" y="-896" font-family="Helvetica,sans-Serif" font-size="10.00">Tmc5160Handler::DumpDiagnostics</text>
</a>
</g>
</g>
<!-- Node1&#45;&gt;Node2 -->
<g id="edge1_Node000001_Node000002" class="edge">
<title>Node1&#45;&gt;Node2</title>
<g id="a_edge1_Node000001_Node000002"><a xlink:title=" ">
<path fill="none" stroke="#63b8ff" d="M909.36,-628.41C903.39,-665.43 885.39,-745.04 837,-788.5 716.82,-896.42 519.11,-909.01 402.15,-905.63"/>
<polygon fill="#63b8ff" stroke="#63b8ff" points="912.84,-628.78 910.85,-618.37 905.92,-627.75 912.84,-628.78"/>
</a>
</g>
</g>
<!-- Node3 -->
<g id="Node000003" class="node">
<title>Node3</title>
<g id="a_Node000003"><a xlink:href="classMax22200Handler.html#a0dce05cd6639a10e52c0f669b72baf52" target="_top" xlink:title="Initialize driver (ENABLE HIGH, read/clear STATUS, set ACTIVE).">
<polygon fill="white" stroke="#666666" points="830.5,-704 676.5,-704 676.5,-685 830.5,-685 830.5,-704"/>
<text text-anchor="middle" x="753.5" y="-692" font-family="Helvetica,sans-Serif" font-size="10.00">Max22200Handler::Initialize</text>
</a>
</g>
</g>
<!-- Node1&#45;&gt;Node3 -->
<g id="edge2_Node000001_Node000003" class="edge">
<title>Node1&#45;&gt;Node3</title>
<g id="a_edge2_Node000001_Node000003"><a xlink:title=" ">
<path fill="none" stroke="#63b8ff" d="M897.02,-626.18C883.04,-641.53 860.81,-663.17 837,-675.5 829.56,-679.35 821.34,-682.43 813.06,-684.89"/>
<polygon fill="#63b8ff" stroke="#63b8ff" points="899.9,-628.21 903.9,-618.4 894.65,-623.57 899.9,-628.21"/>
</a>
</g>
</g>
<!-- Node14 -->
<g id="Node000014" class="node">
<title>Node14</title>
<g id="a_Node000014"><a xlink:href="classTle92466edHandler.html#ac607f9cf2453e8d1849b40d2dd8e8474" target="_top" xlink:title="Initialize driver (hardware reset + SPI init + enter config mode).">
<polygon fill="white" stroke="#666666" points="812.5,-666.5 694.5,-666.5 694.5,-636.5 812.5,-636.5 812.5,-666.5"/>
<text text-anchor="start" x="702.5" y="-654.5" font-family="Helvetica,sans-Serif" font-size="10.00">Tle92466edHandler::</text>
<text text-anchor="middle" x="753.5" y="-643.5" font-family="Helvetica,sans-Serif" font-size="10.00">Initialize</text>
</a>
</g>
</g>
<!-- Node1&#45;&gt;Node14 -->
<g id="edge13_Node000001_Node000014" class="edge">
<title>Node1&#45;&gt;Node14</title>
<g id="a_edge13_Node000001_Node000014"><a xlink:title=" ">
<path fill="none" stroke="#63b8ff" d="M867.38,-620.68C849.37,-625.6 828.4,-631.32 809.46,-636.49"/>
<polygon fill="#63b8ff" stroke="#63b8ff" points="868.32,-624.05 877.05,-618.04 866.48,-617.3 868.32,-624.05"/>
</a>
</g>
</g>
<!-- Node30 -->
<g id="Node000030" class="node">
<title>Node30</title>
<g id="a_Node000030"><a xlink:href="classWs2812Handler.html#acce4955435f295ba4853b6239090982f" target="_top" xlink:title="Initialize the RMT channel and LED strip.">
<polygon fill="white" stroke="#666666" points="824.5,-618 682.5,-618 682.5,-599 824.5,-599 824.5,-618"/>
<text text-anchor="middle" x="753.5" y="-606" font-family="Helvetica,sans-Serif" font-size="10.00">Ws2812Handler::Initialize</text>
</a>
</g>
</g>
<!-- Node1&#45;&gt;Node30 -->
<g id="edge29_Node000001_Node000030" class="edge">
<title>Node1&#45;&gt;Node30</title>
<g id="a_edge29_Node000001_Node000030"><a xlink:title=" ">
<path fill="none" stroke="#63b8ff" d="M862.41,-608.5C850.4,-608.5 837.34,-608.5 824.59,-608.5"/>
<polygon fill="#63b8ff" stroke="#63b8ff" points="862.66,-612 872.66,-608.5 862.66,-605 862.66,-612"/>
</a>
</g>
</g>
<!-- Node38 -->
<g id="Node000038" class="node">
<title>Node38</title>
<g id="a_Node000038"><a xlink:href="classNtcTemperatureHandler.html#a97fa93b2ed6337e24e056b46fbe331c7" target="_top" xlink:title=" ">
<polygon fill="white" stroke="#666666" points="820,-580.5 687,-580.5 687,-550.5 820,-550.5 820,-580.5"/>
<text text-anchor="start" x="695" y="-568.5" font-family="Helvetica,sans-Serif" font-size="10.00">NtcTemperatureHandler</text>
<text text-anchor="middle" x="753.5" y="-557.5" font-family="Helvetica,sans-Serif" font-size="10.00">::Initialize</text>
</a>
</g>
</g>
<!-- Node1&#45;&gt;Node38 -->
<g id="edge37_Node000001_Node000038" class="edge">
<title>Node1&#45;&gt;Node38</title>
<g id="a_edge37_Node000001_Node000038"><a xlink:title=" ">
<path fill="none" stroke="#63b8ff" d="M867.38,-596.32C849.37,-591.4 828.4,-585.68 809.46,-580.51"/>
<polygon fill="#63b8ff" stroke="#63b8ff" points="866.48,-599.7 877.05,-598.96 868.32,-592.95 866.48,-599.7"/>
</a>
</g>
</g>
<!-- Node39 -->
<g id="Node000039" class="node">
<title>Node39</title>
<g id="a_Node000039"><a xlink:href="classMax22200Handler.html#aca940fd8213ecb633bafb7c3e143a361" target="_top" xlink:title="Initialize with board configuration.">
<polygon fill="white" stroke="#666666" points="830.5,-532 676.5,-532 676.5,-513 830.5,-513 830.5,-532"/>
<text text-anchor="middle" x="753.5" y="-520" font-family="Helvetica,sans-Serif" font-size="10.00">Max22200Handler::Initialize</text>
</a>
</g>
</g>
<!-- Node1&#45;&gt;Node39 -->
<g id="edge38_Node000001_Node000039" class="edge">
<title>Node1&#45;&gt;Node39</title>
<g id="a_edge38_Node000001_Node000039"><a xlink:title=" ">
<path fill="none" stroke="#63b8ff" d="M897.02,-590.82C883.04,-575.47 860.81,-553.83 837,-541.5 829.56,-537.65 821.34,-534.57 813.06,-532.11"/>
<polygon fill="#63b8ff" stroke="#63b8ff" points="894.65,-593.43 903.9,-598.6 899.9,-588.79 894.65,-593.43"/>
</a>
</g>
</g>
<!-- Node40 -->
<g id="Node000040" class="node">
<title>Node40</title>
<g id="a_Node000040"><a xlink:href="classTle92466edHandler.html#a2f01dd08b168f009db41d658db3484eb" target="_top" xlink:title="Initialize with global configuration.">
<polygon fill="white" stroke="#666666" points="812.5,-494.5 694.5,-494.5 694.5,-464.5 812.5,-464.5 812.5,-494.5"/>
<text text-anchor="start" x="702.5" y="-482.5" font-family="Helvetica,sans-Serif" font-size="10.00">Tle92466edHandler::</text>
<text text-anchor="middle" x="753.5" y="-471.5" font-family="Helvetica,sans-Serif" font-size="10.00">Initialize</text>
</a>
</g>
</g>
<!-- Node1&#45;&gt;Node40 -->
<g id="edge39_Node000001_Node000040" class="edge">
<title>Node1&#45;&gt;Node40</title>
<g id="a_edge39_Node000001_Node000040"><a xlink:title=" ">
<path fill="none" stroke="#63b8ff" d="M903.24,-589.64C891.43,-566.27 868.25,-526.81 837,-504.5 829.69,-499.28 821.28,-495.14 812.68,-491.85"/>
<polygon fill="#63b8ff" stroke="#63b8ff" points="900.2,-591.39 907.72,-598.85 906.49,-588.32 900.2,-591.39"/>
</a>
</g>
</g>
<!-- Node41 -->
<g id="Node000041" class="node">
<title>Node41</title>
<g id="a_Node000041"><a xlink:href="classTmc5160Handler.html#a44ab36857e4e43062f81f7d6f10eab09" target="_top" xlink:title="Initialize the TMC5160 driver with full configuration.">
<polygon fill="white" stroke="#666666" points="827.5,-779 679.5,-779 679.5,-760 827.5,-760 827.5,-779"/>
<text text-anchor="middle" x="753.5" y="-767" font-family="Helvetica,sans-Serif" font-size="10.00">Tmc5160Handler::Initialize</text>
</a>
</g>
</g>
<!-- Node1&#45;&gt;Node41 -->
<g id="edge40_Node000001_Node000041" class="edge">
<title>Node1&#45;&gt;Node41</title>
<g id="a_edge40_Node000001_Node000041"><a xlink:title=" ">
<path fill="none" stroke="#63b8ff" d="M901.69,-626.79C888.59,-649 864.37,-686.78 837,-713.5 817.18,-732.85 789.91,-749.89 772.24,-759.94"/>
<polygon fill="#63b8ff" stroke="#63b8ff" points="904.77,-628.45 906.75,-618.04 898.71,-624.95 904.77,-628.45"/>
</a>
</g>
</g>
<!-- Node49 -->
<g id="Node000049" class="node">
<title>Node49</title>
<g id="a_Node000049"><a xlink:href="classTmc9660Handler_1_1Temperature.html#a5ebc77b2122ba4473b74a4a0fc78ff09" target="_top" xlink:title="Read the chip temperature in degrees Celsius.">
<polygon fill="white" stroke="#666666" points="837,-446.5 670,-446.5 670,-416.5 837,-416.5 837,-446.5"/>
<text text-anchor="start" x="678" y="-434.5" font-family="Helvetica,sans-Serif" font-size="10.00">Tmc9660Handler::Temperature</text>
<text text-anchor="middle" x="753.5" y="-423.5" font-family="Helvetica,sans-Serif" font-size="10.00">::ReadTemperatureCelsiusImpl</text>
</a>
</g>
</g>
<!-- Node1&#45;&gt;Node49 -->
<g id="edge49_Node000001_Node000049" class="edge">
<title>Node1&#45;&gt;Node49</title>
<g id="a_edge49_Node000001_Node000049"><a xlink:title=" ">
<path fill="none" stroke="#63b8ff" d="M907.81,-588.88C899.84,-556.3 879.33,-491.09 837,-455.5 832.89,-452.04 828.3,-449.09 823.46,-446.55"/>
<polygon fill="#63b8ff" stroke="#63b8ff" points="904.48,-589.98 910.13,-598.95 911.3,-588.42 904.48,-589.98"/>
</a>
</g>
</g>
<!-- Node4 -->
<g id="Node000004" class="node">
<title>Node4</title>
<g id="a_Node000004"><a xlink:href="classMax22200Handler.html#aa00edacb247660349767fa4521121104" target="_top" xlink:title=" ">
<polygon fill="white" stroke="#666666" points="634,-709.5 441,-709.5 441,-679.5 634,-679.5 634,-709.5"/>
<text text-anchor="start" x="449" y="-697.5" font-family="Helvetica,sans-Serif" font-size="10.00">Max22200Handler::EnsureInitialized</text>
<text text-anchor="middle" x="537.5" y="-686.5" font-family="Helvetica,sans-Serif" font-size="10.00">Locked</text>
</a>
</g>
</g>
<!-- Node3&#45;&gt;Node4 -->
<g id="edge3_Node000003_Node000004" class="edge">
<title>Node3&#45;&gt;Node4</title>
<g id="a_edge3_Node000003_Node000004"><a xlink:title=" ">
<path fill="none" stroke="#63b8ff" d="M666.38,-694.5C655.78,-694.5 644.89,-694.5 634.15,-694.5"/>
<polygon fill="#63b8ff" stroke="#63b8ff" points="666.45,-698 676.45,-694.5 666.45,-691 666.45,-698"/>
</a>
</g>
</g>
<!-- Node5 -->
<g id="Node000005" class="node">
<title>Node5</title>
<g id="a_Node000005"><a xlink:href="classMax22200Handler.html#afd07a624dc736a1452c0f6190499adc0" target="_top" xlink:title="Dump diagnostics to logger.">
<polygon fill="white" stroke="#666666" points="405,-760 207,-760 207,-741 405,-741 405,-760"/>
<text text-anchor="middle" x="306" y="-748" font-family="Helvetica,sans-Serif" font-size="10.00">Max22200Handler::DumpDiagnostics</text>
</a>
</g>
</g>
<!-- Node4&#45;&gt;Node5 -->
<g id="edge4_Node000004_Node000005" class="edge">
<title>Node4&#45;&gt;Node5</title>
<g id="a_edge4_Node000004_Node000005"><a xlink:title=" ">
<path fill="none" stroke="#63b8ff" d="M478.83,-712.51C455.98,-719.3 429.38,-726.75 405,-732.5 391.87,-735.6 377.64,-738.48 364.2,-740.98"/>
<polygon fill="#63b8ff" stroke="#63b8ff" points="480.14,-715.78 488.71,-709.55 478.13,-709.07 480.14,-715.78"/>
</a>
</g>
</g>
<!-- Node6 -->
<g id="Node000006" class="node">
<title>Node6</title>
<g id="a_Node000006"><a xlink:href="classMax22200Handler.html#a803b60663755d7850857626b58efc084" target="_top" xlink:title="Ensure driver is initialized (lazy init entrypoint).">
<polygon fill="white" stroke="#666666" points="402.5,-723 209.5,-723 209.5,-704 402.5,-704 402.5,-723"/>
<text text-anchor="middle" x="306" y="-711" font-family="Helvetica,sans-Serif" font-size="10.00">Max22200Handler::EnsureInitialized</text>
</a>
</g>
</g>
<!-- Node4&#45;&gt;Node6 -->
<g id="edge5_Node000004_Node000006" class="edge">
<title>Node4&#45;&gt;Node6</title>
<g id="a_edge5_Node000004_Node000006"><a xlink:title=" ">
<path fill="none" stroke="#63b8ff" d="M430.68,-703.26C421.29,-704.04 411.81,-704.82 402.51,-705.59"/>
<polygon fill="#63b8ff" stroke="#63b8ff" points="431.16,-706.73 440.83,-702.42 430.58,-699.76 431.16,-706.73"/>
</a>
</g>
</g>
<!-- Node7 -->
<g id="Node000007" class="node">
<title>Node7</title>
<g id="a_Node000007"><a xlink:href="classMax22200Handler.html#a001e00b9d9a02611b51951f16bcb78d1" target="_top" xlink:title="Get the underlying driver for advanced operations.">
<polygon fill="white" stroke="#666666" points="385.5,-686 226.5,-686 226.5,-667 385.5,-667 385.5,-686"/>
<text text-anchor="middle" x="306" y="-674" font-family="Helvetica,sans-Serif" font-size="10.00">Max22200Handler::GetDriver</text>
</a>
</g>
</g>
<!-- Node4&#45;&gt;Node7 -->
<g id="edge6_Node000004_Node000007" class="edge">
<title>Node4&#45;&gt;Node7</title>
<g id="a_edge6_Node000004_Node000007"><a xlink:title=" ">
<path fill="none" stroke="#63b8ff" d="M430.47,-686.18C415.43,-685 400.19,-683.81 385.79,-682.68"/>
<polygon fill="#63b8ff" stroke="#63b8ff" points="430.59,-689.7 440.83,-687 431.14,-682.73 430.59,-689.7"/>
</a>
</g>
</g>
<!-- Node9 -->
<g id="Node000009" class="node">
<title>Node9</title>
<g id="a_Node000009"><a xlink:href="classMax22200Handler.html#abcdd9746a0df9c28bb36508d52d80ef5" target="_top" xlink:title="Execute a lambda with a locked, initialized driver.">
<polygon fill="white" stroke="#666666" points="387.5,-649 224.5,-649 224.5,-630 387.5,-630 387.5,-649"/>
<text text-anchor="middle" x="306" y="-637" font-family="Helvetica,sans-Serif" font-size="10.00">Max22200Handler::withDriver</text>
</a>
</g>
</g>
<!-- Node4&#45;&gt;Node9 -->
<g id="edge8_Node000004_Node000009" class="edge">
<title>Node4&#45;&gt;Node9</title>
<g id="a_edge8_Node000004_Node000009"><a xlink:title=" ">
<path fill="none" stroke="#63b8ff" d="M475.3,-676.71C453.24,-670.57 428.09,-663.89 405,-658.5 390.49,-655.11 374.66,-651.86 360.05,-649.03"/>
<polygon fill="#63b8ff" stroke="#63b8ff" points="474.63,-680.16 485.21,-679.49 476.52,-673.42 474.63,-680.16"/>
</a>
</g>
</g>
<!-- Node8 -->
<g id="Node000008" class="node">
<title>Node8</title>
<g id="a_Node000008"><a xlink:href="classMax22200Handler.html#aee42537a3d2f0955a1479709b2d4b4b8" target="_top" xlink:title=" ">
<polygon fill="white" stroke="#666666" points="165,-745 6,-745 6,-726 165,-726 165,-745"/>
<text text-anchor="middle" x="85.5" y="-733" font-family="Helvetica,sans-Serif" font-size="10.00">Max22200Handler::GetDriver</text>
</a>
</g>
</g>
<!-- Node7&#45;&gt;Node8 -->
<g id="edge7_Node000007_Node000008" class="edge">
<title>Node7&#45;&gt;Node8</title>
<g id="a_edge7_Node000007_Node000008"><a xlink:title=" ">
<path fill="none" stroke="#63b8ff" d="M228.85,-688.46C221.36,-690.47 213.97,-692.8 207,-695.5 189.52,-702.28 188.42,-710.56 171,-717.5 162.5,-720.89 153.25,-723.68 144.1,-725.97"/>
<polygon fill="#63b8ff" stroke="#63b8ff" points="229.86,-691.82 238.72,-686 228.17,-685.02 229.86,-691.82"/>
</a>
</g>
</g>
<!-- Node10 -->
<g id="Node000010" class="node">
<title>Node10</title>
<g id="a_Node000010"><a xlink:href="classMax22200Handler.html#a963d65edae16cca4fd153b3af0c1e68e" target="_top" xlink:title="Clear all fault flags.">
<polygon fill="white" stroke="#666666" points="168.5,-708 2.5,-708 2.5,-689 168.5,-689 168.5,-708"/>
<text text-anchor="middle" x="85.5" y="-696" font-family="Helvetica,sans-Serif" font-size="10.00">Max22200Handler::ClearFaults</text>
</a>
</g>
</g>
<!-- Node9&#45;&gt;Node10 -->
<g id="edge9_Node000009_Node000010" class="edge">
<title>Node9&#45;&gt;Node10</title>
<g id="a_edge9_Node000009_Node000010"><a xlink:title=" ">
<path fill="none" stroke="#63b8ff" d="M229.71,-651.4C221.94,-653.42 214.24,-655.78 207,-658.5 189.66,-665.02 188.24,-672.72 171,-679.5 161.34,-683.3 150.76,-686.43 140.44,-688.97"/>
<polygon fill="#63b8ff" stroke="#63b8ff" points="230.68,-654.76 239.57,-649 229.03,-647.96 230.68,-654.76"/>
</a>
</g>
</g>
<!-- Node11 -->
<g id="Node000011" class="node">
<title>Node11</title>
<g id="a_Node000011"><a xlink:href="classMax22200Handler.html#a9e9684818c7efddd45697f28051cbca2" target="_top" xlink:title="Disable all channels.">
<polygon fill="white" stroke="#666666" points="160,-670.5 11,-670.5 11,-640.5 160,-640.5 160,-670.5"/>
<text text-anchor="start" x="19" y="-658.5" font-family="Helvetica,sans-Serif" font-size="10.00">Max22200Handler::Disable</text>
<text text-anchor="middle" x="85.5" y="-647.5" font-family="Helvetica,sans-Serif" font-size="10.00">AllChannels</text>
</a>
</g>
</g>
<!-- Node9&#45;&gt;Node11 -->
<g id="edge10_Node000009_Node000011" class="edge">
<title>Node9&#45;&gt;Node11</title>
<g id="a_edge10_Node000009_Node000011"><a xlink:title=" ">
<path fill="none" stroke="#63b8ff" d="M214.05,-646.16C196.06,-647.48 177.38,-648.85 160.04,-650.11"/>
<polygon fill="#63b8ff" stroke="#63b8ff" points="214.54,-649.63 224.26,-645.41 214.03,-642.65 214.54,-649.63"/>
</a>
</g>
</g>
<!-- Node12 -->
<g id="Node000012" class="node">
<title>Node12</title>
<g id="a_Node000012"><a xlink:href="classMax22200Handler.html#af7aba4f68825068e774badca04c49a07" target="_top" xlink:title="Enable all channels.">
<polygon fill="white" stroke="#666666" points="164.5,-622.5 6.5,-622.5 6.5,-592.5 164.5,-592.5 164.5,-622.5"/>
<text text-anchor="start" x="14.5" y="-610.5" font-family="Helvetica,sans-Serif" font-size="10.00">Max22200Handler::EnableAll</text>
<text text-anchor="middle" x="85.5" y="-599.5" font-family="Helvetica,sans-Serif" font-size="10.00">Channels</text>
</a>
</g>
</g>
<!-- Node9&#45;&gt;Node12 -->
<g id="edge11_Node000009_Node000012" class="edge">
<title>Node9&#45;&gt;Node12</title>
<g id="a_edge11_Node000009_Node000012"><a xlink:title=" ">
<path fill="none" stroke="#63b8ff" d="M229.88,-628.5C208.84,-625.42 185.93,-622.06 164.72,-618.96"/>
<polygon fill="#63b8ff" stroke="#63b8ff" points="229.63,-632 240.03,-629.99 230.65,-625.07 229.63,-632"/>
</a>
</g>
</g>
<!-- Node13 -->
<g id="Node000013" class="node">
<title>Node13</title>
<g id="a_Node000013"><a xlink:href="classMax22200Handler.html#ac5b60b117fec404c55597929134fa1a1" target="_top" xlink:title="Check if any fault is present.">
<polygon fill="white" stroke="#666666" points="162.5,-574 8.5,-574 8.5,-555 162.5,-555 162.5,-574"/>
<text text-anchor="middle" x="85.5" y="-562" font-family="Helvetica,sans-Serif" font-size="10.00">Max22200Handler::HasFault</text>
</a>
</g>
</g>
<!-- Node9&#45;&gt;Node13 -->
<g id="edge12_Node000009_Node000013" class="edge">
<title>Node9&#45;&gt;Node13</title>
<g id="a_edge12_Node000009_Node000013"><a xlink:title=" ">
<path fill="none" stroke="#63b8ff" d="M220.37,-626.6C215.75,-624.82 211.26,-622.8 207,-620.5 186.81,-609.59 191.02,-594.7 171,-583.5 164.05,-579.61 156.35,-576.51 148.51,-574.05"/>
<polygon fill="#63b8ff" stroke="#63b8ff" points="219.43,-629.98 230.03,-629.93 221.71,-623.36 219.43,-629.98"/>
</a>
</g>
</g>
<!-- Node15 -->
<g id="Node000015" class="node">
<title>Node15</title>
<g id="a_Node000015"><a xlink:href="classTle92466edHandler.html#a59ce7fd71a61c78bba4dc4a43c99e280" target="_top" xlink:title=" ">
<polygon fill="white" stroke="#666666" points="603,-563.5 472,-563.5 472,-533.5 603,-533.5 603,-563.5"/>
<text text-anchor="start" x="480" y="-551.5" font-family="Helvetica,sans-Serif" font-size="10.00">Tle92466edHandler::</text>
<text text-anchor="middle" x="537.5" y="-540.5" font-family="Helvetica,sans-Serif" font-size="10.00">EnsureInitializedLocked</text>
</a>
</g>
</g>
<!-- Node14&#45;&gt;Node15 -->
<g id="edge14_Node000014_Node000015" class="edge">
<title>Node14&#45;&gt;Node15</title>
<g id="a_edge14_Node000014_Node000015"><a xlink:title=" ">
<path fill="none" stroke="#63b8ff" d="M684.52,-633.26C679.55,-631.46 674.66,-629.54 670,-627.5 629,-609.58 585.18,-581.16 559.9,-563.74"/>
<polygon fill="#63b8ff" stroke="#63b8ff" points="683.54,-636.62 694.13,-636.57 685.81,-630 683.54,-636.62"/>
</a>
</g>
</g>
<!-- Node16 -->
<g id="Node000016" class="node">
<title>Node16</title>
<g id="a_Node000016"><a xlink:href="classTle92466edHandler.html#afcec01ba90f6596dcde99387ef41b6e4" target="_top" xlink:title="Dump diagnostics to logger.">
<polygon fill="white" stroke="#666666" points="365,-611.5 247,-611.5 247,-581.5 365,-581.5 365,-611.5"/>
<text text-anchor="start" x="255" y="-599.5" font-family="Helvetica,sans-Serif" font-size="10.00">Tle92466edHandler::</text>
<text text-anchor="middle" x="306" y="-588.5" font-family="Helvetica,sans-Serif" font-size="10.00">DumpDiagnostics</text>
</a>
</g>
</g>
<!-- Node15&#45;&gt;Node16 -->
<g id="edge15_Node000015_Node000016" class="edge">
<title>Node15&#45;&gt;Node16</title>
<g id="a_edge15_Node000015_Node000016"><a xlink:title=" ">
<path fill="none" stroke="#63b8ff" d="M461.94,-564.09C430.55,-570.66 394.57,-578.19 365.18,-584.33"/>
<polygon fill="#63b8ff" stroke="#63b8ff" points="462.89,-567.47 471.96,-562 461.46,-560.62 462.89,-567.47"/>
</a>
</g>
</g>
<!-- Node17 -->
<g id="Node000017" class="node">
<title>Node17</title>
<g id="a_Node000017"><a xlink:href="classTle92466edHandler.html#a1a976346516812f7125cdeb2f3aeb327" target="_top" xlink:title="Ensure driver is initialized (lazy init entrypoint).">
<polygon fill="white" stroke="#666666" points="365,-563.5 247,-563.5 247,-533.5 365,-533.5 365,-563.5"/>
<text text-anchor="start" x="255" y="-551.5" font-family="Helvetica,sans-Serif" font-size="10.00">Tle92466edHandler::</text>
<text text-anchor="middle" x="306" y="-540.5" font-family="Helvetica,sans-Serif" font-size="10.00">EnsureInitialized</text>
</a>
</g>
</g>
<!-- Node15&#45;&gt;Node17 -->
<g id="edge16_Node000015_Node000017" class="edge">
<title>Node15&#45;&gt;Node17</title>
<g id="a_edge16_Node000015_Node000017"><a xlink:title=" ">
<path fill="none" stroke="#63b8ff" d="M461.94,-548.5C430.55,-548.5 394.57,-548.5 365.18,-548.5"/>
<polygon fill="#63b8ff" stroke="#63b8ff" points="461.96,-552 471.96,-548.5 461.96,-545 461.96,-552"/>
</a>
</g>
</g>
<!-- Node18 -->
<g id="Node000018" class="node">
<title>Node18</title>
<g id="a_Node000018"><a xlink:href="classTle92466edHandler.html#ae83bbf85e50d68c8adcc2160bdaed271" target="_top" xlink:title="Get the underlying driver for advanced operations.">
<polygon fill="white" stroke="#666666" points="365,-515.5 247,-515.5 247,-485.5 365,-485.5 365,-515.5"/>
<text text-anchor="start" x="255" y="-503.5" font-family="Helvetica,sans-Serif" font-size="10.00">Tle92466edHandler::</text>
<text text-anchor="middle" x="306" y="-492.5" font-family="Helvetica,sans-Serif" font-size="10.00">GetDriver</text>
</a>
</g>
</g>
<!-- Node15&#45;&gt;Node18 -->
<g id="edge17_Node000015_Node000018" class="edge">
<title>Node15&#45;&gt;Node18</title>
<g id="a_edge17_Node000015_Node000018"><a xlink:title=" ">
<path fill="none" stroke="#63b8ff" d="M461.94,-532.91C430.55,-526.34 394.57,-518.81 365.18,-512.67"/>
<polygon fill="#63b8ff" stroke="#63b8ff" points="461.46,-536.38 471.96,-535 462.89,-529.53 461.46,-536.38"/>
</a>
</g>
</g>
<!-- Node20 -->
<g id="Node000020" class="node">
<title>Node20</title>
<g id="a_Node000020"><a xlink:href="classTle92466edHandler.html#aef42f3c7c1b1ef51b27eb8d178aca6bc" target="_top" xlink:title="Execute a lambda with a locked, initialized driver.">
<polygon fill="white" stroke="#666666" points="365,-320.5 247,-320.5 247,-290.5 365,-290.5 365,-320.5"/>
<text text-anchor="start" x="255" y="-308.5" font-family="Helvetica,sans-Serif" font-size="10.00">Tle92466edHandler::</text>
<text text-anchor="middle" x="306" y="-297.5" font-family="Helvetica,sans-Serif" font-size="10.00">withDriver</text>
</a>
</g>
</g>
<!-- Node15&#45;&gt;Node20 -->
<g id="edge19_Node000015_Node000020" class="edge">
<title>Node15&#45;&gt;Node20</title>
<g id="a_edge19_Node000015_Node000020"><a xlink:title=" ">
<path fill="none" stroke="#63b8ff" d="M515,-525.74C468.66,-476.67 360.39,-362.03 321.35,-320.69"/>
<polygon fill="#63b8ff" stroke="#63b8ff" points="512.73,-528.43 522.14,-533.3 517.82,-523.63 512.73,-528.43"/>
</a>
</g>
</g>
<!-- Node19 -->
<g id="Node000019" class="node">
<title>Node19</title>
<g id="a_Node000019"><a xlink:href="classTle92466edHandler.html#a56ebe6e509ccd1b6b865728ba14d2533" target="_top" xlink:title=" ">
<polygon fill="white" stroke="#666666" points="144.5,-536.5 26.5,-536.5 26.5,-506.5 144.5,-506.5 144.5,-536.5"/>
<text text-anchor="start" x="34.5" y="-524.5" font-family="Helvetica,sans-Serif" font-size="10.00">Tle92466edHandler::</text>
<text text-anchor="middle" x="85.5" y="-513.5" font-family="Helvetica,sans-Serif" font-size="10.00">GetDriver</text>
</a>
</g>
</g>
<!-- Node18&#45;&gt;Node19 -->
<g id="edge18_Node000018_Node000019" class="edge">
<title>Node18&#45;&gt;Node19</title>
<g id="a_edge18_Node000018_Node000019"><a xlink:title=" ">
<path fill="none" stroke="#63b8ff" d="M236.51,-507.08C207,-509.92 172.85,-513.2 144.6,-515.92"/>
<polygon fill="#63b8ff" stroke="#63b8ff" points="237.11,-510.54 246.73,-506.1 236.44,-503.57 237.11,-510.54"/>
</a>
</g>
</g>
<!-- Node21 -->
<g id="Node000021" class="node">
<title>Node21</title>
<g id="a_Node000021"><a xlink:href="classTle92466edHandler.html#ab3123678e6df690f5669fd89079e0a4e" target="_top" xlink:title="Clear all fault flags.">
<polygon fill="white" stroke="#666666" points="144.5,-488.5 26.5,-488.5 26.5,-458.5 144.5,-458.5 144.5,-488.5"/>
<text text-anchor="start" x="34.5" y="-476.5" font-family="Helvetica,sans-Serif" font-size="10.00">Tle92466edHandler::</text>
<text text-anchor="middle" x="85.5" y="-465.5" font-family="Helvetica,sans-Serif" font-size="10.00">ClearFaults</text>
</a>
</g>
</g>
<!-- Node20&#45;&gt;Node21 -->
<g id="edge20_Node000020_Node000021" class="edge">
<title>Node20&#45;&gt;Node21</title>
<g id="a_edge20_Node000020_Node000021"><a xlink:title=" ">
<path fill="none" stroke="#63b8ff" d="M289.45,-328.99C267.04,-360.98 222.66,-417.9 171,-449.5 162.93,-454.43 153.82,-458.39 144.64,-461.54"/>
<polygon fill="#63b8ff" stroke="#63b8ff" points="292.39,-330.89 295.17,-320.66 286.62,-326.92 292.39,-330.89"/>
</a>
</g>
</g>
<!-- Node22 -->
<g id="Node000022" class="node">
<title>Node22</title>
<g id="a_Node000022"><a xlink:href="classTle92466edHandler.html#ac37cbbcce53c7a55657ee61cd5015190" target="_top" xlink:title="Disable all channels.">
<polygon fill="white" stroke="#666666" points="144.5,-440.5 26.5,-440.5 26.5,-410.5 144.5,-410.5 144.5,-440.5"/>
<text text-anchor="start" x="34.5" y="-428.5" font-family="Helvetica,sans-Serif" font-size="10.00">Tle92466edHandler::</text>
<text text-anchor="middle" x="85.5" y="-417.5" font-family="Helvetica,sans-Serif" font-size="10.00">DisableAllChannels</text>
</a>
</g>
</g>
<!-- Node20&#45;&gt;Node22 -->
<g id="edge21_Node000020_Node000022" class="edge">
<title>Node20&#45;&gt;Node22</title>
<g id="a_edge21_Node000020_Node000022"><a xlink:title=" ">
<path fill="none" stroke="#63b8ff" d="M280.3,-327.24C254.6,-348.84 212.41,-381.54 171,-401.5 162.76,-405.47 153.74,-408.9 144.76,-411.82"/>
<polygon fill="#63b8ff" stroke="#63b8ff" points="282.7,-329.79 288.04,-320.64 278.16,-324.46 282.7,-329.79"/>
</a>
</g>
</g>
<!-- Node23 -->
<g id="Node000023" class="node">
<title>Node23</title>
<g id="a_Node000023"><a xlink:href="classTle92466edHandler.html#a1ee30771436827a1499a379aa7e5ab49" target="_top" xlink:title="Enable all channels.">
<polygon fill="white" stroke="#666666" points="144.5,-392.5 26.5,-392.5 26.5,-362.5 144.5,-362.5 144.5,-392.5"/>
<text text-anchor="start" x="34.5" y="-380.5" font-family="Helvetica,sans-Serif" font-size="10.00">Tle92466edHandler::</text>
<text text-anchor="middle" x="85.5" y="-369.5" font-family="Helvetica,sans-Serif" font-size="10.00">EnableAllChannels</text>
</a>
</g>
</g>
<!-- Node20&#45;&gt;Node23 -->
<g id="edge22_Node000020_Node000023" class="edge">
<title>Node20&#45;&gt;Node23</title>
<g id="a_edge22_Node000020_Node000023"><a xlink:title=" ">
<path fill="none" stroke="#63b8ff" d="M255.4,-324.17C230.25,-333.4 199.15,-344.47 171,-353.5 161.56,-356.53 151.47,-359.56 141.66,-362.41"/>
<polygon fill="#63b8ff" stroke="#63b8ff" points="256.9,-327.34 265.07,-320.6 254.48,-320.77 256.9,-327.34"/>
</a>
</g>
</g>
<!-- Node24 -->
<g id="Node000024" class="node">
<title>Node24</title>
<g id="a_Node000024"><a xlink:href="classTle92466edHandler.html#a19b966bb109b988eb98d319b76908667" target="_top" xlink:title="Enter config mode (for register writes).">
<polygon fill="white" stroke="#666666" points="144.5,-344.5 26.5,-344.5 26.5,-314.5 144.5,-314.5 144.5,-344.5"/>
<text text-anchor="start" x="34.5" y="-332.5" font-family="Helvetica,sans-Serif" font-size="10.00">Tle92466edHandler::</text>
<text text-anchor="middle" x="85.5" y="-321.5" font-family="Helvetica,sans-Serif" font-size="10.00">EnterConfigMode</text>
</a>
</g>
</g>
<!-- Node20&#45;&gt;Node24 -->
<g id="edge23_Node000020_Node000024" class="edge">
<title>Node20&#45;&gt;Node24</title>
<g id="a_edge23_Node000020_Node000024"><a xlink:title=" ">
<path fill="none" stroke="#63b8ff" d="M236.51,-313.02C207,-316.26 172.85,-320.01 144.6,-323.12"/>
<polygon fill="#63b8ff" stroke="#63b8ff" points="237.17,-316.47 246.73,-311.9 236.41,-309.51 237.17,-316.47"/>
</a>
</g>
</g>
<!-- Node25 -->
<g id="Node000025" class="node">
<title>Node25</title>
<g id="a_Node000025"><a xlink:href="classTle92466edHandler.html#aee10ff4c219a042d260a6b1f58a9219a" target="_top" xlink:title="Enter mission mode (enable outputs after configuration).">
<polygon fill="white" stroke="#666666" points="144.5,-296.5 26.5,-296.5 26.5,-266.5 144.5,-266.5 144.5,-296.5"/>
<text text-anchor="start" x="34.5" y="-284.5" font-family="Helvetica,sans-Serif" font-size="10.00">Tle92466edHandler::</text>
<text text-anchor="middle" x="85.5" y="-273.5" font-family="Helvetica,sans-Serif" font-size="10.00">EnterMissionMode</text>
</a>
</g>
</g>
<!-- Node20&#45;&gt;Node25 -->
<g id="edge24_Node000020_Node000025" class="edge">
<title>Node20&#45;&gt;Node25</title>
<g id="a_edge24_Node000020_Node000025"><a xlink:title=" ">
<path fill="none" stroke="#63b8ff" d="M236.51,-297.98C207,-294.74 172.85,-290.99 144.6,-287.88"/>
<polygon fill="#63b8ff" stroke="#63b8ff" points="236.41,-301.49 246.73,-299.1 237.17,-294.53 236.41,-301.49"/>
</a>
</g>
</g>
<!-- Node26 -->
<g id="Node000026" class="node">
<title>Node26</title>
<g id="a_Node000026"><a xlink:href="classTle92466edHandler.html#a4c646ee5db271f07517cc15e8a623f0e" target="_top" xlink:title="Get chip ID (returns 0 on error).">
<polygon fill="white" stroke="#666666" points="144.5,-248.5 26.5,-248.5 26.5,-218.5 144.5,-218.5 144.5,-248.5"/>
<text text-anchor="start" x="34.5" y="-236.5" font-family="Helvetica,sans-Serif" font-size="10.00">Tle92466edHandler::</text>
<text text-anchor="middle" x="85.5" y="-225.5" font-family="Helvetica,sans-Serif" font-size="10.00">GetChipId</text>
</a>
</g>
</g>
<!-- Node20&#45;&gt;Node26 -->
<g id="edge25_Node000020_Node000026" class="edge">
<title>Node20&#45;&gt;Node26</title>
<g id="a_edge25_Node000020_Node000026"><a xlink:title=" ">
<path fill="none" stroke="#63b8ff" d="M255.4,-286.83C230.25,-277.6 199.15,-266.53 171,-257.5 161.56,-254.47 151.47,-251.44 141.66,-248.59"/>
<polygon fill="#63b8ff" stroke="#63b8ff" points="254.48,-290.23 265.07,-290.4 256.9,-283.66 254.48,-290.23"/>
</a>
</g>
</g>
<!-- Node27 -->
<g id="Node000027" class="node">
<title>Node27</title>
<g id="a_Node000027"><a xlink:href="classTle92466edHandler.html#a0c29d4ada1c9247dc90fb64d914dec1f" target="_top" xlink:title="Get IC version (returns 0 on error).">
<polygon fill="white" stroke="#666666" points="144.5,-200.5 26.5,-200.5 26.5,-170.5 144.5,-170.5 144.5,-200.5"/>
<text text-anchor="start" x="34.5" y="-188.5" font-family="Helvetica,sans-Serif" font-size="10.00">Tle92466edHandler::</text>
<text text-anchor="middle" x="85.5" y="-177.5" font-family="Helvetica,sans-Serif" font-size="10.00">GetIcVersion</text>
</a>
</g>
</g>
<!-- Node20&#45;&gt;Node27 -->
<g id="edge26_Node000020_Node000027" class="edge">
<title>Node20&#45;&gt;Node27</title>
<g id="a_edge26_Node000020_Node000027"><a xlink:title=" ">
<path fill="none" stroke="#63b8ff" d="M280.3,-283.76C254.6,-262.16 212.41,-229.46 171,-209.5 162.76,-205.53 153.74,-202.1 144.76,-199.18"/>
<polygon fill="#63b8ff" stroke="#63b8ff" points="278.16,-286.54 288.04,-290.36 282.7,-281.21 278.16,-286.54"/>
</a>
</g>
</g>
<!-- Node28 -->
<g id="Node000028" class="node">
<title>Node28</title>
<g id="a_Node000028"><a xlink:href="classTle92466edHandler.html#ab86e6d3eb2dca25154a8fa7c42ddb945" target="_top" xlink:title="Check if any fault is present.">
<polygon fill="white" stroke="#666666" points="144.5,-152.5 26.5,-152.5 26.5,-122.5 144.5,-122.5 144.5,-152.5"/>
<text text-anchor="start" x="34.5" y="-140.5" font-family="Helvetica,sans-Serif" font-size="10.00">Tle92466edHandler::</text>
<text text-anchor="middle" x="85.5" y="-129.5" font-family="Helvetica,sans-Serif" font-size="10.00">HasFault</text>
</a>
</g>
</g>
<!-- Node20&#45;&gt;Node28 -->
<g id="edge27_Node000020_Node000028" class="edge">
<title>Node20&#45;&gt;Node28</title>
<g id="a_edge27_Node000020_Node000028"><a xlink:title=" ">
<path fill="none" stroke="#63b8ff" d="M289.45,-282.01C267.04,-250.02 222.66,-193.1 171,-161.5 162.93,-156.57 153.82,-152.61 144.64,-149.46"/>
<polygon fill="#63b8ff" stroke="#63b8ff" points="286.62,-284.08 295.17,-290.34 292.39,-280.11 286.62,-284.08"/>
</a>
</g>
</g>
<!-- Node29 -->
<g id="Node000029" class="node">
<title>Node29</title>
<g id="a_Node000029"><a xlink:href="classTle92466edHandler.html#a6bcbd117208f3e44f2216d45541eb4fa" target="_top" xlink:title="Check if in mission mode.">
<polygon fill="white" stroke="#666666" points="144.5,-104.5 26.5,-104.5 26.5,-74.5 144.5,-74.5 144.5,-104.5"/>
<text text-anchor="start" x="34.5" y="-92.5" font-family="Helvetica,sans-Serif" font-size="10.00">Tle92466edHandler::</text>
<text text-anchor="middle" x="85.5" y="-81.5" font-family="Helvetica,sans-Serif" font-size="10.00">IsMissionMode</text>
</a>
</g>
</g>
<!-- Node20&#45;&gt;Node29 -->
<g id="edge28_Node000020_Node000029" class="edge">
<title>Node20&#45;&gt;Node29</title>
<g id="a_edge28_Node000020_Node000029"><a xlink:title=" ">
<path fill="none" stroke="#63b8ff" d="M294.7,-281.14C276.12,-240.2 233.08,-157.74 171,-113.5 163.18,-107.92 154.08,-103.64 144.82,-100.35"/>
<polygon fill="#63b8ff" stroke="#63b8ff" points="291.54,-282.65 298.79,-290.38 297.94,-279.82 291.54,-282.65"/>
</a>
</g>
</g>
<!-- Node31 -->
<g id="Node000031" class="node">
<title>Node31</title>
<g id="a_Node000031"><a xlink:href="classWs2812Handler.html#afe5f397b22e9b92cf2fb2cebae6e123d" target="_top" xlink:title=" ">
<polygon fill="white" stroke="#666666" points="628,-98.5 447,-98.5 447,-68.5 628,-68.5 628,-98.5"/>
<text text-anchor="start" x="455" y="-86.5" font-family="Helvetica,sans-Serif" font-size="10.00">Ws2812Handler::EnsureInitialized</text>
<text text-anchor="middle" x="537.5" y="-75.5" font-family="Helvetica,sans-Serif" font-size="10.00">Locked</text>
</a>
</g>
</g>
<!-- Node30&#45;&gt;Node31 -->
<g id="edge30_Node000030_Node000031" class="edge">
<title>Node30&#45;&gt;Node31</title>
<g id="a_edge30_Node000030_Node000031"><a xlink:title=" ">
<path fill="none" stroke="#63b8ff" d="M674.62,-593.48C673.01,-592.25 671.46,-590.92 670,-589.5 632.83,-553.35 557.25,-178.61 541.44,-98.51"/>
<polygon fill="#63b8ff" stroke="#63b8ff" points="672.9,-596.53 683.23,-598.9 676.64,-590.61 672.9,-596.53"/>
</a>
</g>
</g>
<!-- Node32 -->
<g id="Node000032" class="node">
<title>Node32</title>
<g id="a_Node000032"><a xlink:href="classWs2812Handler.html#a586683dcf63f17194b77c026972c7b2b" target="_top" xlink:title="Dump diagnostics to logger.">
<polygon fill="white" stroke="#666666" points="399,-130 213,-130 213,-111 399,-111 399,-130"/>
<text text-anchor="middle" x="306" y="-118" font-family="Helvetica,sans-Serif" font-size="10.00">Ws2812Handler::DumpDiagnostics</text>
</a>
</g>
</g>
<!-- Node31&#45;&gt;Node32 -->
<g id="edge31_Node000031_Node000032" class="edge">
<title>Node31&#45;&gt;Node32</title>
<g id="a_edge31_Node000031_Node000032"><a xlink:title=" ">
<path fill="none" stroke="#63b8ff" d="M436.89,-99.56C412.8,-103.44 387.81,-107.47 366.25,-110.95"/>
<polygon fill="#63b8ff" stroke="#63b8ff" points="437.47,-103.01 446.78,-97.96 436.35,-96.1 437.47,-103.01"/>
</a>
</g>
</g>
<!-- Node33 -->
<g id="Node000033" class="node">
<title>Node33</title>
<g id="a_Node000033"><a xlink:href="classWs2812Handler.html#a764cc93c64a81844a284ac7515ea8366" target="_top" xlink:title="Ensure strip resources are initialized (lazy init entrypoint).">
<polygon fill="white" stroke="#666666" points="396.5,-93 215.5,-93 215.5,-74 396.5,-74 396.5,-93"/>
<text text-anchor="middle" x="306" y="-81" font-family="Helvetica,sans-Serif" font-size="10.00">Ws2812Handler::EnsureInitialized</text>
</a>
</g>
</g>
<!-- Node31&#45;&gt;Node33 -->
<g id="edge32_Node000031_Node000033" class="edge">
<title>Node31&#45;&gt;Node33</title>
<g id="a_edge32_Node000031_Node000033"><a xlink:title=" ">
<path fill="none" stroke="#63b8ff" d="M436.67,-83.5C423.36,-83.5 409.78,-83.5 396.65,-83.5"/>
<polygon fill="#63b8ff" stroke="#63b8ff" points="436.78,-87 446.78,-83.5 436.78,-80 436.78,-87"/>
</a>
</g>
</g>
<!-- Node34 -->
<g id="Node000034" class="node">
<title>Node34</title>
<g id="a_Node000034"><a xlink:href="classWs2812Handler.html#a3e09ba2c15d5b0e7d6d254e22f634ae8" target="_top" xlink:title="Get the animator object.">
<polygon fill="white" stroke="#666666" points="387,-56 225,-56 225,-37 387,-37 387,-56"/>
<text text-anchor="middle" x="306" y="-44" font-family="Helvetica,sans-Serif" font-size="10.00">Ws2812Handler::GetAnimator</text>
</a>
</g>
</g>
<!-- Node31&#45;&gt;Node34 -->
<g id="edge33_Node000031_Node000034" class="edge">
<title>Node31&#45;&gt;Node34</title>
<g id="a_edge33_Node000031_Node000034"><a xlink:title=" ">
<path fill="none" stroke="#63b8ff" d="M436.89,-67.44C412.8,-63.56 387.81,-59.53 366.25,-56.05"/>
<polygon fill="#63b8ff" stroke="#63b8ff" points="436.35,-70.9 446.78,-69.04 437.47,-63.99 436.35,-70.9"/>
</a>
</g>
</g>
<!-- Node36 -->
<g id="Node000036" class="node">
<title>Node36</title>
<g id="a_Node000036"><a xlink:href="classWs2812Handler.html#a7471840392adad3cab496e2dc57dc792" target="_top" xlink:title="Get the underlying LED strip object.">
<polygon fill="white" stroke="#666666" points="376,-19 236,-19 236,0 376,0 376,-19"/>
<text text-anchor="middle" x="306" y="-7" font-family="Helvetica,sans-Serif" font-size="10.00">Ws2812Handler::GetStrip</text>
</a>
</g>
</g>
<!-- Node31&#45;&gt;Node36 -->
<g id="edge35_Node000031_Node000036" class="edge">
<title>Node31&#45;&gt;Node36</title>
<g id="a_edge35_Node000031_Node000036"><a xlink:title=" ">
<path fill="none" stroke="#63b8ff" d="M497.34,-64.12C471.63,-52.08 436.96,-37.11 405,-27.5 393.98,-24.19 382.08,-21.38 370.49,-19.04"/>
<polygon fill="#63b8ff" stroke="#63b8ff" points="495.85,-67.29 506.39,-68.41 498.85,-60.96 495.85,-67.29"/>
</a>
</g>
</g>
<!-- Node35 -->
<g id="Node000035" class="node">
<title>Node35</title>
<g id="a_Node000035"><a xlink:href="classWs2812Handler.html#ad564e91a669c0a06f5abde5a3ae8a6a6" target="_top" xlink:title=" ">
<polygon fill="white" stroke="#666666" points="166.5,-56 4.5,-56 4.5,-37 166.5,-37 166.5,-56"/>
<text text-anchor="middle" x="85.5" y="-44" font-family="Helvetica,sans-Serif" font-size="10.00">Ws2812Handler::GetAnimator</text>
</a>
</g>
</g>
<!-- Node34&#45;&gt;Node35 -->
<g id="edge34_Node000034_Node000035" class="edge">
<title>Node34&#45;&gt;Node35</title>
<g id="a_edge34_Node000034_Node000035"><a xlink:title=" ">
<path fill="none" stroke="#63b8ff" d="M214.53,-46.5C198.64,-46.5 182.2,-46.5 166.61,-46.5"/>
<polygon fill="#63b8ff" stroke="#63b8ff" points="214.88,-50 224.88,-46.5 214.88,-43 214.88,-50"/>
</a>
</g>
</g>
<!-- Node37 -->
<g id="Node000037" class="node">
<title>Node37</title>
<g id="a_Node000037"><a xlink:href="classWs2812Handler.html#af97f5cc26ad1fb0f4722e72346ca7caa" target="_top" xlink:title=" ">
<polygon fill="white" stroke="#666666" points="155.5,-19 15.5,-19 15.5,0 155.5,0 155.5,-19"/>
<text text-anchor="middle" x="85.5" y="-7" font-family="Helvetica,sans-Serif" font-size="10.00">Ws2812Handler::GetStrip</text>
</a>
</g>
</g>
<!-- Node36&#45;&gt;Node37 -->
<g id="edge36_Node000036_Node000037" class="edge">
<title>Node36&#45;&gt;Node37</title>
<g id="a_edge36_Node000036_Node000037"><a xlink:title=" ">
<path fill="none" stroke="#63b8ff" d="M225.8,-9.5C202.8,-9.5 177.88,-9.5 155.56,-9.5"/>
<polygon fill="#63b8ff" stroke="#63b8ff" points="225.87,-13 235.87,-9.5 225.87,-6 225.87,-13"/>
</a>
</g>
</g>
<!-- Node42 -->
<g id="Node000042" class="node">
<title>Node42</title>
<g id="a_Node000042"><a xlink:href="classTmc5160Handler.html#a6d4fce2433e03bb11b05a4278ef66fd0" target="_top" xlink:title=" ">
<polygon fill="white" stroke="#666666" points="631,-839.5 444,-839.5 444,-809.5 631,-809.5 631,-839.5"/>
<text text-anchor="start" x="452" y="-827.5" font-family="Helvetica,sans-Serif" font-size="10.00">Tmc5160Handler::EnsureInitialized</text>
<text text-anchor="middle" x="537.5" y="-816.5" font-family="Helvetica,sans-Serif" font-size="10.00">Locked</text>
</a>
</g>
</g>
<!-- Node41&#45;&gt;Node42 -->
<g id="edge41_Node000041_Node000042" class="edge">
<title>Node41&#45;&gt;Node42</title>
<g id="a_edge41_Node000041_Node000042"><a xlink:title=" ">
<path fill="none" stroke="#63b8ff" d="M705.27,-781.64C673.4,-789.83 631.13,-800.69 597.12,-809.43"/>
<polygon fill="#63b8ff" stroke="#63b8ff" points="706.41,-784.96 715.22,-779.08 704.67,-778.18 706.41,-784.96"/>
</a>
</g>
</g>
<!-- Node42&#45;&gt;Node2 -->
<g id="edge46_Node000042_Node000002" class="edge">
<title>Node42&#45;&gt;Node2</title>
<g id="a_edge46_Node000042_Node000002"><a xlink:title=" ">
<path fill="none" stroke="#63b8ff" d="M497.34,-843.88C471.63,-855.92 436.96,-870.89 405,-880.5 393.98,-883.81 382.08,-886.62 370.49,-888.96"/>
<polygon fill="#63b8ff" stroke="#63b8ff" points="498.85,-847.04 506.39,-839.59 495.85,-840.71 498.85,-847.04"/>
</a>
</g>
</g>
<!-- Node43 -->
<g id="Node000043" class="node">
<title>Node43</title>
<g id="a_Node000043"><a xlink:href="classTmc5160Handler.html#a15dae0f711e2dd4ecea09822b8a3a8bb" target="_top" xlink:title="Get typed SPI driver pointer (null if UART mode or not initialized).">
<polygon fill="white" stroke="#666666" points="388.5,-871 223.5,-871 223.5,-852 388.5,-852 388.5,-871"/>
<text text-anchor="middle" x="306" y="-859" font-family="Helvetica,sans-Serif" font-size="10.00">Tmc5160Handler::driverViaSpi</text>
</a>
</g>
</g>
<!-- Node42&#45;&gt;Node43 -->
<g id="edge42_Node000042_Node000043" class="edge">
<title>Node42&#45;&gt;Node43</title>
<g id="a_edge42_Node000042_Node000043"><a xlink:title=" ">
<path fill="none" stroke="#63b8ff" d="M433.91,-841.04C410.67,-844.79 386.76,-848.64 366.04,-851.98"/>
<polygon fill="#63b8ff" stroke="#63b8ff" points="434.5,-844.49 443.82,-839.44 433.39,-837.58 434.5,-844.49"/>
</a>
</g>
</g>
<!-- Node45 -->
<g id="Node000045" class="node">
<title>Node45</title>
<g id="a_Node000045"><a xlink:href="classTmc5160Handler.html#af8cb1c7b5011bd24102d296f22c211c5" target="_top" xlink:title="Get typed UART driver pointer (null if SPI mode or not initialized).">
<polygon fill="white" stroke="#666666" points="391.5,-834 220.5,-834 220.5,-815 391.5,-815 391.5,-834"/>
<text text-anchor="middle" x="306" y="-822" font-family="Helvetica,sans-Serif" font-size="10.00">Tmc5160Handler::driverViaUart</text>
</a>
</g>
</g>
<!-- Node42&#45;&gt;Node45 -->
<g id="edge44_Node000042_Node000045" class="edge">
<title>Node42&#45;&gt;Node45</title>
<g id="a_edge44_Node000042_Node000045"><a xlink:title=" ">
<path fill="none" stroke="#63b8ff" d="M433.62,-824.5C419.53,-824.5 405.21,-824.5 391.51,-824.5"/>
<polygon fill="#63b8ff" stroke="#63b8ff" points="433.82,-828 443.82,-824.5 433.82,-821 433.82,-828"/>
</a>
</g>
</g>
<!-- Node47 -->
<g id="Node000047" class="node">
<title>Node47</title>
<g id="a_Node000047"><a xlink:href="classTmc5160Handler.html#a5ad276d4fcd81765d0a5af064fdbf7b5" target="_top" xlink:title="Ensure driver is initialized (lazy init entrypoint).">
<polygon fill="white" stroke="#666666" points="399.5,-797 212.5,-797 212.5,-778 399.5,-778 399.5,-797"/>
<text text-anchor="middle" x="306" y="-785" font-family="Helvetica,sans-Serif" font-size="10.00">Tmc5160Handler::EnsureInitialized</text>
</a>
</g>
</g>
<!-- Node42&#45;&gt;Node47 -->
<g id="edge47_Node000042_Node000047" class="edge">
<title>Node42&#45;&gt;Node47</title>
<g id="a_edge47_Node000042_Node000047"><a xlink:title=" ">
<path fill="none" stroke="#63b8ff" d="M433.91,-807.96C410.67,-804.21 386.76,-800.36 366.04,-797.02"/>
<polygon fill="#63b8ff" stroke="#63b8ff" points="433.39,-811.42 443.82,-809.56 434.5,-804.51 433.39,-811.42"/>
</a>
</g>
</g>
<!-- Node44 -->
<g id="Node000044" class="node">
<title>Node44</title>
<g id="a_Node000044"><a xlink:href="classTmc5160Handler.html#aa47c7b0c69a35aa3f9e9c6fc8d2bd95c" target="_top" xlink:title=" ">
<polygon fill="white" stroke="#666666" points="168,-871 3,-871 3,-852 168,-852 168,-871"/>
<text text-anchor="middle" x="85.5" y="-859" font-family="Helvetica,sans-Serif" font-size="10.00">Tmc5160Handler::driverViaSpi</text>
</a>
</g>
</g>
<!-- Node43&#45;&gt;Node44 -->
<g id="edge43_Node000043_Node000044" class="edge">
<title>Node43&#45;&gt;Node44</title>
<g id="a_edge43_Node000043_Node000044"><a xlink:title=" ">
<path fill="none" stroke="#63b8ff" d="M213.07,-861.5C198.13,-861.5 182.74,-861.5 168.07,-861.5"/>
<polygon fill="#63b8ff" stroke="#63b8ff" points="213.33,-865 223.33,-861.5 213.33,-858 213.33,-865"/>
</a>
</g>
</g>
<!-- Node46 -->
<g id="Node000046" class="node">
<title>Node46</title>
<g id="a_Node000046"><a xlink:href="classTmc5160Handler.html#a845e1879a4606367f419f3892061ff31" target="_top" xlink:title=" ">
<polygon fill="white" stroke="#666666" points="171,-834 0,-834 0,-815 171,-815 171,-834"/>
<text text-anchor="middle" x="85.5" y="-822" font-family="Helvetica,sans-Serif" font-size="10.00">Tmc5160Handler::driverViaUart</text>
</a>
</g>
</g>
<!-- Node45&#45;&gt;Node46 -->
<g id="edge45_Node000045_Node000046" class="edge">
<title>Node45&#45;&gt;Node46</title>
<g id="a_edge45_Node000045_Node000046"><a xlink:title=" ">
<path fill="none" stroke="#63b8ff" d="M209.95,-824.5C197.07,-824.5 183.93,-824.5 171.24,-824.5"/>
<polygon fill="#63b8ff" stroke="#63b8ff" points="210.21,-828 220.21,-824.5 210.21,-821 210.21,-828"/>
</a>
</g>
</g>
<!-- Node48 -->
<g id="Node000048" class="node">
<title>Node48</title>
<g id="a_Node000048"><a xlink:href="classTmc5160Handler.html#adf1b6ae5b680756f1b68169789cf0c1f" target="_top" xlink:title="Visit the typed driver with a callable.">
<polygon fill="white" stroke="#666666" points="164,-797 7,-797 7,-778 164,-778 164,-797"/>
<text text-anchor="middle" x="85.5" y="-785" font-family="Helvetica,sans-Serif" font-size="10.00">Tmc5160Handler::visitDriver</text>
</a>
</g>
</g>
<!-- Node47&#45;&gt;Node48 -->
<g id="edge48_Node000047_Node000048" class="edge">
<title>Node47&#45;&gt;Node48</title>
<g id="a_edge48_Node000047_Node000048"><a xlink:title=" ">
<path fill="none" stroke="#63b8ff" d="M202.13,-787.5C189.35,-787.5 176.45,-787.5 164.15,-787.5"/>
<polygon fill="#63b8ff" stroke="#63b8ff" points="202.34,-791 212.34,-787.5 202.34,-784 202.34,-791"/>
</a>
</g>
</g>
</g>
</svg>
