<?xml version="1.0" encoding="UTF-8" standalone="no"?>
<!DOCTYPE svg PUBLIC "-//W3C//DTD SVG 1.1//EN"
 "http://www.w3.org/Graphics/SVG/1.1/DTD/svg11.dtd">
<!-- Generated by graphviz version 2.43.0 (0)
 -->
<!-- Title: Tmc9660Handler::Adc::GetChannelTypeString Pages: 1 -->
<svg width="1064pt" height="113pt"
 viewBox="0.00 0.00 1064.00 112.50" xmlns="http://www.w3.org/2000/svg" xmlns:xlink="http://www.w3.org/1999/xlink">
<g id="graph0" class="graph" transform="scale(1 1) rotate(0) translate(4 108.5)">
<title>Tmc9660Handler::Adc::GetChannelTypeString</title>
<!-- Node1 -->
<g id="Node000001" class="node">
<title>Node1</title>
<g id="a_Node000001"><a xlink:title="Get a human&#45;readable string for a channel type (for logging).">
<polygon fill="#999999" stroke="#666666" points="131,-51 0,-51 0,-21 131,-21 131,-51"/>
<text text-anchor="start" x="8" y="-39" font-family="Helvetica,sans-Serif" font-size="10.00">Tmc9660Handler::Adc</text>
<text text-anchor="middle" x="65.5" y="-28" font-family="Helvetica,sans-Serif" font-size="10.00">::GetChannelTypeString</text>
</a>
</g>
</g>
<!-- Node2 -->
<g id="Node000002" class="node">
<title>Node2</title>
<g id="a_Node000002"><a xlink:href="classTmc9660Handler.html#a393382194d0602e7aa02da6a8fd7a20a" target="_top" xlink:title="Get a reference to the Temperature wrapper.">
<polygon fill="white" stroke="#666666" points="334,-45.5 167,-45.5 167,-26.5 334,-26.5 334,-45.5"/>
<text text-anchor="middle" x="250.5" y="-33.5" font-family="Helvetica,sans-Serif" font-size="10.00">Tmc9660Handler::temperature</text>
</a>
</g>
</g>
<!-- Node1&#45;&gt;Node2 -->
<g id="edge1_Node000001_Node000002" class="edge">
<title>Node1&#45;&gt;Node2</title>
<g id="a_edge1_Node000001_Node000002"><a xlink:title=" ">
<path fill="none" stroke="#63b8ff" d="M131.02,-36C139.38,-36 148.06,-36 156.77,-36"/>
<polygon fill="#63b8ff" stroke="#63b8ff" points="156.97,-39.5 166.97,-36 156.97,-32.5 156.97,-39.5"/>
</a>
</g>
</g>
<!-- Node2&#45;&gt;Node2 -->
<g id="edge12_Node000002_Node000002" class="edge">
<title>Node2&#45;&gt;Node2</title>
<g id="a_edge12_Node000002_Node000002"><a xlink:title=" ">
<path fill="none" stroke="#63b8ff" d="M222.14,-45.58C208.34,-54.23 217.8,-63.5 250.5,-63.5 272.98,-63.5 284.48,-59.12 284.98,-53.57"/>
<polygon fill="#63b8ff" stroke="#63b8ff" points="287.72,-51.39 278.86,-45.58 282.16,-55.65 287.72,-51.39"/>
</a>
</g>
</g>
<!-- Node3 -->
<g id="Node000003" class="node">
<title>Node3</title>
<g id="a_Node000003"><a xlink:href="classTmc9660Handler.html#a5a279ae9d4b5a8e0d71cb24577ad88ea" target="_top" xlink:title="Ensure driver is initialized (lazy init entrypoint).">
<polygon fill="white" stroke="#666666" points="557,-45.5 370,-45.5 370,-26.5 557,-26.5 557,-45.5"/>
<text text-anchor="middle" x="463.5" y="-33.5" font-family="Helvetica,sans-Serif" font-size="10.00">Tmc9660Handler::EnsureInitialized</text>
</a>
</g>
</g>
<!-- Node2&#45;&gt;Node3 -->
<g id="edge2_Node000002_Node000003" class="edge">
<title>Node2&#45;&gt;Node3</title>
<g id="a_edge2_Node000002_Node000003"><a xlink:title=" ">
<path fill="none" stroke="#63b8ff" d="M334.29,-36C342.67,-36 351.25,-36 359.81,-36"/>
<polygon fill="#63b8ff" stroke="#63b8ff" points="359.83,-39.5 369.83,-36 359.83,-32.5 359.83,-39.5"/>
</a>
</g>
</g>
<!-- Node4 -->
<g id="Node000004" class="node">
<title>Node4</title>
<g id="a_Node000004"><a xlink:href="classTmc9660Handler.html#adc564847f8ae26c47412aaee0758991c" target="_top" xlink:title="Initialize the TMC9660 device.">
<polygon fill="white" stroke="#666666" points="741,-67.5 593,-67.5 593,-48.5 741,-48.5 741,-67.5"/>
<text text-anchor="middle" x="667" y="-55.5" font-family="Helvetica,sans-Serif" font-size="10.00">Tmc9660Handler::Initialize</text>
</a>
</g>
</g>
<!-- Node3&#45;&gt;Node4 -->
<g id="edge3_Node000003_Node000004" class="edge">
<title>Node3&#45;&gt;Node4</title>
<g id="a_edge3_Node000003_Node000004"><a xlink:title=" ">
<path fill="none" stroke="#63b8ff" d="M551.71,-45.52C562,-46.65 572.48,-47.79 582.72,-48.91"/>
<polygon fill="#63b8ff" stroke="#63b8ff" points="582.53,-52.41 592.85,-50.01 583.29,-45.45 582.53,-52.41"/>
</a>
</g>
</g>
<!-- Node10 -->
<g id="Node000010" class="node">
<title>Node10</title>
<g id="a_Node000010"><a xlink:href="classTmc9660Handler.html#a13db97d201a287d8aa60384e04070b9f" target="_top" xlink:title="Check if the TMC9660 driver has been initialized and is ready.">
<polygon fill="white" stroke="#666666" points="739,-30 595,-30 595,0 739,0 739,-30"/>
<text text-anchor="start" x="603" y="-18" font-family="Helvetica,sans-Serif" font-size="10.00">Tmc9660Handler::IsDriver</text>
<text text-anchor="middle" x="667" y="-7" font-family="Helvetica,sans-Serif" font-size="10.00">Ready</text>
</a>
</g>
</g>
<!-- Node3&#45;&gt;Node10 -->
<g id="edge11_Node000003_Node000010" class="edge">
<title>Node3&#45;&gt;Node10</title>
<g id="a_edge11_Node000003_Node000010"><a xlink:title=" ">
<path fill="none" stroke="#63b8ff" d="M555.82,-26.48C565.45,-25.48 575.2,-24.46 584.71,-23.47"/>
<polygon fill="#63b8ff" stroke="#63b8ff" points="585.34,-26.93 594.92,-22.41 584.61,-19.96 585.34,-26.93"/>
</a>
</g>
</g>
<!-- Node5 -->
<g id="Node000005" class="node">
<title>Node5</title>
<g id="a_Node000005"><a xlink:href="classLogger.html#adce17848a5844e053bfd314863dc1404" target="_top" xlink:title="Log error message.">
<polygon fill="white" stroke="#666666" points="873.5,-67.5 794.5,-67.5 794.5,-48.5 873.5,-48.5 873.5,-67.5"/>
<text text-anchor="middle" x="834" y="-55.5" font-family="Helvetica,sans-Serif" font-size="10.00">Logger::Error</text>
</a>
</g>
</g>
<!-- Node4&#45;&gt;Node5 -->
<g id="edge4_Node000004_Node000005" class="edge">
<title>Node4&#45;&gt;Node5</title>
<g id="a_edge4_Node000004_Node000005"><a xlink:title=" ">
<path fill="none" stroke="#63b8ff" d="M741.33,-58C755.73,-58 770.5,-58 783.87,-58"/>
<polygon fill="#63b8ff" stroke="#63b8ff" points="784.26,-61.5 794.26,-58 784.26,-54.5 784.26,-61.5"/>
</a>
</g>
</g>
<!-- Node8 -->
<g id="Node000008" class="node">
<title>Node8</title>
<g id="a_Node000008"><a xlink:href="classLogger.html#a5789d11f8f1356e2192c0023a089cbc4" target="_top" xlink:title="Get singleton instance.">
<polygon fill="white" stroke="#666666" points="891,-30.5 777,-30.5 777,-11.5 891,-11.5 891,-30.5"/>
<text text-anchor="middle" x="834" y="-18.5" font-family="Helvetica,sans-Serif" font-size="10.00">Logger::GetInstance</text>
</a>
</g>
</g>
<!-- Node4&#45;&gt;Node8 -->
<g id="edge7_Node000004_Node000008" class="edge">
<title>Node4&#45;&gt;Node8</title>
<g id="a_edge7_Node000004_Node000008"><a xlink:title=" ">
<path fill="none" stroke="#63b8ff" d="M710.49,-48.47C731.87,-43.68 757.97,-37.82 780.58,-32.75"/>
<polygon fill="#63b8ff" stroke="#63b8ff" points="781.37,-36.16 790.37,-30.56 779.84,-29.33 781.37,-36.16"/>
</a>
</g>
</g>
<!-- Node9 -->
<g id="Node000009" class="node">
<title>Node9</title>
<g id="a_Node000009"><a xlink:href="classLogger.html#a4681229c521795685fc14f6b55c82300" target="_top" xlink:title="Log info message.">
<polygon fill="white" stroke="#666666" points="871,-104.5 797,-104.5 797,-85.5 871,-85.5 871,-104.5"/>
<text text-anchor="middle" x="834" y="-92.5" font-family="Helvetica,sans-Serif" font-size="10.00">Logger::Info</text>
</a>
</g>
</g>
<!-- Node4&#45;&gt;Node9 -->
<g id="edge8_Node000004_Node000009" class="edge">
<title>Node4&#45;&gt;Node9</title>
<g id="a_edge8_Node000004_Node000009"><a xlink:title=" ">
<path fill="none" stroke="#63b8ff" d="M710.49,-67.53C733.89,-72.77 762.94,-79.29 786.89,-84.66"/>
<polygon fill="#63b8ff" stroke="#63b8ff" points="786.28,-88.11 796.8,-86.88 787.81,-81.28 786.28,-88.11"/>
</a>
</g>
</g>
<!-- Node6 -->
<g id="Node000006" class="node">
<title>Node6</title>
<g id="a_Node000006"><a xlink:href="classLogger.html#af9e84e0ff6bd538e4f9ed8dcebc3e2f0" target="_top" xlink:title="Check if log level is enabled for tag.">
<polygon fill="white" stroke="#666666" points="1056,-104.5 927,-104.5 927,-85.5 1056,-85.5 1056,-104.5"/>
<text text-anchor="middle" x="991.5" y="-92.5" font-family="Helvetica,sans-Serif" font-size="10.00">Logger::IsLevelEnabled</text>
</a>
</g>
</g>
<!-- Node5&#45;&gt;Node6 -->
<g id="edge5_Node000005_Node000006" class="edge">
<title>Node5&#45;&gt;Node6</title>
<g id="a_edge5_Node000005_Node000006"><a xlink:title=" ">
<path fill="none" stroke="#63b8ff" d="M873.84,-67.24C894.03,-72.05 918.94,-77.97 940.55,-83.11"/>
<polygon fill="#63b8ff" stroke="#63b8ff" points="940,-86.58 950.53,-85.49 941.62,-79.77 940,-86.58"/>
</a>
</g>
</g>
<!-- Node7 -->
<g id="Node000007" class="node">
<title>Node7</title>
<g id="a_Node000007"><a xlink:href="classLogger.html#a6adb205db597526fb91ad20067400394" target="_top" xlink:title="Internal logging method.">
<polygon fill="white" stroke="#666666" points="1046.5,-67.5 936.5,-67.5 936.5,-48.5 1046.5,-48.5 1046.5,-67.5"/>
<text text-anchor="middle" x="991.5" y="-55.5" font-family="Helvetica,sans-Serif" font-size="10.00">Logger::LogInternal</text>
</a>
</g>
</g>
<!-- Node5&#45;&gt;Node7 -->
<g id="edge6_Node000005_Node000007" class="edge">
<title>Node5&#45;&gt;Node7</title>
<g id="a_edge6_Node000005_Node000007"><a xlink:title=" ">
<path fill="none" stroke="#63b8ff" d="M873.84,-58C889.63,-58 908.31,-58 926.03,-58"/>
<polygon fill="#63b8ff" stroke="#63b8ff" points="926.33,-61.5 936.33,-58 926.33,-54.5 926.33,-61.5"/>
</a>
</g>
</g>
<!-- Node9&#45;&gt;Node6 -->
<g id="edge9_Node000009_Node000006" class="edge">
<title>Node9&#45;&gt;Node6</title>
<g id="a_edge9_Node000009_Node000006"><a xlink:title=" ">
<path fill="none" stroke="#63b8ff" d="M871.07,-95C884.68,-95 900.72,-95 916.55,-95"/>
<polygon fill="#63b8ff" stroke="#63b8ff" points="916.89,-98.5 926.89,-95 916.89,-91.5 916.89,-98.5"/>
</a>
</g>
</g>
<!-- Node9&#45;&gt;Node7 -->
<g id="edge10_Node000009_Node000007" class="edge">
<title>Node9&#45;&gt;Node7</title>
<g id="a_edge10_Node000009_Node000007"><a xlink:title=" ">
<path fill="none" stroke="#63b8ff" d="M871.07,-86.42C891.78,-81.49 918.09,-75.23 940.74,-69.84"/>
<polygon fill="#63b8ff" stroke="#63b8ff" points="941.61,-73.23 950.53,-67.51 939.99,-66.42 941.61,-73.23"/>
</a>
</g>
</g>
</g>
</svg>
