<?xml version="1.0" encoding="UTF-8" standalone="no"?>
<!DOCTYPE svg PUBLIC "-//W3C//DTD SVG 1.1//EN"
 "http://www.w3.org/Graphics/SVG/1.1/DTD/svg11.dtd">
<!-- Generated by graphviz version 2.43.0 (0)
 -->
<!-- Title: Logger::Verbose Pages: 1 -->
<svg width="456pt" height="70pt"
 viewBox="0.00 0.00 456.00 69.50" xmlns="http://www.w3.org/2000/svg" xmlns:xlink="http://www.w3.org/1999/xlink">
<g id="graph0" class="graph" transform="scale(1 1) rotate(0) translate(4 65.5)">
<title>Logger::Verbose</title>
<!-- Node1 -->
<g id="Node000001" class="node">
<title>Node1</title>
<g id="a_Node000001"><a xlink:title="Log verbose message.">
<polygon fill="#999999" stroke="#666666" points="95,-42.5 0,-42.5 0,-23.5 95,-23.5 95,-42.5"/>
<text text-anchor="middle" x="47.5" y="-30.5" font-family="Helvetica,sans-Serif" font-size="10.00">Logger::Verbose</text>
</a>
</g>
</g>
<!-- Node2 -->
<g id="Node000002" class="node">
<title>Node2</title>
<g id="a_Node000002"><a xlink:href="classLogger.html#af9e84e0ff6bd538e4f9ed8dcebc3e2f0" target="_top" xlink:title="Check if log level is enabled for tag.">
<polygon fill="white" stroke="#666666" points="260,-61.5 131,-61.5 131,-42.5 260,-42.5 260,-61.5"/>
<text text-anchor="middle" x="195.5" y="-49.5" font-family="Helvetica,sans-Serif" font-size="10.00">Logger::IsLevelEnabled</text>
</a>
</g>
</g>
<!-- Node1&#45;&gt;Node2 -->
<g id="edge1_Node000001_Node000002" class="edge">
<title>Node1&#45;&gt;Node2</title>
<g id="a_edge1_Node000001_Node000002"><a xlink:title=" ">
<path fill="none" stroke="#63b8ff" d="M95.1,-39.06C103.25,-40.13 111.92,-41.25 120.6,-42.38"/>
<polygon fill="#63b8ff" stroke="#63b8ff" points="120.41,-45.89 130.77,-43.71 121.31,-38.95 120.41,-45.89"/>
</a>
</g>
</g>
<!-- Node3 -->
<g id="Node000003" class="node">
<title>Node3</title>
<g id="a_Node000003"><a xlink:href="classLogger.html#a6adb205db597526fb91ad20067400394" target="_top" xlink:title="Internal logging method.">
<polygon fill="white" stroke="#666666" points="250.5,-24.5 140.5,-24.5 140.5,-5.5 250.5,-5.5 250.5,-24.5"/>
<text text-anchor="middle" x="195.5" y="-12.5" font-family="Helvetica,sans-Serif" font-size="10.00">Logger::LogInternal</text>
</a>
</g>
</g>
<!-- Node1&#45;&gt;Node3 -->
<g id="edge2_Node000001_Node000003" class="edge">
<title>Node1&#45;&gt;Node3</title>
<g id="a_edge2_Node000001_Node000003"><a xlink:title=" ">
<path fill="none" stroke="#63b8ff" d="M95.1,-27.26C106.26,-25.88 118.38,-24.38 130.19,-22.93"/>
<polygon fill="#63b8ff" stroke="#63b8ff" points="130.96,-26.36 140.46,-21.66 130.11,-19.41 130.96,-26.36"/>
</a>
</g>
</g>
<!-- Node4 -->
<g id="Node000004" class="node">
<title>Node4</title>
<g id="a_Node000004"><a xlink:href="namespaceanonymous__namespace_02Logger_8cpp_03.html#a9d2b496fa1b4f4e28667d14e4b8cb190" target="_top" xlink:title=" ">
<polygon fill="white" stroke="#666666" points="448,-30 296,-30 296,0 448,0 448,-30"/>
<text text-anchor="start" x="304" y="-18" font-family="Helvetica,sans-Serif" font-size="10.00">anonymous_namespace</text>
<text text-anchor="middle" x="372" y="-7" font-family="Helvetica,sans-Serif" font-size="10.00">{Logger::cpp}::ToBaseLevel</text>
</a>
</g>
</g>
<!-- Node3&#45;&gt;Node4 -->
<g id="edge3_Node000003_Node000004" class="edge">
<title>Node3&#45;&gt;Node4</title>
<g id="a_edge3_Node000003_Node000004"><a xlink:title=" ">
<path fill="none" stroke="#63b8ff" d="M250.76,-15C261.93,-15 273.96,-15 285.93,-15"/>
<polygon fill="#63b8ff" stroke="#63b8ff" points="285.95,-18.5 295.95,-15 285.95,-11.5 285.95,-18.5"/>
</a>
</g>
</g>
</g>
</svg>
