<?xml version="1.0" encoding="UTF-8" standalone="no"?>
<!DOCTYPE svg PUBLIC "-//W3C//DTD SVG 1.1//EN"
 "http://www.w3.org/Graphics/SVG/1.1/DTD/svg11.dtd">
<!-- Generated by graphviz version 2.43.0 (0)
 -->
<!-- Title: Logger::Warn Pages: 1 -->
<svg width="483pt" height="504pt"
 viewBox="0.00 0.00 483.00 503.50" xmlns="http://www.w3.org/2000/svg" xmlns:xlink="http://www.w3.org/1999/xlink">
<g id="graph0" class="graph" transform="scale(1 1) rotate(0) translate(4 499.5)">
<title>Logger::Warn</title>
<!-- Node1 -->
<g id="Node000001" class="node">
<title>Node1</title>
<g id="a_Node000001"><a xlink:title="Log warning message.">
<polygon fill="#999999" stroke="#666666" points="475,-260.5 395,-260.5 395,-241.5 475,-241.5 475,-260.5"/>
<text text-anchor="middle" x="435" y="-248.5" font-family="Helvetica,sans-Serif" font-size="10.00">Logger::Warn</text>
</a>
</g>
</g>
<!-- Node2 -->
<g id="Node000002" class="node">
<title>Node2</title>
<g id="a_Node000002"><a xlink:href="classTmc9660Handler.html#ad2004d275f9578a1530ad9eb49ff7afb" target="_top" xlink:title="Disable the motor driver output stage (coast/brake behavior depends on gate driver configuration).">
<polygon fill="white" stroke="#666666" points="348.5,-495.5 177.5,-495.5 177.5,-476.5 348.5,-476.5 348.5,-495.5"/>
<text text-anchor="middle" x="263" y="-483.5" font-family="Helvetica,sans-Serif" font-size="10.00">Tmc9660Handler::DisableMotor</text>
</a>
</g>
</g>
<!-- Node1&#45;&gt;Node2 -->
<g id="edge1_Node000001_Node000002" class="edge">
<title>Node1&#45;&gt;Node2</title>
<g id="a_edge1_Node000001_Node000002"><a xlink:title=" ">
<path fill="none" stroke="#63b8ff" d="M433.43,-270.64C431.07,-313.57 419.08,-416.08 359,-468 355.19,-471.29 350.97,-474.06 346.48,-476.38"/>
<polygon fill="#63b8ff" stroke="#63b8ff" points="436.93,-270.78 433.87,-260.64 429.94,-270.48 436.93,-270.78"/>
</a>
</g>
</g>
<!-- Node3 -->
<g id="Node000003" class="node">
<title>Node3</title>
<g id="a_Node000003"><a xlink:href="classTmc5160Handler.html#ab4bf5aabef968f6f8ee66d08cf05913a" target="_top" xlink:title="Dump diagnostic information to logger.">
<polygon fill="white" stroke="#666666" points="359,-458.5 167,-458.5 167,-439.5 359,-439.5 359,-458.5"/>
<text text-anchor="middle" x="263" y="-446.5" font-family="Helvetica,sans-Serif" font-size="10.00">Tmc5160Handler::DumpDiagnostics</text>
</a>
</g>
</g>
<!-- Node1&#45;&gt;Node3 -->
<g id="edge2_Node000001_Node000003" class="edge">
<title>Node1&#45;&gt;Node3</title>
<g id="a_edge2_Node000001_Node000003"><a xlink:title=" ">
<path fill="none" stroke="#63b8ff" d="M431.83,-270.84C426.61,-308.4 409.75,-389.83 359,-431 354.96,-434.28 350.5,-437.03 345.79,-439.33"/>
<polygon fill="#63b8ff" stroke="#63b8ff" points="435.33,-271.04 433.1,-260.68 428.39,-270.17 435.33,-271.04"/>
</a>
</g>
</g>
<!-- Node4 -->
<g id="Node000004" class="node">
<title>Node4</title>
<g id="a_Node000004"><a xlink:href="classTmc9660Handler.html#aee0edc3320de8f590480ed4546254fc2" target="_top" xlink:title="Enable the motor driver output stage.">
<polygon fill="white" stroke="#666666" points="346.5,-421.5 179.5,-421.5 179.5,-402.5 346.5,-402.5 346.5,-421.5"/>
<text text-anchor="middle" x="263" y="-409.5" font-family="Helvetica,sans-Serif" font-size="10.00">Tmc9660Handler::EnableMotor</text>
</a>
</g>
</g>
<!-- Node1&#45;&gt;Node4 -->
<g id="edge3_Node000001_Node000004" class="edge">
<title>Node1&#45;&gt;Node4</title>
<g id="a_edge3_Node000001_Node000004"><a xlink:title=" ">
<path fill="none" stroke="#63b8ff" d="M429.54,-270.65C421.34,-302.03 400.73,-363.09 359,-394 354.55,-397.3 349.67,-400.04 344.54,-402.33"/>
<polygon fill="#63b8ff" stroke="#63b8ff" points="433.04,-271.08 432.02,-260.54 426.24,-269.42 433.04,-271.08"/>
</a>
</g>
</g>
<!-- Node5 -->
<g id="Node000005" class="node">
<title>Node5</title>
<g id="a_Node000005"><a xlink:href="namespaceanonymous__namespace_02Tmc9660Handler_8cpp_03.html#a9645e5797d8ff9813283015d244ec066" target="_top" xlink:title=" ">
<polygon fill="white" stroke="#666666" points="330.5,-384.5 195.5,-384.5 195.5,-343.5 330.5,-343.5 330.5,-384.5"/>
<text text-anchor="start" x="203.5" y="-372.5" font-family="Helvetica,sans-Serif" font-size="10.00">anonymous_namespace</text>
<text text-anchor="start" x="203.5" y="-361.5" font-family="Helvetica,sans-Serif" font-size="10.00">{Tmc9660Handler::cpp}</text>
<text text-anchor="middle" x="263" y="-350.5" font-family="Helvetica,sans-Serif" font-size="10.00">::halDebugLog</text>
</a>
</g>
</g>
<!-- Node1&#45;&gt;Node5 -->
<g id="edge4_Node000001_Node000005" class="edge">
<title>Node1&#45;&gt;Node5</title>
<g id="a_edge4_Node000001_Node000005"><a xlink:title=" ">
<path fill="none" stroke="#63b8ff" d="M422.11,-269.03C408.84,-287.82 385.68,-316.86 359,-334 350.41,-339.51 340.74,-344.08 330.93,-347.84"/>
<polygon fill="#63b8ff" stroke="#63b8ff" points="425.04,-270.96 427.81,-260.73 419.26,-267 425.04,-270.96"/>
</a>
</g>
</g>
<!-- Node8 -->
<g id="Node000008" class="node">
<title>Node8</title>
<g id="a_Node000008"><a xlink:href="classMax22200Handler.html#ad6c72b45a96c36cd1b450f5e330fad25" target="_top" xlink:title="Initialize driver (ENABLE HIGH, read/clear STATUS, set ACTIVE).">
<polygon fill="white" stroke="#666666" points="340,-325.5 186,-325.5 186,-306.5 340,-306.5 340,-325.5"/>
<text text-anchor="middle" x="263" y="-313.5" font-family="Helvetica,sans-Serif" font-size="10.00">Max22200Handler::Initialize</text>
</a>
</g>
</g>
<!-- Node1&#45;&gt;Node8 -->
<g id="edge7_Node000001_Node000008" class="edge">
<title>Node1&#45;&gt;Node8</title>
<g id="a_edge7_Node000001_Node000008"><a xlink:title=" ">
<path fill="none" stroke="#63b8ff" d="M413.23,-266.52C398.73,-276.64 378.55,-289.33 359,-297 349.14,-300.87 338.37,-303.98 327.75,-306.48"/>
<polygon fill="#63b8ff" stroke="#63b8ff" points="415.37,-269.29 421.46,-260.63 411.29,-263.6 415.37,-269.29"/>
</a>
</g>
</g>
<!-- Node9 -->
<g id="Node000009" class="node">
<title>Node9</title>
<g id="a_Node000009"><a xlink:href="classTle92466edHandler.html#a0883f87dfe49cce3abd5acfc8cb2176c" target="_top" xlink:title="Initialize driver (hardware reset + SPI init + enter config mode).">
<polygon fill="white" stroke="#666666" points="322,-288 204,-288 204,-258 322,-258 322,-288"/>
<text text-anchor="start" x="212" y="-276" font-family="Helvetica,sans-Serif" font-size="10.00">Tle92466edHandler::</text>
<text text-anchor="middle" x="263" y="-265" font-family="Helvetica,sans-Serif" font-size="10.00">Initialize</text>
</a>
</g>
</g>
<!-- Node1&#45;&gt;Node9 -->
<g id="edge8_Node000001_Node000009" class="edge">
<title>Node1&#45;&gt;Node9</title>
<g id="a_edge8_Node000001_Node000009"><a xlink:title=" ">
<path fill="none" stroke="#63b8ff" d="M385.05,-257.33C365.42,-259.87 342.65,-262.82 322.18,-265.47"/>
<polygon fill="#63b8ff" stroke="#63b8ff" points="385.53,-260.8 395,-256.05 384.63,-253.86 385.53,-260.8"/>
</a>
</g>
</g>
<!-- Node10 -->
<g id="Node000010" class="node">
<title>Node10</title>
<g id="a_Node000010"><a xlink:href="classWs2812Handler.html#a172ae173d1e2bd93c9808452aad6e4cd" target="_top" xlink:title="Initialize the RMT channel and LED strip.">
<polygon fill="white" stroke="#666666" points="334,-239.5 192,-239.5 192,-220.5 334,-220.5 334,-239.5"/>
<text text-anchor="middle" x="263" y="-227.5" font-family="Helvetica,sans-Serif" font-size="10.00">Ws2812Handler::Initialize</text>
</a>
</g>
</g>
<!-- Node1&#45;&gt;Node10 -->
<g id="edge9_Node000001_Node000010" class="edge">
<title>Node1&#45;&gt;Node10</title>
<g id="a_edge9_Node000001_Node000010"><a xlink:title=" ">
<path fill="none" stroke="#63b8ff" d="M384.92,-244.94C369.1,-242.98 351.24,-240.78 334.2,-238.67"/>
<polygon fill="#63b8ff" stroke="#63b8ff" points="384.64,-248.43 395,-246.18 385.5,-241.48 384.64,-248.43"/>
</a>
</g>
</g>
<!-- Node11 -->
<g id="Node000011" class="node">
<title>Node11</title>
<g id="a_Node000011"><a xlink:href="classNtcTemperatureHandler.html#a97fa93b2ed6337e24e056b46fbe331c7" target="_top" xlink:title=" ">
<polygon fill="white" stroke="#666666" points="329.5,-202 196.5,-202 196.5,-172 329.5,-172 329.5,-202"/>
<text text-anchor="start" x="204.5" y="-190" font-family="Helvetica,sans-Serif" font-size="10.00">NtcTemperatureHandler</text>
<text text-anchor="middle" x="263" y="-179" font-family="Helvetica,sans-Serif" font-size="10.00">::Initialize</text>
</a>
</g>
</g>
<!-- Node1&#45;&gt;Node11 -->
<g id="edge10_Node000001_Node000011" class="edge">
<title>Node1&#45;&gt;Node11</title>
<g id="a_edge10_Node000001_Node000011"><a xlink:title=" ">
<path fill="none" stroke="#63b8ff" d="M409.98,-236.26C395.6,-227.93 376.73,-217.85 359,-211 349.64,-207.38 339.55,-204.16 329.56,-201.34"/>
<polygon fill="#63b8ff" stroke="#63b8ff" points="408.33,-239.35 418.72,-241.43 411.89,-233.33 408.33,-239.35"/>
</a>
</g>
</g>
<!-- Node12 -->
<g id="Node000012" class="node">
<title>Node12</title>
<g id="a_Node000012"><a xlink:href="classMax22200Handler.html#a4a87c1be18b3b4fb6055bccd6df7da9f" target="_top" xlink:title="Initialize with board configuration.">
<polygon fill="white" stroke="#666666" points="340,-153.5 186,-153.5 186,-134.5 340,-134.5 340,-153.5"/>
<text text-anchor="middle" x="263" y="-141.5" font-family="Helvetica,sans-Serif" font-size="10.00">Max22200Handler::Initialize</text>
</a>
</g>
</g>
<!-- Node1&#45;&gt;Node12 -->
<g id="edge11_Node000001_Node000012" class="edge">
<title>Node1&#45;&gt;Node12</title>
<g id="a_edge11_Node000001_Node000012"><a xlink:title=" ">
<path fill="none" stroke="#63b8ff" d="M423.7,-232.82C411.15,-212.44 387.99,-180.03 359,-163 352.47,-159.17 345.31,-156.09 337.93,-153.63"/>
<polygon fill="#63b8ff" stroke="#63b8ff" points="420.73,-234.67 428.84,-241.49 426.75,-231.1 420.73,-234.67"/>
</a>
</g>
</g>
<!-- Node13 -->
<g id="Node000013" class="node">
<title>Node13</title>
<g id="a_Node000013"><a xlink:href="classTle92466edHandler.html#a427b6968c56e28e3e8d92b9d083fca33" target="_top" xlink:title="Initialize with global configuration.">
<polygon fill="white" stroke="#666666" points="322,-116 204,-116 204,-86 322,-86 322,-116"/>
<text text-anchor="start" x="212" y="-104" font-family="Helvetica,sans-Serif" font-size="10.00">Tle92466edHandler::</text>
<text text-anchor="middle" x="263" y="-93" font-family="Helvetica,sans-Serif" font-size="10.00">Initialize</text>
</a>
</g>
</g>
<!-- Node1&#45;&gt;Node13 -->
<g id="edge12_Node000001_Node000013" class="edge">
<title>Node1&#45;&gt;Node13</title>
<g id="a_edge12_Node000001_Node000013"><a xlink:title=" ">
<path fill="none" stroke="#63b8ff" d="M427.82,-231.56C417.91,-203.61 395.75,-152.4 359,-125 348.36,-117.07 335.39,-111.74 322.49,-108.17"/>
<polygon fill="#63b8ff" stroke="#63b8ff" points="424.61,-233 431.13,-241.36 431.25,-230.76 424.61,-233"/>
</a>
</g>
</g>
<!-- Node14 -->
<g id="Node000014" class="node">
<title>Node14</title>
<g id="a_Node000014"><a xlink:href="classTmc5160Handler.html#a64755f326176b0a38485acf5ca69fd0c" target="_top" xlink:title="Initialize the TMC5160 driver with full configuration.">
<polygon fill="white" stroke="#666666" points="337,-67.5 189,-67.5 189,-48.5 337,-48.5 337,-67.5"/>
<text text-anchor="middle" x="263" y="-55.5" font-family="Helvetica,sans-Serif" font-size="10.00">Tmc5160Handler::Initialize</text>
</a>
</g>
</g>
<!-- Node1&#45;&gt;Node14 -->
<g id="edge13_Node000001_Node000014" class="edge">
<title>Node1&#45;&gt;Node14</title>
<g id="a_edge13_Node000001_Node000014"><a xlink:title=" ">
<path fill="none" stroke="#63b8ff" d="M431.5,-231.34C425.75,-194.85 408.12,-116.77 359,-77 352.59,-71.81 345.16,-67.92 337.33,-65.01"/>
<polygon fill="#63b8ff" stroke="#63b8ff" points="428.03,-231.83 432.92,-241.24 434.96,-230.84 428.03,-231.83"/>
</a>
</g>
</g>
<!-- Node15 -->
<g id="Node000015" class="node">
<title>Node15</title>
<g id="a_Node000015"><a xlink:href="classTmc9660Handler_1_1Temperature.html#a5ebc77b2122ba4473b74a4a0fc78ff09" target="_top" xlink:title="Read the chip temperature in degrees Celsius.">
<polygon fill="white" stroke="#666666" points="346.5,-30 179.5,-30 179.5,0 346.5,0 346.5,-30"/>
<text text-anchor="start" x="187.5" y="-18" font-family="Helvetica,sans-Serif" font-size="10.00">Tmc9660Handler::Temperature</text>
<text text-anchor="middle" x="263" y="-7" font-family="Helvetica,sans-Serif" font-size="10.00">::ReadTemperatureCelsiusImpl</text>
</a>
</g>
</g>
<!-- Node1&#45;&gt;Node15 -->
<g id="edge14_Node000001_Node000015" class="edge">
<title>Node1&#45;&gt;Node15</title>
<g id="a_edge14_Node000001_Node000015"><a xlink:title=" ">
<path fill="none" stroke="#63b8ff" d="M432.99,-231.21C429.73,-189.28 416.09,-91.04 359,-39 355.23,-35.56 351.04,-32.6 346.57,-30.05"/>
<polygon fill="#63b8ff" stroke="#63b8ff" points="429.5,-231.5 433.64,-241.25 436.48,-231.04 429.5,-231.5"/>
</a>
</g>
</g>
<!-- Node6 -->
<g id="Node000006" class="node">
<title>Node6</title>
<g id="a_Node000006"><a xlink:href="classHalSpiTmc9660Comm.html#ac7145aa4216147b19418a4b23cccda75" target="_top" xlink:title="Route TMC9660 driver debug output to the HardFOC Logger.">
<polygon fill="white" stroke="#666666" points="131,-403 0,-403 0,-373 131,-373 131,-403"/>
<text text-anchor="start" x="8" y="-391" font-family="Helvetica,sans-Serif" font-size="10.00">HalSpiTmc9660Comm::</text>
<text text-anchor="middle" x="65.5" y="-380" font-family="Helvetica,sans-Serif" font-size="10.00">debugLog</text>
</a>
</g>
</g>
<!-- Node5&#45;&gt;Node6 -->
<g id="edge5_Node000005_Node000006" class="edge">
<title>Node5&#45;&gt;Node6</title>
<g id="a_edge5_Node000005_Node000006"><a xlink:title=" ">
<path fill="none" stroke="#63b8ff" d="M184.94,-373.46C167.18,-375.64 148.46,-377.94 131.28,-380.05"/>
<polygon fill="#63b8ff" stroke="#63b8ff" points="185.77,-376.88 195.27,-372.19 184.91,-369.94 185.77,-376.88"/>
</a>
</g>
</g>
<!-- Node7 -->
<g id="Node000007" class="node">
<title>Node7</title>
<g id="a_Node000007"><a xlink:href="classHalUartTmc9660Comm.html#a1a992dfbd1c60452f19f38dff2754403" target="_top" xlink:title="Route TMC9660 driver debug output to the HardFOC Logger.">
<polygon fill="white" stroke="#666666" points="131,-355 0,-355 0,-325 131,-325 131,-355"/>
<text text-anchor="start" x="8" y="-343" font-family="Helvetica,sans-Serif" font-size="10.00">HalUartTmc9660Comm</text>
<text text-anchor="middle" x="65.5" y="-332" font-family="Helvetica,sans-Serif" font-size="10.00">::debugLog</text>
</a>
</g>
</g>
<!-- Node5&#45;&gt;Node7 -->
<g id="edge6_Node000005_Node000007" class="edge">
<title>Node5&#45;&gt;Node7</title>
<g id="a_edge6_Node000005_Node000007"><a xlink:title=" ">
<path fill="none" stroke="#63b8ff" d="M184.94,-354.54C167.18,-352.36 148.46,-350.06 131.28,-347.95"/>
<polygon fill="#63b8ff" stroke="#63b8ff" points="184.91,-358.06 195.27,-355.81 185.77,-351.12 184.91,-358.06"/>
</a>
</g>
</g>
</g>
</svg>
