<?xml version="1.0" encoding="UTF-8" standalone="no"?>
<!DOCTYPE svg PUBLIC "-//W3C//DTD SVG 1.1//EN"
 "http://www.w3.org/Graphics/SVG/1.1/DTD/svg11.dtd">
<!-- Generated by graphviz version 2.43.0 (0)
 -->
<!-- Title: Tmc5160Handler::spiDriver Pages: 1 -->
<svg width="1066pt" height="138pt"
 viewBox="0.00 0.00 1066.00 138.00" xmlns="http://www.w3.org/2000/svg" xmlns:xlink="http://www.w3.org/1999/xlink">
<g id="graph0" class="graph" transform="scale(1 1) rotate(0) translate(4 134)">
<title>Tmc5160Handler::spiDriver</title>
<!-- Node1 -->
<g id="Node000001" class="node">
<title>Node1</title>
<g id="a_Node000001"><a xlink:title=" ">
<polygon fill="#999999" stroke="#666666" points="150,-74 0,-74 0,-55 150,-55 150,-74"/>
<text text-anchor="middle" x="75" y="-62" font-family="Helvetica,sans-Serif" font-size="10.00">Tmc5160Handler::spiDriver</text>
</a>
</g>
</g>
<!-- Node2 -->
<g id="Node000002" class="node">
<title>Node2</title>
<g id="a_Node000002"><a xlink:href="classTmc5160Handler.html#a1e9298992489ed84fcd61ddfbb9a0e3c" target="_top" xlink:title="Get typed SPI driver pointer (null if UART mode or not initialized).">
<polygon fill="white" stroke="#666666" points="336,-74 186,-74 186,-55 336,-55 336,-74"/>
<text text-anchor="middle" x="261" y="-62" font-family="Helvetica,sans-Serif" font-size="10.00">Tmc5160Handler::spiDriver</text>
</a>
</g>
</g>
<!-- Node1&#45;&gt;Node2 -->
<g id="edge1_Node000001_Node000002" class="edge">
<title>Node1&#45;&gt;Node2</title>
<g id="a_edge1_Node000001_Node000002"><a xlink:title=" ">
<path fill="none" stroke="#63b8ff" d="M150.04,-64.5C158.51,-64.5 167.19,-64.5 175.78,-64.5"/>
<polygon fill="#63b8ff" stroke="#63b8ff" points="175.81,-68 185.81,-64.5 175.81,-61 175.81,-68"/>
</a>
</g>
</g>
<!-- Node3 -->
<g id="Node000003" class="node">
<title>Node3</title>
<g id="a_Node000003"><a xlink:href="classTmc5160Handler.html#a6d4fce2433e03bb11b05a4278ef66fd0" target="_top" xlink:title=" ">
<polygon fill="white" stroke="#666666" points="559,-79.5 372,-79.5 372,-49.5 559,-49.5 559,-79.5"/>
<text text-anchor="start" x="380" y="-67.5" font-family="Helvetica,sans-Serif" font-size="10.00">Tmc5160Handler::EnsureInitialized</text>
<text text-anchor="middle" x="465.5" y="-56.5" font-family="Helvetica,sans-Serif" font-size="10.00">Locked</text>
</a>
</g>
</g>
<!-- Node2&#45;&gt;Node3 -->
<g id="edge2_Node000002_Node000003" class="edge">
<title>Node2&#45;&gt;Node3</title>
<g id="a_edge2_Node000002_Node000003"><a xlink:title=" ">
<path fill="none" stroke="#63b8ff" d="M336.25,-64.5C344.61,-64.5 353.23,-64.5 361.87,-64.5"/>
<polygon fill="#63b8ff" stroke="#63b8ff" points="361.99,-68 371.99,-64.5 361.99,-61 361.99,-68"/>
</a>
</g>
</g>
<!-- Node4 -->
<g id="Node000004" class="node">
<title>Node4</title>
<g id="a_Node000004"><a xlink:href="classTmc5160Handler.html#a64755f326176b0a38485acf5ca69fd0c" target="_top" xlink:title="Initialize the TMC5160 driver with full configuration.">
<polygon fill="white" stroke="#666666" points="743,-74 595,-74 595,-55 743,-55 743,-74"/>
<text text-anchor="middle" x="669" y="-62" font-family="Helvetica,sans-Serif" font-size="10.00">Tmc5160Handler::Initialize</text>
</a>
</g>
</g>
<!-- Node3&#45;&gt;Node4 -->
<g id="edge3_Node000003_Node000004" class="edge">
<title>Node3&#45;&gt;Node4</title>
<g id="a_edge3_Node000003_Node000004"><a xlink:title=" ">
<path fill="none" stroke="#63b8ff" d="M559.29,-64.5C567.73,-64.5 576.25,-64.5 584.61,-64.5"/>
<polygon fill="#63b8ff" stroke="#63b8ff" points="584.7,-68 594.7,-64.5 584.7,-61 584.7,-68"/>
</a>
</g>
</g>
<!-- Node5 -->
<g id="Node000005" class="node">
<title>Node5</title>
<g id="a_Node000005"><a xlink:href="classLogger.html#a5e4bcdaea60b9ac227b564d780388769" target="_top" xlink:title="Log error message.">
<polygon fill="white" stroke="#666666" points="875.5,-130 796.5,-130 796.5,-111 875.5,-111 875.5,-130"/>
<text text-anchor="middle" x="836" y="-118" font-family="Helvetica,sans-Serif" font-size="10.00">Logger::Error</text>
</a>
</g>
</g>
<!-- Node4&#45;&gt;Node5 -->
<g id="edge4_Node000004_Node000005" class="edge">
<title>Node4&#45;&gt;Node5</title>
<g id="a_edge4_Node000004_Node000005"><a xlink:title=" ">
<path fill="none" stroke="#63b8ff" d="M696.81,-74.05C718.84,-81.85 750.88,-93.08 779,-102.5 784.2,-104.24 789.69,-106.05 795.12,-107.81"/>
<polygon fill="#63b8ff" stroke="#63b8ff" points="794.14,-111.17 804.73,-110.92 796.29,-104.51 794.14,-111.17"/>
</a>
</g>
</g>
<!-- Node8 -->
<g id="Node000008" class="node">
<title>Node8</title>
<g id="a_Node000008"><a xlink:href="classLogger.html#a5789d11f8f1356e2192c0023a089cbc4" target="_top" xlink:title="Get singleton instance.">
<polygon fill="white" stroke="#666666" points="893,-19 779,-19 779,0 893,0 893,-19"/>
<text text-anchor="middle" x="836" y="-7" font-family="Helvetica,sans-Serif" font-size="10.00">Logger::GetInstance</text>
</a>
</g>
</g>
<!-- Node4&#45;&gt;Node8 -->
<g id="edge7_Node000004_Node000008" class="edge">
<title>Node4&#45;&gt;Node8</title>
<g id="a_edge7_Node000004_Node000008"><a xlink:title=" ">
<path fill="none" stroke="#63b8ff" d="M697.73,-54.95C719.74,-47.4 751.3,-36.65 779,-27.5 784.27,-25.76 789.83,-23.94 795.32,-22.17"/>
<polygon fill="#63b8ff" stroke="#63b8ff" points="796.59,-25.43 805.04,-19.03 794.44,-18.77 796.59,-25.43"/>
</a>
</g>
</g>
<!-- Node9 -->
<g id="Node000009" class="node">
<title>Node9</title>
<g id="a_Node000009"><a xlink:href="classLogger.html#a1c0c947d87884bca0395fd38d19d1102" target="_top" xlink:title="Log info message.">
<polygon fill="white" stroke="#666666" points="873,-93 799,-93 799,-74 873,-74 873,-93"/>
<text text-anchor="middle" x="836" y="-81" font-family="Helvetica,sans-Serif" font-size="10.00">Logger::Info</text>
</a>
</g>
</g>
<!-- Node4&#45;&gt;Node9 -->
<g id="edge8_Node000004_Node000009" class="edge">
<title>Node4&#45;&gt;Node9</title>
<g id="a_edge8_Node000004_Node000009"><a xlink:title=" ">
<path fill="none" stroke="#63b8ff" d="M743.33,-72.94C758.85,-74.73 774.8,-76.57 788.96,-78.2"/>
<polygon fill="#63b8ff" stroke="#63b8ff" points="788.58,-81.68 798.92,-79.35 789.38,-74.72 788.58,-81.68"/>
</a>
</g>
</g>
<!-- Node10 -->
<g id="Node000010" class="node">
<title>Node10</title>
<g id="a_Node000010"><a xlink:href="classLogger.html#a8c19c14724b0be1d2be63da4258c001a" target="_top" xlink:title="Log warning message.">
<polygon fill="white" stroke="#666666" points="876,-56 796,-56 796,-37 876,-37 876,-56"/>
<text text-anchor="middle" x="836" y="-44" font-family="Helvetica,sans-Serif" font-size="10.00">Logger::Warn</text>
</a>
</g>
</g>
<!-- Node4&#45;&gt;Node10 -->
<g id="edge11_Node000004_Node000010" class="edge">
<title>Node4&#45;&gt;Node10</title>
<g id="a_edge11_Node000004_Node000010"><a xlink:title=" ">
<path fill="none" stroke="#63b8ff" d="M743.33,-56.5C757.59,-54.94 772.23,-53.35 785.49,-51.9"/>
<polygon fill="#63b8ff" stroke="#63b8ff" points="786.25,-55.34 795.81,-50.78 785.49,-48.38 786.25,-55.34"/>
</a>
</g>
</g>
<!-- Node6 -->
<g id="Node000006" class="node">
<title>Node6</title>
<g id="a_Node000006"><a xlink:href="classLogger.html#a737b981213c02321a5235848334d7191" target="_top" xlink:title="Check if log level is enabled for tag.">
<polygon fill="white" stroke="#666666" points="1058,-111 929,-111 929,-92 1058,-92 1058,-111"/>
<text text-anchor="middle" x="993.5" y="-99" font-family="Helvetica,sans-Serif" font-size="10.00">Logger::IsLevelEnabled</text>
</a>
</g>
</g>
<!-- Node5&#45;&gt;Node6 -->
<g id="edge5_Node000005_Node000006" class="edge">
<title>Node5&#45;&gt;Node6</title>
<g id="a_edge5_Node000005_Node000006"><a xlink:title=" ">
<path fill="none" stroke="#63b8ff" d="M875.84,-115.75C888.85,-114.16 903.82,-112.34 918.6,-110.53"/>
<polygon fill="#63b8ff" stroke="#63b8ff" points="919.28,-113.97 928.78,-109.29 918.43,-107.02 919.28,-113.97"/>
</a>
</g>
</g>
<!-- Node7 -->
<g id="Node000007" class="node">
<title>Node7</title>
<g id="a_Node000007"><a xlink:href="classLogger.html#aeede6ac18db92a47caede076ef188a13" target="_top" xlink:title="Internal logging method.">
<polygon fill="white" stroke="#666666" points="1048.5,-74 938.5,-74 938.5,-55 1048.5,-55 1048.5,-74"/>
<text text-anchor="middle" x="993.5" y="-62" font-family="Helvetica,sans-Serif" font-size="10.00">Logger::LogInternal</text>
</a>
</g>
</g>
<!-- Node5&#45;&gt;Node7 -->
<g id="edge6_Node000005_Node000007" class="edge">
<title>Node5&#45;&gt;Node7</title>
<g id="a_edge6_Node000005_Node000007"><a xlink:title=" ">
<path fill="none" stroke="#63b8ff" d="M869.92,-110.98C877.59,-108.47 885.66,-105.59 893,-102.5 909.68,-95.48 912.25,-90.35 929,-83.5 934.53,-81.24 940.42,-79.12 946.31,-77.16"/>
<polygon fill="#63b8ff" stroke="#63b8ff" points="947.67,-80.41 956.14,-74.05 945.55,-73.73 947.67,-80.41"/>
</a>
</g>
</g>
<!-- Node9&#45;&gt;Node6 -->
<g id="edge9_Node000009_Node000006" class="edge">
<title>Node9&#45;&gt;Node6</title>
<g id="a_edge9_Node000009_Node000006"><a xlink:title=" ">
<path fill="none" stroke="#63b8ff" d="M873.07,-87.67C886.68,-89.25 902.72,-91.11 918.55,-92.94"/>
<polygon fill="#63b8ff" stroke="#63b8ff" points="918.55,-96.46 928.89,-94.14 919.36,-89.51 918.55,-96.46"/>
</a>
</g>
</g>
<!-- Node9&#45;&gt;Node7 -->
<g id="edge10_Node000009_Node000007" class="edge">
<title>Node9&#45;&gt;Node7</title>
<g id="a_edge10_Node000009_Node000007"><a xlink:title=" ">
<path fill="none" stroke="#63b8ff" d="M873.07,-79.09C889.49,-77.09 909.44,-74.65 928.3,-72.34"/>
<polygon fill="#63b8ff" stroke="#63b8ff" points="928.83,-75.81 938.33,-71.12 927.98,-68.86 928.83,-75.81"/>
</a>
</g>
</g>
<!-- Node10&#45;&gt;Node6 -->
<g id="edge12_Node000010_Node000006" class="edge">
<title>Node10&#45;&gt;Node6</title>
<g id="a_edge12_Node000010_Node000006"><a xlink:title=" ">
<path fill="none" stroke="#63b8ff" d="M867.51,-56.01C875.86,-58.84 884.85,-62.1 893,-65.5 909.51,-72.39 912.32,-77.03 929,-83.5 934.07,-85.47 939.45,-87.33 944.85,-89.05"/>
<polygon fill="#63b8ff" stroke="#63b8ff" points="943.92,-92.42 954.51,-91.99 945.96,-85.73 943.92,-92.42"/>
</a>
</g>
</g>
<!-- Node10&#45;&gt;Node7 -->
<g id="edge13_Node000010_Node000007" class="edge">
<title>Node10&#45;&gt;Node7</title>
<g id="a_edge13_Node000010_Node000007"><a xlink:title=" ">
<path fill="none" stroke="#63b8ff" d="M876.24,-51.04C891.96,-52.86 910.49,-55.01 928.08,-57.04"/>
<polygon fill="#63b8ff" stroke="#63b8ff" points="927.96,-60.55 938.3,-58.23 928.77,-53.6 927.96,-60.55"/>
</a>
</g>
</g>
</g>
</svg>
