<?xml version="1.0" encoding="UTF-8" standalone="no"?>
<!DOCTYPE svg PUBLIC "-//W3C//DTD SVG 1.1//EN"
 "http://www.w3.org/Graphics/SVG/1.1/DTD/svg11.dtd">
<!-- Generated by graphviz version 2.43.0 (0)
 -->
<!-- Title: Tmc9660Handler::Temperature::GetCurrentTimeUs Pages: 1 -->
<svg width="1323pt" height="113pt"
 viewBox="0.00 0.00 1323.00 112.50" xmlns="http://www.w3.org/2000/svg" xmlns:xlink="http://www.w3.org/1999/xlink">
<g id="graph0" class="graph" transform="scale(1 1) rotate(0) translate(4 108.5)">
<title>Tmc9660Handler::Temperature::GetCurrentTimeUs</title>
<!-- Node1 -->
<g id="Node000001" class="node">
<title>Node1</title>
<g id="a_Node000001"><a xlink:title="Get current time in microseconds.">
<polygon fill="#999999" stroke="#666666" points="167,-51 0,-51 0,-21 167,-21 167,-51"/>
<text text-anchor="start" x="8" y="-39" font-family="Helvetica,sans-Serif" font-size="10.00">Tmc9660Handler::Temperature</text>
<text text-anchor="middle" x="83.5" y="-28" font-family="Helvetica,sans-Serif" font-size="10.00">::GetCurrentTimeUs</text>
</a>
</g>
</g>
<!-- Node2 -->
<g id="Node000002" class="node">
<title>Node2</title>
<g id="a_Node000002"><a xlink:href="classTmc9660Handler.html#a393382194d0602e7aa02da6a8fd7a20a" target="_top" xlink:title="Get a reference to the Temperature wrapper.">
<polygon fill="white" stroke="#666666" points="370,-45.5 203,-45.5 203,-26.5 370,-26.5 370,-45.5"/>
<text text-anchor="middle" x="286.5" y="-33.5" font-family="Helvetica,sans-Serif" font-size="10.00">Tmc9660Handler::temperature</text>
</a>
</g>
</g>
<!-- Node1&#45;&gt;Node2 -->
<g id="edge1_Node000001_Node000002" class="edge">
<title>Node1&#45;&gt;Node2</title>
<g id="a_edge1_Node000001_Node000002"><a xlink:title=" ">
<path fill="none" stroke="#63b8ff" d="M167.12,-36C175.61,-36 184.27,-36 192.85,-36"/>
<polygon fill="#63b8ff" stroke="#63b8ff" points="192.87,-39.5 202.87,-36 192.87,-32.5 192.87,-39.5"/>
</a>
</g>
</g>
<!-- Node2&#45;&gt;Node2 -->
<g id="edge14_Node000002_Node000002" class="edge">
<title>Node2&#45;&gt;Node2</title>
<g id="a_edge14_Node000002_Node000002"><a xlink:title=" ">
<path fill="none" stroke="#63b8ff" d="M255.37,-45.58C240.22,-54.23 250.6,-63.5 286.5,-63.5 311.74,-63.5 324.37,-58.92 324.37,-53.19"/>
<polygon fill="#63b8ff" stroke="#63b8ff" points="326.89,-50.75 317.63,-45.58 321.65,-55.39 326.89,-50.75"/>
</a>
</g>
</g>
<!-- Node3 -->
<g id="Node000003" class="node">
<title>Node3</title>
<g id="a_Node000003"><a xlink:href="classTmc9660Handler.html#a5a279ae9d4b5a8e0d71cb24577ad88ea" target="_top" xlink:title="Ensure driver is initialized (lazy init entrypoint).">
<polygon fill="white" stroke="#666666" points="593,-45.5 406,-45.5 406,-26.5 593,-26.5 593,-45.5"/>
<text text-anchor="middle" x="499.5" y="-33.5" font-family="Helvetica,sans-Serif" font-size="10.00">Tmc9660Handler::EnsureInitialized</text>
</a>
</g>
</g>
<!-- Node2&#45;&gt;Node3 -->
<g id="edge2_Node000002_Node000003" class="edge">
<title>Node2&#45;&gt;Node3</title>
<g id="a_edge2_Node000002_Node000003"><a xlink:title=" ">
<path fill="none" stroke="#63b8ff" d="M370.29,-29.39C378.67,-29.29 387.25,-29.24 395.81,-29.25"/>
<polygon fill="#63b8ff" stroke="#63b8ff" points="395.81,-32.75 405.83,-29.29 395.84,-25.75 395.81,-32.75"/>
</a>
</g>
</g>
<!-- Node3&#45;&gt;Node2 -->
<g id="edge13_Node000003_Node000002" class="edge">
<title>Node3&#45;&gt;Node2</title>
<g id="a_edge13_Node000003_Node000002"><a xlink:title=" ">
<path fill="none" stroke="#63b8ff" d="M405.83,-42.71C397.42,-42.76 388.9,-42.76 380.48,-42.71"/>
<polygon fill="#63b8ff" stroke="#63b8ff" points="380.32,-39.21 370.29,-42.61 380.25,-46.21 380.32,-39.21"/>
</a>
</g>
</g>
<!-- Node4 -->
<g id="Node000004" class="node">
<title>Node4</title>
<g id="a_Node000004"><a xlink:href="classTmc9660Handler.html#a7c1d8073576d678b09dac24c9eb12845" target="_top" xlink:title="Ensure initialized while handler_mutex_ is already held.">
<polygon fill="white" stroke="#666666" points="816,-51 629,-51 629,-21 816,-21 816,-51"/>
<text text-anchor="start" x="637" y="-39" font-family="Helvetica,sans-Serif" font-size="10.00">Tmc9660Handler::EnsureInitialized</text>
<text text-anchor="middle" x="722.5" y="-28" font-family="Helvetica,sans-Serif" font-size="10.00">Locked</text>
</a>
</g>
</g>
<!-- Node3&#45;&gt;Node4 -->
<g id="edge3_Node000003_Node000004" class="edge">
<title>Node3&#45;&gt;Node4</title>
<g id="a_edge3_Node000003_Node000004"><a xlink:title=" ">
<path fill="none" stroke="#63b8ff" d="M593.26,-36C601.75,-36 610.39,-36 618.96,-36"/>
<polygon fill="#63b8ff" stroke="#63b8ff" points="618.97,-39.5 628.97,-36 618.97,-32.5 618.97,-39.5"/>
</a>
</g>
</g>
<!-- Node5 -->
<g id="Node000005" class="node">
<title>Node5</title>
<g id="a_Node000005"><a xlink:href="classTmc9660Handler.html#adc564847f8ae26c47412aaee0758991c" target="_top" xlink:title="Initialize the TMC9660 device.">
<polygon fill="white" stroke="#666666" points="1000,-67.5 852,-67.5 852,-48.5 1000,-48.5 1000,-67.5"/>
<text text-anchor="middle" x="926" y="-55.5" font-family="Helvetica,sans-Serif" font-size="10.00">Tmc9660Handler::Initialize</text>
</a>
</g>
</g>
<!-- Node4&#45;&gt;Node5 -->
<g id="edge4_Node000004_Node000005" class="edge">
<title>Node4&#45;&gt;Node5</title>
<g id="a_edge4_Node000004_Node000005"><a xlink:title=" ">
<path fill="none" stroke="#63b8ff" d="M816.29,-46.13C824.73,-47.05 833.25,-47.98 841.61,-48.9"/>
<polygon fill="#63b8ff" stroke="#63b8ff" points="841.38,-52.39 851.7,-50 842.14,-45.43 841.38,-52.39"/>
</a>
</g>
</g>
<!-- Node11 -->
<g id="Node000011" class="node">
<title>Node11</title>
<g id="a_Node000011"><a xlink:href="classTmc9660Handler.html#a13db97d201a287d8aa60384e04070b9f" target="_top" xlink:title="Check if the TMC9660 driver has been initialized and is ready.">
<polygon fill="white" stroke="#666666" points="998,-30 854,-30 854,0 998,0 998,-30"/>
<text text-anchor="start" x="862" y="-18" font-family="Helvetica,sans-Serif" font-size="10.00">Tmc9660Handler::IsDriver</text>
<text text-anchor="middle" x="926" y="-7" font-family="Helvetica,sans-Serif" font-size="10.00">Ready</text>
</a>
</g>
</g>
<!-- Node4&#45;&gt;Node11 -->
<g id="edge12_Node000004_Node000011" class="edge">
<title>Node4&#45;&gt;Node11</title>
<g id="a_edge12_Node000004_Node000011"><a xlink:title=" ">
<path fill="none" stroke="#63b8ff" d="M816.29,-26.33C825.44,-25.38 834.69,-24.41 843.71,-23.47"/>
<polygon fill="#63b8ff" stroke="#63b8ff" points="844.21,-26.94 853.8,-22.42 843.49,-19.98 844.21,-26.94"/>
</a>
</g>
</g>
<!-- Node6 -->
<g id="Node000006" class="node">
<title>Node6</title>
<g id="a_Node000006"><a xlink:href="classLogger.html#adce17848a5844e053bfd314863dc1404" target="_top" xlink:title="Log error message.">
<polygon fill="white" stroke="#666666" points="1132.5,-67.5 1053.5,-67.5 1053.5,-48.5 1132.5,-48.5 1132.5,-67.5"/>
<text text-anchor="middle" x="1093" y="-55.5" font-family="Helvetica,sans-Serif" font-size="10.00">Logger::Error</text>
</a>
</g>
</g>
<!-- Node5&#45;&gt;Node6 -->
<g id="edge5_Node000005_Node000006" class="edge">
<title>Node5&#45;&gt;Node6</title>
<g id="a_edge5_Node000005_Node000006"><a xlink:title=" ">
<path fill="none" stroke="#63b8ff" d="M1000.33,-58C1014.73,-58 1029.5,-58 1042.87,-58"/>
<polygon fill="#63b8ff" stroke="#63b8ff" points="1043.26,-61.5 1053.26,-58 1043.26,-54.5 1043.26,-61.5"/>
</a>
</g>
</g>
<!-- Node9 -->
<g id="Node000009" class="node">
<title>Node9</title>
<g id="a_Node000009"><a xlink:href="classLogger.html#a5789d11f8f1356e2192c0023a089cbc4" target="_top" xlink:title="Get singleton instance.">
<polygon fill="white" stroke="#666666" points="1150,-30.5 1036,-30.5 1036,-11.5 1150,-11.5 1150,-30.5"/>
<text text-anchor="middle" x="1093" y="-18.5" font-family="Helvetica,sans-Serif" font-size="10.00">Logger::GetInstance</text>
</a>
</g>
</g>
<!-- Node5&#45;&gt;Node9 -->
<g id="edge8_Node000005_Node000009" class="edge">
<title>Node5&#45;&gt;Node9</title>
<g id="a_edge8_Node000005_Node000009"><a xlink:title=" ">
<path fill="none" stroke="#63b8ff" d="M969.49,-48.47C990.87,-43.68 1016.97,-37.82 1039.58,-32.75"/>
<polygon fill="#63b8ff" stroke="#63b8ff" points="1040.37,-36.16 1049.37,-30.56 1038.84,-29.33 1040.37,-36.16"/>
</a>
</g>
</g>
<!-- Node10 -->
<g id="Node000010" class="node">
<title>Node10</title>
<g id="a_Node000010"><a xlink:href="classLogger.html#a4681229c521795685fc14f6b55c82300" target="_top" xlink:title="Log info message.">
<polygon fill="white" stroke="#666666" points="1130,-104.5 1056,-104.5 1056,-85.5 1130,-85.5 1130,-104.5"/>
<text text-anchor="middle" x="1093" y="-92.5" font-family="Helvetica,sans-Serif" font-size="10.00">Logger::Info</text>
</a>
</g>
</g>
<!-- Node5&#45;&gt;Node10 -->
<g id="edge9_Node000005_Node000010" class="edge">
<title>Node5&#45;&gt;Node10</title>
<g id="a_edge9_Node000005_Node000010"><a xlink:title=" ">
<path fill="none" stroke="#63b8ff" d="M969.49,-67.53C992.89,-72.77 1021.94,-79.29 1045.89,-84.66"/>
<polygon fill="#63b8ff" stroke="#63b8ff" points="1045.28,-88.11 1055.8,-86.88 1046.81,-81.28 1045.28,-88.11"/>
</a>
</g>
</g>
<!-- Node7 -->
<g id="Node000007" class="node">
<title>Node7</title>
<g id="a_Node000007"><a xlink:href="classLogger.html#af9e84e0ff6bd538e4f9ed8dcebc3e2f0" target="_top" xlink:title="Check if log level is enabled for tag.">
<polygon fill="white" stroke="#666666" points="1315,-104.5 1186,-104.5 1186,-85.5 1315,-85.5 1315,-104.5"/>
<text text-anchor="middle" x="1250.5" y="-92.5" font-family="Helvetica,sans-Serif" font-size="10.00">Logger::IsLevelEnabled</text>
</a>
</g>
</g>
<!-- Node6&#45;&gt;Node7 -->
<g id="edge6_Node000006_Node000007" class="edge">
<title>Node6&#45;&gt;Node7</title>
<g id="a_edge6_Node000006_Node000007"><a xlink:title=" ">
<path fill="none" stroke="#63b8ff" d="M1132.84,-67.24C1153.03,-72.05 1177.94,-77.97 1199.55,-83.11"/>
<polygon fill="#63b8ff" stroke="#63b8ff" points="1199,-86.58 1209.53,-85.49 1200.62,-79.77 1199,-86.58"/>
</a>
</g>
</g>
<!-- Node8 -->
<g id="Node000008" class="node">
<title>Node8</title>
<g id="a_Node000008"><a xlink:href="classLogger.html#a6adb205db597526fb91ad20067400394" target="_top" xlink:title="Internal logging method.">
<polygon fill="white" stroke="#666666" points="1305.5,-67.5 1195.5,-67.5 1195.5,-48.5 1305.5,-48.5 1305.5,-67.5"/>
<text text-anchor="middle" x="1250.5" y="-55.5" font-family="Helvetica,sans-Serif" font-size="10.00">Logger::LogInternal</text>
</a>
</g>
</g>
<!-- Node6&#45;&gt;Node8 -->
<g id="edge7_Node000006_Node000008" class="edge">
<title>Node6&#45;&gt;Node8</title>
<g id="a_edge7_Node000006_Node000008"><a xlink:title=" ">
<path fill="none" stroke="#63b8ff" d="M1132.84,-58C1148.63,-58 1167.31,-58 1185.03,-58"/>
<polygon fill="#63b8ff" stroke="#63b8ff" points="1185.33,-61.5 1195.33,-58 1185.33,-54.5 1185.33,-61.5"/>
</a>
</g>
</g>
<!-- Node10&#45;&gt;Node7 -->
<g id="edge10_Node000010_Node000007" class="edge">
<title>Node10&#45;&gt;Node7</title>
<g id="a_edge10_Node000010_Node000007"><a xlink:title=" ">
<path fill="none" stroke="#63b8ff" d="M1130.07,-95C1143.68,-95 1159.72,-95 1175.55,-95"/>
<polygon fill="#63b8ff" stroke="#63b8ff" points="1175.89,-98.5 1185.89,-95 1175.89,-91.5 1175.89,-98.5"/>
</a>
</g>
</g>
<!-- Node10&#45;&gt;Node8 -->
<g id="edge11_Node000010_Node000008" class="edge">
<title>Node10&#45;&gt;Node8</title>
<g id="a_edge11_Node000010_Node000008"><a xlink:title=" ">
<path fill="none" stroke="#63b8ff" d="M1130.07,-86.42C1150.78,-81.49 1177.09,-75.23 1199.74,-69.84"/>
<polygon fill="#63b8ff" stroke="#63b8ff" points="1200.61,-73.23 1209.53,-67.51 1198.99,-66.42 1200.61,-73.23"/>
</a>
</g>
</g>
</g>
</svg>
