<?xml version="1.0" encoding="UTF-8" standalone="no"?>
<!DOCTYPE svg PUBLIC "-//W3C//DTD SVG 1.1//EN"
 "http://www.w3.org/Graphics/SVG/1.1/DTD/svg11.dtd">
<!-- Generated by graphviz version 2.43.0 (0)
 -->
<!-- Title: Tle92466edHandler::Initialize Pages: 1 -->
<svg width="441pt" height="138pt"
 viewBox="0.00 0.00 441.00 138.00" xmlns="http://www.w3.org/2000/svg" xmlns:xlink="http://www.w3.org/1999/xlink">
<g id="graph0" class="graph" transform="scale(1 1) rotate(0) translate(4 134)">
<title>Tle92466edHandler::Initialize</title>
<!-- Node1 -->
<g id="Node000001" class="node">
<title>Node1</title>
<g id="a_Node000001"><a xlink:title="Initialize driver (hardware reset + SPI init + enter config mode).">
<polygon fill="#999999" stroke="#666666" points="118,-79.5 0,-79.5 0,-49.5 118,-49.5 118,-79.5"/>
<text text-anchor="start" x="8" y="-67.5" font-family="Helvetica,sans-Serif" font-size="10.00">Tle92466edHandler::</text>
<text text-anchor="middle" x="59" y="-56.5" font-family="Helvetica,sans-Serif" font-size="10.00">Initialize</text>
</a>
</g>
</g>
<!-- Node2 -->
<g id="Node000002" class="node">
<title>Node2</title>
<g id="a_Node000002"><a xlink:href="classLogger.html#a5e4bcdaea60b9ac227b564d780388769" target="_top" xlink:title="Log error message.">
<polygon fill="white" stroke="#666666" points="250.5,-130 171.5,-130 171.5,-111 250.5,-111 250.5,-130"/>
<text text-anchor="middle" x="211" y="-118" font-family="Helvetica,sans-Serif" font-size="10.00">Logger::Error</text>
</a>
</g>
</g>
<!-- Node1&#45;&gt;Node2 -->
<g id="edge1_Node000001_Node000002" class="edge">
<title>Node1&#45;&gt;Node2</title>
<g id="a_edge1_Node000001_Node000002"><a xlink:title=" ">
<path fill="none" stroke="#63b8ff" d="M95.47,-79.55C112.97,-86.8 134.47,-95.42 154,-102.5 158.91,-104.28 164.1,-106.07 169.26,-107.79"/>
<polygon fill="#63b8ff" stroke="#63b8ff" points="168.46,-111.21 179.05,-111 170.64,-104.56 168.46,-111.21"/>
</a>
</g>
</g>
<!-- Node5 -->
<g id="Node000005" class="node">
<title>Node5</title>
<g id="a_Node000005"><a xlink:href="classLogger.html#a5789d11f8f1356e2192c0023a089cbc4" target="_top" xlink:title="Get singleton instance.">
<polygon fill="white" stroke="#666666" points="268,-19 154,-19 154,0 268,0 268,-19"/>
<text text-anchor="middle" x="211" y="-7" font-family="Helvetica,sans-Serif" font-size="10.00">Logger::GetInstance</text>
</a>
</g>
</g>
<!-- Node1&#45;&gt;Node5 -->
<g id="edge4_Node000001_Node000005" class="edge">
<title>Node1&#45;&gt;Node5</title>
<g id="a_edge4_Node000001_Node000005"><a xlink:title=" ">
<path fill="none" stroke="#63b8ff" d="M96.85,-49.36C114.11,-42.44 135.01,-34.28 154,-27.5 158.92,-25.74 164.12,-23.97 169.27,-22.25"/>
<polygon fill="#63b8ff" stroke="#63b8ff" points="170.65,-25.48 179.07,-19.05 168.48,-18.83 170.65,-25.48"/>
</a>
</g>
</g>
<!-- Node6 -->
<g id="Node000006" class="node">
<title>Node6</title>
<g id="a_Node000006"><a xlink:href="classLogger.html#a1c0c947d87884bca0395fd38d19d1102" target="_top" xlink:title="Log info message.">
<polygon fill="white" stroke="#666666" points="248,-93 174,-93 174,-74 248,-74 248,-93"/>
<text text-anchor="middle" x="211" y="-81" font-family="Helvetica,sans-Serif" font-size="10.00">Logger::Info</text>
</a>
</g>
</g>
<!-- Node1&#45;&gt;Node6 -->
<g id="edge5_Node000001_Node000006" class="edge">
<title>Node1&#45;&gt;Node6</title>
<g id="a_edge5_Node000001_Node000006"><a xlink:title=" ">
<path fill="none" stroke="#63b8ff" d="M118.42,-71.9C133.38,-73.8 149.27,-75.81 163.54,-77.61"/>
<polygon fill="#63b8ff" stroke="#63b8ff" points="163.24,-81.11 173.6,-78.89 164.12,-74.16 163.24,-81.11"/>
</a>
</g>
</g>
<!-- Node7 -->
<g id="Node000007" class="node">
<title>Node7</title>
<g id="a_Node000007"><a xlink:href="classLogger.html#a8c19c14724b0be1d2be63da4258c001a" target="_top" xlink:title="Log warning message.">
<polygon fill="white" stroke="#666666" points="251,-56 171,-56 171,-37 251,-37 251,-56"/>
<text text-anchor="middle" x="211" y="-44" font-family="Helvetica,sans-Serif" font-size="10.00">Logger::Warn</text>
</a>
</g>
</g>
<!-- Node1&#45;&gt;Node7 -->
<g id="edge8_Node000001_Node000007" class="edge">
<title>Node1&#45;&gt;Node7</title>
<g id="a_edge8_Node000001_Node000007"><a xlink:title=" ">
<path fill="none" stroke="#63b8ff" d="M118.42,-57.49C132.45,-55.81 147.29,-54.02 160.85,-52.4"/>
<polygon fill="#63b8ff" stroke="#63b8ff" points="161.42,-55.85 170.94,-51.19 160.59,-48.9 161.42,-55.85"/>
</a>
</g>
</g>
<!-- Node3 -->
<g id="Node000003" class="node">
<title>Node3</title>
<g id="a_Node000003"><a xlink:href="classLogger.html#a737b981213c02321a5235848334d7191" target="_top" xlink:title="Check if log level is enabled for tag.">
<polygon fill="white" stroke="#666666" points="433,-111 304,-111 304,-92 433,-92 433,-111"/>
<text text-anchor="middle" x="368.5" y="-99" font-family="Helvetica,sans-Serif" font-size="10.00">Logger::IsLevelEnabled</text>
</a>
</g>
</g>
<!-- Node2&#45;&gt;Node3 -->
<g id="edge2_Node000002_Node000003" class="edge">
<title>Node2&#45;&gt;Node3</title>
<g id="a_edge2_Node000002_Node000003"><a xlink:title=" ">
<path fill="none" stroke="#63b8ff" d="M250.84,-115.75C263.85,-114.16 278.82,-112.34 293.6,-110.53"/>
<polygon fill="#63b8ff" stroke="#63b8ff" points="294.28,-113.97 303.78,-109.29 293.43,-107.02 294.28,-113.97"/>
</a>
</g>
</g>
<!-- Node4 -->
<g id="Node000004" class="node">
<title>Node4</title>
<g id="a_Node000004"><a xlink:href="classLogger.html#aeede6ac18db92a47caede076ef188a13" target="_top" xlink:title="Internal logging method.">
<polygon fill="white" stroke="#666666" points="423.5,-74 313.5,-74 313.5,-55 423.5,-55 423.5,-74"/>
<text text-anchor="middle" x="368.5" y="-62" font-family="Helvetica,sans-Serif" font-size="10.00">Logger::LogInternal</text>
</a>
</g>
</g>
<!-- Node2&#45;&gt;Node4 -->
<g id="edge3_Node000002_Node000004" class="edge">
<title>Node2&#45;&gt;Node4</title>
<g id="a_edge3_Node000002_Node000004"><a xlink:title=" ">
<path fill="none" stroke="#63b8ff" d="M244.92,-110.98C252.59,-108.47 260.66,-105.59 268,-102.5 284.68,-95.48 287.25,-90.35 304,-83.5 309.53,-81.24 315.42,-79.12 321.31,-77.16"/>
<polygon fill="#63b8ff" stroke="#63b8ff" points="322.67,-80.41 331.14,-74.05 320.55,-73.73 322.67,-80.41"/>
</a>
</g>
</g>
<!-- Node6&#45;&gt;Node3 -->
<g id="edge6_Node000006_Node000003" class="edge">
<title>Node6&#45;&gt;Node3</title>
<g id="a_edge6_Node000006_Node000003"><a xlink:title=" ">
<path fill="none" stroke="#63b8ff" d="M248.07,-87.67C261.68,-89.25 277.72,-91.11 293.55,-92.94"/>
<polygon fill="#63b8ff" stroke="#63b8ff" points="293.55,-96.46 303.89,-94.14 294.36,-89.51 293.55,-96.46"/>
</a>
</g>
</g>
<!-- Node6&#45;&gt;Node4 -->
<g id="edge7_Node000006_Node000004" class="edge">
<title>Node6&#45;&gt;Node4</title>
<g id="a_edge7_Node000006_Node000004"><a xlink:title=" ">
<path fill="none" stroke="#63b8ff" d="M248.07,-79.09C264.49,-77.09 284.44,-74.65 303.3,-72.34"/>
<polygon fill="#63b8ff" stroke="#63b8ff" points="303.83,-75.81 313.33,-71.12 302.98,-68.86 303.83,-75.81"/>
</a>
</g>
</g>
<!-- Node7&#45;&gt;Node3 -->
<g id="edge9_Node000007_Node000003" class="edge">
<title>Node7&#45;&gt;Node3</title>
<g id="a_edge9_Node000007_Node000003"><a xlink:title=" ">
<path fill="none" stroke="#63b8ff" d="M242.51,-56.01C250.86,-58.84 259.85,-62.1 268,-65.5 284.51,-72.39 287.32,-77.03 304,-83.5 309.07,-85.47 314.45,-87.33 319.85,-89.05"/>
<polygon fill="#63b8ff" stroke="#63b8ff" points="318.92,-92.42 329.51,-91.99 320.96,-85.73 318.92,-92.42"/>
</a>
</g>
</g>
<!-- Node7&#45;&gt;Node4 -->
<g id="edge10_Node000007_Node000004" class="edge">
<title>Node7&#45;&gt;Node4</title>
<g id="a_edge10_Node000007_Node000004"><a xlink:title=" ">
<path fill="none" stroke="#63b8ff" d="M251.24,-51.04C266.96,-52.86 285.49,-55.01 303.08,-57.04"/>
<polygon fill="#63b8ff" stroke="#63b8ff" points="302.96,-60.55 313.3,-58.23 303.77,-53.6 302.96,-60.55"/>
</a>
</g>
</g>
</g>
</svg>
