<?xml version="1.0" encoding="UTF-8" standalone="no"?>
<!DOCTYPE svg PUBLIC "-//W3C//DTD SVG 1.1//EN"
 "http://www.w3.org/Graphics/SVG/1.1/DTD/svg11.dtd">
<!-- Generated by graphviz version 2.43.0 (0)
 -->
<!-- Title: Logger::Error Pages: 1 -->
<svg width="955pt" height="939pt"
 viewBox="0.00 0.00 955.00 939.00" xmlns="http://www.w3.org/2000/svg" xmlns:xlink="http://www.w3.org/1999/xlink">
<g id="graph0" class="graph" transform="scale(1 1) rotate(0) translate(4 935)">
<title>Logger::Error</title>
<!-- Node1 -->
<g id="Node000001" class="node">
<title>Node1</title>
<g id="a_Node000001"><a xlink:title="Log error message.">
<polygon fill="#999999" stroke="#666666" points="947,-305.5 868,-305.5 868,-286.5 947,-286.5 947,-305.5"/>
<text text-anchor="middle" x="907.5" y="-293.5" font-family="Helvetica,sans-Serif" font-size="10.00">Logger::Error</text>
</a>
</g>
</g>
<!-- Node2 -->
<g id="Node000002" class="node">
<title>Node2</title>
<g id="a_Node000002"><a xlink:href="classMax22200Handler.html#aa00edacb247660349767fa4521121104" target="_top" xlink:title=" ">
<polygon fill="white" stroke="#666666" points="629,-669 436,-669 436,-639 629,-639 629,-669"/>
<text text-anchor="start" x="444" y="-657" font-family="Helvetica,sans-Serif" font-size="10.00">Max22200Handler::EnsureInitialized</text>
<text text-anchor="middle" x="532.5" y="-646" font-family="Helvetica,sans-Serif" font-size="10.00">Locked</text>
</a>
</g>
</g>
<!-- Node1&#45;&gt;Node2 -->
<g id="edge1_Node000001_Node000002" class="edge">
<title>Node1&#45;&gt;Node2</title>
<g id="a_edge1_Node000001_Node000002"><a xlink:title=" ">
<path fill="none" stroke="#63b8ff" d="M904.12,-315.99C896.65,-375.47 871.73,-549.53 832,-588 778.72,-639.6 694.65,-654.53 629.29,-657.45"/>
<polygon fill="#63b8ff" stroke="#63b8ff" points="907.64,-316.05 905.38,-305.7 900.69,-315.2 907.64,-316.05"/>
</a>
</g>
</g>
<!-- Node12 -->
<g id="Node000012" class="node">
<title>Node12</title>
<g id="a_Node000012"><a xlink:href="classTle92466edHandler.html#a59ce7fd71a61c78bba4dc4a43c99e280" target="_top" xlink:title=" ">
<polygon fill="white" stroke="#666666" points="598,-459 467,-459 467,-429 598,-429 598,-459"/>
<text text-anchor="start" x="475" y="-447" font-family="Helvetica,sans-Serif" font-size="10.00">Tle92466edHandler::</text>
<text text-anchor="middle" x="532.5" y="-436" font-family="Helvetica,sans-Serif" font-size="10.00">EnsureInitializedLocked</text>
</a>
</g>
</g>
<!-- Node1&#45;&gt;Node12 -->
<g id="edge11_Node000001_Node000012" class="edge">
<title>Node1&#45;&gt;Node12</title>
<g id="a_edge11_Node000001_Node000012"><a xlink:title=" ">
<path fill="none" stroke="#63b8ff" d="M895.8,-314.31C883.17,-334.22 860.25,-365.41 832,-382 821.9,-387.93 683.07,-415.3 598.35,-431.63"/>
<polygon fill="#63b8ff" stroke="#63b8ff" points="898.93,-315.91 901.16,-305.55 892.95,-312.26 898.93,-315.91"/>
</a>
</g>
</g>
<!-- Node27 -->
<g id="Node000027" class="node">
<title>Node27</title>
<g id="a_Node000027"><a xlink:href="classHalSpiMax22200Comm.html#ae125ed413b59c7879545bf8c33e8f33b" target="_top" xlink:title=" ">
<polygon fill="white" stroke="#666666" points="814,-507 683,-507 683,-477 814,-477 814,-507"/>
<text text-anchor="start" x="691" y="-495" font-family="Helvetica,sans-Serif" font-size="10.00">HalSpiMax22200Comm</text>
<text text-anchor="middle" x="748.5" y="-484" font-family="Helvetica,sans-Serif" font-size="10.00">::GpioSet</text>
</a>
</g>
</g>
<!-- Node1&#45;&gt;Node27 -->
<g id="edge26_Node000001_Node000027" class="edge">
<title>Node1&#45;&gt;Node27</title>
<g id="a_edge26_Node000001_Node000027"><a xlink:title=" ">
<path fill="none" stroke="#63b8ff" d="M903.49,-316.03C897.03,-351.86 878.48,-427.03 832,-468 826.74,-472.64 820.63,-476.38 814.16,-479.4"/>
<polygon fill="#63b8ff" stroke="#63b8ff" points="906.99,-316.31 905.18,-305.87 900.08,-315.16 906.99,-316.31"/>
</a>
</g>
</g>
<!-- Node28 -->
<g id="Node000028" class="node">
<title>Node28</title>
<g id="a_Node000028"><a xlink:href="classMax22200Handler.html#ad6c72b45a96c36cd1b450f5e330fad25" target="_top" xlink:title="Initialize driver (ENABLE HIGH, read/clear STATUS, set ACTIVE).">
<polygon fill="white" stroke="#666666" points="825.5,-578.5 671.5,-578.5 671.5,-559.5 825.5,-559.5 825.5,-578.5"/>
<text text-anchor="middle" x="748.5" y="-566.5" font-family="Helvetica,sans-Serif" font-size="10.00">Max22200Handler::Initialize</text>
</a>
</g>
</g>
<!-- Node1&#45;&gt;Node28 -->
<g id="edge27_Node000001_Node000028" class="edge">
<title>Node1&#45;&gt;Node28</title>
<g id="a_edge27_Node000001_Node000028"><a xlink:title=" ">
<path fill="none" stroke="#63b8ff" d="M904.2,-315.99C898.57,-357.33 880.78,-453.55 832,-516 816.39,-535.99 791,-550.66 772.51,-559.44"/>
<polygon fill="#63b8ff" stroke="#63b8ff" points="907.7,-316.22 905.49,-305.86 900.76,-315.35 907.7,-316.22"/>
</a>
</g>
</g>
<!-- Node29 -->
<g id="Node000029" class="node">
<title>Node29</title>
<g id="a_Node000029"><a xlink:href="classTle92466edHandler.html#a0883f87dfe49cce3abd5acfc8cb2176c" target="_top" xlink:title="Initialize driver (hardware reset + SPI init + enter config mode).">
<polygon fill="white" stroke="#666666" points="807.5,-459 689.5,-459 689.5,-429 807.5,-429 807.5,-459"/>
<text text-anchor="start" x="697.5" y="-447" font-family="Helvetica,sans-Serif" font-size="10.00">Tle92466edHandler::</text>
<text text-anchor="middle" x="748.5" y="-436" font-family="Helvetica,sans-Serif" font-size="10.00">Initialize</text>
</a>
</g>
</g>
<!-- Node1&#45;&gt;Node29 -->
<g id="edge29_Node000001_Node000029" class="edge">
<title>Node1&#45;&gt;Node29</title>
<g id="a_edge29_Node000001_Node000029"><a xlink:title=" ">
<path fill="none" stroke="#63b8ff" d="M899.32,-315.06C888.54,-341.2 865.79,-387.97 832,-415 824.77,-420.79 816.3,-425.46 807.59,-429.23"/>
<polygon fill="#63b8ff" stroke="#63b8ff" points="902.66,-316.13 903.09,-305.55 896.15,-313.56 902.66,-316.13"/>
</a>
</g>
</g>
<!-- Node30 -->
<g id="Node000030" class="node">
<title>Node30</title>
<g id="a_Node000030"><a xlink:href="classWs2812Handler.html#a172ae173d1e2bd93c9808452aad6e4cd" target="_top" xlink:title="Initialize the RMT channel and LED strip.">
<polygon fill="white" stroke="#666666" points="819.5,-372.5 677.5,-372.5 677.5,-353.5 819.5,-353.5 819.5,-372.5"/>
<text text-anchor="middle" x="748.5" y="-360.5" font-family="Helvetica,sans-Serif" font-size="10.00">Ws2812Handler::Initialize</text>
</a>
</g>
</g>
<!-- Node1&#45;&gt;Node30 -->
<g id="edge31_Node000001_Node000030" class="edge">
<title>Node1&#45;&gt;Node30</title>
<g id="a_edge31_Node000001_Node000030"><a xlink:title=" ">
<path fill="none" stroke="#63b8ff" d="M886.43,-311.67C872.01,-322.22 851.72,-335.68 832,-344 822.93,-347.83 812.95,-350.96 803.17,-353.48"/>
<polygon fill="#63b8ff" stroke="#63b8ff" points="888.69,-314.35 894.58,-305.55 884.49,-308.76 888.69,-314.35"/>
</a>
</g>
</g>
<!-- Node41 -->
<g id="Node000041" class="node">
<title>Node41</title>
<g id="a_Node000041"><a xlink:href="classNtcTemperatureHandler.html#a97fa93b2ed6337e24e056b46fbe331c7" target="_top" xlink:title=" ">
<polygon fill="white" stroke="#666666" points="815,-335 682,-335 682,-305 815,-305 815,-335"/>
<text text-anchor="start" x="690" y="-323" font-family="Helvetica,sans-Serif" font-size="10.00">NtcTemperatureHandler</text>
<text text-anchor="middle" x="748.5" y="-312" font-family="Helvetica,sans-Serif" font-size="10.00">::Initialize</text>
</a>
</g>
</g>
<!-- Node1&#45;&gt;Node41 -->
<g id="edge40_Node000001_Node000041" class="edge">
<title>Node1&#45;&gt;Node41</title>
<g id="a_edge40_Node000001_Node000041"><a xlink:title=" ">
<path fill="none" stroke="#63b8ff" d="M857.68,-303.46C844.19,-305.53 829.33,-307.8 815.05,-309.98"/>
<polygon fill="#63b8ff" stroke="#63b8ff" points="858.33,-306.9 867.69,-301.93 857.28,-299.98 858.33,-306.9"/>
</a>
</g>
</g>
<!-- Node42 -->
<g id="Node000042" class="node">
<title>Node42</title>
<g id="a_Node000042"><a xlink:href="classTmc9660Handler_1_1Temperature.html#a8019acd874c13ba0e175224a367bf370" target="_top" xlink:title="Initialize (verifies parent driver is ready).">
<polygon fill="white" stroke="#666666" points="832,-287 665,-287 665,-257 832,-257 832,-287"/>
<text text-anchor="start" x="673" y="-275" font-family="Helvetica,sans-Serif" font-size="10.00">Tmc9660Handler::Temperature</text>
<text text-anchor="middle" x="748.5" y="-264" font-family="Helvetica,sans-Serif" font-size="10.00">::Initialize</text>
</a>
</g>
</g>
<!-- Node1&#45;&gt;Node42 -->
<g id="edge41_Node000001_Node000042" class="edge">
<title>Node1&#45;&gt;Node42</title>
<g id="a_edge41_Node000001_Node000042"><a xlink:title=" ">
<path fill="none" stroke="#63b8ff" d="M857.65,-288.53C849.49,-287.29 840.83,-285.96 832.09,-284.63"/>
<polygon fill="#63b8ff" stroke="#63b8ff" points="857.28,-292.02 867.69,-290.07 858.33,-285.1 857.28,-292.02"/>
</a>
</g>
</g>
<!-- Node43 -->
<g id="Node000043" class="node">
<title>Node43</title>
<g id="a_Node000043"><a xlink:href="classTmc9660Handler.html#adc564847f8ae26c47412aaee0758991c" target="_top" xlink:title="Initialize the TMC9660 device.">
<polygon fill="white" stroke="#666666" points="822.5,-238.5 674.5,-238.5 674.5,-219.5 822.5,-219.5 822.5,-238.5"/>
<text text-anchor="middle" x="748.5" y="-226.5" font-family="Helvetica,sans-Serif" font-size="10.00">Tmc9660Handler::Initialize</text>
</a>
</g>
</g>
<!-- Node1&#45;&gt;Node43 -->
<g id="edge42_Node000001_Node000043" class="edge">
<title>Node1&#45;&gt;Node43</title>
<g id="a_edge42_Node000001_Node000043"><a xlink:title=" ">
<path fill="none" stroke="#63b8ff" d="M886.43,-280.33C872.01,-269.78 851.72,-256.32 832,-248 822.93,-244.17 812.95,-241.04 803.17,-238.52"/>
<polygon fill="#63b8ff" stroke="#63b8ff" points="884.49,-283.24 894.58,-286.45 888.69,-277.65 884.49,-283.24"/>
</a>
</g>
</g>
<!-- Node108 -->
<g id="Node000108" class="node">
<title>Node108</title>
<g id="a_Node000108"><a xlink:href="classMax22200Handler.html#a4a87c1be18b3b4fb6055bccd6df7da9f" target="_top" xlink:title="Initialize with board configuration.">
<polygon fill="white" stroke="#666666" points="825.5,-201.5 671.5,-201.5 671.5,-182.5 825.5,-182.5 825.5,-201.5"/>
<text text-anchor="middle" x="748.5" y="-189.5" font-family="Helvetica,sans-Serif" font-size="10.00">Max22200Handler::Initialize</text>
</a>
</g>
</g>
<!-- Node1&#45;&gt;Node108 -->
<g id="edge46_Node000001_Node000108" class="edge">
<title>Node1&#45;&gt;Node108</title>
<g id="a_edge46_Node000001_Node000108"><a xlink:title=" ">
<path fill="none" stroke="#63b8ff" d="M895.49,-277.71C882.71,-258.12 859.79,-227.61 832,-211 825.57,-207.15 818.42,-204.09 811.1,-201.64"/>
<polygon fill="#63b8ff" stroke="#63b8ff" points="892.63,-279.75 900.92,-286.34 898.56,-276.02 892.63,-279.75"/>
</a>
</g>
</g>
<!-- Node109 -->
<g id="Node000109" class="node">
<title>Node109</title>
<g id="a_Node000109"><a xlink:href="classTle92466edHandler.html#a427b6968c56e28e3e8d92b9d083fca33" target="_top" xlink:title="Initialize with global configuration.">
<polygon fill="white" stroke="#666666" points="807.5,-164 689.5,-164 689.5,-134 807.5,-134 807.5,-164"/>
<text text-anchor="start" x="697.5" y="-152" font-family="Helvetica,sans-Serif" font-size="10.00">Tle92466edHandler::</text>
<text text-anchor="middle" x="748.5" y="-141" font-family="Helvetica,sans-Serif" font-size="10.00">Initialize</text>
</a>
</g>
</g>
<!-- Node1&#45;&gt;Node109 -->
<g id="edge47_Node000001_Node000109" class="edge">
<title>Node1&#45;&gt;Node109</title>
<g id="a_edge47_Node000001_Node000109"><a xlink:title=" ">
<path fill="none" stroke="#63b8ff" d="M899.91,-277C889.61,-250.11 867.18,-201.21 832,-174 824.78,-168.41 816.32,-164.07 807.61,-160.7"/>
<polygon fill="#63b8ff" stroke="#63b8ff" points="896.64,-278.26 903.37,-286.44 903.21,-275.85 896.64,-278.26"/>
</a>
</g>
</g>
<!-- Node110 -->
<g id="Node000110" class="node">
<title>Node110</title>
<g id="a_Node000110"><a xlink:href="classTmc5160Handler.html#a64755f326176b0a38485acf5ca69fd0c" target="_top" xlink:title="Initialize the TMC5160 driver with full configuration.">
<polygon fill="white" stroke="#666666" points="822.5,-115.5 674.5,-115.5 674.5,-96.5 822.5,-96.5 822.5,-115.5"/>
<text text-anchor="middle" x="748.5" y="-103.5" font-family="Helvetica,sans-Serif" font-size="10.00">Tmc5160Handler::Initialize</text>
</a>
</g>
</g>
<!-- Node1&#45;&gt;Node110 -->
<g id="edge48_Node000001_Node000110" class="edge">
<title>Node1&#45;&gt;Node110</title>
<g id="a_edge48_Node000001_Node000110"><a xlink:title=" ">
<path fill="none" stroke="#63b8ff" d="M903.76,-276.34C897.69,-240.49 879.65,-164.58 832,-125 827.36,-121.15 822.1,-118.05 816.52,-115.55"/>
<polygon fill="#63b8ff" stroke="#63b8ff" points="900.34,-277.12 905.33,-286.47 907.26,-276.05 900.34,-277.12"/>
</a>
</g>
</g>
<!-- Node86 -->
<g id="Node000086" class="node">
<title>Node86</title>
<g id="a_Node000086"><a xlink:href="classTmc9660Handler_1_1Temperature.html#a5ebc77b2122ba4473b74a4a0fc78ff09" target="_top" xlink:title="Read the chip temperature in degrees Celsius.">
<polygon fill="white" stroke="#666666" points="832,-78 665,-78 665,-48 832,-48 832,-78"/>
<text text-anchor="start" x="673" y="-66" font-family="Helvetica,sans-Serif" font-size="10.00">Tmc9660Handler::Temperature</text>
<text text-anchor="middle" x="748.5" y="-55" font-family="Helvetica,sans-Serif" font-size="10.00">::ReadTemperatureCelsiusImpl</text>
</a>
</g>
</g>
<!-- Node1&#45;&gt;Node86 -->
<g id="edge50_Node000001_Node000086" class="edge">
<title>Node1&#45;&gt;Node86</title>
<g id="a_edge50_Node000001_Node000086"><a xlink:title=" ">
<path fill="none" stroke="#63b8ff" d="M905.28,-276.38C901.64,-235.18 887.35,-139.16 832,-87 828.42,-83.62 824.39,-80.72 820.09,-78.22"/>
<polygon fill="#63b8ff" stroke="#63b8ff" points="901.8,-276.76 906.05,-286.47 908.78,-276.23 901.8,-276.76"/>
</a>
</g>
</g>
<!-- Node131 -->
<g id="Node000131" class="node">
<title>Node131</title>
<g id="a_Node000131"><a xlink:href="classNtcTemperatureHandler.html#aeabac754a1b923c79969657d69b97a72" target="_top" xlink:title=" ">
<polygon fill="white" stroke="#666666" points="825,-30 672,-30 672,0 825,0 825,-30"/>
<text text-anchor="start" x="680" y="-18" font-family="Helvetica,sans-Serif" font-size="10.00">NtcTemperatureHandler</text>
<text text-anchor="middle" x="748.5" y="-7" font-family="Helvetica,sans-Serif" font-size="10.00">::StartContinuousMonitoring</text>
</a>
</g>
</g>
<!-- Node1&#45;&gt;Node131 -->
<g id="edge51_Node000001_Node000131" class="edge">
<title>Node1&#45;&gt;Node131</title>
<g id="a_edge51_Node000001_Node000131"><a xlink:title=" ">
<path fill="none" stroke="#63b8ff" d="M906.81,-276.26C906.46,-228.52 898.73,-105.79 832,-39 828.63,-35.62 824.81,-32.72 820.71,-30.21"/>
<polygon fill="#63b8ff" stroke="#63b8ff" points="903.31,-276.46 906.78,-286.47 910.31,-276.48 903.31,-276.46"/>
</a>
</g>
</g>
<!-- Node3 -->
<g id="Node000003" class="node">
<title>Node3</title>
<g id="a_Node000003"><a xlink:href="classMax22200Handler.html#afd07a624dc736a1452c0f6190499adc0" target="_top" xlink:title="Dump diagnostics to logger.">
<polygon fill="white" stroke="#666666" points="400,-719.5 202,-719.5 202,-700.5 400,-700.5 400,-719.5"/>
<text text-anchor="middle" x="301" y="-707.5" font-family="Helvetica,sans-Serif" font-size="10.00">Max22200Handler::DumpDiagnostics</text>
</a>
</g>
</g>
<!-- Node2&#45;&gt;Node3 -->
<g id="edge2_Node000002_Node000003" class="edge">
<title>Node2&#45;&gt;Node3</title>
<g id="a_edge2_Node000002_Node000003"><a xlink:title=" ">
<path fill="none" stroke="#63b8ff" d="M473.83,-672.01C450.98,-678.8 424.38,-686.25 400,-692 386.87,-695.1 372.64,-697.98 359.2,-700.48"/>
<polygon fill="#63b8ff" stroke="#63b8ff" points="475.14,-675.28 483.71,-669.05 473.13,-668.57 475.14,-675.28"/>
</a>
</g>
</g>
<!-- Node4 -->
<g id="Node000004" class="node">
<title>Node4</title>
<g id="a_Node000004"><a xlink:href="classMax22200Handler.html#a803b60663755d7850857626b58efc084" target="_top" xlink:title="Ensure driver is initialized (lazy init entrypoint).">
<polygon fill="white" stroke="#666666" points="397.5,-682.5 204.5,-682.5 204.5,-663.5 397.5,-663.5 397.5,-682.5"/>
<text text-anchor="middle" x="301" y="-670.5" font-family="Helvetica,sans-Serif" font-size="10.00">Max22200Handler::EnsureInitialized</text>
</a>
</g>
</g>
<!-- Node2&#45;&gt;Node4 -->
<g id="edge3_Node000002_Node000004" class="edge">
<title>Node2&#45;&gt;Node4</title>
<g id="a_edge3_Node000002_Node000004"><a xlink:title=" ">
<path fill="none" stroke="#63b8ff" d="M425.68,-662.76C416.29,-663.54 406.81,-664.32 397.51,-665.09"/>
<polygon fill="#63b8ff" stroke="#63b8ff" points="426.16,-666.23 435.83,-661.92 425.58,-659.26 426.16,-666.23"/>
</a>
</g>
</g>
<!-- Node5 -->
<g id="Node000005" class="node">
<title>Node5</title>
<g id="a_Node000005"><a xlink:href="classMax22200Handler.html#a001e00b9d9a02611b51951f16bcb78d1" target="_top" xlink:title="Get the underlying driver for advanced operations.">
<polygon fill="white" stroke="#666666" points="380.5,-645.5 221.5,-645.5 221.5,-626.5 380.5,-626.5 380.5,-645.5"/>
<text text-anchor="middle" x="301" y="-633.5" font-family="Helvetica,sans-Serif" font-size="10.00">Max22200Handler::GetDriver</text>
</a>
</g>
</g>
<!-- Node2&#45;&gt;Node5 -->
<g id="edge4_Node000002_Node000005" class="edge">
<title>Node2&#45;&gt;Node5</title>
<g id="a_edge4_Node000002_Node000005"><a xlink:title=" ">
<path fill="none" stroke="#63b8ff" d="M425.47,-645.68C410.43,-644.5 395.19,-643.31 380.79,-642.18"/>
<polygon fill="#63b8ff" stroke="#63b8ff" points="425.59,-649.2 435.83,-646.5 426.14,-642.23 425.59,-649.2"/>
</a>
</g>
</g>
<!-- Node7 -->
<g id="Node000007" class="node">
<title>Node7</title>
<g id="a_Node000007"><a xlink:href="classMax22200Handler.html#abcdd9746a0df9c28bb36508d52d80ef5" target="_top" xlink:title="Execute a lambda with a locked, initialized driver.">
<polygon fill="white" stroke="#666666" points="382.5,-834.5 219.5,-834.5 219.5,-815.5 382.5,-815.5 382.5,-834.5"/>
<text text-anchor="middle" x="301" y="-822.5" font-family="Helvetica,sans-Serif" font-size="10.00">Max22200Handler::withDriver</text>
</a>
</g>
</g>
<!-- Node2&#45;&gt;Node7 -->
<g id="edge6_Node000002_Node000007" class="edge">
<title>Node2&#45;&gt;Node7</title>
<g id="a_edge6_Node000002_Node000007"><a xlink:title=" ">
<path fill="none" stroke="#63b8ff" d="M502.97,-675.26C452.81,-712.64 350.71,-788.71 314.82,-815.45"/>
<polygon fill="#63b8ff" stroke="#63b8ff" points="505.21,-677.96 511.13,-669.18 501.02,-672.34 505.21,-677.96"/>
</a>
</g>
</g>
<!-- Node6 -->
<g id="Node000006" class="node">
<title>Node6</title>
<g id="a_Node000006"><a xlink:href="classMax22200Handler.html#aee42537a3d2f0955a1479709b2d4b4b8" target="_top" xlink:title=" ">
<polygon fill="white" stroke="#666666" points="162.5,-760.5 3.5,-760.5 3.5,-741.5 162.5,-741.5 162.5,-760.5"/>
<text text-anchor="middle" x="83" y="-748.5" font-family="Helvetica,sans-Serif" font-size="10.00">Max22200Handler::GetDriver</text>
</a>
</g>
</g>
<!-- Node5&#45;&gt;Node6 -->
<g id="edge5_Node000005_Node000006" class="edge">
<title>Node5&#45;&gt;Node6</title>
<g id="a_edge5_Node000005_Node000006"><a xlink:title=" ">
<path fill="none" stroke="#63b8ff" d="M211.73,-648.65C208.31,-650.51 205.05,-652.62 202,-655 172.21,-678.24 195.36,-708.23 166,-732 161.23,-735.86 155.82,-738.97 150.1,-741.46"/>
<polygon fill="#63b8ff" stroke="#63b8ff" points="213.52,-651.67 221.08,-644.25 210.54,-645.34 213.52,-651.67"/>
</a>
</g>
</g>
<!-- Node8 -->
<g id="Node000008" class="node">
<title>Node8</title>
<g id="a_Node000008"><a xlink:href="classMax22200Handler.html#a439f52e4acfac83872a74fa9eef5237f" target="_top" xlink:title="Clear all fault flags.">
<polygon fill="white" stroke="#666666" points="166,-797.5 0,-797.5 0,-778.5 166,-778.5 166,-797.5"/>
<text text-anchor="middle" x="83" y="-785.5" font-family="Helvetica,sans-Serif" font-size="10.00">Max22200Handler::ClearFaults</text>
</a>
</g>
</g>
<!-- Node7&#45;&gt;Node8 -->
<g id="edge7_Node000007_Node000008" class="edge">
<title>Node7&#45;&gt;Node8</title>
<g id="a_edge7_Node000007_Node000008"><a xlink:title=" ">
<path fill="none" stroke="#63b8ff" d="M234.35,-813.75C204.15,-808.58 168.7,-802.51 139.81,-797.56"/>
<polygon fill="#63b8ff" stroke="#63b8ff" points="233.93,-817.23 244.37,-815.47 235.11,-810.33 233.93,-817.23"/>
</a>
</g>
</g>
<!-- Node9 -->
<g id="Node000009" class="node">
<title>Node9</title>
<g id="a_Node000009"><a xlink:href="classMax22200Handler.html#a8469fc41589ea672b8732769d2222443" target="_top" xlink:title="Disable all channels.">
<polygon fill="white" stroke="#666666" points="157.5,-931 8.5,-931 8.5,-901 157.5,-901 157.5,-931"/>
<text text-anchor="start" x="16.5" y="-919" font-family="Helvetica,sans-Serif" font-size="10.00">Max22200Handler::Disable</text>
<text text-anchor="middle" x="83" y="-908" font-family="Helvetica,sans-Serif" font-size="10.00">AllChannels</text>
</a>
</g>
</g>
<!-- Node7&#45;&gt;Node9 -->
<g id="edge8_Node000007_Node000009" class="edge">
<title>Node7&#45;&gt;Node9</title>
<g id="a_edge8_Node000007_Node000009"><a xlink:title=" ">
<path fill="none" stroke="#63b8ff" d="M274.1,-839.7C247.56,-854.33 204.81,-876.76 166,-892 157.85,-895.2 149.11,-898.2 140.47,-900.92"/>
<polygon fill="#63b8ff" stroke="#63b8ff" points="276.07,-842.61 283.1,-834.68 272.66,-836.49 276.07,-842.61"/>
</a>
</g>
</g>
<!-- Node10 -->
<g id="Node000010" class="node">
<title>Node10</title>
<g id="a_Node000010"><a xlink:href="classMax22200Handler.html#aa9e41274b5467db2e901be023d4dd061" target="_top" xlink:title="Enable all channels.">
<polygon fill="white" stroke="#666666" points="162,-883 4,-883 4,-853 162,-853 162,-883"/>
<text text-anchor="start" x="12" y="-871" font-family="Helvetica,sans-Serif" font-size="10.00">Max22200Handler::EnableAll</text>
<text text-anchor="middle" x="83" y="-860" font-family="Helvetica,sans-Serif" font-size="10.00">Channels</text>
</a>
</g>
</g>
<!-- Node7&#45;&gt;Node10 -->
<g id="edge9_Node000007_Node000010" class="edge">
<title>Node7&#45;&gt;Node10</title>
<g id="a_edge9_Node000007_Node000010"><a xlink:title=" ">
<path fill="none" stroke="#63b8ff" d="M242.2,-836.51C216.77,-841.57 186.55,-847.58 159.38,-852.99"/>
<polygon fill="#63b8ff" stroke="#63b8ff" points="242.94,-839.93 252.06,-834.54 241.57,-833.06 242.94,-839.93"/>
</a>
</g>
</g>
<!-- Node11 -->
<g id="Node000011" class="node">
<title>Node11</title>
<g id="a_Node000011"><a xlink:href="classMax22200Handler.html#ac5b60b117fec404c55597929134fa1a1" target="_top" xlink:title="Check if any fault is present.">
<polygon fill="white" stroke="#666666" points="160,-834.5 6,-834.5 6,-815.5 160,-815.5 160,-834.5"/>
<text text-anchor="middle" x="83" y="-822.5" font-family="Helvetica,sans-Serif" font-size="10.00">Max22200Handler::HasFault</text>
</a>
</g>
</g>
<!-- Node7&#45;&gt;Node11 -->
<g id="edge10_Node000007_Node000011" class="edge">
<title>Node7&#45;&gt;Node11</title>
<g id="a_edge10_Node000007_Node000011"><a xlink:title=" ">
<path fill="none" stroke="#63b8ff" d="M209.22,-825C192.95,-825 176.16,-825 160.35,-825"/>
<polygon fill="#63b8ff" stroke="#63b8ff" points="209.26,-828.5 219.26,-825 209.26,-821.5 209.26,-828.5"/>
</a>
</g>
</g>
<!-- Node13 -->
<g id="Node000013" class="node">
<title>Node13</title>
<g id="a_Node000013"><a xlink:href="classTle92466edHandler.html#afcec01ba90f6596dcde99387ef41b6e4" target="_top" xlink:title="Dump diagnostics to logger.">
<polygon fill="white" stroke="#666666" points="360,-507 242,-507 242,-477 360,-477 360,-507"/>
<text text-anchor="start" x="250" y="-495" font-family="Helvetica,sans-Serif" font-size="10.00">Tle92466edHandler::</text>
<text text-anchor="middle" x="301" y="-484" font-family="Helvetica,sans-Serif" font-size="10.00">DumpDiagnostics</text>
</a>
</g>
</g>
<!-- Node12&#45;&gt;Node13 -->
<g id="edge12_Node000012_Node000013" class="edge">
<title>Node12&#45;&gt;Node13</title>
<g id="a_edge12_Node000012_Node000013"><a xlink:title=" ">
<path fill="none" stroke="#63b8ff" d="M456.94,-459.59C425.55,-466.16 389.57,-473.69 360.18,-479.83"/>
<polygon fill="#63b8ff" stroke="#63b8ff" points="457.89,-462.97 466.96,-457.5 456.46,-456.12 457.89,-462.97"/>
</a>
</g>
</g>
<!-- Node14 -->
<g id="Node000014" class="node">
<title>Node14</title>
<g id="a_Node000014"><a xlink:href="classTle92466edHandler.html#a1a976346516812f7125cdeb2f3aeb327" target="_top" xlink:title="Ensure driver is initialized (lazy init entrypoint).">
<polygon fill="white" stroke="#666666" points="360,-459 242,-459 242,-429 360,-429 360,-459"/>
<text text-anchor="start" x="250" y="-447" font-family="Helvetica,sans-Serif" font-size="10.00">Tle92466edHandler::</text>
<text text-anchor="middle" x="301" y="-436" font-family="Helvetica,sans-Serif" font-size="10.00">EnsureInitialized</text>
</a>
</g>
</g>
<!-- Node12&#45;&gt;Node14 -->
<g id="edge13_Node000012_Node000014" class="edge">
<title>Node12&#45;&gt;Node14</title>
<g id="a_edge13_Node000012_Node000014"><a xlink:title=" ">
<path fill="none" stroke="#63b8ff" d="M456.94,-444C425.55,-444 389.57,-444 360.18,-444"/>
<polygon fill="#63b8ff" stroke="#63b8ff" points="456.96,-447.5 466.96,-444 456.96,-440.5 456.96,-447.5"/>
</a>
</g>
</g>
<!-- Node15 -->
<g id="Node000015" class="node">
<title>Node15</title>
<g id="a_Node000015"><a xlink:href="classTle92466edHandler.html#ae83bbf85e50d68c8adcc2160bdaed271" target="_top" xlink:title="Get the underlying driver for advanced operations.">
<polygon fill="white" stroke="#666666" points="360,-411 242,-411 242,-381 360,-381 360,-411"/>
<text text-anchor="start" x="250" y="-399" font-family="Helvetica,sans-Serif" font-size="10.00">Tle92466edHandler::</text>
<text text-anchor="middle" x="301" y="-388" font-family="Helvetica,sans-Serif" font-size="10.00">GetDriver</text>
</a>
</g>
</g>
<!-- Node12&#45;&gt;Node15 -->
<g id="edge14_Node000012_Node000015" class="edge">
<title>Node12&#45;&gt;Node15</title>
<g id="a_edge14_Node000012_Node000015"><a xlink:title=" ">
<path fill="none" stroke="#63b8ff" d="M456.94,-428.41C425.55,-421.84 389.57,-414.31 360.18,-408.17"/>
<polygon fill="#63b8ff" stroke="#63b8ff" points="456.46,-431.88 466.96,-430.5 457.89,-425.03 456.46,-431.88"/>
</a>
</g>
</g>
<!-- Node17 -->
<g id="Node000017" class="node">
<title>Node17</title>
<g id="a_Node000017"><a xlink:href="classTle92466edHandler.html#aef42f3c7c1b1ef51b27eb8d178aca6bc" target="_top" xlink:title="Execute a lambda with a locked, initialized driver.">
<polygon fill="white" stroke="#666666" points="360,-555 242,-555 242,-525 360,-525 360,-555"/>
<text text-anchor="start" x="250" y="-543" font-family="Helvetica,sans-Serif" font-size="10.00">Tle92466edHandler::</text>
<text text-anchor="middle" x="301" y="-532" font-family="Helvetica,sans-Serif" font-size="10.00">withDriver</text>
</a>
</g>
</g>
<!-- Node12&#45;&gt;Node17 -->
<g id="edge16_Node000012_Node000017" class="edge">
<title>Node12&#45;&gt;Node17</title>
<g id="a_edge16_Node000012_Node000017"><a xlink:title=" ">
<path fill="none" stroke="#63b8ff" d="M499.52,-464.6C473.58,-480.55 435.59,-502.17 400,-516 387.35,-520.92 373.37,-525.06 360.04,-528.44"/>
<polygon fill="#63b8ff" stroke="#63b8ff" points="501.53,-467.48 508.17,-459.22 497.83,-461.53 501.53,-467.48"/>
</a>
</g>
</g>
<!-- Node16 -->
<g id="Node000016" class="node">
<title>Node16</title>
<g id="a_Node000016"><a xlink:href="classTle92466edHandler.html#a56ebe6e509ccd1b6b865728ba14d2533" target="_top" xlink:title=" ">
<polygon fill="white" stroke="#666666" points="142,-291 24,-291 24,-261 142,-261 142,-291"/>
<text text-anchor="start" x="32" y="-279" font-family="Helvetica,sans-Serif" font-size="10.00">Tle92466edHandler::</text>
<text text-anchor="middle" x="83" y="-268" font-family="Helvetica,sans-Serif" font-size="10.00">GetDriver</text>
</a>
</g>
</g>
<!-- Node15&#45;&gt;Node16 -->
<g id="edge15_Node000015_Node000016" class="edge">
<title>Node15&#45;&gt;Node16</title>
<g id="a_edge15_Node000015_Node000016"><a xlink:title=" ">
<path fill="none" stroke="#63b8ff" d="M231.87,-387.48C221.12,-383.92 210.7,-378.94 202,-372 174.04,-349.68 193.46,-322.94 166,-300 159.06,-294.2 150.77,-289.8 142.16,-286.46"/>
<polygon fill="#63b8ff" stroke="#63b8ff" points="231.21,-390.93 241.79,-390.36 233.17,-384.21 231.21,-390.93"/>
</a>
</g>
</g>
<!-- Node18 -->
<g id="Node000018" class="node">
<title>Node18</title>
<g id="a_Node000018"><a xlink:href="classTle92466edHandler.html#a61a76044cfd01bc741e5b86fce5cf592" target="_top" xlink:title="Clear all fault flags.">
<polygon fill="white" stroke="#666666" points="142,-435 24,-435 24,-405 142,-405 142,-435"/>
<text text-anchor="start" x="32" y="-423" font-family="Helvetica,sans-Serif" font-size="10.00">Tle92466edHandler::</text>
<text text-anchor="middle" x="83" y="-412" font-family="Helvetica,sans-Serif" font-size="10.00">ClearFaults</text>
</a>
</g>
</g>
<!-- Node17&#45;&gt;Node18 -->
<g id="edge17_Node000017_Node000018" class="edge">
<title>Node17&#45;&gt;Node18</title>
<g id="a_edge17_Node000017_Node000018"><a xlink:title=" ">
<path fill="none" stroke="#63b8ff" d="M231.87,-531.48C221.12,-527.92 210.7,-522.94 202,-516 174.04,-493.68 193.46,-466.94 166,-444 159.06,-438.2 150.77,-433.8 142.16,-430.46"/>
<polygon fill="#63b8ff" stroke="#63b8ff" points="231.21,-534.93 241.79,-534.36 233.17,-528.21 231.21,-534.93"/>
</a>
</g>
</g>
<!-- Node19 -->
<g id="Node000019" class="node">
<title>Node19</title>
<g id="a_Node000019"><a xlink:href="classTle92466edHandler.html#ad8eb36eac8e534aee77e3862f59f4813" target="_top" xlink:title="Disable all channels.">
<polygon fill="white" stroke="#666666" points="142,-387 24,-387 24,-357 142,-357 142,-387"/>
<text text-anchor="start" x="32" y="-375" font-family="Helvetica,sans-Serif" font-size="10.00">Tle92466edHandler::</text>
<text text-anchor="middle" x="83" y="-364" font-family="Helvetica,sans-Serif" font-size="10.00">DisableAllChannels</text>
</a>
</g>
</g>
<!-- Node17&#45;&gt;Node19 -->
<g id="edge18_Node000017_Node000019" class="edge">
<title>Node17&#45;&gt;Node19</title>
<g id="a_edge18_Node000017_Node000019"><a xlink:title=" ">
<path fill="none" stroke="#63b8ff" d="M232.1,-533.14C221,-529.44 210.4,-523.98 202,-516 161.63,-477.65 205.51,-435.24 166,-396 159.37,-389.41 151.04,-384.62 142.24,-381.13"/>
<polygon fill="#63b8ff" stroke="#63b8ff" points="231.36,-536.57 241.94,-535.97 233.3,-529.85 231.36,-536.57"/>
</a>
</g>
</g>
<!-- Node20 -->
<g id="Node000020" class="node">
<title>Node20</title>
<g id="a_Node000020"><a xlink:href="classTle92466edHandler.html#a41e1f26179783158819584deb99203f8" target="_top" xlink:title="Enable all channels.">
<polygon fill="white" stroke="#666666" points="142,-339 24,-339 24,-309 142,-309 142,-339"/>
<text text-anchor="start" x="32" y="-327" font-family="Helvetica,sans-Serif" font-size="10.00">Tle92466edHandler::</text>
<text text-anchor="middle" x="83" y="-316" font-family="Helvetica,sans-Serif" font-size="10.00">EnableAllChannels</text>
</a>
</g>
</g>
<!-- Node17&#45;&gt;Node20 -->
<g id="edge19_Node000017_Node000020" class="edge">
<title>Node17&#45;&gt;Node20</title>
<g id="a_edge19_Node000017_Node000020"><a xlink:title=" ">
<path fill="none" stroke="#63b8ff" d="M231.95,-533.82C220.76,-530.06 210.17,-524.41 202,-516 148.79,-461.22 217.97,-403.95 166,-348 159.54,-341.04 151.18,-336.07 142.28,-332.51"/>
<polygon fill="#63b8ff" stroke="#63b8ff" points="231.31,-537.28 241.89,-536.66 233.24,-530.55 231.31,-537.28"/>
</a>
</g>
</g>
<!-- Node21 -->
<g id="Node000021" class="node">
<title>Node21</title>
<g id="a_Node000021"><a xlink:href="classTle92466edHandler.html#a0fa95ebc85ab477497525eea4ab59d94" target="_top" xlink:title="Enter config mode (for register writes).">
<polygon fill="white" stroke="#666666" points="142,-723 24,-723 24,-693 142,-693 142,-723"/>
<text text-anchor="start" x="32" y="-711" font-family="Helvetica,sans-Serif" font-size="10.00">Tle92466edHandler::</text>
<text text-anchor="middle" x="83" y="-700" font-family="Helvetica,sans-Serif" font-size="10.00">EnterConfigMode</text>
</a>
</g>
</g>
<!-- Node17&#45;&gt;Node21 -->
<g id="edge20_Node000017_Node000021" class="edge">
<title>Node17&#45;&gt;Node21</title>
<g id="a_edge20_Node000017_Node000021"><a xlink:title=" ">
<path fill="none" stroke="#63b8ff" d="M267.56,-560.82C247.01,-575.14 220.85,-595.57 202,-618 180.5,-643.58 192.02,-663.04 166,-684 159.07,-689.58 150.88,-693.87 142.41,-697.16"/>
<polygon fill="#63b8ff" stroke="#63b8ff" points="269.7,-563.6 275.99,-555.07 265.75,-557.82 269.7,-563.6"/>
</a>
</g>
</g>
<!-- Node22 -->
<g id="Node000022" class="node">
<title>Node22</title>
<g id="a_Node000022"><a xlink:href="classTle92466edHandler.html#a8e8602032981d1c684a3d9e5051c043a" target="_top" xlink:title="Enter mission mode (enable outputs after configuration).">
<polygon fill="white" stroke="#666666" points="142,-675 24,-675 24,-645 142,-645 142,-675"/>
<text text-anchor="start" x="32" y="-663" font-family="Helvetica,sans-Serif" font-size="10.00">Tle92466edHandler::</text>
<text text-anchor="middle" x="83" y="-652" font-family="Helvetica,sans-Serif" font-size="10.00">EnterMissionMode</text>
</a>
</g>
</g>
<!-- Node17&#45;&gt;Node22 -->
<g id="edge21_Node000017_Node000022" class="edge">
<title>Node17&#45;&gt;Node22</title>
<g id="a_edge21_Node000017_Node000022"><a xlink:title=" ">
<path fill="none" stroke="#63b8ff" d="M275.27,-561.67C249.54,-583.21 207.33,-615.87 166,-636 158.53,-639.64 150.41,-642.83 142.27,-645.6"/>
<polygon fill="#63b8ff" stroke="#63b8ff" points="277.65,-564.23 283.02,-555.09 273.13,-558.89 277.65,-564.23"/>
</a>
</g>
</g>
<!-- Node23 -->
<g id="Node000023" class="node">
<title>Node23</title>
<g id="a_Node000023"><a xlink:href="classTle92466edHandler.html#a4c646ee5db271f07517cc15e8a623f0e" target="_top" xlink:title="Get chip ID (returns 0 on error).">
<polygon fill="white" stroke="#666666" points="142,-627 24,-627 24,-597 142,-597 142,-627"/>
<text text-anchor="start" x="32" y="-615" font-family="Helvetica,sans-Serif" font-size="10.00">Tle92466edHandler::</text>
<text text-anchor="middle" x="83" y="-604" font-family="Helvetica,sans-Serif" font-size="10.00">GetChipId</text>
</a>
</g>
</g>
<!-- Node17&#45;&gt;Node23 -->
<g id="edge22_Node000017_Node000023" class="edge">
<title>Node17&#45;&gt;Node23</title>
<g id="a_edge22_Node000017_Node000023"><a xlink:title=" ">
<path fill="none" stroke="#63b8ff" d="M250.36,-558.57C225.21,-567.78 194.11,-578.86 166,-588 156.69,-591.03 146.73,-594.09 137.07,-596.97"/>
<polygon fill="#63b8ff" stroke="#63b8ff" points="251.87,-561.75 260.05,-555.01 249.45,-555.18 251.87,-561.75"/>
</a>
</g>
</g>
<!-- Node24 -->
<g id="Node000024" class="node">
<title>Node24</title>
<g id="a_Node000024"><a xlink:href="classTle92466edHandler.html#a0c29d4ada1c9247dc90fb64d914dec1f" target="_top" xlink:title="Get IC version (returns 0 on error).">
<polygon fill="white" stroke="#666666" points="142,-579 24,-579 24,-549 142,-549 142,-579"/>
<text text-anchor="start" x="32" y="-567" font-family="Helvetica,sans-Serif" font-size="10.00">Tle92466edHandler::</text>
<text text-anchor="middle" x="83" y="-556" font-family="Helvetica,sans-Serif" font-size="10.00">GetIcVersion</text>
</a>
</g>
</g>
<!-- Node17&#45;&gt;Node24 -->
<g id="edge23_Node000017_Node000024" class="edge">
<title>Node17&#45;&gt;Node24</title>
<g id="a_edge23_Node000017_Node000024"><a xlink:title=" ">
<path fill="none" stroke="#63b8ff" d="M231.85,-547.57C203.07,-550.77 169.89,-554.46 142.27,-557.53"/>
<polygon fill="#63b8ff" stroke="#63b8ff" points="232.28,-551.05 241.83,-546.46 231.51,-544.09 232.28,-551.05"/>
</a>
</g>
</g>
<!-- Node25 -->
<g id="Node000025" class="node">
<title>Node25</title>
<g id="a_Node000025"><a xlink:href="classTle92466edHandler.html#ab86e6d3eb2dca25154a8fa7c42ddb945" target="_top" xlink:title="Check if any fault is present.">
<polygon fill="white" stroke="#666666" points="142,-531 24,-531 24,-501 142,-501 142,-531"/>
<text text-anchor="start" x="32" y="-519" font-family="Helvetica,sans-Serif" font-size="10.00">Tle92466edHandler::</text>
<text text-anchor="middle" x="83" y="-508" font-family="Helvetica,sans-Serif" font-size="10.00">HasFault</text>
</a>
</g>
</g>
<!-- Node17&#45;&gt;Node25 -->
<g id="edge24_Node000017_Node000025" class="edge">
<title>Node17&#45;&gt;Node25</title>
<g id="a_edge24_Node000017_Node000025"><a xlink:title=" ">
<path fill="none" stroke="#63b8ff" d="M231.85,-532.43C203.07,-529.23 169.89,-525.54 142.27,-522.47"/>
<polygon fill="#63b8ff" stroke="#63b8ff" points="231.51,-535.91 241.83,-533.54 232.28,-528.95 231.51,-535.91"/>
</a>
</g>
</g>
<!-- Node26 -->
<g id="Node000026" class="node">
<title>Node26</title>
<g id="a_Node000026"><a xlink:href="classTle92466edHandler.html#a6bcbd117208f3e44f2216d45541eb4fa" target="_top" xlink:title="Check if in mission mode.">
<polygon fill="white" stroke="#666666" points="142,-483 24,-483 24,-453 142,-453 142,-483"/>
<text text-anchor="start" x="32" y="-471" font-family="Helvetica,sans-Serif" font-size="10.00">Tle92466edHandler::</text>
<text text-anchor="middle" x="83" y="-460" font-family="Helvetica,sans-Serif" font-size="10.00">IsMissionMode</text>
</a>
</g>
</g>
<!-- Node17&#45;&gt;Node26 -->
<g id="edge25_Node000017_Node000026" class="edge">
<title>Node17&#45;&gt;Node26</title>
<g id="a_edge25_Node000017_Node000026"><a xlink:title=" ">
<path fill="none" stroke="#63b8ff" d="M232.08,-526.64C221.81,-523.69 211.48,-520.17 202,-516 184.4,-508.26 183.43,-500.13 166,-492 158.47,-488.49 150.31,-485.37 142.16,-482.63"/>
<polygon fill="#63b8ff" stroke="#63b8ff" points="231.32,-530.06 241.89,-529.3 233.16,-523.3 231.32,-530.06"/>
</a>
</g>
</g>
<!-- Node28&#45;&gt;Node2 -->
<g id="edge28_Node000028_Node000002" class="edge">
<title>Node28&#45;&gt;Node2</title>
<g id="a_edge28_Node000028_Node000002"><a xlink:title=" ">
<path fill="none" stroke="#63b8ff" d="M713.62,-582.46C674.97,-597.81 611.91,-622.86 571.58,-638.87"/>
<polygon fill="#63b8ff" stroke="#63b8ff" points="715.37,-585.53 723.37,-578.59 712.78,-579.02 715.37,-585.53"/>
</a>
</g>
</g>
<!-- Node29&#45;&gt;Node12 -->
<g id="edge30_Node000029_Node000012" class="edge">
<title>Node29&#45;&gt;Node12</title>
<g id="a_edge30_Node000029_Node000012"><a xlink:title=" ">
<path fill="none" stroke="#63b8ff" d="M679.17,-444C653.19,-444 623.7,-444 598.09,-444"/>
<polygon fill="#63b8ff" stroke="#63b8ff" points="679.31,-447.5 689.31,-444 679.31,-440.5 679.31,-447.5"/>
</a>
</g>
</g>
<!-- Node31 -->
<g id="Node000031" class="node">
<title>Node31</title>
<g id="a_Node000031"><a xlink:href="classWs2812Handler.html#afe5f397b22e9b92cf2fb2cebae6e123d" target="_top" xlink:title=" ">
<polygon fill="white" stroke="#666666" points="623,-275 442,-275 442,-245 623,-245 623,-275"/>
<text text-anchor="start" x="450" y="-263" font-family="Helvetica,sans-Serif" font-size="10.00">Ws2812Handler::EnsureInitialized</text>
<text text-anchor="middle" x="532.5" y="-252" font-family="Helvetica,sans-Serif" font-size="10.00">Locked</text>
</a>
</g>
</g>
<!-- Node30&#45;&gt;Node31 -->
<g id="edge32_Node000030_Node000031" class="edge">
<title>Node30&#45;&gt;Node31</title>
<g id="a_edge32_Node000030_Node000031"><a xlink:title=" ">
<path fill="none" stroke="#63b8ff" d="M684.19,-350.77C677.61,-348.81 671.1,-346.56 665,-344 621.79,-325.86 576.93,-293.88 552.38,-275.04"/>
<polygon fill="#63b8ff" stroke="#63b8ff" points="683.27,-354.15 693.84,-353.46 685.14,-347.41 683.27,-354.15"/>
</a>
</g>
</g>
<!-- Node32 -->
<g id="Node000032" class="node">
<title>Node32</title>
<g id="a_Node000032"><a xlink:href="classWs2812Handler.html#a586683dcf63f17194b77c026972c7b2b" target="_top" xlink:title="Dump diagnostics to logger.">
<polygon fill="white" stroke="#666666" points="394,-251.5 208,-251.5 208,-232.5 394,-232.5 394,-251.5"/>
<text text-anchor="middle" x="301" y="-239.5" font-family="Helvetica,sans-Serif" font-size="10.00">Ws2812Handler::DumpDiagnostics</text>
</a>
</g>
</g>
<!-- Node31&#45;&gt;Node32 -->
<g id="edge33_Node000031_Node000032" class="edge">
<title>Node31&#45;&gt;Node32</title>
<g id="a_edge33_Node000031_Node000032"><a xlink:title=" ">
<path fill="none" stroke="#63b8ff" d="M431.47,-252.15C419.12,-251.19 406.53,-250.2 394.3,-249.24"/>
<polygon fill="#63b8ff" stroke="#63b8ff" points="431.54,-255.67 441.78,-252.96 432.09,-248.69 431.54,-255.67"/>
</a>
</g>
</g>
<!-- Node33 -->
<g id="Node000033" class="node">
<title>Node33</title>
<g id="a_Node000033"><a xlink:href="classWs2812Handler.html#a764cc93c64a81844a284ac7515ea8366" target="_top" xlink:title="Ensure strip resources are initialized (lazy init entrypoint).">
<polygon fill="white" stroke="#666666" points="391.5,-214.5 210.5,-214.5 210.5,-195.5 391.5,-195.5 391.5,-214.5"/>
<text text-anchor="middle" x="301" y="-202.5" font-family="Helvetica,sans-Serif" font-size="10.00">Ws2812Handler::EnsureInitialized</text>
</a>
</g>
</g>
<!-- Node31&#45;&gt;Node33 -->
<g id="edge34_Node000031_Node000033" class="edge">
<title>Node31&#45;&gt;Node33</title>
<g id="a_edge34_Node000031_Node000033"><a xlink:title=" ">
<path fill="none" stroke="#63b8ff" d="M470.3,-242.21C448.24,-236.07 423.09,-229.39 400,-224 385.49,-220.61 369.66,-217.36 355.05,-214.53"/>
<polygon fill="#63b8ff" stroke="#63b8ff" points="469.63,-245.66 480.21,-244.99 471.52,-238.92 469.63,-245.66"/>
</a>
</g>
</g>
<!-- Node34 -->
<g id="Node000034" class="node">
<title>Node34</title>
<g id="a_Node000034"><a xlink:href="classWs2812Handler.html#a3e09ba2c15d5b0e7d6d254e22f634ae8" target="_top" xlink:title="Get the animator object.">
<polygon fill="#fff0f0" stroke="red" points="382,-177.5 220,-177.5 220,-158.5 382,-158.5 382,-177.5"/>
<text text-anchor="middle" x="301" y="-165.5" font-family="Helvetica,sans-Serif" font-size="10.00">Ws2812Handler::GetAnimator</text>
</a>
</g>
</g>
<!-- Node31&#45;&gt;Node34 -->
<g id="edge35_Node000031_Node000034" class="edge">
<title>Node31&#45;&gt;Node34</title>
<g id="a_edge35_Node000031_Node000034"><a xlink:title=" ">
<path fill="none" stroke="#63b8ff" d="M500.68,-239.21C474.85,-222.7 436.43,-200.26 400,-187 389.41,-183.15 377.89,-180.02 366.58,-177.51"/>
<polygon fill="#63b8ff" stroke="#63b8ff" points="498.98,-242.27 509.27,-244.77 502.78,-236.4 498.98,-242.27"/>
</a>
</g>
</g>
<!-- Node36 -->
<g id="Node000036" class="node">
<title>Node36</title>
<g id="a_Node000036"><a xlink:href="classWs2812Handler.html#a7471840392adad3cab496e2dc57dc792" target="_top" xlink:title="Get the underlying LED strip object.">
<polygon fill="#fff0f0" stroke="red" points="371,-140.5 231,-140.5 231,-121.5 371,-121.5 371,-140.5"/>
<text text-anchor="middle" x="301" y="-128.5" font-family="Helvetica,sans-Serif" font-size="10.00">Ws2812Handler::GetStrip</text>
</a>
</g>
</g>
<!-- Node31&#45;&gt;Node36 -->
<g id="edge36_Node000031_Node000036" class="edge">
<title>Node31&#45;&gt;Node36</title>
<g id="a_edge36_Node000031_Node000036"><a xlink:title=" ">
<path fill="none" stroke="#63b8ff" d="M511.43,-237.4C487.5,-211.98 445.06,-171.44 400,-150 391,-145.72 381.1,-142.4 371.16,-139.83"/>
<polygon fill="#63b8ff" stroke="#63b8ff" points="508.88,-239.8 518.24,-244.77 514.02,-235.05 508.88,-239.8"/>
</a>
</g>
</g>
<!-- Node38 -->
<g id="Node000038" class="node">
<title>Node38</title>
<g id="a_Node000038"><a xlink:href="classWs2812Handler.html#ad67002bf517195998950ed6d8385ee89" target="_top" xlink:title="Transmit pixel data to the LED strip.">
<polygon fill="white" stroke="#666666" points="364,-362.5 238,-362.5 238,-343.5 364,-343.5 364,-362.5"/>
<text text-anchor="middle" x="301" y="-350.5" font-family="Helvetica,sans-Serif" font-size="10.00">Ws2812Handler::Show</text>
</a>
</g>
</g>
<!-- Node31&#45;&gt;Node38 -->
<g id="edge37_Node000031_Node000038" class="edge">
<title>Node31&#45;&gt;Node38</title>
<g id="a_edge37_Node000031_Node000038"><a xlink:title=" ">
<path fill="none" stroke="#63b8ff" d="M501.73,-280.88C475.96,-297.97 437.1,-321.46 400,-335 388.63,-339.15 376.14,-342.38 364.01,-344.88"/>
<polygon fill="#63b8ff" stroke="#63b8ff" points="503.93,-283.61 510.27,-275.13 500.02,-277.81 503.93,-283.61"/>
</a>
</g>
</g>
<!-- Node39 -->
<g id="Node000039" class="node">
<title>Node39</title>
<g id="a_Node000039"><a xlink:href="classWs2812Handler.html#a60ee1479e87c2ddb672a03a053be0c59" target="_top" xlink:title="Advance animation by one step.">
<polygon fill="white" stroke="#666666" points="362,-325.5 240,-325.5 240,-306.5 362,-306.5 362,-325.5"/>
<text text-anchor="middle" x="301" y="-313.5" font-family="Helvetica,sans-Serif" font-size="10.00">Ws2812Handler::Step</text>
</a>
</g>
</g>
<!-- Node31&#45;&gt;Node39 -->
<g id="edge38_Node000031_Node000039" class="edge">
<title>Node31&#45;&gt;Node39</title>
<g id="a_edge38_Node000031_Node000039"><a xlink:title=" ">
<path fill="none" stroke="#63b8ff" d="M473.83,-278.01C450.98,-284.8 424.38,-292.25 400,-298 386.87,-301.1 372.64,-303.98 359.2,-306.48"/>
<polygon fill="#63b8ff" stroke="#63b8ff" points="475.14,-281.28 483.71,-275.05 473.13,-274.57 475.14,-281.28"/>
</a>
</g>
</g>
<!-- Node40 -->
<g id="Node000040" class="node">
<title>Node40</title>
<g id="a_Node000040"><a xlink:href="classWs2812Handler.html#af74a184df9277227e6d2b593d13c4501" target="_top" xlink:title="Advance animation by time delta (call periodically).">
<polygon fill="white" stroke="#666666" points="361,-288.5 241,-288.5 241,-269.5 361,-269.5 361,-288.5"/>
<text text-anchor="middle" x="301" y="-276.5" font-family="Helvetica,sans-Serif" font-size="10.00">Ws2812Handler::Tick</text>
</a>
</g>
</g>
<!-- Node31&#45;&gt;Node40 -->
<g id="edge39_Node000031_Node000040" class="edge">
<title>Node31&#45;&gt;Node40</title>
<g id="a_edge39_Node000031_Node000040"><a xlink:title=" ">
<path fill="none" stroke="#63b8ff" d="M431.57,-268.27C407.58,-270.26 382.71,-272.32 361.25,-274.09"/>
<polygon fill="#63b8ff" stroke="#63b8ff" points="432.11,-271.74 441.78,-267.43 431.53,-264.76 432.11,-271.74"/>
</a>
</g>
</g>
<!-- Node44 -->
<g id="Node000044" class="node">
<title>Node44</title>
<g id="a_Node000044"><a xlink:href="classTmc9660Handler.html#a5a279ae9d4b5a8e0d71cb24577ad88ea" target="_top" xlink:title="Ensure driver is initialized (lazy init entrypoint).">
<polygon fill="#fff0f0" stroke="red" points="626,-127.5 439,-127.5 439,-108.5 626,-108.5 626,-127.5"/>
<text text-anchor="middle" x="532.5" y="-115.5" font-family="Helvetica,sans-Serif" font-size="10.00">Tmc9660Handler::EnsureInitialized</text>
</a>
</g>
</g>
<!-- Node43&#45;&gt;Node44 -->
<g id="edge43_Node000043_Node000044" class="edge">
<title>Node43&#45;&gt;Node44</title>
<g id="a_edge43_Node000043_Node000044"><a xlink:title=" ">
<path fill="none" stroke="#63b8ff" d="M679.59,-216.51C674.57,-214.88 669.66,-213.05 665,-211 615.11,-189.01 564.92,-146.56 543.84,-127.58"/>
<polygon fill="#63b8ff" stroke="#63b8ff" points="678.73,-219.9 689.31,-219.39 680.72,-213.19 678.73,-219.9"/>
</a>
</g>
</g>
<!-- Node45 -->
<g id="Node000045" class="node">
<title>Node45</title>
<g id="a_Node000045"><a xlink:href="classTmc9660Handler.html#a7fe382c4dbf6bf84ed31586e52ec2e6e" target="_top" xlink:title="Get a reference to the ADC wrapper.">
<polygon fill="#fff0f0" stroke="red" points="362.5,-54.5 239.5,-54.5 239.5,-35.5 362.5,-35.5 362.5,-54.5"/>
<text text-anchor="middle" x="301" y="-42.5" font-family="Helvetica,sans-Serif" font-size="10.00">Tmc9660Handler::adc</text>
</a>
</g>
</g>
<!-- Node44&#45;&gt;Node45 -->
<g id="edge44_Node000044_Node000045" class="edge">
<title>Node44&#45;&gt;Node45</title>
<g id="a_edge44_Node000044_Node000045"><a xlink:title=" ">
<path fill="none" stroke="#63b8ff" d="M450.2,-105.27C445.29,-103.45 440.51,-101.37 436,-99 416.25,-88.62 419.78,-74.33 400,-64 388.56,-58.02 375.47,-53.91 362.67,-51.09"/>
<polygon fill="#63b8ff" stroke="#63b8ff" points="449.2,-108.62 459.79,-108.45 451.41,-101.98 449.2,-108.62"/>
</a>
</g>
</g>
<!-- Node51 -->
<g id="Node000051" class="node">
<title>Node51</title>
<g id="a_Node000051"><a xlink:href="classTmc9660Handler.html#af55fa5277da0e3d5f6c7200a4cfdbd10" target="_top" xlink:title="De&#45;assert the DRV_EN control pin (disable the TMC9660 power stage hardware).">
<polygon fill="white" stroke="#666666" points="387.5,-103 214.5,-103 214.5,-73 387.5,-73 387.5,-103"/>
<text text-anchor="start" x="222.5" y="-91" font-family="Helvetica,sans-Serif" font-size="10.00">Tmc9660Handler::DisableDriver</text>
<text text-anchor="middle" x="301" y="-80" font-family="Helvetica,sans-Serif" font-size="10.00">Output</text>
</a>
</g>
</g>
<!-- Node44&#45;&gt;Node51 -->
<g id="edge45_Node000044_Node000051" class="edge">
<title>Node44&#45;&gt;Node51</title>
<g id="a_edge45_Node000044_Node000051"><a xlink:title=" ">
<path fill="none" stroke="#63b8ff" d="M448.64,-107.17C428.78,-104.57 407.54,-101.8 387.57,-99.19"/>
<polygon fill="#63b8ff" stroke="#63b8ff" points="448.2,-110.64 458.57,-108.47 449.11,-103.7 448.2,-110.64"/>
</a>
</g>
</g>
<!-- Node111 -->
<g id="Node000111" class="node">
<title>Node111</title>
<g id="a_Node000111"><a xlink:href="classTmc5160Handler.html#a6d4fce2433e03bb11b05a4278ef66fd0" target="_top" xlink:title=" ">
<polygon fill="#fff0f0" stroke="red" points="626,-90 439,-90 439,-60 626,-60 626,-90"/>
<text text-anchor="start" x="447" y="-78" font-family="Helvetica,sans-Serif" font-size="10.00">Tmc5160Handler::EnsureInitialized</text>
<text text-anchor="middle" x="532.5" y="-67" font-family="Helvetica,sans-Serif" font-size="10.00">Locked</text>
</a>
</g>
</g>
<!-- Node110&#45;&gt;Node111 -->
<g id="edge49_Node000110_Node000111" class="edge">
<title>Node110&#45;&gt;Node111</title>
<g id="a_edge49_Node000110_Node000111"><a xlink:title=" ">
<path fill="none" stroke="#63b8ff" d="M671.79,-95.03C657.04,-92.9 641.43,-90.63 626.21,-88.43"/>
<polygon fill="#63b8ff" stroke="#63b8ff" points="671.44,-98.52 681.84,-96.49 672.44,-91.59 671.44,-98.52"/>
</a>
</g>
</g>
</g>
</svg>
