<?xml version="1.0" encoding="UTF-8" standalone="no"?>
<!DOCTYPE svg PUBLIC "-//W3C//DTD SVG 1.1//EN"
 "http://www.w3.org/Graphics/SVG/1.1/DTD/svg11.dtd">
<!-- Generated by graphviz version 2.43.0 (0)
 -->
<!-- Title: Tmc9660Handler::driverViaUart Pages: 1 -->
<svg width="1124pt" height="147pt"
 viewBox="0.00 0.00 1124.00 147.00" xmlns="http://www.w3.org/2000/svg" xmlns:xlink="http://www.w3.org/1999/xlink">
<g id="graph0" class="graph" transform="scale(1 1) rotate(0) translate(4 143)">
<title>Tmc9660Handler::driverViaUart</title>
<!-- Node1 -->
<g id="Node000001" class="node">
<title>Node1</title>
<g id="a_Node000001"><a xlink:title="Get the TMC9660 driver instance connected via UART (nullptr if using SPI).">
<polygon fill="#999999" stroke="#666666" points="171,-19 0,-19 0,0 171,0 171,-19"/>
<text text-anchor="middle" x="85.5" y="-7" font-family="Helvetica,sans-Serif" font-size="10.00">Tmc9660Handler::driverViaUart</text>
</a>
</g>
</g>
<!-- Node2 -->
<g id="Node000002" class="node">
<title>Node2</title>
<g id="a_Node000002"><a xlink:href="classTmc9660Handler.html#a5a279ae9d4b5a8e0d71cb24577ad88ea" target="_top" xlink:title="Ensure driver is initialized (lazy init entrypoint).">
<polygon fill="white" stroke="#666666" points="394,-19 207,-19 207,0 394,0 394,-19"/>
<text text-anchor="middle" x="300.5" y="-7" font-family="Helvetica,sans-Serif" font-size="10.00">Tmc9660Handler::EnsureInitialized</text>
</a>
</g>
</g>
<!-- Node1&#45;&gt;Node2 -->
<g id="edge1_Node000001_Node000002" class="edge">
<title>Node1&#45;&gt;Node2</title>
<g id="a_edge1_Node000001_Node000002"><a xlink:title=" ">
<path fill="none" stroke="#63b8ff" d="M171.3,-9.5C179.72,-9.5 188.33,-9.5 196.91,-9.5"/>
<polygon fill="#63b8ff" stroke="#63b8ff" points="196.95,-13 206.95,-9.5 196.95,-6 196.95,-13"/>
</a>
</g>
</g>
<!-- Node3 -->
<g id="Node000003" class="node">
<title>Node3</title>
<g id="a_Node000003"><a xlink:href="classTmc9660Handler.html#a7c1d8073576d678b09dac24c9eb12845" target="_top" xlink:title="Ensure initialized while handler_mutex_ is already held.">
<polygon fill="white" stroke="#666666" points="617,-85.5 430,-85.5 430,-55.5 617,-55.5 617,-85.5"/>
<text text-anchor="start" x="438" y="-73.5" font-family="Helvetica,sans-Serif" font-size="10.00">Tmc9660Handler::EnsureInitialized</text>
<text text-anchor="middle" x="523.5" y="-62.5" font-family="Helvetica,sans-Serif" font-size="10.00">Locked</text>
</a>
</g>
</g>
<!-- Node2&#45;&gt;Node3 -->
<g id="edge2_Node000002_Node000003" class="edge">
<title>Node2&#45;&gt;Node3</title>
<g id="a_edge2_Node000002_Node000003"><a xlink:title=" ">
<path fill="none" stroke="#63b8ff" d="M335.3,-19.06C361.2,-26.36 397.83,-36.65 430,-45.5 438.51,-47.84 447.46,-50.29 456.31,-52.69"/>
<polygon fill="#63b8ff" stroke="#63b8ff" points="455.66,-56.14 466.22,-55.38 457.49,-49.38 455.66,-56.14"/>
</a>
</g>
</g>
<!-- Node11 -->
<g id="Node000011" class="node">
<title>Node11</title>
<g id="a_Node000011"><a xlink:href="classTmc9660Handler.html#a393382194d0602e7aa02da6a8fd7a20a" target="_top" xlink:title="Get a reference to the Temperature wrapper.">
<polygon fill="white" stroke="#666666" points="607,-19 440,-19 440,0 607,0 607,-19"/>
<text text-anchor="middle" x="523.5" y="-7" font-family="Helvetica,sans-Serif" font-size="10.00">Tmc9660Handler::temperature</text>
</a>
</g>
</g>
<!-- Node2&#45;&gt;Node11 -->
<g id="edge12_Node000002_Node000011" class="edge">
<title>Node2&#45;&gt;Node11</title>
<g id="a_edge12_Node000002_Node000011"><a xlink:title=" ">
<path fill="none" stroke="#63b8ff" d="M394.26,-2.83C405.96,-2.72 417.92,-2.72 429.62,-2.83"/>
<polygon fill="#63b8ff" stroke="#63b8ff" points="429.78,-6.33 439.81,-2.94 429.86,0.67 429.78,-6.33"/>
</a>
</g>
</g>
<!-- Node4 -->
<g id="Node000004" class="node">
<title>Node4</title>
<g id="a_Node000004"><a xlink:href="classTmc9660Handler.html#adc564847f8ae26c47412aaee0758991c" target="_top" xlink:title="Initialize the TMC9660 device.">
<polygon fill="white" stroke="#666666" points="801,-102 653,-102 653,-83 801,-83 801,-102"/>
<text text-anchor="middle" x="727" y="-90" font-family="Helvetica,sans-Serif" font-size="10.00">Tmc9660Handler::Initialize</text>
</a>
</g>
</g>
<!-- Node3&#45;&gt;Node4 -->
<g id="edge3_Node000003_Node000004" class="edge">
<title>Node3&#45;&gt;Node4</title>
<g id="a_edge3_Node000003_Node000004"><a xlink:title=" ">
<path fill="none" stroke="#63b8ff" d="M617.29,-80.63C625.73,-81.55 634.25,-82.48 642.61,-83.4"/>
<polygon fill="#63b8ff" stroke="#63b8ff" points="642.38,-86.89 652.7,-84.5 643.14,-79.93 642.38,-86.89"/>
</a>
</g>
</g>
<!-- Node10 -->
<g id="Node000010" class="node">
<title>Node10</title>
<g id="a_Node000010"><a xlink:href="classTmc9660Handler.html#a13db97d201a287d8aa60384e04070b9f" target="_top" xlink:title="Check if the TMC9660 driver has been initialized and is ready.">
<polygon fill="white" stroke="#666666" points="799,-64.5 655,-64.5 655,-34.5 799,-34.5 799,-64.5"/>
<text text-anchor="start" x="663" y="-52.5" font-family="Helvetica,sans-Serif" font-size="10.00">Tmc9660Handler::IsDriver</text>
<text text-anchor="middle" x="727" y="-41.5" font-family="Helvetica,sans-Serif" font-size="10.00">Ready</text>
</a>
</g>
</g>
<!-- Node3&#45;&gt;Node10 -->
<g id="edge11_Node000003_Node000010" class="edge">
<title>Node3&#45;&gt;Node10</title>
<g id="a_edge11_Node000003_Node000010"><a xlink:title=" ">
<path fill="none" stroke="#63b8ff" d="M617.29,-60.83C626.44,-59.88 635.69,-58.91 644.71,-57.97"/>
<polygon fill="#63b8ff" stroke="#63b8ff" points="645.21,-61.44 654.8,-56.92 644.49,-54.48 645.21,-61.44"/>
</a>
</g>
</g>
<!-- Node5 -->
<g id="Node000005" class="node">
<title>Node5</title>
<g id="a_Node000005"><a xlink:href="classLogger.html#adce17848a5844e053bfd314863dc1404" target="_top" xlink:title="Log error message.">
<polygon fill="white" stroke="#666666" points="933.5,-102 854.5,-102 854.5,-83 933.5,-83 933.5,-102"/>
<text text-anchor="middle" x="894" y="-90" font-family="Helvetica,sans-Serif" font-size="10.00">Logger::Error</text>
</a>
</g>
</g>
<!-- Node4&#45;&gt;Node5 -->
<g id="edge4_Node000004_Node000005" class="edge">
<title>Node4&#45;&gt;Node5</title>
<g id="a_edge4_Node000004_Node000005"><a xlink:title=" ">
<path fill="none" stroke="#63b8ff" d="M801.33,-92.5C815.73,-92.5 830.5,-92.5 843.87,-92.5"/>
<polygon fill="#63b8ff" stroke="#63b8ff" points="844.26,-96 854.26,-92.5 844.26,-89 844.26,-96"/>
</a>
</g>
</g>
<!-- Node8 -->
<g id="Node000008" class="node">
<title>Node8</title>
<g id="a_Node000008"><a xlink:href="classLogger.html#a5789d11f8f1356e2192c0023a089cbc4" target="_top" xlink:title="Get singleton instance.">
<polygon fill="white" stroke="#666666" points="951,-65 837,-65 837,-46 951,-46 951,-65"/>
<text text-anchor="middle" x="894" y="-53" font-family="Helvetica,sans-Serif" font-size="10.00">Logger::GetInstance</text>
</a>
</g>
</g>
<!-- Node4&#45;&gt;Node8 -->
<g id="edge7_Node000004_Node000008" class="edge">
<title>Node4&#45;&gt;Node8</title>
<g id="a_edge7_Node000004_Node000008"><a xlink:title=" ">
<path fill="none" stroke="#63b8ff" d="M770.49,-82.97C791.87,-78.18 817.97,-72.32 840.58,-67.25"/>
<polygon fill="#63b8ff" stroke="#63b8ff" points="841.37,-70.66 850.37,-65.06 839.84,-63.83 841.37,-70.66"/>
</a>
</g>
</g>
<!-- Node9 -->
<g id="Node000009" class="node">
<title>Node9</title>
<g id="a_Node000009"><a xlink:href="classLogger.html#a4681229c521795685fc14f6b55c82300" target="_top" xlink:title="Log info message.">
<polygon fill="white" stroke="#666666" points="931,-139 857,-139 857,-120 931,-120 931,-139"/>
<text text-anchor="middle" x="894" y="-127" font-family="Helvetica,sans-Serif" font-size="10.00">Logger::Info</text>
</a>
</g>
</g>
<!-- Node4&#45;&gt;Node9 -->
<g id="edge8_Node000004_Node000009" class="edge">
<title>Node4&#45;&gt;Node9</title>
<g id="a_edge8_Node000004_Node000009"><a xlink:title=" ">
<path fill="none" stroke="#63b8ff" d="M770.49,-102.03C793.89,-107.27 822.94,-113.79 846.89,-119.16"/>
<polygon fill="#63b8ff" stroke="#63b8ff" points="846.28,-122.61 856.8,-121.38 847.81,-115.78 846.28,-122.61"/>
</a>
</g>
</g>
<!-- Node6 -->
<g id="Node000006" class="node">
<title>Node6</title>
<g id="a_Node000006"><a xlink:href="classLogger.html#af9e84e0ff6bd538e4f9ed8dcebc3e2f0" target="_top" xlink:title="Check if log level is enabled for tag.">
<polygon fill="white" stroke="#666666" points="1116,-139 987,-139 987,-120 1116,-120 1116,-139"/>
<text text-anchor="middle" x="1051.5" y="-127" font-family="Helvetica,sans-Serif" font-size="10.00">Logger::IsLevelEnabled</text>
</a>
</g>
</g>
<!-- Node5&#45;&gt;Node6 -->
<g id="edge5_Node000005_Node000006" class="edge">
<title>Node5&#45;&gt;Node6</title>
<g id="a_edge5_Node000005_Node000006"><a xlink:title=" ">
<path fill="none" stroke="#63b8ff" d="M933.84,-101.74C954.03,-106.55 978.94,-112.47 1000.55,-117.61"/>
<polygon fill="#63b8ff" stroke="#63b8ff" points="1000,-121.08 1010.53,-119.99 1001.62,-114.27 1000,-121.08"/>
</a>
</g>
</g>
<!-- Node7 -->
<g id="Node000007" class="node">
<title>Node7</title>
<g id="a_Node000007"><a xlink:href="classLogger.html#a6adb205db597526fb91ad20067400394" target="_top" xlink:title="Internal logging method.">
<polygon fill="white" stroke="#666666" points="1106.5,-102 996.5,-102 996.5,-83 1106.5,-83 1106.5,-102"/>
<text text-anchor="middle" x="1051.5" y="-90" font-family="Helvetica,sans-Serif" font-size="10.00">Logger::LogInternal</text>
</a>
</g>
</g>
<!-- Node5&#45;&gt;Node7 -->
<g id="edge6_Node000005_Node000007" class="edge">
<title>Node5&#45;&gt;Node7</title>
<g id="a_edge6_Node000005_Node000007"><a xlink:title=" ">
<path fill="none" stroke="#63b8ff" d="M933.84,-92.5C949.63,-92.5 968.31,-92.5 986.03,-92.5"/>
<polygon fill="#63b8ff" stroke="#63b8ff" points="986.33,-96 996.33,-92.5 986.33,-89 986.33,-96"/>
</a>
</g>
</g>
<!-- Node9&#45;&gt;Node6 -->
<g id="edge9_Node000009_Node000006" class="edge">
<title>Node9&#45;&gt;Node6</title>
<g id="a_edge9_Node000009_Node000006"><a xlink:title=" ">
<path fill="none" stroke="#63b8ff" d="M931.07,-129.5C944.68,-129.5 960.72,-129.5 976.55,-129.5"/>
<polygon fill="#63b8ff" stroke="#63b8ff" points="976.89,-133 986.89,-129.5 976.89,-126 976.89,-133"/>
</a>
</g>
</g>
<!-- Node9&#45;&gt;Node7 -->
<g id="edge10_Node000009_Node000007" class="edge">
<title>Node9&#45;&gt;Node7</title>
<g id="a_edge10_Node000009_Node000007"><a xlink:title=" ">
<path fill="none" stroke="#63b8ff" d="M931.07,-120.92C951.78,-115.99 978.09,-109.73 1000.74,-104.34"/>
<polygon fill="#63b8ff" stroke="#63b8ff" points="1001.61,-107.73 1010.53,-102.01 999.99,-100.92 1001.61,-107.73"/>
</a>
</g>
</g>
<!-- Node11&#45;&gt;Node2 -->
<g id="edge13_Node000011_Node000002" class="edge">
<title>Node11&#45;&gt;Node2</title>
<g id="a_edge13_Node000011_Node000002"><a xlink:title=" ">
<path fill="none" stroke="#63b8ff" d="M439.81,-16.06C428.32,-16.22 416.4,-16.28 404.6,-16.24"/>
<polygon fill="#63b8ff" stroke="#63b8ff" points="404.28,-12.73 394.26,-16.17 404.24,-19.73 404.28,-12.73"/>
</a>
</g>
</g>
<!-- Node11&#45;&gt;Node11 -->
<g id="edge14_Node000011_Node000011" class="edge">
<title>Node11&#45;&gt;Node11</title>
<g id="a_edge14_Node000011_Node000011"><a xlink:title=" ">
<path fill="none" stroke="#63b8ff" d="M492.37,-19.08C477.22,-27.73 487.6,-37 523.5,-37 548.74,-37 561.37,-32.42 561.37,-26.69"/>
<polygon fill="#63b8ff" stroke="#63b8ff" points="563.89,-24.25 554.63,-19.08 558.65,-28.89 563.89,-24.25"/>
</a>
</g>
</g>
</g>
</svg>
