<?xml version="1.0" encoding="UTF-8" standalone="no"?>
<!DOCTYPE svg PUBLIC "-//W3C//DTD SVG 1.1//EN"
 "http://www.w3.org/Graphics/SVG/1.1/DTD/svg11.dtd">
<!-- Generated by graphviz version 2.43.0 (0)
 -->
<!-- Title: Pcal95555GpioPin::SupportsInterrupts Pages: 1 -->
<svg width="369pt" height="76pt"
 viewBox="0.00 0.00 369.00 75.50" xmlns="http://www.w3.org/2000/svg" xmlns:xlink="http://www.w3.org/1999/xlink">
<g id="graph0" class="graph" transform="scale(1 1) rotate(0) translate(4 71.5)">
<title>Pcal95555GpioPin::SupportsInterrupts</title>
<!-- Node1 -->
<g id="Node000001" class="node">
<title>Node1</title>
<g id="a_Node000001"><a xlink:title="Check if this pin supports interrupt configuration.">
<polygon fill="#999999" stroke="#666666" points="153,-51 0,-51 0,-21 153,-21 153,-51"/>
<text text-anchor="start" x="8" y="-39" font-family="Helvetica,sans-Serif" font-size="10.00">Pcal95555GpioPin::Supports</text>
<text text-anchor="middle" x="76.5" y="-28" font-family="Helvetica,sans-Serif" font-size="10.00">Interrupts</text>
</a>
</g>
</g>
<!-- Node2 -->
<g id="Node000002" class="node">
<title>Node2</title>
<g id="a_Node000002"><a xlink:href="classPcal95555Handler.html#a997583346dffe6c95e5f8fcfc127c37b" target="_top" xlink:title="Check if the detected chip supports Agile I/O features.">
<polygon fill="white" stroke="#666666" points="357.5,-67.5 192.5,-67.5 192.5,-48.5 357.5,-48.5 357.5,-67.5"/>
<text text-anchor="middle" x="275" y="-55.5" font-family="Helvetica,sans-Serif" font-size="10.00">Pcal95555Handler::HasAgileIO</text>
</a>
</g>
</g>
<!-- Node1&#45;&gt;Node2 -->
<g id="edge1_Node000001_Node000002" class="edge">
<title>Node1&#45;&gt;Node2</title>
<g id="a_edge1_Node000001_Node000002"><a xlink:title=" ">
<path fill="none" stroke="#63b8ff" d="M153.19,-44.47C162.74,-45.54 172.59,-46.65 182.35,-47.74"/>
<polygon fill="#63b8ff" stroke="#63b8ff" points="182.15,-51.24 192.48,-48.87 182.93,-44.28 182.15,-51.24"/>
</a>
</g>
</g>
<!-- Node3 -->
<g id="Node000003" class="node">
<title>Node3</title>
<g id="a_Node000003"><a xlink:href="classPcal95555Handler.html#a582a8375e50b2df78dfd91aa132955af" target="_top" xlink:title="Check if hardware interrupt support is available.">
<polygon fill="white" stroke="#666666" points="361,-30 189,-30 189,0 361,0 361,-30"/>
<text text-anchor="start" x="197" y="-18" font-family="Helvetica,sans-Serif" font-size="10.00">Pcal95555Handler::HasInterrupt</text>
<text text-anchor="middle" x="275" y="-7" font-family="Helvetica,sans-Serif" font-size="10.00">Support</text>
</a>
</g>
</g>
<!-- Node1&#45;&gt;Node3 -->
<g id="edge2_Node000001_Node000003" class="edge">
<title>Node1&#45;&gt;Node3</title>
<g id="a_edge2_Node000001_Node000003"><a xlink:title=" ">
<path fill="none" stroke="#63b8ff" d="M153.19,-27.91C161.58,-27.01 170.21,-26.09 178.8,-25.17"/>
<polygon fill="#63b8ff" stroke="#63b8ff" points="179.29,-28.64 188.86,-24.1 178.54,-21.68 179.29,-28.64"/>
</a>
</g>
</g>
</g>
</svg>
