<?xml version="1.0" encoding="UTF-8" standalone="no"?>
<!DOCTYPE svg PUBLIC "-//W3C//DTD SVG 1.1//EN"
 "http://www.w3.org/Graphics/SVG/1.1/DTD/svg11.dtd">
<!-- Generated by graphviz version 2.43.0 (0)
 -->
<!-- Title: Tmc9660Handler::DumpDiagnostics Pages: 1 -->
<svg width="838pt" height="380pt"
 viewBox="0.00 0.00 838.00 379.50" xmlns="http://www.w3.org/2000/svg" xmlns:xlink="http://www.w3.org/1999/xlink">
<g id="graph0" class="graph" transform="scale(1 1) rotate(0) translate(4 375.5)">
<title>Tmc9660Handler::DumpDiagnostics</title>
<!-- Node1 -->
<g id="Node000001" class="node">
<title>Node1</title>
<g id="a_Node000001"><a xlink:title="Dump comprehensive diagnostics to the system log.">
<polygon fill="#999999" stroke="#666666" points="192,-187 0,-187 0,-168 192,-168 192,-187"/>
<text text-anchor="middle" x="96" y="-175" font-family="Helvetica,sans-Serif" font-size="10.00">Tmc9660Handler::DumpDiagnostics</text>
</a>
</g>
</g>
<!-- Node2 -->
<g id="Node000002" class="node">
<title>Node2</title>
<g id="a_Node000002"><a xlink:href="classTmc9660Handler.html#ac7549efc59aeedcc3c29e39f13a529fa" target="_top" xlink:title="Read the TMC9660 internal chip temperature.">
<polygon fill="white" stroke="#666666" points="434,-316 228,-316 228,-297 434,-297 434,-316"/>
<text text-anchor="middle" x="331" y="-304" font-family="Helvetica,sans-Serif" font-size="10.00">Tmc9660Handler::GetChipTemperature</text>
</a>
</g>
</g>
<!-- Node1&#45;&gt;Node2 -->
<g id="edge1_Node000001_Node000002" class="edge">
<title>Node1&#45;&gt;Node2</title>
<g id="a_edge1_Node000001_Node000002"><a xlink:title=" ">
<path fill="none" stroke="#63b8ff" d="M107.76,-187.28C129.18,-206.31 179.3,-248.6 228,-273.5 244.48,-281.93 263.56,-288.79 280.72,-294.03"/>
<polygon fill="#63b8ff" stroke="#63b8ff" points="279.99,-297.46 290.57,-296.93 281.97,-290.75 279.99,-297.46"/>
</a>
</g>
</g>
<!-- Node3 -->
<g id="Node000003" class="node">
<title>Node3</title>
<g id="a_Node000003"><a xlink:href="classTmc9660Handler.html#a13db97d201a287d8aa60384e04070b9f" target="_top" xlink:title="Check if the TMC9660 driver has been initialized and is ready.">
<polygon fill="white" stroke="#666666" points="620.5,-371.5 476.5,-371.5 476.5,-341.5 620.5,-341.5 620.5,-371.5"/>
<text text-anchor="start" x="484.5" y="-359.5" font-family="Helvetica,sans-Serif" font-size="10.00">Tmc9660Handler::IsDriver</text>
<text text-anchor="middle" x="548.5" y="-348.5" font-family="Helvetica,sans-Serif" font-size="10.00">Ready</text>
</a>
</g>
</g>
<!-- Node1&#45;&gt;Node3 -->
<g id="edge16_Node000001_Node000003" class="edge">
<title>Node1&#45;&gt;Node3</title>
<g id="a_edge16_Node000001_Node000003"><a xlink:title=" ">
<path fill="none" stroke="#63b8ff" d="M102.16,-187.34C117.23,-214.89 164.11,-292.93 228,-325.5 302.26,-363.36 398.81,-367.56 466.26,-364.51"/>
<polygon fill="#63b8ff" stroke="#63b8ff" points="466.6,-368 476.41,-363.99 466.24,-361.01 466.6,-368"/>
</a>
</g>
</g>
<!-- Node4 -->
<g id="Node000004" class="node">
<title>Node4</title>
<g id="a_Node000004"><a xlink:href="classTmc9660Handler.html#a393382194d0602e7aa02da6a8fd7a20a" target="_top" xlink:title="Get a reference to the Temperature wrapper.">
<polygon fill="white" stroke="#666666" points="830,-266 663,-266 663,-247 830,-247 830,-266"/>
<text text-anchor="middle" x="746.5" y="-254" font-family="Helvetica,sans-Serif" font-size="10.00">Tmc9660Handler::temperature</text>
</a>
</g>
</g>
<!-- Node1&#45;&gt;Node4 -->
<g id="edge17_Node000001_Node000004" class="edge">
<title>Node1&#45;&gt;Node4</title>
<g id="a_edge17_Node000001_Node000004"><a xlink:title=" ">
<path fill="none" stroke="#63b8ff" d="M175.22,-187.03C296.75,-201.83 530.11,-230.26 657.4,-245.77"/>
<polygon fill="#63b8ff" stroke="#63b8ff" points="657.15,-249.26 667.5,-247 658,-242.31 657.15,-249.26"/>
</a>
</g>
</g>
<!-- Node6 -->
<g id="Node000006" class="node">
<title>Node6</title>
<g id="a_Node000006"><a xlink:href="classTmc9660Handler.html#abf940d362343d814f6233e5d7c5deec6" target="_top" xlink:title="Read the TMC9660 general error flags register.">
<polygon fill="white" stroke="#666666" points="404,-171.5 258,-171.5 258,-141.5 404,-141.5 404,-171.5"/>
<text text-anchor="start" x="266" y="-159.5" font-family="Helvetica,sans-Serif" font-size="10.00">Tmc9660Handler::GetError</text>
<text text-anchor="middle" x="331" y="-148.5" font-family="Helvetica,sans-Serif" font-size="10.00">Flags</text>
</a>
</g>
</g>
<!-- Node1&#45;&gt;Node6 -->
<g id="edge6_Node000001_Node000006" class="edge">
<title>Node1&#45;&gt;Node6</title>
<g id="a_edge6_Node000001_Node000006"><a xlink:title=" ">
<path fill="none" stroke="#63b8ff" d="M192.11,-168.93C210.49,-167.27 229.62,-165.55 247.56,-163.93"/>
<polygon fill="#63b8ff" stroke="#63b8ff" points="248.04,-167.4 257.69,-163.02 247.41,-160.43 248.04,-167.4"/>
</a>
</g>
</g>
<!-- Node7 -->
<g id="Node000007" class="node">
<title>Node7</title>
<g id="a_Node000007"><a xlink:href="classLogger.html#a5789d11f8f1356e2192c0023a089cbc4" target="_top" xlink:title="Get singleton instance.">
<polygon fill="white" stroke="#666666" points="388,-123 274,-123 274,-104 388,-104 388,-123"/>
<text text-anchor="middle" x="331" y="-111" font-family="Helvetica,sans-Serif" font-size="10.00">Logger::GetInstance</text>
</a>
</g>
</g>
<!-- Node1&#45;&gt;Node7 -->
<g id="edge7_Node000001_Node000007" class="edge">
<title>Node1&#45;&gt;Node7</title>
<g id="a_edge7_Node000001_Node000007"><a xlink:title=" ">
<path fill="none" stroke="#63b8ff" d="M121.3,-167.95C147.35,-158 190.1,-142.48 228,-132.5 239.5,-129.47 251.85,-126.74 263.85,-124.36"/>
<polygon fill="#63b8ff" stroke="#63b8ff" points="264.66,-127.77 273.82,-122.44 263.34,-120.89 264.66,-127.77"/>
</a>
</g>
</g>
<!-- Node8 -->
<g id="Node000008" class="node">
<title>Node8</title>
<g id="a_Node000008"><a xlink:href="classTmc9660Handler.html#ac567ae5400150e93dc770baac13355e2" target="_top" xlink:title="Read the TMC9660 general status flags register.">
<polygon fill="white" stroke="#666666" points="408,-85.5 254,-85.5 254,-55.5 408,-55.5 408,-85.5"/>
<text text-anchor="start" x="262" y="-73.5" font-family="Helvetica,sans-Serif" font-size="10.00">Tmc9660Handler::GetStatus</text>
<text text-anchor="middle" x="331" y="-62.5" font-family="Helvetica,sans-Serif" font-size="10.00">Flags</text>
</a>
</g>
</g>
<!-- Node1&#45;&gt;Node8 -->
<g id="edge8_Node000001_Node000008" class="edge">
<title>Node1&#45;&gt;Node8</title>
<g id="a_edge8_Node000001_Node000008"><a xlink:title=" ">
<path fill="none" stroke="#63b8ff" d="M109.23,-167.75C131.52,-150.44 180.84,-114.32 228,-94.5 233.14,-92.34 238.5,-90.36 243.97,-88.53"/>
<polygon fill="#63b8ff" stroke="#63b8ff" points="245.4,-91.75 253.9,-85.42 243.31,-85.07 245.4,-91.75"/>
</a>
</g>
</g>
<!-- Node9 -->
<g id="Node000009" class="node">
<title>Node9</title>
<g id="a_Node000009"><a xlink:href="classTmc9660Handler.html#a3d6437320844ff3ffe77eada12ad7ea7" target="_top" xlink:title="Read the motor supply voltage.">
<polygon fill="white" stroke="#666666" points="409,-264.5 253,-264.5 253,-234.5 409,-234.5 409,-264.5"/>
<text text-anchor="start" x="261" y="-252.5" font-family="Helvetica,sans-Serif" font-size="10.00">Tmc9660Handler::GetSupply</text>
<text text-anchor="middle" x="331" y="-241.5" font-family="Helvetica,sans-Serif" font-size="10.00">Voltage</text>
</a>
</g>
</g>
<!-- Node1&#45;&gt;Node9 -->
<g id="edge9_Node000001_Node000009" class="edge">
<title>Node1&#45;&gt;Node9</title>
<g id="a_edge9_Node000001_Node000009"><a xlink:title=" ">
<path fill="none" stroke="#63b8ff" d="M127.94,-187.06C164.38,-198.32 225.72,-217.28 271.28,-231.35"/>
<polygon fill="#63b8ff" stroke="#63b8ff" points="270.45,-234.76 281.04,-234.37 272.51,-228.07 270.45,-234.76"/>
</a>
</g>
</g>
<!-- Node10 -->
<g id="Node000010" class="node">
<title>Node10</title>
<g id="a_Node000010"><a xlink:href="classLogger.html#a1c0c947d87884bca0395fd38d19d1102" target="_top" xlink:title="Log info message.">
<polygon fill="white" stroke="#666666" points="368,-37 294,-37 294,-18 368,-18 368,-37"/>
<text text-anchor="middle" x="331" y="-25" font-family="Helvetica,sans-Serif" font-size="10.00">Logger::Info</text>
</a>
</g>
</g>
<!-- Node1&#45;&gt;Node10 -->
<g id="edge13_Node000001_Node000010" class="edge">
<title>Node1&#45;&gt;Node10</title>
<g id="a_edge13_Node000001_Node000010"><a xlink:title=" ">
<path fill="none" stroke="#63b8ff" d="M103.33,-167.99C120.28,-143.39 169.38,-77.38 228,-46.5 245,-37.55 265.54,-32.76 283.72,-30.21"/>
<polygon fill="#63b8ff" stroke="#63b8ff" points="284.31,-33.67 293.82,-28.99 283.47,-26.72 284.31,-33.67"/>
</a>
</g>
</g>
<!-- Node2&#45;&gt;Node3 -->
<g id="edge2_Node000002_Node000003" class="edge">
<title>Node2&#45;&gt;Node3</title>
<g id="a_edge2_Node000002_Node000003"><a xlink:title=" ">
<path fill="none" stroke="#63b8ff" d="M373.04,-316.02C401.16,-322.55 439.28,-331.39 472.71,-339.15"/>
<polygon fill="#63b8ff" stroke="#63b8ff" points="471.92,-342.56 482.46,-341.41 473.51,-335.74 471.92,-342.56"/>
</a>
</g>
</g>
<!-- Node2&#45;&gt;Node4 -->
<g id="edge3_Node000002_Node000004" class="edge">
<title>Node2&#45;&gt;Node4</title>
<g id="a_edge3_Node000002_Node000004"><a xlink:title=" ">
<path fill="none" stroke="#63b8ff" d="M434.1,-309.08C491.24,-308.85 563.53,-305.75 627,-294.5 656.6,-289.25 689.02,-278.49 712.46,-269.75"/>
<polygon fill="#63b8ff" stroke="#63b8ff" points="713.82,-272.98 721.92,-266.15 711.33,-266.43 713.82,-272.98"/>
</a>
</g>
</g>
<!-- Node5 -->
<g id="Node000005" class="node">
<title>Node5</title>
<g id="a_Node000005"><a xlink:href="classTmc9660Handler.html#a4360829b58deda85e9da4b9cebee96f0" target="_top" xlink:title="Execute a function on the underlying typed TMC9660 driver.">
<polygon fill="white" stroke="#666666" points="627,-285 470,-285 470,-266 627,-266 627,-285"/>
<text text-anchor="middle" x="548.5" y="-273" font-family="Helvetica,sans-Serif" font-size="10.00">Tmc9660Handler::visitDriver</text>
</a>
</g>
</g>
<!-- Node2&#45;&gt;Node5 -->
<g id="edge4_Node000002_Node000005" class="edge">
<title>Node2&#45;&gt;Node5</title>
<g id="a_edge4_Node000002_Node000005"><a xlink:title=" ">
<path fill="none" stroke="#63b8ff" d="M398.12,-296.99C421.18,-293.67 447.25,-289.92 471.07,-286.49"/>
<polygon fill="#63b8ff" stroke="#63b8ff" points="471.73,-289.94 481.13,-285.05 470.74,-283.01 471.73,-289.94"/>
</a>
</g>
</g>
<!-- Node5&#45;&gt;Node4 -->
<g id="edge5_Node000005_Node000004" class="edge">
<title>Node5&#45;&gt;Node4</title>
<g id="a_edge5_Node000005_Node000004"><a xlink:title=" ">
<path fill="none" stroke="#63b8ff" d="M627.25,-267.96C635.62,-267.15 644.2,-266.32 652.73,-265.49"/>
<polygon fill="#63b8ff" stroke="#63b8ff" points="653.08,-268.98 662.7,-264.53 652.4,-262.01 653.08,-268.98"/>
</a>
</g>
</g>
<!-- Node9&#45;&gt;Node3 -->
<g id="edge10_Node000009_Node000003" class="edge">
<title>Node9&#45;&gt;Node3</title>
<g id="a_edge10_Node000009_Node000003"><a xlink:title=" ">
<path fill="none" stroke="#63b8ff" d="M376.39,-264.56C394.55,-271.21 415.59,-279.55 434,-288.5 463,-302.6 494.32,-321.68 516.7,-336.04"/>
<polygon fill="#63b8ff" stroke="#63b8ff" points="514.81,-338.99 525.11,-341.49 518.62,-333.11 514.81,-338.99"/>
</a>
</g>
</g>
<!-- Node9&#45;&gt;Node4 -->
<g id="edge11_Node000009_Node000004" class="edge">
<title>Node9&#45;&gt;Node4</title>
<g id="a_edge11_Node000009_Node000004"><a xlink:title=" ">
<path fill="none" stroke="#63b8ff" d="M409.29,-250.81C478.28,-251.98 579.44,-253.69 652.76,-254.93"/>
<polygon fill="#63b8ff" stroke="#63b8ff" points="652.86,-258.43 662.92,-255.1 652.98,-251.43 652.86,-258.43"/>
</a>
</g>
</g>
<!-- Node9&#45;&gt;Node5 -->
<g id="edge12_Node000009_Node000005" class="edge">
<title>Node9&#45;&gt;Node5</title>
<g id="a_edge12_Node000009_Node000005"><a xlink:title=" ">
<path fill="none" stroke="#63b8ff" d="M409.19,-258.81C425.49,-260.78 442.81,-262.87 459.48,-264.88"/>
<polygon fill="#63b8ff" stroke="#63b8ff" points="459.41,-268.4 469.76,-266.12 460.25,-261.45 459.41,-268.4"/>
</a>
</g>
</g>
<!-- Node11 -->
<g id="Node000011" class="node">
<title>Node11</title>
<g id="a_Node000011"><a xlink:href="classLogger.html#a737b981213c02321a5235848334d7191" target="_top" xlink:title="Check if log level is enabled for tag.">
<polygon fill="white" stroke="#666666" points="613,-19 484,-19 484,0 613,0 613,-19"/>
<text text-anchor="middle" x="548.5" y="-7" font-family="Helvetica,sans-Serif" font-size="10.00">Logger::IsLevelEnabled</text>
</a>
</g>
</g>
<!-- Node10&#45;&gt;Node11 -->
<g id="edge14_Node000010_Node000011" class="edge">
<title>Node10&#45;&gt;Node11</title>
<g id="a_edge14_Node000010_Node000011"><a xlink:title=" ">
<path fill="none" stroke="#63b8ff" d="M368.07,-24.49C396.75,-22.09 437.83,-18.66 473.45,-15.68"/>
<polygon fill="#63b8ff" stroke="#63b8ff" points="474.15,-19.14 483.82,-14.82 473.57,-12.16 474.15,-19.14"/>
</a>
</g>
</g>
<!-- Node12 -->
<g id="Node000012" class="node">
<title>Node12</title>
<g id="a_Node000012"><a xlink:href="classLogger.html#aeede6ac18db92a47caede076ef188a13" target="_top" xlink:title="Internal logging method.">
<polygon fill="white" stroke="#666666" points="603.5,-56 493.5,-56 493.5,-37 603.5,-37 603.5,-56"/>
<text text-anchor="middle" x="548.5" y="-44" font-family="Helvetica,sans-Serif" font-size="10.00">Logger::LogInternal</text>
</a>
</g>
</g>
<!-- Node10&#45;&gt;Node12 -->
<g id="edge15_Node000010_Node000012" class="edge">
<title>Node10&#45;&gt;Node12</title>
<g id="a_edge15_Node000010_Node000012"><a xlink:title=" ">
<path fill="none" stroke="#63b8ff" d="M368.07,-30.68C399.28,-33.43 445.19,-37.48 482.75,-40.79"/>
<polygon fill="#63b8ff" stroke="#63b8ff" points="482.83,-44.31 493.1,-41.7 483.45,-37.34 482.83,-44.31"/>
</a>
</g>
</g>
</g>
</svg>
