<?xml version="1.0" encoding="UTF-8" standalone="no"?>
<!DOCTYPE svg PUBLIC "-//W3C//DTD SVG 1.1//EN"
 "http://www.w3.org/Graphics/SVG/1.1/DTD/svg11.dtd">
<!-- Generated by graphviz version 2.43.0 (0)
 -->
<!-- Title: Tmc5160Handler::Initialize Pages: 1 -->
<svg width="814pt" height="175pt"
 viewBox="0.00 0.00 814.00 175.00" xmlns="http://www.w3.org/2000/svg" xmlns:xlink="http://www.w3.org/1999/xlink">
<g id="graph0" class="graph" transform="scale(1 1) rotate(0) translate(4 171)">
<title>Tmc5160Handler::Initialize</title>
<!-- Node1 -->
<g id="Node000001" class="node">
<title>Node1</title>
<g id="a_Node000001"><a xlink:title="Initialize the TMC5160 driver with full configuration.">
<polygon fill="#999999" stroke="#666666" points="806,-74 658,-74 658,-55 806,-55 806,-74"/>
<text text-anchor="middle" x="732" y="-62" font-family="Helvetica,sans-Serif" font-size="10.00">Tmc5160Handler::Initialize</text>
</a>
</g>
</g>
<!-- Node2 -->
<g id="Node000002" class="node">
<title>Node2</title>
<g id="a_Node000002"><a xlink:href="classTmc5160Handler.html#a6d4fce2433e03bb11b05a4278ef66fd0" target="_top" xlink:title=" ">
<polygon fill="white" stroke="#666666" points="622,-79.5 435,-79.5 435,-49.5 622,-49.5 622,-79.5"/>
<text text-anchor="start" x="443" y="-67.5" font-family="Helvetica,sans-Serif" font-size="10.00">Tmc5160Handler::EnsureInitialized</text>
<text text-anchor="middle" x="528.5" y="-56.5" font-family="Helvetica,sans-Serif" font-size="10.00">Locked</text>
</a>
</g>
</g>
<!-- Node1&#45;&gt;Node2 -->
<g id="edge1_Node000001_Node000002" class="edge">
<title>Node1&#45;&gt;Node2</title>
<g id="a_edge1_Node000001_Node000002"><a xlink:title=" ">
<path fill="none" stroke="#63b8ff" d="M647.79,-64.5C639.37,-64.5 630.77,-64.5 622.26,-64.5"/>
<polygon fill="#63b8ff" stroke="#63b8ff" points="647.97,-68 657.97,-64.5 647.97,-61 647.97,-68"/>
</a>
</g>
</g>
<!-- Node3 -->
<g id="Node000003" class="node">
<title>Node3</title>
<g id="a_Node000003"><a xlink:href="classTmc5160Handler.html#a15dae0f711e2dd4ecea09822b8a3a8bb" target="_top" xlink:title="Get typed SPI driver pointer (null if UART mode or not initialized).">
<polygon fill="white" stroke="#666666" points="385.5,-130 220.5,-130 220.5,-111 385.5,-111 385.5,-130"/>
<text text-anchor="middle" x="303" y="-118" font-family="Helvetica,sans-Serif" font-size="10.00">Tmc5160Handler::driverViaSpi</text>
</a>
</g>
</g>
<!-- Node2&#45;&gt;Node3 -->
<g id="edge2_Node000002_Node000003" class="edge">
<title>Node2&#45;&gt;Node3</title>
<g id="a_edge2_Node000002_Node000003"><a xlink:title=" ">
<path fill="none" stroke="#63b8ff" d="M471.16,-82.49C448.82,-89.27 422.83,-96.73 399,-102.5 386.27,-105.58 372.48,-108.45 359.46,-110.96"/>
<polygon fill="#63b8ff" stroke="#63b8ff" points="472.27,-85.81 480.81,-79.53 470.22,-79.12 472.27,-85.81"/>
</a>
</g>
</g>
<!-- Node7 -->
<g id="Node000007" class="node">
<title>Node7</title>
<g id="a_Node000007"><a xlink:href="classTmc5160Handler.html#af8cb1c7b5011bd24102d296f22c211c5" target="_top" xlink:title="Get typed UART driver pointer (null if SPI mode or not initialized).">
<polygon fill="white" stroke="#666666" points="388.5,-93 217.5,-93 217.5,-74 388.5,-74 388.5,-93"/>
<text text-anchor="middle" x="303" y="-81" font-family="Helvetica,sans-Serif" font-size="10.00">Tmc5160Handler::driverViaUart</text>
</a>
</g>
</g>
<!-- Node2&#45;&gt;Node7 -->
<g id="edge6_Node000002_Node000007" class="edge">
<title>Node2&#45;&gt;Node7</title>
<g id="a_edge6_Node000002_Node000007"><a xlink:title=" ">
<path fill="none" stroke="#63b8ff" d="M424.83,-73.23C412.7,-74.26 400.42,-75.3 388.58,-76.31"/>
<polygon fill="#63b8ff" stroke="#63b8ff" points="425.31,-76.7 434.98,-72.37 424.72,-69.72 425.31,-76.7"/>
</a>
</g>
</g>
<!-- Node9 -->
<g id="Node000009" class="node">
<title>Node9</title>
<g id="a_Node000009"><a xlink:href="classTmc5160Handler.html#ab4bf5aabef968f6f8ee66d08cf05913a" target="_top" xlink:title="Dump diagnostic information to logger.">
<polygon fill="white" stroke="#666666" points="399,-56 207,-56 207,-37 399,-37 399,-56"/>
<text text-anchor="middle" x="303" y="-44" font-family="Helvetica,sans-Serif" font-size="10.00">Tmc5160Handler::DumpDiagnostics</text>
</a>
</g>
</g>
<!-- Node2&#45;&gt;Node9 -->
<g id="edge10_Node000002_Node000009" class="edge">
<title>Node2&#45;&gt;Node9</title>
<g id="a_edge10_Node000002_Node000009"><a xlink:title=" ">
<path fill="none" stroke="#63b8ff" d="M424.99,-56.24C416.45,-55.56 407.83,-54.86 399.34,-54.18"/>
<polygon fill="#63b8ff" stroke="#63b8ff" points="424.73,-59.73 434.98,-57.05 425.29,-52.76 424.73,-59.73"/>
</a>
</g>
</g>
<!-- Node10 -->
<g id="Node000010" class="node">
<title>Node10</title>
<g id="a_Node000010"><a xlink:href="classTmc5160Handler.html#a5ad276d4fcd81765d0a5af064fdbf7b5" target="_top" xlink:title="Ensure driver is initialized (lazy init entrypoint).">
<polygon fill="white" stroke="#666666" points="396.5,-19 209.5,-19 209.5,0 396.5,0 396.5,-19"/>
<text text-anchor="middle" x="303" y="-7" font-family="Helvetica,sans-Serif" font-size="10.00">Tmc5160Handler::EnsureInitialized</text>
</a>
</g>
</g>
<!-- Node2&#45;&gt;Node10 -->
<g id="edge11_Node000002_Node000010" class="edge">
<title>Node2&#45;&gt;Node10</title>
<g id="a_edge11_Node000002_Node000010"><a xlink:title=" ">
<path fill="none" stroke="#63b8ff" d="M467.43,-46.65C445.93,-40.54 421.47,-33.89 399,-28.5 384.93,-25.13 369.6,-21.88 355.43,-19.05"/>
<polygon fill="#63b8ff" stroke="#63b8ff" points="466.5,-50.03 477.07,-49.42 468.43,-43.3 466.5,-50.03"/>
</a>
</g>
</g>
<!-- Node4 -->
<g id="Node000004" class="node">
<title>Node4</title>
<g id="a_Node000004"><a xlink:href="classTmc5160Handler.html#aa47c7b0c69a35aa3f9e9c6fc8d2bd95c" target="_top" xlink:title=" ">
<polygon fill="white" stroke="#666666" points="168,-167 3,-167 3,-148 168,-148 168,-167"/>
<text text-anchor="middle" x="85.5" y="-155" font-family="Helvetica,sans-Serif" font-size="10.00">Tmc5160Handler::driverViaSpi</text>
</a>
</g>
</g>
<!-- Node3&#45;&gt;Node4 -->
<g id="edge3_Node000003_Node000004" class="edge">
<title>Node3&#45;&gt;Node4</title>
<g id="a_edge3_Node000003_Node000004"><a xlink:title=" ">
<path fill="none" stroke="#63b8ff" d="M236.5,-131.75C206.37,-136.92 171.01,-142.99 142.18,-147.94"/>
<polygon fill="#63b8ff" stroke="#63b8ff" points="237.24,-135.17 246.5,-130.03 236.06,-128.27 237.24,-135.17"/>
</a>
</g>
</g>
<!-- Node5 -->
<g id="Node000005" class="node">
<title>Node5</title>
<g id="a_Node000005"><a xlink:href="classTmc5160Handler.html#a755fbb0bd0c5faa03c807522e4ea469a" target="_top" xlink:title="Const overload of GetDriver().">
<polygon fill="white" stroke="#666666" points="162,-93 9,-93 9,-74 162,-74 162,-93"/>
<text text-anchor="middle" x="85.5" y="-81" font-family="Helvetica,sans-Serif" font-size="10.00">Tmc5160Handler::GetDriver</text>
</a>
</g>
</g>
<!-- Node3&#45;&gt;Node5 -->
<g id="edge4_Node000003_Node000005" class="edge">
<title>Node3&#45;&gt;Node5</title>
<g id="a_edge4_Node000003_Node000005"><a xlink:title=" ">
<path fill="none" stroke="#63b8ff" d="M236.5,-109.25C206.37,-104.08 171.01,-98.01 142.18,-93.06"/>
<polygon fill="#63b8ff" stroke="#63b8ff" points="236.06,-112.73 246.5,-110.97 237.24,-105.83 236.06,-112.73"/>
</a>
</g>
</g>
<!-- Node6 -->
<g id="Node000006" class="node">
<title>Node6</title>
<g id="a_Node000006"><a xlink:href="classTmc5160Handler.html#a8753f4b21ffb25d294d4ce41951f11f7" target="_top" xlink:title="Get the active driver pointer without requiring visitor usage.">
<polygon fill="white" stroke="#666666" points="162,-130 9,-130 9,-111 162,-111 162,-130"/>
<text text-anchor="middle" x="85.5" y="-118" font-family="Helvetica,sans-Serif" font-size="10.00">Tmc5160Handler::GetDriver</text>
</a>
</g>
</g>
<!-- Node3&#45;&gt;Node6 -->
<g id="edge5_Node000003_Node000006" class="edge">
<title>Node3&#45;&gt;Node6</title>
<g id="a_edge5_Node000003_Node000006"><a xlink:title=" ">
<path fill="none" stroke="#63b8ff" d="M209.86,-120.5C193.96,-120.5 177.59,-120.5 162.19,-120.5"/>
<polygon fill="#63b8ff" stroke="#63b8ff" points="210.22,-124 220.22,-120.5 210.22,-117 210.22,-124"/>
</a>
</g>
</g>
<!-- Node7&#45;&gt;Node5 -->
<g id="edge8_Node000007_Node000005" class="edge">
<title>Node7&#45;&gt;Node5</title>
<g id="a_edge8_Node000007_Node000005"><a xlink:title=" ">
<path fill="none" stroke="#63b8ff" d="M207.08,-83.5C192.01,-83.5 176.6,-83.5 162.05,-83.5"/>
<polygon fill="#63b8ff" stroke="#63b8ff" points="207.45,-87 217.45,-83.5 207.45,-80 207.45,-87"/>
</a>
</g>
</g>
<!-- Node7&#45;&gt;Node6 -->
<g id="edge9_Node000007_Node000006" class="edge">
<title>Node7&#45;&gt;Node6</title>
<g id="a_edge9_Node000007_Node000006"><a xlink:title=" ">
<path fill="none" stroke="#63b8ff" d="M236.5,-94.75C206.37,-99.92 171.01,-105.99 142.18,-110.94"/>
<polygon fill="#63b8ff" stroke="#63b8ff" points="237.24,-98.17 246.5,-93.03 236.06,-91.27 237.24,-98.17"/>
</a>
</g>
</g>
<!-- Node8 -->
<g id="Node000008" class="node">
<title>Node8</title>
<g id="a_Node000008"><a xlink:href="classTmc5160Handler.html#a845e1879a4606367f419f3892061ff31" target="_top" xlink:title=" ">
<polygon fill="white" stroke="#666666" points="171,-56 0,-56 0,-37 171,-37 171,-56"/>
<text text-anchor="middle" x="85.5" y="-44" font-family="Helvetica,sans-Serif" font-size="10.00">Tmc5160Handler::driverViaUart</text>
</a>
</g>
</g>
<!-- Node7&#45;&gt;Node8 -->
<g id="edge7_Node000007_Node000008" class="edge">
<title>Node7&#45;&gt;Node8</title>
<g id="a_edge7_Node000007_Node000008"><a xlink:title=" ">
<path fill="none" stroke="#63b8ff" d="M236.5,-72.25C206.37,-67.08 171.01,-61.01 142.18,-56.06"/>
<polygon fill="#63b8ff" stroke="#63b8ff" points="236.06,-75.73 246.5,-73.97 237.24,-68.83 236.06,-75.73"/>
</a>
</g>
</g>
<!-- Node11 -->
<g id="Node000011" class="node">
<title>Node11</title>
<g id="a_Node000011"><a xlink:href="classTmc5160Handler.html#adf1b6ae5b680756f1b68169789cf0c1f" target="_top" xlink:title="Visit the typed driver with a callable.">
<polygon fill="white" stroke="#666666" points="164,-19 7,-19 7,0 164,0 164,-19"/>
<text text-anchor="middle" x="85.5" y="-7" font-family="Helvetica,sans-Serif" font-size="10.00">Tmc5160Handler::visitDriver</text>
</a>
</g>
</g>
<!-- Node10&#45;&gt;Node11 -->
<g id="edge12_Node000010_Node000011" class="edge">
<title>Node10&#45;&gt;Node11</title>
<g id="a_edge12_Node000010_Node000011"><a xlink:title=" ">
<path fill="none" stroke="#63b8ff" d="M199.08,-9.5C187.34,-9.5 175.52,-9.5 164.19,-9.5"/>
<polygon fill="#63b8ff" stroke="#63b8ff" points="199.36,-13 209.36,-9.5 199.36,-6 199.36,-13"/>
</a>
</g>
</g>
</g>
</svg>
