<?xml version="1.0" encoding="UTF-8" standalone="no"?>
<!DOCTYPE svg PUBLIC "-//W3C//DTD SVG 1.1//EN"
 "http://www.w3.org/Graphics/SVG/1.1/DTD/svg11.dtd">
<!-- Generated by graphviz version 2.43.0 (0)
 -->
<!-- Title: Se050Handler Pages: 1 -->
<svg width="386pt" height="160pt"
 viewBox="0.00 0.00 385.50 160.00" xmlns="http://www.w3.org/2000/svg" xmlns:xlink="http://www.w3.org/1999/xlink">
<g id="graph0" class="graph" transform="scale(1 1) rotate(0) translate(4 156)">
<title>Se050Handler</title>
<!-- Node1 -->
<g id="Node000001" class="node">
<title>Node1</title>
<g id="a_Node000001"><a xlink:title="Thread&#45;safe façade around se050::Device&lt;HalI2cSe050Comm&gt;.">
<polygon fill="#999999" stroke="#666666" points="231.5,-19 146.5,-19 146.5,0 231.5,0 231.5,-19"/>
<text text-anchor="middle" x="189" y="-7" font-family="Helvetica,sans-Serif" font-size="10.00">Se050Handler</text>
</a>
</g>
</g>
<!-- Node2 -->
<g id="Node000002" class="node">
<title>Node2</title>
<g id="a_Node000002"><a xlink:href="structSe050HandlerConfig.html" target="_top" xlink:title="Runtime tuning for one SE050 instance on a BaseI2c device.">
<polygon fill="white" stroke="#666666" points="116,-85 0,-85 0,-66 116,-66 116,-85"/>
<text text-anchor="middle" x="58" y="-73" font-family="Helvetica,sans-Serif" font-size="10.00">Se050HandlerConfig</text>
</a>
</g>
</g>
<!-- Node2&#45;&gt;Node1 -->
<g id="edge1_Node000001_Node000002" class="edge">
<title>Node2&#45;&gt;Node1</title>
<g id="a_edge1_Node000001_Node000002"><a xlink:title=" ">
<path fill="none" stroke="#9a32cd" stroke-dasharray="5,2" d="M84.89,-61.36C110.7,-48.75 148.96,-30.06 171.19,-19.2"/>
<polygon fill="#9a32cd" stroke="#9a32cd" points="83.12,-58.33 75.67,-65.87 86.19,-64.62 83.12,-58.33"/>
</a>
</g>
<text text-anchor="middle" x="151" y="-40" font-family="Helvetica,sans-Serif" font-size="10.00" fill="grey"> config_</text>
</g>
<!-- Node3 -->
<g id="Node000003" class="node">
<title>Node3</title>
<g id="a_Node000003"><a xlink:href="classHalI2cSe050Comm.html" target="_top" xlink:title="CRTP adapter mapping BaseI2c primitives to se050::I2cTransceiveInterface.">
<polygon fill="white" stroke="#666666" points="244,-85 134,-85 134,-66 244,-66 244,-85"/>
<text text-anchor="middle" x="189" y="-73" font-family="Helvetica,sans-Serif" font-size="10.00">HalI2cSe050Comm</text>
</a>
</g>
</g>
<!-- Node3&#45;&gt;Node1 -->
<g id="edge2_Node000001_Node000003" class="edge">
<title>Node3&#45;&gt;Node1</title>
<g id="a_edge2_Node000001_Node000003"><a xlink:title=" ">
<path fill="none" stroke="#9a32cd" stroke-dasharray="5,2" d="M189,-55.58C189,-43.63 189,-28.72 189,-19.41"/>
<polygon fill="#9a32cd" stroke="#9a32cd" points="185.5,-55.87 189,-65.87 192.5,-55.87 185.5,-55.87"/>
</a>
</g>
<text text-anchor="middle" x="209" y="-40" font-family="Helvetica,sans-Serif" font-size="10.00" fill="grey"> comm_</text>
</g>
<!-- Node4 -->
<g id="Node000004" class="node">
<title>Node4</title>
<g id="a_Node000004"><a xlink:title=" ">
<polygon fill="white" stroke="#666666" points="269.5,-152 108.5,-152 108.5,-122 269.5,-122 269.5,-152"/>
<text text-anchor="start" x="116.5" y="-140" font-family="Helvetica,sans-Serif" font-size="10.00">se050::I2cTransceiveInterface</text>
<text text-anchor="middle" x="189" y="-129" font-family="Helvetica,sans-Serif" font-size="10.00">&lt; HalI2cSe050Comm &gt;</text>
</a>
</g>
</g>
<!-- Node4&#45;&gt;Node3 -->
<g id="edge3_Node000003_Node000004" class="edge">
<title>Node4&#45;&gt;Node3</title>
<g id="a_edge3_Node000003_Node000004"><a xlink:title=" ">
<path fill="none" stroke="#63b8ff" d="M189,-111.79C189,-102.36 189,-92.15 189,-85.16"/>
<polygon fill="#63b8ff" stroke="#63b8ff" points="185.5,-111.9 189,-121.9 192.5,-111.9 185.5,-111.9"/>
</a>
</g>
</g>
<!-- Node5 -->
<g id="Node000005" class="node">
<title>Node5</title>
<g id="a_Node000005"><a xlink:title=" ">
<polygon fill="white" stroke="#666666" points="377.5,-85 262.5,-85 262.5,-66 377.5,-66 377.5,-85"/>
<text text-anchor="middle" x="320" y="-73" font-family="Helvetica,sans-Serif" font-size="10.00">std::atomic&lt; bool &gt;</text>
</a>
</g>
</g>
<!-- Node5&#45;&gt;Node1 -->
<g id="edge4_Node000001_Node000005" class="edge">
<title>Node5&#45;&gt;Node1</title>
<g id="a_edge4_Node000001_Node000005"><a xlink:title=" ">
<path fill="none" stroke="#9a32cd" stroke-dasharray="5,2" d="M293.11,-61.36C267.3,-48.75 229.04,-30.06 206.81,-19.2"/>
<polygon fill="#9a32cd" stroke="#9a32cd" points="291.81,-64.62 302.33,-65.87 294.88,-58.33 291.81,-64.62"/>
</a>
</g>
<text text-anchor="middle" x="290.5" y="-40" font-family="Helvetica,sans-Serif" font-size="10.00" fill="grey"> initialized_</text>
</g>
</g>
</svg>
