<?xml version="1.0" encoding="UTF-8" standalone="no"?>
<!DOCTYPE svg PUBLIC "-//W3C//DTD SVG 1.1//EN"
 "http://www.w3.org/Graphics/SVG/1.1/DTD/svg11.dtd">
<!-- Generated by graphviz version 2.43.0 (0)
 -->
<!-- Title: HfUtilsCanOpenTransport::can Pages: 1 -->
<svg width="331pt" height="86pt"
 viewBox="0.00 0.00 331.00 86.00" xmlns="http://www.w3.org/2000/svg" xmlns:xlink="http://www.w3.org/1999/xlink">
<g id="graph0" class="graph" transform="scale(1 1) rotate(0) translate(4 82)">
<title>HfUtilsCanOpenTransport::can</title>
<!-- Node1 -->
<g id="Node000001" class="node">
<title>Node1</title>
<g id="a_Node000001"><a xlink:title=" ">
<polygon fill="#999999" stroke="#666666" points="323,-48.5 160,-48.5 160,-29.5 323,-29.5 323,-48.5"/>
<text text-anchor="middle" x="241.5" y="-36.5" font-family="Helvetica,sans-Serif" font-size="10.00">HfUtilsCanOpenTransport::can</text>
</a>
</g>
</g>
<!-- Node2 -->
<g id="Node000002" class="node">
<title>Node2</title>
<g id="a_Node000002"><a xlink:href="classCanOpenBaseCanLink.html#a68a3847e8acd0e66884487b625204d3f" target="_top" xlink:title=" ">
<polygon fill="white" stroke="#666666" points="124,-78 0,-78 0,-48 124,-48 124,-78"/>
<text text-anchor="start" x="8" y="-66" font-family="Helvetica,sans-Serif" font-size="10.00">CanOpenBaseCanLink</text>
<text text-anchor="middle" x="62" y="-55" font-family="Helvetica,sans-Serif" font-size="10.00">::Close</text>
</a>
</g>
</g>
<!-- Node1&#45;&gt;Node2 -->
<g id="edge1_Node000001_Node000002" class="edge">
<title>Node1&#45;&gt;Node2</title>
<g id="a_edge1_Node000001_Node000002"><a xlink:title=" ">
<path fill="none" stroke="#63b8ff" d="M160.03,-49.88C147.97,-51.51 135.71,-53.17 124.14,-54.73"/>
<polygon fill="#63b8ff" stroke="#63b8ff" points="160.65,-53.33 170.09,-48.52 159.71,-46.39 160.65,-53.33"/>
</a>
</g>
</g>
<!-- Node3 -->
<g id="Node000003" class="node">
<title>Node3</title>
<g id="a_Node000003"><a xlink:href="classCanOpenBaseCanLink.html#a1b6f8d617bf69586c623ce08187d842b" target="_top" xlink:title=" ">
<polygon fill="white" stroke="#666666" points="124,-30 0,-30 0,0 124,0 124,-30"/>
<text text-anchor="start" x="8" y="-18" font-family="Helvetica,sans-Serif" font-size="10.00">CanOpenBaseCanLink</text>
<text text-anchor="middle" x="62" y="-7" font-family="Helvetica,sans-Serif" font-size="10.00">::Open</text>
</a>
</g>
</g>
<!-- Node1&#45;&gt;Node3 -->
<g id="edge2_Node000001_Node000003" class="edge">
<title>Node1&#45;&gt;Node3</title>
<g id="a_edge2_Node000001_Node000003"><a xlink:title=" ">
<path fill="none" stroke="#63b8ff" d="M160.03,-28.12C147.97,-26.49 135.71,-24.83 124.14,-23.27"/>
<polygon fill="#63b8ff" stroke="#63b8ff" points="159.71,-31.61 170.09,-29.48 160.65,-24.67 159.71,-31.61"/>
</a>
</g>
</g>
</g>
</svg>
