<?xml version="1.0" encoding="UTF-8" standalone="no"?>
<!DOCTYPE svg PUBLIC "-//W3C//DTD SVG 1.1//EN"
 "http://www.w3.org/Graphics/SVG/1.1/DTD/svg11.dtd">
<!-- Generated by graphviz version 2.43.0 (0)
 -->
<!-- Title: Tmc5160Handler::DumpDiagnostics Pages: 1 -->
<svg width="922pt" height="175pt"
 viewBox="0.00 0.00 922.00 174.50" xmlns="http://www.w3.org/2000/svg" xmlns:xlink="http://www.w3.org/1999/xlink">
<g id="graph0" class="graph" transform="scale(1 1) rotate(0) translate(4 170.5)">
<title>Tmc5160Handler::DumpDiagnostics</title>
<!-- Node1 -->
<g id="Node000001" class="node">
<title>Node1</title>
<g id="a_Node000001"><a xlink:title="Dump diagnostic information to logger.">
<polygon fill="#999999" stroke="#666666" points="192,-88.5 0,-88.5 0,-69.5 192,-69.5 192,-88.5"/>
<text text-anchor="middle" x="96" y="-76.5" font-family="Helvetica,sans-Serif" font-size="10.00">Tmc5160Handler::DumpDiagnostics</text>
</a>
</g>
</g>
<!-- Node2 -->
<g id="Node000002" class="node">
<title>Node2</title>
<g id="a_Node000002"><a xlink:href="classTmc5160Handler.html#a6d4fce2433e03bb11b05a4278ef66fd0" target="_top" xlink:title=" ">
<polygon fill="white" stroke="#666666" points="415,-116 228,-116 228,-86 415,-86 415,-116"/>
<text text-anchor="start" x="236" y="-104" font-family="Helvetica,sans-Serif" font-size="10.00">Tmc5160Handler::EnsureInitialized</text>
<text text-anchor="middle" x="321.5" y="-93" font-family="Helvetica,sans-Serif" font-size="10.00">Locked</text>
</a>
</g>
</g>
<!-- Node1&#45;&gt;Node2 -->
<g id="edge1_Node000001_Node000002" class="edge">
<title>Node1&#45;&gt;Node2</title>
<g id="a_edge1_Node000001_Node000002"><a xlink:title=" ">
<path fill="none" stroke="#63b8ff" d="M192.11,-88.36C200.65,-89.2 209.32,-90.06 217.92,-90.9"/>
<polygon fill="#63b8ff" stroke="#63b8ff" points="217.67,-94.4 227.97,-91.89 218.36,-87.43 217.67,-94.4"/>
</a>
</g>
</g>
<!-- Node7 -->
<g id="Node000007" class="node">
<title>Node7</title>
<g id="a_Node000007"><a xlink:href="classLogger.html#a5789d11f8f1356e2192c0023a089cbc4" target="_top" xlink:title="Get singleton instance.">
<polygon fill="white" stroke="#666666" points="749,-55.5 635,-55.5 635,-36.5 749,-36.5 749,-55.5"/>
<text text-anchor="middle" x="692" y="-43.5" font-family="Helvetica,sans-Serif" font-size="10.00">Logger::GetInstance</text>
</a>
</g>
</g>
<!-- Node1&#45;&gt;Node7 -->
<g id="edge13_Node000001_Node000007" class="edge">
<title>Node1&#45;&gt;Node7</title>
<g id="a_edge13_Node000001_Node000007"><a xlink:title=" ">
<path fill="none" stroke="#63b8ff" d="M192.11,-73.72C313.11,-66.99 519.02,-55.55 624.47,-49.7"/>
<polygon fill="#63b8ff" stroke="#63b8ff" points="624.87,-53.18 634.66,-49.13 624.48,-46.19 624.87,-53.18"/>
</a>
</g>
</g>
<!-- Node9 -->
<g id="Node000009" class="node">
<title>Node9</title>
<g id="a_Node000009"><a xlink:href="classLogger.html#a8c19c14724b0be1d2be63da4258c001a" target="_top" xlink:title="Log warning message.">
<polygon fill="white" stroke="#666666" points="732,-166.5 652,-166.5 652,-147.5 732,-147.5 732,-166.5"/>
<text text-anchor="middle" x="692" y="-154.5" font-family="Helvetica,sans-Serif" font-size="10.00">Logger::Warn</text>
</a>
</g>
</g>
<!-- Node1&#45;&gt;Node9 -->
<g id="edge15_Node000001_Node000009" class="edge">
<title>Node1&#45;&gt;Node9</title>
<g id="a_edge15_Node000001_Node000009"><a xlink:title=" ">
<path fill="none" stroke="#63b8ff" d="M118.74,-88.67C144.32,-99.57 188.34,-116.82 228,-125 376.29,-155.58 556.35,-158.51 641.64,-157.9"/>
<polygon fill="#63b8ff" stroke="#63b8ff" points="641.84,-161.4 651.8,-157.81 641.77,-154.4 641.84,-161.4"/>
</a>
</g>
</g>
<!-- Node10 -->
<g id="Node000010" class="node">
<title>Node10</title>
<g id="a_Node000010"><a xlink:href="classTmc5160Handler.html#a439a68f9d3f6785e0a493f9ed3821325" target="_top" xlink:title="Helper: execute a visitor on the active driver (no lock, internal use)">
<polygon fill="white" stroke="#666666" points="400,-30 243,-30 243,0 400,0 400,-30"/>
<text text-anchor="start" x="251" y="-18" font-family="Helvetica,sans-Serif" font-size="10.00">Tmc5160Handler::visitDriver</text>
<text text-anchor="middle" x="321.5" y="-7" font-family="Helvetica,sans-Serif" font-size="10.00">Internal</text>
</a>
</g>
</g>
<!-- Node1&#45;&gt;Node10 -->
<g id="edge14_Node000001_Node000010" class="edge">
<title>Node1&#45;&gt;Node10</title>
<g id="a_edge14_Node000001_Node000010"><a xlink:title=" ">
<path fill="none" stroke="#63b8ff" d="M130.46,-69.42C164.17,-59.77 216.98,-44.64 258.38,-32.79"/>
<polygon fill="#63b8ff" stroke="#63b8ff" points="259.45,-36.12 268.1,-30 257.52,-29.39 259.45,-36.12"/>
</a>
</g>
</g>
<!-- Node3 -->
<g id="Node000003" class="node">
<title>Node3</title>
<g id="a_Node000003"><a xlink:href="classTmc5160Handler.html#a64755f326176b0a38485acf5ca69fd0c" target="_top" xlink:title="Initialize the TMC5160 driver with full configuration.">
<polygon fill="white" stroke="#666666" points="599,-110.5 451,-110.5 451,-91.5 599,-91.5 599,-110.5"/>
<text text-anchor="middle" x="525" y="-98.5" font-family="Helvetica,sans-Serif" font-size="10.00">Tmc5160Handler::Initialize</text>
</a>
</g>
</g>
<!-- Node2&#45;&gt;Node3 -->
<g id="edge2_Node000002_Node000003" class="edge">
<title>Node2&#45;&gt;Node3</title>
<g id="a_edge2_Node000002_Node000003"><a xlink:title=" ">
<path fill="none" stroke="#63b8ff" d="M415.29,-101C423.73,-101 432.25,-101 440.61,-101"/>
<polygon fill="#63b8ff" stroke="#63b8ff" points="440.7,-104.5 450.7,-101 440.7,-97.5 440.7,-104.5"/>
</a>
</g>
</g>
<!-- Node4 -->
<g id="Node000004" class="node">
<title>Node4</title>
<g id="a_Node000004"><a xlink:href="classLogger.html#a5e4bcdaea60b9ac227b564d780388769" target="_top" xlink:title="Log error message.">
<polygon fill="white" stroke="#666666" points="731.5,-129.5 652.5,-129.5 652.5,-110.5 731.5,-110.5 731.5,-129.5"/>
<text text-anchor="middle" x="692" y="-117.5" font-family="Helvetica,sans-Serif" font-size="10.00">Logger::Error</text>
</a>
</g>
</g>
<!-- Node3&#45;&gt;Node4 -->
<g id="edge3_Node000003_Node000004" class="edge">
<title>Node3&#45;&gt;Node4</title>
<g id="a_edge3_Node000003_Node000004"><a xlink:title=" ">
<path fill="none" stroke="#63b8ff" d="M599.33,-109.44C613.87,-111.12 628.8,-112.84 642.27,-114.39"/>
<polygon fill="#63b8ff" stroke="#63b8ff" points="641.92,-117.87 652.26,-115.54 642.73,-110.92 641.92,-117.87"/>
</a>
</g>
</g>
<!-- Node3&#45;&gt;Node7 -->
<g id="edge6_Node000003_Node000007" class="edge">
<title>Node3&#45;&gt;Node7</title>
<g id="a_edge6_Node000003_Node000007"><a xlink:title=" ">
<path fill="none" stroke="#63b8ff" d="M553.73,-91.45C575.74,-83.9 607.3,-73.15 635,-64 640.27,-62.26 645.83,-60.44 651.32,-58.67"/>
<polygon fill="#63b8ff" stroke="#63b8ff" points="652.59,-61.93 661.04,-55.53 650.44,-55.27 652.59,-61.93"/>
</a>
</g>
</g>
<!-- Node8 -->
<g id="Node000008" class="node">
<title>Node8</title>
<g id="a_Node000008"><a xlink:href="classLogger.html#a1c0c947d87884bca0395fd38d19d1102" target="_top" xlink:title="Log info message.">
<polygon fill="white" stroke="#666666" points="729,-92.5 655,-92.5 655,-73.5 729,-73.5 729,-92.5"/>
<text text-anchor="middle" x="692" y="-80.5" font-family="Helvetica,sans-Serif" font-size="10.00">Logger::Info</text>
</a>
</g>
</g>
<!-- Node3&#45;&gt;Node8 -->
<g id="edge7_Node000003_Node000008" class="edge">
<title>Node3&#45;&gt;Node8</title>
<g id="a_edge7_Node000003_Node000008"><a xlink:title=" ">
<path fill="none" stroke="#63b8ff" d="M599.33,-93C614.85,-91.31 630.8,-89.57 644.96,-88.02"/>
<polygon fill="#63b8ff" stroke="#63b8ff" points="645.36,-91.5 654.92,-86.94 644.6,-84.54 645.36,-91.5"/>
</a>
</g>
</g>
<!-- Node3&#45;&gt;Node9 -->
<g id="edge10_Node000003_Node000009" class="edge">
<title>Node3&#45;&gt;Node9</title>
<g id="a_edge10_Node000003_Node000009"><a xlink:title=" ">
<path fill="none" stroke="#63b8ff" d="M552.81,-110.55C574.84,-118.35 606.88,-129.58 635,-139 640.2,-140.74 645.69,-142.55 651.12,-144.31"/>
<polygon fill="#63b8ff" stroke="#63b8ff" points="650.14,-147.67 660.73,-147.42 652.29,-141.01 650.14,-147.67"/>
</a>
</g>
</g>
<!-- Node5 -->
<g id="Node000005" class="node">
<title>Node5</title>
<g id="a_Node000005"><a xlink:href="classLogger.html#a737b981213c02321a5235848334d7191" target="_top" xlink:title="Check if log level is enabled for tag.">
<polygon fill="white" stroke="#666666" points="914,-147.5 785,-147.5 785,-128.5 914,-128.5 914,-147.5"/>
<text text-anchor="middle" x="849.5" y="-135.5" font-family="Helvetica,sans-Serif" font-size="10.00">Logger::IsLevelEnabled</text>
</a>
</g>
</g>
<!-- Node4&#45;&gt;Node5 -->
<g id="edge4_Node000004_Node000005" class="edge">
<title>Node4&#45;&gt;Node5</title>
<g id="a_edge4_Node000004_Node000005"><a xlink:title=" ">
<path fill="none" stroke="#63b8ff" d="M731.84,-124.5C744.85,-126 759.82,-127.73 774.6,-129.45"/>
<polygon fill="#63b8ff" stroke="#63b8ff" points="774.44,-132.95 784.78,-130.62 775.25,-126 774.44,-132.95"/>
</a>
</g>
</g>
<!-- Node6 -->
<g id="Node000006" class="node">
<title>Node6</title>
<g id="a_Node000006"><a xlink:href="classLogger.html#aeede6ac18db92a47caede076ef188a13" target="_top" xlink:title="Internal logging method.">
<polygon fill="white" stroke="#666666" points="904.5,-110.5 794.5,-110.5 794.5,-91.5 904.5,-91.5 904.5,-110.5"/>
<text text-anchor="middle" x="849.5" y="-98.5" font-family="Helvetica,sans-Serif" font-size="10.00">Logger::LogInternal</text>
</a>
</g>
</g>
<!-- Node4&#45;&gt;Node6 -->
<g id="edge5_Node000004_Node000006" class="edge">
<title>Node4&#45;&gt;Node6</title>
<g id="a_edge5_Node000004_Node000006"><a xlink:title=" ">
<path fill="none" stroke="#63b8ff" d="M731.84,-115.25C747.63,-113.32 766.31,-111.04 784.03,-108.88"/>
<polygon fill="#63b8ff" stroke="#63b8ff" points="784.83,-112.31 794.33,-107.62 783.98,-105.36 784.83,-112.31"/>
</a>
</g>
</g>
<!-- Node8&#45;&gt;Node5 -->
<g id="edge8_Node000008_Node000005" class="edge">
<title>Node8&#45;&gt;Node5</title>
<g id="a_edge8_Node000008_Node000005"><a xlink:title=" ">
<path fill="none" stroke="#63b8ff" d="M725.58,-92.55C733.34,-95.07 741.53,-97.95 749,-101 765.56,-107.76 768.37,-112.41 785,-119 790.62,-121.23 796.61,-123.34 802.57,-125.29"/>
<polygon fill="#63b8ff" stroke="#63b8ff" points="801.94,-128.76 812.53,-128.42 804.04,-122.08 801.94,-128.76"/>
</a>
</g>
</g>
<!-- Node8&#45;&gt;Node6 -->
<g id="edge9_Node000008_Node000006" class="edge">
<title>Node8&#45;&gt;Node6</title>
<g id="a_edge9_Node000008_Node000006"><a xlink:title=" ">
<path fill="none" stroke="#63b8ff" d="M729.07,-87.17C745.49,-89.08 765.44,-91.39 784.3,-93.57"/>
<polygon fill="#63b8ff" stroke="#63b8ff" points="784,-97.06 794.33,-94.73 784.8,-90.1 784,-97.06"/>
</a>
</g>
</g>
<!-- Node9&#45;&gt;Node5 -->
<g id="edge11_Node000009_Node000005" class="edge">
<title>Node9&#45;&gt;Node5</title>
<g id="a_edge11_Node000009_Node000005"><a xlink:title=" ">
<path fill="none" stroke="#63b8ff" d="M732.24,-152.21C745.18,-150.62 760.02,-148.81 774.68,-147.02"/>
<polygon fill="#63b8ff" stroke="#63b8ff" points="775.27,-150.47 784.77,-145.79 774.42,-143.53 775.27,-150.47"/>
</a>
</g>
</g>
<!-- Node9&#45;&gt;Node6 -->
<g id="edge12_Node000009_Node000006" class="edge">
<title>Node9&#45;&gt;Node6</title>
<g id="a_edge12_Node000009_Node000006"><a xlink:title=" ">
<path fill="none" stroke="#63b8ff" d="M726.27,-147.49C733.84,-145 741.79,-142.13 749,-139 765.79,-131.72 768.08,-125.99 785,-119 789.71,-117.05 794.7,-115.24 799.73,-113.57"/>
<polygon fill="#63b8ff" stroke="#63b8ff" points="800.9,-116.88 809.4,-110.55 798.81,-110.2 800.9,-116.88"/>
</a>
</g>
</g>
</g>
</svg>
