<?xml version="1.0" encoding="UTF-8" standalone="no"?>
<!DOCTYPE svg PUBLIC "-//W3C//DTD SVG 1.1//EN"
 "http://www.w3.org/Graphics/SVG/1.1/DTD/svg11.dtd">
<!-- Generated by graphviz version 2.43.0 (0)
 -->
<!-- Title: Tmc9660Handler::Tmc9660Handler Pages: 1 -->
<svg width="1122pt" height="113pt"
 viewBox="0.00 0.00 1122.00 112.50" xmlns="http://www.w3.org/2000/svg" xmlns:xlink="http://www.w3.org/1999/xlink">
<g id="graph0" class="graph" transform="scale(1 1) rotate(0) translate(4 108.5)">
<title>Tmc9660Handler::Tmc9660Handler</title>
<!-- Node1 -->
<g id="Node000001" class="node">
<title>Node1</title>
<g id="a_Node000001"><a xlink:title="Construct a handler for a TMC9660 connected via UART.">
<polygon fill="#999999" stroke="#666666" points="189,-45.5 0,-45.5 0,-26.5 189,-26.5 189,-45.5"/>
<text text-anchor="middle" x="94.5" y="-33.5" font-family="Helvetica,sans-Serif" font-size="10.00">Tmc9660Handler::Tmc9660Handler</text>
</a>
</g>
</g>
<!-- Node2 -->
<g id="Node000002" class="node">
<title>Node2</title>
<g id="a_Node000002"><a xlink:href="classTmc9660Handler.html#a393382194d0602e7aa02da6a8fd7a20a" target="_top" xlink:title="Get a reference to the Temperature wrapper.">
<polygon fill="white" stroke="#666666" points="392,-45.5 225,-45.5 225,-26.5 392,-26.5 392,-45.5"/>
<text text-anchor="middle" x="308.5" y="-33.5" font-family="Helvetica,sans-Serif" font-size="10.00">Tmc9660Handler::temperature</text>
</a>
</g>
</g>
<!-- Node1&#45;&gt;Node2 -->
<g id="edge1_Node000001_Node000002" class="edge">
<title>Node1&#45;&gt;Node2</title>
<g id="a_edge1_Node000001_Node000002"><a xlink:title=" ">
<path fill="none" stroke="#63b8ff" d="M189.1,-36C197.54,-36 206.09,-36 214.52,-36"/>
<polygon fill="#63b8ff" stroke="#63b8ff" points="214.73,-39.5 224.73,-36 214.73,-32.5 214.73,-39.5"/>
</a>
</g>
</g>
<!-- Node2&#45;&gt;Node2 -->
<g id="edge12_Node000002_Node000002" class="edge">
<title>Node2&#45;&gt;Node2</title>
<g id="a_edge12_Node000002_Node000002"><a xlink:title=" ">
<path fill="none" stroke="#63b8ff" d="M275.82,-45.58C259.93,-54.23 270.82,-63.5 308.5,-63.5 335.58,-63.5 348.83,-58.71 348.23,-52.81"/>
<polygon fill="#63b8ff" stroke="#63b8ff" points="350.67,-50.29 341.18,-45.58 345.66,-55.18 350.67,-50.29"/>
</a>
</g>
</g>
<!-- Node3 -->
<g id="Node000003" class="node">
<title>Node3</title>
<g id="a_Node000003"><a xlink:href="classTmc9660Handler.html#a5a279ae9d4b5a8e0d71cb24577ad88ea" target="_top" xlink:title="Ensure driver is initialized (lazy init entrypoint).">
<polygon fill="white" stroke="#666666" points="615,-45.5 428,-45.5 428,-26.5 615,-26.5 615,-45.5"/>
<text text-anchor="middle" x="521.5" y="-33.5" font-family="Helvetica,sans-Serif" font-size="10.00">Tmc9660Handler::EnsureInitialized</text>
</a>
</g>
</g>
<!-- Node2&#45;&gt;Node3 -->
<g id="edge2_Node000002_Node000003" class="edge">
<title>Node2&#45;&gt;Node3</title>
<g id="a_edge2_Node000002_Node000003"><a xlink:title=" ">
<path fill="none" stroke="#63b8ff" d="M392.29,-36C400.67,-36 409.25,-36 417.81,-36"/>
<polygon fill="#63b8ff" stroke="#63b8ff" points="417.83,-39.5 427.83,-36 417.83,-32.5 417.83,-39.5"/>
</a>
</g>
</g>
<!-- Node4 -->
<g id="Node000004" class="node">
<title>Node4</title>
<g id="a_Node000004"><a xlink:href="classTmc9660Handler.html#adc564847f8ae26c47412aaee0758991c" target="_top" xlink:title="Initialize the TMC9660 device.">
<polygon fill="white" stroke="#666666" points="799,-67.5 651,-67.5 651,-48.5 799,-48.5 799,-67.5"/>
<text text-anchor="middle" x="725" y="-55.5" font-family="Helvetica,sans-Serif" font-size="10.00">Tmc9660Handler::Initialize</text>
</a>
</g>
</g>
<!-- Node3&#45;&gt;Node4 -->
<g id="edge3_Node000003_Node000004" class="edge">
<title>Node3&#45;&gt;Node4</title>
<g id="a_edge3_Node000003_Node000004"><a xlink:title=" ">
<path fill="none" stroke="#63b8ff" d="M609.71,-45.52C620,-46.65 630.48,-47.79 640.72,-48.91"/>
<polygon fill="#63b8ff" stroke="#63b8ff" points="640.53,-52.41 650.85,-50.01 641.29,-45.45 640.53,-52.41"/>
</a>
</g>
</g>
<!-- Node10 -->
<g id="Node000010" class="node">
<title>Node10</title>
<g id="a_Node000010"><a xlink:href="classTmc9660Handler.html#a13db97d201a287d8aa60384e04070b9f" target="_top" xlink:title="Check if the TMC9660 driver has been initialized and is ready.">
<polygon fill="white" stroke="#666666" points="797,-30 653,-30 653,0 797,0 797,-30"/>
<text text-anchor="start" x="661" y="-18" font-family="Helvetica,sans-Serif" font-size="10.00">Tmc9660Handler::IsDriver</text>
<text text-anchor="middle" x="725" y="-7" font-family="Helvetica,sans-Serif" font-size="10.00">Ready</text>
</a>
</g>
</g>
<!-- Node3&#45;&gt;Node10 -->
<g id="edge11_Node000003_Node000010" class="edge">
<title>Node3&#45;&gt;Node10</title>
<g id="a_edge11_Node000003_Node000010"><a xlink:title=" ">
<path fill="none" stroke="#63b8ff" d="M613.82,-26.48C623.45,-25.48 633.2,-24.46 642.71,-23.47"/>
<polygon fill="#63b8ff" stroke="#63b8ff" points="643.34,-26.93 652.92,-22.41 642.61,-19.96 643.34,-26.93"/>
</a>
</g>
</g>
<!-- Node5 -->
<g id="Node000005" class="node">
<title>Node5</title>
<g id="a_Node000005"><a xlink:href="classLogger.html#adce17848a5844e053bfd314863dc1404" target="_top" xlink:title="Log error message.">
<polygon fill="white" stroke="#666666" points="931.5,-67.5 852.5,-67.5 852.5,-48.5 931.5,-48.5 931.5,-67.5"/>
<text text-anchor="middle" x="892" y="-55.5" font-family="Helvetica,sans-Serif" font-size="10.00">Logger::Error</text>
</a>
</g>
</g>
<!-- Node4&#45;&gt;Node5 -->
<g id="edge4_Node000004_Node000005" class="edge">
<title>Node4&#45;&gt;Node5</title>
<g id="a_edge4_Node000004_Node000005"><a xlink:title=" ">
<path fill="none" stroke="#63b8ff" d="M799.33,-58C813.73,-58 828.5,-58 841.87,-58"/>
<polygon fill="#63b8ff" stroke="#63b8ff" points="842.26,-61.5 852.26,-58 842.26,-54.5 842.26,-61.5"/>
</a>
</g>
</g>
<!-- Node8 -->
<g id="Node000008" class="node">
<title>Node8</title>
<g id="a_Node000008"><a xlink:href="classLogger.html#a5789d11f8f1356e2192c0023a089cbc4" target="_top" xlink:title="Get singleton instance.">
<polygon fill="white" stroke="#666666" points="949,-30.5 835,-30.5 835,-11.5 949,-11.5 949,-30.5"/>
<text text-anchor="middle" x="892" y="-18.5" font-family="Helvetica,sans-Serif" font-size="10.00">Logger::GetInstance</text>
</a>
</g>
</g>
<!-- Node4&#45;&gt;Node8 -->
<g id="edge7_Node000004_Node000008" class="edge">
<title>Node4&#45;&gt;Node8</title>
<g id="a_edge7_Node000004_Node000008"><a xlink:title=" ">
<path fill="none" stroke="#63b8ff" d="M768.49,-48.47C789.87,-43.68 815.97,-37.82 838.58,-32.75"/>
<polygon fill="#63b8ff" stroke="#63b8ff" points="839.37,-36.16 848.37,-30.56 837.84,-29.33 839.37,-36.16"/>
</a>
</g>
</g>
<!-- Node9 -->
<g id="Node000009" class="node">
<title>Node9</title>
<g id="a_Node000009"><a xlink:href="classLogger.html#a4681229c521795685fc14f6b55c82300" target="_top" xlink:title="Log info message.">
<polygon fill="white" stroke="#666666" points="929,-104.5 855,-104.5 855,-85.5 929,-85.5 929,-104.5"/>
<text text-anchor="middle" x="892" y="-92.5" font-family="Helvetica,sans-Serif" font-size="10.00">Logger::Info</text>
</a>
</g>
</g>
<!-- Node4&#45;&gt;Node9 -->
<g id="edge8_Node000004_Node000009" class="edge">
<title>Node4&#45;&gt;Node9</title>
<g id="a_edge8_Node000004_Node000009"><a xlink:title=" ">
<path fill="none" stroke="#63b8ff" d="M768.49,-67.53C791.89,-72.77 820.94,-79.29 844.89,-84.66"/>
<polygon fill="#63b8ff" stroke="#63b8ff" points="844.28,-88.11 854.8,-86.88 845.81,-81.28 844.28,-88.11"/>
</a>
</g>
</g>
<!-- Node6 -->
<g id="Node000006" class="node">
<title>Node6</title>
<g id="a_Node000006"><a xlink:href="classLogger.html#af9e84e0ff6bd538e4f9ed8dcebc3e2f0" target="_top" xlink:title="Check if log level is enabled for tag.">
<polygon fill="white" stroke="#666666" points="1114,-104.5 985,-104.5 985,-85.5 1114,-85.5 1114,-104.5"/>
<text text-anchor="middle" x="1049.5" y="-92.5" font-family="Helvetica,sans-Serif" font-size="10.00">Logger::IsLevelEnabled</text>
</a>
</g>
</g>
<!-- Node5&#45;&gt;Node6 -->
<g id="edge5_Node000005_Node000006" class="edge">
<title>Node5&#45;&gt;Node6</title>
<g id="a_edge5_Node000005_Node000006"><a xlink:title=" ">
<path fill="none" stroke="#63b8ff" d="M931.84,-67.24C952.03,-72.05 976.94,-77.97 998.55,-83.11"/>
<polygon fill="#63b8ff" stroke="#63b8ff" points="998,-86.58 1008.53,-85.49 999.62,-79.77 998,-86.58"/>
</a>
</g>
</g>
<!-- Node7 -->
<g id="Node000007" class="node">
<title>Node7</title>
<g id="a_Node000007"><a xlink:href="classLogger.html#a6adb205db597526fb91ad20067400394" target="_top" xlink:title="Internal logging method.">
<polygon fill="white" stroke="#666666" points="1104.5,-67.5 994.5,-67.5 994.5,-48.5 1104.5,-48.5 1104.5,-67.5"/>
<text text-anchor="middle" x="1049.5" y="-55.5" font-family="Helvetica,sans-Serif" font-size="10.00">Logger::LogInternal</text>
</a>
</g>
</g>
<!-- Node5&#45;&gt;Node7 -->
<g id="edge6_Node000005_Node000007" class="edge">
<title>Node5&#45;&gt;Node7</title>
<g id="a_edge6_Node000005_Node000007"><a xlink:title=" ">
<path fill="none" stroke="#63b8ff" d="M931.84,-58C947.63,-58 966.31,-58 984.03,-58"/>
<polygon fill="#63b8ff" stroke="#63b8ff" points="984.33,-61.5 994.33,-58 984.33,-54.5 984.33,-61.5"/>
</a>
</g>
</g>
<!-- Node9&#45;&gt;Node6 -->
<g id="edge9_Node000009_Node000006" class="edge">
<title>Node9&#45;&gt;Node6</title>
<g id="a_edge9_Node000009_Node000006"><a xlink:title=" ">
<path fill="none" stroke="#63b8ff" d="M929.07,-95C942.68,-95 958.72,-95 974.55,-95"/>
<polygon fill="#63b8ff" stroke="#63b8ff" points="974.89,-98.5 984.89,-95 974.89,-91.5 974.89,-98.5"/>
</a>
</g>
</g>
<!-- Node9&#45;&gt;Node7 -->
<g id="edge10_Node000009_Node000007" class="edge">
<title>Node9&#45;&gt;Node7</title>
<g id="a_edge10_Node000009_Node000007"><a xlink:title=" ">
<path fill="none" stroke="#63b8ff" d="M929.07,-86.42C949.78,-81.49 976.09,-75.23 998.74,-69.84"/>
<polygon fill="#63b8ff" stroke="#63b8ff" points="999.61,-73.23 1008.53,-67.51 997.99,-66.42 999.61,-73.23"/>
</a>
</g>
</g>
</g>
</svg>
