<?xml version="1.0" encoding="UTF-8" standalone="no"?>
<!DOCTYPE svg PUBLIC "-//W3C//DTD SVG 1.1//EN"
 "http://www.w3.org/Graphics/SVG/1.1/DTD/svg11.dtd">
<!-- Generated by graphviz version 2.43.0 (0)
 -->
<!-- Title: Tmc9660Handler::temperature Pages: 1 -->
<svg width="897pt" height="113pt"
 viewBox="0.00 0.00 897.00 112.50" xmlns="http://www.w3.org/2000/svg" xmlns:xlink="http://www.w3.org/1999/xlink">
<g id="graph0" class="graph" transform="scale(1 1) rotate(0) translate(4 108.5)">
<title>Tmc9660Handler::temperature</title>
<!-- Node1 -->
<g id="Node000001" class="node">
<title>Node1</title>
<g id="a_Node000001"><a xlink:title="Get a reference to the Temperature wrapper.">
<polygon fill="#999999" stroke="#666666" points="167,-45.5 0,-45.5 0,-26.5 167,-26.5 167,-45.5"/>
<text text-anchor="middle" x="83.5" y="-33.5" font-family="Helvetica,sans-Serif" font-size="10.00">Tmc9660Handler::temperature</text>
</a>
</g>
</g>
<!-- Node1&#45;&gt;Node1 -->
<g id="edge11_Node000001_Node000001" class="edge">
<title>Node1&#45;&gt;Node1</title>
<g id="a_edge11_Node000001_Node000001"><a xlink:title=" ">
<path fill="none" stroke="#63b8ff" d="M50.82,-45.58C34.93,-54.23 45.82,-63.5 83.5,-63.5 110.58,-63.5 123.83,-58.71 123.23,-52.81"/>
<polygon fill="#63b8ff" stroke="#63b8ff" points="125.67,-50.29 116.18,-45.58 120.66,-55.18 125.67,-50.29"/>
</a>
</g>
</g>
<!-- Node2 -->
<g id="Node000002" class="node">
<title>Node2</title>
<g id="a_Node000002"><a xlink:href="classTmc9660Handler.html#a5a279ae9d4b5a8e0d71cb24577ad88ea" target="_top" xlink:title="Ensure driver is initialized (lazy init entrypoint).">
<polygon fill="white" stroke="#666666" points="390,-45.5 203,-45.5 203,-26.5 390,-26.5 390,-45.5"/>
<text text-anchor="middle" x="296.5" y="-33.5" font-family="Helvetica,sans-Serif" font-size="10.00">Tmc9660Handler::EnsureInitialized</text>
</a>
</g>
</g>
<!-- Node1&#45;&gt;Node2 -->
<g id="edge1_Node000001_Node000002" class="edge">
<title>Node1&#45;&gt;Node2</title>
<g id="a_edge1_Node000001_Node000002"><a xlink:title=" ">
<path fill="none" stroke="#63b8ff" d="M167.29,-36C175.67,-36 184.25,-36 192.81,-36"/>
<polygon fill="#63b8ff" stroke="#63b8ff" points="192.83,-39.5 202.83,-36 192.83,-32.5 192.83,-39.5"/>
</a>
</g>
</g>
<!-- Node3 -->
<g id="Node000003" class="node">
<title>Node3</title>
<g id="a_Node000003"><a xlink:href="classTmc9660Handler.html#adc564847f8ae26c47412aaee0758991c" target="_top" xlink:title="Initialize the TMC9660 device.">
<polygon fill="white" stroke="#666666" points="574,-67.5 426,-67.5 426,-48.5 574,-48.5 574,-67.5"/>
<text text-anchor="middle" x="500" y="-55.5" font-family="Helvetica,sans-Serif" font-size="10.00">Tmc9660Handler::Initialize</text>
</a>
</g>
</g>
<!-- Node2&#45;&gt;Node3 -->
<g id="edge2_Node000002_Node000003" class="edge">
<title>Node2&#45;&gt;Node3</title>
<g id="a_edge2_Node000002_Node000003"><a xlink:title=" ">
<path fill="none" stroke="#63b8ff" d="M384.71,-45.52C395,-46.65 405.48,-47.79 415.72,-48.91"/>
<polygon fill="#63b8ff" stroke="#63b8ff" points="415.53,-52.41 425.85,-50.01 416.29,-45.45 415.53,-52.41"/>
</a>
</g>
</g>
<!-- Node9 -->
<g id="Node000009" class="node">
<title>Node9</title>
<g id="a_Node000009"><a xlink:href="classTmc9660Handler.html#a13db97d201a287d8aa60384e04070b9f" target="_top" xlink:title="Check if the TMC9660 driver has been initialized and is ready.">
<polygon fill="white" stroke="#666666" points="572,-30 428,-30 428,0 572,0 572,-30"/>
<text text-anchor="start" x="436" y="-18" font-family="Helvetica,sans-Serif" font-size="10.00">Tmc9660Handler::IsDriver</text>
<text text-anchor="middle" x="500" y="-7" font-family="Helvetica,sans-Serif" font-size="10.00">Ready</text>
</a>
</g>
</g>
<!-- Node2&#45;&gt;Node9 -->
<g id="edge10_Node000002_Node000009" class="edge">
<title>Node2&#45;&gt;Node9</title>
<g id="a_edge10_Node000002_Node000009"><a xlink:title=" ">
<path fill="none" stroke="#63b8ff" d="M388.82,-26.48C398.45,-25.48 408.2,-24.46 417.71,-23.47"/>
<polygon fill="#63b8ff" stroke="#63b8ff" points="418.34,-26.93 427.92,-22.41 417.61,-19.96 418.34,-26.93"/>
</a>
</g>
</g>
<!-- Node4 -->
<g id="Node000004" class="node">
<title>Node4</title>
<g id="a_Node000004"><a xlink:href="classLogger.html#adce17848a5844e053bfd314863dc1404" target="_top" xlink:title="Log error message.">
<polygon fill="white" stroke="#666666" points="706.5,-67.5 627.5,-67.5 627.5,-48.5 706.5,-48.5 706.5,-67.5"/>
<text text-anchor="middle" x="667" y="-55.5" font-family="Helvetica,sans-Serif" font-size="10.00">Logger::Error</text>
</a>
</g>
</g>
<!-- Node3&#45;&gt;Node4 -->
<g id="edge3_Node000003_Node000004" class="edge">
<title>Node3&#45;&gt;Node4</title>
<g id="a_edge3_Node000003_Node000004"><a xlink:title=" ">
<path fill="none" stroke="#63b8ff" d="M574.33,-58C588.73,-58 603.5,-58 616.87,-58"/>
<polygon fill="#63b8ff" stroke="#63b8ff" points="617.26,-61.5 627.26,-58 617.26,-54.5 617.26,-61.5"/>
</a>
</g>
</g>
<!-- Node7 -->
<g id="Node000007" class="node">
<title>Node7</title>
<g id="a_Node000007"><a xlink:href="classLogger.html#a5789d11f8f1356e2192c0023a089cbc4" target="_top" xlink:title="Get singleton instance.">
<polygon fill="white" stroke="#666666" points="724,-30.5 610,-30.5 610,-11.5 724,-11.5 724,-30.5"/>
<text text-anchor="middle" x="667" y="-18.5" font-family="Helvetica,sans-Serif" font-size="10.00">Logger::GetInstance</text>
</a>
</g>
</g>
<!-- Node3&#45;&gt;Node7 -->
<g id="edge6_Node000003_Node000007" class="edge">
<title>Node3&#45;&gt;Node7</title>
<g id="a_edge6_Node000003_Node000007"><a xlink:title=" ">
<path fill="none" stroke="#63b8ff" d="M543.49,-48.47C564.87,-43.68 590.97,-37.82 613.58,-32.75"/>
<polygon fill="#63b8ff" stroke="#63b8ff" points="614.37,-36.16 623.37,-30.56 612.84,-29.33 614.37,-36.16"/>
</a>
</g>
</g>
<!-- Node8 -->
<g id="Node000008" class="node">
<title>Node8</title>
<g id="a_Node000008"><a xlink:href="classLogger.html#a4681229c521795685fc14f6b55c82300" target="_top" xlink:title="Log info message.">
<polygon fill="white" stroke="#666666" points="704,-104.5 630,-104.5 630,-85.5 704,-85.5 704,-104.5"/>
<text text-anchor="middle" x="667" y="-92.5" font-family="Helvetica,sans-Serif" font-size="10.00">Logger::Info</text>
</a>
</g>
</g>
<!-- Node3&#45;&gt;Node8 -->
<g id="edge7_Node000003_Node000008" class="edge">
<title>Node3&#45;&gt;Node8</title>
<g id="a_edge7_Node000003_Node000008"><a xlink:title=" ">
<path fill="none" stroke="#63b8ff" d="M543.49,-67.53C566.89,-72.77 595.94,-79.29 619.89,-84.66"/>
<polygon fill="#63b8ff" stroke="#63b8ff" points="619.28,-88.11 629.8,-86.88 620.81,-81.28 619.28,-88.11"/>
</a>
</g>
</g>
<!-- Node5 -->
<g id="Node000005" class="node">
<title>Node5</title>
<g id="a_Node000005"><a xlink:href="classLogger.html#af9e84e0ff6bd538e4f9ed8dcebc3e2f0" target="_top" xlink:title="Check if log level is enabled for tag.">
<polygon fill="white" stroke="#666666" points="889,-104.5 760,-104.5 760,-85.5 889,-85.5 889,-104.5"/>
<text text-anchor="middle" x="824.5" y="-92.5" font-family="Helvetica,sans-Serif" font-size="10.00">Logger::IsLevelEnabled</text>
</a>
</g>
</g>
<!-- Node4&#45;&gt;Node5 -->
<g id="edge4_Node000004_Node000005" class="edge">
<title>Node4&#45;&gt;Node5</title>
<g id="a_edge4_Node000004_Node000005"><a xlink:title=" ">
<path fill="none" stroke="#63b8ff" d="M706.84,-67.24C727.03,-72.05 751.94,-77.97 773.55,-83.11"/>
<polygon fill="#63b8ff" stroke="#63b8ff" points="773,-86.58 783.53,-85.49 774.62,-79.77 773,-86.58"/>
</a>
</g>
</g>
<!-- Node6 -->
<g id="Node000006" class="node">
<title>Node6</title>
<g id="a_Node000006"><a xlink:href="classLogger.html#a6adb205db597526fb91ad20067400394" target="_top" xlink:title="Internal logging method.">
<polygon fill="white" stroke="#666666" points="879.5,-67.5 769.5,-67.5 769.5,-48.5 879.5,-48.5 879.5,-67.5"/>
<text text-anchor="middle" x="824.5" y="-55.5" font-family="Helvetica,sans-Serif" font-size="10.00">Logger::LogInternal</text>
</a>
</g>
</g>
<!-- Node4&#45;&gt;Node6 -->
<g id="edge5_Node000004_Node000006" class="edge">
<title>Node4&#45;&gt;Node6</title>
<g id="a_edge5_Node000004_Node000006"><a xlink:title=" ">
<path fill="none" stroke="#63b8ff" d="M706.84,-58C722.63,-58 741.31,-58 759.03,-58"/>
<polygon fill="#63b8ff" stroke="#63b8ff" points="759.33,-61.5 769.33,-58 759.33,-54.5 759.33,-61.5"/>
</a>
</g>
</g>
<!-- Node8&#45;&gt;Node5 -->
<g id="edge8_Node000008_Node000005" class="edge">
<title>Node8&#45;&gt;Node5</title>
<g id="a_edge8_Node000008_Node000005"><a xlink:title=" ">
<path fill="none" stroke="#63b8ff" d="M704.07,-95C717.68,-95 733.72,-95 749.55,-95"/>
<polygon fill="#63b8ff" stroke="#63b8ff" points="749.89,-98.5 759.89,-95 749.89,-91.5 749.89,-98.5"/>
</a>
</g>
</g>
<!-- Node8&#45;&gt;Node6 -->
<g id="edge9_Node000008_Node000006" class="edge">
<title>Node8&#45;&gt;Node6</title>
<g id="a_edge9_Node000008_Node000006"><a xlink:title=" ">
<path fill="none" stroke="#63b8ff" d="M704.07,-86.42C724.78,-81.49 751.09,-75.23 773.74,-69.84"/>
<polygon fill="#63b8ff" stroke="#63b8ff" points="774.61,-73.23 783.53,-67.51 772.99,-66.42 774.61,-73.23"/>
</a>
</g>
</g>
</g>
</svg>
