<?xml version="1.0" encoding="UTF-8" standalone="no"?>
<!DOCTYPE svg PUBLIC "-//W3C//DTD SVG 1.1//EN"
 "http://www.w3.org/Graphics/SVG/1.1/DTD/svg11.dtd">
<!-- Generated by graphviz version 2.43.0 (0)
 -->
<!-- Title: Tmc9660Handler::Adc::ReadChannelV Pages: 1 -->
<svg width="1280pt" height="113pt"
 viewBox="0.00 0.00 1280.00 112.50" xmlns="http://www.w3.org/2000/svg" xmlns:xlink="http://www.w3.org/1999/xlink">
<g id="graph0" class="graph" transform="scale(1 1) rotate(0) translate(4 108.5)">
<title>Tmc9660Handler::Adc::ReadChannelV</title>
<!-- Node1 -->
<g id="Node000001" class="node">
<title>Node1</title>
<g id="a_Node000001"><a xlink:title="Read a channel and return the voltage.">
<polygon fill="#999999" stroke="#666666" points="124,-51 0,-51 0,-21 124,-21 124,-51"/>
<text text-anchor="start" x="8" y="-39" font-family="Helvetica,sans-Serif" font-size="10.00">Tmc9660Handler::Adc</text>
<text text-anchor="middle" x="62" y="-28" font-family="Helvetica,sans-Serif" font-size="10.00">::ReadChannelV</text>
</a>
</g>
</g>
<!-- Node2 -->
<g id="Node000002" class="node">
<title>Node2</title>
<g id="a_Node000002"><a xlink:href="classTmc9660Handler.html#a393382194d0602e7aa02da6a8fd7a20a" target="_top" xlink:title="Get a reference to the Temperature wrapper.">
<polygon fill="white" stroke="#666666" points="327,-45.5 160,-45.5 160,-26.5 327,-26.5 327,-45.5"/>
<text text-anchor="middle" x="243.5" y="-33.5" font-family="Helvetica,sans-Serif" font-size="10.00">Tmc9660Handler::temperature</text>
</a>
</g>
</g>
<!-- Node1&#45;&gt;Node2 -->
<g id="edge1_Node000001_Node000002" class="edge">
<title>Node1&#45;&gt;Node2</title>
<g id="a_edge1_Node000001_Node000002"><a xlink:title=" ">
<path fill="none" stroke="#63b8ff" d="M124.02,-36C132.28,-36 140.89,-36 149.55,-36"/>
<polygon fill="#63b8ff" stroke="#63b8ff" points="149.71,-39.5 159.71,-36 149.71,-32.5 149.71,-39.5"/>
</a>
</g>
</g>
<!-- Node2&#45;&gt;Node2 -->
<g id="edge14_Node000002_Node000002" class="edge">
<title>Node2&#45;&gt;Node2</title>
<g id="a_edge14_Node000002_Node000002"><a xlink:title=" ">
<path fill="none" stroke="#63b8ff" d="M215.76,-45.58C202.26,-54.23 211.51,-63.5 243.5,-63.5 264.99,-63.5 276.22,-59.32 277.18,-53.95"/>
<polygon fill="#63b8ff" stroke="#63b8ff" points="279.89,-51.71 271.24,-45.58 274.18,-55.76 279.89,-51.71"/>
</a>
</g>
</g>
<!-- Node3 -->
<g id="Node000003" class="node">
<title>Node3</title>
<g id="a_Node000003"><a xlink:href="classTmc9660Handler.html#a5a279ae9d4b5a8e0d71cb24577ad88ea" target="_top" xlink:title="Ensure driver is initialized (lazy init entrypoint).">
<polygon fill="white" stroke="#666666" points="550,-45.5 363,-45.5 363,-26.5 550,-26.5 550,-45.5"/>
<text text-anchor="middle" x="456.5" y="-33.5" font-family="Helvetica,sans-Serif" font-size="10.00">Tmc9660Handler::EnsureInitialized</text>
</a>
</g>
</g>
<!-- Node2&#45;&gt;Node3 -->
<g id="edge2_Node000002_Node000003" class="edge">
<title>Node2&#45;&gt;Node3</title>
<g id="a_edge2_Node000002_Node000003"><a xlink:title=" ">
<path fill="none" stroke="#63b8ff" d="M327.29,-29.39C335.67,-29.29 344.25,-29.24 352.81,-29.25"/>
<polygon fill="#63b8ff" stroke="#63b8ff" points="352.81,-32.75 362.83,-29.29 352.84,-25.75 352.81,-32.75"/>
</a>
</g>
</g>
<!-- Node3&#45;&gt;Node2 -->
<g id="edge13_Node000003_Node000002" class="edge">
<title>Node3&#45;&gt;Node2</title>
<g id="a_edge13_Node000003_Node000002"><a xlink:title=" ">
<path fill="none" stroke="#63b8ff" d="M362.83,-42.71C354.42,-42.76 345.9,-42.76 337.48,-42.71"/>
<polygon fill="#63b8ff" stroke="#63b8ff" points="337.32,-39.21 327.29,-42.61 337.25,-46.21 337.32,-39.21"/>
</a>
</g>
</g>
<!-- Node4 -->
<g id="Node000004" class="node">
<title>Node4</title>
<g id="a_Node000004"><a xlink:href="classTmc9660Handler.html#a7c1d8073576d678b09dac24c9eb12845" target="_top" xlink:title="Ensure initialized while handler_mutex_ is already held.">
<polygon fill="white" stroke="#666666" points="773,-51 586,-51 586,-21 773,-21 773,-51"/>
<text text-anchor="start" x="594" y="-39" font-family="Helvetica,sans-Serif" font-size="10.00">Tmc9660Handler::EnsureInitialized</text>
<text text-anchor="middle" x="679.5" y="-28" font-family="Helvetica,sans-Serif" font-size="10.00">Locked</text>
</a>
</g>
</g>
<!-- Node3&#45;&gt;Node4 -->
<g id="edge3_Node000003_Node000004" class="edge">
<title>Node3&#45;&gt;Node4</title>
<g id="a_edge3_Node000003_Node000004"><a xlink:title=" ">
<path fill="none" stroke="#63b8ff" d="M550.26,-36C558.75,-36 567.39,-36 575.96,-36"/>
<polygon fill="#63b8ff" stroke="#63b8ff" points="575.97,-39.5 585.97,-36 575.97,-32.5 575.97,-39.5"/>
</a>
</g>
</g>
<!-- Node5 -->
<g id="Node000005" class="node">
<title>Node5</title>
<g id="a_Node000005"><a xlink:href="classTmc9660Handler.html#adc564847f8ae26c47412aaee0758991c" target="_top" xlink:title="Initialize the TMC9660 device.">
<polygon fill="white" stroke="#666666" points="957,-67.5 809,-67.5 809,-48.5 957,-48.5 957,-67.5"/>
<text text-anchor="middle" x="883" y="-55.5" font-family="Helvetica,sans-Serif" font-size="10.00">Tmc9660Handler::Initialize</text>
</a>
</g>
</g>
<!-- Node4&#45;&gt;Node5 -->
<g id="edge4_Node000004_Node000005" class="edge">
<title>Node4&#45;&gt;Node5</title>
<g id="a_edge4_Node000004_Node000005"><a xlink:title=" ">
<path fill="none" stroke="#63b8ff" d="M773.29,-46.13C781.73,-47.05 790.25,-47.98 798.61,-48.9"/>
<polygon fill="#63b8ff" stroke="#63b8ff" points="798.38,-52.39 808.7,-50 799.14,-45.43 798.38,-52.39"/>
</a>
</g>
</g>
<!-- Node11 -->
<g id="Node000011" class="node">
<title>Node11</title>
<g id="a_Node000011"><a xlink:href="classTmc9660Handler.html#a13db97d201a287d8aa60384e04070b9f" target="_top" xlink:title="Check if the TMC9660 driver has been initialized and is ready.">
<polygon fill="white" stroke="#666666" points="955,-30 811,-30 811,0 955,0 955,-30"/>
<text text-anchor="start" x="819" y="-18" font-family="Helvetica,sans-Serif" font-size="10.00">Tmc9660Handler::IsDriver</text>
<text text-anchor="middle" x="883" y="-7" font-family="Helvetica,sans-Serif" font-size="10.00">Ready</text>
</a>
</g>
</g>
<!-- Node4&#45;&gt;Node11 -->
<g id="edge12_Node000004_Node000011" class="edge">
<title>Node4&#45;&gt;Node11</title>
<g id="a_edge12_Node000004_Node000011"><a xlink:title=" ">
<path fill="none" stroke="#63b8ff" d="M773.29,-26.33C782.44,-25.38 791.69,-24.41 800.71,-23.47"/>
<polygon fill="#63b8ff" stroke="#63b8ff" points="801.21,-26.94 810.8,-22.42 800.49,-19.98 801.21,-26.94"/>
</a>
</g>
</g>
<!-- Node6 -->
<g id="Node000006" class="node">
<title>Node6</title>
<g id="a_Node000006"><a xlink:href="classLogger.html#adce17848a5844e053bfd314863dc1404" target="_top" xlink:title="Log error message.">
<polygon fill="white" stroke="#666666" points="1089.5,-67.5 1010.5,-67.5 1010.5,-48.5 1089.5,-48.5 1089.5,-67.5"/>
<text text-anchor="middle" x="1050" y="-55.5" font-family="Helvetica,sans-Serif" font-size="10.00">Logger::Error</text>
</a>
</g>
</g>
<!-- Node5&#45;&gt;Node6 -->
<g id="edge5_Node000005_Node000006" class="edge">
<title>Node5&#45;&gt;Node6</title>
<g id="a_edge5_Node000005_Node000006"><a xlink:title=" ">
<path fill="none" stroke="#63b8ff" d="M957.33,-58C971.73,-58 986.5,-58 999.87,-58"/>
<polygon fill="#63b8ff" stroke="#63b8ff" points="1000.26,-61.5 1010.26,-58 1000.26,-54.5 1000.26,-61.5"/>
</a>
</g>
</g>
<!-- Node9 -->
<g id="Node000009" class="node">
<title>Node9</title>
<g id="a_Node000009"><a xlink:href="classLogger.html#a5789d11f8f1356e2192c0023a089cbc4" target="_top" xlink:title="Get singleton instance.">
<polygon fill="white" stroke="#666666" points="1107,-30.5 993,-30.5 993,-11.5 1107,-11.5 1107,-30.5"/>
<text text-anchor="middle" x="1050" y="-18.5" font-family="Helvetica,sans-Serif" font-size="10.00">Logger::GetInstance</text>
</a>
</g>
</g>
<!-- Node5&#45;&gt;Node9 -->
<g id="edge8_Node000005_Node000009" class="edge">
<title>Node5&#45;&gt;Node9</title>
<g id="a_edge8_Node000005_Node000009"><a xlink:title=" ">
<path fill="none" stroke="#63b8ff" d="M926.49,-48.47C947.87,-43.68 973.97,-37.82 996.58,-32.75"/>
<polygon fill="#63b8ff" stroke="#63b8ff" points="997.37,-36.16 1006.37,-30.56 995.84,-29.33 997.37,-36.16"/>
</a>
</g>
</g>
<!-- Node10 -->
<g id="Node000010" class="node">
<title>Node10</title>
<g id="a_Node000010"><a xlink:href="classLogger.html#a4681229c521795685fc14f6b55c82300" target="_top" xlink:title="Log info message.">
<polygon fill="white" stroke="#666666" points="1087,-104.5 1013,-104.5 1013,-85.5 1087,-85.5 1087,-104.5"/>
<text text-anchor="middle" x="1050" y="-92.5" font-family="Helvetica,sans-Serif" font-size="10.00">Logger::Info</text>
</a>
</g>
</g>
<!-- Node5&#45;&gt;Node10 -->
<g id="edge9_Node000005_Node000010" class="edge">
<title>Node5&#45;&gt;Node10</title>
<g id="a_edge9_Node000005_Node000010"><a xlink:title=" ">
<path fill="none" stroke="#63b8ff" d="M926.49,-67.53C949.89,-72.77 978.94,-79.29 1002.89,-84.66"/>
<polygon fill="#63b8ff" stroke="#63b8ff" points="1002.28,-88.11 1012.8,-86.88 1003.81,-81.28 1002.28,-88.11"/>
</a>
</g>
</g>
<!-- Node7 -->
<g id="Node000007" class="node">
<title>Node7</title>
<g id="a_Node000007"><a xlink:href="classLogger.html#af9e84e0ff6bd538e4f9ed8dcebc3e2f0" target="_top" xlink:title="Check if log level is enabled for tag.">
<polygon fill="white" stroke="#666666" points="1272,-104.5 1143,-104.5 1143,-85.5 1272,-85.5 1272,-104.5"/>
<text text-anchor="middle" x="1207.5" y="-92.5" font-family="Helvetica,sans-Serif" font-size="10.00">Logger::IsLevelEnabled</text>
</a>
</g>
</g>
<!-- Node6&#45;&gt;Node7 -->
<g id="edge6_Node000006_Node000007" class="edge">
<title>Node6&#45;&gt;Node7</title>
<g id="a_edge6_Node000006_Node000007"><a xlink:title=" ">
<path fill="none" stroke="#63b8ff" d="M1089.84,-67.24C1110.03,-72.05 1134.94,-77.97 1156.55,-83.11"/>
<polygon fill="#63b8ff" stroke="#63b8ff" points="1156,-86.58 1166.53,-85.49 1157.62,-79.77 1156,-86.58"/>
</a>
</g>
</g>
<!-- Node8 -->
<g id="Node000008" class="node">
<title>Node8</title>
<g id="a_Node000008"><a xlink:href="classLogger.html#a6adb205db597526fb91ad20067400394" target="_top" xlink:title="Internal logging method.">
<polygon fill="white" stroke="#666666" points="1262.5,-67.5 1152.5,-67.5 1152.5,-48.5 1262.5,-48.5 1262.5,-67.5"/>
<text text-anchor="middle" x="1207.5" y="-55.5" font-family="Helvetica,sans-Serif" font-size="10.00">Logger::LogInternal</text>
</a>
</g>
</g>
<!-- Node6&#45;&gt;Node8 -->
<g id="edge7_Node000006_Node000008" class="edge">
<title>Node6&#45;&gt;Node8</title>
<g id="a_edge7_Node000006_Node000008"><a xlink:title=" ">
<path fill="none" stroke="#63b8ff" d="M1089.84,-58C1105.63,-58 1124.31,-58 1142.03,-58"/>
<polygon fill="#63b8ff" stroke="#63b8ff" points="1142.33,-61.5 1152.33,-58 1142.33,-54.5 1142.33,-61.5"/>
</a>
</g>
</g>
<!-- Node10&#45;&gt;Node7 -->
<g id="edge10_Node000010_Node000007" class="edge">
<title>Node10&#45;&gt;Node7</title>
<g id="a_edge10_Node000010_Node000007"><a xlink:title=" ">
<path fill="none" stroke="#63b8ff" d="M1087.07,-95C1100.68,-95 1116.72,-95 1132.55,-95"/>
<polygon fill="#63b8ff" stroke="#63b8ff" points="1132.89,-98.5 1142.89,-95 1132.89,-91.5 1132.89,-98.5"/>
</a>
</g>
</g>
<!-- Node10&#45;&gt;Node8 -->
<g id="edge11_Node000010_Node000008" class="edge">
<title>Node10&#45;&gt;Node8</title>
<g id="a_edge11_Node000010_Node000008"><a xlink:title=" ">
<path fill="none" stroke="#63b8ff" d="M1087.07,-86.42C1107.78,-81.49 1134.09,-75.23 1156.74,-69.84"/>
<polygon fill="#63b8ff" stroke="#63b8ff" points="1157.61,-73.23 1166.53,-67.51 1155.99,-66.42 1157.61,-73.23"/>
</a>
</g>
</g>
</g>
</svg>
