<?xml version="1.0" encoding="UTF-8" standalone="no"?>
<!DOCTYPE svg PUBLIC "-//W3C//DTD SVG 1.1//EN"
 "http://www.w3.org/Graphics/SVG/1.1/DTD/svg11.dtd">
<!-- Generated by graphviz version 2.43.0 (0)
 -->
<!-- Title: Ws2812Handler::DumpDiagnostics Pages: 1 -->
<svg width="904pt" height="138pt"
 viewBox="0.00 0.00 904.00 138.00" xmlns="http://www.w3.org/2000/svg" xmlns:xlink="http://www.w3.org/1999/xlink">
<g id="graph0" class="graph" transform="scale(1 1) rotate(0) translate(4 134)">
<title>Ws2812Handler::DumpDiagnostics</title>
<!-- Node1 -->
<g id="Node000001" class="node">
<title>Node1</title>
<g id="a_Node000001"><a xlink:title="Dump diagnostics to logger.">
<polygon fill="#999999" stroke="#666666" points="186,-40 0,-40 0,-21 186,-21 186,-40"/>
<text text-anchor="middle" x="93" y="-28" font-family="Helvetica,sans-Serif" font-size="10.00">Ws2812Handler::DumpDiagnostics</text>
</a>
</g>
</g>
<!-- Node2 -->
<g id="Node000002" class="node">
<title>Node2</title>
<g id="a_Node000002"><a xlink:href="classWs2812Handler.html#afe5f397b22e9b92cf2fb2cebae6e123d" target="_top" xlink:title=" ">
<polygon fill="white" stroke="#666666" points="403,-67.5 222,-67.5 222,-37.5 403,-37.5 403,-67.5"/>
<text text-anchor="start" x="230" y="-55.5" font-family="Helvetica,sans-Serif" font-size="10.00">Ws2812Handler::EnsureInitialized</text>
<text text-anchor="middle" x="312.5" y="-44.5" font-family="Helvetica,sans-Serif" font-size="10.00">Locked</text>
</a>
</g>
</g>
<!-- Node1&#45;&gt;Node2 -->
<g id="edge1_Node000001_Node000002" class="edge">
<title>Node1&#45;&gt;Node2</title>
<g id="a_edge1_Node000001_Node000002"><a xlink:title=" ">
<path fill="none" stroke="#63b8ff" d="M186.24,-39.83C194.73,-40.69 203.35,-41.56 211.9,-42.43"/>
<polygon fill="#63b8ff" stroke="#63b8ff" points="211.59,-45.91 221.89,-43.44 212.29,-38.95 211.59,-45.91"/>
</a>
</g>
</g>
<!-- Node7 -->
<g id="Node000007" class="node">
<title>Node7</title>
<g id="a_Node000007"><a xlink:href="classLogger.html#a5789d11f8f1356e2192c0023a089cbc4" target="_top" xlink:title="Get singleton instance.">
<polygon fill="white" stroke="#666666" points="731,-19 617,-19 617,0 731,0 731,-19"/>
<text text-anchor="middle" x="674" y="-7" font-family="Helvetica,sans-Serif" font-size="10.00">Logger::GetInstance</text>
</a>
</g>
</g>
<!-- Node1&#45;&gt;Node7 -->
<g id="edge13_Node000001_Node000007" class="edge">
<title>Node1&#45;&gt;Node7</title>
<g id="a_edge13_Node000001_Node000007"><a xlink:title=" ">
<path fill="none" stroke="#63b8ff" d="M186.06,-27.16C303.4,-22.91 503.4,-15.65 606.77,-11.9"/>
<polygon fill="#63b8ff" stroke="#63b8ff" points="606.9,-15.4 616.77,-11.54 606.65,-8.4 606.9,-15.4"/>
</a>
</g>
</g>
<!-- Node3 -->
<g id="Node000003" class="node">
<title>Node3</title>
<g id="a_Node000003"><a xlink:href="classWs2812Handler.html#acce4955435f295ba4853b6239090982f" target="_top" xlink:title="Initialize the RMT channel and LED strip.">
<polygon fill="white" stroke="#666666" points="581,-62 439,-62 439,-43 581,-43 581,-62"/>
<text text-anchor="middle" x="510" y="-50" font-family="Helvetica,sans-Serif" font-size="10.00">Ws2812Handler::Initialize</text>
</a>
</g>
</g>
<!-- Node2&#45;&gt;Node3 -->
<g id="edge2_Node000002_Node000003" class="edge">
<title>Node2&#45;&gt;Node3</title>
<g id="a_edge2_Node000002_Node000003"><a xlink:title=" ">
<path fill="none" stroke="#63b8ff" d="M403.24,-52.5C411.73,-52.5 420.3,-52.5 428.7,-52.5"/>
<polygon fill="#63b8ff" stroke="#63b8ff" points="428.84,-56 438.84,-52.5 428.84,-49 428.84,-56"/>
</a>
</g>
</g>
<!-- Node4 -->
<g id="Node000004" class="node">
<title>Node4</title>
<g id="a_Node000004"><a xlink:href="classLogger.html#adce17848a5844e053bfd314863dc1404" target="_top" xlink:title="Log error message.">
<polygon fill="white" stroke="#666666" points="713.5,-130 634.5,-130 634.5,-111 713.5,-111 713.5,-130"/>
<text text-anchor="middle" x="674" y="-118" font-family="Helvetica,sans-Serif" font-size="10.00">Logger::Error</text>
</a>
</g>
</g>
<!-- Node3&#45;&gt;Node4 -->
<g id="edge3_Node000003_Node000004" class="edge">
<title>Node3&#45;&gt;Node4</title>
<g id="a_edge3_Node000003_Node000004"><a xlink:title=" ">
<path fill="none" stroke="#63b8ff" d="M529.44,-62.1C550.34,-72.76 585.58,-90.1 617,-102.5 621.51,-104.28 626.28,-106.02 631.05,-107.67"/>
<polygon fill="#63b8ff" stroke="#63b8ff" points="630.17,-111.07 640.76,-110.93 632.39,-104.43 630.17,-111.07"/>
</a>
</g>
</g>
<!-- Node3&#45;&gt;Node7 -->
<g id="edge6_Node000003_Node000007" class="edge">
<title>Node3&#45;&gt;Node7</title>
<g id="a_edge6_Node000003_Node000007"><a xlink:title=" ">
<path fill="none" stroke="#63b8ff" d="M546.95,-42.96C570.65,-36.67 601.9,-28.37 627.35,-21.62"/>
<polygon fill="#63b8ff" stroke="#63b8ff" points="628.38,-24.96 637.15,-19.02 626.58,-18.2 628.38,-24.96"/>
</a>
</g>
</g>
<!-- Node8 -->
<g id="Node000008" class="node">
<title>Node8</title>
<g id="a_Node000008"><a xlink:href="classLogger.html#a4681229c521795685fc14f6b55c82300" target="_top" xlink:title="Log info message.">
<polygon fill="white" stroke="#666666" points="711,-93 637,-93 637,-74 711,-74 711,-93"/>
<text text-anchor="middle" x="674" y="-81" font-family="Helvetica,sans-Serif" font-size="10.00">Logger::Info</text>
</a>
</g>
</g>
<!-- Node3&#45;&gt;Node8 -->
<g id="edge7_Node000003_Node000008" class="edge">
<title>Node3&#45;&gt;Node8</title>
<g id="a_edge7_Node000003_Node000008"><a xlink:title=" ">
<path fill="none" stroke="#63b8ff" d="M560.93,-62.05C581.92,-66.07 606.2,-70.72 626.78,-74.66"/>
<polygon fill="#63b8ff" stroke="#63b8ff" points="626.38,-78.14 636.86,-76.59 627.7,-71.27 626.38,-78.14"/>
</a>
</g>
</g>
<!-- Node9 -->
<g id="Node000009" class="node">
<title>Node9</title>
<g id="a_Node000009"><a xlink:href="classLogger.html#aaa95ffa14d07a965d4a85bdec82cba26" target="_top" xlink:title="Log warning message.">
<polygon fill="white" stroke="#666666" points="714,-56 634,-56 634,-37 714,-37 714,-56"/>
<text text-anchor="middle" x="674" y="-44" font-family="Helvetica,sans-Serif" font-size="10.00">Logger::Warn</text>
</a>
</g>
</g>
<!-- Node3&#45;&gt;Node9 -->
<g id="edge10_Node000003_Node000009" class="edge">
<title>Node3&#45;&gt;Node9</title>
<g id="a_edge10_Node000003_Node000009"><a xlink:title=" ">
<path fill="none" stroke="#63b8ff" d="M581.11,-49.9C595.28,-49.38 609.91,-48.84 623.2,-48.34"/>
<polygon fill="#63b8ff" stroke="#63b8ff" points="623.69,-51.83 633.55,-47.96 623.43,-44.83 623.69,-51.83"/>
</a>
</g>
</g>
<!-- Node5 -->
<g id="Node000005" class="node">
<title>Node5</title>
<g id="a_Node000005"><a xlink:href="classLogger.html#af9e84e0ff6bd538e4f9ed8dcebc3e2f0" target="_top" xlink:title="Check if log level is enabled for tag.">
<polygon fill="white" stroke="#666666" points="896,-111 767,-111 767,-92 896,-92 896,-111"/>
<text text-anchor="middle" x="831.5" y="-99" font-family="Helvetica,sans-Serif" font-size="10.00">Logger::IsLevelEnabled</text>
</a>
</g>
</g>
<!-- Node4&#45;&gt;Node5 -->
<g id="edge4_Node000004_Node000005" class="edge">
<title>Node4&#45;&gt;Node5</title>
<g id="a_edge4_Node000004_Node000005"><a xlink:title=" ">
<path fill="none" stroke="#63b8ff" d="M713.84,-115.75C726.85,-114.16 741.82,-112.34 756.6,-110.53"/>
<polygon fill="#63b8ff" stroke="#63b8ff" points="757.28,-113.97 766.78,-109.29 756.43,-107.02 757.28,-113.97"/>
</a>
</g>
</g>
<!-- Node6 -->
<g id="Node000006" class="node">
<title>Node6</title>
<g id="a_Node000006"><a xlink:href="classLogger.html#a6adb205db597526fb91ad20067400394" target="_top" xlink:title="Internal logging method.">
<polygon fill="white" stroke="#666666" points="886.5,-74 776.5,-74 776.5,-55 886.5,-55 886.5,-74"/>
<text text-anchor="middle" x="831.5" y="-62" font-family="Helvetica,sans-Serif" font-size="10.00">Logger::LogInternal</text>
</a>
</g>
</g>
<!-- Node4&#45;&gt;Node6 -->
<g id="edge5_Node000004_Node000006" class="edge">
<title>Node4&#45;&gt;Node6</title>
<g id="a_edge5_Node000004_Node000006"><a xlink:title=" ">
<path fill="none" stroke="#63b8ff" d="M707.92,-110.98C715.59,-108.47 723.66,-105.59 731,-102.5 747.68,-95.48 750.25,-90.35 767,-83.5 772.53,-81.24 778.42,-79.12 784.31,-77.16"/>
<polygon fill="#63b8ff" stroke="#63b8ff" points="785.67,-80.41 794.14,-74.05 783.55,-73.73 785.67,-80.41"/>
</a>
</g>
</g>
<!-- Node8&#45;&gt;Node5 -->
<g id="edge8_Node000008_Node000005" class="edge">
<title>Node8&#45;&gt;Node5</title>
<g id="a_edge8_Node000008_Node000005"><a xlink:title=" ">
<path fill="none" stroke="#63b8ff" d="M711.07,-87.67C724.68,-89.25 740.72,-91.11 756.55,-92.94"/>
<polygon fill="#63b8ff" stroke="#63b8ff" points="756.55,-96.46 766.89,-94.14 757.36,-89.51 756.55,-96.46"/>
</a>
</g>
</g>
<!-- Node8&#45;&gt;Node6 -->
<g id="edge9_Node000008_Node000006" class="edge">
<title>Node8&#45;&gt;Node6</title>
<g id="a_edge9_Node000008_Node000006"><a xlink:title=" ">
<path fill="none" stroke="#63b8ff" d="M711.07,-79.09C727.49,-77.09 747.44,-74.65 766.3,-72.34"/>
<polygon fill="#63b8ff" stroke="#63b8ff" points="766.83,-75.81 776.33,-71.12 765.98,-68.86 766.83,-75.81"/>
</a>
</g>
</g>
<!-- Node9&#45;&gt;Node5 -->
<g id="edge11_Node000009_Node000005" class="edge">
<title>Node9&#45;&gt;Node5</title>
<g id="a_edge11_Node000009_Node000005"><a xlink:title=" ">
<path fill="none" stroke="#63b8ff" d="M705.51,-56.01C713.86,-58.84 722.85,-62.1 731,-65.5 747.51,-72.39 750.32,-77.03 767,-83.5 772.07,-85.47 777.45,-87.33 782.85,-89.05"/>
<polygon fill="#63b8ff" stroke="#63b8ff" points="781.92,-92.42 792.51,-91.99 783.96,-85.73 781.92,-92.42"/>
</a>
</g>
</g>
<!-- Node9&#45;&gt;Node6 -->
<g id="edge12_Node000009_Node000006" class="edge">
<title>Node9&#45;&gt;Node6</title>
<g id="a_edge12_Node000009_Node000006"><a xlink:title=" ">
<path fill="none" stroke="#63b8ff" d="M714.24,-51.04C729.96,-52.86 748.49,-55.01 766.08,-57.04"/>
<polygon fill="#63b8ff" stroke="#63b8ff" points="765.96,-60.55 776.3,-58.23 766.77,-53.6 765.96,-60.55"/>
</a>
</g>
</g>
</g>
</svg>
