<?xml version="1.0" encoding="UTF-8" standalone="no"?>
<!DOCTYPE svg PUBLIC "-//W3C//DTD SVG 1.1//EN"
 "http://www.w3.org/Graphics/SVG/1.1/DTD/svg11.dtd">
<!-- Generated by graphviz version 2.43.0 (0)
 -->
<!-- Title: Bno08xHandler::applyConfigLocked Pages: 1 -->
<svg width="1137pt" height="64pt"
 viewBox="0.00 0.00 1137.00 64.00" xmlns="http://www.w3.org/2000/svg" xmlns:xlink="http://www.w3.org/1999/xlink">
<g id="graph0" class="graph" transform="scale(1 1) rotate(0) translate(4 60)">
<title>Bno08xHandler::applyConfigLocked</title>
<!-- Node1 -->
<g id="Node000001" class="node">
<title>Node1</title>
<g id="a_Node000001"><a xlink:title="Internal: apply configuration (assumes mutex is held).">
<polygon fill="#999999" stroke="#666666" points="1129,-42.5 974,-42.5 974,-12.5 1129,-12.5 1129,-42.5"/>
<text text-anchor="start" x="982" y="-30.5" font-family="Helvetica,sans-Serif" font-size="10.00">Bno08xHandler::applyConfig</text>
<text text-anchor="middle" x="1051.5" y="-19.5" font-family="Helvetica,sans-Serif" font-size="10.00">Locked</text>
</a>
</g>
</g>
<!-- Node2 -->
<g id="Node000002" class="node">
<title>Node2</title>
<g id="a_Node000002"><a xlink:href="classBno08xHandler.html#ac1a1ff0d56324dcc09d9b48ca2e132e6" target="_top" xlink:title="Initialize the BNO08x sensor.">
<polygon fill="white" stroke="#666666" points="938,-37 798,-37 798,-18 938,-18 938,-37"/>
<text text-anchor="middle" x="868" y="-25" font-family="Helvetica,sans-Serif" font-size="10.00">Bno08xHandler::Initialize</text>
</a>
</g>
</g>
<!-- Node1&#45;&gt;Node2 -->
<g id="edge1_Node000001_Node000002" class="edge">
<title>Node1&#45;&gt;Node2</title>
<g id="a_edge1_Node000001_Node000002"><a xlink:title=" ">
<path fill="none" stroke="#63b8ff" d="M963.77,-27.5C955.2,-27.5 946.59,-27.5 938.23,-27.5"/>
<polygon fill="#63b8ff" stroke="#63b8ff" points="963.79,-31 973.79,-27.5 963.79,-24 963.79,-31"/>
</a>
</g>
</g>
<!-- Node3 -->
<g id="Node000003" class="node">
<title>Node3</title>
<g id="a_Node000003"><a xlink:href="classBno08xHandler.html#a0479abc034d5417ba7dc524468a5ce82" target="_top" xlink:title="Internal: ensure initialized (assumes mutex is held).">
<polygon fill="white" stroke="#666666" points="762,-42.5 583,-42.5 583,-12.5 762,-12.5 762,-42.5"/>
<text text-anchor="start" x="591" y="-30.5" font-family="Helvetica,sans-Serif" font-size="10.00">Bno08xHandler::ensureInitialized</text>
<text text-anchor="middle" x="672.5" y="-19.5" font-family="Helvetica,sans-Serif" font-size="10.00">Locked</text>
</a>
</g>
</g>
<!-- Node2&#45;&gt;Node3 -->
<g id="edge2_Node000002_Node000003" class="edge">
<title>Node2&#45;&gt;Node3</title>
<g id="a_edge2_Node000002_Node000003"><a xlink:title=" ">
<path fill="none" stroke="#63b8ff" d="M787.76,-27.5C779.31,-27.5 770.68,-27.5 762.13,-27.5"/>
<polygon fill="#63b8ff" stroke="#63b8ff" points="787.96,-31 797.96,-27.5 787.96,-24 787.96,-31"/>
</a>
</g>
</g>
<!-- Node4 -->
<g id="Node000004" class="node">
<title>Node4</title>
<g id="a_Node000004"><a xlink:href="classBno08xHandler.html#afab341345c8ed8fed1a218e0df18c4aa" target="_top" xlink:title="Ensure the BNO08x is initialized (lazy init entrypoint).">
<polygon fill="white" stroke="#666666" points="547,-56 368,-56 368,-37 547,-37 547,-56"/>
<text text-anchor="middle" x="457.5" y="-44" font-family="Helvetica,sans-Serif" font-size="10.00">Bno08xHandler::EnsureInitialized</text>
</a>
</g>
</g>
<!-- Node3&#45;&gt;Node4 -->
<g id="edge3_Node000003_Node000004" class="edge">
<title>Node3&#45;&gt;Node4</title>
<g id="a_edge3_Node000003_Node000004"><a xlink:title=" ">
<path fill="none" stroke="#63b8ff" d="M572.73,-36.31C564.2,-37.07 555.59,-37.84 547.14,-38.59"/>
<polygon fill="#63b8ff" stroke="#63b8ff" points="573.06,-39.79 582.71,-35.42 572.44,-32.82 573.06,-39.79"/>
</a>
</g>
</g>
<!-- Node7 -->
<g id="Node000007" class="node">
<title>Node7</title>
<g id="a_Node000007"><a xlink:href="classBno08xHandler.html#a74cdf0328224c1a3fad944bbf1312e7e" target="_top" xlink:title="Update sensor &#45; must be called regularly to pump the SH&#45;2 service loop.">
<polygon fill="white" stroke="#666666" points="524,-19 391,-19 391,0 524,0 524,-19"/>
<text text-anchor="middle" x="457.5" y="-7" font-family="Helvetica,sans-Serif" font-size="10.00">Bno08xHandler::Update</text>
</a>
</g>
</g>
<!-- Node3&#45;&gt;Node7 -->
<g id="edge6_Node000003_Node000007" class="edge">
<title>Node3&#45;&gt;Node7</title>
<g id="a_edge6_Node000003_Node000007"><a xlink:title=" ">
<path fill="none" stroke="#63b8ff" d="M572.53,-19.14C556.1,-17.75 539.43,-16.34 524.1,-15.04"/>
<polygon fill="#63b8ff" stroke="#63b8ff" points="572.45,-22.64 582.71,-20 573.04,-15.67 572.45,-22.64"/>
</a>
</g>
</g>
<!-- Node5 -->
<g id="Node000005" class="node">
<title>Node5</title>
<g id="a_Node000005"><a xlink:href="classBno08xHandler.html#a57e2952c0438e800c091cd0e3ebcdaf5" target="_top" xlink:title="Get direct access to the underlying sensor driver (type&#45;erased).">
<polygon fill="white" stroke="#666666" points="332,-56 184,-56 184,-37 332,-37 332,-56"/>
<text text-anchor="middle" x="258" y="-44" font-family="Helvetica,sans-Serif" font-size="10.00">Bno08xHandler::GetSensor</text>
</a>
</g>
</g>
<!-- Node4&#45;&gt;Node5 -->
<g id="edge4_Node000004_Node000005" class="edge">
<title>Node4&#45;&gt;Node5</title>
<g id="a_edge4_Node000004_Node000005"><a xlink:title=" ">
<path fill="none" stroke="#63b8ff" d="M357.79,-46.5C349.2,-46.5 340.61,-46.5 332.28,-46.5"/>
<polygon fill="#63b8ff" stroke="#63b8ff" points="357.86,-50 367.86,-46.5 357.86,-43 357.86,-50"/>
</a>
</g>
</g>
<!-- Node6 -->
<g id="Node000006" class="node">
<title>Node6</title>
<g id="a_Node000006"><a xlink:href="classBno08xHandler.html#abf3a81e646ebd6dd0a10890e5be21d6d" target="_top" xlink:title="Const overload of GetSensor().">
<polygon fill="white" stroke="#666666" points="148,-56 0,-56 0,-37 148,-37 148,-56"/>
<text text-anchor="middle" x="74" y="-44" font-family="Helvetica,sans-Serif" font-size="10.00">Bno08xHandler::GetSensor</text>
</a>
</g>
</g>
<!-- Node5&#45;&gt;Node6 -->
<g id="edge5_Node000005_Node000006" class="edge">
<title>Node5&#45;&gt;Node6</title>
<g id="a_edge5_Node000005_Node000006"><a xlink:title=" ">
<path fill="none" stroke="#63b8ff" d="M173.48,-46.5C165.01,-46.5 156.44,-46.5 148.09,-46.5"/>
<polygon fill="#63b8ff" stroke="#63b8ff" points="173.76,-50 183.76,-46.5 173.76,-43 173.76,-50"/>
</a>
</g>
</g>
</g>
</svg>
