<?xml version="1.0" encoding="UTF-8" standalone="no"?>
<!DOCTYPE svg PUBLIC "-//W3C//DTD SVG 1.1//EN"
 "http://www.w3.org/Graphics/SVG/1.1/DTD/svg11.dtd">
<!-- Generated by graphviz version 2.43.0 (0)
 -->
<!-- Title: handlers Pages: 1 -->
<svg width="728pt" height="169pt"
 viewBox="0.00 0.00 728.00 169.00" xmlns="http://www.w3.org/2000/svg" xmlns:xlink="http://www.w3.org/1999/xlink">
<g id="graph0" class="graph" transform="scale(1 1) rotate(0) translate(4 165)">
<title>handlers</title>
<g id="clust1" class="cluster">
<title>clusterdir_97bbe734eff8d6674660850430e62f3c</title>
<g id="a_clust1"><a xlink:href="dir_97bbe734eff8d6674660850430e62f3c.html" target="_top">
<polygon fill="#edf0f7" stroke="#404040" stroke-width="2" points="8,-8 8,-153 712,-153 712,-8 8,-8"/>
</a>
</g>
</g>
<!-- dir_97bbe734eff8d6674660850430e62f3c -->
<g id="node1" class="node">
<title>dir_97bbe734eff8d6674660850430e62f3c</title>
<text text-anchor="middle" x="674" y="-133" font-family="Helvetica,sans-Serif" font-size="10.00">handlers</text>
</g>
<!-- dir_c9131abf6ca5a874fb64ad18ea247de4 -->
<g id="node2" class="node">
<title>dir_c9131abf6ca5a874fb64ad18ea247de4</title>
<g id="a_node2"><a xlink:href="dir_c9131abf6ca5a874fb64ad18ea247de4.html" target="_top" xlink:title="ads7952">
<polygon fill="#a2b4d6" stroke="#404040" points="663,-90 605,-90 605,-71 663,-71 663,-90"/>
<text text-anchor="middle" x="634" y="-78" font-family="Helvetica,sans-Serif" font-size="10.00">ads7952</text>
</a>
</g>
</g>
<!-- dir_7848ed0c40c68eb13e368aca028ebfa2 -->
<g id="node8" class="node">
<title>dir_7848ed0c40c68eb13e368aca028ebfa2</title>
<g id="a_node8"><a xlink:href="dir_7848ed0c40c68eb13e368aca028ebfa2.html" target="_top" xlink:title="logger">
<polygon fill="#a2b4d6" stroke="#404040" points="363.5,-35 316.5,-35 316.5,-16 363.5,-16 363.5,-35"/>
<text text-anchor="middle" x="340" y="-23" font-family="Helvetica,sans-Serif" font-size="10.00">logger</text>
</a>
</g>
</g>
<!-- dir_c9131abf6ca5a874fb64ad18ea247de4&#45;&gt;dir_7848ed0c40c68eb13e368aca028ebfa2 -->
<g id="edge1" class="edge">
<title>dir_c9131abf6ca5a874fb64ad18ea247de4&#45;&gt;dir_7848ed0c40c68eb13e368aca028ebfa2</title>
<g id="a_edge1"><a xlink:href="dir_000000_000013.html" target="_top">
<path fill="none" stroke="#63b8ff" d="M604.98,-72.86C601.95,-72.21 598.92,-71.58 596,-71 516.65,-55.24 422.84,-39.72 373.77,-31.84"/>
<polygon fill="#63b8ff" stroke="#63b8ff" points="374.14,-28.36 363.72,-30.23 373.04,-35.27 374.14,-28.36"/>
</a>
</g>
<g id="a_edge1&#45;headlabel"><a xlink:href="dir_000000_000013.html" target="_top" xlink:title="1">
<text text-anchor="middle" x="378.14" y="-23.62" font-family="Helvetica,sans-Serif" font-size="10.00" fill="#63b8ff">1</text>
</a>
</g>
</g>
<!-- dir_f55df0fcbd68c260c7750a9f66ca4de0 -->
<g id="node3" class="node">
<title>dir_f55df0fcbd68c260c7750a9f66ca4de0</title>
<g id="a_node3"><a xlink:href="dir_f55df0fcbd68c260c7750a9f66ca4de0.html" target="_top" xlink:title="alicat_basis2">
<polygon fill="#a2b4d6" stroke="#404040" points="626,-145 546,-145 546,-126 626,-126 626,-145"/>
<text text-anchor="middle" x="586" y="-133" font-family="Helvetica,sans-Serif" font-size="10.00">alicat_basis2</text>
</a>
</g>
</g>
<!-- dir_397eef0de592f1461c8076a52d8e83a1 -->
<g id="node4" class="node">
<title>dir_397eef0de592f1461c8076a52d8e83a1</title>
<g id="a_node4"><a xlink:href="dir_397eef0de592f1461c8076a52d8e83a1.html" target="_top" xlink:title="as5047u">
<polygon fill="#a2b4d6" stroke="#404040" points="587,-90 529,-90 529,-71 587,-71 587,-90"/>
<text text-anchor="middle" x="558" y="-78" font-family="Helvetica,sans-Serif" font-size="10.00">as5047u</text>
</a>
</g>
</g>
<!-- dir_397eef0de592f1461c8076a52d8e83a1&#45;&gt;dir_7848ed0c40c68eb13e368aca028ebfa2 -->
<g id="edge2" class="edge">
<title>dir_397eef0de592f1461c8076a52d8e83a1&#45;&gt;dir_7848ed0c40c68eb13e368aca028ebfa2</title>
<g id="a_edge2"><a xlink:href="dir_000002_000013.html" target="_top">
<path fill="none" stroke="#63b8ff" d="M528.6,-72.35C488.23,-62.54 415.83,-44.94 373.44,-34.63"/>
<polygon fill="#63b8ff" stroke="#63b8ff" points="374.15,-31.2 363.6,-32.24 372.49,-38 374.15,-31.2"/>
</a>
</g>
<g id="a_edge2&#45;headlabel"><a xlink:href="dir_000002_000013.html" target="_top" xlink:title="1">
<text text-anchor="middle" x="378.31" y="-26.79" font-family="Helvetica,sans-Serif" font-size="10.00" fill="#63b8ff">1</text>
</a>
</g>
</g>
<!-- dir_a88fe424bb0735aa27657000de5e7f0c -->
<g id="node5" class="node">
<title>dir_a88fe424bb0735aa27657000de5e7f0c</title>
<g id="a_node5"><a xlink:href="dir_a88fe424bb0735aa27657000de5e7f0c.html" target="_top" xlink:title="bno08x">
<polygon fill="#a2b4d6" stroke="#404040" points="510.5,-90 457.5,-90 457.5,-71 510.5,-71 510.5,-90"/>
<text text-anchor="middle" x="484" y="-78" font-family="Helvetica,sans-Serif" font-size="10.00">bno08x</text>
</a>
</g>
</g>
<!-- dir_a88fe424bb0735aa27657000de5e7f0c&#45;&gt;dir_7848ed0c40c68eb13e368aca028ebfa2 -->
<g id="edge3" class="edge">
<title>dir_a88fe424bb0735aa27657000de5e7f0c&#45;&gt;dir_7848ed0c40c68eb13e368aca028ebfa2</title>
<g id="a_edge3"><a xlink:href="dir_000003_000013.html" target="_top">
<path fill="none" stroke="#63b8ff" d="M460.86,-70.98C437.18,-62.27 400.13,-48.63 373.29,-38.75"/>
<polygon fill="#63b8ff" stroke="#63b8ff" points="374.15,-35.34 363.56,-35.17 371.73,-41.91 374.15,-35.34"/>
</a>
</g>
<g id="a_edge3&#45;headlabel"><a xlink:href="dir_000003_000013.html" target="_top" xlink:title="1">
<text text-anchor="middle" x="378.5" y="-31.42" font-family="Helvetica,sans-Serif" font-size="10.00" fill="#63b8ff">1</text>
</a>
</g>
</g>
<!-- dir_52ff2686f796482dae89c725c32853bb -->
<g id="node6" class="node">
<title>dir_52ff2686f796482dae89c725c32853bb</title>
<g id="a_node6"><a xlink:href="dir_52ff2686f796482dae89c725c32853bb.html" target="_top" xlink:title="common">
<polygon fill="#a2b4d6" stroke="#404040" points="186.5,-90 127.5,-90 127.5,-71 186.5,-71 186.5,-90"/>
<text text-anchor="middle" x="157" y="-78" font-family="Helvetica,sans-Serif" font-size="10.00">common</text>
</a>
</g>
</g>
<!-- dir_52ff2686f796482dae89c725c32853bb&#45;&gt;dir_7848ed0c40c68eb13e368aca028ebfa2 -->
<g id="edge4" class="edge">
<title>dir_52ff2686f796482dae89c725c32853bb&#45;&gt;dir_7848ed0c40c68eb13e368aca028ebfa2</title>
<g id="a_edge4"><a xlink:href="dir_000005_000013.html" target="_top">
<path fill="none" stroke="#63b8ff" d="M186.4,-70.98C219.18,-61.49 272.09,-46.17 306.46,-36.21"/>
<polygon fill="#63b8ff" stroke="#63b8ff" points="307.86,-39.45 316.49,-33.31 305.91,-32.73 307.86,-39.45"/>
</a>
</g>
<g id="a_edge4&#45;headlabel"><a xlink:href="dir_000005_000013.html" target="_top" xlink:title="1">
<text text-anchor="middle" x="305.19" y="-40.68" font-family="Helvetica,sans-Serif" font-size="10.00" fill="#63b8ff">1</text>
</a>
</g>
</g>
<!-- dir_b79efd7c88898ee82b9bbb2bde8e7229 -->
<g id="node7" class="node">
<title>dir_b79efd7c88898ee82b9bbb2bde8e7229</title>
<g id="a_node7"><a xlink:href="dir_b79efd7c88898ee82b9bbb2bde8e7229.html" target="_top" xlink:title="fdo2">
<polygon fill="#a2b4d6" stroke="#404040" points="528,-145 490,-145 490,-126 528,-126 528,-145"/>
<text text-anchor="middle" x="509" y="-133" font-family="Helvetica,sans-Serif" font-size="10.00">fdo2</text>
</a>
</g>
</g>
<!-- dir_0a473e29603899b4f71d8768160d1d9b -->
<g id="node9" class="node">
<title>dir_0a473e29603899b4f71d8768160d1d9b</title>
<g id="a_node9"><a xlink:href="dir_0a473e29603899b4f71d8768160d1d9b.html" target="_top" xlink:title="max22200">
<polygon fill="#a2b4d6" stroke="#404040" points="472,-145 404,-145 404,-126 472,-126 472,-145"/>
<text text-anchor="middle" x="438" y="-133" font-family="Helvetica,sans-Serif" font-size="10.00">max22200</text>
</a>
</g>
</g>
<!-- dir_0a473e29603899b4f71d8768160d1d9b&#45;&gt;dir_52ff2686f796482dae89c725c32853bb -->
<g id="edge5" class="edge">
<title>dir_0a473e29603899b4f71d8768160d1d9b&#45;&gt;dir_52ff2686f796482dae89c725c32853bb</title>
<g id="a_edge5"><a xlink:href="dir_000015_000005.html" target="_top">
<path fill="none" stroke="#63b8ff" d="M403.74,-127.69C400.78,-127.12 397.84,-126.55 395,-126 325.35,-112.6 244.11,-97.53 196.83,-88.82"/>
<polygon fill="#63b8ff" stroke="#63b8ff" points="197.17,-85.32 186.7,-86.95 195.9,-92.21 197.17,-85.32"/>
</a>
</g>
<g id="a_edge5&#45;headlabel"><a xlink:href="dir_000015_000005.html" target="_top" xlink:title="1">
<text text-anchor="middle" x="201.22" y="-80.68" font-family="Helvetica,sans-Serif" font-size="10.00" fill="#63b8ff">1</text>
</a>
</g>
</g>
<!-- dir_0a473e29603899b4f71d8768160d1d9b&#45;&gt;dir_7848ed0c40c68eb13e368aca028ebfa2 -->
<g id="edge6" class="edge">
<title>dir_0a473e29603899b4f71d8768160d1d9b&#45;&gt;dir_7848ed0c40c68eb13e368aca028ebfa2</title>
<g id="a_edge6"><a xlink:href="dir_000015_000013.html" target="_top">
<path fill="none" stroke="#63b8ff" d="M438.97,-125.77C439.97,-112.59 439.96,-87.42 428,-71 414.87,-52.97 392.31,-41.76 373.32,-35.11"/>
<polygon fill="#63b8ff" stroke="#63b8ff" points="374.38,-31.77 363.79,-32.03 372.23,-38.43 374.38,-31.77"/>
</a>
</g>
<g id="a_edge6&#45;headlabel"><a xlink:href="dir_000015_000013.html" target="_top" xlink:title="1">
<text text-anchor="middle" x="378.67" y="-27.67" font-family="Helvetica,sans-Serif" font-size="10.00" fill="#63b8ff">1</text>
</a>
</g>
</g>
<!-- dir_563a1141a8fe29095e6ac977154154a0 -->
<g id="node10" class="node">
<title>dir_563a1141a8fe29095e6ac977154154a0</title>
<g id="a_node10"><a xlink:href="dir_563a1141a8fe29095e6ac977154154a0.html" target="_top" xlink:title="mcp9700">
<polygon fill="#a2b4d6" stroke="#404040" points="386,-145 324,-145 324,-126 386,-126 386,-145"/>
<text text-anchor="middle" x="355" y="-133" font-family="Helvetica,sans-Serif" font-size="10.00">mcp9700</text>
</a>
</g>
</g>
<!-- dir_578b1697af9bfc63cf33b892db3f6e33 -->
<g id="node11" class="node">
<title>dir_578b1697af9bfc63cf33b892db3f6e33</title>
<g id="a_node11"><a xlink:href="dir_578b1697af9bfc63cf33b892db3f6e33.html" target="_top" xlink:title="ntc">
<polygon fill="#a2b4d6" stroke="#404040" points="419,-90 387,-90 387,-71 419,-71 419,-90"/>
<text text-anchor="middle" x="403" y="-78" font-family="Helvetica,sans-Serif" font-size="10.00">ntc</text>
</a>
</g>
</g>
<!-- dir_578b1697af9bfc63cf33b892db3f6e33&#45;&gt;dir_7848ed0c40c68eb13e368aca028ebfa2 -->
<g id="edge7" class="edge">
<title>dir_578b1697af9bfc63cf33b892db3f6e33&#45;&gt;dir_7848ed0c40c68eb13e368aca028ebfa2</title>
<g id="a_edge7"><a xlink:href="dir_000017_000013.html" target="_top">
<path fill="none" stroke="#63b8ff" d="M392.88,-70.98C383.56,-63.15 369.53,-51.34 358.26,-41.86"/>
<polygon fill="#63b8ff" stroke="#63b8ff" points="360.21,-38.93 350.31,-35.17 355.71,-44.29 360.21,-38.93"/>
</a>
</g>
<g id="a_edge7&#45;headlabel"><a xlink:href="dir_000017_000013.html" target="_top" xlink:title="1">
<text text-anchor="middle" x="364.79" y="-36.57" font-family="Helvetica,sans-Serif" font-size="10.00" fill="#63b8ff">1</text>
</a>
</g>
</g>
<!-- dir_c17f5d286b0e9d3d728751e1cce38b21 -->
<g id="node12" class="node">
<title>dir_c17f5d286b0e9d3d728751e1cce38b21</title>
<g id="a_node12"><a xlink:href="dir_c17f5d286b0e9d3d728751e1cce38b21.html" target="_top" xlink:title="pca9685">
<polygon fill="#a2b4d6" stroke="#404040" points="369,-90 311,-90 311,-71 369,-71 369,-90"/>
<text text-anchor="middle" x="340" y="-78" font-family="Helvetica,sans-Serif" font-size="10.00">pca9685</text>
</a>
</g>
</g>
<!-- dir_c17f5d286b0e9d3d728751e1cce38b21&#45;&gt;dir_7848ed0c40c68eb13e368aca028ebfa2 -->
<g id="edge8" class="edge">
<title>dir_c17f5d286b0e9d3d728751e1cce38b21&#45;&gt;dir_7848ed0c40c68eb13e368aca028ebfa2</title>
<g id="a_edge8"><a xlink:href="dir_000018_000013.html" target="_top">
<path fill="none" stroke="#63b8ff" d="M340,-70.75C340,-63.8 340,-53.85 340,-45.13"/>
<polygon fill="#63b8ff" stroke="#63b8ff" points="343.5,-45.09 340,-35.09 336.5,-45.09 343.5,-45.09"/>
</a>
</g>
<g id="a_edge8&#45;headlabel"><a xlink:href="dir_000018_000013.html" target="_top" xlink:title="1">
<text text-anchor="middle" x="346.34" y="-46.18" font-family="Helvetica,sans-Serif" font-size="10.00" fill="#63b8ff">1</text>
</a>
</g>
</g>
<!-- dir_8fcaa0ad75fc40edc1b6b745802439f3 -->
<g id="node13" class="node">
<title>dir_8fcaa0ad75fc40edc1b6b745802439f3</title>
<g id="a_node13"><a xlink:href="dir_8fcaa0ad75fc40edc1b6b745802439f3.html" target="_top" xlink:title="pcal95555">
<polygon fill="#a2b4d6" stroke="#404040" points="292.5,-90 225.5,-90 225.5,-71 292.5,-71 292.5,-90"/>
<text text-anchor="middle" x="259" y="-78" font-family="Helvetica,sans-Serif" font-size="10.00">pcal95555</text>
</a>
</g>
</g>
<!-- dir_8fcaa0ad75fc40edc1b6b745802439f3&#45;&gt;dir_7848ed0c40c68eb13e368aca028ebfa2 -->
<g id="edge9" class="edge">
<title>dir_8fcaa0ad75fc40edc1b6b745802439f3&#45;&gt;dir_7848ed0c40c68eb13e368aca028ebfa2</title>
<g id="a_edge9"><a xlink:href="dir_000019_000013.html" target="_top">
<path fill="none" stroke="#63b8ff" d="M272.01,-70.98C284.46,-62.84 303.46,-50.41 318.21,-40.76"/>
<polygon fill="#63b8ff" stroke="#63b8ff" points="320.3,-43.57 326.75,-35.17 316.46,-37.72 320.3,-43.57"/>
</a>
</g>
<g id="a_edge9&#45;headlabel"><a xlink:href="dir_000019_000013.html" target="_top" xlink:title="1">
<text text-anchor="middle" x="318.84" y="-45.42" font-family="Helvetica,sans-Serif" font-size="10.00" fill="#63b8ff">1</text>
</a>
</g>
</g>
<!-- dir_8662ea360e04ff68fe4239a8450fc02e -->
<g id="node14" class="node">
<title>dir_8662ea360e04ff68fe4239a8450fc02e</title>
<g id="a_node14"><a xlink:href="dir_8662ea360e04ff68fe4239a8450fc02e.html" target="_top" xlink:title="se050">
<polygon fill="#a2b4d6" stroke="#404040" points="306,-145 260,-145 260,-126 306,-126 306,-145"/>
<text text-anchor="middle" x="283" y="-133" font-family="Helvetica,sans-Serif" font-size="10.00">se050</text>
</a>
</g>
</g>
<!-- dir_e60338d1c39b73a12b907c00fb4619bf -->
<g id="node15" class="node">
<title>dir_e60338d1c39b73a12b907c00fb4619bf</title>
<g id="a_node15"><a xlink:href="dir_e60338d1c39b73a12b907c00fb4619bf.html" target="_top" xlink:title="tle92466ed">
<polygon fill="#a2b4d6" stroke="#404040" points="241.5,-145 170.5,-145 170.5,-126 241.5,-126 241.5,-145"/>
<text text-anchor="middle" x="206" y="-133" font-family="Helvetica,sans-Serif" font-size="10.00">tle92466ed</text>
</a>
</g>
</g>
<!-- dir_e60338d1c39b73a12b907c00fb4619bf&#45;&gt;dir_52ff2686f796482dae89c725c32853bb -->
<g id="edge10" class="edge">
<title>dir_e60338d1c39b73a12b907c00fb4619bf&#45;&gt;dir_52ff2686f796482dae89c725c32853bb</title>
<g id="a_edge10"><a xlink:href="dir_000021_000005.html" target="_top">
<path fill="none" stroke="#63b8ff" d="M197.91,-125.75C190.84,-118.11 180.41,-106.82 171.85,-97.56"/>
<polygon fill="#63b8ff" stroke="#63b8ff" points="174.3,-95.06 164.94,-90.09 169.16,-99.81 174.3,-95.06"/>
</a>
</g>
<g id="a_edge10&#45;headlabel"><a xlink:href="dir_000021_000005.html" target="_top" xlink:title="1">
<text text-anchor="middle" x="178.82" y="-93.27" font-family="Helvetica,sans-Serif" font-size="10.00" fill="#63b8ff">1</text>
</a>
</g>
</g>
<!-- dir_e60338d1c39b73a12b907c00fb4619bf&#45;&gt;dir_7848ed0c40c68eb13e368aca028ebfa2 -->
<g id="edge11" class="edge">
<title>dir_e60338d1c39b73a12b907c00fb4619bf&#45;&gt;dir_7848ed0c40c68eb13e368aca028ebfa2</title>
<g id="a_edge11"><a xlink:href="dir_000021_000013.html" target="_top">
<path fill="none" stroke="#63b8ff" d="M204.95,-125.56C203.88,-112.12 203.92,-86.61 217,-71 238.99,-44.77 277.73,-34 305.87,-29.58"/>
<polygon fill="#63b8ff" stroke="#63b8ff" points="306.65,-33 316.08,-28.18 305.7,-26.07 306.65,-33"/>
</a>
</g>
<g id="a_edge11&#45;headlabel"><a xlink:href="dir_000021_000013.html" target="_top" xlink:title="1">
<text text-anchor="middle" x="303.47" y="-33.81" font-family="Helvetica,sans-Serif" font-size="10.00" fill="#63b8ff">1</text>
</a>
</g>
</g>
<!-- dir_771da01106de958134343da02e29ab81 -->
<g id="node16" class="node">
<title>dir_771da01106de958134343da02e29ab81</title>
<g id="a_node16"><a xlink:href="dir_771da01106de958134343da02e29ab81.html" target="_top" xlink:title="tmc5160">
<polygon fill="#a2b4d6" stroke="#404040" points="75.5,-145 16.5,-145 16.5,-126 75.5,-126 75.5,-145"/>
<text text-anchor="middle" x="46" y="-133" font-family="Helvetica,sans-Serif" font-size="10.00">tmc5160</text>
</a>
</g>
</g>
<!-- dir_771da01106de958134343da02e29ab81&#45;&gt;dir_52ff2686f796482dae89c725c32853bb -->
<g id="edge12" class="edge">
<title>dir_771da01106de958134343da02e29ab81&#45;&gt;dir_52ff2686f796482dae89c725c32853bb</title>
<g id="a_edge12"><a xlink:href="dir_000022_000005.html" target="_top">
<path fill="none" stroke="#63b8ff" d="M63.83,-125.98C81.61,-117.5 109.15,-104.35 129.68,-94.54"/>
<polygon fill="#63b8ff" stroke="#63b8ff" points="131.33,-97.64 138.84,-90.17 128.31,-91.32 131.33,-97.64"/>
</a>
</g>
<g id="a_edge12&#45;headlabel"><a xlink:href="dir_000022_000005.html" target="_top" xlink:title="1">
<text text-anchor="middle" x="129.3" y="-99.25" font-family="Helvetica,sans-Serif" font-size="10.00" fill="#63b8ff">1</text>
</a>
</g>
</g>
<!-- dir_771da01106de958134343da02e29ab81&#45;&gt;dir_7848ed0c40c68eb13e368aca028ebfa2 -->
<g id="edge13" class="edge">
<title>dir_771da01106de958134343da02e29ab81&#45;&gt;dir_7848ed0c40c68eb13e368aca028ebfa2</title>
<g id="a_edge13"><a xlink:href="dir_000022_000013.html" target="_top">
<path fill="none" stroke="#63b8ff" d="M56.5,-125.79C67.1,-116.93 83.88,-102.73 98,-90 107.11,-81.79 107.12,-76.65 118,-71 179.21,-39.23 260.78,-30.1 306.06,-27.51"/>
<polygon fill="#63b8ff" stroke="#63b8ff" points="306.41,-31 316.23,-27 306.06,-24 306.41,-31"/>
</a>
</g>
<g id="a_edge13&#45;headlabel"><a xlink:href="dir_000022_000013.html" target="_top" xlink:title="1">
<text text-anchor="middle" x="302.96" y="-31.51" font-family="Helvetica,sans-Serif" font-size="10.00" fill="#63b8ff">1</text>
</a>
</g>
</g>
<!-- dir_57a9b4ae0972c7aba1e3c2e0355f42ff -->
<g id="node17" class="node">
<title>dir_57a9b4ae0972c7aba1e3c2e0355f42ff</title>
<g id="a_node17"><a xlink:href="dir_57a9b4ae0972c7aba1e3c2e0355f42ff.html" target="_top" xlink:title="tmc9660">
<polygon fill="#a2b4d6" stroke="#404040" points="152.5,-145 93.5,-145 93.5,-126 152.5,-126 152.5,-145"/>
<text text-anchor="middle" x="123" y="-133" font-family="Helvetica,sans-Serif" font-size="10.00">tmc9660</text>
</a>
</g>
</g>
<!-- dir_57a9b4ae0972c7aba1e3c2e0355f42ff&#45;&gt;dir_52ff2686f796482dae89c725c32853bb -->
<g id="edge14" class="edge">
<title>dir_57a9b4ae0972c7aba1e3c2e0355f42ff&#45;&gt;dir_52ff2686f796482dae89c725c32853bb</title>
<g id="a_edge14"><a xlink:href="dir_000023_000005.html" target="_top">
<path fill="none" stroke="#63b8ff" d="M128.61,-125.75C133.32,-118.42 140.17,-107.73 145.97,-98.7"/>
<polygon fill="#63b8ff" stroke="#63b8ff" points="149.04,-100.4 151.49,-90.09 143.14,-96.62 149.04,-100.4"/>
</a>
</g>
<g id="a_edge14&#45;headlabel"><a xlink:href="dir_000023_000005.html" target="_top" xlink:title="1">
<text text-anchor="middle" x="149.49" y="-102.45" font-family="Helvetica,sans-Serif" font-size="10.00" fill="#63b8ff">1</text>
</a>
</g>
</g>
<!-- dir_d7be47e4bfeb2e6d7b7afbb9011a1517 -->
<g id="node18" class="node">
<title>dir_d7be47e4bfeb2e6d7b7afbb9011a1517</title>
<g id="a_node18"><a xlink:href="dir_d7be47e4bfeb2e6d7b7afbb9011a1517.html" target="_top" xlink:title="ws2812">
<polygon fill="#a2b4d6" stroke="#404040" points="89,-90 35,-90 35,-71 89,-71 89,-90"/>
<text text-anchor="middle" x="62" y="-78" font-family="Helvetica,sans-Serif" font-size="10.00">ws2812</text>
</a>
</g>
</g>
<!-- dir_d7be47e4bfeb2e6d7b7afbb9011a1517&#45;&gt;dir_7848ed0c40c68eb13e368aca028ebfa2 -->
<g id="edge15" class="edge">
<title>dir_d7be47e4bfeb2e6d7b7afbb9011a1517&#45;&gt;dir_7848ed0c40c68eb13e368aca028ebfa2</title>
<g id="a_edge15"><a xlink:href="dir_000025_000013.html" target="_top">
<path fill="none" stroke="#63b8ff" d="M89.33,-73.76C93.89,-72.82 98.58,-71.87 103,-71 175.4,-56.7 260.46,-41 306.42,-32.6"/>
<polygon fill="#63b8ff" stroke="#63b8ff" points="307.22,-36.01 316.42,-30.77 305.96,-29.13 307.22,-36.01"/>
</a>
</g>
<g id="a_edge15&#45;headlabel"><a xlink:href="dir_000025_000013.html" target="_top" xlink:title="1">
<text text-anchor="middle" x="304.19" y="-36.95" font-family="Helvetica,sans-Serif" font-size="10.00" fill="#63b8ff">1</text>
</a>
</g>
</g>
</g>
</svg>
