<?xml version="1.0" encoding="UTF-8" standalone="no"?>
<!DOCTYPE svg PUBLIC "-//W3C//DTD SVG 1.1//EN"
 "http://www.w3.org/Graphics/SVG/1.1/DTD/svg11.dtd">
<!-- Generated by graphviz version 2.43.0 (0)
 -->
<!-- Title: handlers Pages: 1 -->
<svg width="592pt" height="169pt"
 viewBox="0.00 0.00 592.00 169.00" xmlns="http://www.w3.org/2000/svg" xmlns:xlink="http://www.w3.org/1999/xlink">
<g id="graph0" class="graph" transform="scale(1 1) rotate(0) translate(4 165)">
<title>handlers</title>
<g id="clust1" class="cluster">
<title>clusterdir_97bbe734eff8d6674660850430e62f3c</title>
<g id="a_clust1"><a xlink:href="dir_97bbe734eff8d6674660850430e62f3c.html" target="_top">
<polygon fill="#edf0f7" stroke="#404040" stroke-width="2" points="8,-8 8,-153 576,-153 576,-8 8,-8"/>
</a>
</g>
</g>
<!-- dir_97bbe734eff8d6674660850430e62f3c -->
<g id="node1" class="node">
<title>dir_97bbe734eff8d6674660850430e62f3c</title>
<text text-anchor="middle" x="492" y="-133" font-family="Helvetica,sans-Serif" font-size="10.00">handlers</text>
</g>
<!-- dir_397eef0de592f1461c8076a52d8e83a1 -->
<g id="node2" class="node">
<title>dir_397eef0de592f1461c8076a52d8e83a1</title>
<g id="a_node2"><a xlink:href="dir_397eef0de592f1461c8076a52d8e83a1.html" target="_top" xlink:title="as5047u">
<polygon fill="#a2b4d6" stroke="#404040" points="568,-90 510,-90 510,-71 568,-71 568,-90"/>
<text text-anchor="middle" x="539" y="-78" font-family="Helvetica,sans-Serif" font-size="10.00">as5047u</text>
</a>
</g>
</g>
<!-- dir_7848ed0c40c68eb13e368aca028ebfa2 -->
<g id="node5" class="node">
<title>dir_7848ed0c40c68eb13e368aca028ebfa2</title>
<g id="a_node5"><a xlink:href="dir_7848ed0c40c68eb13e368aca028ebfa2.html" target="_top" xlink:title="logger">
<polygon fill="#a2b4d6" stroke="#404040" points="303.5,-35 256.5,-35 256.5,-16 303.5,-16 303.5,-35"/>
<text text-anchor="middle" x="280" y="-23" font-family="Helvetica,sans-Serif" font-size="10.00">logger</text>
</a>
</g>
</g>
<!-- dir_397eef0de592f1461c8076a52d8e83a1&#45;&gt;dir_7848ed0c40c68eb13e368aca028ebfa2 -->
<g id="edge1" class="edge">
<title>dir_397eef0de592f1461c8076a52d8e83a1&#45;&gt;dir_7848ed0c40c68eb13e368aca028ebfa2</title>
<g id="a_edge1"><a xlink:href="dir_000000_000008.html" target="_top">
<path fill="none" stroke="#63b8ff" d="M509.97,-72.94C506.94,-72.28 503.91,-71.62 501,-71 434.69,-56.91 356.93,-41.51 313.58,-33.03"/>
<polygon fill="#63b8ff" stroke="#63b8ff" points="314.07,-29.56 303.58,-31.08 312.73,-36.43 314.07,-29.56"/>
</a>
</g>
<g id="a_edge1&#45;headlabel"><a xlink:href="dir_000000_000008.html" target="_top" xlink:title="1">
<text text-anchor="middle" x="318.14" y="-24.96" font-family="Helvetica,sans-Serif" font-size="10.00" fill="#63b8ff">1</text>
</a>
</g>
</g>
<!-- dir_a88fe424bb0735aa27657000de5e7f0c -->
<g id="node3" class="node">
<title>dir_a88fe424bb0735aa27657000de5e7f0c</title>
<g id="a_node3"><a xlink:href="dir_a88fe424bb0735aa27657000de5e7f0c.html" target="_top" xlink:title="bno08x">
<polygon fill="#a2b4d6" stroke="#404040" points="491.5,-90 438.5,-90 438.5,-71 491.5,-71 491.5,-90"/>
<text text-anchor="middle" x="465" y="-78" font-family="Helvetica,sans-Serif" font-size="10.00">bno08x</text>
</a>
</g>
</g>
<!-- dir_a88fe424bb0735aa27657000de5e7f0c&#45;&gt;dir_7848ed0c40c68eb13e368aca028ebfa2 -->
<g id="edge2" class="edge">
<title>dir_a88fe424bb0735aa27657000de5e7f0c&#45;&gt;dir_7848ed0c40c68eb13e368aca028ebfa2</title>
<g id="a_edge2"><a xlink:href="dir_000001_000008.html" target="_top">
<path fill="none" stroke="#63b8ff" d="M438.49,-71.91C405.58,-62.48 349.39,-46.38 313.52,-36.1"/>
<polygon fill="#63b8ff" stroke="#63b8ff" points="314.1,-32.63 303.53,-33.24 312.18,-39.36 314.1,-32.63"/>
</a>
</g>
<g id="a_edge2&#45;headlabel"><a xlink:href="dir_000001_000008.html" target="_top" xlink:title="1">
<text text-anchor="middle" x="318.34" y="-28.39" font-family="Helvetica,sans-Serif" font-size="10.00" fill="#63b8ff">1</text>
</a>
</g>
</g>
<!-- dir_52ff2686f796482dae89c725c32853bb -->
<g id="node4" class="node">
<title>dir_52ff2686f796482dae89c725c32853bb</title>
<g id="a_node4"><a xlink:href="dir_52ff2686f796482dae89c725c32853bb.html" target="_top" xlink:title="common">
<polygon fill="#a2b4d6" stroke="#404040" points="167.5,-90 108.5,-90 108.5,-71 167.5,-71 167.5,-90"/>
<text text-anchor="middle" x="138" y="-78" font-family="Helvetica,sans-Serif" font-size="10.00">common</text>
</a>
</g>
</g>
<!-- dir_52ff2686f796482dae89c725c32853bb&#45;&gt;dir_7848ed0c40c68eb13e368aca028ebfa2 -->
<g id="edge3" class="edge">
<title>dir_52ff2686f796482dae89c725c32853bb&#45;&gt;dir_7848ed0c40c68eb13e368aca028ebfa2</title>
<g id="a_edge3"><a xlink:href="dir_000002_000008.html" target="_top">
<path fill="none" stroke="#63b8ff" d="M160.81,-70.98C184.17,-62.27 220.7,-48.63 247.17,-38.75"/>
<polygon fill="#63b8ff" stroke="#63b8ff" points="248.63,-41.95 256.77,-35.17 246.18,-35.39 248.63,-41.95"/>
</a>
</g>
<g id="a_edge3&#45;headlabel"><a xlink:href="dir_000002_000008.html" target="_top" xlink:title="1">
<text text-anchor="middle" x="246.25" y="-43.36" font-family="Helvetica,sans-Serif" font-size="10.00" fill="#63b8ff">1</text>
</a>
</g>
</g>
<!-- dir_0a473e29603899b4f71d8768160d1d9b -->
<g id="node6" class="node">
<title>dir_0a473e29603899b4f71d8768160d1d9b</title>
<g id="a_node6"><a xlink:href="dir_0a473e29603899b4f71d8768160d1d9b.html" target="_top" xlink:title="max22200">
<polygon fill="#a2b4d6" stroke="#404040" points="398,-145 330,-145 330,-126 398,-126 398,-145"/>
<text text-anchor="middle" x="364" y="-133" font-family="Helvetica,sans-Serif" font-size="10.00">max22200</text>
</a>
</g>
</g>
<!-- dir_0a473e29603899b4f71d8768160d1d9b&#45;&gt;dir_52ff2686f796482dae89c725c32853bb -->
<g id="edge4" class="edge">
<title>dir_0a473e29603899b4f71d8768160d1d9b&#45;&gt;dir_52ff2686f796482dae89c725c32853bb</title>
<g id="a_edge4"><a xlink:href="dir_000010_000002.html" target="_top">
<path fill="none" stroke="#63b8ff" d="M329.68,-126.45C288.75,-116.85 220.49,-100.85 177.43,-90.75"/>
<polygon fill="#63b8ff" stroke="#63b8ff" points="178.13,-87.32 167.59,-88.44 176.53,-94.13 178.13,-87.32"/>
</a>
</g>
<g id="a_edge4&#45;headlabel"><a xlink:href="dir_000010_000002.html" target="_top" xlink:title="1">
<text text-anchor="middle" x="182.28" y="-82.87" font-family="Helvetica,sans-Serif" font-size="10.00" fill="#63b8ff">1</text>
</a>
</g>
</g>
<!-- dir_0a473e29603899b4f71d8768160d1d9b&#45;&gt;dir_7848ed0c40c68eb13e368aca028ebfa2 -->
<g id="edge5" class="edge">
<title>dir_0a473e29603899b4f71d8768160d1d9b&#45;&gt;dir_7848ed0c40c68eb13e368aca028ebfa2</title>
<g id="a_edge5"><a xlink:href="dir_000010_000008.html" target="_top">
<path fill="none" stroke="#63b8ff" d="M377.88,-125.86C395.75,-113.63 422.96,-90.58 409,-71 387.53,-40.89 344.28,-30.95 313.8,-27.78"/>
<polygon fill="#63b8ff" stroke="#63b8ff" points="313.86,-24.28 303.6,-26.92 313.27,-31.25 313.86,-24.28"/>
</a>
</g>
<g id="a_edge5&#45;headlabel"><a xlink:href="dir_000010_000008.html" target="_top" xlink:title="1">
<text text-anchor="middle" x="317.68" y="-19.25" font-family="Helvetica,sans-Serif" font-size="10.00" fill="#63b8ff">1</text>
</a>
</g>
</g>
<!-- dir_578b1697af9bfc63cf33b892db3f6e33 -->
<g id="node7" class="node">
<title>dir_578b1697af9bfc63cf33b892db3f6e33</title>
<g id="a_node7"><a xlink:href="dir_578b1697af9bfc63cf33b892db3f6e33.html" target="_top" xlink:title="ntc">
<polygon fill="#a2b4d6" stroke="#404040" points="400,-90 368,-90 368,-71 400,-71 400,-90"/>
<text text-anchor="middle" x="384" y="-78" font-family="Helvetica,sans-Serif" font-size="10.00">ntc</text>
</a>
</g>
</g>
<!-- dir_578b1697af9bfc63cf33b892db3f6e33&#45;&gt;dir_7848ed0c40c68eb13e368aca028ebfa2 -->
<g id="edge6" class="edge">
<title>dir_578b1697af9bfc63cf33b892db3f6e33&#45;&gt;dir_7848ed0c40c68eb13e368aca028ebfa2</title>
<g id="a_edge6"><a xlink:href="dir_000011_000008.html" target="_top">
<path fill="none" stroke="#63b8ff" d="M367.75,-71.22C351.16,-62.76 325.15,-49.51 305.75,-39.62"/>
<polygon fill="#63b8ff" stroke="#63b8ff" points="307.32,-36.5 296.82,-35.07 304.15,-42.73 307.32,-36.5"/>
</a>
</g>
<g id="a_edge6&#45;headlabel"><a xlink:href="dir_000011_000008.html" target="_top" xlink:title="1">
<text text-anchor="middle" x="311.82" y="-33.1" font-family="Helvetica,sans-Serif" font-size="10.00" fill="#63b8ff">1</text>
</a>
</g>
</g>
<!-- dir_c17f5d286b0e9d3d728751e1cce38b21 -->
<g id="node8" class="node">
<title>dir_c17f5d286b0e9d3d728751e1cce38b21</title>
<g id="a_node8"><a xlink:href="dir_c17f5d286b0e9d3d728751e1cce38b21.html" target="_top" xlink:title="pca9685">
<polygon fill="#a2b4d6" stroke="#404040" points="350,-90 292,-90 292,-71 350,-71 350,-90"/>
<text text-anchor="middle" x="321" y="-78" font-family="Helvetica,sans-Serif" font-size="10.00">pca9685</text>
</a>
</g>
</g>
<!-- dir_c17f5d286b0e9d3d728751e1cce38b21&#45;&gt;dir_7848ed0c40c68eb13e368aca028ebfa2 -->
<g id="edge7" class="edge">
<title>dir_c17f5d286b0e9d3d728751e1cce38b21&#45;&gt;dir_7848ed0c40c68eb13e368aca028ebfa2</title>
<g id="a_edge7"><a xlink:href="dir_000012_000008.html" target="_top">
<path fill="none" stroke="#63b8ff" d="M314.23,-70.75C308.44,-63.26 299.94,-52.28 292.86,-43.13"/>
<polygon fill="#63b8ff" stroke="#63b8ff" points="295.53,-40.86 286.64,-35.09 289.99,-45.14 295.53,-40.86"/>
</a>
</g>
<g id="a_edge7&#45;headlabel"><a xlink:href="dir_000012_000008.html" target="_top" xlink:title="1">
<text text-anchor="middle" x="299.98" y="-39.46" font-family="Helvetica,sans-Serif" font-size="10.00" fill="#63b8ff">1</text>
</a>
</g>
</g>
<!-- dir_8fcaa0ad75fc40edc1b6b745802439f3 -->
<g id="node9" class="node">
<title>dir_8fcaa0ad75fc40edc1b6b745802439f3</title>
<g id="a_node9"><a xlink:href="dir_8fcaa0ad75fc40edc1b6b745802439f3.html" target="_top" xlink:title="pcal95555">
<polygon fill="#a2b4d6" stroke="#404040" points="273.5,-90 206.5,-90 206.5,-71 273.5,-71 273.5,-90"/>
<text text-anchor="middle" x="240" y="-78" font-family="Helvetica,sans-Serif" font-size="10.00">pcal95555</text>
</a>
</g>
</g>
<!-- dir_8fcaa0ad75fc40edc1b6b745802439f3&#45;&gt;dir_7848ed0c40c68eb13e368aca028ebfa2 -->
<g id="edge8" class="edge">
<title>dir_8fcaa0ad75fc40edc1b6b745802439f3&#45;&gt;dir_7848ed0c40c68eb13e368aca028ebfa2</title>
<g id="a_edge8"><a xlink:href="dir_000013_000008.html" target="_top">
<path fill="none" stroke="#63b8ff" d="M246.61,-70.75C252.26,-63.26 260.54,-52.28 267.45,-43.13"/>
<polygon fill="#63b8ff" stroke="#63b8ff" points="270.29,-45.18 273.52,-35.09 264.7,-40.96 270.29,-45.18"/>
</a>
</g>
<g id="a_edge8&#45;headlabel"><a xlink:href="dir_000013_000008.html" target="_top" xlink:title="1">
<text text-anchor="middle" x="270.39" y="-47.26" font-family="Helvetica,sans-Serif" font-size="10.00" fill="#63b8ff">1</text>
</a>
</g>
</g>
<!-- dir_e60338d1c39b73a12b907c00fb4619bf -->
<g id="node10" class="node">
<title>dir_e60338d1c39b73a12b907c00fb4619bf</title>
<g id="a_node10"><a xlink:href="dir_e60338d1c39b73a12b907c00fb4619bf.html" target="_top" xlink:title="tle92466ed">
<polygon fill="#a2b4d6" stroke="#404040" points="256.5,-145 185.5,-145 185.5,-126 256.5,-126 256.5,-145"/>
<text text-anchor="middle" x="221" y="-133" font-family="Helvetica,sans-Serif" font-size="10.00">tle92466ed</text>
</a>
</g>
</g>
<!-- dir_e60338d1c39b73a12b907c00fb4619bf&#45;&gt;dir_52ff2686f796482dae89c725c32853bb -->
<g id="edge9" class="edge">
<title>dir_e60338d1c39b73a12b907c00fb4619bf&#45;&gt;dir_52ff2686f796482dae89c725c32853bb</title>
<g id="a_edge9"><a xlink:href="dir_000014_000002.html" target="_top">
<path fill="none" stroke="#63b8ff" d="M207.66,-125.98C194.91,-117.84 175.45,-105.41 160.33,-95.76"/>
<polygon fill="#63b8ff" stroke="#63b8ff" points="161.89,-92.6 151.58,-90.17 158.12,-98.5 161.89,-92.6"/>
</a>
</g>
<g id="a_edge9&#45;headlabel"><a xlink:href="dir_000014_000002.html" target="_top" xlink:title="1">
<text text-anchor="middle" x="166.45" y="-89.64" font-family="Helvetica,sans-Serif" font-size="10.00" fill="#63b8ff">1</text>
</a>
</g>
</g>
<!-- dir_e60338d1c39b73a12b907c00fb4619bf&#45;&gt;dir_7848ed0c40c68eb13e368aca028ebfa2 -->
<g id="edge10" class="edge">
<title>dir_e60338d1c39b73a12b907c00fb4619bf&#45;&gt;dir_7848ed0c40c68eb13e368aca028ebfa2</title>
<g id="a_edge10"><a xlink:href="dir_000014_000008.html" target="_top">
<path fill="none" stroke="#63b8ff" d="M213.27,-125.83C202.96,-113.16 187.21,-89.14 198,-71 208.55,-53.27 228.91,-42.16 246.7,-35.48"/>
<polygon fill="#63b8ff" stroke="#63b8ff" points="247.92,-38.76 256.24,-32.21 245.65,-32.14 247.92,-38.76"/>
</a>
</g>
<g id="a_edge10&#45;headlabel"><a xlink:href="dir_000014_000008.html" target="_top" xlink:title="1">
<text text-anchor="middle" x="245.44" y="-40.12" font-family="Helvetica,sans-Serif" font-size="10.00" fill="#63b8ff">1</text>
</a>
</g>
</g>
<!-- dir_771da01106de958134343da02e29ab81 -->
<g id="node11" class="node">
<title>dir_771da01106de958134343da02e29ab81</title>
<g id="a_node11"><a xlink:href="dir_771da01106de958134343da02e29ab81.html" target="_top" xlink:title="tmc5160">
<polygon fill="#a2b4d6" stroke="#404040" points="90.5,-145 31.5,-145 31.5,-126 90.5,-126 90.5,-145"/>
<text text-anchor="middle" x="61" y="-133" font-family="Helvetica,sans-Serif" font-size="10.00">tmc5160</text>
</a>
</g>
</g>
<!-- dir_771da01106de958134343da02e29ab81&#45;&gt;dir_52ff2686f796482dae89c725c32853bb -->
<g id="edge11" class="edge">
<title>dir_771da01106de958134343da02e29ab81&#45;&gt;dir_52ff2686f796482dae89c725c32853bb</title>
<g id="a_edge11"><a xlink:href="dir_000015_000002.html" target="_top">
<path fill="none" stroke="#63b8ff" d="M73.37,-125.98C85.09,-117.92 102.92,-105.65 116.89,-96.03"/>
<polygon fill="#63b8ff" stroke="#63b8ff" points="119.15,-98.72 125.4,-90.17 115.18,-92.96 119.15,-98.72"/>
</a>
</g>
<g id="a_edge11&#45;headlabel"><a xlink:href="dir_000015_000002.html" target="_top" xlink:title="1">
<text text-anchor="middle" x="117.8" y="-100.6" font-family="Helvetica,sans-Serif" font-size="10.00" fill="#63b8ff">1</text>
</a>
</g>
</g>
<!-- dir_771da01106de958134343da02e29ab81&#45;&gt;dir_7848ed0c40c68eb13e368aca028ebfa2 -->
<g id="edge12" class="edge">
<title>dir_771da01106de958134343da02e29ab81&#45;&gt;dir_7848ed0c40c68eb13e368aca028ebfa2</title>
<g id="a_edge12"><a xlink:href="dir_000015_000008.html" target="_top">
<path fill="none" stroke="#63b8ff" d="M63.81,-125.59C68.67,-111.71 79.99,-85.05 99,-71 142.77,-38.66 207.15,-29.61 246.17,-27.2"/>
<polygon fill="#63b8ff" stroke="#63b8ff" points="246.65,-30.68 256.47,-26.68 246.3,-23.69 246.65,-30.68"/>
</a>
</g>
<g id="a_edge12&#45;headlabel"><a xlink:href="dir_000015_000008.html" target="_top" xlink:title="1">
<text text-anchor="middle" x="243.21" y="-31.2" font-family="Helvetica,sans-Serif" font-size="10.00" fill="#63b8ff">1</text>
</a>
</g>
</g>
<!-- dir_57a9b4ae0972c7aba1e3c2e0355f42ff -->
<g id="node12" class="node">
<title>dir_57a9b4ae0972c7aba1e3c2e0355f42ff</title>
<g id="a_node12"><a xlink:href="dir_57a9b4ae0972c7aba1e3c2e0355f42ff.html" target="_top" xlink:title="tmc9660">
<polygon fill="#a2b4d6" stroke="#404040" points="167.5,-145 108.5,-145 108.5,-126 167.5,-126 167.5,-145"/>
<text text-anchor="middle" x="138" y="-133" font-family="Helvetica,sans-Serif" font-size="10.00">tmc9660</text>
</a>
</g>
</g>
<!-- dir_57a9b4ae0972c7aba1e3c2e0355f42ff&#45;&gt;dir_52ff2686f796482dae89c725c32853bb -->
<g id="edge13" class="edge">
<title>dir_57a9b4ae0972c7aba1e3c2e0355f42ff&#45;&gt;dir_52ff2686f796482dae89c725c32853bb</title>
<g id="a_edge13"><a xlink:href="dir_000016_000002.html" target="_top">
<path fill="none" stroke="#63b8ff" d="M138,-125.75C138,-118.8 138,-108.85 138,-100.13"/>
<polygon fill="#63b8ff" stroke="#63b8ff" points="141.5,-100.09 138,-90.09 134.5,-100.09 141.5,-100.09"/>
</a>
</g>
<g id="a_edge13&#45;headlabel"><a xlink:href="dir_000016_000002.html" target="_top" xlink:title="1">
<text text-anchor="middle" x="144.34" y="-101.18" font-family="Helvetica,sans-Serif" font-size="10.00" fill="#63b8ff">1</text>
</a>
</g>
</g>
<!-- dir_d7be47e4bfeb2e6d7b7afbb9011a1517 -->
<g id="node13" class="node">
<title>dir_d7be47e4bfeb2e6d7b7afbb9011a1517</title>
<g id="a_node13"><a xlink:href="dir_d7be47e4bfeb2e6d7b7afbb9011a1517.html" target="_top" xlink:title="ws2812">
<polygon fill="#a2b4d6" stroke="#404040" points="70,-90 16,-90 16,-71 70,-71 70,-90"/>
<text text-anchor="middle" x="43" y="-78" font-family="Helvetica,sans-Serif" font-size="10.00">ws2812</text>
</a>
</g>
</g>
<!-- dir_d7be47e4bfeb2e6d7b7afbb9011a1517&#45;&gt;dir_7848ed0c40c68eb13e368aca028ebfa2 -->
<g id="edge14" class="edge">
<title>dir_d7be47e4bfeb2e6d7b7afbb9011a1517&#45;&gt;dir_7848ed0c40c68eb13e368aca028ebfa2</title>
<g id="a_edge14"><a xlink:href="dir_000018_000008.html" target="_top">
<path fill="none" stroke="#63b8ff" d="M70.19,-73.42C113.8,-63.67 199.28,-44.55 246.56,-33.98"/>
<polygon fill="#63b8ff" stroke="#63b8ff" points="247.32,-37.39 256.32,-31.8 245.79,-30.56 247.32,-37.39"/>
</a>
</g>
<g id="a_edge14&#45;headlabel"><a xlink:href="dir_000018_000008.html" target="_top" xlink:title="1">
<text text-anchor="middle" x="244.43" y="-38.45" font-family="Helvetica,sans-Serif" font-size="10.00" fill="#63b8ff">1</text>
</a>
</g>
</g>
</g>
</svg>
