<?xml version="1.0" encoding="UTF-8" standalone="no"?>
<!DOCTYPE svg PUBLIC "-//W3C//DTD SVG 1.1//EN"
 "http://www.w3.org/Graphics/SVG/1.1/DTD/svg11.dtd">
<!-- Generated by graphviz version 2.43.0 (0)
 -->
<!-- Title: get_shared_i2c_bus Pages: 1 -->
<svg width="729pt" height="236pt"
 viewBox="0.00 0.00 729.00 236.08" xmlns="http://www.w3.org/2000/svg" xmlns:xlink="http://www.w3.org/1999/xlink">
<g id="graph0" class="graph" transform="scale(1 1) rotate(0) translate(4 232.08)">
<title>get_shared_i2c_bus</title>
<!-- Node1 -->
<g id="Node000001" class="node">
<title>Node1</title>
<g id="a_Node000001"><a xlink:title="Create and initialize the shared I2C bus.">
<polygon fill="#999999" stroke="#666666" points="721,-58.08 608,-58.08 608,-39.08 721,-39.08 721,-58.08"/>
<text text-anchor="middle" x="664.5" y="-46.08" font-family="Helvetica,sans-Serif" font-size="10.00">get_shared_i2c_bus</text>
</a>
</g>
</g>
<!-- Node2 -->
<g id="Node000002" class="node">
<title>Node2</title>
<g id="a_Node000002"><a xlink:href="esp32__bus__setup_8hpp.html#a7024544c8de144283c563c05320b05bf" target="_top" xlink:title="Get an I2C device handle for a specific address on the shared bus.">
<polygon fill="white" stroke="#666666" points="564,-117.08 475,-117.08 475,-98.08 564,-98.08 564,-117.08"/>
<text text-anchor="middle" x="519.5" y="-105.08" font-family="Helvetica,sans-Serif" font-size="10.00">get_i2c_device</text>
</a>
</g>
</g>
<!-- Node1&#45;&gt;Node2 -->
<g id="edge1_Node000001_Node000002" class="edge">
<title>Node1&#45;&gt;Node2</title>
<g id="a_edge1_Node000001_Node000002"><a xlink:title=" ">
<path fill="none" stroke="#63b8ff" d="M630.93,-62.02C604.35,-72.98 567.46,-88.2 543.78,-97.97"/>
<polygon fill="#63b8ff" stroke="#63b8ff" points="632.3,-65.24 640.21,-58.19 629.63,-58.77 632.3,-65.24"/>
</a>
</g>
</g>
<!-- Node14 -->
<g id="Node000014" class="node">
<title>Node14</title>
<g id="a_Node000014"><a xlink:href="full__system__integration__test_8cpp.html#a6a25aa0fccf0625f8e3cae773904ab38" target="_top" xlink:title=" ">
<polygon fill="white" stroke="#666666" points="572,-40.08 467,-40.08 467,-21.08 572,-21.08 572,-40.08"/>
<text text-anchor="middle" x="519.5" y="-28.08" font-family="Helvetica,sans-Serif" font-size="10.00">test_i2c_bus_scan</text>
</a>
</g>
</g>
<!-- Node1&#45;&gt;Node14 -->
<g id="edge15_Node000001_Node000014" class="edge">
<title>Node1&#45;&gt;Node14</title>
<g id="a_edge15_Node000001_Node000014"><a xlink:title=" ">
<path fill="none" stroke="#63b8ff" d="M597.77,-40.3C589.15,-39.22 580.41,-38.12 572.07,-37.07"/>
<polygon fill="#63b8ff" stroke="#63b8ff" points="597.44,-43.79 607.8,-41.57 598.32,-36.85 597.44,-43.79"/>
</a>
</g>
</g>
<!-- Node3 -->
<g id="Node000003" class="node">
<title>Node3</title>
<g id="a_Node000003"><a xlink:href="bno08x__handler__comprehensive__test_8cpp.html#ad7178bfd7bed244bfbb8045f77e478bb" target="_top" xlink:title=" ">
<polygon fill="white" stroke="#666666" points="400.5,-228.08 311.5,-228.08 311.5,-209.08 400.5,-209.08 400.5,-228.08"/>
<text text-anchor="middle" x="356" y="-216.08" font-family="Helvetica,sans-Serif" font-size="10.00">create_handler</text>
</a>
</g>
</g>
<!-- Node2&#45;&gt;Node3 -->
<g id="edge2_Node000002_Node000003" class="edge">
<title>Node2&#45;&gt;Node3</title>
<g id="a_edge2_Node000002_Node000003"><a xlink:title=" ">
<path fill="none" stroke="#63b8ff" d="M506.5,-125.64C491.42,-146.88 463.54,-181.63 431,-200.58 421.86,-205.9 411.2,-209.65 400.88,-212.3"/>
<polygon fill="#63b8ff" stroke="#63b8ff" points="509.53,-127.42 512.33,-117.2 503.77,-123.44 509.53,-127.42"/>
</a>
</g>
</g>
<!-- Node5 -->
<g id="Node000005" class="node">
<title>Node5</title>
<g id="a_Node000005"><a xlink:href="pca9685__handler__comprehensive__test_8cpp.html#ad7178bfd7bed244bfbb8045f77e478bb" target="_top" xlink:title=" ">
<polygon fill="white" stroke="#666666" points="400.5,-154.08 311.5,-154.08 311.5,-135.08 400.5,-135.08 400.5,-154.08"/>
<text text-anchor="middle" x="356" y="-142.08" font-family="Helvetica,sans-Serif" font-size="10.00">create_handler</text>
</a>
</g>
</g>
<!-- Node2&#45;&gt;Node5 -->
<g id="edge4_Node000002_Node000005" class="edge">
<title>Node2&#45;&gt;Node5</title>
<g id="a_edge4_Node000002_Node000005"><a xlink:title=" ">
<path fill="none" stroke="#63b8ff" d="M467.05,-119.37C445,-124.42 419.58,-130.24 398.73,-135.02"/>
<polygon fill="#63b8ff" stroke="#63b8ff" points="467.94,-122.75 476.91,-117.11 466.38,-115.93 467.94,-122.75"/>
</a>
</g>
</g>
<!-- Node7 -->
<g id="Node000007" class="node">
<title>Node7</title>
<g id="a_Node000007"><a xlink:href="pcal95555__handler__comprehensive__test_8cpp.html#ad7178bfd7bed244bfbb8045f77e478bb" target="_top" xlink:title=" ">
<polygon fill="white" stroke="#666666" points="400.5,-117.08 311.5,-117.08 311.5,-98.08 400.5,-98.08 400.5,-117.08"/>
<text text-anchor="middle" x="356" y="-105.08" font-family="Helvetica,sans-Serif" font-size="10.00">create_handler</text>
</a>
</g>
</g>
<!-- Node2&#45;&gt;Node7 -->
<g id="edge6_Node000002_Node000007" class="edge">
<title>Node2&#45;&gt;Node7</title>
<g id="a_edge6_Node000002_Node000007"><a xlink:title=" ">
<path fill="none" stroke="#63b8ff" d="M464.54,-107.58C443.8,-107.58 420.4,-107.58 400.74,-107.58"/>
<polygon fill="#63b8ff" stroke="#63b8ff" points="464.8,-111.08 474.8,-107.58 464.8,-104.08 464.8,-111.08"/>
</a>
</g>
</g>
<!-- Node9 -->
<g id="Node000009" class="node">
<title>Node9</title>
<g id="a_Node000009"><a xlink:href="full__system__integration__test_8cpp.html#a0ffcd10e1f0034357e4d75e4e19504be" target="_top" xlink:title=" ">
<polygon fill="white" stroke="#666666" points="405.5,-80.08 306.5,-80.08 306.5,-61.08 405.5,-61.08 405.5,-80.08"/>
<text text-anchor="middle" x="356" y="-68.08" font-family="Helvetica,sans-Serif" font-size="10.00">i2c_handler_task</text>
</a>
</g>
</g>
<!-- Node2&#45;&gt;Node9 -->
<g id="edge8_Node000002_Node000009" class="edge">
<title>Node2&#45;&gt;Node9</title>
<g id="a_edge8_Node000002_Node000009"><a xlink:title=" ">
<path fill="none" stroke="#63b8ff" d="M467.05,-95.79C445,-90.74 419.58,-84.91 398.73,-80.14"/>
<polygon fill="#63b8ff" stroke="#63b8ff" points="466.38,-99.23 476.91,-98.05 467.94,-92.4 466.38,-99.23"/>
</a>
</g>
</g>
<!-- Node12 -->
<g id="Node000012" class="node">
<title>Node12</title>
<g id="a_Node000012"><a xlink:href="full__system__integration__test_8cpp.html#a5a65d07819438b3ffa159258ea42a9ea" target="_top" xlink:title=" ">
<polygon fill="white" stroke="#666666" points="245,-37.08 101,-37.08 101,-18.08 245,-18.08 245,-37.08"/>
<text text-anchor="middle" x="173" y="-25.08" font-family="Helvetica,sans-Serif" font-size="10.00">test_i2c_multi_device_init</text>
</a>
</g>
</g>
<!-- Node2&#45;&gt;Node12 -->
<g id="edge11_Node000002_Node000012" class="edge">
<title>Node2&#45;&gt;Node12</title>
<g id="a_edge11_Node000002_Node000012"><a xlink:title=" ">
<path fill="none" stroke="#63b8ff" d="M499.26,-91.76C482.38,-78.83 456.59,-61.32 431,-52.58 370.55,-31.93 297.76,-26.53 245.11,-25.79"/>
<polygon fill="#63b8ff" stroke="#63b8ff" points="497.21,-94.6 507.23,-98.03 501.54,-89.09 497.21,-94.6"/>
</a>
</g>
</g>
<!-- Node13 -->
<g id="Node000013" class="node">
<title>Node13</title>
<g id="a_Node000013"><a xlink:href="bno08x__handler__comprehensive__test_8cpp.html#ac83f97b7754666b5e7733941b37c5630" target="_top" xlink:title=" ">
<polygon fill="white" stroke="#666666" points="431,-191.08 281,-191.08 281,-172.08 431,-172.08 431,-191.08"/>
<text text-anchor="middle" x="356" y="-179.08" font-family="Helvetica,sans-Serif" font-size="10.00">test_operations_before_init</text>
</a>
</g>
</g>
<!-- Node2&#45;&gt;Node13 -->
<g id="edge13_Node000002_Node000013" class="edge">
<title>Node2&#45;&gt;Node13</title>
<g id="a_edge13_Node000002_Node000013"><a xlink:title=" ">
<path fill="none" stroke="#63b8ff" d="M498.38,-123.21C481.31,-135.77 455.71,-153.01 431,-163.58 423.22,-166.9 414.7,-169.69 406.31,-172"/>
<polygon fill="#63b8ff" stroke="#63b8ff" points="500.59,-125.93 506.48,-117.12 496.38,-120.33 500.59,-125.93"/>
</a>
</g>
</g>
<!-- Node4 -->
<g id="Node000004" class="node">
<title>Node4</title>
<g id="a_Node000004"><a xlink:href="bno08x__handler__comprehensive__test_8cpp.html#a630544a7f0a2cc40d8a7fefab7e2fe70" target="_top" xlink:title=" ">
<polygon fill="white" stroke="#666666" points="205.5,-212.08 140.5,-212.08 140.5,-193.08 205.5,-193.08 205.5,-212.08"/>
<text text-anchor="middle" x="173" y="-200.08" font-family="Helvetica,sans-Serif" font-size="10.00">app_main</text>
</a>
</g>
</g>
<!-- Node3&#45;&gt;Node4 -->
<g id="edge3_Node000003_Node000004" class="edge">
<title>Node3&#45;&gt;Node4</title>
<g id="a_edge3_Node000003_Node000004"><a xlink:title=" ">
<path fill="none" stroke="#63b8ff" d="M300.92,-213.8C269.8,-211.05 231.77,-207.68 205.5,-205.36"/>
<polygon fill="#63b8ff" stroke="#63b8ff" points="300.92,-217.31 311.18,-214.7 301.53,-210.34 300.92,-217.31"/>
</a>
</g>
</g>
<!-- Node6 -->
<g id="Node000006" class="node">
<title>Node6</title>
<g id="a_Node000006"><a xlink:href="pca9685__handler__comprehensive__test_8cpp.html#a630544a7f0a2cc40d8a7fefab7e2fe70" target="_top" xlink:title=" ">
<polygon fill="white" stroke="#666666" points="205.5,-160.08 140.5,-160.08 140.5,-141.08 205.5,-141.08 205.5,-160.08"/>
<text text-anchor="middle" x="173" y="-148.08" font-family="Helvetica,sans-Serif" font-size="10.00">app_main</text>
</a>
</g>
</g>
<!-- Node5&#45;&gt;Node6 -->
<g id="edge5_Node000005_Node000006" class="edge">
<title>Node5&#45;&gt;Node6</title>
<g id="a_edge5_Node000005_Node000006"><a xlink:title=" ">
<path fill="none" stroke="#63b8ff" d="M300.92,-146.37C269.8,-147.4 231.77,-148.66 205.5,-149.53"/>
<polygon fill="#63b8ff" stroke="#63b8ff" points="301.31,-149.86 311.18,-146.03 301.07,-142.86 301.31,-149.86"/>
</a>
</g>
</g>
<!-- Node8 -->
<g id="Node000008" class="node">
<title>Node8</title>
<g id="a_Node000008"><a xlink:href="pcal95555__handler__comprehensive__test_8cpp.html#a630544a7f0a2cc40d8a7fefab7e2fe70" target="_top" xlink:title=" ">
<polygon fill="white" stroke="#666666" points="205.5,-123.08 140.5,-123.08 140.5,-104.08 205.5,-104.08 205.5,-123.08"/>
<text text-anchor="middle" x="173" y="-111.08" font-family="Helvetica,sans-Serif" font-size="10.00">app_main</text>
</a>
</g>
</g>
<!-- Node7&#45;&gt;Node8 -->
<g id="edge7_Node000007_Node000008" class="edge">
<title>Node7&#45;&gt;Node8</title>
<g id="a_edge7_Node000007_Node000008"><a xlink:title=" ">
<path fill="none" stroke="#63b8ff" d="M300.92,-109.37C269.8,-110.4 231.77,-111.66 205.5,-112.53"/>
<polygon fill="#63b8ff" stroke="#63b8ff" points="301.31,-112.86 311.18,-109.03 301.07,-105.86 301.31,-112.86"/>
</a>
</g>
</g>
<!-- Node10 -->
<g id="Node000010" class="node">
<title>Node10</title>
<g id="a_Node000010"><a xlink:href="full__system__integration__test_8cpp.html#ab02326456d9f2a9466cae859c06f9f1a" target="_top" xlink:title=" ">
<polygon fill="white" stroke="#666666" points="229,-85.58 117,-85.58 117,-55.58 229,-55.58 229,-85.58"/>
<text text-anchor="start" x="125" y="-73.58" font-family="Helvetica,sans-Serif" font-size="10.00">test_concurrent_i2c</text>
<text text-anchor="middle" x="173" y="-62.58" font-family="Helvetica,sans-Serif" font-size="10.00">_access</text>
</a>
</g>
</g>
<!-- Node9&#45;&gt;Node10 -->
<g id="edge9_Node000009_Node000010" class="edge">
<title>Node9&#45;&gt;Node10</title>
<g id="a_edge9_Node000009_Node000010"><a xlink:title=" ">
<path fill="none" stroke="#63b8ff" d="M296.45,-70.58C274.8,-70.58 250.36,-70.58 229.04,-70.58"/>
<polygon fill="#63b8ff" stroke="#63b8ff" points="296.5,-74.08 306.5,-70.58 296.5,-67.08 296.5,-74.08"/>
</a>
</g>
</g>
<!-- Node11 -->
<g id="Node000011" class="node">
<title>Node11</title>
<g id="a_Node000011"><a xlink:href="full__system__integration__test_8cpp.html#a630544a7f0a2cc40d8a7fefab7e2fe70" target="_top" xlink:title=" ">
<polygon fill="white" stroke="#666666" points="65,-37.08 0,-37.08 0,-18.08 65,-18.08 65,-37.08"/>
<text text-anchor="middle" x="32.5" y="-25.08" font-family="Helvetica,sans-Serif" font-size="10.00">app_main</text>
</a>
</g>
</g>
<!-- Node10&#45;&gt;Node11 -->
<g id="edge10_Node000010_Node000011" class="edge">
<title>Node10&#45;&gt;Node11</title>
<g id="a_edge10_Node000010_Node000011"><a xlink:title=" ">
<path fill="none" stroke="#63b8ff" d="M113.72,-52.48C96.77,-47.22 78.92,-41.68 64.38,-37.16"/>
<polygon fill="#63b8ff" stroke="#63b8ff" points="112.97,-55.92 123.56,-55.54 115.05,-49.23 112.97,-55.92"/>
</a>
</g>
</g>
<!-- Node12&#45;&gt;Node11 -->
<g id="edge12_Node000012_Node000011" class="edge">
<title>Node12&#45;&gt;Node11</title>
<g id="a_edge12_Node000012_Node000011"><a xlink:title=" ">
<path fill="none" stroke="#63b8ff" d="M90.55,-27.58C81.62,-27.58 72.97,-27.58 65.22,-27.58"/>
<polygon fill="#63b8ff" stroke="#63b8ff" points="90.72,-31.08 100.72,-27.58 90.72,-24.08 90.72,-31.08"/>
</a>
</g>
</g>
<!-- Node13&#45;&gt;Node4 -->
<g id="edge14_Node000013_Node000004" class="edge">
<title>Node13&#45;&gt;Node4</title>
<g id="a_edge14_Node000013_Node000004"><a xlink:title=" ">
<path fill="none" stroke="#63b8ff" d="M270.67,-191.36C247.58,-194.04 223.96,-196.78 205.85,-198.88"/>
<polygon fill="#63b8ff" stroke="#63b8ff" points="271.33,-194.81 280.86,-190.18 270.52,-187.86 271.33,-194.81"/>
</a>
</g>
</g>
<!-- Node14&#45;&gt;Node11 -->
<g id="edge16_Node000014_Node000011" class="edge">
<title>Node14&#45;&gt;Node11</title>
<g id="a_edge16_Node000014_Node000011"><a xlink:title=" ">
<path fill="none" stroke="#63b8ff" d="M456.67,-24.8C448.05,-24.03 439.3,-23.27 431,-22.58 284.71,-10.39 246.42,11.5 101,-8.58 87.49,-10.44 72.88,-14.31 60.72,-18.08"/>
<polygon fill="#63b8ff" stroke="#63b8ff" points="456.42,-28.29 466.69,-25.7 457.05,-21.32 456.42,-28.29"/>
</a>
</g>
</g>
</g>
</svg>
