<?xml version="1.0" encoding="UTF-8" standalone="no"?>
<!DOCTYPE svg PUBLIC "-//W3C//DTD SVG 1.1//EN"
 "http://www.w3.org/Graphics/SVG/1.1/DTD/svg11.dtd">
<!-- Generated by graphviz version 2.43.0 (0)
 -->
<!-- Title: EspLoggerFactory.cpp Pages: 1 -->
<svg width="623pt" height="159pt"
 viewBox="0.00 0.00 623.00 159.00" xmlns="http://www.w3.org/2000/svg" xmlns:xlink="http://www.w3.org/1999/xlink">
<g id="graph0" class="graph" transform="scale(1 1) rotate(0) translate(4 155)">
<title>EspLoggerFactory.cpp</title>
<!-- Node1 -->
<g id="Node000001" class="node">
<title>Node1</title>
<g id="a_Node000001"><a xlink:title="ESP32&#45;family implementation of Logger::CreateDefaultBaseLogger().">
<polygon fill="#999999" stroke="#666666" points="345,-151 224,-151 224,-132 345,-132 345,-151"/>
<text text-anchor="middle" x="284.5" y="-139" font-family="Helvetica,sans-Serif" font-size="10.00">EspLoggerFactory.cpp</text>
</a>
</g>
</g>
<!-- Node2 -->
<g id="Node000002" class="node">
<title>Node2</title>
<g id="a_Node000002"><a xlink:href="Logger_8h.html" target="_top" xlink:title="Advanced logging system with formatting capabilities.">
<polygon fill="white" stroke="#666666" points="198,-85 131,-85 131,-66 198,-66 198,-85"/>
<text text-anchor="middle" x="164.5" y="-73" font-family="Helvetica,sans-Serif" font-size="10.00">../Logger.h</text>
</a>
</g>
</g>
<!-- Node1&#45;&gt;Node2 -->
<g id="edge1_Node000001_Node000002" class="edge">
<title>Node1&#45;&gt;Node2</title>
<g id="a_edge1_Node000001_Node000002"><a xlink:title=" ">
<path fill="none" stroke="#63b8ff" d="M268.32,-131.87C248.19,-121.13 213.59,-102.68 189.91,-90.05"/>
<polygon fill="#63b8ff" stroke="#63b8ff" points="191.28,-86.82 180.81,-85.2 187.99,-92.99 191.28,-86.82"/>
</a>
</g>
</g>
<!-- Node5 -->
<g id="Node000005" class="node">
<title>Node5</title>
<g id="a_Node000005"><a xlink:title=" ">
<polygon fill="#e0e0e0" stroke="#999999" points="265.5,-19 207.5,-19 207.5,0 265.5,0 265.5,-19"/>
<text text-anchor="middle" x="236.5" y="-7" font-family="Helvetica,sans-Serif" font-size="10.00">memory</text>
</a>
</g>
</g>
<!-- Node1&#45;&gt;Node5 -->
<g id="edge8_Node000001_Node000005" class="edge">
<title>Node1&#45;&gt;Node5</title>
<g id="a_edge8_Node000001_Node000005"><a xlink:title=" ">
<path fill="none" stroke="#63b8ff" d="M275.74,-131.81C267.82,-123.4 256.51,-109.93 250.5,-96 241.16,-74.36 238.01,-47.18 236.97,-29.35"/>
<polygon fill="#63b8ff" stroke="#63b8ff" points="240.46,-28.98 236.55,-19.14 233.46,-29.27 240.46,-28.98"/>
</a>
</g>
</g>
<!-- Node7 -->
<g id="Node000007" class="node">
<title>Node7</title>
<g id="a_Node000007"><a xlink:title=" ">
<polygon fill="#e0e0e0" stroke="#999999" points="417.5,-96 259.5,-96 259.5,-55 417.5,-55 417.5,-96"/>
<text text-anchor="start" x="267.5" y="-84" font-family="Helvetica,sans-Serif" font-size="10.00">../../../hf&#45;core&#45;drivers</text>
<text text-anchor="start" x="267.5" y="-73" font-family="Helvetica,sans-Serif" font-size="10.00">/internal/hf&#45;internal&#45;interface</text>
<text text-anchor="middle" x="338.5" y="-62" font-family="Helvetica,sans-Serif" font-size="10.00">&#45;wrap/inc/base/BaseLogger.h</text>
</a>
</g>
</g>
<!-- Node1&#45;&gt;Node7 -->
<g id="edge6_Node000001_Node000007" class="edge">
<title>Node1&#45;&gt;Node7</title>
<g id="a_edge6_Node000001_Node000007"><a xlink:title=" ">
<path fill="none" stroke="#63b8ff" d="M291.78,-131.87C297.87,-124.65 306.9,-113.95 315.4,-103.88"/>
<polygon fill="#63b8ff" stroke="#63b8ff" points="318.27,-105.91 322.04,-96.01 312.92,-101.39 318.27,-105.91"/>
</a>
</g>
</g>
<!-- Node8 -->
<g id="Node000008" class="node">
<title>Node8</title>
<g id="a_Node000008"><a xlink:title=" ">
<polygon fill="#e0e0e0" stroke="#999999" points="615,-96 436,-96 436,-55 615,-55 615,-96"/>
<text text-anchor="start" x="444" y="-84" font-family="Helvetica,sans-Serif" font-size="10.00">../../../hf&#45;core&#45;drivers</text>
<text text-anchor="start" x="444" y="-73" font-family="Helvetica,sans-Serif" font-size="10.00">/internal/hf&#45;internal&#45;interface</text>
<text text-anchor="middle" x="525.5" y="-62" font-family="Helvetica,sans-Serif" font-size="10.00">&#45;wrap/inc/mcu/esp32/EspLogger.h</text>
</a>
</g>
</g>
<!-- Node1&#45;&gt;Node8 -->
<g id="edge7_Node000001_Node000008" class="edge">
<title>Node1&#45;&gt;Node8</title>
<g id="a_edge7_Node000001_Node000008"><a xlink:title=" ">
<path fill="none" stroke="#63b8ff" d="M317,-131.87C348.95,-123.39 399.03,-110.08 442.11,-98.65"/>
<polygon fill="#63b8ff" stroke="#63b8ff" points="443.27,-101.96 452.04,-96.01 441.47,-95.19 443.27,-101.96"/>
</a>
</g>
</g>
<!-- Node3 -->
<g id="Node000003" class="node">
<title>Node3</title>
<g id="a_Node000003"><a xlink:title=" ">
<polygon fill="#e0e0e0" stroke="#999999" points="53,-19 0,-19 0,0 53,0 53,-19"/>
<text text-anchor="middle" x="26.5" y="-7" font-family="Helvetica,sans-Serif" font-size="10.00">cstdarg</text>
</a>
</g>
</g>
<!-- Node2&#45;&gt;Node3 -->
<g id="edge2_Node000002_Node000003" class="edge">
<title>Node2&#45;&gt;Node3</title>
<g id="a_edge2_Node000002_Node000003"><a xlink:title=" ">
<path fill="none" stroke="#63b8ff" d="M145.89,-65.87C122.43,-54.99 81.89,-36.19 54.64,-23.55"/>
<polygon fill="#63b8ff" stroke="#63b8ff" points="55.8,-20.23 45.26,-19.2 52.86,-26.58 55.8,-20.23"/>
</a>
</g>
</g>
<!-- Node4 -->
<g id="Node000004" class="node">
<title>Node4</title>
<g id="a_Node000004"><a xlink:title=" ">
<polygon fill="#e0e0e0" stroke="#999999" points="121.5,-19 71.5,-19 71.5,0 121.5,0 121.5,-19"/>
<text text-anchor="middle" x="96.5" y="-7" font-family="Helvetica,sans-Serif" font-size="10.00">cstring</text>
</a>
</g>
</g>
<!-- Node2&#45;&gt;Node4 -->
<g id="edge3_Node000002_Node000004" class="edge">
<title>Node2&#45;&gt;Node4</title>
<g id="a_edge3_Node000002_Node000004"><a xlink:title=" ">
<path fill="none" stroke="#63b8ff" d="M155.33,-65.87C144.64,-55.81 126.76,-38.98 113.51,-26.51"/>
<polygon fill="#63b8ff" stroke="#63b8ff" points="115.64,-23.71 105.96,-19.41 110.85,-28.81 115.64,-23.71"/>
</a>
</g>
</g>
<!-- Node2&#45;&gt;Node5 -->
<g id="edge4_Node000002_Node000005" class="edge">
<title>Node2&#45;&gt;Node5</title>
<g id="a_edge4_Node000002_Node000005"><a xlink:title=" ">
<path fill="none" stroke="#63b8ff" d="M174.21,-65.87C185.63,-55.71 204.82,-38.66 218.89,-26.15"/>
<polygon fill="#63b8ff" stroke="#63b8ff" points="221.33,-28.66 226.48,-19.41 216.68,-23.43 221.33,-28.66"/>
</a>
</g>
</g>
<!-- Node6 -->
<g id="Node000006" class="node">
<title>Node6</title>
<g id="a_Node000006"><a xlink:title=" ">
<polygon fill="#e0e0e0" stroke="#999999" points="189.5,-19 139.5,-19 139.5,0 189.5,0 189.5,-19"/>
<text text-anchor="middle" x="164.5" y="-7" font-family="Helvetica,sans-Serif" font-size="10.00">atomic</text>
</a>
</g>
</g>
<!-- Node2&#45;&gt;Node6 -->
<g id="edge5_Node000002_Node000006" class="edge">
<title>Node2&#45;&gt;Node6</title>
<g id="a_edge5_Node000002_Node000006"><a xlink:title=" ">
<path fill="none" stroke="#63b8ff" d="M164.5,-65.87C164.5,-56.66 164.5,-41.79 164.5,-29.77"/>
<polygon fill="#63b8ff" stroke="#63b8ff" points="168,-29.41 164.5,-19.41 161,-29.41 168,-29.41"/>
</a>
</g>
</g>
</g>
</svg>
