<?xml version="1.0" encoding="UTF-8" standalone="no"?>
<!DOCTYPE svg PUBLIC "-//W3C//DTD SVG 1.1//EN"
 "http://www.w3.org/Graphics/SVG/1.1/DTD/svg11.dtd">
<!-- Generated by graphviz version 2.43.0 (0)
 -->
<!-- Title: Fdo2Handler.cpp Pages: 1 -->
<svg width="634pt" height="181pt"
 viewBox="0.00 0.00 634.00 181.00" xmlns="http://www.w3.org/2000/svg" xmlns:xlink="http://www.w3.org/1999/xlink">
<g id="graph0" class="graph" transform="scale(1 1) rotate(0) translate(4 177)">
<title>Fdo2Handler.cpp</title>
<!-- Node1 -->
<g id="Node000001" class="node">
<title>Node1</title>
<g id="a_Node000001"><a xlink:title="Implementation of Fdo2Handler and its BaseUart adapter.">
<polygon fill="#999999" stroke="#666666" points="344,-173 246,-173 246,-154 344,-154 344,-173"/>
<text text-anchor="middle" x="295" y="-161" font-family="Helvetica,sans-Serif" font-size="10.00">Fdo2Handler.cpp</text>
</a>
</g>
</g>
<!-- Node2 -->
<g id="Node000002" class="node">
<title>Node2</title>
<g id="a_Node000002"><a xlink:href="Fdo2Handler_8h.html" target="_top" xlink:title="HAL&#45;level handler for the PyroScience FDO2&#45;G2 oxygen probe.">
<polygon fill="white" stroke="#666666" points="280.5,-107 193.5,-107 193.5,-88 280.5,-88 280.5,-107"/>
<text text-anchor="middle" x="237" y="-95" font-family="Helvetica,sans-Serif" font-size="10.00">Fdo2Handler.h</text>
</a>
</g>
</g>
<!-- Node1&#45;&gt;Node2 -->
<g id="edge1_Node000001_Node000002" class="edge">
<title>Node1&#45;&gt;Node2</title>
<g id="a_edge1_Node000001_Node000002"><a xlink:title=" ">
<path fill="none" stroke="#63b8ff" d="M287.18,-153.87C278.15,-143.9 263.09,-127.29 251.83,-114.86"/>
<polygon fill="#63b8ff" stroke="#63b8ff" points="254.38,-112.46 245.07,-107.41 249.19,-117.17 254.38,-112.46"/>
</a>
</g>
</g>
<!-- Node10 -->
<g id="Node000010" class="node">
<title>Node10</title>
<g id="a_Node000010"><a xlink:title=" ">
<polygon fill="#e0e0e0" stroke="#999999" points="407,-118 299,-118 299,-77 407,-77 407,-118"/>
<text text-anchor="start" x="307" y="-106" font-family="Helvetica,sans-Serif" font-size="10.00">core/hf&#45;core&#45;utils</text>
<text text-anchor="start" x="307" y="-95" font-family="Helvetica,sans-Serif" font-size="10.00">/hf&#45;utils&#45;rtos&#45;wrap</text>
<text text-anchor="middle" x="353" y="-84" font-family="Helvetica,sans-Serif" font-size="10.00">/include/OsUtility.h</text>
</a>
</g>
</g>
<!-- Node1&#45;&gt;Node10 -->
<g id="edge9_Node000001_Node000010" class="edge">
<title>Node1&#45;&gt;Node10</title>
<g id="a_edge9_Node000001_Node000010"><a xlink:title=" ">
<path fill="none" stroke="#63b8ff" d="M302.82,-153.87C309.43,-146.58 319.25,-135.74 328.46,-125.58"/>
<polygon fill="#63b8ff" stroke="#63b8ff" points="331.2,-127.77 335.32,-118.01 326.01,-123.07 331.2,-127.77"/>
</a>
</g>
</g>
<!-- Node3 -->
<g id="Node000003" class="node">
<title>Node3</title>
<g id="a_Node000003"><a xlink:title=" ">
<polygon fill="#e0e0e0" stroke="#999999" points="50,-30 0,-30 0,-11 50,-11 50,-30"/>
<text text-anchor="middle" x="25" y="-18" font-family="Helvetica,sans-Serif" font-size="10.00">atomic</text>
</a>
</g>
</g>
<!-- Node2&#45;&gt;Node3 -->
<g id="edge2_Node000002_Node000003" class="edge">
<title>Node2&#45;&gt;Node3</title>
<g id="a_edge2_Node000002_Node000003"><a xlink:title=" ">
<path fill="none" stroke="#63b8ff" d="M201.73,-87.94C165.22,-78.53 106.91,-61.91 59,-41 55.18,-39.33 51.24,-37.35 47.46,-35.29"/>
<polygon fill="#63b8ff" stroke="#63b8ff" points="48.96,-32.11 38.54,-30.18 45.47,-38.19 48.96,-32.11"/>
</a>
</g>
</g>
<!-- Node4 -->
<g id="Node000004" class="node">
<title>Node4</title>
<g id="a_Node000004"><a xlink:title=" ">
<polygon fill="#e0e0e0" stroke="#999999" points="121.5,-30 68.5,-30 68.5,-11 121.5,-11 121.5,-30"/>
<text text-anchor="middle" x="95" y="-18" font-family="Helvetica,sans-Serif" font-size="10.00">cstddef</text>
</a>
</g>
</g>
<!-- Node2&#45;&gt;Node4 -->
<g id="edge3_Node000002_Node000004" class="edge">
<title>Node2&#45;&gt;Node4</title>
<g id="a_edge3_Node000002_Node000004"><a xlink:title=" ">
<path fill="none" stroke="#63b8ff" d="M220.44,-87.92C199.55,-77.08 162.54,-57.8 131,-41 127.36,-39.06 123.53,-37 119.77,-34.98"/>
<polygon fill="#63b8ff" stroke="#63b8ff" points="121.21,-31.77 110.75,-30.09 117.87,-37.93 121.21,-31.77"/>
</a>
</g>
</g>
<!-- Node5 -->
<g id="Node000005" class="node">
<title>Node5</title>
<g id="a_Node000005"><a xlink:title=" ">
<polygon fill="#e0e0e0" stroke="#999999" points="190,-30 140,-30 140,-11 190,-11 190,-30"/>
<text text-anchor="middle" x="165" y="-18" font-family="Helvetica,sans-Serif" font-size="10.00">cstdint</text>
</a>
</g>
</g>
<!-- Node2&#45;&gt;Node5 -->
<g id="edge4_Node000002_Node000005" class="edge">
<title>Node2&#45;&gt;Node5</title>
<g id="a_edge4_Node000002_Node000005"><a xlink:title=" ">
<path fill="none" stroke="#63b8ff" d="M228.74,-87.9C216.91,-75.58 194.95,-52.7 180.16,-37.29"/>
<polygon fill="#63b8ff" stroke="#63b8ff" points="182.61,-34.79 173.16,-30 177.56,-39.64 182.61,-34.79"/>
</a>
</g>
</g>
<!-- Node6 -->
<g id="Node000006" class="node">
<title>Node6</title>
<g id="a_Node000006"><a xlink:title=" ">
<polygon fill="#e0e0e0" stroke="#999999" points="266,-30 208,-30 208,-11 266,-11 266,-30"/>
<text text-anchor="middle" x="237" y="-18" font-family="Helvetica,sans-Serif" font-size="10.00">memory</text>
</a>
</g>
</g>
<!-- Node2&#45;&gt;Node6 -->
<g id="edge5_Node000002_Node000006" class="edge">
<title>Node2&#45;&gt;Node6</title>
<g id="a_edge5_Node000002_Node000006"><a xlink:title=" ">
<path fill="none" stroke="#63b8ff" d="M237,-87.9C237,-76.37 237,-55.59 237,-40.34"/>
<polygon fill="#63b8ff" stroke="#63b8ff" points="240.5,-40 237,-30 233.5,-40 240.5,-40"/>
</a>
</g>
</g>
<!-- Node7 -->
<g id="Node000007" class="node">
<title>Node7</title>
<g id="a_Node000007"><a xlink:title=" ">
<polygon fill="#e0e0e0" stroke="#999999" points="362,-30 284,-30 284,-11 362,-11 362,-30"/>
<text text-anchor="middle" x="323" y="-18" font-family="Helvetica,sans-Serif" font-size="10.00">RtosMutex.h</text>
</a>
</g>
</g>
<!-- Node2&#45;&gt;Node7 -->
<g id="edge6_Node000002_Node000007" class="edge">
<title>Node2&#45;&gt;Node7</title>
<g id="a_edge6_Node000002_Node000007"><a xlink:title=" ">
<path fill="none" stroke="#63b8ff" d="M246.87,-87.9C261.12,-75.46 287.71,-52.28 305.38,-36.86"/>
<polygon fill="#63b8ff" stroke="#63b8ff" points="308.01,-39.21 313.25,-30 303.41,-33.94 308.01,-39.21"/>
</a>
</g>
</g>
<!-- Node8 -->
<g id="Node000008" class="node">
<title>Node8</title>
<g id="a_Node000008"><a xlink:title=" ">
<polygon fill="#e0e0e0" stroke="#999999" points="477.5,-30 380.5,-30 380.5,-11 477.5,-11 477.5,-30"/>
<text text-anchor="middle" x="429" y="-18" font-family="Helvetica,sans-Serif" font-size="10.00">base/BaseUart.h</text>
</a>
</g>
</g>
<!-- Node2&#45;&gt;Node8 -->
<g id="edge7_Node000002_Node000008" class="edge">
<title>Node2&#45;&gt;Node8</title>
<g id="a_edge7_Node000002_Node000008"><a xlink:title=" ">
<path fill="none" stroke="#63b8ff" d="M259.02,-87.9C293.02,-74.62 358.43,-49.07 397.45,-33.83"/>
<polygon fill="#63b8ff" stroke="#63b8ff" points="399.19,-36.9 407.23,-30 396.64,-30.38 399.19,-36.9"/>
</a>
</g>
</g>
<!-- Node9 -->
<g id="Node000009" class="node">
<title>Node9</title>
<g id="a_Node000009"><a xlink:title=" ">
<polygon fill="#e0e0e0" stroke="#999999" points="626,-41 496,-41 496,0 626,0 626,-41"/>
<text text-anchor="start" x="504" y="-29" font-family="Helvetica,sans-Serif" font-size="10.00">core/hf&#45;core&#45;drivers</text>
<text text-anchor="start" x="504" y="-18" font-family="Helvetica,sans-Serif" font-size="10.00">/external/hf&#45;fdo2&#45;driver</text>
<text text-anchor="middle" x="561" y="-7" font-family="Helvetica,sans-Serif" font-size="10.00">/inc/fdo2.hpp</text>
</a>
</g>
</g>
<!-- Node2&#45;&gt;Node9 -->
<g id="edge8_Node000002_Node000009" class="edge">
<title>Node2&#45;&gt;Node9</title>
<g id="a_edge8_Node000002_Node000009"><a xlink:title=" ">
<path fill="none" stroke="#63b8ff" d="M257.62,-87.97C267.32,-84.21 279.12,-79.97 290,-77 372.84,-54.37 398.34,-59.91 485.88,-41.15"/>
<polygon fill="#63b8ff" stroke="#63b8ff" points="486.68,-44.56 495.7,-39 485.18,-37.72 486.68,-44.56"/>
</a>
</g>
</g>
</g>
</svg>
