<?xml version="1.0" encoding="UTF-8" standalone="no"?>
<!DOCTYPE svg PUBLIC "-//W3C//DTD SVG 1.1//EN"
 "http://www.w3.org/Graphics/SVG/1.1/DTD/svg11.dtd">
<!-- Generated by graphviz version 2.43.0 (0)
 -->
<!-- Title: general_utils_comprehensive_test.cpp Pages: 1 -->
<svg width="1480pt" height="148pt"
 viewBox="0.00 0.00 1479.50 148.00" xmlns="http://www.w3.org/2000/svg" xmlns:xlink="http://www.w3.org/1999/xlink">
<g id="graph0" class="graph" transform="scale(1 1) rotate(0) translate(4 144)">
<title>general_utils_comprehensive_test.cpp</title>
<!-- Node1 -->
<g id="Node000001" class="node">
<title>Node1</title>
<g id="a_Node000001"><a xlink:title="Comprehensive test suite for hf&#45;utils&#45;general utilities.">
<polygon fill="#999999" stroke="#666666" points="926.5,-140 766.5,-140 766.5,-110 926.5,-110 926.5,-140"/>
<text text-anchor="start" x="774.5" y="-128" font-family="Helvetica,sans-Serif" font-size="10.00">general_utils_comprehensive</text>
<text text-anchor="middle" x="846.5" y="-117" font-family="Helvetica,sans-Serif" font-size="10.00">_test.cpp</text>
</a>
</g>
</g>
<!-- Node2 -->
<g id="Node000002" class="node">
<title>Node2</title>
<g id="a_Node000002"><a xlink:href="TestFramework_8h.html" target="_top" xlink:title="Shared testing framework for ESP32&#45;C6 comprehensive test suites.">
<polygon fill="white" stroke="#666666" points="429.5,-74 329.5,-74 329.5,-55 429.5,-55 429.5,-74"/>
<text text-anchor="middle" x="379.5" y="-62" font-family="Helvetica,sans-Serif" font-size="10.00">TestFramework.h</text>
</a>
</g>
</g>
<!-- Node1&#45;&gt;Node2 -->
<g id="edge1_Node000001_Node000002" class="edge">
<title>Node1&#45;&gt;Node2</title>
<g id="a_edge1_Node000001_Node000002"><a xlink:title=" ">
<path fill="none" stroke="#63b8ff" d="M766.49,-113.98C673.78,-102.36 523.13,-83.49 439.78,-73.05"/>
<polygon fill="#63b8ff" stroke="#63b8ff" points="440.06,-69.56 429.71,-71.79 439.19,-76.51 440.06,-69.56"/>
</a>
</g>
</g>
<!-- Node3 -->
<g id="Node000003" class="node">
<title>Node3</title>
<g id="a_Node000003"><a xlink:title=" ">
<polygon fill="#e0e0e0" stroke="#999999" points="63,-19 0,-19 0,0 63,0 63,-19"/>
<text text-anchor="middle" x="31.5" y="-7" font-family="Helvetica,sans-Serif" font-size="10.00">esp_log.h</text>
</a>
</g>
</g>
<!-- Node1&#45;&gt;Node3 -->
<g id="edge18_Node000001_Node000003" class="edge">
<title>Node1&#45;&gt;Node3</title>
<g id="a_edge18_Node000001_Node000003"><a xlink:title=" ">
<path fill="none" stroke="#63b8ff" d="M766.37,-119.42C662.91,-112.82 477.51,-98.62 320.5,-74 231.64,-60.07 129.13,-35.49 73.22,-21.34"/>
<polygon fill="#63b8ff" stroke="#63b8ff" points="73.89,-17.9 63.33,-18.83 72.16,-24.68 73.89,-17.9"/>
</a>
</g>
</g>
<!-- Node6 -->
<g id="Node000006" class="node">
<title>Node6</title>
<g id="a_Node000006"><a xlink:title=" ">
<polygon fill="#e0e0e0" stroke="#999999" points="620,-19 507,-19 507,0 620,0 620,-19"/>
<text text-anchor="middle" x="563.5" y="-7" font-family="Helvetica,sans-Serif" font-size="10.00">freertos/FreeRTOS.h</text>
</a>
</g>
</g>
<!-- Node1&#45;&gt;Node6 -->
<g id="edge19_Node000001_Node000006" class="edge">
<title>Node1&#45;&gt;Node6</title>
<g id="a_edge19_Node000001_Node000006"><a xlink:title=" ">
<path fill="none" stroke="#63b8ff" d="M766.47,-119.26C696.09,-113.36 600.85,-100.62 574.5,-74 563.07,-62.45 561.07,-43.58 561.48,-29.4"/>
<polygon fill="#63b8ff" stroke="#63b8ff" points="564.98,-29.49 562.18,-19.27 557.99,-29 564.98,-29.49"/>
</a>
</g>
</g>
<!-- Node9 -->
<g id="Node000009" class="node">
<title>Node9</title>
<g id="a_Node000009"><a xlink:title=" ">
<polygon fill="#e0e0e0" stroke="#999999" points="726.5,-19 638.5,-19 638.5,0 726.5,0 726.5,-19"/>
<text text-anchor="middle" x="682.5" y="-7" font-family="Helvetica,sans-Serif" font-size="10.00">freertos/task.h</text>
</a>
</g>
</g>
<!-- Node1&#45;&gt;Node9 -->
<g id="edge20_Node000001_Node000009" class="edge">
<title>Node1&#45;&gt;Node9</title>
<g id="a_edge20_Node000001_Node000009"><a xlink:title=" ">
<path fill="none" stroke="#63b8ff" d="M766.35,-119.65C698.01,-114.07 607.3,-101.56 584.5,-74 565.04,-50.47 602.41,-32.64 636.47,-21.96"/>
<polygon fill="#63b8ff" stroke="#63b8ff" points="637.81,-25.21 646.4,-19 635.82,-18.5 637.81,-25.21"/>
</a>
</g>
</g>
<!-- Node10 -->
<g id="Node000010" class="node">
<title>Node10</title>
<g id="a_Node000010"><a xlink:title=" ">
<polygon fill="#e0e0e0" stroke="#999999" points="685.5,-74 593.5,-74 593.5,-55 685.5,-55 685.5,-74"/>
<text text-anchor="middle" x="639.5" y="-62" font-family="Helvetica,sans-Serif" font-size="10.00">CircularBuffer.h</text>
</a>
</g>
</g>
<!-- Node1&#45;&gt;Node10 -->
<g id="edge9_Node000001_Node000010" class="edge">
<title>Node1&#45;&gt;Node10</title>
<g id="a_edge9_Node000001_Node000010"><a xlink:title=" ">
<path fill="none" stroke="#63b8ff" d="M796.92,-109.99C761.04,-99.85 713.17,-86.32 679.67,-76.85"/>
<polygon fill="#63b8ff" stroke="#63b8ff" points="680.34,-73.41 669.77,-74.05 678.44,-80.14 680.34,-73.41"/>
</a>
</g>
</g>
<!-- Node11 -->
<g id="Node000011" class="node">
<title>Node11</title>
<g id="a_Node000011"><a xlink:title=" ">
<polygon fill="#e0e0e0" stroke="#999999" points="779.5,-74 703.5,-74 703.5,-55 779.5,-55 779.5,-74"/>
<text text-anchor="middle" x="741.5" y="-62" font-family="Helvetica,sans-Serif" font-size="10.00">RingBuffer.h</text>
</a>
</g>
</g>
<!-- Node1&#45;&gt;Node11 -->
<g id="edge10_Node000001_Node000011" class="edge">
<title>Node1&#45;&gt;Node11</title>
<g id="a_edge10_Node000001_Node000011"><a xlink:title=" ">
<path fill="none" stroke="#63b8ff" d="M821.35,-109.99C804.61,-100.66 782.73,-88.47 766.11,-79.21"/>
<polygon fill="#63b8ff" stroke="#63b8ff" points="767.45,-75.95 757.01,-74.14 764.04,-82.06 767.45,-75.95"/>
</a>
</g>
</g>
<!-- Node12 -->
<g id="Node000012" class="node">
<title>Node12</title>
<g id="a_Node000012"><a xlink:title=" ">
<polygon fill="#e0e0e0" stroke="#999999" points="895.5,-74 797.5,-74 797.5,-55 895.5,-55 895.5,-74"/>
<text text-anchor="middle" x="846.5" y="-62" font-family="Helvetica,sans-Serif" font-size="10.00">AveragingFilter.h</text>
</a>
</g>
</g>
<!-- Node1&#45;&gt;Node12 -->
<g id="edge11_Node000001_Node000012" class="edge">
<title>Node1&#45;&gt;Node12</title>
<g id="a_edge11_Node000001_Node000012"><a xlink:title=" ">
<path fill="none" stroke="#63b8ff" d="M846.5,-109.84C846.5,-102.21 846.5,-92.7 846.5,-84.45"/>
<polygon fill="#63b8ff" stroke="#63b8ff" points="850,-84.27 846.5,-74.27 843,-84.27 850,-84.27"/>
</a>
</g>
</g>
<!-- Node13 -->
<g id="Node000013" class="node">
<title>Node13</title>
<g id="a_Node000013"><a xlink:title=" ">
<polygon fill="#e0e0e0" stroke="#999999" points="1003.5,-74 913.5,-74 913.5,-55 1003.5,-55 1003.5,-74"/>
<text text-anchor="middle" x="958.5" y="-62" font-family="Helvetica,sans-Serif" font-size="10.00">CrcCalculator.h</text>
</a>
</g>
</g>
<!-- Node1&#45;&gt;Node13 -->
<g id="edge12_Node000001_Node000013" class="edge">
<title>Node1&#45;&gt;Node13</title>
<g id="a_edge12_Node000001_Node000013"><a xlink:title=" ">
<path fill="none" stroke="#63b8ff" d="M873.33,-109.99C891.35,-100.58 914.96,-88.24 932.75,-78.95"/>
<polygon fill="#63b8ff" stroke="#63b8ff" points="934.72,-81.87 941.96,-74.14 931.48,-75.67 934.72,-81.87"/>
</a>
</g>
</g>
<!-- Node14 -->
<g id="Node000014" class="node">
<title>Node14</title>
<g id="a_Node000014"><a xlink:title=" ">
<polygon fill="#e0e0e0" stroke="#999999" points="1105.5,-74 1021.5,-74 1021.5,-55 1105.5,-55 1105.5,-74"/>
<text text-anchor="middle" x="1063.5" y="-62" font-family="Helvetica,sans-Serif" font-size="10.00">ActionTimer.h</text>
</a>
</g>
</g>
<!-- Node1&#45;&gt;Node14 -->
<g id="edge13_Node000001_Node000014" class="edge">
<title>Node1&#45;&gt;Node14</title>
<g id="a_edge13_Node000001_Node000014"><a xlink:title=" ">
<path fill="none" stroke="#63b8ff" d="M898.48,-109.99C936.25,-99.8 986.71,-86.2 1021.84,-76.73"/>
<polygon fill="#63b8ff" stroke="#63b8ff" points="1023.03,-80.04 1031.77,-74.05 1021.2,-73.28 1023.03,-80.04"/>
</a>
</g>
</g>
<!-- Node15 -->
<g id="Node000015" class="node">
<title>Node15</title>
<g id="a_Node000015"><a xlink:title=" ">
<polygon fill="#e0e0e0" stroke="#999999" points="1227.5,-74 1123.5,-74 1123.5,-55 1227.5,-55 1227.5,-74"/>
<text text-anchor="middle" x="1175.5" y="-62" font-family="Helvetica,sans-Serif" font-size="10.00">SoftwareVersion.h</text>
</a>
</g>
</g>
<!-- Node1&#45;&gt;Node15 -->
<g id="edge14_Node000001_Node000015" class="edge">
<title>Node1&#45;&gt;Node15</title>
<g id="a_edge14_Node000001_Node000015"><a xlink:title=" ">
<path fill="none" stroke="#63b8ff" d="M925.3,-109.99C984.42,-99.48 1064.02,-85.32 1117.41,-75.83"/>
<polygon fill="#63b8ff" stroke="#63b8ff" points="1118.16,-79.25 1127.4,-74.05 1116.94,-72.36 1118.16,-79.25"/>
</a>
</g>
</g>
<!-- Node16 -->
<g id="Node000016" class="node">
<title>Node16</title>
<g id="a_Node000016"><a xlink:title=" ">
<polygon fill="#e0e0e0" stroke="#999999" points="1337.5,-74 1245.5,-74 1245.5,-55 1337.5,-55 1337.5,-74"/>
<text text-anchor="middle" x="1291.5" y="-62" font-family="Helvetica,sans-Serif" font-size="10.00">StateMachine.h</text>
</a>
</g>
</g>
<!-- Node1&#45;&gt;Node16 -->
<g id="edge15_Node000001_Node000016" class="edge">
<title>Node1&#45;&gt;Node16</title>
<g id="a_edge15_Node000001_Node000016"><a xlink:title=" ">
<path fill="none" stroke="#63b8ff" d="M926.5,-114.36C1003.08,-104.98 1122.14,-90.05 1235.09,-74.17"/>
<polygon fill="#63b8ff" stroke="#63b8ff" points="1235.89,-77.59 1245.3,-72.73 1234.91,-70.66 1235.89,-77.59"/>
</a>
</g>
</g>
<!-- Node17 -->
<g id="Node000017" class="node">
<title>Node17</title>
<g id="a_Node000017"><a xlink:title=" ">
<polygon fill="#e0e0e0" stroke="#999999" points="1403,-74 1356,-74 1356,-55 1403,-55 1403,-74"/>
<text text-anchor="middle" x="1379.5" y="-62" font-family="Helvetica,sans-Serif" font-size="10.00">cmath</text>
</a>
</g>
</g>
<!-- Node1&#45;&gt;Node17 -->
<g id="edge16_Node000001_Node000017" class="edge">
<title>Node1&#45;&gt;Node17</title>
<g id="a_edge16_Node000001_Node000017"><a xlink:title=" ">
<path fill="none" stroke="#63b8ff" d="M926.69,-119.76C1023.74,-113.77 1192.19,-100.68 1345.71,-73.85"/>
<polygon fill="#63b8ff" stroke="#63b8ff" points="1346.57,-77.26 1355.8,-72.06 1345.34,-70.36 1346.57,-77.26"/>
</a>
</g>
</g>
<!-- Node18 -->
<g id="Node000018" class="node">
<title>Node18</title>
<g id="a_Node000018"><a xlink:title=" ">
<polygon fill="#e0e0e0" stroke="#999999" points="1471.5,-74 1421.5,-74 1421.5,-55 1471.5,-55 1471.5,-74"/>
<text text-anchor="middle" x="1446.5" y="-62" font-family="Helvetica,sans-Serif" font-size="10.00">cstring</text>
</a>
</g>
</g>
<!-- Node1&#45;&gt;Node18 -->
<g id="edge17_Node000001_Node000018" class="edge">
<title>Node1&#45;&gt;Node18</title>
<g id="a_edge17_Node000001_Node000018"><a xlink:title=" ">
<path fill="none" stroke="#63b8ff" d="M926.68,-120.88C1034.77,-115.79 1233.26,-103.34 1411.27,-73.94"/>
<polygon fill="#63b8ff" stroke="#63b8ff" points="1412.06,-77.36 1421.34,-72.26 1410.9,-70.45 1412.06,-77.36"/>
</a>
</g>
</g>
<!-- Node2&#45;&gt;Node3 -->
<g id="edge2_Node000002_Node000003" class="edge">
<title>Node2&#45;&gt;Node3</title>
<g id="a_edge2_Node000002_Node000003"><a xlink:title=" ">
<path fill="none" stroke="#63b8ff" d="M329.37,-57.18C270.49,-49.55 169.65,-35.82 73.17,-19.02"/>
<polygon fill="#63b8ff" stroke="#63b8ff" points="73.7,-15.56 63.25,-17.28 72.49,-22.46 73.7,-15.56"/>
</a>
</g>
</g>
<!-- Node4 -->
<g id="Node000004" class="node">
<title>Node4</title>
<g id="a_Node000004"><a xlink:title=" ">
<polygon fill="#e0e0e0" stroke="#999999" points="488.5,-19 414.5,-19 414.5,0 488.5,0 488.5,-19"/>
<text text-anchor="middle" x="451.5" y="-7" font-family="Helvetica,sans-Serif" font-size="10.00">esp_timer.h</text>
</a>
</g>
</g>
<!-- Node2&#45;&gt;Node4 -->
<g id="edge3_Node000002_Node000004" class="edge">
<title>Node2&#45;&gt;Node4</title>
<g id="a_edge3_Node000002_Node000004"><a xlink:title=" ">
<path fill="none" stroke="#63b8ff" d="M391.07,-54.98C401.92,-47 418.38,-34.88 431.38,-25.31"/>
<polygon fill="#63b8ff" stroke="#63b8ff" points="433.74,-27.92 439.72,-19.17 429.59,-22.28 433.74,-27.92"/>
</a>
</g>
</g>
<!-- Node5 -->
<g id="Node000005" class="node">
<title>Node5</title>
<g id="a_Node000005"><a xlink:title=" ">
<polygon fill="#e0e0e0" stroke="#999999" points="159.5,-19 81.5,-19 81.5,0 159.5,0 159.5,-19"/>
<text text-anchor="middle" x="120.5" y="-7" font-family="Helvetica,sans-Serif" font-size="10.00">driver/gpio.h</text>
</a>
</g>
</g>
<!-- Node2&#45;&gt;Node5 -->
<g id="edge4_Node000002_Node000005" class="edge">
<title>Node2&#45;&gt;Node5</title>
<g id="a_edge4_Node000002_Node000005"><a xlink:title=" ">
<path fill="none" stroke="#63b8ff" d="M337.89,-54.98C292.1,-45.61 218.55,-30.56 169.88,-20.6"/>
<polygon fill="#63b8ff" stroke="#63b8ff" points="170.39,-17.14 159.89,-18.56 168.98,-23.99 170.39,-17.14"/>
</a>
</g>
</g>
<!-- Node2&#45;&gt;Node6 -->
<g id="edge5_Node000002_Node000006" class="edge">
<title>Node2&#45;&gt;Node6</title>
<g id="a_edge5_Node000002_Node000006"><a xlink:title=" ">
<path fill="none" stroke="#63b8ff" d="M409.06,-54.98C440.22,-46.01 489.47,-31.82 523.96,-21.89"/>
<polygon fill="#63b8ff" stroke="#63b8ff" points="525.07,-25.21 533.71,-19.08 523.13,-18.49 525.07,-25.21"/>
</a>
</g>
</g>
<!-- Node7 -->
<g id="Node000007" class="node">
<title>Node7</title>
<g id="a_Node000007"><a xlink:title=" ">
<polygon fill="#e0e0e0" stroke="#999999" points="275,-19 178,-19 178,0 275,0 275,-19"/>
<text text-anchor="middle" x="226.5" y="-7" font-family="Helvetica,sans-Serif" font-size="10.00">freertos/queue.h</text>
</a>
</g>
</g>
<!-- Node2&#45;&gt;Node7 -->
<g id="edge6_Node000002_Node000007" class="edge">
<title>Node2&#45;&gt;Node7</title>
<g id="a_edge6_Node000002_Node000007"><a xlink:title=" ">
<path fill="none" stroke="#63b8ff" d="M354.92,-54.98C329.45,-46.16 289.46,-32.31 260.87,-22.41"/>
<polygon fill="#63b8ff" stroke="#63b8ff" points="261.87,-19.05 251.27,-19.08 259.58,-25.66 261.87,-19.05"/>
</a>
</g>
</g>
<!-- Node8 -->
<g id="Node000008" class="node">
<title>Node8</title>
<g id="a_Node000008"><a xlink:title=" ">
<polygon fill="#e0e0e0" stroke="#999999" points="396,-19 293,-19 293,0 396,0 396,-19"/>
<text text-anchor="middle" x="344.5" y="-7" font-family="Helvetica,sans-Serif" font-size="10.00">freertos/semphr.h</text>
</a>
</g>
</g>
<!-- Node2&#45;&gt;Node8 -->
<g id="edge7_Node000002_Node000008" class="edge">
<title>Node2&#45;&gt;Node8</title>
<g id="a_edge7_Node000002_Node000008"><a xlink:title=" ">
<path fill="none" stroke="#63b8ff" d="M373.72,-54.75C368.88,-47.42 361.82,-36.73 355.86,-27.7"/>
<polygon fill="#63b8ff" stroke="#63b8ff" points="358.6,-25.5 350.17,-19.09 352.76,-29.36 358.6,-25.5"/>
</a>
</g>
</g>
<!-- Node2&#45;&gt;Node9 -->
<g id="edge8_Node000002_Node000009" class="edge">
<title>Node2&#45;&gt;Node9</title>
<g id="a_edge8_Node000002_Node000009"><a xlink:title=" ">
<path fill="none" stroke="#63b8ff" d="M428.18,-54.98C482.94,-45.41 571.64,-29.89 628.49,-19.95"/>
<polygon fill="#63b8ff" stroke="#63b8ff" points="629.13,-23.39 638.37,-18.22 627.92,-16.49 629.13,-23.39"/>
</a>
</g>
</g>
</g>
</svg>
