<?xml version="1.0" encoding="UTF-8" standalone="no"?>
<!DOCTYPE svg PUBLIC "-//W3C//DTD SVG 1.1//EN"
 "http://www.w3.org/Graphics/SVG/1.1/DTD/svg11.dtd">
<!-- Generated by graphviz version 2.43.0 (0)
 -->
<!-- Title: HandlerCommon.h Pages: 1 -->
<svg width="556pt" height="82pt"
 viewBox="0.00 0.00 556.00 82.00" xmlns="http://www.w3.org/2000/svg" xmlns:xlink="http://www.w3.org/1999/xlink">
<g id="graph0" class="graph" transform="scale(1 1) rotate(0) translate(4 78)">
<title>HandlerCommon.h</title>
<!-- Node1 -->
<g id="Node000001" class="node">
<title>Node1</title>
<g id="a_Node000001"><a xlink:title="Shared utility functions for handler CRTP communication adapters.">
<polygon fill="#999999" stroke="#666666" points="333.5,-74 225.5,-74 225.5,-55 333.5,-55 333.5,-74"/>
<text text-anchor="middle" x="279.5" y="-62" font-family="Helvetica,sans-Serif" font-size="10.00">HandlerCommon.h</text>
</a>
</g>
</g>
<!-- Node2 -->
<g id="Node000002" class="node">
<title>Node2</title>
<g id="a_Node000002"><a xlink:href="Max22200Handler_8cpp.html" target="_top" xlink:title="Implementation of MAX22200 handler with SPI communication adapter.">
<polygon fill="white" stroke="#666666" points="125,-19 0,-19 0,0 125,0 125,-19"/>
<text text-anchor="middle" x="62.5" y="-7" font-family="Helvetica,sans-Serif" font-size="10.00">Max22200Handler.cpp</text>
</a>
</g>
</g>
<!-- Node1&#45;&gt;Node2 -->
<g id="edge1_Node000001_Node000002" class="edge">
<title>Node1&#45;&gt;Node2</title>
<g id="a_edge1_Node000001_Node000002"><a xlink:title=" ">
<path fill="none" stroke="#63b8ff" d="M234.73,-52.56C194.08,-42.64 134.97,-28.2 97.64,-19.08"/>
<polygon fill="#63b8ff" stroke="#63b8ff" points="234.09,-56.01 244.64,-54.98 235.75,-49.21 234.09,-56.01"/>
</a>
</g>
</g>
<!-- Node3 -->
<g id="Node000003" class="node">
<title>Node3</title>
<g id="a_Node000003"><a xlink:href="Tle92466edHandler_8cpp.html" target="_top" xlink:title="Implementation of TLE92466ED handler with SPI communication adapter.">
<polygon fill="white" stroke="#666666" points="274,-19 143,-19 143,0 274,0 274,-19"/>
<text text-anchor="middle" x="208.5" y="-7" font-family="Helvetica,sans-Serif" font-size="10.00">Tle92466edHandler.cpp</text>
</a>
</g>
</g>
<!-- Node1&#45;&gt;Node3 -->
<g id="edge2_Node000001_Node000003" class="edge">
<title>Node1&#45;&gt;Node3</title>
<g id="a_edge2_Node000001_Node000003"><a xlink:title=" ">
<path fill="none" stroke="#63b8ff" d="M259.91,-48.88C247.13,-39.34 230.89,-27.21 220.11,-19.17"/>
<polygon fill="#63b8ff" stroke="#63b8ff" points="257.99,-51.81 268.09,-54.98 262.17,-46.2 257.99,-51.81"/>
</a>
</g>
</g>
<!-- Node4 -->
<g id="Node000004" class="node">
<title>Node4</title>
<g id="a_Node000004"><a xlink:href="Tmc5160Handler_8cpp.html" target="_top" xlink:title="Implementation of TMC5160 handler with SPI/UART communication adapters.">
<polygon fill="white" stroke="#666666" points="411,-19 292,-19 292,0 411,0 411,-19"/>
<text text-anchor="middle" x="351.5" y="-7" font-family="Helvetica,sans-Serif" font-size="10.00">Tmc5160Handler.cpp</text>
</a>
</g>
</g>
<!-- Node1&#45;&gt;Node4 -->
<g id="edge3_Node000001_Node000004" class="edge">
<title>Node1&#45;&gt;Node4</title>
<g id="a_edge3_Node000001_Node000004"><a xlink:title=" ">
<path fill="none" stroke="#63b8ff" d="M299.37,-48.88C312.32,-39.34 328.8,-27.21 339.72,-19.17"/>
<polygon fill="#63b8ff" stroke="#63b8ff" points="297.05,-46.24 291.07,-54.98 301.2,-51.88 297.05,-46.24"/>
</a>
</g>
</g>
<!-- Node5 -->
<g id="Node000005" class="node">
<title>Node5</title>
<g id="a_Node000005"><a xlink:href="Tmc9660Handler_8cpp.html" target="_top" xlink:title=" ">
<polygon fill="white" stroke="#666666" points="548,-19 429,-19 429,0 548,0 548,-19"/>
<text text-anchor="middle" x="488.5" y="-7" font-family="Helvetica,sans-Serif" font-size="10.00">Tmc9660Handler.cpp</text>
</a>
</g>
</g>
<!-- Node1&#45;&gt;Node5 -->
<g id="edge4_Node000001_Node000005" class="edge">
<title>Node1&#45;&gt;Node5</title>
<g id="a_edge4_Node000001_Node000005"><a xlink:title=" ">
<path fill="none" stroke="#63b8ff" d="M322.87,-52.5C362.01,-42.58 418.78,-28.18 454.66,-19.08"/>
<polygon fill="#63b8ff" stroke="#63b8ff" points="321.91,-49.13 313.08,-54.98 323.63,-55.92 321.91,-49.13"/>
</a>
</g>
</g>
</g>
</svg>
