<?xml version="1.0" encoding="UTF-8" standalone="no"?>
<!DOCTYPE svg PUBLIC "-//W3C//DTD SVG 1.1//EN"
 "http://www.w3.org/Graphics/SVG/1.1/DTD/svg11.dtd">
<!-- Generated by graphviz version 2.43.0 (0)
 -->
<!-- Title: Logger.h Pages: 1 -->
<svg width="1457pt" height="148pt"
 viewBox="0.00 0.00 1457.00 148.00" xmlns="http://www.w3.org/2000/svg" xmlns:xlink="http://www.w3.org/1999/xlink">
<g id="graph0" class="graph" transform="scale(1 1) rotate(0) translate(4 144)">
<title>Logger.h</title>
<!-- Node1 -->
<g id="Node000001" class="node">
<title>Node1</title>
<g id="a_Node000001"><a xlink:title="Advanced logging system with formatting capabilities.">
<polygon fill="#999999" stroke="#666666" points="568,-140 510,-140 510,-121 568,-121 568,-140"/>
<text text-anchor="middle" x="539" y="-128" font-family="Helvetica,sans-Serif" font-size="10.00">Logger.h</text>
</a>
</g>
</g>
<!-- Node2 -->
<g id="Node000002" class="node">
<title>Node2</title>
<g id="a_Node000002"><a xlink:href="As5047uHandler_8cpp.html" target="_top" xlink:title="Implementation of unified AS5047U magnetic rotary position sensor handler.">
<polygon fill="white" stroke="#666666" points="116,-79.5 0,-79.5 0,-60.5 116,-60.5 116,-79.5"/>
<text text-anchor="middle" x="58" y="-67.5" font-family="Helvetica,sans-Serif" font-size="10.00">As5047uHandler.cpp</text>
</a>
</g>
</g>
<!-- Node1&#45;&gt;Node2 -->
<g id="edge1_Node000001_Node000002" class="edge">
<title>Node1&#45;&gt;Node2</title>
<g id="a_edge1_Node000001_Node000002"><a xlink:title=" ">
<path fill="none" stroke="#63b8ff" d="M499.53,-126.57C425.7,-120.79 261.8,-106.59 125,-85 115.37,-83.48 105.04,-81.5 95.44,-79.51"/>
<polygon fill="#63b8ff" stroke="#63b8ff" points="499.52,-130.08 509.76,-127.36 500.06,-123.1 499.52,-130.08"/>
</a>
</g>
</g>
<!-- Node3 -->
<g id="Node000003" class="node">
<title>Node3</title>
<g id="a_Node000003"><a xlink:href="Bno08xHandler_8cpp.html" target="_top" xlink:title="Implementation of unified BNO08x IMU sensor handler.">
<polygon fill="white" stroke="#666666" points="245.5,-79.5 134.5,-79.5 134.5,-60.5 245.5,-60.5 245.5,-79.5"/>
<text text-anchor="middle" x="190" y="-67.5" font-family="Helvetica,sans-Serif" font-size="10.00">Bno08xHandler.cpp</text>
</a>
</g>
</g>
<!-- Node1&#45;&gt;Node3 -->
<g id="edge2_Node000001_Node000003" class="edge">
<title>Node1&#45;&gt;Node3</title>
<g id="a_edge2_Node000001_Node000003"><a xlink:title=" ">
<path fill="none" stroke="#63b8ff" d="M499.41,-123.69C445.26,-115.62 345.09,-100.29 260,-85 250.73,-83.33 240.79,-81.42 231.41,-79.56"/>
<polygon fill="#63b8ff" stroke="#63b8ff" points="499.21,-127.19 509.61,-125.2 500.24,-120.27 499.21,-127.19"/>
</a>
</g>
</g>
<!-- Node4 -->
<g id="Node000004" class="node">
<title>Node4</title>
<g id="a_Node000004"><a xlink:href="HandlerCommon_8h.html" target="_top" xlink:title="Shared utility functions for handler CRTP communication adapters.">
<polygon fill="white" stroke="#666666" points="448,-79.5 340,-79.5 340,-60.5 448,-60.5 448,-79.5"/>
<text text-anchor="middle" x="394" y="-67.5" font-family="Helvetica,sans-Serif" font-size="10.00">HandlerCommon.h</text>
</a>
</g>
</g>
<!-- Node1&#45;&gt;Node4 -->
<g id="edge3_Node000001_Node000004" class="edge">
<title>Node1&#45;&gt;Node4</title>
<g id="a_edge3_Node000001_Node000004"><a xlink:title=" ">
<path fill="none" stroke="#63b8ff" d="M508.59,-117.23C480.57,-105.92 439.71,-89.44 415.11,-79.52"/>
<polygon fill="#63b8ff" stroke="#63b8ff" points="507.33,-120.5 517.92,-120.99 509.95,-114.01 507.33,-120.5"/>
</a>
</g>
</g>
<!-- Node5 -->
<g id="Node000005" class="node">
<title>Node5</title>
<g id="a_Node000005"><a xlink:href="Max22200Handler_8cpp.html" target="_top" xlink:title="Implementation of MAX22200 handler with SPI communication adapter.">
<polygon fill="white" stroke="#666666" points="228.5,-19 103.5,-19 103.5,0 228.5,0 228.5,-19"/>
<text text-anchor="middle" x="166" y="-7" font-family="Helvetica,sans-Serif" font-size="10.00">Max22200Handler.cpp</text>
</a>
</g>
</g>
<!-- Node1&#45;&gt;Node5 -->
<g id="edge9_Node000001_Node000005" class="edge">
<title>Node1&#45;&gt;Node5</title>
<g id="a_edge9_Node000001_Node000005"><a xlink:title=" ">
<path fill="none" stroke="#63b8ff" d="M499.67,-125.36C453.49,-119.69 375.05,-107.56 311,-85 284,-75.49 279.44,-68.13 254,-55 229.5,-42.36 201.01,-28.02 183.24,-19.11"/>
<polygon fill="#63b8ff" stroke="#63b8ff" points="499.51,-128.86 509.85,-126.57 500.33,-121.91 499.51,-128.86"/>
</a>
</g>
</g>
<!-- Node6 -->
<g id="Node000006" class="node">
<title>Node6</title>
<g id="a_Node000006"><a xlink:href="Tle92466edHandler_8cpp.html" target="_top" xlink:title="Implementation of TLE92466ED handler with SPI communication adapter.">
<polygon fill="white" stroke="#666666" points="377.5,-19 246.5,-19 246.5,0 377.5,0 377.5,-19"/>
<text text-anchor="middle" x="312" y="-7" font-family="Helvetica,sans-Serif" font-size="10.00">Tle92466edHandler.cpp</text>
</a>
</g>
</g>
<!-- Node1&#45;&gt;Node6 -->
<g id="edge13_Node000001_Node000006" class="edge">
<title>Node1&#45;&gt;Node6</title>
<g id="a_edge13_Node000001_Node000006"><a xlink:title=" ">
<path fill="none" stroke="#63b8ff" d="M499.55,-125.98C446.12,-120.42 354.7,-107.8 331,-85 312.72,-67.42 311.11,-34.9 311.49,-19.3"/>
<polygon fill="#63b8ff" stroke="#63b8ff" points="499.39,-129.48 509.69,-127 500.1,-122.52 499.39,-129.48"/>
</a>
</g>
</g>
<!-- Node7 -->
<g id="Node000007" class="node">
<title>Node7</title>
<g id="a_Node000007"><a xlink:href="Tmc5160Handler_8cpp.html" target="_top" xlink:title="Implementation of TMC5160 handler with SPI/UART communication adapters.">
<polygon fill="white" stroke="#666666" points="651.5,-19 532.5,-19 532.5,0 651.5,0 651.5,-19"/>
<text text-anchor="middle" x="592" y="-7" font-family="Helvetica,sans-Serif" font-size="10.00">Tmc5160Handler.cpp</text>
</a>
</g>
</g>
<!-- Node1&#45;&gt;Node7 -->
<g id="edge14_Node000001_Node000007" class="edge">
<title>Node1&#45;&gt;Node7</title>
<g id="a_edge14_Node000001_Node000007"><a xlink:title=" ">
<path fill="none" stroke="#63b8ff" d="M518.76,-114.57C510,-106.84 500.69,-96.59 496,-85 491,-72.64 488.82,-66.24 496,-55 507.87,-36.42 529.7,-25.48 549.55,-19.1"/>
<polygon fill="#63b8ff" stroke="#63b8ff" points="516.56,-117.29 526.51,-120.93 521,-111.88 516.56,-117.29"/>
</a>
</g>
</g>
<!-- Node9 -->
<g id="Node000009" class="node">
<title>Node9</title>
<g id="a_Node000009"><a xlink:href="Logger_8cpp.html" target="_top" xlink:title="Implementation of the advanced logging system.">
<polygon fill="white" stroke="#666666" points="573.5,-79.5 504.5,-79.5 504.5,-60.5 573.5,-60.5 573.5,-79.5"/>
<text text-anchor="middle" x="539" y="-67.5" font-family="Helvetica,sans-Serif" font-size="10.00">Logger.cpp</text>
</a>
</g>
</g>
<!-- Node1&#45;&gt;Node9 -->
<g id="edge8_Node000001_Node000009" class="edge">
<title>Node1&#45;&gt;Node9</title>
<g id="a_edge8_Node000001_Node000009"><a xlink:title=" ">
<path fill="none" stroke="#63b8ff" d="M539,-110.66C539,-100.24 539,-87.8 539,-79.67"/>
<polygon fill="#63b8ff" stroke="#63b8ff" points="535.5,-110.87 539,-120.87 542.5,-110.87 535.5,-110.87"/>
</a>
</g>
</g>
<!-- Node10 -->
<g id="Node000010" class="node">
<title>Node10</title>
<g id="a_Node000010"><a xlink:href="NtcTemperatureHandler_8cpp.html" target="_top" xlink:title="Implementation of NTC temperature sensor handler for HardFOC system.">
<polygon fill="white" stroke="#666666" points="744,-79.5 592,-79.5 592,-60.5 744,-60.5 744,-79.5"/>
<text text-anchor="middle" x="668" y="-67.5" font-family="Helvetica,sans-Serif" font-size="10.00">NtcTemperatureHandler.cpp</text>
</a>
</g>
</g>
<!-- Node1&#45;&gt;Node10 -->
<g id="edge10_Node000001_Node000010" class="edge">
<title>Node1&#45;&gt;Node10</title>
<g id="a_edge10_Node000001_Node000010"><a xlink:title=" ">
<path fill="none" stroke="#63b8ff" d="M567.04,-116.78C591.94,-105.49 627.62,-89.31 649.22,-79.52"/>
<polygon fill="#63b8ff" stroke="#63b8ff" points="565.42,-113.68 557.76,-120.99 568.31,-120.05 565.42,-113.68"/>
</a>
</g>
</g>
<!-- Node11 -->
<g id="Node000011" class="node">
<title>Node11</title>
<g id="a_Node000011"><a xlink:href="Pca9685Handler_8cpp.html" target="_top" xlink:title="Implementation of the PCA9685 PWM controller handler.">
<polygon fill="white" stroke="#666666" points="878,-79.5 762,-79.5 762,-60.5 878,-60.5 878,-79.5"/>
<text text-anchor="middle" x="820" y="-67.5" font-family="Helvetica,sans-Serif" font-size="10.00">Pca9685Handler.cpp</text>
</a>
</g>
</g>
<!-- Node1&#45;&gt;Node11 -->
<g id="edge11_Node000001_Node000011" class="edge">
<title>Node1&#45;&gt;Node11</title>
<g id="a_edge11_Node000001_Node000011"><a xlink:title=" ">
<path fill="none" stroke="#63b8ff" d="M578.1,-121.38C621,-112.47 691.91,-97.73 753,-85 761.49,-83.23 770.59,-81.33 779.26,-79.52"/>
<polygon fill="#63b8ff" stroke="#63b8ff" points="577.16,-118 568.08,-123.46 578.58,-124.86 577.16,-118"/>
</a>
</g>
</g>
<!-- Node12 -->
<g id="Node000012" class="node">
<title>Node12</title>
<g id="a_Node000012"><a xlink:href="Pcal95555Handler_8cpp.html" target="_top" xlink:title="Implementation of the PCAL95555 GPIO expander handler.">
<polygon fill="white" stroke="#666666" points="1021.5,-79.5 896.5,-79.5 896.5,-60.5 1021.5,-60.5 1021.5,-79.5"/>
<text text-anchor="middle" x="959" y="-67.5" font-family="Helvetica,sans-Serif" font-size="10.00">Pcal95555Handler.cpp</text>
</a>
</g>
</g>
<!-- Node1&#45;&gt;Node12 -->
<g id="edge12_Node000001_Node000012" class="edge">
<title>Node1&#45;&gt;Node12</title>
<g id="a_edge12_Node000001_Node000012"><a xlink:title=" ">
<path fill="none" stroke="#63b8ff" d="M578.58,-125.28C643.28,-118.2 775.64,-102.93 887,-85 896.93,-83.4 907.59,-81.46 917.58,-79.53"/>
<polygon fill="#63b8ff" stroke="#63b8ff" points="577.99,-121.83 568.42,-126.39 578.74,-128.79 577.99,-121.83"/>
</a>
</g>
</g>
<!-- Node13 -->
<g id="Node000013" class="node">
<title>Node13</title>
<g id="a_Node000013"><a xlink:href="Ws2812Handler_8cpp.html" target="_top" xlink:title="Implementation of WS2812 LED strip handler.">
<polygon fill="white" stroke="#666666" points="1152.5,-79.5 1039.5,-79.5 1039.5,-60.5 1152.5,-60.5 1152.5,-79.5"/>
<text text-anchor="middle" x="1096" y="-67.5" font-family="Helvetica,sans-Serif" font-size="10.00">Ws2812Handler.cpp</text>
</a>
</g>
</g>
<!-- Node1&#45;&gt;Node13 -->
<g id="edge15_Node000001_Node000013" class="edge">
<title>Node1&#45;&gt;Node13</title>
<g id="a_edge15_Node000001_Node000013"><a xlink:title=" ">
<path fill="none" stroke="#63b8ff" d="M578.34,-127.57C662.02,-123.12 863.71,-110.48 1031,-85 1040.47,-83.56 1050.63,-81.58 1060.04,-79.56"/>
<polygon fill="#63b8ff" stroke="#63b8ff" points="578.07,-124.08 568.26,-128.1 578.43,-131.07 578.07,-124.08"/>
</a>
</g>
</g>
<!-- Node14 -->
<g id="Node000014" class="node">
<title>Node14</title>
<g id="a_Node000014"><a xlink:href="full__system__integration__test_8cpp.html" target="_top" xlink:title="Full system integration test for hf&#45;core.">
<polygon fill="white" stroke="#666666" points="1303,-85 1171,-85 1171,-55 1303,-55 1303,-85"/>
<text text-anchor="start" x="1179" y="-73" font-family="Helvetica,sans-Serif" font-size="10.00">full_system_integration</text>
<text text-anchor="middle" x="1237" y="-62" font-family="Helvetica,sans-Serif" font-size="10.00">_test.cpp</text>
</a>
</g>
</g>
<!-- Node1&#45;&gt;Node14 -->
<g id="edge16_Node000001_Node000014" class="edge">
<title>Node1&#45;&gt;Node14</title>
<g id="a_edge16_Node000001_Node000014"><a xlink:title=" ">
<path fill="none" stroke="#63b8ff" d="M578.42,-128.23C677.09,-124.73 942.53,-113.23 1162,-85 1164.89,-84.63 1167.84,-84.22 1170.81,-83.78"/>
<polygon fill="#63b8ff" stroke="#63b8ff" points="578.18,-124.74 568.31,-128.59 578.43,-131.74 578.18,-124.74"/>
</a>
</g>
</g>
<!-- Node15 -->
<g id="Node000015" class="node">
<title>Node15</title>
<g id="a_Node000015"><a xlink:href="logger__comprehensive__test_8cpp.html" target="_top" xlink:title="Comprehensive test suite for Logger singleton.">
<polygon fill="white" stroke="#666666" points="1449,-85 1321,-85 1321,-55 1449,-55 1449,-85"/>
<text text-anchor="start" x="1329" y="-73" font-family="Helvetica,sans-Serif" font-size="10.00">logger_comprehensive</text>
<text text-anchor="middle" x="1385" y="-62" font-family="Helvetica,sans-Serif" font-size="10.00">_test.cpp</text>
</a>
</g>
</g>
<!-- Node1&#45;&gt;Node15 -->
<g id="edge17_Node000001_Node000015" class="edge">
<title>Node1&#45;&gt;Node15</title>
<g id="a_edge17_Node000001_Node000015"><a xlink:title=" ">
<path fill="none" stroke="#63b8ff" d="M578.6,-129.06C692.81,-127.4 1032.54,-119.69 1312,-85 1314.95,-84.63 1317.95,-84.22 1320.98,-83.77"/>
<polygon fill="#63b8ff" stroke="#63b8ff" points="578.21,-125.57 568.26,-129.2 578.3,-132.57 578.21,-125.57"/>
</a>
</g>
</g>
<!-- Node4&#45;&gt;Node5 -->
<g id="edge4_Node000004_Node000005" class="edge">
<title>Node4&#45;&gt;Node5</title>
<g id="a_edge4_Node000004_Node000005"><a xlink:title=" ">
<path fill="none" stroke="#63b8ff" d="M351,-57.97C306.92,-46.66 239.31,-29.31 199.19,-19.02"/>
<polygon fill="#63b8ff" stroke="#63b8ff" points="350.29,-61.4 360.85,-60.49 352.03,-54.62 350.29,-61.4"/>
</a>
</g>
</g>
<!-- Node4&#45;&gt;Node6 -->
<g id="edge5_Node000004_Node000006" class="edge">
<title>Node4&#45;&gt;Node6</title>
<g id="a_edge5_Node000004_Node000006"><a xlink:title=" ">
<path fill="none" stroke="#63b8ff" d="M373.46,-54.35C357.93,-43.27 337.13,-28.43 324.15,-19.17"/>
<polygon fill="#63b8ff" stroke="#63b8ff" points="371.73,-57.41 381.9,-60.37 375.79,-51.71 371.73,-57.41"/>
</a>
</g>
</g>
<!-- Node4&#45;&gt;Node7 -->
<g id="edge6_Node000004_Node000007" class="edge">
<title>Node4&#45;&gt;Node7</title>
<g id="a_edge6_Node000004_Node000007"><a xlink:title=" ">
<path fill="none" stroke="#63b8ff" d="M432.56,-57.61C470.85,-46.29 528.7,-29.2 563.17,-19.02"/>
<polygon fill="#63b8ff" stroke="#63b8ff" points="431.39,-54.3 422.79,-60.49 433.37,-61.02 431.39,-54.3"/>
</a>
</g>
</g>
<!-- Node8 -->
<g id="Node000008" class="node">
<title>Node8</title>
<g id="a_Node000008"><a xlink:href="Tmc9660Handler_8cpp.html" target="_top" xlink:title=" ">
<polygon fill="white" stroke="#666666" points="514.5,-19 395.5,-19 395.5,0 514.5,0 514.5,-19"/>
<text text-anchor="middle" x="455" y="-7" font-family="Helvetica,sans-Serif" font-size="10.00">Tmc9660Handler.cpp</text>
</a>
</g>
</g>
<!-- Node4&#45;&gt;Node8 -->
<g id="edge7_Node000004_Node000008" class="edge">
<title>Node4&#45;&gt;Node8</title>
<g id="a_edge7_Node000004_Node000008"><a xlink:title=" ">
<path fill="none" stroke="#63b8ff" d="M410.26,-53.41C421.7,-42.44 436.58,-28.17 445.96,-19.17"/>
<polygon fill="#63b8ff" stroke="#63b8ff" points="407.8,-50.92 403,-60.37 412.64,-55.97 407.8,-50.92"/>
</a>
</g>
</g>
</g>
</svg>
