<?xml version="1.0" encoding="UTF-8" standalone="no"?>
<!DOCTYPE svg PUBLIC "-//W3C//DTD SVG 1.1//EN"
 "http://www.w3.org/Graphics/SVG/1.1/DTD/svg11.dtd">
<!-- Generated by graphviz version 2.43.0 (0)
 -->
<!-- Title: Logger.h Pages: 1 -->
<svg width="1844pt" height="148pt"
 viewBox="0.00 0.00 1844.00 148.00" xmlns="http://www.w3.org/2000/svg" xmlns:xlink="http://www.w3.org/1999/xlink">
<g id="graph0" class="graph" transform="scale(1 1) rotate(0) translate(4 144)">
<title>Logger.h</title>
<!-- Node1 -->
<g id="Node000001" class="node">
<title>Node1</title>
<g id="a_Node000001"><a xlink:title="Advanced logging system with formatting capabilities.">
<polygon fill="#999999" stroke="#666666" points="816,-140 758,-140 758,-121 816,-121 816,-140"/>
<text text-anchor="middle" x="787" y="-128" font-family="Helvetica,sans-Serif" font-size="10.00">Logger.h</text>
</a>
</g>
</g>
<!-- Node2 -->
<g id="Node000002" class="node">
<title>Node2</title>
<g id="a_Node000002"><a xlink:href="Ads7952Handler_8cpp.html" target="_top" xlink:title="Implementation of the ADS7952 12&#45;channel SAR ADC handler.">
<polygon fill="white" stroke="#666666" points="116,-79.5 0,-79.5 0,-60.5 116,-60.5 116,-79.5"/>
<text text-anchor="middle" x="58" y="-67.5" font-family="Helvetica,sans-Serif" font-size="10.00">Ads7952Handler.cpp</text>
</a>
</g>
</g>
<!-- Node1&#45;&gt;Node2 -->
<g id="edge1_Node000001_Node000002" class="edge">
<title>Node1&#45;&gt;Node2</title>
<g id="a_edge1_Node000001_Node000002"><a xlink:title=" ">
<path fill="none" stroke="#63b8ff" d="M747.59,-128.76C644.71,-126.41 359.76,-117.26 125,-85 114.99,-83.62 104.25,-81.62 94.35,-79.55"/>
<polygon fill="#63b8ff" stroke="#63b8ff" points="747.74,-132.26 757.82,-128.98 747.9,-125.26 747.74,-132.26"/>
</a>
</g>
</g>
<!-- Node3 -->
<g id="Node000003" class="node">
<title>Node3</title>
<g id="a_Node000003"><a xlink:href="As5047uHandler_8cpp.html" target="_top" xlink:title="Implementation of unified AS5047U magnetic rotary position sensor handler.">
<polygon fill="white" stroke="#666666" points="250,-79.5 134,-79.5 134,-60.5 250,-60.5 250,-79.5"/>
<text text-anchor="middle" x="192" y="-67.5" font-family="Helvetica,sans-Serif" font-size="10.00">As5047uHandler.cpp</text>
</a>
</g>
</g>
<!-- Node1&#45;&gt;Node3 -->
<g id="edge2_Node000001_Node000003" class="edge">
<title>Node1&#45;&gt;Node3</title>
<g id="a_edge2_Node000001_Node000003"><a xlink:title=" ">
<path fill="none" stroke="#63b8ff" d="M747.91,-127.84C660.11,-123.75 440.72,-111.54 259,-85 249.12,-83.56 238.51,-81.55 228.72,-79.51"/>
<polygon fill="#63b8ff" stroke="#63b8ff" points="747.8,-131.34 757.95,-128.3 748.12,-124.34 747.8,-131.34"/>
</a>
</g>
</g>
<!-- Node4 -->
<g id="Node000004" class="node">
<title>Node4</title>
<g id="a_Node000004"><a xlink:href="Bno08xHandler_8cpp.html" target="_top" xlink:title="Implementation of unified BNO08x IMU sensor handler.">
<polygon fill="white" stroke="#666666" points="379.5,-79.5 268.5,-79.5 268.5,-60.5 379.5,-60.5 379.5,-79.5"/>
<text text-anchor="middle" x="324" y="-67.5" font-family="Helvetica,sans-Serif" font-size="10.00">Bno08xHandler.cpp</text>
</a>
</g>
</g>
<!-- Node1&#45;&gt;Node4 -->
<g id="edge3_Node000001_Node000004" class="edge">
<title>Node1&#45;&gt;Node4</title>
<g id="a_edge3_Node000001_Node000004"><a xlink:title=" ">
<path fill="none" stroke="#63b8ff" d="M747.44,-126.46C675.55,-120.64 518.83,-106.55 388,-85 378.8,-83.48 368.92,-81.5 359.75,-79.51"/>
<polygon fill="#63b8ff" stroke="#63b8ff" points="747.57,-129.99 757.82,-127.3 748.13,-123.01 747.57,-129.99"/>
</a>
</g>
</g>
<!-- Node5 -->
<g id="Node000005" class="node">
<title>Node5</title>
<g id="a_Node000005"><a xlink:href="EspLoggerFactory_8cpp.html" target="_top" xlink:title="ESP32&#45;family implementation of Logger::CreateDefaultBaseLogger().">
<polygon fill="white" stroke="#666666" points="518.5,-79.5 397.5,-79.5 397.5,-60.5 518.5,-60.5 518.5,-79.5"/>
<text text-anchor="middle" x="458" y="-67.5" font-family="Helvetica,sans-Serif" font-size="10.00">EspLoggerFactory.cpp</text>
</a>
</g>
</g>
<!-- Node1&#45;&gt;Node5 -->
<g id="edge4_Node000001_Node000005" class="edge">
<title>Node1&#45;&gt;Node5</title>
<g id="a_edge4_Node000001_Node000005"><a xlink:title=" ">
<path fill="none" stroke="#63b8ff" d="M747.6,-122.74C697.64,-114.13 608.88,-98.73 533,-85 523.35,-83.25 513.02,-81.35 503.2,-79.52"/>
<polygon fill="#63b8ff" stroke="#63b8ff" points="747.2,-126.22 757.65,-124.47 748.39,-119.32 747.2,-126.22"/>
</a>
</g>
</g>
<!-- Node6 -->
<g id="Node000006" class="node">
<title>Node6</title>
<g id="a_Node000006"><a xlink:href="HandlerCommon_8h.html" target="_top" xlink:title="Shared utility functions for handler CRTP communication adapters.">
<polygon fill="white" stroke="#666666" points="721,-79.5 613,-79.5 613,-60.5 721,-60.5 721,-79.5"/>
<text text-anchor="middle" x="667" y="-67.5" font-family="Helvetica,sans-Serif" font-size="10.00">HandlerCommon.h</text>
</a>
</g>
</g>
<!-- Node1&#45;&gt;Node6 -->
<g id="edge5_Node000001_Node000006" class="edge">
<title>Node1&#45;&gt;Node6</title>
<g id="a_edge5_Node000001_Node000006"><a xlink:title=" ">
<path fill="none" stroke="#63b8ff" d="M760.3,-116.48C737.17,-105.21 704.39,-89.23 684.47,-79.52"/>
<polygon fill="#63b8ff" stroke="#63b8ff" points="759.03,-119.76 769.55,-120.99 762.1,-113.47 759.03,-119.76"/>
</a>
</g>
</g>
<!-- Node7 -->
<g id="Node000007" class="node">
<title>Node7</title>
<g id="a_Node000007"><a xlink:href="Max22200Handler_8cpp.html" target="_top" xlink:title="Implementation of MAX22200 handler with SPI communication adapter.">
<polygon fill="white" stroke="#666666" points="501.5,-19 376.5,-19 376.5,0 501.5,0 501.5,-19"/>
<text text-anchor="middle" x="439" y="-7" font-family="Helvetica,sans-Serif" font-size="10.00">Max22200Handler.cpp</text>
</a>
</g>
</g>
<!-- Node1&#45;&gt;Node7 -->
<g id="edge12_Node000001_Node000007" class="edge">
<title>Node1&#45;&gt;Node7</title>
<g id="a_edge12_Node000001_Node000007"><a xlink:title=" ">
<path fill="none" stroke="#63b8ff" d="M747.74,-124.1C706.2,-117.65 639.14,-105.14 584,-85 557.11,-75.18 552.44,-68.13 527,-55 502.5,-42.36 474.01,-28.02 456.24,-19.11"/>
<polygon fill="#63b8ff" stroke="#63b8ff" points="747.32,-127.58 757.73,-125.61 748.37,-120.66 747.32,-127.58"/>
</a>
</g>
</g>
<!-- Node8 -->
<g id="Node000008" class="node">
<title>Node8</title>
<g id="a_Node000008"><a xlink:href="Tle92466edHandler_8cpp.html" target="_top" xlink:title="Implementation of TLE92466ED handler with SPI communication adapter.">
<polygon fill="white" stroke="#666666" points="650.5,-19 519.5,-19 519.5,0 650.5,0 650.5,-19"/>
<text text-anchor="middle" x="585" y="-7" font-family="Helvetica,sans-Serif" font-size="10.00">Tle92466edHandler.cpp</text>
</a>
</g>
</g>
<!-- Node1&#45;&gt;Node8 -->
<g id="edge16_Node000001_Node000008" class="edge">
<title>Node1&#45;&gt;Node8</title>
<g id="a_edge16_Node000001_Node000008"><a xlink:title=" ">
<path fill="none" stroke="#63b8ff" d="M747.96,-124.75C700.45,-118.19 624.09,-104.87 604,-85 585.97,-67.17 584.24,-34.77 584.54,-19.25"/>
<polygon fill="#63b8ff" stroke="#63b8ff" points="747.54,-128.23 757.91,-126.09 748.47,-121.29 747.54,-128.23"/>
</a>
</g>
</g>
<!-- Node9 -->
<g id="Node000009" class="node">
<title>Node9</title>
<g id="a_Node000009"><a xlink:href="Tmc5160Handler_8cpp.html" target="_top" xlink:title="Implementation of TMC5160 handler with SPI/UART communication adapters.">
<polygon fill="white" stroke="#666666" points="924.5,-19 805.5,-19 805.5,0 924.5,0 924.5,-19"/>
<text text-anchor="middle" x="865" y="-7" font-family="Helvetica,sans-Serif" font-size="10.00">Tmc5160Handler.cpp</text>
</a>
</g>
</g>
<!-- Node1&#45;&gt;Node9 -->
<g id="edge17_Node000001_Node000009" class="edge">
<title>Node1&#45;&gt;Node9</title>
<g id="a_edge17_Node000001_Node000009"><a xlink:title=" ">
<path fill="none" stroke="#63b8ff" d="M775.37,-112.21C766.23,-96.26 756.78,-72.49 768,-55 779.95,-36.36 801.88,-25.43 821.87,-19.07"/>
<polygon fill="#63b8ff" stroke="#63b8ff" points="772.57,-114.34 780.82,-120.99 778.52,-110.65 772.57,-114.34"/>
</a>
</g>
</g>
<!-- Node11 -->
<g id="Node000011" class="node">
<title>Node11</title>
<g id="a_Node000011"><a xlink:href="LogDecorators_8h.html" target="_top" xlink:title=" ">
<polygon fill="white" stroke="#666666" points="873,-79.5 777,-79.5 777,-60.5 873,-60.5 873,-79.5"/>
<text text-anchor="middle" x="825" y="-67.5" font-family="Helvetica,sans-Serif" font-size="10.00">LogDecorators.h</text>
</a>
</g>
</g>
<!-- Node1&#45;&gt;Node11 -->
<g id="edge10_Node000001_Node000011" class="edge">
<title>Node1&#45;&gt;Node11</title>
<g id="a_edge10_Node000001_Node000011"><a xlink:title=" ">
<path fill="none" stroke="#63b8ff" d="M798.17,-112.3C805.14,-101.58 813.8,-88.23 819.37,-79.67"/>
<polygon fill="#63b8ff" stroke="#63b8ff" points="795.12,-110.58 792.61,-120.87 800.99,-114.39 795.12,-110.58"/>
</a>
</g>
</g>
<!-- Node12 -->
<g id="Node000012" class="node">
<title>Node12</title>
<g id="a_Node000012"><a xlink:href="Logger_8cpp.html" target="_top" xlink:title="Implementation of the advanced logging system.">
<polygon fill="white" stroke="#666666" points="960.5,-79.5 891.5,-79.5 891.5,-60.5 960.5,-60.5 960.5,-79.5"/>
<text text-anchor="middle" x="926" y="-67.5" font-family="Helvetica,sans-Serif" font-size="10.00">Logger.cpp</text>
</a>
</g>
</g>
<!-- Node1&#45;&gt;Node12 -->
<g id="edge11_Node000001_Node000012" class="edge">
<title>Node1&#45;&gt;Node12</title>
<g id="a_edge11_Node000001_Node000012"><a xlink:title=" ">
<path fill="none" stroke="#63b8ff" d="M816.51,-117.08C843.36,-105.78 882.28,-89.4 905.76,-79.52"/>
<polygon fill="#63b8ff" stroke="#63b8ff" points="815.07,-113.89 807.21,-120.99 817.79,-120.34 815.07,-113.89"/>
</a>
</g>
</g>
<!-- Node13 -->
<g id="Node000013" class="node">
<title>Node13</title>
<g id="a_Node000013"><a xlink:href="NtcTemperatureHandler_8cpp.html" target="_top" xlink:title="Implementation of NTC temperature sensor handler for HardFOC system.">
<polygon fill="white" stroke="#666666" points="1131,-79.5 979,-79.5 979,-60.5 1131,-60.5 1131,-79.5"/>
<text text-anchor="middle" x="1055" y="-67.5" font-family="Helvetica,sans-Serif" font-size="10.00">NtcTemperatureHandler.cpp</text>
</a>
</g>
</g>
<!-- Node1&#45;&gt;Node13 -->
<g id="edge13_Node000001_Node000013" class="edge">
<title>Node1&#45;&gt;Node13</title>
<g id="a_edge13_Node000001_Node000013"><a xlink:title=" ">
<path fill="none" stroke="#63b8ff" d="M826.14,-120.96C876.95,-109.87 965.12,-90.62 1015.91,-79.53"/>
<polygon fill="#63b8ff" stroke="#63b8ff" points="825.21,-117.58 816.19,-123.13 826.71,-124.41 825.21,-117.58"/>
</a>
</g>
</g>
<!-- Node14 -->
<g id="Node000014" class="node">
<title>Node14</title>
<g id="a_Node000014"><a xlink:href="Pca9685Handler_8cpp.html" target="_top" xlink:title="Implementation of the PCA9685 PWM controller handler.">
<polygon fill="white" stroke="#666666" points="1265,-79.5 1149,-79.5 1149,-60.5 1265,-60.5 1265,-79.5"/>
<text text-anchor="middle" x="1207" y="-67.5" font-family="Helvetica,sans-Serif" font-size="10.00">Pca9685Handler.cpp</text>
</a>
</g>
</g>
<!-- Node1&#45;&gt;Node14 -->
<g id="edge14_Node000001_Node000014" class="edge">
<title>Node1&#45;&gt;Node14</title>
<g id="a_edge14_Node000001_Node000014"><a xlink:title=" ">
<path fill="none" stroke="#63b8ff" d="M826.68,-125.55C892.17,-118.8 1026.89,-103.92 1140,-85 1149.38,-83.43 1159.44,-81.48 1168.83,-79.53"/>
<polygon fill="#63b8ff" stroke="#63b8ff" points="826,-122.1 816.4,-126.6 826.71,-129.07 826,-122.1"/>
</a>
</g>
</g>
<!-- Node15 -->
<g id="Node000015" class="node">
<title>Node15</title>
<g id="a_Node000015"><a xlink:href="Pcal95555Handler_8cpp.html" target="_top" xlink:title="Implementation of the PCAL95555 GPIO expander handler.">
<polygon fill="white" stroke="#666666" points="1408.5,-79.5 1283.5,-79.5 1283.5,-60.5 1408.5,-60.5 1408.5,-79.5"/>
<text text-anchor="middle" x="1346" y="-67.5" font-family="Helvetica,sans-Serif" font-size="10.00">Pcal95555Handler.cpp</text>
</a>
</g>
</g>
<!-- Node1&#45;&gt;Node15 -->
<g id="edge15_Node000001_Node000015" class="edge">
<title>Node1&#45;&gt;Node15</title>
<g id="a_edge15_Node000001_Node000015"><a xlink:title=" ">
<path fill="none" stroke="#63b8ff" d="M826.2,-127.26C909.14,-122.24 1108.36,-108.61 1274,-85 1284.34,-83.53 1295.44,-81.56 1305.76,-79.57"/>
<polygon fill="#63b8ff" stroke="#63b8ff" points="825.99,-123.77 816.21,-127.86 826.4,-130.76 825.99,-123.77"/>
</a>
</g>
</g>
<!-- Node16 -->
<g id="Node000016" class="node">
<title>Node16</title>
<g id="a_Node000016"><a xlink:href="Ws2812Handler_8cpp.html" target="_top" xlink:title="Implementation of WS2812 LED strip handler.">
<polygon fill="white" stroke="#666666" points="1539.5,-79.5 1426.5,-79.5 1426.5,-60.5 1539.5,-60.5 1539.5,-79.5"/>
<text text-anchor="middle" x="1483" y="-67.5" font-family="Helvetica,sans-Serif" font-size="10.00">Ws2812Handler.cpp</text>
</a>
</g>
</g>
<!-- Node1&#45;&gt;Node16 -->
<g id="edge18_Node000001_Node000016" class="edge">
<title>Node1&#45;&gt;Node16</title>
<g id="a_edge18_Node000001_Node000016"><a xlink:title=" ">
<path fill="none" stroke="#63b8ff" d="M826.27,-128.66C925.76,-126.12 1195.6,-116.63 1418,-85 1427.71,-83.62 1438.14,-81.61 1447.74,-79.55"/>
<polygon fill="#63b8ff" stroke="#63b8ff" points="826,-125.17 816.09,-128.91 826.17,-132.17 826,-125.17"/>
</a>
</g>
</g>
<!-- Node17 -->
<g id="Node000017" class="node">
<title>Node17</title>
<g id="a_Node000017"><a xlink:href="full__system__integration__test_8cpp.html" target="_top" xlink:title="Full system integration test for hf&#45;core.">
<polygon fill="white" stroke="#666666" points="1690,-85 1558,-85 1558,-55 1690,-55 1690,-85"/>
<text text-anchor="start" x="1566" y="-73" font-family="Helvetica,sans-Serif" font-size="10.00">full_system_integration</text>
<text text-anchor="middle" x="1624" y="-62" font-family="Helvetica,sans-Serif" font-size="10.00">_test.cpp</text>
</a>
</g>
</g>
<!-- Node1&#45;&gt;Node17 -->
<g id="edge19_Node000001_Node000017" class="edge">
<title>Node1&#45;&gt;Node17</title>
<g id="a_edge19_Node000001_Node000017"><a xlink:title=" ">
<path fill="none" stroke="#63b8ff" d="M826.42,-128.95C939.37,-127 1273.75,-118.59 1549,-85 1551.89,-84.65 1554.84,-84.25 1557.82,-83.82"/>
<polygon fill="#63b8ff" stroke="#63b8ff" points="826.13,-125.45 816.19,-129.12 826.24,-132.45 826.13,-125.45"/>
</a>
</g>
</g>
<!-- Node18 -->
<g id="Node000018" class="node">
<title>Node18</title>
<g id="a_Node000018"><a xlink:href="logger__comprehensive__test_8cpp.html" target="_top" xlink:title="Comprehensive test suite for Logger singleton.">
<polygon fill="white" stroke="#666666" points="1836,-85 1708,-85 1708,-55 1836,-55 1836,-85"/>
<text text-anchor="start" x="1716" y="-73" font-family="Helvetica,sans-Serif" font-size="10.00">logger_comprehensive</text>
<text text-anchor="middle" x="1772" y="-62" font-family="Helvetica,sans-Serif" font-size="10.00">_test.cpp</text>
</a>
</g>
</g>
<!-- Node1&#45;&gt;Node18 -->
<g id="edge20_Node000001_Node000018" class="edge">
<title>Node1&#45;&gt;Node18</title>
<g id="a_edge20_Node000001_Node000018"><a xlink:title=" ">
<path fill="none" stroke="#63b8ff" d="M826.28,-129.55C953.11,-129.31 1362.96,-125.22 1699,-85 1701.95,-84.65 1704.95,-84.24 1707.99,-83.8"/>
<polygon fill="#63b8ff" stroke="#63b8ff" points="826.26,-126.05 816.26,-129.57 826.27,-133.05 826.26,-126.05"/>
</a>
</g>
</g>
<!-- Node6&#45;&gt;Node7 -->
<g id="edge6_Node000006_Node000007" class="edge">
<title>Node6&#45;&gt;Node7</title>
<g id="a_edge6_Node000006_Node000007"><a xlink:title=" ">
<path fill="none" stroke="#63b8ff" d="M624,-57.97C579.92,-46.66 512.31,-29.31 472.19,-19.02"/>
<polygon fill="#63b8ff" stroke="#63b8ff" points="623.29,-61.4 633.85,-60.49 625.03,-54.62 623.29,-61.4"/>
</a>
</g>
</g>
<!-- Node6&#45;&gt;Node8 -->
<g id="edge7_Node000006_Node000008" class="edge">
<title>Node6&#45;&gt;Node8</title>
<g id="a_edge7_Node000006_Node000008"><a xlink:title=" ">
<path fill="none" stroke="#63b8ff" d="M646.46,-54.35C630.93,-43.27 610.13,-28.43 597.15,-19.17"/>
<polygon fill="#63b8ff" stroke="#63b8ff" points="644.73,-57.41 654.9,-60.37 648.79,-51.71 644.73,-57.41"/>
</a>
</g>
</g>
<!-- Node6&#45;&gt;Node9 -->
<g id="edge8_Node000006_Node000009" class="edge">
<title>Node6&#45;&gt;Node9</title>
<g id="a_edge8_Node000006_Node000009"><a xlink:title=" ">
<path fill="none" stroke="#63b8ff" d="M705.56,-57.61C743.85,-46.29 801.7,-29.2 836.17,-19.02"/>
<polygon fill="#63b8ff" stroke="#63b8ff" points="704.39,-54.3 695.79,-60.49 706.37,-61.02 704.39,-54.3"/>
</a>
</g>
</g>
<!-- Node10 -->
<g id="Node000010" class="node">
<title>Node10</title>
<g id="a_Node000010"><a xlink:href="Tmc9660Handler_8cpp.html" target="_top" xlink:title=" ">
<polygon fill="white" stroke="#666666" points="787.5,-19 668.5,-19 668.5,0 787.5,0 787.5,-19"/>
<text text-anchor="middle" x="728" y="-7" font-family="Helvetica,sans-Serif" font-size="10.00">Tmc9660Handler.cpp</text>
</a>
</g>
</g>
<!-- Node6&#45;&gt;Node10 -->
<g id="edge9_Node000006_Node000010" class="edge">
<title>Node6&#45;&gt;Node10</title>
<g id="a_edge9_Node000006_Node000010"><a xlink:title=" ">
<path fill="none" stroke="#63b8ff" d="M683.26,-53.41C694.7,-42.44 709.58,-28.17 718.96,-19.17"/>
<polygon fill="#63b8ff" stroke="#63b8ff" points="680.8,-50.92 676,-60.37 685.64,-55.97 680.8,-50.92"/>
</a>
</g>
</g>
</g>
</svg>
