<?xml version="1.0" encoding="UTF-8" standalone="no"?>
<!DOCTYPE svg PUBLIC "-//W3C//DTD SVG 1.1//EN"
 "http://www.w3.org/Graphics/SVG/1.1/DTD/svg11.dtd">
<!-- Generated by graphviz version 2.43.0 (0)
 -->
<!-- Title: Max22200Handler.h Pages: 1 -->
<svg width="342pt" height="93pt"
 viewBox="0.00 0.00 342.00 93.00" xmlns="http://www.w3.org/2000/svg" xmlns:xlink="http://www.w3.org/1999/xlink">
<g id="graph0" class="graph" transform="scale(1 1) rotate(0) translate(4 89)">
<title>Max22200Handler.h</title>
<!-- Node1 -->
<g id="Node000001" class="node">
<title>Node1</title>
<g id="a_Node000001"><a xlink:title="Unified handler for MAX22200 octal solenoid and motor driver.">
<polygon fill="#999999" stroke="#666666" points="207.5,-85 93.5,-85 93.5,-66 207.5,-66 207.5,-85"/>
<text text-anchor="middle" x="150.5" y="-73" font-family="Helvetica,sans-Serif" font-size="10.00">Max22200Handler.h</text>
</a>
</g>
</g>
<!-- Node2 -->
<g id="Node000002" class="node">
<title>Node2</title>
<g id="a_Node000002"><a xlink:href="Max22200Handler_8cpp.html" target="_top" xlink:title="Implementation of MAX22200 handler with SPI communication adapter.">
<polygon fill="white" stroke="#666666" points="125,-24.5 0,-24.5 0,-5.5 125,-5.5 125,-24.5"/>
<text text-anchor="middle" x="62.5" y="-12.5" font-family="Helvetica,sans-Serif" font-size="10.00">Max22200Handler.cpp</text>
</a>
</g>
</g>
<!-- Node1&#45;&gt;Node2 -->
<g id="edge1_Node000001_Node000002" class="edge">
<title>Node1&#45;&gt;Node2</title>
<g id="a_edge1_Node000001_Node000002"><a xlink:title=" ">
<path fill="none" stroke="#63b8ff" d="M128.93,-60.16C112.21,-49.05 89.6,-34.01 75.54,-24.67"/>
<polygon fill="#63b8ff" stroke="#63b8ff" points="127.25,-63.25 137.52,-65.87 131.13,-57.42 127.25,-63.25"/>
</a>
</g>
</g>
<!-- Node3 -->
<g id="Node000003" class="node">
<title>Node3</title>
<g id="a_Node000003"><a xlink:href="max22200__handler__comprehensive__test_8cpp.html" target="_top" xlink:title="Comprehensive test suite for Max22200Handler.">
<polygon fill="white" stroke="#666666" points="334,-30 143,-30 143,0 334,0 334,-30"/>
<text text-anchor="start" x="151" y="-18" font-family="Helvetica,sans-Serif" font-size="10.00">max22200_handler_comprehensive</text>
<text text-anchor="middle" x="238.5" y="-7" font-family="Helvetica,sans-Serif" font-size="10.00">_test.cpp</text>
</a>
</g>
</g>
<!-- Node1&#45;&gt;Node3 -->
<g id="edge2_Node000001_Node000003" class="edge">
<title>Node1&#45;&gt;Node3</title>
<g id="a_edge2_Node000001_Node000003"><a xlink:title=" ">
<path fill="none" stroke="#63b8ff" d="M171.87,-60.29C185.66,-51.13 203.51,-39.26 217.27,-30.11"/>
<polygon fill="#63b8ff" stroke="#63b8ff" points="169.87,-57.42 163.48,-65.87 173.75,-63.25 169.87,-57.42"/>
</a>
</g>
</g>
</g>
</svg>
