<?xml version="1.0" encoding="UTF-8" standalone="no"?>
<!DOCTYPE svg PUBLIC "-//W3C//DTD SVG 1.1//EN"
 "http://www.w3.org/Graphics/SVG/1.1/DTD/svg11.dtd">
<!-- Generated by graphviz version 2.43.0 (0)
 -->
<!-- Title: Mcp9700TemperatureHandler.cpp Pages: 1 -->
<svg width="746pt" height="203pt"
 viewBox="0.00 0.00 745.50 203.00" xmlns="http://www.w3.org/2000/svg" xmlns:xlink="http://www.w3.org/1999/xlink">
<g id="graph0" class="graph" transform="scale(1 1) rotate(0) translate(4 199)">
<title>Mcp9700TemperatureHandler.cpp</title>
<!-- Node1 -->
<g id="Node000001" class="node">
<title>Node1</title>
<g id="a_Node000001"><a xlink:title="MCP9700 thermistor handler implementation.">
<polygon fill="#999999" stroke="#666666" points="665.5,-195 485.5,-195 485.5,-176 665.5,-176 665.5,-195"/>
<text text-anchor="middle" x="575.5" y="-183" font-family="Helvetica,sans-Serif" font-size="10.00">Mcp9700TemperatureHandler.cpp</text>
</a>
</g>
</g>
<!-- Node2 -->
<g id="Node000002" class="node">
<title>Node2</title>
<g id="a_Node000002"><a xlink:href="Mcp9700TemperatureHandler_8h.html" target="_top" xlink:title="MCP9700 linear active thermistor handler (ADC voltage to °C).">
<polygon fill="white" stroke="#666666" points="576,-123.5 407,-123.5 407,-104.5 576,-104.5 576,-123.5"/>
<text text-anchor="middle" x="491.5" y="-111.5" font-family="Helvetica,sans-Serif" font-size="10.00">Mcp9700TemperatureHandler.h</text>
</a>
</g>
</g>
<!-- Node1&#45;&gt;Node2 -->
<g id="edge1_Node000001_Node000002" class="edge">
<title>Node1&#45;&gt;Node2</title>
<g id="a_edge1_Node000001_Node000002"><a xlink:title=" ">
<path fill="none" stroke="#63b8ff" d="M565.2,-175.98C551.47,-164.62 526.94,-144.32 509.97,-130.28"/>
<polygon fill="#63b8ff" stroke="#63b8ff" points="511.82,-127.27 501.88,-123.59 507.36,-132.66 511.82,-127.27"/>
</a>
</g>
</g>
<!-- Node9 -->
<g id="Node000009" class="node">
<title>Node9</title>
<g id="a_Node000009"><a xlink:title=" ">
<polygon fill="#e0e0e0" stroke="#999999" points="727,-140 594,-140 594,-88 727,-88 727,-140"/>
<text text-anchor="start" x="602" y="-128" font-family="Helvetica,sans-Serif" font-size="10.00">core/hf&#45;core&#45;drivers</text>
<text text-anchor="start" x="602" y="-117" font-family="Helvetica,sans-Serif" font-size="10.00">/internal/hf&#45;internal</text>
<text text-anchor="start" x="602" y="-106" font-family="Helvetica,sans-Serif" font-size="10.00">&#45;interface&#45;wrap/inc/utils</text>
<text text-anchor="middle" x="660.5" y="-95" font-family="Helvetica,sans-Serif" font-size="10.00">/memory_utils.h</text>
</a>
</g>
</g>
<!-- Node1&#45;&gt;Node9 -->
<g id="edge8_Node000001_Node000009" class="edge">
<title>Node1&#45;&gt;Node9</title>
<g id="a_edge8_Node000001_Node000009"><a xlink:title=" ">
<path fill="none" stroke="#63b8ff" d="M585.92,-175.98C594.95,-168.59 608.6,-157.43 621.77,-146.67"/>
<polygon fill="#63b8ff" stroke="#63b8ff" points="624.33,-149.09 629.86,-140.05 619.9,-143.67 624.33,-149.09"/>
</a>
</g>
</g>
<!-- Node3 -->
<g id="Node000003" class="node">
<title>Node3</title>
<g id="a_Node000003"><a xlink:title=" ">
<polygon fill="#e0e0e0" stroke="#999999" points="191,-46.5 0,-46.5 0,-5.5 191,-5.5 191,-46.5"/>
<text text-anchor="start" x="8" y="-34.5" font-family="Helvetica,sans-Serif" font-size="10.00">core/hf&#45;core&#45;drivers</text>
<text text-anchor="start" x="8" y="-23.5" font-family="Helvetica,sans-Serif" font-size="10.00">/external/hf&#45;mcp9700</text>
<text text-anchor="middle" x="95.5" y="-12.5" font-family="Helvetica,sans-Serif" font-size="10.00">&#45;driver/inc/mcp9700_thermistor.hpp</text>
</a>
</g>
</g>
<!-- Node2&#45;&gt;Node3 -->
<g id="edge2_Node000002_Node000003" class="edge">
<title>Node2&#45;&gt;Node3</title>
<g id="a_edge2_Node000002_Node000003"><a xlink:title=" ">
<path fill="none" stroke="#63b8ff" d="M448.37,-104.41C391.32,-92.95 287.67,-71.8 199.5,-52 195.05,-51 190.49,-49.96 185.9,-48.9"/>
<polygon fill="#63b8ff" stroke="#63b8ff" points="186.32,-45.41 175.79,-46.55 184.73,-52.23 186.32,-45.41"/>
</a>
</g>
</g>
<!-- Node4 -->
<g id="Node000004" class="node">
<title>Node4</title>
<g id="a_Node000004"><a xlink:title=" ">
<polygon fill="#e0e0e0" stroke="#999999" points="344,-52 209,-52 209,0 344,0 344,-52"/>
<text text-anchor="start" x="217" y="-40" font-family="Helvetica,sans-Serif" font-size="10.00">core/hf&#45;core&#45;drivers</text>
<text text-anchor="start" x="217" y="-29" font-family="Helvetica,sans-Serif" font-size="10.00">/internal/hf&#45;internal</text>
<text text-anchor="start" x="217" y="-18" font-family="Helvetica,sans-Serif" font-size="10.00">&#45;interface&#45;wrap/inc/base</text>
<text text-anchor="middle" x="276.5" y="-7" font-family="Helvetica,sans-Serif" font-size="10.00">/BaseAdc.h</text>
</a>
</g>
</g>
<!-- Node2&#45;&gt;Node4 -->
<g id="edge3_Node000002_Node000004" class="edge">
<title>Node2&#45;&gt;Node4</title>
<g id="a_edge3_Node000002_Node000004"><a xlink:title=" ">
<path fill="none" stroke="#63b8ff" d="M470.1,-104.44C441.96,-93.18 391.09,-72.84 348.56,-55.83"/>
<polygon fill="#63b8ff" stroke="#63b8ff" points="349.66,-52.49 339.07,-52.03 347.06,-58.99 349.66,-52.49"/>
</a>
</g>
</g>
<!-- Node5 -->
<g id="Node000005" class="node">
<title>Node5</title>
<g id="a_Node000005"><a xlink:title=" ">
<polygon fill="#e0e0e0" stroke="#999999" points="497,-52 362,-52 362,0 497,0 497,-52"/>
<text text-anchor="start" x="370" y="-40" font-family="Helvetica,sans-Serif" font-size="10.00">core/hf&#45;core&#45;drivers</text>
<text text-anchor="start" x="370" y="-29" font-family="Helvetica,sans-Serif" font-size="10.00">/internal/hf&#45;internal</text>
<text text-anchor="start" x="370" y="-18" font-family="Helvetica,sans-Serif" font-size="10.00">&#45;interface&#45;wrap/inc/base</text>
<text text-anchor="middle" x="429.5" y="-7" font-family="Helvetica,sans-Serif" font-size="10.00">/BaseTemperature.h</text>
</a>
</g>
</g>
<!-- Node2&#45;&gt;Node5 -->
<g id="edge4_Node000002_Node000005" class="edge">
<title>Node2&#45;&gt;Node5</title>
<g id="a_edge4_Node000002_Node000005"><a xlink:title=" ">
<path fill="none" stroke="#63b8ff" d="M485.33,-104.44C477.92,-94.16 465.06,-76.32 453.54,-60.35"/>
<polygon fill="#63b8ff" stroke="#63b8ff" points="456.37,-58.28 447.68,-52.21 450.69,-62.37 456.37,-58.28"/>
</a>
</g>
</g>
<!-- Node6 -->
<g id="Node000006" class="node">
<title>Node6</title>
<g id="a_Node000006"><a xlink:title=" ">
<polygon fill="#e0e0e0" stroke="#999999" points="593.5,-35.5 515.5,-35.5 515.5,-16.5 593.5,-16.5 593.5,-35.5"/>
<text text-anchor="middle" x="554.5" y="-23.5" font-family="Helvetica,sans-Serif" font-size="10.00">RtosMutex.h</text>
</a>
</g>
</g>
<!-- Node2&#45;&gt;Node6 -->
<g id="edge5_Node000002_Node000006" class="edge">
<title>Node2&#45;&gt;Node6</title>
<g id="a_edge5_Node000002_Node000006"><a xlink:title=" ">
<path fill="none" stroke="#63b8ff" d="M497.77,-104.44C508.05,-90.4 528.69,-62.23 542.03,-44.02"/>
<polygon fill="#63b8ff" stroke="#63b8ff" points="545.17,-45.66 548.25,-35.53 539.52,-41.52 545.17,-45.66"/>
</a>
</g>
</g>
<!-- Node7 -->
<g id="Node000007" class="node">
<title>Node7</title>
<g id="a_Node000007"><a xlink:title=" ">
<polygon fill="#e0e0e0" stroke="#999999" points="661.5,-35.5 611.5,-35.5 611.5,-16.5 661.5,-16.5 661.5,-35.5"/>
<text text-anchor="middle" x="636.5" y="-23.5" font-family="Helvetica,sans-Serif" font-size="10.00">cstdint</text>
</a>
</g>
</g>
<!-- Node2&#45;&gt;Node7 -->
<g id="edge6_Node000002_Node000007" class="edge">
<title>Node2&#45;&gt;Node7</title>
<g id="a_edge6_Node000002_Node000007"><a xlink:title=" ">
<path fill="none" stroke="#63b8ff" d="M508.83,-104.38C531.02,-93.13 570.44,-72.47 602.5,-52 607.44,-48.85 612.61,-45.22 617.39,-41.73"/>
<polygon fill="#63b8ff" stroke="#63b8ff" points="619.52,-44.51 625.43,-35.71 615.32,-38.9 619.52,-44.51"/>
</a>
</g>
</g>
<!-- Node8 -->
<g id="Node000008" class="node">
<title>Node8</title>
<g id="a_Node000008"><a xlink:title=" ">
<polygon fill="#e0e0e0" stroke="#999999" points="737.5,-35.5 679.5,-35.5 679.5,-16.5 737.5,-16.5 737.5,-35.5"/>
<text text-anchor="middle" x="708.5" y="-23.5" font-family="Helvetica,sans-Serif" font-size="10.00">memory</text>
</a>
</g>
</g>
<!-- Node2&#45;&gt;Node8 -->
<g id="edge7_Node000002_Node000008" class="edge">
<title>Node2&#45;&gt;Node8</title>
<g id="a_edge7_Node000002_Node000008"><a xlink:title=" ">
<path fill="none" stroke="#63b8ff" d="M524.5,-104.48C561.18,-94.38 621.7,-75.89 670.5,-52 676.64,-48.99 682.98,-45.16 688.68,-41.4"/>
<polygon fill="#63b8ff" stroke="#63b8ff" points="690.73,-44.24 696.98,-35.69 686.76,-38.47 690.73,-44.24"/>
</a>
</g>
</g>
</g>
</svg>
