<?xml version="1.0" encoding="UTF-8" standalone="no"?>
<!DOCTYPE svg PUBLIC "-//W3C//DTD SVG 1.1//EN"
 "http://www.w3.org/Graphics/SVG/1.1/DTD/svg11.dtd">
<!-- Generated by graphviz version 2.43.0 (0)
 -->
<!-- Title: handler_utils::DelayUs Pages: 1 -->
<svg width="308pt" height="278pt"
 viewBox="0.00 0.00 308.00 278.00" xmlns="http://www.w3.org/2000/svg" xmlns:xlink="http://www.w3.org/1999/xlink">
<g id="graph0" class="graph" transform="scale(1 1) rotate(0) translate(4 274)">
<title>handler_utils::DelayUs</title>
<!-- Node1 -->
<g id="Node000001" class="node">
<title>Node1</title>
<g id="a_Node000001"><a xlink:title="Microsecond delay with automatic fallback to RTOS delay for large values.">
<polygon fill="#999999" stroke="#666666" points="300,-144.5 173,-144.5 173,-125.5 300,-125.5 300,-144.5"/>
<text text-anchor="middle" x="236.5" y="-132.5" font-family="Helvetica,sans-Serif" font-size="10.00">handler_utils::DelayUs</text>
</a>
</g>
</g>
<!-- Node2 -->
<g id="Node000002" class="node">
<title>Node2</title>
<g id="a_Node000002"><a xlink:href="classHalSpiTle92466edComm.html#aca4238d0c15c631b7fca413fdf7420ab" target="_top" xlink:title=" ">
<polygon fill="white" stroke="#666666" points="137,-270 0,-270 0,-240 137,-240 137,-270"/>
<text text-anchor="start" x="8" y="-258" font-family="Helvetica,sans-Serif" font-size="10.00">HalSpiTle92466edComm</text>
<text text-anchor="middle" x="68.5" y="-247" font-family="Helvetica,sans-Serif" font-size="10.00">::Delay</text>
</a>
</g>
</g>
<!-- Node1&#45;&gt;Node2 -->
<g id="edge1_Node000001_Node000002" class="edge">
<title>Node1&#45;&gt;Node2</title>
<g id="a_edge1_Node000001_Node000002"><a xlink:title=" ">
<path fill="none" stroke="#63b8ff" d="M221.72,-152.44C204.11,-173.67 171.74,-209.36 137,-231 131.62,-234.35 125.7,-237.32 119.67,-239.93"/>
<polygon fill="#63b8ff" stroke="#63b8ff" points="224.53,-154.53 228.12,-144.56 219.1,-150.11 224.53,-154.53"/>
</a>
</g>
</g>
<!-- Node3 -->
<g id="Node000003" class="node">
<title>Node3</title>
<g id="a_Node000003"><a xlink:href="classHalSpiMax22200Comm.html#a485c7077edcd4c3c7d5bafc6a221ca37" target="_top" xlink:title=" ">
<polygon fill="white" stroke="#666666" points="134,-222 3,-222 3,-192 134,-192 134,-222"/>
<text text-anchor="start" x="11" y="-210" font-family="Helvetica,sans-Serif" font-size="10.00">HalSpiMax22200Comm</text>
<text text-anchor="middle" x="68.5" y="-199" font-family="Helvetica,sans-Serif" font-size="10.00">::DelayUs</text>
</a>
</g>
</g>
<!-- Node1&#45;&gt;Node3 -->
<g id="edge2_Node000001_Node000003" class="edge">
<title>Node1&#45;&gt;Node3</title>
<g id="a_edge2_Node000001_Node000003"><a xlink:title=" ">
<path fill="none" stroke="#63b8ff" d="M208.31,-149.27C188.74,-159.29 161.57,-172.68 137,-183 129.66,-186.08 121.77,-189.12 114.07,-191.95"/>
<polygon fill="#63b8ff" stroke="#63b8ff" points="209.98,-152.34 217.27,-144.65 206.77,-146.12 209.98,-152.34"/>
</a>
</g>
</g>
<!-- Node4 -->
<g id="Node000004" class="node">
<title>Node4</title>
<g id="a_Node000004"><a xlink:href="classHalSpiTmc5160Comm.html#a48c631e0d24f7b4b0c33c83b1ffa91ad" target="_top" xlink:title="Delay in microseconds.">
<polygon fill="white" stroke="#666666" points="134,-174 3,-174 3,-144 134,-144 134,-174"/>
<text text-anchor="start" x="11" y="-162" font-family="Helvetica,sans-Serif" font-size="10.00">HalSpiTmc5160Comm::</text>
<text text-anchor="middle" x="68.5" y="-151" font-family="Helvetica,sans-Serif" font-size="10.00">DelayUs</text>
</a>
</g>
</g>
<!-- Node1&#45;&gt;Node4 -->
<g id="edge3_Node000001_Node000004" class="edge">
<title>Node1&#45;&gt;Node4</title>
<g id="a_edge3_Node000001_Node000004"><a xlink:title=" ">
<path fill="none" stroke="#63b8ff" d="M162.83,-145.51C153.23,-146.89 143.45,-148.31 134,-149.67"/>
<polygon fill="#63b8ff" stroke="#63b8ff" points="163.35,-148.97 172.74,-144.07 162.34,-142.04 163.35,-148.97"/>
</a>
</g>
</g>
<!-- Node5 -->
<g id="Node000005" class="node">
<title>Node5</title>
<g id="a_Node000005"><a xlink:href="classHalUartTmc5160Comm.html#a87ed8334c9dcbd2f8c028da910f5a968" target="_top" xlink:title="Delay in microseconds.">
<polygon fill="white" stroke="#666666" points="134,-126 3,-126 3,-96 134,-96 134,-126"/>
<text text-anchor="start" x="11" y="-114" font-family="Helvetica,sans-Serif" font-size="10.00">HalUartTmc5160Comm</text>
<text text-anchor="middle" x="68.5" y="-103" font-family="Helvetica,sans-Serif" font-size="10.00">::DelayUs</text>
</a>
</g>
</g>
<!-- Node1&#45;&gt;Node5 -->
<g id="edge4_Node000001_Node000005" class="edge">
<title>Node1&#45;&gt;Node5</title>
<g id="a_edge4_Node000001_Node000005"><a xlink:title=" ">
<path fill="none" stroke="#63b8ff" d="M162.83,-124.49C153.23,-123.11 143.45,-121.69 134,-120.33"/>
<polygon fill="#63b8ff" stroke="#63b8ff" points="162.34,-127.96 172.74,-125.93 163.35,-121.03 162.34,-127.96"/>
</a>
</g>
</g>
<!-- Node6 -->
<g id="Node000006" class="node">
<title>Node6</title>
<g id="a_Node000006"><a xlink:href="classHalSpiTmc9660Comm.html#aeed51d5504933aa294d940f0799c279a" target="_top" xlink:title="Delay execution for the specified number of microseconds.">
<polygon fill="white" stroke="#666666" points="134,-78 3,-78 3,-48 134,-48 134,-78"/>
<text text-anchor="start" x="11" y="-66" font-family="Helvetica,sans-Serif" font-size="10.00">HalSpiTmc9660Comm::</text>
<text text-anchor="middle" x="68.5" y="-55" font-family="Helvetica,sans-Serif" font-size="10.00">delayUs</text>
</a>
</g>
</g>
<!-- Node1&#45;&gt;Node6 -->
<g id="edge5_Node000001_Node000006" class="edge">
<title>Node1&#45;&gt;Node6</title>
<g id="a_edge5_Node000001_Node000006"><a xlink:title=" ">
<path fill="none" stroke="#63b8ff" d="M208.31,-120.73C188.74,-110.71 161.57,-97.32 137,-87 129.66,-83.92 121.77,-80.88 114.07,-78.05"/>
<polygon fill="#63b8ff" stroke="#63b8ff" points="206.77,-123.88 217.27,-125.35 209.98,-117.66 206.77,-123.88"/>
</a>
</g>
</g>
<!-- Node7 -->
<g id="Node000007" class="node">
<title>Node7</title>
<g id="a_Node000007"><a xlink:href="classHalUartTmc9660Comm.html#a03e458d1dca85da1149a9040d8458c06" target="_top" xlink:title="Delay execution for the specified number of microseconds.">
<polygon fill="white" stroke="#666666" points="134,-30 3,-30 3,0 134,0 134,-30"/>
<text text-anchor="start" x="11" y="-18" font-family="Helvetica,sans-Serif" font-size="10.00">HalUartTmc9660Comm</text>
<text text-anchor="middle" x="68.5" y="-7" font-family="Helvetica,sans-Serif" font-size="10.00">::delayUs</text>
</a>
</g>
</g>
<!-- Node1&#45;&gt;Node7 -->
<g id="edge6_Node000001_Node000007" class="edge">
<title>Node1&#45;&gt;Node7</title>
<g id="a_edge6_Node000001_Node000007"><a xlink:title=" ">
<path fill="none" stroke="#63b8ff" d="M221.72,-117.56C204.11,-96.33 171.74,-60.64 137,-39 131.62,-35.65 125.7,-32.68 119.67,-30.07"/>
<polygon fill="#63b8ff" stroke="#63b8ff" points="219.1,-119.89 228.12,-125.44 224.53,-115.47 219.1,-119.89"/>
</a>
</g>
</g>
</g>
</svg>
