<?xml version="1.0" encoding="UTF-8" standalone="no"?>
<!DOCTYPE svg PUBLIC "-//W3C//DTD SVG 1.1//EN"
 "http://www.w3.org/Graphics/SVG/1.1/DTD/svg11.dtd">
<!-- Generated by graphviz version 2.43.0 (0)
 -->
<!-- Title: handler_utils::DelayMs Pages: 1 -->
<svg width="477pt" height="260pt"
 viewBox="0.00 0.00 477.00 260.00" xmlns="http://www.w3.org/2000/svg" xmlns:xlink="http://www.w3.org/1999/xlink">
<g id="graph0" class="graph" transform="scale(1 1) rotate(0) translate(4 256)">
<title>handler_utils::DelayMs</title>
<!-- Node1 -->
<g id="Node000001" class="node">
<title>Node1</title>
<g id="a_Node000001"><a xlink:title="RTOS&#45;aware millisecond delay.">
<polygon fill="#999999" stroke="#666666" points="469,-150.5 341,-150.5 341,-131.5 469,-131.5 469,-150.5"/>
<text text-anchor="middle" x="405" y="-138.5" font-family="Helvetica,sans-Serif" font-size="10.00">handler_utils::DelayMs</text>
</a>
</g>
</g>
<!-- Node2 -->
<g id="Node000002" class="node">
<title>Node2</title>
<g id="a_Node000002"><a xlink:href="classHalSpiTmc5160Comm.html#a68134d1ddb4ce782d8aa4d367475f054" target="_top" xlink:title="Delay in milliseconds.">
<polygon fill="white" stroke="#666666" points="303,-252 172,-252 172,-222 303,-222 303,-252"/>
<text text-anchor="start" x="180" y="-240" font-family="Helvetica,sans-Serif" font-size="10.00">HalSpiTmc5160Comm::</text>
<text text-anchor="middle" x="237.5" y="-229" font-family="Helvetica,sans-Serif" font-size="10.00">DelayMs</text>
</a>
</g>
</g>
<!-- Node1&#45;&gt;Node2 -->
<g id="edge1_Node000001_Node000002" class="edge">
<title>Node1&#45;&gt;Node2</title>
<g id="a_edge1_Node000001_Node000002"><a xlink:title=" ">
<path fill="none" stroke="#63b8ff" d="M385.45,-156.98C366.31,-172.84 335.09,-197.04 305,-213 298.82,-216.28 292.09,-219.29 285.37,-221.98"/>
<polygon fill="#63b8ff" stroke="#63b8ff" points="387.71,-159.65 393.11,-150.53 383.2,-154.29 387.71,-159.65"/>
</a>
</g>
</g>
<!-- Node3 -->
<g id="Node000003" class="node">
<title>Node3</title>
<g id="a_Node000003"><a xlink:href="classHalUartTmc5160Comm.html#a2ad82076cd779eee19a69de5274f9b70" target="_top" xlink:title="Delay in milliseconds.">
<polygon fill="white" stroke="#666666" points="303,-204 172,-204 172,-174 303,-174 303,-204"/>
<text text-anchor="start" x="180" y="-192" font-family="Helvetica,sans-Serif" font-size="10.00">HalUartTmc5160Comm</text>
<text text-anchor="middle" x="237.5" y="-181" font-family="Helvetica,sans-Serif" font-size="10.00">::DelayMs</text>
</a>
</g>
</g>
<!-- Node1&#45;&gt;Node3 -->
<g id="edge2_Node000001_Node000003" class="edge">
<title>Node1&#45;&gt;Node3</title>
<g id="a_edge2_Node000001_Node000003"><a xlink:title=" ">
<path fill="none" stroke="#63b8ff" d="M361.04,-153.46C339.46,-159.72 313.14,-167.35 290.44,-173.94"/>
<polygon fill="#63b8ff" stroke="#63b8ff" points="362.28,-156.75 370.91,-150.6 360.33,-150.02 362.28,-156.75"/>
</a>
</g>
</g>
<!-- Node4 -->
<g id="Node000004" class="node">
<title>Node4</title>
<g id="a_Node000004"><a xlink:href="classHalSpiTmc9660Comm.html#a1f4360b2fe821d797fc4a8d771150656" target="_top" xlink:title="Delay execution for the specified number of milliseconds.">
<polygon fill="white" stroke="#666666" points="303,-156 172,-156 172,-126 303,-126 303,-156"/>
<text text-anchor="start" x="180" y="-144" font-family="Helvetica,sans-Serif" font-size="10.00">HalSpiTmc9660Comm::</text>
<text text-anchor="middle" x="237.5" y="-133" font-family="Helvetica,sans-Serif" font-size="10.00">delayMs</text>
</a>
</g>
</g>
<!-- Node1&#45;&gt;Node4 -->
<g id="edge3_Node000001_Node000004" class="edge">
<title>Node1&#45;&gt;Node4</title>
<g id="a_edge3_Node000001_Node000004"><a xlink:title=" ">
<path fill="none" stroke="#63b8ff" d="M330.95,-141C321.64,-141 312.17,-141 303.01,-141"/>
<polygon fill="#63b8ff" stroke="#63b8ff" points="330.96,-144.5 340.96,-141 330.96,-137.5 330.96,-144.5"/>
</a>
</g>
</g>
<!-- Node5 -->
<g id="Node000005" class="node">
<title>Node5</title>
<g id="a_Node000005"><a xlink:href="classHalUartTmc9660Comm.html#ac4e3272567e3486a74e62d53ccd814d9" target="_top" xlink:title="Delay execution for the specified number of milliseconds.">
<polygon fill="white" stroke="#666666" points="303,-108 172,-108 172,-78 303,-78 303,-108"/>
<text text-anchor="start" x="180" y="-96" font-family="Helvetica,sans-Serif" font-size="10.00">HalUartTmc9660Comm</text>
<text text-anchor="middle" x="237.5" y="-85" font-family="Helvetica,sans-Serif" font-size="10.00">::delayMs</text>
</a>
</g>
</g>
<!-- Node1&#45;&gt;Node5 -->
<g id="edge4_Node000001_Node000005" class="edge">
<title>Node1&#45;&gt;Node5</title>
<g id="a_edge4_Node000001_Node000005"><a xlink:title=" ">
<path fill="none" stroke="#63b8ff" d="M361.04,-128.54C339.46,-122.28 313.14,-114.65 290.44,-108.06"/>
<polygon fill="#63b8ff" stroke="#63b8ff" points="360.33,-131.98 370.91,-131.4 362.28,-125.25 360.33,-131.98"/>
</a>
</g>
</g>
<!-- Node6 -->
<g id="Node000006" class="node">
<title>Node6</title>
<g id="a_Node000006"><a xlink:href="namespaceanonymous__namespace_02Tmc9660Handler_8cpp_03.html#a75bfafbdf838187780b833848b1e87eb" target="_top" xlink:title=" ">
<polygon fill="white" stroke="#666666" points="305,-59.5 170,-59.5 170,-18.5 305,-18.5 305,-59.5"/>
<text text-anchor="start" x="178" y="-47.5" font-family="Helvetica,sans-Serif" font-size="10.00">anonymous_namespace</text>
<text text-anchor="start" x="178" y="-36.5" font-family="Helvetica,sans-Serif" font-size="10.00">{Tmc9660Handler::cpp}</text>
<text text-anchor="middle" x="237.5" y="-25.5" font-family="Helvetica,sans-Serif" font-size="10.00">::ReadExactBytesUart</text>
</a>
</g>
</g>
<!-- Node1&#45;&gt;Node6 -->
<g id="edge5_Node000001_Node000006" class="edge">
<title>Node1&#45;&gt;Node6</title>
<g id="a_edge5_Node000001_Node000006"><a xlink:title=" ">
<path fill="none" stroke="#63b8ff" d="M384.55,-125C365.15,-109.5 334.13,-85.93 305,-69 299.41,-65.76 293.42,-62.61 287.39,-59.66"/>
<polygon fill="#63b8ff" stroke="#63b8ff" points="382.37,-127.74 392.35,-131.3 386.77,-122.29 382.37,-127.74"/>
</a>
</g>
</g>
<!-- Node7 -->
<g id="Node000007" class="node">
<title>Node7</title>
<g id="a_Node000007"><a xlink:href="classHalUartTmc9660Comm.html#a0df8ee2b226b44eb2e21728e4b7c44d7" target="_top" xlink:title="Receive a 9&#45;byte TMCL reply datagram over UART.">
<polygon fill="white" stroke="#666666" points="132.5,-78 1.5,-78 1.5,-48 132.5,-48 132.5,-78"/>
<text text-anchor="start" x="9.5" y="-66" font-family="Helvetica,sans-Serif" font-size="10.00">HalUartTmc9660Comm</text>
<text text-anchor="middle" x="67" y="-55" font-family="Helvetica,sans-Serif" font-size="10.00">::uartReceiveTMCL</text>
</a>
</g>
</g>
<!-- Node6&#45;&gt;Node7 -->
<g id="edge6_Node000006_Node000007" class="edge">
<title>Node6&#45;&gt;Node7</title>
<g id="a_edge6_Node000006_Node000007"><a xlink:title=" ">
<path fill="none" stroke="#63b8ff" d="M159.77,-49.93C150.74,-51.22 141.58,-52.52 132.74,-53.78"/>
<polygon fill="#63b8ff" stroke="#63b8ff" points="160.5,-53.36 169.9,-48.49 159.51,-46.43 160.5,-53.36"/>
</a>
</g>
</g>
<!-- Node8 -->
<g id="Node000008" class="node">
<title>Node8</title>
<g id="a_Node000008"><a xlink:href="classHalUartTmc9660Comm.html#a044f4af1242b3fb2a9412523e575447a" target="_top" xlink:title="Perform an 8&#45;byte UART bootloader transfer (send + receive).">
<polygon fill="white" stroke="#666666" points="134,-30 0,-30 0,0 134,0 134,-30"/>
<text text-anchor="start" x="8" y="-18" font-family="Helvetica,sans-Serif" font-size="10.00">HalUartTmc9660Comm</text>
<text text-anchor="middle" x="67" y="-7" font-family="Helvetica,sans-Serif" font-size="10.00">::uartTransferBootloader</text>
</a>
</g>
</g>
<!-- Node6&#45;&gt;Node8 -->
<g id="edge7_Node000006_Node000008" class="edge">
<title>Node6&#45;&gt;Node8</title>
<g id="a_edge7_Node000006_Node000008"><a xlink:title=" ">
<path fill="none" stroke="#63b8ff" d="M159.88,-28.09C151.27,-26.86 142.57,-25.62 134.11,-24.42"/>
<polygon fill="#63b8ff" stroke="#63b8ff" points="159.51,-31.57 169.9,-29.51 160.5,-24.64 159.51,-31.57"/>
</a>
</g>
</g>
</g>
</svg>
