<?xml version="1.0" encoding="UTF-8" standalone="no"?>
<!DOCTYPE svg PUBLIC "-//W3C//DTD SVG 1.1//EN"
 "http://www.w3.org/Graphics/SVG/1.1/DTD/svg11.dtd">
<!-- Generated by graphviz version 2.43.0 (0)
 -->
<!-- Title: handler_utils::RouteLogToLogger Pages: 1 -->
<svg width="347pt" height="220pt"
 viewBox="0.00 0.00 347.00 219.50" xmlns="http://www.w3.org/2000/svg" xmlns:xlink="http://www.w3.org/1999/xlink">
<g id="graph0" class="graph" transform="scale(1 1) rotate(0) translate(4 215.5)">
<title>handler_utils::RouteLogToLogger</title>
<!-- Node1 -->
<g id="Node000001" class="node">
<title>Node1</title>
<g id="a_Node000001"><a xlink:title="Route a driver log message to the Logger singleton.">
<polygon fill="#999999" stroke="#666666" points="339,-115.5 197,-115.5 197,-85.5 339,-85.5 339,-115.5"/>
<text text-anchor="start" x="205" y="-103.5" font-family="Helvetica,sans-Serif" font-size="10.00">handler_utils::RouteLogTo</text>
<text text-anchor="middle" x="268" y="-92.5" font-family="Helvetica,sans-Serif" font-size="10.00">Logger</text>
</a>
</g>
</g>
<!-- Node2 -->
<g id="Node000002" class="node">
<title>Node2</title>
<g id="a_Node000002"><a xlink:href="classHalSpiTmc5160Comm.html#a9be312a17a2d104eff165383eadb37c7" target="_top" xlink:title="Debug logging — routes to HardFOC Logger.">
<polygon fill="white" stroke="#666666" points="146,-211.5 15,-211.5 15,-181.5 146,-181.5 146,-211.5"/>
<text text-anchor="start" x="23" y="-199.5" font-family="Helvetica,sans-Serif" font-size="10.00">HalSpiTmc5160Comm::</text>
<text text-anchor="middle" x="80.5" y="-188.5" font-family="Helvetica,sans-Serif" font-size="10.00">DebugLog</text>
</a>
</g>
</g>
<!-- Node1&#45;&gt;Node2 -->
<g id="edge1_Node000001_Node000002" class="edge">
<title>Node1&#45;&gt;Node2</title>
<g id="a_edge1_Node000001_Node000002"><a xlink:title=" ">
<path fill="none" stroke="#63b8ff" d="M240.55,-121.82C219.9,-137.61 189.94,-158.7 161,-172.5 154.1,-175.79 146.65,-178.74 139.18,-181.36"/>
<polygon fill="#63b8ff" stroke="#63b8ff" points="242.78,-124.53 248.53,-115.63 238.48,-119 242.78,-124.53"/>
</a>
</g>
</g>
<!-- Node3 -->
<g id="Node000003" class="node">
<title>Node3</title>
<g id="a_Node000003"><a xlink:href="classHalUartTmc5160Comm.html#a52758af74d4bb38d2d44c1111f13a94e" target="_top" xlink:title="Debug logging.">
<polygon fill="white" stroke="#666666" points="146,-163.5 15,-163.5 15,-133.5 146,-133.5 146,-163.5"/>
<text text-anchor="start" x="23" y="-151.5" font-family="Helvetica,sans-Serif" font-size="10.00">HalUartTmc5160Comm</text>
<text text-anchor="middle" x="80.5" y="-140.5" font-family="Helvetica,sans-Serif" font-size="10.00">::DebugLog</text>
</a>
</g>
</g>
<!-- Node1&#45;&gt;Node3 -->
<g id="edge2_Node000001_Node000003" class="edge">
<title>Node1&#45;&gt;Node3</title>
<g id="a_edge2_Node000001_Node000003"><a xlink:title=" ">
<path fill="none" stroke="#63b8ff" d="M199.06,-118.08C179.51,-123.14 158.37,-128.61 139.48,-133.5"/>
<polygon fill="#63b8ff" stroke="#63b8ff" points="200.01,-121.45 208.82,-115.56 198.26,-114.67 200.01,-121.45"/>
</a>
</g>
</g>
<!-- Node4 -->
<g id="Node000004" class="node">
<title>Node4</title>
<g id="a_Node000004"><a xlink:href="classHalSpiTmc9660Comm.html#ac7145aa4216147b19418a4b23cccda75" target="_top" xlink:title="Route TMC9660 driver debug output to the HardFOC Logger.">
<polygon fill="white" stroke="#666666" points="146,-115.5 15,-115.5 15,-85.5 146,-85.5 146,-115.5"/>
<text text-anchor="start" x="23" y="-103.5" font-family="Helvetica,sans-Serif" font-size="10.00">HalSpiTmc9660Comm::</text>
<text text-anchor="middle" x="80.5" y="-92.5" font-family="Helvetica,sans-Serif" font-size="10.00">debugLog</text>
</a>
</g>
</g>
<!-- Node1&#45;&gt;Node4 -->
<g id="edge3_Node000001_Node000004" class="edge">
<title>Node1&#45;&gt;Node4</title>
<g id="a_edge3_Node000001_Node000004"><a xlink:title=" ">
<path fill="none" stroke="#63b8ff" d="M186.63,-100.5C173.13,-100.5 159.27,-100.5 146.23,-100.5"/>
<polygon fill="#63b8ff" stroke="#63b8ff" points="186.87,-104 196.87,-100.5 186.87,-97 186.87,-104"/>
</a>
</g>
</g>
<!-- Node5 -->
<g id="Node000005" class="node">
<title>Node5</title>
<g id="a_Node000005"><a xlink:href="classHalUartTmc9660Comm.html#a1a992dfbd1c60452f19f38dff2754403" target="_top" xlink:title="Route TMC9660 driver debug output to the HardFOC Logger.">
<polygon fill="white" stroke="#666666" points="146,-67.5 15,-67.5 15,-37.5 146,-37.5 146,-67.5"/>
<text text-anchor="start" x="23" y="-55.5" font-family="Helvetica,sans-Serif" font-size="10.00">HalUartTmc9660Comm</text>
<text text-anchor="middle" x="80.5" y="-44.5" font-family="Helvetica,sans-Serif" font-size="10.00">::debugLog</text>
</a>
</g>
</g>
<!-- Node1&#45;&gt;Node5 -->
<g id="edge4_Node000001_Node000005" class="edge">
<title>Node1&#45;&gt;Node5</title>
<g id="a_edge4_Node000001_Node000005"><a xlink:title=" ">
<path fill="none" stroke="#63b8ff" d="M199.06,-82.92C179.51,-77.86 158.37,-72.39 139.48,-67.5"/>
<polygon fill="#63b8ff" stroke="#63b8ff" points="198.26,-86.33 208.82,-85.44 200.01,-79.55 198.26,-86.33"/>
</a>
</g>
</g>
<!-- Node6 -->
<g id="Node000006" class="node">
<title>Node6</title>
<g id="a_Node000006"><a xlink:href="classHalSpiTle92466edComm.html#ada2e34106a72dd56b1513f83a0cce63e" target="_top" xlink:title=" ">
<polygon fill="white" stroke="#666666" points="161,-19 0,-19 0,0 161,0 161,-19"/>
<text text-anchor="middle" x="80.5" y="-7" font-family="Helvetica,sans-Serif" font-size="10.00">HalSpiTle92466edComm::Log</text>
</a>
</g>
</g>
<!-- Node1&#45;&gt;Node6 -->
<g id="edge5_Node000001_Node000006" class="edge">
<title>Node1&#45;&gt;Node6</title>
<g id="a_edge5_Node000001_Node000006"><a xlink:title=" ">
<path fill="none" stroke="#63b8ff" d="M241.15,-78.98C220.61,-62.9 190.52,-41.53 161,-28.5 152.43,-24.72 143,-21.62 133.71,-19.11"/>
<polygon fill="#63b8ff" stroke="#63b8ff" points="239.07,-81.8 249.07,-85.29 243.43,-76.32 239.07,-81.8"/>
</a>
</g>
</g>
</g>
</svg>
