<?xml version="1.0" encoding="UTF-8" standalone="no"?>
<!DOCTYPE svg PUBLIC "-//W3C//DTD SVG 1.1//EN"
 "http://www.w3.org/Graphics/SVG/1.1/DTD/svg11.dtd">
<!-- Generated by graphviz version 2.43.0 (0)
 -->
<!-- Title: NtcTemperatureHandler.cpp Pages: 1 -->
<svg width="1186pt" height="192pt"
 viewBox="0.00 0.00 1185.50 192.00" xmlns="http://www.w3.org/2000/svg" xmlns:xlink="http://www.w3.org/1999/xlink">
<g id="graph0" class="graph" transform="scale(1 1) rotate(0) translate(4 188)">
<title>NtcTemperatureHandler.cpp</title>
<!-- Node1 -->
<g id="Node000001" class="node">
<title>Node1</title>
<g id="a_Node000001"><a xlink:title="Implementation of NTC temperature sensor handler for HardFOC system.">
<polygon fill="#999999" stroke="#666666" points="1058.5,-184 906.5,-184 906.5,-165 1058.5,-165 1058.5,-184"/>
<text text-anchor="middle" x="982.5" y="-172" font-family="Helvetica,sans-Serif" font-size="10.00">NtcTemperatureHandler.cpp</text>
</a>
</g>
</g>
<!-- Node2 -->
<g id="Node000002" class="node">
<title>Node2</title>
<g id="a_Node000002"><a xlink:href="NtcTemperatureHandler_8h.html" target="_top" xlink:title="NTC temperature sensor handler for the HardFOC system.">
<polygon fill="white" stroke="#666666" points="743,-118 602,-118 602,-99 743,-99 743,-118"/>
<text text-anchor="middle" x="672.5" y="-106" font-family="Helvetica,sans-Serif" font-size="10.00">NtcTemperatureHandler.h</text>
</a>
</g>
</g>
<!-- Node1&#45;&gt;Node2 -->
<g id="edge1_Node000001_Node000002" class="edge">
<title>Node1&#45;&gt;Node2</title>
<g id="a_edge1_Node000001_Node000002"><a xlink:title=" ">
<path fill="none" stroke="#63b8ff" d="M941.01,-164.94C884.87,-153.34 784.73,-132.67 723.89,-120.11"/>
<polygon fill="#63b8ff" stroke="#63b8ff" points="724.24,-116.61 713.74,-118.01 722.83,-123.46 724.24,-116.61"/>
</a>
</g>
</g>
<!-- Node11 -->
<g id="Node000011" class="node">
<title>Node11</title>
<g id="a_Node000011"><a xlink:href="Logger_8h.html" target="_top" xlink:title="Advanced logging system with formatting capabilities.">
<polygon fill="white" stroke="#666666" points="1051,-118 914,-118 914,-99 1051,-99 1051,-118"/>
<text text-anchor="middle" x="982.5" y="-106" font-family="Helvetica,sans-Serif" font-size="10.00">handlers/logger/Logger.h</text>
</a>
</g>
</g>
<!-- Node1&#45;&gt;Node11 -->
<g id="edge10_Node000001_Node000011" class="edge">
<title>Node1&#45;&gt;Node11</title>
<g id="a_edge10_Node000001_Node000011"><a xlink:title=" ">
<path fill="none" stroke="#63b8ff" d="M982.5,-164.87C982.5,-155.66 982.5,-140.79 982.5,-128.77"/>
<polygon fill="#63b8ff" stroke="#63b8ff" points="986,-128.41 982.5,-118.41 979,-128.41 986,-128.41"/>
</a>
</g>
</g>
<!-- Node15 -->
<g id="Node000015" class="node">
<title>Node15</title>
<g id="a_Node000015"><a xlink:title=" ">
<polygon fill="#e0e0e0" stroke="#999999" points="1177.5,-129 1069.5,-129 1069.5,-88 1177.5,-88 1177.5,-129"/>
<text text-anchor="start" x="1077.5" y="-117" font-family="Helvetica,sans-Serif" font-size="10.00">core/hf&#45;core&#45;utils</text>
<text text-anchor="start" x="1077.5" y="-106" font-family="Helvetica,sans-Serif" font-size="10.00">/hf&#45;utils&#45;rtos&#45;wrap</text>
<text text-anchor="middle" x="1123.5" y="-95" font-family="Helvetica,sans-Serif" font-size="10.00">/include/OsUtility.h</text>
</a>
</g>
</g>
<!-- Node1&#45;&gt;Node15 -->
<g id="edge15_Node000001_Node000015" class="edge">
<title>Node1&#45;&gt;Node15</title>
<g id="a_edge15_Node000001_Node000015"><a xlink:title=" ">
<path fill="none" stroke="#63b8ff" d="M1001.52,-164.87C1019.38,-156.76 1046.94,-144.25 1071.35,-133.17"/>
<polygon fill="#63b8ff" stroke="#63b8ff" points="1072.86,-136.33 1080.52,-129.01 1069.97,-129.96 1072.86,-136.33"/>
</a>
</g>
</g>
<!-- Node3 -->
<g id="Node000003" class="node">
<title>Node3</title>
<g id="a_Node000003"><a xlink:title=" ">
<polygon fill="#e0e0e0" stroke="#999999" points="135,-52 0,-52 0,0 135,0 135,-52"/>
<text text-anchor="start" x="8" y="-40" font-family="Helvetica,sans-Serif" font-size="10.00">core/hf&#45;core&#45;drivers</text>
<text text-anchor="start" x="8" y="-29" font-family="Helvetica,sans-Serif" font-size="10.00">/internal/hf&#45;internal</text>
<text text-anchor="start" x="8" y="-18" font-family="Helvetica,sans-Serif" font-size="10.00">&#45;interface&#45;wrap/inc/base</text>
<text text-anchor="middle" x="67.5" y="-7" font-family="Helvetica,sans-Serif" font-size="10.00">/BaseTemperature.h</text>
</a>
</g>
</g>
<!-- Node2&#45;&gt;Node3 -->
<g id="edge2_Node000002_Node000003" class="edge">
<title>Node2&#45;&gt;Node3</title>
<g id="a_edge2_Node000002_Node000003"><a xlink:title=" ">
<path fill="none" stroke="#63b8ff" d="M601.58,-104.86C501.36,-100.07 312.68,-87.16 145.24,-52.2"/>
<polygon fill="#63b8ff" stroke="#63b8ff" points="145.76,-48.73 135.26,-50.08 144.31,-55.58 145.76,-48.73"/>
</a>
</g>
</g>
<!-- Node4 -->
<g id="Node000004" class="node">
<title>Node4</title>
<g id="a_Node000004"><a xlink:title=" ">
<polygon fill="#e0e0e0" stroke="#999999" points="288,-52 153,-52 153,0 288,0 288,-52"/>
<text text-anchor="start" x="161" y="-40" font-family="Helvetica,sans-Serif" font-size="10.00">core/hf&#45;core&#45;drivers</text>
<text text-anchor="start" x="161" y="-29" font-family="Helvetica,sans-Serif" font-size="10.00">/internal/hf&#45;internal</text>
<text text-anchor="start" x="161" y="-18" font-family="Helvetica,sans-Serif" font-size="10.00">&#45;interface&#45;wrap/inc/base</text>
<text text-anchor="middle" x="220.5" y="-7" font-family="Helvetica,sans-Serif" font-size="10.00">/BaseAdc.h</text>
</a>
</g>
</g>
<!-- Node2&#45;&gt;Node4 -->
<g id="edge3_Node000002_Node000004" class="edge">
<title>Node2&#45;&gt;Node4</title>
<g id="a_edge3_Node000002_Node000004"><a xlink:title=" ">
<path fill="none" stroke="#63b8ff" d="M601.83,-100.72C527.97,-92.82 408.73,-77.74 298.26,-52.27"/>
<polygon fill="#63b8ff" stroke="#63b8ff" points="298.82,-48.81 288.29,-49.94 297.23,-55.62 298.82,-48.81"/>
</a>
</g>
</g>
<!-- Node5 -->
<g id="Node000005" class="node">
<title>Node5</title>
<g id="a_Node000005"><a xlink:title=" ">
<polygon fill="#e0e0e0" stroke="#999999" points="467,-46.5 306,-46.5 306,-5.5 467,-5.5 467,-46.5"/>
<text text-anchor="start" x="314" y="-34.5" font-family="Helvetica,sans-Serif" font-size="10.00">core/hf&#45;core&#45;drivers</text>
<text text-anchor="start" x="314" y="-23.5" font-family="Helvetica,sans-Serif" font-size="10.00">/external/hf&#45;ntc&#45;thermistor</text>
<text text-anchor="middle" x="386.5" y="-12.5" font-family="Helvetica,sans-Serif" font-size="10.00">&#45;driver/inc/ntc_thermistor.hpp</text>
</a>
</g>
</g>
<!-- Node2&#45;&gt;Node5 -->
<g id="edge4_Node000002_Node000005" class="edge">
<title>Node2&#45;&gt;Node5</title>
<g id="a_edge4_Node000002_Node000005"><a xlink:title=" ">
<path fill="none" stroke="#63b8ff" d="M642.16,-98.96C600.58,-87.26 524.38,-65.81 465.95,-49.36"/>
<polygon fill="#63b8ff" stroke="#63b8ff" points="466.57,-45.9 455.99,-46.56 464.67,-52.64 466.57,-45.9"/>
</a>
</g>
</g>
<!-- Node6 -->
<g id="Node000006" class="node">
<title>Node6</title>
<g id="a_Node000006"><a xlink:title=" ">
<polygon fill="#e0e0e0" stroke="#999999" points="587.5,-35.5 485.5,-35.5 485.5,-16.5 587.5,-16.5 587.5,-35.5"/>
<text text-anchor="middle" x="536.5" y="-23.5" font-family="Helvetica,sans-Serif" font-size="10.00">utils/RtosMutex.h</text>
</a>
</g>
</g>
<!-- Node2&#45;&gt;Node6 -->
<g id="edge5_Node000002_Node000006" class="edge">
<title>Node2&#45;&gt;Node6</title>
<g id="a_edge5_Node000002_Node000006"><a xlink:title=" ">
<path fill="none" stroke="#63b8ff" d="M657.95,-98.89C634.43,-84.96 587.87,-57.41 559.73,-40.75"/>
<polygon fill="#63b8ff" stroke="#63b8ff" points="561.34,-37.63 550.95,-35.55 557.77,-43.66 561.34,-37.63"/>
</a>
</g>
</g>
<!-- Node7 -->
<g id="Node000007" class="node">
<title>Node7</title>
<g id="a_Node000007"><a xlink:title=" ">
<polygon fill="#e0e0e0" stroke="#999999" points="739.5,-46.5 605.5,-46.5 605.5,-5.5 739.5,-5.5 739.5,-46.5"/>
<text text-anchor="start" x="613.5" y="-34.5" font-family="Helvetica,sans-Serif" font-size="10.00">core/hf&#45;core&#45;utils</text>
<text text-anchor="start" x="613.5" y="-23.5" font-family="Helvetica,sans-Serif" font-size="10.00">/hf&#45;utils&#45;rtos&#45;wrap</text>
<text text-anchor="middle" x="672.5" y="-12.5" font-family="Helvetica,sans-Serif" font-size="10.00">/include/PeriodicTimer.h</text>
</a>
</g>
</g>
<!-- Node2&#45;&gt;Node7 -->
<g id="edge6_Node000002_Node000007" class="edge">
<title>Node2&#45;&gt;Node7</title>
<g id="a_edge6_Node000002_Node000007"><a xlink:title=" ">
<path fill="none" stroke="#63b8ff" d="M672.5,-98.89C672.5,-88.9 672.5,-71.89 672.5,-56.93"/>
<polygon fill="#63b8ff" stroke="#63b8ff" points="676,-56.52 672.5,-46.52 669,-56.52 676,-56.52"/>
</a>
</g>
</g>
<!-- Node8 -->
<g id="Node000008" class="node">
<title>Node8</title>
<g id="a_Node000008"><a xlink:title=" ">
<polygon fill="#e0e0e0" stroke="#999999" points="937.5,-35.5 879.5,-35.5 879.5,-16.5 937.5,-16.5 937.5,-35.5"/>
<text text-anchor="middle" x="908.5" y="-23.5" font-family="Helvetica,sans-Serif" font-size="10.00">memory</text>
</a>
</g>
</g>
<!-- Node2&#45;&gt;Node8 -->
<g id="edge7_Node000002_Node000008" class="edge">
<title>Node2&#45;&gt;Node8</title>
<g id="a_edge7_Node000002_Node000008"><a xlink:title=" ">
<path fill="none" stroke="#63b8ff" d="M717.92,-98.95C758.98,-90.25 820.47,-74.8 870.5,-52 876.82,-49.12 883.28,-45.27 889.04,-41.45"/>
<polygon fill="#63b8ff" stroke="#63b8ff" points="891.19,-44.22 897.4,-35.63 887.19,-38.48 891.19,-44.22"/>
</a>
</g>
</g>
<!-- Node9 -->
<g id="Node000009" class="node">
<title>Node9</title>
<g id="a_Node000009"><a xlink:title=" ">
<polygon fill="#e0e0e0" stroke="#999999" points="801.5,-35.5 757.5,-35.5 757.5,-16.5 801.5,-16.5 801.5,-35.5"/>
<text text-anchor="middle" x="779.5" y="-23.5" font-family="Helvetica,sans-Serif" font-size="10.00">cfloat</text>
</a>
</g>
</g>
<!-- Node2&#45;&gt;Node9 -->
<g id="edge8_Node000002_Node000009" class="edge">
<title>Node2&#45;&gt;Node9</title>
<g id="a_edge8_Node000002_Node000009"><a xlink:title=" ">
<path fill="none" stroke="#63b8ff" d="M684.74,-98.83C699.87,-88.06 726.34,-69.01 748.5,-52 752.6,-48.85 756.96,-45.41 761.06,-42.11"/>
<polygon fill="#63b8ff" stroke="#63b8ff" points="763.42,-44.7 768.98,-35.69 759.01,-39.27 763.42,-44.7"/>
</a>
</g>
</g>
<!-- Node10 -->
<g id="Node000010" class="node">
<title>Node10</title>
<g id="a_Node000010"><a xlink:title=" ">
<polygon fill="#e0e0e0" stroke="#999999" points="861.5,-35.5 819.5,-35.5 819.5,-16.5 861.5,-16.5 861.5,-35.5"/>
<text text-anchor="middle" x="840.5" y="-23.5" font-family="Helvetica,sans-Serif" font-size="10.00">array</text>
</a>
</g>
</g>
<!-- Node2&#45;&gt;Node10 -->
<g id="edge9_Node000002_Node000010" class="edge">
<title>Node2&#45;&gt;Node10</title>
<g id="a_edge9_Node000002_Node000010"><a xlink:title=" ">
<path fill="none" stroke="#63b8ff" d="M700.93,-98.97C729.71,-89.68 774.92,-73.26 810.5,-52 815.06,-49.27 819.64,-45.87 823.8,-42.47"/>
<polygon fill="#63b8ff" stroke="#63b8ff" points="826.36,-44.88 831.61,-35.68 821.77,-39.6 826.36,-44.88"/>
</a>
</g>
</g>
<!-- Node11&#45;&gt;Node8 -->
<g id="edge13_Node000011_Node000008" class="edge">
<title>Node11&#45;&gt;Node8</title>
<g id="a_edge13_Node000011_Node000008"><a xlink:title=" ">
<path fill="none" stroke="#63b8ff" d="M974.58,-98.89C962.4,-85.64 938.88,-60.05 923.43,-43.25"/>
<polygon fill="#63b8ff" stroke="#63b8ff" points="925.93,-40.79 916.59,-35.8 920.78,-45.53 925.93,-40.79"/>
</a>
</g>
</g>
<!-- Node12 -->
<g id="Node000012" class="node">
<title>Node12</title>
<g id="a_Node000012"><a xlink:title=" ">
<polygon fill="#e0e0e0" stroke="#999999" points="1009,-35.5 956,-35.5 956,-16.5 1009,-16.5 1009,-35.5"/>
<text text-anchor="middle" x="982.5" y="-23.5" font-family="Helvetica,sans-Serif" font-size="10.00">cstdarg</text>
</a>
</g>
</g>
<!-- Node11&#45;&gt;Node12 -->
<g id="edge11_Node000011_Node000012" class="edge">
<title>Node11&#45;&gt;Node12</title>
<g id="a_edge11_Node000011_Node000012"><a xlink:title=" ">
<path fill="none" stroke="#63b8ff" d="M982.5,-98.89C982.5,-86.36 982.5,-62.8 982.5,-46.07"/>
<polygon fill="#63b8ff" stroke="#63b8ff" points="986,-45.8 982.5,-35.8 979,-45.8 986,-45.8"/>
</a>
</g>
</g>
<!-- Node13 -->
<g id="Node000013" class="node">
<title>Node13</title>
<g id="a_Node000013"><a xlink:title=" ">
<polygon fill="#e0e0e0" stroke="#999999" points="1077.5,-35.5 1027.5,-35.5 1027.5,-16.5 1077.5,-16.5 1077.5,-35.5"/>
<text text-anchor="middle" x="1052.5" y="-23.5" font-family="Helvetica,sans-Serif" font-size="10.00">cstring</text>
</a>
</g>
</g>
<!-- Node11&#45;&gt;Node13 -->
<g id="edge12_Node000011_Node000013" class="edge">
<title>Node11&#45;&gt;Node13</title>
<g id="a_edge12_Node000011_Node000013"><a xlink:title=" ">
<path fill="none" stroke="#63b8ff" d="M989.99,-98.89C1001.4,-85.76 1023.36,-60.51 1037.97,-43.71"/>
<polygon fill="#63b8ff" stroke="#63b8ff" points="1040.93,-45.64 1044.85,-35.8 1035.65,-41.05 1040.93,-45.64"/>
</a>
</g>
</g>
<!-- Node14 -->
<g id="Node000014" class="node">
<title>Node14</title>
<g id="a_Node000014"><a xlink:title=" ">
<polygon fill="#e0e0e0" stroke="#999999" points="1145.5,-35.5 1095.5,-35.5 1095.5,-16.5 1145.5,-16.5 1145.5,-35.5"/>
<text text-anchor="middle" x="1120.5" y="-23.5" font-family="Helvetica,sans-Serif" font-size="10.00">atomic</text>
</a>
</g>
</g>
<!-- Node11&#45;&gt;Node14 -->
<g id="edge14_Node000011_Node000014" class="edge">
<title>Node11&#45;&gt;Node14</title>
<g id="a_edge14_Node000011_Node000014"><a xlink:title=" ">
<path fill="none" stroke="#63b8ff" d="M1000.61,-98.83C1021.71,-88.5 1057.41,-70.32 1086.5,-52 1091.54,-48.83 1096.8,-45.15 1101.64,-41.61"/>
<polygon fill="#63b8ff" stroke="#63b8ff" points="1103.86,-44.32 1109.76,-35.52 1099.66,-38.72 1103.86,-44.32"/>
</a>
</g>
</g>
</g>
</svg>
