<?xml version="1.0" encoding="UTF-8" standalone="no"?>
<!DOCTYPE svg PUBLIC "-//W3C//DTD SVG 1.1//EN"
 "http://www.w3.org/Graphics/SVG/1.1/DTD/svg11.dtd">
<!-- Generated by graphviz version 2.43.0 (0)
 -->
<!-- Title: NtcTemperatureHandler.cpp Pages: 1 -->
<svg width="1162pt" height="192pt"
 viewBox="0.00 0.00 1161.50 192.00" xmlns="http://www.w3.org/2000/svg" xmlns:xlink="http://www.w3.org/1999/xlink">
<g id="graph0" class="graph" transform="scale(1 1) rotate(0) translate(4 188)">
<title>NtcTemperatureHandler.cpp</title>
<!-- Node1 -->
<g id="Node000001" class="node">
<title>Node1</title>
<g id="a_Node000001"><a xlink:title="Implementation of NTC temperature sensor handler for HardFOC system.">
<polygon fill="#999999" stroke="#666666" points="1034.5,-184 882.5,-184 882.5,-165 1034.5,-165 1034.5,-184"/>
<text text-anchor="middle" x="958.5" y="-172" font-family="Helvetica,sans-Serif" font-size="10.00">NtcTemperatureHandler.cpp</text>
</a>
</g>
</g>
<!-- Node2 -->
<g id="Node000002" class="node">
<title>Node2</title>
<g id="a_Node000002"><a xlink:href="NtcTemperatureHandler_8h.html" target="_top" xlink:title="NTC temperature sensor handler for the HardFOC system.">
<polygon fill="white" stroke="#666666" points="719,-118 578,-118 578,-99 719,-99 719,-118"/>
<text text-anchor="middle" x="648.5" y="-106" font-family="Helvetica,sans-Serif" font-size="10.00">NtcTemperatureHandler.h</text>
</a>
</g>
</g>
<!-- Node1&#45;&gt;Node2 -->
<g id="edge1_Node000001_Node000002" class="edge">
<title>Node1&#45;&gt;Node2</title>
<g id="a_edge1_Node000001_Node000002"><a xlink:title=" ">
<path fill="none" stroke="#63b8ff" d="M917.01,-164.94C860.87,-153.34 760.73,-132.67 699.89,-120.11"/>
<polygon fill="#63b8ff" stroke="#63b8ff" points="700.24,-116.61 689.74,-118.01 698.83,-123.46 700.24,-116.61"/>
</a>
</g>
</g>
<!-- Node11 -->
<g id="Node000011" class="node">
<title>Node11</title>
<g id="a_Node000011"><a xlink:href="Logger_8h.html" target="_top" xlink:title="Advanced logging system with formatting capabilities.">
<polygon fill="white" stroke="#666666" points="1027,-118 890,-118 890,-99 1027,-99 1027,-118"/>
<text text-anchor="middle" x="958.5" y="-106" font-family="Helvetica,sans-Serif" font-size="10.00">handlers/logger/Logger.h</text>
</a>
</g>
</g>
<!-- Node1&#45;&gt;Node11 -->
<g id="edge10_Node000001_Node000011" class="edge">
<title>Node1&#45;&gt;Node11</title>
<g id="a_edge10_Node000001_Node000011"><a xlink:title=" ">
<path fill="none" stroke="#63b8ff" d="M958.5,-164.87C958.5,-155.66 958.5,-140.79 958.5,-128.77"/>
<polygon fill="#63b8ff" stroke="#63b8ff" points="962,-128.41 958.5,-118.41 955,-128.41 962,-128.41"/>
</a>
</g>
</g>
<!-- Node15 -->
<g id="Node000015" class="node">
<title>Node15</title>
<g id="a_Node000015"><a xlink:title=" ">
<polygon fill="#e0e0e0" stroke="#999999" points="1153.5,-129 1045.5,-129 1045.5,-88 1153.5,-88 1153.5,-129"/>
<text text-anchor="start" x="1053.5" y="-117" font-family="Helvetica,sans-Serif" font-size="10.00">core/hf&#45;core&#45;utils</text>
<text text-anchor="start" x="1053.5" y="-106" font-family="Helvetica,sans-Serif" font-size="10.00">/hf&#45;utils&#45;rtos&#45;wrap</text>
<text text-anchor="middle" x="1099.5" y="-95" font-family="Helvetica,sans-Serif" font-size="10.00">/include/OsUtility.h</text>
</a>
</g>
</g>
<!-- Node1&#45;&gt;Node15 -->
<g id="edge15_Node000001_Node000015" class="edge">
<title>Node1&#45;&gt;Node15</title>
<g id="a_edge15_Node000001_Node000015"><a xlink:title=" ">
<path fill="none" stroke="#63b8ff" d="M977.52,-164.87C995.38,-156.76 1022.94,-144.25 1047.35,-133.17"/>
<polygon fill="#63b8ff" stroke="#63b8ff" points="1048.86,-136.33 1056.52,-129.01 1045.97,-129.96 1048.86,-136.33"/>
</a>
</g>
</g>
<!-- Node3 -->
<g id="Node000003" class="node">
<title>Node3</title>
<g id="a_Node000003"><a xlink:title=" ">
<polygon fill="#e0e0e0" stroke="#999999" points="135,-52 0,-52 0,0 135,0 135,-52"/>
<text text-anchor="start" x="8" y="-40" font-family="Helvetica,sans-Serif" font-size="10.00">core/hf&#45;core&#45;drivers</text>
<text text-anchor="start" x="8" y="-29" font-family="Helvetica,sans-Serif" font-size="10.00">/internal/hf&#45;internal</text>
<text text-anchor="start" x="8" y="-18" font-family="Helvetica,sans-Serif" font-size="10.00">&#45;interface&#45;wrap/inc/base</text>
<text text-anchor="middle" x="67.5" y="-7" font-family="Helvetica,sans-Serif" font-size="10.00">/BaseTemperature.h</text>
</a>
</g>
</g>
<!-- Node2&#45;&gt;Node3 -->
<g id="edge2_Node000002_Node000003" class="edge">
<title>Node2&#45;&gt;Node3</title>
<g id="a_edge2_Node000002_Node000003"><a xlink:title=" ">
<path fill="none" stroke="#63b8ff" d="M577.91,-104.38C481.61,-99.11 303.77,-85.71 145.19,-52.2"/>
<polygon fill="#63b8ff" stroke="#63b8ff" points="145.77,-48.74 135.26,-50.06 144.3,-55.58 145.77,-48.74"/>
</a>
</g>
</g>
<!-- Node4 -->
<g id="Node000004" class="node">
<title>Node4</title>
<g id="a_Node000004"><a xlink:title=" ">
<polygon fill="#e0e0e0" stroke="#999999" points="288,-52 153,-52 153,0 288,0 288,-52"/>
<text text-anchor="start" x="161" y="-40" font-family="Helvetica,sans-Serif" font-size="10.00">core/hf&#45;core&#45;drivers</text>
<text text-anchor="start" x="161" y="-29" font-family="Helvetica,sans-Serif" font-size="10.00">/internal/hf&#45;internal</text>
<text text-anchor="start" x="161" y="-18" font-family="Helvetica,sans-Serif" font-size="10.00">&#45;interface&#45;wrap/inc/base</text>
<text text-anchor="middle" x="220.5" y="-7" font-family="Helvetica,sans-Serif" font-size="10.00">/BaseAdc.h</text>
</a>
</g>
</g>
<!-- Node2&#45;&gt;Node4 -->
<g id="edge3_Node000002_Node000004" class="edge">
<title>Node2&#45;&gt;Node4</title>
<g id="a_edge3_Node000002_Node000004"><a xlink:title=" ">
<path fill="none" stroke="#63b8ff" d="M577.72,-99.75C508.4,-91.39 399.77,-76.23 298.11,-52.25"/>
<polygon fill="#63b8ff" stroke="#63b8ff" points="298.84,-48.83 288.3,-49.9 297.21,-55.63 298.84,-48.83"/>
</a>
</g>
</g>
<!-- Node5 -->
<g id="Node000005" class="node">
<title>Node5</title>
<g id="a_Node000005"><a xlink:title=" ">
<polygon fill="#e0e0e0" stroke="#999999" points="467,-46.5 306,-46.5 306,-5.5 467,-5.5 467,-46.5"/>
<text text-anchor="start" x="314" y="-34.5" font-family="Helvetica,sans-Serif" font-size="10.00">core/hf&#45;core&#45;drivers</text>
<text text-anchor="start" x="314" y="-23.5" font-family="Helvetica,sans-Serif" font-size="10.00">/external/hf&#45;ntc&#45;thermistor</text>
<text text-anchor="middle" x="386.5" y="-12.5" font-family="Helvetica,sans-Serif" font-size="10.00">&#45;driver/inc/ntc_thermistor.hpp</text>
</a>
</g>
</g>
<!-- Node2&#45;&gt;Node5 -->
<g id="edge4_Node000002_Node000005" class="edge">
<title>Node2&#45;&gt;Node5</title>
<g id="a_edge4_Node000002_Node000005"><a xlink:title=" ">
<path fill="none" stroke="#63b8ff" d="M620.46,-98.89C582.43,-87.2 513.13,-65.91 459.79,-49.52"/>
<polygon fill="#63b8ff" stroke="#63b8ff" points="460.61,-46.11 450.03,-46.52 458.56,-52.8 460.61,-46.11"/>
</a>
</g>
</g>
<!-- Node6 -->
<g id="Node000006" class="node">
<title>Node6</title>
<g id="a_Node000006"><a xlink:title=" ">
<polygon fill="#e0e0e0" stroke="#999999" points="563.5,-35.5 485.5,-35.5 485.5,-16.5 563.5,-16.5 563.5,-35.5"/>
<text text-anchor="middle" x="524.5" y="-23.5" font-family="Helvetica,sans-Serif" font-size="10.00">RtosMutex.h</text>
</a>
</g>
</g>
<!-- Node2&#45;&gt;Node6 -->
<g id="edge5_Node000002_Node000006" class="edge">
<title>Node2&#45;&gt;Node6</title>
<g id="a_edge5_Node000002_Node000006"><a xlink:title=" ">
<path fill="none" stroke="#63b8ff" d="M635.23,-98.89C613.97,-85.09 572.07,-57.88 546.35,-41.19"/>
<polygon fill="#63b8ff" stroke="#63b8ff" points="547.97,-38.06 537.67,-35.55 544.16,-43.93 547.97,-38.06"/>
</a>
</g>
</g>
<!-- Node7 -->
<g id="Node000007" class="node">
<title>Node7</title>
<g id="a_Node000007"><a xlink:title=" ">
<polygon fill="#e0e0e0" stroke="#999999" points="715.5,-46.5 581.5,-46.5 581.5,-5.5 715.5,-5.5 715.5,-46.5"/>
<text text-anchor="start" x="589.5" y="-34.5" font-family="Helvetica,sans-Serif" font-size="10.00">core/hf&#45;core&#45;utils</text>
<text text-anchor="start" x="589.5" y="-23.5" font-family="Helvetica,sans-Serif" font-size="10.00">/hf&#45;utils&#45;rtos&#45;wrap</text>
<text text-anchor="middle" x="648.5" y="-12.5" font-family="Helvetica,sans-Serif" font-size="10.00">/include/PeriodicTimer.h</text>
</a>
</g>
</g>
<!-- Node2&#45;&gt;Node7 -->
<g id="edge6_Node000002_Node000007" class="edge">
<title>Node2&#45;&gt;Node7</title>
<g id="a_edge6_Node000002_Node000007"><a xlink:title=" ">
<path fill="none" stroke="#63b8ff" d="M648.5,-98.89C648.5,-88.9 648.5,-71.89 648.5,-56.93"/>
<polygon fill="#63b8ff" stroke="#63b8ff" points="652,-56.52 648.5,-46.52 645,-56.52 652,-56.52"/>
</a>
</g>
</g>
<!-- Node8 -->
<g id="Node000008" class="node">
<title>Node8</title>
<g id="a_Node000008"><a xlink:title=" ">
<polygon fill="#e0e0e0" stroke="#999999" points="913.5,-35.5 855.5,-35.5 855.5,-16.5 913.5,-16.5 913.5,-35.5"/>
<text text-anchor="middle" x="884.5" y="-23.5" font-family="Helvetica,sans-Serif" font-size="10.00">memory</text>
</a>
</g>
</g>
<!-- Node2&#45;&gt;Node8 -->
<g id="edge7_Node000002_Node000008" class="edge">
<title>Node2&#45;&gt;Node8</title>
<g id="a_edge7_Node000002_Node000008"><a xlink:title=" ">
<path fill="none" stroke="#63b8ff" d="M693.92,-98.95C734.98,-90.25 796.47,-74.8 846.5,-52 852.82,-49.12 859.28,-45.27 865.04,-41.45"/>
<polygon fill="#63b8ff" stroke="#63b8ff" points="867.19,-44.22 873.4,-35.63 863.19,-38.48 867.19,-44.22"/>
</a>
</g>
</g>
<!-- Node9 -->
<g id="Node000009" class="node">
<title>Node9</title>
<g id="a_Node000009"><a xlink:title=" ">
<polygon fill="#e0e0e0" stroke="#999999" points="777.5,-35.5 733.5,-35.5 733.5,-16.5 777.5,-16.5 777.5,-35.5"/>
<text text-anchor="middle" x="755.5" y="-23.5" font-family="Helvetica,sans-Serif" font-size="10.00">cfloat</text>
</a>
</g>
</g>
<!-- Node2&#45;&gt;Node9 -->
<g id="edge8_Node000002_Node000009" class="edge">
<title>Node2&#45;&gt;Node9</title>
<g id="a_edge8_Node000002_Node000009"><a xlink:title=" ">
<path fill="none" stroke="#63b8ff" d="M660.74,-98.83C675.87,-88.06 702.34,-69.01 724.5,-52 728.6,-48.85 732.96,-45.41 737.06,-42.11"/>
<polygon fill="#63b8ff" stroke="#63b8ff" points="739.42,-44.7 744.98,-35.69 735.01,-39.27 739.42,-44.7"/>
</a>
</g>
</g>
<!-- Node10 -->
<g id="Node000010" class="node">
<title>Node10</title>
<g id="a_Node000010"><a xlink:title=" ">
<polygon fill="#e0e0e0" stroke="#999999" points="837.5,-35.5 795.5,-35.5 795.5,-16.5 837.5,-16.5 837.5,-35.5"/>
<text text-anchor="middle" x="816.5" y="-23.5" font-family="Helvetica,sans-Serif" font-size="10.00">array</text>
</a>
</g>
</g>
<!-- Node2&#45;&gt;Node10 -->
<g id="edge9_Node000002_Node000010" class="edge">
<title>Node2&#45;&gt;Node10</title>
<g id="a_edge9_Node000002_Node000010"><a xlink:title=" ">
<path fill="none" stroke="#63b8ff" d="M676.93,-98.97C705.71,-89.68 750.92,-73.26 786.5,-52 791.06,-49.27 795.64,-45.87 799.8,-42.47"/>
<polygon fill="#63b8ff" stroke="#63b8ff" points="802.36,-44.88 807.61,-35.68 797.77,-39.6 802.36,-44.88"/>
</a>
</g>
</g>
<!-- Node11&#45;&gt;Node8 -->
<g id="edge13_Node000011_Node000008" class="edge">
<title>Node11&#45;&gt;Node8</title>
<g id="a_edge13_Node000011_Node000008"><a xlink:title=" ">
<path fill="none" stroke="#63b8ff" d="M950.58,-98.89C938.4,-85.64 914.88,-60.05 899.43,-43.25"/>
<polygon fill="#63b8ff" stroke="#63b8ff" points="901.93,-40.79 892.59,-35.8 896.78,-45.53 901.93,-40.79"/>
</a>
</g>
</g>
<!-- Node12 -->
<g id="Node000012" class="node">
<title>Node12</title>
<g id="a_Node000012"><a xlink:title=" ">
<polygon fill="#e0e0e0" stroke="#999999" points="985,-35.5 932,-35.5 932,-16.5 985,-16.5 985,-35.5"/>
<text text-anchor="middle" x="958.5" y="-23.5" font-family="Helvetica,sans-Serif" font-size="10.00">cstdarg</text>
</a>
</g>
</g>
<!-- Node11&#45;&gt;Node12 -->
<g id="edge11_Node000011_Node000012" class="edge">
<title>Node11&#45;&gt;Node12</title>
<g id="a_edge11_Node000011_Node000012"><a xlink:title=" ">
<path fill="none" stroke="#63b8ff" d="M958.5,-98.89C958.5,-86.36 958.5,-62.8 958.5,-46.07"/>
<polygon fill="#63b8ff" stroke="#63b8ff" points="962,-45.8 958.5,-35.8 955,-45.8 962,-45.8"/>
</a>
</g>
</g>
<!-- Node13 -->
<g id="Node000013" class="node">
<title>Node13</title>
<g id="a_Node000013"><a xlink:title=" ">
<polygon fill="#e0e0e0" stroke="#999999" points="1053.5,-35.5 1003.5,-35.5 1003.5,-16.5 1053.5,-16.5 1053.5,-35.5"/>
<text text-anchor="middle" x="1028.5" y="-23.5" font-family="Helvetica,sans-Serif" font-size="10.00">cstring</text>
</a>
</g>
</g>
<!-- Node11&#45;&gt;Node13 -->
<g id="edge12_Node000011_Node000013" class="edge">
<title>Node11&#45;&gt;Node13</title>
<g id="a_edge12_Node000011_Node000013"><a xlink:title=" ">
<path fill="none" stroke="#63b8ff" d="M965.99,-98.89C977.4,-85.76 999.36,-60.51 1013.97,-43.71"/>
<polygon fill="#63b8ff" stroke="#63b8ff" points="1016.93,-45.64 1020.85,-35.8 1011.65,-41.05 1016.93,-45.64"/>
</a>
</g>
</g>
<!-- Node14 -->
<g id="Node000014" class="node">
<title>Node14</title>
<g id="a_Node000014"><a xlink:title=" ">
<polygon fill="#e0e0e0" stroke="#999999" points="1121.5,-35.5 1071.5,-35.5 1071.5,-16.5 1121.5,-16.5 1121.5,-35.5"/>
<text text-anchor="middle" x="1096.5" y="-23.5" font-family="Helvetica,sans-Serif" font-size="10.00">atomic</text>
</a>
</g>
</g>
<!-- Node11&#45;&gt;Node14 -->
<g id="edge14_Node000011_Node000014" class="edge">
<title>Node11&#45;&gt;Node14</title>
<g id="a_edge14_Node000011_Node000014"><a xlink:title=" ">
<path fill="none" stroke="#63b8ff" d="M976.61,-98.83C997.71,-88.5 1033.41,-70.32 1062.5,-52 1067.54,-48.83 1072.8,-45.15 1077.64,-41.61"/>
<polygon fill="#63b8ff" stroke="#63b8ff" points="1079.86,-44.32 1085.76,-35.52 1075.66,-38.72 1079.86,-44.32"/>
</a>
</g>
</g>
</g>
</svg>
