<?xml version="1.0" encoding="UTF-8" standalone="no"?>
<!DOCTYPE svg PUBLIC "-//W3C//DTD SVG 1.1//EN"
 "http://www.w3.org/Graphics/SVG/1.1/DTD/svg11.dtd">
<!-- Generated by graphviz version 2.43.0 (0)
 -->
<!-- Title: Pcal95555Handler.cpp Pages: 1 -->
<svg width="988pt" height="159pt"
 viewBox="0.00 0.00 988.00 159.00" xmlns="http://www.w3.org/2000/svg" xmlns:xlink="http://www.w3.org/1999/xlink">
<g id="graph0" class="graph" transform="scale(1 1) rotate(0) translate(4 155)">
<title>Pcal95555Handler.cpp</title>
<!-- Node1 -->
<g id="Node000001" class="node">
<title>Node1</title>
<g id="a_Node000001"><a xlink:title="Implementation of the PCAL95555 GPIO expander handler.">
<polygon fill="#999999" stroke="#666666" points="208.5,-151 83.5,-151 83.5,-132 208.5,-132 208.5,-151"/>
<text text-anchor="middle" x="146" y="-139" font-family="Helvetica,sans-Serif" font-size="10.00">Pcal95555Handler.cpp</text>
</a>
</g>
</g>
<!-- Node2 -->
<g id="Node000002" class="node">
<title>Node2</title>
<g id="a_Node000002"><a xlink:href="Pcal95555Handler_8h.html" target="_top" xlink:title="Unified handler for the PCA9555 / PCAL9555A 16&#45;bit I2C GPIO expander.">
<polygon fill="white" stroke="#666666" points="596.5,-96 483.5,-96 483.5,-77 596.5,-77 596.5,-96"/>
<text text-anchor="middle" x="540" y="-84" font-family="Helvetica,sans-Serif" font-size="10.00">Pcal95555Handler.h</text>
</a>
</g>
</g>
<!-- Node1&#45;&gt;Node2 -->
<g id="edge1_Node000001_Node000002" class="edge">
<title>Node1&#45;&gt;Node2</title>
<g id="a_edge1_Node000001_Node000002"><a xlink:title=" ">
<path fill="none" stroke="#63b8ff" d="M208.87,-132.04C281.18,-122.32 399.41,-106.41 473.3,-96.47"/>
<polygon fill="#63b8ff" stroke="#63b8ff" points="473.98,-99.91 483.43,-95.11 473.05,-92.97 473.98,-99.91"/>
</a>
</g>
</g>
<!-- Node12 -->
<g id="Node000012" class="node">
<title>Node12</title>
<g id="a_Node000012"><a xlink:href="Logger_8h.html" target="_top" xlink:title="Advanced logging system with formatting capabilities.">
<polygon fill="white" stroke="#666666" points="214.5,-96 77.5,-96 77.5,-77 214.5,-77 214.5,-96"/>
<text text-anchor="middle" x="146" y="-84" font-family="Helvetica,sans-Serif" font-size="10.00">handlers/logger/Logger.h</text>
</a>
</g>
</g>
<!-- Node1&#45;&gt;Node12 -->
<g id="edge11_Node000001_Node000012" class="edge">
<title>Node1&#45;&gt;Node12</title>
<g id="a_edge11_Node000001_Node000012"><a xlink:title=" ">
<path fill="none" stroke="#63b8ff" d="M146,-131.75C146,-124.8 146,-114.85 146,-106.13"/>
<polygon fill="#63b8ff" stroke="#63b8ff" points="149.5,-106.09 146,-96.09 142.5,-106.09 149.5,-106.09"/>
</a>
</g>
</g>
<!-- Node14 -->
<g id="Node000014" class="node">
<title>Node14</title>
<g id="a_Node000014"><a xlink:title=" ">
<polygon fill="#e0e0e0" stroke="#999999" points="50,-30 0,-30 0,-11 50,-11 50,-30"/>
<text text-anchor="middle" x="25" y="-18" font-family="Helvetica,sans-Serif" font-size="10.00">cstring</text>
</a>
</g>
</g>
<!-- Node1&#45;&gt;Node14 -->
<g id="edge16_Node000001_Node000014" class="edge">
<title>Node1&#45;&gt;Node14</title>
<g id="a_edge16_Node000001_Node000014"><a xlink:title=" ">
<path fill="none" stroke="#63b8ff" d="M124.46,-131.96C107.55,-124.44 84.25,-112.16 68,-96 51.67,-79.76 39.41,-56.05 32.24,-39.76"/>
<polygon fill="#63b8ff" stroke="#63b8ff" points="35.37,-38.16 28.28,-30.29 28.91,-40.86 35.37,-38.16"/>
</a>
</g>
</g>
<!-- Node3 -->
<g id="Node000003" class="node">
<title>Node3</title>
<g id="a_Node000003"><a xlink:title=" ">
<polygon fill="#e0e0e0" stroke="#999999" points="266,-30 216,-30 216,-11 266,-11 266,-30"/>
<text text-anchor="middle" x="241" y="-18" font-family="Helvetica,sans-Serif" font-size="10.00">atomic</text>
</a>
</g>
</g>
<!-- Node2&#45;&gt;Node3 -->
<g id="edge2_Node000002_Node000003" class="edge">
<title>Node2&#45;&gt;Node3</title>
<g id="a_edge2_Node000002_Node000003"><a xlink:title=" ">
<path fill="none" stroke="#63b8ff" d="M483.48,-81.82C428.81,-76.92 344.29,-65.79 275,-41 270.75,-39.48 266.41,-37.44 262.33,-35.24"/>
<polygon fill="#63b8ff" stroke="#63b8ff" points="263.8,-32.05 253.4,-30.03 260.27,-38.09 263.8,-32.05"/>
</a>
</g>
</g>
<!-- Node4 -->
<g id="Node000004" class="node">
<title>Node4</title>
<g id="a_Node000004"><a xlink:title=" ">
<polygon fill="#e0e0e0" stroke="#999999" points="612,-30 562,-30 562,-11 612,-11 612,-30"/>
<text text-anchor="middle" x="587" y="-18" font-family="Helvetica,sans-Serif" font-size="10.00">cstdint</text>
</a>
</g>
</g>
<!-- Node2&#45;&gt;Node4 -->
<g id="edge3_Node000002_Node000004" class="edge">
<title>Node2&#45;&gt;Node4</title>
<g id="a_edge3_Node000002_Node000004"><a xlink:title=" ">
<path fill="none" stroke="#63b8ff" d="M546.34,-76.87C553.52,-67.09 565.39,-50.92 574.46,-38.58"/>
<polygon fill="#63b8ff" stroke="#63b8ff" points="577.36,-40.54 580.46,-30.41 571.72,-36.39 577.36,-40.54"/>
</a>
</g>
</g>
<!-- Node5 -->
<g id="Node000005" class="node">
<title>Node5</title>
<g id="a_Node000005"><a xlink:title=" ">
<polygon fill="#e0e0e0" stroke="#999999" points="198,-30 140,-30 140,-11 198,-11 198,-30"/>
<text text-anchor="middle" x="169" y="-18" font-family="Helvetica,sans-Serif" font-size="10.00">memory</text>
</a>
</g>
</g>
<!-- Node2&#45;&gt;Node5 -->
<g id="edge4_Node000002_Node000005" class="edge">
<title>Node2&#45;&gt;Node5</title>
<g id="a_edge4_Node000002_Node000005"><a xlink:title=" ">
<path fill="none" stroke="#63b8ff" d="M483.35,-83.78C416.06,-80.42 301.07,-70.46 207,-41 201.91,-39.41 196.68,-37.17 191.8,-34.78"/>
<polygon fill="#63b8ff" stroke="#63b8ff" points="193.42,-31.68 182.94,-30.11 190.16,-37.87 193.42,-31.68"/>
</a>
</g>
</g>
<!-- Node6 -->
<g id="Node000006" class="node">
<title>Node6</title>
<g id="a_Node000006"><a xlink:title=" ">
<polygon fill="#e0e0e0" stroke="#999999" points="672,-30 630,-30 630,-11 672,-11 672,-30"/>
<text text-anchor="middle" x="651" y="-18" font-family="Helvetica,sans-Serif" font-size="10.00">array</text>
</a>
</g>
</g>
<!-- Node2&#45;&gt;Node6 -->
<g id="edge5_Node000002_Node000006" class="edge">
<title>Node2&#45;&gt;Node6</title>
<g id="a_edge5_Node000002_Node000006"><a xlink:title=" ">
<path fill="none" stroke="#63b8ff" d="M556.34,-76.98C572.84,-68.27 598.97,-54.19 621,-41 623.88,-39.28 626.88,-37.41 629.82,-35.55"/>
<polygon fill="#63b8ff" stroke="#63b8ff" points="631.79,-38.44 638.28,-30.06 627.99,-32.56 631.79,-38.44"/>
</a>
</g>
</g>
<!-- Node7 -->
<g id="Node000007" class="node">
<title>Node7</title>
<g id="a_Node000007"><a xlink:title=" ">
<polygon fill="#e0e0e0" stroke="#999999" points="755.5,-30 690.5,-30 690.5,-11 755.5,-11 755.5,-30"/>
<text text-anchor="middle" x="723" y="-18" font-family="Helvetica,sans-Serif" font-size="10.00">functional</text>
</a>
</g>
</g>
<!-- Node2&#45;&gt;Node7 -->
<g id="edge6_Node000002_Node000007" class="edge">
<title>Node2&#45;&gt;Node7</title>
<g id="a_edge6_Node000002_Node000007"><a xlink:title=" ">
<path fill="none" stroke="#63b8ff" d="M570.92,-76.99C599.76,-68.76 643.79,-55.44 681,-41 686.02,-39.05 691.3,-36.78 696.34,-34.5"/>
<polygon fill="#63b8ff" stroke="#63b8ff" points="698.06,-37.57 705.64,-30.17 695.1,-31.22 698.06,-37.57"/>
</a>
</g>
</g>
<!-- Node8 -->
<g id="Node000008" class="node">
<title>Node8</title>
<g id="a_Node000008"><a xlink:title=" ">
<polygon fill="#e0e0e0" stroke="#999999" points="872,-30 774,-30 774,-11 872,-11 872,-30"/>
<text text-anchor="middle" x="823" y="-18" font-family="Helvetica,sans-Serif" font-size="10.00">base/BaseGpio.h</text>
</a>
</g>
</g>
<!-- Node2&#45;&gt;Node8 -->
<g id="edge7_Node000002_Node000008" class="edge">
<title>Node2&#45;&gt;Node8</title>
<g id="a_edge7_Node000002_Node000008"><a xlink:title=" ">
<path fill="none" stroke="#63b8ff" d="M593.18,-76.98C639.05,-69.15 706.89,-56.45 765,-41 773.25,-38.81 782.03,-36.07 790.2,-33.35"/>
<polygon fill="#63b8ff" stroke="#63b8ff" points="791.46,-36.62 799.79,-30.07 789.19,-29.99 791.46,-36.62"/>
</a>
</g>
</g>
<!-- Node9 -->
<g id="Node000009" class="node">
<title>Node9</title>
<g id="a_Node000009"><a xlink:title=" ">
<polygon fill="#e0e0e0" stroke="#999999" points="980,-30 890,-30 890,-11 980,-11 980,-30"/>
<text text-anchor="middle" x="935" y="-18" font-family="Helvetica,sans-Serif" font-size="10.00">base/BaseI2c.h</text>
</a>
</g>
</g>
<!-- Node2&#45;&gt;Node9 -->
<g id="edge8_Node000002_Node000009" class="edge">
<title>Node2&#45;&gt;Node9</title>
<g id="a_edge8_Node000002_Node000009"><a xlink:title=" ">
<path fill="none" stroke="#63b8ff" d="M596.5,-81.89C664.71,-76.68 782.51,-64.91 881,-41 888.97,-39.07 897.39,-36.36 905.16,-33.58"/>
<polygon fill="#63b8ff" stroke="#63b8ff" points="906.41,-36.85 914.55,-30.07 903.96,-30.29 906.41,-36.85"/>
</a>
</g>
</g>
<!-- Node10 -->
<g id="Node000010" class="node">
<title>Node10</title>
<g id="a_Node000010"><a xlink:title=" ">
<polygon fill="#e0e0e0" stroke="#999999" points="424,-41 284,-41 284,0 424,0 424,-41"/>
<text text-anchor="start" x="292" y="-29" font-family="Helvetica,sans-Serif" font-size="10.00">core/hf&#45;core&#45;drivers</text>
<text text-anchor="start" x="292" y="-18" font-family="Helvetica,sans-Serif" font-size="10.00">/external/hf&#45;pcal95555</text>
<text text-anchor="middle" x="354" y="-7" font-family="Helvetica,sans-Serif" font-size="10.00">&#45;driver/inc/pcal95555.hpp</text>
</a>
</g>
</g>
<!-- Node2&#45;&gt;Node10 -->
<g id="edge9_Node000002_Node000010" class="edge">
<title>Node2&#45;&gt;Node10</title>
<g id="a_edge9_Node000002_Node000010"><a xlink:title=" ">
<path fill="none" stroke="#63b8ff" d="M514.92,-76.87C490.73,-68.55 453.06,-55.59 420.25,-44.3"/>
<polygon fill="#63b8ff" stroke="#63b8ff" points="421.29,-40.95 410.7,-41.01 419.02,-47.57 421.29,-40.95"/>
</a>
</g>
</g>
<!-- Node11 -->
<g id="Node000011" class="node">
<title>Node11</title>
<g id="a_Node000011"><a xlink:title=" ">
<polygon fill="#e0e0e0" stroke="#999999" points="544,-30 442,-30 442,-11 544,-11 544,-30"/>
<text text-anchor="middle" x="493" y="-18" font-family="Helvetica,sans-Serif" font-size="10.00">utils/RtosMutex.h</text>
</a>
</g>
</g>
<!-- Node2&#45;&gt;Node11 -->
<g id="edge10_Node000002_Node000011" class="edge">
<title>Node2&#45;&gt;Node11</title>
<g id="a_edge10_Node000002_Node000011"><a xlink:title=" ">
<path fill="none" stroke="#63b8ff" d="M533.66,-76.87C526.48,-67.09 514.61,-50.92 505.54,-38.58"/>
<polygon fill="#63b8ff" stroke="#63b8ff" points="508.28,-36.39 499.54,-30.41 502.64,-40.54 508.28,-36.39"/>
</a>
</g>
</g>
<!-- Node12&#45;&gt;Node3 -->
<g id="edge15_Node000012_Node000003" class="edge">
<title>Node12&#45;&gt;Node3</title>
<g id="a_edge15_Node000012_Node000003"><a xlink:title=" ">
<path fill="none" stroke="#63b8ff" d="M158.81,-76.87C174.39,-66.37 200.93,-48.5 219.62,-35.9"/>
<polygon fill="#63b8ff" stroke="#63b8ff" points="221.75,-38.69 228.09,-30.2 217.84,-32.88 221.75,-38.69"/>
</a>
</g>
</g>
<!-- Node12&#45;&gt;Node5 -->
<g id="edge14_Node000012_Node000005" class="edge">
<title>Node12&#45;&gt;Node5</title>
<g id="a_edge14_Node000012_Node000005"><a xlink:title=" ">
<path fill="none" stroke="#63b8ff" d="M149.1,-76.87C152.48,-67.47 157.98,-52.17 162.34,-40.03"/>
<polygon fill="#63b8ff" stroke="#63b8ff" points="165.71,-41 165.8,-30.41 159.12,-38.63 165.71,-41"/>
</a>
</g>
</g>
<!-- Node13 -->
<g id="Node000013" class="node">
<title>Node13</title>
<g id="a_Node000013"><a xlink:title=" ">
<polygon fill="#e0e0e0" stroke="#999999" points="121.5,-30 68.5,-30 68.5,-11 121.5,-11 121.5,-30"/>
<text text-anchor="middle" x="95" y="-18" font-family="Helvetica,sans-Serif" font-size="10.00">cstdarg</text>
</a>
</g>
</g>
<!-- Node12&#45;&gt;Node13 -->
<g id="edge12_Node000012_Node000013" class="edge">
<title>Node12&#45;&gt;Node13</title>
<g id="a_edge12_Node000012_Node000013"><a xlink:title=" ">
<path fill="none" stroke="#63b8ff" d="M139.12,-76.87C131.33,-67.09 118.45,-50.92 108.61,-38.58"/>
<polygon fill="#63b8ff" stroke="#63b8ff" points="111.07,-36.04 102.1,-30.41 105.59,-40.41 111.07,-36.04"/>
</a>
</g>
</g>
<!-- Node12&#45;&gt;Node14 -->
<g id="edge13_Node000012_Node000014" class="edge">
<title>Node12&#45;&gt;Node14</title>
<g id="a_edge13_Node000012_Node000014"><a xlink:title=" ">
<path fill="none" stroke="#63b8ff" d="M128.54,-76.88C110.88,-68.09 82.86,-53.94 59,-41 55.57,-39.14 51.97,-37.13 48.44,-35.14"/>
<polygon fill="#63b8ff" stroke="#63b8ff" points="49.89,-31.94 39.47,-30 46.41,-38.01 49.89,-31.94"/>
</a>
</g>
</g>
</g>
</svg>
