<?xml version="1.0" encoding="UTF-8" standalone="no"?>
<!DOCTYPE svg PUBLIC "-//W3C//DTD SVG 1.1//EN"
 "http://www.w3.org/Graphics/SVG/1.1/DTD/svg11.dtd">
<!-- Generated by graphviz version 2.43.0 (0)
 -->
<!-- Title: Se050Handler.h Pages: 1 -->
<svg width="298pt" height="93pt"
 viewBox="0.00 0.00 298.00 93.00" xmlns="http://www.w3.org/2000/svg" xmlns:xlink="http://www.w3.org/1999/xlink">
<g id="graph0" class="graph" transform="scale(1 1) rotate(0) translate(4 89)">
<title>Se050Handler.h</title>
<!-- Node1 -->
<g id="Node000001" class="node">
<title>Node1</title>
<g id="a_Node000001"><a xlink:title="HAL&#45;level handler for the NXP SE050 / SE050A secure element (I²C, T=1oI2C).">
<polygon fill="#999999" stroke="#666666" points="175.5,-85 82.5,-85 82.5,-66 175.5,-66 175.5,-85"/>
<text text-anchor="middle" x="129" y="-73" font-family="Helvetica,sans-Serif" font-size="10.00">Se050Handler.h</text>
</a>
</g>
</g>
<!-- Node2 -->
<g id="Node000002" class="node">
<title>Node2</title>
<g id="a_Node000002"><a xlink:href="Se050Handler_8cpp.html" target="_top" xlink:title="Se050Handler and HalI2cSe050Comm implementations.">
<polygon fill="white" stroke="#666666" points="104,-24.5 0,-24.5 0,-5.5 104,-5.5 104,-24.5"/>
<text text-anchor="middle" x="52" y="-12.5" font-family="Helvetica,sans-Serif" font-size="10.00">Se050Handler.cpp</text>
</a>
</g>
</g>
<!-- Node1&#45;&gt;Node2 -->
<g id="edge1_Node000001_Node000002" class="edge">
<title>Node1&#45;&gt;Node2</title>
<g id="a_edge1_Node000001_Node000002"><a xlink:title=" ">
<path fill="none" stroke="#63b8ff" d="M109.31,-59.54C94.77,-48.49 75.48,-33.84 63.41,-24.67"/>
<polygon fill="#63b8ff" stroke="#63b8ff" points="107.56,-62.61 117.64,-65.87 111.79,-57.03 107.56,-62.61"/>
</a>
</g>
</g>
<!-- Node3 -->
<g id="Node000003" class="node">
<title>Node3</title>
<g id="a_Node000003"><a xlink:href="se050__handler__comprehensive__test_8cpp.html" target="_top" xlink:title="Exercises Se050Handler on ESP32 (same usage pattern as hf&#45;se050&#45;driver examples).">
<polygon fill="white" stroke="#666666" points="290,-30 122,-30 122,0 290,0 290,-30"/>
<text text-anchor="start" x="130" y="-18" font-family="Helvetica,sans-Serif" font-size="10.00">se050_handler_comprehensive</text>
<text text-anchor="middle" x="206" y="-7" font-family="Helvetica,sans-Serif" font-size="10.00">_test.cpp</text>
</a>
</g>
</g>
<!-- Node1&#45;&gt;Node3 -->
<g id="edge2_Node000001_Node000003" class="edge">
<title>Node1&#45;&gt;Node3</title>
<g id="a_edge2_Node000001_Node000003"><a xlink:title=" ">
<path fill="none" stroke="#63b8ff" d="M148.39,-59.77C160.35,-50.68 175.61,-39.09 187.42,-30.11"/>
<polygon fill="#63b8ff" stroke="#63b8ff" points="146.21,-57.03 140.36,-65.87 150.44,-62.61 146.21,-57.03"/>
</a>
</g>
</g>
</g>
</svg>
