<?xml version="1.0" encoding="UTF-8" standalone="no"?>
<!DOCTYPE svg PUBLIC "-//W3C//DTD SVG 1.1//EN"
 "http://www.w3.org/Graphics/SVG/1.1/DTD/svg11.dtd">
<!-- Generated by graphviz version 2.43.0 (0)
 -->
<!-- Title: Se050Handler.cpp Pages: 1 -->
<svg width="829pt" height="192pt"
 viewBox="0.00 0.00 828.50 192.00" xmlns="http://www.w3.org/2000/svg" xmlns:xlink="http://www.w3.org/1999/xlink">
<g id="graph0" class="graph" transform="scale(1 1) rotate(0) translate(4 188)">
<title>Se050Handler.cpp</title>
<!-- Node1 -->
<g id="Node000001" class="node">
<title>Node1</title>
<g id="a_Node000001"><a xlink:title="Se050Handler and HalI2cSe050Comm implementations.">
<polygon fill="#999999" stroke="#666666" points="471,-184 367,-184 367,-165 471,-165 471,-184"/>
<text text-anchor="middle" x="419" y="-172" font-family="Helvetica,sans-Serif" font-size="10.00">Se050Handler.cpp</text>
</a>
</g>
</g>
<!-- Node2 -->
<g id="Node000002" class="node">
<title>Node2</title>
<g id="a_Node000002"><a xlink:href="Se050Handler_8h.html" target="_top" xlink:title="HAL&#45;level handler for the NXP SE050 / SE050A secure element (I²C, T=1oI2C).">
<polygon fill="white" stroke="#666666" points="346.5,-118 253.5,-118 253.5,-99 346.5,-99 346.5,-118"/>
<text text-anchor="middle" x="300" y="-106" font-family="Helvetica,sans-Serif" font-size="10.00">Se050Handler.h</text>
</a>
</g>
</g>
<!-- Node1&#45;&gt;Node2 -->
<g id="edge1_Node000001_Node000002" class="edge">
<title>Node1&#45;&gt;Node2</title>
<g id="a_edge1_Node000001_Node000002"><a xlink:title=" ">
<path fill="none" stroke="#63b8ff" d="M402.95,-164.87C382.99,-154.13 348.68,-135.68 325.2,-123.05"/>
<polygon fill="#63b8ff" stroke="#63b8ff" points="326.64,-119.85 316.17,-118.2 323.32,-126.02 326.64,-119.85"/>
</a>
</g>
</g>
<!-- Node11 -->
<g id="Node000011" class="node">
<title>Node11</title>
<g id="a_Node000011"><a xlink:title=" ">
<polygon fill="#e0e0e0" stroke="#999999" points="473,-129 365,-129 365,-88 473,-88 473,-129"/>
<text text-anchor="start" x="373" y="-117" font-family="Helvetica,sans-Serif" font-size="10.00">core/hf&#45;core&#45;utils</text>
<text text-anchor="start" x="373" y="-106" font-family="Helvetica,sans-Serif" font-size="10.00">/hf&#45;utils&#45;rtos&#45;wrap</text>
<text text-anchor="middle" x="419" y="-95" font-family="Helvetica,sans-Serif" font-size="10.00">/include/OsUtility.h</text>
</a>
</g>
</g>
<!-- Node1&#45;&gt;Node11 -->
<g id="edge10_Node000001_Node000011" class="edge">
<title>Node1&#45;&gt;Node11</title>
<g id="a_edge10_Node000001_Node000011"><a xlink:title=" ">
<path fill="none" stroke="#63b8ff" d="M419,-164.87C419,-158.22 419,-148.63 419,-139.28"/>
<polygon fill="#63b8ff" stroke="#63b8ff" points="422.5,-139.01 419,-129.01 415.5,-139.01 422.5,-139.01"/>
</a>
</g>
</g>
<!-- Node12 -->
<g id="Node000012" class="node">
<title>Node12</title>
<g id="a_Node000012"><a xlink:title=" ">
<polygon fill="#e0e0e0" stroke="#999999" points="592.5,-118 491.5,-118 491.5,-99 592.5,-99 592.5,-118"/>
<text text-anchor="middle" x="542" y="-106" font-family="Helvetica,sans-Serif" font-size="10.00">HardwareTypes.h</text>
</a>
</g>
</g>
<!-- Node1&#45;&gt;Node12 -->
<g id="edge11_Node000001_Node000012" class="edge">
<title>Node1&#45;&gt;Node12</title>
<g id="a_edge11_Node000001_Node000012"><a xlink:title=" ">
<path fill="none" stroke="#63b8ff" d="M435.59,-164.87C456.31,-154.09 492,-135.52 516.28,-122.88"/>
<polygon fill="#63b8ff" stroke="#63b8ff" points="518.03,-125.92 525.28,-118.2 514.8,-119.71 518.03,-125.92"/>
</a>
</g>
</g>
<!-- Node3 -->
<g id="Node000003" class="node">
<title>Node3</title>
<g id="a_Node000003"><a xlink:title=" ">
<polygon fill="#e0e0e0" stroke="#999999" points="50,-35.5 0,-35.5 0,-16.5 50,-16.5 50,-35.5"/>
<text text-anchor="middle" x="25" y="-23.5" font-family="Helvetica,sans-Serif" font-size="10.00">atomic</text>
</a>
</g>
</g>
<!-- Node2&#45;&gt;Node3 -->
<g id="edge2_Node000002_Node000003" class="edge">
<title>Node2&#45;&gt;Node3</title>
<g id="a_edge2_Node000002_Node000003"><a xlink:title=" ">
<path fill="none" stroke="#63b8ff" d="M253.33,-102.47C203.41,-95.79 122.8,-81.28 59,-52 53.2,-49.34 47.41,-45.59 42.29,-41.81"/>
<polygon fill="#63b8ff" stroke="#63b8ff" points="44.45,-39.05 34.44,-35.59 40.11,-44.54 44.45,-39.05"/>
</a>
</g>
</g>
<!-- Node4 -->
<g id="Node000004" class="node">
<title>Node4</title>
<g id="a_Node000004"><a xlink:title=" ">
<polygon fill="#e0e0e0" stroke="#999999" points="121.5,-35.5 68.5,-35.5 68.5,-16.5 121.5,-16.5 121.5,-35.5"/>
<text text-anchor="middle" x="95" y="-23.5" font-family="Helvetica,sans-Serif" font-size="10.00">cstddef</text>
</a>
</g>
</g>
<!-- Node2&#45;&gt;Node4 -->
<g id="edge3_Node000002_Node000004" class="edge">
<title>Node2&#45;&gt;Node4</title>
<g id="a_edge3_Node000002_Node000004"><a xlink:title=" ">
<path fill="none" stroke="#63b8ff" d="M264.2,-98.98C229.16,-89.9 174.81,-73.82 131,-52 125.15,-49.09 119.18,-45.32 113.82,-41.59"/>
<polygon fill="#63b8ff" stroke="#63b8ff" points="115.66,-38.6 105.52,-35.52 111.53,-44.25 115.66,-38.6"/>
</a>
</g>
</g>
<!-- Node5 -->
<g id="Node000005" class="node">
<title>Node5</title>
<g id="a_Node000005"><a xlink:title=" ">
<polygon fill="#e0e0e0" stroke="#999999" points="190,-35.5 140,-35.5 140,-16.5 190,-16.5 190,-35.5"/>
<text text-anchor="middle" x="165" y="-23.5" font-family="Helvetica,sans-Serif" font-size="10.00">cstdint</text>
</a>
</g>
</g>
<!-- Node2&#45;&gt;Node5 -->
<g id="edge4_Node000002_Node000005" class="edge">
<title>Node2&#45;&gt;Node5</title>
<g id="a_edge4_Node000002_Node000005"><a xlink:title=" ">
<path fill="none" stroke="#63b8ff" d="M282.81,-98.93C262.39,-88.56 227.5,-70.2 199,-52 194.06,-48.85 188.89,-45.22 184.11,-41.73"/>
<polygon fill="#63b8ff" stroke="#63b8ff" points="186.18,-38.9 176.07,-35.71 181.98,-44.51 186.18,-38.9"/>
</a>
</g>
</g>
<!-- Node6 -->
<g id="Node000006" class="node">
<title>Node6</title>
<g id="a_Node000006"><a xlink:title=" ">
<polygon fill="#e0e0e0" stroke="#999999" points="286,-35.5 208,-35.5 208,-16.5 286,-16.5 286,-35.5"/>
<text text-anchor="middle" x="247" y="-23.5" font-family="Helvetica,sans-Serif" font-size="10.00">RtosMutex.h</text>
</a>
</g>
</g>
<!-- Node2&#45;&gt;Node6 -->
<g id="edge5_Node000002_Node000006" class="edge">
<title>Node2&#45;&gt;Node6</title>
<g id="a_edge5_Node000002_Node000006"><a xlink:title=" ">
<path fill="none" stroke="#63b8ff" d="M294.33,-98.89C285.77,-85.88 269.37,-60.97 258.31,-44.17"/>
<polygon fill="#63b8ff" stroke="#63b8ff" points="261.21,-42.22 252.79,-35.8 255.37,-46.07 261.21,-42.22"/>
</a>
</g>
</g>
<!-- Node7 -->
<g id="Node000007" class="node">
<title>Node7</title>
<g id="a_Node000007"><a xlink:title=" ">
<polygon fill="#e0e0e0" stroke="#999999" points="402,-35.5 304,-35.5 304,-16.5 402,-16.5 402,-35.5"/>
<text text-anchor="middle" x="353" y="-23.5" font-family="Helvetica,sans-Serif" font-size="10.00">base/BaseGpio.h</text>
</a>
</g>
</g>
<!-- Node2&#45;&gt;Node7 -->
<g id="edge6_Node000002_Node000007" class="edge">
<title>Node2&#45;&gt;Node7</title>
<g id="a_edge6_Node000002_Node000007"><a xlink:title=" ">
<path fill="none" stroke="#63b8ff" d="M305.67,-98.89C314.23,-85.88 330.63,-60.97 341.69,-44.17"/>
<polygon fill="#63b8ff" stroke="#63b8ff" points="344.63,-46.07 347.21,-35.8 338.79,-42.22 344.63,-46.07"/>
</a>
</g>
</g>
<!-- Node8 -->
<g id="Node000008" class="node">
<title>Node8</title>
<g id="a_Node000008"><a xlink:title=" ">
<polygon fill="#e0e0e0" stroke="#999999" points="510,-35.5 420,-35.5 420,-16.5 510,-16.5 510,-35.5"/>
<text text-anchor="middle" x="465" y="-23.5" font-family="Helvetica,sans-Serif" font-size="10.00">base/BaseI2c.h</text>
</a>
</g>
</g>
<!-- Node2&#45;&gt;Node8 -->
<g id="edge7_Node000002_Node000008" class="edge">
<title>Node2&#45;&gt;Node8</title>
<g id="a_edge7_Node000002_Node000008"><a xlink:title=" ">
<path fill="none" stroke="#63b8ff" d="M317.66,-98.89C346.56,-84.78 404.15,-56.69 438.14,-40.1"/>
<polygon fill="#63b8ff" stroke="#63b8ff" points="440.02,-43.08 447.47,-35.55 436.95,-36.79 440.02,-43.08"/>
</a>
</g>
</g>
<!-- Node9 -->
<g id="Node000009" class="node">
<title>Node9</title>
<g id="a_Node000009"><a xlink:title=" ">
<polygon fill="#e0e0e0" stroke="#999999" points="665.5,-46.5 528.5,-46.5 528.5,-5.5 665.5,-5.5 665.5,-46.5"/>
<text text-anchor="start" x="536.5" y="-34.5" font-family="Helvetica,sans-Serif" font-size="10.00">core/hf&#45;core&#45;drivers</text>
<text text-anchor="start" x="536.5" y="-23.5" font-family="Helvetica,sans-Serif" font-size="10.00">/external/hf&#45;se050&#45;driver</text>
<text text-anchor="middle" x="597" y="-12.5" font-family="Helvetica,sans-Serif" font-size="10.00">/inc/se050_device.hpp</text>
</a>
</g>
</g>
<!-- Node2&#45;&gt;Node9 -->
<g id="edge8_Node000002_Node000009" class="edge">
<title>Node2&#45;&gt;Node9</title>
<g id="a_edge8_Node000002_Node000009"><a xlink:title=" ">
<path fill="none" stroke="#63b8ff" d="M322.69,-98.92C332.8,-95.27 344.91,-91.14 356,-88 427.38,-67.77 447.38,-71.34 519,-52 521.99,-51.19 525.04,-50.34 528.11,-49.46"/>
<polygon fill="#63b8ff" stroke="#63b8ff" points="529.37,-52.74 537.97,-46.55 527.39,-46.02 529.37,-52.74"/>
</a>
</g>
</g>
<!-- Node10 -->
<g id="Node000010" class="node">
<title>Node10</title>
<g id="a_Node000010"><a xlink:title=" ">
<polygon fill="#e0e0e0" stroke="#999999" points="820.5,-52 683.5,-52 683.5,0 820.5,0 820.5,-52"/>
<text text-anchor="start" x="691.5" y="-40" font-family="Helvetica,sans-Serif" font-size="10.00">core/hf&#45;core&#45;drivers</text>
<text text-anchor="start" x="691.5" y="-29" font-family="Helvetica,sans-Serif" font-size="10.00">/external/hf&#45;se050&#45;driver</text>
<text text-anchor="start" x="691.5" y="-18" font-family="Helvetica,sans-Serif" font-size="10.00">/inc/se050_i2c_transport</text>
<text text-anchor="middle" x="752" y="-7" font-family="Helvetica,sans-Serif" font-size="10.00">_interface.hpp</text>
</a>
</g>
</g>
<!-- Node2&#45;&gt;Node10 -->
<g id="edge9_Node000002_Node000010" class="edge">
<title>Node2&#45;&gt;Node10</title>
<g id="a_edge9_Node000002_Node000010"><a xlink:title=" ">
<path fill="none" stroke="#63b8ff" d="M320.95,-98.96C331.33,-95.05 344.15,-90.7 356,-88 492,-57.06 533.69,-81.05 673.54,-52.13"/>
<polygon fill="#63b8ff" stroke="#63b8ff" points="674.29,-55.55 683.34,-50.05 672.83,-48.7 674.29,-55.55"/>
</a>
</g>
</g>
</g>
</svg>
