<?xml version="1.0" encoding="UTF-8" standalone="no"?>
<!DOCTYPE svg PUBLIC "-//W3C//DTD SVG 1.1//EN"
 "http://www.w3.org/Graphics/SVG/1.1/DTD/svg11.dtd">
<!-- Generated by graphviz version 2.43.0 (0)
 -->
<!-- Title: Se050Handler.h Pages: 1 -->
<svg width="829pt" height="115pt"
 viewBox="0.00 0.00 828.50 115.00" xmlns="http://www.w3.org/2000/svg" xmlns:xlink="http://www.w3.org/1999/xlink">
<g id="graph0" class="graph" transform="scale(1 1) rotate(0) translate(4 111)">
<title>Se050Handler.h</title>
<!-- Node1 -->
<g id="Node000001" class="node">
<title>Node1</title>
<g id="a_Node000001"><a xlink:title="HAL&#45;level handler for the NXP SE050 / SE050A secure element (I²C, T=1oI2C).">
<polygon fill="#999999" stroke="#666666" points="346.5,-107 253.5,-107 253.5,-88 346.5,-88 346.5,-107"/>
<text text-anchor="middle" x="300" y="-95" font-family="Helvetica,sans-Serif" font-size="10.00">Se050Handler.h</text>
</a>
</g>
</g>
<!-- Node2 -->
<g id="Node000002" class="node">
<title>Node2</title>
<g id="a_Node000002"><a xlink:title=" ">
<polygon fill="#e0e0e0" stroke="#999999" points="50,-35.5 0,-35.5 0,-16.5 50,-16.5 50,-35.5"/>
<text text-anchor="middle" x="25" y="-23.5" font-family="Helvetica,sans-Serif" font-size="10.00">atomic</text>
</a>
</g>
</g>
<!-- Node1&#45;&gt;Node2 -->
<g id="edge1_Node000001_Node000002" class="edge">
<title>Node1&#45;&gt;Node2</title>
<g id="a_edge1_Node000001_Node000002"><a xlink:title=" ">
<path fill="none" stroke="#63b8ff" d="M253.35,-94.09C203.44,-90.11 122.85,-79.62 59,-52 53.14,-49.47 47.33,-45.76 42.22,-41.98"/>
<polygon fill="#63b8ff" stroke="#63b8ff" points="44.38,-39.22 34.38,-35.72 40.01,-44.69 44.38,-39.22"/>
</a>
</g>
</g>
<!-- Node3 -->
<g id="Node000003" class="node">
<title>Node3</title>
<g id="a_Node000003"><a xlink:title=" ">
<polygon fill="#e0e0e0" stroke="#999999" points="121.5,-35.5 68.5,-35.5 68.5,-16.5 121.5,-16.5 121.5,-35.5"/>
<text text-anchor="middle" x="95" y="-23.5" font-family="Helvetica,sans-Serif" font-size="10.00">cstddef</text>
</a>
</g>
</g>
<!-- Node1&#45;&gt;Node3 -->
<g id="edge2_Node000001_Node000003" class="edge">
<title>Node1&#45;&gt;Node3</title>
<g id="a_edge2_Node000001_Node000003"><a xlink:title=" ">
<path fill="none" stroke="#63b8ff" d="M253.31,-88.77C218.51,-81.93 170.4,-70.17 131,-52 125.07,-49.26 119.07,-45.55 113.71,-41.83"/>
<polygon fill="#63b8ff" stroke="#63b8ff" points="115.55,-38.83 105.43,-35.71 111.39,-44.47 115.55,-38.83"/>
</a>
</g>
</g>
<!-- Node4 -->
<g id="Node000004" class="node">
<title>Node4</title>
<g id="a_Node000004"><a xlink:title=" ">
<polygon fill="#e0e0e0" stroke="#999999" points="190,-35.5 140,-35.5 140,-16.5 190,-16.5 190,-35.5"/>
<text text-anchor="middle" x="165" y="-23.5" font-family="Helvetica,sans-Serif" font-size="10.00">cstdint</text>
</a>
</g>
</g>
<!-- Node1&#45;&gt;Node4 -->
<g id="edge3_Node000001_Node000004" class="edge">
<title>Node1&#45;&gt;Node4</title>
<g id="a_edge3_Node000001_Node000004"><a xlink:title=" ">
<path fill="none" stroke="#63b8ff" d="M276.84,-87.97C255.9,-79.88 224.54,-66.78 199,-52 193.77,-48.97 188.38,-45.3 183.47,-41.71"/>
<polygon fill="#63b8ff" stroke="#63b8ff" points="185.39,-38.77 175.31,-35.51 181.15,-44.34 185.39,-38.77"/>
</a>
</g>
</g>
<!-- Node5 -->
<g id="Node000005" class="node">
<title>Node5</title>
<g id="a_Node000005"><a xlink:title=" ">
<polygon fill="#e0e0e0" stroke="#999999" points="286,-35.5 208,-35.5 208,-16.5 286,-16.5 286,-35.5"/>
<text text-anchor="middle" x="247" y="-23.5" font-family="Helvetica,sans-Serif" font-size="10.00">RtosMutex.h</text>
</a>
</g>
</g>
<!-- Node1&#45;&gt;Node5 -->
<g id="edge4_Node000001_Node000005" class="edge">
<title>Node1&#45;&gt;Node5</title>
<g id="a_edge4_Node000001_Node000005"><a xlink:title=" ">
<path fill="none" stroke="#63b8ff" d="M293.5,-87.98C285.16,-77.04 270.49,-57.8 259.85,-43.85"/>
<polygon fill="#63b8ff" stroke="#63b8ff" points="262.4,-41.42 253.55,-35.59 256.83,-45.67 262.4,-41.42"/>
</a>
</g>
</g>
<!-- Node6 -->
<g id="Node000006" class="node">
<title>Node6</title>
<g id="a_Node000006"><a xlink:title=" ">
<polygon fill="#e0e0e0" stroke="#999999" points="402,-35.5 304,-35.5 304,-16.5 402,-16.5 402,-35.5"/>
<text text-anchor="middle" x="353" y="-23.5" font-family="Helvetica,sans-Serif" font-size="10.00">base/BaseGpio.h</text>
</a>
</g>
</g>
<!-- Node1&#45;&gt;Node6 -->
<g id="edge5_Node000001_Node000006" class="edge">
<title>Node1&#45;&gt;Node6</title>
<g id="a_edge5_Node000001_Node000006"><a xlink:title=" ">
<path fill="none" stroke="#63b8ff" d="M306.5,-87.98C314.84,-77.04 329.51,-57.8 340.15,-43.85"/>
<polygon fill="#63b8ff" stroke="#63b8ff" points="343.17,-45.67 346.45,-35.59 337.6,-41.42 343.17,-45.67"/>
</a>
</g>
</g>
<!-- Node7 -->
<g id="Node000007" class="node">
<title>Node7</title>
<g id="a_Node000007"><a xlink:title=" ">
<polygon fill="#e0e0e0" stroke="#999999" points="510,-35.5 420,-35.5 420,-16.5 510,-16.5 510,-35.5"/>
<text text-anchor="middle" x="465" y="-23.5" font-family="Helvetica,sans-Serif" font-size="10.00">base/BaseI2c.h</text>
</a>
</g>
</g>
<!-- Node1&#45;&gt;Node7 -->
<g id="edge6_Node000001_Node000007" class="edge">
<title>Node1&#45;&gt;Node7</title>
<g id="a_edge6_Node000001_Node000007"><a xlink:title=" ">
<path fill="none" stroke="#63b8ff" d="M322.25,-87.97C344.77,-79.26 380.5,-65.16 411,-52 419.82,-48.19 429.36,-43.85 437.93,-39.87"/>
<polygon fill="#63b8ff" stroke="#63b8ff" points="439.54,-42.98 447.11,-35.57 436.57,-36.64 439.54,-42.98"/>
</a>
</g>
</g>
<!-- Node8 -->
<g id="Node000008" class="node">
<title>Node8</title>
<g id="a_Node000008"><a xlink:title=" ">
<polygon fill="#e0e0e0" stroke="#999999" points="665.5,-46.5 528.5,-46.5 528.5,-5.5 665.5,-5.5 665.5,-46.5"/>
<text text-anchor="start" x="536.5" y="-34.5" font-family="Helvetica,sans-Serif" font-size="10.00">core/hf&#45;core&#45;drivers</text>
<text text-anchor="start" x="536.5" y="-23.5" font-family="Helvetica,sans-Serif" font-size="10.00">/external/hf&#45;se050&#45;driver</text>
<text text-anchor="middle" x="597" y="-12.5" font-family="Helvetica,sans-Serif" font-size="10.00">/inc/se050_device.hpp</text>
</a>
</g>
</g>
<!-- Node1&#45;&gt;Node8 -->
<g id="edge7_Node000001_Node000008" class="edge">
<title>Node1&#45;&gt;Node8</title>
<g id="a_edge7_Node000001_Node000008"><a xlink:title=" ">
<path fill="none" stroke="#63b8ff" d="M346.91,-88.51C391.49,-80.55 460.25,-67.33 519,-52 522.16,-51.17 525.39,-50.29 528.64,-49.38"/>
<polygon fill="#63b8ff" stroke="#63b8ff" points="529.8,-52.69 538.43,-46.53 527.85,-45.96 529.8,-52.69"/>
</a>
</g>
</g>
<!-- Node9 -->
<g id="Node000009" class="node">
<title>Node9</title>
<g id="a_Node000009"><a xlink:title=" ">
<polygon fill="#e0e0e0" stroke="#999999" points="820.5,-52 683.5,-52 683.5,0 820.5,0 820.5,-52"/>
<text text-anchor="start" x="691.5" y="-40" font-family="Helvetica,sans-Serif" font-size="10.00">core/hf&#45;core&#45;drivers</text>
<text text-anchor="start" x="691.5" y="-29" font-family="Helvetica,sans-Serif" font-size="10.00">/external/hf&#45;se050&#45;driver</text>
<text text-anchor="start" x="691.5" y="-18" font-family="Helvetica,sans-Serif" font-size="10.00">/inc/se050_i2c_transport</text>
<text text-anchor="middle" x="752" y="-7" font-family="Helvetica,sans-Serif" font-size="10.00">_interface.hpp</text>
</a>
</g>
</g>
<!-- Node1&#45;&gt;Node9 -->
<g id="edge8_Node000001_Node000009" class="edge">
<title>Node1&#45;&gt;Node9</title>
<g id="a_edge8_Node000001_Node000009"><a xlink:title=" ">
<path fill="none" stroke="#63b8ff" d="M346.67,-93.91C416.2,-89.4 551.1,-78.19 673.43,-52.18"/>
<polygon fill="#63b8ff" stroke="#63b8ff" points="674.3,-55.57 683.34,-50.03 672.82,-48.73 674.3,-55.57"/>
</a>
</g>
</g>
</g>
</svg>
