<?xml version="1.0" encoding="UTF-8" standalone="no"?>
<!DOCTYPE svg PUBLIC "-//W3C//DTD SVG 1.1//EN"
 "http://www.w3.org/Graphics/SVG/1.1/DTD/svg11.dtd">
<!-- Generated by graphviz version 2.43.0 (0)
 -->
<!-- Title: Tle92466edHandler.cpp Pages: 1 -->
<svg width="1144pt" height="225pt"
 viewBox="0.00 0.00 1144.00 225.00" xmlns="http://www.w3.org/2000/svg" xmlns:xlink="http://www.w3.org/1999/xlink">
<g id="graph0" class="graph" transform="scale(1 1) rotate(0) translate(4 221)">
<title>Tle92466edHandler.cpp</title>
<!-- Node1 -->
<g id="Node000001" class="node">
<title>Node1</title>
<g id="a_Node000001"><a xlink:title="Implementation of TLE92466ED handler with SPI communication adapter.">
<polygon fill="#999999" stroke="#666666" points="1078.5,-217 947.5,-217 947.5,-198 1078.5,-198 1078.5,-217"/>
<text text-anchor="middle" x="1013" y="-205" font-family="Helvetica,sans-Serif" font-size="10.00">Tle92466edHandler.cpp</text>
</a>
</g>
</g>
<!-- Node2 -->
<g id="Node000002" class="node">
<title>Node2</title>
<g id="a_Node000002"><a xlink:href="Tle92466edHandler_8h.html" target="_top" xlink:title="Unified handler for TLE92466ED six&#45;channel low&#45;side solenoid driver IC.">
<polygon fill="white" stroke="#666666" points="441,-162 321,-162 321,-143 441,-143 441,-162"/>
<text text-anchor="middle" x="381" y="-150" font-family="Helvetica,sans-Serif" font-size="10.00">Tle92466edHandler.h</text>
</a>
</g>
</g>
<!-- Node1&#45;&gt;Node2 -->
<g id="edge1_Node000001_Node000002" class="edge">
<title>Node1&#45;&gt;Node2</title>
<g id="a_edge1_Node000001_Node000002"><a xlink:title=" ">
<path fill="none" stroke="#63b8ff" d="M947.45,-201C827.67,-190.96 574.44,-169.72 451.26,-159.39"/>
<polygon fill="#63b8ff" stroke="#63b8ff" points="451.44,-155.89 441.18,-158.55 450.85,-162.87 451.44,-155.89"/>
</a>
</g>
</g>
<!-- Node13 -->
<g id="Node000013" class="node">
<title>Node13</title>
<g id="a_Node000013"><a xlink:href="Logger_8h.html" target="_top" xlink:title="Advanced logging system with formatting capabilities.">
<polygon fill="white" stroke="#666666" points="1083,-90.5 1025,-90.5 1025,-71.5 1083,-71.5 1083,-90.5"/>
<text text-anchor="middle" x="1054" y="-78.5" font-family="Helvetica,sans-Serif" font-size="10.00">Logger.h</text>
</a>
</g>
</g>
<!-- Node1&#45;&gt;Node13 -->
<g id="edge12_Node000001_Node000013" class="edge">
<title>Node1&#45;&gt;Node13</title>
<g id="a_edge12_Node000001_Node000013"><a xlink:title=" ">
<path fill="none" stroke="#63b8ff" d="M1017.99,-197.89C1022.9,-189.11 1030.32,-174.97 1035,-162 1042.4,-141.49 1047.73,-116.97 1050.83,-100.53"/>
<polygon fill="#63b8ff" stroke="#63b8ff" points="1054.29,-101.05 1052.62,-90.59 1047.4,-99.81 1054.29,-101.05"/>
</a>
</g>
</g>
<!-- Node15 -->
<g id="Node000015" class="node">
<title>Node15</title>
<g id="a_Node000015"><a xlink:title=" ">
<polygon fill="#e0e0e0" stroke="#999999" points="1136,-19 1086,-19 1086,0 1136,0 1136,-19"/>
<text text-anchor="middle" x="1111" y="-7" font-family="Helvetica,sans-Serif" font-size="10.00">atomic</text>
</a>
</g>
</g>
<!-- Node1&#45;&gt;Node15 -->
<g id="edge22_Node000001_Node000015" class="edge">
<title>Node1&#45;&gt;Node15</title>
<g id="a_edge22_Node000001_Node000015"><a xlink:title=" ">
<path fill="none" stroke="#63b8ff" d="M1022.43,-197.98C1039.47,-181.99 1075.15,-145.61 1092,-107 1103.14,-81.49 1107.79,-49.34 1109.71,-29.35"/>
<polygon fill="#63b8ff" stroke="#63b8ff" points="1113.22,-29.38 1110.55,-19.13 1106.24,-28.81 1113.22,-29.38"/>
</a>
</g>
</g>
<!-- Node16 -->
<g id="Node000016" class="node">
<title>Node16</title>
<g id="a_Node000016"><a xlink:href="HandlerCommon_8h.html" target="_top" xlink:title="Shared utility functions for handler CRTP communication adapters.">
<polygon fill="white" stroke="#666666" points="1026,-162 918,-162 918,-143 1026,-143 1026,-162"/>
<text text-anchor="middle" x="972" y="-150" font-family="Helvetica,sans-Serif" font-size="10.00">HandlerCommon.h</text>
</a>
</g>
</g>
<!-- Node1&#45;&gt;Node16 -->
<g id="edge17_Node000001_Node000016" class="edge">
<title>Node1&#45;&gt;Node16</title>
<g id="a_edge17_Node000001_Node000016"><a xlink:title=" ">
<path fill="none" stroke="#63b8ff" d="M1006.23,-197.75C1000.44,-190.26 991.94,-179.28 984.86,-170.13"/>
<polygon fill="#63b8ff" stroke="#63b8ff" points="987.53,-167.86 978.64,-162.09 981.99,-172.14 987.53,-167.86"/>
</a>
</g>
</g>
<!-- Node3 -->
<g id="Node000003" class="node">
<title>Node3</title>
<g id="a_Node000003"><a xlink:title=" ">
<polygon fill="#e0e0e0" stroke="#999999" points="905,-90.5 855,-90.5 855,-71.5 905,-71.5 905,-90.5"/>
<text text-anchor="middle" x="880" y="-78.5" font-family="Helvetica,sans-Serif" font-size="10.00">cstdint</text>
</a>
</g>
</g>
<!-- Node2&#45;&gt;Node3 -->
<g id="edge2_Node000002_Node000003" class="edge">
<title>Node2&#45;&gt;Node3</title>
<g id="a_edge2_Node000002_Node000003"><a xlink:title=" ">
<path fill="none" stroke="#63b8ff" d="M441.12,-149.6C549.37,-145.55 772.52,-134.11 845,-107 851.18,-104.69 857.27,-100.99 862.59,-97.14"/>
<polygon fill="#63b8ff" stroke="#63b8ff" points="865.02,-99.68 870.7,-90.74 860.68,-94.19 865.02,-99.68"/>
</a>
</g>
</g>
<!-- Node4 -->
<g id="Node000004" class="node">
<title>Node4</title>
<g id="a_Node000004"><a xlink:title=" ">
<polygon fill="#e0e0e0" stroke="#999999" points="570,-19 512,-19 512,0 570,0 570,-19"/>
<text text-anchor="middle" x="541" y="-7" font-family="Helvetica,sans-Serif" font-size="10.00">memory</text>
</a>
</g>
</g>
<!-- Node2&#45;&gt;Node4 -->
<g id="edge3_Node000002_Node000004" class="edge">
<title>Node2&#45;&gt;Node4</title>
<g id="a_edge3_Node000002_Node000004"><a xlink:title=" ">
<path fill="none" stroke="#63b8ff" d="M320.83,-147.28C293.34,-141.99 263.14,-130.69 246,-107 232.46,-88.27 230.93,-72.52 246,-55 278.52,-17.21 428.98,-11.09 501.59,-10.38"/>
<polygon fill="#63b8ff" stroke="#63b8ff" points="501.74,-13.88 511.71,-10.31 501.69,-6.88 501.74,-13.88"/>
</a>
</g>
</g>
<!-- Node5 -->
<g id="Node000005" class="node">
<title>Node5</title>
<g id="a_Node000005"><a xlink:title=" ">
<polygon fill="#e0e0e0" stroke="#999999" points="959.5,-19 906.5,-19 906.5,0 959.5,0 959.5,-19"/>
<text text-anchor="middle" x="933" y="-7" font-family="Helvetica,sans-Serif" font-size="10.00">cstdarg</text>
</a>
</g>
</g>
<!-- Node2&#45;&gt;Node5 -->
<g id="edge4_Node000002_Node000005" class="edge">
<title>Node2&#45;&gt;Node5</title>
<g id="a_edge4_Node000002_Node000005"><a xlink:title=" ">
<path fill="none" stroke="#63b8ff" d="M333.86,-142.95C313.37,-136.64 291.28,-125.75 279,-107 266.34,-87.66 263.22,-71.89 279,-55 300.2,-32.3 760.96,-15.95 896.08,-11.63"/>
<polygon fill="#63b8ff" stroke="#63b8ff" points="896.44,-15.12 906.32,-11.31 896.22,-8.13 896.44,-15.12"/>
</a>
</g>
</g>
<!-- Node6 -->
<g id="Node000006" class="node">
<title>Node6</title>
<g id="a_Node000006"><a xlink:title=" ">
<polygon fill="#e0e0e0" stroke="#999999" points="328,-90.5 288,-90.5 288,-71.5 328,-71.5 328,-90.5"/>
<text text-anchor="middle" x="308" y="-78.5" font-family="Helvetica,sans-Serif" font-size="10.00">span</text>
</a>
</g>
</g>
<!-- Node2&#45;&gt;Node6 -->
<g id="edge5_Node000002_Node000006" class="edge">
<title>Node2&#45;&gt;Node6</title>
<g id="a_edge5_Node000002_Node000006"><a xlink:title=" ">
<path fill="none" stroke="#63b8ff" d="M372.05,-142.98C360.23,-131.72 339.19,-111.69 324.46,-97.67"/>
<polygon fill="#63b8ff" stroke="#63b8ff" points="326.68,-94.95 317.02,-90.59 321.85,-100.02 326.68,-94.95"/>
</a>
</g>
</g>
<!-- Node7 -->
<g id="Node000007" class="node">
<title>Node7</title>
<g id="a_Node000007"><a xlink:title=" ">
<polygon fill="#e0e0e0" stroke="#999999" points="415.5,-90.5 346.5,-90.5 346.5,-71.5 415.5,-71.5 415.5,-90.5"/>
<text text-anchor="middle" x="381" y="-78.5" font-family="Helvetica,sans-Serif" font-size="10.00">type_traits</text>
</a>
</g>
</g>
<!-- Node2&#45;&gt;Node7 -->
<g id="edge6_Node000002_Node000007" class="edge">
<title>Node2&#45;&gt;Node7</title>
<g id="a_edge6_Node000002_Node000007"><a xlink:title=" ">
<path fill="none" stroke="#63b8ff" d="M381,-142.98C381,-132.56 381,-114.61 381,-100.88"/>
<polygon fill="#63b8ff" stroke="#63b8ff" points="384.5,-100.59 381,-90.59 377.5,-100.59 384.5,-100.59"/>
</a>
</g>
</g>
<!-- Node8 -->
<g id="Node000008" class="node">
<title>Node8</title>
<g id="a_Node000008"><a xlink:title=" ">
<polygon fill="#e0e0e0" stroke="#999999" points="578.5,-101.5 433.5,-101.5 433.5,-60.5 578.5,-60.5 578.5,-101.5"/>
<text text-anchor="start" x="441.5" y="-89.5" font-family="Helvetica,sans-Serif" font-size="10.00">core/hf&#45;core&#45;drivers</text>
<text text-anchor="start" x="441.5" y="-78.5" font-family="Helvetica,sans-Serif" font-size="10.00">/external/hf&#45;tle92466ed</text>
<text text-anchor="middle" x="506" y="-67.5" font-family="Helvetica,sans-Serif" font-size="10.00">&#45;driver/inc/tle92466ed.hpp</text>
</a>
</g>
</g>
<!-- Node2&#45;&gt;Node8 -->
<g id="edge7_Node000002_Node000008" class="edge">
<title>Node2&#45;&gt;Node8</title>
<g id="a_edge7_Node000002_Node000008"><a xlink:title=" ">
<path fill="none" stroke="#63b8ff" d="M396.33,-142.98C412.61,-133.92 439.12,-119.18 461.99,-106.47"/>
<polygon fill="#63b8ff" stroke="#63b8ff" points="463.84,-109.45 470.88,-101.53 460.44,-103.33 463.84,-109.45"/>
</a>
</g>
</g>
<!-- Node9 -->
<g id="Node000009" class="node">
<title>Node9</title>
<g id="a_Node000009"><a xlink:title=" ">
<polygon fill="#e0e0e0" stroke="#999999" points="727.5,-107 596.5,-107 596.5,-55 727.5,-55 727.5,-107"/>
<text text-anchor="start" x="604.5" y="-95" font-family="Helvetica,sans-Serif" font-size="10.00">core/hf&#45;core&#45;drivers</text>
<text text-anchor="start" x="604.5" y="-84" font-family="Helvetica,sans-Serif" font-size="10.00">/external/hf&#45;tle92466ed</text>
<text text-anchor="start" x="604.5" y="-73" font-family="Helvetica,sans-Serif" font-size="10.00">&#45;driver/inc/tle92466ed</text>
<text text-anchor="middle" x="662" y="-62" font-family="Helvetica,sans-Serif" font-size="10.00">_spi_interface.hpp</text>
</a>
</g>
</g>
<!-- Node2&#45;&gt;Node9 -->
<g id="edge8_Node000002_Node000009" class="edge">
<title>Node2&#45;&gt;Node9</title>
<g id="a_edge8_Node000002_Node000009"><a xlink:title=" ">
<path fill="none" stroke="#63b8ff" d="M427.58,-142.94C467.43,-135.29 526.46,-123.14 586.61,-106.99"/>
<polygon fill="#63b8ff" stroke="#63b8ff" points="587.54,-110.36 596.27,-104.36 585.71,-103.61 587.54,-110.36"/>
</a>
</g>
</g>
<!-- Node10 -->
<g id="Node000010" class="node">
<title>Node10</title>
<g id="a_Node000010"><a xlink:title=" ">
<polygon fill="#e0e0e0" stroke="#999999" points="836.5,-90.5 745.5,-90.5 745.5,-71.5 836.5,-71.5 836.5,-90.5"/>
<text text-anchor="middle" x="791" y="-78.5" font-family="Helvetica,sans-Serif" font-size="10.00">base/BaseSpi.h</text>
</a>
</g>
</g>
<!-- Node2&#45;&gt;Node10 -->
<g id="edge9_Node000002_Node000010" class="edge">
<title>Node2&#45;&gt;Node10</title>
<g id="a_edge9_Node000002_Node000010"><a xlink:title=" ">
<path fill="none" stroke="#63b8ff" d="M441.14,-149.47C512.63,-145.81 634.99,-135.57 736,-107 746.34,-104.08 757.21,-99.49 766.53,-95.04"/>
<polygon fill="#63b8ff" stroke="#63b8ff" points="768.2,-98.12 775.59,-90.53 765.08,-91.85 768.2,-98.12"/>
</a>
</g>
</g>
<!-- Node11 -->
<g id="Node000011" class="node">
<title>Node11</title>
<g id="a_Node000011"><a xlink:title=" ">
<polygon fill="#e0e0e0" stroke="#999999" points="98,-90.5 0,-90.5 0,-71.5 98,-71.5 98,-90.5"/>
<text text-anchor="middle" x="49" y="-78.5" font-family="Helvetica,sans-Serif" font-size="10.00">base/BaseGpio.h</text>
</a>
</g>
</g>
<!-- Node2&#45;&gt;Node11 -->
<g id="edge10_Node000002_Node000011" class="edge">
<title>Node2&#45;&gt;Node11</title>
<g id="a_edge10_Node000002_Node000011"><a xlink:title=" ">
<path fill="none" stroke="#63b8ff" d="M320.73,-146.02C264.58,-139.9 178.94,-128 107,-107 96.26,-103.87 84.88,-99.26 75.06,-94.85"/>
<polygon fill="#63b8ff" stroke="#63b8ff" points="76.39,-91.61 65.85,-90.58 73.44,-97.96 76.39,-91.61"/>
</a>
</g>
</g>
<!-- Node12 -->
<g id="Node000012" class="node">
<title>Node12</title>
<g id="a_Node000012"><a xlink:title=" ">
<polygon fill="#e0e0e0" stroke="#999999" points="194,-90.5 116,-90.5 116,-71.5 194,-71.5 194,-90.5"/>
<text text-anchor="middle" x="155" y="-78.5" font-family="Helvetica,sans-Serif" font-size="10.00">RtosMutex.h</text>
</a>
</g>
</g>
<!-- Node2&#45;&gt;Node12 -->
<g id="edge11_Node000002_Node000012" class="edge">
<title>Node2&#45;&gt;Node12</title>
<g id="a_edge11_Node000002_Node000012"><a xlink:title=" ">
<path fill="none" stroke="#63b8ff" d="M338.73,-142.97C303.29,-135.27 251.61,-122.73 208,-107 198.82,-103.69 189.08,-99.35 180.49,-95.22"/>
<polygon fill="#63b8ff" stroke="#63b8ff" points="181.88,-92 171.37,-90.71 178.78,-98.28 181.88,-92"/>
</a>
</g>
</g>
<!-- Node13&#45;&gt;Node4 -->
<g id="edge15_Node000013_Node000004" class="edge">
<title>Node13&#45;&gt;Node4</title>
<g id="a_edge15_Node000013_Node000004"><a xlink:title=" ">
<path fill="none" stroke="#63b8ff" d="M1043.78,-71.26C1036.52,-65.59 1026.28,-58.61 1016,-55 935.89,-26.87 679.42,-15.26 580.46,-11.74"/>
<polygon fill="#63b8ff" stroke="#63b8ff" points="580.41,-8.24 570.29,-11.39 580.16,-15.24 580.41,-8.24"/>
</a>
</g>
</g>
<!-- Node13&#45;&gt;Node5 -->
<g id="edge13_Node000013_Node000005" class="edge">
<title>Node13&#45;&gt;Node5</title>
<g id="a_edge13_Node000013_Node000005"><a xlink:title=" ">
<path fill="none" stroke="#63b8ff" d="M1041.51,-71.38C1034.19,-66.42 1024.69,-60.17 1016,-55 997.33,-43.88 975.67,-32.31 959.16,-23.76"/>
<polygon fill="#63b8ff" stroke="#63b8ff" points="960.59,-20.56 950.1,-19.1 957.39,-26.78 960.59,-20.56"/>
</a>
</g>
</g>
<!-- Node14 -->
<g id="Node000014" class="node">
<title>Node14</title>
<g id="a_Node000014"><a xlink:title=" ">
<polygon fill="#e0e0e0" stroke="#999999" points="1068,-19 1018,-19 1018,0 1068,0 1068,-19"/>
<text text-anchor="middle" x="1043" y="-7" font-family="Helvetica,sans-Serif" font-size="10.00">cstring</text>
</a>
</g>
</g>
<!-- Node13&#45;&gt;Node14 -->
<g id="edge14_Node000013_Node000014" class="edge">
<title>Node13&#45;&gt;Node14</title>
<g id="a_edge14_Node000013_Node000014"><a xlink:title=" ">
<path fill="none" stroke="#63b8ff" d="M1052.65,-71.48C1051,-61.06 1048.16,-43.11 1045.99,-29.38"/>
<polygon fill="#63b8ff" stroke="#63b8ff" points="1049.38,-28.42 1044.36,-19.09 1042.47,-29.52 1049.38,-28.42"/>
</a>
</g>
</g>
<!-- Node13&#45;&gt;Node15 -->
<g id="edge16_Node000013_Node000015" class="edge">
<title>Node13&#45;&gt;Node15</title>
<g id="a_edge16_Node000013_Node000015"><a xlink:title=" ">
<path fill="none" stroke="#63b8ff" d="M1060.99,-71.48C1070.05,-60.43 1086.04,-40.93 1097.5,-26.96"/>
<polygon fill="#63b8ff" stroke="#63b8ff" points="1100.32,-29.04 1103.95,-19.09 1094.91,-24.6 1100.32,-29.04"/>
</a>
</g>
</g>
<!-- Node16&#45;&gt;Node3 -->
<g id="edge19_Node000016_Node000003" class="edge">
<title>Node16&#45;&gt;Node3</title>
<g id="a_edge19_Node000016_Node000003"><a xlink:title=" ">
<path fill="none" stroke="#63b8ff" d="M960.72,-142.98C945.48,-131.46 918.07,-110.76 899.47,-96.71"/>
<polygon fill="#63b8ff" stroke="#63b8ff" points="901.46,-93.83 891.37,-90.59 897.24,-99.41 901.46,-93.83"/>
</a>
</g>
</g>
<!-- Node16&#45;&gt;Node5 -->
<g id="edge18_Node000016_Node000005" class="edge">
<title>Node16&#45;&gt;Node5</title>
<g id="a_edge18_Node000016_Node000005"><a xlink:title=" ">
<path fill="none" stroke="#63b8ff" d="M967.41,-142.87C962.9,-134.07 956.11,-119.91 952,-107 943.59,-80.62 938.21,-48.93 935.4,-29.25"/>
<polygon fill="#63b8ff" stroke="#63b8ff" points="938.85,-28.62 934.03,-19.18 931.91,-29.56 938.85,-28.62"/>
</a>
</g>
</g>
<!-- Node16&#45;&gt;Node13 -->
<g id="edge21_Node000016_Node000013" class="edge">
<title>Node16&#45;&gt;Node13</title>
<g id="a_edge21_Node000016_Node000013"><a xlink:title=" ">
<path fill="none" stroke="#63b8ff" d="M982.05,-142.98C995.46,-131.62 1019.41,-111.32 1035.97,-97.28"/>
<polygon fill="#63b8ff" stroke="#63b8ff" points="1038.5,-99.73 1043.86,-90.59 1033.97,-94.39 1038.5,-99.73"/>
</a>
</g>
</g>
<!-- Node17 -->
<g id="Node000017" class="node">
<title>Node17</title>
<g id="a_Node000017"><a xlink:title=" ">
<polygon fill="#e0e0e0" stroke="#999999" points="1007,-90.5 961,-90.5 961,-71.5 1007,-71.5 1007,-90.5"/>
<text text-anchor="middle" x="984" y="-78.5" font-family="Helvetica,sans-Serif" font-size="10.00">cstdio</text>
</a>
</g>
</g>
<!-- Node16&#45;&gt;Node17 -->
<g id="edge20_Node000016_Node000017" class="edge">
<title>Node16&#45;&gt;Node17</title>
<g id="a_edge20_Node000016_Node000017"><a xlink:title=" ">
<path fill="none" stroke="#63b8ff" d="M973.47,-142.98C975.29,-132.45 978.43,-114.25 980.81,-100.47"/>
<polygon fill="#63b8ff" stroke="#63b8ff" points="984.26,-101.04 982.52,-90.59 977.37,-99.85 984.26,-101.04"/>
</a>
</g>
</g>
</g>
</svg>
