<?xml version="1.0" encoding="UTF-8" standalone="no"?>
<!DOCTYPE svg PUBLIC "-//W3C//DTD SVG 1.1//EN"
 "http://www.w3.org/Graphics/SVG/1.1/DTD/svg11.dtd">
<!-- Generated by graphviz version 2.43.0 (0)
 -->
<!-- Title: Tle92466edHandler.cpp Pages: 1 -->
<svg width="1206pt" height="170pt"
 viewBox="0.00 0.00 1206.00 170.00" xmlns="http://www.w3.org/2000/svg" xmlns:xlink="http://www.w3.org/1999/xlink">
<g id="graph0" class="graph" transform="scale(1 1) rotate(0) translate(4 166)">
<title>Tle92466edHandler.cpp</title>
<!-- Node1 -->
<g id="Node000001" class="node">
<title>Node1</title>
<g id="a_Node000001"><a xlink:title="Implementation of TLE92466ED handler with SPI communication adapter.">
<polygon fill="#999999" stroke="#666666" points="772.5,-162 641.5,-162 641.5,-143 772.5,-143 772.5,-162"/>
<text text-anchor="middle" x="707" y="-150" font-family="Helvetica,sans-Serif" font-size="10.00">Tle92466edHandler.cpp</text>
</a>
</g>
</g>
<!-- Node2 -->
<g id="Node000002" class="node">
<title>Node2</title>
<g id="a_Node000002"><a xlink:href="Tle92466edHandler_8h.html" target="_top" xlink:title="Unified handler for TLE92466ED six&#45;channel low&#45;side solenoid driver IC.">
<polygon fill="white" stroke="#666666" points="552,-107 432,-107 432,-88 552,-88 552,-107"/>
<text text-anchor="middle" x="492" y="-95" font-family="Helvetica,sans-Serif" font-size="10.00">Tle92466edHandler.h</text>
</a>
</g>
</g>
<!-- Node1&#45;&gt;Node2 -->
<g id="edge1_Node000001_Node000002" class="edge">
<title>Node1&#45;&gt;Node2</title>
<g id="a_edge1_Node000001_Node000002"><a xlink:title=" ">
<path fill="none" stroke="#63b8ff" d="M672.46,-142.98C635.58,-133.89 577.01,-119.46 536.66,-109.51"/>
<polygon fill="#63b8ff" stroke="#63b8ff" points="537.36,-106.08 526.81,-107.08 535.69,-112.87 537.36,-106.08"/>
</a>
</g>
</g>
<!-- Node12 -->
<g id="Node000012" class="node">
<title>Node12</title>
<g id="a_Node000012"><a xlink:href="Logger_8h.html" target="_top" xlink:title="Advanced logging system with formatting capabilities.">
<polygon fill="white" stroke="#666666" points="1047,-107 989,-107 989,-88 1047,-88 1047,-107"/>
<text text-anchor="middle" x="1018" y="-95" font-family="Helvetica,sans-Serif" font-size="10.00">Logger.h</text>
</a>
</g>
</g>
<!-- Node1&#45;&gt;Node12 -->
<g id="edge11_Node000001_Node000012" class="edge">
<title>Node1&#45;&gt;Node12</title>
<g id="a_edge11_Node000001_Node000012"><a xlink:title=" ">
<path fill="none" stroke="#63b8ff" d="M756.97,-142.98C818.72,-132.46 922.5,-114.78 978.81,-105.18"/>
<polygon fill="#63b8ff" stroke="#63b8ff" points="979.48,-108.62 988.75,-103.49 978.3,-101.72 979.48,-108.62"/>
</a>
</g>
</g>
<!-- Node3 -->
<g id="Node000003" class="node">
<title>Node3</title>
<g id="a_Node000003"><a xlink:title=" ">
<polygon fill="#e0e0e0" stroke="#999999" points="50,-35.5 0,-35.5 0,-16.5 50,-16.5 50,-35.5"/>
<text text-anchor="middle" x="25" y="-23.5" font-family="Helvetica,sans-Serif" font-size="10.00">cstdint</text>
</a>
</g>
</g>
<!-- Node2&#45;&gt;Node3 -->
<g id="edge2_Node000002_Node000003" class="edge">
<title>Node2&#45;&gt;Node3</title>
<g id="a_edge2_Node000002_Node000003"><a xlink:title=" ">
<path fill="none" stroke="#63b8ff" d="M431.83,-94.22C329.35,-89.68 125.54,-77.67 59,-52 52.96,-49.67 47.03,-45.97 41.87,-42.12"/>
<polygon fill="#63b8ff" stroke="#63b8ff" points="43.97,-39.31 34,-35.72 39.55,-44.74 43.97,-39.31"/>
</a>
</g>
</g>
<!-- Node4 -->
<g id="Node000004" class="node">
<title>Node4</title>
<g id="a_Node000004"><a xlink:title=" ">
<polygon fill="#e0e0e0" stroke="#999999" points="946,-35.5 888,-35.5 888,-16.5 946,-16.5 946,-35.5"/>
<text text-anchor="middle" x="917" y="-23.5" font-family="Helvetica,sans-Serif" font-size="10.00">memory</text>
</a>
</g>
</g>
<!-- Node2&#45;&gt;Node4 -->
<g id="edge3_Node000002_Node000004" class="edge">
<title>Node2&#45;&gt;Node4</title>
<g id="a_edge3_Node000002_Node000004"><a xlink:title=" ">
<path fill="none" stroke="#63b8ff" d="M552.17,-92.89C645.24,-86.75 819.46,-72.87 878,-52 885.02,-49.5 892.08,-45.53 898.21,-41.48"/>
<polygon fill="#63b8ff" stroke="#63b8ff" points="900.3,-44.29 906.44,-35.66 896.26,-38.58 900.3,-44.29"/>
</a>
</g>
</g>
<!-- Node5 -->
<g id="Node000005" class="node">
<title>Node5</title>
<g id="a_Node000005"><a xlink:title=" ">
<polygon fill="#e0e0e0" stroke="#999999" points="121.5,-35.5 68.5,-35.5 68.5,-16.5 121.5,-16.5 121.5,-35.5"/>
<text text-anchor="middle" x="95" y="-23.5" font-family="Helvetica,sans-Serif" font-size="10.00">cstdarg</text>
</a>
</g>
</g>
<!-- Node2&#45;&gt;Node5 -->
<g id="edge4_Node000002_Node000005" class="edge">
<title>Node2&#45;&gt;Node5</title>
<g id="a_edge4_Node000002_Node000005"><a xlink:title=" ">
<path fill="none" stroke="#63b8ff" d="M431.68,-92.58C343.62,-86.27 184.54,-72.45 131,-52 124.56,-49.54 118.17,-45.69 112.61,-41.75"/>
<polygon fill="#63b8ff" stroke="#63b8ff" points="114.71,-38.95 104.64,-35.65 110.45,-44.51 114.71,-38.95"/>
</a>
</g>
</g>
<!-- Node6 -->
<g id="Node000006" class="node">
<title>Node6</title>
<g id="a_Node000006"><a xlink:title=" ">
<polygon fill="#e0e0e0" stroke="#999999" points="180,-35.5 140,-35.5 140,-16.5 180,-16.5 180,-35.5"/>
<text text-anchor="middle" x="160" y="-23.5" font-family="Helvetica,sans-Serif" font-size="10.00">span</text>
</a>
</g>
</g>
<!-- Node2&#45;&gt;Node6 -->
<g id="edge5_Node000002_Node000006" class="edge">
<title>Node2&#45;&gt;Node6</title>
<g id="a_edge5_Node000002_Node000006"><a xlink:title=" ">
<path fill="none" stroke="#63b8ff" d="M431.93,-91.67C356.29,-84.91 231.13,-71.25 189,-52 184.12,-49.77 179.43,-46.46 175.3,-42.97"/>
<polygon fill="#63b8ff" stroke="#63b8ff" points="177.41,-40.15 167.72,-35.85 172.62,-45.25 177.41,-40.15"/>
</a>
</g>
</g>
<!-- Node7 -->
<g id="Node000007" class="node">
<title>Node7</title>
<g id="a_Node000007"><a xlink:title=" ">
<polygon fill="#e0e0e0" stroke="#999999" points="343.5,-46.5 198.5,-46.5 198.5,-5.5 343.5,-5.5 343.5,-46.5"/>
<text text-anchor="start" x="206.5" y="-34.5" font-family="Helvetica,sans-Serif" font-size="10.00">core/hf&#45;core&#45;drivers</text>
<text text-anchor="start" x="206.5" y="-23.5" font-family="Helvetica,sans-Serif" font-size="10.00">/external/hf&#45;tle92466ed</text>
<text text-anchor="middle" x="271" y="-12.5" font-family="Helvetica,sans-Serif" font-size="10.00">&#45;driver/inc/tle92466ed.hpp</text>
</a>
</g>
</g>
<!-- Node2&#45;&gt;Node7 -->
<g id="edge6_Node000002_Node000007" class="edge">
<title>Node2&#45;&gt;Node7</title>
<g id="a_edge6_Node000002_Node000007"><a xlink:title=" ">
<path fill="none" stroke="#63b8ff" d="M464.9,-87.98C434.64,-78.46 384.43,-62.67 342.68,-49.54"/>
<polygon fill="#63b8ff" stroke="#63b8ff" points="343.68,-46.19 333.09,-46.53 341.58,-52.87 343.68,-46.19"/>
</a>
</g>
</g>
<!-- Node8 -->
<g id="Node000008" class="node">
<title>Node8</title>
<g id="a_Node000008"><a xlink:title=" ">
<polygon fill="#e0e0e0" stroke="#999999" points="492.5,-52 361.5,-52 361.5,0 492.5,0 492.5,-52"/>
<text text-anchor="start" x="369.5" y="-40" font-family="Helvetica,sans-Serif" font-size="10.00">core/hf&#45;core&#45;drivers</text>
<text text-anchor="start" x="369.5" y="-29" font-family="Helvetica,sans-Serif" font-size="10.00">/external/hf&#45;tle92466ed</text>
<text text-anchor="start" x="369.5" y="-18" font-family="Helvetica,sans-Serif" font-size="10.00">&#45;driver/inc/tle92466ed</text>
<text text-anchor="middle" x="427" y="-7" font-family="Helvetica,sans-Serif" font-size="10.00">_spi_interface.hpp</text>
</a>
</g>
</g>
<!-- Node2&#45;&gt;Node8 -->
<g id="edge7_Node000002_Node000008" class="edge">
<title>Node2&#45;&gt;Node8</title>
<g id="a_edge7_Node000002_Node000008"><a xlink:title=" ">
<path fill="none" stroke="#63b8ff" d="M484.03,-87.98C477.32,-80.8 467.27,-70.06 457.47,-59.58"/>
<polygon fill="#63b8ff" stroke="#63b8ff" points="459.82,-56.97 450.43,-52.05 454.71,-61.75 459.82,-56.97"/>
</a>
</g>
</g>
<!-- Node9 -->
<g id="Node000009" class="node">
<title>Node9</title>
<g id="a_Node000009"><a xlink:title=" ">
<polygon fill="#e0e0e0" stroke="#999999" points="601.5,-35.5 510.5,-35.5 510.5,-16.5 601.5,-16.5 601.5,-35.5"/>
<text text-anchor="middle" x="556" y="-23.5" font-family="Helvetica,sans-Serif" font-size="10.00">base/BaseSpi.h</text>
</a>
</g>
</g>
<!-- Node2&#45;&gt;Node9 -->
<g id="edge8_Node000002_Node000009" class="edge">
<title>Node2&#45;&gt;Node9</title>
<g id="a_edge8_Node000002_Node000009"><a xlink:title=" ">
<path fill="none" stroke="#63b8ff" d="M499.85,-87.98C510.12,-76.83 528.32,-57.06 541.21,-43.06"/>
<polygon fill="#63b8ff" stroke="#63b8ff" points="543.89,-45.32 548.09,-35.59 538.74,-40.58 543.89,-45.32"/>
</a>
</g>
</g>
<!-- Node10 -->
<g id="Node000010" class="node">
<title>Node10</title>
<g id="a_Node000010"><a xlink:title=" ">
<polygon fill="#e0e0e0" stroke="#999999" points="718,-35.5 620,-35.5 620,-16.5 718,-16.5 718,-35.5"/>
<text text-anchor="middle" x="669" y="-23.5" font-family="Helvetica,sans-Serif" font-size="10.00">base/BaseGpio.h</text>
</a>
</g>
</g>
<!-- Node2&#45;&gt;Node10 -->
<g id="edge9_Node000002_Node000010" class="edge">
<title>Node2&#45;&gt;Node10</title>
<g id="a_edge9_Node000002_Node000010"><a xlink:title=" ">
<path fill="none" stroke="#63b8ff" d="M515.62,-87.91C539.51,-79.15 577.48,-65.02 610,-52 619.81,-48.07 630.47,-43.62 639.99,-39.57"/>
<polygon fill="#63b8ff" stroke="#63b8ff" points="641.6,-42.68 649.42,-35.53 638.84,-36.25 641.6,-42.68"/>
</a>
</g>
</g>
<!-- Node11 -->
<g id="Node000011" class="node">
<title>Node11</title>
<g id="a_Node000011"><a xlink:title=" ">
<polygon fill="#e0e0e0" stroke="#999999" points="869.5,-52 736.5,-52 736.5,0 869.5,0 869.5,-52"/>
<text text-anchor="start" x="744.5" y="-40" font-family="Helvetica,sans-Serif" font-size="10.00">core/hf&#45;core&#45;drivers</text>
<text text-anchor="start" x="744.5" y="-29" font-family="Helvetica,sans-Serif" font-size="10.00">/internal/hf&#45;internal</text>
<text text-anchor="start" x="744.5" y="-18" font-family="Helvetica,sans-Serif" font-size="10.00">&#45;interface&#45;wrap/inc/utils</text>
<text text-anchor="middle" x="803" y="-7" font-family="Helvetica,sans-Serif" font-size="10.00">/RtosMutex.h</text>
</a>
</g>
</g>
<!-- Node2&#45;&gt;Node11 -->
<g id="edge10_Node000002_Node000011" class="edge">
<title>Node2&#45;&gt;Node11</title>
<g id="a_edge10_Node000002_Node000011"><a xlink:title=" ">
<path fill="none" stroke="#63b8ff" d="M548.48,-87.93C594.13,-80.53 660.15,-68.73 726.61,-51.96"/>
<polygon fill="#63b8ff" stroke="#63b8ff" points="727.6,-55.32 736.42,-49.45 725.86,-48.54 727.6,-55.32"/>
</a>
</g>
</g>
<!-- Node12&#45;&gt;Node4 -->
<g id="edge14_Node000012_Node000004" class="edge">
<title>Node12&#45;&gt;Node4</title>
<g id="a_edge14_Node000012_Node000004"><a xlink:title=" ">
<path fill="none" stroke="#63b8ff" d="M1005.62,-87.98C988.73,-76.36 958.25,-55.39 937.82,-41.33"/>
<polygon fill="#63b8ff" stroke="#63b8ff" points="939.71,-38.38 929.49,-35.59 935.74,-44.14 939.71,-38.38"/>
</a>
</g>
</g>
<!-- Node13 -->
<g id="Node000013" class="node">
<title>Node13</title>
<g id="a_Node000013"><a xlink:title=" ">
<polygon fill="#e0e0e0" stroke="#999999" points="1008,-35.5 964,-35.5 964,-16.5 1008,-16.5 1008,-35.5"/>
<text text-anchor="middle" x="986" y="-23.5" font-family="Helvetica,sans-Serif" font-size="10.00">string</text>
</a>
</g>
</g>
<!-- Node12&#45;&gt;Node13 -->
<g id="edge12_Node000012_Node000013" class="edge">
<title>Node12&#45;&gt;Node13</title>
<g id="a_edge12_Node000012_Node000013"><a xlink:title=" ">
<path fill="none" stroke="#63b8ff" d="M1014.08,-87.98C1009.18,-77.35 1000.68,-58.89 994.32,-45.06"/>
<polygon fill="#63b8ff" stroke="#63b8ff" points="997.32,-43.21 989.96,-35.59 990.96,-46.14 997.32,-43.21"/>
</a>
</g>
</g>
<!-- Node14 -->
<g id="Node000014" class="node">
<title>Node14</title>
<g id="a_Node000014"><a xlink:title=" ">
<polygon fill="#e0e0e0" stroke="#999999" points="1073.5,-35.5 1026.5,-35.5 1026.5,-16.5 1073.5,-16.5 1073.5,-35.5"/>
<text text-anchor="middle" x="1050" y="-23.5" font-family="Helvetica,sans-Serif" font-size="10.00">vector</text>
</a>
</g>
</g>
<!-- Node12&#45;&gt;Node14 -->
<g id="edge13_Node000012_Node000014" class="edge">
<title>Node12&#45;&gt;Node14</title>
<g id="a_edge13_Node000012_Node000014"><a xlink:title=" ">
<path fill="none" stroke="#63b8ff" d="M1021.92,-87.98C1026.82,-77.35 1035.32,-58.89 1041.68,-45.06"/>
<polygon fill="#63b8ff" stroke="#63b8ff" points="1045.04,-46.14 1046.04,-35.59 1038.68,-43.21 1045.04,-46.14"/>
</a>
</g>
</g>
<!-- Node15 -->
<g id="Node000015" class="node">
<title>Node15</title>
<g id="a_Node000015"><a xlink:title=" ">
<polygon fill="#e0e0e0" stroke="#999999" points="1142,-35.5 1092,-35.5 1092,-16.5 1142,-16.5 1142,-35.5"/>
<text text-anchor="middle" x="1117" y="-23.5" font-family="Helvetica,sans-Serif" font-size="10.00">atomic</text>
</a>
</g>
</g>
<!-- Node12&#45;&gt;Node15 -->
<g id="edge15_Node000012_Node000015" class="edge">
<title>Node12&#45;&gt;Node15</title>
<g id="a_edge15_Node000012_Node000015"><a xlink:title=" ">
<path fill="none" stroke="#63b8ff" d="M1031.04,-87.76C1044.23,-78.88 1065.16,-64.66 1083,-52 1087.59,-48.74 1092.48,-45.19 1097.09,-41.82"/>
<polygon fill="#63b8ff" stroke="#63b8ff" points="1099.46,-44.41 1105.43,-35.66 1095.3,-38.78 1099.46,-44.41"/>
</a>
</g>
</g>
<!-- Node16 -->
<g id="Node000016" class="node">
<title>Node16</title>
<g id="a_Node000016"><a xlink:title=" ">
<polygon fill="#e0e0e0" stroke="#999999" points="1198,-35.5 1160,-35.5 1160,-16.5 1198,-16.5 1198,-35.5"/>
<text text-anchor="middle" x="1179" y="-23.5" font-family="Helvetica,sans-Serif" font-size="10.00">map</text>
</a>
</g>
</g>
<!-- Node12&#45;&gt;Node16 -->
<g id="edge16_Node000012_Node000016" class="edge">
<title>Node12&#45;&gt;Node16</title>
<g id="a_edge16_Node000012_Node000016"><a xlink:title=" ">
<path fill="none" stroke="#63b8ff" d="M1047.19,-90.36C1075.13,-83.66 1117.83,-71.25 1151,-52 1155.3,-49.5 1159.53,-46.27 1163.34,-42.97"/>
<polygon fill="#63b8ff" stroke="#63b8ff" points="1166,-45.27 1170.89,-35.88 1161.21,-40.17 1166,-45.27"/>
</a>
</g>
</g>
</g>
</svg>
