<?xml version="1.0" encoding="UTF-8" standalone="no"?>
<!DOCTYPE svg PUBLIC "-//W3C//DTD SVG 1.1//EN"
 "http://www.w3.org/Graphics/SVG/1.1/DTD/svg11.dtd">
<!-- Generated by graphviz version 2.43.0 (0)
 -->
<!-- Title: Tmc5160Handler.cpp Pages: 1 -->
<svg width="1685pt" height="225pt"
 viewBox="0.00 0.00 1684.50 225.00" xmlns="http://www.w3.org/2000/svg" xmlns:xlink="http://www.w3.org/1999/xlink">
<g id="graph0" class="graph" transform="scale(1 1) rotate(0) translate(4 221)">
<title>Tmc5160Handler.cpp</title>
<!-- Node1 -->
<g id="Node000001" class="node">
<title>Node1</title>
<g id="a_Node000001"><a xlink:title="Implementation of TMC5160 handler with SPI/UART communication adapters.">
<polygon fill="#999999" stroke="#666666" points="237.5,-217 118.5,-217 118.5,-198 237.5,-198 237.5,-217"/>
<text text-anchor="middle" x="178" y="-205" font-family="Helvetica,sans-Serif" font-size="10.00">Tmc5160Handler.cpp</text>
</a>
</g>
</g>
<!-- Node2 -->
<g id="Node000002" class="node">
<title>Node2</title>
<g id="a_Node000002"><a xlink:href="Tmc5160Handler_8h.html" target="_top" xlink:title="Unified handler for TMC5160/TMC5130 stepper motor driver with SPI/UART integration.">
<polygon fill="white" stroke="#666666" points="716,-162 608,-162 608,-143 716,-143 716,-162"/>
<text text-anchor="middle" x="662" y="-150" font-family="Helvetica,sans-Serif" font-size="10.00">Tmc5160Handler.h</text>
</a>
</g>
</g>
<!-- Node1&#45;&gt;Node2 -->
<g id="edge1_Node000001_Node000002" class="edge">
<title>Node1&#45;&gt;Node2</title>
<g id="a_edge1_Node000001_Node000002"><a xlink:title=" ">
<path fill="none" stroke="#63b8ff" d="M237.83,-199.95C329.47,-189.91 503.81,-170.82 597.92,-160.52"/>
<polygon fill="#63b8ff" stroke="#63b8ff" points="598.32,-163.99 607.88,-159.43 597.56,-157.04 598.32,-163.99"/>
</a>
</g>
</g>
<!-- Node16 -->
<g id="Node000016" class="node">
<title>Node16</title>
<g id="a_Node000016"><a xlink:href="Logger_8h.html" target="_top" xlink:title="Advanced logging system with formatting capabilities.">
<polygon fill="white" stroke="#666666" points="96,-90.5 38,-90.5 38,-71.5 96,-71.5 96,-90.5"/>
<text text-anchor="middle" x="67" y="-78.5" font-family="Helvetica,sans-Serif" font-size="10.00">Logger.h</text>
</a>
</g>
</g>
<!-- Node1&#45;&gt;Node16 -->
<g id="edge15_Node000001_Node000016" class="edge">
<title>Node1&#45;&gt;Node16</title>
<g id="a_edge15_Node000001_Node000016"><a xlink:title=" ">
<path fill="none" stroke="#63b8ff" d="M162.38,-197.98C148.72,-189.98 128.94,-177.02 115,-162 97.66,-143.32 83.51,-117.38 75.17,-100.16"/>
<polygon fill="#63b8ff" stroke="#63b8ff" points="78.16,-98.29 70.75,-90.71 71.81,-101.25 78.16,-98.29"/>
</a>
</g>
</g>
<!-- Node19 -->
<g id="Node000019" class="node">
<title>Node19</title>
<g id="a_Node000019"><a xlink:href="HandlerCommon_8h.html" target="_top" xlink:title="Shared utility functions for handler CRTP communication adapters.">
<polygon fill="white" stroke="#666666" points="232,-162 124,-162 124,-143 232,-143 232,-162"/>
<text text-anchor="middle" x="178" y="-150" font-family="Helvetica,sans-Serif" font-size="10.00">HandlerCommon.h</text>
</a>
</g>
</g>
<!-- Node1&#45;&gt;Node19 -->
<g id="edge20_Node000001_Node000019" class="edge">
<title>Node1&#45;&gt;Node19</title>
<g id="a_edge20_Node000001_Node000019"><a xlink:title=" ">
<path fill="none" stroke="#63b8ff" d="M178,-197.75C178,-190.8 178,-180.85 178,-172.13"/>
<polygon fill="#63b8ff" stroke="#63b8ff" points="181.5,-172.09 178,-162.09 174.5,-172.09 181.5,-172.09"/>
</a>
</g>
</g>
<!-- Node3 -->
<g id="Node000003" class="node">
<title>Node3</title>
<g id="a_Node000003"><a xlink:title=" ">
<polygon fill="#e0e0e0" stroke="#999999" points="266,-90.5 216,-90.5 216,-71.5 266,-71.5 266,-90.5"/>
<text text-anchor="middle" x="241" y="-78.5" font-family="Helvetica,sans-Serif" font-size="10.00">cstdint</text>
</a>
</g>
</g>
<!-- Node2&#45;&gt;Node3 -->
<g id="edge2_Node000002_Node000003" class="edge">
<title>Node2&#45;&gt;Node3</title>
<g id="a_edge2_Node000002_Node000003"><a xlink:title=" ">
<path fill="none" stroke="#63b8ff" d="M607.97,-148.22C517.42,-142.21 339.11,-128.11 280,-107 272.98,-104.49 265.93,-100.52 259.79,-96.48"/>
<polygon fill="#63b8ff" stroke="#63b8ff" points="261.74,-93.57 251.56,-90.66 257.7,-99.29 261.74,-93.57"/>
</a>
</g>
</g>
<!-- Node4 -->
<g id="Node000004" class="node">
<title>Node4</title>
<g id="a_Node000004"><a xlink:title=" ">
<polygon fill="#e0e0e0" stroke="#999999" points="326,-19 268,-19 268,0 326,0 326,-19"/>
<text text-anchor="middle" x="297" y="-7" font-family="Helvetica,sans-Serif" font-size="10.00">memory</text>
</a>
</g>
</g>
<!-- Node2&#45;&gt;Node4 -->
<g id="edge3_Node000002_Node000004" class="edge">
<title>Node2&#45;&gt;Node4</title>
<g id="a_edge3_Node000002_Node000004"><a xlink:title=" ">
<path fill="none" stroke="#63b8ff" d="M607.92,-149.39C530.42,-145.44 392.62,-134.65 352,-107 324.6,-88.35 309.2,-51.24 302.04,-28.87"/>
<polygon fill="#63b8ff" stroke="#63b8ff" points="305.37,-27.8 299.17,-19.22 298.66,-29.8 305.37,-27.8"/>
</a>
</g>
</g>
<!-- Node5 -->
<g id="Node000005" class="node">
<title>Node5</title>
<g id="a_Node000005"><a xlink:title=" ">
<polygon fill="#e0e0e0" stroke="#999999" points="429.5,-90.5 360.5,-90.5 360.5,-71.5 429.5,-71.5 429.5,-90.5"/>
<text text-anchor="middle" x="395" y="-78.5" font-family="Helvetica,sans-Serif" font-size="10.00">type_traits</text>
</a>
</g>
</g>
<!-- Node2&#45;&gt;Node5 -->
<g id="edge4_Node000002_Node000005" class="edge">
<title>Node2&#45;&gt;Node5</title>
<g id="a_edge4_Node000002_Node000005"><a xlink:title=" ">
<path fill="none" stroke="#63b8ff" d="M607.96,-145.63C561.96,-139.49 494.67,-127.75 439,-107 431.3,-104.13 423.36,-100.02 416.37,-95.96"/>
<polygon fill="#63b8ff" stroke="#63b8ff" points="417.92,-92.8 407.56,-90.58 414.27,-98.78 417.92,-92.8"/>
</a>
</g>
</g>
<!-- Node6 -->
<g id="Node000006" class="node">
<title>Node6</title>
<g id="a_Node000006"><a xlink:title=" ">
<polygon fill="#e0e0e0" stroke="#999999" points="214.5,-19 161.5,-19 161.5,0 214.5,0 214.5,-19"/>
<text text-anchor="middle" x="188" y="-7" font-family="Helvetica,sans-Serif" font-size="10.00">cstdarg</text>
</a>
</g>
</g>
<!-- Node2&#45;&gt;Node6 -->
<g id="edge5_Node000002_Node000006" class="edge">
<title>Node2&#45;&gt;Node6</title>
<g id="a_edge5_Node000002_Node000006"><a xlink:title=" ">
<path fill="none" stroke="#63b8ff" d="M607.98,-150.26C521.48,-147.36 356.65,-137.85 308,-107 284.88,-92.34 295.23,-73.44 275,-55 259.91,-41.24 239.77,-30.59 222.67,-23.15"/>
<polygon fill="#63b8ff" stroke="#63b8ff" points="223.6,-19.75 213.02,-19.15 220.92,-26.21 223.6,-19.75"/>
</a>
</g>
</g>
<!-- Node7 -->
<g id="Node000007" class="node">
<title>Node7</title>
<g id="a_Node000007"><a xlink:title=" ">
<polygon fill="#e0e0e0" stroke="#999999" points="498.5,-90.5 447.5,-90.5 447.5,-71.5 498.5,-71.5 498.5,-90.5"/>
<text text-anchor="middle" x="473" y="-78.5" font-family="Helvetica,sans-Serif" font-size="10.00">variant</text>
</a>
</g>
</g>
<!-- Node2&#45;&gt;Node7 -->
<g id="edge6_Node000002_Node000007" class="edge">
<title>Node2&#45;&gt;Node7</title>
<g id="a_edge6_Node000002_Node000007"><a xlink:title=" ">
<path fill="none" stroke="#63b8ff" d="M618.07,-142.98C586.45,-135.86 543.32,-124.1 508,-107 502.23,-104.21 496.39,-100.48 491.19,-96.75"/>
<polygon fill="#63b8ff" stroke="#63b8ff" points="493.22,-93.9 483.13,-90.65 488.99,-99.48 493.22,-93.9"/>
</a>
</g>
</g>
<!-- Node8 -->
<g id="Node000008" class="node">
<title>Node8</title>
<g id="a_Node000008"><a xlink:title=" ">
<polygon fill="#e0e0e0" stroke="#999999" points="649.5,-101.5 516.5,-101.5 516.5,-60.5 649.5,-60.5 649.5,-101.5"/>
<text text-anchor="start" x="524.5" y="-89.5" font-family="Helvetica,sans-Serif" font-size="10.00">core/hf&#45;core&#45;drivers</text>
<text text-anchor="start" x="524.5" y="-78.5" font-family="Helvetica,sans-Serif" font-size="10.00">/external/hf&#45;tmc5160</text>
<text text-anchor="middle" x="583" y="-67.5" font-family="Helvetica,sans-Serif" font-size="10.00">&#45;driver/inc/tmc51x0.hpp</text>
</a>
</g>
</g>
<!-- Node2&#45;&gt;Node8 -->
<g id="edge7_Node000002_Node000008" class="edge">
<title>Node2&#45;&gt;Node8</title>
<g id="a_edge7_Node000002_Node000008"><a xlink:title=" ">
<path fill="none" stroke="#63b8ff" d="M652.31,-142.98C642.51,-134.35 626.85,-120.58 612.89,-108.3"/>
<polygon fill="#63b8ff" stroke="#63b8ff" points="615.18,-105.65 605.36,-101.67 610.56,-110.91 615.18,-105.65"/>
</a>
</g>
</g>
<!-- Node9 -->
<g id="Node000009" class="node">
<title>Node9</title>
<g id="a_Node000009"><a xlink:title=" ">
<polygon fill="#e0e0e0" stroke="#999999" points="816,-107 668,-107 668,-55 816,-55 816,-107"/>
<text text-anchor="start" x="676" y="-95" font-family="Helvetica,sans-Serif" font-size="10.00">core/hf&#45;core&#45;drivers</text>
<text text-anchor="start" x="676" y="-84" font-family="Helvetica,sans-Serif" font-size="10.00">/external/hf&#45;tmc5160</text>
<text text-anchor="start" x="676" y="-73" font-family="Helvetica,sans-Serif" font-size="10.00">&#45;driver/inc/tmc51x0_comm</text>
<text text-anchor="middle" x="742" y="-62" font-family="Helvetica,sans-Serif" font-size="10.00">_interface.hpp</text>
</a>
</g>
</g>
<!-- Node2&#45;&gt;Node9 -->
<g id="edge8_Node000002_Node000009" class="edge">
<title>Node2&#45;&gt;Node9</title>
<g id="a_edge8_Node000002_Node000009"><a xlink:title=" ">
<path fill="none" stroke="#63b8ff" d="M671.81,-142.98C680.31,-135.59 693.16,-124.43 705.55,-113.67"/>
<polygon fill="#63b8ff" stroke="#63b8ff" points="707.91,-116.25 713.16,-107.05 703.32,-110.97 707.91,-116.25"/>
</a>
</g>
</g>
<!-- Node10 -->
<g id="Node000010" class="node">
<title>Node10</title>
<g id="a_Node000010"><a xlink:title=" ">
<polygon fill="#e0e0e0" stroke="#999999" points="999.5,-101.5 834.5,-101.5 834.5,-60.5 999.5,-60.5 999.5,-101.5"/>
<text text-anchor="start" x="842.5" y="-89.5" font-family="Helvetica,sans-Serif" font-size="10.00">core/hf&#45;core&#45;drivers</text>
<text text-anchor="start" x="842.5" y="-78.5" font-family="Helvetica,sans-Serif" font-size="10.00">/external/hf&#45;tmc5160</text>
<text text-anchor="middle" x="917" y="-67.5" font-family="Helvetica,sans-Serif" font-size="10.00">&#45;driver/inc/tmc51x0_types.hpp</text>
</a>
</g>
</g>
<!-- Node2&#45;&gt;Node10 -->
<g id="edge9_Node000002_Node000010" class="edge">
<title>Node2&#45;&gt;Node10</title>
<g id="a_edge9_Node000002_Node000010"><a xlink:title=" ">
<path fill="none" stroke="#63b8ff" d="M693.27,-142.98C728.48,-133.38 787.1,-117.4 835.51,-104.21"/>
<polygon fill="#63b8ff" stroke="#63b8ff" points="836.63,-107.53 845.35,-101.53 834.78,-100.78 836.63,-107.53"/>
</a>
</g>
</g>
<!-- Node11 -->
<g id="Node000011" class="node">
<title>Node11</title>
<g id="a_Node000011"><a xlink:title=" ">
<polygon fill="#e0e0e0" stroke="#999999" points="1184,-101.5 1018,-101.5 1018,-60.5 1184,-60.5 1184,-101.5"/>
<text text-anchor="start" x="1026" y="-89.5" font-family="Helvetica,sans-Serif" font-size="10.00">core/hf&#45;core&#45;drivers</text>
<text text-anchor="start" x="1026" y="-78.5" font-family="Helvetica,sans-Serif" font-size="10.00">/external/hf&#45;tmc5160</text>
<text text-anchor="middle" x="1101" y="-67.5" font-family="Helvetica,sans-Serif" font-size="10.00">&#45;driver/inc/tmc51x0_result.hpp</text>
</a>
</g>
</g>
<!-- Node2&#45;&gt;Node11 -->
<g id="edge10_Node000002_Node000011" class="edge">
<title>Node2&#45;&gt;Node11</title>
<g id="a_edge10_Node000002_Node000011"><a xlink:title=" ">
<path fill="none" stroke="#63b8ff" d="M716.17,-146.88C784.77,-140.51 906.39,-127.42 1009,-107 1013.67,-106.07 1018.46,-105.03 1023.28,-103.92"/>
<polygon fill="#63b8ff" stroke="#63b8ff" points="1024.26,-107.29 1033.17,-101.56 1022.63,-100.48 1024.26,-107.29"/>
</a>
</g>
</g>
<!-- Node12 -->
<g id="Node000012" class="node">
<title>Node12</title>
<g id="a_Node000012"><a xlink:title=" ">
<polygon fill="#e0e0e0" stroke="#999999" points="1293.5,-90.5 1202.5,-90.5 1202.5,-71.5 1293.5,-71.5 1293.5,-90.5"/>
<text text-anchor="middle" x="1248" y="-78.5" font-family="Helvetica,sans-Serif" font-size="10.00">base/BaseSpi.h</text>
</a>
</g>
</g>
<!-- Node2&#45;&gt;Node12 -->
<g id="edge11_Node000002_Node000012" class="edge">
<title>Node2&#45;&gt;Node12</title>
<g id="a_edge11_Node000002_Node000012"><a xlink:title=" ">
<path fill="none" stroke="#63b8ff" d="M716,-149.32C832.47,-144.23 1103.93,-130.23 1193,-107 1203.4,-104.29 1214.28,-99.75 1223.59,-95.27"/>
<polygon fill="#63b8ff" stroke="#63b8ff" points="1225.29,-98.33 1232.64,-90.71 1222.14,-92.08 1225.29,-98.33"/>
</a>
</g>
</g>
<!-- Node13 -->
<g id="Node000013" class="node">
<title>Node13</title>
<g id="a_Node000013"><a xlink:title=" ">
<polygon fill="#e0e0e0" stroke="#999999" points="1408.5,-90.5 1311.5,-90.5 1311.5,-71.5 1408.5,-71.5 1408.5,-90.5"/>
<text text-anchor="middle" x="1360" y="-78.5" font-family="Helvetica,sans-Serif" font-size="10.00">base/BaseUart.h</text>
</a>
</g>
</g>
<!-- Node2&#45;&gt;Node13 -->
<g id="edge12_Node000002_Node000013" class="edge">
<title>Node2&#45;&gt;Node13</title>
<g id="a_edge12_Node000002_Node000013"><a xlink:title=" ">
<path fill="none" stroke="#63b8ff" d="M716.43,-150.12C850.24,-146.33 1192.38,-134.23 1303,-107 1314.02,-104.29 1325.59,-99.6 1335.4,-95"/>
<polygon fill="#63b8ff" stroke="#63b8ff" points="1337.11,-98.06 1344.54,-90.52 1334.02,-91.78 1337.11,-98.06"/>
</a>
</g>
</g>
<!-- Node14 -->
<g id="Node000014" class="node">
<title>Node14</title>
<g id="a_Node000014"><a xlink:title=" ">
<polygon fill="#e0e0e0" stroke="#999999" points="1525,-90.5 1427,-90.5 1427,-71.5 1525,-71.5 1525,-90.5"/>
<text text-anchor="middle" x="1476" y="-78.5" font-family="Helvetica,sans-Serif" font-size="10.00">base/BaseGpio.h</text>
</a>
</g>
</g>
<!-- Node2&#45;&gt;Node14 -->
<g id="edge13_Node000002_Node000014" class="edge">
<title>Node2&#45;&gt;Node14</title>
<g id="a_edge13_Node000002_Node000014"><a xlink:title=" ">
<path fill="none" stroke="#63b8ff" d="M716.11,-150.75C866.03,-148.28 1284.48,-138.67 1418,-107 1429.2,-104.34 1440.97,-99.66 1450.96,-95.06"/>
<polygon fill="#63b8ff" stroke="#63b8ff" points="1452.78,-98.07 1460.27,-90.57 1449.74,-91.76 1452.78,-98.07"/>
</a>
</g>
</g>
<!-- Node15 -->
<g id="Node000015" class="node">
<title>Node15</title>
<g id="a_Node000015"><a xlink:title=" ">
<polygon fill="#e0e0e0" stroke="#999999" points="1676.5,-107 1543.5,-107 1543.5,-55 1676.5,-55 1676.5,-107"/>
<text text-anchor="start" x="1551.5" y="-95" font-family="Helvetica,sans-Serif" font-size="10.00">core/hf&#45;core&#45;drivers</text>
<text text-anchor="start" x="1551.5" y="-84" font-family="Helvetica,sans-Serif" font-size="10.00">/internal/hf&#45;internal</text>
<text text-anchor="start" x="1551.5" y="-73" font-family="Helvetica,sans-Serif" font-size="10.00">&#45;interface&#45;wrap/inc/utils</text>
<text text-anchor="middle" x="1610" y="-62" font-family="Helvetica,sans-Serif" font-size="10.00">/RtosMutex.h</text>
</a>
</g>
</g>
<!-- Node2&#45;&gt;Node15 -->
<g id="edge14_Node000002_Node000015" class="edge">
<title>Node2&#45;&gt;Node15</title>
<g id="a_edge14_Node000002_Node000015"><a xlink:title=" ">
<path fill="none" stroke="#63b8ff" d="M716.13,-150.62C877.97,-147.71 1357.22,-136.9 1533.21,-106.85"/>
<polygon fill="#63b8ff" stroke="#63b8ff" points="1533.89,-110.28 1543.12,-105.07 1532.66,-103.39 1533.89,-110.28"/>
</a>
</g>
</g>
<!-- Node16&#45;&gt;Node4 -->
<g id="edge18_Node000016_Node000004" class="edge">
<title>Node16&#45;&gt;Node4</title>
<g id="a_edge18_Node000016_Node000004"><a xlink:title=" ">
<path fill="none" stroke="#63b8ff" d="M77.71,-71.46C85.02,-66.02 95.13,-59.23 105,-55 155.38,-33.41 217.89,-21.42 257.62,-15.46"/>
<polygon fill="#63b8ff" stroke="#63b8ff" points="258.3,-18.9 267.7,-14.01 257.3,-11.97 258.3,-18.9"/>
</a>
</g>
</g>
<!-- Node16&#45;&gt;Node6 -->
<g id="edge16_Node000016_Node000006" class="edge">
<title>Node16&#45;&gt;Node6</title>
<g id="a_edge16_Node000016_Node000006"><a xlink:title=" ">
<path fill="none" stroke="#63b8ff" d="M79.49,-71.38C86.81,-66.42 96.31,-60.17 105,-55 123.67,-43.88 145.33,-32.31 161.84,-23.76"/>
<polygon fill="#63b8ff" stroke="#63b8ff" points="163.61,-26.78 170.9,-19.1 160.41,-20.56 163.61,-26.78"/>
</a>
</g>
</g>
<!-- Node17 -->
<g id="Node000017" class="node">
<title>Node17</title>
<g id="a_Node000017"><a xlink:title=" ">
<polygon fill="#e0e0e0" stroke="#999999" points="50,-19 0,-19 0,0 50,0 50,-19"/>
<text text-anchor="middle" x="25" y="-7" font-family="Helvetica,sans-Serif" font-size="10.00">cstring</text>
</a>
</g>
</g>
<!-- Node16&#45;&gt;Node17 -->
<g id="edge17_Node000016_Node000017" class="edge">
<title>Node16&#45;&gt;Node17</title>
<g id="a_edge17_Node000016_Node000017"><a xlink:title=" ">
<path fill="none" stroke="#63b8ff" d="M61.85,-71.48C55.3,-60.64 43.83,-41.66 35.43,-27.75"/>
<polygon fill="#63b8ff" stroke="#63b8ff" points="38.36,-25.84 30.19,-19.09 32.37,-29.46 38.36,-25.84"/>
</a>
</g>
</g>
<!-- Node18 -->
<g id="Node000018" class="node">
<title>Node18</title>
<g id="a_Node000018"><a xlink:title=" ">
<polygon fill="#e0e0e0" stroke="#999999" points="118,-19 68,-19 68,0 118,0 118,-19"/>
<text text-anchor="middle" x="93" y="-7" font-family="Helvetica,sans-Serif" font-size="10.00">atomic</text>
</a>
</g>
</g>
<!-- Node16&#45;&gt;Node18 -->
<g id="edge19_Node000016_Node000018" class="edge">
<title>Node16&#45;&gt;Node18</title>
<g id="a_edge19_Node000016_Node000018"><a xlink:title=" ">
<path fill="none" stroke="#63b8ff" d="M70.19,-71.48C74.16,-60.85 81.07,-42.39 86.24,-28.56"/>
<polygon fill="#63b8ff" stroke="#63b8ff" points="89.56,-29.68 89.79,-19.09 83,-27.23 89.56,-29.68"/>
</a>
</g>
</g>
<!-- Node19&#45;&gt;Node3 -->
<g id="edge22_Node000019_Node000003" class="edge">
<title>Node19&#45;&gt;Node3</title>
<g id="a_edge22_Node000019_Node000003"><a xlink:title=" ">
<path fill="none" stroke="#63b8ff" d="M185.73,-142.98C195.83,-131.83 213.75,-112.06 226.44,-98.06"/>
<polygon fill="#63b8ff" stroke="#63b8ff" points="229.09,-100.35 233.21,-90.59 223.9,-95.65 229.09,-100.35"/>
</a>
</g>
</g>
<!-- Node19&#45;&gt;Node6 -->
<g id="edge21_Node000019_Node000006" class="edge">
<title>Node19&#45;&gt;Node6</title>
<g id="a_edge21_Node000019_Node000006"><a xlink:title=" ">
<path fill="none" stroke="#63b8ff" d="M178.63,-142.68C180.22,-120.23 184.45,-60.5 186.64,-29.61"/>
<polygon fill="#63b8ff" stroke="#63b8ff" points="190.16,-29.54 187.37,-19.32 183.18,-29.04 190.16,-29.54"/>
</a>
</g>
</g>
<!-- Node19&#45;&gt;Node16 -->
<g id="edge24_Node000019_Node000016" class="edge">
<title>Node19&#45;&gt;Node16</title>
<g id="a_edge24_Node000019_Node000016"><a xlink:title=" ">
<path fill="none" stroke="#63b8ff" d="M163.64,-142.95C148.86,-134.09 125.19,-119.79 105,-107 99.62,-103.59 93.85,-99.84 88.48,-96.31"/>
<polygon fill="#63b8ff" stroke="#63b8ff" points="90.21,-93.27 79.94,-90.67 86.36,-99.11 90.21,-93.27"/>
</a>
</g>
</g>
<!-- Node20 -->
<g id="Node000020" class="node">
<title>Node20</title>
<g id="a_Node000020"><a xlink:title=" ">
<polygon fill="#e0e0e0" stroke="#999999" points="160,-90.5 114,-90.5 114,-71.5 160,-71.5 160,-90.5"/>
<text text-anchor="middle" x="137" y="-78.5" font-family="Helvetica,sans-Serif" font-size="10.00">cstdio</text>
</a>
</g>
</g>
<!-- Node19&#45;&gt;Node20 -->
<g id="edge23_Node000019_Node000020" class="edge">
<title>Node19&#45;&gt;Node20</title>
<g id="a_edge23_Node000019_Node000020"><a xlink:title=" ">
<path fill="none" stroke="#63b8ff" d="M172.97,-142.98C166.58,-132.14 155.38,-113.16 147.18,-99.25"/>
<polygon fill="#63b8ff" stroke="#63b8ff" points="150.16,-97.43 142.07,-90.59 144.14,-100.98 150.16,-97.43"/>
</a>
</g>
</g>
</g>
</svg>
