<?xml version="1.0" encoding="UTF-8" standalone="no"?>
<!DOCTYPE svg PUBLIC "-//W3C//DTD SVG 1.1//EN"
 "http://www.w3.org/Graphics/SVG/1.1/DTD/svg11.dtd">
<!-- Generated by graphviz version 2.43.0 (0)
 -->
<!-- Title: Tmc5160Handler.cpp Pages: 1 -->
<svg width="1615pt" height="225pt"
 viewBox="0.00 0.00 1615.00 225.00" xmlns="http://www.w3.org/2000/svg" xmlns:xlink="http://www.w3.org/1999/xlink">
<g id="graph0" class="graph" transform="scale(1 1) rotate(0) translate(4 221)">
<title>Tmc5160Handler.cpp</title>
<!-- Node1 -->
<g id="Node000001" class="node">
<title>Node1</title>
<g id="a_Node000001"><a xlink:title="Implementation of TMC5160 handler with SPI/UART communication adapters.">
<polygon fill="#999999" stroke="#666666" points="237.5,-217 118.5,-217 118.5,-198 237.5,-198 237.5,-217"/>
<text text-anchor="middle" x="178" y="-205" font-family="Helvetica,sans-Serif" font-size="10.00">Tmc5160Handler.cpp</text>
</a>
</g>
</g>
<!-- Node2 -->
<g id="Node000002" class="node">
<title>Node2</title>
<g id="a_Node000002"><a xlink:href="Tmc5160Handler_8h.html" target="_top" xlink:title="Unified handler for TMC5160/TMC5130 stepper motor driver with SPI/UART integration.">
<polygon fill="white" stroke="#666666" points="840,-162 732,-162 732,-143 840,-143 840,-162"/>
<text text-anchor="middle" x="786" y="-150" font-family="Helvetica,sans-Serif" font-size="10.00">Tmc5160Handler.h</text>
</a>
</g>
</g>
<!-- Node1&#45;&gt;Node2 -->
<g id="edge1_Node000001_Node000002" class="edge">
<title>Node1&#45;&gt;Node2</title>
<g id="a_edge1_Node000001_Node000002"><a xlink:title=" ">
<path fill="none" stroke="#63b8ff" d="M237.68,-201.3C352.52,-191.29 603.31,-169.42 721.7,-159.11"/>
<polygon fill="#63b8ff" stroke="#63b8ff" points="722.04,-162.59 731.7,-158.23 721.44,-155.61 722.04,-162.59"/>
</a>
</g>
</g>
<!-- Node15 -->
<g id="Node000015" class="node">
<title>Node15</title>
<g id="a_Node000015"><a xlink:href="Logger_8h.html" target="_top" xlink:title="Advanced logging system with formatting capabilities.">
<polygon fill="white" stroke="#666666" points="96,-90.5 38,-90.5 38,-71.5 96,-71.5 96,-90.5"/>
<text text-anchor="middle" x="67" y="-78.5" font-family="Helvetica,sans-Serif" font-size="10.00">Logger.h</text>
</a>
</g>
</g>
<!-- Node1&#45;&gt;Node15 -->
<g id="edge14_Node000001_Node000015" class="edge">
<title>Node1&#45;&gt;Node15</title>
<g id="a_edge14_Node000001_Node000015"><a xlink:title=" ">
<path fill="none" stroke="#63b8ff" d="M162.38,-197.98C148.72,-189.98 128.94,-177.02 115,-162 97.66,-143.32 83.51,-117.38 75.17,-100.16"/>
<polygon fill="#63b8ff" stroke="#63b8ff" points="78.16,-98.29 70.75,-90.71 71.81,-101.25 78.16,-98.29"/>
</a>
</g>
</g>
<!-- Node18 -->
<g id="Node000018" class="node">
<title>Node18</title>
<g id="a_Node000018"><a xlink:href="HandlerCommon_8h.html" target="_top" xlink:title="Shared utility functions for handler CRTP communication adapters.">
<polygon fill="white" stroke="#666666" points="232,-162 124,-162 124,-143 232,-143 232,-162"/>
<text text-anchor="middle" x="178" y="-150" font-family="Helvetica,sans-Serif" font-size="10.00">HandlerCommon.h</text>
</a>
</g>
</g>
<!-- Node1&#45;&gt;Node18 -->
<g id="edge19_Node000001_Node000018" class="edge">
<title>Node1&#45;&gt;Node18</title>
<g id="a_edge19_Node000001_Node000018"><a xlink:title=" ">
<path fill="none" stroke="#63b8ff" d="M178,-197.75C178,-190.8 178,-180.85 178,-172.13"/>
<polygon fill="#63b8ff" stroke="#63b8ff" points="181.5,-172.09 178,-162.09 174.5,-172.09 181.5,-172.09"/>
</a>
</g>
</g>
<!-- Node3 -->
<g id="Node000003" class="node">
<title>Node3</title>
<g id="a_Node000003"><a xlink:title=" ">
<polygon fill="#e0e0e0" stroke="#999999" points="266,-90.5 216,-90.5 216,-71.5 266,-71.5 266,-90.5"/>
<text text-anchor="middle" x="241" y="-78.5" font-family="Helvetica,sans-Serif" font-size="10.00">cstdint</text>
</a>
</g>
</g>
<!-- Node2&#45;&gt;Node3 -->
<g id="edge2_Node000002_Node000003" class="edge">
<title>Node2&#45;&gt;Node3</title>
<g id="a_edge2_Node000002_Node000003"><a xlink:title=" ">
<path fill="none" stroke="#63b8ff" d="M731.72,-150C618.83,-146.34 362.42,-135.13 280,-107 272.84,-104.56 265.68,-100.53 259.48,-96.42"/>
<polygon fill="#63b8ff" stroke="#63b8ff" points="261.37,-93.47 251.2,-90.51 257.3,-99.17 261.37,-93.47"/>
</a>
</g>
</g>
<!-- Node4 -->
<g id="Node000004" class="node">
<title>Node4</title>
<g id="a_Node000004"><a xlink:title=" ">
<polygon fill="#e0e0e0" stroke="#999999" points="788,-19 730,-19 730,0 788,0 788,-19"/>
<text text-anchor="middle" x="759" y="-7" font-family="Helvetica,sans-Serif" font-size="10.00">memory</text>
</a>
</g>
</g>
<!-- Node2&#45;&gt;Node4 -->
<g id="edge3_Node000002_Node000004" class="edge">
<title>Node2&#45;&gt;Node4</title>
<g id="a_edge3_Node000002_Node000004"><a xlink:title=" ">
<path fill="none" stroke="#63b8ff" d="M840.07,-150.15C954.07,-146.75 1210.78,-135.93 1237,-107 1252.52,-89.87 1252.57,-72.08 1237,-55 1207.66,-22.81 907.52,-13.52 798.39,-11.19"/>
<polygon fill="#63b8ff" stroke="#63b8ff" points="798.21,-7.69 788.14,-10.98 798.07,-14.69 798.21,-7.69"/>
</a>
</g>
</g>
<!-- Node5 -->
<g id="Node000005" class="node">
<title>Node5</title>
<g id="a_Node000005"><a xlink:title=" ">
<polygon fill="#e0e0e0" stroke="#999999" points="542.5,-90.5 473.5,-90.5 473.5,-71.5 542.5,-71.5 542.5,-90.5"/>
<text text-anchor="middle" x="508" y="-78.5" font-family="Helvetica,sans-Serif" font-size="10.00">type_traits</text>
</a>
</g>
</g>
<!-- Node2&#45;&gt;Node5 -->
<g id="edge4_Node000002_Node000005" class="edge">
<title>Node2&#45;&gt;Node5</title>
<g id="a_edge4_Node000002_Node000005"><a xlink:title=" ">
<path fill="none" stroke="#63b8ff" d="M731.68,-146.29C683.37,-140.46 611.38,-128.83 552,-107 544.29,-104.17 536.34,-100.07 529.36,-96"/>
<polygon fill="#63b8ff" stroke="#63b8ff" points="530.9,-92.85 520.55,-90.61 527.25,-98.82 530.9,-92.85"/>
</a>
</g>
</g>
<!-- Node6 -->
<g id="Node000006" class="node">
<title>Node6</title>
<g id="a_Node000006"><a xlink:title=" ">
<polygon fill="#e0e0e0" stroke="#999999" points="214.5,-19 161.5,-19 161.5,0 214.5,0 214.5,-19"/>
<text text-anchor="middle" x="188" y="-7" font-family="Helvetica,sans-Serif" font-size="10.00">cstdarg</text>
</a>
</g>
</g>
<!-- Node2&#45;&gt;Node6 -->
<g id="edge5_Node000002_Node000006" class="edge">
<title>Node2&#45;&gt;Node6</title>
<g id="a_edge5_Node000002_Node000006"><a xlink:title=" ">
<path fill="none" stroke="#63b8ff" d="M731.97,-151.81C623.66,-151.56 384.37,-146.42 314,-107 288.8,-92.88 297.09,-73.61 275,-55 259.06,-41.57 238.37,-30.78 221.17,-23.19"/>
<polygon fill="#63b8ff" stroke="#63b8ff" points="222.09,-19.77 211.51,-19.09 219.35,-26.22 222.09,-19.77"/>
</a>
</g>
</g>
<!-- Node7 -->
<g id="Node000007" class="node">
<title>Node7</title>
<g id="a_Node000007"><a xlink:title=" ">
<polygon fill="#e0e0e0" stroke="#999999" points="693.5,-101.5 560.5,-101.5 560.5,-60.5 693.5,-60.5 693.5,-101.5"/>
<text text-anchor="start" x="568.5" y="-89.5" font-family="Helvetica,sans-Serif" font-size="10.00">core/hf&#45;core&#45;drivers</text>
<text text-anchor="start" x="568.5" y="-78.5" font-family="Helvetica,sans-Serif" font-size="10.00">/external/hf&#45;tmc5160</text>
<text text-anchor="middle" x="627" y="-67.5" font-family="Helvetica,sans-Serif" font-size="10.00">&#45;driver/inc/tmc51x0.hpp</text>
</a>
</g>
</g>
<!-- Node2&#45;&gt;Node7 -->
<g id="edge6_Node000002_Node000007" class="edge">
<title>Node2&#45;&gt;Node7</title>
<g id="a_edge6_Node000002_Node000007"><a xlink:title=" ">
<path fill="none" stroke="#63b8ff" d="M766.5,-142.98C745.33,-133.72 710.57,-118.53 681.05,-105.63"/>
<polygon fill="#63b8ff" stroke="#63b8ff" points="682.24,-102.33 671.67,-101.53 679.43,-108.74 682.24,-102.33"/>
</a>
</g>
</g>
<!-- Node8 -->
<g id="Node000008" class="node">
<title>Node8</title>
<g id="a_Node000008"><a xlink:title=" ">
<polygon fill="#e0e0e0" stroke="#999999" points="860,-107 712,-107 712,-55 860,-55 860,-107"/>
<text text-anchor="start" x="720" y="-95" font-family="Helvetica,sans-Serif" font-size="10.00">core/hf&#45;core&#45;drivers</text>
<text text-anchor="start" x="720" y="-84" font-family="Helvetica,sans-Serif" font-size="10.00">/external/hf&#45;tmc5160</text>
<text text-anchor="start" x="720" y="-73" font-family="Helvetica,sans-Serif" font-size="10.00">&#45;driver/inc/tmc51x0_comm</text>
<text text-anchor="middle" x="786" y="-62" font-family="Helvetica,sans-Serif" font-size="10.00">_interface.hpp</text>
</a>
</g>
</g>
<!-- Node2&#45;&gt;Node8 -->
<g id="edge7_Node000002_Node000008" class="edge">
<title>Node2&#45;&gt;Node8</title>
<g id="a_edge7_Node000002_Node000008"><a xlink:title=" ">
<path fill="none" stroke="#63b8ff" d="M786,-142.98C786,-136.43 786,-126.91 786,-117.33"/>
<polygon fill="#63b8ff" stroke="#63b8ff" points="789.5,-117.05 786,-107.05 782.5,-117.05 789.5,-117.05"/>
</a>
</g>
</g>
<!-- Node9 -->
<g id="Node000009" class="node">
<title>Node9</title>
<g id="a_Node000009"><a xlink:title=" ">
<polygon fill="#e0e0e0" stroke="#999999" points="1043.5,-101.5 878.5,-101.5 878.5,-60.5 1043.5,-60.5 1043.5,-101.5"/>
<text text-anchor="start" x="886.5" y="-89.5" font-family="Helvetica,sans-Serif" font-size="10.00">core/hf&#45;core&#45;drivers</text>
<text text-anchor="start" x="886.5" y="-78.5" font-family="Helvetica,sans-Serif" font-size="10.00">/external/hf&#45;tmc5160</text>
<text text-anchor="middle" x="961" y="-67.5" font-family="Helvetica,sans-Serif" font-size="10.00">&#45;driver/inc/tmc51x0_types.hpp</text>
</a>
</g>
</g>
<!-- Node2&#45;&gt;Node9 -->
<g id="edge8_Node000002_Node000009" class="edge">
<title>Node2&#45;&gt;Node9</title>
<g id="a_edge8_Node000002_Node000009"><a xlink:title=" ">
<path fill="none" stroke="#63b8ff" d="M807.46,-142.98C830.97,-133.64 869.68,-118.27 902.35,-105.29"/>
<polygon fill="#63b8ff" stroke="#63b8ff" points="903.83,-108.47 911.83,-101.53 901.24,-101.97 903.83,-108.47"/>
</a>
</g>
</g>
<!-- Node10 -->
<g id="Node000010" class="node">
<title>Node10</title>
<g id="a_Node000010"><a xlink:title=" ">
<polygon fill="#e0e0e0" stroke="#999999" points="1228,-101.5 1062,-101.5 1062,-60.5 1228,-60.5 1228,-101.5"/>
<text text-anchor="start" x="1070" y="-89.5" font-family="Helvetica,sans-Serif" font-size="10.00">core/hf&#45;core&#45;drivers</text>
<text text-anchor="start" x="1070" y="-78.5" font-family="Helvetica,sans-Serif" font-size="10.00">/external/hf&#45;tmc5160</text>
<text text-anchor="middle" x="1145" y="-67.5" font-family="Helvetica,sans-Serif" font-size="10.00">&#45;driver/inc/tmc51x0_result.hpp</text>
</a>
</g>
</g>
<!-- Node2&#45;&gt;Node10 -->
<g id="edge9_Node000002_Node000010" class="edge">
<title>Node2&#45;&gt;Node10</title>
<g id="a_edge9_Node000002_Node000010"><a xlink:title=" ">
<path fill="none" stroke="#63b8ff" d="M840,-144.12C894.15,-136.34 979.77,-123.01 1053,-107 1057.35,-106.05 1061.8,-105.02 1066.28,-103.95"/>
<polygon fill="#63b8ff" stroke="#63b8ff" points="1067.24,-107.31 1076.11,-101.52 1065.56,-100.52 1067.24,-107.31"/>
</a>
</g>
</g>
<!-- Node11 -->
<g id="Node000011" class="node">
<title>Node11</title>
<g id="a_Node000011"><a xlink:title=" ">
<polygon fill="#e0e0e0" stroke="#999999" points="1375.5,-90.5 1284.5,-90.5 1284.5,-71.5 1375.5,-71.5 1375.5,-90.5"/>
<text text-anchor="middle" x="1330" y="-78.5" font-family="Helvetica,sans-Serif" font-size="10.00">base/BaseSpi.h</text>
</a>
</g>
</g>
<!-- Node2&#45;&gt;Node11 -->
<g id="edge10_Node000002_Node000011" class="edge">
<title>Node2&#45;&gt;Node11</title>
<g id="a_edge10_Node000002_Node000011"><a xlink:title=" ">
<path fill="none" stroke="#63b8ff" d="M840.24,-151.82C930.69,-151.18 1117.46,-144.85 1270,-107 1281.54,-104.14 1293.74,-99.4 1304.1,-94.81"/>
<polygon fill="#63b8ff" stroke="#63b8ff" points="1305.78,-97.89 1313.4,-90.53 1302.85,-91.53 1305.78,-97.89"/>
</a>
</g>
</g>
<!-- Node12 -->
<g id="Node000012" class="node">
<title>Node12</title>
<g id="a_Node000012"><a xlink:title=" ">
<polygon fill="#e0e0e0" stroke="#999999" points="1490.5,-90.5 1393.5,-90.5 1393.5,-71.5 1490.5,-71.5 1490.5,-90.5"/>
<text text-anchor="middle" x="1442" y="-78.5" font-family="Helvetica,sans-Serif" font-size="10.00">base/BaseUart.h</text>
</a>
</g>
</g>
<!-- Node2&#45;&gt;Node12 -->
<g id="edge11_Node000002_Node000012" class="edge">
<title>Node2&#45;&gt;Node12</title>
<g id="a_edge11_Node000002_Node000012"><a xlink:title=" ">
<path fill="none" stroke="#63b8ff" d="M840.12,-149.82C967.38,-145.49 1282.54,-132.48 1385,-107 1395.85,-104.3 1407.25,-99.7 1416.97,-95.17"/>
<polygon fill="#63b8ff" stroke="#63b8ff" points="1418.6,-98.27 1426.06,-90.74 1415.53,-91.98 1418.6,-98.27"/>
</a>
</g>
</g>
<!-- Node13 -->
<g id="Node000013" class="node">
<title>Node13</title>
<g id="a_Node000013"><a xlink:title=" ">
<polygon fill="#e0e0e0" stroke="#999999" points="1607,-90.5 1509,-90.5 1509,-71.5 1607,-71.5 1607,-90.5"/>
<text text-anchor="middle" x="1558" y="-78.5" font-family="Helvetica,sans-Serif" font-size="10.00">base/BaseGpio.h</text>
</a>
</g>
</g>
<!-- Node2&#45;&gt;Node13 -->
<g id="edge12_Node000002_Node000013" class="edge">
<title>Node2&#45;&gt;Node13</title>
<g id="a_edge12_Node000002_Node000013"><a xlink:title=" ">
<path fill="none" stroke="#63b8ff" d="M840.2,-150.53C984.37,-147.56 1374.82,-136.92 1500,-107 1511.2,-104.32 1522.97,-99.64 1532.96,-95.04"/>
<polygon fill="#63b8ff" stroke="#63b8ff" points="1534.78,-98.05 1542.26,-90.55 1531.74,-91.74 1534.78,-98.05"/>
</a>
</g>
</g>
<!-- Node14 -->
<g id="Node000014" class="node">
<title>Node14</title>
<g id="a_Node000014"><a xlink:title=" ">
<polygon fill="#e0e0e0" stroke="#999999" points="455.5,-107 322.5,-107 322.5,-55 455.5,-55 455.5,-107"/>
<text text-anchor="start" x="330.5" y="-95" font-family="Helvetica,sans-Serif" font-size="10.00">core/hf&#45;core&#45;drivers</text>
<text text-anchor="start" x="330.5" y="-84" font-family="Helvetica,sans-Serif" font-size="10.00">/internal/hf&#45;internal</text>
<text text-anchor="start" x="330.5" y="-73" font-family="Helvetica,sans-Serif" font-size="10.00">&#45;interface&#45;wrap/inc/utils</text>
<text text-anchor="middle" x="389" y="-62" font-family="Helvetica,sans-Serif" font-size="10.00">/RtosMutex.h</text>
</a>
</g>
</g>
<!-- Node2&#45;&gt;Node14 -->
<g id="edge13_Node000002_Node000014" class="edge">
<title>Node2&#45;&gt;Node14</title>
<g id="a_edge13_Node000002_Node000014"><a xlink:title=" ">
<path fill="none" stroke="#63b8ff" d="M731.79,-146.99C669.6,-141.14 564.53,-129.24 465.42,-106.9"/>
<polygon fill="#63b8ff" stroke="#63b8ff" points="466.06,-103.46 455.54,-104.64 464.5,-110.29 466.06,-103.46"/>
</a>
</g>
</g>
<!-- Node15&#45;&gt;Node4 -->
<g id="edge17_Node000015_Node000004" class="edge">
<title>Node15&#45;&gt;Node4</title>
<g id="a_edge17_Node000015_Node000004"><a xlink:title=" ">
<path fill="none" stroke="#63b8ff" d="M76.88,-71.43C84.14,-65.68 94.52,-58.53 105,-55 219.88,-16.3 596.48,-11.19 719.64,-10.57"/>
<polygon fill="#63b8ff" stroke="#63b8ff" points="719.76,-14.07 729.75,-10.53 719.73,-7.07 719.76,-14.07"/>
</a>
</g>
</g>
<!-- Node15&#45;&gt;Node6 -->
<g id="edge15_Node000015_Node000006" class="edge">
<title>Node15&#45;&gt;Node6</title>
<g id="a_edge15_Node000015_Node000006"><a xlink:title=" ">
<path fill="none" stroke="#63b8ff" d="M79.49,-71.38C86.81,-66.42 96.31,-60.17 105,-55 123.67,-43.88 145.33,-32.31 161.84,-23.76"/>
<polygon fill="#63b8ff" stroke="#63b8ff" points="163.61,-26.78 170.9,-19.1 160.41,-20.56 163.61,-26.78"/>
</a>
</g>
</g>
<!-- Node16 -->
<g id="Node000016" class="node">
<title>Node16</title>
<g id="a_Node000016"><a xlink:title=" ">
<polygon fill="#e0e0e0" stroke="#999999" points="50,-19 0,-19 0,0 50,0 50,-19"/>
<text text-anchor="middle" x="25" y="-7" font-family="Helvetica,sans-Serif" font-size="10.00">cstring</text>
</a>
</g>
</g>
<!-- Node15&#45;&gt;Node16 -->
<g id="edge16_Node000015_Node000016" class="edge">
<title>Node15&#45;&gt;Node16</title>
<g id="a_edge16_Node000015_Node000016"><a xlink:title=" ">
<path fill="none" stroke="#63b8ff" d="M61.85,-71.48C55.3,-60.64 43.83,-41.66 35.43,-27.75"/>
<polygon fill="#63b8ff" stroke="#63b8ff" points="38.36,-25.84 30.19,-19.09 32.37,-29.46 38.36,-25.84"/>
</a>
</g>
</g>
<!-- Node17 -->
<g id="Node000017" class="node">
<title>Node17</title>
<g id="a_Node000017"><a xlink:title=" ">
<polygon fill="#e0e0e0" stroke="#999999" points="118,-19 68,-19 68,0 118,0 118,-19"/>
<text text-anchor="middle" x="93" y="-7" font-family="Helvetica,sans-Serif" font-size="10.00">atomic</text>
</a>
</g>
</g>
<!-- Node15&#45;&gt;Node17 -->
<g id="edge18_Node000015_Node000017" class="edge">
<title>Node15&#45;&gt;Node17</title>
<g id="a_edge18_Node000015_Node000017"><a xlink:title=" ">
<path fill="none" stroke="#63b8ff" d="M70.19,-71.48C74.16,-60.85 81.07,-42.39 86.24,-28.56"/>
<polygon fill="#63b8ff" stroke="#63b8ff" points="89.56,-29.68 89.79,-19.09 83,-27.23 89.56,-29.68"/>
</a>
</g>
</g>
<!-- Node18&#45;&gt;Node3 -->
<g id="edge21_Node000018_Node000003" class="edge">
<title>Node18&#45;&gt;Node3</title>
<g id="a_edge21_Node000018_Node000003"><a xlink:title=" ">
<path fill="none" stroke="#63b8ff" d="M185.73,-142.98C195.83,-131.83 213.75,-112.06 226.44,-98.06"/>
<polygon fill="#63b8ff" stroke="#63b8ff" points="229.09,-100.35 233.21,-90.59 223.9,-95.65 229.09,-100.35"/>
</a>
</g>
</g>
<!-- Node18&#45;&gt;Node6 -->
<g id="edge20_Node000018_Node000006" class="edge">
<title>Node18&#45;&gt;Node6</title>
<g id="a_edge20_Node000018_Node000006"><a xlink:title=" ">
<path fill="none" stroke="#63b8ff" d="M178.63,-142.68C180.22,-120.23 184.45,-60.5 186.64,-29.61"/>
<polygon fill="#63b8ff" stroke="#63b8ff" points="190.16,-29.54 187.37,-19.32 183.18,-29.04 190.16,-29.54"/>
</a>
</g>
</g>
<!-- Node18&#45;&gt;Node15 -->
<g id="edge23_Node000018_Node000015" class="edge">
<title>Node18&#45;&gt;Node15</title>
<g id="a_edge23_Node000018_Node000015"><a xlink:title=" ">
<path fill="none" stroke="#63b8ff" d="M163.64,-142.95C148.86,-134.09 125.19,-119.79 105,-107 99.62,-103.59 93.85,-99.84 88.48,-96.31"/>
<polygon fill="#63b8ff" stroke="#63b8ff" points="90.21,-93.27 79.94,-90.67 86.36,-99.11 90.21,-93.27"/>
</a>
</g>
</g>
<!-- Node19 -->
<g id="Node000019" class="node">
<title>Node19</title>
<g id="a_Node000019"><a xlink:title=" ">
<polygon fill="#e0e0e0" stroke="#999999" points="160,-90.5 114,-90.5 114,-71.5 160,-71.5 160,-90.5"/>
<text text-anchor="middle" x="137" y="-78.5" font-family="Helvetica,sans-Serif" font-size="10.00">cstdio</text>
</a>
</g>
</g>
<!-- Node18&#45;&gt;Node19 -->
<g id="edge22_Node000018_Node000019" class="edge">
<title>Node18&#45;&gt;Node19</title>
<g id="a_edge22_Node000018_Node000019"><a xlink:title=" ">
<path fill="none" stroke="#63b8ff" d="M172.97,-142.98C166.58,-132.14 155.38,-113.16 147.18,-99.25"/>
<polygon fill="#63b8ff" stroke="#63b8ff" points="150.16,-97.43 142.07,-90.59 144.14,-100.98 150.16,-97.43"/>
</a>
</g>
</g>
</g>
</svg>
