<?xml version="1.0" encoding="UTF-8" standalone="no"?>
<!DOCTYPE svg PUBLIC "-//W3C//DTD SVG 1.1//EN"
 "http://www.w3.org/Graphics/SVG/1.1/DTD/svg11.dtd">
<!-- Generated by graphviz version 2.43.0 (0)
 -->
<!-- Title: Tmc9660Handler.cpp Pages: 1 -->
<svg width="2041pt" height="247pt"
 viewBox="0.00 0.00 2041.00 247.00" xmlns="http://www.w3.org/2000/svg" xmlns:xlink="http://www.w3.org/1999/xlink">
<g id="graph0" class="graph" transform="scale(1 1) rotate(0) translate(4 243)">
<title>Tmc9660Handler.cpp</title>
<!-- Node1 -->
<g id="Node000001" class="node">
<title>Node1</title>
<g id="a_Node000001"><a xlink:title=" ">
<polygon fill="#999999" stroke="#666666" points="1705.5,-239 1586.5,-239 1586.5,-220 1705.5,-220 1705.5,-239"/>
<text text-anchor="middle" x="1646" y="-227" font-family="Helvetica,sans-Serif" font-size="10.00">Tmc9660Handler.cpp</text>
</a>
</g>
</g>
<!-- Node2 -->
<g id="Node000002" class="node">
<title>Node2</title>
<g id="a_Node000002"><a xlink:href="Tmc9660Handler_8h.html" target="_top" xlink:title="Unified handler for TMC9660 motor controller with GPIO, ADC, and temperature integration.">
<polygon fill="white" stroke="#666666" points="856,-173 748,-173 748,-154 856,-154 856,-173"/>
<text text-anchor="middle" x="802" y="-161" font-family="Helvetica,sans-Serif" font-size="10.00">Tmc9660Handler.h</text>
</a>
</g>
</g>
<!-- Node1&#45;&gt;Node2 -->
<g id="edge1_Node000001_Node000002" class="edge">
<title>Node1&#45;&gt;Node2</title>
<g id="a_edge1_Node000001_Node000002"><a xlink:title=" ">
<path fill="none" stroke="#63b8ff" d="M1586.32,-223.97C1432.74,-212.33 1024.9,-181.4 866.33,-169.38"/>
<polygon fill="#63b8ff" stroke="#63b8ff" points="866.49,-165.88 856.25,-168.61 865.96,-172.86 866.49,-165.88"/>
</a>
</g>
</g>
<!-- Node18 -->
<g id="Node000018" class="node">
<title>Node18</title>
<g id="a_Node000018"><a xlink:title=" ">
<polygon fill="#e0e0e0" stroke="#999999" points="1697,-19 1647,-19 1647,0 1697,0 1697,-19"/>
<text text-anchor="middle" x="1672" y="-7" font-family="Helvetica,sans-Serif" font-size="10.00">cstring</text>
</a>
</g>
</g>
<!-- Node1&#45;&gt;Node18 -->
<g id="edge17_Node000001_Node000018" class="edge">
<title>Node1&#45;&gt;Node18</title>
<g id="a_edge17_Node000001_Node000018"><a xlink:title=" ">
<path fill="none" stroke="#63b8ff" d="M1675.5,-219.97C1692.94,-213.24 1713.59,-201.93 1724,-184 1754.47,-131.53 1709.47,-59.59 1685.45,-27.34"/>
<polygon fill="#63b8ff" stroke="#63b8ff" points="1687.92,-24.8 1679.05,-19.01 1682.37,-29.07 1687.92,-24.8"/>
</a>
</g>
</g>
<!-- Node19 -->
<g id="Node000019" class="node">
<title>Node19</title>
<g id="a_Node000019"><a xlink:title=" ">
<polygon fill="#e0e0e0" stroke="#999999" points="1606,-90.5 1560,-90.5 1560,-71.5 1606,-71.5 1606,-90.5"/>
<text text-anchor="middle" x="1583" y="-78.5" font-family="Helvetica,sans-Serif" font-size="10.00">cstdio</text>
</a>
</g>
</g>
<!-- Node1&#45;&gt;Node19 -->
<g id="edge18_Node000001_Node000019" class="edge">
<title>Node1&#45;&gt;Node19</title>
<g id="a_edge18_Node000001_Node000019"><a xlink:title=" ">
<path fill="none" stroke="#63b8ff" d="M1621.19,-219.95C1605.16,-212.99 1585.57,-201.42 1576,-184 1561.53,-157.65 1569.27,-121.51 1576.17,-100.08"/>
<polygon fill="#63b8ff" stroke="#63b8ff" points="1579.49,-101.19 1579.48,-90.59 1572.88,-98.88 1579.49,-101.19"/>
</a>
</g>
</g>
<!-- Node20 -->
<g id="Node000020" class="node">
<title>Node20</title>
<g id="a_Node000020"><a xlink:title=" ">
<polygon fill="#e0e0e0" stroke="#999999" points="1632.5,-173 1585.5,-173 1585.5,-154 1632.5,-154 1632.5,-173"/>
<text text-anchor="middle" x="1609" y="-161" font-family="Helvetica,sans-Serif" font-size="10.00">cmath</text>
</a>
</g>
</g>
<!-- Node1&#45;&gt;Node20 -->
<g id="edge19_Node000001_Node000020" class="edge">
<title>Node1&#45;&gt;Node20</title>
<g id="a_edge19_Node000001_Node000020"><a xlink:title=" ">
<path fill="none" stroke="#63b8ff" d="M1641.01,-219.87C1635.47,-210.28 1626.37,-194.55 1619.29,-182.3"/>
<polygon fill="#63b8ff" stroke="#63b8ff" points="1622.18,-180.31 1614.15,-173.41 1616.12,-183.81 1622.18,-180.31"/>
</a>
</g>
</g>
<!-- Node21 -->
<g id="Node000021" class="node">
<title>Node21</title>
<g id="a_Node000021"><a xlink:title=" ">
<polygon fill="#e0e0e0" stroke="#999999" points="1715,-173 1651,-173 1651,-154 1715,-154 1715,-173"/>
<text text-anchor="middle" x="1683" y="-161" font-family="Helvetica,sans-Serif" font-size="10.00">algorithm</text>
</a>
</g>
</g>
<!-- Node1&#45;&gt;Node21 -->
<g id="edge20_Node000001_Node000021" class="edge">
<title>Node1&#45;&gt;Node21</title>
<g id="a_edge20_Node000001_Node000021"><a xlink:title=" ">
<path fill="none" stroke="#63b8ff" d="M1650.99,-219.87C1656.53,-210.28 1665.63,-194.55 1672.71,-182.3"/>
<polygon fill="#63b8ff" stroke="#63b8ff" points="1675.88,-183.81 1677.85,-173.41 1669.82,-180.31 1675.88,-183.81"/>
</a>
</g>
</g>
<!-- Node22 -->
<g id="Node000022" class="node">
<title>Node22</title>
<g id="a_Node000022"><a xlink:href="HandlerCommon_8h.html" target="_top" xlink:title="Shared utility functions for handler CRTP communication adapters.">
<polygon fill="white" stroke="#666666" points="1529,-173 1421,-173 1421,-154 1529,-154 1529,-173"/>
<text text-anchor="middle" x="1475" y="-161" font-family="Helvetica,sans-Serif" font-size="10.00">HandlerCommon.h</text>
</a>
</g>
</g>
<!-- Node1&#45;&gt;Node22 -->
<g id="edge21_Node000001_Node000022" class="edge">
<title>Node1&#45;&gt;Node22</title>
<g id="a_edge21_Node000001_Node000022"><a xlink:title=" ">
<path fill="none" stroke="#63b8ff" d="M1622.94,-219.87C1593.15,-208.72 1541.13,-189.25 1507.39,-176.62"/>
<polygon fill="#63b8ff" stroke="#63b8ff" points="1508.56,-173.32 1497.97,-173.1 1506.11,-179.88 1508.56,-173.32"/>
</a>
</g>
</g>
<!-- Node25 -->
<g id="Node000025" class="node">
<title>Node25</title>
<g id="a_Node000025"><a xlink:title=" ">
<polygon fill="#e0e0e0" stroke="#999999" points="1906.5,-184 1771.5,-184 1771.5,-143 1906.5,-143 1906.5,-184"/>
<text text-anchor="start" x="1779.5" y="-172" font-family="Helvetica,sans-Serif" font-size="10.00">core/hf&#45;core&#45;utils</text>
<text text-anchor="start" x="1779.5" y="-161" font-family="Helvetica,sans-Serif" font-size="10.00">/hf&#45;utils&#45;rtos&#45;wrap</text>
<text text-anchor="middle" x="1839" y="-150" font-family="Helvetica,sans-Serif" font-size="10.00">/include/OsAbstraction.h</text>
</a>
</g>
</g>
<!-- Node1&#45;&gt;Node25 -->
<g id="edge30_Node000001_Node000025" class="edge">
<title>Node1&#45;&gt;Node25</title>
<g id="a_edge30_Node000001_Node000025"><a xlink:title=" ">
<path fill="none" stroke="#63b8ff" d="M1672.03,-219.87C1697.13,-211.55 1736.21,-198.59 1770.25,-187.3"/>
<polygon fill="#63b8ff" stroke="#63b8ff" points="1771.78,-190.48 1780.17,-184.01 1769.57,-183.83 1771.78,-190.48"/>
</a>
</g>
</g>
<!-- Node26 -->
<g id="Node000026" class="node">
<title>Node26</title>
<g id="a_Node000026"><a xlink:title=" ">
<polygon fill="#e0e0e0" stroke="#999999" points="2033,-184 1925,-184 1925,-143 2033,-143 2033,-184"/>
<text text-anchor="start" x="1933" y="-172" font-family="Helvetica,sans-Serif" font-size="10.00">core/hf&#45;core&#45;utils</text>
<text text-anchor="start" x="1933" y="-161" font-family="Helvetica,sans-Serif" font-size="10.00">/hf&#45;utils&#45;rtos&#45;wrap</text>
<text text-anchor="middle" x="1979" y="-150" font-family="Helvetica,sans-Serif" font-size="10.00">/include/OsUtility.h</text>
</a>
</g>
</g>
<!-- Node1&#45;&gt;Node26 -->
<g id="edge31_Node000001_Node000026" class="edge">
<title>Node1&#45;&gt;Node26</title>
<g id="a_edge31_Node000001_Node000026"><a xlink:title=" ">
<path fill="none" stroke="#63b8ff" d="M1705.72,-221.05C1758.48,-213.92 1837.63,-201.92 1914.93,-184.1"/>
<polygon fill="#63b8ff" stroke="#63b8ff" points="1915.89,-187.47 1924.83,-181.78 1914.3,-180.65 1915.89,-187.47"/>
</a>
</g>
</g>
<!-- Node3 -->
<g id="Node000003" class="node">
<title>Node3</title>
<g id="a_Node000003"><a xlink:title=" ">
<polygon fill="#e0e0e0" stroke="#999999" points="1428,-90.5 1378,-90.5 1378,-71.5 1428,-71.5 1428,-90.5"/>
<text text-anchor="middle" x="1403" y="-78.5" font-family="Helvetica,sans-Serif" font-size="10.00">cstdint</text>
</a>
</g>
</g>
<!-- Node2&#45;&gt;Node3 -->
<g id="edge2_Node000002_Node000003" class="edge">
<title>Node2&#45;&gt;Node3</title>
<g id="a_edge2_Node000002_Node000003"><a xlink:title=" ">
<path fill="none" stroke="#63b8ff" d="M856.24,-160.37C978.28,-155.06 1271.03,-139.28 1364,-107 1371.04,-104.55 1378.1,-100.6 1384.24,-96.55"/>
<polygon fill="#63b8ff" stroke="#63b8ff" points="1386.33,-99.36 1392.46,-90.72 1382.28,-93.65 1386.33,-99.36"/>
</a>
</g>
</g>
<!-- Node4 -->
<g id="Node000004" class="node">
<title>Node4</title>
<g id="a_Node000004"><a xlink:title=" ">
<polygon fill="#e0e0e0" stroke="#999999" points="1418,-19 1360,-19 1360,0 1418,0 1418,-19"/>
<text text-anchor="middle" x="1389" y="-7" font-family="Helvetica,sans-Serif" font-size="10.00">memory</text>
</a>
</g>
</g>
<!-- Node2&#45;&gt;Node4 -->
<g id="edge3_Node000002_Node000004" class="edge">
<title>Node2&#45;&gt;Node4</title>
<g id="a_edge3_Node000002_Node000004"><a xlink:title=" ">
<path fill="none" stroke="#63b8ff" d="M856.45,-162.76C975.03,-162.38 1252.27,-156.1 1330,-107 1344.96,-97.55 1368.09,-53.6 1380.47,-28.4"/>
<polygon fill="#63b8ff" stroke="#63b8ff" points="1383.73,-29.71 1384.93,-19.18 1377.43,-26.66 1383.73,-29.71"/>
</a>
</g>
</g>
<!-- Node5 -->
<g id="Node000005" class="node">
<title>Node5</title>
<g id="a_Node000005"><a xlink:title=" ">
<polygon fill="#e0e0e0" stroke="#999999" points="42,-90.5 0,-90.5 0,-71.5 42,-71.5 42,-90.5"/>
<text text-anchor="middle" x="21" y="-78.5" font-family="Helvetica,sans-Serif" font-size="10.00">array</text>
</a>
</g>
</g>
<!-- Node2&#45;&gt;Node5 -->
<g id="edge4_Node000002_Node000005" class="edge">
<title>Node2&#45;&gt;Node5</title>
<g id="a_edge4_Node000002_Node000005"><a xlink:title=" ">
<path fill="none" stroke="#63b8ff" d="M747.9,-162.24C598.59,-160.92 183.39,-153.1 56,-107 49.7,-104.72 43.52,-100.97 38.15,-97.06"/>
<polygon fill="#63b8ff" stroke="#63b8ff" points="39.99,-94.05 29.99,-90.56 35.63,-99.53 39.99,-94.05"/>
</a>
</g>
</g>
<!-- Node6 -->
<g id="Node000006" class="node">
<title>Node6</title>
<g id="a_Node000006"><a xlink:title=" ">
<polygon fill="#e0e0e0" stroke="#999999" points="738,-19 688,-19 688,0 738,0 738,-19"/>
<text text-anchor="middle" x="713" y="-7" font-family="Helvetica,sans-Serif" font-size="10.00">atomic</text>
</a>
</g>
</g>
<!-- Node2&#45;&gt;Node6 -->
<g id="edge5_Node000002_Node000006" class="edge">
<title>Node2&#45;&gt;Node6</title>
<g id="a_edge5_Node000002_Node000006"><a xlink:title=" ">
<path fill="none" stroke="#63b8ff" d="M747.78,-162.41C589,-161.6 133.48,-155.07 89,-107 73.3,-90.04 73.25,-71.91 89,-55 129.23,-11.8 551.19,-9.88 677.49,-10.28"/>
<polygon fill="#63b8ff" stroke="#63b8ff" points="677.74,-13.78 687.76,-10.32 677.77,-6.78 677.74,-13.78"/>
</a>
</g>
</g>
<!-- Node7 -->
<g id="Node000007" class="node">
<title>Node7</title>
<g id="a_Node000007"><a xlink:title=" ">
<polygon fill="#e0e0e0" stroke="#999999" points="167.5,-90.5 98.5,-90.5 98.5,-71.5 167.5,-71.5 167.5,-90.5"/>
<text text-anchor="middle" x="133" y="-78.5" font-family="Helvetica,sans-Serif" font-size="10.00">type_traits</text>
</a>
</g>
</g>
<!-- Node2&#45;&gt;Node7 -->
<g id="edge6_Node000002_Node000007" class="edge">
<title>Node2&#45;&gt;Node7</title>
<g id="a_edge6_Node000002_Node000007"><a xlink:title=" ">
<path fill="none" stroke="#63b8ff" d="M747.65,-160.71C615.79,-155.89 281.94,-140.65 176,-107 168.19,-104.52 160.26,-100.44 153.38,-96.3"/>
<polygon fill="#63b8ff" stroke="#63b8ff" points="155.05,-93.21 144.75,-90.74 151.26,-99.09 155.05,-93.21"/>
</a>
</g>
</g>
<!-- Node8 -->
<g id="Node000008" class="node">
<title>Node8</title>
<g id="a_Node000008"><a xlink:title=" ">
<polygon fill="#e0e0e0" stroke="#999999" points="236.5,-90.5 185.5,-90.5 185.5,-71.5 236.5,-71.5 236.5,-90.5"/>
<text text-anchor="middle" x="211" y="-78.5" font-family="Helvetica,sans-Serif" font-size="10.00">variant</text>
</a>
</g>
</g>
<!-- Node2&#45;&gt;Node8 -->
<g id="edge7_Node000002_Node000008" class="edge">
<title>Node2&#45;&gt;Node8</title>
<g id="a_edge7_Node000002_Node000008"><a xlink:title=" ">
<path fill="none" stroke="#63b8ff" d="M747.64,-160.73C626.1,-156.19 335.95,-141.93 245,-107 238.95,-104.68 233.03,-100.98 227.86,-97.13"/>
<polygon fill="#63b8ff" stroke="#63b8ff" points="229.96,-94.33 220,-90.73 225.54,-99.75 229.96,-94.33"/>
</a>
</g>
</g>
<!-- Node9 -->
<g id="Node000009" class="node">
<title>Node9</title>
<g id="a_Node000009"><a xlink:title=" ">
<polygon fill="#e0e0e0" stroke="#999999" points="387.5,-101.5 254.5,-101.5 254.5,-60.5 387.5,-60.5 387.5,-101.5"/>
<text text-anchor="start" x="262.5" y="-89.5" font-family="Helvetica,sans-Serif" font-size="10.00">core/hf&#45;core&#45;drivers</text>
<text text-anchor="start" x="262.5" y="-78.5" font-family="Helvetica,sans-Serif" font-size="10.00">/external/hf&#45;tmc9660</text>
<text text-anchor="middle" x="321" y="-67.5" font-family="Helvetica,sans-Serif" font-size="10.00">&#45;driver/inc/tmc9660.hpp</text>
</a>
</g>
</g>
<!-- Node2&#45;&gt;Node9 -->
<g id="edge8_Node000002_Node000009" class="edge">
<title>Node2&#45;&gt;Node9</title>
<g id="a_edge8_Node000002_Node000009"><a xlink:title=" ">
<path fill="none" stroke="#63b8ff" d="M747.72,-158.22C669.47,-151.33 520.78,-135.59 397,-107 393.58,-106.21 390.1,-105.33 386.59,-104.39"/>
<polygon fill="#63b8ff" stroke="#63b8ff" points="387.28,-100.95 376.71,-101.6 385.38,-107.69 387.28,-100.95"/>
</a>
</g>
</g>
<!-- Node10 -->
<g id="Node000010" class="node">
<title>Node10</title>
<g id="a_Node000010"><a xlink:title=" ">
<polygon fill="#e0e0e0" stroke="#999999" points="554,-107 406,-107 406,-55 554,-55 554,-107"/>
<text text-anchor="start" x="414" y="-95" font-family="Helvetica,sans-Serif" font-size="10.00">core/hf&#45;core&#45;drivers</text>
<text text-anchor="start" x="414" y="-84" font-family="Helvetica,sans-Serif" font-size="10.00">/external/hf&#45;tmc9660</text>
<text text-anchor="start" x="414" y="-73" font-family="Helvetica,sans-Serif" font-size="10.00">&#45;driver/inc/tmc9660_comm</text>
<text text-anchor="middle" x="480" y="-62" font-family="Helvetica,sans-Serif" font-size="10.00">_interface.hpp</text>
</a>
</g>
</g>
<!-- Node2&#45;&gt;Node10 -->
<g id="edge9_Node000002_Node000010" class="edge">
<title>Node2&#45;&gt;Node10</title>
<g id="a_edge9_Node000002_Node000010"><a xlink:title=" ">
<path fill="none" stroke="#63b8ff" d="M761.63,-153.96C716,-144.12 639.31,-127.03 564.24,-107.27"/>
<polygon fill="#63b8ff" stroke="#63b8ff" points="564.71,-103.77 554.14,-104.59 562.91,-110.54 564.71,-103.77"/>
</a>
</g>
</g>
<!-- Node11 -->
<g id="Node000011" class="node">
<title>Node11</title>
<g id="a_Node000011"><a xlink:title=" ">
<polygon fill="#e0e0e0" stroke="#999999" points="670,-90.5 572,-90.5 572,-71.5 670,-71.5 670,-90.5"/>
<text text-anchor="middle" x="621" y="-78.5" font-family="Helvetica,sans-Serif" font-size="10.00">base/BaseGpio.h</text>
</a>
</g>
</g>
<!-- Node2&#45;&gt;Node11 -->
<g id="edge10_Node000002_Node000011" class="edge">
<title>Node2&#45;&gt;Node11</title>
<g id="a_edge10_Node000002_Node000011"><a xlink:title=" ">
<path fill="none" stroke="#63b8ff" d="M782.63,-153.89C750.65,-139.66 686.66,-111.2 649.51,-94.68"/>
<polygon fill="#63b8ff" stroke="#63b8ff" points="650.79,-91.42 640.23,-90.55 647.95,-97.81 650.79,-91.42"/>
</a>
</g>
</g>
<!-- Node12 -->
<g id="Node000012" class="node">
<title>Node12</title>
<g id="a_Node000012"><a xlink:title=" ">
<polygon fill="#e0e0e0" stroke="#999999" points="782,-90.5 688,-90.5 688,-71.5 782,-71.5 782,-90.5"/>
<text text-anchor="middle" x="735" y="-78.5" font-family="Helvetica,sans-Serif" font-size="10.00">base/BaseAdc.h</text>
</a>
</g>
</g>
<!-- Node2&#45;&gt;Node12 -->
<g id="edge11_Node000002_Node000012" class="edge">
<title>Node2&#45;&gt;Node12</title>
<g id="a_edge11_Node000002_Node000012"><a xlink:title=" ">
<path fill="none" stroke="#63b8ff" d="M794.83,-153.89C783.91,-140.76 762.89,-115.51 748.9,-98.71"/>
<polygon fill="#63b8ff" stroke="#63b8ff" points="751.41,-96.24 742.32,-90.8 746.03,-100.72 751.41,-96.24"/>
</a>
</g>
</g>
<!-- Node13 -->
<g id="Node000013" class="node">
<title>Node13</title>
<g id="a_Node000013"><a xlink:title=" ">
<polygon fill="#e0e0e0" stroke="#999999" points="937.5,-90.5 800.5,-90.5 800.5,-71.5 937.5,-71.5 937.5,-90.5"/>
<text text-anchor="middle" x="869" y="-78.5" font-family="Helvetica,sans-Serif" font-size="10.00">base/BaseTemperature.h</text>
</a>
</g>
</g>
<!-- Node2&#45;&gt;Node13 -->
<g id="edge12_Node000002_Node000013" class="edge">
<title>Node2&#45;&gt;Node13</title>
<g id="a_edge12_Node000002_Node000013"><a xlink:title=" ">
<path fill="none" stroke="#63b8ff" d="M809.17,-153.89C820.09,-140.76 841.11,-115.51 855.1,-98.71"/>
<polygon fill="#63b8ff" stroke="#63b8ff" points="857.97,-100.72 861.68,-90.8 852.59,-96.24 857.97,-100.72"/>
</a>
</g>
</g>
<!-- Node14 -->
<g id="Node000014" class="node">
<title>Node14</title>
<g id="a_Node000014"><a xlink:title=" ">
<polygon fill="#e0e0e0" stroke="#999999" points="1046.5,-90.5 955.5,-90.5 955.5,-71.5 1046.5,-71.5 1046.5,-90.5"/>
<text text-anchor="middle" x="1001" y="-78.5" font-family="Helvetica,sans-Serif" font-size="10.00">base/BaseSpi.h</text>
</a>
</g>
</g>
<!-- Node2&#45;&gt;Node14 -->
<g id="edge13_Node000002_Node000014" class="edge">
<title>Node2&#45;&gt;Node14</title>
<g id="a_edge13_Node000002_Node000014"><a xlink:title=" ">
<path fill="none" stroke="#63b8ff" d="M825.36,-153.98C853.99,-143.42 903.88,-124.67 946,-107 954.99,-103.23 964.71,-98.89 973.44,-94.91"/>
<polygon fill="#63b8ff" stroke="#63b8ff" points="975.17,-97.97 982.79,-90.6 972.24,-91.61 975.17,-97.97"/>
</a>
</g>
</g>
<!-- Node15 -->
<g id="Node000015" class="node">
<title>Node15</title>
<g id="a_Node000015"><a xlink:title=" ">
<polygon fill="#e0e0e0" stroke="#999999" points="1161.5,-90.5 1064.5,-90.5 1064.5,-71.5 1161.5,-71.5 1161.5,-90.5"/>
<text text-anchor="middle" x="1113" y="-78.5" font-family="Helvetica,sans-Serif" font-size="10.00">base/BaseUart.h</text>
</a>
</g>
</g>
<!-- Node2&#45;&gt;Node15 -->
<g id="edge14_Node000002_Node000015" class="edge">
<title>Node2&#45;&gt;Node15</title>
<g id="a_edge14_Node000002_Node000015"><a xlink:title=" ">
<path fill="none" stroke="#63b8ff" d="M854.62,-153.99C906.34,-144.91 987.15,-128.84 1055,-107 1065.49,-103.62 1076.68,-99.04 1086.41,-94.73"/>
<polygon fill="#63b8ff" stroke="#63b8ff" points="1087.92,-97.89 1095.57,-90.55 1085.02,-91.52 1087.92,-97.89"/>
</a>
</g>
</g>
<!-- Node16 -->
<g id="Node000016" class="node">
<title>Node16</title>
<g id="a_Node000016"><a xlink:title=" ">
<polygon fill="#e0e0e0" stroke="#999999" points="1258,-90.5 1180,-90.5 1180,-71.5 1258,-71.5 1258,-90.5"/>
<text text-anchor="middle" x="1219" y="-78.5" font-family="Helvetica,sans-Serif" font-size="10.00">RtosMutex.h</text>
</a>
</g>
</g>
<!-- Node2&#45;&gt;Node16 -->
<g id="edge15_Node000002_Node000016" class="edge">
<title>Node2&#45;&gt;Node16</title>
<g id="a_edge15_Node000002_Node000016"><a xlink:title=" ">
<path fill="none" stroke="#63b8ff" d="M856.25,-159.77C929.15,-154.89 1062.04,-141.67 1170,-107 1178.89,-104.15 1188.13,-99.83 1196.17,-95.58"/>
<polygon fill="#63b8ff" stroke="#63b8ff" points="1197.89,-98.62 1204.95,-90.71 1194.5,-92.5 1197.89,-98.62"/>
</a>
</g>
</g>
<!-- Node17 -->
<g id="Node000017" class="node">
<title>Node17</title>
<g id="a_Node000017"><a xlink:title=" ">
<polygon fill="#e0e0e0" stroke="#999999" points="1321.5,-90.5 1276.5,-90.5 1276.5,-71.5 1321.5,-71.5 1321.5,-90.5"/>
<text text-anchor="middle" x="1299" y="-78.5" font-family="Helvetica,sans-Serif" font-size="10.00">utility</text>
</a>
</g>
</g>
<!-- Node2&#45;&gt;Node17 -->
<g id="edge16_Node000002_Node000017" class="edge">
<title>Node2&#45;&gt;Node17</title>
<g id="a_edge16_Node000002_Node000017"><a xlink:title=" ">
<path fill="none" stroke="#63b8ff" d="M856.14,-159.69C962.27,-153.6 1193.71,-137.21 1267,-107 1272.62,-104.68 1278.09,-101.09 1282.86,-97.34"/>
<polygon fill="#63b8ff" stroke="#63b8ff" points="1285.31,-99.85 1290.6,-90.67 1280.74,-94.55 1285.31,-99.85"/>
</a>
</g>
</g>
<!-- Node22&#45;&gt;Node3 -->
<g id="edge23_Node000022_Node000003" class="edge">
<title>Node22&#45;&gt;Node3</title>
<g id="a_edge23_Node000022_Node000003"><a xlink:title=" ">
<path fill="none" stroke="#63b8ff" d="M1467.29,-153.89C1455.56,-140.76 1432.97,-115.51 1417.94,-98.71"/>
<polygon fill="#63b8ff" stroke="#63b8ff" points="1420.14,-95.92 1410.87,-90.8 1414.93,-100.58 1420.14,-95.92"/>
</a>
</g>
</g>
<!-- Node22&#45;&gt;Node19 -->
<g id="edge24_Node000022_Node000019" class="edge">
<title>Node22&#45;&gt;Node19</title>
<g id="a_edge24_Node000022_Node000019"><a xlink:title=" ">
<path fill="none" stroke="#63b8ff" d="M1486.56,-153.89C1504.91,-140.21 1540.93,-113.36 1563.38,-96.63"/>
<polygon fill="#63b8ff" stroke="#63b8ff" points="1565.6,-99.34 1571.53,-90.55 1561.42,-93.72 1565.6,-99.34"/>
</a>
</g>
</g>
<!-- Node23 -->
<g id="Node000023" class="node">
<title>Node23</title>
<g id="a_Node000023"><a xlink:title=" ">
<polygon fill="#e0e0e0" stroke="#999999" points="1529.5,-19 1476.5,-19 1476.5,0 1529.5,0 1529.5,-19"/>
<text text-anchor="middle" x="1503" y="-7" font-family="Helvetica,sans-Serif" font-size="10.00">cstdarg</text>
</a>
</g>
</g>
<!-- Node22&#45;&gt;Node23 -->
<g id="edge22_Node000022_Node000023" class="edge">
<title>Node22&#45;&gt;Node23</title>
<g id="a_edge22_Node000022_Node000023"><a xlink:title=" ">
<path fill="none" stroke="#63b8ff" d="M1483.33,-153.98C1492.65,-143.79 1507.2,-125.74 1513,-107 1521.15,-80.66 1514.79,-48.55 1509.14,-28.82"/>
<polygon fill="#63b8ff" stroke="#63b8ff" points="1512.48,-27.76 1506.18,-19.25 1505.79,-29.83 1512.48,-27.76"/>
</a>
</g>
</g>
<!-- Node24 -->
<g id="Node000024" class="node">
<title>Node24</title>
<g id="a_Node000024"><a xlink:href="Logger_8h.html" target="_top" xlink:title="Advanced logging system with formatting capabilities.">
<polygon fill="white" stroke="#666666" points="1504,-90.5 1446,-90.5 1446,-71.5 1504,-71.5 1504,-90.5"/>
<text text-anchor="middle" x="1475" y="-78.5" font-family="Helvetica,sans-Serif" font-size="10.00">Logger.h</text>
</a>
</g>
</g>
<!-- Node22&#45;&gt;Node24 -->
<g id="edge25_Node000022_Node000024" class="edge">
<title>Node22&#45;&gt;Node24</title>
<g id="a_edge25_Node000022_Node000024"><a xlink:title=" ">
<path fill="none" stroke="#63b8ff" d="M1475,-153.89C1475,-141.36 1475,-117.8 1475,-101.07"/>
<polygon fill="#63b8ff" stroke="#63b8ff" points="1478.5,-100.8 1475,-90.8 1471.5,-100.8 1478.5,-100.8"/>
</a>
</g>
</g>
<!-- Node24&#45;&gt;Node4 -->
<g id="edge28_Node000024_Node000004" class="edge">
<title>Node24&#45;&gt;Node4</title>
<g id="a_edge28_Node000024_Node000004"><a xlink:title=" ">
<path fill="none" stroke="#63b8ff" d="M1464.45,-71.48C1450.27,-60.01 1424.82,-39.45 1407.43,-25.4"/>
<polygon fill="#63b8ff" stroke="#63b8ff" points="1409.61,-22.66 1399.63,-19.09 1405.21,-28.1 1409.61,-22.66"/>
</a>
</g>
</g>
<!-- Node24&#45;&gt;Node6 -->
<g id="edge29_Node000024_Node000006" class="edge">
<title>Node24&#45;&gt;Node6</title>
<g id="a_edge29_Node000024_Node000006"><a xlink:title=" ">
<path fill="none" stroke="#63b8ff" d="M1465.12,-71.41C1457.87,-65.64 1447.49,-58.5 1437,-55 1307.12,-11.72 875.66,-9.86 748.54,-10.28"/>
<polygon fill="#63b8ff" stroke="#63b8ff" points="748.2,-6.78 738.21,-10.32 748.23,-13.78 748.2,-6.78"/>
</a>
</g>
</g>
<!-- Node24&#45;&gt;Node18 -->
<g id="edge27_Node000024_Node000018" class="edge">
<title>Node24&#45;&gt;Node18</title>
<g id="a_edge27_Node000024_Node000018"><a xlink:title=" ">
<path fill="none" stroke="#63b8ff" d="M1499.16,-71.48C1534.01,-59.18 1598.56,-36.41 1638.15,-22.44"/>
<polygon fill="#63b8ff" stroke="#63b8ff" points="1639.38,-25.72 1647.65,-19.09 1637.05,-19.12 1639.38,-25.72"/>
</a>
</g>
</g>
<!-- Node24&#45;&gt;Node23 -->
<g id="edge26_Node000024_Node000023" class="edge">
<title>Node24&#45;&gt;Node23</title>
<g id="a_edge26_Node000024_Node000023"><a xlink:title=" ">
<path fill="none" stroke="#63b8ff" d="M1478.43,-71.48C1482.72,-60.85 1490.15,-42.39 1495.72,-28.56"/>
<polygon fill="#63b8ff" stroke="#63b8ff" points="1499.05,-29.68 1499.54,-19.09 1492.56,-27.06 1499.05,-29.68"/>
</a>
</g>
</g>
</g>
</svg>
