<?xml version="1.0" encoding="UTF-8" standalone="no"?>
<!DOCTYPE svg PUBLIC "-//W3C//DTD SVG 1.1//EN"
 "http://www.w3.org/Graphics/SVG/1.1/DTD/svg11.dtd">
<!-- Generated by graphviz version 2.43.0 (0)
 -->
<!-- Title: Tmc9660AdcWrapper.cpp Pages: 1 -->
<svg width="1489pt" height="170pt"
 viewBox="0.00 0.00 1488.50 170.00" xmlns="http://www.w3.org/2000/svg" xmlns:xlink="http://www.w3.org/1999/xlink">
<g id="graph0" class="graph" transform="scale(1 1) rotate(0) translate(4 166)">
<title>Tmc9660AdcWrapper.cpp</title>
<!-- Node1 -->
<g id="Node000001" class="node">
<title>Node1</title>
<g id="a_Node000001"><a xlink:title="Implementation of the TMC9660 ADC delegation wrapper.">
<polygon fill="#999999" stroke="#666666" points="362,-162 222,-162 222,-143 362,-143 362,-162"/>
<text text-anchor="middle" x="292" y="-150" font-family="Helvetica,sans-Serif" font-size="10.00">Tmc9660AdcWrapper.cpp</text>
</a>
</g>
</g>
<!-- Node2 -->
<g id="Node000002" class="node">
<title>Node2</title>
<g id="a_Node000002"><a xlink:href="Tmc9660AdcWrapper_8h.html" target="_top" xlink:title="Thin BaseAdc delegation wrapper for manager&#45;layer ownership of TMC9660 ADC.">
<polygon fill="white" stroke="#666666" points="288.5,-107 159.5,-107 159.5,-88 288.5,-88 288.5,-107"/>
<text text-anchor="middle" x="224" y="-95" font-family="Helvetica,sans-Serif" font-size="10.00">Tmc9660AdcWrapper.h</text>
</a>
</g>
</g>
<!-- Node1&#45;&gt;Node2 -->
<g id="edge1_Node000001_Node000002" class="edge">
<title>Node1&#45;&gt;Node2</title>
<g id="a_edge1_Node000001_Node000002"><a xlink:title=" ">
<path fill="none" stroke="#63b8ff" d="M281.07,-142.98C270.92,-135.07 255.58,-123.11 243.35,-113.58"/>
<polygon fill="#63b8ff" stroke="#63b8ff" points="245.16,-110.56 235.12,-107.17 240.86,-116.08 245.16,-110.56"/>
</a>
</g>
</g>
<!-- Node4 -->
<g id="Node000004" class="node">
<title>Node4</title>
<g id="a_Node000004"><a xlink:href="Tmc9660Handler_8h.html" target="_top" xlink:title="Unified handler for TMC9660 motor controller with GPIO, ADC, and temperature integration.">
<polygon fill="white" stroke="#666666" points="592,-107 484,-107 484,-88 592,-88 592,-107"/>
<text text-anchor="middle" x="538" y="-95" font-family="Helvetica,sans-Serif" font-size="10.00">Tmc9660Handler.h</text>
</a>
</g>
</g>
<!-- Node1&#45;&gt;Node4 -->
<g id="edge3_Node000001_Node000004" class="edge">
<title>Node1&#45;&gt;Node4</title>
<g id="a_edge3_Node000001_Node000004"><a xlink:title=" ">
<path fill="none" stroke="#63b8ff" d="M331.52,-142.98C374.17,-133.8 442.15,-119.15 488.36,-109.19"/>
<polygon fill="#63b8ff" stroke="#63b8ff" points="489.13,-112.61 498.17,-107.08 487.65,-105.77 489.13,-112.61"/>
</a>
</g>
</g>
<!-- Node3 -->
<g id="Node000003" class="node">
<title>Node3</title>
<g id="a_Node000003"><a xlink:title=" ">
<polygon fill="#e0e0e0" stroke="#999999" points="94,-35.5 0,-35.5 0,-16.5 94,-16.5 94,-35.5"/>
<text text-anchor="middle" x="47" y="-23.5" font-family="Helvetica,sans-Serif" font-size="10.00">base/BaseAdc.h</text>
</a>
</g>
</g>
<!-- Node2&#45;&gt;Node3 -->
<g id="edge2_Node000002_Node000003" class="edge">
<title>Node2&#45;&gt;Node3</title>
<g id="a_edge2_Node000002_Node000003"><a xlink:title=" ">
<path fill="none" stroke="#63b8ff" d="M199.25,-87.95C174.66,-79.32 135.97,-65.4 103,-52 93.66,-48.2 83.56,-43.79 74.55,-39.74"/>
<polygon fill="#63b8ff" stroke="#63b8ff" points="75.83,-36.48 65.28,-35.53 72.94,-42.85 75.83,-36.48"/>
</a>
</g>
</g>
<!-- Node4&#45;&gt;Node3 -->
<g id="edge12_Node000004_Node000003" class="edge">
<title>Node4&#45;&gt;Node3</title>
<g id="a_edge12_Node000004_Node000003"><a xlink:title=" ">
<path fill="none" stroke="#63b8ff" d="M483.78,-96.43C400.49,-95.12 236.67,-87.69 103,-52 92.46,-49.19 81.39,-44.62 71.91,-40.16"/>
<polygon fill="#63b8ff" stroke="#63b8ff" points="73.2,-36.89 62.68,-35.62 70.11,-43.18 73.2,-36.89"/>
</a>
</g>
</g>
<!-- Node5 -->
<g id="Node000005" class="node">
<title>Node5</title>
<g id="a_Node000005"><a xlink:title=" ">
<polygon fill="#e0e0e0" stroke="#999999" points="162,-35.5 112,-35.5 112,-16.5 162,-16.5 162,-35.5"/>
<text text-anchor="middle" x="137" y="-23.5" font-family="Helvetica,sans-Serif" font-size="10.00">cstdint</text>
</a>
</g>
</g>
<!-- Node4&#45;&gt;Node5 -->
<g id="edge4_Node000004_Node000005" class="edge">
<title>Node4&#45;&gt;Node5</title>
<g id="a_edge4_Node000004_Node000005"><a xlink:title=" ">
<path fill="none" stroke="#63b8ff" d="M483.84,-93.32C395.99,-87.59 226.64,-74.05 171,-52 164.98,-49.61 159.06,-45.89 153.89,-42.05"/>
<polygon fill="#63b8ff" stroke="#63b8ff" points="155.99,-39.24 146.02,-35.66 151.58,-44.68 155.99,-39.24"/>
</a>
</g>
</g>
<!-- Node6 -->
<g id="Node000006" class="node">
<title>Node6</title>
<g id="a_Node000006"><a xlink:title=" ">
<polygon fill="#e0e0e0" stroke="#999999" points="238,-35.5 180,-35.5 180,-16.5 238,-16.5 238,-35.5"/>
<text text-anchor="middle" x="209" y="-23.5" font-family="Helvetica,sans-Serif" font-size="10.00">memory</text>
</a>
</g>
</g>
<!-- Node4&#45;&gt;Node6 -->
<g id="edge5_Node000004_Node000006" class="edge">
<title>Node4&#45;&gt;Node6</title>
<g id="a_edge5_Node000004_Node000006"><a xlink:title=" ">
<path fill="none" stroke="#63b8ff" d="M483.94,-95.11C424.15,-92.02 325.84,-82.29 247,-52 240.32,-49.44 233.62,-45.56 227.73,-41.61"/>
<polygon fill="#63b8ff" stroke="#63b8ff" points="229.46,-38.54 219.29,-35.55 225.37,-44.23 229.46,-38.54"/>
</a>
</g>
</g>
<!-- Node7 -->
<g id="Node000007" class="node">
<title>Node7</title>
<g id="a_Node000007"><a xlink:title=" ">
<polygon fill="#e0e0e0" stroke="#999999" points="298,-35.5 256,-35.5 256,-16.5 298,-16.5 298,-35.5"/>
<text text-anchor="middle" x="277" y="-23.5" font-family="Helvetica,sans-Serif" font-size="10.00">array</text>
</a>
</g>
</g>
<!-- Node4&#45;&gt;Node7 -->
<g id="edge6_Node000004_Node000007" class="edge">
<title>Node4&#45;&gt;Node7</title>
<g id="a_edge6_Node000004_Node000007"><a xlink:title=" ">
<path fill="none" stroke="#63b8ff" d="M483.8,-93.72C435.42,-89.5 363.65,-78.85 307,-52 301.92,-49.59 296.99,-46.13 292.64,-42.54"/>
<polygon fill="#63b8ff" stroke="#63b8ff" points="294.87,-39.83 285.1,-35.73 290.18,-45.03 294.87,-39.83"/>
</a>
</g>
</g>
<!-- Node8 -->
<g id="Node000008" class="node">
<title>Node8</title>
<g id="a_Node000008"><a xlink:title=" ">
<polygon fill="#e0e0e0" stroke="#999999" points="366,-35.5 316,-35.5 316,-16.5 366,-16.5 366,-35.5"/>
<text text-anchor="middle" x="341" y="-23.5" font-family="Helvetica,sans-Serif" font-size="10.00">atomic</text>
</a>
</g>
</g>
<!-- Node4&#45;&gt;Node8 -->
<g id="edge7_Node000004_Node000008" class="edge">
<title>Node4&#45;&gt;Node8</title>
<g id="a_edge7_Node000004_Node000008"><a xlink:title=" ">
<path fill="none" stroke="#63b8ff" d="M488.54,-87.93C455.32,-81 411.18,-69.49 375,-52 369.48,-49.33 363.93,-45.73 358.96,-42.1"/>
<polygon fill="#63b8ff" stroke="#63b8ff" points="360.82,-39.11 350.78,-35.71 356.51,-44.62 360.82,-39.11"/>
</a>
</g>
</g>
<!-- Node9 -->
<g id="Node000009" class="node">
<title>Node9</title>
<g id="a_Node000009"><a xlink:title=" ">
<polygon fill="#e0e0e0" stroke="#999999" points="453.5,-35.5 384.5,-35.5 384.5,-16.5 453.5,-16.5 453.5,-35.5"/>
<text text-anchor="middle" x="419" y="-23.5" font-family="Helvetica,sans-Serif" font-size="10.00">type_traits</text>
</a>
</g>
</g>
<!-- Node4&#45;&gt;Node9 -->
<g id="edge8_Node000004_Node000009" class="edge">
<title>Node4&#45;&gt;Node9</title>
<g id="a_edge8_Node000004_Node000009"><a xlink:title=" ">
<path fill="none" stroke="#63b8ff" d="M523.41,-87.98C503.25,-76.2 466.63,-54.82 442.57,-40.76"/>
<polygon fill="#63b8ff" stroke="#63b8ff" points="444.11,-37.61 433.71,-35.59 440.58,-43.66 444.11,-37.61"/>
</a>
</g>
</g>
<!-- Node10 -->
<g id="Node000010" class="node">
<title>Node10</title>
<g id="a_Node000010"><a xlink:title=" ">
<polygon fill="#e0e0e0" stroke="#999999" points="604.5,-46.5 471.5,-46.5 471.5,-5.5 604.5,-5.5 604.5,-46.5"/>
<text text-anchor="start" x="479.5" y="-34.5" font-family="Helvetica,sans-Serif" font-size="10.00">core/hf&#45;core&#45;drivers</text>
<text text-anchor="start" x="479.5" y="-23.5" font-family="Helvetica,sans-Serif" font-size="10.00">/external/hf&#45;tmc9660</text>
<text text-anchor="middle" x="538" y="-12.5" font-family="Helvetica,sans-Serif" font-size="10.00">&#45;driver/inc/tmc9660.hpp</text>
</a>
</g>
</g>
<!-- Node4&#45;&gt;Node10 -->
<g id="edge9_Node000004_Node000010" class="edge">
<title>Node4&#45;&gt;Node10</title>
<g id="a_edge9_Node000004_Node000010"><a xlink:title=" ">
<path fill="none" stroke="#63b8ff" d="M538,-87.98C538,-80.15 538,-68.08 538,-56.74"/>
<polygon fill="#63b8ff" stroke="#63b8ff" points="541.5,-56.67 538,-46.67 534.5,-56.67 541.5,-56.67"/>
</a>
</g>
</g>
<!-- Node11 -->
<g id="Node000011" class="node">
<title>Node11</title>
<g id="a_Node000011"><a xlink:title=" ">
<polygon fill="#e0e0e0" stroke="#999999" points="771,-52 623,-52 623,0 771,0 771,-52"/>
<text text-anchor="start" x="631" y="-40" font-family="Helvetica,sans-Serif" font-size="10.00">core/hf&#45;core&#45;drivers</text>
<text text-anchor="start" x="631" y="-29" font-family="Helvetica,sans-Serif" font-size="10.00">/external/hf&#45;tmc9660</text>
<text text-anchor="start" x="631" y="-18" font-family="Helvetica,sans-Serif" font-size="10.00">&#45;driver/inc/tmc9660_comm</text>
<text text-anchor="middle" x="697" y="-7" font-family="Helvetica,sans-Serif" font-size="10.00">_interface.hpp</text>
</a>
</g>
</g>
<!-- Node4&#45;&gt;Node11 -->
<g id="edge10_Node000004_Node000011" class="edge">
<title>Node4&#45;&gt;Node11</title>
<g id="a_edge10_Node000004_Node000011"><a xlink:title=" ">
<path fill="none" stroke="#63b8ff" d="M557.5,-87.98C575.74,-80 604.08,-67.62 630.45,-56.09"/>
<polygon fill="#63b8ff" stroke="#63b8ff" points="631.92,-59.27 639.68,-52.05 629.12,-52.85 631.92,-59.27"/>
</a>
</g>
</g>
<!-- Node12 -->
<g id="Node000012" class="node">
<title>Node12</title>
<g id="a_Node000012"><a xlink:title=" ">
<polygon fill="#e0e0e0" stroke="#999999" points="887,-35.5 789,-35.5 789,-16.5 887,-16.5 887,-35.5"/>
<text text-anchor="middle" x="838" y="-23.5" font-family="Helvetica,sans-Serif" font-size="10.00">base/BaseGpio.h</text>
</a>
</g>
</g>
<!-- Node4&#45;&gt;Node12 -->
<g id="edge11_Node000004_Node000012" class="edge">
<title>Node4&#45;&gt;Node12</title>
<g id="a_edge11_Node000004_Node000012"><a xlink:title=" ">
<path fill="none" stroke="#63b8ff" d="M592.17,-90.09C641.77,-83.39 716.84,-71.15 780,-52 790.62,-48.78 801.92,-44.19 811.69,-39.83"/>
<polygon fill="#63b8ff" stroke="#63b8ff" points="813.25,-42.96 820.87,-35.6 810.32,-36.6 813.25,-42.96"/>
</a>
</g>
</g>
<!-- Node13 -->
<g id="Node000013" class="node">
<title>Node13</title>
<g id="a_Node000013"><a xlink:title=" ">
<polygon fill="#e0e0e0" stroke="#999999" points="1042.5,-35.5 905.5,-35.5 905.5,-16.5 1042.5,-16.5 1042.5,-35.5"/>
<text text-anchor="middle" x="974" y="-23.5" font-family="Helvetica,sans-Serif" font-size="10.00">base/BaseTemperature.h</text>
</a>
</g>
</g>
<!-- Node4&#45;&gt;Node13 -->
<g id="edge13_Node000004_Node000013" class="edge">
<title>Node4&#45;&gt;Node13</title>
<g id="a_edge13_Node000004_Node000013"><a xlink:title=" ">
<path fill="none" stroke="#63b8ff" d="M592.21,-92.92C662.8,-87.55 789.73,-75.42 896,-52 911.2,-48.65 927.66,-43.6 941.52,-38.91"/>
<polygon fill="#63b8ff" stroke="#63b8ff" points="942.8,-42.17 951.1,-35.59 940.51,-35.55 942.8,-42.17"/>
</a>
</g>
</g>
<!-- Node14 -->
<g id="Node000014" class="node">
<title>Node14</title>
<g id="a_Node000014"><a xlink:title=" ">
<polygon fill="#e0e0e0" stroke="#999999" points="1151.5,-35.5 1060.5,-35.5 1060.5,-16.5 1151.5,-16.5 1151.5,-35.5"/>
<text text-anchor="middle" x="1106" y="-23.5" font-family="Helvetica,sans-Serif" font-size="10.00">base/BaseSpi.h</text>
</a>
</g>
</g>
<!-- Node4&#45;&gt;Node14 -->
<g id="edge14_Node000004_Node000014" class="edge">
<title>Node4&#45;&gt;Node14</title>
<g id="a_edge14_Node000004_Node000014"><a xlink:title=" ">
<path fill="none" stroke="#63b8ff" d="M592,-94.19C705.69,-88.95 966.31,-74.79 1052,-52 1062.12,-49.31 1072.69,-44.83 1081.77,-40.4"/>
<polygon fill="#63b8ff" stroke="#63b8ff" points="1083.63,-43.38 1090.94,-35.7 1080.44,-37.15 1083.63,-43.38"/>
</a>
</g>
</g>
<!-- Node15 -->
<g id="Node000015" class="node">
<title>Node15</title>
<g id="a_Node000015"><a xlink:title=" ">
<polygon fill="#e0e0e0" stroke="#999999" points="1266.5,-35.5 1169.5,-35.5 1169.5,-16.5 1266.5,-16.5 1266.5,-35.5"/>
<text text-anchor="middle" x="1218" y="-23.5" font-family="Helvetica,sans-Serif" font-size="10.00">base/BaseUart.h</text>
</a>
</g>
</g>
<!-- Node4&#45;&gt;Node15 -->
<g id="edge15_Node000004_Node000015" class="edge">
<title>Node4&#45;&gt;Node15</title>
<g id="a_edge15_Node000004_Node000015"><a xlink:title=" ">
<path fill="none" stroke="#63b8ff" d="M592.34,-94.99C723.39,-90.98 1053.89,-78.47 1161,-52 1172.01,-49.28 1183.58,-44.58 1193.4,-39.99"/>
<polygon fill="#63b8ff" stroke="#63b8ff" points="1195.1,-43.05 1202.54,-35.51 1192.02,-36.77 1195.1,-43.05"/>
</a>
</g>
</g>
<!-- Node16 -->
<g id="Node000016" class="node">
<title>Node16</title>
<g id="a_Node000016"><a xlink:title=" ">
<polygon fill="#e0e0e0" stroke="#999999" points="1417.5,-52 1284.5,-52 1284.5,0 1417.5,0 1417.5,-52"/>
<text text-anchor="start" x="1292.5" y="-40" font-family="Helvetica,sans-Serif" font-size="10.00">core/hf&#45;core&#45;drivers</text>
<text text-anchor="start" x="1292.5" y="-29" font-family="Helvetica,sans-Serif" font-size="10.00">/internal/hf&#45;internal</text>
<text text-anchor="start" x="1292.5" y="-18" font-family="Helvetica,sans-Serif" font-size="10.00">&#45;interface&#45;wrap/inc/utils</text>
<text text-anchor="middle" x="1351" y="-7" font-family="Helvetica,sans-Serif" font-size="10.00">/RtosMutex.h</text>
</a>
</g>
</g>
<!-- Node4&#45;&gt;Node16 -->
<g id="edge16_Node000004_Node000016" class="edge">
<title>Node4&#45;&gt;Node16</title>
<g id="a_edge16_Node000004_Node000016"><a xlink:title=" ">
<path fill="none" stroke="#63b8ff" d="M592.02,-95.07C735.72,-90.99 1125.98,-77.99 1273.95,-52.12"/>
<polygon fill="#63b8ff" stroke="#63b8ff" points="1274.97,-55.49 1284.17,-50.24 1273.7,-48.61 1274.97,-55.49"/>
</a>
</g>
</g>
<!-- Node17 -->
<g id="Node000017" class="node">
<title>Node17</title>
<g id="a_Node000017"><a xlink:title=" ">
<polygon fill="#e0e0e0" stroke="#999999" points="1480.5,-35.5 1435.5,-35.5 1435.5,-16.5 1480.5,-16.5 1480.5,-35.5"/>
<text text-anchor="middle" x="1458" y="-23.5" font-family="Helvetica,sans-Serif" font-size="10.00">utility</text>
</a>
</g>
</g>
<!-- Node4&#45;&gt;Node17 -->
<g id="edge17_Node000004_Node000017" class="edge">
<title>Node4&#45;&gt;Node17</title>
<g id="a_edge17_Node000004_Node000017"><a xlink:title=" ">
<path fill="none" stroke="#63b8ff" d="M592.18,-95.73C773.09,-92.91 1349.26,-81.65 1427,-52 1432.65,-49.84 1438.06,-46.24 1442.74,-42.43"/>
<polygon fill="#63b8ff" stroke="#63b8ff" points="1445.19,-44.93 1450.24,-35.62 1440.49,-39.75 1445.19,-44.93"/>
</a>
</g>
</g>
</g>
</svg>
